; NON-PLATED HOLES START AT T1
; THROUGH (PLATED) HOLES START AT T100
M48
INCH
T1C0.125984
T100C0.027559
%
T1
X001316Y028434
X077816Y001434
X077816Y028434
X001316Y001434
T100
X006316Y009934
X070816Y011434
X048316Y016934
X055816Y014434
X047316Y011434
X010316Y009934
X033816Y014434
X005316Y007934
X004316Y016934
X067316Y009934
X063316Y005934
X022316Y015934
X008316Y009934
X050816Y025934
X076816Y004934
X057816Y014434
X050816Y011434
X067316Y024934
X072816Y014434
X035816Y014434
X027316Y011434
X046316Y015934
X013816Y014434
X019816Y015934
X009316Y018934
X004316Y023934
X067316Y016934
X074816Y014434
X037816Y014434
X029316Y011434
X048316Y015934
X052816Y014434
X015816Y014434
X007316Y011434
X050816Y009934
X027316Y009934
X006316Y023934
X070816Y016934
X076816Y014434
X032816Y011434
X054816Y014434
X017816Y014434
X009316Y011434
X028316Y015934
X029316Y009934
X008316Y023934
X025316Y005934
X007316Y009934
X061316Y014434
X071816Y011434
X050816Y016934
X056816Y014434
X012816Y025934
X067316Y015934
X038816Y004934
X012816Y011434
X029316Y024934
X069816Y025934
X034816Y014434
X069816Y011434
X063316Y014434
X073816Y011434
X011316Y024934
X046316Y021934
X041316Y014434
X051816Y011434
X029316Y016934
X036816Y014434
X014816Y014434
X075816Y011434
X044316Y005934
X012816Y009934
X010316Y011434
X069816Y009934
X043316Y014434
X053816Y011434
X032816Y016934
X031816Y025934
X038816Y014434
X031816Y011434
X050816Y015934
X073816Y009934
X016816Y014434
X007316Y023934
X071816Y016934
X045316Y014434
X055816Y011434
X060316Y014434
X033816Y011434
X023316Y014434
X005316Y004934
X012816Y016934
X034816Y019934
X018816Y014434
X029316Y015934
X069816Y016934
X053816Y009934
X009316Y023934
X031816Y009934
X063316Y019934
X057816Y011434
X062316Y014434
X072816Y011434
X011316Y015934
X035816Y011434
X051816Y016934
X025316Y014434
X003316Y014434
X013816Y011434
X055816Y009934
X009316Y015934
X064316Y014434
X074816Y011434
X037816Y011434
X006316Y005934
X042316Y014434
X052816Y011434
X031816Y016934
X005316Y014434
X015816Y011434
X057816Y009934
X028316Y020934
X019816Y004934
X050816Y006934
X012816Y015934
X035816Y009934
X069816Y015934
X066316Y014434
X076816Y011434
X013816Y009934
X048316Y004934
X057816Y024934
X044316Y014434
X054816Y011434
X073816Y015934
X033816Y016934
X017816Y011434
X022316Y014434
X010316Y023934
X004316Y004934
X074816Y009934
X015816Y009934
X061316Y011434
X057816Y016934
X046316Y014434
X056816Y011434
X025316Y019934
X010316Y015934
X034816Y011434
X024316Y014434
X053816Y015934
X006316Y004934
X013816Y016934
X019816Y014434
X031816Y015934
X054816Y009934
X010316Y004934
X017816Y009934
X063316Y011434
X041316Y025934
X067316Y004934
X048316Y014434
X041316Y011434
X076816Y024934
X053816Y007934
X036816Y011434
X052816Y016934
X026316Y014434
X055816Y015934
X004316Y014434
X014816Y011434
X012816Y006934
X034816Y009934
X069816Y006934
X043316Y011434
X065316Y014434
X038816Y011434
X028316Y014434
X057816Y015934
X006316Y014434
X016816Y011434
X035816Y015934
X036816Y009934
X061316Y016934
X045316Y011434
X060316Y025934
X073816Y021934
X067316Y014434
X060316Y011434
X023316Y011434
X008316Y014434
X018816Y011434
X013816Y007934
X038816Y009934
X031816Y006934
X016816Y009934
X070816Y014434
X062316Y011434
X041316Y016934
X025316Y011434
X053816Y021934
X047316Y014434
X003316Y025934
X076816Y015934
X029316Y004934
X003316Y011434
X038816Y024934
X045316Y009934
X015816Y007934
X014816Y016934
X017816Y015934
X063316Y008934
X064316Y011434
X043316Y016934
X055816Y021934
X050816Y014434
X042316Y011434
X038816Y016934
X005316Y011434
X027316Y014434
X025316Y009934
X034816Y015934
X066316Y011434
X060316Y016934
X044316Y011434
X063316Y015934
X023316Y016934
X022316Y025934
X035816Y021934
X029316Y014434
X022316Y011434
X041316Y015934
X064316Y009934
X034816Y007934
X007316Y014434
X005316Y009934
X062316Y016934
X046316Y011434
X032816Y014434
X024316Y011434
X003316Y016934
X009316Y014434
X019816Y011434
X038816Y015934
X044316Y009934
X048316Y011434
X071816Y014434
X042316Y016934
X026316Y011434
X005316Y016934
X017816Y021934
X060316Y015934
X012816Y014434
X004316Y011434
X046316Y009934
X069816Y014434
X019816Y009934
X073816Y014434
X065316Y011434
X028316Y011434
X051816Y014434
X022316Y016934
X006316Y011434
X025316Y015934
X048316Y009934
X019816Y024934
X003316Y015934
X026316Y009934
X005316Y023934
X075816Y014434
X067316Y011434
X057816Y004934
X048316Y024934
X010316Y014434
X053816Y014434
X024316Y016934
X008316Y011434
X031816Y014434
X019816Y016934
X065316Y009934
T00
M30
