G04 #@! TF.FileFunction,Legend,Bot*
%FSLAX46Y46*%
G04 Gerber Fmt 4.6, Leading zero omitted, Abs format (unit mm)*
G04 Created by KiCad (PCBNEW 0.201601242101+6509~42~ubuntu15.10.1-product) date Mon 25 Jan 2016 06:39:59 PM CET*
%MOMM*%
G01*
G04 APERTURE LIST*
%ADD10C,0.020000*%
%ADD11C,0.150000*%
%ADD12C,0.076200*%
G04 APERTURE END LIST*
D10*
D11*
X180848000Y-103378000D02*
X180848000Y-98298000D01*
X180848000Y-98298000D02*
X183388000Y-98298000D01*
X183388000Y-98298000D02*
X183388000Y-103378000D01*
X183668000Y-106198000D02*
X183668000Y-104648000D01*
X183388000Y-103378000D02*
X180848000Y-103378000D01*
X180568000Y-104648000D02*
X180568000Y-106198000D01*
X180568000Y-106198000D02*
X183668000Y-106198000D01*
D12*
X166308193Y-98558410D02*
X166192079Y-98597115D01*
X165998555Y-98597115D01*
X165921145Y-98558410D01*
X165882441Y-98519706D01*
X165843736Y-98442296D01*
X165843736Y-98364887D01*
X165882441Y-98287477D01*
X165921145Y-98248772D01*
X165998555Y-98210068D01*
X166153374Y-98171363D01*
X166230783Y-98132658D01*
X166269488Y-98093953D01*
X166308193Y-98016544D01*
X166308193Y-97939134D01*
X166269488Y-97861725D01*
X166230783Y-97823020D01*
X166153374Y-97784315D01*
X165959850Y-97784315D01*
X165843736Y-97823020D01*
X165572803Y-97784315D02*
X165379279Y-98597115D01*
X165224460Y-98016544D01*
X165069641Y-98597115D01*
X164876117Y-97784315D01*
X164605184Y-97861725D02*
X164566479Y-97823020D01*
X164489070Y-97784315D01*
X164295546Y-97784315D01*
X164218136Y-97823020D01*
X164179432Y-97861725D01*
X164140727Y-97939134D01*
X164140727Y-98016544D01*
X164179432Y-98132658D01*
X164643889Y-98597115D01*
X164140727Y-98597115D01*
D11*
X179078000Y-98631810D02*
X179030381Y-98536572D01*
X179030381Y-98393715D01*
X179078000Y-98250857D01*
X179173238Y-98155619D01*
X179268476Y-98108000D01*
X179458952Y-98060381D01*
X179601810Y-98060381D01*
X179792286Y-98108000D01*
X179887524Y-98155619D01*
X179982762Y-98250857D01*
X180030381Y-98393715D01*
X180030381Y-98488953D01*
X179982762Y-98631810D01*
X179935143Y-98679429D01*
X179601810Y-98679429D01*
X179601810Y-98488953D01*
X180030381Y-99108000D02*
X179030381Y-99108000D01*
X180030381Y-99679429D01*
X179030381Y-99679429D01*
X180030381Y-100155619D02*
X179030381Y-100155619D01*
X179030381Y-100393714D01*
X179078000Y-100536572D01*
X179173238Y-100631810D01*
X179268476Y-100679429D01*
X179458952Y-100727048D01*
X179601810Y-100727048D01*
X179792286Y-100679429D01*
X179887524Y-100631810D01*
X179982762Y-100536572D01*
X180030381Y-100393714D01*
X180030381Y-100155619D01*
X180030381Y-101917524D02*
X179030381Y-101917524D01*
X179030381Y-102298477D01*
X179078000Y-102393715D01*
X179125619Y-102441334D01*
X179220857Y-102488953D01*
X179363714Y-102488953D01*
X179458952Y-102441334D01*
X179506571Y-102393715D01*
X179554190Y-102298477D01*
X179554190Y-101917524D01*
X179125619Y-102869905D02*
X179078000Y-102917524D01*
X179030381Y-103012762D01*
X179030381Y-103250858D01*
X179078000Y-103346096D01*
X179125619Y-103393715D01*
X179220857Y-103441334D01*
X179316095Y-103441334D01*
X179458952Y-103393715D01*
X180030381Y-102822286D01*
X180030381Y-103441334D01*
X180030381Y-104631810D02*
X179030381Y-104631810D01*
X179030381Y-105012763D01*
X179078000Y-105108001D01*
X179125619Y-105155620D01*
X179220857Y-105203239D01*
X179363714Y-105203239D01*
X179458952Y-105155620D01*
X179506571Y-105108001D01*
X179554190Y-105012763D01*
X179554190Y-104631810D01*
X180030381Y-106155620D02*
X180030381Y-105584191D01*
X180030381Y-105869905D02*
X179030381Y-105869905D01*
X179173238Y-105774667D01*
X179268476Y-105679429D01*
X179316095Y-105584191D01*
D12*
X152594733Y-98525390D02*
X152478619Y-98564095D01*
X152285095Y-98564095D01*
X152207685Y-98525390D01*
X152168981Y-98486686D01*
X152130276Y-98409276D01*
X152130276Y-98331867D01*
X152168981Y-98254457D01*
X152207685Y-98215752D01*
X152285095Y-98177048D01*
X152439914Y-98138343D01*
X152517323Y-98099638D01*
X152556028Y-98060933D01*
X152594733Y-97983524D01*
X152594733Y-97906114D01*
X152556028Y-97828705D01*
X152517323Y-97790000D01*
X152439914Y-97751295D01*
X152246390Y-97751295D01*
X152130276Y-97790000D01*
X151859343Y-97751295D02*
X151665819Y-98564095D01*
X151511000Y-97983524D01*
X151356181Y-98564095D01*
X151162657Y-97751295D01*
X150427267Y-98564095D02*
X150891724Y-98564095D01*
X150659495Y-98564095D02*
X150659495Y-97751295D01*
X150736905Y-97867410D01*
X150814314Y-97944819D01*
X150891724Y-97983524D01*
M02*
