%FSLAX45Y45*%
G04 Gerber Fmt 4.5, Leading zero omitted, Abs format (unit mm)*
G04 Created by KiCad (PCBNEW 0.201601262101+6516~42~ubuntu15.10.1-product) date Wed 27 Jan 2016 01:39:52 PM CET*
%MOMM*%
G01*
G04 APERTURE LIST*
%ADD10C,0.127000*%
%ADD11C,0.150000*%
%ADD12C,0.200000*%
%ADD13C,0.300000*%
G04 APERTURE END LIST*
D10*
D11*
X13970000Y-10871200D02*
X16687800Y-10871200D01*
X13970000Y-9728200D02*
X13970000Y-10871200D01*
X18440400Y-9728200D02*
X13970000Y-9728200D01*
X18440400Y-10871200D02*
X18440400Y-9728200D01*
X16687800Y-10871200D02*
X18440400Y-10871200D01*
D12*
D13*
X14233928Y-11344414D02*
X14233928Y-11044414D01*
X14305357Y-11044414D01*
X14348214Y-11058700D01*
X14376786Y-11087272D01*
X14391071Y-11115843D01*
X14405357Y-11172986D01*
X14405357Y-11215843D01*
X14391071Y-11272986D01*
X14376786Y-11301557D01*
X14348214Y-11330129D01*
X14305357Y-11344414D01*
X14233928Y-11344414D01*
X14533928Y-11344414D02*
X14533928Y-11144414D01*
X14533928Y-11201557D02*
X14548214Y-11172986D01*
X14562500Y-11158700D01*
X14591071Y-11144414D01*
X14619643Y-11144414D01*
X14719643Y-11344414D02*
X14719643Y-11144414D01*
X14719643Y-11044414D02*
X14705357Y-11058700D01*
X14719643Y-11072986D01*
X14733928Y-11058700D01*
X14719643Y-11044414D01*
X14719643Y-11072986D01*
X14905357Y-11344414D02*
X14876786Y-11330129D01*
X14862500Y-11301557D01*
X14862500Y-11044414D01*
X15062500Y-11344414D02*
X15033928Y-11330129D01*
X15019643Y-11301557D01*
X15019643Y-11044414D01*
X15405357Y-11344414D02*
X15405357Y-11044414D01*
X15505357Y-11258700D01*
X15605357Y-11044414D01*
X15605357Y-11344414D01*
X15876786Y-11344414D02*
X15876786Y-11187271D01*
X15862500Y-11158700D01*
X15833928Y-11144414D01*
X15776786Y-11144414D01*
X15748214Y-11158700D01*
X15876786Y-11330129D02*
X15848214Y-11344414D01*
X15776786Y-11344414D01*
X15748214Y-11330129D01*
X15733928Y-11301557D01*
X15733928Y-11272986D01*
X15748214Y-11244414D01*
X15776786Y-11230129D01*
X15848214Y-11230129D01*
X15876786Y-11215843D01*
X16019643Y-11144414D02*
X16019643Y-11444414D01*
X16019643Y-11158700D02*
X16048214Y-11144414D01*
X16105357Y-11144414D01*
X16133928Y-11158700D01*
X16148214Y-11172986D01*
X16162500Y-11201557D01*
X16162500Y-11287271D01*
X16148214Y-11315843D01*
X16133928Y-11330129D01*
X16105357Y-11344414D01*
X16048214Y-11344414D01*
X16019643Y-11330129D01*
X16291071Y-11315843D02*
X16305357Y-11330129D01*
X16291071Y-11344414D01*
X16276786Y-11330129D01*
X16291071Y-11315843D01*
X16291071Y-11344414D01*
X16291071Y-11158700D02*
X16305357Y-11172986D01*
X16291071Y-11187271D01*
X16276786Y-11172986D01*
X16291071Y-11158700D01*
X16291071Y-11187271D01*
M02*
