G04 #@! TF.FileFunction,Copper,L2,Bot,Signal*
%FSLAX46Y46*%
G04 Gerber Fmt 4.6, Leading zero omitted, Abs format (unit mm)*
G04 Created by KiCad (PCBNEW 0.201601262101+6516~42~ubuntu15.10.1-product) date Wed 27 Jan 2016 03:13:34 PM CET*
%MOMM*%
G01*
G04 APERTURE LIST*
%ADD10C,0.020000*%
%ADD11C,0.100000*%
%ADD12R,2.032000X2.032000*%
%ADD13O,2.032000X2.032000*%
%ADD14R,2.032000X2.500000*%
%ADD15C,0.900000*%
%ADD16C,0.150000*%
G04 APERTURE END LIST*
D10*
D11*
X145152857Y-106878381D02*
X145152857Y-105878381D01*
X144771904Y-105878381D01*
X144676666Y-105926000D01*
X144629047Y-105973619D01*
X144581428Y-106068857D01*
X144581428Y-106211714D01*
X144629047Y-106306952D01*
X144676666Y-106354571D01*
X144771904Y-106402190D01*
X145152857Y-106402190D01*
X143819523Y-106354571D02*
X143676666Y-106402190D01*
X143629047Y-106449810D01*
X143581428Y-106545048D01*
X143581428Y-106687905D01*
X143629047Y-106783143D01*
X143676666Y-106830762D01*
X143771904Y-106878381D01*
X144152857Y-106878381D01*
X144152857Y-105878381D01*
X143819523Y-105878381D01*
X143724285Y-105926000D01*
X143676666Y-105973619D01*
X143629047Y-106068857D01*
X143629047Y-106164095D01*
X143676666Y-106259333D01*
X143724285Y-106306952D01*
X143819523Y-106354571D01*
X144152857Y-106354571D01*
X143248095Y-106878381D02*
X142724285Y-106211714D01*
X143248095Y-106211714D02*
X142724285Y-106878381D01*
X142390952Y-105973619D02*
X142343333Y-105926000D01*
X142248095Y-105878381D01*
X142009999Y-105878381D01*
X141914761Y-105926000D01*
X141867142Y-105973619D01*
X141819523Y-106068857D01*
X141819523Y-106164095D01*
X141867142Y-106306952D01*
X142438571Y-106878381D01*
X141819523Y-106878381D01*
D12*
X182118000Y-104648000D03*
D13*
X182118000Y-102108000D03*
X182118000Y-99568000D03*
D14*
X148259800Y-99745800D03*
X154762200Y-99745800D03*
X148259800Y-104267000D03*
X154762200Y-104267000D03*
X161973260Y-99778820D03*
X168475660Y-99778820D03*
X161973260Y-104300020D03*
X168475660Y-104300020D03*
D15*
X182118000Y-104648000D02*
X179324000Y-104648000D01*
X157937200Y-107442000D02*
X154762200Y-104267000D01*
X176530000Y-107442000D02*
X157937200Y-107442000D01*
X179324000Y-104648000D02*
X176530000Y-107442000D01*
X148259800Y-104267000D02*
X154762200Y-104267000D01*
X168475660Y-104300020D02*
X168475660Y-104467660D01*
X168475660Y-104467660D02*
X169926000Y-105918000D01*
X179832000Y-102108000D02*
X182118000Y-102108000D01*
X176022000Y-105918000D02*
X179832000Y-102108000D01*
X169926000Y-105918000D02*
X176022000Y-105918000D01*
X161973260Y-104300020D02*
X168475660Y-104300020D01*
D16*
G36*
X183746000Y-102096306D02*
X183626609Y-101496089D01*
X183279990Y-100977336D01*
X182761237Y-100630717D01*
X182661927Y-100610963D01*
X182890087Y-100485346D01*
X183182368Y-100120052D01*
X183260965Y-99930259D01*
X183257274Y-99747000D01*
X182297000Y-99747000D01*
X182297000Y-99767000D01*
X181939000Y-99767000D01*
X181939000Y-99747000D01*
X180978726Y-99747000D01*
X180975035Y-99930259D01*
X181053632Y-100120052D01*
X181345913Y-100485346D01*
X181574073Y-100610963D01*
X181474763Y-100630717D01*
X180956010Y-100977336D01*
X180890753Y-101075000D01*
X179832000Y-101075000D01*
X179436688Y-101153632D01*
X179101559Y-101377558D01*
X175594118Y-104885000D01*
X170353883Y-104885000D01*
X170086081Y-104617198D01*
X170086081Y-103050020D01*
X170040833Y-102822545D01*
X169911979Y-102629701D01*
X169719135Y-102500847D01*
X169668682Y-102490811D01*
X172310665Y-102490811D01*
X172604327Y-103201526D01*
X173147614Y-103745762D01*
X173857816Y-104040664D01*
X174626811Y-104041335D01*
X175337526Y-103747673D01*
X175881762Y-103204386D01*
X176176664Y-102494184D01*
X176177335Y-101725189D01*
X175883673Y-101014474D01*
X175340386Y-100470238D01*
X174630184Y-100175336D01*
X173861189Y-100174665D01*
X173150474Y-100468327D01*
X172606238Y-101011614D01*
X172311336Y-101721816D01*
X172310665Y-102490811D01*
X169668682Y-102490811D01*
X169491660Y-102455599D01*
X167459660Y-102455599D01*
X167232185Y-102500847D01*
X167039341Y-102629701D01*
X166910487Y-102822545D01*
X166865239Y-103050020D01*
X166865239Y-103267020D01*
X163583681Y-103267020D01*
X163583681Y-103050020D01*
X163538433Y-102822545D01*
X163409579Y-102629701D01*
X163216735Y-102500847D01*
X162989260Y-102455599D01*
X160957260Y-102455599D01*
X160729785Y-102500847D01*
X160536941Y-102629701D01*
X160408087Y-102822545D01*
X160362839Y-103050020D01*
X160362839Y-105550020D01*
X160408087Y-105777495D01*
X160453000Y-105844712D01*
X160453000Y-106409000D01*
X158365082Y-106409000D01*
X156372621Y-104416539D01*
X156372621Y-103017000D01*
X156327373Y-102789525D01*
X156198519Y-102596681D01*
X156005675Y-102467827D01*
X155778200Y-102422579D01*
X153746200Y-102422579D01*
X153518725Y-102467827D01*
X153325881Y-102596681D01*
X153197027Y-102789525D01*
X153151779Y-103017000D01*
X153151779Y-103234000D01*
X149870221Y-103234000D01*
X149870221Y-103017000D01*
X149824973Y-102789525D01*
X149696119Y-102596681D01*
X149503275Y-102467827D01*
X149275800Y-102422579D01*
X147243800Y-102422579D01*
X147016325Y-102467827D01*
X146823481Y-102596681D01*
X146694627Y-102789525D01*
X146649379Y-103017000D01*
X146649379Y-105517000D01*
X146694627Y-105744475D01*
X146823481Y-105937319D01*
X147016325Y-106066173D01*
X147243800Y-106111421D01*
X149275800Y-106111421D01*
X149503275Y-106066173D01*
X149696119Y-105937319D01*
X149824973Y-105744475D01*
X149870221Y-105517000D01*
X149870221Y-105300000D01*
X153151779Y-105300000D01*
X153151779Y-105517000D01*
X153197027Y-105744475D01*
X153325881Y-105937319D01*
X153518725Y-106066173D01*
X153746200Y-106111421D01*
X155145739Y-106111421D01*
X157088318Y-108054000D01*
X140358000Y-108054000D01*
X140358000Y-104993000D01*
X140996048Y-104993000D01*
X140996048Y-107759000D01*
X146023953Y-107759000D01*
X146023953Y-104993000D01*
X140996048Y-104993000D01*
X140358000Y-104993000D01*
X140358000Y-102490811D01*
X141322665Y-102490811D01*
X141616327Y-103201526D01*
X142159614Y-103745762D01*
X142869816Y-104040664D01*
X143638811Y-104041335D01*
X144349526Y-103747673D01*
X144893762Y-103204386D01*
X145188664Y-102494184D01*
X145189335Y-101725189D01*
X144895673Y-101014474D01*
X144352386Y-100470238D01*
X143642184Y-100175336D01*
X142873189Y-100174665D01*
X142162474Y-100468327D01*
X141618238Y-101011614D01*
X141323336Y-101721816D01*
X141322665Y-102490811D01*
X140358000Y-102490811D01*
X140358000Y-99970550D01*
X147060800Y-99970550D01*
X147060800Y-101032201D01*
X147088660Y-101099461D01*
X147140139Y-101150940D01*
X147207399Y-101178800D01*
X148035050Y-101178800D01*
X148080800Y-101133050D01*
X148080800Y-99924800D01*
X148438800Y-99924800D01*
X148438800Y-101133050D01*
X148484550Y-101178800D01*
X149312201Y-101178800D01*
X149379461Y-101150940D01*
X149430940Y-101099461D01*
X149458800Y-101032201D01*
X149458800Y-99970550D01*
X153563200Y-99970550D01*
X153563200Y-101032201D01*
X153591060Y-101099461D01*
X153642539Y-101150940D01*
X153709799Y-101178800D01*
X154537450Y-101178800D01*
X154583200Y-101133050D01*
X154583200Y-99924800D01*
X154941200Y-99924800D01*
X154941200Y-101133050D01*
X154986950Y-101178800D01*
X155814601Y-101178800D01*
X155881861Y-101150940D01*
X155933340Y-101099461D01*
X155961200Y-101032201D01*
X155961200Y-100003570D01*
X160774260Y-100003570D01*
X160774260Y-101065221D01*
X160802120Y-101132481D01*
X160853599Y-101183960D01*
X160920859Y-101211820D01*
X161748510Y-101211820D01*
X161794260Y-101166070D01*
X161794260Y-99957820D01*
X162152260Y-99957820D01*
X162152260Y-101166070D01*
X162198010Y-101211820D01*
X163025661Y-101211820D01*
X163092921Y-101183960D01*
X163144400Y-101132481D01*
X163172260Y-101065221D01*
X163172260Y-100003570D01*
X167276660Y-100003570D01*
X167276660Y-101065221D01*
X167304520Y-101132481D01*
X167355999Y-101183960D01*
X167423259Y-101211820D01*
X168250910Y-101211820D01*
X168296660Y-101166070D01*
X168296660Y-99957820D01*
X168654660Y-99957820D01*
X168654660Y-101166070D01*
X168700410Y-101211820D01*
X169528061Y-101211820D01*
X169595321Y-101183960D01*
X169646800Y-101132481D01*
X169674660Y-101065221D01*
X169674660Y-100003570D01*
X169628910Y-99957820D01*
X168654660Y-99957820D01*
X168296660Y-99957820D01*
X167322410Y-99957820D01*
X167276660Y-100003570D01*
X163172260Y-100003570D01*
X163126510Y-99957820D01*
X162152260Y-99957820D01*
X161794260Y-99957820D01*
X160820010Y-99957820D01*
X160774260Y-100003570D01*
X155961200Y-100003570D01*
X155961200Y-99970550D01*
X155915450Y-99924800D01*
X154941200Y-99924800D01*
X154583200Y-99924800D01*
X153608950Y-99924800D01*
X153563200Y-99970550D01*
X149458800Y-99970550D01*
X149413050Y-99924800D01*
X148438800Y-99924800D01*
X148080800Y-99924800D01*
X147106550Y-99924800D01*
X147060800Y-99970550D01*
X140358000Y-99970550D01*
X140358000Y-98459399D01*
X147060800Y-98459399D01*
X147060800Y-99521050D01*
X147106550Y-99566800D01*
X148080800Y-99566800D01*
X148080800Y-98358550D01*
X148438800Y-98358550D01*
X148438800Y-99566800D01*
X149413050Y-99566800D01*
X149458800Y-99521050D01*
X149458800Y-98459399D01*
X153563200Y-98459399D01*
X153563200Y-99521050D01*
X153608950Y-99566800D01*
X154583200Y-99566800D01*
X154583200Y-98358550D01*
X154941200Y-98358550D01*
X154941200Y-99566800D01*
X155915450Y-99566800D01*
X155961200Y-99521050D01*
X155961200Y-98492419D01*
X160774260Y-98492419D01*
X160774260Y-99554070D01*
X160820010Y-99599820D01*
X161794260Y-99599820D01*
X161794260Y-98391570D01*
X162152260Y-98391570D01*
X162152260Y-99599820D01*
X163126510Y-99599820D01*
X163172260Y-99554070D01*
X163172260Y-98492419D01*
X167276660Y-98492419D01*
X167276660Y-99554070D01*
X167322410Y-99599820D01*
X168296660Y-99599820D01*
X168296660Y-98391570D01*
X168654660Y-98391570D01*
X168654660Y-99599820D01*
X169628910Y-99599820D01*
X169674660Y-99554070D01*
X169674660Y-99205741D01*
X180975035Y-99205741D01*
X180978726Y-99389000D01*
X181939000Y-99389000D01*
X181939000Y-98428170D01*
X182297000Y-98428170D01*
X182297000Y-99389000D01*
X183257274Y-99389000D01*
X183260965Y-99205741D01*
X183182368Y-99015948D01*
X182890087Y-98650654D01*
X182480262Y-98425018D01*
X182297000Y-98428170D01*
X181939000Y-98428170D01*
X181755738Y-98425018D01*
X181345913Y-98650654D01*
X181053632Y-99015948D01*
X180975035Y-99205741D01*
X169674660Y-99205741D01*
X169674660Y-98492419D01*
X169646800Y-98425159D01*
X169595321Y-98373680D01*
X169528061Y-98345820D01*
X168700410Y-98345820D01*
X168654660Y-98391570D01*
X168296660Y-98391570D01*
X168250910Y-98345820D01*
X167423259Y-98345820D01*
X167355999Y-98373680D01*
X167304520Y-98425159D01*
X167276660Y-98492419D01*
X163172260Y-98492419D01*
X163144400Y-98425159D01*
X163092921Y-98373680D01*
X163025661Y-98345820D01*
X162198010Y-98345820D01*
X162152260Y-98391570D01*
X161794260Y-98391570D01*
X161748510Y-98345820D01*
X160920859Y-98345820D01*
X160853599Y-98373680D01*
X160802120Y-98425159D01*
X160774260Y-98492419D01*
X155961200Y-98492419D01*
X155961200Y-98459399D01*
X155933340Y-98392139D01*
X155881861Y-98340660D01*
X155814601Y-98312800D01*
X154986950Y-98312800D01*
X154941200Y-98358550D01*
X154583200Y-98358550D01*
X154537450Y-98312800D01*
X153709799Y-98312800D01*
X153642539Y-98340660D01*
X153591060Y-98392139D01*
X153563200Y-98459399D01*
X149458800Y-98459399D01*
X149430940Y-98392139D01*
X149379461Y-98340660D01*
X149312201Y-98312800D01*
X148484550Y-98312800D01*
X148438800Y-98358550D01*
X148080800Y-98358550D01*
X148035050Y-98312800D01*
X147207399Y-98312800D01*
X147140139Y-98340660D01*
X147088660Y-98392139D01*
X147060800Y-98459399D01*
X140358000Y-98459399D01*
X140358000Y-97940000D01*
X183746000Y-97940000D01*
X183746000Y-102096306D01*
X183746000Y-102096306D01*
G37*
X183746000Y-102096306D02*
X183626609Y-101496089D01*
X183279990Y-100977336D01*
X182761237Y-100630717D01*
X182661927Y-100610963D01*
X182890087Y-100485346D01*
X183182368Y-100120052D01*
X183260965Y-99930259D01*
X183257274Y-99747000D01*
X182297000Y-99747000D01*
X182297000Y-99767000D01*
X181939000Y-99767000D01*
X181939000Y-99747000D01*
X180978726Y-99747000D01*
X180975035Y-99930259D01*
X181053632Y-100120052D01*
X181345913Y-100485346D01*
X181574073Y-100610963D01*
X181474763Y-100630717D01*
X180956010Y-100977336D01*
X180890753Y-101075000D01*
X179832000Y-101075000D01*
X179436688Y-101153632D01*
X179101559Y-101377558D01*
X175594118Y-104885000D01*
X170353883Y-104885000D01*
X170086081Y-104617198D01*
X170086081Y-103050020D01*
X170040833Y-102822545D01*
X169911979Y-102629701D01*
X169719135Y-102500847D01*
X169668682Y-102490811D01*
X172310665Y-102490811D01*
X172604327Y-103201526D01*
X173147614Y-103745762D01*
X173857816Y-104040664D01*
X174626811Y-104041335D01*
X175337526Y-103747673D01*
X175881762Y-103204386D01*
X176176664Y-102494184D01*
X176177335Y-101725189D01*
X175883673Y-101014474D01*
X175340386Y-100470238D01*
X174630184Y-100175336D01*
X173861189Y-100174665D01*
X173150474Y-100468327D01*
X172606238Y-101011614D01*
X172311336Y-101721816D01*
X172310665Y-102490811D01*
X169668682Y-102490811D01*
X169491660Y-102455599D01*
X167459660Y-102455599D01*
X167232185Y-102500847D01*
X167039341Y-102629701D01*
X166910487Y-102822545D01*
X166865239Y-103050020D01*
X166865239Y-103267020D01*
X163583681Y-103267020D01*
X163583681Y-103050020D01*
X163538433Y-102822545D01*
X163409579Y-102629701D01*
X163216735Y-102500847D01*
X162989260Y-102455599D01*
X160957260Y-102455599D01*
X160729785Y-102500847D01*
X160536941Y-102629701D01*
X160408087Y-102822545D01*
X160362839Y-103050020D01*
X160362839Y-105550020D01*
X160408087Y-105777495D01*
X160453000Y-105844712D01*
X160453000Y-106409000D01*
X158365082Y-106409000D01*
X156372621Y-104416539D01*
X156372621Y-103017000D01*
X156327373Y-102789525D01*
X156198519Y-102596681D01*
X156005675Y-102467827D01*
X155778200Y-102422579D01*
X153746200Y-102422579D01*
X153518725Y-102467827D01*
X153325881Y-102596681D01*
X153197027Y-102789525D01*
X153151779Y-103017000D01*
X153151779Y-103234000D01*
X149870221Y-103234000D01*
X149870221Y-103017000D01*
X149824973Y-102789525D01*
X149696119Y-102596681D01*
X149503275Y-102467827D01*
X149275800Y-102422579D01*
X147243800Y-102422579D01*
X147016325Y-102467827D01*
X146823481Y-102596681D01*
X146694627Y-102789525D01*
X146649379Y-103017000D01*
X146649379Y-105517000D01*
X146694627Y-105744475D01*
X146823481Y-105937319D01*
X147016325Y-106066173D01*
X147243800Y-106111421D01*
X149275800Y-106111421D01*
X149503275Y-106066173D01*
X149696119Y-105937319D01*
X149824973Y-105744475D01*
X149870221Y-105517000D01*
X149870221Y-105300000D01*
X153151779Y-105300000D01*
X153151779Y-105517000D01*
X153197027Y-105744475D01*
X153325881Y-105937319D01*
X153518725Y-106066173D01*
X153746200Y-106111421D01*
X155145739Y-106111421D01*
X157088318Y-108054000D01*
X140358000Y-108054000D01*
X140358000Y-104993000D01*
X140996048Y-104993000D01*
X140996048Y-107759000D01*
X146023953Y-107759000D01*
X146023953Y-104993000D01*
X140996048Y-104993000D01*
X140358000Y-104993000D01*
X140358000Y-102490811D01*
X141322665Y-102490811D01*
X141616327Y-103201526D01*
X142159614Y-103745762D01*
X142869816Y-104040664D01*
X143638811Y-104041335D01*
X144349526Y-103747673D01*
X144893762Y-103204386D01*
X145188664Y-102494184D01*
X145189335Y-101725189D01*
X144895673Y-101014474D01*
X144352386Y-100470238D01*
X143642184Y-100175336D01*
X142873189Y-100174665D01*
X142162474Y-100468327D01*
X141618238Y-101011614D01*
X141323336Y-101721816D01*
X141322665Y-102490811D01*
X140358000Y-102490811D01*
X140358000Y-99970550D01*
X147060800Y-99970550D01*
X147060800Y-101032201D01*
X147088660Y-101099461D01*
X147140139Y-101150940D01*
X147207399Y-101178800D01*
X148035050Y-101178800D01*
X148080800Y-101133050D01*
X148080800Y-99924800D01*
X148438800Y-99924800D01*
X148438800Y-101133050D01*
X148484550Y-101178800D01*
X149312201Y-101178800D01*
X149379461Y-101150940D01*
X149430940Y-101099461D01*
X149458800Y-101032201D01*
X149458800Y-99970550D01*
X153563200Y-99970550D01*
X153563200Y-101032201D01*
X153591060Y-101099461D01*
X153642539Y-101150940D01*
X153709799Y-101178800D01*
X154537450Y-101178800D01*
X154583200Y-101133050D01*
X154583200Y-99924800D01*
X154941200Y-99924800D01*
X154941200Y-101133050D01*
X154986950Y-101178800D01*
X155814601Y-101178800D01*
X155881861Y-101150940D01*
X155933340Y-101099461D01*
X155961200Y-101032201D01*
X155961200Y-100003570D01*
X160774260Y-100003570D01*
X160774260Y-101065221D01*
X160802120Y-101132481D01*
X160853599Y-101183960D01*
X160920859Y-101211820D01*
X161748510Y-101211820D01*
X161794260Y-101166070D01*
X161794260Y-99957820D01*
X162152260Y-99957820D01*
X162152260Y-101166070D01*
X162198010Y-101211820D01*
X163025661Y-101211820D01*
X163092921Y-101183960D01*
X163144400Y-101132481D01*
X163172260Y-101065221D01*
X163172260Y-100003570D01*
X167276660Y-100003570D01*
X167276660Y-101065221D01*
X167304520Y-101132481D01*
X167355999Y-101183960D01*
X167423259Y-101211820D01*
X168250910Y-101211820D01*
X168296660Y-101166070D01*
X168296660Y-99957820D01*
X168654660Y-99957820D01*
X168654660Y-101166070D01*
X168700410Y-101211820D01*
X169528061Y-101211820D01*
X169595321Y-101183960D01*
X169646800Y-101132481D01*
X169674660Y-101065221D01*
X169674660Y-100003570D01*
X169628910Y-99957820D01*
X168654660Y-99957820D01*
X168296660Y-99957820D01*
X167322410Y-99957820D01*
X167276660Y-100003570D01*
X163172260Y-100003570D01*
X163126510Y-99957820D01*
X162152260Y-99957820D01*
X161794260Y-99957820D01*
X160820010Y-99957820D01*
X160774260Y-100003570D01*
X155961200Y-100003570D01*
X155961200Y-99970550D01*
X155915450Y-99924800D01*
X154941200Y-99924800D01*
X154583200Y-99924800D01*
X153608950Y-99924800D01*
X153563200Y-99970550D01*
X149458800Y-99970550D01*
X149413050Y-99924800D01*
X148438800Y-99924800D01*
X148080800Y-99924800D01*
X147106550Y-99924800D01*
X147060800Y-99970550D01*
X140358000Y-99970550D01*
X140358000Y-98459399D01*
X147060800Y-98459399D01*
X147060800Y-99521050D01*
X147106550Y-99566800D01*
X148080800Y-99566800D01*
X148080800Y-98358550D01*
X148438800Y-98358550D01*
X148438800Y-99566800D01*
X149413050Y-99566800D01*
X149458800Y-99521050D01*
X149458800Y-98459399D01*
X153563200Y-98459399D01*
X153563200Y-99521050D01*
X153608950Y-99566800D01*
X154583200Y-99566800D01*
X154583200Y-98358550D01*
X154941200Y-98358550D01*
X154941200Y-99566800D01*
X155915450Y-99566800D01*
X155961200Y-99521050D01*
X155961200Y-98492419D01*
X160774260Y-98492419D01*
X160774260Y-99554070D01*
X160820010Y-99599820D01*
X161794260Y-99599820D01*
X161794260Y-98391570D01*
X162152260Y-98391570D01*
X162152260Y-99599820D01*
X163126510Y-99599820D01*
X163172260Y-99554070D01*
X163172260Y-98492419D01*
X167276660Y-98492419D01*
X167276660Y-99554070D01*
X167322410Y-99599820D01*
X168296660Y-99599820D01*
X168296660Y-98391570D01*
X168654660Y-98391570D01*
X168654660Y-99599820D01*
X169628910Y-99599820D01*
X169674660Y-99554070D01*
X169674660Y-99205741D01*
X180975035Y-99205741D01*
X180978726Y-99389000D01*
X181939000Y-99389000D01*
X181939000Y-98428170D01*
X182297000Y-98428170D01*
X182297000Y-99389000D01*
X183257274Y-99389000D01*
X183260965Y-99205741D01*
X183182368Y-99015948D01*
X182890087Y-98650654D01*
X182480262Y-98425018D01*
X182297000Y-98428170D01*
X181939000Y-98428170D01*
X181755738Y-98425018D01*
X181345913Y-98650654D01*
X181053632Y-99015948D01*
X180975035Y-99205741D01*
X169674660Y-99205741D01*
X169674660Y-98492419D01*
X169646800Y-98425159D01*
X169595321Y-98373680D01*
X169528061Y-98345820D01*
X168700410Y-98345820D01*
X168654660Y-98391570D01*
X168296660Y-98391570D01*
X168250910Y-98345820D01*
X167423259Y-98345820D01*
X167355999Y-98373680D01*
X167304520Y-98425159D01*
X167276660Y-98492419D01*
X163172260Y-98492419D01*
X163144400Y-98425159D01*
X163092921Y-98373680D01*
X163025661Y-98345820D01*
X162198010Y-98345820D01*
X162152260Y-98391570D01*
X161794260Y-98391570D01*
X161748510Y-98345820D01*
X160920859Y-98345820D01*
X160853599Y-98373680D01*
X160802120Y-98425159D01*
X160774260Y-98492419D01*
X155961200Y-98492419D01*
X155961200Y-98459399D01*
X155933340Y-98392139D01*
X155881861Y-98340660D01*
X155814601Y-98312800D01*
X154986950Y-98312800D01*
X154941200Y-98358550D01*
X154583200Y-98358550D01*
X154537450Y-98312800D01*
X153709799Y-98312800D01*
X153642539Y-98340660D01*
X153591060Y-98392139D01*
X153563200Y-98459399D01*
X149458800Y-98459399D01*
X149430940Y-98392139D01*
X149379461Y-98340660D01*
X149312201Y-98312800D01*
X148484550Y-98312800D01*
X148438800Y-98358550D01*
X148080800Y-98358550D01*
X148035050Y-98312800D01*
X147207399Y-98312800D01*
X147140139Y-98340660D01*
X147088660Y-98392139D01*
X147060800Y-98459399D01*
X140358000Y-98459399D01*
X140358000Y-97940000D01*
X183746000Y-97940000D01*
X183746000Y-102096306D01*
M02*
