G04 #@! TF.FileFunction,Legend,Top*
%FSLAX46Y46*%
G04 Gerber Fmt 4.6, Leading zero omitted, Abs format (unit mm)*
G04 Created by KiCad (PCBNEW 0.201601242101+6509~42~ubuntu15.10.1-product) date Mon 25 Jan 2016 06:27:25 PM CET*
%MOMM*%
G01*
G04 APERTURE LIST*
%ADD10C,0.020000*%
%ADD11C,0.127000*%
%ADD12C,0.150000*%
%ADD13C,0.076200*%
G04 APERTURE END LIST*
D10*
D11*
X162684460Y-101531420D02*
X163065460Y-102420420D01*
X162684460Y-103309420D02*
X162684460Y-102547420D01*
X162684460Y-100769420D02*
X162684460Y-101531420D01*
X162684460Y-98991420D02*
X167764460Y-98991420D01*
X167764460Y-98991420D02*
X168272460Y-99499420D01*
X168272460Y-99499420D02*
X168272460Y-104579420D01*
X168272460Y-104579420D02*
X167764460Y-105087420D01*
X167764460Y-105087420D02*
X162684460Y-105087420D01*
X162684460Y-105087420D02*
X162176460Y-104579420D01*
X162176460Y-104579420D02*
X162176460Y-99499420D01*
X162176460Y-99499420D02*
X162684460Y-98991420D01*
X167002460Y-102039420D02*
G75*
G03X167002460Y-102039420I-1778000J0D01*
G01*
D12*
X183388000Y-103378000D02*
X183388000Y-98298000D01*
X183388000Y-98298000D02*
X180848000Y-98298000D01*
X180848000Y-98298000D02*
X180848000Y-103378000D01*
X180568000Y-106198000D02*
X180568000Y-104648000D01*
X180848000Y-103378000D02*
X183388000Y-103378000D01*
X183668000Y-104648000D02*
X183668000Y-106198000D01*
X183668000Y-106198000D02*
X180568000Y-106198000D01*
D11*
X148971000Y-101498400D02*
X149352000Y-102387400D01*
X148971000Y-103276400D02*
X148971000Y-102514400D01*
X148971000Y-100736400D02*
X148971000Y-101498400D01*
X148971000Y-98958400D02*
X154051000Y-98958400D01*
X154051000Y-98958400D02*
X154559000Y-99466400D01*
X154559000Y-99466400D02*
X154559000Y-104546400D01*
X154559000Y-104546400D02*
X154051000Y-105054400D01*
X154051000Y-105054400D02*
X148971000Y-105054400D01*
X148971000Y-105054400D02*
X148463000Y-104546400D01*
X148463000Y-104546400D02*
X148463000Y-99466400D01*
X148463000Y-99466400D02*
X148971000Y-98958400D01*
X153289000Y-102006400D02*
G75*
G03X153289000Y-102006400I-1778000J0D01*
G01*
D13*
X164140727Y-98558410D02*
X164256841Y-98597115D01*
X164450365Y-98597115D01*
X164527775Y-98558410D01*
X164566479Y-98519706D01*
X164605184Y-98442296D01*
X164605184Y-98364887D01*
X164566479Y-98287477D01*
X164527775Y-98248772D01*
X164450365Y-98210068D01*
X164295546Y-98171363D01*
X164218137Y-98132658D01*
X164179432Y-98093953D01*
X164140727Y-98016544D01*
X164140727Y-97939134D01*
X164179432Y-97861725D01*
X164218137Y-97823020D01*
X164295546Y-97784315D01*
X164489070Y-97784315D01*
X164605184Y-97823020D01*
X164876117Y-97784315D02*
X165069641Y-98597115D01*
X165224460Y-98016544D01*
X165379279Y-98597115D01*
X165572803Y-97784315D01*
X165843736Y-97861725D02*
X165882441Y-97823020D01*
X165959850Y-97784315D01*
X166153374Y-97784315D01*
X166230784Y-97823020D01*
X166269488Y-97861725D01*
X166308193Y-97939134D01*
X166308193Y-98016544D01*
X166269488Y-98132658D01*
X165805031Y-98597115D01*
X166308193Y-98597115D01*
D12*
X180030381Y-106108000D02*
X179030381Y-106108000D01*
X179030381Y-105727047D01*
X179078000Y-105631809D01*
X179125619Y-105584190D01*
X179220857Y-105536571D01*
X179363714Y-105536571D01*
X179458952Y-105584190D01*
X179506571Y-105631809D01*
X179554190Y-105727047D01*
X179554190Y-106108000D01*
X180030381Y-104584190D02*
X180030381Y-105155619D01*
X180030381Y-104869905D02*
X179030381Y-104869905D01*
X179173238Y-104965143D01*
X179268476Y-105060381D01*
X179316095Y-105155619D01*
X180030381Y-103393714D02*
X179030381Y-103393714D01*
X179030381Y-103012761D01*
X179078000Y-102917523D01*
X179125619Y-102869904D01*
X179220857Y-102822285D01*
X179363714Y-102822285D01*
X179458952Y-102869904D01*
X179506571Y-102917523D01*
X179554190Y-103012761D01*
X179554190Y-103393714D01*
X179125619Y-102441333D02*
X179078000Y-102393714D01*
X179030381Y-102298476D01*
X179030381Y-102060380D01*
X179078000Y-101965142D01*
X179125619Y-101917523D01*
X179220857Y-101869904D01*
X179316095Y-101869904D01*
X179458952Y-101917523D01*
X180030381Y-102488952D01*
X180030381Y-101869904D01*
X179078000Y-100155618D02*
X179030381Y-100250856D01*
X179030381Y-100393713D01*
X179078000Y-100536571D01*
X179173238Y-100631809D01*
X179268476Y-100679428D01*
X179458952Y-100727047D01*
X179601810Y-100727047D01*
X179792286Y-100679428D01*
X179887524Y-100631809D01*
X179982762Y-100536571D01*
X180030381Y-100393713D01*
X180030381Y-100298475D01*
X179982762Y-100155618D01*
X179935143Y-100107999D01*
X179601810Y-100107999D01*
X179601810Y-100298475D01*
X180030381Y-99679428D02*
X179030381Y-99679428D01*
X180030381Y-99107999D01*
X179030381Y-99107999D01*
X180030381Y-98631809D02*
X179030381Y-98631809D01*
X179030381Y-98393714D01*
X179078000Y-98250856D01*
X179173238Y-98155618D01*
X179268476Y-98107999D01*
X179458952Y-98060380D01*
X179601810Y-98060380D01*
X179792286Y-98107999D01*
X179887524Y-98155618D01*
X179982762Y-98250856D01*
X180030381Y-98393714D01*
X180030381Y-98631809D01*
D13*
X150427267Y-98525390D02*
X150543381Y-98564095D01*
X150736905Y-98564095D01*
X150814315Y-98525390D01*
X150853019Y-98486686D01*
X150891724Y-98409276D01*
X150891724Y-98331867D01*
X150853019Y-98254457D01*
X150814315Y-98215752D01*
X150736905Y-98177048D01*
X150582086Y-98138343D01*
X150504677Y-98099638D01*
X150465972Y-98060933D01*
X150427267Y-97983524D01*
X150427267Y-97906114D01*
X150465972Y-97828705D01*
X150504677Y-97790000D01*
X150582086Y-97751295D01*
X150775610Y-97751295D01*
X150891724Y-97790000D01*
X151162657Y-97751295D02*
X151356181Y-98564095D01*
X151511000Y-97983524D01*
X151665819Y-98564095D01*
X151859343Y-97751295D01*
X152594733Y-98564095D02*
X152130276Y-98564095D01*
X152362505Y-98564095D02*
X152362505Y-97751295D01*
X152285095Y-97867410D01*
X152207686Y-97944819D01*
X152130276Y-97983524D01*
M02*
