G04 #@! TF.FileFunction,Legend,Top*
%FSLAX46Y46*%
G04 Gerber Fmt 4.6, Leading zero omitted, Abs format (unit mm)*
G04 Created by KiCad (PCBNEW 0.201601262101+6516~42~ubuntu15.10.1-product) date Wed 27 Jan 2016 01:39:49 PM CET*
%MOMM*%
G01*
G04 APERTURE LIST*
%ADD10C,0.020000*%
%ADD11C,0.127000*%
G04 APERTURE END LIST*
D10*
D11*
X148971000Y-101498400D02*
X149352000Y-102387400D01*
X148971000Y-103276400D02*
X148971000Y-102514400D01*
X148971000Y-100736400D02*
X148971000Y-101498400D01*
X148971000Y-98958400D02*
X154051000Y-98958400D01*
X154051000Y-98958400D02*
X154559000Y-99466400D01*
X154559000Y-99466400D02*
X154559000Y-104546400D01*
X154559000Y-104546400D02*
X154051000Y-105054400D01*
X154051000Y-105054400D02*
X148971000Y-105054400D01*
X148971000Y-105054400D02*
X148463000Y-104546400D01*
X148463000Y-104546400D02*
X148463000Y-99466400D01*
X148463000Y-99466400D02*
X148971000Y-98958400D01*
X153289000Y-102006400D02*
G75*
G03X153289000Y-102006400I-1778000J0D01*
G01*
X162684460Y-101531420D02*
X163065460Y-102420420D01*
X162684460Y-103309420D02*
X162684460Y-102547420D01*
X162684460Y-100769420D02*
X162684460Y-101531420D01*
X162684460Y-98991420D02*
X167764460Y-98991420D01*
X167764460Y-98991420D02*
X168272460Y-99499420D01*
X168272460Y-99499420D02*
X168272460Y-104579420D01*
X168272460Y-104579420D02*
X167764460Y-105087420D01*
X167764460Y-105087420D02*
X162684460Y-105087420D01*
X162684460Y-105087420D02*
X162176460Y-104579420D01*
X162176460Y-104579420D02*
X162176460Y-99499420D01*
X162176460Y-99499420D02*
X162684460Y-98991420D01*
X167002460Y-102039420D02*
G75*
G03X167002460Y-102039420I-1778000J0D01*
G01*
M02*
