G04 #@! TF.FileFunction,Copper,L2,Bot,Signal*
%FSLAX46Y46*%
G04 Gerber Fmt 4.6, Leading zero omitted, Abs format (unit mm)*
G04 Created by KiCad (PCBNEW 0.201601242101+6509~42~ubuntu15.10.1-product) date Mon 25 Jan 2016 06:27:25 PM CET*
%MOMM*%
G01*
G04 APERTURE LIST*
%ADD10C,0.020000*%
%ADD11C,0.100000*%
%ADD12R,1.879600X1.879600*%
%ADD13R,2.032000X1.727200*%
%ADD14O,2.032000X1.727200*%
%ADD15C,0.900000*%
%ADD16C,0.150000*%
G04 APERTURE END LIST*
D10*
D11*
X145152857Y-106878381D02*
X145152857Y-105878381D01*
X144771904Y-105878381D01*
X144676666Y-105926000D01*
X144629047Y-105973619D01*
X144581428Y-106068857D01*
X144581428Y-106211714D01*
X144629047Y-106306952D01*
X144676666Y-106354571D01*
X144771904Y-106402190D01*
X145152857Y-106402190D01*
X143819523Y-106354571D02*
X143676666Y-106402190D01*
X143629047Y-106449810D01*
X143581428Y-106545048D01*
X143581428Y-106687905D01*
X143629047Y-106783143D01*
X143676666Y-106830762D01*
X143771904Y-106878381D01*
X144152857Y-106878381D01*
X144152857Y-105878381D01*
X143819523Y-105878381D01*
X143724285Y-105926000D01*
X143676666Y-105973619D01*
X143629047Y-106068857D01*
X143629047Y-106164095D01*
X143676666Y-106259333D01*
X143724285Y-106306952D01*
X143819523Y-106354571D01*
X144152857Y-106354571D01*
X143248095Y-106878381D02*
X142724285Y-106211714D01*
X143248095Y-106211714D02*
X142724285Y-106878381D01*
X142390952Y-105973619D02*
X142343333Y-105926000D01*
X142248095Y-105878381D01*
X142009999Y-105878381D01*
X141914761Y-105926000D01*
X141867142Y-105973619D01*
X141819523Y-106068857D01*
X141819523Y-106164095D01*
X141867142Y-106306952D01*
X142438571Y-106878381D01*
X141819523Y-106878381D01*
D12*
X161973260Y-99778820D03*
X168475660Y-99778820D03*
X161973260Y-104300020D03*
X168475660Y-104300020D03*
D13*
X182118000Y-104648000D03*
D14*
X182118000Y-102108000D03*
X182118000Y-99568000D03*
D12*
X148259800Y-99745800D03*
X154762200Y-99745800D03*
X148259800Y-104267000D03*
X154762200Y-104267000D03*
D15*
X182118000Y-104648000D02*
X179324000Y-104648000D01*
X157937200Y-107442000D02*
X154762200Y-104267000D01*
X176530000Y-107442000D02*
X157937200Y-107442000D01*
X179324000Y-104648000D02*
X176530000Y-107442000D01*
X148259800Y-104267000D02*
X154762200Y-104267000D01*
X168475660Y-104300020D02*
X168475660Y-104467660D01*
X168475660Y-104467660D02*
X169926000Y-105918000D01*
X179832000Y-102108000D02*
X182118000Y-102108000D01*
X176022000Y-105918000D02*
X179832000Y-102108000D01*
X169926000Y-105918000D02*
X176022000Y-105918000D01*
X161973260Y-104300020D02*
X168475660Y-104300020D01*
D16*
G36*
X183746000Y-102096306D02*
X183638210Y-101554410D01*
X183324627Y-101085099D01*
X182855316Y-100771516D01*
X182301726Y-100661400D01*
X181934274Y-100661400D01*
X181380684Y-100771516D01*
X180926487Y-101075000D01*
X179832000Y-101075000D01*
X179436688Y-101153632D01*
X179101559Y-101377558D01*
X175594118Y-104885000D01*
X170353883Y-104885000D01*
X170009881Y-104540998D01*
X170009881Y-103360220D01*
X169964633Y-103132745D01*
X169835779Y-102939901D01*
X169642935Y-102811047D01*
X169415460Y-102765799D01*
X167535860Y-102765799D01*
X167308385Y-102811047D01*
X167115541Y-102939901D01*
X166986687Y-103132745D01*
X166959978Y-103267020D01*
X163488942Y-103267020D01*
X163462233Y-103132745D01*
X163333379Y-102939901D01*
X163140535Y-102811047D01*
X162913060Y-102765799D01*
X161033460Y-102765799D01*
X160805985Y-102811047D01*
X160613141Y-102939901D01*
X160484287Y-103132745D01*
X160439039Y-103360220D01*
X160439039Y-105239820D01*
X160484287Y-105467295D01*
X160613141Y-105660139D01*
X160805985Y-105788993D01*
X161033460Y-105834241D01*
X162913060Y-105834241D01*
X163140535Y-105788993D01*
X163333379Y-105660139D01*
X163462233Y-105467295D01*
X163488942Y-105333020D01*
X166959978Y-105333020D01*
X166986687Y-105467295D01*
X167115541Y-105660139D01*
X167308385Y-105788993D01*
X167535860Y-105834241D01*
X168381359Y-105834241D01*
X168956117Y-106409000D01*
X158365082Y-106409000D01*
X156296421Y-104340339D01*
X156296421Y-103327200D01*
X156251173Y-103099725D01*
X156122319Y-102906881D01*
X155929475Y-102778027D01*
X155702000Y-102732779D01*
X153822400Y-102732779D01*
X153594925Y-102778027D01*
X153402081Y-102906881D01*
X153273227Y-103099725D01*
X153246518Y-103234000D01*
X149775482Y-103234000D01*
X149748773Y-103099725D01*
X149619919Y-102906881D01*
X149427075Y-102778027D01*
X149199600Y-102732779D01*
X147320000Y-102732779D01*
X147092525Y-102778027D01*
X146899681Y-102906881D01*
X146770827Y-103099725D01*
X146725579Y-103327200D01*
X146725579Y-105206800D01*
X146770827Y-105434275D01*
X146899681Y-105627119D01*
X147092525Y-105755973D01*
X147320000Y-105801221D01*
X149199600Y-105801221D01*
X149427075Y-105755973D01*
X149619919Y-105627119D01*
X149748773Y-105434275D01*
X149775482Y-105300000D01*
X153246518Y-105300000D01*
X153273227Y-105434275D01*
X153402081Y-105627119D01*
X153594925Y-105755973D01*
X153822400Y-105801221D01*
X154835539Y-105801221D01*
X157088318Y-108054000D01*
X140358000Y-108054000D01*
X140358000Y-104993000D01*
X140996048Y-104993000D01*
X140996048Y-107759000D01*
X146023953Y-107759000D01*
X146023953Y-104993000D01*
X140996048Y-104993000D01*
X140358000Y-104993000D01*
X140358000Y-102490811D01*
X141322665Y-102490811D01*
X141616327Y-103201526D01*
X142159614Y-103745762D01*
X142869816Y-104040664D01*
X143638811Y-104041335D01*
X144349526Y-103747673D01*
X144893762Y-103204386D01*
X145188664Y-102494184D01*
X145188666Y-102490811D01*
X172310665Y-102490811D01*
X172604327Y-103201526D01*
X173147614Y-103745762D01*
X173857816Y-104040664D01*
X174626811Y-104041335D01*
X175337526Y-103747673D01*
X175881762Y-103204386D01*
X176176664Y-102494184D01*
X176177335Y-101725189D01*
X175883673Y-101014474D01*
X175340386Y-100470238D01*
X174630184Y-100175336D01*
X173861189Y-100174665D01*
X173150474Y-100468327D01*
X172606238Y-101011614D01*
X172311336Y-101721816D01*
X172310665Y-102490811D01*
X145188666Y-102490811D01*
X145189335Y-101725189D01*
X144895673Y-101014474D01*
X144352386Y-100470238D01*
X143642184Y-100175336D01*
X142873189Y-100174665D01*
X142162474Y-100468327D01*
X141618238Y-101011614D01*
X141323336Y-101721816D01*
X141322665Y-102490811D01*
X140358000Y-102490811D01*
X140358000Y-99970550D01*
X147137000Y-99970550D01*
X147137000Y-100722001D01*
X147164860Y-100789261D01*
X147216339Y-100840740D01*
X147283599Y-100868600D01*
X148035050Y-100868600D01*
X148080800Y-100822850D01*
X148080800Y-99924800D01*
X148438800Y-99924800D01*
X148438800Y-100822850D01*
X148484550Y-100868600D01*
X149236001Y-100868600D01*
X149303261Y-100840740D01*
X149354740Y-100789261D01*
X149382600Y-100722001D01*
X149382600Y-99970550D01*
X153639400Y-99970550D01*
X153639400Y-100722001D01*
X153667260Y-100789261D01*
X153718739Y-100840740D01*
X153785999Y-100868600D01*
X154537450Y-100868600D01*
X154583200Y-100822850D01*
X154583200Y-99924800D01*
X154941200Y-99924800D01*
X154941200Y-100822850D01*
X154986950Y-100868600D01*
X155738401Y-100868600D01*
X155805661Y-100840740D01*
X155857140Y-100789261D01*
X155885000Y-100722001D01*
X155885000Y-100003570D01*
X160850460Y-100003570D01*
X160850460Y-100755021D01*
X160878320Y-100822281D01*
X160929799Y-100873760D01*
X160997059Y-100901620D01*
X161748510Y-100901620D01*
X161794260Y-100855870D01*
X161794260Y-99957820D01*
X162152260Y-99957820D01*
X162152260Y-100855870D01*
X162198010Y-100901620D01*
X162949461Y-100901620D01*
X163016721Y-100873760D01*
X163068200Y-100822281D01*
X163096060Y-100755021D01*
X163096060Y-100003570D01*
X167352860Y-100003570D01*
X167352860Y-100755021D01*
X167380720Y-100822281D01*
X167432199Y-100873760D01*
X167499459Y-100901620D01*
X168250910Y-100901620D01*
X168296660Y-100855870D01*
X168296660Y-99957820D01*
X168654660Y-99957820D01*
X168654660Y-100855870D01*
X168700410Y-100901620D01*
X169451861Y-100901620D01*
X169519121Y-100873760D01*
X169570600Y-100822281D01*
X169598460Y-100755021D01*
X169598460Y-100003570D01*
X169552710Y-99957820D01*
X168654660Y-99957820D01*
X168296660Y-99957820D01*
X167398610Y-99957820D01*
X167352860Y-100003570D01*
X163096060Y-100003570D01*
X163050310Y-99957820D01*
X162152260Y-99957820D01*
X161794260Y-99957820D01*
X160896210Y-99957820D01*
X160850460Y-100003570D01*
X155885000Y-100003570D01*
X155885000Y-99970550D01*
X155839250Y-99924800D01*
X154941200Y-99924800D01*
X154583200Y-99924800D01*
X153685150Y-99924800D01*
X153639400Y-99970550D01*
X149382600Y-99970550D01*
X149336850Y-99924800D01*
X148438800Y-99924800D01*
X148080800Y-99924800D01*
X147182750Y-99924800D01*
X147137000Y-99970550D01*
X140358000Y-99970550D01*
X140358000Y-99906108D01*
X180975118Y-99906108D01*
X181105088Y-100160319D01*
X181397261Y-100444535D01*
X181775959Y-100595307D01*
X181939000Y-100566576D01*
X181939000Y-99747000D01*
X182297000Y-99747000D01*
X182297000Y-100566576D01*
X182460041Y-100595307D01*
X182838739Y-100444535D01*
X183130912Y-100160319D01*
X183260882Y-99906108D01*
X183255113Y-99747000D01*
X182297000Y-99747000D01*
X181939000Y-99747000D01*
X180980887Y-99747000D01*
X180975118Y-99906108D01*
X140358000Y-99906108D01*
X140358000Y-98769599D01*
X147137000Y-98769599D01*
X147137000Y-99521050D01*
X147182750Y-99566800D01*
X148080800Y-99566800D01*
X148080800Y-98668750D01*
X148438800Y-98668750D01*
X148438800Y-99566800D01*
X149336850Y-99566800D01*
X149382600Y-99521050D01*
X149382600Y-98769599D01*
X153639400Y-98769599D01*
X153639400Y-99521050D01*
X153685150Y-99566800D01*
X154583200Y-99566800D01*
X154583200Y-98668750D01*
X154941200Y-98668750D01*
X154941200Y-99566800D01*
X155839250Y-99566800D01*
X155885000Y-99521050D01*
X155885000Y-98802619D01*
X160850460Y-98802619D01*
X160850460Y-99554070D01*
X160896210Y-99599820D01*
X161794260Y-99599820D01*
X161794260Y-98701770D01*
X162152260Y-98701770D01*
X162152260Y-99599820D01*
X163050310Y-99599820D01*
X163096060Y-99554070D01*
X163096060Y-98802619D01*
X167352860Y-98802619D01*
X167352860Y-99554070D01*
X167398610Y-99599820D01*
X168296660Y-99599820D01*
X168296660Y-98701770D01*
X168654660Y-98701770D01*
X168654660Y-99599820D01*
X169552710Y-99599820D01*
X169598460Y-99554070D01*
X169598460Y-99229892D01*
X180975118Y-99229892D01*
X180980887Y-99389000D01*
X181939000Y-99389000D01*
X181939000Y-98569424D01*
X182297000Y-98569424D01*
X182297000Y-99389000D01*
X183255113Y-99389000D01*
X183260882Y-99229892D01*
X183130912Y-98975681D01*
X182838739Y-98691465D01*
X182460041Y-98540693D01*
X182297000Y-98569424D01*
X181939000Y-98569424D01*
X181775959Y-98540693D01*
X181397261Y-98691465D01*
X181105088Y-98975681D01*
X180975118Y-99229892D01*
X169598460Y-99229892D01*
X169598460Y-98802619D01*
X169570600Y-98735359D01*
X169519121Y-98683880D01*
X169451861Y-98656020D01*
X168700410Y-98656020D01*
X168654660Y-98701770D01*
X168296660Y-98701770D01*
X168250910Y-98656020D01*
X167499459Y-98656020D01*
X167432199Y-98683880D01*
X167380720Y-98735359D01*
X167352860Y-98802619D01*
X163096060Y-98802619D01*
X163068200Y-98735359D01*
X163016721Y-98683880D01*
X162949461Y-98656020D01*
X162198010Y-98656020D01*
X162152260Y-98701770D01*
X161794260Y-98701770D01*
X161748510Y-98656020D01*
X160997059Y-98656020D01*
X160929799Y-98683880D01*
X160878320Y-98735359D01*
X160850460Y-98802619D01*
X155885000Y-98802619D01*
X155885000Y-98769599D01*
X155857140Y-98702339D01*
X155805661Y-98650860D01*
X155738401Y-98623000D01*
X154986950Y-98623000D01*
X154941200Y-98668750D01*
X154583200Y-98668750D01*
X154537450Y-98623000D01*
X153785999Y-98623000D01*
X153718739Y-98650860D01*
X153667260Y-98702339D01*
X153639400Y-98769599D01*
X149382600Y-98769599D01*
X149354740Y-98702339D01*
X149303261Y-98650860D01*
X149236001Y-98623000D01*
X148484550Y-98623000D01*
X148438800Y-98668750D01*
X148080800Y-98668750D01*
X148035050Y-98623000D01*
X147283599Y-98623000D01*
X147216339Y-98650860D01*
X147164860Y-98702339D01*
X147137000Y-98769599D01*
X140358000Y-98769599D01*
X140358000Y-97940000D01*
X183746000Y-97940000D01*
X183746000Y-102096306D01*
X183746000Y-102096306D01*
G37*
X183746000Y-102096306D02*
X183638210Y-101554410D01*
X183324627Y-101085099D01*
X182855316Y-100771516D01*
X182301726Y-100661400D01*
X181934274Y-100661400D01*
X181380684Y-100771516D01*
X180926487Y-101075000D01*
X179832000Y-101075000D01*
X179436688Y-101153632D01*
X179101559Y-101377558D01*
X175594118Y-104885000D01*
X170353883Y-104885000D01*
X170009881Y-104540998D01*
X170009881Y-103360220D01*
X169964633Y-103132745D01*
X169835779Y-102939901D01*
X169642935Y-102811047D01*
X169415460Y-102765799D01*
X167535860Y-102765799D01*
X167308385Y-102811047D01*
X167115541Y-102939901D01*
X166986687Y-103132745D01*
X166959978Y-103267020D01*
X163488942Y-103267020D01*
X163462233Y-103132745D01*
X163333379Y-102939901D01*
X163140535Y-102811047D01*
X162913060Y-102765799D01*
X161033460Y-102765799D01*
X160805985Y-102811047D01*
X160613141Y-102939901D01*
X160484287Y-103132745D01*
X160439039Y-103360220D01*
X160439039Y-105239820D01*
X160484287Y-105467295D01*
X160613141Y-105660139D01*
X160805985Y-105788993D01*
X161033460Y-105834241D01*
X162913060Y-105834241D01*
X163140535Y-105788993D01*
X163333379Y-105660139D01*
X163462233Y-105467295D01*
X163488942Y-105333020D01*
X166959978Y-105333020D01*
X166986687Y-105467295D01*
X167115541Y-105660139D01*
X167308385Y-105788993D01*
X167535860Y-105834241D01*
X168381359Y-105834241D01*
X168956117Y-106409000D01*
X158365082Y-106409000D01*
X156296421Y-104340339D01*
X156296421Y-103327200D01*
X156251173Y-103099725D01*
X156122319Y-102906881D01*
X155929475Y-102778027D01*
X155702000Y-102732779D01*
X153822400Y-102732779D01*
X153594925Y-102778027D01*
X153402081Y-102906881D01*
X153273227Y-103099725D01*
X153246518Y-103234000D01*
X149775482Y-103234000D01*
X149748773Y-103099725D01*
X149619919Y-102906881D01*
X149427075Y-102778027D01*
X149199600Y-102732779D01*
X147320000Y-102732779D01*
X147092525Y-102778027D01*
X146899681Y-102906881D01*
X146770827Y-103099725D01*
X146725579Y-103327200D01*
X146725579Y-105206800D01*
X146770827Y-105434275D01*
X146899681Y-105627119D01*
X147092525Y-105755973D01*
X147320000Y-105801221D01*
X149199600Y-105801221D01*
X149427075Y-105755973D01*
X149619919Y-105627119D01*
X149748773Y-105434275D01*
X149775482Y-105300000D01*
X153246518Y-105300000D01*
X153273227Y-105434275D01*
X153402081Y-105627119D01*
X153594925Y-105755973D01*
X153822400Y-105801221D01*
X154835539Y-105801221D01*
X157088318Y-108054000D01*
X140358000Y-108054000D01*
X140358000Y-104993000D01*
X140996048Y-104993000D01*
X140996048Y-107759000D01*
X146023953Y-107759000D01*
X146023953Y-104993000D01*
X140996048Y-104993000D01*
X140358000Y-104993000D01*
X140358000Y-102490811D01*
X141322665Y-102490811D01*
X141616327Y-103201526D01*
X142159614Y-103745762D01*
X142869816Y-104040664D01*
X143638811Y-104041335D01*
X144349526Y-103747673D01*
X144893762Y-103204386D01*
X145188664Y-102494184D01*
X145188666Y-102490811D01*
X172310665Y-102490811D01*
X172604327Y-103201526D01*
X173147614Y-103745762D01*
X173857816Y-104040664D01*
X174626811Y-104041335D01*
X175337526Y-103747673D01*
X175881762Y-103204386D01*
X176176664Y-102494184D01*
X176177335Y-101725189D01*
X175883673Y-101014474D01*
X175340386Y-100470238D01*
X174630184Y-100175336D01*
X173861189Y-100174665D01*
X173150474Y-100468327D01*
X172606238Y-101011614D01*
X172311336Y-101721816D01*
X172310665Y-102490811D01*
X145188666Y-102490811D01*
X145189335Y-101725189D01*
X144895673Y-101014474D01*
X144352386Y-100470238D01*
X143642184Y-100175336D01*
X142873189Y-100174665D01*
X142162474Y-100468327D01*
X141618238Y-101011614D01*
X141323336Y-101721816D01*
X141322665Y-102490811D01*
X140358000Y-102490811D01*
X140358000Y-99970550D01*
X147137000Y-99970550D01*
X147137000Y-100722001D01*
X147164860Y-100789261D01*
X147216339Y-100840740D01*
X147283599Y-100868600D01*
X148035050Y-100868600D01*
X148080800Y-100822850D01*
X148080800Y-99924800D01*
X148438800Y-99924800D01*
X148438800Y-100822850D01*
X148484550Y-100868600D01*
X149236001Y-100868600D01*
X149303261Y-100840740D01*
X149354740Y-100789261D01*
X149382600Y-100722001D01*
X149382600Y-99970550D01*
X153639400Y-99970550D01*
X153639400Y-100722001D01*
X153667260Y-100789261D01*
X153718739Y-100840740D01*
X153785999Y-100868600D01*
X154537450Y-100868600D01*
X154583200Y-100822850D01*
X154583200Y-99924800D01*
X154941200Y-99924800D01*
X154941200Y-100822850D01*
X154986950Y-100868600D01*
X155738401Y-100868600D01*
X155805661Y-100840740D01*
X155857140Y-100789261D01*
X155885000Y-100722001D01*
X155885000Y-100003570D01*
X160850460Y-100003570D01*
X160850460Y-100755021D01*
X160878320Y-100822281D01*
X160929799Y-100873760D01*
X160997059Y-100901620D01*
X161748510Y-100901620D01*
X161794260Y-100855870D01*
X161794260Y-99957820D01*
X162152260Y-99957820D01*
X162152260Y-100855870D01*
X162198010Y-100901620D01*
X162949461Y-100901620D01*
X163016721Y-100873760D01*
X163068200Y-100822281D01*
X163096060Y-100755021D01*
X163096060Y-100003570D01*
X167352860Y-100003570D01*
X167352860Y-100755021D01*
X167380720Y-100822281D01*
X167432199Y-100873760D01*
X167499459Y-100901620D01*
X168250910Y-100901620D01*
X168296660Y-100855870D01*
X168296660Y-99957820D01*
X168654660Y-99957820D01*
X168654660Y-100855870D01*
X168700410Y-100901620D01*
X169451861Y-100901620D01*
X169519121Y-100873760D01*
X169570600Y-100822281D01*
X169598460Y-100755021D01*
X169598460Y-100003570D01*
X169552710Y-99957820D01*
X168654660Y-99957820D01*
X168296660Y-99957820D01*
X167398610Y-99957820D01*
X167352860Y-100003570D01*
X163096060Y-100003570D01*
X163050310Y-99957820D01*
X162152260Y-99957820D01*
X161794260Y-99957820D01*
X160896210Y-99957820D01*
X160850460Y-100003570D01*
X155885000Y-100003570D01*
X155885000Y-99970550D01*
X155839250Y-99924800D01*
X154941200Y-99924800D01*
X154583200Y-99924800D01*
X153685150Y-99924800D01*
X153639400Y-99970550D01*
X149382600Y-99970550D01*
X149336850Y-99924800D01*
X148438800Y-99924800D01*
X148080800Y-99924800D01*
X147182750Y-99924800D01*
X147137000Y-99970550D01*
X140358000Y-99970550D01*
X140358000Y-99906108D01*
X180975118Y-99906108D01*
X181105088Y-100160319D01*
X181397261Y-100444535D01*
X181775959Y-100595307D01*
X181939000Y-100566576D01*
X181939000Y-99747000D01*
X182297000Y-99747000D01*
X182297000Y-100566576D01*
X182460041Y-100595307D01*
X182838739Y-100444535D01*
X183130912Y-100160319D01*
X183260882Y-99906108D01*
X183255113Y-99747000D01*
X182297000Y-99747000D01*
X181939000Y-99747000D01*
X180980887Y-99747000D01*
X180975118Y-99906108D01*
X140358000Y-99906108D01*
X140358000Y-98769599D01*
X147137000Y-98769599D01*
X147137000Y-99521050D01*
X147182750Y-99566800D01*
X148080800Y-99566800D01*
X148080800Y-98668750D01*
X148438800Y-98668750D01*
X148438800Y-99566800D01*
X149336850Y-99566800D01*
X149382600Y-99521050D01*
X149382600Y-98769599D01*
X153639400Y-98769599D01*
X153639400Y-99521050D01*
X153685150Y-99566800D01*
X154583200Y-99566800D01*
X154583200Y-98668750D01*
X154941200Y-98668750D01*
X154941200Y-99566800D01*
X155839250Y-99566800D01*
X155885000Y-99521050D01*
X155885000Y-98802619D01*
X160850460Y-98802619D01*
X160850460Y-99554070D01*
X160896210Y-99599820D01*
X161794260Y-99599820D01*
X161794260Y-98701770D01*
X162152260Y-98701770D01*
X162152260Y-99599820D01*
X163050310Y-99599820D01*
X163096060Y-99554070D01*
X163096060Y-98802619D01*
X167352860Y-98802619D01*
X167352860Y-99554070D01*
X167398610Y-99599820D01*
X168296660Y-99599820D01*
X168296660Y-98701770D01*
X168654660Y-98701770D01*
X168654660Y-99599820D01*
X169552710Y-99599820D01*
X169598460Y-99554070D01*
X169598460Y-99229892D01*
X180975118Y-99229892D01*
X180980887Y-99389000D01*
X181939000Y-99389000D01*
X181939000Y-98569424D01*
X182297000Y-98569424D01*
X182297000Y-99389000D01*
X183255113Y-99389000D01*
X183260882Y-99229892D01*
X183130912Y-98975681D01*
X182838739Y-98691465D01*
X182460041Y-98540693D01*
X182297000Y-98569424D01*
X181939000Y-98569424D01*
X181775959Y-98540693D01*
X181397261Y-98691465D01*
X181105088Y-98975681D01*
X180975118Y-99229892D01*
X169598460Y-99229892D01*
X169598460Y-98802619D01*
X169570600Y-98735359D01*
X169519121Y-98683880D01*
X169451861Y-98656020D01*
X168700410Y-98656020D01*
X168654660Y-98701770D01*
X168296660Y-98701770D01*
X168250910Y-98656020D01*
X167499459Y-98656020D01*
X167432199Y-98683880D01*
X167380720Y-98735359D01*
X167352860Y-98802619D01*
X163096060Y-98802619D01*
X163068200Y-98735359D01*
X163016721Y-98683880D01*
X162949461Y-98656020D01*
X162198010Y-98656020D01*
X162152260Y-98701770D01*
X161794260Y-98701770D01*
X161748510Y-98656020D01*
X160997059Y-98656020D01*
X160929799Y-98683880D01*
X160878320Y-98735359D01*
X160850460Y-98802619D01*
X155885000Y-98802619D01*
X155885000Y-98769599D01*
X155857140Y-98702339D01*
X155805661Y-98650860D01*
X155738401Y-98623000D01*
X154986950Y-98623000D01*
X154941200Y-98668750D01*
X154583200Y-98668750D01*
X154537450Y-98623000D01*
X153785999Y-98623000D01*
X153718739Y-98650860D01*
X153667260Y-98702339D01*
X153639400Y-98769599D01*
X149382600Y-98769599D01*
X149354740Y-98702339D01*
X149303261Y-98650860D01*
X149236001Y-98623000D01*
X148484550Y-98623000D01*
X148438800Y-98668750D01*
X148080800Y-98668750D01*
X148035050Y-98623000D01*
X147283599Y-98623000D01*
X147216339Y-98650860D01*
X147164860Y-98702339D01*
X147137000Y-98769599D01*
X140358000Y-98769599D01*
X140358000Y-97940000D01*
X183746000Y-97940000D01*
X183746000Y-102096306D01*
M02*
