G04 #@! TF.FileFunction,Copper,L1,Top,Mixed*
%FSLAX46Y46*%
G04 Gerber Fmt 4.6, Leading zero omitted, Abs format (unit mm)*
G04 Created by KiCad (PCBNEW 0.201511171411+6319~30~ubuntu15.04.1-product) date Wed 18 Nov 2015 02:30:17 PM CET*
%MOMM*%
G01*
G04 APERTURE LIST*
%ADD10C,0.100000*%
%ADD11R,2.032000X2.032000*%
%ADD12O,2.032000X2.032000*%
%ADD13R,1.727200X1.727200*%
%ADD14O,1.727200X1.727200*%
%ADD15C,1.998980*%
%ADD16O,1.600000X1.600000*%
%ADD17R,1.300000X1.300000*%
%ADD18C,1.300000*%
%ADD19R,1.727200X2.032000*%
%ADD20O,1.727200X2.032000*%
%ADD21R,2.235200X2.235200*%
%ADD22R,2.032000X1.727200*%
%ADD23O,2.032000X1.727200*%
%ADD24C,1.000000*%
%ADD25C,1.300000*%
G04 APERTURE END LIST*
D10*
D11*
X128676400Y-48412400D03*
D12*
X128676400Y-50952400D03*
D13*
X164566400Y-39878000D03*
D14*
X167106400Y-39878000D03*
X164566400Y-42418000D03*
X167106400Y-42418000D03*
X164566400Y-44958000D03*
X167106400Y-44958000D03*
X164566400Y-47498000D03*
X167106400Y-47498000D03*
X164566400Y-50038000D03*
X167106400Y-50038000D03*
X164566400Y-52578000D03*
X167106400Y-52578000D03*
X164566400Y-55118000D03*
X167106400Y-55118000D03*
X164566400Y-57658000D03*
X167106400Y-57658000D03*
X164566400Y-60198000D03*
X167106400Y-60198000D03*
X164566400Y-62738000D03*
X167106400Y-62738000D03*
X164566400Y-65278000D03*
X167106400Y-65278000D03*
X164566400Y-67818000D03*
X167106400Y-67818000D03*
X164566400Y-70358000D03*
X167106400Y-70358000D03*
X164566400Y-72898000D03*
X167106400Y-72898000D03*
X164566400Y-75438000D03*
X167106400Y-75438000D03*
X164566400Y-77978000D03*
X167106400Y-77978000D03*
X164566400Y-80518000D03*
X167106400Y-80518000D03*
X164566400Y-83058000D03*
X167106400Y-83058000D03*
X164566400Y-85598000D03*
X167106400Y-85598000D03*
X164566400Y-88138000D03*
X167106400Y-88138000D03*
D13*
X164617400Y-93472000D03*
D14*
X167157400Y-93472000D03*
X164617400Y-96012000D03*
X167157400Y-96012000D03*
X164617400Y-98552000D03*
X167157400Y-98552000D03*
X164617400Y-101092000D03*
X167157400Y-101092000D03*
X164617400Y-103632000D03*
X167157400Y-103632000D03*
X164617400Y-106172000D03*
X167157400Y-106172000D03*
X164617400Y-108712000D03*
X167157400Y-108712000D03*
X164617400Y-111252000D03*
X167157400Y-111252000D03*
X164617400Y-113792000D03*
X167157400Y-113792000D03*
X164617400Y-116332000D03*
X167157400Y-116332000D03*
X164617400Y-118872000D03*
X167157400Y-118872000D03*
X164617400Y-121412000D03*
X167157400Y-121412000D03*
X164617400Y-123952000D03*
X167157400Y-123952000D03*
X164617400Y-126492000D03*
X167157400Y-126492000D03*
X164617400Y-129032000D03*
X167157400Y-129032000D03*
X164617400Y-131572000D03*
X167157400Y-131572000D03*
X164617400Y-134112000D03*
X167157400Y-134112000D03*
X164617400Y-136652000D03*
X167157400Y-136652000D03*
X164617400Y-139192000D03*
X167157400Y-139192000D03*
X164617400Y-141732000D03*
X167157400Y-141732000D03*
D15*
X159664400Y-39878000D03*
X149504400Y-39878000D03*
X159664400Y-42418000D03*
X149504400Y-42418000D03*
X159664400Y-44958000D03*
X149504400Y-44958000D03*
X159639400Y-47498000D03*
X149479400Y-47498000D03*
X159664400Y-50038000D03*
X149504400Y-50038000D03*
X159664400Y-52578000D03*
X149504400Y-52578000D03*
X159664400Y-55118000D03*
X149504400Y-55118000D03*
X159689400Y-57658000D03*
X149529400Y-57658000D03*
X159689400Y-60198000D03*
X149529400Y-60198000D03*
X159689400Y-62763000D03*
X149529400Y-62763000D03*
X159689400Y-65278000D03*
X149529400Y-65278000D03*
X159689400Y-67818000D03*
X149529400Y-67818000D03*
X159689400Y-70383000D03*
X149529400Y-70383000D03*
X159689400Y-72898000D03*
X149529400Y-72898000D03*
X159689400Y-75438000D03*
X149529400Y-75438000D03*
X159689400Y-77978000D03*
X149529400Y-77978000D03*
X159689400Y-80518000D03*
X149529400Y-80518000D03*
X159689400Y-83058000D03*
X149529400Y-83058000D03*
X159689400Y-85598000D03*
X149529400Y-85598000D03*
X159689400Y-88138000D03*
X149529400Y-88138000D03*
X159689400Y-93472000D03*
X149529400Y-93472000D03*
X159689400Y-96012000D03*
X149529400Y-96012000D03*
X159689400Y-98552000D03*
X149529400Y-98552000D03*
X159689400Y-101117000D03*
X149529400Y-101117000D03*
X159689400Y-103632000D03*
X149529400Y-103632000D03*
X159689400Y-106172000D03*
X149529400Y-106172000D03*
X159689400Y-108712000D03*
X149529400Y-108712000D03*
X159689400Y-111252000D03*
X149529400Y-111252000D03*
X159689400Y-113792000D03*
X149529400Y-113792000D03*
X159689400Y-116332000D03*
X149529400Y-116332000D03*
X159689400Y-118872000D03*
X149529400Y-118872000D03*
X159689400Y-121412000D03*
X149529400Y-121412000D03*
X159689400Y-123952000D03*
X149529400Y-123952000D03*
X159689400Y-126492000D03*
X149529400Y-126492000D03*
X159689400Y-129057000D03*
X149529400Y-129057000D03*
X159689400Y-131572000D03*
X149529400Y-131572000D03*
X159689400Y-134112000D03*
X149529400Y-134112000D03*
D16*
X137210800Y-125730000D03*
X137210800Y-123190000D03*
X137210800Y-120650000D03*
X137210800Y-118110000D03*
X137210800Y-115570000D03*
X137210800Y-113030000D03*
X137210800Y-110490000D03*
X137210800Y-107950000D03*
X129590800Y-107950000D03*
X129590800Y-110490000D03*
X129590800Y-113030000D03*
X129590800Y-115570000D03*
X129590800Y-118110000D03*
X129590800Y-120650000D03*
X129590800Y-123190000D03*
X129590800Y-125730000D03*
X138988800Y-74701400D03*
X138988800Y-72161400D03*
X138988800Y-69621400D03*
X138988800Y-67081400D03*
X138988800Y-64541400D03*
X138988800Y-62001400D03*
X138988800Y-59461400D03*
X138988800Y-56921400D03*
X131368800Y-56921400D03*
X131368800Y-59461400D03*
X131368800Y-62001400D03*
X131368800Y-64541400D03*
X131368800Y-67081400D03*
X131368800Y-69621400D03*
X131368800Y-72161400D03*
X131368800Y-74701400D03*
X135534400Y-151180800D03*
X135534400Y-148640800D03*
X135534400Y-146100800D03*
X135534400Y-143560800D03*
X135534400Y-141020800D03*
X135534400Y-138480800D03*
X135534400Y-135940800D03*
X135534400Y-133400800D03*
X127914400Y-133400800D03*
X127914400Y-135940800D03*
X127914400Y-138480800D03*
X127914400Y-141020800D03*
X127914400Y-143560800D03*
X127914400Y-146100800D03*
X127914400Y-148640800D03*
X127914400Y-151180800D03*
X140716000Y-49301400D03*
X140716000Y-46761400D03*
X140716000Y-44221400D03*
X140716000Y-41681400D03*
X140716000Y-39141400D03*
X140716000Y-36601400D03*
X140716000Y-34061400D03*
X140716000Y-31521400D03*
X133096000Y-31521400D03*
X133096000Y-34061400D03*
X133096000Y-36601400D03*
X133096000Y-39141400D03*
X133096000Y-41681400D03*
X133096000Y-44221400D03*
X133096000Y-46761400D03*
X133096000Y-49301400D03*
X139496800Y-100355400D03*
X139496800Y-97815400D03*
X139496800Y-95275400D03*
X139496800Y-92735400D03*
X139496800Y-90195400D03*
X139496800Y-87655400D03*
X139496800Y-85115400D03*
X139496800Y-82575400D03*
X131876800Y-82575400D03*
X131876800Y-85115400D03*
X131876800Y-87655400D03*
X131876800Y-90195400D03*
X131876800Y-92735400D03*
X131876800Y-95275400D03*
X131876800Y-97815400D03*
X131876800Y-100355400D03*
D17*
X128905000Y-30505400D03*
D18*
X128905000Y-33005400D03*
D17*
X127685800Y-57023000D03*
D18*
X127685800Y-59523000D03*
D17*
X128270000Y-82626200D03*
D18*
X128270000Y-85126200D03*
D17*
X125704600Y-108051600D03*
D18*
X125704600Y-110551600D03*
D17*
X124434600Y-133426200D03*
D18*
X124434600Y-135926200D03*
D19*
X110058200Y-69672200D03*
D20*
X112598200Y-69672200D03*
X115138200Y-69672200D03*
D19*
X110058200Y-95173800D03*
D20*
X112598200Y-95173800D03*
X115138200Y-95173800D03*
D19*
X110083600Y-120624600D03*
D20*
X112623600Y-120624600D03*
X115163600Y-120624600D03*
D11*
X127431800Y-62814200D03*
D12*
X127431800Y-65354200D03*
D11*
X124231400Y-139192000D03*
D12*
X124231400Y-141732000D03*
D11*
X125120400Y-36753800D03*
D12*
X125120400Y-39293800D03*
D11*
X127635000Y-88544400D03*
D12*
X127635000Y-91084400D03*
D21*
X125171200Y-120650000D03*
X124180600Y-146100800D03*
X127609600Y-69621400D03*
X127711200Y-95275400D03*
D19*
X110070900Y-141719300D03*
D20*
X112610900Y-141719300D03*
X115150900Y-141719300D03*
D11*
X125171200Y-113919000D03*
D12*
X125171200Y-116459000D03*
D11*
X112699800Y-39268400D03*
D12*
X110159800Y-39268400D03*
D22*
X128930400Y-36728400D03*
D23*
X128930400Y-39268400D03*
X128930400Y-41808400D03*
D21*
X124358400Y-129019300D03*
D15*
X159689800Y-137401300D03*
X149529800Y-137401300D03*
X159689800Y-140576300D03*
X149529800Y-140576300D03*
X159689800Y-143776700D03*
X149529800Y-143776700D03*
D24*
X110070900Y-141719300D02*
X110070900Y-140538200D01*
X119011700Y-139192000D02*
X124231400Y-139192000D01*
X117043200Y-137223500D02*
X119011700Y-139192000D01*
X113385600Y-137223500D02*
X117043200Y-137223500D01*
X110070900Y-140538200D02*
X113385600Y-137223500D01*
X110083600Y-120624600D02*
X110083600Y-119418100D01*
X115582700Y-113919000D02*
X125171200Y-113919000D01*
X110083600Y-119418100D02*
X115582700Y-113919000D01*
X110058200Y-69672200D02*
X110058200Y-68427600D01*
X115671600Y-62814200D02*
X127431800Y-62814200D01*
X110058200Y-68427600D02*
X115671600Y-62814200D01*
X110058200Y-95173800D02*
X110058200Y-93954600D01*
X115468400Y-88544400D02*
X127635000Y-88544400D01*
X110058200Y-93954600D02*
X115468400Y-88544400D01*
X110159800Y-39268400D02*
X110159800Y-37579300D01*
X110985300Y-36753800D02*
X125120400Y-36753800D01*
X110159800Y-37579300D02*
X110985300Y-36753800D01*
X112610900Y-141719300D02*
X112610900Y-140398500D01*
X119075200Y-141732000D02*
X124231400Y-141732000D01*
X116281200Y-138938000D02*
X119075200Y-141732000D01*
X114071400Y-138938000D02*
X116281200Y-138938000D01*
X112610900Y-140398500D02*
X114071400Y-138938000D01*
X112623600Y-120624600D02*
X112623600Y-119468900D01*
X115633500Y-116459000D02*
X125171200Y-116459000D01*
X112623600Y-119468900D02*
X115633500Y-116459000D01*
X112598200Y-69672200D02*
X112598200Y-68364100D01*
X115608100Y-65354200D02*
X127431800Y-65354200D01*
X112598200Y-68364100D02*
X115608100Y-65354200D01*
X112598200Y-95173800D02*
X112598200Y-94043500D01*
X115557300Y-91084400D02*
X127635000Y-91084400D01*
X112598200Y-94043500D02*
X115557300Y-91084400D01*
X125120400Y-39293800D02*
X112725200Y-39243000D01*
X112725200Y-39243000D02*
X112699800Y-39268400D01*
X125044200Y-39344600D02*
X125171200Y-39217600D01*
X131368800Y-64541400D02*
X131518500Y-64541400D01*
X131876800Y-90195400D02*
X132026500Y-90195000D01*
D25*
X139496800Y-82575400D02*
X136829800Y-79908400D01*
X128270000Y-81813400D02*
X128270000Y-82626200D01*
X130175000Y-79908400D02*
X128270000Y-81813400D01*
X136829800Y-79908400D02*
X130175000Y-79908400D01*
X128270000Y-82626200D02*
X126542800Y-82626200D01*
X126339600Y-80086200D02*
X129184400Y-77241400D01*
X129184400Y-77241400D02*
X132410200Y-77241400D01*
X132410200Y-77241400D02*
X134035800Y-75615800D01*
X134035800Y-75615800D02*
X134035800Y-68453000D01*
X134035800Y-68453000D02*
X132664200Y-67081400D01*
X132664200Y-67081400D02*
X131368800Y-67081400D01*
X126339600Y-82423000D02*
X126339600Y-80086200D01*
X126542800Y-82626200D02*
X126339600Y-82423000D01*
X140716000Y-31521400D02*
X139471400Y-31521400D01*
X138023600Y-55956200D02*
X138988800Y-56921400D01*
X138023600Y-32969200D02*
X138023600Y-55956200D01*
X139471400Y-31521400D02*
X138023600Y-32969200D01*
X138988800Y-56921400D02*
X135407400Y-56921400D01*
X130505200Y-54203600D02*
X127685800Y-57023000D01*
X132689600Y-54203600D02*
X130505200Y-54203600D01*
X135407400Y-56921400D02*
X132689600Y-54203600D01*
X128676400Y-50952400D02*
X127127000Y-50952400D01*
X126212600Y-55549800D02*
X127685800Y-57023000D01*
X126212600Y-51866800D02*
X126212600Y-55549800D01*
X127127000Y-50952400D02*
X126212600Y-51866800D01*
X124434600Y-133426200D02*
X124434600Y-133299200D01*
X124434600Y-133299200D02*
X127711200Y-130022600D01*
X127711200Y-130022600D02*
X132156200Y-130022600D01*
X132156200Y-130022600D02*
X135534400Y-133400800D01*
X131876800Y-92735400D02*
X132778500Y-92735400D01*
X135204200Y-105943400D02*
X137210800Y-107950000D01*
X135204200Y-95161100D02*
X135204200Y-105943400D01*
X132778500Y-92735400D02*
X135204200Y-95161100D01*
D24*
X115138200Y-69672200D02*
X127609600Y-69621400D01*
X127711200Y-95275400D02*
X115138200Y-95173800D01*
X115163600Y-120624600D02*
X125145800Y-120624600D01*
X125145800Y-120624600D02*
X125171200Y-120650000D01*
X115150900Y-141719300D02*
X116433600Y-141719300D01*
X120815100Y-146100800D02*
X124180600Y-146100800D01*
X116433600Y-141719300D02*
X120815100Y-146100800D01*
X124155200Y-146126200D02*
X124180600Y-146100800D01*
M02*
