M48
;DRILL file {KiCad 0.201511171411+6319~30~ubuntu15.04.1-product} date Wed 18 Nov 2015 02:30:10 PM CET
;FORMAT={3:3/ absolute / metric / suppress leading zeros}
FMAT,2
METRIC,TZ
T1C0.800
T2C0.800
T3C1.001
T4C1.016
T5C3.000
%
G90
G05
M71
T1
X124435Y-133426
X125705Y-108052
X127686Y-57023
X127914Y-133401
X127914Y-135941
X127914Y-138481
X127914Y-141021
X127914Y-143561
X127914Y-146101
X127914Y-148641
X127914Y-151181
X128270Y-82626
X128905Y-30505
X129591Y-107950
X129591Y-110490
X129591Y-113030
X129591Y-115570
X129591Y-118110
X129591Y-120650
X129591Y-123190
X129591Y-125730
X131369Y-56921
X131369Y-59461
X131369Y-62001
X131369Y-64541
X131369Y-67081
X131369Y-69621
X131369Y-72161
X131369Y-74701
X131877Y-82575
X131877Y-85115
X131877Y-87655
X131877Y-90195
X131877Y-92735
X131877Y-95275
X131877Y-97815
X131877Y-100355
X133096Y-31521
X133096Y-34061
X133096Y-36601
X133096Y-39141
X133096Y-41681
X133096Y-44221
X133096Y-46761
X133096Y-49301
X135534Y-133401
X135534Y-135941
X135534Y-138481
X135534Y-141021
X135534Y-143561
X135534Y-146101
X135534Y-148641
X135534Y-151181
X137211Y-107950
X137211Y-110490
X137211Y-113030
X137211Y-115570
X137211Y-118110
X137211Y-120650
X137211Y-123190
X137211Y-125730
X138989Y-56921
X138989Y-59461
X138989Y-62001
X138989Y-64541
X138989Y-67081
X138989Y-69621
X138989Y-72161
X138989Y-74701
X139497Y-82575
X139497Y-85115
X139497Y-87655
X139497Y-90195
X139497Y-92735
X139497Y-95275
X139497Y-97815
X139497Y-100355
X140716Y-31521
X140716Y-34061
X140716Y-36601
X140716Y-39141
X140716Y-41681
X140716Y-44221
X140716Y-46761
X140716Y-49301
T2
X124435Y-135926
X125705Y-110552
X127686Y-59523
X128270Y-85126
X128905Y-33005
T3
X149479Y-47498
X149504Y-39878
X149504Y-42418
X149504Y-44958
X149504Y-50038
X149504Y-52578
X149504Y-55118
X149529Y-57658
X149529Y-60198
X149529Y-62763
X149529Y-65278
X149529Y-67818
X149529Y-70383
X149529Y-72898
X149529Y-75438
X149529Y-77978
X149529Y-80518
X149529Y-83058
X149529Y-85598
X149529Y-88138
X149529Y-93472
X149529Y-96012
X149529Y-98552
X149529Y-101117
X149529Y-103632
X149529Y-106172
X149529Y-108712
X149529Y-111252
X149529Y-113792
X149529Y-116332
X149529Y-118872
X149529Y-121412
X149529Y-123952
X149529Y-126492
X149529Y-129057
X149529Y-131572
X149529Y-134112
X149530Y-137401
X149530Y-140576
X149530Y-143777
X159639Y-47498
X159664Y-39878
X159664Y-42418
X159664Y-44958
X159664Y-50038
X159664Y-52578
X159664Y-55118
X159689Y-57658
X159689Y-60198
X159689Y-62763
X159689Y-65278
X159689Y-67818
X159689Y-70383
X159689Y-72898
X159689Y-75438
X159689Y-77978
X159689Y-80518
X159689Y-83058
X159689Y-85598
X159689Y-88138
X159689Y-93472
X159689Y-96012
X159689Y-98552
X159689Y-101117
X159689Y-103632
X159689Y-106172
X159689Y-108712
X159689Y-111252
X159689Y-113792
X159689Y-116332
X159689Y-118872
X159689Y-121412
X159689Y-123952
X159689Y-126492
X159689Y-129057
X159689Y-131572
X159689Y-134112
X159690Y-137401
X159690Y-140576
X159690Y-143777
T4
X110058Y-69672
X110058Y-95174
X110071Y-141719
X110084Y-120625
X110160Y-39268
X112598Y-69672
X112598Y-95174
X112611Y-141719
X112624Y-120625
X112700Y-39268
X115138Y-69672
X115138Y-95174
X115151Y-141719
X115164Y-120625
X124181Y-146101
X124231Y-139192
X124231Y-141732
X124358Y-129019
X125120Y-36754
X125120Y-39294
X125171Y-113919
X125171Y-116459
X125171Y-120650
X127432Y-62814
X127432Y-65354
X127610Y-69621
X127635Y-88544
X127635Y-91084
X127711Y-95275
X128676Y-48412
X128676Y-50952
X128930Y-36728
X128930Y-39268
X128930Y-41808
X164566Y-39878
X164566Y-42418
X164566Y-44958
X164566Y-47498
X164566Y-50038
X164566Y-52578
X164566Y-55118
X164566Y-57658
X164566Y-60198
X164566Y-62738
X164566Y-65278
X164566Y-67818
X164566Y-70358
X164566Y-72898
X164566Y-75438
X164566Y-77978
X164566Y-80518
X164566Y-83058
X164566Y-85598
X164566Y-88138
X164617Y-93472
X164617Y-96012
X164617Y-98552
X164617Y-101092
X164617Y-103632
X164617Y-106172
X164617Y-108712
X164617Y-111252
X164617Y-113792
X164617Y-116332
X164617Y-118872
X164617Y-121412
X164617Y-123952
X164617Y-126492
X164617Y-129032
X164617Y-131572
X164617Y-134112
X164617Y-136652
X164617Y-139192
X164617Y-141732
X167106Y-39878
X167106Y-42418
X167106Y-44958
X167106Y-47498
X167106Y-50038
X167106Y-52578
X167106Y-55118
X167106Y-57658
X167106Y-60198
X167106Y-62738
X167106Y-65278
X167106Y-67818
X167106Y-70358
X167106Y-72898
X167106Y-75438
X167106Y-77978
X167106Y-80518
X167106Y-83058
X167106Y-85598
X167106Y-88138
X167157Y-93472
X167157Y-96012
X167157Y-98552
X167157Y-101092
X167157Y-103632
X167157Y-106172
X167157Y-108712
X167157Y-111252
X167157Y-113792
X167157Y-116332
X167157Y-118872
X167157Y-121412
X167157Y-123952
X167157Y-126492
X167157Y-129032
X167157Y-131572
X167157Y-134112
X167157Y-136652
X167157Y-139192
X167157Y-141732
T5
X111379Y-152044
X111430Y-30683
X169088Y-151994
X169291Y-30683
T0
M30
