; NON-PLATED HOLES START AT T1
; THROUGH (PLATED) HOLES START AT T100
M48
INCH
T1C0.086614
T100C0.015748
T101C0.035000
T102C0.030000
T103C0.027559
T104C0.038000
%
T1
X001518Y001153
X001518Y026653
X049018Y001153
X049018Y026653
T100
X010518Y019653
X018518Y007653
X028518Y020653
X012518Y017653
X049018Y018653
X042018Y009653
X008518Y014653
X015518Y019653
X030518Y007653
X035018Y014153
X023087Y014106
X035018Y009653
X046518Y018653
X023018Y012153
X024518Y018653
X019518Y007653
X002518Y014653
X011018Y014153
X016518Y021653
X027518Y020653
X023018Y006653
X009518Y011653
X016518Y019653
X031518Y007653
X032518Y018653
X007518Y007653
T101
X034518Y017653
X025518Y017653
X025518Y011153
X017018Y011153
X045518Y017653
X017518Y018653
X036518Y011153
X021518Y017653
X029518Y017653
X038518Y017653
X029518Y011153
X021518Y018653
X037518Y011153
X041518Y017653
X032518Y011153
X013018Y011153
X041518Y011153
X033518Y017653
T102
X013018Y012151
X001018Y015151
X025018Y016153
X037018Y015151
X013018Y013153
X018520Y017653
X001018Y016153
X017518Y017653
X037018Y016153
X013018Y015151
X013018Y016153
X025018Y015151
T103
X019518Y016153
X029518Y013153
X020518Y016153
X030518Y013153
X027518Y016153
X021518Y016153
X033518Y013153
X031518Y013153
X028518Y016153
X026518Y016153
X038518Y013153
X032518Y013153
X029518Y016153
X039518Y013153
X002518Y013153
X030518Y016153
X007518Y013153
X005518Y013153
X003518Y013153
X040518Y013153
X033518Y016153
X031518Y016153
X008518Y013153
X006518Y013153
X004518Y013153
X045518Y013153
X043518Y013153
X041518Y013153
X038518Y016153
X032518Y016153
X009518Y013153
X044518Y013153
X042518Y013153
X039518Y016153
X002518Y016153
X007518Y016153
X005518Y016153
X003518Y016153
X040518Y016153
X017518Y013153
X015518Y013153
X008518Y016153
X006518Y016153
X004518Y016153
X045518Y016153
X043518Y016153
X041518Y016153
X018518Y013153
X016518Y013153
X014518Y013153
X009518Y016153
X044518Y016153
X042518Y016153
X019518Y013153
X020518Y013153
X017518Y016153
X015518Y016153
X027518Y013153
X021518Y013153
X018518Y016153
X016518Y016153
X014518Y016153
X028518Y013153
X026518Y013153
T104
X047018Y024653
X047018Y015153
X047018Y021653
X001018Y010153
X047018Y012153
X047018Y005153
X047018Y002153
X047018Y026653
X047018Y023653
X047018Y014153
X047018Y007153
X047018Y020653
X047018Y004153
X047018Y001153
X047018Y025653
X047018Y009153
X047018Y022653
X001018Y011153
X047018Y013153
X047018Y006153
X047018Y010153
X047018Y003153
T00
M30
