; NON-PLATED HOLES START AT T1
; THROUGH (PLATED) HOLES START AT T100
M48
INCH
T1C0.086614
T100C0.038000
T101C0.039370
T102C0.015748
T103C0.035000
T104C0.030000
%
T1
X001289Y017823
X049789Y017823
X001289Y001323
X049789Y001323
T100
X039289Y002823
X045289Y015323
X042289Y002823
X038289Y002823
X041289Y002823
X039289Y015323
X046789Y007823
X042289Y015323
X041289Y015323
X046789Y004823
X046789Y009823
X046789Y006823
X043289Y002823
X044289Y015323
X046789Y003823
X037289Y002823
X043289Y015323
X040289Y002823
X004289Y005323
X003289Y005323
X040289Y015323
X046789Y008823
T101
X038289Y010823
X032289Y007823
X030289Y007823
X039289Y007823
X033289Y007823
X031289Y007823
X006289Y010823
X004289Y010823
X002289Y010823
X038289Y007823
X009289Y010823
X007289Y010823
X005289Y010823
X003289Y010823
X044289Y010823
X042289Y010823
X040289Y010823
X008289Y010823
X006289Y007823
X004289Y007823
X002289Y007823
X045289Y010823
X043289Y010823
X041289Y010823
X009289Y007823
X007289Y007823
X005289Y007823
X003289Y007823
X044289Y007823
X042289Y007823
X040289Y007823
X008289Y007823
X045289Y007823
X043289Y007823
X041289Y007823
X016289Y010823
X014289Y010823
X019289Y010823
X017289Y010823
X015289Y010823
X018289Y010823
X016289Y007823
X014289Y007823
X019289Y007823
X017289Y007823
X015289Y007823
X018289Y007823
X026289Y010823
X020289Y010823
X029289Y010823
X027289Y010823
X021289Y010823
X028289Y010823
X026289Y007823
X020289Y007823
X029289Y007823
X027289Y007823
X021289Y007823
X028289Y007823
X032289Y010823
X030289Y010823
X039289Y010823
X033289Y010823
X031289Y010823
T102
X010289Y014323
X048789Y013823
X031289Y004323
X027289Y015323
X012289Y012323
X016289Y014323
X032289Y013323
X015289Y014323
X022788Y003823
X010289Y006323
X003289Y008823
X016289Y016323
X046289Y013823
X045289Y009823
X028289Y015323
X022859Y008777
X012789Y003823
X030289Y003823
X010789Y008323
X034789Y008823
X018289Y005323
X021789Y003823
X024289Y013323
X006789Y008823
T103
X037289Y005823
X012789Y005823
X033289Y012323
X029289Y005823
X041289Y005823
X025289Y012323
X034289Y012323
X032289Y005823
X045289Y012323
X025289Y005823
X017289Y013323
X016789Y005823
X021289Y012323
X038289Y012323
X021289Y013323
X029289Y012323
X041289Y012323
X036289Y005823
T104
X037095Y010627
X012997Y011532
X024789Y010323
X003291Y012323
X018291Y012323
X036386Y009919
X010789Y010823
X012789Y007823
X023545Y011528
X024081Y009615
X046789Y011823
X034808Y010847
X002289Y012323
X022837Y010819
X017289Y012323
X011497Y011532
X012789Y006822
X012289Y010823
X035516Y011556
X046789Y010821
T00
M30
