%FSLAX45Y45*%
G04 Gerber Fmt 4.5, Leading zero omitted, Abs format (unit mm)*
G04 Created by KiCad (PCBNEW no-vcs-found-7434~57~ubuntu16.04.1) date Sat Jan  7 23:10:37 2017*
%MOMM*%
%LPD*%
G01*
G04 APERTURE LIST*
%ADD10C,0.127000*%
%ADD11C,0.150000*%
%ADD12C,0.200000*%
%ADD13C,0.300000*%
G04 APERTURE END LIST*
D10*
D11*
X11500000Y-13100000D02*
X11500000Y-10100000D01*
X16000000Y-13100000D02*
X11500000Y-13100000D01*
X16000000Y-10100000D02*
X16000000Y-13100000D01*
X11500000Y-10100000D02*
X16000000Y-10100000D01*
D12*
X10050000Y-11250000D02*
X10150000Y-11350000D01*
X10150000Y-11250000D02*
X10050000Y-11350000D01*
X10050000Y-11850000D02*
X10150000Y-11950000D01*
X10150000Y-11850000D02*
X10050000Y-11950000D01*
X10450000Y-11250000D02*
X10550000Y-11350000D01*
X10550000Y-11250000D02*
X10450000Y-11350000D01*
X10450000Y-11850000D02*
X10550000Y-11950000D01*
X10550000Y-11850000D02*
X10450000Y-11950000D01*
X10850000Y-11250000D02*
X10950000Y-11350000D01*
X10950000Y-11250000D02*
X10850000Y-11350000D01*
X10850000Y-11850000D02*
X10950000Y-11950000D01*
X10950000Y-11850000D02*
X10850000Y-11950000D01*
X11250000Y-11250000D02*
X11350000Y-11350000D01*
X11350000Y-11250000D02*
X11250000Y-11350000D01*
X11250000Y-11850000D02*
X11350000Y-11950000D01*
X11350000Y-11850000D02*
X11250000Y-11950000D01*
X11650000Y-11250000D02*
X11750000Y-11350000D01*
X11750000Y-11250000D02*
X11650000Y-11350000D01*
X11650000Y-11850000D02*
X11750000Y-11950000D01*
X11750000Y-11850000D02*
X11650000Y-11950000D01*
X12050000Y-11250000D02*
X12150000Y-11350000D01*
X12150000Y-11250000D02*
X12050000Y-11350000D01*
X12050000Y-11850000D02*
X12150000Y-11950000D01*
X12150000Y-11850000D02*
X12050000Y-11950000D01*
X12450000Y-11250000D02*
X12550000Y-11350000D01*
X12550000Y-11250000D02*
X12450000Y-11350000D01*
X12450000Y-11850000D02*
X12550000Y-11950000D01*
X12550000Y-11850000D02*
X12450000Y-11950000D01*
X12850000Y-11250000D02*
X12950000Y-11350000D01*
X12950000Y-11250000D02*
X12850000Y-11350000D01*
X12850000Y-11850000D02*
X12950000Y-11950000D01*
X12950000Y-11850000D02*
X12850000Y-11950000D01*
X13250000Y-11250000D02*
X13350000Y-11350000D01*
X13350000Y-11250000D02*
X13250000Y-11350000D01*
X13250000Y-11850000D02*
X13350000Y-11950000D01*
X13350000Y-11850000D02*
X13250000Y-11950000D01*
X13650000Y-11250000D02*
X13750000Y-11350000D01*
X13750000Y-11250000D02*
X13650000Y-11350000D01*
X13650000Y-11850000D02*
X13750000Y-11950000D01*
X13750000Y-11850000D02*
X13650000Y-11950000D01*
X14050000Y-11250000D02*
X14150000Y-11350000D01*
X14150000Y-11250000D02*
X14050000Y-11350000D01*
X14050000Y-11850000D02*
X14150000Y-11950000D01*
X14150000Y-11850000D02*
X14050000Y-11950000D01*
X14450000Y-11250000D02*
X14550000Y-11350000D01*
X14550000Y-11250000D02*
X14450000Y-11350000D01*
X14450000Y-11850000D02*
X14550000Y-11950000D01*
X14550000Y-11850000D02*
X14450000Y-11950000D01*
X14850000Y-11250000D02*
X14950000Y-11350000D01*
X14950000Y-11250000D02*
X14850000Y-11350000D01*
X14850000Y-11850000D02*
X14950000Y-11950000D01*
X14950000Y-11850000D02*
X14850000Y-11950000D01*
X15250000Y-11250000D02*
X15350000Y-11350000D01*
X15350000Y-11250000D02*
X15250000Y-11350000D01*
X15250000Y-11850000D02*
X15350000Y-11950000D01*
X15350000Y-11850000D02*
X15250000Y-11950000D01*
X15650000Y-11250000D02*
X15750000Y-11350000D01*
X15750000Y-11250000D02*
X15650000Y-11350000D01*
X15650000Y-11850000D02*
X15750000Y-11950000D01*
X15750000Y-11850000D02*
X15650000Y-11950000D01*
D13*
X11778928Y-13573214D02*
X11778928Y-13273214D01*
X11850357Y-13273214D01*
X11893214Y-13287500D01*
X11921786Y-13316071D01*
X11936071Y-13344643D01*
X11950357Y-13401786D01*
X11950357Y-13444643D01*
X11936071Y-13501786D01*
X11921786Y-13530357D01*
X11893214Y-13558929D01*
X11850357Y-13573214D01*
X11778928Y-13573214D01*
X12078928Y-13573214D02*
X12078928Y-13373214D01*
X12078928Y-13430357D02*
X12093214Y-13401786D01*
X12107500Y-13387500D01*
X12136071Y-13373214D01*
X12164643Y-13373214D01*
X12264643Y-13573214D02*
X12264643Y-13373214D01*
X12264643Y-13273214D02*
X12250357Y-13287500D01*
X12264643Y-13301786D01*
X12278928Y-13287500D01*
X12264643Y-13273214D01*
X12264643Y-13301786D01*
X12450357Y-13573214D02*
X12421786Y-13558929D01*
X12407500Y-13530357D01*
X12407500Y-13273214D01*
X12607500Y-13573214D02*
X12578928Y-13558929D01*
X12564643Y-13530357D01*
X12564643Y-13273214D01*
X12950357Y-13573214D02*
X12950357Y-13273214D01*
X13050357Y-13487500D01*
X13150357Y-13273214D01*
X13150357Y-13573214D01*
X13421786Y-13573214D02*
X13421786Y-13416071D01*
X13407500Y-13387500D01*
X13378928Y-13373214D01*
X13321786Y-13373214D01*
X13293214Y-13387500D01*
X13421786Y-13558929D02*
X13393214Y-13573214D01*
X13321786Y-13573214D01*
X13293214Y-13558929D01*
X13278928Y-13530357D01*
X13278928Y-13501786D01*
X13293214Y-13473214D01*
X13321786Y-13458929D01*
X13393214Y-13458929D01*
X13421786Y-13444643D01*
X13564643Y-13373214D02*
X13564643Y-13673214D01*
X13564643Y-13387500D02*
X13593214Y-13373214D01*
X13650357Y-13373214D01*
X13678928Y-13387500D01*
X13693214Y-13401786D01*
X13707500Y-13430357D01*
X13707500Y-13516071D01*
X13693214Y-13544643D01*
X13678928Y-13558929D01*
X13650357Y-13573214D01*
X13593214Y-13573214D01*
X13564643Y-13558929D01*
X13836071Y-13544643D02*
X13850357Y-13558929D01*
X13836071Y-13573214D01*
X13821786Y-13558929D01*
X13836071Y-13544643D01*
X13836071Y-13573214D01*
X13836071Y-13387500D02*
X13850357Y-13401786D01*
X13836071Y-13416071D01*
X13821786Y-13401786D01*
X13836071Y-13387500D01*
X13836071Y-13416071D01*
X11392500Y-14017500D02*
X11492500Y-14117500D01*
X11492500Y-14017500D02*
X11392500Y-14117500D01*
X11936071Y-14203214D02*
X11764643Y-14203214D01*
X11850357Y-14203214D02*
X11850357Y-13903214D01*
X11821786Y-13946071D01*
X11793214Y-13974643D01*
X11764643Y-13988929D01*
X12064643Y-14174643D02*
X12078928Y-14188929D01*
X12064643Y-14203214D01*
X12050357Y-14188929D01*
X12064643Y-14174643D01*
X12064643Y-14203214D01*
X12264643Y-13903214D02*
X12293214Y-13903214D01*
X12321786Y-13917500D01*
X12336071Y-13931786D01*
X12350357Y-13960357D01*
X12364643Y-14017500D01*
X12364643Y-14088929D01*
X12350357Y-14146071D01*
X12336071Y-14174643D01*
X12321786Y-14188929D01*
X12293214Y-14203214D01*
X12264643Y-14203214D01*
X12236071Y-14188929D01*
X12221786Y-14174643D01*
X12207500Y-14146071D01*
X12193214Y-14088929D01*
X12193214Y-14017500D01*
X12207500Y-13960357D01*
X12221786Y-13931786D01*
X12236071Y-13917500D01*
X12264643Y-13903214D01*
X12550357Y-13903214D02*
X12578928Y-13903214D01*
X12607500Y-13917500D01*
X12621786Y-13931786D01*
X12636071Y-13960357D01*
X12650357Y-14017500D01*
X12650357Y-14088929D01*
X12636071Y-14146071D01*
X12621786Y-14174643D01*
X12607500Y-14188929D01*
X12578928Y-14203214D01*
X12550357Y-14203214D01*
X12521786Y-14188929D01*
X12507500Y-14174643D01*
X12493214Y-14146071D01*
X12478928Y-14088929D01*
X12478928Y-14017500D01*
X12493214Y-13960357D01*
X12507500Y-13931786D01*
X12521786Y-13917500D01*
X12550357Y-13903214D01*
X12778928Y-14203214D02*
X12778928Y-14003214D01*
X12778928Y-14031786D02*
X12793214Y-14017500D01*
X12821786Y-14003214D01*
X12864643Y-14003214D01*
X12893214Y-14017500D01*
X12907500Y-14046071D01*
X12907500Y-14203214D01*
X12907500Y-14046071D02*
X12921786Y-14017500D01*
X12950357Y-14003214D01*
X12993214Y-14003214D01*
X13021786Y-14017500D01*
X13036071Y-14046071D01*
X13036071Y-14203214D01*
X13178928Y-14203214D02*
X13178928Y-14003214D01*
X13178928Y-14031786D02*
X13193214Y-14017500D01*
X13221786Y-14003214D01*
X13264643Y-14003214D01*
X13293214Y-14017500D01*
X13307500Y-14046071D01*
X13307500Y-14203214D01*
X13307500Y-14046071D02*
X13321786Y-14017500D01*
X13350357Y-14003214D01*
X13393214Y-14003214D01*
X13421786Y-14017500D01*
X13436071Y-14046071D01*
X13436071Y-14203214D01*
X14021786Y-13888929D02*
X13764643Y-14274643D01*
X14407500Y-13903214D02*
X14436071Y-13903214D01*
X14464643Y-13917500D01*
X14478928Y-13931786D01*
X14493214Y-13960357D01*
X14507500Y-14017500D01*
X14507500Y-14088929D01*
X14493214Y-14146071D01*
X14478928Y-14174643D01*
X14464643Y-14188929D01*
X14436071Y-14203214D01*
X14407500Y-14203214D01*
X14378928Y-14188929D01*
X14364643Y-14174643D01*
X14350357Y-14146071D01*
X14336071Y-14088929D01*
X14336071Y-14017500D01*
X14350357Y-13960357D01*
X14364643Y-13931786D01*
X14378928Y-13917500D01*
X14407500Y-13903214D01*
X14636071Y-14174643D02*
X14650357Y-14188929D01*
X14636071Y-14203214D01*
X14621786Y-14188929D01*
X14636071Y-14174643D01*
X14636071Y-14203214D01*
X14836071Y-13903214D02*
X14864643Y-13903214D01*
X14893214Y-13917500D01*
X14907500Y-13931786D01*
X14921786Y-13960357D01*
X14936071Y-14017500D01*
X14936071Y-14088929D01*
X14921786Y-14146071D01*
X14907500Y-14174643D01*
X14893214Y-14188929D01*
X14864643Y-14203214D01*
X14836071Y-14203214D01*
X14807500Y-14188929D01*
X14793214Y-14174643D01*
X14778928Y-14146071D01*
X14764643Y-14088929D01*
X14764643Y-14017500D01*
X14778928Y-13960357D01*
X14793214Y-13931786D01*
X14807500Y-13917500D01*
X14836071Y-13903214D01*
X15036071Y-13903214D02*
X15221786Y-13903214D01*
X15121786Y-14017500D01*
X15164643Y-14017500D01*
X15193214Y-14031786D01*
X15207500Y-14046071D01*
X15221786Y-14074643D01*
X15221786Y-14146071D01*
X15207500Y-14174643D01*
X15193214Y-14188929D01*
X15164643Y-14203214D01*
X15078928Y-14203214D01*
X15050357Y-14188929D01*
X15036071Y-14174643D01*
X15364643Y-14203214D02*
X15421786Y-14203214D01*
X15450357Y-14188929D01*
X15464643Y-14174643D01*
X15493214Y-14131786D01*
X15507500Y-14074643D01*
X15507500Y-13960357D01*
X15493214Y-13931786D01*
X15478928Y-13917500D01*
X15450357Y-13903214D01*
X15393214Y-13903214D01*
X15364643Y-13917500D01*
X15350357Y-13931786D01*
X15336071Y-13960357D01*
X15336071Y-14031786D01*
X15350357Y-14060357D01*
X15364643Y-14074643D01*
X15393214Y-14088929D01*
X15450357Y-14088929D01*
X15478928Y-14074643D01*
X15493214Y-14060357D01*
X15507500Y-14031786D01*
X15621786Y-13903214D02*
X15621786Y-13960357D01*
X15736071Y-13903214D02*
X15736071Y-13960357D01*
X16178928Y-14317500D02*
X16164643Y-14303214D01*
X16136071Y-14260357D01*
X16121786Y-14231786D01*
X16107500Y-14188929D01*
X16093214Y-14117500D01*
X16093214Y-14060357D01*
X16107500Y-13988929D01*
X16121786Y-13946071D01*
X16136071Y-13917500D01*
X16164643Y-13874643D01*
X16178928Y-13860357D01*
X16264643Y-13903214D02*
X16450357Y-13903214D01*
X16350357Y-14017500D01*
X16393214Y-14017500D01*
X16421786Y-14031786D01*
X16436071Y-14046071D01*
X16450357Y-14074643D01*
X16450357Y-14146071D01*
X16436071Y-14174643D01*
X16421786Y-14188929D01*
X16393214Y-14203214D01*
X16307500Y-14203214D01*
X16278928Y-14188929D01*
X16264643Y-14174643D01*
X16636071Y-13903214D02*
X16664643Y-13903214D01*
X16693214Y-13917500D01*
X16707500Y-13931786D01*
X16721786Y-13960357D01*
X16736071Y-14017500D01*
X16736071Y-14088929D01*
X16721786Y-14146071D01*
X16707500Y-14174643D01*
X16693214Y-14188929D01*
X16664643Y-14203214D01*
X16636071Y-14203214D01*
X16607500Y-14188929D01*
X16593214Y-14174643D01*
X16578928Y-14146071D01*
X16564643Y-14088929D01*
X16564643Y-14017500D01*
X16578928Y-13960357D01*
X16593214Y-13931786D01*
X16607500Y-13917500D01*
X16636071Y-13903214D01*
X17093214Y-14203214D02*
X17093214Y-13903214D01*
X17221786Y-14203214D02*
X17221786Y-14046071D01*
X17207500Y-14017500D01*
X17178928Y-14003214D01*
X17136071Y-14003214D01*
X17107500Y-14017500D01*
X17093214Y-14031786D01*
X17407500Y-14203214D02*
X17378928Y-14188929D01*
X17364643Y-14174643D01*
X17350357Y-14146071D01*
X17350357Y-14060357D01*
X17364643Y-14031786D01*
X17378928Y-14017500D01*
X17407500Y-14003214D01*
X17450357Y-14003214D01*
X17478928Y-14017500D01*
X17493214Y-14031786D01*
X17507500Y-14060357D01*
X17507500Y-14146071D01*
X17493214Y-14174643D01*
X17478928Y-14188929D01*
X17450357Y-14203214D01*
X17407500Y-14203214D01*
X17678928Y-14203214D02*
X17650357Y-14188929D01*
X17636071Y-14160357D01*
X17636071Y-13903214D01*
X17907500Y-14188929D02*
X17878928Y-14203214D01*
X17821786Y-14203214D01*
X17793214Y-14188929D01*
X17778928Y-14160357D01*
X17778928Y-14046071D01*
X17793214Y-14017500D01*
X17821786Y-14003214D01*
X17878928Y-14003214D01*
X17907500Y-14017500D01*
X17921786Y-14046071D01*
X17921786Y-14074643D01*
X17778928Y-14103214D01*
X18036071Y-14188929D02*
X18064643Y-14203214D01*
X18121786Y-14203214D01*
X18150357Y-14188929D01*
X18164643Y-14160357D01*
X18164643Y-14146071D01*
X18150357Y-14117500D01*
X18121786Y-14103214D01*
X18078928Y-14103214D01*
X18050357Y-14088929D01*
X18036071Y-14060357D01*
X18036071Y-14046071D01*
X18050357Y-14017500D01*
X18078928Y-14003214D01*
X18121786Y-14003214D01*
X18150357Y-14017500D01*
X18264643Y-14317500D02*
X18278928Y-14303214D01*
X18307500Y-14260357D01*
X18321786Y-14231786D01*
X18336071Y-14188929D01*
X18350357Y-14117500D01*
X18350357Y-14060357D01*
X18336071Y-13988929D01*
X18321786Y-13946071D01*
X18307500Y-13917500D01*
X18278928Y-13874643D01*
X18264643Y-13860357D01*
M02*
