G04 This is an RS-274x file exported by *
G04 gerbv version 2.6.0 *
G04 More information is available about gerbv at *
G04 http://gerbv.gpleda.org/ *
G04 --End of header info--*
%MOIN*%
%FSLAX34Y34*%
%IPPOS*%
G04 --Define apertures--*
%ADD10C,0.0020*%
%ADD11C,0.0059*%
G04 --Start main section--*
G54D11*
G01X0050169Y-045847D02*
G01X0049944Y-045847D01*
G01X0050056Y-045847D02*
G01X0050056Y-045454D01*
G01X0050056Y-045454D02*
G01X0050019Y-045510D01*
G01X0050019Y-045510D02*
G01X0049981Y-045547D01*
G01X0049981Y-045547D02*
G01X0049944Y-045566D01*
G01X0050412Y-045454D02*
G01X0050450Y-045454D01*
G01X0050450Y-045454D02*
G01X0050487Y-045472D01*
G01X0050487Y-045472D02*
G01X0050506Y-045491D01*
G01X0050506Y-045491D02*
G01X0050525Y-045529D01*
G01X0050525Y-045529D02*
G01X0050544Y-045604D01*
G01X0050544Y-045604D02*
G01X0050544Y-045697D01*
G01X0050544Y-045697D02*
G01X0050525Y-045772D01*
G01X0050525Y-045772D02*
G01X0050506Y-045810D01*
G01X0050506Y-045810D02*
G01X0050487Y-045829D01*
G01X0050487Y-045829D02*
G01X0050450Y-045847D01*
G01X0050450Y-045847D02*
G01X0050412Y-045847D01*
G01X0050412Y-045847D02*
G01X0050375Y-045829D01*
G01X0050375Y-045829D02*
G01X0050356Y-045810D01*
G01X0050356Y-045810D02*
G01X0050337Y-045772D01*
G01X0050337Y-045772D02*
G01X0050319Y-045697D01*
G01X0050319Y-045697D02*
G01X0050319Y-045604D01*
G01X0050319Y-045604D02*
G01X0050337Y-045529D01*
G01X0050337Y-045529D02*
G01X0050356Y-045491D01*
G01X0050356Y-045491D02*
G01X0050375Y-045472D01*
G01X0050375Y-045472D02*
G01X0050412Y-045454D01*
G01X0050712Y-045847D02*
G01X0050712Y-045454D01*
G01X0050712Y-045454D02*
G01X0050862Y-045454D01*
G01X0050862Y-045454D02*
G01X0050900Y-045472D01*
G01X0050900Y-045472D02*
G01X0050919Y-045491D01*
G01X0050919Y-045491D02*
G01X0050937Y-045529D01*
G01X0050937Y-045529D02*
G01X0050937Y-045585D01*
G01X0050937Y-045585D02*
G01X0050919Y-045622D01*
G01X0050919Y-045622D02*
G01X0050900Y-045641D01*
G01X0050900Y-045641D02*
G01X0050862Y-045660D01*
G01X0050862Y-045660D02*
G01X0050712Y-045660D01*
G01X0051106Y-045847D02*
G01X0051106Y-045454D01*
G01X0051106Y-045454D02*
G01X0051200Y-045454D01*
G01X0051200Y-045454D02*
G01X0051256Y-045472D01*
G01X0051256Y-045472D02*
G01X0051294Y-045510D01*
G01X0051294Y-045510D02*
G01X0051312Y-045547D01*
G01X0051312Y-045547D02*
G01X0051331Y-045622D01*
G01X0051331Y-045622D02*
G01X0051331Y-045679D01*
G01X0051331Y-045679D02*
G01X0051312Y-045754D01*
G01X0051312Y-045754D02*
G01X0051294Y-045791D01*
G01X0051294Y-045791D02*
G01X0051256Y-045829D01*
G01X0051256Y-045829D02*
G01X0051200Y-045847D01*
G01X0051200Y-045847D02*
G01X0051106Y-045847D01*
G01X0051444Y-045454D02*
G01X0051669Y-045454D01*
G01X0051556Y-045847D02*
G01X0051556Y-045454D01*
M02*
