G04 #@! TF.GenerationSoftware,KiCad,Pcbnew,no-vcs-found-7434~57~ubuntu16.04.1*
G04 #@! TF.CreationDate,2017-01-07T23:20:12+01:00*
G04 #@! TF.ProjectId,PickupWiring,5069636B7570576972696E672E6B6963,rev?*
G04 #@! TF.FileFunction,Legend,Top*
G04 #@! TF.FilePolarity,Positive*
%FSLAX46Y46*%
G04 Gerber Fmt 4.6, Leading zero omitted, Abs format (unit mm)*
G04 Created by KiCad (PCBNEW no-vcs-found-7434~57~ubuntu16.04.1) date Sat Jan  7 23:20:12 2017*
%MOMM*%
%LPD*%
G01*
G04 APERTURE LIST*
%ADD10C,0.050000*%
%ADD11C,0.150000*%
G04 APERTURE END LIST*
D10*
D11*
X99500000Y-120499999D02*
X158500000Y-120500000D01*
X158500000Y-120500000D02*
X158500000Y-111500001D01*
X158500000Y-111500001D02*
X99500000Y-111500000D01*
X99500000Y-111500000D02*
X99500000Y-114500000D01*
X99500000Y-114500000D02*
X99950000Y-114500000D01*
X99950000Y-114500000D02*
X99950000Y-117499999D01*
X99950000Y-117499999D02*
X99500000Y-117499999D01*
X99500000Y-117499999D02*
X99500000Y-120499999D01*
X158500000Y-111500000D02*
X163500000Y-111500000D01*
X163500000Y-111500000D02*
X163500000Y-120500000D01*
X163500000Y-120500000D02*
X158500000Y-120500000D01*
X99500000Y-111500000D02*
X91500000Y-111500000D01*
X91500000Y-111500000D02*
X91500000Y-120500000D01*
X91500000Y-120500000D02*
X99500000Y-120500000D01*
X91500000Y-112000000D02*
X65500000Y-112000000D01*
X65500000Y-112000000D02*
X65500000Y-120000000D01*
X65500000Y-120000000D02*
X91500000Y-120000000D01*
X71500000Y-112000000D02*
X71500000Y-120000000D01*
X104833333Y-123357142D02*
X104785714Y-123404761D01*
X104642857Y-123452380D01*
X104547619Y-123452380D01*
X104404761Y-123404761D01*
X104309523Y-123309523D01*
X104261904Y-123214285D01*
X104214285Y-123023809D01*
X104214285Y-122880952D01*
X104261904Y-122690476D01*
X104309523Y-122595238D01*
X104404761Y-122500000D01*
X104547619Y-122452380D01*
X104642857Y-122452380D01*
X104785714Y-122500000D01*
X104833333Y-122547619D01*
X105452380Y-122452380D02*
X105547619Y-122452380D01*
X105642857Y-122500000D01*
X105690476Y-122547619D01*
X105738095Y-122642857D01*
X105785714Y-122833333D01*
X105785714Y-123071428D01*
X105738095Y-123261904D01*
X105690476Y-123357142D01*
X105642857Y-123404761D01*
X105547619Y-123452380D01*
X105452380Y-123452380D01*
X105357142Y-123404761D01*
X105309523Y-123357142D01*
X105261904Y-123261904D01*
X105214285Y-123071428D01*
X105214285Y-122833333D01*
X105261904Y-122642857D01*
X105309523Y-122547619D01*
X105357142Y-122500000D01*
X105452380Y-122452380D01*
X116833333Y-123357142D02*
X116785714Y-123404761D01*
X116642857Y-123452380D01*
X116547619Y-123452380D01*
X116404761Y-123404761D01*
X116309523Y-123309523D01*
X116261904Y-123214285D01*
X116214285Y-123023809D01*
X116214285Y-122880952D01*
X116261904Y-122690476D01*
X116309523Y-122595238D01*
X116404761Y-122500000D01*
X116547619Y-122452380D01*
X116642857Y-122452380D01*
X116785714Y-122500000D01*
X116833333Y-122547619D01*
X117785714Y-123452380D02*
X117214285Y-123452380D01*
X117500000Y-123452380D02*
X117500000Y-122452380D01*
X117404761Y-122595238D01*
X117309523Y-122690476D01*
X117214285Y-122738095D01*
X128833333Y-123357142D02*
X128785714Y-123404761D01*
X128642857Y-123452380D01*
X128547619Y-123452380D01*
X128404761Y-123404761D01*
X128309523Y-123309523D01*
X128261904Y-123214285D01*
X128214285Y-123023809D01*
X128214285Y-122880952D01*
X128261904Y-122690476D01*
X128309523Y-122595238D01*
X128404761Y-122500000D01*
X128547619Y-122452380D01*
X128642857Y-122452380D01*
X128785714Y-122500000D01*
X128833333Y-122547619D01*
X129214285Y-122547619D02*
X129261904Y-122500000D01*
X129357142Y-122452380D01*
X129595238Y-122452380D01*
X129690476Y-122500000D01*
X129738095Y-122547619D01*
X129785714Y-122642857D01*
X129785714Y-122738095D01*
X129738095Y-122880952D01*
X129166666Y-123452380D01*
X129785714Y-123452380D01*
X140833333Y-123357142D02*
X140785714Y-123404761D01*
X140642857Y-123452380D01*
X140547619Y-123452380D01*
X140404761Y-123404761D01*
X140309523Y-123309523D01*
X140261904Y-123214285D01*
X140214285Y-123023809D01*
X140214285Y-122880952D01*
X140261904Y-122690476D01*
X140309523Y-122595238D01*
X140404761Y-122500000D01*
X140547619Y-122452380D01*
X140642857Y-122452380D01*
X140785714Y-122500000D01*
X140833333Y-122547619D01*
X141166666Y-122452380D02*
X141785714Y-122452380D01*
X141452380Y-122833333D01*
X141595238Y-122833333D01*
X141690476Y-122880952D01*
X141738095Y-122928571D01*
X141785714Y-123023809D01*
X141785714Y-123261904D01*
X141738095Y-123357142D01*
X141690476Y-123404761D01*
X141595238Y-123452380D01*
X141309523Y-123452380D01*
X141214285Y-123404761D01*
X141166666Y-123357142D01*
X152833333Y-123357142D02*
X152785714Y-123404761D01*
X152642857Y-123452380D01*
X152547619Y-123452380D01*
X152404761Y-123404761D01*
X152309523Y-123309523D01*
X152261904Y-123214285D01*
X152214285Y-123023809D01*
X152214285Y-122880952D01*
X152261904Y-122690476D01*
X152309523Y-122595238D01*
X152404761Y-122500000D01*
X152547619Y-122452380D01*
X152642857Y-122452380D01*
X152785714Y-122500000D01*
X152833333Y-122547619D01*
X153690476Y-122785714D02*
X153690476Y-123452380D01*
X153452380Y-122404761D02*
X153214285Y-123119047D01*
X153833333Y-123119047D01*
X152833333Y-109357142D02*
X152785714Y-109404761D01*
X152642857Y-109452380D01*
X152547619Y-109452380D01*
X152404761Y-109404761D01*
X152309523Y-109309523D01*
X152261904Y-109214285D01*
X152214285Y-109023809D01*
X152214285Y-108880952D01*
X152261904Y-108690476D01*
X152309523Y-108595238D01*
X152404761Y-108500000D01*
X152547619Y-108452380D01*
X152642857Y-108452380D01*
X152785714Y-108500000D01*
X152833333Y-108547619D01*
X153738095Y-108452380D02*
X153261904Y-108452380D01*
X153214285Y-108928571D01*
X153261904Y-108880952D01*
X153357142Y-108833333D01*
X153595238Y-108833333D01*
X153690476Y-108880952D01*
X153738095Y-108928571D01*
X153785714Y-109023809D01*
X153785714Y-109261904D01*
X153738095Y-109357142D01*
X153690476Y-109404761D01*
X153595238Y-109452380D01*
X153357142Y-109452380D01*
X153261904Y-109404761D01*
X153214285Y-109357142D01*
X140833333Y-109357142D02*
X140785714Y-109404761D01*
X140642857Y-109452380D01*
X140547619Y-109452380D01*
X140404761Y-109404761D01*
X140309523Y-109309523D01*
X140261904Y-109214285D01*
X140214285Y-109023809D01*
X140214285Y-108880952D01*
X140261904Y-108690476D01*
X140309523Y-108595238D01*
X140404761Y-108500000D01*
X140547619Y-108452380D01*
X140642857Y-108452380D01*
X140785714Y-108500000D01*
X140833333Y-108547619D01*
X141690476Y-108452380D02*
X141500000Y-108452380D01*
X141404761Y-108500000D01*
X141357142Y-108547619D01*
X141261904Y-108690476D01*
X141214285Y-108880952D01*
X141214285Y-109261904D01*
X141261904Y-109357142D01*
X141309523Y-109404761D01*
X141404761Y-109452380D01*
X141595238Y-109452380D01*
X141690476Y-109404761D01*
X141738095Y-109357142D01*
X141785714Y-109261904D01*
X141785714Y-109023809D01*
X141738095Y-108928571D01*
X141690476Y-108880952D01*
X141595238Y-108833333D01*
X141404761Y-108833333D01*
X141309523Y-108880952D01*
X141261904Y-108928571D01*
X141214285Y-109023809D01*
X128833333Y-109357142D02*
X128785714Y-109404761D01*
X128642857Y-109452380D01*
X128547619Y-109452380D01*
X128404761Y-109404761D01*
X128309523Y-109309523D01*
X128261904Y-109214285D01*
X128214285Y-109023809D01*
X128214285Y-108880952D01*
X128261904Y-108690476D01*
X128309523Y-108595238D01*
X128404761Y-108500000D01*
X128547619Y-108452380D01*
X128642857Y-108452380D01*
X128785714Y-108500000D01*
X128833333Y-108547619D01*
X129166666Y-108452380D02*
X129833333Y-108452380D01*
X129404761Y-109452380D01*
X116833333Y-109357142D02*
X116785714Y-109404761D01*
X116642857Y-109452380D01*
X116547619Y-109452380D01*
X116404761Y-109404761D01*
X116309523Y-109309523D01*
X116261904Y-109214285D01*
X116214285Y-109023809D01*
X116214285Y-108880952D01*
X116261904Y-108690476D01*
X116309523Y-108595238D01*
X116404761Y-108500000D01*
X116547619Y-108452380D01*
X116642857Y-108452380D01*
X116785714Y-108500000D01*
X116833333Y-108547619D01*
X117404761Y-108880952D02*
X117309523Y-108833333D01*
X117261904Y-108785714D01*
X117214285Y-108690476D01*
X117214285Y-108642857D01*
X117261904Y-108547619D01*
X117309523Y-108500000D01*
X117404761Y-108452380D01*
X117595238Y-108452380D01*
X117690476Y-108500000D01*
X117738095Y-108547619D01*
X117785714Y-108642857D01*
X117785714Y-108690476D01*
X117738095Y-108785714D01*
X117690476Y-108833333D01*
X117595238Y-108880952D01*
X117404761Y-108880952D01*
X117309523Y-108928571D01*
X117261904Y-108976190D01*
X117214285Y-109071428D01*
X117214285Y-109261904D01*
X117261904Y-109357142D01*
X117309523Y-109404761D01*
X117404761Y-109452380D01*
X117595238Y-109452380D01*
X117690476Y-109404761D01*
X117738095Y-109357142D01*
X117785714Y-109261904D01*
X117785714Y-109071428D01*
X117738095Y-108976190D01*
X117690476Y-108928571D01*
X117595238Y-108880952D01*
X104833333Y-109357142D02*
X104785714Y-109404761D01*
X104642857Y-109452380D01*
X104547619Y-109452380D01*
X104404761Y-109404761D01*
X104309523Y-109309523D01*
X104261904Y-109214285D01*
X104214285Y-109023809D01*
X104214285Y-108880952D01*
X104261904Y-108690476D01*
X104309523Y-108595238D01*
X104404761Y-108500000D01*
X104547619Y-108452380D01*
X104642857Y-108452380D01*
X104785714Y-108500000D01*
X104833333Y-108547619D01*
X105309523Y-109452380D02*
X105500000Y-109452380D01*
X105595238Y-109404761D01*
X105642857Y-109357142D01*
X105738095Y-109214285D01*
X105785714Y-109023809D01*
X105785714Y-108642857D01*
X105738095Y-108547619D01*
X105690476Y-108500000D01*
X105595238Y-108452380D01*
X105404761Y-108452380D01*
X105309523Y-108500000D01*
X105261904Y-108547619D01*
X105214285Y-108642857D01*
X105214285Y-108880952D01*
X105261904Y-108976190D01*
X105309523Y-109023809D01*
X105404761Y-109071428D01*
X105595238Y-109071428D01*
X105690476Y-109023809D01*
X105738095Y-108976190D01*
X105785714Y-108880952D01*
X100309523Y-121928571D02*
X100642857Y-121928571D01*
X100785714Y-122452380D02*
X100309523Y-122452380D01*
X100309523Y-121452380D01*
X100785714Y-121452380D01*
X101404761Y-121452380D02*
X101500000Y-121452380D01*
X101595238Y-121500000D01*
X101642857Y-121547619D01*
X101690476Y-121642857D01*
X101738095Y-121833333D01*
X101738095Y-122071428D01*
X101690476Y-122261904D01*
X101642857Y-122357142D01*
X101595238Y-122404761D01*
X101500000Y-122452380D01*
X101404761Y-122452380D01*
X101309523Y-122404761D01*
X101261904Y-122357142D01*
X101214285Y-122261904D01*
X101166666Y-122071428D01*
X101166666Y-121833333D01*
X101214285Y-121642857D01*
X101261904Y-121547619D01*
X101309523Y-121500000D01*
X101404761Y-121452380D01*
X100309523Y-109928571D02*
X100642857Y-109928571D01*
X100785714Y-110452380D02*
X100309523Y-110452380D01*
X100309523Y-109452380D01*
X100785714Y-109452380D01*
X101261904Y-110452380D02*
X101452380Y-110452380D01*
X101547619Y-110404761D01*
X101595238Y-110357142D01*
X101690476Y-110214285D01*
X101738095Y-110023809D01*
X101738095Y-109642857D01*
X101690476Y-109547619D01*
X101642857Y-109500000D01*
X101547619Y-109452380D01*
X101357142Y-109452380D01*
X101261904Y-109500000D01*
X101214285Y-109547619D01*
X101166666Y-109642857D01*
X101166666Y-109880952D01*
X101214285Y-109976190D01*
X101261904Y-110023809D01*
X101357142Y-110071428D01*
X101547619Y-110071428D01*
X101642857Y-110023809D01*
X101690476Y-109976190D01*
X101738095Y-109880952D01*
X112309523Y-109928571D02*
X112642857Y-109928571D01*
X112785714Y-110452380D02*
X112309523Y-110452380D01*
X112309523Y-109452380D01*
X112785714Y-109452380D01*
X113357142Y-109880952D02*
X113261904Y-109833333D01*
X113214285Y-109785714D01*
X113166666Y-109690476D01*
X113166666Y-109642857D01*
X113214285Y-109547619D01*
X113261904Y-109500000D01*
X113357142Y-109452380D01*
X113547619Y-109452380D01*
X113642857Y-109500000D01*
X113690476Y-109547619D01*
X113738095Y-109642857D01*
X113738095Y-109690476D01*
X113690476Y-109785714D01*
X113642857Y-109833333D01*
X113547619Y-109880952D01*
X113357142Y-109880952D01*
X113261904Y-109928571D01*
X113214285Y-109976190D01*
X113166666Y-110071428D01*
X113166666Y-110261904D01*
X113214285Y-110357142D01*
X113261904Y-110404761D01*
X113357142Y-110452380D01*
X113547619Y-110452380D01*
X113642857Y-110404761D01*
X113690476Y-110357142D01*
X113738095Y-110261904D01*
X113738095Y-110071428D01*
X113690476Y-109976190D01*
X113642857Y-109928571D01*
X113547619Y-109880952D01*
X112309523Y-121928571D02*
X112642857Y-121928571D01*
X112785714Y-122452380D02*
X112309523Y-122452380D01*
X112309523Y-121452380D01*
X112785714Y-121452380D01*
X113738095Y-122452380D02*
X113166666Y-122452380D01*
X113452380Y-122452380D02*
X113452380Y-121452380D01*
X113357142Y-121595238D01*
X113261904Y-121690476D01*
X113166666Y-121738095D01*
X124309523Y-121928571D02*
X124642857Y-121928571D01*
X124785714Y-122452380D02*
X124309523Y-122452380D01*
X124309523Y-121452380D01*
X124785714Y-121452380D01*
X125166666Y-121547619D02*
X125214285Y-121500000D01*
X125309523Y-121452380D01*
X125547619Y-121452380D01*
X125642857Y-121500000D01*
X125690476Y-121547619D01*
X125738095Y-121642857D01*
X125738095Y-121738095D01*
X125690476Y-121880952D01*
X125119047Y-122452380D01*
X125738095Y-122452380D01*
X124309523Y-109928571D02*
X124642857Y-109928571D01*
X124785714Y-110452380D02*
X124309523Y-110452380D01*
X124309523Y-109452380D01*
X124785714Y-109452380D01*
X125119047Y-109452380D02*
X125785714Y-109452380D01*
X125357142Y-110452380D01*
X136309523Y-109928571D02*
X136642857Y-109928571D01*
X136785714Y-110452380D02*
X136309523Y-110452380D01*
X136309523Y-109452380D01*
X136785714Y-109452380D01*
X137642857Y-109452380D02*
X137452380Y-109452380D01*
X137357142Y-109500000D01*
X137309523Y-109547619D01*
X137214285Y-109690476D01*
X137166666Y-109880952D01*
X137166666Y-110261904D01*
X137214285Y-110357142D01*
X137261904Y-110404761D01*
X137357142Y-110452380D01*
X137547619Y-110452380D01*
X137642857Y-110404761D01*
X137690476Y-110357142D01*
X137738095Y-110261904D01*
X137738095Y-110023809D01*
X137690476Y-109928571D01*
X137642857Y-109880952D01*
X137547619Y-109833333D01*
X137357142Y-109833333D01*
X137261904Y-109880952D01*
X137214285Y-109928571D01*
X137166666Y-110023809D01*
X136309523Y-121928571D02*
X136642857Y-121928571D01*
X136785714Y-122452380D02*
X136309523Y-122452380D01*
X136309523Y-121452380D01*
X136785714Y-121452380D01*
X137119047Y-121452380D02*
X137738095Y-121452380D01*
X137404761Y-121833333D01*
X137547619Y-121833333D01*
X137642857Y-121880952D01*
X137690476Y-121928571D01*
X137738095Y-122023809D01*
X137738095Y-122261904D01*
X137690476Y-122357142D01*
X137642857Y-122404761D01*
X137547619Y-122452380D01*
X137261904Y-122452380D01*
X137166666Y-122404761D01*
X137119047Y-122357142D01*
X148309523Y-121928571D02*
X148642857Y-121928571D01*
X148785714Y-122452380D02*
X148309523Y-122452380D01*
X148309523Y-121452380D01*
X148785714Y-121452380D01*
X149642857Y-121785714D02*
X149642857Y-122452380D01*
X149404761Y-121404761D02*
X149166666Y-122119047D01*
X149785714Y-122119047D01*
X148309523Y-109928571D02*
X148642857Y-109928571D01*
X148785714Y-110452380D02*
X148309523Y-110452380D01*
X148309523Y-109452380D01*
X148785714Y-109452380D01*
X149690476Y-109452380D02*
X149214285Y-109452380D01*
X149166666Y-109928571D01*
X149214285Y-109880952D01*
X149309523Y-109833333D01*
X149547619Y-109833333D01*
X149642857Y-109880952D01*
X149690476Y-109928571D01*
X149738095Y-110023809D01*
X149738095Y-110261904D01*
X149690476Y-110357142D01*
X149642857Y-110404761D01*
X149547619Y-110452380D01*
X149309523Y-110452380D01*
X149214285Y-110404761D01*
X149166666Y-110357142D01*
X108523809Y-110452380D02*
X108523809Y-109452380D01*
X109047619Y-110452380D02*
X109238095Y-110452380D01*
X109333333Y-110404761D01*
X109380952Y-110357142D01*
X109476190Y-110214285D01*
X109523809Y-110023809D01*
X109523809Y-109642857D01*
X109476190Y-109547619D01*
X109428571Y-109500000D01*
X109333333Y-109452380D01*
X109142857Y-109452380D01*
X109047619Y-109500000D01*
X109000000Y-109547619D01*
X108952380Y-109642857D01*
X108952380Y-109880952D01*
X109000000Y-109976190D01*
X109047619Y-110023809D01*
X109142857Y-110071428D01*
X109333333Y-110071428D01*
X109428571Y-110023809D01*
X109476190Y-109976190D01*
X109523809Y-109880952D01*
X108523809Y-122452380D02*
X108523809Y-121452380D01*
X109190476Y-121452380D02*
X109285714Y-121452380D01*
X109380952Y-121500000D01*
X109428571Y-121547619D01*
X109476190Y-121642857D01*
X109523809Y-121833333D01*
X109523809Y-122071428D01*
X109476190Y-122261904D01*
X109428571Y-122357142D01*
X109380952Y-122404761D01*
X109285714Y-122452380D01*
X109190476Y-122452380D01*
X109095238Y-122404761D01*
X109047619Y-122357142D01*
X109000000Y-122261904D01*
X108952380Y-122071428D01*
X108952380Y-121833333D01*
X109000000Y-121642857D01*
X109047619Y-121547619D01*
X109095238Y-121500000D01*
X109190476Y-121452380D01*
X120523809Y-122452380D02*
X120523809Y-121452380D01*
X121523809Y-122452380D02*
X120952380Y-122452380D01*
X121238095Y-122452380D02*
X121238095Y-121452380D01*
X121142857Y-121595238D01*
X121047619Y-121690476D01*
X120952380Y-121738095D01*
X132523809Y-122452380D02*
X132523809Y-121452380D01*
X132952380Y-121547619D02*
X133000000Y-121500000D01*
X133095238Y-121452380D01*
X133333333Y-121452380D01*
X133428571Y-121500000D01*
X133476190Y-121547619D01*
X133523809Y-121642857D01*
X133523809Y-121738095D01*
X133476190Y-121880952D01*
X132904761Y-122452380D01*
X133523809Y-122452380D01*
X144523809Y-122452380D02*
X144523809Y-121452380D01*
X144904761Y-121452380D02*
X145523809Y-121452380D01*
X145190476Y-121833333D01*
X145333333Y-121833333D01*
X145428571Y-121880952D01*
X145476190Y-121928571D01*
X145523809Y-122023809D01*
X145523809Y-122261904D01*
X145476190Y-122357142D01*
X145428571Y-122404761D01*
X145333333Y-122452380D01*
X145047619Y-122452380D01*
X144952380Y-122404761D01*
X144904761Y-122357142D01*
X156523809Y-122452380D02*
X156523809Y-121452380D01*
X157428571Y-121785714D02*
X157428571Y-122452380D01*
X157190476Y-121404761D02*
X156952380Y-122119047D01*
X157571428Y-122119047D01*
X156523809Y-110452380D02*
X156523809Y-109452380D01*
X157476190Y-109452380D02*
X157000000Y-109452380D01*
X156952380Y-109928571D01*
X157000000Y-109880952D01*
X157095238Y-109833333D01*
X157333333Y-109833333D01*
X157428571Y-109880952D01*
X157476190Y-109928571D01*
X157523809Y-110023809D01*
X157523809Y-110261904D01*
X157476190Y-110357142D01*
X157428571Y-110404761D01*
X157333333Y-110452380D01*
X157095238Y-110452380D01*
X157000000Y-110404761D01*
X156952380Y-110357142D01*
X144523809Y-110452380D02*
X144523809Y-109452380D01*
X145428571Y-109452380D02*
X145238095Y-109452380D01*
X145142857Y-109500000D01*
X145095238Y-109547619D01*
X145000000Y-109690476D01*
X144952380Y-109880952D01*
X144952380Y-110261904D01*
X145000000Y-110357142D01*
X145047619Y-110404761D01*
X145142857Y-110452380D01*
X145333333Y-110452380D01*
X145428571Y-110404761D01*
X145476190Y-110357142D01*
X145523809Y-110261904D01*
X145523809Y-110023809D01*
X145476190Y-109928571D01*
X145428571Y-109880952D01*
X145333333Y-109833333D01*
X145142857Y-109833333D01*
X145047619Y-109880952D01*
X145000000Y-109928571D01*
X144952380Y-110023809D01*
X132523809Y-110452380D02*
X132523809Y-109452380D01*
X132904761Y-109452380D02*
X133571428Y-109452380D01*
X133142857Y-110452380D01*
X120523809Y-110452380D02*
X120523809Y-109452380D01*
X121142857Y-109880952D02*
X121047619Y-109833333D01*
X121000000Y-109785714D01*
X120952380Y-109690476D01*
X120952380Y-109642857D01*
X121000000Y-109547619D01*
X121047619Y-109500000D01*
X121142857Y-109452380D01*
X121333333Y-109452380D01*
X121428571Y-109500000D01*
X121476190Y-109547619D01*
X121523809Y-109642857D01*
X121523809Y-109690476D01*
X121476190Y-109785714D01*
X121428571Y-109833333D01*
X121333333Y-109880952D01*
X121142857Y-109880952D01*
X121047619Y-109928571D01*
X121000000Y-109976190D01*
X120952380Y-110071428D01*
X120952380Y-110261904D01*
X121000000Y-110357142D01*
X121047619Y-110404761D01*
X121142857Y-110452380D01*
X121333333Y-110452380D01*
X121428571Y-110404761D01*
X121476190Y-110357142D01*
X121523809Y-110261904D01*
X121523809Y-110071428D01*
X121476190Y-109976190D01*
X121428571Y-109928571D01*
X121333333Y-109880952D01*
M02*
