G04 #@! TF.GenerationSoftware,KiCad,Pcbnew,no-vcs-found-7434~57~ubuntu16.04.1*
G04 #@! TF.CreationDate,2017-01-07T23:14:13+01:00*
G04 #@! TF.ProjectId,PickupWiring,5069636B7570576972696E672E6B6963,rev?*
G04 #@! TF.FileFunction,Other,Fab,Top*
%FSLAX46Y46*%
G04 Gerber Fmt 4.6, Leading zero omitted, Abs format (unit mm)*
G04 Created by KiCad (PCBNEW no-vcs-found-7434~57~ubuntu16.04.1) date Sat Jan  7 23:14:13 2017*
%MOMM*%
%LPD*%
G01*
G04 APERTURE LIST*
%ADD10C,0.050000*%
%ADD11C,0.150000*%
G04 APERTURE END LIST*
D10*
D11*
X127428571Y-116452380D02*
X126857142Y-116452380D01*
X127142857Y-116452380D02*
X127142857Y-115452380D01*
X127047619Y-115595238D01*
X126952380Y-115690476D01*
X126857142Y-115738095D01*
X128047619Y-115452380D02*
X128142857Y-115452380D01*
X128238095Y-115500000D01*
X128285714Y-115547619D01*
X128333333Y-115642857D01*
X128380952Y-115833333D01*
X128380952Y-116071428D01*
X128333333Y-116261904D01*
X128285714Y-116357142D01*
X128238095Y-116404761D01*
X128142857Y-116452380D01*
X128047619Y-116452380D01*
X127952380Y-116404761D01*
X127904761Y-116357142D01*
X127857142Y-116261904D01*
X127809523Y-116071428D01*
X127809523Y-115833333D01*
X127857142Y-115642857D01*
X127904761Y-115547619D01*
X127952380Y-115500000D01*
X128047619Y-115452380D01*
X128809523Y-116452380D02*
X128809523Y-115452380D01*
X129190476Y-115452380D01*
X129285714Y-115500000D01*
X129333333Y-115547619D01*
X129380952Y-115642857D01*
X129380952Y-115785714D01*
X129333333Y-115880952D01*
X129285714Y-115928571D01*
X129190476Y-115976190D01*
X128809523Y-115976190D01*
X129809523Y-116452380D02*
X129809523Y-115452380D01*
X130047619Y-115452380D01*
X130190476Y-115500000D01*
X130285714Y-115595238D01*
X130333333Y-115690476D01*
X130380952Y-115880952D01*
X130380952Y-116023809D01*
X130333333Y-116214285D01*
X130285714Y-116309523D01*
X130190476Y-116404761D01*
X130047619Y-116452380D01*
X129809523Y-116452380D01*
X130666666Y-115452380D02*
X131238095Y-115452380D01*
X130952380Y-116452380D02*
X130952380Y-115452380D01*
M02*
