M48
INCH,TZ
T10C0.039
%
T10
X039764Y-44488
X039764Y-46850
X041339Y-44488
X041339Y-46850
X042913Y-44488
X042913Y-46850
X044488Y-44488
X044488Y-46850
X046063Y-44488
X046063Y-46850
X047638Y-44488
X047638Y-46850
X049213Y-44488
X049213Y-46850
X050787Y-44488
X050787Y-46850
X052362Y-44488
X052362Y-46850
X053937Y-44488
X053937Y-46850
X055512Y-44488
X055512Y-46850
X057087Y-44488
X057087Y-46850
X058661Y-44488
X058661Y-46850
X060236Y-44488
X060236Y-46850
X061811Y-44488
X061811Y-46850
M30

