<?xml version="1.0" encoding="UTF-8" standalone="no"?>
<!-- Created with Inkscape (http://www.inkscape.org/) -->

<svg
   xmlns:dc="http://purl.org/dc/elements/1.1/"
   xmlns:cc="http://creativecommons.org/ns#"
   xmlns:rdf="http://www.w3.org/1999/02/22-rdf-syntax-ns#"
   xmlns:svg="http://www.w3.org/2000/svg"
   xmlns="http://www.w3.org/2000/svg"
   xmlns:sodipodi="http://sodipodi.sourceforge.net/DTD/sodipodi-0.dtd"
   xmlns:inkscape="http://www.inkscape.org/namespaces/inkscape"
   id="svg3355"
   version="1.1"
   inkscape:version="0.91 r13725"
   xml:space="preserve"
   width="151.25"
   height="56.25"
   viewBox="0 0 151.25 56.25"
   sodipodi:docname="Aux_Vibrato_Tremolo_2xPBs_PCB1_2919330_etch_copper_top.svg"><metadata
     id="metadata3361"><rdf:RDF><cc:Work
         rdf:about=""><dc:format>image/svg+xml</dc:format><dc:type
           rdf:resource="http://purl.org/dc/dcmitype/StillImage" /><dc:title></dc:title></cc:Work></rdf:RDF></metadata><defs
     id="defs3359" /><sodipodi:namedview
     pagecolor="#ffffff"
     bordercolor="#666666"
     borderopacity="1"
     objecttolerance="10"
     gridtolerance="10"
     guidetolerance="10"
     inkscape:pageopacity="0"
     inkscape:pageshadow="2"
     inkscape:window-width="1895"
     inkscape:window-height="1056"
     id="namedview3357"
     showgrid="false"
     inkscape:zoom="22.627417"
     inkscape:cx="38.102909"
     inkscape:cy="24.241099"
     inkscape:window-x="0"
     inkscape:window-y="0"
     inkscape:window-maximized="1"
     inkscape:current-layer="g3363" /><g
     id="g3363"
     inkscape:groupmode="layer"
     inkscape:label="Aux_Vibrato_Tremolo_2xPBs_PCB1_2919330_etch_copper_top"
     transform="matrix(1.25,0,0,-1.25,0,56.25)"><g
       id="g3365"
       transform="matrix(0.06,0,0,-0.06,10.02,34.98)"><g
         id="g3367"><g
           id="g3369" /></g><g
         id="g3371"><g
           id="g3373" /><g
           id="g3375" /><g
           id="g3377"
           transform="scale(0.9999979,0.99999925)"><path
             d="m 4.8,4.8 1676.55,0 0,411.58 -1676.55,0 0,-411.58 z"
             style="fill:none;stroke:#000000;stroke-width:0.5;stroke-linecap:butt;stroke-linejoin:miter;stroke-miterlimit:10;stroke-dasharray:none;stroke-opacity:1"
             id="path3379"
             inkscape:connector-curvature="0" /></g><g
           id="g3381"><path
             d="m 995.99791,47.999964 0,26.39998 2.39999,0 0,4.799997 2.4,0 0,4.799996 2.4,0 0,9.599993 2.4,0 0,14.39999 -2.4,0 0,7.19999 -2.4,0 0,7.2 -2.4,0 0,2.4 -2.39999,0 0,4.79999 -2.4,0 0,2.4 -2.39999,0 0,4.8 -2.4,0 0,2.39999 -2.39999,0 0,2.4 -4.79999,0 0,2.4 -2.4,0 0,2.4 -2.39999,0 0,2.4 -4.79999,0 0,2.4 -4.79999,0 0,2.39999 -4.79999,0 0,2.4 278.39942,0 0,-2.4 -4.8,0 0,-2.39999 -4.8,0 0,-2.4 -4.8,0 0,-2.4 -2.4,0 0,-2.4 -4.8,0 0,-2.4 -2.4,0 0,-2.4 -2.4,0 0,-2.39999 -2.3999,0 0,-4.8 -2.4,0 0,-2.4 -2.4,0 0,-4.79999 -2.4,0 0,-2.4 -2.4,0 0,-7.2 -2.4,0 0,-7.19999 -2.4,0 0,-14.39999 2.4,0 0,-9.599993 2.4,0 0,-4.799996 2.4,0 0,-4.799997 2.4,0 0,-26.39998 -211.19959,0 z"
             style="fill:#000000;fill-opacity:1;fill-rule:nonzero;stroke:none"
             id="path3383"
             inkscape:connector-curvature="0" /><path
             d="m 1303.1973,47.999964 0,26.39998 2.4,0 0,4.799997 2.4,0 0,4.799996 2.3999,0 0,9.599993 2.4,0 0,11.99999 -2.4,0 0,9.59999 -2.3999,0 0,7.2 -2.4,0 0,2.4 -2.4,0 0,4.79999 -2.4,0 0,2.4 -2.4,0 0,2.4 -2.4,0 0,4.79999 -2.4,0 0,2.4 -4.8,0 0,2.4 290.3994,0 0,2.4 9.6,0 0,2.4 7.1999,0 0,2.4 4.8,0 0,2.39999 2.4,0 0,2.4 4.8,0 0,2.4 2.4,0 0,2.4 2.4,0 0,2.4 24,0 0,-115.199916 -333.5993,0 z"
             style="fill:#000000;fill-opacity:1;fill-rule:nonzero;stroke:none"
             id="path3385"
             inkscape:connector-curvature="0" /><path
             d="m 1286.3973,143.99989 0,2.4 -2.4,0 0,2.4 -4.8,0 0,2.4 -4.8,0 0,2.39999 -4.8,0 0,2.4 268.7995,0 0,-2.4 4.8,0 0,-2.39999 4.7999,0 0,-2.4 4.8,0 0,-2.4 12,0 0,-2.4 -278.3994,0 z"
             style="fill:#000000;fill-opacity:1;fill-rule:nonzero;stroke:none"
             id="path3387"
             inkscape:connector-curvature="0" /><path
             d="m 933.59804,155.99988 0,2.4 602.39876,0 0,-2.4 -602.39876,0 z"
             style="fill:#000000;fill-opacity:1;fill-rule:nonzero;stroke:none"
             id="path3389"
             inkscape:connector-curvature="0" /><path
             d="m 933.59804,155.99988 0,2.4 602.39876,0 0,-2.4 -602.39876,0 z"
             style="fill:#000000;fill-opacity:1;fill-rule:nonzero;stroke:none"
             id="path3391"
             inkscape:connector-curvature="0" /><path
             d="m 931.19804,158.39988 0,2.4 -2.39999,0 0,2.4 -2.4,0 0,2.4 -2.39999,0 0,2.39999 -2.4,0 0,2.4 -2.39999,0 0,4.8 -2.4,0 0,2.4 -2.39999,0 0,2.39999 -2.4,0 0,2.4 -2.39999,0 0,2.4 -2.4,0 0,2.4 -2.39999,0 0,2.4 -2.4,0 0,4.79999 -2.39999,0 0,2.4 -2.4,0 0,2.4 -2.39999,0 0,2.4 -2.4,0 0,2.4 -2.39999,0 0,2.39999 -2.4,0 0,2.4 -2.39999,0 0,2.4 -2.4,0 0,4.8 -2.39999,0 0,2.4 -2.4,0 0,2.39999 -2.39999,0 0,2.4 -2.4,0 0,2.4 -2.39999,0 0,2.4 -2.4,0 0,2.4 -4.79999,0 0,2.39999 -7.19998,0 0,2.4 -112.79976,0 0,21.59999 525.59886,0 0,2.4 4.8,0 0,2.39999 4.8,0 0,2.4 4.8,0 0,2.4 2.4,0 0,2.4 2.4,0 0,2.4 4.8,0 0,2.39999 273.5994,0 0,-2.39999 -12,0 0,-2.4 -7.2,0 0,-2.4 -4.7999,0 0,-2.4 -4.8,0 0,-2.4 -2.4,0 0,-2.39999 -2.4,0 0,-2.4 -4.8,0 0,-2.4 -2.4,0 0,-2.4 -2.4,0 0,-4.8 -2.4,0 0,-2.39999 -2.4,0 0,-2.4 -2.4,0 0,-4.8 -2.4,0 0,-4.8 -2.4,0 0,-4.79999 -2.4,0 0,-9.59999 -2.4,0 0,-19.19999 2.4,0 0,-9.59999 2.4,0 0,-4.8 2.4,0 0,-4.8 2.4,0 0,-4.79999 2.4,0 0,-2.4 2.4,0 0,-4.8 2.4,0 0,-2.39999 2.4,0 0,-2.4 2.4,0 0,-2.4 4.8,0 0,-2.4 -602.39876,0 z"
             style="fill:#000000;fill-opacity:1;fill-rule:nonzero;stroke:none"
             id="path3393"
             inkscape:connector-curvature="0" /><path
             d="m 1612.7966,254.39981 0,2.4 -2.4,0 0,2.4 -2.4,0 0,2.39999 -4.8,0 0,2.4 -2.4,0 0,2.4 -4.8,0 0,2.4 -7.1999,0 0,2.4 -12,0 0,2.39999 59.9999,0 0,-19.19998 -24,0 z"
             style="fill:#000000;fill-opacity:1;fill-rule:nonzero;stroke:none"
             id="path3395"
             inkscape:connector-curvature="0" /><path
             d="m 743.99844,256.79981 0,2.4 7.19998,0 0,2.39999 4.79999,0 0,2.4 2.4,0 0,2.4 4.79999,0 0,2.4 2.39999,0 0,2.4 2.4,0 0,2.39999 2.39999,0 0,2.4 2.4,0 0,2.4 2.39999,0 0,2.4 2.4,0 0,4.8 2.39999,0 0,4.79999 2.4,0 0,4.8 2.39999,0 0,4.79999 2.4,0 0,23.99999 -2.4,0 0,7.19999 -2.39999,0 0,4.8 -2.4,0 0,4.79999 -2.39999,0 0,2.4 -2.4,0 0,2.4 -2.39999,0 0,26.39998 134.39971,0 0,-23.99998 -2.39999,0 0,-2.4 -2.4,0 0,-2.4 -2.39999,0 0,-4.79999 -2.4,0 0,-4.8 -2.39999,0 0,-4.8 -2.4,0 0,-9.59999 -2.39999,0 0,-11.99999 2.39999,0 0,-9.59999 2.4,0 0,-7.2 2.39999,0 0,-2.4 2.4,0 0,-4.79999 2.39999,0 0,-2.4 2.4,0 0,-4.8 2.39999,0 0,-2.4 2.4,0 0,-2.39999 4.79999,0 0,-2.4 2.39999,0 0,-2.4 2.4,0 0,-2.4 4.79999,0 0,-2.4 4.79999,0 0,-2.39999 4.79999,0 0,-2.4 -189.5996,0 z"
             style="fill:#000000;fill-opacity:1;fill-rule:nonzero;stroke:none"
             id="path3397"
             inkscape:connector-curvature="0" /><path
             d="m 962.39798,256.79981 0,2.4 4.79999,0 0,2.39999 4.79999,0 0,2.4 4.79999,0 0,2.4 2.39999,0 0,2.4 4.79999,0 0,2.4 2.4,0 0,2.39999 2.39999,0 0,2.4 2.4,0 0,4.8 2.39999,0 0,2.4 2.4,0 0,4.79999 2.39999,0 0,2.4 2.4,0 0,7.2 2.4,0 0,7.19999 2.4,0 0,14.39999 -2.4,0 0,9.59999 -2.4,0 0,4.8 -2.4,0 0,4.8 -2.39999,0 0,4.79999 -2.4,0 0,2.4 -2.39999,0 0,2.4 -2.4,0 0,23.99998 225.59948,0 0,-23.99998 -2.3999,0 0,-2.4 -2.4,0 0,-2.4 -2.4,0 0,-4.79999 -2.4,0 0,-4.8 -2.4,0 0,-4.8 -2.4,0 0,-9.59999 -2.4,0 0,-14.39999 2.4,0 0,-7.19999 2.4,0 0,-7.2 2.4,0 0,-2.4 2.4,0 0,-4.79999 2.4,0 0,-2.4 2.4,0 0,-4.8 2.3999,0 0,-2.4 2.4,0 0,-2.39999 2.4,0 0,-2.4 4.8,0 0,-2.4 2.4,0 0,-2.4 4.8,0 0,-2.4 4.8,0 0,-2.39999 4.8,0 0,-2.4 -278.39942,0 z"
             style="fill:#000000;fill-opacity:1;fill-rule:nonzero;stroke:none"
             id="path3399"
             inkscape:connector-curvature="0" /><path
             d="m 1295.9973,273.59979 0,2.4 340.7993,0 0,-2.4 -340.7993,0 z"
             style="fill:#000000;fill-opacity:1;fill-rule:nonzero;stroke:none"
             id="path3401"
             inkscape:connector-curvature="0" /><path
             d="m 1295.9973,273.59979 0,2.4 340.7993,0 0,-2.4 -340.7993,0 z"
             style="fill:#000000;fill-opacity:1;fill-rule:nonzero;stroke:none"
             id="path3403"
             inkscape:connector-curvature="0" /><path
             d="m 1298.3973,275.99979 0,4.8 2.4,0 0,2.4 2.4,0 0,4.79999 2.4,0 0,2.4 2.4,0 0,7.2 2.3999,0 0,9.59999 2.4,0 0,11.99999 -2.4,0 0,9.59999 -2.3999,0 0,4.8 -2.4,0 0,4.8 -2.4,0 0,4.79999 -2.4,0 0,2.4 -2.4,0 0,2.4 -2.4,0 0,23.99998 340.7993,0 0,-95.99993 -338.3993,0 z"
             style="fill:#000000;fill-opacity:1;fill-rule:nonzero;stroke:none"
             id="path3405"
             inkscape:connector-curvature="0" /><path
             d="m 1359.3971,215.94984 c 0,24.85279 -20.1471,44.99996 -44.9999,44.99996 -24.8527,0 -44.9999,-20.14717 -44.9999,-44.99996 0,-24.8528 20.1472,-44.99997 44.9999,-44.99997 24.8528,0 44.9999,20.14717 44.9999,44.99997 z"
             style="fill:#000000;fill-opacity:1;fill-rule:evenodd;stroke:none"
             id="path3407"
             inkscape:connector-curvature="0" /></g><g
           id="g3409"><path
             d="m 436.79908,235.19982 0,23.99999 7.19999,0 0,2.39999 4.79999,0 0,2.4 2.39999,0 0,2.4 4.79999,0 0,2.4 2.4,0 0,2.4 2.39999,0 0,2.39999 2.4,0 0,2.4 2.39999,0 0,2.4 2.4,0 0,2.4 2.39999,0 0,4.8 2.4,0 0,2.39999 2.39999,0 0,4.8 2.4,0 0,7.19999 2.39999,0 0,23.99999 -2.39999,0 0,7.19999 -2.4,0 0,4.8 -2.39999,0 0,4.79999 -2.4,0 0,2.4 -2.39999,0 0,4.8 -2.4,0 0,23.99998 223.19953,0 0,-23.99998 -2.39999,0 0,-4.8 -2.4,0 0,-2.4 -2.39999,0 0,-4.79999 -2.4,0 0,-4.8 -2.39999,0 0,-7.19999 -2.4,0 0,-23.99999 2.4,0 0,-7.19999 2.39999,0 0,-4.8 2.4,0 0,-2.39999 2.39999,0 0,-4.8 2.4,0 0,-2.4 2.39999,0 0,-2.4 2.4,0 0,-2.4 2.39999,0 0,-2.39999 2.4,0 0,-2.4 2.39999,0 0,-2.4 4.79999,0 0,-2.4 2.4,0 0,-2.4 4.79999,0 0,-2.39999 7.19998,0 0,-23.99999 -280.79941,0 z"
             style="fill:#000000;fill-opacity:1;fill-rule:nonzero;stroke:none"
             id="path3411"
             inkscape:connector-curvature="0" /><path
             d="m 594.54875,299.94977 c 0,24.8528 -20.14714,44.99997 -44.9999,44.99997 -24.85277,0 -44.99991,-20.14717 -44.99991,-44.99997 0,-24.85279 20.14714,-44.99996 44.99991,-44.99996 24.85276,0 44.9999,20.14717 44.9999,44.99996 z"
             style="fill:#000000;fill-opacity:1;fill-rule:evenodd;stroke:none"
             id="path3413"
             inkscape:connector-curvature="0" /></g><g
           id="g3415"><path
             d="m 297.59937,237.59982 0,4.8 -2.39999,0 0,2.4 -2.4,0 0,2.39999 -2.39999,0 0,4.8 -4.79999,0 0,2.4 -2.4,0 0,2.4 -2.39999,0 0,2.4 -2.4,0 0,23.99998 4.79999,0 0,2.4 2.4,0 0,2.39999 2.39999,0 0,2.4 2.4,0 0,2.4 2.39999,0 0,2.4 2.4,0 0,4.79999 2.39999,0 0,2.4 2.4,0 0,4.8 2.39999,0 0,4.8 2.4,0 0,7.19999 2.39999,0 0,23.99998 -2.39999,0 0,4.8 -2.4,0 0,23.99998 79.19984,0 0,-23.99998 -2.4,0 0,-4.8 -2.39999,0 0,-2.4 -2.4,0 0,-4.79999 -2.39999,0 0,-4.8 -2.4,0 0,-7.19999 -2.39999,0 0,-23.99999 2.39999,0 0,-7.19999 2.4,0 0,-4.8 2.39999,0 0,-2.39999 2.4,0 0,-4.8 2.39999,0 0,-2.4 2.4,0 0,-2.4 2.39999,0 0,-2.4 2.4,0 0,-2.39999 2.39999,0 0,-2.4 2.4,0 0,-2.4 4.79999,0 0,-2.4 2.39999,0 0,-2.4 4.79999,0 0,-2.39999 7.19999,0 0,-21.59999 -112.79977,0 z"
             style="fill:#000000;fill-opacity:1;fill-rule:nonzero;stroke:none"
             id="path3417"
             inkscape:connector-curvature="0" /></g><g
           id="g3419"><path
             d="m 170.39964,225.59983 0,2.4 -2.39999,0 0,7.19999 -2.4,0 0,4.8 -2.39999,0 0,4.8 -2.4,0 0,4.79999 -2.39999,0 0,2.4 -2.4,0 0,2.4 -2.39999,0 0,2.4 -2.4,0 0,2.4 -2.39999,0 0,2.39999 -2.4,0 0,2.4 -2.39999,0 0,2.4 -4.79999,0 0,2.4 -4.79999,0 0,2.4 -4.79999,0 0,2.39999 -4.79999,0 0,2.4 -14.39997,0 0,2.4 107.99977,0 0,-19.19998 -2.39999,0 0,-2.4 -2.4,0 0,-2.4 -2.39999,0 0,-2.4 -2.4,0 0,-2.4 -2.39999,0 0,-2.4 -2.4,0 0,-2.39999 -2.39999,0 0,-4.8 -2.4,0 0,-2.4 -2.39999,0 0,-4.8 -2.4,0 0,-7.19999 -23.99995,0 z"
             style="fill:#000000;fill-opacity:1;fill-rule:nonzero;stroke:none"
             id="path3421"
             inkscape:connector-curvature="0" /><path
             d="m 47.999899,263.9998 0,14.39999 55.199881,0 0,-2.4 -11.999972,0 0,-2.4 -7.199985,0 0,-2.39999 -4.79999,0 0,-2.4 -4.799989,0 0,-2.4 -2.399995,0 0,-2.4 -23.99995,0 z"
             style="fill:#000000;fill-opacity:1;fill-rule:nonzero;stroke:none"
             id="path3423"
             inkscape:connector-curvature="0" /><path
             d="m 47.999899,278.39979 0,2.4 170.399641,0 0,-2.4 -170.399641,0 z"
             style="fill:#000000;fill-opacity:1;fill-rule:nonzero;stroke:none"
             id="path3425"
             inkscape:connector-curvature="0" /><path
             d="m 47.999899,278.39979 0,2.4 170.399641,0 0,-2.4 -170.399641,0 z"
             style="fill:#000000;fill-opacity:1;fill-rule:nonzero;stroke:none"
             id="path3427"
             inkscape:connector-curvature="0" /><path
             d="m 47.999899,280.79979 0,91.19993 146.399691,0 0,-26.39998 -2.39999,0 0,-7.19999 -2.4,0 0,-16.79999 2.4,0 0,-7.2 2.39999,0 0,-7.19999 2.4,0 0,-2.4 2.39999,0 0,-4.8 2.4,0 0,-2.39999 2.39999,0 0,-2.4 2.4,0 0,-4.8 2.39999,0 0,-2.4 4.79999,0 0,-2.39999 2.4,0 0,-2.4 2.39999,0 0,-2.4 -170.399641,0 z"
             style="fill:#000000;fill-opacity:1;fill-rule:nonzero;stroke:none"
             id="path3429"
             inkscape:connector-curvature="0" /></g><g
           id="g3431"><path
             d="m 395.99917,328.79975 51.59989,0 0,40.79997 -51.59989,0 0,-40.79997 z"
             style="fill:#000000;fill-opacity:1;fill-rule:nonzero;stroke:none"
             id="path3433"
             inkscape:connector-curvature="0" /></g><g
           id="g3435"><path
             d="m 441.59907,283.19979 38.39992,0 0,51.59996 -38.39992,0 0,-51.59996 z"
             style="fill:#000000;fill-opacity:1;fill-rule:nonzero;stroke:none"
             id="path3437"
             inkscape:connector-curvature="0" /></g><g
           id="g3439"><path
             d="m 703.19852,328.79975 51.59989,0 0,40.79997 -51.59989,0 0,-40.79997 z"
             style="fill:#000000;fill-opacity:1;fill-rule:nonzero;stroke:none"
             id="path3441"
             inkscape:connector-curvature="0" /></g><g
           id="g3443"><path
             d="m 669.59859,283.19979 38.39992,0 0,51.59996 -38.39992,0 0,-51.59996 z"
             style="fill:#000000;fill-opacity:1;fill-rule:nonzero;stroke:none"
             id="path3445"
             inkscape:connector-curvature="0" /></g><g
           id="g3447"><path
             d="m 219.59954,350.39974 53.99988,0 0,31.19997 -53.99988,0 0,-31.19997 z"
             style="fill:#000000;fill-opacity:1;fill-rule:nonzero;stroke:none"
             id="path3449"
             inkscape:connector-curvature="0" /></g><g
           id="g3451"><path
             d="m 184.79961,301.19977 38.39992,0 0,53.99996 -38.39992,0 0,-53.99996 z"
             style="fill:#000000;fill-opacity:1;fill-rule:nonzero;stroke:none"
             id="path3453"
             inkscape:connector-curvature="0" /></g><g
           id="g3455"><path
             d="m 919.19807,328.79975 51.59989,0 0,40.79997 -51.59989,0 0,-40.79997 z"
             style="fill:#000000;fill-opacity:1;fill-rule:nonzero;stroke:none"
             id="path3457"
             inkscape:connector-curvature="0" /></g><g
           id="g3459"><path
             d="m 964.79797,283.19979 40.79993,0 0,51.59996 -40.79993,0 0,-51.59996 z"
             style="fill:#000000;fill-opacity:1;fill-rule:nonzero;stroke:none"
             id="path3461"
             inkscape:connector-curvature="0" /></g><g
           id="g3463"><path
             d="m 1226.3974,251.99981 51.5999,0 0,35.99997 -51.5999,0 0,-35.99997 z"
             style="fill:#000000;fill-opacity:1;fill-rule:nonzero;stroke:none"
             id="path3465"
             inkscape:connector-curvature="0" /></g><g
           id="g3467"><path
             d="m 1226.3974,328.79975 51.5999,0 0,40.79997 -51.5999,0 0,-40.79997 z"
             style="fill:#000000;fill-opacity:1;fill-rule:nonzero;stroke:none"
             id="path3469"
             inkscape:connector-curvature="0" /></g><g
           id="g3471"><path
             d="m 1192.7975,283.19979 38.3999,0 0,51.59996 -38.3999,0 0,-51.59996 z"
             style="fill:#000000;fill-opacity:1;fill-rule:nonzero;stroke:none"
             id="path3473"
             inkscape:connector-curvature="0" /></g><g
           id="g3475"><path
             d="m 1271.9973,283.19979 40.7999,0 0,51.59996 -40.7999,0 0,-51.59996 z"
             style="fill:#000000;fill-opacity:1;fill-rule:nonzero;stroke:none"
             id="path3477"
             inkscape:connector-curvature="0" /></g><g
           id="g3479" /><g
           id="g3481"
           transform="matrix(-0.9999979,0,0,-0.99999925,332.8393,414.63969)"><path
             d="m 118.8,84 c 0,19.21951 -15.58049,34.8 -34.8,34.8 -19.219509,0 -34.8,-15.58049 -34.8,-34.8 0,-19.219509 15.580491,-34.8 34.8,-34.8 19.21951,0 34.8,15.580491 34.8,34.8 z"
             style="fill:none;stroke:#000000;stroke-width:24;stroke-linecap:butt;stroke-linejoin:miter;stroke-miterlimit:10;stroke-dasharray:none;stroke-opacity:1"
             id="path3483"
             inkscape:connector-curvature="0" /></g><g
           id="g3485" /><g
           id="g3487"
           transform="matrix(-0.9999979,0,0,-0.99999925,332.8393,414.63969)"><path
             d="m 118.8,204 c 0,19.21951 -15.58049,34.8 -34.8,34.8 -19.219509,0 -34.8,-15.58049 -34.8,-34.8 0,-19.21951 15.580491,-34.8 34.8,-34.8 19.21951,0 34.8,15.58049 34.8,34.8 z"
             style="fill:none;stroke:#000000;stroke-width:24;stroke-linecap:butt;stroke-linejoin:miter;stroke-miterlimit:10;stroke-dasharray:none;stroke-opacity:1"
             id="path3489"
             inkscape:connector-curvature="0" /></g><g
           id="g3491" /><g
           id="g3493"
           transform="matrix(-0.9999979,0,0,-0.99999925,332.8393,414.63969)"><path
             d="m 118.8,324 c 0,19.21951 -15.58049,34.8 -34.8,34.8 -19.219509,0 -34.8,-15.58049 -34.8,-34.8 0,-19.21951 15.580491,-34.8 34.8,-34.8 19.21951,0 34.8,15.58049 34.8,34.8 z"
             style="fill:none;stroke:#000000;stroke-width:24;stroke-linecap:butt;stroke-linejoin:miter;stroke-miterlimit:10;stroke-dasharray:none;stroke-opacity:1"
             id="path3495"
             inkscape:connector-curvature="0" /></g><g
           id="g3497"><path
             d="m 159.07566,213.47404 c 0,28.70139 -23.26704,51.96846 -51.96839,51.96846 -28.701345,0 -51.968386,-23.26707 -51.968386,-51.96846 0,-28.70139 23.267041,-51.96846 51.968386,-51.96846 28.70135,0 51.96839,23.26707 51.96839,51.96846 z"
             style="fill:#000000;fill-opacity:1;fill-rule:evenodd;stroke:none"
             id="path3499"
             inkscape:connector-curvature="0" /></g><g
           id="g3501"><path
             d="m 1623.6403,208.75004 c 0,28.70139 -23.2671,51.96846 -51.9684,51.96846 -28.7014,0 -51.9684,-23.26707 -51.9684,-51.96846 0,-28.70139 23.267,-51.96846 51.9684,-51.96846 28.7013,0 51.9684,23.26707 51.9684,51.96846 z"
             style="fill:#000000;fill-opacity:1;fill-rule:evenodd;stroke:none"
             id="path3503"
             inkscape:connector-curvature="0" /></g><g
           id="g3505" /><g
           id="g3507"
           transform="matrix(0.9999979,0,0,0.99999925,907.70109,52.652761)"><path
             d="m 380.436,260.04 c 0,18.2254 -14.7746,33 -33,33 -18.2254,0 -33,-14.7746 -33,-33 0,-18.2254 14.7746,-33 33,-33 18.2254,0 33,14.7746 33,33 z"
             style="fill:none;stroke:#000000;stroke-width:24;stroke-linecap:butt;stroke-linejoin:miter;stroke-miterlimit:10;stroke-dasharray:none;stroke-opacity:1"
             id="path3509"
             inkscape:connector-curvature="0" /></g><g
           id="g3511" /><g
           id="g3513"
           transform="matrix(0.9999979,0,0,0.99999925,907.70109,52.652761)"><path
             d="m 73.344,260.04 c 0,18.2254 -14.774603,33 -33,33 -18.225397,0 -33,-14.7746 -33,-33 0,-18.2254 14.774603,-33 33,-33 18.225397,0 33,14.7746 33,33 z"
             style="fill:none;stroke:#000000;stroke-width:24;stroke-linecap:butt;stroke-linejoin:miter;stroke-miterlimit:10;stroke-dasharray:none;stroke-opacity:1"
             id="path3515"
             inkscape:connector-curvature="0" /></g><g
           id="g3517" /><g
           id="g3519"
           transform="matrix(0.9999979,0,0,0.99999925,907.70109,52.652761)"><path
             d="m 380.436,47.436 c 0,18.225397 -14.7746,33 -33,33 -18.2254,0 -33,-14.774603 -33,-33 0,-18.225397 14.7746,-33 33,-33 18.2254,0 33,14.774603 33,33 z"
             style="fill:none;stroke:#000000;stroke-width:24;stroke-linecap:butt;stroke-linejoin:miter;stroke-miterlimit:10;stroke-dasharray:none;stroke-opacity:1"
             id="path3521"
             inkscape:connector-curvature="0" /></g><g
           id="g3523" /><g
           id="g3525"
           transform="matrix(0.9999979,0,0,0.99999925,907.70109,52.652761)"><path
             d="m 73.344,47.436 c 0,18.225397 -14.774603,33 -33,33 -18.225397,0 -33,-14.774603 -33,-33 0,-18.225397 14.774603,-33 33,-33 18.225397,0 33,14.774603 33,33 z"
             style="fill:none;stroke:#000000;stroke-width:24;stroke-linecap:butt;stroke-linejoin:miter;stroke-miterlimit:10;stroke-dasharray:none;stroke-opacity:1"
             id="path3527"
             inkscape:connector-curvature="0" /></g><g
           id="g3529" /><g
           id="g3531"
           transform="matrix(0.9999979,0,0,0.99999925,383.29319,52.652761)"><path
             d="m 380.436,260.04 c 0,18.2254 -14.7746,33 -33,33 -18.2254,0 -33,-14.7746 -33,-33 0,-18.2254 14.7746,-33 33,-33 18.2254,0 33,14.7746 33,33 z"
             style="fill:none;stroke:#000000;stroke-width:24;stroke-linecap:butt;stroke-linejoin:miter;stroke-miterlimit:10;stroke-dasharray:none;stroke-opacity:1"
             id="path3533"
             inkscape:connector-curvature="0" /></g><g
           id="g3535" /><g
           id="g3537"
           transform="matrix(0.9999979,0,0,0.99999925,383.29319,52.652761)"><path
             d="m 73.344,260.04 c 0,18.2254 -14.774603,33 -33,33 -18.225397,0 -33,-14.7746 -33,-33 0,-18.2254 14.774603,-33 33,-33 18.225397,0 33,14.7746 33,33 z"
             style="fill:none;stroke:#000000;stroke-width:24;stroke-linecap:butt;stroke-linejoin:miter;stroke-miterlimit:10;stroke-dasharray:none;stroke-opacity:1"
             id="path3539"
             inkscape:connector-curvature="0" /></g><g
           id="g3541" /><g
           id="g3543"
           transform="matrix(0.9999979,0,0,0.99999925,383.29319,52.652761)"><path
             d="m 380.436,47.436 c 0,18.225397 -14.7746,33 -33,33 -18.2254,0 -33,-14.774603 -33,-33 0,-18.225397 14.7746,-33 33,-33 18.2254,0 33,14.774603 33,33 z"
             style="fill:none;stroke:#000000;stroke-width:24;stroke-linecap:butt;stroke-linejoin:miter;stroke-miterlimit:10;stroke-dasharray:none;stroke-opacity:1"
             id="path3545"
             inkscape:connector-curvature="0" /></g><g
           id="g3547" /><g
           id="g3549"
           transform="matrix(0.9999979,0,0,0.99999925,383.29319,52.652761)"><path
             d="m 73.344,47.436 c 0,18.225397 -14.774603,33 -33,33 -18.225397,0 -33,-14.774603 -33,-33 0,-18.225397 14.774603,-33 33,-33 18.225397,0 33,14.774603 33,33 z"
             style="fill:none;stroke:#000000;stroke-width:24;stroke-linecap:butt;stroke-linejoin:miter;stroke-miterlimit:10;stroke-dasharray:none;stroke-opacity:1"
             id="path3551"
             inkscape:connector-curvature="0" /></g><g
           id="g3553"
           transform="scale(0.9999979,0.99999925)"><path
             d="M 389.354,98.2356 284.921,92.5904"
             style="fill:none;stroke:#000000;stroke-width:28.79999924;stroke-linecap:round;stroke-linejoin:miter;stroke-miterlimit:10;stroke-dasharray:none;stroke-opacity:1"
             id="path3555"
             inkscape:connector-curvature="0" /><path
             d="m 852.943,208.118 -567.97,2.371"
             style="fill:none;stroke:#000000;stroke-width:28.79999924;stroke-linecap:round;stroke-linejoin:miter;stroke-miterlimit:10;stroke-dasharray:none;stroke-opacity:1"
             id="path3557"
             inkscape:connector-curvature="0" /><path
             d="m 925.36,125.859 -72.417,82.259"
             style="fill:none;stroke:#000000;stroke-width:28.79999924;stroke-linecap:round;stroke-linejoin:miter;stroke-miterlimit:10;stroke-dasharray:none;stroke-opacity:1"
             id="path3559"
             inkscape:connector-curvature="0" /><path
             d="m 389.484,316.2 -104.7,10.749"
             style="fill:none;stroke:#000000;stroke-width:28.79999924;stroke-linecap:round;stroke-linejoin:miter;stroke-miterlimit:10;stroke-dasharray:none;stroke-opacity:1"
             id="path3561"
             inkscape:connector-curvature="0" /><path
             d="m 913.714,312.693 -148.651,0"
             style="fill:none;stroke:#000000;stroke-width:28.79999924;stroke-linecap:round;stroke-linejoin:miter;stroke-miterlimit:10;stroke-dasharray:none;stroke-opacity:1"
             id="path3563"
             inkscape:connector-curvature="0" /></g><g
           id="g3565" /></g></g><path
       style="fill:#000000;fill-opacity:1;stroke:#000000;stroke-width:0.08742774;stroke-opacity:1"
       d="m 29.026012,40.577251 c 0,-0.456302 -0.02622,-0.516958 -0.415282,-0.960602 l -0.415282,-0.473546 -0.546423,-0.0011 -0.546424,-0.0011 0,0.611994 0,0.611994 -5.464234,0 -5.464234,0 0,-3.365968 0,-3.365968 6.342486,0 6.342485,0 -0.218569,0.218569 c -0.120213,0.120213 -0.262511,0.21857 -0.316216,0.21857 -0.128228,0 -0.34744,0.222154 -0.34744,0.352103 0,0.05627 -0.118028,0.212564 -0.262284,0.347319 -0.144255,0.134755 -0.262283,0.268567 -0.262283,0.29736 0,0.02879 0.238005,0.05235 0.5289,0.05235 0.490808,0 0.5522,-0.02292 0.852421,-0.318267 0.177935,-0.175047 0.579246,-0.440609 0.891801,-0.590137 0.524543,-0.250947 0.638931,-0.271852 1.486271,-0.271616 0.768755,1.74e-4 0.987924,0.03246 1.348166,0.198384 0.597363,0.275133 1.144481,0.745073 1.512179,1.298865 0.305853,0.460649 0.319925,0.46962 0.736571,0.46962 0.366475,0 0.424761,-0.02399 0.424761,-0.174855 0,-0.09617 -0.03934,-0.174856 -0.08743,-0.174856 -0.04809,0 -0.08743,-0.07869 -0.08743,-0.174855 0,-0.09617 -0.03934,-0.174856 -0.08743,-0.174856 -0.04809,0 -0.08743,-0.05901 -0.08743,-0.131141 0,-0.07213 -0.03934,-0.131142 -0.08743,-0.131142 -0.04809,0 -0.08743,-0.05987 -0.08743,-0.133042 0,-0.07317 -0.215529,-0.348571 -0.478952,-0.611994 -0.263423,-0.263424 -0.538821,-0.478952 -0.611994,-0.478952 -0.109801,0 -0.133042,-0.145602 -0.133042,-0.833478 l 0,-0.833478 0.303083,-0.303083 c 0.166695,-0.166695 0.363407,-0.303083 0.437138,-0.303083 0.07373,0 0.134056,-0.0629 0.134056,-0.139778 0,-0.07688 0.118028,-0.250033 0.262283,-0.384788 0.144256,-0.134755 0.262284,-0.30791 0.262284,-0.384788 0,-0.126145 0.409319,-0.139779 4.196531,-0.139779 l 4.196532,0 0,0.743136 0,0.743136 -0.262283,0 c -0.174856,0 -0.262283,0.04371 -0.262283,0.131142 0,0.07213 -0.07,0.131141 -0.155555,0.131141 -0.08555,0 -0.212268,0.07869 -0.281584,0.174856 -0.06932,0.09617 -0.196757,0.174855 -0.283203,0.174855 -0.178977,0 -1.290497,1.073869 -1.290497,1.246783 0,0.0624 -0.07868,0.170173 -0.174855,0.239489 -0.09617,0.06932 -0.174856,0.196029 -0.174856,0.281584 0,0.08555 -0.03934,0.155555 -0.08743,0.155555 -0.04809,0 -0.08743,0.118027 -0.08743,0.262283 0,0.144256 -0.03934,0.262283 -0.08743,0.262283 -0.04809,0 -0.08743,0.0965 -0.08743,0.214451 0,0.206875 0.01621,0.212653 0.458995,0.163586 0.252448,-0.02797 0.482,-0.0753 0.510117,-0.105166 0.02811,-0.02987 0.118824,-0.238385 0.201572,-0.463377 0.337591,-0.917897 1.327804,-1.789131 2.27417,-2.000918 1.066818,-0.238744 2.23958,0.04987 3.002173,0.738827 0.314614,0.284235 0.399335,0.316036 0.841929,0.316036 0.275755,0 0.492113,-0.03915 0.492113,-0.08905 0,-0.130602 -1.113573,-1.22237 -1.246783,-1.22237 -0.0624,0 -0.170173,-0.07869 -0.239489,-0.174855 -0.06932,-0.09617 -0.191819,-0.174856 -0.27223,-0.174856 -0.08041,0 -0.168846,-0.05901 -0.196525,-0.131141 -0.02942,-0.07666 -0.160422,-0.131142 -0.315351,-0.131142 l -0.265027,0 0,-0.830564 0,-0.830563 10.49133,0 10.491329,0 0,0.830563 c 0,0.830396 -4.4e-5,0.830564 -0.221313,0.830564 -0.121723,0 -0.243959,0.05901 -0.271637,0.131142 -0.02768,0.07213 -0.116114,0.131141 -0.196525,0.131141 -0.08041,0 -0.202914,0.07869 -0.27223,0.174856 -0.06932,0.09617 -0.177086,0.174855 -0.239489,0.174855 -0.13321,0 -1.246783,1.091768 -1.246783,1.22237 0,0.05022 0.221274,0.08905 0.507416,0.08905 0.462696,0 0.532914,-0.02631 0.796722,-0.298487 0.159119,-0.164169 0.530755,-0.41006 0.825858,-0.546424 0.476736,-0.220295 0.634015,-0.247837 1.410828,-0.247054 0.781636,7.86e-4 0.927985,0.02714 1.381135,0.248738 0.632291,0.309194 1.301472,0.968868 1.564549,1.542322 l 0.200692,0.437466 0.459507,0 c 0.401222,0 0.459507,-0.02218 0.459507,-0.174855 0,-0.09617 -0.03934,-0.174856 -0.08743,-0.174856 -0.04809,0 -0.08743,-0.07869 -0.08743,-0.174855 0,-0.09617 -0.03934,-0.174856 -0.08743,-0.174856 -0.04809,0 -0.08743,-0.07869 -0.08743,-0.174855 0,-0.09617 -0.03934,-0.174856 -0.08743,-0.174856 -0.04808,0 -0.08743,-0.06005 -0.08743,-0.133443 0,-0.136567 -0.725506,-0.91569 -0.852676,-0.91569 -0.03874,0 -0.127141,-0.07869 -0.196457,-0.174855 -0.06932,-0.09617 -0.187344,-0.174856 -0.262283,-0.174856 -0.07494,0 -0.192967,-0.07869 -0.262284,-0.174855 -0.06932,-0.09617 -0.196028,-0.174856 -0.281583,-0.174856 -0.08556,0 -0.155555,-0.05652 -0.155555,-0.125602 0,-0.07619 -0.111789,-0.139475 -0.284141,-0.160864 -0.156277,-0.01939 2.922273,-0.0362 6.841222,-0.03735 3.918948,-0.0011 7.03684,0.01496 6.928648,0.0358 -0.108191,0.02084 -0.196712,0.09417 -0.196712,0.162949 0,0.07511 -0.08729,0.125061 -0.218569,0.125061 -0.120214,0 -0.21857,0.03934 -0.21857,0.08743 0,0.04809 -0.0629,0.08743 -0.139778,0.08743 -0.07688,0 -0.250033,0.118027 -0.384788,0.262283 -0.134755,0.144256 -0.290027,0.262283 -0.345048,0.262283 -0.137835,0 -0.52923,0.403062 -0.52923,0.545006 0,0.0637 -0.07868,0.172528 -0.174855,0.241844 -0.09617,0.06932 -0.174856,0.187344 -0.174856,0.262283 0,0.07494 -0.07868,0.192967 -0.174855,0.262283 -0.102681,0.07401 -0.174856,0.226324 -0.174856,0.369012 0,0.13364 -0.03934,0.242983 -0.08743,0.242983 -0.04809,0 -0.08743,0.03934 -0.08743,0.08743 0,0.04809 0.214076,0.08743 0.475726,0.08743 l 0.475725,0 0.282897,-0.530768 c 0.333109,-0.624977 0.894571,-1.153076 1.56334,-1.470447 0.418709,-0.198702 0.59384,-0.228192 1.35513,-0.228192 0.761931,0 0.937416,0.02961 1.365622,0.230386 0.27024,0.126713 0.648762,0.372604 0.84116,0.546424 0.323688,0.292433 0.390834,0.316036 0.899019,0.316036 0.545112,0 0.547802,-0.0012 0.360972,-0.163253 -0.103528,-0.08979 -0.188233,-0.209128 -0.188233,-0.265198 0,-0.139532 -0.578864,-0.708109 -0.720921,-0.708109 -0.06312,0 -0.171468,-0.07869 -0.240784,-0.174856 -0.06932,-0.09617 -0.196029,-0.174855 -0.281584,-0.174855 -0.08555,0 -0.155555,-0.03934 -0.155555,-0.08743 0,-0.04809 -0.09836,-0.08743 -0.218569,-0.08743 -0.135999,0 -0.218569,-0.04954 -0.218569,-0.131141 0,-0.07213 -0.08852,-0.140725 -0.196713,-0.152438 -0.108192,-0.01171 4.26866,-0.04147 9.726337,-0.06613 8.578441,-0.03876 7.473731,-0.04772 -8.152637,-0.06613 l -18.075687,-0.0213 0,-0.743136 0,-0.743136 4.240246,0 c 2.768545,0 4.240245,-0.03034 4.240245,-0.08743 0,-0.04809 0.118028,-0.08743 0.262284,-0.08743 0.144255,0 0.262283,-0.03934 0.262283,-0.08743 0,-0.04809 0.0608,-0.08743 0.135115,-0.08743 0.130237,0 0.564307,-0.372092 0.564307,-0.483733 0,-0.03 0.15737,-0.205743 0.349711,-0.390545 0.192341,-0.184801 0.349711,-0.380217 0.349711,-0.434258 0,-0.09986 0.388129,-0.527447 0.478779,-0.527447 0.09353,0 1.007493,-0.957846 1.007493,-1.055869 0,-0.05388 0.118027,-0.20822 0.262283,-0.342975 0.144256,-0.134755 0.262283,-0.271651 0.262283,-0.304214 0,-0.03256 0.15737,-0.210406 0.349711,-0.395208 0.192341,-0.184801 0.349711,-0.379464 0.349711,-0.432585 0,-0.121786 0.751141,-0.878831 0.871976,-0.878831 0.04935,0 0.08973,-0.03934 0.08973,-0.08743 0,-0.05809 7.563025,-0.08402 22.534507,-0.07729 12.39397,0.0056 22.46045,0.02914 22.36995,0.05235 -0.20804,0.05336 -0.75344,0.593271 -0.75344,0.745858 0,0.06312 -0.0787,0.171469 -0.17486,0.240785 -0.0962,0.06931 -0.17486,0.215699 -0.17486,0.325297 0,0.109598 -0.0393,0.199269 -0.0874,0.199269 -0.0481,0 -0.0874,0.07869 -0.0874,0.174856 0,0.09617 -0.0393,0.174855 -0.0874,0.174855 -0.0481,0 -0.0874,0.07869 -0.0874,0.174856 0,0.09617 -0.0393,0.174855 -0.0874,0.174855 -0.0481,0 -0.0874,0.15737 -0.0874,0.349711 0,0.192341 -0.0393,0.349711 -0.0874,0.349711 -0.0514,0 -0.0874,0.305997 -0.0874,0.743136 0,0.437139 0.036,0.743136 0.0874,0.743136 0.0481,0 0.0874,0.177041 0.0874,0.393425 0,0.216383 0.0393,0.393424 0.0874,0.393424 0.0481,0 0.0874,0.07869 0.0874,0.174856 0,0.09617 0.0393,0.174855 0.0874,0.174855 0.0481,0 0.0874,0.07869 0.0874,0.174856 0,0.09617 0.0393,0.174855 0.0874,0.174855 0.0481,0 0.0874,0.0629 0.0874,0.139779 0,0.07688 0.11803,0.250033 0.26229,0.384788 0.14425,0.134755 0.26228,0.290027 0.26228,0.345048 0,0.137835 0.40306,0.529229 0.54501,0.529229 0.0637,0 0.17253,0.07869 0.24184,0.174856 0.0693,0.09617 0.17636,0.174855 0.23787,0.174855 0.0615,0 0.11184,0.03934 0.11184,0.08743 0,0.04809 0.0787,0.08743 0.17486,0.08743 0.0971,0 0.17485,0.05829 0.17485,0.131141 0,0.07286 0.0777,0.131142 0.17486,0.131142 0.0962,0 0.17485,0.03934 0.17485,0.08743 0,0.04809 0.11803,0.08743 0.26229,0.08743 0.14425,0 0.26228,0.03729 0.26228,0.08286 0,0.04557 0.20655,0.09731 0.459,0.114969 0.25244,0.01766 -4.15391,0.03939 -9.79191,0.04828 -6.78643,0.01071 -10.2509,-0.01338 -10.2509,-0.07126 0,-0.04809 -0.0629,-0.08743 -0.13978,-0.08743 -0.0769,0 -0.25004,-0.118027 -0.38479,-0.262283 -0.13475,-0.144256 -0.30791,-0.262283 -0.38479,-0.262283 -0.0769,0 -0.13978,-0.03934 -0.13978,-0.08743 0,-0.04809 -0.0393,-0.08743 -0.0874,-0.08743 -0.0481,0 -0.0874,0.200159 -0.0874,0.444797 0,0.418694 0.0244,0.467231 0.41528,0.827093 0.40543,0.373226 0.42959,0.382377 1.01879,0.385766 0.59801,0.0034 0.6018,0.002 0.41529,-0.159782 -0.10353,-0.08979 -0.18824,-0.207817 -0.18824,-0.262284 0,-0.0733 3.28267,-0.09903 12.63331,-0.09903 l 12.63331,0 0,3.540824 0,3.540823 -12.76445,0 -12.76445,0 0,-0.788394 c 0,-0.786134 8.8e-4,-0.789246 0.306,-1.085558 0.1683,-0.16344 0.306,-0.359458 0.306,-0.435594 0,-0.07614 0.0393,-0.13843 0.0874,-0.13843 0.0481,0 0.0874,-0.07869 0.0874,-0.174856 0,-0.152796 -0.0583,-0.174855 -0.462,-0.174855 -0.42001,0 -0.476,0.0237 -0.61601,0.260709 -0.0847,0.14339 -0.36859,0.445963 -0.63084,0.672383 l -0.47684,0.411673 0,0.639034 0,0.639033 -1.8797,0 -1.8797,0 0,-0.795861 0,-0.795861 -0.39342,-0.437583 c -0.21638,-0.240671 -0.39343,-0.472671 -0.39343,-0.515555 0,-0.04289 -0.21638,-0.07797 -0.48085,-0.07797 -0.42257,0 -0.48085,0.02119 -0.48085,0.174855 0,0.09617 0.0393,0.174856 0.0874,0.174856 0.0481,0 0.0874,0.06166 0.0874,0.137012 0,0.07536 0.1377,0.266879 0.306,0.425605 l 0.306,0.288592 0,0.798384 0,0.798383 -8.43678,0 -8.436777,0 0,-0.830563 c 0,-0.495424 0.03528,-0.830564 0.08743,-0.830564 0.04809,0 0.08743,-0.05033 0.08743,-0.111841 0,-0.06151 0.07869,-0.168554 0.174856,-0.23787 0.09617,-0.06932 0.174855,-0.196028 0.174855,-0.281584 0,-0.08555 0.03934,-0.155554 0.08743,-0.155554 0.04809,0 0.08743,-0.07869 0.08743,-0.174856 0,-0.151137 -0.05829,-0.174855 -0.429693,-0.174855 -0.412887,0 -0.441887,0.01661 -0.741473,0.424729 -0.171479,0.233601 -0.449958,0.518834 -0.618842,0.633851 -0.306616,0.208818 -0.307064,0.210108 -0.307661,0.886687 l -5.97e-4,0.677565 -1.923411,0 -1.92341,0 0,-0.825698 c 0,-0.823398 -8.74e-4,-0.826625 -0.307956,-1.158418 -0.169374,-0.182996 -0.395593,-0.517983 -0.502709,-0.744417 l -0.194754,-0.411699 -0.50271,-0.0036 c -0.279243,-0.002 -0.502709,0.03528 -0.502709,0.08384 0,0.04809 0.03934,0.08743 0.08743,0.08743 0.04809,0 0.08743,0.07869 0.08743,0.174855 0,0.09617 0.03934,0.174856 0.08743,0.174856 0.04809,0 0.08743,0.07869 0.08743,0.174855 0,0.09617 0.03934,0.174856 0.08743,0.174856 0.04809,0 0.08743,0.07 0.08743,0.155554 0,0.08556 0.07869,0.212268 0.174856,0.281584 0.09617,0.06932 0.174855,0.176358 0.174855,0.23787 0,0.06151 0.03934,0.111841 0.08743,0.111841 0.05215,0 0.08743,0.33514 0.08743,0.830564 l 0,0.830563 -4.983382,0 -4.983381,0 0,-0.926628 c 0,-0.916856 0.0028,-0.929213 0.262283,-1.171638 0.144256,-0.134755 0.262283,-0.30791 0.262283,-0.384787 0,-0.07688 0.03934,-0.139779 0.08743,-0.139779 0.04809,0 0.08743,-0.07869 0.08743,-0.174855 0,-0.09617 0.03934,-0.174856 0.08743,-0.174856 0.04809,0 0.08743,-0.07869 0.08743,-0.174855 0,-0.152678 -0.05821,-0.17483 -0.458995,-0.174648 l -0.458996,1.75e-4 -0.252171,0.482606 c -0.138695,0.265435 -0.46327,0.675539 -0.721279,0.911345 l -0.469108,0.428771 0,0.662147 0,0.662147 -1.879696,0 -1.879697,0 0,-0.770493 c 0,-0.745963 -0.0085,-0.778667 -0.268408,-1.027276 -0.147623,-0.141231 -0.347545,-0.384646 -0.444269,-0.540923 -0.162993,-0.263348 -0.210149,-0.28414 -0.644424,-0.28414 -0.25771,0 -0.492877,0.03934 -0.522596,0.08743 -0.02972,0.04809 0.0073,0.08743 0.08227,0.08743 0.07497,0 0.136302,0.07 0.136302,0.155555 0,0.08555 0.07869,0.212268 0.174855,0.281584 0.09617,0.06932 0.174856,0.2157 0.174856,0.325297 0,0.109598 0.03934,0.199269 0.08743,0.199269 0.05215,0 0.08743,0.33514 0.08743,0.830564 l 0,0.830563 -8.349349,0 -8.34935,0 0,-0.830563 c 0,-0.495424 0.03528,-0.830564 0.08743,-0.830564 0.04809,0 0.08743,-0.08967 0.08743,-0.199269 0,-0.109597 0.07869,-0.255981 0.174856,-0.325297 0.09617,-0.06932 0.174855,-0.196029 0.174855,-0.281584 0,-0.08555 0.03934,-0.155555 0.08743,-0.155555 0.04809,0 0.08743,-0.03934 0.08743,-0.08743 0,-0.04809 -0.211033,-0.08743 -0.468963,-0.08743 -0.449458,0 -0.479174,0.01474 -0.714492,0.3543 -0.135043,0.194866 -0.39612,0.473569 -0.580171,0.619341 l -0.33464,0.26504 0,0.692075 0,0.692076 -1.92341,0 -1.923411,0 0,-0.813413 0,-0.813414 -0.311974,-0.30129 c -0.171584,-0.165709 -0.395873,-0.450001 -0.498419,-0.631757 -0.116194,-0.205948 -0.231935,-0.313011 -0.307171,-0.28414 -0.0664,0.02548 -0.255206,0.04633 -0.419572,0.04633 -0.240561,0 -0.298847,0.0341 -0.298847,0.174856 0,0.09617 0.03934,0.174855 0.08743,0.174855 0.04809,0 0.08743,0.07 0.08743,0.155555 0,0.08555 0.07869,0.212268 0.174855,0.281584 0.09617,0.06932 0.174856,0.2157 0.174856,0.325297 0,0.109598 0.03934,0.199269 0.08743,0.199269 0.05215,0 0.08743,0.33514 0.08743,0.830564 l 0,0.830563 -2.928829,0 -2.928829,0 0,-0.830563 c 0,-0.495424 0.03528,-0.830564 0.08743,-0.830564 0.04809,0 0.08743,-0.09836 0.08743,-0.218569 0,-0.120213 0.03934,-0.21857 0.08743,-0.21857 0.04809,0 0.08743,-0.08238 0.08743,-0.183059 0,-0.170411 -0.03171,-0.178781 -0.458995,-0.121146 -0.527385,0.07114 -0.590137,0.0979 -0.590137,0.251687 0,0.290509 -0.568429,1.205198 -1.006342,1.619357 -0.441514,0.417567 -0.47993,0.484995 -0.47993,0.842374 l 0,0.388475 -2.010838,0 -2.010838,0 0,-0.487055 z m 3.209442,-1.870391 c 0.581368,-0.354478 0.853377,-1.5175 0.510151,-2.181228 -0.271155,-0.524355 -0.996363,-0.96722 -1.586425,-0.968786 -0.571388,-0.0015 -1.288128,0.46487 -1.52877,0.994782 -0.332306,0.73176 -0.167528,1.553782 0.413772,2.064169 0.286484,0.251537 0.333905,0.262802 1.104995,0.262489 0.645495,-2.63e-4 0.861451,-0.03434 1.086277,-0.171426 z m 13.278994,-1.673347 c 0.239431,-0.264478 0.29366,-1.570986 0.08156,-1.96484 -0.159634,-0.296423 -0.620825,-0.59423 -1.066109,-0.688424 -0.586711,-0.124111 -1.360877,0.2739 -1.660769,0.853826 -0.217898,0.421368 -0.166232,1.244643 0.103708,1.652549 l 0.218954,0.330862 1.078055,0 c 0.984814,0 1.092462,-0.01591 1.244605,-0.183973 z m 22.908618,0.117063 c 0.43285,-0.282887 0.610426,-1.315576 0.328412,-1.909875 -0.41631,-0.877307 -1.57712,-1.140161 -2.411468,-0.546053 -0.681963,0.485601 -0.799745,1.711052 -0.22357,2.326125 0.170707,0.182233 0.258766,0.196614 1.196307,0.195374 0.55662,-6.99e-4 1.056263,-0.03024 1.110319,-0.06557 z m 16.364362,-0.038 c 0.06965,-0.06965 0.104913,-0.449011 0.104913,-1.128789 l 0,-1.023875 -0.266259,-0.224042 c -0.726448,-0.611266 -1.781766,-0.440929 -2.332636,0.376506 -0.155479,0.230716 -0.198793,0.417242 -0.198793,0.856088 0,0.556656 0.07391,0.801539 0.330782,1.096027 0.113386,0.129988 0.293146,0.152999 1.195269,0.152999 0.709283,0 1.096643,-0.03483 1.166724,-0.104914 z m 23.025962,-0.03978 c 0.13691,-0.123905 0.15988,-0.286548 0.15988,-1.132112 l 0,-0.987419 -0.28414,-0.21496 c -0.83118,-0.628805 -2.03885,-0.383844 -2.45754,0.498479 -0.16482,0.347362 -0.18964,1.115647 -0.0451,1.396314 0.28047,0.54458 0.38005,0.58439 1.46184,0.58439 0.81262,0 1.03577,-0.02772 1.16504,-0.144692 z m 3.19578,-1.274443 c -0.0194,-0.157139 -0.0358,-0.04965 -0.0363,0.23886 -8.7e-4,0.288512 0.0154,0.417079 0.0354,0.285706 0.0199,-0.131373 0.0204,-0.367428 8.7e-4,-0.524566 l 2e-5,0 z M 87.92813,35.621929 c -0.01939,-0.156277 -0.03526,-0.02841 -0.03526,0.28414 0,0.312555 0.01587,0.440418 0.03526,0.284141 0.01939,-0.156278 0.01939,-0.412004 0,-0.568281 z m 16.39592,-2.036233 c 0.21074,-0.195412 0.23953,-0.286338 0.23953,-0.756513 0,-0.530664 -0.001,-0.533088 -0.16325,-0.346173 -0.0898,0.103528 -0.20913,0.188233 -0.26519,0.188233 -0.14966,0 -0.70812,0.583778 -0.70812,0.740222 0,0.07373 -0.0548,0.134055 -0.12178,0.134055 -0.067,0 -0.14444,0.05901 -0.17212,0.131142 -0.0411,0.107165 0.0412,0.131141 0.45054,0.131141 0.41524,0 0.54181,-0.03797 0.74039,-0.222107 z"
       id="path3567"
       inkscape:connector-curvature="0"
       transform="matrix(0.8,0,0,-0.8,0,45)" /><path
       style="fill:#000000;fill-opacity:1;stroke:#000000;stroke-width:0.08742774;stroke-opacity:1"
       d="m 19.349832,33.479976 c 1.770676,-0.01323 4.642678,-0.01322 6.382225,1.5e-5 1.739547,0.01324 0.290811,0.02406 -3.219412,0.02405 -3.510224,-8e-6 -4.93349,-0.01084 -3.162813,-0.02407 z"
       id="path3569"
       inkscape:connector-curvature="0"
       transform="matrix(0.8,0,0,-0.8,0,45)" /><path
       style="fill:#000000;fill-opacity:1;stroke:#000000;stroke-width:0.08742774;stroke-opacity:1"
       d="m 29.022913,40.694379 c -0.0034,-0.509826 -0.06966,-0.658618 -0.529855,-1.190276 -0.305192,-0.352588 -0.330114,-0.363207 -0.85242,-0.363207 l -0.538037,0 0,0.611994 0,0.611994 -5.464234,0 -5.464234,0 0,-3.365968 0,-3.365968 6.352062,0 6.352062,0 -0.160997,0.1779 c -0.08855,0.09784 -0.260701,0.225708 -0.382561,0.28414 -0.121859,0.05843 -0.266419,0.196236 -0.321244,0.30623 -0.05483,0.109994 -0.18384,0.289572 -0.286698,0.39906 -0.10286,0.109488 -0.187017,0.226041 -0.187017,0.259006 0,0.03296 0.192428,0.05994 0.427619,0.05994 0.371019,0 0.483847,-0.04669 0.852421,-0.352728 0.23364,-0.194001 0.641185,-0.459563 0.905654,-0.590138 0.43875,-0.216622 0.568885,-0.237409 1.486271,-0.237409 0.927807,0 1.040602,0.01855 1.461187,0.240264 0.579534,0.305508 1.00682,0.681388 1.43788,1.264892 0.313074,0.423793 0.370173,0.461968 0.690973,0.461968 0.247666,0 0.36624,-0.04311 0.406395,-0.147755 0.03166,-0.08249 0.01114,-0.162944 -0.04646,-0.182141 -0.05674,-0.01891 -0.103157,-0.109793 -0.103157,-0.201955 0,-0.09216 -0.0321,-0.167571 -0.07133,-0.167571 -0.03923,0 -0.156186,-0.150983 -0.259901,-0.335518 -0.198833,-0.353778 -0.996185,-1.150753 -1.151296,-1.150753 -0.05708,0 -0.09117,-0.32052 -0.09117,-0.857127 0,-0.854005 0.001,-0.858099 0.28414,-1.123914 0.156277,-0.146733 0.352989,-0.290915 0.437138,-0.320404 0.08415,-0.02949 0.152999,-0.106504 0.152999,-0.171145 0,-0.06464 0.118028,-0.230606 0.262283,-0.368812 0.144256,-0.138206 0.262284,-0.302936 0.262284,-0.366068 0,-0.09317 0.790349,-0.114785 4.196531,-0.114785 l 4.196532,0 0,0.78685 0,0.78685 -0.262283,0 c -0.144256,0 -0.262283,0.03934 -0.262283,0.08743 0,0.04809 -0.0516,0.08743 -0.114657,0.08743 -0.06306,0 -0.199114,0.07869 -0.302341,0.174856 -0.103227,0.09617 -0.227935,0.174855 -0.27713,0.174855 -0.13276,0 -1.316711,1.13978 -1.316711,1.267587 0,0.06042 -0.0582,0.158146 -0.129327,0.217179 -0.168168,0.139567 -0.395239,0.597242 -0.395239,0.796628 0,0.08595 -0.03934,0.180579 -0.08743,0.210297 -0.04809,0.02972 -0.08743,0.110726 -0.08743,0.180016 0,0.09014 0.105715,0.1256 0.371567,0.124643 0.204363,-7e-4 0.419133,-0.03157 0.477268,-0.06852 0.05814,-0.03695 0.245409,-0.34644 0.416167,-0.687764 0.364942,-0.729476 0.898608,-1.257856 1.6048,-1.588907 0.438918,-0.205757 0.602084,-0.232523 1.414157,-0.23198 0.834017,5.6e-4 0.960298,0.02285 1.380476,0.243667 0.254368,0.13368 0.64097,0.379295 0.859118,0.54581 0.308987,0.235856 0.478868,0.302756 0.768789,0.302756 0.204686,0 0.399526,-0.02737 0.432978,-0.06082 0.07305,-0.07305 -1.076404,-1.250596 -1.220761,-1.250596 -0.05551,0 -0.149223,-0.0582 -0.208256,-0.129327 -0.152816,-0.184132 -0.60442,-0.395239 -0.845502,-0.395239 -0.201555,0 -0.205137,-0.01527 -0.205137,-0.874278 l 0,-0.874277 10.49133,0 10.491329,0 0,0.814181 0,0.81418 -0.419875,0.183337 c -0.230932,0.100835 -0.471804,0.245906 -0.535272,0.32238 -0.06347,0.07647 -0.160812,0.139043 -0.21632,0.139043 -0.144357,0 -1.293811,1.177545 -1.22076,1.250596 0.03345,0.03345 0.229221,0.06082 0.435044,0.06082 0.313574,0 0.467444,-0.07056 0.949412,-0.435358 0.754373,-0.570983 1.320681,-0.737524 2.315089,-0.680825 0.584605,0.03333 0.85162,0.09485 1.218381,0.280701 0.592707,0.300348 1.239745,0.942989 1.533901,1.523479 0.221929,0.437955 0.236454,0.448564 0.614098,0.448564 0.212735,0 0.408925,-0.03581 0.435976,-0.07958 0.11506,-0.186171 -0.580912,-1.286511 -1.15241,-1.821972 -0.320758,-0.300533 -0.628099,-0.546424 -0.682981,-0.546424 -0.05488,0 -0.170992,-0.07869 -0.258026,-0.174855 -0.08703,-0.09617 -0.194296,-0.174856 -0.238364,-0.174856 -0.04407,0 -0.139136,-0.05901 -0.211264,-0.131141 -0.07213,-0.07213 -0.216852,-0.139631 -0.321609,-0.150006 -0.104757,-0.01037 0.537368,-0.04123 1.426946,-0.06856 l 1.617413,-0.0497 -1.595557,-0.01886 -1.595556,-0.01886 0,-0.743136 0,-0.743136 3.650108,-7.17e-4 c 3.906224,-7.69e-4 4.995226,-0.06995 5.46002,-0.346851 0.267331,-0.159264 1.293774,-1.234227 1.293774,-1.354931 0,-0.02944 0.324575,-0.380419 0.721279,-0.779954 0.68964,-0.694564 1.760418,-1.919417 1.945267,-2.225174 0.04809,-0.07954 0.297556,-0.351161 0.554379,-0.603609 l 0.46695,-0.458995 22.526542,0.0069 c 12.3896,0.0038 22.46753,0.02823 22.39541,0.05431 -0.18949,0.06849 -0.78685,0.655763 -0.78685,0.773547 0,0.05492 -0.0787,0.171057 -0.17486,0.258091 -0.0962,0.08703 -0.17486,0.230829 -0.17486,0.319547 0,0.08872 -0.0393,0.161305 -0.0874,0.161305 -0.0481,0 -0.0874,0.07869 -0.0874,0.174856 0,0.09617 -0.0393,0.174855 -0.0874,0.174855 -0.0481,0 -0.0874,0.07636 -0.0874,0.169696 0,0.09333 -0.0352,0.191442 -0.0782,0.218021 -0.17905,0.11066 -0.27073,1.625686 -0.14319,2.366257 0.0802,0.465409 0.60392,1.535642 0.87718,1.792352 0.12017,0.112888 0.21848,0.250047 0.21848,0.304797 0,0.117868 0.45393,0.569219 0.57306,0.569802 0.0455,2.18e-4 0.20838,0.11825 0.36205,0.262283 0.15366,0.144033 0.34054,0.261879 0.41528,0.261879 0.0747,0 0.13588,0.0304 0.13588,0.06755 0,0.151098 0.93758,0.502938 1.52999,0.574149 0.14425,0.01734 -1.96057,0.04693 -4.67739,0.06576 l -4.93966,0.03423 7.5625,0.04517 c 6.11846,0.03655 5.11681,0.04542 -5.24567,0.04646 -7.04449,6.99e-4 -11.66723,-0.0202 -10.27276,-0.04646 l 2.53541,-0.04776 -2.60098,-0.01984 c -1.66247,-0.01268 -2.60097,-0.05138 -2.60097,-0.107264 0,-0.04809 -0.0611,-0.08743 -0.13588,-0.08743 -0.0747,0 -0.26162,-0.117845 -0.41529,-0.261878 -0.15367,-0.144034 -0.32858,-0.262061 -0.38868,-0.262284 -0.0601,-2.18e-4 -0.10929,-0.04207 -0.10929,-0.09299 0,-0.05092 -0.0393,-0.06827 -0.0874,-0.03855 -0.11377,0.07032 -0.11273,0.619912 0.002,0.833511 0.049,0.09147 0.271,0.305266 0.49342,0.475105 0.33467,0.255533 0.47766,0.308797 0.82899,0.308797 0.39632,0 0.54004,-0.09317 0.33714,-0.218569 -0.0481,-0.02972 -0.0874,-0.110725 -0.0874,-0.180015 0,-0.109109 1.69195,-0.125982 12.63331,-0.125982 l 12.63331,0 0,3.540824 0,3.540823 -12.76445,0 -12.76445,0 0,-0.817013 c 0,-0.723179 0.0214,-0.836141 0.1862,-0.983562 0.26654,-0.238418 0.61624,-0.813728 0.55493,-0.912937 -0.0286,-0.0463 -0.20145,-0.08418 -0.38407,-0.08418 -0.29851,0 -0.40394,0.07151 -1.04397,0.708116 l -0.71193,0.708118 0,0.603298 0,0.6033 -1.8797,0 -1.8797,0 0,-0.783931 0,-0.783932 -0.40744,-0.461914 c -0.22409,-0.254053 -0.45031,-0.490818 -0.50271,-0.526146 -0.13933,-0.09394 -0.73193,-0.08103 -0.79268,0.01727 -0.0613,0.09921 0.28839,0.674519 0.55493,0.912937 0.16481,0.147421 0.1862,0.260383 0.1862,0.983562 l 0,0.817013 -8.436775,0 -8.436777,0 0,-0.812008 c 0,-0.77328 0.01234,-0.826447 0.25873,-1.114704 0.142302,-0.166483 0.260329,-0.348595 0.262283,-0.404694 0.002,-0.0561 0.04997,-0.117473 0.10671,-0.136385 0.05759,-0.0192 0.07811,-0.09965 0.04646,-0.182141 -0.0387,-0.10085 -0.156586,-0.147755 -0.371351,-0.147755 -0.277315,0 -0.396946,0.08307 -1.008163,0.700065 l -0.69351,0.700066 0,0.61135 0,0.611351 -1.923411,0 -1.92341,0 0,-0.775429 c 0,-0.768368 -0.0031,-0.779315 -0.338074,-1.202132 -0.18594,-0.234686 -0.422794,-0.593908 -0.526343,-0.79827 -0.183062,-0.36129 -0.20017,-0.371568 -0.618472,-0.371568 -0.236611,0 -0.454517,0.03934 -0.484235,0.08743 -0.02972,0.04809 -0.01237,0.08743 0.03855,0.08743 0.05092,0 0.09259,0.07869 0.09259,0.174855 0,0.09617 0.03934,0.174856 0.08743,0.174856 0.04809,0 0.08743,0.07869 0.08743,0.174855 0,0.09617 0.03934,0.174856 0.08743,0.174856 0.04809,0 0.08903,0.04918 0.09098,0.109284 0.002,0.06011 0.119982,0.245497 0.262284,0.41198 0.246389,0.288257 0.25873,0.341424 0.25873,1.114704 l 0,0.812008 -4.983382,0 -4.983381,0 0,-0.946465 c 0,-0.896031 0.01162,-0.957386 0.218144,-1.151402 0.251727,-0.236484 0.673564,-1.038026 0.604827,-1.149244 -0.02554,-0.04133 -0.23326,-0.07514 -0.461595,-0.07514 -0.4046,0 -0.419291,0.0094 -0.577915,0.371568 -0.08952,0.204362 -0.411829,0.630444 -0.716246,0.946848 l -0.553487,0.57528 0,0.626851 0,0.626852 -1.870997,0 -1.870998,0 -0.03056,-0.768036 -0.03056,-0.768036 -0.478445,-0.54338 c -0.417634,-0.474318 -0.517642,-0.54321 -0.786849,-0.542042 -0.169623,6.99e-4 -0.367419,0.03948 -0.439547,0.08609 -0.08743,0.0565 -0.09471,0.0852 -0.02186,0.08609 0.06011,6.99e-4 0.109285,0.05293 0.109285,0.115994 0,0.06306 0.07869,0.199114 0.174855,0.302342 0.09617,0.103227 0.174856,0.246022 0.174856,0.317323 0,0.0713 0.03934,0.153952 0.08743,0.18367 0.0483,0.02985 0.08743,0.423476 0.08743,0.879438 l 0,0.825403 -8.349349,0 -8.34935,0 0,-0.825403 c 0,-0.455962 0.03913,-0.849589 0.08743,-0.879438 0.04809,-0.02972 0.08743,-0.124298 0.08743,-0.210179 0,-0.08588 0.07869,-0.227354 0.174856,-0.314387 0.09617,-0.08703 0.174855,-0.211158 0.174855,-0.275834 0,-0.06467 0.04918,-0.118193 0.109285,-0.118929 0.07286,-8.92e-4 0.06557,-0.02959 -0.02186,-0.08609 -0.07213,-0.04661 -0.259491,-0.08535 -0.416361,-0.08609 -0.240439,-0.0011 -0.388003,0.103125 -0.939849,0.663997 l -0.654628,0.665336 0,0.64608 0,0.646081 -1.92341,0 -1.923411,0 0,-0.82121 c 0,-0.629405 -0.02904,-0.832356 -0.124358,-0.86893 -0.0684,-0.02625 -0.292526,-0.286183 -0.498064,-0.577634 -0.35707,-0.506326 -0.390221,-0.529914 -0.744759,-0.529914 -0.20408,0 -0.392416,0.03456 -0.418524,0.07681 -0.05871,0.09499 0.169682,0.566078 0.344961,0.711546 0.07113,0.05903 0.129328,0.178878 0.129328,0.266324 0,0.08744 0.03934,0.183305 0.08743,0.213023 0.0483,0.02985 0.08743,0.423476 0.08743,0.879438 l 0,0.825403 -2.928829,0 -2.928829,0 0,-0.825403 c 0,-0.455962 0.03913,-0.849589 0.08743,-0.879438 0.04809,-0.02972 0.08743,-0.127118 0.08743,-0.216443 0,-0.08933 0.04642,-0.177884 0.103157,-0.196796 0.05709,-0.01903 0.0781,-0.09968 0.04704,-0.180621 -0.04251,-0.11078 -0.125813,-0.134609 -0.343583,-0.09828 -0.601227,0.100291 -0.680892,0.130966 -0.680892,0.262173 0,0.298669 -0.502209,1.131741 -0.95555,1.585082 -0.411856,0.411856 -0.487768,0.539438 -0.527743,0.886958 l -0.04669,0.405906 -1.988981,0.0235 -1.988981,0.0235 -0.0031,-0.460638 -4e-6,0 z m 3.226877,-2.05231 c 0.577047,-0.419979 0.791732,-1.450602 0.444108,-2.132001 -0.200676,-0.393357 -0.791153,-0.815591 -1.264847,-0.904457 -0.898257,-0.168514 -1.957356,0.729033 -1.963981,1.664399 -0.0042,0.599636 0.373116,1.285477 0.819574,1.489544 0.397211,0.181556 1.657815,0.106193 1.965146,-0.117485 z m 13.068323,-1.507003 c 0.280218,-0.106538 0.336957,-0.304857 0.341038,-1.191992 0.0039,-0.848517 -0.103653,-1.077928 -0.631658,-1.347296 -0.766805,-0.391195 -1.791375,-0.07656 -2.139479,0.657018 -0.204493,0.430936 -0.144943,1.21959 0.125077,1.656493 l 0.190477,0.308197 0.948883,0 c 0.521886,0 1.046434,-0.03709 1.165662,-0.08242 z m 22.996791,-0.0013 c 0.540912,-0.205654 0.732035,-1.433045 0.317378,-2.038197 -0.527865,-0.770369 -1.677695,-0.916278 -2.351727,-0.298427 -0.280295,0.256933 -0.53105,0.821814 -0.53105,1.196308 0,0.415999 0.294246,1.034274 0.538972,1.1325 0.267708,0.107451 1.749337,0.113166 2.026427,0.0078 z m 16.461104,-0.03266 c 0.127789,-0.127788 0.145715,-2.059756 0.02051,-2.210616 -0.205931,-0.248132 -0.765159,-0.47074 -1.182574,-0.47074 -0.858052,0 -1.519293,0.67139 -1.519293,1.542613 0,0.468363 0.282029,1.134363 0.507888,1.199358 0.242267,0.06972 2.0948,0.01805 2.173467,-0.06062 l 0,2e-6 z m 23.040092,-0.04082 c 0.0748,-0.07484 0.12343,-0.435683 0.14277,-1.060634 0.0278,-0.897639 0.0186,-0.957428 -0.17486,-1.142688 -0.44167,-0.422884 -1.18798,-0.558181 -1.76018,-0.319099 -0.85997,0.359317 -1.21065,1.575356 -0.67232,2.33137 0.21922,0.307867 0.34446,0.335173 1.45917,0.318126 0.59835,-0.0091 0.92931,-0.05098 1.00542,-0.127075 z M 80.604074,34.541043 c 0.328699,-0.619604 0.898534,-1.196958 1.506964,-1.526849 0.533225,-0.289114 0.58443,-0.299237 1.513601,-0.299237 0.910159,0 0.990101,0.01485 1.491502,0.277006 0.291389,0.152353 0.583593,0.341824 0.649341,0.421046 0.204113,0.245942 0.587096,0.394794 1.015764,0.394794 0.392939,0 0.404852,-0.0071 0.266625,-0.159882 -0.07958,-0.08794 -0.144692,-0.194468 -0.144692,-0.23674 0,-0.116042 -0.632526,-0.739938 -0.750174,-0.739938 -0.05648,0 -0.150993,-0.0582 -0.210026,-0.129328 -0.127298,-0.153385 -0.591177,-0.395239 -0.758073,-0.395239 -0.06474,0 -0.117709,-0.03303 -0.117709,-0.07339 0,-0.178882 -0.508675,-0.276317 -1.442558,-0.276317 -0.933883,0 -1.442558,0.09744 -1.442558,0.276317 0,0.04037 -0.05297,0.07339 -0.117709,0.07339 -0.193375,0 -0.620226,0.24266 -0.841876,0.478596 -0.1141,0.121454 -0.252251,0.220826 -0.307,0.220826 -0.122537,0 -0.569398,0.456258 -0.569398,0.581371 0,0.05002 -0.07868,0.162159 -0.174855,0.249193 -0.09617,0.08703 -0.174856,0.198787 -0.174856,0.248342 0,0.04955 -0.0734,0.17132 -0.163116,0.27059 -0.08971,0.09927 -0.187087,0.308353 -0.216384,0.46463 l -0.05327,0.28414 0.413246,0 c 0.40207,0 0.419033,-0.01091 0.627208,-0.403321 z m 23.716656,-0.976095 c 0.13075,-0.130743 0.19576,-0.330692 0.22493,-0.691798 0.0404,-0.499394 0.0382,-0.505341 -0.1304,-0.354906 -0.0943,0.08415 -0.20603,0.152999 -0.2483,0.152999 -0.1168,0 -0.73994,0.6329 -0.73994,0.751525 0,0.05722 -0.059,0.12669 -0.13114,0.154369 -0.0721,0.02768 -0.13114,0.09577 -0.13114,0.151321 0,0.181044 0.94512,0.04736 1.15599,-0.16351 z"
       id="path3571"
       inkscape:connector-curvature="0"
       transform="matrix(0.8,0,0,-0.8,0,45)" /><path
       style="fill:#000000;fill-opacity:1;stroke:#000000;stroke-width:0.01545519;stroke-opacity:1"
       d="m 28.984654,40.845821 c -4.41e-4,-0.498645 -0.02754,-0.639231 -0.166517,-0.863761 -0.137082,-0.221473 -0.546278,-0.686353 -0.652792,-0.741622 -0.09474,-0.04916 -0.225242,-0.06205 -0.628283,-0.06205 l -0.391269,0 0,0.608678 0,0.608677 -0.03477,0.0093 c -0.01913,0.0051 -2.498524,0.0094 -5.509775,0.0095 l -5.475,2.11e-4 0,-3.5006 0,-3.5006 6.39072,0 6.390721,0 0,0.09273 c 0,0.07642 0.0046,0.09273 0.02588,0.09273 0.02197,0 0.02081,0.0054 -0.0077,0.03577 -0.01848,0.01967 -0.0336,0.05445 -0.0336,0.07728 0,0.03303 -0.0073,0.04151 -0.03561,0.04151 -0.04928,0 -0.134401,0.09101 -0.134401,0.143697 0,0.03586 -0.0064,0.04177 -0.04518,0.04177 -0.06878,0 -0.140283,0.06766 -0.140283,0.132743 l 0,0.05272 -0.09328,0 c -0.09708,0 -0.139205,0.01739 -0.219693,0.09071 -0.02337,0.02129 -0.0425,0.04784 -0.0425,0.05901 0,0.01116 -0.0098,0.02029 -0.02181,0.02029 -0.01199,0 -0.04015,0.02179 -0.06256,0.04843 -0.06804,0.08086 -0.101094,0.160838 -0.101094,0.244604 l 0,0.07789 -0.05796,1.09e-4 c -0.04821,9.2e-5 -0.06381,0.0087 -0.09273,0.05118 -0.01912,0.02809 -0.03477,0.0663 -0.03477,0.0849 0,0.02512 -0.0093,0.03382 -0.03605,0.03382 -0.04253,0 -0.133956,0.104861 -0.133956,0.153645 0,0.01798 -0.01008,0.03182 -0.02318,0.03182 -0.01275,0 -0.02318,0.0066 -0.02318,0.01476 0,0.02757 0.115313,0.03934 0.378652,0.03865 0.378842,-9.94e-4 0.427716,-0.02099 0.826852,-0.338266 0.415451,-0.330247 0.928582,-0.634541 1.236415,-0.733213 0.14328,-0.04593 0.473465,-0.119434 0.672301,-0.149672 0.205307,-0.03122 0.709388,-0.03567 0.904128,-0.008 0.246319,0.03503 0.686948,0.12764 0.787928,0.165609 0.223347,0.08398 0.624289,0.31382 0.875032,0.501615 0.311467,0.233274 0.523407,0.453979 0.829655,0.863968 0.22539,0.30174 0.350664,0.434767 0.438754,0.465907 0.07695,0.0272 0.405816,0.02619 0.504904,-0.0016 0.0419,-0.01173 0.0862,-0.03699 0.103553,-0.05905 0.03013,-0.03831 0.04021,-0.120408 0.01849,-0.150651 -0.01767,-0.0246 -0.09289,-0.06919 -0.116718,-0.06919 -0.0158,0 -0.02408,-0.03424 -0.03144,-0.130082 -0.0055,-0.07154 -0.01358,-0.139409 -0.01795,-0.15081 -0.0044,-0.0114 -0.03681,-0.03463 -0.07208,-0.05163 -0.04281,-0.02063 -0.06971,-0.04628 -0.08092,-0.07715 -0.03374,-0.09291 -0.07077,-0.13125 -0.126758,-0.13125 l -0.05232,0 0,-0.08641 c 0,-0.07632 -0.0075,-0.09707 -0.06406,-0.177735 -0.03902,-0.05562 -0.07527,-0.09132 -0.09273,-0.09132 -0.01864,0 -0.02867,-0.01113 -0.02867,-0.03182 0,-0.04879 -0.09142,-0.153646 -0.133956,-0.153646 -0.02719,0 -0.03605,-0.0086 -0.03605,-0.03512 0,-0.05711 -0.08696,-0.150346 -0.140221,-0.150346 -0.0393,0 -0.04524,-0.0057 -0.04524,-0.04347 0,-0.06003 -0.07153,-0.126533 -0.136078,-0.126533 -0.04462,0 -0.04938,-0.0045 -0.04938,-0.04658 0,-0.05517 -0.08064,-0.137714 -0.135233,-0.138425 -0.02426,-3.17e-4 -0.03477,-0.0098 -0.03477,-0.03121 0,-0.0202 -0.02971,-0.05048 -0.08658,-0.08824 -0.07217,-0.04792 -0.103025,-0.05853 -0.185462,-0.06378 l -0.09889,-0.0063 0,-0.886872 0,-0.886873 0.05226,0 c 0.04137,0 0.06069,-0.01106 0.09273,-0.05306 0.02226,-0.02918 0.04047,-0.07091 0.04047,-0.09273 0,-0.03108 0.0077,-0.03967 0.0355,-0.03967 0.04527,0 0.14996,-0.105648 0.14996,-0.151339 0,-0.02725 0.0089,-0.03412 0.04428,-0.03412 0.06819,0 0.125727,-0.05356 0.125727,-0.117035 0,-0.05226 9.15e-4,-0.05297 0.06763,-0.05297 0.08468,0 0.226781,-0.06145 0.270433,-0.116938 0.02627,-0.03339 0.03287,-0.06308 0.03287,-0.147884 l 0,-0.106102 0.04499,0 c 0.05391,0 0.125015,-0.0754 0.125015,-0.132555 0,-0.02876 0.0082,-0.03745 0.0355,-0.03745 0.04527,0 0.14996,-0.105649 0.14996,-0.15134 0,-0.02376 0.0093,-0.03412 0.03075,-0.03412 0.02008,0 0.05006,-0.02908 0.08636,-0.08374 0.04343,-0.06541 0.05747,-0.104319 0.06412,-0.177734 l 0.0085,-0.09399 4.224848,0 4.224847,0 0,0.826853 0,0.826852 -0.176975,0 c -0.09734,0 -0.212252,0.0076 -0.25537,0.01681 -0.06756,0.01449 -0.08137,0.02393 -0.09991,0.06831 -0.02482,0.05939 -0.05239,0.07702 -0.144276,0.09224 -0.07899,0.01309 -0.206127,0.09616 -0.342744,0.223953 -0.05483,0.05129 -0.107089,0.09325 -0.116131,0.09325 -0.08577,0 -0.286842,0.128933 -0.471934,0.302611 -0.02975,0.02792 -0.08713,0.07994 -0.127505,0.115597 -0.04038,0.03566 -0.07341,0.07786 -0.07341,0.09378 0,0.01768 -0.01094,0.02894 -0.02813,0.02894 -0.0389,0 -0.157334,0.104351 -0.157334,0.138625 0,0.01661 -0.01494,0.03178 -0.03666,0.03723 -0.04253,0.01067 -0.148806,0.12243 -0.148806,0.156475 0,0.01273 -0.01244,0.02314 -0.02764,0.02314 -0.03179,0 -0.14237,0.125326 -0.14237,0.161359 0,0.01326 -0.01274,0.0241 -0.02831,0.0241 -0.01646,0 -0.05528,0.0364 -0.09273,0.08695 -0.05841,0.07884 -0.06442,0.09542 -0.06442,0.177735 0,0.0844 -0.0025,0.09079 -0.0355,0.09079 -0.04475,0 -0.14996,0.105426 -0.14996,0.150264 0,0.02248 -0.0111,0.03463 -0.03469,0.03799 -0.02298,0.0033 -0.05167,0.0334 -0.085,0.08926 -0.0413,0.0692 -0.05032,0.100376 -0.05032,0.173871 0,0.08857 -4.95e-4,0.08955 -0.04495,0.08955 -0.0413,0 -0.04763,0.0078 -0.07804,0.0966 -0.0182,0.05313 -0.04111,0.174837 -0.0509,0.270466 l -0.01781,0.173871 -0.04922,0 c -0.04115,0 -0.05347,0.009 -0.07514,0.05462 -0.07133,0.150328 -5.25e-4,0.183221 0.37014,0.171945 0.164953,-0.005 0.274173,-0.01585 0.328052,-0.03253 0.07657,-0.02371 0.08565,-0.0324 0.174826,-0.167478 0.05173,-0.07836 0.15927,-0.274614 0.238972,-0.436121 0.265669,-0.538335 0.534705,-0.894516 0.91868,-1.216256 0.351649,-0.294653 0.82231,-0.54829 1.212107,-0.653197 0.581311,-0.156451 1.068137,-0.171751 1.678916,-0.05277 0.305652,0.05954 0.41645,0.09715 0.694018,0.235557 0.28061,0.139922 0.411079,0.22168 0.773408,0.484652 0.422269,0.306473 0.546587,0.359401 0.843124,0.358956 0.15211,-2.29e-4 0.362594,-0.02329 0.380771,-0.04172 0.01442,-0.01462 -0.09357,-0.159588 -0.23864,-0.320346 -0.154577,-0.171297 -0.177084,-0.19358 -0.195521,-0.19358 -0.0089,0 -0.01616,-0.009 -0.01616,-0.01996 0,-0.02508 -0.125989,-0.150042 -0.151274,-0.150042 -0.0103,0 -0.01873,-0.0073 -0.01873,-0.01612 0,-0.01993 -0.138268,-0.169345 -0.156707,-0.169345 -0.0074,0 -0.03807,-0.02733 -0.06825,-0.06074 -0.144687,-0.16015 -0.357674,-0.294731 -0.466441,-0.294731 -0.02333,0 -0.03499,-0.0092 -0.03499,-0.02769 0,-0.03503 -0.123694,-0.15777 -0.159001,-0.15777 -0.01455,0 -0.02647,-0.0087 -0.02649,-0.01932 0,-0.03896 -0.248914,-0.166143 -0.325103,-0.166143 -0.01669,0 -0.03034,-0.01015 -0.03034,-0.02256 0,-0.03102 -0.180947,-0.08554 -0.316831,-0.09546 -0.114617,-0.0084 -0.223627,-0.04684 -0.223922,-0.07903 -1.55e-4,-0.01063 -0.01061,-0.01932 -0.02336,-0.01932 -0.02033,0 -0.02318,-0.106269 -0.02318,-0.863688 l 0,-0.863688 0.03477,-0.0093 c 0.01913,-0.0051 2.460273,-0.0094 5.424771,-0.0095 l 5.389997,-2.11e-4 0,5.123422 0,5.123422 -4.323589,-0.0039 -4.323588,-0.0039 -0.0049,-0.432745 c -0.0027,-0.23801 -1.55e-4,-0.636175 0.0056,-0.88481 l 0.01053,-0.452064 0.03687,0 c 0.05125,0 0.09525,-0.04924 0.106266,-0.118916 0.03148,-0.199043 0.04417,-0.252009 0.06039,-0.252009 0.01,0 0.02963,-0.01913 0.04372,-0.0425 0.01409,-0.02338 0.05272,-0.07032 0.08585,-0.104322 0.08821,-0.09055 0.154482,-0.188144 0.165899,-0.244314 0.02087,-0.102691 0.04382,-0.147803 0.07979,-0.15683 0.05508,-0.01382 0.04306,-0.03398 -0.03641,-0.06106 -0.05329,-0.01816 -0.132184,-0.02464 -0.300083,-0.02464 l -0.227778,0 -0.11907,0.07964 c -0.08459,0.05657 -0.280782,0.240618 -0.67746,0.635497 l -0.55839,0.555858 -0.0077,0.666603 -0.0077,0.666603 -1.908716,0.0044 c -1.049793,0.0024 -1.930801,4.54e-4 -1.957795,-0.0043 l -0.04908,-0.0087 -0.006,-0.760683 c -0.0052,-0.658701 -0.0095,-0.771197 -0.03185,-0.839099 -0.01757,-0.05327 -0.0389,-0.0854 -0.06653,-0.100183 -0.09128,-0.04885 -0.397036,-0.409652 -0.608293,-0.717803 -0.146517,-0.213714 -0.215243,-0.290524 -0.30195,-0.33746 -0.05582,-0.03022 -0.08506,-0.03346 -0.301376,-0.03346 -0.150705,0 -0.26965,0.0077 -0.320695,0.02086 -0.09317,0.02395 -0.09609,0.0335 -0.05266,0.17233 0.0199,0.06361 0.0347,0.08618 0.05882,0.08967 0.02636,0.0038 0.03394,0.01908 0.0416,0.08382 0.01058,0.0893 0.08026,0.207066 0.189972,0.321078 0.03681,0.03825 0.07788,0.0852 0.09128,0.104322 0.01339,0.01913 0.03786,0.03477 0.05438,0.03477 0.02745,0 0.03004,0.01164 0.03009,0.135233 0,0.172256 0.03119,0.235692 0.11563,0.235692 l 0.05432,0 0,0.888713 0,0.888712 -2.963532,-0.0039 -2.963532,-0.0039 -0.0049,-0.432745 c -0.0027,-0.23801 -1.54e-4,-0.636175 0.0056,-0.88481 0.01011,-0.434397 0.0117,-0.452064 0.04068,-0.452064 0.07195,0 0.120855,-0.06943 0.120855,-0.171553 0,-0.02381 0.0073,-0.07733 0.01622,-0.118918 0.01387,-0.06464 0.02495,-0.08053 0.07639,-0.109438 0.06704,-0.03768 0.08457,-0.07321 0.06964,-0.141182 -0.01423,-0.06479 -0.07551,-0.108027 -0.153127,-0.108027 -0.08309,0 -0.478511,0.06905 -0.627184,0.109528 -0.06367,0.01733 -0.127281,0.04193 -0.141345,0.05466 -0.01407,0.01273 -0.03014,0.05576 -0.03572,0.09562 -0.01656,0.118254 -0.06808,0.260226 -0.177733,0.489768 -0.223128,0.467089 -0.398384,0.711735 -0.819681,1.144223 -0.18341,0.188282 -0.32251,0.34501 -0.354902,0.399879 -0.101478,0.171891 -0.139078,0.341892 -0.139612,0.631216 -2.62e-4,0.146288 -0.0041,0.169905 -0.03178,0.197617 -0.03075,0.03075 -0.05545,0.03179 -1.077999,0.04553 -0.57559,0.0077 -1.482942,0.01887 -2.016339,0.02475 l -0.969814,0.0107 -3.06e-4,-0.346011 z m 2.632317,-2.061456 c 0.223614,-0.02931 0.445816,-0.08549 0.553038,-0.139827 0.04594,-0.02328 0.129573,-0.08837 0.185844,-0.14464 0.19263,-0.192629 0.330432,-0.451068 0.412861,-0.774295 0.03807,-0.149297 0.04133,-0.186392 0.04076,-0.463656 -5.72e-4,-0.277863 -0.0038,-0.313076 -0.04193,-0.451338 -0.09671,-0.351106 -0.306087,-0.622415 -0.667537,-0.864997 -0.562824,-0.377729 -1.039747,-0.419571 -1.593151,-0.139769 -0.442697,0.223827 -0.820807,0.664118 -0.951833,1.108362 -0.04133,0.140128 -0.05632,0.455522 -0.02958,0.622422 0.05576,0.348035 0.230176,0.705625 0.464488,0.952295 0.175604,0.184865 0.296375,0.253822 0.517367,0.2954 0.158433,0.02981 0.882402,0.02984 1.109674,4.6e-5 l 0,-3e-6 z m 12.972125,-1.614877 c 0.561524,-0.02265 0.737344,-0.05154 0.842133,-0.138384 0.123694,-0.102508 0.166649,-0.283296 0.181098,-0.762191 0.01263,-0.418669 -0.0018,-0.833133 -0.03423,-0.98523 -0.05504,-0.257865 -0.185736,-0.431873 -0.43839,-0.583668 -0.286863,-0.172349 -0.487149,-0.226268 -0.838652,-0.225775 -0.224454,3.15e-4 -0.272698,0.0051 -0.402617,0.04003 -0.310747,0.08352 -0.544255,0.217285 -0.743648,0.425988 -0.197177,0.206383 -0.286389,0.390316 -0.330165,0.680718 -0.08073,0.535563 0.08066,1.17814 0.372259,1.482204 l 0.07815,0.08149 0.478236,-3.79e-4 c 0.263031,-2.08e-4 0.639153,-0.0069 0.835829,-0.0148 l 0,0 z"
       id="path3573"
       inkscape:connector-curvature="0"
       transform="matrix(0.8,0,0,-0.8,0,45)" /><path
       style="fill:#000000;fill-opacity:1;stroke:#000000;stroke-width:0.01545519;stroke-opacity:1"
       d="m 28.984828,40.923298 c -1.65e-4,-0.335324 -0.02147,-0.583348 -0.06109,-0.711307 -0.04231,-0.136633 -0.154147,-0.311233 -0.347825,-0.543021 -0.205763,-0.246249 -0.347909,-0.389157 -0.427439,-0.429731 -0.08104,-0.04134 -0.290507,-0.05966 -0.689714,-0.06033 l -0.312968,-5.21e-4 0,0.608827 c 0,0.540912 -0.0027,0.609873 -0.02445,0.618207 -0.01345,0.0052 -2.492844,0.0094 -5.509774,0.0094 l -5.485328,0 0,-3.5006 0,-3.5006 6.39072,0 6.390721,0 0,0.08549 c 0,0.06002 0.0066,0.08802 0.02218,0.094 0.01847,0.0071 0.01718,0.01671 -0.0077,0.05747 -0.01642,0.02693 -0.02988,0.06026 -0.02991,0.07407 -3.1e-5,0.0154 -0.01762,0.02863 -0.04547,0.0342 -0.0484,0.0097 -0.12459,0.103197 -0.12459,0.15292 0,0.01758 -0.01174,0.02732 -0.03295,0.02732 -0.01812,0 -0.05638,0.01448 -0.08502,0.03218 -0.04026,0.02488 -0.05427,0.04592 -0.06176,0.09273 l -0.0097,0.06055 -0.0758,0 c -0.09314,0 -0.160854,0.02716 -0.221628,0.08892 -0.0255,0.02591 -0.05556,0.0565 -0.06681,0.06796 -0.01124,0.01147 -0.03827,0.03824 -0.06006,0.05949 -0.05726,0.05584 -0.112365,0.182604 -0.112541,0.258874 -1.54e-4,0.06447 -0.0011,0.06568 -0.05312,0.06568 -0.06062,0 -0.117036,0.05678 -0.117036,0.117791 0,0.02666 -0.01387,0.04214 -0.05206,0.0581 -0.05557,0.02322 -0.133407,0.112406 -0.133407,0.152861 0,0.01345 -0.01217,0.02735 -0.02705,0.03088 -0.02118,0.005 -0.01761,0.01031 0.01646,0.02432 0.02717,0.01117 0.143475,0.01789 0.30972,0.01789 0.40478,0 0.439055,-0.01266 0.813639,-0.300447 0.449331,-0.345219 0.645866,-0.472841 0.981404,-0.637283 0.216209,-0.105961 0.350371,-0.151854 0.619931,-0.212059 0.631669,-0.141083 1.185724,-0.128149 1.879318,0.04387 0.239005,0.05928 0.528747,0.202393 0.87771,0.433543 0.383826,0.254243 0.634528,0.49996 0.993513,0.973755 0.224811,0.296709 0.337814,0.41968 0.420636,0.457746 0.04921,0.02262 0.100635,0.02848 0.252031,0.02875 0.285504,5.1e-4 0.375223,-0.0333 0.398603,-0.150204 0.008,-0.0402 0.0023,-0.05549 -0.03333,-0.0885 -0.02368,-0.02194 -0.05848,-0.04377 -0.07733,-0.0485 -0.03044,-0.0076 -0.03545,-0.0219 -0.04467,-0.127132 -0.01411,-0.160931 -0.01591,-0.164992 -0.09315,-0.210256 -0.0373,-0.02186 -0.07256,-0.05537 -0.07836,-0.07447 -0.02131,-0.07017 -0.08361,-0.135182 -0.12953,-0.135182 -0.04227,0 -0.04394,-0.003 -0.05027,-0.09052 -0.0052,-0.07255 -0.01726,-0.105523 -0.06054,-0.166143 -0.0297,-0.0416 -0.06932,-0.08249 -0.08804,-0.09088 -0.01873,-0.0084 -0.03405,-0.02627 -0.03405,-0.03972 0,-0.03704 -0.106478,-0.153669 -0.1403,-0.153669 -0.01995,0 -0.02971,-0.01075 -0.02971,-0.03273 0,-0.04242 -0.110316,-0.152734 -0.152734,-0.152734 -0.02353,0 -0.03282,-0.0098 -0.03307,-0.03477 -6.18e-4,-0.06328 -0.08214,-0.135233 -0.153193,-0.135233 -0.02408,0 -0.03193,-0.0099 -0.03193,-0.04018 0,-0.04915 -0.09101,-0.145278 -0.137551,-0.145278 -0.01785,0 -0.03246,-0.0098 -0.03246,-0.02181 0,-0.02481 -0.07488,-0.09181 -0.140562,-0.125773 -0.02427,-0.01255 -0.08603,-0.0272 -0.137244,-0.03255 l -0.09312,-0.0097 0,-0.886472 0,-0.886471 0.03983,0 c 0.05089,0 0.12752,-0.07557 0.140025,-0.138094 0.0056,-0.0281 0.0191,-0.04737 0.03313,-0.04737 0.04138,0 0.124354,-0.0754 0.144603,-0.131401 0.01436,-0.0397 0.02868,-0.05406 0.0539,-0.05406 0.05317,0 0.12945,-0.07239 0.12945,-0.122862 0,-0.04009 0.0051,-0.04345 0.0802,-0.05234 0.04411,-0.0052 0.117852,-0.02792 0.163868,-0.05043 0.09854,-0.04821 0.126853,-0.09951 0.126853,-0.229799 0,-0.08205 0.0016,-0.0855 0.04071,-0.0855 0.04793,0 0.11099,-0.06473 0.124213,-0.127506 0.0057,-0.02684 0.01896,-0.0425 0.03611,-0.0425 0.03433,0 0.154438,-0.118755 0.154438,-0.152706 0,-0.01398 0.01565,-0.03229 0.03477,-0.04068 0.06164,-0.02704 0.129752,-0.14893 0.141562,-0.253316 l 0.01066,-0.09423 4.226227,0 4.226226,0 0,0.826853 0,0.826852 -0.150688,9.3e-5 c -0.208908,1.23e-4 -0.330174,0.02138 -0.359333,0.06298 -0.05312,0.07578 -0.09071,0.103882 -0.153058,0.114415 -0.07492,0.01266 -0.246745,0.123331 -0.367057,0.236429 -0.0489,0.04597 -0.105575,0.08248 -0.146825,0.0946 -0.08337,0.02449 -0.191355,0.09193 -0.322192,0.201228 -0.148193,0.123797 -0.309104,0.282995 -0.309104,0.305812 0,0.01097 -0.01059,0.01995 -0.02353,0.01995 -0.02968,0 -0.161935,0.120674 -0.161935,0.147751 0,0.01109 -0.01327,0.02438 -0.02948,0.02953 -0.03338,0.0106 -0.155977,0.138228 -0.155977,0.162387 0,0.0087 -0.0098,0.0158 -0.02187,0.0158 -0.02654,0 -0.148138,0.134998 -0.148138,0.164456 0,0.01155 -0.01,0.02101 -0.02215,0.02101 -0.02706,0 -0.124487,0.116264 -0.14696,0.175372 -0.009,0.02366 -0.01635,0.07386 -0.01635,0.111555 0,0.05349 -0.0056,0.06854 -0.02559,0.06854 -0.04305,0 -0.125876,0.07427 -0.146535,0.131401 -0.01075,0.02973 -0.02737,0.05406 -0.03693,0.05406 -0.05601,0 -0.145563,0.172287 -0.146073,0.281031 -3.09e-4,0.06738 -0.0033,0.07272 -0.04284,0.07728 -0.03733,0.0043 -0.0466,0.01715 -0.07618,0.105596 -0.01852,0.05539 -0.04208,0.175359 -0.05235,0.266602 l -0.01867,0.165893 -0.04389,0 c -0.07208,0 -0.13748,0.140447 -0.08549,0.183592 0.07275,0.06038 0.604256,0.05422 0.732579,-0.0085 0.07746,-0.03785 0.167746,-0.174527 0.345379,-0.522853 0.261487,-0.512761 0.420894,-0.751562 0.684249,-1.025047 0.288846,-0.299957 0.589079,-0.518171 0.972052,-0.706505 0.262363,-0.129021 0.481051,-0.204416 0.754275,-0.260045 0.487143,-0.09918 0.91487,-0.09738 1.442859,0.0061 0.294725,0.05775 0.420967,0.10038 0.68427,0.231061 0.257138,0.127622 0.410106,0.222682 0.748244,0.464991 0.415774,0.297944 0.538834,0.358268 0.770915,0.377903 0.106054,0.009 0.436406,-0.01436 0.466483,-0.03295 0.007,-0.0043 0.0046,-0.02308 -0.0052,-0.04169 -0.04885,-0.09226 -0.421241,-0.507675 -0.578392,-0.645207 -0.02484,-0.02174 -0.06964,-0.06695 -0.09954,-0.100459 -0.08899,-0.09972 -0.29259,-0.281568 -0.376959,-0.336686 -0.08761,-0.05724 -0.194676,-0.102896 -0.24128,-0.102896 -0.01683,0 -0.0306,-0.0093 -0.0306,-0.02064 0,-0.02545 -0.135367,-0.164826 -0.16009,-0.164826 -0.0099,0 -0.02621,-0.01325 -0.03633,-0.02945 -0.02296,-0.03677 -0.227648,-0.140556 -0.277192,-0.140556 -0.02019,0 -0.04882,-0.01416 -0.06361,-0.03146 -0.03489,-0.04081 -0.181892,-0.08553 -0.328272,-0.09988 -0.120066,-0.01177 -0.181069,-0.03428 -0.23265,-0.08586 -0.02909,-0.02909 -0.03009,-0.05849 -0.03009,-0.886198 0,-0.766402 0.0026,-0.857092 0.02445,-0.86549 0.01345,-0.0052 2.454593,-0.0094 5.424771,-0.0094 l 5.400324,0 0,5.123395 0,5.123394 -4.327452,0 -4.327453,0 0,-0.631194 c 0,-0.347157 0.0045,-0.746404 0.0101,-0.887215 l 0.0101,-0.256021 0.04329,-0.0087 c 0.0612,-0.01224 0.08678,-0.06065 0.111455,-0.210915 0.02314,-0.140913 0.01365,-0.125258 0.206506,-0.340505 0.09215,-0.102846 0.114995,-0.143188 0.149962,-0.26483 0.0174,-0.06054 0.03483,-0.09091 0.05603,-0.09764 0.01692,-0.0054 0.03077,-0.01557 0.03077,-0.02267 0,-0.03186 -0.115632,-0.05192 -0.332286,-0.05765 l -0.231828,-0.0061 -0.07802,0.04564 c -0.11455,0.06701 -0.314992,0.252916 -0.831071,0.770793 l -0.460886,0.462492 -0.0091,0.667247 -0.0091,0.667247 -1.941061,-2.36e-4 c -1.067582,-1.24e-4 -1.948713,-0.0053 -1.958065,-0.01159 -0.01175,-0.0078 -0.0199,-0.238299 -0.02636,-0.745476 -0.0057,-0.447858 -0.01613,-0.765658 -0.02672,-0.814997 -0.01577,-0.07345 -0.03193,-0.09545 -0.175929,-0.239555 -0.174556,-0.17468 -0.327162,-0.36169 -0.510198,-0.625214 -0.06604,-0.09509 -0.15051,-0.20375 -0.1877,-0.241473 -0.108817,-0.110376 -0.138427,-0.118846 -0.415497,-0.118846 -0.239206,0 -0.37553,0.01857 -0.388723,0.05295 -0.01408,0.0367 0.04828,0.201761 0.08188,0.216712 0.0241,0.01073 0.03746,0.03763 0.04986,0.100459 0.0093,0.04719 0.03603,0.114266 0.05936,0.149046 0.07626,0.113677 0.227157,0.283066 0.260871,0.292845 0.02992,0.0087 0.03359,0.02273 0.03951,0.151302 0.0078,0.168603 0.02729,0.208229 0.109106,0.221376 l 0.05796,0.0093 0,0.886698 0,0.886698 -2.967396,0 -2.967396,0 0,-0.622071 c 0,-0.342139 0.0046,-0.741387 0.0101,-0.887217 l 0.01006,-0.265146 0.04329,-0.0087 c 0.06102,-0.0122 0.0916,-0.06827 0.107858,-0.197769 0.01868,-0.148771 0.02083,-0.153781 0.08446,-0.197015 0.07585,-0.05154 0.09017,-0.08321 0.068,-0.150383 -0.0277,-0.08393 -0.09399,-0.105782 -0.253189,-0.08346 -0.20275,0.02842 -0.513569,0.09204 -0.592045,0.121175 l -0.07296,0.02709 -0.04014,0.154188 c -0.0496,0.190542 -0.0788,0.262127 -0.223142,0.54709 -0.201809,0.398425 -0.388,0.652689 -0.742168,1.01352 -0.447086,0.455498 -0.491564,0.542392 -0.512121,1.000503 -0.0086,0.190785 -0.01471,0.231806 -0.03787,0.252771 -0.03081,0.02789 -0.558747,0.0391 -2.900162,0.06163 l -1.163002,0.01119 -1.4e-4,-0.268938 5.5e-5,0 z m 2.712518,-2.153775 c 0.192737,-0.0341 0.367055,-0.08021 0.452944,-0.119801 0.0429,-0.01978 0.126837,-0.08751 0.205473,-0.165809 0.200465,-0.199613 0.322887,-0.430218 0.409771,-0.771883 0.03253,-0.127923 0.03685,-0.179645 0.03675,-0.440473 -1.55e-4,-0.358689 -0.02408,-0.481308 -0.13919,-0.712821 -0.156414,-0.314571 -0.45494,-0.582917 -0.867957,-0.780211 -0.435224,-0.207902 -0.819122,-0.200027 -1.272385,0.0261 -0.183416,0.0915 -0.309848,0.182987 -0.480178,0.347444 -0.220944,0.213325 -0.386121,0.466767 -0.470342,0.721676 -0.04953,0.149898 -0.07117,0.418561 -0.04896,0.607827 0.05346,0.455634 0.347847,0.96919 0.677837,1.182473 0.107717,0.06962 0.237974,0.110924 0.406647,0.128944 0.192786,0.0206 0.930347,0.0047 1.089591,-0.02347 z m 13.162726,-1.616857 c 0.261163,-0.01824 0.435166,-0.04656 0.503618,-0.08196 0.07298,-0.03774 0.154653,-0.140451 0.180265,-0.2267 0.05119,-0.172366 0.06294,-0.339814 0.0618,-0.880296 -9.12e-4,-0.4317 -0.006,-0.556283 -0.02651,-0.654439 -0.06529,-0.311849 -0.225679,-0.502403 -0.567248,-0.673949 -0.239416,-0.120243 -0.413424,-0.157395 -0.731155,-0.156106 -0.244628,9.92e-4 -0.390358,0.02795 -0.595875,0.110244 -0.417868,0.167318 -0.735933,0.505591 -0.827128,0.879684 -0.09565,0.392364 -0.04846,0.893767 0.121291,1.288632 0.03873,0.0901 0.140024,0.251594 0.210903,0.33625 l 0.06295,0.07519 0.685088,0 c 0.376798,0 0.791701,-0.0074 0.922007,-0.01655 z"
       id="path3575"
       inkscape:connector-curvature="0"
       transform="matrix(0.8,0,0,-0.8,0,45)" /><path
       style="fill:#000000;fill-opacity:1;stroke:#000000;stroke-width:0.01545519;stroke-opacity:1"
       d="m 28.984906,41.012969 c -7.7e-5,-0.277692 -0.02721,-0.654905 -0.0547,-0.760662 -0.0454,-0.174635 -0.167381,-0.361872 -0.444898,-0.682892 -0.17904,-0.207106 -0.301251,-0.318076 -0.377699,-0.342959 -0.06853,-0.0223 -0.583617,-0.05111 -0.800942,-0.04479 l -0.153148,0.0045 -0.0077,0.61048 -0.0077,0.61048 -5.505911,0.0039 -5.505911,0.0039 0,-4.041553 0,-4.041553 0.896401,0 0.896401,0 0,0.09273 0,0.09273 0.09273,0 0.09273,0 0,0.085 0,0.085 0.177735,0 0.177734,0 0,0.09273 0,0.09273 0.177735,0 0.177735,0 0,0.09273 0,0.09273 0.270466,0 0.270465,0 0,0.085 0,0.085 0.44743,0 0.447429,0 0.0046,0.08887 0.0046,0.08887 0.274329,0.0042 0.27433,0.0042 0,-0.09309 0,-0.09309 0.540932,0 0.540931,0 0,-0.085 0,-0.085 0.177735,0 0.177735,0 0,-0.09273 0,-0.09273 0.185462,0 0.185462,0 0,-0.09273 0,-0.09273 0.177735,0 0.177734,0 0,-0.085 0,-0.085 0.177735,0 0.177735,0 0,-0.09273 0,-0.09273 0.09273,0 0.09273,0 0,-0.09273 0,-0.09273 0.09273,0 0.09273,0 0,-0.085 0,-0.085 0.085,0 0.085,0 0,-0.09273 0,-0.09273 0.09273,0 0.09273,0 0,-0.09273 0,-0.09273 0.085,0 0.085,0 0,-0.085 0,-0.085 0.09273,0 0.09273,0 0,-0.09273 0,-0.09273 0.09273,0 0.09273,0 0,-0.177735 0,-0.177734 0.085,0 0.085,0 0,-0.177735 0,-0.177735 0.09273,0 0.09273,0 0,-0.185462 0,-0.185462 0.09273,0 0.09273,0 0,-0.270466 0,-0.270466 0.085,0 0.085,0 0,-0.085 0,-0.085 0.896401,0 0.896401,0 0,0.270466 0,0.270466 0.09273,0 0.09273,0 0,0.177734 0,0.177735 0.08423,0 0.08423,0 0.0046,0.08887 0.0046,0.08887 0.08887,0.0046 0.08887,0.0046 0,0.176963 0,0.176964 0.085,0 0.085,0 0,0.085 0,0.085 0.09273,0 0.09273,0 0,0.09273 0,0.09273 0.09273,0 0.09273,0 0,0.09273 0,0.09273 0.085,0 0.085,0 0,0.085 0,0.085 0.09273,0 0.09273,0 0,0.09273 0,0.09273 0.09273,0 0.09273,0 0,0.09273 0,0.09273 0.08377,0 0.08377,0 0.0051,0.786605 c 0.0047,0.719641 0.0074,0.789119 0.03183,0.816132 0.02281,0.02519 0.02371,0.03394 0.0062,0.05957 -0.01131,0.01652 -0.0251,0.0487 -0.03063,0.07151 -0.0059,0.02432 -0.02444,0.04581 -0.04481,0.05197 -0.05155,0.01557 -0.116951,0.08277 -0.127559,0.131071 -0.0067,0.03039 -0.02126,0.04482 -0.05139,0.05084 -0.066,0.0132 -0.121619,0.06601 -0.132912,0.126211 -0.0095,0.05054 -0.01422,0.05437 -0.06745,0.05445 -0.112737,1.7e-4 -0.174916,0.02994 -0.285476,0.136679 -0.120482,0.116318 -0.174925,0.209257 -0.190249,0.324772 -0.0094,0.07107 -0.0145,0.07939 -0.04837,0.07939 -0.0461,0 -0.12819,0.07816 -0.12819,0.122056 0,0.01952 -0.01763,0.04082 -0.04587,0.05542 -0.05873,0.03037 -0.122576,0.0986 -0.134022,0.143217 -0.0049,0.01913 -0.01651,0.03477 -0.02579,0.03477 -0.01088,0 -0.01001,0.0069 0.0025,0.01932 0.01415,0.01415 0.100814,0.01931 0.323787,0.0193 0.413835,-1.6e-5 0.437328,-0.0092 0.85197,-0.331744 0.391287,-0.304407 0.75787,-0.531591 1.074911,-0.666161 0.176332,-0.07484 0.532726,-0.167372 0.804042,-0.208746 0.230722,-0.03518 0.764567,-0.03986 0.973676,-0.0085 0.20389,0.03055 0.567149,0.10514 0.689523,0.141584 0.129032,0.03843 0.459637,0.205279 0.670534,0.338408 0.447802,0.282677 0.702854,0.526664 1.119008,1.070459 0.197249,0.257749 0.310577,0.381416 0.388326,0.42375 0.04584,0.02496 0.08621,0.02909 0.27774,0.02839 0.266655,-9.74e-4 0.327259,-0.01897 0.364573,-0.108275 0.02115,-0.05062 0.02102,-0.05981 -0.0013,-0.0939 -0.01362,-0.02078 -0.04832,-0.04902 -0.07712,-0.06276 -0.04977,-0.02374 -0.05285,-0.03001 -0.06222,-0.126894 -0.01427,-0.147518 -0.02592,-0.174362 -0.09628,-0.221844 -0.03738,-0.02523 -0.07644,-0.07002 -0.09564,-0.109673 -0.03003,-0.06203 -0.08192,-0.102694 -0.13105,-0.102694 -0.0132,0 -0.02394,-0.03077 -0.03065,-0.08779 -0.01158,-0.09852 -0.04777,-0.166617 -0.124248,-0.233764 -0.02852,-0.02504 -0.05626,-0.05943 -0.06166,-0.07643 -0.01231,-0.03879 -0.112292,-0.142948 -0.137215,-0.142948 -0.01023,0 -0.03265,-0.02917 -0.04984,-0.06483 -0.02228,-0.04622 -0.04979,-0.07395 -0.09586,-0.0966 -0.03648,-0.01793 -0.06493,-0.04302 -0.06533,-0.05762 -0.0013,-0.0456 -0.07679,-0.119338 -0.133023,-0.129886 -0.03787,-0.0071 -0.05316,-0.01821 -0.05316,-0.03863 0,-0.03876 -0.0875,-0.136012 -0.132538,-0.147316 -0.02,-0.005 -0.04021,-0.02125 -0.04492,-0.03608 -0.01708,-0.0538 -0.142499,-0.126208 -0.244071,-0.1409 -0.05292,-0.0077 -0.10144,-0.01406 -0.107815,-0.01423 -0.0064,-1.71e-4 -0.01159,-0.399661 -0.01159,-0.887756 l 0,-0.887445 0.04419,-0.0097 c 0.05417,-0.0119 0.119968,-0.07848 0.134114,-0.13571 0.0058,-0.02338 0.02016,-0.0425 0.03197,-0.0425 0.03254,0 0.140797,-0.104017 0.151138,-0.14522 0.0062,-0.02469 0.02385,-0.03924 0.05519,-0.04551 0.05854,-0.01171 0.107273,-0.06015 0.118877,-0.118175 0.008,-0.04012 0.0171,-0.04636 0.08066,-0.05543 0.09822,-0.01403 0.213575,-0.06507 0.249083,-0.11021 0.01904,-0.0242 0.03325,-0.07554 0.04007,-0.144677 0.0086,-0.08737 0.01551,-0.107163 0.03739,-0.107163 0.04203,0 0.104746,-0.0576 0.125645,-0.115397 0.01159,-0.03206 0.03229,-0.05597 0.05294,-0.06115 0.03784,-0.0095 0.146004,-0.121926 0.146155,-0.151922 0,-0.0106 0.01982,-0.03049 0.04393,-0.0442 0.05261,-0.02992 0.125982,-0.169448 0.125982,-0.23958 0,-0.02739 0.0042,-0.06079 0.0094,-0.07424 0.0085,-0.02221 0.396021,-0.02445 4.234722,-0.02445 l 4.22534,0 0,0.826853 0,0.826852 -0.104323,1.24e-4 c -0.05738,6.2e-5 -0.163015,0.0069 -0.23475,0.01511 -0.127084,0.01461 -0.132037,0.01674 -0.19319,0.08299 -0.04071,0.04411 -0.08176,0.07204 -0.116855,0.07951 -0.102046,0.02172 -0.243647,0.112338 -0.390237,0.249734 -0.03839,0.03598 -0.100104,0.07349 -0.145993,0.08873 -0.04372,0.01452 -0.126996,0.05988 -0.185058,0.100801 -0.131029,0.09235 -0.393917,0.326946 -0.420257,0.375038 -0.01077,0.01966 -0.05033,0.05454 -0.08792,0.07752 -0.03759,0.02298 -0.08117,0.06286 -0.09684,0.08864 -0.01568,0.02578 -0.05212,0.06278 -0.08099,0.08224 -0.02887,0.01946 -0.0684,0.05899 -0.08786,0.08786 -0.01945,0.02887 -0.05439,0.06406 -0.07764,0.07821 -0.02325,0.01414 -0.06224,0.05454 -0.08664,0.08976 -0.0244,0.03522 -0.07752,0.09723 -0.118033,0.137799 -0.07535,0.07544 -0.107816,0.149893 -0.107983,0.247629 0,0.03426 -0.0074,0.05023 -0.02322,0.05023 -0.0336,0 -0.142168,0.102807 -0.152643,0.144543 -0.0049,0.01959 -0.02624,0.0435 -0.04739,0.05314 -0.05101,0.02324 -0.117413,0.157148 -0.127791,0.257691 -0.0072,0.06988 -0.01376,0.08227 -0.05083,0.09627 -0.03191,0.01205 -0.0488,0.03493 -0.06756,0.09154 -0.02091,0.06313 -0.07034,0.353827 -0.0713,0.419361 -1.54e-4,0.01063 -0.01659,0.01932 -0.03653,0.01932 -0.0413,0 -0.07791,0.03486 -0.101344,0.09649 -0.03954,0.103985 0.03442,0.125913 0.392597,0.1164 0.307705,-0.0082 0.347847,-0.02024 0.435142,-0.13079 0.05804,-0.07351 0.08746,-0.125573 0.354428,-0.627278 0.317884,-0.59739 0.655119,-0.977818 1.169188,-1.318934 0.524642,-0.348133 1.077494,-0.522096 1.722414,-0.541985 0.339677,-0.01047 0.534077,0.0058 0.873022,0.07311 0.293516,0.05829 0.388612,0.0905 0.661054,0.223931 0.275039,0.134702 0.399526,0.211244 0.762862,0.469054 0.493255,0.349994 0.570262,0.379987 0.949021,0.369622 0.159141,-0.0044 0.25899,-0.01341 0.27007,-0.02449 0.03539,-0.03539 -0.136171,-0.244032 -0.512681,-0.623481 -0.418063,-0.421327 -0.57495,-0.548035 -0.726729,-0.586935 -0.04697,-0.01204 -0.08012,-0.03003 -0.08528,-0.04629 -0.0079,-0.025 -0.07737,-0.09084 -0.197746,-0.187496 -0.06493,-0.05213 -0.23869,-0.13557 -0.282368,-0.135587 -0.01781,-6e-6 -0.04459,-0.01351 -0.05952,-0.03 -0.03724,-0.04115 -0.141452,-0.07419 -0.300092,-0.09514 -0.131142,-0.01732 -0.225757,-0.05186 -0.262157,-0.09572 -0.01387,-0.01672 -0.01743,-0.235224 -0.01442,-0.885939 l 0.004,-0.863756 5.420907,-0.0039 5.420907,-0.0039 0,5.123417 0,5.123416 -4.327452,0 -4.327453,0 0.002,-0.776623 c 0.0011,-0.427143 0.0063,-0.828374 0.01159,-0.891625 0.0094,-0.112955 0.01043,-0.115223 0.05791,-0.127456 0.05693,-0.01467 0.07283,-0.04772 0.103338,-0.214859 0.01608,-0.08807 0.03258,-0.130124 0.06624,-0.168752 0.02465,-0.0283 0.08205,-0.09368 0.127554,-0.145303 0.09081,-0.103018 0.129064,-0.168745 0.155623,-0.267381 0.01724,-0.06403 0.05159,-0.112659 0.07958,-0.112659 0.0079,0 0.01435,-0.0061 0.01435,-0.01362 0,-0.02522 -0.13001,-0.04651 -0.347741,-0.05694 l -0.216373,-0.01036 -0.09678,0.06505 c -0.124402,0.08361 -0.296349,0.244209 -0.83439,0.779332 l -0.436609,0.43424 0,0.285959 c 0,0.157277 -0.0046,0.458117 -0.0102,0.668533 l -0.01017,0.382575 -1.956467,-0.0039 -1.956503,-0.0039 -0.01696,-0.780487 c -0.01408,-0.647816 -0.02106,-0.789682 -0.0411,-0.83458 -0.01328,-0.02975 -0.07445,-0.102777 -0.135939,-0.16228 -0.151088,-0.146208 -0.28649,-0.309408 -0.493671,-0.595025 -0.305702,-0.421436 -0.287216,-0.409943 -0.656931,-0.408404 -0.314046,0.0013 -0.363391,0.01213 -0.362857,0.0796 4.33e-4,0.05526 0.0534,0.172124 0.0832,0.183556 0.01291,0.005 0.03065,0.04561 0.04041,0.0926 0.0096,0.04608 0.04064,0.118326 0.06907,0.160559 0.06773,0.100642 0.22531,0.27655 0.256765,0.286622 0.01928,0.0062 0.02698,0.03923 0.0348,0.149463 0.01067,0.150258 0.03619,0.213305 0.08636,0.213305 0.08283,0 0.07818,-0.05385 0.07818,0.905782 l 0,0.887019 -2.967396,0 -2.967396,0 0,-0.723989 c 0,-0.398195 0.0045,-0.797903 0.01005,-0.888241 l 0.01005,-0.164252 0.04949,-0.01633 c 0.06116,-0.02019 0.07783,-0.05551 0.101025,-0.214158 0.01706,-0.116673 0.02189,-0.127503 0.0745,-0.166988 0.03094,-0.02322 0.06137,-0.04955 0.06761,-0.0585 0.0245,-0.03511 0.01094,-0.103572 -0.02829,-0.142799 -0.03902,-0.03902 -0.044,-0.03986 -0.181598,-0.03056 -0.17052,0.01152 -0.561292,0.0903 -0.64055,0.129143 -0.054,0.02646 -0.05887,0.03523 -0.09185,0.165225 -0.04313,0.170003 -0.144238,0.407818 -0.276756,0.650933 -0.199123,0.365312 -0.335574,0.544126 -0.730638,0.957481 -0.406694,0.425522 -0.439287,0.489434 -0.467082,0.915895 -0.01189,0.18245 -0.02345,0.266888 -0.03893,0.284539 -0.03257,0.03711 -0.195678,0.04234 -1.859927,0.05962 -0.811783,0.0084 -1.641147,0.01857 -1.843031,0.02253 l -0.367061,0.0072 -6.1e-5,-0.188601 7e-6,0 z m 2.623384,-2.237604 c 0.193617,-0.02159 0.483361,-0.09512 0.566258,-0.143698 0.08615,-0.05049 0.257854,-0.221781 0.332254,-0.331463 0.133272,-0.196473 0.24735,-0.491579 0.281164,-0.727341 0.02407,-0.167804 0.01013,-0.606277 -0.02359,-0.742194 -0.0286,-0.115259 -0.123258,-0.323945 -0.19278,-0.424992 -0.221564,-0.322031 -0.698009,-0.64306 -1.094554,-0.737511 -0.194745,-0.04639 -0.481794,-0.03599 -0.668365,0.0242 -0.389707,0.125729 -0.732079,0.374 -0.983372,0.71309 -0.242473,0.327188 -0.335258,0.653856 -0.298335,1.05035 0.03471,0.372765 0.232264,0.785483 0.5071,1.059423 0.148431,0.147947 0.265412,0.215932 0.434593,0.252569 0.125036,0.02708 0.917472,0.03234 1.139631,0.0076 z m 13.127759,-1.62189 c 0.498175,-0.02513 0.649806,-0.06368 0.739957,-0.188126 0.106115,-0.146488 0.128125,-0.344616 0.119166,-1.072684 -0.0075,-0.606916 -0.01213,-0.643215 -0.106517,-0.830201 -0.08829,-0.174905 -0.243597,-0.307314 -0.511899,-0.436432 -0.195969,-0.09431 -0.347519,-0.130526 -0.591711,-0.14141 -0.240802,-0.01073 -0.40624,0.0098 -0.601742,0.07465 -0.477675,0.158468 -0.819127,0.504236 -0.929038,0.940786 -0.04104,0.163014 -0.04178,0.643903 -0.0013,0.83458 0.06562,0.308977 0.188471,0.580372 0.339298,0.749597 l 0.07575,0.08498 0.582197,-2.13e-4 c 0.320208,-1.24e-4 0.71883,-0.0071 0.885825,-0.01553 l 0,-10e-7 z"
       id="path3577"
       inkscape:connector-curvature="0"
       transform="matrix(0.8,0,0,-0.8,0,45)" /><path
       style="fill:#000000;fill-opacity:1;stroke:#000000;stroke-width:0.04419417;stroke-opacity:1"
       d="m 47.430612,39.544007 c 0,-0.802861 0.006,-0.86783 0.08839,-0.950175 0.04861,-0.04861 0.08839,-0.129788 0.08839,-0.180387 0,-0.0506 0.06663,-0.174896 0.148078,-0.276213 0.08144,-0.101319 0.178518,-0.247171 0.215723,-0.324116 l 0.06764,-0.139901 -0.261083,-0.0303 c -0.256438,-0.02976 -0.265191,-0.02711 -0.491937,0.148844 -0.126969,0.09853 -0.438608,0.388202 -0.692532,0.643715 l -0.46168,0.46457 -0.01888,0.664487 -0.01888,0.664488 -0.546958,0 -0.546958,0 0,-1.542912 0,-1.542911 0.171958,-0.02905 c 0.265033,-0.04478 0.358383,-0.177158 0.410538,-0.58219 0.02455,-0.190686 0.032,-0.555519 0.01654,-0.810741 -0.03464,-0.572084 -0.123092,-0.783355 -0.401861,-0.959917 l -0.193951,-0.12284 -0.0016,-0.982216 -0.0016,-0.982215 0.143631,0.02509 c 0.250451,0.04375 0.858178,0.355978 1.341364,0.689154 l 0.46714,0.322111 0.371855,0.01558 c 0.233072,0.0098 0.371855,-0.0012 0.371855,-0.02941 0,-0.07912 -0.866826,-0.954244 -1.058788,-1.068927 -0.101715,-0.06077 -0.264703,-0.17491 -0.362195,-0.253652 C 46.066842,32.20601 45.759836,32.062582 45.529407,32.025735 45.23336,31.978395 45.243,32.011261 45.243,31.049345 l 0,-0.874503 0.287262,-0.01499 c 0.157994,-0.0082 4.906106,-8.09e-4 10.551359,0.01651 l 10.264097,0.0315 0,0.878418 0,0.878418 -0.139351,0 c -0.181816,0 -0.630327,0.21366 -0.871519,0.41517 -0.104905,0.08764 -0.217363,0.159355 -0.249908,0.159355 -0.07121,0 -0.741714,0.627795 -1.000072,0.936376 -0.218479,0.260948 -0.193396,0.299352 0.196192,0.300384 0.326494,8.66e-4 0.485632,-0.06773 0.924685,-0.398565 0.749017,-0.564401 1.219081,-0.723813 2.134342,-0.723813 0.726668,0 1.011445,0.06298 1.546796,0.342101 0.501412,0.261421 1.157612,0.91948 1.439788,1.443866 0.245238,0.455743 0.327693,0.508295 0.729929,0.46522 0.155172,-0.01662 0.292347,-0.04675 0.304835,-0.06695 0.03639,-0.05887 -0.0256,-0.177297 -0.09279,-0.177297 -0.04087,0 -0.06156,-0.05187 -0.06156,-0.154305 0,-0.106443 -0.02742,-0.171427 -0.08839,-0.209505 -0.04861,-0.03036 -0.08839,-0.09705 -0.08839,-0.148204 0,-0.05115 -0.03977,-0.129001 -0.08839,-0.172996 -0.04861,-0.044 -0.08839,-0.09831 -0.08839,-0.120691 0,-0.170121 -0.980239,-1.157967 -1.306401,-1.316539 -0.0987,-0.04798 -0.235116,-0.145348 -0.303153,-0.216363 -0.06804,-0.07102 -0.175326,-0.142076 -0.238419,-0.157911 -0.06309,-0.01584 -0.141591,-0.06716 -0.17444,-0.114061 -0.0453,-0.06468 -0.112488,-0.08527 -0.27819,-0.08527 -0.185836,0 -0.218465,-0.01265 -0.218465,-0.0847 0,-0.04659 0.02486,-0.09474 0.05524,-0.106997 0.04419,-0.01783 0.04419,-0.02299 0,-0.02578 -0.04196,-0.0027 -0.05524,-0.189493 -0.05524,-0.776887 l 0,-0.773399 2.706893,-0.0017 c 3.433775,-0.0022 5.295217,-0.05568 5.860304,-0.16845 0.227353,-0.04537 0.426227,-0.102516 0.441941,-0.126986 0.01571,-0.02447 0.0764,-0.05943 0.134851,-0.07769 0.131759,-0.04116 1.114759,-1.037928 1.22443,-1.241576 0.04414,-0.08197 0.40416,-0.482281 0.800037,-0.889581 0.50127,-0.515733 0.719777,-0.770993 0.719777,-0.840844 0,-0.07084 0.02596,-0.100299 0.08839,-0.100299 0.05893,0 0.08839,-0.02946 0.08839,-0.08839 0,-0.05141 0.02946,-0.08839 0.07043,-0.08839 0.03874,0 0.08083,-0.03977 0.09354,-0.08839 0.01271,-0.04861 0.05125,-0.08839 0.08564,-0.08839 0.03439,0 0.0734,-0.02833 0.08668,-0.06296 0.01329,-0.03463 0.130713,-0.174744 0.260946,-0.311371 0.130232,-0.136626 0.298538,-0.341972 0.374013,-0.456323 0.176795,-0.26786 1.045185,-1.158085 1.129681,-1.158085 0.03552,0 0.06458,-0.03977 0.06458,-0.08839 0,-0.08827 0.02946,-0.08839 22.58646,-0.08839 21.48707,0 22.58575,0.0038 22.57173,0.07734 -0.008,0.04254 -0.0593,0.08369 -0.11373,0.09146 -0.0635,0.0091 -0.099,0.04474 -0.099,0.09944 0,0.06225 -0.0308,0.08531 -0.11404,0.08531 -0.16127,0 -0.76984,0.608566 -0.76984,0.769834 0,0.07295 -0.0244,0.11405 -0.0677,0.11405 -0.0372,0 -0.0804,0.03328 -0.0961,0.07396 -0.0156,0.04068 -0.0647,0.110286 -0.1091,0.154679 -0.0444,0.04439 -0.0807,0.126015 -0.0807,0.18138 0,0.05537 -0.0398,0.13472 -0.0884,0.176344 -0.0486,0.04162 -0.0884,0.121174 -0.0884,0.176777 0,0.0556 -0.0398,0.135152 -0.0884,0.176776 -0.0486,0.04162 -0.0884,0.119056 -0.0884,0.17207 0,0.05302 -0.0342,0.13422 -0.0761,0.180456 -0.0518,0.05724 -0.0816,0.181764 -0.0934,0.390179 -0.01,0.168362 -0.0349,0.306113 -0.0565,0.306113 -0.0216,0 -0.0392,0.328141 -0.0392,0.729204 0,0.401062 0.0175,0.729203 0.0389,0.729203 0.0214,0 0.0475,0.114353 0.058,0.254117 0.0105,0.139764 0.0504,0.323722 0.0885,0.408796 0.0382,0.08507 0.094,0.219314 0.12411,0.298311 0.0301,0.079 0.0697,0.143631 0.088,0.143631 0.0183,0 0.0448,0.05727 0.0588,0.127255 0.014,0.06999 0.0521,0.154512 0.0847,0.187825 0.0326,0.03331 0.0871,0.128449 0.12101,0.211413 0.034,0.08296 0.1574,0.249591 0.27435,0.370283 0.11694,0.120693 0.21262,0.256237 0.21262,0.301211 0,0.115541 0.42752,0.524911 0.58004,0.555415 0.0699,0.01398 0.12706,0.03988 0.12706,0.05756 0,0.05013 0.49632,0.426817 0.60909,0.462276 0.0555,0.01744 0.14903,0.07989 0.20792,0.138769 0.0589,0.05888 0.14773,0.107057 0.19745,0.107057 0.0497,0 0.0904,0.01794 0.0904,0.03987 0,0.05269 0.24645,0.136906 0.40066,0.136906 0.0673,0 0.12928,0.02094 0.13781,0.04653 0.0219,0.06559 0.32192,0.127947 0.62163,0.129191 0.1947,8.08e-4 0.25411,0.01638 0.25411,0.06662 0,0.05602 -0.17223,0.06739 -1.18219,0.07809 -0.65021,0.0069 0.53309,0.01716 2.62955,0.02282 3.35418,0.0091 3.81175,0.01825 3.81175,0.07659 0,0.05877 -1.44859,0.06629 -12.77212,0.06629 -11.16624,0 -12.77211,-0.0081 -12.77211,-0.0645 0,-0.05013 0.0813,-0.06782 0.3646,-0.07939 0.36459,-0.01489 0.36458,-0.01489 -0.0898,-0.02388 -0.34045,-0.0067 -0.46028,-0.02437 -0.47791,-0.07033 -0.0129,-0.03373 -0.0835,-0.07333 -0.15681,-0.08799 -0.0733,-0.01466 -0.24463,-0.125904 -0.38073,-0.247208 -0.1361,-0.121305 -0.3135,-0.242352 -0.39423,-0.268994 -0.0807,-0.02664 -0.14677,-0.06679 -0.14677,-0.08921 0,-0.02242 -0.0199,-0.04077 -0.0442,-0.04077 -0.0259,0 -0.0442,0.150884 -0.0442,0.364263 l 0,0.364263 0.32303,0.311715 c 0.39993,0.385917 0.579,0.476383 0.9807,0.49546 0.37512,0.01782 0.49151,-0.03744 0.3425,-0.162615 -0.0636,-0.05346 -0.0994,-0.132679 -0.0994,-0.220072 l 0,-0.136548 12.68373,0 12.68373,0 0,3.579729 0,3.579728 -12.79828,0 -12.79828,0 0.0151,-0.85152 0.0151,-0.851521 0.15854,-0.153897 c 0.20041,-0.194542 0.39389,-0.454313 0.39389,-0.528847 0,-0.03149 0.0294,-0.07933 0.0654,-0.106314 0.036,-0.02699 0.0708,-0.09878 0.0773,-0.159552 0.0114,-0.105537 0,-0.111091 -0.25143,-0.124014 -0.14482,-0.0074 -0.30591,-0.0028 -0.35797,0.01023 -0.052,0.01307 -0.39594,0.319234 -0.76419,0.680374 l -0.66954,0.65662 0,0.625833 0,0.625834 -1.92245,0 -1.92245,0 0,-0.797758 0,-0.797759 -0.33613,-0.384436 c -0.56327,-0.64421 -0.53808,-0.627503 -0.9462,-0.627503 -0.2739,0 -0.35285,0.01392 -0.35285,0.06221 0,0.134373 0.24942,0.531823 0.48318,0.769938 l 0.24602,0.250607 0.0137,0.850738 0.0137,0.850738 -8.494624,0 -8.494618,0 0.0248,-0.855525 0.0248,-0.855525 0.181,-0.194087 c 0.09955,-0.106747 0.221673,-0.276999 0.271385,-0.378336 0.04971,-0.101336 0.11922,-0.20818 0.154464,-0.23743 0.08492,-0.07048 0.08166,-0.202934 -0.0058,-0.236505 -0.03845,-0.01475 -0.173796,-0.02683 -0.300773,-0.02683 -0.287095,0 -0.3206,0.02432 -1.078647,0.782872 l -0.583606,0.583998 0,0.620293 0,0.620293 -1.944544,0 -1.944543,0 -2.66e-4,-0.673961 c -1.32e-4,-0.370679 -0.02093,-0.748424 -0.0462,-0.839434 -0.02527,-0.09101 -0.173413,-0.332517 -0.329196,-0.536683 -0.155782,-0.204165 -0.369264,-0.52745 -0.474405,-0.71841 l -0.191165,-0.347201 -0.35208,-0.0131 c -0.193644,-0.0072 -0.396591,-0.0019 -0.450992,0.01172 -0.09866,0.02476 -0.09869,0.02505 -0.0112,0.11254 0.04826,0.04824 0.08773,0.12749 0.08773,0.176104 0,0.04861 0.03977,0.128163 0.08839,0.176776 0.04861,0.04861 0.08839,0.13598 0.08839,0.194146 0,0.05817 0.02728,0.116226 0.06063,0.129021 0.03334,0.01279 0.102568,0.109388 0.153832,0.21465 0.05126,0.105264 0.173855,0.279207 0.272426,0.386543 l 0.17922,0.195155 0.02749,0.854456 0.02749,0.854457 -5.045121,0 -5.045122,0 0,-0.96859 c 0,-0.585303 0.01694,-0.974418 0.04281,-0.98332 0.07013,-0.02413 0.487517,-0.536445 0.487517,-0.598391 0,-0.03144 0.03977,-0.09693 0.08839,-0.145544 0.04861,-0.04861 0.08839,-0.129584 0.08839,-0.179933 0,-0.05035 0.02983,-0.121377 0.06629,-0.157837 0.03646,-0.03646 0.06629,-0.115335 0.06629,-0.175278 0,-0.108914 -2.65e-4,-0.108979 -0.408796,-0.09628 l -0.408796,0.01271 -0.15468,0.298343 c -0.225189,0.434339 -0.531611,0.828015 -0.907135,1.165441 l -0.330302,0.296793 0,0.677556 0,0.677556 -1.915822,0 -1.915823,0 -0.03123,-0.779306 -0.03123,-0.779307 -0.295798,-0.334915 c -0.64617,-0.731621 -0.622644,-0.713928 -0.94928,-0.713928 -0.419064,0 -0.434091,0.01075 -0.327321,0.234205 0.04879,0.102102 0.143185,0.245301 0.209775,0.318222 0.06659,0.07292 0.134627,0.197098 0.151194,0.27595 0.01657,0.07885 0.05622,0.158402 0.08812,0.176777 0.04296,0.02475 0.06638,0.259728 0.09032,0.906244 l 0.03232,0.872835 -8.402281,0 -8.40228,0 0,-0.861787 z m 20.947806,-2.477483 c 0.365541,-0.214102 0.55311,-1.025551 0.377939,-1.635013 -0.06295,-0.219009 -0.121732,-0.308089 -0.353273,-0.535337 -0.232066,-0.227761 -0.32676,-0.287744 -0.575598,-0.364601 -0.920233,-0.284232 -1.68961,0.130852 -1.973216,1.06456 -0.119527,0.393516 -0.08785,0.678233 0.12216,1.098019 0.230273,0.460288 0.3027,0.483802 1.452045,0.47141 0.712608,-0.0077 0.811588,-0.018 0.949943,-0.09904 z m 16.260877,0.04074 c 0.181371,-0.03627 0.200447,-0.15115 0.201129,-1.211217 6.45e-4,-1.004457 -0.0013,-1.010273 -0.403606,-1.221506 -0.508937,-0.267203 -0.993997,-0.29564 -1.453617,-0.08522 -0.326112,0.149299 -0.530195,0.349962 -0.693527,0.681904 -0.132121,0.268513 -0.144254,0.327989 -0.141228,0.692277 0.005,0.604966 0.245877,1.135136 0.539655,1.187907 0.154129,0.02768 1.77545,-0.009 1.951194,-0.04415 z m 23.005875,-0.0083 c 0.22316,-0.05981 0.25491,-0.193034 0.27838,-1.168321 l 0.0211,-0.875808 -0.2008,-0.192403 c -0.53714,-0.514669 -1.53094,-0.549854 -2.07226,-0.07337 -0.53385,0.46991 -0.69492,1.341367 -0.36125,1.954438 0.14544,0.267214 0.24478,0.340759 0.53118,0.393265 0.2424,0.04444 1.60325,0.01592 1.80368,-0.0378 z M 80.306235,34.869822 c 0.0581,-0.03003 0.217202,-0.23941 0.353553,-0.4653 0.428812,-0.710405 0.869199,-1.130251 1.540997,-1.469121 0.572932,-0.288999 1.332395,-0.375834 2.106463,-0.240848 0.570337,0.09946 1.070623,0.348686 1.567701,0.780981 0.231495,0.201326 0.535956,0.301134 0.918596,0.301134 0.284555,0 0.334026,-0.0321 0.209172,-0.135718 -0.03854,-0.03198 -0.100496,-0.134198 -0.137686,-0.227143 -0.07622,-0.190491 -0.588133,-0.685122 -0.751494,-0.726123 -0.05747,-0.01442 -0.173361,-0.09311 -0.257542,-0.174864 -0.08418,-0.08175 -0.20759,-0.162326 -0.27424,-0.179054 -0.06665,-0.01673 -0.147658,-0.05689 -0.180019,-0.08925 -0.03236,-0.03236 -0.102162,-0.05914 -0.155117,-0.05951 -0.118815,-8.36e-4 -0.182509,-0.04229 -0.219651,-0.142955 -0.01834,-0.04971 -0.07507,-0.07734 -0.158821,-0.07734 -0.07166,0 -0.138573,-0.02486 -0.148701,-0.05524 -0.01406,-0.04218 -0.272776,-0.05524 -1.093806,-0.05524 -0.82103,0 -1.079747,0.01307 -1.093806,0.05524 -0.01013,0.03038 -0.07704,0.05524 -0.148701,0.05524 -0.08375,0 -0.140479,0.02763 -0.158821,0.07734 -0.03714,0.100666 -0.100835,0.142119 -0.219651,0.142955 -0.05295,3.53e-4 -0.12513,0.02952 -0.16039,0.06479 -0.03526,0.03526 -0.116256,0.0772 -0.179992,0.09319 -0.06374,0.016 -0.226413,0.134442 -0.361505,0.263212 -0.135093,0.12877 -0.295341,0.246605 -0.356107,0.261856 -0.153329,0.03848 -0.48169,0.351201 -0.549194,0.52303 -0.0308,0.07839 -0.120333,0.212126 -0.198972,0.2972 -0.07864,0.08507 -0.157914,0.20411 -0.176164,0.264525 -0.01825,0.06041 -0.09234,0.183454 -0.164636,0.273421 -0.07395,0.09203 -0.156213,0.270085 -0.188056,0.40707 -0.05075,0.218303 -0.04907,0.245494 0.0162,0.26283 0.155015,0.04117 0.519732,0.02571 0.620388,-0.0263 z m 23.817605,-1.233616 c 0.26501,-0.131506 0.35472,-0.310903 0.39105,-0.781984 0.0278,-0.360752 -9.8e-4,-0.433891 -0.11615,-0.295105 -0.0293,0.03524 -0.1404,0.106299 -0.24699,0.1579 -0.22263,0.107772 -0.61265,0.513929 -0.70442,0.73356 -0.0343,0.08212 -0.0911,0.149314 -0.1262,0.149314 -0.0716,0 -0.12761,0.10704 -0.0813,0.15528 0.0637,0.06627 0.67705,-0.01628 0.88399,-0.118965 z"
       id="path3579"
       inkscape:connector-curvature="0"
       transform="matrix(0.8,0,0,-0.8,0,45)" /></g></svg>