999
dxfrw 0.5.11
0
SECTION
2
HEADER
9
$ACADVER
1
AC1021
9
$HANDSEED
5
20000
9
$DWGCODEPAGE
3
ANSI_1252
9
$INSBASE
10
0
20
0
30
0
9
$EXTMIN
10
-763.306774536
20
-263.61
30
0
9
$EXTMAX
10
982.033242985
20
196.277953189
30
0
9
$LIMMIN
10
0
20
0
9
$LIMMAX
10
420
20
297
9
$ORTHOMODE
70
0
9
$LTSCALE
40
1
9
$TEXTSTYLE
7
STANDARD
9
$CLAYER
8
guides
9
$DIMASZ
40
2.5
9
$DIMLFAC
40
1
9
$DIMSCALE
40
1
9
$DIMEXO
40
0.625
9
$DIMEXE
40
100
9
$DIMTXT
40
2.5
9
$DIMTSZ
40
0
9
$DIMAUNIT
70
0
9
$DIMADEC
70
2
9
$DIMLUNIT
70
2
9
$DIMSTYLE
2
Standard
9
$DIMGAP
40
0.625
9
$DIMTIH
70
0
9
$LUNITS
70
2
9
$LUPREC
70
4
9
$AUNITS
70
0
9
$AUPREC
70
2
9
$SPLINESEGS
70
8
9
$GRIDMODE
70
0
9
$SNAPSTYLE
70
0
9
$GRIDUNIT
10
0
20
0
9
$PINSBASE
10
0
20
0
30
0
9
$PLIMMIN
10
0
20
0
9
$PLIMMAX
10
210
20
297
9
$INSUNITS
70
4
9
$PSVPSCALE
40
1
0
ENDSEC
0
SECTION
2
CLASSES
0
ENDSEC
0
SECTION
2
TABLES
0
TABLE
2
VPORT
5
8
330
0
100
AcDbSymbolTable
70
1
0
VPORT
5
31
330
2
100
AcDbSymbolTableRecord
100
AcDbViewportTableRecord
2
*ACTIVE
70
0
10
0
20
0
11
1
21
1
12
428.471467933
22
172.025719468
13
0
23
0
14
10
24
10
15
10
25
10
16
0
26
0
36
1
17
0
27
0
37
0
40
832.51953125
41
1.97193877551
42
50
43
0
44
0
50
0
51
0
71
0
72
100
73
1
74
3
75
0
76
0
77
0
78
0
281
0
65
1
110
0
120
0
130
0
111
1
121
0
131
0
112
0
122
1
132
0
79
0
146
0
348
10020
60
7
61
5
292
1
282
1
141
0
142
0
63
250
421
3358443
0
ENDTAB
0
TABLE
2
LTYPE
5
5
330
0
100
AcDbSymbolTable
70
4
0
LTYPE
5
14
330
5
100
AcDbSymbolTableRecord
100
AcDbLinetypeTableRecord
2
ByBlock
70
0
3

72
65
73
0
40
0
0
LTYPE
5
15
330
5
100
AcDbSymbolTableRecord
100
AcDbLinetypeTableRecord
2
ByLayer
70
0
3

72
65
73
0
40
0
0
LTYPE
5
16
330
5
100
AcDbSymbolTableRecord
100
AcDbLinetypeTableRecord
2
Continuous
70
0
3
Solid line
72
65
73
0
40
0
0
LTYPE
5
32
330
5
100
AcDbSymbolTableRecord
100
AcDbLinetypeTableRecord
2
DOT
70
0
3
Dot . . . . . . . . . . . . . . . . . . . . . .
72
65
73
2
40
6.35
49
0
74
0
49
-6.35
74
0
0
LTYPE
5
33
330
5
100
AcDbSymbolTableRecord
100
AcDbLinetypeTableRecord
2
DOT2
70
0
3
Dot (.5x) .....................................
72
65
73
2
40
3.175
49
0
74
0
49
-3.175
74
0
0
LTYPE
5
34
330
5
100
AcDbSymbolTableRecord
100
AcDbLinetypeTableRecord
2
DOTX2
70
0
3
Dot (2x) .  .  .  .  .  .  .  .  .  .  .  .  .
72
65
73
2
40
12.7
49
0
74
0
49
-12.7
74
0
0
LTYPE
5
35
330
5
100
AcDbSymbolTableRecord
100
AcDbLinetypeTableRecord
2
DASHED
70
0
3
Dot . . . . . . . . . . . . . . . . . . . . . .
72
65
73
2
40
19.05
49
12.7
74
0
49
-6.35
74
0
0
LTYPE
5
36
330
5
100
AcDbSymbolTableRecord
100
AcDbLinetypeTableRecord
2
DASHED2
70
0
3
Dashed (.5x) _ _ _ _ _ _ _ _ _ _ _ _ _ _ _ _ _
72
65
73
2
40
9.525
49
6.35
74
0
49
-3.175
74
0
0
LTYPE
5
37
330
5
100
AcDbSymbolTableRecord
100
AcDbLinetypeTableRecord
2
DASHEDX2
70
0
3
Dashed (2x) ____  ____  ____  ____  ____  ___
72
65
73
2
40
38.1
49
25.4
74
0
49
-12.7
74
0
0
LTYPE
5
38
330
5
100
AcDbSymbolTableRecord
100
AcDbLinetypeTableRecord
2
DASHDOT
70
0
3
Dash dot __ . __ . __ . __ . __ . __ . __ . __
72
65
73
4
40
25.4
49
12.7
74
0
49
-6.35
74
0
49
0
74
0
49
-6.35
74
0
0
LTYPE
5
39
330
5
100
AcDbSymbolTableRecord
100
AcDbLinetypeTableRecord
2
DASHDOT2
70
0
3
Dash dot (.5x) _._._._._._._._._._._._._._._.
72
65
73
4
40
12.7
49
6.35
74
0
49
-3.175
74
0
49
0
74
0
49
-3.175
74
0
0
LTYPE
5
3A
330
5
100
AcDbSymbolTableRecord
100
AcDbLinetypeTableRecord
2
DASHDOTX2
70
0
3
Dash dot (2x) ____  .  ____  .  ____  .  ___
72
65
73
4
40
50.8
49
25.4
74
0
49
-12.7
74
0
49
0
74
0
49
-12.7
74
0
0
LTYPE
5
3B
330
5
100
AcDbSymbolTableRecord
100
AcDbLinetypeTableRecord
2
DIVIDE
70
0
3
Divide ____ . . ____ . . ____ . . ____ . . ____
72
65
73
6
40
31.75
49
12.7
74
0
49
-6.35
74
0
49
0
74
0
49
-6.35
74
0
49
0
74
0
49
-6.35
74
0
0
LTYPE
5
3C
330
5
100
AcDbSymbolTableRecord
100
AcDbLinetypeTableRecord
2
DIVIDE2
70
0
3
Divide (.5x) __..__..__..__..__..__..__..__.._
72
65
73
6
40
15.875
49
6.35
74
0
49
-3.175
74
0
49
0
74
0
49
-3.175
74
0
49
0
74
0
49
-3.175
74
0
0
LTYPE
5
3D
330
5
100
AcDbSymbolTableRecord
100
AcDbLinetypeTableRecord
2
DIVIDEX2
70
0
3
Divide (2x) ________  .  .  ________  .  .  _
72
65
73
6
40
63.5
49
25.4
74
0
49
-12.7
74
0
49
0
74
0
49
-12.7
74
0
49
0
74
0
49
-12.7
74
0
0
LTYPE
5
3E
330
5
100
AcDbSymbolTableRecord
100
AcDbLinetypeTableRecord
2
BORDER
70
0
3
Border __ __ . __ __ . __ __ . __ __ . __ __ .
72
65
73
6
40
44.45
49
12.7
74
0
49
-6.35
74
0
49
12.7
74
0
49
-6.35
74
0
49
0
74
0
49
-6.35
74
0
0
LTYPE
5
3F
330
5
100
AcDbSymbolTableRecord
100
AcDbLinetypeTableRecord
2
BORDER2
70
0
3
Border (.5x) __.__.__.__.__.__.__.__.__.__.__.
72
65
73
6
40
22.225
49
6.35
74
0
49
-3.175
74
0
49
6.35
74
0
49
-3.175
74
0
49
0
74
0
49
-3.175
74
0
0
LTYPE
5
40
330
5
100
AcDbSymbolTableRecord
100
AcDbLinetypeTableRecord
2
BORDERX2
70
0
3
Border (2x) ____  ____  .  ____  ____  .  ___
72
65
73
6
40
88.9
49
25.4
74
0
49
-12.7
74
0
49
25.4
74
0
49
-12.7
74
0
49
0
74
0
49
-12.7
74
0
0
LTYPE
5
41
330
5
100
AcDbSymbolTableRecord
100
AcDbLinetypeTableRecord
2
CENTER
70
0
3
Center ____ _ ____ _ ____ _ ____ _ ____ _ ____
72
65
73
4
40
50.8
49
31.75
74
0
49
-6.35
74
0
49
6.35
74
0
49
-6.35
74
0
0
LTYPE
5
42
330
5
100
AcDbSymbolTableRecord
100
AcDbLinetypeTableRecord
2
CENTER2
70
0
3
Center (.5x) ___ _ ___ _ ___ _ ___ _ ___ _ ___
72
65
73
4
40
28.575
49
19.05
74
0
49
-3.175
74
0
49
3.175
74
0
49
-3.175
74
0
0
LTYPE
5
43
330
5
100
AcDbSymbolTableRecord
100
AcDbLinetypeTableRecord
2
CENTERX2
70
0
3
Center (2x) ________  __  ________  __  _____
72
65
73
4
40
101.6
49
63.5
74
0
49
-12.7
74
0
49
12.7
74
0
49
-12.7
74
0
0
ENDTAB
0
TABLE
2
LAYER
5
2
330
0
100
AcDbSymbolTable
70
1
0
LAYER
5
10
330
2
100
AcDbSymbolTableRecord
100
AcDbLayerTableRecord
2
0
70
0
62
7
6
CONTINUOUS
370
-3
390
F
0
LAYER
5
44
330
2
100
AcDbSymbolTableRecord
100
AcDbLayerTableRecord
2
guides
70
0
62
3
6
DOT2
370
0
390
F
0
ENDTAB
0
TABLE
2
STYLE
5
3
330
0
100
AcDbSymbolTable
70
3
0
STYLE
5
45
330
2
100
AcDbSymbolTableRecord
100
AcDbTextStyleTableRecord
2
STANDARD
70
0
40
0
41
1
50
0
71
0
42
1
3
STANDARD
4

0
ENDTAB
0
TABLE
2
VIEW
5
6
330
0
100
AcDbSymbolTable
70
0
0
ENDTAB
0
TABLE
2
UCS
5
7
330
0
100
AcDbSymbolTable
70
0
0
ENDTAB
0
TABLE
2
APPID
5
9
330
0
100
AcDbSymbolTable
70
1
0
APPID
5
12
330
9
100
AcDbSymbolTableRecord
100
AcDbRegAppTableRecord
2
ACAD
70
0
0
ENDTAB
0
TABLE
2
DIMSTYLE
5
A
330
0
100
AcDbSymbolTable
70
1
100
AcDbDimStyleTable
71
1
0
DIMSTYLE
105
46
330
A
100
AcDbSymbolTableRecord
100
AcDbDimStyleTableRecord
2
Standard
70
0
40
1
41
2.5
42
0.625
43
0.38
44
100
45
0
46
0
47
0
48
0
140
2.5
141
0.09
142
0
143
25.4
144
1
145
0
146
1
147
0.625
148
0
71
0
72
0
73
0
74
1
75
0
76
0
77
0
78
0
79
0
170
0
171
2
172
0
173
0
174
0
175
0
176
0
177
0
178
0
179
0
271
4
272
4
273
2
274
2
275
0
276
0
277
2
278
46
279
0
280
0
281
0
282
0
283
1
284
0
285
0
286
0
288
0
289
3
340
Standard
341

371
-2
372
-2
0
ENDTAB
0
TABLE
2
BLOCK_RECORD
5
1
330
0
100
AcDbSymbolTable
70
2
0
BLOCK_RECORD
5
1F
330
1
100
AcDbSymbolTableRecord
100
AcDbBlockTableRecord
2
*Model_Space
70
0
280
1
281
0
0
BLOCK_RECORD
5
1E
330
1
100
AcDbSymbolTableRecord
100
AcDbBlockTableRecord
2
*Paper_Space
70
0
280
1
281
0
0
BLOCK_RECORD
5
47
330
1
100
AcDbSymbolTableRecord
100
AcDbBlockTableRecord
2
PCB
70
0
280
1
281
0
0
BLOCK_RECORD
5
4A
330
1
100
AcDbSymbolTableRecord
100
AcDbBlockTableRecord
2
Flat round pot (narrow)
70
0
280
1
281
0
0
BLOCK_RECORD
5
4D
330
1
100
AcDbSymbolTableRecord
100
AcDbBlockTableRecord
2
Flat round pot (wide)
70
0
280
1
281
0
0
BLOCK_RECORD
5
50
330
1
100
AcDbSymbolTableRecord
100
AcDbBlockTableRecord
2
Trackball
70
0
280
1
281
0
0
BLOCK_RECORD
5
53
330
1
100
AcDbSymbolTableRecord
100
AcDbBlockTableRecord
2
PCB-0
70
0
280
1
281
0
0
BLOCK_RECORD
5
56
330
1
100
AcDbSymbolTableRecord
100
AcDbBlockTableRecord
2
Flat straight pot (long)
70
0
280
1
281
0
0
BLOCK_RECORD
5
59
330
1
100
AcDbSymbolTableRecord
100
AcDbBlockTableRecord
2
Flat straight pot (short)
70
0
280
1
281
0
0
BLOCK_RECORD
5
5C
330
1
100
AcDbSymbolTableRecord
100
AcDbBlockTableRecord
2
LCD 16x2
70
0
280
1
281
0
0
BLOCK_RECORD
5
5F
330
1
100
AcDbSymbolTableRecord
100
AcDbBlockTableRecord
2
5 position selector
70
0
280
1
281
0
0
BLOCK_RECORD
5
62
330
1
100
AcDbSymbolTableRecord
100
AcDbBlockTableRecord
2
LED Holder
70
0
280
1
281
0
0
BLOCK_RECORD
5
65
330
1
100
AcDbSymbolTableRecord
100
AcDbBlockTableRecord
2
Pushbutton (non latching)
70
0
280
1
281
0
0
BLOCK_RECORD
5
68
330
1
100
AcDbSymbolTableRecord
100
AcDbBlockTableRecord
2
LCD + 2 PBs
70
0
280
1
281
0
0
BLOCK_RECORD
5
6B
330
1
100
AcDbSymbolTableRecord
100
AcDbBlockTableRecord
2
PB + LED
70
0
280
1
281
0
0
BLOCK_RECORD
5
6E
330
1
100
AcDbSymbolTableRecord
100
AcDbBlockTableRecord
2
LED 5x Cross
70
0
280
1
281
0
0
BLOCK_RECORD
5
71
330
1
100
AcDbSymbolTableRecord
100
AcDbBlockTableRecord
2
HMI_00-0
70
0
280
1
281
0
0
BLOCK_RECORD
5
74
330
1
100
AcDbSymbolTableRecord
100
AcDbBlockTableRecord
2
Flat round pot (narrow)-0
70
0
280
1
281
0
0
BLOCK_RECORD
5
77
330
1
100
AcDbSymbolTableRecord
100
AcDbBlockTableRecord
2
Flat round pot (wide)-0
70
0
280
1
281
0
0
BLOCK_RECORD
5
7A
330
1
100
AcDbSymbolTableRecord
100
AcDbBlockTableRecord
2
Trackball-0
70
0
280
1
281
0
0
BLOCK_RECORD
5
7D
330
1
100
AcDbSymbolTableRecord
100
AcDbBlockTableRecord
2
PCB-1
70
0
280
1
281
0
0
BLOCK_RECORD
5
80
330
1
100
AcDbSymbolTableRecord
100
AcDbBlockTableRecord
2
Flat straight pot (long)-0
70
0
280
1
281
0
0
BLOCK_RECORD
5
83
330
1
100
AcDbSymbolTableRecord
100
AcDbBlockTableRecord
2
Flat straight pot (short)-0
70
0
280
1
281
0
0
BLOCK_RECORD
5
86
330
1
100
AcDbSymbolTableRecord
100
AcDbBlockTableRecord
2
LCD 16x2-0
70
0
280
1
281
0
0
BLOCK_RECORD
5
89
330
1
100
AcDbSymbolTableRecord
100
AcDbBlockTableRecord
2
5 position selector-0
70
0
280
1
281
0
0
BLOCK_RECORD
5
8C
330
1
100
AcDbSymbolTableRecord
100
AcDbBlockTableRecord
2
LED Holder-0
70
0
280
1
281
0
0
BLOCK_RECORD
5
8F
330
1
100
AcDbSymbolTableRecord
100
AcDbBlockTableRecord
2
Pushbutton (non latching)-0
70
0
280
1
281
0
0
BLOCK_RECORD
5
92
330
1
100
AcDbSymbolTableRecord
100
AcDbBlockTableRecord
2
LCD + 2 PBs-0
70
0
280
1
281
0
0
BLOCK_RECORD
5
95
330
1
100
AcDbSymbolTableRecord
100
AcDbBlockTableRecord
2
PB + LED-0
70
0
280
1
281
0
0
BLOCK_RECORD
5
98
330
1
100
AcDbSymbolTableRecord
100
AcDbBlockTableRecord
2
LED 5x Cross-0
70
0
280
1
281
0
0
BLOCK_RECORD
5
9B
330
1
100
AcDbSymbolTableRecord
100
AcDbBlockTableRecord
2
HMI_00-1
70
0
280
1
281
0
0
BLOCK_RECORD
5
9E
330
1
100
AcDbSymbolTableRecord
100
AcDbBlockTableRecord
2
flat v/t x5
70
0
280
1
281
0
0
BLOCK_RECORD
5
A1
330
1
100
AcDbSymbolTableRecord
100
AcDbBlockTableRecord
2
PB+LED 4x
70
0
280
1
281
0
0
ENDTAB
0
ENDSEC
0
SECTION
2
BLOCKS
0
BLOCK
5
20
330
1F
100
AcDbEntity
8
0
100
AcDbBlockBegin
2
*Model_Space
70
0
10
0
20
0
30
0
3
*Model_Space
1

0
ENDBLK
5
21
330
1F
100
AcDbEntity
8
0
100
AcDbBlockEnd
0
BLOCK
5
1C
330
1B
100
AcDbEntity
8
0
100
AcDbBlockBegin
2
*Paper_Space
70
0
10
0
20
0
30
0
3
*Paper_Space
1

0
ENDBLK
5
1D
330
1F
100
AcDbEntity
8
0
100
AcDbBlockEnd
0
BLOCK
5
48
330
47
100
AcDbEntity
8
0
100
AcDbBlockBegin
2
PCB
70
0
10
0
20
0
3
PCB
1

0
LINE
5
A4
100
AcDbEntity
8
0
6
ByLayer
62
256
370
-1
100
AcDbLine
10
0
20
0
11
180
21
0
0
LINE
5
A5
100
AcDbEntity
8
0
6
ByLayer
62
256
370
-1
100
AcDbLine
10
180
20
0
11
180
21
140
0
LINE
5
A6
100
AcDbEntity
8
0
6
ByLayer
62
256
370
-1
100
AcDbLine
10
180
20
140
11
0
21
140
0
LINE
5
A7
100
AcDbEntity
8
0
6
ByLayer
62
256
370
-1
100
AcDbLine
10
0
20
140
11
0
21
0
0
MTEXT
5
A8
100
AcDbEntity
8
0
6
ByLayer
62
256
370
-1
100
AcDbMText
10
90
20
70
30
0
40
5
41
11.1111111111
71
5
72
1
1
PCB
7
STANDARD
210
0
220
0
230
1
50
0
73
2
44
1
0
ENDBLK
5
49
330
47
100
AcDbEntity
8
0
100
AcDbBlockEnd
0
BLOCK
5
4B
330
4A
100
AcDbEntity
8
0
100
AcDbBlockBegin
2
Flat round pot (narrow)
70
0
10
0
20
0
3
Flat round pot (narrow)
1

0
CIRCLE
5
A9
100
AcDbEntity
8
0
6
ByLayer
62
256
370
-1
100
AcDbCircle
10
0
20
0
40
20
0
MTEXT
5
AA
100
AcDbEntity
8
0
6
ByLayer
62
256
370
-1
100
AcDbMText
10
0
20
1
30
0
40
2.5
41
24.5833333333
71
5
72
1
1
Flat round pot\P(narrow)
7
STANDARD
210
0
220
0
230
1
50
0
73
2
44
1
0
ENDBLK
5
4C
330
4A
100
AcDbEntity
8
0
100
AcDbBlockEnd
0
BLOCK
5
4E
330
4D
100
AcDbEntity
8
0
100
AcDbBlockBegin
2
Flat round pot (wide)
70
0
10
0
20
0
3
Flat round pot (wide)
1

0
CIRCLE
5
AB
100
AcDbEntity
8
0
6
ByLayer
62
256
370
-1
100
AcDbCircle
10
0
20
0
40
22
0
MTEXT
5
AC
100
AcDbEntity
8
0
6
ByLayer
62
256
370
-1
100
AcDbMText
10
0
20
0
30
0
40
2.5
41
35.9027775
71
5
72
1
1
Flat round pot (wide)
7
STANDARD
210
0
220
0
230
1
50
0
73
2
44
1
0
ENDBLK
5
4F
330
4D
100
AcDbEntity
8
0
100
AcDbBlockEnd
0
BLOCK
5
51
330
50
100
AcDbEntity
8
0
100
AcDbBlockBegin
2
Trackball
70
0
10
0
20
0
3
Trackball
1

0
CIRCLE
5
AD
100
AcDbEntity
8
0
6
ByLayer
62
256
370
-1
100
AcDbCircle
10
0
20
0
40
21.5
0
MTEXT
5
AE
100
AcDbEntity
8
0
6
ByLayer
62
256
370
-1
100
AcDbMText
10
0
20
0
30
0
40
5
41
30
71
5
72
1
1
TrackBall
7
STANDARD
210
0
220
0
230
1
50
0
73
2
44
1
0
ENDBLK
5
52
330
50
100
AcDbEntity
8
0
100
AcDbBlockEnd
0
BLOCK
5
54
330
53
100
AcDbEntity
8
0
100
AcDbBlockBegin
2
PCB-0
70
0
10
0
20
0
3
PCB-0
1

0
LINE
5
AF
100
AcDbEntity
8
0
6
ByLayer
62
256
370
-1
100
AcDbLine
10
0
20
0
11
180
21
0
0
LINE
5
B0
100
AcDbEntity
8
0
6
ByLayer
62
256
370
-1
100
AcDbLine
10
180
20
0
11
180
21
140
0
LINE
5
B1
100
AcDbEntity
8
0
6
ByLayer
62
256
370
-1
100
AcDbLine
10
180
20
140
11
0
21
140
0
LINE
5
B2
100
AcDbEntity
8
0
6
ByLayer
62
256
370
-1
100
AcDbLine
10
0
20
140
11
0
21
0
0
MTEXT
5
B3
100
AcDbEntity
8
0
6
ByLayer
62
256
370
-1
100
AcDbMText
10
90
20
70
30
0
40
5
41
11.1111111111
71
5
72
1
1
PCB
7
STANDARD
210
0
220
0
230
1
50
0
73
2
44
1
0
ENDBLK
5
55
330
53
100
AcDbEntity
8
0
100
AcDbBlockEnd
0
BLOCK
5
57
330
56
100
AcDbEntity
8
0
100
AcDbBlockBegin
2
Flat straight pot (long)
70
0
10
0
20
0
3
Flat straight pot (long)
1

0
LINE
5
B4
100
AcDbEntity
8
0
6
ByLayer
62
256
370
-1
100
AcDbLine
10
0
20
0
11
118
21
0
0
LINE
5
B5
100
AcDbEntity
8
0
6
ByLayer
62
256
370
-1
100
AcDbLine
10
118
20
0
11
118
21
22
0
LINE
5
B6
100
AcDbEntity
8
0
6
ByLayer
62
256
370
-1
100
AcDbLine
10
118
20
22
11
0
21
22
0
LINE
5
B7
100
AcDbEntity
8
0
6
ByLayer
62
256
370
-1
100
AcDbLine
10
0
20
22
11
0
21
0
0
MTEXT
5
B8
100
AcDbEntity
8
0
6
ByLayer
62
256
370
-1
100
AcDbMText
10
60
20
11
30
0
40
2.5
41
41.1805547478
71
5
72
1
1
Flat Straight POT (long)
7
STANDARD
210
0
220
0
230
1
50
0
73
2
44
1
0
ENDBLK
5
58
330
56
100
AcDbEntity
8
0
100
AcDbBlockEnd
0
BLOCK
5
5A
330
59
100
AcDbEntity
8
0
100
AcDbBlockBegin
2
Flat straight pot (short)
70
0
10
0
20
0
3
Flat straight pot (short)
1

0
LINE
5
B9
100
AcDbEntity
8
0
6
ByLayer
62
256
370
-1
100
AcDbLine
10
0
20
0
11
68
21
0
0
LINE
5
BA
100
AcDbEntity
8
0
6
ByLayer
62
256
370
-1
100
AcDbLine
10
68
20
0
11
68
21
22
0
LINE
5
BB
100
AcDbEntity
8
0
6
ByLayer
62
256
370
-1
100
AcDbLine
10
68
20
22
11
0
21
22
0
LINE
5
BC
100
AcDbEntity
8
0
6
ByLayer
62
256
370
-1
100
AcDbLine
10
0
20
22
11
0
21
0
0
MTEXT
5
BD
100
AcDbEntity
8
0
6
ByLayer
62
256
370
-1
100
AcDbMText
10
36
20
10
30
0
40
2.5
41
43.4027782557
71
5
72
1
1
Flat Straight POT (short)
7
STANDARD
210
0
220
0
230
1
50
0
73
2
44
1
0
ENDBLK
5
5B
330
59
100
AcDbEntity
8
0
100
AcDbBlockEnd
0
BLOCK
5
5D
330
5C
100
AcDbEntity
8
0
100
AcDbBlockBegin
2
LCD 16x2
70
0
10
0
20
0
3
LCD 16x2
1

0
LINE
5
BE
100
AcDbEntity
8
0
6
ByLayer
62
256
370
-1
100
AcDbLine
10
0
20
0
11
70
21
0
0
LINE
5
BF
100
AcDbEntity
8
0
6
ByLayer
62
256
370
-1
100
AcDbLine
10
70
20
0
11
70
21
26.5
0
LINE
5
C0
100
AcDbEntity
8
0
6
ByLayer
62
256
370
-1
100
AcDbLine
10
70
20
26.5
11
0
21
26.5
0
LINE
5
C1
100
AcDbEntity
8
0
6
ByLayer
62
256
370
-1
100
AcDbLine
10
0
20
26.5
11
0
21
0
0
MTEXT
5
C2
100
AcDbEntity
8
0
6
ByLayer
62
256
370
-1
100
AcDbMText
10
35
20
13
30
0
40
5
41
28.75
71
5
72
1
1
LCD 16x2
7
STANDARD
210
0
220
0
230
1
50
0
73
2
44
1
0
ENDBLK
5
5E
330
5C
100
AcDbEntity
8
0
100
AcDbBlockEnd
0
BLOCK
5
60
330
5F
100
AcDbEntity
8
0
100
AcDbBlockBegin
2
5 position selector
70
0
10
0
20
0
3
5 position selector
1

0
LINE
5
C3
100
AcDbEntity
8
0
6
ByLayer
62
256
370
-1
100
AcDbLine
10
0
20
0
11
50
21
0
0
LINE
5
C4
100
AcDbEntity
8
0
6
ByLayer
62
256
370
-1
100
AcDbLine
10
50
20
0
11
50
21
10
0
LINE
5
C5
100
AcDbEntity
8
0
6
ByLayer
62
256
370
-1
100
AcDbLine
10
50
20
10
11
0
21
10
0
LINE
5
C6
100
AcDbEntity
8
0
6
ByLayer
62
256
370
-1
100
AcDbLine
10
0
20
10
11
0
21
0
0
MTEXT
5
C7
100
AcDbEntity
8
0
6
ByLayer
62
256
370
-1
100
AcDbMText
10
26
20
5
30
0
40
2.5
41
32.4305563113
71
5
72
1
1
5-Position Selector
7
STANDARD
210
0
220
0
230
1
50
0
73
2
44
1
0
ENDBLK
5
61
330
5F
100
AcDbEntity
8
0
100
AcDbBlockEnd
0
BLOCK
5
63
330
62
100
AcDbEntity
8
0
100
AcDbBlockBegin
2
LED Holder
70
0
10
0
20
0
3
LED Holder
1

0
CIRCLE
5
C8
100
AcDbEntity
8
0
6
ByLayer
62
256
370
-1
100
AcDbCircle
10
0
20
0
40
4
0
MTEXT
5
C9
100
AcDbEntity
8
0
6
ByLayer
62
256
370
-1
100
AcDbMText
10
0
20
0
30
0
40
2
41
4.22222222222
71
5
72
1
1
LED
7
STANDARD
210
0
220
0
230
1
50
0
73
2
44
1
0
ENDBLK
5
64
330
62
100
AcDbEntity
8
0
100
AcDbBlockEnd
0
BLOCK
5
66
330
65
100
AcDbEntity
8
0
100
AcDbBlockBegin
2
Pushbutton (non latching)
70
0
10
0
20
0
3
Pushbutton (non latching)
1

0
CIRCLE
5
CA
100
AcDbEntity
8
0
6
ByLayer
62
256
370
-1
100
AcDbCircle
10
0
20
0
40
1.75
0
LINE
5
CB
100
AcDbEntity
8
0
6
ByLayer
62
256
370
-1
100
AcDbLine
10
-3
20
-3
11
3
21
-3
0
LINE
5
CC
100
AcDbEntity
8
0
6
ByLayer
62
256
370
-1
100
AcDbLine
10
3
20
-3
11
3
21
3
0
LINE
5
CD
100
AcDbEntity
8
0
6
ByLayer
62
256
370
-1
100
AcDbLine
10
3
20
3
11
-3
21
3
0
LINE
5
CE
100
AcDbEntity
8
0
6
ByLayer
62
256
370
-1
100
AcDbLine
10
-3
20
3
11
-3
21
-3
0
MTEXT
5
CF
100
AcDbEntity
8
0
6
ByLayer
62
256
370
-1
100
AcDbMText
10
0
20
-1
30
0
40
1
41
2.222222
71
5
72
1
1
PB\P(NL)\P
7
STANDARD
210
0
220
0
230
1
50
0
73
2
44
1
0
ENDBLK
5
67
330
65
100
AcDbEntity
8
0
100
AcDbBlockEnd
0
BLOCK
5
69
330
68
100
AcDbEntity
8
0
100
AcDbBlockBegin
2
LCD + 2 PBs
70
0
10
0
20
0
3
LCD + 2 PBs
1

0
INSERT
5
D0
100
AcDbEntity
8
0
6
ByLayer
62
256
370
-1
100
AcDbBlockReference
2
LCD 16x2
10
-35
20
-13
30
0
41
1
42
1
43
0
50
0
70
1
71
1
44
0
45
0
0
INSERT
5
D1
100
AcDbEntity
8
0
6
ByLayer
62
256
370
-1
100
AcDbBlockReference
2
Pushbutton (non latching)
10
8
20
-20
30
0
41
1
42
1
43
0
50
0
70
1
71
1
44
1
45
1
0
INSERT
5
D2
100
AcDbEntity
8
0
6
ByLayer
62
256
370
-1
100
AcDbBlockReference
2
Pushbutton (non latching)
10
-8
20
-20
30
0
41
1
42
1
43
0
50
0
70
1
71
1
44
1
45
1
0
ENDBLK
5
6A
330
68
100
AcDbEntity
8
0
100
AcDbBlockEnd
0
BLOCK
5
6C
330
6B
100
AcDbEntity
8
0
100
AcDbBlockBegin
2
PB + LED
70
0
10
0
20
0
3
PB + LED
1

0
INSERT
5
D3
100
AcDbEntity
8
0
6
ByLayer
62
256
370
-1
100
AcDbBlockReference
2
LED Holder
10
0
20
5
30
0
41
1
42
1
43
0
50
0
70
1
71
1
44
1
45
1
0
INSERT
5
D4
100
AcDbEntity
8
0
6
ByLayer
62
256
370
-1
100
AcDbBlockReference
2
Pushbutton (non latching)
10
0
20
-4
30
0
41
1
42
1
43
0
50
0
70
1
71
1
44
1
45
1
0
ENDBLK
5
6D
330
6B
100
AcDbEntity
8
0
100
AcDbBlockEnd
0
BLOCK
5
6F
330
6E
100
AcDbEntity
8
0
100
AcDbBlockBegin
2
LED 5x Cross
70
0
10
0
20
0
3
LED 5x Cross
1

0
INSERT
5
D5
100
AcDbEntity
8
0
6
ByLayer
62
256
370
-1
100
AcDbBlockReference
2
LED Holder
10
0
20
0
30
0
41
1
42
1
43
0
50
0
70
1
71
1
44
1
45
1
0
INSERT
5
D6
100
AcDbEntity
8
0
6
ByLayer
62
256
370
-1
100
AcDbBlockReference
2
LED Holder
10
0
20
10
30
0
41
1
42
1
43
0
50
0
70
1
71
1
44
1
45
1
0
INSERT
5
D7
100
AcDbEntity
8
0
6
ByLayer
62
256
370
-1
100
AcDbBlockReference
2
LED Holder
10
-10
20
0
30
0
41
1
42
1
43
0
50
0
70
1
71
1
44
1
45
1
0
INSERT
5
D8
100
AcDbEntity
8
0
6
ByLayer
62
256
370
-1
100
AcDbBlockReference
2
LED Holder
10
0
20
-10
30
0
41
1
42
1
43
0
50
0
70
1
71
1
44
1
45
1
0
INSERT
5
D9
100
AcDbEntity
8
0
6
ByLayer
62
256
370
-1
100
AcDbBlockReference
2
LED Holder
10
10
20
0
30
0
41
1
42
1
43
0
50
0
70
1
71
1
44
1
45
1
0
ENDBLK
5
70
330
6E
100
AcDbEntity
8
0
100
AcDbBlockEnd
0
BLOCK
5
72
330
71
100
AcDbEntity
8
0
100
AcDbBlockBegin
2
HMI_00-0
70
0
10
0
20
0
3
HMI_00-0
1

0
INSERT
5
DA
100
AcDbEntity
8
0
6
ByLayer
62
256
370
-1
100
AcDbBlockReference
2
LCD + 2 PBs
10
-200
20
200
30
0
41
1
42
1
43
0
50
0
70
1
71
1
44
1
45
1
0
INSERT
5
DB
100
AcDbEntity
8
0
6
ByLayer
62
256
370
-1
100
AcDbBlockReference
2
Trackball
10
-60
20
190
30
0
41
1
42
1
43
0
50
0
70
1
71
1
44
1
45
1
0
INSERT
5
DC
100
AcDbEntity
8
0
6
ByLayer
62
256
370
-1
100
AcDbBlockReference
2
PB + LED
10
-121.062177826
20
185.160254038
30
0
41
1
42
1
43
0
50
30
70
1
71
1
44
0
45
0
0
INSERT
5
DD
100
AcDbEntity
8
0
6
ByLayer
62
256
370
-1
100
AcDbBlockReference
2
PB + LED
10
-108.937822174
20
192.160254038
30
0
41
1
42
1
43
0
50
30
70
1
71
1
44
0
45
0
0
INSERT
5
DE
100
AcDbEntity
8
0
6
ByLayer
62
256
370
-1
100
AcDbBlockReference
2
PB + LED
10
-111.062177826
20
167.839745962
30
0
41
1
42
1
43
0
50
30
70
1
71
1
44
0
45
0
0
INSERT
5
DF
100
AcDbEntity
8
0
6
ByLayer
62
256
370
-1
100
AcDbBlockReference
2
PB + LED
10
-98.9378221735
20
174.839745962
30
0
41
1
42
1
43
0
50
30
70
1
71
1
44
0
45
0
0
INSERT
5
E0
100
AcDbEntity
8
0
6
ByLayer
62
256
370
-1
100
AcDbBlockReference
2
LED 5x Cross
10
-200
20
130
30
0
41
1
42
1
43
0
50
0
70
1
71
1
44
0
45
0
0
INSERT
5
E1
100
AcDbEntity
8
0
6
ByLayer
62
256
370
-1
100
AcDbBlockReference
2
LED 5x Cross
10
-230
20
130
30
0
41
1
42
1
43
0
50
0
70
1
71
1
44
0
45
0
0
INSERT
5
E2
100
AcDbEntity
8
0
6
ByLayer
62
256
370
-1
100
AcDbBlockReference
2
LED 5x Cross
10
-230
20
90
30
0
41
1
42
1
43
0
50
0
70
1
71
1
44
0
45
0
0
INSERT
5
E3
100
AcDbEntity
8
0
6
ByLayer
62
256
370
-1
100
AcDbBlockReference
2
LED 5x Cross
10
-200
20
90
30
0
41
1
42
1
43
0
50
0
70
1
71
1
44
0
45
0
0
INSERT
5
E4
100
AcDbEntity
8
0
6
ByLayer
62
256
370
-1
100
AcDbBlockReference
2
5 position selector
10
-130
20
127.320508076
30
0
41
1
42
1
43
0
50
30
70
1
71
1
44
1
45
1
0
INSERT
5
E5
100
AcDbEntity
8
0
6
ByLayer
62
256
370
-1
100
AcDbBlockReference
2
5 position selector
10
-96.7390923627
20
95.8493649054
30
0
41
1
42
1
43
0
50
60
70
1
71
1
44
1
45
1
0
INSERT
5
E6
100
AcDbEntity
8
0
6
ByLayer
62
256
370
-1
100
AcDbBlockReference
2
Flat straight pot (short)
10
-110
20
10
30
0
41
1
42
1
43
0
50
90
70
1
71
1
44
1
45
1
0
INSERT
5
E7
100
AcDbEntity
8
0
6
ByLayer
62
256
370
-1
100
AcDbBlockReference
2
Flat straight pot (short)
10
-80
20
10
30
0
41
1
42
1
43
0
50
90
70
1
71
1
44
1
45
1
0
INSERT
5
E8
100
AcDbEntity
8
0
6
ByLayer
62
256
370
-1
100
AcDbBlockReference
2
Flat straight pot (short)
10
-140
20
10
30
0
41
1
42
1
43
0
50
90
70
1
71
1
44
1
45
1
0
INSERT
5
E9
100
AcDbEntity
8
0
6
ByLayer
62
256
370
-1
100
AcDbBlockReference
2
Flat straight pot (short)
10
-50
20
10
30
0
41
1
42
1
43
0
50
90
70
1
71
1
44
1
45
1
0
ENDBLK
5
73
330
71
100
AcDbEntity
8
0
100
AcDbBlockEnd
0
BLOCK
5
75
330
74
100
AcDbEntity
8
0
100
AcDbBlockBegin
2
Flat round pot (narrow)-0
70
0
10
0
20
0
3
Flat round pot (narrow)-0
1

0
CIRCLE
5
EA
100
AcDbEntity
8
0
6
ByLayer
62
256
370
-1
100
AcDbCircle
10
0
20
0
40
20
0
MTEXT
5
EB
100
AcDbEntity
8
0
6
ByLayer
62
256
370
-1
100
AcDbMText
10
0
20
1
30
0
40
2.5
41
24.5833333333
71
5
72
1
1
Flat round pot\P(narrow)
7
STANDARD
210
0
220
0
230
1
50
0
73
2
44
1
0
ENDBLK
5
76
330
74
100
AcDbEntity
8
0
100
AcDbBlockEnd
0
BLOCK
5
78
330
77
100
AcDbEntity
8
0
100
AcDbBlockBegin
2
Flat round pot (wide)-0
70
0
10
0
20
0
3
Flat round pot (wide)-0
1

0
CIRCLE
5
EC
100
AcDbEntity
8
0
6
ByLayer
62
256
370
-1
100
AcDbCircle
10
0
20
0
40
22
0
MTEXT
5
ED
100
AcDbEntity
8
0
6
ByLayer
62
256
370
-1
100
AcDbMText
10
0
20
0
30
0
40
2.5
41
35.9027775
71
5
72
1
1
Flat round pot (wide)
7
STANDARD
210
0
220
0
230
1
50
0
73
2
44
1
0
ENDBLK
5
79
330
77
100
AcDbEntity
8
0
100
AcDbBlockEnd
0
BLOCK
5
7B
330
7A
100
AcDbEntity
8
0
100
AcDbBlockBegin
2
Trackball-0
70
0
10
0
20
0
3
Trackball-0
1

0
CIRCLE
5
EE
100
AcDbEntity
8
0
6
ByLayer
62
256
370
-1
100
AcDbCircle
10
0
20
0
40
21.5
0
MTEXT
5
EF
100
AcDbEntity
8
0
6
ByLayer
62
256
370
-1
100
AcDbMText
10
0
20
0
30
0
40
5
41
30
71
5
72
1
1
TrackBall
7
STANDARD
210
0
220
0
230
1
50
0
73
2
44
1
0
ENDBLK
5
7C
330
7A
100
AcDbEntity
8
0
100
AcDbBlockEnd
0
BLOCK
5
7E
330
7D
100
AcDbEntity
8
0
100
AcDbBlockBegin
2
PCB-1
70
0
10
0
20
0
3
PCB-1
1

0
LINE
5
F0
100
AcDbEntity
8
0
6
ByLayer
62
256
370
-1
100
AcDbLine
10
0
20
0
11
180
21
0
0
LINE
5
F1
100
AcDbEntity
8
0
6
ByLayer
62
256
370
-1
100
AcDbLine
10
180
20
0
11
180
21
140
0
LINE
5
F2
100
AcDbEntity
8
0
6
ByLayer
62
256
370
-1
100
AcDbLine
10
180
20
140
11
0
21
140
0
LINE
5
F3
100
AcDbEntity
8
0
6
ByLayer
62
256
370
-1
100
AcDbLine
10
0
20
140
11
0
21
0
0
MTEXT
5
F4
100
AcDbEntity
8
0
6
ByLayer
62
256
370
-1
100
AcDbMText
10
90
20
70
30
0
40
5
41
11.1111111111
71
5
72
1
1
PCB
7
STANDARD
210
0
220
0
230
1
50
0
73
2
44
1
0
ENDBLK
5
7F
330
7D
100
AcDbEntity
8
0
100
AcDbBlockEnd
0
BLOCK
5
81
330
80
100
AcDbEntity
8
0
100
AcDbBlockBegin
2
Flat straight pot (long)-0
70
0
10
0
20
0
3
Flat straight pot (long)-0
1

0
LINE
5
F5
100
AcDbEntity
8
0
6
ByLayer
62
256
370
-1
100
AcDbLine
10
0
20
0
11
118
21
0
0
LINE
5
F6
100
AcDbEntity
8
0
6
ByLayer
62
256
370
-1
100
AcDbLine
10
118
20
0
11
118
21
22
0
LINE
5
F7
100
AcDbEntity
8
0
6
ByLayer
62
256
370
-1
100
AcDbLine
10
118
20
22
11
0
21
22
0
LINE
5
F8
100
AcDbEntity
8
0
6
ByLayer
62
256
370
-1
100
AcDbLine
10
0
20
22
11
0
21
0
0
MTEXT
5
F9
100
AcDbEntity
8
0
6
ByLayer
62
256
370
-1
100
AcDbMText
10
60
20
11
30
0
40
2.5
41
41.1805547478
71
5
72
1
1
Flat Straight POT (long)
7
STANDARD
210
0
220
0
230
1
50
0
73
2
44
1
0
ENDBLK
5
82
330
80
100
AcDbEntity
8
0
100
AcDbBlockEnd
0
BLOCK
5
84
330
83
100
AcDbEntity
8
0
100
AcDbBlockBegin
2
Flat straight pot (short)-0
70
0
10
0
20
0
3
Flat straight pot (short)-0
1

0
LINE
5
FA
100
AcDbEntity
8
0
6
ByLayer
62
256
370
-1
100
AcDbLine
10
0
20
0
11
68
21
0
0
LINE
5
FB
100
AcDbEntity
8
0
6
ByLayer
62
256
370
-1
100
AcDbLine
10
68
20
0
11
68
21
22
0
LINE
5
FC
100
AcDbEntity
8
0
6
ByLayer
62
256
370
-1
100
AcDbLine
10
68
20
22
11
0
21
22
0
LINE
5
FD
100
AcDbEntity
8
0
6
ByLayer
62
256
370
-1
100
AcDbLine
10
0
20
22
11
0
21
0
0
MTEXT
5
FE
100
AcDbEntity
8
0
6
ByLayer
62
256
370
-1
100
AcDbMText
10
36
20
10
30
0
40
2.5
41
43.4027782557
71
5
72
1
1
Flat Straight POT (short)
7
STANDARD
210
0
220
0
230
1
50
0
73
2
44
1
0
ENDBLK
5
85
330
83
100
AcDbEntity
8
0
100
AcDbBlockEnd
0
BLOCK
5
87
330
86
100
AcDbEntity
8
0
100
AcDbBlockBegin
2
LCD 16x2-0
70
0
10
0
20
0
3
LCD 16x2-0
1

0
LINE
5
FF
100
AcDbEntity
8
0
6
ByLayer
62
256
370
-1
100
AcDbLine
10
0
20
0
11
70
21
0
0
LINE
5
100
100
AcDbEntity
8
0
6
ByLayer
62
256
370
-1
100
AcDbLine
10
70
20
0
11
70
21
26.5
0
LINE
5
101
100
AcDbEntity
8
0
6
ByLayer
62
256
370
-1
100
AcDbLine
10
70
20
26.5
11
0
21
26.5
0
LINE
5
102
100
AcDbEntity
8
0
6
ByLayer
62
256
370
-1
100
AcDbLine
10
0
20
26.5
11
0
21
0
0
MTEXT
5
103
100
AcDbEntity
8
0
6
ByLayer
62
256
370
-1
100
AcDbMText
10
35
20
13
30
0
40
5
41
28.75
71
5
72
1
1
LCD 16x2
7
STANDARD
210
0
220
0
230
1
50
0
73
2
44
1
0
ENDBLK
5
88
330
86
100
AcDbEntity
8
0
100
AcDbBlockEnd
0
BLOCK
5
8A
330
89
100
AcDbEntity
8
0
100
AcDbBlockBegin
2
5 position selector-0
70
0
10
0
20
0
3
5 position selector-0
1

0
LINE
5
104
100
AcDbEntity
8
0
6
ByLayer
62
256
370
-1
100
AcDbLine
10
0
20
0
11
50
21
0
0
LINE
5
105
100
AcDbEntity
8
0
6
ByLayer
62
256
370
-1
100
AcDbLine
10
50
20
0
11
50
21
10
0
LINE
5
106
100
AcDbEntity
8
0
6
ByLayer
62
256
370
-1
100
AcDbLine
10
50
20
10
11
0
21
10
0
LINE
5
107
100
AcDbEntity
8
0
6
ByLayer
62
256
370
-1
100
AcDbLine
10
0
20
10
11
0
21
0
0
MTEXT
5
108
100
AcDbEntity
8
0
6
ByLayer
62
256
370
-1
100
AcDbMText
10
26
20
5
30
0
40
2.5
41
32.4305563113
71
5
72
1
1
5-Position Selector
7
STANDARD
210
0
220
0
230
1
50
0
73
2
44
1
0
ENDBLK
5
8B
330
89
100
AcDbEntity
8
0
100
AcDbBlockEnd
0
BLOCK
5
8D
330
8C
100
AcDbEntity
8
0
100
AcDbBlockBegin
2
LED Holder-0
70
0
10
0
20
0
3
LED Holder-0
1

0
CIRCLE
5
109
100
AcDbEntity
8
0
6
ByLayer
62
256
370
-1
100
AcDbCircle
10
0
20
0
40
4
0
MTEXT
5
10A
100
AcDbEntity
8
0
6
ByLayer
62
256
370
-1
100
AcDbMText
10
0
20
0
30
0
40
2
41
4.22222222222
71
5
72
1
1
LED
7
STANDARD
210
0
220
0
230
1
50
0
73
2
44
1
0
ENDBLK
5
8E
330
8C
100
AcDbEntity
8
0
100
AcDbBlockEnd
0
BLOCK
5
90
330
8F
100
AcDbEntity
8
0
100
AcDbBlockBegin
2
Pushbutton (non latching)-0
70
0
10
0
20
0
3
Pushbutton (non latching)-0
1

0
CIRCLE
5
10B
100
AcDbEntity
8
0
6
ByLayer
62
256
370
-1
100
AcDbCircle
10
0
20
0
40
1.75
0
LINE
5
10C
100
AcDbEntity
8
0
6
ByLayer
62
256
370
-1
100
AcDbLine
10
-3
20
-3
11
3
21
-3
0
LINE
5
10D
100
AcDbEntity
8
0
6
ByLayer
62
256
370
-1
100
AcDbLine
10
3
20
-3
11
3
21
3
0
LINE
5
10E
100
AcDbEntity
8
0
6
ByLayer
62
256
370
-1
100
AcDbLine
10
3
20
3
11
-3
21
3
0
LINE
5
10F
100
AcDbEntity
8
0
6
ByLayer
62
256
370
-1
100
AcDbLine
10
-3
20
3
11
-3
21
-3
0
MTEXT
5
110
100
AcDbEntity
8
0
6
ByLayer
62
256
370
-1
100
AcDbMText
10
0
20
-1
30
0
40
1
41
2.222222
71
5
72
1
1
PB\P(NL)\P
7
STANDARD
210
0
220
0
230
1
50
0
73
2
44
1
0
ENDBLK
5
91
330
8F
100
AcDbEntity
8
0
100
AcDbBlockEnd
0
BLOCK
5
93
330
92
100
AcDbEntity
8
0
100
AcDbBlockBegin
2
LCD + 2 PBs-0
70
0
10
0
20
0
3
LCD + 2 PBs-0
1

0
INSERT
5
111
100
AcDbEntity
8
0
6
ByLayer
62
256
370
-1
100
AcDbBlockReference
2
LCD 16x2-0
10
-35
20
-13
30
0
41
1
42
1
43
0
50
0
70
1
71
1
44
0
45
0
0
INSERT
5
112
100
AcDbEntity
8
0
6
ByLayer
62
256
370
-1
100
AcDbBlockReference
2
Pushbutton (non latching)-0
10
8
20
-20
30
0
41
1
42
1
43
0
50
0
70
1
71
1
44
1
45
1
0
INSERT
5
113
100
AcDbEntity
8
0
6
ByLayer
62
256
370
-1
100
AcDbBlockReference
2
Pushbutton (non latching)-0
10
-8
20
-20
30
0
41
1
42
1
43
0
50
0
70
1
71
1
44
1
45
1
0
ENDBLK
5
94
330
92
100
AcDbEntity
8
0
100
AcDbBlockEnd
0
BLOCK
5
96
330
95
100
AcDbEntity
8
0
100
AcDbBlockBegin
2
PB + LED-0
70
0
10
0
20
0
3
PB + LED-0
1

0
INSERT
5
114
100
AcDbEntity
8
0
6
ByLayer
62
256
370
-1
100
AcDbBlockReference
2
LED Holder-0
10
0
20
5
30
0
41
1
42
1
43
0
50
0
70
1
71
1
44
1
45
1
0
INSERT
5
115
100
AcDbEntity
8
0
6
ByLayer
62
256
370
-1
100
AcDbBlockReference
2
Pushbutton (non latching)-0
10
0
20
-4
30
0
41
1
42
1
43
0
50
0
70
1
71
1
44
1
45
1
0
ENDBLK
5
97
330
95
100
AcDbEntity
8
0
100
AcDbBlockEnd
0
BLOCK
5
99
330
98
100
AcDbEntity
8
0
100
AcDbBlockBegin
2
LED 5x Cross-0
70
0
10
0
20
0
3
LED 5x Cross-0
1

0
INSERT
5
116
100
AcDbEntity
8
0
6
ByLayer
62
256
370
-1
100
AcDbBlockReference
2
LED Holder-0
10
0
20
0
30
0
41
1
42
1
43
0
50
0
70
1
71
1
44
1
45
1
0
INSERT
5
117
100
AcDbEntity
8
0
6
ByLayer
62
256
370
-1
100
AcDbBlockReference
2
LED Holder-0
10
0
20
10
30
0
41
1
42
1
43
0
50
0
70
1
71
1
44
1
45
1
0
INSERT
5
118
100
AcDbEntity
8
0
6
ByLayer
62
256
370
-1
100
AcDbBlockReference
2
LED Holder-0
10
-10
20
0
30
0
41
1
42
1
43
0
50
0
70
1
71
1
44
1
45
1
0
INSERT
5
119
100
AcDbEntity
8
0
6
ByLayer
62
256
370
-1
100
AcDbBlockReference
2
LED Holder-0
10
0
20
-10
30
0
41
1
42
1
43
0
50
0
70
1
71
1
44
1
45
1
0
INSERT
5
11A
100
AcDbEntity
8
0
6
ByLayer
62
256
370
-1
100
AcDbBlockReference
2
LED Holder-0
10
10
20
0
30
0
41
1
42
1
43
0
50
0
70
1
71
1
44
1
45
1
0
ENDBLK
5
9A
330
98
100
AcDbEntity
8
0
100
AcDbBlockEnd
0
BLOCK
5
9C
330
9B
100
AcDbEntity
8
0
100
AcDbBlockBegin
2
HMI_00-1
70
0
10
0
20
0
3
HMI_00-1
1

0
INSERT
5
11B
100
AcDbEntity
8
0
6
ByLayer
62
256
370
-1
100
AcDbBlockReference
2
LCD + 2 PBs-0
10
-200
20
200
30
0
41
1
42
1
43
0
50
0
70
1
71
1
44
1
45
1
0
INSERT
5
11C
100
AcDbEntity
8
0
6
ByLayer
62
256
370
-1
100
AcDbBlockReference
2
Trackball-0
10
-60
20
190
30
0
41
1
42
1
43
0
50
0
70
1
71
1
44
1
45
1
0
INSERT
5
11D
100
AcDbEntity
8
0
6
ByLayer
62
256
370
-1
100
AcDbBlockReference
2
PB + LED-0
10
-121.062177826
20
185.160254038
30
0
41
1
42
1
43
0
50
30
70
1
71
1
44
0
45
0
0
INSERT
5
11E
100
AcDbEntity
8
0
6
ByLayer
62
256
370
-1
100
AcDbBlockReference
2
PB + LED-0
10
-108.937822174
20
192.160254038
30
0
41
1
42
1
43
0
50
30
70
1
71
1
44
0
45
0
0
INSERT
5
11F
100
AcDbEntity
8
0
6
ByLayer
62
256
370
-1
100
AcDbBlockReference
2
PB + LED-0
10
-111.062177826
20
167.839745962
30
0
41
1
42
1
43
0
50
30
70
1
71
1
44
0
45
0
0
INSERT
5
120
100
AcDbEntity
8
0
6
ByLayer
62
256
370
-1
100
AcDbBlockReference
2
PB + LED-0
10
-98.9378221735
20
174.839745962
30
0
41
1
42
1
43
0
50
30
70
1
71
1
44
0
45
0
0
INSERT
5
121
100
AcDbEntity
8
0
6
ByLayer
62
256
370
-1
100
AcDbBlockReference
2
LED 5x Cross-0
10
-200
20
130
30
0
41
1
42
1
43
0
50
0
70
1
71
1
44
0
45
0
0
INSERT
5
122
100
AcDbEntity
8
0
6
ByLayer
62
256
370
-1
100
AcDbBlockReference
2
LED 5x Cross-0
10
-230
20
130
30
0
41
1
42
1
43
0
50
0
70
1
71
1
44
0
45
0
0
INSERT
5
123
100
AcDbEntity
8
0
6
ByLayer
62
256
370
-1
100
AcDbBlockReference
2
LED 5x Cross-0
10
-230
20
90
30
0
41
1
42
1
43
0
50
0
70
1
71
1
44
0
45
0
0
INSERT
5
124
100
AcDbEntity
8
0
6
ByLayer
62
256
370
-1
100
AcDbBlockReference
2
LED 5x Cross-0
10
-200
20
90
30
0
41
1
42
1
43
0
50
0
70
1
71
1
44
0
45
0
0
INSERT
5
125
100
AcDbEntity
8
0
6
ByLayer
62
256
370
-1
100
AcDbBlockReference
2
5 position selector-0
10
-130
20
127.320508076
30
0
41
1
42
1
43
0
50
30
70
1
71
1
44
1
45
1
0
INSERT
5
126
100
AcDbEntity
8
0
6
ByLayer
62
256
370
-1
100
AcDbBlockReference
2
5 position selector-0
10
-96.7390923627
20
95.8493649054
30
0
41
1
42
1
43
0
50
60
70
1
71
1
44
1
45
1
0
INSERT
5
127
100
AcDbEntity
8
0
6
ByLayer
62
256
370
-1
100
AcDbBlockReference
2
Flat straight pot (short)-0
10
-110
20
10
30
0
41
1
42
1
43
0
50
90
70
1
71
1
44
1
45
1
0
INSERT
5
128
100
AcDbEntity
8
0
6
ByLayer
62
256
370
-1
100
AcDbBlockReference
2
Flat straight pot (short)-0
10
-80
20
10
30
0
41
1
42
1
43
0
50
90
70
1
71
1
44
1
45
1
0
INSERT
5
129
100
AcDbEntity
8
0
6
ByLayer
62
256
370
-1
100
AcDbBlockReference
2
Flat straight pot (short)-0
10
-140
20
10
30
0
41
1
42
1
43
0
50
90
70
1
71
1
44
1
45
1
0
INSERT
5
12A
100
AcDbEntity
8
0
6
ByLayer
62
256
370
-1
100
AcDbBlockReference
2
Flat straight pot (short)-0
10
-50
20
10
30
0
41
1
42
1
43
0
50
90
70
1
71
1
44
1
45
1
0
ENDBLK
5
9D
330
9B
100
AcDbEntity
8
0
100
AcDbBlockEnd
0
BLOCK
5
9F
330
9E
100
AcDbEntity
8
0
100
AcDbBlockBegin
2
flat v/t x5
70
0
10
0
20
0
3
flat v/t x5
1

0
INSERT
5
12B
100
AcDbEntity
8
0
6
ByLayer
62
256
370
-1
100
AcDbBlockReference
2
Flat straight pot (short)-0
10
-132
20
2.39808173319e-14
30
0
41
1
42
1
43
0
50
270
70
1
71
1
44
1
45
1
0
INSERT
5
12C
100
AcDbEntity
8
0
6
ByLayer
62
256
370
-1
100
AcDbBlockReference
2
Flat straight pot (short)-0
10
-110
20
1.99840144433e-14
30
0
41
1
42
1
43
0
50
270
70
1
71
1
44
1
45
1
0
INSERT
5
12D
100
AcDbEntity
8
0
6
ByLayer
62
256
370
-1
100
AcDbBlockReference
2
Flat straight pot (short)-0
10
-88
20
1.59872115546e-14
30
0
41
1
42
1
43
0
50
270
70
1
71
1
44
1
45
1
0
INSERT
5
12E
100
AcDbEntity
8
0
6
ByLayer
62
256
370
-1
100
AcDbBlockReference
2
Flat straight pot (short)-0
10
-66
20
1.1990408666e-14
30
0
41
1
42
1
43
0
50
270
70
1
71
1
44
1
45
1
0
LINE
5
12F
100
AcDbEntity
8
guides
6
DOT2
62
256
370
-1
100
AcDbLine
10
-66
20
1.1990408666e-14
11
-66
21
1
0
INSERT
5
130
100
AcDbEntity
8
0
6
ByLayer
62
256
370
-1
100
AcDbBlockReference
2
Flat straight pot (short)-0
10
-22
20
3.99680288865e-15
30
0
41
1
42
1
43
0
50
270
70
1
71
1
44
1
45
1
0
ENDBLK
5
A0
330
9E
100
AcDbEntity
8
0
100
AcDbBlockEnd
0
BLOCK
5
A2
330
A1
100
AcDbEntity
8
0
100
AcDbBlockBegin
2
PB+LED 4x
70
0
10
0
20
0
3
PB+LED 4x
1

0
INSERT
5
131
100
AcDbEntity
8
0
6
ByLayer
62
256
370
-1
100
AcDbBlockReference
2
PB + LED-0
10
10.9019237886
20
-24.8826859025
30
0
41
1
42
1
43
0
50
210
70
1
71
1
44
0
45
0
0
INSERT
5
132
100
AcDbEntity
8
0
6
ByLayer
62
256
370
-1
100
AcDbBlockReference
2
PB + LED-0
10
-1.22243186335
20
-31.8826859025
30
0
41
1
42
1
43
0
50
210
70
1
71
1
44
0
45
0
0
INSERT
5
133
100
AcDbEntity
8
0
6
ByLayer
62
256
370
-1
100
AcDbBlockReference
2
PB + LED-0
10
0.901923788647
20
-7.56217782649
30
0
41
1
42
1
43
0
50
210
70
1
71
1
44
0
45
0
0
INSERT
5
134
100
AcDbEntity
8
0
6
ByLayer
62
256
370
-1
100
AcDbBlockReference
2
PB + LED-0
10
-11.2224318639
20
-14.5621778265
30
0
41
1
42
1
43
0
50
210
70
1
71
1
44
0
45
0
0
ENDBLK
5
A3
330
A1
100
AcDbEntity
8
0
100
AcDbBlockEnd
0
ENDSEC
0
SECTION
2
ENTITIES
0
SPLINE
5
135
100
AcDbEntity
8
0
6
ByLayer
62
7
370
-1
100
AcDbSpline
210
0
220
0
230
1
70
8
71
3
72
8
73
4
74
0
42
1e-07
43
1e-07
40
0
40
0
40
0
40
0
40
1
40
1
40
1
40
1
10
-65.4330588082
20
-112.920626714
30
0
10
-57.5020391082
20
-110.041270414
30
0
10
-39.2219766082
20
-102.413433614
30
0
10
-24.8107003082
20
-95.9698605143
30
0
0
SPLINE
5
136
100
AcDbEntity
8
0
6
ByLayer
62
7
370
-1
100
AcDbSpline
210
0
220
0
230
1
70
8
71
3
72
8
73
4
74
0
42
1e-07
43
1e-07
40
0
40
0
40
0
40
0
40
1
40
1
40
1
40
1
10
-24.8107003082
20
-95.9698605143
30
0
10
17.9676656918
20
-76.8427405143
30
0
10
21.2730440918
20
-75.7374180143
30
0
10
36.2107861918
20
-75.5643029143
30
0
0
SPLINE
5
137
100
AcDbEntity
8
0
6
ByLayer
62
7
370
-1
100
AcDbSpline
210
0
220
0
230
1
70
8
71
3
72
8
73
4
74
0
42
1e-07
43
1e-07
40
0
40
0
40
0
40
0
40
1
40
1
40
1
40
1
10
36.2107861918
20
-75.5643029143
30
0
10
50.8909165918
20
-75.3941441143
30
0
10
61.8745956918
20
-78.4722399143
30
0
10
85.7550371918
20
-89.4487421143
30
0
0
SPLINE
5
138
100
AcDbEntity
8
0
6
ByLayer
62
7
370
-1
100
AcDbSpline
210
0
220
0
230
1
70
8
71
3
72
8
73
4
74
0
42
1e-07
43
1e-07
40
0
40
0
40
0
40
0
40
1
40
1
40
1
40
1
10
85.7550371918
20
-89.4487421143
30
0
10
106.965070292
20
-99.1977735143
30
0
10
124.519767692
20
-102.203193214
30
0
10
143.286195592
20
-99.2982642143
30
0
0
SPLINE
5
139
100
AcDbEntity
8
0
6
ByLayer
62
7
370
-1
100
AcDbSpline
210
0
220
0
230
1
70
8
71
3
72
8
73
4
74
0
42
1e-07
43
1e-07
40
0
40
0
40
0
40
0
40
1
40
1
40
1
40
1
10
143.286195592
20
-99.2982642143
30
0
10
163.072847792
20
-96.2354152143
30
0
10
179.632592792
20
-86.4734447143
30
0
10
179.632592792
20
-77.8720640143
30
0
0
SPLINE
5
13A
100
AcDbEntity
8
0
6
ByLayer
62
7
370
-1
100
AcDbSpline
210
0
220
0
230
1
70
8
71
3
72
8
73
4
74
0
42
1e-07
43
1e-07
40
0
40
0
40
0
40
0
40
1
40
1
40
1
40
1
10
179.632592792
20
-77.8720640143
30
0
10
179.632592792
20
-71.1533717143
30
0
10
173.558604192
20
-66.9693283143
30
0
10
158.259088992
20
-63.1490226143
30
0
0
SPLINE
5
13B
100
AcDbEntity
8
0
6
ByLayer
62
7
370
-1
100
AcDbSpline
210
0
220
0
230
1
70
8
71
3
72
8
73
4
74
0
42
1e-07
43
1e-07
40
0
40
0
40
0
40
0
40
1
40
1
40
1
40
1
10
158.259088992
20
-63.1490226143
30
0
10
140.689046092
20
-58.7617653143
30
0
10
131.594132492
20
-53.4427518143
30
0
10
125.227634692
20
-43.8311202143
30
0
0
SPLINE
5
13C
100
AcDbEntity
8
0
6
ByLayer
62
7
370
-1
100
AcDbSpline
210
0
220
0
230
1
70
8
71
3
72
8
73
4
74
0
42
1e-07
43
1e-07
40
0
40
0
40
0
40
0
40
1
40
1
40
1
40
1
10
125.227634692
20
-43.8311202143
30
0
10
112.977230392
20
-25.3363617143
30
0
10
118.604460492
20
1.14247948569
30
0
10
135.879089592
20
6.28909698569
30
0
0
SPLINE
5
13D
100
AcDbEntity
8
0
6
ByLayer
62
7
370
-1
100
AcDbSpline
210
0
220
0
230
1
70
8
71
3
72
8
73
4
74
0
42
1e-07
43
1e-07
40
0
40
0
40
0
40
0
40
1
40
1
40
1
40
1
10
135.879089592
20
6.28909698569
30
0
10
141.608455392
20
7.99603358569
30
0
10
256.592935492
20
10.1171623857
30
0
10
443.263422992
20
11.9594495857
30
0
0
SPLINE
5
13E
100
AcDbEntity
8
0
6
ByLayer
62
7
370
-1
100
AcDbSpline
210
0
220
0
230
1
70
8
71
3
72
8
73
4
74
0
42
1e-07
43
1e-07
40
0
40
0
40
0
40
0
40
1
40
1
40
1
40
1
10
549.793491392
20
13.4195985857
30
0
10
597.591598392
20
13.7099598857
30
0
10
597.362525092
20
13.7482272857
30
0
10
613.954262992
20
2.70020518569
30
0
0
SPLINE
5
13F
100
AcDbEntity
8
0
6
ByLayer
62
7
370
-1
100
AcDbSpline
210
0
220
0
230
1
70
8
71
3
72
8
73
4
74
0
42
1e-07
43
1e-07
40
0
40
0
40
0
40
0
40
1
40
1
40
1
40
1
10
613.954262992
20
2.70020518569
30
0
10
622.237524192
20
-2.81542811431
30
0
10
623.951896192
20
-2.95986851431
30
0
10
649.691342792
20
-0.310638314308
30
0
0
SPLINE
5
140
100
AcDbEntity
8
0
6
ByLayer
62
7
370
-1
100
AcDbSpline
210
0
220
0
230
1
70
8
71
3
72
8
73
4
74
0
42
1e-07
43
1e-07
40
0
40
0
40
0
40
0
40
1
40
1
40
1
40
1
10
649.691342792
20
-0.310638314308
30
0
10
669.373612692
20
1.71514628569
30
0
10
701.201608492
20
2.64032718569
30
0
10
705.236201292
20
1.30394798569
30
0
0
SPLINE
5
141
100
AcDbEntity
8
0
6
ByLayer
62
7
370
-1
100
AcDbSpline
210
0
220
0
230
1
70
8
71
3
72
8
73
4
74
0
42
1e-07
43
1e-07
40
0
40
0
40
0
40
0
40
1
40
1
40
1
40
1
10
705.236201292
20
1.30394798569
30
0
10
706.604098692
20
0.850863285692
30
0
10
718.335185892
20
-0.764056714308
30
0
10
731.305277692
20
-2.28474641431
30
0
0
SPLINE
5
142
100
AcDbEntity
8
0
6
ByLayer
62
7
370
-1
100
AcDbSpline
210
0
220
0
230
1
70
8
71
3
72
8
73
4
74
0
42
1e-07
43
1e-07
40
0
40
0
40
0
40
0
40
1
40
1
40
1
40
1
10
731.305277692
20
-2.28474641431
30
0
10
752.378963792
20
-4.75552701431
30
0
10
755.399808892
20
-4.78457771431
30
0
10
759.705807892
20
-2.55786341431
30
0
0
SPLINE
5
143
100
AcDbEntity
8
0
6
ByLayer
62
7
370
-1
100
AcDbSpline
210
0
220
0
230
1
70
8
71
3
72
8
73
4
74
0
42
1e-07
43
1e-07
40
0
40
0
40
0
40
0
40
1
40
1
40
1
40
1
10
759.705807892
20
-2.55786341431
30
0
10
766.045933992
20
0.720753185692
30
0
10
767.416547992
20
4.68146198569
30
0
10
763.712040892
20
9.01910608569
30
0
0
SPLINE
5
144
100
AcDbEntity
8
0
6
ByLayer
62
7
370
-1
100
AcDbSpline
210
0
220
0
230
1
70
8
71
3
72
8
73
4
74
0
42
1e-07
43
1e-07
40
0
40
0
40
0
40
0
40
1
40
1
40
1
40
1
10
763.712040892
20
9.01910608569
30
0
10
762.080764892
20
10.9291860857
30
0
10
759.280988992
20
15.3823279857
30
0
10
757.490312492
20
18.9149795857
30
0
0
SPLINE
5
145
100
AcDbEntity
8
0
6
ByLayer
62
7
370
-1
100
AcDbSpline
210
0
220
0
230
1
70
8
71
3
72
8
73
4
74
0
42
1e-07
43
1e-07
40
0
40
0
40
0
40
0
40
1
40
1
40
1
40
1
10
757.490312492
20
18.9149795857
30
0
10
755.699654792
20
22.4476076857
30
0
10
752.536493692
20
26.4505882857
30
0
10
750.461072392
20
27.8104627857
30
0
0
SPLINE
5
146
100
AcDbEntity
8
0
6
ByLayer
62
7
370
-1
100
AcDbSpline
210
0
220
0
230
1
70
8
71
3
72
8
73
4
74
0
42
1e-07
43
1e-07
40
0
40
0
40
0
40
0
40
1
40
1
40
1
40
1
10
750.461072392
20
27.8104627857
30
0
10
746.205015592
20
30.5991372857
30
0
10
745.357765392
20
36.5337708857
30
0
10
749.215713392
20
36.5337708857
30
0
0
SPLINE
5
147
100
AcDbEntity
8
0
6
ByLayer
62
7
370
-1
100
AcDbSpline
210
0
220
0
230
1
70
8
71
3
72
8
73
4
74
0
42
1e-07
43
1e-07
40
0
40
0
40
0
40
0
40
1
40
1
40
1
40
1
10
749.215713392
20
36.5337708857
30
0
10
751.274938492
20
36.5337708857
30
0
10
754.977866392
20
42.5178390857
30
0
10
754.977866392
20
45.8456223857
30
0
0
SPLINE
5
148
100
AcDbEntity
8
0
6
ByLayer
62
7
370
-1
100
AcDbSpline
210
0
220
0
230
1
70
8
71
3
72
8
73
4
74
0
42
1e-07
43
1e-07
40
0
40
0
40
0
40
0
40
1
40
1
40
1
40
1
10
754.977866392
20
45.8456223857
30
0
10
754.977866392
20
47.6420516857
30
0
10
742.918380792
20
51.5359217857
30
0
10
740.112682892
20
50.6454268857
30
0
0
SPLINE
5
149
100
AcDbEntity
8
0
6
ByLayer
62
7
370
-1
100
AcDbSpline
210
0
220
0
230
1
70
8
71
3
72
8
73
4
74
0
42
1e-07
43
1e-07
40
0
40
0
40
0
40
0
40
1
40
1
40
1
40
1
10
740.112682892
20
50.6454268857
30
0
10
736.607751892
20
49.5330026857
30
0
10
734.451937092
20
43.1320350857
30
0
10
736.793561692
20
40.7904104857
30
0
0
SPLINE
5
14A
100
AcDbEntity
8
0
6
ByLayer
62
7
370
-1
100
AcDbSpline
210
0
220
0
230
1
70
8
71
3
72
8
73
4
74
0
42
1e-07
43
1e-07
40
0
40
0
40
0
40
0
40
1
40
1
40
1
40
1
10
736.793561692
20
40.7904104857
30
0
10
739.695026792
20
37.8889453857
30
0
10
738.469403092
20
34.8757142857
30
0
10
734.387791492
20
34.8757142857
30
0
0
SPLINE
5
14B
100
AcDbEntity
8
0
6
ByLayer
62
7
370
-1
100
AcDbSpline
210
0
220
0
230
1
70
8
71
3
72
8
73
4
74
0
42
1e-07
43
1e-07
40
0
40
0
40
0
40
0
40
1
40
1
40
1
40
1
10
734.387791492
20
34.8757142857
30
0
10
725.369680592
20
34.8757142857
30
0
10
721.930103092
20
39.6771919857
30
0
10
728.448979592
20
43.1659925857
30
0
0
SPLINE
5
14C
100
AcDbEntity
8
0
6
ByLayer
62
7
370
-1
100
AcDbSpline
210
0
220
0
230
1
70
8
71
3
72
8
73
4
74
0
42
1e-07
43
1e-07
40
0
40
0
40
0
40
0
40
1
40
1
40
1
40
1
10
728.448979592
20
43.1659925857
30
0
10
731.925762292
20
45.0267131857
30
0
10
733.020519192
20
52.1427199857
30
0
10
730.107036192
20
53.9433510857
30
0
0
SPLINE
5
14D
100
AcDbEntity
8
0
6
ByLayer
62
7
370
-1
100
AcDbSpline
210
0
220
0
230
1
70
8
71
3
72
8
73
4
74
0
42
1e-07
43
1e-07
40
0
40
0
40
0
40
0
40
1
40
1
40
1
40
1
10
730.107036192
20
53.9433510857
30
0
10
729.173855892
20
54.5200927857
30
0
10
728.448979592
20
53.1906742857
30
0
10
728.448979592
20
50.9024933857
30
0
0
SPLINE
5
14E
100
AcDbEntity
8
0
6
ByLayer
62
7
370
-1
100
AcDbSpline
210
0
220
0
230
1
70
8
71
3
72
8
73
4
74
0
42
1e-07
43
1e-07
40
0
40
0
40
0
40
0
40
1
40
1
40
1
40
1
10
728.448979592
20
50.9024933857
30
0
10
728.448979592
20
47.1699460857
30
0
10
725.767653092
20
44.8240491857
30
0
10
721.501397292
20
44.8240491857
30
0
0
SPLINE
5
14F
100
AcDbEntity
8
0
6
ByLayer
62
7
370
-1
100
AcDbSpline
210
0
220
0
230
1
70
8
71
3
72
8
73
4
74
0
42
1e-07
43
1e-07
40
0
40
0
40
0
40
0
40
1
40
1
40
1
40
1
10
721.501397292
20
44.8240491857
30
0
10
719.898401192
20
44.8240491857
30
0
10
720.450054292
20
49.2815526857
30
0
10
722.816100092
20
55.4473698857
30
0
0
SPLINE
5
150
100
AcDbEntity
8
0
6
ByLayer
62
7
370
-1
100
AcDbSpline
210
0
220
0
230
1
70
8
71
3
72
8
73
4
74
0
42
1e-07
43
1e-07
40
0
40
0
40
0
40
0
40
1
40
1
40
1
40
1
10
722.816100092
20
55.4473698857
30
0
10
723.539942392
20
57.3336678857
30
0
10
722.859076892
20
58.0884925857
30
0
10
720.433952092
20
58.0884925857
30
0
0
SPLINE
5
151
100
AcDbEntity
8
0
6
ByLayer
62
7
370
-1
100
AcDbSpline
210
0
220
0
230
1
70
8
71
3
72
8
73
4
74
0
42
1e-07
43
1e-07
40
0
40
0
40
0
40
0
40
1
40
1
40
1
40
1
10
720.433952092
20
58.0884925857
30
0
10
718.566345992
20
58.0884925857
30
0
10
716.577169692
20
57.3423675857
30
0
10
716.013564492
20
56.4304359857
30
0
0
SPLINE
5
152
100
AcDbEntity
8
0
6
ByLayer
62
7
370
-1
100
AcDbSpline
210
0
220
0
230
1
70
8
71
3
72
8
73
4
74
0
42
1e-07
43
1e-07
40
0
40
0
40
0
40
0
40
1
40
1
40
1
40
1
10
716.013564492
20
56.4304359857
30
0
10
714.213140192
20
53.5172866857
30
0
10
710.634447392
20
54.6495777857
30
0
10
709.463127492
20
58.5030043857
30
0
0
SPLINE
5
153
100
AcDbEntity
8
0
6
ByLayer
62
7
370
-1
100
AcDbSpline
210
0
220
0
230
1
70
8
71
3
72
8
73
4
74
0
42
1e-07
43
1e-07
40
0
40
0
40
0
40
0
40
1
40
1
40
1
40
1
10
709.463127492
20
58.5030043857
30
0
10
708.273134492
20
62.4178458857
30
0
10
707.834069892
20
61.8575729857
30
0
10
706.161650092
20
54.2900606857
30
0
0
SPLINE
5
154
100
AcDbEntity
8
0
6
ByLayer
62
7
370
-1
100
AcDbSpline
210
0
220
0
230
1
70
8
71
3
72
8
73
4
74
0
42
1e-07
43
1e-07
40
0
40
0
40
0
40
0
40
1
40
1
40
1
40
1
10
706.161650092
20
54.2900606857
30
0
10
705.531121592
20
51.4369444857
30
0
10
704.423622992
20
50.1047012857
30
0
10
703.273340292
20
50.8156091857
30
0
0
SPLINE
5
155
100
AcDbEntity
8
0
6
ByLayer
62
7
370
-1
100
AcDbSpline
210
0
220
0
230
1
70
8
71
3
72
8
73
4
74
0
42
1e-07
43
1e-07
40
0
40
0
40
0
40
0
40
1
40
1
40
1
40
1
10
703.273340292
20
50.8156091857
30
0
10
702.134802892
20
51.5192743857
30
0
10
701.868782892
20
51.2226056857
30
0
10
702.590792192
20
50.0544018857
30
0
0
SPLINE
5
156
100
AcDbEntity
8
0
6
ByLayer
62
7
370
-1
100
AcDbSpline
210
0
220
0
230
1
70
8
71
3
72
8
73
4
74
0
42
1e-07
43
1e-07
40
0
40
0
40
0
40
0
40
1
40
1
40
1
40
1
10
702.590792192
20
50.0544018857
30
0
10
703.241483692
20
49.0015642857
30
0
10
702.879771692
20
48.1401576857
30
0
10
701.786993492
20
48.1401576857
30
0
0
SPLINE
5
157
100
AcDbEntity
8
0
6
ByLayer
62
7
370
-1
100
AcDbSpline
210
0
220
0
230
1
70
8
71
3
72
8
73
4
74
0
42
1e-07
43
1e-07
40
0
40
0
40
0
40
0
40
1
40
1
40
1
40
1
10
701.786993492
20
48.1401576857
30
0
10
700.377223792
20
48.1401576857
30
0
10
700.085325592
20
50.5480663857
30
0
10
700.781987792
20
56.4304359857
30
0
0
SPLINE
5
158
100
AcDbEntity
8
0
6
ByLayer
62
7
370
-1
100
AcDbSpline
210
0
220
0
230
1
70
8
71
3
72
8
73
4
74
0
42
1e-07
43
1e-07
40
0
40
0
40
0
40
0
40
1
40
1
40
1
40
1
10
700.781987792
20
56.4304359857
30
0
10
701.724972292
20
64.3924192857
30
0
10
701.602805192
20
64.7207142857
30
0
10
697.696837292
20
64.7207142857
30
0
0
SPLINE
5
159
100
AcDbEntity
8
0
6
ByLayer
62
7
370
-1
100
AcDbSpline
210
0
220
0
230
1
70
8
71
3
72
8
73
4
74
0
42
1e-07
43
1e-07
40
0
40
0
40
0
40
0
40
1
40
1
40
1
40
1
10
697.696837292
20
64.7207142857
30
0
10
695.459975692
20
64.7207142857
30
0
10
693.629814492
20
63.9745892857
30
0
10
693.629814492
20
63.0626576857
30
0
0
SPLINE
5
15A
100
AcDbEntity
8
0
6
ByLayer
62
7
370
-1
100
AcDbSpline
210
0
220
0
230
1
70
8
71
3
72
8
73
4
74
0
42
1e-07
43
1e-07
40
0
40
0
40
0
40
0
40
1
40
1
40
1
40
1
10
693.629814492
20
63.0626576857
30
0
10
693.629814492
20
62.1507260857
30
0
10
692.510626992
20
61.4046010857
30
0
10
691.142729592
20
61.4046010857
30
0
0
SPLINE
5
15B
100
AcDbEntity
8
0
6
ByLayer
62
7
370
-1
100
AcDbSpline
210
0
220
0
230
1
70
8
71
3
72
8
73
4
74
0
42
1e-07
43
1e-07
40
0
40
0
40
0
40
0
40
1
40
1
40
1
40
1
10
691.142729592
20
61.4046010857
30
0
10
689.774832192
20
61.4046010857
30
0
10
688.655644692
20
62.4797542857
30
0
10
688.655644692
20
63.7938366857
30
0
0
SPLINE
5
15C
100
AcDbEntity
8
0
6
ByLayer
62
7
370
-1
100
AcDbSpline
210
0
220
0
230
1
70
8
71
3
72
8
73
4
74
0
42
1e-07
43
1e-07
40
0
40
0
40
0
40
0
40
1
40
1
40
1
40
1
10
688.655644692
20
63.7938366857
30
0
10
688.655644692
20
65.1079049857
30
0
10
687.909519692
20
66.6441892857
30
0
10
686.997592792
20
67.2077991857
30
0
0
SPLINE
5
15D
100
AcDbEntity
8
0
6
ByLayer
62
7
370
-1
100
AcDbSpline
210
0
220
0
230
1
70
8
71
3
72
8
73
4
74
0
42
1e-07
43
1e-07
40
0
40
0
40
0
40
0
40
1
40
1
40
1
40
1
10
686.997592792
20
67.2077991857
30
0
10
686.085661192
20
67.7714043857
30
0
10
685.339536192
20
66.6264044857
30
0
10
685.339536192
20
64.6633460857
30
0
0
SPLINE
5
15E
100
AcDbEntity
8
0
6
ByLayer
62
7
370
-1
100
AcDbSpline
210
0
220
0
230
1
70
8
71
3
72
8
73
4
74
0
42
1e-07
43
1e-07
40
0
40
0
40
0
40
0
40
1
40
1
40
1
40
1
10
685.339536192
20
64.6633460857
30
0
10
685.339536192
20
62.6338860857
30
0
10
686.614392392
20
60.7607621857
30
0
10
688.294722292
20
60.3213497857
30
0
0
SPLINE
5
15F
100
AcDbEntity
8
0
6
ByLayer
62
7
370
-1
100
AcDbSpline
210
0
220
0
230
1
70
8
71
3
72
8
73
4
74
0
42
1e-07
43
1e-07
40
0
40
0
40
0
40
0
40
1
40
1
40
1
40
1
10
688.294722292
20
60.3213497857
30
0
10
691.646113692
20
59.4449407857
30
0
10
696.074820292
20
50.7548475857
30
0
10
694.482793992
20
48.1789326857
30
0
0
SPLINE
5
160
100
AcDbEntity
8
0
6
ByLayer
62
7
370
-1
100
AcDbSpline
210
0
220
0
230
1
70
8
71
3
72
8
73
4
74
0
42
1e-07
43
1e-07
40
0
40
0
40
0
40
0
40
1
40
1
40
1
40
1
10
694.482793992
20
48.1789326857
30
0
10
691.315196092
20
43.0536437857
30
0
10
679.243264892
20
48.6443266857
30
0
10
680.780945092
20
54.5244308857
30
0
0
SPLINE
5
161
100
AcDbEntity
8
0
6
ByLayer
62
7
370
-1
100
AcDbSpline
210
0
220
0
230
1
70
8
71
3
72
8
73
4
74
0
42
1e-07
43
1e-07
40
0
40
0
40
0
40
0
40
1
40
1
40
1
40
1
10
680.780945092
20
54.5244308857
30
0
10
681.408310492
20
56.9234753857
30
0
10
680.950727892
20
58.0884925857
30
0
10
679.381106492
20
58.0884925857
30
0
0
SPLINE
5
162
100
AcDbEntity
8
0
6
ByLayer
62
7
370
-1
100
AcDbSpline
210
0
220
0
230
1
70
8
71
3
72
8
73
4
74
0
42
1e-07
43
1e-07
40
0
40
0
40
0
40
0
40
1
40
1
40
1
40
1
10
679.381106492
20
58.0884925857
30
0
10
676.795721092
20
58.0884925857
30
0
10
676.635483992
20
58.8626718857
30
0
10
678.094307592
20
64.3062024857
30
0
0
SPLINE
5
163
100
AcDbEntity
8
0
6
ByLayer
62
7
370
-1
100
AcDbSpline
210
0
220
0
230
1
70
8
71
3
72
8
73
4
74
0
42
1e-07
43
1e-07
40
0
40
0
40
0
40
0
40
1
40
1
40
1
40
1
10
678.094307592
20
64.3062024857
30
0
10
678.644174692
20
66.3580391857
30
0
10
680.275474192
20
68.0368274857
30
0
10
681.719389392
20
68.0368274857
30
0
0
SPLINE
5
164
100
AcDbEntity
8
0
6
ByLayer
62
7
370
-1
100
AcDbSpline
210
0
220
0
230
1
70
8
71
3
72
8
73
4
74
0
42
1e-07
43
1e-07
40
0
40
0
40
0
40
0
40
1
40
1
40
1
40
1
10
681.719389392
20
68.0368274857
30
0
10
683.596508292
20
68.0368274857
30
0
10
683.835225992
20
68.5462980857
30
0
10
682.557028092
20
69.8245006857
30
0
0
SPLINE
5
165
100
AcDbEntity
8
0
6
ByLayer
62
7
370
-1
100
AcDbSpline
210
0
220
0
230
1
70
8
71
3
72
8
73
4
74
0
42
1e-07
43
1e-07
40
0
40
0
40
0
40
0
40
1
40
1
40
1
40
1
10
682.557028092
20
69.8245006857
30
0
10
681.573797492
20
70.8077265857
30
0
10
678.626596692
20
71.3673132857
30
0
10
676.007695592
20
71.0680407857
30
0
0
SPLINE
5
166
100
AcDbEntity
8
0
6
ByLayer
62
7
370
-1
100
AcDbSpline
210
0
220
0
230
1
70
8
71
3
72
8
73
4
74
0
42
1e-07
43
1e-07
40
0
40
0
40
0
40
0
40
1
40
1
40
1
40
1
10
676.007695592
20
71.0680407857
30
0
10
671.368612292
20
70.5379136857
30
0
10
671.258002492
20
70.2998727857
30
0
10
671.710198892
20
61.8191175857
30
0
0
SPLINE
5
167
100
AcDbEntity
8
0
6
ByLayer
62
7
370
-1
100
AcDbSpline
210
0
220
0
230
1
70
8
71
3
72
8
73
4
74
0
42
1e-07
43
1e-07
40
0
40
0
40
0
40
0
40
1
40
1
40
1
40
1
10
671.710198892
20
61.8191175857
30
0
10
672.142326292
20
53.7148981857
30
0
10
671.913544392
20
53.1179605857
30
0
10
668.394085692
20
53.1670520857
30
0
0
SPLINE
5
168
100
AcDbEntity
8
0
6
ByLayer
62
7
370
-1
100
AcDbSpline
210
0
220
0
230
1
70
8
71
3
72
8
73
4
74
0
42
1e-07
43
1e-07
40
0
40
0
40
0
40
0
40
1
40
1
40
1
40
1
10
668.394085692
20
53.1670520857
30
0
10
660.109978492
20
53.2825827857
30
0
10
654.888602792
20
63.3083172857
30
0
10
662.126757892
20
65.2011388857
30
0
0
SPLINE
5
169
100
AcDbEntity
8
0
6
ByLayer
62
7
370
-1
100
AcDbSpline
210
0
220
0
230
1
70
8
71
3
72
8
73
4
74
0
42
1e-07
43
1e-07
40
0
40
0
40
0
40
0
40
1
40
1
40
1
40
1
10
662.126757892
20
65.2011388857
30
0
10
664.277745792
20
65.7636301857
30
0
10
665.442866392
20
67.4627553857
30
0
10
665.442866392
20
70.0370628857
30
0
0
SPLINE
5
16A
100
AcDbEntity
8
0
6
ByLayer
62
7
370
-1
100
AcDbSpline
210
0
220
0
230
1
70
8
71
3
72
8
73
4
74
0
42
1e-07
43
1e-07
40
0
40
0
40
0
40
0
40
1
40
1
40
1
40
1
10
665.442866392
20
70.0370628857
30
0
10
665.442866392
20
75.4653795857
30
0
10
662.472771892
20
77.9851576857
30
0
10
656.074337592
20
77.9851576857
30
0
0
SPLINE
5
16B
100
AcDbEntity
8
0
6
ByLayer
62
7
370
-1
100
AcDbSpline
210
0
220
0
230
1
70
8
71
3
72
8
73
4
74
0
42
1e-07
43
1e-07
40
0
40
0
40
0
40
0
40
1
40
1
40
1
40
1
10
656.074337592
20
77.9851576857
30
0
10
649.371347992
20
77.9851576857
30
0
10
646.984438892
20
74.3564991857
30
0
10
649.428358992
20
67.8817885857
30
0
0
SPLINE
5
16C
100
AcDbEntity
8
0
6
ByLayer
62
7
370
-1
100
AcDbSpline
210
0
220
0
230
1
70
8
71
3
72
8
73
4
74
0
42
1e-07
43
1e-07
40
0
40
0
40
0
40
0
40
1
40
1
40
1
40
1
10
649.428358992
20
67.8817885857
30
0
10
651.687451592
20
61.8967803857
30
0
10
650.428392092
20
60.7417506857
30
0
10
643.136436092
20
62.1097279857
30
0
0
SPLINE
5
16D
100
AcDbEntity
8
0
6
ByLayer
62
7
370
-1
100
AcDbSpline
210
0
220
0
230
1
70
8
71
3
72
8
73
4
74
0
42
1e-07
43
1e-07
40
0
40
0
40
0
40
0
40
1
40
1
40
1
40
1
10
643.136436092
20
62.1097279857
30
0
10
638.351366092
20
63.0074138857
30
0
10
637.255922992
20
63.9502761857
30
0
10
637.255922992
20
67.1712002857
30
0
0
SPLINE
5
16E
100
AcDbEntity
8
0
6
ByLayer
62
7
370
-1
100
AcDbSpline
210
0
220
0
230
1
70
8
71
3
72
8
73
4
74
0
42
1e-07
43
1e-07
40
0
40
0
40
0
40
0
40
1
40
1
40
1
40
1
10
637.255922992
20
67.1712002857
30
0
10
637.255922992
20
69.6732734857
30
0
10
638.475883192
20
71.5166745857
30
0
10
640.572036192
20
72.1819642857
30
0
0
SPLINE
5
16F
100
AcDbEntity
8
0
6
ByLayer
62
7
370
-1
100
AcDbSpline
210
0
220
0
230
1
70
8
71
3
72
8
73
4
74
0
42
1e-07
43
1e-07
40
0
40
0
40
0
40
0
40
1
40
1
40
1
40
1
10
640.572036192
20
72.1819642857
30
0
10
644.390099992
20
73.3937793857
30
0
10
645.088698592
20
79.8988613857
30
0
10
641.702564792
20
82.7091041857
30
0
0
SPLINE
5
170
100
AcDbEntity
8
0
6
ByLayer
62
7
370
-1
100
AcDbSpline
210
0
220
0
230
1
70
8
71
3
72
8
73
4
74
0
42
1e-07
43
1e-07
40
0
40
0
40
0
40
0
40
1
40
1
40
1
40
1
10
641.702564792
20
82.7091041857
30
0
10
640.500488092
20
83.7067355857
30
0
10
637.061028092
20
84.7307527857
30
0
10
634.059326092
20
84.9846984857
30
0
0
SPLINE
5
171
100
AcDbEntity
8
0
6
ByLayer
62
7
370
-1
100
AcDbSpline
210
0
220
0
230
1
70
8
71
3
72
8
73
4
74
0
42
1e-07
43
1e-07
40
0
40
0
40
0
40
0
40
1
40
1
40
1
40
1
10
634.059326092
20
84.9846984857
30
0
10
627.197814892
20
85.5651766857
30
0
10
623.750397792
20
81.4069221857
30
0
10
626.905159992
20
76.3553292857
30
0
0
SPLINE
5
172
100
AcDbEntity
8
0
6
ByLayer
62
7
370
-1
100
AcDbSpline
210
0
220
0
230
1
70
8
71
3
72
8
73
4
74
0
42
1e-07
43
1e-07
40
0
40
0
40
0
40
0
40
1
40
1
40
1
40
1
10
626.905159992
20
76.3553292857
30
0
10
630.433938792
20
70.7048764857
30
0
10
629.480971492
20
69.2291516857
30
0
10
623.078899392
20
70.4301943857
30
0
0
SPLINE
5
173
100
AcDbEntity
8
0
6
ByLayer
62
7
370
-1
100
AcDbSpline
210
0
220
0
230
1
70
8
71
3
72
8
73
4
74
0
42
1e-07
43
1e-07
40
0
40
0
40
0
40
0
40
1
40
1
40
1
40
1
10
623.078899392
20
70.4301943857
30
0
10
618.233199392
20
71.3392495857
30
0
10
615.698414192
20
70.6154448857
30
0
10
608.745685392
20
66.3373826857
30
0
0
SPLINE
5
174
100
AcDbEntity
8
0
6
ByLayer
62
7
370
-1
100
AcDbSpline
210
0
220
0
230
1
70
8
71
3
72
8
73
4
74
0
42
1e-07
43
1e-07
40
0
40
0
40
0
40
0
40
1
40
1
40
1
40
1
10
608.745685392
20
66.3373826857
30
0
10
604.100130192
20
63.4789507857
30
0
10
598.355249692
20
60.3926581857
30
0
10
595.979305692
20
59.4789640857
30
0
0
SPLINE
5
175
100
AcDbEntity
8
0
6
ByLayer
62
7
370
-1
100
AcDbSpline
210
0
220
0
230
1
70
8
71
3
72
8
73
4
74
0
42
1e-07
43
1e-07
40
0
40
0
40
0
40
0
40
1
40
1
40
1
40
1
10
595.979305692
20
59.4789640857
30
0
10
593.584162192
20
58.5578956857
30
0
10
576.514876092
20
57.8378321857
30
0
10
557.669257892
20
57.8628784857
30
0
0
SPLINE
5
176
100
AcDbEntity
8
0
6
ByLayer
62
7
370
-1
100
AcDbSpline
210
0
220
0
230
1
70
8
71
3
72
8
73
4
74
0
42
1e-07
43
1e-07
40
0
40
0
40
0
40
0
40
1
40
1
40
1
40
1
10
391.449189492
20
60.2616597857
30
0
10
393.045060392
20
60.6787048857
30
0
10
380.547473692
20
61.1075845857
30
0
10
363.676757892
20
61.2147116857
30
0
0
SPLINE
5
177
100
AcDbEntity
8
0
6
ByLayer
62
7
370
-1
100
AcDbSpline
210
0
220
0
230
1
70
8
71
3
72
8
73
4
74
0
42
1e-07
43
1e-07
40
0
40
0
40
0
40
0
40
1
40
1
40
1
40
1
10
363.676757892
20
61.2147116857
30
0
10
346.806042092
20
61.3218857857
30
0
10
305.582628792
20
61.9024955857
30
0
10
272.069189492
20
62.5050496857
30
0
0
SPLINE
5
178
100
AcDbEntity
8
0
6
ByLayer
62
7
370
-1
100
AcDbSpline
210
0
220
0
230
1
70
8
71
3
72
8
73
4
74
0
42
1e-07
43
1e-07
40
0
40
0
40
0
40
0
40
1
40
1
40
1
40
1
10
189.906181792
20
64.7207142857
30
0
10
179.330359292
20
64.7207142857
30
0
10
178.306144692
20
65.0576290857
30
0
10
173.524580892
20
70.1093958857
30
0
0
SPLINE
5
179
100
AcDbEntity
8
0
6
ByLayer
62
7
370
-1
100
AcDbSpline
210
0
220
0
230
1
70
8
71
3
72
8
73
4
74
0
42
1e-07
43
1e-07
40
0
40
0
40
0
40
0
40
1
40
1
40
1
40
1
10
173.524580892
20
70.1093958857
30
0
10
166.429691192
20
77.6052002857
30
0
10
164.710092792
20
81.5624592857
30
0
10
164.710092792
20
90.3939096857
30
0
0
SPLINE
5
17A
100
AcDbEntity
8
0
6
ByLayer
62
7
370
-1
100
AcDbSpline
210
0
220
0
230
1
70
8
71
3
72
8
73
4
74
0
42
1e-07
43
1e-07
40
0
40
0
40
0
40
0
40
1
40
1
40
1
40
1
10
164.710092792
20
90.3939096857
30
0
10
164.710092792
20
99.6520119857
30
0
10
167.374546292
20
105.091063486
30
0
10
175.765301192
20
112.961316886
30
0
0
SPLINE
5
17B
100
AcDbEntity
8
0
6
ByLayer
62
7
370
-1
100
AcDbSpline
210
0
220
0
230
1
70
8
71
3
72
8
73
4
74
0
42
1e-07
43
1e-07
40
0
40
0
40
0
40
0
40
1
40
1
40
1
40
1
10
175.765301192
20
112.961316886
30
0
10
183.976708792
20
120.663338486
30
0
10
191.890117592
20
125.272534486
30
0
10
201.187314492
20
127.768455386
30
0
0
SPLINE
5
17C
100
AcDbEntity
8
0
6
ByLayer
62
7
370
-1
100
AcDbSpline
210
0
220
0
230
1
70
8
71
3
72
8
73
4
74
0
42
1e-07
43
1e-07
40
0
40
0
40
0
40
0
40
1
40
1
40
1
40
1
10
201.187314492
20
127.768455386
30
0
10
209.786067892
20
130.076883886
30
0
10
240.522465192
20
134.640663786
30
0
10
249.667743992
20
134.966904886
30
0
0
SPLINE
5
17D
100
AcDbEntity
8
0
6
ByLayer
62
7
370
-1
100
AcDbSpline
210
0
220
0
230
1
70
8
71
3
72
8
73
4
74
0
42
1e-07
43
1e-07
40
0
40
0
40
0
40
0
40
1
40
1
40
1
40
1
10
249.667743992
20
134.966904886
30
0
10
254.929812292
20
135.154618186
30
0
10
256.121238792
20
135.915284986
30
0
10
257.543505792
20
139.995148186
30
0
0
SPLINE
5
17E
100
AcDbEntity
8
0
6
ByLayer
62
7
370
-1
100
AcDbSpline
210
0
220
0
230
1
70
8
71
3
72
8
73
4
74
0
42
1e-07
43
1e-07
40
0
40
0
40
0
40
0
40
1
40
1
40
1
40
1
10
257.543505792
20
139.995148186
30
0
10
259.753069792
20
146.333516486
30
0
10
259.659502192
20
147.623492586
30
0
10
256.990155992
20
147.623492586
30
0
0
SPLINE
5
17F
100
AcDbEntity
8
0
6
ByLayer
62
7
370
-1
100
AcDbSpline
210
0
220
0
230
1
70
8
71
3
72
8
73
4
74
0
42
1e-07
43
1e-07
40
0
40
0
40
0
40
0
40
1
40
1
40
1
40
1
10
256.990155992
20
147.623492586
30
0
10
255.764132792
20
147.623492586
30
0
10
250.396756292
20
151.442571586
30
0
10
245.062646392
20
156.110338986
30
0
0
SPLINE
5
180
100
AcDbEntity
8
0
6
ByLayer
62
7
370
-1
100
AcDbSpline
210
0
220
0
230
1
70
8
71
3
72
8
73
4
74
0
42
1e-07
43
1e-07
40
0
40
0
40
0
40
0
40
1
40
1
40
1
40
1
10
245.062646392
20
156.110338986
30
0
10
239.728536492
20
160.778106386
30
0
10
231.964658192
20
166.092612586
30
0
10
227.809594992
20
167.920353286
30
0
0
SPLINE
5
181
100
AcDbEntity
8
0
6
ByLayer
62
7
370
-1
100
AcDbSpline
210
0
220
0
230
1
70
8
71
3
72
8
73
4
74
0
42
1e-07
43
1e-07
40
0
40
0
40
0
40
0
40
1
40
1
40
1
40
1
10
227.809594992
20
167.920353286
30
0
10
218.245174892
20
172.127595886
30
0
10
199.929805992
20
173.456130786
30
0
10
185.222016092
20
171.009512886
30
0
0
SPLINE
5
182
100
AcDbEntity
8
0
6
ByLayer
62
7
370
-1
100
AcDbSpline
210
0
220
0
230
1
70
8
71
3
72
8
73
4
74
0
42
1e-07
43
1e-07
40
0
40
0
40
0
40
0
40
1
40
1
40
1
40
1
10
185.222016092
20
171.009512886
30
0
10
171.091574192
20
168.658939486
30
0
10
119.794401792
20
152.520798586
30
0
10
120.878329892
20
150.766937186
30
0
0
SPLINE
5
183
100
AcDbEntity
8
0
6
ByLayer
62
7
370
-1
100
AcDbSpline
210
0
220
0
230
1
70
8
71
3
72
8
73
4
74
0
42
1e-07
43
1e-07
40
0
40
0
40
0
40
0
40
1
40
1
40
1
40
1
10
120.878329892
20
150.766937186
30
0
10
121.315020992
20
150.060353286
30
0
10
120.350472892
20
149.554464086
30
0
10
118.734876092
20
149.642739486
30
0
0
SPLINE
5
184
100
AcDbEntity
8
0
6
ByLayer
62
7
370
-1
100
AcDbSpline
210
0
220
0
230
1
70
8
71
3
72
8
73
4
74
0
42
1e-07
43
1e-07
40
0
40
0
40
0
40
0
40
1
40
1
40
1
40
1
10
118.734876092
20
149.642739486
30
0
10
117.119307492
20
149.731014886
30
0
10
110.574576292
20
148.106779486
30
0
10
104.191064492
20
146.033332186
30
0
0
SPLINE
5
185
100
AcDbEntity
8
0
6
ByLayer
62
7
370
-1
100
AcDbSpline
210
0
220
0
230
1
70
8
71
3
72
8
73
4
74
0
42
1e-07
43
1e-07
40
0
40
0
40
0
40
0
40
1
40
1
40
1
40
1
10
104.191064492
20
146.033332186
30
0
10
90.8646186918
20
141.704726186
30
0
10
67.6920065918
20
140.829092686
30
0
10
55.2784229918
20
144.185043086
30
0
0
SPLINE
5
186
100
AcDbEntity
8
0
6
ByLayer
62
7
370
-1
100
AcDbSpline
210
0
220
0
230
1
70
8
71
3
72
8
73
4
74
0
42
1e-07
43
1e-07
40
0
40
0
40
0
40
0
40
1
40
1
40
1
40
1
10
55.2784229918
20
144.185043086
30
0
10
51.1747354918
20
145.294454586
30
0
10
32.8946729918
20
153.547132886
30
0
10
14.6560644918
20
162.524330286
30
0
0
SPLINE
5
187
100
AcDbEntity
8
0
6
ByLayer
62
7
370
-1
100
AcDbSpline
210
0
220
0
230
1
70
8
71
3
72
8
73
4
74
0
42
1e-07
43
1e-07
40
0
40
0
40
0
40
0
40
1
40
1
40
1
40
1
10
14.6560644918
20
162.524330286
30
0
10
-43.5948754082
20
191.195942386
30
0
10
-59.7843450082
20
196.151904386
30
0
10
-95.6046336082
20
196.277629386
30
0
0
SPLINE
5
188
100
AcDbEntity
8
0
6
ByLayer
62
7
370
-1
100
AcDbSpline
210
0
220
0
230
1
70
8
71
3
72
8
73
4
74
0
42
1e-07
43
1e-07
40
0
40
0
40
0
40
0
40
1
40
1
40
1
40
1
10
-95.6046336082
20
196.277629386
30
0
10
-121.329185908
20
196.367921086
30
0
10
-131.226168608
20
193.832825686
30
0
10
-150.685254308
20
182.168807486
30
0
0
SPLINE
5
189
100
AcDbEntity
8
0
6
ByLayer
62
7
370
-1
100
AcDbSpline
210
0
220
0
230
1
70
8
71
3
72
8
73
4
74
0
42
1e-07
43
1e-07
40
0
40
0
40
0
40
0
40
1
40
1
40
1
40
1
10
-150.685254308
20
182.168807486
30
0
10
-185.985892108
20
161.009163086
30
0
10
-206.663429308
20
115.960772286
30
0
10
-206.687686008
20
60.1610609857
30
0
0
SPLINE
5
18A
100
AcDbEntity
8
0
6
ByLayer
62
7
370
-1
100
AcDbSpline
210
0
220
0
230
1
70
8
71
3
72
8
73
4
74
0
42
1e-07
43
1e-07
40
0
40
0
40
0
40
0
40
1
40
1
40
1
40
1
10
-211.668520408
20
44.8240491857
30
0
10
-216.090003108
20
44.8240491857
30
0
10
-216.642685508
20
44.2713714857
30
0
10
-216.642685508
20
39.8498793857
30
0
0
SPLINE
5
18B
100
AcDbEntity
8
0
6
ByLayer
62
7
370
-1
100
AcDbSpline
210
0
220
0
230
1
70
8
71
3
72
8
73
4
74
0
42
1e-07
43
1e-07
40
0
40
0
40
0
40
0
40
1
40
1
40
1
40
1
10
-216.642685508
20
39.8498793857
30
0
10
-216.642685508
20
35.6862245857
30
0
10
-215.985475108
20
34.8757142857
30
0
10
-212.609281808
20
34.8757142857
30
0
0
SPLINE
5
18C
100
AcDbEntity
8
0
6
ByLayer
62
7
370
-1
100
AcDbSpline
210
0
220
0
230
1
70
8
71
3
72
8
73
4
74
0
42
1e-07
43
1e-07
40
0
40
0
40
0
40
0
40
1
40
1
40
1
40
1
10
-212.609281808
20
34.8757142857
30
0
10
-208.558069808
20
34.8757142857
30
0
10
-205.443962608
20
29.9500155857
30
0
10
-207.446590308
20
26.7096992857
30
0
0
SPLINE
5
18D
100
AcDbEntity
8
0
6
ByLayer
62
7
370
-1
100
AcDbSpline
210
0
220
0
230
1
70
8
71
3
72
8
73
4
74
0
42
1e-07
43
1e-07
40
0
40
0
40
0
40
0
40
1
40
1
40
1
40
1
10
-207.446590308
20
26.7096992857
30
0
10
-209.004645008
20
24.1886991857
30
0
10
-205.375779708
20
-16.8638691143
30
0
10
-202.462747908
20
-29.6715148143
30
0
0
SPLINE
5
18E
100
AcDbEntity
8
0
6
ByLayer
62
7
370
-1
100
AcDbSpline
210
0
220
0
230
1
70
8
71
3
72
8
73
4
74
0
42
1e-07
43
1e-07
40
0
40
0
40
0
40
0
40
1
40
1
40
1
40
1
10
-202.462747908
20
-29.6715148143
30
0
10
-200.853937908
20
-36.7448973143
30
0
10
-199.113509108
20
-41.0042676143
30
0
10
-198.090408408
20
-40.3719531143
30
0
0
SPLINE
5
18F
100
AcDbEntity
8
0
6
ByLayer
62
7
370
-1
100
AcDbSpline
210
0
220
0
230
1
70
8
71
3
72
8
73
4
74
0
42
1e-07
43
1e-07
40
0
40
0
40
0
40
0
40
1
40
1
40
1
40
1
10
-198.090408408
20
-40.3719531143
30
0
10
-197.031070708
20
-39.7172478143
30
0
10
-196.788748108
20
-40.5754819143
30
0
10
-197.447185208
20
-42.6500431143
30
0
0
SPLINE
5
190
100
AcDbEntity
8
0
6
ByLayer
62
7
370
-1
100
AcDbSpline
210
0
220
0
230
1
70
8
71
3
72
8
73
4
74
0
42
1e-07
43
1e-07
40
0
40
0
40
0
40
0
40
1
40
1
40
1
40
1
10
-197.447185208
20
-42.6500431143
30
0
10
-198.933254708
20
-47.3322207143
30
0
10
-192.932393408
20
-62.3721361143
30
0
10
-184.670615908
20
-74.6718152143
30
0
0
SPLINE
5
191
100
AcDbEntity
8
0
6
ByLayer
62
7
370
-1
100
AcDbSpline
210
0
220
0
230
1
70
8
71
3
72
8
73
4
74
0
42
1e-07
43
1e-07
40
0
40
0
40
0
40
0
40
1
40
1
40
1
40
1
10
-184.670615908
20
-74.6718152143
30
0
10
-180.824887908
20
-80.3971343143
30
0
10
-176.826983308
20
-86.5170184143
30
0
10
-175.786389208
20
-88.2715613143
30
0
0
SPLINE
5
192
100
AcDbEntity
8
0
6
ByLayer
62
7
370
-1
100
AcDbSpline
210
0
220
0
230
1
70
8
71
3
72
8
73
4
74
0
42
1e-07
43
1e-07
40
0
40
0
40
0
40
0
40
1
40
1
40
1
40
1
10
-175.786389208
20
-88.2715613143
30
0
10
-174.745790408
20
-90.0260901143
30
0
10
-170.269040408
20
-94.0229184143
30
0
10
-165.838054308
20
-97.1533816143
30
0
0
SPLINE
5
193
100
AcDbEntity
8
0
6
ByLayer
62
7
370
-1
100
AcDbSpline
210
0
220
0
230
1
70
8
71
3
72
8
73
4
74
0
42
1e-07
43
1e-07
40
0
40
0
40
0
40
0
40
1
40
1
40
1
40
1
10
-165.838054308
20
-97.1533816143
30
0
10
-161.407068208
20
-100.283854214
30
0
10
-156.846916708
20
-105.060515914
30
0
10
-155.704389008
20
-107.768185914
30
0
0
SPLINE
5
194
100
AcDbEntity
8
0
6
ByLayer
62
7
370
-1
100
AcDbSpline
210
0
220
0
230
1
70
8
71
3
72
8
73
4
74
0
42
1e-07
43
1e-07
40
0
40
0
40
0
40
0
40
1
40
1
40
1
40
1
10
-155.704389008
20
-107.768185914
30
0
10
-153.533637608
20
-112.912655514
30
0
10
-153.102760408
20
-113.095903814
30
0
10
-143.688242108
20
-112.878589914
30
0
0
SPLINE
5
195
100
AcDbEntity
8
0
6
ByLayer
62
7
370
-1
100
AcDbSpline
210
0
220
0
230
1
70
8
71
3
72
8
73
4
74
0
42
1e-07
43
1e-07
40
0
40
0
40
0
40
0
40
1
40
1
40
1
40
1
10
-143.688242108
20
-112.878589914
30
0
10
-140.496486208
20
-112.804973814
30
0
10
-135.273611208
20
-114.105351014
30
0
10
-132.081855308
20
-115.768436614
30
0
0
SPLINE
5
196
100
AcDbEntity
8
0
6
ByLayer
62
7
370
-1
100
AcDbSpline
210
0
220
0
230
1
70
8
71
3
72
8
73
4
74
0
42
1e-07
43
1e-07
40
0
40
0
40
0
40
0
40
1
40
1
40
1
40
1
10
-132.081855308
20
-115.768436614
30
0
10
-127.168945308
20
-118.328352714
30
0
10
-122.717514208
20
-118.743409714
30
0
10
-103.065883608
20
-118.474010414
30
0
0
SPLINE
5
197
100
AcDbEntity
8
0
6
ByLayer
62
7
370
-1
100
AcDbSpline
210
0
220
0
230
1
70
8
71
3
72
8
73
4
74
0
42
1e-07
43
1e-07
40
0
40
0
40
0
40
0
40
1
40
1
40
1
40
1
10
-103.065883608
20
-118.474010414
30
0
10
-81.5918609082
20
-118.179607114
30
0
10
-78.7729654082
20
-117.763633614
30
0
10
-65.4330588082
20
-112.920626714
30
0
0
LWPOLYLINE
5
198
100
AcDbEntity
8
0
6
ByLayer
62
7
370
-1
100
AcDbPolyline
90
2
70
1
43
0
10
-65.4330588082
20
-112.920626714
10
-65.4330588082
20
-112.920626714
0
SPLINE
5
199
100
AcDbEntity
8
0
6
ByLayer
62
7
370
-1
100
AcDbSpline
210
0
220
0
230
1
70
8
71
3
72
8
73
4
74
0
42
1e-07
43
1e-07
40
0
40
0
40
0
40
0
40
1
40
1
40
1
40
1
10
272.069189492
20
62.5050496857
30
0
10
215.929099492
20
63.5144075857
30
0
10
223.976532996
20
63.7259763635
30
0
10
189.932513154
20
64.7507781778
30
0
0
SPLINE
5
19A
100
AcDbEntity
8
0
6
ByLayer
62
7
370
-1
100
AcDbSpline
210
0
220
0
230
1
70
8
71
3
72
8
73
4
74
0
42
1e-07
43
1e-07
40
0
40
0
40
0
40
0
40
1
40
1
40
1
40
1
10
437.874741392
20
59.7398234857
30
0
10
412.816696092
20
59.7451297857
30
0
10
408.444257892
20
59.3770398857
30
0
10
391.07360478
20
60.5700787496
30
0
0
SPLINE
5
19B
100
AcDbEntity
8
0
6
ByLayer
62
7
370
-1
100
AcDbSpline
210
0
220
0
230
1
70
8
71
3
72
8
73
4
74
0
42
1e-07
43
1e-07
40
0
40
0
40
0
40
0
40
1
40
1
40
1
40
1
10
557.492414275
20
57.8278995548
30
0
10
476.735760792
20
59.2521044857
30
0
10
454.061503792
20
59.7361198857
30
0
10
437.874741392
20
59.7398234857
30
0
0
SPLINE
5
19C
100
AcDbEntity
8
0
6
ByLayer
62
7
370
-1
100
AcDbSpline
210
0
220
0
230
1
70
8
71
3
72
8
73
4
74
0
42
1e-07
43
1e-07
40
0
40
0
40
0
40
0
40
1
40
1
40
1
40
1
10
504.84933478
20
13.237368622
30
0
10
506.269536192
20
13.4624578857
30
0
10
511.473188192
20
13.1868075857
30
0
10
549.793491392
20
13.4195985857
30
0
0
SPLINE
5
19D
100
AcDbEntity
8
0
6
ByLayer
62
7
370
-1
100
AcDbSpline
210
0
220
0
230
1
70
8
71
3
72
8
73
4
74
0
42
1e-07
43
1e-07
40
0
40
0
40
0
40
0
40
1
40
1
40
1
40
1
10
443.263422992
20
11.9594495857
30
0
10
492.366024392
20
12.4440665857
30
0
10
501.295366392
20
13.0580134857
30
0
10
506.506510088
20
13.3846730939
30
0
0
LINE
5
19E
100
AcDbEntity
8
0
6
ByLayer
62
7
370
-1
100
AcDbLine
10
-206.687686008
20
60.1610609857
11
-206.694355308
21
44.8240491857
0
LINE
5
19F
100
AcDbEntity
8
0
6
ByLayer
62
7
370
-1
100
AcDbLine
10
-206.694355308
20
44.8240491857
11
-211.668520408
21
44.8240491857
0
LINE
5
1A0
100
AcDbEntity
8
guides
6
ByLayer
62
256
370
-1
100
AcDbLine
10
-189.614038204
20
196.270727041
11
-17.5589668571
21
196.270727041
0
LINE
5
1A1
100
AcDbEntity
8
guides
6
ByLayer
62
256
370
-1
100
AcDbLine
10
-258.881632653
20
39.6673469388
11
982.033242985
21
39.6673469388
0
LINE
5
1A2
100
AcDbEntity
8
guides
6
ByLayer
62
256
370
-1
100
AcDbLine
10
-220.769802449
20
-118.623819316
11
-25.0842383674
21
-118.623819316
0
LINE
5
1A3
100
AcDbEntity
8
guides
6
ByLayer
62
256
370
-1
100
AcDbLine
10
-258.881632653
20
-50.3326530612
11
982.033242985
21
-50.3326530612
0
LINE
5
1A4
100
AcDbEntity
8
guides
6
ByLayer
62
256
370
-1
100
AcDbLine
10
-258.881632653
20
-25.3326530612
11
982.033242985
21
-25.3326530612
0
LINE
5
1A5
100
AcDbEntity
8
guides
6
ByLayer
62
256
370
-1
100
AcDbLine
10
-258.881632653
20
-75.3326530612
11
982.033242985
21
-75.3326530612
0
LINE
5
1A6
100
AcDbEntity
8
guides
6
ByLayer
62
256
370
-1
100
AcDbLine
10
-206.214954539
20
-53.1429287487
11
-187.021140528
21
-47.5217630595
0
LINE
5
1A7
100
AcDbEntity
8
guides
6
ByLayer
62
256
370
-1
100
AcDbLine
10
-212.927006749
20
-28.1465757497
11
-193.733192738
21
-22.5254100606
0
LINE
5
1A8
100
AcDbEntity
8
guides
6
ByLayer
62
256
370
-1
100
AcDbLine
10
-192.512346183
20
-80.8937795469
11
-175.905215239
21
-69.7491305266
0
LINE
5
1A9
100
AcDbEntity
8
guides
6
ByLayer
62
256
370
-1
100
AcDbLine
10
-124.263081093
20
-128.136159423
11
-122.978847828
21
-108.177433388
0
LINE
5
1AA
100
AcDbEntity
8
guides
6
ByLayer
62
256
370
-1
100
AcDbLine
10
-291.725228757
20
142.42772221
11
-95.8105367557
21
-254.762210602
0
INSERT
5
1AB
100
AcDbEntity
8
guides
6
ByLayer
62
256
370
-1
100
AcDbBlockReference
2
PCB
10
-349.396582856
20
-192.751851483
30
0
41
1
42
1
43
0
50
25.7703
70
1
71
1
44
1
45
1
0
INSERT
5
1AC
100
AcDbEntity
8
0
6
ByLayer
62
256
370
-1
100
AcDbBlockReference
2
LED 5x Cross-0
10
-656.146520498
20
-118.385609218
30
0
41
1
42
1
43
0
50
180
70
1
71
1
44
0
45
0
0
INSERT
5
1AD
100
AcDbEntity
8
0
6
ByLayer
62
256
370
-1
100
AcDbBlockReference
2
LED 5x Cross-0
10
-626.146520498
20
-118.385609218
30
0
41
1
42
1
43
0
50
180
70
1
71
1
44
0
45
0
0
INSERT
5
1AE
100
AcDbEntity
8
0
6
ByLayer
62
256
370
-1
100
AcDbBlockReference
2
LED 5x Cross-0
10
-626.146520498
20
-78.385609218
30
0
41
1
42
1
43
0
50
180
70
1
71
1
44
0
45
0
0
INSERT
5
1AF
100
AcDbEntity
8
0
6
ByLayer
62
256
370
-1
100
AcDbBlockReference
2
LED 5x Cross-0
10
-656.146520498
20
-78.385609218
30
0
41
1
42
1
43
0
50
180
70
1
71
1
44
0
45
0
0
LINE
5
1B0
100
AcDbEntity
8
guides
6
ByLayer
62
256
370
-1
100
AcDbLine
10
-309.662
20
133.58
11
-113.747
21
-263.61
0
LINE
5
1B1
100
AcDbEntity
8
guides
6
DOT2
62
256
370
-1
100
AcDbLine
10
-253.273982465
20
22.1630658228
11
-415.371948912
21
-56.0945170281
0
INSERT
5
1B2
100
AcDbEntity
8
0
6
ByLayer
62
256
370
-1
100
AcDbBlockReference
2
flat v/t x5
10
-262.457
20
17.3452
30
0
41
1
42
1
43
0
50
25.62
70
1
71
1
44
0
45
0
0
INSERT
5
1B3
100
AcDbEntity
8
0
6
ByLayer
62
256
370
-1
100
AcDbBlockReference
2
5 position selector-0
10
-439.424
20
-191.897
30
0
41
1
42
1
43
0
50
30
70
1
71
1
44
1
45
1
0
INSERT
5
1B4
100
AcDbEntity
8
0
6
ByLayer
62
256
370
-1
100
AcDbBlockReference
2
5 position selector-0
10
-406.163
20
-223.368
30
0
41
1
42
1
43
0
50
60
70
1
71
1
44
1
45
1
0
INSERT
5
1B5
100
AcDbEntity
8
0
6
ByLayer
62
256
370
-1
100
AcDbBlockReference
2
Trackball-0
10
-435.992857143
20
-122.133673469
30
0
41
1
42
1
43
0
50
180
70
1
71
1
44
1
45
1
0
INSERT
5
1B6
100
AcDbEntity
8
0
6
DOT2
62
256
370
-1
100
AcDbBlockReference
2
LCD + 2 PBs-0
10
-295.748077641
20
-179.213545707
30
0
41
1
42
1
43
0
50
205.77
70
1
71
1
44
1
45
1
0
INSERT
5
1B7
100
AcDbEntity
8
0
6
DOT2
62
256
370
-1
100
AcDbBlockReference
2
PB+LED 4x
10
-401.022959184
20
-86.1198979592
30
0
41
1
42
1
43
0
50
356.442
70
1
71
1
44
0
45
0
0
ENDSEC
0
SECTION
2
OBJECTS
0
DICTIONARY
5
C
330
0
100
AcDbDictionary
281
1
3
ACAD_GROUP
350
D
0
DICTIONARY
5
D
330
C
100
AcDbDictionary
281
1
0
ENDSEC
0
EOF
