M48
;DRILL file {KiCad 0.201506092253+5726~23~ubuntu15.04.1-product} date Thu 11 Jun 2015 08:03:51 PM CEST
;FORMAT={3:3/ absolute / metric / suppress leading zeros}
FMAT,2
METRIC,TZ
T1C0.400
T2C0.650
T3C0.800
T4C0.800
T5C0.813
T6C0.900
T7C0.998
T8C1.001
T9C1.016
T10C1.200
T11C1.501
T12C3.000
T13C3.200
%
G90
G05
M71
T1
X34822Y83851
X36603Y58137
X38429Y76200
X44401Y119162
X45798Y90305
X46032Y67637
X47502Y80884
X51054Y83663
X52520Y82976
X53249Y88081
X55010Y83143
X55207Y86227
X55297Y88883
X57148Y73626
X73924Y61377
X75673Y89131
X78810Y85883
X88057Y51940
X91586Y79334
X91916Y88561
X91916Y86035
X96734Y82915
X100127Y52096
X101745Y54035
X105759Y79608
X105812Y127904
X107883Y40897
X110490Y85281
X111834Y97744
X114671Y41213
X117183Y52812
X118343Y51957
X121243Y83690
X121281Y85913
X124539Y47489
X127131Y85840
X129600Y86273
X130188Y48439
X130746Y51957
X131348Y88108
X136421Y46558
X136861Y50786
X145850Y78040
X146358Y46195
X147369Y46256
X149026Y91404
X149287Y52199
X149391Y76682
X149806Y86648
X155070Y85603
X156210Y87195
X158398Y83222
X171481Y89131
T2
X88524Y131648
X89670Y133149
X89670Y130150
X90815Y131648
X91961Y133149
X91961Y130150
X93106Y131648
X94247Y130150
X94249Y133147
X95395Y131648
X96540Y133149
X96540Y130150
X97686Y131648
X98829Y133149
X98829Y130150
T3
X19050Y12700
X21590Y35480
X21590Y30480
X22550Y12700
X34290Y104140
X39370Y96520
X39370Y80010
X52070Y91440
X52070Y74930
X52070Y30480
X52070Y8890
X55570Y8890
X57070Y30480
X69850Y96520
X69850Y80010
X82550Y91440
X82550Y74930
X87630Y69850
X88900Y27940
X97790Y96520
X97790Y80010
X101600Y22860
X109220Y27940
X110490Y91440
X110490Y74930
X115570Y69850
X121920Y22860
X125730Y96520
X125730Y80010
X129540Y27940
X138430Y91440
X138430Y74930
X142240Y22860
X143510Y69850
X149860Y27940
X153670Y96520
X153670Y80010
X162560Y22860
X166370Y91440
X166370Y74930
X171450Y69850
T4
X36790Y104140
X36870Y96520
X36870Y80010
X54570Y91440
X54570Y74930
X67350Y96520
X67350Y80010
X85050Y91440
X85050Y74930
X85130Y69850
X88900Y30440
X95290Y96520
X95290Y80010
X104100Y22860
X106720Y27940
X112990Y91440
X112990Y74930
X113070Y69850
X123230Y96520
X123230Y80010
X124420Y22860
X127040Y27940
X140930Y91440
X140930Y74930
X141010Y69850
X144740Y22860
X147360Y27940
X151170Y96520
X151170Y80010
X165060Y22860
X168870Y91440
X168870Y74930
X168950Y69850
T5
X41910Y116840
X41910Y114300
X41910Y111760
X41910Y109220
X41910Y106680
X41910Y104140
X41910Y101600
X41910Y99060
X41910Y96520
X41910Y93980
X41910Y91440
X41910Y88900
X41910Y82550
X41910Y80010
X41910Y77470
X41910Y74930
X41910Y72390
X41910Y69850
X41910Y67310
X41910Y64770
X41910Y62230
X41910Y59690
X41910Y57150
X41910Y54610
X49530Y116840
X49530Y114300
X49530Y111760
X49530Y109220
X49530Y106680
X49530Y104140
X49530Y101600
X49530Y99060
X49530Y96520
X49530Y93980
X49530Y91440
X49530Y88900
X49530Y82550
X49530Y80010
X49530Y77470
X49530Y74930
X49530Y72390
X49530Y69850
X49530Y67310
X49530Y64770
X49530Y62230
X49530Y59690
X49530Y57150
X49530Y54610
X57270Y133580
X57270Y130580
X72270Y134580
X72270Y129580
X72390Y116840
X72390Y114300
X72390Y111760
X72390Y109220
X72390Y106680
X72390Y104140
X72390Y101600
X72390Y99060
X72390Y96520
X72390Y93980
X72390Y91440
X72390Y88900
X72390Y82550
X72390Y80010
X72390Y77470
X72390Y74930
X72390Y72390
X72390Y69850
X72390Y67310
X72390Y64770
X72390Y62230
X72390Y59690
X72390Y57150
X72390Y54610
X80010Y116840
X80010Y114300
X80010Y111760
X80010Y109220
X80010Y106680
X80010Y104140
X80010Y101600
X80010Y99060
X80010Y96520
X80010Y93980
X80010Y91440
X80010Y88900
X80010Y82550
X80010Y80010
X80010Y77470
X80010Y74930
X80010Y72390
X80010Y69850
X80010Y67310
X80010Y64770
X80010Y62230
X80010Y59690
X80010Y57150
X80010Y54610
X91440Y48260
X91440Y45720
X91440Y43180
X91440Y40640
X91440Y38100
X91440Y35560
X91440Y33020
X91440Y30480
X91440Y27940
X91440Y25400
X91440Y22860
X91440Y20320
X99060Y48260
X99060Y45720
X99060Y43180
X99060Y40640
X99060Y38100
X99060Y35560
X99060Y33020
X99060Y30480
X99060Y27940
X99060Y25400
X99060Y22860
X99060Y20320
X100330Y116840
X100330Y114300
X100330Y111760
X100330Y109220
X100330Y106680
X100330Y104140
X100330Y101600
X100330Y99060
X100330Y96520
X100330Y93980
X100330Y91440
X100330Y88900
X100330Y82550
X100330Y80010
X100330Y77470
X100330Y74930
X100330Y72390
X100330Y69850
X100330Y67310
X100330Y64770
X100330Y62230
X100330Y59690
X100330Y57150
X100330Y54610
X107950Y116840
X107950Y114300
X107950Y111760
X107950Y109220
X107950Y106680
X107950Y104140
X107950Y101600
X107950Y99060
X107950Y96520
X107950Y93980
X107950Y91440
X107950Y88900
X107950Y82550
X107950Y80010
X107950Y77470
X107950Y74930
X107950Y72390
X107950Y69850
X107950Y67310
X107950Y64770
X107950Y62230
X107950Y59690
X107950Y57150
X107950Y54610
X111760Y48260
X111760Y45720
X111760Y43180
X111760Y40640
X111760Y38100
X111760Y35560
X111760Y33020
X111760Y30480
X111760Y27940
X111760Y25400
X111760Y22860
X111760Y20320
X119380Y48260
X119380Y45720
X119380Y43180
X119380Y40640
X119380Y38100
X119380Y35560
X119380Y33020
X119380Y30480
X119380Y27940
X119380Y25400
X119380Y22860
X119380Y20320
X128270Y116840
X128270Y114300
X128270Y111760
X128270Y109220
X128270Y106680
X128270Y104140
X128270Y101600
X128270Y99060
X128270Y96520
X128270Y93980
X128270Y91440
X128270Y88900
X128270Y82550
X128270Y80010
X128270Y77470
X128270Y74930
X128270Y72390
X128270Y69850
X128270Y67310
X128270Y64770
X128270Y62230
X128270Y59690
X128270Y57150
X128270Y54610
X132080Y48260
X132080Y45720
X132080Y43180
X132080Y40640
X132080Y38100
X132080Y35560
X132080Y33020
X132080Y30480
X132080Y27940
X132080Y25400
X132080Y22860
X132080Y20320
X135890Y116840
X135890Y114300
X135890Y111760
X135890Y109220
X135890Y106680
X135890Y104140
X135890Y101600
X135890Y99060
X135890Y96520
X135890Y93980
X135890Y91440
X135890Y88900
X135890Y82550
X135890Y80010
X135890Y77470
X135890Y74930
X135890Y72390
X135890Y69850
X135890Y67310
X135890Y64770
X135890Y62230
X135890Y59690
X135890Y57150
X135890Y54610
X139700Y48260
X139700Y45720
X139700Y43180
X139700Y40640
X139700Y38100
X139700Y35560
X139700Y33020
X139700Y30480
X139700Y27940
X139700Y25400
X139700Y22860
X139700Y20320
X152400Y48260
X152400Y45720
X152400Y43180
X152400Y40640
X152400Y38100
X152400Y35560
X152400Y33020
X152400Y30480
X152400Y27940
X152400Y25400
X152400Y22860
X152400Y20320
X156210Y116840
X156210Y114300
X156210Y111760
X156210Y109220
X156210Y106680
X156210Y104140
X156210Y101600
X156210Y99060
X156210Y96520
X156210Y93980
X156210Y91440
X156210Y88900
X156210Y82550
X156210Y80010
X156210Y77470
X156210Y74930
X156210Y72390
X156210Y69850
X156210Y67310
X156210Y64770
X156210Y62230
X156210Y59690
X156210Y57150
X156210Y54610
X160020Y48260
X160020Y45720
X160020Y43180
X160020Y40640
X160020Y38100
X160020Y35560
X160020Y33020
X160020Y30480
X160020Y27940
X160020Y25400
X160020Y22860
X160020Y20320
X163830Y116840
X163830Y114300
X163830Y111760
X163830Y109220
X163830Y106680
X163830Y104140
X163830Y101600
X163830Y99060
X163830Y96520
X163830Y93980
X163830Y91440
X163830Y88900
X163830Y82550
X163830Y80010
X163830Y77470
X163830Y74930
X163830Y72390
X163830Y69850
X163830Y67310
X163830Y64770
X163830Y62230
X163830Y59690
X163830Y57150
X163830Y54610
T6
X58420Y97790
X58420Y92710
X58500Y87630
X58500Y82550
X58500Y77470
X62310Y69850
X63420Y97790
X63420Y92710
X63500Y87630
X63500Y82550
X63500Y77470
X67310Y69850
X90250Y115570
X95250Y115570
X118190Y115570
X123190Y115570
X146130Y115570
X151130Y115570
T7
X8255Y43180
X8255Y40640
T8
X15230Y40640
X15240Y45720
X21590Y44450
X21590Y41910
X26670Y116840
X26670Y114300
X26670Y111760
X26670Y109220
X26670Y106680
X31750Y44450
X31750Y41910
X36830Y116840
X36830Y114300
X36830Y111760
X36830Y109220
X36830Y106680
X43180Y133350
X53340Y133350
X54610Y116840
X54610Y114300
X54610Y111760
X54610Y109220
X54610Y106680
X57150Y66040
X57150Y63500
X57150Y60960
X57150Y58420
X60960Y6350
X60960Y3810
X64770Y116840
X64770Y114300
X64770Y111760
X64770Y109220
X64770Y106680
X67310Y66040
X67310Y63500
X67310Y60960
X67310Y58420
X71120Y6350
X71120Y3810
X85090Y111760
X85090Y109220
X85090Y106680
X85090Y104140
X85090Y64770
X85090Y62230
X85090Y59690
X85090Y57150
X85090Y54610
X95250Y111760
X95250Y109220
X95250Y106680
X95250Y104140
X95250Y64770
X95250Y62230
X95250Y59690
X95250Y57150
X95250Y54610
X113030Y111760
X113030Y109220
X113030Y106680
X113030Y104140
X113030Y64770
X113030Y62230
X113030Y59690
X113030Y57150
X113030Y54610
X123190Y111760
X123190Y109220
X123190Y106680
X123190Y104140
X123190Y64770
X123190Y62230
X123190Y59690
X123190Y57150
X123190Y54610
X140970Y111760
X140970Y109220
X140970Y106680
X140970Y104140
X140970Y64770
X140970Y62230
X140970Y59690
X140970Y57150
X140970Y54610
X151130Y111760
X151130Y109220
X151130Y106680
X151130Y104140
X151130Y64770
X151130Y62230
X151130Y59690
X151130Y57150
X151130Y54610
X168910Y64770
X168910Y62230
X168910Y59690
X168910Y57150
X168910Y54610
X179070Y64770
X179070Y62230
X179070Y59690
X179070Y57150
X179070Y54610
T9
X1270Y96520
X1270Y93980
X1270Y91440
X1270Y88900
X1270Y86360
X1270Y83820
X1270Y81280
X1270Y78740
X1270Y76200
X1270Y73660
X1270Y71120
X1270Y68580
X1270Y66040
X1270Y63500
X1270Y60960
X1270Y58420
X29210Y96520
X29210Y93980
X29210Y91440
X29210Y88900
X29210Y86360
X29210Y83820
X29210Y81280
X29210Y78740
X29210Y76200
X29210Y73660
X29210Y71120
X29210Y68580
X29210Y66040
X29210Y63500
X29210Y60960
X29210Y58420
X35560Y23724
X35560Y20320
X35560Y16916
X39726Y22022
X39726Y18618
X51714Y22022
X51714Y18618
X55880Y23724
X55880Y20320
X55880Y16916
T10
X11430Y25400
X11430Y17780
X73660Y20320
X73660Y12700
T11
X15241Y51438
X27943Y27939
X27943Y12699
X30481Y51438
X62227Y27941
X62227Y12701
T12
X0Y133350
X0Y0
X179070Y133350
X179070Y0
T13
X81486Y132149
X106474Y132149
T0
M30
