; NON-PLATED HOLES START AT T1
; THROUGH (PLATED) HOLES START AT T100
M48
INCH
T1C0.125984
T100C0.027559
%
T1
X001133Y023698
X016633Y001493
X001133Y001493
X016633Y023698
T100
X004133Y006993
X001633Y005993
X010633Y005993
X004133Y005993
X015133Y021993
X001633Y004993
X010633Y004993
X015133Y017993
X008633Y014993
X004133Y004993
X015133Y001993
X015133Y020993
X015133Y016993
X008633Y013993
X015133Y000993
X015133Y015993
X008633Y012993
X012633Y014993
X006133Y014993
X015133Y014993
X008633Y011993
X012633Y013993
X006133Y013993
X008633Y007993
X015133Y013993
X001633Y019493
X012633Y012993
X004133Y019493
X006133Y012993
X008633Y006993
X015133Y012993
X001633Y018493
X004133Y022493
X001633Y014993
X012633Y011993
X015133Y008993
X001633Y021493
X006133Y011993
X010633Y014993
X008633Y005993
X004133Y014993
X004133Y021493
X006133Y007993
X001633Y013993
X015133Y007993
X001633Y020493
X010633Y013993
X008633Y004993
X004133Y013993
X004133Y020493
X006133Y006993
X001633Y012993
X015133Y006993
X010633Y012993
X004133Y012993
X006133Y005993
X001633Y011993
X015133Y005993
X010633Y011993
X004133Y011993
X001633Y007993
X006133Y004993
X004133Y007993
X015133Y004993
X001633Y006993
X010633Y006993
T00
M30
