<?xml version="1.0" standalone="no"?>
 <!DOCTYPE svg PUBLIC "-//W3C//DTD SVG 1.1//EN" 
 "http://www.w3.org/Graphics/SVG/1.1/DTD/svg11.dtd"> 
<svg xmlns="http://www.w3.org/2000/svg" version="1.1" 
    width="29.7002cm" height="21.0007cm" viewBox="0 0 116930 82680 ">
<title>SVG Picture created as HW Debounce Button.svg date 2016/01/07 11:35:08 </title>
  <desc>Picture generated by Eeschema-SVG </desc>
<g style="fill:#000000; fill-opacity:1;stroke:#000000; stroke-opacity:1;
stroke-linecap:round; stroke-linejoin:round; "
 transform="translate(0 0) scale(1 1)">
</g>
<g style="fill:#000000; fill-opacity:0.0; 
stroke:#000000; stroke-width:-10; stroke-opacity:1; 
stroke-linecap:round; stroke-linejoin:round;">
</g>
<g style="fill:#840000; fill-opacity:0.0; 
stroke:#840000; stroke-width:-10; stroke-opacity:1; 
stroke-linecap:round; stroke-linejoin:round;">
</g>
<g style="fill:#840000; fill-opacity:0.0; 
stroke:#840000; stroke-width:100; stroke-opacity:1; 
stroke-linecap:round; stroke-linejoin:round;">
</g>
<g style="fill:#840000; fill-opacity:0.0; 
stroke:#840000; stroke-width:60; stroke-opacity:1; 
stroke-linecap:round; stroke-linejoin:round;">
<rect x="69690" y="65360" width="42520" height="12600" rx="0" />
</g>
<g style="fill:#840000; fill-opacity:0.0; 
stroke:#840000; stroke-width:100; stroke-opacity:1; 
stroke-linecap:round; stroke-linejoin:round;">
</g>
<g style="fill:#840000; fill-opacity:0.0; 
stroke:#840000; stroke-width:60; stroke-opacity:1; 
stroke-linecap:round; stroke-linejoin:round;">
<rect x="3940" y="3940" width="109050" height="74800" rx="0" />
</g>
<g style="fill:#840000; fill-opacity:0.0; 
stroke:#840000; stroke-width:100; stroke-opacity:1; 
stroke-linecap:round; stroke-linejoin:round;">
</g>
<g style="fill:#840000; fill-opacity:0.0; 
stroke:#840000; stroke-width:60; stroke-opacity:1; 
stroke-linecap:round; stroke-linejoin:round;">
<rect x="4720" y="4720" width="107490" height="73240" rx="0" />
</g>
<g style="fill:#840000; fill-opacity:0.0; 
stroke:#840000; stroke-width:100; stroke-opacity:1; 
stroke-linecap:round; stroke-linejoin:round;">
</g>
<g style="fill:#840000; fill-opacity:0.0; 
stroke:#840000; stroke-width:60; stroke-opacity:1; 
stroke-linecap:round; stroke-linejoin:round;">
<path d="M23620 4720
L23620 3940
" />
</g>
<g style="fill:#840000; fill-opacity:0.0; 
stroke:#840000; stroke-width:100; stroke-opacity:1; 
stroke-linecap:round; stroke-linejoin:round;">
</g>
<g style="fill:#840000; fill-opacity:0.0; 
stroke:#840000; stroke-width:60; stroke-opacity:1; 
stroke-linecap:round; stroke-linejoin:round;">
<path d="M43310 4720
L43310 3940
" />
</g>
<g style="fill:#840000; fill-opacity:0.0; 
stroke:#840000; stroke-width:100; stroke-opacity:1; 
stroke-linecap:round; stroke-linejoin:round;">
</g>
<g style="fill:#840000; fill-opacity:0.0; 
stroke:#840000; stroke-width:60; stroke-opacity:1; 
stroke-linecap:round; stroke-linejoin:round;">
<path d="M62990 4720
L62990 3940
" />
</g>
<g style="fill:#840000; fill-opacity:0.0; 
stroke:#840000; stroke-width:100; stroke-opacity:1; 
stroke-linecap:round; stroke-linejoin:round;">
</g>
<g style="fill:#840000; fill-opacity:0.0; 
stroke:#840000; stroke-width:60; stroke-opacity:1; 
stroke-linecap:round; stroke-linejoin:round;">
<path d="M82680 4720
L82680 3940
" />
</g>
<g style="fill:#840000; fill-opacity:0.0; 
stroke:#840000; stroke-width:100; stroke-opacity:1; 
stroke-linecap:round; stroke-linejoin:round;">
</g>
<g style="fill:#840000; fill-opacity:0.0; 
stroke:#840000; stroke-width:60; stroke-opacity:1; 
stroke-linecap:round; stroke-linejoin:round;">
<path d="M102360 4720
L102360 3940
" />
</g>
<g style="fill:#840000; fill-opacity:0.0; 
stroke:#840000; stroke-width:100; stroke-opacity:1; 
stroke-linecap:round; stroke-linejoin:round;">
</g>
<g style="fill:#840000; fill-opacity:0.0; 
stroke:#840000; stroke-width:60; stroke-opacity:1; 
stroke-linecap:round; stroke-linejoin:round;">
<path d="M14170 4560
L13880 4560
" />
<path d="M14020 4560
L14020 4050
L13970 4120
L13930 4170
L13880 4190
" />
</g>
<g style="fill:#840000; fill-opacity:0.0; 
stroke:#840000; stroke-width:100; stroke-opacity:1; 
stroke-linecap:round; stroke-linejoin:round;">
</g>
<g style="fill:#840000; fill-opacity:0.0; 
stroke:#840000; stroke-width:60; stroke-opacity:1; 
stroke-linecap:round; stroke-linejoin:round;">
<path d="M33560 4090
L33580 4070
L33630 4050
L33750 4050
L33800 4070
L33820 4090
L33850 4140
L33850 4190
L33820 4260
L33530 4560
L33850 4560
" />
</g>
<g style="fill:#840000; fill-opacity:0.0; 
stroke:#840000; stroke-width:100; stroke-opacity:1; 
stroke-linecap:round; stroke-linejoin:round;">
</g>
<g style="fill:#840000; fill-opacity:0.0; 
stroke:#840000; stroke-width:60; stroke-opacity:1; 
stroke-linecap:round; stroke-linejoin:round;">
<path d="M53220 4050
L53540 4050
L53370 4240
L53440 4240
L53490 4260
L53510 4290
L53540 4340
L53540 4460
L53510 4510
L53490 4530
L53440 4560
L53300 4560
L53250 4530
L53220 4510
" />
</g>
<g style="fill:#840000; fill-opacity:0.0; 
stroke:#840000; stroke-width:100; stroke-opacity:1; 
stroke-linecap:round; stroke-linejoin:round;">
</g>
<g style="fill:#840000; fill-opacity:0.0; 
stroke:#840000; stroke-width:60; stroke-opacity:1; 
stroke-linecap:round; stroke-linejoin:round;">
<path d="M73170 4220
L73170 4560
" />
<path d="M73050 4020
L72930 4390
L73240 4390
" />
</g>
<g style="fill:#840000; fill-opacity:0.0; 
stroke:#840000; stroke-width:100; stroke-opacity:1; 
stroke-linecap:round; stroke-linejoin:round;">
</g>
<g style="fill:#840000; fill-opacity:0.0; 
stroke:#840000; stroke-width:60; stroke-opacity:1; 
stroke-linecap:round; stroke-linejoin:round;">
<path d="M92880 4050
L92640 4050
L92620 4290
L92640 4260
L92690 4240
L92810 4240
L92860 4260
L92880 4290
L92910 4340
L92910 4460
L92880 4510
L92860 4530
L92810 4560
L92690 4560
L92640 4530
L92620 4510
" />
</g>
<g style="fill:#840000; fill-opacity:0.0; 
stroke:#840000; stroke-width:100; stroke-opacity:1; 
stroke-linecap:round; stroke-linejoin:round;">
</g>
<g style="fill:#840000; fill-opacity:0.0; 
stroke:#840000; stroke-width:60; stroke-opacity:1; 
stroke-linecap:round; stroke-linejoin:round;">
<path d="M112540 4050
L112440 4050
L112390 4070
L112370 4090
L112320 4170
L112300 4260
L112300 4460
L112320 4510
L112350 4530
L112390 4560
L112490 4560
L112540 4530
L112560 4510
L112590 4460
L112590 4340
L112560 4290
L112540 4260
L112490 4240
L112390 4240
L112350 4260
L112320 4290
L112300 4340
" />
</g>
<g style="fill:#840000; fill-opacity:0.0; 
stroke:#840000; stroke-width:100; stroke-opacity:1; 
stroke-linecap:round; stroke-linejoin:round;">
</g>
<g style="fill:#840000; fill-opacity:0.0; 
stroke:#840000; stroke-width:60; stroke-opacity:1; 
stroke-linecap:round; stroke-linejoin:round;">
<path d="M23620 77960
L23620 78740
" />
</g>
<g style="fill:#840000; fill-opacity:0.0; 
stroke:#840000; stroke-width:100; stroke-opacity:1; 
stroke-linecap:round; stroke-linejoin:round;">
</g>
<g style="fill:#840000; fill-opacity:0.0; 
stroke:#840000; stroke-width:60; stroke-opacity:1; 
stroke-linecap:round; stroke-linejoin:round;">
<path d="M43310 77960
L43310 78740
" />
</g>
<g style="fill:#840000; fill-opacity:0.0; 
stroke:#840000; stroke-width:100; stroke-opacity:1; 
stroke-linecap:round; stroke-linejoin:round;">
</g>
<g style="fill:#840000; fill-opacity:0.0; 
stroke:#840000; stroke-width:60; stroke-opacity:1; 
stroke-linecap:round; stroke-linejoin:round;">
<path d="M62990 77960
L62990 78740
" />
</g>
<g style="fill:#840000; fill-opacity:0.0; 
stroke:#840000; stroke-width:100; stroke-opacity:1; 
stroke-linecap:round; stroke-linejoin:round;">
</g>
<g style="fill:#840000; fill-opacity:0.0; 
stroke:#840000; stroke-width:60; stroke-opacity:1; 
stroke-linecap:round; stroke-linejoin:round;">
<path d="M82680 77960
L82680 78740
" />
</g>
<g style="fill:#840000; fill-opacity:0.0; 
stroke:#840000; stroke-width:100; stroke-opacity:1; 
stroke-linecap:round; stroke-linejoin:round;">
</g>
<g style="fill:#840000; fill-opacity:0.0; 
stroke:#840000; stroke-width:60; stroke-opacity:1; 
stroke-linecap:round; stroke-linejoin:round;">
<path d="M102360 77960
L102360 78740
" />
</g>
<g style="fill:#840000; fill-opacity:0.0; 
stroke:#840000; stroke-width:100; stroke-opacity:1; 
stroke-linecap:round; stroke-linejoin:round;">
</g>
<g style="fill:#840000; fill-opacity:0.0; 
stroke:#840000; stroke-width:60; stroke-opacity:1; 
stroke-linecap:round; stroke-linejoin:round;">
<path d="M14170 78580
L13880 78580
" />
<path d="M14020 78580
L14020 78070
L13970 78140
L13930 78190
L13880 78210
" />
</g>
<g style="fill:#840000; fill-opacity:0.0; 
stroke:#840000; stroke-width:100; stroke-opacity:1; 
stroke-linecap:round; stroke-linejoin:round;">
</g>
<g style="fill:#840000; fill-opacity:0.0; 
stroke:#840000; stroke-width:60; stroke-opacity:1; 
stroke-linecap:round; stroke-linejoin:round;">
<path d="M33560 78110
L33580 78090
L33630 78070
L33750 78070
L33800 78090
L33820 78110
L33850 78160
L33850 78210
L33820 78280
L33530 78580
L33850 78580
" />
</g>
<g style="fill:#840000; fill-opacity:0.0; 
stroke:#840000; stroke-width:100; stroke-opacity:1; 
stroke-linecap:round; stroke-linejoin:round;">
</g>
<g style="fill:#840000; fill-opacity:0.0; 
stroke:#840000; stroke-width:60; stroke-opacity:1; 
stroke-linecap:round; stroke-linejoin:round;">
<path d="M53220 78070
L53540 78070
L53370 78260
L53440 78260
L53490 78280
L53510 78310
L53540 78360
L53540 78480
L53510 78530
L53490 78550
L53440 78580
L53300 78580
L53250 78550
L53220 78530
" />
</g>
<g style="fill:#840000; fill-opacity:0.0; 
stroke:#840000; stroke-width:100; stroke-opacity:1; 
stroke-linecap:round; stroke-linejoin:round;">
</g>
<g style="fill:#840000; fill-opacity:0.0; 
stroke:#840000; stroke-width:60; stroke-opacity:1; 
stroke-linecap:round; stroke-linejoin:round;">
<path d="M73170 78240
L73170 78580
" />
<path d="M73050 78040
L72930 78410
L73240 78410
" />
</g>
<g style="fill:#840000; fill-opacity:0.0; 
stroke:#840000; stroke-width:100; stroke-opacity:1; 
stroke-linecap:round; stroke-linejoin:round;">
</g>
<g style="fill:#840000; fill-opacity:0.0; 
stroke:#840000; stroke-width:60; stroke-opacity:1; 
stroke-linecap:round; stroke-linejoin:round;">
<path d="M92880 78070
L92640 78070
L92620 78310
L92640 78280
L92690 78260
L92810 78260
L92860 78280
L92880 78310
L92910 78360
L92910 78480
L92880 78530
L92860 78550
L92810 78580
L92690 78580
L92640 78550
L92620 78530
" />
</g>
<g style="fill:#840000; fill-opacity:0.0; 
stroke:#840000; stroke-width:100; stroke-opacity:1; 
stroke-linecap:round; stroke-linejoin:round;">
</g>
<g style="fill:#840000; fill-opacity:0.0; 
stroke:#840000; stroke-width:60; stroke-opacity:1; 
stroke-linecap:round; stroke-linejoin:round;">
<path d="M112540 78070
L112440 78070
L112390 78090
L112370 78110
L112320 78190
L112300 78280
L112300 78480
L112320 78530
L112350 78550
L112390 78580
L112490 78580
L112540 78550
L112560 78530
L112590 78480
L112590 78360
L112560 78310
L112540 78280
L112490 78260
L112390 78260
L112350 78280
L112320 78310
L112300 78360
" />
</g>
<g style="fill:#840000; fill-opacity:0.0; 
stroke:#840000; stroke-width:100; stroke-opacity:1; 
stroke-linecap:round; stroke-linejoin:round;">
</g>
<g style="fill:#840000; fill-opacity:0.0; 
stroke:#840000; stroke-width:60; stroke-opacity:1; 
stroke-linecap:round; stroke-linejoin:round;">
<path d="M3940 23620
L4720 23620
" />
</g>
<g style="fill:#840000; fill-opacity:0.0; 
stroke:#840000; stroke-width:100; stroke-opacity:1; 
stroke-linecap:round; stroke-linejoin:round;">
</g>
<g style="fill:#840000; fill-opacity:0.0; 
stroke:#840000; stroke-width:60; stroke-opacity:1; 
stroke-linecap:round; stroke-linejoin:round;">
<path d="M3940 43310
L4720 43310
" />
</g>
<g style="fill:#840000; fill-opacity:0.0; 
stroke:#840000; stroke-width:100; stroke-opacity:1; 
stroke-linecap:round; stroke-linejoin:round;">
</g>
<g style="fill:#840000; fill-opacity:0.0; 
stroke:#840000; stroke-width:60; stroke-opacity:1; 
stroke-linecap:round; stroke-linejoin:round;">
<path d="M3940 62990
L4720 62990
" />
</g>
<g style="fill:#840000; fill-opacity:0.0; 
stroke:#840000; stroke-width:100; stroke-opacity:1; 
stroke-linecap:round; stroke-linejoin:round;">
</g>
<g style="fill:#840000; fill-opacity:0.0; 
stroke:#840000; stroke-width:60; stroke-opacity:1; 
stroke-linecap:round; stroke-linejoin:round;">
<path d="M4210 13860
L4450 13860
" />
<path d="M4160 14010
L4330 13500
L4500 14010
" />
</g>
<g style="fill:#840000; fill-opacity:0.0; 
stroke:#840000; stroke-width:100; stroke-opacity:1; 
stroke-linecap:round; stroke-linejoin:round;">
</g>
<g style="fill:#840000; fill-opacity:0.0; 
stroke:#840000; stroke-width:60; stroke-opacity:1; 
stroke-linecap:round; stroke-linejoin:round;">
<path d="M4370 33420
L4440 33440
L4470 33470
L4490 33520
L4490 33590
L4470 33640
L4440 33660
L4400 33690
L4200 33690
L4200 33180
L4370 33180
L4420 33200
L4440 33220
L4470 33270
L4470 33320
L4440 33370
L4420 33390
L4370 33420
L4200 33420
" />
</g>
<g style="fill:#840000; fill-opacity:0.0; 
stroke:#840000; stroke-width:100; stroke-opacity:1; 
stroke-linecap:round; stroke-linejoin:round;">
</g>
<g style="fill:#840000; fill-opacity:0.0; 
stroke:#840000; stroke-width:60; stroke-opacity:1; 
stroke-linecap:round; stroke-linejoin:round;">
<path d="M4490 53330
L4470 53350
L4400 53380
L4350 53380
L4270 53350
L4230 53300
L4200 53250
L4180 53160
L4180 53080
L4200 52990
L4230 52940
L4270 52890
L4350 52870
L4400 52870
L4470 52890
L4490 52910
" />
</g>
<g style="fill:#840000; fill-opacity:0.0; 
stroke:#840000; stroke-width:100; stroke-opacity:1; 
stroke-linecap:round; stroke-linejoin:round;">
</g>
<g style="fill:#840000; fill-opacity:0.0; 
stroke:#840000; stroke-width:60; stroke-opacity:1; 
stroke-linecap:round; stroke-linejoin:round;">
<path d="M4200 73060
L4200 72550
L4320 72550
L4400 72570
L4440 72620
L4470 72670
L4490 72760
L4490 72840
L4470 72930
L4440 72980
L4400 73030
L4320 73060
L4200 73060
" />
</g>
<g style="fill:#840000; fill-opacity:0.0; 
stroke:#840000; stroke-width:100; stroke-opacity:1; 
stroke-linecap:round; stroke-linejoin:round;">
</g>
<g style="fill:#840000; fill-opacity:0.0; 
stroke:#840000; stroke-width:60; stroke-opacity:1; 
stroke-linecap:round; stroke-linejoin:round;">
<path d="M112990 23620
L112210 23620
" />
</g>
<g style="fill:#840000; fill-opacity:0.0; 
stroke:#840000; stroke-width:100; stroke-opacity:1; 
stroke-linecap:round; stroke-linejoin:round;">
</g>
<g style="fill:#840000; fill-opacity:0.0; 
stroke:#840000; stroke-width:60; stroke-opacity:1; 
stroke-linecap:round; stroke-linejoin:round;">
<path d="M112990 43310
L112210 43310
" />
</g>
<g style="fill:#840000; fill-opacity:0.0; 
stroke:#840000; stroke-width:100; stroke-opacity:1; 
stroke-linecap:round; stroke-linejoin:round;">
</g>
<g style="fill:#840000; fill-opacity:0.0; 
stroke:#840000; stroke-width:60; stroke-opacity:1; 
stroke-linecap:round; stroke-linejoin:round;">
<path d="M112990 62990
L112210 62990
" />
</g>
<g style="fill:#840000; fill-opacity:0.0; 
stroke:#840000; stroke-width:100; stroke-opacity:1; 
stroke-linecap:round; stroke-linejoin:round;">
</g>
<g style="fill:#840000; fill-opacity:0.0; 
stroke:#840000; stroke-width:60; stroke-opacity:1; 
stroke-linecap:round; stroke-linejoin:round;">
<path d="M112480 13860
L112720 13860
" />
<path d="M112430 14010
L112600 13500
L112770 14010
" />
</g>
<g style="fill:#840000; fill-opacity:0.0; 
stroke:#840000; stroke-width:100; stroke-opacity:1; 
stroke-linecap:round; stroke-linejoin:round;">
</g>
<g style="fill:#840000; fill-opacity:0.0; 
stroke:#840000; stroke-width:60; stroke-opacity:1; 
stroke-linecap:round; stroke-linejoin:round;">
<path d="M112640 33420
L112710 33440
L112740 33470
L112760 33520
L112760 33590
L112740 33640
L112710 33660
L112670 33690
L112470 33690
L112470 33180
L112640 33180
L112690 33200
L112710 33220
L112740 33270
L112740 33320
L112710 33370
L112690 33390
L112640 33420
L112470 33420
" />
</g>
<g style="fill:#840000; fill-opacity:0.0; 
stroke:#840000; stroke-width:100; stroke-opacity:1; 
stroke-linecap:round; stroke-linejoin:round;">
</g>
<g style="fill:#840000; fill-opacity:0.0; 
stroke:#840000; stroke-width:60; stroke-opacity:1; 
stroke-linecap:round; stroke-linejoin:round;">
<path d="M112760 53330
L112740 53350
L112670 53380
L112620 53380
L112540 53350
L112500 53300
L112470 53250
L112450 53160
L112450 53080
L112470 52990
L112500 52940
L112540 52890
L112620 52870
L112670 52870
L112740 52890
L112760 52910
" />
</g>
<g style="fill:#840000; fill-opacity:0.0; 
stroke:#840000; stroke-width:100; stroke-opacity:1; 
stroke-linecap:round; stroke-linejoin:round;">
</g>
<g style="fill:#840000; fill-opacity:0.0; 
stroke:#840000; stroke-width:60; stroke-opacity:1; 
stroke-linecap:round; stroke-linejoin:round;">
<path d="M112470 73060
L112470 72550
L112590 72550
L112670 72570
L112710 72620
L112740 72670
L112760 72760
L112760 72840
L112740 72930
L112710 72980
L112670 73030
L112590 73060
L112470 73060
" />
</g>
<g style="fill:#840000; fill-opacity:0.0; 
stroke:#840000; stroke-width:100; stroke-opacity:1; 
stroke-linecap:round; stroke-linejoin:round;">
</g>
<g style="fill:#840000; fill-opacity:0.0; 
stroke:#840000; stroke-width:60; stroke-opacity:1; 
stroke-linecap:round; stroke-linejoin:round;">
<path d="M78880 76290
L78880 75700
L79020 75700
L79110 75730
L79160 75790
L79190 75840
L79220 75950
L79220 76040
L79190 76150
L79160 76210
L79110 76260
L79020 76290
L78880 76290
" />
<path d="M79720 76290
L79720 75980
L79700 75930
L79640 75900
L79530 75900
L79470 75930
" />
<path d="M79720 76260
L79670 76290
L79530 76290
L79470 76260
L79440 76210
L79440 76150
L79470 76100
L79530 76070
L79670 76070
L79720 76040
" />
<path d="M79920 75900
L80140 75900
" />
<path d="M80000 75700
L80000 76210
L80030 76260
L80080 76290
L80140 76290
" />
<path d="M80570 76260
L80510 76290
L80400 76290
L80340 76260
L80310 76210
L80310 75980
L80340 75930
L80400 75900
L80510 75900
L80570 75930
L80590 75980
L80590 76040
L80310 76100
" />
<path d="M80850 76240
L80880 76260
L80850 76290
L80820 76260
L80850 76240
L80850 76290
" />
<path d="M80850 75930
L80880 75950
L80850 75980
L80820 75950
L80850 75930
L80850 75980
" />
</g>
<g style="fill:#840000; fill-opacity:0.0; 
stroke:#840000; stroke-width:100; stroke-opacity:1; 
stroke-linecap:round; stroke-linejoin:round;">
</g>
<g style="fill:#840000; fill-opacity:0.0; 
stroke:#840000; stroke-width:60; stroke-opacity:1; 
stroke-linecap:round; stroke-linejoin:round;">
<path d="M69690 76580
L112210 76580
" />
</g>
<g style="fill:#840000; fill-opacity:0.0; 
stroke:#840000; stroke-width:100; stroke-opacity:1; 
stroke-linecap:round; stroke-linejoin:round;">
</g>
<g style="fill:#840000; fill-opacity:0.0; 
stroke:#840000; stroke-width:60; stroke-opacity:1; 
stroke-linecap:round; stroke-linejoin:round;">
<path d="M70220 77390
L70220 76800
" />
<path d="M70560 77390
L70300 77050
" />
<path d="M70560 76800
L70220 77140
" />
<path d="M70810 77390
L70810 77000
" />
<path d="M70810 76800
L70780 76830
L70810 76860
L70840 76830
L70810 76800
L70810 76860
" />
<path d="M71430 77340
L71400 77360
L71320 77390
L71260 77390
L71170 77360
L71120 77310
L71090 77250
L71060 77140
L71060 77050
L71090 76940
L71120 76890
L71170 76830
L71260 76800
L71320 76800
L71400 76830
L71430 76860
" />
<path d="M71930 77390
L71930 77080
L71910 77030
L71850 77000
L71740 77000
L71680 77030
" />
<path d="M71930 77360
L71880 77390
L71740 77390
L71680 77360
L71650 77310
L71650 77250
L71680 77200
L71740 77170
L71880 77170
L71930 77140
" />
<path d="M72460 77390
L72460 76800
" />
<path d="M72460 77360
L72410 77390
L72290 77390
L72240 77360
L72210 77340
L72180 77280
L72180 77110
L72210 77050
L72240 77030
L72290 77000
L72410 77000
L72460 77030
" />
<path d="M73190 77080
L73390 77080
" />
<path d="M73470 77390
L73190 77390
L73190 76800
L73470 76800
" />
<path d="M73720 77340
L73750 77360
L73720 77390
L73690 77360
L73720 77340
L73720 77390
" />
<path d="M74000 77390
L74000 76800
L74140 76800
L74230 76830
L74280 76890
L74310 76940
L74340 77050
L74340 77140
L74310 77250
L74280 77310
L74230 77360
L74140 77390
L74000 77390
" />
<path d="M74590 77340
L74620 77360
L74590 77390
L74560 77360
L74590 77340
L74590 77390
" />
<path d="M74840 77220
L75120 77220
" />
<path d="M74790 77390
L74980 76800
L75180 77390
" />
<path d="M75380 77340
L75410 77360
L75380 77390
L75350 77360
L75380 77340
L75380 77390
" />
<path d="M76560 77390
L76560 76800
" />
<path d="M76620 77170
L76790 77390
" />
<path d="M76790 77000
L76560 77220
" />
<path d="M77040 77390
L77040 77000
" />
<path d="M77040 76800
L77010 76830
L77040 76860
L77070 76830
L77040 76800
L77040 76860
" />
<path d="M77570 77360
L77520 77390
L77400 77390
L77350 77360
L77320 77340
L77290 77280
L77290 77110
L77320 77050
L77350 77030
L77400 77000
L77520 77000
L77570 77030
" />
<path d="M78080 77390
L78080 77080
L78060 77030
L78000 77000
L77890 77000
L77830 77030
" />
<path d="M78080 77360
L78030 77390
L77890 77390
L77830 77360
L77800 77310
L77800 77250
L77830 77200
L77890 77170
L78030 77170
L78080 77140
" />
<path d="M78610 77390
L78610 76800
" />
<path d="M78610 77360
L78560 77390
L78440 77390
L78390 77360
L78360 77340
L78330 77280
L78330 77110
L78360 77050
L78390 77030
L78440 77000
L78560 77000
L78610 77030
" />
<path d="M79450 76800
L79510 76800
L79570 76830
L79590 76860
L79620 76910
L79650 77030
L79650 77170
L79620 77280
L79590 77340
L79570 77360
L79510 77390
L79450 77390
L79400 77360
L79370 77340
L79340 77280
L79310 77170
L79310 77030
L79340 76910
L79370 76860
L79400 76830
L79450 76800
" />
<path d="M79900 77340
L79930 77360
L79900 77390
L79870 77360
L79900 77340
L79900 77390
" />
<path d="M80150 76860
L80180 76830
L80240 76800
L80380 76800
L80430 76830
L80460 76860
L80490 76910
L80490 76970
L80460 77050
L80120 77390
L80490 77390
" />
<path d="M80850 76800
L80910 76800
L80970 76830
L80990 76860
L81020 76910
L81050 77030
L81050 77170
L81020 77280
L80990 77340
L80970 77360
L80910 77390
L80850 77390
L80800 77360
L80770 77340
L80740 77280
L80710 77170
L80710 77030
L80740 76910
L80770 76860
L80800 76830
L80850 76800
" />
<path d="M81610 77390
L81270 77390
" />
<path d="M81440 77390
L81440 76800
L81380 76890
L81330 76940
L81270 76970
" />
<path d="M82110 76800
L82000 76800
L81940 76830
L81920 76860
L81860 76940
L81830 77050
L81830 77280
L81860 77340
L81890 77360
L81940 77390
L82060 77390
L82110 77360
L82140 77340
L82170 77280
L82170 77140
L82140 77080
L82110 77050
L82060 77030
L81940 77030
L81890 77050
L81860 77080
L81830 77140
" />
<path d="M82530 76800
L82590 76800
L82650 76830
L82670 76860
L82700 76910
L82730 77030
L82730 77170
L82700 77280
L82670 77340
L82650 77360
L82590 77390
L82530 77390
L82480 77360
L82450 77340
L82420 77280
L82390 77170
L82390 77030
L82420 76910
L82450 76860
L82480 76830
L82530 76800
" />
<path d="M83290 77390
L82950 77390
" />
<path d="M83120 77390
L83120 76800
L83060 76890
L83010 76940
L82950 76970
" />
<path d="M83650 76800
L83710 76800
L83770 76830
L83790 76860
L83820 76910
L83850 77030
L83850 77170
L83820 77280
L83790 77340
L83770 77360
L83710 77390
L83650 77390
L83600 77360
L83570 77340
L83540 77280
L83510 77170
L83510 77030
L83540 76910
L83570 76860
L83600 76830
L83650 76800
" />
<path d="M84350 76800
L84240 76800
L84180 76830
L84160 76860
L84100 76940
L84070 77050
L84070 77280
L84100 77340
L84130 77360
L84180 77390
L84300 77390
L84350 77360
L84380 77340
L84410 77280
L84410 77140
L84380 77080
L84350 77050
L84300 77030
L84180 77030
L84130 77050
L84100 77080
L84070 77140
" />
<path d="M84970 77390
L84630 77390
" />
<path d="M84800 77390
L84800 76800
L84740 76890
L84690 76940
L84630 76970
" />
<path d="M85470 77000
L85470 77390
" />
<path d="M85330 76770
L85190 77200
L85560 77200
" />
<path d="M86060 76800
L85780 76800
L85750 77080
L85780 77050
L85840 77030
L85980 77030
L86030 77050
L86060 77080
L86090 77140
L86090 77280
L86060 77340
L86030 77360
L85980 77390
L85840 77390
L85780 77360
L85750 77340
" />
<path d="M86420 77050
L86370 77030
L86340 77000
L86310 76940
L86310 76910
L86340 76860
L86370 76830
L86420 76800
L86540 76800
L86590 76830
L86620 76860
L86650 76910
L86650 76940
L86620 77000
L86590 77030
L86540 77050
L86420 77050
L86370 77080
L86340 77110
L86310 77170
L86310 77280
L86340 77340
L86370 77360
L86420 77390
L86540 77390
L86590 77360
L86620 77340
L86650 77280
L86650 77170
L86620 77110
L86590 77080
L86540 77050
" />
<path d="M86900 77170
L87350 77170
" />
<path d="M87130 77390
L87130 76940
" />
<path d="M87880 76800
L87770 76800
L87710 76830
L87690 76860
L87630 76940
L87600 77050
L87600 77280
L87630 77340
L87660 77360
L87710 77390
L87830 77390
L87880 77360
L87910 77340
L87940 77280
L87940 77140
L87910 77080
L87880 77050
L87830 77030
L87710 77030
L87660 77050
L87630 77080
L87600 77140
" />
<path d="M88440 77000
L88440 77390
" />
<path d="M88300 76770
L88160 77200
L88530 77200
" />
<path d="M88720 76860
L88750 76830
L88810 76800
L88950 76800
L89000 76830
L89030 76860
L89060 76910
L89060 76970
L89030 77050
L88690 77390
L89060 77390
" />
<path d="M89250 76800
L89650 76800
L89390 77390
" />
<path d="M90120 77000
L90120 77390
" />
<path d="M89980 76770
L89840 77200
L90210 77200
" />
<path d="M90540 76800
L90600 76800
L90660 76830
L90680 76860
L90710 76910
L90740 77030
L90740 77170
L90710 77280
L90680 77340
L90660 77360
L90600 77390
L90540 77390
L90490 77360
L90460 77340
L90430 77280
L90400 77170
L90400 77030
L90430 76910
L90460 76860
L90490 76830
L90540 76800
" />
<path d="M89730 76700
L90850 76700
" />
<path d="M91240 77000
L91240 77390
" />
<path d="M90990 77000
L90990 77310
L91020 77360
L91070 77390
L91160 77390
L91220 77360
L91240 77340
" />
<path d="M91520 77390
L91520 76800
" />
<path d="M91520 77030
L91580 77000
L91690 77000
L91750 77030
L91770 77050
L91800 77110
L91800 77280
L91770 77340
L91750 77360
L91690 77390
L91580 77390
L91520 77360
" />
<path d="M92300 77000
L92300 77390
" />
<path d="M92050 77000
L92050 77310
L92080 77360
L92130 77390
L92220 77390
L92280 77360
L92300 77340
" />
<path d="M92580 77000
L92580 77390
" />
<path d="M92580 77050
L92610 77030
L92660 77000
L92750 77000
L92810 77030
L92830 77080
L92830 77390
" />
<path d="M93030 77000
L93250 77000
" />
<path d="M93110 76800
L93110 77310
L93140 77360
L93190 77390
L93250 77390
" />
<path d="M93700 77000
L93700 77390
" />
<path d="M93450 77000
L93450 77310
L93480 77360
L93530 77390
L93620 77390
L93680 77360
L93700 77340
" />
<path d="M94290 77390
L93950 77390
" />
<path d="M94120 77390
L94120 76800
L94060 76890
L94010 76940
L93950 76970
" />
<path d="M94820 76800
L94540 76800
L94510 77080
L94540 77050
L94600 77030
L94740 77030
L94790 77050
L94820 77080
L94850 77140
L94850 77280
L94820 77340
L94790 77360
L94740 77390
L94600 77390
L94540 77360
L94510 77340
" />
<path d="M95100 77340
L95130 77360
L95100 77390
L95070 77360
L95100 77340
L95100 77390
" />
<path d="M95690 77390
L95350 77390
" />
<path d="M95520 77390
L95520 76800
L95460 76890
L95410 76940
L95350 76970
" />
<path d="M96050 76800
L96110 76800
L96170 76830
L96190 76860
L96220 76910
L96250 77030
L96250 77170
L96220 77280
L96190 77340
L96170 77360
L96110 77390
L96050 77390
L96000 77360
L95970 77340
L95940 77280
L95910 77170
L95910 77030
L95940 76910
L95970 76860
L96000 76830
L96050 76800
" />
<path d="M96500 77340
L96530 77360
L96500 77390
L96470 77360
L96500 77340
L96500 77390
" />
<path d="M97090 77390
L96750 77390
" />
<path d="M96920 77390
L96920 76800
L96860 76890
L96810 76940
L96750 76970
" />
<path d="M97340 77170
L97790 77170
" />
<path d="M98040 77360
L98100 77390
L98210 77390
L98270 77360
L98300 77310
L98300 77280
L98270 77220
L98210 77200
L98130 77200
L98070 77170
L98040 77110
L98040 77080
L98070 77030
L98130 77000
L98210 77000
L98270 77030
" />
<path d="M98470 77000
L98690 77000
" />
<path d="M98550 76800
L98550 77310
L98580 77360
L98630 77390
L98690 77390
" />
<path d="M99140 77390
L99140 77080
L99120 77030
L99060 77000
L98950 77000
L98890 77030
" />
<path d="M99140 77360
L99090 77390
L98950 77390
L98890 77360
L98860 77310
L98860 77250
L98890 77200
L98950 77170
L99090 77170
L99140 77140
" />
<path d="M99420 77390
L99420 76800
" />
<path d="M99420 77030
L99480 77000
L99590 77000
L99650 77030
L99670 77050
L99700 77110
L99700 77280
L99670 77340
L99650 77360
L99590 77390
L99480 77390
L99420 77360
" />
<path d="M100030 77390
L99980 77360
L99950 77310
L99950 76800
" />
<path d="M100490 77360
L100430 77390
L100320 77390
L100260 77360
L100230 77310
L100230 77080
L100260 77030
L100320 77000
L100430 77000
L100490 77030
L100510 77080
L100510 77140
L100230 77200
" />
</g>
<g style="fill:#840000; fill-opacity:0.0; 
stroke:#840000; stroke-width:100; stroke-opacity:1; 
stroke-linecap:round; stroke-linejoin:round;">
</g>
<g style="fill:#840000; fill-opacity:0.0; 
stroke:#840000; stroke-width:60; stroke-opacity:1; 
stroke-linecap:round; stroke-linejoin:round;">
<path d="M69690 75400
L112210 75400
" />
</g>
<g style="fill:#840000; fill-opacity:0.0; 
stroke:#840000; stroke-width:100; stroke-opacity:1; 
stroke-linecap:round; stroke-linejoin:round;">
</g>
<g style="fill:#840000; fill-opacity:0.0; 
stroke:#840000; stroke-width:120; stroke-opacity:1; 
stroke-linecap:round; stroke-linejoin:round;">
<path d="M104020 76290
L103820 76010
" />
<path d="M103680 76290
L103680 75700
L103910 75700
L103960 75730
L103990 75760
L104020 75810
L104020 75900
L103990 75950
L103960 75980
L103910 76010
L103680 76010
" />
<path d="M104500 76260
L104440 76290
L104330 76290
L104270 76260
L104240 76210
L104240 75980
L104270 75930
L104330 75900
L104440 75900
L104500 75930
L104520 75980
L104520 76040
L104240 76100
" />
<path d="M104720 75900
L104860 76290
L105010 75900
" />
<path d="M105230 76240
L105260 76260
L105230 76290
L105200 76260
L105230 76240
L105230 76290
" />
<path d="M105230 75930
L105260 75950
L105230 75980
L105200 75950
L105230 75930
L105230 75980
" />
</g>
<g style="fill:#840000; fill-opacity:0.0; 
stroke:#840000; stroke-width:100; stroke-opacity:1; 
stroke-linecap:round; stroke-linejoin:round;">
</g>
<g style="fill:#840000; fill-opacity:0.0; 
stroke:#840000; stroke-width:60; stroke-opacity:1; 
stroke-linecap:round; stroke-linejoin:round;">
<path d="M70190 76260
L70280 76290
L70420 76290
L70470 76260
L70500 76240
L70530 76180
L70530 76120
L70500 76070
L70470 76040
L70420 76010
L70300 75980
L70250 75950
L70220 75930
L70190 75870
L70190 75810
L70220 75760
L70250 75730
L70300 75700
L70450 75700
L70530 75730
" />
<path d="M70780 76290
L70780 75900
" />
<path d="M70780 75700
L70750 75730
L70780 75760
L70810 75730
L70780 75700
L70780 75760
" />
<path d="M71000 75900
L71310 75900
L71000 76290
L71310 76290
" />
<path d="M71770 76260
L71710 76290
L71600 76290
L71540 76260
L71510 76210
L71510 75980
L71540 75930
L71600 75900
L71710 75900
L71770 75930
L71790 75980
L71790 76040
L71510 76100
" />
<path d="M72050 76240
L72080 76260
L72050 76290
L72020 76260
L72050 76240
L72050 76290
" />
<path d="M72050 75930
L72080 75950
L72050 75980
L72020 75950
L72050 75930
L72050 75980
" />
<path d="M72750 76120
L73030 76120
" />
<path d="M72700 76290
L72890 75700
L73090 76290
" />
<path d="M73540 75900
L73540 76290
" />
<path d="M73400 75670
L73260 76100
L73630 76100
" />
</g>
<g style="fill:#840000; fill-opacity:0.0; 
stroke:#840000; stroke-width:100; stroke-opacity:1; 
stroke-linecap:round; stroke-linejoin:round;">
</g>
<g style="fill:#840000; fill-opacity:0.0; 
stroke:#840000; stroke-width:60; stroke-opacity:1; 
stroke-linecap:round; stroke-linejoin:round;">
<path d="M103680 77390
L103680 76800
" />
<path d="M104210 77390
L104210 76800
" />
<path d="M104210 77360
L104160 77390
L104040 77390
L103990 77360
L103960 77340
L103930 77280
L103930 77110
L103960 77050
L103990 77030
L104040 77000
L104160 77000
L104210 77030
" />
<path d="M104490 77340
L104520 77360
L104490 77390
L104460 77360
L104490 77340
L104490 77390
" />
<path d="M104490 77030
L104520 77050
L104490 77080
L104460 77050
L104490 77030
L104490 77080
" />
<path d="M105530 77390
L105190 77390
" />
<path d="M105360 77390
L105360 76800
L105300 76890
L105250 76940
L105190 76970
" />
<path d="M106200 76770
L105700 77530
" />
<path d="M106710 77390
L106370 77390
" />
<path d="M106540 77390
L106540 76800
L106480 76890
L106430 76940
L106370 76970
" />
</g>
<g style="fill:#840000; fill-opacity:0.0; 
stroke:#840000; stroke-width:100; stroke-opacity:1; 
stroke-linecap:round; stroke-linejoin:round;">
</g>
<g style="fill:#840000; fill-opacity:0.0; 
stroke:#840000; stroke-width:60; stroke-opacity:1; 
stroke-linecap:round; stroke-linejoin:round;">
<path d="M69690 73820
L112210 73820
" />
</g>
<g style="fill:#840000; fill-opacity:0.0; 
stroke:#840000; stroke-width:100; stroke-opacity:1; 
stroke-linecap:round; stroke-linejoin:round;">
</g>
<g style="fill:#840000; fill-opacity:0.0; 
stroke:#840000; stroke-width:160; stroke-opacity:1; 
stroke-linecap:round; stroke-linejoin:round;">
<path d="M70260 74090
L70710 74090
" />
<path d="M70390 74880
L70480 74090
" />
<path d="M70880 74880
L70940 74360
" />
<path d="M70970 74090
L70930 74130
L70960 74170
L71010 74130
L70970 74090
L70960 74170
" />
<path d="M71210 74360
L71510 74360
" />
<path d="M71350 74090
L71270 74770
L71300 74840
L71370 74880
L71450 74880
" />
<path d="M71820 74880
L71750 74840
L71720 74770
L71800 74090
" />
<path d="M72420 74840
L72340 74880
L72190 74880
L72120 74840
L72090 74770
L72130 74470
L72180 74390
L72250 74360
L72400 74360
L72480 74390
L72510 74470
L72500 74540
L72110 74620
" />
<path d="M72800 74810
L72840 74840
L72800 74880
L72760 74840
L72800 74810
L72800 74880
" />
<path d="M72860 74390
L72890 74430
L72850 74470
L72810 74430
L72860 74390
L72850 74470
" />
</g>
<g style="fill:#840000; fill-opacity:0.0; 
stroke:#840000; stroke-width:100; stroke-opacity:1; 
stroke-linecap:round; stroke-linejoin:round;">
</g>
<g style="fill:#840000; fill-opacity:0.0; 
stroke:#840000; stroke-width:60; stroke-opacity:1; 
stroke-linecap:round; stroke-linejoin:round;">
<path d="M70420 73060
L70220 73060
" />
<path d="M70220 73370
L70220 72780
L70500 72780
" />
<path d="M70730 73370
L70730 72980
" />
<path d="M70730 72780
L70700 72810
L70730 72840
L70760 72810
L70730 72780
L70730 72840
" />
<path d="M71090 73370
L71040 73340
L71010 73290
L71010 72780
" />
<path d="M71550 73340
L71490 73370
L71380 73370
L71320 73340
L71290 73290
L71290 73060
L71320 73010
L71380 72980
L71490 72980
L71550 73010
L71570 73060
L71570 73120
L71290 73180
" />
<path d="M71830 73320
L71860 73340
L71830 73370
L71800 73340
L71830 73320
L71830 73370
" />
<path d="M71830 73010
L71860 73030
L71830 73060
L71800 73030
L71830 73010
L71830 73060
" />
<path d="M72560 73370
L72560 72780
" />
<path d="M72560 73060
L72900 73060
" />
<path d="M72900 73370
L72900 72780
" />
<path d="M73120 72780
L73260 73370
L73380 72950
L73490 73370
L73630 72780
" />
<path d="M74300 73370
L74300 72780
L74440 72780
L74530 72810
L74580 72870
L74610 72920
L74640 73030
L74640 73120
L74610 73230
L74580 73290
L74530 73340
L74440 73370
L74300 73370
" />
<path d="M75120 73340
L75060 73370
L74950 73370
L74890 73340
L74860 73290
L74860 73060
L74890 73010
L74950 72980
L75060 72980
L75120 73010
L75140 73060
L75140 73120
L74860 73180
" />
<path d="M75400 73370
L75400 72780
" />
<path d="M75400 73010
L75460 72980
L75570 72980
L75630 73010
L75650 73030
L75680 73090
L75680 73260
L75650 73320
L75630 73340
L75570 73370
L75460 73370
L75400 73340
" />
<path d="M76010 73370
L75960 73340
L75930 73320
L75900 73260
L75900 73090
L75930 73030
L75960 73010
L76010 72980
L76100 72980
L76160 73010
L76180 73030
L76210 73090
L76210 73260
L76180 73320
L76160 73340
L76100 73370
L76010 73370
" />
<path d="M76710 72980
L76710 73370
" />
<path d="M76460 72980
L76460 73290
L76490 73340
L76540 73370
L76630 73370
L76690 73340
L76710 73320
" />
<path d="M76990 72980
L76990 73370
" />
<path d="M76990 73030
L77020 73010
L77070 72980
L77160 72980
L77220 73010
L77240 73060
L77240 73370
" />
<path d="M77770 73340
L77720 73370
L77600 73370
L77550 73340
L77520 73320
L77490 73260
L77490 73090
L77520 73030
L77550 73010
L77600 72980
L77720 72980
L77770 73010
" />
<path d="M78260 73340
L78200 73370
L78090 73370
L78030 73340
L78000 73290
L78000 73060
L78030 73010
L78090 72980
L78200 72980
L78260 73010
L78280 73060
L78280 73120
L78000 73180
" />
<path d="M79190 73060
L79270 73090
L79300 73120
L79330 73180
L79330 73260
L79300 73320
L79270 73340
L79220 73370
L78990 73370
L78990 72780
L79190 72780
L79240 72810
L79270 72840
L79300 72890
L79300 72950
L79270 73010
L79240 73030
L79190 73060
L78990 73060
" />
<path d="M79830 72980
L79830 73370
" />
<path d="M79580 72980
L79580 73290
L79610 73340
L79660 73370
L79750 73370
L79810 73340
L79830 73320
" />
<path d="M80030 72980
L80250 72980
" />
<path d="M80110 72780
L80110 73290
L80140 73340
L80190 73370
L80250 73370
" />
<path d="M80370 72980
L80590 72980
" />
<path d="M80450 72780
L80450 73290
L80480 73340
L80530 73370
L80590 73370
" />
<path d="M80870 73370
L80820 73340
L80790 73320
L80760 73260
L80760 73090
L80790 73030
L80820 73010
L80870 72980
L80960 72980
L81020 73010
L81040 73030
L81070 73090
L81070 73260
L81040 73320
L81020 73340
L80960 73370
L80870 73370
" />
<path d="M81320 72980
L81320 73370
" />
<path d="M81320 73030
L81350 73010
L81400 72980
L81490 72980
L81550 73010
L81570 73060
L81570 73370
" />
<path d="M81850 73320
L81880 73340
L81850 73370
L81820 73340
L81850 73320
L81850 73370
" />
<path d="M82100 73340
L82160 73370
L82270 73370
L82330 73340
L82360 73290
L82360 73260
L82330 73200
L82270 73180
L82190 73180
L82130 73150
L82100 73090
L82100 73060
L82130 73010
L82190 72980
L82270 72980
L82330 73010
" />
<path d="M82860 73340
L82810 73370
L82690 73370
L82640 73340
L82610 73320
L82580 73260
L82580 73090
L82610 73030
L82640 73010
L82690 72980
L82810 72980
L82860 73010
" />
<path d="M83120 73370
L83120 72780
" />
<path d="M83370 73370
L83370 73060
L83350 73010
L83290 72980
L83200 72980
L83150 73010
L83120 73030
" />
</g>
<g style="fill:#840000; fill-opacity:0.0; 
stroke:#840000; stroke-width:100; stroke-opacity:1; 
stroke-linecap:round; stroke-linejoin:round;">
</g>
<g style="fill:#840000; fill-opacity:0.0; 
stroke:#840000; stroke-width:60; stroke-opacity:1; 
stroke-linecap:round; stroke-linejoin:round;">
<path d="M69690 71460
L112210 71460
" />
</g>
<g style="fill:#840000; fill-opacity:0.0; 
stroke:#840000; stroke-width:100; stroke-opacity:1; 
stroke-linecap:round; stroke-linejoin:round;">
</g>
<g style="fill:#840000; fill-opacity:0.0; 
stroke:#840000; stroke-width:60; stroke-opacity:1; 
stroke-linecap:round; stroke-linejoin:round;">
<path d="M70190 72280
L70280 72310
L70420 72310
L70470 72280
L70500 72260
L70530 72200
L70530 72140
L70500 72090
L70470 72060
L70420 72030
L70300 72000
L70250 71970
L70220 71950
L70190 71890
L70190 71830
L70220 71780
L70250 71750
L70300 71720
L70450 71720
L70530 71750
" />
<path d="M70780 72310
L70780 71720
" />
<path d="M71030 72310
L71030 72000
L71010 71950
L70950 71920
L70860 71920
L70810 71950
L70780 71970
" />
<path d="M71540 72280
L71480 72310
L71370 72310
L71310 72280
L71280 72230
L71280 72000
L71310 71950
L71370 71920
L71480 71920
L71540 71950
L71560 72000
L71560 72060
L71280 72120
" />
<path d="M72050 72280
L71990 72310
L71880 72310
L71820 72280
L71790 72230
L71790 72000
L71820 71950
L71880 71920
L71990 71920
L72050 71950
L72070 72000
L72070 72060
L71790 72120
" />
<path d="M72250 71920
L72470 71920
" />
<path d="M72330 71720
L72330 72230
L72360 72280
L72410 72310
L72470 72310
" />
<path d="M72670 72260
L72700 72280
L72670 72310
L72640 72280
L72670 72260
L72670 72310
" />
<path d="M72670 71950
L72700 71970
L72670 72000
L72640 71970
L72670 71950
L72670 72000
" />
<path d="M73820 71690
L73320 72450
" />
</g>
<g style="fill:#840000; fill-opacity:0.0; 
stroke:#840000; stroke-width:100; stroke-opacity:1; 
stroke-linecap:round; stroke-linejoin:round;">
</g>
<g style="fill:#840000; fill-opacity:0.0; 
stroke:#840000; stroke-width:60; stroke-opacity:1; 
stroke-linecap:round; stroke-linejoin:round;">
<path d="M77560 75400
L77560 76580
" />
</g>
<g style="fill:#840000; fill-opacity:0.0; 
stroke:#840000; stroke-width:100; stroke-opacity:1; 
stroke-linecap:round; stroke-linejoin:round;">
</g>
<g style="fill:#840000; fill-opacity:0.0; 
stroke:#840000; stroke-width:60; stroke-opacity:1; 
stroke-linecap:round; stroke-linejoin:round;">
<path d="M102760 75400
L102760 77960
" />
</g>
<g style="fill:#840000; fill-opacity:0.0; 
stroke:#840000; stroke-width:0; stroke-opacity:1; 
stroke-linecap:round; stroke-linejoin:round;">
</g>
<g style="fill:#840000; fill-opacity:0.0; 
stroke:#840000; stroke-width:60; stroke-opacity:1; 
stroke-linecap:round; stroke-linejoin:round;">
<rect x="34400" y="28100" width="100" height="3400" rx="0" />
<polyline fill="none;"
points="34400,30200
34100,30100
34100,29500
34400,29400
" /> 
<circle cx="35000" cy="31050" r="250" /> 
<path d="M35000 31300
L35000 32800
" />
<circle cx="35000" cy="28550" r="250" /> 
<path d="M35000 28300
L35000 26800
" />
</g>
<g style="fill:#840000; fill-opacity:0.0; 
stroke:#840000; stroke-width:0; stroke-opacity:1; 
stroke-linecap:round; stroke-linejoin:round;">
</g>
<g style="fill:#840000; fill-opacity:0.0; 
stroke:#840000; stroke-width:60; stroke-opacity:1; 
stroke-linecap:round; stroke-linejoin:round;">
<polyline fill="none;"
points="37400,32800
37400,33300
37900,33300
37400,33800
36900,33300
37400,33300
" /> 
</g>
<g style="fill:#008484; fill-opacity:0.0; 
stroke:#008484; stroke-width:60; stroke-opacity:1; 
stroke-linecap:round; stroke-linejoin:round;">
<path d="M37020 34020
L36970 34000
L36900 34000
L36830 34020
L36780 34070
L36760 34120
L36740 34210
L36740 34280
L36760 34380
L36780 34420
L36830 34470
L36900 34500
L36950 34500
L37020 34470
L37040 34450
L37040 34280
L36950 34280
" />
<path d="M37260 34500
L37260 34000
L37540 34500
L37540 34000
" />
<path d="M37780 34500
L37780 34000
L37900 34000
L37970 34020
L38020 34070
L38040 34120
L38060 34210
L38060 34280
L38040 34380
L38020 34420
L37970 34470
L37900 34500
L37780 34500
" />
</g>
<g style="fill:#008484; fill-opacity:0.0; 
stroke:#008484; stroke-width:0; stroke-opacity:1; 
stroke-linecap:round; stroke-linejoin:round;">
</g>
<g style="fill:#840000; fill-opacity:0.0; 
stroke:#840000; stroke-width:0; stroke-opacity:1; 
stroke-linecap:round; stroke-linejoin:round;">
</g>
<g style="fill:#840000; fill-opacity:0.0; 
stroke:#840000; stroke-width:60; stroke-opacity:1; 
stroke-linecap:round; stroke-linejoin:round;">
<circle cx="41600" cy="20250" r="250" /> 
<polyline fill="none;"
points="41600,21000
41600,20500
" /> 
</g>
<g style="fill:#008484; fill-opacity:0.0; 
stroke:#008484; stroke-width:60; stroke-opacity:1; 
stroke-linecap:round; stroke-linejoin:round;">
<path d="M40940 19200
L41100 19700
L41270 19200
" />
<path d="M41720 19650
L41700 19670
L41630 19700
L41580 19700
L41510 19670
L41460 19620
L41440 19580
L41420 19480
L41420 19410
L41440 19320
L41460 19270
L41510 19220
L41580 19200
L41630 19200
L41700 19220
L41720 19240
" />
<path d="M42220 19650
L42200 19670
L42130 19700
L42080 19700
L42010 19670
L41960 19620
L41940 19580
L41920 19480
L41920 19410
L41940 19320
L41960 19270
L42010 19220
L42080 19200
L42130 19200
L42200 19220
L42220 19240
" />
</g>
<g style="fill:#008484; fill-opacity:0.0; 
stroke:#008484; stroke-width:0; stroke-opacity:1; 
stroke-linecap:round; stroke-linejoin:round;">
</g>
<g style="fill:#840000; fill-opacity:0.0; 
stroke:#840000; stroke-width:0; stroke-opacity:1; 
stroke-linecap:round; stroke-linejoin:round;">
</g>
<g style="fill:#840000; fill-opacity:0.0; 
stroke:#840000; stroke-width:100; stroke-opacity:1; 
stroke-linecap:round; stroke-linejoin:round;">
<rect x="41200" y="22300" width="800" height="2000" rx="0" />
</g>
<g style="fill:#840000; fill-opacity:0.0; 
stroke:#840000; stroke-width:60; stroke-opacity:1; 
stroke-linecap:round; stroke-linejoin:round;">
<path d="M41600 22300
L41600 21800
" />
<path d="M41600 24300
L41600 24800
" />
</g>
<g style="fill:#008484; fill-opacity:0.0; 
stroke:#008484; stroke-width:60; stroke-opacity:1; 
stroke-linecap:round; stroke-linejoin:round;">
<path d="M41460 23650
L41800 23650
" />
<path d="M41270 23770
L41630 23880
L41630 23580
" />
<path d="M41300 23290
L41300 23240
L41320 23190
L41340 23170
L41390 23140
L41490 23120
L41610 23120
L41700 23140
L41750 23170
L41770 23190
L41800 23240
L41800 23290
L41770 23330
L41750 23360
L41700 23380
L41610 23400
L41490 23400
L41390 23380
L41340 23360
L41320 23330
L41300 23290
" />
<path d="M41800 22900
L41300 22900
" />
<path d="M41610 22850
L41800 22710
" />
<path d="M41460 22710
L41650 22900
" />
</g>
<g style="fill:#008484; fill-opacity:0.0; 
stroke:#008484; stroke-width:0; stroke-opacity:1; 
stroke-linecap:round; stroke-linejoin:round;">
</g>
<g style="fill:#840000; fill-opacity:0.0; 
stroke:#840000; stroke-width:0; stroke-opacity:1; 
stroke-linecap:round; stroke-linejoin:round;">
</g>
<g style="fill:#840000; fill-opacity:0.0; 
stroke:#840000; stroke-width:100; stroke-opacity:1; 
stroke-linecap:round; stroke-linejoin:round;">
<rect x="36200" y="25100" width="2000" height="800" rx="0" />
</g>
<g style="fill:#840000; fill-opacity:0.0; 
stroke:#840000; stroke-width:60; stroke-opacity:1; 
stroke-linecap:round; stroke-linejoin:round;">
<path d="M38200 25500
L38700 25500
" />
<path d="M36200 25500
L35700 25500
" />
</g>
<g style="fill:#008484; fill-opacity:0.0; 
stroke:#008484; stroke-width:60; stroke-opacity:1; 
stroke-linecap:round; stroke-linejoin:round;">
<path d="M37090 25700
L36810 25700
" />
<path d="M36950 25700
L36950 25200
L36900 25270
L36850 25320
L36810 25340
" />
<path d="M37310 25700
L37310 25200
" />
<path d="M37590 25700
L37380 25410
" />
<path d="M37590 25200
L37310 25480
" />
</g>
<g style="fill:#008400; fill-opacity:0.0; 
stroke:#008400; stroke-width:60; stroke-opacity:1; 
stroke-linecap:round; stroke-linejoin:round;">
<path d="M35000 25500
L35700 25500
" />
<path d="M35000 32800
L39500 32800
" />
</g>
<g style="fill:#008400; fill-opacity:0.0; 
stroke:#008400; stroke-width:0; stroke-opacity:1; 
stroke-linecap:round; stroke-linejoin:round;">
</g>
<g style="fill:#008400; fill-opacity:1.0; 
stroke:#008400; stroke-width:100; stroke-opacity:1; 
stroke-linecap:round; stroke-linejoin:round;">
<circle cx="37400" cy="32800" r="200" /> 
</g>
<g style="fill:#008400; fill-opacity:1.0; 
stroke:#008400; stroke-width:60; stroke-opacity:1; 
stroke-linecap:round; stroke-linejoin:round;">
</g>
<g style="fill:#008400; fill-opacity:0.0; 
stroke:#008400; stroke-width:60; stroke-opacity:1; 
stroke-linecap:round; stroke-linejoin:round;">
<path d="M38700 25500
L42200 25500
" />
</g>
<g style="fill:#840000; fill-opacity:0.0; 
stroke:#840000; stroke-width:60; stroke-opacity:1; 
stroke-linecap:round; stroke-linejoin:round;">
<path d="M42700 25770
L42700 25170
L42930 25170
L42990 25200
L43020 25230
L43050 25290
L43050 25370
L43020 25430
L42990 25460
L42930 25490
L42700 25490
" />
<path d="M43300 25770
L43300 25370
" />
<path d="M43300 25170
L43270 25200
L43300 25230
L43330 25200
L43300 25170
L43300 25230
" />
<path d="M43590 25370
L43590 25770
" />
<path d="M43590 25430
L43620 25400
L43680 25370
L43760 25370
L43820 25400
L43850 25460
L43850 25770
" />
</g>
<g style="fill:#840000; fill-opacity:0.0; 
stroke:#840000; stroke-width:100; stroke-opacity:1; 
stroke-linecap:round; stroke-linejoin:round;">
<polyline fill="none;"
points="42200,25500
42500,26040
44220,26040
44220,25500
44220,24960
42500,24960
42200,25500
" /> 
</g>
<g style="fill:#840000; fill-opacity:0.0; 
stroke:#840000; stroke-width:60; stroke-opacity:1; 
stroke-linecap:round; stroke-linejoin:round;">
</g>
<g style="fill:#008400; fill-opacity:0.0; 
stroke:#008400; stroke-width:60; stroke-opacity:1; 
stroke-linecap:round; stroke-linejoin:round;">
<path d="M39500 28100
L39500 25500
" />
</g>
<g style="fill:#008400; fill-opacity:0.0; 
stroke:#008400; stroke-width:0; stroke-opacity:1; 
stroke-linecap:round; stroke-linejoin:round;">
</g>
<g style="fill:#008400; fill-opacity:1.0; 
stroke:#008400; stroke-width:100; stroke-opacity:1; 
stroke-linecap:round; stroke-linejoin:round;">
<circle cx="39500" cy="25500" r="200" /> 
</g>
<g style="fill:#008400; fill-opacity:1.0; 
stroke:#008400; stroke-width:0; stroke-opacity:1; 
stroke-linecap:round; stroke-linejoin:round;">
</g>
<g style="fill:#840000; fill-opacity:1.0; 
stroke:#840000; stroke-width:0; stroke-opacity:1; 
stroke-linecap:round; stroke-linejoin:round;">
</g>
<g style="fill:#840000; fill-opacity:0.0; 
stroke:#840000; stroke-width:200; stroke-opacity:1; 
stroke-linecap:round; stroke-linejoin:round;">
<path d="M40300.3 30101 A1280 1280 0.0 0 0 38699.7 30101 " />
<polyline fill="none;"
points="38700,29300
40300,29300
" /> 
</g>
<g style="fill:#840000; fill-opacity:0.0; 
stroke:#840000; stroke-width:60; stroke-opacity:1; 
stroke-linecap:round; stroke-linejoin:round;">
<polyline fill="none;"
points="38800,28700
39200,28700
" /> 
<polyline fill="none;"
points="39000,28900
39000,28500
" /> 
<path d="M39500 29200
L39500 28100
" />
<path d="M39500 29800
L39500 31100
" />
</g>
<g style="fill:#008484; fill-opacity:0.0; 
stroke:#008484; stroke-width:60; stroke-opacity:1; 
stroke-linecap:round; stroke-linejoin:round;">
<path d="M41030 29800
L40750 29800
" />
<path d="M40890 29800
L40890 29300
L40840 29370
L40790 29420
L40750 29440
" />
<path d="M41460 29460
L41460 29800
" />
<path d="M41250 29460
L41250 29720
L41270 29770
L41320 29800
L41390 29800
L41440 29770
L41460 29750
" />
<path d="M41870 29530
L41700 29530
" />
<path d="M41700 29800
L41700 29300
L41940 29300
" />
</g>
<g style="fill:#008400; fill-opacity:0.0; 
stroke:#008400; stroke-width:60; stroke-opacity:1; 
stroke-linecap:round; stroke-linejoin:round;">
<path d="M41600 21000
L41600 21800
" />
<path d="M41600 24800
L41600 25500
" />
</g>
<g style="fill:#008400; fill-opacity:0.0; 
stroke:#008400; stroke-width:0; stroke-opacity:1; 
stroke-linecap:round; stroke-linejoin:round;">
</g>
<g style="fill:#008400; fill-opacity:1.0; 
stroke:#008400; stroke-width:100; stroke-opacity:1; 
stroke-linecap:round; stroke-linejoin:round;">
<circle cx="41600" cy="25500" r="200" /> 
</g>
<g style="fill:#008400; fill-opacity:1.0; 
stroke:#008400; stroke-width:60; stroke-opacity:1; 
stroke-linecap:round; stroke-linejoin:round;">
</g>
<g style="fill:#008400; fill-opacity:0.0; 
stroke:#008400; stroke-width:60; stroke-opacity:1; 
stroke-linecap:round; stroke-linejoin:round;">
<path d="M35000 25500
L35000 26800
" />
<path d="M39500 32800
L39500 31100
" />
</g> 
</svg>
