; NON-PLATED HOLES START AT T1
; THROUGH (PLATED) HOLES START AT T100
M48
INCH
T1C0.039370
T2C0.125984
T100C0.027559
%
T1
X025750Y001181
X002750Y001181
X025750Y055681
X002750Y055681
T2
X027250Y001181
X027250Y028681
X027250Y055681
X001250Y001181
X001250Y028681
X001250Y055681
T100
X013250Y015681
X024750Y051681
X013250Y034681
X024750Y028681
X016750Y020681
X024750Y047681
X018750Y048681
X008250Y039681
X024750Y012681
X018750Y032681
X024750Y031681
X013250Y049681
X011250Y040681
X013250Y014681
X024750Y050681
X020250Y040681
X013250Y033681
X018750Y009681
X024750Y027681
X018750Y047681
X008250Y038681
X018750Y031681
X013250Y048681
X016750Y015681
X013250Y013681
X008250Y041681
X016750Y034681
X013250Y032681
X024750Y026681
X003250Y039681
X018750Y011681
X024750Y010681
X016750Y049681
X013250Y047681
X016750Y014681
X013250Y012681
X008250Y040681
X016750Y033681
X013250Y031681
X013250Y050681
X024750Y025681
X011250Y034681
X024750Y044681
X003250Y038681
X018750Y010681
X013250Y027681
X016750Y048681
X006250Y039681
X016750Y013681
X011250Y049681
X003250Y041681
X016750Y032681
X024750Y005681
X024750Y024681
X011250Y033681
X020250Y014681
X024750Y043681
X024763Y019693
X013250Y026681
X016750Y047681
X006250Y038681
X016750Y012681
X024750Y039681
X011250Y048681
X003250Y040681
X016750Y031681
X016750Y050681
X006250Y041681
X011250Y032681
X020250Y013681
X024750Y042681
X018763Y019693
X008250Y034681
X016750Y027681
X024763Y018693
X013250Y025681
X024750Y038681
X011250Y047681
X024750Y003681
X008250Y049681
X006250Y040681
X011250Y031681
X020250Y012681
X024750Y041681
X011250Y050681
X018763Y018693
X008250Y033681
X016750Y026681
X013250Y024681
X011250Y027681
X024763Y020693
X024750Y002681
X008250Y048681
X013250Y039681
X024750Y040681
X008250Y032681
X016750Y025681
X011250Y026681
X020250Y007681
X018763Y020693
X020250Y026681
X013250Y019681
X008250Y047681
X003250Y049681
X013250Y038681
X008250Y031681
X016750Y024681
X008250Y050681
X013250Y041681
X011250Y025681
X020250Y006681
X024750Y035681
X020250Y025681
X008250Y027681
X013250Y018681
X003250Y048681
X016750Y039681
X006250Y049681
X013250Y021681
X013250Y040681
X011250Y024681
X020250Y005681
X024750Y034681
X020250Y024681
X008250Y026681
X016750Y019681
X017250Y007681
X024750Y053681
X003250Y047681
X016750Y038681
X006250Y048681
X011250Y039681
X013250Y020681
X024750Y049681
X003250Y050681
X016750Y041681
X020250Y039681
X024750Y014681
X020250Y004681
X024750Y033681
X008250Y025681
X016750Y018681
X024750Y052681
X006250Y047681
X011250Y038681
X016750Y021681
X024750Y048681
X016750Y040681
X018750Y049681
X020250Y038681
X024750Y013681
X006250Y050681
X018750Y033681
X024750Y032681
X011250Y041681
X008250Y024681
T00
M30
