G04 MADE WITH FRITZING*
G04 WWW.FRITZING.ORG*
G04 DOUBLE SIDED*
G04 HOLES PLATED*
G04 CONTOUR ON CENTER OF CONTOUR VECTOR*
%ASAXBY*%
%FSLAX23Y23*%
%MOIN*%
%OFA0B0*%
%SFA1.0B1.0*%
%ADD10C,0.088000*%
%ADD11C,0.135984*%
%ADD12C,0.049370*%
%ADD13C,0.062000*%
%ADD14C,0.085000*%
%ADD15R,0.085000X0.085000*%
%ADD16C,0.030000*%
%ADD17R,0.001000X0.001000*%
%LNMASK1*%
G90*
G70*
G54D10*
X3153Y3144D03*
X3053Y3144D03*
X2953Y3144D03*
X2853Y3144D03*
X2753Y3144D03*
X2653Y3144D03*
X2553Y3144D03*
X2453Y3144D03*
X2353Y3144D03*
X653Y1744D03*
X653Y1844D03*
X653Y1944D03*
X653Y2044D03*
X653Y2144D03*
X653Y2244D03*
X653Y2344D03*
X653Y2444D03*
X653Y2544D03*
X653Y2644D03*
X653Y2744D03*
X753Y944D03*
X853Y944D03*
X953Y944D03*
X1053Y944D03*
X1153Y944D03*
X1253Y944D03*
X1353Y944D03*
X1453Y944D03*
X1553Y944D03*
X1653Y944D03*
X1753Y944D03*
X1853Y944D03*
X1953Y944D03*
X2053Y944D03*
X2153Y944D03*
X2253Y944D03*
X2353Y944D03*
X753Y1544D03*
X853Y1544D03*
X953Y1544D03*
X1053Y1544D03*
X1153Y1544D03*
X1253Y1544D03*
X1353Y1544D03*
X1453Y1544D03*
X1553Y1544D03*
X1653Y1544D03*
X1753Y1544D03*
X1853Y1544D03*
X1953Y1544D03*
X2053Y1544D03*
X2153Y1544D03*
X2253Y1544D03*
X2353Y1544D03*
G54D11*
X194Y156D03*
X192Y3499D03*
X4134Y3505D03*
X4134Y154D03*
G54D12*
X3408Y1820D03*
G54D13*
X3955Y2347D03*
X3855Y2347D03*
X3755Y2347D03*
X3655Y2347D03*
X3555Y2347D03*
X3455Y2347D03*
X3355Y2347D03*
X3255Y2347D03*
X3255Y2047D03*
X3355Y2047D03*
X3455Y2047D03*
X3555Y2047D03*
X3655Y2047D03*
X3755Y2047D03*
X3855Y2047D03*
X3955Y2047D03*
X3955Y2347D03*
X3855Y2347D03*
X3755Y2347D03*
X3655Y2347D03*
X3555Y2347D03*
X3455Y2347D03*
X3355Y2347D03*
X3255Y2347D03*
X3255Y2047D03*
X3355Y2047D03*
X3455Y2047D03*
X3555Y2047D03*
X3655Y2047D03*
X3755Y2047D03*
X3855Y2047D03*
X3955Y2047D03*
X3053Y2344D03*
X2953Y2344D03*
X2853Y2344D03*
X2753Y2344D03*
X2653Y2344D03*
X2553Y2344D03*
X2453Y2344D03*
X2353Y2344D03*
X2353Y2044D03*
X2453Y2044D03*
X2553Y2044D03*
X2653Y2044D03*
X2753Y2044D03*
X2853Y2044D03*
X2953Y2044D03*
X3053Y2044D03*
X3053Y2344D03*
X2953Y2344D03*
X2853Y2344D03*
X2753Y2344D03*
X2653Y2344D03*
X2553Y2344D03*
X2453Y2344D03*
X2353Y2344D03*
X2353Y2044D03*
X2453Y2044D03*
X2553Y2044D03*
X2653Y2044D03*
X2753Y2044D03*
X2853Y2044D03*
X2953Y2044D03*
X3053Y2044D03*
G54D10*
X1753Y644D03*
X1753Y544D03*
X1753Y444D03*
X1753Y344D03*
X1753Y244D03*
X1753Y144D03*
X2653Y1044D03*
X2653Y944D03*
G54D14*
X2553Y2544D03*
X2553Y2944D03*
X2953Y2544D03*
X2953Y2944D03*
X953Y2544D03*
X1236Y2827D03*
X1153Y2344D03*
X1436Y2627D03*
X1053Y2444D03*
X1336Y2727D03*
G54D12*
X953Y1244D03*
G54D14*
X3053Y2544D03*
X3053Y2944D03*
X2853Y2544D03*
X2853Y2944D03*
G54D12*
X2753Y1344D03*
G54D14*
X1253Y2253D03*
X1536Y2536D03*
X3153Y2544D03*
X3153Y2944D03*
X2653Y2544D03*
X2653Y2944D03*
G54D12*
X2753Y1244D03*
G54D14*
X2753Y2544D03*
X2753Y2944D03*
X2453Y2544D03*
X2453Y2944D03*
G54D12*
X2053Y1044D03*
G54D14*
X853Y2644D03*
X1136Y2927D03*
X3653Y2544D03*
X3653Y2944D03*
X3553Y2544D03*
X3553Y2944D03*
G54D10*
X3353Y3144D03*
X3453Y3144D03*
X3553Y3144D03*
X3653Y3144D03*
X3753Y3144D03*
X3853Y3144D03*
X3953Y3144D03*
X4053Y3144D03*
G54D14*
X3753Y2544D03*
X3753Y2944D03*
X3953Y2544D03*
X3953Y2944D03*
X4053Y2544D03*
X4053Y2944D03*
X3853Y2544D03*
X3853Y2944D03*
X1353Y2144D03*
X1636Y2427D03*
G54D10*
X3253Y1544D03*
X3353Y1544D03*
X3453Y1544D03*
X3553Y1544D03*
X3653Y1544D03*
X3753Y1544D03*
X3853Y1544D03*
X3953Y1544D03*
G54D14*
X1453Y2044D03*
X1736Y2327D03*
X1553Y1944D03*
X1836Y2227D03*
X1653Y1844D03*
X1936Y2127D03*
X3453Y2544D03*
X3453Y2944D03*
X1753Y1744D03*
X2036Y2027D03*
X3353Y2544D03*
X3353Y2944D03*
G54D12*
X2653Y1744D03*
G54D15*
X2553Y2544D03*
X2953Y2544D03*
X3053Y2544D03*
X2853Y2544D03*
X3153Y2544D03*
X2653Y2544D03*
X2753Y2544D03*
X2453Y2544D03*
X3653Y2544D03*
X3553Y2544D03*
X3753Y2544D03*
X3953Y2544D03*
X4053Y2544D03*
X3853Y2544D03*
X3453Y2544D03*
X3353Y2544D03*
G54D16*
G36*
X953Y2583D02*
X992Y2544D01*
X953Y2505D01*
X914Y2544D01*
X953Y2583D01*
G37*
D02*
G36*
X1153Y2383D02*
X1192Y2344D01*
X1153Y2305D01*
X1114Y2344D01*
X1153Y2383D01*
G37*
D02*
G36*
X1053Y2483D02*
X1092Y2444D01*
X1053Y2405D01*
X1014Y2444D01*
X1053Y2483D01*
G37*
D02*
G36*
X1253Y2292D02*
X1292Y2253D01*
X1253Y2214D01*
X1214Y2253D01*
X1253Y2292D01*
G37*
D02*
G36*
X853Y2683D02*
X892Y2644D01*
X853Y2605D01*
X814Y2644D01*
X853Y2683D01*
G37*
D02*
G36*
X1353Y2183D02*
X1392Y2144D01*
X1353Y2105D01*
X1314Y2144D01*
X1353Y2183D01*
G37*
D02*
G36*
X1453Y2083D02*
X1492Y2044D01*
X1453Y2005D01*
X1414Y2044D01*
X1453Y2083D01*
G37*
D02*
G36*
X1553Y1983D02*
X1592Y1944D01*
X1553Y1905D01*
X1514Y1944D01*
X1553Y1983D01*
G37*
D02*
G36*
X1653Y1883D02*
X1692Y1844D01*
X1653Y1805D01*
X1614Y1844D01*
X1653Y1883D01*
G37*
D02*
G36*
X1753Y1783D02*
X1792Y1744D01*
X1753Y1705D01*
X1714Y1744D01*
X1753Y1783D01*
G37*
D02*
G54D17*
X3247Y2403D02*
X3261Y2403D01*
X3347Y2403D02*
X3361Y2403D01*
X3447Y2403D02*
X3461Y2403D01*
X3547Y2403D02*
X3561Y2403D01*
X3647Y2403D02*
X3661Y2403D01*
X3747Y2403D02*
X3761Y2403D01*
X3847Y2403D02*
X3861Y2403D01*
X3947Y2403D02*
X3961Y2403D01*
X3244Y2402D02*
X3264Y2402D01*
X3344Y2402D02*
X3364Y2402D01*
X3444Y2402D02*
X3464Y2402D01*
X3544Y2402D02*
X3564Y2402D01*
X3644Y2402D02*
X3664Y2402D01*
X3744Y2402D02*
X3764Y2402D01*
X3844Y2402D02*
X3864Y2402D01*
X3944Y2402D02*
X3964Y2402D01*
X2347Y2401D02*
X2357Y2401D01*
X2447Y2401D02*
X2457Y2401D01*
X2547Y2401D02*
X2557Y2401D01*
X2647Y2401D02*
X2657Y2401D01*
X2747Y2401D02*
X2757Y2401D01*
X2847Y2401D02*
X2857Y2401D01*
X2947Y2401D02*
X2957Y2401D01*
X3047Y2401D02*
X3057Y2401D01*
X3242Y2401D02*
X3266Y2401D01*
X3342Y2401D02*
X3366Y2401D01*
X3442Y2401D02*
X3466Y2401D01*
X3542Y2401D02*
X3566Y2401D01*
X3642Y2401D02*
X3666Y2401D01*
X3742Y2401D02*
X3766Y2401D01*
X3842Y2401D02*
X3866Y2401D01*
X3942Y2401D02*
X3966Y2401D01*
X2344Y2400D02*
X2361Y2400D01*
X2444Y2400D02*
X2461Y2400D01*
X2544Y2400D02*
X2561Y2400D01*
X2644Y2400D02*
X2661Y2400D01*
X2744Y2400D02*
X2761Y2400D01*
X2844Y2400D02*
X2861Y2400D01*
X2944Y2400D02*
X2961Y2400D01*
X3043Y2400D02*
X3061Y2400D01*
X3240Y2400D02*
X3268Y2400D01*
X3340Y2400D02*
X3368Y2400D01*
X3440Y2400D02*
X3468Y2400D01*
X3540Y2400D02*
X3568Y2400D01*
X3640Y2400D02*
X3668Y2400D01*
X3740Y2400D02*
X3768Y2400D01*
X3840Y2400D02*
X3868Y2400D01*
X3940Y2400D02*
X3968Y2400D01*
X2341Y2399D02*
X2363Y2399D01*
X2441Y2399D02*
X2463Y2399D01*
X2541Y2399D02*
X2563Y2399D01*
X2641Y2399D02*
X2663Y2399D01*
X2741Y2399D02*
X2763Y2399D01*
X2841Y2399D02*
X2863Y2399D01*
X2941Y2399D02*
X2963Y2399D01*
X3041Y2399D02*
X3063Y2399D01*
X3238Y2399D02*
X3270Y2399D01*
X3338Y2399D02*
X3370Y2399D01*
X3438Y2399D02*
X3470Y2399D01*
X3538Y2399D02*
X3570Y2399D01*
X3638Y2399D02*
X3670Y2399D01*
X3738Y2399D02*
X3770Y2399D01*
X3838Y2399D02*
X3870Y2399D01*
X3938Y2399D02*
X3970Y2399D01*
X2339Y2398D02*
X2366Y2398D01*
X2439Y2398D02*
X2466Y2398D01*
X2539Y2398D02*
X2566Y2398D01*
X2639Y2398D02*
X2666Y2398D01*
X2739Y2398D02*
X2766Y2398D01*
X2839Y2398D02*
X2865Y2398D01*
X2939Y2398D02*
X2965Y2398D01*
X3039Y2398D02*
X3065Y2398D01*
X3237Y2398D02*
X3271Y2398D01*
X3337Y2398D02*
X3371Y2398D01*
X3437Y2398D02*
X3471Y2398D01*
X3537Y2398D02*
X3571Y2398D01*
X3637Y2398D02*
X3671Y2398D01*
X3737Y2398D02*
X3771Y2398D01*
X3837Y2398D02*
X3871Y2398D01*
X3937Y2398D02*
X3971Y2398D01*
X2337Y2397D02*
X2367Y2397D01*
X2437Y2397D02*
X2467Y2397D01*
X2537Y2397D02*
X2567Y2397D01*
X2637Y2397D02*
X2667Y2397D01*
X2737Y2397D02*
X2767Y2397D01*
X2837Y2397D02*
X2867Y2397D01*
X2937Y2397D02*
X2967Y2397D01*
X3037Y2397D02*
X3067Y2397D01*
X3235Y2397D02*
X3273Y2397D01*
X3335Y2397D02*
X3373Y2397D01*
X3435Y2397D02*
X3473Y2397D01*
X3535Y2397D02*
X3573Y2397D01*
X3635Y2397D02*
X3672Y2397D01*
X3735Y2397D02*
X3772Y2397D01*
X3835Y2397D02*
X3872Y2397D01*
X3935Y2397D02*
X3972Y2397D01*
X2336Y2396D02*
X2369Y2396D01*
X2436Y2396D02*
X2469Y2396D01*
X2536Y2396D02*
X2569Y2396D01*
X2636Y2396D02*
X2669Y2396D01*
X2736Y2396D02*
X2769Y2396D01*
X2836Y2396D02*
X2869Y2396D01*
X2936Y2396D02*
X2969Y2396D01*
X3036Y2396D02*
X3069Y2396D01*
X3234Y2396D02*
X3274Y2396D01*
X3334Y2396D02*
X3374Y2396D01*
X3434Y2396D02*
X3474Y2396D01*
X3534Y2396D02*
X3574Y2396D01*
X3634Y2396D02*
X3674Y2396D01*
X3734Y2396D02*
X3774Y2396D01*
X3834Y2396D02*
X3874Y2396D01*
X3934Y2396D02*
X3974Y2396D01*
X2334Y2395D02*
X2370Y2395D01*
X2434Y2395D02*
X2470Y2395D01*
X2534Y2395D02*
X2570Y2395D01*
X2634Y2395D02*
X2670Y2395D01*
X2734Y2395D02*
X2770Y2395D01*
X2834Y2395D02*
X2870Y2395D01*
X2934Y2395D02*
X2970Y2395D01*
X3034Y2395D02*
X3070Y2395D01*
X3233Y2395D02*
X3275Y2395D01*
X3333Y2395D02*
X3375Y2395D01*
X3433Y2395D02*
X3475Y2395D01*
X3533Y2395D02*
X3575Y2395D01*
X3633Y2395D02*
X3675Y2395D01*
X3733Y2395D02*
X3775Y2395D01*
X3833Y2395D02*
X3875Y2395D01*
X3933Y2395D02*
X3975Y2395D01*
X2333Y2394D02*
X2371Y2394D01*
X2433Y2394D02*
X2471Y2394D01*
X2533Y2394D02*
X2571Y2394D01*
X2633Y2394D02*
X2671Y2394D01*
X2733Y2394D02*
X2771Y2394D01*
X2833Y2394D02*
X2871Y2394D01*
X2933Y2394D02*
X2971Y2394D01*
X3033Y2394D02*
X3071Y2394D01*
X3232Y2394D02*
X3276Y2394D01*
X3332Y2394D02*
X3376Y2394D01*
X3432Y2394D02*
X3476Y2394D01*
X3532Y2394D02*
X3576Y2394D01*
X3632Y2394D02*
X3676Y2394D01*
X3732Y2394D02*
X3776Y2394D01*
X3832Y2394D02*
X3876Y2394D01*
X3932Y2394D02*
X3976Y2394D01*
X2332Y2393D02*
X2373Y2393D01*
X2432Y2393D02*
X2473Y2393D01*
X2532Y2393D02*
X2573Y2393D01*
X2632Y2393D02*
X2673Y2393D01*
X2732Y2393D02*
X2773Y2393D01*
X2832Y2393D02*
X2872Y2393D01*
X2932Y2393D02*
X2972Y2393D01*
X3032Y2393D02*
X3072Y2393D01*
X3231Y2393D02*
X3277Y2393D01*
X3331Y2393D02*
X3377Y2393D01*
X3431Y2393D02*
X3477Y2393D01*
X3531Y2393D02*
X3577Y2393D01*
X3631Y2393D02*
X3677Y2393D01*
X3731Y2393D02*
X3777Y2393D01*
X3831Y2393D02*
X3877Y2393D01*
X3931Y2393D02*
X3977Y2393D01*
X2331Y2392D02*
X2374Y2392D01*
X2431Y2392D02*
X2474Y2392D01*
X2531Y2392D02*
X2574Y2392D01*
X2631Y2392D02*
X2674Y2392D01*
X2731Y2392D02*
X2774Y2392D01*
X2831Y2392D02*
X2874Y2392D01*
X2931Y2392D02*
X2974Y2392D01*
X3031Y2392D02*
X3074Y2392D01*
X3230Y2392D02*
X3278Y2392D01*
X3330Y2392D02*
X3378Y2392D01*
X3430Y2392D02*
X3477Y2392D01*
X3530Y2392D02*
X3577Y2392D01*
X3630Y2392D02*
X3677Y2392D01*
X3730Y2392D02*
X3777Y2392D01*
X3830Y2392D02*
X3877Y2392D01*
X3930Y2392D02*
X3977Y2392D01*
X2330Y2391D02*
X2375Y2391D01*
X2430Y2391D02*
X2475Y2391D01*
X2530Y2391D02*
X2574Y2391D01*
X2630Y2391D02*
X2674Y2391D01*
X2730Y2391D02*
X2774Y2391D01*
X2830Y2391D02*
X2874Y2391D01*
X2930Y2391D02*
X2974Y2391D01*
X3030Y2391D02*
X3074Y2391D01*
X3230Y2391D02*
X3278Y2391D01*
X3330Y2391D02*
X3378Y2391D01*
X3430Y2391D02*
X3478Y2391D01*
X3530Y2391D02*
X3578Y2391D01*
X3630Y2391D02*
X3678Y2391D01*
X3730Y2391D02*
X3778Y2391D01*
X3830Y2391D02*
X3878Y2391D01*
X3930Y2391D02*
X3978Y2391D01*
X2329Y2390D02*
X2375Y2390D01*
X2429Y2390D02*
X2475Y2390D01*
X2529Y2390D02*
X2575Y2390D01*
X2629Y2390D02*
X2675Y2390D01*
X2729Y2390D02*
X2775Y2390D01*
X2829Y2390D02*
X2875Y2390D01*
X2929Y2390D02*
X2975Y2390D01*
X3029Y2390D02*
X3075Y2390D01*
X3229Y2390D02*
X3279Y2390D01*
X3329Y2390D02*
X3379Y2390D01*
X3429Y2390D02*
X3479Y2390D01*
X3529Y2390D02*
X3579Y2390D01*
X3629Y2390D02*
X3679Y2390D01*
X3729Y2390D02*
X3779Y2390D01*
X3829Y2390D02*
X3879Y2390D01*
X3929Y2390D02*
X3979Y2390D01*
X2328Y2389D02*
X2376Y2389D01*
X2428Y2389D02*
X2476Y2389D01*
X2528Y2389D02*
X2576Y2389D01*
X2628Y2389D02*
X2676Y2389D01*
X2728Y2389D02*
X2776Y2389D01*
X2828Y2389D02*
X2876Y2389D01*
X2928Y2389D02*
X2976Y2389D01*
X3028Y2389D02*
X3076Y2389D01*
X3228Y2389D02*
X3280Y2389D01*
X3328Y2389D02*
X3380Y2389D01*
X3428Y2389D02*
X3480Y2389D01*
X3528Y2389D02*
X3580Y2389D01*
X3628Y2389D02*
X3680Y2389D01*
X3728Y2389D02*
X3780Y2389D01*
X3828Y2389D02*
X3880Y2389D01*
X3928Y2389D02*
X3980Y2389D01*
X2328Y2388D02*
X2377Y2388D01*
X2428Y2388D02*
X2477Y2388D01*
X2527Y2388D02*
X2577Y2388D01*
X2627Y2388D02*
X2677Y2388D01*
X2727Y2388D02*
X2777Y2388D01*
X2827Y2388D02*
X2877Y2388D01*
X2927Y2388D02*
X2977Y2388D01*
X3027Y2388D02*
X3077Y2388D01*
X3228Y2388D02*
X3280Y2388D01*
X3328Y2388D02*
X3380Y2388D01*
X3428Y2388D02*
X3480Y2388D01*
X3528Y2388D02*
X3580Y2388D01*
X3628Y2388D02*
X3680Y2388D01*
X3728Y2388D02*
X3780Y2388D01*
X3828Y2388D02*
X3880Y2388D01*
X3928Y2388D02*
X3980Y2388D01*
X2327Y2387D02*
X2378Y2387D01*
X2427Y2387D02*
X2478Y2387D01*
X2527Y2387D02*
X2578Y2387D01*
X2627Y2387D02*
X2678Y2387D01*
X2727Y2387D02*
X2778Y2387D01*
X2827Y2387D02*
X2878Y2387D01*
X2927Y2387D02*
X2978Y2387D01*
X3027Y2387D02*
X3078Y2387D01*
X3227Y2387D02*
X3281Y2387D01*
X3327Y2387D02*
X3381Y2387D01*
X3427Y2387D02*
X3481Y2387D01*
X3527Y2387D02*
X3581Y2387D01*
X3627Y2387D02*
X3681Y2387D01*
X3727Y2387D02*
X3781Y2387D01*
X3827Y2387D02*
X3881Y2387D01*
X3927Y2387D02*
X3981Y2387D01*
X2326Y2386D02*
X2378Y2386D01*
X2426Y2386D02*
X2478Y2386D01*
X2526Y2386D02*
X2578Y2386D01*
X2626Y2386D02*
X2678Y2386D01*
X2726Y2386D02*
X2778Y2386D01*
X2826Y2386D02*
X2878Y2386D01*
X2926Y2386D02*
X2978Y2386D01*
X3026Y2386D02*
X3078Y2386D01*
X3227Y2386D02*
X3281Y2386D01*
X3327Y2386D02*
X3381Y2386D01*
X3427Y2386D02*
X3481Y2386D01*
X3527Y2386D02*
X3581Y2386D01*
X3627Y2386D02*
X3681Y2386D01*
X3727Y2386D02*
X3781Y2386D01*
X3827Y2386D02*
X3881Y2386D01*
X3927Y2386D02*
X3981Y2386D01*
X2326Y2385D02*
X2379Y2385D01*
X2426Y2385D02*
X2479Y2385D01*
X2526Y2385D02*
X2579Y2385D01*
X2626Y2385D02*
X2679Y2385D01*
X2726Y2385D02*
X2779Y2385D01*
X2826Y2385D02*
X2879Y2385D01*
X2926Y2385D02*
X2979Y2385D01*
X3026Y2385D02*
X3079Y2385D01*
X3226Y2385D02*
X3282Y2385D01*
X3326Y2385D02*
X3382Y2385D01*
X3426Y2385D02*
X3482Y2385D01*
X3526Y2385D02*
X3582Y2385D01*
X3626Y2385D02*
X3682Y2385D01*
X3726Y2385D02*
X3782Y2385D01*
X3826Y2385D02*
X3882Y2385D01*
X3926Y2385D02*
X3982Y2385D01*
X2325Y2384D02*
X2379Y2384D01*
X2425Y2384D02*
X2479Y2384D01*
X2525Y2384D02*
X2579Y2384D01*
X2625Y2384D02*
X2679Y2384D01*
X2725Y2384D02*
X2779Y2384D01*
X2825Y2384D02*
X2879Y2384D01*
X2925Y2384D02*
X2979Y2384D01*
X3025Y2384D02*
X3079Y2384D01*
X3226Y2384D02*
X3282Y2384D01*
X3326Y2384D02*
X3382Y2384D01*
X3426Y2384D02*
X3482Y2384D01*
X3526Y2384D02*
X3582Y2384D01*
X3626Y2384D02*
X3682Y2384D01*
X3726Y2384D02*
X3782Y2384D01*
X3826Y2384D02*
X3882Y2384D01*
X3926Y2384D02*
X3982Y2384D01*
X2325Y2383D02*
X2380Y2383D01*
X2425Y2383D02*
X2480Y2383D01*
X2525Y2383D02*
X2580Y2383D01*
X2625Y2383D02*
X2680Y2383D01*
X2725Y2383D02*
X2780Y2383D01*
X2825Y2383D02*
X2880Y2383D01*
X2925Y2383D02*
X2980Y2383D01*
X3025Y2383D02*
X3080Y2383D01*
X3225Y2383D02*
X3283Y2383D01*
X3325Y2383D02*
X3383Y2383D01*
X3425Y2383D02*
X3483Y2383D01*
X3525Y2383D02*
X3583Y2383D01*
X3625Y2383D02*
X3683Y2383D01*
X3725Y2383D02*
X3783Y2383D01*
X3825Y2383D02*
X3883Y2383D01*
X3925Y2383D02*
X3983Y2383D01*
X2324Y2382D02*
X2380Y2382D01*
X2424Y2382D02*
X2480Y2382D01*
X2524Y2382D02*
X2580Y2382D01*
X2624Y2382D02*
X2680Y2382D01*
X2724Y2382D02*
X2780Y2382D01*
X2824Y2382D02*
X2880Y2382D01*
X2924Y2382D02*
X2980Y2382D01*
X3024Y2382D02*
X3080Y2382D01*
X3225Y2382D02*
X3283Y2382D01*
X3325Y2382D02*
X3383Y2382D01*
X3425Y2382D02*
X3483Y2382D01*
X3525Y2382D02*
X3583Y2382D01*
X3625Y2382D02*
X3683Y2382D01*
X3725Y2382D02*
X3783Y2382D01*
X3825Y2382D02*
X3883Y2382D01*
X3925Y2382D02*
X3983Y2382D01*
X2324Y2381D02*
X2381Y2381D01*
X2424Y2381D02*
X2481Y2381D01*
X2524Y2381D02*
X2581Y2381D01*
X2624Y2381D02*
X2681Y2381D01*
X2724Y2381D02*
X2781Y2381D01*
X2824Y2381D02*
X2881Y2381D01*
X2924Y2381D02*
X2981Y2381D01*
X3024Y2381D02*
X3081Y2381D01*
X3225Y2381D02*
X3283Y2381D01*
X3325Y2381D02*
X3383Y2381D01*
X3425Y2381D02*
X3483Y2381D01*
X3525Y2381D02*
X3583Y2381D01*
X3625Y2381D02*
X3683Y2381D01*
X3725Y2381D02*
X3783Y2381D01*
X3825Y2381D02*
X3883Y2381D01*
X3925Y2381D02*
X3983Y2381D01*
X2323Y2380D02*
X2381Y2380D01*
X2423Y2380D02*
X2481Y2380D01*
X2523Y2380D02*
X2581Y2380D01*
X2623Y2380D02*
X2681Y2380D01*
X2723Y2380D02*
X2781Y2380D01*
X2823Y2380D02*
X2881Y2380D01*
X2923Y2380D02*
X2981Y2380D01*
X3023Y2380D02*
X3081Y2380D01*
X3224Y2380D02*
X3284Y2380D01*
X3324Y2380D02*
X3384Y2380D01*
X3424Y2380D02*
X3484Y2380D01*
X3524Y2380D02*
X3584Y2380D01*
X3624Y2380D02*
X3684Y2380D01*
X3724Y2380D02*
X3784Y2380D01*
X3824Y2380D02*
X3884Y2380D01*
X3924Y2380D02*
X3984Y2380D01*
X2323Y2379D02*
X2381Y2379D01*
X2423Y2379D02*
X2481Y2379D01*
X2523Y2379D02*
X2581Y2379D01*
X2623Y2379D02*
X2681Y2379D01*
X2723Y2379D02*
X2781Y2379D01*
X2823Y2379D02*
X2881Y2379D01*
X2923Y2379D02*
X2981Y2379D01*
X3023Y2379D02*
X3081Y2379D01*
X3224Y2379D02*
X3284Y2379D01*
X3324Y2379D02*
X3384Y2379D01*
X3424Y2379D02*
X3484Y2379D01*
X3524Y2379D02*
X3584Y2379D01*
X3624Y2379D02*
X3684Y2379D01*
X3724Y2379D02*
X3784Y2379D01*
X3824Y2379D02*
X3884Y2379D01*
X3924Y2379D02*
X3984Y2379D01*
X2323Y2378D02*
X2382Y2378D01*
X2423Y2378D02*
X2482Y2378D01*
X2523Y2378D02*
X2582Y2378D01*
X2623Y2378D02*
X2682Y2378D01*
X2723Y2378D02*
X2782Y2378D01*
X2823Y2378D02*
X2882Y2378D01*
X2923Y2378D02*
X2982Y2378D01*
X3023Y2378D02*
X3082Y2378D01*
X3224Y2378D02*
X3284Y2378D01*
X3324Y2378D02*
X3384Y2378D01*
X3424Y2378D02*
X3484Y2378D01*
X3524Y2378D02*
X3584Y2378D01*
X3624Y2378D02*
X3684Y2378D01*
X3724Y2378D02*
X3784Y2378D01*
X3824Y2378D02*
X3884Y2378D01*
X3924Y2378D02*
X3984Y2378D01*
X2322Y2377D02*
X2382Y2377D01*
X2422Y2377D02*
X2482Y2377D01*
X2522Y2377D02*
X2582Y2377D01*
X2622Y2377D02*
X2682Y2377D01*
X2722Y2377D02*
X2782Y2377D01*
X2822Y2377D02*
X2882Y2377D01*
X2922Y2377D02*
X2982Y2377D01*
X3022Y2377D02*
X3082Y2377D01*
X3224Y2377D02*
X3284Y2377D01*
X3324Y2377D02*
X3384Y2377D01*
X3424Y2377D02*
X3484Y2377D01*
X3524Y2377D02*
X3584Y2377D01*
X3624Y2377D02*
X3684Y2377D01*
X3724Y2377D02*
X3784Y2377D01*
X3824Y2377D02*
X3884Y2377D01*
X3924Y2377D02*
X3984Y2377D01*
X2322Y2376D02*
X2382Y2376D01*
X2422Y2376D02*
X2482Y2376D01*
X2522Y2376D02*
X2582Y2376D01*
X2622Y2376D02*
X2682Y2376D01*
X2722Y2376D02*
X2782Y2376D01*
X2822Y2376D02*
X2882Y2376D01*
X2922Y2376D02*
X2982Y2376D01*
X3022Y2376D02*
X3082Y2376D01*
X3224Y2376D02*
X3284Y2376D01*
X3324Y2376D02*
X3384Y2376D01*
X3424Y2376D02*
X3484Y2376D01*
X3524Y2376D02*
X3584Y2376D01*
X3624Y2376D02*
X3684Y2376D01*
X3724Y2376D02*
X3784Y2376D01*
X3824Y2376D02*
X3884Y2376D01*
X3924Y2376D02*
X3984Y2376D01*
X2322Y2375D02*
X2382Y2375D01*
X2422Y2375D02*
X2482Y2375D01*
X2522Y2375D02*
X2582Y2375D01*
X2622Y2375D02*
X2682Y2375D01*
X2722Y2375D02*
X2782Y2375D01*
X2822Y2375D02*
X2882Y2375D01*
X2922Y2375D02*
X2982Y2375D01*
X3022Y2375D02*
X3082Y2375D01*
X3224Y2375D02*
X3284Y2375D01*
X3324Y2375D02*
X3384Y2375D01*
X3424Y2375D02*
X3484Y2375D01*
X3524Y2375D02*
X3584Y2375D01*
X3624Y2375D02*
X3684Y2375D01*
X3724Y2375D02*
X3784Y2375D01*
X3823Y2375D02*
X3884Y2375D01*
X3923Y2375D02*
X3984Y2375D01*
X2322Y2374D02*
X2382Y2374D01*
X2422Y2374D02*
X2482Y2374D01*
X2522Y2374D02*
X2582Y2374D01*
X2622Y2374D02*
X2682Y2374D01*
X2722Y2374D02*
X2782Y2374D01*
X2822Y2374D02*
X2882Y2374D01*
X2922Y2374D02*
X2982Y2374D01*
X3022Y2374D02*
X3082Y2374D01*
X3223Y2374D02*
X3284Y2374D01*
X3323Y2374D02*
X3384Y2374D01*
X3423Y2374D02*
X3484Y2374D01*
X3523Y2374D02*
X3584Y2374D01*
X3623Y2374D02*
X3684Y2374D01*
X3723Y2374D02*
X3784Y2374D01*
X3823Y2374D02*
X3884Y2374D01*
X3923Y2374D02*
X3984Y2374D01*
X2322Y2373D02*
X2383Y2373D01*
X2422Y2373D02*
X2483Y2373D01*
X2522Y2373D02*
X2583Y2373D01*
X2622Y2373D02*
X2683Y2373D01*
X2722Y2373D02*
X2783Y2373D01*
X2822Y2373D02*
X2883Y2373D01*
X2922Y2373D02*
X2983Y2373D01*
X3022Y2373D02*
X3083Y2373D01*
X3223Y2373D02*
X3284Y2373D01*
X3323Y2373D02*
X3384Y2373D01*
X3423Y2373D02*
X3484Y2373D01*
X3523Y2373D02*
X3584Y2373D01*
X3623Y2373D02*
X3684Y2373D01*
X3723Y2373D02*
X3784Y2373D01*
X3823Y2373D02*
X3884Y2373D01*
X3923Y2373D02*
X3984Y2373D01*
X2322Y2372D02*
X2383Y2372D01*
X2422Y2372D02*
X2483Y2372D01*
X2522Y2372D02*
X2583Y2372D01*
X2622Y2372D02*
X2683Y2372D01*
X2722Y2372D02*
X2783Y2372D01*
X2822Y2372D02*
X2883Y2372D01*
X2922Y2372D02*
X2983Y2372D01*
X3022Y2372D02*
X3083Y2372D01*
X3223Y2372D02*
X3284Y2372D01*
X3323Y2372D02*
X3384Y2372D01*
X3423Y2372D02*
X3484Y2372D01*
X3523Y2372D02*
X3584Y2372D01*
X3623Y2372D02*
X3684Y2372D01*
X3723Y2372D02*
X3784Y2372D01*
X3823Y2372D02*
X3884Y2372D01*
X3923Y2372D02*
X3984Y2372D01*
X2322Y2371D02*
X2383Y2371D01*
X2422Y2371D02*
X2483Y2371D01*
X2522Y2371D02*
X2583Y2371D01*
X2622Y2371D02*
X2683Y2371D01*
X2722Y2371D02*
X2783Y2371D01*
X2822Y2371D02*
X2883Y2371D01*
X2922Y2371D02*
X2983Y2371D01*
X3022Y2371D02*
X3083Y2371D01*
X3223Y2371D02*
X3284Y2371D01*
X3323Y2371D02*
X3384Y2371D01*
X3423Y2371D02*
X3484Y2371D01*
X3523Y2371D02*
X3584Y2371D01*
X3623Y2371D02*
X3684Y2371D01*
X3723Y2371D02*
X3784Y2371D01*
X3823Y2371D02*
X3884Y2371D01*
X3923Y2371D02*
X3984Y2371D01*
X2322Y2370D02*
X2383Y2370D01*
X2422Y2370D02*
X2483Y2370D01*
X2522Y2370D02*
X2583Y2370D01*
X2622Y2370D02*
X2683Y2370D01*
X2722Y2370D02*
X2783Y2370D01*
X2822Y2370D02*
X2883Y2370D01*
X2922Y2370D02*
X2983Y2370D01*
X3022Y2370D02*
X3083Y2370D01*
X3223Y2370D02*
X3284Y2370D01*
X3323Y2370D02*
X3384Y2370D01*
X3423Y2370D02*
X3484Y2370D01*
X3523Y2370D02*
X3584Y2370D01*
X3623Y2370D02*
X3684Y2370D01*
X3723Y2370D02*
X3784Y2370D01*
X3823Y2370D02*
X3884Y2370D01*
X3923Y2370D02*
X3984Y2370D01*
X2322Y2369D02*
X2383Y2369D01*
X2422Y2369D02*
X2483Y2369D01*
X2522Y2369D02*
X2583Y2369D01*
X2622Y2369D02*
X2683Y2369D01*
X2722Y2369D02*
X2783Y2369D01*
X2822Y2369D02*
X2883Y2369D01*
X2922Y2369D02*
X2983Y2369D01*
X3022Y2369D02*
X3083Y2369D01*
X3223Y2369D02*
X3284Y2369D01*
X3323Y2369D02*
X3384Y2369D01*
X3423Y2369D02*
X3484Y2369D01*
X3523Y2369D02*
X3584Y2369D01*
X3623Y2369D02*
X3684Y2369D01*
X3723Y2369D02*
X3784Y2369D01*
X3823Y2369D02*
X3884Y2369D01*
X3923Y2369D02*
X3984Y2369D01*
X2322Y2368D02*
X2383Y2368D01*
X2422Y2368D02*
X2483Y2368D01*
X2522Y2368D02*
X2583Y2368D01*
X2622Y2368D02*
X2683Y2368D01*
X2722Y2368D02*
X2783Y2368D01*
X2822Y2368D02*
X2883Y2368D01*
X2922Y2368D02*
X2983Y2368D01*
X3022Y2368D02*
X3083Y2368D01*
X3223Y2368D02*
X3284Y2368D01*
X3323Y2368D02*
X3384Y2368D01*
X3423Y2368D02*
X3484Y2368D01*
X3523Y2368D02*
X3584Y2368D01*
X3623Y2368D02*
X3684Y2368D01*
X3723Y2368D02*
X3784Y2368D01*
X3823Y2368D02*
X3884Y2368D01*
X3923Y2368D02*
X3984Y2368D01*
X2322Y2367D02*
X2383Y2367D01*
X2422Y2367D02*
X2483Y2367D01*
X2522Y2367D02*
X2583Y2367D01*
X2622Y2367D02*
X2683Y2367D01*
X2722Y2367D02*
X2783Y2367D01*
X2822Y2367D02*
X2883Y2367D01*
X2922Y2367D02*
X2983Y2367D01*
X3022Y2367D02*
X3083Y2367D01*
X3223Y2367D02*
X3284Y2367D01*
X3323Y2367D02*
X3384Y2367D01*
X3423Y2367D02*
X3484Y2367D01*
X3523Y2367D02*
X3584Y2367D01*
X3623Y2367D02*
X3684Y2367D01*
X3723Y2367D02*
X3784Y2367D01*
X3823Y2367D02*
X3884Y2367D01*
X3923Y2367D02*
X3984Y2367D01*
X2322Y2366D02*
X2383Y2366D01*
X2422Y2366D02*
X2483Y2366D01*
X2522Y2366D02*
X2583Y2366D01*
X2622Y2366D02*
X2683Y2366D01*
X2722Y2366D02*
X2783Y2366D01*
X2822Y2366D02*
X2883Y2366D01*
X2922Y2366D02*
X2983Y2366D01*
X3022Y2366D02*
X3083Y2366D01*
X3223Y2366D02*
X3284Y2366D01*
X3323Y2366D02*
X3384Y2366D01*
X3423Y2366D02*
X3484Y2366D01*
X3523Y2366D02*
X3584Y2366D01*
X3623Y2366D02*
X3684Y2366D01*
X3723Y2366D02*
X3784Y2366D01*
X3823Y2366D02*
X3884Y2366D01*
X3923Y2366D02*
X3984Y2366D01*
X2322Y2365D02*
X2383Y2365D01*
X2422Y2365D02*
X2483Y2365D01*
X2522Y2365D02*
X2583Y2365D01*
X2622Y2365D02*
X2683Y2365D01*
X2722Y2365D02*
X2783Y2365D01*
X2822Y2365D02*
X2883Y2365D01*
X2922Y2365D02*
X2983Y2365D01*
X3022Y2365D02*
X3083Y2365D01*
X3223Y2365D02*
X3284Y2365D01*
X3323Y2365D02*
X3384Y2365D01*
X3423Y2365D02*
X3484Y2365D01*
X3523Y2365D02*
X3584Y2365D01*
X3623Y2365D02*
X3684Y2365D01*
X3723Y2365D02*
X3784Y2365D01*
X3823Y2365D02*
X3884Y2365D01*
X3923Y2365D02*
X3984Y2365D01*
X2322Y2364D02*
X2383Y2364D01*
X2422Y2364D02*
X2483Y2364D01*
X2522Y2364D02*
X2583Y2364D01*
X2622Y2364D02*
X2683Y2364D01*
X2722Y2364D02*
X2783Y2364D01*
X2822Y2364D02*
X2883Y2364D01*
X2922Y2364D02*
X2983Y2364D01*
X3022Y2364D02*
X3083Y2364D01*
X3223Y2364D02*
X3284Y2364D01*
X3323Y2364D02*
X3384Y2364D01*
X3423Y2364D02*
X3484Y2364D01*
X3523Y2364D02*
X3584Y2364D01*
X3623Y2364D02*
X3684Y2364D01*
X3723Y2364D02*
X3784Y2364D01*
X3823Y2364D02*
X3884Y2364D01*
X3923Y2364D02*
X3984Y2364D01*
X2322Y2363D02*
X2383Y2363D01*
X2422Y2363D02*
X2483Y2363D01*
X2522Y2363D02*
X2583Y2363D01*
X2622Y2363D02*
X2683Y2363D01*
X2722Y2363D02*
X2783Y2363D01*
X2822Y2363D02*
X2883Y2363D01*
X2922Y2363D02*
X2983Y2363D01*
X3022Y2363D02*
X3083Y2363D01*
X3223Y2363D02*
X3284Y2363D01*
X3323Y2363D02*
X3384Y2363D01*
X3423Y2363D02*
X3484Y2363D01*
X3523Y2363D02*
X3584Y2363D01*
X3623Y2363D02*
X3684Y2363D01*
X3723Y2363D02*
X3784Y2363D01*
X3823Y2363D02*
X3884Y2363D01*
X3923Y2363D02*
X3984Y2363D01*
X2322Y2362D02*
X2383Y2362D01*
X2422Y2362D02*
X2483Y2362D01*
X2522Y2362D02*
X2583Y2362D01*
X2622Y2362D02*
X2683Y2362D01*
X2722Y2362D02*
X2783Y2362D01*
X2822Y2362D02*
X2883Y2362D01*
X2922Y2362D02*
X2983Y2362D01*
X3022Y2362D02*
X3083Y2362D01*
X3223Y2362D02*
X3284Y2362D01*
X3323Y2362D02*
X3384Y2362D01*
X3423Y2362D02*
X3484Y2362D01*
X3523Y2362D02*
X3584Y2362D01*
X3623Y2362D02*
X3684Y2362D01*
X3723Y2362D02*
X3784Y2362D01*
X3823Y2362D02*
X3884Y2362D01*
X3923Y2362D02*
X3984Y2362D01*
X2322Y2361D02*
X2383Y2361D01*
X2422Y2361D02*
X2483Y2361D01*
X2522Y2361D02*
X2583Y2361D01*
X2622Y2361D02*
X2683Y2361D01*
X2722Y2361D02*
X2783Y2361D01*
X2822Y2361D02*
X2883Y2361D01*
X2922Y2361D02*
X2983Y2361D01*
X3022Y2361D02*
X3083Y2361D01*
X3223Y2361D02*
X3284Y2361D01*
X3323Y2361D02*
X3384Y2361D01*
X3423Y2361D02*
X3484Y2361D01*
X3523Y2361D02*
X3584Y2361D01*
X3623Y2361D02*
X3684Y2361D01*
X3723Y2361D02*
X3784Y2361D01*
X3823Y2361D02*
X3884Y2361D01*
X3923Y2361D02*
X3984Y2361D01*
X2322Y2360D02*
X2383Y2360D01*
X2422Y2360D02*
X2483Y2360D01*
X2522Y2360D02*
X2583Y2360D01*
X2622Y2360D02*
X2683Y2360D01*
X2722Y2360D02*
X2783Y2360D01*
X2822Y2360D02*
X2883Y2360D01*
X2922Y2360D02*
X2983Y2360D01*
X3022Y2360D02*
X3083Y2360D01*
X3223Y2360D02*
X3284Y2360D01*
X3323Y2360D02*
X3384Y2360D01*
X3423Y2360D02*
X3484Y2360D01*
X3523Y2360D02*
X3584Y2360D01*
X3623Y2360D02*
X3684Y2360D01*
X3723Y2360D02*
X3784Y2360D01*
X3823Y2360D02*
X3884Y2360D01*
X3923Y2360D02*
X3984Y2360D01*
X2322Y2359D02*
X2383Y2359D01*
X2422Y2359D02*
X2483Y2359D01*
X2522Y2359D02*
X2583Y2359D01*
X2622Y2359D02*
X2683Y2359D01*
X2722Y2359D02*
X2783Y2359D01*
X2822Y2359D02*
X2883Y2359D01*
X2922Y2359D02*
X2983Y2359D01*
X3022Y2359D02*
X3083Y2359D01*
X3223Y2359D02*
X3284Y2359D01*
X3323Y2359D02*
X3384Y2359D01*
X3423Y2359D02*
X3484Y2359D01*
X3523Y2359D02*
X3584Y2359D01*
X3623Y2359D02*
X3684Y2359D01*
X3723Y2359D02*
X3784Y2359D01*
X3823Y2359D02*
X3884Y2359D01*
X3923Y2359D02*
X3984Y2359D01*
X2322Y2358D02*
X2383Y2358D01*
X2422Y2358D02*
X2483Y2358D01*
X2522Y2358D02*
X2583Y2358D01*
X2622Y2358D02*
X2683Y2358D01*
X2722Y2358D02*
X2783Y2358D01*
X2822Y2358D02*
X2883Y2358D01*
X2922Y2358D02*
X2983Y2358D01*
X3022Y2358D02*
X3083Y2358D01*
X3223Y2358D02*
X3284Y2358D01*
X3323Y2358D02*
X3384Y2358D01*
X3423Y2358D02*
X3484Y2358D01*
X3523Y2358D02*
X3584Y2358D01*
X3623Y2358D02*
X3684Y2358D01*
X3723Y2358D02*
X3784Y2358D01*
X3823Y2358D02*
X3884Y2358D01*
X3923Y2358D02*
X3984Y2358D01*
X2322Y2357D02*
X2383Y2357D01*
X2422Y2357D02*
X2483Y2357D01*
X2522Y2357D02*
X2583Y2357D01*
X2622Y2357D02*
X2683Y2357D01*
X2722Y2357D02*
X2783Y2357D01*
X2822Y2357D02*
X2883Y2357D01*
X2922Y2357D02*
X2983Y2357D01*
X3022Y2357D02*
X3083Y2357D01*
X3223Y2357D02*
X3248Y2357D01*
X3260Y2357D02*
X3284Y2357D01*
X3323Y2357D02*
X3348Y2357D01*
X3360Y2357D02*
X3384Y2357D01*
X3423Y2357D02*
X3448Y2357D01*
X3460Y2357D02*
X3484Y2357D01*
X3523Y2357D02*
X3548Y2357D01*
X3560Y2357D02*
X3584Y2357D01*
X3623Y2357D02*
X3648Y2357D01*
X3660Y2357D02*
X3684Y2357D01*
X3723Y2357D02*
X3748Y2357D01*
X3760Y2357D02*
X3784Y2357D01*
X3823Y2357D02*
X3848Y2357D01*
X3860Y2357D02*
X3884Y2357D01*
X3923Y2357D02*
X3948Y2357D01*
X3960Y2357D02*
X3984Y2357D01*
X2322Y2356D02*
X2383Y2356D01*
X2422Y2356D02*
X2483Y2356D01*
X2522Y2356D02*
X2583Y2356D01*
X2622Y2356D02*
X2683Y2356D01*
X2722Y2356D02*
X2783Y2356D01*
X2822Y2356D02*
X2883Y2356D01*
X2922Y2356D02*
X2983Y2356D01*
X3022Y2356D02*
X3083Y2356D01*
X3223Y2356D02*
X3247Y2356D01*
X3261Y2356D02*
X3284Y2356D01*
X3323Y2356D02*
X3347Y2356D01*
X3361Y2356D02*
X3384Y2356D01*
X3423Y2356D02*
X3447Y2356D01*
X3461Y2356D02*
X3484Y2356D01*
X3523Y2356D02*
X3547Y2356D01*
X3561Y2356D02*
X3584Y2356D01*
X3623Y2356D02*
X3647Y2356D01*
X3661Y2356D02*
X3684Y2356D01*
X3723Y2356D02*
X3747Y2356D01*
X3761Y2356D02*
X3784Y2356D01*
X3823Y2356D02*
X3847Y2356D01*
X3861Y2356D02*
X3884Y2356D01*
X3923Y2356D02*
X3947Y2356D01*
X3961Y2356D02*
X3984Y2356D01*
X2322Y2355D02*
X2348Y2355D01*
X2357Y2355D02*
X2383Y2355D01*
X2422Y2355D02*
X2448Y2355D01*
X2457Y2355D02*
X2483Y2355D01*
X2522Y2355D02*
X2548Y2355D01*
X2557Y2355D02*
X2583Y2355D01*
X2622Y2355D02*
X2648Y2355D01*
X2657Y2355D02*
X2683Y2355D01*
X2722Y2355D02*
X2748Y2355D01*
X2757Y2355D02*
X2783Y2355D01*
X2822Y2355D02*
X2848Y2355D01*
X2857Y2355D02*
X2883Y2355D01*
X2922Y2355D02*
X2948Y2355D01*
X2957Y2355D02*
X2983Y2355D01*
X3022Y2355D02*
X3048Y2355D01*
X3057Y2355D02*
X3083Y2355D01*
X3223Y2355D02*
X3245Y2355D01*
X3263Y2355D02*
X3284Y2355D01*
X3323Y2355D02*
X3345Y2355D01*
X3363Y2355D02*
X3384Y2355D01*
X3423Y2355D02*
X3445Y2355D01*
X3463Y2355D02*
X3484Y2355D01*
X3523Y2355D02*
X3545Y2355D01*
X3563Y2355D02*
X3584Y2355D01*
X3623Y2355D02*
X3645Y2355D01*
X3662Y2355D02*
X3684Y2355D01*
X3723Y2355D02*
X3745Y2355D01*
X3762Y2355D02*
X3784Y2355D01*
X3823Y2355D02*
X3845Y2355D01*
X3862Y2355D02*
X3884Y2355D01*
X3923Y2355D02*
X3945Y2355D01*
X3962Y2355D02*
X3984Y2355D01*
X2322Y2354D02*
X2346Y2354D01*
X2359Y2354D02*
X2383Y2354D01*
X2422Y2354D02*
X2446Y2354D01*
X2459Y2354D02*
X2483Y2354D01*
X2522Y2354D02*
X2546Y2354D01*
X2559Y2354D02*
X2583Y2354D01*
X2622Y2354D02*
X2646Y2354D01*
X2659Y2354D02*
X2683Y2354D01*
X2722Y2354D02*
X2746Y2354D01*
X2759Y2354D02*
X2783Y2354D01*
X2822Y2354D02*
X2846Y2354D01*
X2859Y2354D02*
X2883Y2354D01*
X2922Y2354D02*
X2945Y2354D01*
X2959Y2354D02*
X2983Y2354D01*
X3022Y2354D02*
X3045Y2354D01*
X3059Y2354D02*
X3083Y2354D01*
X3223Y2354D02*
X3245Y2354D01*
X3263Y2354D02*
X3284Y2354D01*
X3323Y2354D02*
X3345Y2354D01*
X3363Y2354D02*
X3384Y2354D01*
X3423Y2354D02*
X3445Y2354D01*
X3463Y2354D02*
X3484Y2354D01*
X3523Y2354D02*
X3545Y2354D01*
X3563Y2354D02*
X3584Y2354D01*
X3623Y2354D02*
X3645Y2354D01*
X3663Y2354D02*
X3684Y2354D01*
X3723Y2354D02*
X3745Y2354D01*
X3763Y2354D02*
X3784Y2354D01*
X3823Y2354D02*
X3844Y2354D01*
X3863Y2354D02*
X3884Y2354D01*
X3923Y2354D02*
X3944Y2354D01*
X3963Y2354D02*
X3984Y2354D01*
X2322Y2353D02*
X2344Y2353D01*
X2360Y2353D02*
X2383Y2353D01*
X2422Y2353D02*
X2444Y2353D01*
X2460Y2353D02*
X2483Y2353D01*
X2522Y2353D02*
X2544Y2353D01*
X2560Y2353D02*
X2583Y2353D01*
X2622Y2353D02*
X2644Y2353D01*
X2660Y2353D02*
X2683Y2353D01*
X2722Y2353D02*
X2744Y2353D01*
X2760Y2353D02*
X2783Y2353D01*
X2822Y2353D02*
X2844Y2353D01*
X2860Y2353D02*
X2883Y2353D01*
X2922Y2353D02*
X2944Y2353D01*
X2960Y2353D02*
X2983Y2353D01*
X3022Y2353D02*
X3044Y2353D01*
X3060Y2353D02*
X3083Y2353D01*
X3223Y2353D02*
X3244Y2353D01*
X3264Y2353D02*
X3284Y2353D01*
X3323Y2353D02*
X3344Y2353D01*
X3364Y2353D02*
X3384Y2353D01*
X3423Y2353D02*
X3444Y2353D01*
X3464Y2353D02*
X3484Y2353D01*
X3523Y2353D02*
X3544Y2353D01*
X3564Y2353D02*
X3584Y2353D01*
X3623Y2353D02*
X3644Y2353D01*
X3664Y2353D02*
X3684Y2353D01*
X3723Y2353D02*
X3744Y2353D01*
X3764Y2353D02*
X3784Y2353D01*
X3823Y2353D02*
X3844Y2353D01*
X3864Y2353D02*
X3884Y2353D01*
X3923Y2353D02*
X3944Y2353D01*
X3964Y2353D02*
X3984Y2353D01*
X2322Y2352D02*
X2343Y2352D01*
X2361Y2352D02*
X2383Y2352D01*
X2422Y2352D02*
X2443Y2352D01*
X2461Y2352D02*
X2483Y2352D01*
X2522Y2352D02*
X2543Y2352D01*
X2561Y2352D02*
X2583Y2352D01*
X2622Y2352D02*
X2643Y2352D01*
X2661Y2352D02*
X2683Y2352D01*
X2722Y2352D02*
X2743Y2352D01*
X2761Y2352D02*
X2783Y2352D01*
X2822Y2352D02*
X2843Y2352D01*
X2861Y2352D02*
X2883Y2352D01*
X2922Y2352D02*
X2943Y2352D01*
X2961Y2352D02*
X2983Y2352D01*
X3022Y2352D02*
X3043Y2352D01*
X3061Y2352D02*
X3083Y2352D01*
X3223Y2352D02*
X3243Y2352D01*
X3265Y2352D02*
X3284Y2352D01*
X3323Y2352D02*
X3343Y2352D01*
X3365Y2352D02*
X3384Y2352D01*
X3423Y2352D02*
X3443Y2352D01*
X3465Y2352D02*
X3484Y2352D01*
X3523Y2352D02*
X3543Y2352D01*
X3565Y2352D02*
X3584Y2352D01*
X3623Y2352D02*
X3643Y2352D01*
X3664Y2352D02*
X3684Y2352D01*
X3723Y2352D02*
X3743Y2352D01*
X3764Y2352D02*
X3784Y2352D01*
X3823Y2352D02*
X3843Y2352D01*
X3864Y2352D02*
X3884Y2352D01*
X3923Y2352D02*
X3943Y2352D01*
X3964Y2352D02*
X3984Y2352D01*
X2322Y2351D02*
X2342Y2351D01*
X2362Y2351D02*
X2383Y2351D01*
X2422Y2351D02*
X2442Y2351D01*
X2462Y2351D02*
X2483Y2351D01*
X2522Y2351D02*
X2542Y2351D01*
X2562Y2351D02*
X2583Y2351D01*
X2622Y2351D02*
X2642Y2351D01*
X2662Y2351D02*
X2683Y2351D01*
X2722Y2351D02*
X2742Y2351D01*
X2762Y2351D02*
X2783Y2351D01*
X2822Y2351D02*
X2842Y2351D01*
X2862Y2351D02*
X2883Y2351D01*
X2922Y2351D02*
X2942Y2351D01*
X2962Y2351D02*
X2983Y2351D01*
X3022Y2351D02*
X3042Y2351D01*
X3062Y2351D02*
X3083Y2351D01*
X3223Y2351D02*
X3243Y2351D01*
X3265Y2351D02*
X3284Y2351D01*
X3323Y2351D02*
X3343Y2351D01*
X3365Y2351D02*
X3384Y2351D01*
X3423Y2351D02*
X3443Y2351D01*
X3465Y2351D02*
X3484Y2351D01*
X3523Y2351D02*
X3543Y2351D01*
X3565Y2351D02*
X3584Y2351D01*
X3623Y2351D02*
X3643Y2351D01*
X3665Y2351D02*
X3684Y2351D01*
X3723Y2351D02*
X3743Y2351D01*
X3765Y2351D02*
X3784Y2351D01*
X3823Y2351D02*
X3843Y2351D01*
X3865Y2351D02*
X3884Y2351D01*
X3923Y2351D02*
X3943Y2351D01*
X3965Y2351D02*
X3984Y2351D01*
X2322Y2350D02*
X2342Y2350D01*
X2363Y2350D02*
X2383Y2350D01*
X2422Y2350D02*
X2442Y2350D01*
X2463Y2350D02*
X2483Y2350D01*
X2522Y2350D02*
X2542Y2350D01*
X2563Y2350D02*
X2583Y2350D01*
X2622Y2350D02*
X2642Y2350D01*
X2663Y2350D02*
X2683Y2350D01*
X2722Y2350D02*
X2742Y2350D01*
X2763Y2350D02*
X2783Y2350D01*
X2822Y2350D02*
X2842Y2350D01*
X2863Y2350D02*
X2883Y2350D01*
X2922Y2350D02*
X2942Y2350D01*
X2963Y2350D02*
X2983Y2350D01*
X3022Y2350D02*
X3042Y2350D01*
X3063Y2350D02*
X3083Y2350D01*
X3223Y2350D02*
X3243Y2350D01*
X3265Y2350D02*
X3284Y2350D01*
X3323Y2350D02*
X3343Y2350D01*
X3365Y2350D02*
X3384Y2350D01*
X3423Y2350D02*
X3443Y2350D01*
X3465Y2350D02*
X3484Y2350D01*
X3523Y2350D02*
X3543Y2350D01*
X3565Y2350D02*
X3584Y2350D01*
X3623Y2350D02*
X3643Y2350D01*
X3665Y2350D02*
X3684Y2350D01*
X3723Y2350D02*
X3743Y2350D01*
X3765Y2350D02*
X3784Y2350D01*
X3823Y2350D02*
X3843Y2350D01*
X3865Y2350D02*
X3884Y2350D01*
X3923Y2350D02*
X3943Y2350D01*
X3965Y2350D02*
X3984Y2350D01*
X2322Y2349D02*
X2341Y2349D01*
X2363Y2349D02*
X2383Y2349D01*
X2422Y2349D02*
X2441Y2349D01*
X2463Y2349D02*
X2483Y2349D01*
X2522Y2349D02*
X2541Y2349D01*
X2563Y2349D02*
X2583Y2349D01*
X2622Y2349D02*
X2641Y2349D01*
X2663Y2349D02*
X2683Y2349D01*
X2722Y2349D02*
X2741Y2349D01*
X2763Y2349D02*
X2783Y2349D01*
X2822Y2349D02*
X2841Y2349D01*
X2863Y2349D02*
X2883Y2349D01*
X2922Y2349D02*
X2941Y2349D01*
X2963Y2349D02*
X2983Y2349D01*
X3022Y2349D02*
X3041Y2349D01*
X3063Y2349D02*
X3083Y2349D01*
X3223Y2349D02*
X3243Y2349D01*
X3265Y2349D02*
X3284Y2349D01*
X3323Y2349D02*
X3343Y2349D01*
X3365Y2349D02*
X3384Y2349D01*
X3423Y2349D02*
X3443Y2349D01*
X3465Y2349D02*
X3484Y2349D01*
X3523Y2349D02*
X3543Y2349D01*
X3565Y2349D02*
X3584Y2349D01*
X3623Y2349D02*
X3643Y2349D01*
X3665Y2349D02*
X3684Y2349D01*
X3723Y2349D02*
X3743Y2349D01*
X3765Y2349D02*
X3784Y2349D01*
X3823Y2349D02*
X3843Y2349D01*
X3865Y2349D02*
X3884Y2349D01*
X3923Y2349D02*
X3943Y2349D01*
X3965Y2349D02*
X3984Y2349D01*
X2322Y2348D02*
X2341Y2348D01*
X2363Y2348D02*
X2383Y2348D01*
X2422Y2348D02*
X2441Y2348D01*
X2463Y2348D02*
X2483Y2348D01*
X2522Y2348D02*
X2541Y2348D01*
X2563Y2348D02*
X2583Y2348D01*
X2622Y2348D02*
X2641Y2348D01*
X2663Y2348D02*
X2683Y2348D01*
X2722Y2348D02*
X2741Y2348D01*
X2763Y2348D02*
X2783Y2348D01*
X2822Y2348D02*
X2841Y2348D01*
X2863Y2348D02*
X2883Y2348D01*
X2922Y2348D02*
X2941Y2348D01*
X2963Y2348D02*
X2983Y2348D01*
X3022Y2348D02*
X3041Y2348D01*
X3063Y2348D02*
X3083Y2348D01*
X3223Y2348D02*
X3243Y2348D01*
X3265Y2348D02*
X3284Y2348D01*
X3323Y2348D02*
X3343Y2348D01*
X3365Y2348D02*
X3384Y2348D01*
X3423Y2348D02*
X3442Y2348D01*
X3465Y2348D02*
X3484Y2348D01*
X3523Y2348D02*
X3542Y2348D01*
X3565Y2348D02*
X3584Y2348D01*
X3623Y2348D02*
X3642Y2348D01*
X3665Y2348D02*
X3684Y2348D01*
X3723Y2348D02*
X3742Y2348D01*
X3765Y2348D02*
X3784Y2348D01*
X3823Y2348D02*
X3842Y2348D01*
X3865Y2348D02*
X3884Y2348D01*
X3923Y2348D02*
X3942Y2348D01*
X3965Y2348D02*
X3984Y2348D01*
X2322Y2347D02*
X2341Y2347D01*
X2364Y2347D02*
X2383Y2347D01*
X2422Y2347D02*
X2441Y2347D01*
X2464Y2347D02*
X2483Y2347D01*
X2522Y2347D02*
X2541Y2347D01*
X2563Y2347D02*
X2583Y2347D01*
X2622Y2347D02*
X2641Y2347D01*
X2663Y2347D02*
X2683Y2347D01*
X2722Y2347D02*
X2741Y2347D01*
X2763Y2347D02*
X2783Y2347D01*
X2822Y2347D02*
X2841Y2347D01*
X2863Y2347D02*
X2883Y2347D01*
X2922Y2347D02*
X2941Y2347D01*
X2963Y2347D02*
X2983Y2347D01*
X3022Y2347D02*
X3041Y2347D01*
X3063Y2347D02*
X3083Y2347D01*
X3223Y2347D02*
X3242Y2347D01*
X3265Y2347D02*
X3284Y2347D01*
X3323Y2347D02*
X3342Y2347D01*
X3365Y2347D02*
X3384Y2347D01*
X3423Y2347D02*
X3442Y2347D01*
X3465Y2347D02*
X3484Y2347D01*
X3523Y2347D02*
X3542Y2347D01*
X3565Y2347D02*
X3584Y2347D01*
X3623Y2347D02*
X3642Y2347D01*
X3665Y2347D02*
X3684Y2347D01*
X3723Y2347D02*
X3742Y2347D01*
X3765Y2347D02*
X3784Y2347D01*
X3823Y2347D02*
X3842Y2347D01*
X3865Y2347D02*
X3884Y2347D01*
X3923Y2347D02*
X3942Y2347D01*
X3965Y2347D02*
X3984Y2347D01*
X2322Y2346D02*
X2341Y2346D01*
X2364Y2346D02*
X2383Y2346D01*
X2422Y2346D02*
X2441Y2346D01*
X2464Y2346D02*
X2483Y2346D01*
X2522Y2346D02*
X2541Y2346D01*
X2564Y2346D02*
X2583Y2346D01*
X2622Y2346D02*
X2641Y2346D01*
X2664Y2346D02*
X2683Y2346D01*
X2722Y2346D02*
X2741Y2346D01*
X2764Y2346D02*
X2783Y2346D01*
X2822Y2346D02*
X2841Y2346D01*
X2864Y2346D02*
X2883Y2346D01*
X2922Y2346D02*
X2941Y2346D01*
X2964Y2346D02*
X2983Y2346D01*
X3022Y2346D02*
X3041Y2346D01*
X3064Y2346D02*
X3083Y2346D01*
X3223Y2346D02*
X3243Y2346D01*
X3265Y2346D02*
X3284Y2346D01*
X3323Y2346D02*
X3343Y2346D01*
X3365Y2346D02*
X3384Y2346D01*
X3423Y2346D02*
X3442Y2346D01*
X3465Y2346D02*
X3484Y2346D01*
X3523Y2346D02*
X3542Y2346D01*
X3565Y2346D02*
X3584Y2346D01*
X3623Y2346D02*
X3642Y2346D01*
X3665Y2346D02*
X3684Y2346D01*
X3723Y2346D02*
X3742Y2346D01*
X3765Y2346D02*
X3784Y2346D01*
X3823Y2346D02*
X3842Y2346D01*
X3865Y2346D02*
X3884Y2346D01*
X3923Y2346D02*
X3942Y2346D01*
X3965Y2346D02*
X3984Y2346D01*
X2322Y2345D02*
X2341Y2345D01*
X2364Y2345D02*
X2383Y2345D01*
X2422Y2345D02*
X2441Y2345D01*
X2464Y2345D02*
X2483Y2345D01*
X2522Y2345D02*
X2541Y2345D01*
X2564Y2345D02*
X2583Y2345D01*
X2622Y2345D02*
X2641Y2345D01*
X2664Y2345D02*
X2683Y2345D01*
X2722Y2345D02*
X2741Y2345D01*
X2764Y2345D02*
X2783Y2345D01*
X2822Y2345D02*
X2841Y2345D01*
X2864Y2345D02*
X2883Y2345D01*
X2922Y2345D02*
X2941Y2345D01*
X2964Y2345D02*
X2983Y2345D01*
X3022Y2345D02*
X3041Y2345D01*
X3064Y2345D02*
X3083Y2345D01*
X3223Y2345D02*
X3243Y2345D01*
X3265Y2345D02*
X3284Y2345D01*
X3323Y2345D02*
X3343Y2345D01*
X3365Y2345D02*
X3384Y2345D01*
X3423Y2345D02*
X3443Y2345D01*
X3465Y2345D02*
X3484Y2345D01*
X3523Y2345D02*
X3543Y2345D01*
X3565Y2345D02*
X3584Y2345D01*
X3623Y2345D02*
X3643Y2345D01*
X3665Y2345D02*
X3684Y2345D01*
X3723Y2345D02*
X3743Y2345D01*
X3765Y2345D02*
X3784Y2345D01*
X3823Y2345D02*
X3843Y2345D01*
X3865Y2345D02*
X3884Y2345D01*
X3923Y2345D02*
X3943Y2345D01*
X3965Y2345D02*
X3984Y2345D01*
X2322Y2344D02*
X2341Y2344D01*
X2364Y2344D02*
X2383Y2344D01*
X2422Y2344D02*
X2441Y2344D01*
X2464Y2344D02*
X2483Y2344D01*
X2522Y2344D02*
X2541Y2344D01*
X2564Y2344D02*
X2583Y2344D01*
X2622Y2344D02*
X2641Y2344D01*
X2664Y2344D02*
X2683Y2344D01*
X2722Y2344D02*
X2741Y2344D01*
X2764Y2344D02*
X2783Y2344D01*
X2822Y2344D02*
X2841Y2344D01*
X2864Y2344D02*
X2883Y2344D01*
X2922Y2344D02*
X2941Y2344D01*
X2964Y2344D02*
X2983Y2344D01*
X3022Y2344D02*
X3041Y2344D01*
X3064Y2344D02*
X3083Y2344D01*
X3223Y2344D02*
X3243Y2344D01*
X3265Y2344D02*
X3284Y2344D01*
X3323Y2344D02*
X3343Y2344D01*
X3365Y2344D02*
X3384Y2344D01*
X3423Y2344D02*
X3443Y2344D01*
X3465Y2344D02*
X3484Y2344D01*
X3523Y2344D02*
X3543Y2344D01*
X3565Y2344D02*
X3584Y2344D01*
X3623Y2344D02*
X3643Y2344D01*
X3665Y2344D02*
X3684Y2344D01*
X3723Y2344D02*
X3743Y2344D01*
X3765Y2344D02*
X3784Y2344D01*
X3823Y2344D02*
X3843Y2344D01*
X3865Y2344D02*
X3884Y2344D01*
X3923Y2344D02*
X3943Y2344D01*
X3965Y2344D02*
X3984Y2344D01*
X2322Y2343D02*
X2341Y2343D01*
X2364Y2343D02*
X2383Y2343D01*
X2422Y2343D02*
X2441Y2343D01*
X2464Y2343D02*
X2483Y2343D01*
X2522Y2343D02*
X2541Y2343D01*
X2564Y2343D02*
X2583Y2343D01*
X2622Y2343D02*
X2641Y2343D01*
X2664Y2343D02*
X2683Y2343D01*
X2722Y2343D02*
X2741Y2343D01*
X2764Y2343D02*
X2783Y2343D01*
X2822Y2343D02*
X2841Y2343D01*
X2864Y2343D02*
X2883Y2343D01*
X2922Y2343D02*
X2941Y2343D01*
X2964Y2343D02*
X2983Y2343D01*
X3022Y2343D02*
X3041Y2343D01*
X3064Y2343D02*
X3083Y2343D01*
X3223Y2343D02*
X3243Y2343D01*
X3265Y2343D02*
X3284Y2343D01*
X3323Y2343D02*
X3343Y2343D01*
X3365Y2343D02*
X3384Y2343D01*
X3423Y2343D02*
X3443Y2343D01*
X3465Y2343D02*
X3484Y2343D01*
X3523Y2343D02*
X3543Y2343D01*
X3565Y2343D02*
X3584Y2343D01*
X3623Y2343D02*
X3643Y2343D01*
X3665Y2343D02*
X3684Y2343D01*
X3723Y2343D02*
X3743Y2343D01*
X3765Y2343D02*
X3784Y2343D01*
X3823Y2343D02*
X3843Y2343D01*
X3865Y2343D02*
X3884Y2343D01*
X3923Y2343D02*
X3943Y2343D01*
X3965Y2343D02*
X3984Y2343D01*
X2322Y2342D02*
X2341Y2342D01*
X2363Y2342D02*
X2383Y2342D01*
X2422Y2342D02*
X2441Y2342D01*
X2463Y2342D02*
X2483Y2342D01*
X2522Y2342D02*
X2541Y2342D01*
X2563Y2342D02*
X2583Y2342D01*
X2622Y2342D02*
X2641Y2342D01*
X2663Y2342D02*
X2683Y2342D01*
X2722Y2342D02*
X2741Y2342D01*
X2763Y2342D02*
X2783Y2342D01*
X2822Y2342D02*
X2841Y2342D01*
X2863Y2342D02*
X2883Y2342D01*
X2922Y2342D02*
X2941Y2342D01*
X2963Y2342D02*
X2983Y2342D01*
X3022Y2342D02*
X3041Y2342D01*
X3063Y2342D02*
X3083Y2342D01*
X3223Y2342D02*
X3243Y2342D01*
X3265Y2342D02*
X3284Y2342D01*
X3323Y2342D02*
X3343Y2342D01*
X3365Y2342D02*
X3384Y2342D01*
X3423Y2342D02*
X3443Y2342D01*
X3464Y2342D02*
X3484Y2342D01*
X3523Y2342D02*
X3543Y2342D01*
X3564Y2342D02*
X3584Y2342D01*
X3623Y2342D02*
X3643Y2342D01*
X3664Y2342D02*
X3684Y2342D01*
X3723Y2342D02*
X3743Y2342D01*
X3764Y2342D02*
X3784Y2342D01*
X3823Y2342D02*
X3843Y2342D01*
X3864Y2342D02*
X3884Y2342D01*
X3923Y2342D02*
X3943Y2342D01*
X3964Y2342D02*
X3984Y2342D01*
X2322Y2341D02*
X2341Y2341D01*
X2363Y2341D02*
X2383Y2341D01*
X2422Y2341D02*
X2441Y2341D01*
X2463Y2341D02*
X2483Y2341D01*
X2522Y2341D02*
X2541Y2341D01*
X2563Y2341D02*
X2583Y2341D01*
X2622Y2341D02*
X2641Y2341D01*
X2663Y2341D02*
X2683Y2341D01*
X2722Y2341D02*
X2741Y2341D01*
X2763Y2341D02*
X2783Y2341D01*
X2822Y2341D02*
X2841Y2341D01*
X2863Y2341D02*
X2883Y2341D01*
X2922Y2341D02*
X2941Y2341D01*
X2963Y2341D02*
X2983Y2341D01*
X3022Y2341D02*
X3041Y2341D01*
X3063Y2341D02*
X3083Y2341D01*
X3223Y2341D02*
X3244Y2341D01*
X3264Y2341D02*
X3284Y2341D01*
X3323Y2341D02*
X3344Y2341D01*
X3364Y2341D02*
X3384Y2341D01*
X3423Y2341D02*
X3444Y2341D01*
X3464Y2341D02*
X3484Y2341D01*
X3523Y2341D02*
X3544Y2341D01*
X3564Y2341D02*
X3584Y2341D01*
X3623Y2341D02*
X3644Y2341D01*
X3664Y2341D02*
X3684Y2341D01*
X3723Y2341D02*
X3744Y2341D01*
X3764Y2341D02*
X3784Y2341D01*
X3823Y2341D02*
X3844Y2341D01*
X3864Y2341D02*
X3884Y2341D01*
X3923Y2341D02*
X3944Y2341D01*
X3964Y2341D02*
X3984Y2341D01*
X2322Y2340D02*
X2341Y2340D01*
X2363Y2340D02*
X2383Y2340D01*
X2422Y2340D02*
X2441Y2340D01*
X2463Y2340D02*
X2483Y2340D01*
X2522Y2340D02*
X2541Y2340D01*
X2563Y2340D02*
X2583Y2340D01*
X2622Y2340D02*
X2641Y2340D01*
X2663Y2340D02*
X2683Y2340D01*
X2722Y2340D02*
X2741Y2340D01*
X2763Y2340D02*
X2783Y2340D01*
X2822Y2340D02*
X2841Y2340D01*
X2863Y2340D02*
X2883Y2340D01*
X2922Y2340D02*
X2941Y2340D01*
X2963Y2340D02*
X2983Y2340D01*
X3022Y2340D02*
X3041Y2340D01*
X3063Y2340D02*
X3083Y2340D01*
X3223Y2340D02*
X3245Y2340D01*
X3263Y2340D02*
X3284Y2340D01*
X3323Y2340D02*
X3345Y2340D01*
X3363Y2340D02*
X3384Y2340D01*
X3423Y2340D02*
X3445Y2340D01*
X3463Y2340D02*
X3484Y2340D01*
X3523Y2340D02*
X3545Y2340D01*
X3563Y2340D02*
X3584Y2340D01*
X3623Y2340D02*
X3645Y2340D01*
X3663Y2340D02*
X3684Y2340D01*
X3723Y2340D02*
X3745Y2340D01*
X3763Y2340D02*
X3784Y2340D01*
X3823Y2340D02*
X3845Y2340D01*
X3863Y2340D02*
X3884Y2340D01*
X3923Y2340D02*
X3945Y2340D01*
X3963Y2340D02*
X3984Y2340D01*
X2322Y2339D02*
X2342Y2339D01*
X2363Y2339D02*
X2383Y2339D01*
X2422Y2339D02*
X2442Y2339D01*
X2463Y2339D02*
X2483Y2339D01*
X2522Y2339D02*
X2542Y2339D01*
X2563Y2339D02*
X2583Y2339D01*
X2622Y2339D02*
X2642Y2339D01*
X2663Y2339D02*
X2683Y2339D01*
X2722Y2339D02*
X2742Y2339D01*
X2762Y2339D02*
X2783Y2339D01*
X2822Y2339D02*
X2842Y2339D01*
X2862Y2339D02*
X2883Y2339D01*
X2922Y2339D02*
X2942Y2339D01*
X2962Y2339D02*
X2983Y2339D01*
X3022Y2339D02*
X3042Y2339D01*
X3062Y2339D02*
X3083Y2339D01*
X3223Y2339D02*
X3245Y2339D01*
X3263Y2339D02*
X3284Y2339D01*
X3323Y2339D02*
X3345Y2339D01*
X3363Y2339D02*
X3384Y2339D01*
X3423Y2339D02*
X3445Y2339D01*
X3462Y2339D02*
X3484Y2339D01*
X3523Y2339D02*
X3545Y2339D01*
X3562Y2339D02*
X3584Y2339D01*
X3623Y2339D02*
X3645Y2339D01*
X3662Y2339D02*
X3684Y2339D01*
X3723Y2339D02*
X3745Y2339D01*
X3762Y2339D02*
X3784Y2339D01*
X3823Y2339D02*
X3845Y2339D01*
X3862Y2339D02*
X3884Y2339D01*
X3923Y2339D02*
X3945Y2339D01*
X3962Y2339D02*
X3984Y2339D01*
X2322Y2338D02*
X2342Y2338D01*
X2362Y2338D02*
X2383Y2338D01*
X2422Y2338D02*
X2442Y2338D01*
X2462Y2338D02*
X2483Y2338D01*
X2522Y2338D02*
X2542Y2338D01*
X2562Y2338D02*
X2583Y2338D01*
X2622Y2338D02*
X2642Y2338D01*
X2662Y2338D02*
X2683Y2338D01*
X2722Y2338D02*
X2742Y2338D01*
X2762Y2338D02*
X2783Y2338D01*
X2822Y2338D02*
X2842Y2338D01*
X2862Y2338D02*
X2883Y2338D01*
X2922Y2338D02*
X2942Y2338D01*
X2962Y2338D02*
X2983Y2338D01*
X3022Y2338D02*
X3042Y2338D01*
X3062Y2338D02*
X3083Y2338D01*
X3223Y2338D02*
X3247Y2338D01*
X3261Y2338D02*
X3284Y2338D01*
X3323Y2338D02*
X3347Y2338D01*
X3361Y2338D02*
X3384Y2338D01*
X3423Y2338D02*
X3447Y2338D01*
X3461Y2338D02*
X3484Y2338D01*
X3523Y2338D02*
X3547Y2338D01*
X3561Y2338D02*
X3584Y2338D01*
X3623Y2338D02*
X3647Y2338D01*
X3661Y2338D02*
X3684Y2338D01*
X3723Y2338D02*
X3747Y2338D01*
X3761Y2338D02*
X3784Y2338D01*
X3823Y2338D02*
X3847Y2338D01*
X3861Y2338D02*
X3884Y2338D01*
X3923Y2338D02*
X3947Y2338D01*
X3961Y2338D02*
X3984Y2338D01*
X2322Y2337D02*
X2343Y2337D01*
X2361Y2337D02*
X2383Y2337D01*
X2422Y2337D02*
X2443Y2337D01*
X2461Y2337D02*
X2483Y2337D01*
X2522Y2337D02*
X2543Y2337D01*
X2561Y2337D02*
X2583Y2337D01*
X2622Y2337D02*
X2643Y2337D01*
X2661Y2337D02*
X2683Y2337D01*
X2722Y2337D02*
X2743Y2337D01*
X2761Y2337D02*
X2783Y2337D01*
X2822Y2337D02*
X2843Y2337D01*
X2861Y2337D02*
X2883Y2337D01*
X2922Y2337D02*
X2943Y2337D01*
X2961Y2337D02*
X2983Y2337D01*
X3022Y2337D02*
X3043Y2337D01*
X3061Y2337D02*
X3083Y2337D01*
X3223Y2337D02*
X3248Y2337D01*
X3260Y2337D02*
X3284Y2337D01*
X3323Y2337D02*
X3348Y2337D01*
X3360Y2337D02*
X3384Y2337D01*
X3423Y2337D02*
X3448Y2337D01*
X3460Y2337D02*
X3484Y2337D01*
X3523Y2337D02*
X3548Y2337D01*
X3560Y2337D02*
X3584Y2337D01*
X3623Y2337D02*
X3648Y2337D01*
X3660Y2337D02*
X3684Y2337D01*
X3723Y2337D02*
X3748Y2337D01*
X3760Y2337D02*
X3784Y2337D01*
X3823Y2337D02*
X3848Y2337D01*
X3860Y2337D02*
X3884Y2337D01*
X3923Y2337D02*
X3948Y2337D01*
X3960Y2337D02*
X3984Y2337D01*
X2322Y2336D02*
X2344Y2336D01*
X2360Y2336D02*
X2383Y2336D01*
X2422Y2336D02*
X2444Y2336D01*
X2460Y2336D02*
X2483Y2336D01*
X2522Y2336D02*
X2544Y2336D01*
X2560Y2336D02*
X2583Y2336D01*
X2622Y2336D02*
X2644Y2336D01*
X2660Y2336D02*
X2683Y2336D01*
X2722Y2336D02*
X2744Y2336D01*
X2760Y2336D02*
X2783Y2336D01*
X2822Y2336D02*
X2844Y2336D01*
X2860Y2336D02*
X2883Y2336D01*
X2922Y2336D02*
X2944Y2336D01*
X2960Y2336D02*
X2983Y2336D01*
X3022Y2336D02*
X3044Y2336D01*
X3060Y2336D02*
X3083Y2336D01*
X3223Y2336D02*
X3284Y2336D01*
X3323Y2336D02*
X3384Y2336D01*
X3423Y2336D02*
X3484Y2336D01*
X3523Y2336D02*
X3584Y2336D01*
X3623Y2336D02*
X3684Y2336D01*
X3723Y2336D02*
X3784Y2336D01*
X3823Y2336D02*
X3884Y2336D01*
X3923Y2336D02*
X3984Y2336D01*
X2322Y2335D02*
X2346Y2335D01*
X2359Y2335D02*
X2383Y2335D01*
X2422Y2335D02*
X2446Y2335D01*
X2459Y2335D02*
X2483Y2335D01*
X2522Y2335D02*
X2546Y2335D01*
X2559Y2335D02*
X2583Y2335D01*
X2622Y2335D02*
X2646Y2335D01*
X2659Y2335D02*
X2683Y2335D01*
X2722Y2335D02*
X2746Y2335D01*
X2759Y2335D02*
X2783Y2335D01*
X2822Y2335D02*
X2846Y2335D01*
X2859Y2335D02*
X2883Y2335D01*
X2922Y2335D02*
X2946Y2335D01*
X2959Y2335D02*
X2983Y2335D01*
X3022Y2335D02*
X3046Y2335D01*
X3059Y2335D02*
X3083Y2335D01*
X3223Y2335D02*
X3284Y2335D01*
X3323Y2335D02*
X3384Y2335D01*
X3423Y2335D02*
X3484Y2335D01*
X3523Y2335D02*
X3584Y2335D01*
X3623Y2335D02*
X3684Y2335D01*
X3723Y2335D02*
X3784Y2335D01*
X3823Y2335D02*
X3884Y2335D01*
X3923Y2335D02*
X3984Y2335D01*
X2322Y2334D02*
X2348Y2334D01*
X2356Y2334D02*
X2383Y2334D01*
X2422Y2334D02*
X2448Y2334D01*
X2456Y2334D02*
X2483Y2334D01*
X2522Y2334D02*
X2548Y2334D01*
X2556Y2334D02*
X2583Y2334D01*
X2622Y2334D02*
X2648Y2334D01*
X2656Y2334D02*
X2683Y2334D01*
X2722Y2334D02*
X2748Y2334D01*
X2756Y2334D02*
X2783Y2334D01*
X2822Y2334D02*
X2848Y2334D01*
X2856Y2334D02*
X2883Y2334D01*
X2922Y2334D02*
X2948Y2334D01*
X2956Y2334D02*
X2983Y2334D01*
X3022Y2334D02*
X3048Y2334D01*
X3056Y2334D02*
X3083Y2334D01*
X3223Y2334D02*
X3284Y2334D01*
X3323Y2334D02*
X3384Y2334D01*
X3423Y2334D02*
X3484Y2334D01*
X3523Y2334D02*
X3584Y2334D01*
X3623Y2334D02*
X3684Y2334D01*
X3723Y2334D02*
X3784Y2334D01*
X3823Y2334D02*
X3884Y2334D01*
X3923Y2334D02*
X3984Y2334D01*
X2322Y2333D02*
X2383Y2333D01*
X2422Y2333D02*
X2483Y2333D01*
X2522Y2333D02*
X2583Y2333D01*
X2622Y2333D02*
X2683Y2333D01*
X2722Y2333D02*
X2783Y2333D01*
X2822Y2333D02*
X2883Y2333D01*
X2922Y2333D02*
X2983Y2333D01*
X3022Y2333D02*
X3083Y2333D01*
X3223Y2333D02*
X3284Y2333D01*
X3323Y2333D02*
X3384Y2333D01*
X3423Y2333D02*
X3484Y2333D01*
X3523Y2333D02*
X3584Y2333D01*
X3623Y2333D02*
X3684Y2333D01*
X3723Y2333D02*
X3784Y2333D01*
X3823Y2333D02*
X3884Y2333D01*
X3923Y2333D02*
X3984Y2333D01*
X2322Y2332D02*
X2383Y2332D01*
X2422Y2332D02*
X2483Y2332D01*
X2522Y2332D02*
X2583Y2332D01*
X2622Y2332D02*
X2683Y2332D01*
X2722Y2332D02*
X2783Y2332D01*
X2822Y2332D02*
X2883Y2332D01*
X2922Y2332D02*
X2983Y2332D01*
X3022Y2332D02*
X3083Y2332D01*
X3223Y2332D02*
X3284Y2332D01*
X3323Y2332D02*
X3384Y2332D01*
X3423Y2332D02*
X3484Y2332D01*
X3523Y2332D02*
X3584Y2332D01*
X3623Y2332D02*
X3684Y2332D01*
X3723Y2332D02*
X3784Y2332D01*
X3823Y2332D02*
X3884Y2332D01*
X3923Y2332D02*
X3984Y2332D01*
X2322Y2331D02*
X2383Y2331D01*
X2422Y2331D02*
X2483Y2331D01*
X2522Y2331D02*
X2583Y2331D01*
X2622Y2331D02*
X2683Y2331D01*
X2722Y2331D02*
X2783Y2331D01*
X2822Y2331D02*
X2883Y2331D01*
X2922Y2331D02*
X2983Y2331D01*
X3022Y2331D02*
X3083Y2331D01*
X3223Y2331D02*
X3284Y2331D01*
X3323Y2331D02*
X3384Y2331D01*
X3423Y2331D02*
X3484Y2331D01*
X3523Y2331D02*
X3584Y2331D01*
X3623Y2331D02*
X3684Y2331D01*
X3723Y2331D02*
X3784Y2331D01*
X3823Y2331D02*
X3884Y2331D01*
X3923Y2331D02*
X3984Y2331D01*
X2322Y2330D02*
X2383Y2330D01*
X2422Y2330D02*
X2483Y2330D01*
X2522Y2330D02*
X2583Y2330D01*
X2622Y2330D02*
X2683Y2330D01*
X2722Y2330D02*
X2783Y2330D01*
X2822Y2330D02*
X2883Y2330D01*
X2922Y2330D02*
X2983Y2330D01*
X3022Y2330D02*
X3083Y2330D01*
X3223Y2330D02*
X3284Y2330D01*
X3323Y2330D02*
X3384Y2330D01*
X3423Y2330D02*
X3484Y2330D01*
X3523Y2330D02*
X3584Y2330D01*
X3623Y2330D02*
X3684Y2330D01*
X3723Y2330D02*
X3784Y2330D01*
X3823Y2330D02*
X3884Y2330D01*
X3923Y2330D02*
X3984Y2330D01*
X2322Y2329D02*
X2383Y2329D01*
X2422Y2329D02*
X2483Y2329D01*
X2522Y2329D02*
X2583Y2329D01*
X2622Y2329D02*
X2683Y2329D01*
X2722Y2329D02*
X2783Y2329D01*
X2822Y2329D02*
X2883Y2329D01*
X2922Y2329D02*
X2983Y2329D01*
X3022Y2329D02*
X3083Y2329D01*
X3223Y2329D02*
X3284Y2329D01*
X3323Y2329D02*
X3384Y2329D01*
X3423Y2329D02*
X3484Y2329D01*
X3523Y2329D02*
X3584Y2329D01*
X3623Y2329D02*
X3684Y2329D01*
X3723Y2329D02*
X3784Y2329D01*
X3823Y2329D02*
X3884Y2329D01*
X3923Y2329D02*
X3984Y2329D01*
X2322Y2328D02*
X2383Y2328D01*
X2422Y2328D02*
X2483Y2328D01*
X2522Y2328D02*
X2583Y2328D01*
X2622Y2328D02*
X2683Y2328D01*
X2722Y2328D02*
X2783Y2328D01*
X2822Y2328D02*
X2883Y2328D01*
X2922Y2328D02*
X2983Y2328D01*
X3022Y2328D02*
X3083Y2328D01*
X3223Y2328D02*
X3284Y2328D01*
X3323Y2328D02*
X3384Y2328D01*
X3423Y2328D02*
X3484Y2328D01*
X3523Y2328D02*
X3584Y2328D01*
X3623Y2328D02*
X3684Y2328D01*
X3723Y2328D02*
X3784Y2328D01*
X3823Y2328D02*
X3884Y2328D01*
X3923Y2328D02*
X3984Y2328D01*
X2322Y2327D02*
X2383Y2327D01*
X2422Y2327D02*
X2483Y2327D01*
X2522Y2327D02*
X2583Y2327D01*
X2622Y2327D02*
X2683Y2327D01*
X2722Y2327D02*
X2783Y2327D01*
X2822Y2327D02*
X2883Y2327D01*
X2922Y2327D02*
X2983Y2327D01*
X3022Y2327D02*
X3083Y2327D01*
X3223Y2327D02*
X3284Y2327D01*
X3323Y2327D02*
X3384Y2327D01*
X3423Y2327D02*
X3484Y2327D01*
X3523Y2327D02*
X3584Y2327D01*
X3623Y2327D02*
X3684Y2327D01*
X3723Y2327D02*
X3784Y2327D01*
X3823Y2327D02*
X3884Y2327D01*
X3923Y2327D02*
X3984Y2327D01*
X2322Y2326D02*
X2383Y2326D01*
X2422Y2326D02*
X2483Y2326D01*
X2522Y2326D02*
X2583Y2326D01*
X2622Y2326D02*
X2683Y2326D01*
X2722Y2326D02*
X2783Y2326D01*
X2822Y2326D02*
X2883Y2326D01*
X2922Y2326D02*
X2983Y2326D01*
X3022Y2326D02*
X3083Y2326D01*
X3223Y2326D02*
X3284Y2326D01*
X3323Y2326D02*
X3384Y2326D01*
X3423Y2326D02*
X3484Y2326D01*
X3523Y2326D02*
X3584Y2326D01*
X3623Y2326D02*
X3684Y2326D01*
X3723Y2326D02*
X3784Y2326D01*
X3823Y2326D02*
X3884Y2326D01*
X3923Y2326D02*
X3984Y2326D01*
X2322Y2325D02*
X2383Y2325D01*
X2422Y2325D02*
X2483Y2325D01*
X2522Y2325D02*
X2583Y2325D01*
X2622Y2325D02*
X2683Y2325D01*
X2722Y2325D02*
X2783Y2325D01*
X2822Y2325D02*
X2883Y2325D01*
X2922Y2325D02*
X2983Y2325D01*
X3022Y2325D02*
X3083Y2325D01*
X3223Y2325D02*
X3284Y2325D01*
X3323Y2325D02*
X3384Y2325D01*
X3423Y2325D02*
X3484Y2325D01*
X3523Y2325D02*
X3584Y2325D01*
X3623Y2325D02*
X3684Y2325D01*
X3723Y2325D02*
X3784Y2325D01*
X3823Y2325D02*
X3884Y2325D01*
X3923Y2325D02*
X3984Y2325D01*
X2322Y2324D02*
X2383Y2324D01*
X2422Y2324D02*
X2483Y2324D01*
X2522Y2324D02*
X2583Y2324D01*
X2622Y2324D02*
X2683Y2324D01*
X2722Y2324D02*
X2783Y2324D01*
X2822Y2324D02*
X2883Y2324D01*
X2922Y2324D02*
X2983Y2324D01*
X3022Y2324D02*
X3083Y2324D01*
X3223Y2324D02*
X3284Y2324D01*
X3323Y2324D02*
X3384Y2324D01*
X3423Y2324D02*
X3484Y2324D01*
X3523Y2324D02*
X3584Y2324D01*
X3623Y2324D02*
X3684Y2324D01*
X3723Y2324D02*
X3784Y2324D01*
X3823Y2324D02*
X3884Y2324D01*
X3923Y2324D02*
X3984Y2324D01*
X2322Y2323D02*
X2383Y2323D01*
X2422Y2323D02*
X2483Y2323D01*
X2522Y2323D02*
X2583Y2323D01*
X2622Y2323D02*
X2683Y2323D01*
X2722Y2323D02*
X2783Y2323D01*
X2822Y2323D02*
X2883Y2323D01*
X2922Y2323D02*
X2983Y2323D01*
X3022Y2323D02*
X3083Y2323D01*
X3223Y2323D02*
X3284Y2323D01*
X3323Y2323D02*
X3384Y2323D01*
X3423Y2323D02*
X3484Y2323D01*
X3523Y2323D02*
X3584Y2323D01*
X3623Y2323D02*
X3684Y2323D01*
X3723Y2323D02*
X3784Y2323D01*
X3823Y2323D02*
X3884Y2323D01*
X3923Y2323D02*
X3984Y2323D01*
X2322Y2322D02*
X2383Y2322D01*
X2422Y2322D02*
X2483Y2322D01*
X2522Y2322D02*
X2583Y2322D01*
X2622Y2322D02*
X2683Y2322D01*
X2722Y2322D02*
X2783Y2322D01*
X2822Y2322D02*
X2883Y2322D01*
X2922Y2322D02*
X2983Y2322D01*
X3022Y2322D02*
X3083Y2322D01*
X3223Y2322D02*
X3284Y2322D01*
X3323Y2322D02*
X3384Y2322D01*
X3423Y2322D02*
X3484Y2322D01*
X3523Y2322D02*
X3584Y2322D01*
X3623Y2322D02*
X3684Y2322D01*
X3723Y2322D02*
X3784Y2322D01*
X3823Y2322D02*
X3884Y2322D01*
X3923Y2322D02*
X3984Y2322D01*
X2322Y2321D02*
X2383Y2321D01*
X2422Y2321D02*
X2483Y2321D01*
X2522Y2321D02*
X2583Y2321D01*
X2622Y2321D02*
X2683Y2321D01*
X2722Y2321D02*
X2783Y2321D01*
X2822Y2321D02*
X2883Y2321D01*
X2922Y2321D02*
X2983Y2321D01*
X3022Y2321D02*
X3083Y2321D01*
X3223Y2321D02*
X3284Y2321D01*
X3323Y2321D02*
X3384Y2321D01*
X3423Y2321D02*
X3484Y2321D01*
X3523Y2321D02*
X3584Y2321D01*
X3623Y2321D02*
X3684Y2321D01*
X3723Y2321D02*
X3784Y2321D01*
X3823Y2321D02*
X3884Y2321D01*
X3923Y2321D02*
X3984Y2321D01*
X2322Y2320D02*
X2383Y2320D01*
X2422Y2320D02*
X2483Y2320D01*
X2522Y2320D02*
X2583Y2320D01*
X2622Y2320D02*
X2683Y2320D01*
X2722Y2320D02*
X2783Y2320D01*
X2822Y2320D02*
X2883Y2320D01*
X2922Y2320D02*
X2983Y2320D01*
X3022Y2320D02*
X3083Y2320D01*
X3223Y2320D02*
X3284Y2320D01*
X3323Y2320D02*
X3384Y2320D01*
X3423Y2320D02*
X3484Y2320D01*
X3523Y2320D02*
X3584Y2320D01*
X3623Y2320D02*
X3684Y2320D01*
X3723Y2320D02*
X3784Y2320D01*
X3823Y2320D02*
X3884Y2320D01*
X3923Y2320D02*
X3984Y2320D01*
X2322Y2319D02*
X2383Y2319D01*
X2422Y2319D02*
X2483Y2319D01*
X2522Y2319D02*
X2583Y2319D01*
X2622Y2319D02*
X2683Y2319D01*
X2722Y2319D02*
X2783Y2319D01*
X2822Y2319D02*
X2883Y2319D01*
X2922Y2319D02*
X2983Y2319D01*
X3022Y2319D02*
X3083Y2319D01*
X3224Y2319D02*
X3284Y2319D01*
X3324Y2319D02*
X3384Y2319D01*
X3424Y2319D02*
X3484Y2319D01*
X3524Y2319D02*
X3584Y2319D01*
X3624Y2319D02*
X3684Y2319D01*
X3724Y2319D02*
X3784Y2319D01*
X3823Y2319D02*
X3884Y2319D01*
X3923Y2319D02*
X3984Y2319D01*
X2322Y2318D02*
X2383Y2318D01*
X2422Y2318D02*
X2483Y2318D01*
X2522Y2318D02*
X2583Y2318D01*
X2622Y2318D02*
X2683Y2318D01*
X2722Y2318D02*
X2783Y2318D01*
X2822Y2318D02*
X2883Y2318D01*
X2922Y2318D02*
X2983Y2318D01*
X3022Y2318D02*
X3083Y2318D01*
X3224Y2318D02*
X3284Y2318D01*
X3324Y2318D02*
X3384Y2318D01*
X3424Y2318D02*
X3484Y2318D01*
X3524Y2318D02*
X3584Y2318D01*
X3624Y2318D02*
X3684Y2318D01*
X3724Y2318D02*
X3784Y2318D01*
X3824Y2318D02*
X3884Y2318D01*
X3924Y2318D02*
X3984Y2318D01*
X2322Y2317D02*
X2383Y2317D01*
X2422Y2317D02*
X2483Y2317D01*
X2522Y2317D02*
X2583Y2317D01*
X2622Y2317D02*
X2683Y2317D01*
X2722Y2317D02*
X2783Y2317D01*
X2822Y2317D02*
X2883Y2317D01*
X2922Y2317D02*
X2983Y2317D01*
X3022Y2317D02*
X3083Y2317D01*
X3224Y2317D02*
X3284Y2317D01*
X3324Y2317D02*
X3384Y2317D01*
X3424Y2317D02*
X3484Y2317D01*
X3524Y2317D02*
X3584Y2317D01*
X3624Y2317D02*
X3684Y2317D01*
X3724Y2317D02*
X3784Y2317D01*
X3824Y2317D02*
X3884Y2317D01*
X3924Y2317D02*
X3984Y2317D01*
X2322Y2316D02*
X2383Y2316D01*
X2422Y2316D02*
X2483Y2316D01*
X2522Y2316D02*
X2583Y2316D01*
X2622Y2316D02*
X2683Y2316D01*
X2722Y2316D02*
X2783Y2316D01*
X2822Y2316D02*
X2883Y2316D01*
X2922Y2316D02*
X2983Y2316D01*
X3022Y2316D02*
X3083Y2316D01*
X3224Y2316D02*
X3284Y2316D01*
X3324Y2316D02*
X3384Y2316D01*
X3424Y2316D02*
X3484Y2316D01*
X3524Y2316D02*
X3584Y2316D01*
X3624Y2316D02*
X3684Y2316D01*
X3724Y2316D02*
X3784Y2316D01*
X3824Y2316D02*
X3884Y2316D01*
X3924Y2316D02*
X3984Y2316D01*
X2322Y2315D02*
X2382Y2315D01*
X2422Y2315D02*
X2482Y2315D01*
X2522Y2315D02*
X2582Y2315D01*
X2622Y2315D02*
X2682Y2315D01*
X2722Y2315D02*
X2782Y2315D01*
X2822Y2315D02*
X2882Y2315D01*
X2922Y2315D02*
X2982Y2315D01*
X3022Y2315D02*
X3082Y2315D01*
X3224Y2315D02*
X3284Y2315D01*
X3324Y2315D02*
X3384Y2315D01*
X3424Y2315D02*
X3484Y2315D01*
X3524Y2315D02*
X3584Y2315D01*
X3624Y2315D02*
X3684Y2315D01*
X3724Y2315D02*
X3784Y2315D01*
X3824Y2315D02*
X3884Y2315D01*
X3924Y2315D02*
X3984Y2315D01*
X2322Y2314D02*
X2382Y2314D01*
X2422Y2314D02*
X2482Y2314D01*
X2522Y2314D02*
X2582Y2314D01*
X2622Y2314D02*
X2682Y2314D01*
X2722Y2314D02*
X2782Y2314D01*
X2822Y2314D02*
X2882Y2314D01*
X2922Y2314D02*
X2982Y2314D01*
X3022Y2314D02*
X3082Y2314D01*
X3224Y2314D02*
X3284Y2314D01*
X3324Y2314D02*
X3384Y2314D01*
X3424Y2314D02*
X3484Y2314D01*
X3524Y2314D02*
X3584Y2314D01*
X3624Y2314D02*
X3684Y2314D01*
X3724Y2314D02*
X3784Y2314D01*
X3824Y2314D02*
X3884Y2314D01*
X3924Y2314D02*
X3984Y2314D01*
X2322Y2313D02*
X2382Y2313D01*
X2422Y2313D02*
X2482Y2313D01*
X2522Y2313D02*
X2582Y2313D01*
X2622Y2313D02*
X2682Y2313D01*
X2722Y2313D02*
X2782Y2313D01*
X2822Y2313D02*
X2882Y2313D01*
X2922Y2313D02*
X2982Y2313D01*
X3022Y2313D02*
X3082Y2313D01*
X3225Y2313D02*
X3283Y2313D01*
X3325Y2313D02*
X3383Y2313D01*
X3425Y2313D02*
X3483Y2313D01*
X3525Y2313D02*
X3583Y2313D01*
X3625Y2313D02*
X3683Y2313D01*
X3725Y2313D02*
X3783Y2313D01*
X3825Y2313D02*
X3883Y2313D01*
X3925Y2313D02*
X3983Y2313D01*
X2322Y2312D02*
X2382Y2312D01*
X2422Y2312D02*
X2482Y2312D01*
X2522Y2312D02*
X2582Y2312D01*
X2622Y2312D02*
X2682Y2312D01*
X2722Y2312D02*
X2782Y2312D01*
X2822Y2312D02*
X2882Y2312D01*
X2922Y2312D02*
X2982Y2312D01*
X3022Y2312D02*
X3082Y2312D01*
X3225Y2312D02*
X3283Y2312D01*
X3325Y2312D02*
X3383Y2312D01*
X3425Y2312D02*
X3483Y2312D01*
X3525Y2312D02*
X3583Y2312D01*
X3625Y2312D02*
X3683Y2312D01*
X3725Y2312D02*
X3783Y2312D01*
X3825Y2312D02*
X3883Y2312D01*
X3925Y2312D02*
X3983Y2312D01*
X2323Y2311D02*
X2382Y2311D01*
X2423Y2311D02*
X2482Y2311D01*
X2523Y2311D02*
X2582Y2311D01*
X2623Y2311D02*
X2682Y2311D01*
X2723Y2311D02*
X2782Y2311D01*
X2823Y2311D02*
X2882Y2311D01*
X2923Y2311D02*
X2982Y2311D01*
X3023Y2311D02*
X3082Y2311D01*
X3225Y2311D02*
X3283Y2311D01*
X3325Y2311D02*
X3383Y2311D01*
X3425Y2311D02*
X3483Y2311D01*
X3525Y2311D02*
X3583Y2311D01*
X3625Y2311D02*
X3683Y2311D01*
X3725Y2311D02*
X3783Y2311D01*
X3825Y2311D02*
X3883Y2311D01*
X3925Y2311D02*
X3983Y2311D01*
X2323Y2310D02*
X2381Y2310D01*
X2423Y2310D02*
X2481Y2310D01*
X2523Y2310D02*
X2581Y2310D01*
X2623Y2310D02*
X2681Y2310D01*
X2723Y2310D02*
X2781Y2310D01*
X2823Y2310D02*
X2881Y2310D01*
X2923Y2310D02*
X2981Y2310D01*
X3023Y2310D02*
X3081Y2310D01*
X3226Y2310D02*
X3282Y2310D01*
X3326Y2310D02*
X3382Y2310D01*
X3426Y2310D02*
X3482Y2310D01*
X3526Y2310D02*
X3582Y2310D01*
X3626Y2310D02*
X3682Y2310D01*
X3726Y2310D02*
X3782Y2310D01*
X3826Y2310D02*
X3882Y2310D01*
X3926Y2310D02*
X3982Y2310D01*
X2323Y2309D02*
X2381Y2309D01*
X2423Y2309D02*
X2481Y2309D01*
X2523Y2309D02*
X2581Y2309D01*
X2623Y2309D02*
X2681Y2309D01*
X2723Y2309D02*
X2781Y2309D01*
X2823Y2309D02*
X2881Y2309D01*
X2923Y2309D02*
X2981Y2309D01*
X3023Y2309D02*
X3081Y2309D01*
X3226Y2309D02*
X3282Y2309D01*
X3326Y2309D02*
X3382Y2309D01*
X3426Y2309D02*
X3482Y2309D01*
X3526Y2309D02*
X3582Y2309D01*
X3626Y2309D02*
X3682Y2309D01*
X3726Y2309D02*
X3782Y2309D01*
X3826Y2309D02*
X3882Y2309D01*
X3926Y2309D02*
X3982Y2309D01*
X2324Y2308D02*
X2381Y2308D01*
X2424Y2308D02*
X2481Y2308D01*
X2524Y2308D02*
X2581Y2308D01*
X2624Y2308D02*
X2681Y2308D01*
X2724Y2308D02*
X2781Y2308D01*
X2824Y2308D02*
X2881Y2308D01*
X2924Y2308D02*
X2981Y2308D01*
X3024Y2308D02*
X3081Y2308D01*
X3227Y2308D02*
X3281Y2308D01*
X3327Y2308D02*
X3381Y2308D01*
X3427Y2308D02*
X3481Y2308D01*
X3527Y2308D02*
X3581Y2308D01*
X3627Y2308D02*
X3681Y2308D01*
X3727Y2308D02*
X3781Y2308D01*
X3827Y2308D02*
X3881Y2308D01*
X3927Y2308D02*
X3981Y2308D01*
X2324Y2307D02*
X2380Y2307D01*
X2424Y2307D02*
X2480Y2307D01*
X2524Y2307D02*
X2580Y2307D01*
X2624Y2307D02*
X2680Y2307D01*
X2724Y2307D02*
X2780Y2307D01*
X2824Y2307D02*
X2880Y2307D01*
X2924Y2307D02*
X2980Y2307D01*
X3024Y2307D02*
X3080Y2307D01*
X3227Y2307D02*
X3281Y2307D01*
X3327Y2307D02*
X3381Y2307D01*
X3427Y2307D02*
X3481Y2307D01*
X3527Y2307D02*
X3581Y2307D01*
X3627Y2307D02*
X3681Y2307D01*
X3727Y2307D02*
X3781Y2307D01*
X3827Y2307D02*
X3881Y2307D01*
X3927Y2307D02*
X3981Y2307D01*
X2325Y2306D02*
X2380Y2306D01*
X2425Y2306D02*
X2480Y2306D01*
X2525Y2306D02*
X2580Y2306D01*
X2625Y2306D02*
X2680Y2306D01*
X2725Y2306D02*
X2780Y2306D01*
X2825Y2306D02*
X2880Y2306D01*
X2925Y2306D02*
X2980Y2306D01*
X3025Y2306D02*
X3080Y2306D01*
X3228Y2306D02*
X3280Y2306D01*
X3328Y2306D02*
X3380Y2306D01*
X3428Y2306D02*
X3480Y2306D01*
X3528Y2306D02*
X3580Y2306D01*
X3628Y2306D02*
X3680Y2306D01*
X3728Y2306D02*
X3780Y2306D01*
X3828Y2306D02*
X3880Y2306D01*
X3928Y2306D02*
X3980Y2306D01*
X2325Y2305D02*
X2379Y2305D01*
X2425Y2305D02*
X2479Y2305D01*
X2525Y2305D02*
X2579Y2305D01*
X2625Y2305D02*
X2679Y2305D01*
X2725Y2305D02*
X2779Y2305D01*
X2825Y2305D02*
X2879Y2305D01*
X2925Y2305D02*
X2979Y2305D01*
X3025Y2305D02*
X3079Y2305D01*
X3228Y2305D02*
X3280Y2305D01*
X3328Y2305D02*
X3380Y2305D01*
X3428Y2305D02*
X3480Y2305D01*
X3528Y2305D02*
X3580Y2305D01*
X3628Y2305D02*
X3680Y2305D01*
X3728Y2305D02*
X3780Y2305D01*
X3828Y2305D02*
X3880Y2305D01*
X3928Y2305D02*
X3980Y2305D01*
X2326Y2304D02*
X2379Y2304D01*
X2426Y2304D02*
X2479Y2304D01*
X2526Y2304D02*
X2579Y2304D01*
X2626Y2304D02*
X2679Y2304D01*
X2726Y2304D02*
X2779Y2304D01*
X2826Y2304D02*
X2879Y2304D01*
X2926Y2304D02*
X2979Y2304D01*
X3026Y2304D02*
X3079Y2304D01*
X3229Y2304D02*
X3279Y2304D01*
X3329Y2304D02*
X3379Y2304D01*
X3429Y2304D02*
X3479Y2304D01*
X3529Y2304D02*
X3579Y2304D01*
X3629Y2304D02*
X3679Y2304D01*
X3729Y2304D02*
X3779Y2304D01*
X3829Y2304D02*
X3879Y2304D01*
X3929Y2304D02*
X3979Y2304D01*
X2326Y2303D02*
X2378Y2303D01*
X2426Y2303D02*
X2478Y2303D01*
X2526Y2303D02*
X2578Y2303D01*
X2626Y2303D02*
X2678Y2303D01*
X2726Y2303D02*
X2778Y2303D01*
X2826Y2303D02*
X2878Y2303D01*
X2926Y2303D02*
X2978Y2303D01*
X3026Y2303D02*
X3078Y2303D01*
X3230Y2303D02*
X3278Y2303D01*
X3330Y2303D02*
X3378Y2303D01*
X3430Y2303D02*
X3478Y2303D01*
X3530Y2303D02*
X3578Y2303D01*
X3630Y2303D02*
X3678Y2303D01*
X3730Y2303D02*
X3778Y2303D01*
X3830Y2303D02*
X3878Y2303D01*
X3930Y2303D02*
X3978Y2303D01*
X2327Y2302D02*
X2378Y2302D01*
X2427Y2302D02*
X2478Y2302D01*
X2527Y2302D02*
X2578Y2302D01*
X2627Y2302D02*
X2678Y2302D01*
X2727Y2302D02*
X2778Y2302D01*
X2827Y2302D02*
X2878Y2302D01*
X2927Y2302D02*
X2978Y2302D01*
X3027Y2302D02*
X3078Y2302D01*
X3230Y2302D02*
X3278Y2302D01*
X3330Y2302D02*
X3378Y2302D01*
X3430Y2302D02*
X3477Y2302D01*
X3530Y2302D02*
X3577Y2302D01*
X3630Y2302D02*
X3677Y2302D01*
X3730Y2302D02*
X3777Y2302D01*
X3830Y2302D02*
X3877Y2302D01*
X3930Y2302D02*
X3977Y2302D01*
X2328Y2301D02*
X2377Y2301D01*
X2428Y2301D02*
X2477Y2301D01*
X2528Y2301D02*
X2577Y2301D01*
X2628Y2301D02*
X2677Y2301D01*
X2728Y2301D02*
X2777Y2301D01*
X2828Y2301D02*
X2877Y2301D01*
X2928Y2301D02*
X2977Y2301D01*
X3028Y2301D02*
X3077Y2301D01*
X3231Y2301D02*
X3277Y2301D01*
X3331Y2301D02*
X3377Y2301D01*
X3431Y2301D02*
X3477Y2301D01*
X3531Y2301D02*
X3577Y2301D01*
X3631Y2301D02*
X3677Y2301D01*
X3731Y2301D02*
X3777Y2301D01*
X3831Y2301D02*
X3877Y2301D01*
X3931Y2301D02*
X3977Y2301D01*
X2328Y2300D02*
X2376Y2300D01*
X2428Y2300D02*
X2476Y2300D01*
X2528Y2300D02*
X2576Y2300D01*
X2628Y2300D02*
X2676Y2300D01*
X2728Y2300D02*
X2776Y2300D01*
X2828Y2300D02*
X2876Y2300D01*
X2928Y2300D02*
X2976Y2300D01*
X3028Y2300D02*
X3076Y2300D01*
X3232Y2300D02*
X3276Y2300D01*
X3332Y2300D02*
X3376Y2300D01*
X3432Y2300D02*
X3476Y2300D01*
X3532Y2300D02*
X3576Y2300D01*
X3632Y2300D02*
X3676Y2300D01*
X3732Y2300D02*
X3776Y2300D01*
X3832Y2300D02*
X3876Y2300D01*
X3932Y2300D02*
X3976Y2300D01*
X2329Y2299D02*
X2375Y2299D01*
X2429Y2299D02*
X2475Y2299D01*
X2529Y2299D02*
X2575Y2299D01*
X2629Y2299D02*
X2675Y2299D01*
X2729Y2299D02*
X2775Y2299D01*
X2829Y2299D02*
X2875Y2299D01*
X2929Y2299D02*
X2975Y2299D01*
X3029Y2299D02*
X3075Y2299D01*
X3233Y2299D02*
X3275Y2299D01*
X3333Y2299D02*
X3375Y2299D01*
X3433Y2299D02*
X3475Y2299D01*
X3533Y2299D02*
X3575Y2299D01*
X3633Y2299D02*
X3675Y2299D01*
X3733Y2299D02*
X3775Y2299D01*
X3833Y2299D02*
X3875Y2299D01*
X3933Y2299D02*
X3975Y2299D01*
X2330Y2298D02*
X2374Y2298D01*
X2430Y2298D02*
X2474Y2298D01*
X2530Y2298D02*
X2574Y2298D01*
X2630Y2298D02*
X2674Y2298D01*
X2730Y2298D02*
X2774Y2298D01*
X2830Y2298D02*
X2874Y2298D01*
X2930Y2298D02*
X2974Y2298D01*
X3030Y2298D02*
X3074Y2298D01*
X3234Y2298D02*
X3274Y2298D01*
X3334Y2298D02*
X3374Y2298D01*
X3434Y2298D02*
X3474Y2298D01*
X3534Y2298D02*
X3574Y2298D01*
X3634Y2298D02*
X3674Y2298D01*
X3734Y2298D02*
X3774Y2298D01*
X3834Y2298D02*
X3874Y2298D01*
X3934Y2298D02*
X3974Y2298D01*
X2331Y2297D02*
X2373Y2297D01*
X2431Y2297D02*
X2473Y2297D01*
X2531Y2297D02*
X2573Y2297D01*
X2631Y2297D02*
X2673Y2297D01*
X2731Y2297D02*
X2773Y2297D01*
X2831Y2297D02*
X2873Y2297D01*
X2931Y2297D02*
X2973Y2297D01*
X3031Y2297D02*
X3073Y2297D01*
X3235Y2297D02*
X3273Y2297D01*
X3335Y2297D02*
X3373Y2297D01*
X3435Y2297D02*
X3473Y2297D01*
X3535Y2297D02*
X3572Y2297D01*
X3635Y2297D02*
X3672Y2297D01*
X3735Y2297D02*
X3772Y2297D01*
X3835Y2297D02*
X3872Y2297D01*
X3935Y2297D02*
X3972Y2297D01*
X2332Y2296D02*
X2372Y2296D01*
X2432Y2296D02*
X2472Y2296D01*
X2532Y2296D02*
X2572Y2296D01*
X2632Y2296D02*
X2672Y2296D01*
X2732Y2296D02*
X2772Y2296D01*
X2832Y2296D02*
X2872Y2296D01*
X2932Y2296D02*
X2972Y2296D01*
X3032Y2296D02*
X3072Y2296D01*
X3237Y2296D02*
X3271Y2296D01*
X3337Y2296D02*
X3371Y2296D01*
X3437Y2296D02*
X3471Y2296D01*
X3537Y2296D02*
X3571Y2296D01*
X3637Y2296D02*
X3671Y2296D01*
X3737Y2296D02*
X3771Y2296D01*
X3837Y2296D02*
X3871Y2296D01*
X3937Y2296D02*
X3971Y2296D01*
X2333Y2295D02*
X2371Y2295D01*
X2433Y2295D02*
X2471Y2295D01*
X2533Y2295D02*
X2571Y2295D01*
X2633Y2295D02*
X2671Y2295D01*
X2733Y2295D02*
X2771Y2295D01*
X2833Y2295D02*
X2871Y2295D01*
X2933Y2295D02*
X2971Y2295D01*
X3033Y2295D02*
X3071Y2295D01*
X3238Y2295D02*
X3270Y2295D01*
X3338Y2295D02*
X3370Y2295D01*
X3438Y2295D02*
X3470Y2295D01*
X3538Y2295D02*
X3570Y2295D01*
X3638Y2295D02*
X3670Y2295D01*
X3738Y2295D02*
X3770Y2295D01*
X3838Y2295D02*
X3870Y2295D01*
X3938Y2295D02*
X3970Y2295D01*
X2334Y2294D02*
X2370Y2294D01*
X2434Y2294D02*
X2470Y2294D01*
X2534Y2294D02*
X2570Y2294D01*
X2634Y2294D02*
X2670Y2294D01*
X2734Y2294D02*
X2770Y2294D01*
X2834Y2294D02*
X2870Y2294D01*
X2934Y2294D02*
X2970Y2294D01*
X3034Y2294D02*
X3070Y2294D01*
X3240Y2294D02*
X3268Y2294D01*
X3340Y2294D02*
X3368Y2294D01*
X3440Y2294D02*
X3468Y2294D01*
X3540Y2294D02*
X3568Y2294D01*
X3640Y2294D02*
X3668Y2294D01*
X3740Y2294D02*
X3768Y2294D01*
X3840Y2294D02*
X3868Y2294D01*
X3940Y2294D02*
X3968Y2294D01*
X2336Y2293D02*
X2369Y2293D01*
X2436Y2293D02*
X2469Y2293D01*
X2536Y2293D02*
X2569Y2293D01*
X2636Y2293D02*
X2669Y2293D01*
X2736Y2293D02*
X2769Y2293D01*
X2836Y2293D02*
X2869Y2293D01*
X2936Y2293D02*
X2969Y2293D01*
X3036Y2293D02*
X3069Y2293D01*
X3242Y2293D02*
X3266Y2293D01*
X3342Y2293D02*
X3366Y2293D01*
X3442Y2293D02*
X3466Y2293D01*
X3542Y2293D02*
X3566Y2293D01*
X3642Y2293D02*
X3666Y2293D01*
X3742Y2293D02*
X3766Y2293D01*
X3842Y2293D02*
X3866Y2293D01*
X3942Y2293D02*
X3966Y2293D01*
X2337Y2292D02*
X2367Y2292D01*
X2437Y2292D02*
X2467Y2292D01*
X2537Y2292D02*
X2567Y2292D01*
X2637Y2292D02*
X2667Y2292D01*
X2737Y2292D02*
X2767Y2292D01*
X2837Y2292D02*
X2867Y2292D01*
X2937Y2292D02*
X2967Y2292D01*
X3037Y2292D02*
X3067Y2292D01*
X3244Y2292D02*
X3264Y2292D01*
X3344Y2292D02*
X3364Y2292D01*
X3444Y2292D02*
X3464Y2292D01*
X3544Y2292D02*
X3564Y2292D01*
X3644Y2292D02*
X3664Y2292D01*
X3744Y2292D02*
X3764Y2292D01*
X3844Y2292D02*
X3864Y2292D01*
X3944Y2292D02*
X3964Y2292D01*
X2339Y2291D02*
X2365Y2291D01*
X2439Y2291D02*
X2465Y2291D01*
X2539Y2291D02*
X2565Y2291D01*
X2639Y2291D02*
X2665Y2291D01*
X2739Y2291D02*
X2765Y2291D01*
X2839Y2291D02*
X2865Y2291D01*
X2939Y2291D02*
X2965Y2291D01*
X3039Y2291D02*
X3065Y2291D01*
X3247Y2291D02*
X3261Y2291D01*
X3347Y2291D02*
X3361Y2291D01*
X3447Y2291D02*
X3461Y2291D01*
X3547Y2291D02*
X3561Y2291D01*
X3647Y2291D02*
X3661Y2291D01*
X3747Y2291D02*
X3761Y2291D01*
X3847Y2291D02*
X3861Y2291D01*
X3947Y2291D02*
X3961Y2291D01*
X2341Y2290D02*
X2363Y2290D01*
X2441Y2290D02*
X2463Y2290D01*
X2541Y2290D02*
X2563Y2290D01*
X2641Y2290D02*
X2663Y2290D01*
X2741Y2290D02*
X2763Y2290D01*
X2841Y2290D02*
X2863Y2290D01*
X2941Y2290D02*
X2963Y2290D01*
X3041Y2290D02*
X3063Y2290D01*
X2344Y2289D02*
X2361Y2289D01*
X2444Y2289D02*
X2461Y2289D01*
X2544Y2289D02*
X2561Y2289D01*
X2644Y2289D02*
X2661Y2289D01*
X2744Y2289D02*
X2761Y2289D01*
X2844Y2289D02*
X2861Y2289D01*
X2944Y2289D02*
X2961Y2289D01*
X3044Y2289D02*
X3061Y2289D01*
X2348Y2288D02*
X2357Y2288D01*
X2448Y2288D02*
X2457Y2288D01*
X2548Y2288D02*
X2557Y2288D01*
X2648Y2288D02*
X2657Y2288D01*
X2748Y2288D02*
X2757Y2288D01*
X2848Y2288D02*
X2857Y2288D01*
X2948Y2288D02*
X2957Y2288D01*
X3048Y2288D02*
X3057Y2288D01*
X3253Y2104D02*
X3255Y2104D01*
X3353Y2104D02*
X3355Y2104D01*
X3453Y2104D02*
X3454Y2104D01*
X3553Y2104D02*
X3554Y2104D01*
X3653Y2104D02*
X3654Y2104D01*
X3753Y2104D02*
X3754Y2104D01*
X3853Y2104D02*
X3854Y2104D01*
X3953Y2104D02*
X3954Y2104D01*
X3247Y2103D02*
X3261Y2103D01*
X3347Y2103D02*
X3361Y2103D01*
X3447Y2103D02*
X3461Y2103D01*
X3547Y2103D02*
X3561Y2103D01*
X3647Y2103D02*
X3661Y2103D01*
X3747Y2103D02*
X3761Y2103D01*
X3847Y2103D02*
X3861Y2103D01*
X3947Y2103D02*
X3961Y2103D01*
X3244Y2102D02*
X3264Y2102D01*
X3344Y2102D02*
X3364Y2102D01*
X3444Y2102D02*
X3464Y2102D01*
X3544Y2102D02*
X3564Y2102D01*
X3644Y2102D02*
X3664Y2102D01*
X3744Y2102D02*
X3764Y2102D01*
X3844Y2102D02*
X3864Y2102D01*
X3944Y2102D02*
X3964Y2102D01*
X2347Y2101D02*
X2357Y2101D01*
X2447Y2101D02*
X2457Y2101D01*
X2547Y2101D02*
X2557Y2101D01*
X2647Y2101D02*
X2657Y2101D01*
X2747Y2101D02*
X2757Y2101D01*
X2847Y2101D02*
X2857Y2101D01*
X2947Y2101D02*
X2957Y2101D01*
X3047Y2101D02*
X3057Y2101D01*
X3242Y2101D02*
X3266Y2101D01*
X3342Y2101D02*
X3366Y2101D01*
X3442Y2101D02*
X3466Y2101D01*
X3542Y2101D02*
X3566Y2101D01*
X3642Y2101D02*
X3666Y2101D01*
X3742Y2101D02*
X3766Y2101D01*
X3842Y2101D02*
X3866Y2101D01*
X3942Y2101D02*
X3966Y2101D01*
X2343Y2100D02*
X2361Y2100D01*
X2443Y2100D02*
X2461Y2100D01*
X2543Y2100D02*
X2561Y2100D01*
X2643Y2100D02*
X2661Y2100D01*
X2743Y2100D02*
X2761Y2100D01*
X2843Y2100D02*
X2861Y2100D01*
X2943Y2100D02*
X2961Y2100D01*
X3043Y2100D02*
X3061Y2100D01*
X3240Y2100D02*
X3268Y2100D01*
X3340Y2100D02*
X3368Y2100D01*
X3440Y2100D02*
X3468Y2100D01*
X3540Y2100D02*
X3568Y2100D01*
X3640Y2100D02*
X3668Y2100D01*
X3740Y2100D02*
X3768Y2100D01*
X3840Y2100D02*
X3868Y2100D01*
X3940Y2100D02*
X3968Y2100D01*
X2341Y2099D02*
X2364Y2099D01*
X2441Y2099D02*
X2464Y2099D01*
X2541Y2099D02*
X2564Y2099D01*
X2641Y2099D02*
X2664Y2099D01*
X2741Y2099D02*
X2764Y2099D01*
X2841Y2099D02*
X2863Y2099D01*
X2941Y2099D02*
X2963Y2099D01*
X3041Y2099D02*
X3063Y2099D01*
X3238Y2099D02*
X3270Y2099D01*
X3338Y2099D02*
X3370Y2099D01*
X3438Y2099D02*
X3470Y2099D01*
X3538Y2099D02*
X3570Y2099D01*
X3638Y2099D02*
X3670Y2099D01*
X3738Y2099D02*
X3770Y2099D01*
X3838Y2099D02*
X3870Y2099D01*
X3938Y2099D02*
X3970Y2099D01*
X2339Y2098D02*
X2366Y2098D01*
X2439Y2098D02*
X2466Y2098D01*
X2539Y2098D02*
X2566Y2098D01*
X2639Y2098D02*
X2666Y2098D01*
X2739Y2098D02*
X2766Y2098D01*
X2839Y2098D02*
X2866Y2098D01*
X2939Y2098D02*
X2966Y2098D01*
X3039Y2098D02*
X3066Y2098D01*
X3237Y2098D02*
X3271Y2098D01*
X3337Y2098D02*
X3371Y2098D01*
X3437Y2098D02*
X3471Y2098D01*
X3537Y2098D02*
X3571Y2098D01*
X3637Y2098D02*
X3671Y2098D01*
X3737Y2098D02*
X3771Y2098D01*
X3837Y2098D02*
X3871Y2098D01*
X3937Y2098D02*
X3971Y2098D01*
X2337Y2097D02*
X2367Y2097D01*
X2437Y2097D02*
X2467Y2097D01*
X2537Y2097D02*
X2567Y2097D01*
X2637Y2097D02*
X2667Y2097D01*
X2737Y2097D02*
X2767Y2097D01*
X2837Y2097D02*
X2867Y2097D01*
X2937Y2097D02*
X2967Y2097D01*
X3037Y2097D02*
X3067Y2097D01*
X3235Y2097D02*
X3273Y2097D01*
X3335Y2097D02*
X3373Y2097D01*
X3435Y2097D02*
X3473Y2097D01*
X3535Y2097D02*
X3573Y2097D01*
X3635Y2097D02*
X3673Y2097D01*
X3735Y2097D02*
X3773Y2097D01*
X3835Y2097D02*
X3873Y2097D01*
X3935Y2097D02*
X3973Y2097D01*
X2336Y2096D02*
X2369Y2096D01*
X2436Y2096D02*
X2469Y2096D01*
X2536Y2096D02*
X2569Y2096D01*
X2636Y2096D02*
X2669Y2096D01*
X2736Y2096D02*
X2769Y2096D01*
X2836Y2096D02*
X2869Y2096D01*
X2936Y2096D02*
X2969Y2096D01*
X3036Y2096D02*
X3069Y2096D01*
X3234Y2096D02*
X3274Y2096D01*
X3334Y2096D02*
X3374Y2096D01*
X3434Y2096D02*
X3474Y2096D01*
X3534Y2096D02*
X3574Y2096D01*
X3634Y2096D02*
X3674Y2096D01*
X3734Y2096D02*
X3774Y2096D01*
X3834Y2096D02*
X3874Y2096D01*
X3934Y2096D02*
X3974Y2096D01*
X2334Y2095D02*
X2370Y2095D01*
X2434Y2095D02*
X2470Y2095D01*
X2534Y2095D02*
X2570Y2095D01*
X2634Y2095D02*
X2670Y2095D01*
X2734Y2095D02*
X2770Y2095D01*
X2834Y2095D02*
X2870Y2095D01*
X2934Y2095D02*
X2970Y2095D01*
X3034Y2095D02*
X3070Y2095D01*
X3233Y2095D02*
X3275Y2095D01*
X3333Y2095D02*
X3375Y2095D01*
X3433Y2095D02*
X3475Y2095D01*
X3533Y2095D02*
X3575Y2095D01*
X3633Y2095D02*
X3675Y2095D01*
X3733Y2095D02*
X3775Y2095D01*
X3833Y2095D02*
X3875Y2095D01*
X3933Y2095D02*
X3975Y2095D01*
X2333Y2094D02*
X2371Y2094D01*
X2433Y2094D02*
X2471Y2094D01*
X2533Y2094D02*
X2571Y2094D01*
X2633Y2094D02*
X2671Y2094D01*
X2733Y2094D02*
X2771Y2094D01*
X2833Y2094D02*
X2871Y2094D01*
X2933Y2094D02*
X2971Y2094D01*
X3033Y2094D02*
X3071Y2094D01*
X3232Y2094D02*
X3276Y2094D01*
X3332Y2094D02*
X3376Y2094D01*
X3432Y2094D02*
X3476Y2094D01*
X3532Y2094D02*
X3576Y2094D01*
X3632Y2094D02*
X3676Y2094D01*
X3732Y2094D02*
X3776Y2094D01*
X3832Y2094D02*
X3876Y2094D01*
X3932Y2094D02*
X3976Y2094D01*
X2332Y2093D02*
X2373Y2093D01*
X2432Y2093D02*
X2473Y2093D01*
X2532Y2093D02*
X2573Y2093D01*
X2632Y2093D02*
X2673Y2093D01*
X2732Y2093D02*
X2773Y2093D01*
X2832Y2093D02*
X2873Y2093D01*
X2932Y2093D02*
X2973Y2093D01*
X3032Y2093D02*
X3073Y2093D01*
X3231Y2093D02*
X3277Y2093D01*
X3331Y2093D02*
X3377Y2093D01*
X3431Y2093D02*
X3477Y2093D01*
X3531Y2093D02*
X3577Y2093D01*
X3631Y2093D02*
X3677Y2093D01*
X3731Y2093D02*
X3777Y2093D01*
X3831Y2093D02*
X3877Y2093D01*
X3931Y2093D02*
X3977Y2093D01*
X2331Y2092D02*
X2374Y2092D01*
X2431Y2092D02*
X2474Y2092D01*
X2531Y2092D02*
X2574Y2092D01*
X2631Y2092D02*
X2674Y2092D01*
X2731Y2092D02*
X2774Y2092D01*
X2831Y2092D02*
X2874Y2092D01*
X2931Y2092D02*
X2974Y2092D01*
X3031Y2092D02*
X3074Y2092D01*
X3230Y2092D02*
X3278Y2092D01*
X3330Y2092D02*
X3378Y2092D01*
X3430Y2092D02*
X3478Y2092D01*
X3530Y2092D02*
X3578Y2092D01*
X3630Y2092D02*
X3678Y2092D01*
X3730Y2092D02*
X3777Y2092D01*
X3830Y2092D02*
X3877Y2092D01*
X3930Y2092D02*
X3977Y2092D01*
X2330Y2091D02*
X2375Y2091D01*
X2430Y2091D02*
X2475Y2091D01*
X2530Y2091D02*
X2575Y2091D01*
X2630Y2091D02*
X2675Y2091D01*
X2730Y2091D02*
X2775Y2091D01*
X2830Y2091D02*
X2874Y2091D01*
X2930Y2091D02*
X2974Y2091D01*
X3030Y2091D02*
X3074Y2091D01*
X3230Y2091D02*
X3278Y2091D01*
X3330Y2091D02*
X3378Y2091D01*
X3430Y2091D02*
X3478Y2091D01*
X3530Y2091D02*
X3578Y2091D01*
X3630Y2091D02*
X3678Y2091D01*
X3730Y2091D02*
X3778Y2091D01*
X3830Y2091D02*
X3878Y2091D01*
X3930Y2091D02*
X3978Y2091D01*
X2329Y2090D02*
X2375Y2090D01*
X2429Y2090D02*
X2475Y2090D01*
X2529Y2090D02*
X2575Y2090D01*
X2629Y2090D02*
X2675Y2090D01*
X2729Y2090D02*
X2775Y2090D01*
X2829Y2090D02*
X2875Y2090D01*
X2929Y2090D02*
X2975Y2090D01*
X3029Y2090D02*
X3075Y2090D01*
X3229Y2090D02*
X3279Y2090D01*
X3329Y2090D02*
X3379Y2090D01*
X3429Y2090D02*
X3479Y2090D01*
X3529Y2090D02*
X3579Y2090D01*
X3629Y2090D02*
X3679Y2090D01*
X3729Y2090D02*
X3779Y2090D01*
X3829Y2090D02*
X3879Y2090D01*
X3929Y2090D02*
X3979Y2090D01*
X2328Y2089D02*
X2376Y2089D01*
X2428Y2089D02*
X2476Y2089D01*
X2528Y2089D02*
X2576Y2089D01*
X2628Y2089D02*
X2676Y2089D01*
X2728Y2089D02*
X2776Y2089D01*
X2828Y2089D02*
X2876Y2089D01*
X2928Y2089D02*
X2976Y2089D01*
X3028Y2089D02*
X3076Y2089D01*
X3228Y2089D02*
X3280Y2089D01*
X3328Y2089D02*
X3380Y2089D01*
X3428Y2089D02*
X3480Y2089D01*
X3528Y2089D02*
X3580Y2089D01*
X3628Y2089D02*
X3680Y2089D01*
X3728Y2089D02*
X3780Y2089D01*
X3828Y2089D02*
X3880Y2089D01*
X3928Y2089D02*
X3980Y2089D01*
X2327Y2088D02*
X2377Y2088D01*
X2427Y2088D02*
X2477Y2088D01*
X2527Y2088D02*
X2577Y2088D01*
X2627Y2088D02*
X2677Y2088D01*
X2727Y2088D02*
X2777Y2088D01*
X2827Y2088D02*
X2877Y2088D01*
X2927Y2088D02*
X2977Y2088D01*
X3027Y2088D02*
X3077Y2088D01*
X3228Y2088D02*
X3280Y2088D01*
X3328Y2088D02*
X3380Y2088D01*
X3428Y2088D02*
X3480Y2088D01*
X3528Y2088D02*
X3580Y2088D01*
X3628Y2088D02*
X3680Y2088D01*
X3728Y2088D02*
X3780Y2088D01*
X3828Y2088D02*
X3880Y2088D01*
X3928Y2088D02*
X3980Y2088D01*
X2327Y2087D02*
X2378Y2087D01*
X2427Y2087D02*
X2478Y2087D01*
X2527Y2087D02*
X2578Y2087D01*
X2627Y2087D02*
X2678Y2087D01*
X2727Y2087D02*
X2778Y2087D01*
X2827Y2087D02*
X2878Y2087D01*
X2927Y2087D02*
X2978Y2087D01*
X3027Y2087D02*
X3078Y2087D01*
X3227Y2087D02*
X3281Y2087D01*
X3327Y2087D02*
X3381Y2087D01*
X3427Y2087D02*
X3481Y2087D01*
X3527Y2087D02*
X3581Y2087D01*
X3627Y2087D02*
X3681Y2087D01*
X3727Y2087D02*
X3781Y2087D01*
X3827Y2087D02*
X3881Y2087D01*
X3927Y2087D02*
X3981Y2087D01*
X2326Y2086D02*
X2378Y2086D01*
X2426Y2086D02*
X2478Y2086D01*
X2526Y2086D02*
X2578Y2086D01*
X2626Y2086D02*
X2678Y2086D01*
X2726Y2086D02*
X2778Y2086D01*
X2826Y2086D02*
X2878Y2086D01*
X2926Y2086D02*
X2978Y2086D01*
X3026Y2086D02*
X3078Y2086D01*
X3227Y2086D02*
X3281Y2086D01*
X3327Y2086D02*
X3381Y2086D01*
X3427Y2086D02*
X3481Y2086D01*
X3527Y2086D02*
X3581Y2086D01*
X3627Y2086D02*
X3681Y2086D01*
X3727Y2086D02*
X3781Y2086D01*
X3827Y2086D02*
X3881Y2086D01*
X3927Y2086D02*
X3981Y2086D01*
X2326Y2085D02*
X2379Y2085D01*
X2426Y2085D02*
X2479Y2085D01*
X2526Y2085D02*
X2579Y2085D01*
X2626Y2085D02*
X2679Y2085D01*
X2726Y2085D02*
X2779Y2085D01*
X2826Y2085D02*
X2879Y2085D01*
X2926Y2085D02*
X2979Y2085D01*
X3026Y2085D02*
X3079Y2085D01*
X3226Y2085D02*
X3282Y2085D01*
X3326Y2085D02*
X3382Y2085D01*
X3426Y2085D02*
X3482Y2085D01*
X3526Y2085D02*
X3582Y2085D01*
X3626Y2085D02*
X3682Y2085D01*
X3726Y2085D02*
X3782Y2085D01*
X3826Y2085D02*
X3882Y2085D01*
X3926Y2085D02*
X3982Y2085D01*
X2325Y2084D02*
X2379Y2084D01*
X2425Y2084D02*
X2479Y2084D01*
X2525Y2084D02*
X2579Y2084D01*
X2625Y2084D02*
X2679Y2084D01*
X2725Y2084D02*
X2779Y2084D01*
X2825Y2084D02*
X2879Y2084D01*
X2925Y2084D02*
X2979Y2084D01*
X3025Y2084D02*
X3079Y2084D01*
X3226Y2084D02*
X3282Y2084D01*
X3326Y2084D02*
X3382Y2084D01*
X3426Y2084D02*
X3482Y2084D01*
X3526Y2084D02*
X3582Y2084D01*
X3626Y2084D02*
X3682Y2084D01*
X3726Y2084D02*
X3782Y2084D01*
X3826Y2084D02*
X3882Y2084D01*
X3926Y2084D02*
X3982Y2084D01*
X2325Y2083D02*
X2380Y2083D01*
X2425Y2083D02*
X2480Y2083D01*
X2525Y2083D02*
X2580Y2083D01*
X2625Y2083D02*
X2680Y2083D01*
X2725Y2083D02*
X2780Y2083D01*
X2825Y2083D02*
X2880Y2083D01*
X2925Y2083D02*
X2980Y2083D01*
X3024Y2083D02*
X3080Y2083D01*
X3225Y2083D02*
X3283Y2083D01*
X3325Y2083D02*
X3383Y2083D01*
X3425Y2083D02*
X3483Y2083D01*
X3525Y2083D02*
X3583Y2083D01*
X3625Y2083D02*
X3683Y2083D01*
X3725Y2083D02*
X3783Y2083D01*
X3825Y2083D02*
X3883Y2083D01*
X3925Y2083D02*
X3983Y2083D01*
X2324Y2082D02*
X2380Y2082D01*
X2424Y2082D02*
X2480Y2082D01*
X2524Y2082D02*
X2580Y2082D01*
X2624Y2082D02*
X2680Y2082D01*
X2724Y2082D02*
X2780Y2082D01*
X2824Y2082D02*
X2880Y2082D01*
X2924Y2082D02*
X2980Y2082D01*
X3024Y2082D02*
X3080Y2082D01*
X3225Y2082D02*
X3283Y2082D01*
X3325Y2082D02*
X3383Y2082D01*
X3425Y2082D02*
X3483Y2082D01*
X3525Y2082D02*
X3583Y2082D01*
X3625Y2082D02*
X3683Y2082D01*
X3725Y2082D02*
X3783Y2082D01*
X3825Y2082D02*
X3883Y2082D01*
X3925Y2082D02*
X3983Y2082D01*
X2324Y2081D02*
X2381Y2081D01*
X2424Y2081D02*
X2481Y2081D01*
X2524Y2081D02*
X2581Y2081D01*
X2624Y2081D02*
X2681Y2081D01*
X2724Y2081D02*
X2781Y2081D01*
X2824Y2081D02*
X2881Y2081D01*
X2924Y2081D02*
X2981Y2081D01*
X3024Y2081D02*
X3081Y2081D01*
X3225Y2081D02*
X3283Y2081D01*
X3325Y2081D02*
X3383Y2081D01*
X3425Y2081D02*
X3483Y2081D01*
X3525Y2081D02*
X3583Y2081D01*
X3625Y2081D02*
X3683Y2081D01*
X3725Y2081D02*
X3783Y2081D01*
X3825Y2081D02*
X3883Y2081D01*
X3925Y2081D02*
X3983Y2081D01*
X2323Y2080D02*
X2381Y2080D01*
X2423Y2080D02*
X2481Y2080D01*
X2523Y2080D02*
X2581Y2080D01*
X2623Y2080D02*
X2681Y2080D01*
X2723Y2080D02*
X2781Y2080D01*
X2823Y2080D02*
X2881Y2080D01*
X2923Y2080D02*
X2981Y2080D01*
X3023Y2080D02*
X3081Y2080D01*
X3224Y2080D02*
X3284Y2080D01*
X3324Y2080D02*
X3384Y2080D01*
X3424Y2080D02*
X3484Y2080D01*
X3524Y2080D02*
X3584Y2080D01*
X3624Y2080D02*
X3684Y2080D01*
X3724Y2080D02*
X3784Y2080D01*
X3824Y2080D02*
X3884Y2080D01*
X3924Y2080D02*
X3984Y2080D01*
X2323Y2079D02*
X2381Y2079D01*
X2423Y2079D02*
X2481Y2079D01*
X2523Y2079D02*
X2581Y2079D01*
X2623Y2079D02*
X2681Y2079D01*
X2723Y2079D02*
X2781Y2079D01*
X2823Y2079D02*
X2881Y2079D01*
X2923Y2079D02*
X2981Y2079D01*
X3023Y2079D02*
X3081Y2079D01*
X3224Y2079D02*
X3284Y2079D01*
X3324Y2079D02*
X3384Y2079D01*
X3424Y2079D02*
X3484Y2079D01*
X3524Y2079D02*
X3584Y2079D01*
X3624Y2079D02*
X3684Y2079D01*
X3724Y2079D02*
X3784Y2079D01*
X3824Y2079D02*
X3884Y2079D01*
X3924Y2079D02*
X3984Y2079D01*
X2323Y2078D02*
X2382Y2078D01*
X2423Y2078D02*
X2482Y2078D01*
X2523Y2078D02*
X2582Y2078D01*
X2623Y2078D02*
X2682Y2078D01*
X2723Y2078D02*
X2782Y2078D01*
X2823Y2078D02*
X2882Y2078D01*
X2923Y2078D02*
X2982Y2078D01*
X3023Y2078D02*
X3082Y2078D01*
X3224Y2078D02*
X3284Y2078D01*
X3324Y2078D02*
X3384Y2078D01*
X3424Y2078D02*
X3484Y2078D01*
X3524Y2078D02*
X3584Y2078D01*
X3624Y2078D02*
X3684Y2078D01*
X3724Y2078D02*
X3784Y2078D01*
X3824Y2078D02*
X3884Y2078D01*
X3924Y2078D02*
X3984Y2078D01*
X2322Y2077D02*
X2382Y2077D01*
X2422Y2077D02*
X2482Y2077D01*
X2522Y2077D02*
X2582Y2077D01*
X2622Y2077D02*
X2682Y2077D01*
X2722Y2077D02*
X2782Y2077D01*
X2822Y2077D02*
X2882Y2077D01*
X2922Y2077D02*
X2982Y2077D01*
X3022Y2077D02*
X3082Y2077D01*
X3224Y2077D02*
X3284Y2077D01*
X3324Y2077D02*
X3384Y2077D01*
X3424Y2077D02*
X3484Y2077D01*
X3524Y2077D02*
X3584Y2077D01*
X3624Y2077D02*
X3684Y2077D01*
X3724Y2077D02*
X3784Y2077D01*
X3824Y2077D02*
X3884Y2077D01*
X3924Y2077D02*
X3984Y2077D01*
X2322Y2076D02*
X2382Y2076D01*
X2422Y2076D02*
X2482Y2076D01*
X2522Y2076D02*
X2582Y2076D01*
X2622Y2076D02*
X2682Y2076D01*
X2722Y2076D02*
X2782Y2076D01*
X2822Y2076D02*
X2882Y2076D01*
X2922Y2076D02*
X2982Y2076D01*
X3022Y2076D02*
X3082Y2076D01*
X3224Y2076D02*
X3284Y2076D01*
X3324Y2076D02*
X3384Y2076D01*
X3424Y2076D02*
X3484Y2076D01*
X3524Y2076D02*
X3584Y2076D01*
X3624Y2076D02*
X3684Y2076D01*
X3724Y2076D02*
X3784Y2076D01*
X3824Y2076D02*
X3884Y2076D01*
X3924Y2076D02*
X3984Y2076D01*
X2322Y2075D02*
X2382Y2075D01*
X2422Y2075D02*
X2482Y2075D01*
X2522Y2075D02*
X2582Y2075D01*
X2622Y2075D02*
X2682Y2075D01*
X2722Y2075D02*
X2782Y2075D01*
X2822Y2075D02*
X2882Y2075D01*
X2922Y2075D02*
X2982Y2075D01*
X3022Y2075D02*
X3082Y2075D01*
X3224Y2075D02*
X3284Y2075D01*
X3324Y2075D02*
X3384Y2075D01*
X3424Y2075D02*
X3484Y2075D01*
X3524Y2075D02*
X3584Y2075D01*
X3624Y2075D02*
X3684Y2075D01*
X3724Y2075D02*
X3784Y2075D01*
X3823Y2075D02*
X3884Y2075D01*
X3923Y2075D02*
X3984Y2075D01*
X2322Y2074D02*
X2383Y2074D01*
X2422Y2074D02*
X2483Y2074D01*
X2522Y2074D02*
X2582Y2074D01*
X2622Y2074D02*
X2682Y2074D01*
X2722Y2074D02*
X2782Y2074D01*
X2822Y2074D02*
X2882Y2074D01*
X2922Y2074D02*
X2982Y2074D01*
X3022Y2074D02*
X3082Y2074D01*
X3223Y2074D02*
X3284Y2074D01*
X3323Y2074D02*
X3384Y2074D01*
X3423Y2074D02*
X3484Y2074D01*
X3523Y2074D02*
X3584Y2074D01*
X3623Y2074D02*
X3684Y2074D01*
X3723Y2074D02*
X3784Y2074D01*
X3823Y2074D02*
X3884Y2074D01*
X3923Y2074D02*
X3984Y2074D01*
X2322Y2073D02*
X2383Y2073D01*
X2422Y2073D02*
X2483Y2073D01*
X2522Y2073D02*
X2583Y2073D01*
X2622Y2073D02*
X2683Y2073D01*
X2722Y2073D02*
X2783Y2073D01*
X2822Y2073D02*
X2883Y2073D01*
X2922Y2073D02*
X2983Y2073D01*
X3022Y2073D02*
X3083Y2073D01*
X3223Y2073D02*
X3284Y2073D01*
X3323Y2073D02*
X3384Y2073D01*
X3423Y2073D02*
X3484Y2073D01*
X3523Y2073D02*
X3584Y2073D01*
X3623Y2073D02*
X3684Y2073D01*
X3723Y2073D02*
X3784Y2073D01*
X3823Y2073D02*
X3884Y2073D01*
X3923Y2073D02*
X3984Y2073D01*
X2322Y2072D02*
X2383Y2072D01*
X2422Y2072D02*
X2483Y2072D01*
X2522Y2072D02*
X2583Y2072D01*
X2622Y2072D02*
X2683Y2072D01*
X2722Y2072D02*
X2783Y2072D01*
X2822Y2072D02*
X2883Y2072D01*
X2922Y2072D02*
X2983Y2072D01*
X3022Y2072D02*
X3083Y2072D01*
X3223Y2072D02*
X3284Y2072D01*
X3323Y2072D02*
X3384Y2072D01*
X3423Y2072D02*
X3484Y2072D01*
X3523Y2072D02*
X3584Y2072D01*
X3623Y2072D02*
X3684Y2072D01*
X3723Y2072D02*
X3784Y2072D01*
X3823Y2072D02*
X3884Y2072D01*
X3923Y2072D02*
X3984Y2072D01*
X2322Y2071D02*
X2383Y2071D01*
X2422Y2071D02*
X2483Y2071D01*
X2522Y2071D02*
X2583Y2071D01*
X2622Y2071D02*
X2683Y2071D01*
X2722Y2071D02*
X2783Y2071D01*
X2822Y2071D02*
X2883Y2071D01*
X2922Y2071D02*
X2983Y2071D01*
X3022Y2071D02*
X3083Y2071D01*
X3223Y2071D02*
X3284Y2071D01*
X3323Y2071D02*
X3384Y2071D01*
X3423Y2071D02*
X3484Y2071D01*
X3523Y2071D02*
X3584Y2071D01*
X3623Y2071D02*
X3684Y2071D01*
X3723Y2071D02*
X3784Y2071D01*
X3823Y2071D02*
X3884Y2071D01*
X3923Y2071D02*
X3984Y2071D01*
X2322Y2070D02*
X2383Y2070D01*
X2422Y2070D02*
X2483Y2070D01*
X2522Y2070D02*
X2583Y2070D01*
X2622Y2070D02*
X2683Y2070D01*
X2722Y2070D02*
X2783Y2070D01*
X2822Y2070D02*
X2883Y2070D01*
X2922Y2070D02*
X2983Y2070D01*
X3022Y2070D02*
X3083Y2070D01*
X3223Y2070D02*
X3284Y2070D01*
X3323Y2070D02*
X3384Y2070D01*
X3423Y2070D02*
X3484Y2070D01*
X3523Y2070D02*
X3584Y2070D01*
X3623Y2070D02*
X3684Y2070D01*
X3723Y2070D02*
X3784Y2070D01*
X3823Y2070D02*
X3884Y2070D01*
X3923Y2070D02*
X3984Y2070D01*
X2322Y2069D02*
X2383Y2069D01*
X2422Y2069D02*
X2483Y2069D01*
X2522Y2069D02*
X2583Y2069D01*
X2622Y2069D02*
X2683Y2069D01*
X2722Y2069D02*
X2783Y2069D01*
X2822Y2069D02*
X2883Y2069D01*
X2922Y2069D02*
X2983Y2069D01*
X3022Y2069D02*
X3083Y2069D01*
X3223Y2069D02*
X3284Y2069D01*
X3323Y2069D02*
X3384Y2069D01*
X3423Y2069D02*
X3484Y2069D01*
X3523Y2069D02*
X3584Y2069D01*
X3623Y2069D02*
X3684Y2069D01*
X3723Y2069D02*
X3784Y2069D01*
X3823Y2069D02*
X3884Y2069D01*
X3923Y2069D02*
X3984Y2069D01*
X2322Y2068D02*
X2383Y2068D01*
X2422Y2068D02*
X2483Y2068D01*
X2522Y2068D02*
X2583Y2068D01*
X2622Y2068D02*
X2683Y2068D01*
X2722Y2068D02*
X2783Y2068D01*
X2822Y2068D02*
X2883Y2068D01*
X2922Y2068D02*
X2983Y2068D01*
X3022Y2068D02*
X3083Y2068D01*
X3223Y2068D02*
X3284Y2068D01*
X3323Y2068D02*
X3384Y2068D01*
X3423Y2068D02*
X3484Y2068D01*
X3523Y2068D02*
X3584Y2068D01*
X3623Y2068D02*
X3684Y2068D01*
X3723Y2068D02*
X3784Y2068D01*
X3823Y2068D02*
X3884Y2068D01*
X3923Y2068D02*
X3984Y2068D01*
X2322Y2067D02*
X2383Y2067D01*
X2422Y2067D02*
X2483Y2067D01*
X2522Y2067D02*
X2583Y2067D01*
X2622Y2067D02*
X2683Y2067D01*
X2722Y2067D02*
X2783Y2067D01*
X2822Y2067D02*
X2883Y2067D01*
X2922Y2067D02*
X2983Y2067D01*
X3022Y2067D02*
X3083Y2067D01*
X3223Y2067D02*
X3284Y2067D01*
X3323Y2067D02*
X3384Y2067D01*
X3423Y2067D02*
X3484Y2067D01*
X3523Y2067D02*
X3584Y2067D01*
X3623Y2067D02*
X3684Y2067D01*
X3723Y2067D02*
X3784Y2067D01*
X3823Y2067D02*
X3884Y2067D01*
X3923Y2067D02*
X3984Y2067D01*
X2322Y2066D02*
X2383Y2066D01*
X2422Y2066D02*
X2483Y2066D01*
X2522Y2066D02*
X2583Y2066D01*
X2622Y2066D02*
X2683Y2066D01*
X2722Y2066D02*
X2783Y2066D01*
X2822Y2066D02*
X2883Y2066D01*
X2922Y2066D02*
X2983Y2066D01*
X3022Y2066D02*
X3083Y2066D01*
X3223Y2066D02*
X3284Y2066D01*
X3323Y2066D02*
X3384Y2066D01*
X3423Y2066D02*
X3484Y2066D01*
X3523Y2066D02*
X3584Y2066D01*
X3623Y2066D02*
X3684Y2066D01*
X3723Y2066D02*
X3784Y2066D01*
X3823Y2066D02*
X3884Y2066D01*
X3923Y2066D02*
X3984Y2066D01*
X2322Y2065D02*
X2383Y2065D01*
X2422Y2065D02*
X2483Y2065D01*
X2522Y2065D02*
X2583Y2065D01*
X2622Y2065D02*
X2683Y2065D01*
X2722Y2065D02*
X2783Y2065D01*
X2822Y2065D02*
X2883Y2065D01*
X2922Y2065D02*
X2983Y2065D01*
X3022Y2065D02*
X3083Y2065D01*
X3223Y2065D02*
X3284Y2065D01*
X3323Y2065D02*
X3384Y2065D01*
X3423Y2065D02*
X3484Y2065D01*
X3523Y2065D02*
X3584Y2065D01*
X3623Y2065D02*
X3684Y2065D01*
X3723Y2065D02*
X3784Y2065D01*
X3823Y2065D02*
X3884Y2065D01*
X3923Y2065D02*
X3984Y2065D01*
X2322Y2064D02*
X2383Y2064D01*
X2422Y2064D02*
X2483Y2064D01*
X2522Y2064D02*
X2583Y2064D01*
X2622Y2064D02*
X2683Y2064D01*
X2722Y2064D02*
X2783Y2064D01*
X2822Y2064D02*
X2883Y2064D01*
X2922Y2064D02*
X2983Y2064D01*
X3022Y2064D02*
X3083Y2064D01*
X3223Y2064D02*
X3284Y2064D01*
X3323Y2064D02*
X3384Y2064D01*
X3423Y2064D02*
X3484Y2064D01*
X3523Y2064D02*
X3584Y2064D01*
X3623Y2064D02*
X3684Y2064D01*
X3723Y2064D02*
X3784Y2064D01*
X3823Y2064D02*
X3884Y2064D01*
X3923Y2064D02*
X3984Y2064D01*
X2322Y2063D02*
X2383Y2063D01*
X2422Y2063D02*
X2483Y2063D01*
X2522Y2063D02*
X2583Y2063D01*
X2622Y2063D02*
X2683Y2063D01*
X2722Y2063D02*
X2783Y2063D01*
X2822Y2063D02*
X2883Y2063D01*
X2922Y2063D02*
X2983Y2063D01*
X3022Y2063D02*
X3083Y2063D01*
X3223Y2063D02*
X3284Y2063D01*
X3323Y2063D02*
X3384Y2063D01*
X3423Y2063D02*
X3484Y2063D01*
X3523Y2063D02*
X3584Y2063D01*
X3623Y2063D02*
X3684Y2063D01*
X3723Y2063D02*
X3784Y2063D01*
X3823Y2063D02*
X3884Y2063D01*
X3923Y2063D02*
X3984Y2063D01*
X2322Y2062D02*
X2383Y2062D01*
X2422Y2062D02*
X2483Y2062D01*
X2522Y2062D02*
X2583Y2062D01*
X2622Y2062D02*
X2683Y2062D01*
X2722Y2062D02*
X2783Y2062D01*
X2822Y2062D02*
X2883Y2062D01*
X2922Y2062D02*
X2983Y2062D01*
X3022Y2062D02*
X3083Y2062D01*
X3223Y2062D02*
X3284Y2062D01*
X3323Y2062D02*
X3384Y2062D01*
X3423Y2062D02*
X3484Y2062D01*
X3523Y2062D02*
X3584Y2062D01*
X3623Y2062D02*
X3684Y2062D01*
X3723Y2062D02*
X3784Y2062D01*
X3823Y2062D02*
X3884Y2062D01*
X3923Y2062D02*
X3984Y2062D01*
X2322Y2061D02*
X2383Y2061D01*
X2422Y2061D02*
X2483Y2061D01*
X2522Y2061D02*
X2583Y2061D01*
X2622Y2061D02*
X2683Y2061D01*
X2722Y2061D02*
X2783Y2061D01*
X2822Y2061D02*
X2883Y2061D01*
X2922Y2061D02*
X2983Y2061D01*
X3022Y2061D02*
X3083Y2061D01*
X3223Y2061D02*
X3284Y2061D01*
X3323Y2061D02*
X3384Y2061D01*
X3423Y2061D02*
X3484Y2061D01*
X3523Y2061D02*
X3584Y2061D01*
X3623Y2061D02*
X3684Y2061D01*
X3723Y2061D02*
X3784Y2061D01*
X3823Y2061D02*
X3884Y2061D01*
X3923Y2061D02*
X3984Y2061D01*
X2322Y2060D02*
X2383Y2060D01*
X2422Y2060D02*
X2483Y2060D01*
X2522Y2060D02*
X2583Y2060D01*
X2622Y2060D02*
X2683Y2060D01*
X2722Y2060D02*
X2783Y2060D01*
X2822Y2060D02*
X2883Y2060D01*
X2922Y2060D02*
X2983Y2060D01*
X3022Y2060D02*
X3083Y2060D01*
X3223Y2060D02*
X3284Y2060D01*
X3323Y2060D02*
X3384Y2060D01*
X3423Y2060D02*
X3484Y2060D01*
X3523Y2060D02*
X3584Y2060D01*
X3623Y2060D02*
X3684Y2060D01*
X3723Y2060D02*
X3784Y2060D01*
X3823Y2060D02*
X3884Y2060D01*
X3923Y2060D02*
X3984Y2060D01*
X2322Y2059D02*
X2383Y2059D01*
X2422Y2059D02*
X2483Y2059D01*
X2522Y2059D02*
X2583Y2059D01*
X2622Y2059D02*
X2683Y2059D01*
X2722Y2059D02*
X2783Y2059D01*
X2822Y2059D02*
X2883Y2059D01*
X2922Y2059D02*
X2983Y2059D01*
X3022Y2059D02*
X3083Y2059D01*
X3223Y2059D02*
X3284Y2059D01*
X3323Y2059D02*
X3384Y2059D01*
X3423Y2059D02*
X3484Y2059D01*
X3523Y2059D02*
X3584Y2059D01*
X3623Y2059D02*
X3684Y2059D01*
X3723Y2059D02*
X3784Y2059D01*
X3823Y2059D02*
X3884Y2059D01*
X3923Y2059D02*
X3984Y2059D01*
X2322Y2058D02*
X2383Y2058D01*
X2422Y2058D02*
X2483Y2058D01*
X2522Y2058D02*
X2583Y2058D01*
X2622Y2058D02*
X2683Y2058D01*
X2722Y2058D02*
X2783Y2058D01*
X2822Y2058D02*
X2883Y2058D01*
X2922Y2058D02*
X2983Y2058D01*
X3022Y2058D02*
X3083Y2058D01*
X3223Y2058D02*
X3253Y2058D01*
X3255Y2058D02*
X3284Y2058D01*
X3323Y2058D02*
X3353Y2058D01*
X3355Y2058D02*
X3384Y2058D01*
X3423Y2058D02*
X3453Y2058D01*
X3455Y2058D02*
X3484Y2058D01*
X3523Y2058D02*
X3553Y2058D01*
X3555Y2058D02*
X3584Y2058D01*
X3623Y2058D02*
X3653Y2058D01*
X3655Y2058D02*
X3684Y2058D01*
X3723Y2058D02*
X3753Y2058D01*
X3755Y2058D02*
X3784Y2058D01*
X3823Y2058D02*
X3852Y2058D01*
X3855Y2058D02*
X3884Y2058D01*
X3923Y2058D02*
X3952Y2058D01*
X3955Y2058D02*
X3984Y2058D01*
X2322Y2057D02*
X2383Y2057D01*
X2422Y2057D02*
X2483Y2057D01*
X2522Y2057D02*
X2583Y2057D01*
X2622Y2057D02*
X2683Y2057D01*
X2722Y2057D02*
X2783Y2057D01*
X2822Y2057D02*
X2883Y2057D01*
X2922Y2057D02*
X2983Y2057D01*
X3022Y2057D02*
X3083Y2057D01*
X3223Y2057D02*
X3248Y2057D01*
X3260Y2057D02*
X3284Y2057D01*
X3323Y2057D02*
X3348Y2057D01*
X3360Y2057D02*
X3384Y2057D01*
X3423Y2057D02*
X3448Y2057D01*
X3460Y2057D02*
X3484Y2057D01*
X3523Y2057D02*
X3548Y2057D01*
X3560Y2057D02*
X3584Y2057D01*
X3623Y2057D02*
X3648Y2057D01*
X3660Y2057D02*
X3684Y2057D01*
X3723Y2057D02*
X3748Y2057D01*
X3760Y2057D02*
X3784Y2057D01*
X3823Y2057D02*
X3848Y2057D01*
X3860Y2057D02*
X3884Y2057D01*
X3923Y2057D02*
X3948Y2057D01*
X3960Y2057D02*
X3984Y2057D01*
X2322Y2056D02*
X2383Y2056D01*
X2422Y2056D02*
X2483Y2056D01*
X2522Y2056D02*
X2583Y2056D01*
X2622Y2056D02*
X2683Y2056D01*
X2722Y2056D02*
X2783Y2056D01*
X2822Y2056D02*
X2883Y2056D01*
X2922Y2056D02*
X2983Y2056D01*
X3022Y2056D02*
X3083Y2056D01*
X3223Y2056D02*
X3247Y2056D01*
X3261Y2056D02*
X3284Y2056D01*
X3323Y2056D02*
X3347Y2056D01*
X3361Y2056D02*
X3384Y2056D01*
X3423Y2056D02*
X3447Y2056D01*
X3461Y2056D02*
X3484Y2056D01*
X3523Y2056D02*
X3547Y2056D01*
X3561Y2056D02*
X3584Y2056D01*
X3623Y2056D02*
X3646Y2056D01*
X3661Y2056D02*
X3684Y2056D01*
X3723Y2056D02*
X3746Y2056D01*
X3761Y2056D02*
X3784Y2056D01*
X3823Y2056D02*
X3846Y2056D01*
X3861Y2056D02*
X3884Y2056D01*
X3923Y2056D02*
X3946Y2056D01*
X3961Y2056D02*
X3984Y2056D01*
X2322Y2055D02*
X2348Y2055D01*
X2357Y2055D02*
X2383Y2055D01*
X2422Y2055D02*
X2448Y2055D01*
X2457Y2055D02*
X2483Y2055D01*
X2522Y2055D02*
X2548Y2055D01*
X2557Y2055D02*
X2583Y2055D01*
X2622Y2055D02*
X2648Y2055D01*
X2657Y2055D02*
X2683Y2055D01*
X2722Y2055D02*
X2748Y2055D01*
X2757Y2055D02*
X2783Y2055D01*
X2822Y2055D02*
X2848Y2055D01*
X2857Y2055D02*
X2883Y2055D01*
X2922Y2055D02*
X2948Y2055D01*
X2957Y2055D02*
X2983Y2055D01*
X3022Y2055D02*
X3048Y2055D01*
X3057Y2055D02*
X3083Y2055D01*
X3223Y2055D02*
X3245Y2055D01*
X3263Y2055D02*
X3284Y2055D01*
X3323Y2055D02*
X3345Y2055D01*
X3363Y2055D02*
X3384Y2055D01*
X3423Y2055D02*
X3445Y2055D01*
X3463Y2055D02*
X3484Y2055D01*
X3523Y2055D02*
X3545Y2055D01*
X3563Y2055D02*
X3584Y2055D01*
X3623Y2055D02*
X3645Y2055D01*
X3663Y2055D02*
X3684Y2055D01*
X3723Y2055D02*
X3745Y2055D01*
X3763Y2055D02*
X3784Y2055D01*
X3823Y2055D02*
X3845Y2055D01*
X3863Y2055D02*
X3884Y2055D01*
X3923Y2055D02*
X3945Y2055D01*
X3963Y2055D02*
X3984Y2055D01*
X2322Y2054D02*
X2345Y2054D01*
X2359Y2054D02*
X2383Y2054D01*
X2422Y2054D02*
X2445Y2054D01*
X2459Y2054D02*
X2483Y2054D01*
X2522Y2054D02*
X2545Y2054D01*
X2559Y2054D02*
X2583Y2054D01*
X2622Y2054D02*
X2645Y2054D01*
X2659Y2054D02*
X2683Y2054D01*
X2722Y2054D02*
X2745Y2054D01*
X2759Y2054D02*
X2783Y2054D01*
X2822Y2054D02*
X2845Y2054D01*
X2859Y2054D02*
X2883Y2054D01*
X2922Y2054D02*
X2945Y2054D01*
X2959Y2054D02*
X2983Y2054D01*
X3022Y2054D02*
X3045Y2054D01*
X3059Y2054D02*
X3083Y2054D01*
X3223Y2054D02*
X3245Y2054D01*
X3263Y2054D02*
X3284Y2054D01*
X3323Y2054D02*
X3345Y2054D01*
X3363Y2054D02*
X3384Y2054D01*
X3423Y2054D02*
X3445Y2054D01*
X3463Y2054D02*
X3484Y2054D01*
X3523Y2054D02*
X3545Y2054D01*
X3563Y2054D02*
X3584Y2054D01*
X3623Y2054D02*
X3644Y2054D01*
X3663Y2054D02*
X3684Y2054D01*
X3723Y2054D02*
X3744Y2054D01*
X3763Y2054D02*
X3784Y2054D01*
X3823Y2054D02*
X3844Y2054D01*
X3863Y2054D02*
X3884Y2054D01*
X3923Y2054D02*
X3944Y2054D01*
X3963Y2054D02*
X3984Y2054D01*
X2322Y2053D02*
X2344Y2053D01*
X2360Y2053D02*
X2383Y2053D01*
X2422Y2053D02*
X2444Y2053D01*
X2460Y2053D02*
X2483Y2053D01*
X2522Y2053D02*
X2544Y2053D01*
X2560Y2053D02*
X2583Y2053D01*
X2622Y2053D02*
X2644Y2053D01*
X2660Y2053D02*
X2683Y2053D01*
X2722Y2053D02*
X2744Y2053D01*
X2760Y2053D02*
X2783Y2053D01*
X2822Y2053D02*
X2844Y2053D01*
X2860Y2053D02*
X2883Y2053D01*
X2922Y2053D02*
X2944Y2053D01*
X2960Y2053D02*
X2983Y2053D01*
X3022Y2053D02*
X3044Y2053D01*
X3060Y2053D02*
X3083Y2053D01*
X3223Y2053D02*
X3244Y2053D01*
X3264Y2053D02*
X3284Y2053D01*
X3323Y2053D02*
X3344Y2053D01*
X3364Y2053D02*
X3384Y2053D01*
X3423Y2053D02*
X3444Y2053D01*
X3464Y2053D02*
X3484Y2053D01*
X3523Y2053D02*
X3544Y2053D01*
X3564Y2053D02*
X3584Y2053D01*
X3623Y2053D02*
X3644Y2053D01*
X3664Y2053D02*
X3684Y2053D01*
X3723Y2053D02*
X3744Y2053D01*
X3764Y2053D02*
X3784Y2053D01*
X3823Y2053D02*
X3844Y2053D01*
X3864Y2053D02*
X3884Y2053D01*
X3923Y2053D02*
X3944Y2053D01*
X3964Y2053D02*
X3984Y2053D01*
X2322Y2052D02*
X2343Y2052D01*
X2361Y2052D02*
X2383Y2052D01*
X2422Y2052D02*
X2443Y2052D01*
X2461Y2052D02*
X2483Y2052D01*
X2522Y2052D02*
X2543Y2052D01*
X2561Y2052D02*
X2583Y2052D01*
X2622Y2052D02*
X2643Y2052D01*
X2661Y2052D02*
X2683Y2052D01*
X2722Y2052D02*
X2743Y2052D01*
X2761Y2052D02*
X2783Y2052D01*
X2822Y2052D02*
X2843Y2052D01*
X2861Y2052D02*
X2883Y2052D01*
X2922Y2052D02*
X2943Y2052D01*
X2961Y2052D02*
X2983Y2052D01*
X3022Y2052D02*
X3043Y2052D01*
X3061Y2052D02*
X3083Y2052D01*
X3223Y2052D02*
X3243Y2052D01*
X3265Y2052D02*
X3284Y2052D01*
X3323Y2052D02*
X3343Y2052D01*
X3365Y2052D02*
X3384Y2052D01*
X3423Y2052D02*
X3443Y2052D01*
X3465Y2052D02*
X3484Y2052D01*
X3523Y2052D02*
X3543Y2052D01*
X3565Y2052D02*
X3584Y2052D01*
X3623Y2052D02*
X3643Y2052D01*
X3665Y2052D02*
X3684Y2052D01*
X3723Y2052D02*
X3743Y2052D01*
X3765Y2052D02*
X3784Y2052D01*
X3823Y2052D02*
X3843Y2052D01*
X3864Y2052D02*
X3884Y2052D01*
X3923Y2052D02*
X3943Y2052D01*
X3964Y2052D02*
X3984Y2052D01*
X2322Y2051D02*
X2342Y2051D01*
X2362Y2051D02*
X2383Y2051D01*
X2422Y2051D02*
X2442Y2051D01*
X2462Y2051D02*
X2483Y2051D01*
X2522Y2051D02*
X2542Y2051D01*
X2562Y2051D02*
X2583Y2051D01*
X2622Y2051D02*
X2642Y2051D01*
X2662Y2051D02*
X2683Y2051D01*
X2722Y2051D02*
X2742Y2051D01*
X2762Y2051D02*
X2783Y2051D01*
X2822Y2051D02*
X2842Y2051D01*
X2862Y2051D02*
X2883Y2051D01*
X2922Y2051D02*
X2942Y2051D01*
X2962Y2051D02*
X2983Y2051D01*
X3022Y2051D02*
X3042Y2051D01*
X3062Y2051D02*
X3083Y2051D01*
X3223Y2051D02*
X3243Y2051D01*
X3265Y2051D02*
X3284Y2051D01*
X3323Y2051D02*
X3343Y2051D01*
X3365Y2051D02*
X3384Y2051D01*
X3423Y2051D02*
X3443Y2051D01*
X3465Y2051D02*
X3484Y2051D01*
X3523Y2051D02*
X3543Y2051D01*
X3565Y2051D02*
X3584Y2051D01*
X3623Y2051D02*
X3643Y2051D01*
X3665Y2051D02*
X3684Y2051D01*
X3723Y2051D02*
X3743Y2051D01*
X3765Y2051D02*
X3784Y2051D01*
X3823Y2051D02*
X3843Y2051D01*
X3865Y2051D02*
X3884Y2051D01*
X3923Y2051D02*
X3943Y2051D01*
X3965Y2051D02*
X3984Y2051D01*
X2322Y2050D02*
X2342Y2050D01*
X2363Y2050D02*
X2383Y2050D01*
X2422Y2050D02*
X2442Y2050D01*
X2463Y2050D02*
X2483Y2050D01*
X2522Y2050D02*
X2542Y2050D01*
X2563Y2050D02*
X2583Y2050D01*
X2622Y2050D02*
X2642Y2050D01*
X2663Y2050D02*
X2683Y2050D01*
X2722Y2050D02*
X2742Y2050D01*
X2763Y2050D02*
X2783Y2050D01*
X2822Y2050D02*
X2842Y2050D01*
X2863Y2050D02*
X2883Y2050D01*
X2922Y2050D02*
X2942Y2050D01*
X2963Y2050D02*
X2983Y2050D01*
X3022Y2050D02*
X3042Y2050D01*
X3063Y2050D02*
X3083Y2050D01*
X3223Y2050D02*
X3243Y2050D01*
X3265Y2050D02*
X3284Y2050D01*
X3323Y2050D02*
X3343Y2050D01*
X3365Y2050D02*
X3384Y2050D01*
X3423Y2050D02*
X3443Y2050D01*
X3465Y2050D02*
X3484Y2050D01*
X3523Y2050D02*
X3543Y2050D01*
X3565Y2050D02*
X3584Y2050D01*
X3623Y2050D02*
X3643Y2050D01*
X3665Y2050D02*
X3684Y2050D01*
X3723Y2050D02*
X3743Y2050D01*
X3765Y2050D02*
X3784Y2050D01*
X3823Y2050D02*
X3843Y2050D01*
X3865Y2050D02*
X3884Y2050D01*
X3923Y2050D02*
X3943Y2050D01*
X3965Y2050D02*
X3984Y2050D01*
X2322Y2049D02*
X2341Y2049D01*
X2363Y2049D02*
X2383Y2049D01*
X2422Y2049D02*
X2441Y2049D01*
X2463Y2049D02*
X2483Y2049D01*
X2522Y2049D02*
X2541Y2049D01*
X2563Y2049D02*
X2583Y2049D01*
X2622Y2049D02*
X2641Y2049D01*
X2663Y2049D02*
X2683Y2049D01*
X2722Y2049D02*
X2741Y2049D01*
X2763Y2049D02*
X2783Y2049D01*
X2822Y2049D02*
X2841Y2049D01*
X2863Y2049D02*
X2883Y2049D01*
X2922Y2049D02*
X2941Y2049D01*
X2963Y2049D02*
X2983Y2049D01*
X3022Y2049D02*
X3041Y2049D01*
X3063Y2049D02*
X3083Y2049D01*
X3223Y2049D02*
X3243Y2049D01*
X3265Y2049D02*
X3284Y2049D01*
X3323Y2049D02*
X3343Y2049D01*
X3365Y2049D02*
X3384Y2049D01*
X3423Y2049D02*
X3443Y2049D01*
X3465Y2049D02*
X3484Y2049D01*
X3523Y2049D02*
X3543Y2049D01*
X3565Y2049D02*
X3584Y2049D01*
X3623Y2049D02*
X3643Y2049D01*
X3665Y2049D02*
X3684Y2049D01*
X3723Y2049D02*
X3743Y2049D01*
X3765Y2049D02*
X3784Y2049D01*
X3823Y2049D02*
X3843Y2049D01*
X3865Y2049D02*
X3884Y2049D01*
X3923Y2049D02*
X3943Y2049D01*
X3965Y2049D02*
X3984Y2049D01*
X2322Y2048D02*
X2341Y2048D01*
X2363Y2048D02*
X2383Y2048D01*
X2422Y2048D02*
X2441Y2048D01*
X2463Y2048D02*
X2483Y2048D01*
X2522Y2048D02*
X2541Y2048D01*
X2563Y2048D02*
X2583Y2048D01*
X2622Y2048D02*
X2641Y2048D01*
X2663Y2048D02*
X2683Y2048D01*
X2722Y2048D02*
X2741Y2048D01*
X2763Y2048D02*
X2783Y2048D01*
X2822Y2048D02*
X2841Y2048D01*
X2863Y2048D02*
X2883Y2048D01*
X2922Y2048D02*
X2941Y2048D01*
X2963Y2048D02*
X2983Y2048D01*
X3022Y2048D02*
X3041Y2048D01*
X3063Y2048D02*
X3083Y2048D01*
X3223Y2048D02*
X3243Y2048D01*
X3265Y2048D02*
X3284Y2048D01*
X3323Y2048D02*
X3343Y2048D01*
X3365Y2048D02*
X3384Y2048D01*
X3423Y2048D02*
X3442Y2048D01*
X3465Y2048D02*
X3484Y2048D01*
X3523Y2048D02*
X3542Y2048D01*
X3565Y2048D02*
X3584Y2048D01*
X3623Y2048D02*
X3642Y2048D01*
X3665Y2048D02*
X3684Y2048D01*
X3723Y2048D02*
X3742Y2048D01*
X3765Y2048D02*
X3784Y2048D01*
X3823Y2048D02*
X3842Y2048D01*
X3865Y2048D02*
X3884Y2048D01*
X3923Y2048D02*
X3942Y2048D01*
X3965Y2048D02*
X3984Y2048D01*
X2322Y2047D02*
X2341Y2047D01*
X2364Y2047D02*
X2383Y2047D01*
X2422Y2047D02*
X2441Y2047D01*
X2464Y2047D02*
X2483Y2047D01*
X2522Y2047D02*
X2541Y2047D01*
X2563Y2047D02*
X2583Y2047D01*
X2622Y2047D02*
X2641Y2047D01*
X2663Y2047D02*
X2683Y2047D01*
X2722Y2047D02*
X2741Y2047D01*
X2763Y2047D02*
X2783Y2047D01*
X2822Y2047D02*
X2841Y2047D01*
X2863Y2047D02*
X2883Y2047D01*
X2922Y2047D02*
X2941Y2047D01*
X2963Y2047D02*
X2983Y2047D01*
X3022Y2047D02*
X3041Y2047D01*
X3063Y2047D02*
X3083Y2047D01*
X3223Y2047D02*
X3242Y2047D01*
X3265Y2047D02*
X3284Y2047D01*
X3323Y2047D02*
X3342Y2047D01*
X3365Y2047D02*
X3384Y2047D01*
X3423Y2047D02*
X3442Y2047D01*
X3465Y2047D02*
X3484Y2047D01*
X3523Y2047D02*
X3542Y2047D01*
X3565Y2047D02*
X3584Y2047D01*
X3623Y2047D02*
X3642Y2047D01*
X3665Y2047D02*
X3684Y2047D01*
X3723Y2047D02*
X3742Y2047D01*
X3765Y2047D02*
X3784Y2047D01*
X3823Y2047D02*
X3842Y2047D01*
X3865Y2047D02*
X3884Y2047D01*
X3923Y2047D02*
X3942Y2047D01*
X3965Y2047D02*
X3984Y2047D01*
X2322Y2046D02*
X2341Y2046D01*
X2364Y2046D02*
X2383Y2046D01*
X2422Y2046D02*
X2441Y2046D01*
X2464Y2046D02*
X2483Y2046D01*
X2522Y2046D02*
X2541Y2046D01*
X2564Y2046D02*
X2583Y2046D01*
X2622Y2046D02*
X2641Y2046D01*
X2664Y2046D02*
X2683Y2046D01*
X2722Y2046D02*
X2741Y2046D01*
X2764Y2046D02*
X2783Y2046D01*
X2822Y2046D02*
X2841Y2046D01*
X2864Y2046D02*
X2883Y2046D01*
X2922Y2046D02*
X2941Y2046D01*
X2964Y2046D02*
X2983Y2046D01*
X3022Y2046D02*
X3041Y2046D01*
X3064Y2046D02*
X3083Y2046D01*
X3223Y2046D02*
X3243Y2046D01*
X3265Y2046D02*
X3284Y2046D01*
X3323Y2046D02*
X3343Y2046D01*
X3365Y2046D02*
X3384Y2046D01*
X3423Y2046D02*
X3442Y2046D01*
X3465Y2046D02*
X3484Y2046D01*
X3523Y2046D02*
X3542Y2046D01*
X3565Y2046D02*
X3584Y2046D01*
X3623Y2046D02*
X3642Y2046D01*
X3665Y2046D02*
X3684Y2046D01*
X3723Y2046D02*
X3742Y2046D01*
X3765Y2046D02*
X3784Y2046D01*
X3823Y2046D02*
X3842Y2046D01*
X3865Y2046D02*
X3884Y2046D01*
X3923Y2046D02*
X3942Y2046D01*
X3965Y2046D02*
X3984Y2046D01*
X2322Y2045D02*
X2341Y2045D01*
X2364Y2045D02*
X2383Y2045D01*
X2422Y2045D02*
X2441Y2045D01*
X2464Y2045D02*
X2483Y2045D01*
X2522Y2045D02*
X2541Y2045D01*
X2564Y2045D02*
X2583Y2045D01*
X2622Y2045D02*
X2641Y2045D01*
X2664Y2045D02*
X2683Y2045D01*
X2722Y2045D02*
X2741Y2045D01*
X2764Y2045D02*
X2783Y2045D01*
X2822Y2045D02*
X2841Y2045D01*
X2864Y2045D02*
X2883Y2045D01*
X2922Y2045D02*
X2941Y2045D01*
X2964Y2045D02*
X2983Y2045D01*
X3022Y2045D02*
X3041Y2045D01*
X3064Y2045D02*
X3083Y2045D01*
X3223Y2045D02*
X3243Y2045D01*
X3265Y2045D02*
X3284Y2045D01*
X3323Y2045D02*
X3343Y2045D01*
X3365Y2045D02*
X3384Y2045D01*
X3423Y2045D02*
X3443Y2045D01*
X3465Y2045D02*
X3484Y2045D01*
X3523Y2045D02*
X3543Y2045D01*
X3565Y2045D02*
X3584Y2045D01*
X3623Y2045D02*
X3643Y2045D01*
X3665Y2045D02*
X3684Y2045D01*
X3723Y2045D02*
X3743Y2045D01*
X3765Y2045D02*
X3784Y2045D01*
X3823Y2045D02*
X3843Y2045D01*
X3865Y2045D02*
X3884Y2045D01*
X3923Y2045D02*
X3943Y2045D01*
X3965Y2045D02*
X3984Y2045D01*
X2322Y2044D02*
X2341Y2044D01*
X2364Y2044D02*
X2383Y2044D01*
X2422Y2044D02*
X2441Y2044D01*
X2464Y2044D02*
X2483Y2044D01*
X2522Y2044D02*
X2541Y2044D01*
X2564Y2044D02*
X2583Y2044D01*
X2622Y2044D02*
X2641Y2044D01*
X2664Y2044D02*
X2683Y2044D01*
X2722Y2044D02*
X2741Y2044D01*
X2764Y2044D02*
X2783Y2044D01*
X2822Y2044D02*
X2841Y2044D01*
X2864Y2044D02*
X2883Y2044D01*
X2922Y2044D02*
X2941Y2044D01*
X2964Y2044D02*
X2983Y2044D01*
X3022Y2044D02*
X3041Y2044D01*
X3064Y2044D02*
X3083Y2044D01*
X3223Y2044D02*
X3243Y2044D01*
X3265Y2044D02*
X3284Y2044D01*
X3323Y2044D02*
X3343Y2044D01*
X3365Y2044D02*
X3384Y2044D01*
X3423Y2044D02*
X3443Y2044D01*
X3465Y2044D02*
X3484Y2044D01*
X3523Y2044D02*
X3543Y2044D01*
X3565Y2044D02*
X3584Y2044D01*
X3623Y2044D02*
X3643Y2044D01*
X3665Y2044D02*
X3684Y2044D01*
X3723Y2044D02*
X3743Y2044D01*
X3765Y2044D02*
X3784Y2044D01*
X3823Y2044D02*
X3843Y2044D01*
X3865Y2044D02*
X3884Y2044D01*
X3923Y2044D02*
X3943Y2044D01*
X3965Y2044D02*
X3984Y2044D01*
X2322Y2043D02*
X2341Y2043D01*
X2364Y2043D02*
X2383Y2043D01*
X2422Y2043D02*
X2441Y2043D01*
X2464Y2043D02*
X2483Y2043D01*
X2522Y2043D02*
X2541Y2043D01*
X2564Y2043D02*
X2583Y2043D01*
X2622Y2043D02*
X2641Y2043D01*
X2664Y2043D02*
X2683Y2043D01*
X2722Y2043D02*
X2741Y2043D01*
X2764Y2043D02*
X2783Y2043D01*
X2822Y2043D02*
X2841Y2043D01*
X2864Y2043D02*
X2883Y2043D01*
X2922Y2043D02*
X2941Y2043D01*
X2964Y2043D02*
X2983Y2043D01*
X3022Y2043D02*
X3041Y2043D01*
X3064Y2043D02*
X3083Y2043D01*
X3223Y2043D02*
X3243Y2043D01*
X3265Y2043D02*
X3284Y2043D01*
X3323Y2043D02*
X3343Y2043D01*
X3365Y2043D02*
X3384Y2043D01*
X3423Y2043D02*
X3443Y2043D01*
X3465Y2043D02*
X3484Y2043D01*
X3523Y2043D02*
X3543Y2043D01*
X3565Y2043D02*
X3584Y2043D01*
X3623Y2043D02*
X3643Y2043D01*
X3665Y2043D02*
X3684Y2043D01*
X3723Y2043D02*
X3743Y2043D01*
X3765Y2043D02*
X3784Y2043D01*
X3823Y2043D02*
X3843Y2043D01*
X3865Y2043D02*
X3884Y2043D01*
X3923Y2043D02*
X3943Y2043D01*
X3965Y2043D02*
X3984Y2043D01*
X2322Y2042D02*
X2341Y2042D01*
X2363Y2042D02*
X2383Y2042D01*
X2422Y2042D02*
X2441Y2042D01*
X2463Y2042D02*
X2483Y2042D01*
X2522Y2042D02*
X2541Y2042D01*
X2563Y2042D02*
X2583Y2042D01*
X2622Y2042D02*
X2641Y2042D01*
X2663Y2042D02*
X2683Y2042D01*
X2722Y2042D02*
X2741Y2042D01*
X2763Y2042D02*
X2783Y2042D01*
X2822Y2042D02*
X2841Y2042D01*
X2863Y2042D02*
X2883Y2042D01*
X2922Y2042D02*
X2941Y2042D01*
X2963Y2042D02*
X2983Y2042D01*
X3022Y2042D02*
X3041Y2042D01*
X3063Y2042D02*
X3083Y2042D01*
X3223Y2042D02*
X3243Y2042D01*
X3264Y2042D02*
X3284Y2042D01*
X3323Y2042D02*
X3343Y2042D01*
X3364Y2042D02*
X3384Y2042D01*
X3423Y2042D02*
X3443Y2042D01*
X3464Y2042D02*
X3484Y2042D01*
X3523Y2042D02*
X3543Y2042D01*
X3564Y2042D02*
X3584Y2042D01*
X3623Y2042D02*
X3643Y2042D01*
X3664Y2042D02*
X3684Y2042D01*
X3723Y2042D02*
X3743Y2042D01*
X3764Y2042D02*
X3784Y2042D01*
X3823Y2042D02*
X3843Y2042D01*
X3864Y2042D02*
X3884Y2042D01*
X3923Y2042D02*
X3943Y2042D01*
X3964Y2042D02*
X3984Y2042D01*
X2322Y2041D02*
X2341Y2041D01*
X2363Y2041D02*
X2383Y2041D01*
X2422Y2041D02*
X2441Y2041D01*
X2463Y2041D02*
X2483Y2041D01*
X2522Y2041D02*
X2541Y2041D01*
X2563Y2041D02*
X2583Y2041D01*
X2622Y2041D02*
X2641Y2041D01*
X2663Y2041D02*
X2683Y2041D01*
X2722Y2041D02*
X2741Y2041D01*
X2763Y2041D02*
X2783Y2041D01*
X2822Y2041D02*
X2841Y2041D01*
X2863Y2041D02*
X2883Y2041D01*
X2922Y2041D02*
X2941Y2041D01*
X2963Y2041D02*
X2983Y2041D01*
X3022Y2041D02*
X3041Y2041D01*
X3063Y2041D02*
X3083Y2041D01*
X3223Y2041D02*
X3244Y2041D01*
X3264Y2041D02*
X3284Y2041D01*
X3323Y2041D02*
X3344Y2041D01*
X3364Y2041D02*
X3384Y2041D01*
X3423Y2041D02*
X3444Y2041D01*
X3464Y2041D02*
X3484Y2041D01*
X3523Y2041D02*
X3544Y2041D01*
X3564Y2041D02*
X3584Y2041D01*
X3623Y2041D02*
X3644Y2041D01*
X3664Y2041D02*
X3684Y2041D01*
X3723Y2041D02*
X3744Y2041D01*
X3764Y2041D02*
X3784Y2041D01*
X3823Y2041D02*
X3844Y2041D01*
X3864Y2041D02*
X3884Y2041D01*
X3923Y2041D02*
X3944Y2041D01*
X3964Y2041D02*
X3984Y2041D01*
X2322Y2040D02*
X2342Y2040D01*
X2363Y2040D02*
X2383Y2040D01*
X2422Y2040D02*
X2441Y2040D01*
X2463Y2040D02*
X2483Y2040D01*
X2522Y2040D02*
X2541Y2040D01*
X2563Y2040D02*
X2583Y2040D01*
X2622Y2040D02*
X2641Y2040D01*
X2663Y2040D02*
X2683Y2040D01*
X2722Y2040D02*
X2741Y2040D01*
X2763Y2040D02*
X2783Y2040D01*
X2822Y2040D02*
X2841Y2040D01*
X2863Y2040D02*
X2883Y2040D01*
X2922Y2040D02*
X2941Y2040D01*
X2963Y2040D02*
X2983Y2040D01*
X3022Y2040D02*
X3041Y2040D01*
X3063Y2040D02*
X3083Y2040D01*
X3223Y2040D02*
X3245Y2040D01*
X3263Y2040D02*
X3284Y2040D01*
X3323Y2040D02*
X3345Y2040D01*
X3363Y2040D02*
X3384Y2040D01*
X3423Y2040D02*
X3445Y2040D01*
X3463Y2040D02*
X3484Y2040D01*
X3523Y2040D02*
X3545Y2040D01*
X3563Y2040D02*
X3584Y2040D01*
X3623Y2040D02*
X3645Y2040D01*
X3663Y2040D02*
X3684Y2040D01*
X3723Y2040D02*
X3745Y2040D01*
X3763Y2040D02*
X3784Y2040D01*
X3823Y2040D02*
X3845Y2040D01*
X3863Y2040D02*
X3884Y2040D01*
X3923Y2040D02*
X3945Y2040D01*
X3963Y2040D02*
X3984Y2040D01*
X2322Y2039D02*
X2342Y2039D01*
X2363Y2039D02*
X2383Y2039D01*
X2422Y2039D02*
X2442Y2039D01*
X2463Y2039D02*
X2483Y2039D01*
X2522Y2039D02*
X2542Y2039D01*
X2562Y2039D02*
X2583Y2039D01*
X2622Y2039D02*
X2642Y2039D01*
X2662Y2039D02*
X2683Y2039D01*
X2722Y2039D02*
X2742Y2039D01*
X2762Y2039D02*
X2783Y2039D01*
X2822Y2039D02*
X2842Y2039D01*
X2862Y2039D02*
X2883Y2039D01*
X2922Y2039D02*
X2942Y2039D01*
X2962Y2039D02*
X2983Y2039D01*
X3022Y2039D02*
X3042Y2039D01*
X3062Y2039D02*
X3083Y2039D01*
X3223Y2039D02*
X3245Y2039D01*
X3262Y2039D02*
X3284Y2039D01*
X3323Y2039D02*
X3345Y2039D01*
X3362Y2039D02*
X3384Y2039D01*
X3423Y2039D02*
X3445Y2039D01*
X3462Y2039D02*
X3484Y2039D01*
X3523Y2039D02*
X3545Y2039D01*
X3562Y2039D02*
X3584Y2039D01*
X3623Y2039D02*
X3645Y2039D01*
X3662Y2039D02*
X3684Y2039D01*
X3723Y2039D02*
X3745Y2039D01*
X3762Y2039D02*
X3784Y2039D01*
X3823Y2039D02*
X3845Y2039D01*
X3862Y2039D02*
X3884Y2039D01*
X3923Y2039D02*
X3945Y2039D01*
X3962Y2039D02*
X3984Y2039D01*
X2322Y2038D02*
X2343Y2038D01*
X2362Y2038D02*
X2383Y2038D01*
X2422Y2038D02*
X2442Y2038D01*
X2462Y2038D02*
X2483Y2038D01*
X2522Y2038D02*
X2542Y2038D01*
X2562Y2038D02*
X2583Y2038D01*
X2622Y2038D02*
X2642Y2038D01*
X2662Y2038D02*
X2683Y2038D01*
X2722Y2038D02*
X2742Y2038D01*
X2762Y2038D02*
X2783Y2038D01*
X2822Y2038D02*
X2842Y2038D01*
X2862Y2038D02*
X2883Y2038D01*
X2922Y2038D02*
X2942Y2038D01*
X2962Y2038D02*
X2983Y2038D01*
X3022Y2038D02*
X3042Y2038D01*
X3062Y2038D02*
X3083Y2038D01*
X3223Y2038D02*
X3247Y2038D01*
X3261Y2038D02*
X3284Y2038D01*
X3323Y2038D02*
X3347Y2038D01*
X3361Y2038D02*
X3384Y2038D01*
X3423Y2038D02*
X3447Y2038D01*
X3461Y2038D02*
X3484Y2038D01*
X3523Y2038D02*
X3547Y2038D01*
X3561Y2038D02*
X3584Y2038D01*
X3623Y2038D02*
X3647Y2038D01*
X3661Y2038D02*
X3684Y2038D01*
X3723Y2038D02*
X3747Y2038D01*
X3761Y2038D02*
X3784Y2038D01*
X3823Y2038D02*
X3847Y2038D01*
X3861Y2038D02*
X3884Y2038D01*
X3923Y2038D02*
X3947Y2038D01*
X3961Y2038D02*
X3984Y2038D01*
X2322Y2037D02*
X2343Y2037D01*
X2361Y2037D02*
X2383Y2037D01*
X2422Y2037D02*
X2443Y2037D01*
X2461Y2037D02*
X2483Y2037D01*
X2522Y2037D02*
X2543Y2037D01*
X2561Y2037D02*
X2583Y2037D01*
X2622Y2037D02*
X2643Y2037D01*
X2661Y2037D02*
X2683Y2037D01*
X2722Y2037D02*
X2743Y2037D01*
X2761Y2037D02*
X2783Y2037D01*
X2822Y2037D02*
X2843Y2037D01*
X2861Y2037D02*
X2883Y2037D01*
X2922Y2037D02*
X2943Y2037D01*
X2961Y2037D02*
X2983Y2037D01*
X3022Y2037D02*
X3043Y2037D01*
X3061Y2037D02*
X3083Y2037D01*
X3223Y2037D02*
X3248Y2037D01*
X3259Y2037D02*
X3284Y2037D01*
X3323Y2037D02*
X3348Y2037D01*
X3359Y2037D02*
X3384Y2037D01*
X3423Y2037D02*
X3448Y2037D01*
X3459Y2037D02*
X3484Y2037D01*
X3523Y2037D02*
X3548Y2037D01*
X3559Y2037D02*
X3584Y2037D01*
X3623Y2037D02*
X3648Y2037D01*
X3659Y2037D02*
X3684Y2037D01*
X3723Y2037D02*
X3748Y2037D01*
X3759Y2037D02*
X3784Y2037D01*
X3823Y2037D02*
X3848Y2037D01*
X3859Y2037D02*
X3884Y2037D01*
X3923Y2037D02*
X3948Y2037D01*
X3959Y2037D02*
X3984Y2037D01*
X2322Y2036D02*
X2344Y2036D01*
X2360Y2036D02*
X2383Y2036D01*
X2422Y2036D02*
X2444Y2036D01*
X2460Y2036D02*
X2483Y2036D01*
X2522Y2036D02*
X2544Y2036D01*
X2560Y2036D02*
X2583Y2036D01*
X2622Y2036D02*
X2644Y2036D01*
X2660Y2036D02*
X2683Y2036D01*
X2722Y2036D02*
X2744Y2036D01*
X2760Y2036D02*
X2783Y2036D01*
X2822Y2036D02*
X2844Y2036D01*
X2860Y2036D02*
X2883Y2036D01*
X2922Y2036D02*
X2944Y2036D01*
X2960Y2036D02*
X2983Y2036D01*
X3022Y2036D02*
X3044Y2036D01*
X3060Y2036D02*
X3083Y2036D01*
X3223Y2036D02*
X3284Y2036D01*
X3323Y2036D02*
X3384Y2036D01*
X3423Y2036D02*
X3484Y2036D01*
X3523Y2036D02*
X3584Y2036D01*
X3623Y2036D02*
X3684Y2036D01*
X3723Y2036D02*
X3784Y2036D01*
X3823Y2036D02*
X3884Y2036D01*
X3923Y2036D02*
X3984Y2036D01*
X2322Y2035D02*
X2346Y2035D01*
X2359Y2035D02*
X2383Y2035D01*
X2422Y2035D02*
X2446Y2035D01*
X2459Y2035D02*
X2483Y2035D01*
X2522Y2035D02*
X2546Y2035D01*
X2559Y2035D02*
X2583Y2035D01*
X2622Y2035D02*
X2646Y2035D01*
X2659Y2035D02*
X2683Y2035D01*
X2722Y2035D02*
X2746Y2035D01*
X2759Y2035D02*
X2783Y2035D01*
X2822Y2035D02*
X2846Y2035D01*
X2859Y2035D02*
X2883Y2035D01*
X2922Y2035D02*
X2946Y2035D01*
X2959Y2035D02*
X2983Y2035D01*
X3022Y2035D02*
X3046Y2035D01*
X3059Y2035D02*
X3083Y2035D01*
X3223Y2035D02*
X3284Y2035D01*
X3323Y2035D02*
X3384Y2035D01*
X3423Y2035D02*
X3484Y2035D01*
X3523Y2035D02*
X3584Y2035D01*
X3623Y2035D02*
X3684Y2035D01*
X3723Y2035D02*
X3784Y2035D01*
X3823Y2035D02*
X3884Y2035D01*
X3923Y2035D02*
X3984Y2035D01*
X2322Y2034D02*
X2348Y2034D01*
X2356Y2034D02*
X2383Y2034D01*
X2422Y2034D02*
X2448Y2034D01*
X2456Y2034D02*
X2483Y2034D01*
X2522Y2034D02*
X2548Y2034D01*
X2556Y2034D02*
X2583Y2034D01*
X2622Y2034D02*
X2648Y2034D01*
X2656Y2034D02*
X2683Y2034D01*
X2722Y2034D02*
X2748Y2034D01*
X2756Y2034D02*
X2783Y2034D01*
X2822Y2034D02*
X2848Y2034D01*
X2856Y2034D02*
X2883Y2034D01*
X2922Y2034D02*
X2948Y2034D01*
X2956Y2034D02*
X2983Y2034D01*
X3022Y2034D02*
X3048Y2034D01*
X3056Y2034D02*
X3083Y2034D01*
X3223Y2034D02*
X3284Y2034D01*
X3323Y2034D02*
X3384Y2034D01*
X3423Y2034D02*
X3484Y2034D01*
X3523Y2034D02*
X3584Y2034D01*
X3623Y2034D02*
X3684Y2034D01*
X3723Y2034D02*
X3784Y2034D01*
X3823Y2034D02*
X3884Y2034D01*
X3923Y2034D02*
X3984Y2034D01*
X2322Y2033D02*
X2383Y2033D01*
X2422Y2033D02*
X2483Y2033D01*
X2522Y2033D02*
X2583Y2033D01*
X2622Y2033D02*
X2683Y2033D01*
X2722Y2033D02*
X2783Y2033D01*
X2822Y2033D02*
X2883Y2033D01*
X2922Y2033D02*
X2983Y2033D01*
X3022Y2033D02*
X3083Y2033D01*
X3223Y2033D02*
X3284Y2033D01*
X3323Y2033D02*
X3384Y2033D01*
X3423Y2033D02*
X3484Y2033D01*
X3523Y2033D02*
X3584Y2033D01*
X3623Y2033D02*
X3684Y2033D01*
X3723Y2033D02*
X3784Y2033D01*
X3823Y2033D02*
X3884Y2033D01*
X3923Y2033D02*
X3984Y2033D01*
X2322Y2032D02*
X2383Y2032D01*
X2422Y2032D02*
X2483Y2032D01*
X2522Y2032D02*
X2583Y2032D01*
X2622Y2032D02*
X2683Y2032D01*
X2722Y2032D02*
X2783Y2032D01*
X2822Y2032D02*
X2883Y2032D01*
X2922Y2032D02*
X2983Y2032D01*
X3022Y2032D02*
X3083Y2032D01*
X3223Y2032D02*
X3284Y2032D01*
X3323Y2032D02*
X3384Y2032D01*
X3423Y2032D02*
X3484Y2032D01*
X3523Y2032D02*
X3584Y2032D01*
X3623Y2032D02*
X3684Y2032D01*
X3723Y2032D02*
X3784Y2032D01*
X3823Y2032D02*
X3884Y2032D01*
X3923Y2032D02*
X3984Y2032D01*
X2322Y2031D02*
X2383Y2031D01*
X2422Y2031D02*
X2483Y2031D01*
X2522Y2031D02*
X2583Y2031D01*
X2622Y2031D02*
X2683Y2031D01*
X2722Y2031D02*
X2783Y2031D01*
X2822Y2031D02*
X2883Y2031D01*
X2922Y2031D02*
X2983Y2031D01*
X3022Y2031D02*
X3083Y2031D01*
X3223Y2031D02*
X3284Y2031D01*
X3323Y2031D02*
X3384Y2031D01*
X3423Y2031D02*
X3484Y2031D01*
X3523Y2031D02*
X3584Y2031D01*
X3623Y2031D02*
X3684Y2031D01*
X3723Y2031D02*
X3784Y2031D01*
X3823Y2031D02*
X3884Y2031D01*
X3923Y2031D02*
X3984Y2031D01*
X2322Y2030D02*
X2383Y2030D01*
X2422Y2030D02*
X2483Y2030D01*
X2522Y2030D02*
X2583Y2030D01*
X2622Y2030D02*
X2683Y2030D01*
X2722Y2030D02*
X2783Y2030D01*
X2822Y2030D02*
X2883Y2030D01*
X2922Y2030D02*
X2983Y2030D01*
X3022Y2030D02*
X3083Y2030D01*
X3223Y2030D02*
X3284Y2030D01*
X3323Y2030D02*
X3384Y2030D01*
X3423Y2030D02*
X3484Y2030D01*
X3523Y2030D02*
X3584Y2030D01*
X3623Y2030D02*
X3684Y2030D01*
X3723Y2030D02*
X3784Y2030D01*
X3823Y2030D02*
X3884Y2030D01*
X3923Y2030D02*
X3984Y2030D01*
X2322Y2029D02*
X2383Y2029D01*
X2422Y2029D02*
X2483Y2029D01*
X2522Y2029D02*
X2583Y2029D01*
X2622Y2029D02*
X2683Y2029D01*
X2722Y2029D02*
X2783Y2029D01*
X2822Y2029D02*
X2883Y2029D01*
X2922Y2029D02*
X2983Y2029D01*
X3022Y2029D02*
X3083Y2029D01*
X3223Y2029D02*
X3284Y2029D01*
X3323Y2029D02*
X3384Y2029D01*
X3423Y2029D02*
X3484Y2029D01*
X3523Y2029D02*
X3584Y2029D01*
X3623Y2029D02*
X3684Y2029D01*
X3723Y2029D02*
X3784Y2029D01*
X3823Y2029D02*
X3884Y2029D01*
X3923Y2029D02*
X3984Y2029D01*
X2322Y2028D02*
X2383Y2028D01*
X2422Y2028D02*
X2483Y2028D01*
X2522Y2028D02*
X2583Y2028D01*
X2622Y2028D02*
X2683Y2028D01*
X2722Y2028D02*
X2783Y2028D01*
X2822Y2028D02*
X2883Y2028D01*
X2922Y2028D02*
X2983Y2028D01*
X3022Y2028D02*
X3083Y2028D01*
X3223Y2028D02*
X3284Y2028D01*
X3323Y2028D02*
X3384Y2028D01*
X3423Y2028D02*
X3484Y2028D01*
X3523Y2028D02*
X3584Y2028D01*
X3623Y2028D02*
X3684Y2028D01*
X3723Y2028D02*
X3784Y2028D01*
X3823Y2028D02*
X3884Y2028D01*
X3923Y2028D02*
X3984Y2028D01*
X2322Y2027D02*
X2383Y2027D01*
X2422Y2027D02*
X2483Y2027D01*
X2522Y2027D02*
X2583Y2027D01*
X2622Y2027D02*
X2683Y2027D01*
X2722Y2027D02*
X2783Y2027D01*
X2822Y2027D02*
X2883Y2027D01*
X2922Y2027D02*
X2983Y2027D01*
X3022Y2027D02*
X3083Y2027D01*
X3223Y2027D02*
X3284Y2027D01*
X3323Y2027D02*
X3384Y2027D01*
X3423Y2027D02*
X3484Y2027D01*
X3523Y2027D02*
X3584Y2027D01*
X3623Y2027D02*
X3684Y2027D01*
X3723Y2027D02*
X3784Y2027D01*
X3823Y2027D02*
X3884Y2027D01*
X3923Y2027D02*
X3984Y2027D01*
X2322Y2026D02*
X2383Y2026D01*
X2422Y2026D02*
X2483Y2026D01*
X2522Y2026D02*
X2583Y2026D01*
X2622Y2026D02*
X2683Y2026D01*
X2722Y2026D02*
X2783Y2026D01*
X2822Y2026D02*
X2883Y2026D01*
X2922Y2026D02*
X2983Y2026D01*
X3022Y2026D02*
X3083Y2026D01*
X3223Y2026D02*
X3284Y2026D01*
X3323Y2026D02*
X3384Y2026D01*
X3423Y2026D02*
X3484Y2026D01*
X3523Y2026D02*
X3584Y2026D01*
X3623Y2026D02*
X3684Y2026D01*
X3723Y2026D02*
X3784Y2026D01*
X3823Y2026D02*
X3884Y2026D01*
X3923Y2026D02*
X3984Y2026D01*
X2322Y2025D02*
X2383Y2025D01*
X2422Y2025D02*
X2483Y2025D01*
X2522Y2025D02*
X2583Y2025D01*
X2622Y2025D02*
X2683Y2025D01*
X2722Y2025D02*
X2783Y2025D01*
X2822Y2025D02*
X2883Y2025D01*
X2922Y2025D02*
X2983Y2025D01*
X3022Y2025D02*
X3083Y2025D01*
X3223Y2025D02*
X3284Y2025D01*
X3323Y2025D02*
X3384Y2025D01*
X3423Y2025D02*
X3484Y2025D01*
X3523Y2025D02*
X3584Y2025D01*
X3623Y2025D02*
X3684Y2025D01*
X3723Y2025D02*
X3784Y2025D01*
X3823Y2025D02*
X3884Y2025D01*
X3923Y2025D02*
X3984Y2025D01*
X2322Y2024D02*
X2383Y2024D01*
X2422Y2024D02*
X2483Y2024D01*
X2522Y2024D02*
X2583Y2024D01*
X2622Y2024D02*
X2683Y2024D01*
X2722Y2024D02*
X2783Y2024D01*
X2822Y2024D02*
X2883Y2024D01*
X2922Y2024D02*
X2983Y2024D01*
X3022Y2024D02*
X3083Y2024D01*
X3223Y2024D02*
X3284Y2024D01*
X3323Y2024D02*
X3384Y2024D01*
X3423Y2024D02*
X3484Y2024D01*
X3523Y2024D02*
X3584Y2024D01*
X3623Y2024D02*
X3684Y2024D01*
X3723Y2024D02*
X3784Y2024D01*
X3823Y2024D02*
X3884Y2024D01*
X3923Y2024D02*
X3984Y2024D01*
X2322Y2023D02*
X2383Y2023D01*
X2422Y2023D02*
X2483Y2023D01*
X2522Y2023D02*
X2583Y2023D01*
X2622Y2023D02*
X2683Y2023D01*
X2722Y2023D02*
X2783Y2023D01*
X2822Y2023D02*
X2883Y2023D01*
X2922Y2023D02*
X2983Y2023D01*
X3022Y2023D02*
X3083Y2023D01*
X3223Y2023D02*
X3284Y2023D01*
X3323Y2023D02*
X3384Y2023D01*
X3423Y2023D02*
X3484Y2023D01*
X3523Y2023D02*
X3584Y2023D01*
X3623Y2023D02*
X3684Y2023D01*
X3723Y2023D02*
X3784Y2023D01*
X3823Y2023D02*
X3884Y2023D01*
X3923Y2023D02*
X3984Y2023D01*
X2322Y2022D02*
X2383Y2022D01*
X2422Y2022D02*
X2483Y2022D01*
X2522Y2022D02*
X2583Y2022D01*
X2622Y2022D02*
X2683Y2022D01*
X2722Y2022D02*
X2783Y2022D01*
X2822Y2022D02*
X2883Y2022D01*
X2922Y2022D02*
X2983Y2022D01*
X3022Y2022D02*
X3083Y2022D01*
X3223Y2022D02*
X3284Y2022D01*
X3323Y2022D02*
X3384Y2022D01*
X3423Y2022D02*
X3484Y2022D01*
X3523Y2022D02*
X3584Y2022D01*
X3623Y2022D02*
X3684Y2022D01*
X3723Y2022D02*
X3784Y2022D01*
X3823Y2022D02*
X3884Y2022D01*
X3923Y2022D02*
X3984Y2022D01*
X2322Y2021D02*
X2383Y2021D01*
X2422Y2021D02*
X2483Y2021D01*
X2522Y2021D02*
X2583Y2021D01*
X2622Y2021D02*
X2683Y2021D01*
X2722Y2021D02*
X2783Y2021D01*
X2822Y2021D02*
X2883Y2021D01*
X2922Y2021D02*
X2983Y2021D01*
X3022Y2021D02*
X3083Y2021D01*
X3223Y2021D02*
X3284Y2021D01*
X3323Y2021D02*
X3384Y2021D01*
X3423Y2021D02*
X3484Y2021D01*
X3523Y2021D02*
X3584Y2021D01*
X3623Y2021D02*
X3684Y2021D01*
X3723Y2021D02*
X3784Y2021D01*
X3823Y2021D02*
X3884Y2021D01*
X3923Y2021D02*
X3984Y2021D01*
X2322Y2020D02*
X2383Y2020D01*
X2422Y2020D02*
X2483Y2020D01*
X2522Y2020D02*
X2583Y2020D01*
X2622Y2020D02*
X2683Y2020D01*
X2722Y2020D02*
X2783Y2020D01*
X2822Y2020D02*
X2883Y2020D01*
X2922Y2020D02*
X2983Y2020D01*
X3022Y2020D02*
X3083Y2020D01*
X3223Y2020D02*
X3284Y2020D01*
X3323Y2020D02*
X3384Y2020D01*
X3423Y2020D02*
X3484Y2020D01*
X3523Y2020D02*
X3584Y2020D01*
X3623Y2020D02*
X3684Y2020D01*
X3723Y2020D02*
X3784Y2020D01*
X3823Y2020D02*
X3884Y2020D01*
X3923Y2020D02*
X3984Y2020D01*
X2322Y2019D02*
X2383Y2019D01*
X2422Y2019D02*
X2483Y2019D01*
X2522Y2019D02*
X2583Y2019D01*
X2622Y2019D02*
X2683Y2019D01*
X2722Y2019D02*
X2783Y2019D01*
X2822Y2019D02*
X2883Y2019D01*
X2922Y2019D02*
X2983Y2019D01*
X3022Y2019D02*
X3083Y2019D01*
X3224Y2019D02*
X3284Y2019D01*
X3324Y2019D02*
X3384Y2019D01*
X3424Y2019D02*
X3484Y2019D01*
X3524Y2019D02*
X3584Y2019D01*
X3624Y2019D02*
X3684Y2019D01*
X3724Y2019D02*
X3784Y2019D01*
X3823Y2019D02*
X3884Y2019D01*
X3923Y2019D02*
X3984Y2019D01*
X2322Y2018D02*
X2383Y2018D01*
X2422Y2018D02*
X2483Y2018D01*
X2522Y2018D02*
X2583Y2018D01*
X2622Y2018D02*
X2683Y2018D01*
X2722Y2018D02*
X2783Y2018D01*
X2822Y2018D02*
X2883Y2018D01*
X2922Y2018D02*
X2983Y2018D01*
X3022Y2018D02*
X3083Y2018D01*
X3224Y2018D02*
X3284Y2018D01*
X3324Y2018D02*
X3384Y2018D01*
X3424Y2018D02*
X3484Y2018D01*
X3524Y2018D02*
X3584Y2018D01*
X3624Y2018D02*
X3684Y2018D01*
X3724Y2018D02*
X3784Y2018D01*
X3824Y2018D02*
X3884Y2018D01*
X3924Y2018D02*
X3984Y2018D01*
X2322Y2017D02*
X2383Y2017D01*
X2422Y2017D02*
X2483Y2017D01*
X2522Y2017D02*
X2583Y2017D01*
X2622Y2017D02*
X2683Y2017D01*
X2722Y2017D02*
X2783Y2017D01*
X2822Y2017D02*
X2883Y2017D01*
X2922Y2017D02*
X2983Y2017D01*
X3022Y2017D02*
X3083Y2017D01*
X3224Y2017D02*
X3284Y2017D01*
X3324Y2017D02*
X3384Y2017D01*
X3424Y2017D02*
X3484Y2017D01*
X3524Y2017D02*
X3584Y2017D01*
X3624Y2017D02*
X3684Y2017D01*
X3724Y2017D02*
X3784Y2017D01*
X3824Y2017D02*
X3884Y2017D01*
X3924Y2017D02*
X3984Y2017D01*
X2322Y2016D02*
X2383Y2016D01*
X2422Y2016D02*
X2483Y2016D01*
X2522Y2016D02*
X2583Y2016D01*
X2622Y2016D02*
X2683Y2016D01*
X2722Y2016D02*
X2783Y2016D01*
X2822Y2016D02*
X2883Y2016D01*
X2922Y2016D02*
X2983Y2016D01*
X3022Y2016D02*
X3083Y2016D01*
X3224Y2016D02*
X3284Y2016D01*
X3324Y2016D02*
X3384Y2016D01*
X3424Y2016D02*
X3484Y2016D01*
X3524Y2016D02*
X3584Y2016D01*
X3624Y2016D02*
X3684Y2016D01*
X3724Y2016D02*
X3784Y2016D01*
X3824Y2016D02*
X3884Y2016D01*
X3924Y2016D02*
X3984Y2016D01*
X2322Y2015D02*
X2382Y2015D01*
X2422Y2015D02*
X2482Y2015D01*
X2522Y2015D02*
X2582Y2015D01*
X2622Y2015D02*
X2682Y2015D01*
X2722Y2015D02*
X2782Y2015D01*
X2822Y2015D02*
X2882Y2015D01*
X2922Y2015D02*
X2982Y2015D01*
X3022Y2015D02*
X3082Y2015D01*
X3224Y2015D02*
X3284Y2015D01*
X3324Y2015D02*
X3384Y2015D01*
X3424Y2015D02*
X3484Y2015D01*
X3524Y2015D02*
X3584Y2015D01*
X3624Y2015D02*
X3684Y2015D01*
X3724Y2015D02*
X3784Y2015D01*
X3824Y2015D02*
X3884Y2015D01*
X3924Y2015D02*
X3984Y2015D01*
X2322Y2014D02*
X2382Y2014D01*
X2422Y2014D02*
X2482Y2014D01*
X2522Y2014D02*
X2582Y2014D01*
X2622Y2014D02*
X2682Y2014D01*
X2722Y2014D02*
X2782Y2014D01*
X2822Y2014D02*
X2882Y2014D01*
X2922Y2014D02*
X2982Y2014D01*
X3022Y2014D02*
X3082Y2014D01*
X3224Y2014D02*
X3284Y2014D01*
X3324Y2014D02*
X3384Y2014D01*
X3424Y2014D02*
X3484Y2014D01*
X3524Y2014D02*
X3584Y2014D01*
X3624Y2014D02*
X3684Y2014D01*
X3724Y2014D02*
X3784Y2014D01*
X3824Y2014D02*
X3884Y2014D01*
X3924Y2014D02*
X3984Y2014D01*
X2322Y2013D02*
X2382Y2013D01*
X2422Y2013D02*
X2482Y2013D01*
X2522Y2013D02*
X2582Y2013D01*
X2622Y2013D02*
X2682Y2013D01*
X2722Y2013D02*
X2782Y2013D01*
X2822Y2013D02*
X2882Y2013D01*
X2922Y2013D02*
X2982Y2013D01*
X3022Y2013D02*
X3082Y2013D01*
X3225Y2013D02*
X3283Y2013D01*
X3325Y2013D02*
X3383Y2013D01*
X3425Y2013D02*
X3483Y2013D01*
X3525Y2013D02*
X3583Y2013D01*
X3625Y2013D02*
X3683Y2013D01*
X3725Y2013D02*
X3783Y2013D01*
X3825Y2013D02*
X3883Y2013D01*
X3925Y2013D02*
X3983Y2013D01*
X2323Y2012D02*
X2382Y2012D01*
X2422Y2012D02*
X2482Y2012D01*
X2522Y2012D02*
X2582Y2012D01*
X2622Y2012D02*
X2682Y2012D01*
X2722Y2012D02*
X2782Y2012D01*
X2822Y2012D02*
X2882Y2012D01*
X2922Y2012D02*
X2982Y2012D01*
X3022Y2012D02*
X3082Y2012D01*
X3225Y2012D02*
X3283Y2012D01*
X3325Y2012D02*
X3383Y2012D01*
X3425Y2012D02*
X3483Y2012D01*
X3525Y2012D02*
X3583Y2012D01*
X3625Y2012D02*
X3683Y2012D01*
X3725Y2012D02*
X3783Y2012D01*
X3825Y2012D02*
X3883Y2012D01*
X3925Y2012D02*
X3983Y2012D01*
X2323Y2011D02*
X2382Y2011D01*
X2423Y2011D02*
X2482Y2011D01*
X2523Y2011D02*
X2582Y2011D01*
X2623Y2011D02*
X2682Y2011D01*
X2723Y2011D02*
X2782Y2011D01*
X2823Y2011D02*
X2882Y2011D01*
X2923Y2011D02*
X2982Y2011D01*
X3023Y2011D02*
X3082Y2011D01*
X3225Y2011D02*
X3283Y2011D01*
X3325Y2011D02*
X3383Y2011D01*
X3425Y2011D02*
X3483Y2011D01*
X3525Y2011D02*
X3583Y2011D01*
X3625Y2011D02*
X3683Y2011D01*
X3725Y2011D02*
X3783Y2011D01*
X3825Y2011D02*
X3883Y2011D01*
X3925Y2011D02*
X3983Y2011D01*
X2323Y2010D02*
X2381Y2010D01*
X2423Y2010D02*
X2481Y2010D01*
X2523Y2010D02*
X2581Y2010D01*
X2623Y2010D02*
X2681Y2010D01*
X2723Y2010D02*
X2781Y2010D01*
X2823Y2010D02*
X2881Y2010D01*
X2923Y2010D02*
X2981Y2010D01*
X3023Y2010D02*
X3081Y2010D01*
X3226Y2010D02*
X3282Y2010D01*
X3326Y2010D02*
X3382Y2010D01*
X3426Y2010D02*
X3482Y2010D01*
X3526Y2010D02*
X3582Y2010D01*
X3626Y2010D02*
X3682Y2010D01*
X3726Y2010D02*
X3782Y2010D01*
X3826Y2010D02*
X3882Y2010D01*
X3926Y2010D02*
X3982Y2010D01*
X2323Y2009D02*
X2381Y2009D01*
X2423Y2009D02*
X2481Y2009D01*
X2523Y2009D02*
X2581Y2009D01*
X2623Y2009D02*
X2681Y2009D01*
X2723Y2009D02*
X2781Y2009D01*
X2823Y2009D02*
X2881Y2009D01*
X2923Y2009D02*
X2981Y2009D01*
X3023Y2009D02*
X3081Y2009D01*
X3226Y2009D02*
X3282Y2009D01*
X3326Y2009D02*
X3382Y2009D01*
X3426Y2009D02*
X3482Y2009D01*
X3526Y2009D02*
X3582Y2009D01*
X3626Y2009D02*
X3682Y2009D01*
X3726Y2009D02*
X3782Y2009D01*
X3826Y2009D02*
X3882Y2009D01*
X3926Y2009D02*
X3982Y2009D01*
X2324Y2008D02*
X2381Y2008D01*
X2424Y2008D02*
X2481Y2008D01*
X2524Y2008D02*
X2581Y2008D01*
X2624Y2008D02*
X2681Y2008D01*
X2724Y2008D02*
X2781Y2008D01*
X2824Y2008D02*
X2881Y2008D01*
X2924Y2008D02*
X2981Y2008D01*
X3024Y2008D02*
X3081Y2008D01*
X3227Y2008D02*
X3281Y2008D01*
X3327Y2008D02*
X3381Y2008D01*
X3427Y2008D02*
X3481Y2008D01*
X3527Y2008D02*
X3581Y2008D01*
X3627Y2008D02*
X3681Y2008D01*
X3727Y2008D02*
X3781Y2008D01*
X3827Y2008D02*
X3881Y2008D01*
X3927Y2008D02*
X3981Y2008D01*
X2324Y2007D02*
X2380Y2007D01*
X2424Y2007D02*
X2480Y2007D01*
X2524Y2007D02*
X2580Y2007D01*
X2624Y2007D02*
X2680Y2007D01*
X2724Y2007D02*
X2780Y2007D01*
X2824Y2007D02*
X2880Y2007D01*
X2924Y2007D02*
X2980Y2007D01*
X3024Y2007D02*
X3080Y2007D01*
X3227Y2007D02*
X3281Y2007D01*
X3327Y2007D02*
X3381Y2007D01*
X3427Y2007D02*
X3481Y2007D01*
X3527Y2007D02*
X3581Y2007D01*
X3627Y2007D02*
X3681Y2007D01*
X3727Y2007D02*
X3781Y2007D01*
X3827Y2007D02*
X3881Y2007D01*
X3927Y2007D02*
X3981Y2007D01*
X2325Y2006D02*
X2380Y2006D01*
X2425Y2006D02*
X2480Y2006D01*
X2525Y2006D02*
X2580Y2006D01*
X2625Y2006D02*
X2680Y2006D01*
X2725Y2006D02*
X2780Y2006D01*
X2825Y2006D02*
X2880Y2006D01*
X2925Y2006D02*
X2980Y2006D01*
X3025Y2006D02*
X3080Y2006D01*
X3228Y2006D02*
X3280Y2006D01*
X3328Y2006D02*
X3380Y2006D01*
X3428Y2006D02*
X3480Y2006D01*
X3528Y2006D02*
X3580Y2006D01*
X3628Y2006D02*
X3680Y2006D01*
X3728Y2006D02*
X3780Y2006D01*
X3828Y2006D02*
X3880Y2006D01*
X3928Y2006D02*
X3980Y2006D01*
X2325Y2005D02*
X2379Y2005D01*
X2425Y2005D02*
X2479Y2005D01*
X2525Y2005D02*
X2579Y2005D01*
X2625Y2005D02*
X2679Y2005D01*
X2725Y2005D02*
X2779Y2005D01*
X2825Y2005D02*
X2879Y2005D01*
X2925Y2005D02*
X2979Y2005D01*
X3025Y2005D02*
X3079Y2005D01*
X3228Y2005D02*
X3280Y2005D01*
X3328Y2005D02*
X3380Y2005D01*
X3428Y2005D02*
X3480Y2005D01*
X3528Y2005D02*
X3580Y2005D01*
X3628Y2005D02*
X3680Y2005D01*
X3728Y2005D02*
X3780Y2005D01*
X3828Y2005D02*
X3880Y2005D01*
X3928Y2005D02*
X3980Y2005D01*
X2326Y2004D02*
X2379Y2004D01*
X2426Y2004D02*
X2479Y2004D01*
X2526Y2004D02*
X2579Y2004D01*
X2626Y2004D02*
X2679Y2004D01*
X2726Y2004D02*
X2779Y2004D01*
X2826Y2004D02*
X2879Y2004D01*
X2926Y2004D02*
X2979Y2004D01*
X3026Y2004D02*
X3079Y2004D01*
X3229Y2004D02*
X3279Y2004D01*
X3329Y2004D02*
X3379Y2004D01*
X3429Y2004D02*
X3479Y2004D01*
X3529Y2004D02*
X3579Y2004D01*
X3629Y2004D02*
X3679Y2004D01*
X3729Y2004D02*
X3779Y2004D01*
X3829Y2004D02*
X3879Y2004D01*
X3929Y2004D02*
X3979Y2004D01*
X2326Y2003D02*
X2378Y2003D01*
X2426Y2003D02*
X2478Y2003D01*
X2526Y2003D02*
X2578Y2003D01*
X2626Y2003D02*
X2678Y2003D01*
X2726Y2003D02*
X2778Y2003D01*
X2826Y2003D02*
X2878Y2003D01*
X2926Y2003D02*
X2978Y2003D01*
X3026Y2003D02*
X3078Y2003D01*
X3230Y2003D02*
X3278Y2003D01*
X3330Y2003D02*
X3378Y2003D01*
X3430Y2003D02*
X3478Y2003D01*
X3530Y2003D02*
X3578Y2003D01*
X3630Y2003D02*
X3678Y2003D01*
X3730Y2003D02*
X3778Y2003D01*
X3830Y2003D02*
X3878Y2003D01*
X3930Y2003D02*
X3978Y2003D01*
X2327Y2002D02*
X2378Y2002D01*
X2427Y2002D02*
X2478Y2002D01*
X2527Y2002D02*
X2578Y2002D01*
X2627Y2002D02*
X2678Y2002D01*
X2727Y2002D02*
X2778Y2002D01*
X2827Y2002D02*
X2878Y2002D01*
X2927Y2002D02*
X2978Y2002D01*
X3027Y2002D02*
X3077Y2002D01*
X3230Y2002D02*
X3277Y2002D01*
X3330Y2002D02*
X3377Y2002D01*
X3430Y2002D02*
X3477Y2002D01*
X3530Y2002D02*
X3577Y2002D01*
X3630Y2002D02*
X3677Y2002D01*
X3730Y2002D02*
X3777Y2002D01*
X3830Y2002D02*
X3877Y2002D01*
X3930Y2002D02*
X3977Y2002D01*
X2328Y2001D02*
X2377Y2001D01*
X2428Y2001D02*
X2477Y2001D01*
X2528Y2001D02*
X2577Y2001D01*
X2628Y2001D02*
X2677Y2001D01*
X2728Y2001D02*
X2777Y2001D01*
X2828Y2001D02*
X2877Y2001D01*
X2928Y2001D02*
X2977Y2001D01*
X3028Y2001D02*
X3077Y2001D01*
X3231Y2001D02*
X3277Y2001D01*
X3331Y2001D02*
X3377Y2001D01*
X3431Y2001D02*
X3477Y2001D01*
X3531Y2001D02*
X3577Y2001D01*
X3631Y2001D02*
X3677Y2001D01*
X3731Y2001D02*
X3777Y2001D01*
X3831Y2001D02*
X3877Y2001D01*
X3931Y2001D02*
X3977Y2001D01*
X2328Y2000D02*
X2376Y2000D01*
X2428Y2000D02*
X2476Y2000D01*
X2528Y2000D02*
X2576Y2000D01*
X2628Y2000D02*
X2676Y2000D01*
X2728Y2000D02*
X2776Y2000D01*
X2828Y2000D02*
X2876Y2000D01*
X2928Y2000D02*
X2976Y2000D01*
X3028Y2000D02*
X3076Y2000D01*
X3232Y2000D02*
X3276Y2000D01*
X3332Y2000D02*
X3376Y2000D01*
X3432Y2000D02*
X3476Y2000D01*
X3532Y2000D02*
X3576Y2000D01*
X3632Y2000D02*
X3676Y2000D01*
X3732Y2000D02*
X3776Y2000D01*
X3832Y2000D02*
X3876Y2000D01*
X3932Y2000D02*
X3976Y2000D01*
X2329Y1999D02*
X2375Y1999D01*
X2429Y1999D02*
X2475Y1999D01*
X2529Y1999D02*
X2575Y1999D01*
X2629Y1999D02*
X2675Y1999D01*
X2729Y1999D02*
X2775Y1999D01*
X2829Y1999D02*
X2875Y1999D01*
X2929Y1999D02*
X2975Y1999D01*
X3029Y1999D02*
X3075Y1999D01*
X3233Y1999D02*
X3275Y1999D01*
X3333Y1999D02*
X3375Y1999D01*
X3433Y1999D02*
X3475Y1999D01*
X3533Y1999D02*
X3575Y1999D01*
X3633Y1999D02*
X3675Y1999D01*
X3733Y1999D02*
X3775Y1999D01*
X3833Y1999D02*
X3875Y1999D01*
X3933Y1999D02*
X3975Y1999D01*
X2330Y1998D02*
X2374Y1998D01*
X2430Y1998D02*
X2474Y1998D01*
X2530Y1998D02*
X2574Y1998D01*
X2630Y1998D02*
X2674Y1998D01*
X2730Y1998D02*
X2774Y1998D01*
X2830Y1998D02*
X2874Y1998D01*
X2930Y1998D02*
X2974Y1998D01*
X3030Y1998D02*
X3074Y1998D01*
X3234Y1998D02*
X3274Y1998D01*
X3334Y1998D02*
X3374Y1998D01*
X3434Y1998D02*
X3474Y1998D01*
X3534Y1998D02*
X3574Y1998D01*
X3634Y1998D02*
X3674Y1998D01*
X3734Y1998D02*
X3774Y1998D01*
X3834Y1998D02*
X3874Y1998D01*
X3934Y1998D02*
X3974Y1998D01*
X2331Y1997D02*
X2373Y1997D01*
X2431Y1997D02*
X2473Y1997D01*
X2531Y1997D02*
X2573Y1997D01*
X2631Y1997D02*
X2673Y1997D01*
X2731Y1997D02*
X2773Y1997D01*
X2831Y1997D02*
X2873Y1997D01*
X2931Y1997D02*
X2973Y1997D01*
X3031Y1997D02*
X3073Y1997D01*
X3235Y1997D02*
X3272Y1997D01*
X3335Y1997D02*
X3372Y1997D01*
X3435Y1997D02*
X3472Y1997D01*
X3535Y1997D02*
X3572Y1997D01*
X3635Y1997D02*
X3672Y1997D01*
X3735Y1997D02*
X3772Y1997D01*
X3835Y1997D02*
X3872Y1997D01*
X3935Y1997D02*
X3972Y1997D01*
X2332Y1996D02*
X2372Y1996D01*
X2432Y1996D02*
X2472Y1996D01*
X2532Y1996D02*
X2572Y1996D01*
X2632Y1996D02*
X2672Y1996D01*
X2732Y1996D02*
X2772Y1996D01*
X2832Y1996D02*
X2872Y1996D01*
X2932Y1996D02*
X2972Y1996D01*
X3032Y1996D02*
X3072Y1996D01*
X3237Y1996D02*
X3271Y1996D01*
X3337Y1996D02*
X3371Y1996D01*
X3437Y1996D02*
X3471Y1996D01*
X3537Y1996D02*
X3571Y1996D01*
X3637Y1996D02*
X3671Y1996D01*
X3737Y1996D02*
X3771Y1996D01*
X3837Y1996D02*
X3871Y1996D01*
X3937Y1996D02*
X3971Y1996D01*
X2333Y1995D02*
X2371Y1995D01*
X2433Y1995D02*
X2471Y1995D01*
X2533Y1995D02*
X2571Y1995D01*
X2633Y1995D02*
X2671Y1995D01*
X2733Y1995D02*
X2771Y1995D01*
X2833Y1995D02*
X2871Y1995D01*
X2933Y1995D02*
X2971Y1995D01*
X3033Y1995D02*
X3071Y1995D01*
X3238Y1995D02*
X3270Y1995D01*
X3338Y1995D02*
X3370Y1995D01*
X3438Y1995D02*
X3470Y1995D01*
X3538Y1995D02*
X3570Y1995D01*
X3638Y1995D02*
X3670Y1995D01*
X3738Y1995D02*
X3770Y1995D01*
X3838Y1995D02*
X3870Y1995D01*
X3938Y1995D02*
X3970Y1995D01*
X2334Y1994D02*
X2370Y1994D01*
X2434Y1994D02*
X2470Y1994D01*
X2534Y1994D02*
X2570Y1994D01*
X2634Y1994D02*
X2670Y1994D01*
X2734Y1994D02*
X2770Y1994D01*
X2834Y1994D02*
X2870Y1994D01*
X2934Y1994D02*
X2970Y1994D01*
X3034Y1994D02*
X3070Y1994D01*
X3240Y1994D02*
X3268Y1994D01*
X3340Y1994D02*
X3368Y1994D01*
X3440Y1994D02*
X3468Y1994D01*
X3540Y1994D02*
X3568Y1994D01*
X3640Y1994D02*
X3668Y1994D01*
X3740Y1994D02*
X3768Y1994D01*
X3840Y1994D02*
X3868Y1994D01*
X3940Y1994D02*
X3968Y1994D01*
X2336Y1993D02*
X2369Y1993D01*
X2436Y1993D02*
X2469Y1993D01*
X2536Y1993D02*
X2569Y1993D01*
X2636Y1993D02*
X2669Y1993D01*
X2736Y1993D02*
X2769Y1993D01*
X2836Y1993D02*
X2869Y1993D01*
X2936Y1993D02*
X2969Y1993D01*
X3036Y1993D02*
X3069Y1993D01*
X3242Y1993D02*
X3266Y1993D01*
X3342Y1993D02*
X3366Y1993D01*
X3442Y1993D02*
X3466Y1993D01*
X3542Y1993D02*
X3566Y1993D01*
X3642Y1993D02*
X3666Y1993D01*
X3742Y1993D02*
X3766Y1993D01*
X3842Y1993D02*
X3866Y1993D01*
X3942Y1993D02*
X3966Y1993D01*
X2337Y1992D02*
X2367Y1992D01*
X2437Y1992D02*
X2467Y1992D01*
X2537Y1992D02*
X2567Y1992D01*
X2637Y1992D02*
X2667Y1992D01*
X2737Y1992D02*
X2767Y1992D01*
X2837Y1992D02*
X2867Y1992D01*
X2937Y1992D02*
X2967Y1992D01*
X3037Y1992D02*
X3067Y1992D01*
X3244Y1992D02*
X3264Y1992D01*
X3344Y1992D02*
X3364Y1992D01*
X3444Y1992D02*
X3464Y1992D01*
X3544Y1992D02*
X3564Y1992D01*
X3644Y1992D02*
X3664Y1992D01*
X3744Y1992D02*
X3764Y1992D01*
X3844Y1992D02*
X3864Y1992D01*
X3944Y1992D02*
X3964Y1992D01*
X2339Y1991D02*
X2365Y1991D01*
X2439Y1991D02*
X2465Y1991D01*
X2539Y1991D02*
X2565Y1991D01*
X2639Y1991D02*
X2665Y1991D01*
X2739Y1991D02*
X2765Y1991D01*
X2839Y1991D02*
X2865Y1991D01*
X2939Y1991D02*
X2965Y1991D01*
X3039Y1991D02*
X3065Y1991D01*
X3247Y1991D02*
X3261Y1991D01*
X3347Y1991D02*
X3361Y1991D01*
X3447Y1991D02*
X3461Y1991D01*
X3547Y1991D02*
X3561Y1991D01*
X3647Y1991D02*
X3661Y1991D01*
X3747Y1991D02*
X3761Y1991D01*
X3847Y1991D02*
X3861Y1991D01*
X3947Y1991D02*
X3961Y1991D01*
X2341Y1990D02*
X2363Y1990D01*
X2441Y1990D02*
X2463Y1990D01*
X2541Y1990D02*
X2563Y1990D01*
X2641Y1990D02*
X2663Y1990D01*
X2741Y1990D02*
X2763Y1990D01*
X2841Y1990D02*
X2863Y1990D01*
X2941Y1990D02*
X2963Y1990D01*
X3041Y1990D02*
X3063Y1990D01*
X2344Y1989D02*
X2361Y1989D01*
X2444Y1989D02*
X2461Y1989D01*
X2544Y1989D02*
X2561Y1989D01*
X2644Y1989D02*
X2661Y1989D01*
X2744Y1989D02*
X2761Y1989D01*
X2844Y1989D02*
X2861Y1989D01*
X2944Y1989D02*
X2961Y1989D01*
X3044Y1989D02*
X3061Y1989D01*
X2348Y1988D02*
X2357Y1988D01*
X2448Y1988D02*
X2457Y1988D01*
X2548Y1988D02*
X2557Y1988D01*
X2648Y1988D02*
X2657Y1988D01*
X2748Y1988D02*
X2757Y1988D01*
X2848Y1988D02*
X2857Y1988D01*
X2948Y1988D02*
X2957Y1988D01*
X3048Y1988D02*
X3057Y1988D01*
D02*
G04 End of Mask1*
M02*