M48
INCH
T10C0.038000
T11C0.125984
T12C0.015748
T13C0.032000
T14C0.035000
%
T10
X039529Y015442
X038529Y015442
X037529Y015442
X036529Y015442
X035529Y015442
X034529Y015442
X033529Y015442
X032529Y015442
X040529Y031442
X039529Y031442
X038529Y031442
X037529Y031442
X036529Y031442
X035529Y031442
X034529Y031442
X033529Y031442
X026529Y009442
X026529Y010442
X017529Y001442
X017529Y002442
X017529Y003442
X017529Y004442
X017529Y005442
X017529Y006442
X023529Y015442
X022529Y015442
X021529Y015442
X020529Y015442
X019529Y015442
X018529Y015442
X017529Y015442
X016529Y015442
X015529Y015442
X014529Y015442
X013529Y015442
X012529Y015442
X011529Y015442
X010529Y015442
X009529Y015442
X008529Y015442
X007529Y015442
X023529Y009442
X022529Y009442
X021529Y009442
X020529Y009442
X019529Y009442
X018529Y009442
X017529Y009442
X016529Y009442
X015529Y009442
X014529Y009442
X013529Y009442
X012529Y009442
X011529Y009442
X010529Y009442
X009529Y009442
X008529Y009442
X007529Y009442
X006529Y027442
X006529Y026442
X006529Y025442
X006529Y024442
X006529Y023442
X006529Y022442
X006529Y021442
X006529Y020442
X006529Y019442
X006529Y018442
X006529Y017442
X023529Y031442
X024529Y031442
X025529Y031442
X026529Y031442
X027529Y031442
X028529Y031442
X029529Y031442
X030529Y031442
X031529Y031442
T11
X041338Y001544
X041339Y035045
X001924Y034990
X001941Y001561
T12
X026529Y017442
X020529Y010442
X027529Y012442
X027529Y013442
X009529Y012442
X034084Y018203
T13
X030529Y020442
X029529Y020442
X028529Y020442
X027529Y020442
X026529Y020442
X025529Y020442
X024529Y020442
X023529Y020442
X023529Y023442
X024529Y023442
X025529Y023442
X026529Y023442
X027529Y023442
X028529Y023442
X029529Y023442
X030529Y023442
X039547Y020467
X038547Y020467
X037547Y020467
X036547Y020467
X035547Y020467
X034547Y020467
X033547Y020467
X032547Y020467
X032547Y023467
X033547Y023467
X034547Y023467
X035547Y023467
X036547Y023467
X037547Y023467
X038547Y023467
X039547Y023467
T14
X033529Y029442
X033529Y025442
X020357Y020270
X017529Y017442
X034529Y029442
X034529Y025442
X019357Y021270
X016529Y018442
X018357Y022270
X015529Y019442
X017357Y023270
X014529Y020442
X016357Y024270
X013529Y021442
X038529Y029442
X038529Y025442
X040529Y029442
X040529Y025442
X039529Y029442
X039529Y025442
X037529Y029442
X037529Y025442
X035529Y029442
X035529Y025442
X036529Y029442
X036529Y025442
X011357Y029271
X008529Y026442
X024529Y029442
X024529Y025442
X027529Y029442
X027529Y025442
X026529Y029442
X026529Y025442
X031529Y029442
X031529Y025442
X015357Y025360
X012529Y022531
X028529Y029442
X028529Y025442
X030529Y029442
X030529Y025442
X013357Y027271
X010529Y024442
X014357Y026270
X011529Y023442
X012357Y028271
X009529Y025442
X029529Y029442
X029529Y025442
X025529Y029442
X025529Y025442
T00
M30
