; NON-PLATED HOLES START AT T1
; THROUGH (PLATED) HOLES START AT T100
M48
INCH
T1C0.125984
T100C0.015748
T101C0.027559
%
T1
X001044Y045601
X024544Y045601
X001044Y022101
X001044Y001101
X024544Y022101
X024544Y001101
T100
X017044Y032094
X016046Y033092
T101
X009544Y027101
X020544Y037101
X015544Y042101
X013544Y013101
X020544Y006101
X020544Y025101
X011544Y033601
X017544Y021101
X011544Y022101
X007544Y035601
X020544Y044101
X011544Y041101
X003544Y034601
X009544Y033601
X017544Y001601
X009544Y022101
X020544Y013101
X003544Y042101
X009544Y041101
X020544Y032101
X015544Y029101
X005544Y040101
X011544Y028101
X020544Y020101
X015544Y017101
X009544Y028101
X020544Y019101
X011544Y016101
X020544Y026101
X011544Y034601
X017544Y033601
X017544Y022101
X011544Y023101
X020544Y045101
X011544Y042101
X013544Y021101
X003544Y035601
X009544Y034601
X017544Y002601
X009544Y023101
X013544Y040101
X009544Y042101
X011544Y011101
X020544Y033101
X005544Y033601
X005544Y041101
X011544Y029101
X020544Y021101
X015544Y018101
X020544Y040101
X013544Y027101
X009544Y029101
X011544Y017101
X020544Y039101
X020544Y008101
X020544Y027101
X011544Y035601
X017544Y034601
X017544Y023101
X013544Y033601
X013544Y022101
X009544Y035601
X017544Y003601
X013544Y041101
X020544Y015101
X017544Y011101
X011544Y012101
X020544Y034101
X005544Y034601
X005544Y042101
X020544Y022101
X020544Y041101
X007544Y021101
X007544Y040101
X013544Y028101
X011544Y018101
X013544Y016101
X020544Y009101
X020544Y028101
X017544Y035601
X015544Y006601
X007544Y027101
X013544Y034601
X013544Y023101
X013544Y042101
X020544Y016101
X017544Y012101
X011544Y013101
X020544Y035101
X005544Y035601
X015544Y040101
X013544Y011101
X020544Y004101
X020544Y023101
X007544Y033601
X020544Y042101
X007544Y022101
X007544Y041101
X013544Y029101
X020544Y011101
X003544Y040101
X015544Y027101
X013544Y017101
X020544Y029101
X015544Y007601
X007544Y028101
X013544Y035601
X020544Y017101
X017544Y013101
X020544Y036101
X015544Y041101
X013544Y012101
X011544Y021101
X007544Y034601
X020544Y043101
X007544Y023101
X011544Y040101
X007544Y042101
X003544Y033601
X009544Y021101
X020544Y012101
X003544Y041101
X009544Y040101
X020544Y031101
X015544Y028101
X013544Y018101
X011544Y027101
X015544Y008601
X007544Y029101
X015544Y016101
T00
M30
