<?xml version="1.0" standalone="no"?>
 <!DOCTYPE svg PUBLIC "-//W3C//DTD SVG 1.1//EN" 
 "http://www.w3.org/Graphics/SVG/1.1/DTD/svg11.dtd"> 
<svg xmlns="http://www.w3.org/2000/svg" version="1.1" 
    width="6.23824cm" height="1.81864cm" viewBox="0 0 24560 7160 ">
<title>SVG Picture created as HW Debounce Button-brd.svg date 2016/01/24 20:17:43 </title>
  <desc>Picture generated by PCBNEW </desc>
<g style="fill:#000000; fill-opacity:1;stroke:#000000; stroke-opacity:1;
stroke-linecap:round; stroke-linejoin:round; "
 transform="translate(0 0) scale(1 1)">
</g>
<g style="fill:#000000; fill-opacity:0.0; 
stroke:#000000; stroke-width:-0.000393701; stroke-opacity:1; 
stroke-linecap:round; stroke-linejoin:round;">
</g>
<g style="fill:#008400; fill-opacity:0.0; 
stroke:#008400; stroke-width:-0.000393701; stroke-opacity:1; 
stroke-linecap:round; stroke-linejoin:round;">
</g>
<g style="fill:#008400; fill-opacity:0.0; 
stroke:#008400; stroke-width:78.7402; stroke-opacity:1; 
stroke-linecap:round; stroke-linejoin:round;">
<path d="M9502 6317
L9502 5923
L9727 5923
L9784 5942
L9812 5960
L9840 5998
L9840 6054
L9812 6092
L9784 6110
L9727 6129
L9502 6129
" />
<path d="M10290 6110
L10374 6129
L10402 6148
L10430 6185
L10430 6242
L10402 6279
L10374 6298
L10318 6317
L10093 6317
L10093 5923
L10290 5923
L10346 5942
L10374 5960
L10402 5998
L10402 6035
L10374 6073
L10346 6092
L10290 6110
L10093 6110
" />
<path d="M10627 6317
L10937 6054
" />
<path d="M10627 6054
L10937 6317
" />
<path d="M11133 5960
L11162 5942
L11218 5923
L11358 5923
L11415 5942
L11443 5960
L11471 5998
L11471 6035
L11443 6092
L11105 6317
L11471 6317
" />
<path d="M12511 6279
L12483 6298
L12399 6317
L12343 6317
L12258 6298
L12202 6260
L12174 6223
L12146 6148
L12146 6092
L12174 6017
L12202 5979
L12258 5942
L12343 5923
L12399 5923
L12483 5942
L12511 5960
" />
<path d="M12849 6317
L12793 6298
L12765 6279
L12736 6242
L12736 6129
L12765 6092
L12793 6073
L12849 6054
L12933 6054
L12990 6073
L13018 6092
L13046 6129
L13046 6242
L13018 6279
L12990 6298
L12933 6317
L12849 6317
" />
<path d="M13299 6054
L13299 6448
" />
<path d="M13299 6073
L13355 6054
L13468 6054
L13524 6073
L13552 6092
L13580 6129
L13580 6242
L13552 6279
L13524 6298
L13468 6317
L13355 6317
L13299 6298
" />
<path d="M13833 6054
L13833 6448
" />
<path d="M13833 6073
L13889 6054
L14002 6054
L14058 6073
L14086 6092
L14114 6129
L14114 6242
L14086 6279
L14058 6298
L14002 6317
L13889 6317
L13833 6298
" />
<path d="M14592 6298
L14536 6317
L14424 6317
L14367 6298
L14339 6260
L14339 6110
L14367 6073
L14424 6054
L14536 6054
L14592 6073
L14621 6110
L14621 6148
L14339 6185
" />
<path d="M14874 6317
L14874 6054
" />
<path d="M14874 6129
L14902 6092
L14930 6073
L14986 6054
L15042 6054
" />
</g>
<g style="fill:#840000; fill-opacity:0.0; 
stroke:#840000; stroke-width:78.7402; stroke-opacity:1; 
stroke-linecap:round; stroke-linejoin:round;">
</g>
<g style="fill:#840000; fill-opacity:0.0; 
stroke:#840000; stroke-width:0; stroke-opacity:1; 
stroke-linecap:round; stroke-linejoin:round;">
</g>
<g style="fill:#840000; fill-opacity:1.0; 
stroke:#840000; stroke-width:0; stroke-opacity:1; 
stroke-linecap:round; stroke-linejoin:round;">
<polyline style="fill-rule:evenodd;"
points="16274,4694
16786,4694
16786,4183
16274,4183
16274,4694
" /> 
<circle cx="16530.7" cy="3651.62" r="255.906" /> 
</g>
<g style="fill:#840000; fill-opacity:1.0; 
stroke:#840000; stroke-width:19.685; stroke-opacity:1; 
stroke-linecap:round; stroke-linejoin:round;">
</g>
<g style="fill:#840000; fill-opacity:1.0; 
stroke:#840000; stroke-width:0; stroke-opacity:1; 
stroke-linecap:round; stroke-linejoin:round;">
<circle cx="5530.74" cy="4439.02" r="393.5" /> 
</g>
<g style="fill:#840000; fill-opacity:1.0; 
stroke:#840000; stroke-width:19.685; stroke-opacity:1; 
stroke-linecap:round; stroke-linejoin:round;">
</g>
<g style="fill:#840000; fill-opacity:1.0; 
stroke:#840000; stroke-width:0; stroke-opacity:1; 
stroke-linecap:round; stroke-linejoin:round;">
<circle cx="9530.74" cy="4439.02" r="393.5" /> 
</g>
<g style="fill:#840000; fill-opacity:1.0; 
stroke:#840000; stroke-width:19.685; stroke-opacity:1; 
stroke-linecap:round; stroke-linejoin:round;">
</g>
<g style="fill:#840000; fill-opacity:1.0; 
stroke:#840000; stroke-width:0; stroke-opacity:1; 
stroke-linecap:round; stroke-linejoin:round;">
<circle cx="14830.7" cy="4439.02" r="393.5" /> 
</g>
<g style="fill:#840000; fill-opacity:1.0; 
stroke:#840000; stroke-width:19.685; stroke-opacity:1; 
stroke-linecap:round; stroke-linejoin:round;">
</g>
<g style="fill:#840000; fill-opacity:1.0; 
stroke:#840000; stroke-width:0; stroke-opacity:1; 
stroke-linecap:round; stroke-linejoin:round;">
<circle cx="10830.7" cy="4439.02" r="393.5" /> 
</g>
<g style="fill:#840000; fill-opacity:1.0; 
stroke:#840000; stroke-width:19.685; stroke-opacity:1; 
stroke-linecap:round; stroke-linejoin:round;">
</g>
<g style="fill:#840000; fill-opacity:1.0; 
stroke:#840000; stroke-width:0; stroke-opacity:1; 
stroke-linecap:round; stroke-linejoin:round;">
<circle cx="19430.7" cy="1339.02" r="393.5" /> 
</g>
<g style="fill:#840000; fill-opacity:1.0; 
stroke:#840000; stroke-width:19.685; stroke-opacity:1; 
stroke-linecap:round; stroke-linejoin:round;">
</g>
<g style="fill:#840000; fill-opacity:1.0; 
stroke:#840000; stroke-width:0; stroke-opacity:1; 
stroke-linecap:round; stroke-linejoin:round;">
<circle cx="19430.7" cy="5339.02" r="393.5" /> 
</g>
<g style="fill:#840000; fill-opacity:1.0; 
stroke:#840000; stroke-width:19.685; stroke-opacity:1; 
stroke-linecap:round; stroke-linejoin:round;">
</g>
<g style="fill:#840000; fill-opacity:1.0; 
stroke:#840000; stroke-width:0; stroke-opacity:1; 
stroke-linecap:round; stroke-linejoin:round;">
<polyline style="fill-rule:evenodd;"
points="13840,1578
13840,838
13100,838
13100,1578
13840,1578
" /> 
<polyline style="fill-rule:evenodd;"
points="11280,1578
11280,838
10540,838
10540,1578
11280,1578
" /> 
<polyline style="fill-rule:evenodd;"
points="13840,3358
13840,2618
13100,2618
13100,3358
13840,3358
" /> 
<polyline style="fill-rule:evenodd;"
points="11280,3358
11280,2618
10540,2618
10540,3358
11280,3358
" /> 
<polyline style="fill-rule:evenodd;"
points="4286,4694
4286,4183
3774,4183
3774,4694
4286,4694
" /> 
<circle cx="3243.33" cy="4439.02" r="255.906" /> 
</g>
<g style="fill:#840000; fill-opacity:1.0; 
stroke:#840000; stroke-width:19.685; stroke-opacity:1; 
stroke-linecap:round; stroke-linejoin:round;">
</g>
<g style="fill:#840000; fill-opacity:1.0; 
stroke:#840000; stroke-width:0; stroke-opacity:1; 
stroke-linecap:round; stroke-linejoin:round;">
<circle cx="18230.7" cy="1339.02" r="393.5" /> 
</g>
<g style="fill:#840000; fill-opacity:1.0; 
stroke:#840000; stroke-width:19.685; stroke-opacity:1; 
stroke-linecap:round; stroke-linejoin:round;">
</g>
<g style="fill:#840000; fill-opacity:1.0; 
stroke:#840000; stroke-width:0; stroke-opacity:1; 
stroke-linecap:round; stroke-linejoin:round;">
<circle cx="18230.7" cy="5339.02" r="393.5" /> 
</g>
<g style="fill:#840000; fill-opacity:1.0; 
stroke:#840000; stroke-width:19.685; stroke-opacity:1; 
stroke-linecap:round; stroke-linejoin:round;">
</g>
<g style="fill:#840000; fill-opacity:1.0; 
stroke:#840000; stroke-width:0; stroke-opacity:1; 
stroke-linecap:round; stroke-linejoin:round;">
<polyline style="fill-rule:evenodd;"
points="8440,1598
8440,858
7700,858
7700,1598
8440,1598
" /> 
<polyline style="fill-rule:evenodd;"
points="5880,1598
5880,858
5140,858
5140,1598
5880,1598
" /> 
<polyline style="fill-rule:evenodd;"
points="8440,3378
8440,2638
7700,2638
7700,3378
8440,3378
" /> 
<polyline style="fill-rule:evenodd;"
points="5880,3378
5880,2638
5140,2638
5140,3378
5880,3378
" /> 
<polyline style="fill-rule:evenodd;"
points="21630,4639
20830,4639
20830,5439
21630,5439
21630,4639
" /> 
</g>
<g style="fill:#840000; fill-opacity:1.0; 
stroke:#840000; stroke-width:800; stroke-opacity:1; 
stroke-linecap:round; stroke-linejoin:round;">
</g>
<g style="fill:#840000; fill-opacity:0.0; 
stroke:#840000; stroke-width:800; stroke-opacity:1; 
stroke-linecap:round; stroke-linejoin:round;">
<path d="M22230 5039
L22230 5039
" />
</g>
<g style="fill:#840000; fill-opacity:0.0; 
stroke:#840000; stroke-width:0; stroke-opacity:1; 
stroke-linecap:round; stroke-linejoin:round;">
</g>
<g style="fill:#840000; fill-opacity:1.0; 
stroke:#840000; stroke-width:0; stroke-opacity:1; 
stroke-linecap:round; stroke-linejoin:round;">
<polyline style="fill-rule:evenodd;"
points="21330,2939
21330,2139
20530,2139
20530,2939
21330,2939
" /> 
</g>
<g style="fill:#840000; fill-opacity:1.0; 
stroke:#840000; stroke-width:800; stroke-opacity:1; 
stroke-linecap:round; stroke-linejoin:round;">
</g>
<g style="fill:#840000; fill-opacity:0.0; 
stroke:#840000; stroke-width:800; stroke-opacity:1; 
stroke-linecap:round; stroke-linejoin:round;">
<path d="M20930 3539
L20930 3539
" />
</g>
<g style="fill:#840000; fill-opacity:0.0; 
stroke:#840000; stroke-width:0; stroke-opacity:1; 
stroke-linecap:round; stroke-linejoin:round;">
</g>
<g style="fill:#840000; fill-opacity:1.0; 
stroke:#840000; stroke-width:0; stroke-opacity:1; 
stroke-linecap:round; stroke-linejoin:round;">
<polyline style="fill-rule:evenodd;"
points="22830,2939
22830,2139
22030,2139
22030,2939
22830,2939
" /> 
</g>
<g style="fill:#840000; fill-opacity:1.0; 
stroke:#840000; stroke-width:800; stroke-opacity:1; 
stroke-linecap:round; stroke-linejoin:round;">
</g>
<g style="fill:#840000; fill-opacity:0.0; 
stroke:#840000; stroke-width:800; stroke-opacity:1; 
stroke-linecap:round; stroke-linejoin:round;">
<path d="M22430 3539
L22430 3539
" />
</g>
<g style="fill:#008400; fill-opacity:0.0; 
stroke:#008400; stroke-width:800; stroke-opacity:1; 
stroke-linecap:round; stroke-linejoin:round;">
</g>
<g style="fill:#008400; fill-opacity:0.0; 
stroke:#008400; stroke-width:314.961; stroke-opacity:1; 
stroke-linecap:round; stroke-linejoin:round;">
<path d="M18230 1339
L19430 1339
" />
<path d="M20930 2539
L20630 2539
" />
<path d="M20630 2539
L19430 1339
" />
<path d="M20930 2539
L20966 2595
" />
<path d="M22430 2539
L20930 2539
" />
<path d="M10910 2988
L10910 4359
" />
<path d="M10910 4359
L10830 4439
" />
<path d="M13470 2988
L10910 2988
" />
<path d="M21230 5039
L19730 5039
" />
<path d="M19730 5039
L19430 5339
" />
<path d="M16530 4439
L18810 4439
" />
<path d="M18810 4439
L19430 5339
" />
<path d="M14830 4439
L16530 4439
" />
<path d="M19430 5339
L19430 5329
" />
<path d="M19430 5339
L19400 5339
" />
<path d="M22230 5039
L22230 6039
" />
<path d="M19030 6139
L18230 5339
" />
<path d="M22130 6139
L19030 6139
" />
<path d="M22230 6039
L22130 6139
" />
<path d="M18230 5339
L6430 5339
" />
<path d="M6430 5339
L5530 4439
" />
<path d="M4030 4439
L5530 4439
" />
<path d="M5530 4439
L5530 4484
" />
<path d="M8070 3008
L9530 4438
" />
<path d="M9530 4438
L9530 4439
" />
<path d="M5510 3008
L8070 3008
" />
</g>
<g style="fill:#008400; fill-opacity:1.0; 
stroke:#008400; stroke-width:59.0551; stroke-opacity:1; 
stroke-linecap:round; stroke-linejoin:round;">
<polyline style="fill-rule:evenodd;"
points="2289,6479
9093,6479
9093,5726
6430,5726
6282,5696
6157,5612
5606,5061
5407,5062
5178,4967
5036,4826
4475,4826
4452,4860
4376,4911
4286,4928
3774,4928
3685,4911
3609,4860
3558,4784
3543,4706
3411,4706
3378,4744
3251,4773
3122,4750
3108,4744
3075,4706
3243,4538
3411,4706
3543,4706
3540,4694
3540,4581
3511,4607
3342,4439
3143,4439
2975,4607
2937,4574
2909,4446
2931,4318
2937,4303
2975,4270
3143,4439
3342,4439
3511,4270
3540,4296
3540,4183
3543,4171
3411,4171
3243,4339
3075,4171
3108,4133
3235,4104
3364,4127
3378,4133
3411,4171
3543,4171
3558,4093
3609,4017
3685,3966
3774,3949
4286,3949
4376,3966
4452,4017
4475,4052
5036,4052
5177,3911
5406,3816
5654,3815
5883,3910
6058,4085
6153,4314
6153,4514
6591,4952
9162,4952
9002,4792
8907,4563
8907,4370
8134,3612
7700,3612
7611,3595
7535,3544
7484,3468
7469,3395
6111,3395
6096,3468
6046,3544
5970,3595
5880,3612
5140,3612
5051,3595
4975,3544
4924,3468
4906,3378
4906,2638
4924,2549
4975,2473
5051,2422
5140,2404
5880,2404
5970,2422
6046,2473
6096,2549
6111,2621
7469,2621
7484,2549
7535,2473
7611,2422
7700,2404
8440,2404
8530,2422
8606,2473
8656,2549
8674,2638
8674,3058
9447,3816
9654,3815
9883,3910
10058,4085
10153,4314
10153,4562
10059,4791
9898,4952
10462,4952
10302,4792
10207,4563
10207,4315
10302,4086
10477,3911
10523,3891
10523,3589
10451,3575
10375,3524
10324,3448
10306,3358
10306,2618
10324,2529
10375,2453
10451,2402
10540,2384
11280,2384
11370,2402
11446,2453
11496,2529
11511,2601
12869,2601
12884,2529
12935,2453
13011,2402
13100,2384
13840,2384
13930,2402
14006,2453
14056,2529
14074,2618
14074,3358
14056,3448
14006,3524
13930,3575
13840,3592
13100,3592
13011,3575
12935,3524
12884,3448
12869,3375
11511,3375
11496,3448
11446,3524
11370,3575
11297,3589
11297,4024
11358,4085
11453,4314
11453,4562
11359,4791
11198,4952
14462,4952
14302,4792
14207,4563
14207,4315
14302,4086
14477,3911
14706,3816
14954,3815
15183,3910
15324,4052
16086,4052
16109,4017
16185,3966
16274,3949
16388,3949
16362,3919
16530,3751
16698,3919
16673,3949
16786,3949
16876,3966
16952,4017
16975,4052
18810,4052
18845,4058
18880,4058
18918,4073
18958,4081
18988,4101
19021,4114
19050,4142
19084,4165
19104,4194
19129,4219
19471,4715
19531,4715
19582,4681
19730,4652
20596,4652
20596,4639
20614,4549
20665,4473
20741,4422
20830,4404
21630,4404
21720,4422
21796,4473
21842,4543
21989,4445
22230,4397
22471,4445
22675,4581
22812,4785
22860,5026
22860,5051
22812,5292
22675,5496
22617,5535
22617,6039
22588,6187
22504,6312
22404,6412
22303,6479
23171,6479
23171,3681
22880,3681
22849,3756
22734,3900
22573,3989
22501,3987
22501,3609
22360,3609
22360,3987
22288,3989
22126,3900
22011,3756
21980,3681
21380,3681
21349,3756
21234,3900
21073,3989
21001,3987
21001,3609
20860,3609
20860,3987
20788,3989
20626,3900
20511,3756
20480,3681
20481,3643
16865,3643
16842,3772
16836,3786
16798,3819
16630,3651
16431,3651
16262,3819
16224,3786
16196,3659
16218,3530
16224,3516
16262,3483
16431,3651
16630,3651
16798,3483
16836,3516
16865,3643
20481,3643
20482,3609
20860,3609
21001,3609
21379,3609
21380,3681
21980,3681
21982,3609
22360,3609
22501,3609
22879,3609
22880,3681
23171,3681
23171,2139
23064,2139
23064,2939
23046,3028
22996,3104
22920,3155
22830,3173
22725,3173
22734,3177
22849,3321
22880,3396
22879,3468
22501,3468
22501,3460
22360,3460
22360,3468
21982,3468
21980,3396
22011,3321
22126,3177
22135,3173
22030,3173
21941,3155
21865,3104
21814,3028
21796,2939
21796,2926
21564,2926
21564,2939
21546,3028
21496,3104
21420,3155
21330,3173
21225,3173
21234,3177
21349,3321
21380,3396
21379,3468
21001,3468
21001,3460
20860,3460
20860,3468
20482,3468
20480,3396
20486,3383
16698,3383
16530,3551
16362,3383
16395,3345
16522,3317
16651,3339
16665,3345
16698,3383
20486,3383
20511,3321
20626,3177
20635,3173
20530,3173
20441,3155
20365,3104
20314,3028
20296,2939
20296,2752
19626,2081
16052,2081
15942,2347
15740,2550
15474,2660
15187,2660
14922,2551
14719,2348
14650,2181
4252,2181
4142,2447
3940,2650
3674,2760
3387,2760
3122,2651
2919,2448
2809,2183
2808,1896
2918,1630
3121,1427
3386,1317
3673,1317
3938,1426
4142,1629
4252,1894
4252,2181
14650,2181
14609,2083
14608,1796
14718,1530
14921,1327
14994,1297
13912,1297
13912,1593
13901,1619
13881,1639
13854,1650
13559,1650
13541,1632
13541,1279
13400,1279
13400,1632
13382,1650
13086,1650
13059,1639
13039,1619
13028,1593
13028,1297
11352,1297
11352,1593
11341,1619
11321,1639
11294,1650
10999,1650
10981,1632
10981,1279
10840,1279
10840,1632
10822,1650
10526,1650
10499,1639
10479,1619
10468,1593
10468,1317
8512,1317
8512,1613
8501,1639
8481,1660
8454,1670
8159,1670
8141,1652
8141,1299
8000,1299
8000,1652
7982,1670
7686,1670
7659,1660
7639,1639
7628,1613
7628,1317
5952,1317
5952,1613
5941,1639
5921,1660
5894,1670
5599,1670
5581,1652
5581,1299
5440,1299
5440,1652
5422,1670
5126,1670
5099,1660
5079,1639
5068,1613
5068,1317
5086,1299
5440,1299
5581,1299
5934,1299
5952,1317
7628,1317
7646,1299
8000,1299
8141,1299
8494,1299
8512,1317
10468,1317
10468,1297
10486,1279
10840,1279
10981,1279
11334,1279
11352,1297
13028,1297
13046,1279
13400,1279
13541,1279
13894,1279
13912,1297
14994,1297
15186,1217
15473,1217
15738,1326
15942,1529
16052,1794
16052,2081
19626,2081
19506,1961
19307,1962
19078,1867
18936,1726
18724,1726
18584,1866
18355,1961
18107,1962
17878,1867
17702,1692
17607,1463
17607,1215
17702,986
17864,824
13912,824
13912,1120
13894,1138
13541,1138
13541,784
13400,784
13400,1138
13046,1138
13028,1120
13028,824
11352,824
11352,1120
11334,1138
10981,1138
10981,784
10840,784
10840,1138
10486,1138
10468,1120
10468,844
8512,844
8512,1140
8494,1158
8141,1158
8141,804
8000,804
8000,1158
7646,1158
7628,1140
7628,844
5952,844
5952,1140
5934,1158
5581,1158
5581,804
5440,804
5440,1158
5086,1158
5068,1140
5068,844
5079,818
5099,797
5126,786
5422,786
5440,804
5581,804
5599,786
5894,786
5921,797
5941,818
5952,844
7628,844
7639,818
7659,797
7686,786
7982,786
8000,804
8141,804
8159,786
8454,786
8481,797
8501,818
8512,844
10468,844
10468,824
10479,798
10499,777
10526,766
10822,766
10840,784
10981,784
10999,766
11294,766
11321,777
11341,798
11352,824
13028,824
13039,798
13059,777
13086,766
13382,766
13400,784
13541,784
13559,766
13854,766
13881,777
13901,798
13912,824
17864,824
17877,811
18106,716
18354,715
18583,810
18724,952
18936,952
19077,811
19306,716
19554,715
19783,810
19958,985
20053,1214
20053,1414
20544,1904
21330,1904
21420,1922
21496,1973
21546,2049
21564,2139
21564,2152
21796,2152
21796,2139
21814,2049
21865,1973
21941,1922
22030,1904
22830,1904
22920,1922
22996,1973
23046,2049
23064,2139
23171,2139
23171,598
2289,598
2289,6479
" /> 
</g>
<g style="fill:#FFFFFF; fill-opacity:1.0; 
stroke:#FFFFFF; stroke-width:59.0551; stroke-opacity:1; 
stroke-linecap:round; stroke-linejoin:round;">
</g>
<g style="fill:#FFFFFF; fill-opacity:1.0; 
stroke:#FFFFFF; stroke-width:0; stroke-opacity:1; 
stroke-linecap:round; stroke-linejoin:round;">
<circle cx="15330.7" cy="1939.02" r="492.126" /> 
</g>
<g style="fill:#FFFFFF; fill-opacity:1.0; 
stroke:#FFFFFF; stroke-width:19.685; stroke-opacity:1; 
stroke-linecap:round; stroke-linejoin:round;">
</g>
<g style="fill:#FFFFFF; fill-opacity:1.0; 
stroke:#FFFFFF; stroke-width:0; stroke-opacity:1; 
stroke-linecap:round; stroke-linejoin:round;">
<circle cx="16530.7" cy="4439.02" r="157.48" /> 
</g>
<g style="fill:#FFFFFF; fill-opacity:1.0; 
stroke:#FFFFFF; stroke-width:19.685; stroke-opacity:1; 
stroke-linecap:round; stroke-linejoin:round;">
</g>
<g style="fill:#FFFFFF; fill-opacity:1.0; 
stroke:#FFFFFF; stroke-width:0; stroke-opacity:1; 
stroke-linecap:round; stroke-linejoin:round;">
<circle cx="16530.7" cy="3651.62" r="157.48" /> 
</g>
<g style="fill:#FFFFFF; fill-opacity:1.0; 
stroke:#FFFFFF; stroke-width:19.685; stroke-opacity:1; 
stroke-linecap:round; stroke-linejoin:round;">
</g>
<g style="fill:#FFFFFF; fill-opacity:1.0; 
stroke:#FFFFFF; stroke-width:0; stroke-opacity:1; 
stroke-linecap:round; stroke-linejoin:round;">
<circle cx="5530.74" cy="4439.02" r="197" /> 
</g>
<g style="fill:#FFFFFF; fill-opacity:1.0; 
stroke:#FFFFFF; stroke-width:19.685; stroke-opacity:1; 
stroke-linecap:round; stroke-linejoin:round;">
</g>
<g style="fill:#FFFFFF; fill-opacity:1.0; 
stroke:#FFFFFF; stroke-width:0; stroke-opacity:1; 
stroke-linecap:round; stroke-linejoin:round;">
<circle cx="9530.74" cy="4439.02" r="197" /> 
</g>
<g style="fill:#FFFFFF; fill-opacity:1.0; 
stroke:#FFFFFF; stroke-width:19.685; stroke-opacity:1; 
stroke-linecap:round; stroke-linejoin:round;">
</g>
<g style="fill:#FFFFFF; fill-opacity:1.0; 
stroke:#FFFFFF; stroke-width:0; stroke-opacity:1; 
stroke-linecap:round; stroke-linejoin:round;">
<circle cx="14830.7" cy="4439.02" r="197" /> 
</g>
<g style="fill:#FFFFFF; fill-opacity:1.0; 
stroke:#FFFFFF; stroke-width:19.685; stroke-opacity:1; 
stroke-linecap:round; stroke-linejoin:round;">
</g>
<g style="fill:#FFFFFF; fill-opacity:1.0; 
stroke:#FFFFFF; stroke-width:0; stroke-opacity:1; 
stroke-linecap:round; stroke-linejoin:round;">
<circle cx="10830.7" cy="4439.02" r="197" /> 
</g>
<g style="fill:#FFFFFF; fill-opacity:1.0; 
stroke:#FFFFFF; stroke-width:19.685; stroke-opacity:1; 
stroke-linecap:round; stroke-linejoin:round;">
</g>
<g style="fill:#FFFFFF; fill-opacity:1.0; 
stroke:#FFFFFF; stroke-width:0; stroke-opacity:1; 
stroke-linecap:round; stroke-linejoin:round;">
<circle cx="19430.7" cy="1339.02" r="197" /> 
</g>
<g style="fill:#FFFFFF; fill-opacity:1.0; 
stroke:#FFFFFF; stroke-width:19.685; stroke-opacity:1; 
stroke-linecap:round; stroke-linejoin:round;">
</g>
<g style="fill:#FFFFFF; fill-opacity:1.0; 
stroke:#FFFFFF; stroke-width:0; stroke-opacity:1; 
stroke-linecap:round; stroke-linejoin:round;">
<circle cx="19430.7" cy="5339.02" r="197" /> 
</g>
<g style="fill:#FFFFFF; fill-opacity:1.0; 
stroke:#FFFFFF; stroke-width:19.685; stroke-opacity:1; 
stroke-linecap:round; stroke-linejoin:round;">
</g>
<g style="fill:#FFFFFF; fill-opacity:1.0; 
stroke:#FFFFFF; stroke-width:400; stroke-opacity:1; 
stroke-linecap:round; stroke-linejoin:round;">
</g>
<g style="fill:#FFFFFF; fill-opacity:0.0; 
stroke:#FFFFFF; stroke-width:400; stroke-opacity:1; 
stroke-linecap:round; stroke-linejoin:round;">
<path d="M13470 1128
L13470 1288
" />
<path d="M10910 1128
L10910 1288
" />
<path d="M13470 2908
L13470 3068
" />
<path d="M10910 2908
L10910 3068
" />
</g>
<g style="fill:#FFFFFF; fill-opacity:1.0; 
stroke:#FFFFFF; stroke-width:0; stroke-opacity:1; 
stroke-linecap:round; stroke-linejoin:round;">
<circle cx="4030.74" cy="4439.02" r="157.48" /> 
</g>
<g style="fill:#FFFFFF; fill-opacity:1.0; 
stroke:#FFFFFF; stroke-width:19.685; stroke-opacity:1; 
stroke-linecap:round; stroke-linejoin:round;">
</g>
<g style="fill:#FFFFFF; fill-opacity:1.0; 
stroke:#FFFFFF; stroke-width:0; stroke-opacity:1; 
stroke-linecap:round; stroke-linejoin:round;">
<circle cx="3243.33" cy="4439.02" r="157.48" /> 
</g>
<g style="fill:#FFFFFF; fill-opacity:1.0; 
stroke:#FFFFFF; stroke-width:19.685; stroke-opacity:1; 
stroke-linecap:round; stroke-linejoin:round;">
</g>
<g style="fill:#FFFFFF; fill-opacity:1.0; 
stroke:#FFFFFF; stroke-width:0; stroke-opacity:1; 
stroke-linecap:round; stroke-linejoin:round;">
<circle cx="18230.7" cy="1339.02" r="197" /> 
</g>
<g style="fill:#FFFFFF; fill-opacity:1.0; 
stroke:#FFFFFF; stroke-width:19.685; stroke-opacity:1; 
stroke-linecap:round; stroke-linejoin:round;">
</g>
<g style="fill:#FFFFFF; fill-opacity:1.0; 
stroke:#FFFFFF; stroke-width:0; stroke-opacity:1; 
stroke-linecap:round; stroke-linejoin:round;">
<circle cx="18230.7" cy="5339.02" r="197" /> 
</g>
<g style="fill:#FFFFFF; fill-opacity:1.0; 
stroke:#FFFFFF; stroke-width:19.685; stroke-opacity:1; 
stroke-linecap:round; stroke-linejoin:round;">
</g>
<g style="fill:#FFFFFF; fill-opacity:1.0; 
stroke:#FFFFFF; stroke-width:400; stroke-opacity:1; 
stroke-linecap:round; stroke-linejoin:round;">
</g>
<g style="fill:#FFFFFF; fill-opacity:0.0; 
stroke:#FFFFFF; stroke-width:400; stroke-opacity:1; 
stroke-linecap:round; stroke-linejoin:round;">
<path d="M8070 1148
L8070 1308
" />
<path d="M5510 1148
L5510 1308
" />
<path d="M8070 2928
L8070 3088
" />
<path d="M5510 2928
L5510 3088
" />
</g>
<g style="fill:#FFFFFF; fill-opacity:1.0; 
stroke:#FFFFFF; stroke-width:0; stroke-opacity:1; 
stroke-linecap:round; stroke-linejoin:round;">
<circle cx="21230.7" cy="5039.02" r="200" /> 
</g>
<g style="fill:#FFFFFF; fill-opacity:1.0; 
stroke:#FFFFFF; stroke-width:19.685; stroke-opacity:1; 
stroke-linecap:round; stroke-linejoin:round;">
</g>
<g style="fill:#FFFFFF; fill-opacity:1.0; 
stroke:#FFFFFF; stroke-width:0; stroke-opacity:1; 
stroke-linecap:round; stroke-linejoin:round;">
<circle cx="22230.7" cy="5039.02" r="200" /> 
</g>
<g style="fill:#FFFFFF; fill-opacity:1.0; 
stroke:#FFFFFF; stroke-width:19.685; stroke-opacity:1; 
stroke-linecap:round; stroke-linejoin:round;">
</g>
<g style="fill:#FFFFFF; fill-opacity:1.0; 
stroke:#FFFFFF; stroke-width:0; stroke-opacity:1; 
stroke-linecap:round; stroke-linejoin:round;">
<circle cx="20930.7" cy="2539.02" r="200" /> 
</g>
<g style="fill:#FFFFFF; fill-opacity:1.0; 
stroke:#FFFFFF; stroke-width:19.685; stroke-opacity:1; 
stroke-linecap:round; stroke-linejoin:round;">
</g>
<g style="fill:#FFFFFF; fill-opacity:1.0; 
stroke:#FFFFFF; stroke-width:0; stroke-opacity:1; 
stroke-linecap:round; stroke-linejoin:round;">
<circle cx="20930.7" cy="3539.02" r="200" /> 
</g>
<g style="fill:#FFFFFF; fill-opacity:1.0; 
stroke:#FFFFFF; stroke-width:19.685; stroke-opacity:1; 
stroke-linecap:round; stroke-linejoin:round;">
</g>
<g style="fill:#FFFFFF; fill-opacity:1.0; 
stroke:#FFFFFF; stroke-width:0; stroke-opacity:1; 
stroke-linecap:round; stroke-linejoin:round;">
<circle cx="22430.7" cy="2539.02" r="200" /> 
</g>
<g style="fill:#FFFFFF; fill-opacity:1.0; 
stroke:#FFFFFF; stroke-width:19.685; stroke-opacity:1; 
stroke-linecap:round; stroke-linejoin:round;">
</g>
<g style="fill:#FFFFFF; fill-opacity:1.0; 
stroke:#FFFFFF; stroke-width:0; stroke-opacity:1; 
stroke-linecap:round; stroke-linejoin:round;">
<circle cx="22430.7" cy="3539.02" r="200" /> 
</g>
<g style="fill:#FFFFFF; fill-opacity:1.0; 
stroke:#FFFFFF; stroke-width:19.685; stroke-opacity:1; 
stroke-linecap:round; stroke-linejoin:round;">
</g>
<g style="fill:#FFFFFF; fill-opacity:1.0; 
stroke:#FFFFFF; stroke-width:0; stroke-opacity:1; 
stroke-linecap:round; stroke-linejoin:round;">
<circle cx="3530.74" cy="2039.02" r="492.126" /> 
</g>
<g style="fill:#FFFFFF; fill-opacity:1.0; 
stroke:#FFFFFF; stroke-width:19.685; stroke-opacity:1; 
stroke-linecap:round; stroke-linejoin:round;">
</g>
<g style="fill:#000000; fill-opacity:1.0; 
stroke:#000000; stroke-width:19.685; stroke-opacity:1; 
stroke-linecap:round; stroke-linejoin:round;">
</g>
<g style="fill:#008484; fill-opacity:1.0; 
stroke:#008484; stroke-width:19.685; stroke-opacity:1; 
stroke-linecap:round; stroke-linejoin:round;">
</g>
<g style="fill:#008484; fill-opacity:1.0; 
stroke:#008484; stroke-width:59.0551; stroke-opacity:1; 
stroke-linecap:round; stroke-linejoin:round;">
</g>
<g style="fill:#008484; fill-opacity:0.0; 
stroke:#008484; stroke-width:59.0551; stroke-opacity:1; 
stroke-linecap:round; stroke-linejoin:round;">
<path d="M17514 4015
L15546 4015
" />
<path d="M17511 3960
L16591 3960
" />
<path d="M16470 3960
L15550 3960
" />
<path d="M17505 3905
L16716 3905
" />
<path d="M16344 3905
L15556 3905
" />
<path d="M17495 3850
L16774 3850
" />
<path d="M16286 3850
L15565 3850
" />
<path d="M17482 3795
L16811 3795
" />
<path d="M16250 3795
L15578 3795
" />
<path d="M17466 3740
L16833 3740
" />
<path d="M16228 3740
L15594 3740
" />
<path d="M17446 3685
L16843 3685
" />
<path d="M16217 3685
L15614 3685
" />
<path d="M17422 3629
L16844 3629
" />
<path d="M16216 3629
L15638 3629
" />
<path d="M17395 3574
L16836 3574
" />
<path d="M16225 3574
L15666 3574
" />
<path d="M17363 3519
L16816 3519
" />
<path d="M16244 3519
L15698 3519
" />
<path d="M17325 3464
L16784 3464
" />
<path d="M16277 3464
L15735 3464
" />
<path d="M17281 3409
L16732 3409
" />
<path d="M16329 3409
L15779 3409
" />
<path d="M17231 3354
L16635 3354
" />
<path d="M16426 3354
L15829 3354
" />
<path d="M17172 3299
L15888 3299
" />
<path d="M17102 3244
L15959 3244
" />
<path d="M17016 3189
L16045 3189
" />
<path d="M16902 3133
L16159 3133
" />
<path d="M16716 3078
L16344 3078
" />
<circle cx="16530.7" cy="3651.62" r="314.961" /> 
<circle cx="16530.7" cy="4045.32" r="999.016" /> 
<path d="M6530 4939
L8530 4939
" />
<path d="M8530 4939
L8530 3939
" />
<path d="M8530 3939
L6530 3939
" />
<path d="M6530 3939
L6530 4939
" />
<path d="M6530 4439
L6030 4439
" />
<path d="M8530 4439
L9030 4439
" />
<path d="M13830 3939
L11830 3939
" />
<path d="M11830 3939
L11830 4939
" />
<path d="M11830 4939
L13830 4939
" />
<path d="M13830 4939
L13830 3939
" />
<path d="M13830 4439
L14330 4439
" />
<path d="M11830 4439
L11330 4439
" />
<path d="M18930 2339
L18930 4339
" />
<path d="M18930 4339
L19930 4339
" />
<path d="M19930 4339
L19930 2339
" />
<path d="M19930 2339
L18930 2339
" />
<path d="M19430 2339
L19430 1839
" />
<path d="M19430 4339
L19430 4839
" />
</g>
<g style="fill:#008484; fill-opacity:0.0; 
stroke:#008484; stroke-width:50; stroke-opacity:1; 
stroke-linecap:round; stroke-linejoin:round;">
<path d="M13190 1898
L13040 2248
" />
<path d="M13190 2598
L13190 2298
" />
<path d="M13190 1598
L13190 1898
" />
<path d="M13190 898
L11190 898
" />
<path d="M11190 898
L10990 1098
" />
<path d="M10990 1098
L10990 3098
" />
<path d="M10990 3098
L11190 3298
" />
<path d="M11190 3298
L13190 3298
" />
<path d="M13190 3298
L13390 3098
" />
<path d="M13390 3098
L13390 1098
" />
<path d="M13390 1098
L13190 898
" />
<circle cx="12190.6" cy="2098.87" r="700" /> 
</g>
<g style="fill:#008484; fill-opacity:0.0; 
stroke:#008484; stroke-width:59.0551; stroke-opacity:1; 
stroke-linecap:round; stroke-linejoin:round;">
<path d="M3607 3455
L3607 5422
" />
<path d="M3552 3458
L3552 4378
" />
<path d="M3552 4499
L3552 5419
" />
<path d="M3497 3464
L3497 4252
" />
<path d="M3497 4625
L3497 5413
" />
<path d="M3442 3474
L3442 4194
" />
<path d="M3442 4683
L3442 5403
" />
<path d="M3387 3487
L3387 4158
" />
<path d="M3387 4719
L3387 5390
" />
<path d="M3331 3503
L3331 4136
" />
<path d="M3331 4741
L3331 5374
" />
<path d="M3276 3522
L3276 4126
" />
<path d="M3276 4752
L3276 5355
" />
<path d="M3221 3546
L3221 4124
" />
<path d="M3221 4753
L3221 5331
" />
<path d="M3166 3574
L3166 4133
" />
<path d="M3166 4744
L3166 5303
" />
<path d="M3111 3606
L3111 4153
" />
<path d="M3111 4724
L3111 5271
" />
<path d="M3056 3644
L3056 4185
" />
<path d="M3056 4692
L3056 5233
" />
<path d="M3001 3687
L3001 4237
" />
<path d="M3001 4640
L3001 5190
" />
<path d="M2946 3738
L2946 4334
" />
<path d="M2946 4543
L2946 5139
" />
<path d="M2890 3796
L2890 5081
" />
<path d="M2835 3867
L2835 5010
" />
<path d="M2780 3953
L2780 4924
" />
<path d="M2725 4067
L2725 4810
" />
<path d="M2670 4253
L2670 4624
" />
<circle cx="3243.33" cy="4439.02" r="314.961" /> 
<circle cx="3637.03" cy="4439.02" r="999.016" /> 
<path d="M17730 2339
L17730 4339
" />
<path d="M17730 4339
L18730 4339
" />
<path d="M18730 4339
L18730 2339
" />
<path d="M18730 2339
L17730 2339
" />
<path d="M18230 2339
L18230 1839
" />
<path d="M18230 4339
L18230 4839
" />
</g>
<g style="fill:#008484; fill-opacity:0.0; 
stroke:#008484; stroke-width:50; stroke-opacity:1; 
stroke-linecap:round; stroke-linejoin:round;">
<path d="M7790 1918
L7640 2268
" />
<path d="M7790 2618
L7790 2318
" />
<path d="M7790 1618
L7790 1918
" />
<path d="M7790 918
L5790 918
" />
<path d="M5790 918
L5590 1118
" />
<path d="M5590 1118
L5590 3118
" />
<path d="M5590 3118
L5790 3318
" />
<path d="M5790 3318
L7790 3318
" />
<path d="M7790 3318
L7990 3118
" />
<path d="M7990 3118
L7990 1118
" />
<path d="M7990 1118
L7790 918
" />
<circle cx="6790.58" cy="2118.94" r="700" /> 
</g>
<g style="fill:#008484; fill-opacity:0.0; 
stroke:#008484; stroke-width:59.0551; stroke-opacity:1; 
stroke-linecap:round; stroke-linejoin:round;">
<path d="M21730 5539
L22730 5539
" />
<path d="M20620 5649
L21230 5649
" />
<path d="M21730 5539
L21730 4539
" />
<path d="M21230 4428
L20620 4428
" />
<path d="M20620 4428
L20620 5649
" />
<path d="M21730 4539
L22730 4539
" />
<path d="M22730 4539
L22730 5539
" />
<path d="M20430 3039
L20430 4039
" />
<path d="M20320 1928
L20320 2539
" />
<path d="M20430 3039
L21430 3039
" />
<path d="M21540 2539
L21540 1928
" />
<path d="M21540 1928
L20320 1928
" />
<path d="M21430 3039
L21430 4039
" />
<path d="M21430 4039
L20430 4039
" />
<path d="M21930 3039
L21930 4039
" />
<path d="M21820 1928
L21820 2539
" />
<path d="M21930 3039
L22930 3039
" />
<path d="M23040 2539
L23040 1928
" />
<path d="M23040 1928
L21820 1928
" />
<path d="M22930 3039
L22930 4039
" />
<path d="M22930 4039
L21930 4039
" />
</g>
<g style="fill:#008484; fill-opacity:0.0; 
stroke:#008484; stroke-width:30; stroke-opacity:1; 
stroke-linecap:round; stroke-linejoin:round;">
<path d="M12557 2268
L12511 2283
L12435 2283
L12405 2268
L12389 2253
L12374 2222
L12374 2192
L12389 2161
L12405 2146
L12435 2131
L12496 2116
L12526 2100
L12542 2085
L12557 2055
L12557 2024
L12542 1994
L12526 1979
L12496 1963
L12420 1963
L12374 1979
" />
<path d="M12267 1963
L12191 2283
L12130 2055
L12069 2283
L11993 1963
" />
<path d="M11704 2283
L11886 2283
" />
<path d="M11795 2283
L11795 1963
L11825 2009
L11856 2039
L11886 2055
" />
<path d="M7257 2268
L7211 2283
L7135 2283
L7105 2268
L7089 2253
L7074 2222
L7074 2192
L7089 2161
L7105 2146
L7135 2131
L7196 2116
L7226 2100
L7242 2085
L7257 2055
L7257 2024
L7242 1994
L7226 1979
L7196 1963
L7120 1963
L7074 1979
" />
<path d="M6967 1963
L6891 2283
L6830 2055
L6769 2283
L6693 1963
" />
<path d="M6586 1994
L6571 1979
L6541 1963
L6465 1963
L6434 1979
L6419 1994
L6404 2024
L6404 2055
L6419 2100
L6602 2283
L6404 2283
" />
</g>
<g style="fill:#C2C200; fill-opacity:0.0; 
stroke:#C2C200; stroke-width:30; stroke-opacity:1; 
stroke-linecap:round; stroke-linejoin:round;">
</g>
<g style="fill:#C2C200; fill-opacity:0.0; 
stroke:#C2C200; stroke-width:59.0551; stroke-opacity:1; 
stroke-linecap:round; stroke-linejoin:round;">
<path d="M22021 6197
L22021 5803
L21871 5803
L21833 5822
L21815 5840
L21796 5878
L21796 5934
L21815 5972
L21833 5990
L21871 6009
L22021 6009
" />
<path d="M21421 6197
L21646 6197
" />
<path d="M21533 6197
L21533 5803
L21571 5859
L21608 5897
L21646 5915
" />
</g>
<g style="fill:#000000; fill-opacity:0.0; 
stroke:#000000; stroke-width:59.0551; stroke-opacity:1; 
stroke-linecap:round; stroke-linejoin:round;">
</g>
<g style="fill:#C2C2C2; fill-opacity:0.0; 
stroke:#C2C2C2; stroke-width:59.0551; stroke-opacity:1; 
stroke-linecap:round; stroke-linejoin:round;">
</g>
<g style="fill:#C2C2C2; fill-opacity:0.0; 
stroke:#C2C2C2; stroke-width:39.3701; stroke-opacity:1; 
stroke-linecap:round; stroke-linejoin:round;">
<path d="M5613 916
L7975 929
" />
<path d="M5601 3279
L5613 916
" />
<path d="M7963 3291
L5601 3279
" />
<path d="M7975 929
L7963 3291
" />
<path d="M11003 3266
L11016 904
" />
<path d="M11016 904
L13378 916
" />
<path d="M13378 916
L13365 3279
" />
<path d="M13365 3279
L11003 3266
" />
</g>
<g style="fill:#000000; fill-opacity:0.0; 
stroke:#000000; stroke-width:39.3701; stroke-opacity:1; 
stroke-linecap:round; stroke-linejoin:round;">
</g>
<g style="fill:#000084; fill-opacity:0.0; 
stroke:#000084; stroke-width:39.3701; stroke-opacity:1; 
stroke-linecap:round; stroke-linejoin:round;">
</g>
<g style="fill:#000084; fill-opacity:0.0; 
stroke:#000084; stroke-width:150; stroke-opacity:1; 
stroke-linecap:round; stroke-linejoin:round;">
<circle cx="15330.7" cy="1939.02" r="984.252" /> 
<circle cx="3530.74" cy="2039.02" r="984.252" /> 
</g>
<g style="fill:#000000; fill-opacity:0.0; 
stroke:#000000; stroke-width:150; stroke-opacity:1; 
stroke-linecap:round; stroke-linejoin:round;">
</g>
<g style="fill:#008400; fill-opacity:0.0; 
stroke:#008400; stroke-width:150; stroke-opacity:1; 
stroke-linecap:round; stroke-linejoin:round;">
</g>
<g style="fill:#008400; fill-opacity:0.0; 
stroke:#008400; stroke-width:78.7402; stroke-opacity:1; 
stroke-linecap:round; stroke-linejoin:round;">
<path d="M18246 3803
L18508 3803
" />
<path d="M18096 3943
L18377 4084
L18377 3718
" />
<path d="M18115 3549
L18115 3156
L18508 3409
" />
<path d="M18508 2931
L18115 2931
" />
<path d="M18508 2593
L18283 2846
" />
<path d="M18115 2593
L18340 2931
" />
<path d="M19446 3803
L19708 3803
" />
<path d="M19296 3943
L19577 4084
L19577 3718
" />
<path d="M19315 3549
L19315 3156
L19708 3409
" />
<path d="M19708 2931
L19315 2931
" />
<path d="M19708 2593
L19483 2846
" />
<path d="M19315 2593
L19540 2931
" />
<path d="M7504 4617
L7166 4617
" />
<path d="M7335 4617
L7335 4223
L7279 4279
L7222 4317
L7166 4335
" />
<path d="M7757 4617
L7757 4223
" />
<path d="M8094 4617
L7841 4392
" />
<path d="M8094 4223
L7757 4448
" />
<path d="M12804 4617
L12466 4617
" />
<path d="M12635 4617
L12635 4223
L12579 4279
L12522 4317
L12466 4335
" />
<path d="M13057 4617
L13057 4223
" />
<path d="M13394 4617
L13141 4392
" />
<path d="M13394 4223
L13057 4448
" />
</g>
<g style="fill:#008400; fill-opacity:0.0; 
stroke:#008400; stroke-width:118.11; stroke-opacity:1; 
stroke-linecap:round; stroke-linejoin:round;">
<path d="M15405 3608
L15855 3608
" />
<path d="M15405 4553
L15855 4553
" />
<path d="M15630 4778
L15630 4328
" />
<path d="M3100 5763
L3100 5314
" />
<path d="M4045 5763
L4045 5314
" />
<path d="M4270 5539
L3820 5539
" />
</g>
<g style="fill:#008400; fill-opacity:0.0; 
stroke:#008400; stroke-width:78.7402; stroke-opacity:1; 
stroke-linecap:round; stroke-linejoin:round;">
<path d="M20493 6217
L20493 5823
L20718 5823
L20774 5842
L20802 5860
L20830 5898
L20830 5954
L20802 5992
L20774 6010
L20718 6029
L20493 6029
" />
<path d="M21393 6217
L21055 6217
" />
<path d="M21224 6217
L21224 5823
L21168 5879
L21112 5917
L21055 5935
" />
<path d="M22096 6217
L22096 5823
L22321 5823
L22377 5842
L22405 5860
L22433 5898
L22433 5954
L22405 5992
L22377 6010
L22321 6029
L22096 6029
" />
<path d="M22658 5860
L22686 5842
L22743 5823
L22883 5823
L22939 5842
L22968 5860
L22996 5898
L22996 5935
L22968 5992
L22630 6217
L22996 6217
" />
</g>
<g style="fill:#008400; fill-opacity:0.0; 
stroke:#008400; stroke-width:118.11; stroke-opacity:1; 
stroke-linecap:round; stroke-linejoin:round;">
<path d="M20843 1115
L21040 1706
L21237 1115
" />
<path d="M21771 1649
L21743 1678
L21658 1706
L21602 1706
L21518 1678
L21462 1621
L21433 1565
L21405 1453
L21405 1368
L21433 1256
L21462 1199
L21518 1143
L21602 1115
L21658 1115
L21743 1143
L21771 1171
" />
<path d="M22361 1649
L22333 1678
L22249 1706
L22193 1706
L22108 1678
L22052 1621
L22024 1565
L21996 1453
L21996 1368
L22024 1256
L22052 1199
L22108 1143
L22193 1115
L22249 1115
L22333 1143
L22361 1171
" />
</g>
<g style="fill:#000000; fill-opacity:0.0; 
stroke:#000000; stroke-width:118.11; stroke-opacity:1; 
stroke-linecap:round; stroke-linejoin:round;">
</g>
<g style="fill:#C2C200; fill-opacity:0.0; 
stroke:#C2C200; stroke-width:118.11; stroke-opacity:1; 
stroke-linecap:round; stroke-linejoin:round;">
</g>
<g style="fill:#C2C200; fill-opacity:0.0; 
stroke:#C2C200; stroke-width:59.0551; stroke-opacity:1; 
stroke-linecap:round; stroke-linejoin:round;">
<path d="M2030 6739
L2030 6639
" />
<path d="M23430 6739
L2030 6739
" />
<path d="M23430 339
L23430 6739
" />
<path d="M2030 339
L23430 339
" />
<path d="M2030 339
L2030 6639
" />
</g> 
</svg>
