  0
SECTION
  2
HEADER
  9
$ACADVER
  1
AC1014
  9
$HANDSEED
  5
FFFF
  9
$MEASUREMENT
 70
     1
  0
ENDSEC
  0
SECTION
  2
TABLES
  0
TABLE
  2
VPORT
  5
8
330
0
100
AcDbSymbolTable
 70
     4
  0
VPORT
  5
2E
330
8
100
AcDbSymbolTableRecord
100
AcDbViewportTableRecord
  2
*ACTIVE
 70
     0
 10
0.0
 20
0.0
 11
1.0
 21
1.0
 12
210.0
 22
148.5
 13
0.0
 23
0.0
 14
10.0
 24
10.0
 15
10.0
 25
10.0
 16
0.0
 26
0.0
 36
1.0
 17
0.0
 27
0.0
 37
0.0
 40
341.0
 41
1.24
 42
50.0
 43
0.0
 44
0.0
 50
0.0
 51
0.0
 71
     0
 72
   100
 73
     1
 74
     3
 75
     0
 76
     0
 77
     0
 78
     0
  0
ENDTAB
  0
TABLE
  2
LTYPE
  5
5
330
0
100
AcDbSymbolTable
 70
     1
  0
LTYPE
  5
14
330
5
100
AcDbSymbolTableRecord
100
AcDbLinetypeTableRecord
  2
BYBLOCK
 70
     0
  3

 72
    65
 73
     0
 40
0.0
  0
LTYPE
  5
15
330
5
100
AcDbSymbolTableRecord
100
AcDbLinetypeTableRecord
  2
BYLAYER
 70
     0
  3

 72
    65
 73
     0
 40
0.0
  0
LTYPE
  5
16
330
5
100
AcDbSymbolTableRecord
100
AcDbLinetypeTableRecord
  2
CONTINUOUS
 70
     0
  3
Solid line
 72
    65
 73
     0
 40
0.0
  0
ENDTAB
  0
TABLE
  2
LAYER
  5
2
100
AcDbSymbolTable
 70
1
  0
LAYER
  5
50
100
AcDbSymbolTableRecord
100
AcDbLayerTableRecord
  2
0
 70
0
  6
CONTINUOUS
  0
ENDTAB
  0
TABLE
  2
STYLE
  5
3
330
0
100
AcDbSymbolTable
 70
     1
  0
STYLE
  5
11
330
3
100
AcDbSymbolTableRecord
100
AcDbTextStyleTableRecord
  2
STANDARD
 70
     0
 40
0.0
 41
1.0
 50
0.0
 71
     0
 42
2.5
  3
txt
  4

  0
ENDTAB
  0
TABLE
  2
VIEW
  5
6
330
0
100
AcDbSymbolTable
 70
     0
  0
ENDTAB
  0
TABLE
  2
UCS
  5
7
330
0
100
AcDbSymbolTable
 70
     0
  0
ENDTAB
  0
TABLE
  2
APPID
  5
9
330
0
100
AcDbSymbolTable
 70
     2
  0
APPID
  5
12
330
9
100
AcDbSymbolTableRecord
100
AcDbRegAppTableRecord
  2
ACAD
 70
     0
  0
ENDTAB
  0
TABLE
  2
DIMSTYLE
  5
A
330
0
100
AcDbSymbolTable
 70
     1
  0
DIMSTYLE
105
27
330
A
100
AcDbSymbolTableRecord
100
AcDbDimStyleTableRecord
  2
ISO-25
 70
     0
  3

  4

  5

  6

  7

 40
1.0
 41
2.5
 42
0.625
 43
3.75
 44
1.25
 45
0.0
 46
0.0
 47
0.0
 48
0.0
140
2.5
141
2.5
142
0.0
143
0.03937007874016
144
1.0
145
0.0
146
1.0
147
0.625
 71
     0
 72
     0
 73
     0
 74
     0
 75
     0
 76
     0
 77
     1
 78
     8
170
     0
171
     3
172
     1
173
     0
174
     0
175
     0
176
     0
177
     0
178
     0
270
     2
271
     2
272
     2
273
     2
274
     3
340
11
275
     0
280
     0
281
     0
282
     0
283
     0
284
     8
285
     0
286
     0
287
     3
288
     0
  0
ENDTAB
  0
TABLE
  2
BLOCK_RECORD
  5
1
330
0
100
AcDbSymbolTable
 70
     1
  0
BLOCK_RECORD
  5
1F
330
1
100
AcDbSymbolTableRecord
100
AcDbBlockTableRecord
  2
*MODEL_SPACE
  0
BLOCK_RECORD
  5
1B
330
1
100
AcDbSymbolTableRecord
100
AcDbBlockTableRecord
  2
*PAPER_SPACE
  0
ENDTAB
  0
ENDSEC
  0
SECTION
  2
BLOCKS
  0
BLOCK
  5
20
330
1F
100
AcDbEntity
  8
0
100
AcDbBlockBegin
  2
*MODEL_SPACE
 70
     0
 10
0.0
 20
0.0
 30
0.0
  3
*MODEL_SPACE
  1

  0
ENDBLK
  5
21
330
1F
100
AcDbEntity
  8
0
100
AcDbBlockEnd
  0
BLOCK
  5
1C
330
1B
100
AcDbEntity
 67
     1
  8
0
100
AcDbBlockBegin
  2
*PAPER_SPACE
  1

  0
ENDBLK
  5
1D
330
1B
100
AcDbEntity
 67
     1
  8
0
100
AcDbBlockEnd
  0
ENDSEC
  0
SECTION
  2
ENTITIES
  0
LWPOLYLINE
  5
100
100
AcDbEntity
  8
0
 62
7
100
AcDbPolyline
 90
11
 70
0
 10
2681.675556
 20
-1764.611378
 30
0.0
 10
2681.675556
 20
-1653.415822
 30
0.0
 10
2745.175556
 20
-1653.415822
 30
0.0
 10
2761.262222
 20
-1658.778044
 30
0.0
 10
2769.164444
 20
-1663.858044
 30
0.0
 10
2777.066667
 20
-1674.582489
 30
0.0
 10
2777.066667
 20
-1690.386933
 30
0.0
 10
2769.164444
 20
-1701.111378
 30
0.0
 10
2761.262222
 20
-1706.191378
 30
0.0
 10
2745.175556
 20
-1711.553600
 30
0.0
 10
2681.675556
 20
-1711.553600
 30
0.0
  0
LWPOLYLINE
  5
101
100
AcDbEntity
  8
0
 62
7
100
AcDbPolyline
 90
19
 70
0
 10
2904.066667
 20
-1706.191378
 30
0.0
 10
2927.773333
 20
-1711.553600
 30
0.0
 10
2935.675556
 20
-1716.915822
 30
0.0
 10
2943.577778
 20
-1727.358044
 30
0.0
 10
2943.577778
 20
-1743.444711
 30
0.0
 10
2935.675556
 20
-1753.886933
 30
0.0
 10
2927.773333
 20
-1759.249156
 30
0.0
 10
2911.968889
 20
-1764.611378
 30
0.0
 10
2848.468889
 20
-1764.611378
 30
0.0
 10
2848.468889
 20
-1653.415822
 30
0.0
 10
2904.066667
 20
-1653.415822
 30
0.0
 10
2919.871111
 20
-1658.778044
 30
0.0
 10
2927.773333
 20
-1663.858044
 30
0.0
 10
2935.675556
 20
-1674.582489
 30
0.0
 10
2935.675556
 20
-1685.024711
 30
0.0
 10
2927.773333
 20
-1695.749156
 30
0.0
 10
2919.871111
 20
-1701.111378
 30
0.0
 10
2904.066667
 20
-1706.191378
 30
0.0
 10
2848.468889
 20
-1706.191378
 30
0.0
  0
LWPOLYLINE
  5
102
100
AcDbEntity
  8
0
 62
7
100
AcDbPolyline
 90
2
 70
0
 10
2999.175556
 20
-1764.611378
 30
0.0
 10
3086.664444
 20
-1690.386933
 30
0.0
  0
LWPOLYLINE
  5
103
100
AcDbEntity
  8
0
 62
7
100
AcDbPolyline
 90
2
 70
0
 10
2999.175556
 20
-1690.386933
 30
0.0
 10
3086.664444
 20
-1764.611378
 30
0.0
  0
LWPOLYLINE
  5
104
100
AcDbEntity
  8
0
 62
7
100
AcDbPolyline
 90
11
 70
0
 10
3141.980000
 20
-1663.858044
 30
0.0
 10
3150.164444
 20
-1658.778044
 30
0.0
 10
3165.968889
 20
-1653.415822
 30
0.0
 10
3205.480000
 20
-1653.415822
 30
0.0
 10
3221.566667
 20
-1658.778044
 30
0.0
 10
3229.468889
 20
-1663.858044
 30
0.0
 10
3237.371111
 20
-1674.582489
 30
0.0
 10
3237.371111
 20
-1685.024711
 30
0.0
 10
3229.468889
 20
-1701.111378
 30
0.0
 10
3134.077778
 20
-1764.611378
 30
0.0
 10
3237.371111
 20
-1764.611378
 30
0.0
  0
LWPOLYLINE
  5
105
100
AcDbEntity
  8
0
 62
7
100
AcDbPolyline
 90
16
 70
0
 10
3530.882222
 20
-1753.886933
 30
0.0
 10
3522.980000
 20
-1759.249156
 30
0.0
 10
3499.273333
 20
-1764.611378
 30
0.0
 10
3483.468889
 20
-1764.611378
 30
0.0
 10
3459.480000
 20
-1759.249156
 30
0.0
 10
3443.675556
 20
-1748.524711
 30
0.0
 10
3435.773333
 20
-1738.082489
 30
0.0
 10
3427.871111
 20
-1716.915822
 30
0.0
 10
3427.871111
 20
-1701.111378
 30
0.0
 10
3435.773333
 20
-1679.944711
 30
0.0
 10
3443.675556
 20
-1669.220267
 30
0.0
 10
3459.480000
 20
-1658.778044
 30
0.0
 10
3483.468889
 20
-1653.415822
 30
0.0
 10
3499.273333
 20
-1653.415822
 30
0.0
 10
3522.980000
 20
-1658.778044
 30
0.0
 10
3530.882222
 20
-1663.858044
 30
0.0
  0
LWPOLYLINE
  5
106
100
AcDbEntity
  8
0
 62
7
100
AcDbPolyline
 90
17
 70
0
 10
3626.273333
 20
-1764.611378
 30
0.0
 10
3610.468889
 20
-1759.249156
 30
0.0
 10
3602.566667
 20
-1753.886933
 30
0.0
 10
3594.382222
 20
-1743.444711
 30
0.0
 10
3594.382222
 20
-1711.553600
 30
0.0
 10
3602.566667
 20
-1701.111378
 30
0.0
 10
3610.468889
 20
-1695.749156
 30
0.0
 10
3626.273333
 20
-1690.386933
 30
0.0
 10
3649.980000
 20
-1690.386933
 30
0.0
 10
3666.066667
 20
-1695.749156
 30
0.0
 10
3673.968889
 20
-1701.111378
 30
0.0
 10
3681.871111
 20
-1711.553600
 30
0.0
 10
3681.871111
 20
-1743.444711
 30
0.0
 10
3673.968889
 20
-1753.886933
 30
0.0
 10
3666.066667
 20
-1759.249156
 30
0.0
 10
3649.980000
 20
-1764.611378
 30
0.0
 10
3626.273333
 20
-1764.611378
 30
0.0
  0
LWPOLYLINE
  5
107
100
AcDbEntity
  8
0
 62
7
100
AcDbPolyline
 90
2
 70
0
 10
3753.273333
 20
-1690.386933
 30
0.0
 10
3753.273333
 20
-1801.582489
 30
0.0
  0
LWPOLYLINE
  5
108
100
AcDbEntity
  8
0
 62
7
100
AcDbPolyline
 90
12
 70
0
 10
3753.273333
 20
-1695.749156
 30
0.0
 10
3769.077778
 20
-1690.386933
 30
0.0
 10
3800.968889
 20
-1690.386933
 30
0.0
 10
3816.773333
 20
-1695.749156
 30
0.0
 10
3824.675556
 20
-1701.111378
 30
0.0
 10
3832.577778
 20
-1711.553600
 30
0.0
 10
3832.577778
 20
-1743.444711
 30
0.0
 10
3824.675556
 20
-1753.886933
 30
0.0
 10
3816.773333
 20
-1759.249156
 30
0.0
 10
3800.968889
 20
-1764.611378
 30
0.0
 10
3769.077778
 20
-1764.611378
 30
0.0
 10
3753.273333
 20
-1759.249156
 30
0.0
  0
LWPOLYLINE
  5
109
100
AcDbEntity
  8
0
 62
7
100
AcDbPolyline
 90
2
 70
0
 10
3903.980000
 20
-1690.386933
 30
0.0
 10
3903.980000
 20
-1801.582489
 30
0.0
  0
LWPOLYLINE
  5
10a
100
AcDbEntity
  8
0
 62
7
100
AcDbPolyline
 90
12
 70
0
 10
3903.980000
 20
-1695.749156
 30
0.0
 10
3919.784444
 20
-1690.386933
 30
0.0
 10
3951.675556
 20
-1690.386933
 30
0.0
 10
3967.480000
 20
-1695.749156
 30
0.0
 10
3975.382222
 20
-1701.111378
 30
0.0
 10
3983.284444
 20
-1711.553600
 30
0.0
 10
3983.284444
 20
-1743.444711
 30
0.0
 10
3975.382222
 20
-1753.886933
 30
0.0
 10
3967.480000
 20
-1759.249156
 30
0.0
 10
3951.675556
 20
-1764.611378
 30
0.0
 10
3919.784444
 20
-1764.611378
 30
0.0
 10
3903.980000
 20
-1759.249156
 30
0.0
  0
LWPOLYLINE
  5
10b
100
AcDbEntity
  8
0
 62
7
100
AcDbPolyline
 90
13
 70
0
 10
4118.186667
 20
-1759.249156
 30
0.0
 10
4102.382222
 20
-1764.611378
 30
0.0
 10
4070.773333
 20
-1764.611378
 30
0.0
 10
4054.686667
 20
-1759.249156
 30
0.0
 10
4046.784444
 20
-1748.524711
 30
0.0
 10
4046.784444
 20
-1706.191378
 30
0.0
 10
4054.686667
 20
-1695.749156
 30
0.0
 10
4070.773333
 20
-1690.386933
 30
0.0
 10
4102.382222
 20
-1690.386933
 30
0.0
 10
4118.186667
 20
-1695.749156
 30
0.0
 10
4126.371111
 20
-1706.191378
 30
0.0
 10
4126.371111
 20
-1716.915822
 30
0.0
 10
4046.784444
 20
-1727.358044
 30
0.0
  0
LWPOLYLINE
  5
10c
100
AcDbEntity
  8
0
 62
7
100
AcDbPolyline
 90
2
 70
0
 10
4197.773333
 20
-1764.611378
 30
0.0
 10
4197.773333
 20
-1690.386933
 30
0.0
  0
LWPOLYLINE
  5
10d
100
AcDbEntity
  8
0
 62
7
100
AcDbPolyline
 90
5
 70
0
 10
4197.773333
 20
-1711.553600
 30
0.0
 10
4205.675556
 20
-1701.111378
 30
0.0
 10
4213.577778
 20
-1695.749156
 30
0.0
 10
4229.382222
 20
-1690.386933
 30
0.0
 10
4245.186667
 20
-1690.386933
 30
0.0
  0
LWPOLYLINE
  5
10e
100
AcDbEntity
  8
0
 62
7
100
AcDbPolyline
 90
2
 70
0
 10
6273.800000
 20
-1403.931378
 30
0.0
 10
6273.800000
 20
-1403.931378
 30
0.0
  0
LWPOLYLINE
  5
10f
100
AcDbEntity
  8
0
 62
7
100
AcDbPolyline
 90
2
 70
0
 10
5906.911111
 20
-980.598044
 30
0.0
 10
5906.911111
 20
-980.598044
 30
0.0
  0
LWPOLYLINE
  5
110
100
AcDbEntity
  8
0
 62
7
100
AcDbPolyline
 90
2
 70
0
 10
6330.244444
 20
-980.598044
 30
0.0
 10
6330.244444
 20
-980.598044
 30
0.0
  0
LWPOLYLINE
  5
111
100
AcDbEntity
  8
0
 62
7
100
AcDbPolyline
 90
2
 70
0
 10
5144.911111
 20
-359.709156
 30
0.0
 10
5483.577778
 20
-359.709156
 30
0.0
  0
LWPOLYLINE
  5
112
100
AcDbEntity
  8
0
 62
7
100
AcDbPolyline
 90
3
 70
0
 10
5906.911111
 20
-698.375822
 30
0.0
 10
5822.244444
 20
-698.375822
 30
0.0
 10
5483.577778
 20
-359.709156
 30
0.0
  0
LWPOLYLINE
  5
113
100
AcDbEntity
  8
0
 62
7
100
AcDbPolyline
 90
2
 70
0
 10
5906.911111
 20
-698.375822
 30
0.0
 10
5917.071111
 20
-714.180267
 30
0.0
  0
LWPOLYLINE
  5
114
100
AcDbEntity
  8
0
 62
7
100
AcDbPolyline
 90
2
 70
0
 10
6330.244444
 20
-698.375822
 30
0.0
 10
5906.911111
 20
-698.375822
 30
0.0
  0
LWPOLYLINE
  5
115
100
AcDbEntity
  8
0
 62
7
100
AcDbPolyline
 90
3
 70
0
 10
3079.044444
 20
-825.093600
 30
0.0
 10
3079.044444
 20
-1212.020267
 30
0.0
 10
3056.466667
 20
-1234.598044
 30
0.0
  0
LWPOLYLINE
  5
116
100
AcDbEntity
  8
0
 62
7
100
AcDbPolyline
 90
2
 70
0
 10
3801.533333
 20
-825.093600
 30
0.0
 10
3079.044444
 20
-825.093600
 30
0.0
  0
LWPOLYLINE
  5
117
100
AcDbEntity
  8
0
 62
7
100
AcDbPolyline
 90
3
 70
0
 10
5991.577778
 20
-1403.931378
 30
0.0
 10
5568.244444
 20
-1403.931378
 30
0.0
 10
5483.577778
 20
-1488.598044
 30
0.0
  0
LWPOLYLINE
  5
118
100
AcDbEntity
  8
0
 62
7
100
AcDbPolyline
 90
3
 70
0
 10
4665.133333
 20
-1234.598044
 30
0.0
 10
5308.600000
 20
-1234.598044
 30
0.0
 10
5483.577778
 20
-1488.598044
 30
0.0
  0
LWPOLYLINE
  5
119
100
AcDbEntity
  8
0
 62
7
100
AcDbPolyline
 90
2
 70
0
 10
4185.355556
 20
-1234.598044
 30
0.0
 10
4665.133333
 20
-1234.598044
 30
0.0
  0
LWPOLYLINE
  5
11a
100
AcDbEntity
  8
0
 62
7
100
AcDbPolyline
 90
2
 70
0
 10
5483.577778
 20
-1488.598044
 30
0.0
 10
5483.577778
 20
-1485.775822
 30
0.0
  0
LWPOLYLINE
  5
11b
100
AcDbEntity
  8
0
 62
7
100
AcDbPolyline
 90
2
 70
0
 10
5483.577778
 20
-1488.598044
 30
0.0
 10
5475.111111
 20
-1488.598044
 30
0.0
  0
LWPOLYLINE
  5
11c
100
AcDbEntity
  8
0
 62
7
100
AcDbPolyline
 90
2
 70
0
 10
6273.800000
 20
-1403.931378
 30
0.0
 10
6273.800000
 20
-1686.153600
 30
0.0
  0
LWPOLYLINE
  5
11d
100
AcDbEntity
  8
0
 62
7
100
AcDbPolyline
 90
2
 70
0
 10
5370.688889
 20
-1714.375822
 30
0.0
 10
5144.911111
 20
-1488.598044
 30
0.0
  0
LWPOLYLINE
  5
11e
100
AcDbEntity
  8
0
 62
7
100
AcDbPolyline
 90
2
 70
0
 10
6245.577778
 20
-1714.375822
 30
0.0
 10
5370.688889
 20
-1714.375822
 30
0.0
  0
LWPOLYLINE
  5
11f
100
AcDbEntity
  8
0
 62
7
100
AcDbPolyline
 90
2
 70
0
 10
6273.800000
 20
-1686.153600
 30
0.0
 10
6245.577778
 20
-1714.375822
 30
0.0
  0
LWPOLYLINE
  5
120
100
AcDbEntity
  8
0
 62
7
100
AcDbPolyline
 90
3
 70
0
 10
5144.911111
 20
-1488.598044
 30
0.0
 10
1814.688889
 20
-1488.598044
 30
0.0
 10
1560.688889
 20
-1234.598044
 30
0.0
  0
LWPOLYLINE
  5
121
100
AcDbEntity
  8
0
 62
7
100
AcDbPolyline
 90
3
 70
0
 10
1137.355556
 20
-1234.598044
 30
0.0
 10
1560.688889
 20
-1234.598044
 30
0.0
 10
1560.688889
 20
-1247.298044
 30
0.0
  0
LWPOLYLINE
  5
122
100
AcDbEntity
  8
0
 62
7
100
AcDbPolyline
 90
3
 70
0
 10
2277.533333
 20
-830.738044
 30
0.0
 10
2689.577778
 20
-1234.315822
 30
0.0
 10
2689.577778
 20
-1234.598044
 30
0.0
  0
LWPOLYLINE
  5
123
100
AcDbEntity
  8
0
 62
7
100
AcDbPolyline
 90
2
 70
0
 10
1555.044444
 20
-830.738044
 30
0.0
 10
2277.533333
 20
-830.738044
 30
0.0
  0
LWPOLYLINE
  5
124
100
AcDbEntity
  8
0
 62
7
100
AcDbPolyline
 90
2
 70
0
 10
3801.533333
 20
-300.160267
 30
0.0
 10
3801.533333
 20
-345.315822
 30
0.0
  0
LWPOLYLINE
  5
125
100
AcDbEntity
  8
0
 62
7
100
AcDbPolyline
 90
2
 70
0
 10
3079.044444
 20
-300.160267
 30
0.0
 10
3079.044444
 20
-345.315822
 30
0.0
  0
LWPOLYLINE
  5
126
100
AcDbEntity
  8
0
 62
7
100
AcDbPolyline
 90
2
 70
0
 10
3801.533333
 20
-802.515822
 30
0.0
 10
3801.533333
 20
-847.671378
 30
0.0
  0
LWPOLYLINE
  5
127
100
AcDbEntity
  8
0
 62
7
100
AcDbPolyline
 90
2
 70
0
 10
3079.044444
 20
-802.515822
 30
0.0
 10
3079.044444
 20
-847.671378
 30
0.0
  0
LWPOLYLINE
  5
128
100
AcDbEntity
  8
0
 62
7
100
AcDbPolyline
 90
2
 70
0
 10
2277.533333
 20
-305.804711
 30
0.0
 10
2277.533333
 20
-350.960267
 30
0.0
  0
LWPOLYLINE
  5
129
100
AcDbEntity
  8
0
 62
7
100
AcDbPolyline
 90
2
 70
0
 10
1555.044444
 20
-305.804711
 30
0.0
 10
1555.044444
 20
-350.960267
 30
0.0
  0
LWPOLYLINE
  5
12a
100
AcDbEntity
  8
0
 62
7
100
AcDbPolyline
 90
2
 70
0
 10
2277.533333
 20
-808.160267
 30
0.0
 10
2277.533333
 20
-853.315822
 30
0.0
  0
LWPOLYLINE
  5
12b
100
AcDbEntity
  8
0
 62
7
100
AcDbPolyline
 90
2
 70
0
 10
1555.044444
 20
-808.160267
 30
0.0
 10
1555.044444
 20
-853.315822
 30
0.0
  0
LWPOLYLINE
  5
12c
100
AcDbEntity
  8
0
 62
7
100
AcDbPolyline
 90
2
 70
0
 10
4942.840000
 20
-1114.935822
 30
0.0
 10
4387.426667
 20
-1114.935822
 30
0.0
  0
LWPOLYLINE
  5
12d
100
AcDbEntity
  8
0
 62
7
100
AcDbPolyline
 90
2
 70
0
 10
4941.993333
 20
-1099.413600
 30
0.0
 10
4682.348889
 20
-1099.413600
 30
0.0
  0
LWPOLYLINE
  5
12e
100
AcDbEntity
  8
0
 62
7
100
AcDbPolyline
 90
2
 70
0
 10
4648.200000
 20
-1099.413600
 30
0.0
 10
4388.555556
 20
-1099.413600
 30
0.0
  0
LWPOLYLINE
  5
12f
100
AcDbEntity
  8
0
 62
7
100
AcDbPolyline
 90
2
 70
0
 10
4940.300000
 20
-1083.891378
 30
0.0
 10
4717.626667
 20
-1083.891378
 30
0.0
  0
LWPOLYLINE
  5
130
100
AcDbEntity
  8
0
 62
7
100
AcDbPolyline
 90
2
 70
0
 10
4612.640000
 20
-1083.891378
 30
0.0
 10
4390.248889
 20
-1083.891378
 30
0.0
  0
LWPOLYLINE
  5
131
100
AcDbEntity
  8
0
 62
7
100
AcDbPolyline
 90
2
 70
0
 10
4937.477778
 20
-1068.369156
 30
0.0
 10
4733.995556
 20
-1068.369156
 30
0.0
  0
LWPOLYLINE
  5
132
100
AcDbEntity
  8
0
 62
7
100
AcDbPolyline
 90
2
 70
0
 10
4596.271111
 20
-1068.369156
 30
0.0
 10
4392.788889
 20
-1068.369156
 30
0.0
  0
LWPOLYLINE
  5
133
100
AcDbEntity
  8
0
 62
7
100
AcDbPolyline
 90
2
 70
0
 10
4933.808889
 20
-1052.846933
 30
0.0
 10
4744.437778
 20
-1052.846933
 30
0.0
  0
LWPOLYLINE
  5
134
100
AcDbEntity
  8
0
 62
7
100
AcDbPolyline
 90
2
 70
0
 10
4586.111111
 20
-1052.846933
 30
0.0
 10
4396.457778
 20
-1052.846933
 30
0.0
  0
LWPOLYLINE
  5
135
100
AcDbEntity
  8
0
 62
7
100
AcDbPolyline
 90
2
 70
0
 10
4929.293333
 20
-1037.324711
 30
0.0
 10
4750.646667
 20
-1037.324711
 30
0.0
  0
LWPOLYLINE
  5
136
100
AcDbEntity
  8
0
 62
7
100
AcDbPolyline
 90
2
 70
0
 10
4579.902222
 20
-1037.324711
 30
0.0
 10
4400.973333
 20
-1037.324711
 30
0.0
  0
LWPOLYLINE
  5
137
100
AcDbEntity
  8
0
 62
7
100
AcDbPolyline
 90
2
 70
0
 10
4923.648889
 20
-1021.802489
 30
0.0
 10
4753.468889
 20
-1021.802489
 30
0.0
  0
LWPOLYLINE
  5
138
100
AcDbEntity
  8
0
 62
7
100
AcDbPolyline
 90
2
 70
0
 10
4576.797778
 20
-1021.802489
 30
0.0
 10
4406.617778
 20
-1021.802489
 30
0.0
  0
LWPOLYLINE
  5
139
100
AcDbEntity
  8
0
 62
7
100
AcDbPolyline
 90
2
 70
0
 10
4916.875556
 20
-1005.998044
 30
0.0
 10
4753.751111
 20
-1005.998044
 30
0.0
  0
LWPOLYLINE
  5
13a
100
AcDbEntity
  8
0
 62
7
100
AcDbPolyline
 90
2
 70
0
 10
4576.515556
 20
-1005.998044
 30
0.0
 10
4413.391111
 20
-1005.998044
 30
0.0
  0
LWPOLYLINE
  5
13b
100
AcDbEntity
  8
0
 62
7
100
AcDbPolyline
 90
2
 70
0
 10
4909.255556
 20
-990.475822
 30
0.0
 10
4751.493333
 20
-990.475822
 30
0.0
  0
LWPOLYLINE
  5
13c
100
AcDbEntity
  8
0
 62
7
100
AcDbPolyline
 90
2
 70
0
 10
4579.055556
 20
-990.475822
 30
0.0
 10
4421.293333
 20
-990.475822
 30
0.0
  0
LWPOLYLINE
  5
13d
100
AcDbEntity
  8
0
 62
7
100
AcDbPolyline
 90
2
 70
0
 10
4900.224444
 20
-974.953600
 30
0.0
 10
4745.848889
 20
-974.953600
 30
0.0
  0
LWPOLYLINE
  5
13e
100
AcDbEntity
  8
0
 62
7
100
AcDbPolyline
 90
2
 70
0
 10
4584.417778
 20
-974.953600
 30
0.0
 10
4430.324444
 20
-974.953600
 30
0.0
  0
LWPOLYLINE
  5
13f
100
AcDbEntity
  8
0
 62
7
100
AcDbPolyline
 90
2
 70
0
 10
4889.500000
 20
-959.431378
 30
0.0
 10
4736.817778
 20
-959.431378
 30
0.0
  0
LWPOLYLINE
  5
140
100
AcDbEntity
  8
0
 62
7
100
AcDbPolyline
 90
2
 70
0
 10
4593.731111
 20
-959.431378
 30
0.0
 10
4440.766667
 20
-959.431378
 30
0.0
  0
LWPOLYLINE
  5
141
100
AcDbEntity
  8
0
 62
7
100
AcDbPolyline
 90
2
 70
0
 10
4877.082222
 20
-943.909156
 30
0.0
 10
4722.142222
 20
-943.909156
 30
0.0
  0
LWPOLYLINE
  5
142
100
AcDbEntity
  8
0
 62
7
100
AcDbPolyline
 90
2
 70
0
 10
4608.406667
 20
-943.909156
 30
0.0
 10
4453.184444
 20
-943.909156
 30
0.0
  0
LWPOLYLINE
  5
143
100
AcDbEntity
  8
0
 62
7
100
AcDbPolyline
 90
2
 70
0
 10
4862.971111
 20
-928.386933
 30
0.0
 10
4694.766667
 20
-928.386933
 30
0.0
  0
LWPOLYLINE
  5
144
100
AcDbEntity
  8
0
 62
7
100
AcDbPolyline
 90
2
 70
0
 10
4635.782222
 20
-928.386933
 30
0.0
 10
4467.295556
 20
-928.386933
 30
0.0
  0
LWPOLYLINE
  5
145
100
AcDbEntity
  8
0
 62
7
100
AcDbPolyline
 90
2
 70
0
 10
4846.320000
 20
-912.864711
 30
0.0
 10
4483.946667
 20
-912.864711
 30
0.0
  0
LWPOLYLINE
  5
146
100
AcDbEntity
  8
0
 62
7
100
AcDbPolyline
 90
2
 70
0
 10
4826.564444
 20
-897.342489
 30
0.0
 10
4503.984444
 20
-897.342489
 30
0.0
  0
LWPOLYLINE
  5
147
100
AcDbEntity
  8
0
 62
7
100
AcDbPolyline
 90
2
 70
0
 10
4802.293333
 20
-881.820267
 30
0.0
 10
4528.255556
 20
-881.820267
 30
0.0
  0
LWPOLYLINE
  5
148
100
AcDbEntity
  8
0
 62
7
100
AcDbPolyline
 90
2
 70
0
 10
4770.120000
 20
-866.015822
 30
0.0
 10
4560.428889
 20
-866.015822
 30
0.0
  0
LWPOLYLINE
  5
149
100
AcDbEntity
  8
0
 62
7
100
AcDbPolyline
 90
2
 70
0
 10
4717.626667
 20
-850.493600
 30
0.0
 10
4612.640000
 20
-850.493600
 30
0.0
  0
LWPOLYLINE
  5
14a
100
AcDbEntity
  8
0
 62
7
100
AcDbPolyline
 90
5
 70
0
 10
1842.911111
 20
-1375.709156
 30
0.0
 10
2407.355556
 20
-1375.709156
 30
0.0
 10
2407.355556
 20
-1093.486933
 30
0.0
 10
1842.911111
 20
-1093.486933
 30
0.0
 10
1842.911111
 20
-1375.709156
 30
0.0
  0
LWPOLYLINE
  5
14b
100
AcDbEntity
  8
0
 62
7
100
AcDbPolyline
 90
2
 70
0
 10
1842.911111
 20
-1234.598044
 30
0.0
 10
1701.800000
 20
-1234.598044
 30
0.0
  0
LWPOLYLINE
  5
14c
100
AcDbEntity
  8
0
 62
7
100
AcDbPolyline
 90
2
 70
0
 10
2407.355556
 20
-1234.598044
 30
0.0
 10
2548.466667
 20
-1234.598044
 30
0.0
  0
LWPOLYLINE
  5
14d
100
AcDbEntity
  8
0
 62
7
100
AcDbPolyline
 90
5
 70
0
 10
3903.133333
 20
-1093.486933
 30
0.0
 10
3338.688889
 20
-1093.486933
 30
0.0
 10
3338.688889
 20
-1375.709156
 30
0.0
 10
3903.133333
 20
-1375.709156
 30
0.0
 10
3903.133333
 20
-1093.486933
 30
0.0
  0
LWPOLYLINE
  5
14e
100
AcDbEntity
  8
0
 62
7
100
AcDbPolyline
 90
2
 70
0
 10
3903.133333
 20
-1234.598044
 30
0.0
 10
4044.244444
 20
-1234.598044
 30
0.0
  0
LWPOLYLINE
  5
14f
100
AcDbEntity
  8
0
 62
7
100
AcDbPolyline
 90
2
 70
0
 10
3338.688889
 20
-1234.598044
 30
0.0
 10
3197.577778
 20
-1234.598044
 30
0.0
  0
LWPOLYLINE
  5
150
100
AcDbEntity
  8
0
 62
7
100
AcDbPolyline
 90
5
 70
0
 10
5342.466667
 20
-641.931378
 30
0.0
 10
5342.466667
 20
-1206.375822
 30
0.0
 10
5624.688889
 20
-1206.375822
 30
0.0
 10
5624.688889
 20
-641.931378
 30
0.0
 10
5342.466667
 20
-641.931378
 30
0.0
  0
LWPOLYLINE
  5
151
100
AcDbEntity
  8
0
 62
7
100
AcDbPolyline
 90
2
 70
0
 10
5483.577778
 20
-641.931378
 30
0.0
 10
5483.577778
 20
-500.820267
 30
0.0
  0
LWPOLYLINE
  5
152
100
AcDbEntity
  8
0
 62
7
100
AcDbPolyline
 90
2
 70
0
 10
5483.577778
 20
-1206.375822
 30
0.0
 10
5483.577778
 20
-1347.486933
 30
0.0
  0
LWPOLYLINE
  5
153
100
AcDbEntity
  8
0
 62
7
100
AcDbPolyline
 90
2
 70
0
 10
3722.511111
 20
-517.471378
 30
0.0
 10
3680.177778
 20
-616.249156
 30
0.0
  0
LWPOLYLINE
  5
154
100
AcDbEntity
  8
0
 62
7
100
AcDbPolyline
 90
2
 70
0
 10
3722.511111
 20
-715.026933
 30
0.0
 10
3722.511111
 20
-630.360267
 30
0.0
  0
LWPOLYLINE
  5
155
100
AcDbEntity
  8
0
 62
7
100
AcDbPolyline
 90
2
 70
0
 10
3722.511111
 20
-432.804711
 30
0.0
 10
3722.511111
 20
-517.471378
 30
0.0
  0
LWPOLYLINE
  5
156
100
AcDbEntity
  8
0
 62
7
100
AcDbPolyline
 90
9
 70
0
 10
3722.511111
 20
-235.249156
 30
0.0
 10
3158.066667
 20
-235.249156
 30
0.0
 10
3101.622222
 20
-291.693600
 30
0.0
 10
3101.622222
 20
-856.138044
 30
0.0
 10
3158.066667
 20
-912.582489
 30
0.0
 10
3722.511111
 20
-912.582489
 30
0.0
 10
3778.955556
 20
-856.138044
 30
0.0
 10
3778.955556
 20
-291.693600
 30
0.0
 10
3722.511111
 20
-235.249156
 30
0.0
  0
LWPOLYLINE
  5
157
100
AcDbEntity
  8
0
 62
7
100
AcDbPolyline
 90
2
 70
0
 10
1017.975556
 20
-956.891378
 30
0.0
 10
1017.975556
 20
-1512.022489
 30
0.0
  0
LWPOLYLINE
  5
158
100
AcDbEntity
  8
0
 62
7
100
AcDbPolyline
 90
2
 70
0
 10
1002.453333
 20
-957.738044
 30
0.0
 10
1002.453333
 20
-1217.382489
 30
0.0
  0
LWPOLYLINE
  5
159
100
AcDbEntity
  8
0
 62
7
100
AcDbPolyline
 90
2
 70
0
 10
1002.453333
 20
-1251.531378
 30
0.0
 10
1002.453333
 20
-1511.175822
 30
0.0
  0
LWPOLYLINE
  5
15a
100
AcDbEntity
  8
0
 62
7
100
AcDbPolyline
 90
2
 70
0
 10
986.931111
 20
-959.431378
 30
0.0
 10
986.931111
 20
-1181.822489
 30
0.0
  0
LWPOLYLINE
  5
15b
100
AcDbEntity
  8
0
 62
7
100
AcDbPolyline
 90
2
 70
0
 10
986.931111
 20
-1287.091378
 30
0.0
 10
986.931111
 20
-1509.482489
 30
0.0
  0
LWPOLYLINE
  5
15c
100
AcDbEntity
  8
0
 62
7
100
AcDbPolyline
 90
2
 70
0
 10
971.408889
 20
-962.253600
 30
0.0
 10
971.408889
 20
-1165.453600
 30
0.0
  0
LWPOLYLINE
  5
15d
100
AcDbEntity
  8
0
 62
7
100
AcDbPolyline
 90
2
 70
0
 10
971.408889
 20
-1303.460267
 30
0.0
 10
971.408889
 20
-1506.660267
 30
0.0
  0
LWPOLYLINE
  5
15e
100
AcDbEntity
  8
0
 62
7
100
AcDbPolyline
 90
2
 70
0
 10
955.886667
 20
-965.922489
 30
0.0
 10
955.886667
 20
-1155.293600
 30
0.0
  0
LWPOLYLINE
  5
15f
100
AcDbEntity
  8
0
 62
7
100
AcDbPolyline
 90
2
 70
0
 10
955.886667
 20
-1313.620267
 30
0.0
 10
955.886667
 20
-1502.991378
 30
0.0
  0
LWPOLYLINE
  5
160
100
AcDbEntity
  8
0
 62
7
100
AcDbPolyline
 90
2
 70
0
 10
940.082222
 20
-970.438044
 30
0.0
 10
940.082222
 20
-1149.084711
 30
0.0
  0
LWPOLYLINE
  5
161
100
AcDbEntity
  8
0
 62
7
100
AcDbPolyline
 90
2
 70
0
 10
940.082222
 20
-1319.829156
 30
0.0
 10
940.082222
 20
-1498.475822
 30
0.0
  0
LWPOLYLINE
  5
162
100
AcDbEntity
  8
0
 62
7
100
AcDbPolyline
 90
2
 70
0
 10
924.560000
 20
-975.800267
 30
0.0
 10
924.560000
 20
-1146.262489
 30
0.0
  0
LWPOLYLINE
  5
163
100
AcDbEntity
  8
0
 62
7
100
AcDbPolyline
 90
2
 70
0
 10
924.560000
 20
-1322.933600
 30
0.0
 10
924.560000
 20
-1493.113600
 30
0.0
  0
LWPOLYLINE
  5
164
100
AcDbEntity
  8
0
 62
7
100
AcDbPolyline
 90
2
 70
0
 10
909.037778
 20
-982.573600
 30
0.0
 10
909.037778
 20
-1145.698044
 30
0.0
  0
LWPOLYLINE
  5
165
100
AcDbEntity
  8
0
 62
7
100
AcDbPolyline
 90
2
 70
0
 10
909.037778
 20
-1323.215822
 30
0.0
 10
909.037778
 20
-1486.340267
 30
0.0
  0
LWPOLYLINE
  5
166
100
AcDbEntity
  8
0
 62
7
100
AcDbPolyline
 90
2
 70
0
 10
893.515556
 20
-990.475822
 30
0.0
 10
893.515556
 20
-1148.238044
 30
0.0
  0
LWPOLYLINE
  5
167
100
AcDbEntity
  8
0
 62
7
100
AcDbPolyline
 90
2
 70
0
 10
893.515556
 20
-1320.675822
 30
0.0
 10
893.515556
 20
-1478.438044
 30
0.0
  0
LWPOLYLINE
  5
168
100
AcDbEntity
  8
0
 62
7
100
AcDbPolyline
 90
2
 70
0
 10
877.993333
 20
-999.506933
 30
0.0
 10
877.993333
 20
-1153.882489
 30
0.0
  0
LWPOLYLINE
  5
169
100
AcDbEntity
  8
0
 62
7
100
AcDbPolyline
 90
2
 70
0
 10
877.993333
 20
-1315.031378
 30
0.0
 10
877.993333
 20
-1469.406933
 30
0.0
  0
LWPOLYLINE
  5
16a
100
AcDbEntity
  8
0
 62
7
100
AcDbPolyline
 90
2
 70
0
 10
862.471111
 20
-1010.231378
 30
0.0
 10
862.471111
 20
-1162.913600
 30
0.0
  0
LWPOLYLINE
  5
16b
100
AcDbEntity
  8
0
 62
7
100
AcDbPolyline
 90
2
 70
0
 10
862.471111
 20
-1306.000267
 30
0.0
 10
862.471111
 20
-1458.682489
 30
0.0
  0
LWPOLYLINE
  5
16c
100
AcDbEntity
  8
0
 62
7
100
AcDbPolyline
 90
2
 70
0
 10
846.948889
 20
-1022.366933
 30
0.0
 10
846.948889
 20
-1177.589156
 30
0.0
  0
LWPOLYLINE
  5
16d
100
AcDbEntity
  8
0
 62
7
100
AcDbPolyline
 90
2
 70
0
 10
846.948889
 20
-1291.324711
 30
0.0
 10
846.948889
 20
-1446.546933
 30
0.0
  0
LWPOLYLINE
  5
16e
100
AcDbEntity
  8
0
 62
7
100
AcDbPolyline
 90
2
 70
0
 10
831.426667
 20
-1036.760267
 30
0.0
 10
831.426667
 20
-1204.964711
 30
0.0
  0
LWPOLYLINE
  5
16f
100
AcDbEntity
  8
0
 62
7
100
AcDbPolyline
 90
2
 70
0
 10
831.426667
 20
-1263.949156
 30
0.0
 10
831.426667
 20
-1432.153600
 30
0.0
  0
LWPOLYLINE
  5
170
100
AcDbEntity
  8
0
 62
7
100
AcDbPolyline
 90
2
 70
0
 10
815.622222
 20
-1053.129156
 30
0.0
 10
815.622222
 20
-1415.784711
 30
0.0
  0
LWPOLYLINE
  5
171
100
AcDbEntity
  8
0
 62
7
100
AcDbPolyline
 90
2
 70
0
 10
800.100000
 20
-1073.166933
 30
0.0
 10
800.100000
 20
-1395.746933
 30
0.0
  0
LWPOLYLINE
  5
172
100
AcDbEntity
  8
0
 62
7
100
AcDbPolyline
 90
2
 70
0
 10
784.577778
 20
-1097.438044
 30
0.0
 10
784.577778
 20
-1371.475822
 30
0.0
  0
LWPOLYLINE
  5
173
100
AcDbEntity
  8
0
 62
7
100
AcDbPolyline
 90
2
 70
0
 10
769.055556
 20
-1129.611378
 30
0.0
 10
769.055556
 20
-1339.302489
 30
0.0
  0
LWPOLYLINE
  5
174
100
AcDbEntity
  8
0
 62
7
100
AcDbPolyline
 90
2
 70
0
 10
753.533333
 20
-1182.104711
 30
0.0
 10
753.533333
 20
-1286.809156
 30
0.0
  0
LWPOLYLINE
  5
175
100
AcDbEntity
  8
0
 62
7
100
AcDbPolyline
 90
5
 70
0
 10
5003.800000
 20
-641.931378
 30
0.0
 10
5003.800000
 20
-1206.375822
 30
0.0
 10
5286.022222
 20
-1206.375822
 30
0.0
 10
5286.022222
 20
-641.931378
 30
0.0
 10
5003.800000
 20
-641.931378
 30
0.0
  0
LWPOLYLINE
  5
176
100
AcDbEntity
  8
0
 62
7
100
AcDbPolyline
 90
2
 70
0
 10
5144.911111
 20
-641.931378
 30
0.0
 10
5144.911111
 20
-500.820267
 30
0.0
  0
LWPOLYLINE
  5
177
100
AcDbEntity
  8
0
 62
7
100
AcDbPolyline
 90
2
 70
0
 10
5144.911111
 20
-1206.375822
 30
0.0
 10
5144.911111
 20
-1347.486933
 30
0.0
  0
LWPOLYLINE
  5
178
100
AcDbEntity
  8
0
 62
7
100
AcDbPolyline
 90
2
 70
0
 10
2198.511111
 20
-523.115822
 30
0.0
 10
2156.177778
 20
-621.893600
 30
0.0
  0
LWPOLYLINE
  5
179
100
AcDbEntity
  8
0
 62
7
100
AcDbPolyline
 90
2
 70
0
 10
2198.511111
 20
-720.671378
 30
0.0
 10
2198.511111
 20
-636.004711
 30
0.0
  0
LWPOLYLINE
  5
17a
100
AcDbEntity
  8
0
 62
7
100
AcDbPolyline
 90
2
 70
0
 10
2198.511111
 20
-438.449156
 30
0.0
 10
2198.511111
 20
-523.115822
 30
0.0
  0
LWPOLYLINE
  5
17b
100
AcDbEntity
  8
0
 62
7
100
AcDbPolyline
 90
9
 70
0
 10
2198.511111
 20
-240.893600
 30
0.0
 10
1634.066667
 20
-240.893600
 30
0.0
 10
1577.622222
 20
-297.338044
 30
0.0
 10
1577.622222
 20
-861.782489
 30
0.0
 10
1634.066667
 20
-918.226933
 30
0.0
 10
2198.511111
 20
-918.226933
 30
0.0
 10
2254.955556
 20
-861.782489
 30
0.0
 10
2254.955556
 20
-297.338044
 30
0.0
 10
2198.511111
 20
-240.893600
 30
0.0
  0
LWPOLYLINE
  5
17c
100
AcDbEntity
  8
0
 62
7
100
AcDbPolyline
 90
2
 70
0
 10
6132.688889
 20
-1545.042489
 30
0.0
 10
6414.911111
 20
-1545.042489
 30
0.0
  0
LWPOLYLINE
  5
17d
100
AcDbEntity
  8
0
 62
7
100
AcDbPolyline
 90
2
 70
0
 10
5819.422222
 20
-1576.086933
 30
0.0
 10
5991.577778
 20
-1576.086933
 30
0.0
  0
LWPOLYLINE
  5
17e
100
AcDbEntity
  8
0
 62
7
100
AcDbPolyline
 90
2
 70
0
 10
6132.688889
 20
-1545.042489
 30
0.0
 10
6132.688889
 20
-1262.820267
 30
0.0
  0
LWPOLYLINE
  5
17f
100
AcDbEntity
  8
0
 62
7
100
AcDbPolyline
 90
3
 70
0
 10
5991.577778
 20
-1231.493600
 30
0.0
 10
5819.422222
 20
-1231.493600
 30
0.0
 10
5819.422222
 20
-1576.086933
 30
0.0
  0
LWPOLYLINE
  5
180
100
AcDbEntity
  8
0
 62
7
100
AcDbPolyline
 90
3
 70
0
 10
6132.688889
 20
-1262.820267
 30
0.0
 10
6414.911111
 20
-1262.820267
 30
0.0
 10
6414.911111
 20
-1545.042489
 30
0.0
  0
LWPOLYLINE
  5
181
100
AcDbEntity
  8
0
 62
7
100
AcDbPolyline
 90
2
 70
0
 10
5765.800000
 20
-839.486933
 30
0.0
 10
5765.800000
 20
-1121.709156
 30
0.0
  0
LWPOLYLINE
  5
182
100
AcDbEntity
  8
0
 62
7
100
AcDbPolyline
 90
2
 70
0
 10
5734.755556
 20
-525.938044
 30
0.0
 10
5734.755556
 20
-698.375822
 30
0.0
  0
LWPOLYLINE
  5
183
100
AcDbEntity
  8
0
 62
7
100
AcDbPolyline
 90
2
 70
0
 10
5765.800000
 20
-839.486933
 30
0.0
 10
6048.022222
 20
-839.486933
 30
0.0
  0
LWPOLYLINE
  5
184
100
AcDbEntity
  8
0
 62
7
100
AcDbPolyline
 90
3
 70
0
 10
6079.066667
 20
-698.375822
 30
0.0
 10
6079.066667
 20
-525.938044
 30
0.0
 10
5734.755556
 20
-525.938044
 30
0.0
  0
LWPOLYLINE
  5
185
100
AcDbEntity
  8
0
 62
7
100
AcDbPolyline
 90
3
 70
0
 10
6048.022222
 20
-839.486933
 30
0.0
 10
6048.022222
 20
-1121.709156
 30
0.0
 10
5765.800000
 20
-1121.709156
 30
0.0
  0
LWPOLYLINE
  5
186
100
AcDbEntity
  8
0
 62
7
100
AcDbPolyline
 90
2
 70
0
 10
6189.133333
 20
-839.486933
 30
0.0
 10
6189.133333
 20
-1121.709156
 30
0.0
  0
LWPOLYLINE
  5
187
100
AcDbEntity
  8
0
 62
7
100
AcDbPolyline
 90
2
 70
0
 10
6158.088889
 20
-525.938044
 30
0.0
 10
6158.088889
 20
-698.375822
 30
0.0
  0
LWPOLYLINE
  5
188
100
AcDbEntity
  8
0
 62
7
100
AcDbPolyline
 90
2
 70
0
 10
6189.133333
 20
-839.486933
 30
0.0
 10
6471.355556
 20
-839.486933
 30
0.0
  0
LWPOLYLINE
  5
189
100
AcDbEntity
  8
0
 62
7
100
AcDbPolyline
 90
3
 70
0
 10
6502.400000
 20
-698.375822
 30
0.0
 10
6502.400000
 20
-525.938044
 30
0.0
 10
6158.088889
 20
-525.938044
 30
0.0
  0
LWPOLYLINE
  5
18a
100
AcDbEntity
  8
0
 62
7
100
AcDbPolyline
 90
3
 70
0
 10
6471.355556
 20
-839.486933
 30
0.0
 10
6471.355556
 20
-1121.709156
 30
0.0
 10
6189.133333
 20
-1121.709156
 30
0.0
  0
LWPOLYLINE
  5
18b
100
AcDbEntity
  8
0
 62
7
100
AcDbPolyline
 90
20
 70
0
 10
3543.864444
 20
-621.893600
 30
0.0
 10
3530.882222
 20
-626.126933
 30
0.0
 10
3509.433333
 20
-626.126933
 30
0.0
 10
3500.966667
 20
-621.893600
 30
0.0
 10
3496.451111
 20
-617.660267
 30
0.0
 10
3492.217778
 20
-608.911378
 30
0.0
 10
3492.217778
 20
-600.444711
 30
0.0
 10
3496.451111
 20
-591.695822
 30
0.0
 10
3500.966667
 20
-587.462489
 30
0.0
 10
3509.433333
 20
-583.229156
 30
0.0
 10
3526.648889
 20
-578.995822
 30
0.0
 10
3535.115556
 20
-574.480267
 30
0.0
 10
3539.631111
 20
-570.246933
 30
0.0
 10
3543.864444
 20
-561.780267
 30
0.0
 10
3543.864444
 20
-553.031378
 30
0.0
 10
3539.631111
 20
-544.564711
 30
0.0
 10
3535.115556
 20
-540.331378
 30
0.0
 10
3526.648889
 20
-535.815822
 30
0.0
 10
3505.200000
 20
-535.815822
 30
0.0
 10
3492.217778
 20
-540.331378
 30
0.0
  0
LWPOLYLINE
  5
18c
100
AcDbEntity
  8
0
 62
7
100
AcDbPolyline
 90
5
 70
0
 10
3462.020000
 20
-535.815822
 30
0.0
 10
3440.571111
 20
-626.126933
 30
0.0
 10
3423.355556
 20
-561.780267
 30
0.0
 10
3406.140000
 20
-626.126933
 30
0.0
 10
3384.691111
 20
-535.815822
 30
0.0
  0
LWPOLYLINE
  5
18d
100
AcDbEntity
  8
0
 62
7
100
AcDbPolyline
 90
2
 70
0
 10
3303.128889
 20
-626.126933
 30
0.0
 10
3354.493333
 20
-626.126933
 30
0.0
  0
LWPOLYLINE
  5
18e
100
AcDbEntity
  8
0
 62
7
100
AcDbPolyline
 90
5
 70
0
 10
3328.811111
 20
-626.126933
 30
0.0
 10
3328.811111
 20
-535.815822
 30
0.0
 10
3337.277778
 20
-548.798044
 30
0.0
 10
3346.026667
 20
-557.264711
 30
0.0
 10
3354.493333
 20
-561.780267
 30
0.0
  0
LWPOLYLINE
  5
18f
100
AcDbEntity
  8
0
 62
7
100
AcDbPolyline
 90
20
 70
0
 10
2048.086667
 20
-621.893600
 30
0.0
 10
2035.104444
 20
-626.126933
 30
0.0
 10
2013.655556
 20
-626.126933
 30
0.0
 10
2005.188889
 20
-621.893600
 30
0.0
 10
2000.673333
 20
-617.660267
 30
0.0
 10
1996.440000
 20
-608.911378
 30
0.0
 10
1996.440000
 20
-600.444711
 30
0.0
 10
2000.673333
 20
-591.695822
 30
0.0
 10
2005.188889
 20
-587.462489
 30
0.0
 10
2013.655556
 20
-583.229156
 30
0.0
 10
2030.871111
 20
-578.995822
 30
0.0
 10
2039.337778
 20
-574.480267
 30
0.0
 10
2043.853333
 20
-570.246933
 30
0.0
 10
2048.086667
 20
-561.780267
 30
0.0
 10
2048.086667
 20
-553.031378
 30
0.0
 10
2043.853333
 20
-544.564711
 30
0.0
 10
2039.337778
 20
-540.331378
 30
0.0
 10
2030.871111
 20
-535.815822
 30
0.0
 10
2009.422222
 20
-535.815822
 30
0.0
 10
1996.440000
 20
-540.331378
 30
0.0
  0
LWPOLYLINE
  5
190
100
AcDbEntity
  8
0
 62
7
100
AcDbPolyline
 90
5
 70
0
 10
1966.242222
 20
-535.815822
 30
0.0
 10
1944.793333
 20
-626.126933
 30
0.0
 10
1927.577778
 20
-561.780267
 30
0.0
 10
1910.362222
 20
-626.126933
 30
0.0
 10
1888.913333
 20
-535.815822
 30
0.0
  0
LWPOLYLINE
  5
191
100
AcDbEntity
  8
0
 62
7
100
AcDbPolyline
 90
11
 70
0
 10
1858.715556
 20
-544.564711
 30
0.0
 10
1854.482222
 20
-540.331378
 30
0.0
 10
1846.015556
 20
-535.815822
 30
0.0
 10
1824.566667
 20
-535.815822
 30
0.0
 10
1815.817778
 20
-540.331378
 30
0.0
 10
1811.584444
 20
-544.564711
 30
0.0
 10
1807.351111
 20
-553.031378
 30
0.0
 10
1807.351111
 20
-561.780267
 30
0.0
 10
1811.584444
 20
-574.480267
 30
0.0
 10
1863.231111
 20
-626.126933
 30
0.0
 10
1807.351111
 20
-626.126933
 30
0.0
  0
LWPOLYLINE
  5
192
100
AcDbEntity
  8
0
 62
7
100
AcDbPolyline
 90
11
 70
0
 10
6214.815556
 20
-1730.744711
 30
0.0
 10
6214.815556
 20
-1619.549156
 30
0.0
 10
6172.482222
 20
-1619.549156
 30
0.0
 10
6161.757778
 20
-1624.911378
 30
0.0
 10
6156.677778
 20
-1629.991378
 30
0.0
 10
6151.315556
 20
-1640.715822
 30
0.0
 10
6151.315556
 20
-1656.520267
 30
0.0
 10
6156.677778
 20
-1667.244711
 30
0.0
 10
6161.757778
 20
-1672.324711
 30
0.0
 10
6172.482222
 20
-1677.686933
 30
0.0
 10
6214.815556
 20
-1677.686933
 30
0.0
  0
LWPOLYLINE
  5
193
100
AcDbEntity
  8
0
 62
7
100
AcDbPolyline
 90
2
 70
0
 10
6045.482222
 20
-1730.744711
 30
0.0
 10
6108.982222
 20
-1730.744711
 30
0.0
  0
LWPOLYLINE
  5
194
100
AcDbEntity
  8
0
 62
7
100
AcDbPolyline
 90
5
 70
0
 10
6077.091111
 20
-1730.744711
 30
0.0
 10
6077.091111
 20
-1619.549156
 30
0.0
 10
6087.815556
 20
-1635.353600
 30
0.0
 10
6098.257778
 20
-1646.078044
 30
0.0
 10
6108.982222
 20
-1651.158044
 30
0.0
  0
LWPOLYLINE
  5
195
100
AcDbEntity
  8
0
 62
7
100
AcDbPolyline
 90
2
 70
0
 10
1584.113333
 20
-240.329156
 30
0.0
 10
2250.722222
 20
-243.998044
 30
0.0
  0
LWPOLYLINE
  5
196
100
AcDbEntity
  8
0
 62
7
100
AcDbPolyline
 90
2
 70
0
 10
1580.726667
 20
-907.220267
 30
0.0
 10
1584.113333
 20
-240.329156
 30
0.0
  0
LWPOLYLINE
  5
197
100
AcDbEntity
  8
0
 62
7
100
AcDbPolyline
 90
2
 70
0
 10
2247.335556
 20
-910.606933
 30
0.0
 10
1580.726667
 20
-907.220267
 30
0.0
  0
LWPOLYLINE
  5
198
100
AcDbEntity
  8
0
 62
7
100
AcDbPolyline
 90
2
 70
0
 10
2250.722222
 20
-243.998044
 30
0.0
 10
2247.335556
 20
-910.606933
 30
0.0
  0
LWPOLYLINE
  5
199
100
AcDbEntity
  8
0
 62
7
100
AcDbPolyline
 90
5
 70
0
 10
3105.291111
 20
-903.551378
 30
0.0
 10
3108.960000
 20
-236.942489
 30
0.0
 10
3775.568889
 20
-240.329156
 30
0.0
 10
3771.900000
 20
-907.220267
 30
0.0
 10
3105.291111
 20
-903.551378
 30
0.0
  0
LWPOLYLINE
  5
19a
100
AcDbEntity
  8
0
 62
7
100
AcDbPolyline
 90
2
 70
0
 10
5149.426667
 20
-1055.104711
 30
0.0
 10
5223.368889
 20
-1055.104711
 30
0.0
  0
LWPOLYLINE
  5
19b
100
AcDbEntity
  8
0
 62
7
100
AcDbPolyline
 90
3
 70
0
 10
5107.093333
 20
-1094.615822
 30
0.0
 10
5186.397778
 20
-1134.409156
 30
0.0
 10
5186.397778
 20
-1031.115822
 30
0.0
  0
LWPOLYLINE
  5
19c
100
AcDbEntity
  8
0
 62
7
100
AcDbPolyline
 90
3
 70
0
 10
5112.455556
 20
-983.420267
 30
0.0
 10
5112.455556
 20
-872.506933
 30
0.0
 10
5223.368889
 20
-943.909156
 30
0.0
  0
LWPOLYLINE
  5
19d
100
AcDbEntity
  8
0
 62
7
100
AcDbPolyline
 90
2
 70
0
 10
5223.368889
 20
-809.006933
 30
0.0
 10
5112.455556
 20
-809.006933
 30
0.0
  0
LWPOLYLINE
  5
19e
100
AcDbEntity
  8
0
 62
7
100
AcDbPolyline
 90
2
 70
0
 10
5223.368889
 20
-713.615822
 30
0.0
 10
5159.868889
 20
-785.018044
 30
0.0
  0
LWPOLYLINE
  5
19f
100
AcDbEntity
  8
0
 62
7
100
AcDbPolyline
 90
2
 70
0
 10
5112.455556
 20
-713.615822
 30
0.0
 10
5175.955556
 20
-809.006933
 30
0.0
  0
LWPOLYLINE
  5
1a0
100
AcDbEntity
  8
0
 62
7
100
AcDbPolyline
 90
2
 70
0
 10
5488.093333
 20
-1055.104711
 30
0.0
 10
5562.035556
 20
-1055.104711
 30
0.0
  0
LWPOLYLINE
  5
1a1
100
AcDbEntity
  8
0
 62
7
100
AcDbPolyline
 90
3
 70
0
 10
5445.760000
 20
-1094.615822
 30
0.0
 10
5525.064444
 20
-1134.409156
 30
0.0
 10
5525.064444
 20
-1031.115822
 30
0.0
  0
LWPOLYLINE
  5
1a2
100
AcDbEntity
  8
0
 62
7
100
AcDbPolyline
 90
3
 70
0
 10
5451.122222
 20
-983.420267
 30
0.0
 10
5451.122222
 20
-872.506933
 30
0.0
 10
5562.035556
 20
-943.909156
 30
0.0
  0
LWPOLYLINE
  5
1a3
100
AcDbEntity
  8
0
 62
7
100
AcDbPolyline
 90
2
 70
0
 10
5562.035556
 20
-809.006933
 30
0.0
 10
5451.122222
 20
-809.006933
 30
0.0
  0
LWPOLYLINE
  5
1a4
100
AcDbEntity
  8
0
 62
7
100
AcDbPolyline
 90
2
 70
0
 10
5562.035556
 20
-713.615822
 30
0.0
 10
5498.535556
 20
-785.018044
 30
0.0
  0
LWPOLYLINE
  5
1a5
100
AcDbEntity
  8
0
 62
7
100
AcDbPolyline
 90
2
 70
0
 10
5451.122222
 20
-713.615822
 30
0.0
 10
5514.622222
 20
-809.006933
 30
0.0
  0
LWPOLYLINE
  5
1a6
100
AcDbEntity
  8
0
 62
7
100
AcDbPolyline
 90
2
 70
0
 10
2117.795556
 20
-1284.833600
 30
0.0
 10
2022.404444
 20
-1284.833600
 30
0.0
  0
LWPOLYLINE
  5
1a7
100
AcDbEntity
  8
0
 62
7
100
AcDbPolyline
 90
5
 70
0
 10
2070.100000
 20
-1284.833600
 30
0.0
 10
2070.100000
 20
-1173.638044
 30
0.0
 10
2054.295556
 20
-1189.442489
 30
0.0
 10
2038.208889
 20
-1200.166933
 30
0.0
 10
2022.404444
 20
-1205.246933
 30
0.0
  0
LWPOLYLINE
  5
1a8
100
AcDbEntity
  8
0
 62
7
100
AcDbPolyline
 90
2
 70
0
 10
2189.197778
 20
-1284.833600
 30
0.0
 10
2189.197778
 20
-1173.638044
 30
0.0
  0
LWPOLYLINE
  5
1a9
100
AcDbEntity
  8
0
 62
7
100
AcDbPolyline
 90
2
 70
0
 10
2284.306667
 20
-1284.833600
 30
0.0
 10
2212.904444
 20
-1221.333600
 30
0.0
  0
LWPOLYLINE
  5
1aa
100
AcDbEntity
  8
0
 62
7
100
AcDbPolyline
 90
2
 70
0
 10
2284.306667
 20
-1173.638044
 30
0.0
 10
2189.197778
 20
-1237.138044
 30
0.0
  0
LWPOLYLINE
  5
1ab
100
AcDbEntity
  8
0
 62
7
100
AcDbPolyline
 90
2
 70
0
 10
3613.573333
 20
-1284.833600
 30
0.0
 10
3518.182222
 20
-1284.833600
 30
0.0
  0
LWPOLYLINE
  5
1ac
100
AcDbEntity
  8
0
 62
7
100
AcDbPolyline
 90
5
 70
0
 10
3565.877778
 20
-1284.833600
 30
0.0
 10
3565.877778
 20
-1173.638044
 30
0.0
 10
3550.073333
 20
-1189.442489
 30
0.0
 10
3533.986667
 20
-1200.166933
 30
0.0
 10
3518.182222
 20
-1205.246933
 30
0.0
  0
LWPOLYLINE
  5
1ad
100
AcDbEntity
  8
0
 62
7
100
AcDbPolyline
 90
2
 70
0
 10
3684.975556
 20
-1284.833600
 30
0.0
 10
3684.975556
 20
-1173.638044
 30
0.0
  0
LWPOLYLINE
  5
1ae
100
AcDbEntity
  8
0
 62
7
100
AcDbPolyline
 90
2
 70
0
 10
3780.084444
 20
-1284.833600
 30
0.0
 10
3708.682222
 20
-1221.333600
 30
0.0
  0
LWPOLYLINE
  5
1af
100
AcDbEntity
  8
0
 62
7
100
AcDbPolyline
 90
2
 70
0
 10
3780.084444
 20
-1173.638044
 30
0.0
 10
3684.975556
 20
-1237.138044
 30
0.0
  0
LWPOLYLINE
  5
1b0
100
AcDbEntity
  8
0
 62
7
100
AcDbPolyline
 90
2
 70
0
 10
4347.633333
 20
-1000.071378
 30
0.0
 10
4474.633333
 20
-1000.071378
 30
0.0
  0
LWPOLYLINE
  5
1b1
100
AcDbEntity
  8
0
 62
7
100
AcDbPolyline
 90
2
 70
0
 10
4347.633333
 20
-1266.771378
 30
0.0
 10
4474.633333
 20
-1266.771378
 30
0.0
  0
LWPOLYLINE
  5
1b2
100
AcDbEntity
  8
0
 62
7
100
AcDbPolyline
 90
2
 70
0
 10
4411.133333
 20
-1330.271378
 30
0.0
 10
4411.133333
 20
-1203.271378
 30
0.0
  0
LWPOLYLINE
  5
1b3
100
AcDbEntity
  8
0
 62
7
100
AcDbPolyline
 90
2
 70
0
 10
874.888889
 20
-1608.260267
 30
0.0
 10
874.888889
 20
-1481.542489
 30
0.0
  0
LWPOLYLINE
  5
1b4
100
AcDbEntity
  8
0
 62
7
100
AcDbPolyline
 90
2
 70
0
 10
1141.588889
 20
-1608.260267
 30
0.0
 10
1141.588889
 20
-1481.542489
 30
0.0
  0
LWPOLYLINE
  5
1b5
100
AcDbEntity
  8
0
 62
7
100
AcDbPolyline
 90
2
 70
0
 10
1205.088889
 20
-1545.042489
 30
0.0
 10
1078.088889
 20
-1545.042489
 30
0.0
  0
LWPOLYLINE
  5
1b6
100
AcDbEntity
  8
0
 62
7
100
AcDbPolyline
 90
11
 70
0
 10
5783.580000
 20
-1736.389156
 30
0.0
 10
5783.580000
 20
-1625.193600
 30
0.0
 10
5847.080000
 20
-1625.193600
 30
0.0
 10
5862.884444
 20
-1630.555822
 30
0.0
 10
5870.786667
 20
-1635.635822
 30
0.0
 10
5878.688889
 20
-1646.360267
 30
0.0
 10
5878.688889
 20
-1662.164711
 30
0.0
 10
5870.786667
 20
-1672.889156
 30
0.0
 10
5862.884444
 20
-1677.969156
 30
0.0
 10
5847.080000
 20
-1683.331378
 30
0.0
 10
5783.580000
 20
-1683.331378
 30
0.0
  0
LWPOLYLINE
  5
1b7
100
AcDbEntity
  8
0
 62
7
100
AcDbPolyline
 90
2
 70
0
 10
6037.580000
 20
-1736.389156
 30
0.0
 10
5942.188889
 20
-1736.389156
 30
0.0
  0
LWPOLYLINE
  5
1b8
100
AcDbEntity
  8
0
 62
7
100
AcDbPolyline
 90
5
 70
0
 10
5989.884444
 20
-1736.389156
 30
0.0
 10
5989.884444
 20
-1625.193600
 30
0.0
 10
5974.080000
 20
-1640.998044
 30
0.0
 10
5958.275556
 20
-1651.722489
 30
0.0
 10
5942.188889
 20
-1656.802489
 30
0.0
  0
LWPOLYLINE
  5
1b9
100
AcDbEntity
  8
0
 62
7
100
AcDbPolyline
 90
11
 70
0
 10
6235.982222
 20
-1736.389156
 30
0.0
 10
6235.982222
 20
-1625.193600
 30
0.0
 10
6299.482222
 20
-1625.193600
 30
0.0
 10
6315.286667
 20
-1630.555822
 30
0.0
 10
6323.188889
 20
-1635.635822
 30
0.0
 10
6331.091111
 20
-1646.360267
 30
0.0
 10
6331.091111
 20
-1662.164711
 30
0.0
 10
6323.188889
 20
-1672.889156
 30
0.0
 10
6315.286667
 20
-1677.969156
 30
0.0
 10
6299.482222
 20
-1683.331378
 30
0.0
 10
6235.982222
 20
-1683.331378
 30
0.0
  0
LWPOLYLINE
  5
1ba
100
AcDbEntity
  8
0
 62
7
100
AcDbPolyline
 90
11
 70
0
 10
6394.591111
 20
-1635.635822
 30
0.0
 10
6402.493333
 20
-1630.555822
 30
0.0
 10
6418.580000
 20
-1625.193600
 30
0.0
 10
6458.091111
 20
-1625.193600
 30
0.0
 10
6473.895556
 20
-1630.555822
 30
0.0
 10
6482.080000
 20
-1635.635822
 30
0.0
 10
6489.982222
 20
-1646.360267
 30
0.0
 10
6489.982222
 20
-1656.802489
 30
0.0
 10
6482.080000
 20
-1672.889156
 30
0.0
 10
6386.688889
 20
-1736.389156
 30
0.0
 10
6489.982222
 20
-1736.389156
 30
0.0
  0
LWPOLYLINE
  5
1bb
100
AcDbEntity
  8
0
 62
7
100
AcDbPolyline
 90
3
 70
0
 10
5882.357778
 20
-296.491378
 30
0.0
 10
5937.955556
 20
-463.284711
 30
0.0
 10
5993.553333
 20
-296.491378
 30
0.0
  0
LWPOLYLINE
  5
1bc
100
AcDbEntity
  8
0
 62
7
100
AcDbPolyline
 90
16
 70
0
 10
6144.260000
 20
-447.198044
 30
0.0
 10
6136.357778
 20
-455.382489
 30
0.0
 10
6112.368889
 20
-463.284711
 30
0.0
 10
6096.564444
 20
-463.284711
 30
0.0
 10
6072.857778
 20
-455.382489
 30
0.0
 10
6057.053333
 20
-439.295822
 30
0.0
 10
6048.868889
 20
-423.491378
 30
0.0
 10
6040.966667
 20
-391.882489
 30
0.0
 10
6040.966667
 20
-367.893600
 30
0.0
 10
6048.868889
 20
-336.284711
 30
0.0
 10
6057.053333
 20
-320.198044
 30
0.0
 10
6072.857778
 20
-304.393600
 30
0.0
 10
6096.564444
 20
-296.491378
 30
0.0
 10
6112.368889
 20
-296.491378
 30
0.0
 10
6136.357778
 20
-304.393600
 30
0.0
 10
6144.260000
 20
-312.295822
 30
0.0
  0
LWPOLYLINE
  5
1bd
100
AcDbEntity
  8
0
 62
7
100
AcDbPolyline
 90
16
 70
0
 10
6310.771111
 20
-447.198044
 30
0.0
 10
6302.868889
 20
-455.382489
 30
0.0
 10
6279.162222
 20
-463.284711
 30
0.0
 10
6263.357778
 20
-463.284711
 30
0.0
 10
6239.368889
 20
-455.382489
 30
0.0
 10
6223.564444
 20
-439.295822
 30
0.0
 10
6215.662222
 20
-423.491378
 30
0.0
 10
6207.760000
 20
-391.882489
 30
0.0
 10
6207.760000
 20
-367.893600
 30
0.0
 10
6215.662222
 20
-336.284711
 30
0.0
 10
6223.564444
 20
-320.198044
 30
0.0
 10
6239.368889
 20
-304.393600
 30
0.0
 10
6263.357778
 20
-296.491378
 30
0.0
 10
6279.162222
 20
-296.491378
 30
0.0
 10
6302.868889
 20
-304.393600
 30
0.0
 10
6310.771111
 20
-312.295822
 30
0.0
  0
LWPOLYLINE
  5
1be
100
AcDbEntity
  8
0
 62
7
100
AcDbPolyline
 90
2
 70
0
 10
572.911111
 20
-1883.709156
 30
0.0
 10
572.911111
 20
-1855.486933
 30
0.0
  0
LWPOLYLINE
  5
1bf
100
AcDbEntity
  8
0
 62
7
100
AcDbPolyline
 90
2
 70
0
 10
6612.466667
 20
-1883.709156
 30
0.0
 10
572.911111
 20
-1883.709156
 30
0.0
  0
LWPOLYLINE
  5
1c0
100
AcDbEntity
  8
0
 62
7
100
AcDbPolyline
 90
2
 70
0
 10
6612.466667
 20
-77.486933
 30
0.0
 10
6612.466667
 20
-1883.709156
 30
0.0
  0
LWPOLYLINE
  5
1c1
100
AcDbEntity
  8
0
 62
7
100
AcDbPolyline
 90
2
 70
0
 10
572.911111
 20
-77.486933
 30
0.0
 10
6612.466667
 20
-77.486933
 30
0.0
  0
LWPOLYLINE
  5
1c2
100
AcDbEntity
  8
0
 62
7
100
AcDbPolyline
 90
2
 70
0
 10
572.911111
 20
-77.486933
 30
0.0
 10
572.911111
 20
-1855.486933
 30
0.0
  0
ENDSEC
  0
SECTION
  2
OBJECTS
  0
DICTIONARY
  5
C
330
0
100
AcDbDictionary
  3
ACAD_GROUP
350
D
  3
ACAD_MLINESTYLE
350
17
  0
DICTIONARY
  5
D
330
C
100
AcDbDictionary
  0
DICTIONARY
  5
1A
330
C
100
AcDbDictionary
  0
DICTIONARY
  5
17
330
C
100
AcDbDictionary
  3
STANDARD
350
18
  0
DICTIONARY
  5
19
330
C
100
AcDbDictionary
  0
ENDSEC
  0
EOF
