<?xml version="1.0" standalone="no"?>
 <!DOCTYPE svg PUBLIC "-//W3C//DTD SVG 1.1//EN" 
 "http://www.w3.org/Graphics/SVG/1.1/DTD/svg11.dtd"> 
<svg xmlns="http://www.w3.org/2000/svg" version="1.1" 
    width="29.7002cm" height="21.0007cm" viewBox="0 0 116930 82680 ">
<title>SVG Picture created as PickupWiring.svg date 2017/01/04 11:10:11 </title>
  <desc>Picture generated by Eeschema-SVG </desc>
<g style="fill:#000000; fill-opacity:1;stroke:#000000; stroke-opacity:1;
stroke-linecap:round; stroke-linejoin:round; "
 transform="translate(0 0) scale(1 1)">
</g>
<g style="fill:#000000; fill-opacity:0.0; 
stroke:#000000; stroke-width:-10; stroke-opacity:1; 
stroke-linecap:round; stroke-linejoin:round;">
</g>
<g style="fill:#840000; fill-opacity:0.0; 
stroke:#840000; stroke-width:-10; stroke-opacity:1; 
stroke-linecap:round; stroke-linejoin:round;">
</g>
<g style="fill:#840000; fill-opacity:0.0; 
stroke:#840000; stroke-width:100; stroke-opacity:1; 
stroke-linecap:round; stroke-linejoin:round;">
</g>
<g style="fill:#840000; fill-opacity:0.0; 
stroke:#840000; stroke-width:60; stroke-opacity:1; 
stroke-linecap:round; stroke-linejoin:round;">
<rect x="69690" y="65360" width="42520" height="12600" rx="0" />
</g>
<g style="fill:#840000; fill-opacity:0.0; 
stroke:#840000; stroke-width:100; stroke-opacity:1; 
stroke-linecap:round; stroke-linejoin:round;">
</g>
<g style="fill:#840000; fill-opacity:0.0; 
stroke:#840000; stroke-width:60; stroke-opacity:1; 
stroke-linecap:round; stroke-linejoin:round;">
<rect x="3940" y="3940" width="109050" height="74800" rx="0" />
</g>
<g style="fill:#840000; fill-opacity:0.0; 
stroke:#840000; stroke-width:100; stroke-opacity:1; 
stroke-linecap:round; stroke-linejoin:round;">
</g>
<g style="fill:#840000; fill-opacity:0.0; 
stroke:#840000; stroke-width:60; stroke-opacity:1; 
stroke-linecap:round; stroke-linejoin:round;">
<rect x="4720" y="4720" width="107490" height="73240" rx="0" />
</g>
<g style="fill:#840000; fill-opacity:0.0; 
stroke:#840000; stroke-width:100; stroke-opacity:1; 
stroke-linecap:round; stroke-linejoin:round;">
</g>
<g style="fill:#840000; fill-opacity:0.0; 
stroke:#840000; stroke-width:60; stroke-opacity:1; 
stroke-linecap:round; stroke-linejoin:round;">
<path d="M23620 4720
L23620 3940
" />
</g>
<g style="fill:#840000; fill-opacity:0.0; 
stroke:#840000; stroke-width:100; stroke-opacity:1; 
stroke-linecap:round; stroke-linejoin:round;">
</g>
<g style="fill:#840000; fill-opacity:0.0; 
stroke:#840000; stroke-width:60; stroke-opacity:1; 
stroke-linecap:round; stroke-linejoin:round;">
<path d="M43310 4720
L43310 3940
" />
</g>
<g style="fill:#840000; fill-opacity:0.0; 
stroke:#840000; stroke-width:100; stroke-opacity:1; 
stroke-linecap:round; stroke-linejoin:round;">
</g>
<g style="fill:#840000; fill-opacity:0.0; 
stroke:#840000; stroke-width:60; stroke-opacity:1; 
stroke-linecap:round; stroke-linejoin:round;">
<path d="M62990 4720
L62990 3940
" />
</g>
<g style="fill:#840000; fill-opacity:0.0; 
stroke:#840000; stroke-width:100; stroke-opacity:1; 
stroke-linecap:round; stroke-linejoin:round;">
</g>
<g style="fill:#840000; fill-opacity:0.0; 
stroke:#840000; stroke-width:60; stroke-opacity:1; 
stroke-linecap:round; stroke-linejoin:round;">
<path d="M82680 4720
L82680 3940
" />
</g>
<g style="fill:#840000; fill-opacity:0.0; 
stroke:#840000; stroke-width:100; stroke-opacity:1; 
stroke-linecap:round; stroke-linejoin:round;">
</g>
<g style="fill:#840000; fill-opacity:0.0; 
stroke:#840000; stroke-width:60; stroke-opacity:1; 
stroke-linecap:round; stroke-linejoin:round;">
<path d="M102360 4720
L102360 3940
" />
</g>
<g style="fill:#840000; fill-opacity:0.0; 
stroke:#840000; stroke-width:100; stroke-opacity:1; 
stroke-linecap:round; stroke-linejoin:round;">
</g>
<g style="fill:#840000; fill-opacity:0.0; 
stroke:#840000; stroke-width:60; stroke-opacity:1; 
stroke-linecap:round; stroke-linejoin:round;">
<path d="M14190 4560
L13900 4560
" />
<path d="M14050 4560
L14050 4050
L14000 4120
L13950 4170
L13900 4190
" />
</g>
<g style="fill:#840000; fill-opacity:0.0; 
stroke:#840000; stroke-width:100; stroke-opacity:1; 
stroke-linecap:round; stroke-linejoin:round;">
</g>
<g style="fill:#840000; fill-opacity:0.0; 
stroke:#840000; stroke-width:60; stroke-opacity:1; 
stroke-linecap:round; stroke-linejoin:round;">
<path d="M33580 4090
L33610 4070
L33660 4050
L33780 4050
L33830 4070
L33850 4090
L33870 4140
L33870 4190
L33850 4260
L33560 4560
L33870 4560
" />
</g>
<g style="fill:#840000; fill-opacity:0.0; 
stroke:#840000; stroke-width:100; stroke-opacity:1; 
stroke-linecap:round; stroke-linejoin:round;">
</g>
<g style="fill:#840000; fill-opacity:0.0; 
stroke:#840000; stroke-width:60; stroke-opacity:1; 
stroke-linecap:round; stroke-linejoin:round;">
<path d="M53250 4050
L53560 4050
L53390 4240
L53470 4240
L53520 4260
L53540 4290
L53560 4340
L53560 4460
L53540 4510
L53520 4530
L53470 4560
L53320 4560
L53270 4530
L53250 4510
" />
</g>
<g style="fill:#840000; fill-opacity:0.0; 
stroke:#840000; stroke-width:100; stroke-opacity:1; 
stroke-linecap:round; stroke-linejoin:round;">
</g>
<g style="fill:#840000; fill-opacity:0.0; 
stroke:#840000; stroke-width:60; stroke-opacity:1; 
stroke-linecap:round; stroke-linejoin:round;">
<path d="M73200 4220
L73200 4560
" />
<path d="M73070 4020
L72950 4390
L73270 4390
" />
</g>
<g style="fill:#840000; fill-opacity:0.0; 
stroke:#840000; stroke-width:100; stroke-opacity:1; 
stroke-linecap:round; stroke-linejoin:round;">
</g>
<g style="fill:#840000; fill-opacity:0.0; 
stroke:#840000; stroke-width:60; stroke-opacity:1; 
stroke-linecap:round; stroke-linejoin:round;">
<path d="M92910 4050
L92670 4050
L92640 4290
L92670 4260
L92720 4240
L92840 4240
L92890 4260
L92910 4290
L92930 4340
L92930 4460
L92910 4510
L92890 4530
L92840 4560
L92720 4560
L92670 4530
L92640 4510
" />
</g>
<g style="fill:#840000; fill-opacity:0.0; 
stroke:#840000; stroke-width:100; stroke-opacity:1; 
stroke-linecap:round; stroke-linejoin:round;">
</g>
<g style="fill:#840000; fill-opacity:0.0; 
stroke:#840000; stroke-width:60; stroke-opacity:1; 
stroke-linecap:round; stroke-linejoin:round;">
<path d="M112570 4050
L112470 4050
L112420 4070
L112400 4090
L112350 4170
L112320 4260
L112320 4460
L112350 4510
L112370 4530
L112420 4560
L112520 4560
L112570 4530
L112590 4510
L112610 4460
L112610 4340
L112590 4290
L112570 4260
L112520 4240
L112420 4240
L112370 4260
L112350 4290
L112320 4340
" />
</g>
<g style="fill:#840000; fill-opacity:0.0; 
stroke:#840000; stroke-width:100; stroke-opacity:1; 
stroke-linecap:round; stroke-linejoin:round;">
</g>
<g style="fill:#840000; fill-opacity:0.0; 
stroke:#840000; stroke-width:60; stroke-opacity:1; 
stroke-linecap:round; stroke-linejoin:round;">
<path d="M23620 77960
L23620 78740
" />
</g>
<g style="fill:#840000; fill-opacity:0.0; 
stroke:#840000; stroke-width:100; stroke-opacity:1; 
stroke-linecap:round; stroke-linejoin:round;">
</g>
<g style="fill:#840000; fill-opacity:0.0; 
stroke:#840000; stroke-width:60; stroke-opacity:1; 
stroke-linecap:round; stroke-linejoin:round;">
<path d="M43310 77960
L43310 78740
" />
</g>
<g style="fill:#840000; fill-opacity:0.0; 
stroke:#840000; stroke-width:100; stroke-opacity:1; 
stroke-linecap:round; stroke-linejoin:round;">
</g>
<g style="fill:#840000; fill-opacity:0.0; 
stroke:#840000; stroke-width:60; stroke-opacity:1; 
stroke-linecap:round; stroke-linejoin:round;">
<path d="M62990 77960
L62990 78740
" />
</g>
<g style="fill:#840000; fill-opacity:0.0; 
stroke:#840000; stroke-width:100; stroke-opacity:1; 
stroke-linecap:round; stroke-linejoin:round;">
</g>
<g style="fill:#840000; fill-opacity:0.0; 
stroke:#840000; stroke-width:60; stroke-opacity:1; 
stroke-linecap:round; stroke-linejoin:round;">
<path d="M82680 77960
L82680 78740
" />
</g>
<g style="fill:#840000; fill-opacity:0.0; 
stroke:#840000; stroke-width:100; stroke-opacity:1; 
stroke-linecap:round; stroke-linejoin:round;">
</g>
<g style="fill:#840000; fill-opacity:0.0; 
stroke:#840000; stroke-width:60; stroke-opacity:1; 
stroke-linecap:round; stroke-linejoin:round;">
<path d="M102360 77960
L102360 78740
" />
</g>
<g style="fill:#840000; fill-opacity:0.0; 
stroke:#840000; stroke-width:100; stroke-opacity:1; 
stroke-linecap:round; stroke-linejoin:round;">
</g>
<g style="fill:#840000; fill-opacity:0.0; 
stroke:#840000; stroke-width:60; stroke-opacity:1; 
stroke-linecap:round; stroke-linejoin:round;">
<path d="M14190 78580
L13900 78580
" />
<path d="M14050 78580
L14050 78070
L14000 78140
L13950 78190
L13900 78210
" />
</g>
<g style="fill:#840000; fill-opacity:0.0; 
stroke:#840000; stroke-width:100; stroke-opacity:1; 
stroke-linecap:round; stroke-linejoin:round;">
</g>
<g style="fill:#840000; fill-opacity:0.0; 
stroke:#840000; stroke-width:60; stroke-opacity:1; 
stroke-linecap:round; stroke-linejoin:round;">
<path d="M33580 78110
L33610 78090
L33660 78070
L33780 78070
L33830 78090
L33850 78110
L33870 78160
L33870 78210
L33850 78280
L33560 78580
L33870 78580
" />
</g>
<g style="fill:#840000; fill-opacity:0.0; 
stroke:#840000; stroke-width:100; stroke-opacity:1; 
stroke-linecap:round; stroke-linejoin:round;">
</g>
<g style="fill:#840000; fill-opacity:0.0; 
stroke:#840000; stroke-width:60; stroke-opacity:1; 
stroke-linecap:round; stroke-linejoin:round;">
<path d="M53250 78070
L53560 78070
L53390 78260
L53470 78260
L53520 78280
L53540 78310
L53560 78360
L53560 78480
L53540 78530
L53520 78550
L53470 78580
L53320 78580
L53270 78550
L53250 78530
" />
</g>
<g style="fill:#840000; fill-opacity:0.0; 
stroke:#840000; stroke-width:100; stroke-opacity:1; 
stroke-linecap:round; stroke-linejoin:round;">
</g>
<g style="fill:#840000; fill-opacity:0.0; 
stroke:#840000; stroke-width:60; stroke-opacity:1; 
stroke-linecap:round; stroke-linejoin:round;">
<path d="M73200 78240
L73200 78580
" />
<path d="M73070 78040
L72950 78410
L73270 78410
" />
</g>
<g style="fill:#840000; fill-opacity:0.0; 
stroke:#840000; stroke-width:100; stroke-opacity:1; 
stroke-linecap:round; stroke-linejoin:round;">
</g>
<g style="fill:#840000; fill-opacity:0.0; 
stroke:#840000; stroke-width:60; stroke-opacity:1; 
stroke-linecap:round; stroke-linejoin:round;">
<path d="M92910 78070
L92670 78070
L92640 78310
L92670 78280
L92720 78260
L92840 78260
L92890 78280
L92910 78310
L92930 78360
L92930 78480
L92910 78530
L92890 78550
L92840 78580
L92720 78580
L92670 78550
L92640 78530
" />
</g>
<g style="fill:#840000; fill-opacity:0.0; 
stroke:#840000; stroke-width:100; stroke-opacity:1; 
stroke-linecap:round; stroke-linejoin:round;">
</g>
<g style="fill:#840000; fill-opacity:0.0; 
stroke:#840000; stroke-width:60; stroke-opacity:1; 
stroke-linecap:round; stroke-linejoin:round;">
<path d="M112570 78070
L112470 78070
L112420 78090
L112400 78110
L112350 78190
L112320 78280
L112320 78480
L112350 78530
L112370 78550
L112420 78580
L112520 78580
L112570 78550
L112590 78530
L112610 78480
L112610 78360
L112590 78310
L112570 78280
L112520 78260
L112420 78260
L112370 78280
L112350 78310
L112320 78360
" />
</g>
<g style="fill:#840000; fill-opacity:0.0; 
stroke:#840000; stroke-width:100; stroke-opacity:1; 
stroke-linecap:round; stroke-linejoin:round;">
</g>
<g style="fill:#840000; fill-opacity:0.0; 
stroke:#840000; stroke-width:60; stroke-opacity:1; 
stroke-linecap:round; stroke-linejoin:round;">
<path d="M3940 23620
L4720 23620
" />
</g>
<g style="fill:#840000; fill-opacity:0.0; 
stroke:#840000; stroke-width:100; stroke-opacity:1; 
stroke-linecap:round; stroke-linejoin:round;">
</g>
<g style="fill:#840000; fill-opacity:0.0; 
stroke:#840000; stroke-width:60; stroke-opacity:1; 
stroke-linecap:round; stroke-linejoin:round;">
<path d="M3940 43310
L4720 43310
" />
</g>
<g style="fill:#840000; fill-opacity:0.0; 
stroke:#840000; stroke-width:100; stroke-opacity:1; 
stroke-linecap:round; stroke-linejoin:round;">
</g>
<g style="fill:#840000; fill-opacity:0.0; 
stroke:#840000; stroke-width:60; stroke-opacity:1; 
stroke-linecap:round; stroke-linejoin:round;">
<path d="M3940 62990
L4720 62990
" />
</g>
<g style="fill:#840000; fill-opacity:0.0; 
stroke:#840000; stroke-width:100; stroke-opacity:1; 
stroke-linecap:round; stroke-linejoin:round;">
</g>
<g style="fill:#840000; fill-opacity:0.0; 
stroke:#840000; stroke-width:60; stroke-opacity:1; 
stroke-linecap:round; stroke-linejoin:round;">
<path d="M4200 13860
L4450 13860
" />
<path d="M4160 14010
L4330 13500
L4500 14010
" />
</g>
<g style="fill:#840000; fill-opacity:0.0; 
stroke:#840000; stroke-width:100; stroke-opacity:1; 
stroke-linecap:round; stroke-linejoin:round;">
</g>
<g style="fill:#840000; fill-opacity:0.0; 
stroke:#840000; stroke-width:60; stroke-opacity:1; 
stroke-linecap:round; stroke-linejoin:round;">
<path d="M4360 33420
L4430 33440
L4460 33470
L4480 33520
L4480 33590
L4460 33640
L4430 33660
L4390 33690
L4190 33690
L4190 33180
L4360 33180
L4410 33200
L4430 33220
L4460 33270
L4460 33320
L4430 33370
L4410 33390
L4360 33420
L4190 33420
" />
</g>
<g style="fill:#840000; fill-opacity:0.0; 
stroke:#840000; stroke-width:100; stroke-opacity:1; 
stroke-linecap:round; stroke-linejoin:round;">
</g>
<g style="fill:#840000; fill-opacity:0.0; 
stroke:#840000; stroke-width:60; stroke-opacity:1; 
stroke-linecap:round; stroke-linejoin:round;">
<path d="M4480 53330
L4460 53350
L4390 53380
L4340 53380
L4260 53350
L4220 53300
L4190 53250
L4170 53160
L4170 53080
L4190 52990
L4220 52940
L4260 52890
L4340 52870
L4390 52870
L4460 52890
L4480 52910
" />
</g>
<g style="fill:#840000; fill-opacity:0.0; 
stroke:#840000; stroke-width:100; stroke-opacity:1; 
stroke-linecap:round; stroke-linejoin:round;">
</g>
<g style="fill:#840000; fill-opacity:0.0; 
stroke:#840000; stroke-width:60; stroke-opacity:1; 
stroke-linecap:round; stroke-linejoin:round;">
<path d="M4190 73060
L4190 72550
L4310 72550
L4390 72570
L4430 72620
L4460 72670
L4480 72760
L4480 72840
L4460 72930
L4430 72980
L4390 73030
L4310 73060
L4190 73060
" />
</g>
<g style="fill:#840000; fill-opacity:0.0; 
stroke:#840000; stroke-width:100; stroke-opacity:1; 
stroke-linecap:round; stroke-linejoin:round;">
</g>
<g style="fill:#840000; fill-opacity:0.0; 
stroke:#840000; stroke-width:60; stroke-opacity:1; 
stroke-linecap:round; stroke-linejoin:round;">
<path d="M112990 23620
L112210 23620
" />
</g>
<g style="fill:#840000; fill-opacity:0.0; 
stroke:#840000; stroke-width:100; stroke-opacity:1; 
stroke-linecap:round; stroke-linejoin:round;">
</g>
<g style="fill:#840000; fill-opacity:0.0; 
stroke:#840000; stroke-width:60; stroke-opacity:1; 
stroke-linecap:round; stroke-linejoin:round;">
<path d="M112990 43310
L112210 43310
" />
</g>
<g style="fill:#840000; fill-opacity:0.0; 
stroke:#840000; stroke-width:100; stroke-opacity:1; 
stroke-linecap:round; stroke-linejoin:round;">
</g>
<g style="fill:#840000; fill-opacity:0.0; 
stroke:#840000; stroke-width:60; stroke-opacity:1; 
stroke-linecap:round; stroke-linejoin:round;">
<path d="M112990 62990
L112210 62990
" />
</g>
<g style="fill:#840000; fill-opacity:0.0; 
stroke:#840000; stroke-width:100; stroke-opacity:1; 
stroke-linecap:round; stroke-linejoin:round;">
</g>
<g style="fill:#840000; fill-opacity:0.0; 
stroke:#840000; stroke-width:60; stroke-opacity:1; 
stroke-linecap:round; stroke-linejoin:round;">
<path d="M112470 13860
L112720 13860
" />
<path d="M112430 14010
L112600 13500
L112770 14010
" />
</g>
<g style="fill:#840000; fill-opacity:0.0; 
stroke:#840000; stroke-width:100; stroke-opacity:1; 
stroke-linecap:round; stroke-linejoin:round;">
</g>
<g style="fill:#840000; fill-opacity:0.0; 
stroke:#840000; stroke-width:60; stroke-opacity:1; 
stroke-linecap:round; stroke-linejoin:round;">
<path d="M112630 33420
L112700 33440
L112730 33470
L112750 33520
L112750 33590
L112730 33640
L112700 33660
L112660 33690
L112460 33690
L112460 33180
L112630 33180
L112680 33200
L112700 33220
L112730 33270
L112730 33320
L112700 33370
L112680 33390
L112630 33420
L112460 33420
" />
</g>
<g style="fill:#840000; fill-opacity:0.0; 
stroke:#840000; stroke-width:100; stroke-opacity:1; 
stroke-linecap:round; stroke-linejoin:round;">
</g>
<g style="fill:#840000; fill-opacity:0.0; 
stroke:#840000; stroke-width:60; stroke-opacity:1; 
stroke-linecap:round; stroke-linejoin:round;">
<path d="M112750 53330
L112730 53350
L112660 53380
L112610 53380
L112530 53350
L112490 53300
L112460 53250
L112440 53160
L112440 53080
L112460 52990
L112490 52940
L112530 52890
L112610 52870
L112660 52870
L112730 52890
L112750 52910
" />
</g>
<g style="fill:#840000; fill-opacity:0.0; 
stroke:#840000; stroke-width:100; stroke-opacity:1; 
stroke-linecap:round; stroke-linejoin:round;">
</g>
<g style="fill:#840000; fill-opacity:0.0; 
stroke:#840000; stroke-width:60; stroke-opacity:1; 
stroke-linecap:round; stroke-linejoin:round;">
<path d="M112460 73060
L112460 72550
L112580 72550
L112660 72570
L112700 72620
L112730 72670
L112750 72760
L112750 72840
L112730 72930
L112700 72980
L112660 73030
L112580 73060
L112460 73060
" />
</g>
<g style="fill:#840000; fill-opacity:0.0; 
stroke:#840000; stroke-width:100; stroke-opacity:1; 
stroke-linecap:round; stroke-linejoin:round;">
</g>
<g style="fill:#840000; fill-opacity:0.0; 
stroke:#840000; stroke-width:60; stroke-opacity:1; 
stroke-linecap:round; stroke-linejoin:round;">
<path d="M78910 76290
L78910 75700
L79050 75700
L79130 75730
L79190 75790
L79210 75840
L79240 75950
L79240 76040
L79210 76150
L79190 76210
L79130 76260
L79050 76290
L78910 76290
" />
<path d="M79750 76290
L79750 75980
L79720 75930
L79660 75900
L79550 75900
L79500 75930
" />
<path d="M79750 76260
L79690 76290
L79550 76290
L79500 76260
L79470 76210
L79470 76150
L79500 76100
L79550 76070
L79690 76070
L79750 76040
" />
<path d="M79950 75900
L80170 75900
" />
<path d="M80030 75700
L80030 76210
L80060 76260
L80110 76290
L80170 76290
" />
<path d="M80590 76260
L80540 76290
L80420 76290
L80370 76260
L80340 76210
L80340 75980
L80370 75930
L80420 75900
L80540 75900
L80590 75930
L80620 75980
L80620 76040
L80340 76100
" />
<path d="M80870 76240
L80900 76260
L80870 76290
L80840 76260
L80870 76240
L80870 76290
" />
<path d="M80870 75930
L80900 75950
L80870 75980
L80840 75950
L80870 75930
L80870 75980
" />
</g>
<g style="fill:#840000; fill-opacity:0.0; 
stroke:#840000; stroke-width:100; stroke-opacity:1; 
stroke-linecap:round; stroke-linejoin:round;">
</g>
<g style="fill:#840000; fill-opacity:0.0; 
stroke:#840000; stroke-width:60; stroke-opacity:1; 
stroke-linecap:round; stroke-linejoin:round;">
<path d="M69690 76580
L112210 76580
" />
</g>
<g style="fill:#840000; fill-opacity:0.0; 
stroke:#840000; stroke-width:100; stroke-opacity:1; 
stroke-linecap:round; stroke-linejoin:round;">
</g>
<g style="fill:#840000; fill-opacity:0.0; 
stroke:#840000; stroke-width:60; stroke-opacity:1; 
stroke-linecap:round; stroke-linejoin:round;">
<path d="M70250 77390
L70250 76800
" />
<path d="M70580 77390
L70330 77050
" />
<path d="M70580 76800
L70250 77140
" />
<path d="M70840 77390
L70840 77000
" />
<path d="M70840 76800
L70810 76830
L70840 76860
L70860 76830
L70840 76800
L70840 76860
" />
<path d="M71450 77340
L71430 77360
L71340 77390
L71290 77390
L71200 77360
L71140 77310
L71120 77250
L71090 77140
L71090 77050
L71120 76940
L71140 76890
L71200 76830
L71290 76800
L71340 76800
L71430 76830
L71450 76860
" />
<path d="M71960 77390
L71960 77080
L71930 77030
L71880 77000
L71760 77000
L71710 77030
" />
<path d="M71960 77360
L71900 77390
L71760 77390
L71710 77360
L71680 77310
L71680 77250
L71710 77200
L71760 77170
L71900 77170
L71960 77140
" />
<path d="M72490 77390
L72490 76800
" />
<path d="M72490 77360
L72440 77390
L72320 77390
L72270 77360
L72240 77340
L72210 77280
L72210 77110
L72240 77050
L72270 77030
L72320 77000
L72440 77000
L72490 77030
" />
<path d="M73220 77080
L73420 77080
" />
<path d="M73500 77390
L73220 77390
L73220 76800
L73500 76800
" />
<path d="M73760 77340
L73790 77360
L73760 77390
L73730 77360
L73760 77340
L73760 77390
" />
<path d="M74040 77390
L74040 76800
L74180 76800
L74260 76830
L74320 76890
L74350 76940
L74380 77050
L74380 77140
L74350 77250
L74320 77310
L74260 77360
L74180 77390
L74040 77390
" />
<path d="M74630 77340
L74660 77360
L74630 77390
L74600 77360
L74630 77340
L74630 77390
" />
<path d="M74880 77220
L75160 77220
" />
<path d="M74830 77390
L75020 76800
L75220 77390
" />
<path d="M75420 77340
L75440 77360
L75420 77390
L75390 77360
L75420 77340
L75420 77390
" />
<path d="M76600 77390
L76600 76800
" />
<path d="M76650 77170
L76820 77390
" />
<path d="M76820 77000
L76600 77220
" />
<path d="M77070 77390
L77070 77000
" />
<path d="M77070 76800
L77040 76830
L77070 76860
L77100 76830
L77070 76800
L77070 76860
" />
<path d="M77610 77360
L77550 77390
L77440 77390
L77380 77360
L77350 77340
L77330 77280
L77330 77110
L77350 77050
L77380 77030
L77440 77000
L77550 77000
L77610 77030
" />
<path d="M78110 77390
L78110 77080
L78080 77030
L78030 77000
L77920 77000
L77860 77030
" />
<path d="M78110 77360
L78060 77390
L77920 77390
L77860 77360
L77830 77310
L77830 77250
L77860 77200
L77920 77170
L78060 77170
L78110 77140
" />
<path d="M78650 77390
L78650 76800
" />
<path d="M78650 77360
L78590 77390
L78480 77390
L78420 77360
L78390 77340
L78370 77280
L78370 77110
L78390 77050
L78420 77030
L78480 77000
L78590 77000
L78650 77030
" />
<path d="M79380 77000
L79380 77390
" />
<path d="M79380 77050
L79400 77030
L79460 77000
L79550 77000
L79600 77030
L79630 77080
L79630 77390
" />
<path d="M79990 77390
L79940 77360
L79910 77340
L79880 77280
L79880 77110
L79910 77050
L79940 77030
L79990 77000
L80080 77000
L80140 77030
L80160 77050
L80190 77110
L80190 77280
L80160 77340
L80140 77360
L80080 77390
L79990 77390
" />
<path d="M80440 77170
L80890 77170
" />
<path d="M81120 77000
L81260 77390
L81400 77000
" />
<path d="M81880 77360
L81820 77390
L81710 77390
L81650 77360
L81620 77340
L81600 77280
L81600 77110
L81620 77050
L81650 77030
L81710 77000
L81820 77000
L81880 77030
" />
<path d="M82100 77360
L82160 77390
L82270 77390
L82330 77360
L82350 77310
L82350 77280
L82330 77220
L82270 77200
L82190 77200
L82130 77170
L82100 77110
L82100 77080
L82130 77030
L82190 77000
L82270 77000
L82330 77030
" />
<path d="M82610 77170
L83060 77170
" />
<path d="M83250 77000
L83480 77000
" />
<path d="M83340 77390
L83340 76890
L83370 76830
L83420 76800
L83480 76800
" />
<path d="M83760 77390
L83700 77360
L83680 77340
L83650 77280
L83650 77110
L83680 77050
L83700 77030
L83760 77000
L83840 77000
L83900 77030
L83930 77050
L83960 77110
L83960 77280
L83930 77340
L83900 77360
L83840 77390
L83760 77390
" />
<path d="M84460 77000
L84460 77390
" />
<path d="M84210 77000
L84210 77310
L84240 77360
L84290 77390
L84380 77390
L84430 77360
L84460 77340
" />
<path d="M84740 77000
L84740 77390
" />
<path d="M84740 77050
L84770 77030
L84830 77000
L84910 77000
L84970 77030
L85000 77080
L85000 77390
" />
<path d="M85530 77390
L85530 76800
" />
<path d="M85530 77360
L85470 77390
L85360 77390
L85300 77360
L85280 77340
L85250 77280
L85250 77110
L85280 77050
L85300 77030
L85360 77000
L85470 77000
L85530 77030
" />
<path d="M85810 77170
L86260 77170
" />
<path d="M86480 76800
L86880 76800
L86630 77390
" />
<path d="M87360 77000
L87360 77390
" />
<path d="M87220 76770
L87070 77200
L87440 77200
" />
<path d="M87640 76860
L87660 76830
L87720 76800
L87860 76800
L87920 76830
L87950 76860
L87970 76910
L87970 76970
L87950 77050
L87610 77390
L87970 77390
" />
<path d="M88170 76800
L88540 76800
L88340 77030
L88420 77030
L88480 77050
L88510 77080
L88540 77140
L88540 77280
L88510 77340
L88480 77360
L88420 77390
L88250 77390
L88200 77360
L88170 77340
" />
<path d="M88750 76640
L89210 76640
" />
<path d="M89070 76800
L88790 76800
L88760 77080
L88790 77050
L88840 77030
L88990 77030
L89040 77050
L89070 77080
L89100 77140
L89100 77280
L89070 77340
L89040 77360
L88990 77390
L88840 77390
L88790 77360
L88760 77340
" />
<path d="M89210 76640
L89770 76640
" />
<path d="M89600 76800
L89490 76800
L89430 76830
L89410 76860
L89350 76940
L89320 77050
L89320 77280
L89350 77340
L89380 77360
L89430 77390
L89550 77390
L89600 77360
L89630 77340
L89660 77280
L89660 77140
L89630 77080
L89600 77050
L89550 77030
L89430 77030
L89380 77050
L89350 77080
L89320 77140
" />
<path d="M90170 77000
L90170 77390
" />
<path d="M89910 77000
L89910 77310
L89940 77360
L90000 77390
L90080 77390
L90140 77360
L90170 77340
" />
<path d="M90450 77390
L90450 76800
" />
<path d="M90450 77030
L90500 77000
L90610 77000
L90670 77030
L90700 77050
L90730 77110
L90730 77280
L90700 77340
L90670 77360
L90610 77390
L90500 77390
L90450 77360
" />
<path d="M91230 77000
L91230 77390
" />
<path d="M90980 77000
L90980 77310
L91010 77360
L91060 77390
L91150 77390
L91200 77360
L91230 77340
" />
<path d="M91510 77000
L91510 77390
" />
<path d="M91510 77050
L91540 77030
L91600 77000
L91680 77000
L91740 77030
L91770 77080
L91770 77390
" />
<path d="M91960 77000
L92190 77000
" />
<path d="M92050 76800
L92050 77310
L92080 77360
L92130 77390
L92190 77390
" />
<path d="M92640 77000
L92640 77390
" />
<path d="M92380 77000
L92380 77310
L92410 77360
L92470 77390
L92550 77390
L92610 77360
L92640 77340
" />
<path d="M93230 77390
L92890 77390
" />
<path d="M93060 77390
L93060 76800
L93000 76890
L92950 76940
L92890 76970
" />
<path d="M93730 76800
L93620 76800
L93560 76830
L93540 76860
L93480 76940
L93450 77050
L93450 77280
L93480 77340
L93510 77360
L93560 77390
L93680 77390
L93730 77360
L93760 77340
L93790 77280
L93790 77140
L93760 77080
L93730 77050
L93680 77030
L93560 77030
L93510 77050
L93480 77080
L93450 77140
" />
<path d="M94040 77340
L94070 77360
L94040 77390
L94010 77360
L94040 77340
L94040 77390
" />
<path d="M94440 76800
L94490 76800
L94550 76830
L94580 76860
L94600 76910
L94630 77030
L94630 77170
L94600 77280
L94580 77340
L94550 77360
L94490 77390
L94440 77390
L94380 77360
L94350 77340
L94320 77280
L94300 77170
L94300 77030
L94320 76910
L94350 76860
L94380 76830
L94440 76800
" />
<path d="M95140 77000
L95140 77390
" />
<path d="M95000 76770
L94860 77200
L95220 77200
" />
<path d="M95450 77340
L95480 77360
L95450 77390
L95420 77360
L95450 77340
L95450 77390
" />
<path d="M96040 77390
L95700 77390
" />
<path d="M95870 77390
L95870 76800
L95810 76890
L95760 76940
L95700 76970
" />
</g>
<g style="fill:#840000; fill-opacity:0.0; 
stroke:#840000; stroke-width:100; stroke-opacity:1; 
stroke-linecap:round; stroke-linejoin:round;">
</g>
<g style="fill:#840000; fill-opacity:0.0; 
stroke:#840000; stroke-width:60; stroke-opacity:1; 
stroke-linecap:round; stroke-linejoin:round;">
<path d="M69690 75400
L112210 75400
" />
</g>
<g style="fill:#840000; fill-opacity:0.0; 
stroke:#840000; stroke-width:100; stroke-opacity:1; 
stroke-linecap:round; stroke-linejoin:round;">
</g>
<g style="fill:#840000; fill-opacity:0.0; 
stroke:#840000; stroke-width:120; stroke-opacity:1; 
stroke-linecap:round; stroke-linejoin:round;">
<path d="M104090 76290
L103890 76010
" />
<path d="M103750 76290
L103750 75700
L103980 75700
L104030 75730
L104060 75760
L104090 75810
L104090 75900
L104060 75950
L104030 75980
L103980 76010
L103750 76010
" />
<path d="M104570 76260
L104510 76290
L104400 76290
L104340 76260
L104320 76210
L104320 75980
L104340 75930
L104400 75900
L104510 75900
L104570 75930
L104600 75980
L104600 76040
L104320 76100
" />
<path d="M104790 75900
L104930 76290
L105070 75900
" />
<path d="M105300 76240
L105330 76260
L105300 76290
L105270 76260
L105300 76240
L105300 76290
" />
<path d="M105300 75930
L105330 75950
L105300 75980
L105270 75950
L105300 75930
L105300 75980
" />
</g>
<g style="fill:#840000; fill-opacity:0.0; 
stroke:#840000; stroke-width:100; stroke-opacity:1; 
stroke-linecap:round; stroke-linejoin:round;">
</g>
<g style="fill:#840000; fill-opacity:0.0; 
stroke:#840000; stroke-width:60; stroke-opacity:1; 
stroke-linecap:round; stroke-linejoin:round;">
<path d="M70220 76260
L70300 76290
L70440 76290
L70500 76260
L70530 76240
L70550 76180
L70550 76120
L70530 76070
L70500 76040
L70440 76010
L70330 75980
L70270 75950
L70250 75930
L70220 75870
L70220 75810
L70250 75760
L70270 75730
L70330 75700
L70470 75700
L70550 75730
" />
<path d="M70810 76290
L70810 75900
" />
<path d="M70810 75700
L70780 75730
L70810 75760
L70840 75730
L70810 75700
L70810 75760
" />
<path d="M71030 75900
L71340 75900
L71030 76290
L71340 76290
" />
<path d="M71790 76260
L71730 76290
L71620 76290
L71570 76260
L71540 76210
L71540 75980
L71570 75930
L71620 75900
L71730 75900
L71790 75930
L71820 75980
L71820 76040
L71540 76100
" />
<path d="M72070 76240
L72100 76260
L72070 76290
L72040 76260
L72070 76240
L72070 76290
" />
<path d="M72070 75930
L72100 75950
L72070 75980
L72040 75950
L72070 75930
L72070 75980
" />
<path d="M72770 76120
L73060 76120
" />
<path d="M72720 76290
L72910 75700
L73110 76290
" />
<path d="M73560 75900
L73560 76290
" />
<path d="M73420 75670
L73280 76100
L73650 76100
" />
</g>
<g style="fill:#840000; fill-opacity:0.0; 
stroke:#840000; stroke-width:100; stroke-opacity:1; 
stroke-linecap:round; stroke-linejoin:round;">
</g>
<g style="fill:#840000; fill-opacity:0.0; 
stroke:#840000; stroke-width:60; stroke-opacity:1; 
stroke-linecap:round; stroke-linejoin:round;">
<path d="M103710 77390
L103710 76800
" />
<path d="M104240 77390
L104240 76800
" />
<path d="M104240 77360
L104180 77390
L104070 77390
L104010 77360
L103990 77340
L103960 77280
L103960 77110
L103990 77050
L104010 77030
L104070 77000
L104180 77000
L104240 77030
" />
<path d="M104520 77340
L104550 77360
L104520 77390
L104490 77360
L104520 77340
L104520 77390
" />
<path d="M104520 77030
L104550 77050
L104520 77080
L104490 77050
L104520 77030
L104520 77080
" />
<path d="M105560 77390
L105220 77390
" />
<path d="M105390 77390
L105390 76800
L105340 76890
L105280 76940
L105220 76970
" />
<path d="M106230 76770
L105730 77530
" />
<path d="M106740 77390
L106400 77390
" />
<path d="M106570 77390
L106570 76800
L106520 76890
L106460 76940
L106400 76970
" />
</g>
<g style="fill:#840000; fill-opacity:0.0; 
stroke:#840000; stroke-width:100; stroke-opacity:1; 
stroke-linecap:round; stroke-linejoin:round;">
</g>
<g style="fill:#840000; fill-opacity:0.0; 
stroke:#840000; stroke-width:60; stroke-opacity:1; 
stroke-linecap:round; stroke-linejoin:round;">
<path d="M69690 73820
L112210 73820
" />
</g>
<g style="fill:#840000; fill-opacity:0.0; 
stroke:#840000; stroke-width:100; stroke-opacity:1; 
stroke-linecap:round; stroke-linejoin:round;">
</g>
<g style="fill:#840000; fill-opacity:0.0; 
stroke:#840000; stroke-width:160; stroke-opacity:1; 
stroke-linecap:round; stroke-linejoin:round;">
<path d="M70360 74090
L70810 74090
" />
<path d="M70480 74880
L70580 74090
" />
<path d="M70970 74880
L71040 74360
" />
<path d="M71070 74090
L71030 74130
L71060 74170
L71110 74130
L71070 74090
L71060 74170
" />
<path d="M71300 74360
L71600 74360
" />
<path d="M71450 74090
L71360 74770
L71390 74840
L71460 74880
L71540 74880
" />
<path d="M71910 74880
L71840 74840
L71820 74770
L71900 74090
" />
<path d="M72520 74840
L72440 74880
L72290 74880
L72220 74840
L72190 74770
L72230 74470
L72280 74390
L72360 74360
L72510 74360
L72580 74390
L72610 74470
L72600 74540
L72210 74620
" />
<path d="M72900 74810
L72930 74840
L72890 74880
L72860 74840
L72900 74810
L72890 74880
" />
<path d="M72950 74390
L72990 74430
L72940 74470
L72910 74430
L72950 74390
L72940 74470
" />
</g>
<g style="fill:#840000; fill-opacity:0.0; 
stroke:#840000; stroke-width:100; stroke-opacity:1; 
stroke-linecap:round; stroke-linejoin:round;">
</g>
<g style="fill:#840000; fill-opacity:0.0; 
stroke:#840000; stroke-width:60; stroke-opacity:1; 
stroke-linecap:round; stroke-linejoin:round;">
<path d="M70440 73060
L70250 73060
" />
<path d="M70250 73370
L70250 72780
L70530 72780
" />
<path d="M70750 73370
L70750 72980
" />
<path d="M70750 72780
L70720 72810
L70750 72840
L70780 72810
L70750 72780
L70750 72840
" />
<path d="M71120 73370
L71060 73340
L71030 73290
L71030 72780
" />
<path d="M71570 73340
L71510 73370
L71400 73370
L71340 73340
L71310 73290
L71310 73060
L71340 73010
L71400 72980
L71510 72980
L71570 73010
L71590 73060
L71590 73120
L71310 73180
" />
<path d="M71850 73320
L71880 73340
L71850 73370
L71820 73340
L71850 73320
L71850 73370
" />
<path d="M71850 73010
L71880 73030
L71850 73060
L71820 73030
L71850 73010
L71850 73060
" />
<path d="M72580 73370
L72580 72780
L72800 72780
L72860 72810
L72890 72840
L72910 72890
L72910 72980
L72890 73030
L72860 73060
L72800 73090
L72580 73090
" />
<path d="M73170 73370
L73170 72980
" />
<path d="M73170 72780
L73140 72810
L73170 72840
L73200 72810
L73170 72780
L73170 72840
" />
<path d="M73700 73340
L73650 73370
L73530 73370
L73480 73340
L73450 73320
L73420 73260
L73420 73090
L73450 73030
L73480 73010
L73530 72980
L73650 72980
L73700 73010
" />
<path d="M73950 73370
L73950 72780
" />
<path d="M74010 73150
L74180 73370
" />
<path d="M74180 72980
L73950 73200
" />
<path d="M74680 72980
L74680 73370
" />
<path d="M74430 72980
L74430 73290
L74460 73340
L74520 73370
L74600 73370
L74660 73340
L74680 73320
" />
<path d="M74970 72980
L74970 73570
" />
<path d="M74970 73010
L75020 72980
L75130 72980
L75190 73010
L75220 73030
L75250 73090
L75250 73260
L75220 73320
L75190 73340
L75130 73370
L75020 73370
L74970 73340
" />
<path d="M75440 72780
L75580 73370
L75700 72950
L75810 73370
L75950 72780
" />
<path d="M76170 73370
L76170 72980
" />
<path d="M76170 72780
L76150 72810
L76170 72840
L76200 72810
L76170 72780
L76170 72840
" />
<path d="M76450 73370
L76450 72980
" />
<path d="M76450 73090
L76480 73030
L76510 73010
L76570 72980
L76620 72980
" />
<path d="M76820 73370
L76820 72980
" />
<path d="M76820 72780
L76790 72810
L76820 72840
L76850 72810
L76820 72780
L76820 72840
" />
<path d="M77100 72980
L77100 73370
" />
<path d="M77100 73030
L77130 73010
L77190 72980
L77270 72980
L77330 73010
L77350 73060
L77350 73370
" />
<path d="M77890 72980
L77890 73460
L77860 73510
L77830 73540
L77780 73570
L77690 73570
L77630 73540
" />
<path d="M77890 73340
L77830 73370
L77720 73370
L77660 73340
L77630 73320
L77610 73260
L77610 73090
L77630 73030
L77660 73010
L77720 72980
L77830 72980
L77890 73010
" />
<path d="M78170 73320
L78200 73340
L78170 73370
L78140 73340
L78170 73320
L78170 73370
" />
<path d="M78420 73340
L78480 73370
L78590 73370
L78650 73340
L78670 73290
L78670 73260
L78650 73200
L78590 73180
L78510 73180
L78450 73150
L78420 73090
L78420 73060
L78450 73010
L78510 72980
L78590 72980
L78650 73010
" />
<path d="M79180 73340
L79120 73370
L79010 73370
L78960 73340
L78930 73320
L78900 73260
L78900 73090
L78930 73030
L78960 73010
L79010 72980
L79120 72980
L79180 73010
" />
<path d="M79430 73370
L79430 72780
" />
<path d="M79690 73370
L79690 73060
L79660 73010
L79600 72980
L79520 72980
L79460 73010
L79430 73030
" />
</g>
<g style="fill:#840000; fill-opacity:0.0; 
stroke:#840000; stroke-width:100; stroke-opacity:1; 
stroke-linecap:round; stroke-linejoin:round;">
</g>
<g style="fill:#840000; fill-opacity:0.0; 
stroke:#840000; stroke-width:60; stroke-opacity:1; 
stroke-linecap:round; stroke-linejoin:round;">
<path d="M69690 71460
L112210 71460
" />
</g>
<g style="fill:#840000; fill-opacity:0.0; 
stroke:#840000; stroke-width:100; stroke-opacity:1; 
stroke-linecap:round; stroke-linejoin:round;">
</g>
<g style="fill:#840000; fill-opacity:0.0; 
stroke:#840000; stroke-width:60; stroke-opacity:1; 
stroke-linecap:round; stroke-linejoin:round;">
<path d="M70220 72280
L70300 72310
L70440 72310
L70500 72280
L70530 72260
L70550 72200
L70550 72140
L70530 72090
L70500 72060
L70440 72030
L70330 72000
L70270 71970
L70250 71950
L70220 71890
L70220 71830
L70250 71780
L70270 71750
L70330 71720
L70470 71720
L70550 71750
" />
<path d="M70810 72310
L70810 71720
" />
<path d="M71060 72310
L71060 72000
L71030 71950
L70980 71920
L70890 71920
L70840 71950
L70810 71970
" />
<path d="M71570 72280
L71510 72310
L71400 72310
L71340 72280
L71310 72230
L71310 72000
L71340 71950
L71400 71920
L71510 71920
L71570 71950
L71590 72000
L71590 72060
L71310 72120
" />
<path d="M72070 72280
L72020 72310
L71900 72310
L71850 72280
L71820 72230
L71820 72000
L71850 71950
L71900 71920
L72020 71920
L72070 71950
L72100 72000
L72100 72060
L71820 72120
" />
<path d="M72270 71920
L72490 71920
" />
<path d="M72350 71720
L72350 72230
L72380 72280
L72440 72310
L72490 72310
" />
<path d="M72690 72260
L72720 72280
L72690 72310
L72660 72280
L72690 72260
L72690 72310
" />
<path d="M72690 71950
L72720 71970
L72690 72000
L72660 71970
L72690 71950
L72690 72000
" />
<path d="M73840 71690
L73340 72450
" />
</g>
<g style="fill:#840000; fill-opacity:0.0; 
stroke:#840000; stroke-width:100; stroke-opacity:1; 
stroke-linecap:round; stroke-linejoin:round;">
</g>
<g style="fill:#840000; fill-opacity:0.0; 
stroke:#840000; stroke-width:60; stroke-opacity:1; 
stroke-linecap:round; stroke-linejoin:round;">
<path d="M77560 75400
L77560 76580
" />
</g>
<g style="fill:#840000; fill-opacity:0.0; 
stroke:#840000; stroke-width:100; stroke-opacity:1; 
stroke-linecap:round; stroke-linejoin:round;">
</g>
<g style="fill:#840000; fill-opacity:0.0; 
stroke:#840000; stroke-width:60; stroke-opacity:1; 
stroke-linecap:round; stroke-linejoin:round;">
<path d="M102760 75400
L102760 77960
" />
</g>
<g style="fill:#840000; fill-opacity:0.0; 
stroke:#840000; stroke-width:0; stroke-opacity:1; 
stroke-linecap:round; stroke-linejoin:round;">
</g>
<g style="fill:#840000; fill-opacity:0.0; 
stroke:#840000; stroke-width:40; stroke-opacity:1; 
stroke-linecap:round; stroke-linejoin:round;">
<path d="M27900.4 32300 A250 250 0.0 0 0 27900.4 31800 " />
<path d="M27900.4 31800 A250 250 0.0 0 0 27900.4 31300 " />
<path d="M27900.4 31300 A250 250 0.0 0 0 27900.4 30800 " />
<path d="M27900.4 30800 A250 250 0.0 0 0 27900.4 30300 " />
<path d="M27900 30300
L27900 29800
" />
<path d="M27900 32300
L27900 32800
" />
</g>
<g style="fill:#008484; fill-opacity:0.0; 
stroke:#008484; stroke-width:40; stroke-opacity:1; 
stroke-linecap:round; stroke-linejoin:round;">
<path d="M27640 33350
L27140 33350
L27140 33160
L27170 33110
L27190 33090
L27240 33070
L27310 33070
L27360 33090
L27380 33110
L27400 33160
L27400 33350
" />
<path d="M27640 32850
L27310 32850
" />
<path d="M27140 32850
L27170 32870
L27190 32850
L27170 32830
L27140 32850
L27190 32850
" />
<path d="M27620 32400
L27640 32450
L27640 32540
L27620 32590
L27590 32610
L27550 32640
L27400 32640
L27360 32610
L27330 32590
L27310 32540
L27310 32450
L27330 32400
" />
<path d="M27640 32180
L27140 32180
" />
<path d="M27450 32140
L27640 31990
" />
<path d="M27310 31990
L27500 32180
" />
<path d="M27310 31570
L27640 31570
" />
<path d="M27310 31780
L27570 31780
L27620 31760
L27640 31710
L27640 31640
L27620 31590
L27590 31570
" />
<path d="M27310 31330
L27810 31330
" />
<path d="M27330 31330
L27310 31280
L27310 31180
L27330 31140
L27360 31110
L27400 31090
L27550 31090
L27590 31110
L27620 31140
L27640 31180
L27640 31280
L27620 31330
" />
<path d="M27590 30210
L27620 30230
L27640 30300
L27640 30350
L27620 30420
L27570 30470
L27520 30490
L27430 30520
L27360 30520
L27260 30490
L27210 30470
L27170 30420
L27140 30350
L27140 30300
L27170 30230
L27190 30210
" />
<path d="M27640 29920
L27620 29970
L27590 29990
L27550 30020
L27400 30020
L27360 29990
L27330 29970
L27310 29920
L27310 29850
L27330 29800
L27360 29780
L27400 29760
L27550 29760
L27590 29780
L27620 29800
L27640 29850
L27640 29920
" />
<path d="M27640 29540
L27310 29540
" />
<path d="M27140 29540
L27170 29570
L27190 29540
L27170 29520
L27140 29540
L27190 29540
" />
<path d="M27640 29230
L27620 29280
L27570 29300
L27140 29300
" />
</g>
<g style="fill:#008484; fill-opacity:0.0; 
stroke:#008484; stroke-width:0; stroke-opacity:1; 
stroke-linecap:round; stroke-linejoin:round;">
</g>
<g style="fill:#840000; fill-opacity:0.0; 
stroke:#840000; stroke-width:0; stroke-opacity:1; 
stroke-linecap:round; stroke-linejoin:round;">
</g>
<g style="fill:#840000; fill-opacity:0.0; 
stroke:#840000; stroke-width:40; stroke-opacity:1; 
stroke-linecap:round; stroke-linejoin:round;">
<polyline fill="none;"
points="32600,32800
32600,33300
33100,33300
32600,33800
32100,33300
32600,33300
" /> 
</g>
<g style="fill:#840000; fill-opacity:0.0; 
stroke:#840000; stroke-width:0; stroke-opacity:1; 
stroke-linecap:round; stroke-linejoin:round;">
</g>
<g style="fill:#840000; fill-opacity:0.0; 
stroke:#840000; stroke-width:100; stroke-opacity:1; 
stroke-linecap:round; stroke-linejoin:round;">
<rect x="30000" y="30300" width="800" height="2000" rx="0" />
</g>
<g style="fill:#840000; fill-opacity:0.0; 
stroke:#840000; stroke-width:40; stroke-opacity:1; 
stroke-linecap:round; stroke-linejoin:round;">
<path d="M30400 30300
L30400 29800
" />
<path d="M30400 32300
L30400 32800
" />
</g>
<g style="fill:#008484; fill-opacity:0.0; 
stroke:#008484; stroke-width:40; stroke-opacity:1; 
stroke-linecap:round; stroke-linejoin:round;">
<path d="M31470 31040
L31230 31040
L31210 31280
L31230 31260
L31280 31230
L31400 31230
L31440 31260
L31470 31280
L31490 31330
L31490 31450
L31470 31490
L31440 31520
L31400 31540
L31280 31540
L31230 31520
L31210 31490
" />
<path d="M31800 31040
L31850 31040
L31900 31070
L31920 31090
L31940 31140
L31970 31230
L31970 31350
L31940 31450
L31920 31490
L31900 31520
L31850 31540
L31800 31540
L31750 31520
L31730 31490
L31710 31450
L31680 31350
L31680 31230
L31710 31140
L31730 31090
L31750 31070
L31800 31040
" />
<path d="M32280 31040
L32330 31040
L32370 31070
L32400 31090
L32420 31140
L32440 31230
L32440 31350
L32420 31450
L32400 31490
L32370 31520
L32330 31540
L32280 31540
L32230 31520
L32210 31490
L32180 31450
L32160 31350
L32160 31230
L32180 31140
L32210 31090
L32230 31070
L32280 31040
" />
<path d="M32660 31540
L32660 31040
" />
<path d="M32940 31540
L32730 31260
" />
<path d="M32940 31040
L32660 31330
" />
</g>
<g style="fill:#008400; fill-opacity:0.0; 
stroke:#008400; stroke-width:40; stroke-opacity:1; 
stroke-linecap:round; stroke-linejoin:round;">
<path d="M27900 32800
L30400 32800
" />
<path d="M30400 32800
L32600 32800
" />
</g>
<g style="fill:#008400; fill-opacity:0.0; 
stroke:#008400; stroke-width:0; stroke-opacity:1; 
stroke-linecap:round; stroke-linejoin:round;">
</g>
<g style="fill:#008400; fill-opacity:1.0; 
stroke:#008400; stroke-width:100; stroke-opacity:1; 
stroke-linecap:round; stroke-linejoin:round;">
<circle cx="30400" cy="32800" r="200" /> 
</g>
<g style="fill:#008400; fill-opacity:1.0; 
stroke:#008400; stroke-width:40; stroke-opacity:1; 
stroke-linecap:round; stroke-linejoin:round;">
</g>
<g style="fill:#008400; fill-opacity:0.0; 
stroke:#008400; stroke-width:40; stroke-opacity:1; 
stroke-linecap:round; stroke-linejoin:round;">
<path d="M27900 29800
L30400 29800
" />
<path d="M30400 29800
L32900 29800
" />
</g>
<g style="fill:#008400; fill-opacity:0.0; 
stroke:#008400; stroke-width:0; stroke-opacity:1; 
stroke-linecap:round; stroke-linejoin:round;">
</g>
<g style="fill:#008400; fill-opacity:1.0; 
stroke:#008400; stroke-width:100; stroke-opacity:1; 
stroke-linecap:round; stroke-linejoin:round;">
<circle cx="30400" cy="29800" r="200" /> 
</g>
<g style="fill:#008400; fill-opacity:1.0; 
stroke:#008400; stroke-width:40; stroke-opacity:1; 
stroke-linecap:round; stroke-linejoin:round;">
</g>
<g style="fill:#000000; fill-opacity:0.0; 
stroke:#000000; stroke-width:40; stroke-opacity:1; 
stroke-linecap:round; stroke-linejoin:round;">
<path d="M33030 29520
L33320 29520
" />
<path d="M32970 29690
L33170 29090
L33370 29690
" />
<path d="M33570 29690
L33570 29290
" />
<path d="M33570 29340
L33600 29320
L33660 29290
L33740 29290
L33800 29320
L33830 29370
L33830 29690
" />
<path d="M33830 29370
L33860 29320
L33920 29290
L34000 29290
L34060 29320
L34090 29370
L34090 29690
" />
<path d="M34370 29290
L34370 29890
" />
<path d="M34370 29320
L34430 29290
L34540 29290
L34600 29320
L34630 29340
L34660 29400
L34660 29570
L34630 29630
L34600 29660
L34540 29690
L34430 29690
L34370 29660
" />
<path d="M34920 29690
L34920 29090
" />
<path d="M35200 29290
L35200 29690
" />
<path d="M35200 29340
L35230 29320
L35290 29290
L35370 29290
L35430 29320
L35460 29370
L35460 29690
" />
<path d="M35740 29290
L35740 29890
" />
<path d="M35740 29320
L35800 29290
L35920 29290
L35970 29320
L36000 29340
L36030 29400
L36030 29570
L36000 29630
L35970 29660
L35920 29690
L35800 29690
L35740 29660
" />
<path d="M36540 29290
L36540 29690
" />
<path d="M36290 29290
L36290 29600
L36320 29660
L36370 29690
L36460 29690
L36520 29660
L36540 29630
" />
<path d="M36740 29290
L36970 29290
" />
<path d="M36830 29090
L36830 29600
L36860 29660
L36920 29690
L36970 29690
" />
</g>
<g style="fill:#0000C2; fill-opacity:0.0; 
stroke:#0000C2; stroke-width:40; stroke-opacity:1; 
stroke-linecap:round; stroke-linejoin:round;">
<path d="M33520 31090
L33060 31260
L33520 31430
" />
<path d="M33800 31260
L34260 31260
" />
<path d="M34940 30890
L35090 31490
L35200 31060
L35320 31490
L35460 30890
" />
<path d="M35690 31490
L35690 30890
" />
<path d="M35940 31490
L35940 31170
L35920 31120
L35860 31090
L35770 31090
L35720 31120
L35690 31140
" />
<path d="M36490 31490
L36490 31170
L36460 31120
L36400 31090
L36290 31090
L36230 31120
" />
<path d="M36490 31460
L36430 31490
L36290 31490
L36230 31460
L36200 31400
L36200 31340
L36230 31290
L36290 31260
L36430 31260
L36490 31230
" />
<path d="M36690 31090
L36920 31090
" />
<path d="M36770 30890
L36770 31400
L36800 31460
L36860 31490
L36920 31490
" />
<path d="M37570 31490
L37570 31090
" />
<path d="M37570 30890
L37540 30920
L37570 30940
L37600 30920
L37570 30890
L37570 30940
" />
<path d="M37830 31460
L37890 31490
L38000 31490
L38060 31460
L38090 31400
L38090 31370
L38060 31320
L38000 31290
L37920 31290
L37860 31260
L37830 31200
L37830 31170
L37860 31120
L37920 31090
L38000 31090
L38060 31120
" />
<path d="M38720 31090
L38940 31090
" />
<path d="M38800 30890
L38800 31400
L38830 31460
L38890 31490
L38940 31490
" />
<path d="M39140 31490
L39140 30890
" />
<path d="M39400 31490
L39400 31170
L39370 31120
L39320 31090
L39230 31090
L39170 31120
L39140 31140
" />
<path d="M39920 31460
L39860 31490
L39740 31490
L39690 31460
L39660 31400
L39660 31170
L39690 31120
L39740 31090
L39860 31090
L39920 31120
L39940 31170
L39940 31230
L39660 31290
" />
<path d="M40890 31460
L40830 31490
L40720 31490
L40660 31460
L40630 31400
L40630 31170
L40660 31120
L40720 31090
L40830 31090
L40890 31120
L40920 31170
L40920 31230
L40630 31290
" />
<path d="M41090 31090
L41320 31090
" />
<path d="M41170 31490
L41170 30970
L41200 30920
L41260 30890
L41320 30890
" />
<path d="M41430 31090
L41660 31090
" />
<path d="M41520 31490
L41520 30970
L41540 30920
L41600 30890
L41660 30890
" />
<path d="M42090 31460
L42030 31490
L41920 31490
L41860 31460
L41830 31400
L41830 31170
L41860 31120
L41920 31090
L42030 31090
L42090 31120
L42120 31170
L42120 31230
L41830 31290
" />
<path d="M42630 31460
L42570 31490
L42460 31490
L42400 31460
L42370 31430
L42340 31370
L42340 31200
L42370 31140
L42400 31120
L42460 31090
L42570 31090
L42630 31120
" />
<path d="M42800 31090
L43030 31090
" />
<path d="M42890 30890
L42890 31400
L42920 31460
L42970 31490
L43030 31490
" />
<path d="M43260 31460
L43260 31490
L43230 31540
L43200 31570
" />
<path d="M43970 31490
L43970 31090
" />
<path d="M43970 30890
L43940 30920
L43970 30940
L44000 30920
L43970 30890
L43970 30940
" />
<path d="M44170 31090
L44400 31090
" />
<path d="M44260 31490
L44260 30970
L44290 30920
L44340 30890
L44400 30890
" />
<path d="M45320 31490
L45320 31170
L45290 31120
L45230 31090
L45120 31090
L45060 31120
" />
<path d="M45320 31460
L45260 31490
L45120 31490
L45060 31460
L45030 31400
L45030 31340
L45060 31290
L45120 31260
L45260 31260
L45320 31230
" />
<path d="M45600 31090
L45600 31490
" />
<path d="M45600 31140
L45630 31120
L45690 31090
L45770 31090
L45830 31120
L45860 31170
L45860 31490
" />
<path d="M46090 31090
L46230 31490
" />
<path d="M46370 31090
L46230 31490
L46170 31630
L46140 31660
L46090 31690
" />
<path d="M46630 31460
L46630 31490
L46600 31540
L46570 31570
" />
<path d="M35430 32390
L35370 32360
L35340 32330
L35320 32270
L35320 32100
L35340 32040
L35370 32020
L35430 31990
L35520 31990
L35570 32020
L35600 32040
L35630 32100
L35630 32270
L35600 32330
L35570 32360
L35520 32390
L35430 32390
" />
<path d="M35800 31990
L36030 31990
" />
<path d="M35890 32390
L35890 31870
L35920 31820
L35970 31790
L36030 31790
" />
<path d="M36600 31990
L36830 31990
" />
<path d="M36690 31790
L36690 32300
L36720 32360
L36770 32390
L36830 32390
" />
<path d="M37030 32390
L37030 31790
" />
<path d="M37290 32390
L37290 32070
L37260 32020
L37200 31990
L37120 31990
L37060 32020
L37030 32040
" />
<path d="M37570 32390
L37570 31990
" />
<path d="M37570 31790
L37540 31820
L37570 31840
L37600 31820
L37570 31790
L37570 31840
" />
<path d="M37830 32360
L37890 32390
L38000 32390
L38060 32360
L38090 32300
L38090 32270
L38060 32220
L38000 32190
L37920 32190
L37860 32160
L37830 32100
L37830 32070
L37860 32020
L37920 31990
L38000 31990
L38060 32020
" />
<path d="M38800 32390
L38800 31990
" />
<path d="M38800 32100
L38830 32040
L38860 32020
L38920 31990
L38970 31990
" />
<path d="M39400 32360
L39340 32390
L39230 32390
L39170 32360
L39140 32300
L39140 32070
L39170 32020
L39230 31990
L39340 31990
L39400 32020
L39430 32070
L39430 32130
L39140 32190
" />
<path d="M39660 32360
L39720 32390
L39830 32390
L39890 32360
L39920 32300
L39920 32270
L39890 32220
L39830 32190
L39740 32190
L39690 32160
L39660 32100
L39660 32070
L39690 32020
L39740 31990
L39830 31990
L39890 32020
" />
<path d="M40170 32390
L40170 31990
" />
<path d="M40170 31790
L40140 31820
L40170 31840
L40200 31820
L40170 31790
L40170 31840
" />
<path d="M40430 32360
L40490 32390
L40600 32390
L40660 32360
L40690 32300
L40690 32270
L40660 32220
L40600 32190
L40520 32190
L40460 32160
L40430 32100
L40430 32070
L40460 32020
L40520 31990
L40600 31990
L40660 32020
" />
<path d="M40860 31990
L41090 31990
" />
<path d="M40940 31790
L40940 32300
L40970 32360
L41030 32390
L41090 32390
" />
<path d="M41370 32390
L41320 32360
L41290 32330
L41260 32270
L41260 32100
L41290 32040
L41320 32020
L41370 31990
L41460 31990
L41520 32020
L41540 32040
L41570 32100
L41570 32270
L41540 32330
L41520 32360
L41460 32390
L41370 32390
" />
<path d="M41830 32390
L41830 31990
" />
<path d="M41830 32100
L41860 32040
L41890 32020
L41940 31990
L42000 31990
" />
<path d="M42290 32330
L42320 32360
L42290 32390
L42260 32360
L42290 32330
L42290 32390
" />
<path d="M42170 31820
L42230 31790
L42370 31790
L42430 31820
L42460 31870
L42460 31930
L42430 31990
L42400 32020
L42340 32040
L42320 32070
L42290 32130
L42290 32160
" />
</g>
<g style="fill:#0000C2; fill-opacity:0.0; 
stroke:#0000C2; stroke-width:0; stroke-opacity:1; 
stroke-linecap:round; stroke-linejoin:round;">
</g>
<g style="fill:#840000; fill-opacity:0.0; 
stroke:#840000; stroke-width:0; stroke-opacity:1; 
stroke-linecap:round; stroke-linejoin:round;">
</g>
<g style="fill:#840000; fill-opacity:0.0; 
stroke:#840000; stroke-width:100; stroke-opacity:1; 
stroke-linecap:round; stroke-linejoin:round;">
<rect x="53100" y="24800" width="2000" height="800" rx="0" />
</g>
<g style="fill:#840000; fill-opacity:0.0; 
stroke:#840000; stroke-width:40; stroke-opacity:1; 
stroke-linecap:round; stroke-linejoin:round;">
<polyline fill="none;"
points="54100,26200
54100,25800
" /> 
</g>
<g style="fill:#840000; fill-opacity:1.0; 
stroke:#840000; stroke-width:40; stroke-opacity:1; 
stroke-linecap:round; stroke-linejoin:round;">
<polyline style="fill-rule:evenodd;"
points="54100,25650
54300,26100
53900,26100
" /> 
</g>
<g style="fill:#840000; fill-opacity:0.0; 
stroke:#840000; stroke-width:40; stroke-opacity:1; 
stroke-linecap:round; stroke-linejoin:round;">
<path d="M55100 25200
L55600 25200
" />
<path d="M54100 26200
L54100 26700
" />
<path d="M53100 25200
L52600 25200
" />
</g>
<g style="fill:#008484; fill-opacity:0.0; 
stroke:#008484; stroke-width:40; stroke-opacity:1; 
stroke-linecap:round; stroke-linejoin:round;">
<path d="M53600 24940
L53360 24940
L53330 25180
L53360 25160
L53400 25130
L53520 25130
L53570 25160
L53600 25180
L53620 25230
L53620 25350
L53600 25390
L53570 25420
L53520 25440
L53400 25440
L53360 25420
L53330 25390
" />
<path d="M53930 24940
L53980 24940
L54020 24970
L54050 24990
L54070 25040
L54100 25130
L54100 25250
L54070 25350
L54050 25390
L54020 25420
L53980 25440
L53930 25440
L53880 25420
L53860 25390
L53830 25350
L53810 25250
L53810 25130
L53830 25040
L53860 24990
L53880 24970
L53930 24940
" />
<path d="M54400 24940
L54450 24940
L54500 24970
L54520 24990
L54550 25040
L54570 25130
L54570 25250
L54550 25350
L54520 25390
L54500 25420
L54450 25440
L54400 25440
L54360 25420
L54330 25390
L54310 25350
L54290 25250
L54290 25130
L54310 25040
L54330 24990
L54360 24970
L54400 24940
" />
<path d="M54790 25440
L54790 24940
" />
<path d="M55070 25440
L54860 25160
" />
<path d="M55070 24940
L54790 25230
" />
<path d="M55670 25440
L55670 24940
L55860 24940
L55900 24970
L55930 24990
L55950 25040
L55950 25110
L55930 25160
L55900 25180
L55860 25200
L55670 25200
" />
<path d="M56260 24940
L56360 24940
L56400 24970
L56450 25010
L56480 25110
L56480 25270
L56450 25370
L56400 25420
L56360 25440
L56260 25440
L56210 25420
L56170 25370
L56140 25270
L56140 25110
L56170 25010
L56210 24970
L56260 24940
" />
<path d="M56620 24940
L56900 24940
" />
<path d="M56760 25440
L56760 24940
" />
</g>
<g style="fill:#008484; fill-opacity:0.0; 
stroke:#008484; stroke-width:0; stroke-opacity:1; 
stroke-linecap:round; stroke-linejoin:round;">
</g>
<g style="fill:#840000; fill-opacity:0.0; 
stroke:#840000; stroke-width:0; stroke-opacity:1; 
stroke-linecap:round; stroke-linejoin:round;">
</g>
<g style="fill:#840000; fill-opacity:0.0; 
stroke:#840000; stroke-width:100; stroke-opacity:1; 
stroke-linecap:round; stroke-linejoin:round;">
<rect x="53100" y="28800" width="2000" height="800" rx="0" />
</g>
<g style="fill:#840000; fill-opacity:0.0; 
stroke:#840000; stroke-width:40; stroke-opacity:1; 
stroke-linecap:round; stroke-linejoin:round;">
<polyline fill="none;"
points="54100,28200
54100,28600
" /> 
</g>
<g style="fill:#840000; fill-opacity:1.0; 
stroke:#840000; stroke-width:40; stroke-opacity:1; 
stroke-linecap:round; stroke-linejoin:round;">
<polyline style="fill-rule:evenodd;"
points="54100,28750
53900,28300
54300,28300
" /> 
</g>
<g style="fill:#840000; fill-opacity:0.0; 
stroke:#840000; stroke-width:40; stroke-opacity:1; 
stroke-linecap:round; stroke-linejoin:round;">
<path d="M53100 29200
L52600 29200
" />
<path d="M54100 28200
L54100 27700
" />
<path d="M55100 29200
L55600 29200
" />
</g>
<g style="fill:#008484; fill-opacity:0.0; 
stroke:#008484; stroke-width:40; stroke-opacity:1; 
stroke-linecap:round; stroke-linejoin:round;">
<path d="M53490 28890
L53250 28890
L53220 29130
L53250 29110
L53290 29080
L53410 29080
L53460 29110
L53490 29130
L53510 29180
L53510 29300
L53490 29340
L53460 29370
L53410 29390
L53290 29390
L53250 29370
L53220 29340
" />
<path d="M53820 28890
L53870 28890
L53910 28920
L53940 28940
L53960 28990
L53990 29080
L53990 29200
L53960 29300
L53940 29340
L53910 29370
L53870 29390
L53820 29390
L53770 29370
L53750 29340
L53720 29300
L53700 29200
L53700 29080
L53720 28990
L53750 28940
L53770 28920
L53820 28890
" />
<path d="M54290 28890
L54340 28890
L54390 28920
L54410 28940
L54440 28990
L54460 29080
L54460 29200
L54440 29300
L54410 29340
L54390 29370
L54340 29390
L54290 29390
L54250 29370
L54220 29340
L54200 29300
L54180 29200
L54180 29080
L54200 28990
L54220 28940
L54250 28920
L54290 28890
" />
<path d="M54680 29390
L54680 28890
" />
<path d="M54960 29390
L54750 29110
" />
<path d="M54960 28890
L54680 29180
" />
<path d="M55560 29390
L55560 28890
L55750 28890
L55790 28920
L55820 28940
L55840 28990
L55840 29060
L55820 29110
L55790 29130
L55750 29150
L55560 29150
" />
<path d="M56150 28890
L56250 28890
L56290 28920
L56340 28960
L56370 29060
L56370 29220
L56340 29320
L56290 29370
L56250 29390
L56150 29390
L56100 29370
L56060 29320
L56030 29220
L56030 29060
L56060 28960
L56100 28920
L56150 28890
" />
<path d="M56510 28890
L56790 28890
" />
<path d="M56650 29390
L56650 28890
" />
</g>
<g style="fill:#008484; fill-opacity:0.0; 
stroke:#008484; stroke-width:0; stroke-opacity:1; 
stroke-linecap:round; stroke-linejoin:round;">
</g>
<g style="fill:#840000; fill-opacity:0.0; 
stroke:#840000; stroke-width:0; stroke-opacity:1; 
stroke-linecap:round; stroke-linejoin:round;">
</g>
<g style="fill:#840000; fill-opacity:0.0; 
stroke:#840000; stroke-width:40; stroke-opacity:1; 
stroke-linecap:round; stroke-linejoin:round;">
<path d="M51200.4 24700 A250 250 0.0 0 0 51200.4 24200 " />
<path d="M51200.4 24200 A250 250 0.0 0 0 51200.4 23700 " />
<path d="M51200.4 23700 A250 250 0.0 0 0 51200.4 23200 " />
<path d="M51200.4 23200 A250 250 0.0 0 0 51200.4 22700 " />
<path d="M51200 22700
L51200 22200
" />
<path d="M51200 24700
L51200 25200
" />
</g>
<g style="fill:#008484; fill-opacity:0.0; 
stroke:#008484; stroke-width:40; stroke-opacity:1; 
stroke-linecap:round; stroke-linejoin:round;">
<path d="M50840 24750
L50340 24750
L50340 24560
L50370 24520
L50390 24490
L50440 24470
L50510 24470
L50560 24490
L50580 24520
L50600 24560
L50600 24750
" />
<path d="M50840 24250
L50510 24250
" />
<path d="M50340 24250
L50370 24280
L50390 24250
L50370 24230
L50340 24250
L50390 24250
" />
<path d="M50820 23800
L50840 23850
L50840 23940
L50820 23990
L50790 24020
L50750 24040
L50600 24040
L50560 24020
L50530 23990
L50510 23940
L50510 23850
L50530 23800
" />
<path d="M50840 23590
L50340 23590
" />
<path d="M50650 23540
L50840 23400
" />
<path d="M50510 23400
L50700 23590
" />
<path d="M50510 22970
L50840 22970
" />
<path d="M50510 23180
L50770 23180
L50820 23160
L50840 23110
L50840 23040
L50820 22990
L50790 22970
" />
<path d="M50510 22730
L51010 22730
" />
<path d="M50530 22730
L50510 22680
L50510 22590
L50530 22540
L50560 22520
L50600 22490
L50750 22490
L50790 22520
L50820 22540
L50840 22590
L50840 22680
L50820 22730
" />
</g>
<g style="fill:#008484; fill-opacity:0.0; 
stroke:#008484; stroke-width:0; stroke-opacity:1; 
stroke-linecap:round; stroke-linejoin:round;">
</g>
<g style="fill:#840000; fill-opacity:0.0; 
stroke:#840000; stroke-width:0; stroke-opacity:1; 
stroke-linecap:round; stroke-linejoin:round;">
</g>
<g style="fill:#840000; fill-opacity:0.0; 
stroke:#840000; stroke-width:40; stroke-opacity:1; 
stroke-linecap:round; stroke-linejoin:round;">
<polyline fill="none;"
points="55600,32200
55600,32700
56100,32700
55600,33200
55100,32700
55600,32700
" /> 
</g>
<g style="fill:#008400; fill-opacity:0.0; 
stroke:#008400; stroke-width:40; stroke-opacity:1; 
stroke-linecap:round; stroke-linejoin:round;">
<path d="M51200 25200
L52600 25200
" />
<path d="M51200 29200
L52600 29200
" />
<path d="M55600 32200
L51200 32200
" />
<path d="M55600 22200
L55600 25200
" />
<path d="M55600 25200
L55600 29200
" />
<path d="M55600 29200
L55600 32200
" />
</g>
<g style="fill:#008400; fill-opacity:0.0; 
stroke:#008400; stroke-width:0; stroke-opacity:1; 
stroke-linecap:round; stroke-linejoin:round;">
</g>
<g style="fill:#008400; fill-opacity:1.0; 
stroke:#008400; stroke-width:100; stroke-opacity:1; 
stroke-linecap:round; stroke-linejoin:round;">
<circle cx="55600" cy="32200" r="200" /> 
</g>
<g style="fill:#008400; fill-opacity:1.0; 
stroke:#008400; stroke-width:0; stroke-opacity:1; 
stroke-linecap:round; stroke-linejoin:round;">
</g>
<g style="fill:#008400; fill-opacity:1.0; 
stroke:#008400; stroke-width:100; stroke-opacity:1; 
stroke-linecap:round; stroke-linejoin:round;">
<circle cx="55600" cy="29200" r="200" /> 
</g>
<g style="fill:#008400; fill-opacity:1.0; 
stroke:#008400; stroke-width:40; stroke-opacity:1; 
stroke-linecap:round; stroke-linejoin:round;">
</g>
<g style="fill:#008400; fill-opacity:0.0; 
stroke:#008400; stroke-width:40; stroke-opacity:1; 
stroke-linecap:round; stroke-linejoin:round;">
<path d="M51200 22200
L55600 22200
" />
</g>
<g style="fill:#008400; fill-opacity:0.0; 
stroke:#008400; stroke-width:0; stroke-opacity:1; 
stroke-linecap:round; stroke-linejoin:round;">
</g>
<g style="fill:#008400; fill-opacity:1.0; 
stroke:#008400; stroke-width:100; stroke-opacity:1; 
stroke-linecap:round; stroke-linejoin:round;">
<circle cx="55600" cy="25200" r="200" /> 
</g>
<g style="fill:#008400; fill-opacity:1.0; 
stroke:#008400; stroke-width:40; stroke-opacity:1; 
stroke-linecap:round; stroke-linejoin:round;">
</g>
<g style="fill:#008400; fill-opacity:0.0; 
stroke:#008400; stroke-width:40; stroke-opacity:1; 
stroke-linecap:round; stroke-linejoin:round;">
<path d="M54100 26700
L54100 27200
" />
<path d="M54100 27200
L54100 27700
" />
</g>
<g style="fill:#008400; fill-opacity:0.0; 
stroke:#008400; stroke-width:0; stroke-opacity:1; 
stroke-linecap:round; stroke-linejoin:round;">
</g>
<g style="fill:#008400; fill-opacity:1.0; 
stroke:#008400; stroke-width:100; stroke-opacity:1; 
stroke-linecap:round; stroke-linejoin:round;">
<circle cx="54100" cy="27200" r="200" /> 
</g>
<g style="fill:#008400; fill-opacity:1.0; 
stroke:#008400; stroke-width:40; stroke-opacity:1; 
stroke-linecap:round; stroke-linejoin:round;">
</g>
<g style="fill:#008400; fill-opacity:0.0; 
stroke:#008400; stroke-width:40; stroke-opacity:1; 
stroke-linecap:round; stroke-linejoin:round;">
<path d="M54100 27200
L56700 27200
" />
</g>
<g style="fill:#000000; fill-opacity:0.0; 
stroke:#000000; stroke-width:40; stroke-opacity:1; 
stroke-linecap:round; stroke-linejoin:round;">
<path d="M56830 26920
L57120 26920
" />
<path d="M56770 27090
L56970 26490
L57170 27090
" />
<path d="M57370 27090
L57370 26690
" />
<path d="M57370 26740
L57400 26720
L57460 26690
L57540 26690
L57600 26720
L57630 26770
L57630 27090
" />
<path d="M57630 26770
L57660 26720
L57720 26690
L57800 26690
L57860 26720
L57890 26770
L57890 27090
" />
<path d="M58170 26690
L58170 27290
" />
<path d="M58170 26720
L58230 26690
L58340 26690
L58400 26720
L58430 26740
L58460 26800
L58460 26970
L58430 27030
L58400 27060
L58340 27090
L58230 27090
L58170 27060
" />
<path d="M58720 27090
L58720 26490
" />
<path d="M59000 26690
L59000 27090
" />
<path d="M59000 26740
L59030 26720
L59090 26690
L59170 26690
L59230 26720
L59260 26770
L59260 27090
" />
<path d="M59540 26690
L59540 27290
" />
<path d="M59540 26720
L59600 26690
L59720 26690
L59770 26720
L59800 26740
L59830 26800
L59830 26970
L59800 27030
L59770 27060
L59720 27090
L59600 27090
L59540 27060
" />
<path d="M60340 26690
L60340 27090
" />
<path d="M60090 26690
L60090 27000
L60120 27060
L60170 27090
L60260 27090
L60320 27060
L60340 27030
" />
<path d="M60540 26690
L60770 26690
" />
<path d="M60630 26490
L60630 27000
L60660 27060
L60720 27090
L60770 27090
" />
</g>
<g style="fill:#000000; fill-opacity:0.0; 
stroke:#000000; stroke-width:0; stroke-opacity:1; 
stroke-linecap:round; stroke-linejoin:round;">
</g>
<g style="fill:#840000; fill-opacity:0.0; 
stroke:#840000; stroke-width:0; stroke-opacity:1; 
stroke-linecap:round; stroke-linejoin:round;">
</g>
<g style="fill:#840000; fill-opacity:0.0; 
stroke:#840000; stroke-width:40; stroke-opacity:1; 
stroke-linecap:round; stroke-linejoin:round;">
<path d="M51200.4 31700 A250 250 0.0 0 0 51200.4 31200 " />
<path d="M51200.4 31200 A250 250 0.0 0 0 51200.4 30700 " />
<path d="M51200.4 30700 A250 250 0.0 0 0 51200.4 30200 " />
<path d="M51200.4 30200 A250 250 0.0 0 0 51200.4 29700 " />
<path d="M51200 29700
L51200 29200
" />
<path d="M51200 31700
L51200 32200
" />
</g>
<g style="fill:#008484; fill-opacity:0.0; 
stroke:#008484; stroke-width:40; stroke-opacity:1; 
stroke-linecap:round; stroke-linejoin:round;">
<path d="M50840 31750
L50340 31750
L50340 31560
L50370 31520
L50390 31490
L50440 31470
L50510 31470
L50560 31490
L50580 31520
L50600 31560
L50600 31750
" />
<path d="M50840 31250
L50510 31250
" />
<path d="M50340 31250
L50370 31280
L50390 31250
L50370 31230
L50340 31250
L50390 31250
" />
<path d="M50820 30800
L50840 30850
L50840 30940
L50820 30990
L50790 31020
L50750 31040
L50600 31040
L50560 31020
L50530 30990
L50510 30940
L50510 30850
L50530 30800
" />
<path d="M50840 30590
L50340 30590
" />
<path d="M50650 30540
L50840 30400
" />
<path d="M50510 30400
L50700 30590
" />
<path d="M50510 29970
L50840 29970
" />
<path d="M50510 30180
L50770 30180
L50820 30160
L50840 30110
L50840 30040
L50820 29990
L50790 29970
" />
<path d="M50510 29730
L51010 29730
" />
<path d="M50530 29730
L50510 29680
L50510 29590
L50530 29540
L50560 29520
L50600 29490
L50750 29490
L50790 29520
L50820 29540
L50840 29590
L50840 29680
L50820 29730
" />
</g>
<g style="fill:#008484; fill-opacity:0.0; 
stroke:#008484; stroke-width:0; stroke-opacity:1; 
stroke-linecap:round; stroke-linejoin:round;">
</g>
<g style="fill:#840000; fill-opacity:0.0; 
stroke:#840000; stroke-width:0; stroke-opacity:1; 
stroke-linecap:round; stroke-linejoin:round;">
</g>
<g style="fill:#840000; fill-opacity:0.0; 
stroke:#840000; stroke-width:100; stroke-opacity:1; 
stroke-linecap:round; stroke-linejoin:round;">
<rect x="53100" y="35500" width="2000" height="800" rx="0" />
</g>
<g style="fill:#840000; fill-opacity:0.0; 
stroke:#840000; stroke-width:40; stroke-opacity:1; 
stroke-linecap:round; stroke-linejoin:round;">
<polyline fill="none;"
points="54100,36900
54100,36500
" /> 
</g>
<g style="fill:#840000; fill-opacity:1.0; 
stroke:#840000; stroke-width:40; stroke-opacity:1; 
stroke-linecap:round; stroke-linejoin:round;">
<polyline style="fill-rule:evenodd;"
points="54100,36350
54300,36800
53900,36800
" /> 
</g>
<g style="fill:#840000; fill-opacity:0.0; 
stroke:#840000; stroke-width:40; stroke-opacity:1; 
stroke-linecap:round; stroke-linejoin:round;">
<path d="M55100 35900
L55600 35900
" />
<path d="M54100 36900
L54100 37400
" />
<path d="M53100 35900
L52600 35900
" />
</g>
<g style="fill:#008484; fill-opacity:0.0; 
stroke:#008484; stroke-width:40; stroke-opacity:1; 
stroke-linecap:round; stroke-linejoin:round;">
<path d="M53600 35640
L53360 35640
L53330 35880
L53360 35860
L53400 35830
L53520 35830
L53570 35860
L53600 35880
L53620 35930
L53620 36050
L53600 36090
L53570 36120
L53520 36140
L53400 36140
L53360 36120
L53330 36090
" />
<path d="M53930 35640
L53980 35640
L54020 35670
L54050 35690
L54070 35740
L54100 35830
L54100 35950
L54070 36050
L54050 36090
L54020 36120
L53980 36140
L53930 36140
L53880 36120
L53860 36090
L53830 36050
L53810 35950
L53810 35830
L53830 35740
L53860 35690
L53880 35670
L53930 35640
" />
<path d="M54400 35640
L54450 35640
L54500 35670
L54520 35690
L54550 35740
L54570 35830
L54570 35950
L54550 36050
L54520 36090
L54500 36120
L54450 36140
L54400 36140
L54360 36120
L54330 36090
L54310 36050
L54290 35950
L54290 35830
L54310 35740
L54330 35690
L54360 35670
L54400 35640
" />
<path d="M54790 36140
L54790 35640
" />
<path d="M55070 36140
L54860 35860
" />
<path d="M55070 35640
L54790 35930
" />
<path d="M55670 36140
L55670 35640
L55860 35640
L55900 35670
L55930 35690
L55950 35740
L55950 35810
L55930 35860
L55900 35880
L55860 35900
L55670 35900
" />
<path d="M56260 35640
L56360 35640
L56400 35670
L56450 35710
L56480 35810
L56480 35970
L56450 36070
L56400 36120
L56360 36140
L56260 36140
L56210 36120
L56170 36070
L56140 35970
L56140 35810
L56170 35710
L56210 35670
L56260 35640
" />
<path d="M56620 35640
L56900 35640
" />
<path d="M56760 36140
L56760 35640
" />
</g>
<g style="fill:#008484; fill-opacity:0.0; 
stroke:#008484; stroke-width:0; stroke-opacity:1; 
stroke-linecap:round; stroke-linejoin:round;">
</g>
<g style="fill:#840000; fill-opacity:0.0; 
stroke:#840000; stroke-width:0; stroke-opacity:1; 
stroke-linecap:round; stroke-linejoin:round;">
</g>
<g style="fill:#840000; fill-opacity:0.0; 
stroke:#840000; stroke-width:100; stroke-opacity:1; 
stroke-linecap:round; stroke-linejoin:round;">
<rect x="53100" y="39500" width="2000" height="800" rx="0" />
</g>
<g style="fill:#840000; fill-opacity:0.0; 
stroke:#840000; stroke-width:40; stroke-opacity:1; 
stroke-linecap:round; stroke-linejoin:round;">
<polyline fill="none;"
points="54100,38900
54100,39300
" /> 
</g>
<g style="fill:#840000; fill-opacity:1.0; 
stroke:#840000; stroke-width:40; stroke-opacity:1; 
stroke-linecap:round; stroke-linejoin:round;">
<polyline style="fill-rule:evenodd;"
points="54100,39450
53900,39000
54300,39000
" /> 
</g>
<g style="fill:#840000; fill-opacity:0.0; 
stroke:#840000; stroke-width:40; stroke-opacity:1; 
stroke-linecap:round; stroke-linejoin:round;">
<path d="M53100 39900
L52600 39900
" />
<path d="M54100 38900
L54100 38400
" />
<path d="M55100 39900
L55600 39900
" />
</g>
<g style="fill:#008484; fill-opacity:0.0; 
stroke:#008484; stroke-width:40; stroke-opacity:1; 
stroke-linecap:round; stroke-linejoin:round;">
<path d="M53490 39590
L53250 39590
L53220 39830
L53250 39810
L53290 39780
L53410 39780
L53460 39810
L53490 39830
L53510 39880
L53510 40000
L53490 40040
L53460 40070
L53410 40090
L53290 40090
L53250 40070
L53220 40040
" />
<path d="M53820 39590
L53870 39590
L53910 39620
L53940 39640
L53960 39690
L53990 39780
L53990 39900
L53960 40000
L53940 40040
L53910 40070
L53870 40090
L53820 40090
L53770 40070
L53750 40040
L53720 40000
L53700 39900
L53700 39780
L53720 39690
L53750 39640
L53770 39620
L53820 39590
" />
<path d="M54290 39590
L54340 39590
L54390 39620
L54410 39640
L54440 39690
L54460 39780
L54460 39900
L54440 40000
L54410 40040
L54390 40070
L54340 40090
L54290 40090
L54250 40070
L54220 40040
L54200 40000
L54180 39900
L54180 39780
L54200 39690
L54220 39640
L54250 39620
L54290 39590
" />
<path d="M54680 40090
L54680 39590
" />
<path d="M54960 40090
L54750 39810
" />
<path d="M54960 39590
L54680 39880
" />
<path d="M55560 40090
L55560 39590
L55750 39590
L55790 39620
L55820 39640
L55840 39690
L55840 39760
L55820 39810
L55790 39830
L55750 39850
L55560 39850
" />
<path d="M56150 39590
L56250 39590
L56290 39620
L56340 39660
L56370 39760
L56370 39920
L56340 40020
L56290 40070
L56250 40090
L56150 40090
L56100 40070
L56060 40020
L56030 39920
L56030 39760
L56060 39660
L56100 39620
L56150 39590
" />
<path d="M56510 39590
L56790 39590
" />
<path d="M56650 40090
L56650 39590
" />
</g>
<g style="fill:#008484; fill-opacity:0.0; 
stroke:#008484; stroke-width:0; stroke-opacity:1; 
stroke-linecap:round; stroke-linejoin:round;">
</g>
<g style="fill:#840000; fill-opacity:0.0; 
stroke:#840000; stroke-width:0; stroke-opacity:1; 
stroke-linecap:round; stroke-linejoin:round;">
</g>
<g style="fill:#840000; fill-opacity:0.0; 
stroke:#840000; stroke-width:40; stroke-opacity:1; 
stroke-linecap:round; stroke-linejoin:round;">
<path d="M51200.4 36900 A250 250 0.0 0 0 51200.4 36400 " />
<path d="M51200.4 36400 A250 250 0.0 0 0 51200.4 35900 " />
<path d="M51200.4 35900 A250 250 0.0 0 0 51200.4 35400 " />
<path d="M51200.4 35400 A250 250 0.0 0 0 51200.4 34900 " />
<path d="M51200 34900
L51200 34400
" />
<path d="M51200 36900
L51200 37400
" />
</g>
<g style="fill:#008484; fill-opacity:0.0; 
stroke:#008484; stroke-width:40; stroke-opacity:1; 
stroke-linecap:round; stroke-linejoin:round;">
<path d="M50840 36950
L50340 36950
L50340 36760
L50370 36720
L50390 36690
L50440 36670
L50510 36670
L50560 36690
L50580 36720
L50600 36760
L50600 36950
" />
<path d="M50840 36450
L50510 36450
" />
<path d="M50340 36450
L50370 36480
L50390 36450
L50370 36430
L50340 36450
L50390 36450
" />
<path d="M50820 36000
L50840 36050
L50840 36140
L50820 36190
L50790 36220
L50750 36240
L50600 36240
L50560 36220
L50530 36190
L50510 36140
L50510 36050
L50530 36000
" />
<path d="M50840 35790
L50340 35790
" />
<path d="M50650 35740
L50840 35600
" />
<path d="M50510 35600
L50700 35790
" />
<path d="M50510 35170
L50840 35170
" />
<path d="M50510 35380
L50770 35380
L50820 35360
L50840 35310
L50840 35240
L50820 35190
L50790 35170
" />
<path d="M50510 34930
L51010 34930
" />
<path d="M50530 34930
L50510 34880
L50510 34790
L50530 34740
L50560 34720
L50600 34690
L50750 34690
L50790 34720
L50820 34740
L50840 34790
L50840 34880
L50820 34930
" />
</g>
<g style="fill:#008484; fill-opacity:0.0; 
stroke:#008484; stroke-width:0; stroke-opacity:1; 
stroke-linecap:round; stroke-linejoin:round;">
</g>
<g style="fill:#840000; fill-opacity:0.0; 
stroke:#840000; stroke-width:0; stroke-opacity:1; 
stroke-linecap:round; stroke-linejoin:round;">
</g>
<g style="fill:#840000; fill-opacity:0.0; 
stroke:#840000; stroke-width:40; stroke-opacity:1; 
stroke-linecap:round; stroke-linejoin:round;">
<polyline fill="none;"
points="52600,41400
52600,41900
53100,41900
52600,42400
52100,41900
52600,41900
" /> 
</g>
<g style="fill:#000000; fill-opacity:0.0; 
stroke:#000000; stroke-width:40; stroke-opacity:1; 
stroke-linecap:round; stroke-linejoin:round;">
<path d="M56830 37620
L57120 37620
" />
<path d="M56770 37790
L56970 37190
L57170 37790
" />
<path d="M57370 37790
L57370 37390
" />
<path d="M57370 37440
L57400 37420
L57460 37390
L57540 37390
L57600 37420
L57630 37470
L57630 37790
" />
<path d="M57630 37470
L57660 37420
L57720 37390
L57800 37390
L57860 37420
L57890 37470
L57890 37790
" />
<path d="M58170 37390
L58170 37990
" />
<path d="M58170 37420
L58230 37390
L58340 37390
L58400 37420
L58430 37440
L58460 37500
L58460 37670
L58430 37730
L58400 37760
L58340 37790
L58230 37790
L58170 37760
" />
<path d="M58720 37790
L58720 37190
" />
<path d="M59000 37390
L59000 37790
" />
<path d="M59000 37440
L59030 37420
L59090 37390
L59170 37390
L59230 37420
L59260 37470
L59260 37790
" />
<path d="M59540 37390
L59540 37990
" />
<path d="M59540 37420
L59600 37390
L59720 37390
L59770 37420
L59800 37440
L59830 37500
L59830 37670
L59800 37730
L59770 37760
L59720 37790
L59600 37790
L59540 37760
" />
<path d="M60340 37390
L60340 37790
" />
<path d="M60090 37390
L60090 37700
L60120 37760
L60170 37790
L60260 37790
L60320 37760
L60340 37730
" />
<path d="M60540 37390
L60770 37390
" />
<path d="M60630 37190
L60630 37700
L60660 37760
L60720 37790
L60770 37790
" />
</g>
<g style="fill:#000000; fill-opacity:0.0; 
stroke:#000000; stroke-width:0; stroke-opacity:1; 
stroke-linecap:round; stroke-linejoin:round;">
</g>
<g style="fill:#840000; fill-opacity:0.0; 
stroke:#840000; stroke-width:0; stroke-opacity:1; 
stroke-linecap:round; stroke-linejoin:round;">
</g>
<g style="fill:#840000; fill-opacity:0.0; 
stroke:#840000; stroke-width:40; stroke-opacity:1; 
stroke-linecap:round; stroke-linejoin:round;">
<path d="M51200.4 40900 A250 250 0.0 0 0 51200.4 40400 " />
<path d="M51200.4 40400 A250 250 0.0 0 0 51200.4 39900 " />
<path d="M51200.4 39900 A250 250 0.0 0 0 51200.4 39400 " />
<path d="M51200.4 39400 A250 250 0.0 0 0 51200.4 38900 " />
<path d="M51200 38900
L51200 38400
" />
<path d="M51200 40900
L51200 41400
" />
</g>
<g style="fill:#008484; fill-opacity:0.0; 
stroke:#008484; stroke-width:40; stroke-opacity:1; 
stroke-linecap:round; stroke-linejoin:round;">
<path d="M50840 40950
L50340 40950
L50340 40760
L50370 40720
L50390 40690
L50440 40670
L50510 40670
L50560 40690
L50580 40720
L50600 40760
L50600 40950
" />
<path d="M50840 40450
L50510 40450
" />
<path d="M50340 40450
L50370 40480
L50390 40450
L50370 40430
L50340 40450
L50390 40450
" />
<path d="M50820 40000
L50840 40050
L50840 40140
L50820 40190
L50790 40220
L50750 40240
L50600 40240
L50560 40220
L50530 40190
L50510 40140
L50510 40050
L50530 40000
" />
<path d="M50840 39790
L50340 39790
" />
<path d="M50650 39740
L50840 39600
" />
<path d="M50510 39600
L50700 39790
" />
<path d="M50510 39170
L50840 39170
" />
<path d="M50510 39380
L50770 39380
L50820 39360
L50840 39310
L50840 39240
L50820 39190
L50790 39170
" />
<path d="M50510 38930
L51010 38930
" />
<path d="M50530 38930
L50510 38880
L50510 38790
L50530 38740
L50560 38720
L50600 38690
L50750 38690
L50790 38720
L50820 38740
L50840 38790
L50840 38880
L50820 38930
" />
</g>
<g style="fill:#008400; fill-opacity:0.0; 
stroke:#008400; stroke-width:40; stroke-opacity:1; 
stroke-linecap:round; stroke-linejoin:round;">
<path d="M55600 35900
L55600 37900
" />
<path d="M55600 37900
L55600 39900
" />
<path d="M55600 37900
L56700 37900
" />
</g>
<g style="fill:#008400; fill-opacity:0.0; 
stroke:#008400; stroke-width:0; stroke-opacity:1; 
stroke-linecap:round; stroke-linejoin:round;">
</g>
<g style="fill:#008400; fill-opacity:1.0; 
stroke:#008400; stroke-width:100; stroke-opacity:1; 
stroke-linecap:round; stroke-linejoin:round;">
<circle cx="55600" cy="37900" r="200" /> 
</g>
<g style="fill:#008400; fill-opacity:1.0; 
stroke:#008400; stroke-width:40; stroke-opacity:1; 
stroke-linecap:round; stroke-linejoin:round;">
</g>
<g style="fill:#008400; fill-opacity:0.0; 
stroke:#008400; stroke-width:40; stroke-opacity:1; 
stroke-linecap:round; stroke-linejoin:round;">
<path d="M51200 38400
L54100 38400
" />
<path d="M51200 37400
L54100 37400
" />
<path d="M51200 34400
L52600 34400
" />
</g>
<g style="fill:#008400; fill-opacity:0.0; 
stroke:#008400; stroke-width:0; stroke-opacity:1; 
stroke-linecap:round; stroke-linejoin:round;">
</g>
<g style="fill:#008400; fill-opacity:1.0; 
stroke:#008400; stroke-width:100; stroke-opacity:1; 
stroke-linecap:round; stroke-linejoin:round;">
<circle cx="52600" cy="39900" r="200" /> 
</g>
<g style="fill:#008400; fill-opacity:1.0; 
stroke:#008400; stroke-width:0; stroke-opacity:1; 
stroke-linecap:round; stroke-linejoin:round;">
</g>
<g style="fill:#008400; fill-opacity:1.0; 
stroke:#008400; stroke-width:100; stroke-opacity:1; 
stroke-linecap:round; stroke-linejoin:round;">
<circle cx="52600" cy="35900" r="200" /> 
</g>
<g style="fill:#008400; fill-opacity:1.0; 
stroke:#008400; stroke-width:40; stroke-opacity:1; 
stroke-linecap:round; stroke-linejoin:round;">
</g>
<g style="fill:#008400; fill-opacity:0.0; 
stroke:#008400; stroke-width:40; stroke-opacity:1; 
stroke-linecap:round; stroke-linejoin:round;">
<path d="M52600 34400
L52600 35900
" />
<path d="M52600 35900
L52600 39900
" />
<path d="M52600 41400
L52600 40000
" />
<path d="M51200 41400
L52600 41400
" />
</g>
<g style="fill:#0000C2; fill-opacity:0.0; 
stroke:#0000C2; stroke-width:40; stroke-opacity:1; 
stroke-linecap:round; stroke-linejoin:round;">
<path d="M57930 28860
L58020 28890
L58160 28890
L58220 28860
L58240 28830
L58270 28770
L58270 28720
L58240 28660
L58220 28630
L58160 28600
L58040 28570
L57990 28540
L57960 28520
L57930 28460
L57930 28400
L57960 28340
L57990 28320
L58040 28290
L58190 28290
L58270 28320
" />
<path d="M58440 28490
L58670 28490
" />
<path d="M58530 28290
L58530 28800
L58560 28860
L58620 28890
L58670 28890
" />
<path d="M59130 28890
L59130 28570
L59100 28520
L59040 28490
L58930 28490
L58870 28520
" />
<path d="M59130 28860
L59070 28890
L58930 28890
L58870 28860
L58840 28800
L58840 28740
L58870 28690
L58930 28660
L59070 28660
L59130 28630
" />
<path d="M59420 28490
L59420 28890
" />
<path d="M59420 28540
L59440 28520
L59500 28490
L59590 28490
L59640 28520
L59670 28570
L59670 28890
" />
<path d="M60220 28890
L60220 28290
" />
<path d="M60220 28860
L60160 28890
L60040 28890
L59990 28860
L59960 28830
L59930 28770
L59930 28600
L59960 28540
L59990 28520
L60040 28490
L60160 28490
L60220 28520
" />
<path d="M60760 28890
L60760 28570
L60730 28520
L60670 28490
L60560 28490
L60500 28520
" />
<path d="M60760 28860
L60700 28890
L60560 28890
L60500 28860
L60470 28800
L60470 28740
L60500 28690
L60560 28660
L60700 28660
L60760 28630
" />
<path d="M61040 28890
L61040 28490
" />
<path d="M61040 28600
L61070 28540
L61100 28520
L61160 28490
L61220 28490
" />
<path d="M61670 28890
L61670 28290
" />
<path d="M61670 28860
L61620 28890
L61500 28890
L61440 28860
L61420 28830
L61390 28770
L61390 28600
L61420 28540
L61440 28520
L61500 28490
L61620 28490
L61670 28520
" />
<path d="M62670 28860
L62620 28890
L62500 28890
L62440 28860
L62420 28830
L62390 28770
L62390 28600
L62420 28540
L62440 28520
L62500 28490
L62620 28490
L62670 28520
" />
<path d="M63020 28890
L62960 28860
L62930 28830
L62900 28770
L62900 28600
L62930 28540
L62960 28520
L63020 28490
L63100 28490
L63160 28520
L63190 28540
L63220 28600
L63220 28770
L63190 28830
L63160 28860
L63100 28890
L63020 28890
" />
<path d="M63470 28490
L63470 28890
" />
<path d="M63470 28540
L63500 28520
L63560 28490
L63640 28490
L63700 28520
L63730 28570
L63730 28890
" />
<path d="M63930 28490
L64160 28490
" />
<path d="M64020 28890
L64020 28370
L64040 28320
L64100 28290
L64160 28290
" />
<path d="M64360 28890
L64360 28490
" />
<path d="M64360 28290
L64330 28320
L64360 28340
L64390 28320
L64360 28290
L64360 28340
" />
<path d="M64900 28490
L64900 28970
L64870 29030
L64840 29060
L64790 29090
L64700 29090
L64640 29060
" />
<path d="M64900 28860
L64840 28890
L64730 28890
L64670 28860
L64640 28830
L64620 28770
L64620 28600
L64640 28540
L64670 28520
L64730 28490
L64840 28490
L64900 28520
" />
<path d="M65440 28490
L65440 28890
" />
<path d="M65190 28490
L65190 28800
L65220 28860
L65270 28890
L65360 28890
L65420 28860
L65440 28830
" />
<path d="M65730 28890
L65730 28490
" />
<path d="M65730 28600
L65760 28540
L65790 28520
L65840 28490
L65900 28490
" />
<path d="M66360 28890
L66360 28570
L66330 28520
L66270 28490
L66160 28490
L66100 28520
" />
<path d="M66360 28860
L66300 28890
L66160 28890
L66100 28860
L66070 28800
L66070 28740
L66100 28690
L66160 28660
L66300 28660
L66360 28630
" />
<path d="M66560 28490
L66790 28490
" />
<path d="M66640 28290
L66640 28800
L66670 28860
L66730 28890
L66790 28890
" />
<path d="M66990 28890
L66990 28490
" />
<path d="M66990 28290
L66960 28320
L66990 28340
L67020 28320
L66990 28290
L66990 28340
" />
<path d="M67360 28890
L67300 28860
L67270 28830
L67240 28770
L67240 28600
L67270 28540
L67300 28520
L67360 28490
L67440 28490
L67500 28520
L67530 28540
L67560 28600
L67560 28770
L67530 28830
L67500 28860
L67440 28890
L67360 28890
" />
<path d="M67820 28490
L67820 28890
" />
<path d="M67820 28540
L67840 28520
L67900 28490
L67990 28490
L68040 28520
L68070 28570
L68070 28890
" />
<path d="M58300 39590
L58100 39300
" />
<path d="M57960 39590
L57960 38990
L58190 38990
L58240 39020
L58270 39040
L58300 39100
L58300 39190
L58270 39240
L58240 39270
L58190 39300
L57960 39300
" />
<path d="M58790 39560
L58730 39590
L58620 39590
L58560 39560
L58530 39500
L58530 39270
L58560 39220
L58620 39190
L58730 39190
L58790 39220
L58820 39270
L58820 39330
L58530 39390
" />
<path d="M59020 39190
L59160 39590
L59300 39190
" />
<path d="M59760 39560
L59700 39590
L59590 39590
L59530 39560
L59500 39500
L59500 39270
L59530 39220
L59590 39190
L59700 39190
L59760 39220
L59790 39270
L59790 39330
L59500 39390
" />
<path d="M60040 39590
L60040 39190
" />
<path d="M60040 39300
L60070 39240
L60100 39220
L60160 39190
L60220 39190
" />
<path d="M60390 39560
L60440 39590
L60560 39590
L60620 39560
L60640 39500
L60640 39470
L60620 39420
L60560 39390
L60470 39390
L60420 39360
L60390 39300
L60390 39270
L60420 39220
L60470 39190
L60560 39190
L60620 39220
" />
<path d="M61130 39560
L61070 39590
L60960 39590
L60900 39560
L60870 39500
L60870 39270
L60900 39220
L60960 39190
L61070 39190
L61130 39220
L61160 39270
L61160 39330
L60870 39390
" />
<path d="M61670 39590
L61670 38990
" />
<path d="M61670 39560
L61620 39590
L61500 39590
L61440 39560
L61420 39530
L61390 39470
L61390 39300
L61420 39240
L61440 39220
L61500 39190
L61620 39190
L61670 39220
" />
<path d="M62760 39530
L62730 39560
L62640 39590
L62590 39590
L62500 39560
L62440 39500
L62420 39440
L62390 39330
L62390 39240
L62420 39130
L62440 39070
L62500 39020
L62590 38990
L62640 38990
L62730 39020
L62760 39040
" />
<path d="M63100 39590
L63040 39560
L63020 39530
L62990 39470
L62990 39300
L63020 39240
L63040 39220
L63100 39190
L63190 39190
L63240 39220
L63270 39240
L63300 39300
L63300 39470
L63270 39530
L63240 39560
L63190 39590
L63100 39590
" />
<path d="M63560 39190
L63560 39590
" />
<path d="M63560 39240
L63590 39220
L63640 39190
L63730 39190
L63790 39220
L63820 39270
L63820 39590
" />
<path d="M64020 39190
L64240 39190
" />
<path d="M64100 39590
L64100 39070
L64130 39020
L64190 38990
L64240 38990
" />
<path d="M64440 39590
L64440 39190
" />
<path d="M64440 38990
L64420 39020
L64440 39040
L64470 39020
L64440 38990
L64440 39040
" />
<path d="M64990 39190
L64990 39670
L64960 39730
L64930 39760
L64870 39790
L64790 39790
L64730 39760
" />
<path d="M64990 39560
L64930 39590
L64820 39590
L64760 39560
L64730 39530
L64700 39470
L64700 39300
L64730 39240
L64760 39220
L64820 39190
L64930 39190
L64990 39220
" />
<path d="M65530 39190
L65530 39590
" />
<path d="M65270 39190
L65270 39500
L65300 39560
L65360 39590
L65440 39590
L65500 39560
L65530 39530
" />
<path d="M65820 39590
L65820 39190
" />
<path d="M65820 39300
L65840 39240
L65870 39220
L65930 39190
L65990 39190
" />
<path d="M66440 39590
L66440 39270
L66420 39220
L66360 39190
L66240 39190
L66190 39220
" />
<path d="M66440 39560
L66390 39590
L66240 39590
L66190 39560
L66160 39500
L66160 39440
L66190 39390
L66240 39360
L66390 39360
L66440 39330
" />
<path d="M66640 39190
L66870 39190
" />
<path d="M66730 38990
L66730 39500
L66760 39560
L66820 39590
L66870 39590
" />
<path d="M67070 39590
L67070 39190
" />
<path d="M67070 38990
L67040 39020
L67070 39040
L67100 39020
L67070 38990
L67070 39040
" />
<path d="M67440 39590
L67390 39560
L67360 39530
L67330 39470
L67330 39300
L67360 39240
L67390 39220
L67440 39190
L67530 39190
L67590 39220
L67620 39240
L67640 39300
L67640 39470
L67620 39530
L67590 39560
L67530 39590
L67440 39590
" />
<path d="M67900 39190
L67900 39590
" />
<path d="M67900 39240
L67930 39220
L67990 39190
L68070 39190
L68130 39220
L68160 39270
L68160 39590
" />
</g> 
</svg>
