M48
INCH
T10C0.038000
T11C0.125984
T12C0.015748
T13C0.032000
T14C0.035000
%
T10
X039099Y015958
X038099Y015958
X037099Y015958
X036099Y015958
X035099Y015958
X034099Y015958
X033099Y015958
X032099Y015958
X040099Y031958
X039099Y031958
X038099Y031958
X037099Y031958
X036099Y031958
X035099Y031958
X034099Y031958
X033099Y031958
X031099Y031958
X030099Y031958
X029099Y031958
X028099Y031958
X027099Y031958
X026099Y031958
X025099Y031958
X024099Y031958
X006099Y026958
X006099Y025958
X006099Y024958
X006099Y023958
X006099Y022958
X006099Y021958
X006099Y020958
X006099Y019958
X006099Y018958
X006099Y017958
X018577Y031958
X017577Y031958
X026099Y009958
X026099Y010958
X017099Y001958
X017099Y002958
X017099Y003958
X017099Y004958
X017099Y005958
X017099Y006958
X023099Y015958
X022099Y015958
X021099Y015958
X020099Y015958
X019099Y015958
X018099Y015958
X017099Y015958
X016099Y015958
X015099Y015958
X014099Y015958
X013099Y015958
X012099Y015958
X011099Y015958
X010099Y015958
X009099Y015958
X008099Y015958
X007099Y015958
X023099Y009958
X022099Y009958
X021099Y009958
X020099Y009958
X019099Y009958
X018099Y009958
X017099Y009958
X016099Y009958
X015099Y009958
X014099Y009958
X013099Y009958
X012099Y009958
X011099Y009958
X010099Y009958
X009099Y009958
X008099Y009958
X007099Y009958
T11
X040908Y002060
X040909Y035561
X001494Y035506
X001511Y002077
T12
X026099Y017958
X020099Y010958
X027099Y012958
X027099Y013958
X009099Y012958
X020335Y023881
X033654Y018719
T13
X030099Y020958
X029099Y020958
X028099Y020958
X027099Y020958
X026099Y020958
X025099Y020958
X024099Y020958
X023099Y020958
X023099Y023958
X024099Y023958
X025099Y023958
X026099Y023958
X027099Y023958
X028099Y023958
X029099Y023958
X030099Y023958
X039117Y020983
X038117Y020983
X037117Y020983
X036117Y020983
X035117Y020983
X034117Y020983
X033117Y020983
X032117Y020983
X032117Y023983
X033117Y023983
X034117Y023983
X035117Y023983
X036117Y023983
X037117Y023983
X038117Y023983
X039117Y023983
T14
X033099Y029958
X033099Y025958
X019927Y020787
X017099Y017958
X034099Y029958
X034099Y025958
X018927Y021787
X016099Y018958
X017927Y022787
X015099Y019958
X016927Y023787
X014099Y020958
X015927Y024787
X013099Y021958
X038099Y029958
X038099Y025958
X040099Y029958
X040099Y025958
X039099Y029958
X039099Y025958
X037099Y029958
X037099Y025958
X035099Y029958
X035099Y025958
X036099Y029958
X036099Y025958
X010927Y029787
X008099Y026958
X024099Y029958
X024099Y025958
X027099Y029958
X027099Y025958
X026099Y029958
X026099Y025958
X031099Y029958
X031099Y025958
X014927Y025876
X012099Y023047
X028099Y029958
X028099Y025958
X030099Y029958
X030099Y025958
X012927Y027787
X010099Y024958
X013927Y026787
X011099Y023958
X011927Y028787
X009099Y025958
X029099Y029958
X029099Y025958
X025099Y029958
X025099Y025958
T00
M30
