G04 MADE WITH FRITZING*
G04 WWW.FRITZING.ORG*
G04 DOUBLE SIDED*
G04 HOLES PLATED*
G04 CONTOUR ON CENTER OF CONTOUR VECTOR*
%ASAXBY*%
%FSLAX23Y23*%
%MOIN*%
%OFA0B0*%
%SFA1.0B1.0*%
%ADD10C,0.088000*%
%ADD11C,0.135984*%
%ADD12C,0.049370*%
%ADD13C,0.062000*%
%ADD14C,0.085000*%
%ADD15R,0.085000X0.085000*%
%ADD16C,0.030000*%
%ADD17R,0.001000X0.001000*%
%LNMASK1*%
G90*
G70*
G54D10*
X710Y996D03*
X810Y996D03*
X910Y996D03*
X1010Y996D03*
X1110Y996D03*
X1210Y996D03*
X1310Y996D03*
X1410Y996D03*
X1510Y996D03*
X1610Y996D03*
X1710Y996D03*
X1810Y996D03*
X1910Y996D03*
X2010Y996D03*
X2110Y996D03*
X2210Y996D03*
X2310Y996D03*
X710Y1596D03*
X810Y1596D03*
X910Y1596D03*
X1010Y1596D03*
X1110Y1596D03*
X1210Y1596D03*
X1310Y1596D03*
X1410Y1596D03*
X1510Y1596D03*
X1610Y1596D03*
X1710Y1596D03*
X1810Y1596D03*
X1910Y1596D03*
X2010Y1596D03*
X2110Y1596D03*
X2210Y1596D03*
X2310Y1596D03*
G54D11*
X151Y208D03*
X149Y3551D03*
X4091Y3556D03*
X4091Y206D03*
G54D12*
X3365Y1872D03*
G54D13*
X3912Y2398D03*
X3812Y2398D03*
X3712Y2398D03*
X3612Y2398D03*
X3512Y2398D03*
X3412Y2398D03*
X3312Y2398D03*
X3212Y2398D03*
X3212Y2098D03*
X3312Y2098D03*
X3412Y2098D03*
X3512Y2098D03*
X3612Y2098D03*
X3712Y2098D03*
X3812Y2098D03*
X3912Y2098D03*
X3912Y2398D03*
X3812Y2398D03*
X3712Y2398D03*
X3612Y2398D03*
X3512Y2398D03*
X3412Y2398D03*
X3312Y2398D03*
X3212Y2398D03*
X3212Y2098D03*
X3312Y2098D03*
X3412Y2098D03*
X3512Y2098D03*
X3612Y2098D03*
X3712Y2098D03*
X3812Y2098D03*
X3912Y2098D03*
X3010Y2396D03*
X2910Y2396D03*
X2810Y2396D03*
X2710Y2396D03*
X2610Y2396D03*
X2510Y2396D03*
X2410Y2396D03*
X2310Y2396D03*
X2310Y2096D03*
X2410Y2096D03*
X2510Y2096D03*
X2610Y2096D03*
X2710Y2096D03*
X2810Y2096D03*
X2910Y2096D03*
X3010Y2096D03*
X3010Y2396D03*
X2910Y2396D03*
X2810Y2396D03*
X2710Y2396D03*
X2610Y2396D03*
X2510Y2396D03*
X2410Y2396D03*
X2310Y2396D03*
X2310Y2096D03*
X2410Y2096D03*
X2510Y2096D03*
X2610Y2096D03*
X2710Y2096D03*
X2810Y2096D03*
X2910Y2096D03*
X3010Y2096D03*
G54D10*
X1710Y696D03*
X1710Y596D03*
X1710Y496D03*
X1710Y396D03*
X1710Y296D03*
X1710Y196D03*
X2610Y1096D03*
X2610Y996D03*
X1758Y3196D03*
X1858Y3196D03*
G54D14*
X2510Y2596D03*
X2510Y2996D03*
X2910Y2596D03*
X2910Y2996D03*
X910Y2596D03*
X1193Y2879D03*
X1110Y2396D03*
X1393Y2679D03*
G54D12*
X2034Y2388D03*
G54D14*
X1010Y2496D03*
X1293Y2779D03*
G54D12*
X910Y1296D03*
G54D14*
X3010Y2596D03*
X3010Y2996D03*
X2810Y2596D03*
X2810Y2996D03*
G54D12*
X2710Y1396D03*
G54D14*
X1210Y2305D03*
X1493Y2588D03*
X3110Y2596D03*
X3110Y2996D03*
X2610Y2596D03*
X2610Y2996D03*
G54D12*
X2710Y1296D03*
G54D14*
X2710Y2596D03*
X2710Y2996D03*
X2410Y2596D03*
X2410Y2996D03*
G54D12*
X2010Y1096D03*
G54D14*
X810Y2696D03*
X1093Y2979D03*
G54D10*
X610Y1796D03*
X610Y1896D03*
X610Y1996D03*
X610Y2096D03*
X610Y2196D03*
X610Y2296D03*
X610Y2396D03*
X610Y2496D03*
X610Y2596D03*
X610Y2696D03*
G54D14*
X3610Y2596D03*
X3610Y2996D03*
G54D10*
X2410Y3196D03*
X2510Y3196D03*
X2610Y3196D03*
X2710Y3196D03*
X2810Y3196D03*
X2910Y3196D03*
X3010Y3196D03*
X3110Y3196D03*
G54D14*
X3510Y2596D03*
X3510Y2996D03*
G54D10*
X3310Y3196D03*
X3410Y3196D03*
X3510Y3196D03*
X3610Y3196D03*
X3710Y3196D03*
X3810Y3196D03*
X3910Y3196D03*
X4010Y3196D03*
G54D14*
X3710Y2596D03*
X3710Y2996D03*
X3910Y2596D03*
X3910Y2996D03*
X4010Y2596D03*
X4010Y2996D03*
X3810Y2596D03*
X3810Y2996D03*
X1310Y2196D03*
X1593Y2479D03*
G54D10*
X3210Y1596D03*
X3310Y1596D03*
X3410Y1596D03*
X3510Y1596D03*
X3610Y1596D03*
X3710Y1596D03*
X3810Y1596D03*
X3910Y1596D03*
G54D14*
X1410Y2096D03*
X1693Y2379D03*
X1510Y1996D03*
X1793Y2279D03*
X1610Y1896D03*
X1893Y2179D03*
X3410Y2596D03*
X3410Y2996D03*
X1710Y1796D03*
X1993Y2079D03*
X3310Y2596D03*
X3310Y2996D03*
G54D12*
X2610Y1796D03*
G54D15*
X2510Y2596D03*
X2910Y2596D03*
X3010Y2596D03*
X2810Y2596D03*
X3110Y2596D03*
X2610Y2596D03*
X2710Y2596D03*
X2410Y2596D03*
X3610Y2596D03*
X3510Y2596D03*
X3710Y2596D03*
X3910Y2596D03*
X4010Y2596D03*
X3810Y2596D03*
X3410Y2596D03*
X3310Y2596D03*
G54D16*
G36*
X910Y2635D02*
X949Y2596D01*
X910Y2557D01*
X871Y2596D01*
X910Y2635D01*
G37*
D02*
G36*
X1110Y2435D02*
X1149Y2396D01*
X1110Y2357D01*
X1071Y2396D01*
X1110Y2435D01*
G37*
D02*
G36*
X1010Y2535D02*
X1049Y2496D01*
X1010Y2457D01*
X971Y2496D01*
X1010Y2535D01*
G37*
D02*
G36*
X1210Y2344D02*
X1249Y2305D01*
X1210Y2266D01*
X1171Y2305D01*
X1210Y2344D01*
G37*
D02*
G36*
X810Y2735D02*
X849Y2696D01*
X810Y2657D01*
X771Y2696D01*
X810Y2735D01*
G37*
D02*
G36*
X1310Y2235D02*
X1349Y2196D01*
X1310Y2157D01*
X1271Y2196D01*
X1310Y2235D01*
G37*
D02*
G36*
X1410Y2135D02*
X1449Y2096D01*
X1410Y2057D01*
X1371Y2096D01*
X1410Y2135D01*
G37*
D02*
G36*
X1510Y2035D02*
X1549Y1996D01*
X1510Y1957D01*
X1471Y1996D01*
X1510Y2035D01*
G37*
D02*
G36*
X1610Y1935D02*
X1649Y1896D01*
X1610Y1857D01*
X1571Y1896D01*
X1610Y1935D01*
G37*
D02*
G36*
X1710Y1835D02*
X1749Y1796D01*
X1710Y1757D01*
X1671Y1796D01*
X1710Y1835D01*
G37*
D02*
G54D17*
X3206Y2455D02*
X3216Y2455D01*
X3306Y2455D02*
X3316Y2455D01*
X3406Y2455D02*
X3416Y2455D01*
X3506Y2455D02*
X3516Y2455D01*
X3606Y2455D02*
X3616Y2455D01*
X3706Y2455D02*
X3716Y2455D01*
X3806Y2455D02*
X3816Y2455D01*
X3906Y2455D02*
X3916Y2455D01*
X3202Y2454D02*
X3220Y2454D01*
X3302Y2454D02*
X3320Y2454D01*
X3402Y2454D02*
X3420Y2454D01*
X3502Y2454D02*
X3520Y2454D01*
X3602Y2454D02*
X3620Y2454D01*
X3702Y2454D02*
X3720Y2454D01*
X3802Y2454D02*
X3820Y2454D01*
X3902Y2454D02*
X3920Y2454D01*
X2307Y2453D02*
X2311Y2453D01*
X2407Y2453D02*
X2411Y2453D01*
X2507Y2453D02*
X2511Y2453D01*
X2607Y2453D02*
X2611Y2453D01*
X2707Y2453D02*
X2711Y2453D01*
X2807Y2453D02*
X2811Y2453D01*
X2907Y2453D02*
X2911Y2453D01*
X3007Y2453D02*
X3011Y2453D01*
X3200Y2453D02*
X3222Y2453D01*
X3300Y2453D02*
X3322Y2453D01*
X3400Y2453D02*
X3422Y2453D01*
X3500Y2453D02*
X3522Y2453D01*
X3600Y2453D02*
X3622Y2453D01*
X3699Y2453D02*
X3722Y2453D01*
X3799Y2453D02*
X3822Y2453D01*
X3899Y2453D02*
X3922Y2453D01*
X2302Y2452D02*
X2317Y2452D01*
X2402Y2452D02*
X2417Y2452D01*
X2502Y2452D02*
X2517Y2452D01*
X2602Y2452D02*
X2617Y2452D01*
X2702Y2452D02*
X2717Y2452D01*
X2802Y2452D02*
X2817Y2452D01*
X2902Y2452D02*
X2917Y2452D01*
X3002Y2452D02*
X3017Y2452D01*
X3197Y2452D02*
X3224Y2452D01*
X3297Y2452D02*
X3324Y2452D01*
X3397Y2452D02*
X3424Y2452D01*
X3497Y2452D02*
X3524Y2452D01*
X3597Y2452D02*
X3624Y2452D01*
X3697Y2452D02*
X3724Y2452D01*
X3797Y2452D02*
X3824Y2452D01*
X3897Y2452D02*
X3924Y2452D01*
X2299Y2451D02*
X2320Y2451D01*
X2399Y2451D02*
X2420Y2451D01*
X2499Y2451D02*
X2520Y2451D01*
X2599Y2451D02*
X2620Y2451D01*
X2699Y2451D02*
X2719Y2451D01*
X2799Y2451D02*
X2819Y2451D01*
X2899Y2451D02*
X2919Y2451D01*
X2999Y2451D02*
X3019Y2451D01*
X3196Y2451D02*
X3226Y2451D01*
X3296Y2451D02*
X3326Y2451D01*
X3396Y2451D02*
X3426Y2451D01*
X3496Y2451D02*
X3526Y2451D01*
X3596Y2451D02*
X3626Y2451D01*
X3696Y2451D02*
X3726Y2451D01*
X3796Y2451D02*
X3826Y2451D01*
X3896Y2451D02*
X3926Y2451D01*
X2297Y2450D02*
X2322Y2450D01*
X2397Y2450D02*
X2422Y2450D01*
X2497Y2450D02*
X2522Y2450D01*
X2597Y2450D02*
X2622Y2450D01*
X2697Y2450D02*
X2722Y2450D01*
X2797Y2450D02*
X2822Y2450D01*
X2897Y2450D02*
X2922Y2450D01*
X2997Y2450D02*
X3022Y2450D01*
X3194Y2450D02*
X3228Y2450D01*
X3294Y2450D02*
X3328Y2450D01*
X3394Y2450D02*
X3428Y2450D01*
X3494Y2450D02*
X3528Y2450D01*
X3594Y2450D02*
X3628Y2450D01*
X3694Y2450D02*
X3728Y2450D01*
X3794Y2450D02*
X3828Y2450D01*
X3894Y2450D02*
X3928Y2450D01*
X2295Y2449D02*
X2324Y2449D01*
X2395Y2449D02*
X2424Y2449D01*
X2495Y2449D02*
X2524Y2449D01*
X2595Y2449D02*
X2624Y2449D01*
X2695Y2449D02*
X2724Y2449D01*
X2795Y2449D02*
X2824Y2449D01*
X2895Y2449D02*
X2924Y2449D01*
X2995Y2449D02*
X3024Y2449D01*
X3193Y2449D02*
X3229Y2449D01*
X3293Y2449D02*
X3329Y2449D01*
X3393Y2449D02*
X3429Y2449D01*
X3493Y2449D02*
X3529Y2449D01*
X3593Y2449D02*
X3629Y2449D01*
X3693Y2449D02*
X3729Y2449D01*
X3793Y2449D02*
X3829Y2449D01*
X3893Y2449D02*
X3929Y2449D01*
X2293Y2448D02*
X2325Y2448D01*
X2393Y2448D02*
X2425Y2448D01*
X2493Y2448D02*
X2525Y2448D01*
X2593Y2448D02*
X2625Y2448D01*
X2693Y2448D02*
X2725Y2448D01*
X2793Y2448D02*
X2825Y2448D01*
X2893Y2448D02*
X2925Y2448D01*
X2993Y2448D02*
X3025Y2448D01*
X3192Y2448D02*
X3230Y2448D01*
X3292Y2448D02*
X3330Y2448D01*
X3392Y2448D02*
X3430Y2448D01*
X3492Y2448D02*
X3530Y2448D01*
X3592Y2448D02*
X3630Y2448D01*
X3692Y2448D02*
X3730Y2448D01*
X3792Y2448D02*
X3830Y2448D01*
X3892Y2448D02*
X3930Y2448D01*
X2292Y2447D02*
X2327Y2447D01*
X2392Y2447D02*
X2427Y2447D01*
X2492Y2447D02*
X2527Y2447D01*
X2592Y2447D02*
X2627Y2447D01*
X2692Y2447D02*
X2727Y2447D01*
X2792Y2447D02*
X2827Y2447D01*
X2892Y2447D02*
X2927Y2447D01*
X2992Y2447D02*
X3027Y2447D01*
X3191Y2447D02*
X3231Y2447D01*
X3291Y2447D02*
X3331Y2447D01*
X3391Y2447D02*
X3431Y2447D01*
X3491Y2447D02*
X3531Y2447D01*
X3591Y2447D02*
X3631Y2447D01*
X3691Y2447D02*
X3731Y2447D01*
X3791Y2447D02*
X3831Y2447D01*
X3891Y2447D02*
X3931Y2447D01*
X2290Y2446D02*
X2328Y2446D01*
X2390Y2446D02*
X2428Y2446D01*
X2490Y2446D02*
X2528Y2446D01*
X2590Y2446D02*
X2628Y2446D01*
X2690Y2446D02*
X2728Y2446D01*
X2790Y2446D02*
X2828Y2446D01*
X2890Y2446D02*
X2928Y2446D01*
X2990Y2446D02*
X3028Y2446D01*
X3190Y2446D02*
X3232Y2446D01*
X3290Y2446D02*
X3332Y2446D01*
X3390Y2446D02*
X3432Y2446D01*
X3490Y2446D02*
X3532Y2446D01*
X3590Y2446D02*
X3632Y2446D01*
X3690Y2446D02*
X3732Y2446D01*
X3789Y2446D02*
X3832Y2446D01*
X3889Y2446D02*
X3932Y2446D01*
X2289Y2445D02*
X2329Y2445D01*
X2389Y2445D02*
X2429Y2445D01*
X2489Y2445D02*
X2529Y2445D01*
X2589Y2445D02*
X2629Y2445D01*
X2689Y2445D02*
X2729Y2445D01*
X2789Y2445D02*
X2829Y2445D01*
X2889Y2445D02*
X2929Y2445D01*
X2989Y2445D02*
X3029Y2445D01*
X3189Y2445D02*
X3233Y2445D01*
X3289Y2445D02*
X3333Y2445D01*
X3389Y2445D02*
X3433Y2445D01*
X3489Y2445D02*
X3533Y2445D01*
X3589Y2445D02*
X3633Y2445D01*
X3689Y2445D02*
X3733Y2445D01*
X3789Y2445D02*
X3833Y2445D01*
X3889Y2445D02*
X3933Y2445D01*
X2288Y2444D02*
X2330Y2444D01*
X2388Y2444D02*
X2430Y2444D01*
X2488Y2444D02*
X2530Y2444D01*
X2588Y2444D02*
X2630Y2444D01*
X2688Y2444D02*
X2730Y2444D01*
X2788Y2444D02*
X2830Y2444D01*
X2888Y2444D02*
X2930Y2444D01*
X2988Y2444D02*
X3030Y2444D01*
X3188Y2444D02*
X3234Y2444D01*
X3288Y2444D02*
X3334Y2444D01*
X3388Y2444D02*
X3434Y2444D01*
X3488Y2444D02*
X3534Y2444D01*
X3588Y2444D02*
X3634Y2444D01*
X3688Y2444D02*
X3734Y2444D01*
X3788Y2444D02*
X3834Y2444D01*
X3888Y2444D02*
X3934Y2444D01*
X2287Y2443D02*
X2331Y2443D01*
X2387Y2443D02*
X2431Y2443D01*
X2487Y2443D02*
X2531Y2443D01*
X2587Y2443D02*
X2631Y2443D01*
X2687Y2443D02*
X2731Y2443D01*
X2787Y2443D02*
X2831Y2443D01*
X2887Y2443D02*
X2931Y2443D01*
X2987Y2443D02*
X3031Y2443D01*
X3187Y2443D02*
X3235Y2443D01*
X3287Y2443D02*
X3335Y2443D01*
X3387Y2443D02*
X3435Y2443D01*
X3487Y2443D02*
X3535Y2443D01*
X3587Y2443D02*
X3635Y2443D01*
X3687Y2443D02*
X3735Y2443D01*
X3787Y2443D02*
X3835Y2443D01*
X3887Y2443D02*
X3935Y2443D01*
X2286Y2442D02*
X2332Y2442D01*
X2386Y2442D02*
X2432Y2442D01*
X2486Y2442D02*
X2532Y2442D01*
X2586Y2442D02*
X2632Y2442D01*
X2686Y2442D02*
X2732Y2442D01*
X2786Y2442D02*
X2832Y2442D01*
X2886Y2442D02*
X2932Y2442D01*
X2986Y2442D02*
X3032Y2442D01*
X3186Y2442D02*
X3236Y2442D01*
X3286Y2442D02*
X3336Y2442D01*
X3386Y2442D02*
X3436Y2442D01*
X3486Y2442D02*
X3536Y2442D01*
X3586Y2442D02*
X3636Y2442D01*
X3686Y2442D02*
X3736Y2442D01*
X3786Y2442D02*
X3836Y2442D01*
X3886Y2442D02*
X3936Y2442D01*
X2286Y2441D02*
X2333Y2441D01*
X2386Y2441D02*
X2433Y2441D01*
X2486Y2441D02*
X2533Y2441D01*
X2586Y2441D02*
X2633Y2441D01*
X2686Y2441D02*
X2733Y2441D01*
X2786Y2441D02*
X2833Y2441D01*
X2886Y2441D02*
X2933Y2441D01*
X2985Y2441D02*
X3033Y2441D01*
X3186Y2441D02*
X3236Y2441D01*
X3285Y2441D02*
X3336Y2441D01*
X3385Y2441D02*
X3436Y2441D01*
X3485Y2441D02*
X3536Y2441D01*
X3585Y2441D02*
X3636Y2441D01*
X3685Y2441D02*
X3736Y2441D01*
X3785Y2441D02*
X3836Y2441D01*
X3885Y2441D02*
X3936Y2441D01*
X2285Y2440D02*
X2334Y2440D01*
X2385Y2440D02*
X2434Y2440D01*
X2485Y2440D02*
X2534Y2440D01*
X2585Y2440D02*
X2634Y2440D01*
X2685Y2440D02*
X2734Y2440D01*
X2785Y2440D02*
X2834Y2440D01*
X2885Y2440D02*
X2934Y2440D01*
X2985Y2440D02*
X3034Y2440D01*
X3185Y2440D02*
X3237Y2440D01*
X3285Y2440D02*
X3337Y2440D01*
X3385Y2440D02*
X3437Y2440D01*
X3485Y2440D02*
X3537Y2440D01*
X3585Y2440D02*
X3637Y2440D01*
X3685Y2440D02*
X3737Y2440D01*
X3785Y2440D02*
X3837Y2440D01*
X3885Y2440D02*
X3937Y2440D01*
X2284Y2439D02*
X2334Y2439D01*
X2384Y2439D02*
X2434Y2439D01*
X2484Y2439D02*
X2534Y2439D01*
X2584Y2439D02*
X2634Y2439D01*
X2684Y2439D02*
X2734Y2439D01*
X2784Y2439D02*
X2834Y2439D01*
X2884Y2439D02*
X2934Y2439D01*
X2984Y2439D02*
X3034Y2439D01*
X3184Y2439D02*
X3238Y2439D01*
X3284Y2439D02*
X3338Y2439D01*
X3384Y2439D02*
X3438Y2439D01*
X3484Y2439D02*
X3538Y2439D01*
X3584Y2439D02*
X3638Y2439D01*
X3684Y2439D02*
X3738Y2439D01*
X3784Y2439D02*
X3838Y2439D01*
X3884Y2439D02*
X3938Y2439D01*
X2283Y2438D02*
X2335Y2438D01*
X2383Y2438D02*
X2435Y2438D01*
X2483Y2438D02*
X2535Y2438D01*
X2583Y2438D02*
X2635Y2438D01*
X2683Y2438D02*
X2735Y2438D01*
X2783Y2438D02*
X2835Y2438D01*
X2883Y2438D02*
X2935Y2438D01*
X2983Y2438D02*
X3035Y2438D01*
X3184Y2438D02*
X3238Y2438D01*
X3284Y2438D02*
X3338Y2438D01*
X3384Y2438D02*
X3438Y2438D01*
X3484Y2438D02*
X3538Y2438D01*
X3584Y2438D02*
X3638Y2438D01*
X3684Y2438D02*
X3738Y2438D01*
X3784Y2438D02*
X3838Y2438D01*
X3884Y2438D02*
X3938Y2438D01*
X2283Y2437D02*
X2336Y2437D01*
X2383Y2437D02*
X2436Y2437D01*
X2483Y2437D02*
X2536Y2437D01*
X2583Y2437D02*
X2636Y2437D01*
X2683Y2437D02*
X2736Y2437D01*
X2783Y2437D02*
X2836Y2437D01*
X2883Y2437D02*
X2936Y2437D01*
X2983Y2437D02*
X3036Y2437D01*
X3183Y2437D02*
X3239Y2437D01*
X3283Y2437D02*
X3339Y2437D01*
X3383Y2437D02*
X3439Y2437D01*
X3483Y2437D02*
X3539Y2437D01*
X3583Y2437D02*
X3639Y2437D01*
X3683Y2437D02*
X3739Y2437D01*
X3783Y2437D02*
X3839Y2437D01*
X3883Y2437D02*
X3939Y2437D01*
X2282Y2436D02*
X2336Y2436D01*
X2382Y2436D02*
X2436Y2436D01*
X2482Y2436D02*
X2536Y2436D01*
X2582Y2436D02*
X2636Y2436D01*
X2682Y2436D02*
X2736Y2436D01*
X2782Y2436D02*
X2836Y2436D01*
X2882Y2436D02*
X2936Y2436D01*
X2982Y2436D02*
X3036Y2436D01*
X3183Y2436D02*
X3239Y2436D01*
X3283Y2436D02*
X3339Y2436D01*
X3383Y2436D02*
X3439Y2436D01*
X3483Y2436D02*
X3539Y2436D01*
X3583Y2436D02*
X3639Y2436D01*
X3683Y2436D02*
X3739Y2436D01*
X3783Y2436D02*
X3839Y2436D01*
X3883Y2436D02*
X3939Y2436D01*
X2282Y2435D02*
X2337Y2435D01*
X2382Y2435D02*
X2437Y2435D01*
X2482Y2435D02*
X2537Y2435D01*
X2582Y2435D02*
X2637Y2435D01*
X2682Y2435D02*
X2737Y2435D01*
X2782Y2435D02*
X2837Y2435D01*
X2882Y2435D02*
X2937Y2435D01*
X2982Y2435D02*
X3037Y2435D01*
X3182Y2435D02*
X3239Y2435D01*
X3282Y2435D02*
X3339Y2435D01*
X3382Y2435D02*
X3439Y2435D01*
X3482Y2435D02*
X3539Y2435D01*
X3582Y2435D02*
X3639Y2435D01*
X3682Y2435D02*
X3739Y2435D01*
X3782Y2435D02*
X3839Y2435D01*
X3882Y2435D02*
X3939Y2435D01*
X2281Y2434D02*
X2337Y2434D01*
X2381Y2434D02*
X2437Y2434D01*
X2481Y2434D02*
X2537Y2434D01*
X2581Y2434D02*
X2637Y2434D01*
X2681Y2434D02*
X2737Y2434D01*
X2781Y2434D02*
X2837Y2434D01*
X2881Y2434D02*
X2937Y2434D01*
X2981Y2434D02*
X3037Y2434D01*
X3182Y2434D02*
X3240Y2434D01*
X3282Y2434D02*
X3340Y2434D01*
X3382Y2434D02*
X3440Y2434D01*
X3482Y2434D02*
X3540Y2434D01*
X3582Y2434D02*
X3640Y2434D01*
X3682Y2434D02*
X3740Y2434D01*
X3782Y2434D02*
X3840Y2434D01*
X3882Y2434D02*
X3940Y2434D01*
X2281Y2433D02*
X2338Y2433D01*
X2381Y2433D02*
X2438Y2433D01*
X2481Y2433D02*
X2538Y2433D01*
X2581Y2433D02*
X2638Y2433D01*
X2681Y2433D02*
X2738Y2433D01*
X2781Y2433D02*
X2838Y2433D01*
X2881Y2433D02*
X2938Y2433D01*
X2981Y2433D02*
X3038Y2433D01*
X3182Y2433D02*
X3240Y2433D01*
X3282Y2433D02*
X3340Y2433D01*
X3382Y2433D02*
X3440Y2433D01*
X3482Y2433D02*
X3540Y2433D01*
X3582Y2433D02*
X3640Y2433D01*
X3682Y2433D02*
X3740Y2433D01*
X3782Y2433D02*
X3840Y2433D01*
X3882Y2433D02*
X3940Y2433D01*
X2280Y2432D02*
X2338Y2432D01*
X2380Y2432D02*
X2438Y2432D01*
X2480Y2432D02*
X2538Y2432D01*
X2580Y2432D02*
X2638Y2432D01*
X2680Y2432D02*
X2738Y2432D01*
X2780Y2432D02*
X2838Y2432D01*
X2880Y2432D02*
X2938Y2432D01*
X2980Y2432D02*
X3038Y2432D01*
X3181Y2432D02*
X3240Y2432D01*
X3281Y2432D02*
X3340Y2432D01*
X3381Y2432D02*
X3440Y2432D01*
X3481Y2432D02*
X3540Y2432D01*
X3581Y2432D02*
X3640Y2432D01*
X3681Y2432D02*
X3740Y2432D01*
X3781Y2432D02*
X3840Y2432D01*
X3881Y2432D02*
X3940Y2432D01*
X2280Y2431D02*
X2338Y2431D01*
X2380Y2431D02*
X2438Y2431D01*
X2480Y2431D02*
X2538Y2431D01*
X2580Y2431D02*
X2638Y2431D01*
X2680Y2431D02*
X2738Y2431D01*
X2780Y2431D02*
X2838Y2431D01*
X2880Y2431D02*
X2938Y2431D01*
X2980Y2431D02*
X3038Y2431D01*
X3181Y2431D02*
X3241Y2431D01*
X3281Y2431D02*
X3341Y2431D01*
X3381Y2431D02*
X3441Y2431D01*
X3481Y2431D02*
X3541Y2431D01*
X3581Y2431D02*
X3641Y2431D01*
X3681Y2431D02*
X3741Y2431D01*
X3781Y2431D02*
X3841Y2431D01*
X3881Y2431D02*
X3941Y2431D01*
X2280Y2430D02*
X2339Y2430D01*
X2380Y2430D02*
X2439Y2430D01*
X2480Y2430D02*
X2539Y2430D01*
X2580Y2430D02*
X2639Y2430D01*
X2680Y2430D02*
X2739Y2430D01*
X2780Y2430D02*
X2839Y2430D01*
X2880Y2430D02*
X2939Y2430D01*
X2980Y2430D02*
X3039Y2430D01*
X3181Y2430D02*
X3241Y2430D01*
X3281Y2430D02*
X3341Y2430D01*
X3381Y2430D02*
X3441Y2430D01*
X3481Y2430D02*
X3541Y2430D01*
X3581Y2430D02*
X3641Y2430D01*
X3681Y2430D02*
X3741Y2430D01*
X3781Y2430D02*
X3841Y2430D01*
X3881Y2430D02*
X3941Y2430D01*
X2280Y2429D02*
X2339Y2429D01*
X2380Y2429D02*
X2439Y2429D01*
X2480Y2429D02*
X2539Y2429D01*
X2580Y2429D02*
X2639Y2429D01*
X2680Y2429D02*
X2739Y2429D01*
X2780Y2429D02*
X2839Y2429D01*
X2880Y2429D02*
X2939Y2429D01*
X2980Y2429D02*
X3039Y2429D01*
X3181Y2429D02*
X3241Y2429D01*
X3281Y2429D02*
X3341Y2429D01*
X3381Y2429D02*
X3441Y2429D01*
X3481Y2429D02*
X3541Y2429D01*
X3581Y2429D02*
X3641Y2429D01*
X3681Y2429D02*
X3741Y2429D01*
X3781Y2429D02*
X3841Y2429D01*
X3881Y2429D02*
X3941Y2429D01*
X2279Y2428D02*
X2339Y2428D01*
X2379Y2428D02*
X2439Y2428D01*
X2479Y2428D02*
X2539Y2428D01*
X2579Y2428D02*
X2639Y2428D01*
X2679Y2428D02*
X2739Y2428D01*
X2779Y2428D02*
X2839Y2428D01*
X2879Y2428D02*
X2939Y2428D01*
X2979Y2428D02*
X3039Y2428D01*
X3181Y2428D02*
X3241Y2428D01*
X3281Y2428D02*
X3341Y2428D01*
X3381Y2428D02*
X3441Y2428D01*
X3481Y2428D02*
X3541Y2428D01*
X3581Y2428D02*
X3641Y2428D01*
X3681Y2428D02*
X3741Y2428D01*
X3781Y2428D02*
X3841Y2428D01*
X3881Y2428D02*
X3941Y2428D01*
X2279Y2427D02*
X2339Y2427D01*
X2379Y2427D02*
X2439Y2427D01*
X2479Y2427D02*
X2539Y2427D01*
X2579Y2427D02*
X2639Y2427D01*
X2679Y2427D02*
X2739Y2427D01*
X2779Y2427D02*
X2839Y2427D01*
X2879Y2427D02*
X2939Y2427D01*
X2979Y2427D02*
X3039Y2427D01*
X3181Y2427D02*
X3241Y2427D01*
X3281Y2427D02*
X3341Y2427D01*
X3381Y2427D02*
X3441Y2427D01*
X3481Y2427D02*
X3541Y2427D01*
X3581Y2427D02*
X3641Y2427D01*
X3681Y2427D02*
X3741Y2427D01*
X3781Y2427D02*
X3841Y2427D01*
X3881Y2427D02*
X3941Y2427D01*
X2279Y2426D02*
X2339Y2426D01*
X2379Y2426D02*
X2439Y2426D01*
X2479Y2426D02*
X2539Y2426D01*
X2579Y2426D02*
X2639Y2426D01*
X2679Y2426D02*
X2739Y2426D01*
X2779Y2426D02*
X2839Y2426D01*
X2879Y2426D02*
X2939Y2426D01*
X2979Y2426D02*
X3039Y2426D01*
X3180Y2426D02*
X3241Y2426D01*
X3280Y2426D02*
X3341Y2426D01*
X3380Y2426D02*
X3441Y2426D01*
X3480Y2426D02*
X3541Y2426D01*
X3580Y2426D02*
X3641Y2426D01*
X3680Y2426D02*
X3741Y2426D01*
X3780Y2426D02*
X3841Y2426D01*
X3880Y2426D02*
X3941Y2426D01*
X2279Y2425D02*
X2340Y2425D01*
X2379Y2425D02*
X2440Y2425D01*
X2479Y2425D02*
X2540Y2425D01*
X2579Y2425D02*
X2640Y2425D01*
X2679Y2425D02*
X2740Y2425D01*
X2779Y2425D02*
X2840Y2425D01*
X2879Y2425D02*
X2940Y2425D01*
X2979Y2425D02*
X3040Y2425D01*
X3180Y2425D02*
X3241Y2425D01*
X3280Y2425D02*
X3341Y2425D01*
X3380Y2425D02*
X3441Y2425D01*
X3480Y2425D02*
X3541Y2425D01*
X3580Y2425D02*
X3641Y2425D01*
X3680Y2425D02*
X3741Y2425D01*
X3780Y2425D02*
X3841Y2425D01*
X3880Y2425D02*
X3941Y2425D01*
X2279Y2424D02*
X2340Y2424D01*
X2379Y2424D02*
X2440Y2424D01*
X2479Y2424D02*
X2540Y2424D01*
X2579Y2424D02*
X2640Y2424D01*
X2679Y2424D02*
X2740Y2424D01*
X2779Y2424D02*
X2840Y2424D01*
X2879Y2424D02*
X2940Y2424D01*
X2979Y2424D02*
X3040Y2424D01*
X3180Y2424D02*
X3241Y2424D01*
X3280Y2424D02*
X3341Y2424D01*
X3380Y2424D02*
X3441Y2424D01*
X3480Y2424D02*
X3541Y2424D01*
X3580Y2424D02*
X3641Y2424D01*
X3680Y2424D02*
X3741Y2424D01*
X3780Y2424D02*
X3841Y2424D01*
X3880Y2424D02*
X3941Y2424D01*
X2279Y2423D02*
X2340Y2423D01*
X2379Y2423D02*
X2440Y2423D01*
X2479Y2423D02*
X2540Y2423D01*
X2579Y2423D02*
X2640Y2423D01*
X2679Y2423D02*
X2740Y2423D01*
X2779Y2423D02*
X2840Y2423D01*
X2879Y2423D02*
X2940Y2423D01*
X2979Y2423D02*
X3040Y2423D01*
X3180Y2423D02*
X3241Y2423D01*
X3280Y2423D02*
X3341Y2423D01*
X3380Y2423D02*
X3441Y2423D01*
X3480Y2423D02*
X3541Y2423D01*
X3580Y2423D02*
X3641Y2423D01*
X3680Y2423D02*
X3741Y2423D01*
X3780Y2423D02*
X3841Y2423D01*
X3880Y2423D02*
X3941Y2423D01*
X2279Y2422D02*
X2340Y2422D01*
X2379Y2422D02*
X2440Y2422D01*
X2479Y2422D02*
X2540Y2422D01*
X2579Y2422D02*
X2640Y2422D01*
X2679Y2422D02*
X2740Y2422D01*
X2779Y2422D02*
X2840Y2422D01*
X2879Y2422D02*
X2940Y2422D01*
X2979Y2422D02*
X3040Y2422D01*
X3180Y2422D02*
X3241Y2422D01*
X3280Y2422D02*
X3341Y2422D01*
X3380Y2422D02*
X3441Y2422D01*
X3480Y2422D02*
X3541Y2422D01*
X3580Y2422D02*
X3641Y2422D01*
X3680Y2422D02*
X3741Y2422D01*
X3780Y2422D02*
X3841Y2422D01*
X3880Y2422D02*
X3941Y2422D01*
X2279Y2421D02*
X2340Y2421D01*
X2379Y2421D02*
X2440Y2421D01*
X2479Y2421D02*
X2540Y2421D01*
X2579Y2421D02*
X2640Y2421D01*
X2679Y2421D02*
X2740Y2421D01*
X2779Y2421D02*
X2840Y2421D01*
X2879Y2421D02*
X2940Y2421D01*
X2979Y2421D02*
X3040Y2421D01*
X3180Y2421D02*
X3241Y2421D01*
X3280Y2421D02*
X3341Y2421D01*
X3380Y2421D02*
X3441Y2421D01*
X3480Y2421D02*
X3541Y2421D01*
X3580Y2421D02*
X3641Y2421D01*
X3680Y2421D02*
X3741Y2421D01*
X3780Y2421D02*
X3841Y2421D01*
X3880Y2421D02*
X3941Y2421D01*
X2279Y2420D02*
X2340Y2420D01*
X2379Y2420D02*
X2440Y2420D01*
X2479Y2420D02*
X2540Y2420D01*
X2579Y2420D02*
X2640Y2420D01*
X2679Y2420D02*
X2740Y2420D01*
X2779Y2420D02*
X2840Y2420D01*
X2879Y2420D02*
X2940Y2420D01*
X2979Y2420D02*
X3040Y2420D01*
X3180Y2420D02*
X3241Y2420D01*
X3280Y2420D02*
X3341Y2420D01*
X3380Y2420D02*
X3441Y2420D01*
X3480Y2420D02*
X3541Y2420D01*
X3580Y2420D02*
X3641Y2420D01*
X3680Y2420D02*
X3741Y2420D01*
X3780Y2420D02*
X3841Y2420D01*
X3880Y2420D02*
X3941Y2420D01*
X2279Y2419D02*
X2340Y2419D01*
X2379Y2419D02*
X2440Y2419D01*
X2479Y2419D02*
X2540Y2419D01*
X2579Y2419D02*
X2640Y2419D01*
X2679Y2419D02*
X2740Y2419D01*
X2779Y2419D02*
X2840Y2419D01*
X2879Y2419D02*
X2940Y2419D01*
X2979Y2419D02*
X3040Y2419D01*
X3180Y2419D02*
X3241Y2419D01*
X3280Y2419D02*
X3341Y2419D01*
X3380Y2419D02*
X3441Y2419D01*
X3480Y2419D02*
X3541Y2419D01*
X3580Y2419D02*
X3641Y2419D01*
X3680Y2419D02*
X3741Y2419D01*
X3780Y2419D02*
X3841Y2419D01*
X3880Y2419D02*
X3941Y2419D01*
X2279Y2418D02*
X2340Y2418D01*
X2379Y2418D02*
X2440Y2418D01*
X2479Y2418D02*
X2540Y2418D01*
X2579Y2418D02*
X2640Y2418D01*
X2679Y2418D02*
X2740Y2418D01*
X2779Y2418D02*
X2840Y2418D01*
X2879Y2418D02*
X2940Y2418D01*
X2979Y2418D02*
X3040Y2418D01*
X3180Y2418D02*
X3241Y2418D01*
X3280Y2418D02*
X3341Y2418D01*
X3380Y2418D02*
X3441Y2418D01*
X3480Y2418D02*
X3541Y2418D01*
X3580Y2418D02*
X3641Y2418D01*
X3680Y2418D02*
X3741Y2418D01*
X3780Y2418D02*
X3841Y2418D01*
X3880Y2418D02*
X3941Y2418D01*
X2279Y2417D02*
X2340Y2417D01*
X2379Y2417D02*
X2440Y2417D01*
X2479Y2417D02*
X2540Y2417D01*
X2579Y2417D02*
X2640Y2417D01*
X2679Y2417D02*
X2740Y2417D01*
X2779Y2417D02*
X2840Y2417D01*
X2879Y2417D02*
X2940Y2417D01*
X2979Y2417D02*
X3040Y2417D01*
X3180Y2417D02*
X3241Y2417D01*
X3280Y2417D02*
X3341Y2417D01*
X3380Y2417D02*
X3441Y2417D01*
X3480Y2417D02*
X3541Y2417D01*
X3580Y2417D02*
X3641Y2417D01*
X3680Y2417D02*
X3741Y2417D01*
X3780Y2417D02*
X3841Y2417D01*
X3880Y2417D02*
X3941Y2417D01*
X2279Y2416D02*
X2340Y2416D01*
X2379Y2416D02*
X2440Y2416D01*
X2479Y2416D02*
X2540Y2416D01*
X2579Y2416D02*
X2640Y2416D01*
X2679Y2416D02*
X2740Y2416D01*
X2779Y2416D02*
X2840Y2416D01*
X2879Y2416D02*
X2940Y2416D01*
X2979Y2416D02*
X3040Y2416D01*
X3180Y2416D02*
X3241Y2416D01*
X3280Y2416D02*
X3341Y2416D01*
X3380Y2416D02*
X3441Y2416D01*
X3480Y2416D02*
X3541Y2416D01*
X3580Y2416D02*
X3641Y2416D01*
X3680Y2416D02*
X3741Y2416D01*
X3780Y2416D02*
X3841Y2416D01*
X3880Y2416D02*
X3941Y2416D01*
X2279Y2415D02*
X2340Y2415D01*
X2379Y2415D02*
X2440Y2415D01*
X2479Y2415D02*
X2540Y2415D01*
X2579Y2415D02*
X2640Y2415D01*
X2679Y2415D02*
X2740Y2415D01*
X2779Y2415D02*
X2840Y2415D01*
X2879Y2415D02*
X2940Y2415D01*
X2979Y2415D02*
X3040Y2415D01*
X3180Y2415D02*
X3241Y2415D01*
X3280Y2415D02*
X3341Y2415D01*
X3380Y2415D02*
X3441Y2415D01*
X3480Y2415D02*
X3541Y2415D01*
X3580Y2415D02*
X3641Y2415D01*
X3680Y2415D02*
X3741Y2415D01*
X3780Y2415D02*
X3841Y2415D01*
X3880Y2415D02*
X3941Y2415D01*
X2279Y2414D02*
X2340Y2414D01*
X2379Y2414D02*
X2440Y2414D01*
X2479Y2414D02*
X2540Y2414D01*
X2579Y2414D02*
X2640Y2414D01*
X2679Y2414D02*
X2740Y2414D01*
X2779Y2414D02*
X2840Y2414D01*
X2879Y2414D02*
X2940Y2414D01*
X2979Y2414D02*
X3040Y2414D01*
X3180Y2414D02*
X3241Y2414D01*
X3280Y2414D02*
X3341Y2414D01*
X3380Y2414D02*
X3441Y2414D01*
X3480Y2414D02*
X3541Y2414D01*
X3580Y2414D02*
X3641Y2414D01*
X3680Y2414D02*
X3741Y2414D01*
X3780Y2414D02*
X3841Y2414D01*
X3880Y2414D02*
X3941Y2414D01*
X2279Y2413D02*
X2340Y2413D01*
X2379Y2413D02*
X2440Y2413D01*
X2479Y2413D02*
X2540Y2413D01*
X2579Y2413D02*
X2640Y2413D01*
X2679Y2413D02*
X2740Y2413D01*
X2779Y2413D02*
X2840Y2413D01*
X2879Y2413D02*
X2940Y2413D01*
X2979Y2413D02*
X3040Y2413D01*
X3180Y2413D02*
X3241Y2413D01*
X3280Y2413D02*
X3341Y2413D01*
X3380Y2413D02*
X3441Y2413D01*
X3480Y2413D02*
X3541Y2413D01*
X3580Y2413D02*
X3641Y2413D01*
X3680Y2413D02*
X3741Y2413D01*
X3780Y2413D02*
X3841Y2413D01*
X3880Y2413D02*
X3941Y2413D01*
X2279Y2412D02*
X2340Y2412D01*
X2379Y2412D02*
X2440Y2412D01*
X2479Y2412D02*
X2540Y2412D01*
X2579Y2412D02*
X2640Y2412D01*
X2679Y2412D02*
X2740Y2412D01*
X2779Y2412D02*
X2840Y2412D01*
X2879Y2412D02*
X2940Y2412D01*
X2979Y2412D02*
X3040Y2412D01*
X3180Y2412D02*
X3241Y2412D01*
X3280Y2412D02*
X3341Y2412D01*
X3380Y2412D02*
X3441Y2412D01*
X3480Y2412D02*
X3541Y2412D01*
X3580Y2412D02*
X3641Y2412D01*
X3680Y2412D02*
X3741Y2412D01*
X3780Y2412D02*
X3841Y2412D01*
X3880Y2412D02*
X3941Y2412D01*
X2279Y2411D02*
X2340Y2411D01*
X2379Y2411D02*
X2440Y2411D01*
X2479Y2411D02*
X2540Y2411D01*
X2579Y2411D02*
X2640Y2411D01*
X2679Y2411D02*
X2740Y2411D01*
X2779Y2411D02*
X2840Y2411D01*
X2879Y2411D02*
X2940Y2411D01*
X2979Y2411D02*
X3040Y2411D01*
X3180Y2411D02*
X3241Y2411D01*
X3280Y2411D02*
X3341Y2411D01*
X3380Y2411D02*
X3441Y2411D01*
X3480Y2411D02*
X3541Y2411D01*
X3580Y2411D02*
X3641Y2411D01*
X3680Y2411D02*
X3741Y2411D01*
X3780Y2411D02*
X3841Y2411D01*
X3880Y2411D02*
X3941Y2411D01*
X2279Y2410D02*
X2340Y2410D01*
X2379Y2410D02*
X2440Y2410D01*
X2479Y2410D02*
X2540Y2410D01*
X2579Y2410D02*
X2640Y2410D01*
X2679Y2410D02*
X2740Y2410D01*
X2779Y2410D02*
X2840Y2410D01*
X2879Y2410D02*
X2940Y2410D01*
X2979Y2410D02*
X3040Y2410D01*
X3180Y2410D02*
X3241Y2410D01*
X3280Y2410D02*
X3341Y2410D01*
X3380Y2410D02*
X3441Y2410D01*
X3480Y2410D02*
X3541Y2410D01*
X3580Y2410D02*
X3641Y2410D01*
X3680Y2410D02*
X3741Y2410D01*
X3780Y2410D02*
X3841Y2410D01*
X3880Y2410D02*
X3941Y2410D01*
X2279Y2409D02*
X2340Y2409D01*
X2379Y2409D02*
X2440Y2409D01*
X2479Y2409D02*
X2540Y2409D01*
X2579Y2409D02*
X2640Y2409D01*
X2679Y2409D02*
X2740Y2409D01*
X2779Y2409D02*
X2840Y2409D01*
X2879Y2409D02*
X2940Y2409D01*
X2979Y2409D02*
X3040Y2409D01*
X3180Y2409D02*
X3206Y2409D01*
X3216Y2409D02*
X3241Y2409D01*
X3280Y2409D02*
X3306Y2409D01*
X3316Y2409D02*
X3341Y2409D01*
X3380Y2409D02*
X3406Y2409D01*
X3416Y2409D02*
X3441Y2409D01*
X3480Y2409D02*
X3506Y2409D01*
X3516Y2409D02*
X3541Y2409D01*
X3580Y2409D02*
X3606Y2409D01*
X3616Y2409D02*
X3641Y2409D01*
X3680Y2409D02*
X3706Y2409D01*
X3715Y2409D02*
X3741Y2409D01*
X3780Y2409D02*
X3806Y2409D01*
X3815Y2409D02*
X3841Y2409D01*
X3880Y2409D02*
X3906Y2409D01*
X3915Y2409D02*
X3941Y2409D01*
X2279Y2408D02*
X2340Y2408D01*
X2379Y2408D02*
X2440Y2408D01*
X2479Y2408D02*
X2540Y2408D01*
X2579Y2408D02*
X2640Y2408D01*
X2679Y2408D02*
X2740Y2408D01*
X2779Y2408D02*
X2840Y2408D01*
X2879Y2408D02*
X2940Y2408D01*
X2979Y2408D02*
X3040Y2408D01*
X3180Y2408D02*
X3204Y2408D01*
X3218Y2408D02*
X3241Y2408D01*
X3280Y2408D02*
X3304Y2408D01*
X3318Y2408D02*
X3341Y2408D01*
X3380Y2408D02*
X3404Y2408D01*
X3418Y2408D02*
X3441Y2408D01*
X3480Y2408D02*
X3504Y2408D01*
X3518Y2408D02*
X3541Y2408D01*
X3580Y2408D02*
X3604Y2408D01*
X3618Y2408D02*
X3641Y2408D01*
X3680Y2408D02*
X3704Y2408D01*
X3718Y2408D02*
X3741Y2408D01*
X3780Y2408D02*
X3804Y2408D01*
X3818Y2408D02*
X3841Y2408D01*
X3880Y2408D02*
X3904Y2408D01*
X3918Y2408D02*
X3941Y2408D01*
X2279Y2407D02*
X2307Y2407D01*
X2312Y2407D02*
X2340Y2407D01*
X2379Y2407D02*
X2407Y2407D01*
X2412Y2407D02*
X2440Y2407D01*
X2479Y2407D02*
X2507Y2407D01*
X2512Y2407D02*
X2540Y2407D01*
X2579Y2407D02*
X2607Y2407D01*
X2612Y2407D02*
X2640Y2407D01*
X2679Y2407D02*
X2707Y2407D01*
X2712Y2407D02*
X2740Y2407D01*
X2779Y2407D02*
X2807Y2407D01*
X2812Y2407D02*
X2840Y2407D01*
X2879Y2407D02*
X2907Y2407D01*
X2912Y2407D02*
X2940Y2407D01*
X2979Y2407D02*
X3007Y2407D01*
X3012Y2407D02*
X3040Y2407D01*
X3180Y2407D02*
X3203Y2407D01*
X3219Y2407D02*
X3241Y2407D01*
X3280Y2407D02*
X3303Y2407D01*
X3319Y2407D02*
X3341Y2407D01*
X3380Y2407D02*
X3403Y2407D01*
X3419Y2407D02*
X3441Y2407D01*
X3480Y2407D02*
X3503Y2407D01*
X3519Y2407D02*
X3541Y2407D01*
X3580Y2407D02*
X3603Y2407D01*
X3619Y2407D02*
X3641Y2407D01*
X3680Y2407D02*
X3703Y2407D01*
X3719Y2407D02*
X3741Y2407D01*
X3780Y2407D02*
X3803Y2407D01*
X3819Y2407D02*
X3841Y2407D01*
X3880Y2407D02*
X3903Y2407D01*
X3919Y2407D02*
X3941Y2407D01*
X2279Y2406D02*
X2303Y2406D01*
X2315Y2406D02*
X2340Y2406D01*
X2379Y2406D02*
X2403Y2406D01*
X2415Y2406D02*
X2440Y2406D01*
X2479Y2406D02*
X2503Y2406D01*
X2515Y2406D02*
X2540Y2406D01*
X2579Y2406D02*
X2603Y2406D01*
X2615Y2406D02*
X2640Y2406D01*
X2679Y2406D02*
X2703Y2406D01*
X2715Y2406D02*
X2740Y2406D01*
X2779Y2406D02*
X2803Y2406D01*
X2815Y2406D02*
X2840Y2406D01*
X2879Y2406D02*
X2903Y2406D01*
X2915Y2406D02*
X2940Y2406D01*
X2979Y2406D02*
X3003Y2406D01*
X3015Y2406D02*
X3040Y2406D01*
X3180Y2406D02*
X3202Y2406D01*
X3220Y2406D02*
X3241Y2406D01*
X3280Y2406D02*
X3302Y2406D01*
X3320Y2406D02*
X3341Y2406D01*
X3380Y2406D02*
X3402Y2406D01*
X3420Y2406D02*
X3441Y2406D01*
X3480Y2406D02*
X3502Y2406D01*
X3520Y2406D02*
X3541Y2406D01*
X3580Y2406D02*
X3602Y2406D01*
X3620Y2406D02*
X3641Y2406D01*
X3680Y2406D02*
X3702Y2406D01*
X3720Y2406D02*
X3741Y2406D01*
X3780Y2406D02*
X3802Y2406D01*
X3820Y2406D02*
X3841Y2406D01*
X3880Y2406D02*
X3902Y2406D01*
X3920Y2406D02*
X3941Y2406D01*
X2279Y2405D02*
X2302Y2405D01*
X2317Y2405D02*
X2340Y2405D01*
X2379Y2405D02*
X2402Y2405D01*
X2417Y2405D02*
X2440Y2405D01*
X2479Y2405D02*
X2502Y2405D01*
X2517Y2405D02*
X2540Y2405D01*
X2579Y2405D02*
X2602Y2405D01*
X2617Y2405D02*
X2640Y2405D01*
X2679Y2405D02*
X2702Y2405D01*
X2717Y2405D02*
X2740Y2405D01*
X2779Y2405D02*
X2802Y2405D01*
X2817Y2405D02*
X2840Y2405D01*
X2879Y2405D02*
X2902Y2405D01*
X2917Y2405D02*
X2940Y2405D01*
X2979Y2405D02*
X3002Y2405D01*
X3017Y2405D02*
X3040Y2405D01*
X3180Y2405D02*
X3201Y2405D01*
X3221Y2405D02*
X3241Y2405D01*
X3280Y2405D02*
X3301Y2405D01*
X3321Y2405D02*
X3341Y2405D01*
X3380Y2405D02*
X3401Y2405D01*
X3421Y2405D02*
X3441Y2405D01*
X3480Y2405D02*
X3501Y2405D01*
X3521Y2405D02*
X3541Y2405D01*
X3580Y2405D02*
X3601Y2405D01*
X3621Y2405D02*
X3641Y2405D01*
X3680Y2405D02*
X3701Y2405D01*
X3721Y2405D02*
X3741Y2405D01*
X3780Y2405D02*
X3801Y2405D01*
X3821Y2405D02*
X3841Y2405D01*
X3880Y2405D02*
X3901Y2405D01*
X3921Y2405D02*
X3941Y2405D01*
X2279Y2404D02*
X2301Y2404D01*
X2318Y2404D02*
X2340Y2404D01*
X2379Y2404D02*
X2401Y2404D01*
X2418Y2404D02*
X2440Y2404D01*
X2479Y2404D02*
X2501Y2404D01*
X2518Y2404D02*
X2540Y2404D01*
X2579Y2404D02*
X2601Y2404D01*
X2618Y2404D02*
X2640Y2404D01*
X2679Y2404D02*
X2700Y2404D01*
X2718Y2404D02*
X2740Y2404D01*
X2779Y2404D02*
X2800Y2404D01*
X2818Y2404D02*
X2840Y2404D01*
X2879Y2404D02*
X2900Y2404D01*
X2918Y2404D02*
X2940Y2404D01*
X2979Y2404D02*
X3000Y2404D01*
X3018Y2404D02*
X3040Y2404D01*
X3180Y2404D02*
X3201Y2404D01*
X3221Y2404D02*
X3241Y2404D01*
X3280Y2404D02*
X3301Y2404D01*
X3321Y2404D02*
X3341Y2404D01*
X3380Y2404D02*
X3401Y2404D01*
X3421Y2404D02*
X3441Y2404D01*
X3480Y2404D02*
X3501Y2404D01*
X3521Y2404D02*
X3541Y2404D01*
X3580Y2404D02*
X3601Y2404D01*
X3621Y2404D02*
X3641Y2404D01*
X3680Y2404D02*
X3701Y2404D01*
X3721Y2404D02*
X3741Y2404D01*
X3780Y2404D02*
X3801Y2404D01*
X3821Y2404D02*
X3841Y2404D01*
X3880Y2404D02*
X3901Y2404D01*
X3921Y2404D02*
X3941Y2404D01*
X2279Y2403D02*
X2300Y2403D01*
X2319Y2403D02*
X2340Y2403D01*
X2379Y2403D02*
X2400Y2403D01*
X2419Y2403D02*
X2440Y2403D01*
X2479Y2403D02*
X2500Y2403D01*
X2519Y2403D02*
X2540Y2403D01*
X2579Y2403D02*
X2600Y2403D01*
X2619Y2403D02*
X2640Y2403D01*
X2679Y2403D02*
X2700Y2403D01*
X2719Y2403D02*
X2740Y2403D01*
X2779Y2403D02*
X2800Y2403D01*
X2819Y2403D02*
X2840Y2403D01*
X2879Y2403D02*
X2900Y2403D01*
X2919Y2403D02*
X2940Y2403D01*
X2979Y2403D02*
X3000Y2403D01*
X3019Y2403D02*
X3040Y2403D01*
X3180Y2403D02*
X3200Y2403D01*
X3222Y2403D02*
X3241Y2403D01*
X3280Y2403D02*
X3300Y2403D01*
X3322Y2403D02*
X3341Y2403D01*
X3380Y2403D02*
X3400Y2403D01*
X3422Y2403D02*
X3441Y2403D01*
X3480Y2403D02*
X3500Y2403D01*
X3522Y2403D02*
X3541Y2403D01*
X3580Y2403D02*
X3600Y2403D01*
X3622Y2403D02*
X3641Y2403D01*
X3680Y2403D02*
X3700Y2403D01*
X3722Y2403D02*
X3741Y2403D01*
X3780Y2403D02*
X3800Y2403D01*
X3822Y2403D02*
X3841Y2403D01*
X3880Y2403D02*
X3900Y2403D01*
X3922Y2403D02*
X3941Y2403D01*
X2279Y2402D02*
X2299Y2402D01*
X2319Y2402D02*
X2340Y2402D01*
X2379Y2402D02*
X2399Y2402D01*
X2419Y2402D02*
X2440Y2402D01*
X2479Y2402D02*
X2499Y2402D01*
X2519Y2402D02*
X2540Y2402D01*
X2579Y2402D02*
X2599Y2402D01*
X2619Y2402D02*
X2640Y2402D01*
X2679Y2402D02*
X2699Y2402D01*
X2719Y2402D02*
X2740Y2402D01*
X2779Y2402D02*
X2799Y2402D01*
X2819Y2402D02*
X2840Y2402D01*
X2879Y2402D02*
X2899Y2402D01*
X2919Y2402D02*
X2940Y2402D01*
X2979Y2402D02*
X2999Y2402D01*
X3019Y2402D02*
X3040Y2402D01*
X3180Y2402D02*
X3200Y2402D01*
X3222Y2402D02*
X3241Y2402D01*
X3280Y2402D02*
X3300Y2402D01*
X3322Y2402D02*
X3341Y2402D01*
X3380Y2402D02*
X3400Y2402D01*
X3422Y2402D02*
X3441Y2402D01*
X3480Y2402D02*
X3500Y2402D01*
X3522Y2402D02*
X3541Y2402D01*
X3580Y2402D02*
X3600Y2402D01*
X3622Y2402D02*
X3641Y2402D01*
X3680Y2402D02*
X3700Y2402D01*
X3722Y2402D02*
X3741Y2402D01*
X3780Y2402D02*
X3800Y2402D01*
X3822Y2402D02*
X3841Y2402D01*
X3880Y2402D02*
X3900Y2402D01*
X3922Y2402D02*
X3941Y2402D01*
X2279Y2401D02*
X2299Y2401D01*
X2320Y2401D02*
X2340Y2401D01*
X2379Y2401D02*
X2399Y2401D01*
X2420Y2401D02*
X2440Y2401D01*
X2479Y2401D02*
X2499Y2401D01*
X2520Y2401D02*
X2540Y2401D01*
X2579Y2401D02*
X2599Y2401D01*
X2620Y2401D02*
X2640Y2401D01*
X2679Y2401D02*
X2699Y2401D01*
X2720Y2401D02*
X2740Y2401D01*
X2779Y2401D02*
X2799Y2401D01*
X2820Y2401D02*
X2840Y2401D01*
X2879Y2401D02*
X2899Y2401D01*
X2920Y2401D02*
X2940Y2401D01*
X2979Y2401D02*
X2999Y2401D01*
X3020Y2401D02*
X3040Y2401D01*
X3180Y2401D02*
X3200Y2401D01*
X3222Y2401D02*
X3241Y2401D01*
X3280Y2401D02*
X3300Y2401D01*
X3322Y2401D02*
X3341Y2401D01*
X3380Y2401D02*
X3400Y2401D01*
X3422Y2401D02*
X3441Y2401D01*
X3480Y2401D02*
X3500Y2401D01*
X3522Y2401D02*
X3541Y2401D01*
X3580Y2401D02*
X3600Y2401D01*
X3622Y2401D02*
X3641Y2401D01*
X3680Y2401D02*
X3700Y2401D01*
X3722Y2401D02*
X3741Y2401D01*
X3780Y2401D02*
X3800Y2401D01*
X3822Y2401D02*
X3841Y2401D01*
X3880Y2401D02*
X3900Y2401D01*
X3922Y2401D02*
X3941Y2401D01*
X2279Y2400D02*
X2298Y2400D01*
X2320Y2400D02*
X2340Y2400D01*
X2379Y2400D02*
X2398Y2400D01*
X2420Y2400D02*
X2440Y2400D01*
X2479Y2400D02*
X2498Y2400D01*
X2520Y2400D02*
X2540Y2400D01*
X2579Y2400D02*
X2598Y2400D01*
X2620Y2400D02*
X2640Y2400D01*
X2679Y2400D02*
X2698Y2400D01*
X2720Y2400D02*
X2740Y2400D01*
X2779Y2400D02*
X2798Y2400D01*
X2820Y2400D02*
X2840Y2400D01*
X2879Y2400D02*
X2898Y2400D01*
X2920Y2400D02*
X2940Y2400D01*
X2979Y2400D02*
X2998Y2400D01*
X3020Y2400D02*
X3040Y2400D01*
X3180Y2400D02*
X3200Y2400D01*
X3222Y2400D02*
X3241Y2400D01*
X3280Y2400D02*
X3300Y2400D01*
X3322Y2400D02*
X3341Y2400D01*
X3380Y2400D02*
X3400Y2400D01*
X3422Y2400D02*
X3441Y2400D01*
X3480Y2400D02*
X3500Y2400D01*
X3522Y2400D02*
X3541Y2400D01*
X3580Y2400D02*
X3600Y2400D01*
X3622Y2400D02*
X3641Y2400D01*
X3680Y2400D02*
X3699Y2400D01*
X3722Y2400D02*
X3741Y2400D01*
X3780Y2400D02*
X3799Y2400D01*
X3822Y2400D02*
X3841Y2400D01*
X3880Y2400D02*
X3899Y2400D01*
X3922Y2400D02*
X3941Y2400D01*
X2279Y2399D02*
X2298Y2399D01*
X2320Y2399D02*
X2340Y2399D01*
X2379Y2399D02*
X2398Y2399D01*
X2420Y2399D02*
X2440Y2399D01*
X2479Y2399D02*
X2498Y2399D01*
X2520Y2399D02*
X2540Y2399D01*
X2579Y2399D02*
X2598Y2399D01*
X2620Y2399D02*
X2640Y2399D01*
X2679Y2399D02*
X2698Y2399D01*
X2720Y2399D02*
X2740Y2399D01*
X2779Y2399D02*
X2798Y2399D01*
X2820Y2399D02*
X2840Y2399D01*
X2879Y2399D02*
X2898Y2399D01*
X2920Y2399D02*
X2940Y2399D01*
X2979Y2399D02*
X2998Y2399D01*
X3020Y2399D02*
X3040Y2399D01*
X3180Y2399D02*
X3199Y2399D01*
X3222Y2399D02*
X3241Y2399D01*
X3280Y2399D02*
X3299Y2399D01*
X3322Y2399D02*
X3341Y2399D01*
X3380Y2399D02*
X3399Y2399D01*
X3422Y2399D02*
X3441Y2399D01*
X3480Y2399D02*
X3499Y2399D01*
X3522Y2399D02*
X3541Y2399D01*
X3580Y2399D02*
X3599Y2399D01*
X3622Y2399D02*
X3641Y2399D01*
X3680Y2399D02*
X3699Y2399D01*
X3722Y2399D02*
X3741Y2399D01*
X3780Y2399D02*
X3799Y2399D01*
X3822Y2399D02*
X3841Y2399D01*
X3880Y2399D02*
X3899Y2399D01*
X3922Y2399D02*
X3941Y2399D01*
X2279Y2398D02*
X2298Y2398D01*
X2321Y2398D02*
X2340Y2398D01*
X2379Y2398D02*
X2398Y2398D01*
X2421Y2398D02*
X2440Y2398D01*
X2479Y2398D02*
X2498Y2398D01*
X2521Y2398D02*
X2540Y2398D01*
X2579Y2398D02*
X2598Y2398D01*
X2621Y2398D02*
X2640Y2398D01*
X2679Y2398D02*
X2698Y2398D01*
X2721Y2398D02*
X2740Y2398D01*
X2779Y2398D02*
X2798Y2398D01*
X2821Y2398D02*
X2840Y2398D01*
X2879Y2398D02*
X2898Y2398D01*
X2921Y2398D02*
X2940Y2398D01*
X2979Y2398D02*
X2998Y2398D01*
X3021Y2398D02*
X3040Y2398D01*
X3180Y2398D02*
X3199Y2398D01*
X3222Y2398D02*
X3241Y2398D01*
X3280Y2398D02*
X3299Y2398D01*
X3322Y2398D02*
X3341Y2398D01*
X3380Y2398D02*
X3399Y2398D01*
X3422Y2398D02*
X3441Y2398D01*
X3480Y2398D02*
X3499Y2398D01*
X3522Y2398D02*
X3541Y2398D01*
X3580Y2398D02*
X3599Y2398D01*
X3622Y2398D02*
X3641Y2398D01*
X3680Y2398D02*
X3699Y2398D01*
X3722Y2398D02*
X3741Y2398D01*
X3780Y2398D02*
X3799Y2398D01*
X3822Y2398D02*
X3841Y2398D01*
X3880Y2398D02*
X3899Y2398D01*
X3922Y2398D02*
X3941Y2398D01*
X2279Y2397D02*
X2298Y2397D01*
X2321Y2397D02*
X2340Y2397D01*
X2379Y2397D02*
X2398Y2397D01*
X2421Y2397D02*
X2440Y2397D01*
X2479Y2397D02*
X2498Y2397D01*
X2521Y2397D02*
X2540Y2397D01*
X2579Y2397D02*
X2598Y2397D01*
X2621Y2397D02*
X2640Y2397D01*
X2679Y2397D02*
X2698Y2397D01*
X2721Y2397D02*
X2740Y2397D01*
X2779Y2397D02*
X2798Y2397D01*
X2821Y2397D02*
X2840Y2397D01*
X2879Y2397D02*
X2898Y2397D01*
X2921Y2397D02*
X2940Y2397D01*
X2979Y2397D02*
X2998Y2397D01*
X3021Y2397D02*
X3040Y2397D01*
X3180Y2397D02*
X3200Y2397D01*
X3222Y2397D02*
X3241Y2397D01*
X3280Y2397D02*
X3300Y2397D01*
X3322Y2397D02*
X3341Y2397D01*
X3380Y2397D02*
X3400Y2397D01*
X3422Y2397D02*
X3441Y2397D01*
X3480Y2397D02*
X3500Y2397D01*
X3522Y2397D02*
X3541Y2397D01*
X3580Y2397D02*
X3600Y2397D01*
X3622Y2397D02*
X3641Y2397D01*
X3680Y2397D02*
X3700Y2397D01*
X3722Y2397D02*
X3741Y2397D01*
X3780Y2397D02*
X3800Y2397D01*
X3822Y2397D02*
X3841Y2397D01*
X3880Y2397D02*
X3899Y2397D01*
X3922Y2397D02*
X3941Y2397D01*
X2279Y2396D02*
X2298Y2396D01*
X2321Y2396D02*
X2340Y2396D01*
X2379Y2396D02*
X2398Y2396D01*
X2421Y2396D02*
X2440Y2396D01*
X2479Y2396D02*
X2498Y2396D01*
X2521Y2396D02*
X2540Y2396D01*
X2579Y2396D02*
X2598Y2396D01*
X2621Y2396D02*
X2640Y2396D01*
X2679Y2396D02*
X2698Y2396D01*
X2721Y2396D02*
X2740Y2396D01*
X2779Y2396D02*
X2798Y2396D01*
X2821Y2396D02*
X2840Y2396D01*
X2879Y2396D02*
X2898Y2396D01*
X2921Y2396D02*
X2940Y2396D01*
X2979Y2396D02*
X2998Y2396D01*
X3021Y2396D02*
X3040Y2396D01*
X3180Y2396D02*
X3200Y2396D01*
X3222Y2396D02*
X3241Y2396D01*
X3280Y2396D02*
X3300Y2396D01*
X3322Y2396D02*
X3341Y2396D01*
X3380Y2396D02*
X3400Y2396D01*
X3422Y2396D02*
X3441Y2396D01*
X3480Y2396D02*
X3500Y2396D01*
X3522Y2396D02*
X3541Y2396D01*
X3580Y2396D02*
X3600Y2396D01*
X3622Y2396D02*
X3641Y2396D01*
X3680Y2396D02*
X3700Y2396D01*
X3722Y2396D02*
X3741Y2396D01*
X3780Y2396D02*
X3800Y2396D01*
X3822Y2396D02*
X3841Y2396D01*
X3880Y2396D02*
X3900Y2396D01*
X3922Y2396D02*
X3941Y2396D01*
X2279Y2395D02*
X2298Y2395D01*
X2321Y2395D02*
X2340Y2395D01*
X2379Y2395D02*
X2398Y2395D01*
X2421Y2395D02*
X2440Y2395D01*
X2479Y2395D02*
X2498Y2395D01*
X2521Y2395D02*
X2540Y2395D01*
X2579Y2395D02*
X2598Y2395D01*
X2621Y2395D02*
X2640Y2395D01*
X2679Y2395D02*
X2698Y2395D01*
X2721Y2395D02*
X2740Y2395D01*
X2779Y2395D02*
X2798Y2395D01*
X2821Y2395D02*
X2840Y2395D01*
X2879Y2395D02*
X2898Y2395D01*
X2921Y2395D02*
X2940Y2395D01*
X2979Y2395D02*
X2998Y2395D01*
X3021Y2395D02*
X3040Y2395D01*
X3180Y2395D02*
X3200Y2395D01*
X3222Y2395D02*
X3241Y2395D01*
X3280Y2395D02*
X3300Y2395D01*
X3322Y2395D02*
X3341Y2395D01*
X3380Y2395D02*
X3400Y2395D01*
X3422Y2395D02*
X3441Y2395D01*
X3480Y2395D02*
X3500Y2395D01*
X3522Y2395D02*
X3541Y2395D01*
X3580Y2395D02*
X3600Y2395D01*
X3622Y2395D02*
X3641Y2395D01*
X3680Y2395D02*
X3700Y2395D01*
X3722Y2395D02*
X3741Y2395D01*
X3780Y2395D02*
X3800Y2395D01*
X3822Y2395D02*
X3841Y2395D01*
X3880Y2395D02*
X3900Y2395D01*
X3922Y2395D02*
X3941Y2395D01*
X2279Y2394D02*
X2298Y2394D01*
X2321Y2394D02*
X2340Y2394D01*
X2379Y2394D02*
X2398Y2394D01*
X2421Y2394D02*
X2440Y2394D01*
X2479Y2394D02*
X2498Y2394D01*
X2521Y2394D02*
X2540Y2394D01*
X2579Y2394D02*
X2598Y2394D01*
X2621Y2394D02*
X2640Y2394D01*
X2679Y2394D02*
X2698Y2394D01*
X2721Y2394D02*
X2740Y2394D01*
X2779Y2394D02*
X2798Y2394D01*
X2821Y2394D02*
X2840Y2394D01*
X2879Y2394D02*
X2898Y2394D01*
X2921Y2394D02*
X2940Y2394D01*
X2979Y2394D02*
X2998Y2394D01*
X3020Y2394D02*
X3040Y2394D01*
X3180Y2394D02*
X3200Y2394D01*
X3222Y2394D02*
X3241Y2394D01*
X3280Y2394D02*
X3300Y2394D01*
X3322Y2394D02*
X3341Y2394D01*
X3380Y2394D02*
X3400Y2394D01*
X3422Y2394D02*
X3441Y2394D01*
X3480Y2394D02*
X3500Y2394D01*
X3522Y2394D02*
X3541Y2394D01*
X3580Y2394D02*
X3600Y2394D01*
X3622Y2394D02*
X3641Y2394D01*
X3680Y2394D02*
X3700Y2394D01*
X3722Y2394D02*
X3741Y2394D01*
X3780Y2394D02*
X3800Y2394D01*
X3822Y2394D02*
X3841Y2394D01*
X3880Y2394D02*
X3900Y2394D01*
X3922Y2394D02*
X3941Y2394D01*
X2279Y2393D02*
X2298Y2393D01*
X2320Y2393D02*
X2340Y2393D01*
X2379Y2393D02*
X2398Y2393D01*
X2420Y2393D02*
X2440Y2393D01*
X2479Y2393D02*
X2498Y2393D01*
X2520Y2393D02*
X2540Y2393D01*
X2579Y2393D02*
X2598Y2393D01*
X2620Y2393D02*
X2640Y2393D01*
X2679Y2393D02*
X2698Y2393D01*
X2720Y2393D02*
X2740Y2393D01*
X2779Y2393D02*
X2798Y2393D01*
X2820Y2393D02*
X2840Y2393D01*
X2879Y2393D02*
X2898Y2393D01*
X2920Y2393D02*
X2940Y2393D01*
X2979Y2393D02*
X2998Y2393D01*
X3020Y2393D02*
X3040Y2393D01*
X3180Y2393D02*
X3201Y2393D01*
X3221Y2393D02*
X3241Y2393D01*
X3280Y2393D02*
X3301Y2393D01*
X3321Y2393D02*
X3341Y2393D01*
X3380Y2393D02*
X3401Y2393D01*
X3421Y2393D02*
X3441Y2393D01*
X3480Y2393D02*
X3501Y2393D01*
X3521Y2393D02*
X3541Y2393D01*
X3580Y2393D02*
X3601Y2393D01*
X3621Y2393D02*
X3641Y2393D01*
X3680Y2393D02*
X3701Y2393D01*
X3721Y2393D02*
X3741Y2393D01*
X3780Y2393D02*
X3801Y2393D01*
X3821Y2393D02*
X3841Y2393D01*
X3880Y2393D02*
X3901Y2393D01*
X3921Y2393D02*
X3941Y2393D01*
X2279Y2392D02*
X2298Y2392D01*
X2320Y2392D02*
X2340Y2392D01*
X2379Y2392D02*
X2398Y2392D01*
X2420Y2392D02*
X2440Y2392D01*
X2479Y2392D02*
X2498Y2392D01*
X2520Y2392D02*
X2540Y2392D01*
X2579Y2392D02*
X2598Y2392D01*
X2620Y2392D02*
X2640Y2392D01*
X2679Y2392D02*
X2698Y2392D01*
X2720Y2392D02*
X2740Y2392D01*
X2779Y2392D02*
X2798Y2392D01*
X2820Y2392D02*
X2840Y2392D01*
X2879Y2392D02*
X2898Y2392D01*
X2920Y2392D02*
X2940Y2392D01*
X2979Y2392D02*
X2998Y2392D01*
X3020Y2392D02*
X3040Y2392D01*
X3180Y2392D02*
X3201Y2392D01*
X3221Y2392D02*
X3241Y2392D01*
X3280Y2392D02*
X3301Y2392D01*
X3321Y2392D02*
X3341Y2392D01*
X3380Y2392D02*
X3401Y2392D01*
X3421Y2392D02*
X3441Y2392D01*
X3480Y2392D02*
X3501Y2392D01*
X3521Y2392D02*
X3541Y2392D01*
X3580Y2392D02*
X3601Y2392D01*
X3621Y2392D02*
X3641Y2392D01*
X3680Y2392D02*
X3701Y2392D01*
X3721Y2392D02*
X3741Y2392D01*
X3780Y2392D02*
X3801Y2392D01*
X3821Y2392D02*
X3841Y2392D01*
X3880Y2392D02*
X3901Y2392D01*
X3921Y2392D02*
X3941Y2392D01*
X2279Y2391D02*
X2299Y2391D01*
X2320Y2391D02*
X2340Y2391D01*
X2379Y2391D02*
X2399Y2391D01*
X2420Y2391D02*
X2440Y2391D01*
X2479Y2391D02*
X2499Y2391D01*
X2520Y2391D02*
X2540Y2391D01*
X2579Y2391D02*
X2599Y2391D01*
X2620Y2391D02*
X2640Y2391D01*
X2679Y2391D02*
X2699Y2391D01*
X2720Y2391D02*
X2740Y2391D01*
X2779Y2391D02*
X2799Y2391D01*
X2820Y2391D02*
X2840Y2391D01*
X2879Y2391D02*
X2899Y2391D01*
X2920Y2391D02*
X2940Y2391D01*
X2979Y2391D02*
X2999Y2391D01*
X3020Y2391D02*
X3040Y2391D01*
X3180Y2391D02*
X3202Y2391D01*
X3220Y2391D02*
X3241Y2391D01*
X3280Y2391D02*
X3302Y2391D01*
X3320Y2391D02*
X3341Y2391D01*
X3380Y2391D02*
X3402Y2391D01*
X3420Y2391D02*
X3441Y2391D01*
X3480Y2391D02*
X3502Y2391D01*
X3520Y2391D02*
X3541Y2391D01*
X3580Y2391D02*
X3602Y2391D01*
X3620Y2391D02*
X3641Y2391D01*
X3680Y2391D02*
X3702Y2391D01*
X3720Y2391D02*
X3741Y2391D01*
X3780Y2391D02*
X3802Y2391D01*
X3820Y2391D02*
X3841Y2391D01*
X3880Y2391D02*
X3902Y2391D01*
X3920Y2391D02*
X3941Y2391D01*
X2279Y2390D02*
X2299Y2390D01*
X2319Y2390D02*
X2340Y2390D01*
X2379Y2390D02*
X2399Y2390D01*
X2419Y2390D02*
X2440Y2390D01*
X2479Y2390D02*
X2499Y2390D01*
X2519Y2390D02*
X2540Y2390D01*
X2579Y2390D02*
X2599Y2390D01*
X2619Y2390D02*
X2640Y2390D01*
X2679Y2390D02*
X2699Y2390D01*
X2719Y2390D02*
X2740Y2390D01*
X2779Y2390D02*
X2799Y2390D01*
X2819Y2390D02*
X2840Y2390D01*
X2879Y2390D02*
X2899Y2390D01*
X2919Y2390D02*
X2940Y2390D01*
X2979Y2390D02*
X2999Y2390D01*
X3019Y2390D02*
X3040Y2390D01*
X3180Y2390D02*
X3203Y2390D01*
X3219Y2390D02*
X3241Y2390D01*
X3280Y2390D02*
X3303Y2390D01*
X3319Y2390D02*
X3341Y2390D01*
X3380Y2390D02*
X3403Y2390D01*
X3419Y2390D02*
X3441Y2390D01*
X3480Y2390D02*
X3503Y2390D01*
X3519Y2390D02*
X3541Y2390D01*
X3580Y2390D02*
X3603Y2390D01*
X3619Y2390D02*
X3641Y2390D01*
X3680Y2390D02*
X3703Y2390D01*
X3719Y2390D02*
X3741Y2390D01*
X3780Y2390D02*
X3803Y2390D01*
X3819Y2390D02*
X3841Y2390D01*
X3880Y2390D02*
X3903Y2390D01*
X3919Y2390D02*
X3941Y2390D01*
X2279Y2389D02*
X2300Y2389D01*
X2319Y2389D02*
X2340Y2389D01*
X2379Y2389D02*
X2400Y2389D01*
X2419Y2389D02*
X2440Y2389D01*
X2479Y2389D02*
X2500Y2389D01*
X2519Y2389D02*
X2540Y2389D01*
X2579Y2389D02*
X2600Y2389D01*
X2618Y2389D02*
X2640Y2389D01*
X2679Y2389D02*
X2700Y2389D01*
X2718Y2389D02*
X2740Y2389D01*
X2779Y2389D02*
X2800Y2389D01*
X2818Y2389D02*
X2840Y2389D01*
X2879Y2389D02*
X2900Y2389D01*
X2918Y2389D02*
X2940Y2389D01*
X2979Y2389D02*
X3000Y2389D01*
X3018Y2389D02*
X3040Y2389D01*
X3180Y2389D02*
X3205Y2389D01*
X3217Y2389D02*
X3241Y2389D01*
X3280Y2389D02*
X3305Y2389D01*
X3317Y2389D02*
X3341Y2389D01*
X3380Y2389D02*
X3405Y2389D01*
X3417Y2389D02*
X3441Y2389D01*
X3480Y2389D02*
X3505Y2389D01*
X3517Y2389D02*
X3541Y2389D01*
X3580Y2389D02*
X3605Y2389D01*
X3617Y2389D02*
X3641Y2389D01*
X3680Y2389D02*
X3705Y2389D01*
X3717Y2389D02*
X3741Y2389D01*
X3780Y2389D02*
X3805Y2389D01*
X3817Y2389D02*
X3841Y2389D01*
X3880Y2389D02*
X3904Y2389D01*
X3917Y2389D02*
X3941Y2389D01*
X2279Y2388D02*
X2301Y2388D01*
X2318Y2388D02*
X2340Y2388D01*
X2379Y2388D02*
X2401Y2388D01*
X2418Y2388D02*
X2440Y2388D01*
X2479Y2388D02*
X2501Y2388D01*
X2518Y2388D02*
X2540Y2388D01*
X2579Y2388D02*
X2601Y2388D01*
X2618Y2388D02*
X2640Y2388D01*
X2679Y2388D02*
X2701Y2388D01*
X2718Y2388D02*
X2740Y2388D01*
X2779Y2388D02*
X2801Y2388D01*
X2818Y2388D02*
X2840Y2388D01*
X2879Y2388D02*
X2901Y2388D01*
X2918Y2388D02*
X2940Y2388D01*
X2979Y2388D02*
X3001Y2388D01*
X3018Y2388D02*
X3040Y2388D01*
X3180Y2388D02*
X3207Y2388D01*
X3215Y2388D02*
X3241Y2388D01*
X3280Y2388D02*
X3307Y2388D01*
X3315Y2388D02*
X3341Y2388D01*
X3380Y2388D02*
X3407Y2388D01*
X3415Y2388D02*
X3441Y2388D01*
X3480Y2388D02*
X3507Y2388D01*
X3515Y2388D02*
X3541Y2388D01*
X3580Y2388D02*
X3607Y2388D01*
X3615Y2388D02*
X3641Y2388D01*
X3680Y2388D02*
X3707Y2388D01*
X3715Y2388D02*
X3741Y2388D01*
X3780Y2388D02*
X3807Y2388D01*
X3815Y2388D02*
X3841Y2388D01*
X3880Y2388D02*
X3907Y2388D01*
X3915Y2388D02*
X3941Y2388D01*
X2279Y2387D02*
X2302Y2387D01*
X2316Y2387D02*
X2340Y2387D01*
X2379Y2387D02*
X2402Y2387D01*
X2416Y2387D02*
X2440Y2387D01*
X2479Y2387D02*
X2502Y2387D01*
X2516Y2387D02*
X2540Y2387D01*
X2579Y2387D02*
X2602Y2387D01*
X2616Y2387D02*
X2640Y2387D01*
X2679Y2387D02*
X2702Y2387D01*
X2716Y2387D02*
X2740Y2387D01*
X2779Y2387D02*
X2802Y2387D01*
X2816Y2387D02*
X2840Y2387D01*
X2879Y2387D02*
X2902Y2387D01*
X2916Y2387D02*
X2940Y2387D01*
X2979Y2387D02*
X3002Y2387D01*
X3016Y2387D02*
X3040Y2387D01*
X3180Y2387D02*
X3241Y2387D01*
X3280Y2387D02*
X3341Y2387D01*
X3380Y2387D02*
X3441Y2387D01*
X3480Y2387D02*
X3541Y2387D01*
X3580Y2387D02*
X3641Y2387D01*
X3680Y2387D02*
X3741Y2387D01*
X3780Y2387D02*
X3841Y2387D01*
X3880Y2387D02*
X3941Y2387D01*
X2279Y2386D02*
X2304Y2386D01*
X2314Y2386D02*
X2340Y2386D01*
X2379Y2386D02*
X2404Y2386D01*
X2414Y2386D02*
X2440Y2386D01*
X2479Y2386D02*
X2504Y2386D01*
X2514Y2386D02*
X2540Y2386D01*
X2579Y2386D02*
X2604Y2386D01*
X2614Y2386D02*
X2640Y2386D01*
X2679Y2386D02*
X2704Y2386D01*
X2714Y2386D02*
X2740Y2386D01*
X2779Y2386D02*
X2804Y2386D01*
X2814Y2386D02*
X2840Y2386D01*
X2879Y2386D02*
X2904Y2386D01*
X2914Y2386D02*
X2940Y2386D01*
X2979Y2386D02*
X3004Y2386D01*
X3014Y2386D02*
X3040Y2386D01*
X3180Y2386D02*
X3241Y2386D01*
X3280Y2386D02*
X3341Y2386D01*
X3380Y2386D02*
X3441Y2386D01*
X3480Y2386D02*
X3541Y2386D01*
X3580Y2386D02*
X3641Y2386D01*
X3680Y2386D02*
X3741Y2386D01*
X3780Y2386D02*
X3841Y2386D01*
X3880Y2386D02*
X3941Y2386D01*
X2279Y2385D02*
X2340Y2385D01*
X2379Y2385D02*
X2440Y2385D01*
X2479Y2385D02*
X2540Y2385D01*
X2579Y2385D02*
X2640Y2385D01*
X2679Y2385D02*
X2740Y2385D01*
X2779Y2385D02*
X2840Y2385D01*
X2879Y2385D02*
X2940Y2385D01*
X2979Y2385D02*
X3040Y2385D01*
X3180Y2385D02*
X3241Y2385D01*
X3280Y2385D02*
X3341Y2385D01*
X3380Y2385D02*
X3441Y2385D01*
X3480Y2385D02*
X3541Y2385D01*
X3580Y2385D02*
X3641Y2385D01*
X3680Y2385D02*
X3741Y2385D01*
X3780Y2385D02*
X3841Y2385D01*
X3880Y2385D02*
X3941Y2385D01*
X2279Y2384D02*
X2340Y2384D01*
X2379Y2384D02*
X2440Y2384D01*
X2479Y2384D02*
X2540Y2384D01*
X2579Y2384D02*
X2640Y2384D01*
X2679Y2384D02*
X2740Y2384D01*
X2779Y2384D02*
X2840Y2384D01*
X2879Y2384D02*
X2940Y2384D01*
X2979Y2384D02*
X3040Y2384D01*
X3180Y2384D02*
X3241Y2384D01*
X3280Y2384D02*
X3341Y2384D01*
X3380Y2384D02*
X3441Y2384D01*
X3480Y2384D02*
X3541Y2384D01*
X3580Y2384D02*
X3641Y2384D01*
X3680Y2384D02*
X3741Y2384D01*
X3780Y2384D02*
X3841Y2384D01*
X3880Y2384D02*
X3941Y2384D01*
X2279Y2383D02*
X2340Y2383D01*
X2379Y2383D02*
X2440Y2383D01*
X2479Y2383D02*
X2540Y2383D01*
X2579Y2383D02*
X2640Y2383D01*
X2679Y2383D02*
X2740Y2383D01*
X2779Y2383D02*
X2840Y2383D01*
X2879Y2383D02*
X2940Y2383D01*
X2979Y2383D02*
X3040Y2383D01*
X3180Y2383D02*
X3241Y2383D01*
X3280Y2383D02*
X3341Y2383D01*
X3380Y2383D02*
X3441Y2383D01*
X3480Y2383D02*
X3541Y2383D01*
X3580Y2383D02*
X3641Y2383D01*
X3680Y2383D02*
X3741Y2383D01*
X3780Y2383D02*
X3841Y2383D01*
X3880Y2383D02*
X3941Y2383D01*
X2279Y2382D02*
X2340Y2382D01*
X2379Y2382D02*
X2440Y2382D01*
X2479Y2382D02*
X2540Y2382D01*
X2579Y2382D02*
X2640Y2382D01*
X2679Y2382D02*
X2740Y2382D01*
X2779Y2382D02*
X2840Y2382D01*
X2879Y2382D02*
X2940Y2382D01*
X2979Y2382D02*
X3040Y2382D01*
X3180Y2382D02*
X3241Y2382D01*
X3280Y2382D02*
X3341Y2382D01*
X3380Y2382D02*
X3441Y2382D01*
X3480Y2382D02*
X3541Y2382D01*
X3580Y2382D02*
X3641Y2382D01*
X3680Y2382D02*
X3741Y2382D01*
X3780Y2382D02*
X3841Y2382D01*
X3880Y2382D02*
X3941Y2382D01*
X2279Y2381D02*
X2340Y2381D01*
X2379Y2381D02*
X2440Y2381D01*
X2479Y2381D02*
X2540Y2381D01*
X2579Y2381D02*
X2640Y2381D01*
X2679Y2381D02*
X2740Y2381D01*
X2779Y2381D02*
X2840Y2381D01*
X2879Y2381D02*
X2940Y2381D01*
X2979Y2381D02*
X3040Y2381D01*
X3180Y2381D02*
X3241Y2381D01*
X3280Y2381D02*
X3341Y2381D01*
X3380Y2381D02*
X3441Y2381D01*
X3480Y2381D02*
X3541Y2381D01*
X3580Y2381D02*
X3641Y2381D01*
X3680Y2381D02*
X3741Y2381D01*
X3780Y2381D02*
X3841Y2381D01*
X3880Y2381D02*
X3941Y2381D01*
X2279Y2380D02*
X2340Y2380D01*
X2379Y2380D02*
X2440Y2380D01*
X2479Y2380D02*
X2540Y2380D01*
X2579Y2380D02*
X2640Y2380D01*
X2679Y2380D02*
X2740Y2380D01*
X2779Y2380D02*
X2840Y2380D01*
X2879Y2380D02*
X2940Y2380D01*
X2979Y2380D02*
X3040Y2380D01*
X3180Y2380D02*
X3241Y2380D01*
X3280Y2380D02*
X3341Y2380D01*
X3380Y2380D02*
X3441Y2380D01*
X3480Y2380D02*
X3541Y2380D01*
X3580Y2380D02*
X3641Y2380D01*
X3680Y2380D02*
X3741Y2380D01*
X3780Y2380D02*
X3841Y2380D01*
X3880Y2380D02*
X3941Y2380D01*
X2279Y2379D02*
X2340Y2379D01*
X2379Y2379D02*
X2440Y2379D01*
X2479Y2379D02*
X2540Y2379D01*
X2579Y2379D02*
X2640Y2379D01*
X2679Y2379D02*
X2740Y2379D01*
X2779Y2379D02*
X2840Y2379D01*
X2879Y2379D02*
X2940Y2379D01*
X2979Y2379D02*
X3040Y2379D01*
X3180Y2379D02*
X3241Y2379D01*
X3280Y2379D02*
X3341Y2379D01*
X3380Y2379D02*
X3441Y2379D01*
X3480Y2379D02*
X3541Y2379D01*
X3580Y2379D02*
X3641Y2379D01*
X3680Y2379D02*
X3741Y2379D01*
X3780Y2379D02*
X3841Y2379D01*
X3880Y2379D02*
X3941Y2379D01*
X2279Y2378D02*
X2340Y2378D01*
X2379Y2378D02*
X2440Y2378D01*
X2479Y2378D02*
X2540Y2378D01*
X2579Y2378D02*
X2640Y2378D01*
X2679Y2378D02*
X2740Y2378D01*
X2779Y2378D02*
X2840Y2378D01*
X2879Y2378D02*
X2940Y2378D01*
X2979Y2378D02*
X3040Y2378D01*
X3180Y2378D02*
X3241Y2378D01*
X3280Y2378D02*
X3341Y2378D01*
X3380Y2378D02*
X3441Y2378D01*
X3480Y2378D02*
X3541Y2378D01*
X3580Y2378D02*
X3641Y2378D01*
X3680Y2378D02*
X3741Y2378D01*
X3780Y2378D02*
X3841Y2378D01*
X3880Y2378D02*
X3941Y2378D01*
X2279Y2377D02*
X2340Y2377D01*
X2379Y2377D02*
X2440Y2377D01*
X2479Y2377D02*
X2540Y2377D01*
X2579Y2377D02*
X2640Y2377D01*
X2679Y2377D02*
X2740Y2377D01*
X2779Y2377D02*
X2840Y2377D01*
X2879Y2377D02*
X2940Y2377D01*
X2979Y2377D02*
X3040Y2377D01*
X3180Y2377D02*
X3241Y2377D01*
X3280Y2377D02*
X3341Y2377D01*
X3380Y2377D02*
X3441Y2377D01*
X3480Y2377D02*
X3541Y2377D01*
X3580Y2377D02*
X3641Y2377D01*
X3680Y2377D02*
X3741Y2377D01*
X3780Y2377D02*
X3841Y2377D01*
X3880Y2377D02*
X3941Y2377D01*
X2279Y2376D02*
X2340Y2376D01*
X2379Y2376D02*
X2440Y2376D01*
X2479Y2376D02*
X2540Y2376D01*
X2579Y2376D02*
X2640Y2376D01*
X2679Y2376D02*
X2740Y2376D01*
X2779Y2376D02*
X2840Y2376D01*
X2879Y2376D02*
X2940Y2376D01*
X2979Y2376D02*
X3040Y2376D01*
X3180Y2376D02*
X3241Y2376D01*
X3280Y2376D02*
X3341Y2376D01*
X3380Y2376D02*
X3441Y2376D01*
X3480Y2376D02*
X3541Y2376D01*
X3580Y2376D02*
X3641Y2376D01*
X3680Y2376D02*
X3741Y2376D01*
X3780Y2376D02*
X3841Y2376D01*
X3880Y2376D02*
X3941Y2376D01*
X2279Y2375D02*
X2340Y2375D01*
X2379Y2375D02*
X2440Y2375D01*
X2479Y2375D02*
X2540Y2375D01*
X2579Y2375D02*
X2640Y2375D01*
X2679Y2375D02*
X2740Y2375D01*
X2779Y2375D02*
X2840Y2375D01*
X2879Y2375D02*
X2940Y2375D01*
X2979Y2375D02*
X3040Y2375D01*
X3180Y2375D02*
X3241Y2375D01*
X3280Y2375D02*
X3341Y2375D01*
X3380Y2375D02*
X3441Y2375D01*
X3480Y2375D02*
X3541Y2375D01*
X3580Y2375D02*
X3641Y2375D01*
X3680Y2375D02*
X3741Y2375D01*
X3780Y2375D02*
X3841Y2375D01*
X3880Y2375D02*
X3941Y2375D01*
X2279Y2374D02*
X2340Y2374D01*
X2379Y2374D02*
X2440Y2374D01*
X2479Y2374D02*
X2540Y2374D01*
X2579Y2374D02*
X2640Y2374D01*
X2679Y2374D02*
X2740Y2374D01*
X2779Y2374D02*
X2840Y2374D01*
X2879Y2374D02*
X2940Y2374D01*
X2979Y2374D02*
X3040Y2374D01*
X3180Y2374D02*
X3241Y2374D01*
X3280Y2374D02*
X3341Y2374D01*
X3380Y2374D02*
X3441Y2374D01*
X3480Y2374D02*
X3541Y2374D01*
X3580Y2374D02*
X3641Y2374D01*
X3680Y2374D02*
X3741Y2374D01*
X3780Y2374D02*
X3841Y2374D01*
X3880Y2374D02*
X3941Y2374D01*
X2279Y2373D02*
X2340Y2373D01*
X2379Y2373D02*
X2440Y2373D01*
X2479Y2373D02*
X2540Y2373D01*
X2579Y2373D02*
X2640Y2373D01*
X2679Y2373D02*
X2740Y2373D01*
X2779Y2373D02*
X2840Y2373D01*
X2879Y2373D02*
X2940Y2373D01*
X2979Y2373D02*
X3040Y2373D01*
X3180Y2373D02*
X3241Y2373D01*
X3280Y2373D02*
X3341Y2373D01*
X3380Y2373D02*
X3441Y2373D01*
X3480Y2373D02*
X3541Y2373D01*
X3580Y2373D02*
X3641Y2373D01*
X3680Y2373D02*
X3741Y2373D01*
X3780Y2373D02*
X3841Y2373D01*
X3880Y2373D02*
X3941Y2373D01*
X2279Y2372D02*
X2340Y2372D01*
X2379Y2372D02*
X2440Y2372D01*
X2479Y2372D02*
X2540Y2372D01*
X2579Y2372D02*
X2640Y2372D01*
X2679Y2372D02*
X2740Y2372D01*
X2779Y2372D02*
X2840Y2372D01*
X2879Y2372D02*
X2940Y2372D01*
X2979Y2372D02*
X3040Y2372D01*
X3180Y2372D02*
X3241Y2372D01*
X3280Y2372D02*
X3341Y2372D01*
X3380Y2372D02*
X3441Y2372D01*
X3480Y2372D02*
X3541Y2372D01*
X3580Y2372D02*
X3641Y2372D01*
X3680Y2372D02*
X3741Y2372D01*
X3780Y2372D02*
X3841Y2372D01*
X3880Y2372D02*
X3941Y2372D01*
X2279Y2371D02*
X2340Y2371D01*
X2379Y2371D02*
X2440Y2371D01*
X2479Y2371D02*
X2540Y2371D01*
X2579Y2371D02*
X2640Y2371D01*
X2679Y2371D02*
X2740Y2371D01*
X2779Y2371D02*
X2840Y2371D01*
X2879Y2371D02*
X2940Y2371D01*
X2979Y2371D02*
X3040Y2371D01*
X3181Y2371D02*
X3241Y2371D01*
X3280Y2371D02*
X3341Y2371D01*
X3380Y2371D02*
X3441Y2371D01*
X3480Y2371D02*
X3541Y2371D01*
X3580Y2371D02*
X3641Y2371D01*
X3680Y2371D02*
X3741Y2371D01*
X3780Y2371D02*
X3841Y2371D01*
X3880Y2371D02*
X3941Y2371D01*
X2279Y2370D02*
X2340Y2370D01*
X2379Y2370D02*
X2440Y2370D01*
X2479Y2370D02*
X2540Y2370D01*
X2579Y2370D02*
X2640Y2370D01*
X2679Y2370D02*
X2740Y2370D01*
X2779Y2370D02*
X2840Y2370D01*
X2879Y2370D02*
X2940Y2370D01*
X2979Y2370D02*
X3040Y2370D01*
X3181Y2370D02*
X3241Y2370D01*
X3281Y2370D02*
X3341Y2370D01*
X3381Y2370D02*
X3441Y2370D01*
X3481Y2370D02*
X3541Y2370D01*
X3581Y2370D02*
X3641Y2370D01*
X3681Y2370D02*
X3741Y2370D01*
X3781Y2370D02*
X3841Y2370D01*
X3881Y2370D02*
X3941Y2370D01*
X2279Y2369D02*
X2340Y2369D01*
X2379Y2369D02*
X2440Y2369D01*
X2479Y2369D02*
X2540Y2369D01*
X2579Y2369D02*
X2640Y2369D01*
X2679Y2369D02*
X2740Y2369D01*
X2779Y2369D02*
X2840Y2369D01*
X2879Y2369D02*
X2940Y2369D01*
X2979Y2369D02*
X3040Y2369D01*
X3181Y2369D02*
X3241Y2369D01*
X3281Y2369D02*
X3341Y2369D01*
X3381Y2369D02*
X3441Y2369D01*
X3481Y2369D02*
X3541Y2369D01*
X3581Y2369D02*
X3641Y2369D01*
X3681Y2369D02*
X3741Y2369D01*
X3781Y2369D02*
X3841Y2369D01*
X3881Y2369D02*
X3941Y2369D01*
X2279Y2368D02*
X2340Y2368D01*
X2379Y2368D02*
X2440Y2368D01*
X2479Y2368D02*
X2540Y2368D01*
X2579Y2368D02*
X2640Y2368D01*
X2679Y2368D02*
X2740Y2368D01*
X2779Y2368D02*
X2840Y2368D01*
X2879Y2368D02*
X2940Y2368D01*
X2979Y2368D02*
X3040Y2368D01*
X3181Y2368D02*
X3241Y2368D01*
X3281Y2368D02*
X3341Y2368D01*
X3381Y2368D02*
X3441Y2368D01*
X3481Y2368D02*
X3541Y2368D01*
X3581Y2368D02*
X3641Y2368D01*
X3681Y2368D02*
X3741Y2368D01*
X3781Y2368D02*
X3841Y2368D01*
X3881Y2368D02*
X3941Y2368D01*
X2279Y2367D02*
X2340Y2367D01*
X2379Y2367D02*
X2440Y2367D01*
X2479Y2367D02*
X2540Y2367D01*
X2579Y2367D02*
X2640Y2367D01*
X2679Y2367D02*
X2740Y2367D01*
X2779Y2367D02*
X2839Y2367D01*
X2879Y2367D02*
X2939Y2367D01*
X2979Y2367D02*
X3039Y2367D01*
X3181Y2367D02*
X3241Y2367D01*
X3281Y2367D02*
X3341Y2367D01*
X3381Y2367D02*
X3441Y2367D01*
X3481Y2367D02*
X3541Y2367D01*
X3581Y2367D02*
X3641Y2367D01*
X3681Y2367D02*
X3741Y2367D01*
X3781Y2367D02*
X3841Y2367D01*
X3881Y2367D02*
X3941Y2367D01*
X2279Y2366D02*
X2339Y2366D01*
X2379Y2366D02*
X2439Y2366D01*
X2479Y2366D02*
X2539Y2366D01*
X2579Y2366D02*
X2639Y2366D01*
X2679Y2366D02*
X2739Y2366D01*
X2779Y2366D02*
X2839Y2366D01*
X2879Y2366D02*
X2939Y2366D01*
X2979Y2366D02*
X3039Y2366D01*
X3181Y2366D02*
X3241Y2366D01*
X3281Y2366D02*
X3341Y2366D01*
X3381Y2366D02*
X3441Y2366D01*
X3481Y2366D02*
X3541Y2366D01*
X3581Y2366D02*
X3641Y2366D01*
X3681Y2366D02*
X3741Y2366D01*
X3781Y2366D02*
X3841Y2366D01*
X3881Y2366D02*
X3941Y2366D01*
X2279Y2365D02*
X2339Y2365D01*
X2379Y2365D02*
X2439Y2365D01*
X2479Y2365D02*
X2539Y2365D01*
X2579Y2365D02*
X2639Y2365D01*
X2679Y2365D02*
X2739Y2365D01*
X2779Y2365D02*
X2839Y2365D01*
X2879Y2365D02*
X2939Y2365D01*
X2979Y2365D02*
X3039Y2365D01*
X3182Y2365D02*
X3240Y2365D01*
X3281Y2365D02*
X3340Y2365D01*
X3381Y2365D02*
X3440Y2365D01*
X3481Y2365D02*
X3540Y2365D01*
X3581Y2365D02*
X3640Y2365D01*
X3681Y2365D02*
X3740Y2365D01*
X3781Y2365D02*
X3840Y2365D01*
X3881Y2365D02*
X3940Y2365D01*
X2279Y2364D02*
X2339Y2364D01*
X2379Y2364D02*
X2439Y2364D01*
X2479Y2364D02*
X2539Y2364D01*
X2579Y2364D02*
X2639Y2364D01*
X2679Y2364D02*
X2739Y2364D01*
X2779Y2364D02*
X2839Y2364D01*
X2879Y2364D02*
X2939Y2364D01*
X2979Y2364D02*
X3039Y2364D01*
X3182Y2364D02*
X3240Y2364D01*
X3282Y2364D02*
X3340Y2364D01*
X3382Y2364D02*
X3440Y2364D01*
X3482Y2364D02*
X3540Y2364D01*
X3582Y2364D02*
X3640Y2364D01*
X3682Y2364D02*
X3740Y2364D01*
X3782Y2364D02*
X3840Y2364D01*
X3882Y2364D02*
X3940Y2364D01*
X2280Y2363D02*
X2339Y2363D01*
X2380Y2363D02*
X2439Y2363D01*
X2480Y2363D02*
X2539Y2363D01*
X2580Y2363D02*
X2639Y2363D01*
X2680Y2363D02*
X2739Y2363D01*
X2780Y2363D02*
X2839Y2363D01*
X2880Y2363D02*
X2939Y2363D01*
X2980Y2363D02*
X3039Y2363D01*
X3182Y2363D02*
X3240Y2363D01*
X3282Y2363D02*
X3340Y2363D01*
X3382Y2363D02*
X3440Y2363D01*
X3482Y2363D02*
X3540Y2363D01*
X3582Y2363D02*
X3640Y2363D01*
X3682Y2363D02*
X3740Y2363D01*
X3782Y2363D02*
X3840Y2363D01*
X3882Y2363D02*
X3940Y2363D01*
X2280Y2362D02*
X2339Y2362D01*
X2380Y2362D02*
X2438Y2362D01*
X2480Y2362D02*
X2538Y2362D01*
X2580Y2362D02*
X2638Y2362D01*
X2680Y2362D02*
X2738Y2362D01*
X2780Y2362D02*
X2838Y2362D01*
X2880Y2362D02*
X2938Y2362D01*
X2980Y2362D02*
X3038Y2362D01*
X3183Y2362D02*
X3239Y2362D01*
X3282Y2362D02*
X3339Y2362D01*
X3382Y2362D02*
X3439Y2362D01*
X3482Y2362D02*
X3539Y2362D01*
X3582Y2362D02*
X3639Y2362D01*
X3682Y2362D02*
X3739Y2362D01*
X3782Y2362D02*
X3839Y2362D01*
X3882Y2362D02*
X3939Y2362D01*
X2280Y2361D02*
X2338Y2361D01*
X2380Y2361D02*
X2438Y2361D01*
X2480Y2361D02*
X2538Y2361D01*
X2580Y2361D02*
X2638Y2361D01*
X2680Y2361D02*
X2738Y2361D01*
X2780Y2361D02*
X2838Y2361D01*
X2880Y2361D02*
X2938Y2361D01*
X2980Y2361D02*
X3038Y2361D01*
X3183Y2361D02*
X3239Y2361D01*
X3283Y2361D02*
X3339Y2361D01*
X3383Y2361D02*
X3439Y2361D01*
X3483Y2361D02*
X3539Y2361D01*
X3583Y2361D02*
X3639Y2361D01*
X3683Y2361D02*
X3739Y2361D01*
X3783Y2361D02*
X3839Y2361D01*
X3883Y2361D02*
X3939Y2361D01*
X2281Y2360D02*
X2338Y2360D01*
X2381Y2360D02*
X2438Y2360D01*
X2481Y2360D02*
X2538Y2360D01*
X2581Y2360D02*
X2638Y2360D01*
X2681Y2360D02*
X2738Y2360D01*
X2781Y2360D02*
X2838Y2360D01*
X2881Y2360D02*
X2938Y2360D01*
X2981Y2360D02*
X3038Y2360D01*
X3183Y2360D02*
X3239Y2360D01*
X3283Y2360D02*
X3339Y2360D01*
X3383Y2360D02*
X3439Y2360D01*
X3483Y2360D02*
X3539Y2360D01*
X3583Y2360D02*
X3639Y2360D01*
X3683Y2360D02*
X3738Y2360D01*
X3783Y2360D02*
X3838Y2360D01*
X3883Y2360D02*
X3938Y2360D01*
X2281Y2359D02*
X2337Y2359D01*
X2381Y2359D02*
X2437Y2359D01*
X2481Y2359D02*
X2537Y2359D01*
X2581Y2359D02*
X2637Y2359D01*
X2681Y2359D02*
X2737Y2359D01*
X2781Y2359D02*
X2837Y2359D01*
X2881Y2359D02*
X2937Y2359D01*
X2981Y2359D02*
X3037Y2359D01*
X3184Y2359D02*
X3238Y2359D01*
X3284Y2359D02*
X3338Y2359D01*
X3384Y2359D02*
X3438Y2359D01*
X3484Y2359D02*
X3538Y2359D01*
X3584Y2359D02*
X3638Y2359D01*
X3684Y2359D02*
X3738Y2359D01*
X3784Y2359D02*
X3838Y2359D01*
X3884Y2359D02*
X3938Y2359D01*
X2281Y2358D02*
X2337Y2358D01*
X2381Y2358D02*
X2437Y2358D01*
X2481Y2358D02*
X2537Y2358D01*
X2581Y2358D02*
X2637Y2358D01*
X2681Y2358D02*
X2737Y2358D01*
X2781Y2358D02*
X2837Y2358D01*
X2881Y2358D02*
X2937Y2358D01*
X2981Y2358D02*
X3037Y2358D01*
X3184Y2358D02*
X3237Y2358D01*
X3284Y2358D02*
X3337Y2358D01*
X3384Y2358D02*
X3437Y2358D01*
X3484Y2358D02*
X3537Y2358D01*
X3584Y2358D02*
X3637Y2358D01*
X3684Y2358D02*
X3737Y2358D01*
X3784Y2358D02*
X3837Y2358D01*
X3884Y2358D02*
X3937Y2358D01*
X2282Y2357D02*
X2337Y2357D01*
X2382Y2357D02*
X2437Y2357D01*
X2482Y2357D02*
X2537Y2357D01*
X2582Y2357D02*
X2637Y2357D01*
X2682Y2357D02*
X2736Y2357D01*
X2782Y2357D02*
X2836Y2357D01*
X2882Y2357D02*
X2936Y2357D01*
X2982Y2357D02*
X3036Y2357D01*
X3185Y2357D02*
X3237Y2357D01*
X3285Y2357D02*
X3337Y2357D01*
X3385Y2357D02*
X3437Y2357D01*
X3485Y2357D02*
X3537Y2357D01*
X3585Y2357D02*
X3637Y2357D01*
X3685Y2357D02*
X3737Y2357D01*
X3785Y2357D02*
X3837Y2357D01*
X3885Y2357D02*
X3937Y2357D01*
X2282Y2356D02*
X2336Y2356D01*
X2382Y2356D02*
X2436Y2356D01*
X2482Y2356D02*
X2536Y2356D01*
X2582Y2356D02*
X2636Y2356D01*
X2682Y2356D02*
X2736Y2356D01*
X2782Y2356D02*
X2836Y2356D01*
X2882Y2356D02*
X2936Y2356D01*
X2982Y2356D02*
X3036Y2356D01*
X3186Y2356D02*
X3236Y2356D01*
X3286Y2356D02*
X3336Y2356D01*
X3386Y2356D02*
X3436Y2356D01*
X3486Y2356D02*
X3536Y2356D01*
X3586Y2356D02*
X3636Y2356D01*
X3686Y2356D02*
X3736Y2356D01*
X3786Y2356D02*
X3836Y2356D01*
X3886Y2356D02*
X3936Y2356D01*
X2283Y2355D02*
X2335Y2355D01*
X2383Y2355D02*
X2435Y2355D01*
X2483Y2355D02*
X2535Y2355D01*
X2583Y2355D02*
X2635Y2355D01*
X2683Y2355D02*
X2735Y2355D01*
X2783Y2355D02*
X2835Y2355D01*
X2883Y2355D02*
X2935Y2355D01*
X2983Y2355D02*
X3035Y2355D01*
X3186Y2355D02*
X3236Y2355D01*
X3286Y2355D02*
X3336Y2355D01*
X3386Y2355D02*
X3436Y2355D01*
X3486Y2355D02*
X3536Y2355D01*
X3586Y2355D02*
X3636Y2355D01*
X3686Y2355D02*
X3736Y2355D01*
X3786Y2355D02*
X3836Y2355D01*
X3886Y2355D02*
X3936Y2355D01*
X2284Y2354D02*
X2335Y2354D01*
X2384Y2354D02*
X2435Y2354D01*
X2484Y2354D02*
X2535Y2354D01*
X2584Y2354D02*
X2635Y2354D01*
X2684Y2354D02*
X2735Y2354D01*
X2784Y2354D02*
X2835Y2354D01*
X2884Y2354D02*
X2935Y2354D01*
X2984Y2354D02*
X3035Y2354D01*
X3187Y2354D02*
X3235Y2354D01*
X3287Y2354D02*
X3335Y2354D01*
X3387Y2354D02*
X3435Y2354D01*
X3487Y2354D02*
X3535Y2354D01*
X3587Y2354D02*
X3635Y2354D01*
X3687Y2354D02*
X3735Y2354D01*
X3787Y2354D02*
X3835Y2354D01*
X3887Y2354D02*
X3935Y2354D01*
X2284Y2353D02*
X2334Y2353D01*
X2384Y2353D02*
X2434Y2353D01*
X2484Y2353D02*
X2534Y2353D01*
X2584Y2353D02*
X2634Y2353D01*
X2684Y2353D02*
X2734Y2353D01*
X2784Y2353D02*
X2834Y2353D01*
X2884Y2353D02*
X2934Y2353D01*
X2984Y2353D02*
X3034Y2353D01*
X3188Y2353D02*
X3234Y2353D01*
X3288Y2353D02*
X3334Y2353D01*
X3388Y2353D02*
X3434Y2353D01*
X3488Y2353D02*
X3534Y2353D01*
X3588Y2353D02*
X3634Y2353D01*
X3688Y2353D02*
X3734Y2353D01*
X3788Y2353D02*
X3834Y2353D01*
X3888Y2353D02*
X3934Y2353D01*
X2285Y2352D02*
X2333Y2352D01*
X2385Y2352D02*
X2433Y2352D01*
X2485Y2352D02*
X2533Y2352D01*
X2585Y2352D02*
X2633Y2352D01*
X2685Y2352D02*
X2733Y2352D01*
X2785Y2352D02*
X2833Y2352D01*
X2885Y2352D02*
X2933Y2352D01*
X2985Y2352D02*
X3033Y2352D01*
X3189Y2352D02*
X3233Y2352D01*
X3289Y2352D02*
X3333Y2352D01*
X3389Y2352D02*
X3433Y2352D01*
X3489Y2352D02*
X3533Y2352D01*
X3589Y2352D02*
X3633Y2352D01*
X3689Y2352D02*
X3733Y2352D01*
X3789Y2352D02*
X3833Y2352D01*
X3889Y2352D02*
X3933Y2352D01*
X2286Y2351D02*
X2333Y2351D01*
X2386Y2351D02*
X2433Y2351D01*
X2486Y2351D02*
X2533Y2351D01*
X2586Y2351D02*
X2633Y2351D01*
X2686Y2351D02*
X2733Y2351D01*
X2786Y2351D02*
X2833Y2351D01*
X2886Y2351D02*
X2933Y2351D01*
X2986Y2351D02*
X3033Y2351D01*
X3190Y2351D02*
X3232Y2351D01*
X3290Y2351D02*
X3332Y2351D01*
X3390Y2351D02*
X3432Y2351D01*
X3490Y2351D02*
X3532Y2351D01*
X3590Y2351D02*
X3632Y2351D01*
X3690Y2351D02*
X3732Y2351D01*
X3790Y2351D02*
X3832Y2351D01*
X3890Y2351D02*
X3932Y2351D01*
X2287Y2350D02*
X2332Y2350D01*
X2387Y2350D02*
X2432Y2350D01*
X2487Y2350D02*
X2532Y2350D01*
X2587Y2350D02*
X2632Y2350D01*
X2687Y2350D02*
X2732Y2350D01*
X2787Y2350D02*
X2832Y2350D01*
X2887Y2350D02*
X2932Y2350D01*
X2987Y2350D02*
X3032Y2350D01*
X3191Y2350D02*
X3231Y2350D01*
X3291Y2350D02*
X3331Y2350D01*
X3391Y2350D02*
X3431Y2350D01*
X3491Y2350D02*
X3531Y2350D01*
X3591Y2350D02*
X3631Y2350D01*
X3691Y2350D02*
X3731Y2350D01*
X3791Y2350D02*
X3831Y2350D01*
X3891Y2350D02*
X3931Y2350D01*
X2288Y2349D02*
X2331Y2349D01*
X2388Y2349D02*
X2431Y2349D01*
X2488Y2349D02*
X2531Y2349D01*
X2588Y2349D02*
X2631Y2349D01*
X2688Y2349D02*
X2731Y2349D01*
X2788Y2349D02*
X2831Y2349D01*
X2888Y2349D02*
X2931Y2349D01*
X2987Y2349D02*
X3031Y2349D01*
X3192Y2349D02*
X3230Y2349D01*
X3292Y2349D02*
X3330Y2349D01*
X3392Y2349D02*
X3430Y2349D01*
X3492Y2349D02*
X3530Y2349D01*
X3592Y2349D02*
X3630Y2349D01*
X3692Y2349D02*
X3730Y2349D01*
X3792Y2349D02*
X3830Y2349D01*
X3892Y2349D02*
X3930Y2349D01*
X2289Y2348D02*
X2330Y2348D01*
X2389Y2348D02*
X2430Y2348D01*
X2489Y2348D02*
X2530Y2348D01*
X2589Y2348D02*
X2630Y2348D01*
X2689Y2348D02*
X2730Y2348D01*
X2789Y2348D02*
X2830Y2348D01*
X2888Y2348D02*
X2930Y2348D01*
X2988Y2348D02*
X3030Y2348D01*
X3193Y2348D02*
X3229Y2348D01*
X3293Y2348D02*
X3329Y2348D01*
X3393Y2348D02*
X3429Y2348D01*
X3493Y2348D02*
X3529Y2348D01*
X3593Y2348D02*
X3629Y2348D01*
X3693Y2348D02*
X3729Y2348D01*
X3793Y2348D02*
X3829Y2348D01*
X3893Y2348D02*
X3929Y2348D01*
X2290Y2347D02*
X2329Y2347D01*
X2390Y2347D02*
X2429Y2347D01*
X2490Y2347D02*
X2529Y2347D01*
X2590Y2347D02*
X2629Y2347D01*
X2690Y2347D02*
X2729Y2347D01*
X2790Y2347D02*
X2829Y2347D01*
X2890Y2347D02*
X2929Y2347D01*
X2990Y2347D02*
X3029Y2347D01*
X3195Y2347D02*
X3227Y2347D01*
X3295Y2347D02*
X3327Y2347D01*
X3395Y2347D02*
X3427Y2347D01*
X3495Y2347D02*
X3527Y2347D01*
X3595Y2347D02*
X3627Y2347D01*
X3695Y2347D02*
X3727Y2347D01*
X3795Y2347D02*
X3827Y2347D01*
X3895Y2347D02*
X3927Y2347D01*
X2291Y2346D02*
X2328Y2346D01*
X2391Y2346D02*
X2428Y2346D01*
X2491Y2346D02*
X2528Y2346D01*
X2591Y2346D02*
X2628Y2346D01*
X2691Y2346D02*
X2728Y2346D01*
X2791Y2346D02*
X2828Y2346D01*
X2891Y2346D02*
X2928Y2346D01*
X2991Y2346D02*
X3028Y2346D01*
X3196Y2346D02*
X3226Y2346D01*
X3296Y2346D02*
X3326Y2346D01*
X3396Y2346D02*
X3426Y2346D01*
X3496Y2346D02*
X3526Y2346D01*
X3596Y2346D02*
X3626Y2346D01*
X3696Y2346D02*
X3726Y2346D01*
X3796Y2346D02*
X3826Y2346D01*
X3896Y2346D02*
X3926Y2346D01*
X2292Y2345D02*
X2326Y2345D01*
X2392Y2345D02*
X2426Y2345D01*
X2492Y2345D02*
X2526Y2345D01*
X2592Y2345D02*
X2626Y2345D01*
X2692Y2345D02*
X2726Y2345D01*
X2792Y2345D02*
X2826Y2345D01*
X2892Y2345D02*
X2926Y2345D01*
X2992Y2345D02*
X3026Y2345D01*
X3198Y2345D02*
X3224Y2345D01*
X3298Y2345D02*
X3324Y2345D01*
X3398Y2345D02*
X3424Y2345D01*
X3498Y2345D02*
X3524Y2345D01*
X3598Y2345D02*
X3624Y2345D01*
X3698Y2345D02*
X3724Y2345D01*
X3798Y2345D02*
X3824Y2345D01*
X3898Y2345D02*
X3924Y2345D01*
X2294Y2344D02*
X2325Y2344D01*
X2394Y2344D02*
X2425Y2344D01*
X2494Y2344D02*
X2525Y2344D01*
X2594Y2344D02*
X2625Y2344D01*
X2694Y2344D02*
X2725Y2344D01*
X2794Y2344D02*
X2825Y2344D01*
X2894Y2344D02*
X2925Y2344D01*
X2994Y2344D02*
X3025Y2344D01*
X3200Y2344D02*
X3222Y2344D01*
X3300Y2344D02*
X3322Y2344D01*
X3400Y2344D02*
X3422Y2344D01*
X3500Y2344D02*
X3522Y2344D01*
X3600Y2344D02*
X3622Y2344D01*
X3700Y2344D02*
X3722Y2344D01*
X3800Y2344D02*
X3822Y2344D01*
X3900Y2344D02*
X3922Y2344D01*
X2295Y2343D02*
X2323Y2343D01*
X2395Y2343D02*
X2423Y2343D01*
X2495Y2343D02*
X2523Y2343D01*
X2595Y2343D02*
X2623Y2343D01*
X2695Y2343D02*
X2723Y2343D01*
X2795Y2343D02*
X2823Y2343D01*
X2895Y2343D02*
X2923Y2343D01*
X2995Y2343D02*
X3023Y2343D01*
X3203Y2343D02*
X3219Y2343D01*
X3303Y2343D02*
X3319Y2343D01*
X3403Y2343D02*
X3419Y2343D01*
X3503Y2343D02*
X3519Y2343D01*
X3603Y2343D02*
X3619Y2343D01*
X3703Y2343D02*
X3719Y2343D01*
X3803Y2343D02*
X3819Y2343D01*
X3903Y2343D02*
X3919Y2343D01*
X2297Y2342D02*
X2321Y2342D01*
X2397Y2342D02*
X2421Y2342D01*
X2497Y2342D02*
X2521Y2342D01*
X2597Y2342D02*
X2621Y2342D01*
X2697Y2342D02*
X2721Y2342D01*
X2797Y2342D02*
X2821Y2342D01*
X2897Y2342D02*
X2921Y2342D01*
X2997Y2342D02*
X3021Y2342D01*
X3207Y2342D02*
X3215Y2342D01*
X3307Y2342D02*
X3315Y2342D01*
X3407Y2342D02*
X3415Y2342D01*
X3507Y2342D02*
X3515Y2342D01*
X3607Y2342D02*
X3615Y2342D01*
X3707Y2342D02*
X3715Y2342D01*
X3807Y2342D02*
X3815Y2342D01*
X3907Y2342D02*
X3915Y2342D01*
X2300Y2341D02*
X2319Y2341D01*
X2400Y2341D02*
X2419Y2341D01*
X2500Y2341D02*
X2519Y2341D01*
X2600Y2341D02*
X2619Y2341D01*
X2700Y2341D02*
X2719Y2341D01*
X2800Y2341D02*
X2819Y2341D01*
X2900Y2341D02*
X2919Y2341D01*
X3000Y2341D02*
X3019Y2341D01*
X2303Y2340D02*
X2316Y2340D01*
X2403Y2340D02*
X2416Y2340D01*
X2503Y2340D02*
X2516Y2340D01*
X2603Y2340D02*
X2616Y2340D01*
X2703Y2340D02*
X2716Y2340D01*
X2803Y2340D02*
X2816Y2340D01*
X2903Y2340D02*
X2916Y2340D01*
X3003Y2340D02*
X3016Y2340D01*
X3206Y2155D02*
X3216Y2155D01*
X3306Y2155D02*
X3316Y2155D01*
X3406Y2155D02*
X3416Y2155D01*
X3506Y2155D02*
X3516Y2155D01*
X3606Y2155D02*
X3616Y2155D01*
X3705Y2155D02*
X3716Y2155D01*
X3805Y2155D02*
X3816Y2155D01*
X3905Y2155D02*
X3916Y2155D01*
X3202Y2154D02*
X3220Y2154D01*
X3302Y2154D02*
X3320Y2154D01*
X3402Y2154D02*
X3420Y2154D01*
X3502Y2154D02*
X3520Y2154D01*
X3602Y2154D02*
X3620Y2154D01*
X3702Y2154D02*
X3720Y2154D01*
X3802Y2154D02*
X3820Y2154D01*
X3902Y2154D02*
X3920Y2154D01*
X2307Y2153D02*
X2312Y2153D01*
X2407Y2153D02*
X2412Y2153D01*
X2507Y2153D02*
X2512Y2153D01*
X2607Y2153D02*
X2612Y2153D01*
X2707Y2153D02*
X2712Y2153D01*
X2807Y2153D02*
X2812Y2153D01*
X2907Y2153D02*
X2912Y2153D01*
X3007Y2153D02*
X3012Y2153D01*
X3199Y2153D02*
X3222Y2153D01*
X3299Y2153D02*
X3322Y2153D01*
X3399Y2153D02*
X3422Y2153D01*
X3499Y2153D02*
X3522Y2153D01*
X3599Y2153D02*
X3622Y2153D01*
X3699Y2153D02*
X3722Y2153D01*
X3799Y2153D02*
X3822Y2153D01*
X3899Y2153D02*
X3922Y2153D01*
X2302Y2152D02*
X2317Y2152D01*
X2402Y2152D02*
X2417Y2152D01*
X2502Y2152D02*
X2517Y2152D01*
X2602Y2152D02*
X2617Y2152D01*
X2702Y2152D02*
X2717Y2152D01*
X2802Y2152D02*
X2817Y2152D01*
X2902Y2152D02*
X2917Y2152D01*
X3002Y2152D02*
X3017Y2152D01*
X3197Y2152D02*
X3224Y2152D01*
X3297Y2152D02*
X3324Y2152D01*
X3397Y2152D02*
X3424Y2152D01*
X3497Y2152D02*
X3524Y2152D01*
X3597Y2152D02*
X3624Y2152D01*
X3697Y2152D02*
X3724Y2152D01*
X3797Y2152D02*
X3824Y2152D01*
X3897Y2152D02*
X3924Y2152D01*
X2299Y2151D02*
X2320Y2151D01*
X2399Y2151D02*
X2420Y2151D01*
X2499Y2151D02*
X2520Y2151D01*
X2599Y2151D02*
X2620Y2151D01*
X2699Y2151D02*
X2720Y2151D01*
X2799Y2151D02*
X2820Y2151D01*
X2899Y2151D02*
X2920Y2151D01*
X2999Y2151D02*
X3020Y2151D01*
X3196Y2151D02*
X3226Y2151D01*
X3296Y2151D02*
X3326Y2151D01*
X3396Y2151D02*
X3426Y2151D01*
X3496Y2151D02*
X3526Y2151D01*
X3596Y2151D02*
X3626Y2151D01*
X3696Y2151D02*
X3726Y2151D01*
X3796Y2151D02*
X3826Y2151D01*
X3896Y2151D02*
X3926Y2151D01*
X2297Y2150D02*
X2322Y2150D01*
X2397Y2150D02*
X2422Y2150D01*
X2497Y2150D02*
X2522Y2150D01*
X2597Y2150D02*
X2622Y2150D01*
X2697Y2150D02*
X2722Y2150D01*
X2797Y2150D02*
X2822Y2150D01*
X2897Y2150D02*
X2922Y2150D01*
X2997Y2150D02*
X3022Y2150D01*
X3194Y2150D02*
X3228Y2150D01*
X3294Y2150D02*
X3328Y2150D01*
X3394Y2150D02*
X3428Y2150D01*
X3494Y2150D02*
X3528Y2150D01*
X3594Y2150D02*
X3628Y2150D01*
X3694Y2150D02*
X3728Y2150D01*
X3794Y2150D02*
X3828Y2150D01*
X3894Y2150D02*
X3928Y2150D01*
X2295Y2149D02*
X2324Y2149D01*
X2395Y2149D02*
X2424Y2149D01*
X2495Y2149D02*
X2524Y2149D01*
X2595Y2149D02*
X2624Y2149D01*
X2695Y2149D02*
X2724Y2149D01*
X2795Y2149D02*
X2824Y2149D01*
X2895Y2149D02*
X2924Y2149D01*
X2995Y2149D02*
X3024Y2149D01*
X3193Y2149D02*
X3229Y2149D01*
X3293Y2149D02*
X3329Y2149D01*
X3393Y2149D02*
X3429Y2149D01*
X3493Y2149D02*
X3529Y2149D01*
X3593Y2149D02*
X3629Y2149D01*
X3693Y2149D02*
X3729Y2149D01*
X3793Y2149D02*
X3829Y2149D01*
X3893Y2149D02*
X3929Y2149D01*
X2293Y2148D02*
X2325Y2148D01*
X2393Y2148D02*
X2425Y2148D01*
X2493Y2148D02*
X2525Y2148D01*
X2593Y2148D02*
X2625Y2148D01*
X2693Y2148D02*
X2725Y2148D01*
X2793Y2148D02*
X2825Y2148D01*
X2893Y2148D02*
X2925Y2148D01*
X2993Y2148D02*
X3025Y2148D01*
X3192Y2148D02*
X3230Y2148D01*
X3292Y2148D02*
X3330Y2148D01*
X3392Y2148D02*
X3430Y2148D01*
X3492Y2148D02*
X3530Y2148D01*
X3592Y2148D02*
X3630Y2148D01*
X3692Y2148D02*
X3730Y2148D01*
X3792Y2148D02*
X3830Y2148D01*
X3892Y2148D02*
X3930Y2148D01*
X2292Y2147D02*
X2327Y2147D01*
X2392Y2147D02*
X2427Y2147D01*
X2492Y2147D02*
X2527Y2147D01*
X2592Y2147D02*
X2627Y2147D01*
X2692Y2147D02*
X2727Y2147D01*
X2792Y2147D02*
X2827Y2147D01*
X2892Y2147D02*
X2927Y2147D01*
X2992Y2147D02*
X3027Y2147D01*
X3191Y2147D02*
X3231Y2147D01*
X3291Y2147D02*
X3331Y2147D01*
X3391Y2147D02*
X3431Y2147D01*
X3491Y2147D02*
X3531Y2147D01*
X3590Y2147D02*
X3631Y2147D01*
X3690Y2147D02*
X3731Y2147D01*
X3790Y2147D02*
X3831Y2147D01*
X3890Y2147D02*
X3931Y2147D01*
X2290Y2146D02*
X2328Y2146D01*
X2390Y2146D02*
X2428Y2146D01*
X2490Y2146D02*
X2528Y2146D01*
X2590Y2146D02*
X2628Y2146D01*
X2690Y2146D02*
X2728Y2146D01*
X2790Y2146D02*
X2828Y2146D01*
X2890Y2146D02*
X2928Y2146D01*
X2990Y2146D02*
X3028Y2146D01*
X3190Y2146D02*
X3232Y2146D01*
X3290Y2146D02*
X3332Y2146D01*
X3390Y2146D02*
X3432Y2146D01*
X3489Y2146D02*
X3532Y2146D01*
X3589Y2146D02*
X3632Y2146D01*
X3689Y2146D02*
X3732Y2146D01*
X3789Y2146D02*
X3832Y2146D01*
X3889Y2146D02*
X3932Y2146D01*
X2289Y2145D02*
X2329Y2145D01*
X2389Y2145D02*
X2429Y2145D01*
X2489Y2145D02*
X2529Y2145D01*
X2589Y2145D02*
X2629Y2145D01*
X2689Y2145D02*
X2729Y2145D01*
X2789Y2145D02*
X2829Y2145D01*
X2889Y2145D02*
X2929Y2145D01*
X2989Y2145D02*
X3029Y2145D01*
X3189Y2145D02*
X3233Y2145D01*
X3289Y2145D02*
X3333Y2145D01*
X3389Y2145D02*
X3433Y2145D01*
X3489Y2145D02*
X3533Y2145D01*
X3589Y2145D02*
X3633Y2145D01*
X3689Y2145D02*
X3733Y2145D01*
X3789Y2145D02*
X3833Y2145D01*
X3889Y2145D02*
X3933Y2145D01*
X2288Y2144D02*
X2330Y2144D01*
X2388Y2144D02*
X2430Y2144D01*
X2488Y2144D02*
X2530Y2144D01*
X2588Y2144D02*
X2630Y2144D01*
X2688Y2144D02*
X2730Y2144D01*
X2788Y2144D02*
X2830Y2144D01*
X2888Y2144D02*
X2930Y2144D01*
X2988Y2144D02*
X3030Y2144D01*
X3188Y2144D02*
X3234Y2144D01*
X3288Y2144D02*
X3334Y2144D01*
X3388Y2144D02*
X3434Y2144D01*
X3488Y2144D02*
X3534Y2144D01*
X3588Y2144D02*
X3634Y2144D01*
X3688Y2144D02*
X3734Y2144D01*
X3788Y2144D02*
X3834Y2144D01*
X3888Y2144D02*
X3934Y2144D01*
X2287Y2143D02*
X2331Y2143D01*
X2387Y2143D02*
X2431Y2143D01*
X2487Y2143D02*
X2531Y2143D01*
X2587Y2143D02*
X2631Y2143D01*
X2687Y2143D02*
X2731Y2143D01*
X2787Y2143D02*
X2831Y2143D01*
X2887Y2143D02*
X2931Y2143D01*
X2987Y2143D02*
X3031Y2143D01*
X3187Y2143D02*
X3235Y2143D01*
X3287Y2143D02*
X3335Y2143D01*
X3387Y2143D02*
X3435Y2143D01*
X3487Y2143D02*
X3535Y2143D01*
X3587Y2143D02*
X3635Y2143D01*
X3687Y2143D02*
X3735Y2143D01*
X3787Y2143D02*
X3835Y2143D01*
X3887Y2143D02*
X3935Y2143D01*
X2286Y2142D02*
X2332Y2142D01*
X2386Y2142D02*
X2432Y2142D01*
X2486Y2142D02*
X2532Y2142D01*
X2586Y2142D02*
X2632Y2142D01*
X2686Y2142D02*
X2732Y2142D01*
X2786Y2142D02*
X2832Y2142D01*
X2886Y2142D02*
X2932Y2142D01*
X2986Y2142D02*
X3032Y2142D01*
X3186Y2142D02*
X3236Y2142D01*
X3286Y2142D02*
X3336Y2142D01*
X3386Y2142D02*
X3436Y2142D01*
X3486Y2142D02*
X3536Y2142D01*
X3586Y2142D02*
X3636Y2142D01*
X3686Y2142D02*
X3736Y2142D01*
X3786Y2142D02*
X3836Y2142D01*
X3886Y2142D02*
X3936Y2142D01*
X2286Y2141D02*
X2333Y2141D01*
X2386Y2141D02*
X2433Y2141D01*
X2486Y2141D02*
X2533Y2141D01*
X2586Y2141D02*
X2633Y2141D01*
X2685Y2141D02*
X2733Y2141D01*
X2785Y2141D02*
X2833Y2141D01*
X2885Y2141D02*
X2933Y2141D01*
X2985Y2141D02*
X3033Y2141D01*
X3185Y2141D02*
X3236Y2141D01*
X3285Y2141D02*
X3336Y2141D01*
X3385Y2141D02*
X3436Y2141D01*
X3485Y2141D02*
X3536Y2141D01*
X3585Y2141D02*
X3636Y2141D01*
X3685Y2141D02*
X3736Y2141D01*
X3785Y2141D02*
X3836Y2141D01*
X3885Y2141D02*
X3936Y2141D01*
X2285Y2140D02*
X2334Y2140D01*
X2385Y2140D02*
X2434Y2140D01*
X2485Y2140D02*
X2534Y2140D01*
X2585Y2140D02*
X2634Y2140D01*
X2685Y2140D02*
X2734Y2140D01*
X2785Y2140D02*
X2834Y2140D01*
X2885Y2140D02*
X2934Y2140D01*
X2985Y2140D02*
X3034Y2140D01*
X3185Y2140D02*
X3237Y2140D01*
X3285Y2140D02*
X3337Y2140D01*
X3385Y2140D02*
X3437Y2140D01*
X3485Y2140D02*
X3537Y2140D01*
X3585Y2140D02*
X3637Y2140D01*
X3685Y2140D02*
X3737Y2140D01*
X3785Y2140D02*
X3837Y2140D01*
X3885Y2140D02*
X3937Y2140D01*
X2284Y2139D02*
X2334Y2139D01*
X2384Y2139D02*
X2434Y2139D01*
X2484Y2139D02*
X2534Y2139D01*
X2584Y2139D02*
X2634Y2139D01*
X2684Y2139D02*
X2734Y2139D01*
X2784Y2139D02*
X2834Y2139D01*
X2884Y2139D02*
X2934Y2139D01*
X2984Y2139D02*
X3034Y2139D01*
X3184Y2139D02*
X3238Y2139D01*
X3284Y2139D02*
X3338Y2139D01*
X3384Y2139D02*
X3438Y2139D01*
X3484Y2139D02*
X3538Y2139D01*
X3584Y2139D02*
X3638Y2139D01*
X3684Y2139D02*
X3738Y2139D01*
X3784Y2139D02*
X3838Y2139D01*
X3884Y2139D02*
X3938Y2139D01*
X2283Y2138D02*
X2335Y2138D01*
X2383Y2138D02*
X2435Y2138D01*
X2483Y2138D02*
X2535Y2138D01*
X2583Y2138D02*
X2635Y2138D01*
X2683Y2138D02*
X2735Y2138D01*
X2783Y2138D02*
X2835Y2138D01*
X2883Y2138D02*
X2935Y2138D01*
X2983Y2138D02*
X3035Y2138D01*
X3184Y2138D02*
X3238Y2138D01*
X3284Y2138D02*
X3338Y2138D01*
X3384Y2138D02*
X3438Y2138D01*
X3484Y2138D02*
X3538Y2138D01*
X3584Y2138D02*
X3638Y2138D01*
X3684Y2138D02*
X3738Y2138D01*
X3784Y2138D02*
X3838Y2138D01*
X3884Y2138D02*
X3938Y2138D01*
X2283Y2137D02*
X2336Y2137D01*
X2383Y2137D02*
X2436Y2137D01*
X2483Y2137D02*
X2536Y2137D01*
X2583Y2137D02*
X2636Y2137D01*
X2683Y2137D02*
X2736Y2137D01*
X2783Y2137D02*
X2836Y2137D01*
X2883Y2137D02*
X2936Y2137D01*
X2983Y2137D02*
X3036Y2137D01*
X3183Y2137D02*
X3239Y2137D01*
X3283Y2137D02*
X3339Y2137D01*
X3383Y2137D02*
X3439Y2137D01*
X3483Y2137D02*
X3539Y2137D01*
X3583Y2137D02*
X3639Y2137D01*
X3683Y2137D02*
X3739Y2137D01*
X3783Y2137D02*
X3839Y2137D01*
X3883Y2137D02*
X3939Y2137D01*
X2282Y2136D02*
X2336Y2136D01*
X2382Y2136D02*
X2436Y2136D01*
X2482Y2136D02*
X2536Y2136D01*
X2582Y2136D02*
X2636Y2136D01*
X2682Y2136D02*
X2736Y2136D01*
X2782Y2136D02*
X2836Y2136D01*
X2882Y2136D02*
X2936Y2136D01*
X2982Y2136D02*
X3036Y2136D01*
X3183Y2136D02*
X3239Y2136D01*
X3283Y2136D02*
X3339Y2136D01*
X3383Y2136D02*
X3439Y2136D01*
X3483Y2136D02*
X3539Y2136D01*
X3583Y2136D02*
X3639Y2136D01*
X3683Y2136D02*
X3739Y2136D01*
X3783Y2136D02*
X3839Y2136D01*
X3883Y2136D02*
X3939Y2136D01*
X2282Y2135D02*
X2337Y2135D01*
X2382Y2135D02*
X2437Y2135D01*
X2482Y2135D02*
X2537Y2135D01*
X2582Y2135D02*
X2637Y2135D01*
X2682Y2135D02*
X2737Y2135D01*
X2782Y2135D02*
X2837Y2135D01*
X2882Y2135D02*
X2937Y2135D01*
X2982Y2135D02*
X3037Y2135D01*
X3182Y2135D02*
X3240Y2135D01*
X3282Y2135D02*
X3339Y2135D01*
X3382Y2135D02*
X3439Y2135D01*
X3482Y2135D02*
X3539Y2135D01*
X3582Y2135D02*
X3639Y2135D01*
X3682Y2135D02*
X3739Y2135D01*
X3782Y2135D02*
X3839Y2135D01*
X3882Y2135D02*
X3939Y2135D01*
X2281Y2134D02*
X2337Y2134D01*
X2381Y2134D02*
X2437Y2134D01*
X2481Y2134D02*
X2537Y2134D01*
X2581Y2134D02*
X2637Y2134D01*
X2681Y2134D02*
X2737Y2134D01*
X2781Y2134D02*
X2837Y2134D01*
X2881Y2134D02*
X2937Y2134D01*
X2981Y2134D02*
X3037Y2134D01*
X3182Y2134D02*
X3240Y2134D01*
X3282Y2134D02*
X3340Y2134D01*
X3382Y2134D02*
X3440Y2134D01*
X3482Y2134D02*
X3540Y2134D01*
X3582Y2134D02*
X3640Y2134D01*
X3682Y2134D02*
X3740Y2134D01*
X3782Y2134D02*
X3840Y2134D01*
X3882Y2134D02*
X3940Y2134D01*
X2281Y2133D02*
X2338Y2133D01*
X2381Y2133D02*
X2438Y2133D01*
X2481Y2133D02*
X2538Y2133D01*
X2581Y2133D02*
X2638Y2133D01*
X2681Y2133D02*
X2738Y2133D01*
X2781Y2133D02*
X2838Y2133D01*
X2881Y2133D02*
X2938Y2133D01*
X2981Y2133D02*
X3038Y2133D01*
X3182Y2133D02*
X3240Y2133D01*
X3282Y2133D02*
X3340Y2133D01*
X3382Y2133D02*
X3440Y2133D01*
X3482Y2133D02*
X3540Y2133D01*
X3582Y2133D02*
X3640Y2133D01*
X3682Y2133D02*
X3740Y2133D01*
X3782Y2133D02*
X3840Y2133D01*
X3882Y2133D02*
X3940Y2133D01*
X2280Y2132D02*
X2338Y2132D01*
X2380Y2132D02*
X2438Y2132D01*
X2480Y2132D02*
X2538Y2132D01*
X2580Y2132D02*
X2638Y2132D01*
X2680Y2132D02*
X2738Y2132D01*
X2780Y2132D02*
X2838Y2132D01*
X2880Y2132D02*
X2938Y2132D01*
X2980Y2132D02*
X3038Y2132D01*
X3181Y2132D02*
X3240Y2132D01*
X3281Y2132D02*
X3340Y2132D01*
X3381Y2132D02*
X3440Y2132D01*
X3481Y2132D02*
X3540Y2132D01*
X3581Y2132D02*
X3640Y2132D01*
X3681Y2132D02*
X3740Y2132D01*
X3781Y2132D02*
X3840Y2132D01*
X3881Y2132D02*
X3940Y2132D01*
X2280Y2131D02*
X2338Y2131D01*
X2380Y2131D02*
X2438Y2131D01*
X2480Y2131D02*
X2538Y2131D01*
X2580Y2131D02*
X2638Y2131D01*
X2680Y2131D02*
X2738Y2131D01*
X2780Y2131D02*
X2838Y2131D01*
X2880Y2131D02*
X2938Y2131D01*
X2980Y2131D02*
X3038Y2131D01*
X3181Y2131D02*
X3241Y2131D01*
X3281Y2131D02*
X3341Y2131D01*
X3381Y2131D02*
X3441Y2131D01*
X3481Y2131D02*
X3541Y2131D01*
X3581Y2131D02*
X3641Y2131D01*
X3681Y2131D02*
X3741Y2131D01*
X3781Y2131D02*
X3841Y2131D01*
X3881Y2131D02*
X3941Y2131D01*
X2280Y2130D02*
X2339Y2130D01*
X2380Y2130D02*
X2439Y2130D01*
X2480Y2130D02*
X2539Y2130D01*
X2580Y2130D02*
X2639Y2130D01*
X2680Y2130D02*
X2739Y2130D01*
X2780Y2130D02*
X2839Y2130D01*
X2880Y2130D02*
X2939Y2130D01*
X2980Y2130D02*
X3039Y2130D01*
X3181Y2130D02*
X3241Y2130D01*
X3281Y2130D02*
X3341Y2130D01*
X3381Y2130D02*
X3441Y2130D01*
X3481Y2130D02*
X3541Y2130D01*
X3581Y2130D02*
X3641Y2130D01*
X3681Y2130D02*
X3741Y2130D01*
X3781Y2130D02*
X3841Y2130D01*
X3881Y2130D02*
X3941Y2130D01*
X2280Y2129D02*
X2339Y2129D01*
X2380Y2129D02*
X2439Y2129D01*
X2480Y2129D02*
X2539Y2129D01*
X2580Y2129D02*
X2639Y2129D01*
X2680Y2129D02*
X2739Y2129D01*
X2780Y2129D02*
X2839Y2129D01*
X2880Y2129D02*
X2939Y2129D01*
X2980Y2129D02*
X3039Y2129D01*
X3181Y2129D02*
X3241Y2129D01*
X3281Y2129D02*
X3341Y2129D01*
X3381Y2129D02*
X3441Y2129D01*
X3481Y2129D02*
X3541Y2129D01*
X3581Y2129D02*
X3641Y2129D01*
X3681Y2129D02*
X3741Y2129D01*
X3781Y2129D02*
X3841Y2129D01*
X3881Y2129D02*
X3941Y2129D01*
X2279Y2128D02*
X2339Y2128D01*
X2379Y2128D02*
X2439Y2128D01*
X2479Y2128D02*
X2539Y2128D01*
X2579Y2128D02*
X2639Y2128D01*
X2679Y2128D02*
X2739Y2128D01*
X2779Y2128D02*
X2839Y2128D01*
X2879Y2128D02*
X2939Y2128D01*
X2979Y2128D02*
X3039Y2128D01*
X3181Y2128D02*
X3241Y2128D01*
X3281Y2128D02*
X3341Y2128D01*
X3381Y2128D02*
X3441Y2128D01*
X3481Y2128D02*
X3541Y2128D01*
X3581Y2128D02*
X3641Y2128D01*
X3681Y2128D02*
X3741Y2128D01*
X3781Y2128D02*
X3841Y2128D01*
X3881Y2128D02*
X3941Y2128D01*
X2279Y2127D02*
X2339Y2127D01*
X2379Y2127D02*
X2439Y2127D01*
X2479Y2127D02*
X2539Y2127D01*
X2579Y2127D02*
X2639Y2127D01*
X2679Y2127D02*
X2739Y2127D01*
X2779Y2127D02*
X2839Y2127D01*
X2879Y2127D02*
X2939Y2127D01*
X2979Y2127D02*
X3039Y2127D01*
X3181Y2127D02*
X3241Y2127D01*
X3281Y2127D02*
X3341Y2127D01*
X3381Y2127D02*
X3441Y2127D01*
X3481Y2127D02*
X3541Y2127D01*
X3581Y2127D02*
X3641Y2127D01*
X3681Y2127D02*
X3741Y2127D01*
X3781Y2127D02*
X3841Y2127D01*
X3881Y2127D02*
X3941Y2127D01*
X2279Y2126D02*
X2339Y2126D01*
X2379Y2126D02*
X2439Y2126D01*
X2479Y2126D02*
X2539Y2126D01*
X2579Y2126D02*
X2639Y2126D01*
X2679Y2126D02*
X2739Y2126D01*
X2779Y2126D02*
X2839Y2126D01*
X2879Y2126D02*
X2939Y2126D01*
X2979Y2126D02*
X3039Y2126D01*
X3180Y2126D02*
X3241Y2126D01*
X3280Y2126D02*
X3341Y2126D01*
X3380Y2126D02*
X3441Y2126D01*
X3480Y2126D02*
X3541Y2126D01*
X3580Y2126D02*
X3641Y2126D01*
X3680Y2126D02*
X3741Y2126D01*
X3780Y2126D02*
X3841Y2126D01*
X3880Y2126D02*
X3941Y2126D01*
X2279Y2125D02*
X2340Y2125D01*
X2379Y2125D02*
X2440Y2125D01*
X2479Y2125D02*
X2540Y2125D01*
X2579Y2125D02*
X2640Y2125D01*
X2679Y2125D02*
X2740Y2125D01*
X2779Y2125D02*
X2840Y2125D01*
X2879Y2125D02*
X2940Y2125D01*
X2979Y2125D02*
X3040Y2125D01*
X3180Y2125D02*
X3241Y2125D01*
X3280Y2125D02*
X3341Y2125D01*
X3380Y2125D02*
X3441Y2125D01*
X3480Y2125D02*
X3541Y2125D01*
X3580Y2125D02*
X3641Y2125D01*
X3680Y2125D02*
X3741Y2125D01*
X3780Y2125D02*
X3841Y2125D01*
X3880Y2125D02*
X3941Y2125D01*
X2279Y2124D02*
X2340Y2124D01*
X2379Y2124D02*
X2440Y2124D01*
X2479Y2124D02*
X2540Y2124D01*
X2579Y2124D02*
X2640Y2124D01*
X2679Y2124D02*
X2740Y2124D01*
X2779Y2124D02*
X2840Y2124D01*
X2879Y2124D02*
X2940Y2124D01*
X2979Y2124D02*
X3040Y2124D01*
X3180Y2124D02*
X3241Y2124D01*
X3280Y2124D02*
X3341Y2124D01*
X3380Y2124D02*
X3441Y2124D01*
X3480Y2124D02*
X3541Y2124D01*
X3580Y2124D02*
X3641Y2124D01*
X3680Y2124D02*
X3741Y2124D01*
X3780Y2124D02*
X3841Y2124D01*
X3880Y2124D02*
X3941Y2124D01*
X2279Y2123D02*
X2340Y2123D01*
X2379Y2123D02*
X2440Y2123D01*
X2479Y2123D02*
X2540Y2123D01*
X2579Y2123D02*
X2640Y2123D01*
X2679Y2123D02*
X2740Y2123D01*
X2779Y2123D02*
X2840Y2123D01*
X2879Y2123D02*
X2940Y2123D01*
X2979Y2123D02*
X3040Y2123D01*
X3180Y2123D02*
X3241Y2123D01*
X3280Y2123D02*
X3341Y2123D01*
X3380Y2123D02*
X3441Y2123D01*
X3480Y2123D02*
X3541Y2123D01*
X3580Y2123D02*
X3641Y2123D01*
X3680Y2123D02*
X3741Y2123D01*
X3780Y2123D02*
X3841Y2123D01*
X3880Y2123D02*
X3941Y2123D01*
X2279Y2122D02*
X2340Y2122D01*
X2379Y2122D02*
X2440Y2122D01*
X2479Y2122D02*
X2540Y2122D01*
X2579Y2122D02*
X2640Y2122D01*
X2679Y2122D02*
X2740Y2122D01*
X2779Y2122D02*
X2840Y2122D01*
X2879Y2122D02*
X2940Y2122D01*
X2979Y2122D02*
X3040Y2122D01*
X3180Y2122D02*
X3241Y2122D01*
X3280Y2122D02*
X3341Y2122D01*
X3380Y2122D02*
X3441Y2122D01*
X3480Y2122D02*
X3541Y2122D01*
X3580Y2122D02*
X3641Y2122D01*
X3680Y2122D02*
X3741Y2122D01*
X3780Y2122D02*
X3841Y2122D01*
X3880Y2122D02*
X3941Y2122D01*
X2279Y2121D02*
X2340Y2121D01*
X2379Y2121D02*
X2440Y2121D01*
X2479Y2121D02*
X2540Y2121D01*
X2579Y2121D02*
X2640Y2121D01*
X2679Y2121D02*
X2740Y2121D01*
X2779Y2121D02*
X2840Y2121D01*
X2879Y2121D02*
X2940Y2121D01*
X2979Y2121D02*
X3040Y2121D01*
X3180Y2121D02*
X3241Y2121D01*
X3280Y2121D02*
X3341Y2121D01*
X3380Y2121D02*
X3441Y2121D01*
X3480Y2121D02*
X3541Y2121D01*
X3580Y2121D02*
X3641Y2121D01*
X3680Y2121D02*
X3741Y2121D01*
X3780Y2121D02*
X3841Y2121D01*
X3880Y2121D02*
X3941Y2121D01*
X2279Y2120D02*
X2340Y2120D01*
X2379Y2120D02*
X2440Y2120D01*
X2479Y2120D02*
X2540Y2120D01*
X2579Y2120D02*
X2640Y2120D01*
X2679Y2120D02*
X2740Y2120D01*
X2779Y2120D02*
X2840Y2120D01*
X2879Y2120D02*
X2940Y2120D01*
X2979Y2120D02*
X3040Y2120D01*
X3180Y2120D02*
X3241Y2120D01*
X3280Y2120D02*
X3341Y2120D01*
X3380Y2120D02*
X3441Y2120D01*
X3480Y2120D02*
X3541Y2120D01*
X3580Y2120D02*
X3641Y2120D01*
X3680Y2120D02*
X3741Y2120D01*
X3780Y2120D02*
X3841Y2120D01*
X3880Y2120D02*
X3941Y2120D01*
X2279Y2119D02*
X2340Y2119D01*
X2379Y2119D02*
X2440Y2119D01*
X2479Y2119D02*
X2540Y2119D01*
X2579Y2119D02*
X2640Y2119D01*
X2679Y2119D02*
X2740Y2119D01*
X2779Y2119D02*
X2840Y2119D01*
X2879Y2119D02*
X2940Y2119D01*
X2979Y2119D02*
X3040Y2119D01*
X3180Y2119D02*
X3241Y2119D01*
X3280Y2119D02*
X3341Y2119D01*
X3380Y2119D02*
X3441Y2119D01*
X3480Y2119D02*
X3541Y2119D01*
X3580Y2119D02*
X3641Y2119D01*
X3680Y2119D02*
X3741Y2119D01*
X3780Y2119D02*
X3841Y2119D01*
X3880Y2119D02*
X3941Y2119D01*
X2279Y2118D02*
X2340Y2118D01*
X2379Y2118D02*
X2440Y2118D01*
X2479Y2118D02*
X2540Y2118D01*
X2579Y2118D02*
X2640Y2118D01*
X2679Y2118D02*
X2740Y2118D01*
X2779Y2118D02*
X2840Y2118D01*
X2879Y2118D02*
X2940Y2118D01*
X2979Y2118D02*
X3040Y2118D01*
X3180Y2118D02*
X3241Y2118D01*
X3280Y2118D02*
X3341Y2118D01*
X3380Y2118D02*
X3441Y2118D01*
X3480Y2118D02*
X3541Y2118D01*
X3580Y2118D02*
X3641Y2118D01*
X3680Y2118D02*
X3741Y2118D01*
X3780Y2118D02*
X3841Y2118D01*
X3880Y2118D02*
X3941Y2118D01*
X2279Y2117D02*
X2340Y2117D01*
X2379Y2117D02*
X2440Y2117D01*
X2479Y2117D02*
X2540Y2117D01*
X2579Y2117D02*
X2640Y2117D01*
X2679Y2117D02*
X2740Y2117D01*
X2779Y2117D02*
X2840Y2117D01*
X2879Y2117D02*
X2940Y2117D01*
X2979Y2117D02*
X3040Y2117D01*
X3180Y2117D02*
X3241Y2117D01*
X3280Y2117D02*
X3341Y2117D01*
X3380Y2117D02*
X3441Y2117D01*
X3480Y2117D02*
X3541Y2117D01*
X3580Y2117D02*
X3641Y2117D01*
X3680Y2117D02*
X3741Y2117D01*
X3780Y2117D02*
X3841Y2117D01*
X3880Y2117D02*
X3941Y2117D01*
X2279Y2116D02*
X2340Y2116D01*
X2379Y2116D02*
X2440Y2116D01*
X2479Y2116D02*
X2540Y2116D01*
X2579Y2116D02*
X2640Y2116D01*
X2679Y2116D02*
X2740Y2116D01*
X2779Y2116D02*
X2840Y2116D01*
X2879Y2116D02*
X2940Y2116D01*
X2979Y2116D02*
X3040Y2116D01*
X3180Y2116D02*
X3241Y2116D01*
X3280Y2116D02*
X3341Y2116D01*
X3380Y2116D02*
X3441Y2116D01*
X3480Y2116D02*
X3541Y2116D01*
X3580Y2116D02*
X3641Y2116D01*
X3680Y2116D02*
X3741Y2116D01*
X3780Y2116D02*
X3841Y2116D01*
X3880Y2116D02*
X3941Y2116D01*
X2279Y2115D02*
X2340Y2115D01*
X2379Y2115D02*
X2440Y2115D01*
X2479Y2115D02*
X2540Y2115D01*
X2579Y2115D02*
X2640Y2115D01*
X2679Y2115D02*
X2740Y2115D01*
X2779Y2115D02*
X2840Y2115D01*
X2879Y2115D02*
X2940Y2115D01*
X2979Y2115D02*
X3040Y2115D01*
X3180Y2115D02*
X3241Y2115D01*
X3280Y2115D02*
X3341Y2115D01*
X3380Y2115D02*
X3441Y2115D01*
X3480Y2115D02*
X3541Y2115D01*
X3580Y2115D02*
X3641Y2115D01*
X3680Y2115D02*
X3741Y2115D01*
X3780Y2115D02*
X3841Y2115D01*
X3880Y2115D02*
X3941Y2115D01*
X2279Y2114D02*
X2340Y2114D01*
X2379Y2114D02*
X2440Y2114D01*
X2479Y2114D02*
X2540Y2114D01*
X2579Y2114D02*
X2640Y2114D01*
X2679Y2114D02*
X2740Y2114D01*
X2779Y2114D02*
X2840Y2114D01*
X2879Y2114D02*
X2940Y2114D01*
X2979Y2114D02*
X3040Y2114D01*
X3180Y2114D02*
X3241Y2114D01*
X3280Y2114D02*
X3341Y2114D01*
X3380Y2114D02*
X3441Y2114D01*
X3480Y2114D02*
X3541Y2114D01*
X3580Y2114D02*
X3641Y2114D01*
X3680Y2114D02*
X3741Y2114D01*
X3780Y2114D02*
X3841Y2114D01*
X3880Y2114D02*
X3941Y2114D01*
X2279Y2113D02*
X2340Y2113D01*
X2379Y2113D02*
X2440Y2113D01*
X2479Y2113D02*
X2540Y2113D01*
X2579Y2113D02*
X2640Y2113D01*
X2679Y2113D02*
X2740Y2113D01*
X2779Y2113D02*
X2840Y2113D01*
X2879Y2113D02*
X2940Y2113D01*
X2979Y2113D02*
X3040Y2113D01*
X3180Y2113D02*
X3241Y2113D01*
X3280Y2113D02*
X3341Y2113D01*
X3380Y2113D02*
X3441Y2113D01*
X3480Y2113D02*
X3541Y2113D01*
X3580Y2113D02*
X3641Y2113D01*
X3680Y2113D02*
X3741Y2113D01*
X3780Y2113D02*
X3841Y2113D01*
X3880Y2113D02*
X3941Y2113D01*
X2279Y2112D02*
X2340Y2112D01*
X2379Y2112D02*
X2440Y2112D01*
X2479Y2112D02*
X2540Y2112D01*
X2579Y2112D02*
X2640Y2112D01*
X2679Y2112D02*
X2740Y2112D01*
X2779Y2112D02*
X2840Y2112D01*
X2879Y2112D02*
X2940Y2112D01*
X2979Y2112D02*
X3040Y2112D01*
X3180Y2112D02*
X3241Y2112D01*
X3280Y2112D02*
X3341Y2112D01*
X3380Y2112D02*
X3441Y2112D01*
X3480Y2112D02*
X3541Y2112D01*
X3580Y2112D02*
X3641Y2112D01*
X3680Y2112D02*
X3741Y2112D01*
X3780Y2112D02*
X3841Y2112D01*
X3880Y2112D02*
X3941Y2112D01*
X2279Y2111D02*
X2340Y2111D01*
X2379Y2111D02*
X2440Y2111D01*
X2479Y2111D02*
X2540Y2111D01*
X2579Y2111D02*
X2640Y2111D01*
X2679Y2111D02*
X2740Y2111D01*
X2779Y2111D02*
X2840Y2111D01*
X2879Y2111D02*
X2940Y2111D01*
X2979Y2111D02*
X3040Y2111D01*
X3180Y2111D02*
X3241Y2111D01*
X3280Y2111D02*
X3341Y2111D01*
X3380Y2111D02*
X3441Y2111D01*
X3480Y2111D02*
X3541Y2111D01*
X3580Y2111D02*
X3641Y2111D01*
X3680Y2111D02*
X3741Y2111D01*
X3780Y2111D02*
X3841Y2111D01*
X3880Y2111D02*
X3941Y2111D01*
X2279Y2110D02*
X2340Y2110D01*
X2379Y2110D02*
X2440Y2110D01*
X2479Y2110D02*
X2540Y2110D01*
X2579Y2110D02*
X2640Y2110D01*
X2679Y2110D02*
X2740Y2110D01*
X2779Y2110D02*
X2840Y2110D01*
X2879Y2110D02*
X2940Y2110D01*
X2979Y2110D02*
X3040Y2110D01*
X3180Y2110D02*
X3241Y2110D01*
X3280Y2110D02*
X3341Y2110D01*
X3380Y2110D02*
X3441Y2110D01*
X3480Y2110D02*
X3541Y2110D01*
X3580Y2110D02*
X3641Y2110D01*
X3680Y2110D02*
X3741Y2110D01*
X3780Y2110D02*
X3841Y2110D01*
X3880Y2110D02*
X3941Y2110D01*
X2279Y2109D02*
X2340Y2109D01*
X2379Y2109D02*
X2440Y2109D01*
X2479Y2109D02*
X2540Y2109D01*
X2579Y2109D02*
X2640Y2109D01*
X2679Y2109D02*
X2740Y2109D01*
X2779Y2109D02*
X2840Y2109D01*
X2879Y2109D02*
X2940Y2109D01*
X2979Y2109D02*
X3040Y2109D01*
X3180Y2109D02*
X3206Y2109D01*
X3216Y2109D02*
X3241Y2109D01*
X3280Y2109D02*
X3306Y2109D01*
X3316Y2109D02*
X3341Y2109D01*
X3380Y2109D02*
X3406Y2109D01*
X3416Y2109D02*
X3441Y2109D01*
X3480Y2109D02*
X3506Y2109D01*
X3516Y2109D02*
X3541Y2109D01*
X3580Y2109D02*
X3606Y2109D01*
X3616Y2109D02*
X3641Y2109D01*
X3680Y2109D02*
X3706Y2109D01*
X3716Y2109D02*
X3741Y2109D01*
X3780Y2109D02*
X3806Y2109D01*
X3816Y2109D02*
X3841Y2109D01*
X3880Y2109D02*
X3906Y2109D01*
X3916Y2109D02*
X3941Y2109D01*
X2279Y2108D02*
X2340Y2108D01*
X2379Y2108D02*
X2440Y2108D01*
X2479Y2108D02*
X2540Y2108D01*
X2579Y2108D02*
X2640Y2108D01*
X2679Y2108D02*
X2740Y2108D01*
X2779Y2108D02*
X2840Y2108D01*
X2879Y2108D02*
X2940Y2108D01*
X2979Y2108D02*
X3040Y2108D01*
X3180Y2108D02*
X3204Y2108D01*
X3218Y2108D02*
X3241Y2108D01*
X3280Y2108D02*
X3304Y2108D01*
X3318Y2108D02*
X3341Y2108D01*
X3380Y2108D02*
X3404Y2108D01*
X3418Y2108D02*
X3441Y2108D01*
X3480Y2108D02*
X3504Y2108D01*
X3518Y2108D02*
X3541Y2108D01*
X3580Y2108D02*
X3604Y2108D01*
X3618Y2108D02*
X3641Y2108D01*
X3680Y2108D02*
X3704Y2108D01*
X3718Y2108D02*
X3741Y2108D01*
X3780Y2108D02*
X3804Y2108D01*
X3818Y2108D02*
X3841Y2108D01*
X3880Y2108D02*
X3904Y2108D01*
X3918Y2108D02*
X3941Y2108D01*
X2279Y2107D02*
X2307Y2107D01*
X2312Y2107D02*
X2340Y2107D01*
X2379Y2107D02*
X2407Y2107D01*
X2412Y2107D02*
X2440Y2107D01*
X2479Y2107D02*
X2507Y2107D01*
X2512Y2107D02*
X2540Y2107D01*
X2579Y2107D02*
X2607Y2107D01*
X2612Y2107D02*
X2640Y2107D01*
X2679Y2107D02*
X2707Y2107D01*
X2712Y2107D02*
X2740Y2107D01*
X2779Y2107D02*
X2807Y2107D01*
X2812Y2107D02*
X2840Y2107D01*
X2879Y2107D02*
X2906Y2107D01*
X2912Y2107D02*
X2940Y2107D01*
X2979Y2107D02*
X3006Y2107D01*
X3012Y2107D02*
X3040Y2107D01*
X3180Y2107D02*
X3203Y2107D01*
X3219Y2107D02*
X3241Y2107D01*
X3280Y2107D02*
X3303Y2107D01*
X3319Y2107D02*
X3341Y2107D01*
X3380Y2107D02*
X3403Y2107D01*
X3419Y2107D02*
X3441Y2107D01*
X3480Y2107D02*
X3503Y2107D01*
X3519Y2107D02*
X3541Y2107D01*
X3580Y2107D02*
X3603Y2107D01*
X3619Y2107D02*
X3641Y2107D01*
X3680Y2107D02*
X3703Y2107D01*
X3719Y2107D02*
X3741Y2107D01*
X3780Y2107D02*
X3803Y2107D01*
X3819Y2107D02*
X3841Y2107D01*
X3880Y2107D02*
X3903Y2107D01*
X3919Y2107D02*
X3941Y2107D01*
X2279Y2106D02*
X2303Y2106D01*
X2315Y2106D02*
X2340Y2106D01*
X2379Y2106D02*
X2403Y2106D01*
X2415Y2106D02*
X2440Y2106D01*
X2479Y2106D02*
X2503Y2106D01*
X2515Y2106D02*
X2540Y2106D01*
X2579Y2106D02*
X2603Y2106D01*
X2615Y2106D02*
X2640Y2106D01*
X2679Y2106D02*
X2703Y2106D01*
X2715Y2106D02*
X2740Y2106D01*
X2779Y2106D02*
X2803Y2106D01*
X2815Y2106D02*
X2840Y2106D01*
X2879Y2106D02*
X2903Y2106D01*
X2915Y2106D02*
X2940Y2106D01*
X2979Y2106D02*
X3003Y2106D01*
X3015Y2106D02*
X3040Y2106D01*
X3180Y2106D02*
X3202Y2106D01*
X3220Y2106D02*
X3241Y2106D01*
X3280Y2106D02*
X3302Y2106D01*
X3320Y2106D02*
X3341Y2106D01*
X3380Y2106D02*
X3402Y2106D01*
X3420Y2106D02*
X3441Y2106D01*
X3480Y2106D02*
X3502Y2106D01*
X3520Y2106D02*
X3541Y2106D01*
X3580Y2106D02*
X3602Y2106D01*
X3620Y2106D02*
X3641Y2106D01*
X3680Y2106D02*
X3702Y2106D01*
X3720Y2106D02*
X3741Y2106D01*
X3780Y2106D02*
X3802Y2106D01*
X3820Y2106D02*
X3841Y2106D01*
X3880Y2106D02*
X3902Y2106D01*
X3920Y2106D02*
X3941Y2106D01*
X2279Y2105D02*
X2302Y2105D01*
X2317Y2105D02*
X2340Y2105D01*
X2379Y2105D02*
X2402Y2105D01*
X2417Y2105D02*
X2440Y2105D01*
X2479Y2105D02*
X2502Y2105D01*
X2517Y2105D02*
X2540Y2105D01*
X2579Y2105D02*
X2602Y2105D01*
X2617Y2105D02*
X2640Y2105D01*
X2679Y2105D02*
X2702Y2105D01*
X2717Y2105D02*
X2740Y2105D01*
X2779Y2105D02*
X2802Y2105D01*
X2817Y2105D02*
X2840Y2105D01*
X2879Y2105D02*
X2902Y2105D01*
X2917Y2105D02*
X2940Y2105D01*
X2979Y2105D02*
X3002Y2105D01*
X3017Y2105D02*
X3040Y2105D01*
X3180Y2105D02*
X3201Y2105D01*
X3221Y2105D02*
X3241Y2105D01*
X3280Y2105D02*
X3301Y2105D01*
X3321Y2105D02*
X3341Y2105D01*
X3380Y2105D02*
X3401Y2105D01*
X3421Y2105D02*
X3441Y2105D01*
X3480Y2105D02*
X3501Y2105D01*
X3521Y2105D02*
X3541Y2105D01*
X3580Y2105D02*
X3601Y2105D01*
X3621Y2105D02*
X3641Y2105D01*
X3680Y2105D02*
X3701Y2105D01*
X3721Y2105D02*
X3741Y2105D01*
X3780Y2105D02*
X3801Y2105D01*
X3821Y2105D02*
X3841Y2105D01*
X3880Y2105D02*
X3901Y2105D01*
X3921Y2105D02*
X3941Y2105D01*
X2279Y2104D02*
X2300Y2104D01*
X2318Y2104D02*
X2340Y2104D01*
X2379Y2104D02*
X2400Y2104D01*
X2418Y2104D02*
X2440Y2104D01*
X2479Y2104D02*
X2500Y2104D01*
X2518Y2104D02*
X2540Y2104D01*
X2579Y2104D02*
X2600Y2104D01*
X2618Y2104D02*
X2640Y2104D01*
X2679Y2104D02*
X2700Y2104D01*
X2718Y2104D02*
X2740Y2104D01*
X2779Y2104D02*
X2800Y2104D01*
X2818Y2104D02*
X2840Y2104D01*
X2879Y2104D02*
X2900Y2104D01*
X2918Y2104D02*
X2940Y2104D01*
X2979Y2104D02*
X3000Y2104D01*
X3018Y2104D02*
X3040Y2104D01*
X3180Y2104D02*
X3201Y2104D01*
X3221Y2104D02*
X3241Y2104D01*
X3280Y2104D02*
X3301Y2104D01*
X3321Y2104D02*
X3341Y2104D01*
X3380Y2104D02*
X3401Y2104D01*
X3421Y2104D02*
X3441Y2104D01*
X3480Y2104D02*
X3501Y2104D01*
X3521Y2104D02*
X3541Y2104D01*
X3580Y2104D02*
X3601Y2104D01*
X3621Y2104D02*
X3641Y2104D01*
X3680Y2104D02*
X3701Y2104D01*
X3721Y2104D02*
X3741Y2104D01*
X3780Y2104D02*
X3801Y2104D01*
X3821Y2104D02*
X3841Y2104D01*
X3880Y2104D02*
X3901Y2104D01*
X3921Y2104D02*
X3941Y2104D01*
X2279Y2103D02*
X2300Y2103D01*
X2319Y2103D02*
X2340Y2103D01*
X2379Y2103D02*
X2400Y2103D01*
X2419Y2103D02*
X2440Y2103D01*
X2479Y2103D02*
X2500Y2103D01*
X2519Y2103D02*
X2540Y2103D01*
X2579Y2103D02*
X2600Y2103D01*
X2619Y2103D02*
X2640Y2103D01*
X2679Y2103D02*
X2700Y2103D01*
X2719Y2103D02*
X2740Y2103D01*
X2779Y2103D02*
X2800Y2103D01*
X2819Y2103D02*
X2840Y2103D01*
X2879Y2103D02*
X2900Y2103D01*
X2919Y2103D02*
X2940Y2103D01*
X2979Y2103D02*
X3000Y2103D01*
X3019Y2103D02*
X3040Y2103D01*
X3180Y2103D02*
X3200Y2103D01*
X3222Y2103D02*
X3241Y2103D01*
X3280Y2103D02*
X3300Y2103D01*
X3322Y2103D02*
X3341Y2103D01*
X3380Y2103D02*
X3400Y2103D01*
X3422Y2103D02*
X3441Y2103D01*
X3480Y2103D02*
X3500Y2103D01*
X3522Y2103D02*
X3541Y2103D01*
X3580Y2103D02*
X3600Y2103D01*
X3622Y2103D02*
X3641Y2103D01*
X3680Y2103D02*
X3700Y2103D01*
X3722Y2103D02*
X3741Y2103D01*
X3780Y2103D02*
X3800Y2103D01*
X3822Y2103D02*
X3841Y2103D01*
X3880Y2103D02*
X3900Y2103D01*
X3922Y2103D02*
X3941Y2103D01*
X2279Y2102D02*
X2299Y2102D01*
X2319Y2102D02*
X2340Y2102D01*
X2379Y2102D02*
X2399Y2102D01*
X2419Y2102D02*
X2440Y2102D01*
X2479Y2102D02*
X2499Y2102D01*
X2519Y2102D02*
X2540Y2102D01*
X2579Y2102D02*
X2599Y2102D01*
X2619Y2102D02*
X2640Y2102D01*
X2679Y2102D02*
X2699Y2102D01*
X2719Y2102D02*
X2740Y2102D01*
X2779Y2102D02*
X2799Y2102D01*
X2819Y2102D02*
X2840Y2102D01*
X2879Y2102D02*
X2899Y2102D01*
X2919Y2102D02*
X2940Y2102D01*
X2979Y2102D02*
X2999Y2102D01*
X3019Y2102D02*
X3040Y2102D01*
X3180Y2102D02*
X3200Y2102D01*
X3222Y2102D02*
X3241Y2102D01*
X3280Y2102D02*
X3300Y2102D01*
X3322Y2102D02*
X3341Y2102D01*
X3380Y2102D02*
X3400Y2102D01*
X3422Y2102D02*
X3441Y2102D01*
X3480Y2102D02*
X3500Y2102D01*
X3522Y2102D02*
X3541Y2102D01*
X3580Y2102D02*
X3600Y2102D01*
X3622Y2102D02*
X3641Y2102D01*
X3680Y2102D02*
X3700Y2102D01*
X3722Y2102D02*
X3741Y2102D01*
X3780Y2102D02*
X3800Y2102D01*
X3822Y2102D02*
X3841Y2102D01*
X3880Y2102D02*
X3900Y2102D01*
X3922Y2102D02*
X3941Y2102D01*
X2279Y2101D02*
X2299Y2101D01*
X2320Y2101D02*
X2340Y2101D01*
X2379Y2101D02*
X2399Y2101D01*
X2420Y2101D02*
X2440Y2101D01*
X2479Y2101D02*
X2499Y2101D01*
X2520Y2101D02*
X2540Y2101D01*
X2579Y2101D02*
X2599Y2101D01*
X2620Y2101D02*
X2640Y2101D01*
X2679Y2101D02*
X2699Y2101D01*
X2720Y2101D02*
X2740Y2101D01*
X2779Y2101D02*
X2799Y2101D01*
X2820Y2101D02*
X2840Y2101D01*
X2879Y2101D02*
X2899Y2101D01*
X2920Y2101D02*
X2940Y2101D01*
X2979Y2101D02*
X2999Y2101D01*
X3020Y2101D02*
X3040Y2101D01*
X3180Y2101D02*
X3200Y2101D01*
X3222Y2101D02*
X3241Y2101D01*
X3280Y2101D02*
X3300Y2101D01*
X3322Y2101D02*
X3341Y2101D01*
X3380Y2101D02*
X3400Y2101D01*
X3422Y2101D02*
X3441Y2101D01*
X3480Y2101D02*
X3500Y2101D01*
X3522Y2101D02*
X3541Y2101D01*
X3580Y2101D02*
X3600Y2101D01*
X3622Y2101D02*
X3641Y2101D01*
X3680Y2101D02*
X3700Y2101D01*
X3722Y2101D02*
X3741Y2101D01*
X3780Y2101D02*
X3800Y2101D01*
X3822Y2101D02*
X3841Y2101D01*
X3880Y2101D02*
X3900Y2101D01*
X3922Y2101D02*
X3941Y2101D01*
X2279Y2100D02*
X2298Y2100D01*
X2320Y2100D02*
X2340Y2100D01*
X2379Y2100D02*
X2398Y2100D01*
X2420Y2100D02*
X2440Y2100D01*
X2479Y2100D02*
X2498Y2100D01*
X2520Y2100D02*
X2540Y2100D01*
X2579Y2100D02*
X2598Y2100D01*
X2620Y2100D02*
X2640Y2100D01*
X2679Y2100D02*
X2698Y2100D01*
X2720Y2100D02*
X2740Y2100D01*
X2779Y2100D02*
X2798Y2100D01*
X2820Y2100D02*
X2840Y2100D01*
X2879Y2100D02*
X2898Y2100D01*
X2920Y2100D02*
X2940Y2100D01*
X2979Y2100D02*
X2998Y2100D01*
X3020Y2100D02*
X3040Y2100D01*
X3180Y2100D02*
X3200Y2100D01*
X3222Y2100D02*
X3241Y2100D01*
X3280Y2100D02*
X3300Y2100D01*
X3322Y2100D02*
X3341Y2100D01*
X3380Y2100D02*
X3400Y2100D01*
X3422Y2100D02*
X3441Y2100D01*
X3480Y2100D02*
X3499Y2100D01*
X3522Y2100D02*
X3541Y2100D01*
X3580Y2100D02*
X3599Y2100D01*
X3622Y2100D02*
X3641Y2100D01*
X3680Y2100D02*
X3699Y2100D01*
X3722Y2100D02*
X3741Y2100D01*
X3780Y2100D02*
X3799Y2100D01*
X3822Y2100D02*
X3841Y2100D01*
X3880Y2100D02*
X3899Y2100D01*
X3922Y2100D02*
X3941Y2100D01*
X2279Y2099D02*
X2298Y2099D01*
X2320Y2099D02*
X2340Y2099D01*
X2379Y2099D02*
X2398Y2099D01*
X2420Y2099D02*
X2440Y2099D01*
X2479Y2099D02*
X2498Y2099D01*
X2520Y2099D02*
X2540Y2099D01*
X2579Y2099D02*
X2598Y2099D01*
X2620Y2099D02*
X2640Y2099D01*
X2679Y2099D02*
X2698Y2099D01*
X2720Y2099D02*
X2740Y2099D01*
X2779Y2099D02*
X2798Y2099D01*
X2820Y2099D02*
X2840Y2099D01*
X2879Y2099D02*
X2898Y2099D01*
X2920Y2099D02*
X2940Y2099D01*
X2979Y2099D02*
X2998Y2099D01*
X3020Y2099D02*
X3040Y2099D01*
X3180Y2099D02*
X3199Y2099D01*
X3222Y2099D02*
X3241Y2099D01*
X3280Y2099D02*
X3299Y2099D01*
X3322Y2099D02*
X3341Y2099D01*
X3380Y2099D02*
X3399Y2099D01*
X3422Y2099D02*
X3441Y2099D01*
X3480Y2099D02*
X3499Y2099D01*
X3522Y2099D02*
X3541Y2099D01*
X3580Y2099D02*
X3599Y2099D01*
X3622Y2099D02*
X3641Y2099D01*
X3680Y2099D02*
X3699Y2099D01*
X3722Y2099D02*
X3741Y2099D01*
X3780Y2099D02*
X3799Y2099D01*
X3822Y2099D02*
X3841Y2099D01*
X3880Y2099D02*
X3899Y2099D01*
X3922Y2099D02*
X3941Y2099D01*
X2279Y2098D02*
X2298Y2098D01*
X2321Y2098D02*
X2340Y2098D01*
X2379Y2098D02*
X2398Y2098D01*
X2421Y2098D02*
X2440Y2098D01*
X2479Y2098D02*
X2498Y2098D01*
X2521Y2098D02*
X2540Y2098D01*
X2579Y2098D02*
X2598Y2098D01*
X2621Y2098D02*
X2640Y2098D01*
X2679Y2098D02*
X2698Y2098D01*
X2721Y2098D02*
X2740Y2098D01*
X2779Y2098D02*
X2798Y2098D01*
X2821Y2098D02*
X2840Y2098D01*
X2879Y2098D02*
X2898Y2098D01*
X2921Y2098D02*
X2940Y2098D01*
X2979Y2098D02*
X2998Y2098D01*
X3021Y2098D02*
X3040Y2098D01*
X3180Y2098D02*
X3199Y2098D01*
X3222Y2098D02*
X3241Y2098D01*
X3280Y2098D02*
X3299Y2098D01*
X3322Y2098D02*
X3341Y2098D01*
X3380Y2098D02*
X3399Y2098D01*
X3422Y2098D02*
X3441Y2098D01*
X3480Y2098D02*
X3499Y2098D01*
X3522Y2098D02*
X3541Y2098D01*
X3580Y2098D02*
X3599Y2098D01*
X3622Y2098D02*
X3641Y2098D01*
X3680Y2098D02*
X3699Y2098D01*
X3722Y2098D02*
X3741Y2098D01*
X3780Y2098D02*
X3799Y2098D01*
X3822Y2098D02*
X3841Y2098D01*
X3880Y2098D02*
X3899Y2098D01*
X3922Y2098D02*
X3941Y2098D01*
X2279Y2097D02*
X2298Y2097D01*
X2321Y2097D02*
X2340Y2097D01*
X2379Y2097D02*
X2398Y2097D01*
X2421Y2097D02*
X2440Y2097D01*
X2479Y2097D02*
X2498Y2097D01*
X2521Y2097D02*
X2540Y2097D01*
X2579Y2097D02*
X2598Y2097D01*
X2621Y2097D02*
X2640Y2097D01*
X2679Y2097D02*
X2698Y2097D01*
X2721Y2097D02*
X2740Y2097D01*
X2779Y2097D02*
X2798Y2097D01*
X2821Y2097D02*
X2840Y2097D01*
X2879Y2097D02*
X2898Y2097D01*
X2921Y2097D02*
X2940Y2097D01*
X2979Y2097D02*
X2998Y2097D01*
X3021Y2097D02*
X3040Y2097D01*
X3180Y2097D02*
X3200Y2097D01*
X3222Y2097D02*
X3241Y2097D01*
X3280Y2097D02*
X3300Y2097D01*
X3322Y2097D02*
X3341Y2097D01*
X3380Y2097D02*
X3400Y2097D01*
X3422Y2097D02*
X3441Y2097D01*
X3480Y2097D02*
X3500Y2097D01*
X3522Y2097D02*
X3541Y2097D01*
X3580Y2097D02*
X3600Y2097D01*
X3622Y2097D02*
X3641Y2097D01*
X3680Y2097D02*
X3700Y2097D01*
X3722Y2097D02*
X3741Y2097D01*
X3780Y2097D02*
X3800Y2097D01*
X3822Y2097D02*
X3841Y2097D01*
X3880Y2097D02*
X3899Y2097D01*
X3922Y2097D02*
X3941Y2097D01*
X2279Y2096D02*
X2298Y2096D01*
X2321Y2096D02*
X2340Y2096D01*
X2379Y2096D02*
X2398Y2096D01*
X2421Y2096D02*
X2440Y2096D01*
X2479Y2096D02*
X2498Y2096D01*
X2521Y2096D02*
X2540Y2096D01*
X2579Y2096D02*
X2598Y2096D01*
X2621Y2096D02*
X2640Y2096D01*
X2679Y2096D02*
X2698Y2096D01*
X2721Y2096D02*
X2740Y2096D01*
X2779Y2096D02*
X2798Y2096D01*
X2821Y2096D02*
X2840Y2096D01*
X2879Y2096D02*
X2898Y2096D01*
X2921Y2096D02*
X2940Y2096D01*
X2979Y2096D02*
X2998Y2096D01*
X3021Y2096D02*
X3040Y2096D01*
X3180Y2096D02*
X3200Y2096D01*
X3222Y2096D02*
X3241Y2096D01*
X3280Y2096D02*
X3300Y2096D01*
X3322Y2096D02*
X3341Y2096D01*
X3380Y2096D02*
X3400Y2096D01*
X3422Y2096D02*
X3441Y2096D01*
X3480Y2096D02*
X3500Y2096D01*
X3522Y2096D02*
X3541Y2096D01*
X3580Y2096D02*
X3600Y2096D01*
X3622Y2096D02*
X3641Y2096D01*
X3680Y2096D02*
X3700Y2096D01*
X3722Y2096D02*
X3741Y2096D01*
X3780Y2096D02*
X3800Y2096D01*
X3822Y2096D02*
X3841Y2096D01*
X3880Y2096D02*
X3900Y2096D01*
X3922Y2096D02*
X3941Y2096D01*
X2279Y2095D02*
X2298Y2095D01*
X2321Y2095D02*
X2340Y2095D01*
X2379Y2095D02*
X2398Y2095D01*
X2421Y2095D02*
X2440Y2095D01*
X2479Y2095D02*
X2498Y2095D01*
X2521Y2095D02*
X2540Y2095D01*
X2579Y2095D02*
X2598Y2095D01*
X2621Y2095D02*
X2640Y2095D01*
X2679Y2095D02*
X2698Y2095D01*
X2721Y2095D02*
X2740Y2095D01*
X2779Y2095D02*
X2798Y2095D01*
X2821Y2095D02*
X2840Y2095D01*
X2879Y2095D02*
X2898Y2095D01*
X2921Y2095D02*
X2940Y2095D01*
X2979Y2095D02*
X2998Y2095D01*
X3021Y2095D02*
X3040Y2095D01*
X3180Y2095D02*
X3200Y2095D01*
X3222Y2095D02*
X3241Y2095D01*
X3280Y2095D02*
X3300Y2095D01*
X3322Y2095D02*
X3341Y2095D01*
X3380Y2095D02*
X3400Y2095D01*
X3422Y2095D02*
X3441Y2095D01*
X3480Y2095D02*
X3500Y2095D01*
X3522Y2095D02*
X3541Y2095D01*
X3580Y2095D02*
X3600Y2095D01*
X3622Y2095D02*
X3641Y2095D01*
X3680Y2095D02*
X3700Y2095D01*
X3722Y2095D02*
X3741Y2095D01*
X3780Y2095D02*
X3800Y2095D01*
X3822Y2095D02*
X3841Y2095D01*
X3880Y2095D02*
X3900Y2095D01*
X3922Y2095D02*
X3941Y2095D01*
X2279Y2094D02*
X2298Y2094D01*
X2321Y2094D02*
X2340Y2094D01*
X2379Y2094D02*
X2398Y2094D01*
X2421Y2094D02*
X2440Y2094D01*
X2479Y2094D02*
X2498Y2094D01*
X2521Y2094D02*
X2540Y2094D01*
X2579Y2094D02*
X2598Y2094D01*
X2621Y2094D02*
X2640Y2094D01*
X2679Y2094D02*
X2698Y2094D01*
X2721Y2094D02*
X2740Y2094D01*
X2779Y2094D02*
X2798Y2094D01*
X2821Y2094D02*
X2840Y2094D01*
X2879Y2094D02*
X2898Y2094D01*
X2921Y2094D02*
X2940Y2094D01*
X2979Y2094D02*
X2998Y2094D01*
X3020Y2094D02*
X3040Y2094D01*
X3180Y2094D02*
X3200Y2094D01*
X3222Y2094D02*
X3241Y2094D01*
X3280Y2094D02*
X3300Y2094D01*
X3322Y2094D02*
X3341Y2094D01*
X3380Y2094D02*
X3400Y2094D01*
X3422Y2094D02*
X3441Y2094D01*
X3480Y2094D02*
X3500Y2094D01*
X3522Y2094D02*
X3541Y2094D01*
X3580Y2094D02*
X3600Y2094D01*
X3622Y2094D02*
X3641Y2094D01*
X3680Y2094D02*
X3700Y2094D01*
X3722Y2094D02*
X3741Y2094D01*
X3780Y2094D02*
X3800Y2094D01*
X3822Y2094D02*
X3841Y2094D01*
X3880Y2094D02*
X3900Y2094D01*
X3922Y2094D02*
X3941Y2094D01*
X2279Y2093D02*
X2298Y2093D01*
X2320Y2093D02*
X2340Y2093D01*
X2379Y2093D02*
X2398Y2093D01*
X2420Y2093D02*
X2440Y2093D01*
X2479Y2093D02*
X2498Y2093D01*
X2520Y2093D02*
X2540Y2093D01*
X2579Y2093D02*
X2598Y2093D01*
X2620Y2093D02*
X2640Y2093D01*
X2679Y2093D02*
X2698Y2093D01*
X2720Y2093D02*
X2740Y2093D01*
X2779Y2093D02*
X2798Y2093D01*
X2820Y2093D02*
X2840Y2093D01*
X2879Y2093D02*
X2898Y2093D01*
X2920Y2093D02*
X2940Y2093D01*
X2979Y2093D02*
X2998Y2093D01*
X3020Y2093D02*
X3040Y2093D01*
X3180Y2093D02*
X3201Y2093D01*
X3221Y2093D02*
X3241Y2093D01*
X3280Y2093D02*
X3301Y2093D01*
X3321Y2093D02*
X3341Y2093D01*
X3380Y2093D02*
X3401Y2093D01*
X3421Y2093D02*
X3441Y2093D01*
X3480Y2093D02*
X3501Y2093D01*
X3521Y2093D02*
X3541Y2093D01*
X3580Y2093D02*
X3601Y2093D01*
X3621Y2093D02*
X3641Y2093D01*
X3680Y2093D02*
X3701Y2093D01*
X3721Y2093D02*
X3741Y2093D01*
X3780Y2093D02*
X3801Y2093D01*
X3821Y2093D02*
X3841Y2093D01*
X3880Y2093D02*
X3901Y2093D01*
X3921Y2093D02*
X3941Y2093D01*
X2279Y2092D02*
X2298Y2092D01*
X2320Y2092D02*
X2340Y2092D01*
X2379Y2092D02*
X2398Y2092D01*
X2420Y2092D02*
X2440Y2092D01*
X2479Y2092D02*
X2498Y2092D01*
X2520Y2092D02*
X2540Y2092D01*
X2579Y2092D02*
X2598Y2092D01*
X2620Y2092D02*
X2640Y2092D01*
X2679Y2092D02*
X2698Y2092D01*
X2720Y2092D02*
X2740Y2092D01*
X2779Y2092D02*
X2798Y2092D01*
X2820Y2092D02*
X2840Y2092D01*
X2879Y2092D02*
X2898Y2092D01*
X2920Y2092D02*
X2940Y2092D01*
X2979Y2092D02*
X2998Y2092D01*
X3020Y2092D02*
X3040Y2092D01*
X3180Y2092D02*
X3201Y2092D01*
X3221Y2092D02*
X3241Y2092D01*
X3280Y2092D02*
X3301Y2092D01*
X3321Y2092D02*
X3341Y2092D01*
X3380Y2092D02*
X3401Y2092D01*
X3421Y2092D02*
X3441Y2092D01*
X3480Y2092D02*
X3501Y2092D01*
X3521Y2092D02*
X3541Y2092D01*
X3580Y2092D02*
X3601Y2092D01*
X3621Y2092D02*
X3641Y2092D01*
X3680Y2092D02*
X3701Y2092D01*
X3721Y2092D02*
X3741Y2092D01*
X3780Y2092D02*
X3801Y2092D01*
X3821Y2092D02*
X3841Y2092D01*
X3880Y2092D02*
X3901Y2092D01*
X3921Y2092D02*
X3941Y2092D01*
X2279Y2091D02*
X2299Y2091D01*
X2320Y2091D02*
X2340Y2091D01*
X2379Y2091D02*
X2399Y2091D01*
X2420Y2091D02*
X2440Y2091D01*
X2479Y2091D02*
X2499Y2091D01*
X2520Y2091D02*
X2540Y2091D01*
X2579Y2091D02*
X2599Y2091D01*
X2620Y2091D02*
X2640Y2091D01*
X2679Y2091D02*
X2699Y2091D01*
X2720Y2091D02*
X2740Y2091D01*
X2779Y2091D02*
X2799Y2091D01*
X2820Y2091D02*
X2840Y2091D01*
X2879Y2091D02*
X2899Y2091D01*
X2920Y2091D02*
X2940Y2091D01*
X2979Y2091D02*
X2999Y2091D01*
X3020Y2091D02*
X3040Y2091D01*
X3180Y2091D02*
X3202Y2091D01*
X3220Y2091D02*
X3241Y2091D01*
X3280Y2091D02*
X3302Y2091D01*
X3320Y2091D02*
X3341Y2091D01*
X3380Y2091D02*
X3402Y2091D01*
X3420Y2091D02*
X3441Y2091D01*
X3480Y2091D02*
X3502Y2091D01*
X3520Y2091D02*
X3541Y2091D01*
X3580Y2091D02*
X3602Y2091D01*
X3620Y2091D02*
X3641Y2091D01*
X3680Y2091D02*
X3702Y2091D01*
X3720Y2091D02*
X3741Y2091D01*
X3780Y2091D02*
X3802Y2091D01*
X3820Y2091D02*
X3841Y2091D01*
X3880Y2091D02*
X3902Y2091D01*
X3920Y2091D02*
X3941Y2091D01*
X2279Y2090D02*
X2299Y2090D01*
X2319Y2090D02*
X2340Y2090D01*
X2379Y2090D02*
X2399Y2090D01*
X2419Y2090D02*
X2440Y2090D01*
X2479Y2090D02*
X2499Y2090D01*
X2519Y2090D02*
X2540Y2090D01*
X2579Y2090D02*
X2599Y2090D01*
X2619Y2090D02*
X2640Y2090D01*
X2679Y2090D02*
X2699Y2090D01*
X2719Y2090D02*
X2740Y2090D01*
X2779Y2090D02*
X2799Y2090D01*
X2819Y2090D02*
X2840Y2090D01*
X2879Y2090D02*
X2899Y2090D01*
X2919Y2090D02*
X2940Y2090D01*
X2979Y2090D02*
X2999Y2090D01*
X3019Y2090D02*
X3040Y2090D01*
X3180Y2090D02*
X3203Y2090D01*
X3219Y2090D02*
X3241Y2090D01*
X3280Y2090D02*
X3303Y2090D01*
X3319Y2090D02*
X3341Y2090D01*
X3380Y2090D02*
X3403Y2090D01*
X3419Y2090D02*
X3441Y2090D01*
X3480Y2090D02*
X3503Y2090D01*
X3519Y2090D02*
X3541Y2090D01*
X3580Y2090D02*
X3603Y2090D01*
X3619Y2090D02*
X3641Y2090D01*
X3680Y2090D02*
X3703Y2090D01*
X3719Y2090D02*
X3741Y2090D01*
X3780Y2090D02*
X3803Y2090D01*
X3819Y2090D02*
X3841Y2090D01*
X3880Y2090D02*
X3903Y2090D01*
X3919Y2090D02*
X3941Y2090D01*
X2279Y2089D02*
X2300Y2089D01*
X2318Y2089D02*
X2340Y2089D01*
X2379Y2089D02*
X2400Y2089D01*
X2418Y2089D02*
X2440Y2089D01*
X2479Y2089D02*
X2500Y2089D01*
X2518Y2089D02*
X2540Y2089D01*
X2579Y2089D02*
X2600Y2089D01*
X2618Y2089D02*
X2640Y2089D01*
X2679Y2089D02*
X2700Y2089D01*
X2718Y2089D02*
X2740Y2089D01*
X2779Y2089D02*
X2800Y2089D01*
X2818Y2089D02*
X2840Y2089D01*
X2879Y2089D02*
X2900Y2089D01*
X2918Y2089D02*
X2940Y2089D01*
X2979Y2089D02*
X3000Y2089D01*
X3018Y2089D02*
X3040Y2089D01*
X3180Y2089D02*
X3205Y2089D01*
X3217Y2089D02*
X3241Y2089D01*
X3280Y2089D02*
X3305Y2089D01*
X3317Y2089D02*
X3341Y2089D01*
X3380Y2089D02*
X3405Y2089D01*
X3417Y2089D02*
X3441Y2089D01*
X3480Y2089D02*
X3505Y2089D01*
X3517Y2089D02*
X3541Y2089D01*
X3580Y2089D02*
X3605Y2089D01*
X3617Y2089D02*
X3641Y2089D01*
X3680Y2089D02*
X3705Y2089D01*
X3717Y2089D02*
X3741Y2089D01*
X3780Y2089D02*
X3805Y2089D01*
X3817Y2089D02*
X3841Y2089D01*
X3880Y2089D02*
X3905Y2089D01*
X3917Y2089D02*
X3941Y2089D01*
X2279Y2088D02*
X2301Y2088D01*
X2318Y2088D02*
X2340Y2088D01*
X2379Y2088D02*
X2401Y2088D01*
X2418Y2088D02*
X2440Y2088D01*
X2479Y2088D02*
X2501Y2088D01*
X2518Y2088D02*
X2540Y2088D01*
X2579Y2088D02*
X2601Y2088D01*
X2618Y2088D02*
X2640Y2088D01*
X2679Y2088D02*
X2701Y2088D01*
X2718Y2088D02*
X2740Y2088D01*
X2779Y2088D02*
X2801Y2088D01*
X2818Y2088D02*
X2840Y2088D01*
X2879Y2088D02*
X2901Y2088D01*
X2918Y2088D02*
X2940Y2088D01*
X2979Y2088D02*
X3001Y2088D01*
X3018Y2088D02*
X3040Y2088D01*
X3180Y2088D02*
X3207Y2088D01*
X3215Y2088D02*
X3241Y2088D01*
X3280Y2088D02*
X3307Y2088D01*
X3315Y2088D02*
X3341Y2088D01*
X3380Y2088D02*
X3407Y2088D01*
X3415Y2088D02*
X3441Y2088D01*
X3480Y2088D02*
X3507Y2088D01*
X3515Y2088D02*
X3541Y2088D01*
X3580Y2088D02*
X3607Y2088D01*
X3615Y2088D02*
X3641Y2088D01*
X3680Y2088D02*
X3707Y2088D01*
X3715Y2088D02*
X3741Y2088D01*
X3780Y2088D02*
X3807Y2088D01*
X3815Y2088D02*
X3841Y2088D01*
X3880Y2088D02*
X3907Y2088D01*
X3915Y2088D02*
X3941Y2088D01*
X2279Y2087D02*
X2302Y2087D01*
X2316Y2087D02*
X2340Y2087D01*
X2379Y2087D02*
X2402Y2087D01*
X2416Y2087D02*
X2440Y2087D01*
X2479Y2087D02*
X2502Y2087D01*
X2516Y2087D02*
X2540Y2087D01*
X2579Y2087D02*
X2602Y2087D01*
X2616Y2087D02*
X2640Y2087D01*
X2679Y2087D02*
X2702Y2087D01*
X2716Y2087D02*
X2740Y2087D01*
X2779Y2087D02*
X2802Y2087D01*
X2816Y2087D02*
X2840Y2087D01*
X2879Y2087D02*
X2902Y2087D01*
X2916Y2087D02*
X2940Y2087D01*
X2979Y2087D02*
X3002Y2087D01*
X3016Y2087D02*
X3040Y2087D01*
X3180Y2087D02*
X3241Y2087D01*
X3280Y2087D02*
X3341Y2087D01*
X3380Y2087D02*
X3441Y2087D01*
X3480Y2087D02*
X3541Y2087D01*
X3580Y2087D02*
X3641Y2087D01*
X3680Y2087D02*
X3741Y2087D01*
X3780Y2087D02*
X3841Y2087D01*
X3880Y2087D02*
X3941Y2087D01*
X2279Y2086D02*
X2304Y2086D01*
X2314Y2086D02*
X2340Y2086D01*
X2379Y2086D02*
X2404Y2086D01*
X2414Y2086D02*
X2440Y2086D01*
X2479Y2086D02*
X2504Y2086D01*
X2514Y2086D02*
X2540Y2086D01*
X2579Y2086D02*
X2604Y2086D01*
X2614Y2086D02*
X2640Y2086D01*
X2679Y2086D02*
X2704Y2086D01*
X2714Y2086D02*
X2740Y2086D01*
X2779Y2086D02*
X2804Y2086D01*
X2814Y2086D02*
X2840Y2086D01*
X2879Y2086D02*
X2904Y2086D01*
X2914Y2086D02*
X2940Y2086D01*
X2979Y2086D02*
X3004Y2086D01*
X3014Y2086D02*
X3040Y2086D01*
X3180Y2086D02*
X3241Y2086D01*
X3280Y2086D02*
X3341Y2086D01*
X3380Y2086D02*
X3441Y2086D01*
X3480Y2086D02*
X3541Y2086D01*
X3580Y2086D02*
X3641Y2086D01*
X3680Y2086D02*
X3741Y2086D01*
X3780Y2086D02*
X3841Y2086D01*
X3880Y2086D02*
X3941Y2086D01*
X2279Y2085D02*
X2340Y2085D01*
X2379Y2085D02*
X2440Y2085D01*
X2479Y2085D02*
X2540Y2085D01*
X2579Y2085D02*
X2640Y2085D01*
X2679Y2085D02*
X2740Y2085D01*
X2779Y2085D02*
X2840Y2085D01*
X2879Y2085D02*
X2940Y2085D01*
X2979Y2085D02*
X3040Y2085D01*
X3180Y2085D02*
X3241Y2085D01*
X3280Y2085D02*
X3341Y2085D01*
X3380Y2085D02*
X3441Y2085D01*
X3480Y2085D02*
X3541Y2085D01*
X3580Y2085D02*
X3641Y2085D01*
X3680Y2085D02*
X3741Y2085D01*
X3780Y2085D02*
X3841Y2085D01*
X3880Y2085D02*
X3941Y2085D01*
X2279Y2084D02*
X2340Y2084D01*
X2379Y2084D02*
X2440Y2084D01*
X2479Y2084D02*
X2540Y2084D01*
X2579Y2084D02*
X2640Y2084D01*
X2679Y2084D02*
X2740Y2084D01*
X2779Y2084D02*
X2840Y2084D01*
X2879Y2084D02*
X2940Y2084D01*
X2979Y2084D02*
X3040Y2084D01*
X3180Y2084D02*
X3241Y2084D01*
X3280Y2084D02*
X3341Y2084D01*
X3380Y2084D02*
X3441Y2084D01*
X3480Y2084D02*
X3541Y2084D01*
X3580Y2084D02*
X3641Y2084D01*
X3680Y2084D02*
X3741Y2084D01*
X3780Y2084D02*
X3841Y2084D01*
X3880Y2084D02*
X3941Y2084D01*
X2279Y2083D02*
X2340Y2083D01*
X2379Y2083D02*
X2440Y2083D01*
X2479Y2083D02*
X2540Y2083D01*
X2579Y2083D02*
X2640Y2083D01*
X2679Y2083D02*
X2740Y2083D01*
X2779Y2083D02*
X2840Y2083D01*
X2879Y2083D02*
X2940Y2083D01*
X2979Y2083D02*
X3040Y2083D01*
X3180Y2083D02*
X3241Y2083D01*
X3280Y2083D02*
X3341Y2083D01*
X3380Y2083D02*
X3441Y2083D01*
X3480Y2083D02*
X3541Y2083D01*
X3580Y2083D02*
X3641Y2083D01*
X3680Y2083D02*
X3741Y2083D01*
X3780Y2083D02*
X3841Y2083D01*
X3880Y2083D02*
X3941Y2083D01*
X2279Y2082D02*
X2340Y2082D01*
X2379Y2082D02*
X2440Y2082D01*
X2479Y2082D02*
X2540Y2082D01*
X2579Y2082D02*
X2640Y2082D01*
X2679Y2082D02*
X2740Y2082D01*
X2779Y2082D02*
X2840Y2082D01*
X2879Y2082D02*
X2940Y2082D01*
X2979Y2082D02*
X3040Y2082D01*
X3180Y2082D02*
X3241Y2082D01*
X3280Y2082D02*
X3341Y2082D01*
X3380Y2082D02*
X3441Y2082D01*
X3480Y2082D02*
X3541Y2082D01*
X3580Y2082D02*
X3641Y2082D01*
X3680Y2082D02*
X3741Y2082D01*
X3780Y2082D02*
X3841Y2082D01*
X3880Y2082D02*
X3941Y2082D01*
X2279Y2081D02*
X2340Y2081D01*
X2379Y2081D02*
X2440Y2081D01*
X2479Y2081D02*
X2540Y2081D01*
X2579Y2081D02*
X2640Y2081D01*
X2679Y2081D02*
X2740Y2081D01*
X2779Y2081D02*
X2840Y2081D01*
X2879Y2081D02*
X2940Y2081D01*
X2979Y2081D02*
X3040Y2081D01*
X3180Y2081D02*
X3241Y2081D01*
X3280Y2081D02*
X3341Y2081D01*
X3380Y2081D02*
X3441Y2081D01*
X3480Y2081D02*
X3541Y2081D01*
X3580Y2081D02*
X3641Y2081D01*
X3680Y2081D02*
X3741Y2081D01*
X3780Y2081D02*
X3841Y2081D01*
X3880Y2081D02*
X3941Y2081D01*
X2279Y2080D02*
X2340Y2080D01*
X2379Y2080D02*
X2440Y2080D01*
X2479Y2080D02*
X2540Y2080D01*
X2579Y2080D02*
X2640Y2080D01*
X2679Y2080D02*
X2740Y2080D01*
X2779Y2080D02*
X2840Y2080D01*
X2879Y2080D02*
X2940Y2080D01*
X2979Y2080D02*
X3040Y2080D01*
X3180Y2080D02*
X3241Y2080D01*
X3280Y2080D02*
X3341Y2080D01*
X3380Y2080D02*
X3441Y2080D01*
X3480Y2080D02*
X3541Y2080D01*
X3580Y2080D02*
X3641Y2080D01*
X3680Y2080D02*
X3741Y2080D01*
X3780Y2080D02*
X3841Y2080D01*
X3880Y2080D02*
X3941Y2080D01*
X2279Y2079D02*
X2340Y2079D01*
X2379Y2079D02*
X2440Y2079D01*
X2479Y2079D02*
X2540Y2079D01*
X2579Y2079D02*
X2640Y2079D01*
X2679Y2079D02*
X2740Y2079D01*
X2779Y2079D02*
X2840Y2079D01*
X2879Y2079D02*
X2940Y2079D01*
X2979Y2079D02*
X3040Y2079D01*
X3180Y2079D02*
X3241Y2079D01*
X3280Y2079D02*
X3341Y2079D01*
X3380Y2079D02*
X3441Y2079D01*
X3480Y2079D02*
X3541Y2079D01*
X3580Y2079D02*
X3641Y2079D01*
X3680Y2079D02*
X3741Y2079D01*
X3780Y2079D02*
X3841Y2079D01*
X3880Y2079D02*
X3941Y2079D01*
X2279Y2078D02*
X2340Y2078D01*
X2379Y2078D02*
X2440Y2078D01*
X2479Y2078D02*
X2540Y2078D01*
X2579Y2078D02*
X2640Y2078D01*
X2679Y2078D02*
X2740Y2078D01*
X2779Y2078D02*
X2840Y2078D01*
X2879Y2078D02*
X2940Y2078D01*
X2979Y2078D02*
X3040Y2078D01*
X3180Y2078D02*
X3241Y2078D01*
X3280Y2078D02*
X3341Y2078D01*
X3380Y2078D02*
X3441Y2078D01*
X3480Y2078D02*
X3541Y2078D01*
X3580Y2078D02*
X3641Y2078D01*
X3680Y2078D02*
X3741Y2078D01*
X3780Y2078D02*
X3841Y2078D01*
X3880Y2078D02*
X3941Y2078D01*
X2279Y2077D02*
X2340Y2077D01*
X2379Y2077D02*
X2440Y2077D01*
X2479Y2077D02*
X2540Y2077D01*
X2579Y2077D02*
X2640Y2077D01*
X2679Y2077D02*
X2740Y2077D01*
X2779Y2077D02*
X2840Y2077D01*
X2879Y2077D02*
X2940Y2077D01*
X2979Y2077D02*
X3040Y2077D01*
X3180Y2077D02*
X3241Y2077D01*
X3280Y2077D02*
X3341Y2077D01*
X3380Y2077D02*
X3441Y2077D01*
X3480Y2077D02*
X3541Y2077D01*
X3580Y2077D02*
X3641Y2077D01*
X3680Y2077D02*
X3741Y2077D01*
X3780Y2077D02*
X3841Y2077D01*
X3880Y2077D02*
X3941Y2077D01*
X2279Y2076D02*
X2340Y2076D01*
X2379Y2076D02*
X2440Y2076D01*
X2479Y2076D02*
X2540Y2076D01*
X2579Y2076D02*
X2640Y2076D01*
X2679Y2076D02*
X2740Y2076D01*
X2779Y2076D02*
X2840Y2076D01*
X2879Y2076D02*
X2940Y2076D01*
X2979Y2076D02*
X3040Y2076D01*
X3180Y2076D02*
X3241Y2076D01*
X3280Y2076D02*
X3341Y2076D01*
X3380Y2076D02*
X3441Y2076D01*
X3480Y2076D02*
X3541Y2076D01*
X3580Y2076D02*
X3641Y2076D01*
X3680Y2076D02*
X3741Y2076D01*
X3780Y2076D02*
X3841Y2076D01*
X3880Y2076D02*
X3941Y2076D01*
X2279Y2075D02*
X2340Y2075D01*
X2379Y2075D02*
X2440Y2075D01*
X2479Y2075D02*
X2540Y2075D01*
X2579Y2075D02*
X2640Y2075D01*
X2679Y2075D02*
X2740Y2075D01*
X2779Y2075D02*
X2840Y2075D01*
X2879Y2075D02*
X2940Y2075D01*
X2979Y2075D02*
X3040Y2075D01*
X3180Y2075D02*
X3241Y2075D01*
X3280Y2075D02*
X3341Y2075D01*
X3380Y2075D02*
X3441Y2075D01*
X3480Y2075D02*
X3541Y2075D01*
X3580Y2075D02*
X3641Y2075D01*
X3680Y2075D02*
X3741Y2075D01*
X3780Y2075D02*
X3841Y2075D01*
X3880Y2075D02*
X3941Y2075D01*
X2279Y2074D02*
X2340Y2074D01*
X2379Y2074D02*
X2440Y2074D01*
X2479Y2074D02*
X2540Y2074D01*
X2579Y2074D02*
X2640Y2074D01*
X2679Y2074D02*
X2740Y2074D01*
X2779Y2074D02*
X2840Y2074D01*
X2879Y2074D02*
X2940Y2074D01*
X2979Y2074D02*
X3040Y2074D01*
X3180Y2074D02*
X3241Y2074D01*
X3280Y2074D02*
X3341Y2074D01*
X3380Y2074D02*
X3441Y2074D01*
X3480Y2074D02*
X3541Y2074D01*
X3580Y2074D02*
X3641Y2074D01*
X3680Y2074D02*
X3741Y2074D01*
X3780Y2074D02*
X3841Y2074D01*
X3880Y2074D02*
X3941Y2074D01*
X2279Y2073D02*
X2340Y2073D01*
X2379Y2073D02*
X2440Y2073D01*
X2479Y2073D02*
X2540Y2073D01*
X2579Y2073D02*
X2640Y2073D01*
X2679Y2073D02*
X2740Y2073D01*
X2779Y2073D02*
X2840Y2073D01*
X2879Y2073D02*
X2940Y2073D01*
X2979Y2073D02*
X3040Y2073D01*
X3180Y2073D02*
X3241Y2073D01*
X3280Y2073D02*
X3341Y2073D01*
X3380Y2073D02*
X3441Y2073D01*
X3480Y2073D02*
X3541Y2073D01*
X3580Y2073D02*
X3641Y2073D01*
X3680Y2073D02*
X3741Y2073D01*
X3780Y2073D02*
X3841Y2073D01*
X3880Y2073D02*
X3941Y2073D01*
X2279Y2072D02*
X2340Y2072D01*
X2379Y2072D02*
X2440Y2072D01*
X2479Y2072D02*
X2540Y2072D01*
X2579Y2072D02*
X2640Y2072D01*
X2679Y2072D02*
X2740Y2072D01*
X2779Y2072D02*
X2840Y2072D01*
X2879Y2072D02*
X2940Y2072D01*
X2979Y2072D02*
X3040Y2072D01*
X3180Y2072D02*
X3241Y2072D01*
X3280Y2072D02*
X3341Y2072D01*
X3380Y2072D02*
X3441Y2072D01*
X3480Y2072D02*
X3541Y2072D01*
X3580Y2072D02*
X3641Y2072D01*
X3680Y2072D02*
X3741Y2072D01*
X3780Y2072D02*
X3841Y2072D01*
X3880Y2072D02*
X3941Y2072D01*
X2279Y2071D02*
X2340Y2071D01*
X2379Y2071D02*
X2440Y2071D01*
X2479Y2071D02*
X2540Y2071D01*
X2579Y2071D02*
X2640Y2071D01*
X2679Y2071D02*
X2740Y2071D01*
X2779Y2071D02*
X2840Y2071D01*
X2879Y2071D02*
X2940Y2071D01*
X2979Y2071D02*
X3040Y2071D01*
X3181Y2071D02*
X3241Y2071D01*
X3280Y2071D02*
X3341Y2071D01*
X3380Y2071D02*
X3441Y2071D01*
X3480Y2071D02*
X3541Y2071D01*
X3580Y2071D02*
X3641Y2071D01*
X3680Y2071D02*
X3741Y2071D01*
X3780Y2071D02*
X3841Y2071D01*
X3880Y2071D02*
X3941Y2071D01*
X2279Y2070D02*
X2340Y2070D01*
X2379Y2070D02*
X2440Y2070D01*
X2479Y2070D02*
X2540Y2070D01*
X2579Y2070D02*
X2640Y2070D01*
X2679Y2070D02*
X2740Y2070D01*
X2779Y2070D02*
X2840Y2070D01*
X2879Y2070D02*
X2940Y2070D01*
X2979Y2070D02*
X3040Y2070D01*
X3181Y2070D02*
X3241Y2070D01*
X3281Y2070D02*
X3341Y2070D01*
X3381Y2070D02*
X3441Y2070D01*
X3481Y2070D02*
X3541Y2070D01*
X3581Y2070D02*
X3641Y2070D01*
X3681Y2070D02*
X3741Y2070D01*
X3781Y2070D02*
X3841Y2070D01*
X3881Y2070D02*
X3941Y2070D01*
X2279Y2069D02*
X2340Y2069D01*
X2379Y2069D02*
X2440Y2069D01*
X2479Y2069D02*
X2540Y2069D01*
X2579Y2069D02*
X2640Y2069D01*
X2679Y2069D02*
X2740Y2069D01*
X2779Y2069D02*
X2840Y2069D01*
X2879Y2069D02*
X2940Y2069D01*
X2979Y2069D02*
X3040Y2069D01*
X3181Y2069D02*
X3241Y2069D01*
X3281Y2069D02*
X3341Y2069D01*
X3381Y2069D02*
X3441Y2069D01*
X3481Y2069D02*
X3541Y2069D01*
X3581Y2069D02*
X3641Y2069D01*
X3681Y2069D02*
X3741Y2069D01*
X3781Y2069D02*
X3841Y2069D01*
X3881Y2069D02*
X3941Y2069D01*
X2279Y2068D02*
X2340Y2068D01*
X2379Y2068D02*
X2440Y2068D01*
X2479Y2068D02*
X2540Y2068D01*
X2579Y2068D02*
X2640Y2068D01*
X2679Y2068D02*
X2740Y2068D01*
X2779Y2068D02*
X2840Y2068D01*
X2879Y2068D02*
X2940Y2068D01*
X2979Y2068D02*
X3040Y2068D01*
X3181Y2068D02*
X3241Y2068D01*
X3281Y2068D02*
X3341Y2068D01*
X3381Y2068D02*
X3441Y2068D01*
X3481Y2068D02*
X3541Y2068D01*
X3581Y2068D02*
X3641Y2068D01*
X3681Y2068D02*
X3741Y2068D01*
X3781Y2068D02*
X3841Y2068D01*
X3881Y2068D02*
X3941Y2068D01*
X2279Y2067D02*
X2340Y2067D01*
X2379Y2067D02*
X2440Y2067D01*
X2479Y2067D02*
X2540Y2067D01*
X2579Y2067D02*
X2640Y2067D01*
X2679Y2067D02*
X2740Y2067D01*
X2779Y2067D02*
X2839Y2067D01*
X2879Y2067D02*
X2939Y2067D01*
X2979Y2067D02*
X3039Y2067D01*
X3181Y2067D02*
X3241Y2067D01*
X3281Y2067D02*
X3341Y2067D01*
X3381Y2067D02*
X3441Y2067D01*
X3481Y2067D02*
X3541Y2067D01*
X3581Y2067D02*
X3641Y2067D01*
X3681Y2067D02*
X3741Y2067D01*
X3781Y2067D02*
X3841Y2067D01*
X3881Y2067D02*
X3941Y2067D01*
X2279Y2066D02*
X2339Y2066D01*
X2379Y2066D02*
X2439Y2066D01*
X2479Y2066D02*
X2539Y2066D01*
X2579Y2066D02*
X2639Y2066D01*
X2679Y2066D02*
X2739Y2066D01*
X2779Y2066D02*
X2839Y2066D01*
X2879Y2066D02*
X2939Y2066D01*
X2979Y2066D02*
X3039Y2066D01*
X3181Y2066D02*
X3241Y2066D01*
X3281Y2066D02*
X3341Y2066D01*
X3381Y2066D02*
X3441Y2066D01*
X3481Y2066D02*
X3541Y2066D01*
X3581Y2066D02*
X3641Y2066D01*
X3681Y2066D02*
X3741Y2066D01*
X3781Y2066D02*
X3841Y2066D01*
X3881Y2066D02*
X3941Y2066D01*
X2279Y2065D02*
X2339Y2065D01*
X2379Y2065D02*
X2439Y2065D01*
X2479Y2065D02*
X2539Y2065D01*
X2579Y2065D02*
X2639Y2065D01*
X2679Y2065D02*
X2739Y2065D01*
X2779Y2065D02*
X2839Y2065D01*
X2879Y2065D02*
X2939Y2065D01*
X2979Y2065D02*
X3039Y2065D01*
X3182Y2065D02*
X3240Y2065D01*
X3282Y2065D02*
X3340Y2065D01*
X3382Y2065D02*
X3440Y2065D01*
X3481Y2065D02*
X3540Y2065D01*
X3581Y2065D02*
X3640Y2065D01*
X3681Y2065D02*
X3740Y2065D01*
X3781Y2065D02*
X3840Y2065D01*
X3881Y2065D02*
X3940Y2065D01*
X2279Y2064D02*
X2339Y2064D01*
X2379Y2064D02*
X2439Y2064D01*
X2479Y2064D02*
X2539Y2064D01*
X2579Y2064D02*
X2639Y2064D01*
X2679Y2064D02*
X2739Y2064D01*
X2779Y2064D02*
X2839Y2064D01*
X2879Y2064D02*
X2939Y2064D01*
X2979Y2064D02*
X3039Y2064D01*
X3182Y2064D02*
X3240Y2064D01*
X3282Y2064D02*
X3340Y2064D01*
X3382Y2064D02*
X3440Y2064D01*
X3482Y2064D02*
X3540Y2064D01*
X3582Y2064D02*
X3640Y2064D01*
X3682Y2064D02*
X3740Y2064D01*
X3782Y2064D02*
X3840Y2064D01*
X3882Y2064D02*
X3940Y2064D01*
X2280Y2063D02*
X2339Y2063D01*
X2380Y2063D02*
X2439Y2063D01*
X2480Y2063D02*
X2539Y2063D01*
X2580Y2063D02*
X2639Y2063D01*
X2680Y2063D02*
X2739Y2063D01*
X2780Y2063D02*
X2839Y2063D01*
X2880Y2063D02*
X2939Y2063D01*
X2980Y2063D02*
X3039Y2063D01*
X3182Y2063D02*
X3240Y2063D01*
X3282Y2063D02*
X3340Y2063D01*
X3382Y2063D02*
X3440Y2063D01*
X3482Y2063D02*
X3540Y2063D01*
X3582Y2063D02*
X3640Y2063D01*
X3682Y2063D02*
X3740Y2063D01*
X3782Y2063D02*
X3840Y2063D01*
X3882Y2063D02*
X3940Y2063D01*
X2280Y2062D02*
X2339Y2062D01*
X2380Y2062D02*
X2438Y2062D01*
X2480Y2062D02*
X2538Y2062D01*
X2580Y2062D02*
X2638Y2062D01*
X2680Y2062D02*
X2738Y2062D01*
X2780Y2062D02*
X2838Y2062D01*
X2880Y2062D02*
X2938Y2062D01*
X2980Y2062D02*
X3038Y2062D01*
X3183Y2062D02*
X3239Y2062D01*
X3283Y2062D02*
X3339Y2062D01*
X3383Y2062D02*
X3439Y2062D01*
X3482Y2062D02*
X3539Y2062D01*
X3582Y2062D02*
X3639Y2062D01*
X3682Y2062D02*
X3739Y2062D01*
X3782Y2062D02*
X3839Y2062D01*
X3882Y2062D02*
X3939Y2062D01*
X2280Y2061D02*
X2338Y2061D01*
X2380Y2061D02*
X2438Y2061D01*
X2480Y2061D02*
X2538Y2061D01*
X2580Y2061D02*
X2638Y2061D01*
X2680Y2061D02*
X2738Y2061D01*
X2780Y2061D02*
X2838Y2061D01*
X2880Y2061D02*
X2938Y2061D01*
X2980Y2061D02*
X3038Y2061D01*
X3183Y2061D02*
X3239Y2061D01*
X3283Y2061D02*
X3339Y2061D01*
X3383Y2061D02*
X3439Y2061D01*
X3483Y2061D02*
X3539Y2061D01*
X3583Y2061D02*
X3639Y2061D01*
X3683Y2061D02*
X3739Y2061D01*
X3783Y2061D02*
X3839Y2061D01*
X3883Y2061D02*
X3939Y2061D01*
X2281Y2060D02*
X2338Y2060D01*
X2381Y2060D02*
X2438Y2060D01*
X2481Y2060D02*
X2538Y2060D01*
X2581Y2060D02*
X2638Y2060D01*
X2681Y2060D02*
X2738Y2060D01*
X2781Y2060D02*
X2838Y2060D01*
X2881Y2060D02*
X2938Y2060D01*
X2981Y2060D02*
X3038Y2060D01*
X3183Y2060D02*
X3239Y2060D01*
X3283Y2060D02*
X3339Y2060D01*
X3383Y2060D02*
X3439Y2060D01*
X3483Y2060D02*
X3538Y2060D01*
X3583Y2060D02*
X3638Y2060D01*
X3683Y2060D02*
X3738Y2060D01*
X3783Y2060D02*
X3838Y2060D01*
X3883Y2060D02*
X3938Y2060D01*
X2281Y2059D02*
X2337Y2059D01*
X2381Y2059D02*
X2437Y2059D01*
X2481Y2059D02*
X2537Y2059D01*
X2581Y2059D02*
X2637Y2059D01*
X2681Y2059D02*
X2737Y2059D01*
X2781Y2059D02*
X2837Y2059D01*
X2881Y2059D02*
X2937Y2059D01*
X2981Y2059D02*
X3037Y2059D01*
X3184Y2059D02*
X3238Y2059D01*
X3284Y2059D02*
X3338Y2059D01*
X3384Y2059D02*
X3438Y2059D01*
X3484Y2059D02*
X3538Y2059D01*
X3584Y2059D02*
X3638Y2059D01*
X3684Y2059D02*
X3738Y2059D01*
X3784Y2059D02*
X3838Y2059D01*
X3884Y2059D02*
X3938Y2059D01*
X2281Y2058D02*
X2337Y2058D01*
X2381Y2058D02*
X2437Y2058D01*
X2481Y2058D02*
X2537Y2058D01*
X2581Y2058D02*
X2637Y2058D01*
X2681Y2058D02*
X2737Y2058D01*
X2781Y2058D02*
X2837Y2058D01*
X2881Y2058D02*
X2937Y2058D01*
X2981Y2058D02*
X3037Y2058D01*
X3184Y2058D02*
X3237Y2058D01*
X3284Y2058D02*
X3337Y2058D01*
X3384Y2058D02*
X3437Y2058D01*
X3484Y2058D02*
X3537Y2058D01*
X3584Y2058D02*
X3637Y2058D01*
X3684Y2058D02*
X3737Y2058D01*
X3784Y2058D02*
X3837Y2058D01*
X3884Y2058D02*
X3937Y2058D01*
X2282Y2057D02*
X2337Y2057D01*
X2382Y2057D02*
X2437Y2057D01*
X2482Y2057D02*
X2537Y2057D01*
X2582Y2057D02*
X2636Y2057D01*
X2682Y2057D02*
X2736Y2057D01*
X2782Y2057D02*
X2836Y2057D01*
X2882Y2057D02*
X2936Y2057D01*
X2982Y2057D02*
X3036Y2057D01*
X3185Y2057D02*
X3237Y2057D01*
X3285Y2057D02*
X3337Y2057D01*
X3385Y2057D02*
X3437Y2057D01*
X3485Y2057D02*
X3537Y2057D01*
X3585Y2057D02*
X3637Y2057D01*
X3685Y2057D02*
X3737Y2057D01*
X3785Y2057D02*
X3837Y2057D01*
X3885Y2057D02*
X3937Y2057D01*
X2282Y2056D02*
X2336Y2056D01*
X2382Y2056D02*
X2436Y2056D01*
X2482Y2056D02*
X2536Y2056D01*
X2582Y2056D02*
X2636Y2056D01*
X2682Y2056D02*
X2736Y2056D01*
X2782Y2056D02*
X2836Y2056D01*
X2882Y2056D02*
X2936Y2056D01*
X2982Y2056D02*
X3036Y2056D01*
X3186Y2056D02*
X3236Y2056D01*
X3286Y2056D02*
X3336Y2056D01*
X3386Y2056D02*
X3436Y2056D01*
X3486Y2056D02*
X3536Y2056D01*
X3586Y2056D02*
X3636Y2056D01*
X3686Y2056D02*
X3736Y2056D01*
X3786Y2056D02*
X3836Y2056D01*
X3886Y2056D02*
X3936Y2056D01*
X2283Y2055D02*
X2335Y2055D01*
X2383Y2055D02*
X2435Y2055D01*
X2483Y2055D02*
X2535Y2055D01*
X2583Y2055D02*
X2635Y2055D01*
X2683Y2055D02*
X2735Y2055D01*
X2783Y2055D02*
X2835Y2055D01*
X2883Y2055D02*
X2935Y2055D01*
X2983Y2055D02*
X3035Y2055D01*
X3186Y2055D02*
X3236Y2055D01*
X3286Y2055D02*
X3336Y2055D01*
X3386Y2055D02*
X3436Y2055D01*
X3486Y2055D02*
X3536Y2055D01*
X3586Y2055D02*
X3636Y2055D01*
X3686Y2055D02*
X3736Y2055D01*
X3786Y2055D02*
X3835Y2055D01*
X3886Y2055D02*
X3935Y2055D01*
X2284Y2054D02*
X2335Y2054D01*
X2384Y2054D02*
X2435Y2054D01*
X2484Y2054D02*
X2535Y2054D01*
X2584Y2054D02*
X2635Y2054D01*
X2684Y2054D02*
X2735Y2054D01*
X2784Y2054D02*
X2835Y2054D01*
X2884Y2054D02*
X2935Y2054D01*
X2984Y2054D02*
X3035Y2054D01*
X3187Y2054D02*
X3235Y2054D01*
X3287Y2054D02*
X3335Y2054D01*
X3387Y2054D02*
X3435Y2054D01*
X3487Y2054D02*
X3535Y2054D01*
X3587Y2054D02*
X3635Y2054D01*
X3687Y2054D02*
X3735Y2054D01*
X3787Y2054D02*
X3835Y2054D01*
X3887Y2054D02*
X3935Y2054D01*
X2284Y2053D02*
X2334Y2053D01*
X2384Y2053D02*
X2434Y2053D01*
X2484Y2053D02*
X2534Y2053D01*
X2584Y2053D02*
X2634Y2053D01*
X2684Y2053D02*
X2734Y2053D01*
X2784Y2053D02*
X2834Y2053D01*
X2884Y2053D02*
X2934Y2053D01*
X2984Y2053D02*
X3034Y2053D01*
X3188Y2053D02*
X3234Y2053D01*
X3288Y2053D02*
X3334Y2053D01*
X3388Y2053D02*
X3434Y2053D01*
X3488Y2053D02*
X3534Y2053D01*
X3588Y2053D02*
X3634Y2053D01*
X3688Y2053D02*
X3734Y2053D01*
X3788Y2053D02*
X3834Y2053D01*
X3888Y2053D02*
X3934Y2053D01*
X2285Y2052D02*
X2333Y2052D01*
X2385Y2052D02*
X2433Y2052D01*
X2485Y2052D02*
X2533Y2052D01*
X2585Y2052D02*
X2633Y2052D01*
X2685Y2052D02*
X2733Y2052D01*
X2785Y2052D02*
X2833Y2052D01*
X2885Y2052D02*
X2933Y2052D01*
X2985Y2052D02*
X3033Y2052D01*
X3189Y2052D02*
X3233Y2052D01*
X3289Y2052D02*
X3333Y2052D01*
X3389Y2052D02*
X3433Y2052D01*
X3489Y2052D02*
X3533Y2052D01*
X3589Y2052D02*
X3633Y2052D01*
X3689Y2052D02*
X3733Y2052D01*
X3789Y2052D02*
X3833Y2052D01*
X3889Y2052D02*
X3933Y2052D01*
X2286Y2051D02*
X2333Y2051D01*
X2386Y2051D02*
X2433Y2051D01*
X2486Y2051D02*
X2533Y2051D01*
X2586Y2051D02*
X2633Y2051D01*
X2686Y2051D02*
X2733Y2051D01*
X2786Y2051D02*
X2833Y2051D01*
X2886Y2051D02*
X2933Y2051D01*
X2986Y2051D02*
X3033Y2051D01*
X3190Y2051D02*
X3232Y2051D01*
X3290Y2051D02*
X3332Y2051D01*
X3390Y2051D02*
X3432Y2051D01*
X3490Y2051D02*
X3532Y2051D01*
X3590Y2051D02*
X3632Y2051D01*
X3690Y2051D02*
X3732Y2051D01*
X3790Y2051D02*
X3832Y2051D01*
X3890Y2051D02*
X3932Y2051D01*
X2287Y2050D02*
X2332Y2050D01*
X2387Y2050D02*
X2432Y2050D01*
X2487Y2050D02*
X2532Y2050D01*
X2587Y2050D02*
X2632Y2050D01*
X2687Y2050D02*
X2732Y2050D01*
X2787Y2050D02*
X2832Y2050D01*
X2887Y2050D02*
X2932Y2050D01*
X2987Y2050D02*
X3032Y2050D01*
X3191Y2050D02*
X3231Y2050D01*
X3291Y2050D02*
X3331Y2050D01*
X3391Y2050D02*
X3431Y2050D01*
X3491Y2050D02*
X3531Y2050D01*
X3591Y2050D02*
X3631Y2050D01*
X3691Y2050D02*
X3731Y2050D01*
X3791Y2050D02*
X3831Y2050D01*
X3891Y2050D02*
X3931Y2050D01*
X2288Y2049D02*
X2331Y2049D01*
X2388Y2049D02*
X2431Y2049D01*
X2488Y2049D02*
X2531Y2049D01*
X2588Y2049D02*
X2631Y2049D01*
X2688Y2049D02*
X2731Y2049D01*
X2788Y2049D02*
X2831Y2049D01*
X2888Y2049D02*
X2931Y2049D01*
X2988Y2049D02*
X3031Y2049D01*
X3192Y2049D02*
X3230Y2049D01*
X3292Y2049D02*
X3330Y2049D01*
X3392Y2049D02*
X3430Y2049D01*
X3492Y2049D02*
X3530Y2049D01*
X3592Y2049D02*
X3630Y2049D01*
X3692Y2049D02*
X3730Y2049D01*
X3792Y2049D02*
X3830Y2049D01*
X3892Y2049D02*
X3930Y2049D01*
X2289Y2048D02*
X2330Y2048D01*
X2389Y2048D02*
X2430Y2048D01*
X2489Y2048D02*
X2530Y2048D01*
X2589Y2048D02*
X2630Y2048D01*
X2689Y2048D02*
X2730Y2048D01*
X2789Y2048D02*
X2830Y2048D01*
X2889Y2048D02*
X2930Y2048D01*
X2989Y2048D02*
X3030Y2048D01*
X3193Y2048D02*
X3229Y2048D01*
X3293Y2048D02*
X3329Y2048D01*
X3393Y2048D02*
X3429Y2048D01*
X3493Y2048D02*
X3529Y2048D01*
X3593Y2048D02*
X3629Y2048D01*
X3693Y2048D02*
X3729Y2048D01*
X3793Y2048D02*
X3829Y2048D01*
X3893Y2048D02*
X3929Y2048D01*
X2290Y2047D02*
X2329Y2047D01*
X2390Y2047D02*
X2429Y2047D01*
X2490Y2047D02*
X2529Y2047D01*
X2590Y2047D02*
X2629Y2047D01*
X2690Y2047D02*
X2729Y2047D01*
X2790Y2047D02*
X2829Y2047D01*
X2890Y2047D02*
X2929Y2047D01*
X2990Y2047D02*
X3029Y2047D01*
X3195Y2047D02*
X3227Y2047D01*
X3295Y2047D02*
X3327Y2047D01*
X3395Y2047D02*
X3427Y2047D01*
X3495Y2047D02*
X3527Y2047D01*
X3595Y2047D02*
X3627Y2047D01*
X3695Y2047D02*
X3727Y2047D01*
X3795Y2047D02*
X3827Y2047D01*
X3895Y2047D02*
X3927Y2047D01*
X2291Y2046D02*
X2328Y2046D01*
X2391Y2046D02*
X2428Y2046D01*
X2491Y2046D02*
X2528Y2046D01*
X2591Y2046D02*
X2628Y2046D01*
X2691Y2046D02*
X2728Y2046D01*
X2791Y2046D02*
X2828Y2046D01*
X2891Y2046D02*
X2928Y2046D01*
X2991Y2046D02*
X3027Y2046D01*
X3196Y2046D02*
X3226Y2046D01*
X3296Y2046D02*
X3326Y2046D01*
X3396Y2046D02*
X3426Y2046D01*
X3496Y2046D02*
X3526Y2046D01*
X3596Y2046D02*
X3626Y2046D01*
X3696Y2046D02*
X3726Y2046D01*
X3796Y2046D02*
X3826Y2046D01*
X3896Y2046D02*
X3926Y2046D01*
X2292Y2045D02*
X2326Y2045D01*
X2392Y2045D02*
X2426Y2045D01*
X2492Y2045D02*
X2526Y2045D01*
X2592Y2045D02*
X2626Y2045D01*
X2692Y2045D02*
X2726Y2045D01*
X2792Y2045D02*
X2826Y2045D01*
X2892Y2045D02*
X2926Y2045D01*
X2992Y2045D02*
X3026Y2045D01*
X3198Y2045D02*
X3224Y2045D01*
X3298Y2045D02*
X3324Y2045D01*
X3398Y2045D02*
X3424Y2045D01*
X3498Y2045D02*
X3524Y2045D01*
X3598Y2045D02*
X3624Y2045D01*
X3698Y2045D02*
X3724Y2045D01*
X3798Y2045D02*
X3824Y2045D01*
X3898Y2045D02*
X3924Y2045D01*
X2294Y2044D02*
X2325Y2044D01*
X2394Y2044D02*
X2425Y2044D01*
X2494Y2044D02*
X2525Y2044D01*
X2594Y2044D02*
X2625Y2044D01*
X2694Y2044D02*
X2725Y2044D01*
X2794Y2044D02*
X2825Y2044D01*
X2894Y2044D02*
X2925Y2044D01*
X2994Y2044D02*
X3025Y2044D01*
X3200Y2044D02*
X3222Y2044D01*
X3300Y2044D02*
X3322Y2044D01*
X3400Y2044D02*
X3422Y2044D01*
X3500Y2044D02*
X3522Y2044D01*
X3600Y2044D02*
X3622Y2044D01*
X3700Y2044D02*
X3722Y2044D01*
X3800Y2044D02*
X3822Y2044D01*
X3900Y2044D02*
X3922Y2044D01*
X2295Y2043D02*
X2323Y2043D01*
X2395Y2043D02*
X2423Y2043D01*
X2495Y2043D02*
X2523Y2043D01*
X2595Y2043D02*
X2623Y2043D01*
X2695Y2043D02*
X2723Y2043D01*
X2795Y2043D02*
X2823Y2043D01*
X2895Y2043D02*
X2923Y2043D01*
X2995Y2043D02*
X3023Y2043D01*
X3203Y2043D02*
X3219Y2043D01*
X3303Y2043D02*
X3319Y2043D01*
X3403Y2043D02*
X3419Y2043D01*
X3503Y2043D02*
X3519Y2043D01*
X3603Y2043D02*
X3619Y2043D01*
X3703Y2043D02*
X3719Y2043D01*
X3803Y2043D02*
X3819Y2043D01*
X3903Y2043D02*
X3919Y2043D01*
X2297Y2042D02*
X2321Y2042D01*
X2397Y2042D02*
X2421Y2042D01*
X2497Y2042D02*
X2521Y2042D01*
X2597Y2042D02*
X2621Y2042D01*
X2697Y2042D02*
X2721Y2042D01*
X2797Y2042D02*
X2821Y2042D01*
X2897Y2042D02*
X2921Y2042D01*
X2997Y2042D02*
X3021Y2042D01*
X3207Y2042D02*
X3215Y2042D01*
X3307Y2042D02*
X3315Y2042D01*
X3407Y2042D02*
X3415Y2042D01*
X3507Y2042D02*
X3515Y2042D01*
X3607Y2042D02*
X3615Y2042D01*
X3707Y2042D02*
X3715Y2042D01*
X3807Y2042D02*
X3815Y2042D01*
X3907Y2042D02*
X3915Y2042D01*
X2300Y2041D02*
X2319Y2041D01*
X2400Y2041D02*
X2419Y2041D01*
X2500Y2041D02*
X2519Y2041D01*
X2600Y2041D02*
X2619Y2041D01*
X2700Y2041D02*
X2719Y2041D01*
X2800Y2041D02*
X2819Y2041D01*
X2900Y2041D02*
X2919Y2041D01*
X3000Y2041D02*
X3019Y2041D01*
X2303Y2040D02*
X2315Y2040D01*
X2403Y2040D02*
X2415Y2040D01*
X2503Y2040D02*
X2515Y2040D01*
X2603Y2040D02*
X2615Y2040D01*
X2703Y2040D02*
X2715Y2040D01*
X2803Y2040D02*
X2815Y2040D01*
X2903Y2040D02*
X2915Y2040D01*
X3003Y2040D02*
X3015Y2040D01*
D02*
G04 End of Mask1*
M02*