G04 MADE WITH FRITZING*
G04 WWW.FRITZING.ORG*
G04 DOUBLE SIDED*
G04 HOLES PLATED*
G04 CONTOUR ON CENTER OF CONTOUR VECTOR*
%ASAXBY*%
%FSLAX23Y23*%
%MOIN*%
%OFA0B0*%
%SFA1.0B1.0*%
%ADD10C,0.078000*%
%ADD11C,0.039370*%
%ADD12C,0.052000*%
%ADD13C,0.075000*%
%ADD14R,0.075000X0.075000*%
%ADD15C,0.024000*%
%ADD16C,0.020000*%
%ADD17R,0.001000X0.001000*%
%LNCOPPER1*%
G90*
G70*
G54D10*
X710Y996D03*
X810Y996D03*
X910Y996D03*
X1010Y996D03*
X1110Y996D03*
X1210Y996D03*
X1310Y996D03*
X1410Y996D03*
X1510Y996D03*
X1610Y996D03*
X1710Y996D03*
X1810Y996D03*
X1910Y996D03*
X2010Y996D03*
X2110Y996D03*
X2210Y996D03*
X2310Y996D03*
X710Y1596D03*
X810Y1596D03*
X910Y1596D03*
X1010Y1596D03*
X1110Y1596D03*
X1210Y1596D03*
X1310Y1596D03*
X1410Y1596D03*
X1510Y1596D03*
X1610Y1596D03*
X1710Y1596D03*
X1810Y1596D03*
X1910Y1596D03*
X2010Y1596D03*
X2110Y1596D03*
X2210Y1596D03*
X2310Y1596D03*
G54D11*
X3365Y1872D03*
G54D12*
X3912Y2398D03*
X3812Y2398D03*
X3712Y2398D03*
X3612Y2398D03*
X3512Y2398D03*
X3412Y2398D03*
X3312Y2398D03*
X3212Y2398D03*
X3212Y2098D03*
X3312Y2098D03*
X3412Y2098D03*
X3512Y2098D03*
X3612Y2098D03*
X3712Y2098D03*
X3812Y2098D03*
X3912Y2098D03*
X3912Y2398D03*
X3812Y2398D03*
X3712Y2398D03*
X3612Y2398D03*
X3512Y2398D03*
X3412Y2398D03*
X3312Y2398D03*
X3212Y2398D03*
X3212Y2098D03*
X3312Y2098D03*
X3412Y2098D03*
X3512Y2098D03*
X3612Y2098D03*
X3712Y2098D03*
X3812Y2098D03*
X3912Y2098D03*
X3010Y2396D03*
X2910Y2396D03*
X2810Y2396D03*
X2710Y2396D03*
X2610Y2396D03*
X2510Y2396D03*
X2410Y2396D03*
X2310Y2396D03*
X2310Y2096D03*
X2410Y2096D03*
X2510Y2096D03*
X2610Y2096D03*
X2710Y2096D03*
X2810Y2096D03*
X2910Y2096D03*
X3010Y2096D03*
X3010Y2396D03*
X2910Y2396D03*
X2810Y2396D03*
X2710Y2396D03*
X2610Y2396D03*
X2510Y2396D03*
X2410Y2396D03*
X2310Y2396D03*
X2310Y2096D03*
X2410Y2096D03*
X2510Y2096D03*
X2610Y2096D03*
X2710Y2096D03*
X2810Y2096D03*
X2910Y2096D03*
X3010Y2096D03*
G54D10*
X1710Y696D03*
X1710Y596D03*
X1710Y496D03*
X1710Y396D03*
X1710Y296D03*
X1710Y196D03*
X2610Y1096D03*
X2610Y996D03*
X1758Y3196D03*
X1858Y3196D03*
G54D13*
X2510Y2596D03*
X2510Y2996D03*
X2910Y2596D03*
X2910Y2996D03*
X910Y2596D03*
X1193Y2879D03*
X1110Y2396D03*
X1393Y2679D03*
G54D11*
X2034Y2388D03*
G54D13*
X1010Y2496D03*
X1293Y2779D03*
G54D11*
X910Y1296D03*
G54D13*
X3010Y2596D03*
X3010Y2996D03*
X2810Y2596D03*
X2810Y2996D03*
G54D11*
X2710Y1396D03*
G54D13*
X1210Y2305D03*
X1493Y2588D03*
X3110Y2596D03*
X3110Y2996D03*
X2610Y2596D03*
X2610Y2996D03*
G54D11*
X2710Y1296D03*
G54D13*
X2710Y2596D03*
X2710Y2996D03*
X2410Y2596D03*
X2410Y2996D03*
G54D11*
X2010Y1096D03*
G54D13*
X810Y2696D03*
X1093Y2979D03*
G54D10*
X610Y1796D03*
X610Y1896D03*
X610Y1996D03*
X610Y2096D03*
X610Y2196D03*
X610Y2296D03*
X610Y2396D03*
X610Y2496D03*
X610Y2596D03*
X610Y2696D03*
G54D13*
X3610Y2596D03*
X3610Y2996D03*
G54D10*
X2410Y3196D03*
X2510Y3196D03*
X2610Y3196D03*
X2710Y3196D03*
X2810Y3196D03*
X2910Y3196D03*
X3010Y3196D03*
X3110Y3196D03*
G54D13*
X3510Y2596D03*
X3510Y2996D03*
G54D10*
X3310Y3196D03*
X3410Y3196D03*
X3510Y3196D03*
X3610Y3196D03*
X3710Y3196D03*
X3810Y3196D03*
X3910Y3196D03*
X4010Y3196D03*
G54D13*
X3710Y2596D03*
X3710Y2996D03*
X3910Y2596D03*
X3910Y2996D03*
X4010Y2596D03*
X4010Y2996D03*
X3810Y2596D03*
X3810Y2996D03*
X1310Y2196D03*
X1593Y2479D03*
G54D10*
X3210Y1596D03*
X3310Y1596D03*
X3410Y1596D03*
X3510Y1596D03*
X3610Y1596D03*
X3710Y1596D03*
X3810Y1596D03*
X3910Y1596D03*
G54D13*
X1410Y2096D03*
X1693Y2379D03*
X1510Y1996D03*
X1793Y2279D03*
X1610Y1896D03*
X1893Y2179D03*
X3410Y2596D03*
X3410Y2996D03*
X1710Y1796D03*
X1993Y2079D03*
X3310Y2596D03*
X3310Y2996D03*
G54D11*
X2610Y1796D03*
G54D14*
X2510Y2596D03*
X2910Y2596D03*
X3010Y2596D03*
X2810Y2596D03*
X3110Y2596D03*
X2610Y2596D03*
X2710Y2596D03*
X2410Y2596D03*
X3610Y2596D03*
X3510Y2596D03*
X3710Y2596D03*
X3910Y2596D03*
X4010Y2596D03*
X3810Y2596D03*
X3410Y2596D03*
X3310Y2596D03*
G54D15*
X3209Y2293D02*
X3211Y2371D01*
D02*
X3609Y2195D02*
X3209Y2293D01*
D02*
X3611Y2125D02*
X3609Y2195D01*
D02*
X1810Y1196D02*
X1810Y1026D01*
D02*
X1808Y598D02*
X1810Y966D01*
D02*
X1740Y596D02*
X1808Y598D01*
D02*
X2611Y1532D02*
X2610Y1777D01*
D02*
X1709Y1397D02*
X2611Y1532D01*
D02*
X710Y1395D02*
X1709Y1397D01*
D02*
X710Y1026D02*
X710Y1395D01*
D02*
X3608Y1696D02*
X3381Y1861D01*
D02*
X3609Y1626D02*
X3608Y1696D01*
D02*
X1281Y2196D02*
X640Y2196D01*
D02*
X1181Y2304D02*
X640Y2296D01*
D02*
X1081Y2396D02*
X640Y2396D01*
D02*
X981Y2496D02*
X640Y2496D01*
D02*
X881Y2596D02*
X640Y2596D01*
D02*
X781Y2696D02*
X640Y2696D01*
D02*
X3310Y3166D02*
X3310Y3024D01*
D02*
X4009Y2297D02*
X4010Y2567D01*
D02*
X3810Y2567D02*
X3811Y2425D01*
D02*
X3911Y2425D02*
X3910Y2567D01*
D02*
X3809Y2194D02*
X4009Y2297D01*
D02*
X3811Y2125D02*
X3809Y2194D01*
D02*
X4010Y3166D02*
X4010Y3024D01*
D02*
X3910Y3166D02*
X3910Y3024D01*
D02*
X3810Y3166D02*
X3810Y3024D01*
D02*
X3710Y3166D02*
X3710Y3024D01*
D02*
X3610Y3166D02*
X3610Y3024D01*
D02*
X3510Y3166D02*
X3510Y3024D01*
D02*
X3410Y3166D02*
X3410Y3024D01*
D02*
X3616Y1942D02*
X3612Y2071D01*
D02*
X2910Y3166D02*
X2910Y3024D01*
D02*
X3010Y3166D02*
X3010Y3024D01*
D02*
X3110Y3166D02*
X3110Y3024D01*
D02*
X3310Y2567D02*
X3311Y2425D01*
D02*
X3410Y2567D02*
X3411Y2425D01*
D02*
X3510Y2567D02*
X3511Y2425D01*
D02*
X3610Y2567D02*
X3611Y2425D01*
D02*
X3710Y2567D02*
X3711Y2425D01*
D02*
X2712Y2194D02*
X2309Y2295D01*
D02*
X2309Y2295D02*
X2310Y2369D01*
D02*
X2711Y1997D02*
X2789Y1939D01*
D02*
X2789Y1939D02*
X3616Y1942D01*
D02*
X2510Y2423D02*
X2510Y2567D01*
D02*
X2410Y2423D02*
X2410Y2567D01*
D02*
X2710Y2069D02*
X2711Y1997D01*
D02*
X2710Y2123D02*
X2712Y2194D01*
D02*
X2410Y3166D02*
X2410Y3024D01*
D02*
X2510Y3166D02*
X2510Y3024D01*
D02*
X2610Y3166D02*
X2610Y3024D01*
D02*
X2710Y3166D02*
X2710Y3024D01*
D02*
X2810Y3166D02*
X2810Y3024D01*
D02*
X3110Y2297D02*
X3110Y2567D01*
D02*
X1581Y1896D02*
X640Y1896D01*
D02*
X1481Y1996D02*
X640Y1996D01*
D02*
X1381Y2096D02*
X640Y2096D01*
D02*
X2909Y2194D02*
X3110Y2297D01*
D02*
X2910Y2123D02*
X2909Y2194D01*
D02*
X3010Y2423D02*
X3010Y2567D01*
D02*
X2910Y2423D02*
X2910Y2567D01*
D02*
X2810Y2423D02*
X2810Y2567D01*
D02*
X2710Y2423D02*
X2710Y2567D01*
D02*
X2610Y2423D02*
X2610Y2567D01*
D02*
X2610Y1815D02*
X2610Y2069D01*
D02*
X1681Y1796D02*
X640Y1796D01*
D02*
X3709Y1696D02*
X3710Y1626D01*
D02*
X3616Y1942D02*
X3709Y1696D01*
D02*
X2208Y1996D02*
X2410Y1997D01*
D02*
X2410Y1997D02*
X2410Y2069D01*
D02*
X2041Y2371D02*
X2208Y1996D01*
D02*
X3309Y1497D02*
X3310Y1566D01*
D02*
X3512Y1397D02*
X3510Y1566D01*
D02*
X2729Y1396D02*
X3512Y1397D01*
D02*
X3311Y1495D02*
X3309Y1497D01*
D02*
X1709Y1294D02*
X2884Y1491D01*
D02*
X2884Y1491D02*
X3311Y1495D01*
D02*
X929Y1296D02*
X1709Y1294D01*
D02*
X3910Y1626D02*
X3912Y2071D01*
D02*
X2409Y397D02*
X1740Y396D01*
D02*
X3610Y1294D02*
X3610Y1566D01*
D02*
X2729Y1296D02*
X3610Y1294D01*
D02*
X2416Y1101D02*
X2029Y1096D01*
D02*
X2409Y397D02*
X2416Y1101D01*
D02*
X3910Y1495D02*
X3910Y1566D01*
D02*
X3711Y1195D02*
X3910Y1495D01*
D02*
X1810Y1196D02*
X3711Y1195D01*
G54D16*
X910Y2635D02*
X949Y2596D01*
X910Y2557D01*
X871Y2596D01*
X910Y2635D01*
D02*
X1110Y2435D02*
X1149Y2396D01*
X1110Y2357D01*
X1071Y2396D01*
X1110Y2435D01*
D02*
X1010Y2535D02*
X1049Y2496D01*
X1010Y2457D01*
X971Y2496D01*
X1010Y2535D01*
D02*
X1210Y2344D02*
X1249Y2305D01*
X1210Y2266D01*
X1171Y2305D01*
X1210Y2344D01*
D02*
X810Y2735D02*
X849Y2696D01*
X810Y2657D01*
X771Y2696D01*
X810Y2735D01*
D02*
X1310Y2235D02*
X1349Y2196D01*
X1310Y2157D01*
X1271Y2196D01*
X1310Y2235D01*
D02*
X1410Y2135D02*
X1449Y2096D01*
X1410Y2057D01*
X1371Y2096D01*
X1410Y2135D01*
D02*
X1510Y2035D02*
X1549Y1996D01*
X1510Y1957D01*
X1471Y1996D01*
X1510Y2035D01*
D02*
X1610Y1935D02*
X1649Y1896D01*
X1610Y1857D01*
X1571Y1896D01*
X1610Y1935D01*
D02*
X1710Y1835D02*
X1749Y1796D01*
X1710Y1757D01*
X1671Y1796D01*
X1710Y1835D01*
D02*
G54D17*
X3206Y2450D02*
X3216Y2450D01*
X3306Y2450D02*
X3316Y2450D01*
X3406Y2450D02*
X3416Y2450D01*
X3506Y2450D02*
X3516Y2450D01*
X3606Y2450D02*
X3616Y2450D01*
X3706Y2450D02*
X3716Y2450D01*
X3806Y2450D02*
X3816Y2450D01*
X3906Y2450D02*
X3916Y2450D01*
X3202Y2449D02*
X3219Y2449D01*
X3302Y2449D02*
X3319Y2449D01*
X3402Y2449D02*
X3419Y2449D01*
X3502Y2449D02*
X3519Y2449D01*
X3602Y2449D02*
X3619Y2449D01*
X3702Y2449D02*
X3719Y2449D01*
X3802Y2449D02*
X3819Y2449D01*
X3902Y2449D02*
X3919Y2449D01*
X2307Y2448D02*
X2311Y2448D01*
X2407Y2448D02*
X2411Y2448D01*
X2507Y2448D02*
X2511Y2448D01*
X2607Y2448D02*
X2611Y2448D01*
X2707Y2448D02*
X2711Y2448D01*
X2807Y2448D02*
X2811Y2448D01*
X2907Y2448D02*
X2911Y2448D01*
X3007Y2448D02*
X3011Y2448D01*
X3200Y2448D02*
X3222Y2448D01*
X3300Y2448D02*
X3322Y2448D01*
X3400Y2448D02*
X3422Y2448D01*
X3500Y2448D02*
X3522Y2448D01*
X3600Y2448D02*
X3622Y2448D01*
X3700Y2448D02*
X3722Y2448D01*
X3800Y2448D02*
X3822Y2448D01*
X3900Y2448D02*
X3922Y2448D01*
X2302Y2447D02*
X2316Y2447D01*
X2402Y2447D02*
X2416Y2447D01*
X2502Y2447D02*
X2516Y2447D01*
X2602Y2447D02*
X2616Y2447D01*
X2702Y2447D02*
X2716Y2447D01*
X2802Y2447D02*
X2816Y2447D01*
X2902Y2447D02*
X2916Y2447D01*
X3002Y2447D02*
X3016Y2447D01*
X3198Y2447D02*
X3224Y2447D01*
X3298Y2447D02*
X3324Y2447D01*
X3398Y2447D02*
X3424Y2447D01*
X3498Y2447D02*
X3524Y2447D01*
X3598Y2447D02*
X3624Y2447D01*
X3698Y2447D02*
X3724Y2447D01*
X3798Y2447D02*
X3824Y2447D01*
X3898Y2447D02*
X3924Y2447D01*
X2299Y2446D02*
X2319Y2446D01*
X2399Y2446D02*
X2419Y2446D01*
X2499Y2446D02*
X2519Y2446D01*
X2599Y2446D02*
X2619Y2446D01*
X2699Y2446D02*
X2719Y2446D01*
X2799Y2446D02*
X2819Y2446D01*
X2899Y2446D02*
X2919Y2446D01*
X2999Y2446D02*
X3019Y2446D01*
X3197Y2446D02*
X3225Y2446D01*
X3297Y2446D02*
X3325Y2446D01*
X3397Y2446D02*
X3425Y2446D01*
X3497Y2446D02*
X3525Y2446D01*
X3597Y2446D02*
X3625Y2446D01*
X3697Y2446D02*
X3725Y2446D01*
X3797Y2446D02*
X3825Y2446D01*
X3897Y2446D02*
X3925Y2446D01*
X2297Y2445D02*
X2321Y2445D01*
X2397Y2445D02*
X2421Y2445D01*
X2497Y2445D02*
X2521Y2445D01*
X2597Y2445D02*
X2621Y2445D01*
X2697Y2445D02*
X2721Y2445D01*
X2797Y2445D02*
X2821Y2445D01*
X2897Y2445D02*
X2921Y2445D01*
X2997Y2445D02*
X3021Y2445D01*
X3195Y2445D02*
X3227Y2445D01*
X3295Y2445D02*
X3327Y2445D01*
X3395Y2445D02*
X3427Y2445D01*
X3495Y2445D02*
X3527Y2445D01*
X3595Y2445D02*
X3627Y2445D01*
X3695Y2445D02*
X3727Y2445D01*
X3795Y2445D02*
X3827Y2445D01*
X3895Y2445D02*
X3927Y2445D01*
X2296Y2444D02*
X2323Y2444D01*
X2396Y2444D02*
X2423Y2444D01*
X2496Y2444D02*
X2523Y2444D01*
X2596Y2444D02*
X2623Y2444D01*
X2696Y2444D02*
X2723Y2444D01*
X2796Y2444D02*
X2823Y2444D01*
X2896Y2444D02*
X2923Y2444D01*
X2996Y2444D02*
X3023Y2444D01*
X3194Y2444D02*
X3228Y2444D01*
X3294Y2444D02*
X3328Y2444D01*
X3394Y2444D02*
X3428Y2444D01*
X3494Y2444D02*
X3528Y2444D01*
X3594Y2444D02*
X3628Y2444D01*
X3694Y2444D02*
X3728Y2444D01*
X3794Y2444D02*
X3828Y2444D01*
X3894Y2444D02*
X3928Y2444D01*
X2294Y2443D02*
X2324Y2443D01*
X2394Y2443D02*
X2424Y2443D01*
X2494Y2443D02*
X2524Y2443D01*
X2594Y2443D02*
X2624Y2443D01*
X2694Y2443D02*
X2724Y2443D01*
X2794Y2443D02*
X2824Y2443D01*
X2894Y2443D02*
X2924Y2443D01*
X2994Y2443D02*
X3024Y2443D01*
X3193Y2443D02*
X3229Y2443D01*
X3293Y2443D02*
X3329Y2443D01*
X3393Y2443D02*
X3429Y2443D01*
X3493Y2443D02*
X3529Y2443D01*
X3593Y2443D02*
X3629Y2443D01*
X3693Y2443D02*
X3729Y2443D01*
X3793Y2443D02*
X3829Y2443D01*
X3893Y2443D02*
X3929Y2443D01*
X2293Y2442D02*
X2325Y2442D01*
X2393Y2442D02*
X2425Y2442D01*
X2493Y2442D02*
X2525Y2442D01*
X2593Y2442D02*
X2625Y2442D01*
X2693Y2442D02*
X2725Y2442D01*
X2793Y2442D02*
X2825Y2442D01*
X2893Y2442D02*
X2925Y2442D01*
X2993Y2442D02*
X3025Y2442D01*
X3192Y2442D02*
X3230Y2442D01*
X3292Y2442D02*
X3330Y2442D01*
X3392Y2442D02*
X3430Y2442D01*
X3492Y2442D02*
X3530Y2442D01*
X3592Y2442D02*
X3630Y2442D01*
X3692Y2442D02*
X3730Y2442D01*
X3792Y2442D02*
X3830Y2442D01*
X3892Y2442D02*
X3930Y2442D01*
X2292Y2441D02*
X2327Y2441D01*
X2392Y2441D02*
X2427Y2441D01*
X2492Y2441D02*
X2527Y2441D01*
X2592Y2441D02*
X2627Y2441D01*
X2692Y2441D02*
X2727Y2441D01*
X2792Y2441D02*
X2827Y2441D01*
X2892Y2441D02*
X2927Y2441D01*
X2992Y2441D02*
X3027Y2441D01*
X3191Y2441D02*
X3231Y2441D01*
X3291Y2441D02*
X3331Y2441D01*
X3391Y2441D02*
X3431Y2441D01*
X3491Y2441D02*
X3531Y2441D01*
X3591Y2441D02*
X3631Y2441D01*
X3691Y2441D02*
X3731Y2441D01*
X3791Y2441D02*
X3831Y2441D01*
X3891Y2441D02*
X3931Y2441D01*
X2291Y2440D02*
X2328Y2440D01*
X2391Y2440D02*
X2428Y2440D01*
X2491Y2440D02*
X2528Y2440D01*
X2591Y2440D02*
X2628Y2440D01*
X2691Y2440D02*
X2728Y2440D01*
X2791Y2440D02*
X2828Y2440D01*
X2891Y2440D02*
X2928Y2440D01*
X2991Y2440D02*
X3028Y2440D01*
X3191Y2440D02*
X3231Y2440D01*
X3290Y2440D02*
X3331Y2440D01*
X3390Y2440D02*
X3431Y2440D01*
X3490Y2440D02*
X3531Y2440D01*
X3590Y2440D02*
X3631Y2440D01*
X3690Y2440D02*
X3731Y2440D01*
X3790Y2440D02*
X3831Y2440D01*
X3890Y2440D02*
X3931Y2440D01*
X2290Y2439D02*
X2328Y2439D01*
X2390Y2439D02*
X2428Y2439D01*
X2490Y2439D02*
X2528Y2439D01*
X2590Y2439D02*
X2628Y2439D01*
X2690Y2439D02*
X2728Y2439D01*
X2790Y2439D02*
X2828Y2439D01*
X2890Y2439D02*
X2928Y2439D01*
X2990Y2439D02*
X3028Y2439D01*
X3190Y2439D02*
X3232Y2439D01*
X3290Y2439D02*
X3332Y2439D01*
X3390Y2439D02*
X3432Y2439D01*
X3490Y2439D02*
X3532Y2439D01*
X3590Y2439D02*
X3632Y2439D01*
X3690Y2439D02*
X3732Y2439D01*
X3790Y2439D02*
X3832Y2439D01*
X3890Y2439D02*
X3932Y2439D01*
X2289Y2438D02*
X2329Y2438D01*
X2389Y2438D02*
X2429Y2438D01*
X2489Y2438D02*
X2529Y2438D01*
X2589Y2438D02*
X2629Y2438D01*
X2689Y2438D02*
X2729Y2438D01*
X2789Y2438D02*
X2829Y2438D01*
X2889Y2438D02*
X2929Y2438D01*
X2989Y2438D02*
X3029Y2438D01*
X3189Y2438D02*
X3233Y2438D01*
X3289Y2438D02*
X3333Y2438D01*
X3389Y2438D02*
X3433Y2438D01*
X3489Y2438D02*
X3533Y2438D01*
X3589Y2438D02*
X3633Y2438D01*
X3689Y2438D02*
X3733Y2438D01*
X3789Y2438D02*
X3833Y2438D01*
X3889Y2438D02*
X3933Y2438D01*
X2288Y2437D02*
X2330Y2437D01*
X2388Y2437D02*
X2430Y2437D01*
X2488Y2437D02*
X2530Y2437D01*
X2588Y2437D02*
X2630Y2437D01*
X2688Y2437D02*
X2730Y2437D01*
X2788Y2437D02*
X2830Y2437D01*
X2888Y2437D02*
X2930Y2437D01*
X2988Y2437D02*
X3030Y2437D01*
X3189Y2437D02*
X3233Y2437D01*
X3289Y2437D02*
X3333Y2437D01*
X3389Y2437D02*
X3433Y2437D01*
X3489Y2437D02*
X3533Y2437D01*
X3589Y2437D02*
X3633Y2437D01*
X3689Y2437D02*
X3733Y2437D01*
X3789Y2437D02*
X3833Y2437D01*
X3889Y2437D02*
X3933Y2437D01*
X2288Y2436D02*
X2331Y2436D01*
X2388Y2436D02*
X2431Y2436D01*
X2488Y2436D02*
X2531Y2436D01*
X2588Y2436D02*
X2631Y2436D01*
X2688Y2436D02*
X2731Y2436D01*
X2788Y2436D02*
X2831Y2436D01*
X2888Y2436D02*
X2931Y2436D01*
X2988Y2436D02*
X3031Y2436D01*
X3188Y2436D02*
X3234Y2436D01*
X3288Y2436D02*
X3334Y2436D01*
X3388Y2436D02*
X3434Y2436D01*
X3488Y2436D02*
X3534Y2436D01*
X3588Y2436D02*
X3634Y2436D01*
X3688Y2436D02*
X3734Y2436D01*
X3788Y2436D02*
X3834Y2436D01*
X3888Y2436D02*
X3934Y2436D01*
X2287Y2435D02*
X2331Y2435D01*
X2387Y2435D02*
X2431Y2435D01*
X2487Y2435D02*
X2531Y2435D01*
X2587Y2435D02*
X2631Y2435D01*
X2687Y2435D02*
X2731Y2435D01*
X2787Y2435D02*
X2831Y2435D01*
X2887Y2435D02*
X2931Y2435D01*
X2987Y2435D02*
X3031Y2435D01*
X3188Y2435D02*
X3234Y2435D01*
X3288Y2435D02*
X3334Y2435D01*
X3388Y2435D02*
X3434Y2435D01*
X3488Y2435D02*
X3534Y2435D01*
X3588Y2435D02*
X3634Y2435D01*
X3688Y2435D02*
X3734Y2435D01*
X3788Y2435D02*
X3834Y2435D01*
X3888Y2435D02*
X3934Y2435D01*
X2287Y2434D02*
X2332Y2434D01*
X2387Y2434D02*
X2432Y2434D01*
X2487Y2434D02*
X2532Y2434D01*
X2587Y2434D02*
X2632Y2434D01*
X2687Y2434D02*
X2732Y2434D01*
X2787Y2434D02*
X2832Y2434D01*
X2887Y2434D02*
X2932Y2434D01*
X2987Y2434D02*
X3032Y2434D01*
X3187Y2434D02*
X3235Y2434D01*
X3287Y2434D02*
X3335Y2434D01*
X3387Y2434D02*
X3435Y2434D01*
X3487Y2434D02*
X3535Y2434D01*
X3587Y2434D02*
X3635Y2434D01*
X3687Y2434D02*
X3735Y2434D01*
X3787Y2434D02*
X3835Y2434D01*
X3887Y2434D02*
X3935Y2434D01*
X2286Y2433D02*
X2332Y2433D01*
X2386Y2433D02*
X2432Y2433D01*
X2486Y2433D02*
X2532Y2433D01*
X2586Y2433D02*
X2632Y2433D01*
X2686Y2433D02*
X2732Y2433D01*
X2786Y2433D02*
X2832Y2433D01*
X2886Y2433D02*
X2932Y2433D01*
X2986Y2433D02*
X3032Y2433D01*
X3187Y2433D02*
X3235Y2433D01*
X3287Y2433D02*
X3335Y2433D01*
X3387Y2433D02*
X3435Y2433D01*
X3487Y2433D02*
X3535Y2433D01*
X3587Y2433D02*
X3635Y2433D01*
X3687Y2433D02*
X3735Y2433D01*
X3787Y2433D02*
X3835Y2433D01*
X3887Y2433D02*
X3935Y2433D01*
X2286Y2432D02*
X2333Y2432D01*
X2386Y2432D02*
X2433Y2432D01*
X2486Y2432D02*
X2533Y2432D01*
X2586Y2432D02*
X2633Y2432D01*
X2686Y2432D02*
X2733Y2432D01*
X2786Y2432D02*
X2833Y2432D01*
X2886Y2432D02*
X2933Y2432D01*
X2986Y2432D02*
X3033Y2432D01*
X3187Y2432D02*
X3235Y2432D01*
X3287Y2432D02*
X3335Y2432D01*
X3387Y2432D02*
X3435Y2432D01*
X3486Y2432D02*
X3535Y2432D01*
X3586Y2432D02*
X3635Y2432D01*
X3686Y2432D02*
X3735Y2432D01*
X3786Y2432D02*
X3835Y2432D01*
X3886Y2432D02*
X3935Y2432D01*
X2285Y2431D02*
X2333Y2431D01*
X2385Y2431D02*
X2433Y2431D01*
X2485Y2431D02*
X2533Y2431D01*
X2585Y2431D02*
X2633Y2431D01*
X2685Y2431D02*
X2733Y2431D01*
X2785Y2431D02*
X2833Y2431D01*
X2885Y2431D02*
X2933Y2431D01*
X2985Y2431D02*
X3033Y2431D01*
X3186Y2431D02*
X3236Y2431D01*
X3286Y2431D02*
X3336Y2431D01*
X3386Y2431D02*
X3436Y2431D01*
X3486Y2431D02*
X3536Y2431D01*
X3586Y2431D02*
X3636Y2431D01*
X3686Y2431D02*
X3736Y2431D01*
X3786Y2431D02*
X3836Y2431D01*
X3886Y2431D02*
X3936Y2431D01*
X2285Y2430D02*
X2333Y2430D01*
X2385Y2430D02*
X2433Y2430D01*
X2485Y2430D02*
X2533Y2430D01*
X2585Y2430D02*
X2633Y2430D01*
X2685Y2430D02*
X2733Y2430D01*
X2785Y2430D02*
X2833Y2430D01*
X2885Y2430D02*
X2933Y2430D01*
X2985Y2430D02*
X3033Y2430D01*
X3186Y2430D02*
X3236Y2430D01*
X3286Y2430D02*
X3336Y2430D01*
X3386Y2430D02*
X3436Y2430D01*
X3486Y2430D02*
X3536Y2430D01*
X3586Y2430D02*
X3636Y2430D01*
X3686Y2430D02*
X3736Y2430D01*
X3786Y2430D02*
X3836Y2430D01*
X3886Y2430D02*
X3936Y2430D01*
X2285Y2429D02*
X2334Y2429D01*
X2385Y2429D02*
X2434Y2429D01*
X2485Y2429D02*
X2534Y2429D01*
X2585Y2429D02*
X2634Y2429D01*
X2685Y2429D02*
X2734Y2429D01*
X2785Y2429D02*
X2834Y2429D01*
X2885Y2429D02*
X2934Y2429D01*
X2985Y2429D02*
X3034Y2429D01*
X3186Y2429D02*
X3236Y2429D01*
X3286Y2429D02*
X3336Y2429D01*
X3386Y2429D02*
X3436Y2429D01*
X3486Y2429D02*
X3536Y2429D01*
X3586Y2429D02*
X3636Y2429D01*
X3686Y2429D02*
X3736Y2429D01*
X3786Y2429D02*
X3836Y2429D01*
X3886Y2429D02*
X3936Y2429D01*
X2284Y2428D02*
X2334Y2428D01*
X2384Y2428D02*
X2434Y2428D01*
X2484Y2428D02*
X2534Y2428D01*
X2584Y2428D02*
X2634Y2428D01*
X2684Y2428D02*
X2734Y2428D01*
X2784Y2428D02*
X2834Y2428D01*
X2884Y2428D02*
X2934Y2428D01*
X2984Y2428D02*
X3034Y2428D01*
X3186Y2428D02*
X3236Y2428D01*
X3286Y2428D02*
X3336Y2428D01*
X3386Y2428D02*
X3436Y2428D01*
X3486Y2428D02*
X3536Y2428D01*
X3586Y2428D02*
X3636Y2428D01*
X3686Y2428D02*
X3736Y2428D01*
X3786Y2428D02*
X3836Y2428D01*
X3886Y2428D02*
X3936Y2428D01*
X2284Y2427D02*
X2334Y2427D01*
X2384Y2427D02*
X2434Y2427D01*
X2484Y2427D02*
X2534Y2427D01*
X2584Y2427D02*
X2634Y2427D01*
X2684Y2427D02*
X2734Y2427D01*
X2784Y2427D02*
X2834Y2427D01*
X2884Y2427D02*
X2934Y2427D01*
X2984Y2427D02*
X3034Y2427D01*
X3186Y2427D02*
X3236Y2427D01*
X3286Y2427D02*
X3336Y2427D01*
X3386Y2427D02*
X3436Y2427D01*
X3486Y2427D02*
X3536Y2427D01*
X3586Y2427D02*
X3636Y2427D01*
X3686Y2427D02*
X3736Y2427D01*
X3786Y2427D02*
X3836Y2427D01*
X3886Y2427D02*
X3936Y2427D01*
X2284Y2426D02*
X2334Y2426D01*
X2384Y2426D02*
X2434Y2426D01*
X2484Y2426D02*
X2534Y2426D01*
X2584Y2426D02*
X2634Y2426D01*
X2684Y2426D02*
X2734Y2426D01*
X2784Y2426D02*
X2834Y2426D01*
X2884Y2426D02*
X2934Y2426D01*
X2984Y2426D02*
X3034Y2426D01*
X3185Y2426D02*
X3236Y2426D01*
X3285Y2426D02*
X3336Y2426D01*
X3385Y2426D02*
X3436Y2426D01*
X3485Y2426D02*
X3536Y2426D01*
X3585Y2426D02*
X3636Y2426D01*
X3685Y2426D02*
X3736Y2426D01*
X3785Y2426D02*
X3836Y2426D01*
X3885Y2426D02*
X3936Y2426D01*
X2284Y2425D02*
X2335Y2425D01*
X2384Y2425D02*
X2435Y2425D01*
X2484Y2425D02*
X2535Y2425D01*
X2584Y2425D02*
X2635Y2425D01*
X2684Y2425D02*
X2735Y2425D01*
X2784Y2425D02*
X2835Y2425D01*
X2884Y2425D02*
X2935Y2425D01*
X2984Y2425D02*
X3034Y2425D01*
X3185Y2425D02*
X3236Y2425D01*
X3285Y2425D02*
X3336Y2425D01*
X3385Y2425D02*
X3436Y2425D01*
X3485Y2425D02*
X3536Y2425D01*
X3585Y2425D02*
X3636Y2425D01*
X3685Y2425D02*
X3736Y2425D01*
X3785Y2425D02*
X3836Y2425D01*
X3885Y2425D02*
X3936Y2425D01*
X2284Y2424D02*
X2335Y2424D01*
X2384Y2424D02*
X2435Y2424D01*
X2484Y2424D02*
X2535Y2424D01*
X2584Y2424D02*
X2635Y2424D01*
X2684Y2424D02*
X2735Y2424D01*
X2784Y2424D02*
X2835Y2424D01*
X2884Y2424D02*
X2935Y2424D01*
X2984Y2424D02*
X3035Y2424D01*
X3185Y2424D02*
X3236Y2424D01*
X3285Y2424D02*
X3336Y2424D01*
X3385Y2424D02*
X3436Y2424D01*
X3485Y2424D02*
X3536Y2424D01*
X3585Y2424D02*
X3636Y2424D01*
X3685Y2424D02*
X3736Y2424D01*
X3785Y2424D02*
X3836Y2424D01*
X3885Y2424D02*
X3936Y2424D01*
X2284Y2423D02*
X2335Y2423D01*
X2384Y2423D02*
X2435Y2423D01*
X2484Y2423D02*
X2535Y2423D01*
X2584Y2423D02*
X2635Y2423D01*
X2684Y2423D02*
X2735Y2423D01*
X2784Y2423D02*
X2835Y2423D01*
X2884Y2423D02*
X2935Y2423D01*
X2984Y2423D02*
X3035Y2423D01*
X3185Y2423D02*
X3236Y2423D01*
X3285Y2423D02*
X3336Y2423D01*
X3385Y2423D02*
X3436Y2423D01*
X3485Y2423D02*
X3536Y2423D01*
X3585Y2423D02*
X3636Y2423D01*
X3685Y2423D02*
X3736Y2423D01*
X3785Y2423D02*
X3836Y2423D01*
X3885Y2423D02*
X3936Y2423D01*
X2284Y2422D02*
X2335Y2422D01*
X2384Y2422D02*
X2435Y2422D01*
X2484Y2422D02*
X2535Y2422D01*
X2584Y2422D02*
X2635Y2422D01*
X2684Y2422D02*
X2735Y2422D01*
X2784Y2422D02*
X2835Y2422D01*
X2884Y2422D02*
X2935Y2422D01*
X2984Y2422D02*
X3035Y2422D01*
X3185Y2422D02*
X3236Y2422D01*
X3285Y2422D02*
X3336Y2422D01*
X3385Y2422D02*
X3436Y2422D01*
X3485Y2422D02*
X3536Y2422D01*
X3585Y2422D02*
X3636Y2422D01*
X3685Y2422D02*
X3736Y2422D01*
X3785Y2422D02*
X3836Y2422D01*
X3885Y2422D02*
X3936Y2422D01*
X2284Y2421D02*
X2335Y2421D01*
X2384Y2421D02*
X2435Y2421D01*
X2484Y2421D02*
X2535Y2421D01*
X2584Y2421D02*
X2635Y2421D01*
X2684Y2421D02*
X2735Y2421D01*
X2784Y2421D02*
X2835Y2421D01*
X2884Y2421D02*
X2935Y2421D01*
X2984Y2421D02*
X3035Y2421D01*
X3185Y2421D02*
X3236Y2421D01*
X3285Y2421D02*
X3336Y2421D01*
X3385Y2421D02*
X3436Y2421D01*
X3485Y2421D02*
X3536Y2421D01*
X3585Y2421D02*
X3636Y2421D01*
X3685Y2421D02*
X3736Y2421D01*
X3785Y2421D02*
X3836Y2421D01*
X3885Y2421D02*
X3936Y2421D01*
X2284Y2420D02*
X2335Y2420D01*
X2384Y2420D02*
X2435Y2420D01*
X2484Y2420D02*
X2535Y2420D01*
X2584Y2420D02*
X2635Y2420D01*
X2684Y2420D02*
X2735Y2420D01*
X2784Y2420D02*
X2835Y2420D01*
X2884Y2420D02*
X2935Y2420D01*
X2984Y2420D02*
X3035Y2420D01*
X3185Y2420D02*
X3236Y2420D01*
X3285Y2420D02*
X3336Y2420D01*
X3385Y2420D02*
X3436Y2420D01*
X3485Y2420D02*
X3536Y2420D01*
X3585Y2420D02*
X3636Y2420D01*
X3685Y2420D02*
X3736Y2420D01*
X3785Y2420D02*
X3836Y2420D01*
X3885Y2420D02*
X3936Y2420D01*
X2284Y2419D02*
X2335Y2419D01*
X2384Y2419D02*
X2435Y2419D01*
X2484Y2419D02*
X2535Y2419D01*
X2584Y2419D02*
X2635Y2419D01*
X2684Y2419D02*
X2735Y2419D01*
X2784Y2419D02*
X2835Y2419D01*
X2884Y2419D02*
X2935Y2419D01*
X2984Y2419D02*
X3035Y2419D01*
X3185Y2419D02*
X3236Y2419D01*
X3285Y2419D02*
X3336Y2419D01*
X3385Y2419D02*
X3436Y2419D01*
X3485Y2419D02*
X3536Y2419D01*
X3585Y2419D02*
X3636Y2419D01*
X3685Y2419D02*
X3736Y2419D01*
X3785Y2419D02*
X3836Y2419D01*
X3885Y2419D02*
X3936Y2419D01*
X2284Y2418D02*
X2335Y2418D01*
X2384Y2418D02*
X2435Y2418D01*
X2484Y2418D02*
X2535Y2418D01*
X2584Y2418D02*
X2635Y2418D01*
X2684Y2418D02*
X2735Y2418D01*
X2784Y2418D02*
X2835Y2418D01*
X2884Y2418D02*
X2935Y2418D01*
X2984Y2418D02*
X3035Y2418D01*
X3185Y2418D02*
X3236Y2418D01*
X3285Y2418D02*
X3336Y2418D01*
X3385Y2418D02*
X3436Y2418D01*
X3485Y2418D02*
X3536Y2418D01*
X3585Y2418D02*
X3636Y2418D01*
X3685Y2418D02*
X3736Y2418D01*
X3785Y2418D02*
X3836Y2418D01*
X3885Y2418D02*
X3936Y2418D01*
X2284Y2417D02*
X2335Y2417D01*
X2384Y2417D02*
X2435Y2417D01*
X2484Y2417D02*
X2535Y2417D01*
X2584Y2417D02*
X2635Y2417D01*
X2684Y2417D02*
X2735Y2417D01*
X2784Y2417D02*
X2835Y2417D01*
X2884Y2417D02*
X2935Y2417D01*
X2984Y2417D02*
X3035Y2417D01*
X3185Y2417D02*
X3236Y2417D01*
X3285Y2417D02*
X3336Y2417D01*
X3385Y2417D02*
X3436Y2417D01*
X3485Y2417D02*
X3536Y2417D01*
X3585Y2417D02*
X3636Y2417D01*
X3685Y2417D02*
X3736Y2417D01*
X3785Y2417D02*
X3836Y2417D01*
X3885Y2417D02*
X3936Y2417D01*
X2284Y2416D02*
X2335Y2416D01*
X2384Y2416D02*
X2435Y2416D01*
X2484Y2416D02*
X2535Y2416D01*
X2584Y2416D02*
X2635Y2416D01*
X2684Y2416D02*
X2735Y2416D01*
X2784Y2416D02*
X2835Y2416D01*
X2884Y2416D02*
X2935Y2416D01*
X2984Y2416D02*
X3035Y2416D01*
X3185Y2416D02*
X3236Y2416D01*
X3285Y2416D02*
X3336Y2416D01*
X3385Y2416D02*
X3436Y2416D01*
X3485Y2416D02*
X3536Y2416D01*
X3585Y2416D02*
X3636Y2416D01*
X3685Y2416D02*
X3736Y2416D01*
X3785Y2416D02*
X3836Y2416D01*
X3885Y2416D02*
X3936Y2416D01*
X2284Y2415D02*
X2335Y2415D01*
X2384Y2415D02*
X2435Y2415D01*
X2484Y2415D02*
X2535Y2415D01*
X2584Y2415D02*
X2635Y2415D01*
X2684Y2415D02*
X2735Y2415D01*
X2784Y2415D02*
X2835Y2415D01*
X2884Y2415D02*
X2935Y2415D01*
X2984Y2415D02*
X3035Y2415D01*
X3185Y2415D02*
X3236Y2415D01*
X3285Y2415D02*
X3336Y2415D01*
X3385Y2415D02*
X3436Y2415D01*
X3485Y2415D02*
X3536Y2415D01*
X3585Y2415D02*
X3636Y2415D01*
X3685Y2415D02*
X3736Y2415D01*
X3785Y2415D02*
X3836Y2415D01*
X3885Y2415D02*
X3936Y2415D01*
X2284Y2414D02*
X2335Y2414D01*
X2384Y2414D02*
X2435Y2414D01*
X2484Y2414D02*
X2535Y2414D01*
X2584Y2414D02*
X2635Y2414D01*
X2684Y2414D02*
X2735Y2414D01*
X2784Y2414D02*
X2835Y2414D01*
X2884Y2414D02*
X2935Y2414D01*
X2984Y2414D02*
X3035Y2414D01*
X3185Y2414D02*
X3206Y2414D01*
X3216Y2414D02*
X3236Y2414D01*
X3285Y2414D02*
X3306Y2414D01*
X3316Y2414D02*
X3336Y2414D01*
X3385Y2414D02*
X3406Y2414D01*
X3416Y2414D02*
X3436Y2414D01*
X3485Y2414D02*
X3506Y2414D01*
X3516Y2414D02*
X3536Y2414D01*
X3585Y2414D02*
X3606Y2414D01*
X3616Y2414D02*
X3636Y2414D01*
X3685Y2414D02*
X3706Y2414D01*
X3716Y2414D02*
X3736Y2414D01*
X3785Y2414D02*
X3806Y2414D01*
X3816Y2414D02*
X3836Y2414D01*
X3885Y2414D02*
X3906Y2414D01*
X3916Y2414D02*
X3936Y2414D01*
X2284Y2413D02*
X2335Y2413D01*
X2384Y2413D02*
X2435Y2413D01*
X2484Y2413D02*
X2535Y2413D01*
X2584Y2413D02*
X2635Y2413D01*
X2684Y2413D02*
X2735Y2413D01*
X2784Y2413D02*
X2835Y2413D01*
X2884Y2413D02*
X2935Y2413D01*
X2984Y2413D02*
X3035Y2413D01*
X3185Y2413D02*
X3203Y2413D01*
X3218Y2413D02*
X3236Y2413D01*
X3285Y2413D02*
X3303Y2413D01*
X3318Y2413D02*
X3336Y2413D01*
X3385Y2413D02*
X3403Y2413D01*
X3418Y2413D02*
X3436Y2413D01*
X3485Y2413D02*
X3503Y2413D01*
X3518Y2413D02*
X3536Y2413D01*
X3585Y2413D02*
X3603Y2413D01*
X3618Y2413D02*
X3636Y2413D01*
X3685Y2413D02*
X3703Y2413D01*
X3718Y2413D02*
X3736Y2413D01*
X3785Y2413D02*
X3803Y2413D01*
X3818Y2413D02*
X3836Y2413D01*
X3885Y2413D02*
X3903Y2413D01*
X3918Y2413D02*
X3936Y2413D01*
X2284Y2412D02*
X2307Y2412D01*
X2312Y2412D02*
X2335Y2412D01*
X2384Y2412D02*
X2407Y2412D01*
X2412Y2412D02*
X2435Y2412D01*
X2484Y2412D02*
X2507Y2412D01*
X2512Y2412D02*
X2535Y2412D01*
X2584Y2412D02*
X2607Y2412D01*
X2612Y2412D02*
X2635Y2412D01*
X2684Y2412D02*
X2707Y2412D01*
X2712Y2412D02*
X2735Y2412D01*
X2784Y2412D02*
X2807Y2412D01*
X2812Y2412D02*
X2835Y2412D01*
X2884Y2412D02*
X2907Y2412D01*
X2912Y2412D02*
X2935Y2412D01*
X2984Y2412D02*
X3007Y2412D01*
X3012Y2412D02*
X3035Y2412D01*
X3185Y2412D02*
X3202Y2412D01*
X3220Y2412D02*
X3236Y2412D01*
X3285Y2412D02*
X3302Y2412D01*
X3320Y2412D02*
X3336Y2412D01*
X3385Y2412D02*
X3402Y2412D01*
X3420Y2412D02*
X3436Y2412D01*
X3485Y2412D02*
X3502Y2412D01*
X3520Y2412D02*
X3536Y2412D01*
X3585Y2412D02*
X3602Y2412D01*
X3620Y2412D02*
X3636Y2412D01*
X3685Y2412D02*
X3702Y2412D01*
X3720Y2412D02*
X3736Y2412D01*
X3785Y2412D02*
X3802Y2412D01*
X3820Y2412D02*
X3836Y2412D01*
X3885Y2412D02*
X3902Y2412D01*
X3920Y2412D02*
X3936Y2412D01*
X2284Y2411D02*
X2303Y2411D01*
X2316Y2411D02*
X2335Y2411D01*
X2384Y2411D02*
X2403Y2411D01*
X2416Y2411D02*
X2435Y2411D01*
X2484Y2411D02*
X2503Y2411D01*
X2516Y2411D02*
X2535Y2411D01*
X2584Y2411D02*
X2603Y2411D01*
X2616Y2411D02*
X2635Y2411D01*
X2684Y2411D02*
X2703Y2411D01*
X2716Y2411D02*
X2735Y2411D01*
X2784Y2411D02*
X2803Y2411D01*
X2816Y2411D02*
X2835Y2411D01*
X2884Y2411D02*
X2903Y2411D01*
X2916Y2411D02*
X2935Y2411D01*
X2984Y2411D02*
X3003Y2411D01*
X3016Y2411D02*
X3035Y2411D01*
X3185Y2411D02*
X3200Y2411D01*
X3222Y2411D02*
X3236Y2411D01*
X3285Y2411D02*
X3300Y2411D01*
X3322Y2411D02*
X3336Y2411D01*
X3385Y2411D02*
X3400Y2411D01*
X3422Y2411D02*
X3436Y2411D01*
X3485Y2411D02*
X3500Y2411D01*
X3522Y2411D02*
X3536Y2411D01*
X3585Y2411D02*
X3600Y2411D01*
X3622Y2411D02*
X3636Y2411D01*
X3685Y2411D02*
X3700Y2411D01*
X3722Y2411D02*
X3736Y2411D01*
X3785Y2411D02*
X3800Y2411D01*
X3822Y2411D02*
X3836Y2411D01*
X3885Y2411D02*
X3900Y2411D01*
X3922Y2411D02*
X3936Y2411D01*
X2284Y2410D02*
X2301Y2410D01*
X2318Y2410D02*
X2335Y2410D01*
X2384Y2410D02*
X2401Y2410D01*
X2418Y2410D02*
X2435Y2410D01*
X2484Y2410D02*
X2501Y2410D01*
X2518Y2410D02*
X2535Y2410D01*
X2584Y2410D02*
X2601Y2410D01*
X2618Y2410D02*
X2635Y2410D01*
X2684Y2410D02*
X2701Y2410D01*
X2718Y2410D02*
X2735Y2410D01*
X2784Y2410D02*
X2801Y2410D01*
X2818Y2410D02*
X2835Y2410D01*
X2884Y2410D02*
X2901Y2410D01*
X2918Y2410D02*
X2935Y2410D01*
X2984Y2410D02*
X3001Y2410D01*
X3018Y2410D02*
X3035Y2410D01*
X3185Y2410D02*
X3199Y2410D01*
X3223Y2410D02*
X3236Y2410D01*
X3285Y2410D02*
X3299Y2410D01*
X3323Y2410D02*
X3336Y2410D01*
X3385Y2410D02*
X3399Y2410D01*
X3423Y2410D02*
X3436Y2410D01*
X3485Y2410D02*
X3499Y2410D01*
X3523Y2410D02*
X3536Y2410D01*
X3585Y2410D02*
X3599Y2410D01*
X3623Y2410D02*
X3636Y2410D01*
X3685Y2410D02*
X3699Y2410D01*
X3723Y2410D02*
X3736Y2410D01*
X3785Y2410D02*
X3799Y2410D01*
X3823Y2410D02*
X3836Y2410D01*
X3885Y2410D02*
X3899Y2410D01*
X3923Y2410D02*
X3936Y2410D01*
X2284Y2409D02*
X2299Y2409D01*
X2319Y2409D02*
X2335Y2409D01*
X2384Y2409D02*
X2399Y2409D01*
X2419Y2409D02*
X2435Y2409D01*
X2484Y2409D02*
X2499Y2409D01*
X2519Y2409D02*
X2535Y2409D01*
X2584Y2409D02*
X2599Y2409D01*
X2619Y2409D02*
X2635Y2409D01*
X2684Y2409D02*
X2699Y2409D01*
X2719Y2409D02*
X2735Y2409D01*
X2784Y2409D02*
X2799Y2409D01*
X2819Y2409D02*
X2835Y2409D01*
X2884Y2409D02*
X2899Y2409D01*
X2919Y2409D02*
X2935Y2409D01*
X2984Y2409D02*
X2999Y2409D01*
X3019Y2409D02*
X3035Y2409D01*
X3185Y2409D02*
X3198Y2409D01*
X3224Y2409D02*
X3236Y2409D01*
X3285Y2409D02*
X3298Y2409D01*
X3324Y2409D02*
X3336Y2409D01*
X3385Y2409D02*
X3398Y2409D01*
X3424Y2409D02*
X3436Y2409D01*
X3485Y2409D02*
X3498Y2409D01*
X3524Y2409D02*
X3536Y2409D01*
X3585Y2409D02*
X3598Y2409D01*
X3624Y2409D02*
X3636Y2409D01*
X3685Y2409D02*
X3698Y2409D01*
X3724Y2409D02*
X3736Y2409D01*
X3785Y2409D02*
X3798Y2409D01*
X3824Y2409D02*
X3836Y2409D01*
X3885Y2409D02*
X3898Y2409D01*
X3924Y2409D02*
X3936Y2409D01*
X2284Y2408D02*
X2298Y2408D01*
X2320Y2408D02*
X2335Y2408D01*
X2384Y2408D02*
X2398Y2408D01*
X2420Y2408D02*
X2435Y2408D01*
X2484Y2408D02*
X2498Y2408D01*
X2520Y2408D02*
X2535Y2408D01*
X2584Y2408D02*
X2598Y2408D01*
X2620Y2408D02*
X2635Y2408D01*
X2684Y2408D02*
X2698Y2408D01*
X2720Y2408D02*
X2735Y2408D01*
X2784Y2408D02*
X2798Y2408D01*
X2820Y2408D02*
X2835Y2408D01*
X2884Y2408D02*
X2898Y2408D01*
X2920Y2408D02*
X2935Y2408D01*
X2984Y2408D02*
X2998Y2408D01*
X3020Y2408D02*
X3035Y2408D01*
X3185Y2408D02*
X3198Y2408D01*
X3224Y2408D02*
X3236Y2408D01*
X3285Y2408D02*
X3297Y2408D01*
X3324Y2408D02*
X3336Y2408D01*
X3385Y2408D02*
X3397Y2408D01*
X3424Y2408D02*
X3436Y2408D01*
X3485Y2408D02*
X3497Y2408D01*
X3524Y2408D02*
X3536Y2408D01*
X3585Y2408D02*
X3597Y2408D01*
X3624Y2408D02*
X3636Y2408D01*
X3685Y2408D02*
X3697Y2408D01*
X3724Y2408D02*
X3736Y2408D01*
X3785Y2408D02*
X3797Y2408D01*
X3824Y2408D02*
X3836Y2408D01*
X3885Y2408D02*
X3897Y2408D01*
X3924Y2408D02*
X3936Y2408D01*
X2284Y2407D02*
X2297Y2407D01*
X2321Y2407D02*
X2335Y2407D01*
X2384Y2407D02*
X2397Y2407D01*
X2421Y2407D02*
X2435Y2407D01*
X2484Y2407D02*
X2497Y2407D01*
X2521Y2407D02*
X2535Y2407D01*
X2584Y2407D02*
X2597Y2407D01*
X2621Y2407D02*
X2635Y2407D01*
X2684Y2407D02*
X2697Y2407D01*
X2721Y2407D02*
X2735Y2407D01*
X2784Y2407D02*
X2797Y2407D01*
X2821Y2407D02*
X2835Y2407D01*
X2884Y2407D02*
X2897Y2407D01*
X2921Y2407D02*
X2935Y2407D01*
X2984Y2407D02*
X2997Y2407D01*
X3021Y2407D02*
X3035Y2407D01*
X3185Y2407D02*
X3197Y2407D01*
X3225Y2407D02*
X3236Y2407D01*
X3285Y2407D02*
X3297Y2407D01*
X3325Y2407D02*
X3336Y2407D01*
X3385Y2407D02*
X3397Y2407D01*
X3425Y2407D02*
X3436Y2407D01*
X3485Y2407D02*
X3497Y2407D01*
X3525Y2407D02*
X3536Y2407D01*
X3585Y2407D02*
X3597Y2407D01*
X3625Y2407D02*
X3636Y2407D01*
X3685Y2407D02*
X3697Y2407D01*
X3725Y2407D02*
X3736Y2407D01*
X3785Y2407D02*
X3797Y2407D01*
X3825Y2407D02*
X3836Y2407D01*
X3885Y2407D02*
X3897Y2407D01*
X3925Y2407D02*
X3936Y2407D01*
X2284Y2406D02*
X2296Y2406D01*
X2322Y2406D02*
X2335Y2406D01*
X2384Y2406D02*
X2396Y2406D01*
X2422Y2406D02*
X2435Y2406D01*
X2484Y2406D02*
X2496Y2406D01*
X2522Y2406D02*
X2535Y2406D01*
X2584Y2406D02*
X2596Y2406D01*
X2622Y2406D02*
X2635Y2406D01*
X2684Y2406D02*
X2696Y2406D01*
X2722Y2406D02*
X2735Y2406D01*
X2784Y2406D02*
X2796Y2406D01*
X2822Y2406D02*
X2835Y2406D01*
X2884Y2406D02*
X2896Y2406D01*
X2922Y2406D02*
X2935Y2406D01*
X2984Y2406D02*
X2996Y2406D01*
X3022Y2406D02*
X3035Y2406D01*
X3185Y2406D02*
X3196Y2406D01*
X3226Y2406D02*
X3236Y2406D01*
X3285Y2406D02*
X3296Y2406D01*
X3326Y2406D02*
X3336Y2406D01*
X3385Y2406D02*
X3396Y2406D01*
X3426Y2406D02*
X3436Y2406D01*
X3485Y2406D02*
X3496Y2406D01*
X3526Y2406D02*
X3536Y2406D01*
X3585Y2406D02*
X3596Y2406D01*
X3626Y2406D02*
X3636Y2406D01*
X3685Y2406D02*
X3696Y2406D01*
X3726Y2406D02*
X3736Y2406D01*
X3785Y2406D02*
X3796Y2406D01*
X3826Y2406D02*
X3836Y2406D01*
X3885Y2406D02*
X3896Y2406D01*
X3926Y2406D02*
X3936Y2406D01*
X2284Y2405D02*
X2295Y2405D01*
X2323Y2405D02*
X2335Y2405D01*
X2384Y2405D02*
X2395Y2405D01*
X2423Y2405D02*
X2435Y2405D01*
X2484Y2405D02*
X2495Y2405D01*
X2523Y2405D02*
X2535Y2405D01*
X2584Y2405D02*
X2595Y2405D01*
X2623Y2405D02*
X2635Y2405D01*
X2684Y2405D02*
X2695Y2405D01*
X2723Y2405D02*
X2735Y2405D01*
X2784Y2405D02*
X2795Y2405D01*
X2823Y2405D02*
X2835Y2405D01*
X2884Y2405D02*
X2895Y2405D01*
X2923Y2405D02*
X2935Y2405D01*
X2984Y2405D02*
X2995Y2405D01*
X3023Y2405D02*
X3035Y2405D01*
X3185Y2405D02*
X3196Y2405D01*
X3226Y2405D02*
X3236Y2405D01*
X3285Y2405D02*
X3296Y2405D01*
X3326Y2405D02*
X3336Y2405D01*
X3385Y2405D02*
X3396Y2405D01*
X3426Y2405D02*
X3436Y2405D01*
X3485Y2405D02*
X3496Y2405D01*
X3526Y2405D02*
X3536Y2405D01*
X3585Y2405D02*
X3596Y2405D01*
X3626Y2405D02*
X3636Y2405D01*
X3685Y2405D02*
X3696Y2405D01*
X3726Y2405D02*
X3736Y2405D01*
X3785Y2405D02*
X3796Y2405D01*
X3826Y2405D02*
X3836Y2405D01*
X3885Y2405D02*
X3896Y2405D01*
X3926Y2405D02*
X3936Y2405D01*
X2284Y2404D02*
X2295Y2404D01*
X2324Y2404D02*
X2335Y2404D01*
X2384Y2404D02*
X2395Y2404D01*
X2424Y2404D02*
X2435Y2404D01*
X2484Y2404D02*
X2495Y2404D01*
X2524Y2404D02*
X2535Y2404D01*
X2584Y2404D02*
X2595Y2404D01*
X2624Y2404D02*
X2635Y2404D01*
X2684Y2404D02*
X2695Y2404D01*
X2724Y2404D02*
X2735Y2404D01*
X2784Y2404D02*
X2795Y2404D01*
X2824Y2404D02*
X2835Y2404D01*
X2884Y2404D02*
X2895Y2404D01*
X2924Y2404D02*
X2935Y2404D01*
X2984Y2404D02*
X2995Y2404D01*
X3024Y2404D02*
X3035Y2404D01*
X3185Y2404D02*
X3195Y2404D01*
X3227Y2404D02*
X3236Y2404D01*
X3285Y2404D02*
X3295Y2404D01*
X3327Y2404D02*
X3336Y2404D01*
X3385Y2404D02*
X3395Y2404D01*
X3427Y2404D02*
X3436Y2404D01*
X3485Y2404D02*
X3495Y2404D01*
X3526Y2404D02*
X3536Y2404D01*
X3585Y2404D02*
X3595Y2404D01*
X3626Y2404D02*
X3636Y2404D01*
X3685Y2404D02*
X3695Y2404D01*
X3726Y2404D02*
X3736Y2404D01*
X3785Y2404D02*
X3795Y2404D01*
X3826Y2404D02*
X3836Y2404D01*
X3885Y2404D02*
X3895Y2404D01*
X3926Y2404D02*
X3936Y2404D01*
X2284Y2403D02*
X2294Y2403D01*
X2324Y2403D02*
X2335Y2403D01*
X2384Y2403D02*
X2394Y2403D01*
X2424Y2403D02*
X2435Y2403D01*
X2484Y2403D02*
X2494Y2403D01*
X2524Y2403D02*
X2535Y2403D01*
X2584Y2403D02*
X2594Y2403D01*
X2624Y2403D02*
X2635Y2403D01*
X2684Y2403D02*
X2694Y2403D01*
X2724Y2403D02*
X2735Y2403D01*
X2784Y2403D02*
X2794Y2403D01*
X2824Y2403D02*
X2835Y2403D01*
X2884Y2403D02*
X2894Y2403D01*
X2924Y2403D02*
X2935Y2403D01*
X2984Y2403D02*
X2994Y2403D01*
X3024Y2403D02*
X3035Y2403D01*
X3185Y2403D02*
X3195Y2403D01*
X3227Y2403D02*
X3236Y2403D01*
X3285Y2403D02*
X3295Y2403D01*
X3327Y2403D02*
X3336Y2403D01*
X3385Y2403D02*
X3395Y2403D01*
X3427Y2403D02*
X3436Y2403D01*
X3485Y2403D02*
X3495Y2403D01*
X3527Y2403D02*
X3536Y2403D01*
X3585Y2403D02*
X3595Y2403D01*
X3627Y2403D02*
X3636Y2403D01*
X3685Y2403D02*
X3695Y2403D01*
X3727Y2403D02*
X3736Y2403D01*
X3785Y2403D02*
X3795Y2403D01*
X3827Y2403D02*
X3836Y2403D01*
X3885Y2403D02*
X3895Y2403D01*
X3927Y2403D02*
X3936Y2403D01*
X2284Y2402D02*
X2294Y2402D01*
X2325Y2402D02*
X2335Y2402D01*
X2384Y2402D02*
X2394Y2402D01*
X2425Y2402D02*
X2435Y2402D01*
X2484Y2402D02*
X2494Y2402D01*
X2525Y2402D02*
X2535Y2402D01*
X2584Y2402D02*
X2594Y2402D01*
X2625Y2402D02*
X2635Y2402D01*
X2684Y2402D02*
X2694Y2402D01*
X2725Y2402D02*
X2735Y2402D01*
X2784Y2402D02*
X2794Y2402D01*
X2825Y2402D02*
X2835Y2402D01*
X2884Y2402D02*
X2894Y2402D01*
X2925Y2402D02*
X2935Y2402D01*
X2984Y2402D02*
X2994Y2402D01*
X3025Y2402D02*
X3035Y2402D01*
X3185Y2402D02*
X3195Y2402D01*
X3227Y2402D02*
X3236Y2402D01*
X3285Y2402D02*
X3295Y2402D01*
X3327Y2402D02*
X3336Y2402D01*
X3385Y2402D02*
X3395Y2402D01*
X3427Y2402D02*
X3436Y2402D01*
X3485Y2402D02*
X3495Y2402D01*
X3527Y2402D02*
X3536Y2402D01*
X3585Y2402D02*
X3595Y2402D01*
X3627Y2402D02*
X3636Y2402D01*
X3685Y2402D02*
X3695Y2402D01*
X3727Y2402D02*
X3736Y2402D01*
X3785Y2402D02*
X3795Y2402D01*
X3827Y2402D02*
X3836Y2402D01*
X3885Y2402D02*
X3895Y2402D01*
X3927Y2402D02*
X3936Y2402D01*
X2284Y2401D02*
X2293Y2401D01*
X2325Y2401D02*
X2335Y2401D01*
X2384Y2401D02*
X2393Y2401D01*
X2425Y2401D02*
X2435Y2401D01*
X2484Y2401D02*
X2493Y2401D01*
X2525Y2401D02*
X2535Y2401D01*
X2584Y2401D02*
X2593Y2401D01*
X2625Y2401D02*
X2635Y2401D01*
X2684Y2401D02*
X2693Y2401D01*
X2725Y2401D02*
X2735Y2401D01*
X2784Y2401D02*
X2793Y2401D01*
X2825Y2401D02*
X2835Y2401D01*
X2884Y2401D02*
X2893Y2401D01*
X2925Y2401D02*
X2935Y2401D01*
X2984Y2401D02*
X2993Y2401D01*
X3025Y2401D02*
X3035Y2401D01*
X3185Y2401D02*
X3195Y2401D01*
X3227Y2401D02*
X3236Y2401D01*
X3285Y2401D02*
X3295Y2401D01*
X3327Y2401D02*
X3336Y2401D01*
X3385Y2401D02*
X3395Y2401D01*
X3427Y2401D02*
X3436Y2401D01*
X3485Y2401D02*
X3495Y2401D01*
X3527Y2401D02*
X3536Y2401D01*
X3585Y2401D02*
X3595Y2401D01*
X3627Y2401D02*
X3636Y2401D01*
X3685Y2401D02*
X3695Y2401D01*
X3727Y2401D02*
X3736Y2401D01*
X3785Y2401D02*
X3795Y2401D01*
X3827Y2401D02*
X3836Y2401D01*
X3885Y2401D02*
X3895Y2401D01*
X3927Y2401D02*
X3936Y2401D01*
X2284Y2400D02*
X2293Y2400D01*
X2325Y2400D02*
X2335Y2400D01*
X2384Y2400D02*
X2393Y2400D01*
X2425Y2400D02*
X2435Y2400D01*
X2484Y2400D02*
X2493Y2400D01*
X2525Y2400D02*
X2535Y2400D01*
X2584Y2400D02*
X2593Y2400D01*
X2625Y2400D02*
X2635Y2400D01*
X2684Y2400D02*
X2693Y2400D01*
X2725Y2400D02*
X2735Y2400D01*
X2784Y2400D02*
X2793Y2400D01*
X2825Y2400D02*
X2835Y2400D01*
X2884Y2400D02*
X2893Y2400D01*
X2925Y2400D02*
X2935Y2400D01*
X2984Y2400D02*
X2993Y2400D01*
X3025Y2400D02*
X3035Y2400D01*
X3185Y2400D02*
X3195Y2400D01*
X3227Y2400D02*
X3236Y2400D01*
X3285Y2400D02*
X3295Y2400D01*
X3327Y2400D02*
X3336Y2400D01*
X3385Y2400D02*
X3395Y2400D01*
X3427Y2400D02*
X3436Y2400D01*
X3485Y2400D02*
X3494Y2400D01*
X3527Y2400D02*
X3536Y2400D01*
X3585Y2400D02*
X3594Y2400D01*
X3627Y2400D02*
X3636Y2400D01*
X3685Y2400D02*
X3694Y2400D01*
X3727Y2400D02*
X3736Y2400D01*
X3785Y2400D02*
X3794Y2400D01*
X3827Y2400D02*
X3836Y2400D01*
X3885Y2400D02*
X3894Y2400D01*
X3927Y2400D02*
X3936Y2400D01*
X2284Y2399D02*
X2293Y2399D01*
X2325Y2399D02*
X2335Y2399D01*
X2384Y2399D02*
X2393Y2399D01*
X2425Y2399D02*
X2435Y2399D01*
X2484Y2399D02*
X2493Y2399D01*
X2525Y2399D02*
X2535Y2399D01*
X2584Y2399D02*
X2593Y2399D01*
X2625Y2399D02*
X2635Y2399D01*
X2684Y2399D02*
X2693Y2399D01*
X2725Y2399D02*
X2735Y2399D01*
X2784Y2399D02*
X2793Y2399D01*
X2825Y2399D02*
X2835Y2399D01*
X2884Y2399D02*
X2893Y2399D01*
X2925Y2399D02*
X2935Y2399D01*
X2984Y2399D02*
X2993Y2399D01*
X3025Y2399D02*
X3035Y2399D01*
X3185Y2399D02*
X3194Y2399D01*
X3227Y2399D02*
X3236Y2399D01*
X3285Y2399D02*
X3294Y2399D01*
X3327Y2399D02*
X3336Y2399D01*
X3385Y2399D02*
X3394Y2399D01*
X3427Y2399D02*
X3436Y2399D01*
X3485Y2399D02*
X3494Y2399D01*
X3527Y2399D02*
X3536Y2399D01*
X3585Y2399D02*
X3594Y2399D01*
X3627Y2399D02*
X3636Y2399D01*
X3685Y2399D02*
X3694Y2399D01*
X3727Y2399D02*
X3736Y2399D01*
X3785Y2399D02*
X3794Y2399D01*
X3827Y2399D02*
X3836Y2399D01*
X3885Y2399D02*
X3894Y2399D01*
X3927Y2399D02*
X3936Y2399D01*
X2284Y2398D02*
X2293Y2398D01*
X2326Y2398D02*
X2335Y2398D01*
X2384Y2398D02*
X2393Y2398D01*
X2426Y2398D02*
X2435Y2398D01*
X2484Y2398D02*
X2493Y2398D01*
X2526Y2398D02*
X2535Y2398D01*
X2584Y2398D02*
X2593Y2398D01*
X2626Y2398D02*
X2635Y2398D01*
X2684Y2398D02*
X2693Y2398D01*
X2726Y2398D02*
X2735Y2398D01*
X2784Y2398D02*
X2793Y2398D01*
X2826Y2398D02*
X2835Y2398D01*
X2884Y2398D02*
X2893Y2398D01*
X2926Y2398D02*
X2935Y2398D01*
X2984Y2398D02*
X2993Y2398D01*
X3026Y2398D02*
X3035Y2398D01*
X3185Y2398D02*
X3194Y2398D01*
X3227Y2398D02*
X3236Y2398D01*
X3285Y2398D02*
X3294Y2398D01*
X3327Y2398D02*
X3336Y2398D01*
X3385Y2398D02*
X3394Y2398D01*
X3427Y2398D02*
X3436Y2398D01*
X3485Y2398D02*
X3494Y2398D01*
X3527Y2398D02*
X3536Y2398D01*
X3585Y2398D02*
X3594Y2398D01*
X3627Y2398D02*
X3636Y2398D01*
X3685Y2398D02*
X3694Y2398D01*
X3727Y2398D02*
X3736Y2398D01*
X3785Y2398D02*
X3794Y2398D01*
X3827Y2398D02*
X3836Y2398D01*
X3885Y2398D02*
X3894Y2398D01*
X3927Y2398D02*
X3936Y2398D01*
X2284Y2397D02*
X2293Y2397D01*
X2326Y2397D02*
X2335Y2397D01*
X2384Y2397D02*
X2393Y2397D01*
X2426Y2397D02*
X2435Y2397D01*
X2484Y2397D02*
X2493Y2397D01*
X2526Y2397D02*
X2535Y2397D01*
X2584Y2397D02*
X2593Y2397D01*
X2626Y2397D02*
X2635Y2397D01*
X2684Y2397D02*
X2693Y2397D01*
X2726Y2397D02*
X2735Y2397D01*
X2784Y2397D02*
X2793Y2397D01*
X2826Y2397D02*
X2835Y2397D01*
X2884Y2397D02*
X2893Y2397D01*
X2926Y2397D02*
X2935Y2397D01*
X2984Y2397D02*
X2993Y2397D01*
X3026Y2397D02*
X3035Y2397D01*
X3185Y2397D02*
X3195Y2397D01*
X3227Y2397D02*
X3236Y2397D01*
X3285Y2397D02*
X3295Y2397D01*
X3327Y2397D02*
X3336Y2397D01*
X3385Y2397D02*
X3395Y2397D01*
X3427Y2397D02*
X3436Y2397D01*
X3485Y2397D02*
X3495Y2397D01*
X3527Y2397D02*
X3536Y2397D01*
X3585Y2397D02*
X3595Y2397D01*
X3627Y2397D02*
X3636Y2397D01*
X3685Y2397D02*
X3695Y2397D01*
X3727Y2397D02*
X3736Y2397D01*
X3785Y2397D02*
X3795Y2397D01*
X3827Y2397D02*
X3836Y2397D01*
X3885Y2397D02*
X3894Y2397D01*
X3927Y2397D02*
X3936Y2397D01*
X2284Y2396D02*
X2293Y2396D01*
X2326Y2396D02*
X2335Y2396D01*
X2384Y2396D02*
X2393Y2396D01*
X2426Y2396D02*
X2435Y2396D01*
X2484Y2396D02*
X2493Y2396D01*
X2526Y2396D02*
X2535Y2396D01*
X2584Y2396D02*
X2593Y2396D01*
X2626Y2396D02*
X2635Y2396D01*
X2684Y2396D02*
X2693Y2396D01*
X2726Y2396D02*
X2735Y2396D01*
X2784Y2396D02*
X2793Y2396D01*
X2826Y2396D02*
X2835Y2396D01*
X2884Y2396D02*
X2893Y2396D01*
X2926Y2396D02*
X2935Y2396D01*
X2984Y2396D02*
X2993Y2396D01*
X3026Y2396D02*
X3035Y2396D01*
X3185Y2396D02*
X3195Y2396D01*
X3227Y2396D02*
X3236Y2396D01*
X3285Y2396D02*
X3295Y2396D01*
X3327Y2396D02*
X3336Y2396D01*
X3385Y2396D02*
X3395Y2396D01*
X3427Y2396D02*
X3436Y2396D01*
X3485Y2396D02*
X3495Y2396D01*
X3527Y2396D02*
X3536Y2396D01*
X3585Y2396D02*
X3595Y2396D01*
X3627Y2396D02*
X3636Y2396D01*
X3685Y2396D02*
X3695Y2396D01*
X3727Y2396D02*
X3736Y2396D01*
X3785Y2396D02*
X3795Y2396D01*
X3827Y2396D02*
X3836Y2396D01*
X3885Y2396D02*
X3895Y2396D01*
X3927Y2396D02*
X3936Y2396D01*
X2284Y2395D02*
X2293Y2395D01*
X2326Y2395D02*
X2335Y2395D01*
X2384Y2395D02*
X2393Y2395D01*
X2426Y2395D02*
X2435Y2395D01*
X2484Y2395D02*
X2493Y2395D01*
X2526Y2395D02*
X2535Y2395D01*
X2584Y2395D02*
X2593Y2395D01*
X2626Y2395D02*
X2635Y2395D01*
X2684Y2395D02*
X2693Y2395D01*
X2726Y2395D02*
X2735Y2395D01*
X2784Y2395D02*
X2793Y2395D01*
X2826Y2395D02*
X2835Y2395D01*
X2884Y2395D02*
X2893Y2395D01*
X2926Y2395D02*
X2935Y2395D01*
X2984Y2395D02*
X2993Y2395D01*
X3026Y2395D02*
X3035Y2395D01*
X3185Y2395D02*
X3195Y2395D01*
X3227Y2395D02*
X3236Y2395D01*
X3285Y2395D02*
X3295Y2395D01*
X3327Y2395D02*
X3336Y2395D01*
X3385Y2395D02*
X3395Y2395D01*
X3427Y2395D02*
X3436Y2395D01*
X3485Y2395D02*
X3495Y2395D01*
X3527Y2395D02*
X3536Y2395D01*
X3585Y2395D02*
X3595Y2395D01*
X3627Y2395D02*
X3636Y2395D01*
X3685Y2395D02*
X3695Y2395D01*
X3727Y2395D02*
X3736Y2395D01*
X3785Y2395D02*
X3795Y2395D01*
X3827Y2395D02*
X3836Y2395D01*
X3885Y2395D02*
X3895Y2395D01*
X3927Y2395D02*
X3936Y2395D01*
X2284Y2394D02*
X2293Y2394D01*
X2326Y2394D02*
X2335Y2394D01*
X2384Y2394D02*
X2393Y2394D01*
X2426Y2394D02*
X2435Y2394D01*
X2484Y2394D02*
X2493Y2394D01*
X2526Y2394D02*
X2535Y2394D01*
X2584Y2394D02*
X2593Y2394D01*
X2626Y2394D02*
X2635Y2394D01*
X2684Y2394D02*
X2693Y2394D01*
X2726Y2394D02*
X2735Y2394D01*
X2784Y2394D02*
X2793Y2394D01*
X2826Y2394D02*
X2835Y2394D01*
X2884Y2394D02*
X2893Y2394D01*
X2926Y2394D02*
X2935Y2394D01*
X2984Y2394D02*
X2993Y2394D01*
X3026Y2394D02*
X3035Y2394D01*
X3185Y2394D02*
X3195Y2394D01*
X3227Y2394D02*
X3236Y2394D01*
X3285Y2394D02*
X3295Y2394D01*
X3327Y2394D02*
X3336Y2394D01*
X3385Y2394D02*
X3395Y2394D01*
X3427Y2394D02*
X3436Y2394D01*
X3485Y2394D02*
X3495Y2394D01*
X3527Y2394D02*
X3536Y2394D01*
X3585Y2394D02*
X3595Y2394D01*
X3627Y2394D02*
X3636Y2394D01*
X3685Y2394D02*
X3695Y2394D01*
X3727Y2394D02*
X3736Y2394D01*
X3785Y2394D02*
X3795Y2394D01*
X3827Y2394D02*
X3836Y2394D01*
X3885Y2394D02*
X3895Y2394D01*
X3927Y2394D02*
X3936Y2394D01*
X2284Y2393D02*
X2293Y2393D01*
X2325Y2393D02*
X2335Y2393D01*
X2384Y2393D02*
X2393Y2393D01*
X2425Y2393D02*
X2435Y2393D01*
X2484Y2393D02*
X2493Y2393D01*
X2525Y2393D02*
X2535Y2393D01*
X2584Y2393D02*
X2593Y2393D01*
X2625Y2393D02*
X2635Y2393D01*
X2684Y2393D02*
X2693Y2393D01*
X2725Y2393D02*
X2735Y2393D01*
X2784Y2393D02*
X2793Y2393D01*
X2825Y2393D02*
X2835Y2393D01*
X2884Y2393D02*
X2893Y2393D01*
X2925Y2393D02*
X2935Y2393D01*
X2984Y2393D02*
X2993Y2393D01*
X3025Y2393D02*
X3035Y2393D01*
X3185Y2393D02*
X3195Y2393D01*
X3226Y2393D02*
X3236Y2393D01*
X3285Y2393D02*
X3295Y2393D01*
X3326Y2393D02*
X3336Y2393D01*
X3385Y2393D02*
X3395Y2393D01*
X3426Y2393D02*
X3436Y2393D01*
X3485Y2393D02*
X3495Y2393D01*
X3526Y2393D02*
X3536Y2393D01*
X3585Y2393D02*
X3595Y2393D01*
X3626Y2393D02*
X3636Y2393D01*
X3685Y2393D02*
X3695Y2393D01*
X3726Y2393D02*
X3736Y2393D01*
X3785Y2393D02*
X3795Y2393D01*
X3826Y2393D02*
X3836Y2393D01*
X3885Y2393D02*
X3895Y2393D01*
X3926Y2393D02*
X3936Y2393D01*
X2284Y2392D02*
X2293Y2392D01*
X2325Y2392D02*
X2335Y2392D01*
X2384Y2392D02*
X2393Y2392D01*
X2425Y2392D02*
X2435Y2392D01*
X2484Y2392D02*
X2493Y2392D01*
X2525Y2392D02*
X2535Y2392D01*
X2584Y2392D02*
X2593Y2392D01*
X2625Y2392D02*
X2635Y2392D01*
X2684Y2392D02*
X2693Y2392D01*
X2725Y2392D02*
X2735Y2392D01*
X2784Y2392D02*
X2793Y2392D01*
X2825Y2392D02*
X2835Y2392D01*
X2884Y2392D02*
X2893Y2392D01*
X2925Y2392D02*
X2935Y2392D01*
X2984Y2392D02*
X2993Y2392D01*
X3025Y2392D02*
X3035Y2392D01*
X3185Y2392D02*
X3196Y2392D01*
X3226Y2392D02*
X3236Y2392D01*
X3285Y2392D02*
X3296Y2392D01*
X3326Y2392D02*
X3336Y2392D01*
X3385Y2392D02*
X3396Y2392D01*
X3426Y2392D02*
X3436Y2392D01*
X3485Y2392D02*
X3496Y2392D01*
X3526Y2392D02*
X3536Y2392D01*
X3585Y2392D02*
X3596Y2392D01*
X3626Y2392D02*
X3636Y2392D01*
X3685Y2392D02*
X3696Y2392D01*
X3726Y2392D02*
X3736Y2392D01*
X3785Y2392D02*
X3796Y2392D01*
X3826Y2392D02*
X3836Y2392D01*
X3885Y2392D02*
X3896Y2392D01*
X3926Y2392D02*
X3936Y2392D01*
X2284Y2391D02*
X2294Y2391D01*
X2325Y2391D02*
X2335Y2391D01*
X2384Y2391D02*
X2394Y2391D01*
X2425Y2391D02*
X2435Y2391D01*
X2484Y2391D02*
X2494Y2391D01*
X2525Y2391D02*
X2535Y2391D01*
X2584Y2391D02*
X2594Y2391D01*
X2625Y2391D02*
X2635Y2391D01*
X2684Y2391D02*
X2694Y2391D01*
X2725Y2391D02*
X2735Y2391D01*
X2784Y2391D02*
X2794Y2391D01*
X2825Y2391D02*
X2835Y2391D01*
X2884Y2391D02*
X2894Y2391D01*
X2925Y2391D02*
X2935Y2391D01*
X2984Y2391D02*
X2994Y2391D01*
X3025Y2391D02*
X3035Y2391D01*
X3185Y2391D02*
X3196Y2391D01*
X3226Y2391D02*
X3236Y2391D01*
X3285Y2391D02*
X3296Y2391D01*
X3326Y2391D02*
X3336Y2391D01*
X3385Y2391D02*
X3396Y2391D01*
X3426Y2391D02*
X3436Y2391D01*
X3485Y2391D02*
X3496Y2391D01*
X3525Y2391D02*
X3536Y2391D01*
X3585Y2391D02*
X3596Y2391D01*
X3625Y2391D02*
X3636Y2391D01*
X3685Y2391D02*
X3696Y2391D01*
X3725Y2391D02*
X3736Y2391D01*
X3785Y2391D02*
X3796Y2391D01*
X3825Y2391D02*
X3836Y2391D01*
X3885Y2391D02*
X3896Y2391D01*
X3925Y2391D02*
X3936Y2391D01*
X2284Y2390D02*
X2294Y2390D01*
X2324Y2390D02*
X2335Y2390D01*
X2384Y2390D02*
X2394Y2390D01*
X2424Y2390D02*
X2435Y2390D01*
X2484Y2390D02*
X2494Y2390D01*
X2524Y2390D02*
X2535Y2390D01*
X2584Y2390D02*
X2594Y2390D01*
X2624Y2390D02*
X2635Y2390D01*
X2684Y2390D02*
X2694Y2390D01*
X2724Y2390D02*
X2735Y2390D01*
X2784Y2390D02*
X2794Y2390D01*
X2824Y2390D02*
X2835Y2390D01*
X2884Y2390D02*
X2894Y2390D01*
X2924Y2390D02*
X2935Y2390D01*
X2984Y2390D02*
X2994Y2390D01*
X3024Y2390D02*
X3035Y2390D01*
X3185Y2390D02*
X3197Y2390D01*
X3225Y2390D02*
X3236Y2390D01*
X3285Y2390D02*
X3297Y2390D01*
X3325Y2390D02*
X3336Y2390D01*
X3385Y2390D02*
X3397Y2390D01*
X3425Y2390D02*
X3436Y2390D01*
X3485Y2390D02*
X3497Y2390D01*
X3525Y2390D02*
X3536Y2390D01*
X3585Y2390D02*
X3597Y2390D01*
X3625Y2390D02*
X3636Y2390D01*
X3685Y2390D02*
X3697Y2390D01*
X3725Y2390D02*
X3736Y2390D01*
X3785Y2390D02*
X3797Y2390D01*
X3825Y2390D02*
X3836Y2390D01*
X3885Y2390D02*
X3897Y2390D01*
X3925Y2390D02*
X3936Y2390D01*
X2284Y2389D02*
X2294Y2389D01*
X2324Y2389D02*
X2335Y2389D01*
X2384Y2389D02*
X2394Y2389D01*
X2424Y2389D02*
X2435Y2389D01*
X2484Y2389D02*
X2494Y2389D01*
X2524Y2389D02*
X2535Y2389D01*
X2584Y2389D02*
X2594Y2389D01*
X2624Y2389D02*
X2635Y2389D01*
X2684Y2389D02*
X2694Y2389D01*
X2724Y2389D02*
X2735Y2389D01*
X2784Y2389D02*
X2794Y2389D01*
X2824Y2389D02*
X2835Y2389D01*
X2884Y2389D02*
X2894Y2389D01*
X2924Y2389D02*
X2935Y2389D01*
X2984Y2389D02*
X2994Y2389D01*
X3024Y2389D02*
X3035Y2389D01*
X3185Y2389D02*
X3198Y2389D01*
X3224Y2389D02*
X3236Y2389D01*
X3285Y2389D02*
X3298Y2389D01*
X3324Y2389D02*
X3336Y2389D01*
X3385Y2389D02*
X3398Y2389D01*
X3424Y2389D02*
X3436Y2389D01*
X3485Y2389D02*
X3498Y2389D01*
X3524Y2389D02*
X3536Y2389D01*
X3585Y2389D02*
X3598Y2389D01*
X3624Y2389D02*
X3636Y2389D01*
X3685Y2389D02*
X3698Y2389D01*
X3724Y2389D02*
X3736Y2389D01*
X3785Y2389D02*
X3798Y2389D01*
X3824Y2389D02*
X3836Y2389D01*
X3885Y2389D02*
X3898Y2389D01*
X3924Y2389D02*
X3936Y2389D01*
X2284Y2388D02*
X2295Y2388D01*
X2323Y2388D02*
X2335Y2388D01*
X2384Y2388D02*
X2395Y2388D01*
X2423Y2388D02*
X2435Y2388D01*
X2484Y2388D02*
X2495Y2388D01*
X2523Y2388D02*
X2535Y2388D01*
X2584Y2388D02*
X2595Y2388D01*
X2623Y2388D02*
X2635Y2388D01*
X2684Y2388D02*
X2695Y2388D01*
X2723Y2388D02*
X2735Y2388D01*
X2784Y2388D02*
X2795Y2388D01*
X2823Y2388D02*
X2835Y2388D01*
X2884Y2388D02*
X2895Y2388D01*
X2923Y2388D02*
X2935Y2388D01*
X2984Y2388D02*
X2995Y2388D01*
X3023Y2388D02*
X3035Y2388D01*
X3185Y2388D02*
X3198Y2388D01*
X3223Y2388D02*
X3236Y2388D01*
X3285Y2388D02*
X3298Y2388D01*
X3323Y2388D02*
X3336Y2388D01*
X3385Y2388D02*
X3398Y2388D01*
X3423Y2388D02*
X3436Y2388D01*
X3485Y2388D02*
X3498Y2388D01*
X3523Y2388D02*
X3536Y2388D01*
X3585Y2388D02*
X3598Y2388D01*
X3623Y2388D02*
X3636Y2388D01*
X3685Y2388D02*
X3698Y2388D01*
X3723Y2388D02*
X3736Y2388D01*
X3785Y2388D02*
X3798Y2388D01*
X3823Y2388D02*
X3836Y2388D01*
X3885Y2388D02*
X3898Y2388D01*
X3923Y2388D02*
X3936Y2388D01*
X2284Y2387D02*
X2296Y2387D01*
X2323Y2387D02*
X2335Y2387D01*
X2384Y2387D02*
X2396Y2387D01*
X2423Y2387D02*
X2435Y2387D01*
X2484Y2387D02*
X2496Y2387D01*
X2523Y2387D02*
X2535Y2387D01*
X2584Y2387D02*
X2596Y2387D01*
X2623Y2387D02*
X2635Y2387D01*
X2684Y2387D02*
X2696Y2387D01*
X2723Y2387D02*
X2735Y2387D01*
X2784Y2387D02*
X2796Y2387D01*
X2823Y2387D02*
X2835Y2387D01*
X2884Y2387D02*
X2896Y2387D01*
X2923Y2387D02*
X2935Y2387D01*
X2984Y2387D02*
X2996Y2387D01*
X3023Y2387D02*
X3035Y2387D01*
X3185Y2387D02*
X3199Y2387D01*
X3222Y2387D02*
X3236Y2387D01*
X3285Y2387D02*
X3299Y2387D01*
X3322Y2387D02*
X3336Y2387D01*
X3385Y2387D02*
X3399Y2387D01*
X3422Y2387D02*
X3436Y2387D01*
X3485Y2387D02*
X3499Y2387D01*
X3522Y2387D02*
X3536Y2387D01*
X3585Y2387D02*
X3599Y2387D01*
X3622Y2387D02*
X3636Y2387D01*
X3685Y2387D02*
X3699Y2387D01*
X3722Y2387D02*
X3736Y2387D01*
X3785Y2387D02*
X3799Y2387D01*
X3822Y2387D02*
X3836Y2387D01*
X3885Y2387D02*
X3899Y2387D01*
X3922Y2387D02*
X3936Y2387D01*
X2284Y2386D02*
X2296Y2386D01*
X2322Y2386D02*
X2335Y2386D01*
X2384Y2386D02*
X2396Y2386D01*
X2422Y2386D02*
X2435Y2386D01*
X2484Y2386D02*
X2496Y2386D01*
X2522Y2386D02*
X2535Y2386D01*
X2584Y2386D02*
X2596Y2386D01*
X2622Y2386D02*
X2635Y2386D01*
X2684Y2386D02*
X2696Y2386D01*
X2722Y2386D02*
X2735Y2386D01*
X2784Y2386D02*
X2796Y2386D01*
X2822Y2386D02*
X2835Y2386D01*
X2884Y2386D02*
X2896Y2386D01*
X2922Y2386D02*
X2935Y2386D01*
X2984Y2386D02*
X2996Y2386D01*
X3022Y2386D02*
X3035Y2386D01*
X3185Y2386D02*
X3201Y2386D01*
X3221Y2386D02*
X3236Y2386D01*
X3285Y2386D02*
X3301Y2386D01*
X3321Y2386D02*
X3336Y2386D01*
X3385Y2386D02*
X3401Y2386D01*
X3421Y2386D02*
X3436Y2386D01*
X3485Y2386D02*
X3501Y2386D01*
X3521Y2386D02*
X3536Y2386D01*
X3585Y2386D02*
X3601Y2386D01*
X3621Y2386D02*
X3636Y2386D01*
X3685Y2386D02*
X3701Y2386D01*
X3721Y2386D02*
X3736Y2386D01*
X3785Y2386D02*
X3801Y2386D01*
X3821Y2386D02*
X3836Y2386D01*
X3885Y2386D02*
X3901Y2386D01*
X3921Y2386D02*
X3936Y2386D01*
X2284Y2385D02*
X2297Y2385D01*
X2321Y2385D02*
X2335Y2385D01*
X2384Y2385D02*
X2397Y2385D01*
X2421Y2385D02*
X2435Y2385D01*
X2484Y2385D02*
X2497Y2385D01*
X2521Y2385D02*
X2535Y2385D01*
X2584Y2385D02*
X2597Y2385D01*
X2621Y2385D02*
X2635Y2385D01*
X2684Y2385D02*
X2697Y2385D01*
X2721Y2385D02*
X2735Y2385D01*
X2784Y2385D02*
X2797Y2385D01*
X2821Y2385D02*
X2835Y2385D01*
X2884Y2385D02*
X2897Y2385D01*
X2921Y2385D02*
X2935Y2385D01*
X2984Y2385D02*
X2997Y2385D01*
X3021Y2385D02*
X3035Y2385D01*
X3185Y2385D02*
X3202Y2385D01*
X3220Y2385D02*
X3236Y2385D01*
X3285Y2385D02*
X3302Y2385D01*
X3320Y2385D02*
X3336Y2385D01*
X3385Y2385D02*
X3402Y2385D01*
X3420Y2385D02*
X3436Y2385D01*
X3485Y2385D02*
X3502Y2385D01*
X3520Y2385D02*
X3536Y2385D01*
X3585Y2385D02*
X3602Y2385D01*
X3620Y2385D02*
X3636Y2385D01*
X3685Y2385D02*
X3702Y2385D01*
X3720Y2385D02*
X3736Y2385D01*
X3785Y2385D02*
X3802Y2385D01*
X3820Y2385D02*
X3836Y2385D01*
X3885Y2385D02*
X3902Y2385D01*
X3920Y2385D02*
X3936Y2385D01*
X2284Y2384D02*
X2298Y2384D01*
X2320Y2384D02*
X2335Y2384D01*
X2384Y2384D02*
X2398Y2384D01*
X2420Y2384D02*
X2435Y2384D01*
X2484Y2384D02*
X2498Y2384D01*
X2520Y2384D02*
X2535Y2384D01*
X2584Y2384D02*
X2598Y2384D01*
X2620Y2384D02*
X2635Y2384D01*
X2684Y2384D02*
X2698Y2384D01*
X2720Y2384D02*
X2735Y2384D01*
X2784Y2384D02*
X2798Y2384D01*
X2820Y2384D02*
X2835Y2384D01*
X2884Y2384D02*
X2898Y2384D01*
X2920Y2384D02*
X2935Y2384D01*
X2984Y2384D02*
X2998Y2384D01*
X3020Y2384D02*
X3035Y2384D01*
X3185Y2384D02*
X3204Y2384D01*
X3218Y2384D02*
X3236Y2384D01*
X3285Y2384D02*
X3304Y2384D01*
X3318Y2384D02*
X3336Y2384D01*
X3385Y2384D02*
X3404Y2384D01*
X3418Y2384D02*
X3436Y2384D01*
X3485Y2384D02*
X3504Y2384D01*
X3518Y2384D02*
X3536Y2384D01*
X3585Y2384D02*
X3604Y2384D01*
X3618Y2384D02*
X3636Y2384D01*
X3685Y2384D02*
X3704Y2384D01*
X3718Y2384D02*
X3736Y2384D01*
X3785Y2384D02*
X3804Y2384D01*
X3818Y2384D02*
X3836Y2384D01*
X3885Y2384D02*
X3904Y2384D01*
X3918Y2384D02*
X3936Y2384D01*
X2284Y2383D02*
X2300Y2383D01*
X2319Y2383D02*
X2335Y2383D01*
X2384Y2383D02*
X2400Y2383D01*
X2419Y2383D02*
X2435Y2383D01*
X2484Y2383D02*
X2500Y2383D01*
X2519Y2383D02*
X2535Y2383D01*
X2584Y2383D02*
X2600Y2383D01*
X2619Y2383D02*
X2635Y2383D01*
X2684Y2383D02*
X2700Y2383D01*
X2719Y2383D02*
X2735Y2383D01*
X2784Y2383D02*
X2800Y2383D01*
X2819Y2383D02*
X2835Y2383D01*
X2884Y2383D02*
X2900Y2383D01*
X2919Y2383D02*
X2935Y2383D01*
X2984Y2383D02*
X3000Y2383D01*
X3019Y2383D02*
X3035Y2383D01*
X3185Y2383D02*
X3207Y2383D01*
X3215Y2383D02*
X3236Y2383D01*
X3285Y2383D02*
X3307Y2383D01*
X3315Y2383D02*
X3336Y2383D01*
X3385Y2383D02*
X3407Y2383D01*
X3415Y2383D02*
X3436Y2383D01*
X3485Y2383D02*
X3507Y2383D01*
X3515Y2383D02*
X3536Y2383D01*
X3585Y2383D02*
X3607Y2383D01*
X3615Y2383D02*
X3636Y2383D01*
X3685Y2383D02*
X3707Y2383D01*
X3715Y2383D02*
X3736Y2383D01*
X3785Y2383D02*
X3807Y2383D01*
X3815Y2383D02*
X3836Y2383D01*
X3885Y2383D02*
X3907Y2383D01*
X3915Y2383D02*
X3936Y2383D01*
X2284Y2382D02*
X2301Y2382D01*
X2317Y2382D02*
X2335Y2382D01*
X2384Y2382D02*
X2401Y2382D01*
X2417Y2382D02*
X2435Y2382D01*
X2484Y2382D02*
X2501Y2382D01*
X2517Y2382D02*
X2535Y2382D01*
X2584Y2382D02*
X2601Y2382D01*
X2617Y2382D02*
X2635Y2382D01*
X2684Y2382D02*
X2701Y2382D01*
X2717Y2382D02*
X2735Y2382D01*
X2784Y2382D02*
X2801Y2382D01*
X2817Y2382D02*
X2835Y2382D01*
X2884Y2382D02*
X2901Y2382D01*
X2917Y2382D02*
X2935Y2382D01*
X2984Y2382D02*
X3001Y2382D01*
X3017Y2382D02*
X3035Y2382D01*
X3185Y2382D02*
X3236Y2382D01*
X3285Y2382D02*
X3336Y2382D01*
X3385Y2382D02*
X3436Y2382D01*
X3485Y2382D02*
X3536Y2382D01*
X3585Y2382D02*
X3636Y2382D01*
X3685Y2382D02*
X3736Y2382D01*
X3785Y2382D02*
X3836Y2382D01*
X3885Y2382D02*
X3936Y2382D01*
X2284Y2381D02*
X2304Y2381D01*
X2315Y2381D02*
X2335Y2381D01*
X2384Y2381D02*
X2404Y2381D01*
X2415Y2381D02*
X2435Y2381D01*
X2484Y2381D02*
X2504Y2381D01*
X2515Y2381D02*
X2535Y2381D01*
X2584Y2381D02*
X2604Y2381D01*
X2615Y2381D02*
X2635Y2381D01*
X2684Y2381D02*
X2704Y2381D01*
X2715Y2381D02*
X2735Y2381D01*
X2784Y2381D02*
X2804Y2381D01*
X2815Y2381D02*
X2835Y2381D01*
X2884Y2381D02*
X2904Y2381D01*
X2915Y2381D02*
X2935Y2381D01*
X2984Y2381D02*
X3004Y2381D01*
X3015Y2381D02*
X3035Y2381D01*
X3185Y2381D02*
X3236Y2381D01*
X3285Y2381D02*
X3336Y2381D01*
X3385Y2381D02*
X3436Y2381D01*
X3485Y2381D02*
X3536Y2381D01*
X3585Y2381D02*
X3636Y2381D01*
X3685Y2381D02*
X3736Y2381D01*
X3785Y2381D02*
X3836Y2381D01*
X3885Y2381D02*
X3936Y2381D01*
X2284Y2380D02*
X2335Y2380D01*
X2384Y2380D02*
X2435Y2380D01*
X2484Y2380D02*
X2535Y2380D01*
X2584Y2380D02*
X2635Y2380D01*
X2684Y2380D02*
X2735Y2380D01*
X2784Y2380D02*
X2835Y2380D01*
X2884Y2380D02*
X2935Y2380D01*
X2984Y2380D02*
X3035Y2380D01*
X3185Y2380D02*
X3236Y2380D01*
X3285Y2380D02*
X3336Y2380D01*
X3385Y2380D02*
X3436Y2380D01*
X3485Y2380D02*
X3536Y2380D01*
X3585Y2380D02*
X3636Y2380D01*
X3685Y2380D02*
X3736Y2380D01*
X3785Y2380D02*
X3836Y2380D01*
X3885Y2380D02*
X3936Y2380D01*
X2284Y2379D02*
X2335Y2379D01*
X2384Y2379D02*
X2435Y2379D01*
X2484Y2379D02*
X2535Y2379D01*
X2584Y2379D02*
X2635Y2379D01*
X2684Y2379D02*
X2735Y2379D01*
X2784Y2379D02*
X2835Y2379D01*
X2884Y2379D02*
X2935Y2379D01*
X2984Y2379D02*
X3035Y2379D01*
X3185Y2379D02*
X3236Y2379D01*
X3285Y2379D02*
X3336Y2379D01*
X3385Y2379D02*
X3436Y2379D01*
X3485Y2379D02*
X3536Y2379D01*
X3585Y2379D02*
X3636Y2379D01*
X3685Y2379D02*
X3736Y2379D01*
X3785Y2379D02*
X3836Y2379D01*
X3885Y2379D02*
X3936Y2379D01*
X2284Y2378D02*
X2335Y2378D01*
X2384Y2378D02*
X2435Y2378D01*
X2484Y2378D02*
X2535Y2378D01*
X2584Y2378D02*
X2635Y2378D01*
X2684Y2378D02*
X2735Y2378D01*
X2784Y2378D02*
X2835Y2378D01*
X2884Y2378D02*
X2935Y2378D01*
X2984Y2378D02*
X3035Y2378D01*
X3185Y2378D02*
X3236Y2378D01*
X3285Y2378D02*
X3336Y2378D01*
X3385Y2378D02*
X3436Y2378D01*
X3485Y2378D02*
X3536Y2378D01*
X3585Y2378D02*
X3636Y2378D01*
X3685Y2378D02*
X3736Y2378D01*
X3785Y2378D02*
X3836Y2378D01*
X3885Y2378D02*
X3936Y2378D01*
X2284Y2377D02*
X2335Y2377D01*
X2384Y2377D02*
X2435Y2377D01*
X2484Y2377D02*
X2535Y2377D01*
X2584Y2377D02*
X2635Y2377D01*
X2684Y2377D02*
X2735Y2377D01*
X2784Y2377D02*
X2835Y2377D01*
X2884Y2377D02*
X2935Y2377D01*
X2984Y2377D02*
X3035Y2377D01*
X3185Y2377D02*
X3236Y2377D01*
X3285Y2377D02*
X3336Y2377D01*
X3385Y2377D02*
X3436Y2377D01*
X3485Y2377D02*
X3536Y2377D01*
X3585Y2377D02*
X3636Y2377D01*
X3685Y2377D02*
X3736Y2377D01*
X3785Y2377D02*
X3836Y2377D01*
X3885Y2377D02*
X3936Y2377D01*
X2284Y2376D02*
X2335Y2376D01*
X2384Y2376D02*
X2435Y2376D01*
X2484Y2376D02*
X2535Y2376D01*
X2584Y2376D02*
X2635Y2376D01*
X2684Y2376D02*
X2735Y2376D01*
X2784Y2376D02*
X2835Y2376D01*
X2884Y2376D02*
X2935Y2376D01*
X2984Y2376D02*
X3035Y2376D01*
X3185Y2376D02*
X3236Y2376D01*
X3285Y2376D02*
X3336Y2376D01*
X3385Y2376D02*
X3436Y2376D01*
X3485Y2376D02*
X3536Y2376D01*
X3585Y2376D02*
X3636Y2376D01*
X3685Y2376D02*
X3736Y2376D01*
X3785Y2376D02*
X3836Y2376D01*
X3885Y2376D02*
X3936Y2376D01*
X2284Y2375D02*
X2335Y2375D01*
X2384Y2375D02*
X2435Y2375D01*
X2484Y2375D02*
X2535Y2375D01*
X2584Y2375D02*
X2635Y2375D01*
X2684Y2375D02*
X2735Y2375D01*
X2784Y2375D02*
X2835Y2375D01*
X2884Y2375D02*
X2935Y2375D01*
X2984Y2375D02*
X3035Y2375D01*
X3185Y2375D02*
X3236Y2375D01*
X3285Y2375D02*
X3336Y2375D01*
X3385Y2375D02*
X3436Y2375D01*
X3485Y2375D02*
X3536Y2375D01*
X3585Y2375D02*
X3636Y2375D01*
X3685Y2375D02*
X3736Y2375D01*
X3785Y2375D02*
X3836Y2375D01*
X3885Y2375D02*
X3936Y2375D01*
X2284Y2374D02*
X2335Y2374D01*
X2384Y2374D02*
X2435Y2374D01*
X2484Y2374D02*
X2535Y2374D01*
X2584Y2374D02*
X2635Y2374D01*
X2684Y2374D02*
X2735Y2374D01*
X2784Y2374D02*
X2835Y2374D01*
X2884Y2374D02*
X2935Y2374D01*
X2984Y2374D02*
X3035Y2374D01*
X3185Y2374D02*
X3236Y2374D01*
X3285Y2374D02*
X3336Y2374D01*
X3385Y2374D02*
X3436Y2374D01*
X3485Y2374D02*
X3536Y2374D01*
X3585Y2374D02*
X3636Y2374D01*
X3685Y2374D02*
X3736Y2374D01*
X3785Y2374D02*
X3836Y2374D01*
X3885Y2374D02*
X3936Y2374D01*
X2284Y2373D02*
X2335Y2373D01*
X2384Y2373D02*
X2435Y2373D01*
X2484Y2373D02*
X2535Y2373D01*
X2584Y2373D02*
X2635Y2373D01*
X2684Y2373D02*
X2735Y2373D01*
X2784Y2373D02*
X2835Y2373D01*
X2884Y2373D02*
X2935Y2373D01*
X2984Y2373D02*
X3035Y2373D01*
X3185Y2373D02*
X3236Y2373D01*
X3285Y2373D02*
X3336Y2373D01*
X3385Y2373D02*
X3436Y2373D01*
X3485Y2373D02*
X3536Y2373D01*
X3585Y2373D02*
X3636Y2373D01*
X3685Y2373D02*
X3736Y2373D01*
X3785Y2373D02*
X3836Y2373D01*
X3885Y2373D02*
X3936Y2373D01*
X2284Y2372D02*
X2335Y2372D01*
X2384Y2372D02*
X2435Y2372D01*
X2484Y2372D02*
X2535Y2372D01*
X2584Y2372D02*
X2635Y2372D01*
X2684Y2372D02*
X2735Y2372D01*
X2784Y2372D02*
X2835Y2372D01*
X2884Y2372D02*
X2935Y2372D01*
X2984Y2372D02*
X3035Y2372D01*
X3185Y2372D02*
X3236Y2372D01*
X3285Y2372D02*
X3336Y2372D01*
X3385Y2372D02*
X3436Y2372D01*
X3485Y2372D02*
X3536Y2372D01*
X3585Y2372D02*
X3636Y2372D01*
X3685Y2372D02*
X3736Y2372D01*
X3785Y2372D02*
X3836Y2372D01*
X3885Y2372D02*
X3936Y2372D01*
X2284Y2371D02*
X2335Y2371D01*
X2384Y2371D02*
X2435Y2371D01*
X2484Y2371D02*
X2535Y2371D01*
X2584Y2371D02*
X2635Y2371D01*
X2684Y2371D02*
X2735Y2371D01*
X2784Y2371D02*
X2835Y2371D01*
X2884Y2371D02*
X2935Y2371D01*
X2984Y2371D02*
X3035Y2371D01*
X3186Y2371D02*
X3236Y2371D01*
X3285Y2371D02*
X3336Y2371D01*
X3385Y2371D02*
X3436Y2371D01*
X3485Y2371D02*
X3536Y2371D01*
X3585Y2371D02*
X3636Y2371D01*
X3685Y2371D02*
X3736Y2371D01*
X3785Y2371D02*
X3836Y2371D01*
X3885Y2371D02*
X3936Y2371D01*
X2284Y2370D02*
X2335Y2370D01*
X2384Y2370D02*
X2435Y2370D01*
X2484Y2370D02*
X2535Y2370D01*
X2584Y2370D02*
X2635Y2370D01*
X2684Y2370D02*
X2735Y2370D01*
X2784Y2370D02*
X2835Y2370D01*
X2884Y2370D02*
X2935Y2370D01*
X2984Y2370D02*
X3035Y2370D01*
X3186Y2370D02*
X3236Y2370D01*
X3286Y2370D02*
X3336Y2370D01*
X3386Y2370D02*
X3436Y2370D01*
X3486Y2370D02*
X3536Y2370D01*
X3586Y2370D02*
X3636Y2370D01*
X3686Y2370D02*
X3736Y2370D01*
X3786Y2370D02*
X3836Y2370D01*
X3886Y2370D02*
X3936Y2370D01*
X2284Y2369D02*
X2335Y2369D01*
X2384Y2369D02*
X2435Y2369D01*
X2484Y2369D02*
X2535Y2369D01*
X2584Y2369D02*
X2635Y2369D01*
X2684Y2369D02*
X2735Y2369D01*
X2784Y2369D02*
X2835Y2369D01*
X2884Y2369D02*
X2935Y2369D01*
X2984Y2369D02*
X3035Y2369D01*
X3186Y2369D02*
X3236Y2369D01*
X3286Y2369D02*
X3336Y2369D01*
X3386Y2369D02*
X3436Y2369D01*
X3486Y2369D02*
X3536Y2369D01*
X3586Y2369D02*
X3636Y2369D01*
X3686Y2369D02*
X3736Y2369D01*
X3786Y2369D02*
X3836Y2369D01*
X3886Y2369D02*
X3936Y2369D01*
X2284Y2368D02*
X2335Y2368D01*
X2384Y2368D02*
X2435Y2368D01*
X2484Y2368D02*
X2535Y2368D01*
X2584Y2368D02*
X2635Y2368D01*
X2684Y2368D02*
X2735Y2368D01*
X2784Y2368D02*
X2835Y2368D01*
X2884Y2368D02*
X2935Y2368D01*
X2984Y2368D02*
X3035Y2368D01*
X3186Y2368D02*
X3236Y2368D01*
X3286Y2368D02*
X3336Y2368D01*
X3386Y2368D02*
X3436Y2368D01*
X3486Y2368D02*
X3536Y2368D01*
X3586Y2368D02*
X3636Y2368D01*
X3686Y2368D02*
X3736Y2368D01*
X3786Y2368D02*
X3836Y2368D01*
X3886Y2368D02*
X3936Y2368D01*
X2284Y2367D02*
X2335Y2367D01*
X2384Y2367D02*
X2435Y2367D01*
X2484Y2367D02*
X2535Y2367D01*
X2584Y2367D02*
X2634Y2367D01*
X2684Y2367D02*
X2734Y2367D01*
X2784Y2367D02*
X2834Y2367D01*
X2884Y2367D02*
X2934Y2367D01*
X2984Y2367D02*
X3034Y2367D01*
X3186Y2367D02*
X3236Y2367D01*
X3286Y2367D02*
X3336Y2367D01*
X3386Y2367D02*
X3436Y2367D01*
X3486Y2367D02*
X3536Y2367D01*
X3586Y2367D02*
X3636Y2367D01*
X3686Y2367D02*
X3736Y2367D01*
X3786Y2367D02*
X3836Y2367D01*
X3886Y2367D02*
X3936Y2367D01*
X2284Y2366D02*
X2334Y2366D01*
X2384Y2366D02*
X2434Y2366D01*
X2484Y2366D02*
X2534Y2366D01*
X2584Y2366D02*
X2634Y2366D01*
X2684Y2366D02*
X2734Y2366D01*
X2784Y2366D02*
X2834Y2366D01*
X2884Y2366D02*
X2934Y2366D01*
X2984Y2366D02*
X3034Y2366D01*
X3186Y2366D02*
X3236Y2366D01*
X3286Y2366D02*
X3336Y2366D01*
X3386Y2366D02*
X3436Y2366D01*
X3486Y2366D02*
X3536Y2366D01*
X3586Y2366D02*
X3636Y2366D01*
X3686Y2366D02*
X3736Y2366D01*
X3786Y2366D02*
X3836Y2366D01*
X3886Y2366D02*
X3936Y2366D01*
X2284Y2365D02*
X2334Y2365D01*
X2384Y2365D02*
X2434Y2365D01*
X2484Y2365D02*
X2534Y2365D01*
X2584Y2365D02*
X2634Y2365D01*
X2684Y2365D02*
X2734Y2365D01*
X2784Y2365D02*
X2834Y2365D01*
X2884Y2365D02*
X2934Y2365D01*
X2984Y2365D02*
X3034Y2365D01*
X3187Y2365D02*
X3235Y2365D01*
X3287Y2365D02*
X3335Y2365D01*
X3387Y2365D02*
X3435Y2365D01*
X3487Y2365D02*
X3535Y2365D01*
X3587Y2365D02*
X3635Y2365D01*
X3687Y2365D02*
X3735Y2365D01*
X3787Y2365D02*
X3835Y2365D01*
X3887Y2365D02*
X3935Y2365D01*
X2284Y2364D02*
X2334Y2364D01*
X2384Y2364D02*
X2434Y2364D01*
X2484Y2364D02*
X2534Y2364D01*
X2584Y2364D02*
X2634Y2364D01*
X2684Y2364D02*
X2734Y2364D01*
X2784Y2364D02*
X2834Y2364D01*
X2884Y2364D02*
X2934Y2364D01*
X2984Y2364D02*
X3034Y2364D01*
X3187Y2364D02*
X3235Y2364D01*
X3287Y2364D02*
X3335Y2364D01*
X3387Y2364D02*
X3435Y2364D01*
X3487Y2364D02*
X3535Y2364D01*
X3587Y2364D02*
X3635Y2364D01*
X3687Y2364D02*
X3735Y2364D01*
X3787Y2364D02*
X3835Y2364D01*
X3887Y2364D02*
X3935Y2364D01*
X2285Y2363D02*
X2334Y2363D01*
X2385Y2363D02*
X2434Y2363D01*
X2485Y2363D02*
X2534Y2363D01*
X2585Y2363D02*
X2634Y2363D01*
X2685Y2363D02*
X2734Y2363D01*
X2785Y2363D02*
X2834Y2363D01*
X2885Y2363D02*
X2934Y2363D01*
X2985Y2363D02*
X3034Y2363D01*
X3187Y2363D02*
X3235Y2363D01*
X3287Y2363D02*
X3335Y2363D01*
X3387Y2363D02*
X3435Y2363D01*
X3487Y2363D02*
X3535Y2363D01*
X3587Y2363D02*
X3635Y2363D01*
X3687Y2363D02*
X3735Y2363D01*
X3787Y2363D02*
X3835Y2363D01*
X3887Y2363D02*
X3935Y2363D01*
X2285Y2362D02*
X2333Y2362D01*
X2385Y2362D02*
X2433Y2362D01*
X2485Y2362D02*
X2533Y2362D01*
X2585Y2362D02*
X2633Y2362D01*
X2685Y2362D02*
X2733Y2362D01*
X2785Y2362D02*
X2833Y2362D01*
X2885Y2362D02*
X2933Y2362D01*
X2985Y2362D02*
X3033Y2362D01*
X3188Y2362D02*
X3234Y2362D01*
X3288Y2362D02*
X3334Y2362D01*
X3388Y2362D02*
X3434Y2362D01*
X3488Y2362D02*
X3534Y2362D01*
X3588Y2362D02*
X3634Y2362D01*
X3688Y2362D02*
X3734Y2362D01*
X3788Y2362D02*
X3834Y2362D01*
X3888Y2362D02*
X3934Y2362D01*
X2285Y2361D02*
X2333Y2361D01*
X2385Y2361D02*
X2433Y2361D01*
X2485Y2361D02*
X2533Y2361D01*
X2585Y2361D02*
X2633Y2361D01*
X2685Y2361D02*
X2733Y2361D01*
X2785Y2361D02*
X2833Y2361D01*
X2885Y2361D02*
X2933Y2361D01*
X2985Y2361D02*
X3033Y2361D01*
X3188Y2361D02*
X3234Y2361D01*
X3288Y2361D02*
X3334Y2361D01*
X3388Y2361D02*
X3434Y2361D01*
X3488Y2361D02*
X3534Y2361D01*
X3588Y2361D02*
X3634Y2361D01*
X3688Y2361D02*
X3734Y2361D01*
X3788Y2361D02*
X3834Y2361D01*
X3888Y2361D02*
X3934Y2361D01*
X2286Y2360D02*
X2333Y2360D01*
X2386Y2360D02*
X2433Y2360D01*
X2486Y2360D02*
X2533Y2360D01*
X2586Y2360D02*
X2633Y2360D01*
X2686Y2360D02*
X2733Y2360D01*
X2786Y2360D02*
X2833Y2360D01*
X2886Y2360D02*
X2933Y2360D01*
X2986Y2360D02*
X3033Y2360D01*
X3189Y2360D02*
X3233Y2360D01*
X3289Y2360D02*
X3333Y2360D01*
X3389Y2360D02*
X3433Y2360D01*
X3489Y2360D02*
X3533Y2360D01*
X3589Y2360D02*
X3633Y2360D01*
X3689Y2360D02*
X3733Y2360D01*
X3789Y2360D02*
X3833Y2360D01*
X3889Y2360D02*
X3933Y2360D01*
X2286Y2359D02*
X2332Y2359D01*
X2386Y2359D02*
X2432Y2359D01*
X2486Y2359D02*
X2532Y2359D01*
X2586Y2359D02*
X2632Y2359D01*
X2686Y2359D02*
X2732Y2359D01*
X2786Y2359D02*
X2832Y2359D01*
X2886Y2359D02*
X2932Y2359D01*
X2986Y2359D02*
X3032Y2359D01*
X3189Y2359D02*
X3233Y2359D01*
X3289Y2359D02*
X3333Y2359D01*
X3389Y2359D02*
X3433Y2359D01*
X3489Y2359D02*
X3533Y2359D01*
X3589Y2359D02*
X3633Y2359D01*
X3689Y2359D02*
X3733Y2359D01*
X3789Y2359D02*
X3833Y2359D01*
X3889Y2359D02*
X3933Y2359D01*
X2287Y2358D02*
X2332Y2358D01*
X2387Y2358D02*
X2432Y2358D01*
X2487Y2358D02*
X2532Y2358D01*
X2587Y2358D02*
X2632Y2358D01*
X2687Y2358D02*
X2732Y2358D01*
X2787Y2358D02*
X2832Y2358D01*
X2887Y2358D02*
X2932Y2358D01*
X2987Y2358D02*
X3032Y2358D01*
X3190Y2358D02*
X3232Y2358D01*
X3290Y2358D02*
X3332Y2358D01*
X3390Y2358D02*
X3432Y2358D01*
X3490Y2358D02*
X3532Y2358D01*
X3590Y2358D02*
X3632Y2358D01*
X3690Y2358D02*
X3732Y2358D01*
X3790Y2358D02*
X3832Y2358D01*
X3890Y2358D02*
X3932Y2358D01*
X2287Y2357D02*
X2331Y2357D01*
X2387Y2357D02*
X2431Y2357D01*
X2487Y2357D02*
X2531Y2357D01*
X2587Y2357D02*
X2631Y2357D01*
X2687Y2357D02*
X2731Y2357D01*
X2787Y2357D02*
X2831Y2357D01*
X2887Y2357D02*
X2931Y2357D01*
X2987Y2357D02*
X3031Y2357D01*
X3191Y2357D02*
X3231Y2357D01*
X3291Y2357D02*
X3331Y2357D01*
X3391Y2357D02*
X3431Y2357D01*
X3491Y2357D02*
X3531Y2357D01*
X3591Y2357D02*
X3631Y2357D01*
X3691Y2357D02*
X3731Y2357D01*
X3791Y2357D02*
X3831Y2357D01*
X3891Y2357D02*
X3931Y2357D01*
X2288Y2356D02*
X2331Y2356D01*
X2388Y2356D02*
X2431Y2356D01*
X2488Y2356D02*
X2531Y2356D01*
X2588Y2356D02*
X2630Y2356D01*
X2688Y2356D02*
X2730Y2356D01*
X2788Y2356D02*
X2830Y2356D01*
X2888Y2356D02*
X2930Y2356D01*
X2988Y2356D02*
X3030Y2356D01*
X3191Y2356D02*
X3230Y2356D01*
X3291Y2356D02*
X3330Y2356D01*
X3391Y2356D02*
X3430Y2356D01*
X3491Y2356D02*
X3530Y2356D01*
X3591Y2356D02*
X3630Y2356D01*
X3691Y2356D02*
X3730Y2356D01*
X3791Y2356D02*
X3830Y2356D01*
X3891Y2356D02*
X3930Y2356D01*
X2289Y2355D02*
X2330Y2355D01*
X2389Y2355D02*
X2430Y2355D01*
X2489Y2355D02*
X2530Y2355D01*
X2589Y2355D02*
X2630Y2355D01*
X2689Y2355D02*
X2730Y2355D01*
X2789Y2355D02*
X2830Y2355D01*
X2889Y2355D02*
X2930Y2355D01*
X2989Y2355D02*
X3030Y2355D01*
X3192Y2355D02*
X3230Y2355D01*
X3292Y2355D02*
X3330Y2355D01*
X3392Y2355D02*
X3430Y2355D01*
X3492Y2355D02*
X3530Y2355D01*
X3592Y2355D02*
X3630Y2355D01*
X3692Y2355D02*
X3730Y2355D01*
X3792Y2355D02*
X3830Y2355D01*
X3892Y2355D02*
X3930Y2355D01*
X2289Y2354D02*
X2329Y2354D01*
X2389Y2354D02*
X2429Y2354D01*
X2489Y2354D02*
X2529Y2354D01*
X2589Y2354D02*
X2629Y2354D01*
X2689Y2354D02*
X2729Y2354D01*
X2789Y2354D02*
X2829Y2354D01*
X2889Y2354D02*
X2929Y2354D01*
X2989Y2354D02*
X3029Y2354D01*
X3193Y2354D02*
X3229Y2354D01*
X3293Y2354D02*
X3329Y2354D01*
X3393Y2354D02*
X3429Y2354D01*
X3493Y2354D02*
X3529Y2354D01*
X3593Y2354D02*
X3629Y2354D01*
X3693Y2354D02*
X3729Y2354D01*
X3793Y2354D02*
X3829Y2354D01*
X3893Y2354D02*
X3929Y2354D01*
X2290Y2353D02*
X2328Y2353D01*
X2390Y2353D02*
X2428Y2353D01*
X2490Y2353D02*
X2528Y2353D01*
X2590Y2353D02*
X2628Y2353D01*
X2690Y2353D02*
X2728Y2353D01*
X2790Y2353D02*
X2828Y2353D01*
X2890Y2353D02*
X2928Y2353D01*
X2990Y2353D02*
X3028Y2353D01*
X3194Y2353D02*
X3228Y2353D01*
X3294Y2353D02*
X3328Y2353D01*
X3394Y2353D02*
X3428Y2353D01*
X3494Y2353D02*
X3527Y2353D01*
X3594Y2353D02*
X3627Y2353D01*
X3694Y2353D02*
X3727Y2353D01*
X3794Y2353D02*
X3827Y2353D01*
X3894Y2353D02*
X3927Y2353D01*
X2291Y2352D02*
X2327Y2352D01*
X2391Y2352D02*
X2427Y2352D01*
X2491Y2352D02*
X2527Y2352D01*
X2591Y2352D02*
X2627Y2352D01*
X2691Y2352D02*
X2727Y2352D01*
X2791Y2352D02*
X2827Y2352D01*
X2891Y2352D02*
X2927Y2352D01*
X2991Y2352D02*
X3027Y2352D01*
X3196Y2352D02*
X3226Y2352D01*
X3296Y2352D02*
X3326Y2352D01*
X3396Y2352D02*
X3426Y2352D01*
X3496Y2352D02*
X3526Y2352D01*
X3596Y2352D02*
X3626Y2352D01*
X3696Y2352D02*
X3726Y2352D01*
X3796Y2352D02*
X3826Y2352D01*
X3896Y2352D02*
X3926Y2352D01*
X2292Y2351D02*
X2326Y2351D01*
X2392Y2351D02*
X2426Y2351D01*
X2492Y2351D02*
X2526Y2351D01*
X2592Y2351D02*
X2626Y2351D01*
X2692Y2351D02*
X2726Y2351D01*
X2792Y2351D02*
X2826Y2351D01*
X2892Y2351D02*
X2926Y2351D01*
X2992Y2351D02*
X3026Y2351D01*
X3197Y2351D02*
X3225Y2351D01*
X3297Y2351D02*
X3325Y2351D01*
X3397Y2351D02*
X3425Y2351D01*
X3497Y2351D02*
X3525Y2351D01*
X3597Y2351D02*
X3625Y2351D01*
X3697Y2351D02*
X3725Y2351D01*
X3797Y2351D02*
X3825Y2351D01*
X3897Y2351D02*
X3925Y2351D01*
X2293Y2350D02*
X2325Y2350D01*
X2393Y2350D02*
X2425Y2350D01*
X2493Y2350D02*
X2525Y2350D01*
X2593Y2350D02*
X2625Y2350D01*
X2693Y2350D02*
X2725Y2350D01*
X2793Y2350D02*
X2825Y2350D01*
X2893Y2350D02*
X2925Y2350D01*
X2993Y2350D02*
X3025Y2350D01*
X3199Y2350D02*
X3223Y2350D01*
X3299Y2350D02*
X3323Y2350D01*
X3399Y2350D02*
X3423Y2350D01*
X3499Y2350D02*
X3523Y2350D01*
X3599Y2350D02*
X3623Y2350D01*
X3699Y2350D02*
X3723Y2350D01*
X3799Y2350D02*
X3823Y2350D01*
X3899Y2350D02*
X3923Y2350D01*
X2295Y2349D02*
X2324Y2349D01*
X2395Y2349D02*
X2424Y2349D01*
X2495Y2349D02*
X2524Y2349D01*
X2595Y2349D02*
X2624Y2349D01*
X2695Y2349D02*
X2724Y2349D01*
X2795Y2349D02*
X2824Y2349D01*
X2895Y2349D02*
X2924Y2349D01*
X2995Y2349D02*
X3024Y2349D01*
X3201Y2349D02*
X3221Y2349D01*
X3301Y2349D02*
X3321Y2349D01*
X3401Y2349D02*
X3421Y2349D01*
X3501Y2349D02*
X3521Y2349D01*
X3601Y2349D02*
X3621Y2349D01*
X3701Y2349D02*
X3721Y2349D01*
X3801Y2349D02*
X3821Y2349D01*
X3901Y2349D02*
X3921Y2349D01*
X2296Y2348D02*
X2322Y2348D01*
X2396Y2348D02*
X2422Y2348D01*
X2496Y2348D02*
X2522Y2348D01*
X2596Y2348D02*
X2622Y2348D01*
X2696Y2348D02*
X2722Y2348D01*
X2796Y2348D02*
X2822Y2348D01*
X2896Y2348D02*
X2922Y2348D01*
X2996Y2348D02*
X3022Y2348D01*
X3203Y2348D02*
X3219Y2348D01*
X3303Y2348D02*
X3319Y2348D01*
X3403Y2348D02*
X3419Y2348D01*
X3503Y2348D02*
X3519Y2348D01*
X3603Y2348D02*
X3619Y2348D01*
X3703Y2348D02*
X3719Y2348D01*
X3803Y2348D02*
X3819Y2348D01*
X3903Y2348D02*
X3919Y2348D01*
X2298Y2347D02*
X2321Y2347D01*
X2398Y2347D02*
X2421Y2347D01*
X2498Y2347D02*
X2521Y2347D01*
X2598Y2347D02*
X2621Y2347D01*
X2698Y2347D02*
X2721Y2347D01*
X2798Y2347D02*
X2821Y2347D01*
X2898Y2347D02*
X2921Y2347D01*
X2998Y2347D02*
X3020Y2347D01*
X3207Y2347D02*
X3215Y2347D01*
X3307Y2347D02*
X3315Y2347D01*
X3407Y2347D02*
X3415Y2347D01*
X3507Y2347D02*
X3515Y2347D01*
X3607Y2347D02*
X3615Y2347D01*
X3707Y2347D02*
X3715Y2347D01*
X3807Y2347D02*
X3815Y2347D01*
X3907Y2347D02*
X3915Y2347D01*
X2300Y2346D02*
X2318Y2346D01*
X2400Y2346D02*
X2418Y2346D01*
X2500Y2346D02*
X2518Y2346D01*
X2600Y2346D02*
X2618Y2346D01*
X2700Y2346D02*
X2718Y2346D01*
X2800Y2346D02*
X2818Y2346D01*
X2900Y2346D02*
X2918Y2346D01*
X3000Y2346D02*
X3018Y2346D01*
X2303Y2345D02*
X2315Y2345D01*
X2403Y2345D02*
X2415Y2345D01*
X2503Y2345D02*
X2515Y2345D01*
X2603Y2345D02*
X2615Y2345D01*
X2703Y2345D02*
X2715Y2345D01*
X2803Y2345D02*
X2815Y2345D01*
X2903Y2345D02*
X2915Y2345D01*
X3003Y2345D02*
X3015Y2345D01*
X3206Y2150D02*
X3216Y2150D01*
X3306Y2150D02*
X3316Y2150D01*
X3406Y2150D02*
X3416Y2150D01*
X3506Y2150D02*
X3516Y2150D01*
X3606Y2150D02*
X3616Y2150D01*
X3706Y2150D02*
X3716Y2150D01*
X3806Y2150D02*
X3816Y2150D01*
X3906Y2150D02*
X3916Y2150D01*
X3202Y2149D02*
X3220Y2149D01*
X3302Y2149D02*
X3320Y2149D01*
X3402Y2149D02*
X3420Y2149D01*
X3502Y2149D02*
X3520Y2149D01*
X3602Y2149D02*
X3620Y2149D01*
X3702Y2149D02*
X3720Y2149D01*
X3802Y2149D02*
X3820Y2149D01*
X3902Y2149D02*
X3919Y2149D01*
X2307Y2148D02*
X2312Y2148D01*
X2407Y2148D02*
X2412Y2148D01*
X2507Y2148D02*
X2512Y2148D01*
X2607Y2148D02*
X2612Y2148D01*
X2707Y2148D02*
X2712Y2148D01*
X2807Y2148D02*
X2812Y2148D01*
X2907Y2148D02*
X2912Y2148D01*
X3007Y2148D02*
X3012Y2148D01*
X3200Y2148D02*
X3222Y2148D01*
X3300Y2148D02*
X3322Y2148D01*
X3400Y2148D02*
X3422Y2148D01*
X3500Y2148D02*
X3522Y2148D01*
X3600Y2148D02*
X3622Y2148D01*
X3700Y2148D02*
X3722Y2148D01*
X3800Y2148D02*
X3822Y2148D01*
X3900Y2148D02*
X3922Y2148D01*
X2302Y2147D02*
X2316Y2147D01*
X2402Y2147D02*
X2416Y2147D01*
X2502Y2147D02*
X2516Y2147D01*
X2602Y2147D02*
X2616Y2147D01*
X2702Y2147D02*
X2716Y2147D01*
X2802Y2147D02*
X2816Y2147D01*
X2902Y2147D02*
X2916Y2147D01*
X3002Y2147D02*
X3016Y2147D01*
X3198Y2147D02*
X3224Y2147D01*
X3298Y2147D02*
X3324Y2147D01*
X3398Y2147D02*
X3424Y2147D01*
X3498Y2147D02*
X3524Y2147D01*
X3598Y2147D02*
X3624Y2147D01*
X3698Y2147D02*
X3724Y2147D01*
X3798Y2147D02*
X3824Y2147D01*
X3898Y2147D02*
X3924Y2147D01*
X2299Y2146D02*
X2319Y2146D01*
X2399Y2146D02*
X2419Y2146D01*
X2499Y2146D02*
X2519Y2146D01*
X2599Y2146D02*
X2619Y2146D01*
X2699Y2146D02*
X2719Y2146D01*
X2799Y2146D02*
X2819Y2146D01*
X2899Y2146D02*
X2919Y2146D01*
X2999Y2146D02*
X3019Y2146D01*
X3197Y2146D02*
X3225Y2146D01*
X3297Y2146D02*
X3325Y2146D01*
X3397Y2146D02*
X3425Y2146D01*
X3497Y2146D02*
X3525Y2146D01*
X3597Y2146D02*
X3625Y2146D01*
X3697Y2146D02*
X3725Y2146D01*
X3797Y2146D02*
X3825Y2146D01*
X3897Y2146D02*
X3925Y2146D01*
X2297Y2145D02*
X2321Y2145D01*
X2397Y2145D02*
X2421Y2145D01*
X2497Y2145D02*
X2521Y2145D01*
X2597Y2145D02*
X2621Y2145D01*
X2697Y2145D02*
X2721Y2145D01*
X2797Y2145D02*
X2821Y2145D01*
X2897Y2145D02*
X2921Y2145D01*
X2997Y2145D02*
X3021Y2145D01*
X3195Y2145D02*
X3227Y2145D01*
X3295Y2145D02*
X3327Y2145D01*
X3395Y2145D02*
X3427Y2145D01*
X3495Y2145D02*
X3527Y2145D01*
X3595Y2145D02*
X3627Y2145D01*
X3695Y2145D02*
X3727Y2145D01*
X3795Y2145D02*
X3827Y2145D01*
X3895Y2145D02*
X3927Y2145D01*
X2296Y2144D02*
X2323Y2144D01*
X2396Y2144D02*
X2423Y2144D01*
X2496Y2144D02*
X2523Y2144D01*
X2596Y2144D02*
X2623Y2144D01*
X2696Y2144D02*
X2723Y2144D01*
X2796Y2144D02*
X2823Y2144D01*
X2896Y2144D02*
X2923Y2144D01*
X2996Y2144D02*
X3023Y2144D01*
X3194Y2144D02*
X3228Y2144D01*
X3294Y2144D02*
X3328Y2144D01*
X3394Y2144D02*
X3428Y2144D01*
X3494Y2144D02*
X3528Y2144D01*
X3594Y2144D02*
X3628Y2144D01*
X3694Y2144D02*
X3728Y2144D01*
X3794Y2144D02*
X3828Y2144D01*
X3894Y2144D02*
X3928Y2144D01*
X2294Y2143D02*
X2324Y2143D01*
X2394Y2143D02*
X2424Y2143D01*
X2494Y2143D02*
X2524Y2143D01*
X2594Y2143D02*
X2624Y2143D01*
X2694Y2143D02*
X2724Y2143D01*
X2794Y2143D02*
X2824Y2143D01*
X2894Y2143D02*
X2924Y2143D01*
X2994Y2143D02*
X3024Y2143D01*
X3193Y2143D02*
X3229Y2143D01*
X3293Y2143D02*
X3329Y2143D01*
X3393Y2143D02*
X3429Y2143D01*
X3493Y2143D02*
X3529Y2143D01*
X3593Y2143D02*
X3629Y2143D01*
X3693Y2143D02*
X3729Y2143D01*
X3793Y2143D02*
X3829Y2143D01*
X3893Y2143D02*
X3929Y2143D01*
X2293Y2142D02*
X2326Y2142D01*
X2393Y2142D02*
X2426Y2142D01*
X2493Y2142D02*
X2526Y2142D01*
X2593Y2142D02*
X2625Y2142D01*
X2693Y2142D02*
X2725Y2142D01*
X2793Y2142D02*
X2825Y2142D01*
X2893Y2142D02*
X2925Y2142D01*
X2993Y2142D02*
X3025Y2142D01*
X3192Y2142D02*
X3230Y2142D01*
X3292Y2142D02*
X3330Y2142D01*
X3392Y2142D02*
X3430Y2142D01*
X3492Y2142D02*
X3530Y2142D01*
X3592Y2142D02*
X3630Y2142D01*
X3692Y2142D02*
X3730Y2142D01*
X3792Y2142D02*
X3830Y2142D01*
X3892Y2142D02*
X3930Y2142D01*
X2292Y2141D02*
X2327Y2141D01*
X2392Y2141D02*
X2427Y2141D01*
X2492Y2141D02*
X2527Y2141D01*
X2592Y2141D02*
X2627Y2141D01*
X2692Y2141D02*
X2727Y2141D01*
X2792Y2141D02*
X2827Y2141D01*
X2892Y2141D02*
X2927Y2141D01*
X2992Y2141D02*
X3027Y2141D01*
X3191Y2141D02*
X3231Y2141D01*
X3291Y2141D02*
X3331Y2141D01*
X3391Y2141D02*
X3431Y2141D01*
X3491Y2141D02*
X3531Y2141D01*
X3591Y2141D02*
X3631Y2141D01*
X3691Y2141D02*
X3731Y2141D01*
X3791Y2141D02*
X3831Y2141D01*
X3891Y2141D02*
X3931Y2141D01*
X2291Y2140D02*
X2328Y2140D01*
X2391Y2140D02*
X2428Y2140D01*
X2491Y2140D02*
X2528Y2140D01*
X2591Y2140D02*
X2628Y2140D01*
X2691Y2140D02*
X2728Y2140D01*
X2791Y2140D02*
X2828Y2140D01*
X2891Y2140D02*
X2928Y2140D01*
X2991Y2140D02*
X3028Y2140D01*
X3190Y2140D02*
X3231Y2140D01*
X3290Y2140D02*
X3331Y2140D01*
X3390Y2140D02*
X3431Y2140D01*
X3490Y2140D02*
X3531Y2140D01*
X3590Y2140D02*
X3631Y2140D01*
X3690Y2140D02*
X3731Y2140D01*
X3790Y2140D02*
X3831Y2140D01*
X3890Y2140D02*
X3931Y2140D01*
X2290Y2139D02*
X2329Y2139D01*
X2390Y2139D02*
X2429Y2139D01*
X2490Y2139D02*
X2529Y2139D01*
X2590Y2139D02*
X2628Y2139D01*
X2690Y2139D02*
X2728Y2139D01*
X2790Y2139D02*
X2828Y2139D01*
X2890Y2139D02*
X2928Y2139D01*
X2990Y2139D02*
X3028Y2139D01*
X3190Y2139D02*
X3232Y2139D01*
X3290Y2139D02*
X3332Y2139D01*
X3390Y2139D02*
X3432Y2139D01*
X3490Y2139D02*
X3532Y2139D01*
X3590Y2139D02*
X3632Y2139D01*
X3690Y2139D02*
X3732Y2139D01*
X3790Y2139D02*
X3832Y2139D01*
X3890Y2139D02*
X3932Y2139D01*
X2289Y2138D02*
X2329Y2138D01*
X2389Y2138D02*
X2429Y2138D01*
X2489Y2138D02*
X2529Y2138D01*
X2589Y2138D02*
X2629Y2138D01*
X2689Y2138D02*
X2729Y2138D01*
X2789Y2138D02*
X2829Y2138D01*
X2889Y2138D02*
X2929Y2138D01*
X2989Y2138D02*
X3029Y2138D01*
X3189Y2138D02*
X3233Y2138D01*
X3289Y2138D02*
X3333Y2138D01*
X3389Y2138D02*
X3433Y2138D01*
X3489Y2138D02*
X3533Y2138D01*
X3589Y2138D02*
X3633Y2138D01*
X3689Y2138D02*
X3733Y2138D01*
X3789Y2138D02*
X3833Y2138D01*
X3889Y2138D02*
X3933Y2138D01*
X2288Y2137D02*
X2330Y2137D01*
X2388Y2137D02*
X2430Y2137D01*
X2488Y2137D02*
X2530Y2137D01*
X2588Y2137D02*
X2630Y2137D01*
X2688Y2137D02*
X2730Y2137D01*
X2788Y2137D02*
X2830Y2137D01*
X2888Y2137D02*
X2930Y2137D01*
X2988Y2137D02*
X3030Y2137D01*
X3189Y2137D02*
X3233Y2137D01*
X3289Y2137D02*
X3333Y2137D01*
X3389Y2137D02*
X3433Y2137D01*
X3489Y2137D02*
X3533Y2137D01*
X3589Y2137D02*
X3633Y2137D01*
X3689Y2137D02*
X3733Y2137D01*
X3789Y2137D02*
X3833Y2137D01*
X3889Y2137D02*
X3933Y2137D01*
X2288Y2136D02*
X2331Y2136D01*
X2388Y2136D02*
X2431Y2136D01*
X2488Y2136D02*
X2531Y2136D01*
X2588Y2136D02*
X2631Y2136D01*
X2688Y2136D02*
X2731Y2136D01*
X2788Y2136D02*
X2831Y2136D01*
X2888Y2136D02*
X2931Y2136D01*
X2988Y2136D02*
X3031Y2136D01*
X3188Y2136D02*
X3234Y2136D01*
X3288Y2136D02*
X3334Y2136D01*
X3388Y2136D02*
X3434Y2136D01*
X3488Y2136D02*
X3534Y2136D01*
X3588Y2136D02*
X3634Y2136D01*
X3688Y2136D02*
X3734Y2136D01*
X3788Y2136D02*
X3834Y2136D01*
X3888Y2136D02*
X3934Y2136D01*
X2287Y2135D02*
X2331Y2135D01*
X2387Y2135D02*
X2431Y2135D01*
X2487Y2135D02*
X2531Y2135D01*
X2587Y2135D02*
X2631Y2135D01*
X2687Y2135D02*
X2731Y2135D01*
X2787Y2135D02*
X2831Y2135D01*
X2887Y2135D02*
X2931Y2135D01*
X2987Y2135D02*
X3031Y2135D01*
X3188Y2135D02*
X3234Y2135D01*
X3288Y2135D02*
X3334Y2135D01*
X3388Y2135D02*
X3434Y2135D01*
X3488Y2135D02*
X3534Y2135D01*
X3588Y2135D02*
X3634Y2135D01*
X3688Y2135D02*
X3734Y2135D01*
X3788Y2135D02*
X3834Y2135D01*
X3888Y2135D02*
X3934Y2135D01*
X2287Y2134D02*
X2332Y2134D01*
X2387Y2134D02*
X2432Y2134D01*
X2487Y2134D02*
X2532Y2134D01*
X2587Y2134D02*
X2632Y2134D01*
X2687Y2134D02*
X2732Y2134D01*
X2787Y2134D02*
X2832Y2134D01*
X2887Y2134D02*
X2932Y2134D01*
X2987Y2134D02*
X3032Y2134D01*
X3187Y2134D02*
X3235Y2134D01*
X3287Y2134D02*
X3335Y2134D01*
X3387Y2134D02*
X3435Y2134D01*
X3487Y2134D02*
X3535Y2134D01*
X3587Y2134D02*
X3635Y2134D01*
X3687Y2134D02*
X3735Y2134D01*
X3787Y2134D02*
X3835Y2134D01*
X3887Y2134D02*
X3935Y2134D01*
X2286Y2133D02*
X2332Y2133D01*
X2386Y2133D02*
X2432Y2133D01*
X2486Y2133D02*
X2532Y2133D01*
X2586Y2133D02*
X2632Y2133D01*
X2686Y2133D02*
X2732Y2133D01*
X2786Y2133D02*
X2832Y2133D01*
X2886Y2133D02*
X2932Y2133D01*
X2986Y2133D02*
X3032Y2133D01*
X3187Y2133D02*
X3235Y2133D01*
X3287Y2133D02*
X3335Y2133D01*
X3387Y2133D02*
X3435Y2133D01*
X3487Y2133D02*
X3535Y2133D01*
X3587Y2133D02*
X3635Y2133D01*
X3687Y2133D02*
X3735Y2133D01*
X3787Y2133D02*
X3835Y2133D01*
X3887Y2133D02*
X3935Y2133D01*
X2286Y2132D02*
X2333Y2132D01*
X2386Y2132D02*
X2433Y2132D01*
X2486Y2132D02*
X2533Y2132D01*
X2586Y2132D02*
X2633Y2132D01*
X2686Y2132D02*
X2733Y2132D01*
X2786Y2132D02*
X2833Y2132D01*
X2886Y2132D02*
X2933Y2132D01*
X2986Y2132D02*
X3033Y2132D01*
X3187Y2132D02*
X3235Y2132D01*
X3287Y2132D02*
X3335Y2132D01*
X3387Y2132D02*
X3435Y2132D01*
X3486Y2132D02*
X3535Y2132D01*
X3586Y2132D02*
X3635Y2132D01*
X3686Y2132D02*
X3735Y2132D01*
X3786Y2132D02*
X3835Y2132D01*
X3886Y2132D02*
X3935Y2132D01*
X2285Y2131D02*
X2333Y2131D01*
X2385Y2131D02*
X2433Y2131D01*
X2485Y2131D02*
X2533Y2131D01*
X2585Y2131D02*
X2633Y2131D01*
X2685Y2131D02*
X2733Y2131D01*
X2785Y2131D02*
X2833Y2131D01*
X2885Y2131D02*
X2933Y2131D01*
X2985Y2131D02*
X3033Y2131D01*
X3186Y2131D02*
X3236Y2131D01*
X3286Y2131D02*
X3336Y2131D01*
X3386Y2131D02*
X3436Y2131D01*
X3486Y2131D02*
X3536Y2131D01*
X3586Y2131D02*
X3636Y2131D01*
X3686Y2131D02*
X3736Y2131D01*
X3786Y2131D02*
X3836Y2131D01*
X3886Y2131D02*
X3936Y2131D01*
X2285Y2130D02*
X2334Y2130D01*
X2385Y2130D02*
X2433Y2130D01*
X2485Y2130D02*
X2533Y2130D01*
X2585Y2130D02*
X2633Y2130D01*
X2685Y2130D02*
X2733Y2130D01*
X2785Y2130D02*
X2833Y2130D01*
X2885Y2130D02*
X2933Y2130D01*
X2985Y2130D02*
X3033Y2130D01*
X3186Y2130D02*
X3236Y2130D01*
X3286Y2130D02*
X3336Y2130D01*
X3386Y2130D02*
X3436Y2130D01*
X3486Y2130D02*
X3536Y2130D01*
X3586Y2130D02*
X3636Y2130D01*
X3686Y2130D02*
X3736Y2130D01*
X3786Y2130D02*
X3836Y2130D01*
X3886Y2130D02*
X3936Y2130D01*
X2285Y2129D02*
X2334Y2129D01*
X2385Y2129D02*
X2434Y2129D01*
X2485Y2129D02*
X2534Y2129D01*
X2585Y2129D02*
X2634Y2129D01*
X2685Y2129D02*
X2734Y2129D01*
X2785Y2129D02*
X2834Y2129D01*
X2885Y2129D02*
X2934Y2129D01*
X2985Y2129D02*
X3034Y2129D01*
X3186Y2129D02*
X3236Y2129D01*
X3286Y2129D02*
X3336Y2129D01*
X3386Y2129D02*
X3436Y2129D01*
X3486Y2129D02*
X3536Y2129D01*
X3586Y2129D02*
X3636Y2129D01*
X3686Y2129D02*
X3736Y2129D01*
X3786Y2129D02*
X3836Y2129D01*
X3886Y2129D02*
X3936Y2129D01*
X2284Y2128D02*
X2334Y2128D01*
X2384Y2128D02*
X2434Y2128D01*
X2484Y2128D02*
X2534Y2128D01*
X2584Y2128D02*
X2634Y2128D01*
X2684Y2128D02*
X2734Y2128D01*
X2784Y2128D02*
X2834Y2128D01*
X2884Y2128D02*
X2934Y2128D01*
X2984Y2128D02*
X3034Y2128D01*
X3186Y2128D02*
X3236Y2128D01*
X3286Y2128D02*
X3336Y2128D01*
X3386Y2128D02*
X3436Y2128D01*
X3486Y2128D02*
X3536Y2128D01*
X3586Y2128D02*
X3636Y2128D01*
X3686Y2128D02*
X3736Y2128D01*
X3786Y2128D02*
X3836Y2128D01*
X3886Y2128D02*
X3936Y2128D01*
X2284Y2127D02*
X2334Y2127D01*
X2384Y2127D02*
X2434Y2127D01*
X2484Y2127D02*
X2534Y2127D01*
X2584Y2127D02*
X2634Y2127D01*
X2684Y2127D02*
X2734Y2127D01*
X2784Y2127D02*
X2834Y2127D01*
X2884Y2127D02*
X2934Y2127D01*
X2984Y2127D02*
X3034Y2127D01*
X3186Y2127D02*
X3236Y2127D01*
X3286Y2127D02*
X3336Y2127D01*
X3386Y2127D02*
X3436Y2127D01*
X3486Y2127D02*
X3536Y2127D01*
X3586Y2127D02*
X3636Y2127D01*
X3686Y2127D02*
X3736Y2127D01*
X3786Y2127D02*
X3836Y2127D01*
X3886Y2127D02*
X3936Y2127D01*
X2284Y2126D02*
X2334Y2126D01*
X2384Y2126D02*
X2434Y2126D01*
X2484Y2126D02*
X2534Y2126D01*
X2584Y2126D02*
X2634Y2126D01*
X2684Y2126D02*
X2734Y2126D01*
X2784Y2126D02*
X2834Y2126D01*
X2884Y2126D02*
X2934Y2126D01*
X2984Y2126D02*
X3034Y2126D01*
X3185Y2126D02*
X3236Y2126D01*
X3285Y2126D02*
X3336Y2126D01*
X3385Y2126D02*
X3436Y2126D01*
X3485Y2126D02*
X3536Y2126D01*
X3585Y2126D02*
X3636Y2126D01*
X3685Y2126D02*
X3736Y2126D01*
X3785Y2126D02*
X3836Y2126D01*
X3885Y2126D02*
X3936Y2126D01*
X2284Y2125D02*
X2335Y2125D01*
X2384Y2125D02*
X2435Y2125D01*
X2484Y2125D02*
X2535Y2125D01*
X2584Y2125D02*
X2635Y2125D01*
X2684Y2125D02*
X2735Y2125D01*
X2784Y2125D02*
X2835Y2125D01*
X2884Y2125D02*
X2935Y2125D01*
X2984Y2125D02*
X3034Y2125D01*
X3185Y2125D02*
X3236Y2125D01*
X3285Y2125D02*
X3336Y2125D01*
X3385Y2125D02*
X3436Y2125D01*
X3485Y2125D02*
X3536Y2125D01*
X3585Y2125D02*
X3636Y2125D01*
X3685Y2125D02*
X3736Y2125D01*
X3785Y2125D02*
X3836Y2125D01*
X3885Y2125D02*
X3936Y2125D01*
X2284Y2124D02*
X2335Y2124D01*
X2384Y2124D02*
X2435Y2124D01*
X2484Y2124D02*
X2535Y2124D01*
X2584Y2124D02*
X2635Y2124D01*
X2684Y2124D02*
X2735Y2124D01*
X2784Y2124D02*
X2835Y2124D01*
X2884Y2124D02*
X2935Y2124D01*
X2984Y2124D02*
X3035Y2124D01*
X3185Y2124D02*
X3236Y2124D01*
X3285Y2124D02*
X3336Y2124D01*
X3385Y2124D02*
X3436Y2124D01*
X3485Y2124D02*
X3536Y2124D01*
X3585Y2124D02*
X3636Y2124D01*
X3685Y2124D02*
X3736Y2124D01*
X3785Y2124D02*
X3836Y2124D01*
X3885Y2124D02*
X3936Y2124D01*
X2284Y2123D02*
X2335Y2123D01*
X2384Y2123D02*
X2435Y2123D01*
X2484Y2123D02*
X2535Y2123D01*
X2584Y2123D02*
X2635Y2123D01*
X2684Y2123D02*
X2735Y2123D01*
X2784Y2123D02*
X2835Y2123D01*
X2884Y2123D02*
X2935Y2123D01*
X2984Y2123D02*
X3035Y2123D01*
X3185Y2123D02*
X3236Y2123D01*
X3285Y2123D02*
X3336Y2123D01*
X3385Y2123D02*
X3436Y2123D01*
X3485Y2123D02*
X3536Y2123D01*
X3585Y2123D02*
X3636Y2123D01*
X3685Y2123D02*
X3736Y2123D01*
X3785Y2123D02*
X3836Y2123D01*
X3885Y2123D02*
X3936Y2123D01*
X2284Y2122D02*
X2335Y2122D01*
X2384Y2122D02*
X2435Y2122D01*
X2484Y2122D02*
X2535Y2122D01*
X2584Y2122D02*
X2635Y2122D01*
X2684Y2122D02*
X2735Y2122D01*
X2784Y2122D02*
X2835Y2122D01*
X2884Y2122D02*
X2935Y2122D01*
X2984Y2122D02*
X3035Y2122D01*
X3185Y2122D02*
X3236Y2122D01*
X3285Y2122D02*
X3336Y2122D01*
X3385Y2122D02*
X3436Y2122D01*
X3485Y2122D02*
X3536Y2122D01*
X3585Y2122D02*
X3636Y2122D01*
X3685Y2122D02*
X3736Y2122D01*
X3785Y2122D02*
X3836Y2122D01*
X3885Y2122D02*
X3936Y2122D01*
X2284Y2121D02*
X2335Y2121D01*
X2384Y2121D02*
X2435Y2121D01*
X2484Y2121D02*
X2535Y2121D01*
X2584Y2121D02*
X2635Y2121D01*
X2684Y2121D02*
X2735Y2121D01*
X2784Y2121D02*
X2835Y2121D01*
X2884Y2121D02*
X2935Y2121D01*
X2984Y2121D02*
X3035Y2121D01*
X3185Y2121D02*
X3236Y2121D01*
X3285Y2121D02*
X3336Y2121D01*
X3385Y2121D02*
X3436Y2121D01*
X3485Y2121D02*
X3536Y2121D01*
X3585Y2121D02*
X3636Y2121D01*
X3685Y2121D02*
X3736Y2121D01*
X3785Y2121D02*
X3836Y2121D01*
X3885Y2121D02*
X3936Y2121D01*
X2284Y2120D02*
X2335Y2120D01*
X2384Y2120D02*
X2435Y2120D01*
X2484Y2120D02*
X2535Y2120D01*
X2584Y2120D02*
X2635Y2120D01*
X2684Y2120D02*
X2735Y2120D01*
X2784Y2120D02*
X2835Y2120D01*
X2884Y2120D02*
X2935Y2120D01*
X2984Y2120D02*
X3035Y2120D01*
X3185Y2120D02*
X3236Y2120D01*
X3285Y2120D02*
X3336Y2120D01*
X3385Y2120D02*
X3436Y2120D01*
X3485Y2120D02*
X3536Y2120D01*
X3585Y2120D02*
X3636Y2120D01*
X3685Y2120D02*
X3736Y2120D01*
X3785Y2120D02*
X3836Y2120D01*
X3885Y2120D02*
X3936Y2120D01*
X2284Y2119D02*
X2335Y2119D01*
X2384Y2119D02*
X2435Y2119D01*
X2484Y2119D02*
X2535Y2119D01*
X2584Y2119D02*
X2635Y2119D01*
X2684Y2119D02*
X2735Y2119D01*
X2784Y2119D02*
X2835Y2119D01*
X2884Y2119D02*
X2935Y2119D01*
X2984Y2119D02*
X3035Y2119D01*
X3185Y2119D02*
X3236Y2119D01*
X3285Y2119D02*
X3336Y2119D01*
X3385Y2119D02*
X3436Y2119D01*
X3485Y2119D02*
X3536Y2119D01*
X3585Y2119D02*
X3636Y2119D01*
X3685Y2119D02*
X3736Y2119D01*
X3785Y2119D02*
X3836Y2119D01*
X3885Y2119D02*
X3936Y2119D01*
X2284Y2118D02*
X2335Y2118D01*
X2384Y2118D02*
X2435Y2118D01*
X2484Y2118D02*
X2535Y2118D01*
X2584Y2118D02*
X2635Y2118D01*
X2684Y2118D02*
X2735Y2118D01*
X2784Y2118D02*
X2835Y2118D01*
X2884Y2118D02*
X2935Y2118D01*
X2984Y2118D02*
X3035Y2118D01*
X3185Y2118D02*
X3236Y2118D01*
X3285Y2118D02*
X3336Y2118D01*
X3385Y2118D02*
X3436Y2118D01*
X3485Y2118D02*
X3536Y2118D01*
X3585Y2118D02*
X3636Y2118D01*
X3685Y2118D02*
X3736Y2118D01*
X3785Y2118D02*
X3836Y2118D01*
X3885Y2118D02*
X3936Y2118D01*
X2284Y2117D02*
X2335Y2117D01*
X2384Y2117D02*
X2435Y2117D01*
X2484Y2117D02*
X2535Y2117D01*
X2584Y2117D02*
X2635Y2117D01*
X2684Y2117D02*
X2735Y2117D01*
X2784Y2117D02*
X2835Y2117D01*
X2884Y2117D02*
X2935Y2117D01*
X2984Y2117D02*
X3035Y2117D01*
X3185Y2117D02*
X3236Y2117D01*
X3285Y2117D02*
X3336Y2117D01*
X3385Y2117D02*
X3436Y2117D01*
X3485Y2117D02*
X3536Y2117D01*
X3585Y2117D02*
X3636Y2117D01*
X3685Y2117D02*
X3736Y2117D01*
X3785Y2117D02*
X3836Y2117D01*
X3885Y2117D02*
X3936Y2117D01*
X2284Y2116D02*
X2335Y2116D01*
X2384Y2116D02*
X2435Y2116D01*
X2484Y2116D02*
X2535Y2116D01*
X2584Y2116D02*
X2635Y2116D01*
X2684Y2116D02*
X2735Y2116D01*
X2784Y2116D02*
X2835Y2116D01*
X2884Y2116D02*
X2935Y2116D01*
X2984Y2116D02*
X3035Y2116D01*
X3185Y2116D02*
X3236Y2116D01*
X3285Y2116D02*
X3336Y2116D01*
X3385Y2116D02*
X3436Y2116D01*
X3485Y2116D02*
X3536Y2116D01*
X3585Y2116D02*
X3636Y2116D01*
X3685Y2116D02*
X3736Y2116D01*
X3785Y2116D02*
X3836Y2116D01*
X3885Y2116D02*
X3936Y2116D01*
X2284Y2115D02*
X2335Y2115D01*
X2384Y2115D02*
X2435Y2115D01*
X2484Y2115D02*
X2535Y2115D01*
X2584Y2115D02*
X2635Y2115D01*
X2684Y2115D02*
X2735Y2115D01*
X2784Y2115D02*
X2835Y2115D01*
X2884Y2115D02*
X2935Y2115D01*
X2984Y2115D02*
X3035Y2115D01*
X3185Y2115D02*
X3236Y2115D01*
X3285Y2115D02*
X3336Y2115D01*
X3385Y2115D02*
X3436Y2115D01*
X3485Y2115D02*
X3536Y2115D01*
X3585Y2115D02*
X3636Y2115D01*
X3685Y2115D02*
X3736Y2115D01*
X3785Y2115D02*
X3836Y2115D01*
X3885Y2115D02*
X3936Y2115D01*
X2284Y2114D02*
X2335Y2114D01*
X2384Y2114D02*
X2435Y2114D01*
X2484Y2114D02*
X2535Y2114D01*
X2584Y2114D02*
X2635Y2114D01*
X2684Y2114D02*
X2735Y2114D01*
X2784Y2114D02*
X2835Y2114D01*
X2884Y2114D02*
X2935Y2114D01*
X2984Y2114D02*
X3035Y2114D01*
X3185Y2114D02*
X3206Y2114D01*
X3216Y2114D02*
X3236Y2114D01*
X3285Y2114D02*
X3306Y2114D01*
X3316Y2114D02*
X3336Y2114D01*
X3385Y2114D02*
X3406Y2114D01*
X3416Y2114D02*
X3436Y2114D01*
X3485Y2114D02*
X3506Y2114D01*
X3516Y2114D02*
X3536Y2114D01*
X3585Y2114D02*
X3606Y2114D01*
X3616Y2114D02*
X3636Y2114D01*
X3685Y2114D02*
X3706Y2114D01*
X3716Y2114D02*
X3736Y2114D01*
X3785Y2114D02*
X3806Y2114D01*
X3816Y2114D02*
X3836Y2114D01*
X3885Y2114D02*
X3906Y2114D01*
X3916Y2114D02*
X3936Y2114D01*
X2284Y2113D02*
X2335Y2113D01*
X2384Y2113D02*
X2435Y2113D01*
X2484Y2113D02*
X2535Y2113D01*
X2584Y2113D02*
X2635Y2113D01*
X2684Y2113D02*
X2735Y2113D01*
X2784Y2113D02*
X2835Y2113D01*
X2884Y2113D02*
X2935Y2113D01*
X2984Y2113D02*
X3035Y2113D01*
X3185Y2113D02*
X3203Y2113D01*
X3218Y2113D02*
X3236Y2113D01*
X3285Y2113D02*
X3303Y2113D01*
X3318Y2113D02*
X3336Y2113D01*
X3385Y2113D02*
X3403Y2113D01*
X3418Y2113D02*
X3436Y2113D01*
X3485Y2113D02*
X3503Y2113D01*
X3518Y2113D02*
X3536Y2113D01*
X3585Y2113D02*
X3603Y2113D01*
X3618Y2113D02*
X3636Y2113D01*
X3685Y2113D02*
X3703Y2113D01*
X3718Y2113D02*
X3736Y2113D01*
X3785Y2113D02*
X3803Y2113D01*
X3818Y2113D02*
X3836Y2113D01*
X3885Y2113D02*
X3903Y2113D01*
X3918Y2113D02*
X3936Y2113D01*
X2284Y2112D02*
X2306Y2112D01*
X2312Y2112D02*
X2335Y2112D01*
X2384Y2112D02*
X2406Y2112D01*
X2412Y2112D02*
X2435Y2112D01*
X2484Y2112D02*
X2506Y2112D01*
X2512Y2112D02*
X2535Y2112D01*
X2584Y2112D02*
X2606Y2112D01*
X2612Y2112D02*
X2635Y2112D01*
X2684Y2112D02*
X2706Y2112D01*
X2712Y2112D02*
X2735Y2112D01*
X2784Y2112D02*
X2806Y2112D01*
X2812Y2112D02*
X2835Y2112D01*
X2884Y2112D02*
X2906Y2112D01*
X2912Y2112D02*
X2935Y2112D01*
X2984Y2112D02*
X3006Y2112D01*
X3012Y2112D02*
X3035Y2112D01*
X3185Y2112D02*
X3202Y2112D01*
X3220Y2112D02*
X3236Y2112D01*
X3285Y2112D02*
X3302Y2112D01*
X3320Y2112D02*
X3336Y2112D01*
X3385Y2112D02*
X3402Y2112D01*
X3420Y2112D02*
X3436Y2112D01*
X3485Y2112D02*
X3502Y2112D01*
X3520Y2112D02*
X3536Y2112D01*
X3585Y2112D02*
X3602Y2112D01*
X3620Y2112D02*
X3636Y2112D01*
X3685Y2112D02*
X3702Y2112D01*
X3720Y2112D02*
X3736Y2112D01*
X3785Y2112D02*
X3802Y2112D01*
X3820Y2112D02*
X3836Y2112D01*
X3885Y2112D02*
X3902Y2112D01*
X3920Y2112D02*
X3936Y2112D01*
X2284Y2111D02*
X2303Y2111D01*
X2316Y2111D02*
X2335Y2111D01*
X2384Y2111D02*
X2403Y2111D01*
X2416Y2111D02*
X2435Y2111D01*
X2484Y2111D02*
X2503Y2111D01*
X2516Y2111D02*
X2535Y2111D01*
X2584Y2111D02*
X2603Y2111D01*
X2616Y2111D02*
X2635Y2111D01*
X2684Y2111D02*
X2703Y2111D01*
X2716Y2111D02*
X2735Y2111D01*
X2784Y2111D02*
X2803Y2111D01*
X2816Y2111D02*
X2835Y2111D01*
X2884Y2111D02*
X2903Y2111D01*
X2916Y2111D02*
X2935Y2111D01*
X2984Y2111D02*
X3003Y2111D01*
X3016Y2111D02*
X3035Y2111D01*
X3185Y2111D02*
X3200Y2111D01*
X3222Y2111D02*
X3236Y2111D01*
X3285Y2111D02*
X3300Y2111D01*
X3322Y2111D02*
X3336Y2111D01*
X3385Y2111D02*
X3400Y2111D01*
X3422Y2111D02*
X3436Y2111D01*
X3485Y2111D02*
X3500Y2111D01*
X3522Y2111D02*
X3536Y2111D01*
X3585Y2111D02*
X3600Y2111D01*
X3622Y2111D02*
X3636Y2111D01*
X3685Y2111D02*
X3700Y2111D01*
X3722Y2111D02*
X3736Y2111D01*
X3785Y2111D02*
X3800Y2111D01*
X3822Y2111D02*
X3836Y2111D01*
X3885Y2111D02*
X3900Y2111D01*
X3922Y2111D02*
X3936Y2111D01*
X2284Y2110D02*
X2301Y2110D01*
X2318Y2110D02*
X2335Y2110D01*
X2384Y2110D02*
X2401Y2110D01*
X2418Y2110D02*
X2435Y2110D01*
X2484Y2110D02*
X2501Y2110D01*
X2518Y2110D02*
X2535Y2110D01*
X2584Y2110D02*
X2601Y2110D01*
X2618Y2110D02*
X2635Y2110D01*
X2684Y2110D02*
X2701Y2110D01*
X2718Y2110D02*
X2735Y2110D01*
X2784Y2110D02*
X2801Y2110D01*
X2818Y2110D02*
X2835Y2110D01*
X2884Y2110D02*
X2901Y2110D01*
X2918Y2110D02*
X2935Y2110D01*
X2984Y2110D02*
X3001Y2110D01*
X3018Y2110D02*
X3035Y2110D01*
X3185Y2110D02*
X3199Y2110D01*
X3223Y2110D02*
X3236Y2110D01*
X3285Y2110D02*
X3299Y2110D01*
X3323Y2110D02*
X3336Y2110D01*
X3385Y2110D02*
X3399Y2110D01*
X3423Y2110D02*
X3436Y2110D01*
X3485Y2110D02*
X3499Y2110D01*
X3523Y2110D02*
X3536Y2110D01*
X3585Y2110D02*
X3599Y2110D01*
X3623Y2110D02*
X3636Y2110D01*
X3685Y2110D02*
X3699Y2110D01*
X3723Y2110D02*
X3736Y2110D01*
X3785Y2110D02*
X3799Y2110D01*
X3823Y2110D02*
X3836Y2110D01*
X3885Y2110D02*
X3899Y2110D01*
X3923Y2110D02*
X3936Y2110D01*
X2284Y2109D02*
X2299Y2109D01*
X2319Y2109D02*
X2335Y2109D01*
X2384Y2109D02*
X2399Y2109D01*
X2419Y2109D02*
X2435Y2109D01*
X2484Y2109D02*
X2499Y2109D01*
X2519Y2109D02*
X2535Y2109D01*
X2584Y2109D02*
X2599Y2109D01*
X2619Y2109D02*
X2635Y2109D01*
X2684Y2109D02*
X2699Y2109D01*
X2719Y2109D02*
X2735Y2109D01*
X2784Y2109D02*
X2799Y2109D01*
X2819Y2109D02*
X2835Y2109D01*
X2884Y2109D02*
X2899Y2109D01*
X2919Y2109D02*
X2935Y2109D01*
X2984Y2109D02*
X2999Y2109D01*
X3019Y2109D02*
X3035Y2109D01*
X3185Y2109D02*
X3198Y2109D01*
X3224Y2109D02*
X3236Y2109D01*
X3285Y2109D02*
X3298Y2109D01*
X3324Y2109D02*
X3336Y2109D01*
X3385Y2109D02*
X3398Y2109D01*
X3424Y2109D02*
X3436Y2109D01*
X3485Y2109D02*
X3498Y2109D01*
X3524Y2109D02*
X3536Y2109D01*
X3585Y2109D02*
X3598Y2109D01*
X3624Y2109D02*
X3636Y2109D01*
X3685Y2109D02*
X3698Y2109D01*
X3724Y2109D02*
X3736Y2109D01*
X3785Y2109D02*
X3798Y2109D01*
X3824Y2109D02*
X3836Y2109D01*
X3885Y2109D02*
X3898Y2109D01*
X3924Y2109D02*
X3936Y2109D01*
X2284Y2108D02*
X2298Y2108D01*
X2320Y2108D02*
X2335Y2108D01*
X2384Y2108D02*
X2398Y2108D01*
X2420Y2108D02*
X2435Y2108D01*
X2484Y2108D02*
X2498Y2108D01*
X2520Y2108D02*
X2535Y2108D01*
X2584Y2108D02*
X2598Y2108D01*
X2620Y2108D02*
X2635Y2108D01*
X2684Y2108D02*
X2698Y2108D01*
X2720Y2108D02*
X2735Y2108D01*
X2784Y2108D02*
X2798Y2108D01*
X2820Y2108D02*
X2835Y2108D01*
X2884Y2108D02*
X2898Y2108D01*
X2920Y2108D02*
X2935Y2108D01*
X2984Y2108D02*
X2998Y2108D01*
X3020Y2108D02*
X3035Y2108D01*
X3185Y2108D02*
X3197Y2108D01*
X3224Y2108D02*
X3236Y2108D01*
X3285Y2108D02*
X3297Y2108D01*
X3324Y2108D02*
X3336Y2108D01*
X3385Y2108D02*
X3397Y2108D01*
X3424Y2108D02*
X3436Y2108D01*
X3485Y2108D02*
X3497Y2108D01*
X3524Y2108D02*
X3536Y2108D01*
X3585Y2108D02*
X3597Y2108D01*
X3624Y2108D02*
X3636Y2108D01*
X3685Y2108D02*
X3697Y2108D01*
X3724Y2108D02*
X3736Y2108D01*
X3785Y2108D02*
X3797Y2108D01*
X3824Y2108D02*
X3836Y2108D01*
X3885Y2108D02*
X3897Y2108D01*
X3924Y2108D02*
X3936Y2108D01*
X2284Y2107D02*
X2297Y2107D01*
X2321Y2107D02*
X2335Y2107D01*
X2384Y2107D02*
X2397Y2107D01*
X2421Y2107D02*
X2435Y2107D01*
X2484Y2107D02*
X2497Y2107D01*
X2521Y2107D02*
X2535Y2107D01*
X2584Y2107D02*
X2597Y2107D01*
X2621Y2107D02*
X2635Y2107D01*
X2684Y2107D02*
X2697Y2107D01*
X2721Y2107D02*
X2735Y2107D01*
X2784Y2107D02*
X2797Y2107D01*
X2821Y2107D02*
X2835Y2107D01*
X2884Y2107D02*
X2897Y2107D01*
X2921Y2107D02*
X2935Y2107D01*
X2984Y2107D02*
X2997Y2107D01*
X3021Y2107D02*
X3035Y2107D01*
X3185Y2107D02*
X3197Y2107D01*
X3225Y2107D02*
X3236Y2107D01*
X3285Y2107D02*
X3297Y2107D01*
X3325Y2107D02*
X3336Y2107D01*
X3385Y2107D02*
X3397Y2107D01*
X3425Y2107D02*
X3436Y2107D01*
X3485Y2107D02*
X3497Y2107D01*
X3525Y2107D02*
X3536Y2107D01*
X3585Y2107D02*
X3597Y2107D01*
X3625Y2107D02*
X3636Y2107D01*
X3685Y2107D02*
X3697Y2107D01*
X3725Y2107D02*
X3736Y2107D01*
X3785Y2107D02*
X3797Y2107D01*
X3825Y2107D02*
X3836Y2107D01*
X3885Y2107D02*
X3897Y2107D01*
X3925Y2107D02*
X3936Y2107D01*
X2284Y2106D02*
X2296Y2106D01*
X2322Y2106D02*
X2335Y2106D01*
X2384Y2106D02*
X2396Y2106D01*
X2422Y2106D02*
X2435Y2106D01*
X2484Y2106D02*
X2496Y2106D01*
X2522Y2106D02*
X2535Y2106D01*
X2584Y2106D02*
X2596Y2106D01*
X2622Y2106D02*
X2635Y2106D01*
X2684Y2106D02*
X2696Y2106D01*
X2722Y2106D02*
X2735Y2106D01*
X2784Y2106D02*
X2796Y2106D01*
X2822Y2106D02*
X2835Y2106D01*
X2884Y2106D02*
X2896Y2106D01*
X2922Y2106D02*
X2935Y2106D01*
X2984Y2106D02*
X2996Y2106D01*
X3022Y2106D02*
X3035Y2106D01*
X3185Y2106D02*
X3196Y2106D01*
X3226Y2106D02*
X3236Y2106D01*
X3285Y2106D02*
X3296Y2106D01*
X3326Y2106D02*
X3336Y2106D01*
X3385Y2106D02*
X3396Y2106D01*
X3426Y2106D02*
X3436Y2106D01*
X3485Y2106D02*
X3496Y2106D01*
X3526Y2106D02*
X3536Y2106D01*
X3585Y2106D02*
X3596Y2106D01*
X3626Y2106D02*
X3636Y2106D01*
X3685Y2106D02*
X3696Y2106D01*
X3726Y2106D02*
X3736Y2106D01*
X3785Y2106D02*
X3796Y2106D01*
X3826Y2106D02*
X3836Y2106D01*
X3885Y2106D02*
X3896Y2106D01*
X3926Y2106D02*
X3936Y2106D01*
X2284Y2105D02*
X2295Y2105D01*
X2323Y2105D02*
X2335Y2105D01*
X2384Y2105D02*
X2395Y2105D01*
X2423Y2105D02*
X2435Y2105D01*
X2484Y2105D02*
X2495Y2105D01*
X2523Y2105D02*
X2535Y2105D01*
X2584Y2105D02*
X2595Y2105D01*
X2623Y2105D02*
X2635Y2105D01*
X2684Y2105D02*
X2695Y2105D01*
X2723Y2105D02*
X2735Y2105D01*
X2784Y2105D02*
X2795Y2105D01*
X2823Y2105D02*
X2835Y2105D01*
X2884Y2105D02*
X2895Y2105D01*
X2923Y2105D02*
X2935Y2105D01*
X2984Y2105D02*
X2995Y2105D01*
X3023Y2105D02*
X3035Y2105D01*
X3185Y2105D02*
X3196Y2105D01*
X3226Y2105D02*
X3236Y2105D01*
X3285Y2105D02*
X3296Y2105D01*
X3326Y2105D02*
X3336Y2105D01*
X3385Y2105D02*
X3396Y2105D01*
X3426Y2105D02*
X3436Y2105D01*
X3485Y2105D02*
X3496Y2105D01*
X3526Y2105D02*
X3536Y2105D01*
X3585Y2105D02*
X3596Y2105D01*
X3626Y2105D02*
X3636Y2105D01*
X3685Y2105D02*
X3696Y2105D01*
X3726Y2105D02*
X3736Y2105D01*
X3785Y2105D02*
X3796Y2105D01*
X3826Y2105D02*
X3836Y2105D01*
X3885Y2105D02*
X3896Y2105D01*
X3926Y2105D02*
X3936Y2105D01*
X2284Y2104D02*
X2295Y2104D01*
X2324Y2104D02*
X2335Y2104D01*
X2384Y2104D02*
X2395Y2104D01*
X2424Y2104D02*
X2435Y2104D01*
X2484Y2104D02*
X2495Y2104D01*
X2524Y2104D02*
X2535Y2104D01*
X2584Y2104D02*
X2595Y2104D01*
X2624Y2104D02*
X2635Y2104D01*
X2684Y2104D02*
X2695Y2104D01*
X2724Y2104D02*
X2735Y2104D01*
X2784Y2104D02*
X2795Y2104D01*
X2824Y2104D02*
X2835Y2104D01*
X2884Y2104D02*
X2895Y2104D01*
X2924Y2104D02*
X2935Y2104D01*
X2984Y2104D02*
X2995Y2104D01*
X3024Y2104D02*
X3035Y2104D01*
X3185Y2104D02*
X3195Y2104D01*
X3227Y2104D02*
X3236Y2104D01*
X3285Y2104D02*
X3295Y2104D01*
X3327Y2104D02*
X3336Y2104D01*
X3385Y2104D02*
X3395Y2104D01*
X3427Y2104D02*
X3436Y2104D01*
X3485Y2104D02*
X3495Y2104D01*
X3527Y2104D02*
X3536Y2104D01*
X3585Y2104D02*
X3595Y2104D01*
X3627Y2104D02*
X3636Y2104D01*
X3685Y2104D02*
X3695Y2104D01*
X3726Y2104D02*
X3736Y2104D01*
X3785Y2104D02*
X3795Y2104D01*
X3826Y2104D02*
X3836Y2104D01*
X3885Y2104D02*
X3895Y2104D01*
X3926Y2104D02*
X3936Y2104D01*
X2284Y2103D02*
X2294Y2103D01*
X2324Y2103D02*
X2335Y2103D01*
X2384Y2103D02*
X2394Y2103D01*
X2424Y2103D02*
X2435Y2103D01*
X2484Y2103D02*
X2494Y2103D01*
X2524Y2103D02*
X2535Y2103D01*
X2584Y2103D02*
X2594Y2103D01*
X2624Y2103D02*
X2635Y2103D01*
X2684Y2103D02*
X2694Y2103D01*
X2724Y2103D02*
X2735Y2103D01*
X2784Y2103D02*
X2794Y2103D01*
X2824Y2103D02*
X2835Y2103D01*
X2884Y2103D02*
X2894Y2103D01*
X2924Y2103D02*
X2935Y2103D01*
X2984Y2103D02*
X2994Y2103D01*
X3024Y2103D02*
X3035Y2103D01*
X3185Y2103D02*
X3195Y2103D01*
X3227Y2103D02*
X3236Y2103D01*
X3285Y2103D02*
X3295Y2103D01*
X3327Y2103D02*
X3336Y2103D01*
X3385Y2103D02*
X3395Y2103D01*
X3427Y2103D02*
X3436Y2103D01*
X3485Y2103D02*
X3495Y2103D01*
X3527Y2103D02*
X3536Y2103D01*
X3585Y2103D02*
X3595Y2103D01*
X3627Y2103D02*
X3636Y2103D01*
X3685Y2103D02*
X3695Y2103D01*
X3727Y2103D02*
X3736Y2103D01*
X3785Y2103D02*
X3795Y2103D01*
X3827Y2103D02*
X3836Y2103D01*
X3885Y2103D02*
X3895Y2103D01*
X3927Y2103D02*
X3936Y2103D01*
X2284Y2102D02*
X2294Y2102D01*
X2325Y2102D02*
X2335Y2102D01*
X2384Y2102D02*
X2394Y2102D01*
X2425Y2102D02*
X2435Y2102D01*
X2484Y2102D02*
X2494Y2102D01*
X2525Y2102D02*
X2535Y2102D01*
X2584Y2102D02*
X2594Y2102D01*
X2625Y2102D02*
X2635Y2102D01*
X2684Y2102D02*
X2694Y2102D01*
X2725Y2102D02*
X2735Y2102D01*
X2784Y2102D02*
X2794Y2102D01*
X2825Y2102D02*
X2835Y2102D01*
X2884Y2102D02*
X2894Y2102D01*
X2925Y2102D02*
X2935Y2102D01*
X2984Y2102D02*
X2994Y2102D01*
X3025Y2102D02*
X3035Y2102D01*
X3185Y2102D02*
X3195Y2102D01*
X3227Y2102D02*
X3236Y2102D01*
X3285Y2102D02*
X3295Y2102D01*
X3327Y2102D02*
X3336Y2102D01*
X3385Y2102D02*
X3395Y2102D01*
X3427Y2102D02*
X3436Y2102D01*
X3485Y2102D02*
X3495Y2102D01*
X3527Y2102D02*
X3536Y2102D01*
X3585Y2102D02*
X3595Y2102D01*
X3627Y2102D02*
X3636Y2102D01*
X3685Y2102D02*
X3695Y2102D01*
X3727Y2102D02*
X3736Y2102D01*
X3785Y2102D02*
X3795Y2102D01*
X3827Y2102D02*
X3836Y2102D01*
X3885Y2102D02*
X3895Y2102D01*
X3927Y2102D02*
X3936Y2102D01*
X2284Y2101D02*
X2293Y2101D01*
X2325Y2101D02*
X2335Y2101D01*
X2384Y2101D02*
X2393Y2101D01*
X2425Y2101D02*
X2435Y2101D01*
X2484Y2101D02*
X2493Y2101D01*
X2525Y2101D02*
X2535Y2101D01*
X2584Y2101D02*
X2593Y2101D01*
X2625Y2101D02*
X2635Y2101D01*
X2684Y2101D02*
X2693Y2101D01*
X2725Y2101D02*
X2735Y2101D01*
X2784Y2101D02*
X2793Y2101D01*
X2825Y2101D02*
X2835Y2101D01*
X2884Y2101D02*
X2893Y2101D01*
X2925Y2101D02*
X2935Y2101D01*
X2984Y2101D02*
X2993Y2101D01*
X3025Y2101D02*
X3035Y2101D01*
X3185Y2101D02*
X3195Y2101D01*
X3227Y2101D02*
X3236Y2101D01*
X3285Y2101D02*
X3295Y2101D01*
X3327Y2101D02*
X3336Y2101D01*
X3385Y2101D02*
X3395Y2101D01*
X3427Y2101D02*
X3436Y2101D01*
X3485Y2101D02*
X3495Y2101D01*
X3527Y2101D02*
X3536Y2101D01*
X3585Y2101D02*
X3595Y2101D01*
X3627Y2101D02*
X3636Y2101D01*
X3685Y2101D02*
X3695Y2101D01*
X3727Y2101D02*
X3736Y2101D01*
X3785Y2101D02*
X3795Y2101D01*
X3827Y2101D02*
X3836Y2101D01*
X3885Y2101D02*
X3895Y2101D01*
X3927Y2101D02*
X3936Y2101D01*
X2284Y2100D02*
X2293Y2100D01*
X2325Y2100D02*
X2335Y2100D01*
X2384Y2100D02*
X2393Y2100D01*
X2425Y2100D02*
X2435Y2100D01*
X2484Y2100D02*
X2493Y2100D01*
X2525Y2100D02*
X2535Y2100D01*
X2584Y2100D02*
X2593Y2100D01*
X2625Y2100D02*
X2635Y2100D01*
X2684Y2100D02*
X2693Y2100D01*
X2725Y2100D02*
X2735Y2100D01*
X2784Y2100D02*
X2793Y2100D01*
X2825Y2100D02*
X2835Y2100D01*
X2884Y2100D02*
X2893Y2100D01*
X2925Y2100D02*
X2935Y2100D01*
X2984Y2100D02*
X2993Y2100D01*
X3025Y2100D02*
X3035Y2100D01*
X3185Y2100D02*
X3195Y2100D01*
X3227Y2100D02*
X3236Y2100D01*
X3285Y2100D02*
X3295Y2100D01*
X3327Y2100D02*
X3336Y2100D01*
X3385Y2100D02*
X3395Y2100D01*
X3427Y2100D02*
X3436Y2100D01*
X3485Y2100D02*
X3494Y2100D01*
X3527Y2100D02*
X3536Y2100D01*
X3585Y2100D02*
X3594Y2100D01*
X3627Y2100D02*
X3636Y2100D01*
X3685Y2100D02*
X3694Y2100D01*
X3727Y2100D02*
X3736Y2100D01*
X3785Y2100D02*
X3794Y2100D01*
X3827Y2100D02*
X3836Y2100D01*
X3885Y2100D02*
X3894Y2100D01*
X3927Y2100D02*
X3936Y2100D01*
X2284Y2099D02*
X2293Y2099D01*
X2325Y2099D02*
X2335Y2099D01*
X2384Y2099D02*
X2393Y2099D01*
X2425Y2099D02*
X2435Y2099D01*
X2484Y2099D02*
X2493Y2099D01*
X2525Y2099D02*
X2535Y2099D01*
X2584Y2099D02*
X2593Y2099D01*
X2625Y2099D02*
X2635Y2099D01*
X2684Y2099D02*
X2693Y2099D01*
X2725Y2099D02*
X2735Y2099D01*
X2784Y2099D02*
X2793Y2099D01*
X2825Y2099D02*
X2835Y2099D01*
X2884Y2099D02*
X2893Y2099D01*
X2925Y2099D02*
X2935Y2099D01*
X2984Y2099D02*
X2993Y2099D01*
X3025Y2099D02*
X3035Y2099D01*
X3185Y2099D02*
X3194Y2099D01*
X3227Y2099D02*
X3236Y2099D01*
X3285Y2099D02*
X3294Y2099D01*
X3327Y2099D02*
X3336Y2099D01*
X3385Y2099D02*
X3394Y2099D01*
X3427Y2099D02*
X3436Y2099D01*
X3485Y2099D02*
X3494Y2099D01*
X3527Y2099D02*
X3536Y2099D01*
X3585Y2099D02*
X3594Y2099D01*
X3627Y2099D02*
X3636Y2099D01*
X3685Y2099D02*
X3694Y2099D01*
X3727Y2099D02*
X3736Y2099D01*
X3785Y2099D02*
X3794Y2099D01*
X3827Y2099D02*
X3836Y2099D01*
X3885Y2099D02*
X3894Y2099D01*
X3927Y2099D02*
X3936Y2099D01*
X2284Y2098D02*
X2293Y2098D01*
X2326Y2098D02*
X2335Y2098D01*
X2384Y2098D02*
X2393Y2098D01*
X2426Y2098D02*
X2435Y2098D01*
X2484Y2098D02*
X2493Y2098D01*
X2526Y2098D02*
X2535Y2098D01*
X2584Y2098D02*
X2593Y2098D01*
X2626Y2098D02*
X2635Y2098D01*
X2684Y2098D02*
X2693Y2098D01*
X2726Y2098D02*
X2735Y2098D01*
X2784Y2098D02*
X2793Y2098D01*
X2826Y2098D02*
X2835Y2098D01*
X2884Y2098D02*
X2893Y2098D01*
X2926Y2098D02*
X2935Y2098D01*
X2984Y2098D02*
X2993Y2098D01*
X3026Y2098D02*
X3035Y2098D01*
X3185Y2098D02*
X3194Y2098D01*
X3227Y2098D02*
X3236Y2098D01*
X3285Y2098D02*
X3294Y2098D01*
X3327Y2098D02*
X3336Y2098D01*
X3385Y2098D02*
X3394Y2098D01*
X3427Y2098D02*
X3436Y2098D01*
X3485Y2098D02*
X3494Y2098D01*
X3527Y2098D02*
X3536Y2098D01*
X3585Y2098D02*
X3594Y2098D01*
X3627Y2098D02*
X3636Y2098D01*
X3685Y2098D02*
X3694Y2098D01*
X3727Y2098D02*
X3736Y2098D01*
X3785Y2098D02*
X3794Y2098D01*
X3827Y2098D02*
X3836Y2098D01*
X3885Y2098D02*
X3894Y2098D01*
X3927Y2098D02*
X3936Y2098D01*
X2284Y2097D02*
X2293Y2097D01*
X2326Y2097D02*
X2335Y2097D01*
X2384Y2097D02*
X2393Y2097D01*
X2426Y2097D02*
X2435Y2097D01*
X2484Y2097D02*
X2493Y2097D01*
X2526Y2097D02*
X2535Y2097D01*
X2584Y2097D02*
X2593Y2097D01*
X2626Y2097D02*
X2635Y2097D01*
X2684Y2097D02*
X2693Y2097D01*
X2726Y2097D02*
X2735Y2097D01*
X2784Y2097D02*
X2793Y2097D01*
X2826Y2097D02*
X2835Y2097D01*
X2884Y2097D02*
X2893Y2097D01*
X2926Y2097D02*
X2935Y2097D01*
X2984Y2097D02*
X2993Y2097D01*
X3026Y2097D02*
X3035Y2097D01*
X3185Y2097D02*
X3195Y2097D01*
X3227Y2097D02*
X3236Y2097D01*
X3285Y2097D02*
X3295Y2097D01*
X3327Y2097D02*
X3336Y2097D01*
X3385Y2097D02*
X3395Y2097D01*
X3427Y2097D02*
X3436Y2097D01*
X3485Y2097D02*
X3495Y2097D01*
X3527Y2097D02*
X3536Y2097D01*
X3585Y2097D02*
X3595Y2097D01*
X3627Y2097D02*
X3636Y2097D01*
X3685Y2097D02*
X3695Y2097D01*
X3727Y2097D02*
X3736Y2097D01*
X3785Y2097D02*
X3795Y2097D01*
X3827Y2097D02*
X3836Y2097D01*
X3885Y2097D02*
X3894Y2097D01*
X3927Y2097D02*
X3936Y2097D01*
X2284Y2096D02*
X2293Y2096D01*
X2326Y2096D02*
X2335Y2096D01*
X2384Y2096D02*
X2393Y2096D01*
X2426Y2096D02*
X2435Y2096D01*
X2484Y2096D02*
X2493Y2096D01*
X2526Y2096D02*
X2535Y2096D01*
X2584Y2096D02*
X2593Y2096D01*
X2626Y2096D02*
X2635Y2096D01*
X2684Y2096D02*
X2693Y2096D01*
X2726Y2096D02*
X2735Y2096D01*
X2784Y2096D02*
X2793Y2096D01*
X2826Y2096D02*
X2835Y2096D01*
X2884Y2096D02*
X2893Y2096D01*
X2926Y2096D02*
X2935Y2096D01*
X2984Y2096D02*
X2993Y2096D01*
X3026Y2096D02*
X3035Y2096D01*
X3185Y2096D02*
X3195Y2096D01*
X3227Y2096D02*
X3236Y2096D01*
X3285Y2096D02*
X3295Y2096D01*
X3327Y2096D02*
X3336Y2096D01*
X3385Y2096D02*
X3395Y2096D01*
X3427Y2096D02*
X3436Y2096D01*
X3485Y2096D02*
X3495Y2096D01*
X3527Y2096D02*
X3536Y2096D01*
X3585Y2096D02*
X3595Y2096D01*
X3627Y2096D02*
X3636Y2096D01*
X3685Y2096D02*
X3695Y2096D01*
X3727Y2096D02*
X3736Y2096D01*
X3785Y2096D02*
X3795Y2096D01*
X3827Y2096D02*
X3836Y2096D01*
X3885Y2096D02*
X3895Y2096D01*
X3927Y2096D02*
X3936Y2096D01*
X2284Y2095D02*
X2293Y2095D01*
X2326Y2095D02*
X2335Y2095D01*
X2384Y2095D02*
X2393Y2095D01*
X2426Y2095D02*
X2435Y2095D01*
X2484Y2095D02*
X2493Y2095D01*
X2526Y2095D02*
X2535Y2095D01*
X2584Y2095D02*
X2593Y2095D01*
X2626Y2095D02*
X2635Y2095D01*
X2684Y2095D02*
X2693Y2095D01*
X2726Y2095D02*
X2735Y2095D01*
X2784Y2095D02*
X2793Y2095D01*
X2826Y2095D02*
X2835Y2095D01*
X2884Y2095D02*
X2893Y2095D01*
X2926Y2095D02*
X2935Y2095D01*
X2984Y2095D02*
X2993Y2095D01*
X3026Y2095D02*
X3035Y2095D01*
X3185Y2095D02*
X3195Y2095D01*
X3227Y2095D02*
X3236Y2095D01*
X3285Y2095D02*
X3295Y2095D01*
X3327Y2095D02*
X3336Y2095D01*
X3385Y2095D02*
X3395Y2095D01*
X3427Y2095D02*
X3436Y2095D01*
X3485Y2095D02*
X3495Y2095D01*
X3527Y2095D02*
X3536Y2095D01*
X3585Y2095D02*
X3595Y2095D01*
X3627Y2095D02*
X3636Y2095D01*
X3685Y2095D02*
X3695Y2095D01*
X3727Y2095D02*
X3736Y2095D01*
X3785Y2095D02*
X3795Y2095D01*
X3827Y2095D02*
X3836Y2095D01*
X3885Y2095D02*
X3895Y2095D01*
X3927Y2095D02*
X3936Y2095D01*
X2284Y2094D02*
X2293Y2094D01*
X2326Y2094D02*
X2335Y2094D01*
X2384Y2094D02*
X2393Y2094D01*
X2426Y2094D02*
X2435Y2094D01*
X2484Y2094D02*
X2493Y2094D01*
X2526Y2094D02*
X2535Y2094D01*
X2584Y2094D02*
X2593Y2094D01*
X2626Y2094D02*
X2635Y2094D01*
X2684Y2094D02*
X2693Y2094D01*
X2726Y2094D02*
X2735Y2094D01*
X2784Y2094D02*
X2793Y2094D01*
X2826Y2094D02*
X2835Y2094D01*
X2884Y2094D02*
X2893Y2094D01*
X2926Y2094D02*
X2935Y2094D01*
X2984Y2094D02*
X2993Y2094D01*
X3025Y2094D02*
X3035Y2094D01*
X3185Y2094D02*
X3195Y2094D01*
X3227Y2094D02*
X3236Y2094D01*
X3285Y2094D02*
X3295Y2094D01*
X3327Y2094D02*
X3336Y2094D01*
X3385Y2094D02*
X3395Y2094D01*
X3427Y2094D02*
X3436Y2094D01*
X3485Y2094D02*
X3495Y2094D01*
X3527Y2094D02*
X3536Y2094D01*
X3585Y2094D02*
X3595Y2094D01*
X3627Y2094D02*
X3636Y2094D01*
X3685Y2094D02*
X3695Y2094D01*
X3727Y2094D02*
X3736Y2094D01*
X3785Y2094D02*
X3795Y2094D01*
X3827Y2094D02*
X3836Y2094D01*
X3885Y2094D02*
X3895Y2094D01*
X3927Y2094D02*
X3936Y2094D01*
X2284Y2093D02*
X2293Y2093D01*
X2325Y2093D02*
X2335Y2093D01*
X2384Y2093D02*
X2393Y2093D01*
X2425Y2093D02*
X2435Y2093D01*
X2484Y2093D02*
X2493Y2093D01*
X2525Y2093D02*
X2535Y2093D01*
X2584Y2093D02*
X2593Y2093D01*
X2625Y2093D02*
X2635Y2093D01*
X2684Y2093D02*
X2693Y2093D01*
X2725Y2093D02*
X2735Y2093D01*
X2784Y2093D02*
X2793Y2093D01*
X2825Y2093D02*
X2835Y2093D01*
X2884Y2093D02*
X2893Y2093D01*
X2925Y2093D02*
X2935Y2093D01*
X2984Y2093D02*
X2993Y2093D01*
X3025Y2093D02*
X3035Y2093D01*
X3185Y2093D02*
X3195Y2093D01*
X3226Y2093D02*
X3236Y2093D01*
X3285Y2093D02*
X3295Y2093D01*
X3326Y2093D02*
X3336Y2093D01*
X3385Y2093D02*
X3395Y2093D01*
X3426Y2093D02*
X3436Y2093D01*
X3485Y2093D02*
X3495Y2093D01*
X3526Y2093D02*
X3536Y2093D01*
X3585Y2093D02*
X3595Y2093D01*
X3626Y2093D02*
X3636Y2093D01*
X3685Y2093D02*
X3695Y2093D01*
X3726Y2093D02*
X3736Y2093D01*
X3785Y2093D02*
X3795Y2093D01*
X3826Y2093D02*
X3836Y2093D01*
X3885Y2093D02*
X3895Y2093D01*
X3926Y2093D02*
X3936Y2093D01*
X2284Y2092D02*
X2293Y2092D01*
X2325Y2092D02*
X2335Y2092D01*
X2384Y2092D02*
X2393Y2092D01*
X2425Y2092D02*
X2435Y2092D01*
X2484Y2092D02*
X2493Y2092D01*
X2525Y2092D02*
X2535Y2092D01*
X2584Y2092D02*
X2593Y2092D01*
X2625Y2092D02*
X2635Y2092D01*
X2684Y2092D02*
X2693Y2092D01*
X2725Y2092D02*
X2735Y2092D01*
X2784Y2092D02*
X2793Y2092D01*
X2825Y2092D02*
X2835Y2092D01*
X2884Y2092D02*
X2893Y2092D01*
X2925Y2092D02*
X2935Y2092D01*
X2984Y2092D02*
X2993Y2092D01*
X3025Y2092D02*
X3035Y2092D01*
X3185Y2092D02*
X3196Y2092D01*
X3226Y2092D02*
X3236Y2092D01*
X3285Y2092D02*
X3296Y2092D01*
X3326Y2092D02*
X3336Y2092D01*
X3385Y2092D02*
X3396Y2092D01*
X3426Y2092D02*
X3436Y2092D01*
X3485Y2092D02*
X3496Y2092D01*
X3526Y2092D02*
X3536Y2092D01*
X3585Y2092D02*
X3596Y2092D01*
X3626Y2092D02*
X3636Y2092D01*
X3685Y2092D02*
X3696Y2092D01*
X3726Y2092D02*
X3736Y2092D01*
X3785Y2092D02*
X3796Y2092D01*
X3826Y2092D02*
X3836Y2092D01*
X3885Y2092D02*
X3896Y2092D01*
X3926Y2092D02*
X3936Y2092D01*
X2284Y2091D02*
X2294Y2091D01*
X2325Y2091D02*
X2335Y2091D01*
X2384Y2091D02*
X2394Y2091D01*
X2425Y2091D02*
X2435Y2091D01*
X2484Y2091D02*
X2494Y2091D01*
X2525Y2091D02*
X2535Y2091D01*
X2584Y2091D02*
X2594Y2091D01*
X2625Y2091D02*
X2635Y2091D01*
X2684Y2091D02*
X2694Y2091D01*
X2725Y2091D02*
X2735Y2091D01*
X2784Y2091D02*
X2794Y2091D01*
X2825Y2091D02*
X2835Y2091D01*
X2884Y2091D02*
X2894Y2091D01*
X2925Y2091D02*
X2935Y2091D01*
X2984Y2091D02*
X2994Y2091D01*
X3025Y2091D02*
X3035Y2091D01*
X3185Y2091D02*
X3196Y2091D01*
X3226Y2091D02*
X3236Y2091D01*
X3285Y2091D02*
X3296Y2091D01*
X3325Y2091D02*
X3336Y2091D01*
X3385Y2091D02*
X3396Y2091D01*
X3425Y2091D02*
X3436Y2091D01*
X3485Y2091D02*
X3496Y2091D01*
X3525Y2091D02*
X3536Y2091D01*
X3585Y2091D02*
X3596Y2091D01*
X3625Y2091D02*
X3636Y2091D01*
X3685Y2091D02*
X3696Y2091D01*
X3725Y2091D02*
X3736Y2091D01*
X3785Y2091D02*
X3796Y2091D01*
X3825Y2091D02*
X3836Y2091D01*
X3885Y2091D02*
X3896Y2091D01*
X3925Y2091D02*
X3936Y2091D01*
X2284Y2090D02*
X2294Y2090D01*
X2324Y2090D02*
X2335Y2090D01*
X2384Y2090D02*
X2394Y2090D01*
X2424Y2090D02*
X2435Y2090D01*
X2484Y2090D02*
X2494Y2090D01*
X2524Y2090D02*
X2535Y2090D01*
X2584Y2090D02*
X2594Y2090D01*
X2624Y2090D02*
X2635Y2090D01*
X2684Y2090D02*
X2694Y2090D01*
X2724Y2090D02*
X2735Y2090D01*
X2784Y2090D02*
X2794Y2090D01*
X2824Y2090D02*
X2835Y2090D01*
X2884Y2090D02*
X2894Y2090D01*
X2924Y2090D02*
X2935Y2090D01*
X2984Y2090D02*
X2994Y2090D01*
X3024Y2090D02*
X3035Y2090D01*
X3185Y2090D02*
X3197Y2090D01*
X3225Y2090D02*
X3236Y2090D01*
X3285Y2090D02*
X3297Y2090D01*
X3325Y2090D02*
X3336Y2090D01*
X3385Y2090D02*
X3397Y2090D01*
X3425Y2090D02*
X3436Y2090D01*
X3485Y2090D02*
X3497Y2090D01*
X3525Y2090D02*
X3536Y2090D01*
X3585Y2090D02*
X3597Y2090D01*
X3625Y2090D02*
X3636Y2090D01*
X3685Y2090D02*
X3697Y2090D01*
X3725Y2090D02*
X3736Y2090D01*
X3785Y2090D02*
X3797Y2090D01*
X3825Y2090D02*
X3836Y2090D01*
X3885Y2090D02*
X3897Y2090D01*
X3925Y2090D02*
X3936Y2090D01*
X2284Y2089D02*
X2294Y2089D01*
X2324Y2089D02*
X2335Y2089D01*
X2384Y2089D02*
X2394Y2089D01*
X2424Y2089D02*
X2435Y2089D01*
X2484Y2089D02*
X2494Y2089D01*
X2524Y2089D02*
X2535Y2089D01*
X2584Y2089D02*
X2594Y2089D01*
X2624Y2089D02*
X2635Y2089D01*
X2684Y2089D02*
X2694Y2089D01*
X2724Y2089D02*
X2735Y2089D01*
X2784Y2089D02*
X2794Y2089D01*
X2824Y2089D02*
X2835Y2089D01*
X2884Y2089D02*
X2894Y2089D01*
X2924Y2089D02*
X2935Y2089D01*
X2984Y2089D02*
X2994Y2089D01*
X3024Y2089D02*
X3035Y2089D01*
X3185Y2089D02*
X3198Y2089D01*
X3224Y2089D02*
X3236Y2089D01*
X3285Y2089D02*
X3298Y2089D01*
X3324Y2089D02*
X3336Y2089D01*
X3385Y2089D02*
X3398Y2089D01*
X3424Y2089D02*
X3436Y2089D01*
X3485Y2089D02*
X3498Y2089D01*
X3524Y2089D02*
X3536Y2089D01*
X3585Y2089D02*
X3598Y2089D01*
X3624Y2089D02*
X3636Y2089D01*
X3685Y2089D02*
X3698Y2089D01*
X3724Y2089D02*
X3736Y2089D01*
X3785Y2089D02*
X3798Y2089D01*
X3824Y2089D02*
X3836Y2089D01*
X3885Y2089D02*
X3898Y2089D01*
X3924Y2089D02*
X3936Y2089D01*
X2284Y2088D02*
X2295Y2088D01*
X2323Y2088D02*
X2335Y2088D01*
X2384Y2088D02*
X2395Y2088D01*
X2423Y2088D02*
X2435Y2088D01*
X2484Y2088D02*
X2495Y2088D01*
X2523Y2088D02*
X2535Y2088D01*
X2584Y2088D02*
X2595Y2088D01*
X2623Y2088D02*
X2635Y2088D01*
X2684Y2088D02*
X2695Y2088D01*
X2723Y2088D02*
X2735Y2088D01*
X2784Y2088D02*
X2795Y2088D01*
X2823Y2088D02*
X2835Y2088D01*
X2884Y2088D02*
X2895Y2088D01*
X2923Y2088D02*
X2935Y2088D01*
X2984Y2088D02*
X2995Y2088D01*
X3023Y2088D02*
X3035Y2088D01*
X3185Y2088D02*
X3199Y2088D01*
X3223Y2088D02*
X3236Y2088D01*
X3285Y2088D02*
X3299Y2088D01*
X3323Y2088D02*
X3336Y2088D01*
X3385Y2088D02*
X3399Y2088D01*
X3423Y2088D02*
X3436Y2088D01*
X3485Y2088D02*
X3498Y2088D01*
X3523Y2088D02*
X3536Y2088D01*
X3585Y2088D02*
X3598Y2088D01*
X3623Y2088D02*
X3636Y2088D01*
X3685Y2088D02*
X3698Y2088D01*
X3723Y2088D02*
X3736Y2088D01*
X3785Y2088D02*
X3798Y2088D01*
X3823Y2088D02*
X3836Y2088D01*
X3885Y2088D02*
X3898Y2088D01*
X3923Y2088D02*
X3936Y2088D01*
X2284Y2087D02*
X2296Y2087D01*
X2323Y2087D02*
X2335Y2087D01*
X2384Y2087D02*
X2396Y2087D01*
X2423Y2087D02*
X2435Y2087D01*
X2484Y2087D02*
X2496Y2087D01*
X2523Y2087D02*
X2535Y2087D01*
X2584Y2087D02*
X2596Y2087D01*
X2623Y2087D02*
X2635Y2087D01*
X2684Y2087D02*
X2696Y2087D01*
X2723Y2087D02*
X2735Y2087D01*
X2784Y2087D02*
X2796Y2087D01*
X2823Y2087D02*
X2835Y2087D01*
X2884Y2087D02*
X2896Y2087D01*
X2923Y2087D02*
X2935Y2087D01*
X2984Y2087D02*
X2996Y2087D01*
X3023Y2087D02*
X3035Y2087D01*
X3185Y2087D02*
X3199Y2087D01*
X3222Y2087D02*
X3236Y2087D01*
X3285Y2087D02*
X3299Y2087D01*
X3322Y2087D02*
X3336Y2087D01*
X3385Y2087D02*
X3399Y2087D01*
X3422Y2087D02*
X3436Y2087D01*
X3485Y2087D02*
X3499Y2087D01*
X3522Y2087D02*
X3536Y2087D01*
X3585Y2087D02*
X3599Y2087D01*
X3622Y2087D02*
X3636Y2087D01*
X3685Y2087D02*
X3699Y2087D01*
X3722Y2087D02*
X3736Y2087D01*
X3785Y2087D02*
X3799Y2087D01*
X3822Y2087D02*
X3836Y2087D01*
X3885Y2087D02*
X3899Y2087D01*
X3922Y2087D02*
X3936Y2087D01*
X2284Y2086D02*
X2296Y2086D01*
X2322Y2086D02*
X2335Y2086D01*
X2384Y2086D02*
X2396Y2086D01*
X2422Y2086D02*
X2435Y2086D01*
X2484Y2086D02*
X2496Y2086D01*
X2522Y2086D02*
X2535Y2086D01*
X2584Y2086D02*
X2596Y2086D01*
X2622Y2086D02*
X2635Y2086D01*
X2684Y2086D02*
X2696Y2086D01*
X2722Y2086D02*
X2735Y2086D01*
X2784Y2086D02*
X2796Y2086D01*
X2822Y2086D02*
X2835Y2086D01*
X2884Y2086D02*
X2896Y2086D01*
X2922Y2086D02*
X2935Y2086D01*
X2984Y2086D02*
X2996Y2086D01*
X3022Y2086D02*
X3035Y2086D01*
X3185Y2086D02*
X3201Y2086D01*
X3221Y2086D02*
X3236Y2086D01*
X3285Y2086D02*
X3301Y2086D01*
X3321Y2086D02*
X3336Y2086D01*
X3385Y2086D02*
X3401Y2086D01*
X3421Y2086D02*
X3436Y2086D01*
X3485Y2086D02*
X3501Y2086D01*
X3521Y2086D02*
X3536Y2086D01*
X3585Y2086D02*
X3601Y2086D01*
X3621Y2086D02*
X3636Y2086D01*
X3685Y2086D02*
X3701Y2086D01*
X3721Y2086D02*
X3736Y2086D01*
X3785Y2086D02*
X3801Y2086D01*
X3821Y2086D02*
X3836Y2086D01*
X3885Y2086D02*
X3901Y2086D01*
X3921Y2086D02*
X3936Y2086D01*
X2284Y2085D02*
X2297Y2085D01*
X2321Y2085D02*
X2335Y2085D01*
X2384Y2085D02*
X2397Y2085D01*
X2421Y2085D02*
X2435Y2085D01*
X2484Y2085D02*
X2497Y2085D01*
X2521Y2085D02*
X2535Y2085D01*
X2584Y2085D02*
X2597Y2085D01*
X2621Y2085D02*
X2635Y2085D01*
X2684Y2085D02*
X2697Y2085D01*
X2721Y2085D02*
X2735Y2085D01*
X2784Y2085D02*
X2797Y2085D01*
X2821Y2085D02*
X2835Y2085D01*
X2884Y2085D02*
X2897Y2085D01*
X2921Y2085D02*
X2935Y2085D01*
X2984Y2085D02*
X2997Y2085D01*
X3021Y2085D02*
X3035Y2085D01*
X3185Y2085D02*
X3202Y2085D01*
X3220Y2085D02*
X3236Y2085D01*
X3285Y2085D02*
X3302Y2085D01*
X3320Y2085D02*
X3336Y2085D01*
X3385Y2085D02*
X3402Y2085D01*
X3420Y2085D02*
X3436Y2085D01*
X3485Y2085D02*
X3502Y2085D01*
X3520Y2085D02*
X3536Y2085D01*
X3585Y2085D02*
X3602Y2085D01*
X3620Y2085D02*
X3636Y2085D01*
X3685Y2085D02*
X3702Y2085D01*
X3720Y2085D02*
X3736Y2085D01*
X3785Y2085D02*
X3802Y2085D01*
X3820Y2085D02*
X3836Y2085D01*
X3885Y2085D02*
X3902Y2085D01*
X3920Y2085D02*
X3936Y2085D01*
X2284Y2084D02*
X2298Y2084D01*
X2320Y2084D02*
X2335Y2084D01*
X2384Y2084D02*
X2398Y2084D01*
X2420Y2084D02*
X2435Y2084D01*
X2484Y2084D02*
X2498Y2084D01*
X2520Y2084D02*
X2535Y2084D01*
X2584Y2084D02*
X2598Y2084D01*
X2620Y2084D02*
X2635Y2084D01*
X2684Y2084D02*
X2698Y2084D01*
X2720Y2084D02*
X2735Y2084D01*
X2784Y2084D02*
X2798Y2084D01*
X2820Y2084D02*
X2835Y2084D01*
X2884Y2084D02*
X2898Y2084D01*
X2920Y2084D02*
X2935Y2084D01*
X2984Y2084D02*
X2998Y2084D01*
X3020Y2084D02*
X3035Y2084D01*
X3185Y2084D02*
X3204Y2084D01*
X3218Y2084D02*
X3236Y2084D01*
X3285Y2084D02*
X3304Y2084D01*
X3318Y2084D02*
X3336Y2084D01*
X3385Y2084D02*
X3404Y2084D01*
X3418Y2084D02*
X3436Y2084D01*
X3485Y2084D02*
X3504Y2084D01*
X3518Y2084D02*
X3536Y2084D01*
X3585Y2084D02*
X3604Y2084D01*
X3618Y2084D02*
X3636Y2084D01*
X3685Y2084D02*
X3704Y2084D01*
X3718Y2084D02*
X3736Y2084D01*
X3785Y2084D02*
X3804Y2084D01*
X3818Y2084D02*
X3836Y2084D01*
X3885Y2084D02*
X3904Y2084D01*
X3918Y2084D02*
X3936Y2084D01*
X2284Y2083D02*
X2300Y2083D01*
X2319Y2083D02*
X2335Y2083D01*
X2384Y2083D02*
X2400Y2083D01*
X2419Y2083D02*
X2435Y2083D01*
X2484Y2083D02*
X2500Y2083D01*
X2519Y2083D02*
X2535Y2083D01*
X2584Y2083D02*
X2600Y2083D01*
X2619Y2083D02*
X2635Y2083D01*
X2684Y2083D02*
X2700Y2083D01*
X2719Y2083D02*
X2735Y2083D01*
X2784Y2083D02*
X2800Y2083D01*
X2819Y2083D02*
X2835Y2083D01*
X2884Y2083D02*
X2900Y2083D01*
X2919Y2083D02*
X2935Y2083D01*
X2984Y2083D02*
X3000Y2083D01*
X3019Y2083D02*
X3035Y2083D01*
X3185Y2083D02*
X3207Y2083D01*
X3215Y2083D02*
X3236Y2083D01*
X3285Y2083D02*
X3307Y2083D01*
X3315Y2083D02*
X3336Y2083D01*
X3385Y2083D02*
X3407Y2083D01*
X3415Y2083D02*
X3436Y2083D01*
X3485Y2083D02*
X3507Y2083D01*
X3515Y2083D02*
X3536Y2083D01*
X3585Y2083D02*
X3607Y2083D01*
X3615Y2083D02*
X3636Y2083D01*
X3685Y2083D02*
X3707Y2083D01*
X3715Y2083D02*
X3736Y2083D01*
X3785Y2083D02*
X3807Y2083D01*
X3815Y2083D02*
X3836Y2083D01*
X3885Y2083D02*
X3907Y2083D01*
X3915Y2083D02*
X3936Y2083D01*
X2284Y2082D02*
X2301Y2082D01*
X2317Y2082D02*
X2335Y2082D01*
X2384Y2082D02*
X2401Y2082D01*
X2417Y2082D02*
X2435Y2082D01*
X2484Y2082D02*
X2501Y2082D01*
X2517Y2082D02*
X2535Y2082D01*
X2584Y2082D02*
X2601Y2082D01*
X2617Y2082D02*
X2635Y2082D01*
X2684Y2082D02*
X2701Y2082D01*
X2717Y2082D02*
X2735Y2082D01*
X2784Y2082D02*
X2801Y2082D01*
X2817Y2082D02*
X2835Y2082D01*
X2884Y2082D02*
X2901Y2082D01*
X2917Y2082D02*
X2935Y2082D01*
X2984Y2082D02*
X3001Y2082D01*
X3017Y2082D02*
X3035Y2082D01*
X3185Y2082D02*
X3236Y2082D01*
X3285Y2082D02*
X3336Y2082D01*
X3385Y2082D02*
X3436Y2082D01*
X3485Y2082D02*
X3536Y2082D01*
X3585Y2082D02*
X3636Y2082D01*
X3685Y2082D02*
X3736Y2082D01*
X3785Y2082D02*
X3836Y2082D01*
X3885Y2082D02*
X3936Y2082D01*
X2284Y2081D02*
X2304Y2081D01*
X2315Y2081D02*
X2335Y2081D01*
X2384Y2081D02*
X2404Y2081D01*
X2415Y2081D02*
X2435Y2081D01*
X2484Y2081D02*
X2504Y2081D01*
X2515Y2081D02*
X2535Y2081D01*
X2584Y2081D02*
X2604Y2081D01*
X2615Y2081D02*
X2635Y2081D01*
X2684Y2081D02*
X2704Y2081D01*
X2715Y2081D02*
X2735Y2081D01*
X2784Y2081D02*
X2804Y2081D01*
X2815Y2081D02*
X2835Y2081D01*
X2884Y2081D02*
X2904Y2081D01*
X2915Y2081D02*
X2935Y2081D01*
X2984Y2081D02*
X3004Y2081D01*
X3015Y2081D02*
X3035Y2081D01*
X3185Y2081D02*
X3236Y2081D01*
X3285Y2081D02*
X3336Y2081D01*
X3385Y2081D02*
X3436Y2081D01*
X3485Y2081D02*
X3536Y2081D01*
X3585Y2081D02*
X3636Y2081D01*
X3685Y2081D02*
X3736Y2081D01*
X3785Y2081D02*
X3836Y2081D01*
X3885Y2081D02*
X3936Y2081D01*
X2284Y2080D02*
X2335Y2080D01*
X2384Y2080D02*
X2435Y2080D01*
X2484Y2080D02*
X2535Y2080D01*
X2584Y2080D02*
X2635Y2080D01*
X2684Y2080D02*
X2735Y2080D01*
X2784Y2080D02*
X2835Y2080D01*
X2884Y2080D02*
X2935Y2080D01*
X2984Y2080D02*
X3035Y2080D01*
X3185Y2080D02*
X3236Y2080D01*
X3285Y2080D02*
X3336Y2080D01*
X3385Y2080D02*
X3436Y2080D01*
X3485Y2080D02*
X3536Y2080D01*
X3585Y2080D02*
X3636Y2080D01*
X3685Y2080D02*
X3736Y2080D01*
X3785Y2080D02*
X3836Y2080D01*
X3885Y2080D02*
X3936Y2080D01*
X2284Y2079D02*
X2335Y2079D01*
X2384Y2079D02*
X2435Y2079D01*
X2484Y2079D02*
X2535Y2079D01*
X2584Y2079D02*
X2635Y2079D01*
X2684Y2079D02*
X2735Y2079D01*
X2784Y2079D02*
X2835Y2079D01*
X2884Y2079D02*
X2935Y2079D01*
X2984Y2079D02*
X3035Y2079D01*
X3185Y2079D02*
X3236Y2079D01*
X3285Y2079D02*
X3336Y2079D01*
X3385Y2079D02*
X3436Y2079D01*
X3485Y2079D02*
X3536Y2079D01*
X3585Y2079D02*
X3636Y2079D01*
X3685Y2079D02*
X3736Y2079D01*
X3785Y2079D02*
X3836Y2079D01*
X3885Y2079D02*
X3936Y2079D01*
X2284Y2078D02*
X2335Y2078D01*
X2384Y2078D02*
X2435Y2078D01*
X2484Y2078D02*
X2535Y2078D01*
X2584Y2078D02*
X2635Y2078D01*
X2684Y2078D02*
X2735Y2078D01*
X2784Y2078D02*
X2835Y2078D01*
X2884Y2078D02*
X2935Y2078D01*
X2984Y2078D02*
X3035Y2078D01*
X3185Y2078D02*
X3236Y2078D01*
X3285Y2078D02*
X3336Y2078D01*
X3385Y2078D02*
X3436Y2078D01*
X3485Y2078D02*
X3536Y2078D01*
X3585Y2078D02*
X3636Y2078D01*
X3685Y2078D02*
X3736Y2078D01*
X3785Y2078D02*
X3836Y2078D01*
X3885Y2078D02*
X3936Y2078D01*
X2284Y2077D02*
X2335Y2077D01*
X2384Y2077D02*
X2435Y2077D01*
X2484Y2077D02*
X2535Y2077D01*
X2584Y2077D02*
X2635Y2077D01*
X2684Y2077D02*
X2735Y2077D01*
X2784Y2077D02*
X2835Y2077D01*
X2884Y2077D02*
X2935Y2077D01*
X2984Y2077D02*
X3035Y2077D01*
X3185Y2077D02*
X3236Y2077D01*
X3285Y2077D02*
X3336Y2077D01*
X3385Y2077D02*
X3436Y2077D01*
X3485Y2077D02*
X3536Y2077D01*
X3585Y2077D02*
X3636Y2077D01*
X3685Y2077D02*
X3736Y2077D01*
X3785Y2077D02*
X3836Y2077D01*
X3885Y2077D02*
X3936Y2077D01*
X2284Y2076D02*
X2335Y2076D01*
X2384Y2076D02*
X2435Y2076D01*
X2484Y2076D02*
X2535Y2076D01*
X2584Y2076D02*
X2635Y2076D01*
X2684Y2076D02*
X2735Y2076D01*
X2784Y2076D02*
X2835Y2076D01*
X2884Y2076D02*
X2935Y2076D01*
X2984Y2076D02*
X3035Y2076D01*
X3185Y2076D02*
X3236Y2076D01*
X3285Y2076D02*
X3336Y2076D01*
X3385Y2076D02*
X3436Y2076D01*
X3485Y2076D02*
X3536Y2076D01*
X3585Y2076D02*
X3636Y2076D01*
X3685Y2076D02*
X3736Y2076D01*
X3785Y2076D02*
X3836Y2076D01*
X3885Y2076D02*
X3936Y2076D01*
X2284Y2075D02*
X2335Y2075D01*
X2384Y2075D02*
X2435Y2075D01*
X2484Y2075D02*
X2535Y2075D01*
X2584Y2075D02*
X2635Y2075D01*
X2684Y2075D02*
X2735Y2075D01*
X2784Y2075D02*
X2835Y2075D01*
X2884Y2075D02*
X2935Y2075D01*
X2984Y2075D02*
X3035Y2075D01*
X3185Y2075D02*
X3236Y2075D01*
X3285Y2075D02*
X3336Y2075D01*
X3385Y2075D02*
X3436Y2075D01*
X3485Y2075D02*
X3536Y2075D01*
X3585Y2075D02*
X3636Y2075D01*
X3685Y2075D02*
X3736Y2075D01*
X3785Y2075D02*
X3836Y2075D01*
X3885Y2075D02*
X3936Y2075D01*
X2284Y2074D02*
X2335Y2074D01*
X2384Y2074D02*
X2435Y2074D01*
X2484Y2074D02*
X2535Y2074D01*
X2584Y2074D02*
X2635Y2074D01*
X2684Y2074D02*
X2735Y2074D01*
X2784Y2074D02*
X2835Y2074D01*
X2884Y2074D02*
X2935Y2074D01*
X2984Y2074D02*
X3035Y2074D01*
X3185Y2074D02*
X3236Y2074D01*
X3285Y2074D02*
X3336Y2074D01*
X3385Y2074D02*
X3436Y2074D01*
X3485Y2074D02*
X3536Y2074D01*
X3585Y2074D02*
X3636Y2074D01*
X3685Y2074D02*
X3736Y2074D01*
X3785Y2074D02*
X3836Y2074D01*
X3885Y2074D02*
X3936Y2074D01*
X2284Y2073D02*
X2335Y2073D01*
X2384Y2073D02*
X2435Y2073D01*
X2484Y2073D02*
X2535Y2073D01*
X2584Y2073D02*
X2635Y2073D01*
X2684Y2073D02*
X2735Y2073D01*
X2784Y2073D02*
X2835Y2073D01*
X2884Y2073D02*
X2935Y2073D01*
X2984Y2073D02*
X3035Y2073D01*
X3185Y2073D02*
X3236Y2073D01*
X3285Y2073D02*
X3336Y2073D01*
X3385Y2073D02*
X3436Y2073D01*
X3485Y2073D02*
X3536Y2073D01*
X3585Y2073D02*
X3636Y2073D01*
X3685Y2073D02*
X3736Y2073D01*
X3785Y2073D02*
X3836Y2073D01*
X3885Y2073D02*
X3936Y2073D01*
X2284Y2072D02*
X2335Y2072D01*
X2384Y2072D02*
X2435Y2072D01*
X2484Y2072D02*
X2535Y2072D01*
X2584Y2072D02*
X2635Y2072D01*
X2684Y2072D02*
X2735Y2072D01*
X2784Y2072D02*
X2835Y2072D01*
X2884Y2072D02*
X2935Y2072D01*
X2984Y2072D02*
X3035Y2072D01*
X3185Y2072D02*
X3236Y2072D01*
X3285Y2072D02*
X3336Y2072D01*
X3385Y2072D02*
X3436Y2072D01*
X3485Y2072D02*
X3536Y2072D01*
X3585Y2072D02*
X3636Y2072D01*
X3685Y2072D02*
X3736Y2072D01*
X3785Y2072D02*
X3836Y2072D01*
X3885Y2072D02*
X3936Y2072D01*
X2284Y2071D02*
X2335Y2071D01*
X2384Y2071D02*
X2435Y2071D01*
X2484Y2071D02*
X2535Y2071D01*
X2584Y2071D02*
X2635Y2071D01*
X2684Y2071D02*
X2735Y2071D01*
X2784Y2071D02*
X2835Y2071D01*
X2884Y2071D02*
X2935Y2071D01*
X2984Y2071D02*
X3035Y2071D01*
X3186Y2071D02*
X3236Y2071D01*
X3285Y2071D02*
X3336Y2071D01*
X3385Y2071D02*
X3436Y2071D01*
X3485Y2071D02*
X3536Y2071D01*
X3585Y2071D02*
X3636Y2071D01*
X3685Y2071D02*
X3736Y2071D01*
X3785Y2071D02*
X3836Y2071D01*
X3885Y2071D02*
X3936Y2071D01*
X2284Y2070D02*
X2335Y2070D01*
X2384Y2070D02*
X2435Y2070D01*
X2484Y2070D02*
X2535Y2070D01*
X2584Y2070D02*
X2635Y2070D01*
X2684Y2070D02*
X2735Y2070D01*
X2784Y2070D02*
X2835Y2070D01*
X2884Y2070D02*
X2935Y2070D01*
X2984Y2070D02*
X3035Y2070D01*
X3186Y2070D02*
X3236Y2070D01*
X3286Y2070D02*
X3336Y2070D01*
X3386Y2070D02*
X3436Y2070D01*
X3486Y2070D02*
X3536Y2070D01*
X3586Y2070D02*
X3636Y2070D01*
X3686Y2070D02*
X3736Y2070D01*
X3786Y2070D02*
X3836Y2070D01*
X3886Y2070D02*
X3936Y2070D01*
X2284Y2069D02*
X2335Y2069D01*
X2384Y2069D02*
X2435Y2069D01*
X2484Y2069D02*
X2535Y2069D01*
X2584Y2069D02*
X2635Y2069D01*
X2684Y2069D02*
X2735Y2069D01*
X2784Y2069D02*
X2835Y2069D01*
X2884Y2069D02*
X2935Y2069D01*
X2984Y2069D02*
X3035Y2069D01*
X3186Y2069D02*
X3236Y2069D01*
X3286Y2069D02*
X3336Y2069D01*
X3386Y2069D02*
X3436Y2069D01*
X3486Y2069D02*
X3536Y2069D01*
X3586Y2069D02*
X3636Y2069D01*
X3686Y2069D02*
X3736Y2069D01*
X3786Y2069D02*
X3836Y2069D01*
X3886Y2069D02*
X3936Y2069D01*
X2284Y2068D02*
X2335Y2068D01*
X2384Y2068D02*
X2435Y2068D01*
X2484Y2068D02*
X2535Y2068D01*
X2584Y2068D02*
X2635Y2068D01*
X2684Y2068D02*
X2735Y2068D01*
X2784Y2068D02*
X2835Y2068D01*
X2884Y2068D02*
X2935Y2068D01*
X2984Y2068D02*
X3035Y2068D01*
X3186Y2068D02*
X3236Y2068D01*
X3286Y2068D02*
X3336Y2068D01*
X3386Y2068D02*
X3436Y2068D01*
X3486Y2068D02*
X3536Y2068D01*
X3586Y2068D02*
X3636Y2068D01*
X3686Y2068D02*
X3736Y2068D01*
X3786Y2068D02*
X3836Y2068D01*
X3886Y2068D02*
X3936Y2068D01*
X2284Y2067D02*
X2335Y2067D01*
X2384Y2067D02*
X2435Y2067D01*
X2484Y2067D02*
X2535Y2067D01*
X2584Y2067D02*
X2634Y2067D01*
X2684Y2067D02*
X2734Y2067D01*
X2784Y2067D02*
X2834Y2067D01*
X2884Y2067D02*
X2934Y2067D01*
X2984Y2067D02*
X3034Y2067D01*
X3186Y2067D02*
X3236Y2067D01*
X3286Y2067D02*
X3336Y2067D01*
X3386Y2067D02*
X3436Y2067D01*
X3486Y2067D02*
X3536Y2067D01*
X3586Y2067D02*
X3636Y2067D01*
X3686Y2067D02*
X3736Y2067D01*
X3786Y2067D02*
X3836Y2067D01*
X3886Y2067D02*
X3936Y2067D01*
X2284Y2066D02*
X2334Y2066D01*
X2384Y2066D02*
X2434Y2066D01*
X2484Y2066D02*
X2534Y2066D01*
X2584Y2066D02*
X2634Y2066D01*
X2684Y2066D02*
X2734Y2066D01*
X2784Y2066D02*
X2834Y2066D01*
X2884Y2066D02*
X2934Y2066D01*
X2984Y2066D02*
X3034Y2066D01*
X3186Y2066D02*
X3236Y2066D01*
X3286Y2066D02*
X3336Y2066D01*
X3386Y2066D02*
X3436Y2066D01*
X3486Y2066D02*
X3536Y2066D01*
X3586Y2066D02*
X3636Y2066D01*
X3686Y2066D02*
X3736Y2066D01*
X3786Y2066D02*
X3836Y2066D01*
X3886Y2066D02*
X3936Y2066D01*
X2284Y2065D02*
X2334Y2065D01*
X2384Y2065D02*
X2434Y2065D01*
X2484Y2065D02*
X2534Y2065D01*
X2584Y2065D02*
X2634Y2065D01*
X2684Y2065D02*
X2734Y2065D01*
X2784Y2065D02*
X2834Y2065D01*
X2884Y2065D02*
X2934Y2065D01*
X2984Y2065D02*
X3034Y2065D01*
X3187Y2065D02*
X3235Y2065D01*
X3287Y2065D02*
X3335Y2065D01*
X3387Y2065D02*
X3435Y2065D01*
X3487Y2065D02*
X3535Y2065D01*
X3587Y2065D02*
X3635Y2065D01*
X3687Y2065D02*
X3735Y2065D01*
X3787Y2065D02*
X3835Y2065D01*
X3887Y2065D02*
X3935Y2065D01*
X2284Y2064D02*
X2334Y2064D01*
X2384Y2064D02*
X2434Y2064D01*
X2484Y2064D02*
X2534Y2064D01*
X2584Y2064D02*
X2634Y2064D01*
X2684Y2064D02*
X2734Y2064D01*
X2784Y2064D02*
X2834Y2064D01*
X2884Y2064D02*
X2934Y2064D01*
X2984Y2064D02*
X3034Y2064D01*
X3187Y2064D02*
X3235Y2064D01*
X3287Y2064D02*
X3335Y2064D01*
X3387Y2064D02*
X3435Y2064D01*
X3487Y2064D02*
X3535Y2064D01*
X3587Y2064D02*
X3635Y2064D01*
X3687Y2064D02*
X3735Y2064D01*
X3787Y2064D02*
X3835Y2064D01*
X3887Y2064D02*
X3935Y2064D01*
X2285Y2063D02*
X2334Y2063D01*
X2385Y2063D02*
X2434Y2063D01*
X2485Y2063D02*
X2534Y2063D01*
X2585Y2063D02*
X2634Y2063D01*
X2685Y2063D02*
X2734Y2063D01*
X2785Y2063D02*
X2834Y2063D01*
X2885Y2063D02*
X2934Y2063D01*
X2985Y2063D02*
X3034Y2063D01*
X3187Y2063D02*
X3235Y2063D01*
X3287Y2063D02*
X3335Y2063D01*
X3387Y2063D02*
X3435Y2063D01*
X3487Y2063D02*
X3535Y2063D01*
X3587Y2063D02*
X3635Y2063D01*
X3687Y2063D02*
X3735Y2063D01*
X3787Y2063D02*
X3835Y2063D01*
X3887Y2063D02*
X3935Y2063D01*
X2285Y2062D02*
X2333Y2062D01*
X2385Y2062D02*
X2433Y2062D01*
X2485Y2062D02*
X2533Y2062D01*
X2585Y2062D02*
X2633Y2062D01*
X2685Y2062D02*
X2733Y2062D01*
X2785Y2062D02*
X2833Y2062D01*
X2885Y2062D02*
X2933Y2062D01*
X2985Y2062D02*
X3033Y2062D01*
X3188Y2062D02*
X3234Y2062D01*
X3288Y2062D02*
X3334Y2062D01*
X3388Y2062D02*
X3434Y2062D01*
X3488Y2062D02*
X3534Y2062D01*
X3588Y2062D02*
X3634Y2062D01*
X3688Y2062D02*
X3734Y2062D01*
X3788Y2062D02*
X3834Y2062D01*
X3888Y2062D02*
X3934Y2062D01*
X2285Y2061D02*
X2333Y2061D01*
X2385Y2061D02*
X2433Y2061D01*
X2485Y2061D02*
X2533Y2061D01*
X2585Y2061D02*
X2633Y2061D01*
X2685Y2061D02*
X2733Y2061D01*
X2785Y2061D02*
X2833Y2061D01*
X2885Y2061D02*
X2933Y2061D01*
X2985Y2061D02*
X3033Y2061D01*
X3188Y2061D02*
X3234Y2061D01*
X3288Y2061D02*
X3334Y2061D01*
X3388Y2061D02*
X3434Y2061D01*
X3488Y2061D02*
X3534Y2061D01*
X3588Y2061D02*
X3634Y2061D01*
X3688Y2061D02*
X3734Y2061D01*
X3788Y2061D02*
X3834Y2061D01*
X3888Y2061D02*
X3934Y2061D01*
X2286Y2060D02*
X2333Y2060D01*
X2386Y2060D02*
X2433Y2060D01*
X2486Y2060D02*
X2533Y2060D01*
X2586Y2060D02*
X2633Y2060D01*
X2686Y2060D02*
X2733Y2060D01*
X2786Y2060D02*
X2833Y2060D01*
X2886Y2060D02*
X2933Y2060D01*
X2986Y2060D02*
X3033Y2060D01*
X3189Y2060D02*
X3233Y2060D01*
X3289Y2060D02*
X3333Y2060D01*
X3389Y2060D02*
X3433Y2060D01*
X3489Y2060D02*
X3533Y2060D01*
X3589Y2060D02*
X3633Y2060D01*
X3689Y2060D02*
X3733Y2060D01*
X3789Y2060D02*
X3833Y2060D01*
X3889Y2060D02*
X3933Y2060D01*
X2286Y2059D02*
X2332Y2059D01*
X2386Y2059D02*
X2432Y2059D01*
X2486Y2059D02*
X2532Y2059D01*
X2586Y2059D02*
X2632Y2059D01*
X2686Y2059D02*
X2732Y2059D01*
X2786Y2059D02*
X2832Y2059D01*
X2886Y2059D02*
X2932Y2059D01*
X2986Y2059D02*
X3032Y2059D01*
X3189Y2059D02*
X3233Y2059D01*
X3289Y2059D02*
X3333Y2059D01*
X3389Y2059D02*
X3433Y2059D01*
X3489Y2059D02*
X3533Y2059D01*
X3589Y2059D02*
X3633Y2059D01*
X3689Y2059D02*
X3733Y2059D01*
X3789Y2059D02*
X3833Y2059D01*
X3889Y2059D02*
X3933Y2059D01*
X2287Y2058D02*
X2332Y2058D01*
X2387Y2058D02*
X2432Y2058D01*
X2487Y2058D02*
X2532Y2058D01*
X2587Y2058D02*
X2632Y2058D01*
X2687Y2058D02*
X2732Y2058D01*
X2787Y2058D02*
X2832Y2058D01*
X2887Y2058D02*
X2932Y2058D01*
X2987Y2058D02*
X3032Y2058D01*
X3190Y2058D02*
X3232Y2058D01*
X3290Y2058D02*
X3332Y2058D01*
X3390Y2058D02*
X3432Y2058D01*
X3490Y2058D02*
X3532Y2058D01*
X3590Y2058D02*
X3632Y2058D01*
X3690Y2058D02*
X3732Y2058D01*
X3790Y2058D02*
X3832Y2058D01*
X3890Y2058D02*
X3932Y2058D01*
X2287Y2057D02*
X2331Y2057D01*
X2387Y2057D02*
X2431Y2057D01*
X2487Y2057D02*
X2531Y2057D01*
X2587Y2057D02*
X2631Y2057D01*
X2687Y2057D02*
X2731Y2057D01*
X2787Y2057D02*
X2831Y2057D01*
X2887Y2057D02*
X2931Y2057D01*
X2987Y2057D02*
X3031Y2057D01*
X3191Y2057D02*
X3231Y2057D01*
X3291Y2057D02*
X3331Y2057D01*
X3391Y2057D02*
X3431Y2057D01*
X3491Y2057D02*
X3531Y2057D01*
X3591Y2057D02*
X3631Y2057D01*
X3691Y2057D02*
X3731Y2057D01*
X3791Y2057D02*
X3831Y2057D01*
X3891Y2057D02*
X3931Y2057D01*
X2288Y2056D02*
X2331Y2056D01*
X2388Y2056D02*
X2430Y2056D01*
X2488Y2056D02*
X2530Y2056D01*
X2588Y2056D02*
X2630Y2056D01*
X2688Y2056D02*
X2730Y2056D01*
X2788Y2056D02*
X2830Y2056D01*
X2888Y2056D02*
X2930Y2056D01*
X2988Y2056D02*
X3030Y2056D01*
X3191Y2056D02*
X3230Y2056D01*
X3291Y2056D02*
X3330Y2056D01*
X3391Y2056D02*
X3430Y2056D01*
X3491Y2056D02*
X3530Y2056D01*
X3591Y2056D02*
X3630Y2056D01*
X3691Y2056D02*
X3730Y2056D01*
X3791Y2056D02*
X3830Y2056D01*
X3891Y2056D02*
X3930Y2056D01*
X2289Y2055D02*
X2330Y2055D01*
X2389Y2055D02*
X2430Y2055D01*
X2489Y2055D02*
X2530Y2055D01*
X2589Y2055D02*
X2630Y2055D01*
X2689Y2055D02*
X2730Y2055D01*
X2789Y2055D02*
X2830Y2055D01*
X2889Y2055D02*
X2930Y2055D01*
X2989Y2055D02*
X3030Y2055D01*
X3192Y2055D02*
X3230Y2055D01*
X3292Y2055D02*
X3330Y2055D01*
X3392Y2055D02*
X3430Y2055D01*
X3492Y2055D02*
X3530Y2055D01*
X3592Y2055D02*
X3630Y2055D01*
X3692Y2055D02*
X3730Y2055D01*
X3792Y2055D02*
X3830Y2055D01*
X3892Y2055D02*
X3929Y2055D01*
X2289Y2054D02*
X2329Y2054D01*
X2389Y2054D02*
X2429Y2054D01*
X2489Y2054D02*
X2529Y2054D01*
X2589Y2054D02*
X2629Y2054D01*
X2689Y2054D02*
X2729Y2054D01*
X2789Y2054D02*
X2829Y2054D01*
X2889Y2054D02*
X2929Y2054D01*
X2989Y2054D02*
X3029Y2054D01*
X3193Y2054D02*
X3229Y2054D01*
X3293Y2054D02*
X3329Y2054D01*
X3393Y2054D02*
X3429Y2054D01*
X3493Y2054D02*
X3529Y2054D01*
X3593Y2054D02*
X3629Y2054D01*
X3693Y2054D02*
X3729Y2054D01*
X3793Y2054D02*
X3829Y2054D01*
X3893Y2054D02*
X3929Y2054D01*
X2290Y2053D02*
X2328Y2053D01*
X2390Y2053D02*
X2428Y2053D01*
X2490Y2053D02*
X2528Y2053D01*
X2590Y2053D02*
X2628Y2053D01*
X2690Y2053D02*
X2728Y2053D01*
X2790Y2053D02*
X2828Y2053D01*
X2890Y2053D02*
X2928Y2053D01*
X2990Y2053D02*
X3028Y2053D01*
X3194Y2053D02*
X3227Y2053D01*
X3294Y2053D02*
X3327Y2053D01*
X3394Y2053D02*
X3427Y2053D01*
X3494Y2053D02*
X3527Y2053D01*
X3594Y2053D02*
X3627Y2053D01*
X3694Y2053D02*
X3727Y2053D01*
X3794Y2053D02*
X3827Y2053D01*
X3894Y2053D02*
X3927Y2053D01*
X2291Y2052D02*
X2327Y2052D01*
X2391Y2052D02*
X2427Y2052D01*
X2491Y2052D02*
X2527Y2052D01*
X2591Y2052D02*
X2627Y2052D01*
X2691Y2052D02*
X2727Y2052D01*
X2791Y2052D02*
X2827Y2052D01*
X2891Y2052D02*
X2927Y2052D01*
X2991Y2052D02*
X3027Y2052D01*
X3196Y2052D02*
X3226Y2052D01*
X3296Y2052D02*
X3326Y2052D01*
X3396Y2052D02*
X3426Y2052D01*
X3496Y2052D02*
X3526Y2052D01*
X3596Y2052D02*
X3626Y2052D01*
X3696Y2052D02*
X3726Y2052D01*
X3796Y2052D02*
X3826Y2052D01*
X3896Y2052D02*
X3926Y2052D01*
X2292Y2051D02*
X2326Y2051D01*
X2392Y2051D02*
X2426Y2051D01*
X2492Y2051D02*
X2526Y2051D01*
X2592Y2051D02*
X2626Y2051D01*
X2692Y2051D02*
X2726Y2051D01*
X2792Y2051D02*
X2826Y2051D01*
X2892Y2051D02*
X2926Y2051D01*
X2992Y2051D02*
X3026Y2051D01*
X3197Y2051D02*
X3225Y2051D01*
X3297Y2051D02*
X3325Y2051D01*
X3397Y2051D02*
X3425Y2051D01*
X3497Y2051D02*
X3525Y2051D01*
X3597Y2051D02*
X3625Y2051D01*
X3697Y2051D02*
X3725Y2051D01*
X3797Y2051D02*
X3825Y2051D01*
X3897Y2051D02*
X3925Y2051D01*
X2293Y2050D02*
X2325Y2050D01*
X2393Y2050D02*
X2425Y2050D01*
X2493Y2050D02*
X2525Y2050D01*
X2593Y2050D02*
X2625Y2050D01*
X2693Y2050D02*
X2725Y2050D01*
X2793Y2050D02*
X2825Y2050D01*
X2893Y2050D02*
X2925Y2050D01*
X2993Y2050D02*
X3025Y2050D01*
X3199Y2050D02*
X3223Y2050D01*
X3299Y2050D02*
X3323Y2050D01*
X3399Y2050D02*
X3423Y2050D01*
X3499Y2050D02*
X3523Y2050D01*
X3599Y2050D02*
X3623Y2050D01*
X3699Y2050D02*
X3723Y2050D01*
X3799Y2050D02*
X3823Y2050D01*
X3899Y2050D02*
X3923Y2050D01*
X2295Y2049D02*
X2324Y2049D01*
X2395Y2049D02*
X2424Y2049D01*
X2495Y2049D02*
X2524Y2049D01*
X2595Y2049D02*
X2624Y2049D01*
X2695Y2049D02*
X2724Y2049D01*
X2795Y2049D02*
X2824Y2049D01*
X2895Y2049D02*
X2924Y2049D01*
X2995Y2049D02*
X3024Y2049D01*
X3201Y2049D02*
X3221Y2049D01*
X3301Y2049D02*
X3321Y2049D01*
X3401Y2049D02*
X3421Y2049D01*
X3501Y2049D02*
X3521Y2049D01*
X3601Y2049D02*
X3621Y2049D01*
X3701Y2049D02*
X3721Y2049D01*
X3801Y2049D02*
X3821Y2049D01*
X3901Y2049D02*
X3921Y2049D01*
X2296Y2048D02*
X2322Y2048D01*
X2396Y2048D02*
X2422Y2048D01*
X2496Y2048D02*
X2522Y2048D01*
X2596Y2048D02*
X2622Y2048D01*
X2696Y2048D02*
X2722Y2048D01*
X2796Y2048D02*
X2822Y2048D01*
X2896Y2048D02*
X2922Y2048D01*
X2996Y2048D02*
X3022Y2048D01*
X3203Y2048D02*
X3219Y2048D01*
X3303Y2048D02*
X3319Y2048D01*
X3403Y2048D02*
X3419Y2048D01*
X3503Y2048D02*
X3519Y2048D01*
X3603Y2048D02*
X3619Y2048D01*
X3703Y2048D02*
X3719Y2048D01*
X3803Y2048D02*
X3819Y2048D01*
X3903Y2048D02*
X3919Y2048D01*
X2298Y2047D02*
X2320Y2047D01*
X2398Y2047D02*
X2420Y2047D01*
X2498Y2047D02*
X2520Y2047D01*
X2598Y2047D02*
X2620Y2047D01*
X2698Y2047D02*
X2720Y2047D01*
X2798Y2047D02*
X2820Y2047D01*
X2898Y2047D02*
X2920Y2047D01*
X2998Y2047D02*
X3020Y2047D01*
X3207Y2047D02*
X3215Y2047D01*
X3307Y2047D02*
X3315Y2047D01*
X3407Y2047D02*
X3415Y2047D01*
X3507Y2047D02*
X3515Y2047D01*
X3607Y2047D02*
X3615Y2047D01*
X3707Y2047D02*
X3715Y2047D01*
X3807Y2047D02*
X3815Y2047D01*
X3907Y2047D02*
X3915Y2047D01*
X2300Y2046D02*
X2318Y2046D01*
X2400Y2046D02*
X2418Y2046D01*
X2500Y2046D02*
X2518Y2046D01*
X2600Y2046D02*
X2618Y2046D01*
X2700Y2046D02*
X2718Y2046D01*
X2800Y2046D02*
X2818Y2046D01*
X2900Y2046D02*
X2918Y2046D01*
X3000Y2046D02*
X3018Y2046D01*
X2303Y2045D02*
X2315Y2045D01*
X2403Y2045D02*
X2415Y2045D01*
X2503Y2045D02*
X2515Y2045D01*
X2603Y2045D02*
X2615Y2045D01*
X2703Y2045D02*
X2715Y2045D01*
X2803Y2045D02*
X2815Y2045D01*
X2903Y2045D02*
X2915Y2045D01*
X3003Y2045D02*
X3015Y2045D01*
D02*
G04 End of Copper1*
M02*