<?xml version="1.0" encoding="UTF-8" standalone="no"?>
<!-- Created with Inkscape (http://www.inkscape.org/) -->

<svg
   xmlns:dc="http://purl.org/dc/elements/1.1/"
   xmlns:cc="http://creativecommons.org/ns#"
   xmlns:rdf="http://www.w3.org/1999/02/22-rdf-syntax-ns#"
   xmlns:svg="http://www.w3.org/2000/svg"
   xmlns="http://www.w3.org/2000/svg"
   xmlns:sodipodi="http://sodipodi.sourceforge.net/DTD/sodipodi-0.dtd"
   xmlns:inkscape="http://www.inkscape.org/namespaces/inkscape"
   id="svg3627"
   version="1.1"
   inkscape:version="0.91 r13725"
   xml:space="preserve"
   width="161.25"
   height="56.25"
   viewBox="0 0 161.25 56.25"
   sodipodi:docname="Aux_Vibrato_Tremolo_2xPBs_PCB1_2917950_etch_copper_top.svg"><metadata
     id="metadata3633"><rdf:RDF><cc:Work
         rdf:about=""><dc:format>image/svg+xml</dc:format><dc:type
           rdf:resource="http://purl.org/dc/dcmitype/StillImage" /><dc:title></dc:title></cc:Work></rdf:RDF></metadata><defs
     id="defs3631" /><sodipodi:namedview
     pagecolor="#ffffff"
     bordercolor="#666666"
     borderopacity="1"
     objecttolerance="10"
     gridtolerance="10"
     guidetolerance="10"
     inkscape:pageopacity="0"
     inkscape:pageshadow="2"
     inkscape:window-width="1895"
     inkscape:window-height="1056"
     id="namedview3629"
     showgrid="false"
     inkscape:zoom="7.5863239"
     inkscape:cx="108.86937"
     inkscape:cy="38.956164"
     inkscape:window-x="0"
     inkscape:window-y="0"
     inkscape:window-maximized="1"
     inkscape:current-layer="g3635" /><g
     id="g3635"
     inkscape:groupmode="layer"
     inkscape:label="Aux_Vibrato_Tremolo_2xPBs_PCB1_2917950_etch_copper_top"
     transform="matrix(1.25,0,0,-1.25,0,56.25)"><g
       id="g3637"
       transform="matrix(0.06,0,0,-0.06,10.02,34.98)"><g
         id="g3639"><g
           id="g3641" /></g><g
         id="g3643"><g
           id="g3645" /><g
           id="g3647" /><g
           id="g3649"><path
             d="m 4.8,4.8 1802.2,0 0,409.904 -1802.2,0 L 4.8,4.8 Z"
             style="fill:none;stroke:#000000;stroke-width:0.5;stroke-linecap:butt;stroke-linejoin:miter;stroke-miterlimit:10;stroke-dasharray:none;stroke-opacity:1"
             id="path3651"
             inkscape:connector-curvature="0" /></g><g
           id="g3653"><path
             d="m 48.000042,48.000047 0,98.400093 72.000058,0 0,2.40001 9.60001,0 0,2.4 4.80001,0 0,2.4 4.8,0 0,2.4 2.4,0 0,2.4 4.80001,0 0,2.40001 2.4,0 0,2.4 2.4,0 0,2.4 2.4,0 0,2.4 2.4,0 0,2.40001 2.40001,0 0,2.4 2.4,0 0,4.8 2.4,0 0,2.4 2.4,0 0,4.80001 2.40001,0 0,7.20001 26.40002,0 0,-4.80001 2.4,0 0,-4.8 2.4,0 0,-4.80001 2.4,0 0,-2.4 2.40001,0 0,-2.4 2.4,0 0,-2.4 2.4,0 0,-2.40001 2.4,0 0,-2.4 2.4,0 0,-2.4 2.40001,0 0,-2.4 2.4,0 0,-24.00003 -2.4,0 0,-2.4 -2.40001,0 0,-2.4 -2.4,0 0,-2.4 -2.4,0 0,-2.40001 -2.4,0 0,-2.4 -2.4,0 0,-2.4 -2.40001,0 0,-2.4 -2.4,0 0,-4.80001 -2.4,0 0,-4.8 -2.4,0 0,-4.80001 -2.4,0 0,-9.600006 -2.40001,0 0,-14.400014 2.40001,0 0,-9.60001 2.4,0 0,-24.000023 -146.400128,0 z"
             style="fill:#000000;fill-opacity:1;fill-rule:nonzero;stroke:none"
             id="path3655"
             inkscape:connector-curvature="0" /><path
             d="m 48.000042,146.40014 0,14.40002 24.00002,0 0,-2.40001 2.400003,0 0,-2.4 4.800004,0 0,-2.4 2.400002,0 0,-2.4 7.200006,0 0,-2.4 7.200006,0 0,-2.40001 -48.000041,0 z"
             style="fill:#000000;fill-opacity:1;fill-rule:nonzero;stroke:none"
             id="path3657"
             inkscape:connector-curvature="0" /></g><g
           id="g3659"><path
             d="m 304.80026,48.000047 0,28.800028 2.40001,0 0,24.000025 -2.40001,0 0,7.20001 -2.4,0 0,4.8 -2.4,0 0,4.8 -2.4,0 0,2.40001 -2.4,0 0,2.4 -2.40001,0 0,4.8 -2.4,0 0,2.40001 -2.4,0 0,2.4 -2.4,0 0,2.4 -4.80001,0 0,2.4 -2.4,0 0,21.60002 136.80012,0 0,-2.4 -7.20001,0 0,-2.4 -4.8,0 0,-2.4 -4.8,0 0,-2.4 -4.80001,0 0,-2.40001 -2.4,0 0,-2.4 -2.4,0 0,-2.4 -2.40001,0 0,-2.40001 -2.4,0 0,-2.4 -2.4,0 0,-2.4 -2.4,0 0,-2.4 -2.4,0 0,-4.80001 -2.40001,0 0,-4.8 -2.4,0 0,-7.20001 -2.4,0 0,-7.2 -2.4,0 0,-12.000016 2.4,0 0,-9.60001 2.4,0 0,-4.800004 2.4,0 0,-4.800005 2.40001,0 0,-4.800005 2.4,0 0,-24.000023 -74.40007,0 z"
             style="fill:#000000;fill-opacity:1;fill-rule:nonzero;stroke:none"
             id="path3661"
             inkscape:connector-curvature="0" /><path
             d="m 470.40041,48.000047 0,24.000023 2.4,0 0,2.400003 2.4,0 0,4.800004 2.4,0 0,7.200007 2.40001,0 0,7.200007 2.4,0 0,16.800019 -2.4,0 0,7.2 -2.40001,0 0,7.20001 -2.4,0 0,2.4 -2.4,0 0,4.80001 -2.4,0 0,2.4 -2.4,0 0,2.4 -2.40001,0 0,2.4 -2.4,0 0,2.40001 -2.4,0 0,2.4 -2.4,0 0,2.4 -2.4,0 0,2.40001 -4.80001,0 0,2.4 -2.4,0 0,2.4 -7.20001,0 0,2.4 -4.8,0 0,2.4 285.60025,0 0,-2.4 -7.20001,0 0,-2.4 -7.20001,0 0,-2.4 -2.4,0 0,-2.4 -4.8,0 0,-2.40001 -2.4,0 0,-2.4 -2.40001,0 0,-2.4 -2.4,0 0,-2.40001 -2.4,0 0,-2.4 -2.4,0 0,-2.4 -2.4,0 0,-2.4 -2.40001,0 0,-4.80001 -2.4,0 0,-4.8 -2.4,0 0,-4.80001 -2.4,0 0,-9.6 -2.4,0 0,-12.000016 2.4,0 0,-9.60001 2.4,0 0,-7.200007 2.4,0 0,-2.400002 2.4,0 0,-4.800005 2.40001,0 0,-24.000023 -216.00019,0 z"
             style="fill:#000000;fill-opacity:1;fill-rule:nonzero;stroke:none"
             id="path3663"
             inkscape:connector-curvature="0" /><path
             d="m 777.60068,48.000047 0,24.000023 2.4,0 0,4.800005 2.4,0 0,2.400002 2.4,0 0,7.200007 2.4,0 0,7.200007 2.40001,0 0,14.400019 -2.40001,0 0,9.6 -2.4,0 0,4.80001 -2.4,0 0,4.8 -2.4,0 0,4.80001 -2.4,0 0,2.4 -2.40001,0 0,2.4 -2.4,0 0,2.4 -2.4,0 0,2.40001 -2.4,0 0,2.4 -2.40001,0 0,2.4 -2.4,0 0,2.40001 -4.8,0 0,2.4 -2.4,0 0,2.4 -7.20001,0 0,2.4 -4.8,0 0,2.4 316.80025,0 0,-2.4 -7.2,0 0,-2.4 -4.8,0 0,-2.4 -2.4,0 0,-2.4 -4.8,0 0,-2.40001 -2.4,0 0,-2.4 -2.4,0 0,-2.4 -4.8,0 0,-4.80001 -2.4,0 0,-2.4 -2.4,0 0,-2.4 -2.4,0 0,-4.80001 -2.4,0 0,-2.4 -2.4,0 0,-7.20001 -2.4,0 0,-7.2 -2.4,0 0,-19.200021 2.4,0 0,-7.200007 2.4,0 0,-4.800005 2.4,0 0,-4.800004 2.4,0 0,-2.400003 2.4,0 0,-24.000023 -249.60022,0 z"
             style="fill:#000000;fill-opacity:1;fill-rule:nonzero;stroke:none"
             id="path3665"
             inkscape:connector-curvature="0" /><path
             d="m 1118.401,48.000047 0,24.000023 2.4,0 0,4.800005 2.4,0 0,4.800005 2.4,0 0,7.200007 2.4,0 0,12.000013 2.4,0 0,2.4 -2.4,0 0,12.00001 -2.4,0 0,7.20001 -2.4,0 0,4.8 -2.4,0 0,2.40001 -2.4,0 0,4.8 -2.4,0 0,2.4 -2.4,0 0,2.4 -2.4,0 0,2.40001 -2.4,0 0,2.4 -2.4,0 0,2.4 -2.4,0 0,2.40001 -4.8,0 0,2.4 -4.8,0 0,2.4 -4.8001,0 0,2.4 -7.2,0 0,2.4 285.6003,0 0,-2.4 -7.2,0 0,-2.4 -4.8,0 0,-2.4 -4.8,0 0,-2.4 -2.4,0 0,-2.40001 -2.4,0 0,-2.4 -2.4,0 0,-2.4 -4.8,0 0,-4.80001 -2.4,0 0,-2.4 -2.4,0 0,-2.4 -2.4,0 0,-4.80001 -2.4,0 0,-2.4 -2.4,0 0,-7.20001 -2.4,0 0,-4.8 -2.4001,0 0,-21.600021 2.4001,0 0,-7.200007 2.4,0 0,-4.800005 2.4,0 0,-4.800004 2.4,0 0,-2.400003 2.4,0 0,-24.000023 -216.0002,0 z"
             style="fill:#000000;fill-opacity:1;fill-rule:nonzero;stroke:none"
             id="path3667"
             inkscape:connector-curvature="0" /><path
             d="m 1425.6012,48.000047 0,24.000023 2.4,0 0,4.800005 2.4,0 0,4.800005 2.4,0 0,7.200007 2.4,0 0,26.400023 -2.4,0 0,7.20001 -2.4,0 0,4.8 -2.4,0 0,2.40001 -2.4,0 0,4.8 -2.4,0 0,2.4 -2.4,0 0,2.4 -2.4,0 0,2.40001 -2.4,0 0,2.4 -2.4,0 0,2.4 300.0003,0 0,2.40001 7.2,0 0,2.4 4.8,0 0,2.4 4.8,0 0,2.4 4.8,0 0,2.4 2.4,0 0,2.40001 24,0 0,-112.800113 -336.0003,0 z"
             style="fill:#000000;fill-opacity:1;fill-rule:nonzero;stroke:none"
             id="path3669"
             inkscape:connector-curvature="0" /><path
             d="m 1411.2012,146.40014 0,2.40001 -4.8,0 0,2.4 -4.8,0 0,2.4 -4.8,0 0,2.4 -7.2,0 0,2.4 276.0002,0 0,-2.4 4.8001,0 0,-2.4 4.8,0 0,-2.4 4.8,0 0,-2.4 9.6,0 0,-2.40001 -278.4003,0 z"
             style="fill:#000000;fill-opacity:1;fill-rule:nonzero;stroke:none"
             id="path3671"
             inkscape:connector-curvature="0" /><path
             d="m 278.40024,158.40015 0,2.40001 1384.80116,0 0,-2.40001 -1384.80116,0 z"
             style="fill:#000000;fill-opacity:1;fill-rule:nonzero;stroke:none"
             id="path3673"
             inkscape:connector-curvature="0" /><path
             d="m 278.40024,158.40015 0,2.40001 1384.80116,0 0,-2.40001 -1384.80116,0 z"
             style="fill:#000000;fill-opacity:1;fill-rule:nonzero;stroke:none"
             id="path3675"
             inkscape:connector-curvature="0" /><path
             d="m 278.40024,158.40015 0,2.40001 1384.80116,0 0,-2.40001 -1384.80116,0 z"
             style="fill:#000000;fill-opacity:1;fill-rule:nonzero;stroke:none"
             id="path3677"
             inkscape:connector-curvature="0" /><path
             d="m 278.40024,158.40015 0,2.40001 1384.80116,0 0,-2.40001 -1384.80116,0 z"
             style="fill:#000000;fill-opacity:1;fill-rule:nonzero;stroke:none"
             id="path3679"
             inkscape:connector-curvature="0" /><path
             d="m 278.40024,158.40015 0,2.40001 1384.80116,0 0,-2.40001 -1384.80116,0 z"
             style="fill:#000000;fill-opacity:1;fill-rule:nonzero;stroke:none"
             id="path3681"
             inkscape:connector-curvature="0" /><path
             d="m 280.80024,160.80016 0,2.4 2.40001,0 0,2.4 4.8,0 0,2.4 2.4,0 0,2.40001 2.4,0 0,4.8 2.40001,0 0,2.4 2.4,0 0,2.4 2.4,0 0,2.40001 463.2004,0 0,2.4 148.80013,0 0,2.4 4.80001,0 0,2.4 4.8,0 0,2.40001 4.8,0 0,2.4 2.40001,0 0,2.4 4.8,0 0,2.4 4.8,0 0,2.40001 2.40001,0 0,2.4 4.8,0 0,2.4 2.4,0 0,2.4 4.80001,0 0,2.40001 4.8,0 0,2.4 2.4,0 0,2.4 4.80001,0 0,2.4 4.8,0 0,2.4 2.4,0 0,2.40001 4.80001,0 0,2.4 2.4,0 0,2.4 4.8,0 0,2.4 4.80001,0 0,2.40001 2.4,0 0,2.4 4.8,0 0,2.4 4.80004,0 0,2.4 2.4,0 0,2.40001 4.8,0 0,2.4 4.8,0 0,2.4 2.4,0 0,2.4 4.8,0 0,2.4 2.4,0 0,2.40001 4.8,0 0,2.4 360.0003,0 0,2.4 7.2,0 0,2.4 7.2,0 0,2.40001 4.8,0 0,2.4 2.4,0 0,2.4 2.4,0 0,2.4 4.8,0 0,2.40001 271.2003,0 0,-2.40001 -7.2,0 0,-2.4 -7.2,0 0,-2.4 -2.4,0 0,-2.4 -4.8001,0 0,-2.40001 -2.4,0 0,-2.4 -2.4,0 0,-2.4 -4.8,0 0,-2.4 -2.4,0 0,-4.80001 -2.4,0 0,-2.4 -2.4,0 0,-2.4 -2.4,0 0,-4.80001 -2.4,0 0,-4.8 -2.4,0 0,-4.80001 -2.4,0 0,-7.2 -2.4,0 0,-24.00003 2.4,0 0,-9.60001 2.4,0 0,-4.8 2.4,0 0,-4.80001 2.4,0 0,-4.8 2.4,0 0,-2.4 2.4,0 0,-2.4 2.4,0 0,-2.40001 2.4,0 0,-2.4 2.4,0 0,-2.4 2.4,0 0,-2.4 -1380.00116,0 z"
             style="fill:#000000;fill-opacity:1;fill-rule:nonzero;stroke:none"
             id="path3683"
             inkscape:connector-curvature="0" /><path
             d="m 1032.0009,256.80025 0,2.4 33.6,0 0,-2.4 -33.6,0 z"
             style="fill:#000000;fill-opacity:1;fill-rule:nonzero;stroke:none"
             id="path3685"
             inkscape:connector-curvature="0" /><path
             d="m 1080.0009,256.80025 0,2.4 7.2,0 0,2.4 7.2001,0 0,2.40001 4.8,0 0,2.4 2.4,0 0,2.4 4.8,0 0,2.4 2.4,0 0,2.40001 2.4,0 0,2.4 2.4,0 0,2.4 2.4,0 0,4.80001 2.4,0 0,2.4 2.4,0 0,4.8 2.4,0 0,2.40001 2.4,0 0,7.2 2.4,0 0,12.00001 2.4,0 0,2.40001 -2.4,0 0,14.40001 -2.4,0 0,4.8 -2.4,0 0,4.80001 -2.4,0 0,4.8 -2.4,0 0,2.40001 -2.4,0 0,24.00002 218.4002,0 0,-24.00002 -2.4,0 0,-4.80001 -2.4,0 0,-4.8 -2.4,0 0,-4.80001 -2.4,0 0,-7.2 -2.4001,0 0,-19.20002 2.4001,0 0,-7.20001 2.4,0 0,-7.20001 2.4,0 0,-2.4 2.4,0 0,-4.8 2.4,0 0,-2.40001 2.4,0 0,-2.4 2.4,0 0,-2.4 2.4,0 0,-2.4 2.4,0 0,-2.40001 2.4,0 0,-2.4 2.4,0 0,-2.4 4.8,0 0,-2.4 4.8,0 0,-2.40001 4.8,0 0,-2.4 7.2,0 0,-2.4 -290.4003,0 z"
             style="fill:#000000;fill-opacity:1;fill-rule:nonzero;stroke:none"
             id="path3687"
             inkscape:connector-curvature="0" /><path
             d="m 1737.6015,259.20025 0,2.4 -2.4,0 0,2.40001 -4.8,0 0,2.4 -2.4,0 0,2.4 -4.8,0 0,2.4 -9.6,0 0,2.40001 48,0 0,-14.40002 -24,0 z"
             style="fill:#000000;fill-opacity:1;fill-rule:nonzero;stroke:none"
             id="path3689"
             inkscape:connector-curvature="0" /><path
             d="m 1418.4012,273.60027 0,2.4 343.2003,0 0,-2.4 -343.2003,0 z"
             style="fill:#000000;fill-opacity:1;fill-rule:nonzero;stroke:none"
             id="path3691"
             inkscape:connector-curvature="0" /><path
             d="m 1418.4012,273.60027 0,2.4 343.2003,0 0,-2.4 -343.2003,0 z"
             style="fill:#000000;fill-opacity:1;fill-rule:nonzero;stroke:none"
             id="path3693"
             inkscape:connector-curvature="0" /><path
             d="m 1420.8012,276.00027 0,2.4 2.4,0 0,4.80001 2.4,0 0,2.4 2.4,0 0,4.8 2.4,0 0,2.40001 2.4,0 0,7.2 2.4,0 0,28.80003 -2.4,0 0,4.8 -2.4,0 0,4.80001 -2.4,0 0,4.8 -2.4,0 0,2.40001 -2.4,0 0,24.00002 338.4003,0 0,-93.60009 -340.8003,0 z"
             style="fill:#000000;fill-opacity:1;fill-rule:nonzero;stroke:none"
             id="path3695"
             inkscape:connector-curvature="0" /></g><g
           id="g3697"><path
             d="m 396.00034,43.200042 51.60005,0 0,36.000035 -51.60005,0 0,-36.000035 z"
             style="fill:#000000;fill-opacity:1;fill-rule:nonzero;stroke:none"
             id="path3699"
             inkscape:connector-curvature="0" /></g><g
           id="g3701"><path
             d="m 441.60038,74.400073 40.80004,0 0,51.600047 -40.80004,0 0,-51.600047 z"
             style="fill:#000000;fill-opacity:1;fill-rule:nonzero;stroke:none"
             id="path3703"
             inkscape:connector-curvature="0" /></g><g
           id="g3705"><path
             d="m 703.20061,43.200042 51.60005,0 0,36.000035 -51.60005,0 0,-36.000035 z"
             style="fill:#000000;fill-opacity:1;fill-rule:nonzero;stroke:none"
             id="path3707"
             inkscape:connector-curvature="0" /></g><g
           id="g3709"><path
             d="m 669.60058,74.400073 38.40003,0 0,51.600047 -38.40003,0 0,-51.600047 z"
             style="fill:#000000;fill-opacity:1;fill-rule:nonzero;stroke:none"
             id="path3711"
             inkscape:connector-curvature="0" /></g><g
           id="g3713"><path
             d="m 219.60019,31.20003 54.00005,0 0,31.200031 -54.00005,0 0,-31.200031 z"
             style="fill:#000000;fill-opacity:1;fill-rule:nonzero;stroke:none"
             id="path3715"
             inkscape:connector-curvature="0" /></g><g
           id="g3717"><path
             d="m 184.80016,58.800057 38.40003,0 0,54.000053 -38.40003,0 0,-54.000053 z"
             style="fill:#000000;fill-opacity:1;fill-rule:nonzero;stroke:none"
             id="path3719"
             inkscape:connector-curvature="0" /></g><g
           id="g3721"><path
             d="m 1044.0009,43.200042 51.6001,0 0,36.000035 -51.6001,0 0,-36.000035 z"
             style="fill:#000000;fill-opacity:1;fill-rule:nonzero;stroke:none"
             id="path3723"
             inkscape:connector-curvature="0" /></g><g
           id="g3725"><path
             d="m 1044.0009,120.00012 51.6001,0 0,38.40003 -51.6001,0 0,-38.40003 z"
             style="fill:#000000;fill-opacity:1;fill-rule:nonzero;stroke:none"
             id="path3727"
             inkscape:connector-curvature="0" /></g><g
           id="g3729"><path
             d="m 1089.6009,74.400073 40.8001,0 0,51.600047 -40.8001,0 0,-51.600047 z"
             style="fill:#000000;fill-opacity:1;fill-rule:nonzero;stroke:none"
             id="path3731"
             inkscape:connector-curvature="0" /></g><g
           id="g3733"><path
             d="m 1351.2012,43.200042 51.6,0 0,36.000035 -51.6,0 0,-36.000035 z"
             style="fill:#000000;fill-opacity:1;fill-rule:nonzero;stroke:none"
             id="path3735"
             inkscape:connector-curvature="0" /></g><g
           id="g3737"><path
             d="m 1351.2012,120.00012 51.6,0 0,38.40003 -51.6,0 0,-38.40003 z"
             style="fill:#000000;fill-opacity:1;fill-rule:nonzero;stroke:none"
             id="path3739"
             inkscape:connector-curvature="0" /></g><g
           id="g3741"><path
             d="m 1317.6011,74.400073 38.4001,0 0,51.600047 -38.4001,0 0,-51.600047 z"
             style="fill:#000000;fill-opacity:1;fill-rule:nonzero;stroke:none"
             id="path3743"
             inkscape:connector-curvature="0" /></g><g
           id="g3745"><path
             d="m 1396.8012,74.400073 38.4,0 0,51.600047 -38.4,0 0,-51.600047 z"
             style="fill:#000000;fill-opacity:1;fill-rule:nonzero;stroke:none"
             id="path3747"
             inkscape:connector-curvature="0" /></g><g
           id="g3749" /><g
           id="g3751"
           transform="matrix(-1.0000009,0,0,-1.000001,332.84029,412.9594)"><path
             d="m 118.8,84 c 0,19.21951 -15.58049,34.8 -34.8,34.8 -19.219509,0 -34.8,-15.58049 -34.8,-34.8 0,-19.219509 15.580491,-34.8 34.8,-34.8 19.21951,0 34.8,15.580491 34.8,34.8 z"
             style="fill:none;stroke:#000000;stroke-width:24;stroke-linecap:butt;stroke-linejoin:miter;stroke-miterlimit:10;stroke-dasharray:none;stroke-opacity:1"
             id="path3753"
             inkscape:connector-curvature="0" /></g><g
           id="g3755" /><g
           id="g3757"
           transform="matrix(-1.0000009,0,0,-1.000001,332.84029,412.9594)"><path
             d="m 118.8,204 c 0,19.21951 -15.58049,34.8 -34.8,34.8 -19.219509,0 -34.8,-15.58049 -34.8,-34.8 0,-19.21951 15.580491,-34.8 34.8,-34.8 19.21951,0 34.8,15.58049 34.8,34.8 z"
             style="fill:none;stroke:#000000;stroke-width:24;stroke-linecap:butt;stroke-linejoin:miter;stroke-miterlimit:10;stroke-dasharray:none;stroke-opacity:1"
             id="path3759"
             inkscape:connector-curvature="0" /></g><g
           id="g3761" /><g
           id="g3763"
           transform="matrix(-1.0000009,0,0,-1.000001,332.84029,412.9594)"><path
             d="m 118.8,324 c 0,19.21951 -15.58049,34.8 -34.8,34.8 -19.219509,0 -34.8,-15.58049 -34.8,-34.8 0,-19.21951 15.580491,-34.8 34.8,-34.8 19.21951,0 34.8,15.58049 34.8,34.8 z"
             style="fill:none;stroke:#000000;stroke-width:24;stroke-linecap:butt;stroke-linejoin:miter;stroke-miterlimit:10;stroke-dasharray:none;stroke-opacity:1"
             id="path3765"
             inkscape:connector-curvature="0" /></g><g
           id="g3767"><path
             d="m 160.49344,210.2824 c 0,28.70144 -23.26711,51.96855 -51.96855,51.96855 -28.701431,0 -51.968541,-23.26711 -51.968541,-51.96855 0,-28.70143 23.26711,-51.96855 51.968541,-51.96855 28.70144,0 51.96855,23.26712 51.96855,51.96855 z"
             style="fill:#000000;fill-opacity:1;fill-rule:evenodd;stroke:none"
             id="path3769"
             inkscape:connector-curvature="0" /></g><g
           id="g3771"><path
             d="m 1752.6252,210.2824 c 0,28.70144 -23.2671,51.96855 -51.9685,51.96855 -28.7015,0 -51.9686,-23.26711 -51.9686,-51.96855 0,-28.70143 23.2671,-51.96855 51.9686,-51.96855 28.7014,0 51.9685,23.26712 51.9685,51.96855 z"
             style="fill:#000000;fill-opacity:1;fill-rule:evenodd;stroke:none"
             id="path3773"
             inkscape:connector-curvature="0" /></g><g
           id="g3775" /><g
           id="g3777"
           transform="translate(1031.9609,54.184753)"><path
             d="m 380.436,260.04 c 0,18.2254 -14.7746,33 -33,33 -18.2254,0 -33,-14.7746 -33,-33 0,-18.2254 14.7746,-33 33,-33 18.2254,0 33,14.7746 33,33 z"
             style="fill:none;stroke:#000000;stroke-width:24;stroke-linecap:butt;stroke-linejoin:miter;stroke-miterlimit:10;stroke-dasharray:none;stroke-opacity:1"
             id="path3779"
             inkscape:connector-curvature="0" /></g><g
           id="g3781" /><g
           id="g3783"
           transform="translate(1031.9609,54.184753)"><path
             d="m 73.344,260.04 c 0,18.2254 -14.774603,33 -33,33 -18.225397,0 -33,-14.7746 -33,-33 0,-18.2254 14.774603,-33 33,-33 18.225397,0 33,14.7746 33,33 z"
             style="fill:none;stroke:#000000;stroke-width:24;stroke-linecap:butt;stroke-linejoin:miter;stroke-miterlimit:10;stroke-dasharray:none;stroke-opacity:1"
             id="path3785"
             inkscape:connector-curvature="0" /></g><g
           id="g3787" /><g
           id="g3789"
           transform="translate(1031.9609,54.184753)"><path
             d="m 380.436,47.436 c 0,18.225397 -14.7746,33 -33,33 -18.2254,0 -33,-14.774603 -33,-33 0,-18.225397 14.7746,-33 33,-33 18.2254,0 33,14.774603 33,33 z"
             style="fill:none;stroke:#000000;stroke-width:24;stroke-linecap:butt;stroke-linejoin:miter;stroke-miterlimit:10;stroke-dasharray:none;stroke-opacity:1"
             id="path3791"
             inkscape:connector-curvature="0" /></g><g
           id="g3793" /><g
           id="g3795"
           transform="translate(1031.9609,54.184753)"><path
             d="m 73.344,47.436 c 0,18.225397 -14.774603,33 -33,33 -18.225397,0 -33,-14.774603 -33,-33 0,-18.225397 14.774603,-33 33,-33 18.225397,0 33,14.774603 33,33 z"
             style="fill:none;stroke:#000000;stroke-width:24;stroke-linecap:butt;stroke-linejoin:miter;stroke-miterlimit:10;stroke-dasharray:none;stroke-opacity:1"
             id="path3797"
             inkscape:connector-curvature="0" /></g><g
           id="g3799" /><g
           id="g3801"
           transform="translate(384.71633,54.184753)"><path
             d="m 380.436,260.04 c 0,18.2254 -14.7746,33 -33,33 -18.2254,0 -33,-14.7746 -33,-33 0,-18.2254 14.7746,-33 33,-33 18.2254,0 33,14.7746 33,33 z"
             style="fill:none;stroke:#000000;stroke-width:24;stroke-linecap:butt;stroke-linejoin:miter;stroke-miterlimit:10;stroke-dasharray:none;stroke-opacity:1"
             id="path3803"
             inkscape:connector-curvature="0" /></g><g
           id="g3805" /><g
           id="g3807"
           transform="translate(384.71633,54.184753)"><path
             d="m 73.344,260.04 c 0,18.2254 -14.774603,33 -33,33 -18.225397,0 -33,-14.7746 -33,-33 0,-18.2254 14.774603,-33 33,-33 18.225397,0 33,14.7746 33,33 z"
             style="fill:none;stroke:#000000;stroke-width:24;stroke-linecap:butt;stroke-linejoin:miter;stroke-miterlimit:10;stroke-dasharray:none;stroke-opacity:1"
             id="path3809"
             inkscape:connector-curvature="0" /></g><g
           id="g3811" /><g
           id="g3813"
           transform="translate(384.71633,54.184753)"><path
             d="m 380.436,47.436 c 0,18.225397 -14.7746,33 -33,33 -18.2254,0 -33,-14.774603 -33,-33 0,-18.225397 14.7746,-33 33,-33 18.2254,0 33,14.774603 33,33 z"
             style="fill:none;stroke:#000000;stroke-width:24;stroke-linecap:butt;stroke-linejoin:miter;stroke-miterlimit:10;stroke-dasharray:none;stroke-opacity:1"
             id="path3815"
             inkscape:connector-curvature="0" /></g><g
           id="g3817" /><g
           id="g3819"
           transform="translate(384.71633,54.184753)"><path
             d="m 73.344,47.436 c 0,18.225397 -14.774603,33 -33,33 -18.225397,0 -33,-14.774603 -33,-33 0,-18.225397 14.774603,-33 33,-33 18.225397,0 33,14.774603 33,33 z"
             style="fill:none;stroke:#000000;stroke-width:24;stroke-linecap:butt;stroke-linejoin:miter;stroke-miterlimit:10;stroke-dasharray:none;stroke-opacity:1"
             id="path3821"
             inkscape:connector-curvature="0" /></g><g
           id="g3823"><path
             d="m 390.847,317.085 -105.999,8.864"
             style="fill:none;stroke:#000000;stroke-width:28.79999924;stroke-linecap:round;stroke-linejoin:miter;stroke-miterlimit:10;stroke-dasharray:none;stroke-opacity:1"
             id="path3825"
             inkscape:connector-curvature="0" /><path
             d="M 1043.04,296.271 902.946,210.332"
             style="fill:none;stroke:#000000;stroke-width:28.79999924;stroke-linecap:round;stroke-linejoin:miter;stroke-miterlimit:10;stroke-dasharray:none;stroke-opacity:1"
             id="path3827"
             inkscape:connector-curvature="0" /><path
             d="M 902.946,210.332 284.973,209.035"
             style="fill:none;stroke:#000000;stroke-width:28.79999924;stroke-linecap:round;stroke-linejoin:miter;stroke-miterlimit:10;stroke-dasharray:none;stroke-opacity:1"
             id="path3829"
             inkscape:connector-curvature="0" /><path
             d="M 390.815,99.1602 284.88,91.5488"
             style="fill:none;stroke:#000000;stroke-width:28.79999924;stroke-linecap:round;stroke-linejoin:miter;stroke-miterlimit:10;stroke-dasharray:none;stroke-opacity:1"
             id="path3831"
             inkscape:connector-curvature="0" /><path
             d="m 766.486,101.621 271.484,0"
             style="fill:none;stroke:#000000;stroke-width:28.79999924;stroke-linecap:round;stroke-linejoin:miter;stroke-miterlimit:10;stroke-dasharray:none;stroke-opacity:1"
             id="path3833"
             inkscape:connector-curvature="0" /></g><g
           id="g3835" /></g></g><path
       style="fill:#000000;fill-opacity:1;stroke:#000000;stroke-width:0.09320809;stroke-opacity:1"
       d="m 16.125,24.070448 0,-0.512645 1.794256,0.01492 c 0.98684,0.0082 1.657939,0.03183 1.491329,0.05251 -0.166609,0.02068 -0.302926,0.07688 -0.302926,0.124895 0,0.04802 -0.0956,0.0873 -0.212444,0.0873 -0.116844,0 -0.272906,0.08389 -0.346805,0.186416 -0.0739,0.102529 -0.199729,0.186416 -0.279624,0.186416 -0.07989,0 -0.205726,0.08389 -0.279624,0.186416 -0.117751,0.16337 -0.241287,0.186416 -0.999262,0.186416 l -0.8649,0 0,-0.512644 z"
       id="path3837"
       inkscape:connector-curvature="0"
       transform="matrix(0.8,0,0,-0.8,0,45)" /><path
       style="fill:#000000;fill-opacity:1;stroke:#000000;stroke-width:0.01165101;stroke-opacity:1"
       d="m 17.024989,23.507359 c 0.498731,-0.0017 1.311389,-0.0017 1.805907,10e-7 0.494519,0.0017 0.08647,0.0031 -0.906782,0.0031 -0.993249,0 -1.397855,-0.0014 -0.899125,-0.0031 z"
       id="path3839"
       inkscape:connector-curvature="0"
       transform="matrix(0.8,0,0,-0.8,0,45)" /><path
       style="fill:#000000;fill-opacity:1;stroke:#000000;stroke-width:0.01165101;stroke-opacity:1"
       d="m 25.130264,26.650219 0,-0.267973 -0.08738,0 -0.08738,0 0,-0.180591 0,-0.180591 -0.09321,0 -0.09321,0 0,-0.09321 0,-0.09321 -0.08738,0 -0.08738,0 0,-0.174765 0,-0.174765 -0.09321,0 -0.09321,0 0,-0.09321 0,-0.09321 -0.08738,0 -0.08738,0 0,-0.08738 0,-0.08738 -0.09321,0 -0.09321,0 0,-0.09321 0,-0.09321 -0.08738,0 -0.08738,0 0,-0.08738 0,-0.08738 -0.09321,0 -0.09321,0 0,-0.09321 0,-0.09321 -0.08738,0 -0.08738,0 0,-0.08738 0,-0.08738 -0.180591,0 -0.180591,0 0,-0.09321 0,-0.09321 -0.08738,0 -0.08738,0 0,-0.08738 0,-0.08738 -0.1801,0 -0.180101,0 -0.0034,-0.0903 -0.0034,-0.0903 -0.177678,-0.0032 -0.177678,-0.0032 0,-0.08708 0,-0.08708 -0.361181,0 -0.361181,0 0,-0.08738 0,-0.08738 -1.243746,0.0027 c -0.68406,0.0015 -1.090389,0.0042 -0.902953,0.006 l 0.340792,0.0033 0,0.08138 0,0.08138 -0.19684,0 c -0.165217,0 -0.209204,0.0038 -0.273799,0.02377 l -0.07696,0.02377 0,0.06192 0,0.06192 -0.07864,0.0073 c -0.209828,0.01937 -0.285832,0.03144 -0.334973,0.05318 -0.08348,0.03693 -0.122329,0.06901 -0.122329,0.101024 0,0.02095 -0.0063,0.02833 -0.02429,0.02833 -0.02518,0 -0.162072,0.134206 -0.162105,0.158927 -9e-6,0.0073 -0.01706,0.0157 -0.03788,0.01866 -0.02083,0.003 -0.06408,0.01203 -0.09612,0.02018 -0.158376,0.04026 -0.215544,0.07456 -0.215544,0.129316 0,0.02906 -0.0045,0.03411 -0.03063,0.03411 -0.03639,0 -0.155786,0.116888 -0.155786,0.15251 0,0.01838 -0.0086,0.0223 -0.04952,0.02249 -0.02723,1.28e-4 -0.09408,0.0085 -0.14855,0.01868 -0.08163,0.01521 -0.233629,0.01944 -0.865088,0.02413 l -0.766054,0.0057 0,-0.554482 c 0,-0.546715 3.27e-4,-0.554482 0.0233,-0.554482 0.02325,0 0.0233,-0.0078 0.0233,-3.693371 l 0,-3.69337 5.481801,0 5.481801,0 0,0.407785 0,0.407785 0.701974,-2.57e-4 0.701973,-2.57e-4 0.09818,-0.107515 c 0.09661,-0.105799 0.267457,-0.269467 0.353247,-0.338411 l 0.04374,-0.03515 0,-0.277674 0,-0.277675 2.021451,0 2.02145,0 0,0.156989 0,0.156988 0.101947,0.06869 c 0.331586,0.223409 0.665434,0.547185 0.890872,0.863995 0.245091,0.344428 0.429327,0.729949 0.533718,1.116826 0.01947,0.07218 0.03041,0.09488 0.0457,0.09488 0.03009,0 0.824207,0.05669 0.894867,0.06388 l 0.06117,0.0062 0,-0.07583 0,-0.07583 -0.08738,0 -0.08738,0 0,-1.077719 0,-1.077718 2.784591,0 2.784592,0 0,0.897127 0,0.897128 -0.09321,0 -0.09321,0 0,0.180591 0,0.180591 -0.08738,0 -0.08738,0 0,0.174275 0,0.174275 -0.0903,0.0034 -0.09029,0.0034 -0.0035,0.07282 c -0.0035,0.07281 -0.0035,0.07282 0.02913,0.07278 0.01793,-2.4e-5 0.215953,0.01353 0.440055,0.03011 0.28465,0.02106 0.408724,0.02635 0.411653,0.01756 0.0023,-0.0069 0.04265,-0.08994 0.08964,-0.184482 0.170599,-0.343207 0.353936,-0.595863 0.643464,-0.886757 l 0.20126,-0.202211 0,-0.825991 0,-0.825991 0.11651,0 0.116511,0 0,3.496225 0,3.496225 -0.06499,-0.04611 c -0.114001,-0.08087 -0.319246,-0.260955 -0.426493,-0.374204 -0.278806,-0.29441 -0.504271,-0.632394 -0.657481,-0.9856 -0.06431,-0.148259 -0.167597,-0.44284 -0.167597,-0.478002 0,-0.0098 -0.0066,-0.02013 -0.01456,-0.02301 -0.01648,-0.0059 -0.791058,-0.06394 -0.853618,-0.06394 l -0.0406,0 0,0.122336 0,0.122336 0.08738,0 0.08738,0 0,0.267973 0,0.267973 0.09321,0 0.09321,0 0,0.180591 0,0.18059 0.08738,0 0.08738,0 0,0.180591 0,0.180591 0.09321,0 0.09321,0 0,0.08738 0,0.08738 0.08738,0 0.08738,0 0,0.09321 0,0.09321 0.09321,0 0.09321,0 0,0.08738 0,0.08738 0.08738,0 0.08738,0 0,0.09321 0,0.09321 0.08738,0 0.08738,0 0,0.08738 0,0.08738 0.09272,0 0.09272,0 0.0034,0.09029 0.0034,0.0903 0.08447,0.0034 0.08447,0.0034 0,0.08687 0,0.08687 0.180591,0 0.18059,0 0,0.08738 0,0.08738 0.03495,0 0.03495,0 0,1.165101 0,1.165102 -3.716673,0 -3.716673,0 0,-0.08738 0,-0.08738 -0.09321,0 -0.09321,0 0,-0.09321 0,-0.09321 -0.08738,0 -0.08738,0 0,-0.08738 0,-0.08738 -0.09321,0 -0.09321,0 0,-0.180591 0,-0.18059 -0.08738,0 -0.08738,0 0,-0.08738 0,-0.08738 -0.09321,0 -0.09321,0 0,-0.09321 0,-0.09321 -0.174765,0 -0.174765,0 0,-0.08738 0,-0.08738 -0.09321,0 -0.09321,0 0,-0.08738 0,-0.08738 -0.095,0 -0.095,0 0.0076,-0.141641 c 0.0042,-0.0779 0.0076,-0.481611 0.0076,-0.897128 l 0,-0.755487 0.08738,0 0.08738,0 0,-0.09321 0,-0.09321 0.18059,0 0.180591,0 0,-0.08738 0,-0.08738 0.08738,0 0.08738,0 0,-0.09321 0,-0.09321 0.09321,0 0.09321,0 0,-0.08738 0,-0.08738 0.08738,0 0.08738,0 0,-0.18059 0,-0.180591 0.09321,0 0.09321,0 0,-0.08738 0,-0.08738 0.08738,0 0.08738,0 0,-0.09321 0,-0.09321 0.09321,0 0.09321,0 0,-0.180591 0,-0.180591 0.08738,0 0.08738,0 0,-0.18059 0,-0.180591 0.09321,0 c 0.08472,0 0.09321,-0.0021 0.09321,-0.02277 0,-0.01671 -0.01008,-0.02435 -0.03787,-0.02868 -0.0985,-0.01537 -0.909298,-0.06618 -0.917262,-0.05747 -0.005,0.0054 -0.03111,0.05971 -0.05806,0.120584 -0.247264,0.558556 -0.690354,1.087644 -1.21216,1.447424 -0.43388,0.299156 -0.945293,0.498477 -1.491329,0.581239 -0.155415,0.02356 -0.223632,0.02734 -0.489343,0.02717 -0.348738,-2.22e-4 -0.534866,-0.02121 -0.827221,-0.09326 -0.867234,-0.213744 -1.609945,-0.737588 -2.101344,-1.482108 l -0.09429,-0.142861 -0.443028,0.003 -0.443029,0.003 0,0.09321 0,0.09321 0.09029,0.0034 0.0903,0.0034 0,0.1801 0,0.180101 0.08738,0 0.08738,0 0,0.08738 0,0.08738 0.09321,0 0.09321,0 0,0.08738 0,0.08738 0.08738,0 0.08738,0 0,0.09321 0,0.09321 0.09321,0 0.09321,0 0,0.08738 0,0.08738 0.08738,0 0.08738,0 0,0.09321 0,0.09321 0.09321,0 0.09321,0 0,0.08738 0,0.08738 0.08738,0 0.08738,0 0,0.09321 0,0.09321 0.09321,0 0.09321,0 0,0.891303 0,0.891302 -0.09321,0 -0.09321,0 0,0.09321 0,0.09321 -0.08738,0 -0.08738,0 0,0.08738 0,0.08738 -0.09321,0 -0.09321,0 0,0.09321 0,0.09321 -0.08738,0 -0.08738,0 0,0.08738 0,0.08738 -0.09321,0 -0.09321,0 0,0.09321 0,0.09321 -0.08738,0 -0.08738,0 0,0.08738 0,0.08738 -0.09321,0 -0.09321,0 0,0.08738 0,0.08738 -0.08738,0 -0.08738,0 0,0.180101 0,0.1801 -0.0903,0.0034 -0.09029,0.0034 -0.0032,0.177678 -0.0032,0.177678 -0.08708,0 -0.08708,0 0,0.180591 0,0.18059 -0.98451,0 -0.984511,0 0,-0.267973 z m -8.356479,-3.142447 c -0.01751,-0.0027 -0.04896,-0.0027 -0.06991,-1.19e-4 -0.02094,0.0026 -0.0066,0.0048 0.03183,0.0048 0.03845,7e-5 0.05558,-0.0021 0.03807,-0.0047 z m 14.653851,-2.614263 c 0.62562,-0.0813 1.166377,-0.525915 1.380248,-1.134863 0.03629,-0.103343 0.03662,-0.106231 0.02275,-0.19968 -0.02096,-0.141255 -0.0083,-0.335021 0.03062,-0.468043 l 0.03173,-0.108474 -0.02052,-0.10707 C 32.8061,18.529185 32.65336,18.244681 32.395491,17.98694 c -0.259845,-0.259716 -0.55078,-0.413514 -0.906995,-0.479468 -0.149134,-0.02761 -0.465333,-0.02704 -0.608035,0.0011 -0.539083,0.1063 -0.986395,0.44249 -1.226569,0.921862 -0.114327,0.228191 -0.165115,0.433607 -0.174279,0.704887 -0.0072,0.213961 0.0097,0.363038 0.06164,0.542125 0.197727,0.682029 0.816927,1.182012 1.519374,1.226846 0.14133,0.009 0.236049,0.0062 0.367007,-0.01078 z"
       id="path3841"
       inkscape:connector-curvature="0"
       transform="matrix(0.8,0,0,-0.8,0,45)" /><path
       style="fill:#000000;fill-opacity:1;stroke:#000000;stroke-width:0.02330202;stroke-opacity:1"
       d="m 89.567478,31.683025 0,-0.08156 -0.174765,0 -0.174765,0 0,-0.09321 c 0,-0.09321 0,-0.09321 -0.09321,-0.09321 -0.09321,0 -0.09321,0 -0.09321,-0.09321 l 0,-0.09321 -0.174765,0 -0.174765,0 0,-0.08156 c 0,-0.07962 -0.0022,-0.08156 -0.09321,-0.08156 -0.09321,0 -0.09321,0 -0.09321,-0.09321 l 0,-0.09321 -0.174765,0 -0.174765,0 0,-0.09321 0,-0.09321 -0.186417,0 -0.186416,0 0,-0.09321 c 0,-0.09321 0,-0.09321 -0.09321,-0.09321 -0.09099,0 -0.09321,-0.0019 -0.09321,-0.08156 l 0,-0.08156 -0.174765,0 -0.174765,0 0,-0.09321 0,-0.09321 -0.186417,0 -0.186416,0 0,-0.09321 c 0,-0.09068 -0.0022,-0.09321 -0.08015,-0.09321 -0.0758,0 -0.08054,-0.0047 -0.08738,-0.08738 l -0.0072,-0.08738 -0.180591,-0.0068 -0.18059,-0.0068 0,-0.08058 0,-0.08058 -0.174765,0 -0.174766,0 0,-0.09321 c 0,-0.09321 0,-0.09321 -0.09321,-0.09321 -0.09321,0 -0.09321,0 -0.09321,-0.09321 l 0,-0.09321 -0.174765,0 -0.174765,0 0,-0.08156 c 0,-0.07961 -0.0022,-0.08156 -0.09321,-0.08156 -0.09321,0 -0.09321,0 -0.09321,-0.09321 l 0,-0.09321 -0.173358,0 -0.17336,0 -0.0072,-0.08738 -0.0072,-0.08738 -0.18059,-0.0068 -0.180591,-0.0068 0,-0.09223 c 0,-0.09207 -2.33e-4,-0.09223 -0.09321,-0.09223 -0.09099,0 -0.09321,-0.0019 -0.09321,-0.08156 l 0,-0.08156 -0.174765,0 -0.174766,0 0,-0.09321 0,-0.09321 -0.186416,0 -0.186416,0 0,-0.09321 c 0,-0.09068 -0.0022,-0.09321 -0.08015,-0.09321 -0.0758,0 -0.08054,-0.0047 -0.08738,-0.08738 l -0.0072,-0.08738 -0.180591,-0.0068 -0.180591,-0.0068 0,-0.08058 c 0,-0.07655 -0.0041,-0.08058 -0.08156,-0.08058 -0.07962,0 -0.08156,-0.0022 -0.08156,-0.09321 l 0,-0.09321 -0.186416,0 -0.186416,0 0,-0.09321 0,-0.09321 -0.174765,0 -0.174765,0 0,-0.08156 c 0,-0.07962 -0.0022,-0.08156 -0.09321,-0.08156 -0.09321,0 -0.09321,0 -0.09321,-0.09321 l 0,-0.09321 -0.186416,0 -0.186416,0 0,-0.09321 0,-0.09321 -0.174765,0 -0.174765,0 0,-0.09321 0,-0.09321 -0.174765,0 -0.174766,0 0,-0.08156 0,-0.08156 -5.580834,0 -5.580835,0 0,-0.09321 0,-0.09321 -12.79281,0 -12.792811,0 0,-0.897127 0,-0.897128 0.547597,0 0.547598,0 0,-0.08058 0,-0.08058 0.180591,-0.0068 0.18059,-0.0068 0.0072,-0.08738 0.0072,-0.08738 0.266566,0 0.266567,0 0,-0.09321 c 0,-0.09099 0.0019,-0.09321 0.08156,-0.09321 0.07767,0 0.08156,-0.0039 0.08156,-0.08156 l 0,-0.08156 0.186416,0 0.186416,0 0,-0.09321 c 0,-0.09321 0,-0.09321 0.09321,-0.09321 0.09321,0 0.09321,0 0.09321,-0.09321 0,-0.09099 0.0019,-0.09321 0.08156,-0.09321 0.07767,0 0.08156,-0.0039 0.08156,-0.08156 0,-0.07962 0.0022,-0.08156 0.09321,-0.08156 0.09321,0 0.09321,0 0.09321,-0.09321 0,-0.09321 0,-0.09321 0.09321,-0.09321 0.09297,0 0.09321,-2.35e-4 0.09321,-0.0918 0,-0.08926 0.0024,-0.092 0.08738,-0.09903 0.08264,-0.0068 0.08778,-0.01198 0.09461,-0.09462 0.0068,-0.08264 0.01158,-0.08738 0.08738,-0.08738 0.07607,0 0.08015,-0.0042 0.08015,-0.08156 0,-0.07962 0.0022,-0.08156 0.09321,-0.08156 l 0.09321,0 0,-0.186417 0,-0.186416 0.09483,0 c 0.08501,0 0.09406,-0.0054 0.08738,-0.05243 -0.0074,-0.05209 -0.01038,-0.05247 -0.465925,-0.05874 l -0.458478,-0.0063 -0.110747,0.146124 c -0.36843,0.486121 -0.740391,0.801963 -1.239676,1.052643 -0.428591,0.215186 -0.888036,0.331439 -1.408514,0.356395 l -0.297101,0.01425 0,-0.897856 0,-0.897855 0.273799,-0.01067 c 0.425058,-0.01657 0.710777,-0.135813 1.028123,-0.429084 l 0.154454,-0.142737 0.0066,-0.986513 0.0066,-0.986513 -0.174122,-0.168022 C 45.20035,18.720412 44.829532,18.57038 44.413983,18.566707 l -0.215544,-0.0019 0,-1.392704 0,-1.392704 0.943732,0 0.943732,0 0,0.730273 0,0.730274 0.05243,0.02403 c 0.179608,0.08233 0.687259,0.519671 0.848225,0.730745 l 0.08761,0.114877 0.548635,-0.0039 c 0.301749,-0.0022 0.509313,-0.008 0.461252,-0.01306 -0.08227,-0.0086 -0.08738,-0.01383 -0.08738,-0.08929 0,-0.07797 -0.0025,-0.08015 -0.09321,-0.08015 l -0.09321,0 0,-0.897128 0,-0.897128 8.097453,0 8.097454,0 0,0.897128 0,0.897128 -0.09321,0 c -0.09321,0 -0.09321,0 -0.09321,0.09321 l 0,0.09321 0.472115,0 0.472115,0 0.101619,-0.127349 c 0.05589,-0.07004 0.173745,-0.19599 0.261899,-0.279885 l 0.16028,-0.152536 0,-0.885216 0,-0.885216 1.922417,0 1.922417,0 0,0.730214 0,0.730214 0.192241,0.125347 c 0.114567,0.0747 0.30624,0.238647 0.474378,0.405759 0.326536,0.324539 0.552538,0.646943 0.706506,1.007862 0.05348,0.125364 0.105717,0.243663 0.116086,0.262887 0.01578,0.02926 0.09423,0.03495 0.48203,0.03495 0.422599,0 0.463869,-0.0036 0.471034,-0.04078 0.0064,-0.03345 -0.0092,-0.04078 -0.08706,-0.04078 l -0.09492,0 0,-0.267973 0,-0.267973 -0.09321,0 c -0.09321,0 -0.09321,0 -0.09321,-0.09321 0,-0.09099 -0.0019,-0.09321 -0.08156,-0.09321 l -0.08156,0 0,-0.174766 0,-0.174765 -0.09321,0 -0.09321,0 0,-0.897128 0,-0.897128 9.344112,0 9.344111,0 0,0.897128 0,0.897128 -0.08156,0 c -0.07767,0 -0.08156,0.0039 -0.08156,0.08156 0,0.07962 -0.0022,0.08156 -0.09321,0.08156 l -0.09321,0 0,0.186417 0,0.186416 -0.09321,0 -0.09321,0 0,0.174765 0,0.174765 -0.08156,0 -0.08156,0 0,0.140305 0,0.140305 0.456846,-0.0063 0.456848,-0.0063 0.05255,-0.139812 c 0.154758,-0.411699 0.420483,-0.816401 0.763209,-1.162375 l 0.251214,-0.253596 0,-0.870727 0,-0.870726 1.934068,0 1.934068,0 0,0.743725 0,0.743725 0.192242,0.132874 c 0.105733,0.07308 0.320011,0.2627 0.476174,0.421376 l 0.283933,0.288502 0.479208,0 0.479209,0 0,-0.09321 c 0,-0.09321 0,-0.09321 -0.09321,-0.09321 l -0.09321,0 0,-0.897128 0,-0.897128 6.512919,0 6.51291,0 0,7.817829 0,7.817829 -9.938311,0 -9.938313,0 0,-0.08156 z m -21.228143,-7.363439 0,-0.08156 0.174765,0 0.174765,0 0,-0.09321 0,-0.09321 0.267973,0 0.267974,0 0,-0.09321 c 0,-0.09321 0,-0.09321 0.09321,-0.09321 0.09099,0 0.09321,-0.0019 0.09321,-0.08156 l 0,-0.08156 0.186416,0 0.186416,0 0,-0.09321 c 0,-0.09099 0.0019,-0.09321 0.08156,-0.09321 0.07962,0 0.08156,-0.0022 0.08156,-0.09321 0,-0.09321 0,-0.09321 0.09321,-0.09321 0.09068,0 0.09321,-0.0022 0.09321,-0.08015 0,-0.0758 0.0047,-0.08054 0.08738,-0.08738 0.08237,-0.0068 0.08779,-0.01217 0.09454,-0.09329 0.0067,-0.08085 0.01235,-0.08649 0.09321,-0.09321 0.08112,-0.0067 0.08647,-0.01217 0.09329,-0.09454 0.0068,-0.08264 0.01158,-0.08738 0.08738,-0.08738 0.07797,0 0.08015,-0.0025 0.08015,-0.09321 0,-0.09321 0,-0.09321 0.09321,-0.09321 0.09099,0 0.09321,-0.0019 0.09321,-0.08156 0,-0.07962 0.0022,-0.08156 0.09321,-0.08156 l 0.09321,0 0,-0.186417 0,-0.186416 0.08156,0 0.08156,0 0,-0.174765 0,-0.174765 0.09321,0 0.09321,0 0,-0.186416 0,-0.186416 0.09321,0 c 0.08803,0 0.09321,-0.0039 0.09321,-0.06991 l 0,-0.06991 -0.473434,0 -0.473437,0 -0.08977,0.222134 c -0.17028,0.421342 -0.428592,0.798853 -0.775324,1.133104 -1.174112,1.131846 -2.967394,1.259709 -4.298251,0.30647 -0.229077,-0.164079 -0.550735,-0.477086 -0.7019,-0.683023 -0.06115,-0.0833 -0.126221,-0.169813 -0.144605,-0.192241 -0.02986,-0.03642 -0.08445,-0.04078 -0.511346,-0.04078 l -0.47792,0 0,0.05826 c 0,0.05243 0.0093,0.05825 0.09321,0.05825 l 0.09321,0 0,0.186416 0,0.186417 0.09321,0 c 0.09099,0 0.09321,0.0019 0.09321,0.08156 0,0.07767 0.0039,0.08156 0.08156,0.08156 0.07962,0 0.08156,0.0022 0.08156,0.09321 0,0.09321 0,0.09321 0.09321,0.09321 0.09321,0 0.09321,0 0.09321,0.09321 0,0.09321 0,0.09321 0.09321,0.09321 0.09321,0 0.09321,0 0.09321,0.09321 0,0.09099 0.0019,0.09321 0.08156,0.09321 0.07767,0 0.08156,0.0039 0.08156,0.08156 0,0.07962 0.0022,0.08156 0.09321,0.08156 0.09321,0 0.09321,0 0.09321,0.09321 0,0.09321 0,0.09321 0.09321,0.09321 0.09321,0 0.09321,0 0.09321,0.09321 l 0,0.09321 0.174765,0 0.174765,0 0,0.08156 c 0,0.07962 0.0022,0.08156 0.09321,0.08156 0.09321,0 0.09321,0 0.09321,0.09321 l 0,0.09321 0.267973,0 0.267974,0 0,0.09321 0,0.09321 0.267973,0 0.267973,0 0,0.08156 0,0.08156 0.827222,0 0.827222,0 0,-0.08156 z m 26.634212,-0.534967 0,-0.08058 0.180591,-0.0068 0.180591,-0.0068 0.0072,-0.08738 c 0.0068,-0.08264 0.01158,-0.08738 0.08738,-0.08738 0.07797,0 0.08015,-0.0025 0.08015,-0.09321 0,-0.09321 0,-0.09321 0.09321,-0.09321 0.09068,0 0.09321,-0.0022 0.09321,-0.08015 0,-0.0758 0.0047,-0.08054 0.08738,-0.08738 0.08264,-0.0068 0.08778,-0.01198 0.09462,-0.09462 0.0068,-0.08264 0.01158,-0.08738 0.08738,-0.08738 0.07797,0 0.08015,-0.0025 0.08015,-0.09321 0,-0.09321 0,-0.09321 0.09321,-0.09321 0.09321,0 0.09321,0 0.09321,-0.09321 0,-0.09321 0,-0.09321 0.09321,-0.09321 l 0.09321,0 0,-0.174765 0,-0.174766 0.09321,0 c 0.09321,0 0.09321,0 0.09321,-0.09321 0,-0.09099 0.0019,-0.09321 0.08156,-0.09321 0.07146,0 0.08156,-0.0072 0.08156,-0.05825 l 0,-0.05826 -0.488424,0 -0.488427,0 -0.132768,0.180591 c -0.172913,0.235193 -0.483633,0.544721 -0.727433,0.724641 -0.106842,0.07885 -0.203837,0.143359 -0.215544,0.143359 -0.01208,0 -0.02128,0.186477 -0.02128,0.431088 l 0,0.431087 0.139812,0 0.139812,0 0,-0.08058 z m -4.14776,-0.547223 0,-0.464685 -0.238846,-0.240588 C 90.235032,22.177648 89.98275,21.799828 89.82199,21.386518 l -0.06461,-0.166102 -0.456134,-0.0063 -0.456133,-0.0063 0,0.0704 c 0,0.06492 0.0063,0.0704 0.08156,0.0704 l 0.08156,0 0,0.267973 0,0.267973 0.09321,0 c 0.09321,0 0.09321,0 0.09321,0.09321 0,0.09321 0,0.09321 0.09321,0.09321 l 0.09321,0 0,0.186416 0,0.186417 0.08156,0 c 0.07767,0 0.08156,0.0039 0.08156,0.08156 0,0.07962 0.0022,0.08156 0.09321,0.08156 0.09321,0 0.09321,0 0.09321,0.09321 0,0.09321 0,0.09321 0.09321,0.09321 l 0.09321,0 0,0.186416 0,0.186416 0.174765,0 0.174766,0 0,0.08156 c 0,0.07962 0.0022,0.08156 0.09321,0.08156 0.09321,0 0.09321,0 0.09321,0.09321 0,0.09321 0,0.09321 0.09321,0.09321 0.09321,0 0.09321,0 0.09321,0.09321 0,0.09321 0,0.09321 0.09321,0.09321 l 0.09321,0 0,-0.464686 z M 67.815969,21.686225 c 0.07639,-0.01935 0.228013,-0.0786 0.33695,-0.131662 0.457896,-0.22304 0.892663,-0.848391 0.815529,-1.173019 -0.01218,-0.05127 -0.02215,-0.156124 -0.02215,-0.233021 0,-0.0769 0.01,-0.181755 0.02215,-0.23302 0.05608,-0.236004 -0.193678,-0.712237 -0.515844,-0.983609 -0.285345,-0.24036 -0.622978,-0.361718 -1.010397,-0.363178 -0.282962,-0.0011 -0.464315,0.04195 -0.733725,0.174026 -0.373208,0.182966 -0.691947,0.5774 -0.806474,0.997996 -0.06304,0.23151 -0.05804,0.615986 0.0109,0.838052 0.174166,0.561018 0.600201,0.976009 1.134711,1.105295 0.187037,0.04524 0.593753,0.04637 0.768348,0.0021 l 0,-10e-7 z m 26.053994,-0.251968 c 0.0751,-0.05541 0.191601,-0.16111 0.258886,-0.234899 l 0.122336,-0.13416 0,-0.920569 0,-0.920569 -0.145638,-0.152868 c -0.322244,-0.338241 -0.702673,-0.503455 -1.159276,-0.503455 -0.269846,0 -0.438886,0.03944 -0.69347,0.161788 -0.346285,0.166423 -0.623635,0.458202 -0.76882,0.808823 -0.05627,0.135892 -0.05991,0.169456 -0.06352,0.586873 -0.0036,0.410273 2.33e-4,0.453608 0.0502,0.59096 0.100094,0.274548 0.335957,0.572661 0.590128,0.745878 l 0.10486,0.07146 0.78388,7.37e-4 0.78388,7.36e-4 0.136549,-0.100737 0,1e-6 z M 48.713161,19.852832 c -0.0039,-0.183404 -0.0072,-0.03986 -0.0072,0.318993 -1.2e-5,0.358852 0.0032,0.50891 0.0072,0.333464 0.004,-0.175446 0.004,-0.469052 2.1e-5,-0.652457 z m 48.60707,0.278487 c -0.0056,-0.02899 -0.01035,-0.01076 -0.01061,0.04051 -2.56e-4,0.05127 0.0043,0.07498 0.01013,0.0527 0.0058,-0.02228 0.006,-0.06422 4.66e-4,-0.09321 l 5e-6,0 z"
       id="path3843"
       inkscape:connector-curvature="0"
       transform="matrix(0.8,0,0,-0.8,0,45)" /><path
       style="fill:#000000;fill-opacity:1;stroke:#000000;stroke-width:0.03295404;stroke-opacity:1"
       d="m 98.962573,31.791753 c 2.995107,-0.0046 7.896197,-0.0046 10.891307,0 2.99511,0.0046 0.54457,0.0084 -5.44565,0.0084 -5.990222,0 -8.440767,-0.0038 -5.445657,-0.0084 z"
       id="path3845"
       inkscape:connector-curvature="0"
       transform="matrix(0.8,0,0,-0.8,0,45)" /><path
       style="fill:#000000;fill-opacity:1;stroke:#000000;stroke-width:0.03295404;stroke-opacity:1"
       d="m 96.235627,39.348654 0,-0.871093 0.09062,-0.01043 c 0.07118,-0.0082 0.09286,-0.02987 0.101051,-0.101051 0.0082,-0.07118 0.02764,-0.09062 0.09062,-0.09062 0.07524,0 0.0802,-0.0112 0.0802,-0.181247 0,-0.179416 9.99e-4,-0.181247 0.09886,-0.181247 0.09786,0 0.09886,-0.0018 0.09886,-0.181247 0,-0.171361 0.0045,-0.181247 0.08239,-0.181247 0.07789,0 0.08239,-0.0099 0.08239,-0.181248 0,-0.171361 0.0045,-0.181247 0.08239,-0.181247 l 0.08239,0 0,-0.527264 0,-0.527265 0.09886,0 c 0.09102,0 0.09886,-0.0092 0.09886,-0.115339 0,-0.106185 -0.0078,-0.115339 -0.09886,-0.115339 l -0.09886,0 0,-0.44488 0,-0.444879 -0.08239,0 c -0.08101,0 -0.08239,-0.0044 -0.08239,-0.263633 0,-0.257319 -0.0019,-0.263632 -0.0802,-0.263632 -0.06299,0 -0.08243,-0.01944 -0.09062,-0.09062 -0.0082,-0.07118 -0.02987,-0.09286 -0.101051,-0.101051 -0.08646,-0.0099 -0.09062,-0.01865 -0.09062,-0.189486 0,-0.169026 -0.0046,-0.179059 -0.08239,-0.179059 -0.06591,0 -0.08239,-0.01648 -0.08239,-0.08238 0,-0.06957 -0.01538,-0.08239 -0.09886,-0.08239 -0.09786,0 -0.09886,-0.0018 -0.09886,-0.181247 0,-0.171361 -0.0045,-0.181247 -0.08238,-0.181247 -0.06957,0 -0.08239,-0.01538 -0.08239,-0.09886 0,-0.08788 -0.01099,-0.09886 -0.09886,-0.09886 -0.08348,0 -0.09886,-0.01282 -0.09886,-0.08239 0,-0.06591 -0.01648,-0.08239 -0.08239,-0.08239 -0.06957,0 -0.08239,-0.01538 -0.08239,-0.09886 0,-0.08788 -0.01098,-0.09886 -0.09886,-0.09886 -0.08348,0 -0.09886,-0.01281 -0.09886,-0.08239 0,-0.07789 -0.0099,-0.08238 -0.181247,-0.08238 -0.179417,0 -0.181247,-9.98e-4 -0.181247,-0.09886 0,-0.08348 -0.01282,-0.09886 -0.08239,-0.09886 -0.06591,0 -0.08239,-0.01648 -0.08239,-0.08239 0,-0.07789 -0.0099,-0.08239 -0.181247,-0.08239 -0.171361,0 -0.181247,-0.0045 -0.181247,-0.08238 0,-0.08101 -0.0044,-0.08239 -0.263632,-0.08239 l -0.263633,0 0,-0.09886 0,-0.09886 -0.280109,0 c -0.257788,0 -0.280109,-0.0052 -0.280109,-0.06566 0,-0.06479 0.02749,-0.06578 2.067866,-0.0744 1.137326,-0.0048 0.248552,-0.01233 -1.975054,-0.01673 l -4.042919,-0.008 -0.01043,-0.09062 c -0.0097,-0.08452 -0.02207,-0.09129 -0.183436,-0.100584 -0.157486,-0.0091 -0.173009,-0.017 -0.173009,-0.08844 0,-0.06111 -0.02005,-0.08078 -0.09062,-0.0889 -0.07118,-0.0082 -0.09286,-0.02987 -0.101051,-0.101051 -0.0098,-0.08501 -0.02035,-0.09062 -0.170716,-0.09062 -0.141137,0 -0.161548,-0.0089 -0.17082,-0.07415 -0.0075,-0.05309 -0.03627,-0.07711 -0.101154,-0.08457 -0.07057,-0.0081 -0.09062,-0.02779 -0.09062,-0.0889 0,-0.07143 -0.01552,-0.07937 -0.173009,-0.08844 -0.161365,-0.0093 -0.17371,-0.01606 -0.183436,-0.100585 -0.0099,-0.08631 -0.01884,-0.09062 -0.187297,-0.09062 -0.168451,0 -0.177365,-0.0043 -0.187296,-0.09062 -0.0074,-0.06402 -0.0316,-0.09364 -0.08255,-0.100888 -0.04493,-0.0064 -0.07599,-0.03745 -0.08239,-0.08238 -0.0089,-0.06219 -0.0341,-0.07349 -0.183274,-0.08208 -0.158875,-0.0091 -0.173008,-0.01655 -0.173008,-0.09062 0,-0.0758 -0.01092,-0.08066 -0.181248,-0.08066 -0.179416,0 -0.181247,-9.98e-4 -0.181247,-0.09886 0,-0.08328 -0.01288,-0.09886 -0.08176,-0.09886 -0.05929,0 -0.08733,-0.0222 -0.10203,-0.08077 -0.01778,-0.07085 -0.04115,-0.08198 -0.190114,-0.09062 -0.157938,-0.0092 -0.170571,-0.0162 -0.180268,-0.100475 -0.0098,-0.08521 -0.02014,-0.09062 -0.173008,-0.09062 -0.151451,0 -0.162582,-0.0056 -0.162582,-0.08238 0,-0.06957 -0.01538,-0.08239 -0.09886,-0.08239 -0.08788,0 -0.09886,-0.01098 -0.09886,-0.09886 0,-0.09786 -0.0018,-0.09886 -0.181247,-0.09886 -0.171361,0 -0.181247,-0.0045 -0.181247,-0.08238 0,-0.06531 -0.01662,-0.08239 -0.0802,-0.08239 -0.06299,0 -0.08243,-0.01944 -0.09062,-0.09062 -0.0097,-0.08452 -0.02207,-0.09129 -0.183436,-0.100584 -0.158876,-0.0091 -0.173009,-0.01655 -0.173009,-0.09062 0,-0.07569 -0.01105,-0.08066 -0.179058,-0.08066 -0.170839,0 -0.179537,-0.0042 -0.189486,-0.09062 -0.0082,-0.07118 -0.02987,-0.09286 -0.101051,-0.101051 -0.07118,-0.0082 -0.09062,-0.02763 -0.09062,-0.09062 0,-0.07427 -0.01218,-0.0802 -0.16477,-0.0802 -0.15289,0 -0.16477,-0.0058 -0.16477,-0.08074 0,-0.07518 -0.01306,-0.08142 -0.189486,-0.09062 -0.179379,-0.0094 -0.190042,-0.01472 -0.199913,-0.100507 -0.0082,-0.07118 -0.02763,-0.09062 -0.09062,-0.09062 -0.06357,0 -0.0802,-0.01708 -0.0802,-0.08238 0,-0.07386 -0.01336,-0.08239 -0.12912,-0.08239 -0.179567,0 -0.233374,-0.02741 -0.233374,-0.118865 0,-0.06215 -0.01746,-0.07886 -0.08239,-0.07886 -0.06591,0 -0.08239,-0.01648 -0.08239,-0.08239 0,-0.07789 -0.0099,-0.08238 -0.181247,-0.08238 -0.179417,0 -0.181248,-9.98e-4 -0.181248,-0.09886 0,-0.09786 -0.0018,-0.09886 -0.181247,-0.09886 -0.170042,0 -0.181247,-0.005 -0.181247,-0.0802 0,-0.06299 -0.01944,-0.08243 -0.09062,-0.09062 -0.07118,-0.0082 -0.09286,-0.02987 -0.101051,-0.101051 -0.0099,-0.08646 -0.01865,-0.09062 -0.189485,-0.09062 -0.169026,0 -0.179059,-0.0046 -0.179059,-0.08239 0,-0.07675 -0.01113,-0.08239 -0.162581,-0.08239 -0.152864,0 -0.163205,-0.0054 -0.173009,-0.09062 -0.0097,-0.08452 -0.02207,-0.09129 -0.183436,-0.100585 -0.158875,-0.0091 -0.173008,-0.01655 -0.173008,-0.09062 l 0,-0.08066 -5.173784,0 -5.173784,0 0,-1.795995 c 0,-1.175361 0.01139,-1.795995 0.03295,-1.795995 0.01812,0 0.03295,-0.03609 0.03295,-0.0802 0,-0.06299 0.01944,-0.08243 0.09062,-0.09062 0.07118,-0.0082 0.09286,-0.02987 0.101051,-0.101051 0.0082,-0.07118 0.02763,-0.09062 0.09062,-0.09062 0.07524,0 0.0802,-0.01121 0.0802,-0.181248 0,-0.179416 9.99e-4,-0.181247 0.09886,-0.181247 0.09786,0 0.09886,-0.0018 0.09886,-0.181247 0,-0.171361 0.0045,-0.181247 0.08239,-0.181247 0.07789,0 0.08239,-0.0099 0.08239,-0.181248 0,-0.180377 4.86e-4,-0.181247 0.101278,-0.181247 0.0787,0 0.09881,-0.01286 0.09022,-0.05767 -0.0098,-0.05109 -0.06337,-0.05872 -0.469469,-0.06687 -0.344616,-0.0069 -0.465046,0.0013 -0.485158,0.03295 -0.01471,0.02319 -0.027,-0.462038 -0.02731,-1.078278 l -5.54e-4,-1.120437 0.497345,0.0099 c 0.341609,0.0068 0.490641,-9.26e-4 0.475938,-0.02472 -0.01177,-0.01905 -0.05761,-0.03464 -0.101847,-0.03464 -0.07858,0 -0.08044,-0.0061 -0.08044,-0.263633 0,-0.257319 -0.0019,-0.263632 -0.0802,-0.263632 -0.06299,0 -0.08243,-0.01944 -0.09062,-0.09062 -0.0082,-0.07118 -0.02987,-0.09286 -0.101051,-0.101051 -0.08646,-0.0099 -0.09062,-0.01865 -0.09062,-0.189485 0,-0.169026 -0.0046,-0.179059 -0.08239,-0.179059 l -0.08239,0 0,-0.889759 0,-0.889759 9.34247,0 9.342469,0 0,0.889759 0,0.889759 -0.0802,0 c -0.06299,0 -0.08243,0.01944 -0.09062,0.09062 -0.0082,0.07118 -0.02987,0.09286 -0.101051,0.101051 -0.08646,0.0099 -0.09062,0.01865 -0.09062,0.189486 0,0.169026 -0.0046,0.179058 -0.08239,0.179058 -0.07689,0 -0.08239,0.01099 -0.08239,0.16477 0,0.153786 -0.0055,0.16477 -0.08239,0.16477 -0.076,0 -0.08239,0.01181 -0.08239,0.152413 l 0,0.152412 0.102982,-0.0206 c 0.05664,-0.01133 0.26425,-0.0206 0.461356,-0.0206 0.231643,0 0.358375,-0.01242 0.358375,-0.03511 0,-0.07367 0.2329,-0.534677 0.384947,-0.761973 0.08734,-0.130561 0.273722,-0.355644 0.414189,-0.500183 l 0.255394,-0.2628 0,-0.867667 0,-0.867667 1.927811,0 1.927811,0 6.6e-5,0.749704 6.6e-5,0.749705 0.156473,0.09788 c 0.08606,0.05383 0.303657,0.242908 0.483551,0.420164 l 0.327064,0.322282 0.474246,0 0.474246,0 -0.01043,-0.09062 c -0.0082,-0.07118 -0.02987,-0.09286 -0.10105,-0.101051 l -0.09062,-0.01043 0,-0.88757 0,-0.887571 8.090209,0 8.09022,0 0,0.889759 0,0.889759 -0.0824,0 c -0.0653,0 -0.0824,0.01662 -0.0824,0.0802 0,0.06219 -0.0204,0.08328 -0.0906,0.09392 -0.0499,0.0076 0.15776,0.01595 0.46135,0.01867 0.30359,0.0027 0.55198,-0.0081 0.55198,-0.02402 0,-0.01593 0.11864,-0.147594 0.26363,-0.292592 l 0.26364,-0.263632 0,-0.877277 0,-0.877276 1.92781,0 1.92781,0 0,0.753277 0,0.753277 0.18948,0.125331 c 0.10422,0.06893 0.31838,0.256398 0.47592,0.416591 l 0.28644,0.291261 0.47974,0 0.47975,0 0,-0.09886 c 0,-0.08348 -0.0128,-0.09886 -0.0824,-0.09886 l -0.0824,0 0,-0.889759 0,-0.889759 12.58845,0 12.58844,0 0,4.218117 0,4.218117 -0.88976,0 -0.88976,0 0,-0.08238 c 0,-0.06957 -0.0154,-0.08238 -0.0989,-0.08238 -0.0879,0 -0.0989,-0.01099 -0.0989,-0.09886 0,-0.09786 -0.002,-0.09886 -0.18125,-0.09886 -0.17136,0 -0.18125,-0.0045 -0.18125,-0.08239 0,-0.07674 -0.0111,-0.08239 -0.16258,-0.08239 -0.15287,0 -0.16321,-0.0054 -0.17301,-0.09062 -0.01,-0.08453 -0.0221,-0.09129 -0.18344,-0.100585 -0.15887,-0.0091 -0.173,-0.01655 -0.173,-0.09062 0,-0.07925 -0.005,-0.08066 -0.28011,-0.08066 l -0.28011,0 0,-0.09886 0,-0.09886 -11.25381,0 c -11.23183,0 -11.2538,-1.32e-4 -11.2538,-0.06591 0,-0.05126 0.022,-0.06591 0.0989,-0.06591 0.0879,0 0.0989,-0.01098 0.0989,-0.09886 0,-0.08348 0.0128,-0.09886 0.0824,-0.09886 0.0659,0 0.0824,-0.01648 0.0824,-0.08239 0,-0.06957 0.0154,-0.08238 0.0989,-0.08238 0.0879,0 0.0989,-0.01098 0.0989,-0.09886 0,-0.08348 0.0128,-0.09886 0.0824,-0.09886 0.0659,0 0.0824,-0.01648 0.0824,-0.08238 0,-0.06957 0.0154,-0.08238 0.0989,-0.08238 0.0979,0 0.0989,-0.0018 0.0989,-0.181247 0,-0.171361 0.004,-0.181248 0.0824,-0.181248 0.0653,0 0.0824,-0.01662 0.0824,-0.0802 0,-0.06292 0.0195,-0.08244 0.0903,-0.09062 0.0545,-0.0063 0.0947,-0.03331 0.10128,-0.0681 0.01,-0.05292 -0.0312,-0.05767 -0.50122,-0.05767 l -0.51217,0 -0.13725,0.18579 c -0.18086,0.244825 -0.48247,0.539249 -0.74241,0.724744 l -0.2099,0.149781 0,0.425509 0,0.42551 0.14829,0 c 0.13621,0 0.1483,-0.0067 0.1483,-0.08239 0,-0.07789 0.01,-0.08238 0.18124,-0.08238 0.17942,0 0.18125,-9.99e-4 0.18125,-0.09886 l 0,-0.09886 10.42995,0 10.42996,0 0,0.08239 0,0.08238 -0.3625,0 -0.36249,0 0,0.08238 c 0,0.07789 -0.01,0.08239 -0.18125,0.08239 -0.17942,0 -0.18125,9.99e-4 -0.18125,0.09886 0,0.09786 -0.002,0.09886 -0.18125,0.09886 -0.17136,0 -0.18124,0.0045 -0.18124,0.08239 0,0.07789 -0.01,0.08239 -0.18125,0.08239 -0.17941,0 -0.18125,9.98e-4 -0.18125,0.09886 0,0.08348 -0.0128,0.09886 -0.0824,0.09886 -0.0696,0 -0.0824,0.01538 -0.0824,0.09886 0,0.08788 -0.011,0.09886 -0.0989,0.09886 -0.0835,0 -0.0989,0.01281 -0.0989,0.08239 0,0.06591 -0.0165,0.08238 -0.0824,0.08238 -0.0659,0 -0.0824,0.01648 -0.0824,0.08239 0,0.06957 -0.0154,0.08238 -0.0989,0.08238 -0.0835,0 -0.0989,0.01282 -0.0989,0.08238 0,0.06591 -0.0165,0.08239 -0.0824,0.08239 -0.0696,0 -0.0824,0.01538 -0.0824,0.09886 0,0.08788 -0.011,0.09886 -0.0989,0.09886 -0.0835,0 -0.0989,0.01281 -0.0989,0.08239 0,0.06591 -0.0165,0.08238 -0.0824,0.08238 -0.0696,0 -0.0824,0.01538 -0.0824,0.09886 0,0.08788 -0.011,0.09886 -0.0989,0.09886 -0.0979,0 -0.0989,0.0018 -0.0989,0.181247 0,0.171361 -0.004,0.181248 -0.0824,0.181248 -0.0779,0 -0.0824,0.0099 -0.0824,0.181247 0,0.179416 -9.9e-4,0.181247 -0.0989,0.181247 -0.0979,0 -0.0989,0.0018 -0.0989,0.181247 0,0.171361 -0.004,0.181247 -0.0824,0.181247 l -0.0824,0 0,0.346018 0,0.346017 -0.0824,0 -0.0824,0 0,0.922713 0,0.922713 0.0824,0 c 0.081,0 0.0824,0.0044 0.0824,0.263633 0,0.259238 0.001,0.263632 0.0824,0.263632 0.0779,0 0.0824,0.0099 0.0824,0.181247 0,0.179416 9.9e-4,0.181247 0.0989,0.181247 0.0979,0 0.0989,0.0018 0.0989,0.181247 0,0.171361 0.004,0.181248 0.0824,0.181248 0.0779,0 0.0824,0.0099 0.0824,0.181247 0,0.179416 9.8e-4,0.181247 0.0989,0.181247 0.0879,0 0.0989,0.01099 0.0989,0.09886 0,0.08348 0.0128,0.09886 0.0824,0.09886 0.0659,0 0.0824,0.01648 0.0824,0.08238 0,0.06957 0.0154,0.08239 0.0989,0.08239 0.0979,0 0.0989,0.0018 0.0989,0.181248 0,0.170042 0.005,0.181247 0.0802,0.181247 0.063,0 0.0824,0.01944 0.0906,0.09062 0.01,0.08452 0.0221,0.09129 0.18344,0.100585 0.15887,0.0091 0.17301,0.01655 0.17301,0.09062 0,0.06766 0.0159,0.08066 0.0989,0.08066 0.0835,0 0.0989,0.01282 0.0989,0.08238 0,0.06591 0.0165,0.08239 0.0824,0.08239 0.0696,0 0.0824,0.01538 0.0824,0.09886 0,0.09786 0.002,0.09886 0.18125,0.09886 0.17136,0 0.18125,0.0045 0.18125,0.08239 0,0.06531 0.0166,0.08238 0.0802,0.08238 0.063,0 0.0824,0.01944 0.0906,0.09062 0.0103,0.0898 0.0129,0.09071 0.2823,0.100195 0.26423,0.0093 0.27187,0.01185 0.27187,0.09062 0,0.07935 0.006,0.08105 0.26363,0.08105 0.25924,0 0.26363,0.0014 0.26363,0.08238 l 0,0.08239 -10.14984,0 -10.14985,0 0,-0.09886 c 0,-0.09786 -0.002,-0.09886 -0.18124,-0.09886 -0.17136,0 -0.18125,-0.0045 -0.18125,-0.08239 0,-0.06531 -0.0166,-0.08238 -0.0802,-0.08238 -0.063,0 -0.0824,-0.01944 -0.0906,-0.09062 -0.008,-0.07118 -0.0299,-0.09286 -0.10105,-0.10105 -0.0712,-0.0082 -0.0906,-0.02764 -0.0906,-0.09062 0,-0.07524 -0.0112,-0.0802 -0.18125,-0.0802 -0.17136,0 -0.18125,-0.0045 -0.18125,-0.08238 0,-0.08101 -0.004,-0.08239 -0.26363,-0.08239 l -0.26363,0 0,-0.09886 0,-0.09886 -0.28011,0 c -0.27682,0 -0.28011,-9.69e-4 -0.28011,-0.08239 l 0,-0.08238 -2.71047,0.008 c -2.6373,0.0078 -2.65465,0.0082 -0.64261,0.01673 2.04038,0.0086 2.06787,0.0096 2.06787,0.0744 0,0.06011 -0.0223,0.06566 -0.26363,0.06566 l -0.26363,0 0,0.09886 c 0,0.09786 -0.002,0.09886 -0.18125,0.09886 -0.17136,0 -0.18125,0.0045 -0.18125,0.08239 0,0.07789 -0.01,0.08238 -0.18125,0.08238 -0.17136,0 -0.18124,0.0045 -0.18124,0.08239 0,0.07789 -0.01,0.08239 -0.18125,0.08239 -0.17942,0 -0.18125,9.98e-4 -0.18125,0.09886 0,0.08348 -0.0128,0.09886 -0.0824,0.09886 -0.0659,0 -0.0824,0.01648 -0.0824,0.08238 0,0.06957 -0.0154,0.08239 -0.0989,0.08239 -0.0879,0 -0.0989,0.01098 -0.0989,0.09886 0,0.08348 -0.0128,0.09886 -0.0824,0.09886 -0.0659,0 -0.0824,0.01648 -0.0824,0.08239 0,0.06957 -0.0154,0.08239 -0.0989,0.08239 -0.0879,0 -0.0989,0.01098 -0.0989,0.09886 0,0.08348 -0.0128,0.09886 -0.0824,0.09886 -0.0659,0 -0.0824,0.01648 -0.0824,0.08238 0,0.06957 -0.0154,0.08239 -0.0989,0.08239 -0.0879,0 -0.0989,0.01098 -0.0989,0.09886 0,0.08348 -0.0128,0.09886 -0.0824,0.09886 -0.0779,0 -0.0824,0.0099 -0.0824,0.181247 0,0.179417 -9.9e-4,0.181248 -0.0989,0.181248 -0.0835,0 -0.0989,0.01281 -0.0989,0.08238 0,0.06591 -0.0165,0.08239 -0.0824,0.08239 -0.081,0 -0.0824,0.0045 -0.0824,0.261443 0,0.260714 -3.2e-4,0.261473 -0.0906,0.271871 -0.0898,0.01033 -0.0907,0.01291 -0.10019,0.282298 -0.009,0.26424 -0.0119,0.271871 -0.0906,0.271871 l -0.0811,0 0,0.724989 0,0.724989 0.0824,0 c 0.0814,0 0.0824,0.0033 0.0824,0.280109 l 0,0.280109 0.0989,0 c 0.0979,0 0.0989,0.0018 0.0989,0.181248 0,0.171361 0.004,0.181247 0.0824,0.181247 0.0779,0 0.0824,0.0099 0.0824,0.181247 0,0.179416 9.9e-4,0.181247 0.0989,0.181247 0.0979,0 0.0989,0.0018 0.0989,0.181247 0,0.171361 0.004,0.181248 0.0824,0.181248 l 0.0824,0 0,0.873282 0,0.873282 -8.1726,0 -8.172599,0 0,-0.871094 z m -1.2582,-15.564732 c 0.0084,-0.05903 0.03191,-0.07424 0.115339,-0.0746 0.183678,-7.87e-4 0.253102,-0.03336 0.253102,-0.118733 0,-0.06181 0.01755,-0.07854 0.08239,-0.07854 0.06591,0 0.08239,-0.01648 0.08239,-0.08238 0,-0.04943 0.01977,-0.08403 0.04943,-0.08651 0.02719,-0.0023 0.06797,-0.006 0.09062,-0.0082 0.02266,-0.0023 0.04588,-0.0449 0.05162,-0.09474 0.0082,-0.07118 0.02763,-0.09062 0.09062,-0.09062 0.06357,0 0.0802,-0.01708 0.0802,-0.08239 0,-0.06531 0.01662,-0.08238 0.0802,-0.08238 0.06299,0 0.08243,-0.01944 0.09062,-0.09062 0.0082,-0.07118 0.02987,-0.09286 0.101051,-0.101051 0.07118,-0.0082 0.09062,-0.02764 0.09062,-0.09062 0,-0.06357 0.01708,-0.0802 0.08239,-0.0802 0.07789,0 0.08239,-0.0099 0.08239,-0.181247 0,-0.179417 9.98e-4,-0.181248 0.09886,-0.181248 0.08788,0 0.09886,-0.01098 0.09886,-0.09886 0,-0.08348 0.01282,-0.09886 0.08238,-0.09886 0.05126,0 0.08239,-0.01867 0.08239,-0.04943 0,-0.04171 -0.07601,-0.04943 -0.486411,-0.04943 l -0.486411,0 -0.174526,0.228847 c -0.202965,0.266138 -0.502854,0.55223 -0.752864,0.718228 l -0.175892,0.116785 0,0.425632 0,0.425632 0.140055,-0.01013 c 0.116427,-0.0084 0.141831,-0.02264 0.150585,-0.08428 z m -4.153538,-0.548852 0.0092,-0.458228 -0.276725,-0.283238 c -0.31179,-0.319128 -0.53832,-0.649555 -0.699425,-1.020213 l -0.109377,-0.251646 -0.446821,-0.0092 c -0.429937,-0.0088 -0.446821,-0.0066 -0.446821,0.05767 0,0.04932 0.02159,0.06684 0.08239,0.06684 0.08142,0 0.08239,0.0033 0.08239,0.28011 0,0.276814 9.68e-4,0.280109 0.08239,0.280109 0.06591,0 0.08239,0.01648 0.08239,0.08238 0,0.06957 0.01538,0.08239 0.09886,0.08239 0.09786,0 0.09886,0.0018 0.09886,0.181247 0,0.170042 0.005,0.181248 0.0802,0.181248 0.06299,0 0.08243,0.01944 0.09062,0.09062 0.0082,0.07118 0.02987,0.09286 0.101051,0.101051 0.07118,0.0082 0.09062,0.02763 0.09062,0.09062 0,0.06357 0.01708,0.0802 0.08239,0.0802 0.07789,0 0.08239,0.0099 0.08239,0.181247 l 0,0.181247 0.179058,0 c 0.170839,0 0.179537,0.0042 0.189486,0.09062 0.0082,0.07118 0.02987,0.09286 0.101051,0.101051 0.07118,0.0082 0.09062,0.02763 0.09062,0.09062 0,0.06357 0.01708,0.0802 0.08239,0.0802 0.06434,0 0.08238,0.01684 0.08238,0.07689 0,0.09713 0.02902,0.126146 0.113984,0.113983 0.06351,-0.0091 0.06778,-0.03518 0.07646,-0.467856 z m 23.042151,0.0085 0,-0.46623 -0.27187,-0.283565 c -0.14953,-0.15596 -0.30895,-0.339032 -0.35426,-0.406827 l -0.0824,-0.123262 -0.47201,-2.3e-4 c -0.4318,-1.98e-4 -0.47108,0.0047 -0.46107,0.05744 0.007,0.03478 0.0468,0.06181 0.10128,0.0681 0.0849,0.0098 0.0903,0.02028 0.0903,0.173009 0,0.151451 0.006,0.162581 0.0824,0.162581 0.0696,0 0.0824,0.01538 0.0824,0.09886 0,0.08788 0.011,0.09886 0.0989,0.09886 0.0835,0 0.0989,0.01282 0.0989,0.08239 0,0.06591 0.0165,0.08239 0.0824,0.08239 0.0779,0 0.0824,0.0099 0.0824,0.181247 l 0,0.181247 0.18125,0 c 0.17942,0 0.18125,9.99e-4 0.18125,0.09886 0,0.08788 0.011,0.09886 0.0989,0.09886 0.0835,0 0.0989,0.01282 0.0989,0.08238 0,0.06591 0.0165,0.08239 0.0824,0.08239 0.0696,0 0.0824,0.01538 0.0824,0.09886 0,0.08788 0.011,0.09886 0.0989,0.09886 l 0.0989,0 0,-0.46623 0,5e-6 z M 93.849753,21.441141 c 0.07069,-0.05152 0.191547,-0.162406 0.268577,-0.246419 l 0.140055,-0.152751 0,-0.907188 0,-0.907187 -0.19226,-0.189298 c -0.322111,-0.317148 -0.68753,-0.469353 -1.126844,-0.469353 -0.583872,0 -1.168915,0.37264 -1.420732,0.904927 -0.08932,0.188797 -0.09416,0.222275 -0.09419,0.650915 -2.1e-5,0.370612 0.01176,0.48322 0.06549,0.626127 0.08189,0.217815 0.315407,0.517729 0.519958,0.667807 l 0.155996,0.114454 0.777714,8.17e-4 0.777714,8.17e-4 0.128522,-0.09367 0,0 z m 23.083527,-0.02352 c 0.0878,-0.06445 0.20472,-0.1741 0.25981,-0.24366 l 0.10017,-0.126471 0,-0.916353 0,-0.916354 -0.19862,-0.193153 c -0.13036,-0.126769 -0.28435,-0.233864 -0.44806,-0.311609 -0.21998,-0.104467 -0.28758,-0.120293 -0.5724,-0.134008 -0.40118,-0.01932 -0.6886,0.05777 -0.99577,0.267087 -0.40125,0.273409 -0.64436,0.703285 -0.67644,1.196045 -0.0358,0.5502 0.18706,1.043492 0.61761,1.367001 l 0.17124,0.128663 0.79141,0 0.79141,0 0.15964,-0.117188 z m 3.25163,-1.736477 c -0.006,-0.276402 -0.01,-0.05025 -0.01,0.502549 0,0.552804 0.004,0.778951 0.01,0.502549 0.006,-0.276402 0.006,-0.728696 0,-1.005098 z"
       id="path3847"
       inkscape:connector-curvature="0"
       transform="matrix(0.8,0,0,-0.8,0,45)" /><path
       style="fill:#000000;fill-opacity:1;stroke:#000000;stroke-width:0.03295404;stroke-opacity:1"
       d="m 119.2705,39.346466 0,-0.873282 0.0989,0 c 0.0879,0 0.0989,-0.01099 0.0989,-0.09886 0,-0.08348 0.0128,-0.09886 0.0824,-0.09886 0.0779,0 0.0824,-0.0099 0.0824,-0.181247 0,-0.179416 0.001,-0.181247 0.0989,-0.181247 0.0979,0 0.0989,-0.0018 0.0989,-0.181247 0,-0.171361 0.004,-0.181247 0.0824,-0.181247 0.0779,0 0.0824,-0.0099 0.0824,-0.181248 0,-0.179416 0.001,-0.181247 0.0989,-0.181247 l 0.0989,0 0,-1.087483 0,-1.087483 -0.0989,0 -0.0989,0 0,-0.263633 c 0,-0.259238 -0.001,-0.263632 -0.0824,-0.263632 -0.0696,0 -0.0824,-0.01538 -0.0824,-0.09886 0,-0.08788 -0.011,-0.09886 -0.0989,-0.09886 -0.0979,0 -0.0989,-0.0018 -0.0989,-0.181247 0,-0.171361 -0.004,-0.181248 -0.0824,-0.181248 -0.0659,0 -0.0824,-0.01648 -0.0824,-0.08238 0,-0.06957 -0.0154,-0.08239 -0.0989,-0.08239 -0.0979,0 -0.0989,-0.0018 -0.0989,-0.181247 0,-0.171361 -0.004,-0.181247 -0.0824,-0.181247 -0.0659,0 -0.0824,-0.01648 -0.0824,-0.08239 l 0,-0.08239 12.76969,0 12.76969,0 0,3.493128 0,3.493128 -12.68731,0 -12.6873,0 0,-0.873282 z"
       id="path3849"
       inkscape:connector-curvature="0"
       transform="matrix(0.8,0,0,-0.8,0,45)" /><path
       style="fill:#000000;fill-opacity:1;stroke:#000000;stroke-width:0.03295404;stroke-opacity:1"
       d="m 141.05312,32.953382 0,-0.08238 0.36249,0 0.3625,0 0,-0.08239 c 0,-0.07789 0.01,-0.08239 0.18124,-0.08239 0.17942,0 0.18125,-9.98e-4 0.18125,-0.09886 0,-0.08348 0.0128,-0.09886 0.0824,-0.09886 0.0659,0 0.0824,-0.01648 0.0824,-0.08238 0,-0.07789 0.01,-0.08239 0.18125,-0.08239 0.17941,0 0.18125,-9.99e-4 0.18125,-0.09886 0,-0.08788 0.011,-0.09886 0.0989,-0.09886 0.0835,0 0.0989,-0.01282 0.0989,-0.08239 l 0,-0.08238 0.88976,0 0.88976,0 0,0.527265 0,0.527264 -1.796,0 -1.79599,0 0,-0.08239 z"
       id="path3851"
       inkscape:connector-curvature="0"
       transform="matrix(0.8,0,0,-0.8,0,45)" /></g></svg>