G04 #@! TF.FileFunction,Legend,Top*
%FSLAX46Y46*%
G04 Gerber Fmt 4.6, Leading zero omitted, Abs format (unit mm)*
G04 Created by KiCad (PCBNEW 0.201511171411+6319~30~ubuntu15.04.1-product) date Wed 18 Nov 2015 02:30:17 PM CET*
%MOMM*%
G01*
G04 APERTURE LIST*
%ADD10C,0.100000*%
%ADD11C,0.150000*%
G04 APERTURE END LIST*
D10*
D11*
X169734943Y-118298981D02*
X170592086Y-118298981D01*
X170163515Y-119298981D02*
X170163515Y-118298981D01*
X171949229Y-119298981D02*
X171449229Y-118822790D01*
X171092086Y-119298981D02*
X171092086Y-118298981D01*
X171663514Y-118298981D01*
X171806372Y-118346600D01*
X171877800Y-118394219D01*
X171949229Y-118489457D01*
X171949229Y-118632314D01*
X171877800Y-118727552D01*
X171806372Y-118775171D01*
X171663514Y-118822790D01*
X171092086Y-118822790D01*
X172877800Y-118298981D02*
X173020657Y-118298981D01*
X173163514Y-118346600D01*
X173234943Y-118394219D01*
X173306372Y-118489457D01*
X173377800Y-118679933D01*
X173377800Y-118918029D01*
X173306372Y-119108505D01*
X173234943Y-119203743D01*
X173163514Y-119251362D01*
X173020657Y-119298981D01*
X172877800Y-119298981D01*
X172734943Y-119251362D01*
X172663514Y-119203743D01*
X172592086Y-119108505D01*
X172520657Y-118918029D01*
X172520657Y-118679933D01*
X172592086Y-118489457D01*
X172663514Y-118394219D01*
X172734943Y-118346600D01*
X172877800Y-118298981D01*
X168965086Y-126995181D02*
X168965086Y-125995181D01*
X169536514Y-125995181D01*
X169679372Y-126042800D01*
X169750800Y-126090419D01*
X169822229Y-126185657D01*
X169822229Y-126328514D01*
X169750800Y-126423752D01*
X169679372Y-126471371D01*
X169536514Y-126518990D01*
X168965086Y-126518990D01*
X170965086Y-126471371D02*
X171179372Y-126518990D01*
X171250800Y-126566610D01*
X171322229Y-126661848D01*
X171322229Y-126804705D01*
X171250800Y-126899943D01*
X171179372Y-126947562D01*
X171036514Y-126995181D01*
X170465086Y-126995181D01*
X170465086Y-125995181D01*
X170965086Y-125995181D01*
X171107943Y-126042800D01*
X171179372Y-126090419D01*
X171250800Y-126185657D01*
X171250800Y-126280895D01*
X171179372Y-126376133D01*
X171107943Y-126423752D01*
X170965086Y-126471371D01*
X170465086Y-126471371D01*
X171965086Y-125995181D02*
X171965086Y-126804705D01*
X172036514Y-126899943D01*
X172107943Y-126947562D01*
X172250800Y-126995181D01*
X172536514Y-126995181D01*
X172679372Y-126947562D01*
X172750800Y-126899943D01*
X172822229Y-126804705D01*
X172822229Y-125995181D01*
X174250801Y-126995181D02*
X173536515Y-126995181D01*
X173536515Y-125995181D01*
X169734943Y-123429781D02*
X170592086Y-123429781D01*
X170163515Y-124429781D02*
X170163515Y-123429781D01*
X171949229Y-124429781D02*
X171449229Y-123953590D01*
X171092086Y-124429781D02*
X171092086Y-123429781D01*
X171663514Y-123429781D01*
X171806372Y-123477400D01*
X171877800Y-123525019D01*
X171949229Y-123620257D01*
X171949229Y-123763114D01*
X171877800Y-123858352D01*
X171806372Y-123905971D01*
X171663514Y-123953590D01*
X171092086Y-123953590D01*
X172520657Y-123525019D02*
X172592086Y-123477400D01*
X172734943Y-123429781D01*
X173092086Y-123429781D01*
X173234943Y-123477400D01*
X173306372Y-123525019D01*
X173377800Y-123620257D01*
X173377800Y-123715495D01*
X173306372Y-123858352D01*
X172449229Y-124429781D01*
X173377800Y-124429781D01*
X169734943Y-120915181D02*
X170592086Y-120915181D01*
X170163515Y-121915181D02*
X170163515Y-120915181D01*
X171949229Y-121915181D02*
X171449229Y-121438990D01*
X171092086Y-121915181D02*
X171092086Y-120915181D01*
X171663514Y-120915181D01*
X171806372Y-120962800D01*
X171877800Y-121010419D01*
X171949229Y-121105657D01*
X171949229Y-121248514D01*
X171877800Y-121343752D01*
X171806372Y-121391371D01*
X171663514Y-121438990D01*
X171092086Y-121438990D01*
X173377800Y-121915181D02*
X172520657Y-121915181D01*
X172949229Y-121915181D02*
X172949229Y-120915181D01*
X172806372Y-121058038D01*
X172663514Y-121153276D01*
X172520657Y-121200895D01*
X168923829Y-129509781D02*
X168923829Y-128509781D01*
X169495257Y-128509781D01*
X169638115Y-128557400D01*
X169709543Y-128605019D01*
X169780972Y-128700257D01*
X169780972Y-128843114D01*
X169709543Y-128938352D01*
X169638115Y-128985971D01*
X169495257Y-129033590D01*
X168923829Y-129033590D01*
X170923829Y-128985971D02*
X171138115Y-129033590D01*
X171209543Y-129081210D01*
X171280972Y-129176448D01*
X171280972Y-129319305D01*
X171209543Y-129414543D01*
X171138115Y-129462162D01*
X170995257Y-129509781D01*
X170423829Y-129509781D01*
X170423829Y-128509781D01*
X170923829Y-128509781D01*
X171066686Y-128557400D01*
X171138115Y-128605019D01*
X171209543Y-128700257D01*
X171209543Y-128795495D01*
X171138115Y-128890733D01*
X171066686Y-128938352D01*
X170923829Y-128985971D01*
X170423829Y-128985971D01*
X171923829Y-128509781D02*
X171923829Y-129319305D01*
X171995257Y-129414543D01*
X172066686Y-129462162D01*
X172209543Y-129509781D01*
X172495257Y-129509781D01*
X172638115Y-129462162D01*
X172709543Y-129414543D01*
X172780972Y-129319305D01*
X172780972Y-128509781D01*
X174352401Y-129509781D02*
X173852401Y-129033590D01*
X173495258Y-129509781D02*
X173495258Y-128509781D01*
X174066686Y-128509781D01*
X174209544Y-128557400D01*
X174280972Y-128605019D01*
X174352401Y-128700257D01*
X174352401Y-128843114D01*
X174280972Y-128938352D01*
X174209544Y-128985971D01*
X174066686Y-129033590D01*
X173495258Y-129033590D01*
X168940457Y-132024381D02*
X168940457Y-131024381D01*
X169511885Y-131024381D01*
X169654743Y-131072000D01*
X169726171Y-131119619D01*
X169797600Y-131214857D01*
X169797600Y-131357714D01*
X169726171Y-131452952D01*
X169654743Y-131500571D01*
X169511885Y-131548190D01*
X168940457Y-131548190D01*
X170940457Y-131500571D02*
X171154743Y-131548190D01*
X171226171Y-131595810D01*
X171297600Y-131691048D01*
X171297600Y-131833905D01*
X171226171Y-131929143D01*
X171154743Y-131976762D01*
X171011885Y-132024381D01*
X170440457Y-132024381D01*
X170440457Y-131024381D01*
X170940457Y-131024381D01*
X171083314Y-131072000D01*
X171154743Y-131119619D01*
X171226171Y-131214857D01*
X171226171Y-131310095D01*
X171154743Y-131405333D01*
X171083314Y-131452952D01*
X170940457Y-131500571D01*
X170440457Y-131500571D01*
X172654743Y-132024381D02*
X171940457Y-132024381D01*
X171940457Y-131024381D01*
X173869029Y-132024381D02*
X173154743Y-132024381D01*
X173154743Y-131024381D01*
X169077000Y-134615181D02*
X169077000Y-133615181D01*
X169648428Y-133615181D01*
X169791286Y-133662800D01*
X169862714Y-133710419D01*
X169934143Y-133805657D01*
X169934143Y-133948514D01*
X169862714Y-134043752D01*
X169791286Y-134091371D01*
X169648428Y-134138990D01*
X169077000Y-134138990D01*
X171077000Y-134091371D02*
X171291286Y-134138990D01*
X171362714Y-134186610D01*
X171434143Y-134281848D01*
X171434143Y-134424705D01*
X171362714Y-134519943D01*
X171291286Y-134567562D01*
X171148428Y-134615181D01*
X170577000Y-134615181D01*
X170577000Y-133615181D01*
X171077000Y-133615181D01*
X171219857Y-133662800D01*
X171291286Y-133710419D01*
X171362714Y-133805657D01*
X171362714Y-133900895D01*
X171291286Y-133996133D01*
X171219857Y-134043752D01*
X171077000Y-134091371D01*
X170577000Y-134091371D01*
X172791286Y-134615181D02*
X172077000Y-134615181D01*
X172077000Y-133615181D01*
X174148429Y-134615181D02*
X173648429Y-134138990D01*
X173291286Y-134615181D02*
X173291286Y-133615181D01*
X173862714Y-133615181D01*
X174005572Y-133662800D01*
X174077000Y-133710419D01*
X174148429Y-133805657D01*
X174148429Y-133948514D01*
X174077000Y-134043752D01*
X174005572Y-134091371D01*
X173862714Y-134138990D01*
X173291286Y-134138990D01*
X169724629Y-141285981D02*
X169724629Y-142095505D01*
X169796057Y-142190743D01*
X169867486Y-142238362D01*
X170010343Y-142285981D01*
X170296057Y-142285981D01*
X170438915Y-142238362D01*
X170510343Y-142190743D01*
X170581772Y-142095505D01*
X170581772Y-141285981D01*
X171296058Y-141285981D02*
X171296058Y-142095505D01*
X171367486Y-142190743D01*
X171438915Y-142238362D01*
X171581772Y-142285981D01*
X171867486Y-142285981D01*
X172010344Y-142238362D01*
X172081772Y-142190743D01*
X172153201Y-142095505D01*
X172153201Y-141285981D01*
X172796058Y-141381219D02*
X172867487Y-141333600D01*
X173010344Y-141285981D01*
X173367487Y-141285981D01*
X173510344Y-141333600D01*
X173581773Y-141381219D01*
X173653201Y-141476457D01*
X173653201Y-141571695D01*
X173581773Y-141714552D01*
X172724630Y-142285981D01*
X173653201Y-142285981D01*
X169724629Y-138796781D02*
X169724629Y-139606305D01*
X169796057Y-139701543D01*
X169867486Y-139749162D01*
X170010343Y-139796781D01*
X170296057Y-139796781D01*
X170438915Y-139749162D01*
X170510343Y-139701543D01*
X170581772Y-139606305D01*
X170581772Y-138796781D01*
X171296058Y-138796781D02*
X171296058Y-139606305D01*
X171367486Y-139701543D01*
X171438915Y-139749162D01*
X171581772Y-139796781D01*
X171867486Y-139796781D01*
X172010344Y-139749162D01*
X172081772Y-139701543D01*
X172153201Y-139606305D01*
X172153201Y-138796781D01*
X173653201Y-139796781D02*
X172796058Y-139796781D01*
X173224630Y-139796781D02*
X173224630Y-138796781D01*
X173081773Y-138939638D01*
X172938915Y-139034876D01*
X172796058Y-139082495D01*
X169750029Y-136155181D02*
X169750029Y-136964705D01*
X169821457Y-137059943D01*
X169892886Y-137107562D01*
X170035743Y-137155181D01*
X170321457Y-137155181D01*
X170464315Y-137107562D01*
X170535743Y-137059943D01*
X170607172Y-136964705D01*
X170607172Y-136155181D01*
X171321458Y-136155181D02*
X171321458Y-136964705D01*
X171392886Y-137059943D01*
X171464315Y-137107562D01*
X171607172Y-137155181D01*
X171892886Y-137155181D01*
X172035744Y-137107562D01*
X172107172Y-137059943D01*
X172178601Y-136964705D01*
X172178601Y-136155181D01*
X173178601Y-136155181D02*
X173321458Y-136155181D01*
X173464315Y-136202800D01*
X173535744Y-136250419D01*
X173607173Y-136345657D01*
X173678601Y-136536133D01*
X173678601Y-136774229D01*
X173607173Y-136964705D01*
X173535744Y-137059943D01*
X173464315Y-137107562D01*
X173321458Y-137155181D01*
X173178601Y-137155181D01*
X173035744Y-137107562D01*
X172964315Y-137059943D01*
X172892887Y-136964705D01*
X172821458Y-136774229D01*
X172821458Y-136536133D01*
X172892887Y-136345657D01*
X172964315Y-136250419D01*
X173035744Y-136202800D01*
X173178601Y-136155181D01*
X169740486Y-111729781D02*
X169740486Y-110729781D01*
X170240486Y-111444067D01*
X170740486Y-110729781D01*
X170740486Y-111729781D01*
X171240486Y-110729781D02*
X172097629Y-110729781D01*
X171669058Y-111729781D02*
X171669058Y-110729781D01*
X172883343Y-110729781D02*
X173026200Y-110729781D01*
X173169057Y-110777400D01*
X173240486Y-110825019D01*
X173311915Y-110920257D01*
X173383343Y-111110733D01*
X173383343Y-111348829D01*
X173311915Y-111539305D01*
X173240486Y-111634543D01*
X173169057Y-111682162D01*
X173026200Y-111729781D01*
X172883343Y-111729781D01*
X172740486Y-111682162D01*
X172669057Y-111634543D01*
X172597629Y-111539305D01*
X172526200Y-111348829D01*
X172526200Y-111110733D01*
X172597629Y-110920257D01*
X172669057Y-110825019D01*
X172740486Y-110777400D01*
X172883343Y-110729781D01*
X169740486Y-114218981D02*
X169740486Y-113218981D01*
X170240486Y-113933267D01*
X170740486Y-113218981D01*
X170740486Y-114218981D01*
X171240486Y-113218981D02*
X172097629Y-113218981D01*
X171669058Y-114218981D02*
X171669058Y-113218981D01*
X173383343Y-114218981D02*
X172526200Y-114218981D01*
X172954772Y-114218981D02*
X172954772Y-113218981D01*
X172811915Y-113361838D01*
X172669057Y-113457076D01*
X172526200Y-113504695D01*
X169740486Y-116809781D02*
X169740486Y-115809781D01*
X170240486Y-116524067D01*
X170740486Y-115809781D01*
X170740486Y-116809781D01*
X171240486Y-115809781D02*
X172097629Y-115809781D01*
X171669058Y-116809781D02*
X171669058Y-115809781D01*
X172526200Y-115905019D02*
X172597629Y-115857400D01*
X172740486Y-115809781D01*
X173097629Y-115809781D01*
X173240486Y-115857400D01*
X173311915Y-115905019D01*
X173383343Y-116000257D01*
X173383343Y-116095495D01*
X173311915Y-116238352D01*
X172454772Y-116809781D01*
X173383343Y-116809781D01*
X169719858Y-109088181D02*
X169719858Y-108088181D01*
X170219858Y-108802467D01*
X170719858Y-108088181D01*
X170719858Y-109088181D01*
X171219858Y-108088181D02*
X171719858Y-109088181D01*
X172219858Y-108088181D01*
X172648429Y-108183419D02*
X172719858Y-108135800D01*
X172862715Y-108088181D01*
X173219858Y-108088181D01*
X173362715Y-108135800D01*
X173434144Y-108183419D01*
X173505572Y-108278657D01*
X173505572Y-108373895D01*
X173434144Y-108516752D01*
X172577001Y-109088181D01*
X173505572Y-109088181D01*
X169719858Y-106573581D02*
X169719858Y-105573581D01*
X170219858Y-106287867D01*
X170719858Y-105573581D01*
X170719858Y-106573581D01*
X171219858Y-105573581D02*
X171719858Y-106573581D01*
X172219858Y-105573581D01*
X173505572Y-106573581D02*
X172648429Y-106573581D01*
X173077001Y-106573581D02*
X173077001Y-105573581D01*
X172934144Y-105716438D01*
X172791286Y-105811676D01*
X172648429Y-105859295D01*
X169719858Y-104135181D02*
X169719858Y-103135181D01*
X170219858Y-103849467D01*
X170719858Y-103135181D01*
X170719858Y-104135181D01*
X171219858Y-103135181D02*
X171719858Y-104135181D01*
X172219858Y-103135181D01*
X173005572Y-103135181D02*
X173148429Y-103135181D01*
X173291286Y-103182800D01*
X173362715Y-103230419D01*
X173434144Y-103325657D01*
X173505572Y-103516133D01*
X173505572Y-103754229D01*
X173434144Y-103944705D01*
X173362715Y-104039943D01*
X173291286Y-104087562D01*
X173148429Y-104135181D01*
X173005572Y-104135181D01*
X172862715Y-104087562D01*
X172791286Y-104039943D01*
X172719858Y-103944705D01*
X172648429Y-103754229D01*
X172648429Y-103516133D01*
X172719858Y-103325657D01*
X172791286Y-103230419D01*
X172862715Y-103182800D01*
X173005572Y-103135181D01*
X170607944Y-70791343D02*
X170536515Y-70838962D01*
X170322229Y-70886581D01*
X170179372Y-70886581D01*
X169965087Y-70838962D01*
X169822229Y-70743724D01*
X169750801Y-70648486D01*
X169679372Y-70458010D01*
X169679372Y-70315152D01*
X169750801Y-70124676D01*
X169822229Y-70029438D01*
X169965087Y-69934200D01*
X170179372Y-69886581D01*
X170322229Y-69886581D01*
X170536515Y-69934200D01*
X170607944Y-69981819D01*
X171036515Y-69886581D02*
X171536515Y-70886581D01*
X172036515Y-69886581D01*
X172822229Y-69886581D02*
X172965086Y-69886581D01*
X173107943Y-69934200D01*
X173179372Y-69981819D01*
X173250801Y-70077057D01*
X173322229Y-70267533D01*
X173322229Y-70505629D01*
X173250801Y-70696105D01*
X173179372Y-70791343D01*
X173107943Y-70838962D01*
X172965086Y-70886581D01*
X172822229Y-70886581D01*
X172679372Y-70838962D01*
X172607943Y-70791343D01*
X172536515Y-70696105D01*
X172465086Y-70505629D01*
X172465086Y-70267533D01*
X172536515Y-70077057D01*
X172607943Y-69981819D01*
X172679372Y-69934200D01*
X172822229Y-69886581D01*
X170633344Y-73331343D02*
X170561915Y-73378962D01*
X170347629Y-73426581D01*
X170204772Y-73426581D01*
X169990487Y-73378962D01*
X169847629Y-73283724D01*
X169776201Y-73188486D01*
X169704772Y-72998010D01*
X169704772Y-72855152D01*
X169776201Y-72664676D01*
X169847629Y-72569438D01*
X169990487Y-72474200D01*
X170204772Y-72426581D01*
X170347629Y-72426581D01*
X170561915Y-72474200D01*
X170633344Y-72521819D01*
X171061915Y-72426581D02*
X171561915Y-73426581D01*
X172061915Y-72426581D01*
X173347629Y-73426581D02*
X172490486Y-73426581D01*
X172919058Y-73426581D02*
X172919058Y-72426581D01*
X172776201Y-72569438D01*
X172633343Y-72664676D01*
X172490486Y-72712295D01*
X170633344Y-75896743D02*
X170561915Y-75944362D01*
X170347629Y-75991981D01*
X170204772Y-75991981D01*
X169990487Y-75944362D01*
X169847629Y-75849124D01*
X169776201Y-75753886D01*
X169704772Y-75563410D01*
X169704772Y-75420552D01*
X169776201Y-75230076D01*
X169847629Y-75134838D01*
X169990487Y-75039600D01*
X170204772Y-74991981D01*
X170347629Y-74991981D01*
X170561915Y-75039600D01*
X170633344Y-75087219D01*
X171061915Y-74991981D02*
X171561915Y-75991981D01*
X172061915Y-74991981D01*
X172490486Y-75087219D02*
X172561915Y-75039600D01*
X172704772Y-74991981D01*
X173061915Y-74991981D01*
X173204772Y-75039600D01*
X173276201Y-75087219D01*
X173347629Y-75182457D01*
X173347629Y-75277695D01*
X173276201Y-75420552D01*
X172419058Y-75991981D01*
X173347629Y-75991981D01*
X170628572Y-83567543D02*
X170557143Y-83615162D01*
X170342857Y-83662781D01*
X170200000Y-83662781D01*
X169985715Y-83615162D01*
X169842857Y-83519924D01*
X169771429Y-83424686D01*
X169700000Y-83234210D01*
X169700000Y-83091352D01*
X169771429Y-82900876D01*
X169842857Y-82805638D01*
X169985715Y-82710400D01*
X170200000Y-82662781D01*
X170342857Y-82662781D01*
X170557143Y-82710400D01*
X170628572Y-82758019D01*
X171057143Y-82662781D02*
X171914286Y-82662781D01*
X171485715Y-83662781D02*
X171485715Y-82662781D01*
X172342857Y-82758019D02*
X172414286Y-82710400D01*
X172557143Y-82662781D01*
X172914286Y-82662781D01*
X173057143Y-82710400D01*
X173128572Y-82758019D01*
X173200000Y-82853257D01*
X173200000Y-82948495D01*
X173128572Y-83091352D01*
X172271429Y-83662781D01*
X173200000Y-83662781D01*
X170628572Y-80976743D02*
X170557143Y-81024362D01*
X170342857Y-81071981D01*
X170200000Y-81071981D01*
X169985715Y-81024362D01*
X169842857Y-80929124D01*
X169771429Y-80833886D01*
X169700000Y-80643410D01*
X169700000Y-80500552D01*
X169771429Y-80310076D01*
X169842857Y-80214838D01*
X169985715Y-80119600D01*
X170200000Y-80071981D01*
X170342857Y-80071981D01*
X170557143Y-80119600D01*
X170628572Y-80167219D01*
X171057143Y-80071981D02*
X171914286Y-80071981D01*
X171485715Y-81071981D02*
X171485715Y-80071981D01*
X173200000Y-81071981D02*
X172342857Y-81071981D01*
X172771429Y-81071981D02*
X172771429Y-80071981D01*
X172628572Y-80214838D01*
X172485714Y-80310076D01*
X172342857Y-80357695D01*
X170628572Y-78385943D02*
X170557143Y-78433562D01*
X170342857Y-78481181D01*
X170200000Y-78481181D01*
X169985715Y-78433562D01*
X169842857Y-78338324D01*
X169771429Y-78243086D01*
X169700000Y-78052610D01*
X169700000Y-77909752D01*
X169771429Y-77719276D01*
X169842857Y-77624038D01*
X169985715Y-77528800D01*
X170200000Y-77481181D01*
X170342857Y-77481181D01*
X170557143Y-77528800D01*
X170628572Y-77576419D01*
X171057143Y-77481181D02*
X171914286Y-77481181D01*
X171485715Y-78481181D02*
X171485715Y-77481181D01*
X172700000Y-77481181D02*
X172842857Y-77481181D01*
X172985714Y-77528800D01*
X173057143Y-77576419D01*
X173128572Y-77671657D01*
X173200000Y-77862133D01*
X173200000Y-78100229D01*
X173128572Y-78290705D01*
X173057143Y-78385943D01*
X172985714Y-78433562D01*
X172842857Y-78481181D01*
X172700000Y-78481181D01*
X172557143Y-78433562D01*
X172485714Y-78385943D01*
X172414286Y-78290705D01*
X172342857Y-78100229D01*
X172342857Y-77862133D01*
X172414286Y-77671657D01*
X172485714Y-77576419D01*
X172557143Y-77528800D01*
X172700000Y-77481181D01*
X169720629Y-96565981D02*
X169720629Y-95565981D01*
X170077772Y-95565981D01*
X170292057Y-95613600D01*
X170434915Y-95708838D01*
X170506343Y-95804076D01*
X170577772Y-95994552D01*
X170577772Y-96137410D01*
X170506343Y-96327886D01*
X170434915Y-96423124D01*
X170292057Y-96518362D01*
X170077772Y-96565981D01*
X169720629Y-96565981D01*
X171006343Y-95565981D02*
X171863486Y-95565981D01*
X171434915Y-96565981D02*
X171434915Y-95565981D01*
X172649200Y-95565981D02*
X172792057Y-95565981D01*
X172934914Y-95613600D01*
X173006343Y-95661219D01*
X173077772Y-95756457D01*
X173149200Y-95946933D01*
X173149200Y-96185029D01*
X173077772Y-96375505D01*
X173006343Y-96470743D01*
X172934914Y-96518362D01*
X172792057Y-96565981D01*
X172649200Y-96565981D01*
X172506343Y-96518362D01*
X172434914Y-96470743D01*
X172363486Y-96375505D01*
X172292057Y-96185029D01*
X172292057Y-95946933D01*
X172363486Y-95756457D01*
X172434914Y-95661219D01*
X172506343Y-95613600D01*
X172649200Y-95565981D01*
X169720629Y-99080581D02*
X169720629Y-98080581D01*
X170077772Y-98080581D01*
X170292057Y-98128200D01*
X170434915Y-98223438D01*
X170506343Y-98318676D01*
X170577772Y-98509152D01*
X170577772Y-98652010D01*
X170506343Y-98842486D01*
X170434915Y-98937724D01*
X170292057Y-99032962D01*
X170077772Y-99080581D01*
X169720629Y-99080581D01*
X171006343Y-98080581D02*
X171863486Y-98080581D01*
X171434915Y-99080581D02*
X171434915Y-98080581D01*
X173149200Y-99080581D02*
X172292057Y-99080581D01*
X172720629Y-99080581D02*
X172720629Y-98080581D01*
X172577772Y-98223438D01*
X172434914Y-98318676D01*
X172292057Y-98366295D01*
X169720629Y-101595181D02*
X169720629Y-100595181D01*
X170077772Y-100595181D01*
X170292057Y-100642800D01*
X170434915Y-100738038D01*
X170506343Y-100833276D01*
X170577772Y-101023752D01*
X170577772Y-101166610D01*
X170506343Y-101357086D01*
X170434915Y-101452324D01*
X170292057Y-101547562D01*
X170077772Y-101595181D01*
X169720629Y-101595181D01*
X171006343Y-100595181D02*
X171863486Y-100595181D01*
X171434915Y-101595181D02*
X171434915Y-100595181D01*
X172292057Y-100690419D02*
X172363486Y-100642800D01*
X172506343Y-100595181D01*
X172863486Y-100595181D01*
X173006343Y-100642800D01*
X173077772Y-100690419D01*
X173149200Y-100785657D01*
X173149200Y-100880895D01*
X173077772Y-101023752D01*
X172220629Y-101595181D01*
X173149200Y-101595181D01*
X169700001Y-93949781D02*
X169700001Y-92949781D01*
X170057144Y-92949781D01*
X170271429Y-92997400D01*
X170414287Y-93092638D01*
X170485715Y-93187876D01*
X170557144Y-93378352D01*
X170557144Y-93521210D01*
X170485715Y-93711686D01*
X170414287Y-93806924D01*
X170271429Y-93902162D01*
X170057144Y-93949781D01*
X169700001Y-93949781D01*
X170985715Y-92949781D02*
X171485715Y-93949781D01*
X171985715Y-92949781D01*
X172414286Y-93045019D02*
X172485715Y-92997400D01*
X172628572Y-92949781D01*
X172985715Y-92949781D01*
X173128572Y-92997400D01*
X173200001Y-93045019D01*
X173271429Y-93140257D01*
X173271429Y-93235495D01*
X173200001Y-93378352D01*
X172342858Y-93949781D01*
X173271429Y-93949781D01*
X169700001Y-88691981D02*
X169700001Y-87691981D01*
X170057144Y-87691981D01*
X170271429Y-87739600D01*
X170414287Y-87834838D01*
X170485715Y-87930076D01*
X170557144Y-88120552D01*
X170557144Y-88263410D01*
X170485715Y-88453886D01*
X170414287Y-88549124D01*
X170271429Y-88644362D01*
X170057144Y-88691981D01*
X169700001Y-88691981D01*
X170985715Y-87691981D02*
X171485715Y-88691981D01*
X171985715Y-87691981D01*
X173271429Y-88691981D02*
X172414286Y-88691981D01*
X172842858Y-88691981D02*
X172842858Y-87691981D01*
X172700001Y-87834838D01*
X172557143Y-87930076D01*
X172414286Y-87977695D01*
X169700001Y-86126581D02*
X169700001Y-85126581D01*
X170057144Y-85126581D01*
X170271429Y-85174200D01*
X170414287Y-85269438D01*
X170485715Y-85364676D01*
X170557144Y-85555152D01*
X170557144Y-85698010D01*
X170485715Y-85888486D01*
X170414287Y-85983724D01*
X170271429Y-86078962D01*
X170057144Y-86126581D01*
X169700001Y-86126581D01*
X170985715Y-85126581D02*
X171485715Y-86126581D01*
X171985715Y-85126581D01*
X172771429Y-85126581D02*
X172914286Y-85126581D01*
X173057143Y-85174200D01*
X173128572Y-85221819D01*
X173200001Y-85317057D01*
X173271429Y-85507533D01*
X173271429Y-85745629D01*
X173200001Y-85936105D01*
X173128572Y-86031343D01*
X173057143Y-86078962D01*
X172914286Y-86126581D01*
X172771429Y-86126581D01*
X172628572Y-86078962D01*
X172557143Y-86031343D01*
X172485715Y-85936105D01*
X172414286Y-85745629D01*
X172414286Y-85507533D01*
X172485715Y-85317057D01*
X172557143Y-85221819D01*
X172628572Y-85174200D01*
X172771429Y-85126581D01*
X170174601Y-55071971D02*
X170388887Y-55119590D01*
X170460315Y-55167210D01*
X170531744Y-55262448D01*
X170531744Y-55405305D01*
X170460315Y-55500543D01*
X170388887Y-55548162D01*
X170246029Y-55595781D01*
X169674601Y-55595781D01*
X169674601Y-54595781D01*
X170174601Y-54595781D01*
X170317458Y-54643400D01*
X170388887Y-54691019D01*
X170460315Y-54786257D01*
X170460315Y-54881495D01*
X170388887Y-54976733D01*
X170317458Y-55024352D01*
X170174601Y-55071971D01*
X169674601Y-55071971D01*
X170960315Y-54595781D02*
X171460315Y-55595781D01*
X171960315Y-54595781D01*
X172746029Y-54595781D02*
X172888886Y-54595781D01*
X173031743Y-54643400D01*
X173103172Y-54691019D01*
X173174601Y-54786257D01*
X173246029Y-54976733D01*
X173246029Y-55214829D01*
X173174601Y-55405305D01*
X173103172Y-55500543D01*
X173031743Y-55548162D01*
X172888886Y-55595781D01*
X172746029Y-55595781D01*
X172603172Y-55548162D01*
X172531743Y-55500543D01*
X172460315Y-55405305D01*
X172388886Y-55214829D01*
X172388886Y-54976733D01*
X172460315Y-54786257D01*
X172531743Y-54691019D01*
X172603172Y-54643400D01*
X172746029Y-54595781D01*
X170174601Y-57637371D02*
X170388887Y-57684990D01*
X170460315Y-57732610D01*
X170531744Y-57827848D01*
X170531744Y-57970705D01*
X170460315Y-58065943D01*
X170388887Y-58113562D01*
X170246029Y-58161181D01*
X169674601Y-58161181D01*
X169674601Y-57161181D01*
X170174601Y-57161181D01*
X170317458Y-57208800D01*
X170388887Y-57256419D01*
X170460315Y-57351657D01*
X170460315Y-57446895D01*
X170388887Y-57542133D01*
X170317458Y-57589752D01*
X170174601Y-57637371D01*
X169674601Y-57637371D01*
X170960315Y-57161181D02*
X171460315Y-58161181D01*
X171960315Y-57161181D01*
X173246029Y-58161181D02*
X172388886Y-58161181D01*
X172817458Y-58161181D02*
X172817458Y-57161181D01*
X172674601Y-57304038D01*
X172531743Y-57399276D01*
X172388886Y-57446895D01*
X170174601Y-60202771D02*
X170388887Y-60250390D01*
X170460315Y-60298010D01*
X170531744Y-60393248D01*
X170531744Y-60536105D01*
X170460315Y-60631343D01*
X170388887Y-60678962D01*
X170246029Y-60726581D01*
X169674601Y-60726581D01*
X169674601Y-59726581D01*
X170174601Y-59726581D01*
X170317458Y-59774200D01*
X170388887Y-59821819D01*
X170460315Y-59917057D01*
X170460315Y-60012295D01*
X170388887Y-60107533D01*
X170317458Y-60155152D01*
X170174601Y-60202771D01*
X169674601Y-60202771D01*
X170960315Y-59726581D02*
X171460315Y-60726581D01*
X171960315Y-59726581D01*
X172388886Y-59821819D02*
X172460315Y-59774200D01*
X172603172Y-59726581D01*
X172960315Y-59726581D01*
X173103172Y-59774200D01*
X173174601Y-59821819D01*
X173246029Y-59917057D01*
X173246029Y-60012295D01*
X173174601Y-60155152D01*
X172317458Y-60726581D01*
X173246029Y-60726581D01*
X170195229Y-67797371D02*
X170409515Y-67844990D01*
X170480943Y-67892610D01*
X170552372Y-67987848D01*
X170552372Y-68130705D01*
X170480943Y-68225943D01*
X170409515Y-68273562D01*
X170266657Y-68321181D01*
X169695229Y-68321181D01*
X169695229Y-67321181D01*
X170195229Y-67321181D01*
X170338086Y-67368800D01*
X170409515Y-67416419D01*
X170480943Y-67511657D01*
X170480943Y-67606895D01*
X170409515Y-67702133D01*
X170338086Y-67749752D01*
X170195229Y-67797371D01*
X169695229Y-67797371D01*
X170980943Y-67321181D02*
X171838086Y-67321181D01*
X171409515Y-68321181D02*
X171409515Y-67321181D01*
X172266657Y-67416419D02*
X172338086Y-67368800D01*
X172480943Y-67321181D01*
X172838086Y-67321181D01*
X172980943Y-67368800D01*
X173052372Y-67416419D01*
X173123800Y-67511657D01*
X173123800Y-67606895D01*
X173052372Y-67749752D01*
X172195229Y-68321181D01*
X173123800Y-68321181D01*
X170195229Y-65231971D02*
X170409515Y-65279590D01*
X170480943Y-65327210D01*
X170552372Y-65422448D01*
X170552372Y-65565305D01*
X170480943Y-65660543D01*
X170409515Y-65708162D01*
X170266657Y-65755781D01*
X169695229Y-65755781D01*
X169695229Y-64755781D01*
X170195229Y-64755781D01*
X170338086Y-64803400D01*
X170409515Y-64851019D01*
X170480943Y-64946257D01*
X170480943Y-65041495D01*
X170409515Y-65136733D01*
X170338086Y-65184352D01*
X170195229Y-65231971D01*
X169695229Y-65231971D01*
X170980943Y-64755781D02*
X171838086Y-64755781D01*
X171409515Y-65755781D02*
X171409515Y-64755781D01*
X173123800Y-65755781D02*
X172266657Y-65755781D01*
X172695229Y-65755781D02*
X172695229Y-64755781D01*
X172552372Y-64898638D01*
X172409514Y-64993876D01*
X172266657Y-65041495D01*
X170195229Y-62717371D02*
X170409515Y-62764990D01*
X170480943Y-62812610D01*
X170552372Y-62907848D01*
X170552372Y-63050705D01*
X170480943Y-63145943D01*
X170409515Y-63193562D01*
X170266657Y-63241181D01*
X169695229Y-63241181D01*
X169695229Y-62241181D01*
X170195229Y-62241181D01*
X170338086Y-62288800D01*
X170409515Y-62336419D01*
X170480943Y-62431657D01*
X170480943Y-62526895D01*
X170409515Y-62622133D01*
X170338086Y-62669752D01*
X170195229Y-62717371D01*
X169695229Y-62717371D01*
X170980943Y-62241181D02*
X171838086Y-62241181D01*
X171409515Y-63241181D02*
X171409515Y-62241181D01*
X172623800Y-62241181D02*
X172766657Y-62241181D01*
X172909514Y-62288800D01*
X172980943Y-62336419D01*
X173052372Y-62431657D01*
X173123800Y-62622133D01*
X173123800Y-62860229D01*
X173052372Y-63050705D01*
X172980943Y-63145943D01*
X172909514Y-63193562D01*
X172766657Y-63241181D01*
X172623800Y-63241181D01*
X172480943Y-63193562D01*
X172409514Y-63145943D01*
X172338086Y-63050705D01*
X172266657Y-62860229D01*
X172266657Y-62622133D01*
X172338086Y-62431657D01*
X172409514Y-62336419D01*
X172480943Y-62288800D01*
X172623800Y-62241181D01*
X169807143Y-47740867D02*
X170521429Y-47740867D01*
X169664286Y-48026581D02*
X170164286Y-47026581D01*
X170664286Y-48026581D01*
X170950000Y-47026581D02*
X171807143Y-47026581D01*
X171378572Y-48026581D02*
X171378572Y-47026581D01*
X172592857Y-47026581D02*
X172735714Y-47026581D01*
X172878571Y-47074200D01*
X172950000Y-47121819D01*
X173021429Y-47217057D01*
X173092857Y-47407533D01*
X173092857Y-47645629D01*
X173021429Y-47836105D01*
X172950000Y-47931343D01*
X172878571Y-47978962D01*
X172735714Y-48026581D01*
X172592857Y-48026581D01*
X172450000Y-47978962D01*
X172378571Y-47931343D01*
X172307143Y-47836105D01*
X172235714Y-47645629D01*
X172235714Y-47407533D01*
X172307143Y-47217057D01*
X172378571Y-47121819D01*
X172450000Y-47074200D01*
X172592857Y-47026581D01*
X169807143Y-50179267D02*
X170521429Y-50179267D01*
X169664286Y-50464981D02*
X170164286Y-49464981D01*
X170664286Y-50464981D01*
X170950000Y-49464981D02*
X171807143Y-49464981D01*
X171378572Y-50464981D02*
X171378572Y-49464981D01*
X173092857Y-50464981D02*
X172235714Y-50464981D01*
X172664286Y-50464981D02*
X172664286Y-49464981D01*
X172521429Y-49607838D01*
X172378571Y-49703076D01*
X172235714Y-49750695D01*
X169807143Y-52744667D02*
X170521429Y-52744667D01*
X169664286Y-53030381D02*
X170164286Y-52030381D01*
X170664286Y-53030381D01*
X170950000Y-52030381D02*
X171807143Y-52030381D01*
X171378572Y-53030381D02*
X171378572Y-52030381D01*
X172235714Y-52125619D02*
X172307143Y-52078000D01*
X172450000Y-52030381D01*
X172807143Y-52030381D01*
X172950000Y-52078000D01*
X173021429Y-52125619D01*
X173092857Y-52220857D01*
X173092857Y-52316095D01*
X173021429Y-52458952D01*
X172164286Y-53030381D01*
X173092857Y-53030381D01*
X169786515Y-45099267D02*
X170500801Y-45099267D01*
X169643658Y-45384981D02*
X170143658Y-44384981D01*
X170643658Y-45384981D01*
X170929372Y-44384981D02*
X171429372Y-45384981D01*
X171929372Y-44384981D01*
X172357943Y-44480219D02*
X172429372Y-44432600D01*
X172572229Y-44384981D01*
X172929372Y-44384981D01*
X173072229Y-44432600D01*
X173143658Y-44480219D01*
X173215086Y-44575457D01*
X173215086Y-44670695D01*
X173143658Y-44813552D01*
X172286515Y-45384981D01*
X173215086Y-45384981D01*
X169837315Y-42533867D02*
X170551601Y-42533867D01*
X169694458Y-42819581D02*
X170194458Y-41819581D01*
X170694458Y-42819581D01*
X170980172Y-41819581D02*
X171480172Y-42819581D01*
X171980172Y-41819581D01*
X173265886Y-42819581D02*
X172408743Y-42819581D01*
X172837315Y-42819581D02*
X172837315Y-41819581D01*
X172694458Y-41962438D01*
X172551600Y-42057676D01*
X172408743Y-42105295D01*
X169811915Y-40095467D02*
X170526201Y-40095467D01*
X169669058Y-40381181D02*
X170169058Y-39381181D01*
X170669058Y-40381181D01*
X170954772Y-39381181D02*
X171454772Y-40381181D01*
X171954772Y-39381181D01*
X172740486Y-39381181D02*
X172883343Y-39381181D01*
X173026200Y-39428800D01*
X173097629Y-39476419D01*
X173169058Y-39571657D01*
X173240486Y-39762133D01*
X173240486Y-40000229D01*
X173169058Y-40190705D01*
X173097629Y-40285943D01*
X173026200Y-40333562D01*
X172883343Y-40381181D01*
X172740486Y-40381181D01*
X172597629Y-40333562D01*
X172526200Y-40285943D01*
X172454772Y-40190705D01*
X172383343Y-40000229D01*
X172383343Y-39762133D01*
X172454772Y-39571657D01*
X172526200Y-39476419D01*
X172597629Y-39428800D01*
X172740486Y-39381181D01*
X129946400Y-49682400D02*
X129946400Y-52222400D01*
X130226400Y-46862400D02*
X130226400Y-48412400D01*
X129946400Y-49682400D02*
X127406400Y-49682400D01*
X127126400Y-48412400D02*
X127126400Y-46862400D01*
X127126400Y-46862400D02*
X130226400Y-46862400D01*
X127406400Y-49682400D02*
X127406400Y-52222400D01*
X127406400Y-52222400D02*
X129946400Y-52222400D01*
X168376400Y-89408000D02*
X168376400Y-38608000D01*
X163296400Y-41148000D02*
X163296400Y-89408000D01*
X168376400Y-89408000D02*
X163296400Y-89408000D01*
X168376400Y-38608000D02*
X165836400Y-38608000D01*
X164566400Y-38328000D02*
X163016400Y-38328000D01*
X165836400Y-38608000D02*
X165836400Y-41148000D01*
X165836400Y-41148000D02*
X163296400Y-41148000D01*
X163016400Y-38328000D02*
X163016400Y-39878000D01*
X168427400Y-143002000D02*
X168427400Y-92202000D01*
X163347400Y-94742000D02*
X163347400Y-143002000D01*
X168427400Y-143002000D02*
X163347400Y-143002000D01*
X168427400Y-92202000D02*
X165887400Y-92202000D01*
X164617400Y-91922000D02*
X163067400Y-91922000D01*
X165887400Y-92202000D02*
X165887400Y-94742000D01*
X165887400Y-94742000D02*
X163347400Y-94742000D01*
X163067400Y-91922000D02*
X163067400Y-93472000D01*
X157124400Y-41148000D02*
X152044400Y-41148000D01*
X152044400Y-41148000D02*
X152044400Y-38608000D01*
X152044400Y-38608000D02*
X157124400Y-38608000D01*
X157124400Y-38608000D02*
X157124400Y-41148000D01*
X157124400Y-39878000D02*
X158394400Y-39878000D01*
X152044400Y-39878000D02*
X150774400Y-39878000D01*
X157124400Y-43688000D02*
X152044400Y-43688000D01*
X152044400Y-43688000D02*
X152044400Y-41148000D01*
X152044400Y-41148000D02*
X157124400Y-41148000D01*
X157124400Y-41148000D02*
X157124400Y-43688000D01*
X157124400Y-42418000D02*
X158394400Y-42418000D01*
X152044400Y-42418000D02*
X150774400Y-42418000D01*
X157124400Y-46228000D02*
X152044400Y-46228000D01*
X152044400Y-46228000D02*
X152044400Y-43688000D01*
X152044400Y-43688000D02*
X157124400Y-43688000D01*
X157124400Y-43688000D02*
X157124400Y-46228000D01*
X157124400Y-44958000D02*
X158394400Y-44958000D01*
X152044400Y-44958000D02*
X150774400Y-44958000D01*
X157099400Y-48768000D02*
X152019400Y-48768000D01*
X152019400Y-48768000D02*
X152019400Y-46228000D01*
X152019400Y-46228000D02*
X157099400Y-46228000D01*
X157099400Y-46228000D02*
X157099400Y-48768000D01*
X157099400Y-47498000D02*
X158369400Y-47498000D01*
X152019400Y-47498000D02*
X150749400Y-47498000D01*
X157124400Y-51308000D02*
X152044400Y-51308000D01*
X152044400Y-51308000D02*
X152044400Y-48768000D01*
X152044400Y-48768000D02*
X157124400Y-48768000D01*
X157124400Y-48768000D02*
X157124400Y-51308000D01*
X157124400Y-50038000D02*
X158394400Y-50038000D01*
X152044400Y-50038000D02*
X150774400Y-50038000D01*
X157124400Y-53848000D02*
X152044400Y-53848000D01*
X152044400Y-53848000D02*
X152044400Y-51308000D01*
X152044400Y-51308000D02*
X157124400Y-51308000D01*
X157124400Y-51308000D02*
X157124400Y-53848000D01*
X157124400Y-52578000D02*
X158394400Y-52578000D01*
X152044400Y-52578000D02*
X150774400Y-52578000D01*
X157124400Y-56388000D02*
X152044400Y-56388000D01*
X152044400Y-56388000D02*
X152044400Y-53848000D01*
X152044400Y-53848000D02*
X157124400Y-53848000D01*
X157124400Y-53848000D02*
X157124400Y-56388000D01*
X157124400Y-55118000D02*
X158394400Y-55118000D01*
X152044400Y-55118000D02*
X150774400Y-55118000D01*
X157149400Y-58928000D02*
X152069400Y-58928000D01*
X152069400Y-58928000D02*
X152069400Y-56388000D01*
X152069400Y-56388000D02*
X157149400Y-56388000D01*
X157149400Y-56388000D02*
X157149400Y-58928000D01*
X157149400Y-57658000D02*
X158419400Y-57658000D01*
X152069400Y-57658000D02*
X150799400Y-57658000D01*
X157149400Y-61468000D02*
X152069400Y-61468000D01*
X152069400Y-61468000D02*
X152069400Y-58928000D01*
X152069400Y-58928000D02*
X157149400Y-58928000D01*
X157149400Y-58928000D02*
X157149400Y-61468000D01*
X157149400Y-60198000D02*
X158419400Y-60198000D01*
X152069400Y-60198000D02*
X150799400Y-60198000D01*
X157149400Y-64033000D02*
X152069400Y-64033000D01*
X152069400Y-64033000D02*
X152069400Y-61493000D01*
X152069400Y-61493000D02*
X157149400Y-61493000D01*
X157149400Y-61493000D02*
X157149400Y-64033000D01*
X157149400Y-62763000D02*
X158419400Y-62763000D01*
X152069400Y-62763000D02*
X150799400Y-62763000D01*
X157149400Y-66548000D02*
X152069400Y-66548000D01*
X152069400Y-66548000D02*
X152069400Y-64008000D01*
X152069400Y-64008000D02*
X157149400Y-64008000D01*
X157149400Y-64008000D02*
X157149400Y-66548000D01*
X157149400Y-65278000D02*
X158419400Y-65278000D01*
X152069400Y-65278000D02*
X150799400Y-65278000D01*
X157149400Y-69088000D02*
X152069400Y-69088000D01*
X152069400Y-69088000D02*
X152069400Y-66548000D01*
X152069400Y-66548000D02*
X157149400Y-66548000D01*
X157149400Y-66548000D02*
X157149400Y-69088000D01*
X157149400Y-67818000D02*
X158419400Y-67818000D01*
X152069400Y-67818000D02*
X150799400Y-67818000D01*
X157149400Y-71653000D02*
X152069400Y-71653000D01*
X152069400Y-71653000D02*
X152069400Y-69113000D01*
X152069400Y-69113000D02*
X157149400Y-69113000D01*
X157149400Y-69113000D02*
X157149400Y-71653000D01*
X157149400Y-70383000D02*
X158419400Y-70383000D01*
X152069400Y-70383000D02*
X150799400Y-70383000D01*
X157149400Y-74168000D02*
X152069400Y-74168000D01*
X152069400Y-74168000D02*
X152069400Y-71628000D01*
X152069400Y-71628000D02*
X157149400Y-71628000D01*
X157149400Y-71628000D02*
X157149400Y-74168000D01*
X157149400Y-72898000D02*
X158419400Y-72898000D01*
X152069400Y-72898000D02*
X150799400Y-72898000D01*
X157149400Y-76708000D02*
X152069400Y-76708000D01*
X152069400Y-76708000D02*
X152069400Y-74168000D01*
X152069400Y-74168000D02*
X157149400Y-74168000D01*
X157149400Y-74168000D02*
X157149400Y-76708000D01*
X157149400Y-75438000D02*
X158419400Y-75438000D01*
X152069400Y-75438000D02*
X150799400Y-75438000D01*
X157149400Y-79248000D02*
X152069400Y-79248000D01*
X152069400Y-79248000D02*
X152069400Y-76708000D01*
X152069400Y-76708000D02*
X157149400Y-76708000D01*
X157149400Y-76708000D02*
X157149400Y-79248000D01*
X157149400Y-77978000D02*
X158419400Y-77978000D01*
X152069400Y-77978000D02*
X150799400Y-77978000D01*
X157149400Y-81788000D02*
X152069400Y-81788000D01*
X152069400Y-81788000D02*
X152069400Y-79248000D01*
X152069400Y-79248000D02*
X157149400Y-79248000D01*
X157149400Y-79248000D02*
X157149400Y-81788000D01*
X157149400Y-80518000D02*
X158419400Y-80518000D01*
X152069400Y-80518000D02*
X150799400Y-80518000D01*
X157149400Y-84328000D02*
X152069400Y-84328000D01*
X152069400Y-84328000D02*
X152069400Y-81788000D01*
X152069400Y-81788000D02*
X157149400Y-81788000D01*
X157149400Y-81788000D02*
X157149400Y-84328000D01*
X157149400Y-83058000D02*
X158419400Y-83058000D01*
X152069400Y-83058000D02*
X150799400Y-83058000D01*
X157149400Y-86868000D02*
X152069400Y-86868000D01*
X152069400Y-86868000D02*
X152069400Y-84328000D01*
X152069400Y-84328000D02*
X157149400Y-84328000D01*
X157149400Y-84328000D02*
X157149400Y-86868000D01*
X157149400Y-85598000D02*
X158419400Y-85598000D01*
X152069400Y-85598000D02*
X150799400Y-85598000D01*
X157149400Y-89408000D02*
X152069400Y-89408000D01*
X152069400Y-89408000D02*
X152069400Y-86868000D01*
X152069400Y-86868000D02*
X157149400Y-86868000D01*
X157149400Y-86868000D02*
X157149400Y-89408000D01*
X157149400Y-88138000D02*
X158419400Y-88138000D01*
X152069400Y-88138000D02*
X150799400Y-88138000D01*
X157149400Y-94742000D02*
X152069400Y-94742000D01*
X152069400Y-94742000D02*
X152069400Y-92202000D01*
X152069400Y-92202000D02*
X157149400Y-92202000D01*
X157149400Y-92202000D02*
X157149400Y-94742000D01*
X157149400Y-93472000D02*
X158419400Y-93472000D01*
X152069400Y-93472000D02*
X150799400Y-93472000D01*
X157149400Y-97282000D02*
X152069400Y-97282000D01*
X152069400Y-97282000D02*
X152069400Y-94742000D01*
X152069400Y-94742000D02*
X157149400Y-94742000D01*
X157149400Y-94742000D02*
X157149400Y-97282000D01*
X157149400Y-96012000D02*
X158419400Y-96012000D01*
X152069400Y-96012000D02*
X150799400Y-96012000D01*
X157149400Y-99822000D02*
X152069400Y-99822000D01*
X152069400Y-99822000D02*
X152069400Y-97282000D01*
X152069400Y-97282000D02*
X157149400Y-97282000D01*
X157149400Y-97282000D02*
X157149400Y-99822000D01*
X157149400Y-98552000D02*
X158419400Y-98552000D01*
X152069400Y-98552000D02*
X150799400Y-98552000D01*
X157149400Y-102387000D02*
X152069400Y-102387000D01*
X152069400Y-102387000D02*
X152069400Y-99847000D01*
X152069400Y-99847000D02*
X157149400Y-99847000D01*
X157149400Y-99847000D02*
X157149400Y-102387000D01*
X157149400Y-101117000D02*
X158419400Y-101117000D01*
X152069400Y-101117000D02*
X150799400Y-101117000D01*
X157149400Y-104902000D02*
X152069400Y-104902000D01*
X152069400Y-104902000D02*
X152069400Y-102362000D01*
X152069400Y-102362000D02*
X157149400Y-102362000D01*
X157149400Y-102362000D02*
X157149400Y-104902000D01*
X157149400Y-103632000D02*
X158419400Y-103632000D01*
X152069400Y-103632000D02*
X150799400Y-103632000D01*
X157149400Y-107442000D02*
X152069400Y-107442000D01*
X152069400Y-107442000D02*
X152069400Y-104902000D01*
X152069400Y-104902000D02*
X157149400Y-104902000D01*
X157149400Y-104902000D02*
X157149400Y-107442000D01*
X157149400Y-106172000D02*
X158419400Y-106172000D01*
X152069400Y-106172000D02*
X150799400Y-106172000D01*
X157149400Y-109982000D02*
X152069400Y-109982000D01*
X152069400Y-109982000D02*
X152069400Y-107442000D01*
X152069400Y-107442000D02*
X157149400Y-107442000D01*
X157149400Y-107442000D02*
X157149400Y-109982000D01*
X157149400Y-108712000D02*
X158419400Y-108712000D01*
X152069400Y-108712000D02*
X150799400Y-108712000D01*
X157149400Y-112522000D02*
X152069400Y-112522000D01*
X152069400Y-112522000D02*
X152069400Y-109982000D01*
X152069400Y-109982000D02*
X157149400Y-109982000D01*
X157149400Y-109982000D02*
X157149400Y-112522000D01*
X157149400Y-111252000D02*
X158419400Y-111252000D01*
X152069400Y-111252000D02*
X150799400Y-111252000D01*
X157149400Y-115062000D02*
X152069400Y-115062000D01*
X152069400Y-115062000D02*
X152069400Y-112522000D01*
X152069400Y-112522000D02*
X157149400Y-112522000D01*
X157149400Y-112522000D02*
X157149400Y-115062000D01*
X157149400Y-113792000D02*
X158419400Y-113792000D01*
X152069400Y-113792000D02*
X150799400Y-113792000D01*
X157149400Y-117602000D02*
X152069400Y-117602000D01*
X152069400Y-117602000D02*
X152069400Y-115062000D01*
X152069400Y-115062000D02*
X157149400Y-115062000D01*
X157149400Y-115062000D02*
X157149400Y-117602000D01*
X157149400Y-116332000D02*
X158419400Y-116332000D01*
X152069400Y-116332000D02*
X150799400Y-116332000D01*
X157149400Y-120142000D02*
X152069400Y-120142000D01*
X152069400Y-120142000D02*
X152069400Y-117602000D01*
X152069400Y-117602000D02*
X157149400Y-117602000D01*
X157149400Y-117602000D02*
X157149400Y-120142000D01*
X157149400Y-118872000D02*
X158419400Y-118872000D01*
X152069400Y-118872000D02*
X150799400Y-118872000D01*
X157149400Y-122682000D02*
X152069400Y-122682000D01*
X152069400Y-122682000D02*
X152069400Y-120142000D01*
X152069400Y-120142000D02*
X157149400Y-120142000D01*
X157149400Y-120142000D02*
X157149400Y-122682000D01*
X157149400Y-121412000D02*
X158419400Y-121412000D01*
X152069400Y-121412000D02*
X150799400Y-121412000D01*
X157149400Y-125222000D02*
X152069400Y-125222000D01*
X152069400Y-125222000D02*
X152069400Y-122682000D01*
X152069400Y-122682000D02*
X157149400Y-122682000D01*
X157149400Y-122682000D02*
X157149400Y-125222000D01*
X157149400Y-123952000D02*
X158419400Y-123952000D01*
X152069400Y-123952000D02*
X150799400Y-123952000D01*
X157149400Y-127762000D02*
X152069400Y-127762000D01*
X152069400Y-127762000D02*
X152069400Y-125222000D01*
X152069400Y-125222000D02*
X157149400Y-125222000D01*
X157149400Y-125222000D02*
X157149400Y-127762000D01*
X157149400Y-126492000D02*
X158419400Y-126492000D01*
X152069400Y-126492000D02*
X150799400Y-126492000D01*
X157149400Y-130327000D02*
X152069400Y-130327000D01*
X152069400Y-130327000D02*
X152069400Y-127787000D01*
X152069400Y-127787000D02*
X157149400Y-127787000D01*
X157149400Y-127787000D02*
X157149400Y-130327000D01*
X157149400Y-129057000D02*
X158419400Y-129057000D01*
X152069400Y-129057000D02*
X150799400Y-129057000D01*
X157149400Y-132842000D02*
X152069400Y-132842000D01*
X152069400Y-132842000D02*
X152069400Y-130302000D01*
X152069400Y-130302000D02*
X157149400Y-130302000D01*
X157149400Y-130302000D02*
X157149400Y-132842000D01*
X157149400Y-131572000D02*
X158419400Y-131572000D01*
X152069400Y-131572000D02*
X150799400Y-131572000D01*
X157149400Y-135382000D02*
X152069400Y-135382000D01*
X152069400Y-135382000D02*
X152069400Y-132842000D01*
X152069400Y-132842000D02*
X157149400Y-132842000D01*
X157149400Y-132842000D02*
X157149400Y-135382000D01*
X157149400Y-134112000D02*
X158419400Y-134112000D01*
X152069400Y-134112000D02*
X150799400Y-134112000D01*
X137075800Y-128025000D02*
X137075800Y-126755000D01*
X129725800Y-128025000D02*
X129725800Y-126755000D01*
X129725800Y-105655000D02*
X129725800Y-106925000D01*
X137075800Y-105655000D02*
X137075800Y-106925000D01*
X137075800Y-128025000D02*
X129725800Y-128025000D01*
X137075800Y-105655000D02*
X129725800Y-105655000D01*
X137075800Y-126755000D02*
X138010800Y-126755000D01*
X138853800Y-76996400D02*
X138853800Y-75726400D01*
X131503800Y-76996400D02*
X131503800Y-75726400D01*
X131503800Y-54626400D02*
X131503800Y-55896400D01*
X138853800Y-54626400D02*
X138853800Y-55896400D01*
X138853800Y-76996400D02*
X131503800Y-76996400D01*
X138853800Y-54626400D02*
X131503800Y-54626400D01*
X138853800Y-75726400D02*
X139788800Y-75726400D01*
X135399400Y-153475800D02*
X135399400Y-152205800D01*
X128049400Y-153475800D02*
X128049400Y-152205800D01*
X128049400Y-131105800D02*
X128049400Y-132375800D01*
X135399400Y-131105800D02*
X135399400Y-132375800D01*
X135399400Y-153475800D02*
X128049400Y-153475800D01*
X135399400Y-131105800D02*
X128049400Y-131105800D01*
X135399400Y-152205800D02*
X136334400Y-152205800D01*
X140581000Y-51596400D02*
X140581000Y-50326400D01*
X133231000Y-51596400D02*
X133231000Y-50326400D01*
X133231000Y-29226400D02*
X133231000Y-30496400D01*
X140581000Y-29226400D02*
X140581000Y-30496400D01*
X140581000Y-51596400D02*
X133231000Y-51596400D01*
X140581000Y-29226400D02*
X133231000Y-29226400D01*
X140581000Y-50326400D02*
X141516000Y-50326400D01*
X139361800Y-102650400D02*
X139361800Y-101380400D01*
X132011800Y-102650400D02*
X132011800Y-101380400D01*
X132011800Y-80280400D02*
X132011800Y-81550400D01*
X139361800Y-80280400D02*
X139361800Y-81550400D01*
X139361800Y-102650400D02*
X132011800Y-102650400D01*
X139361800Y-80280400D02*
X132011800Y-80280400D01*
X139361800Y-101380400D02*
X140296800Y-101380400D01*
X130155000Y-30255400D02*
X130155000Y-33255400D01*
X127655000Y-33255400D02*
X127655000Y-30255400D01*
X128935800Y-56773000D02*
X128935800Y-59773000D01*
X126435800Y-59773000D02*
X126435800Y-56773000D01*
X129520000Y-82376200D02*
X129520000Y-85376200D01*
X127020000Y-85376200D02*
X127020000Y-82376200D01*
X126954600Y-107801600D02*
X126954600Y-110801600D01*
X124454600Y-110801600D02*
X124454600Y-107801600D01*
X125684600Y-133176200D02*
X125684600Y-136176200D01*
X123184600Y-136176200D02*
X123184600Y-133176200D01*
X111328200Y-70942200D02*
X116408200Y-70942200D01*
X116408200Y-70942200D02*
X116408200Y-68402200D01*
X116408200Y-68402200D02*
X111328200Y-68402200D01*
X108508200Y-68122200D02*
X110058200Y-68122200D01*
X111328200Y-68402200D02*
X111328200Y-70942200D01*
X110058200Y-71222200D02*
X108508200Y-71222200D01*
X108508200Y-71222200D02*
X108508200Y-68122200D01*
X111328200Y-96443800D02*
X116408200Y-96443800D01*
X116408200Y-96443800D02*
X116408200Y-93903800D01*
X116408200Y-93903800D02*
X111328200Y-93903800D01*
X108508200Y-93623800D02*
X110058200Y-93623800D01*
X111328200Y-93903800D02*
X111328200Y-96443800D01*
X110058200Y-96723800D02*
X108508200Y-96723800D01*
X108508200Y-96723800D02*
X108508200Y-93623800D01*
X111353600Y-121894600D02*
X116433600Y-121894600D01*
X116433600Y-121894600D02*
X116433600Y-119354600D01*
X116433600Y-119354600D02*
X111353600Y-119354600D01*
X108533600Y-119074600D02*
X110083600Y-119074600D01*
X111353600Y-119354600D02*
X111353600Y-121894600D01*
X110083600Y-122174600D02*
X108533600Y-122174600D01*
X108533600Y-122174600D02*
X108533600Y-119074600D01*
X128701800Y-64084200D02*
X128701800Y-66624200D01*
X128981800Y-61264200D02*
X128981800Y-62814200D01*
X128701800Y-64084200D02*
X126161800Y-64084200D01*
X125881800Y-62814200D02*
X125881800Y-61264200D01*
X125881800Y-61264200D02*
X128981800Y-61264200D01*
X126161800Y-64084200D02*
X126161800Y-66624200D01*
X126161800Y-66624200D02*
X128701800Y-66624200D01*
X125501400Y-140462000D02*
X125501400Y-143002000D01*
X125781400Y-137642000D02*
X125781400Y-139192000D01*
X125501400Y-140462000D02*
X122961400Y-140462000D01*
X122681400Y-139192000D02*
X122681400Y-137642000D01*
X122681400Y-137642000D02*
X125781400Y-137642000D01*
X122961400Y-140462000D02*
X122961400Y-143002000D01*
X122961400Y-143002000D02*
X125501400Y-143002000D01*
X126390400Y-38023800D02*
X126390400Y-40563800D01*
X126670400Y-35203800D02*
X126670400Y-36753800D01*
X126390400Y-38023800D02*
X123850400Y-38023800D01*
X123570400Y-36753800D02*
X123570400Y-35203800D01*
X123570400Y-35203800D02*
X126670400Y-35203800D01*
X123850400Y-38023800D02*
X123850400Y-40563800D01*
X123850400Y-40563800D02*
X126390400Y-40563800D01*
X128905000Y-89814400D02*
X128905000Y-92354400D01*
X129185000Y-86994400D02*
X129185000Y-88544400D01*
X128905000Y-89814400D02*
X126365000Y-89814400D01*
X126085000Y-88544400D02*
X126085000Y-86994400D01*
X126085000Y-86994400D02*
X129185000Y-86994400D01*
X126365000Y-89814400D02*
X126365000Y-92354400D01*
X126365000Y-92354400D02*
X128905000Y-92354400D01*
X126721200Y-119100000D02*
X126721200Y-120650000D01*
X123621200Y-120650000D02*
X123621200Y-119100000D01*
X123621200Y-119100000D02*
X126721200Y-119100000D01*
X123901200Y-121920000D02*
X126441200Y-121920000D01*
X125730600Y-144550800D02*
X125730600Y-146100800D01*
X122630600Y-146100800D02*
X122630600Y-144550800D01*
X122630600Y-144550800D02*
X125730600Y-144550800D01*
X122910600Y-147370800D02*
X125450600Y-147370800D01*
X129159600Y-68071400D02*
X129159600Y-69621400D01*
X126059600Y-69621400D02*
X126059600Y-68071400D01*
X126059600Y-68071400D02*
X129159600Y-68071400D01*
X126339600Y-70891400D02*
X128879600Y-70891400D01*
X129261200Y-93725400D02*
X129261200Y-95275400D01*
X126161200Y-95275400D02*
X126161200Y-93725400D01*
X126161200Y-93725400D02*
X129261200Y-93725400D01*
X126441200Y-96545400D02*
X128981200Y-96545400D01*
X111340900Y-142989300D02*
X116420900Y-142989300D01*
X116420900Y-142989300D02*
X116420900Y-140449300D01*
X116420900Y-140449300D02*
X111340900Y-140449300D01*
X108520900Y-140169300D02*
X110070900Y-140169300D01*
X111340900Y-140449300D02*
X111340900Y-142989300D01*
X110070900Y-143269300D02*
X108520900Y-143269300D01*
X108520900Y-143269300D02*
X108520900Y-140169300D01*
X126441200Y-115189000D02*
X126441200Y-117729000D01*
X126721200Y-112369000D02*
X126721200Y-113919000D01*
X126441200Y-115189000D02*
X123901200Y-115189000D01*
X123621200Y-113919000D02*
X123621200Y-112369000D01*
X123621200Y-112369000D02*
X126721200Y-112369000D01*
X123901200Y-115189000D02*
X123901200Y-117729000D01*
X123901200Y-117729000D02*
X126441200Y-117729000D01*
X111429800Y-40538400D02*
X108889800Y-40538400D01*
X114249800Y-40818400D02*
X112699800Y-40818400D01*
X111429800Y-40538400D02*
X111429800Y-37998400D01*
X112699800Y-37718400D02*
X114249800Y-37718400D01*
X114249800Y-37718400D02*
X114249800Y-40818400D01*
X111429800Y-37998400D02*
X108889800Y-37998400D01*
X108889800Y-37998400D02*
X108889800Y-40538400D01*
X127660400Y-37998400D02*
X127660400Y-43078400D01*
X127660400Y-43078400D02*
X130200400Y-43078400D01*
X130200400Y-43078400D02*
X130200400Y-37998400D01*
X130480400Y-35178400D02*
X130480400Y-36728400D01*
X130200400Y-37998400D02*
X127660400Y-37998400D01*
X127380400Y-36728400D02*
X127380400Y-35178400D01*
X127380400Y-35178400D02*
X130480400Y-35178400D01*
X125908400Y-127469300D02*
X125908400Y-129019300D01*
X122808400Y-129019300D02*
X122808400Y-127469300D01*
X122808400Y-127469300D02*
X125908400Y-127469300D01*
X123088400Y-130289300D02*
X125628400Y-130289300D01*
X157149800Y-138671300D02*
X152069800Y-138671300D01*
X152069800Y-138671300D02*
X152069800Y-136131300D01*
X152069800Y-136131300D02*
X157149800Y-136131300D01*
X157149800Y-136131300D02*
X157149800Y-138671300D01*
X157149800Y-137401300D02*
X158419800Y-137401300D01*
X152069800Y-137401300D02*
X150799800Y-137401300D01*
X157149800Y-141846300D02*
X152069800Y-141846300D01*
X152069800Y-141846300D02*
X152069800Y-139306300D01*
X152069800Y-139306300D02*
X157149800Y-139306300D01*
X157149800Y-139306300D02*
X157149800Y-141846300D01*
X157149800Y-140576300D02*
X158419800Y-140576300D01*
X152069800Y-140576300D02*
X150799800Y-140576300D01*
X157149800Y-145046700D02*
X152069800Y-145046700D01*
X152069800Y-145046700D02*
X152069800Y-142506700D01*
X152069800Y-142506700D02*
X157149800Y-142506700D01*
X157149800Y-142506700D02*
X157149800Y-145046700D01*
X157149800Y-143776700D02*
X158419800Y-143776700D01*
X152069800Y-143776700D02*
X150799800Y-143776700D01*
X124458505Y-48610781D02*
X124458505Y-47610781D01*
X124839458Y-47610781D01*
X124934696Y-47658400D01*
X124982315Y-47706019D01*
X125029934Y-47801257D01*
X125029934Y-47944114D01*
X124982315Y-48039352D01*
X124934696Y-48086971D01*
X124839458Y-48134590D01*
X124458505Y-48134590D01*
X125410886Y-47706019D02*
X125458505Y-47658400D01*
X125553743Y-47610781D01*
X125791839Y-47610781D01*
X125887077Y-47658400D01*
X125934696Y-47706019D01*
X125982315Y-47801257D01*
X125982315Y-47896495D01*
X125934696Y-48039352D01*
X125363267Y-48610781D01*
X125982315Y-48610781D01*
X164971305Y-37383981D02*
X164971305Y-36383981D01*
X165352258Y-36383981D01*
X165447496Y-36431600D01*
X165495115Y-36479219D01*
X165542734Y-36574457D01*
X165542734Y-36717314D01*
X165495115Y-36812552D01*
X165447496Y-36860171D01*
X165352258Y-36907790D01*
X164971305Y-36907790D01*
X165876067Y-36383981D02*
X166495115Y-36383981D01*
X166161781Y-36764933D01*
X166304639Y-36764933D01*
X166399877Y-36812552D01*
X166447496Y-36860171D01*
X166495115Y-36955410D01*
X166495115Y-37193505D01*
X166447496Y-37288743D01*
X166399877Y-37336362D01*
X166304639Y-37383981D01*
X166018924Y-37383981D01*
X165923686Y-37336362D01*
X165876067Y-37288743D01*
X165098505Y-91689181D02*
X165098505Y-90689181D01*
X165479458Y-90689181D01*
X165574696Y-90736800D01*
X165622315Y-90784419D01*
X165669934Y-90879657D01*
X165669934Y-91022514D01*
X165622315Y-91117752D01*
X165574696Y-91165371D01*
X165479458Y-91212990D01*
X165098505Y-91212990D01*
X166527077Y-91022514D02*
X166527077Y-91689181D01*
X166288981Y-90641562D02*
X166050886Y-91355848D01*
X166669934Y-91355848D01*
X154316134Y-40508181D02*
X153982800Y-40031990D01*
X153744705Y-40508181D02*
X153744705Y-39508181D01*
X154125658Y-39508181D01*
X154220896Y-39555800D01*
X154268515Y-39603419D01*
X154316134Y-39698657D01*
X154316134Y-39841514D01*
X154268515Y-39936752D01*
X154220896Y-39984371D01*
X154125658Y-40031990D01*
X153744705Y-40031990D01*
X155268515Y-40508181D02*
X154697086Y-40508181D01*
X154982800Y-40508181D02*
X154982800Y-39508181D01*
X154887562Y-39651038D01*
X154792324Y-39746276D01*
X154697086Y-39793895D01*
X154341534Y-42971981D02*
X154008200Y-42495790D01*
X153770105Y-42971981D02*
X153770105Y-41971981D01*
X154151058Y-41971981D01*
X154246296Y-42019600D01*
X154293915Y-42067219D01*
X154341534Y-42162457D01*
X154341534Y-42305314D01*
X154293915Y-42400552D01*
X154246296Y-42448171D01*
X154151058Y-42495790D01*
X153770105Y-42495790D01*
X154722486Y-42067219D02*
X154770105Y-42019600D01*
X154865343Y-41971981D01*
X155103439Y-41971981D01*
X155198677Y-42019600D01*
X155246296Y-42067219D01*
X155293915Y-42162457D01*
X155293915Y-42257695D01*
X155246296Y-42400552D01*
X154674867Y-42971981D01*
X155293915Y-42971981D01*
X154392334Y-45511981D02*
X154059000Y-45035790D01*
X153820905Y-45511981D02*
X153820905Y-44511981D01*
X154201858Y-44511981D01*
X154297096Y-44559600D01*
X154344715Y-44607219D01*
X154392334Y-44702457D01*
X154392334Y-44845314D01*
X154344715Y-44940552D01*
X154297096Y-44988171D01*
X154201858Y-45035790D01*
X153820905Y-45035790D01*
X154725667Y-44511981D02*
X155344715Y-44511981D01*
X155011381Y-44892933D01*
X155154239Y-44892933D01*
X155249477Y-44940552D01*
X155297096Y-44988171D01*
X155344715Y-45083410D01*
X155344715Y-45321505D01*
X155297096Y-45416743D01*
X155249477Y-45464362D01*
X155154239Y-45511981D01*
X154868524Y-45511981D01*
X154773286Y-45464362D01*
X154725667Y-45416743D01*
X154341934Y-48102781D02*
X154008600Y-47626590D01*
X153770505Y-48102781D02*
X153770505Y-47102781D01*
X154151458Y-47102781D01*
X154246696Y-47150400D01*
X154294315Y-47198019D01*
X154341934Y-47293257D01*
X154341934Y-47436114D01*
X154294315Y-47531352D01*
X154246696Y-47578971D01*
X154151458Y-47626590D01*
X153770505Y-47626590D01*
X155199077Y-47436114D02*
X155199077Y-48102781D01*
X154960981Y-47055162D02*
X154722886Y-47769448D01*
X155341934Y-47769448D01*
X154392334Y-50490381D02*
X154059000Y-50014190D01*
X153820905Y-50490381D02*
X153820905Y-49490381D01*
X154201858Y-49490381D01*
X154297096Y-49538000D01*
X154344715Y-49585619D01*
X154392334Y-49680857D01*
X154392334Y-49823714D01*
X154344715Y-49918952D01*
X154297096Y-49966571D01*
X154201858Y-50014190D01*
X153820905Y-50014190D01*
X155297096Y-49490381D02*
X154820905Y-49490381D01*
X154773286Y-49966571D01*
X154820905Y-49918952D01*
X154916143Y-49871333D01*
X155154239Y-49871333D01*
X155249477Y-49918952D01*
X155297096Y-49966571D01*
X155344715Y-50061810D01*
X155344715Y-50299905D01*
X155297096Y-50395143D01*
X155249477Y-50442762D01*
X155154239Y-50490381D01*
X154916143Y-50490381D01*
X154820905Y-50442762D01*
X154773286Y-50395143D01*
X154468534Y-53106581D02*
X154135200Y-52630390D01*
X153897105Y-53106581D02*
X153897105Y-52106581D01*
X154278058Y-52106581D01*
X154373296Y-52154200D01*
X154420915Y-52201819D01*
X154468534Y-52297057D01*
X154468534Y-52439914D01*
X154420915Y-52535152D01*
X154373296Y-52582771D01*
X154278058Y-52630390D01*
X153897105Y-52630390D01*
X155325677Y-52106581D02*
X155135200Y-52106581D01*
X155039962Y-52154200D01*
X154992343Y-52201819D01*
X154897105Y-52344676D01*
X154849486Y-52535152D01*
X154849486Y-52916105D01*
X154897105Y-53011343D01*
X154944724Y-53058962D01*
X155039962Y-53106581D01*
X155230439Y-53106581D01*
X155325677Y-53058962D01*
X155373296Y-53011343D01*
X155420915Y-52916105D01*
X155420915Y-52678010D01*
X155373296Y-52582771D01*
X155325677Y-52535152D01*
X155230439Y-52487533D01*
X155039962Y-52487533D01*
X154944724Y-52535152D01*
X154897105Y-52582771D01*
X154849486Y-52678010D01*
X154468534Y-55671981D02*
X154135200Y-55195790D01*
X153897105Y-55671981D02*
X153897105Y-54671981D01*
X154278058Y-54671981D01*
X154373296Y-54719600D01*
X154420915Y-54767219D01*
X154468534Y-54862457D01*
X154468534Y-55005314D01*
X154420915Y-55100552D01*
X154373296Y-55148171D01*
X154278058Y-55195790D01*
X153897105Y-55195790D01*
X154801867Y-54671981D02*
X155468534Y-54671981D01*
X155039962Y-55671981D01*
X154417334Y-58135781D02*
X154084000Y-57659590D01*
X153845905Y-58135781D02*
X153845905Y-57135781D01*
X154226858Y-57135781D01*
X154322096Y-57183400D01*
X154369715Y-57231019D01*
X154417334Y-57326257D01*
X154417334Y-57469114D01*
X154369715Y-57564352D01*
X154322096Y-57611971D01*
X154226858Y-57659590D01*
X153845905Y-57659590D01*
X154988762Y-57564352D02*
X154893524Y-57516733D01*
X154845905Y-57469114D01*
X154798286Y-57373876D01*
X154798286Y-57326257D01*
X154845905Y-57231019D01*
X154893524Y-57183400D01*
X154988762Y-57135781D01*
X155179239Y-57135781D01*
X155274477Y-57183400D01*
X155322096Y-57231019D01*
X155369715Y-57326257D01*
X155369715Y-57373876D01*
X155322096Y-57469114D01*
X155274477Y-57516733D01*
X155179239Y-57564352D01*
X154988762Y-57564352D01*
X154893524Y-57611971D01*
X154845905Y-57659590D01*
X154798286Y-57754829D01*
X154798286Y-57945305D01*
X154845905Y-58040543D01*
X154893524Y-58088162D01*
X154988762Y-58135781D01*
X155179239Y-58135781D01*
X155274477Y-58088162D01*
X155322096Y-58040543D01*
X155369715Y-57945305D01*
X155369715Y-57754829D01*
X155322096Y-57659590D01*
X155274477Y-57611971D01*
X155179239Y-57564352D01*
X154442734Y-60802781D02*
X154109400Y-60326590D01*
X153871305Y-60802781D02*
X153871305Y-59802781D01*
X154252258Y-59802781D01*
X154347496Y-59850400D01*
X154395115Y-59898019D01*
X154442734Y-59993257D01*
X154442734Y-60136114D01*
X154395115Y-60231352D01*
X154347496Y-60278971D01*
X154252258Y-60326590D01*
X153871305Y-60326590D01*
X154918924Y-60802781D02*
X155109400Y-60802781D01*
X155204639Y-60755162D01*
X155252258Y-60707543D01*
X155347496Y-60564686D01*
X155395115Y-60374210D01*
X155395115Y-59993257D01*
X155347496Y-59898019D01*
X155299877Y-59850400D01*
X155204639Y-59802781D01*
X155014162Y-59802781D01*
X154918924Y-59850400D01*
X154871305Y-59898019D01*
X154823686Y-59993257D01*
X154823686Y-60231352D01*
X154871305Y-60326590D01*
X154918924Y-60374210D01*
X155014162Y-60421829D01*
X155204639Y-60421829D01*
X155299877Y-60374210D01*
X155347496Y-60326590D01*
X155395115Y-60231352D01*
X153941143Y-63240781D02*
X153607809Y-62764590D01*
X153369714Y-63240781D02*
X153369714Y-62240781D01*
X153750667Y-62240781D01*
X153845905Y-62288400D01*
X153893524Y-62336019D01*
X153941143Y-62431257D01*
X153941143Y-62574114D01*
X153893524Y-62669352D01*
X153845905Y-62716971D01*
X153750667Y-62764590D01*
X153369714Y-62764590D01*
X154893524Y-63240781D02*
X154322095Y-63240781D01*
X154607809Y-63240781D02*
X154607809Y-62240781D01*
X154512571Y-62383638D01*
X154417333Y-62478876D01*
X154322095Y-62526495D01*
X155512571Y-62240781D02*
X155607810Y-62240781D01*
X155703048Y-62288400D01*
X155750667Y-62336019D01*
X155798286Y-62431257D01*
X155845905Y-62621733D01*
X155845905Y-62859829D01*
X155798286Y-63050305D01*
X155750667Y-63145543D01*
X155703048Y-63193162D01*
X155607810Y-63240781D01*
X155512571Y-63240781D01*
X155417333Y-63193162D01*
X155369714Y-63145543D01*
X155322095Y-63050305D01*
X155274476Y-62859829D01*
X155274476Y-62621733D01*
X155322095Y-62431257D01*
X155369714Y-62336019D01*
X155417333Y-62288400D01*
X155512571Y-62240781D01*
X153890343Y-65755781D02*
X153557009Y-65279590D01*
X153318914Y-65755781D02*
X153318914Y-64755781D01*
X153699867Y-64755781D01*
X153795105Y-64803400D01*
X153842724Y-64851019D01*
X153890343Y-64946257D01*
X153890343Y-65089114D01*
X153842724Y-65184352D01*
X153795105Y-65231971D01*
X153699867Y-65279590D01*
X153318914Y-65279590D01*
X154842724Y-65755781D02*
X154271295Y-65755781D01*
X154557009Y-65755781D02*
X154557009Y-64755781D01*
X154461771Y-64898638D01*
X154366533Y-64993876D01*
X154271295Y-65041495D01*
X155795105Y-65755781D02*
X155223676Y-65755781D01*
X155509390Y-65755781D02*
X155509390Y-64755781D01*
X155414152Y-64898638D01*
X155318914Y-64993876D01*
X155223676Y-65041495D01*
X153915743Y-68321181D02*
X153582409Y-67844990D01*
X153344314Y-68321181D02*
X153344314Y-67321181D01*
X153725267Y-67321181D01*
X153820505Y-67368800D01*
X153868124Y-67416419D01*
X153915743Y-67511657D01*
X153915743Y-67654514D01*
X153868124Y-67749752D01*
X153820505Y-67797371D01*
X153725267Y-67844990D01*
X153344314Y-67844990D01*
X154868124Y-68321181D02*
X154296695Y-68321181D01*
X154582409Y-68321181D02*
X154582409Y-67321181D01*
X154487171Y-67464038D01*
X154391933Y-67559276D01*
X154296695Y-67606895D01*
X155249076Y-67416419D02*
X155296695Y-67368800D01*
X155391933Y-67321181D01*
X155630029Y-67321181D01*
X155725267Y-67368800D01*
X155772886Y-67416419D01*
X155820505Y-67511657D01*
X155820505Y-67606895D01*
X155772886Y-67749752D01*
X155201457Y-68321181D01*
X155820505Y-68321181D01*
X153966543Y-70936981D02*
X153633209Y-70460790D01*
X153395114Y-70936981D02*
X153395114Y-69936981D01*
X153776067Y-69936981D01*
X153871305Y-69984600D01*
X153918924Y-70032219D01*
X153966543Y-70127457D01*
X153966543Y-70270314D01*
X153918924Y-70365552D01*
X153871305Y-70413171D01*
X153776067Y-70460790D01*
X153395114Y-70460790D01*
X154918924Y-70936981D02*
X154347495Y-70936981D01*
X154633209Y-70936981D02*
X154633209Y-69936981D01*
X154537971Y-70079838D01*
X154442733Y-70175076D01*
X154347495Y-70222695D01*
X155252257Y-69936981D02*
X155871305Y-69936981D01*
X155537971Y-70317933D01*
X155680829Y-70317933D01*
X155776067Y-70365552D01*
X155823686Y-70413171D01*
X155871305Y-70508410D01*
X155871305Y-70746505D01*
X155823686Y-70841743D01*
X155776067Y-70889362D01*
X155680829Y-70936981D01*
X155395114Y-70936981D01*
X155299876Y-70889362D01*
X155252257Y-70841743D01*
X153890343Y-73375781D02*
X153557009Y-72899590D01*
X153318914Y-73375781D02*
X153318914Y-72375781D01*
X153699867Y-72375781D01*
X153795105Y-72423400D01*
X153842724Y-72471019D01*
X153890343Y-72566257D01*
X153890343Y-72709114D01*
X153842724Y-72804352D01*
X153795105Y-72851971D01*
X153699867Y-72899590D01*
X153318914Y-72899590D01*
X154842724Y-73375781D02*
X154271295Y-73375781D01*
X154557009Y-73375781D02*
X154557009Y-72375781D01*
X154461771Y-72518638D01*
X154366533Y-72613876D01*
X154271295Y-72661495D01*
X155699867Y-72709114D02*
X155699867Y-73375781D01*
X155461771Y-72328162D02*
X155223676Y-73042448D01*
X155842724Y-73042448D01*
X153915743Y-75966581D02*
X153582409Y-75490390D01*
X153344314Y-75966581D02*
X153344314Y-74966581D01*
X153725267Y-74966581D01*
X153820505Y-75014200D01*
X153868124Y-75061819D01*
X153915743Y-75157057D01*
X153915743Y-75299914D01*
X153868124Y-75395152D01*
X153820505Y-75442771D01*
X153725267Y-75490390D01*
X153344314Y-75490390D01*
X154868124Y-75966581D02*
X154296695Y-75966581D01*
X154582409Y-75966581D02*
X154582409Y-74966581D01*
X154487171Y-75109438D01*
X154391933Y-75204676D01*
X154296695Y-75252295D01*
X155772886Y-74966581D02*
X155296695Y-74966581D01*
X155249076Y-75442771D01*
X155296695Y-75395152D01*
X155391933Y-75347533D01*
X155630029Y-75347533D01*
X155725267Y-75395152D01*
X155772886Y-75442771D01*
X155820505Y-75538010D01*
X155820505Y-75776105D01*
X155772886Y-75871343D01*
X155725267Y-75918962D01*
X155630029Y-75966581D01*
X155391933Y-75966581D01*
X155296695Y-75918962D01*
X155249076Y-75871343D01*
X153839543Y-78506581D02*
X153506209Y-78030390D01*
X153268114Y-78506581D02*
X153268114Y-77506581D01*
X153649067Y-77506581D01*
X153744305Y-77554200D01*
X153791924Y-77601819D01*
X153839543Y-77697057D01*
X153839543Y-77839914D01*
X153791924Y-77935152D01*
X153744305Y-77982771D01*
X153649067Y-78030390D01*
X153268114Y-78030390D01*
X154791924Y-78506581D02*
X154220495Y-78506581D01*
X154506209Y-78506581D02*
X154506209Y-77506581D01*
X154410971Y-77649438D01*
X154315733Y-77744676D01*
X154220495Y-77792295D01*
X155649067Y-77506581D02*
X155458590Y-77506581D01*
X155363352Y-77554200D01*
X155315733Y-77601819D01*
X155220495Y-77744676D01*
X155172876Y-77935152D01*
X155172876Y-78316105D01*
X155220495Y-78411343D01*
X155268114Y-78458962D01*
X155363352Y-78506581D01*
X155553829Y-78506581D01*
X155649067Y-78458962D01*
X155696686Y-78411343D01*
X155744305Y-78316105D01*
X155744305Y-78078010D01*
X155696686Y-77982771D01*
X155649067Y-77935152D01*
X155553829Y-77887533D01*
X155363352Y-77887533D01*
X155268114Y-77935152D01*
X155220495Y-77982771D01*
X155172876Y-78078010D01*
X153941143Y-81071981D02*
X153607809Y-80595790D01*
X153369714Y-81071981D02*
X153369714Y-80071981D01*
X153750667Y-80071981D01*
X153845905Y-80119600D01*
X153893524Y-80167219D01*
X153941143Y-80262457D01*
X153941143Y-80405314D01*
X153893524Y-80500552D01*
X153845905Y-80548171D01*
X153750667Y-80595790D01*
X153369714Y-80595790D01*
X154893524Y-81071981D02*
X154322095Y-81071981D01*
X154607809Y-81071981D02*
X154607809Y-80071981D01*
X154512571Y-80214838D01*
X154417333Y-80310076D01*
X154322095Y-80357695D01*
X155226857Y-80071981D02*
X155893524Y-80071981D01*
X155464952Y-81071981D01*
X153890343Y-83586581D02*
X153557009Y-83110390D01*
X153318914Y-83586581D02*
X153318914Y-82586581D01*
X153699867Y-82586581D01*
X153795105Y-82634200D01*
X153842724Y-82681819D01*
X153890343Y-82777057D01*
X153890343Y-82919914D01*
X153842724Y-83015152D01*
X153795105Y-83062771D01*
X153699867Y-83110390D01*
X153318914Y-83110390D01*
X154842724Y-83586581D02*
X154271295Y-83586581D01*
X154557009Y-83586581D02*
X154557009Y-82586581D01*
X154461771Y-82729438D01*
X154366533Y-82824676D01*
X154271295Y-82872295D01*
X155414152Y-83015152D02*
X155318914Y-82967533D01*
X155271295Y-82919914D01*
X155223676Y-82824676D01*
X155223676Y-82777057D01*
X155271295Y-82681819D01*
X155318914Y-82634200D01*
X155414152Y-82586581D01*
X155604629Y-82586581D01*
X155699867Y-82634200D01*
X155747486Y-82681819D01*
X155795105Y-82777057D01*
X155795105Y-82824676D01*
X155747486Y-82919914D01*
X155699867Y-82967533D01*
X155604629Y-83015152D01*
X155414152Y-83015152D01*
X155318914Y-83062771D01*
X155271295Y-83110390D01*
X155223676Y-83205629D01*
X155223676Y-83396105D01*
X155271295Y-83491343D01*
X155318914Y-83538962D01*
X155414152Y-83586581D01*
X155604629Y-83586581D01*
X155699867Y-83538962D01*
X155747486Y-83491343D01*
X155795105Y-83396105D01*
X155795105Y-83205629D01*
X155747486Y-83110390D01*
X155699867Y-83062771D01*
X155604629Y-83015152D01*
X153788743Y-86228181D02*
X153455409Y-85751990D01*
X153217314Y-86228181D02*
X153217314Y-85228181D01*
X153598267Y-85228181D01*
X153693505Y-85275800D01*
X153741124Y-85323419D01*
X153788743Y-85418657D01*
X153788743Y-85561514D01*
X153741124Y-85656752D01*
X153693505Y-85704371D01*
X153598267Y-85751990D01*
X153217314Y-85751990D01*
X154741124Y-86228181D02*
X154169695Y-86228181D01*
X154455409Y-86228181D02*
X154455409Y-85228181D01*
X154360171Y-85371038D01*
X154264933Y-85466276D01*
X154169695Y-85513895D01*
X155217314Y-86228181D02*
X155407790Y-86228181D01*
X155503029Y-86180562D01*
X155550648Y-86132943D01*
X155645886Y-85990086D01*
X155693505Y-85799610D01*
X155693505Y-85418657D01*
X155645886Y-85323419D01*
X155598267Y-85275800D01*
X155503029Y-85228181D01*
X155312552Y-85228181D01*
X155217314Y-85275800D01*
X155169695Y-85323419D01*
X155122076Y-85418657D01*
X155122076Y-85656752D01*
X155169695Y-85751990D01*
X155217314Y-85799610D01*
X155312552Y-85847229D01*
X155503029Y-85847229D01*
X155598267Y-85799610D01*
X155645886Y-85751990D01*
X155693505Y-85656752D01*
X153788743Y-88615781D02*
X153455409Y-88139590D01*
X153217314Y-88615781D02*
X153217314Y-87615781D01*
X153598267Y-87615781D01*
X153693505Y-87663400D01*
X153741124Y-87711019D01*
X153788743Y-87806257D01*
X153788743Y-87949114D01*
X153741124Y-88044352D01*
X153693505Y-88091971D01*
X153598267Y-88139590D01*
X153217314Y-88139590D01*
X154169695Y-87711019D02*
X154217314Y-87663400D01*
X154312552Y-87615781D01*
X154550648Y-87615781D01*
X154645886Y-87663400D01*
X154693505Y-87711019D01*
X154741124Y-87806257D01*
X154741124Y-87901495D01*
X154693505Y-88044352D01*
X154122076Y-88615781D01*
X154741124Y-88615781D01*
X155360171Y-87615781D02*
X155455410Y-87615781D01*
X155550648Y-87663400D01*
X155598267Y-87711019D01*
X155645886Y-87806257D01*
X155693505Y-87996733D01*
X155693505Y-88234829D01*
X155645886Y-88425305D01*
X155598267Y-88520543D01*
X155550648Y-88568162D01*
X155455410Y-88615781D01*
X155360171Y-88615781D01*
X155264933Y-88568162D01*
X155217314Y-88520543D01*
X155169695Y-88425305D01*
X155122076Y-88234829D01*
X155122076Y-87996733D01*
X155169695Y-87806257D01*
X155217314Y-87711019D01*
X155264933Y-87663400D01*
X155360171Y-87615781D01*
X153991943Y-93924381D02*
X153658609Y-93448190D01*
X153420514Y-93924381D02*
X153420514Y-92924381D01*
X153801467Y-92924381D01*
X153896705Y-92972000D01*
X153944324Y-93019619D01*
X153991943Y-93114857D01*
X153991943Y-93257714D01*
X153944324Y-93352952D01*
X153896705Y-93400571D01*
X153801467Y-93448190D01*
X153420514Y-93448190D01*
X154372895Y-93019619D02*
X154420514Y-92972000D01*
X154515752Y-92924381D01*
X154753848Y-92924381D01*
X154849086Y-92972000D01*
X154896705Y-93019619D01*
X154944324Y-93114857D01*
X154944324Y-93210095D01*
X154896705Y-93352952D01*
X154325276Y-93924381D01*
X154944324Y-93924381D01*
X155896705Y-93924381D02*
X155325276Y-93924381D01*
X155610990Y-93924381D02*
X155610990Y-92924381D01*
X155515752Y-93067238D01*
X155420514Y-93162476D01*
X155325276Y-93210095D01*
X154068143Y-96489781D02*
X153734809Y-96013590D01*
X153496714Y-96489781D02*
X153496714Y-95489781D01*
X153877667Y-95489781D01*
X153972905Y-95537400D01*
X154020524Y-95585019D01*
X154068143Y-95680257D01*
X154068143Y-95823114D01*
X154020524Y-95918352D01*
X153972905Y-95965971D01*
X153877667Y-96013590D01*
X153496714Y-96013590D01*
X154449095Y-95585019D02*
X154496714Y-95537400D01*
X154591952Y-95489781D01*
X154830048Y-95489781D01*
X154925286Y-95537400D01*
X154972905Y-95585019D01*
X155020524Y-95680257D01*
X155020524Y-95775495D01*
X154972905Y-95918352D01*
X154401476Y-96489781D01*
X155020524Y-96489781D01*
X155401476Y-95585019D02*
X155449095Y-95537400D01*
X155544333Y-95489781D01*
X155782429Y-95489781D01*
X155877667Y-95537400D01*
X155925286Y-95585019D01*
X155972905Y-95680257D01*
X155972905Y-95775495D01*
X155925286Y-95918352D01*
X155353857Y-96489781D01*
X155972905Y-96489781D01*
X153991943Y-99131381D02*
X153658609Y-98655190D01*
X153420514Y-99131381D02*
X153420514Y-98131381D01*
X153801467Y-98131381D01*
X153896705Y-98179000D01*
X153944324Y-98226619D01*
X153991943Y-98321857D01*
X153991943Y-98464714D01*
X153944324Y-98559952D01*
X153896705Y-98607571D01*
X153801467Y-98655190D01*
X153420514Y-98655190D01*
X154372895Y-98226619D02*
X154420514Y-98179000D01*
X154515752Y-98131381D01*
X154753848Y-98131381D01*
X154849086Y-98179000D01*
X154896705Y-98226619D01*
X154944324Y-98321857D01*
X154944324Y-98417095D01*
X154896705Y-98559952D01*
X154325276Y-99131381D01*
X154944324Y-99131381D01*
X155277657Y-98131381D02*
X155896705Y-98131381D01*
X155563371Y-98512333D01*
X155706229Y-98512333D01*
X155801467Y-98559952D01*
X155849086Y-98607571D01*
X155896705Y-98702810D01*
X155896705Y-98940905D01*
X155849086Y-99036143D01*
X155801467Y-99083762D01*
X155706229Y-99131381D01*
X155420514Y-99131381D01*
X155325276Y-99083762D01*
X155277657Y-99036143D01*
X154068143Y-101696381D02*
X153734809Y-101220190D01*
X153496714Y-101696381D02*
X153496714Y-100696381D01*
X153877667Y-100696381D01*
X153972905Y-100744000D01*
X154020524Y-100791619D01*
X154068143Y-100886857D01*
X154068143Y-101029714D01*
X154020524Y-101124952D01*
X153972905Y-101172571D01*
X153877667Y-101220190D01*
X153496714Y-101220190D01*
X154449095Y-100791619D02*
X154496714Y-100744000D01*
X154591952Y-100696381D01*
X154830048Y-100696381D01*
X154925286Y-100744000D01*
X154972905Y-100791619D01*
X155020524Y-100886857D01*
X155020524Y-100982095D01*
X154972905Y-101124952D01*
X154401476Y-101696381D01*
X155020524Y-101696381D01*
X155877667Y-101029714D02*
X155877667Y-101696381D01*
X155639571Y-100648762D02*
X155401476Y-101363048D01*
X156020524Y-101363048D01*
X153991943Y-104109781D02*
X153658609Y-103633590D01*
X153420514Y-104109781D02*
X153420514Y-103109781D01*
X153801467Y-103109781D01*
X153896705Y-103157400D01*
X153944324Y-103205019D01*
X153991943Y-103300257D01*
X153991943Y-103443114D01*
X153944324Y-103538352D01*
X153896705Y-103585971D01*
X153801467Y-103633590D01*
X153420514Y-103633590D01*
X154372895Y-103205019D02*
X154420514Y-103157400D01*
X154515752Y-103109781D01*
X154753848Y-103109781D01*
X154849086Y-103157400D01*
X154896705Y-103205019D01*
X154944324Y-103300257D01*
X154944324Y-103395495D01*
X154896705Y-103538352D01*
X154325276Y-104109781D01*
X154944324Y-104109781D01*
X155849086Y-103109781D02*
X155372895Y-103109781D01*
X155325276Y-103585971D01*
X155372895Y-103538352D01*
X155468133Y-103490733D01*
X155706229Y-103490733D01*
X155801467Y-103538352D01*
X155849086Y-103585971D01*
X155896705Y-103681210D01*
X155896705Y-103919305D01*
X155849086Y-104014543D01*
X155801467Y-104062162D01*
X155706229Y-104109781D01*
X155468133Y-104109781D01*
X155372895Y-104062162D01*
X155325276Y-104014543D01*
X153991943Y-106827581D02*
X153658609Y-106351390D01*
X153420514Y-106827581D02*
X153420514Y-105827581D01*
X153801467Y-105827581D01*
X153896705Y-105875200D01*
X153944324Y-105922819D01*
X153991943Y-106018057D01*
X153991943Y-106160914D01*
X153944324Y-106256152D01*
X153896705Y-106303771D01*
X153801467Y-106351390D01*
X153420514Y-106351390D01*
X154372895Y-105922819D02*
X154420514Y-105875200D01*
X154515752Y-105827581D01*
X154753848Y-105827581D01*
X154849086Y-105875200D01*
X154896705Y-105922819D01*
X154944324Y-106018057D01*
X154944324Y-106113295D01*
X154896705Y-106256152D01*
X154325276Y-106827581D01*
X154944324Y-106827581D01*
X155801467Y-105827581D02*
X155610990Y-105827581D01*
X155515752Y-105875200D01*
X155468133Y-105922819D01*
X155372895Y-106065676D01*
X155325276Y-106256152D01*
X155325276Y-106637105D01*
X155372895Y-106732343D01*
X155420514Y-106779962D01*
X155515752Y-106827581D01*
X155706229Y-106827581D01*
X155801467Y-106779962D01*
X155849086Y-106732343D01*
X155896705Y-106637105D01*
X155896705Y-106399010D01*
X155849086Y-106303771D01*
X155801467Y-106256152D01*
X155706229Y-106208533D01*
X155515752Y-106208533D01*
X155420514Y-106256152D01*
X155372895Y-106303771D01*
X155325276Y-106399010D01*
X153890343Y-109240581D02*
X153557009Y-108764390D01*
X153318914Y-109240581D02*
X153318914Y-108240581D01*
X153699867Y-108240581D01*
X153795105Y-108288200D01*
X153842724Y-108335819D01*
X153890343Y-108431057D01*
X153890343Y-108573914D01*
X153842724Y-108669152D01*
X153795105Y-108716771D01*
X153699867Y-108764390D01*
X153318914Y-108764390D01*
X154271295Y-108335819D02*
X154318914Y-108288200D01*
X154414152Y-108240581D01*
X154652248Y-108240581D01*
X154747486Y-108288200D01*
X154795105Y-108335819D01*
X154842724Y-108431057D01*
X154842724Y-108526295D01*
X154795105Y-108669152D01*
X154223676Y-109240581D01*
X154842724Y-109240581D01*
X155176057Y-108240581D02*
X155842724Y-108240581D01*
X155414152Y-109240581D01*
X153890343Y-111805981D02*
X153557009Y-111329790D01*
X153318914Y-111805981D02*
X153318914Y-110805981D01*
X153699867Y-110805981D01*
X153795105Y-110853600D01*
X153842724Y-110901219D01*
X153890343Y-110996457D01*
X153890343Y-111139314D01*
X153842724Y-111234552D01*
X153795105Y-111282171D01*
X153699867Y-111329790D01*
X153318914Y-111329790D01*
X154271295Y-110901219D02*
X154318914Y-110853600D01*
X154414152Y-110805981D01*
X154652248Y-110805981D01*
X154747486Y-110853600D01*
X154795105Y-110901219D01*
X154842724Y-110996457D01*
X154842724Y-111091695D01*
X154795105Y-111234552D01*
X154223676Y-111805981D01*
X154842724Y-111805981D01*
X155414152Y-111234552D02*
X155318914Y-111186933D01*
X155271295Y-111139314D01*
X155223676Y-111044076D01*
X155223676Y-110996457D01*
X155271295Y-110901219D01*
X155318914Y-110853600D01*
X155414152Y-110805981D01*
X155604629Y-110805981D01*
X155699867Y-110853600D01*
X155747486Y-110901219D01*
X155795105Y-110996457D01*
X155795105Y-111044076D01*
X155747486Y-111139314D01*
X155699867Y-111186933D01*
X155604629Y-111234552D01*
X155414152Y-111234552D01*
X155318914Y-111282171D01*
X155271295Y-111329790D01*
X155223676Y-111425029D01*
X155223676Y-111615505D01*
X155271295Y-111710743D01*
X155318914Y-111758362D01*
X155414152Y-111805981D01*
X155604629Y-111805981D01*
X155699867Y-111758362D01*
X155747486Y-111710743D01*
X155795105Y-111615505D01*
X155795105Y-111425029D01*
X155747486Y-111329790D01*
X155699867Y-111282171D01*
X155604629Y-111234552D01*
X153839543Y-114320581D02*
X153506209Y-113844390D01*
X153268114Y-114320581D02*
X153268114Y-113320581D01*
X153649067Y-113320581D01*
X153744305Y-113368200D01*
X153791924Y-113415819D01*
X153839543Y-113511057D01*
X153839543Y-113653914D01*
X153791924Y-113749152D01*
X153744305Y-113796771D01*
X153649067Y-113844390D01*
X153268114Y-113844390D01*
X154220495Y-113415819D02*
X154268114Y-113368200D01*
X154363352Y-113320581D01*
X154601448Y-113320581D01*
X154696686Y-113368200D01*
X154744305Y-113415819D01*
X154791924Y-113511057D01*
X154791924Y-113606295D01*
X154744305Y-113749152D01*
X154172876Y-114320581D01*
X154791924Y-114320581D01*
X155268114Y-114320581D02*
X155458590Y-114320581D01*
X155553829Y-114272962D01*
X155601448Y-114225343D01*
X155696686Y-114082486D01*
X155744305Y-113892010D01*
X155744305Y-113511057D01*
X155696686Y-113415819D01*
X155649067Y-113368200D01*
X155553829Y-113320581D01*
X155363352Y-113320581D01*
X155268114Y-113368200D01*
X155220495Y-113415819D01*
X155172876Y-113511057D01*
X155172876Y-113749152D01*
X155220495Y-113844390D01*
X155268114Y-113892010D01*
X155363352Y-113939629D01*
X155553829Y-113939629D01*
X155649067Y-113892010D01*
X155696686Y-113844390D01*
X155744305Y-113749152D01*
X154068143Y-116885981D02*
X153734809Y-116409790D01*
X153496714Y-116885981D02*
X153496714Y-115885981D01*
X153877667Y-115885981D01*
X153972905Y-115933600D01*
X154020524Y-115981219D01*
X154068143Y-116076457D01*
X154068143Y-116219314D01*
X154020524Y-116314552D01*
X153972905Y-116362171D01*
X153877667Y-116409790D01*
X153496714Y-116409790D01*
X154401476Y-115885981D02*
X155020524Y-115885981D01*
X154687190Y-116266933D01*
X154830048Y-116266933D01*
X154925286Y-116314552D01*
X154972905Y-116362171D01*
X155020524Y-116457410D01*
X155020524Y-116695505D01*
X154972905Y-116790743D01*
X154925286Y-116838362D01*
X154830048Y-116885981D01*
X154544333Y-116885981D01*
X154449095Y-116838362D01*
X154401476Y-116790743D01*
X155639571Y-115885981D02*
X155734810Y-115885981D01*
X155830048Y-115933600D01*
X155877667Y-115981219D01*
X155925286Y-116076457D01*
X155972905Y-116266933D01*
X155972905Y-116505029D01*
X155925286Y-116695505D01*
X155877667Y-116790743D01*
X155830048Y-116838362D01*
X155734810Y-116885981D01*
X155639571Y-116885981D01*
X155544333Y-116838362D01*
X155496714Y-116790743D01*
X155449095Y-116695505D01*
X155401476Y-116505029D01*
X155401476Y-116266933D01*
X155449095Y-116076457D01*
X155496714Y-115981219D01*
X155544333Y-115933600D01*
X155639571Y-115885981D01*
X153941143Y-119527581D02*
X153607809Y-119051390D01*
X153369714Y-119527581D02*
X153369714Y-118527581D01*
X153750667Y-118527581D01*
X153845905Y-118575200D01*
X153893524Y-118622819D01*
X153941143Y-118718057D01*
X153941143Y-118860914D01*
X153893524Y-118956152D01*
X153845905Y-119003771D01*
X153750667Y-119051390D01*
X153369714Y-119051390D01*
X154274476Y-118527581D02*
X154893524Y-118527581D01*
X154560190Y-118908533D01*
X154703048Y-118908533D01*
X154798286Y-118956152D01*
X154845905Y-119003771D01*
X154893524Y-119099010D01*
X154893524Y-119337105D01*
X154845905Y-119432343D01*
X154798286Y-119479962D01*
X154703048Y-119527581D01*
X154417333Y-119527581D01*
X154322095Y-119479962D01*
X154274476Y-119432343D01*
X155845905Y-119527581D02*
X155274476Y-119527581D01*
X155560190Y-119527581D02*
X155560190Y-118527581D01*
X155464952Y-118670438D01*
X155369714Y-118765676D01*
X155274476Y-118813295D01*
X153788743Y-122067581D02*
X153455409Y-121591390D01*
X153217314Y-122067581D02*
X153217314Y-121067581D01*
X153598267Y-121067581D01*
X153693505Y-121115200D01*
X153741124Y-121162819D01*
X153788743Y-121258057D01*
X153788743Y-121400914D01*
X153741124Y-121496152D01*
X153693505Y-121543771D01*
X153598267Y-121591390D01*
X153217314Y-121591390D01*
X154122076Y-121067581D02*
X154741124Y-121067581D01*
X154407790Y-121448533D01*
X154550648Y-121448533D01*
X154645886Y-121496152D01*
X154693505Y-121543771D01*
X154741124Y-121639010D01*
X154741124Y-121877105D01*
X154693505Y-121972343D01*
X154645886Y-122019962D01*
X154550648Y-122067581D01*
X154264933Y-122067581D01*
X154169695Y-122019962D01*
X154122076Y-121972343D01*
X155122076Y-121162819D02*
X155169695Y-121115200D01*
X155264933Y-121067581D01*
X155503029Y-121067581D01*
X155598267Y-121115200D01*
X155645886Y-121162819D01*
X155693505Y-121258057D01*
X155693505Y-121353295D01*
X155645886Y-121496152D01*
X155074457Y-122067581D01*
X155693505Y-122067581D01*
X153864943Y-124531381D02*
X153531609Y-124055190D01*
X153293514Y-124531381D02*
X153293514Y-123531381D01*
X153674467Y-123531381D01*
X153769705Y-123579000D01*
X153817324Y-123626619D01*
X153864943Y-123721857D01*
X153864943Y-123864714D01*
X153817324Y-123959952D01*
X153769705Y-124007571D01*
X153674467Y-124055190D01*
X153293514Y-124055190D01*
X154198276Y-123531381D02*
X154817324Y-123531381D01*
X154483990Y-123912333D01*
X154626848Y-123912333D01*
X154722086Y-123959952D01*
X154769705Y-124007571D01*
X154817324Y-124102810D01*
X154817324Y-124340905D01*
X154769705Y-124436143D01*
X154722086Y-124483762D01*
X154626848Y-124531381D01*
X154341133Y-124531381D01*
X154245895Y-124483762D01*
X154198276Y-124436143D01*
X155150657Y-123531381D02*
X155769705Y-123531381D01*
X155436371Y-123912333D01*
X155579229Y-123912333D01*
X155674467Y-123959952D01*
X155722086Y-124007571D01*
X155769705Y-124102810D01*
X155769705Y-124340905D01*
X155722086Y-124436143D01*
X155674467Y-124483762D01*
X155579229Y-124531381D01*
X155293514Y-124531381D01*
X155198276Y-124483762D01*
X155150657Y-124436143D01*
X153864943Y-127249181D02*
X153531609Y-126772990D01*
X153293514Y-127249181D02*
X153293514Y-126249181D01*
X153674467Y-126249181D01*
X153769705Y-126296800D01*
X153817324Y-126344419D01*
X153864943Y-126439657D01*
X153864943Y-126582514D01*
X153817324Y-126677752D01*
X153769705Y-126725371D01*
X153674467Y-126772990D01*
X153293514Y-126772990D01*
X154198276Y-126249181D02*
X154817324Y-126249181D01*
X154483990Y-126630133D01*
X154626848Y-126630133D01*
X154722086Y-126677752D01*
X154769705Y-126725371D01*
X154817324Y-126820610D01*
X154817324Y-127058705D01*
X154769705Y-127153943D01*
X154722086Y-127201562D01*
X154626848Y-127249181D01*
X154341133Y-127249181D01*
X154245895Y-127201562D01*
X154198276Y-127153943D01*
X155674467Y-126582514D02*
X155674467Y-127249181D01*
X155436371Y-126201562D02*
X155198276Y-126915848D01*
X155817324Y-126915848D01*
X153788743Y-129483981D02*
X153455409Y-129007790D01*
X153217314Y-129483981D02*
X153217314Y-128483981D01*
X153598267Y-128483981D01*
X153693505Y-128531600D01*
X153741124Y-128579219D01*
X153788743Y-128674457D01*
X153788743Y-128817314D01*
X153741124Y-128912552D01*
X153693505Y-128960171D01*
X153598267Y-129007790D01*
X153217314Y-129007790D01*
X154122076Y-128483981D02*
X154741124Y-128483981D01*
X154407790Y-128864933D01*
X154550648Y-128864933D01*
X154645886Y-128912552D01*
X154693505Y-128960171D01*
X154741124Y-129055410D01*
X154741124Y-129293505D01*
X154693505Y-129388743D01*
X154645886Y-129436362D01*
X154550648Y-129483981D01*
X154264933Y-129483981D01*
X154169695Y-129436362D01*
X154122076Y-129388743D01*
X155645886Y-128483981D02*
X155169695Y-128483981D01*
X155122076Y-128960171D01*
X155169695Y-128912552D01*
X155264933Y-128864933D01*
X155503029Y-128864933D01*
X155598267Y-128912552D01*
X155645886Y-128960171D01*
X155693505Y-129055410D01*
X155693505Y-129293505D01*
X155645886Y-129388743D01*
X155598267Y-129436362D01*
X155503029Y-129483981D01*
X155264933Y-129483981D01*
X155169695Y-129436362D01*
X155122076Y-129388743D01*
X153890343Y-132303781D02*
X153557009Y-131827590D01*
X153318914Y-132303781D02*
X153318914Y-131303781D01*
X153699867Y-131303781D01*
X153795105Y-131351400D01*
X153842724Y-131399019D01*
X153890343Y-131494257D01*
X153890343Y-131637114D01*
X153842724Y-131732352D01*
X153795105Y-131779971D01*
X153699867Y-131827590D01*
X153318914Y-131827590D01*
X154223676Y-131303781D02*
X154842724Y-131303781D01*
X154509390Y-131684733D01*
X154652248Y-131684733D01*
X154747486Y-131732352D01*
X154795105Y-131779971D01*
X154842724Y-131875210D01*
X154842724Y-132113305D01*
X154795105Y-132208543D01*
X154747486Y-132256162D01*
X154652248Y-132303781D01*
X154366533Y-132303781D01*
X154271295Y-132256162D01*
X154223676Y-132208543D01*
X155699867Y-131303781D02*
X155509390Y-131303781D01*
X155414152Y-131351400D01*
X155366533Y-131399019D01*
X155271295Y-131541876D01*
X155223676Y-131732352D01*
X155223676Y-132113305D01*
X155271295Y-132208543D01*
X155318914Y-132256162D01*
X155414152Y-132303781D01*
X155604629Y-132303781D01*
X155699867Y-132256162D01*
X155747486Y-132208543D01*
X155795105Y-132113305D01*
X155795105Y-131875210D01*
X155747486Y-131779971D01*
X155699867Y-131732352D01*
X155604629Y-131684733D01*
X155414152Y-131684733D01*
X155318914Y-131732352D01*
X155271295Y-131779971D01*
X155223676Y-131875210D01*
X153814143Y-134564381D02*
X153480809Y-134088190D01*
X153242714Y-134564381D02*
X153242714Y-133564381D01*
X153623667Y-133564381D01*
X153718905Y-133612000D01*
X153766524Y-133659619D01*
X153814143Y-133754857D01*
X153814143Y-133897714D01*
X153766524Y-133992952D01*
X153718905Y-134040571D01*
X153623667Y-134088190D01*
X153242714Y-134088190D01*
X154147476Y-133564381D02*
X154766524Y-133564381D01*
X154433190Y-133945333D01*
X154576048Y-133945333D01*
X154671286Y-133992952D01*
X154718905Y-134040571D01*
X154766524Y-134135810D01*
X154766524Y-134373905D01*
X154718905Y-134469143D01*
X154671286Y-134516762D01*
X154576048Y-134564381D01*
X154290333Y-134564381D01*
X154195095Y-134516762D01*
X154147476Y-134469143D01*
X155099857Y-133564381D02*
X155766524Y-133564381D01*
X155337952Y-134564381D01*
X132638895Y-115454181D02*
X132638895Y-116263705D01*
X132686514Y-116358943D01*
X132734133Y-116406562D01*
X132829371Y-116454181D01*
X133019848Y-116454181D01*
X133115086Y-116406562D01*
X133162705Y-116358943D01*
X133210324Y-116263705D01*
X133210324Y-115454181D01*
X134210324Y-116454181D02*
X133638895Y-116454181D01*
X133924609Y-116454181D02*
X133924609Y-115454181D01*
X133829371Y-115597038D01*
X133734133Y-115692276D01*
X133638895Y-115739895D01*
X134264495Y-65416181D02*
X134264495Y-66225705D01*
X134312114Y-66320943D01*
X134359733Y-66368562D01*
X134454971Y-66416181D01*
X134645448Y-66416181D01*
X134740686Y-66368562D01*
X134788305Y-66320943D01*
X134835924Y-66225705D01*
X134835924Y-65416181D01*
X135264495Y-65511419D02*
X135312114Y-65463800D01*
X135407352Y-65416181D01*
X135645448Y-65416181D01*
X135740686Y-65463800D01*
X135788305Y-65511419D01*
X135835924Y-65606657D01*
X135835924Y-65701895D01*
X135788305Y-65844752D01*
X135216876Y-66416181D01*
X135835924Y-66416181D01*
X130810095Y-141844781D02*
X130810095Y-142654305D01*
X130857714Y-142749543D01*
X130905333Y-142797162D01*
X131000571Y-142844781D01*
X131191048Y-142844781D01*
X131286286Y-142797162D01*
X131333905Y-142749543D01*
X131381524Y-142654305D01*
X131381524Y-141844781D01*
X131762476Y-141844781D02*
X132381524Y-141844781D01*
X132048190Y-142225733D01*
X132191048Y-142225733D01*
X132286286Y-142273352D01*
X132333905Y-142320971D01*
X132381524Y-142416210D01*
X132381524Y-142654305D01*
X132333905Y-142749543D01*
X132286286Y-142797162D01*
X132191048Y-142844781D01*
X131905333Y-142844781D01*
X131810095Y-142797162D01*
X131762476Y-142749543D01*
X136169495Y-40193981D02*
X136169495Y-41003505D01*
X136217114Y-41098743D01*
X136264733Y-41146362D01*
X136359971Y-41193981D01*
X136550448Y-41193981D01*
X136645686Y-41146362D01*
X136693305Y-41098743D01*
X136740924Y-41003505D01*
X136740924Y-40193981D01*
X137645686Y-40527314D02*
X137645686Y-41193981D01*
X137407590Y-40146362D02*
X137169495Y-40860648D01*
X137788543Y-40860648D01*
X134772495Y-92670381D02*
X134772495Y-93479905D01*
X134820114Y-93575143D01*
X134867733Y-93622762D01*
X134962971Y-93670381D01*
X135153448Y-93670381D01*
X135248686Y-93622762D01*
X135296305Y-93575143D01*
X135343924Y-93479905D01*
X135343924Y-92670381D01*
X136296305Y-92670381D02*
X135820114Y-92670381D01*
X135772495Y-93146571D01*
X135820114Y-93098952D01*
X135915352Y-93051333D01*
X136153448Y-93051333D01*
X136248686Y-93098952D01*
X136296305Y-93146571D01*
X136343924Y-93241810D01*
X136343924Y-93479905D01*
X136296305Y-93575143D01*
X136248686Y-93622762D01*
X136153448Y-93670381D01*
X135915352Y-93670381D01*
X135820114Y-93622762D01*
X135772495Y-93575143D01*
X109142305Y-67114681D02*
X109142305Y-66114681D01*
X109523258Y-66114681D01*
X109618496Y-66162300D01*
X109666115Y-66209919D01*
X109713734Y-66305157D01*
X109713734Y-66448014D01*
X109666115Y-66543252D01*
X109618496Y-66590871D01*
X109523258Y-66638490D01*
X109142305Y-66638490D01*
X110570877Y-66114681D02*
X110380400Y-66114681D01*
X110285162Y-66162300D01*
X110237543Y-66209919D01*
X110142305Y-66352776D01*
X110094686Y-66543252D01*
X110094686Y-66924205D01*
X110142305Y-67019443D01*
X110189924Y-67067062D01*
X110285162Y-67114681D01*
X110475639Y-67114681D01*
X110570877Y-67067062D01*
X110618496Y-67019443D01*
X110666115Y-66924205D01*
X110666115Y-66686110D01*
X110618496Y-66590871D01*
X110570877Y-66543252D01*
X110475639Y-66495633D01*
X110285162Y-66495633D01*
X110189924Y-66543252D01*
X110142305Y-66590871D01*
X110094686Y-66686110D01*
X109256605Y-92247981D02*
X109256605Y-91247981D01*
X109637558Y-91247981D01*
X109732796Y-91295600D01*
X109780415Y-91343219D01*
X109828034Y-91438457D01*
X109828034Y-91581314D01*
X109780415Y-91676552D01*
X109732796Y-91724171D01*
X109637558Y-91771790D01*
X109256605Y-91771790D01*
X110161367Y-91247981D02*
X110828034Y-91247981D01*
X110399462Y-92247981D01*
X109091505Y-117952781D02*
X109091505Y-116952781D01*
X109472458Y-116952781D01*
X109567696Y-117000400D01*
X109615315Y-117048019D01*
X109662934Y-117143257D01*
X109662934Y-117286114D01*
X109615315Y-117381352D01*
X109567696Y-117428971D01*
X109472458Y-117476590D01*
X109091505Y-117476590D01*
X110234362Y-117381352D02*
X110139124Y-117333733D01*
X110091505Y-117286114D01*
X110043886Y-117190876D01*
X110043886Y-117143257D01*
X110091505Y-117048019D01*
X110139124Y-117000400D01*
X110234362Y-116952781D01*
X110424839Y-116952781D01*
X110520077Y-117000400D01*
X110567696Y-117048019D01*
X110615315Y-117143257D01*
X110615315Y-117190876D01*
X110567696Y-117286114D01*
X110520077Y-117333733D01*
X110424839Y-117381352D01*
X110234362Y-117381352D01*
X110139124Y-117428971D01*
X110091505Y-117476590D01*
X110043886Y-117571829D01*
X110043886Y-117762305D01*
X110091505Y-117857543D01*
X110139124Y-117905162D01*
X110234362Y-117952781D01*
X110424839Y-117952781D01*
X110520077Y-117905162D01*
X110567696Y-117857543D01*
X110615315Y-117762305D01*
X110615315Y-117571829D01*
X110567696Y-117476590D01*
X110520077Y-117428971D01*
X110424839Y-117381352D01*
X122953614Y-63228481D02*
X122953614Y-62228481D01*
X123334567Y-62228481D01*
X123429805Y-62276100D01*
X123477424Y-62323719D01*
X123525043Y-62418957D01*
X123525043Y-62561814D01*
X123477424Y-62657052D01*
X123429805Y-62704671D01*
X123334567Y-62752290D01*
X122953614Y-62752290D01*
X124477424Y-63228481D02*
X123905995Y-63228481D01*
X124191709Y-63228481D02*
X124191709Y-62228481D01*
X124096471Y-62371338D01*
X124001233Y-62466576D01*
X123905995Y-62514195D01*
X125096471Y-62228481D02*
X125191710Y-62228481D01*
X125286948Y-62276100D01*
X125334567Y-62323719D01*
X125382186Y-62418957D01*
X125429805Y-62609433D01*
X125429805Y-62847529D01*
X125382186Y-63038005D01*
X125334567Y-63133243D01*
X125286948Y-63180862D01*
X125191710Y-63228481D01*
X125096471Y-63228481D01*
X125001233Y-63180862D01*
X124953614Y-63133243D01*
X124905995Y-63038005D01*
X124858376Y-62847529D01*
X124858376Y-62609433D01*
X124905995Y-62418957D01*
X124953614Y-62323719D01*
X125001233Y-62276100D01*
X125096471Y-62228481D01*
X119511914Y-139136381D02*
X119511914Y-138136381D01*
X119892867Y-138136381D01*
X119988105Y-138184000D01*
X120035724Y-138231619D01*
X120083343Y-138326857D01*
X120083343Y-138469714D01*
X120035724Y-138564952D01*
X119988105Y-138612571D01*
X119892867Y-138660190D01*
X119511914Y-138660190D01*
X121035724Y-139136381D02*
X120464295Y-139136381D01*
X120750009Y-139136381D02*
X120750009Y-138136381D01*
X120654771Y-138279238D01*
X120559533Y-138374476D01*
X120464295Y-138422095D01*
X121988105Y-139136381D02*
X121416676Y-139136381D01*
X121702390Y-139136381D02*
X121702390Y-138136381D01*
X121607152Y-138279238D01*
X121511914Y-138374476D01*
X121416676Y-138422095D01*
X119956414Y-36875981D02*
X119956414Y-35875981D01*
X120337367Y-35875981D01*
X120432605Y-35923600D01*
X120480224Y-35971219D01*
X120527843Y-36066457D01*
X120527843Y-36209314D01*
X120480224Y-36304552D01*
X120432605Y-36352171D01*
X120337367Y-36399790D01*
X119956414Y-36399790D01*
X121480224Y-36875981D02*
X120908795Y-36875981D01*
X121194509Y-36875981D02*
X121194509Y-35875981D01*
X121099271Y-36018838D01*
X121004033Y-36114076D01*
X120908795Y-36161695D01*
X121861176Y-35971219D02*
X121908795Y-35923600D01*
X122004033Y-35875981D01*
X122242129Y-35875981D01*
X122337367Y-35923600D01*
X122384986Y-35971219D01*
X122432605Y-36066457D01*
X122432605Y-36161695D01*
X122384986Y-36304552D01*
X121813557Y-36875981D01*
X122432605Y-36875981D01*
X123144114Y-89123781D02*
X123144114Y-88123781D01*
X123525067Y-88123781D01*
X123620305Y-88171400D01*
X123667924Y-88219019D01*
X123715543Y-88314257D01*
X123715543Y-88457114D01*
X123667924Y-88552352D01*
X123620305Y-88599971D01*
X123525067Y-88647590D01*
X123144114Y-88647590D01*
X124667924Y-89123781D02*
X124096495Y-89123781D01*
X124382209Y-89123781D02*
X124382209Y-88123781D01*
X124286971Y-88266638D01*
X124191733Y-88361876D01*
X124096495Y-88409495D01*
X125001257Y-88123781D02*
X125620305Y-88123781D01*
X125286971Y-88504733D01*
X125429829Y-88504733D01*
X125525067Y-88552352D01*
X125572686Y-88599971D01*
X125620305Y-88695210D01*
X125620305Y-88933305D01*
X125572686Y-89028543D01*
X125525067Y-89076162D01*
X125429829Y-89123781D01*
X125144114Y-89123781D01*
X125048876Y-89076162D01*
X125001257Y-89028543D01*
X123956914Y-116002381D02*
X123956914Y-115002381D01*
X124337867Y-115002381D01*
X124433105Y-115050000D01*
X124480724Y-115097619D01*
X124528343Y-115192857D01*
X124528343Y-115335714D01*
X124480724Y-115430952D01*
X124433105Y-115478571D01*
X124337867Y-115526190D01*
X123956914Y-115526190D01*
X125480724Y-116002381D02*
X124909295Y-116002381D01*
X125195009Y-116002381D02*
X125195009Y-115002381D01*
X125099771Y-115145238D01*
X125004533Y-115240476D01*
X124909295Y-115288095D01*
X126385486Y-115002381D02*
X125909295Y-115002381D01*
X125861676Y-115478571D01*
X125909295Y-115430952D01*
X126004533Y-115383333D01*
X126242629Y-115383333D01*
X126337867Y-115430952D01*
X126385486Y-115478571D01*
X126433105Y-115573810D01*
X126433105Y-115811905D01*
X126385486Y-115907143D01*
X126337867Y-115954762D01*
X126242629Y-116002381D01*
X126004533Y-116002381D01*
X125909295Y-115954762D01*
X125861676Y-115907143D01*
X119397614Y-146349981D02*
X119397614Y-145349981D01*
X119778567Y-145349981D01*
X119873805Y-145397600D01*
X119921424Y-145445219D01*
X119969043Y-145540457D01*
X119969043Y-145683314D01*
X119921424Y-145778552D01*
X119873805Y-145826171D01*
X119778567Y-145873790D01*
X119397614Y-145873790D01*
X120921424Y-146349981D02*
X120349995Y-146349981D01*
X120635709Y-146349981D02*
X120635709Y-145349981D01*
X120540471Y-145492838D01*
X120445233Y-145588076D01*
X120349995Y-145635695D01*
X121778567Y-145349981D02*
X121588090Y-145349981D01*
X121492852Y-145397600D01*
X121445233Y-145445219D01*
X121349995Y-145588076D01*
X121302376Y-145778552D01*
X121302376Y-146159505D01*
X121349995Y-146254743D01*
X121397614Y-146302362D01*
X121492852Y-146349981D01*
X121683329Y-146349981D01*
X121778567Y-146302362D01*
X121826186Y-146254743D01*
X121873805Y-146159505D01*
X121873805Y-145921410D01*
X121826186Y-145826171D01*
X121778567Y-145778552D01*
X121683329Y-145730933D01*
X121492852Y-145730933D01*
X121397614Y-145778552D01*
X121349995Y-145826171D01*
X121302376Y-145921410D01*
X122763114Y-70010281D02*
X122763114Y-69010281D01*
X123144067Y-69010281D01*
X123239305Y-69057900D01*
X123286924Y-69105519D01*
X123334543Y-69200757D01*
X123334543Y-69343614D01*
X123286924Y-69438852D01*
X123239305Y-69486471D01*
X123144067Y-69534090D01*
X122763114Y-69534090D01*
X124286924Y-70010281D02*
X123715495Y-70010281D01*
X124001209Y-70010281D02*
X124001209Y-69010281D01*
X123905971Y-69153138D01*
X123810733Y-69248376D01*
X123715495Y-69295995D01*
X124620257Y-69010281D02*
X125286924Y-69010281D01*
X124858352Y-70010281D01*
X122915514Y-95664281D02*
X122915514Y-94664281D01*
X123296467Y-94664281D01*
X123391705Y-94711900D01*
X123439324Y-94759519D01*
X123486943Y-94854757D01*
X123486943Y-94997614D01*
X123439324Y-95092852D01*
X123391705Y-95140471D01*
X123296467Y-95188090D01*
X122915514Y-95188090D01*
X124439324Y-95664281D02*
X123867895Y-95664281D01*
X124153609Y-95664281D02*
X124153609Y-94664281D01*
X124058371Y-94807138D01*
X123963133Y-94902376D01*
X123867895Y-94949995D01*
X125010752Y-95092852D02*
X124915514Y-95045233D01*
X124867895Y-94997614D01*
X124820276Y-94902376D01*
X124820276Y-94854757D01*
X124867895Y-94759519D01*
X124915514Y-94711900D01*
X125010752Y-94664281D01*
X125201229Y-94664281D01*
X125296467Y-94711900D01*
X125344086Y-94759519D01*
X125391705Y-94854757D01*
X125391705Y-94902376D01*
X125344086Y-94997614D01*
X125296467Y-95045233D01*
X125201229Y-95092852D01*
X125010752Y-95092852D01*
X124915514Y-95140471D01*
X124867895Y-95188090D01*
X124820276Y-95283329D01*
X124820276Y-95473805D01*
X124867895Y-95569043D01*
X124915514Y-95616662D01*
X125010752Y-95664281D01*
X125201229Y-95664281D01*
X125296467Y-95616662D01*
X125344086Y-95569043D01*
X125391705Y-95473805D01*
X125391705Y-95283329D01*
X125344086Y-95188090D01*
X125296467Y-95140471D01*
X125201229Y-95092852D01*
X109091505Y-139301481D02*
X109091505Y-138301481D01*
X109472458Y-138301481D01*
X109567696Y-138349100D01*
X109615315Y-138396719D01*
X109662934Y-138491957D01*
X109662934Y-138634814D01*
X109615315Y-138730052D01*
X109567696Y-138777671D01*
X109472458Y-138825290D01*
X109091505Y-138825290D01*
X110139124Y-139301481D02*
X110329600Y-139301481D01*
X110424839Y-139253862D01*
X110472458Y-139206243D01*
X110567696Y-139063386D01*
X110615315Y-138872910D01*
X110615315Y-138491957D01*
X110567696Y-138396719D01*
X110520077Y-138349100D01*
X110424839Y-138301481D01*
X110234362Y-138301481D01*
X110139124Y-138349100D01*
X110091505Y-138396719D01*
X110043886Y-138491957D01*
X110043886Y-138730052D01*
X110091505Y-138825290D01*
X110139124Y-138872910D01*
X110234362Y-138920529D01*
X110424839Y-138920529D01*
X110520077Y-138872910D01*
X110567696Y-138825290D01*
X110615315Y-138730052D01*
X120299314Y-113939581D02*
X120299314Y-112939581D01*
X120680267Y-112939581D01*
X120775505Y-112987200D01*
X120823124Y-113034819D01*
X120870743Y-113130057D01*
X120870743Y-113272914D01*
X120823124Y-113368152D01*
X120775505Y-113415771D01*
X120680267Y-113463390D01*
X120299314Y-113463390D01*
X121823124Y-113939581D02*
X121251695Y-113939581D01*
X121537409Y-113939581D02*
X121537409Y-112939581D01*
X121442171Y-113082438D01*
X121346933Y-113177676D01*
X121251695Y-113225295D01*
X122680267Y-113272914D02*
X122680267Y-113939581D01*
X122442171Y-112891962D02*
X122204076Y-113606248D01*
X122823124Y-113606248D01*
X109421705Y-36926781D02*
X109421705Y-35926781D01*
X109802658Y-35926781D01*
X109897896Y-35974400D01*
X109945515Y-36022019D01*
X109993134Y-36117257D01*
X109993134Y-36260114D01*
X109945515Y-36355352D01*
X109897896Y-36402971D01*
X109802658Y-36450590D01*
X109421705Y-36450590D01*
X110897896Y-35926781D02*
X110421705Y-35926781D01*
X110374086Y-36402971D01*
X110421705Y-36355352D01*
X110516943Y-36307733D01*
X110755039Y-36307733D01*
X110850277Y-36355352D01*
X110897896Y-36402971D01*
X110945515Y-36498210D01*
X110945515Y-36736305D01*
X110897896Y-36831543D01*
X110850277Y-36879162D01*
X110755039Y-36926781D01*
X110516943Y-36926781D01*
X110421705Y-36879162D01*
X110374086Y-36831543D01*
X125017305Y-42971981D02*
X125017305Y-41971981D01*
X125398258Y-41971981D01*
X125493496Y-42019600D01*
X125541115Y-42067219D01*
X125588734Y-42162457D01*
X125588734Y-42305314D01*
X125541115Y-42400552D01*
X125493496Y-42448171D01*
X125398258Y-42495790D01*
X125017305Y-42495790D01*
X126541115Y-42971981D02*
X125969686Y-42971981D01*
X126255400Y-42971981D02*
X126255400Y-41971981D01*
X126160162Y-42114838D01*
X126064924Y-42210076D01*
X125969686Y-42257695D01*
X119511914Y-129128781D02*
X119511914Y-128128781D01*
X119892867Y-128128781D01*
X119988105Y-128176400D01*
X120035724Y-128224019D01*
X120083343Y-128319257D01*
X120083343Y-128462114D01*
X120035724Y-128557352D01*
X119988105Y-128604971D01*
X119892867Y-128652590D01*
X119511914Y-128652590D01*
X121035724Y-129128781D02*
X120464295Y-129128781D01*
X120750009Y-129128781D02*
X120750009Y-128128781D01*
X120654771Y-128271638D01*
X120559533Y-128366876D01*
X120464295Y-128414495D01*
X121511914Y-129128781D02*
X121702390Y-129128781D01*
X121797629Y-129081162D01*
X121845248Y-129033543D01*
X121940486Y-128890686D01*
X121988105Y-128700210D01*
X121988105Y-128319257D01*
X121940486Y-128224019D01*
X121892867Y-128176400D01*
X121797629Y-128128781D01*
X121607152Y-128128781D01*
X121511914Y-128176400D01*
X121464295Y-128224019D01*
X121416676Y-128319257D01*
X121416676Y-128557352D01*
X121464295Y-128652590D01*
X121511914Y-128700210D01*
X121607152Y-128747829D01*
X121797629Y-128747829D01*
X121892867Y-128700210D01*
X121940486Y-128652590D01*
X121988105Y-128557352D01*
X153903443Y-137955281D02*
X153570109Y-137479090D01*
X153332014Y-137955281D02*
X153332014Y-136955281D01*
X153712967Y-136955281D01*
X153808205Y-137002900D01*
X153855824Y-137050519D01*
X153903443Y-137145757D01*
X153903443Y-137288614D01*
X153855824Y-137383852D01*
X153808205Y-137431471D01*
X153712967Y-137479090D01*
X153332014Y-137479090D01*
X154236776Y-136955281D02*
X154855824Y-136955281D01*
X154522490Y-137336233D01*
X154665348Y-137336233D01*
X154760586Y-137383852D01*
X154808205Y-137431471D01*
X154855824Y-137526710D01*
X154855824Y-137764805D01*
X154808205Y-137860043D01*
X154760586Y-137907662D01*
X154665348Y-137955281D01*
X154379633Y-137955281D01*
X154284395Y-137907662D01*
X154236776Y-137860043D01*
X155427252Y-137383852D02*
X155332014Y-137336233D01*
X155284395Y-137288614D01*
X155236776Y-137193376D01*
X155236776Y-137145757D01*
X155284395Y-137050519D01*
X155332014Y-137002900D01*
X155427252Y-136955281D01*
X155617729Y-136955281D01*
X155712967Y-137002900D01*
X155760586Y-137050519D01*
X155808205Y-137145757D01*
X155808205Y-137193376D01*
X155760586Y-137288614D01*
X155712967Y-137336233D01*
X155617729Y-137383852D01*
X155427252Y-137383852D01*
X155332014Y-137431471D01*
X155284395Y-137479090D01*
X155236776Y-137574329D01*
X155236776Y-137764805D01*
X155284395Y-137860043D01*
X155332014Y-137907662D01*
X155427252Y-137955281D01*
X155617729Y-137955281D01*
X155712967Y-137907662D01*
X155760586Y-137860043D01*
X155808205Y-137764805D01*
X155808205Y-137574329D01*
X155760586Y-137479090D01*
X155712967Y-137431471D01*
X155617729Y-137383852D01*
X154005043Y-141117581D02*
X153671709Y-140641390D01*
X153433614Y-141117581D02*
X153433614Y-140117581D01*
X153814567Y-140117581D01*
X153909805Y-140165200D01*
X153957424Y-140212819D01*
X154005043Y-140308057D01*
X154005043Y-140450914D01*
X153957424Y-140546152D01*
X153909805Y-140593771D01*
X153814567Y-140641390D01*
X153433614Y-140641390D01*
X154338376Y-140117581D02*
X154957424Y-140117581D01*
X154624090Y-140498533D01*
X154766948Y-140498533D01*
X154862186Y-140546152D01*
X154909805Y-140593771D01*
X154957424Y-140689010D01*
X154957424Y-140927105D01*
X154909805Y-141022343D01*
X154862186Y-141069962D01*
X154766948Y-141117581D01*
X154481233Y-141117581D01*
X154385995Y-141069962D01*
X154338376Y-141022343D01*
X155433614Y-141117581D02*
X155624090Y-141117581D01*
X155719329Y-141069962D01*
X155766948Y-141022343D01*
X155862186Y-140879486D01*
X155909805Y-140689010D01*
X155909805Y-140308057D01*
X155862186Y-140212819D01*
X155814567Y-140165200D01*
X155719329Y-140117581D01*
X155528852Y-140117581D01*
X155433614Y-140165200D01*
X155385995Y-140212819D01*
X155338376Y-140308057D01*
X155338376Y-140546152D01*
X155385995Y-140641390D01*
X155433614Y-140689010D01*
X155528852Y-140736629D01*
X155719329Y-140736629D01*
X155814567Y-140689010D01*
X155862186Y-140641390D01*
X155909805Y-140546152D01*
X154068543Y-144292581D02*
X153735209Y-143816390D01*
X153497114Y-144292581D02*
X153497114Y-143292581D01*
X153878067Y-143292581D01*
X153973305Y-143340200D01*
X154020924Y-143387819D01*
X154068543Y-143483057D01*
X154068543Y-143625914D01*
X154020924Y-143721152D01*
X153973305Y-143768771D01*
X153878067Y-143816390D01*
X153497114Y-143816390D01*
X154925686Y-143625914D02*
X154925686Y-144292581D01*
X154687590Y-143244962D02*
X154449495Y-143959248D01*
X155068543Y-143959248D01*
X155639971Y-143292581D02*
X155735210Y-143292581D01*
X155830448Y-143340200D01*
X155878067Y-143387819D01*
X155925686Y-143483057D01*
X155973305Y-143673533D01*
X155973305Y-143911629D01*
X155925686Y-144102105D01*
X155878067Y-144197343D01*
X155830448Y-144244962D01*
X155735210Y-144292581D01*
X155639971Y-144292581D01*
X155544733Y-144244962D01*
X155497114Y-144197343D01*
X155449495Y-144102105D01*
X155401876Y-143911629D01*
X155401876Y-143673533D01*
X155449495Y-143483057D01*
X155497114Y-143387819D01*
X155544733Y-143340200D01*
X155639971Y-143292581D01*
M02*
