; NON-PLATED HOLES START AT T1
; THROUGH (PLATED) HOLES START AT T100
M48
INCH
T1C0.086614
T100C0.030000
T101C0.027559
T102C0.038000
T103C0.035000
%
T1
X001127Y025474
X052627Y002974
X052627Y025474
X001127Y002974
T100
X028627Y015474
X040627Y014472
X016627Y012474
X004627Y015474
X022127Y016972
X040627Y015474
X016627Y014472
X022127Y017974
X016627Y015474
X028627Y014472
X016627Y011472
X004627Y014472
T101
X009127Y015474
X007127Y015474
X048127Y015474
X046127Y015474
X044127Y015474
X042127Y015474
X019127Y012474
X049127Y015474
X047127Y015474
X045127Y015474
X013127Y015474
X011127Y015474
X023127Y012474
X021127Y012474
X018127Y015474
X012127Y015474
X010127Y015474
X024127Y012474
X022127Y012474
X020127Y012474
X019127Y015474
X025127Y012474
X023127Y015474
X021127Y015474
X033127Y012474
X031127Y012474
X024127Y015474
X022127Y015474
X020127Y015474
X036127Y012474
X034127Y012474
X032127Y012474
X030127Y012474
X025127Y015474
X037127Y012474
X035127Y012474
X033127Y015474
X031127Y015474
X008127Y012474
X006127Y012474
X043127Y012474
X036127Y015474
X034127Y015474
X032127Y015474
X030127Y015474
X009127Y012474
X007127Y012474
X048127Y012474
X046127Y012474
X044127Y012474
X042127Y012474
X037127Y015474
X035127Y015474
X049127Y012474
X047127Y012474
X045127Y012474
X013127Y012474
X011127Y012474
X008127Y015474
X006127Y015474
X043127Y015474
X018127Y012474
X012127Y012474
X010127Y012474
T102
X048627Y004974
X048627Y023974
X038627Y015474
X050627Y011474
X015627Y017974
X023127Y010974
X026627Y015474
X044127Y008974
X019127Y020974
X046127Y006974
X011127Y010974
X014627Y015474
X048627Y005974
X048627Y024974
X034127Y006974
X050627Y012474
X047127Y006974
X043127Y016974
X015127Y005974
X025127Y010974
X017627Y016974
X022127Y006974
X035127Y006974
X048627Y000974
X031127Y016974
X012127Y016974
X044127Y016974
X048627Y006974
X048627Y025974
X050627Y013474
X032127Y016974
X028127Y018974
X006627Y016974
X020127Y016974
X048627Y001974
X048627Y020974
X008127Y020974
X019127Y010974
X040127Y016974
X013127Y010974
X048627Y026974
X050627Y006974
X050627Y014474
X023127Y006974
X019127Y016974
X046127Y010974
X011127Y006974
X048627Y002974
X048627Y021974
X038627Y013474
X002127Y010974
X034127Y010974
X047127Y010974
X026627Y013474
X002127Y009974
X050627Y007974
X043127Y020974
X022127Y010974
X035127Y010974
X014627Y013474
X031127Y020974
X048627Y003974
X048627Y022974
X044127Y020974
X003627Y010974
X032127Y020974
X010127Y016974
X008127Y016974
X009127Y010974
X020127Y020974
T103
X037127Y010974
X037127Y017974
X030127Y017974
X045127Y009974
X020627Y008974
X038127Y017974
X029127Y008974
X041127Y010974
X021127Y018974
X049127Y017974
X042127Y017974
X033127Y017974
X033127Y008974
X041127Y009974
X025127Y018974
X016627Y008974
X026127Y017974
X045127Y017974
T00
M30
