; NON-PLATED HOLES START AT T1
; THROUGH (PLATED) HOLES START AT T100
M48
INCH
T1C0.086614
T100C0.038000
T101C0.035000
T102C0.030000
T103C0.027559
%
T1
X052627Y023737
X052627Y001237
X001127Y023737
X001127Y001237
T100
X013127Y009237
X040127Y015237
X018127Y022737
X019127Y015237
X027127Y002237
X050627Y012737
X046127Y009237
X013127Y004237
X038627Y011737
X019127Y009237
X022127Y002237
X002127Y008237
X008127Y015237
X043127Y019237
X020127Y022737
X031127Y019237
X023127Y002237
X021127Y022737
X015627Y016237
X003627Y009237
X019127Y022737
X046127Y005237
X002127Y009237
X034127Y009237
X010127Y015237
X047127Y009237
X022127Y009237
X026627Y011737
X035127Y009237
X043127Y015237
X017627Y015237
X044127Y019237
X038627Y013737
X014627Y011737
X023127Y009237
X031127Y015237
X044127Y007237
X032127Y019237
X024127Y002237
X022127Y022737
X011127Y009237
X028127Y017237
X009127Y009237
X020127Y019237
X034127Y005237
X025127Y002237
X047127Y005237
X023127Y022737
X050627Y010737
X022127Y005237
X050627Y009737
X035127Y005237
X026127Y002237
X019127Y019237
X012127Y015237
X044127Y015237
X050627Y005237
X023127Y005237
X026627Y013737
X032127Y015237
X021127Y002237
X006627Y015237
X011127Y005237
X014627Y013737
X050627Y011737
X008127Y019237
X025127Y009237
X020127Y015237
X050627Y006237
X024127Y022737
T101
X029127Y007237
X033127Y016237
X049127Y016237
X037127Y009237
X042127Y016237
X033127Y007237
X041127Y008237
X026127Y016237
X041127Y009237
X025127Y017237
X016627Y007237
X045127Y016237
X037127Y016237
X020627Y007237
X038127Y016237
X030127Y016237
X045127Y008237
X021127Y017237
T102
X028627Y012735
X022127Y016237
X040627Y012735
X004627Y012735
X028627Y013737
X016627Y010737
X040627Y013737
X004627Y013737
X016627Y012735
X016627Y009735
X016627Y013737
X022127Y015235
T103
X012127Y013737
X010127Y013737
X024127Y010737
X022127Y010737
X020127Y010737
X019127Y013737
X013127Y013737
X011127Y013737
X025127Y010737
X023127Y010737
X021127Y010737
X018127Y013737
X024127Y013737
X022127Y013737
X020127Y013737
X034127Y010737
X032127Y010737
X030127Y010737
X025127Y013737
X023127Y013737
X021127Y013737
X037127Y010737
X035127Y010737
X033127Y010737
X031127Y010737
X036127Y010737
X006127Y010737
X034127Y013737
X032127Y013737
X030127Y013737
X009127Y010737
X007127Y010737
X044127Y010737
X042127Y010737
X037127Y013737
X035127Y013737
X033127Y013737
X031127Y013737
X008127Y010737
X049127Y010737
X047127Y010737
X045127Y010737
X043127Y010737
X036127Y013737
X048127Y010737
X046127Y010737
X006127Y013737
X012127Y010737
X010127Y010737
X009127Y013737
X007127Y013737
X044127Y013737
X042127Y013737
X019127Y010737
X013127Y010737
X011127Y010737
X008127Y013737
X049127Y013737
X047127Y013737
X045127Y013737
X043127Y013737
X018127Y010737
X048127Y013737
X046127Y013737
T00
M30
