G04 MADE WITH FRITZING*
G04 WWW.FRITZING.ORG*
G04 DOUBLE SIDED*
G04 HOLES PLATED*
G04 CONTOUR ON CENTER OF CONTOUR VECTOR*
%ASAXBY*%
%FSLAX23Y23*%
%MOIN*%
%OFA0B0*%
%SFA1.0B1.0*%
%ADD10C,0.070000*%
%ADD11C,0.075000*%
%ADD12C,0.090551*%
%ADD13C,0.078000*%
%ADD14R,0.090551X0.090551*%
%ADD15C,0.024000*%
%LNCOPPER1*%
G90*
G70*
G54D10*
X2213Y1624D03*
X2213Y1524D03*
X2863Y1374D03*
X2863Y1274D03*
X1663Y1374D03*
X1663Y1274D03*
X4063Y1374D03*
X4063Y1274D03*
X463Y1374D03*
X463Y1274D03*
G54D11*
X1663Y724D03*
X2063Y724D03*
X3313Y1624D03*
X3713Y1624D03*
X2613Y1624D03*
X3013Y1624D03*
X2113Y1724D03*
X2513Y1724D03*
X3813Y1624D03*
X4213Y1624D03*
X4513Y1624D03*
X4913Y1624D03*
X4113Y824D03*
X4513Y824D03*
X3713Y924D03*
X4113Y924D03*
X2913Y724D03*
X3313Y724D03*
G54D10*
X1663Y1074D03*
X1663Y974D03*
G54D12*
X613Y1074D03*
X613Y1374D03*
X713Y1074D03*
X713Y1374D03*
X813Y1074D03*
X813Y1374D03*
X913Y1074D03*
X913Y1374D03*
X1013Y1074D03*
X1013Y1374D03*
X1113Y1074D03*
X1113Y1374D03*
X1213Y1074D03*
X1213Y1374D03*
X1313Y1074D03*
X1313Y1374D03*
X1813Y1074D03*
X1813Y1374D03*
X1913Y1074D03*
X1913Y1374D03*
X2013Y1074D03*
X2013Y1374D03*
X2113Y1074D03*
X2113Y1374D03*
X2213Y1074D03*
X2213Y1374D03*
X2313Y1074D03*
X2313Y1374D03*
X2413Y1074D03*
X2413Y1374D03*
X2513Y1074D03*
X2513Y1374D03*
X3013Y1074D03*
X3013Y1374D03*
X3113Y1074D03*
X3113Y1374D03*
X3213Y1074D03*
X3213Y1374D03*
X3313Y1074D03*
X3313Y1374D03*
X3413Y1074D03*
X3413Y1374D03*
X3513Y1074D03*
X3513Y1374D03*
X3613Y1074D03*
X3613Y1374D03*
X3713Y1074D03*
X3713Y1374D03*
X4213Y1074D03*
X4213Y1374D03*
X4313Y1074D03*
X4313Y1374D03*
X4413Y1074D03*
X4413Y1374D03*
X4513Y1074D03*
X4513Y1374D03*
X4613Y1074D03*
X4613Y1374D03*
X4713Y1074D03*
X4713Y1374D03*
X4813Y1074D03*
X4813Y1374D03*
X4913Y1074D03*
X4913Y1374D03*
G54D13*
X1563Y1624D03*
X1563Y1624D03*
X1913Y924D03*
X1913Y924D03*
X3863Y1374D03*
X3863Y1374D03*
X3863Y1174D03*
X3863Y1174D03*
X1463Y1174D03*
X1463Y1174D03*
X1463Y1374D03*
X1463Y1374D03*
X2663Y1374D03*
X2663Y1374D03*
X2663Y1174D03*
X2663Y1174D03*
X2113Y224D03*
X2213Y224D03*
X2313Y224D03*
X2413Y224D03*
X2513Y224D03*
X2613Y224D03*
X2713Y224D03*
X2113Y224D03*
X2213Y224D03*
X2313Y224D03*
X2413Y224D03*
X2513Y224D03*
X2613Y224D03*
X2713Y224D03*
X1813Y2274D03*
X1913Y2274D03*
X2013Y2274D03*
X2113Y2274D03*
X2213Y2274D03*
X2313Y2274D03*
X2413Y2274D03*
X1813Y2274D03*
X1913Y2274D03*
X2013Y2274D03*
X2113Y2274D03*
X2213Y2274D03*
X2313Y2274D03*
X2413Y2274D03*
X2213Y924D03*
X2313Y924D03*
X2213Y924D03*
X2313Y924D03*
X3413Y524D03*
X3513Y524D03*
X3413Y524D03*
X3513Y524D03*
X4613Y924D03*
X4713Y924D03*
X4613Y924D03*
X4713Y924D03*
X4613Y524D03*
X4713Y524D03*
X4613Y524D03*
X4713Y524D03*
X2213Y524D03*
X2313Y524D03*
X2213Y524D03*
X2313Y524D03*
X3413Y924D03*
X3513Y924D03*
X3413Y924D03*
X3513Y924D03*
X4313Y1524D03*
X4413Y1524D03*
X4313Y1524D03*
X4413Y1524D03*
X4313Y1924D03*
X4413Y1924D03*
X4313Y1924D03*
X4413Y1924D03*
X3113Y1524D03*
X3213Y1524D03*
X3113Y1524D03*
X3213Y1524D03*
X1913Y1924D03*
X2013Y1924D03*
X1913Y1924D03*
X2013Y1924D03*
X3113Y1924D03*
X3213Y1924D03*
X3113Y1924D03*
X3213Y1924D03*
X1913Y1524D03*
X2013Y1524D03*
X1913Y1524D03*
X2013Y1524D03*
X5063Y624D03*
X5063Y524D03*
X5063Y624D03*
X5063Y524D03*
X213Y924D03*
X213Y824D03*
X213Y924D03*
X213Y824D03*
X1113Y924D03*
X1113Y924D03*
X1113Y524D03*
X1113Y524D03*
X4013Y1524D03*
X4013Y1524D03*
X2813Y1724D03*
X2813Y1724D03*
X1763Y1524D03*
X1763Y1524D03*
X663Y1524D03*
X663Y1524D03*
X1313Y424D03*
X1313Y424D03*
X4413Y724D03*
X4413Y724D03*
X1313Y924D03*
X1313Y924D03*
X2513Y924D03*
X2513Y924D03*
X813Y1924D03*
X813Y1924D03*
X363Y924D03*
X363Y924D03*
X1213Y1524D03*
X1213Y1524D03*
X1013Y1524D03*
X1013Y1524D03*
X913Y924D03*
X913Y924D03*
X813Y1524D03*
X813Y1524D03*
X5063Y1274D03*
X5063Y1174D03*
X5063Y1074D03*
X5063Y974D03*
G54D14*
X613Y1074D03*
X1813Y1074D03*
X3013Y1074D03*
X4213Y1074D03*
G54D15*
X4411Y426D02*
X4413Y694D01*
D02*
X2512Y426D02*
X4411Y426D01*
D02*
X1313Y454D02*
X1313Y894D01*
D02*
X2512Y426D02*
X1343Y424D01*
D02*
X2513Y894D02*
X2512Y426D01*
D02*
X4012Y2024D02*
X4013Y1554D01*
D02*
X2813Y2024D02*
X4012Y2024D01*
D02*
X662Y2024D02*
X663Y1554D01*
D02*
X1762Y2024D02*
X662Y2024D01*
D02*
X1762Y2024D02*
X1763Y1554D01*
D02*
X2813Y2024D02*
X1762Y2024D01*
D02*
X2813Y1754D02*
X2813Y2024D01*
D02*
X1463Y1204D02*
X1463Y1344D01*
D02*
X2663Y1204D02*
X2663Y1344D01*
D02*
X3863Y1204D02*
X3863Y1344D01*
D02*
X1113Y554D02*
X1113Y894D01*
D02*
X4313Y1894D02*
X4313Y1554D01*
D02*
X4413Y1894D02*
X4413Y1554D01*
D02*
X3213Y1894D02*
X3213Y1554D01*
D02*
X3113Y1894D02*
X3113Y1554D01*
D02*
X2013Y1554D02*
X2013Y1894D01*
D02*
X1913Y1554D02*
X1913Y1894D01*
D02*
X4713Y554D02*
X4713Y894D01*
D02*
X4613Y554D02*
X4613Y894D01*
D02*
X3513Y554D02*
X3513Y894D01*
D02*
X3413Y554D02*
X3413Y894D01*
D02*
X2313Y894D02*
X2313Y554D01*
D02*
X2213Y554D02*
X2213Y894D01*
D02*
X1911Y874D02*
X1564Y874D01*
D02*
X1564Y874D02*
X1563Y1594D01*
D02*
X1912Y894D02*
X1911Y874D01*
D02*
X1183Y1524D02*
X1043Y1524D01*
D02*
X883Y924D02*
X393Y924D01*
D02*
X813Y1554D02*
X813Y1894D01*
G04 End of Copper1*
M02*