<?xml version="1.0" encoding="UTF-8" standalone="no"?>
<!-- Created with Inkscape (http://www.inkscape.org/) -->

<svg
   xmlns:dc="http://purl.org/dc/elements/1.1/"
   xmlns:cc="http://creativecommons.org/ns#"
   xmlns:rdf="http://www.w3.org/1999/02/22-rdf-syntax-ns#"
   xmlns:svg="http://www.w3.org/2000/svg"
   xmlns="http://www.w3.org/2000/svg"
   xmlns:sodipodi="http://sodipodi.sourceforge.net/DTD/sodipodi-0.dtd"
   xmlns:inkscape="http://www.inkscape.org/namespaces/inkscape"
   id="svg3899"
   version="1.1"
   inkscape:version="0.91 r13725"
   xml:space="preserve"
   width="161.25"
   height="56.25"
   viewBox="0 0 161.25 56.25"
   sodipodi:docname="UPPER_Vibrato_Tremolo_2xPBs_etch_copper_top.svg"><metadata
     id="metadata3905"><rdf:RDF><cc:Work
         rdf:about=""><dc:format>image/svg+xml</dc:format><dc:type
           rdf:resource="http://purl.org/dc/dcmitype/StillImage" /><dc:title></dc:title></cc:Work></rdf:RDF></metadata><defs
     id="defs3903" /><sodipodi:namedview
     pagecolor="#ffffff"
     bordercolor="#666666"
     borderopacity="1"
     objecttolerance="10"
     gridtolerance="10"
     guidetolerance="10"
     inkscape:pageopacity="0"
     inkscape:pageshadow="2"
     inkscape:window-width="1895"
     inkscape:window-height="1056"
     id="namedview3901"
     showgrid="false"
     inkscape:zoom="10.728682"
     inkscape:cx="80.625"
     inkscape:cy="28.125"
     inkscape:window-x="0"
     inkscape:window-y="0"
     inkscape:window-maximized="1"
     inkscape:current-layer="g3907" /><g
     id="g3907"
     inkscape:groupmode="layer"
     inkscape:label="UPPER_Vibrato_Tremolo_2xPBs_etch_copper_top"
     transform="matrix(1.25,0,0,-1.25,0,56.25)"><g
       id="g3909"
       transform="matrix(0.06,0,0,-0.06,10.02,34.98)"><g
         id="g3911"><g
           id="g3913" /></g><g
         id="g3915"><g
           id="g3917" /><g
           id="g3919" /><g
           id="g3921"
           transform="scale(0.99999888,0.99999925)"><path
             d="m 4.8,4.8 1810.58,0 0,411.58 -1810.58,0 0,-411.58 z"
             style="fill:none;stroke:#000000;stroke-width:0.5;stroke-linecap:butt;stroke-linejoin:miter;stroke-miterlimit:10;stroke-dasharray:none;stroke-opacity:1"
             id="path3923"
             inkscape:connector-curvature="0" /></g><g
           id="g3925"><path
             d="m 297.59967,237.59982 0,4.8 -2.4,0 0,2.4 -2.4,0 0,2.39999 -2.4,0 0,4.8 -4.79999,0 0,2.4 -2.4,0 0,2.4 -2.4,0 0,2.4 -2.39999,0 0,23.99998 4.79999,0 0,2.4 2.4,0 0,2.39999 2.4,0 0,2.4 2.39999,0 0,2.4 2.4,0 0,2.4 2.4,0 0,4.79999 2.4,0 0,2.4 2.39999,0 0,4.8 2.4,0 0,4.8 2.4,0 0,7.19999 2.39999,0 0,23.99998 -2.39999,0 0,4.8 -2.4,0 0,23.99998 79.19991,0 0,-23.99998 -2.4,0 0,-2.4 -2.39999,0 0,-4.8 -2.4,0 0,-4.79999 -2.4,0 0,-4.8 -2.4,0 0,-9.59999 -2.39999,0 0,-11.99999 2.39999,0 0,-7.2 2.4,0 0,-7.19999 2.4,0 0,-4.8 2.4,0 0,-4.79999 2.39999,0 0,-2.4 2.4,0 0,-2.4 2.4,0 0,-2.4 2.39999,0 0,-2.4 2.4,0 0,-2.4 2.4,0 0,-2.39999 2.4,0 0,-2.4 4.79999,0 0,-2.4 4.8,0 0,-2.4 4.79999,0 0,-2.4 7.19999,0 0,-23.99998 -117.59986,0 z"
             style="fill:#000000;fill-opacity:1;fill-rule:nonzero;stroke:none"
             id="path3927"
             inkscape:connector-curvature="0" /></g><g
           id="g3929"><path
             d="m 436.79951,237.59982 0,23.99998 4.79999,0 0,2.4 7.19999,0 0,2.4 2.4,0 0,2.4 4.8,0 0,2.4 2.39999,0 0,2.39999 2.4,0 0,2.4 2.4,0 0,2.4 2.4,0 0,2.4 2.39999,0 0,2.4 2.4,0 0,2.4 2.4,0 0,4.79999 2.4,0 0,4.8 2.39999,0 0,4.79999 2.4,0 0,7.2 2.4,0 0,16.79999 -2.4,0 0,7.19999 -2.4,0 0,7.2 -2.39999,0 0,2.39999 -2.4,0 0,4.8 -2.4,0 0,2.4 -2.4,0 0,23.99998 220.79975,0 0,-23.99998 -2.39999,0 0,-2.4 -2.4,0 0,-4.8 -2.4,0 0,-2.39999 -2.39999,0 0,-7.2 -2.4,0 0,-9.59999 -2.4,0 0,-11.99999 2.4,0 0,-9.6 2.4,0 0,-4.79999 2.39999,0 0,-4.8 2.4,0 0,-4.79999 2.4,0 0,-2.4 2.39999,0 0,-2.4 2.4,0 0,-2.4 2.4,0 0,-2.4 2.4,0 0,-2.4 2.39999,0 0,-2.39999 2.4,0 0,-2.4 4.8,0 0,-2.4 2.39999,0 0,-2.4 7.2,0 0,-2.4 7.19999,0 0,-23.99998 -285.59968,0 z"
             style="fill:#000000;fill-opacity:1;fill-rule:nonzero;stroke:none"
             id="path3931"
             inkscape:connector-curvature="0" /><path
             d="m 596.14933,301.54977 c 0,24.8528 -20.14717,44.99997 -44.99995,44.99997 -24.85279,0 -44.99995,-20.14717 -44.99995,-44.99997 0,-24.85279 20.14716,-44.99996 44.99995,-44.99996 24.85278,0 44.99995,20.14717 44.99995,44.99996 z"
             style="fill:#000000;fill-opacity:1;fill-rule:evenodd;stroke:none"
             id="path3933"
             inkscape:connector-curvature="0" /></g><g
           id="g3935"><path
             d="m 1115.9987,47.999964 0,23.999982 2.4,0 0,2.399998 2.4,0 0,4.799997 2.4,0 0,4.799996 2.4,0 0,4.799997 2.4,0 0,14.399986 2.4,0 0,2.4 -2.4,0 0,11.99999 -2.4,0 0,7.2 -2.4,0 0,2.39999 -2.4,0 0,4.8 -2.4,0 0,2.4 -2.4,0 0,4.79999 -2.4,0 0,2.4 -2.3999,0 0,2.4 -2.4,0 0,2.4 -2.4,0 0,2.4 -4.8,0 0,2.4 -2.4,0 0,2.39999 -4.8,0 0,2.4 -7.2,0 0,2.4 -7.2,0 0,2.4 292.7997,0 0,-2.4 -9.6,0 0,-2.4 -4.8,0 0,-2.4 -4.8,0 0,-2.39999 -4.8,0 0,-2.4 -2.4,0 0,-2.4 -2.4,0 0,-2.4 -2.4,0 0,-2.4 -2.4,0 0,-2.4 -2.4,0 0,-2.39999 -2.4,0 0,-2.4 -2.4,0 0,-4.8 -2.4,0 0,-2.4 -2.4,0 0,-7.19999 -2.4,0 0,-7.19999 -2.4,0 0,-19.19999 2.4,0 0,-7.199995 2.4,0 0,-4.799996 2.4,0 0,-4.799997 2.4,0 0,-4.799996 2.4,0 0,-23.999982 -218.3998,0 z"
             style="fill:#000000;fill-opacity:1;fill-rule:nonzero;stroke:none"
             id="path3937"
             inkscape:connector-curvature="0" /><path
             d="m 1423.1984,47.999964 0,23.999982 2.4,0 0,2.399998 2.4,0 0,4.799997 2.4,0 0,4.799996 2.4,0 0,4.799997 2.4,0 0,28.799976 -2.4,0 0,7.2 -2.4,0 0,2.39999 -2.4,0 0,4.8 -2.4,0 0,2.4 -2.4,0 0,4.79999 -2.4,0 0,2.4 -2.4,0 0,2.4 -2.4,0 0,2.4 -4.8,0 0,2.4 299.9997,0 0,2.4 7.2,0 0,2.39999 4.8,0 0,2.4 4.8,0 0,2.4 2.4,0 0,2.4 4.7999,0 0,2.4 2.4,0 0,2.4 2.4,0 0,2.39999 2.4,0 0,2.4 2.4,0 0,2.4 2.4,0 0,4.8 24,0 0,-129.599906 -347.9996,0 z"
             style="fill:#000000;fill-opacity:1;fill-rule:nonzero;stroke:none"
             id="path3939"
             inkscape:connector-curvature="0" /><path
             d="m 1408.7984,148.79989 0,2.4 -2.4,0 0,2.39999 -4.8,0 0,2.4 -7.2,0 0,2.4 -7.2,0 0,2.4 273.5997,0 0,-2.4 4.8,0 0,-2.4 2.4,0 0,-2.4 7.2,0 0,-2.39999 7.2,0 0,-2.4 -273.5997,0 z"
             style="fill:#000000;fill-opacity:1;fill-rule:nonzero;stroke:none"
             id="path3941"
             inkscape:connector-curvature="0" /><path
             d="m 1039.1988,158.39988 0,2.4 26.4,0 0,-2.4 -26.4,0 z"
             style="fill:#000000;fill-opacity:1;fill-rule:nonzero;stroke:none"
             id="path3943"
             inkscape:connector-curvature="0" /><path
             d="m 1036.7988,160.79988 0,2.4 621.5993,0 0,-2.4 -621.5993,0 z"
             style="fill:#000000;fill-opacity:1;fill-rule:nonzero;stroke:none"
             id="path3945"
             inkscape:connector-curvature="0" /><path
             d="m 1036.7988,160.79988 0,2.4 621.5993,0 0,-2.4 -621.5993,0 z"
             style="fill:#000000;fill-opacity:1;fill-rule:nonzero;stroke:none"
             id="path3947"
             inkscape:connector-curvature="0" /><path
             d="m 1036.7988,160.79988 0,2.4 621.5993,0 0,-2.4 -621.5993,0 z"
             style="fill:#000000;fill-opacity:1;fill-rule:nonzero;stroke:none"
             id="path3949"
             inkscape:connector-curvature="0" /><path
             d="m 1031.9988,163.19988 0,2.4 -2.4,0 0,2.39999 -2.4,0 0,2.4 -4.7999,0 0,2.4 -2.4,0 0,2.4 -4.8,0 0,2.4 -2.4,0 0,2.39999 -2.4,0 0,2.4 -4.8,0 0,2.4 -2.4,0 0,2.4 -2.4,0 0,2.4 -4.80002,0 0,2.4 -2.4,0 0,2.39999 -4.79999,0 0,2.4 -2.4,0 0,2.4 -2.4,0 0,2.4 -4.79999,0 0,2.4 -2.4,0 0,2.39999 -4.79999,0 0,2.4 -2.4,0 0,2.4 -2.4,0 0,2.4 -4.79999,0 0,2.4 -2.4,0 0,2.4 -2.4,0 0,2.39999 -4.79999,0 0,2.4 -2.4,0 0,2.4 -4.79999,0 0,2.4 -2.4,0 0,2.4 -2.4,0 0,2.39999 -4.79999,0 0,2.4 -4.8,0 0,2.4 -9.59999,0 0,2.4 717.59924,0 0,-2.4 -2.4,0 0,-4.8 -2.4,0 0,-9.59999 -2.4,0 0,-23.99998 2.4,0 0,-7.19999 2.4,0 0,-4.8 2.4,0 0,-4.8 2.4,0 0,-4.79999 2.4,0 0,-2.4 2.3999,0 0,-2.4 2.4,0 0,-4.8 2.4,0 0,-2.39999 4.8,0 0,-2.4 -623.9993,0 z"
             style="fill:#000000;fill-opacity:1;fill-rule:nonzero;stroke:none"
             id="path3951"
             inkscape:connector-curvature="0" /><path
             d="m 743.99916,237.59982 0,2.4 175.19981,0 0,-2.4 -175.19981,0 z"
             style="fill:#000000;fill-opacity:1;fill-rule:nonzero;stroke:none"
             id="path3953"
             inkscape:connector-curvature="0" /><path
             d="m 743.99916,239.99982 0,2.4 895.19904,0 0,-2.4 -895.19904,0 z"
             style="fill:#000000;fill-opacity:1;fill-rule:nonzero;stroke:none"
             id="path3955"
             inkscape:connector-curvature="0" /><path
             d="m 743.99916,239.99982 0,2.4 895.19904,0 0,-2.4 -895.19904,0 z"
             style="fill:#000000;fill-opacity:1;fill-rule:nonzero;stroke:none"
             id="path3957"
             inkscape:connector-curvature="0" /><path
             d="m 743.99916,242.39982 0,16.79999 645.59924,0 0,2.39999 7.2,0 0,2.4 4.8,0 0,2.4 4.8,0 0,2.4 4.8,0 0,2.4 2.4,0 0,2.39999 2.4,0 0,2.4 268.7997,0 0,-2.4 -9.6,0 0,-2.39999 -4.8,0 0,-2.4 -4.8,0 0,-2.4 -4.8,0 0,-2.4 -2.4,0 0,-2.4 -2.4,0 0,-2.39999 -2.4,0 0,-2.4 -2.4,0 0,-2.4 -2.4,0 0,-2.4 -2.4,0 0,-2.4 -2.3999,0 0,-2.4 -2.4,0 0,-4.79999 -897.59904,0 z"
             style="fill:#000000;fill-opacity:1;fill-rule:nonzero;stroke:none"
             id="path3959"
             inkscape:connector-curvature="0" /><path
             d="m 1747.198,247.19981 0,2.4 -2.4,0 0,2.4 -2.4,0 0,4.8 -2.4,0 0,2.4 -4.8,0 0,2.39999 -2.3999,0 0,2.4 -2.4,0 0,2.4 -4.8,0 0,2.4 -4.8,0 0,2.4 -4.8,0 0,2.39999 -9.6,0 0,2.4 64.7999,0 0,-28.79998 -24,0 z"
             style="fill:#000000;fill-opacity:1;fill-rule:nonzero;stroke:none"
             id="path3961"
             inkscape:connector-curvature="0" /><path
             d="m 743.99916,259.19981 0,2.39999 4.8,0 0,2.4 7.19999,0 0,2.4 2.4,0 0,2.4 4.79999,0 0,2.4 2.4,0 0,2.39999 2.4,0 0,2.4 2.39999,0 0,2.4 2.4,0 0,2.4 2.4,0 0,2.4 2.39999,0 0,2.4 2.4,0 0,4.79999 2.4,0 0,4.8 2.4,0 0,4.79999 2.39999,0 0,9.6 2.4,0 0,14.39999 -2.4,0 0,7.19999 -2.39999,0 0,7.2 -2.4,0 0,2.39999 -2.4,0 0,4.8 -2.4,0 0,2.4 -2.39999,0 0,23.99998 251.99967,0 0,-26.39998 -2.4,0 0,-2.4 -2.3999,0 0,-4.79999 -2.4,0 0,-4.8 -2.4,0 0,-7.2 -2.4,0 0,-19.19998 2.4,0 0,-7.2 2.4,0 0,-7.19999 2.4,0 0,-2.4 2.3999,0 0,-4.79999 2.4,0 0,-2.4 2.4,0 0,-2.4 2.4,0 0,-4.8 4.8,0 0,-2.4 2.4,0 0,-2.39999 2.4,0 0,-2.4 4.8,0 0,-2.4 2.4,0 0,-2.4 4.8,0 0,-2.4 7.2,0 0,-2.39999 -316.79964,0 z"
             style="fill:#000000;fill-opacity:1;fill-rule:nonzero;stroke:none"
             id="path3963"
             inkscape:connector-curvature="0" /><path
             d="m 1082.3988,259.19981 0,2.39999 7.2,0 0,2.4 4.8,0 0,2.4 4.8,0 0,2.4 4.8,0 0,2.4 2.4,0 0,2.39999 2.4,0 0,2.4 2.4,0 0,2.4 2.3999,0 0,2.4 2.4,0 0,2.4 2.4,0 0,4.79999 2.4,0 0,2.4 2.4,0 0,4.8 2.4,0 0,7.19999 2.4,0 0,11.99999 2.4,0 0,2.4 -2.4,0 0,11.99999 -2.4,0 0,7.2 -2.4,0 0,4.79999 -2.4,0 0,4.8 -2.4,0 0,2.4 -2.4,0 0,23.99998 218.3998,0 0,-26.39998 -2.4,0 0,-2.4 -2.4,0 0,-4.79999 -2.4,0 0,-4.8 -2.4,0 0,-7.2 -2.4,0 0,-21.59998 2.4,0 0,-4.8 2.4,0 0,-7.19999 2.4,0 0,-2.4 2.4,0 0,-4.79999 2.4,0 0,-2.4 2.4,0 0,-2.4 2.4,0 0,-4.8 2.4,0 0,-2.4 4.8,0 0,-2.39999 2.4,0 0,-2.4 2.4,0 0,-2.4 4.8,0 0,-2.4 4.8,0 0,-2.4 7.2,0 0,-2.39999 -285.5997,0 z"
             style="fill:#000000;fill-opacity:1;fill-rule:nonzero;stroke:none"
             id="path3965"
             inkscape:connector-curvature="0" /><path
             d="m 1418.3984,275.99979 0,2.4 352.7996,0 0,-2.4 -352.7996,0 z"
             style="fill:#000000;fill-opacity:1;fill-rule:nonzero;stroke:none"
             id="path3967"
             inkscape:connector-curvature="0" /><path
             d="m 1418.3984,275.99979 0,2.4 352.7996,0 0,-2.4 -352.7996,0 z"
             style="fill:#000000;fill-opacity:1;fill-rule:nonzero;stroke:none"
             id="path3969"
             inkscape:connector-curvature="0" /><path
             d="m 1420.7984,278.39979 0,2.4 2.4,0 0,2.4 2.4,0 0,4.79999 2.4,0 0,2.4 2.4,0 0,4.8 2.4,0 0,7.19999 2.4,0 0,26.39998 -2.4,0 0,7.2 -2.4,0 0,4.79999 -2.4,0 0,4.8 -2.4,0 0,2.4 -2.4,0 0,23.99998 347.9996,0 0,-93.59993 -350.3996,0 z"
             style="fill:#000000;fill-opacity:1;fill-rule:nonzero;stroke:none"
             id="path3971"
             inkscape:connector-curvature="0" /></g><g
           id="g3973"><path
             d="m 170.39981,225.59983 0,4.8 -2.4,0 0,7.19999 -2.4,0 0,4.8 -2.39999,0 0,2.4 -2.4,0 0,4.79999 -2.4,0 0,2.4 -2.4,0 0,2.4 -2.39999,0 0,2.4 -2.4,0 0,2.4 -2.4,0 0,2.39999 -2.4,0 0,2.4 -4.79999,0 0,2.4 -2.4,0 0,2.4 -4.79999,0 0,2.4 -4.8,0 0,2.39999 -9.59998,0 0,2.4 98.39988,0 0,-16.79998 -2.39999,0 0,-2.4 -2.4,0 0,-2.4 -2.4,0 0,-2.4 -2.4,0 0,-2.4 -2.39999,0 0,-2.4 -2.4,0 0,-2.39999 -2.4,0 0,-4.8 -2.4,0 0,-2.4 -2.39999,0 0,-4.8 -2.4,0 0,-7.19999 -23.99997,0 z"
             style="fill:#000000;fill-opacity:1;fill-rule:nonzero;stroke:none"
             id="path3975"
             inkscape:connector-curvature="0" /><path
             d="m 47.999946,261.5998 0,14.39999 47.999946,0 0,-2.4 -7.199992,0 0,-2.39999 -4.799994,0 0,-2.4 -4.799995,0 0,-2.4 -4.799995,0 0,-2.4 -2.399997,0 0,-2.4 -23.999973,0 z"
             style="fill:#000000;fill-opacity:1;fill-rule:nonzero;stroke:none"
             id="path3977"
             inkscape:connector-curvature="0" /><path
             d="m 47.999946,275.99979 0,2.4 170.399804,0 0,-2.4 -170.399804,0 z"
             style="fill:#000000;fill-opacity:1;fill-rule:nonzero;stroke:none"
             id="path3979"
             inkscape:connector-curvature="0" /><path
             d="m 47.999946,275.99979 0,2.4 170.399804,0 0,-2.4 -170.399804,0 z"
             style="fill:#000000;fill-opacity:1;fill-rule:nonzero;stroke:none"
             id="path3981"
             inkscape:connector-curvature="0" /><path
             d="m 47.999946,278.39979 0,93.59993 146.399834,0 0,-26.39998 -2.4,0 0,-7.19999 -2.39999,0 0,-16.79999 2.39999,0 0,-7.2 2.4,0 0,-7.19999 2.4,0 0,-2.4 2.39999,0 0,-4.8 2.4,0 0,-2.39999 2.4,0 0,-2.4 2.4,0 0,-4.8 2.39999,0 0,-2.4 4.8,0 0,-2.39999 2.4,0 0,-2.4 2.39999,0 0,-4.8 -170.399804,0 z"
             style="fill:#000000;fill-opacity:1;fill-rule:nonzero;stroke:none"
             id="path3983"
             inkscape:connector-curvature="0" /></g><g
           id="g3985"><path
             d="m 1043.9988,254.39981 51.6,0 0,38.39997 -51.6,0 0,-38.39997 z"
             style="fill:#000000;fill-opacity:1;fill-rule:nonzero;stroke:none"
             id="path3987"
             inkscape:connector-curvature="0" /></g><g
           id="g3989"><path
             d="m 1043.9988,333.59975 51.6,0 0,38.39997 -51.6,0 0,-38.39997 z"
             style="fill:#000000;fill-opacity:1;fill-rule:nonzero;stroke:none"
             id="path3991"
             inkscape:connector-curvature="0" /></g><g
           id="g3993"><path
             d="m 1089.5988,287.99978 40.7999,0 0,51.59997 -40.7999,0 0,-51.59997 z"
             style="fill:#000000;fill-opacity:1;fill-rule:nonzero;stroke:none"
             id="path3995"
             inkscape:connector-curvature="0" /></g><g
           id="g3997"><path
             d="m 1351.1985,254.39981 51.5999,0 0,38.39997 -51.5999,0 0,-38.39997 z"
             style="fill:#000000;fill-opacity:1;fill-rule:nonzero;stroke:none"
             id="path3999"
             inkscape:connector-curvature="0" /></g><g
           id="g4001"><path
             d="m 1351.1985,333.59975 51.5999,0 0,38.39997 -51.5999,0 0,-38.39997 z"
             style="fill:#000000;fill-opacity:1;fill-rule:nonzero;stroke:none"
             id="path4003"
             inkscape:connector-curvature="0" /></g><g
           id="g4005"><path
             d="m 1317.5985,287.99978 38.4,0 0,51.59997 -38.4,0 0,-51.59997 z"
             style="fill:#000000;fill-opacity:1;fill-rule:nonzero;stroke:none"
             id="path4007"
             inkscape:connector-curvature="0" /></g><g
           id="g4009"><path
             d="m 1396.7984,287.99978 38.4,0 0,51.59997 -38.4,0 0,-51.59997 z"
             style="fill:#000000;fill-opacity:1;fill-rule:nonzero;stroke:none"
             id="path4011"
             inkscape:connector-curvature="0" /></g><g
           id="g4013"><path
             d="m 703.19921,333.59975 51.59994,0 0,38.39997 -51.59994,0 0,-38.39997 z"
             style="fill:#000000;fill-opacity:1;fill-rule:nonzero;stroke:none"
             id="path4015"
             inkscape:connector-curvature="0" /></g><g
           id="g4017"><path
             d="m 669.59925,287.99978 38.39995,0 0,51.59997 -38.39995,0 0,-51.59997 z"
             style="fill:#000000;fill-opacity:1;fill-rule:nonzero;stroke:none"
             id="path4019"
             inkscape:connector-curvature="0" /></g><g
           id="g4021"><path
             d="m 398.39955,333.59975 51.59994,0 0,38.39997 -51.59994,0 0,-38.39997 z"
             style="fill:#000000;fill-opacity:1;fill-rule:nonzero;stroke:none"
             id="path4023"
             inkscape:connector-curvature="0" /></g><g
           id="g4025"><path
             d="m 443.9995,287.99978 38.39996,0 0,51.59997 -38.39996,0 0,-51.59997 z"
             style="fill:#000000;fill-opacity:1;fill-rule:nonzero;stroke:none"
             id="path4027"
             inkscape:connector-curvature="0" /></g><g
           id="g4029"><path
             d="m 219.59975,350.39974 53.99994,0 0,31.19997 -53.99994,0 0,-31.19997 z"
             style="fill:#000000;fill-opacity:1;fill-rule:nonzero;stroke:none"
             id="path4031"
             inkscape:connector-curvature="0" /></g><g
           id="g4033"><path
             d="m 184.79979,301.19977 38.39996,0 0,53.99996 -38.39996,0 0,-53.99996 z"
             style="fill:#000000;fill-opacity:1;fill-rule:nonzero;stroke:none"
             id="path4035"
             inkscape:connector-curvature="0" /></g><g
           id="g4037" /><g
           id="g4039"
           transform="matrix(-0.99999888,0,0,-0.99999925,332.83962,414.63469)"><path
             d="m 118.8,84 c 0,19.21951 -15.58049,34.8 -34.8,34.8 -19.219509,0 -34.8,-15.58049 -34.8,-34.8 0,-19.219509 15.580491,-34.8 34.8,-34.8 19.21951,0 34.8,15.580491 34.8,34.8 z"
             style="fill:none;stroke:#000000;stroke-width:24;stroke-linecap:butt;stroke-linejoin:miter;stroke-miterlimit:10;stroke-dasharray:none;stroke-opacity:1"
             id="path4041"
             inkscape:connector-curvature="0" /></g><g
           id="g4043" /><g
           id="g4045"
           transform="matrix(-0.99999888,0,0,-0.99999925,332.83962,414.63469)"><path
             d="m 118.8,204 c 0,19.21951 -15.58049,34.8 -34.8,34.8 -19.219509,0 -34.8,-15.58049 -34.8,-34.8 0,-19.21951 15.580491,-34.8 34.8,-34.8 19.21951,0 34.8,15.58049 34.8,34.8 z"
             style="fill:none;stroke:#000000;stroke-width:24;stroke-linecap:butt;stroke-linejoin:miter;stroke-miterlimit:10;stroke-dasharray:none;stroke-opacity:1"
             id="path4047"
             inkscape:connector-curvature="0" /></g><g
           id="g4049" /><g
           id="g4051"
           transform="matrix(-0.99999888,0,0,-0.99999925,332.83962,414.63469)"><path
             d="m 118.8,324 c 0,19.21951 -15.58049,34.8 -34.8,34.8 -19.219509,0 -34.8,-15.58049 -34.8,-34.8 0,-19.21951 15.580491,-34.8 34.8,-34.8 19.21951,0 34.8,15.58049 34.8,34.8 z"
             style="fill:none;stroke:#000000;stroke-width:24;stroke-linecap:butt;stroke-linejoin:miter;stroke-miterlimit:10;stroke-dasharray:none;stroke-opacity:1"
             id="path4053"
             inkscape:connector-curvature="0" /></g><g
           id="g4055"><path
             d="m 1747.8917,212.05204 c 0,28.70139 -23.267,51.96846 -51.9684,51.96846 -28.7014,0 -51.9684,-23.26707 -51.9684,-51.96846 0,-28.70139 23.267,-51.96846 51.9684,-51.96846 28.7014,0 51.9684,23.26707 51.9684,51.96846 z"
             style="fill:#000000;fill-opacity:1;fill-rule:evenodd;stroke:none"
             id="path4057"
             inkscape:connector-curvature="0" /></g><g
           id="g4059"><path
             d="m 160.49312,212.05204 c 0,28.70139 -23.26707,51.96846 -51.96844,51.96846 -28.70138,0 -51.968444,-23.26707 -51.968444,-51.96846 0,-28.70139 23.267064,-51.96846 51.968444,-51.96846 28.70137,0 51.96844,23.26707 51.96844,51.96846 z"
             style="fill:#000000;fill-opacity:1;fill-rule:evenodd;stroke:none"
             id="path4061"
             inkscape:connector-curvature="0" /></g><g
           id="g4063" /><g
           id="g4065"
           transform="matrix(0.99999888,0,0,0.99999925,384.71057,55.948958)"><path
             d="m 380.436,260.04 c 0,18.2254 -14.7746,33 -33,33 -18.2254,0 -33,-14.7746 -33,-33 0,-18.2254 14.7746,-33 33,-33 18.2254,0 33,14.7746 33,33 z"
             style="fill:none;stroke:#000000;stroke-width:24;stroke-linecap:butt;stroke-linejoin:miter;stroke-miterlimit:10;stroke-dasharray:none;stroke-opacity:1"
             id="path4067"
             inkscape:connector-curvature="0" /></g><g
           id="g4069" /><g
           id="g4071"
           transform="matrix(0.99999888,0,0,0.99999925,384.71057,55.948958)"><path
             d="m 73.344,260.04 c 0,18.2254 -14.774603,33 -33,33 -18.225397,0 -33,-14.7746 -33,-33 0,-18.2254 14.774603,-33 33,-33 18.225397,0 33,14.7746 33,33 z"
             style="fill:none;stroke:#000000;stroke-width:24;stroke-linecap:butt;stroke-linejoin:miter;stroke-miterlimit:10;stroke-dasharray:none;stroke-opacity:1"
             id="path4073"
             inkscape:connector-curvature="0" /></g><g
           id="g4075" /><g
           id="g4077"
           transform="matrix(0.99999888,0,0,0.99999925,384.71057,55.948958)"><path
             d="m 380.436,47.436 c 0,18.225397 -14.7746,33 -33,33 -18.2254,0 -33,-14.774603 -33,-33 0,-18.225397 14.7746,-33 33,-33 18.2254,0 33,14.774603 33,33 z"
             style="fill:none;stroke:#000000;stroke-width:24;stroke-linecap:butt;stroke-linejoin:miter;stroke-miterlimit:10;stroke-dasharray:none;stroke-opacity:1"
             id="path4079"
             inkscape:connector-curvature="0" /></g><g
           id="g4081" /><g
           id="g4083"
           transform="matrix(0.99999888,0,0,0.99999925,384.71057,55.948958)"><path
             d="m 73.344,47.436 c 0,18.225397 -14.774603,33 -33,33 -18.225397,0 -33,-14.774603 -33,-33 0,-18.225397 14.774603,-33 33,-33 18.225397,0 33,14.774603 33,33 z"
             style="fill:none;stroke:#000000;stroke-width:24;stroke-linecap:butt;stroke-linejoin:miter;stroke-miterlimit:10;stroke-dasharray:none;stroke-opacity:1"
             id="path4085"
             inkscape:connector-curvature="0" /></g><g
           id="g4087" /><g
           id="g4089"
           transform="matrix(0.99999888,0,0,0.99999925,1031.9588,55.948958)"><path
             d="m 380.436,260.04 c 0,18.2254 -14.7746,33 -33,33 -18.2254,0 -33,-14.7746 -33,-33 0,-18.2254 14.7746,-33 33,-33 18.2254,0 33,14.7746 33,33 z"
             style="fill:none;stroke:#000000;stroke-width:24;stroke-linecap:butt;stroke-linejoin:miter;stroke-miterlimit:10;stroke-dasharray:none;stroke-opacity:1"
             id="path4091"
             inkscape:connector-curvature="0" /></g><g
           id="g4093" /><g
           id="g4095"
           transform="matrix(0.99999888,0,0,0.99999925,1031.9588,55.948958)"><path
             d="m 73.344,260.04 c 0,18.2254 -14.774603,33 -33,33 -18.225397,0 -33,-14.7746 -33,-33 0,-18.2254 14.774603,-33 33,-33 18.225397,0 33,14.7746 33,33 z"
             style="fill:none;stroke:#000000;stroke-width:24;stroke-linecap:butt;stroke-linejoin:miter;stroke-miterlimit:10;stroke-dasharray:none;stroke-opacity:1"
             id="path4097"
             inkscape:connector-curvature="0" /></g><g
           id="g4099" /><g
           id="g4101"
           transform="matrix(0.99999888,0,0,0.99999925,1031.9588,55.948958)"><path
             d="m 380.436,47.436 c 0,18.225397 -14.7746,33 -33,33 -18.2254,0 -33,-14.774603 -33,-33 0,-18.225397 14.7746,-33 33,-33 18.2254,0 33,14.774603 33,33 z"
             style="fill:none;stroke:#000000;stroke-width:24;stroke-linecap:butt;stroke-linejoin:miter;stroke-miterlimit:10;stroke-dasharray:none;stroke-opacity:1"
             id="path4103"
             inkscape:connector-curvature="0" /></g><g
           id="g4105" /><g
           id="g4107"
           transform="matrix(0.99999888,0,0,0.99999925,1031.9588,55.948958)"><path
             d="m 73.344,47.436 c 0,18.225397 -14.774603,33 -33,33 -18.225397,0 -33,-14.774603 -33,-33 0,-18.225397 14.774603,-33 33,-33 18.225397,0 33,14.774603 33,33 z"
             style="fill:none;stroke:#000000;stroke-width:24;stroke-linecap:butt;stroke-linejoin:miter;stroke-miterlimit:10;stroke-dasharray:none;stroke-opacity:1"
             id="path4109"
             inkscape:connector-curvature="0" /></g><g
           id="g4111"
           transform="scale(0.99999888,0.99999925)"><path
             d="M 1044.47,123.49 921.375,212.41"
             style="fill:none;stroke:#000000;stroke-width:28.79999924;stroke-linecap:round;stroke-linejoin:miter;stroke-miterlimit:10;stroke-dasharray:none;stroke-opacity:1"
             id="path4113"
             inkscape:connector-curvature="0" /><path
             d="M 921.375,212.41 284.973,210.73"
             style="fill:none;stroke:#000000;stroke-width:28.79999924;stroke-linecap:round;stroke-linejoin:miter;stroke-miterlimit:10;stroke-dasharray:none;stroke-opacity:1"
             id="path4115"
             inkscape:connector-curvature="0" /><path
             d="M 390.811,100.907 284.879,93.2423"
             style="fill:none;stroke:#000000;stroke-width:28.79999924;stroke-linecap:round;stroke-linejoin:miter;stroke-miterlimit:10;stroke-dasharray:none;stroke-opacity:1"
             id="path4117"
             inkscape:connector-curvature="0" /><path
             d="m 390.84,318.833 -105.991,8.809"
             style="fill:none;stroke:#000000;stroke-width:28.79999924;stroke-linecap:round;stroke-linejoin:miter;stroke-miterlimit:10;stroke-dasharray:none;stroke-opacity:1"
             id="path4119"
             inkscape:connector-curvature="0" /><path
             d="m 1037.97,315.989 -271.49,0"
             style="fill:none;stroke:#000000;stroke-width:28.79999924;stroke-linecap:round;stroke-linejoin:miter;stroke-miterlimit:10;stroke-dasharray:none;stroke-opacity:1"
             id="path4121"
             inkscape:connector-curvature="0" /></g><g
           id="g4123" /></g></g><path
       style="fill:#000000;fill-opacity:1;stroke:#000000;stroke-width:0.09320809;stroke-opacity:1"
       d="m 29.080925,40.608271 c 0,-0.430872 -0.03914,-0.517282 -0.442739,-0.977508 l -0.442738,-0.504856 -0.582551,-0.0012 -0.58255,-0.0012 0,0.652457 0,0.652456 -5.452674,0 -5.452673,0 0,-3.495303 0,-3.495304 6.384754,0 c 4.37943,0 6.384755,0.03061 6.384755,0.09745 0,0.130023 -0.430087,0.555012 -0.561669,0.555012 -0.136707,0 -0.370412,0.236842 -0.370412,0.375383 0,0.05999 -0.130267,0.230761 -0.289482,0.37949 l -0.289481,0.270416 0.523818,0 c 0.480522,0 0.56538,-0.03385 1.026648,-0.40956 0.658129,-0.536054 1.399032,-0.81057 2.194465,-0.813084 0.780571,-0.0025 1.037541,0.05944 1.710766,0.412158 0.579578,0.303653 1.157042,0.886293 1.412983,1.425649 0.106908,0.225291 0.201658,0.313832 0.296779,0.27733 0.07685,-0.02949 0.314563,-0.05693 0.528244,-0.06098 0.213681,-0.004 0.336082,-0.02851 0.272001,-0.05437 -0.06408,-0.02586 -0.11651,-0.127405 -0.11651,-0.225662 0,-0.09826 -0.04194,-0.178649 -0.09321,-0.178649 -0.05127,0 -0.09321,-0.06256 -0.09321,-0.139022 0,-0.07646 -0.08389,-0.191411 -0.186416,-0.255441 -0.102529,-0.06403 -0.186417,-0.168926 -0.186417,-0.233101 0,-0.217975 -0.860096,-1.143389 -1.062685,-1.143389 -0.124912,0 -0.14902,-0.128671 -0.14902,-0.795376 0,-0.774182 0.0081,-0.803503 0.305005,-1.100381 0.167753,-0.167753 0.377471,-0.332813 0.466041,-0.3668 0.08857,-0.03399 0.161035,-0.12412 0.161035,-0.200296 0,-0.07617 0.104859,-0.24336 0.23302,-0.371521 0.128161,-0.128161 0.233021,-0.297842 0.233021,-0.377069 0,-0.127883 0.491627,-0.144049 4.38078,-0.144049 l 4.38078,0 0,0.885477 0,0.885477 -0.279624,0 c -0.153793,0 -0.279624,0.04194 -0.279624,0.09321 0,0.05126 -0.08389,0.09321 -0.186416,0.09321 -0.102529,0 -0.186417,0.0367 -0.186417,0.08156 0,0.04486 -0.125365,0.10663 -0.27859,0.137275 -0.312941,0.06259 -1.67878,1.362073 -1.67878,1.597223 0,0.07772 -0.04194,0.141315 -0.09321,0.141315 -0.05126,0 -0.09321,0.08389 -0.09321,0.186416 0,0.102529 -0.04194,0.186416 -0.09321,0.186416 -0.05126,0 -0.09321,0.102384 -0.09321,0.22752 0,0.125136 -0.04194,0.253442 -0.09321,0.285125 -0.05126,0.03168 -0.09321,0.118046 -0.09321,0.191917 0,0.09908 0.122556,0.134311 0.467216,0.134311 l 0.467215,0 0.226184,-0.511441 c 0.308754,-0.698147 0.625859,-1.090464 1.197956,-1.482093 1.279776,-0.876069 3.094406,-0.733891 4.12676,0.323335 0.326185,0.334044 0.39892,0.365286 0.850421,0.365286 0.27155,0 0.493728,-0.04108 0.493728,-0.09128 0,-0.168127 -1.31977,-1.476776 -1.546789,-1.533754 -0.123291,-0.03094 -0.224165,-0.09741 -0.224165,-0.147695 0,-0.05029 -0.125831,-0.09143 -0.279624,-0.09143 -0.153794,0 -0.279625,-0.04194 -0.279625,-0.09321 0,-0.05126 -0.08389,-0.09321 -0.186416,-0.09321 -0.173334,0 -0.186416,-0.06214 -0.186416,-0.885477 l 0,-0.885477 10.672327,0 10.672326,0 0,0.885477 0,0.885477 -0.279624,0 c -0.153794,0 -0.279624,0.04194 -0.279624,0.09321 0,0.05126 -0.10486,0.09321 -0.233021,0.09321 -0.128161,0 -0.23302,0.04115 -0.23302,0.09143 0,0.05029 -0.111833,0.119501 -0.248518,0.153807 -0.251757,0.06319 -1.615644,1.349889 -1.615644,1.524212 0,0.05274 0.228758,0.09471 0.516246,0.09471 0.474826,0 0.547142,-0.02969 0.901322,-0.370016 0.464956,-0.446771 1.046578,-0.732702 1.760472,-0.865465 1.337504,-0.248735 2.873737,0.548793 3.458096,1.795253 l 0.214659,0.457876 0.489343,0.0038 c 0.269138,0.0021 0.489342,-0.03812 0.489342,-0.08939 0,-0.05126 -0.04194,-0.09321 -0.09321,-0.09321 -0.05127,0 -0.09321,-0.08389 -0.09321,-0.186416 0,-0.102529 -0.04194,-0.186417 -0.09321,-0.186417 -0.05127,0 -0.09321,-0.08389 -0.09321,-0.186416 0,-0.102529 -0.04194,-0.186416 -0.09321,-0.186416 -0.05127,0 -0.09321,-0.07813 -0.09321,-0.173627 0,-0.232267 -1.147206,-1.398123 -1.495092,-1.519397 -0.151723,-0.05289 -0.275861,-0.134006 -0.275861,-0.180256 0,-0.04625 -0.125831,-0.08409 -0.279625,-0.08409 -0.153793,0 -0.279624,-0.04194 -0.279624,-0.09321 0,-0.05126 -0.09437,-0.103442 -0.209718,-0.115951 -0.115345,-0.01251 4.886434,-0.04422 11.115065,-0.07046 l 11.324783,-0.04772 -11.301481,-0.02274 -11.301481,-0.02274 0,-0.605853 0,-0.605852 33.648115,0 c 29.36043,0 33.64812,0.01725 33.64812,0.135403 0,0.199877 1.40721,1.63555 1.60312,1.63555 0.0923,0 0.16784,0.04194 0.16784,0.09321 0,0.05127 0.0839,0.09321 0.18641,0.09321 0.10253,0 0.18642,0.04194 0.18642,0.09321 0,0.05126 0.0839,0.09321 0.18642,0.09321 0.10253,0 0.18641,0.03953 0.18641,0.08785 0,0.04832 0.17826,0.103904 0.39614,0.123528 0.21787,0.01962 -4.12744,0.04301 -9.65625,0.05196 l -10.05238,0.01628 -0.25012,-0.267762 c -0.13758,-0.147269 -0.38509,-0.297405 -0.55004,-0.333634 l -0.29992,-0.06587 0,0.421716 c 0,0.381676 0.042,0.46182 0.44274,0.844118 0.42663,0.407036 0.46309,0.422213 1.00199,0.417204 0.30758,-0.0029 0.50682,-0.02635 0.44273,-0.05221 -0.0641,-0.02586 -0.11651,-0.111999 -0.11651,-0.191427 0,-0.07943 -0.0903,-0.222735 -0.20067,-0.318461 -0.19607,-0.17005 0.10037,-0.174047 12.90932,-0.174047 l 13.11,0 0,3.495304 0,3.495303 -13.00253,0 -13.00253,0 0,-0.8649 c 0,-0.757975 0.023,-0.881511 0.18641,-0.999262 0.10253,-0.0739 0.18642,-0.208989 0.18642,-0.3002 0,-0.09121 0.0444,-0.16584 0.0987,-0.16584 0.0543,0 0.0728,-0.04194 0.0411,-0.09321 -0.0317,-0.05127 -0.24422,-0.09321 -0.47232,-0.09321 -0.38812,0 -0.4535,0.03956 -1.01978,0.617105 l -0.60508,0.617105 0,0.641204 0,0.641204 -1.91077,0 -1.91076,0 0,-0.801698 0,-0.801698 -0.4376,-0.456611 c -0.39121,-0.408204 -0.48014,-0.456611 -0.83888,-0.456611 -0.32253,0 -0.40127,0.03254 -0.40127,0.165839 0,0.09121 0.0839,0.226303 0.18642,0.300201 0.16561,0.119367 0.18642,0.241287 0.18642,1.09247 l 0,0.958108 -8.15571,0 -8.155707,0 0,-0.8649 c 0,-0.757975 0.02305,-0.881511 0.186416,-0.999262 0.102529,-0.0739 0.186416,-0.208989 0.186416,-0.3002 0,-0.09121 0.04442,-0.16584 0.09871,-0.16584 0.05429,0 0.07279,-0.04194 0.0411,-0.09321 -0.03168,-0.05127 -0.24243,-0.09321 -0.468327,-0.09321 -0.384427,0 -0.452698,0.04198 -1.066393,0.65567 l -0.65567,0.655671 0,0.602638 0,0.602639 -1.864162,0 -1.864162,0 0,-0.756031 c 0,-0.74095 -0.0072,-0.764656 -0.360306,-1.188403 -0.198169,-0.237805 -0.450683,-0.610633 -0.561143,-0.828507 -0.195759,-0.386119 -0.212571,-0.396134 -0.664982,-0.396134 -0.402008,0 -0.464147,0.02496 -0.464147,0.186416 0,0.102529 0.04194,0.186416 0.09321,0.186416 0.05127,0 0.09321,0.06292 0.09321,0.139813 0,0.0769 0.04194,0.139812 0.09321,0.139812 0.05127,0 0.09321,0.06591 0.09321,0.14647 0,0.08056 0.06291,0.209385 0.139812,0.286282 0.106401,0.106402 0.139812,0.372092 0.139812,1.111839 l 0,0.972027 -9.367414,0 -9.367413,0 0,-0.885477 c 0,-0.516714 0.03808,-0.885477 0.09143,-0.885477 0.05029,0 0.11991,-0.115345 0.154716,-0.256322 0.03481,-0.140977 0.140464,-0.324157 0.234796,-0.407067 0.09433,-0.08291 0.171512,-0.240199 0.171512,-0.34953 0,-0.109332 0.04194,-0.198786 0.09321,-0.198786 0.05126,0 0.09321,-0.04194 0.09321,-0.09321 0,-0.05126 -0.222264,-0.09321 -0.49392,-0.09321 -0.48634,0 -0.495843,0.0054 -0.619205,0.34953 -0.0731,0.203932 -0.391509,0.611859 -0.76439,0.979285 l -0.639103,0.629754 0,0.605253 0,0.605253 -1.864162,0 -1.864162,0 -0.0037,-0.815571 -0.0037,-0.81557 -0.407571,-0.442739 c -0.370992,-0.403002 -0.445456,-0.442738 -0.829672,-0.442738 -0.232155,0 -0.448023,0.04194 -0.479706,0.09321 -0.03168,0.05126 -0.01319,0.09321 0.0411,0.09321 0.05429,0 0.09871,0.07463 0.09871,0.16584 0,0.09121 0.08389,0.226302 0.186416,0.3002 0.16337,0.117751 0.186417,0.241287 0.186417,0.999262 l 0,0.8649 -8.248917,0 -8.248916,0 0,-0.8649 c 0,-0.757975 0.02305,-0.881511 0.186416,-0.999262 0.102529,-0.0739 0.186417,-0.208989 0.186417,-0.3002 0,-0.09121 0.04194,-0.16584 0.09321,-0.16584 0.05126,0 0.09321,-0.04194 0.09321,-0.09321 0,-0.05127 -0.187247,-0.09321 -0.416103,-0.09321 -0.387544,0 -0.454718,0.03971 -0.978685,0.578507 l -0.562582,0.578508 0,0.679801 0,0.679802 -1.910766,0 -1.910766,0 0,-0.759301 0,-0.7593 -0.419785,-0.448784 c -0.230882,-0.246832 -0.468304,-0.555273 -0.527606,-0.685425 -0.08736,-0.191727 -0.17132,-0.235397 -0.44239,-0.23009 -0.316566,0.0062 -0.838799,0.159375 -0.590891,0.173314 0.06408,0.0036 0.11651,0.09044 0.11651,0.192968 0,0.102529 0.04194,0.186416 0.09321,0.186416 0.05127,0 0.09321,0.07463 0.09321,0.16584 0,0.09121 0.08389,0.226302 0.186417,0.3002 0.163369,0.117751 0.186416,0.241287 0.186416,0.999262 l 0,0.8649 -2.936055,0 -2.936055,0 0,-0.885477 c 0,-0.528179 0.03761,-0.885477 0.09321,-0.885477 0.05127,0 0.09321,-0.08389 0.09321,-0.186416 0,-0.102529 0.04194,-0.186416 0.09321,-0.186416 0.05127,0 0.09321,-0.06291 0.09321,-0.139812 0,-0.0975 -0.09167,-0.137001 -0.302926,-0.130521 -0.609067,0.01868 -0.733413,0.104415 -0.934653,0.644431 -0.136353,0.365897 -0.358655,0.679564 -0.781407,1.10256 -0.523977,0.524278 -0.59084,0.632397 -0.59084,0.955383 l 0,0.364202 -1.95737,0 -1.95737,0 0,-0.472654 z m 3.388884,-2.134823 c 0.400454,-0.443254 0.458951,-0.640315 0.398688,-1.343068 -0.05588,-0.651638 -0.371732,-1.115122 -0.933905,-1.370415 -0.641217,-0.291189 -1.449767,-0.180339 -1.954641,0.267976 -0.430015,0.381842 -0.652751,1.352487 -0.43923,1.91409 0.04783,0.125804 0.219951,0.380196 0.382488,0.565317 l 0.295524,0.336583 0.958184,0 0.958184,0 0.334708,-0.370483 z m 13.071665,-1.15813 c 0.31108,-0.311081 0.316908,-0.331589 0.316908,-1.11539 0,-0.787631 -0.0044,-0.802898 -0.324854,-1.123337 -0.358997,-0.358997 -0.762507,-0.47579 -1.396806,-0.404295 -0.8746,0.09858 -1.400438,0.823021 -1.273951,1.755108 0.129084,0.951228 0.452623,1.196719 1.583508,1.201519 0.762649,0.0032 0.784655,-0.0031 1.095195,-0.313605 z m 23.070648,-0.04496 c 0.350277,-0.350277 0.361866,-0.382422 0.361866,-1.003652 0,-0.753512 -0.24249,-1.210194 -0.777361,-1.464007 -0.414098,-0.196503 -1.108243,-0.195935 -1.52377,0.0012 -0.937497,0.444872 -1.132094,1.854117 -0.350756,2.540141 0.312267,0.274174 0.366941,0.288138 1.128163,0.288138 l 0.799991,0 0.361867,-0.361866 z m 25.48958,0.05374 c 0.200901,-0.233626 0.224888,-0.349097 0.224888,-1.082625 0,-0.904936 -0.123457,-1.178541 -0.656059,-1.45396 -0.344361,-0.178076 -1.141594,-0.17713 -1.487538,0.0018 -0.74136,0.383372 -1.043708,1.486775 -0.616223,2.248869 0.288826,0.514903 0.522555,0.605175 1.486341,0.574062 0.771594,-0.02491 0.83793,-0.04313 1.048591,-0.28811 z m 22.960518,0.06682 c 0.28401,-0.238986 0.28677,-0.250018 0.28677,-1.147526 0,-0.998011 -0.0712,-1.153424 -0.6701,-1.463141 -0.41629,-0.215268 -1.25099,-0.142374 -1.65376,0.14442 -0.36098,0.257039 -0.65386,0.84484 -0.65675,1.318073 -0.003,0.420011 0.35913,1.119524 0.65752,1.271595 0.12424,0.06332 0.56873,0.115755 0.98772,0.11651 0.68465,0.0012 0.79087,-0.02307 1.0486,-0.239931 z m 3.15199,-1.689359 c -0.0185,-0.296643 -0.0339,-0.07797 -0.0341,0.485939 0,0.563909 0.015,0.806616 0.0337,0.53935 0.0188,-0.267267 0.0189,-0.728647 0,-1.025289 l 3.8e-4,0 z m -71.491218,0.138872 c -0.01969,-0.219229 -0.03608,-0.06305 -0.03641,0.347067 -3.73e-4,0.410116 0.01577,0.589485 0.0358,0.398598 0.02003,-0.190886 0.02031,-0.526436 6.53e-4,-0.745665 l -3.7e-5,0 z m 41.23113,-1.047918 c 0.107627,-0.228965 0.359503,-0.602408 0.559726,-0.829874 0.309001,-0.351043 0.364042,-0.477518 0.364042,-0.836508 0,-0.232614 -0.03659,-0.44555 -0.08132,-0.473192 -0.04472,-0.02764 -0.212118,0.07474 -0.371985,0.22752 -0.159866,0.152777 -0.353963,0.277776 -0.431327,0.277776 -0.07736,0 -0.14066,0.06482 -0.14066,0.144049 0,0.07923 -0.104859,0.248908 -0.23302,0.377069 -0.128161,0.128161 -0.23302,0.305742 -0.23302,0.394623 0,0.08888 -0.08389,0.222066 -0.186416,0.295964 -0.109471,0.0789 -0.186417,0.241287 -0.186417,0.393409 0,0.142476 -0.04194,0.259048 -0.09321,0.259048 -0.05126,0 -0.09321,0.04194 -0.09321,0.09321 0,0.05126 0.209503,0.09321 0.465563,0.09321 0.459911,0 0.467939,-0.0051 0.661247,-0.4163 z m 6.632764,-0.670719 c -0.06408,-0.02586 -0.11651,-0.10721 -0.11651,-0.180784 0,-0.07357 -0.269338,-0.403109 -0.59853,-0.7323 -0.432699,-0.432699 -0.690943,-0.615866 -0.93208,-0.661103 l -0.333552,-0.06258 0,0.384518 c 0,0.342943 0.05291,0.434569 0.489342,0.847424 0.477404,0.451611 0.502988,0.462771 1.048591,0.457369 0.307587,-0.003 0.506819,-0.02669 0.442739,-0.05255 z m 17.006044,-0.236179 c 0.28018,-0.271562 0.30736,-0.347187 0.30736,-0.85512 l 0,-0.557212 -0.22953,0.215629 c -0.12624,0.118596 -0.3251,0.263277 -0.44191,0.321515 -0.11681,0.05824 -0.22796,0.18679 -0.24701,0.285672 -0.0191,0.09888 -0.15573,0.292917 -0.30375,0.431189 -0.37913,0.354161 -0.34128,0.456236 0.16917,0.456236 0.36673,0 0.4885,-0.04865 0.74567,-0.297909 z m -4.46956,-1.915765 c -2.65293,-0.01375 -6.9941,-0.01375 -9.647033,0 -2.652936,0.01375 -0.482352,0.025 4.823523,0.025 5.30587,0 7.47645,-0.01125 4.82351,-0.025 z"
       id="path4125"
       inkscape:connector-curvature="0"
       transform="matrix(0.8,0,0,-0.8,0,45)" /><path
       style="fill:#000000;fill-opacity:1;stroke:#000000;stroke-width:0.09320809;stroke-opacity:1"
       d="m 81.999819,30.386954 c 0.217874,-0.01962 0.396135,-0.07521 0.396135,-0.123527 0,-0.04832 0.08389,-0.08785 0.186416,-0.08785 0.102529,0 0.186416,-0.04194 0.186416,-0.09321 0,-0.05127 0.06475,-0.09321 0.14388,-0.09321 0.07913,0 0.256966,-0.104859 0.395182,-0.23302 0.138216,-0.128162 0.297659,-0.233021 0.354318,-0.233021 0.05666,0 0.178934,-0.08389 0.271721,-0.186416 0.09279,-0.102529 0.208291,-0.186416 0.256675,-0.186416 0.04838,0 0.205513,-0.125831 0.349178,-0.279624 0.143664,-0.153794 0.311439,-0.279625 0.372832,-0.279625 0.06139,0 0.229168,-0.12583 0.372833,-0.279624 0.143664,-0.153793 0.319007,-0.279624 0.389651,-0.279624 0.07064,0 0.188907,-0.08389 0.262805,-0.186416 0.0739,-0.102529 0.199034,-0.186416 0.278078,-0.186416 0.07904,0 0.222463,-0.10486 0.318708,-0.233021 0.09624,-0.128161 0.243744,-0.23302 0.327775,-0.23302 0.08403,0 0.213246,-0.08389 0.287144,-0.186416 0.0739,-0.102529 0.192161,-0.186416 0.262805,-0.186416 0.07064,0 0.245988,-0.125831 0.389652,-0.279625 0.143665,-0.153793 0.311439,-0.279624 0.372832,-0.279624 0.06139,0 0.229168,-0.125831 0.372833,-0.279624 0.143664,-0.153793 0.318178,-0.279624 0.387807,-0.279624 0.06963,0 0.178988,-0.08389 0.243018,-0.186417 0.06403,-0.102528 0.162151,-0.186416 0.218046,-0.186416 0.05589,0 0.21917,-0.125831 0.362834,-0.279624 0.143665,-0.153793 0.310291,-0.279624 0.370282,-0.279624 0.05999,0 0.173395,-0.06432 0.252009,-0.142935 0.120099,-0.120099 0.416029,-0.138713 1.852321,-0.11651 1.272675,0.01967 1.739286,-0.0033 1.826419,-0.09009 0.06437,-0.06408 0.213503,-0.11651 0.331411,-0.11651 0.117908,0 0.214379,-0.04194 0.214379,-0.09321 0,-0.05126 0.07463,-0.09321 0.165839,-0.09321 0.09121,0 0.226302,-0.08389 0.300201,-0.186416 0.0739,-0.102529 0.189121,-0.186416 0.25605,-0.186416 0.158341,0 0.955656,-0.797315 0.955656,-0.955656 0,-0.06693 0.08389,-0.182151 0.186416,-0.25605 0.102529,-0.0739 0.186416,-0.191779 0.186416,-0.261958 0,-0.07018 0.08561,-0.197236 0.190235,-0.282349 0.147407,-0.119913 0.202911,-0.306889 0.246539,-0.830512 0.03097,-0.371667 0.09216,-0.675759 0.135993,-0.675759 0.04383,0 0.07969,-0.06292 0.07969,-0.139812 0,-0.0769 -0.03631,-0.139812 -0.08068,-0.139812 -0.04438,0 -0.102323,-0.302435 -0.128771,-0.672078 -0.02658,-0.37148 -0.09471,-0.687621 -0.152336,-0.706828 -0.05734,-0.01911 -0.10425,-0.115142 -0.10425,-0.213399 0,-0.09826 -0.04194,-0.178649 -0.09321,-0.178649 -0.05126,0 -0.09321,-0.07463 -0.09321,-0.165839 0,-0.09121 -0.08389,-0.226302 -0.186416,-0.300201 C 96.308319,17.848514 96.28396,17.724031 96.28396,17.01266 l 0,-0.818296 8.15571,0 8.15571,0 0,0.838873 c 0,0.49711 -0.038,0.838873 -0.0932,0.838873 -0.0513,0 -0.0932,0.08389 -0.0932,0.186416 0,0.102529 -0.0419,0.186416 -0.0932,0.186416 -0.0513,0 -0.0932,0.08389 -0.0932,0.186416 0,0.102529 -0.0419,0.186417 -0.0932,0.186417 -0.0513,0 -0.0932,0.08389 -0.0932,0.186416 0,0.102529 -0.0419,0.186416 -0.0932,0.186416 -0.0513,0 -0.0932,0.102384 -0.0932,0.227519 0,0.125136 -0.0419,0.253442 -0.0932,0.285125 -0.0513,0.03168 -0.0932,0.39068 -0.0932,0.79777 0,0.431304 0.0389,0.740164 0.0932,0.740164 0.0513,0 0.0932,0.125831 0.0932,0.279624 0,0.153794 0.0419,0.279625 0.0932,0.279625 0.0513,0 0.0932,0.0956 0.0932,0.212443 0,0.116844 0.0839,0.272906 0.18641,0.346805 0.10253,0.0739 0.18642,0.189415 0.18642,0.256704 0,0.06729 0.13632,0.265995 0.30293,0.44157 0.16661,0.175576 0.44972,0.486821 0.62915,0.691658 0.17943,0.204836 0.39963,0.374362 0.48934,0.376726 0.0897,0.0024 0.16312,0.04624 0.16312,0.0975 0,0.05126 0.0839,0.09321 0.18641,0.09321 0.10253,0 0.18642,0.04194 0.18642,0.09321 0,0.05126 0.0804,0.09321 0.17865,0.09321 0.0983,0 0.19489,0.04871 0.21473,0.108253 0.0524,0.157328 2.16652,0.164841 2.32341,0.0083 0.0642,-0.06408 0.1928,-0.116511 0.28577,-0.116511 0.20498,0 0.52999,-0.175 0.7357,-0.396134 0.1429,-0.153614 0.74828,-0.162245 10.3937,-0.148197 5.63307,0.0082 10.10564,0.03183 9.93903,0.05251 -0.16661,0.02068 -0.30293,0.07688 -0.30293,0.124896 0,0.04802 -0.11657,0.0873 -0.25904,0.0873 -0.15213,0 -0.31451,0.07695 -0.39341,0.186416 -0.0739,0.102529 -0.20617,0.186416 -0.29392,0.186416 -0.0878,0 -0.18486,0.07972 -0.21579,0.17715 -0.0309,0.09743 -0.16464,0.204363 -0.29716,0.237622 -0.27076,0.06796 -0.49805,0.262659 -0.49805,0.426651 0,0.05999 -0.12583,0.226618 -0.27962,0.370283 -0.15379,0.143664 -0.27963,0.328267 -0.27963,0.410228 0,0.08196 -0.0419,0.14902 -0.0932,0.14902 -0.0513,0 -0.0932,0.08389 -0.0932,0.186416 0,0.102529 -0.042,0.186416 -0.0932,0.186416 -0.0513,0 -0.0932,0.08389 -0.0932,0.186417 0,0.102529 -0.0419,0.186416 -0.0932,0.186416 -0.0513,0 -0.0932,0.102383 -0.0932,0.227519 0,0.125135 -0.0419,0.253442 -0.0932,0.285125 -0.052,0.03215 -0.0932,0.467008 -0.0932,0.984186 0,0.555581 0.0373,0.92658 0.0932,0.92658 0.0513,0 0.0932,0.146803 0.0932,0.326229 0,0.179425 0.0419,0.326228 0.0932,0.326228 0.0513,0 0.0932,0.08039 0.0932,0.178649 0,0.09826 0.0524,0.199805 0.11651,0.225661 0.0641,0.02586 -12.0052,0.043 -26.82063,0.03809 -14.815423,-0.0049 -26.758875,-0.02498 -26.541001,-0.04461 z"
       id="path4127"
       inkscape:connector-curvature="0"
       transform="matrix(0.8,0,0,-0.8,0,45)" /><path
       style="fill:#000000;fill-opacity:1;stroke:#000000;stroke-width:0.09320809;stroke-opacity:1"
       d="m 81.907382,30.387719 c 0.403874,-0.05007 1.968443,-0.930723 2.057575,-1.158153 0.01709,-0.0436 0.08264,-0.07928 0.145675,-0.07928 0.06303,0 0.23516,-0.125831 0.382504,-0.279624 0.147343,-0.153794 0.315118,-0.279625 0.372832,-0.279625 0.05772,0 0.225489,-0.12583 0.372833,-0.279624 0.147343,-0.153793 0.316464,-0.279624 0.375824,-0.279624 0.05936,0 0.183845,-0.08389 0.276632,-0.186416 0.09279,-0.102529 0.217272,-0.186416 0.276632,-0.186416 0.05936,0 0.228482,-0.125831 0.375825,-0.279625 0.147343,-0.153793 0.299891,-0.279624 0.338994,-0.279624 0.103553,0 0.87199,-0.52973 1.01045,-0.696563 0.06496,-0.07827 0.168039,-0.14231 0.229068,-0.14231 0.06103,0 0.231514,-0.125831 0.378858,-0.279624 0.147343,-0.153793 0.32261,-0.279624 0.389481,-0.279624 0.06687,0 0.173972,-0.08389 0.238002,-0.186417 0.06403,-0.102528 0.15876,-0.18661 0.210509,-0.186847 0.05175,-2.33e-4 0.220855,-0.115582 0.375792,-0.256322 0.639622,-0.581015 0.781467,-0.615542 2.2655,-0.551446 1.077104,0.04652 1.458955,0.02886 1.872887,-0.08663 0.659358,-0.18397 1.067998,-0.367946 1.217571,-0.548172 0.06461,-0.07784 0.166509,-0.141532 0.226455,-0.141532 0.12541,0 0.774793,-0.663367 1.040087,-1.062483 0.09879,-0.148617 0.252391,-0.379307 0.341342,-0.512644 0.257717,-0.386315 0.360856,-0.675678 0.418634,-1.174512 0.02969,-0.256322 0.0973,-0.494302 0.15025,-0.528843 0.06576,-0.0429 0.06446,-0.101985 -0.0041,-0.186416 -0.0552,-0.06799 -0.119358,-0.354304 -0.142567,-0.636258 -0.04352,-0.528677 -0.419499,-1.463911 -0.673144,-1.674417 -0.10986,-0.09118 -0.143822,-0.314755 -0.143822,-0.946823 l 0,-0.82746 8.155709,0 8.15571,0 7.4e-4,0.768967 c 7.5e-4,0.702623 -0.0303,0.8333 -0.35937,1.514631 -0.19809,0.410116 -0.40815,0.895446 -0.46682,1.078511 -0.18718,0.584111 -0.11227,1.385548 0.18441,1.97279 0.045,0.08902 0.0818,0.218833 0.0818,0.28848 0,0.06965 0.0839,0.202548 0.18642,0.295335 0.10253,0.09279 0.18641,0.215086 0.18641,0.271775 0,0.05669 0.28312,0.403954 0.62916,0.771702 0.9403,0.999301 1.67916,1.344678 2.88795,1.349954 0.82594,0.0036 1.84833,-0.273494 2.12108,-0.574878 0.16809,-0.18573 0.26168,-0.187297 10.43135,-0.174718 5.64396,0.007 10.15689,0.0315 10.02873,0.0545 -0.12816,0.02299 -0.27287,0.0802 -0.32157,0.127119 -0.0487,0.04692 -0.17849,0.08532 -0.28845,0.08532 -0.10997,0 -0.27585,0.08389 -0.36864,0.186416 -0.0928,0.102529 -0.22274,0.186416 -0.28878,0.186416 -0.066,0 -0.17489,0.07764 -0.24188,0.172536 -0.067,0.0949 -0.25991,0.243707 -0.42873,0.330693 -0.16881,0.08699 -0.34226,0.250521 -0.38543,0.36341 -0.0432,0.11289 -0.16645,0.284464 -0.27392,0.381275 -0.21471,0.193401 -0.76148,1.284999 -0.94076,1.878169 -0.15847,0.52434 -0.0175,2.296047 0.19299,2.426164 0.0456,0.02818 0.0829,0.129158 0.0829,0.224388 0,0.09523 0.0524,0.194305 0.11651,0.220161 0.0641,0.02586 -12.0052,0.04361 -26.82063,0.03946 -14.815422,-0.0042 -26.80047,-0.0245 -26.633437,-0.04521 z"
       id="path4129"
       inkscape:connector-curvature="0"
       transform="matrix(0.8,0,0,-0.8,0,45)" /><path
       style="fill:#000000;fill-opacity:1;stroke:#000000;stroke-width:0.09320809;stroke-opacity:1"
       d="m 122.92492,23.674351 c 1.657,-0.01427 4.34139,-0.01426 5.96532,1.9e-5 1.62393,0.01428 0.26821,0.02595 -3.01271,0.02594 -3.28093,-1.1e-5 -4.6096,-0.01169 -2.95261,-0.02596 z"
       id="path4131"
       inkscape:connector-curvature="0"
       transform="matrix(0.8,0,0,-0.8,0,45)" /><path
       style="fill:#000000;fill-opacity:1;stroke:#000000;stroke-width:0.09320809;stroke-opacity:1"
       d="m 81.900318,30.365513 c 0.571447,-0.136022 1.663884,-0.796465 3.012254,-1.821085 0.23069,-0.1753 0.671099,-0.49497 0.978685,-0.710379 0.307587,-0.215408 0.627084,-0.468756 0.709994,-0.562995 0.08291,-0.09424 0.182266,-0.171343 0.220791,-0.171343 0.08521,0 1.402408,-0.914286 2.071256,-1.437691 1.090035,-0.853005 1.334173,-1.029222 1.538083,-1.110175 0.117419,-0.04662 0.826582,-0.0782 1.575918,-0.07019 1.822259,0.01949 2.437421,-0.127295 3.322327,-0.792729 0.429489,-0.322969 1.084732,-1.091266 1.395337,-1.636088 0.106566,-0.186924 0.243297,-0.585388 0.303847,-0.885477 0.06055,-0.300088 0.145412,-0.613634 0.188584,-0.696768 0.04317,-0.08313 0.04632,-0.187993 0.007,-0.23302 -0.03932,-0.04503 -0.119544,-0.355778 -0.178278,-0.690557 -0.105398,-0.60073 -0.477494,-1.509974 -0.66549,-1.626162 -0.0551,-0.03405 -0.09668,-0.418158 -0.09668,-0.893121 l 0,-0.833372 8.155714,0 8.15571,0 0,0.767567 c 0,0.712721 -0.0312,0.837401 -0.43622,1.744914 -0.5209,1.167076 -0.57056,1.738877 -0.23374,2.691031 0.37642,1.064084 1.52706,2.340598 2.51052,2.78516 0.46473,0.210075 0.66676,0.243049 1.51493,0.247258 0.80307,0.004 1.07333,-0.03268 1.50614,-0.204316 0.2901,-0.115046 0.57835,-0.270505 0.64056,-0.345466 0.0918,-0.110669 0.49211,-0.140135 2.12898,-0.156732 l 2.01586,-0.02044 -1.95737,-0.05233 c -1.07655,-0.02878 -1.88257,-0.06153 -1.79115,-0.07277 0.20149,-0.02478 0.81247,-0.618124 0.81247,-0.789025 0,-0.06729 0.0839,-0.182805 0.18641,-0.256704 0.10253,-0.0739 0.18642,-0.198899 0.18642,-0.277779 0,-0.07888 0.0839,-0.195808 0.18642,-0.259838 0.10538,-0.06581 0.18641,-0.217364 0.18641,-0.348649 0,-0.127727 0.0419,-0.232231 0.0932,-0.232231 0.057,0 0.0932,-0.434971 0.0932,-1.118497 0,-0.683526 -0.0362,-1.118497 -0.0932,-1.118497 -0.0513,0 -0.0932,-0.08389 -0.0932,-0.186416 0,-0.102529 -0.0419,-0.186416 -0.0932,-0.186416 -0.0513,0 -0.0932,-0.08389 -0.0932,-0.186416 0,-0.102529 -0.0419,-0.186417 -0.0932,-0.186417 -0.0513,0 -0.0932,-0.07463 -0.0932,-0.165839 0,-0.09121 -0.0839,-0.226302 -0.18642,-0.300201 -0.16205,-0.116804 -0.18641,-0.241287 -0.18641,-0.952658 l 0,-0.818296 13.00253,0 13.00253,0 0,4.800217 0,4.800217 -0.83888,0 c -0.70828,0 -0.83887,-0.02331 -0.83887,-0.149759 0,-0.187679 -0.92015,-1.061947 -1.11768,-1.061947 -0.0803,0 -0.20654,-0.08389 -0.28044,-0.186416 -0.0739,-0.102529 -0.20899,-0.186416 -0.3002,-0.186416 -0.0912,0 -0.16584,-0.04194 -0.16584,-0.09321 0,-0.05126 -0.0629,-0.09321 -0.13981,-0.09321 -0.0769,0 -0.13982,-0.04194 -0.13982,-0.09321 0,-0.05127 -0.12583,-0.09321 -0.27962,-0.09321 -0.15379,0 -0.27962,-0.04194 -0.27962,-0.09321 0,-0.06136 -1.95049,-0.0857 -5.709,-0.07123 l -5.709,0.02198 4.6008,0.04792 c 4.10826,0.04279 4.5523,0.06161 4.14776,0.175802 -1.0646,0.300505 -2.21604,1.353451 -2.85101,2.607118 l -0.39827,0.786341 0.002,1.175387 c 0.002,1.012099 0.0298,1.230417 0.20126,1.57152 l 0.19916,0.396134 -26.90538,-0.0095 c -14.797959,-0.0052 -26.771894,-0.04131 -26.608746,-0.08015 z"
       id="path4133"
       inkscape:connector-curvature="0"
       transform="matrix(0.8,0,0,-0.8,0,45)" /></g></svg>