  0
SECTION
  2
HEADER
  9
$ANGBASE
  50
0.0
  9
$ANGDIR
  70
  1
  9
$MEASUREMENT
  70
0
  0
ENDSEC
  0
SECTION
  2
TABLES
  0
TABLE
  2
LTYPE
  70
1
  0
LTYPE
  2
CONTINUOUS
  70
0
  3
Solid line
  72
65
  73
0
  40
0.0
  0
ENDTAB
  0
TABLE
  2
STYLE
  70
4
  0
STYLE
  2
KICAD
  70
0
  40
0
  41
1
  42
1
  50
0
  71
0
  3
isocp.shx
  0
STYLE
  2
KICADB
  70
0
  40
0
  41
1
  42
1
  50
0
  71
0
  3
isocp.shx
  0
STYLE
  2
KICADI
  70
0
  40
0
  41
1
  42
1
  50
15
  71
0
  3
isocp.shx
  0
STYLE
  2
KICADBI
  70
0
  40
0
  41
1
  42
1
  50
15
  71
0
  3
isocp.shx
  0
ENDTAB
  0
TABLE
  2
LAYER
  70
30
  0
LAYER
  2
BLACK
  70
0
  62
7
  6
CONTINUOUS
  0
LAYER
  2
GRAY1
  70
0
  62
251
  6
CONTINUOUS
  0
LAYER
  2
GRAY2
  70
0
  62
8
  6
CONTINUOUS
  0
LAYER
  2
GRAY3
  70
0
  62
9
  6
CONTINUOUS
  0
LAYER
  2
WHITE
  70
0
  62
7
  6
CONTINUOUS
  0
LAYER
  2
LYELLOW
  70
0
  62
51
  6
CONTINUOUS
  0
LAYER
  2
BLUE1
  70
0
  62
178
  6
CONTINUOUS
  0
LAYER
  2
GREEN1
  70
0
  62
98
  6
CONTINUOUS
  0
LAYER
  2
CYAN1
  70
0
  62
138
  6
CONTINUOUS
  0
LAYER
  2
RED1
  70
0
  62
18
  6
CONTINUOUS
  0
LAYER
  2
MAGENTA1
  70
0
  62
228
  6
CONTINUOUS
  0
LAYER
  2
BROWN1
  70
0
  62
58
  6
CONTINUOUS
  0
LAYER
  2
BLUE2
  70
0
  62
5
  6
CONTINUOUS
  0
LAYER
  2
GREEN2
  70
0
  62
3
  6
CONTINUOUS
  0
LAYER
  2
CYAN2
  70
0
  62
4
  6
CONTINUOUS
  0
LAYER
  2
RED2
  70
0
  62
1
  6
CONTINUOUS
  0
LAYER
  2
MAGENTA2
  70
0
  62
6
  6
CONTINUOUS
  0
LAYER
  2
BROWN2
  70
0
  62
54
  6
CONTINUOUS
  0
LAYER
  2
BLUE3
  70
0
  62
171
  6
CONTINUOUS
  0
LAYER
  2
GREEN3
  70
0
  62
91
  6
CONTINUOUS
  0
LAYER
  2
CYAN3
  70
0
  62
131
  6
CONTINUOUS
  0
LAYER
  2
RED3
  70
0
  62
11
  6
CONTINUOUS
  0
LAYER
  2
MAGENTA3
  70
0
  62
221
  6
CONTINUOUS
  0
LAYER
  2
YELLOW3
  70
0
  62
2
  6
CONTINUOUS
  0
LAYER
  2
BLUE4
  70
0
  62
5
  6
CONTINUOUS
  0
LAYER
  2
GREEN4
  70
0
  62
3
  6
CONTINUOUS
  0
LAYER
  2
CYAN4
  70
0
  62
4
  6
CONTINUOUS
  0
LAYER
  2
RED4
  70
0
  62
1
  6
CONTINUOUS
  0
LAYER
  2
MAGENTA4
  70
0
  62
6
  6
CONTINUOUS
  0
LAYER
  2
YELLOW4
  70
0
  62
2
  6
CONTINUOUS
  0
ENDTAB
  0
ENDSEC
  0
SECTION
  2
ENTITIES
0
LINE
8
Black
10
180.605
20
-104.583
11
180.625
21
-104.6
0
LINE
8
Black
10
180.625
20
-104.6
11
180.638
21
-104.622
0
LINE
8
Black
10
180.638
20
-104.622
11
180.643
21
-104.648
0
LINE
8
Black
10
180.643
20
-104.648
11
180.643
21
-106.123
0
LINE
8
Black
10
180.643
20
-106.123
11
183.593
21
-106.123
0
LINE
8
Black
10
183.593
20
-106.123
11
183.593
21
-104.648
0
LINE
8
Black
10
183.593
20
-104.648
11
183.598
21
-104.622
0
LINE
8
Black
10
183.598
20
-104.622
11
183.611
21
-104.6
0
LINE
8
Black
10
183.611
20
-104.6
11
183.63
21
-104.583
0
LINE
8
Black
10
183.63
20
-104.583
11
183.655
21
-104.574
0
LINE
8
Black
10
183.655
20
-104.574
11
183.681
21
-104.574
0
LINE
8
Black
10
183.681
20
-104.574
11
183.706
21
-104.583
0
LINE
8
Black
10
183.706
20
-104.583
11
183.725
21
-104.6
0
LINE
8
Black
10
183.725
20
-104.6
11
183.738
21
-104.622
0
LINE
8
Black
10
183.738
20
-104.622
11
183.743
21
-104.648
0
LINE
8
Black
10
183.743
20
-104.648
11
183.743
21
-106.198
0
LINE
8
Black
10
183.743
20
-106.198
11
183.742
21
-106.204
0
LINE
8
Black
10
183.742
20
-106.204
11
183.742
21
-106.211
0
LINE
8
Black
10
183.742
20
-106.211
11
183.74
21
-106.217
0
LINE
8
Black
10
183.74
20
-106.217
11
183.738
21
-106.224
0
LINE
8
Black
10
183.738
20
-106.224
11
183.735
21
-106.229
0
LINE
8
Black
10
183.735
20
-106.229
11
183.733
21
-106.236
0
LINE
8
Black
10
183.733
20
-106.236
11
183.729
21
-106.241
0
LINE
8
Black
10
183.729
20
-106.241
11
183.725
21
-106.246
0
LINE
8
Black
10
183.725
20
-106.246
11
183.72
21
-106.25
0
LINE
8
Black
10
183.72
20
-106.25
11
183.716
21
-106.255
0
LINE
8
Black
10
183.716
20
-106.255
11
183.711
21
-106.259
0
LINE
8
Black
10
183.711
20
-106.259
11
183.706
21
-106.263
0
LINE
8
Black
10
183.706
20
-106.263
11
183.699
21
-106.265
0
LINE
8
Black
10
183.699
20
-106.265
11
183.694
21
-106.268
0
LINE
8
Black
10
183.694
20
-106.268
11
183.687
21
-106.27
0
LINE
8
Black
10
183.687
20
-106.27
11
183.681
21
-106.272
0
LINE
8
Black
10
183.681
20
-106.272
11
183.674
21
-106.272
0
LINE
8
Black
10
183.674
20
-106.272
11
183.668
21
-106.273
0
LINE
8
Black
10
183.668
20
-106.273
11
180.568
21
-106.273
0
LINE
8
Black
10
180.568
20
-106.273
11
180.562
21
-106.272
0
LINE
8
Black
10
180.562
20
-106.272
11
180.555
21
-106.272
0
LINE
8
Black
10
180.555
20
-106.272
11
180.549
21
-106.27
0
LINE
8
Black
10
180.549
20
-106.27
11
180.542
21
-106.268
0
LINE
8
Black
10
180.542
20
-106.268
11
180.537
21
-106.265
0
LINE
8
Black
10
180.537
20
-106.265
11
180.53
21
-106.263
0
LINE
8
Black
10
180.53
20
-106.263
11
180.525
21
-106.259
0
LINE
8
Black
10
180.525
20
-106.259
11
180.52
21
-106.255
0
LINE
8
Black
10
180.52
20
-106.255
11
180.516
21
-106.25
0
LINE
8
Black
10
180.516
20
-106.25
11
180.511
21
-106.246
0
LINE
8
Black
10
180.511
20
-106.246
11
180.507
21
-106.241
0
LINE
8
Black
10
180.507
20
-106.241
11
180.503
21
-106.236
0
LINE
8
Black
10
180.503
20
-106.236
11
180.501
21
-106.229
0
LINE
8
Black
10
180.501
20
-106.229
11
180.498
21
-106.224
0
LINE
8
Black
10
180.498
20
-106.224
11
180.496
21
-106.217
0
LINE
8
Black
10
180.496
20
-106.217
11
180.494
21
-106.211
0
LINE
8
Black
10
180.494
20
-106.211
11
180.494
21
-106.204
0
LINE
8
Black
10
180.494
20
-106.204
11
180.493
21
-106.198
0
LINE
8
Black
10
180.493
20
-106.198
11
180.493
21
-104.648
0
LINE
8
Black
10
180.493
20
-104.648
11
180.498
21
-104.622
0
LINE
8
Black
10
180.498
20
-104.622
11
180.511
21
-104.6
0
LINE
8
Black
10
180.511
20
-104.6
11
180.53
21
-104.583
0
LINE
8
Black
10
180.53
20
-104.583
11
180.555
21
-104.574
0
LINE
8
Black
10
180.555
20
-104.574
11
180.581
21
-104.574
0
LINE
8
Black
10
180.581
20
-104.574
11
180.605
21
-104.583
0
LINE
8
Black
10
179.368
20
-105.462
11
179.372
21
-105.462
0
LINE
8
Black
10
179.372
20
-105.462
11
179.381
21
-105.465
0
LINE
8
Black
10
179.381
20
-105.465
11
179.389
21
-105.466
0
LINE
8
Black
10
179.389
20
-105.466
11
179.393
21
-105.468
0
LINE
8
Black
10
179.393
20
-105.468
11
179.397
21
-105.469
0
LINE
8
Black
10
179.397
20
-105.469
11
179.492
21
-105.517
0
LINE
8
Black
10
179.492
20
-105.517
11
179.502
21
-105.524
0
LINE
8
Black
10
179.502
20
-105.524
11
179.512
21
-105.531
0
LINE
8
Black
10
179.512
20
-105.531
11
179.56
21
-105.579
0
LINE
8
Black
10
179.56
20
-105.579
11
179.566
21
-105.589
0
LINE
8
Black
10
179.566
20
-105.589
11
179.574
21
-105.598
0
LINE
8
Black
10
179.574
20
-105.598
11
179.621
21
-105.694
0
LINE
8
Black
10
179.621
20
-105.694
11
179.623
21
-105.698
0
LINE
8
Black
10
179.623
20
-105.698
11
179.625
21
-105.701
0
LINE
8
Black
10
179.625
20
-105.701
11
179.626
21
-105.71
0
LINE
8
Black
10
179.626
20
-105.71
11
179.629
21
-105.718
0
LINE
8
Black
10
179.629
20
-105.718
11
179.628
21
-105.723
0
LINE
8
Black
10
179.628
20
-105.723
11
179.629
21
-105.727
0
LINE
8
Black
10
179.629
20
-105.727
11
179.629
21
-106.033
0
LINE
8
Black
10
179.629
20
-106.033
11
180.03
21
-106.033
0
LINE
8
Black
10
180.03
20
-106.033
11
180.056
21
-106.038
0
LINE
8
Black
10
180.056
20
-106.038
11
180.079
21
-106.051
0
LINE
8
Black
10
180.079
20
-106.051
11
180.095
21
-106.07
0
LINE
8
Black
10
180.095
20
-106.07
11
180.104
21
-106.095
0
LINE
8
Black
10
180.104
20
-106.095
11
180.104
21
-106.121
0
LINE
8
Black
10
180.104
20
-106.121
11
180.095
21
-106.145
0
LINE
8
Black
10
180.095
20
-106.145
11
180.079
21
-106.165
0
LINE
8
Black
10
180.079
20
-106.165
11
180.056
21
-106.178
0
LINE
8
Black
10
180.056
20
-106.178
11
180.03
21
-106.183
0
LINE
8
Black
10
180.03
20
-106.183
11
179.03
21
-106.183
0
LINE
8
Black
10
179.03
20
-106.183
11
179.024
21
-106.182
0
LINE
8
Black
10
179.024
20
-106.182
11
179.017
21
-106.182
0
LINE
8
Black
10
179.017
20
-106.182
11
179.011
21
-106.18
0
LINE
8
Black
10
179.011
20
-106.18
11
179.005
21
-106.178
0
LINE
8
Black
10
179.005
20
-106.178
11
178.999
21
-106.175
0
LINE
8
Black
10
178.999
20
-106.175
11
178.993
21
-106.173
0
LINE
8
Black
10
178.993
20
-106.173
11
178.988
21
-106.169
0
LINE
8
Black
10
178.988
20
-106.169
11
178.982
21
-106.165
0
LINE
8
Black
10
178.982
20
-106.165
11
178.978
21
-106.16
0
LINE
8
Black
10
178.978
20
-106.16
11
178.973
21
-106.156
0
LINE
8
Black
10
178.973
20
-106.156
11
178.97
21
-106.151
0
LINE
8
Black
10
178.97
20
-106.151
11
178.965
21
-106.145
0
LINE
8
Black
10
178.965
20
-106.145
11
178.963
21
-106.139
0
LINE
8
Black
10
178.963
20
-106.139
11
178.96
21
-106.134
0
LINE
8
Black
10
178.96
20
-106.134
11
178.959
21
-106.127
0
LINE
8
Black
10
178.959
20
-106.127
11
178.957
21
-106.121
0
LINE
8
Black
10
178.957
20
-106.121
11
178.957
21
-106.114
0
LINE
8
Black
10
178.957
20
-106.114
11
178.955
21
-106.108
0
LINE
8
Black
10
178.955
20
-106.108
11
178.955
21
-105.727
0
LINE
8
Black
10
178.955
20
-105.727
11
178.956
21
-105.723
0
LINE
8
Black
10
178.956
20
-105.723
11
178.956
21
-105.718
0
LINE
8
Black
10
178.956
20
-105.718
11
178.958
21
-105.71
0
LINE
8
Black
10
178.958
20
-105.71
11
178.96
21
-105.701
0
LINE
8
Black
10
178.96
20
-105.701
11
178.962
21
-105.698
0
LINE
8
Black
10
178.962
20
-105.698
11
178.963
21
-105.694
0
LINE
8
Black
10
178.963
20
-105.694
11
179.011
21
-105.598
0
LINE
8
Black
10
179.011
20
-105.598
11
179.018
21
-105.589
0
LINE
8
Black
10
179.018
20
-105.589
11
179.025
21
-105.579
0
LINE
8
Black
10
179.025
20
-105.579
11
179.073
21
-105.531
0
LINE
8
Black
10
179.073
20
-105.531
11
179.082
21
-105.524
0
LINE
8
Black
10
179.082
20
-105.524
11
179.092
21
-105.517
0
LINE
8
Black
10
179.092
20
-105.517
11
179.187
21
-105.469
0
LINE
8
Black
10
179.187
20
-105.469
11
179.191
21
-105.468
0
LINE
8
Black
10
179.191
20
-105.468
11
179.195
21
-105.466
0
LINE
8
Black
10
179.195
20
-105.466
11
179.204
21
-105.465
0
LINE
8
Black
10
179.204
20
-105.465
11
179.212
21
-105.462
0
LINE
8
Black
10
179.212
20
-105.462
11
179.217
21
-105.462
0
LINE
8
Black
10
179.217
20
-105.462
11
179.221
21
-105.462
0
LINE
8
Black
10
179.221
20
-105.462
11
179.364
21
-105.462
0
LINE
8
Black
10
179.364
20
-105.462
11
179.368
21
-105.462
0
LINE
8
Black
10
179.239
20
-105.612
11
179.17
21
-105.646
0
LINE
8
Black
10
179.17
20
-105.646
11
179.14
21
-105.676
0
LINE
8
Black
10
179.14
20
-105.676
11
179.105
21
-105.745
0
LINE
8
Black
10
179.105
20
-105.745
11
179.105
21
-106.033
0
LINE
8
Black
10
179.105
20
-106.033
11
179.479
21
-106.033
0
LINE
8
Black
10
179.479
20
-106.033
11
179.479
21
-105.745
0
LINE
8
Black
10
179.479
20
-105.745
11
179.445
21
-105.676
0
LINE
8
Black
10
179.445
20
-105.676
11
179.415
21
-105.646
0
LINE
8
Black
10
179.415
20
-105.646
11
179.346
21
-105.612
0
LINE
8
Black
10
179.346
20
-105.612
11
179.239
21
-105.612
0
LINE
8
Black
10
183.134
20
-105.512
11
181.102
21
-105.512
0
LINE
8
Black
10
181.102
20
-105.512
11
181.102
21
-103.784
0
LINE
8
Black
10
181.102
20
-103.784
11
183.134
21
-103.784
0
LINE
8
Black
10
183.134
20
-103.784
11
183.134
21
-105.512
0
LINE
8
Black
10
162.913
20
-98.9279
11
167.536
21
-98.9279
0
LINE
8
Black
10
167.536
20
-98.9279
11
167.536
21
-98.839
0
LINE
8
Black
10
167.536
20
-98.839
11
169.415
21
-98.839
0
LINE
8
Black
10
169.415
20
-98.839
11
169.415
21
-100.719
0
LINE
8
Black
10
169.415
20
-100.719
11
168.336
21
-100.719
0
LINE
8
Black
10
168.336
20
-100.719
11
168.336
21
-103.36
0
LINE
8
Black
10
168.336
20
-103.36
11
169.415
21
-103.36
0
LINE
8
Black
10
169.415
20
-103.36
11
169.415
21
-105.24
0
LINE
8
Black
10
169.415
20
-105.24
11
167.536
21
-105.24
0
LINE
8
Black
10
167.536
20
-105.24
11
167.536
21
-105.151
0
LINE
8
Black
10
167.536
20
-105.151
11
162.913
21
-105.151
0
LINE
8
Black
10
162.913
20
-105.151
11
162.913
21
-105.24
0
LINE
8
Black
10
162.913
20
-105.24
11
161.033
21
-105.24
0
LINE
8
Black
10
161.033
20
-105.24
11
161.033
21
-103.36
0
LINE
8
Black
10
161.033
20
-103.36
11
162.113
21
-103.36
0
LINE
8
Black
10
162.113
20
-103.36
11
162.113
21
-100.719
0
LINE
8
Black
10
162.113
20
-100.719
11
161.033
21
-100.719
0
LINE
8
Black
10
161.033
20
-100.719
11
161.033
21
-98.839
0
LINE
8
Black
10
161.033
20
-98.839
11
162.913
21
-98.839
0
LINE
8
Black
10
162.913
20
-98.839
11
162.913
21
-98.9279
0
LINE
8
Black
10
162.913
20
-99.0549
11
162.913
21
-100.719
0
LINE
8
Black
10
162.913
20
-100.719
11
162.721
21
-100.719
0
LINE
8
Black
10
162.721
20
-100.719
11
162.733
21
-100.729
0
LINE
8
Black
10
162.733
20
-100.729
11
162.744
21
-100.748
0
LINE
8
Black
10
162.744
20
-100.748
11
162.748
21
-100.769
0
LINE
8
Black
10
162.748
20
-100.769
11
162.748
21
-101.518
0
LINE
8
Black
10
162.748
20
-101.518
11
163.124
21
-102.395
0
LINE
8
Black
10
163.124
20
-102.395
11
163.129
21
-102.417
0
LINE
8
Black
10
163.129
20
-102.417
11
163.126
21
-102.439
0
LINE
8
Black
10
163.126
20
-102.439
11
163.116
21
-102.458
0
LINE
8
Black
10
163.116
20
-102.458
11
163.1
21
-102.474
0
LINE
8
Black
10
163.1
20
-102.474
11
163.08
21
-102.482
0
LINE
8
Black
10
163.08
20
-102.482
11
163.058
21
-102.483
0
LINE
8
Black
10
163.058
20
-102.483
11
163.037
21
-102.477
0
LINE
8
Black
10
163.037
20
-102.477
11
163.019
21
-102.464
0
LINE
8
Black
10
163.019
20
-102.464
11
163.007
21
-102.445
0
LINE
8
Black
10
163.007
20
-102.445
11
162.626
21
-101.556
0
LINE
8
Black
10
162.626
20
-101.556
11
162.626
21
-101.555
0
LINE
8
Black
10
162.626
20
-101.555
11
162.625
21
-101.553
0
LINE
8
Black
10
162.625
20
-101.553
11
162.623
21
-101.544
0
LINE
8
Black
10
162.623
20
-101.544
11
162.621
21
-101.535
0
LINE
8
Black
10
162.621
20
-101.535
11
162.621
21
-101.533
0
LINE
8
Black
10
162.621
20
-101.533
11
162.621
21
-101.531
0
LINE
8
Black
10
162.621
20
-101.531
11
162.621
21
-100.769
0
LINE
8
Black
10
162.621
20
-100.769
11
162.625
21
-100.748
0
LINE
8
Black
10
162.625
20
-100.748
11
162.636
21
-100.729
0
LINE
8
Black
10
162.636
20
-100.729
11
162.648
21
-100.719
0
LINE
8
Black
10
162.648
20
-100.719
11
162.24
21
-100.719
0
LINE
8
Black
10
162.24
20
-100.719
11
162.24
21
-103.36
0
LINE
8
Black
10
162.24
20
-103.36
11
162.648
21
-103.36
0
LINE
8
Black
10
162.648
20
-103.36
11
162.636
21
-103.35
0
LINE
8
Black
10
162.636
20
-103.35
11
162.625
21
-103.331
0
LINE
8
Black
10
162.625
20
-103.331
11
162.621
21
-103.309
0
LINE
8
Black
10
162.621
20
-103.309
11
162.621
21
-102.547
0
LINE
8
Black
10
162.621
20
-102.547
11
162.625
21
-102.526
0
LINE
8
Black
10
162.625
20
-102.526
11
162.636
21
-102.507
0
LINE
8
Black
10
162.636
20
-102.507
11
162.653
21
-102.492
0
LINE
8
Black
10
162.653
20
-102.492
11
162.673
21
-102.485
0
LINE
8
Black
10
162.673
20
-102.485
11
162.695
21
-102.485
0
LINE
8
Black
10
162.695
20
-102.485
11
162.716
21
-102.492
0
LINE
8
Black
10
162.716
20
-102.492
11
162.733
21
-102.507
0
LINE
8
Black
10
162.733
20
-102.507
11
162.744
21
-102.526
0
LINE
8
Black
10
162.744
20
-102.526
11
162.748
21
-102.547
0
LINE
8
Black
10
162.748
20
-102.547
11
162.748
21
-103.309
0
LINE
8
Black
10
162.748
20
-103.309
11
162.744
21
-103.331
0
LINE
8
Black
10
162.744
20
-103.331
11
162.733
21
-103.35
0
LINE
8
Black
10
162.733
20
-103.35
11
162.721
21
-103.36
0
LINE
8
Black
10
162.721
20
-103.36
11
162.913
21
-103.36
0
LINE
8
Black
10
162.913
20
-103.36
11
162.913
21
-105.024
0
LINE
8
Black
10
162.913
20
-105.024
11
167.536
21
-105.024
0
LINE
8
Black
10
167.536
20
-105.024
11
167.536
21
-103.36
0
LINE
8
Black
10
167.536
20
-103.36
11
168.209
21
-103.36
0
LINE
8
Black
10
168.209
20
-103.36
11
168.209
21
-100.719
0
LINE
8
Black
10
168.209
20
-100.719
11
167.536
21
-100.719
0
LINE
8
Black
10
167.536
20
-100.719
11
167.536
21
-99.0549
0
LINE
8
Black
10
167.536
20
-99.0549
11
162.913
21
-99.0549
0
LINE
8
Black
10
166.635
20
-103.223
11
166.145
21
-103.634
0
LINE
8
Black
10
166.145
20
-103.634
11
165.544
21
-103.853
0
LINE
8
Black
10
165.544
20
-103.853
11
164.905
21
-103.853
0
LINE
8
Black
10
164.905
20
-103.853
11
164.304
21
-103.634
0
LINE
8
Black
10
164.304
20
-103.634
11
163.814
21
-103.223
0
LINE
8
Black
10
163.814
20
-103.223
11
163.494
21
-102.669
0
LINE
8
Black
10
163.494
20
-102.669
11
163.383
21
-102.039
0
LINE
8
Black
10
163.383
20
-102.039
11
163.494
21
-101.41
0
LINE
8
Black
10
163.494
20
-101.41
11
163.814
21
-100.856
0
LINE
8
Black
10
163.814
20
-100.856
11
164.304
21
-100.445
0
LINE
8
Black
10
164.304
20
-100.445
11
164.905
21
-100.226
0
LINE
8
Black
10
164.905
20
-100.226
11
165.544
21
-100.226
0
LINE
8
Black
10
165.544
20
-100.226
11
166.145
21
-100.445
0
LINE
8
Black
10
166.145
20
-100.445
11
166.635
21
-100.856
0
LINE
8
Black
10
166.635
20
-100.856
11
166.955
21
-101.41
0
LINE
8
Black
10
166.955
20
-101.41
11
167.066
21
-102.039
0
LINE
8
Black
10
167.066
20
-102.039
11
166.955
21
-102.669
0
LINE
8
Black
10
166.955
20
-102.669
11
166.635
21
-103.223
0
LINE
8
Black
10
166.538
20
-100.937
11
166.082
21
-100.555
0
LINE
8
Black
10
166.082
20
-100.555
11
165.522
21
-100.351
0
LINE
8
Black
10
165.522
20
-100.351
11
164.927
21
-100.351
0
LINE
8
Black
10
164.927
20
-100.351
11
164.367
21
-100.555
0
LINE
8
Black
10
164.367
20
-100.555
11
163.911
21
-100.937
0
LINE
8
Black
10
163.911
20
-100.937
11
163.613
21
-101.453
0
LINE
8
Black
10
163.613
20
-101.453
11
163.51
21
-102.039
0
LINE
8
Black
10
163.51
20
-102.039
11
163.613
21
-102.626
0
LINE
8
Black
10
163.613
20
-102.626
11
163.911
21
-103.141
0
LINE
8
Black
10
163.911
20
-103.141
11
164.367
21
-103.524
0
LINE
8
Black
10
164.367
20
-103.524
11
164.927
21
-103.728
0
LINE
8
Black
10
164.927
20
-103.728
11
165.522
21
-103.728
0
LINE
8
Black
10
165.522
20
-103.728
11
166.082
21
-103.524
0
LINE
8
Black
10
166.082
20
-103.524
11
166.538
21
-103.141
0
LINE
8
Black
10
166.538
20
-103.141
11
166.836
21
-102.626
0
LINE
8
Black
10
166.836
20
-102.626
11
166.939
21
-102.039
0
LINE
8
Black
10
166.939
20
-102.039
11
166.836
21
-101.453
0
LINE
8
Black
10
166.836
20
-101.453
11
166.538
21
-100.937
0
LINE
8
Black
10
180.068
20
-104.519
11
180.088
21
-104.536
0
LINE
8
Black
10
180.088
20
-104.536
11
180.101
21
-104.559
0
LINE
8
Black
10
180.101
20
-104.559
11
180.105
21
-104.584
0
LINE
8
Black
10
180.105
20
-104.584
11
180.105
21
-105.156
0
LINE
8
Black
10
180.105
20
-105.156
11
180.101
21
-105.181
0
LINE
8
Black
10
180.101
20
-105.181
11
180.088
21
-105.204
0
LINE
8
Black
10
180.088
20
-105.204
11
180.068
21
-105.221
0
LINE
8
Black
10
180.068
20
-105.221
11
180.043
21
-105.229
0
LINE
8
Black
10
180.043
20
-105.229
11
180.017
21
-105.229
0
LINE
8
Black
10
180.017
20
-105.229
11
179.993
21
-105.221
0
LINE
8
Black
10
179.993
20
-105.221
11
179.973
21
-105.204
0
LINE
8
Black
10
179.973
20
-105.204
11
179.96
21
-105.181
0
LINE
8
Black
10
179.96
20
-105.181
11
179.955
21
-105.156
0
LINE
8
Black
10
179.955
20
-105.156
11
179.955
21
-104.945
0
LINE
8
Black
10
179.955
20
-104.945
11
179.259
21
-104.945
0
LINE
8
Black
10
179.259
20
-104.945
11
179.322
21
-105.007
0
LINE
8
Black
10
179.322
20
-105.007
11
179.328
21
-105.017
0
LINE
8
Black
10
179.328
20
-105.017
11
179.336
21
-105.027
0
LINE
8
Black
10
179.336
20
-105.027
11
179.383
21
-105.122
0
LINE
8
Black
10
179.383
20
-105.122
11
179.391
21
-105.147
0
LINE
8
Black
10
179.391
20
-105.147
11
179.389
21
-105.173
0
LINE
8
Black
10
179.389
20
-105.173
11
179.379
21
-105.197
0
LINE
8
Black
10
179.379
20
-105.197
11
179.361
21
-105.216
0
LINE
8
Black
10
179.361
20
-105.216
11
179.337
21
-105.228
0
LINE
8
Black
10
179.337
20
-105.228
11
179.312
21
-105.23
0
LINE
8
Black
10
179.312
20
-105.23
11
179.286
21
-105.224
0
LINE
8
Black
10
179.286
20
-105.224
11
179.265
21
-105.21
0
LINE
8
Black
10
179.265
20
-105.21
11
179.249
21
-105.189
0
LINE
8
Black
10
179.249
20
-105.189
11
179.207
21
-105.105
0
LINE
8
Black
10
179.207
20
-105.105
11
179.125
21
-105.023
0
LINE
8
Black
10
179.125
20
-105.023
11
178.989
21
-104.932
0
LINE
8
Black
10
178.989
20
-104.932
11
178.986
21
-104.929
0
LINE
8
Black
10
178.986
20
-104.929
11
178.982
21
-104.927
0
LINE
8
Black
10
178.982
20
-104.927
11
178.976
21
-104.921
0
LINE
8
Black
10
178.976
20
-104.921
11
178.97
21
-104.914
0
LINE
8
Black
10
178.97
20
-104.914
11
178.968
21
-104.911
0
LINE
8
Black
10
178.968
20
-104.911
11
178.965
21
-104.907
0
LINE
8
Black
10
178.965
20
-104.907
11
178.962
21
-104.899
0
LINE
8
Black
10
178.962
20
-104.899
11
178.958
21
-104.891
0
LINE
8
Black
10
178.958
20
-104.891
11
178.958
21
-104.887
0
LINE
8
Black
10
178.958
20
-104.887
11
178.957
21
-104.883
0
LINE
8
Black
10
178.957
20
-104.883
11
178.957
21
-104.874
0
LINE
8
Black
10
178.957
20
-104.874
11
178.956
21
-104.865
0
LINE
8
Black
10
178.956
20
-104.865
11
178.957
21
-104.861
0
LINE
8
Black
10
178.957
20
-104.861
11
178.957
21
-104.857
0
LINE
8
Black
10
178.957
20
-104.857
11
178.96
21
-104.848
0
LINE
8
Black
10
178.96
20
-104.848
11
178.962
21
-104.84
0
LINE
8
Black
10
178.962
20
-104.84
11
178.964
21
-104.836
0
LINE
8
Black
10
178.964
20
-104.836
11
178.965
21
-104.832
0
LINE
8
Black
10
178.965
20
-104.832
11
178.971
21
-104.826
0
LINE
8
Black
10
178.971
20
-104.826
11
178.976
21
-104.818
0
LINE
8
Black
10
178.976
20
-104.818
11
178.98
21
-104.816
0
LINE
8
Black
10
178.98
20
-104.816
11
178.982
21
-104.812
0
LINE
8
Black
10
178.982
20
-104.812
11
178.99
21
-104.808
0
LINE
8
Black
10
178.99
20
-104.808
11
178.997
21
-104.803
0
LINE
8
Black
10
178.997
20
-104.803
11
179.001
21
-104.802
0
LINE
8
Black
10
179.001
20
-104.802
11
179.005
21
-104.799
0
LINE
8
Black
10
179.005
20
-104.799
11
179.014
21
-104.798
0
LINE
8
Black
10
179.014
20
-104.798
11
179.022
21
-104.795
0
LINE
8
Black
10
179.022
20
-104.795
11
179.026
21
-104.796
0
LINE
8
Black
10
179.026
20
-104.796
11
179.03
21
-104.795
0
LINE
8
Black
10
179.03
20
-104.795
11
179.955
21
-104.795
0
LINE
8
Black
10
179.955
20
-104.795
11
179.955
21
-104.584
0
LINE
8
Black
10
179.955
20
-104.584
11
179.96
21
-104.559
0
LINE
8
Black
10
179.96
20
-104.559
11
179.973
21
-104.536
0
LINE
8
Black
10
179.973
20
-104.536
11
179.993
21
-104.519
0
LINE
8
Black
10
179.993
20
-104.519
11
180.017
21
-104.51
0
LINE
8
Black
10
180.017
20
-104.51
11
180.043
21
-104.51
0
LINE
8
Black
10
180.043
20
-104.51
11
180.068
21
-104.519
0
LINE
8
Black
10
149.2
20
-98.8949
11
153.822
21
-98.8949
0
LINE
8
Black
10
153.822
20
-98.8949
11
153.822
21
-98.806
0
LINE
8
Black
10
153.822
20
-98.806
11
155.702
21
-98.806
0
LINE
8
Black
10
155.702
20
-98.806
11
155.702
21
-100.686
0
LINE
8
Black
10
155.702
20
-100.686
11
154.623
21
-100.686
0
LINE
8
Black
10
154.623
20
-100.686
11
154.623
21
-103.327
0
LINE
8
Black
10
154.623
20
-103.327
11
155.702
21
-103.327
0
LINE
8
Black
10
155.702
20
-103.327
11
155.702
21
-105.207
0
LINE
8
Black
10
155.702
20
-105.207
11
153.822
21
-105.207
0
LINE
8
Black
10
153.822
20
-105.207
11
153.822
21
-105.118
0
LINE
8
Black
10
153.822
20
-105.118
11
149.2
21
-105.118
0
LINE
8
Black
10
149.2
20
-105.118
11
149.2
21
-105.207
0
LINE
8
Black
10
149.2
20
-105.207
11
147.32
21
-105.207
0
LINE
8
Black
10
147.32
20
-105.207
11
147.32
21
-103.327
0
LINE
8
Black
10
147.32
20
-103.327
11
148.399
21
-103.327
0
LINE
8
Black
10
148.399
20
-103.327
11
148.399
21
-100.686
0
LINE
8
Black
10
148.399
20
-100.686
11
147.32
21
-100.686
0
LINE
8
Black
10
147.32
20
-100.686
11
147.32
21
-98.806
0
LINE
8
Black
10
147.32
20
-98.806
11
149.2
21
-98.806
0
LINE
8
Black
10
149.2
20
-98.806
11
149.2
21
-98.8949
0
LINE
8
Black
10
149.2
20
-99.0219
11
149.2
21
-100.686
0
LINE
8
Black
10
149.2
20
-100.686
11
149.008
21
-100.686
0
LINE
8
Black
10
149.008
20
-100.686
11
149.02
21
-100.696
0
LINE
8
Black
10
149.02
20
-100.696
11
149.031
21
-100.715
0
LINE
8
Black
10
149.031
20
-100.715
11
149.034
21
-100.736
0
LINE
8
Black
10
149.034
20
-100.736
11
149.034
21
-101.485
0
LINE
8
Black
10
149.034
20
-101.485
11
149.41
21
-102.362
0
LINE
8
Black
10
149.41
20
-102.362
11
149.415
21
-102.384
0
LINE
8
Black
10
149.415
20
-102.384
11
149.413
21
-102.406
0
LINE
8
Black
10
149.413
20
-102.406
11
149.403
21
-102.425
0
LINE
8
Black
10
149.403
20
-102.425
11
149.387
21
-102.441
0
LINE
8
Black
10
149.387
20
-102.441
11
149.366
21
-102.449
0
LINE
8
Black
10
149.366
20
-102.449
11
149.344
21
-102.45
0
LINE
8
Black
10
149.344
20
-102.45
11
149.323
21
-102.444
0
LINE
8
Black
10
149.323
20
-102.444
11
149.306
21
-102.431
0
LINE
8
Black
10
149.306
20
-102.431
11
149.294
21
-102.412
0
LINE
8
Black
10
149.294
20
-102.412
11
148.913
21
-101.523
0
LINE
8
Black
10
148.913
20
-101.523
11
148.912
21
-101.522
0
LINE
8
Black
10
148.912
20
-101.522
11
148.911
21
-101.52
0
LINE
8
Black
10
148.911
20
-101.52
11
148.91
21
-101.511
0
LINE
8
Black
10
148.91
20
-101.511
11
148.908
21
-101.502
0
LINE
8
Black
10
148.908
20
-101.502
11
148.908
21
-101.5
0
LINE
8
Black
10
148.908
20
-101.5
11
148.907
21
-101.498
0
LINE
8
Black
10
148.907
20
-101.498
11
148.907
21
-100.736
0
LINE
8
Black
10
148.907
20
-100.736
11
148.911
21
-100.715
0
LINE
8
Black
10
148.911
20
-100.715
11
148.922
21
-100.696
0
LINE
8
Black
10
148.922
20
-100.696
11
148.934
21
-100.686
0
LINE
8
Black
10
148.934
20
-100.686
11
148.526
21
-100.686
0
LINE
8
Black
10
148.526
20
-100.686
11
148.526
21
-103.327
0
LINE
8
Black
10
148.526
20
-103.327
11
148.934
21
-103.327
0
LINE
8
Black
10
148.934
20
-103.327
11
148.922
21
-103.317
0
LINE
8
Black
10
148.922
20
-103.317
11
148.911
21
-103.298
0
LINE
8
Black
10
148.911
20
-103.298
11
148.907
21
-103.276
0
LINE
8
Black
10
148.907
20
-103.276
11
148.907
21
-102.514
0
LINE
8
Black
10
148.907
20
-102.514
11
148.911
21
-102.493
0
LINE
8
Black
10
148.911
20
-102.493
11
148.922
21
-102.474
0
LINE
8
Black
10
148.922
20
-102.474
11
148.939
21
-102.459
0
LINE
8
Black
10
148.939
20
-102.459
11
148.96
21
-102.452
0
LINE
8
Black
10
148.96
20
-102.452
11
148.982
21
-102.452
0
LINE
8
Black
10
148.982
20
-102.452
11
149.003
21
-102.459
0
LINE
8
Black
10
149.003
20
-102.459
11
149.02
21
-102.474
0
LINE
8
Black
10
149.02
20
-102.474
11
149.031
21
-102.493
0
LINE
8
Black
10
149.031
20
-102.493
11
149.034
21
-102.514
0
LINE
8
Black
10
149.034
20
-102.514
11
149.034
21
-103.276
0
LINE
8
Black
10
149.034
20
-103.276
11
149.031
21
-103.298
0
LINE
8
Black
10
149.031
20
-103.298
11
149.02
21
-103.317
0
LINE
8
Black
10
149.02
20
-103.317
11
149.008
21
-103.327
0
LINE
8
Black
10
149.008
20
-103.327
11
149.2
21
-103.327
0
LINE
8
Black
10
149.2
20
-103.327
11
149.2
21
-104.991
0
LINE
8
Black
10
149.2
20
-104.991
11
153.822
21
-104.991
0
LINE
8
Black
10
153.822
20
-104.991
11
153.822
21
-103.327
0
LINE
8
Black
10
153.822
20
-103.327
11
154.495
21
-103.327
0
LINE
8
Black
10
154.495
20
-103.327
11
154.495
21
-100.686
0
LINE
8
Black
10
154.495
20
-100.686
11
153.822
21
-100.686
0
LINE
8
Black
10
153.822
20
-100.686
11
153.822
21
-99.0219
0
LINE
8
Black
10
153.822
20
-99.0219
11
149.2
21
-99.0219
0
LINE
8
Black
10
152.922
20
-103.19
11
152.432
21
-103.601
0
LINE
8
Black
10
152.432
20
-103.601
11
151.831
21
-103.82
0
LINE
8
Black
10
151.831
20
-103.82
11
151.191
21
-103.82
0
LINE
8
Black
10
151.191
20
-103.82
11
150.59
21
-103.601
0
LINE
8
Black
10
150.59
20
-103.601
11
150.1
21
-103.19
0
LINE
8
Black
10
150.1
20
-103.19
11
149.781
21
-102.636
0
LINE
8
Black
10
149.781
20
-102.636
11
149.669
21
-102.006
0
LINE
8
Black
10
149.669
20
-102.006
11
149.781
21
-101.377
0
LINE
8
Black
10
149.781
20
-101.377
11
150.1
21
-100.823
0
LINE
8
Black
10
150.1
20
-100.823
11
150.59
21
-100.412
0
LINE
8
Black
10
150.59
20
-100.412
11
151.191
21
-100.193
0
LINE
8
Black
10
151.191
20
-100.193
11
151.831
21
-100.193
0
LINE
8
Black
10
151.831
20
-100.193
11
152.432
21
-100.412
0
LINE
8
Black
10
152.432
20
-100.412
11
152.922
21
-100.823
0
LINE
8
Black
10
152.922
20
-100.823
11
153.241
21
-101.377
0
LINE
8
Black
10
153.241
20
-101.377
11
153.352
21
-102.006
0
LINE
8
Black
10
153.352
20
-102.006
11
153.241
21
-102.636
0
LINE
8
Black
10
153.241
20
-102.636
11
152.922
21
-103.19
0
LINE
8
Black
10
152.824
20
-100.904
11
152.368
21
-100.522
0
LINE
8
Black
10
152.368
20
-100.522
11
151.809
21
-100.318
0
LINE
8
Black
10
151.809
20
-100.318
11
151.213
21
-100.318
0
LINE
8
Black
10
151.213
20
-100.318
11
150.654
21
-100.522
0
LINE
8
Black
10
150.654
20
-100.522
11
150.198
21
-100.904
0
LINE
8
Black
10
150.198
20
-100.904
11
149.9
21
-101.42
0
LINE
8
Black
10
149.9
20
-101.42
11
149.796
21
-102.006
0
LINE
8
Black
10
149.796
20
-102.006
11
149.9
21
-102.593
0
LINE
8
Black
10
149.9
20
-102.593
11
150.198
21
-103.108
0
LINE
8
Black
10
150.198
20
-103.108
11
150.654
21
-103.491
0
LINE
8
Black
10
150.654
20
-103.491
11
151.213
21
-103.695
0
LINE
8
Black
10
151.213
20
-103.695
11
151.809
21
-103.695
0
LINE
8
Black
10
151.809
20
-103.695
11
152.368
21
-103.491
0
LINE
8
Black
10
152.368
20
-103.491
11
152.824
21
-103.108
0
LINE
8
Black
10
152.824
20
-103.108
11
153.122
21
-102.593
0
LINE
8
Black
10
153.122
20
-102.593
11
153.225
21
-102.006
0
LINE
8
Black
10
153.225
20
-102.006
11
153.122
21
-101.42
0
LINE
8
Black
10
153.122
20
-101.42
11
152.824
21
-100.904
0
LINE
8
Black
10
179.368
20
-102.748
11
179.372
21
-102.748
0
LINE
8
Black
10
179.372
20
-102.748
11
179.381
21
-102.75
0
LINE
8
Black
10
179.381
20
-102.75
11
179.389
21
-102.752
0
LINE
8
Black
10
179.389
20
-102.752
11
179.393
21
-102.754
0
LINE
8
Black
10
179.393
20
-102.754
11
179.397
21
-102.755
0
LINE
8
Black
10
179.397
20
-102.755
11
179.492
21
-102.803
0
LINE
8
Black
10
179.492
20
-102.803
11
179.502
21
-102.81
0
LINE
8
Black
10
179.502
20
-102.81
11
179.512
21
-102.817
0
LINE
8
Black
10
179.512
20
-102.817
11
179.56
21
-102.864
0
LINE
8
Black
10
179.56
20
-102.864
11
179.566
21
-102.874
0
LINE
8
Black
10
179.566
20
-102.874
11
179.574
21
-102.884
0
LINE
8
Black
10
179.574
20
-102.884
11
179.621
21
-102.979
0
LINE
8
Black
10
179.621
20
-102.979
11
179.623
21
-102.983
0
LINE
8
Black
10
179.623
20
-102.983
11
179.625
21
-102.987
0
LINE
8
Black
10
179.625
20
-102.987
11
179.626
21
-102.996
0
LINE
8
Black
10
179.626
20
-102.996
11
179.629
21
-103.004
0
LINE
8
Black
10
179.629
20
-103.004
11
179.628
21
-103.009
0
LINE
8
Black
10
179.628
20
-103.009
11
179.629
21
-103.013
0
LINE
8
Black
10
179.629
20
-103.013
11
179.629
21
-103.319
0
LINE
8
Black
10
179.629
20
-103.319
11
180.03
21
-103.319
0
LINE
8
Black
10
180.03
20
-103.319
11
180.056
21
-103.323
0
LINE
8
Black
10
180.056
20
-103.323
11
180.079
21
-103.336
0
LINE
8
Black
10
180.079
20
-103.336
11
180.095
21
-103.356
0
LINE
8
Black
10
180.095
20
-103.356
11
180.104
21
-103.381
0
LINE
8
Black
10
180.104
20
-103.381
11
180.104
21
-103.407
0
LINE
8
Black
10
180.104
20
-103.407
11
180.095
21
-103.431
0
LINE
8
Black
10
180.095
20
-103.431
11
180.079
21
-103.451
0
LINE
8
Black
10
180.079
20
-103.451
11
180.056
21
-103.464
0
LINE
8
Black
10
180.056
20
-103.464
11
180.03
21
-103.469
0
LINE
8
Black
10
180.03
20
-103.469
11
179.03
21
-103.469
0
LINE
8
Black
10
179.03
20
-103.469
11
179.024
21
-103.468
0
LINE
8
Black
10
179.024
20
-103.468
11
179.017
21
-103.468
0
LINE
8
Black
10
179.017
20
-103.468
11
179.011
21
-103.465
0
LINE
8
Black
10
179.011
20
-103.465
11
179.005
21
-103.464
0
LINE
8
Black
10
179.005
20
-103.464
11
178.999
21
-103.461
0
LINE
8
Black
10
178.999
20
-103.461
11
178.993
21
-103.459
0
LINE
8
Black
10
178.993
20
-103.459
11
178.988
21
-103.454
0
LINE
8
Black
10
178.988
20
-103.454
11
178.982
21
-103.451
0
LINE
8
Black
10
178.982
20
-103.451
11
178.978
21
-103.446
0
LINE
8
Black
10
178.978
20
-103.446
11
178.973
21
-103.442
0
LINE
8
Black
10
178.973
20
-103.442
11
178.97
21
-103.436
0
LINE
8
Black
10
178.97
20
-103.436
11
178.965
21
-103.431
0
LINE
8
Black
10
178.965
20
-103.431
11
178.963
21
-103.425
0
LINE
8
Black
10
178.963
20
-103.425
11
178.96
21
-103.419
0
LINE
8
Black
10
178.96
20
-103.419
11
178.959
21
-103.413
0
LINE
8
Black
10
178.959
20
-103.413
11
178.957
21
-103.407
0
LINE
8
Black
10
178.957
20
-103.407
11
178.957
21
-103.4
0
LINE
8
Black
10
178.957
20
-103.4
11
178.955
21
-103.394
0
LINE
8
Black
10
178.955
20
-103.394
11
178.955
21
-103.013
0
LINE
8
Black
10
178.955
20
-103.013
11
178.956
21
-103.009
0
LINE
8
Black
10
178.956
20
-103.009
11
178.956
21
-103.004
0
LINE
8
Black
10
178.956
20
-103.004
11
178.958
21
-102.996
0
LINE
8
Black
10
178.958
20
-102.996
11
178.96
21
-102.987
0
LINE
8
Black
10
178.96
20
-102.987
11
178.962
21
-102.983
0
LINE
8
Black
10
178.962
20
-102.983
11
178.963
21
-102.979
0
LINE
8
Black
10
178.963
20
-102.979
11
179.011
21
-102.884
0
LINE
8
Black
10
179.011
20
-102.884
11
179.018
21
-102.874
0
LINE
8
Black
10
179.018
20
-102.874
11
179.025
21
-102.864
0
LINE
8
Black
10
179.025
20
-102.864
11
179.073
21
-102.817
0
LINE
8
Black
10
179.073
20
-102.817
11
179.082
21
-102.81
0
LINE
8
Black
10
179.082
20
-102.81
11
179.092
21
-102.803
0
LINE
8
Black
10
179.092
20
-102.803
11
179.187
21
-102.755
0
LINE
8
Black
10
179.187
20
-102.755
11
179.191
21
-102.754
0
LINE
8
Black
10
179.191
20
-102.754
11
179.195
21
-102.752
0
LINE
8
Black
10
179.195
20
-102.752
11
179.204
21
-102.75
0
LINE
8
Black
10
179.204
20
-102.75
11
179.212
21
-102.748
0
LINE
8
Black
10
179.212
20
-102.748
11
179.217
21
-102.748
0
LINE
8
Black
10
179.217
20
-102.748
11
179.221
21
-102.747
0
LINE
8
Black
10
179.221
20
-102.747
11
179.364
21
-102.747
0
LINE
8
Black
10
179.364
20
-102.747
11
179.368
21
-102.748
0
LINE
8
Black
10
179.239
20
-102.897
11
179.17
21
-102.932
0
LINE
8
Black
10
179.17
20
-102.932
11
179.14
21
-102.962
0
LINE
8
Black
10
179.14
20
-102.962
11
179.105
21
-103.03
0
LINE
8
Black
10
179.105
20
-103.03
11
179.105
21
-103.319
0
LINE
8
Black
10
179.105
20
-103.319
11
179.479
21
-103.319
0
LINE
8
Black
10
179.479
20
-103.319
11
179.479
21
-103.03
0
LINE
8
Black
10
179.479
20
-103.03
11
179.445
21
-102.962
0
LINE
8
Black
10
179.445
20
-102.962
11
179.415
21
-102.932
0
LINE
8
Black
10
179.415
20
-102.932
11
179.346
21
-102.897
0
LINE
8
Black
10
179.346
20
-102.897
11
179.239
21
-102.897
0
LINE
8
Black
10
183.394
20
-98.2241
11
183.401
21
-98.2241
0
LINE
8
Black
10
183.401
20
-98.2241
11
183.407
21
-98.2264
0
LINE
8
Black
10
183.407
20
-98.2264
11
183.414
21
-98.2275
0
LINE
8
Black
10
183.414
20
-98.2275
11
183.419
21
-98.2308
0
LINE
8
Black
10
183.419
20
-98.2308
11
183.425
21
-98.233
0
LINE
8
Black
10
183.425
20
-98.233
11
183.431
21
-98.2373
0
LINE
8
Black
10
183.431
20
-98.2373
11
183.436
21
-98.2405
0
LINE
8
Black
10
183.436
20
-98.2405
11
183.44
21
-98.2456
0
LINE
8
Black
10
183.44
20
-98.2456
11
183.445
21
-98.2498
0
LINE
8
Black
10
183.445
20
-98.2498
11
183.449
21
-98.2555
0
LINE
8
Black
10
183.449
20
-98.2555
11
183.453
21
-98.2605
0
LINE
8
Black
10
183.453
20
-98.2605
11
183.455
21
-98.2667
0
LINE
8
Black
10
183.455
20
-98.2667
11
183.458
21
-98.2723
0
LINE
8
Black
10
183.458
20
-98.2723
11
183.46
21
-98.2788
0
LINE
8
Black
10
183.46
20
-98.2788
11
183.462
21
-98.285
0
LINE
8
Black
10
183.462
20
-98.285
11
183.462
21
-98.2915
0
LINE
8
Black
10
183.462
20
-98.2915
11
183.463
21
-98.298
0
LINE
8
Black
10
183.463
20
-98.298
11
183.463
21
-103.378
0
LINE
8
Black
10
183.463
20
-103.378
11
183.462
21
-103.384
0
LINE
8
Black
10
183.462
20
-103.384
11
183.462
21
-103.391
0
LINE
8
Black
10
183.462
20
-103.391
11
183.46
21
-103.397
0
LINE
8
Black
10
183.46
20
-103.397
11
183.458
21
-103.404
0
LINE
8
Black
10
183.458
20
-103.404
11
183.455
21
-103.409
0
LINE
8
Black
10
183.455
20
-103.409
11
183.453
21
-103.415
0
LINE
8
Black
10
183.453
20
-103.415
11
183.449
21
-103.421
0
LINE
8
Black
10
183.449
20
-103.421
11
183.445
21
-103.426
0
LINE
8
Black
10
183.445
20
-103.426
11
183.44
21
-103.43
0
LINE
8
Black
10
183.44
20
-103.43
11
183.436
21
-103.435
0
LINE
8
Black
10
183.436
20
-103.435
11
183.431
21
-103.439
0
LINE
8
Black
10
183.431
20
-103.439
11
183.425
21
-103.443
0
LINE
8
Black
10
183.425
20
-103.443
11
183.419
21
-103.445
0
LINE
8
Black
10
183.419
20
-103.445
11
183.414
21
-103.448
0
LINE
8
Black
10
183.414
20
-103.448
11
183.407
21
-103.45
0
LINE
8
Black
10
183.407
20
-103.45
11
183.401
21
-103.452
0
LINE
8
Black
10
183.401
20
-103.452
11
183.394
21
-103.452
0
LINE
8
Black
10
183.394
20
-103.452
11
183.388
21
-103.453
0
LINE
8
Black
10
183.388
20
-103.453
11
180.848
21
-103.453
0
LINE
8
Black
10
180.848
20
-103.453
11
180.842
21
-103.452
0
LINE
8
Black
10
180.842
20
-103.452
11
180.835
21
-103.452
0
LINE
8
Black
10
180.835
20
-103.452
11
180.829
21
-103.45
0
LINE
8
Black
10
180.829
20
-103.45
11
180.822
21
-103.448
0
LINE
8
Black
10
180.822
20
-103.448
11
180.817
21
-103.445
0
LINE
8
Black
10
180.817
20
-103.445
11
180.81
21
-103.443
0
LINE
8
Black
10
180.81
20
-103.443
11
180.805
21
-103.439
0
LINE
8
Black
10
180.805
20
-103.439
11
180.8
21
-103.435
0
LINE
8
Black
10
180.8
20
-103.435
11
180.796
21
-103.43
0
LINE
8
Black
10
180.796
20
-103.43
11
180.791
21
-103.426
0
LINE
8
Black
10
180.791
20
-103.426
11
180.787
21
-103.421
0
LINE
8
Black
10
180.787
20
-103.421
11
180.783
21
-103.415
0
LINE
8
Black
10
180.783
20
-103.415
11
180.781
21
-103.409
0
LINE
8
Black
10
180.781
20
-103.409
11
180.778
21
-103.404
0
LINE
8
Black
10
180.778
20
-103.404
11
180.776
21
-103.397
0
LINE
8
Black
10
180.776
20
-103.397
11
180.774
21
-103.391
0
LINE
8
Black
10
180.774
20
-103.391
11
180.774
21
-103.384
0
LINE
8
Black
10
180.774
20
-103.384
11
180.773
21
-103.378
0
LINE
8
Black
10
180.773
20
-103.378
11
180.773
21
-98.298
0
LINE
8
Black
10
180.773
20
-98.298
11
180.774
21
-98.2915
0
LINE
8
Black
10
180.774
20
-98.2915
11
180.774
21
-98.285
0
LINE
8
Black
10
180.774
20
-98.285
11
180.776
21
-98.2788
0
LINE
8
Black
10
180.776
20
-98.2788
11
180.778
21
-98.2723
0
LINE
8
Black
10
180.778
20
-98.2723
11
180.781
21
-98.2667
0
LINE
8
Black
10
180.781
20
-98.2667
11
180.783
21
-98.2605
0
LINE
8
Black
10
180.783
20
-98.2605
11
180.787
21
-98.2555
0
LINE
8
Black
10
180.787
20
-98.2555
11
180.791
21
-98.2498
0
LINE
8
Black
10
180.791
20
-98.2498
11
180.796
21
-98.2456
0
LINE
8
Black
10
180.796
20
-98.2456
11
180.8
21
-98.2405
0
LINE
8
Black
10
180.8
20
-98.2405
11
180.805
21
-98.2373
0
LINE
8
Black
10
180.805
20
-98.2373
11
180.81
21
-98.233
0
LINE
8
Black
10
180.81
20
-98.233
11
180.817
21
-98.2308
0
LINE
8
Black
10
180.817
20
-98.2308
11
180.822
21
-98.2275
0
LINE
8
Black
10
180.822
20
-98.2275
11
180.829
21
-98.2264
0
LINE
8
Black
10
180.829
20
-98.2264
11
180.835
21
-98.2241
0
LINE
8
Black
10
180.835
20
-98.2241
11
180.842
21
-98.2241
0
LINE
8
Black
10
180.842
20
-98.2241
11
180.848
21
-98.223
0
LINE
8
Black
10
180.848
20
-98.223
11
183.388
21
-98.223
0
LINE
8
Black
10
183.388
20
-98.223
11
183.394
21
-98.2241
0
LINE
8
Black
10
180.923
20
-98.373
11
180.923
21
-103.303
0
LINE
8
Black
10
180.923
20
-103.303
11
183.313
21
-103.303
0
LINE
8
Black
10
183.313
20
-103.303
11
183.313
21
-98.373
0
LINE
8
Black
10
183.313
20
-98.373
11
180.923
21
-98.373
0
LINE
8
Black
10
182.57
20
-101.296
11
182.829
21
-101.446
0
LINE
8
Black
10
182.829
20
-101.446
11
183.022
21
-101.676
0
LINE
8
Black
10
183.022
20
-101.676
11
183.125
21
-101.958
0
LINE
8
Black
10
183.125
20
-101.958
11
183.125
21
-102.258
0
LINE
8
Black
10
183.125
20
-102.258
11
183.022
21
-102.54
0
LINE
8
Black
10
183.022
20
-102.54
11
182.829
21
-102.77
0
LINE
8
Black
10
182.829
20
-102.77
11
182.57
21
-102.92
0
LINE
8
Black
10
182.57
20
-102.92
11
182.274
21
-102.972
0
LINE
8
Black
10
182.274
20
-102.972
11
181.962
21
-102.972
0
LINE
8
Black
10
181.962
20
-102.972
11
181.666
21
-102.92
0
LINE
8
Black
10
181.666
20
-102.92
11
181.407
21
-102.77
0
LINE
8
Black
10
181.407
20
-102.77
11
181.214
21
-102.54
0
LINE
8
Black
10
181.214
20
-102.54
11
181.111
21
-102.258
0
LINE
8
Black
10
181.111
20
-102.258
11
181.111
21
-101.958
0
LINE
8
Black
10
181.111
20
-101.958
11
181.214
21
-101.676
0
LINE
8
Black
10
181.214
20
-101.676
11
181.407
21
-101.446
0
LINE
8
Black
10
181.407
20
-101.446
11
181.666
21
-101.296
0
LINE
8
Black
10
181.666
20
-101.296
11
181.962
21
-101.244
0
LINE
8
Black
10
181.962
20
-101.244
11
182.274
21
-101.244
0
LINE
8
Black
10
182.274
20
-101.244
11
182.57
21
-101.296
0
LINE
8
Black
10
182.57
20
-98.7565
11
182.829
21
-98.9064
0
LINE
8
Black
10
182.829
20
-98.9064
11
183.022
21
-99.1362
0
LINE
8
Black
10
183.022
20
-99.1362
11
183.125
21
-99.418
0
LINE
8
Black
10
183.125
20
-99.418
11
183.125
21
-99.718
0
LINE
8
Black
10
183.125
20
-99.718
11
183.022
21
-99.9998
0
LINE
8
Black
10
183.022
20
-99.9998
11
182.829
21
-100.23
0
LINE
8
Black
10
182.829
20
-100.23
11
182.57
21
-100.38
0
LINE
8
Black
10
182.57
20
-100.38
11
182.274
21
-100.432
0
LINE
8
Black
10
182.274
20
-100.432
11
181.962
21
-100.432
0
LINE
8
Black
10
181.962
20
-100.432
11
181.666
21
-100.38
0
LINE
8
Black
10
181.666
20
-100.38
11
181.407
21
-100.23
0
LINE
8
Black
10
181.407
20
-100.23
11
181.214
21
-99.9998
0
LINE
8
Black
10
181.214
20
-99.9998
11
181.111
21
-99.718
0
LINE
8
Black
10
181.111
20
-99.718
11
181.111
21
-99.418
0
LINE
8
Black
10
181.111
20
-99.418
11
181.214
21
-99.1362
0
LINE
8
Black
10
181.214
20
-99.1362
11
181.407
21
-98.9064
0
LINE
8
Black
10
181.407
20
-98.9064
11
181.666
21
-98.7565
0
LINE
8
Black
10
181.666
20
-98.7565
11
181.962
21
-98.7044
0
LINE
8
Black
10
181.962
20
-98.7044
11
182.274
21
-98.7044
0
LINE
8
Black
10
182.274
20
-98.7044
11
182.57
21
-98.7565
0
LINE
8
Black
10
179.328
20
-101.797
11
179.34
21
-101.799
0
LINE
8
Black
10
179.34
20
-101.799
11
179.483
21
-101.846
0
LINE
8
Black
10
179.483
20
-101.846
11
179.486
21
-101.848
0
LINE
8
Black
10
179.486
20
-101.848
11
179.491
21
-101.85
0
LINE
8
Black
10
179.491
20
-101.85
11
179.498
21
-101.855
0
LINE
8
Black
10
179.498
20
-101.855
11
179.506
21
-101.859
0
LINE
8
Black
10
179.506
20
-101.859
11
179.508
21
-101.862
0
LINE
8
Black
10
179.508
20
-101.862
11
179.512
21
-101.864
0
LINE
8
Black
10
179.512
20
-101.864
11
179.955
21
-102.308
0
LINE
8
Black
10
179.955
20
-102.308
11
179.955
21
-101.87
0
LINE
8
Black
10
179.955
20
-101.87
11
179.96
21
-101.844
0
LINE
8
Black
10
179.96
20
-101.844
11
179.973
21
-101.822
0
LINE
8
Black
10
179.973
20
-101.822
11
179.993
21
-101.805
0
LINE
8
Black
10
179.993
20
-101.805
11
180.017
21
-101.796
0
LINE
8
Black
10
180.017
20
-101.796
11
180.043
21
-101.796
0
LINE
8
Black
10
180.043
20
-101.796
11
180.068
21
-101.805
0
LINE
8
Black
10
180.068
20
-101.805
11
180.088
21
-101.822
0
LINE
8
Black
10
180.088
20
-101.822
11
180.101
21
-101.844
0
LINE
8
Black
10
180.101
20
-101.844
11
180.105
21
-101.87
0
LINE
8
Black
10
180.105
20
-101.87
11
180.105
21
-102.489
0
LINE
8
Black
10
180.105
20
-102.489
11
180.104
21
-102.499
0
LINE
8
Black
10
180.104
20
-102.499
11
180.103
21
-102.508
0
LINE
8
Black
10
180.103
20
-102.508
11
180.101
21
-102.511
0
LINE
8
Black
10
180.101
20
-102.511
11
180.101
21
-102.515
0
LINE
8
Black
10
180.101
20
-102.515
11
180.096
21
-102.523
0
LINE
8
Black
10
180.096
20
-102.523
11
180.092
21
-102.532
0
LINE
8
Black
10
180.092
20
-102.532
11
180.089
21
-102.534
0
LINE
8
Black
10
180.089
20
-102.534
11
180.088
21
-102.537
0
LINE
8
Black
10
180.088
20
-102.537
11
180.08
21
-102.543
0
LINE
8
Black
10
180.08
20
-102.543
11
180.073
21
-102.55
0
LINE
8
Black
10
180.073
20
-102.55
11
180.07
21
-102.552
0
LINE
8
Black
10
180.07
20
-102.552
11
180.068
21
-102.554
0
LINE
8
Black
10
180.068
20
-102.554
11
180.059
21
-102.557
0
LINE
8
Black
10
180.059
20
-102.557
11
180.05
21
-102.561
0
LINE
8
Black
10
180.05
20
-102.561
11
180.047
21
-102.562
0
LINE
8
Black
10
180.047
20
-102.562
11
180.043
21
-102.563
0
LINE
8
Black
10
180.043
20
-102.563
11
180.034
21
-102.563
0
LINE
8
Black
10
180.034
20
-102.563
11
180.024
21
-102.564
0
LINE
8
Black
10
180.024
20
-102.564
11
180.021
21
-102.563
0
LINE
8
Black
10
180.021
20
-102.563
11
180.017
21
-102.563
0
LINE
8
Black
10
180.017
20
-102.563
11
180.008
21
-102.559
0
LINE
8
Black
10
180.008
20
-102.559
11
179.999
21
-102.557
0
LINE
8
Black
10
179.999
20
-102.557
11
179.996
21
-102.555
0
LINE
8
Black
10
179.996
20
-102.555
11
179.993
21
-102.554
0
LINE
8
Black
10
179.993
20
-102.554
11
179.985
21
-102.548
0
LINE
8
Black
10
179.985
20
-102.548
11
179.977
21
-102.542
0
LINE
8
Black
10
179.977
20
-102.542
11
179.418
21
-101.983
0
LINE
8
Black
10
179.418
20
-101.983
11
179.304
21
-101.945
0
LINE
8
Black
10
179.304
20
-101.945
11
179.239
21
-101.945
0
LINE
8
Black
10
179.239
20
-101.945
11
179.17
21
-101.979
0
LINE
8
Black
10
179.17
20
-101.979
11
179.14
21
-102.01
0
LINE
8
Black
10
179.14
20
-102.01
11
179.105
21
-102.078
0
LINE
8
Black
10
179.105
20
-102.078
11
179.105
21
-102.281
0
LINE
8
Black
10
179.105
20
-102.281
11
179.14
21
-102.349
0
LINE
8
Black
10
179.14
20
-102.349
11
179.179
21
-102.388
0
LINE
8
Black
10
179.179
20
-102.388
11
179.194
21
-102.41
0
LINE
8
Black
10
179.194
20
-102.41
11
179.2
21
-102.435
0
LINE
8
Black
10
179.2
20
-102.435
11
179.198
21
-102.461
0
LINE
8
Black
10
179.198
20
-102.461
11
179.187
21
-102.484
0
LINE
8
Black
10
179.187
20
-102.484
11
179.169
21
-102.503
0
LINE
8
Black
10
179.169
20
-102.503
11
179.145
21
-102.514
0
LINE
8
Black
10
179.145
20
-102.514
11
179.119
21
-102.516
0
LINE
8
Black
10
179.119
20
-102.516
11
179.094
21
-102.509
0
LINE
8
Black
10
179.094
20
-102.509
11
179.073
21
-102.494
0
LINE
8
Black
10
179.073
20
-102.494
11
179.025
21
-102.447
0
LINE
8
Black
10
179.025
20
-102.447
11
179.018
21
-102.437
0
LINE
8
Black
10
179.018
20
-102.437
11
179.011
21
-102.427
0
LINE
8
Black
10
179.011
20
-102.427
11
178.963
21
-102.332
0
LINE
8
Black
10
178.963
20
-102.332
11
178.962
21
-102.328
0
LINE
8
Black
10
178.962
20
-102.328
11
178.96
21
-102.324
0
LINE
8
Black
10
178.96
20
-102.324
11
178.958
21
-102.315
0
LINE
8
Black
10
178.958
20
-102.315
11
178.956
21
-102.307
0
LINE
8
Black
10
178.956
20
-102.307
11
178.956
21
-102.303
0
LINE
8
Black
10
178.956
20
-102.303
11
178.955
21
-102.298
0
LINE
8
Black
10
178.955
20
-102.298
11
178.955
21
-102.06
0
LINE
8
Black
10
178.955
20
-102.06
11
178.956
21
-102.056
0
LINE
8
Black
10
178.956
20
-102.056
11
178.956
21
-102.052
0
LINE
8
Black
10
178.956
20
-102.052
11
178.958
21
-102.043
0
LINE
8
Black
10
178.958
20
-102.043
11
178.96
21
-102.035
0
LINE
8
Black
10
178.96
20
-102.035
11
178.962
21
-102.031
0
LINE
8
Black
10
178.962
20
-102.031
11
178.963
21
-102.027
0
LINE
8
Black
10
178.963
20
-102.027
11
179.011
21
-101.932
0
LINE
8
Black
10
179.011
20
-101.932
11
179.018
21
-101.922
0
LINE
8
Black
10
179.018
20
-101.922
11
179.025
21
-101.912
0
LINE
8
Black
10
179.025
20
-101.912
11
179.073
21
-101.864
0
LINE
8
Black
10
179.073
20
-101.864
11
179.082
21
-101.858
0
LINE
8
Black
10
179.082
20
-101.858
11
179.092
21
-101.85
0
LINE
8
Black
10
179.092
20
-101.85
11
179.187
21
-101.803
0
LINE
8
Black
10
179.187
20
-101.803
11
179.191
21
-101.802
0
LINE
8
Black
10
179.191
20
-101.802
11
179.195
21
-101.799
0
LINE
8
Black
10
179.195
20
-101.799
11
179.204
21
-101.798
0
LINE
8
Black
10
179.204
20
-101.798
11
179.212
21
-101.795
0
LINE
8
Black
10
179.212
20
-101.795
11
179.217
21
-101.796
0
LINE
8
Black
10
179.217
20
-101.796
11
179.221
21
-101.795
0
LINE
8
Black
10
179.221
20
-101.795
11
179.316
21
-101.795
0
LINE
8
Black
10
179.316
20
-101.795
11
179.328
21
-101.797
0
LINE
8
Black
10
179.938
20
-100.034
11
179.942
21
-100.033
0
LINE
8
Black
10
179.942
20
-100.033
11
179.951
21
-100.036
0
LINE
8
Black
10
179.951
20
-100.036
11
179.961
21
-100.038
0
LINE
8
Black
10
179.961
20
-100.038
11
179.964
21
-100.039
0
LINE
8
Black
10
179.964
20
-100.039
11
179.967
21
-100.04
0
LINE
8
Black
10
179.967
20
-100.04
11
179.975
21
-100.046
0
LINE
8
Black
10
179.975
20
-100.046
11
179.983
21
-100.051
0
LINE
8
Black
10
179.983
20
-100.051
11
179.985
21
-100.053
0
LINE
8
Black
10
179.985
20
-100.053
11
179.988
21
-100.055
0
LINE
8
Black
10
179.988
20
-100.055
11
180.036
21
-100.103
0
LINE
8
Black
10
180.036
20
-100.103
11
180.038
21
-100.106
0
LINE
8
Black
10
180.038
20
-100.106
11
180.042
21
-100.109
0
LINE
8
Black
10
180.042
20
-100.109
11
180.046
21
-100.117
0
LINE
8
Black
10
180.046
20
-100.117
11
180.051
21
-100.124
0
LINE
8
Black
10
180.051
20
-100.124
11
180.052
21
-100.128
0
LINE
8
Black
10
180.052
20
-100.128
11
180.054
21
-100.132
0
LINE
8
Black
10
180.054
20
-100.132
11
180.102
21
-100.275
0
LINE
8
Black
10
180.102
20
-100.275
11
180.103
21
-100.287
0
LINE
8
Black
10
180.103
20
-100.287
11
180.105
21
-100.298
0
LINE
8
Black
10
180.105
20
-100.298
11
180.105
21
-100.394
0
LINE
8
Black
10
180.105
20
-100.394
11
180.103
21
-100.406
0
LINE
8
Black
10
180.103
20
-100.406
11
180.102
21
-100.417
0
LINE
8
Black
10
180.102
20
-100.417
11
180.054
21
-100.56
0
LINE
8
Black
10
180.054
20
-100.56
11
180.052
21
-100.564
0
LINE
8
Black
10
180.052
20
-100.564
11
180.051
21
-100.568
0
LINE
8
Black
10
180.051
20
-100.568
11
180.046
21
-100.575
0
LINE
8
Black
10
180.046
20
-100.575
11
180.042
21
-100.583
0
LINE
8
Black
10
180.042
20
-100.583
11
180.038
21
-100.586
0
LINE
8
Black
10
180.038
20
-100.586
11
180.036
21
-100.59
0
LINE
8
Black
10
180.036
20
-100.59
11
179.941
21
-100.685
0
LINE
8
Black
10
179.941
20
-100.685
11
179.931
21
-100.692
0
LINE
8
Black
10
179.931
20
-100.692
11
179.921
21
-100.699
0
LINE
8
Black
10
179.921
20
-100.699
11
179.826
21
-100.747
0
LINE
8
Black
10
179.826
20
-100.747
11
179.818
21
-100.749
0
LINE
8
Black
10
179.818
20
-100.749
11
179.81
21
-100.752
0
LINE
8
Black
10
179.81
20
-100.752
11
179.62
21
-100.8
0
LINE
8
Black
10
179.62
20
-100.8
11
179.611
21
-100.8
0
LINE
8
Black
10
179.611
20
-100.8
11
179.602
21
-100.802
0
LINE
8
Black
10
179.602
20
-100.802
11
179.459
21
-100.802
0
LINE
8
Black
10
179.459
20
-100.802
11
179.45
21
-100.8
0
LINE
8
Black
10
179.45
20
-100.8
11
179.441
21
-100.8
0
LINE
8
Black
10
179.441
20
-100.8
11
179.25
21
-100.752
0
LINE
8
Black
10
179.25
20
-100.752
11
179.243
21
-100.749
0
LINE
8
Black
10
179.243
20
-100.749
11
179.235
21
-100.747
0
LINE
8
Black
10
179.235
20
-100.747
11
179.14
21
-100.699
0
LINE
8
Black
10
179.14
20
-100.699
11
179.13
21
-100.692
0
LINE
8
Black
10
179.13
20
-100.692
11
179.12
21
-100.685
0
LINE
8
Black
10
179.12
20
-100.685
11
179.025
21
-100.59
0
LINE
8
Black
10
179.025
20
-100.59
11
179.022
21
-100.586
0
LINE
8
Black
10
179.022
20
-100.586
11
179.019
21
-100.583
0
LINE
8
Black
10
179.019
20
-100.583
11
179.015
21
-100.575
0
LINE
8
Black
10
179.015
20
-100.575
11
179.01
21
-100.568
0
LINE
8
Black
10
179.01
20
-100.568
11
179.009
21
-100.564
0
LINE
8
Black
10
179.009
20
-100.564
11
179.007
21
-100.56
0
LINE
8
Black
10
179.007
20
-100.56
11
178.959
21
-100.417
0
LINE
8
Black
10
178.959
20
-100.417
11
178.957
21
-100.406
0
LINE
8
Black
10
178.957
20
-100.406
11
178.955
21
-100.394
0
LINE
8
Black
10
178.955
20
-100.394
11
178.955
21
-100.251
0
LINE
8
Black
10
178.955
20
-100.251
11
178.956
21
-100.247
0
LINE
8
Black
10
178.956
20
-100.247
11
178.956
21
-100.242
0
LINE
8
Black
10
178.956
20
-100.242
11
178.958
21
-100.234
0
LINE
8
Black
10
178.958
20
-100.234
11
178.96
21
-100.225
0
LINE
8
Black
10
178.96
20
-100.225
11
178.962
21
-100.221
0
LINE
8
Black
10
178.962
20
-100.221
11
178.963
21
-100.217
0
LINE
8
Black
10
178.963
20
-100.217
11
179.011
21
-100.122
0
LINE
8
Black
10
179.011
20
-100.122
11
179.026
21
-100.101
0
LINE
8
Black
10
179.026
20
-100.101
11
179.048
21
-100.087
0
LINE
8
Black
10
179.048
20
-100.087
11
179.074
21
-100.081
0
LINE
8
Black
10
179.074
20
-100.081
11
179.099
21
-100.084
0
LINE
8
Black
10
179.099
20
-100.084
11
179.123
21
-100.095
0
LINE
8
Black
10
179.123
20
-100.095
11
179.141
21
-100.114
0
LINE
8
Black
10
179.141
20
-100.114
11
179.151
21
-100.138
0
LINE
8
Black
10
179.151
20
-100.138
11
179.153
21
-100.164
0
LINE
8
Black
10
179.153
20
-100.164
11
179.145
21
-100.189
0
LINE
8
Black
10
179.145
20
-100.189
11
179.105
21
-100.269
0
LINE
8
Black
10
179.105
20
-100.269
11
179.105
21
-100.382
0
LINE
8
Black
10
179.105
20
-100.382
11
179.144
21
-100.496
0
LINE
8
Black
10
179.144
20
-100.496
11
179.218
21
-100.57
0
LINE
8
Black
10
179.218
20
-100.57
11
179.295
21
-100.609
0
LINE
8
Black
10
179.295
20
-100.609
11
179.468
21
-100.652
0
LINE
8
Black
10
179.468
20
-100.652
11
179.593
21
-100.652
0
LINE
8
Black
10
179.593
20
-100.652
11
179.766
21
-100.609
0
LINE
8
Black
10
179.766
20
-100.609
11
179.843
21
-100.57
0
LINE
8
Black
10
179.843
20
-100.57
11
179.917
21
-100.496
0
LINE
8
Black
10
179.917
20
-100.496
11
179.955
21
-100.382
0
LINE
8
Black
10
179.955
20
-100.382
11
179.955
21
-100.311
0
LINE
8
Black
10
179.955
20
-100.311
11
179.917
21
-100.196
0
LINE
8
Black
10
179.917
20
-100.196
11
179.904
21
-100.183
0
LINE
8
Black
10
179.904
20
-100.183
11
179.677
21
-100.183
0
LINE
8
Black
10
179.677
20
-100.183
11
179.677
21
-100.298
0
LINE
8
Black
10
179.677
20
-100.298
11
179.672
21
-100.324
0
LINE
8
Black
10
179.672
20
-100.324
11
179.659
21
-100.347
0
LINE
8
Black
10
179.659
20
-100.347
11
179.639
21
-100.363
0
LINE
8
Black
10
179.639
20
-100.363
11
179.615
21
-100.372
0
LINE
8
Black
10
179.615
20
-100.372
11
179.589
21
-100.372
0
LINE
8
Black
10
179.589
20
-100.372
11
179.564
21
-100.363
0
LINE
8
Black
10
179.564
20
-100.363
11
179.544
21
-100.347
0
LINE
8
Black
10
179.544
20
-100.347
11
179.531
21
-100.324
0
LINE
8
Black
10
179.531
20
-100.324
11
179.527
21
-100.298
0
LINE
8
Black
10
179.527
20
-100.298
11
179.527
21
-100.108
0
LINE
8
Black
10
179.527
20
-100.108
11
179.528
21
-100.102
0
LINE
8
Black
10
179.528
20
-100.102
11
179.528
21
-100.095
0
LINE
8
Black
10
179.528
20
-100.095
11
179.53
21
-100.089
0
LINE
8
Black
10
179.53
20
-100.089
11
179.531
21
-100.082
0
LINE
8
Black
10
179.531
20
-100.082
11
179.535
21
-100.077
0
LINE
8
Black
10
179.535
20
-100.077
11
179.537
21
-100.07
0
LINE
8
Black
10
179.537
20
-100.07
11
179.541
21
-100.065
0
LINE
8
Black
10
179.541
20
-100.065
11
179.544
21
-100.06
0
LINE
8
Black
10
179.544
20
-100.06
11
179.549
21
-100.056
0
LINE
8
Black
10
179.549
20
-100.056
11
179.554
21
-100.051
0
LINE
8
Black
10
179.554
20
-100.051
11
179.559
21
-100.047
0
LINE
8
Black
10
179.559
20
-100.047
11
179.564
21
-100.043
0
LINE
8
Black
10
179.564
20
-100.043
11
179.57
21
-100.041
0
LINE
8
Black
10
179.57
20
-100.041
11
179.576
21
-100.038
0
LINE
8
Black
10
179.576
20
-100.038
11
179.583
21
-100.036
0
LINE
8
Black
10
179.583
20
-100.036
11
179.589
21
-100.034
0
LINE
8
Black
10
179.589
20
-100.034
11
179.595
21
-100.034
0
LINE
8
Black
10
179.595
20
-100.034
11
179.602
21
-100.033
0
LINE
8
Black
10
179.602
20
-100.033
11
179.935
21
-100.033
0
LINE
8
Black
10
179.935
20
-100.033
11
179.938
21
-100.034
0
LINE
8
Black
10
180.037
20
-99.0342
11
180.044
21
-99.0342
0
LINE
8
Black
10
180.044
20
-99.0342
11
180.05
21
-99.0364
0
LINE
8
Black
10
180.05
20
-99.0364
11
180.056
21
-99.0375
0
LINE
8
Black
10
180.056
20
-99.0375
11
180.062
21
-99.0409
0
LINE
8
Black
10
180.062
20
-99.0409
11
180.068
21
-99.0432
0
LINE
8
Black
10
180.068
20
-99.0432
11
180.073
21
-99.0473
0
LINE
8
Black
10
180.073
20
-99.0473
11
180.079
21
-99.0505
0
LINE
8
Black
10
180.079
20
-99.0505
11
180.083
21
-99.0557
0
LINE
8
Black
10
180.083
20
-99.0557
11
180.088
21
-99.06
0
LINE
8
Black
10
180.088
20
-99.06
11
180.091
21
-99.0656
0
LINE
8
Black
10
180.091
20
-99.0656
11
180.095
21
-99.0705
0
LINE
8
Black
10
180.095
20
-99.0705
11
180.098
21
-99.0768
0
LINE
8
Black
10
180.098
20
-99.0768
11
180.101
21
-99.0827
0
LINE
8
Black
10
180.101
20
-99.0827
11
180.102
21
-99.089
0
LINE
8
Black
10
180.102
20
-99.089
11
180.104
21
-99.095
0
LINE
8
Black
10
180.104
20
-99.095
11
180.104
21
-99.1017
0
LINE
8
Black
10
180.104
20
-99.1017
11
180.105
21
-99.1083
0
LINE
8
Black
10
180.105
20
-99.1083
11
180.104
21
-99.1146
0
LINE
8
Black
10
180.104
20
-99.1146
11
180.104
21
-99.121
0
LINE
8
Black
10
180.104
20
-99.121
11
180.102
21
-99.1273
0
LINE
8
Black
10
180.102
20
-99.1273
11
180.101
21
-99.134
0
LINE
8
Black
10
180.101
20
-99.134
11
180.098
21
-99.1395
0
LINE
8
Black
10
180.098
20
-99.1395
11
180.095
21
-99.1455
0
LINE
8
Black
10
180.095
20
-99.1455
11
180.091
21
-99.1507
0
LINE
8
Black
10
180.091
20
-99.1507
11
180.088
21
-99.1565
0
LINE
8
Black
10
180.088
20
-99.1565
11
180.083
21
-99.1606
0
LINE
8
Black
10
180.083
20
-99.1606
11
180.079
21
-99.1655
0
LINE
8
Black
10
180.079
20
-99.1655
11
180.073
21
-99.1688
0
LINE
8
Black
10
180.073
20
-99.1688
11
180.068
21
-99.1731
0
LINE
8
Black
10
180.068
20
-99.1731
11
179.313
21
-99.6044
0
LINE
8
Black
10
179.313
20
-99.6044
11
180.03
21
-99.6044
0
LINE
8
Black
10
180.03
20
-99.6044
11
180.056
21
-99.609
0
LINE
8
Black
10
180.056
20
-99.609
11
180.079
21
-99.622
0
LINE
8
Black
10
180.079
20
-99.622
11
180.095
21
-99.6419
0
LINE
8
Black
10
180.095
20
-99.6419
11
180.104
21
-99.6664
0
LINE
8
Black
10
180.104
20
-99.6664
11
180.104
21
-99.6925
0
LINE
8
Black
10
180.104
20
-99.6925
11
180.095
21
-99.7169
0
LINE
8
Black
10
180.095
20
-99.7169
11
180.079
21
-99.7369
0
LINE
8
Black
10
180.079
20
-99.7369
11
180.056
21
-99.7499
0
LINE
8
Black
10
180.056
20
-99.7499
11
180.03
21
-99.7544
0
LINE
8
Black
10
180.03
20
-99.7544
11
179.03
21
-99.7544
0
LINE
8
Black
10
179.03
20
-99.7544
11
179.024
21
-99.7533
0
LINE
8
Black
10
179.024
20
-99.7533
11
179.017
21
-99.7532
0
LINE
8
Black
10
179.017
20
-99.7532
11
179.011
21
-99.751
0
LINE
8
Black
10
179.011
20
-99.751
11
179.005
21
-99.7499
0
LINE
8
Black
10
179.005
20
-99.7499
11
178.999
21
-99.7465
0
LINE
8
Black
10
178.999
20
-99.7465
11
178.993
21
-99.7442
0
LINE
8
Black
10
178.993
20
-99.7442
11
178.988
21
-99.7401
0
LINE
8
Black
10
178.988
20
-99.7401
11
178.982
21
-99.7369
0
LINE
8
Black
10
178.982
20
-99.7369
11
178.978
21
-99.7317
0
LINE
8
Black
10
178.978
20
-99.7317
11
178.973
21
-99.7274
0
LINE
8
Black
10
178.973
20
-99.7274
11
178.97
21
-99.7218
0
LINE
8
Black
10
178.97
20
-99.7218
11
178.965
21
-99.7169
0
LINE
8
Black
10
178.965
20
-99.7169
11
178.963
21
-99.7106
0
LINE
8
Black
10
178.963
20
-99.7106
11
178.96
21
-99.7048
0
LINE
8
Black
10
178.96
20
-99.7048
11
178.959
21
-99.6985
0
LINE
8
Black
10
178.959
20
-99.6985
11
178.957
21
-99.6925
0
LINE
8
Black
10
178.957
20
-99.6925
11
178.957
21
-99.6857
0
LINE
8
Black
10
178.957
20
-99.6857
11
178.955
21
-99.6791
0
LINE
8
Black
10
178.955
20
-99.6791
11
178.957
21
-99.6728
0
LINE
8
Black
10
178.957
20
-99.6728
11
178.957
21
-99.6664
0
LINE
8
Black
10
178.957
20
-99.6664
11
178.959
21
-99.6601
0
LINE
8
Black
10
178.959
20
-99.6601
11
178.96
21
-99.6535
0
LINE
8
Black
10
178.96
20
-99.6535
11
178.963
21
-99.6479
0
LINE
8
Black
10
178.963
20
-99.6479
11
178.965
21
-99.6419
0
LINE
8
Black
10
178.965
20
-99.6419
11
178.97
21
-99.6368
0
LINE
8
Black
10
178.97
20
-99.6368
11
178.973
21
-99.631
0
LINE
8
Black
10
178.973
20
-99.631
11
178.978
21
-99.6269
0
LINE
8
Black
10
178.978
20
-99.6269
11
178.982
21
-99.622
0
LINE
8
Black
10
178.982
20
-99.622
11
178.988
21
-99.6186
0
LINE
8
Black
10
178.988
20
-99.6186
11
178.993
21
-99.6143
0
LINE
8
Black
10
178.993
20
-99.6143
11
179.748
21
-99.183
0
LINE
8
Black
10
179.748
20
-99.183
11
179.03
21
-99.183
0
LINE
8
Black
10
179.03
20
-99.183
11
179.005
21
-99.1785
0
LINE
8
Black
10
179.005
20
-99.1785
11
178.982
21
-99.1655
0
LINE
8
Black
10
178.982
20
-99.1655
11
178.965
21
-99.1455
0
LINE
8
Black
10
178.965
20
-99.1455
11
178.957
21
-99.121
0
LINE
8
Black
10
178.957
20
-99.121
11
178.957
21
-99.095
0
LINE
8
Black
10
178.957
20
-99.095
11
178.965
21
-99.0705
0
LINE
8
Black
10
178.965
20
-99.0705
11
178.982
21
-99.0505
0
LINE
8
Black
10
178.982
20
-99.0505
11
179.005
21
-99.0375
0
LINE
8
Black
10
179.005
20
-99.0375
11
179.03
21
-99.033
0
LINE
8
Black
10
179.03
20
-99.033
11
180.03
21
-99.033
0
LINE
8
Black
10
180.03
20
-99.033
11
180.037
21
-99.0342
0
LINE
8
Black
10
179.611
20
-97.987
11
179.62
21
-97.9876
0
LINE
8
Black
10
179.62
20
-97.9876
11
179.81
21
-98.0352
0
LINE
8
Black
10
179.81
20
-98.0352
11
179.818
21
-98.0386
0
LINE
8
Black
10
179.818
20
-98.0386
11
179.826
21
-98.0409
0
LINE
8
Black
10
179.826
20
-98.0409
11
179.921
21
-98.0885
0
LINE
8
Black
10
179.921
20
-98.0885
11
179.931
21
-98.0957
0
LINE
8
Black
10
179.931
20
-98.0957
11
179.941
21
-98.1026
0
LINE
8
Black
10
179.941
20
-98.1026
11
180.036
21
-98.1978
0
LINE
8
Black
10
180.036
20
-98.1978
11
180.038
21
-98.2014
0
LINE
8
Black
10
180.038
20
-98.2014
11
180.042
21
-98.2042
0
LINE
8
Black
10
180.042
20
-98.2042
11
180.046
21
-98.212
0
LINE
8
Black
10
180.046
20
-98.212
11
180.051
21
-98.2192
0
LINE
8
Black
10
180.051
20
-98.2192
11
180.052
21
-98.2233
0
LINE
8
Black
10
180.052
20
-98.2233
11
180.054
21
-98.2271
0
LINE
8
Black
10
180.054
20
-98.2271
11
180.102
21
-98.37
0
LINE
8
Black
10
180.102
20
-98.37
11
180.103
21
-98.3819
0
LINE
8
Black
10
180.103
20
-98.3819
11
180.105
21
-98.3937
0
LINE
8
Black
10
180.105
20
-98.3937
11
180.105
21
-98.6318
0
LINE
8
Black
10
180.105
20
-98.6318
11
180.104
21
-98.6383
0
LINE
8
Black
10
180.104
20
-98.6383
11
180.104
21
-98.6448
0
LINE
8
Black
10
180.104
20
-98.6448
11
180.102
21
-98.651
0
LINE
8
Black
10
180.102
20
-98.651
11
180.101
21
-98.6575
0
LINE
8
Black
10
180.101
20
-98.6575
11
180.098
21
-98.6631
0
LINE
8
Black
10
180.098
20
-98.6631
11
180.095
21
-98.6693
0
LINE
8
Black
10
180.095
20
-98.6693
11
180.091
21
-98.6743
0
LINE
8
Black
10
180.091
20
-98.6743
11
180.088
21
-98.68
0
LINE
8
Black
10
180.088
20
-98.68
11
180.083
21
-98.6842
0
LINE
8
Black
10
180.083
20
-98.6842
11
180.079
21
-98.6893
0
LINE
8
Black
10
180.079
20
-98.6893
11
180.073
21
-98.6925
0
LINE
8
Black
10
180.073
20
-98.6925
11
180.068
21
-98.6968
0
LINE
8
Black
10
180.068
20
-98.6968
11
180.062
21
-98.699
0
LINE
8
Black
10
180.062
20
-98.699
11
180.056
21
-98.7023
0
LINE
8
Black
10
180.056
20
-98.7023
11
180.05
21
-98.7034
0
LINE
8
Black
10
180.05
20
-98.7034
11
180.043
21
-98.7057
0
LINE
8
Black
10
180.043
20
-98.7057
11
180.037
21
-98.7057
0
LINE
8
Black
10
180.037
20
-98.7057
11
180.03
21
-98.7068
0
LINE
8
Black
10
180.03
20
-98.7068
11
179.03
21
-98.7068
0
LINE
8
Black
10
179.03
20
-98.7068
11
179.024
21
-98.7057
0
LINE
8
Black
10
179.024
20
-98.7057
11
179.017
21
-98.7057
0
LINE
8
Black
10
179.017
20
-98.7057
11
179.011
21
-98.7034
0
LINE
8
Black
10
179.011
20
-98.7034
11
179.005
21
-98.7023
0
LINE
8
Black
10
179.005
20
-98.7023
11
178.999
21
-98.699
0
LINE
8
Black
10
178.999
20
-98.699
11
178.993
21
-98.6968
0
LINE
8
Black
10
178.993
20
-98.6968
11
178.988
21
-98.6925
0
LINE
8
Black
10
178.988
20
-98.6925
11
178.982
21
-98.6893
0
LINE
8
Black
10
178.982
20
-98.6893
11
178.978
21
-98.6842
0
LINE
8
Black
10
178.978
20
-98.6842
11
178.973
21
-98.68
0
LINE
8
Black
10
178.973
20
-98.68
11
178.97
21
-98.6743
0
LINE
8
Black
10
178.97
20
-98.6743
11
178.965
21
-98.6693
0
LINE
8
Black
10
178.965
20
-98.6693
11
178.963
21
-98.6631
0
LINE
8
Black
10
178.963
20
-98.6631
11
178.96
21
-98.6575
0
LINE
8
Black
10
178.96
20
-98.6575
11
178.959
21
-98.651
0
LINE
8
Black
10
178.959
20
-98.651
11
178.957
21
-98.6448
0
LINE
8
Black
10
178.957
20
-98.6448
11
178.957
21
-98.6383
0
LINE
8
Black
10
178.957
20
-98.6383
11
178.955
21
-98.6318
0
LINE
8
Black
10
178.955
20
-98.6318
11
178.955
21
-98.3937
0
LINE
8
Black
10
178.955
20
-98.3937
11
178.957
21
-98.3819
0
LINE
8
Black
10
178.957
20
-98.3819
11
178.959
21
-98.37
0
LINE
8
Black
10
178.959
20
-98.37
11
179.007
21
-98.2271
0
LINE
8
Black
10
179.007
20
-98.2271
11
179.009
21
-98.2233
0
LINE
8
Black
10
179.009
20
-98.2233
11
179.01
21
-98.2192
0
LINE
8
Black
10
179.01
20
-98.2192
11
179.015
21
-98.212
0
LINE
8
Black
10
179.015
20
-98.212
11
179.019
21
-98.2042
0
LINE
8
Black
10
179.019
20
-98.2042
11
179.022
21
-98.2014
0
LINE
8
Black
10
179.022
20
-98.2014
11
179.025
21
-98.1978
0
LINE
8
Black
10
179.025
20
-98.1978
11
179.12
21
-98.1026
0
LINE
8
Black
10
179.12
20
-98.1026
11
179.13
21
-98.0957
0
LINE
8
Black
10
179.13
20
-98.0957
11
179.14
21
-98.0885
0
LINE
8
Black
10
179.14
20
-98.0885
11
179.235
21
-98.0409
0
LINE
8
Black
10
179.235
20
-98.0409
11
179.243
21
-98.0386
0
LINE
8
Black
10
179.243
20
-98.0386
11
179.25
21
-98.0352
0
LINE
8
Black
10
179.25
20
-98.0352
11
179.441
21
-97.9876
0
LINE
8
Black
10
179.441
20
-97.9876
11
179.45
21
-97.987
0
LINE
8
Black
10
179.45
20
-97.987
11
179.459
21
-97.9854
0
LINE
8
Black
10
179.459
20
-97.9854
11
179.602
21
-97.9854
0
LINE
8
Black
10
179.602
20
-97.9854
11
179.611
21
-97.987
0
LINE
8
Black
10
179.468
20
-98.1354
11
179.295
21
-98.1788
0
LINE
8
Black
10
179.295
20
-98.1788
11
179.218
21
-98.2173
0
LINE
8
Black
10
179.218
20
-98.2173
11
179.144
21
-98.2914
0
LINE
8
Black
10
179.144
20
-98.2914
11
179.105
21
-98.4059
0
LINE
8
Black
10
179.105
20
-98.4059
11
179.105
21
-98.5568
0
LINE
8
Black
10
179.105
20
-98.5568
11
179.955
21
-98.5568
0
LINE
8
Black
10
179.955
20
-98.5568
11
179.955
21
-98.4059
0
LINE
8
Black
10
179.955
20
-98.4059
11
179.917
21
-98.2914
0
LINE
8
Black
10
179.917
20
-98.2914
11
179.843
21
-98.2173
0
LINE
8
Black
10
179.843
20
-98.2173
11
179.766
21
-98.1788
0
LINE
8
Black
10
179.766
20
-98.1788
11
179.593
21
-98.1354
0
LINE
8
Black
10
179.593
20
-98.1354
11
179.468
21
-98.1354
0
LINE
8
Black
10
166.156
20
-97.7466
11
166.158
21
-97.7465
0
LINE
8
Black
10
166.158
20
-97.7465
11
166.162
21
-97.7477
0
LINE
8
Black
10
166.162
20
-97.7477
11
166.166
21
-97.7485
0
LINE
8
Black
10
166.166
20
-97.7485
11
166.168
21
-97.7496
0
LINE
8
Black
10
166.168
20
-97.7496
11
166.17
21
-97.7502
0
LINE
8
Black
10
166.17
20
-97.7502
11
166.248
21
-97.7889
0
LINE
8
Black
10
166.248
20
-97.7889
11
166.253
21
-97.7926
0
LINE
8
Black
10
166.253
20
-97.7926
11
166.258
21
-97.7961
0
LINE
8
Black
10
166.258
20
-97.7961
11
166.296
21
-97.8348
0
LINE
8
Black
10
166.296
20
-97.8348
11
166.3
21
-97.8398
0
LINE
8
Black
10
166.3
20
-97.8398
11
166.304
21
-97.8447
0
LINE
8
Black
10
166.304
20
-97.8447
11
166.342
21
-97.9221
0
LINE
8
Black
10
166.342
20
-97.9221
11
166.343
21
-97.9242
0
LINE
8
Black
10
166.343
20
-97.9242
11
166.344
21
-97.9261
0
LINE
8
Black
10
166.344
20
-97.9261
11
166.345
21
-97.9305
0
LINE
8
Black
10
166.345
20
-97.9305
11
166.346
21
-97.9348
0
LINE
8
Black
10
166.346
20
-97.9348
11
166.346
21
-97.937
0
LINE
8
Black
10
166.346
20
-97.937
11
166.346
21
-97.9391
0
LINE
8
Black
10
166.346
20
-97.9391
11
166.346
21
-98.0165
0
LINE
8
Black
10
166.346
20
-98.0165
11
166.345
21
-98.0225
0
LINE
8
Black
10
166.345
20
-98.0225
11
166.344
21
-98.0286
0
LINE
8
Black
10
166.344
20
-98.0286
11
166.306
21
-98.1447
0
LINE
8
Black
10
166.306
20
-98.1447
11
166.305
21
-98.1466
0
LINE
8
Black
10
166.305
20
-98.1466
11
166.304
21
-98.1488
0
LINE
8
Black
10
166.304
20
-98.1488
11
166.301
21
-98.1524
0
LINE
8
Black
10
166.301
20
-98.1524
11
166.299
21
-98.1563
0
LINE
8
Black
10
166.299
20
-98.1563
11
166.298
21
-98.1578
0
LINE
8
Black
10
166.298
20
-98.1578
11
166.296
21
-98.1596
0
LINE
8
Black
10
166.296
20
-98.1596
11
165.897
21
-98.559
0
LINE
8
Black
10
165.897
20
-98.559
11
166.308
21
-98.559
0
LINE
8
Black
10
166.308
20
-98.559
11
166.321
21
-98.5613
0
LINE
8
Black
10
166.321
20
-98.5613
11
166.333
21
-98.5679
0
LINE
8
Black
10
166.333
20
-98.5679
11
166.341
21
-98.5781
0
LINE
8
Black
10
166.341
20
-98.5781
11
166.346
21
-98.5905
0
LINE
8
Black
10
166.346
20
-98.5905
11
166.346
21
-98.6037
0
LINE
8
Black
10
166.346
20
-98.6037
11
166.341
21
-98.6162
0
LINE
8
Black
10
166.341
20
-98.6162
11
166.333
21
-98.6263
0
LINE
8
Black
10
166.333
20
-98.6263
11
166.321
21
-98.6329
0
LINE
8
Black
10
166.321
20
-98.6329
11
166.308
21
-98.6352
0
LINE
8
Black
10
166.308
20
-98.6352
11
165.805
21
-98.6352
0
LINE
8
Black
10
165.805
20
-98.6352
11
165.8
21
-98.6344
0
LINE
8
Black
10
165.8
20
-98.6344
11
165.795
21
-98.6339
0
LINE
8
Black
10
165.795
20
-98.6339
11
165.794
21
-98.6332
0
LINE
8
Black
10
165.794
20
-98.6332
11
165.792
21
-98.6329
0
LINE
8
Black
10
165.792
20
-98.6329
11
165.788
21
-98.6304
0
LINE
8
Black
10
165.788
20
-98.6304
11
165.783
21
-98.6283
0
LINE
8
Black
10
165.783
20
-98.6283
11
165.782
21
-98.6271
0
LINE
8
Black
10
165.782
20
-98.6271
11
165.781
21
-98.6263
0
LINE
8
Black
10
165.781
20
-98.6263
11
165.777
21
-98.6225
0
LINE
8
Black
10
165.777
20
-98.6225
11
165.774
21
-98.619
0
LINE
8
Black
10
165.774
20
-98.619
11
165.773
21
-98.6174
0
LINE
8
Black
10
165.773
20
-98.6174
11
165.772
21
-98.6162
0
LINE
8
Black
10
165.772
20
-98.6162
11
165.77
21
-98.6115
0
LINE
8
Black
10
165.77
20
-98.6115
11
165.768
21
-98.607
0
LINE
8
Black
10
165.768
20
-98.607
11
165.768
21
-98.6053
0
LINE
8
Black
10
165.768
20
-98.6053
11
165.768
21
-98.6037
0
LINE
8
Black
10
165.768
20
-98.6037
11
165.768
21
-98.5988
0
LINE
8
Black
10
165.768
20
-98.5988
11
165.767
21
-98.5938
0
LINE
8
Black
10
165.767
20
-98.5938
11
165.768
21
-98.5922
0
LINE
8
Black
10
165.768
20
-98.5922
11
165.768
21
-98.5905
0
LINE
8
Black
10
165.768
20
-98.5905
11
165.769
21
-98.5858
0
LINE
8
Black
10
165.769
20
-98.5858
11
165.771
21
-98.581
0
LINE
8
Black
10
165.771
20
-98.581
11
165.771
21
-98.5796
0
LINE
8
Black
10
165.771
20
-98.5796
11
165.772
21
-98.5781
0
LINE
8
Black
10
165.772
20
-98.5781
11
165.775
21
-98.5743
0
LINE
8
Black
10
165.775
20
-98.5743
11
165.778
21
-98.5702
0
LINE
8
Black
10
165.778
20
-98.5702
11
166.236
21
-98.1121
0
LINE
8
Black
10
166.236
20
-98.1121
11
166.27
21
-98.0104
0
LINE
8
Black
10
166.27
20
-98.0104
11
166.27
21
-97.9481
0
LINE
8
Black
10
166.27
20
-97.9481
11
166.238
21
-97.8843
0
LINE
8
Black
10
166.238
20
-97.8843
11
166.208
21
-97.8543
0
LINE
8
Black
10
166.208
20
-97.8543
11
166.144
21
-97.8224
0
LINE
8
Black
10
166.144
20
-97.8224
11
165.969
21
-97.8224
0
LINE
8
Black
10
165.969
20
-97.8224
11
165.905
21
-97.8543
0
LINE
8
Black
10
165.905
20
-97.8543
11
165.871
21
-97.8887
0
LINE
8
Black
10
165.871
20
-97.8887
11
165.86
21
-97.8963
0
LINE
8
Black
10
165.86
20
-97.8963
11
165.847
21
-97.8997
0
LINE
8
Black
10
165.847
20
-97.8997
11
165.834
21
-97.8985
0
LINE
8
Black
10
165.834
20
-97.8985
11
165.822
21
-97.8929
0
LINE
8
Black
10
165.822
20
-97.8929
11
165.813
21
-97.8836
0
LINE
8
Black
10
165.813
20
-97.8836
11
165.807
21
-97.8716
0
LINE
8
Black
10
165.807
20
-97.8716
11
165.806
21
-97.8584
0
LINE
8
Black
10
165.806
20
-97.8584
11
165.809
21
-97.8456
0
LINE
8
Black
10
165.809
20
-97.8456
11
165.817
21
-97.8348
0
LINE
8
Black
10
165.817
20
-97.8348
11
165.856
21
-97.7961
0
LINE
8
Black
10
165.856
20
-97.7961
11
165.861
21
-97.7926
0
LINE
8
Black
10
165.861
20
-97.7926
11
165.865
21
-97.7889
0
LINE
8
Black
10
165.865
20
-97.7889
11
165.943
21
-97.7502
0
LINE
8
Black
10
165.943
20
-97.7502
11
165.945
21
-97.7496
0
LINE
8
Black
10
165.945
20
-97.7496
11
165.947
21
-97.7485
0
LINE
8
Black
10
165.947
20
-97.7485
11
165.951
21
-97.7477
0
LINE
8
Black
10
165.951
20
-97.7477
11
165.955
21
-97.7465
0
LINE
8
Black
10
165.955
20
-97.7465
11
165.958
21
-97.7466
0
LINE
8
Black
10
165.958
20
-97.7466
11
165.96
21
-97.7462
0
LINE
8
Black
10
165.96
20
-97.7462
11
166.153
21
-97.7462
0
LINE
8
Black
10
166.153
20
-97.7462
11
166.156
21
-97.7466
0
LINE
8
Black
10
164.495
20
-97.7473
11
164.501
21
-97.7482
0
LINE
8
Black
10
164.501
20
-97.7482
11
164.617
21
-97.7869
0
LINE
8
Black
10
164.617
20
-97.7869
11
164.629
21
-97.7932
0
LINE
8
Black
10
164.629
20
-97.7932
11
164.638
21
-97.8031
0
LINE
8
Black
10
164.638
20
-97.8031
11
164.643
21
-97.8154
0
LINE
8
Black
10
164.643
20
-97.8154
11
164.643
21
-97.8286
0
LINE
8
Black
10
164.643
20
-97.8286
11
164.639
21
-97.8412
0
LINE
8
Black
10
164.639
20
-97.8412
11
164.63
21
-97.8515
0
LINE
8
Black
10
164.63
20
-97.8515
11
164.619
21
-97.8585
0
LINE
8
Black
10
164.619
20
-97.8585
11
164.606
21
-97.8611
0
LINE
8
Black
10
164.606
20
-97.8611
11
164.593
21
-97.8592
0
LINE
8
Black
10
164.593
20
-97.8592
11
164.483
21
-97.8224
0
LINE
8
Black
10
164.483
20
-97.8224
11
164.305
21
-97.8224
0
LINE
8
Black
10
164.305
20
-97.8224
11
164.241
21
-97.8543
0
LINE
8
Black
10
164.241
20
-97.8543
11
164.211
21
-97.8843
0
LINE
8
Black
10
164.211
20
-97.8843
11
164.179
21
-97.9481
0
LINE
8
Black
10
164.179
20
-97.9481
11
164.179
21
-98.0075
0
LINE
8
Black
10
164.179
20
-98.0075
11
164.211
21
-98.0714
0
LINE
8
Black
10
164.211
20
-98.0714
11
164.241
21
-98.1013
0
LINE
8
Black
10
164.241
20
-98.1013
11
164.309
21
-98.1354
0
LINE
8
Black
10
164.309
20
-98.1354
11
164.46
21
-98.1731
0
LINE
8
Black
10
164.46
20
-98.1731
11
164.463
21
-98.1748
0
LINE
8
Black
10
164.463
20
-98.1748
11
164.467
21
-98.176
0
LINE
8
Black
10
164.467
20
-98.176
11
164.545
21
-98.2147
0
LINE
8
Black
10
164.545
20
-98.2147
11
164.55
21
-98.2183
0
LINE
8
Black
10
164.55
20
-98.2183
11
164.555
21
-98.2218
0
LINE
8
Black
10
164.555
20
-98.2218
11
164.593
21
-98.2605
0
LINE
8
Black
10
164.593
20
-98.2605
11
164.597
21
-98.2655
0
LINE
8
Black
10
164.597
20
-98.2655
11
164.601
21
-98.2704
0
LINE
8
Black
10
164.601
20
-98.2704
11
164.639
21
-98.3478
0
LINE
8
Black
10
164.639
20
-98.3478
11
164.64
21
-98.35
0
LINE
8
Black
10
164.64
20
-98.35
11
164.641
21
-98.3519
0
LINE
8
Black
10
164.641
20
-98.3519
11
164.642
21
-98.3563
0
LINE
8
Black
10
164.642
20
-98.3563
11
164.643
21
-98.3605
0
LINE
8
Black
10
164.643
20
-98.3605
11
164.643
21
-98.3627
0
LINE
8
Black
10
164.643
20
-98.3627
11
164.643
21
-98.3649
0
LINE
8
Black
10
164.643
20
-98.3649
11
164.643
21
-98.4423
0
LINE
8
Black
10
164.643
20
-98.4423
11
164.643
21
-98.4445
0
LINE
8
Black
10
164.643
20
-98.4445
11
164.643
21
-98.4467
0
LINE
8
Black
10
164.643
20
-98.4467
11
164.642
21
-98.4509
0
LINE
8
Black
10
164.642
20
-98.4509
11
164.641
21
-98.4553
0
LINE
8
Black
10
164.641
20
-98.4553
11
164.64
21
-98.4572
0
LINE
8
Black
10
164.64
20
-98.4572
11
164.639
21
-98.4593
0
LINE
8
Black
10
164.639
20
-98.4593
11
164.601
21
-98.5367
0
LINE
8
Black
10
164.601
20
-98.5367
11
164.597
21
-98.5417
0
LINE
8
Black
10
164.597
20
-98.5417
11
164.593
21
-98.5466
0
LINE
8
Black
10
164.593
20
-98.5466
11
164.555
21
-98.5854
0
LINE
8
Black
10
164.555
20
-98.5854
11
164.55
21
-98.5889
0
LINE
8
Black
10
164.55
20
-98.5889
11
164.545
21
-98.5925
0
LINE
8
Black
10
164.545
20
-98.5925
11
164.467
21
-98.6312
0
LINE
8
Black
10
164.467
20
-98.6312
11
164.465
21
-98.6318
0
LINE
8
Black
10
164.465
20
-98.6318
11
164.463
21
-98.6329
0
LINE
8
Black
10
164.463
20
-98.6329
11
164.459
21
-98.6337
0
LINE
8
Black
10
164.459
20
-98.6337
11
164.455
21
-98.635
0
LINE
8
Black
10
164.455
20
-98.635
11
164.453
21
-98.6348
0
LINE
8
Black
10
164.453
20
-98.6348
11
164.45
21
-98.6352
0
LINE
8
Black
10
164.45
20
-98.6352
11
164.257
21
-98.6352
0
LINE
8
Black
10
164.257
20
-98.6352
11
164.251
21
-98.6342
0
LINE
8
Black
10
164.251
20
-98.6342
11
164.245
21
-98.6333
0
LINE
8
Black
10
164.245
20
-98.6333
11
164.129
21
-98.5946
0
LINE
8
Black
10
164.129
20
-98.5946
11
164.117
21
-98.5883
0
LINE
8
Black
10
164.117
20
-98.5883
11
164.108
21
-98.5784
0
LINE
8
Black
10
164.108
20
-98.5784
11
164.103
21
-98.566
0
LINE
8
Black
10
164.103
20
-98.566
11
164.103
21
-98.5528
0
LINE
8
Black
10
164.103
20
-98.5528
11
164.107
21
-98.5403
0
LINE
8
Black
10
164.107
20
-98.5403
11
164.115
21
-98.5299
0
LINE
8
Black
10
164.115
20
-98.5299
11
164.127
21
-98.523
0
LINE
8
Black
10
164.127
20
-98.523
11
164.14
21
-98.5203
0
LINE
8
Black
10
164.14
20
-98.5203
11
164.153
21
-98.5223
0
LINE
8
Black
10
164.153
20
-98.5223
11
164.263
21
-98.559
0
LINE
8
Black
10
164.263
20
-98.559
11
164.441
21
-98.559
0
LINE
8
Black
10
164.441
20
-98.559
11
164.505
21
-98.5271
0
LINE
8
Black
10
164.505
20
-98.5271
11
164.535
21
-98.4971
0
LINE
8
Black
10
164.535
20
-98.4971
11
164.567
21
-98.4333
0
LINE
8
Black
10
164.567
20
-98.4333
11
164.567
21
-98.3739
0
LINE
8
Black
10
164.567
20
-98.3739
11
164.535
21
-98.31
0
LINE
8
Black
10
164.535
20
-98.31
11
164.505
21
-98.2801
0
LINE
8
Black
10
164.505
20
-98.2801
11
164.437
21
-98.246
0
LINE
8
Black
10
164.437
20
-98.246
11
164.286
21
-98.2083
0
LINE
8
Black
10
164.286
20
-98.2083
11
164.283
21
-98.2066
0
LINE
8
Black
10
164.283
20
-98.2066
11
164.279
21
-98.2054
0
LINE
8
Black
10
164.279
20
-98.2054
11
164.201
21
-98.1667
0
LINE
8
Black
10
164.201
20
-98.1667
11
164.196
21
-98.1631
0
LINE
8
Black
10
164.196
20
-98.1631
11
164.191
21
-98.1596
0
LINE
8
Black
10
164.191
20
-98.1596
11
164.152
21
-98.1209
0
LINE
8
Black
10
164.152
20
-98.1209
11
164.149
21
-98.1159
0
LINE
8
Black
10
164.149
20
-98.1159
11
164.145
21
-98.111
0
LINE
8
Black
10
164.145
20
-98.111
11
164.107
21
-98.0336
0
LINE
8
Black
10
164.107
20
-98.0336
11
164.106
21
-98.0315
0
LINE
8
Black
10
164.106
20
-98.0315
11
164.105
21
-98.0296
0
LINE
8
Black
10
164.105
20
-98.0296
11
164.104
21
-98.0252
0
LINE
8
Black
10
164.104
20
-98.0252
11
164.103
21
-98.0209
0
LINE
8
Black
10
164.103
20
-98.0209
11
164.103
21
-98.0187
0
LINE
8
Black
10
164.103
20
-98.0187
11
164.103
21
-98.0165
0
LINE
8
Black
10
164.103
20
-98.0165
11
164.103
21
-97.9391
0
LINE
8
Black
10
164.103
20
-97.9391
11
164.103
21
-97.937
0
LINE
8
Black
10
164.103
20
-97.937
11
164.103
21
-97.9348
0
LINE
8
Black
10
164.103
20
-97.9348
11
164.104
21
-97.9305
0
LINE
8
Black
10
164.104
20
-97.9305
11
164.105
21
-97.9261
0
LINE
8
Black
10
164.105
20
-97.9261
11
164.106
21
-97.9242
0
LINE
8
Black
10
164.106
20
-97.9242
11
164.107
21
-97.9221
0
LINE
8
Black
10
164.107
20
-97.9221
11
164.145
21
-97.8447
0
LINE
8
Black
10
164.145
20
-97.8447
11
164.149
21
-97.8398
0
LINE
8
Black
10
164.149
20
-97.8398
11
164.152
21
-97.8348
0
LINE
8
Black
10
164.152
20
-97.8348
11
164.191
21
-97.7961
0
LINE
8
Black
10
164.191
20
-97.7961
11
164.196
21
-97.7926
0
LINE
8
Black
10
164.196
20
-97.7926
11
164.201
21
-97.7889
0
LINE
8
Black
10
164.201
20
-97.7889
11
164.279
21
-97.7502
0
LINE
8
Black
10
164.279
20
-97.7502
11
164.281
21
-97.7496
0
LINE
8
Black
10
164.281
20
-97.7496
11
164.283
21
-97.7485
0
LINE
8
Black
10
164.283
20
-97.7485
11
164.287
21
-97.7477
0
LINE
8
Black
10
164.287
20
-97.7477
11
164.291
21
-97.7465
0
LINE
8
Black
10
164.291
20
-97.7465
11
164.293
21
-97.7466
0
LINE
8
Black
10
164.293
20
-97.7466
11
164.296
21
-97.7462
0
LINE
8
Black
10
164.296
20
-97.7462
11
164.489
21
-97.7462
0
LINE
8
Black
10
164.489
20
-97.7462
11
164.495
21
-97.7473
0
LINE
8
Black
10
165.588
20
-97.7493
11
165.599
21
-97.7566
0
LINE
8
Black
10
165.599
20
-97.7566
11
165.607
21
-97.7673
0
LINE
8
Black
10
165.607
20
-97.7673
11
165.611
21
-97.7799
0
LINE
8
Black
10
165.611
20
-97.7799
11
165.61
21
-97.7931
0
LINE
8
Black
10
165.61
20
-97.7931
11
165.416
21
-98.6059
0
LINE
8
Black
10
165.416
20
-98.6059
11
165.415
21
-98.6095
0
LINE
8
Black
10
165.415
20
-98.6095
11
165.414
21
-98.6133
0
LINE
8
Black
10
165.414
20
-98.6133
11
165.412
21
-98.6155
0
LINE
8
Black
10
165.412
20
-98.6155
11
165.411
21
-98.6181
0
LINE
8
Black
10
165.411
20
-98.6181
11
165.408
21
-98.6209
0
LINE
8
Black
10
165.408
20
-98.6209
11
165.406
21
-98.6241
0
LINE
8
Black
10
165.406
20
-98.6241
11
165.404
21
-98.6257
0
LINE
8
Black
10
165.404
20
-98.6257
11
165.402
21
-98.6277
0
LINE
8
Black
10
165.402
20
-98.6277
11
165.399
21
-98.6294
0
LINE
8
Black
10
165.399
20
-98.6294
11
165.395
21
-98.6317
0
LINE
8
Black
10
165.395
20
-98.6317
11
165.393
21
-98.6324
0
LINE
8
Black
10
165.393
20
-98.6324
11
165.39
21
-98.6336
0
LINE
8
Black
10
165.39
20
-98.6336
11
165.386
21
-98.6341
0
LINE
8
Black
10
165.386
20
-98.6341
11
165.383
21
-98.6351
0
LINE
8
Black
10
165.383
20
-98.6351
11
165.38
21
-98.6348
0
LINE
8
Black
10
165.38
20
-98.6348
11
165.377
21
-98.6351
0
LINE
8
Black
10
165.377
20
-98.6351
11
165.373
21
-98.6342
0
LINE
8
Black
10
165.373
20
-98.6342
11
165.369
21
-98.6339
0
LINE
8
Black
10
165.369
20
-98.6339
11
165.367
21
-98.6327
0
LINE
8
Black
10
165.367
20
-98.6327
11
165.364
21
-98.6321
0
LINE
8
Black
10
165.364
20
-98.6321
11
165.361
21
-98.6299
0
LINE
8
Black
10
165.361
20
-98.6299
11
165.357
21
-98.6283
0
LINE
8
Black
10
165.357
20
-98.6283
11
165.355
21
-98.6263
0
LINE
8
Black
10
165.355
20
-98.6263
11
165.353
21
-98.6248
0
LINE
8
Black
10
165.353
20
-98.6248
11
165.351
21
-98.6217
0
LINE
8
Black
10
165.351
20
-98.6217
11
165.348
21
-98.6189
0
LINE
8
Black
10
165.348
20
-98.6189
11
165.347
21
-98.6164
0
LINE
8
Black
10
165.347
20
-98.6164
11
165.345
21
-98.6142
0
LINE
8
Black
10
165.345
20
-98.6142
11
165.344
21
-98.6105
0
LINE
8
Black
10
165.344
20
-98.6105
11
165.342
21
-98.6069
0
LINE
8
Black
10
165.342
20
-98.6069
11
165.224
21
-98.1644
0
LINE
8
Black
10
165.224
20
-98.1644
11
165.106
21
-98.6069
0
LINE
8
Black
10
165.106
20
-98.6069
11
165.105
21
-98.6105
0
LINE
8
Black
10
165.105
20
-98.6105
11
165.104
21
-98.6142
0
LINE
8
Black
10
165.104
20
-98.6142
11
165.102
21
-98.6164
0
LINE
8
Black
10
165.102
20
-98.6164
11
165.101
21
-98.6189
0
LINE
8
Black
10
165.101
20
-98.6189
11
165.098
21
-98.6217
0
LINE
8
Black
10
165.098
20
-98.6217
11
165.096
21
-98.6248
0
LINE
8
Black
10
165.096
20
-98.6248
11
165.093
21
-98.6263
0
LINE
8
Black
10
165.093
20
-98.6263
11
165.092
21
-98.6283
0
LINE
8
Black
10
165.092
20
-98.6283
11
165.088
21
-98.6299
0
LINE
8
Black
10
165.088
20
-98.6299
11
165.085
21
-98.6321
0
LINE
8
Black
10
165.085
20
-98.6321
11
165.082
21
-98.6327
0
LINE
8
Black
10
165.082
20
-98.6327
11
165.08
21
-98.6339
0
LINE
8
Black
10
165.08
20
-98.6339
11
165.076
21
-98.6342
0
LINE
8
Black
10
165.076
20
-98.6342
11
165.072
21
-98.6351
0
LINE
8
Black
10
165.072
20
-98.6351
11
165.069
21
-98.6348
0
LINE
8
Black
10
165.069
20
-98.6348
11
165.066
21
-98.6351
0
LINE
8
Black
10
165.066
20
-98.6351
11
165.063
21
-98.6341
0
LINE
8
Black
10
165.063
20
-98.6341
11
165.059
21
-98.6336
0
LINE
8
Black
10
165.059
20
-98.6336
11
165.056
21
-98.6324
0
LINE
8
Black
10
165.056
20
-98.6324
11
165.054
21
-98.6317
0
LINE
8
Black
10
165.054
20
-98.6317
11
165.05
21
-98.6294
0
LINE
8
Black
10
165.05
20
-98.6294
11
165.047
21
-98.6277
0
LINE
8
Black
10
165.047
20
-98.6277
11
165.045
21
-98.6257
0
LINE
8
Black
10
165.045
20
-98.6257
11
165.043
21
-98.6241
0
LINE
8
Black
10
165.043
20
-98.6241
11
165.04
21
-98.6209
0
LINE
8
Black
10
165.04
20
-98.6209
11
165.038
21
-98.6181
0
LINE
8
Black
10
165.038
20
-98.6181
11
165.037
21
-98.6155
0
LINE
8
Black
10
165.037
20
-98.6155
11
165.035
21
-98.6133
0
LINE
8
Black
10
165.035
20
-98.6133
11
165.034
21
-98.6095
0
LINE
8
Black
10
165.034
20
-98.6095
11
165.033
21
-98.6059
0
LINE
8
Black
10
165.033
20
-98.6059
11
164.839
21
-97.7931
0
LINE
8
Black
10
164.839
20
-97.7931
11
164.838
21
-97.7799
0
LINE
8
Black
10
164.838
20
-97.7799
11
164.842
21
-97.7673
0
LINE
8
Black
10
164.842
20
-97.7673
11
164.85
21
-97.7566
0
LINE
8
Black
10
164.85
20
-97.7566
11
164.861
21
-97.7493
0
LINE
8
Black
10
164.861
20
-97.7493
11
164.874
21
-97.7463
0
LINE
8
Black
10
164.874
20
-97.7463
11
164.887
21
-97.7478
0
LINE
8
Black
10
164.887
20
-97.7478
11
164.899
21
-97.7537
0
LINE
8
Black
10
164.899
20
-97.7537
11
164.908
21
-97.7633
0
LINE
8
Black
10
164.908
20
-97.7633
11
164.913
21
-97.7755
0
LINE
8
Black
10
164.913
20
-97.7755
11
165.072
21
-98.4414
0
LINE
8
Black
10
165.072
20
-98.4414
11
165.188
21
-98.0067
0
LINE
8
Black
10
165.188
20
-98.0067
11
165.189
21
-98.0037
0
LINE
8
Black
10
165.189
20
-98.0037
11
165.19
21
-98.0004
0
LINE
8
Black
10
165.19
20
-98.0004
11
165.192
21
-97.9977
0
LINE
8
Black
10
165.192
20
-97.9977
11
165.193
21
-97.9947
0
LINE
8
Black
10
165.193
20
-97.9947
11
165.196
21
-97.9923
0
LINE
8
Black
10
165.196
20
-97.9923
11
165.198
21
-97.9896
0
LINE
8
Black
10
165.198
20
-97.9896
11
165.2
21
-97.9877
0
LINE
8
Black
10
165.2
20
-97.9877
11
165.203
21
-97.9854
0
LINE
8
Black
10
165.203
20
-97.9854
11
165.206
21
-97.9839
0
LINE
8
Black
10
165.206
20
-97.9839
11
165.208
21
-97.982
0
LINE
8
Black
10
165.208
20
-97.982
11
165.212
21
-97.9811
0
LINE
8
Black
10
165.212
20
-97.9811
11
165.215
21
-97.9798
0
LINE
8
Black
10
165.215
20
-97.9798
11
165.218
21
-97.9795
0
LINE
8
Black
10
165.218
20
-97.9795
11
165.221
21
-97.9786
0
LINE
8
Black
10
165.221
20
-97.9786
11
165.224
21
-97.9789
0
LINE
8
Black
10
165.224
20
-97.9789
11
165.228
21
-97.9786
0
LINE
8
Black
10
165.228
20
-97.9786
11
165.231
21
-97.9795
0
LINE
8
Black
10
165.231
20
-97.9795
11
165.234
21
-97.9798
0
LINE
8
Black
10
165.234
20
-97.9798
11
165.237
21
-97.9811
0
LINE
8
Black
10
165.237
20
-97.9811
11
165.241
21
-97.982
0
LINE
8
Black
10
165.241
20
-97.982
11
165.243
21
-97.9839
0
LINE
8
Black
10
165.243
20
-97.9839
11
165.246
21
-97.9854
0
LINE
8
Black
10
165.246
20
-97.9854
11
165.249
21
-97.9877
0
LINE
8
Black
10
165.249
20
-97.9877
11
165.251
21
-97.9896
0
LINE
8
Black
10
165.251
20
-97.9896
11
165.253
21
-97.9923
0
LINE
8
Black
10
165.253
20
-97.9923
11
165.256
21
-97.9947
0
LINE
8
Black
10
165.256
20
-97.9947
11
165.257
21
-97.9977
0
LINE
8
Black
10
165.257
20
-97.9977
11
165.259
21
-98.0004
0
LINE
8
Black
10
165.259
20
-98.0004
11
165.26
21
-98.0037
0
LINE
8
Black
10
165.26
20
-98.0037
11
165.261
21
-98.0067
0
LINE
8
Black
10
165.261
20
-98.0067
11
165.377
21
-98.4414
0
LINE
8
Black
10
165.377
20
-98.4414
11
165.536
21
-97.7755
0
LINE
8
Black
10
165.536
20
-97.7755
11
165.541
21
-97.7633
0
LINE
8
Black
10
165.541
20
-97.7633
11
165.55
21
-97.7537
0
LINE
8
Black
10
165.55
20
-97.7537
11
165.562
21
-97.7478
0
LINE
8
Black
10
165.562
20
-97.7478
11
165.575
21
-97.7463
0
LINE
8
Black
10
165.575
20
-97.7463
11
165.588
21
-97.7493
0
LINE
8
Black
10
150.782
20
-97.7143
11
150.788
21
-97.7151
0
LINE
8
Black
10
150.788
20
-97.7151
11
150.904
21
-97.7539
0
LINE
8
Black
10
150.904
20
-97.7539
11
150.915
21
-97.7602
0
LINE
8
Black
10
150.915
20
-97.7602
11
150.924
21
-97.7701
0
LINE
8
Black
10
150.924
20
-97.7701
11
150.929
21
-97.7824
0
LINE
8
Black
10
150.929
20
-97.7824
11
150.929
21
-97.7956
0
LINE
8
Black
10
150.929
20
-97.7956
11
150.925
21
-97.8081
0
LINE
8
Black
10
150.925
20
-97.8081
11
150.917
21
-97.8185
0
LINE
8
Black
10
150.917
20
-97.8185
11
150.906
21
-97.8254
0
LINE
8
Black
10
150.906
20
-97.8254
11
150.893
21
-97.8281
0
LINE
8
Black
10
150.893
20
-97.8281
11
150.88
21
-97.8261
0
LINE
8
Black
10
150.88
20
-97.8261
11
150.769
21
-97.7894
0
LINE
8
Black
10
150.769
20
-97.7894
11
150.591
21
-97.7894
0
LINE
8
Black
10
150.591
20
-97.7894
11
150.527
21
-97.8213
0
LINE
8
Black
10
150.527
20
-97.8213
11
150.497
21
-97.8513
0
LINE
8
Black
10
150.497
20
-97.8513
11
150.465
21
-97.9151
0
LINE
8
Black
10
150.465
20
-97.9151
11
150.465
21
-97.9745
0
LINE
8
Black
10
150.465
20
-97.9745
11
150.497
21
-98.0384
0
LINE
8
Black
10
150.497
20
-98.0384
11
150.527
21
-98.0683
0
LINE
8
Black
10
150.527
20
-98.0683
11
150.595
21
-98.1024
0
LINE
8
Black
10
150.595
20
-98.1024
11
150.746
21
-98.1401
0
LINE
8
Black
10
150.746
20
-98.1401
11
150.75
21
-98.1418
0
LINE
8
Black
10
150.75
20
-98.1418
11
150.754
21
-98.143
0
LINE
8
Black
10
150.754
20
-98.143
11
150.831
21
-98.1817
0
LINE
8
Black
10
150.831
20
-98.1817
11
150.836
21
-98.1853
0
LINE
8
Black
10
150.836
20
-98.1853
11
150.841
21
-98.1888
0
LINE
8
Black
10
150.841
20
-98.1888
11
150.88
21
-98.2275
0
LINE
8
Black
10
150.88
20
-98.2275
11
150.883
21
-98.2325
0
LINE
8
Black
10
150.883
20
-98.2325
11
150.887
21
-98.2374
0
LINE
8
Black
10
150.887
20
-98.2374
11
150.926
21
-98.3148
0
LINE
8
Black
10
150.926
20
-98.3148
11
150.926
21
-98.3169
0
LINE
8
Black
10
150.926
20
-98.3169
11
150.928
21
-98.3188
0
LINE
8
Black
10
150.928
20
-98.3188
11
150.928
21
-98.3232
0
LINE
8
Black
10
150.928
20
-98.3232
11
150.93
21
-98.3275
0
LINE
8
Black
10
150.93
20
-98.3275
11
150.929
21
-98.3297
0
LINE
8
Black
10
150.929
20
-98.3297
11
150.93
21
-98.3319
0
LINE
8
Black
10
150.93
20
-98.3319
11
150.93
21
-98.4093
0
LINE
8
Black
10
150.93
20
-98.4093
11
150.929
21
-98.4114
0
LINE
8
Black
10
150.929
20
-98.4114
11
150.93
21
-98.4136
0
LINE
8
Black
10
150.93
20
-98.4136
11
150.928
21
-98.4179
0
LINE
8
Black
10
150.928
20
-98.4179
11
150.928
21
-98.4223
0
LINE
8
Black
10
150.928
20
-98.4223
11
150.926
21
-98.4242
0
LINE
8
Black
10
150.926
20
-98.4242
11
150.926
21
-98.4263
0
LINE
8
Black
10
150.926
20
-98.4263
11
150.887
21
-98.5037
0
LINE
8
Black
10
150.887
20
-98.5037
11
150.883
21
-98.5086
0
LINE
8
Black
10
150.883
20
-98.5086
11
150.88
21
-98.5136
0
LINE
8
Black
10
150.88
20
-98.5136
11
150.841
21
-98.5523
0
LINE
8
Black
10
150.841
20
-98.5523
11
150.836
21
-98.5558
0
LINE
8
Black
10
150.836
20
-98.5558
11
150.831
21
-98.5595
0
LINE
8
Black
10
150.831
20
-98.5595
11
150.754
21
-98.5982
0
LINE
8
Black
10
150.754
20
-98.5982
11
150.752
21
-98.5988
0
LINE
8
Black
10
150.752
20
-98.5988
11
150.75
21
-98.5999
0
LINE
8
Black
10
150.75
20
-98.5999
11
150.746
21
-98.6007
0
LINE
8
Black
10
150.746
20
-98.6007
11
150.741
21
-98.6019
0
LINE
8
Black
10
150.741
20
-98.6019
11
150.739
21
-98.6018
0
LINE
8
Black
10
150.739
20
-98.6018
11
150.737
21
-98.6022
0
LINE
8
Black
10
150.737
20
-98.6022
11
150.543
21
-98.6022
0
LINE
8
Black
10
150.543
20
-98.6022
11
150.537
21
-98.6011
0
LINE
8
Black
10
150.537
20
-98.6011
11
150.531
21
-98.6002
0
LINE
8
Black
10
150.531
20
-98.6002
11
150.415
21
-98.5615
0
LINE
8
Black
10
150.415
20
-98.5615
11
150.404
21
-98.5552
0
LINE
8
Black
10
150.404
20
-98.5552
11
150.395
21
-98.5453
0
LINE
8
Black
10
150.395
20
-98.5453
11
150.39
21
-98.533
0
LINE
8
Black
10
150.39
20
-98.533
11
150.39
21
-98.5198
0
LINE
8
Black
10
150.39
20
-98.5198
11
150.394
21
-98.5072
0
LINE
8
Black
10
150.394
20
-98.5072
11
150.402
21
-98.4969
0
LINE
8
Black
10
150.402
20
-98.4969
11
150.413
21
-98.49
0
LINE
8
Black
10
150.413
20
-98.49
11
150.426
21
-98.4873
0
LINE
8
Black
10
150.426
20
-98.4873
11
150.439
21
-98.4892
0
LINE
8
Black
10
150.439
20
-98.4892
11
150.55
21
-98.526
0
LINE
8
Black
10
150.55
20
-98.526
11
150.728
21
-98.526
0
LINE
8
Black
10
150.728
20
-98.526
11
150.792
21
-98.4941
0
LINE
8
Black
10
150.792
20
-98.4941
11
150.822
21
-98.4641
0
LINE
8
Black
10
150.822
20
-98.4641
11
150.854
21
-98.4003
0
LINE
8
Black
10
150.854
20
-98.4003
11
150.854
21
-98.3409
0
LINE
8
Black
10
150.854
20
-98.3409
11
150.822
21
-98.277
0
LINE
8
Black
10
150.822
20
-98.277
11
150.792
21
-98.2471
0
LINE
8
Black
10
150.792
20
-98.2471
11
150.724
21
-98.213
0
LINE
8
Black
10
150.724
20
-98.213
11
150.573
21
-98.1753
0
LINE
8
Black
10
150.573
20
-98.1753
11
150.569
21
-98.1736
0
LINE
8
Black
10
150.569
20
-98.1736
11
150.565
21
-98.1724
0
LINE
8
Black
10
150.565
20
-98.1724
11
150.488
21
-98.1337
0
LINE
8
Black
10
150.488
20
-98.1337
11
150.483
21
-98.1301
0
LINE
8
Black
10
150.483
20
-98.1301
11
150.478
21
-98.1266
0
LINE
8
Black
10
150.478
20
-98.1266
11
150.439
21
-98.0879
0
LINE
8
Black
10
150.439
20
-98.0879
11
150.436
21
-98.0829
0
LINE
8
Black
10
150.436
20
-98.0829
11
150.432
21
-98.078
0
LINE
8
Black
10
150.432
20
-98.078
11
150.393
21
-98.0006
0
LINE
8
Black
10
150.393
20
-98.0006
11
150.393
21
-97.9985
0
LINE
8
Black
10
150.393
20
-97.9985
11
150.391
21
-97.9966
0
LINE
8
Black
10
150.391
20
-97.9966
11
150.391
21
-97.9922
0
LINE
8
Black
10
150.391
20
-97.9922
11
150.389
21
-97.9879
0
LINE
8
Black
10
150.389
20
-97.9879
11
150.39
21
-97.9857
0
LINE
8
Black
10
150.39
20
-97.9857
11
150.389
21
-97.9835
0
LINE
8
Black
10
150.389
20
-97.9835
11
150.389
21
-97.9061
0
LINE
8
Black
10
150.389
20
-97.9061
11
150.39
21
-97.9039
0
LINE
8
Black
10
150.39
20
-97.9039
11
150.389
21
-97.9018
0
LINE
8
Black
10
150.389
20
-97.9018
11
150.391
21
-97.8975
0
LINE
8
Black
10
150.391
20
-97.8975
11
150.391
21
-97.8931
0
LINE
8
Black
10
150.391
20
-97.8931
11
150.393
21
-97.8912
0
LINE
8
Black
10
150.393
20
-97.8912
11
150.393
21
-97.8891
0
LINE
8
Black
10
150.393
20
-97.8891
11
150.432
21
-97.8117
0
LINE
8
Black
10
150.432
20
-97.8117
11
150.436
21
-97.8068
0
LINE
8
Black
10
150.436
20
-97.8068
11
150.439
21
-97.8018
0
LINE
8
Black
10
150.439
20
-97.8018
11
150.478
21
-97.7631
0
LINE
8
Black
10
150.478
20
-97.7631
11
150.483
21
-97.7596
0
LINE
8
Black
10
150.483
20
-97.7596
11
150.488
21
-97.7559
0
LINE
8
Black
10
150.488
20
-97.7559
11
150.565
21
-97.7172
0
LINE
8
Black
10
150.565
20
-97.7172
11
150.567
21
-97.7166
0
LINE
8
Black
10
150.567
20
-97.7166
11
150.569
21
-97.7155
0
LINE
8
Black
10
150.569
20
-97.7155
11
150.573
21
-97.7147
0
LINE
8
Black
10
150.573
20
-97.7147
11
150.578
21
-97.7134
0
LINE
8
Black
10
150.578
20
-97.7134
11
150.58
21
-97.7136
0
LINE
8
Black
10
150.58
20
-97.7136
11
150.582
21
-97.7132
0
LINE
8
Black
10
150.582
20
-97.7132
11
150.776
21
-97.7132
0
LINE
8
Black
10
150.776
20
-97.7132
11
150.782
21
-97.7143
0
LINE
8
Black
10
152.367
20
-97.7138
11
152.369
21
-97.7138
0
LINE
8
Black
10
152.369
20
-97.7138
11
152.373
21
-97.7153
0
LINE
8
Black
10
152.373
20
-97.7153
11
152.378
21
-97.7164
0
LINE
8
Black
10
152.378
20
-97.7164
11
152.38
21
-97.7176
0
LINE
8
Black
10
152.38
20
-97.7176
11
152.382
21
-97.7183
0
LINE
8
Black
10
152.382
20
-97.7183
11
152.385
21
-97.7212
0
LINE
8
Black
10
152.385
20
-97.7212
11
152.389
21
-97.7237
0
LINE
8
Black
10
152.389
20
-97.7237
11
152.39
21
-97.7254
0
LINE
8
Black
10
152.39
20
-97.7254
11
152.392
21
-97.7268
0
LINE
8
Black
10
152.392
20
-97.7268
11
152.394
21
-97.7307
0
LINE
8
Black
10
152.394
20
-97.7307
11
152.397
21
-97.7344
0
LINE
8
Black
10
152.397
20
-97.7344
11
152.397
21
-97.7364
0
LINE
8
Black
10
152.397
20
-97.7364
11
152.398
21
-97.7383
0
LINE
8
Black
10
152.398
20
-97.7383
11
152.399
21
-97.7427
0
LINE
8
Black
10
152.399
20
-97.7427
11
152.4
21
-97.7471
0
LINE
8
Black
10
152.4
20
-97.7471
11
152.4
21
-97.7492
0
LINE
8
Black
10
152.4
20
-97.7492
11
152.401
21
-97.7513
0
LINE
8
Black
10
152.401
20
-97.7513
11
152.401
21
-98.526
0
LINE
8
Black
10
152.401
20
-98.526
11
152.595
21
-98.526
0
LINE
8
Black
10
152.595
20
-98.526
11
152.608
21
-98.5283
0
LINE
8
Black
10
152.608
20
-98.5283
11
152.619
21
-98.5349
0
LINE
8
Black
10
152.619
20
-98.5349
11
152.628
21
-98.545
0
LINE
8
Black
10
152.628
20
-98.545
11
152.632
21
-98.5575
0
LINE
8
Black
10
152.632
20
-98.5575
11
152.632
21
-98.5707
0
LINE
8
Black
10
152.632
20
-98.5707
11
152.628
21
-98.5831
0
LINE
8
Black
10
152.628
20
-98.5831
11
152.619
21
-98.5933
0
LINE
8
Black
10
152.619
20
-98.5933
11
152.608
21
-98.5999
0
LINE
8
Black
10
152.608
20
-98.5999
11
152.595
21
-98.6022
0
LINE
8
Black
10
152.595
20
-98.6022
11
152.13
21
-98.6022
0
LINE
8
Black
10
152.13
20
-98.6022
11
152.117
21
-98.5999
0
LINE
8
Black
10
152.117
20
-98.5999
11
152.106
21
-98.5933
0
LINE
8
Black
10
152.106
20
-98.5933
11
152.097
21
-98.5831
0
LINE
8
Black
10
152.097
20
-98.5831
11
152.093
21
-98.5707
0
LINE
8
Black
10
152.093
20
-98.5707
11
152.093
21
-98.5575
0
LINE
8
Black
10
152.093
20
-98.5575
11
152.097
21
-98.545
0
LINE
8
Black
10
152.097
20
-98.545
11
152.106
21
-98.5349
0
LINE
8
Black
10
152.106
20
-98.5349
11
152.117
21
-98.5283
0
LINE
8
Black
10
152.117
20
-98.5283
11
152.13
21
-98.526
0
LINE
8
Black
10
152.13
20
-98.526
11
152.324
21
-98.526
0
LINE
8
Black
10
152.324
20
-98.526
11
152.324
21
-97.8771
0
LINE
8
Black
10
152.324
20
-97.8771
11
152.317
21
-97.8885
0
LINE
8
Black
10
152.317
20
-97.8885
11
152.314
21
-97.8913
0
LINE
8
Black
10
152.314
20
-97.8913
11
152.312
21
-97.8944
0
LINE
8
Black
10
152.312
20
-97.8944
11
152.235
21
-97.9718
0
LINE
8
Black
10
152.235
20
-97.9718
11
152.23
21
-97.9753
0
LINE
8
Black
10
152.23
20
-97.9753
11
152.225
21
-97.9789
0
LINE
8
Black
10
152.225
20
-97.9789
11
152.147
21
-98.0176
0
LINE
8
Black
10
152.147
20
-98.0176
11
152.135
21
-98.0214
0
LINE
8
Black
10
152.135
20
-98.0214
11
152.121
21
-98.0206
0
LINE
8
Black
10
152.121
20
-98.0206
11
152.109
21
-98.0153
0
LINE
8
Black
10
152.109
20
-98.0153
11
152.1
21
-98.0062
0
LINE
8
Black
10
152.1
20
-98.0062
11
152.094
21
-97.9944
0
LINE
8
Black
10
152.094
20
-97.9944
11
152.092
21
-97.9812
0
LINE
8
Black
10
152.092
20
-97.9812
11
152.095
21
-97.9684
0
LINE
8
Black
10
152.095
20
-97.9684
11
152.103
21
-97.9573
0
LINE
8
Black
10
152.103
20
-97.9573
11
152.113
21
-97.9494
0
LINE
8
Black
10
152.113
20
-97.9494
11
152.185
21
-97.9135
0
LINE
8
Black
10
152.185
20
-97.9135
11
152.255
21
-97.8431
0
LINE
8
Black
10
152.255
20
-97.8431
11
152.331
21
-97.7302
0
LINE
8
Black
10
152.331
20
-97.7302
11
152.332
21
-97.7286
0
LINE
8
Black
10
152.332
20
-97.7286
11
152.333
21
-97.7268
0
LINE
8
Black
10
152.333
20
-97.7268
11
152.337
21
-97.7239
0
LINE
8
Black
10
152.337
20
-97.7239
11
152.34
21
-97.7206
0
LINE
8
Black
10
152.34
20
-97.7206
11
152.342
21
-97.7197
0
LINE
8
Black
10
152.342
20
-97.7197
11
152.343
21
-97.7183
0
LINE
8
Black
10
152.343
20
-97.7183
11
152.348
21
-97.7167
0
LINE
8
Black
10
152.348
20
-97.7167
11
152.352
21
-97.7147
0
LINE
8
Black
10
152.352
20
-97.7147
11
152.354
21
-97.7145
0
LINE
8
Black
10
152.354
20
-97.7145
11
152.356
21
-97.7138
0
LINE
8
Black
10
152.356
20
-97.7138
11
152.36
21
-97.7138
0
LINE
8
Black
10
152.36
20
-97.7138
11
152.365
21
-97.7133
0
LINE
8
Black
10
152.365
20
-97.7133
11
152.367
21
-97.7138
0
LINE
8
Black
10
151.874
20
-97.7163
11
151.886
21
-97.7236
0
LINE
8
Black
10
151.886
20
-97.7236
11
151.893
21
-97.7342
0
LINE
8
Black
10
151.893
20
-97.7342
11
151.897
21
-97.7469
0
LINE
8
Black
10
151.897
20
-97.7469
11
151.896
21
-97.7601
0
LINE
8
Black
10
151.896
20
-97.7601
11
151.703
21
-98.5729
0
LINE
8
Black
10
151.703
20
-98.5729
11
151.701
21
-98.5765
0
LINE
8
Black
10
151.701
20
-98.5765
11
151.7
21
-98.5802
0
LINE
8
Black
10
151.7
20
-98.5802
11
151.699
21
-98.5825
0
LINE
8
Black
10
151.699
20
-98.5825
11
151.698
21
-98.5851
0
LINE
8
Black
10
151.698
20
-98.5851
11
151.695
21
-98.5879
0
LINE
8
Black
10
151.695
20
-98.5879
11
151.693
21
-98.5911
0
LINE
8
Black
10
151.693
20
-98.5911
11
151.69
21
-98.5927
0
LINE
8
Black
10
151.69
20
-98.5927
11
151.689
21
-98.5947
0
LINE
8
Black
10
151.689
20
-98.5947
11
151.685
21
-98.5964
0
LINE
8
Black
10
151.685
20
-98.5964
11
151.682
21
-98.5986
0
LINE
8
Black
10
151.682
20
-98.5986
11
151.679
21
-98.5994
0
LINE
8
Black
10
151.679
20
-98.5994
11
151.677
21
-98.6006
0
LINE
8
Black
10
151.677
20
-98.6006
11
151.673
21
-98.6011
0
LINE
8
Black
10
151.673
20
-98.6011
11
151.669
21
-98.6021
0
LINE
8
Black
10
151.669
20
-98.6021
11
151.666
21
-98.6018
0
LINE
8
Black
10
151.666
20
-98.6018
11
151.664
21
-98.6021
0
LINE
8
Black
10
151.664
20
-98.6021
11
151.66
21
-98.6012
0
LINE
8
Black
10
151.66
20
-98.6012
11
151.656
21
-98.6009
0
LINE
8
Black
10
151.656
20
-98.6009
11
151.653
21
-98.5997
0
LINE
8
Black
10
151.653
20
-98.5997
11
151.651
21
-98.5991
0
LINE
8
Black
10
151.651
20
-98.5991
11
151.647
21
-98.5969
0
LINE
8
Black
10
151.647
20
-98.5969
11
151.644
21
-98.5953
0
LINE
8
Black
10
151.644
20
-98.5953
11
151.642
21
-98.5933
0
LINE
8
Black
10
151.642
20
-98.5933
11
151.64
21
-98.5918
0
LINE
8
Black
10
151.64
20
-98.5918
11
151.637
21
-98.5887
0
LINE
8
Black
10
151.637
20
-98.5887
11
151.635
21
-98.5859
0
LINE
8
Black
10
151.635
20
-98.5859
11
151.633
21
-98.5834
0
LINE
8
Black
10
151.633
20
-98.5834
11
151.632
21
-98.5812
0
LINE
8
Black
10
151.632
20
-98.5812
11
151.631
21
-98.5774
0
LINE
8
Black
10
151.631
20
-98.5774
11
151.629
21
-98.5739
0
LINE
8
Black
10
151.629
20
-98.5739
11
151.511
21
-98.1314
0
LINE
8
Black
10
151.511
20
-98.1314
11
151.393
21
-98.5739
0
LINE
8
Black
10
151.393
20
-98.5739
11
151.391
21
-98.5774
0
LINE
8
Black
10
151.391
20
-98.5774
11
151.39
21
-98.5812
0
LINE
8
Black
10
151.39
20
-98.5812
11
151.389
21
-98.5834
0
LINE
8
Black
10
151.389
20
-98.5834
11
151.387
21
-98.5859
0
LINE
8
Black
10
151.387
20
-98.5859
11
151.385
21
-98.5887
0
LINE
8
Black
10
151.385
20
-98.5887
11
151.382
21
-98.5918
0
LINE
8
Black
10
151.382
20
-98.5918
11
151.38
21
-98.5933
0
LINE
8
Black
10
151.38
20
-98.5933
11
151.378
21
-98.5953
0
LINE
8
Black
10
151.378
20
-98.5953
11
151.375
21
-98.5969
0
LINE
8
Black
10
151.375
20
-98.5969
11
151.371
21
-98.5991
0
LINE
8
Black
10
151.371
20
-98.5991
11
151.369
21
-98.5997
0
LINE
8
Black
10
151.369
20
-98.5997
11
151.366
21
-98.6009
0
LINE
8
Black
10
151.366
20
-98.6009
11
151.362
21
-98.6012
0
LINE
8
Black
10
151.362
20
-98.6012
11
151.358
21
-98.6021
0
LINE
8
Black
10
151.358
20
-98.6021
11
151.356
21
-98.6018
0
LINE
8
Black
10
151.356
20
-98.6018
11
151.353
21
-98.6021
0
LINE
8
Black
10
151.353
20
-98.6021
11
151.349
21
-98.6011
0
LINE
8
Black
10
151.349
20
-98.6011
11
151.345
21
-98.6006
0
LINE
8
Black
10
151.345
20
-98.6006
11
151.343
21
-98.5994
0
LINE
8
Black
10
151.343
20
-98.5994
11
151.34
21
-98.5986
0
LINE
8
Black
10
151.34
20
-98.5986
11
151.337
21
-98.5964
0
LINE
8
Black
10
151.337
20
-98.5964
11
151.333
21
-98.5947
0
LINE
8
Black
10
151.333
20
-98.5947
11
151.332
21
-98.5927
0
LINE
8
Black
10
151.332
20
-98.5927
11
151.329
21
-98.5911
0
LINE
8
Black
10
151.329
20
-98.5911
11
151.327
21
-98.5879
0
LINE
8
Black
10
151.327
20
-98.5879
11
151.324
21
-98.5851
0
LINE
8
Black
10
151.324
20
-98.5851
11
151.323
21
-98.5825
0
LINE
8
Black
10
151.323
20
-98.5825
11
151.322
21
-98.5802
0
LINE
8
Black
10
151.322
20
-98.5802
11
151.321
21
-98.5765
0
LINE
8
Black
10
151.321
20
-98.5765
11
151.319
21
-98.5729
0
LINE
8
Black
10
151.319
20
-98.5729
11
151.126
21
-97.7601
0
LINE
8
Black
10
151.126
20
-97.7601
11
151.125
21
-97.7469
0
LINE
8
Black
10
151.125
20
-97.7469
11
151.129
21
-97.7342
0
LINE
8
Black
10
151.129
20
-97.7342
11
151.136
21
-97.7236
0
LINE
8
Black
10
151.136
20
-97.7236
11
151.148
21
-97.7163
0
LINE
8
Black
10
151.148
20
-97.7163
11
151.16
21
-97.7133
0
LINE
8
Black
10
151.16
20
-97.7133
11
151.174
21
-97.7148
0
LINE
8
Black
10
151.174
20
-97.7148
11
151.185
21
-97.7207
0
LINE
8
Black
10
151.185
20
-97.7207
11
151.194
21
-97.7303
0
LINE
8
Black
10
151.194
20
-97.7303
11
151.2
21
-97.7425
0
LINE
8
Black
10
151.2
20
-97.7425
11
151.358
21
-98.4084
0
LINE
8
Black
10
151.358
20
-98.4084
11
151.474
21
-97.9737
0
LINE
8
Black
10
151.474
20
-97.9737
11
151.476
21
-97.9706
0
LINE
8
Black
10
151.476
20
-97.9706
11
151.476
21
-97.9674
0
LINE
8
Black
10
151.476
20
-97.9674
11
151.478
21
-97.9647
0
LINE
8
Black
10
151.478
20
-97.9647
11
151.48
21
-97.9617
0
LINE
8
Black
10
151.48
20
-97.9617
11
151.482
21
-97.9593
0
LINE
8
Black
10
151.482
20
-97.9593
11
151.484
21
-97.9566
0
LINE
8
Black
10
151.484
20
-97.9566
11
151.487
21
-97.9547
0
LINE
8
Black
10
151.487
20
-97.9547
11
151.489
21
-97.9523
0
LINE
8
Black
10
151.489
20
-97.9523
11
151.492
21
-97.9509
0
LINE
8
Black
10
151.492
20
-97.9509
11
151.495
21
-97.949
0
LINE
8
Black
10
151.495
20
-97.949
11
151.498
21
-97.9481
0
LINE
8
Black
10
151.498
20
-97.9481
11
151.501
21
-97.9467
0
LINE
8
Black
10
151.501
20
-97.9467
11
151.504
21
-97.9464
0
LINE
8
Black
10
151.504
20
-97.9464
11
151.508
21
-97.9456
0
LINE
8
Black
10
151.508
20
-97.9456
11
151.511
21
-97.9459
0
LINE
8
Black
10
151.511
20
-97.9459
11
151.514
21
-97.9456
0
LINE
8
Black
10
151.514
20
-97.9456
11
151.518
21
-97.9464
0
LINE
8
Black
10
151.518
20
-97.9464
11
151.521
21
-97.9467
0
LINE
8
Black
10
151.521
20
-97.9467
11
151.524
21
-97.9481
0
LINE
8
Black
10
151.524
20
-97.9481
11
151.527
21
-97.949
0
LINE
8
Black
10
151.527
20
-97.949
11
151.53
21
-97.9509
0
LINE
8
Black
10
151.53
20
-97.9509
11
151.533
21
-97.9523
0
LINE
8
Black
10
151.533
20
-97.9523
11
151.535
21
-97.9547
0
LINE
8
Black
10
151.535
20
-97.9547
11
151.538
21
-97.9566
0
LINE
8
Black
10
151.538
20
-97.9566
11
151.54
21
-97.9593
0
LINE
8
Black
10
151.54
20
-97.9593
11
151.542
21
-97.9617
0
LINE
8
Black
10
151.542
20
-97.9617
11
151.544
21
-97.9647
0
LINE
8
Black
10
151.544
20
-97.9647
11
151.546
21
-97.9674
0
LINE
8
Black
10
151.546
20
-97.9674
11
151.546
21
-97.9706
0
LINE
8
Black
10
151.546
20
-97.9706
11
151.548
21
-97.9737
0
LINE
8
Black
10
151.548
20
-97.9737
11
151.664
21
-98.4084
0
LINE
8
Black
10
151.664
20
-98.4084
11
151.822
21
-97.7425
0
LINE
8
Black
10
151.822
20
-97.7425
11
151.828
21
-97.7303
0
LINE
8
Black
10
151.828
20
-97.7303
11
151.837
21
-97.7207
0
LINE
8
Black
10
151.837
20
-97.7207
11
151.848
21
-97.7148
0
LINE
8
Black
10
151.848
20
-97.7148
11
151.862
21
-97.7133
0
LINE
8
Black
10
151.862
20
-97.7133
11
151.874
21
-97.7163
0
LINE
8
Black
10
162.481
20
-99.982
11
162.481
21
-99.5756
0
LINE
8
Black
10
161.465
20
-99.982
11
161.465
21
-99.5756
0
ARC
8
Black
10
161.973
20
-99.5756
40
0.508
50
360
51
540
0
ARC
8
Black
10
161.973
20
-99.982
40
0.508
50
180
51
360
0
LINE
8
Black
10
168.984
20
-99.982
11
168.984
21
-99.5756
0
LINE
8
Black
10
167.968
20
-99.982
11
167.968
21
-99.5756
0
ARC
8
Black
10
168.476
20
-99.5756
40
0.508
50
360
51
540
0
ARC
8
Black
10
168.476
20
-99.982
40
0.508
50
180
51
360
0
LINE
8
Black
10
162.481
20
-104.503
11
162.481
21
-104.097
0
LINE
8
Black
10
161.465
20
-104.503
11
161.465
21
-104.097
0
ARC
8
Black
10
161.973
20
-104.097
40
0.508
50
360
51
540
0
ARC
8
Black
10
161.973
20
-104.503
40
0.508
50
180
51
360
0
LINE
8
Black
10
168.984
20
-104.503
11
168.984
21
-104.097
0
LINE
8
Black
10
167.968
20
-104.503
11
167.968
21
-104.097
0
ARC
8
Black
10
168.476
20
-104.097
40
0.508
50
360
51
540
0
ARC
8
Black
10
168.476
20
-104.503
40
0.508
50
180
51
360
0
CIRCLE
8
Black
10
182.118
20
-104.648
40
0.508
0
CIRCLE
8
Black
10
182.118
20
-102.108
40
0.508
0
CIRCLE
8
Black
10
182.118
20
-99.568
40
0.508
0
LINE
8
Black
10
148.768
20
-99.949
11
148.768
21
-99.5426
0
LINE
8
Black
10
147.752
20
-99.949
11
147.752
21
-99.5426
0
ARC
8
Black
10
148.26
20
-99.5426
40
0.508
50
360
51
540
0
ARC
8
Black
10
148.26
20
-99.949
40
0.508
50
180
51
360
0
LINE
8
Black
10
155.27
20
-99.949
11
155.27
21
-99.5426
0
LINE
8
Black
10
154.254
20
-99.949
11
154.254
21
-99.5426
0
ARC
8
Black
10
154.762
20
-99.5426
40
0.508
50
360
51
540
0
ARC
8
Black
10
154.762
20
-99.949
40
0.508
50
180
51
360
0
LINE
8
Black
10
148.768
20
-104.47
11
148.768
21
-104.064
0
LINE
8
Black
10
147.752
20
-104.47
11
147.752
21
-104.064
0
ARC
8
Black
10
148.26
20
-104.064
40
0.508
50
360
51
540
0
ARC
8
Black
10
148.26
20
-104.47
40
0.508
50
180
51
360
0
LINE
8
Black
10
155.27
20
-104.47
11
155.27
21
-104.064
0
LINE
8
Black
10
154.254
20
-104.47
11
154.254
21
-104.064
0
ARC
8
Black
10
154.762
20
-104.064
40
0.508
50
360
51
540
0
ARC
8
Black
10
154.762
20
-104.47
40
0.508
50
180
51
360
0
CIRCLE
8
Black
10
174.244
20
-102.108
40
1.35
0
CIRCLE
8
Black
10
143.256
20
-102.108
40
1.35
  0
ENDSEC
  0
EOF
