  0
SECTION
  2
HEADER
  9
$ANGBASE
  50
0.0
  9
$ANGDIR
  70
  1
  9
$MEASUREMENT
  70
0
  0
ENDSEC
  0
SECTION
  2
TABLES
  0
TABLE
  2
LTYPE
  70
1
  0
LTYPE
  2
CONTINUOUS
  70
0
  3
Solid line
  72
65
  73
0
  40
0.0
  0
ENDTAB
  0
TABLE
  2
STYLE
  70
4
  0
STYLE
  2
KICAD
  70
0
  40
0
  41
1
  42
1
  50
0
  71
0
  3
isocp.shx
  0
STYLE
  2
KICADB
  70
0
  40
0
  41
1
  42
1
  50
0
  71
0
  3
isocp.shx
  0
STYLE
  2
KICADI
  70
0
  40
0
  41
1
  42
1
  50
15
  71
0
  3
isocp.shx
  0
STYLE
  2
KICADBI
  70
0
  40
0
  41
1
  42
1
  50
15
  71
0
  3
isocp.shx
  0
ENDTAB
  0
TABLE
  2
LAYER
  70
30
  0
LAYER
  2
BLACK
  70
0
  62
7
  6
CONTINUOUS
  0
LAYER
  2
GRAY1
  70
0
  62
251
  6
CONTINUOUS
  0
LAYER
  2
GRAY2
  70
0
  62
8
  6
CONTINUOUS
  0
LAYER
  2
GRAY3
  70
0
  62
9
  6
CONTINUOUS
  0
LAYER
  2
WHITE
  70
0
  62
7
  6
CONTINUOUS
  0
LAYER
  2
LYELLOW
  70
0
  62
51
  6
CONTINUOUS
  0
LAYER
  2
BLUE1
  70
0
  62
178
  6
CONTINUOUS
  0
LAYER
  2
GREEN1
  70
0
  62
98
  6
CONTINUOUS
  0
LAYER
  2
CYAN1
  70
0
  62
138
  6
CONTINUOUS
  0
LAYER
  2
RED1
  70
0
  62
18
  6
CONTINUOUS
  0
LAYER
  2
MAGENTA1
  70
0
  62
228
  6
CONTINUOUS
  0
LAYER
  2
BROWN1
  70
0
  62
58
  6
CONTINUOUS
  0
LAYER
  2
BLUE2
  70
0
  62
5
  6
CONTINUOUS
  0
LAYER
  2
GREEN2
  70
0
  62
3
  6
CONTINUOUS
  0
LAYER
  2
CYAN2
  70
0
  62
4
  6
CONTINUOUS
  0
LAYER
  2
RED2
  70
0
  62
1
  6
CONTINUOUS
  0
LAYER
  2
MAGENTA2
  70
0
  62
6
  6
CONTINUOUS
  0
LAYER
  2
BROWN2
  70
0
  62
54
  6
CONTINUOUS
  0
LAYER
  2
BLUE3
  70
0
  62
171
  6
CONTINUOUS
  0
LAYER
  2
GREEN3
  70
0
  62
91
  6
CONTINUOUS
  0
LAYER
  2
CYAN3
  70
0
  62
131
  6
CONTINUOUS
  0
LAYER
  2
RED3
  70
0
  62
11
  6
CONTINUOUS
  0
LAYER
  2
MAGENTA3
  70
0
  62
221
  6
CONTINUOUS
  0
LAYER
  2
YELLOW3
  70
0
  62
2
  6
CONTINUOUS
  0
LAYER
  2
BLUE4
  70
0
  62
5
  6
CONTINUOUS
  0
LAYER
  2
GREEN4
  70
0
  62
3
  6
CONTINUOUS
  0
LAYER
  2
CYAN4
  70
0
  62
4
  6
CONTINUOUS
  0
LAYER
  2
RED4
  70
0
  62
1
  6
CONTINUOUS
  0
LAYER
  2
MAGENTA4
  70
0
  62
6
  6
CONTINUOUS
  0
LAYER
  2
YELLOW4
  70
0
  62
2
  6
CONTINUOUS
  0
ENDTAB
  0
ENDSEC
  0
SECTION
  2
ENTITIES
0
LINE
8
Black
10
139.694
20
-108.786
11
139.687
21
-108.786
0
LINE
8
Black
10
139.687
20
-108.786
11
139.681
21
-108.784
0
LINE
8
Black
10
139.681
20
-108.784
11
139.674
21
-108.782
0
LINE
8
Black
10
139.674
20
-108.782
11
139.669
21
-108.779
0
LINE
8
Black
10
139.669
20
-108.779
11
139.662
21
-108.777
0
LINE
8
Black
10
139.662
20
-108.777
11
139.657
21
-108.773
0
LINE
8
Black
10
139.657
20
-108.773
11
139.652
21
-108.769
0
LINE
8
Black
10
139.652
20
-108.769
11
139.648
21
-108.764
0
LINE
8
Black
10
139.648
20
-108.764
11
139.643
21
-108.76
0
LINE
8
Black
10
139.643
20
-108.76
11
139.639
21
-108.755
0
LINE
8
Black
10
139.639
20
-108.755
11
139.635
21
-108.749
0
LINE
8
Black
10
139.635
20
-108.749
11
139.633
21
-108.743
0
LINE
8
Black
10
139.633
20
-108.743
11
139.63
21
-108.738
0
LINE
8
Black
10
139.63
20
-108.738
11
139.628
21
-108.731
0
LINE
8
Black
10
139.628
20
-108.731
11
139.626
21
-108.725
0
LINE
8
Black
10
139.626
20
-108.725
11
139.626
21
-108.718
0
LINE
8
Black
10
139.626
20
-108.718
11
139.625
21
-108.712
0
LINE
8
Black
10
139.625
20
-108.712
11
139.625
21
-97.282
0
LINE
8
Black
10
139.625
20
-97.282
11
139.626
21
-97.2755
0
LINE
8
Black
10
139.626
20
-97.2755
11
139.626
21
-97.269
0
LINE
8
Black
10
139.626
20
-97.269
11
139.628
21
-97.2628
0
LINE
8
Black
10
139.628
20
-97.2628
11
139.63
21
-97.2563
0
LINE
8
Black
10
139.63
20
-97.2563
11
139.633
21
-97.2507
0
LINE
8
Black
10
139.633
20
-97.2507
11
139.635
21
-97.2445
0
LINE
8
Black
10
139.635
20
-97.2445
11
139.639
21
-97.2395
0
LINE
8
Black
10
139.639
20
-97.2395
11
139.643
21
-97.2338
0
LINE
8
Black
10
139.643
20
-97.2338
11
139.648
21
-97.2296
0
LINE
8
Black
10
139.648
20
-97.2296
11
139.652
21
-97.2245
0
LINE
8
Black
10
139.652
20
-97.2245
11
139.657
21
-97.2213
0
LINE
8
Black
10
139.657
20
-97.2213
11
139.662
21
-97.217
0
LINE
8
Black
10
139.662
20
-97.217
11
139.669
21
-97.2148
0
LINE
8
Black
10
139.669
20
-97.2148
11
139.674
21
-97.2115
0
LINE
8
Black
10
139.674
20
-97.2115
11
139.681
21
-97.2104
0
LINE
8
Black
10
139.681
20
-97.2104
11
139.687
21
-97.2081
0
LINE
8
Black
10
139.687
20
-97.2081
11
139.694
21
-97.2081
0
LINE
8
Black
10
139.694
20
-97.2081
11
139.7
21
-97.207
0
LINE
8
Black
10
139.7
20
-97.207
11
184.404
21
-97.207
0
LINE
8
Black
10
184.404
20
-97.207
11
184.41
21
-97.2081
0
LINE
8
Black
10
184.41
20
-97.2081
11
184.417
21
-97.2081
0
LINE
8
Black
10
184.417
20
-97.2081
11
184.423
21
-97.2104
0
LINE
8
Black
10
184.423
20
-97.2104
11
184.43
21
-97.2115
0
LINE
8
Black
10
184.43
20
-97.2115
11
184.435
21
-97.2148
0
LINE
8
Black
10
184.435
20
-97.2148
11
184.441
21
-97.217
0
LINE
8
Black
10
184.441
20
-97.217
11
184.447
21
-97.2213
0
LINE
8
Black
10
184.447
20
-97.2213
11
184.452
21
-97.2245
0
LINE
8
Black
10
184.452
20
-97.2245
11
184.456
21
-97.2296
0
LINE
8
Black
10
184.456
20
-97.2296
11
184.461
21
-97.2338
0
LINE
8
Black
10
184.461
20
-97.2338
11
184.465
21
-97.2395
0
LINE
8
Black
10
184.465
20
-97.2395
11
184.469
21
-97.2445
0
LINE
8
Black
10
184.469
20
-97.2445
11
184.471
21
-97.2507
0
LINE
8
Black
10
184.471
20
-97.2507
11
184.474
21
-97.2563
0
LINE
8
Black
10
184.474
20
-97.2563
11
184.476
21
-97.2628
0
LINE
8
Black
10
184.476
20
-97.2628
11
184.478
21
-97.269
0
LINE
8
Black
10
184.478
20
-97.269
11
184.478
21
-97.2755
0
LINE
8
Black
10
184.478
20
-97.2755
11
184.479
21
-97.282
0
LINE
8
Black
10
184.479
20
-97.282
11
184.479
21
-108.712
0
LINE
8
Black
10
184.479
20
-108.712
11
184.478
21
-108.718
0
LINE
8
Black
10
184.478
20
-108.718
11
184.478
21
-108.725
0
LINE
8
Black
10
184.478
20
-108.725
11
184.476
21
-108.731
0
LINE
8
Black
10
184.476
20
-108.731
11
184.474
21
-108.738
0
LINE
8
Black
10
184.474
20
-108.738
11
184.471
21
-108.743
0
LINE
8
Black
10
184.471
20
-108.743
11
184.469
21
-108.749
0
LINE
8
Black
10
184.469
20
-108.749
11
184.465
21
-108.755
0
LINE
8
Black
10
184.465
20
-108.755
11
184.461
21
-108.76
0
LINE
8
Black
10
184.461
20
-108.76
11
184.456
21
-108.764
0
LINE
8
Black
10
184.456
20
-108.764
11
184.452
21
-108.769
0
LINE
8
Black
10
184.452
20
-108.769
11
184.447
21
-108.773
0
LINE
8
Black
10
184.447
20
-108.773
11
184.441
21
-108.777
0
LINE
8
Black
10
184.441
20
-108.777
11
184.435
21
-108.779
0
LINE
8
Black
10
184.435
20
-108.779
11
184.43
21
-108.782
0
LINE
8
Black
10
184.43
20
-108.782
11
184.423
21
-108.784
0
LINE
8
Black
10
184.423
20
-108.784
11
184.417
21
-108.786
0
LINE
8
Black
10
184.417
20
-108.786
11
184.41
21
-108.786
0
LINE
8
Black
10
184.41
20
-108.786
11
184.404
21
-108.787
0
LINE
8
Black
10
184.404
20
-108.787
11
139.7
21
-108.787
0
LINE
8
Black
10
139.7
20
-108.787
11
139.694
21
-108.786
0
LINE
8
Black
10
184.329
20
-97.357
11
139.775
21
-97.357
0
LINE
8
Black
10
139.775
20
-97.357
11
139.775
21
-108.637
0
LINE
8
Black
10
139.775
20
-108.637
11
184.329
21
-108.637
0
LINE
8
Black
10
184.329
20
-108.637
11
184.329
21
-97.357
  0
ENDSEC
  0
EOF
