  0
SECTION
  2
HEADER
  9
$ANGBASE
  50
0.0
  9
$ANGDIR
  70
  1
  9
$MEASUREMENT
  70
0
  0
ENDSEC
  0
SECTION
  2
TABLES
  0
TABLE
  2
LTYPE
  70
1
  0
LTYPE
  2
CONTINUOUS
  70
0
  3
Solid line
  72
65
  73
0
  40
0.0
  0
ENDTAB
  0
TABLE
  2
STYLE
  70
4
  0
STYLE
  2
KICAD
  70
0
  40
0
  41
1
  42
1
  50
0
  71
0
  3
isocp.shx
  0
STYLE
  2
KICADB
  70
0
  40
0
  41
1
  42
1
  50
0
  71
0
  3
isocp.shx
  0
STYLE
  2
KICADI
  70
0
  40
0
  41
1
  42
1
  50
15
  71
0
  3
isocp.shx
  0
STYLE
  2
KICADBI
  70
0
  40
0
  41
1
  42
1
  50
15
  71
0
  3
isocp.shx
  0
ENDTAB
  0
TABLE
  2
LAYER
  70
30
  0
LAYER
  2
BLACK
  70
0
  62
7
  6
CONTINUOUS
  0
LAYER
  2
GRAY1
  70
0
  62
251
  6
CONTINUOUS
  0
LAYER
  2
GRAY2
  70
0
  62
8
  6
CONTINUOUS
  0
LAYER
  2
GRAY3
  70
0
  62
9
  6
CONTINUOUS
  0
LAYER
  2
WHITE
  70
0
  62
7
  6
CONTINUOUS
  0
LAYER
  2
LYELLOW
  70
0
  62
51
  6
CONTINUOUS
  0
LAYER
  2
BLUE1
  70
0
  62
178
  6
CONTINUOUS
  0
LAYER
  2
GREEN1
  70
0
  62
98
  6
CONTINUOUS
  0
LAYER
  2
CYAN1
  70
0
  62
138
  6
CONTINUOUS
  0
LAYER
  2
RED1
  70
0
  62
18
  6
CONTINUOUS
  0
LAYER
  2
MAGENTA1
  70
0
  62
228
  6
CONTINUOUS
  0
LAYER
  2
BROWN1
  70
0
  62
58
  6
CONTINUOUS
  0
LAYER
  2
BLUE2
  70
0
  62
5
  6
CONTINUOUS
  0
LAYER
  2
GREEN2
  70
0
  62
3
  6
CONTINUOUS
  0
LAYER
  2
CYAN2
  70
0
  62
4
  6
CONTINUOUS
  0
LAYER
  2
RED2
  70
0
  62
1
  6
CONTINUOUS
  0
LAYER
  2
MAGENTA2
  70
0
  62
6
  6
CONTINUOUS
  0
LAYER
  2
BROWN2
  70
0
  62
54
  6
CONTINUOUS
  0
LAYER
  2
BLUE3
  70
0
  62
171
  6
CONTINUOUS
  0
LAYER
  2
GREEN3
  70
0
  62
91
  6
CONTINUOUS
  0
LAYER
  2
CYAN3
  70
0
  62
131
  6
CONTINUOUS
  0
LAYER
  2
RED3
  70
0
  62
11
  6
CONTINUOUS
  0
LAYER
  2
MAGENTA3
  70
0
  62
221
  6
CONTINUOUS
  0
LAYER
  2
YELLOW3
  70
0
  62
2
  6
CONTINUOUS
  0
LAYER
  2
BLUE4
  70
0
  62
5
  6
CONTINUOUS
  0
LAYER
  2
GREEN4
  70
0
  62
3
  6
CONTINUOUS
  0
LAYER
  2
CYAN4
  70
0
  62
4
  6
CONTINUOUS
  0
LAYER
  2
RED4
  70
0
  62
1
  6
CONTINUOUS
  0
LAYER
  2
MAGENTA4
  70
0
  62
6
  6
CONTINUOUS
  0
LAYER
  2
YELLOW4
  70
0
  62
2
  6
CONTINUOUS
  0
ENDTAB
  0
ENDSEC
  0
SECTION
  2
ENTITIES
0
LINE
8
Black
10
168.195
20
-98.9542
11
168.2
21
-98.9542
0
LINE
8
Black
10
168.2
20
-98.9542
11
168.204
21
-98.9556
0
LINE
8
Black
10
168.204
20
-98.9556
11
168.208
21
-98.9564
0
LINE
8
Black
10
168.208
20
-98.9564
11
168.212
21
-98.9585
0
LINE
8
Black
10
168.212
20
-98.9585
11
168.216
21
-98.96
0
LINE
8
Black
10
168.216
20
-98.96
11
168.219
21
-98.9628
0
LINE
8
Black
10
168.219
20
-98.9628
11
168.223
21
-98.965
0
LINE
8
Black
10
168.223
20
-98.965
11
168.226
21
-98.9683
0
LINE
8
Black
10
168.226
20
-98.9683
11
168.229
21
-98.9711
0
LINE
8
Black
10
168.229
20
-98.9711
11
168.232
21
-98.9749
0
LINE
8
Black
10
168.232
20
-98.9749
11
168.235
21
-98.9782
0
LINE
8
Black
10
168.235
20
-98.9782
11
168.236
21
-98.9823
0
LINE
8
Black
10
168.236
20
-98.9823
11
168.238
21
-98.9861
0
LINE
8
Black
10
168.238
20
-98.9861
11
168.239
21
-98.9904
0
LINE
8
Black
10
168.239
20
-98.9904
11
168.241
21
-98.9945
0
LINE
8
Black
10
168.241
20
-98.9945
11
168.241
21
-98.9989
0
LINE
8
Black
10
168.241
20
-98.9989
11
168.241
21
-99.0032
0
LINE
8
Black
10
168.241
20
-99.0032
11
168.273
21
-105.003
0
LINE
8
Black
10
168.273
20
-105.003
11
168.272
21
-105.008
0
LINE
8
Black
10
168.272
20
-105.008
11
168.272
21
-105.012
0
LINE
8
Black
10
168.272
20
-105.012
11
168.271
21
-105.016
0
LINE
8
Black
10
168.271
20
-105.016
11
168.27
21
-105.02
0
LINE
8
Black
10
168.27
20
-105.02
11
168.268
21
-105.024
0
LINE
8
Black
10
168.268
20
-105.024
11
168.266
21
-105.028
0
LINE
8
Black
10
168.266
20
-105.028
11
168.263
21
-105.032
0
LINE
8
Black
10
168.263
20
-105.032
11
168.261
21
-105.035
0
LINE
8
Black
10
168.261
20
-105.035
11
168.258
21
-105.038
0
LINE
8
Black
10
168.258
20
-105.038
11
168.255
21
-105.042
0
LINE
8
Black
10
168.255
20
-105.042
11
168.251
21
-105.044
0
LINE
8
Black
10
168.251
20
-105.044
11
168.248
21
-105.047
0
LINE
8
Black
10
168.248
20
-105.047
11
168.244
21
-105.048
0
LINE
8
Black
10
168.244
20
-105.048
11
168.24
21
-105.05
0
LINE
8
Black
10
168.24
20
-105.05
11
168.236
21
-105.051
0
LINE
8
Black
10
168.236
20
-105.051
11
168.232
21
-105.053
0
LINE
8
Black
10
168.232
20
-105.053
11
168.227
21
-105.053
0
LINE
8
Black
10
168.227
20
-105.053
11
168.223
21
-105.054
0
LINE
8
Black
10
168.223
20
-105.054
11
162.223
21
-105.085
0
LINE
8
Black
10
162.223
20
-105.085
11
162.219
21
-105.084
0
LINE
8
Black
10
162.219
20
-105.084
11
162.215
21
-105.084
0
LINE
8
Black
10
162.215
20
-105.084
11
162.211
21
-105.083
0
LINE
8
Black
10
162.211
20
-105.083
11
162.206
21
-105.082
0
LINE
8
Black
10
162.206
20
-105.082
11
162.203
21
-105.08
0
LINE
8
Black
10
162.203
20
-105.08
11
162.198
21
-105.078
0
LINE
8
Black
10
162.198
20
-105.078
11
162.195
21
-105.075
0
LINE
8
Black
10
162.195
20
-105.075
11
162.191
21
-105.073
0
LINE
8
Black
10
162.191
20
-105.073
11
162.188
21
-105.07
0
LINE
8
Black
10
162.188
20
-105.07
11
162.185
21
-105.067
0
LINE
8
Black
10
162.185
20
-105.067
11
162.183
21
-105.063
0
LINE
8
Black
10
162.183
20
-105.063
11
162.18
21
-105.06
0
LINE
8
Black
10
162.18
20
-105.06
11
162.179
21
-105.056
0
LINE
8
Black
10
162.179
20
-105.056
11
162.176
21
-105.052
0
LINE
8
Black
10
162.176
20
-105.052
11
162.176
21
-105.048
0
LINE
8
Black
10
162.176
20
-105.048
11
162.174
21
-105.044
0
LINE
8
Black
10
162.174
20
-105.044
11
162.174
21
-105.039
0
LINE
8
Black
10
162.174
20
-105.039
11
162.173
21
-105.035
0
LINE
8
Black
10
162.173
20
-105.035
11
162.142
21
-99.035
0
LINE
8
Black
10
162.142
20
-99.035
11
162.142
21
-99.0307
0
LINE
8
Black
10
162.142
20
-99.0307
11
162.142
21
-99.0263
0
LINE
8
Black
10
162.142
20
-99.0263
11
162.144
21
-99.0222
0
LINE
8
Black
10
162.144
20
-99.0222
11
162.145
21
-99.0179
0
LINE
8
Black
10
162.145
20
-99.0179
11
162.147
21
-99.0141
0
LINE
8
Black
10
162.147
20
-99.0141
11
162.148
21
-99.01
0
LINE
8
Black
10
162.148
20
-99.01
11
162.151
21
-99.0066
0
LINE
8
Black
10
162.151
20
-99.0066
11
162.153
21
-99.0028
0
LINE
8
Black
10
162.153
20
-99.0028
11
162.157
21
-99
0
LINE
8
Black
10
162.157
20
-99
11
162.159
21
-98.9966
0
LINE
8
Black
10
162.159
20
-98.9966
11
162.163
21
-98.9944
0
LINE
8
Black
10
162.163
20
-98.9944
11
162.166
21
-98.9916
0
LINE
8
Black
10
162.166
20
-98.9916
11
162.171
21
-98.9901
0
LINE
8
Black
10
162.171
20
-98.9901
11
162.174
21
-98.9878
0
LINE
8
Black
10
162.174
20
-98.9878
11
162.179
21
-98.9871
0
LINE
8
Black
10
162.179
20
-98.9871
11
162.183
21
-98.9855
0
LINE
8
Black
10
162.183
20
-98.9855
11
162.187
21
-98.9855
0
LINE
8
Black
10
162.187
20
-98.9855
11
162.191
21
-98.9847
0
LINE
8
Black
10
162.191
20
-98.9847
11
168.191
21
-98.9534
0
LINE
8
Black
10
168.191
20
-98.9534
11
168.195
21
-98.9542
0
LINE
8
Black
10
162.242
20
-99.0845
11
162.273
21
-104.985
0
LINE
8
Black
10
162.273
20
-104.985
11
168.173
21
-104.954
0
LINE
8
Black
10
168.173
20
-104.954
11
168.142
21
-99.0537
0
LINE
8
Black
10
168.142
20
-99.0537
11
162.242
21
-99.0845
0
LINE
8
Black
10
154.473
20
-98.9229
11
154.478
21
-98.9229
0
LINE
8
Black
10
154.478
20
-98.9229
11
154.482
21
-98.9244
0
LINE
8
Black
10
154.482
20
-98.9244
11
154.486
21
-98.9251
0
LINE
8
Black
10
154.486
20
-98.9251
11
154.49
21
-98.9273
0
LINE
8
Black
10
154.49
20
-98.9273
11
154.494
21
-98.9287
0
LINE
8
Black
10
154.494
20
-98.9287
11
154.497
21
-98.9315
0
LINE
8
Black
10
154.497
20
-98.9315
11
154.501
21
-98.9337
0
LINE
8
Black
10
154.501
20
-98.9337
11
154.504
21
-98.937
0
LINE
8
Black
10
154.504
20
-98.937
11
154.507
21
-98.9398
0
LINE
8
Black
10
154.507
20
-98.9398
11
154.51
21
-98.9436
0
LINE
8
Black
10
154.51
20
-98.9436
11
154.512
21
-98.947
0
LINE
8
Black
10
154.512
20
-98.947
11
154.514
21
-98.9511
0
LINE
8
Black
10
154.514
20
-98.9511
11
154.516
21
-98.9548
0
LINE
8
Black
10
154.516
20
-98.9548
11
154.517
21
-98.9591
0
LINE
8
Black
10
154.517
20
-98.9591
11
154.518
21
-98.9632
0
LINE
8
Black
10
154.518
20
-98.9632
11
154.518
21
-98.9676
0
LINE
8
Black
10
154.518
20
-98.9676
11
154.519
21
-98.9719
0
LINE
8
Black
10
154.519
20
-98.9719
11
154.551
21
-104.972
0
LINE
8
Black
10
154.551
20
-104.972
11
154.55
21
-104.976
0
LINE
8
Black
10
154.55
20
-104.976
11
154.55
21
-104.981
0
LINE
8
Black
10
154.55
20
-104.981
11
154.549
21
-104.985
0
LINE
8
Black
10
154.549
20
-104.985
11
154.548
21
-104.989
0
LINE
8
Black
10
154.548
20
-104.989
11
154.546
21
-104.993
0
LINE
8
Black
10
154.546
20
-104.993
11
154.544
21
-104.997
0
LINE
8
Black
10
154.544
20
-104.997
11
154.541
21
-105
0
LINE
8
Black
10
154.541
20
-105
11
154.539
21
-105.004
0
LINE
8
Black
10
154.539
20
-105.004
11
154.536
21
-105.007
0
LINE
8
Black
10
154.536
20
-105.007
11
154.533
21
-105.01
0
LINE
8
Black
10
154.533
20
-105.01
11
154.529
21
-105.013
0
LINE
8
Black
10
154.529
20
-105.013
11
154.526
21
-105.015
0
LINE
8
Black
10
154.526
20
-105.015
11
154.522
21
-105.017
0
LINE
8
Black
10
154.522
20
-105.017
11
154.518
21
-105.019
0
LINE
8
Black
10
154.518
20
-105.019
11
154.514
21
-105.02
0
LINE
8
Black
10
154.514
20
-105.02
11
154.51
21
-105.021
0
LINE
8
Black
10
154.51
20
-105.021
11
154.505
21
-105.022
0
LINE
8
Black
10
154.505
20
-105.022
11
154.501
21
-105.022
0
LINE
8
Black
10
154.501
20
-105.022
11
148.501
21
-105.054
0
LINE
8
Black
10
148.501
20
-105.054
11
148.497
21
-105.053
0
LINE
8
Black
10
148.497
20
-105.053
11
148.493
21
-105.053
0
LINE
8
Black
10
148.493
20
-105.053
11
148.489
21
-105.051
0
LINE
8
Black
10
148.489
20
-105.051
11
148.484
21
-105.051
0
LINE
8
Black
10
148.484
20
-105.051
11
148.48
21
-105.049
0
LINE
8
Black
10
148.48
20
-105.049
11
148.476
21
-105.047
0
LINE
8
Black
10
148.476
20
-105.047
11
148.473
21
-105.044
0
LINE
8
Black
10
148.473
20
-105.044
11
148.469
21
-105.042
0
LINE
8
Black
10
148.469
20
-105.042
11
148.466
21
-105.039
0
LINE
8
Black
10
148.466
20
-105.039
11
148.463
21
-105.036
0
LINE
8
Black
10
148.463
20
-105.036
11
148.461
21
-105.032
0
LINE
8
Black
10
148.461
20
-105.032
11
148.458
21
-105.029
0
LINE
8
Black
10
148.458
20
-105.029
11
148.456
21
-105.025
0
LINE
8
Black
10
148.456
20
-105.025
11
148.454
21
-105.021
0
LINE
8
Black
10
148.454
20
-105.021
11
148.453
21
-105.017
0
LINE
8
Black
10
148.453
20
-105.017
11
148.452
21
-105.013
0
LINE
8
Black
10
148.452
20
-105.013
11
148.452
21
-105.008
0
LINE
8
Black
10
148.452
20
-105.008
11
148.451
21
-105.004
0
LINE
8
Black
10
148.451
20
-105.004
11
148.42
21
-99.0037
0
LINE
8
Black
10
148.42
20
-99.0037
11
148.42
21
-98.9994
0
LINE
8
Black
10
148.42
20
-98.9994
11
148.42
21
-98.9951
0
LINE
8
Black
10
148.42
20
-98.9951
11
148.422
21
-98.9909
0
LINE
8
Black
10
148.422
20
-98.9909
11
148.423
21
-98.9866
0
LINE
8
Black
10
148.423
20
-98.9866
11
148.425
21
-98.9828
0
LINE
8
Black
10
148.425
20
-98.9828
11
148.426
21
-98.9787
0
LINE
8
Black
10
148.426
20
-98.9787
11
148.429
21
-98.9753
0
LINE
8
Black
10
148.429
20
-98.9753
11
148.431
21
-98.9715
0
LINE
8
Black
10
148.431
20
-98.9715
11
148.434
21
-98.9687
0
LINE
8
Black
10
148.434
20
-98.9687
11
148.437
21
-98.9653
0
LINE
8
Black
10
148.437
20
-98.9653
11
148.441
21
-98.9631
0
LINE
8
Black
10
148.441
20
-98.9631
11
148.444
21
-98.9603
0
LINE
8
Black
10
148.444
20
-98.9603
11
148.448
21
-98.9588
0
LINE
8
Black
10
148.448
20
-98.9588
11
148.452
21
-98.9566
0
LINE
8
Black
10
148.452
20
-98.9566
11
148.457
21
-98.9558
0
LINE
8
Black
10
148.457
20
-98.9558
11
148.461
21
-98.9543
0
LINE
8
Black
10
148.461
20
-98.9543
11
148.465
21
-98.9543
0
LINE
8
Black
10
148.465
20
-98.9543
11
148.469
21
-98.9535
0
LINE
8
Black
10
148.469
20
-98.9535
11
154.469
21
-98.9222
0
LINE
8
Black
10
154.469
20
-98.9222
11
154.473
21
-98.9229
0
LINE
8
Black
10
148.52
20
-99.0532
11
148.551
21
-104.953
0
LINE
8
Black
10
148.551
20
-104.953
11
154.451
21
-104.923
0
LINE
8
Black
10
154.451
20
-104.923
11
154.42
21
-99.0224
0
LINE
8
Black
10
154.42
20
-99.0224
11
148.52
21
-99.0532
  0
ENDSEC
  0
EOF
