  0
SECTION
  2
HEADER
  9
$ANGBASE
  50
0.0
  9
$ANGDIR
  70
  1
  9
$MEASUREMENT
  70
0
  0
ENDSEC
  0
SECTION
  2
TABLES
  0
TABLE
  2
LTYPE
  70
1
  0
LTYPE
  2
CONTINUOUS
  70
0
  3
Solid line
  72
65
  73
0
  40
0.0
  0
ENDTAB
  0
TABLE
  2
STYLE
  70
4
  0
STYLE
  2
KICAD
  70
0
  40
0
  41
1
  42
1
  50
0
  71
0
  3
isocp.shx
  0
STYLE
  2
KICADB
  70
0
  40
0
  41
1
  42
1
  50
0
  71
0
  3
isocp.shx
  0
STYLE
  2
KICADI
  70
0
  40
0
  41
1
  42
1
  50
15
  71
0
  3
isocp.shx
  0
STYLE
  2
KICADBI
  70
0
  40
0
  41
1
  42
1
  50
15
  71
0
  3
isocp.shx
  0
ENDTAB
  0
TABLE
  2
LAYER
  70
30
  0
LAYER
  2
BLACK
  70
0
  62
7
  6
CONTINUOUS
  0
LAYER
  2
GRAY1
  70
0
  62
251
  6
CONTINUOUS
  0
LAYER
  2
GRAY2
  70
0
  62
8
  6
CONTINUOUS
  0
LAYER
  2
GRAY3
  70
0
  62
9
  6
CONTINUOUS
  0
LAYER
  2
WHITE
  70
0
  62
7
  6
CONTINUOUS
  0
LAYER
  2
LYELLOW
  70
0
  62
51
  6
CONTINUOUS
  0
LAYER
  2
BLUE1
  70
0
  62
178
  6
CONTINUOUS
  0
LAYER
  2
GREEN1
  70
0
  62
98
  6
CONTINUOUS
  0
LAYER
  2
CYAN1
  70
0
  62
138
  6
CONTINUOUS
  0
LAYER
  2
RED1
  70
0
  62
18
  6
CONTINUOUS
  0
LAYER
  2
MAGENTA1
  70
0
  62
228
  6
CONTINUOUS
  0
LAYER
  2
BROWN1
  70
0
  62
58
  6
CONTINUOUS
  0
LAYER
  2
BLUE2
  70
0
  62
5
  6
CONTINUOUS
  0
LAYER
  2
GREEN2
  70
0
  62
3
  6
CONTINUOUS
  0
LAYER
  2
CYAN2
  70
0
  62
4
  6
CONTINUOUS
  0
LAYER
  2
RED2
  70
0
  62
1
  6
CONTINUOUS
  0
LAYER
  2
MAGENTA2
  70
0
  62
6
  6
CONTINUOUS
  0
LAYER
  2
BROWN2
  70
0
  62
54
  6
CONTINUOUS
  0
LAYER
  2
BLUE3
  70
0
  62
171
  6
CONTINUOUS
  0
LAYER
  2
GREEN3
  70
0
  62
91
  6
CONTINUOUS
  0
LAYER
  2
CYAN3
  70
0
  62
131
  6
CONTINUOUS
  0
LAYER
  2
RED3
  70
0
  62
11
  6
CONTINUOUS
  0
LAYER
  2
MAGENTA3
  70
0
  62
221
  6
CONTINUOUS
  0
LAYER
  2
YELLOW3
  70
0
  62
2
  6
CONTINUOUS
  0
LAYER
  2
BLUE4
  70
0
  62
5
  6
CONTINUOUS
  0
LAYER
  2
GREEN4
  70
0
  62
3
  6
CONTINUOUS
  0
LAYER
  2
CYAN4
  70
0
  62
4
  6
CONTINUOUS
  0
LAYER
  2
RED4
  70
0
  62
1
  6
CONTINUOUS
  0
LAYER
  2
MAGENTA4
  70
0
  62
6
  6
CONTINUOUS
  0
LAYER
  2
YELLOW4
  70
0
  62
2
  6
CONTINUOUS
  0
ENDTAB
  0
ENDSEC
  0
SECTION
  2
ENTITIES
0
LINE
8
Black
10
176.458
20
-103.966
11
175.689
21
-104.611
0
LINE
8
Black
10
175.689
20
-104.611
11
174.746
21
-104.955
0
LINE
8
Black
10
174.746
20
-104.955
11
173.742
21
-104.955
0
LINE
8
Black
10
173.742
20
-104.955
11
172.799
21
-104.611
0
LINE
8
Black
10
172.799
20
-104.611
11
172.03
21
-103.966
0
LINE
8
Black
10
172.03
20
-103.966
11
171.528
21
-103.097
0
LINE
8
Black
10
171.528
20
-103.097
11
171.353
21
-102.108
0
LINE
8
Black
10
171.353
20
-102.108
11
171.528
21
-101.119
0
LINE
8
Black
10
171.528
20
-101.119
11
172.03
21
-100.25
0
LINE
8
Black
10
172.03
20
-100.25
11
172.799
21
-99.6048
0
LINE
8
Black
10
172.799
20
-99.6048
11
173.742
21
-99.2614
0
LINE
8
Black
10
173.742
20
-99.2614
11
174.746
21
-99.2614
0
LINE
8
Black
10
174.746
20
-99.2614
11
175.689
21
-99.6048
0
LINE
8
Black
10
175.689
20
-99.6048
11
176.458
21
-100.25
0
LINE
8
Black
10
176.458
20
-100.25
11
176.96
21
-101.119
0
LINE
8
Black
10
176.96
20
-101.119
11
177.135
21
-102.108
0
LINE
8
Black
10
177.135
20
-102.108
11
176.96
21
-103.097
0
LINE
8
Black
10
176.96
20
-103.097
11
176.458
21
-103.966
0
LINE
8
Black
10
176.166
20
-100.495
11
175.499
21
-99.9347
0
LINE
8
Black
10
175.499
20
-99.9347
11
174.68
21
-99.6366
0
LINE
8
Black
10
174.68
20
-99.6366
11
173.808
21
-99.6366
0
LINE
8
Black
10
173.808
20
-99.6366
11
172.989
21
-99.9347
0
LINE
8
Black
10
172.989
20
-99.9347
11
172.322
21
-100.495
0
LINE
8
Black
10
172.322
20
-100.495
11
171.886
21
-101.25
0
LINE
8
Black
10
171.886
20
-101.25
11
171.734
21
-102.108
0
LINE
8
Black
10
171.734
20
-102.108
11
171.886
21
-102.966
0
LINE
8
Black
10
171.886
20
-102.966
11
172.322
21
-103.721
0
LINE
8
Black
10
172.322
20
-103.721
11
172.989
21
-104.281
0
LINE
8
Black
10
172.989
20
-104.281
11
173.808
21
-104.579
0
LINE
8
Black
10
173.808
20
-104.579
11
174.68
21
-104.579
0
LINE
8
Black
10
174.68
20
-104.579
11
175.499
21
-104.281
0
LINE
8
Black
10
175.499
20
-104.281
11
176.166
21
-103.721
0
LINE
8
Black
10
176.166
20
-103.721
11
176.602
21
-102.966
0
LINE
8
Black
10
176.602
20
-102.966
11
176.754
21
-102.108
0
LINE
8
Black
10
176.754
20
-102.108
11
176.602
21
-101.25
0
LINE
8
Black
10
176.602
20
-101.25
11
176.166
21
-100.495
0
LINE
8
Black
10
145.47
20
-103.966
11
144.701
21
-104.611
0
LINE
8
Black
10
144.701
20
-104.611
11
143.758
21
-104.955
0
LINE
8
Black
10
143.758
20
-104.955
11
142.754
21
-104.955
0
LINE
8
Black
10
142.754
20
-104.955
11
141.811
21
-104.611
0
LINE
8
Black
10
141.811
20
-104.611
11
141.042
21
-103.966
0
LINE
8
Black
10
141.042
20
-103.966
11
140.54
21
-103.097
0
LINE
8
Black
10
140.54
20
-103.097
11
140.365
21
-102.108
0
LINE
8
Black
10
140.365
20
-102.108
11
140.54
21
-101.119
0
LINE
8
Black
10
140.54
20
-101.119
11
141.042
21
-100.25
0
LINE
8
Black
10
141.042
20
-100.25
11
141.811
21
-99.6048
0
LINE
8
Black
10
141.811
20
-99.6048
11
142.754
21
-99.2614
0
LINE
8
Black
10
142.754
20
-99.2614
11
143.758
21
-99.2614
0
LINE
8
Black
10
143.758
20
-99.2614
11
144.701
21
-99.6048
0
LINE
8
Black
10
144.701
20
-99.6048
11
145.47
21
-100.25
0
LINE
8
Black
10
145.47
20
-100.25
11
145.972
21
-101.119
0
LINE
8
Black
10
145.972
20
-101.119
11
146.147
21
-102.108
0
LINE
8
Black
10
146.147
20
-102.108
11
145.972
21
-103.097
0
LINE
8
Black
10
145.972
20
-103.097
11
145.47
21
-103.966
0
LINE
8
Black
10
145.178
20
-100.495
11
144.511
21
-99.9347
0
LINE
8
Black
10
144.511
20
-99.9347
11
143.692
21
-99.6366
0
LINE
8
Black
10
143.692
20
-99.6366
11
142.82
21
-99.6366
0
LINE
8
Black
10
142.82
20
-99.6366
11
142.001
21
-99.9347
0
LINE
8
Black
10
142.001
20
-99.9347
11
141.334
21
-100.495
0
LINE
8
Black
10
141.334
20
-100.495
11
140.898
21
-101.25
0
LINE
8
Black
10
140.898
20
-101.25
11
140.746
21
-102.108
0
LINE
8
Black
10
140.746
20
-102.108
11
140.898
21
-102.966
0
LINE
8
Black
10
140.898
20
-102.966
11
141.334
21
-103.721
0
LINE
8
Black
10
141.334
20
-103.721
11
142.001
21
-104.281
0
LINE
8
Black
10
142.001
20
-104.281
11
142.82
21
-104.579
0
LINE
8
Black
10
142.82
20
-104.579
11
143.692
21
-104.579
0
LINE
8
Black
10
143.692
20
-104.579
11
144.511
21
-104.281
0
LINE
8
Black
10
144.511
20
-104.281
11
145.178
21
-103.721
0
LINE
8
Black
10
145.178
20
-103.721
11
145.614
21
-102.966
0
LINE
8
Black
10
145.614
20
-102.966
11
145.766
21
-102.108
0
LINE
8
Black
10
145.766
20
-102.108
11
145.614
21
-101.25
0
LINE
8
Black
10
145.614
20
-101.25
11
145.178
21
-100.495
  0
ENDSEC
  0
EOF
