  0
SECTION
  2
HEADER
  9
$ANGBASE
  50
0.0
  9
$ANGDIR
  70
  1
  9
$MEASUREMENT
  70
0
  0
ENDSEC
  0
SECTION
  2
TABLES
  0
TABLE
  2
LTYPE
  70
1
  0
LTYPE
  2
CONTINUOUS
  70
0
  3
Solid line
  72
65
  73
0
  40
0.0
  0
ENDTAB
  0
TABLE
  2
STYLE
  70
4
  0
STYLE
  2
KICAD
  70
0
  40
0
  41
1
  42
1
  50
0
  71
0
  3
isocp.shx
  0
STYLE
  2
KICADB
  70
0
  40
0
  41
1
  42
1
  50
0
  71
0
  3
isocp.shx
  0
STYLE
  2
KICADI
  70
0
  40
0
  41
1
  42
1
  50
15
  71
0
  3
isocp.shx
  0
STYLE
  2
KICADBI
  70
0
  40
0
  41
1
  42
1
  50
15
  71
0
  3
isocp.shx
  0
ENDTAB
  0
TABLE
  2
LAYER
  70
30
  0
LAYER
  2
BLACK
  70
0
  62
7
  6
CONTINUOUS
  0
LAYER
  2
GRAY1
  70
0
  62
251
  6
CONTINUOUS
  0
LAYER
  2
GRAY2
  70
0
  62
8
  6
CONTINUOUS
  0
LAYER
  2
GRAY3
  70
0
  62
9
  6
CONTINUOUS
  0
LAYER
  2
WHITE
  70
0
  62
7
  6
CONTINUOUS
  0
LAYER
  2
LYELLOW
  70
0
  62
51
  6
CONTINUOUS
  0
LAYER
  2
BLUE1
  70
0
  62
178
  6
CONTINUOUS
  0
LAYER
  2
GREEN1
  70
0
  62
98
  6
CONTINUOUS
  0
LAYER
  2
CYAN1
  70
0
  62
138
  6
CONTINUOUS
  0
LAYER
  2
RED1
  70
0
  62
18
  6
CONTINUOUS
  0
LAYER
  2
MAGENTA1
  70
0
  62
228
  6
CONTINUOUS
  0
LAYER
  2
BROWN1
  70
0
  62
58
  6
CONTINUOUS
  0
LAYER
  2
BLUE2
  70
0
  62
5
  6
CONTINUOUS
  0
LAYER
  2
GREEN2
  70
0
  62
3
  6
CONTINUOUS
  0
LAYER
  2
CYAN2
  70
0
  62
4
  6
CONTINUOUS
  0
LAYER
  2
RED2
  70
0
  62
1
  6
CONTINUOUS
  0
LAYER
  2
MAGENTA2
  70
0
  62
6
  6
CONTINUOUS
  0
LAYER
  2
BROWN2
  70
0
  62
54
  6
CONTINUOUS
  0
LAYER
  2
BLUE3
  70
0
  62
171
  6
CONTINUOUS
  0
LAYER
  2
GREEN3
  70
0
  62
91
  6
CONTINUOUS
  0
LAYER
  2
CYAN3
  70
0
  62
131
  6
CONTINUOUS
  0
LAYER
  2
RED3
  70
0
  62
11
  6
CONTINUOUS
  0
LAYER
  2
MAGENTA3
  70
0
  62
221
  6
CONTINUOUS
  0
LAYER
  2
YELLOW3
  70
0
  62
2
  6
CONTINUOUS
  0
LAYER
  2
BLUE4
  70
0
  62
5
  6
CONTINUOUS
  0
LAYER
  2
GREEN4
  70
0
  62
3
  6
CONTINUOUS
  0
LAYER
  2
CYAN4
  70
0
  62
4
  6
CONTINUOUS
  0
LAYER
  2
RED4
  70
0
  62
1
  6
CONTINUOUS
  0
LAYER
  2
MAGENTA4
  70
0
  62
6
  6
CONTINUOUS
  0
LAYER
  2
YELLOW4
  70
0
  62
2
  6
CONTINUOUS
  0
ENDTAB
  0
ENDSEC
  0
SECTION
  2
ENTITIES
0
LINE
8
Black
10
139.7
20
-108.787
11
166.878
21
-108.787
0
LINE
8
Black
10
139.7
20
-108.637
11
166.878
21
-108.637
0
ARC
8
Black
10
166.878
20
-108.712
40
0.075
50
270
51
450
0
ARC
8
Black
10
139.7
20
-108.712
40
0.075
50
90
51
270
0
LINE
8
Black
10
139.775
20
-108.712
11
139.775
21
-97.282
0
LINE
8
Black
10
139.625
20
-108.712
11
139.625
21
-97.282
0
ARC
8
Black
10
139.7
20
-97.282
40
0.075
50
360
51
540
0
ARC
8
Black
10
139.7
20
-108.712
40
0.075
50
180
51
360
0
LINE
8
Black
10
139.7
20
-97.357
11
184.404
21
-97.357
0
LINE
8
Black
10
139.7
20
-97.207
11
184.404
21
-97.207
0
ARC
8
Black
10
184.404
20
-97.282
40
0.075
50
270
51
450
0
ARC
8
Black
10
139.7
20
-97.282
40
0.075
50
90
51
270
0
LINE
8
Black
10
184.479
20
-108.712
11
184.479
21
-97.282
0
LINE
8
Black
10
184.329
20
-108.712
11
184.329
21
-97.282
0
ARC
8
Black
10
184.404
20
-97.282
40
0.075
50
360
51
540
0
ARC
8
Black
10
184.404
20
-108.712
40
0.075
50
180
51
360
0
LINE
8
Black
10
166.878
20
-108.787
11
184.404
21
-108.787
0
LINE
8
Black
10
166.878
20
-108.637
11
184.404
21
-108.637
0
ARC
8
Black
10
184.404
20
-108.712
40
0.075
50
270
51
450
0
ARC
8
Black
10
166.878
20
-108.712
40
0.075
50
90
51
270
0
LINE
8
Black
10
147.752
20
-99.2378
11
148.768
21
-100.254
0
LINE
8
Black
10
148.768
20
-99.2378
11
147.752
21
-100.254
0
LINE
8
Black
10
147.752
20
-99.5426
11
147.752
21
-99.949
0
LINE
8
Black
10
148.768
20
-99.5426
11
148.768
21
-99.949
0
ARC
8
Black
10
148.26
20
-99.949
40
0.508
50
180
51
360
0
ARC
8
Black
10
148.26
20
-99.5426
40
0.508
50
0
51
180
0
LINE
8
Black
10
147.752
20
-103.759
11
148.768
21
-104.775
0
LINE
8
Black
10
148.768
20
-103.759
11
147.752
21
-104.775
0
LINE
8
Black
10
147.752
20
-104.064
11
147.752
21
-104.47
0
LINE
8
Black
10
148.768
20
-104.064
11
148.768
21
-104.47
0
ARC
8
Black
10
148.26
20
-104.47
40
0.508
50
180
51
360
0
ARC
8
Black
10
148.26
20
-104.064
40
0.508
50
0
51
180
0
LINE
8
Black
10
154.254
20
-99.2378
11
155.27
21
-100.254
0
LINE
8
Black
10
155.27
20
-99.2378
11
154.254
21
-100.254
0
LINE
8
Black
10
154.254
20
-99.5426
11
154.254
21
-99.949
0
LINE
8
Black
10
155.27
20
-99.5426
11
155.27
21
-99.949
0
ARC
8
Black
10
154.762
20
-99.949
40
0.508
50
180
51
360
0
ARC
8
Black
10
154.762
20
-99.5426
40
0.508
50
0
51
180
0
LINE
8
Black
10
154.254
20
-103.759
11
155.27
21
-104.775
0
LINE
8
Black
10
155.27
20
-103.759
11
154.254
21
-104.775
0
LINE
8
Black
10
154.254
20
-104.064
11
154.254
21
-104.47
0
LINE
8
Black
10
155.27
20
-104.064
11
155.27
21
-104.47
0
ARC
8
Black
10
154.762
20
-104.47
40
0.508
50
180
51
360
0
ARC
8
Black
10
154.762
20
-104.064
40
0.508
50
0
51
180
0
LINE
8
Black
10
161.465
20
-99.2708
11
162.481
21
-100.287
0
LINE
8
Black
10
162.481
20
-99.2708
11
161.465
21
-100.287
0
LINE
8
Black
10
161.465
20
-99.5756
11
161.465
21
-99.982
0
LINE
8
Black
10
162.481
20
-99.5756
11
162.481
21
-99.982
0
ARC
8
Black
10
161.973
20
-99.982
40
0.508
50
180
51
360
0
ARC
8
Black
10
161.973
20
-99.5756
40
0.508
50
0
51
180
0
LINE
8
Black
10
161.465
20
-103.792
11
162.481
21
-104.808
0
LINE
8
Black
10
162.481
20
-103.792
11
161.465
21
-104.808
0
LINE
8
Black
10
161.465
20
-104.097
11
161.465
21
-104.503
0
LINE
8
Black
10
162.481
20
-104.097
11
162.481
21
-104.503
0
ARC
8
Black
10
161.973
20
-104.503
40
0.508
50
180
51
360
0
ARC
8
Black
10
161.973
20
-104.097
40
0.508
50
0
51
180
0
LINE
8
Black
10
167.968
20
-99.2708
11
168.984
21
-100.287
0
LINE
8
Black
10
168.984
20
-99.2708
11
167.968
21
-100.287
0
LINE
8
Black
10
167.968
20
-99.5756
11
167.968
21
-99.982
0
LINE
8
Black
10
168.984
20
-99.5756
11
168.984
21
-99.982
0
ARC
8
Black
10
168.476
20
-99.982
40
0.508
50
180
51
360
0
ARC
8
Black
10
168.476
20
-99.5756
40
0.508
50
0
51
180
0
LINE
8
Black
10
167.968
20
-103.792
11
168.984
21
-104.808
0
LINE
8
Black
10
168.984
20
-103.792
11
167.968
21
-104.808
0
LINE
8
Black
10
167.968
20
-104.097
11
167.968
21
-104.503
0
LINE
8
Black
10
168.984
20
-104.097
11
168.984
21
-104.503
0
ARC
8
Black
10
168.476
20
-104.503
40
0.508
50
180
51
360
0
ARC
8
Black
10
168.476
20
-104.097
40
0.508
50
0
51
180
0
LINE
8
Black
10
181.61
20
-99.06
11
182.626
21
-100.076
0
LINE
8
Black
10
182.626
20
-99.06
11
181.61
21
-100.076
0
LINE
8
Black
10
181.61
20
-101.6
11
182.626
21
-102.616
0
LINE
8
Black
10
182.626
20
-101.6
11
181.61
21
-102.616
0
LINE
8
Black
10
181.61
20
-104.14
11
182.626
21
-105.156
0
LINE
8
Black
10
182.626
20
-104.14
11
181.61
21
-105.156
0
CIRCLE
8
Black
10
143.256
20
-102.108
40
1.35
0
CIRCLE
8
Black
10
174.244
20
-102.108
40
1.35
0
LINE
8
Black
10
142.339
20
-113.444
11
142.339
21
-110.444
0
LINE
8
Black
10
142.339
20
-110.444
11
143.054
21
-110.444
0
LINE
8
Black
10
143.054
20
-110.444
11
143.482
21
-110.587
0
LINE
8
Black
10
143.482
20
-110.587
11
143.768
21
-110.873
0
LINE
8
Black
10
143.768
20
-110.873
11
143.911
21
-111.158
0
LINE
8
Black
10
143.911
20
-111.158
11
144.054
21
-111.73
0
LINE
8
Black
10
144.054
20
-111.73
11
144.054
21
-112.158
0
LINE
8
Black
10
144.054
20
-112.158
11
143.911
21
-112.73
0
LINE
8
Black
10
143.911
20
-112.73
11
143.768
21
-113.016
0
LINE
8
Black
10
143.768
20
-113.016
11
143.482
21
-113.301
0
LINE
8
Black
10
143.482
20
-113.301
11
143.054
21
-113.444
0
LINE
8
Black
10
143.054
20
-113.444
11
142.339
21
-113.444
0
LINE
8
Black
10
145.339
20
-113.444
11
145.339
21
-111.444
0
LINE
8
Black
10
145.339
20
-112.016
11
145.482
21
-111.73
0
LINE
8
Black
10
145.482
20
-111.73
11
145.625
21
-111.587
0
LINE
8
Black
10
145.625
20
-111.587
11
145.911
21
-111.444
0
LINE
8
Black
10
145.911
20
-111.444
11
146.196
21
-111.444
0
LINE
8
Black
10
147.196
20
-113.444
11
147.196
21
-111.444
0
LINE
8
Black
10
147.196
20
-110.444
11
147.054
21
-110.587
0
LINE
8
Black
10
147.054
20
-110.587
11
147.196
21
-110.73
0
LINE
8
Black
10
147.196
20
-110.73
11
147.339
21
-110.587
0
LINE
8
Black
10
147.339
20
-110.587
11
147.196
21
-110.444
0
LINE
8
Black
10
147.196
20
-110.444
11
147.196
21
-110.73
0
LINE
8
Black
10
149.054
20
-113.444
11
148.768
21
-113.301
0
LINE
8
Black
10
148.768
20
-113.301
11
148.625
21
-113.016
0
LINE
8
Black
10
148.625
20
-113.016
11
148.625
21
-110.444
0
LINE
8
Black
10
150.625
20
-113.444
11
150.339
21
-113.301
0
LINE
8
Black
10
150.339
20
-113.301
11
150.196
21
-113.016
0
LINE
8
Black
10
150.196
20
-113.016
11
150.196
21
-110.444
0
LINE
8
Black
10
154.054
20
-113.444
11
154.054
21
-110.444
0
LINE
8
Black
10
154.054
20
-110.444
11
155.054
21
-112.587
0
LINE
8
Black
10
155.054
20
-112.587
11
156.054
21
-110.444
0
LINE
8
Black
10
156.054
20
-110.444
11
156.054
21
-113.444
0
LINE
8
Black
10
158.768
20
-113.444
11
158.768
21
-111.873
0
LINE
8
Black
10
158.768
20
-111.873
11
158.625
21
-111.587
0
LINE
8
Black
10
158.625
20
-111.587
11
158.339
21
-111.444
0
LINE
8
Black
10
158.339
20
-111.444
11
157.768
21
-111.444
0
LINE
8
Black
10
157.768
20
-111.444
11
157.482
21
-111.587
0
LINE
8
Black
10
158.768
20
-113.301
11
158.482
21
-113.444
0
LINE
8
Black
10
158.482
20
-113.444
11
157.768
21
-113.444
0
LINE
8
Black
10
157.768
20
-113.444
11
157.482
21
-113.301
0
LINE
8
Black
10
157.482
20
-113.301
11
157.339
21
-113.016
0
LINE
8
Black
10
157.339
20
-113.016
11
157.339
21
-112.73
0
LINE
8
Black
10
157.339
20
-112.73
11
157.482
21
-112.444
0
LINE
8
Black
10
157.482
20
-112.444
11
157.768
21
-112.301
0
LINE
8
Black
10
157.768
20
-112.301
11
158.482
21
-112.301
0
LINE
8
Black
10
158.482
20
-112.301
11
158.768
21
-112.158
0
LINE
8
Black
10
160.196
20
-111.444
11
160.196
21
-114.444
0
LINE
8
Black
10
160.196
20
-111.587
11
160.482
21
-111.444
0
LINE
8
Black
10
160.482
20
-111.444
11
161.054
21
-111.444
0
LINE
8
Black
10
161.054
20
-111.444
11
161.339
21
-111.587
0
LINE
8
Black
10
161.339
20
-111.587
11
161.482
21
-111.73
0
LINE
8
Black
10
161.482
20
-111.73
11
161.625
21
-112.016
0
LINE
8
Black
10
161.625
20
-112.016
11
161.625
21
-112.873
0
LINE
8
Black
10
161.625
20
-112.873
11
161.482
21
-113.158
0
LINE
8
Black
10
161.482
20
-113.158
11
161.339
21
-113.301
0
LINE
8
Black
10
161.339
20
-113.301
11
161.054
21
-113.444
0
LINE
8
Black
10
161.054
20
-113.444
11
160.482
21
-113.444
0
LINE
8
Black
10
160.482
20
-113.444
11
160.196
21
-113.301
0
LINE
8
Black
10
162.911
20
-113.158
11
163.054
21
-113.301
0
LINE
8
Black
10
163.054
20
-113.301
11
162.911
21
-113.444
0
LINE
8
Black
10
162.911
20
-113.444
11
162.768
21
-113.301
0
LINE
8
Black
10
162.768
20
-113.301
11
162.911
21
-113.158
0
LINE
8
Black
10
162.911
20
-113.158
11
162.911
21
-113.444
0
LINE
8
Black
10
162.911
20
-111.587
11
163.054
21
-111.73
0
LINE
8
Black
10
163.054
20
-111.73
11
162.911
21
-111.873
0
LINE
8
Black
10
162.911
20
-111.873
11
162.768
21
-111.73
0
LINE
8
Black
10
162.768
20
-111.73
11
162.911
21
-111.587
0
LINE
8
Black
10
162.911
20
-111.587
11
162.911
21
-111.873
0
LINE
8
Black
10
138.609
20
-117.879
11
139.625
21
-118.895
0
LINE
8
Black
10
139.625
20
-117.879
11
138.609
21
-118.895
0
LINE
8
Black
10
143.911
20
-119.744
11
142.196
21
-119.744
0
LINE
8
Black
10
143.054
20
-119.744
11
143.054
21
-116.744
0
LINE
8
Black
10
143.054
20
-116.744
11
142.768
21
-117.173
0
LINE
8
Black
10
142.768
20
-117.173
11
142.482
21
-117.458
0
LINE
8
Black
10
142.482
20
-117.458
11
142.196
21
-117.601
0
LINE
8
Black
10
145.196
20
-119.458
11
145.339
21
-119.601
0
LINE
8
Black
10
145.339
20
-119.601
11
145.196
21
-119.744
0
LINE
8
Black
10
145.196
20
-119.744
11
145.054
21
-119.601
0
LINE
8
Black
10
145.054
20
-119.601
11
145.196
21
-119.458
0
LINE
8
Black
10
145.196
20
-119.458
11
145.196
21
-119.744
0
LINE
8
Black
10
147.196
20
-116.744
11
147.482
21
-116.744
0
LINE
8
Black
10
147.482
20
-116.744
11
147.768
21
-116.887
0
LINE
8
Black
10
147.768
20
-116.887
11
147.911
21
-117.03
0
LINE
8
Black
10
147.911
20
-117.03
11
148.054
21
-117.316
0
LINE
8
Black
10
148.054
20
-117.316
11
148.196
21
-117.887
0
LINE
8
Black
10
148.196
20
-117.887
11
148.196
21
-118.601
0
LINE
8
Black
10
148.196
20
-118.601
11
148.054
21
-119.173
0
LINE
8
Black
10
148.054
20
-119.173
11
147.911
21
-119.458
0
LINE
8
Black
10
147.911
20
-119.458
11
147.768
21
-119.601
0
LINE
8
Black
10
147.768
20
-119.601
11
147.482
21
-119.744
0
LINE
8
Black
10
147.482
20
-119.744
11
147.196
21
-119.744
0
LINE
8
Black
10
147.196
20
-119.744
11
146.911
21
-119.601
0
LINE
8
Black
10
146.911
20
-119.601
11
146.768
21
-119.458
0
LINE
8
Black
10
146.768
20
-119.458
11
146.625
21
-119.173
0
LINE
8
Black
10
146.625
20
-119.173
11
146.482
21
-118.601
0
LINE
8
Black
10
146.482
20
-118.601
11
146.482
21
-117.887
0
LINE
8
Black
10
146.482
20
-117.887
11
146.625
21
-117.316
0
LINE
8
Black
10
146.625
20
-117.316
11
146.768
21
-117.03
0
LINE
8
Black
10
146.768
20
-117.03
11
146.911
21
-116.887
0
LINE
8
Black
10
146.911
20
-116.887
11
147.196
21
-116.744
0
LINE
8
Black
10
149.339
20
-117.03
11
149.482
21
-116.887
0
LINE
8
Black
10
149.482
20
-116.887
11
149.768
21
-116.744
0
LINE
8
Black
10
149.768
20
-116.744
11
150.482
21
-116.744
0
LINE
8
Black
10
150.482
20
-116.744
11
150.768
21
-116.887
0
LINE
8
Black
10
150.768
20
-116.887
11
150.911
21
-117.03
0
LINE
8
Black
10
150.911
20
-117.03
11
151.054
21
-117.316
0
LINE
8
Black
10
151.054
20
-117.316
11
151.054
21
-117.601
0
LINE
8
Black
10
151.054
20
-117.601
11
150.911
21
-118.03
0
LINE
8
Black
10
150.911
20
-118.03
11
149.196
21
-119.744
0
LINE
8
Black
10
149.196
20
-119.744
11
151.054
21
-119.744
0
LINE
8
Black
10
152.339
20
-119.744
11
152.339
21
-117.744
0
LINE
8
Black
10
152.339
20
-118.03
11
152.482
21
-117.887
0
LINE
8
Black
10
152.482
20
-117.887
11
152.768
21
-117.744
0
LINE
8
Black
10
152.768
20
-117.744
11
153.196
21
-117.744
0
LINE
8
Black
10
153.196
20
-117.744
11
153.482
21
-117.887
0
LINE
8
Black
10
153.482
20
-117.887
11
153.625
21
-118.173
0
LINE
8
Black
10
153.625
20
-118.173
11
153.625
21
-119.744
0
LINE
8
Black
10
153.625
20
-118.173
11
153.768
21
-117.887
0
LINE
8
Black
10
153.768
20
-117.887
11
154.054
21
-117.744
0
LINE
8
Black
10
154.054
20
-117.744
11
154.482
21
-117.744
0
LINE
8
Black
10
154.482
20
-117.744
11
154.768
21
-117.887
0
LINE
8
Black
10
154.768
20
-117.887
11
154.911
21
-118.173
0
LINE
8
Black
10
154.911
20
-118.173
11
154.911
21
-119.744
0
LINE
8
Black
10
156.339
20
-119.744
11
156.339
21
-117.744
0
LINE
8
Black
10
156.339
20
-118.03
11
156.482
21
-117.887
0
LINE
8
Black
10
156.482
20
-117.887
11
156.768
21
-117.744
0
LINE
8
Black
10
156.768
20
-117.744
11
157.196
21
-117.744
0
LINE
8
Black
10
157.196
20
-117.744
11
157.482
21
-117.887
0
LINE
8
Black
10
157.482
20
-117.887
11
157.625
21
-118.173
0
LINE
8
Black
10
157.625
20
-118.173
11
157.625
21
-119.744
0
LINE
8
Black
10
157.625
20
-118.173
11
157.768
21
-117.887
0
LINE
8
Black
10
157.768
20
-117.887
11
158.054
21
-117.744
0
LINE
8
Black
10
158.054
20
-117.744
11
158.482
21
-117.744
0
LINE
8
Black
10
158.482
20
-117.744
11
158.768
21
-117.887
0
LINE
8
Black
10
158.768
20
-117.887
11
158.911
21
-118.173
0
LINE
8
Black
10
158.911
20
-118.173
11
158.911
21
-119.744
0
LINE
8
Black
10
164.768
20
-116.601
11
162.196
21
-120.458
0
LINE
8
Black
10
168.625
20
-116.744
11
168.911
21
-116.744
0
LINE
8
Black
10
168.911
20
-116.744
11
169.196
21
-116.887
0
LINE
8
Black
10
169.196
20
-116.887
11
169.339
21
-117.03
0
LINE
8
Black
10
169.339
20
-117.03
11
169.482
21
-117.316
0
LINE
8
Black
10
169.482
20
-117.316
11
169.625
21
-117.887
0
LINE
8
Black
10
169.625
20
-117.887
11
169.625
21
-118.601
0
LINE
8
Black
10
169.625
20
-118.601
11
169.482
21
-119.173
0
LINE
8
Black
10
169.482
20
-119.173
11
169.339
21
-119.458
0
LINE
8
Black
10
169.339
20
-119.458
11
169.196
21
-119.601
0
LINE
8
Black
10
169.196
20
-119.601
11
168.911
21
-119.744
0
LINE
8
Black
10
168.911
20
-119.744
11
168.625
21
-119.744
0
LINE
8
Black
10
168.625
20
-119.744
11
168.339
21
-119.601
0
LINE
8
Black
10
168.339
20
-119.601
11
168.196
21
-119.458
0
LINE
8
Black
10
168.196
20
-119.458
11
168.054
21
-119.173
0
LINE
8
Black
10
168.054
20
-119.173
11
167.911
21
-118.601
0
LINE
8
Black
10
167.911
20
-118.601
11
167.911
21
-117.887
0
LINE
8
Black
10
167.911
20
-117.887
11
168.054
21
-117.316
0
LINE
8
Black
10
168.054
20
-117.316
11
168.196
21
-117.03
0
LINE
8
Black
10
168.196
20
-117.03
11
168.339
21
-116.887
0
LINE
8
Black
10
168.339
20
-116.887
11
168.625
21
-116.744
0
LINE
8
Black
10
170.911
20
-119.458
11
171.054
21
-119.601
0
LINE
8
Black
10
171.054
20
-119.601
11
170.911
21
-119.744
0
LINE
8
Black
10
170.911
20
-119.744
11
170.768
21
-119.601
0
LINE
8
Black
10
170.768
20
-119.601
11
170.911
21
-119.458
0
LINE
8
Black
10
170.911
20
-119.458
11
170.911
21
-119.744
0
LINE
8
Black
10
172.911
20
-116.744
11
173.196
21
-116.744
0
LINE
8
Black
10
173.196
20
-116.744
11
173.482
21
-116.887
0
LINE
8
Black
10
173.482
20
-116.887
11
173.625
21
-117.03
0
LINE
8
Black
10
173.625
20
-117.03
11
173.768
21
-117.316
0
LINE
8
Black
10
173.768
20
-117.316
11
173.911
21
-117.887
0
LINE
8
Black
10
173.911
20
-117.887
11
173.911
21
-118.601
0
LINE
8
Black
10
173.911
20
-118.601
11
173.768
21
-119.173
0
LINE
8
Black
10
173.768
20
-119.173
11
173.625
21
-119.458
0
LINE
8
Black
10
173.625
20
-119.458
11
173.482
21
-119.601
0
LINE
8
Black
10
173.482
20
-119.601
11
173.196
21
-119.744
0
LINE
8
Black
10
173.196
20
-119.744
11
172.911
21
-119.744
0
LINE
8
Black
10
172.911
20
-119.744
11
172.625
21
-119.601
0
LINE
8
Black
10
172.625
20
-119.601
11
172.482
21
-119.458
0
LINE
8
Black
10
172.482
20
-119.458
11
172.339
21
-119.173
0
LINE
8
Black
10
172.339
20
-119.173
11
172.196
21
-118.601
0
LINE
8
Black
10
172.196
20
-118.601
11
172.196
21
-117.887
0
LINE
8
Black
10
172.196
20
-117.887
11
172.339
21
-117.316
0
LINE
8
Black
10
172.339
20
-117.316
11
172.482
21
-117.03
0
LINE
8
Black
10
172.482
20
-117.03
11
172.625
21
-116.887
0
LINE
8
Black
10
172.625
20
-116.887
11
172.911
21
-116.744
0
LINE
8
Black
10
176.482
20
-117.744
11
176.482
21
-119.744
0
LINE
8
Black
10
175.768
20
-116.601
11
175.054
21
-118.744
0
LINE
8
Black
10
175.054
20
-118.744
11
176.911
21
-118.744
0
LINE
8
Black
10
178.625
20
-116.744
11
178.911
21
-116.744
0
LINE
8
Black
10
178.911
20
-116.744
11
179.196
21
-116.887
0
LINE
8
Black
10
179.196
20
-116.887
11
179.339
21
-117.03
0
LINE
8
Black
10
179.339
20
-117.03
11
179.482
21
-117.316
0
LINE
8
Black
10
179.482
20
-117.316
11
179.625
21
-117.887
0
LINE
8
Black
10
179.625
20
-117.887
11
179.625
21
-118.601
0
LINE
8
Black
10
179.625
20
-118.601
11
179.482
21
-119.173
0
LINE
8
Black
10
179.482
20
-119.173
11
179.339
21
-119.458
0
LINE
8
Black
10
179.339
20
-119.458
11
179.196
21
-119.601
0
LINE
8
Black
10
179.196
20
-119.601
11
178.911
21
-119.744
0
LINE
8
Black
10
178.911
20
-119.744
11
178.625
21
-119.744
0
LINE
8
Black
10
178.625
20
-119.744
11
178.339
21
-119.601
0
LINE
8
Black
10
178.339
20
-119.601
11
178.196
21
-119.458
0
LINE
8
Black
10
178.196
20
-119.458
11
178.054
21
-119.173
0
LINE
8
Black
10
178.054
20
-119.173
11
177.911
21
-118.601
0
LINE
8
Black
10
177.911
20
-118.601
11
177.911
21
-117.887
0
LINE
8
Black
10
177.911
20
-117.887
11
178.054
21
-117.316
0
LINE
8
Black
10
178.054
20
-117.316
11
178.196
21
-117.03
0
LINE
8
Black
10
178.196
20
-117.03
11
178.339
21
-116.887
0
LINE
8
Black
10
178.339
20
-116.887
11
178.625
21
-116.744
0
LINE
8
Black
10
180.768
20
-116.744
11
180.768
21
-117.316
0
LINE
8
Black
10
181.911
20
-116.744
11
181.911
21
-117.316
0
LINE
8
Black
10
186.339
20
-120.887
11
186.196
21
-120.744
0
LINE
8
Black
10
186.196
20
-120.744
11
185.911
21
-120.316
0
LINE
8
Black
10
185.911
20
-120.316
11
185.768
21
-120.03
0
LINE
8
Black
10
185.768
20
-120.03
11
185.625
21
-119.601
0
LINE
8
Black
10
185.625
20
-119.601
11
185.482
21
-118.887
0
LINE
8
Black
10
185.482
20
-118.887
11
185.482
21
-118.316
0
LINE
8
Black
10
185.482
20
-118.316
11
185.625
21
-117.601
0
LINE
8
Black
10
185.625
20
-117.601
11
185.768
21
-117.173
0
LINE
8
Black
10
185.768
20
-117.173
11
185.911
21
-116.887
0
LINE
8
Black
10
185.911
20
-116.887
11
186.196
21
-116.458
0
LINE
8
Black
10
186.196
20
-116.458
11
186.339
21
-116.316
0
LINE
8
Black
10
187.196
20
-116.744
11
189.054
21
-116.744
0
LINE
8
Black
10
189.054
20
-116.744
11
188.054
21
-117.887
0
LINE
8
Black
10
188.054
20
-117.887
11
188.482
21
-117.887
0
LINE
8
Black
10
188.482
20
-117.887
11
188.768
21
-118.03
0
LINE
8
Black
10
188.768
20
-118.03
11
188.911
21
-118.173
0
LINE
8
Black
10
188.911
20
-118.173
11
189.054
21
-118.458
0
LINE
8
Black
10
189.054
20
-118.458
11
189.054
21
-119.173
0
LINE
8
Black
10
189.054
20
-119.173
11
188.911
21
-119.458
0
LINE
8
Black
10
188.911
20
-119.458
11
188.768
21
-119.601
0
LINE
8
Black
10
188.768
20
-119.601
11
188.482
21
-119.744
0
LINE
8
Black
10
188.482
20
-119.744
11
187.625
21
-119.744
0
LINE
8
Black
10
187.625
20
-119.744
11
187.339
21
-119.601
0
LINE
8
Black
10
187.339
20
-119.601
11
187.196
21
-119.458
0
LINE
8
Black
10
192.625
20
-119.744
11
192.625
21
-116.744
0
LINE
8
Black
10
193.911
20
-119.744
11
193.911
21
-118.173
0
LINE
8
Black
10
193.911
20
-118.173
11
193.768
21
-117.887
0
LINE
8
Black
10
193.768
20
-117.887
11
193.482
21
-117.744
0
LINE
8
Black
10
193.482
20
-117.744
11
193.054
21
-117.744
0
LINE
8
Black
10
193.054
20
-117.744
11
192.768
21
-117.887
0
LINE
8
Black
10
192.768
20
-117.887
11
192.625
21
-118.03
0
LINE
8
Black
10
195.768
20
-119.744
11
195.482
21
-119.601
0
LINE
8
Black
10
195.482
20
-119.601
11
195.339
21
-119.458
0
LINE
8
Black
10
195.339
20
-119.458
11
195.196
21
-119.173
0
LINE
8
Black
10
195.196
20
-119.173
11
195.196
21
-118.316
0
LINE
8
Black
10
195.196
20
-118.316
11
195.339
21
-118.03
0
LINE
8
Black
10
195.339
20
-118.03
11
195.482
21
-117.887
0
LINE
8
Black
10
195.482
20
-117.887
11
195.768
21
-117.744
0
LINE
8
Black
10
195.768
20
-117.744
11
196.196
21
-117.744
0
LINE
8
Black
10
196.196
20
-117.744
11
196.482
21
-117.887
0
LINE
8
Black
10
196.482
20
-117.887
11
196.625
21
-118.03
0
LINE
8
Black
10
196.625
20
-118.03
11
196.768
21
-118.316
0
LINE
8
Black
10
196.768
20
-118.316
11
196.768
21
-119.173
0
LINE
8
Black
10
196.768
20
-119.173
11
196.625
21
-119.458
0
LINE
8
Black
10
196.625
20
-119.458
11
196.482
21
-119.601
0
LINE
8
Black
10
196.482
20
-119.601
11
196.196
21
-119.744
0
LINE
8
Black
10
196.196
20
-119.744
11
195.768
21
-119.744
0
LINE
8
Black
10
198.482
20
-119.744
11
198.196
21
-119.601
0
LINE
8
Black
10
198.196
20
-119.601
11
198.054
21
-119.316
0
LINE
8
Black
10
198.054
20
-119.316
11
198.054
21
-116.744
0
LINE
8
Black
10
200.768
20
-119.601
11
200.482
21
-119.744
0
LINE
8
Black
10
200.482
20
-119.744
11
199.911
21
-119.744
0
LINE
8
Black
10
199.911
20
-119.744
11
199.625
21
-119.601
0
LINE
8
Black
10
199.625
20
-119.601
11
199.482
21
-119.316
0
LINE
8
Black
10
199.482
20
-119.316
11
199.482
21
-118.173
0
LINE
8
Black
10
199.482
20
-118.173
11
199.625
21
-117.887
0
LINE
8
Black
10
199.625
20
-117.887
11
199.911
21
-117.744
0
LINE
8
Black
10
199.911
20
-117.744
11
200.482
21
-117.744
0
LINE
8
Black
10
200.482
20
-117.744
11
200.768
21
-117.887
0
LINE
8
Black
10
200.768
20
-117.887
11
200.911
21
-118.173
0
LINE
8
Black
10
200.911
20
-118.173
11
200.911
21
-118.458
0
LINE
8
Black
10
200.911
20
-118.458
11
199.482
21
-118.744
0
LINE
8
Black
10
202.054
20
-119.601
11
202.339
21
-119.744
0
LINE
8
Black
10
202.339
20
-119.744
11
202.911
21
-119.744
0
LINE
8
Black
10
202.911
20
-119.744
11
203.196
21
-119.601
0
LINE
8
Black
10
203.196
20
-119.601
11
203.339
21
-119.316
0
LINE
8
Black
10
203.339
20
-119.316
11
203.339
21
-119.173
0
LINE
8
Black
10
203.339
20
-119.173
11
203.196
21
-118.887
0
LINE
8
Black
10
203.196
20
-118.887
11
202.911
21
-118.744
0
LINE
8
Black
10
202.911
20
-118.744
11
202.482
21
-118.744
0
LINE
8
Black
10
202.482
20
-118.744
11
202.196
21
-118.601
0
LINE
8
Black
10
202.196
20
-118.601
11
202.054
21
-118.316
0
LINE
8
Black
10
202.054
20
-118.316
11
202.054
21
-118.173
0
LINE
8
Black
10
202.054
20
-118.173
11
202.196
21
-117.887
0
LINE
8
Black
10
202.196
20
-117.887
11
202.482
21
-117.744
0
LINE
8
Black
10
202.482
20
-117.744
11
202.911
21
-117.744
0
LINE
8
Black
10
202.911
20
-117.744
11
203.196
21
-117.887
0
LINE
8
Black
10
206.911
20
-118.601
11
209.196
21
-118.601
0
LINE
8
Black
10
208.054
20
-119.744
11
208.054
21
-117.458
0
LINE
8
Black
10
213.339
20
-118.03
11
213.054
21
-117.887
0
LINE
8
Black
10
213.054
20
-117.887
11
212.911
21
-117.744
0
LINE
8
Black
10
212.911
20
-117.744
11
212.768
21
-117.458
0
LINE
8
Black
10
212.768
20
-117.458
11
212.768
21
-117.316
0
LINE
8
Black
10
212.768
20
-117.316
11
212.911
21
-117.03
0
LINE
8
Black
10
212.911
20
-117.03
11
213.054
21
-116.887
0
LINE
8
Black
10
213.054
20
-116.887
11
213.339
21
-116.744
0
LINE
8
Black
10
213.339
20
-116.744
11
213.911
21
-116.744
0
LINE
8
Black
10
213.911
20
-116.744
11
214.196
21
-116.887
0
LINE
8
Black
10
214.196
20
-116.887
11
214.339
21
-117.03
0
LINE
8
Black
10
214.339
20
-117.03
11
214.482
21
-117.316
0
LINE
8
Black
10
214.482
20
-117.316
11
214.482
21
-117.458
0
LINE
8
Black
10
214.482
20
-117.458
11
214.339
21
-117.744
0
LINE
8
Black
10
214.339
20
-117.744
11
214.196
21
-117.887
0
LINE
8
Black
10
214.196
20
-117.887
11
213.911
21
-118.03
0
LINE
8
Black
10
213.911
20
-118.03
11
213.339
21
-118.03
0
LINE
8
Black
10
213.339
20
-118.03
11
213.054
21
-118.173
0
LINE
8
Black
10
213.054
20
-118.173
11
212.911
21
-118.316
0
LINE
8
Black
10
212.911
20
-118.316
11
212.768
21
-118.601
0
LINE
8
Black
10
212.768
20
-118.601
11
212.768
21
-119.173
0
LINE
8
Black
10
212.768
20
-119.173
11
212.911
21
-119.458
0
LINE
8
Black
10
212.911
20
-119.458
11
213.054
21
-119.601
0
LINE
8
Black
10
213.054
20
-119.601
11
213.339
21
-119.744
0
LINE
8
Black
10
213.339
20
-119.744
11
213.911
21
-119.744
0
LINE
8
Black
10
213.911
20
-119.744
11
214.196
21
-119.601
0
LINE
8
Black
10
214.196
20
-119.601
11
214.339
21
-119.458
0
LINE
8
Black
10
214.339
20
-119.458
11
214.482
21
-119.173
0
LINE
8
Black
10
214.482
20
-119.173
11
214.482
21
-118.601
0
LINE
8
Black
10
214.482
20
-118.601
11
214.339
21
-118.316
0
LINE
8
Black
10
214.339
20
-118.316
11
214.196
21
-118.173
0
LINE
8
Black
10
214.196
20
-118.173
11
213.911
21
-118.03
0
LINE
8
Black
10
217.911
20
-119.601
11
218.196
21
-119.744
0
LINE
8
Black
10
218.196
20
-119.744
11
218.768
21
-119.744
0
LINE
8
Black
10
218.768
20
-119.744
11
219.054
21
-119.601
0
LINE
8
Black
10
219.054
20
-119.601
11
219.196
21
-119.316
0
LINE
8
Black
10
219.196
20
-119.316
11
219.196
21
-119.173
0
LINE
8
Black
10
219.196
20
-119.173
11
219.054
21
-118.887
0
LINE
8
Black
10
219.054
20
-118.887
11
218.768
21
-118.744
0
LINE
8
Black
10
218.768
20
-118.744
11
218.339
21
-118.744
0
LINE
8
Black
10
218.339
20
-118.744
11
218.054
21
-118.601
0
LINE
8
Black
10
218.054
20
-118.601
11
217.911
21
-118.316
0
LINE
8
Black
10
217.911
20
-118.316
11
217.911
21
-118.173
0
LINE
8
Black
10
217.911
20
-118.173
11
218.054
21
-117.887
0
LINE
8
Black
10
218.054
20
-117.887
11
218.339
21
-117.744
0
LINE
8
Black
10
218.339
20
-117.744
11
218.768
21
-117.744
0
LINE
8
Black
10
218.768
20
-117.744
11
219.054
21
-117.887
0
LINE
8
Black
10
220.911
20
-119.744
11
220.625
21
-119.601
0
LINE
8
Black
10
220.625
20
-119.601
11
220.482
21
-119.316
0
LINE
8
Black
10
220.482
20
-119.316
11
220.482
21
-116.744
0
LINE
8
Black
10
222.482
20
-119.744
11
222.196
21
-119.601
0
LINE
8
Black
10
222.196
20
-119.601
11
222.054
21
-119.458
0
LINE
8
Black
10
222.054
20
-119.458
11
221.911
21
-119.173
0
LINE
8
Black
10
221.911
20
-119.173
11
221.911
21
-118.316
0
LINE
8
Black
10
221.911
20
-118.316
11
222.054
21
-118.03
0
LINE
8
Black
10
222.054
20
-118.03
11
222.196
21
-117.887
0
LINE
8
Black
10
222.196
20
-117.887
11
222.482
21
-117.744
0
LINE
8
Black
10
222.482
20
-117.744
11
222.911
21
-117.744
0
LINE
8
Black
10
222.911
20
-117.744
11
223.196
21
-117.887
0
LINE
8
Black
10
223.196
20
-117.887
11
223.339
21
-118.03
0
LINE
8
Black
10
223.339
20
-118.03
11
223.482
21
-118.316
0
LINE
8
Black
10
223.482
20
-118.316
11
223.482
21
-119.173
0
LINE
8
Black
10
223.482
20
-119.173
11
223.339
21
-119.458
0
LINE
8
Black
10
223.339
20
-119.458
11
223.196
21
-119.601
0
LINE
8
Black
10
223.196
20
-119.601
11
222.911
21
-119.744
0
LINE
8
Black
10
222.911
20
-119.744
11
222.482
21
-119.744
0
LINE
8
Black
10
224.339
20
-117.744
11
225.482
21
-117.744
0
LINE
8
Black
10
224.768
20
-116.744
11
224.768
21
-119.316
0
LINE
8
Black
10
224.768
20
-119.316
11
224.911
21
-119.601
0
LINE
8
Black
10
224.911
20
-119.601
11
225.196
21
-119.744
0
LINE
8
Black
10
225.196
20
-119.744
11
225.482
21
-119.744
0
LINE
8
Black
10
226.339
20
-119.601
11
226.625
21
-119.744
0
LINE
8
Black
10
226.625
20
-119.744
11
227.196
21
-119.744
0
LINE
8
Black
10
227.196
20
-119.744
11
227.482
21
-119.601
0
LINE
8
Black
10
227.482
20
-119.601
11
227.625
21
-119.316
0
LINE
8
Black
10
227.625
20
-119.316
11
227.625
21
-119.173
0
LINE
8
Black
10
227.625
20
-119.173
11
227.482
21
-118.887
0
LINE
8
Black
10
227.482
20
-118.887
11
227.196
21
-118.744
0
LINE
8
Black
10
227.196
20
-118.744
11
226.768
21
-118.744
0
LINE
8
Black
10
226.768
20
-118.744
11
226.482
21
-118.601
0
LINE
8
Black
10
226.482
20
-118.601
11
226.339
21
-118.316
0
LINE
8
Black
10
226.339
20
-118.316
11
226.339
21
-118.173
0
LINE
8
Black
10
226.339
20
-118.173
11
226.482
21
-117.887
0
LINE
8
Black
10
226.482
20
-117.887
11
226.768
21
-117.744
0
LINE
8
Black
10
226.768
20
-117.744
11
227.196
21
-117.744
0
LINE
8
Black
10
227.196
20
-117.744
11
227.482
21
-117.887
0
LINE
8
Black
10
228.625
20
-120.887
11
228.768
21
-120.744
0
LINE
8
Black
10
228.768
20
-120.744
11
229.054
21
-120.316
0
LINE
8
Black
10
229.054
20
-120.316
11
229.196
21
-120.03
0
LINE
8
Black
10
229.196
20
-120.03
11
229.339
21
-119.601
0
LINE
8
Black
10
229.339
20
-119.601
11
229.482
21
-118.887
0
LINE
8
Black
10
229.482
20
-118.887
11
229.482
21
-118.316
0
LINE
8
Black
10
229.482
20
-118.316
11
229.339
21
-117.601
0
LINE
8
Black
10
229.339
20
-117.601
11
229.196
21
-117.173
0
LINE
8
Black
10
229.196
20
-117.173
11
229.054
21
-116.887
0
LINE
8
Black
10
229.054
20
-116.887
11
228.768
21
-116.458
0
LINE
8
Black
10
228.768
20
-116.458
11
228.625
21
-116.316
0
CIRCLE
8
Black
10
138.275
20
-122.347
40
1.35
0
LINE
8
Black
10
142.196
20
-120.99
11
142.339
21
-120.847
0
LINE
8
Black
10
142.339
20
-120.847
11
142.625
21
-120.704
0
LINE
8
Black
10
142.625
20
-120.704
11
143.339
21
-120.704
0
LINE
8
Black
10
143.339
20
-120.704
11
143.625
21
-120.847
0
LINE
8
Black
10
143.625
20
-120.847
11
143.768
21
-120.99
0
LINE
8
Black
10
143.768
20
-120.99
11
143.911
21
-121.276
0
LINE
8
Black
10
143.911
20
-121.276
11
143.911
21
-121.561
0
LINE
8
Black
10
143.911
20
-121.561
11
143.768
21
-121.99
0
LINE
8
Black
10
143.768
20
-121.99
11
142.054
21
-123.704
0
LINE
8
Black
10
142.054
20
-123.704
11
143.911
21
-123.704
0
LINE
8
Black
10
145.196
20
-123.418
11
145.339
21
-123.561
0
LINE
8
Black
10
145.339
20
-123.561
11
145.196
21
-123.704
0
LINE
8
Black
10
145.196
20
-123.704
11
145.054
21
-123.561
0
LINE
8
Black
10
145.054
20
-123.561
11
145.196
21
-123.418
0
LINE
8
Black
10
145.196
20
-123.418
11
145.196
21
-123.704
0
LINE
8
Black
10
146.339
20
-120.704
11
148.339
21
-120.704
0
LINE
8
Black
10
148.339
20
-120.704
11
147.054
21
-123.704
0
LINE
8
Black
10
150.054
20
-120.704
11
150.339
21
-120.704
0
LINE
8
Black
10
150.339
20
-120.704
11
150.625
21
-120.847
0
LINE
8
Black
10
150.625
20
-120.847
11
150.768
21
-120.99
0
LINE
8
Black
10
150.768
20
-120.99
11
150.911
21
-121.276
0
LINE
8
Black
10
150.911
20
-121.276
11
151.054
21
-121.847
0
LINE
8
Black
10
151.054
20
-121.847
11
151.054
21
-122.561
0
LINE
8
Black
10
151.054
20
-122.561
11
150.911
21
-123.133
0
LINE
8
Black
10
150.911
20
-123.133
11
150.768
21
-123.418
0
LINE
8
Black
10
150.768
20
-123.418
11
150.625
21
-123.561
0
LINE
8
Black
10
150.625
20
-123.561
11
150.339
21
-123.704
0
LINE
8
Black
10
150.339
20
-123.704
11
150.054
21
-123.704
0
LINE
8
Black
10
150.054
20
-123.704
11
149.768
21
-123.561
0
LINE
8
Black
10
149.768
20
-123.561
11
149.625
21
-123.418
0
LINE
8
Black
10
149.625
20
-123.418
11
149.482
21
-123.133
0
LINE
8
Black
10
149.482
20
-123.133
11
149.339
21
-122.561
0
LINE
8
Black
10
149.339
20
-122.561
11
149.339
21
-121.847
0
LINE
8
Black
10
149.339
20
-121.847
11
149.482
21
-121.276
0
LINE
8
Black
10
149.482
20
-121.276
11
149.625
21
-120.99
0
LINE
8
Black
10
149.625
20
-120.99
11
149.768
21
-120.847
0
LINE
8
Black
10
149.768
20
-120.847
11
150.054
21
-120.704
0
LINE
8
Black
10
152.339
20
-123.704
11
152.339
21
-121.704
0
LINE
8
Black
10
152.339
20
-121.99
11
152.482
21
-121.847
0
LINE
8
Black
10
152.482
20
-121.847
11
152.768
21
-121.704
0
LINE
8
Black
10
152.768
20
-121.704
11
153.196
21
-121.704
0
LINE
8
Black
10
153.196
20
-121.704
11
153.482
21
-121.847
0
LINE
8
Black
10
153.482
20
-121.847
11
153.625
21
-122.133
0
LINE
8
Black
10
153.625
20
-122.133
11
153.625
21
-123.704
0
LINE
8
Black
10
153.625
20
-122.133
11
153.768
21
-121.847
0
LINE
8
Black
10
153.768
20
-121.847
11
154.054
21
-121.704
0
LINE
8
Black
10
154.054
20
-121.704
11
154.482
21
-121.704
0
LINE
8
Black
10
154.482
20
-121.704
11
154.768
21
-121.847
0
LINE
8
Black
10
154.768
20
-121.847
11
154.911
21
-122.133
0
LINE
8
Black
10
154.911
20
-122.133
11
154.911
21
-123.704
0
LINE
8
Black
10
156.339
20
-123.704
11
156.339
21
-121.704
0
LINE
8
Black
10
156.339
20
-121.99
11
156.482
21
-121.847
0
LINE
8
Black
10
156.482
20
-121.847
11
156.768
21
-121.704
0
LINE
8
Black
10
156.768
20
-121.704
11
157.196
21
-121.704
0
LINE
8
Black
10
157.196
20
-121.704
11
157.482
21
-121.847
0
LINE
8
Black
10
157.482
20
-121.847
11
157.625
21
-122.133
0
LINE
8
Black
10
157.625
20
-122.133
11
157.625
21
-123.704
0
LINE
8
Black
10
157.625
20
-122.133
11
157.768
21
-121.847
0
LINE
8
Black
10
157.768
20
-121.847
11
158.054
21
-121.704
0
LINE
8
Black
10
158.054
20
-121.704
11
158.482
21
-121.704
0
LINE
8
Black
10
158.482
20
-121.704
11
158.768
21
-121.847
0
LINE
8
Black
10
158.768
20
-121.847
11
158.911
21
-122.133
0
LINE
8
Black
10
158.911
20
-122.133
11
158.911
21
-123.704
0
LINE
8
Black
10
164.768
20
-120.561
11
162.196
21
-124.418
0
LINE
8
Black
10
168.625
20
-120.704
11
168.911
21
-120.704
0
LINE
8
Black
10
168.911
20
-120.704
11
169.196
21
-120.847
0
LINE
8
Black
10
169.196
20
-120.847
11
169.339
21
-120.99
0
LINE
8
Black
10
169.339
20
-120.99
11
169.482
21
-121.276
0
LINE
8
Black
10
169.482
20
-121.276
11
169.625
21
-121.847
0
LINE
8
Black
10
169.625
20
-121.847
11
169.625
21
-122.561
0
LINE
8
Black
10
169.625
20
-122.561
11
169.482
21
-123.133
0
LINE
8
Black
10
169.482
20
-123.133
11
169.339
21
-123.418
0
LINE
8
Black
10
169.339
20
-123.418
11
169.196
21
-123.561
0
LINE
8
Black
10
169.196
20
-123.561
11
168.911
21
-123.704
0
LINE
8
Black
10
168.911
20
-123.704
11
168.625
21
-123.704
0
LINE
8
Black
10
168.625
20
-123.704
11
168.339
21
-123.561
0
LINE
8
Black
10
168.339
20
-123.561
11
168.196
21
-123.418
0
LINE
8
Black
10
168.196
20
-123.418
11
168.054
21
-123.133
0
LINE
8
Black
10
168.054
20
-123.133
11
167.911
21
-122.561
0
LINE
8
Black
10
167.911
20
-122.561
11
167.911
21
-121.847
0
LINE
8
Black
10
167.911
20
-121.847
11
168.054
21
-121.276
0
LINE
8
Black
10
168.054
20
-121.276
11
168.196
21
-120.99
0
LINE
8
Black
10
168.196
20
-120.99
11
168.339
21
-120.847
0
LINE
8
Black
10
168.339
20
-120.847
11
168.625
21
-120.704
0
LINE
8
Black
10
170.911
20
-123.418
11
171.054
21
-123.561
0
LINE
8
Black
10
171.054
20
-123.561
11
170.911
21
-123.704
0
LINE
8
Black
10
170.911
20
-123.704
11
170.768
21
-123.561
0
LINE
8
Black
10
170.768
20
-123.561
11
170.911
21
-123.418
0
LINE
8
Black
10
170.911
20
-123.418
11
170.911
21
-123.704
0
LINE
8
Black
10
173.911
20
-123.704
11
172.196
21
-123.704
0
LINE
8
Black
10
173.054
20
-123.704
11
173.054
21
-120.704
0
LINE
8
Black
10
173.054
20
-120.704
11
172.768
21
-121.133
0
LINE
8
Black
10
172.768
20
-121.133
11
172.482
21
-121.418
0
LINE
8
Black
10
172.482
20
-121.418
11
172.196
21
-121.561
0
LINE
8
Black
10
175.768
20
-120.704
11
176.054
21
-120.704
0
LINE
8
Black
10
176.054
20
-120.704
11
176.339
21
-120.847
0
LINE
8
Black
10
176.339
20
-120.847
11
176.482
21
-120.99
0
LINE
8
Black
10
176.482
20
-120.99
11
176.625
21
-121.276
0
LINE
8
Black
10
176.625
20
-121.276
11
176.768
21
-121.847
0
LINE
8
Black
10
176.768
20
-121.847
11
176.768
21
-122.561
0
LINE
8
Black
10
176.768
20
-122.561
11
176.625
21
-123.133
0
LINE
8
Black
10
176.625
20
-123.133
11
176.482
21
-123.418
0
LINE
8
Black
10
176.482
20
-123.418
11
176.339
21
-123.561
0
LINE
8
Black
10
176.339
20
-123.561
11
176.054
21
-123.704
0
LINE
8
Black
10
176.054
20
-123.704
11
175.768
21
-123.704
0
LINE
8
Black
10
175.768
20
-123.704
11
175.482
21
-123.561
0
LINE
8
Black
10
175.482
20
-123.561
11
175.339
21
-123.418
0
LINE
8
Black
10
175.339
20
-123.418
11
175.196
21
-123.133
0
LINE
8
Black
10
175.196
20
-123.133
11
175.054
21
-122.561
0
LINE
8
Black
10
175.054
20
-122.561
11
175.054
21
-121.847
0
LINE
8
Black
10
175.054
20
-121.847
11
175.196
21
-121.276
0
LINE
8
Black
10
175.196
20
-121.276
11
175.339
21
-120.99
0
LINE
8
Black
10
175.339
20
-120.99
11
175.482
21
-120.847
0
LINE
8
Black
10
175.482
20
-120.847
11
175.768
21
-120.704
0
LINE
8
Black
10
179.339
20
-120.704
11
178.768
21
-120.704
0
LINE
8
Black
10
178.768
20
-120.704
11
178.482
21
-120.847
0
LINE
8
Black
10
178.482
20
-120.847
11
178.339
21
-120.99
0
LINE
8
Black
10
178.339
20
-120.99
11
178.054
21
-121.418
0
LINE
8
Black
10
178.054
20
-121.418
11
177.911
21
-121.99
0
LINE
8
Black
10
177.911
20
-121.99
11
177.911
21
-123.133
0
LINE
8
Black
10
177.911
20
-123.133
11
178.054
21
-123.418
0
LINE
8
Black
10
178.054
20
-123.418
11
178.196
21
-123.561
0
LINE
8
Black
10
178.196
20
-123.561
11
178.482
21
-123.704
0
LINE
8
Black
10
178.482
20
-123.704
11
179.054
21
-123.704
0
LINE
8
Black
10
179.054
20
-123.704
11
179.339
21
-123.561
0
LINE
8
Black
10
179.339
20
-123.561
11
179.482
21
-123.418
0
LINE
8
Black
10
179.482
20
-123.418
11
179.625
21
-123.133
0
LINE
8
Black
10
179.625
20
-123.133
11
179.625
21
-122.418
0
LINE
8
Black
10
179.625
20
-122.418
11
179.482
21
-122.133
0
LINE
8
Black
10
179.482
20
-122.133
11
179.339
21
-121.99
0
LINE
8
Black
10
179.339
20
-121.99
11
179.054
21
-121.847
0
LINE
8
Black
10
179.054
20
-121.847
11
178.482
21
-121.847
0
LINE
8
Black
10
178.482
20
-121.847
11
178.196
21
-121.99
0
LINE
8
Black
10
178.196
20
-121.99
11
178.054
21
-122.133
0
LINE
8
Black
10
178.054
20
-122.133
11
177.911
21
-122.418
0
LINE
8
Black
10
180.768
20
-120.704
11
180.768
21
-121.276
0
LINE
8
Black
10
181.911
20
-120.704
11
181.911
21
-121.276
0
LINE
8
Black
10
186.339
20
-124.847
11
186.196
21
-124.704
0
LINE
8
Black
10
186.196
20
-124.704
11
185.911
21
-124.276
0
LINE
8
Black
10
185.911
20
-124.276
11
185.768
21
-123.99
0
LINE
8
Black
10
185.768
20
-123.99
11
185.625
21
-123.561
0
LINE
8
Black
10
185.625
20
-123.561
11
185.482
21
-122.847
0
LINE
8
Black
10
185.482
20
-122.847
11
185.482
21
-122.276
0
LINE
8
Black
10
185.482
20
-122.276
11
185.625
21
-121.561
0
LINE
8
Black
10
185.625
20
-121.561
11
185.768
21
-121.133
0
LINE
8
Black
10
185.768
20
-121.133
11
185.911
21
-120.847
0
LINE
8
Black
10
185.911
20
-120.847
11
186.196
21
-120.418
0
LINE
8
Black
10
186.196
20
-120.418
11
186.339
21
-120.276
0
LINE
8
Black
10
187.339
20
-120.99
11
187.482
21
-120.847
0
LINE
8
Black
10
187.482
20
-120.847
11
187.768
21
-120.704
0
LINE
8
Black
10
187.768
20
-120.704
11
188.482
21
-120.704
0
LINE
8
Black
10
188.482
20
-120.704
11
188.768
21
-120.847
0
LINE
8
Black
10
188.768
20
-120.847
11
188.911
21
-120.99
0
LINE
8
Black
10
188.911
20
-120.99
11
189.054
21
-121.276
0
LINE
8
Black
10
189.054
20
-121.276
11
189.054
21
-121.561
0
LINE
8
Black
10
189.054
20
-121.561
11
188.911
21
-121.99
0
LINE
8
Black
10
188.911
20
-121.99
11
187.196
21
-123.704
0
LINE
8
Black
10
187.196
20
-123.704
11
189.054
21
-123.704
0
LINE
8
Black
10
192.625
20
-123.704
11
192.625
21
-120.704
0
LINE
8
Black
10
193.911
20
-123.704
11
193.911
21
-122.133
0
LINE
8
Black
10
193.911
20
-122.133
11
193.768
21
-121.847
0
LINE
8
Black
10
193.768
20
-121.847
11
193.482
21
-121.704
0
LINE
8
Black
10
193.482
20
-121.704
11
193.054
21
-121.704
0
LINE
8
Black
10
193.054
20
-121.704
11
192.768
21
-121.847
0
LINE
8
Black
10
192.768
20
-121.847
11
192.625
21
-121.99
0
LINE
8
Black
10
195.768
20
-123.704
11
195.482
21
-123.561
0
LINE
8
Black
10
195.482
20
-123.561
11
195.339
21
-123.418
0
LINE
8
Black
10
195.339
20
-123.418
11
195.196
21
-123.133
0
LINE
8
Black
10
195.196
20
-123.133
11
195.196
21
-122.276
0
LINE
8
Black
10
195.196
20
-122.276
11
195.339
21
-121.99
0
LINE
8
Black
10
195.339
20
-121.99
11
195.482
21
-121.847
0
LINE
8
Black
10
195.482
20
-121.847
11
195.768
21
-121.704
0
LINE
8
Black
10
195.768
20
-121.704
11
196.196
21
-121.704
0
LINE
8
Black
10
196.196
20
-121.704
11
196.482
21
-121.847
0
LINE
8
Black
10
196.482
20
-121.847
11
196.625
21
-121.99
0
LINE
8
Black
10
196.625
20
-121.99
11
196.768
21
-122.276
0
LINE
8
Black
10
196.768
20
-122.276
11
196.768
21
-123.133
0
LINE
8
Black
10
196.768
20
-123.133
11
196.625
21
-123.418
0
LINE
8
Black
10
196.625
20
-123.418
11
196.482
21
-123.561
0
LINE
8
Black
10
196.482
20
-123.561
11
196.196
21
-123.704
0
LINE
8
Black
10
196.196
20
-123.704
11
195.768
21
-123.704
0
LINE
8
Black
10
198.482
20
-123.704
11
198.196
21
-123.561
0
LINE
8
Black
10
198.196
20
-123.561
11
198.054
21
-123.276
0
LINE
8
Black
10
198.054
20
-123.276
11
198.054
21
-120.704
0
LINE
8
Black
10
200.768
20
-123.561
11
200.482
21
-123.704
0
LINE
8
Black
10
200.482
20
-123.704
11
199.911
21
-123.704
0
LINE
8
Black
10
199.911
20
-123.704
11
199.625
21
-123.561
0
LINE
8
Black
10
199.625
20
-123.561
11
199.482
21
-123.276
0
LINE
8
Black
10
199.482
20
-123.276
11
199.482
21
-122.133
0
LINE
8
Black
10
199.482
20
-122.133
11
199.625
21
-121.847
0
LINE
8
Black
10
199.625
20
-121.847
11
199.911
21
-121.704
0
LINE
8
Black
10
199.911
20
-121.704
11
200.482
21
-121.704
0
LINE
8
Black
10
200.482
20
-121.704
11
200.768
21
-121.847
0
LINE
8
Black
10
200.768
20
-121.847
11
200.911
21
-122.133
0
LINE
8
Black
10
200.911
20
-122.133
11
200.911
21
-122.418
0
LINE
8
Black
10
200.911
20
-122.418
11
199.482
21
-122.704
0
LINE
8
Black
10
202.054
20
-123.561
11
202.339
21
-123.704
0
LINE
8
Black
10
202.339
20
-123.704
11
202.911
21
-123.704
0
LINE
8
Black
10
202.911
20
-123.704
11
203.196
21
-123.561
0
LINE
8
Black
10
203.196
20
-123.561
11
203.339
21
-123.276
0
LINE
8
Black
10
203.339
20
-123.276
11
203.339
21
-123.133
0
LINE
8
Black
10
203.339
20
-123.133
11
203.196
21
-122.847
0
LINE
8
Black
10
203.196
20
-122.847
11
202.911
21
-122.704
0
LINE
8
Black
10
202.911
20
-122.704
11
202.482
21
-122.704
0
LINE
8
Black
10
202.482
20
-122.704
11
202.196
21
-122.561
0
LINE
8
Black
10
202.196
20
-122.561
11
202.054
21
-122.276
0
LINE
8
Black
10
202.054
20
-122.276
11
202.054
21
-122.133
0
LINE
8
Black
10
202.054
20
-122.133
11
202.196
21
-121.847
0
LINE
8
Black
10
202.196
20
-121.847
11
202.482
21
-121.704
0
LINE
8
Black
10
202.482
20
-121.704
11
202.911
21
-121.704
0
LINE
8
Black
10
202.911
20
-121.704
11
203.196
21
-121.847
0
LINE
8
Black
10
204.339
20
-124.847
11
204.482
21
-124.704
0
LINE
8
Black
10
204.482
20
-124.704
11
204.768
21
-124.276
0
LINE
8
Black
10
204.768
20
-124.276
11
204.911
21
-123.99
0
LINE
8
Black
10
204.911
20
-123.99
11
205.054
21
-123.561
0
LINE
8
Black
10
205.054
20
-123.561
11
205.196
21
-122.847
0
LINE
8
Black
10
205.196
20
-122.847
11
205.196
21
-122.276
0
LINE
8
Black
10
205.196
20
-122.276
11
205.054
21
-121.561
0
LINE
8
Black
10
205.054
20
-121.561
11
204.911
21
-121.133
0
LINE
8
Black
10
204.911
20
-121.133
11
204.768
21
-120.847
0
LINE
8
Black
10
204.768
20
-120.847
11
204.482
21
-120.418
0
LINE
8
Black
10
204.482
20
-120.418
11
204.339
21
-120.276
  0
ENDSEC
  0
EOF
