  0
SECTION
  2
HEADER
  9
$ANGBASE
  50
0.0
  9
$ANGDIR
  70
  1
  9
$MEASUREMENT
  70
0
  0
ENDSEC
  0
SECTION
  2
TABLES
  0
TABLE
  2
LTYPE
  70
1
  0
LTYPE
  2
CONTINUOUS
  70
0
  3
Solid line
  72
65
  73
0
  40
0.0
  0
ENDTAB
  0
TABLE
  2
STYLE
  70
4
  0
STYLE
  2
KICAD
  70
0
  40
0
  41
1
  42
1
  50
0
  71
0
  3
isocp.shx
  0
STYLE
  2
KICADB
  70
0
  40
0
  41
1
  42
1
  50
0
  71
0
  3
isocp.shx
  0
STYLE
  2
KICADI
  70
0
  40
0
  41
1
  42
1
  50
15
  71
0
  3
isocp.shx
  0
STYLE
  2
KICADBI
  70
0
  40
0
  41
1
  42
1
  50
15
  71
0
  3
isocp.shx
  0
ENDTAB
  0
TABLE
  2
LAYER
  70
30
  0
LAYER
  2
BLACK
  70
0
  62
7
  6
CONTINUOUS
  0
LAYER
  2
GRAY1
  70
0
  62
251
  6
CONTINUOUS
  0
LAYER
  2
GRAY2
  70
0
  62
8
  6
CONTINUOUS
  0
LAYER
  2
GRAY3
  70
0
  62
9
  6
CONTINUOUS
  0
LAYER
  2
WHITE
  70
0
  62
7
  6
CONTINUOUS
  0
LAYER
  2
LYELLOW
  70
0
  62
51
  6
CONTINUOUS
  0
LAYER
  2
BLUE1
  70
0
  62
178
  6
CONTINUOUS
  0
LAYER
  2
GREEN1
  70
0
  62
98
  6
CONTINUOUS
  0
LAYER
  2
CYAN1
  70
0
  62
138
  6
CONTINUOUS
  0
LAYER
  2
RED1
  70
0
  62
18
  6
CONTINUOUS
  0
LAYER
  2
MAGENTA1
  70
0
  62
228
  6
CONTINUOUS
  0
LAYER
  2
BROWN1
  70
0
  62
58
  6
CONTINUOUS
  0
LAYER
  2
BLUE2
  70
0
  62
5
  6
CONTINUOUS
  0
LAYER
  2
GREEN2
  70
0
  62
3
  6
CONTINUOUS
  0
LAYER
  2
CYAN2
  70
0
  62
4
  6
CONTINUOUS
  0
LAYER
  2
RED2
  70
0
  62
1
  6
CONTINUOUS
  0
LAYER
  2
MAGENTA2
  70
0
  62
6
  6
CONTINUOUS
  0
LAYER
  2
BROWN2
  70
0
  62
54
  6
CONTINUOUS
  0
LAYER
  2
BLUE3
  70
0
  62
171
  6
CONTINUOUS
  0
LAYER
  2
GREEN3
  70
0
  62
91
  6
CONTINUOUS
  0
LAYER
  2
CYAN3
  70
0
  62
131
  6
CONTINUOUS
  0
LAYER
  2
RED3
  70
0
  62
11
  6
CONTINUOUS
  0
LAYER
  2
MAGENTA3
  70
0
  62
221
  6
CONTINUOUS
  0
LAYER
  2
YELLOW3
  70
0
  62
2
  6
CONTINUOUS
  0
LAYER
  2
BLUE4
  70
0
  62
5
  6
CONTINUOUS
  0
LAYER
  2
GREEN4
  70
0
  62
3
  6
CONTINUOUS
  0
LAYER
  2
CYAN4
  70
0
  62
4
  6
CONTINUOUS
  0
LAYER
  2
RED4
  70
0
  62
1
  6
CONTINUOUS
  0
LAYER
  2
MAGENTA4
  70
0
  62
6
  6
CONTINUOUS
  0
LAYER
  2
YELLOW4
  70
0
  62
2
  6
CONTINUOUS
  0
ENDTAB
  0
ENDSEC
  0
SECTION
  2
ENTITIES
0
LINE
8
Black
10
139.7
20
-108.787
11
166.878
21
-108.787
0
LINE
8
Black
10
139.7
20
-108.637
11
166.878
21
-108.637
0
ARC
8
Black
10
166.878
20
-108.712
40
0.075
50
270
51
450
0
ARC
8
Black
10
139.7
20
-108.712
40
0.075
50
90
51
270
0
LINE
8
Black
10
139.775
20
-108.712
11
139.775
21
-97.282
0
LINE
8
Black
10
139.625
20
-108.712
11
139.625
21
-97.282
0
ARC
8
Black
10
139.7
20
-97.282
40
0.075
50
360
51
540
0
ARC
8
Black
10
139.7
20
-108.712
40
0.075
50
180
51
360
0
LINE
8
Black
10
139.7
20
-97.357
11
184.404
21
-97.357
0
LINE
8
Black
10
139.7
20
-97.207
11
184.404
21
-97.207
0
ARC
8
Black
10
184.404
20
-97.282
40
0.075
50
270
51
450
0
ARC
8
Black
10
139.7
20
-97.282
40
0.075
50
90
51
270
0
LINE
8
Black
10
184.479
20
-108.712
11
184.479
21
-97.282
0
LINE
8
Black
10
184.329
20
-108.712
11
184.329
21
-97.282
0
ARC
8
Black
10
184.404
20
-97.282
40
0.075
50
360
51
540
0
ARC
8
Black
10
184.404
20
-108.712
40
0.075
50
180
51
360
0
LINE
8
Black
10
166.878
20
-108.787
11
184.404
21
-108.787
0
LINE
8
Black
10
166.878
20
-108.637
11
184.404
21
-108.637
0
ARC
8
Black
10
184.404
20
-108.712
40
0.075
50
270
51
450
0
ARC
8
Black
10
166.878
20
-108.712
40
0.075
50
90
51
270
0
LINE
8
Black
10
142.339
20
-113.444
11
142.339
21
-110.444
0
LINE
8
Black
10
142.339
20
-110.444
11
143.054
21
-110.444
0
LINE
8
Black
10
143.054
20
-110.444
11
143.482
21
-110.587
0
LINE
8
Black
10
143.482
20
-110.587
11
143.768
21
-110.873
0
LINE
8
Black
10
143.768
20
-110.873
11
143.911
21
-111.158
0
LINE
8
Black
10
143.911
20
-111.158
11
144.054
21
-111.73
0
LINE
8
Black
10
144.054
20
-111.73
11
144.054
21
-112.158
0
LINE
8
Black
10
144.054
20
-112.158
11
143.911
21
-112.73
0
LINE
8
Black
10
143.911
20
-112.73
11
143.768
21
-113.016
0
LINE
8
Black
10
143.768
20
-113.016
11
143.482
21
-113.301
0
LINE
8
Black
10
143.482
20
-113.301
11
143.054
21
-113.444
0
LINE
8
Black
10
143.054
20
-113.444
11
142.339
21
-113.444
0
LINE
8
Black
10
145.339
20
-113.444
11
145.339
21
-111.444
0
LINE
8
Black
10
145.339
20
-112.016
11
145.482
21
-111.73
0
LINE
8
Black
10
145.482
20
-111.73
11
145.625
21
-111.587
0
LINE
8
Black
10
145.625
20
-111.587
11
145.911
21
-111.444
0
LINE
8
Black
10
145.911
20
-111.444
11
146.196
21
-111.444
0
LINE
8
Black
10
147.196
20
-113.444
11
147.196
21
-111.444
0
LINE
8
Black
10
147.196
20
-110.444
11
147.054
21
-110.587
0
LINE
8
Black
10
147.054
20
-110.587
11
147.196
21
-110.73
0
LINE
8
Black
10
147.196
20
-110.73
11
147.339
21
-110.587
0
LINE
8
Black
10
147.339
20
-110.587
11
147.196
21
-110.444
0
LINE
8
Black
10
147.196
20
-110.444
11
147.196
21
-110.73
0
LINE
8
Black
10
149.054
20
-113.444
11
148.768
21
-113.301
0
LINE
8
Black
10
148.768
20
-113.301
11
148.625
21
-113.016
0
LINE
8
Black
10
148.625
20
-113.016
11
148.625
21
-110.444
0
LINE
8
Black
10
150.625
20
-113.444
11
150.339
21
-113.301
0
LINE
8
Black
10
150.339
20
-113.301
11
150.196
21
-113.016
0
LINE
8
Black
10
150.196
20
-113.016
11
150.196
21
-110.444
0
LINE
8
Black
10
154.054
20
-113.444
11
154.054
21
-110.444
0
LINE
8
Black
10
154.054
20
-110.444
11
155.054
21
-112.587
0
LINE
8
Black
10
155.054
20
-112.587
11
156.054
21
-110.444
0
LINE
8
Black
10
156.054
20
-110.444
11
156.054
21
-113.444
0
LINE
8
Black
10
158.768
20
-113.444
11
158.768
21
-111.873
0
LINE
8
Black
10
158.768
20
-111.873
11
158.625
21
-111.587
0
LINE
8
Black
10
158.625
20
-111.587
11
158.339
21
-111.444
0
LINE
8
Black
10
158.339
20
-111.444
11
157.768
21
-111.444
0
LINE
8
Black
10
157.768
20
-111.444
11
157.482
21
-111.587
0
LINE
8
Black
10
158.768
20
-113.301
11
158.482
21
-113.444
0
LINE
8
Black
10
158.482
20
-113.444
11
157.768
21
-113.444
0
LINE
8
Black
10
157.768
20
-113.444
11
157.482
21
-113.301
0
LINE
8
Black
10
157.482
20
-113.301
11
157.339
21
-113.016
0
LINE
8
Black
10
157.339
20
-113.016
11
157.339
21
-112.73
0
LINE
8
Black
10
157.339
20
-112.73
11
157.482
21
-112.444
0
LINE
8
Black
10
157.482
20
-112.444
11
157.768
21
-112.301
0
LINE
8
Black
10
157.768
20
-112.301
11
158.482
21
-112.301
0
LINE
8
Black
10
158.482
20
-112.301
11
158.768
21
-112.158
0
LINE
8
Black
10
160.196
20
-111.444
11
160.196
21
-114.444
0
LINE
8
Black
10
160.196
20
-111.587
11
160.482
21
-111.444
0
LINE
8
Black
10
160.482
20
-111.444
11
161.054
21
-111.444
0
LINE
8
Black
10
161.054
20
-111.444
11
161.339
21
-111.587
0
LINE
8
Black
10
161.339
20
-111.587
11
161.482
21
-111.73
0
LINE
8
Black
10
161.482
20
-111.73
11
161.625
21
-112.016
0
LINE
8
Black
10
161.625
20
-112.016
11
161.625
21
-112.873
0
LINE
8
Black
10
161.625
20
-112.873
11
161.482
21
-113.158
0
LINE
8
Black
10
161.482
20
-113.158
11
161.339
21
-113.301
0
LINE
8
Black
10
161.339
20
-113.301
11
161.054
21
-113.444
0
LINE
8
Black
10
161.054
20
-113.444
11
160.482
21
-113.444
0
LINE
8
Black
10
160.482
20
-113.444
11
160.196
21
-113.301
0
LINE
8
Black
10
162.911
20
-113.158
11
163.054
21
-113.301
0
LINE
8
Black
10
163.054
20
-113.301
11
162.911
21
-113.444
0
LINE
8
Black
10
162.911
20
-113.444
11
162.768
21
-113.301
0
LINE
8
Black
10
162.768
20
-113.301
11
162.911
21
-113.158
0
LINE
8
Black
10
162.911
20
-113.158
11
162.911
21
-113.444
0
LINE
8
Black
10
162.911
20
-111.587
11
163.054
21
-111.73
0
LINE
8
Black
10
163.054
20
-111.73
11
162.911
21
-111.873
0
LINE
8
Black
10
162.911
20
-111.873
11
162.768
21
-111.73
0
LINE
8
Black
10
162.768
20
-111.73
11
162.911
21
-111.587
0
LINE
8
Black
10
162.911
20
-111.587
11
162.911
21
-111.873
  0
ENDSEC
  0
EOF
