  0
SECTION
  2
HEADER
  9
$ANGBASE
  50
0.0
  9
$ANGDIR
  70
  1
  9
$MEASUREMENT
  70
0
  0
ENDSEC
  0
SECTION
  2
TABLES
  0
TABLE
  2
LTYPE
  70
1
  0
LTYPE
  2
CONTINUOUS
  70
0
  3
Solid line
  72
65
  73
0
  40
0.0
  0
ENDTAB
  0
TABLE
  2
STYLE
  70
4
  0
STYLE
  2
KICAD
  70
0
  40
0
  41
1
  42
1
  50
0
  71
0
  3
isocp.shx
  0
STYLE
  2
KICADB
  70
0
  40
0
  41
1
  42
1
  50
0
  71
0
  3
isocp.shx
  0
STYLE
  2
KICADI
  70
0
  40
0
  41
1
  42
1
  50
15
  71
0
  3
isocp.shx
  0
STYLE
  2
KICADBI
  70
0
  40
0
  41
1
  42
1
  50
15
  71
0
  3
isocp.shx
  0
ENDTAB
  0
TABLE
  2
LAYER
  70
30
  0
LAYER
  2
BLACK
  70
0
  62
7
  6
CONTINUOUS
  0
LAYER
  2
GRAY1
  70
0
  62
251
  6
CONTINUOUS
  0
LAYER
  2
GRAY2
  70
0
  62
8
  6
CONTINUOUS
  0
LAYER
  2
GRAY3
  70
0
  62
9
  6
CONTINUOUS
  0
LAYER
  2
WHITE
  70
0
  62
7
  6
CONTINUOUS
  0
LAYER
  2
LYELLOW
  70
0
  62
51
  6
CONTINUOUS
  0
LAYER
  2
BLUE1
  70
0
  62
178
  6
CONTINUOUS
  0
LAYER
  2
GREEN1
  70
0
  62
98
  6
CONTINUOUS
  0
LAYER
  2
CYAN1
  70
0
  62
138
  6
CONTINUOUS
  0
LAYER
  2
RED1
  70
0
  62
18
  6
CONTINUOUS
  0
LAYER
  2
MAGENTA1
  70
0
  62
228
  6
CONTINUOUS
  0
LAYER
  2
BROWN1
  70
0
  62
58
  6
CONTINUOUS
  0
LAYER
  2
BLUE2
  70
0
  62
5
  6
CONTINUOUS
  0
LAYER
  2
GREEN2
  70
0
  62
3
  6
CONTINUOUS
  0
LAYER
  2
CYAN2
  70
0
  62
4
  6
CONTINUOUS
  0
LAYER
  2
RED2
  70
0
  62
1
  6
CONTINUOUS
  0
LAYER
  2
MAGENTA2
  70
0
  62
6
  6
CONTINUOUS
  0
LAYER
  2
BROWN2
  70
0
  62
54
  6
CONTINUOUS
  0
LAYER
  2
BLUE3
  70
0
  62
171
  6
CONTINUOUS
  0
LAYER
  2
GREEN3
  70
0
  62
91
  6
CONTINUOUS
  0
LAYER
  2
CYAN3
  70
0
  62
131
  6
CONTINUOUS
  0
LAYER
  2
RED3
  70
0
  62
11
  6
CONTINUOUS
  0
LAYER
  2
MAGENTA3
  70
0
  62
221
  6
CONTINUOUS
  0
LAYER
  2
YELLOW3
  70
0
  62
2
  6
CONTINUOUS
  0
LAYER
  2
BLUE4
  70
0
  62
5
  6
CONTINUOUS
  0
LAYER
  2
GREEN4
  70
0
  62
3
  6
CONTINUOUS
  0
LAYER
  2
CYAN4
  70
0
  62
4
  6
CONTINUOUS
  0
LAYER
  2
RED4
  70
0
  62
1
  6
CONTINUOUS
  0
LAYER
  2
MAGENTA4
  70
0
  62
6
  6
CONTINUOUS
  0
LAYER
  2
YELLOW4
  70
0
  62
2
  6
CONTINUOUS
  0
ENDTAB
  0
ENDSEC
  0
SECTION
  2
ENTITIES
0
LINE
8
Black
10
140.284
20
-97.9335
11
140.284
21
-97.927
0
LINE
8
Black
10
140.284
20
-97.927
11
140.286
21
-97.9208
0
LINE
8
Black
10
140.286
20
-97.9208
11
140.288
21
-97.9143
0
LINE
8
Black
10
140.288
20
-97.9143
11
140.291
21
-97.9087
0
LINE
8
Black
10
140.291
20
-97.9087
11
140.293
21
-97.9025
0
LINE
8
Black
10
140.293
20
-97.9025
11
140.297
21
-97.8975
0
LINE
8
Black
10
140.297
20
-97.8975
11
140.301
21
-97.8918
0
LINE
8
Black
10
140.301
20
-97.8918
11
140.306
21
-97.8876
0
LINE
8
Black
10
140.306
20
-97.8876
11
140.31
21
-97.8825
0
LINE
8
Black
10
140.31
20
-97.8825
11
140.315
21
-97.8793
0
LINE
8
Black
10
140.315
20
-97.8793
11
140.32
21
-97.875
0
LINE
8
Black
10
140.32
20
-97.875
11
140.327
21
-97.8728
0
LINE
8
Black
10
140.327
20
-97.8728
11
140.332
21
-97.8695
0
LINE
8
Black
10
140.332
20
-97.8695
11
140.339
21
-97.8684
0
LINE
8
Black
10
140.339
20
-97.8684
11
140.345
21
-97.8661
0
LINE
8
Black
10
140.345
20
-97.8661
11
140.352
21
-97.8661
0
LINE
8
Black
10
140.352
20
-97.8661
11
140.358
21
-97.865
0
LINE
8
Black
10
140.358
20
-97.865
11
183.746
21
-97.865
0
LINE
8
Black
10
183.746
20
-97.865
11
183.752
21
-97.8661
0
LINE
8
Black
10
183.752
20
-97.8661
11
183.759
21
-97.8661
0
LINE
8
Black
10
183.759
20
-97.8661
11
183.765
21
-97.8684
0
LINE
8
Black
10
183.765
20
-97.8684
11
183.772
21
-97.8695
0
LINE
8
Black
10
183.772
20
-97.8695
11
183.777
21
-97.8728
0
LINE
8
Black
10
183.777
20
-97.8728
11
183.784
21
-97.875
0
LINE
8
Black
10
183.784
20
-97.875
11
183.789
21
-97.8793
0
LINE
8
Black
10
183.789
20
-97.8793
11
183.794
21
-97.8825
0
LINE
8
Black
10
183.794
20
-97.8825
11
183.798
21
-97.8876
0
LINE
8
Black
10
183.798
20
-97.8876
11
183.803
21
-97.8918
0
LINE
8
Black
10
183.803
20
-97.8918
11
183.807
21
-97.8975
0
LINE
8
Black
10
183.807
20
-97.8975
11
183.811
21
-97.9025
0
LINE
8
Black
10
183.811
20
-97.9025
11
183.813
21
-97.9087
0
LINE
8
Black
10
183.813
20
-97.9087
11
183.816
21
-97.9143
0
LINE
8
Black
10
183.816
20
-97.9143
11
183.818
21
-97.9208
0
LINE
8
Black
10
183.818
20
-97.9208
11
183.82
21
-97.927
0
LINE
8
Black
10
183.82
20
-97.927
11
183.82
21
-97.9335
0
LINE
8
Black
10
183.82
20
-97.9335
11
183.821
21
-97.94
0
LINE
8
Black
10
183.821
20
-97.94
11
183.821
21
-102.096
0
LINE
8
Black
10
183.821
20
-102.096
11
183.82
21
-102.102
0
LINE
8
Black
10
183.82
20
-102.102
11
183.82
21
-102.108
0
LINE
8
Black
10
183.82
20
-102.108
11
183.818
21
-102.115
0
LINE
8
Black
10
183.818
20
-102.115
11
183.816
21
-102.122
0
LINE
8
Black
10
183.816
20
-102.122
11
183.814
21
-102.127
0
LINE
8
Black
10
183.814
20
-102.127
11
183.812
21
-102.132
0
LINE
8
Black
10
183.812
20
-102.132
11
183.807
21
-102.138
0
LINE
8
Black
10
183.807
20
-102.138
11
183.803
21
-102.145
0
LINE
8
Black
10
183.803
20
-102.145
11
183.799
21
-102.148
0
LINE
8
Black
10
183.799
20
-102.148
11
183.795
21
-102.153
0
LINE
8
Black
10
183.795
20
-102.153
11
183.789
21
-102.157
0
LINE
8
Black
10
183.789
20
-102.157
11
183.784
21
-102.161
0
LINE
8
Black
10
183.784
20
-102.161
11
183.778
21
-102.163
0
LINE
8
Black
10
183.778
20
-102.163
11
183.773
21
-102.166
0
LINE
8
Black
10
183.773
20
-102.166
11
183.766
21
-102.168
0
LINE
8
Black
10
183.766
20
-102.168
11
183.759
21
-102.17
0
LINE
8
Black
10
183.759
20
-102.17
11
183.753
21
-102.17
0
LINE
8
Black
10
183.753
20
-102.17
11
183.748
21
-102.171
0
LINE
8
Black
10
183.748
20
-102.171
11
183.74
21
-102.17
0
LINE
8
Black
10
183.74
20
-102.17
11
183.733
21
-102.17
0
LINE
8
Black
10
183.733
20
-102.17
11
183.728
21
-102.168
0
LINE
8
Black
10
183.728
20
-102.168
11
183.722
21
-102.167
0
LINE
8
Black
10
183.722
20
-102.167
11
183.715
21
-102.164
0
LINE
8
Black
10
183.715
20
-102.164
11
183.708
21
-102.161
0
LINE
8
Black
10
183.708
20
-102.161
11
183.704
21
-102.158
0
LINE
8
Black
10
183.704
20
-102.158
11
183.699
21
-102.155
0
LINE
8
Black
10
183.699
20
-102.155
11
183.694
21
-102.149
0
LINE
8
Black
10
183.694
20
-102.149
11
183.689
21
-102.145
0
LINE
8
Black
10
183.689
20
-102.145
11
183.686
21
-102.14
0
LINE
8
Black
10
183.686
20
-102.14
11
183.682
21
-102.135
0
LINE
8
Black
10
183.682
20
-102.135
11
183.679
21
-102.128
0
LINE
8
Black
10
183.679
20
-102.128
11
183.676
21
-102.122
0
LINE
8
Black
10
183.676
20
-102.122
11
183.675
21
-102.116
0
LINE
8
Black
10
183.675
20
-102.116
11
183.672
21
-102.111
0
LINE
8
Black
10
183.672
20
-102.111
11
183.568
21
-101.584
0
LINE
8
Black
10
183.568
20
-101.584
11
183.271
21
-101.139
0
LINE
8
Black
10
183.271
20
-101.139
11
182.826
21
-100.842
0
LINE
8
Black
10
182.826
20
-100.842
11
182.294
21
-100.736
0
LINE
8
Black
10
182.294
20
-100.736
11
181.942
21
-100.736
0
LINE
8
Black
10
181.942
20
-100.736
11
181.41
21
-100.842
0
LINE
8
Black
10
181.41
20
-100.842
11
180.968
21
-101.137
0
LINE
8
Black
10
180.968
20
-101.137
11
180.96
21
-101.141
0
LINE
8
Black
10
180.96
20
-101.141
11
180.952
21
-101.145
0
LINE
8
Black
10
180.952
20
-101.145
11
180.948
21
-101.146
0
LINE
8
Black
10
180.948
20
-101.146
11
180.944
21
-101.148
0
LINE
8
Black
10
180.944
20
-101.148
11
180.935
21
-101.148
0
LINE
8
Black
10
180.935
20
-101.148
11
180.926
21
-101.15
0
LINE
8
Black
10
180.926
20
-101.15
11
179.839
21
-101.15
0
LINE
8
Black
10
179.839
20
-101.15
11
179.466
21
-101.224
0
LINE
8
Black
10
179.466
20
-101.224
11
179.149
21
-101.436
0
LINE
8
Black
10
179.149
20
-101.436
11
175.647
21
-104.938
0
LINE
8
Black
10
175.647
20
-104.938
11
175.644
21
-104.94
0
LINE
8
Black
10
175.644
20
-104.94
11
175.642
21
-104.942
0
LINE
8
Black
10
175.642
20
-104.942
11
175.634
21
-104.947
0
LINE
8
Black
10
175.634
20
-104.947
11
175.626
21
-104.953
0
LINE
8
Black
10
175.626
20
-104.953
11
175.623
21
-104.954
0
LINE
8
Black
10
175.623
20
-104.954
11
175.62
21
-104.955
0
LINE
8
Black
10
175.62
20
-104.955
11
175.61
21
-104.957
0
LINE
8
Black
10
175.61
20
-104.957
11
175.601
21
-104.96
0
LINE
8
Black
10
175.601
20
-104.96
11
175.597
21
-104.959
0
LINE
8
Black
10
175.597
20
-104.959
11
175.594
21
-104.96
0
LINE
8
Black
10
175.594
20
-104.96
11
170.354
21
-104.96
0
LINE
8
Black
10
170.354
20
-104.96
11
170.351
21
-104.959
0
LINE
8
Black
10
170.351
20
-104.959
11
170.347
21
-104.96
0
LINE
8
Black
10
170.347
20
-104.96
11
170.338
21
-104.957
0
LINE
8
Black
10
170.338
20
-104.957
11
170.328
21
-104.955
0
LINE
8
Black
10
170.328
20
-104.955
11
170.325
21
-104.954
0
LINE
8
Black
10
170.325
20
-104.954
11
170.322
21
-104.953
0
LINE
8
Black
10
170.322
20
-104.953
11
170.314
21
-104.947
0
LINE
8
Black
10
170.314
20
-104.947
11
170.306
21
-104.942
0
LINE
8
Black
10
170.306
20
-104.942
11
170.304
21
-104.94
0
LINE
8
Black
10
170.304
20
-104.94
11
170.301
21
-104.938
0
LINE
8
Black
10
170.301
20
-104.938
11
169.957
21
-104.594
0
LINE
8
Black
10
169.957
20
-104.594
11
169.955
21
-104.591
0
LINE
8
Black
10
169.955
20
-104.591
11
169.952
21
-104.589
0
LINE
8
Black
10
169.952
20
-104.589
11
169.948
21
-104.581
0
LINE
8
Black
10
169.948
20
-104.581
11
169.942
21
-104.573
0
LINE
8
Black
10
169.942
20
-104.573
11
169.941
21
-104.57
0
LINE
8
Black
10
169.941
20
-104.57
11
169.939
21
-104.567
0
LINE
8
Black
10
169.939
20
-104.567
11
169.938
21
-104.557
0
LINE
8
Black
10
169.938
20
-104.557
11
169.935
21
-104.548
0
LINE
8
Black
10
169.935
20
-104.548
11
169.935
21
-104.544
0
LINE
8
Black
10
169.935
20
-104.544
11
169.935
21
-104.541
0
LINE
8
Black
10
169.935
20
-104.541
11
169.935
21
-103.368
0
LINE
8
Black
10
169.935
20
-103.368
11
169.894
21
-103.162
0
LINE
8
Black
10
169.894
20
-103.162
11
169.782
21
-102.994
0
LINE
8
Black
10
169.782
20
-102.994
11
169.614
21
-102.882
0
LINE
8
Black
10
169.614
20
-102.882
11
169.408
21
-102.841
0
LINE
8
Black
10
169.408
20
-102.841
11
167.543
21
-102.841
0
LINE
8
Black
10
167.543
20
-102.841
11
167.338
21
-102.882
0
LINE
8
Black
10
167.338
20
-102.882
11
167.17
21
-102.994
0
LINE
8
Black
10
167.17
20
-102.994
11
167.057
21
-103.162
0
LINE
8
Black
10
167.057
20
-103.162
11
167.034
21
-103.282
0
LINE
8
Black
10
167.034
20
-103.282
11
167.029
21
-103.293
0
LINE
8
Black
10
167.029
20
-103.293
11
167.025
21
-103.305
0
LINE
8
Black
10
167.025
20
-103.305
11
167.024
21
-103.305
0
LINE
8
Black
10
167.024
20
-103.305
11
167.024
21
-103.306
0
LINE
8
Black
10
167.024
20
-103.306
11
167.016
21
-103.315
0
LINE
8
Black
10
167.016
20
-103.315
11
167.008
21
-103.324
0
LINE
8
Black
10
167.008
20
-103.324
11
167.007
21
-103.325
0
LINE
8
Black
10
167.007
20
-103.325
11
167.007
21
-103.326
0
LINE
8
Black
10
167.007
20
-103.326
11
166.996
21
-103.331
0
LINE
8
Black
10
166.996
20
-103.331
11
166.986
21
-103.337
0
LINE
8
Black
10
166.986
20
-103.337
11
166.985
21
-103.338
0
LINE
8
Black
10
166.985
20
-103.338
11
166.984
21
-103.338
0
LINE
8
Black
10
166.984
20
-103.338
11
166.972
21
-103.34
0
LINE
8
Black
10
166.972
20
-103.34
11
166.96
21
-103.342
0
LINE
8
Black
10
166.96
20
-103.342
11
163.489
21
-103.342
0
LINE
8
Black
10
163.489
20
-103.342
11
163.477
21
-103.34
0
LINE
8
Black
10
163.477
20
-103.34
11
163.465
21
-103.338
0
LINE
8
Black
10
163.465
20
-103.338
11
163.464
21
-103.338
0
LINE
8
Black
10
163.464
20
-103.338
11
163.463
21
-103.337
0
LINE
8
Black
10
163.463
20
-103.337
11
163.453
21
-103.331
0
LINE
8
Black
10
163.453
20
-103.331
11
163.442
21
-103.326
0
LINE
8
Black
10
163.442
20
-103.326
11
163.441
21
-103.325
0
LINE
8
Black
10
163.441
20
-103.325
11
163.441
21
-103.324
0
LINE
8
Black
10
163.441
20
-103.324
11
163.433
21
-103.315
0
LINE
8
Black
10
163.433
20
-103.315
11
163.425
21
-103.306
0
LINE
8
Black
10
163.425
20
-103.306
11
163.425
21
-103.305
0
LINE
8
Black
10
163.425
20
-103.305
11
163.424
21
-103.305
0
LINE
8
Black
10
163.424
20
-103.305
11
163.42
21
-103.293
0
LINE
8
Black
10
163.42
20
-103.293
11
163.415
21
-103.282
0
LINE
8
Black
10
163.415
20
-103.282
11
163.392
21
-103.162
0
LINE
8
Black
10
163.392
20
-103.162
11
163.279
21
-102.994
0
LINE
8
Black
10
163.279
20
-102.994
11
163.111
21
-102.882
0
LINE
8
Black
10
163.111
20
-102.882
11
162.906
21
-102.841
0
LINE
8
Black
10
162.906
20
-102.841
11
161.041
21
-102.841
0
LINE
8
Black
10
161.041
20
-102.841
11
160.835
21
-102.882
0
LINE
8
Black
10
160.835
20
-102.882
11
160.667
21
-102.994
0
LINE
8
Black
10
160.667
20
-102.994
11
160.555
21
-103.162
0
LINE
8
Black
10
160.555
20
-103.162
11
160.514
21
-103.368
0
LINE
8
Black
10
160.514
20
-103.368
11
160.514
21
-105.232
0
LINE
8
Black
10
160.514
20
-105.232
11
160.555
21
-105.438
0
LINE
8
Black
10
160.555
20
-105.438
11
160.667
21
-105.606
0
LINE
8
Black
10
160.667
20
-105.606
11
160.835
21
-105.718
0
LINE
8
Black
10
160.835
20
-105.718
11
161.041
21
-105.759
0
LINE
8
Black
10
161.041
20
-105.759
11
162.906
21
-105.759
0
LINE
8
Black
10
162.906
20
-105.759
11
163.111
21
-105.718
0
LINE
8
Black
10
163.111
20
-105.718
11
163.279
21
-105.606
0
LINE
8
Black
10
163.279
20
-105.606
11
163.392
21
-105.438
0
LINE
8
Black
10
163.392
20
-105.438
11
163.415
21
-105.318
0
LINE
8
Black
10
163.415
20
-105.318
11
163.42
21
-105.307
0
LINE
8
Black
10
163.42
20
-105.307
11
163.424
21
-105.296
0
LINE
8
Black
10
163.424
20
-105.296
11
163.425
21
-105.295
0
LINE
8
Black
10
163.425
20
-105.295
11
163.425
21
-105.294
0
LINE
8
Black
10
163.425
20
-105.294
11
163.433
21
-105.285
0
LINE
8
Black
10
163.433
20
-105.285
11
163.441
21
-105.276
0
LINE
8
Black
10
163.441
20
-105.276
11
163.441
21
-105.275
0
LINE
8
Black
10
163.441
20
-105.275
11
163.442
21
-105.275
0
LINE
8
Black
10
163.442
20
-105.275
11
163.453
21
-105.269
0
LINE
8
Black
10
163.453
20
-105.269
11
163.463
21
-105.263
0
LINE
8
Black
10
163.463
20
-105.263
11
163.464
21
-105.262
0
LINE
8
Black
10
163.464
20
-105.262
11
163.465
21
-105.262
0
LINE
8
Black
10
163.465
20
-105.262
11
163.477
21
-105.26
0
LINE
8
Black
10
163.477
20
-105.26
11
163.489
21
-105.258
0
LINE
8
Black
10
163.489
20
-105.258
11
166.96
21
-105.258
0
LINE
8
Black
10
166.96
20
-105.258
11
166.972
21
-105.26
0
LINE
8
Black
10
166.972
20
-105.26
11
166.984
21
-105.262
0
LINE
8
Black
10
166.984
20
-105.262
11
166.985
21
-105.262
0
LINE
8
Black
10
166.985
20
-105.262
11
166.986
21
-105.263
0
LINE
8
Black
10
166.986
20
-105.263
11
166.996
21
-105.269
0
LINE
8
Black
10
166.996
20
-105.269
11
167.007
21
-105.275
0
LINE
8
Black
10
167.007
20
-105.275
11
167.007
21
-105.275
0
LINE
8
Black
10
167.007
20
-105.275
11
167.008
21
-105.276
0
LINE
8
Black
10
167.008
20
-105.276
11
167.016
21
-105.285
0
LINE
8
Black
10
167.016
20
-105.285
11
167.024
21
-105.294
0
LINE
8
Black
10
167.024
20
-105.294
11
167.024
21
-105.295
0
LINE
8
Black
10
167.024
20
-105.295
11
167.025
21
-105.296
0
LINE
8
Black
10
167.025
20
-105.296
11
167.029
21
-105.307
0
LINE
8
Black
10
167.029
20
-105.307
11
167.034
21
-105.318
0
LINE
8
Black
10
167.034
20
-105.318
11
167.057
21
-105.438
0
LINE
8
Black
10
167.057
20
-105.438
11
167.17
21
-105.606
0
LINE
8
Black
10
167.17
20
-105.606
11
167.338
21
-105.718
0
LINE
8
Black
10
167.338
20
-105.718
11
167.543
21
-105.759
0
LINE
8
Black
10
167.543
20
-105.759
11
168.381
21
-105.759
0
LINE
8
Black
10
168.381
20
-105.759
11
168.385
21
-105.76
0
LINE
8
Black
10
168.385
20
-105.76
11
168.388
21
-105.76
0
LINE
8
Black
10
168.388
20
-105.76
11
168.397
21
-105.762
0
LINE
8
Black
10
168.397
20
-105.762
11
168.407
21
-105.764
0
LINE
8
Black
10
168.407
20
-105.764
11
168.41
21
-105.765
0
LINE
8
Black
10
168.41
20
-105.765
11
168.413
21
-105.766
0
LINE
8
Black
10
168.413
20
-105.766
11
168.421
21
-105.772
0
LINE
8
Black
10
168.421
20
-105.772
11
168.43
21
-105.777
0
LINE
8
Black
10
168.43
20
-105.777
11
168.432
21
-105.779
0
LINE
8
Black
10
168.432
20
-105.779
11
168.434
21
-105.781
0
LINE
8
Black
10
168.434
20
-105.781
11
169.009
21
-106.356
0
LINE
8
Black
10
169.009
20
-106.356
11
169.015
21
-106.364
0
LINE
8
Black
10
169.015
20
-106.364
11
169.021
21
-106.371
0
LINE
8
Black
10
169.021
20
-106.371
11
169.022
21
-106.375
0
LINE
8
Black
10
169.022
20
-106.375
11
169.024
21
-106.377
0
LINE
8
Black
10
169.024
20
-106.377
11
169.027
21
-106.387
0
LINE
8
Black
10
169.027
20
-106.387
11
169.03
21
-106.396
0
LINE
8
Black
10
169.03
20
-106.396
11
169.03
21
-106.399
0
LINE
8
Black
10
169.03
20
-106.399
11
169.031
21
-106.402
0
LINE
8
Black
10
169.031
20
-106.402
11
169.03
21
-106.412
0
LINE
8
Black
10
169.03
20
-106.412
11
169.03
21
-106.422
0
LINE
8
Black
10
169.03
20
-106.422
11
169.029
21
-106.425
0
LINE
8
Black
10
169.029
20
-106.425
11
169.029
21
-106.428
0
LINE
8
Black
10
169.029
20
-106.428
11
169.024
21
-106.437
0
LINE
8
Black
10
169.024
20
-106.437
11
169.021
21
-106.447
0
LINE
8
Black
10
169.021
20
-106.447
11
169.019
21
-106.449
0
LINE
8
Black
10
169.019
20
-106.449
11
169.018
21
-106.452
0
LINE
8
Black
10
169.018
20
-106.452
11
169.011
21
-106.459
0
LINE
8
Black
10
169.011
20
-106.459
11
169.004
21
-106.466
0
LINE
8
Black
10
169.004
20
-106.466
11
169.001
21
-106.468
0
LINE
8
Black
10
169.001
20
-106.468
11
168.999
21
-106.47
0
LINE
8
Black
10
168.999
20
-106.47
11
168.99
21
-106.475
0
LINE
8
Black
10
168.99
20
-106.475
11
168.982
21
-106.479
0
LINE
8
Black
10
168.982
20
-106.479
11
168.979
21
-106.48
0
LINE
8
Black
10
168.979
20
-106.48
11
168.976
21
-106.481
0
LINE
8
Black
10
168.976
20
-106.481
11
168.966
21
-106.482
0
LINE
8
Black
10
168.966
20
-106.482
11
168.956
21
-106.484
0
LINE
8
Black
10
168.956
20
-106.484
11
158.365
21
-106.484
0
LINE
8
Black
10
158.365
20
-106.484
11
158.362
21
-106.483
0
LINE
8
Black
10
158.362
20
-106.483
11
158.359
21
-106.484
0
LINE
8
Black
10
158.359
20
-106.484
11
158.349
21
-106.481
0
LINE
8
Black
10
158.349
20
-106.481
11
158.339
21
-106.479
0
LINE
8
Black
10
158.339
20
-106.479
11
158.337
21
-106.478
0
LINE
8
Black
10
158.337
20
-106.478
11
158.333
21
-106.477
0
LINE
8
Black
10
158.333
20
-106.477
11
158.325
21
-106.471
0
LINE
8
Black
10
158.325
20
-106.471
11
158.317
21
-106.466
0
LINE
8
Black
10
158.317
20
-106.466
11
158.315
21
-106.464
0
LINE
8
Black
10
158.315
20
-106.464
11
158.312
21
-106.462
0
LINE
8
Black
10
158.312
20
-106.462
11
156.243
21
-104.393
0
LINE
8
Black
10
156.243
20
-104.393
11
156.241
21
-104.391
0
LINE
8
Black
10
156.241
20
-104.391
11
156.239
21
-104.389
0
LINE
8
Black
10
156.239
20
-104.389
11
156.234
21
-104.38
0
LINE
8
Black
10
156.234
20
-104.38
11
156.228
21
-104.372
0
LINE
8
Black
10
156.228
20
-104.372
11
156.228
21
-104.369
0
LINE
8
Black
10
156.228
20
-104.369
11
156.226
21
-104.366
0
LINE
8
Black
10
156.226
20
-104.366
11
156.224
21
-104.356
0
LINE
8
Black
10
156.224
20
-104.356
11
156.222
21
-104.347
0
LINE
8
Black
10
156.222
20
-104.347
11
156.222
21
-104.344
0
LINE
8
Black
10
156.222
20
-104.344
11
156.221
21
-104.34
0
LINE
8
Black
10
156.221
20
-104.34
11
156.221
21
-103.335
0
LINE
8
Black
10
156.221
20
-103.335
11
156.181
21
-103.129
0
LINE
8
Black
10
156.181
20
-103.129
11
156.068
21
-102.961
0
LINE
8
Black
10
156.068
20
-102.961
11
155.9
21
-102.849
0
LINE
8
Black
10
155.9
20
-102.849
11
155.695
21
-102.808
0
LINE
8
Black
10
155.695
20
-102.808
11
153.83
21
-102.808
0
LINE
8
Black
10
153.83
20
-102.808
11
153.624
21
-102.849
0
LINE
8
Black
10
153.624
20
-102.849
11
153.456
21
-102.961
0
LINE
8
Black
10
153.456
20
-102.961
11
153.344
21
-103.129
0
LINE
8
Black
10
153.344
20
-103.129
11
153.32
21
-103.249
0
LINE
8
Black
10
153.32
20
-103.249
11
153.316
21
-103.26
0
LINE
8
Black
10
153.316
20
-103.26
11
153.311
21
-103.271
0
LINE
8
Black
10
153.311
20
-103.271
11
153.311
21
-103.272
0
LINE
8
Black
10
153.311
20
-103.272
11
153.311
21
-103.273
0
LINE
8
Black
10
153.311
20
-103.273
11
153.303
21
-103.282
0
LINE
8
Black
10
153.303
20
-103.282
11
153.295
21
-103.291
0
LINE
8
Black
10
153.295
20
-103.291
11
153.294
21
-103.292
0
LINE
8
Black
10
153.294
20
-103.292
11
153.293
21
-103.292
0
LINE
8
Black
10
153.293
20
-103.292
11
153.283
21
-103.298
0
LINE
8
Black
10
153.283
20
-103.298
11
153.272
21
-103.304
0
LINE
8
Black
10
153.272
20
-103.304
11
153.271
21
-103.305
0
LINE
8
Black
10
153.271
20
-103.305
11
153.271
21
-103.305
0
LINE
8
Black
10
153.271
20
-103.305
11
153.259
21
-103.307
0
LINE
8
Black
10
153.259
20
-103.307
11
153.247
21
-103.309
0
LINE
8
Black
10
153.247
20
-103.309
11
149.775
21
-103.309
0
LINE
8
Black
10
149.775
20
-103.309
11
149.763
21
-103.307
0
LINE
8
Black
10
149.763
20
-103.307
11
149.751
21
-103.305
0
LINE
8
Black
10
149.751
20
-103.305
11
149.751
21
-103.305
0
LINE
8
Black
10
149.751
20
-103.305
11
149.75
21
-103.304
0
LINE
8
Black
10
149.75
20
-103.304
11
149.739
21
-103.298
0
LINE
8
Black
10
149.739
20
-103.298
11
149.729
21
-103.292
0
LINE
8
Black
10
149.729
20
-103.292
11
149.728
21
-103.292
0
LINE
8
Black
10
149.728
20
-103.292
11
149.727
21
-103.291
0
LINE
8
Black
10
149.727
20
-103.291
11
149.719
21
-103.282
0
LINE
8
Black
10
149.719
20
-103.282
11
149.711
21
-103.273
0
LINE
8
Black
10
149.711
20
-103.273
11
149.711
21
-103.272
0
LINE
8
Black
10
149.711
20
-103.272
11
149.711
21
-103.271
0
LINE
8
Black
10
149.711
20
-103.271
11
149.706
21
-103.26
0
LINE
8
Black
10
149.706
20
-103.26
11
149.702
21
-103.249
0
LINE
8
Black
10
149.702
20
-103.249
11
149.678
21
-103.129
0
LINE
8
Black
10
149.678
20
-103.129
11
149.566
21
-102.961
0
LINE
8
Black
10
149.566
20
-102.961
11
149.398
21
-102.849
0
LINE
8
Black
10
149.398
20
-102.849
11
149.192
21
-102.808
0
LINE
8
Black
10
149.192
20
-102.808
11
147.327
21
-102.808
0
LINE
8
Black
10
147.327
20
-102.808
11
147.122
21
-102.849
0
LINE
8
Black
10
147.122
20
-102.849
11
146.954
21
-102.961
0
LINE
8
Black
10
146.954
20
-102.961
11
146.841
21
-103.129
0
LINE
8
Black
10
146.841
20
-103.129
11
146.801
21
-103.335
0
LINE
8
Black
10
146.801
20
-103.335
11
146.801
21
-105.199
0
LINE
8
Black
10
146.801
20
-105.199
11
146.841
21
-105.405
0
LINE
8
Black
10
146.841
20
-105.405
11
146.954
21
-105.573
0
LINE
8
Black
10
146.954
20
-105.573
11
147.122
21
-105.685
0
LINE
8
Black
10
147.122
20
-105.685
11
147.327
21
-105.726
0
LINE
8
Black
10
147.327
20
-105.726
11
149.192
21
-105.726
0
LINE
8
Black
10
149.192
20
-105.726
11
149.398
21
-105.685
0
LINE
8
Black
10
149.398
20
-105.685
11
149.566
21
-105.573
0
LINE
8
Black
10
149.566
20
-105.573
11
149.678
21
-105.405
0
LINE
8
Black
10
149.678
20
-105.405
11
149.702
21
-105.285
0
LINE
8
Black
10
149.702
20
-105.285
11
149.706
21
-105.274
0
LINE
8
Black
10
149.706
20
-105.274
11
149.711
21
-105.262
0
LINE
8
Black
10
149.711
20
-105.262
11
149.711
21
-105.262
0
LINE
8
Black
10
149.711
20
-105.262
11
149.711
21
-105.261
0
LINE
8
Black
10
149.711
20
-105.261
11
149.719
21
-105.252
0
LINE
8
Black
10
149.719
20
-105.252
11
149.727
21
-105.243
0
LINE
8
Black
10
149.727
20
-105.243
11
149.728
21
-105.242
0
LINE
8
Black
10
149.728
20
-105.242
11
149.729
21
-105.242
0
LINE
8
Black
10
149.729
20
-105.242
11
149.739
21
-105.236
0
LINE
8
Black
10
149.739
20
-105.236
11
149.75
21
-105.23
0
LINE
8
Black
10
149.75
20
-105.23
11
149.751
21
-105.229
0
LINE
8
Black
10
149.751
20
-105.229
11
149.751
21
-105.229
0
LINE
8
Black
10
149.751
20
-105.229
11
149.763
21
-105.227
0
LINE
8
Black
10
149.763
20
-105.227
11
149.775
21
-105.225
0
LINE
8
Black
10
149.775
20
-105.225
11
153.247
21
-105.225
0
LINE
8
Black
10
153.247
20
-105.225
11
153.259
21
-105.227
0
LINE
8
Black
10
153.259
20
-105.227
11
153.271
21
-105.229
0
LINE
8
Black
10
153.271
20
-105.229
11
153.271
21
-105.229
0
LINE
8
Black
10
153.271
20
-105.229
11
153.272
21
-105.23
0
LINE
8
Black
10
153.272
20
-105.23
11
153.283
21
-105.236
0
LINE
8
Black
10
153.283
20
-105.236
11
153.293
21
-105.242
0
LINE
8
Black
10
153.293
20
-105.242
11
153.294
21
-105.242
0
LINE
8
Black
10
153.294
20
-105.242
11
153.295
21
-105.243
0
LINE
8
Black
10
153.295
20
-105.243
11
153.303
21
-105.252
0
LINE
8
Black
10
153.303
20
-105.252
11
153.311
21
-105.261
0
LINE
8
Black
10
153.311
20
-105.261
11
153.311
21
-105.262
0
LINE
8
Black
10
153.311
20
-105.262
11
153.311
21
-105.262
0
LINE
8
Black
10
153.311
20
-105.262
11
153.316
21
-105.274
0
LINE
8
Black
10
153.316
20
-105.274
11
153.32
21
-105.285
0
LINE
8
Black
10
153.32
20
-105.285
11
153.344
21
-105.405
0
LINE
8
Black
10
153.344
20
-105.405
11
153.456
21
-105.573
0
LINE
8
Black
10
153.456
20
-105.573
11
153.624
21
-105.685
0
LINE
8
Black
10
153.624
20
-105.685
11
153.83
21
-105.726
0
LINE
8
Black
10
153.83
20
-105.726
11
154.836
21
-105.726
0
LINE
8
Black
10
154.836
20
-105.726
11
154.839
21
-105.727
0
LINE
8
Black
10
154.839
20
-105.727
11
154.842
21
-105.727
0
LINE
8
Black
10
154.842
20
-105.727
11
154.852
21
-105.729
0
LINE
8
Black
10
154.852
20
-105.729
11
154.861
21
-105.731
0
LINE
8
Black
10
154.861
20
-105.731
11
154.864
21
-105.732
0
LINE
8
Black
10
154.864
20
-105.732
11
154.867
21
-105.733
0
LINE
8
Black
10
154.867
20
-105.733
11
154.875
21
-105.739
0
LINE
8
Black
10
154.875
20
-105.739
11
154.884
21
-105.744
0
LINE
8
Black
10
154.884
20
-105.744
11
154.886
21
-105.746
0
LINE
8
Black
10
154.886
20
-105.746
11
154.889
21
-105.748
0
LINE
8
Black
10
154.889
20
-105.748
11
157.141
21
-108.001
0
LINE
8
Black
10
157.141
20
-108.001
11
157.147
21
-108.009
0
LINE
8
Black
10
157.147
20
-108.009
11
157.153
21
-108.016
0
LINE
8
Black
10
157.153
20
-108.016
11
157.154
21
-108.02
0
LINE
8
Black
10
157.154
20
-108.02
11
157.156
21
-108.022
0
LINE
8
Black
10
157.156
20
-108.022
11
157.159
21
-108.032
0
LINE
8
Black
10
157.159
20
-108.032
11
157.162
21
-108.041
0
LINE
8
Black
10
157.162
20
-108.041
11
157.162
21
-108.044
0
LINE
8
Black
10
157.162
20
-108.044
11
157.163
21
-108.047
0
LINE
8
Black
10
157.163
20
-108.047
11
157.162
21
-108.057
0
LINE
8
Black
10
157.162
20
-108.057
11
157.162
21
-108.067
0
LINE
8
Black
10
157.162
20
-108.067
11
157.161
21
-108.07
0
LINE
8
Black
10
157.161
20
-108.07
11
157.161
21
-108.073
0
LINE
8
Black
10
157.161
20
-108.073
11
157.157
21
-108.082
0
LINE
8
Black
10
157.157
20
-108.082
11
157.153
21
-108.091
0
LINE
8
Black
10
157.153
20
-108.091
11
157.151
21
-108.094
0
LINE
8
Black
10
157.151
20
-108.094
11
157.15
21
-108.097
0
LINE
8
Black
10
157.15
20
-108.097
11
157.143
21
-108.104
0
LINE
8
Black
10
157.143
20
-108.104
11
157.137
21
-108.111
0
LINE
8
Black
10
157.137
20
-108.111
11
157.134
21
-108.113
0
LINE
8
Black
10
157.134
20
-108.113
11
157.131
21
-108.115
0
LINE
8
Black
10
157.131
20
-108.115
11
157.122
21
-108.12
0
LINE
8
Black
10
157.122
20
-108.12
11
157.114
21
-108.124
0
LINE
8
Black
10
157.114
20
-108.124
11
157.111
21
-108.125
0
LINE
8
Black
10
157.111
20
-108.125
11
157.108
21
-108.126
0
LINE
8
Black
10
157.108
20
-108.126
11
157.098
21
-108.127
0
LINE
8
Black
10
157.098
20
-108.127
11
157.088
21
-108.129
0
LINE
8
Black
10
157.088
20
-108.129
11
140.358
21
-108.129
0
LINE
8
Black
10
140.358
20
-108.129
11
140.352
21
-108.128
0
LINE
8
Black
10
140.352
20
-108.128
11
140.345
21
-108.128
0
LINE
8
Black
10
140.345
20
-108.128
11
140.339
21
-108.126
0
LINE
8
Black
10
140.339
20
-108.126
11
140.332
21
-108.124
0
LINE
8
Black
10
140.332
20
-108.124
11
140.327
21
-108.121
0
LINE
8
Black
10
140.327
20
-108.121
11
140.32
21
-108.119
0
LINE
8
Black
10
140.32
20
-108.119
11
140.315
21
-108.115
0
LINE
8
Black
10
140.315
20
-108.115
11
140.31
21
-108.111
0
LINE
8
Black
10
140.31
20
-108.111
11
140.306
21
-108.106
0
LINE
8
Black
10
140.306
20
-108.106
11
140.301
21
-108.102
0
LINE
8
Black
10
140.301
20
-108.102
11
140.297
21
-108.097
0
LINE
8
Black
10
140.297
20
-108.097
11
140.293
21
-108.091
0
LINE
8
Black
10
140.293
20
-108.091
11
140.291
21
-108.085
0
LINE
8
Black
10
140.291
20
-108.085
11
140.288
21
-108.08
0
LINE
8
Black
10
140.288
20
-108.08
11
140.286
21
-108.073
0
LINE
8
Black
10
140.286
20
-108.073
11
140.284
21
-108.067
0
LINE
8
Black
10
140.284
20
-108.067
11
140.284
21
-108.06
0
LINE
8
Black
10
140.284
20
-108.06
11
140.283
21
-108.054
0
LINE
8
Black
10
140.283
20
-108.054
11
140.283
21
-97.94
0
LINE
8
Black
10
140.283
20
-97.94
11
140.284
21
-97.9335
0
LINE
8
Black
10
142.205
20
-100.532
11
141.682
21
-101.054
0
LINE
8
Black
10
141.682
20
-101.054
11
141.398
21
-101.737
0
LINE
8
Black
10
141.398
20
-101.737
11
141.398
21
-102.476
0
LINE
8
Black
10
141.398
20
-102.476
11
141.68
21
-103.159
0
LINE
8
Black
10
141.68
20
-103.159
11
142.202
21
-103.682
0
LINE
8
Black
10
142.202
20
-103.682
11
142.885
21
-103.966
0
LINE
8
Black
10
142.885
20
-103.966
11
143.624
21
-103.966
0
LINE
8
Black
10
143.624
20
-103.966
11
144.307
21
-103.684
0
LINE
8
Black
10
144.307
20
-103.684
11
144.83
21
-103.162
0
LINE
8
Black
10
144.83
20
-103.162
11
145.114
21
-102.479
0
LINE
8
Black
10
145.114
20
-102.479
11
145.114
21
-101.74
0
LINE
8
Black
10
145.114
20
-101.74
11
144.832
21
-101.057
0
LINE
8
Black
10
144.832
20
-101.057
11
144.31
21
-100.534
0
LINE
8
Black
10
144.31
20
-100.534
11
143.627
21
-100.25
0
LINE
8
Black
10
143.627
20
-100.25
11
142.888
21
-100.25
0
LINE
8
Black
10
142.888
20
-100.25
11
142.205
21
-100.532
0
LINE
8
Black
10
173.193
20
-100.532
11
172.67
21
-101.054
0
LINE
8
Black
10
172.67
20
-101.054
11
172.386
21
-101.737
0
LINE
8
Black
10
172.386
20
-101.737
11
172.386
21
-102.476
0
LINE
8
Black
10
172.386
20
-102.476
11
172.668
21
-103.159
0
LINE
8
Black
10
172.668
20
-103.159
11
173.19
21
-103.682
0
LINE
8
Black
10
173.19
20
-103.682
11
173.873
21
-103.966
0
LINE
8
Black
10
173.873
20
-103.966
11
174.612
21
-103.966
0
LINE
8
Black
10
174.612
20
-103.966
11
175.295
21
-103.684
0
LINE
8
Black
10
175.295
20
-103.684
11
175.818
21
-103.162
0
LINE
8
Black
10
175.818
20
-103.162
11
176.102
21
-102.479
0
LINE
8
Black
10
176.102
20
-102.479
11
176.102
21
-101.74
0
LINE
8
Black
10
176.102
20
-101.74
11
175.82
21
-101.057
0
LINE
8
Black
10
175.82
20
-101.057
11
175.298
21
-100.534
0
LINE
8
Black
10
175.298
20
-100.534
11
174.615
21
-100.25
0
LINE
8
Black
10
174.615
20
-100.25
11
173.876
21
-100.25
0
LINE
8
Black
10
173.876
20
-100.25
11
173.193
21
-100.532
0
LINE
8
Black
10
169.415
20
-100.033
11
169.415
21
-100.719
0
LINE
8
Black
10
169.415
20
-100.719
11
168.73
21
-100.719
0
LINE
8
Black
10
168.73
20
-100.719
11
168.73
21
-100.825
0
LINE
8
Black
10
168.73
20
-100.825
11
168.731
21
-100.827
0
LINE
8
Black
10
168.731
20
-100.827
11
169.437
21
-100.827
0
LINE
8
Black
10
169.437
20
-100.827
11
169.477
21
-100.81
0
LINE
8
Black
10
169.477
20
-100.81
11
169.507
21
-100.78
0
LINE
8
Black
10
169.507
20
-100.78
11
169.523
21
-100.74
0
LINE
8
Black
10
169.523
20
-100.74
11
169.523
21
-100.035
0
LINE
8
Black
10
169.523
20
-100.035
11
169.522
21
-100.033
0
LINE
8
Black
10
169.522
20
-100.033
11
169.415
21
-100.033
0
LINE
8
Black
10
167.43
20
-100.033
11
167.428
21
-100.035
0
LINE
8
Black
10
167.428
20
-100.035
11
167.428
21
-100.74
0
LINE
8
Black
10
167.428
20
-100.74
11
167.444
21
-100.78
0
LINE
8
Black
10
167.444
20
-100.78
11
167.475
21
-100.81
0
LINE
8
Black
10
167.475
20
-100.81
11
167.514
21
-100.827
0
LINE
8
Black
10
167.514
20
-100.827
11
168.22
21
-100.827
0
LINE
8
Black
10
168.22
20
-100.827
11
168.222
21
-100.825
0
LINE
8
Black
10
168.222
20
-100.825
11
168.222
21
-100.719
0
LINE
8
Black
10
168.222
20
-100.719
11
167.536
21
-100.719
0
LINE
8
Black
10
167.536
20
-100.719
11
167.536
21
-100.033
0
LINE
8
Black
10
167.536
20
-100.033
11
167.43
21
-100.033
0
LINE
8
Black
10
162.913
20
-100.033
11
162.913
21
-100.719
0
LINE
8
Black
10
162.913
20
-100.719
11
162.227
21
-100.719
0
LINE
8
Black
10
162.227
20
-100.719
11
162.227
21
-100.825
0
LINE
8
Black
10
162.227
20
-100.825
11
162.229
21
-100.827
0
LINE
8
Black
10
162.229
20
-100.827
11
162.935
21
-100.827
0
LINE
8
Black
10
162.935
20
-100.827
11
162.974
21
-100.81
0
LINE
8
Black
10
162.974
20
-100.81
11
163.005
21
-100.78
0
LINE
8
Black
10
163.005
20
-100.78
11
163.021
21
-100.74
0
LINE
8
Black
10
163.021
20
-100.74
11
163.021
21
-100.035
0
LINE
8
Black
10
163.021
20
-100.035
11
163.019
21
-100.033
0
LINE
8
Black
10
163.019
20
-100.033
11
162.913
21
-100.033
0
LINE
8
Black
10
160.927
20
-100.033
11
160.925
21
-100.035
0
LINE
8
Black
10
160.925
20
-100.035
11
160.925
21
-100.74
0
LINE
8
Black
10
160.925
20
-100.74
11
160.942
21
-100.78
0
LINE
8
Black
10
160.942
20
-100.78
11
160.972
21
-100.81
0
LINE
8
Black
10
160.972
20
-100.81
11
161.012
21
-100.827
0
LINE
8
Black
10
161.012
20
-100.827
11
161.717
21
-100.827
0
LINE
8
Black
10
161.717
20
-100.827
11
161.719
21
-100.825
0
LINE
8
Black
10
161.719
20
-100.825
11
161.719
21
-100.719
0
LINE
8
Black
10
161.719
20
-100.719
11
161.033
21
-100.719
0
LINE
8
Black
10
161.033
20
-100.719
11
161.033
21
-100.033
0
LINE
8
Black
10
161.033
20
-100.033
11
160.927
21
-100.033
0
LINE
8
Black
10
155.808
20
-99.9998
11
155.702
21
-99.9998
0
LINE
8
Black
10
155.702
20
-99.9998
11
155.702
21
-100.686
0
LINE
8
Black
10
155.702
20
-100.686
11
155.016
21
-100.686
0
LINE
8
Black
10
155.016
20
-100.686
11
155.016
21
-100.792
0
LINE
8
Black
10
155.016
20
-100.792
11
155.018
21
-100.794
0
LINE
8
Black
10
155.018
20
-100.794
11
155.723
21
-100.794
0
LINE
8
Black
10
155.723
20
-100.794
11
155.763
21
-100.777
0
LINE
8
Black
10
155.763
20
-100.777
11
155.794
21
-100.747
0
LINE
8
Black
10
155.794
20
-100.747
11
155.81
21
-100.707
0
LINE
8
Black
10
155.81
20
-100.707
11
155.81
21
-100.002
0
LINE
8
Black
10
155.81
20
-100.002
11
155.808
21
-99.9998
0
LINE
8
Black
10
153.716
20
-99.9998
11
153.714
21
-100.002
0
LINE
8
Black
10
153.714
20
-100.002
11
153.714
21
-100.707
0
LINE
8
Black
10
153.714
20
-100.707
11
153.731
21
-100.747
0
LINE
8
Black
10
153.731
20
-100.747
11
153.761
21
-100.777
0
LINE
8
Black
10
153.761
20
-100.777
11
153.801
21
-100.794
0
LINE
8
Black
10
153.801
20
-100.794
11
154.506
21
-100.794
0
LINE
8
Black
10
154.506
20
-100.794
11
154.508
21
-100.792
0
LINE
8
Black
10
154.508
20
-100.792
11
154.508
21
-100.686
0
LINE
8
Black
10
154.508
20
-100.686
11
153.822
21
-100.686
0
LINE
8
Black
10
153.822
20
-100.686
11
153.822
21
-99.9998
0
LINE
8
Black
10
153.822
20
-99.9998
11
153.716
21
-99.9998
0
LINE
8
Black
10
149.2
20
-99.9998
11
149.2
21
-100.686
0
LINE
8
Black
10
149.2
20
-100.686
11
148.514
21
-100.686
0
LINE
8
Black
10
148.514
20
-100.686
11
148.514
21
-100.792
0
LINE
8
Black
10
148.514
20
-100.792
11
148.516
21
-100.794
0
LINE
8
Black
10
148.516
20
-100.794
11
149.221
21
-100.794
0
LINE
8
Black
10
149.221
20
-100.794
11
149.261
21
-100.777
0
LINE
8
Black
10
149.261
20
-100.777
11
149.291
21
-100.747
0
LINE
8
Black
10
149.291
20
-100.747
11
149.308
21
-100.707
0
LINE
8
Black
10
149.308
20
-100.707
11
149.308
21
-100.002
0
LINE
8
Black
10
149.308
20
-100.002
11
149.306
21
-99.9998
0
LINE
8
Black
10
149.306
20
-99.9998
11
149.2
21
-99.9998
0
LINE
8
Black
10
147.214
20
-99.9998
11
147.212
21
-100.002
0
LINE
8
Black
10
147.212
20
-100.002
11
147.212
21
-100.707
0
LINE
8
Black
10
147.212
20
-100.707
11
147.228
21
-100.747
0
LINE
8
Black
10
147.228
20
-100.747
11
147.259
21
-100.777
0
LINE
8
Black
10
147.259
20
-100.777
11
147.299
21
-100.794
0
LINE
8
Black
10
147.299
20
-100.794
11
148.004
21
-100.794
0
LINE
8
Black
10
148.004
20
-100.794
11
148.006
21
-100.792
0
LINE
8
Black
10
148.006
20
-100.792
11
148.006
21
-100.686
0
LINE
8
Black
10
148.006
20
-100.686
11
147.32
21
-100.686
0
LINE
8
Black
10
147.32
20
-100.686
11
147.32
21
-99.9998
0
LINE
8
Black
10
147.32
20
-99.9998
11
147.214
21
-99.9998
0
LINE
8
Black
10
181.053
20
-99.822
11
181.051
21
-99.8893
0
LINE
8
Black
10
181.051
20
-99.8893
11
181.166
21
-100.115
0
LINE
8
Black
10
181.166
20
-100.115
11
181.439
21
-100.38
0
LINE
8
Black
10
181.439
20
-100.38
11
181.784
21
-100.518
0
LINE
8
Black
10
181.784
20
-100.518
11
181.864
21
-100.504
0
LINE
8
Black
10
181.864
20
-100.504
11
181.864
21
-100.414
0
LINE
8
Black
10
181.864
20
-100.414
11
181.666
21
-100.38
0
LINE
8
Black
10
181.666
20
-100.38
11
181.407
21
-100.23
0
LINE
8
Black
10
181.407
20
-100.23
11
181.214
21
-99.9998
0
LINE
8
Black
10
181.214
20
-99.9998
11
181.149
21
-99.822
0
LINE
8
Black
10
181.149
20
-99.822
11
181.053
21
-99.822
0
LINE
8
Black
10
183.087
20
-99.822
11
183.022
21
-99.9998
0
LINE
8
Black
10
183.022
20
-99.9998
11
182.829
21
-100.23
0
LINE
8
Black
10
182.829
20
-100.23
11
182.57
21
-100.38
0
LINE
8
Black
10
182.57
20
-100.38
11
182.372
21
-100.414
0
LINE
8
Black
10
182.372
20
-100.414
11
182.372
21
-100.504
0
LINE
8
Black
10
182.372
20
-100.504
11
182.452
21
-100.518
0
LINE
8
Black
10
182.452
20
-100.518
11
182.797
21
-100.38
0
LINE
8
Black
10
182.797
20
-100.38
11
183.07
21
-100.115
0
LINE
8
Black
10
183.07
20
-100.115
11
183.185
21
-99.8893
0
LINE
8
Black
10
183.185
20
-99.8893
11
183.183
21
-99.822
0
LINE
8
Black
10
183.183
20
-99.822
11
183.087
21
-99.822
0
LINE
8
Black
10
169.507
20
-98.7778
11
169.477
21
-98.7475
0
LINE
8
Black
10
169.477
20
-98.7475
11
169.437
21
-98.731
0
LINE
8
Black
10
169.437
20
-98.731
11
168.731
21
-98.731
0
LINE
8
Black
10
168.731
20
-98.731
11
168.73
21
-98.7328
0
LINE
8
Black
10
168.73
20
-98.7328
11
168.73
21
-98.839
0
LINE
8
Black
10
168.73
20
-98.839
11
169.415
21
-98.839
0
LINE
8
Black
10
169.415
20
-98.839
11
169.415
21
-99.5248
0
LINE
8
Black
10
169.415
20
-99.5248
11
169.522
21
-99.5248
0
LINE
8
Black
10
169.522
20
-99.5248
11
169.523
21
-99.523
0
LINE
8
Black
10
169.523
20
-99.523
11
169.523
21
-98.8175
0
LINE
8
Black
10
169.523
20
-98.8175
11
169.507
21
-98.7778
0
LINE
8
Black
10
167.514
20
-98.731
11
167.475
21
-98.7475
0
LINE
8
Black
10
167.475
20
-98.7475
11
167.444
21
-98.7778
0
LINE
8
Black
10
167.444
20
-98.7778
11
167.428
21
-98.8175
0
LINE
8
Black
10
167.428
20
-98.8175
11
167.428
21
-99.523
0
LINE
8
Black
10
167.428
20
-99.523
11
167.43
21
-99.5248
0
LINE
8
Black
10
167.43
20
-99.5248
11
167.536
21
-99.5248
0
LINE
8
Black
10
167.536
20
-99.5248
11
167.536
21
-98.839
0
LINE
8
Black
10
167.536
20
-98.839
11
168.222
21
-98.839
0
LINE
8
Black
10
168.222
20
-98.839
11
168.222
21
-98.7328
0
LINE
8
Black
10
168.222
20
-98.7328
11
168.22
21
-98.731
0
LINE
8
Black
10
168.22
20
-98.731
11
167.514
21
-98.731
0
LINE
8
Black
10
162.229
20
-98.731
11
162.227
21
-98.7328
0
LINE
8
Black
10
162.227
20
-98.7328
11
162.227
21
-98.839
0
LINE
8
Black
10
162.227
20
-98.839
11
162.913
21
-98.839
0
LINE
8
Black
10
162.913
20
-98.839
11
162.913
21
-99.5248
0
LINE
8
Black
10
162.913
20
-99.5248
11
163.019
21
-99.5248
0
LINE
8
Black
10
163.019
20
-99.5248
11
163.021
21
-99.523
0
LINE
8
Black
10
163.021
20
-99.523
11
163.021
21
-98.8175
0
LINE
8
Black
10
163.021
20
-98.8175
11
163.005
21
-98.7778
0
LINE
8
Black
10
163.005
20
-98.7778
11
162.974
21
-98.7475
0
LINE
8
Black
10
162.974
20
-98.7475
11
162.935
21
-98.731
0
LINE
8
Black
10
162.935
20
-98.731
11
162.229
21
-98.731
0
LINE
8
Black
10
161.012
20
-98.731
11
160.972
21
-98.7475
0
LINE
8
Black
10
160.972
20
-98.7475
11
160.942
21
-98.7778
0
LINE
8
Black
10
160.942
20
-98.7778
11
160.925
21
-98.8175
0
LINE
8
Black
10
160.925
20
-98.8175
11
160.925
21
-99.523
0
LINE
8
Black
10
160.925
20
-99.523
11
160.927
21
-99.5248
0
LINE
8
Black
10
160.927
20
-99.5248
11
161.033
21
-99.5248
0
LINE
8
Black
10
161.033
20
-99.5248
11
161.033
21
-98.839
0
LINE
8
Black
10
161.033
20
-98.839
11
161.719
21
-98.839
0
LINE
8
Black
10
161.719
20
-98.839
11
161.719
21
-98.7328
0
LINE
8
Black
10
161.719
20
-98.7328
11
161.717
21
-98.731
0
LINE
8
Black
10
161.717
20
-98.731
11
161.012
21
-98.731
0
LINE
8
Black
10
155.794
20
-98.7448
11
155.763
21
-98.7144
0
LINE
8
Black
10
155.763
20
-98.7144
11
155.723
21
-98.698
0
LINE
8
Black
10
155.723
20
-98.698
11
155.018
21
-98.698
0
LINE
8
Black
10
155.018
20
-98.698
11
155.016
21
-98.6998
0
LINE
8
Black
10
155.016
20
-98.6998
11
155.016
21
-98.806
0
LINE
8
Black
10
155.016
20
-98.806
11
155.702
21
-98.806
0
LINE
8
Black
10
155.702
20
-98.806
11
155.702
21
-99.4918
0
LINE
8
Black
10
155.702
20
-99.4918
11
155.808
21
-99.4918
0
LINE
8
Black
10
155.808
20
-99.4918
11
155.81
21
-99.49
0
LINE
8
Black
10
155.81
20
-99.49
11
155.81
21
-98.7845
0
LINE
8
Black
10
155.81
20
-98.7845
11
155.794
21
-98.7448
0
LINE
8
Black
10
153.801
20
-98.698
11
153.761
21
-98.7144
0
LINE
8
Black
10
153.761
20
-98.7144
11
153.731
21
-98.7448
0
LINE
8
Black
10
153.731
20
-98.7448
11
153.714
21
-98.7845
0
LINE
8
Black
10
153.714
20
-98.7845
11
153.714
21
-99.49
0
LINE
8
Black
10
153.714
20
-99.49
11
153.716
21
-99.4918
0
LINE
8
Black
10
153.716
20
-99.4918
11
153.822
21
-99.4918
0
LINE
8
Black
10
153.822
20
-99.4918
11
153.822
21
-98.806
0
LINE
8
Black
10
153.822
20
-98.806
11
154.508
21
-98.806
0
LINE
8
Black
10
154.508
20
-98.806
11
154.508
21
-98.6998
0
LINE
8
Black
10
154.508
20
-98.6998
11
154.506
21
-98.698
0
LINE
8
Black
10
154.506
20
-98.698
11
153.801
21
-98.698
0
LINE
8
Black
10
148.516
20
-98.698
11
148.514
21
-98.6998
0
LINE
8
Black
10
148.514
20
-98.6998
11
148.514
21
-98.806
0
LINE
8
Black
10
148.514
20
-98.806
11
149.2
21
-98.806
0
LINE
8
Black
10
149.2
20
-98.806
11
149.2
21
-99.4918
0
LINE
8
Black
10
149.2
20
-99.4918
11
149.306
21
-99.4918
0
LINE
8
Black
10
149.306
20
-99.4918
11
149.308
21
-99.49
0
LINE
8
Black
10
149.308
20
-99.49
11
149.308
21
-98.7845
0
LINE
8
Black
10
149.308
20
-98.7845
11
149.291
21
-98.7448
0
LINE
8
Black
10
149.291
20
-98.7448
11
149.261
21
-98.7144
0
LINE
8
Black
10
149.261
20
-98.7144
11
149.221
21
-98.698
0
LINE
8
Black
10
149.221
20
-98.698
11
148.516
21
-98.698
0
LINE
8
Black
10
147.299
20
-98.698
11
147.259
21
-98.7144
0
LINE
8
Black
10
147.259
20
-98.7144
11
147.228
21
-98.7448
0
LINE
8
Black
10
147.228
20
-98.7448
11
147.212
21
-98.7845
0
LINE
8
Black
10
147.212
20
-98.7845
11
147.212
21
-99.49
0
LINE
8
Black
10
147.212
20
-99.49
11
147.214
21
-99.4918
0
LINE
8
Black
10
147.214
20
-99.4918
11
147.32
21
-99.4918
0
LINE
8
Black
10
147.32
20
-99.4918
11
147.32
21
-98.806
0
LINE
8
Black
10
147.32
20
-98.806
11
148.006
21
-98.806
0
LINE
8
Black
10
148.006
20
-98.806
11
148.006
21
-98.6998
0
LINE
8
Black
10
148.006
20
-98.6998
11
148.004
21
-98.698
0
LINE
8
Black
10
148.004
20
-98.698
11
147.299
21
-98.698
0
LINE
8
Black
10
182.372
20
-98.6324
11
182.372
21
-98.7216
0
LINE
8
Black
10
182.372
20
-98.7216
11
182.57
21
-98.7565
0
LINE
8
Black
10
182.57
20
-98.7565
11
182.829
21
-98.9064
0
LINE
8
Black
10
182.829
20
-98.9064
11
183.022
21
-99.1362
0
LINE
8
Black
10
183.022
20
-99.1362
11
183.087
21
-99.314
0
LINE
8
Black
10
183.087
20
-99.314
11
183.183
21
-99.314
0
LINE
8
Black
10
183.183
20
-99.314
11
183.185
21
-99.2467
0
LINE
8
Black
10
183.185
20
-99.2467
11
183.07
21
-99.0208
0
LINE
8
Black
10
183.07
20
-99.0208
11
182.797
21
-98.7556
0
LINE
8
Black
10
182.797
20
-98.7556
11
182.452
21
-98.6183
0
LINE
8
Black
10
182.452
20
-98.6183
11
182.372
21
-98.6324
0
LINE
8
Black
10
181.439
20
-98.7556
11
181.166
21
-99.0208
0
LINE
8
Black
10
181.166
20
-99.0208
11
181.051
21
-99.2467
0
LINE
8
Black
10
181.051
20
-99.2467
11
181.053
21
-99.314
0
LINE
8
Black
10
181.053
20
-99.314
11
181.149
21
-99.314
0
LINE
8
Black
10
181.149
20
-99.314
11
181.214
21
-99.1362
0
LINE
8
Black
10
181.214
20
-99.1362
11
181.407
21
-98.9064
0
LINE
8
Black
10
181.407
20
-98.9064
11
181.666
21
-98.7565
0
LINE
8
Black
10
181.666
20
-98.7565
11
181.864
21
-98.7216
0
LINE
8
Black
10
181.864
20
-98.7216
11
181.864
21
-98.6324
0
LINE
8
Black
10
181.864
20
-98.6324
11
181.784
21
-98.6183
0
LINE
8
Black
10
181.784
20
-98.6183
11
181.439
21
-98.7556
0
LINE
8
Black
10
149.2
20
-103.817
11
153.822
21
-103.817
0
LINE
8
Black
10
153.822
20
-103.817
11
153.822
21
-103.327
0
LINE
8
Black
10
153.822
20
-103.327
11
155.702
21
-103.327
0
LINE
8
Black
10
155.702
20
-103.327
11
155.702
21
-104.57
0
LINE
8
Black
10
155.702
20
-104.57
11
158.124
21
-106.992
0
LINE
8
Black
10
158.124
20
-106.992
11
176.344
21
-106.992
0
LINE
8
Black
10
176.344
20
-106.992
11
179.006
21
-104.33
0
LINE
8
Black
10
179.006
20
-104.33
11
179.022
21
-104.318
0
LINE
8
Black
10
179.022
20
-104.318
11
179.035
21
-104.303
0
LINE
8
Black
10
179.035
20
-104.303
11
179.086
21
-104.274
0
LINE
8
Black
10
179.086
20
-104.274
11
179.134
21
-104.24
0
LINE
8
Black
10
179.134
20
-104.24
11
179.153
21
-104.235
0
LINE
8
Black
10
179.153
20
-104.235
11
179.17
21
-104.225
0
LINE
8
Black
10
179.17
20
-104.225
11
179.228
21
-104.215
0
LINE
8
Black
10
179.228
20
-104.215
11
179.285
21
-104.2
0
LINE
8
Black
10
179.285
20
-104.2
11
179.305
21
-104.201
0
LINE
8
Black
10
179.305
20
-104.201
11
179.324
21
-104.198
0
LINE
8
Black
10
179.324
20
-104.198
11
181.102
21
-104.198
0
LINE
8
Black
10
181.102
20
-104.198
11
181.102
21
-103.784
0
LINE
8
Black
10
181.102
20
-103.784
11
183.134
21
-103.784
0
LINE
8
Black
10
183.134
20
-103.784
11
183.134
21
-105.512
0
LINE
8
Black
10
183.134
20
-105.512
11
181.102
21
-105.512
0
LINE
8
Black
10
181.102
20
-105.512
11
181.102
21
-105.098
0
LINE
8
Black
10
181.102
20
-105.098
11
179.51
21
-105.098
0
LINE
8
Black
10
179.51
20
-105.098
11
176.848
21
-107.76
0
LINE
8
Black
10
176.848
20
-107.76
11
176.832
21
-107.772
0
LINE
8
Black
10
176.832
20
-107.772
11
176.819
21
-107.787
0
LINE
8
Black
10
176.819
20
-107.787
11
176.768
21
-107.816
0
LINE
8
Black
10
176.768
20
-107.816
11
176.72
21
-107.85
0
LINE
8
Black
10
176.72
20
-107.85
11
176.701
21
-107.855
0
LINE
8
Black
10
176.701
20
-107.855
11
176.684
21
-107.865
0
LINE
8
Black
10
176.684
20
-107.865
11
176.626
21
-107.875
0
LINE
8
Black
10
176.626
20
-107.875
11
176.569
21
-107.89
0
LINE
8
Black
10
176.569
20
-107.89
11
176.549
21
-107.889
0
LINE
8
Black
10
176.549
20
-107.889
11
176.53
21
-107.892
0
LINE
8
Black
10
176.53
20
-107.892
11
157.937
21
-107.892
0
LINE
8
Black
10
157.937
20
-107.892
11
157.918
21
-107.889
0
LINE
8
Black
10
157.918
20
-107.889
11
157.898
21
-107.89
0
LINE
8
Black
10
157.898
20
-107.89
11
157.841
21
-107.875
0
LINE
8
Black
10
157.841
20
-107.875
11
157.783
21
-107.865
0
LINE
8
Black
10
157.783
20
-107.865
11
157.766
21
-107.855
0
LINE
8
Black
10
157.766
20
-107.855
11
157.747
21
-107.85
0
LINE
8
Black
10
157.747
20
-107.85
11
157.699
21
-107.816
0
LINE
8
Black
10
157.699
20
-107.816
11
157.648
21
-107.787
0
LINE
8
Black
10
157.648
20
-107.787
11
157.635
21
-107.772
0
LINE
8
Black
10
157.635
20
-107.772
11
157.619
21
-107.76
0
LINE
8
Black
10
157.619
20
-107.76
11
155.066
21
-105.207
0
LINE
8
Black
10
155.066
20
-105.207
11
153.822
21
-105.207
0
LINE
8
Black
10
153.822
20
-105.207
11
153.822
21
-104.717
0
LINE
8
Black
10
153.822
20
-104.717
11
149.2
21
-104.717
0
LINE
8
Black
10
149.2
20
-104.717
11
149.2
21
-105.207
0
LINE
8
Black
10
149.2
20
-105.207
11
147.32
21
-105.207
0
LINE
8
Black
10
147.32
20
-105.207
11
147.32
21
-103.327
0
LINE
8
Black
10
147.32
20
-103.327
11
149.2
21
-103.327
0
LINE
8
Black
10
149.2
20
-103.327
11
149.2
21
-103.817
0
LINE
8
Black
10
182.57
20
-101.296
11
182.829
21
-101.446
0
LINE
8
Black
10
182.829
20
-101.446
11
183.022
21
-101.676
0
LINE
8
Black
10
183.022
20
-101.676
11
183.125
21
-101.958
0
LINE
8
Black
10
183.125
20
-101.958
11
183.125
21
-102.258
0
LINE
8
Black
10
183.125
20
-102.258
11
183.022
21
-102.54
0
LINE
8
Black
10
183.022
20
-102.54
11
182.829
21
-102.77
0
LINE
8
Black
10
182.829
20
-102.77
11
182.57
21
-102.92
0
LINE
8
Black
10
182.57
20
-102.92
11
182.274
21
-102.972
0
LINE
8
Black
10
182.274
20
-102.972
11
181.962
21
-102.972
0
LINE
8
Black
10
181.962
20
-102.972
11
181.666
21
-102.92
0
LINE
8
Black
10
181.666
20
-102.92
11
181.407
21
-102.77
0
LINE
8
Black
10
181.407
20
-102.77
11
181.229
21
-102.558
0
LINE
8
Black
10
181.229
20
-102.558
11
180.018
21
-102.558
0
LINE
8
Black
10
180.018
20
-102.558
11
176.34
21
-106.236
0
LINE
8
Black
10
176.34
20
-106.236
11
176.324
21
-106.248
0
LINE
8
Black
10
176.324
20
-106.248
11
176.311
21
-106.263
0
LINE
8
Black
10
176.311
20
-106.263
11
176.26
21
-106.292
0
LINE
8
Black
10
176.26
20
-106.292
11
176.212
21
-106.326
0
LINE
8
Black
10
176.212
20
-106.326
11
176.193
21
-106.331
0
LINE
8
Black
10
176.193
20
-106.331
11
176.176
21
-106.341
0
LINE
8
Black
10
176.176
20
-106.341
11
176.118
21
-106.351
0
LINE
8
Black
10
176.118
20
-106.351
11
176.061
21
-106.366
0
LINE
8
Black
10
176.061
20
-106.366
11
176.041
21
-106.365
0
LINE
8
Black
10
176.041
20
-106.365
11
176.022
21
-106.368
0
LINE
8
Black
10
176.022
20
-106.368
11
169.926
21
-106.368
0
LINE
8
Black
10
169.926
20
-106.368
11
169.906
21
-106.365
0
LINE
8
Black
10
169.906
20
-106.365
11
169.887
21
-106.366
0
LINE
8
Black
10
169.887
20
-106.366
11
169.83
21
-106.351
0
LINE
8
Black
10
169.83
20
-106.351
11
169.772
21
-106.341
0
LINE
8
Black
10
169.772
20
-106.341
11
169.755
21
-106.331
0
LINE
8
Black
10
169.755
20
-106.331
11
169.736
21
-106.326
0
LINE
8
Black
10
169.736
20
-106.326
11
169.688
21
-106.292
0
LINE
8
Black
10
169.688
20
-106.292
11
169.637
21
-106.263
0
LINE
8
Black
10
169.637
20
-106.263
11
169.624
21
-106.248
0
LINE
8
Black
10
169.624
20
-106.248
11
169.608
21
-106.236
0
LINE
8
Black
10
169.608
20
-106.236
11
168.611
21
-105.24
0
LINE
8
Black
10
168.611
20
-105.24
11
167.536
21
-105.24
0
LINE
8
Black
10
167.536
20
-105.24
11
167.536
21
-104.75
0
LINE
8
Black
10
167.536
20
-104.75
11
162.913
21
-104.75
0
LINE
8
Black
10
162.913
20
-104.75
11
162.913
21
-105.24
0
LINE
8
Black
10
162.913
20
-105.24
11
161.033
21
-105.24
0
LINE
8
Black
10
161.033
20
-105.24
11
161.033
21
-103.36
0
LINE
8
Black
10
161.033
20
-103.36
11
162.913
21
-103.36
0
LINE
8
Black
10
162.913
20
-103.36
11
162.913
21
-103.85
0
LINE
8
Black
10
162.913
20
-103.85
11
167.536
21
-103.85
0
LINE
8
Black
10
167.536
20
-103.85
11
167.536
21
-103.36
0
LINE
8
Black
10
167.536
20
-103.36
11
169.415
21
-103.36
0
LINE
8
Black
10
169.415
20
-103.36
11
169.415
21
-104.771
0
LINE
8
Black
10
169.415
20
-104.771
11
170.112
21
-105.468
0
LINE
8
Black
10
170.112
20
-105.468
11
175.836
21
-105.468
0
LINE
8
Black
10
175.836
20
-105.468
11
179.514
21
-101.79
0
LINE
8
Black
10
179.514
20
-101.79
11
179.53
21
-101.778
0
LINE
8
Black
10
179.53
20
-101.778
11
179.543
21
-101.763
0
LINE
8
Black
10
179.543
20
-101.763
11
179.594
21
-101.734
0
LINE
8
Black
10
179.594
20
-101.734
11
179.642
21
-101.7
0
LINE
8
Black
10
179.642
20
-101.7
11
179.661
21
-101.695
0
LINE
8
Black
10
179.661
20
-101.695
11
179.678
21
-101.685
0
LINE
8
Black
10
179.678
20
-101.685
11
179.736
21
-101.675
0
LINE
8
Black
10
179.736
20
-101.675
11
179.793
21
-101.66
0
LINE
8
Black
10
179.793
20
-101.66
11
179.813
21
-101.661
0
LINE
8
Black
10
179.813
20
-101.661
11
179.832
21
-101.658
0
LINE
8
Black
10
179.832
20
-101.658
11
181.229
21
-101.658
0
LINE
8
Black
10
181.229
20
-101.658
11
181.407
21
-101.446
0
LINE
8
Black
10
181.407
20
-101.446
11
181.666
21
-101.296
0
LINE
8
Black
10
181.666
20
-101.296
11
181.962
21
-101.244
0
LINE
8
Black
10
181.962
20
-101.244
11
182.274
21
-101.244
0
LINE
8
Black
10
182.274
20
-101.244
11
182.57
21
-101.296
0
LINE
8
Black
10
162.481
20
-99.982
11
162.481
21
-99.5756
0
LINE
8
Black
10
161.465
20
-99.982
11
161.465
21
-99.5756
0
ARC
8
Black
10
161.973
20
-99.5756
40
0.508
50
360
51
540
0
ARC
8
Black
10
161.973
20
-99.982
40
0.508
50
180
51
360
0
LINE
8
Black
10
168.984
20
-99.982
11
168.984
21
-99.5756
0
LINE
8
Black
10
167.968
20
-99.982
11
167.968
21
-99.5756
0
ARC
8
Black
10
168.476
20
-99.5756
40
0.508
50
360
51
540
0
ARC
8
Black
10
168.476
20
-99.982
40
0.508
50
180
51
360
0
LINE
8
Black
10
162.481
20
-104.503
11
162.481
21
-104.097
0
LINE
8
Black
10
161.465
20
-104.503
11
161.465
21
-104.097
0
ARC
8
Black
10
161.973
20
-104.097
40
0.508
50
360
51
540
0
ARC
8
Black
10
161.973
20
-104.503
40
0.508
50
180
51
360
0
LINE
8
Black
10
168.984
20
-104.503
11
168.984
21
-104.097
0
LINE
8
Black
10
167.968
20
-104.503
11
167.968
21
-104.097
0
ARC
8
Black
10
168.476
20
-104.097
40
0.508
50
360
51
540
0
ARC
8
Black
10
168.476
20
-104.503
40
0.508
50
180
51
360
0
CIRCLE
8
Black
10
182.118
20
-104.648
40
0.508
0
CIRCLE
8
Black
10
182.118
20
-102.108
40
0.508
0
CIRCLE
8
Black
10
182.118
20
-99.568
40
0.508
0
LINE
8
Black
10
148.768
20
-99.949
11
148.768
21
-99.5426
0
LINE
8
Black
10
147.752
20
-99.949
11
147.752
21
-99.5426
0
ARC
8
Black
10
148.26
20
-99.5426
40
0.508
50
360
51
540
0
ARC
8
Black
10
148.26
20
-99.949
40
0.508
50
180
51
360
0
LINE
8
Black
10
155.27
20
-99.949
11
155.27
21
-99.5426
0
LINE
8
Black
10
154.254
20
-99.949
11
154.254
21
-99.5426
0
ARC
8
Black
10
154.762
20
-99.5426
40
0.508
50
360
51
540
0
ARC
8
Black
10
154.762
20
-99.949
40
0.508
50
180
51
360
0
LINE
8
Black
10
148.768
20
-104.47
11
148.768
21
-104.064
0
LINE
8
Black
10
147.752
20
-104.47
11
147.752
21
-104.064
0
ARC
8
Black
10
148.26
20
-104.064
40
0.508
50
360
51
540
0
ARC
8
Black
10
148.26
20
-104.47
40
0.508
50
180
51
360
0
LINE
8
Black
10
155.27
20
-104.47
11
155.27
21
-104.064
0
LINE
8
Black
10
154.254
20
-104.47
11
154.254
21
-104.064
0
ARC
8
Black
10
154.762
20
-104.064
40
0.508
50
360
51
540
0
ARC
8
Black
10
154.762
20
-104.47
40
0.508
50
180
51
360
0
CIRCLE
8
Black
10
174.244
20
-102.108
40
1.35
0
CIRCLE
8
Black
10
143.256
20
-102.108
40
1.35
  0
ENDSEC
  0
EOF
