<?xml version="1.0" standalone="no"?>
 <!DOCTYPE svg PUBLIC "-//W3C//DTD SVG 1.1//EN" 
 "http://www.w3.org/Graphics/SVG/1.1/DTD/svg11.dtd"> 
<svg xmlns="http://www.w3.org/2000/svg" version="1.1" 
    width="8.33882cm" height="2.6797cm" viewBox="0 0 32830 10550 ">
<title>SVG Picture created as Multi-PB-Debounce Circuit-brd.svg date 2016/01/25 19:10:56 </title>
  <desc>Picture generated by PCBNEW </desc>
<g style="fill:#000000; fill-opacity:1;stroke:#000000; stroke-opacity:1;
stroke-linecap:round; stroke-linejoin:round; "
 transform="translate(0 0) scale(1 1)">
</g>
<g style="fill:#000000; fill-opacity:0.0; 
stroke:#000000; stroke-width:-0.000393701; stroke-opacity:1; 
stroke-linecap:round; stroke-linejoin:round;">
</g>
<g style="fill:#008400; fill-opacity:0.0; 
stroke:#008400; stroke-width:-0.000393701; stroke-opacity:1; 
stroke-linecap:round; stroke-linejoin:round;">
</g>
<g style="fill:#008400; fill-opacity:0.0; 
stroke:#008400; stroke-width:78.7402; stroke-opacity:1; 
stroke-linecap:round; stroke-linejoin:round;">
<path d="M9281 1507
L9281 1113
L9056 1113
L9000 1132
L8972 1151
L8944 1188
L8944 1245
L8972 1282
L9000 1301
L9056 1320
L9281 1320
" />
<path d="M8494 1301
L8409 1320
L8381 1338
L8353 1376
L8353 1432
L8381 1470
L8409 1488
L8466 1507
L8690 1507
L8690 1113
L8494 1113
L8437 1132
L8409 1151
L8381 1188
L8381 1226
L8409 1263
L8437 1282
L8494 1301
L8690 1301
" />
<path d="M7650 1507
L7650 1113
L7509 1113
L7425 1132
L7369 1170
L7341 1207
L7313 1282
L7313 1338
L7341 1413
L7369 1451
L7425 1488
L7509 1507
L7650 1507
" />
<path d="M6834 1488
L6891 1507
L7003 1507
L7059 1488
L7088 1451
L7088 1301
L7059 1263
L7003 1245
L6891 1245
L6834 1263
L6806 1301
L6806 1338
L7088 1376
" />
<path d="M6553 1507
L6553 1113
" />
<path d="M6553 1263
L6497 1245
L6385 1245
L6328 1263
L6300 1282
L6272 1320
L6272 1432
L6300 1470
L6328 1488
L6385 1507
L6497 1507
L6553 1488
" />
<path d="M5935 1507
L5991 1488
L6019 1470
L6047 1432
L6047 1320
L6019 1282
L5991 1263
L5935 1245
L5850 1245
L5794 1263
L5766 1282
L5738 1320
L5738 1432
L5766 1470
L5794 1488
L5850 1507
L5935 1507
" />
<path d="M5232 1245
L5232 1507
" />
<path d="M5485 1245
L5485 1451
L5457 1488
L5400 1507
L5316 1507
L5260 1488
L5232 1470
" />
<path d="M4950 1245
L4950 1507
" />
<path d="M4950 1282
L4922 1263
L4866 1245
L4782 1245
L4725 1263
L4697 1301
L4697 1507
" />
<path d="M4163 1488
L4219 1507
L4332 1507
L4388 1488
L4416 1470
L4444 1432
L4444 1320
L4416 1282
L4388 1263
L4332 1245
L4219 1245
L4163 1263
" />
<path d="M3685 1488
L3741 1507
L3854 1507
L3910 1488
L3938 1451
L3938 1301
L3910 1263
L3854 1245
L3741 1245
L3685 1263
L3657 1301
L3657 1338
L3938 1376
" />
<path d="M2954 1507
L2954 1113
L2729 1113
L2672 1132
L2644 1151
L2616 1188
L2616 1245
L2644 1282
L2672 1301
L2729 1320
L2954 1320
" />
<path d="M2026 1470
L2054 1488
L2138 1507
L2194 1507
L2279 1488
L2335 1451
L2363 1413
L2391 1338
L2391 1282
L2363 1207
L2335 1170
L2279 1132
L2194 1113
L2138 1113
L2054 1132
L2026 1151
" />
<path d="M1576 1301
L1491 1320
L1463 1338
L1435 1376
L1435 1432
L1463 1470
L1491 1488
L1548 1507
L1773 1507
L1773 1113
L1576 1113
L1520 1132
L1491 1151
L1463 1188
L1463 1226
L1491 1263
L1520 1282
L1576 1301
L1773 1301
" />
</g>
<g style="fill:#840000; fill-opacity:0.0; 
stroke:#840000; stroke-width:78.7402; stroke-opacity:1; 
stroke-linecap:round; stroke-linejoin:round;">
</g>
<g style="fill:#840000; fill-opacity:0.0; 
stroke:#840000; stroke-width:0; stroke-opacity:1; 
stroke-linecap:round; stroke-linejoin:round;">
</g>
<g style="fill:#840000; fill-opacity:1.0; 
stroke:#840000; stroke-width:0; stroke-opacity:1; 
stroke-linecap:round; stroke-linejoin:round;">
<polyline style="fill-rule:evenodd;"
points="27328,2085
26816,2085
26816,1573
27328,1573
27328,2085
" /> 
<circle cx="27072.6" cy="1042.13" r="255.906" /> 
</g>
<g style="fill:#840000; fill-opacity:1.0; 
stroke:#840000; stroke-width:19.685; stroke-opacity:1; 
stroke-linecap:round; stroke-linejoin:round;">
</g>
<g style="fill:#840000; fill-opacity:1.0; 
stroke:#840000; stroke-width:0; stroke-opacity:1; 
stroke-linecap:round; stroke-linejoin:round;">
<polyline style="fill-rule:evenodd;"
points="15828,2085
15316,2085
15316,1573
15828,1573
15828,2085
" /> 
<circle cx="15572.6" cy="1042.13" r="255.906" /> 
</g>
<g style="fill:#840000; fill-opacity:1.0; 
stroke:#840000; stroke-width:19.685; stroke-opacity:1; 
stroke-linecap:round; stroke-linejoin:round;">
</g>
<g style="fill:#840000; fill-opacity:1.0; 
stroke:#840000; stroke-width:0; stroke-opacity:1; 
stroke-linecap:round; stroke-linejoin:round;">
<polyline style="fill-rule:evenodd;"
points="18128,2085
17616,2085
17616,1573
18128,1573
18128,2085
" /> 
<circle cx="17872.6" cy="1042.13" r="255.906" /> 
</g>
<g style="fill:#840000; fill-opacity:1.0; 
stroke:#840000; stroke-width:19.685; stroke-opacity:1; 
stroke-linecap:round; stroke-linejoin:round;">
</g>
<g style="fill:#840000; fill-opacity:1.0; 
stroke:#840000; stroke-width:0; stroke-opacity:1; 
stroke-linecap:round; stroke-linejoin:round;">
<polyline style="fill-rule:evenodd;"
points="20428,2085
19916,2085
19916,1573
20428,1573
20428,2085
" /> 
<circle cx="20172.6" cy="1042.13" r="255.906" /> 
</g>
<g style="fill:#840000; fill-opacity:1.0; 
stroke:#840000; stroke-width:19.685; stroke-opacity:1; 
stroke-linecap:round; stroke-linejoin:round;">
</g>
<g style="fill:#840000; fill-opacity:1.0; 
stroke:#840000; stroke-width:0; stroke-opacity:1; 
stroke-linecap:round; stroke-linejoin:round;">
<polyline style="fill-rule:evenodd;"
points="22728,2085
22216,2085
22216,1573
22728,1573
22728,2085
" /> 
<circle cx="22472.6" cy="1042.13" r="255.906" /> 
</g>
<g style="fill:#840000; fill-opacity:1.0; 
stroke:#840000; stroke-width:19.685; stroke-opacity:1; 
stroke-linecap:round; stroke-linejoin:round;">
</g>
<g style="fill:#840000; fill-opacity:1.0; 
stroke:#840000; stroke-width:0; stroke-opacity:1; 
stroke-linecap:round; stroke-linejoin:round;">
<polyline style="fill-rule:evenodd;"
points="25028,2085
24516,2085
24516,1573
25028,1573
25028,2085
" /> 
<circle cx="24772.6" cy="1042.13" r="255.906" /> 
</g>
<g style="fill:#840000; fill-opacity:1.0; 
stroke:#840000; stroke-width:19.685; stroke-opacity:1; 
stroke-linecap:round; stroke-linejoin:round;">
</g>
<g style="fill:#840000; fill-opacity:1.0; 
stroke:#840000; stroke-width:0; stroke-opacity:1; 
stroke-linecap:round; stroke-linejoin:round;">
<polyline style="fill-rule:evenodd;"
points="13072,2869
13072,2189
13872,2189
13872,2869
13072,2869
" /> 
</g>
<g style="fill:#840000; fill-opacity:1.0; 
stroke:#840000; stroke-width:680; stroke-opacity:1; 
stroke-linecap:round; stroke-linejoin:round;">
</g>
<g style="fill:#840000; fill-opacity:0.0; 
stroke:#840000; stroke-width:680; stroke-opacity:1; 
stroke-linecap:round; stroke-linejoin:round;">
<path d="M13412 3529
L13532 3529
" />
<path d="M13412 4529
L13532 4529
" />
<path d="M13412 5529
L13532 5529
" />
<path d="M13412 6529
L13532 6529
" />
<path d="M13412 7529
L13532 7529
" />
<path d="M13412 8529
L13532 8529
" />
<path d="M13412 9529
L13532 9529
" />
</g>
<g style="fill:#840000; fill-opacity:0.0; 
stroke:#840000; stroke-width:0; stroke-opacity:1; 
stroke-linecap:round; stroke-linejoin:round;">
</g>
<g style="fill:#840000; fill-opacity:1.0; 
stroke:#840000; stroke-width:0; stroke-opacity:1; 
stroke-linecap:round; stroke-linejoin:round;">
<polyline style="fill-rule:evenodd;"
points="6172,3869
6172,3189
6972,3189
6972,3869
6172,3869
" /> 
</g>
<g style="fill:#840000; fill-opacity:1.0; 
stroke:#840000; stroke-width:680; stroke-opacity:1; 
stroke-linecap:round; stroke-linejoin:round;">
</g>
<g style="fill:#840000; fill-opacity:0.0; 
stroke:#840000; stroke-width:680; stroke-opacity:1; 
stroke-linecap:round; stroke-linejoin:round;">
<path d="M6512 4529
L6632 4529
" />
<path d="M6512 5529
L6632 5529
" />
<path d="M6512 6529
L6632 6529
" />
<path d="M6512 7529
L6632 7529
" />
<path d="M6512 8529
L6632 8529
" />
</g>
<g style="fill:#840000; fill-opacity:0.0; 
stroke:#840000; stroke-width:0; stroke-opacity:1; 
stroke-linecap:round; stroke-linejoin:round;">
</g>
<g style="fill:#840000; fill-opacity:1.0; 
stroke:#840000; stroke-width:0; stroke-opacity:1; 
stroke-linecap:round; stroke-linejoin:round;">
<polyline style="fill-rule:evenodd;"
points="5472,8189
5472,8869
4672,8869
4672,8189
5472,8189
" /> 
</g>
<g style="fill:#840000; fill-opacity:1.0; 
stroke:#840000; stroke-width:680; stroke-opacity:1; 
stroke-linecap:round; stroke-linejoin:round;">
</g>
<g style="fill:#840000; fill-opacity:0.0; 
stroke:#840000; stroke-width:680; stroke-opacity:1; 
stroke-linecap:round; stroke-linejoin:round;">
<path d="M5132 7529
L5012 7529
" />
<path d="M5132 6529
L5012 6529
" />
<path d="M5132 5529
L5012 5529
" />
<path d="M5132 4529
L5012 4529
" />
<path d="M5132 3529
L5012 3529
" />
</g>
<g style="fill:#840000; fill-opacity:1.0; 
stroke:#840000; stroke-width:0; stroke-opacity:1; 
stroke-linecap:round; stroke-linejoin:round;">
<circle cx="27072.6" cy="9382.28" r="393.5" /> 
</g>
<g style="fill:#840000; fill-opacity:1.0; 
stroke:#840000; stroke-width:19.685; stroke-opacity:1; 
stroke-linecap:round; stroke-linejoin:round;">
</g>
<g style="fill:#840000; fill-opacity:1.0; 
stroke:#840000; stroke-width:0; stroke-opacity:1; 
stroke-linecap:round; stroke-linejoin:round;">
<circle cx="27072.6" cy="3476.77" r="393.5" /> 
</g>
<g style="fill:#840000; fill-opacity:1.0; 
stroke:#840000; stroke-width:19.685; stroke-opacity:1; 
stroke-linecap:round; stroke-linejoin:round;">
</g>
<g style="fill:#840000; fill-opacity:1.0; 
stroke:#840000; stroke-width:0; stroke-opacity:1; 
stroke-linecap:round; stroke-linejoin:round;">
<circle cx="15572.6" cy="9382.28" r="393.5" /> 
</g>
<g style="fill:#840000; fill-opacity:1.0; 
stroke:#840000; stroke-width:19.685; stroke-opacity:1; 
stroke-linecap:round; stroke-linejoin:round;">
</g>
<g style="fill:#840000; fill-opacity:1.0; 
stroke:#840000; stroke-width:0; stroke-opacity:1; 
stroke-linecap:round; stroke-linejoin:round;">
<circle cx="15572.6" cy="3476.77" r="393.5" /> 
</g>
<g style="fill:#840000; fill-opacity:1.0; 
stroke:#840000; stroke-width:19.685; stroke-opacity:1; 
stroke-linecap:round; stroke-linejoin:round;">
</g>
<g style="fill:#840000; fill-opacity:1.0; 
stroke:#840000; stroke-width:0; stroke-opacity:1; 
stroke-linecap:round; stroke-linejoin:round;">
<circle cx="17872.6" cy="9382.28" r="393.5" /> 
</g>
<g style="fill:#840000; fill-opacity:1.0; 
stroke:#840000; stroke-width:19.685; stroke-opacity:1; 
stroke-linecap:round; stroke-linejoin:round;">
</g>
<g style="fill:#840000; fill-opacity:1.0; 
stroke:#840000; stroke-width:0; stroke-opacity:1; 
stroke-linecap:round; stroke-linejoin:round;">
<circle cx="17872.6" cy="3476.77" r="393.5" /> 
</g>
<g style="fill:#840000; fill-opacity:1.0; 
stroke:#840000; stroke-width:19.685; stroke-opacity:1; 
stroke-linecap:round; stroke-linejoin:round;">
</g>
<g style="fill:#840000; fill-opacity:1.0; 
stroke:#840000; stroke-width:0; stroke-opacity:1; 
stroke-linecap:round; stroke-linejoin:round;">
<circle cx="20172.6" cy="9382.28" r="393.5" /> 
</g>
<g style="fill:#840000; fill-opacity:1.0; 
stroke:#840000; stroke-width:19.685; stroke-opacity:1; 
stroke-linecap:round; stroke-linejoin:round;">
</g>
<g style="fill:#840000; fill-opacity:1.0; 
stroke:#840000; stroke-width:0; stroke-opacity:1; 
stroke-linecap:round; stroke-linejoin:round;">
<circle cx="20172.6" cy="3476.77" r="393.5" /> 
</g>
<g style="fill:#840000; fill-opacity:1.0; 
stroke:#840000; stroke-width:19.685; stroke-opacity:1; 
stroke-linecap:round; stroke-linejoin:round;">
</g>
<g style="fill:#840000; fill-opacity:1.0; 
stroke:#840000; stroke-width:0; stroke-opacity:1; 
stroke-linecap:round; stroke-linejoin:round;">
<circle cx="22472.6" cy="9382.28" r="393.5" /> 
</g>
<g style="fill:#840000; fill-opacity:1.0; 
stroke:#840000; stroke-width:19.685; stroke-opacity:1; 
stroke-linecap:round; stroke-linejoin:round;">
</g>
<g style="fill:#840000; fill-opacity:1.0; 
stroke:#840000; stroke-width:0; stroke-opacity:1; 
stroke-linecap:round; stroke-linejoin:round;">
<circle cx="22472.6" cy="3476.77" r="393.5" /> 
</g>
<g style="fill:#840000; fill-opacity:1.0; 
stroke:#840000; stroke-width:19.685; stroke-opacity:1; 
stroke-linecap:round; stroke-linejoin:round;">
</g>
<g style="fill:#840000; fill-opacity:1.0; 
stroke:#840000; stroke-width:0; stroke-opacity:1; 
stroke-linecap:round; stroke-linejoin:round;">
<circle cx="24772.6" cy="9382.28" r="393.5" /> 
</g>
<g style="fill:#840000; fill-opacity:1.0; 
stroke:#840000; stroke-width:19.685; stroke-opacity:1; 
stroke-linecap:round; stroke-linejoin:round;">
</g>
<g style="fill:#840000; fill-opacity:1.0; 
stroke:#840000; stroke-width:0; stroke-opacity:1; 
stroke-linecap:round; stroke-linejoin:round;">
<circle cx="24772.6" cy="3476.77" r="393.5" /> 
</g>
<g style="fill:#840000; fill-opacity:1.0; 
stroke:#840000; stroke-width:19.685; stroke-opacity:1; 
stroke-linecap:round; stroke-linejoin:round;">
</g>
<g style="fill:#840000; fill-opacity:1.0; 
stroke:#840000; stroke-width:0; stroke-opacity:1; 
stroke-linecap:round; stroke-linejoin:round;">
<circle cx="11972.6" cy="3529.53" r="393.5" /> 
</g>
<g style="fill:#840000; fill-opacity:1.0; 
stroke:#840000; stroke-width:19.685; stroke-opacity:1; 
stroke-linecap:round; stroke-linejoin:round;">
</g>
<g style="fill:#840000; fill-opacity:1.0; 
stroke:#840000; stroke-width:0; stroke-opacity:1; 
stroke-linecap:round; stroke-linejoin:round;">
<circle cx="7972.65" cy="3529.53" r="393.5" /> 
</g>
<g style="fill:#840000; fill-opacity:1.0; 
stroke:#840000; stroke-width:19.685; stroke-opacity:1; 
stroke-linecap:round; stroke-linejoin:round;">
</g>
<g style="fill:#840000; fill-opacity:1.0; 
stroke:#840000; stroke-width:0; stroke-opacity:1; 
stroke-linecap:round; stroke-linejoin:round;">
<circle cx="11972.6" cy="8529.53" r="393.5" /> 
</g>
<g style="fill:#840000; fill-opacity:1.0; 
stroke:#840000; stroke-width:19.685; stroke-opacity:1; 
stroke-linecap:round; stroke-linejoin:round;">
</g>
<g style="fill:#840000; fill-opacity:1.0; 
stroke:#840000; stroke-width:0; stroke-opacity:1; 
stroke-linecap:round; stroke-linejoin:round;">
<circle cx="7972.65" cy="8529.53" r="393.5" /> 
</g>
<g style="fill:#840000; fill-opacity:1.0; 
stroke:#840000; stroke-width:19.685; stroke-opacity:1; 
stroke-linecap:round; stroke-linejoin:round;">
</g>
<g style="fill:#840000; fill-opacity:1.0; 
stroke:#840000; stroke-width:0; stroke-opacity:1; 
stroke-linecap:round; stroke-linejoin:round;">
<circle cx="11972.6" cy="4529.53" r="393.5" /> 
</g>
<g style="fill:#840000; fill-opacity:1.0; 
stroke:#840000; stroke-width:19.685; stroke-opacity:1; 
stroke-linecap:round; stroke-linejoin:round;">
</g>
<g style="fill:#840000; fill-opacity:1.0; 
stroke:#840000; stroke-width:0; stroke-opacity:1; 
stroke-linecap:round; stroke-linejoin:round;">
<circle cx="7972.65" cy="4529.53" r="393.5" /> 
</g>
<g style="fill:#840000; fill-opacity:1.0; 
stroke:#840000; stroke-width:19.685; stroke-opacity:1; 
stroke-linecap:round; stroke-linejoin:round;">
</g>
<g style="fill:#840000; fill-opacity:1.0; 
stroke:#840000; stroke-width:0; stroke-opacity:1; 
stroke-linecap:round; stroke-linejoin:round;">
<circle cx="11972.6" cy="5529.53" r="393.5" /> 
</g>
<g style="fill:#840000; fill-opacity:1.0; 
stroke:#840000; stroke-width:19.685; stroke-opacity:1; 
stroke-linecap:round; stroke-linejoin:round;">
</g>
<g style="fill:#840000; fill-opacity:1.0; 
stroke:#840000; stroke-width:0; stroke-opacity:1; 
stroke-linecap:round; stroke-linejoin:round;">
<circle cx="7972.65" cy="5529.53" r="393.5" /> 
</g>
<g style="fill:#840000; fill-opacity:1.0; 
stroke:#840000; stroke-width:19.685; stroke-opacity:1; 
stroke-linecap:round; stroke-linejoin:round;">
</g>
<g style="fill:#840000; fill-opacity:1.0; 
stroke:#840000; stroke-width:0; stroke-opacity:1; 
stroke-linecap:round; stroke-linejoin:round;">
<circle cx="11972.6" cy="6529.53" r="393.5" /> 
</g>
<g style="fill:#840000; fill-opacity:1.0; 
stroke:#840000; stroke-width:19.685; stroke-opacity:1; 
stroke-linecap:round; stroke-linejoin:round;">
</g>
<g style="fill:#840000; fill-opacity:1.0; 
stroke:#840000; stroke-width:0; stroke-opacity:1; 
stroke-linecap:round; stroke-linejoin:round;">
<circle cx="7972.65" cy="6529.53" r="393.5" /> 
</g>
<g style="fill:#840000; fill-opacity:1.0; 
stroke:#840000; stroke-width:19.685; stroke-opacity:1; 
stroke-linecap:round; stroke-linejoin:round;">
</g>
<g style="fill:#840000; fill-opacity:1.0; 
stroke:#840000; stroke-width:0; stroke-opacity:1; 
stroke-linecap:round; stroke-linejoin:round;">
<circle cx="11972.6" cy="7529.53" r="393.5" /> 
</g>
<g style="fill:#840000; fill-opacity:1.0; 
stroke:#840000; stroke-width:19.685; stroke-opacity:1; 
stroke-linecap:round; stroke-linejoin:round;">
</g>
<g style="fill:#840000; fill-opacity:1.0; 
stroke:#840000; stroke-width:0; stroke-opacity:1; 
stroke-linecap:round; stroke-linejoin:round;">
<circle cx="7972.65" cy="7529.53" r="393.5" /> 
</g>
<g style="fill:#840000; fill-opacity:1.0; 
stroke:#840000; stroke-width:19.685; stroke-opacity:1; 
stroke-linecap:round; stroke-linejoin:round;">
</g>
<g style="fill:#008400; fill-opacity:1.0; 
stroke:#008400; stroke-width:19.685; stroke-opacity:1; 
stroke-linecap:round; stroke-linejoin:round;">
</g>
<g style="fill:#008400; fill-opacity:1.0; 
stroke:#008400; stroke-width:354.331; stroke-opacity:1; 
stroke-linecap:round; stroke-linejoin:round;">
</g>
<g style="fill:#008400; fill-opacity:0.0; 
stroke:#008400; stroke-width:354.331; stroke-opacity:1; 
stroke-linecap:round; stroke-linejoin:round;">
<path d="M17872 9382
L15572 9382
" />
<path d="M20172 9382
L17872 9382
" />
<path d="M22472 9382
L20172 9382
" />
<path d="M24772 9382
L22472 9382
" />
<path d="M27072 9382
L24772 9382
" />
<path d="M13472 9529
L15425 9529
" />
<path d="M15425 9529
L15572 9382
" />
<path d="M13472 4529
L11972 4529
" />
<path d="M17872 1829
L17872 3476
" />
<path d="M13472 4529
L16819 4529
" />
<path d="M16819 4529
L17872 3476
" />
<path d="M11972 5529
L13472 5529
" />
<path d="M20172 1829
L20172 3476
" />
<path d="M13472 5529
L18119 5529
" />
<path d="M18119 5529
L20172 3476
" />
<path d="M11972 8529
L13472 8529
" />
<path d="M27072 1829
L27072 3476
" />
<path d="M13472 8529
L22019 8529
" />
<path d="M22019 8529
L27072 3476
" />
<path d="M15572 1829
L15572 3476
" />
<path d="M13472 3529
L11972 3529
" />
<path d="M15572 3476
L13525 3476
" />
<path d="M13525 3476
L13472 3529
" />
<path d="M11972 6529
L13472 6529
" />
<path d="M22472 1829
L22472 3476
" />
<path d="M11972 6529
L12172 6529
" />
<path d="M13472 6529
L19419 6529
" />
<path d="M19419 6529
L22472 3476
" />
<path d="M11972 7529
L13472 7529
" />
<path d="M24772 1829
L24772 3476
" />
<path d="M13472 7529
L20719 7529
" />
<path d="M20719 7529
L24772 3476
" />
<path d="M6572 3529
L7972 3529
" />
<path d="M7972 4529
L6572 4529
" />
<path d="M7972 4529
L7772 4529
" />
<path d="M6572 5529
L7972 5529
" />
<path d="M7972 6529
L6572 6529
" />
<path d="M7872 6429
L7972 6529
" />
<path d="M6572 7529
L7972 7529
" />
<path d="M7972 8529
L6572 8529
" />
</g>
<g style="fill:#008400; fill-opacity:1.0; 
stroke:#008400; stroke-width:59.0551; stroke-opacity:1; 
stroke-linecap:round; stroke-linejoin:round;">
<polyline style="fill-rule:evenodd;"
points="30713,10270
1231,10270
1231,8618
4600,8618
4600,8883
4611,8910
4631,8930
4658,8941
4984,8941
5002,8923
5002,8600
5143,8600
5143,8923
5161,8941
5486,8941
5513,8930
5533,8910
5544,8883
5544,8618
5526,8600
5143,8600
5002,8600
4618,8600
4600,8618
1231,8618
1231,8175
4600,8175
4600,8441
4618,8459
5002,8459
5002,8135
5143,8135
5143,8459
5526,8459
5544,8441
5544,8175
5533,8148
5513,8128
5486,8117
5161,8117
5143,8135
5002,8135
4984,8117
4658,8117
4631,8128
4611,8148
4600,8175
1231,8175
1231,7662
4622,7662
4673,7762
4788,7874
4937,7933
5002,7922
5002,7600
5143,7600
5143,7922
5207,7933
5356,7874
5471,7762
5522,7662
5520,7600
5143,7600
5002,7600
4624,7600
4622,7662
1231,7662
1231,7396
4622,7396
4624,7459
5002,7459
5002,7136
5143,7136
5143,7459
5520,7459
5522,7396
5471,7296
5356,7184
5207,7125
5143,7136
5002,7136
4937,7125
4788,7184
4673,7296
4622,7396
1231,7396
1231,6662
4622,6662
4673,6762
4788,6874
4937,6933
5002,6922
5002,6600
5143,6600
5143,6922
5207,6933
5356,6874
5471,6762
5522,6662
5520,6600
5143,6600
5002,6600
4624,6600
4622,6662
1231,6662
1231,5891
1852,5891
1977,6193
2207,6424
2508,6549
2835,6549
3136,6425
3165,6396
4622,6396
4624,6459
5002,6459
5002,6136
5143,6136
5143,6459
5520,6459
5522,6396
5471,6296
5356,6184
5207,6125
5143,6136
5002,6136
4937,6125
4788,6184
4673,6296
4622,6396
3165,6396
3367,6194
3492,5893
3492,5662
4622,5662
4673,5762
4788,5874
4937,5933
5002,5922
5002,5600
5143,5600
5143,5922
5207,5933
5356,5874
5471,5762
5522,5662
5520,5600
5143,5600
5002,5600
4624,5600
4622,5662
3492,5662
3492,5567
3422,5396
4622,5396
4624,5459
5002,5459
5002,5136
5143,5136
5143,5459
5520,5459
5522,5396
5471,5296
5356,5184
5207,5125
5143,5136
5002,5136
4937,5125
4788,5184
4673,5296
4622,5396
3422,5396
3368,5265
3137,5034
2836,4909
2510,4909
2208,5033
1977,5264
1852,5565
1852,5891
1231,5891
1231,4662
4622,4662
4673,4762
4788,4874
4937,4933
5002,4922
5002,4600
5143,4600
5143,4922
5207,4933
5356,4874
5471,4762
5522,4662
5520,4600
5143,4600
5002,4600
4624,4600
4622,4662
1231,4662
1231,4529
5930,4529
5974,4747
6097,4932
6243,5029
6097,5126
5974,5311
5930,5529
5974,5747
6097,5932
6243,6029
6097,6126
5974,6311
5930,6529
5974,6747
6097,6932
6243,7029
6097,7126
5974,7311
5930,7529
5974,7747
6097,7932
6243,8029
6097,8126
5974,8311
5930,8529
5974,8747
6097,8932
6282,9055
6500,9099
6644,9099
6862,9055
7041,8936
7498,8936
7619,9057
7848,9152
8096,9152
8325,9058
8500,8882
8595,8653
8595,8406
8501,8177
8353,8029
8500,7882
8595,7653
8595,7406
8501,7177
8353,7029
8500,6882
8595,6653
8595,6406
8501,6177
8353,6029
8500,5882
8595,5653
8595,5406
8501,5177
8353,5029
8500,4882
8595,4653
8595,4406
8501,4177
8353,4029
8500,3882
8595,3653
8595,3652
11349,3652
11444,3881
11591,4029
11444,4176
11349,4405
11349,4652
11444,4881
11591,5029
11444,5176
11349,5405
11349,5652
11444,5881
11591,6029
11444,6176
11349,6405
11349,6652
11444,6881
11591,7029
11444,7176
11349,7405
11349,7652
11444,7881
11591,8029
11444,8176
11349,8405
11349,8652
11444,8881
11619,9057
11848,9152
12096,9152
12325,9058
12447,8936
13003,8936
13143,9029
12997,9126
12874,9311
12830,9529
12874,9747
12997,9932
13182,10055
13400,10099
13544,10099
13762,10055
13941,9936
15282,9936
15448,10005
15696,10005
15925,9910
16047,9788
17398,9788
17519,9910
17748,10005
17996,10005
18225,9910
18347,9788
19698,9788
19819,9910
20048,10005
20296,10005
20525,9910
20647,9788
21998,9788
22119,9910
22348,10005
22596,10005
22825,9910
22947,9788
24298,9788
24419,9910
24648,10005
24896,10005
25125,9910
25247,9788
26598,9788
26719,9910
26948,10005
27196,10005
27425,9910
27600,9735
27695,9506
27695,9258
27601,9029
27426,8854
27197,8759
26949,8759
26720,8853
26598,8975
25246,8975
25126,8854
24897,8759
24649,8759
24420,8853
24298,8975
22946,8975
22826,8854
22597,8759
22365,8759
25232,5891
28552,5891
28677,6193
28907,6424
29208,6549
29535,6549
29836,6425
30067,6194
30192,5893
30192,5567
30068,5265
29837,5034
29536,4909
29210,4909
28908,5033
28677,5264
28552,5565
28552,5891
25232,5891
27024,4099
27196,4099
27425,4005
27600,3830
27695,3601
27695,3353
27601,3124
27479,3002
27479,2260
27494,2250
27544,2174
27562,2085
27562,1573
27544,1484
27494,1408
27418,1357
27328,1339
27215,1339
27240,1310
27072,1141
26904,1310
26930,1339
26816,1339
26727,1357
26651,1408
26600,1484
26582,1573
26582,2085
26600,2174
26651,2250
26665,2260
26665,3002
26544,3123
26449,3352
26449,3524
21851,8122
13941,8122
13802,8029
13941,7936
20719,7936
20875,7905
21007,7817
24724,4099
24896,4099
25125,4005
25300,3830
25395,3601
25395,3353
25301,3124
25179,3002
25179,2260
25194,2250
25244,2174
25262,2085
25262,1573
25244,1484
25194,1408
25118,1357
25028,1339
24915,1339
24940,1310
24772,1141
24604,1310
24630,1339
24516,1339
24427,1357
24351,1408
24300,1484
24282,1573
24282,2085
24300,2174
24351,2250
24365,2260
24365,3002
24244,3123
24149,3352
24149,3524
20551,7122
13941,7122
13802,7029
13941,6936
19419,6936
19575,6905
19707,6817
22424,4099
22596,4099
22825,4005
23000,3830
23095,3601
23095,3353
23001,3124
22879,3002
22879,2260
22894,2250
22944,2174
22962,2085
22962,1573
22944,1484
22894,1408
22818,1357
22728,1339
22615,1339
22640,1310
22472,1141
22304,1310
22330,1339
22216,1339
22127,1357
22051,1408
22000,1484
21982,1573
21982,2085
22000,2174
22051,2250
22065,2260
22065,3002
21944,3123
21849,3352
21849,3524
19251,6122
13941,6122
13802,6029
13941,5936
18119,5936
18275,5905
18407,5817
20124,4099
20296,4099
20525,4005
20700,3830
20795,3601
20795,3353
20701,3124
20579,3002
20579,2260
20594,2250
20644,2174
20662,2085
20662,1573
20644,1484
20594,1408
20518,1357
20428,1339
20315,1339
20340,1310
20172,1141
20004,1310
20030,1339
19916,1339
19827,1357
19751,1408
19700,1484
19682,1573
19682,2085
19700,2174
19751,2250
19765,2260
19765,3002
19644,3123
19549,3352
19549,3524
17951,5122
13941,5122
13802,5029
13941,4936
16819,4936
16975,4905
17107,4817
17824,4099
17996,4099
18225,4005
18400,3830
18495,3601
18495,3353
18401,3124
18279,3002
18279,2260
18294,2250
18344,2174
18362,2085
18362,1573
18344,1484
18294,1408
18218,1357
18128,1339
18015,1339
18040,1310
17872,1141
17704,1310
17730,1339
17616,1339
17527,1357
17451,1408
17400,1484
17382,1573
17382,2085
17400,2174
17451,2250
17465,2260
17465,3002
17344,3123
17249,3352
17249,3524
16651,4122
13941,4122
13802,4029
13947,3932
13980,3883
15098,3883
15219,4004
15448,4099
15696,4099
15925,4005
16100,3830
16195,3601
16195,3353
16101,3124
15979,3002
15979,2260
15994,2250
16044,2174
16062,2085
16062,1573
16044,1484
15994,1408
15918,1357
15828,1339
15715,1339
15740,1310
15572,1141
15404,1310
15430,1339
15316,1339
15227,1357
15151,1408
15100,1484
15082,1573
15082,2085
15100,2174
15151,2250
15165,2260
15165,3002
15098,3070
13862,3070
13762,3003
13544,2960
13400,2960
13182,3003
13003,3122
12446,3122
12326,3001
12097,2906
11849,2906
11620,3001
11444,3176
11349,3405
11349,3652
8595,3652
8595,3406
8501,3177
8326,3001
8097,2906
7849,2906
7620,3001
7498,3122
7193,3122
7188,3099
7138,3024
7062,2973
6972,2955
6172,2955
6083,2973
6007,3024
5956,3099
5938,3189
5938,3869
5956,3959
6007,4035
6083,4085
6141,4097
6097,4126
5974,4311
5930,4529
1231,4529
1231,4396
4622,4396
4624,4459
5002,4459
5002,4136
5143,4136
5143,4459
5520,4459
5522,4396
5471,4296
5356,4184
5207,4125
5143,4136
5002,4136
4937,4125
4788,4184
4673,4296
4622,4396
1231,4396
1231,3662
4622,3662
4673,3762
4788,3874
4937,3933
5002,3922
5002,3600
5143,3600
5143,3922
5207,3933
5356,3874
5471,3762
5522,3662
5520,3600
5143,3600
5002,3600
4624,3600
4622,3662
1231,3662
1231,3396
4622,3396
4624,3459
5002,3459
5002,3136
5143,3136
5143,3459
5520,3459
5522,3396
5471,3296
5356,3184
5207,3125
5143,3136
5002,3136
4937,3125
4788,3184
4673,3296
4622,3396
1231,3396
1231,2618
13000,2618
13000,2883
13011,2910
13031,2930
13058,2941
13384,2941
13402,2923
13402,2600
13543,2600
13543,2923
13561,2941
13886,2941
13913,2930
13933,2910
13944,2883
13944,2618
13926,2600
13543,2600
13402,2600
13018,2600
13000,2618
1231,2618
1231,2175
13000,2175
13000,2441
13018,2459
13402,2459
13402,2135
13543,2135
13543,2459
13926,2459
13944,2441
13944,2175
13933,2148
13913,2128
13886,2117
13561,2117
13543,2135
13402,2135
13384,2117
13058,2117
13031,2128
13011,2148
13000,2175
1231,2175
1231,1874
9691,1874
9691,1034
15238,1034
15260,1162
15266,1177
15304,1210
15472,1042
15672,1042
15840,1210
15878,1177
15906,1049
15904,1034
17538,1034
17560,1162
17566,1177
17604,1210
17772,1042
17972,1042
18140,1210
18178,1177
18206,1049
18204,1034
19838,1034
19860,1162
19866,1177
19904,1210
20072,1042
20272,1042
20440,1210
20478,1177
20506,1049
20504,1034
22138,1034
22160,1162
22166,1177
22204,1210
22372,1042
22572,1042
22740,1210
22778,1177
22806,1049
22804,1034
24438,1034
24460,1162
24466,1177
24504,1210
24672,1042
24872,1042
25040,1210
25078,1177
25106,1049
25104,1034
26738,1034
26760,1162
26766,1177
26804,1210
26972,1042
27172,1042
27340,1210
27378,1177
27406,1049
27384,921
27378,907
27340,873
27172,1042
26972,1042
26804,873
26766,907
26738,1034
25104,1034
25084,921
25078,907
25040,873
24872,1042
24672,1042
24504,873
24466,907
24438,1034
22804,1034
22784,921
22778,907
22740,873
22572,1042
22372,1042
22204,873
22166,907
22138,1034
20504,1034
20484,921
20478,907
20440,873
20272,1042
20072,1042
19904,873
19866,907
19838,1034
18204,1034
18184,921
18178,907
18140,873
17972,1042
17772,1042
17604,873
17566,907
17538,1034
15904,1034
15884,921
15878,907
15840,873
15672,1042
15472,1042
15304,873
15266,907
15238,1034
9691,1034
9691,774
15404,774
15572,942
15740,774
17704,774
17872,942
18040,774
20004,774
20172,942
20340,774
22304,774
22472,942
22640,774
24604,774
24772,942
24940,774
26904,774
27072,942
27240,774
27207,736
27080,707
26951,730
26937,736
26904,774
24940,774
24907,736
24780,707
24651,730
24637,736
24604,774
22640,774
22607,736
22480,707
22351,730
22337,736
22304,774
20340,774
20307,736
20180,707
20051,730
20037,736
20004,774
18040,774
18007,736
17880,707
17751,730
17737,736
17704,774
15740,774
15707,736
15580,707
15451,730
15437,736
15404,774
9691,774
9691,706
1231,706
1231,288
30713,288
30713,10270
" /> 
</g>
<g style="fill:#FFFFFF; fill-opacity:1.0; 
stroke:#FFFFFF; stroke-width:59.0551; stroke-opacity:1; 
stroke-linecap:round; stroke-linejoin:round;">
</g>
<g style="fill:#FFFFFF; fill-opacity:1.0; 
stroke:#FFFFFF; stroke-width:0; stroke-opacity:1; 
stroke-linecap:round; stroke-linejoin:round;">
<circle cx="27072.6" cy="1829.53" r="157.48" /> 
</g>
<g style="fill:#FFFFFF; fill-opacity:1.0; 
stroke:#FFFFFF; stroke-width:19.685; stroke-opacity:1; 
stroke-linecap:round; stroke-linejoin:round;">
</g>
<g style="fill:#FFFFFF; fill-opacity:1.0; 
stroke:#FFFFFF; stroke-width:0; stroke-opacity:1; 
stroke-linecap:round; stroke-linejoin:round;">
<circle cx="27072.6" cy="1042.13" r="157.48" /> 
</g>
<g style="fill:#FFFFFF; fill-opacity:1.0; 
stroke:#FFFFFF; stroke-width:19.685; stroke-opacity:1; 
stroke-linecap:round; stroke-linejoin:round;">
</g>
<g style="fill:#FFFFFF; fill-opacity:1.0; 
stroke:#FFFFFF; stroke-width:0; stroke-opacity:1; 
stroke-linecap:round; stroke-linejoin:round;">
<circle cx="15572.6" cy="1829.53" r="157.48" /> 
</g>
<g style="fill:#FFFFFF; fill-opacity:1.0; 
stroke:#FFFFFF; stroke-width:19.685; stroke-opacity:1; 
stroke-linecap:round; stroke-linejoin:round;">
</g>
<g style="fill:#FFFFFF; fill-opacity:1.0; 
stroke:#FFFFFF; stroke-width:0; stroke-opacity:1; 
stroke-linecap:round; stroke-linejoin:round;">
<circle cx="15572.6" cy="1042.13" r="157.48" /> 
</g>
<g style="fill:#FFFFFF; fill-opacity:1.0; 
stroke:#FFFFFF; stroke-width:19.685; stroke-opacity:1; 
stroke-linecap:round; stroke-linejoin:round;">
</g>
<g style="fill:#FFFFFF; fill-opacity:1.0; 
stroke:#FFFFFF; stroke-width:0; stroke-opacity:1; 
stroke-linecap:round; stroke-linejoin:round;">
<circle cx="17872.6" cy="1829.53" r="157.48" /> 
</g>
<g style="fill:#FFFFFF; fill-opacity:1.0; 
stroke:#FFFFFF; stroke-width:19.685; stroke-opacity:1; 
stroke-linecap:round; stroke-linejoin:round;">
</g>
<g style="fill:#FFFFFF; fill-opacity:1.0; 
stroke:#FFFFFF; stroke-width:0; stroke-opacity:1; 
stroke-linecap:round; stroke-linejoin:round;">
<circle cx="17872.6" cy="1042.13" r="157.48" /> 
</g>
<g style="fill:#FFFFFF; fill-opacity:1.0; 
stroke:#FFFFFF; stroke-width:19.685; stroke-opacity:1; 
stroke-linecap:round; stroke-linejoin:round;">
</g>
<g style="fill:#FFFFFF; fill-opacity:1.0; 
stroke:#FFFFFF; stroke-width:0; stroke-opacity:1; 
stroke-linecap:round; stroke-linejoin:round;">
<circle cx="20172.6" cy="1829.53" r="157.48" /> 
</g>
<g style="fill:#FFFFFF; fill-opacity:1.0; 
stroke:#FFFFFF; stroke-width:19.685; stroke-opacity:1; 
stroke-linecap:round; stroke-linejoin:round;">
</g>
<g style="fill:#FFFFFF; fill-opacity:1.0; 
stroke:#FFFFFF; stroke-width:0; stroke-opacity:1; 
stroke-linecap:round; stroke-linejoin:round;">
<circle cx="20172.6" cy="1042.13" r="157.48" /> 
</g>
<g style="fill:#FFFFFF; fill-opacity:1.0; 
stroke:#FFFFFF; stroke-width:19.685; stroke-opacity:1; 
stroke-linecap:round; stroke-linejoin:round;">
</g>
<g style="fill:#FFFFFF; fill-opacity:1.0; 
stroke:#FFFFFF; stroke-width:0; stroke-opacity:1; 
stroke-linecap:round; stroke-linejoin:round;">
<circle cx="22472.6" cy="1829.53" r="157.48" /> 
</g>
<g style="fill:#FFFFFF; fill-opacity:1.0; 
stroke:#FFFFFF; stroke-width:19.685; stroke-opacity:1; 
stroke-linecap:round; stroke-linejoin:round;">
</g>
<g style="fill:#FFFFFF; fill-opacity:1.0; 
stroke:#FFFFFF; stroke-width:0; stroke-opacity:1; 
stroke-linecap:round; stroke-linejoin:round;">
<circle cx="22472.6" cy="1042.13" r="157.48" /> 
</g>
<g style="fill:#FFFFFF; fill-opacity:1.0; 
stroke:#FFFFFF; stroke-width:19.685; stroke-opacity:1; 
stroke-linecap:round; stroke-linejoin:round;">
</g>
<g style="fill:#FFFFFF; fill-opacity:1.0; 
stroke:#FFFFFF; stroke-width:0; stroke-opacity:1; 
stroke-linecap:round; stroke-linejoin:round;">
<circle cx="24772.6" cy="1829.53" r="157.48" /> 
</g>
<g style="fill:#FFFFFF; fill-opacity:1.0; 
stroke:#FFFFFF; stroke-width:19.685; stroke-opacity:1; 
stroke-linecap:round; stroke-linejoin:round;">
</g>
<g style="fill:#FFFFFF; fill-opacity:1.0; 
stroke:#FFFFFF; stroke-width:0; stroke-opacity:1; 
stroke-linecap:round; stroke-linejoin:round;">
<circle cx="24772.6" cy="1042.13" r="157.48" /> 
</g>
<g style="fill:#FFFFFF; fill-opacity:1.0; 
stroke:#FFFFFF; stroke-width:19.685; stroke-opacity:1; 
stroke-linecap:round; stroke-linejoin:round;">
</g>
<g style="fill:#FFFFFF; fill-opacity:1.0; 
stroke:#FFFFFF; stroke-width:0; stroke-opacity:1; 
stroke-linecap:round; stroke-linejoin:round;">
<circle cx="13472.6" cy="2529.53" r="200" /> 
</g>
<g style="fill:#FFFFFF; fill-opacity:1.0; 
stroke:#FFFFFF; stroke-width:19.685; stroke-opacity:1; 
stroke-linecap:round; stroke-linejoin:round;">
</g>
<g style="fill:#FFFFFF; fill-opacity:1.0; 
stroke:#FFFFFF; stroke-width:0; stroke-opacity:1; 
stroke-linecap:round; stroke-linejoin:round;">
<circle cx="13472.6" cy="3529.53" r="200" /> 
</g>
<g style="fill:#FFFFFF; fill-opacity:1.0; 
stroke:#FFFFFF; stroke-width:19.685; stroke-opacity:1; 
stroke-linecap:round; stroke-linejoin:round;">
</g>
<g style="fill:#FFFFFF; fill-opacity:1.0; 
stroke:#FFFFFF; stroke-width:0; stroke-opacity:1; 
stroke-linecap:round; stroke-linejoin:round;">
<circle cx="13472.6" cy="4529.53" r="200" /> 
</g>
<g style="fill:#FFFFFF; fill-opacity:1.0; 
stroke:#FFFFFF; stroke-width:19.685; stroke-opacity:1; 
stroke-linecap:round; stroke-linejoin:round;">
</g>
<g style="fill:#FFFFFF; fill-opacity:1.0; 
stroke:#FFFFFF; stroke-width:0; stroke-opacity:1; 
stroke-linecap:round; stroke-linejoin:round;">
<circle cx="13472.6" cy="5529.53" r="200" /> 
</g>
<g style="fill:#FFFFFF; fill-opacity:1.0; 
stroke:#FFFFFF; stroke-width:19.685; stroke-opacity:1; 
stroke-linecap:round; stroke-linejoin:round;">
</g>
<g style="fill:#FFFFFF; fill-opacity:1.0; 
stroke:#FFFFFF; stroke-width:0; stroke-opacity:1; 
stroke-linecap:round; stroke-linejoin:round;">
<circle cx="13472.6" cy="6529.53" r="200" /> 
</g>
<g style="fill:#FFFFFF; fill-opacity:1.0; 
stroke:#FFFFFF; stroke-width:19.685; stroke-opacity:1; 
stroke-linecap:round; stroke-linejoin:round;">
</g>
<g style="fill:#FFFFFF; fill-opacity:1.0; 
stroke:#FFFFFF; stroke-width:0; stroke-opacity:1; 
stroke-linecap:round; stroke-linejoin:round;">
<circle cx="13472.6" cy="7529.53" r="200" /> 
</g>
<g style="fill:#FFFFFF; fill-opacity:1.0; 
stroke:#FFFFFF; stroke-width:19.685; stroke-opacity:1; 
stroke-linecap:round; stroke-linejoin:round;">
</g>
<g style="fill:#FFFFFF; fill-opacity:1.0; 
stroke:#FFFFFF; stroke-width:0; stroke-opacity:1; 
stroke-linecap:round; stroke-linejoin:round;">
<circle cx="13472.6" cy="8529.53" r="200" /> 
</g>
<g style="fill:#FFFFFF; fill-opacity:1.0; 
stroke:#FFFFFF; stroke-width:19.685; stroke-opacity:1; 
stroke-linecap:round; stroke-linejoin:round;">
</g>
<g style="fill:#FFFFFF; fill-opacity:1.0; 
stroke:#FFFFFF; stroke-width:0; stroke-opacity:1; 
stroke-linecap:round; stroke-linejoin:round;">
<circle cx="13472.6" cy="9529.53" r="200" /> 
</g>
<g style="fill:#FFFFFF; fill-opacity:1.0; 
stroke:#FFFFFF; stroke-width:19.685; stroke-opacity:1; 
stroke-linecap:round; stroke-linejoin:round;">
</g>
<g style="fill:#FFFFFF; fill-opacity:1.0; 
stroke:#FFFFFF; stroke-width:0; stroke-opacity:1; 
stroke-linecap:round; stroke-linejoin:round;">
<circle cx="6572.65" cy="3529.53" r="200" /> 
</g>
<g style="fill:#FFFFFF; fill-opacity:1.0; 
stroke:#FFFFFF; stroke-width:19.685; stroke-opacity:1; 
stroke-linecap:round; stroke-linejoin:round;">
</g>
<g style="fill:#FFFFFF; fill-opacity:1.0; 
stroke:#FFFFFF; stroke-width:0; stroke-opacity:1; 
stroke-linecap:round; stroke-linejoin:round;">
<circle cx="6572.65" cy="4529.53" r="200" /> 
</g>
<g style="fill:#FFFFFF; fill-opacity:1.0; 
stroke:#FFFFFF; stroke-width:19.685; stroke-opacity:1; 
stroke-linecap:round; stroke-linejoin:round;">
</g>
<g style="fill:#FFFFFF; fill-opacity:1.0; 
stroke:#FFFFFF; stroke-width:0; stroke-opacity:1; 
stroke-linecap:round; stroke-linejoin:round;">
<circle cx="6572.65" cy="5529.53" r="200" /> 
</g>
<g style="fill:#FFFFFF; fill-opacity:1.0; 
stroke:#FFFFFF; stroke-width:19.685; stroke-opacity:1; 
stroke-linecap:round; stroke-linejoin:round;">
</g>
<g style="fill:#FFFFFF; fill-opacity:1.0; 
stroke:#FFFFFF; stroke-width:0; stroke-opacity:1; 
stroke-linecap:round; stroke-linejoin:round;">
<circle cx="6572.65" cy="6529.53" r="200" /> 
</g>
<g style="fill:#FFFFFF; fill-opacity:1.0; 
stroke:#FFFFFF; stroke-width:19.685; stroke-opacity:1; 
stroke-linecap:round; stroke-linejoin:round;">
</g>
<g style="fill:#FFFFFF; fill-opacity:1.0; 
stroke:#FFFFFF; stroke-width:0; stroke-opacity:1; 
stroke-linecap:round; stroke-linejoin:round;">
<circle cx="6572.65" cy="7529.53" r="200" /> 
</g>
<g style="fill:#FFFFFF; fill-opacity:1.0; 
stroke:#FFFFFF; stroke-width:19.685; stroke-opacity:1; 
stroke-linecap:round; stroke-linejoin:round;">
</g>
<g style="fill:#FFFFFF; fill-opacity:1.0; 
stroke:#FFFFFF; stroke-width:0; stroke-opacity:1; 
stroke-linecap:round; stroke-linejoin:round;">
<circle cx="6572.65" cy="8529.53" r="200" /> 
</g>
<g style="fill:#FFFFFF; fill-opacity:1.0; 
stroke:#FFFFFF; stroke-width:19.685; stroke-opacity:1; 
stroke-linecap:round; stroke-linejoin:round;">
</g>
<g style="fill:#FFFFFF; fill-opacity:1.0; 
stroke:#FFFFFF; stroke-width:0; stroke-opacity:1; 
stroke-linecap:round; stroke-linejoin:round;">
<circle cx="5072.65" cy="8529.53" r="200" /> 
</g>
<g style="fill:#FFFFFF; fill-opacity:1.0; 
stroke:#FFFFFF; stroke-width:19.685; stroke-opacity:1; 
stroke-linecap:round; stroke-linejoin:round;">
</g>
<g style="fill:#FFFFFF; fill-opacity:1.0; 
stroke:#FFFFFF; stroke-width:0; stroke-opacity:1; 
stroke-linecap:round; stroke-linejoin:round;">
<circle cx="5072.65" cy="7529.53" r="200" /> 
</g>
<g style="fill:#FFFFFF; fill-opacity:1.0; 
stroke:#FFFFFF; stroke-width:19.685; stroke-opacity:1; 
stroke-linecap:round; stroke-linejoin:round;">
</g>
<g style="fill:#FFFFFF; fill-opacity:1.0; 
stroke:#FFFFFF; stroke-width:0; stroke-opacity:1; 
stroke-linecap:round; stroke-linejoin:round;">
<circle cx="5072.65" cy="6529.53" r="200" /> 
</g>
<g style="fill:#FFFFFF; fill-opacity:1.0; 
stroke:#FFFFFF; stroke-width:19.685; stroke-opacity:1; 
stroke-linecap:round; stroke-linejoin:round;">
</g>
<g style="fill:#FFFFFF; fill-opacity:1.0; 
stroke:#FFFFFF; stroke-width:0; stroke-opacity:1; 
stroke-linecap:round; stroke-linejoin:round;">
<circle cx="5072.65" cy="5529.53" r="200" /> 
</g>
<g style="fill:#FFFFFF; fill-opacity:1.0; 
stroke:#FFFFFF; stroke-width:19.685; stroke-opacity:1; 
stroke-linecap:round; stroke-linejoin:round;">
</g>
<g style="fill:#FFFFFF; fill-opacity:1.0; 
stroke:#FFFFFF; stroke-width:0; stroke-opacity:1; 
stroke-linecap:round; stroke-linejoin:round;">
<circle cx="5072.65" cy="4529.53" r="200" /> 
</g>
<g style="fill:#FFFFFF; fill-opacity:1.0; 
stroke:#FFFFFF; stroke-width:19.685; stroke-opacity:1; 
stroke-linecap:round; stroke-linejoin:round;">
</g>
<g style="fill:#FFFFFF; fill-opacity:1.0; 
stroke:#FFFFFF; stroke-width:0; stroke-opacity:1; 
stroke-linecap:round; stroke-linejoin:round;">
<circle cx="5072.65" cy="3529.53" r="200" /> 
</g>
<g style="fill:#FFFFFF; fill-opacity:1.0; 
stroke:#FFFFFF; stroke-width:19.685; stroke-opacity:1; 
stroke-linecap:round; stroke-linejoin:round;">
</g>
<g style="fill:#FFFFFF; fill-opacity:1.0; 
stroke:#FFFFFF; stroke-width:0; stroke-opacity:1; 
stroke-linecap:round; stroke-linejoin:round;">
<circle cx="27072.6" cy="9382.28" r="197" /> 
</g>
<g style="fill:#FFFFFF; fill-opacity:1.0; 
stroke:#FFFFFF; stroke-width:19.685; stroke-opacity:1; 
stroke-linecap:round; stroke-linejoin:round;">
</g>
<g style="fill:#FFFFFF; fill-opacity:1.0; 
stroke:#FFFFFF; stroke-width:0; stroke-opacity:1; 
stroke-linecap:round; stroke-linejoin:round;">
<circle cx="27072.6" cy="3476.77" r="197" /> 
</g>
<g style="fill:#FFFFFF; fill-opacity:1.0; 
stroke:#FFFFFF; stroke-width:19.685; stroke-opacity:1; 
stroke-linecap:round; stroke-linejoin:round;">
</g>
<g style="fill:#FFFFFF; fill-opacity:1.0; 
stroke:#FFFFFF; stroke-width:0; stroke-opacity:1; 
stroke-linecap:round; stroke-linejoin:round;">
<circle cx="15572.6" cy="9382.28" r="197" /> 
</g>
<g style="fill:#FFFFFF; fill-opacity:1.0; 
stroke:#FFFFFF; stroke-width:19.685; stroke-opacity:1; 
stroke-linecap:round; stroke-linejoin:round;">
</g>
<g style="fill:#FFFFFF; fill-opacity:1.0; 
stroke:#FFFFFF; stroke-width:0; stroke-opacity:1; 
stroke-linecap:round; stroke-linejoin:round;">
<circle cx="15572.6" cy="3476.77" r="197" /> 
</g>
<g style="fill:#FFFFFF; fill-opacity:1.0; 
stroke:#FFFFFF; stroke-width:19.685; stroke-opacity:1; 
stroke-linecap:round; stroke-linejoin:round;">
</g>
<g style="fill:#FFFFFF; fill-opacity:1.0; 
stroke:#FFFFFF; stroke-width:0; stroke-opacity:1; 
stroke-linecap:round; stroke-linejoin:round;">
<circle cx="17872.6" cy="9382.28" r="197" /> 
</g>
<g style="fill:#FFFFFF; fill-opacity:1.0; 
stroke:#FFFFFF; stroke-width:19.685; stroke-opacity:1; 
stroke-linecap:round; stroke-linejoin:round;">
</g>
<g style="fill:#FFFFFF; fill-opacity:1.0; 
stroke:#FFFFFF; stroke-width:0; stroke-opacity:1; 
stroke-linecap:round; stroke-linejoin:round;">
<circle cx="17872.6" cy="3476.77" r="197" /> 
</g>
<g style="fill:#FFFFFF; fill-opacity:1.0; 
stroke:#FFFFFF; stroke-width:19.685; stroke-opacity:1; 
stroke-linecap:round; stroke-linejoin:round;">
</g>
<g style="fill:#FFFFFF; fill-opacity:1.0; 
stroke:#FFFFFF; stroke-width:0; stroke-opacity:1; 
stroke-linecap:round; stroke-linejoin:round;">
<circle cx="20172.6" cy="9382.28" r="197" /> 
</g>
<g style="fill:#FFFFFF; fill-opacity:1.0; 
stroke:#FFFFFF; stroke-width:19.685; stroke-opacity:1; 
stroke-linecap:round; stroke-linejoin:round;">
</g>
<g style="fill:#FFFFFF; fill-opacity:1.0; 
stroke:#FFFFFF; stroke-width:0; stroke-opacity:1; 
stroke-linecap:round; stroke-linejoin:round;">
<circle cx="20172.6" cy="3476.77" r="197" /> 
</g>
<g style="fill:#FFFFFF; fill-opacity:1.0; 
stroke:#FFFFFF; stroke-width:19.685; stroke-opacity:1; 
stroke-linecap:round; stroke-linejoin:round;">
</g>
<g style="fill:#FFFFFF; fill-opacity:1.0; 
stroke:#FFFFFF; stroke-width:0; stroke-opacity:1; 
stroke-linecap:round; stroke-linejoin:round;">
<circle cx="22472.6" cy="9382.28" r="197" /> 
</g>
<g style="fill:#FFFFFF; fill-opacity:1.0; 
stroke:#FFFFFF; stroke-width:19.685; stroke-opacity:1; 
stroke-linecap:round; stroke-linejoin:round;">
</g>
<g style="fill:#FFFFFF; fill-opacity:1.0; 
stroke:#FFFFFF; stroke-width:0; stroke-opacity:1; 
stroke-linecap:round; stroke-linejoin:round;">
<circle cx="22472.6" cy="3476.77" r="197" /> 
</g>
<g style="fill:#FFFFFF; fill-opacity:1.0; 
stroke:#FFFFFF; stroke-width:19.685; stroke-opacity:1; 
stroke-linecap:round; stroke-linejoin:round;">
</g>
<g style="fill:#FFFFFF; fill-opacity:1.0; 
stroke:#FFFFFF; stroke-width:0; stroke-opacity:1; 
stroke-linecap:round; stroke-linejoin:round;">
<circle cx="24772.6" cy="9382.28" r="197" /> 
</g>
<g style="fill:#FFFFFF; fill-opacity:1.0; 
stroke:#FFFFFF; stroke-width:19.685; stroke-opacity:1; 
stroke-linecap:round; stroke-linejoin:round;">
</g>
<g style="fill:#FFFFFF; fill-opacity:1.0; 
stroke:#FFFFFF; stroke-width:0; stroke-opacity:1; 
stroke-linecap:round; stroke-linejoin:round;">
<circle cx="24772.6" cy="3476.77" r="197" /> 
</g>
<g style="fill:#FFFFFF; fill-opacity:1.0; 
stroke:#FFFFFF; stroke-width:19.685; stroke-opacity:1; 
stroke-linecap:round; stroke-linejoin:round;">
</g>
<g style="fill:#FFFFFF; fill-opacity:1.0; 
stroke:#FFFFFF; stroke-width:0; stroke-opacity:1; 
stroke-linecap:round; stroke-linejoin:round;">
<circle cx="11972.6" cy="3529.53" r="197" /> 
</g>
<g style="fill:#FFFFFF; fill-opacity:1.0; 
stroke:#FFFFFF; stroke-width:19.685; stroke-opacity:1; 
stroke-linecap:round; stroke-linejoin:round;">
</g>
<g style="fill:#FFFFFF; fill-opacity:1.0; 
stroke:#FFFFFF; stroke-width:0; stroke-opacity:1; 
stroke-linecap:round; stroke-linejoin:round;">
<circle cx="7972.65" cy="3529.53" r="197" /> 
</g>
<g style="fill:#FFFFFF; fill-opacity:1.0; 
stroke:#FFFFFF; stroke-width:19.685; stroke-opacity:1; 
stroke-linecap:round; stroke-linejoin:round;">
</g>
<g style="fill:#FFFFFF; fill-opacity:1.0; 
stroke:#FFFFFF; stroke-width:0; stroke-opacity:1; 
stroke-linecap:round; stroke-linejoin:round;">
<circle cx="11972.6" cy="8529.53" r="197" /> 
</g>
<g style="fill:#FFFFFF; fill-opacity:1.0; 
stroke:#FFFFFF; stroke-width:19.685; stroke-opacity:1; 
stroke-linecap:round; stroke-linejoin:round;">
</g>
<g style="fill:#FFFFFF; fill-opacity:1.0; 
stroke:#FFFFFF; stroke-width:0; stroke-opacity:1; 
stroke-linecap:round; stroke-linejoin:round;">
<circle cx="7972.65" cy="8529.53" r="197" /> 
</g>
<g style="fill:#FFFFFF; fill-opacity:1.0; 
stroke:#FFFFFF; stroke-width:19.685; stroke-opacity:1; 
stroke-linecap:round; stroke-linejoin:round;">
</g>
<g style="fill:#FFFFFF; fill-opacity:1.0; 
stroke:#FFFFFF; stroke-width:0; stroke-opacity:1; 
stroke-linecap:round; stroke-linejoin:round;">
<circle cx="11972.6" cy="4529.53" r="197" /> 
</g>
<g style="fill:#FFFFFF; fill-opacity:1.0; 
stroke:#FFFFFF; stroke-width:19.685; stroke-opacity:1; 
stroke-linecap:round; stroke-linejoin:round;">
</g>
<g style="fill:#FFFFFF; fill-opacity:1.0; 
stroke:#FFFFFF; stroke-width:0; stroke-opacity:1; 
stroke-linecap:round; stroke-linejoin:round;">
<circle cx="7972.65" cy="4529.53" r="197" /> 
</g>
<g style="fill:#FFFFFF; fill-opacity:1.0; 
stroke:#FFFFFF; stroke-width:19.685; stroke-opacity:1; 
stroke-linecap:round; stroke-linejoin:round;">
</g>
<g style="fill:#FFFFFF; fill-opacity:1.0; 
stroke:#FFFFFF; stroke-width:0; stroke-opacity:1; 
stroke-linecap:round; stroke-linejoin:round;">
<circle cx="11972.6" cy="5529.53" r="197" /> 
</g>
<g style="fill:#FFFFFF; fill-opacity:1.0; 
stroke:#FFFFFF; stroke-width:19.685; stroke-opacity:1; 
stroke-linecap:round; stroke-linejoin:round;">
</g>
<g style="fill:#FFFFFF; fill-opacity:1.0; 
stroke:#FFFFFF; stroke-width:0; stroke-opacity:1; 
stroke-linecap:round; stroke-linejoin:round;">
<circle cx="7972.65" cy="5529.53" r="197" /> 
</g>
<g style="fill:#FFFFFF; fill-opacity:1.0; 
stroke:#FFFFFF; stroke-width:19.685; stroke-opacity:1; 
stroke-linecap:round; stroke-linejoin:round;">
</g>
<g style="fill:#FFFFFF; fill-opacity:1.0; 
stroke:#FFFFFF; stroke-width:0; stroke-opacity:1; 
stroke-linecap:round; stroke-linejoin:round;">
<circle cx="11972.6" cy="6529.53" r="197" /> 
</g>
<g style="fill:#FFFFFF; fill-opacity:1.0; 
stroke:#FFFFFF; stroke-width:19.685; stroke-opacity:1; 
stroke-linecap:round; stroke-linejoin:round;">
</g>
<g style="fill:#FFFFFF; fill-opacity:1.0; 
stroke:#FFFFFF; stroke-width:0; stroke-opacity:1; 
stroke-linecap:round; stroke-linejoin:round;">
<circle cx="7972.65" cy="6529.53" r="197" /> 
</g>
<g style="fill:#FFFFFF; fill-opacity:1.0; 
stroke:#FFFFFF; stroke-width:19.685; stroke-opacity:1; 
stroke-linecap:round; stroke-linejoin:round;">
</g>
<g style="fill:#FFFFFF; fill-opacity:1.0; 
stroke:#FFFFFF; stroke-width:0; stroke-opacity:1; 
stroke-linecap:round; stroke-linejoin:round;">
<circle cx="11972.6" cy="7529.53" r="197" /> 
</g>
<g style="fill:#FFFFFF; fill-opacity:1.0; 
stroke:#FFFFFF; stroke-width:19.685; stroke-opacity:1; 
stroke-linecap:round; stroke-linejoin:round;">
</g>
<g style="fill:#FFFFFF; fill-opacity:1.0; 
stroke:#FFFFFF; stroke-width:0; stroke-opacity:1; 
stroke-linecap:round; stroke-linejoin:round;">
<circle cx="7972.65" cy="7529.53" r="197" /> 
</g>
<g style="fill:#FFFFFF; fill-opacity:1.0; 
stroke:#FFFFFF; stroke-width:19.685; stroke-opacity:1; 
stroke-linecap:round; stroke-linejoin:round;">
</g>
<g style="fill:#FFFFFF; fill-opacity:1.0; 
stroke:#FFFFFF; stroke-width:0; stroke-opacity:1; 
stroke-linecap:round; stroke-linejoin:round;">
<circle cx="2672.65" cy="5729.53" r="590.551" /> 
</g>
<g style="fill:#FFFFFF; fill-opacity:1.0; 
stroke:#FFFFFF; stroke-width:19.685; stroke-opacity:1; 
stroke-linecap:round; stroke-linejoin:round;">
</g>
<g style="fill:#FFFFFF; fill-opacity:1.0; 
stroke:#FFFFFF; stroke-width:0; stroke-opacity:1; 
stroke-linecap:round; stroke-linejoin:round;">
<circle cx="29372.6" cy="5729.53" r="590.551" /> 
</g>
<g style="fill:#FFFFFF; fill-opacity:1.0; 
stroke:#FFFFFF; stroke-width:19.685; stroke-opacity:1; 
stroke-linecap:round; stroke-linejoin:round;">
</g>
<g style="fill:#000000; fill-opacity:1.0; 
stroke:#000000; stroke-width:19.685; stroke-opacity:1; 
stroke-linecap:round; stroke-linejoin:round;">
</g>
<g style="fill:#FFFF00; fill-opacity:1.0; 
stroke:#FFFF00; stroke-width:19.685; stroke-opacity:1; 
stroke-linecap:round; stroke-linejoin:round;">
</g>
<g style="fill:#FFFF00; fill-opacity:1.0; 
stroke:#FFFF00; stroke-width:59.0551; stroke-opacity:1; 
stroke-linecap:round; stroke-linejoin:round;">
</g>
<g style="fill:#FFFF00; fill-opacity:0.0; 
stroke:#FFFF00; stroke-width:59.0551; stroke-opacity:1; 
stroke-linecap:round; stroke-linejoin:round;">
<path d="M26088 1406
L28056 1406
" />
<path d="M26091 1351
L27012 1351
" />
<path d="M27133 1351
L28053 1351
" />
<path d="M26098 1296
L26886 1296
" />
<path d="M27258 1296
L28047 1296
" />
<path d="M26107 1240
L26828 1240
" />
<path d="M27316 1240
L28037 1240
" />
<path d="M26120 1185
L26792 1185
" />
<path d="M27352 1185
L28024 1185
" />
<path d="M26136 1130
L26770 1130
" />
<path d="M27375 1130
L28008 1130
" />
<path d="M26156 1075
L26759 1075
" />
<path d="M27385 1075
L27988 1075
" />
<path d="M26180 1020
L26758 1020
" />
<path d="M27386 1020
L27964 1020
" />
<path d="M26208 965
L26767 965
" />
<path d="M27378 965
L27937 965
" />
<path d="M26240 910
L26786 910
" />
<path d="M27358 910
L27904 910
" />
<path d="M26277 855
L26819 855
" />
<path d="M27326 855
L27867 855
" />
<path d="M26321 800
L26871 800
" />
<path d="M27274 800
L27823 800
" />
<path d="M26371 744
L26968 744
" />
<path d="M27176 744
L27773 744
" />
<path d="M26430 689
L27714 689
" />
<path d="M26500 634
L27644 634
" />
<path d="M26587 579
L27558 579
" />
<path d="M26700 524
L27444 524
" />
<path d="M26886 469
L27258 469
" />
<circle cx="27072.6" cy="1042.13" r="314.961" /> 
<circle cx="27072.6" cy="1435.83" r="999.016" /> 
<path d="M14588 1406
L16556 1406
" />
<path d="M14591 1351
L15512 1351
" />
<path d="M15633 1351
L16553 1351
" />
<path d="M14598 1296
L15386 1296
" />
<path d="M15758 1296
L16547 1296
" />
<path d="M14607 1240
L15328 1240
" />
<path d="M15816 1240
L16537 1240
" />
<path d="M14620 1185
L15292 1185
" />
<path d="M15852 1185
L16524 1185
" />
<path d="M14636 1130
L15270 1130
" />
<path d="M15875 1130
L16508 1130
" />
<path d="M14656 1075
L15259 1075
" />
<path d="M15885 1075
L16488 1075
" />
<path d="M14680 1020
L15258 1020
" />
<path d="M15886 1020
L16464 1020
" />
<path d="M14708 965
L15267 965
" />
<path d="M15878 965
L16437 965
" />
<path d="M14740 910
L15286 910
" />
<path d="M15858 910
L16404 910
" />
<path d="M14777 855
L15319 855
" />
<path d="M15826 855
L16367 855
" />
<path d="M14821 800
L15371 800
" />
<path d="M15774 800
L16323 800
" />
<path d="M14871 744
L15468 744
" />
<path d="M15676 744
L16273 744
" />
<path d="M14930 689
L16214 689
" />
<path d="M15000 634
L16144 634
" />
<path d="M15087 579
L16058 579
" />
<path d="M15200 524
L15944 524
" />
<path d="M15386 469
L15758 469
" />
<circle cx="15572.6" cy="1042.13" r="314.961" /> 
<circle cx="15572.6" cy="1435.83" r="999.016" /> 
<path d="M16888 1406
L18856 1406
" />
<path d="M16891 1351
L17812 1351
" />
<path d="M17933 1351
L18853 1351
" />
<path d="M16898 1296
L17686 1296
" />
<path d="M18058 1296
L18847 1296
" />
<path d="M16907 1240
L17628 1240
" />
<path d="M18116 1240
L18837 1240
" />
<path d="M16920 1185
L17592 1185
" />
<path d="M18152 1185
L18824 1185
" />
<path d="M16936 1130
L17570 1130
" />
<path d="M18175 1130
L18808 1130
" />
<path d="M16956 1075
L17559 1075
" />
<path d="M18185 1075
L18788 1075
" />
<path d="M16980 1020
L17558 1020
" />
<path d="M18186 1020
L18764 1020
" />
<path d="M17008 965
L17567 965
" />
<path d="M18178 965
L18737 965
" />
<path d="M17040 910
L17586 910
" />
<path d="M18158 910
L18704 910
" />
<path d="M17077 855
L17619 855
" />
<path d="M18126 855
L18667 855
" />
<path d="M17121 800
L17671 800
" />
<path d="M18074 800
L18623 800
" />
<path d="M17171 744
L17768 744
" />
<path d="M17976 744
L18573 744
" />
<path d="M17230 689
L18514 689
" />
<path d="M17300 634
L18444 634
" />
<path d="M17387 579
L18358 579
" />
<path d="M17500 524
L18244 524
" />
<path d="M17686 469
L18058 469
" />
<circle cx="17872.6" cy="1042.13" r="314.961" /> 
<circle cx="17872.6" cy="1435.83" r="999.016" /> 
<path d="M19188 1406
L21156 1406
" />
<path d="M19191 1351
L20112 1351
" />
<path d="M20233 1351
L21153 1351
" />
<path d="M19198 1296
L19986 1296
" />
<path d="M20358 1296
L21147 1296
" />
<path d="M19207 1240
L19928 1240
" />
<path d="M20416 1240
L21137 1240
" />
<path d="M19220 1185
L19892 1185
" />
<path d="M20452 1185
L21124 1185
" />
<path d="M19236 1130
L19870 1130
" />
<path d="M20475 1130
L21108 1130
" />
<path d="M19256 1075
L19859 1075
" />
<path d="M20485 1075
L21088 1075
" />
<path d="M19280 1020
L19858 1020
" />
<path d="M20486 1020
L21064 1020
" />
<path d="M19308 965
L19867 965
" />
<path d="M20478 965
L21037 965
" />
<path d="M19340 910
L19886 910
" />
<path d="M20458 910
L21004 910
" />
<path d="M19377 855
L19919 855
" />
<path d="M20426 855
L20967 855
" />
<path d="M19421 800
L19971 800
" />
<path d="M20374 800
L20923 800
" />
<path d="M19471 744
L20068 744
" />
<path d="M20276 744
L20873 744
" />
<path d="M19530 689
L20814 689
" />
<path d="M19600 634
L20744 634
" />
<path d="M19687 579
L20658 579
" />
<path d="M19800 524
L20544 524
" />
<path d="M19986 469
L20358 469
" />
<circle cx="20172.6" cy="1042.13" r="314.961" /> 
<circle cx="20172.6" cy="1435.83" r="999.016" /> 
<path d="M21488 1406
L23456 1406
" />
<path d="M21491 1351
L22412 1351
" />
<path d="M22533 1351
L23453 1351
" />
<path d="M21498 1296
L22286 1296
" />
<path d="M22658 1296
L23447 1296
" />
<path d="M21507 1240
L22228 1240
" />
<path d="M22716 1240
L23437 1240
" />
<path d="M21520 1185
L22192 1185
" />
<path d="M22752 1185
L23424 1185
" />
<path d="M21536 1130
L22170 1130
" />
<path d="M22775 1130
L23408 1130
" />
<path d="M21556 1075
L22159 1075
" />
<path d="M22785 1075
L23388 1075
" />
<path d="M21580 1020
L22158 1020
" />
<path d="M22786 1020
L23364 1020
" />
<path d="M21608 965
L22167 965
" />
<path d="M22778 965
L23337 965
" />
<path d="M21640 910
L22186 910
" />
<path d="M22758 910
L23304 910
" />
<path d="M21677 855
L22219 855
" />
<path d="M22726 855
L23267 855
" />
<path d="M21721 800
L22271 800
" />
<path d="M22674 800
L23223 800
" />
<path d="M21771 744
L22368 744
" />
<path d="M22576 744
L23173 744
" />
<path d="M21830 689
L23114 689
" />
<path d="M21900 634
L23044 634
" />
<path d="M21987 579
L22958 579
" />
<path d="M22100 524
L22844 524
" />
<path d="M22286 469
L22658 469
" />
<circle cx="22472.6" cy="1042.13" r="314.961" /> 
<circle cx="22472.6" cy="1435.83" r="999.016" /> 
<path d="M23788 1406
L25756 1406
" />
<path d="M23791 1351
L24712 1351
" />
<path d="M24833 1351
L25753 1351
" />
<path d="M23798 1296
L24586 1296
" />
<path d="M24958 1296
L25747 1296
" />
<path d="M23807 1240
L24528 1240
" />
<path d="M25016 1240
L25737 1240
" />
<path d="M23820 1185
L24492 1185
" />
<path d="M25052 1185
L25724 1185
" />
<path d="M23836 1130
L24470 1130
" />
<path d="M25075 1130
L25708 1130
" />
<path d="M23856 1075
L24459 1075
" />
<path d="M25085 1075
L25688 1075
" />
<path d="M23880 1020
L24458 1020
" />
<path d="M25086 1020
L25664 1020
" />
<path d="M23908 965
L24467 965
" />
<path d="M25078 965
L25637 965
" />
<path d="M23940 910
L24486 910
" />
<path d="M25058 910
L25604 910
" />
<path d="M23977 855
L24519 855
" />
<path d="M25026 855
L25567 855
" />
<path d="M24021 800
L24571 800
" />
<path d="M24974 800
L25523 800
" />
<path d="M24071 744
L24668 744
" />
<path d="M24876 744
L25473 744
" />
<path d="M24130 689
L25414 689
" />
<path d="M24200 634
L25344 634
" />
<path d="M24287 579
L25258 579
" />
<path d="M24400 524
L25144 524
" />
<path d="M24586 469
L24958 469
" />
<circle cx="24772.6" cy="1042.13" r="314.961" /> 
<circle cx="24772.6" cy="1435.83" r="999.016" /> 
<path d="M13972 3029
L13972 10029
" />
<path d="M13972 10029
L12972 10029
" />
<path d="M12972 10029
L12972 3029
" />
<path d="M14082 1919
L14082 2529
" />
<path d="M13972 3029
L12972 3029
" />
<path d="M12862 2529
L12862 1919
" />
<path d="M12862 1919
L14082 1919
" />
<path d="M7072 4029
L7072 9029
" />
<path d="M7072 9029
L6072 9029
" />
<path d="M6072 9029
L6072 4029
" />
<path d="M7182 2919
L7182 3529
" />
<path d="M7072 4029
L6072 4029
" />
<path d="M5962 3529
L5962 2919
" />
<path d="M5962 2919
L7182 2919
" />
<path d="M4572 8029
L4572 3029
" />
<path d="M4572 3029
L5572 3029
" />
<path d="M5572 3029
L5572 8029
" />
<path d="M4462 9139
L4462 8529
" />
<path d="M4572 8029
L5572 8029
" />
<path d="M5682 8529
L5682 9139
" />
<path d="M5682 9139
L4462 9139
" />
<path d="M26572 8429
L27572 8429
" />
<path d="M27572 8429
L27572 4429
" />
<path d="M27572 4429
L26572 4429
" />
<path d="M26572 4429
L26572 8429
" />
<path d="M27072 3929
L27072 4429
" />
<path d="M27072 8929
L27072 8429
" />
<path d="M15072 8429
L16072 8429
" />
<path d="M16072 8429
L16072 4429
" />
<path d="M16072 4429
L15072 4429
" />
<path d="M15072 4429
L15072 8429
" />
<path d="M15572 3929
L15572 4429
" />
<path d="M15572 8929
L15572 8429
" />
<path d="M17372 8429
L18372 8429
" />
<path d="M18372 8429
L18372 4429
" />
<path d="M18372 4429
L17372 4429
" />
<path d="M17372 4429
L17372 8429
" />
<path d="M17872 3929
L17872 4429
" />
<path d="M17872 8929
L17872 8429
" />
<path d="M19672 8429
L20672 8429
" />
<path d="M20672 8429
L20672 4429
" />
<path d="M20672 4429
L19672 4429
" />
<path d="M19672 4429
L19672 8429
" />
<path d="M20172 3929
L20172 4429
" />
<path d="M20172 8929
L20172 8429
" />
<path d="M21972 8429
L22972 8429
" />
<path d="M22972 8429
L22972 4429
" />
<path d="M22972 4429
L21972 4429
" />
<path d="M21972 4429
L21972 8429
" />
<path d="M22472 3929
L22472 4429
" />
<path d="M22472 8929
L22472 8429
" />
<path d="M24272 8429
L25272 8429
" />
<path d="M25272 8429
L25272 4429
" />
<path d="M25272 4429
L24272 4429
" />
<path d="M24272 4429
L24272 8429
" />
<path d="M24772 3929
L24772 4429
" />
<path d="M24772 8929
L24772 8429
" />
<path d="M10972 4029
L8972 4029
" />
<path d="M8972 4029
L8972 3029
" />
<path d="M8972 3029
L10972 3029
" />
<path d="M10972 3029
L10972 4029
" />
<path d="M10972 3529
L11472 3529
" />
<path d="M8972 3529
L8472 3529
" />
<path d="M10972 9029
L8972 9029
" />
<path d="M8972 9029
L8972 8029
" />
<path d="M8972 8029
L10972 8029
" />
<path d="M10972 8029
L10972 9029
" />
<path d="M10972 8529
L11472 8529
" />
<path d="M8972 8529
L8472 8529
" />
<path d="M10972 5029
L8972 5029
" />
<path d="M8972 5029
L8972 4029
" />
<path d="M8972 4029
L10972 4029
" />
<path d="M10972 4029
L10972 5029
" />
<path d="M10972 4529
L11472 4529
" />
<path d="M8972 4529
L8472 4529
" />
<path d="M10972 6029
L8972 6029
" />
<path d="M8972 6029
L8972 5029
" />
<path d="M8972 5029
L10972 5029
" />
<path d="M10972 5029
L10972 6029
" />
<path d="M10972 5529
L11472 5529
" />
<path d="M8972 5529
L8472 5529
" />
<path d="M10972 7029
L8972 7029
" />
<path d="M8972 7029
L8972 6029
" />
<path d="M8972 6029
L10972 6029
" />
<path d="M10972 6029
L10972 7029
" />
<path d="M10972 6529
L11472 6529
" />
<path d="M8972 6529
L8472 6529
" />
<path d="M10972 8029
L8972 8029
" />
<path d="M8972 8029
L8972 7029
" />
<path d="M8972 7029
L10972 7029
" />
<path d="M10972 7029
L10972 8029
" />
<path d="M10972 7529
L11472 7529
" />
<path d="M8972 7529
L8472 7529
" />
<path d="M27938 2807
L27713 2807
" />
<path d="M27825 2807
L27825 2413
L27788 2470
L27750 2507
L27713 2526
" />
<path d="M28275 2545
L28275 2807
" />
<path d="M28107 2545
L28107 2751
L28125 2788
L28163 2807
L28219 2807
L28257 2788
L28275 2770
" />
<path d="M28594 2601
L28463 2601
" />
<path d="M28463 2807
L28463 2413
L28650 2413
" />
<path d="M16438 2907
L16213 2907
" />
<path d="M16325 2907
L16325 2513
L16288 2570
L16250 2607
L16213 2626
" />
<path d="M16775 2645
L16775 2907
" />
<path d="M16607 2645
L16607 2851
L16625 2888
L16663 2907
L16719 2907
L16757 2888
L16775 2870
" />
<path d="M17094 2701
L16963 2701
" />
<path d="M16963 2907
L16963 2513
L17150 2513
" />
<path d="M18738 2907
L18513 2907
" />
<path d="M18625 2907
L18625 2513
L18588 2570
L18550 2607
L18513 2626
" />
<path d="M19075 2645
L19075 2907
" />
<path d="M18907 2645
L18907 2851
L18925 2888
L18963 2907
L19019 2907
L19057 2888
L19075 2870
" />
<path d="M19394 2701
L19263 2701
" />
<path d="M19263 2907
L19263 2513
L19450 2513
" />
<path d="M21038 2907
L20813 2907
" />
<path d="M20925 2907
L20925 2513
L20888 2570
L20850 2607
L20813 2626
" />
<path d="M21375 2645
L21375 2907
" />
<path d="M21207 2645
L21207 2851
L21225 2888
L21263 2907
L21319 2907
L21357 2888
L21375 2870
" />
<path d="M21694 2701
L21563 2701
" />
<path d="M21563 2907
L21563 2513
L21750 2513
" />
<path d="M23338 2907
L23113 2907
" />
<path d="M23225 2907
L23225 2513
L23188 2570
L23150 2607
L23113 2626
" />
<path d="M23675 2645
L23675 2907
" />
<path d="M23507 2645
L23507 2851
L23525 2888
L23563 2907
L23619 2907
L23657 2888
L23675 2870
" />
<path d="M23994 2701
L23863 2701
" />
<path d="M23863 2907
L23863 2513
L24050 2513
" />
<path d="M25638 2907
L25413 2907
" />
<path d="M25525 2907
L25525 2513
L25488 2570
L25450 2607
L25413 2626
" />
<path d="M25975 2645
L25975 2907
" />
<path d="M25807 2645
L25807 2851
L25825 2888
L25863 2907
L25919 2907
L25957 2888
L25975 2870
" />
<path d="M26294 2701
L26163 2701
" />
<path d="M26163 2907
L26163 2513
L26350 2513
" />
</g>
<g style="fill:#C2C200; fill-opacity:0.0; 
stroke:#C2C200; stroke-width:59.0551; stroke-opacity:1; 
stroke-linecap:round; stroke-linejoin:round;">
<path d="M9882 1232
L9844 1213
L9788 1213
L9732 1232
L9694 1270
L9676 1307
L9657 1382
L9657 1438
L9676 1513
L9694 1551
L9732 1588
L9788 1607
L9826 1607
L9882 1588
L9900 1570
L9900 1438
L9826 1438
" />
<path d="M10069 1607
L10069 1213
L10294 1607
L10294 1213
" />
<path d="M10482 1607
L10482 1213
L10575 1213
L10632 1232
L10669 1270
L10688 1307
L10707 1382
L10707 1438
L10688 1513
L10669 1551
L10632 1588
L10575 1607
L10482 1607
" />
<path d="M11175 1607
L11175 1213
L11325 1213
L11363 1232
L11382 1251
L11400 1288
L11400 1345
L11382 1382
L11363 1401
L11325 1420
L11175 1420
" />
<path d="M11569 1607
L11569 1345
" />
<path d="M11569 1213
L11550 1232
L11569 1251
L11588 1232
L11569 1213
L11569 1251
" />
<path d="M11757 1345
L11757 1607
" />
<path d="M11757 1382
L11775 1363
L11813 1345
L11869 1345
L11906 1363
L11925 1401
L11925 1607
" />
<path d="M12094 1588
L12131 1607
L12206 1607
L12244 1588
L12263 1551
L12263 1532
L12244 1495
L12206 1476
L12150 1476
L12113 1457
L12094 1420
L12094 1401
L12113 1363
L12150 1345
L12206 1345
L12244 1363
" />
<path d="M12675 1213
L12806 1607
L12938 1213
" />
<path d="M13294 1570
L13275 1588
L13219 1607
L13181 1607
L13125 1588
L13088 1551
L13069 1513
L13050 1438
L13050 1382
L13069 1307
L13088 1270
L13125 1232
L13181 1213
L13219 1213
L13275 1232
L13294 1251
" />
<path d="M13688 1570
L13669 1588
L13613 1607
L13575 1607
L13519 1588
L13481 1551
L13463 1513
L13444 1438
L13444 1382
L13463 1307
L13481 1270
L13519 1232
L13575 1213
L13613 1213
L13669 1232
L13688 1251
" />
<path d="M6235 9788
L6291 9807
L6385 9807
L6422 9788
L6441 9770
L6460 9732
L6460 9695
L6441 9657
L6422 9638
L6385 9620
L6310 9601
L6272 9582
L6253 9563
L6235 9526
L6235 9488
L6253 9451
L6272 9432
L6310 9413
L6403 9413
L6460 9432
" />
<path d="M6591 9413
L6685 9807
L6760 9526
L6835 9807
L6928 9413
" />
<path d="M4772 9432
L4735 9413
L4678 9413
L4622 9432
L4585 9470
L4566 9507
L4547 9582
L4547 9638
L4566 9713
L4585 9751
L4622 9788
L4678 9807
L4716 9807
L4772 9788
L4791 9770
L4791 9638
L4716 9638
" />
<path d="M4960 9807
L4960 9413
L5185 9807
L5185 9413
" />
<path d="M5372 9807
L5372 9413
L5466 9413
L5522 9432
L5560 9470
L5578 9507
L5597 9582
L5597 9638
L5578 9713
L5560 9751
L5522 9788
L5466 9807
L5372 9807
" />
</g>
<g style="fill:#FFFF00; fill-opacity:0.0; 
stroke:#FFFF00; stroke-width:59.0551; stroke-opacity:1; 
stroke-linecap:round; stroke-linejoin:round;">
<path d="M26988 6701
L27250 6701
" />
<path d="M26838 6795
L27119 6888
L27119 6645
" />
<path d="M26857 6532
L26857 6270
L27250 6438
" />
<path d="M27250 6120
L26857 6120
" />
<path d="M27100 6082
L27250 5970
" />
<path d="M26988 5970
L27138 6120
" />
<path d="M15488 6701
L15750 6701
" />
<path d="M15338 6795
L15619 6888
L15619 6645
" />
<path d="M15357 6532
L15357 6270
L15750 6438
" />
<path d="M15750 6120
L15357 6120
" />
<path d="M15600 6082
L15750 5970
" />
<path d="M15488 5970
L15638 6120
" />
<path d="M17788 6701
L18050 6701
" />
<path d="M17638 6795
L17919 6888
L17919 6645
" />
<path d="M17657 6532
L17657 6270
L18050 6438
" />
<path d="M18050 6120
L17657 6120
" />
<path d="M17900 6082
L18050 5970
" />
<path d="M17788 5970
L17938 6120
" />
<path d="M20088 6701
L20350 6701
" />
<path d="M19938 6795
L20219 6888
L20219 6645
" />
<path d="M19957 6532
L19957 6270
L20350 6438
" />
<path d="M20350 6120
L19957 6120
" />
<path d="M20200 6082
L20350 5970
" />
<path d="M20088 5970
L20238 6120
" />
<path d="M22388 6701
L22650 6701
" />
<path d="M22238 6795
L22519 6888
L22519 6645
" />
<path d="M22257 6532
L22257 6270
L22650 6438
" />
<path d="M22650 6120
L22257 6120
" />
<path d="M22500 6082
L22650 5970
" />
<path d="M22388 5970
L22538 6120
" />
<path d="M24688 6701
L24950 6701
" />
<path d="M24538 6795
L24819 6888
L24819 6645
" />
<path d="M24557 6532
L24557 6270
L24950 6438
" />
<path d="M24950 6120
L24557 6120
" />
<path d="M24800 6082
L24950 5970
" />
<path d="M24688 5970
L24838 6120
" />
<path d="M9888 3707
L9663 3707
" />
<path d="M9775 3707
L9775 3313
L9738 3370
L9700 3407
L9663 3426
" />
<path d="M10057 3707
L10057 3313
" />
<path d="M10281 3707
L10113 3482
" />
<path d="M10281 3313
L10057 3538
" />
<path d="M9888 8707
L9663 8707
" />
<path d="M9775 8707
L9775 8313
L9738 8370
L9700 8407
L9663 8426
" />
<path d="M10057 8707
L10057 8313
" />
<path d="M10281 8707
L10113 8482
" />
<path d="M10281 8313
L10057 8538
" />
<path d="M9888 4607
L9663 4607
" />
<path d="M9775 4607
L9775 4213
L9738 4270
L9700 4307
L9663 4326
" />
<path d="M10057 4607
L10057 4213
" />
<path d="M10281 4607
L10113 4382
" />
<path d="M10281 4213
L10057 4438
" />
<path d="M9888 5607
L9663 5607
" />
<path d="M9775 5607
L9775 5213
L9738 5270
L9700 5307
L9663 5326
" />
<path d="M10057 5607
L10057 5213
" />
<path d="M10281 5607
L10113 5382
" />
<path d="M10281 5213
L10057 5438
" />
<path d="M9888 6707
L9663 6707
" />
<path d="M9775 6707
L9775 6313
L9738 6370
L9700 6407
L9663 6426
" />
<path d="M10057 6707
L10057 6313
" />
<path d="M10281 6707
L10113 6482
" />
<path d="M10281 6313
L10057 6538
" />
<path d="M9888 7707
L9663 7707
" />
<path d="M9775 7707
L9775 7313
L9738 7370
L9700 7407
L9663 7426
" />
<path d="M10057 7707
L10057 7313
" />
<path d="M10281 7707
L10113 7482
" />
<path d="M10281 7313
L10057 7538
" />
</g>
<g style="fill:#000000; fill-opacity:0.0; 
stroke:#000000; stroke-width:59.0551; stroke-opacity:1; 
stroke-linecap:round; stroke-linejoin:round;">
</g>
<g style="fill:#C2C200; fill-opacity:0.0; 
stroke:#C2C200; stroke-width:59.0551; stroke-opacity:1; 
stroke-linecap:round; stroke-linejoin:round;">
<path d="M972 10529
L972 5329
" />
<path d="M30972 10529
L972 10529
" />
<path d="M30972 29
L30972 10529
" />
<path d="M972 29
L30972 29
" />
<path d="M972 5429
L972 29
" />
</g> 
</svg>
