G04 MADE WITH FRITZING*
G04 WWW.FRITZING.ORG*
G04 DOUBLE SIDED*
G04 HOLES PLATED*
G04 CONTOUR ON CENTER OF CONTOUR VECTOR*
%ASAXBY*%
%FSLAX23Y23*%
%MOIN*%
%OFA0B0*%
%SFA1.0B1.0*%
%ADD10C,0.075000*%
%ADD11C,0.070000*%
%ADD12C,0.090551*%
%ADD13C,0.089764*%
%ADD14R,0.090551X0.090551*%
%ADD15C,0.024000*%
%LNCOPPER0*%
G90*
G70*
G54D10*
X353Y1948D03*
X687Y1111D03*
X1987Y1099D03*
X283Y1748D03*
X683Y1748D03*
X783Y1748D03*
X1183Y1748D03*
X1283Y1748D03*
X1683Y1748D03*
X1783Y1748D03*
X2183Y1748D03*
X2283Y1748D03*
X2683Y1748D03*
X1783Y348D03*
X2183Y348D03*
X1783Y448D03*
X2183Y448D03*
X1783Y548D03*
X2183Y548D03*
X1783Y648D03*
X2183Y648D03*
G54D11*
X2183Y748D03*
X2183Y848D03*
G54D12*
X2183Y998D03*
X2183Y1298D03*
X2283Y998D03*
X2283Y1298D03*
X2383Y998D03*
X2383Y1298D03*
X2483Y998D03*
X2483Y1298D03*
X2583Y998D03*
X2583Y1298D03*
X2683Y998D03*
X2683Y1298D03*
X2783Y998D03*
X2783Y1298D03*
X2883Y998D03*
X2883Y1298D03*
X1233Y998D03*
X1233Y1298D03*
X1333Y998D03*
X1333Y1298D03*
X1433Y998D03*
X1433Y1298D03*
X1533Y998D03*
X1533Y1298D03*
X1633Y998D03*
X1633Y1298D03*
X1733Y998D03*
X1733Y1298D03*
X1833Y998D03*
X1833Y1298D03*
X1933Y998D03*
X1933Y1298D03*
X283Y998D03*
X283Y1298D03*
X383Y998D03*
X383Y1298D03*
X483Y998D03*
X483Y1298D03*
X583Y998D03*
X583Y1298D03*
X683Y998D03*
X683Y1298D03*
X783Y998D03*
X783Y1298D03*
X883Y998D03*
X883Y1298D03*
X983Y998D03*
X983Y1298D03*
X2783Y1548D03*
X2683Y848D03*
X1633Y848D03*
X1733Y848D03*
X683Y848D03*
X783Y848D03*
X283Y1448D03*
X983Y148D03*
X1933Y148D03*
X1933Y848D03*
X983Y848D03*
X483Y848D03*
X1233Y1848D03*
X283Y1848D03*
X2183Y1848D03*
X1233Y1548D03*
X283Y1548D03*
X2183Y1548D03*
X1933Y1948D03*
X983Y1948D03*
X1933Y1548D03*
X983Y1548D03*
X383Y1548D03*
X483Y1548D03*
X2283Y1548D03*
X2383Y1548D03*
X1333Y1548D03*
X1433Y1548D03*
X1233Y1448D03*
X2883Y1448D03*
X2183Y1448D03*
X1933Y1448D03*
X983Y1448D03*
X2883Y1548D03*
X2883Y848D03*
X2383Y1848D03*
G54D13*
X283Y598D03*
X283Y498D03*
G54D14*
X2183Y998D03*
X1233Y998D03*
X283Y998D03*
G54D15*
X1008Y148D02*
X1908Y148D01*
D02*
X2183Y146D02*
X2866Y830D01*
D02*
X1958Y148D02*
X2183Y146D01*
D02*
X983Y873D02*
X983Y973D01*
D02*
X1933Y873D02*
X1933Y973D01*
D02*
X2183Y874D02*
X2183Y973D01*
D02*
X2183Y677D02*
X2183Y722D01*
D02*
X2183Y577D02*
X2183Y619D01*
D02*
X2183Y477D02*
X2183Y519D01*
D02*
X2183Y419D02*
X2183Y377D01*
D02*
X1683Y647D02*
X1532Y796D01*
D02*
X1532Y796D02*
X1533Y973D01*
D02*
X1755Y648D02*
X1683Y647D01*
D02*
X1232Y897D02*
X1233Y973D01*
D02*
X1582Y549D02*
X1232Y897D01*
D02*
X1755Y548D02*
X1582Y549D01*
D02*
X932Y449D02*
X582Y799D01*
D02*
X582Y799D02*
X583Y973D01*
D02*
X1755Y448D02*
X932Y449D01*
D02*
X782Y347D02*
X283Y849D01*
D02*
X283Y849D02*
X283Y973D01*
D02*
X1755Y348D02*
X782Y347D01*
D02*
X2458Y998D02*
X2408Y998D01*
D02*
X2508Y998D02*
X2558Y998D01*
D02*
X2684Y1099D02*
X2766Y1016D01*
D02*
X2601Y1016D02*
X2684Y1099D01*
D02*
X483Y973D02*
X483Y873D01*
D02*
X2783Y1323D02*
X2783Y1523D01*
D02*
X2255Y1748D02*
X2212Y1748D01*
D02*
X1755Y1748D02*
X1712Y1748D01*
D02*
X1255Y1748D02*
X1212Y1748D01*
D02*
X755Y1748D02*
X712Y1748D01*
D02*
X2784Y1573D02*
X2785Y1648D01*
D02*
X2485Y1198D02*
X2566Y1280D01*
D02*
X1633Y1198D02*
X2485Y1198D01*
D02*
X683Y1198D02*
X1432Y1198D01*
D02*
X2483Y1598D02*
X2483Y1323D01*
D02*
X2434Y1648D02*
X2483Y1598D01*
D02*
X2307Y1732D02*
X2434Y1648D01*
D02*
X1785Y1449D02*
X1783Y1719D01*
D02*
X1834Y1397D02*
X1785Y1449D01*
D02*
X1833Y1323D02*
X1834Y1397D01*
D02*
X883Y1397D02*
X783Y1499D01*
D02*
X783Y1499D02*
X783Y1719D01*
D02*
X883Y1323D02*
X883Y1397D01*
D02*
X584Y1598D02*
X532Y1648D01*
D02*
X532Y1648D02*
X184Y1650D01*
D02*
X184Y1650D02*
X263Y1728D01*
D02*
X583Y1323D02*
X584Y1598D01*
D02*
X2883Y873D02*
X2883Y973D01*
D02*
X2282Y347D02*
X2184Y249D01*
D02*
X2184Y249D02*
X784Y249D01*
D02*
X2283Y973D02*
X2282Y347D01*
D02*
X2858Y998D02*
X2808Y998D01*
D02*
X1908Y998D02*
X1858Y998D01*
D02*
X958Y998D02*
X908Y998D01*
D02*
X1008Y1948D02*
X1908Y1948D01*
D02*
X2883Y1696D02*
X2883Y1573D01*
D02*
X2632Y1948D02*
X2883Y1696D01*
D02*
X2883Y1523D02*
X2883Y1473D01*
D02*
X1958Y1948D02*
X2632Y1948D01*
D02*
X983Y1473D02*
X983Y1523D01*
D02*
X2158Y1848D02*
X1258Y1848D01*
D02*
X1208Y1848D02*
X308Y1848D01*
D02*
X283Y1523D02*
X283Y1473D01*
D02*
X1233Y1523D02*
X1233Y1473D01*
D02*
X2183Y1523D02*
X2183Y1473D01*
D02*
X983Y1323D02*
X983Y1423D01*
D02*
X1233Y1323D02*
X1233Y1423D01*
D02*
X1933Y1323D02*
X1933Y1423D01*
D02*
X2183Y1323D02*
X2183Y1423D01*
D02*
X2883Y1323D02*
X2883Y1423D01*
D02*
X184Y598D02*
X258Y598D01*
D02*
X184Y1650D02*
X184Y598D01*
D02*
X683Y1198D02*
X683Y1273D01*
D02*
X633Y1198D02*
X683Y1198D01*
D02*
X483Y1047D02*
X633Y1198D01*
D02*
X483Y1023D02*
X483Y1047D01*
D02*
X458Y998D02*
X408Y998D01*
D02*
X708Y1298D02*
X758Y1298D01*
D02*
X784Y249D02*
X531Y497D01*
D02*
X531Y497D02*
X308Y498D01*
D02*
X1633Y1198D02*
X1432Y1198D01*
D02*
X1432Y1198D02*
X1433Y1023D01*
D02*
X1633Y1273D02*
X1633Y1198D01*
D02*
X1408Y998D02*
X1358Y998D01*
D02*
X1658Y1298D02*
X1708Y1298D01*
D02*
X2383Y1148D02*
X2282Y1047D01*
D02*
X2684Y1148D02*
X2383Y1148D01*
D02*
X2282Y1047D02*
X2283Y1023D01*
D02*
X2783Y1247D02*
X2684Y1148D01*
D02*
X2783Y1273D02*
X2783Y1247D01*
D02*
X2608Y1298D02*
X2658Y1298D01*
D02*
X1333Y1323D02*
X1333Y1523D01*
D02*
X1433Y1323D02*
X1433Y1523D01*
D02*
X2283Y1323D02*
X2283Y1523D01*
D02*
X2383Y1323D02*
X2383Y1523D01*
D02*
X283Y1323D02*
X283Y1423D01*
D02*
X383Y1323D02*
X383Y1523D01*
D02*
X483Y1323D02*
X483Y1523D01*
D02*
X2683Y873D02*
X2683Y973D01*
D02*
X1733Y873D02*
X1733Y973D01*
D02*
X1633Y873D02*
X1633Y973D01*
D02*
X783Y873D02*
X783Y973D01*
D02*
X683Y873D02*
X683Y973D01*
D02*
X1383Y1649D02*
X1303Y1728D01*
D02*
X1483Y1649D02*
X1383Y1649D01*
D02*
X1533Y1599D02*
X1483Y1649D01*
D02*
X1533Y1323D02*
X1533Y1599D01*
D02*
X2785Y1648D02*
X2704Y1728D01*
D02*
X2892Y1557D02*
X2901Y1565D01*
D02*
X1933Y1473D02*
X1933Y1523D01*
D02*
X2208Y1848D02*
X2358Y1848D01*
G36*
X176Y2007D02*
X176Y1987D01*
X178Y1987D01*
X178Y1983D01*
X180Y1983D01*
X180Y1979D01*
X182Y1979D01*
X182Y1973D01*
X184Y1973D01*
X184Y1967D01*
X186Y1967D01*
X186Y1959D01*
X188Y1959D01*
X188Y1937D01*
X186Y1937D01*
X186Y1927D01*
X184Y1927D01*
X184Y1921D01*
X182Y1921D01*
X182Y1917D01*
X180Y1917D01*
X180Y1913D01*
X178Y1913D01*
X178Y1911D01*
X292Y1911D01*
X292Y1909D01*
X300Y1909D01*
X300Y1907D01*
X304Y1907D01*
X304Y1905D01*
X308Y1905D01*
X308Y1903D01*
X312Y1903D01*
X312Y1901D01*
X316Y1901D01*
X316Y1899D01*
X318Y1899D01*
X318Y1897D01*
X320Y1897D01*
X320Y1895D01*
X322Y1895D01*
X322Y1893D01*
X324Y1893D01*
X324Y1891D01*
X326Y1891D01*
X326Y1889D01*
X328Y1889D01*
X328Y1887D01*
X330Y1887D01*
X330Y1885D01*
X332Y1885D01*
X332Y1883D01*
X334Y1883D01*
X334Y1881D01*
X336Y1881D01*
X336Y1877D01*
X950Y1877D01*
X950Y1897D01*
X948Y1897D01*
X948Y1899D01*
X946Y1899D01*
X946Y1901D01*
X944Y1901D01*
X944Y1903D01*
X942Y1903D01*
X942Y1905D01*
X940Y1905D01*
X940Y1907D01*
X938Y1907D01*
X938Y1909D01*
X936Y1909D01*
X936Y1911D01*
X934Y1911D01*
X934Y1913D01*
X932Y1913D01*
X932Y1915D01*
X930Y1915D01*
X930Y1919D01*
X928Y1919D01*
X928Y1923D01*
X926Y1923D01*
X926Y1927D01*
X924Y1927D01*
X924Y1931D01*
X922Y1931D01*
X922Y1939D01*
X920Y1939D01*
X920Y1957D01*
X922Y1957D01*
X922Y1965D01*
X924Y1965D01*
X924Y1969D01*
X926Y1969D01*
X926Y1973D01*
X928Y1973D01*
X928Y1977D01*
X930Y1977D01*
X930Y1979D01*
X932Y1979D01*
X932Y1983D01*
X934Y1983D01*
X934Y1985D01*
X936Y1985D01*
X936Y1987D01*
X938Y1987D01*
X938Y2007D01*
X176Y2007D01*
G37*
D02*
G36*
X1978Y2007D02*
X1978Y1987D01*
X1980Y1987D01*
X1980Y1985D01*
X1982Y1985D01*
X1982Y1983D01*
X1984Y1983D01*
X1984Y1981D01*
X1986Y1981D01*
X1986Y1977D01*
X2640Y1977D01*
X2640Y1975D01*
X2646Y1975D01*
X2646Y1973D01*
X2650Y1973D01*
X2650Y1971D01*
X2652Y1971D01*
X2652Y1969D01*
X2654Y1969D01*
X2654Y1967D01*
X2656Y1967D01*
X2656Y1965D01*
X2658Y1965D01*
X2658Y1963D01*
X2660Y1963D01*
X2660Y1961D01*
X2662Y1961D01*
X2662Y1959D01*
X2664Y1959D01*
X2664Y1957D01*
X2666Y1957D01*
X2666Y1955D01*
X2668Y1955D01*
X2668Y1953D01*
X2670Y1953D01*
X2670Y1951D01*
X2672Y1951D01*
X2672Y1949D01*
X2674Y1949D01*
X2674Y1947D01*
X2676Y1947D01*
X2676Y1945D01*
X2678Y1945D01*
X2678Y1943D01*
X2680Y1943D01*
X2680Y1941D01*
X2682Y1941D01*
X2682Y1939D01*
X2684Y1939D01*
X2684Y1937D01*
X2686Y1937D01*
X2686Y1935D01*
X2688Y1935D01*
X2688Y1933D01*
X2690Y1933D01*
X2690Y1931D01*
X2692Y1931D01*
X2692Y1929D01*
X2694Y1929D01*
X2694Y1927D01*
X2696Y1927D01*
X2696Y1925D01*
X2698Y1925D01*
X2698Y1923D01*
X2700Y1923D01*
X2700Y1921D01*
X2702Y1921D01*
X2702Y1919D01*
X2704Y1919D01*
X2704Y1917D01*
X2706Y1917D01*
X2706Y1915D01*
X2708Y1915D01*
X2708Y1913D01*
X2710Y1913D01*
X2710Y1911D01*
X2712Y1911D01*
X2712Y1909D01*
X2714Y1909D01*
X2714Y1907D01*
X2716Y1907D01*
X2716Y1905D01*
X2718Y1905D01*
X2718Y1903D01*
X2720Y1903D01*
X2720Y1901D01*
X2722Y1901D01*
X2722Y1899D01*
X2724Y1899D01*
X2724Y1897D01*
X2726Y1897D01*
X2726Y1895D01*
X2728Y1895D01*
X2728Y1893D01*
X2730Y1893D01*
X2730Y1891D01*
X2732Y1891D01*
X2732Y1889D01*
X2734Y1889D01*
X2734Y1887D01*
X2736Y1887D01*
X2736Y1885D01*
X2738Y1885D01*
X2738Y1883D01*
X2740Y1883D01*
X2740Y1881D01*
X2742Y1881D01*
X2742Y1879D01*
X2744Y1879D01*
X2744Y1877D01*
X2746Y1877D01*
X2746Y1875D01*
X2748Y1875D01*
X2748Y1873D01*
X2750Y1873D01*
X2750Y1871D01*
X2752Y1871D01*
X2752Y1869D01*
X2754Y1869D01*
X2754Y1867D01*
X2932Y1867D01*
X2932Y1869D01*
X2924Y1869D01*
X2924Y1871D01*
X2918Y1871D01*
X2918Y1873D01*
X2914Y1873D01*
X2914Y1875D01*
X2910Y1875D01*
X2910Y1877D01*
X2906Y1877D01*
X2906Y1879D01*
X2902Y1879D01*
X2902Y1881D01*
X2900Y1881D01*
X2900Y1883D01*
X2898Y1883D01*
X2898Y1885D01*
X2894Y1885D01*
X2894Y1887D01*
X2892Y1887D01*
X2892Y1889D01*
X2890Y1889D01*
X2890Y1891D01*
X2888Y1891D01*
X2888Y1893D01*
X2886Y1893D01*
X2886Y1895D01*
X2884Y1895D01*
X2884Y1897D01*
X2882Y1897D01*
X2882Y1901D01*
X2880Y1901D01*
X2880Y1903D01*
X2878Y1903D01*
X2878Y1907D01*
X2876Y1907D01*
X2876Y1909D01*
X2874Y1909D01*
X2874Y1913D01*
X2872Y1913D01*
X2872Y1917D01*
X2870Y1917D01*
X2870Y1921D01*
X2868Y1921D01*
X2868Y1927D01*
X2866Y1927D01*
X2866Y1937D01*
X2864Y1937D01*
X2864Y1959D01*
X2866Y1959D01*
X2866Y1967D01*
X2868Y1967D01*
X2868Y1973D01*
X2870Y1973D01*
X2870Y1979D01*
X2872Y1979D01*
X2872Y1983D01*
X2874Y1983D01*
X2874Y1987D01*
X2876Y1987D01*
X2876Y2007D01*
X1978Y2007D01*
G37*
D02*
G36*
X178Y1911D02*
X178Y1909D01*
X176Y1909D01*
X176Y1907D01*
X174Y1907D01*
X174Y1903D01*
X172Y1903D01*
X172Y1901D01*
X170Y1901D01*
X170Y1897D01*
X168Y1897D01*
X168Y1895D01*
X166Y1895D01*
X166Y1893D01*
X164Y1893D01*
X164Y1891D01*
X162Y1891D01*
X162Y1889D01*
X160Y1889D01*
X160Y1887D01*
X158Y1887D01*
X158Y1885D01*
X154Y1885D01*
X154Y1883D01*
X152Y1883D01*
X152Y1881D01*
X150Y1881D01*
X150Y1879D01*
X146Y1879D01*
X146Y1877D01*
X142Y1877D01*
X142Y1875D01*
X138Y1875D01*
X138Y1873D01*
X134Y1873D01*
X134Y1871D01*
X128Y1871D01*
X128Y1869D01*
X120Y1869D01*
X120Y1867D01*
X224Y1867D01*
X224Y1869D01*
X226Y1869D01*
X226Y1873D01*
X228Y1873D01*
X228Y1877D01*
X230Y1877D01*
X230Y1879D01*
X232Y1879D01*
X232Y1883D01*
X234Y1883D01*
X234Y1885D01*
X236Y1885D01*
X236Y1887D01*
X238Y1887D01*
X238Y1889D01*
X240Y1889D01*
X240Y1891D01*
X242Y1891D01*
X242Y1893D01*
X244Y1893D01*
X244Y1895D01*
X246Y1895D01*
X246Y1897D01*
X248Y1897D01*
X248Y1899D01*
X252Y1899D01*
X252Y1901D01*
X254Y1901D01*
X254Y1903D01*
X258Y1903D01*
X258Y1905D01*
X262Y1905D01*
X262Y1907D01*
X266Y1907D01*
X266Y1909D01*
X274Y1909D01*
X274Y1911D01*
X178Y1911D01*
G37*
D02*
G36*
X40Y1885D02*
X40Y1867D01*
X94Y1867D01*
X94Y1869D01*
X86Y1869D01*
X86Y1871D01*
X80Y1871D01*
X80Y1873D01*
X76Y1873D01*
X76Y1875D01*
X72Y1875D01*
X72Y1877D01*
X68Y1877D01*
X68Y1879D01*
X64Y1879D01*
X64Y1881D01*
X62Y1881D01*
X62Y1883D01*
X60Y1883D01*
X60Y1885D01*
X40Y1885D01*
G37*
D02*
G36*
X2980Y1877D02*
X2980Y1875D01*
X2976Y1875D01*
X2976Y1873D01*
X2972Y1873D01*
X2972Y1871D01*
X2966Y1871D01*
X2966Y1869D01*
X2958Y1869D01*
X2958Y1867D01*
X3002Y1867D01*
X3002Y1877D01*
X2980Y1877D01*
G37*
D02*
G36*
X40Y1867D02*
X40Y1865D01*
X224Y1865D01*
X224Y1867D01*
X40Y1867D01*
G37*
D02*
G36*
X40Y1867D02*
X40Y1865D01*
X224Y1865D01*
X224Y1867D01*
X40Y1867D01*
G37*
D02*
G36*
X2756Y1867D02*
X2756Y1865D01*
X3002Y1865D01*
X3002Y1867D01*
X2756Y1867D01*
G37*
D02*
G36*
X2756Y1867D02*
X2756Y1865D01*
X3002Y1865D01*
X3002Y1867D01*
X2756Y1867D01*
G37*
D02*
G36*
X40Y1865D02*
X40Y435D01*
X274Y435D01*
X274Y437D01*
X266Y437D01*
X266Y439D01*
X262Y439D01*
X262Y441D01*
X258Y441D01*
X258Y443D01*
X254Y443D01*
X254Y445D01*
X252Y445D01*
X252Y447D01*
X248Y447D01*
X248Y449D01*
X246Y449D01*
X246Y451D01*
X244Y451D01*
X244Y453D01*
X242Y453D01*
X242Y455D01*
X240Y455D01*
X240Y457D01*
X238Y457D01*
X238Y459D01*
X236Y459D01*
X236Y461D01*
X234Y461D01*
X234Y463D01*
X232Y463D01*
X232Y467D01*
X230Y467D01*
X230Y469D01*
X228Y469D01*
X228Y473D01*
X226Y473D01*
X226Y477D01*
X224Y477D01*
X224Y483D01*
X222Y483D01*
X222Y491D01*
X220Y491D01*
X220Y505D01*
X222Y505D01*
X222Y513D01*
X224Y513D01*
X224Y519D01*
X226Y519D01*
X226Y523D01*
X228Y523D01*
X228Y525D01*
X230Y525D01*
X230Y529D01*
X232Y529D01*
X232Y531D01*
X234Y531D01*
X234Y535D01*
X236Y535D01*
X236Y537D01*
X238Y537D01*
X238Y559D01*
X236Y559D01*
X236Y561D01*
X234Y561D01*
X234Y563D01*
X232Y563D01*
X232Y567D01*
X178Y567D01*
X178Y569D01*
X172Y569D01*
X172Y571D01*
X168Y571D01*
X168Y573D01*
X166Y573D01*
X166Y575D01*
X162Y575D01*
X162Y577D01*
X160Y577D01*
X160Y581D01*
X158Y581D01*
X158Y583D01*
X156Y583D01*
X156Y589D01*
X154Y589D01*
X154Y1659D01*
X156Y1659D01*
X156Y1663D01*
X158Y1663D01*
X158Y1667D01*
X160Y1667D01*
X160Y1669D01*
X162Y1669D01*
X162Y1671D01*
X164Y1671D01*
X164Y1673D01*
X166Y1673D01*
X166Y1675D01*
X168Y1675D01*
X168Y1677D01*
X170Y1677D01*
X170Y1679D01*
X172Y1679D01*
X172Y1681D01*
X174Y1681D01*
X174Y1683D01*
X176Y1683D01*
X176Y1685D01*
X178Y1685D01*
X178Y1687D01*
X180Y1687D01*
X180Y1689D01*
X182Y1689D01*
X182Y1691D01*
X184Y1691D01*
X184Y1693D01*
X186Y1693D01*
X186Y1695D01*
X188Y1695D01*
X188Y1697D01*
X190Y1697D01*
X190Y1699D01*
X192Y1699D01*
X192Y1701D01*
X194Y1701D01*
X194Y1703D01*
X196Y1703D01*
X196Y1705D01*
X198Y1705D01*
X198Y1707D01*
X200Y1707D01*
X200Y1709D01*
X202Y1709D01*
X202Y1711D01*
X204Y1711D01*
X204Y1713D01*
X206Y1713D01*
X206Y1715D01*
X208Y1715D01*
X208Y1717D01*
X210Y1717D01*
X210Y1719D01*
X212Y1719D01*
X212Y1721D01*
X214Y1721D01*
X214Y1723D01*
X216Y1723D01*
X216Y1725D01*
X218Y1725D01*
X218Y1727D01*
X220Y1727D01*
X220Y1729D01*
X222Y1729D01*
X222Y1731D01*
X224Y1731D01*
X224Y1733D01*
X226Y1733D01*
X226Y1735D01*
X228Y1735D01*
X228Y1757D01*
X230Y1757D01*
X230Y1765D01*
X232Y1765D01*
X232Y1769D01*
X234Y1769D01*
X234Y1771D01*
X236Y1771D01*
X236Y1775D01*
X238Y1775D01*
X238Y1779D01*
X240Y1779D01*
X240Y1781D01*
X242Y1781D01*
X242Y1783D01*
X244Y1783D01*
X244Y1803D01*
X242Y1803D01*
X242Y1805D01*
X240Y1805D01*
X240Y1807D01*
X238Y1807D01*
X238Y1809D01*
X236Y1809D01*
X236Y1811D01*
X234Y1811D01*
X234Y1813D01*
X232Y1813D01*
X232Y1815D01*
X230Y1815D01*
X230Y1819D01*
X228Y1819D01*
X228Y1823D01*
X226Y1823D01*
X226Y1827D01*
X224Y1827D01*
X224Y1831D01*
X222Y1831D01*
X222Y1839D01*
X220Y1839D01*
X220Y1857D01*
X222Y1857D01*
X222Y1865D01*
X40Y1865D01*
G37*
D02*
G36*
X2758Y1865D02*
X2758Y1863D01*
X2760Y1863D01*
X2760Y1861D01*
X2762Y1861D01*
X2762Y1859D01*
X2764Y1859D01*
X2764Y1857D01*
X2766Y1857D01*
X2766Y1855D01*
X2768Y1855D01*
X2768Y1853D01*
X2770Y1853D01*
X2770Y1851D01*
X2772Y1851D01*
X2772Y1849D01*
X2774Y1849D01*
X2774Y1847D01*
X2776Y1847D01*
X2776Y1845D01*
X2778Y1845D01*
X2778Y1843D01*
X2780Y1843D01*
X2780Y1841D01*
X2782Y1841D01*
X2782Y1839D01*
X2784Y1839D01*
X2784Y1837D01*
X2786Y1837D01*
X2786Y1835D01*
X2788Y1835D01*
X2788Y1833D01*
X2790Y1833D01*
X2790Y1831D01*
X2792Y1831D01*
X2792Y1829D01*
X2794Y1829D01*
X2794Y1827D01*
X2796Y1827D01*
X2796Y1825D01*
X2798Y1825D01*
X2798Y1823D01*
X2800Y1823D01*
X2800Y1821D01*
X2802Y1821D01*
X2802Y1819D01*
X2804Y1819D01*
X2804Y1817D01*
X2806Y1817D01*
X2806Y1815D01*
X2808Y1815D01*
X2808Y1813D01*
X2810Y1813D01*
X2810Y1811D01*
X2812Y1811D01*
X2812Y1809D01*
X2814Y1809D01*
X2814Y1807D01*
X2816Y1807D01*
X2816Y1805D01*
X2818Y1805D01*
X2818Y1803D01*
X2820Y1803D01*
X2820Y1801D01*
X2822Y1801D01*
X2822Y1799D01*
X2824Y1799D01*
X2824Y1797D01*
X2826Y1797D01*
X2826Y1795D01*
X2828Y1795D01*
X2828Y1793D01*
X2830Y1793D01*
X2830Y1791D01*
X2832Y1791D01*
X2832Y1789D01*
X2834Y1789D01*
X2834Y1787D01*
X2836Y1787D01*
X2836Y1785D01*
X2838Y1785D01*
X2838Y1783D01*
X2840Y1783D01*
X2840Y1781D01*
X2842Y1781D01*
X2842Y1779D01*
X2844Y1779D01*
X2844Y1777D01*
X2846Y1777D01*
X2846Y1775D01*
X2848Y1775D01*
X2848Y1773D01*
X2850Y1773D01*
X2850Y1771D01*
X2852Y1771D01*
X2852Y1767D01*
X2854Y1767D01*
X2854Y1765D01*
X2856Y1765D01*
X2856Y1763D01*
X2858Y1763D01*
X2858Y1761D01*
X2860Y1761D01*
X2860Y1759D01*
X2862Y1759D01*
X2862Y1757D01*
X2864Y1757D01*
X2864Y1755D01*
X2866Y1755D01*
X2866Y1753D01*
X2868Y1753D01*
X2868Y1751D01*
X2870Y1751D01*
X2870Y1749D01*
X2872Y1749D01*
X2872Y1747D01*
X2874Y1747D01*
X2874Y1745D01*
X2876Y1745D01*
X2876Y1743D01*
X2878Y1743D01*
X2878Y1741D01*
X2880Y1741D01*
X2880Y1739D01*
X2882Y1739D01*
X2882Y1737D01*
X2884Y1737D01*
X2884Y1735D01*
X2886Y1735D01*
X2886Y1733D01*
X2888Y1733D01*
X2888Y1731D01*
X2890Y1731D01*
X2890Y1729D01*
X2892Y1729D01*
X2892Y1727D01*
X2894Y1727D01*
X2894Y1725D01*
X2896Y1725D01*
X2896Y1723D01*
X2898Y1723D01*
X2898Y1721D01*
X2900Y1721D01*
X2900Y1719D01*
X2902Y1719D01*
X2902Y1717D01*
X2904Y1717D01*
X2904Y1715D01*
X2906Y1715D01*
X2906Y1713D01*
X2908Y1713D01*
X2908Y1709D01*
X2910Y1709D01*
X2910Y1705D01*
X2912Y1705D01*
X2912Y1623D01*
X2914Y1623D01*
X2914Y1601D01*
X2916Y1601D01*
X2916Y1599D01*
X2918Y1599D01*
X2918Y1597D01*
X2920Y1597D01*
X2920Y1595D01*
X2922Y1595D01*
X2922Y1593D01*
X2924Y1593D01*
X2924Y1591D01*
X2926Y1591D01*
X2926Y1589D01*
X2928Y1589D01*
X2928Y1587D01*
X2930Y1587D01*
X2930Y1585D01*
X2932Y1585D01*
X2932Y1583D01*
X2934Y1583D01*
X2934Y1581D01*
X2936Y1581D01*
X2936Y1577D01*
X2938Y1577D01*
X2938Y1573D01*
X2940Y1573D01*
X2940Y1571D01*
X2942Y1571D01*
X2942Y1565D01*
X2944Y1565D01*
X2944Y1559D01*
X2946Y1559D01*
X2946Y1537D01*
X2944Y1537D01*
X2944Y1531D01*
X2942Y1531D01*
X2942Y1525D01*
X2940Y1525D01*
X2940Y1521D01*
X2938Y1521D01*
X2938Y1519D01*
X2936Y1519D01*
X2936Y1515D01*
X2934Y1515D01*
X2934Y1513D01*
X2932Y1513D01*
X2932Y1511D01*
X2930Y1511D01*
X2930Y1509D01*
X2928Y1509D01*
X2928Y1487D01*
X2930Y1487D01*
X2930Y1485D01*
X2932Y1485D01*
X2932Y1483D01*
X2934Y1483D01*
X2934Y1481D01*
X2936Y1481D01*
X2936Y1477D01*
X2938Y1477D01*
X2938Y1473D01*
X2940Y1473D01*
X2940Y1471D01*
X2942Y1471D01*
X2942Y1465D01*
X2944Y1465D01*
X2944Y1459D01*
X2946Y1459D01*
X2946Y1437D01*
X2944Y1437D01*
X2944Y1431D01*
X2942Y1431D01*
X2942Y1425D01*
X2940Y1425D01*
X2940Y1421D01*
X2938Y1421D01*
X2938Y1419D01*
X2936Y1419D01*
X2936Y1415D01*
X2934Y1415D01*
X2934Y1413D01*
X2932Y1413D01*
X2932Y1411D01*
X2930Y1411D01*
X2930Y1409D01*
X2928Y1409D01*
X2928Y1405D01*
X2926Y1405D01*
X2926Y1403D01*
X2922Y1403D01*
X2922Y1401D01*
X2920Y1401D01*
X2920Y1399D01*
X2918Y1399D01*
X2918Y1397D01*
X2916Y1397D01*
X2916Y1395D01*
X2914Y1395D01*
X2914Y1351D01*
X2916Y1351D01*
X2916Y1349D01*
X2918Y1349D01*
X2918Y1347D01*
X2920Y1347D01*
X2920Y1345D01*
X2922Y1345D01*
X2922Y1343D01*
X2924Y1343D01*
X2924Y1341D01*
X2926Y1341D01*
X2926Y1339D01*
X2928Y1339D01*
X2928Y1337D01*
X2930Y1337D01*
X2930Y1335D01*
X2932Y1335D01*
X2932Y1333D01*
X2934Y1333D01*
X2934Y1331D01*
X2936Y1331D01*
X2936Y1327D01*
X2938Y1327D01*
X2938Y1323D01*
X2940Y1323D01*
X2940Y1321D01*
X2942Y1321D01*
X2942Y1315D01*
X2944Y1315D01*
X2944Y1309D01*
X2946Y1309D01*
X2946Y1287D01*
X2944Y1287D01*
X2944Y1281D01*
X2942Y1281D01*
X2942Y1275D01*
X2940Y1275D01*
X2940Y1271D01*
X2938Y1271D01*
X2938Y1269D01*
X2936Y1269D01*
X2936Y1265D01*
X2934Y1265D01*
X2934Y1263D01*
X2932Y1263D01*
X2932Y1261D01*
X2930Y1261D01*
X2930Y1259D01*
X2928Y1259D01*
X2928Y1255D01*
X2926Y1255D01*
X2926Y1253D01*
X2922Y1253D01*
X2922Y1251D01*
X2920Y1251D01*
X2920Y1249D01*
X2918Y1249D01*
X2918Y1247D01*
X2916Y1247D01*
X2916Y1245D01*
X2912Y1245D01*
X2912Y1243D01*
X2910Y1243D01*
X2910Y1241D01*
X2906Y1241D01*
X2906Y1239D01*
X2900Y1239D01*
X2900Y1237D01*
X2894Y1237D01*
X2894Y1235D01*
X3002Y1235D01*
X3002Y1865D01*
X2758Y1865D01*
G37*
D02*
G36*
X2822Y1253D02*
X2822Y1251D01*
X2820Y1251D01*
X2820Y1249D01*
X2818Y1249D01*
X2818Y1247D01*
X2816Y1247D01*
X2816Y1245D01*
X2812Y1245D01*
X2812Y1237D01*
X2810Y1237D01*
X2810Y1235D01*
X2872Y1235D01*
X2872Y1237D01*
X2866Y1237D01*
X2866Y1239D01*
X2860Y1239D01*
X2860Y1241D01*
X2858Y1241D01*
X2858Y1243D01*
X2854Y1243D01*
X2854Y1245D01*
X2850Y1245D01*
X2850Y1247D01*
X2848Y1247D01*
X2848Y1249D01*
X2846Y1249D01*
X2846Y1251D01*
X2844Y1251D01*
X2844Y1253D01*
X2822Y1253D01*
G37*
D02*
G36*
X2810Y1235D02*
X2810Y1233D01*
X3002Y1233D01*
X3002Y1235D01*
X2810Y1235D01*
G37*
D02*
G36*
X2810Y1235D02*
X2810Y1233D01*
X3002Y1233D01*
X3002Y1235D01*
X2810Y1235D01*
G37*
D02*
G36*
X2808Y1233D02*
X2808Y1229D01*
X2806Y1229D01*
X2806Y1227D01*
X2804Y1227D01*
X2804Y1225D01*
X2802Y1225D01*
X2802Y1223D01*
X2800Y1223D01*
X2800Y1221D01*
X2798Y1221D01*
X2798Y1219D01*
X2796Y1219D01*
X2796Y1217D01*
X2794Y1217D01*
X2794Y1215D01*
X2792Y1215D01*
X2792Y1213D01*
X2790Y1213D01*
X2790Y1211D01*
X2788Y1211D01*
X2788Y1209D01*
X2786Y1209D01*
X2786Y1207D01*
X2784Y1207D01*
X2784Y1205D01*
X2782Y1205D01*
X2782Y1203D01*
X2780Y1203D01*
X2780Y1201D01*
X2778Y1201D01*
X2778Y1199D01*
X2776Y1199D01*
X2776Y1197D01*
X2774Y1197D01*
X2774Y1195D01*
X2772Y1195D01*
X2772Y1193D01*
X2770Y1193D01*
X2770Y1191D01*
X2768Y1191D01*
X2768Y1189D01*
X2766Y1189D01*
X2766Y1187D01*
X2764Y1187D01*
X2764Y1185D01*
X2762Y1185D01*
X2762Y1183D01*
X2760Y1183D01*
X2760Y1181D01*
X2758Y1181D01*
X2758Y1179D01*
X2756Y1179D01*
X2756Y1177D01*
X2754Y1177D01*
X2754Y1175D01*
X2752Y1175D01*
X2752Y1173D01*
X2750Y1173D01*
X2750Y1171D01*
X2748Y1171D01*
X2748Y1169D01*
X2746Y1169D01*
X2746Y1167D01*
X2744Y1167D01*
X2744Y1165D01*
X2742Y1165D01*
X2742Y1163D01*
X2740Y1163D01*
X2740Y1161D01*
X2738Y1161D01*
X2738Y1159D01*
X2736Y1159D01*
X2736Y1157D01*
X2734Y1157D01*
X2734Y1155D01*
X2732Y1155D01*
X2732Y1153D01*
X2730Y1153D01*
X2730Y1151D01*
X2728Y1151D01*
X2728Y1149D01*
X2726Y1149D01*
X2726Y1147D01*
X2724Y1147D01*
X2724Y1145D01*
X2722Y1145D01*
X2722Y1143D01*
X2720Y1143D01*
X2720Y1141D01*
X2718Y1141D01*
X2718Y1139D01*
X2716Y1139D01*
X2716Y1137D01*
X2714Y1137D01*
X2714Y1135D01*
X2712Y1135D01*
X2712Y1133D01*
X2710Y1133D01*
X2710Y1131D01*
X2708Y1131D01*
X2708Y1129D01*
X2706Y1129D01*
X2706Y1127D01*
X2704Y1127D01*
X2704Y1125D01*
X2702Y1125D01*
X2702Y1123D01*
X2698Y1123D01*
X2698Y1121D01*
X2694Y1121D01*
X2694Y1119D01*
X2396Y1119D01*
X2396Y1117D01*
X2394Y1117D01*
X2394Y1115D01*
X2392Y1115D01*
X2392Y1113D01*
X2390Y1113D01*
X2390Y1111D01*
X2388Y1111D01*
X2388Y1109D01*
X2386Y1109D01*
X2386Y1107D01*
X2384Y1107D01*
X2384Y1105D01*
X2382Y1105D01*
X2382Y1103D01*
X2380Y1103D01*
X2380Y1101D01*
X2378Y1101D01*
X2378Y1099D01*
X2376Y1099D01*
X2376Y1097D01*
X2374Y1097D01*
X2374Y1095D01*
X2372Y1095D01*
X2372Y1093D01*
X2370Y1093D01*
X2370Y1091D01*
X2368Y1091D01*
X2368Y1089D01*
X2366Y1089D01*
X2366Y1087D01*
X2364Y1087D01*
X2364Y1085D01*
X2362Y1085D01*
X2362Y1083D01*
X2360Y1083D01*
X2360Y1081D01*
X2358Y1081D01*
X2358Y1079D01*
X2356Y1079D01*
X2356Y1077D01*
X2354Y1077D01*
X2354Y1075D01*
X2352Y1075D01*
X2352Y1073D01*
X2350Y1073D01*
X2350Y1071D01*
X2348Y1071D01*
X2348Y1069D01*
X2346Y1069D01*
X2346Y1067D01*
X2344Y1067D01*
X2344Y1065D01*
X2342Y1065D01*
X2342Y1063D01*
X2340Y1063D01*
X2340Y1061D01*
X2892Y1061D01*
X2892Y1059D01*
X2900Y1059D01*
X2900Y1057D01*
X2904Y1057D01*
X2904Y1055D01*
X2908Y1055D01*
X2908Y1053D01*
X2912Y1053D01*
X2912Y1051D01*
X2916Y1051D01*
X2916Y1049D01*
X2918Y1049D01*
X2918Y1047D01*
X2920Y1047D01*
X2920Y1045D01*
X2922Y1045D01*
X2922Y1043D01*
X2924Y1043D01*
X2924Y1041D01*
X2926Y1041D01*
X2926Y1039D01*
X2928Y1039D01*
X2928Y1037D01*
X2930Y1037D01*
X2930Y1035D01*
X2932Y1035D01*
X2932Y1033D01*
X2934Y1033D01*
X2934Y1031D01*
X2936Y1031D01*
X2936Y1027D01*
X2938Y1027D01*
X2938Y1023D01*
X2940Y1023D01*
X2940Y1021D01*
X2942Y1021D01*
X2942Y1015D01*
X2944Y1015D01*
X2944Y1009D01*
X2946Y1009D01*
X2946Y987D01*
X2944Y987D01*
X2944Y981D01*
X2942Y981D01*
X2942Y975D01*
X2940Y975D01*
X2940Y971D01*
X2938Y971D01*
X2938Y969D01*
X2936Y969D01*
X2936Y965D01*
X2934Y965D01*
X2934Y963D01*
X2932Y963D01*
X2932Y961D01*
X2930Y961D01*
X2930Y959D01*
X2928Y959D01*
X2928Y955D01*
X2926Y955D01*
X2926Y953D01*
X2922Y953D01*
X2922Y951D01*
X2920Y951D01*
X2920Y949D01*
X2918Y949D01*
X2918Y947D01*
X2916Y947D01*
X2916Y945D01*
X2912Y945D01*
X2912Y943D01*
X2910Y943D01*
X2910Y941D01*
X2906Y941D01*
X2906Y939D01*
X2900Y939D01*
X2900Y937D01*
X2894Y937D01*
X2894Y935D01*
X3002Y935D01*
X3002Y1233D01*
X2808Y1233D01*
G37*
D02*
G36*
X2338Y1061D02*
X2338Y1059D01*
X2336Y1059D01*
X2336Y1057D01*
X2334Y1057D01*
X2334Y1055D01*
X2332Y1055D01*
X2332Y1049D01*
X2352Y1049D01*
X2352Y1051D01*
X2354Y1051D01*
X2354Y1053D01*
X2358Y1053D01*
X2358Y1055D01*
X2362Y1055D01*
X2362Y1057D01*
X2366Y1057D01*
X2366Y1059D01*
X2374Y1059D01*
X2374Y1061D01*
X2338Y1061D01*
G37*
D02*
G36*
X2392Y1061D02*
X2392Y1059D01*
X2400Y1059D01*
X2400Y1057D01*
X2404Y1057D01*
X2404Y1055D01*
X2408Y1055D01*
X2408Y1053D01*
X2412Y1053D01*
X2412Y1051D01*
X2416Y1051D01*
X2416Y1049D01*
X2418Y1049D01*
X2418Y1047D01*
X2420Y1047D01*
X2420Y1045D01*
X2422Y1045D01*
X2422Y1043D01*
X2444Y1043D01*
X2444Y1045D01*
X2446Y1045D01*
X2446Y1047D01*
X2448Y1047D01*
X2448Y1049D01*
X2452Y1049D01*
X2452Y1051D01*
X2454Y1051D01*
X2454Y1053D01*
X2458Y1053D01*
X2458Y1055D01*
X2462Y1055D01*
X2462Y1057D01*
X2466Y1057D01*
X2466Y1059D01*
X2474Y1059D01*
X2474Y1061D01*
X2392Y1061D01*
G37*
D02*
G36*
X2492Y1061D02*
X2492Y1059D01*
X2500Y1059D01*
X2500Y1057D01*
X2504Y1057D01*
X2504Y1055D01*
X2508Y1055D01*
X2508Y1053D01*
X2512Y1053D01*
X2512Y1051D01*
X2516Y1051D01*
X2516Y1049D01*
X2518Y1049D01*
X2518Y1047D01*
X2520Y1047D01*
X2520Y1045D01*
X2522Y1045D01*
X2522Y1043D01*
X2544Y1043D01*
X2544Y1045D01*
X2546Y1045D01*
X2546Y1047D01*
X2548Y1047D01*
X2548Y1049D01*
X2552Y1049D01*
X2552Y1051D01*
X2554Y1051D01*
X2554Y1053D01*
X2558Y1053D01*
X2558Y1055D01*
X2562Y1055D01*
X2562Y1057D01*
X2566Y1057D01*
X2566Y1059D01*
X2574Y1059D01*
X2574Y1061D01*
X2492Y1061D01*
G37*
D02*
G36*
X2592Y1061D02*
X2592Y1059D01*
X2600Y1059D01*
X2600Y1057D01*
X2604Y1057D01*
X2604Y1055D01*
X2608Y1055D01*
X2608Y1053D01*
X2612Y1053D01*
X2612Y1051D01*
X2616Y1051D01*
X2616Y1049D01*
X2618Y1049D01*
X2618Y1047D01*
X2620Y1047D01*
X2620Y1045D01*
X2622Y1045D01*
X2622Y1043D01*
X2644Y1043D01*
X2644Y1045D01*
X2646Y1045D01*
X2646Y1047D01*
X2648Y1047D01*
X2648Y1049D01*
X2652Y1049D01*
X2652Y1051D01*
X2654Y1051D01*
X2654Y1053D01*
X2658Y1053D01*
X2658Y1055D01*
X2662Y1055D01*
X2662Y1057D01*
X2666Y1057D01*
X2666Y1059D01*
X2674Y1059D01*
X2674Y1061D01*
X2592Y1061D01*
G37*
D02*
G36*
X2692Y1061D02*
X2692Y1059D01*
X2700Y1059D01*
X2700Y1057D01*
X2704Y1057D01*
X2704Y1055D01*
X2708Y1055D01*
X2708Y1053D01*
X2712Y1053D01*
X2712Y1051D01*
X2716Y1051D01*
X2716Y1049D01*
X2718Y1049D01*
X2718Y1047D01*
X2720Y1047D01*
X2720Y1045D01*
X2722Y1045D01*
X2722Y1043D01*
X2744Y1043D01*
X2744Y1045D01*
X2746Y1045D01*
X2746Y1047D01*
X2748Y1047D01*
X2748Y1049D01*
X2752Y1049D01*
X2752Y1051D01*
X2754Y1051D01*
X2754Y1053D01*
X2758Y1053D01*
X2758Y1055D01*
X2762Y1055D01*
X2762Y1057D01*
X2766Y1057D01*
X2766Y1059D01*
X2774Y1059D01*
X2774Y1061D01*
X2692Y1061D01*
G37*
D02*
G36*
X2792Y1061D02*
X2792Y1059D01*
X2800Y1059D01*
X2800Y1057D01*
X2804Y1057D01*
X2804Y1055D01*
X2808Y1055D01*
X2808Y1053D01*
X2812Y1053D01*
X2812Y1051D01*
X2816Y1051D01*
X2816Y1049D01*
X2818Y1049D01*
X2818Y1047D01*
X2820Y1047D01*
X2820Y1045D01*
X2822Y1045D01*
X2822Y1043D01*
X2844Y1043D01*
X2844Y1045D01*
X2846Y1045D01*
X2846Y1047D01*
X2848Y1047D01*
X2848Y1049D01*
X2852Y1049D01*
X2852Y1051D01*
X2854Y1051D01*
X2854Y1053D01*
X2858Y1053D01*
X2858Y1055D01*
X2862Y1055D01*
X2862Y1057D01*
X2866Y1057D01*
X2866Y1059D01*
X2874Y1059D01*
X2874Y1061D01*
X2792Y1061D01*
G37*
D02*
G36*
X2322Y953D02*
X2322Y951D01*
X2320Y951D01*
X2320Y949D01*
X2318Y949D01*
X2318Y947D01*
X2316Y947D01*
X2316Y945D01*
X2314Y945D01*
X2314Y935D01*
X2372Y935D01*
X2372Y937D01*
X2366Y937D01*
X2366Y939D01*
X2360Y939D01*
X2360Y941D01*
X2358Y941D01*
X2358Y943D01*
X2354Y943D01*
X2354Y945D01*
X2350Y945D01*
X2350Y947D01*
X2348Y947D01*
X2348Y949D01*
X2346Y949D01*
X2346Y951D01*
X2344Y951D01*
X2344Y953D01*
X2322Y953D01*
G37*
D02*
G36*
X2422Y953D02*
X2422Y951D01*
X2420Y951D01*
X2420Y949D01*
X2418Y949D01*
X2418Y947D01*
X2416Y947D01*
X2416Y945D01*
X2412Y945D01*
X2412Y943D01*
X2410Y943D01*
X2410Y941D01*
X2406Y941D01*
X2406Y939D01*
X2400Y939D01*
X2400Y937D01*
X2394Y937D01*
X2394Y935D01*
X2472Y935D01*
X2472Y937D01*
X2466Y937D01*
X2466Y939D01*
X2460Y939D01*
X2460Y941D01*
X2458Y941D01*
X2458Y943D01*
X2454Y943D01*
X2454Y945D01*
X2450Y945D01*
X2450Y947D01*
X2448Y947D01*
X2448Y949D01*
X2446Y949D01*
X2446Y951D01*
X2444Y951D01*
X2444Y953D01*
X2422Y953D01*
G37*
D02*
G36*
X2522Y953D02*
X2522Y951D01*
X2520Y951D01*
X2520Y949D01*
X2518Y949D01*
X2518Y947D01*
X2516Y947D01*
X2516Y945D01*
X2512Y945D01*
X2512Y943D01*
X2510Y943D01*
X2510Y941D01*
X2506Y941D01*
X2506Y939D01*
X2500Y939D01*
X2500Y937D01*
X2494Y937D01*
X2494Y935D01*
X2572Y935D01*
X2572Y937D01*
X2566Y937D01*
X2566Y939D01*
X2560Y939D01*
X2560Y941D01*
X2558Y941D01*
X2558Y943D01*
X2554Y943D01*
X2554Y945D01*
X2550Y945D01*
X2550Y947D01*
X2548Y947D01*
X2548Y949D01*
X2546Y949D01*
X2546Y951D01*
X2544Y951D01*
X2544Y953D01*
X2522Y953D01*
G37*
D02*
G36*
X2622Y953D02*
X2622Y951D01*
X2620Y951D01*
X2620Y949D01*
X2618Y949D01*
X2618Y947D01*
X2616Y947D01*
X2616Y945D01*
X2612Y945D01*
X2612Y943D01*
X2610Y943D01*
X2610Y941D01*
X2606Y941D01*
X2606Y939D01*
X2600Y939D01*
X2600Y937D01*
X2594Y937D01*
X2594Y935D01*
X2654Y935D01*
X2654Y945D01*
X2650Y945D01*
X2650Y947D01*
X2648Y947D01*
X2648Y949D01*
X2646Y949D01*
X2646Y951D01*
X2644Y951D01*
X2644Y953D01*
X2622Y953D01*
G37*
D02*
G36*
X2722Y953D02*
X2722Y951D01*
X2720Y951D01*
X2720Y949D01*
X2718Y949D01*
X2718Y947D01*
X2716Y947D01*
X2716Y945D01*
X2714Y945D01*
X2714Y935D01*
X2772Y935D01*
X2772Y937D01*
X2766Y937D01*
X2766Y939D01*
X2760Y939D01*
X2760Y941D01*
X2758Y941D01*
X2758Y943D01*
X2754Y943D01*
X2754Y945D01*
X2750Y945D01*
X2750Y947D01*
X2748Y947D01*
X2748Y949D01*
X2746Y949D01*
X2746Y951D01*
X2744Y951D01*
X2744Y953D01*
X2722Y953D01*
G37*
D02*
G36*
X2822Y953D02*
X2822Y951D01*
X2820Y951D01*
X2820Y949D01*
X2818Y949D01*
X2818Y947D01*
X2816Y947D01*
X2816Y945D01*
X2812Y945D01*
X2812Y943D01*
X2810Y943D01*
X2810Y941D01*
X2806Y941D01*
X2806Y939D01*
X2800Y939D01*
X2800Y937D01*
X2794Y937D01*
X2794Y935D01*
X2872Y935D01*
X2872Y937D01*
X2866Y937D01*
X2866Y939D01*
X2860Y939D01*
X2860Y941D01*
X2858Y941D01*
X2858Y943D01*
X2854Y943D01*
X2854Y945D01*
X2850Y945D01*
X2850Y947D01*
X2848Y947D01*
X2848Y949D01*
X2846Y949D01*
X2846Y951D01*
X2844Y951D01*
X2844Y953D01*
X2822Y953D01*
G37*
D02*
G36*
X2314Y935D02*
X2314Y933D01*
X2654Y933D01*
X2654Y935D01*
X2314Y935D01*
G37*
D02*
G36*
X2314Y935D02*
X2314Y933D01*
X2654Y933D01*
X2654Y935D01*
X2314Y935D01*
G37*
D02*
G36*
X2314Y935D02*
X2314Y933D01*
X2654Y933D01*
X2654Y935D01*
X2314Y935D01*
G37*
D02*
G36*
X2314Y935D02*
X2314Y933D01*
X2654Y933D01*
X2654Y935D01*
X2314Y935D01*
G37*
D02*
G36*
X2714Y935D02*
X2714Y933D01*
X3002Y933D01*
X3002Y935D01*
X2714Y935D01*
G37*
D02*
G36*
X2714Y935D02*
X2714Y933D01*
X3002Y933D01*
X3002Y935D01*
X2714Y935D01*
G37*
D02*
G36*
X2714Y935D02*
X2714Y933D01*
X3002Y933D01*
X3002Y935D01*
X2714Y935D01*
G37*
D02*
G36*
X2314Y933D02*
X2314Y879D01*
X2312Y879D01*
X2312Y785D01*
X2672Y785D01*
X2672Y787D01*
X2666Y787D01*
X2666Y789D01*
X2660Y789D01*
X2660Y791D01*
X2658Y791D01*
X2658Y793D01*
X2654Y793D01*
X2654Y795D01*
X2650Y795D01*
X2650Y797D01*
X2648Y797D01*
X2648Y799D01*
X2646Y799D01*
X2646Y801D01*
X2644Y801D01*
X2644Y803D01*
X2642Y803D01*
X2642Y805D01*
X2640Y805D01*
X2640Y807D01*
X2638Y807D01*
X2638Y809D01*
X2636Y809D01*
X2636Y811D01*
X2634Y811D01*
X2634Y813D01*
X2632Y813D01*
X2632Y815D01*
X2630Y815D01*
X2630Y819D01*
X2628Y819D01*
X2628Y823D01*
X2626Y823D01*
X2626Y827D01*
X2624Y827D01*
X2624Y831D01*
X2622Y831D01*
X2622Y839D01*
X2620Y839D01*
X2620Y857D01*
X2622Y857D01*
X2622Y865D01*
X2624Y865D01*
X2624Y869D01*
X2626Y869D01*
X2626Y873D01*
X2628Y873D01*
X2628Y877D01*
X2630Y877D01*
X2630Y879D01*
X2632Y879D01*
X2632Y883D01*
X2634Y883D01*
X2634Y885D01*
X2636Y885D01*
X2636Y887D01*
X2638Y887D01*
X2638Y889D01*
X2640Y889D01*
X2640Y891D01*
X2642Y891D01*
X2642Y893D01*
X2644Y893D01*
X2644Y895D01*
X2646Y895D01*
X2646Y897D01*
X2648Y897D01*
X2648Y899D01*
X2652Y899D01*
X2652Y901D01*
X2654Y901D01*
X2654Y933D01*
X2314Y933D01*
G37*
D02*
G36*
X2714Y933D02*
X2714Y911D01*
X2892Y911D01*
X2892Y909D01*
X2900Y909D01*
X2900Y907D01*
X2904Y907D01*
X2904Y905D01*
X2908Y905D01*
X2908Y903D01*
X2912Y903D01*
X2912Y901D01*
X2916Y901D01*
X2916Y899D01*
X2918Y899D01*
X2918Y897D01*
X2920Y897D01*
X2920Y895D01*
X2922Y895D01*
X2922Y893D01*
X2924Y893D01*
X2924Y891D01*
X2926Y891D01*
X2926Y889D01*
X2928Y889D01*
X2928Y887D01*
X2930Y887D01*
X2930Y885D01*
X2932Y885D01*
X2932Y883D01*
X2934Y883D01*
X2934Y881D01*
X2936Y881D01*
X2936Y877D01*
X2938Y877D01*
X2938Y873D01*
X2940Y873D01*
X2940Y871D01*
X2942Y871D01*
X2942Y865D01*
X2944Y865D01*
X2944Y859D01*
X2946Y859D01*
X2946Y837D01*
X2944Y837D01*
X2944Y831D01*
X2942Y831D01*
X2942Y825D01*
X2940Y825D01*
X2940Y821D01*
X2938Y821D01*
X2938Y819D01*
X2936Y819D01*
X2936Y815D01*
X2934Y815D01*
X2934Y813D01*
X2932Y813D01*
X2932Y811D01*
X2930Y811D01*
X2930Y809D01*
X2928Y809D01*
X2928Y805D01*
X2926Y805D01*
X2926Y803D01*
X2922Y803D01*
X2922Y801D01*
X2920Y801D01*
X2920Y799D01*
X2918Y799D01*
X2918Y797D01*
X2916Y797D01*
X2916Y795D01*
X2912Y795D01*
X2912Y793D01*
X2910Y793D01*
X2910Y791D01*
X2906Y791D01*
X2906Y789D01*
X2900Y789D01*
X2900Y787D01*
X2894Y787D01*
X2894Y785D01*
X3002Y785D01*
X3002Y933D01*
X2714Y933D01*
G37*
D02*
G36*
X2714Y911D02*
X2714Y901D01*
X2716Y901D01*
X2716Y899D01*
X2718Y899D01*
X2718Y897D01*
X2720Y897D01*
X2720Y895D01*
X2722Y895D01*
X2722Y893D01*
X2724Y893D01*
X2724Y891D01*
X2726Y891D01*
X2726Y889D01*
X2728Y889D01*
X2728Y887D01*
X2730Y887D01*
X2730Y885D01*
X2732Y885D01*
X2732Y883D01*
X2734Y883D01*
X2734Y881D01*
X2736Y881D01*
X2736Y877D01*
X2738Y877D01*
X2738Y873D01*
X2740Y873D01*
X2740Y871D01*
X2742Y871D01*
X2742Y865D01*
X2744Y865D01*
X2744Y859D01*
X2746Y859D01*
X2746Y837D01*
X2744Y837D01*
X2744Y831D01*
X2742Y831D01*
X2742Y825D01*
X2740Y825D01*
X2740Y821D01*
X2738Y821D01*
X2738Y819D01*
X2736Y819D01*
X2736Y815D01*
X2734Y815D01*
X2734Y813D01*
X2732Y813D01*
X2732Y811D01*
X2730Y811D01*
X2730Y809D01*
X2728Y809D01*
X2728Y805D01*
X2726Y805D01*
X2726Y803D01*
X2722Y803D01*
X2722Y801D01*
X2720Y801D01*
X2720Y799D01*
X2718Y799D01*
X2718Y797D01*
X2716Y797D01*
X2716Y795D01*
X2712Y795D01*
X2712Y793D01*
X2710Y793D01*
X2710Y791D01*
X2706Y791D01*
X2706Y789D01*
X2700Y789D01*
X2700Y787D01*
X2694Y787D01*
X2694Y785D01*
X2872Y785D01*
X2872Y787D01*
X2866Y787D01*
X2866Y789D01*
X2860Y789D01*
X2860Y791D01*
X2858Y791D01*
X2858Y793D01*
X2854Y793D01*
X2854Y795D01*
X2850Y795D01*
X2850Y797D01*
X2848Y797D01*
X2848Y799D01*
X2846Y799D01*
X2846Y801D01*
X2844Y801D01*
X2844Y803D01*
X2842Y803D01*
X2842Y805D01*
X2840Y805D01*
X2840Y807D01*
X2838Y807D01*
X2838Y809D01*
X2836Y809D01*
X2836Y811D01*
X2834Y811D01*
X2834Y813D01*
X2832Y813D01*
X2832Y815D01*
X2830Y815D01*
X2830Y819D01*
X2828Y819D01*
X2828Y823D01*
X2826Y823D01*
X2826Y827D01*
X2824Y827D01*
X2824Y831D01*
X2822Y831D01*
X2822Y839D01*
X2820Y839D01*
X2820Y857D01*
X2822Y857D01*
X2822Y865D01*
X2824Y865D01*
X2824Y869D01*
X2826Y869D01*
X2826Y873D01*
X2828Y873D01*
X2828Y877D01*
X2830Y877D01*
X2830Y879D01*
X2832Y879D01*
X2832Y883D01*
X2834Y883D01*
X2834Y885D01*
X2836Y885D01*
X2836Y887D01*
X2838Y887D01*
X2838Y889D01*
X2840Y889D01*
X2840Y891D01*
X2842Y891D01*
X2842Y893D01*
X2844Y893D01*
X2844Y895D01*
X2846Y895D01*
X2846Y897D01*
X2848Y897D01*
X2848Y899D01*
X2852Y899D01*
X2852Y901D01*
X2854Y901D01*
X2854Y903D01*
X2858Y903D01*
X2858Y905D01*
X2862Y905D01*
X2862Y907D01*
X2866Y907D01*
X2866Y909D01*
X2874Y909D01*
X2874Y911D01*
X2714Y911D01*
G37*
D02*
G36*
X2312Y785D02*
X2312Y783D01*
X3002Y783D01*
X3002Y785D01*
X2312Y785D01*
G37*
D02*
G36*
X2312Y785D02*
X2312Y783D01*
X3002Y783D01*
X3002Y785D01*
X2312Y785D01*
G37*
D02*
G36*
X2312Y785D02*
X2312Y783D01*
X3002Y783D01*
X3002Y785D01*
X2312Y785D01*
G37*
D02*
G36*
X2312Y783D02*
X2312Y339D01*
X2310Y339D01*
X2310Y335D01*
X2308Y335D01*
X2308Y331D01*
X2306Y331D01*
X2306Y327D01*
X2304Y327D01*
X2304Y325D01*
X2302Y325D01*
X2302Y323D01*
X2300Y323D01*
X2300Y321D01*
X2298Y321D01*
X2298Y319D01*
X2296Y319D01*
X2296Y317D01*
X2294Y317D01*
X2294Y315D01*
X2292Y315D01*
X2292Y313D01*
X2290Y313D01*
X2290Y311D01*
X2288Y311D01*
X2288Y309D01*
X2286Y309D01*
X2286Y307D01*
X2284Y307D01*
X2284Y305D01*
X2282Y305D01*
X2282Y303D01*
X2280Y303D01*
X2280Y301D01*
X2278Y301D01*
X2278Y299D01*
X2276Y299D01*
X2276Y297D01*
X2274Y297D01*
X2274Y295D01*
X2272Y295D01*
X2272Y293D01*
X2270Y293D01*
X2270Y291D01*
X2268Y291D01*
X2268Y289D01*
X2266Y289D01*
X2266Y287D01*
X2264Y287D01*
X2264Y285D01*
X2262Y285D01*
X2262Y283D01*
X2260Y283D01*
X2260Y281D01*
X2258Y281D01*
X2258Y279D01*
X2256Y279D01*
X2256Y277D01*
X2254Y277D01*
X2254Y275D01*
X2252Y275D01*
X2252Y273D01*
X2250Y273D01*
X2250Y271D01*
X2248Y271D01*
X2248Y269D01*
X2246Y269D01*
X2246Y267D01*
X2244Y267D01*
X2244Y265D01*
X2242Y265D01*
X2242Y263D01*
X2240Y263D01*
X2240Y261D01*
X2238Y261D01*
X2238Y259D01*
X2236Y259D01*
X2236Y257D01*
X2234Y257D01*
X2234Y255D01*
X2232Y255D01*
X2232Y253D01*
X2230Y253D01*
X2230Y251D01*
X2228Y251D01*
X2228Y249D01*
X2226Y249D01*
X2226Y247D01*
X2224Y247D01*
X2224Y245D01*
X2222Y245D01*
X2222Y243D01*
X2220Y243D01*
X2220Y241D01*
X2218Y241D01*
X2218Y239D01*
X2216Y239D01*
X2216Y237D01*
X2214Y237D01*
X2214Y235D01*
X2212Y235D01*
X2212Y233D01*
X2210Y233D01*
X2210Y231D01*
X2208Y231D01*
X2208Y229D01*
X2206Y229D01*
X2206Y227D01*
X2204Y227D01*
X2204Y225D01*
X2200Y225D01*
X2200Y223D01*
X2198Y223D01*
X2198Y221D01*
X2192Y221D01*
X2192Y219D01*
X1966Y219D01*
X1966Y199D01*
X1968Y199D01*
X1968Y197D01*
X1970Y197D01*
X1970Y195D01*
X1972Y195D01*
X1972Y193D01*
X1974Y193D01*
X1974Y191D01*
X1976Y191D01*
X1976Y189D01*
X1978Y189D01*
X1978Y187D01*
X2956Y187D01*
X2956Y185D01*
X2966Y185D01*
X2966Y183D01*
X2972Y183D01*
X2972Y181D01*
X2976Y181D01*
X2976Y179D01*
X2980Y179D01*
X2980Y177D01*
X3002Y177D01*
X3002Y783D01*
X2312Y783D01*
G37*
D02*
G36*
X334Y467D02*
X334Y463D01*
X332Y463D01*
X332Y461D01*
X330Y461D01*
X330Y459D01*
X328Y459D01*
X328Y457D01*
X326Y457D01*
X326Y455D01*
X324Y455D01*
X324Y453D01*
X322Y453D01*
X322Y451D01*
X320Y451D01*
X320Y449D01*
X318Y449D01*
X318Y447D01*
X314Y447D01*
X314Y445D01*
X312Y445D01*
X312Y443D01*
X308Y443D01*
X308Y441D01*
X304Y441D01*
X304Y439D01*
X300Y439D01*
X300Y437D01*
X292Y437D01*
X292Y435D01*
X550Y435D01*
X550Y437D01*
X548Y437D01*
X548Y439D01*
X546Y439D01*
X546Y441D01*
X544Y441D01*
X544Y443D01*
X542Y443D01*
X542Y445D01*
X540Y445D01*
X540Y447D01*
X538Y447D01*
X538Y449D01*
X536Y449D01*
X536Y451D01*
X534Y451D01*
X534Y453D01*
X532Y453D01*
X532Y455D01*
X530Y455D01*
X530Y457D01*
X528Y457D01*
X528Y459D01*
X526Y459D01*
X526Y461D01*
X524Y461D01*
X524Y463D01*
X522Y463D01*
X522Y465D01*
X520Y465D01*
X520Y467D01*
X334Y467D01*
G37*
D02*
G36*
X40Y435D02*
X40Y433D01*
X552Y433D01*
X552Y435D01*
X40Y435D01*
G37*
D02*
G36*
X40Y435D02*
X40Y433D01*
X552Y433D01*
X552Y435D01*
X40Y435D01*
G37*
D02*
G36*
X40Y433D02*
X40Y185D01*
X116Y185D01*
X116Y183D01*
X126Y183D01*
X126Y181D01*
X132Y181D01*
X132Y179D01*
X138Y179D01*
X138Y177D01*
X142Y177D01*
X142Y175D01*
X144Y175D01*
X144Y173D01*
X148Y173D01*
X148Y171D01*
X152Y171D01*
X152Y169D01*
X154Y169D01*
X154Y167D01*
X156Y167D01*
X156Y165D01*
X158Y165D01*
X158Y163D01*
X162Y163D01*
X162Y161D01*
X164Y161D01*
X164Y159D01*
X166Y159D01*
X166Y155D01*
X168Y155D01*
X168Y153D01*
X170Y153D01*
X170Y151D01*
X172Y151D01*
X172Y149D01*
X174Y149D01*
X174Y145D01*
X176Y145D01*
X176Y143D01*
X178Y143D01*
X178Y139D01*
X180Y139D01*
X180Y135D01*
X182Y135D01*
X182Y129D01*
X184Y129D01*
X184Y123D01*
X186Y123D01*
X186Y115D01*
X188Y115D01*
X188Y93D01*
X186Y93D01*
X186Y85D01*
X972Y85D01*
X972Y87D01*
X966Y87D01*
X966Y89D01*
X960Y89D01*
X960Y91D01*
X958Y91D01*
X958Y93D01*
X954Y93D01*
X954Y95D01*
X950Y95D01*
X950Y97D01*
X948Y97D01*
X948Y99D01*
X946Y99D01*
X946Y101D01*
X944Y101D01*
X944Y103D01*
X942Y103D01*
X942Y105D01*
X940Y105D01*
X940Y107D01*
X938Y107D01*
X938Y109D01*
X936Y109D01*
X936Y111D01*
X934Y111D01*
X934Y113D01*
X932Y113D01*
X932Y115D01*
X930Y115D01*
X930Y119D01*
X928Y119D01*
X928Y123D01*
X926Y123D01*
X926Y127D01*
X924Y127D01*
X924Y131D01*
X922Y131D01*
X922Y139D01*
X920Y139D01*
X920Y157D01*
X922Y157D01*
X922Y165D01*
X924Y165D01*
X924Y169D01*
X926Y169D01*
X926Y173D01*
X928Y173D01*
X928Y177D01*
X930Y177D01*
X930Y179D01*
X932Y179D01*
X932Y183D01*
X934Y183D01*
X934Y185D01*
X936Y185D01*
X936Y187D01*
X938Y187D01*
X938Y189D01*
X940Y189D01*
X940Y191D01*
X942Y191D01*
X942Y193D01*
X944Y193D01*
X944Y195D01*
X946Y195D01*
X946Y197D01*
X948Y197D01*
X948Y199D01*
X952Y199D01*
X952Y219D01*
X774Y219D01*
X774Y221D01*
X770Y221D01*
X770Y223D01*
X766Y223D01*
X766Y225D01*
X764Y225D01*
X764Y227D01*
X762Y227D01*
X762Y229D01*
X760Y229D01*
X760Y231D01*
X758Y231D01*
X758Y233D01*
X756Y233D01*
X756Y235D01*
X754Y235D01*
X754Y237D01*
X752Y237D01*
X752Y239D01*
X750Y239D01*
X750Y241D01*
X748Y241D01*
X748Y243D01*
X746Y243D01*
X746Y245D01*
X744Y245D01*
X744Y247D01*
X742Y247D01*
X742Y249D01*
X740Y249D01*
X740Y251D01*
X738Y251D01*
X738Y253D01*
X736Y253D01*
X736Y255D01*
X734Y255D01*
X734Y257D01*
X732Y257D01*
X732Y259D01*
X730Y259D01*
X730Y261D01*
X728Y261D01*
X728Y263D01*
X726Y263D01*
X726Y265D01*
X724Y265D01*
X724Y267D01*
X722Y267D01*
X722Y269D01*
X718Y269D01*
X718Y271D01*
X716Y271D01*
X716Y273D01*
X714Y273D01*
X714Y275D01*
X712Y275D01*
X712Y277D01*
X710Y277D01*
X710Y279D01*
X708Y279D01*
X708Y281D01*
X706Y281D01*
X706Y283D01*
X704Y283D01*
X704Y285D01*
X702Y285D01*
X702Y287D01*
X700Y287D01*
X700Y289D01*
X698Y289D01*
X698Y291D01*
X696Y291D01*
X696Y293D01*
X694Y293D01*
X694Y295D01*
X692Y295D01*
X692Y297D01*
X690Y297D01*
X690Y299D01*
X688Y299D01*
X688Y301D01*
X686Y301D01*
X686Y303D01*
X684Y303D01*
X684Y305D01*
X682Y305D01*
X682Y307D01*
X680Y307D01*
X680Y309D01*
X678Y309D01*
X678Y311D01*
X676Y311D01*
X676Y313D01*
X674Y313D01*
X674Y315D01*
X672Y315D01*
X672Y317D01*
X670Y317D01*
X670Y319D01*
X668Y319D01*
X668Y321D01*
X666Y321D01*
X666Y323D01*
X664Y323D01*
X664Y325D01*
X662Y325D01*
X662Y327D01*
X660Y327D01*
X660Y329D01*
X658Y329D01*
X658Y331D01*
X656Y331D01*
X656Y333D01*
X654Y333D01*
X654Y335D01*
X652Y335D01*
X652Y337D01*
X650Y337D01*
X650Y339D01*
X648Y339D01*
X648Y341D01*
X646Y341D01*
X646Y343D01*
X644Y343D01*
X644Y345D01*
X642Y345D01*
X642Y347D01*
X640Y347D01*
X640Y349D01*
X638Y349D01*
X638Y351D01*
X636Y351D01*
X636Y353D01*
X634Y353D01*
X634Y355D01*
X632Y355D01*
X632Y357D01*
X630Y357D01*
X630Y359D01*
X628Y359D01*
X628Y361D01*
X626Y361D01*
X626Y363D01*
X624Y363D01*
X624Y365D01*
X622Y365D01*
X622Y367D01*
X620Y367D01*
X620Y369D01*
X618Y369D01*
X618Y371D01*
X616Y371D01*
X616Y373D01*
X614Y373D01*
X614Y375D01*
X612Y375D01*
X612Y377D01*
X610Y377D01*
X610Y379D01*
X608Y379D01*
X608Y381D01*
X606Y381D01*
X606Y383D01*
X604Y383D01*
X604Y385D01*
X602Y385D01*
X602Y387D01*
X600Y387D01*
X600Y389D01*
X598Y389D01*
X598Y391D01*
X594Y391D01*
X594Y393D01*
X592Y393D01*
X592Y395D01*
X590Y395D01*
X590Y397D01*
X588Y397D01*
X588Y399D01*
X586Y399D01*
X586Y401D01*
X584Y401D01*
X584Y403D01*
X582Y403D01*
X582Y405D01*
X580Y405D01*
X580Y407D01*
X578Y407D01*
X578Y409D01*
X576Y409D01*
X576Y411D01*
X574Y411D01*
X574Y413D01*
X572Y413D01*
X572Y415D01*
X570Y415D01*
X570Y417D01*
X568Y417D01*
X568Y419D01*
X566Y419D01*
X566Y421D01*
X564Y421D01*
X564Y423D01*
X562Y423D01*
X562Y425D01*
X560Y425D01*
X560Y427D01*
X558Y427D01*
X558Y429D01*
X556Y429D01*
X556Y431D01*
X554Y431D01*
X554Y433D01*
X40Y433D01*
G37*
D02*
G36*
X1016Y219D02*
X1016Y199D01*
X1018Y199D01*
X1018Y197D01*
X1020Y197D01*
X1020Y195D01*
X1022Y195D01*
X1022Y193D01*
X1024Y193D01*
X1024Y191D01*
X1026Y191D01*
X1026Y189D01*
X1028Y189D01*
X1028Y187D01*
X1030Y187D01*
X1030Y185D01*
X1032Y185D01*
X1032Y183D01*
X1034Y183D01*
X1034Y181D01*
X1036Y181D01*
X1036Y177D01*
X1038Y177D01*
X1038Y173D01*
X1040Y173D01*
X1040Y171D01*
X1042Y171D01*
X1042Y165D01*
X1044Y165D01*
X1044Y159D01*
X1046Y159D01*
X1046Y137D01*
X1044Y137D01*
X1044Y131D01*
X1042Y131D01*
X1042Y125D01*
X1040Y125D01*
X1040Y121D01*
X1038Y121D01*
X1038Y119D01*
X1036Y119D01*
X1036Y115D01*
X1034Y115D01*
X1034Y113D01*
X1032Y113D01*
X1032Y111D01*
X1030Y111D01*
X1030Y109D01*
X1028Y109D01*
X1028Y105D01*
X1026Y105D01*
X1026Y103D01*
X1022Y103D01*
X1022Y101D01*
X1020Y101D01*
X1020Y99D01*
X1018Y99D01*
X1018Y97D01*
X1016Y97D01*
X1016Y95D01*
X1012Y95D01*
X1012Y93D01*
X1010Y93D01*
X1010Y91D01*
X1006Y91D01*
X1006Y89D01*
X1000Y89D01*
X1000Y87D01*
X994Y87D01*
X994Y85D01*
X1922Y85D01*
X1922Y87D01*
X1916Y87D01*
X1916Y89D01*
X1910Y89D01*
X1910Y91D01*
X1908Y91D01*
X1908Y93D01*
X1904Y93D01*
X1904Y95D01*
X1900Y95D01*
X1900Y97D01*
X1898Y97D01*
X1898Y99D01*
X1896Y99D01*
X1896Y101D01*
X1894Y101D01*
X1894Y103D01*
X1892Y103D01*
X1892Y105D01*
X1890Y105D01*
X1890Y107D01*
X1888Y107D01*
X1888Y109D01*
X1886Y109D01*
X1886Y111D01*
X1884Y111D01*
X1884Y113D01*
X1882Y113D01*
X1882Y115D01*
X1880Y115D01*
X1880Y119D01*
X1878Y119D01*
X1878Y123D01*
X1876Y123D01*
X1876Y127D01*
X1874Y127D01*
X1874Y131D01*
X1872Y131D01*
X1872Y139D01*
X1870Y139D01*
X1870Y157D01*
X1872Y157D01*
X1872Y165D01*
X1874Y165D01*
X1874Y169D01*
X1876Y169D01*
X1876Y173D01*
X1878Y173D01*
X1878Y177D01*
X1880Y177D01*
X1880Y179D01*
X1882Y179D01*
X1882Y183D01*
X1884Y183D01*
X1884Y185D01*
X1886Y185D01*
X1886Y187D01*
X1888Y187D01*
X1888Y189D01*
X1890Y189D01*
X1890Y191D01*
X1892Y191D01*
X1892Y193D01*
X1894Y193D01*
X1894Y195D01*
X1896Y195D01*
X1896Y197D01*
X1898Y197D01*
X1898Y199D01*
X1902Y199D01*
X1902Y219D01*
X1016Y219D01*
G37*
D02*
G36*
X1980Y187D02*
X1980Y185D01*
X1982Y185D01*
X1982Y183D01*
X1984Y183D01*
X1984Y181D01*
X1986Y181D01*
X1986Y177D01*
X1988Y177D01*
X1988Y173D01*
X1990Y173D01*
X1990Y171D01*
X1992Y171D01*
X1992Y165D01*
X1994Y165D01*
X1994Y159D01*
X1996Y159D01*
X1996Y137D01*
X1994Y137D01*
X1994Y131D01*
X1992Y131D01*
X1992Y125D01*
X1990Y125D01*
X1990Y121D01*
X1988Y121D01*
X1988Y119D01*
X1986Y119D01*
X1986Y115D01*
X1984Y115D01*
X1984Y113D01*
X1982Y113D01*
X1982Y111D01*
X1980Y111D01*
X1980Y109D01*
X1978Y109D01*
X1978Y105D01*
X1976Y105D01*
X1976Y103D01*
X1972Y103D01*
X1972Y101D01*
X1970Y101D01*
X1970Y99D01*
X1968Y99D01*
X1968Y97D01*
X1966Y97D01*
X1966Y95D01*
X1962Y95D01*
X1962Y93D01*
X1960Y93D01*
X1960Y91D01*
X1956Y91D01*
X1956Y89D01*
X1950Y89D01*
X1950Y87D01*
X1944Y87D01*
X1944Y85D01*
X2868Y85D01*
X2868Y87D01*
X2866Y87D01*
X2866Y95D01*
X2864Y95D01*
X2864Y117D01*
X2866Y117D01*
X2866Y125D01*
X2868Y125D01*
X2868Y131D01*
X2870Y131D01*
X2870Y137D01*
X2872Y137D01*
X2872Y141D01*
X2874Y141D01*
X2874Y145D01*
X2876Y145D01*
X2876Y147D01*
X2878Y147D01*
X2878Y151D01*
X2880Y151D01*
X2880Y153D01*
X2882Y153D01*
X2882Y157D01*
X2884Y157D01*
X2884Y159D01*
X2886Y159D01*
X2886Y161D01*
X2888Y161D01*
X2888Y163D01*
X2890Y163D01*
X2890Y165D01*
X2892Y165D01*
X2892Y167D01*
X2894Y167D01*
X2894Y169D01*
X2898Y169D01*
X2898Y171D01*
X2900Y171D01*
X2900Y173D01*
X2904Y173D01*
X2904Y175D01*
X2906Y175D01*
X2906Y177D01*
X2910Y177D01*
X2910Y179D01*
X2914Y179D01*
X2914Y181D01*
X2918Y181D01*
X2918Y183D01*
X2924Y183D01*
X2924Y185D01*
X2934Y185D01*
X2934Y187D01*
X1980Y187D01*
G37*
D02*
G36*
X40Y185D02*
X40Y167D01*
X60Y167D01*
X60Y169D01*
X62Y169D01*
X62Y171D01*
X66Y171D01*
X66Y173D01*
X68Y173D01*
X68Y175D01*
X72Y175D01*
X72Y177D01*
X76Y177D01*
X76Y179D01*
X82Y179D01*
X82Y181D01*
X88Y181D01*
X88Y183D01*
X98Y183D01*
X98Y185D01*
X40Y185D01*
G37*
D02*
G36*
X186Y85D02*
X186Y83D01*
X2868Y83D01*
X2868Y85D01*
X186Y85D01*
G37*
D02*
G36*
X186Y85D02*
X186Y83D01*
X2868Y83D01*
X2868Y85D01*
X186Y85D01*
G37*
D02*
G36*
X186Y85D02*
X186Y83D01*
X2868Y83D01*
X2868Y85D01*
X186Y85D01*
G37*
D02*
G36*
X184Y83D02*
X184Y77D01*
X182Y77D01*
X182Y73D01*
X180Y73D01*
X180Y69D01*
X178Y69D01*
X178Y65D01*
X176Y65D01*
X176Y61D01*
X174Y61D01*
X174Y41D01*
X2880Y41D01*
X2880Y61D01*
X2878Y61D01*
X2878Y65D01*
X2876Y65D01*
X2876Y67D01*
X2874Y67D01*
X2874Y71D01*
X2872Y71D01*
X2872Y75D01*
X2870Y75D01*
X2870Y81D01*
X2868Y81D01*
X2868Y83D01*
X184Y83D01*
G37*
D02*
G36*
X680Y1169D02*
X680Y1167D01*
X644Y1167D01*
X644Y1165D01*
X642Y1165D01*
X642Y1163D01*
X640Y1163D01*
X640Y1161D01*
X638Y1161D01*
X638Y1159D01*
X636Y1159D01*
X636Y1157D01*
X634Y1157D01*
X634Y1155D01*
X632Y1155D01*
X632Y1153D01*
X630Y1153D01*
X630Y1151D01*
X628Y1151D01*
X628Y1149D01*
X626Y1149D01*
X626Y1147D01*
X624Y1147D01*
X624Y1145D01*
X622Y1145D01*
X622Y1143D01*
X620Y1143D01*
X620Y1141D01*
X618Y1141D01*
X618Y1139D01*
X616Y1139D01*
X616Y1137D01*
X614Y1137D01*
X614Y1135D01*
X612Y1135D01*
X612Y1133D01*
X610Y1133D01*
X610Y1131D01*
X608Y1131D01*
X608Y1129D01*
X606Y1129D01*
X606Y1127D01*
X604Y1127D01*
X604Y1125D01*
X602Y1125D01*
X602Y1123D01*
X600Y1123D01*
X600Y1121D01*
X598Y1121D01*
X598Y1119D01*
X596Y1119D01*
X596Y1117D01*
X594Y1117D01*
X594Y1115D01*
X592Y1115D01*
X592Y1113D01*
X590Y1113D01*
X590Y1111D01*
X588Y1111D01*
X588Y1109D01*
X586Y1109D01*
X586Y1107D01*
X584Y1107D01*
X584Y1105D01*
X582Y1105D01*
X582Y1103D01*
X580Y1103D01*
X580Y1101D01*
X578Y1101D01*
X578Y1099D01*
X576Y1099D01*
X576Y1097D01*
X574Y1097D01*
X574Y1095D01*
X572Y1095D01*
X572Y1093D01*
X570Y1093D01*
X570Y1091D01*
X568Y1091D01*
X568Y1089D01*
X566Y1089D01*
X566Y1087D01*
X564Y1087D01*
X564Y1085D01*
X562Y1085D01*
X562Y1083D01*
X560Y1083D01*
X560Y1081D01*
X558Y1081D01*
X558Y1079D01*
X556Y1079D01*
X556Y1077D01*
X554Y1077D01*
X554Y1075D01*
X552Y1075D01*
X552Y1073D01*
X550Y1073D01*
X550Y1071D01*
X548Y1071D01*
X548Y1069D01*
X546Y1069D01*
X546Y1067D01*
X544Y1067D01*
X544Y1065D01*
X542Y1065D01*
X542Y1063D01*
X540Y1063D01*
X540Y1061D01*
X1342Y1061D01*
X1342Y1059D01*
X1350Y1059D01*
X1350Y1057D01*
X1354Y1057D01*
X1354Y1055D01*
X1358Y1055D01*
X1358Y1053D01*
X1362Y1053D01*
X1362Y1051D01*
X1366Y1051D01*
X1366Y1049D01*
X1368Y1049D01*
X1368Y1047D01*
X1370Y1047D01*
X1370Y1045D01*
X1372Y1045D01*
X1372Y1043D01*
X1394Y1043D01*
X1394Y1045D01*
X1396Y1045D01*
X1396Y1047D01*
X1398Y1047D01*
X1398Y1049D01*
X1402Y1049D01*
X1402Y1169D01*
X680Y1169D01*
G37*
D02*
G36*
X538Y1061D02*
X538Y1059D01*
X536Y1059D01*
X536Y1057D01*
X534Y1057D01*
X534Y1055D01*
X532Y1055D01*
X532Y1049D01*
X552Y1049D01*
X552Y1051D01*
X554Y1051D01*
X554Y1053D01*
X558Y1053D01*
X558Y1055D01*
X562Y1055D01*
X562Y1057D01*
X566Y1057D01*
X566Y1059D01*
X574Y1059D01*
X574Y1061D01*
X538Y1061D01*
G37*
D02*
G36*
X592Y1061D02*
X592Y1059D01*
X600Y1059D01*
X600Y1057D01*
X604Y1057D01*
X604Y1055D01*
X608Y1055D01*
X608Y1053D01*
X612Y1053D01*
X612Y1051D01*
X616Y1051D01*
X616Y1049D01*
X618Y1049D01*
X618Y1047D01*
X620Y1047D01*
X620Y1045D01*
X622Y1045D01*
X622Y1043D01*
X644Y1043D01*
X644Y1045D01*
X646Y1045D01*
X646Y1047D01*
X648Y1047D01*
X648Y1049D01*
X652Y1049D01*
X652Y1051D01*
X654Y1051D01*
X654Y1053D01*
X658Y1053D01*
X658Y1055D01*
X662Y1055D01*
X662Y1057D01*
X666Y1057D01*
X666Y1059D01*
X674Y1059D01*
X674Y1061D01*
X592Y1061D01*
G37*
D02*
G36*
X692Y1061D02*
X692Y1059D01*
X700Y1059D01*
X700Y1057D01*
X704Y1057D01*
X704Y1055D01*
X708Y1055D01*
X708Y1053D01*
X712Y1053D01*
X712Y1051D01*
X716Y1051D01*
X716Y1049D01*
X718Y1049D01*
X718Y1047D01*
X720Y1047D01*
X720Y1045D01*
X722Y1045D01*
X722Y1043D01*
X744Y1043D01*
X744Y1045D01*
X746Y1045D01*
X746Y1047D01*
X748Y1047D01*
X748Y1049D01*
X752Y1049D01*
X752Y1051D01*
X754Y1051D01*
X754Y1053D01*
X758Y1053D01*
X758Y1055D01*
X762Y1055D01*
X762Y1057D01*
X766Y1057D01*
X766Y1059D01*
X774Y1059D01*
X774Y1061D01*
X692Y1061D01*
G37*
D02*
G36*
X792Y1061D02*
X792Y1059D01*
X800Y1059D01*
X800Y1057D01*
X804Y1057D01*
X804Y1055D01*
X808Y1055D01*
X808Y1053D01*
X812Y1053D01*
X812Y1051D01*
X816Y1051D01*
X816Y1049D01*
X818Y1049D01*
X818Y1047D01*
X820Y1047D01*
X820Y1045D01*
X822Y1045D01*
X822Y1043D01*
X844Y1043D01*
X844Y1045D01*
X846Y1045D01*
X846Y1047D01*
X848Y1047D01*
X848Y1049D01*
X852Y1049D01*
X852Y1051D01*
X854Y1051D01*
X854Y1053D01*
X858Y1053D01*
X858Y1055D01*
X862Y1055D01*
X862Y1057D01*
X866Y1057D01*
X866Y1059D01*
X874Y1059D01*
X874Y1061D01*
X792Y1061D01*
G37*
D02*
G36*
X892Y1061D02*
X892Y1059D01*
X900Y1059D01*
X900Y1057D01*
X904Y1057D01*
X904Y1055D01*
X908Y1055D01*
X908Y1053D01*
X912Y1053D01*
X912Y1051D01*
X916Y1051D01*
X916Y1049D01*
X918Y1049D01*
X918Y1047D01*
X920Y1047D01*
X920Y1045D01*
X922Y1045D01*
X922Y1043D01*
X944Y1043D01*
X944Y1045D01*
X946Y1045D01*
X946Y1047D01*
X948Y1047D01*
X948Y1049D01*
X952Y1049D01*
X952Y1051D01*
X954Y1051D01*
X954Y1053D01*
X958Y1053D01*
X958Y1055D01*
X962Y1055D01*
X962Y1057D01*
X966Y1057D01*
X966Y1059D01*
X974Y1059D01*
X974Y1061D01*
X892Y1061D01*
G37*
D02*
G36*
X992Y1061D02*
X992Y1059D01*
X1000Y1059D01*
X1000Y1057D01*
X1004Y1057D01*
X1004Y1055D01*
X1008Y1055D01*
X1008Y1053D01*
X1012Y1053D01*
X1012Y1051D01*
X1016Y1051D01*
X1016Y1049D01*
X1018Y1049D01*
X1018Y1047D01*
X1020Y1047D01*
X1020Y1045D01*
X1022Y1045D01*
X1022Y1043D01*
X1024Y1043D01*
X1024Y1041D01*
X1026Y1041D01*
X1026Y1039D01*
X1028Y1039D01*
X1028Y1037D01*
X1030Y1037D01*
X1030Y1035D01*
X1032Y1035D01*
X1032Y1033D01*
X1034Y1033D01*
X1034Y1031D01*
X1036Y1031D01*
X1036Y1027D01*
X1038Y1027D01*
X1038Y1023D01*
X1040Y1023D01*
X1040Y1021D01*
X1042Y1021D01*
X1042Y1015D01*
X1044Y1015D01*
X1044Y1009D01*
X1046Y1009D01*
X1046Y987D01*
X1044Y987D01*
X1044Y981D01*
X1042Y981D01*
X1042Y975D01*
X1040Y975D01*
X1040Y971D01*
X1038Y971D01*
X1038Y969D01*
X1036Y969D01*
X1036Y965D01*
X1034Y965D01*
X1034Y963D01*
X1032Y963D01*
X1032Y961D01*
X1030Y961D01*
X1030Y959D01*
X1028Y959D01*
X1028Y955D01*
X1026Y955D01*
X1026Y953D01*
X1022Y953D01*
X1022Y951D01*
X1020Y951D01*
X1020Y949D01*
X1018Y949D01*
X1018Y947D01*
X1016Y947D01*
X1016Y945D01*
X1012Y945D01*
X1012Y943D01*
X1010Y943D01*
X1010Y941D01*
X1006Y941D01*
X1006Y939D01*
X1000Y939D01*
X1000Y937D01*
X994Y937D01*
X994Y935D01*
X1170Y935D01*
X1170Y1061D01*
X992Y1061D01*
G37*
D02*
G36*
X1296Y1061D02*
X1296Y1057D01*
X1316Y1057D01*
X1316Y1059D01*
X1324Y1059D01*
X1324Y1061D01*
X1296Y1061D01*
G37*
D02*
G36*
X822Y953D02*
X822Y951D01*
X820Y951D01*
X820Y949D01*
X818Y949D01*
X818Y947D01*
X816Y947D01*
X816Y945D01*
X814Y945D01*
X814Y935D01*
X872Y935D01*
X872Y937D01*
X866Y937D01*
X866Y939D01*
X860Y939D01*
X860Y941D01*
X858Y941D01*
X858Y943D01*
X854Y943D01*
X854Y945D01*
X850Y945D01*
X850Y947D01*
X848Y947D01*
X848Y949D01*
X846Y949D01*
X846Y951D01*
X844Y951D01*
X844Y953D01*
X822Y953D01*
G37*
D02*
G36*
X922Y953D02*
X922Y951D01*
X920Y951D01*
X920Y949D01*
X918Y949D01*
X918Y947D01*
X916Y947D01*
X916Y945D01*
X912Y945D01*
X912Y943D01*
X910Y943D01*
X910Y941D01*
X906Y941D01*
X906Y939D01*
X900Y939D01*
X900Y937D01*
X894Y937D01*
X894Y935D01*
X972Y935D01*
X972Y937D01*
X966Y937D01*
X966Y939D01*
X960Y939D01*
X960Y941D01*
X958Y941D01*
X958Y943D01*
X954Y943D01*
X954Y945D01*
X950Y945D01*
X950Y947D01*
X948Y947D01*
X948Y949D01*
X946Y949D01*
X946Y951D01*
X944Y951D01*
X944Y953D01*
X922Y953D01*
G37*
D02*
G36*
X814Y935D02*
X814Y933D01*
X1202Y933D01*
X1202Y935D01*
X814Y935D01*
G37*
D02*
G36*
X814Y935D02*
X814Y933D01*
X1202Y933D01*
X1202Y935D01*
X814Y935D01*
G37*
D02*
G36*
X814Y935D02*
X814Y933D01*
X1202Y933D01*
X1202Y935D01*
X814Y935D01*
G37*
D02*
G36*
X814Y933D02*
X814Y911D01*
X992Y911D01*
X992Y909D01*
X1000Y909D01*
X1000Y907D01*
X1004Y907D01*
X1004Y905D01*
X1008Y905D01*
X1008Y903D01*
X1012Y903D01*
X1012Y901D01*
X1016Y901D01*
X1016Y899D01*
X1018Y899D01*
X1018Y897D01*
X1020Y897D01*
X1020Y895D01*
X1022Y895D01*
X1022Y893D01*
X1024Y893D01*
X1024Y891D01*
X1026Y891D01*
X1026Y889D01*
X1028Y889D01*
X1028Y887D01*
X1030Y887D01*
X1030Y885D01*
X1032Y885D01*
X1032Y883D01*
X1034Y883D01*
X1034Y881D01*
X1036Y881D01*
X1036Y877D01*
X1038Y877D01*
X1038Y873D01*
X1040Y873D01*
X1040Y871D01*
X1042Y871D01*
X1042Y865D01*
X1044Y865D01*
X1044Y859D01*
X1046Y859D01*
X1046Y837D01*
X1044Y837D01*
X1044Y831D01*
X1042Y831D01*
X1042Y825D01*
X1040Y825D01*
X1040Y821D01*
X1038Y821D01*
X1038Y819D01*
X1036Y819D01*
X1036Y815D01*
X1034Y815D01*
X1034Y813D01*
X1032Y813D01*
X1032Y811D01*
X1030Y811D01*
X1030Y809D01*
X1028Y809D01*
X1028Y805D01*
X1026Y805D01*
X1026Y803D01*
X1022Y803D01*
X1022Y801D01*
X1020Y801D01*
X1020Y799D01*
X1018Y799D01*
X1018Y797D01*
X1016Y797D01*
X1016Y795D01*
X1012Y795D01*
X1012Y793D01*
X1010Y793D01*
X1010Y791D01*
X1006Y791D01*
X1006Y789D01*
X1000Y789D01*
X1000Y787D01*
X994Y787D01*
X994Y785D01*
X1300Y785D01*
X1300Y787D01*
X1298Y787D01*
X1298Y789D01*
X1296Y789D01*
X1296Y791D01*
X1294Y791D01*
X1294Y793D01*
X1292Y793D01*
X1292Y795D01*
X1290Y795D01*
X1290Y797D01*
X1288Y797D01*
X1288Y799D01*
X1286Y799D01*
X1286Y801D01*
X1284Y801D01*
X1284Y803D01*
X1282Y803D01*
X1282Y805D01*
X1280Y805D01*
X1280Y807D01*
X1278Y807D01*
X1278Y809D01*
X1276Y809D01*
X1276Y811D01*
X1274Y811D01*
X1274Y813D01*
X1272Y813D01*
X1272Y815D01*
X1270Y815D01*
X1270Y817D01*
X1268Y817D01*
X1268Y819D01*
X1266Y819D01*
X1266Y821D01*
X1264Y821D01*
X1264Y823D01*
X1262Y823D01*
X1262Y825D01*
X1260Y825D01*
X1260Y827D01*
X1258Y827D01*
X1258Y829D01*
X1256Y829D01*
X1256Y831D01*
X1254Y831D01*
X1254Y833D01*
X1252Y833D01*
X1252Y835D01*
X1250Y835D01*
X1250Y837D01*
X1248Y837D01*
X1248Y839D01*
X1246Y839D01*
X1246Y841D01*
X1244Y841D01*
X1244Y843D01*
X1242Y843D01*
X1242Y845D01*
X1240Y845D01*
X1240Y847D01*
X1238Y847D01*
X1238Y849D01*
X1236Y849D01*
X1236Y851D01*
X1234Y851D01*
X1234Y853D01*
X1232Y853D01*
X1232Y855D01*
X1230Y855D01*
X1230Y857D01*
X1228Y857D01*
X1228Y859D01*
X1226Y859D01*
X1226Y861D01*
X1224Y861D01*
X1224Y863D01*
X1222Y863D01*
X1222Y865D01*
X1220Y865D01*
X1220Y867D01*
X1218Y867D01*
X1218Y869D01*
X1216Y869D01*
X1216Y871D01*
X1214Y871D01*
X1214Y873D01*
X1212Y873D01*
X1212Y875D01*
X1210Y875D01*
X1210Y877D01*
X1208Y877D01*
X1208Y881D01*
X1206Y881D01*
X1206Y883D01*
X1204Y883D01*
X1204Y889D01*
X1202Y889D01*
X1202Y933D01*
X814Y933D01*
G37*
D02*
G36*
X814Y911D02*
X814Y901D01*
X816Y901D01*
X816Y899D01*
X818Y899D01*
X818Y897D01*
X820Y897D01*
X820Y895D01*
X822Y895D01*
X822Y893D01*
X824Y893D01*
X824Y891D01*
X826Y891D01*
X826Y889D01*
X828Y889D01*
X828Y887D01*
X830Y887D01*
X830Y885D01*
X832Y885D01*
X832Y883D01*
X834Y883D01*
X834Y881D01*
X836Y881D01*
X836Y877D01*
X838Y877D01*
X838Y873D01*
X840Y873D01*
X840Y871D01*
X842Y871D01*
X842Y865D01*
X844Y865D01*
X844Y859D01*
X846Y859D01*
X846Y837D01*
X844Y837D01*
X844Y831D01*
X842Y831D01*
X842Y825D01*
X840Y825D01*
X840Y821D01*
X838Y821D01*
X838Y819D01*
X836Y819D01*
X836Y815D01*
X834Y815D01*
X834Y813D01*
X832Y813D01*
X832Y811D01*
X830Y811D01*
X830Y809D01*
X828Y809D01*
X828Y805D01*
X826Y805D01*
X826Y803D01*
X822Y803D01*
X822Y801D01*
X820Y801D01*
X820Y799D01*
X818Y799D01*
X818Y797D01*
X816Y797D01*
X816Y795D01*
X812Y795D01*
X812Y793D01*
X810Y793D01*
X810Y791D01*
X806Y791D01*
X806Y789D01*
X800Y789D01*
X800Y787D01*
X794Y787D01*
X794Y785D01*
X972Y785D01*
X972Y787D01*
X966Y787D01*
X966Y789D01*
X960Y789D01*
X960Y791D01*
X958Y791D01*
X958Y793D01*
X954Y793D01*
X954Y795D01*
X950Y795D01*
X950Y797D01*
X948Y797D01*
X948Y799D01*
X946Y799D01*
X946Y801D01*
X944Y801D01*
X944Y803D01*
X942Y803D01*
X942Y805D01*
X940Y805D01*
X940Y807D01*
X938Y807D01*
X938Y809D01*
X936Y809D01*
X936Y811D01*
X934Y811D01*
X934Y813D01*
X932Y813D01*
X932Y815D01*
X930Y815D01*
X930Y819D01*
X928Y819D01*
X928Y823D01*
X926Y823D01*
X926Y827D01*
X924Y827D01*
X924Y831D01*
X922Y831D01*
X922Y839D01*
X920Y839D01*
X920Y857D01*
X922Y857D01*
X922Y865D01*
X924Y865D01*
X924Y869D01*
X926Y869D01*
X926Y873D01*
X928Y873D01*
X928Y877D01*
X930Y877D01*
X930Y879D01*
X932Y879D01*
X932Y883D01*
X934Y883D01*
X934Y885D01*
X936Y885D01*
X936Y887D01*
X938Y887D01*
X938Y889D01*
X940Y889D01*
X940Y891D01*
X942Y891D01*
X942Y893D01*
X944Y893D01*
X944Y895D01*
X946Y895D01*
X946Y897D01*
X948Y897D01*
X948Y899D01*
X952Y899D01*
X952Y901D01*
X954Y901D01*
X954Y903D01*
X958Y903D01*
X958Y905D01*
X962Y905D01*
X962Y907D01*
X966Y907D01*
X966Y909D01*
X974Y909D01*
X974Y911D01*
X814Y911D01*
G37*
D02*
G36*
X612Y815D02*
X612Y811D01*
X614Y811D01*
X614Y809D01*
X616Y809D01*
X616Y807D01*
X618Y807D01*
X618Y805D01*
X620Y805D01*
X620Y803D01*
X622Y803D01*
X622Y801D01*
X624Y801D01*
X624Y799D01*
X626Y799D01*
X626Y797D01*
X628Y797D01*
X628Y795D01*
X630Y795D01*
X630Y793D01*
X632Y793D01*
X632Y791D01*
X634Y791D01*
X634Y789D01*
X636Y789D01*
X636Y787D01*
X638Y787D01*
X638Y785D01*
X672Y785D01*
X672Y787D01*
X666Y787D01*
X666Y789D01*
X660Y789D01*
X660Y791D01*
X658Y791D01*
X658Y793D01*
X654Y793D01*
X654Y795D01*
X650Y795D01*
X650Y797D01*
X648Y797D01*
X648Y799D01*
X646Y799D01*
X646Y801D01*
X644Y801D01*
X644Y803D01*
X642Y803D01*
X642Y805D01*
X640Y805D01*
X640Y807D01*
X638Y807D01*
X638Y809D01*
X636Y809D01*
X636Y811D01*
X634Y811D01*
X634Y813D01*
X632Y813D01*
X632Y815D01*
X612Y815D01*
G37*
D02*
G36*
X722Y803D02*
X722Y801D01*
X720Y801D01*
X720Y799D01*
X718Y799D01*
X718Y797D01*
X716Y797D01*
X716Y795D01*
X712Y795D01*
X712Y793D01*
X710Y793D01*
X710Y791D01*
X706Y791D01*
X706Y789D01*
X700Y789D01*
X700Y787D01*
X694Y787D01*
X694Y785D01*
X772Y785D01*
X772Y787D01*
X766Y787D01*
X766Y789D01*
X760Y789D01*
X760Y791D01*
X758Y791D01*
X758Y793D01*
X754Y793D01*
X754Y795D01*
X750Y795D01*
X750Y797D01*
X748Y797D01*
X748Y799D01*
X746Y799D01*
X746Y801D01*
X744Y801D01*
X744Y803D01*
X722Y803D01*
G37*
D02*
G36*
X640Y785D02*
X640Y783D01*
X1302Y783D01*
X1302Y785D01*
X640Y785D01*
G37*
D02*
G36*
X640Y785D02*
X640Y783D01*
X1302Y783D01*
X1302Y785D01*
X640Y785D01*
G37*
D02*
G36*
X640Y785D02*
X640Y783D01*
X1302Y783D01*
X1302Y785D01*
X640Y785D01*
G37*
D02*
G36*
X640Y785D02*
X640Y783D01*
X1302Y783D01*
X1302Y785D01*
X640Y785D01*
G37*
D02*
G36*
X642Y783D02*
X642Y781D01*
X644Y781D01*
X644Y779D01*
X646Y779D01*
X646Y777D01*
X648Y777D01*
X648Y775D01*
X650Y775D01*
X650Y773D01*
X652Y773D01*
X652Y771D01*
X654Y771D01*
X654Y769D01*
X656Y769D01*
X656Y767D01*
X658Y767D01*
X658Y765D01*
X660Y765D01*
X660Y763D01*
X662Y763D01*
X662Y761D01*
X664Y761D01*
X664Y759D01*
X666Y759D01*
X666Y757D01*
X668Y757D01*
X668Y755D01*
X670Y755D01*
X670Y753D01*
X672Y753D01*
X672Y751D01*
X674Y751D01*
X674Y749D01*
X676Y749D01*
X676Y747D01*
X678Y747D01*
X678Y745D01*
X680Y745D01*
X680Y743D01*
X682Y743D01*
X682Y741D01*
X684Y741D01*
X684Y739D01*
X686Y739D01*
X686Y737D01*
X688Y737D01*
X688Y735D01*
X690Y735D01*
X690Y733D01*
X692Y733D01*
X692Y731D01*
X694Y731D01*
X694Y729D01*
X696Y729D01*
X696Y727D01*
X698Y727D01*
X698Y725D01*
X700Y725D01*
X700Y723D01*
X702Y723D01*
X702Y721D01*
X704Y721D01*
X704Y719D01*
X706Y719D01*
X706Y717D01*
X708Y717D01*
X708Y715D01*
X710Y715D01*
X710Y713D01*
X712Y713D01*
X712Y711D01*
X714Y711D01*
X714Y709D01*
X716Y709D01*
X716Y707D01*
X718Y707D01*
X718Y705D01*
X720Y705D01*
X720Y703D01*
X722Y703D01*
X722Y701D01*
X724Y701D01*
X724Y699D01*
X726Y699D01*
X726Y697D01*
X728Y697D01*
X728Y695D01*
X730Y695D01*
X730Y693D01*
X732Y693D01*
X732Y691D01*
X734Y691D01*
X734Y689D01*
X736Y689D01*
X736Y687D01*
X738Y687D01*
X738Y685D01*
X740Y685D01*
X740Y683D01*
X742Y683D01*
X742Y681D01*
X744Y681D01*
X744Y679D01*
X746Y679D01*
X746Y677D01*
X748Y677D01*
X748Y675D01*
X750Y675D01*
X750Y673D01*
X752Y673D01*
X752Y671D01*
X754Y671D01*
X754Y669D01*
X756Y669D01*
X756Y667D01*
X758Y667D01*
X758Y665D01*
X760Y665D01*
X760Y663D01*
X762Y663D01*
X762Y661D01*
X764Y661D01*
X764Y659D01*
X766Y659D01*
X766Y657D01*
X768Y657D01*
X768Y655D01*
X770Y655D01*
X770Y653D01*
X772Y653D01*
X772Y651D01*
X774Y651D01*
X774Y649D01*
X776Y649D01*
X776Y647D01*
X778Y647D01*
X778Y645D01*
X780Y645D01*
X780Y643D01*
X782Y643D01*
X782Y641D01*
X784Y641D01*
X784Y639D01*
X786Y639D01*
X786Y637D01*
X788Y637D01*
X788Y635D01*
X790Y635D01*
X790Y633D01*
X792Y633D01*
X792Y631D01*
X794Y631D01*
X794Y629D01*
X796Y629D01*
X796Y627D01*
X798Y627D01*
X798Y625D01*
X800Y625D01*
X800Y623D01*
X802Y623D01*
X802Y621D01*
X804Y621D01*
X804Y619D01*
X806Y619D01*
X806Y617D01*
X808Y617D01*
X808Y615D01*
X810Y615D01*
X810Y613D01*
X812Y613D01*
X812Y611D01*
X814Y611D01*
X814Y609D01*
X816Y609D01*
X816Y607D01*
X818Y607D01*
X818Y605D01*
X820Y605D01*
X820Y603D01*
X822Y603D01*
X822Y601D01*
X824Y601D01*
X824Y599D01*
X826Y599D01*
X826Y597D01*
X828Y597D01*
X828Y595D01*
X830Y595D01*
X830Y593D01*
X832Y593D01*
X832Y591D01*
X834Y591D01*
X834Y589D01*
X836Y589D01*
X836Y587D01*
X838Y587D01*
X838Y585D01*
X840Y585D01*
X840Y583D01*
X842Y583D01*
X842Y581D01*
X844Y581D01*
X844Y579D01*
X846Y579D01*
X846Y577D01*
X848Y577D01*
X848Y575D01*
X850Y575D01*
X850Y573D01*
X852Y573D01*
X852Y571D01*
X854Y571D01*
X854Y569D01*
X856Y569D01*
X856Y567D01*
X858Y567D01*
X858Y565D01*
X860Y565D01*
X860Y563D01*
X862Y563D01*
X862Y561D01*
X864Y561D01*
X864Y559D01*
X866Y559D01*
X866Y557D01*
X868Y557D01*
X868Y555D01*
X870Y555D01*
X870Y553D01*
X872Y553D01*
X872Y551D01*
X874Y551D01*
X874Y549D01*
X876Y549D01*
X876Y547D01*
X878Y547D01*
X878Y545D01*
X880Y545D01*
X880Y543D01*
X882Y543D01*
X882Y541D01*
X884Y541D01*
X884Y539D01*
X886Y539D01*
X886Y537D01*
X888Y537D01*
X888Y535D01*
X890Y535D01*
X890Y533D01*
X892Y533D01*
X892Y531D01*
X894Y531D01*
X894Y529D01*
X896Y529D01*
X896Y527D01*
X898Y527D01*
X898Y525D01*
X900Y525D01*
X900Y523D01*
X902Y523D01*
X902Y521D01*
X904Y521D01*
X904Y519D01*
X906Y519D01*
X906Y517D01*
X908Y517D01*
X908Y515D01*
X910Y515D01*
X910Y513D01*
X912Y513D01*
X912Y511D01*
X914Y511D01*
X914Y509D01*
X916Y509D01*
X916Y507D01*
X918Y507D01*
X918Y505D01*
X920Y505D01*
X920Y503D01*
X922Y503D01*
X922Y501D01*
X924Y501D01*
X924Y499D01*
X926Y499D01*
X926Y497D01*
X928Y497D01*
X928Y495D01*
X930Y495D01*
X930Y493D01*
X932Y493D01*
X932Y491D01*
X934Y491D01*
X934Y489D01*
X936Y489D01*
X936Y487D01*
X938Y487D01*
X938Y485D01*
X940Y485D01*
X940Y483D01*
X942Y483D01*
X942Y481D01*
X944Y481D01*
X944Y479D01*
X1440Y479D01*
X1440Y477D01*
X1738Y477D01*
X1738Y479D01*
X1740Y479D01*
X1740Y481D01*
X1742Y481D01*
X1742Y483D01*
X1744Y483D01*
X1744Y485D01*
X1746Y485D01*
X1746Y487D01*
X1748Y487D01*
X1748Y509D01*
X1746Y509D01*
X1746Y511D01*
X1744Y511D01*
X1744Y513D01*
X1742Y513D01*
X1742Y515D01*
X1740Y515D01*
X1740Y517D01*
X1738Y517D01*
X1738Y519D01*
X1576Y519D01*
X1576Y521D01*
X1570Y521D01*
X1570Y523D01*
X1566Y523D01*
X1566Y525D01*
X1564Y525D01*
X1564Y527D01*
X1562Y527D01*
X1562Y529D01*
X1560Y529D01*
X1560Y531D01*
X1558Y531D01*
X1558Y533D01*
X1556Y533D01*
X1556Y535D01*
X1552Y535D01*
X1552Y537D01*
X1550Y537D01*
X1550Y539D01*
X1548Y539D01*
X1548Y541D01*
X1546Y541D01*
X1546Y543D01*
X1544Y543D01*
X1544Y545D01*
X1542Y545D01*
X1542Y547D01*
X1540Y547D01*
X1540Y549D01*
X1538Y549D01*
X1538Y551D01*
X1536Y551D01*
X1536Y553D01*
X1534Y553D01*
X1534Y555D01*
X1532Y555D01*
X1532Y557D01*
X1530Y557D01*
X1530Y559D01*
X1528Y559D01*
X1528Y561D01*
X1526Y561D01*
X1526Y563D01*
X1524Y563D01*
X1524Y565D01*
X1522Y565D01*
X1522Y567D01*
X1520Y567D01*
X1520Y569D01*
X1518Y569D01*
X1518Y571D01*
X1516Y571D01*
X1516Y573D01*
X1514Y573D01*
X1514Y575D01*
X1512Y575D01*
X1512Y577D01*
X1510Y577D01*
X1510Y579D01*
X1508Y579D01*
X1508Y581D01*
X1506Y581D01*
X1506Y583D01*
X1504Y583D01*
X1504Y585D01*
X1502Y585D01*
X1502Y587D01*
X1500Y587D01*
X1500Y589D01*
X1498Y589D01*
X1498Y591D01*
X1496Y591D01*
X1496Y593D01*
X1494Y593D01*
X1494Y595D01*
X1492Y595D01*
X1492Y597D01*
X1490Y597D01*
X1490Y599D01*
X1488Y599D01*
X1488Y601D01*
X1486Y601D01*
X1486Y603D01*
X1484Y603D01*
X1484Y605D01*
X1482Y605D01*
X1482Y607D01*
X1480Y607D01*
X1480Y609D01*
X1478Y609D01*
X1478Y611D01*
X1476Y611D01*
X1476Y613D01*
X1474Y613D01*
X1474Y615D01*
X1472Y615D01*
X1472Y617D01*
X1470Y617D01*
X1470Y619D01*
X1468Y619D01*
X1468Y621D01*
X1466Y621D01*
X1466Y623D01*
X1464Y623D01*
X1464Y625D01*
X1462Y625D01*
X1462Y627D01*
X1460Y627D01*
X1460Y629D01*
X1458Y629D01*
X1458Y631D01*
X1456Y631D01*
X1456Y633D01*
X1454Y633D01*
X1454Y635D01*
X1452Y635D01*
X1452Y637D01*
X1450Y637D01*
X1450Y639D01*
X1448Y639D01*
X1448Y641D01*
X1446Y641D01*
X1446Y643D01*
X1444Y643D01*
X1444Y645D01*
X1442Y645D01*
X1442Y647D01*
X1440Y647D01*
X1440Y649D01*
X1438Y649D01*
X1438Y651D01*
X1436Y651D01*
X1436Y653D01*
X1434Y653D01*
X1434Y655D01*
X1432Y655D01*
X1432Y657D01*
X1430Y657D01*
X1430Y659D01*
X1428Y659D01*
X1428Y661D01*
X1426Y661D01*
X1426Y663D01*
X1424Y663D01*
X1424Y665D01*
X1422Y665D01*
X1422Y667D01*
X1420Y667D01*
X1420Y669D01*
X1418Y669D01*
X1418Y671D01*
X1416Y671D01*
X1416Y673D01*
X1414Y673D01*
X1414Y675D01*
X1412Y675D01*
X1412Y677D01*
X1410Y677D01*
X1410Y679D01*
X1408Y679D01*
X1408Y681D01*
X1406Y681D01*
X1406Y683D01*
X1404Y683D01*
X1404Y685D01*
X1402Y685D01*
X1402Y687D01*
X1400Y687D01*
X1400Y689D01*
X1398Y689D01*
X1398Y691D01*
X1396Y691D01*
X1396Y693D01*
X1394Y693D01*
X1394Y695D01*
X1392Y695D01*
X1392Y697D01*
X1390Y697D01*
X1390Y699D01*
X1388Y699D01*
X1388Y701D01*
X1386Y701D01*
X1386Y703D01*
X1384Y703D01*
X1384Y705D01*
X1382Y705D01*
X1382Y707D01*
X1380Y707D01*
X1380Y709D01*
X1378Y709D01*
X1378Y711D01*
X1376Y711D01*
X1376Y713D01*
X1374Y713D01*
X1374Y715D01*
X1372Y715D01*
X1372Y717D01*
X1370Y717D01*
X1370Y719D01*
X1368Y719D01*
X1368Y721D01*
X1366Y721D01*
X1366Y723D01*
X1364Y723D01*
X1364Y725D01*
X1362Y725D01*
X1362Y727D01*
X1360Y727D01*
X1360Y729D01*
X1358Y729D01*
X1358Y731D01*
X1356Y731D01*
X1356Y733D01*
X1354Y733D01*
X1354Y735D01*
X1352Y735D01*
X1352Y737D01*
X1350Y737D01*
X1350Y739D01*
X1348Y739D01*
X1348Y741D01*
X1346Y741D01*
X1346Y743D01*
X1344Y743D01*
X1344Y745D01*
X1342Y745D01*
X1342Y747D01*
X1340Y747D01*
X1340Y749D01*
X1338Y749D01*
X1338Y751D01*
X1336Y751D01*
X1336Y753D01*
X1334Y753D01*
X1334Y755D01*
X1332Y755D01*
X1332Y757D01*
X1330Y757D01*
X1330Y759D01*
X1328Y759D01*
X1328Y761D01*
X1326Y761D01*
X1326Y763D01*
X1324Y763D01*
X1324Y765D01*
X1322Y765D01*
X1322Y767D01*
X1320Y767D01*
X1320Y769D01*
X1318Y769D01*
X1318Y771D01*
X1316Y771D01*
X1316Y773D01*
X1314Y773D01*
X1314Y775D01*
X1312Y775D01*
X1312Y777D01*
X1310Y777D01*
X1310Y779D01*
X1308Y779D01*
X1308Y781D01*
X1304Y781D01*
X1304Y783D01*
X642Y783D01*
G37*
D02*
G36*
X1462Y1169D02*
X1462Y1061D01*
X1942Y1061D01*
X1942Y1059D01*
X1950Y1059D01*
X1950Y1057D01*
X1954Y1057D01*
X1954Y1055D01*
X1958Y1055D01*
X1958Y1053D01*
X1962Y1053D01*
X1962Y1051D01*
X1966Y1051D01*
X1966Y1049D01*
X1968Y1049D01*
X1968Y1047D01*
X1970Y1047D01*
X1970Y1045D01*
X1972Y1045D01*
X1972Y1043D01*
X1974Y1043D01*
X1974Y1041D01*
X1976Y1041D01*
X1976Y1039D01*
X1978Y1039D01*
X1978Y1037D01*
X1980Y1037D01*
X1980Y1035D01*
X1982Y1035D01*
X1982Y1033D01*
X1984Y1033D01*
X1984Y1031D01*
X1986Y1031D01*
X1986Y1027D01*
X1988Y1027D01*
X1988Y1023D01*
X1990Y1023D01*
X1990Y1021D01*
X1992Y1021D01*
X1992Y1015D01*
X1994Y1015D01*
X1994Y1009D01*
X1996Y1009D01*
X1996Y987D01*
X1994Y987D01*
X1994Y981D01*
X1992Y981D01*
X1992Y975D01*
X1990Y975D01*
X1990Y971D01*
X1988Y971D01*
X1988Y969D01*
X1986Y969D01*
X1986Y965D01*
X1984Y965D01*
X1984Y963D01*
X1982Y963D01*
X1982Y961D01*
X1980Y961D01*
X1980Y959D01*
X1978Y959D01*
X1978Y955D01*
X1976Y955D01*
X1976Y953D01*
X1972Y953D01*
X1972Y951D01*
X1970Y951D01*
X1970Y949D01*
X1968Y949D01*
X1968Y947D01*
X1966Y947D01*
X1966Y945D01*
X1962Y945D01*
X1962Y943D01*
X1960Y943D01*
X1960Y941D01*
X1956Y941D01*
X1956Y939D01*
X1950Y939D01*
X1950Y937D01*
X1944Y937D01*
X1944Y935D01*
X2120Y935D01*
X2120Y1061D01*
X2256Y1061D01*
X2256Y1063D01*
X2258Y1063D01*
X2258Y1067D01*
X2260Y1067D01*
X2260Y1069D01*
X2262Y1069D01*
X2262Y1071D01*
X2264Y1071D01*
X2264Y1073D01*
X2266Y1073D01*
X2266Y1075D01*
X2268Y1075D01*
X2268Y1077D01*
X2270Y1077D01*
X2270Y1079D01*
X2272Y1079D01*
X2272Y1081D01*
X2274Y1081D01*
X2274Y1083D01*
X2276Y1083D01*
X2276Y1085D01*
X2278Y1085D01*
X2278Y1087D01*
X2280Y1087D01*
X2280Y1089D01*
X2282Y1089D01*
X2282Y1091D01*
X2284Y1091D01*
X2284Y1093D01*
X2286Y1093D01*
X2286Y1095D01*
X2288Y1095D01*
X2288Y1097D01*
X2290Y1097D01*
X2290Y1099D01*
X2292Y1099D01*
X2292Y1101D01*
X2294Y1101D01*
X2294Y1103D01*
X2296Y1103D01*
X2296Y1105D01*
X2298Y1105D01*
X2298Y1107D01*
X2300Y1107D01*
X2300Y1109D01*
X2302Y1109D01*
X2302Y1111D01*
X2304Y1111D01*
X2304Y1113D01*
X2306Y1113D01*
X2306Y1115D01*
X2308Y1115D01*
X2308Y1117D01*
X2310Y1117D01*
X2310Y1119D01*
X2312Y1119D01*
X2312Y1121D01*
X2314Y1121D01*
X2314Y1123D01*
X2316Y1123D01*
X2316Y1125D01*
X2318Y1125D01*
X2318Y1127D01*
X2320Y1127D01*
X2320Y1129D01*
X2322Y1129D01*
X2322Y1131D01*
X2324Y1131D01*
X2324Y1133D01*
X2326Y1133D01*
X2326Y1135D01*
X2328Y1135D01*
X2328Y1137D01*
X2330Y1137D01*
X2330Y1139D01*
X2332Y1139D01*
X2332Y1141D01*
X2334Y1141D01*
X2334Y1143D01*
X2336Y1143D01*
X2336Y1145D01*
X2338Y1145D01*
X2338Y1147D01*
X2340Y1147D01*
X2340Y1167D01*
X1676Y1167D01*
X1676Y1169D01*
X1462Y1169D01*
G37*
D02*
G36*
X1462Y1061D02*
X1462Y1051D01*
X1466Y1051D01*
X1466Y1049D01*
X1468Y1049D01*
X1468Y1047D01*
X1470Y1047D01*
X1470Y1045D01*
X1472Y1045D01*
X1472Y1043D01*
X1494Y1043D01*
X1494Y1045D01*
X1496Y1045D01*
X1496Y1047D01*
X1498Y1047D01*
X1498Y1049D01*
X1502Y1049D01*
X1502Y1051D01*
X1504Y1051D01*
X1504Y1053D01*
X1508Y1053D01*
X1508Y1055D01*
X1512Y1055D01*
X1512Y1057D01*
X1516Y1057D01*
X1516Y1059D01*
X1524Y1059D01*
X1524Y1061D01*
X1462Y1061D01*
G37*
D02*
G36*
X1542Y1061D02*
X1542Y1059D01*
X1550Y1059D01*
X1550Y1057D01*
X1554Y1057D01*
X1554Y1055D01*
X1558Y1055D01*
X1558Y1053D01*
X1562Y1053D01*
X1562Y1051D01*
X1566Y1051D01*
X1566Y1049D01*
X1568Y1049D01*
X1568Y1047D01*
X1570Y1047D01*
X1570Y1045D01*
X1572Y1045D01*
X1572Y1043D01*
X1594Y1043D01*
X1594Y1045D01*
X1596Y1045D01*
X1596Y1047D01*
X1598Y1047D01*
X1598Y1049D01*
X1602Y1049D01*
X1602Y1051D01*
X1604Y1051D01*
X1604Y1053D01*
X1608Y1053D01*
X1608Y1055D01*
X1612Y1055D01*
X1612Y1057D01*
X1616Y1057D01*
X1616Y1059D01*
X1624Y1059D01*
X1624Y1061D01*
X1542Y1061D01*
G37*
D02*
G36*
X1642Y1061D02*
X1642Y1059D01*
X1650Y1059D01*
X1650Y1057D01*
X1654Y1057D01*
X1654Y1055D01*
X1658Y1055D01*
X1658Y1053D01*
X1662Y1053D01*
X1662Y1051D01*
X1666Y1051D01*
X1666Y1049D01*
X1668Y1049D01*
X1668Y1047D01*
X1670Y1047D01*
X1670Y1045D01*
X1672Y1045D01*
X1672Y1043D01*
X1694Y1043D01*
X1694Y1045D01*
X1696Y1045D01*
X1696Y1047D01*
X1698Y1047D01*
X1698Y1049D01*
X1702Y1049D01*
X1702Y1051D01*
X1704Y1051D01*
X1704Y1053D01*
X1708Y1053D01*
X1708Y1055D01*
X1712Y1055D01*
X1712Y1057D01*
X1716Y1057D01*
X1716Y1059D01*
X1724Y1059D01*
X1724Y1061D01*
X1642Y1061D01*
G37*
D02*
G36*
X1742Y1061D02*
X1742Y1059D01*
X1750Y1059D01*
X1750Y1057D01*
X1754Y1057D01*
X1754Y1055D01*
X1758Y1055D01*
X1758Y1053D01*
X1762Y1053D01*
X1762Y1051D01*
X1766Y1051D01*
X1766Y1049D01*
X1768Y1049D01*
X1768Y1047D01*
X1770Y1047D01*
X1770Y1045D01*
X1772Y1045D01*
X1772Y1043D01*
X1794Y1043D01*
X1794Y1045D01*
X1796Y1045D01*
X1796Y1047D01*
X1798Y1047D01*
X1798Y1049D01*
X1802Y1049D01*
X1802Y1051D01*
X1804Y1051D01*
X1804Y1053D01*
X1808Y1053D01*
X1808Y1055D01*
X1812Y1055D01*
X1812Y1057D01*
X1816Y1057D01*
X1816Y1059D01*
X1824Y1059D01*
X1824Y1061D01*
X1742Y1061D01*
G37*
D02*
G36*
X1842Y1061D02*
X1842Y1059D01*
X1850Y1059D01*
X1850Y1057D01*
X1854Y1057D01*
X1854Y1055D01*
X1858Y1055D01*
X1858Y1053D01*
X1862Y1053D01*
X1862Y1051D01*
X1866Y1051D01*
X1866Y1049D01*
X1868Y1049D01*
X1868Y1047D01*
X1870Y1047D01*
X1870Y1045D01*
X1872Y1045D01*
X1872Y1043D01*
X1894Y1043D01*
X1894Y1045D01*
X1896Y1045D01*
X1896Y1047D01*
X1898Y1047D01*
X1898Y1049D01*
X1902Y1049D01*
X1902Y1051D01*
X1904Y1051D01*
X1904Y1053D01*
X1908Y1053D01*
X1908Y1055D01*
X1912Y1055D01*
X1912Y1057D01*
X1916Y1057D01*
X1916Y1059D01*
X1924Y1059D01*
X1924Y1061D01*
X1842Y1061D01*
G37*
D02*
G36*
X1772Y953D02*
X1772Y951D01*
X1770Y951D01*
X1770Y949D01*
X1768Y949D01*
X1768Y947D01*
X1766Y947D01*
X1766Y945D01*
X1764Y945D01*
X1764Y935D01*
X1822Y935D01*
X1822Y937D01*
X1816Y937D01*
X1816Y939D01*
X1810Y939D01*
X1810Y941D01*
X1808Y941D01*
X1808Y943D01*
X1804Y943D01*
X1804Y945D01*
X1800Y945D01*
X1800Y947D01*
X1798Y947D01*
X1798Y949D01*
X1796Y949D01*
X1796Y951D01*
X1794Y951D01*
X1794Y953D01*
X1772Y953D01*
G37*
D02*
G36*
X1872Y953D02*
X1872Y951D01*
X1870Y951D01*
X1870Y949D01*
X1868Y949D01*
X1868Y947D01*
X1866Y947D01*
X1866Y945D01*
X1862Y945D01*
X1862Y943D01*
X1860Y943D01*
X1860Y941D01*
X1856Y941D01*
X1856Y939D01*
X1850Y939D01*
X1850Y937D01*
X1844Y937D01*
X1844Y935D01*
X1922Y935D01*
X1922Y937D01*
X1916Y937D01*
X1916Y939D01*
X1910Y939D01*
X1910Y941D01*
X1908Y941D01*
X1908Y943D01*
X1904Y943D01*
X1904Y945D01*
X1900Y945D01*
X1900Y947D01*
X1898Y947D01*
X1898Y949D01*
X1896Y949D01*
X1896Y951D01*
X1894Y951D01*
X1894Y953D01*
X1872Y953D01*
G37*
D02*
G36*
X1764Y935D02*
X1764Y933D01*
X2154Y933D01*
X2154Y935D01*
X1764Y935D01*
G37*
D02*
G36*
X1764Y935D02*
X1764Y933D01*
X2154Y933D01*
X2154Y935D01*
X1764Y935D01*
G37*
D02*
G36*
X1764Y935D02*
X1764Y933D01*
X2154Y933D01*
X2154Y935D01*
X1764Y935D01*
G37*
D02*
G36*
X1764Y933D02*
X1764Y911D01*
X1942Y911D01*
X1942Y909D01*
X1950Y909D01*
X1950Y907D01*
X1954Y907D01*
X1954Y905D01*
X1958Y905D01*
X1958Y903D01*
X1962Y903D01*
X1962Y901D01*
X1966Y901D01*
X1966Y899D01*
X1968Y899D01*
X1968Y897D01*
X1970Y897D01*
X1970Y895D01*
X1972Y895D01*
X1972Y893D01*
X1974Y893D01*
X1974Y891D01*
X1976Y891D01*
X1976Y889D01*
X1978Y889D01*
X1978Y887D01*
X1980Y887D01*
X1980Y885D01*
X1982Y885D01*
X1982Y883D01*
X1984Y883D01*
X1984Y881D01*
X1986Y881D01*
X1986Y877D01*
X1988Y877D01*
X1988Y873D01*
X1990Y873D01*
X1990Y871D01*
X1992Y871D01*
X1992Y865D01*
X1994Y865D01*
X1994Y859D01*
X1996Y859D01*
X1996Y837D01*
X1994Y837D01*
X1994Y831D01*
X1992Y831D01*
X1992Y825D01*
X1990Y825D01*
X1990Y821D01*
X1988Y821D01*
X1988Y819D01*
X1986Y819D01*
X1986Y815D01*
X1984Y815D01*
X1984Y813D01*
X1982Y813D01*
X1982Y811D01*
X1980Y811D01*
X1980Y809D01*
X1978Y809D01*
X1978Y805D01*
X1976Y805D01*
X1976Y803D01*
X1972Y803D01*
X1972Y801D01*
X1970Y801D01*
X1970Y799D01*
X1968Y799D01*
X1968Y797D01*
X1966Y797D01*
X1966Y795D01*
X1962Y795D01*
X1962Y793D01*
X1960Y793D01*
X1960Y791D01*
X1956Y791D01*
X1956Y789D01*
X1950Y789D01*
X1950Y787D01*
X1944Y787D01*
X1944Y785D01*
X2150Y785D01*
X2150Y787D01*
X2152Y787D01*
X2152Y809D01*
X2150Y809D01*
X2150Y811D01*
X2148Y811D01*
X2148Y813D01*
X2146Y813D01*
X2146Y815D01*
X2144Y815D01*
X2144Y817D01*
X2142Y817D01*
X2142Y819D01*
X2140Y819D01*
X2140Y823D01*
X2138Y823D01*
X2138Y825D01*
X2136Y825D01*
X2136Y829D01*
X2134Y829D01*
X2134Y833D01*
X2132Y833D01*
X2132Y841D01*
X2130Y841D01*
X2130Y855D01*
X2132Y855D01*
X2132Y863D01*
X2134Y863D01*
X2134Y867D01*
X2136Y867D01*
X2136Y871D01*
X2138Y871D01*
X2138Y873D01*
X2140Y873D01*
X2140Y877D01*
X2142Y877D01*
X2142Y879D01*
X2144Y879D01*
X2144Y881D01*
X2146Y881D01*
X2146Y883D01*
X2148Y883D01*
X2148Y885D01*
X2150Y885D01*
X2150Y887D01*
X2152Y887D01*
X2152Y889D01*
X2154Y889D01*
X2154Y933D01*
X1764Y933D01*
G37*
D02*
G36*
X1764Y911D02*
X1764Y901D01*
X1766Y901D01*
X1766Y899D01*
X1768Y899D01*
X1768Y897D01*
X1770Y897D01*
X1770Y895D01*
X1772Y895D01*
X1772Y893D01*
X1774Y893D01*
X1774Y891D01*
X1776Y891D01*
X1776Y889D01*
X1778Y889D01*
X1778Y887D01*
X1780Y887D01*
X1780Y885D01*
X1782Y885D01*
X1782Y883D01*
X1784Y883D01*
X1784Y881D01*
X1786Y881D01*
X1786Y877D01*
X1788Y877D01*
X1788Y873D01*
X1790Y873D01*
X1790Y871D01*
X1792Y871D01*
X1792Y865D01*
X1794Y865D01*
X1794Y859D01*
X1796Y859D01*
X1796Y837D01*
X1794Y837D01*
X1794Y831D01*
X1792Y831D01*
X1792Y825D01*
X1790Y825D01*
X1790Y821D01*
X1788Y821D01*
X1788Y819D01*
X1786Y819D01*
X1786Y815D01*
X1784Y815D01*
X1784Y813D01*
X1782Y813D01*
X1782Y811D01*
X1780Y811D01*
X1780Y809D01*
X1778Y809D01*
X1778Y805D01*
X1776Y805D01*
X1776Y803D01*
X1772Y803D01*
X1772Y801D01*
X1770Y801D01*
X1770Y799D01*
X1768Y799D01*
X1768Y797D01*
X1766Y797D01*
X1766Y795D01*
X1762Y795D01*
X1762Y793D01*
X1760Y793D01*
X1760Y791D01*
X1756Y791D01*
X1756Y789D01*
X1750Y789D01*
X1750Y787D01*
X1744Y787D01*
X1744Y785D01*
X1922Y785D01*
X1922Y787D01*
X1916Y787D01*
X1916Y789D01*
X1910Y789D01*
X1910Y791D01*
X1908Y791D01*
X1908Y793D01*
X1904Y793D01*
X1904Y795D01*
X1900Y795D01*
X1900Y797D01*
X1898Y797D01*
X1898Y799D01*
X1896Y799D01*
X1896Y801D01*
X1894Y801D01*
X1894Y803D01*
X1892Y803D01*
X1892Y805D01*
X1890Y805D01*
X1890Y807D01*
X1888Y807D01*
X1888Y809D01*
X1886Y809D01*
X1886Y811D01*
X1884Y811D01*
X1884Y813D01*
X1882Y813D01*
X1882Y815D01*
X1880Y815D01*
X1880Y819D01*
X1878Y819D01*
X1878Y823D01*
X1876Y823D01*
X1876Y827D01*
X1874Y827D01*
X1874Y831D01*
X1872Y831D01*
X1872Y839D01*
X1870Y839D01*
X1870Y857D01*
X1872Y857D01*
X1872Y865D01*
X1874Y865D01*
X1874Y869D01*
X1876Y869D01*
X1876Y873D01*
X1878Y873D01*
X1878Y877D01*
X1880Y877D01*
X1880Y879D01*
X1882Y879D01*
X1882Y883D01*
X1884Y883D01*
X1884Y885D01*
X1886Y885D01*
X1886Y887D01*
X1888Y887D01*
X1888Y889D01*
X1890Y889D01*
X1890Y891D01*
X1892Y891D01*
X1892Y893D01*
X1894Y893D01*
X1894Y895D01*
X1896Y895D01*
X1896Y897D01*
X1898Y897D01*
X1898Y899D01*
X1902Y899D01*
X1902Y901D01*
X1904Y901D01*
X1904Y903D01*
X1908Y903D01*
X1908Y905D01*
X1912Y905D01*
X1912Y907D01*
X1916Y907D01*
X1916Y909D01*
X1924Y909D01*
X1924Y911D01*
X1764Y911D01*
G37*
D02*
G36*
X1562Y815D02*
X1562Y807D01*
X1564Y807D01*
X1564Y805D01*
X1566Y805D01*
X1566Y803D01*
X1568Y803D01*
X1568Y801D01*
X1570Y801D01*
X1570Y799D01*
X1572Y799D01*
X1572Y797D01*
X1574Y797D01*
X1574Y795D01*
X1576Y795D01*
X1576Y793D01*
X1578Y793D01*
X1578Y791D01*
X1580Y791D01*
X1580Y789D01*
X1582Y789D01*
X1582Y787D01*
X1584Y787D01*
X1584Y785D01*
X1622Y785D01*
X1622Y787D01*
X1616Y787D01*
X1616Y789D01*
X1610Y789D01*
X1610Y791D01*
X1608Y791D01*
X1608Y793D01*
X1604Y793D01*
X1604Y795D01*
X1600Y795D01*
X1600Y797D01*
X1598Y797D01*
X1598Y799D01*
X1596Y799D01*
X1596Y801D01*
X1594Y801D01*
X1594Y803D01*
X1592Y803D01*
X1592Y805D01*
X1590Y805D01*
X1590Y807D01*
X1588Y807D01*
X1588Y809D01*
X1586Y809D01*
X1586Y811D01*
X1584Y811D01*
X1584Y813D01*
X1582Y813D01*
X1582Y815D01*
X1562Y815D01*
G37*
D02*
G36*
X1672Y803D02*
X1672Y801D01*
X1670Y801D01*
X1670Y799D01*
X1668Y799D01*
X1668Y797D01*
X1666Y797D01*
X1666Y795D01*
X1662Y795D01*
X1662Y793D01*
X1660Y793D01*
X1660Y791D01*
X1656Y791D01*
X1656Y789D01*
X1650Y789D01*
X1650Y787D01*
X1644Y787D01*
X1644Y785D01*
X1722Y785D01*
X1722Y787D01*
X1716Y787D01*
X1716Y789D01*
X1710Y789D01*
X1710Y791D01*
X1708Y791D01*
X1708Y793D01*
X1704Y793D01*
X1704Y795D01*
X1700Y795D01*
X1700Y797D01*
X1698Y797D01*
X1698Y799D01*
X1696Y799D01*
X1696Y801D01*
X1694Y801D01*
X1694Y803D01*
X1672Y803D01*
G37*
D02*
G36*
X1586Y785D02*
X1586Y783D01*
X2148Y783D01*
X2148Y785D01*
X1586Y785D01*
G37*
D02*
G36*
X1586Y785D02*
X1586Y783D01*
X2148Y783D01*
X2148Y785D01*
X1586Y785D01*
G37*
D02*
G36*
X1586Y785D02*
X1586Y783D01*
X2148Y783D01*
X2148Y785D01*
X1586Y785D01*
G37*
D02*
G36*
X1586Y785D02*
X1586Y783D01*
X2148Y783D01*
X2148Y785D01*
X1586Y785D01*
G37*
D02*
G36*
X1588Y783D02*
X1588Y781D01*
X1590Y781D01*
X1590Y779D01*
X1592Y779D01*
X1592Y777D01*
X1594Y777D01*
X1594Y775D01*
X1596Y775D01*
X1596Y773D01*
X1598Y773D01*
X1598Y771D01*
X1600Y771D01*
X1600Y769D01*
X1602Y769D01*
X1602Y767D01*
X1606Y767D01*
X1606Y765D01*
X1608Y765D01*
X1608Y763D01*
X1610Y763D01*
X1610Y761D01*
X1612Y761D01*
X1612Y759D01*
X1614Y759D01*
X1614Y757D01*
X1616Y757D01*
X1616Y755D01*
X1618Y755D01*
X1618Y753D01*
X1620Y753D01*
X1620Y751D01*
X1622Y751D01*
X1622Y749D01*
X1624Y749D01*
X1624Y747D01*
X1626Y747D01*
X1626Y745D01*
X1628Y745D01*
X1628Y743D01*
X1630Y743D01*
X1630Y741D01*
X1632Y741D01*
X1632Y739D01*
X1634Y739D01*
X1634Y737D01*
X1636Y737D01*
X1636Y735D01*
X1638Y735D01*
X1638Y733D01*
X1640Y733D01*
X1640Y731D01*
X1642Y731D01*
X1642Y729D01*
X1644Y729D01*
X1644Y727D01*
X1646Y727D01*
X1646Y725D01*
X1648Y725D01*
X1648Y723D01*
X1650Y723D01*
X1650Y721D01*
X1652Y721D01*
X1652Y719D01*
X1654Y719D01*
X1654Y717D01*
X1656Y717D01*
X1656Y715D01*
X1658Y715D01*
X1658Y713D01*
X1660Y713D01*
X1660Y711D01*
X1662Y711D01*
X1662Y709D01*
X1664Y709D01*
X1664Y707D01*
X1666Y707D01*
X1666Y705D01*
X1668Y705D01*
X1668Y703D01*
X1794Y703D01*
X1794Y701D01*
X1800Y701D01*
X1800Y699D01*
X1804Y699D01*
X1804Y697D01*
X1808Y697D01*
X1808Y695D01*
X1810Y695D01*
X1810Y693D01*
X1814Y693D01*
X1814Y691D01*
X1816Y691D01*
X1816Y689D01*
X1818Y689D01*
X1818Y687D01*
X1820Y687D01*
X1820Y685D01*
X1822Y685D01*
X1822Y683D01*
X1824Y683D01*
X1824Y681D01*
X1826Y681D01*
X1826Y679D01*
X1828Y679D01*
X1828Y675D01*
X1830Y675D01*
X1830Y673D01*
X1832Y673D01*
X1832Y669D01*
X1834Y669D01*
X1834Y665D01*
X1836Y665D01*
X1836Y659D01*
X1838Y659D01*
X1838Y637D01*
X1836Y637D01*
X1836Y631D01*
X1834Y631D01*
X1834Y627D01*
X1832Y627D01*
X1832Y623D01*
X1830Y623D01*
X1830Y619D01*
X1828Y619D01*
X1828Y617D01*
X1826Y617D01*
X1826Y615D01*
X1824Y615D01*
X1824Y613D01*
X1822Y613D01*
X1822Y611D01*
X1820Y611D01*
X1820Y609D01*
X1818Y609D01*
X1818Y587D01*
X1820Y587D01*
X1820Y585D01*
X1822Y585D01*
X1822Y583D01*
X1824Y583D01*
X1824Y581D01*
X1826Y581D01*
X1826Y579D01*
X1828Y579D01*
X1828Y575D01*
X1830Y575D01*
X1830Y573D01*
X1832Y573D01*
X1832Y569D01*
X1834Y569D01*
X1834Y565D01*
X1836Y565D01*
X1836Y559D01*
X1838Y559D01*
X1838Y537D01*
X1836Y537D01*
X1836Y531D01*
X1834Y531D01*
X1834Y527D01*
X1832Y527D01*
X1832Y523D01*
X1830Y523D01*
X1830Y519D01*
X1828Y519D01*
X1828Y517D01*
X1826Y517D01*
X1826Y515D01*
X1824Y515D01*
X1824Y513D01*
X1822Y513D01*
X1822Y511D01*
X1820Y511D01*
X1820Y509D01*
X1818Y509D01*
X1818Y487D01*
X1820Y487D01*
X1820Y485D01*
X1822Y485D01*
X1822Y483D01*
X1824Y483D01*
X1824Y481D01*
X1826Y481D01*
X1826Y479D01*
X1828Y479D01*
X1828Y475D01*
X1830Y475D01*
X1830Y473D01*
X1832Y473D01*
X1832Y469D01*
X1834Y469D01*
X1834Y465D01*
X1836Y465D01*
X1836Y459D01*
X1838Y459D01*
X1838Y437D01*
X1836Y437D01*
X1836Y431D01*
X1834Y431D01*
X1834Y427D01*
X1832Y427D01*
X1832Y423D01*
X1830Y423D01*
X1830Y419D01*
X1828Y419D01*
X1828Y417D01*
X1826Y417D01*
X1826Y415D01*
X1824Y415D01*
X1824Y413D01*
X1822Y413D01*
X1822Y411D01*
X1820Y411D01*
X1820Y409D01*
X1818Y409D01*
X1818Y387D01*
X1820Y387D01*
X1820Y385D01*
X1822Y385D01*
X1822Y383D01*
X1824Y383D01*
X1824Y381D01*
X1826Y381D01*
X1826Y379D01*
X1828Y379D01*
X1828Y375D01*
X1830Y375D01*
X1830Y373D01*
X1832Y373D01*
X1832Y369D01*
X1834Y369D01*
X1834Y365D01*
X1836Y365D01*
X1836Y359D01*
X1838Y359D01*
X1838Y337D01*
X1836Y337D01*
X1836Y331D01*
X1834Y331D01*
X1834Y327D01*
X1832Y327D01*
X1832Y323D01*
X1830Y323D01*
X1830Y319D01*
X1828Y319D01*
X1828Y317D01*
X1826Y317D01*
X1826Y315D01*
X1824Y315D01*
X1824Y313D01*
X1822Y313D01*
X1822Y311D01*
X1820Y311D01*
X1820Y309D01*
X1818Y309D01*
X1818Y307D01*
X1816Y307D01*
X1816Y305D01*
X1814Y305D01*
X1814Y303D01*
X1812Y303D01*
X1812Y301D01*
X1808Y301D01*
X1808Y299D01*
X1804Y299D01*
X1804Y279D01*
X2162Y279D01*
X2162Y299D01*
X2158Y299D01*
X2158Y301D01*
X2156Y301D01*
X2156Y303D01*
X2152Y303D01*
X2152Y305D01*
X2150Y305D01*
X2150Y307D01*
X2148Y307D01*
X2148Y309D01*
X2146Y309D01*
X2146Y311D01*
X2144Y311D01*
X2144Y313D01*
X2142Y313D01*
X2142Y315D01*
X2140Y315D01*
X2140Y317D01*
X2138Y317D01*
X2138Y321D01*
X2136Y321D01*
X2136Y323D01*
X2134Y323D01*
X2134Y327D01*
X2132Y327D01*
X2132Y331D01*
X2130Y331D01*
X2130Y337D01*
X2128Y337D01*
X2128Y357D01*
X2130Y357D01*
X2130Y365D01*
X2132Y365D01*
X2132Y369D01*
X2134Y369D01*
X2134Y371D01*
X2136Y371D01*
X2136Y375D01*
X2138Y375D01*
X2138Y379D01*
X2140Y379D01*
X2140Y381D01*
X2142Y381D01*
X2142Y383D01*
X2144Y383D01*
X2144Y385D01*
X2146Y385D01*
X2146Y387D01*
X2148Y387D01*
X2148Y409D01*
X2146Y409D01*
X2146Y411D01*
X2144Y411D01*
X2144Y413D01*
X2142Y413D01*
X2142Y415D01*
X2140Y415D01*
X2140Y417D01*
X2138Y417D01*
X2138Y421D01*
X2136Y421D01*
X2136Y423D01*
X2134Y423D01*
X2134Y427D01*
X2132Y427D01*
X2132Y431D01*
X2130Y431D01*
X2130Y437D01*
X2128Y437D01*
X2128Y457D01*
X2130Y457D01*
X2130Y465D01*
X2132Y465D01*
X2132Y469D01*
X2134Y469D01*
X2134Y471D01*
X2136Y471D01*
X2136Y475D01*
X2138Y475D01*
X2138Y479D01*
X2140Y479D01*
X2140Y481D01*
X2142Y481D01*
X2142Y483D01*
X2144Y483D01*
X2144Y485D01*
X2146Y485D01*
X2146Y487D01*
X2148Y487D01*
X2148Y509D01*
X2146Y509D01*
X2146Y511D01*
X2144Y511D01*
X2144Y513D01*
X2142Y513D01*
X2142Y515D01*
X2140Y515D01*
X2140Y517D01*
X2138Y517D01*
X2138Y521D01*
X2136Y521D01*
X2136Y523D01*
X2134Y523D01*
X2134Y527D01*
X2132Y527D01*
X2132Y531D01*
X2130Y531D01*
X2130Y537D01*
X2128Y537D01*
X2128Y557D01*
X2130Y557D01*
X2130Y565D01*
X2132Y565D01*
X2132Y569D01*
X2134Y569D01*
X2134Y571D01*
X2136Y571D01*
X2136Y575D01*
X2138Y575D01*
X2138Y579D01*
X2140Y579D01*
X2140Y581D01*
X2142Y581D01*
X2142Y583D01*
X2144Y583D01*
X2144Y585D01*
X2146Y585D01*
X2146Y587D01*
X2148Y587D01*
X2148Y609D01*
X2146Y609D01*
X2146Y611D01*
X2144Y611D01*
X2144Y613D01*
X2142Y613D01*
X2142Y615D01*
X2140Y615D01*
X2140Y617D01*
X2138Y617D01*
X2138Y621D01*
X2136Y621D01*
X2136Y623D01*
X2134Y623D01*
X2134Y627D01*
X2132Y627D01*
X2132Y631D01*
X2130Y631D01*
X2130Y637D01*
X2128Y637D01*
X2128Y657D01*
X2130Y657D01*
X2130Y665D01*
X2132Y665D01*
X2132Y669D01*
X2134Y669D01*
X2134Y671D01*
X2136Y671D01*
X2136Y675D01*
X2138Y675D01*
X2138Y679D01*
X2140Y679D01*
X2140Y681D01*
X2142Y681D01*
X2142Y683D01*
X2144Y683D01*
X2144Y685D01*
X2146Y685D01*
X2146Y687D01*
X2148Y687D01*
X2148Y689D01*
X2150Y689D01*
X2150Y711D01*
X2148Y711D01*
X2148Y713D01*
X2146Y713D01*
X2146Y715D01*
X2144Y715D01*
X2144Y717D01*
X2142Y717D01*
X2142Y719D01*
X2140Y719D01*
X2140Y721D01*
X2138Y721D01*
X2138Y725D01*
X2136Y725D01*
X2136Y729D01*
X2134Y729D01*
X2134Y733D01*
X2132Y733D01*
X2132Y741D01*
X2130Y741D01*
X2130Y755D01*
X2132Y755D01*
X2132Y763D01*
X2134Y763D01*
X2134Y767D01*
X2136Y767D01*
X2136Y771D01*
X2138Y771D01*
X2138Y773D01*
X2140Y773D01*
X2140Y777D01*
X2142Y777D01*
X2142Y779D01*
X2144Y779D01*
X2144Y781D01*
X2146Y781D01*
X2146Y783D01*
X1588Y783D01*
G37*
D02*
G36*
X1670Y703D02*
X1670Y701D01*
X1672Y701D01*
X1672Y699D01*
X1674Y699D01*
X1674Y697D01*
X1676Y697D01*
X1676Y695D01*
X1678Y695D01*
X1678Y693D01*
X1680Y693D01*
X1680Y691D01*
X1682Y691D01*
X1682Y689D01*
X1684Y689D01*
X1684Y687D01*
X1686Y687D01*
X1686Y685D01*
X1688Y685D01*
X1688Y683D01*
X1690Y683D01*
X1690Y681D01*
X1692Y681D01*
X1692Y679D01*
X1694Y679D01*
X1694Y677D01*
X1738Y677D01*
X1738Y679D01*
X1740Y679D01*
X1740Y681D01*
X1742Y681D01*
X1742Y683D01*
X1744Y683D01*
X1744Y685D01*
X1746Y685D01*
X1746Y687D01*
X1748Y687D01*
X1748Y689D01*
X1750Y689D01*
X1750Y691D01*
X1752Y691D01*
X1752Y693D01*
X1756Y693D01*
X1756Y695D01*
X1760Y695D01*
X1760Y697D01*
X1762Y697D01*
X1762Y699D01*
X1766Y699D01*
X1766Y701D01*
X1774Y701D01*
X1774Y703D01*
X1670Y703D01*
G37*
D02*
G36*
X2892Y875D02*
X2946Y875D01*
X2946Y824D01*
X2892Y824D01*
X2892Y875D01*
G37*
D02*
G36*
X2854Y1065D02*
X2905Y1065D01*
X2905Y1013D01*
X2854Y1013D01*
X2854Y1065D01*
G37*
D02*
G36*
X2892Y1025D02*
X2946Y1025D01*
X2946Y974D01*
X2892Y974D01*
X2892Y1025D01*
G37*
D02*
G36*
X1906Y137D02*
X1957Y137D01*
X1957Y85D01*
X1906Y85D01*
X1906Y137D01*
G37*
D02*
G36*
X956Y137D02*
X1007Y137D01*
X1007Y85D01*
X956Y85D01*
X956Y137D01*
G37*
D02*
G36*
X916Y175D02*
X968Y175D01*
X968Y124D01*
X916Y124D01*
X916Y175D01*
G37*
D02*
G36*
X1906Y837D02*
X1957Y837D01*
X1957Y785D01*
X1906Y785D01*
X1906Y837D01*
G37*
D02*
G36*
X1944Y875D02*
X1996Y875D01*
X1996Y824D01*
X1944Y824D01*
X1944Y875D01*
G37*
D02*
G36*
X1906Y1065D02*
X1957Y1065D01*
X1957Y1013D01*
X1906Y1013D01*
X1906Y1065D01*
G37*
D02*
G36*
X1944Y1025D02*
X1996Y1025D01*
X1996Y974D01*
X1944Y974D01*
X1944Y1025D01*
G37*
D02*
G36*
X956Y837D02*
X1007Y837D01*
X1007Y785D01*
X956Y785D01*
X956Y837D01*
G37*
D02*
G36*
X994Y875D02*
X1046Y875D01*
X1046Y824D01*
X994Y824D01*
X994Y875D01*
G37*
D02*
G36*
X2456Y987D02*
X2507Y987D01*
X2507Y935D01*
X2456Y935D01*
X2456Y987D01*
G37*
D02*
G36*
X1806Y1065D02*
X1857Y1065D01*
X1857Y1013D01*
X1806Y1013D01*
X1806Y1065D01*
G37*
D02*
G36*
X956Y1065D02*
X1007Y1065D01*
X1007Y1013D01*
X956Y1013D01*
X956Y1065D01*
G37*
D02*
G36*
X994Y1025D02*
X1046Y1025D01*
X1046Y974D01*
X994Y974D01*
X994Y1025D01*
G37*
D02*
G36*
X2356Y987D02*
X2407Y987D01*
X2407Y935D01*
X2356Y935D01*
X2356Y987D01*
G37*
D02*
G36*
X856Y1065D02*
X907Y1065D01*
X907Y1013D01*
X856Y1013D01*
X856Y1065D01*
G37*
D02*
G04 End of Copper0*
M02*