G04 MADE WITH FRITZING*
G04 WWW.FRITZING.ORG*
G04 DOUBLE SIDED*
G04 HOLES PLATED*
G04 CONTOUR ON CENTER OF CONTOUR VECTOR*
%ASAXBY*%
%FSLAX23Y23*%
%MOIN*%
%OFA0B0*%
%SFA1.0B1.0*%
%ADD10C,0.085000*%
%ADD11C,0.080000*%
%ADD12C,0.135984*%
%ADD13C,0.100551*%
%ADD14C,0.099764*%
%ADD15R,0.100551X0.100551*%
%LNMASK1*%
G90*
G70*
G54D10*
X283Y1748D03*
X683Y1748D03*
X783Y1748D03*
X1183Y1748D03*
X1283Y1748D03*
X1683Y1748D03*
X1783Y1748D03*
X2183Y1748D03*
X2283Y1748D03*
X2683Y1748D03*
X1783Y348D03*
X2183Y348D03*
X1783Y448D03*
X2183Y448D03*
X1783Y548D03*
X2183Y548D03*
X1783Y648D03*
X2183Y648D03*
G54D11*
X2183Y748D03*
X2183Y848D03*
G54D12*
X2945Y106D03*
X2945Y1948D03*
X107Y104D03*
X107Y1948D03*
G54D13*
X2183Y998D03*
X2183Y1298D03*
X2283Y998D03*
X2283Y1298D03*
X2383Y998D03*
X2383Y1298D03*
X2483Y998D03*
X2483Y1298D03*
X2583Y998D03*
X2583Y1298D03*
X2683Y998D03*
X2683Y1298D03*
X2783Y998D03*
X2783Y1298D03*
X2883Y998D03*
X2883Y1298D03*
X1233Y998D03*
X1233Y1298D03*
X1333Y998D03*
X1333Y1298D03*
X1433Y998D03*
X1433Y1298D03*
X1533Y998D03*
X1533Y1298D03*
X1633Y998D03*
X1633Y1298D03*
X1733Y998D03*
X1733Y1298D03*
X1833Y998D03*
X1833Y1298D03*
X1933Y998D03*
X1933Y1298D03*
X283Y998D03*
X283Y1298D03*
X383Y998D03*
X383Y1298D03*
X483Y998D03*
X483Y1298D03*
X583Y998D03*
X583Y1298D03*
X683Y998D03*
X683Y1298D03*
X783Y998D03*
X783Y1298D03*
X883Y998D03*
X883Y1298D03*
X983Y998D03*
X983Y1298D03*
X2783Y1548D03*
X2683Y848D03*
X1633Y848D03*
X1733Y848D03*
X683Y848D03*
X783Y848D03*
X283Y1448D03*
X983Y148D03*
X1933Y148D03*
X1933Y848D03*
X983Y848D03*
X483Y848D03*
X1233Y1848D03*
X283Y1848D03*
X2183Y1848D03*
X1233Y1548D03*
X283Y1548D03*
X2183Y1548D03*
X1933Y1948D03*
X983Y1948D03*
X1933Y1548D03*
X983Y1548D03*
X383Y1548D03*
X483Y1548D03*
X2283Y1548D03*
X2383Y1548D03*
X1333Y1548D03*
X1433Y1548D03*
X1233Y1448D03*
X2883Y1448D03*
X2183Y1448D03*
X1933Y1448D03*
X983Y1448D03*
X2883Y1548D03*
X2883Y848D03*
X2383Y1848D03*
G54D14*
X283Y598D03*
X283Y498D03*
G54D15*
X2183Y998D03*
X1233Y998D03*
X283Y998D03*
G04 End of Mask1*
M02*