; NON-PLATED HOLES START AT T1
; THROUGH (PLATED) HOLES START AT T100
M48
INCH
T1C0.125984
T100C0.030000
T101C0.027559
T102C0.035000
%
T1
X001069Y019480
X029450Y001062
X001069Y001038
X029450Y019480
T100
X021831Y008482
X021831Y007480
T101
X019332Y014480
X026831Y009980
X021831Y018480
X002832Y015480
X005832Y009980
X014332Y012980
X026831Y012980
X004832Y008480
X005832Y012980
X014332Y015480
X017332Y009980
X002832Y014480
X012332Y018480
X016332Y008480
X028831Y008480
X008832Y009980
X017332Y012980
X007832Y008480
X008832Y012980
X021831Y009980
X021831Y012980
X019332Y008480
X002832Y005980
X012332Y009980
X021831Y015480
X009832Y019480
X024831Y009980
X003832Y009980
X012332Y012980
X024831Y012980
X003832Y012980
X002832Y004980
X021831Y014480
X012332Y015480
X015332Y009980
X027831Y009980
X003832Y015480
X026831Y008480
X006832Y009980
X015332Y012980
X027831Y012980
X006832Y012980
X012332Y014480
X009832Y001480
X018332Y009980
X027831Y015480
X017332Y008480
X009832Y009980
X018332Y012980
X022831Y009980
X009832Y012980
X022831Y012980
X009832Y015480
X019332Y019480
X013332Y009980
X022831Y015480
X025831Y009980
X004832Y009980
X013332Y012980
X025831Y012980
X009832Y014480
X004832Y012980
X013332Y015480
X016332Y009980
X028831Y009980
X023831Y018480
X004832Y015480
X007832Y009980
X016332Y012980
X002832Y018480
X006832Y008480
X028831Y012980
X019332Y001480
X007832Y012980
X019332Y009980
X028831Y015480
X019332Y012980
X009832Y008480
X023831Y009980
X028831Y014480
X019332Y015480
X002832Y009980
X023831Y012980
X002832Y012980
X014332Y009980
X023831Y015480
T102
X021831Y005480
X026831Y017480
X011832Y017480
X021831Y006480
X002832Y017480
X017832Y003480
X012832Y017480
X021831Y017480
X022831Y017480
X017832Y004480
X006832Y017480
X017832Y005480
X021831Y003480
X016832Y017480
X017832Y006480
X007832Y017480
X021831Y004480
X017832Y017480
T00
M30
