; NON-PLATED HOLES START AT T1
; THROUGH (PLATED) HOLES START AT T100
M48
INCH
T1C0.125984
T100C0.027559
%
T1
X027250Y055681
X001250Y001181
X001250Y028681
X001250Y055681
X027250Y001181
X027250Y028681
T100
X008750Y033681
X013763Y018693
X011250Y024681
X018763Y020693
X003750Y038681
X018750Y048681
X024750Y006681
X008750Y040681
X024750Y025681
X018763Y019693
X024750Y044681
X011250Y031681
X016250Y025681
X011250Y050681
X006250Y047681
X020750Y005681
X008750Y039681
X020750Y024681
X011250Y049681
X024750Y013681
X024750Y032681
X016250Y013681
X024750Y051681
X016250Y032681
X008750Y027681
X020750Y012681
X013763Y020693
X013750Y048681
X018750Y031681
X003750Y040681
X008750Y034681
X013763Y019693
X024750Y038681
X011250Y025681
X016250Y038681
X003750Y039681
X018750Y049681
X008750Y041681
X024750Y026681
X011250Y032681
X016250Y026681
X006250Y048681
X013750Y024681
X020750Y006681
X020750Y025681
X024750Y014681
X024750Y033681
X016250Y014681
X024750Y052681
X016250Y033681
X013750Y012681
X013750Y031681
X013750Y050681
X020750Y013681
X008750Y047681
X011250Y038681
X024750Y002681
X013763Y021693
X024750Y040681
X013750Y049681
X016250Y040681
X018750Y032681
X003750Y041681
X024750Y039681
X011250Y026681
X016250Y039681
X006250Y050681
X020750Y038681
X024750Y027681
X011250Y033681
X016250Y027681
X006250Y049681
X013750Y025681
X020750Y007681
X003750Y047681
X020750Y026681
X024750Y034681
X016250Y015681
X024750Y053681
X011250Y040681
X016250Y034681
X013750Y013681
X013750Y032681
X020750Y014681
X008750Y048681
X011250Y039681
X024750Y003681
X024750Y041681
X016250Y041681
X018750Y033681
X011250Y027681
X020750Y040681
X024750Y010681
X013750Y038681
X020750Y039681
X008750Y024681
X024750Y028681
X024750Y047681
X011250Y034681
X016250Y047681
X013750Y026681
X003750Y048681
X024763Y018693
X016263Y018693
X008750Y031681
X008750Y050681
X024750Y035681
X011250Y041681
X006250Y038681
X013750Y014681
X013750Y033681
X008750Y049681
X024750Y042681
X013750Y040681
X011250Y047681
X013750Y039681
X008750Y025681
X003750Y050681
X024763Y020693
X024750Y048681
X016263Y020693
X016250Y048681
X013750Y027681
X003750Y049681
X024763Y019693
X018750Y010681
X006250Y040681
X016263Y019693
X008750Y032681
X018750Y009681
X006250Y039681
X013750Y015681
X013750Y034681
X018750Y047681
X024750Y024681
X018763Y018693
X024750Y043681
X016250Y024681
X013750Y041681
X008750Y038681
X011250Y048681
X024750Y012681
X024750Y031681
X016250Y012681
X024750Y050681
X016250Y031681
X016250Y050681
X008750Y026681
X024750Y049681
X016263Y021693
X016250Y049681
X013750Y047681
X018750Y011681
X006250Y041681
T00
M30
