  0
SECTION
  2
HEADER
  9
$ACADVER
  1
AC1009
  9
$DWGCODEPAGE
  3
ansi_1252
  9
$INSBASE
 10
0.0
 20
0.0
 30
0.0
  9
$EXTMIN
 10
39.67536472230358
 20
-234.7374221332096
 30
0.0
  9
$EXTMAX
 10
689.5764783762654
 20
152.6487350233646
 30
0.0
  9
$LIMMIN
 10
0.0
 20
0.0
  9
$LIMMAX
 10
2000.0
 20
3000.0
  9
$ORTHOMODE
 70
     0
  9
$REGENMODE
 70
     1
  9
$FILLMODE
 70
     1
  9
$QTEXTMODE
 70
     0
  9
$MIRRTEXT
 70
     0
  9
$DRAGMODE
 70
     2
  9
$LTSCALE
 40
1.0
  9
$OSMODE
 70
  8359
  9
$ATTMODE
 70
     1
  9
$TEXTSIZE
 40
5.0
  9
$TRACEWID
 40
1.0
  9
$TEXTSTYLE
  7
STANDARD
  9
$CLAYER
  8
DEFPOINTS
  9
$CELTYPE
  6
BYLAYER
  9
$CECOLOR
 62
   256
  9
$DIMSCALE
 40
1.0
  9
$DIMASZ
 40
2.5
  9
$DIMEXO
 40
0.625
  9
$DIMDLI
 40
3.75
  9
$DIMRND
 40
0.0
  9
$DIMDLE
 40
0.0
  9
$DIMEXE
 40
1.25
  9
$DIMTP
 40
0.0
  9
$DIMTM
 40
0.0
  9
$DIMTXT
 40
2.5
  9
$DIMCEN
 40
2.5
  9
$DIMTSZ
 40
0.0
  9
$DIMTOL
 70
     0
  9
$DIMLIM
 70
     0
  9
$DIMTIH
 70
     0
  9
$DIMTOH
 70
     0
  9
$DIMSE1
 70
     0
  9
$DIMSE2
 70
     0
  9
$DIMTAD
 70
     1
  9
$DIMZIN
 70
     0
  9
$DIMBLK
  1

  9
$DIMASO
 70
     1
  9
$DIMSHO
 70
     1
  9
$DIMPOST
  1

  9
$DIMAPOST
  1

  9
$DIMALT
 70
     0
  9
$DIMALTD
 70
     3
  9
$DIMALTF
 40
0.03937007874016
  9
$DIMLFAC
 40
1.0
  9
$DIMTOFL
 70
     1
  9
$DIMTVP
 40
0.0
  9
$DIMTIX
 70
     0
  9
$DIMSOXD
 70
     0
  9
$DIMSAH
 70
     0
  9
$DIMBLK1
  1

  9
$DIMBLK2
  1

  9
$DIMSTYLE
  2
ISO-25
  9
$DIMCLRD
 70
     0
  9
$DIMCLRE
 70
     0
  9
$DIMCLRT
 70
     0
  9
$DIMTFAC
 40
1.0
  9
$DIMGAP
 40
0.625
  9
$LUNITS
 70
     2
  9
$LUPREC
 70
     2
  9
$SKETCHINC
 40
1.0
  9
$FILLETRAD
 40
3.0
  9
$AUNITS
 70
     0
  9
$AUPREC
 70
     0
  9
$MENU
  1
.
  9
$ELEVATION
 40
0.0
  9
$PELEVATION
 40
0.0
  9
$THICKNESS
 40
0.0
  9
$LIMCHECK
 70
     0
  9
$CHAMFERA
 40
10.0
  9
$CHAMFERB
 40
10.0
  9
$SKPOLY
 70
     0
  9
$TDCREATE
 40
2455022.679026169
  9
$TDUPDATE
 40
2456641.850787037
  9
$TDINDWG
 40
0.0000115625
  9
$TDUSRTIMER
 40
2456641.808287037
  9
$USRTIMER
 70
     1
  9
$ANGBASE
 50
0.0
  9
$ANGDIR
 70
     0
  9
$PDMODE
 70
     0
  9
$PDSIZE
 40
0.0
  9
$PLINEWID
 40
0.0
  9
$COORDS
 70
     1
  9
$SPLFRAME
 70
     0
  9
$SPLINETYPE
 70
     6
  9
$SPLINESEGS
 70
     8
  9
$ATTDIA
 70
     0
  9
$ATTREQ
 70
     1
  9
$HANDLING
 70
     1
  9
$HANDSEED
  5
B88
  9
$SURFTAB1
 70
     6
  9
$SURFTAB2
 70
     6
  9
$SURFTYPE
 70
     6
  9
$SURFU
 70
     6
  9
$SURFV
 70
     6
  9
$UCSNAME
  2

  9
$UCSORG
 10
-16.45952913064306
 20
-57.99904574530731
 30
0.0
  9
$UCSXDIR
 10
1.0
 20
0.0
 30
0.0
  9
$UCSYDIR
 10
0.0
 20
1.0
 30
0.0
  9
$PUCSNAME
  2

  9
$PUCSORG
 10
0.0
 20
0.0
 30
0.0
  9
$PUCSXDIR
 10
1.0
 20
0.0
 30
0.0
  9
$PUCSYDIR
 10
0.0
 20
1.0
 30
0.0
  9
$USERI1
 70
     0
  9
$USERI2
 70
     0
  9
$USERI3
 70
     0
  9
$USERI4
 70
     0
  9
$USERI5
 70
     0
  9
$USERR1
 40
0.0
  9
$USERR2
 40
0.0
  9
$USERR3
 40
0.0
  9
$USERR4
 40
0.0
  9
$USERR5
 40
0.0
  9
$WORLDVIEW
 70
     1
  9
$SHADEDGE
 70
     3
  9
$SHADEDIF
 70
    70
  9
$TILEMODE
 70
     1
  9
$MAXACTVP
 70
    64
  9
$PLIMCHECK
 70
     0
  9
$PEXTMIN
 10
1.000000000000000E+20
 20
1.000000000000000E+20
 30
1.000000000000000E+20
  9
$PEXTMAX
 10
-1.000000000000000E+20
 20
-1.000000000000000E+20
 30
-1.000000000000000E+20
  9
$PLIMMIN
 10
-7.5
 20
-20.0
  9
$PLIMMAX
 10
412.5
 20
277.0
  9
$UNITMODE
 70
     0
  9
$VISRETAIN
 70
     1
  9
$PLINEGEN
 70
     0
  9
$PSLTSCALE
 70
     1
  0
ENDSEC
  0
SECTION
  2
TABLES
  0
TABLE
  2
VPORT
 70
     1
  0
VPORT
  2
*ACTIVE
 70
     0
 10
0.0
 20
0.0
 11
1.0
 21
1.0
 12
37293435902.35505
 22
13071921046.9344
 13
0.0
 23
0.0
 14
5.0
 24
5.0
 15
10.0
 25
10.0
 16
0.0
 26
0.0
 36
1.0
 17
-37293434342.211
 27
-13071921353.04005
 37
0.0
 40
1507.316132734953
 41
2.158458244111349
 42
50.0
 43
0.0
 44
0.0
 50
0.0
 51
0.0
 71
    16
 72
  1000
 73
     1
 74
     3
 75
     0
 76
     0
 77
     0
 78
     0
  0
ENDTAB
  0
TABLE
  2
LTYPE
 70
     2
  0
LTYPE
  2
CONTINUOUS
 70
     0
  3
Solid line
 72
    65
 73
     0
 40
0.0
  0
LTYPE
  2
DOTTED
 70
     0
  3
Dotted . . . . . . . . . . . . . . . . . . . . 
 72
    65
 73
     2
 40
6.35
 49
0.0
 49
-6.35
  0
ENDTAB
  0
TABLE
  2
LAYER
 70
     7
  0
LAYER
  2
0
 70
     0
 62
     7
  6
CONTINUOUS
  0
LAYER
  2
GUIDES
 70
     0
 62
    -6
  6
CONTINUOUS
  0
LAYER
  2
DIMENSIONS
 70
     0
 62
    -1
  6
DOTTED
  0
LAYER
  2
DEFPOINTS
 70
     0
 62
    -7
  6
CONTINUOUS
  0
LAYER
  2
FIXIT
 70
     0
 62
    -3
  6
CONTINUOUS
  0
LAYER
  2
TEXT
 70
     0
 62
     5
  6
CONTINUOUS
  0
LAYER
  2
SIDEGUIDES
 70
     0
 62
    -4
  6
CONTINUOUS
  0
ENDTAB
  0
TABLE
  2
STYLE
 70
     1
  0
STYLE
  2
STANDARD
 70
     0
 40
5.0
 41
1.0
 50
0.0
 71
     0
 42
5.0
  3
FreeSans.ttf
  4

  0
ENDTAB
  0
TABLE
  2
VIEW
 70
     0
  0
ENDTAB
  0
TABLE
  2
UCS
 70
     0
  0
ENDTAB
  0
TABLE
  2
APPID
 70
     3
  0
APPID
  2
ACAD
 70
     0
  0
APPID
  2
ACAECLAYERSTANDARD
 70
     0
  0
APPID
  2
ACAD_DSTYLE_DIMRADIAL_EXTE
 70
     0
  0
ENDTAB
  0
TABLE
  2
DIMSTYLE
 70
     1
  0
DIMSTYLE
  2
ISO-25
 70
     0
  3

  4

  5

  6

  7

 40
1.0
 41
2.5
 42
0.625
 43
3.75
 44
1.25
 45
0.0
 46
0.0
 47
0.0
 48
0.0
140
2.5
141
2.5
142
0.0
143
0.03937007874016
144
1.0
145
0.0
146
1.0
147
0.625
 71
     0
 72
     0
 73
     0
 74
     0
 75
     0
 76
     0
 77
     1
 78
     0
170
     0
171
     3
172
     1
173
     0
174
     0
175
     0
176
     0
177
     0
178
     0
  0
ENDTAB
  0
ENDSEC
  0
SECTION
  2
BLOCKS
  0
BLOCK
  8
0
  2
$MODEL_SPACE
 70
     0
 10
0.0
 20
0.0
 30
0.0
  3
$MODEL_SPACE
  1

  0
ENDBLK
  5
21
  8
0
  0
BLOCK
 67
     1
  8
0
  2
$PAPER_SPACE
 70
     0
 10
0.0
 20
0.0
 30
0.0
  3
$PAPER_SPACE
  1

  0
ENDBLK
  5
1D
 67
     1
  8
0
  0
BLOCK
  8
0
  2
*D15
 70
     1
 10
0.0
 20
0.0
 30
0.0
  3
*D15
  1

  0
LINE
  5
233
  8
DIMENSIONS
 62
     0
 10
227.8436708671597
 20
109.6131852985933
 30
0.0
 11
220.0393057180474
 21
113.2524205346623
 31
0.0
  0
LINE
  5
234
  8
DIMENSIONS
 62
     0
 10
215.1651230149386
 20
82.42395168749374
 30
0.0
 11
207.3607578658263
 21
86.0631869235628
 31
0.0
  0
LINE
  5
235
  8
DIMENSIONS
 62
     0
 10
220.1156447974914
 20
110.4583782398948
 30
0.0
 11
209.5501882539739
 21
87.80068356397855
 31
0.0
  0
SOLID
  5
236
  8
DIMENSIONS
 62
     0
 10
220.49327304209
 20
110.2822872975028
 30
0.0
 11
219.7380165528928
 21
110.6344691822868
 31
0.0
 12
221.1721904518432
 22
112.7241477074864
 32
0.0
 13
221.1721904518432
 23
112.7241477074864
 33
0.0
  0
SOLID
  5
237
  8
DIMENSIONS
 62
     0
 10
209.1725600093753
 20
87.97677450637052
 30
0.0
 11
209.9278164985725
 21
87.62459262158659
 31
0.0
 12
208.4936425996221
 22
85.53491409638693
 32
0.0
 13
208.4936425996221
 23
85.53491409638693
 33
0.0
  0
TEXT
  5
238
  8
DIMENSIONS
  6
CONTINUOUS
 62
     0
 10
209.6797133969754
 20
89.93743982311659
 30
0.0
 40
5.0
  1
30.000
 50
64.99999999999991
  0
POINT
  5
239
  8
DEFPOINTS
 62
     0
 10
228.4101132340576
 20
109.3490488850053
 30
0.0
  0
POINT
  5
23A
  8
DEFPOINTS
 62
     0
 10
215.7315653818365
 20
82.1598152739058
 30
0.0
  0
POINT
  5
23B
  8
DEFPOINTS
 62
     0
 10
208.4936425996221
 20
85.53491409638693
 30
0.0
  0
ENDBLK
  5
232
  8
0
  0
BLOCK
  8
0
  2
*D27
 70
     1
 10
0.0
 20
0.0
 30
0.0
  3
*D27
  1

  0
LINE
  5
31D
  8
DIMENSIONS
 62
     0
 10
229.0346417256583
 20
109.3733215688067
 30
0.0
 11
229.659170217259
 21
109.3975942526081
 31
0.0
  0
LINE
  5
31E
  8
DIMENSIONS
 62
     0
 10
231.8923832768228
 20
35.84453361378597
 30
0.0
 11
232.5169117684235
 21
35.86880629758738
 31
0.0
  0
LINE
  5
31F
  8
DIMENSIONS
 62
     0
 10
228.5072039692632
 20
106.8509349186024
 30
0.0
 11
231.1707640500164
 21
38.31837489638745
 31
0.0
  0
SOLID
  5
320
  8
DIMENSIONS
 62
     0
 10
228.923556296997
 20
106.8671167078034
 30
0.0
 11
228.0908516415294
 21
106.8347531294015
 31
0.0
 12
228.4101132340576
 22
109.3490488850053
 32
0.0
 13
228.4101132340576
 23
109.3490488850053
 33
0.0
  0
SOLID
  5
321
  8
DIMENSIONS
 62
     0
 10
230.7544117222826
 20
38.30219310718651
 30
0.0
 11
231.5871163777502
 21
38.3345566855884
 31
0.0
 12
231.2678547852221
 22
35.82026092998456
 32
0.0
 13
231.2678547852221
 23
35.82026092998456
 33
0.0
  0
TEXT
  5
322
  8
DIMENSIONS
  6
CONTINUOUS
 62
     0
 10
230.2133153755879
 20
83.1828238284088
 30
0.0
 40
5.0
  1
73.584
 50
272.225715474219
  0
POINT
  5
323
  8
DEFPOINTS
 62
     0
 10
228.4101132340576
 20
109.3490488850053
 30
0.0
  0
POINT
  5
324
  8
DEFPOINTS
 62
     0
 10
231.2678547852221
 20
35.82026092998456
 30
0.0
  0
POINT
  5
325
  8
DEFPOINTS
 62
     0
 10
231.2678547852221
 20
35.82026092998456
 30
0.0
  0
ENDBLK
  5
31C
  8
0
  0
BLOCK
  8
0
  2
*D28
 70
     1
 10
0.0
 20
0.0
 30
0.0
  3
*D28
  1

  0
LINE
  5
351
  8
DIMENSIONS
 62
     0
 10
228.9765556009555
 20
105.77477871453
 30
0.0
 11
229.5429979678534
 21
105.510642300942
 31
0.0
  0
LINE
  5
352
  8
DIMENSIONS
 62
     0
 10
227.7087008157333
 20
103.05585535342
 30
0.0
 11
228.2751431826312
 21
102.7917189398321
 31
0.0
  0
LINE
  5
353
  8
DIMENSIONS
 62
     0
 10
226.0857127944836
 20
101.0542222994164
 30
0.0
 11
217.5166607906145
 21
82.67783097491335
 31
0.0
  0
LINE
  5
354
  8
DIMENSIONS
 62
     0
 10
228.4101132340576
 20
106.0389151281179
 30
0.0
 11
227.1422584488354
 21
103.319991767008
 31
0.0
  0
LINE
  5
355
  8
DIMENSIONS
 62
     0
 10
229.4666588884094
 20
108.3046845957095
 30
0.0
 11
230.5232045427612
 21
110.5704540633011
 31
0.0
  0
SOLID
  5
356
  8
DIMENSIONS
 62
     0
 10
229.0890306438108
 20
108.4807755381015
 30
0.0
 11
229.844287133008
 21
108.1285936533176
 31
0.0
 12
228.4101132340576
 22
106.0389151281179
 32
0.0
 13
228.4101132340576
 23
106.0389151281179
 33
0.0
  0
SOLID
  5
357
  8
DIMENSIONS
 62
     0
 10
226.4633410390823
 20
100.8781313570244
 30
0.0
 11
225.708084549885
 21
101.2303132418083
 31
0.0
 12
227.1422584488354
 22
103.319991767008
 32
0.0
 13
227.1422584488354
 23
103.319991767008
 33
0.0
  0
TEXT
  5
358
  8
DIMENSIONS
  6
CONTINUOUS
 62
     0
 10
216.9244959468249
 20
83.26691806291527
 30
0.0
 40
5.0
  1
3.000
 50
64.9999999999991
  0
POINT
  5
359
  8
DEFPOINTS
 62
     0
 10
228.4101132340576
 20
106.0389151281179
 30
0.0
  0
POINT
  5
35A
  8
DEFPOINTS
 62
     0
 10
227.1422584488354
 20
103.319991767008
 30
0.0
  0
POINT
  5
35B
  8
DEFPOINTS
 62
     0
 10
227.1422584488354
 20
103.319991767008
 30
0.0
  0
ENDBLK
  5
350
  8
0
  0
BLOCK
  8
0
  2
*D29
 70
     1
 10
0.0
 20
0.0
 30
0.0
  3
*D29
  1

  0
LINE
  5
362
  8
DIMENSIONS
 62
     0
 10
228.9765556009555
 20
102.4646449576425
 30
0.0
 11
229.5429979678534
 21
102.2005085440546
 31
0.0
  0
LINE
  5
363
  8
DIMENSIONS
 62
     0
 10
227.7087008157334
 20
99.74572159653256
 30
0.0
 11
228.2751431826313
 21
99.48158518294464
 31
0.0
  0
LINE
  5
364
  8
DIMENSIONS
 62
     0
 10
226.0857127944837
 20
97.74408854252889
 30
0.0
 11
217.5166607906149
 21
79.36769721802567
 31
0.0
  0
LINE
  5
365
  8
DIMENSIONS
 62
     0
 10
228.4101132340575
 20
102.7287813712305
 30
0.0
 11
227.1422584488355
 21
100.0098580101205
 31
0.0
  0
LINE
  5
366
  8
DIMENSIONS
 62
     0
 10
229.4666588884093
 20
104.9945508388221
 30
0.0
 11
230.523204542761
 21
107.2603203064137
 31
0.0
  0
SOLID
  5
367
  8
DIMENSIONS
 62
     0
 10
229.0890306438107
 20
105.170641781214
 30
0.0
 11
229.8442871330079
 21
104.8184598964301
 31
0.0
 12
228.4101132340575
 22
102.7287813712305
 32
0.0
 13
228.4101132340575
 23
102.7287813712305
 33
0.0
  0
SOLID
  5
368
  8
DIMENSIONS
 62
     0
 10
226.4633410390823
 20
97.56799760013693
 30
0.0
 11
225.7080845498851
 21
97.92017948492084
 31
0.0
 12
227.1422584488355
 22
100.0098580101205
 32
0.0
 13
227.1422584488355
 23
100.0098580101205
 33
0.0
  0
TEXT
  5
369
  8
DIMENSIONS
  6
CONTINUOUS
 62
     0
 10
216.9244959468253
 20
79.95678430602766
 30
0.0
 40
5.0
  1
3.000
 50
65.00000000000031
  0
POINT
  5
36A
  8
DEFPOINTS
 62
     0
 10
228.4101132340576
 20
102.7287813712305
 30
0.0
  0
POINT
  5
36B
  8
DEFPOINTS
 62
     0
 10
227.1422584488355
 20
100.0098580101205
 30
0.0
  0
POINT
  5
36C
  8
DEFPOINTS
 62
     0
 10
227.1422584488355
 20
100.0098580101205
 30
0.0
  0
ENDBLK
  5
361
  8
0
  0
BLOCK
  8
0
  2
*D30
 70
     1
 10
0.0
 20
0.0
 30
0.0
  3
*D30
  1

  0
LINE
  5
373
  8
DIMENSIONS
 62
     0
 10
228.9765556009555
 20
99.15451120075504
 30
0.0
 11
229.5429979678534
 21
98.89037478716709
 31
0.0
  0
LINE
  5
374
  8
DIMENSIONS
 62
     0
 10
227.7087008157333
 20
96.43558783964511
 30
0.0
 11
228.2751431826312
 21
96.17145142605716
 31
0.0
  0
LINE
  5
375
  8
DIMENSIONS
 62
     0
 10
226.0857127944836
 20
94.43395478564145
 30
0.0
 11
217.5166607906145
 21
76.05756346113841
 31
0.0
  0
LINE
  5
376
  8
DIMENSIONS
 62
     0
 10
228.4101132340576
 20
99.41864761434299
 30
0.0
 11
227.1422584488354
 21
96.69972425323306
 31
0.0
  0
LINE
  5
377
  8
DIMENSIONS
 62
     0
 10
229.4666588884094
 20
101.6844170819346
 30
0.0
 11
230.5232045427612
 21
103.9501865495262
 31
0.0
  0
SOLID
  5
378
  8
DIMENSIONS
 62
     0
 10
229.0890306438108
 20
101.8605080243266
 30
0.0
 11
229.844287133008
 21
101.5083261395426
 31
0.0
 12
228.4101132340576
 22
99.41864761434299
 32
0.0
 13
228.4101132340576
 23
99.41864761434299
 33
0.0
  0
SOLID
  5
379
  8
DIMENSIONS
 62
     0
 10
226.4633410390823
 20
94.25786384324948
 30
0.0
 11
225.708084549885
 21
94.61004572803341
 31
0.0
 12
227.1422584488354
 22
96.69972425323306
 32
0.0
 13
227.1422584488354
 23
96.69972425323306
 33
0.0
  0
TEXT
  5
37A
  8
DIMENSIONS
  6
CONTINUOUS
 62
     0
 10
216.9244959468249
 20
76.64665054914033
 30
0.0
 40
5.0
  1
3.000
 50
64.9999999999991
  0
POINT
  5
37B
  8
DEFPOINTS
 62
     0
 10
228.4101132340576
 20
99.41864761434299
 30
0.0
  0
POINT
  5
37C
  8
DEFPOINTS
 62
     0
 10
227.1422584488354
 20
96.69972425323306
 30
0.0
  0
POINT
  5
37D
  8
DEFPOINTS
 62
     0
 10
227.1422584488354
 20
96.69972425323306
 30
0.0
  0
ENDBLK
  5
372
  8
0
  0
BLOCK
  8
0
  2
*D31
 70
     1
 10
0.0
 20
0.0
 30
0.0
  3
*D31
  1

  0
LINE
  5
384
  8
DIMENSIONS
 62
     0
 10
231.7775984115963
 20
25.31341879044395
 30
0.0
 11
231.1544573041747
 21
25.26525074874154
 31
0.0
  0
LINE
  5
385
  8
DIMENSIONS
 62
     0
 10
226.5191173414139
 20
93.34142245464318
 30
0.0
 11
225.8959762339923
 21
93.29325441294077
 31
0.0
  0
LINE
  5
386
  8
DIMENSIONS
 62
     0
 10
232.2080673522082
 20
27.85415126183256
 30
0.0
 11
227.3349306156451
 21
90.8970260666594
 31
0.0
  0
SOLID
  5
387
  8
DIMENSIONS
 62
     0
 10
231.7926399472605
 20
27.82203923403095
 30
0.0
 11
232.6234947571559
 21
27.88626328963416
 31
0.0
 12
232.4007395190178
 22
25.36158683214636
 32
0.0
 13
232.4007395190178
 23
25.36158683214636
 33
0.0
  0
SOLID
  5
388
  8
DIMENSIONS
 62
     0
 10
227.7503580205928
 20
90.929138094461
 30
0.0
 11
226.9195032106974
 21
90.86491403885779
 31
0.0
 12
227.1422584488354
 22
93.38959049634559
 32
0.0
 13
227.1422584488354
 23
93.38959049634559
 33
0.0
  0
TEXT
  5
389
  8
DIMENSIONS
  6
CONTINUOUS
 62
     0
 10
229.7864375581474
 20
69.37636406878917
 30
0.0
 40
5.0
  1
68.231
 50
274.4201037969898
  0
POINT
  5
38A
  8
DEFPOINTS
 62
     0
 10
232.4007395190178
 20
25.36158683214636
 30
0.0
  0
POINT
  5
38B
  8
DEFPOINTS
 62
     0
 10
227.1422584488354
 20
93.38959049634559
 30
0.0
  0
POINT
  5
38C
  8
DEFPOINTS
 62
     0
 10
227.1422584488354
 20
93.38959049634559
 30
0.0
  0
ENDBLK
  5
383
  8
0
  0
BLOCK
  8
0
  2
*D32
 70
     1
 10
0.0
 20
0.0
 30
0.0
  3
*D32
  1

  0
LINE
  5
395
  8
DIMENSIONS
 62
     0
 10
227.8436708671597
 20
93.06251651415599
 30
0.0
 11
227.1525340482783
 21
93.38479890563322
 31
0.0
  0
LINE
  5
396
  8
DIMENSIONS
 62
     0
 10
226.5758160819376
 20
90.343593153046
 30
0.0
 11
225.8846792630563
 21
90.66587554452323
 31
0.0
  0
LINE
  5
397
  8
DIMENSIONS
 62
     0
 10
225.9610183425004
 20
87.87183324975575
 30
0.0
 11
217.3919663386318
 21
69.49544192525244
 31
0.0
  0
LINE
  5
398
  8
DIMENSIONS
 62
     0
 10
228.2854187820741
 20
92.85652607845738
 30
0.0
 11
227.0175639968521
 21
90.13760271734739
 31
0.0
  0
LINE
  5
399
  8
DIMENSIONS
 62
     0
 10
229.3419644364259
 20
95.12229554604902
 30
0.0
 11
230.3985100907776
 21
97.38806501364066
 31
0.0
  0
SOLID
  5
39A
  8
DIMENSIONS
 62
     0
 10
228.9643361918272
 20
95.29838648844097
 30
0.0
 11
229.7195926810245
 21
94.94620460365707
 31
0.0
 12
228.2854187820741
 22
92.85652607845738
 32
0.0
 13
228.2854187820741
 23
92.85652607845738
 33
0.0
  0
SOLID
  5
39B
  8
DIMENSIONS
 62
     0
 10
226.338646587099
 20
87.6957423073638
 30
0.0
 11
225.5833900979018
 21
88.0479241921477
 31
0.0
 12
227.0175639968521
 22
90.13760271734739
 32
0.0
 13
227.0175639968521
 23
90.13760271734739
 33
0.0
  0
TEXT
  5
39C
  8
DIMENSIONS
  6
CONTINUOUS
 62
     0
 10
216.7998014948422
 20
70.08452901325435
 30
0.0
 40
5.0
  1
3.000
 50
65.00000000000104
  0
POINT
  5
39D
  8
DEFPOINTS
 62
     0
 10
228.4101132340576
 20
92.79838010056807
 30
0.0
  0
POINT
  5
39E
  8
DEFPOINTS
 62
     0
 10
227.1422584488355
 20
90.07945673945808
 30
0.0
  0
POINT
  5
39F
  8
DEFPOINTS
 62
     0
 10
227.0175639968521
 20
90.13760271734739
 30
0.0
  0
ENDBLK
  5
394
  8
0
  0
BLOCK
  8
0
  2
*D33
 70
     1
 10
0.0
 20
0.0
 30
0.0
  3
*D33
  1

  0
LINE
  5
3A6
  8
DIMENSIONS
 62
     0
 10
228.9765556009555
 20
89.22410993009265
 30
0.0
 11
229.5429979678534
 21
88.9599735165047
 31
0.0
  0
LINE
  5
3A7
  8
DIMENSIONS
 62
     0
 10
227.7087008157333
 20
86.50518656898272
 30
0.0
 11
228.2751431826312
 21
86.24105015539477
 31
0.0
  0
LINE
  5
3A8
  8
DIMENSIONS
 62
     0
 10
226.0857127944836
 20
84.50355351497906
 30
0.0
 11
217.5166607906145
 21
66.12716219047603
 31
0.0
  0
LINE
  5
3A9
  8
DIMENSIONS
 62
     0
 10
228.4101132340576
 20
89.4882463436806
 30
0.0
 11
227.1422584488354
 21
86.76932298257067
 31
0.0
  0
LINE
  5
3AA
  8
DIMENSIONS
 62
     0
 10
229.4666588884094
 20
91.75401581127221
 30
0.0
 11
230.5232045427612
 21
94.01978527886382
 31
0.0
  0
SOLID
  5
3AB
  8
DIMENSIONS
 62
     0
 10
229.0890306438108
 20
91.93010675366418
 30
0.0
 11
229.844287133008
 21
91.57792486888025
 31
0.0
 12
228.4101132340576
 22
89.4882463436806
 32
0.0
 13
228.4101132340576
 23
89.4882463436806
 33
0.0
  0
SOLID
  5
3AC
  8
DIMENSIONS
 62
     0
 10
226.4633410390823
 20
84.3274625725871
 30
0.0
 11
225.708084549885
 21
84.67964445737103
 31
0.0
 12
227.1422584488354
 22
86.76932298257067
 32
0.0
 13
227.1422584488354
 23
86.76932298257067
 33
0.0
  0
TEXT
  5
3AD
  8
DIMENSIONS
  6
CONTINUOUS
 62
     0
 10
216.9244959468249
 20
66.71624927847796
 30
0.0
 40
5.0
  1
3.000
 50
64.9999999999991
  0
POINT
  5
3AE
  8
DEFPOINTS
 62
     0
 10
228.4101132340576
 20
89.4882463436806
 30
0.0
  0
POINT
  5
3AF
  8
DEFPOINTS
 62
     0
 10
227.1422584488354
 20
86.76932298257067
 30
0.0
  0
POINT
  5
3B0
  8
DEFPOINTS
 62
     0
 10
227.1422584488354
 20
86.76932298257067
 30
0.0
  0
ENDBLK
  5
3A5
  8
0
  0
BLOCK
  8
0
  2
*D34
 70
     1
 10
0.0
 20
0.0
 30
0.0
  3
*D34
  1

  0
LINE
  5
3B7
  8
DIMENSIONS
 62
     0
 10
228.9765556009555
 20
85.91397617320519
 30
0.0
 11
229.5429979678534
 21
85.64983975961724
 31
0.0
  0
LINE
  5
3B8
  8
DIMENSIONS
 62
     0
 10
227.7087008157333
 20
83.19505281209524
 30
0.0
 11
228.2751431826312
 21
82.93091639850729
 31
0.0
  0
LINE
  5
3B9
  8
DIMENSIONS
 62
     0
 10
226.0857127944836
 20
81.19341975809158
 30
0.0
 11
217.5166607906145
 21
62.81702843358853
 31
0.0
  0
LINE
  5
3BA
  8
DIMENSIONS
 62
     0
 10
228.4101132340576
 20
86.17811258679313
 30
0.0
 11
227.1422584488354
 21
83.45918922568319
 31
0.0
  0
LINE
  5
3BB
  8
DIMENSIONS
 62
     0
 10
229.4666588884094
 20
88.44388205438474
 30
0.0
 11
230.5232045427612
 21
90.70965152197635
 31
0.0
  0
SOLID
  5
3BC
  8
DIMENSIONS
 62
     0
 10
229.0890306438108
 20
88.61997299677671
 30
0.0
 11
229.844287133008
 21
88.26779111199278
 31
0.0
 12
228.4101132340576
 22
86.17811258679313
 32
0.0
 13
228.4101132340576
 23
86.17811258679313
 33
0.0
  0
SOLID
  5
3BD
  8
DIMENSIONS
 62
     0
 10
226.4633410390823
 20
81.01732881569961
 30
0.0
 11
225.708084549885
 21
81.36951070048354
 31
0.0
 12
227.1422584488354
 22
83.45918922568319
 32
0.0
 13
227.1422584488354
 23
83.45918922568319
 33
0.0
  0
TEXT
  5
3BE
  8
DIMENSIONS
  6
CONTINUOUS
 62
     0
 10
216.9244959468249
 20
63.40611552159049
 30
0.0
 40
5.0
  1
3.000
 50
64.9999999999992
  0
POINT
  5
3BF
  8
DEFPOINTS
 62
     0
 10
228.4101132340576
 20
86.17811258679313
 30
0.0
  0
POINT
  5
3C0
  8
DEFPOINTS
 62
     0
 10
227.1422584488354
 20
83.45918922568319
 30
0.0
  0
POINT
  5
3C1
  8
DEFPOINTS
 62
     0
 10
227.1422584488354
 20
83.45918922568319
 30
0.0
  0
ENDBLK
  5
3B6
  8
0
  0
BLOCK
  8
0
  2
*D35
 70
     1
 10
0.0
 20
0.0
 30
0.0
  3
*D35
  1

  0
LINE
  5
3C8
  8
DIMENSIONS
 62
     0
 10
228.9765556009554
 20
82.60384241631776
 30
0.0
 11
229.5429979678533
 21
82.33970600272983
 31
0.0
  0
LINE
  5
3C9
  8
DIMENSIONS
 62
     0
 10
227.7087008157334
 20
79.88491905520782
 30
0.0
 11
228.2751431826312
 21
79.62078264161988
 31
0.0
  0
LINE
  5
3CA
  8
DIMENSIONS
 62
     0
 10
226.0857127944837
 20
77.88328600120413
 30
0.0
 11
217.5166607906148
 21
59.50689467670092
 31
0.0
  0
LINE
  5
3CB
  8
DIMENSIONS
 62
     0
 10
228.4101132340575
 20
82.8679788299057
 30
0.0
 11
227.1422584488354
 21
80.14905546879575
 31
0.0
  0
LINE
  5
3CC
  8
DIMENSIONS
 62
     0
 10
229.4666588884093
 20
85.13374829749732
 30
0.0
 11
230.523204542761
 21
87.39951776508894
 31
0.0
  0
SOLID
  5
3CD
  8
DIMENSIONS
 62
     0
 10
229.0890306438106
 20
85.30983923988927
 30
0.0
 11
229.8442871330079
 21
84.95765735510537
 31
0.0
 12
228.4101132340575
 22
82.8679788299057
 32
0.0
 13
228.4101132340575
 23
82.8679788299057
 33
0.0
  0
SOLID
  5
3CE
  8
DIMENSIONS
 62
     0
 10
226.4633410390823
 20
77.70719505881218
 30
0.0
 11
225.7080845498851
 21
78.05937694359608
 31
0.0
 12
227.1422584488354
 22
80.14905546879575
 32
0.0
 13
227.1422584488354
 23
80.14905546879575
 33
0.0
  0
TEXT
  5
3CF
  8
DIMENSIONS
  6
CONTINUOUS
 62
     0
 10
216.9244959468253
 20
60.09598176470286
 30
0.0
 40
5.0
  1
3.000
 50
65.00000000000018
  0
POINT
  5
3D0
  8
DEFPOINTS
 62
     0
 10
228.4101132340575
 20
82.8679788299057
 30
0.0
  0
POINT
  5
3D1
  8
DEFPOINTS
 62
     0
 10
227.1422584488354
 20
80.14905546879575
 30
0.0
  0
POINT
  5
3D2
  8
DEFPOINTS
 62
     0
 10
227.1422584488354
 20
80.14905546879575
 30
0.0
  0
ENDBLK
  5
3C7
  8
0
  0
BLOCK
  8
0
  2
*D36
 70
     1
 10
0.0
 20
0.0
 30
0.0
  3
*D36
  1

  0
LINE
  5
3D9
  8
DIMENSIONS
 62
     0
 10
228.9765556009554
 20
79.29370865943028
 30
0.0
 11
229.5429979678533
 21
79.02957224584235
 31
0.0
  0
LINE
  5
3DA
  8
DIMENSIONS
 62
     0
 10
227.7087008157333
 20
76.57478529832018
 30
0.0
 11
228.2751431826312
 21
76.31064888473225
 31
0.0
  0
LINE
  5
3DB
  8
DIMENSIONS
 62
     0
 10
226.0857127944836
 20
74.57315224431647
 30
0.0
 11
217.5166607906149
 21
56.19676091981323
 31
0.0
  0
LINE
  5
3DC
  8
DIMENSIONS
 62
     0
 10
228.4101132340575
 20
79.55784507301821
 30
0.0
 11
227.1422584488354
 21
76.83892171190811
 31
0.0
  0
LINE
  5
3DD
  8
DIMENSIONS
 62
     0
 10
229.4666588884093
 20
81.82361454060985
 30
0.0
 11
230.523204542761
 21
84.08938400820149
 31
0.0
  0
SOLID
  5
3DE
  8
DIMENSIONS
 62
     0
 10
229.0890306438106
 20
81.9997054830018
 30
0.0
 11
229.8442871330079
 21
81.6475235982179
 31
0.0
 12
228.4101132340575
 22
79.55784507301821
 32
0.0
 13
228.4101132340575
 23
79.55784507301821
 33
0.0
  0
SOLID
  5
3DF
  8
DIMENSIONS
 62
     0
 10
226.4633410390823
 20
74.39706130192452
 30
0.0
 11
225.708084549885
 21
74.74924318670843
 31
0.0
 12
227.1422584488354
 22
76.83892171190811
 32
0.0
 13
227.1422584488354
 23
76.83892171190811
 33
0.0
  0
TEXT
  5
3E0
  8
DIMENSIONS
  6
CONTINUOUS
 62
     0
 10
216.9244959468253
 20
56.78584800781516
 30
0.0
 40
5.0
  1
3.000
 50
65.00000000000048
  0
POINT
  5
3E1
  8
DEFPOINTS
 62
     0
 10
228.4101132340575
 20
79.55784507301821
 30
0.0
  0
POINT
  5
3E2
  8
DEFPOINTS
 62
     0
 10
227.1422584488354
 20
76.83892171190811
 30
0.0
  0
POINT
  5
3E3
  8
DEFPOINTS
 62
     0
 10
227.1422584488354
 20
76.83892171190811
 30
0.0
  0
ENDBLK
  5
3D8
  8
0
  0
BLOCK
  8
0
  2
*D37
 70
     1
 10
0.0
 20
0.0
 30
0.0
  3
*D37
  1

  0
LINE
  5
3EA
  8
DIMENSIONS
 62
     0
 10
227.4063948624235
 20
107.1965678907933
 30
0.0
 11
227.7272322902685
 21
107.8846059751654
 31
0.0
  0
LINE
  5
3EB
  8
DIMENSIONS
 62
     0
 10
228.6742496476455
 20
106.6053574950158
 30
0.0
 11
228.9950870754905
 21
107.2933955793879
 31
0.0
  0
LINE
  5
3EC
  8
DIMENSIONS
 62
     0
 10
230.7325837159063
 20
105.1039651912404
 30
0.0
 11
248.7389296922888
 21
96.70746816706492
 31
0.0
  0
LINE
  5
3ED
  8
DIMENSIONS
 62
     0
 10
227.1989594630926
 20
106.7517212413696
 30
0.0
 11
228.4668142483146
 21
106.1605108455921
 31
0.0
  0
LINE
  5
3EE
  8
DIMENSIONS
 62
     0
 10
224.933189995501
 20
107.8082668957213
 30
0.0
 11
222.6674205279093
 21
108.8648125500731
 31
0.0
  0
SOLID
  5
3EF
  8
DIMENSIONS
 62
     0
 10
224.757099053109
 20
107.4306386511227
 30
0.0
 11
225.1092809378929
 21
108.18589514032
 31
0.0
 12
227.1989594630926
 22
106.7517212413696
 32
0.0
 13
227.1989594630926
 23
106.7517212413696
 33
0.0
  0
SOLID
  5
3F0
  8
DIMENSIONS
 62
     0
 10
230.9086746582983
 20
105.481593435839
 30
0.0
 11
230.5564927735143
 21
104.7263369466418
 31
0.0
 12
228.4668142483146
 22
106.1605108455921
 32
0.0
 13
228.4668142483146
 23
106.1605108455921
 33
0.0
  0
TEXT
  5
3F1
  8
DIMENSIONS
  6
CONTINUOUS
 62
     0
 10
233.2052622890145
 20
104.8177969006894
 30
0.0
 40
5.0
  1
1.399
 50
335.0000000000005
  0
POINT
  5
3F2
  8
DEFPOINTS
 62
     0
 10
227.1422584488355
 20
106.6301255238954
 30
0.0
  0
POINT
  5
3F3
  8
DEFPOINTS
 62
     0
 10
228.4101132340576
 20
106.0389151281179
 30
0.0
  0
POINT
  5
3F4
  8
DEFPOINTS
 62
     0
 10
228.4668142483146
 20
106.1605108455921
 30
0.0
  0
ENDBLK
  5
3E9
  8
0
  0
BLOCK
  8
0
  2
*D38
 70
     1
 10
0.0
 20
0.0
 30
0.0
  3
*D38
  1

  0
LINE
  5
3FB
  8
DIMENSIONS
 62
     0
 10
227.4063948624234
 20
103.8864341339059
 30
0.0
 11
227.6705312760113
 21
104.4528765008038
 31
0.0
  0
LINE
  5
3FC
  8
DIMENSIONS
 62
     0
 10
228.6742496476455
 20
103.2952237381284
 30
0.0
 11
228.9383860612334
 21
103.8616661050263
 31
0.0
  0
LINE
  5
3FD
  8
DIMENSIONS
 62
     0
 10
230.6758827016492
 20
101.6722357168787
 30
0.0
 11
248.6822286780317
 21
93.27573869270323
 31
0.0
  0
LINE
  5
3FE
  8
DIMENSIONS
 62
     0
 10
227.1422584488354
 20
103.319991767008
 30
0.0
 11
228.4101132340576
 21
102.7287813712305
 31
0.0
  0
LINE
  5
3FF
  8
DIMENSIONS
 62
     0
 10
224.8764889812438
 20
104.3765374213597
 30
0.0
 11
222.6107195136522
 21
105.4330830757115
 31
0.0
  0
SOLID
  5
400
  8
DIMENSIONS
 62
     0
 10
224.7003980388518
 20
103.9989091767611
 30
0.0
 11
225.0525799236358
 21
104.7541656659583
 31
0.0
 12
227.1422584488354
 22
103.319991767008
 32
0.0
 13
227.1422584488354
 23
103.319991767008
 33
0.0
  0
SOLID
  5
401
  8
DIMENSIONS
 62
     0
 10
230.8519736440412
 20
102.0498639614773
 30
0.0
 11
230.4997917592572
 21
101.2946074722801
 31
0.0
 12
228.4101132340576
 22
102.7287813712305
 32
0.0
 13
228.4101132340576
 23
102.7287813712305
 33
0.0
  0
TEXT
  5
402
  8
DIMENSIONS
  6
CONTINUOUS
 62
     0
 10
233.1485612747574
 20
101.3860674263277
 30
0.0
 40
5.0
  1
1.399
 50
335.0000000000003
  0
POINT
  5
403
  8
DEFPOINTS
 62
     0
 10
227.1422584488354
 20
103.319991767008
 30
0.0
  0
POINT
  5
404
  8
DEFPOINTS
 62
     0
 10
228.4101132340576
 20
102.7287813712305
 30
0.0
  0
POINT
  5
405
  8
DEFPOINTS
 62
     0
 10
228.4101132340576
 20
102.7287813712305
 30
0.0
  0
ENDBLK
  5
3FA
  8
0
  0
BLOCK
  8
0
  2
*D39
 70
     1
 10
0.0
 20
0.0
 30
0.0
  3
*D39
  1

  0
LINE
  5
40C
  8
DIMENSIONS
 62
     0
 10
230.6458350093774
 20
29.17983501104723
 30
0.0
 11
230.0213529312103
 21
29.15439618151366
 31
0.0
  0
LINE
  5
40D
  8
DIMENSIONS
 62
     0
 10
227.7856311558904
 20
99.39320878480942
 30
0.0
 11
227.1611490777233
 21
99.36776995527586
 31
0.0
  0
LINE
  5
40E
  8
DIMENSIONS
 62
     0
 10
231.1685617694103
 20
31.70320215324939
 30
0.0
 11
228.5118685521918
 21
96.92071930167438
 31
0.0
  0
SOLID
  5
40F
  8
DIMENSIONS
 62
     0
 10
230.7522403839656
 20
31.68624293356035
 30
0.0
 11
231.5848831548551
 21
31.72016137293843
 31
0.0
 12
231.2703170875446
 22
29.20527384058079
 32
0.0
 13
231.2703170875446
 23
29.20527384058079
 33
0.0
  0
SOLID
  5
410
  8
DIMENSIONS
 62
     0
 10
228.9281899376366
 20
96.93767852136342
 30
0.0
 11
228.0955471667471
 21
96.90376008198534
 31
0.0
 12
228.4101132340576
 22
99.41864761434299
 32
0.0
 13
228.4101132340576
 23
99.41864761434299
 33
0.0
  0
TEXT
  5
411
  8
DIMENSIONS
  6
CONTINUOUS
 62
     0
 10
230.1961179978506
 20
74.87737069511664
 30
0.0
 40
5.0
  1
70.272
 50
272.3327044956927
  0
POINT
  5
412
  8
DEFPOINTS
 62
     0
 10
231.2703170875446
 20
29.20527384058079
 30
0.0
  0
POINT
  5
413
  8
DEFPOINTS
 62
     0
 10
228.4101132340576
 20
99.41864761434299
 30
0.0
  0
POINT
  5
414
  8
DEFPOINTS
 62
     0
 10
228.4101132340576
 20
99.41864761434299
 30
0.0
  0
ENDBLK
  5
40B
  8
0
  0
BLOCK
  8
0
  2
*D40
 70
     1
 10
0.0
 20
0.0
 30
0.0
  3
*D40
  1

  0
LINE
  5
41D
  8
DIMENSIONS
 62
     0
 10
227.4063948624234
 20
97.26616662013096
 30
0.0
 11
227.6705312760113
 21
97.83260898702886
 31
0.0
  0
LINE
  5
41E
  8
DIMENSIONS
 62
     0
 10
228.6742496476455
 20
96.6749562243534
 30
0.0
 11
228.9383860612335
 21
97.2413985912513
 31
0.0
  0
LINE
  5
41F
  8
DIMENSIONS
 62
     0
 10
230.6758827016492
 20
95.05196820310371
 30
0.0
 11
248.6822286780315
 21
86.6554711789279
 31
0.0
  0
LINE
  5
420
  8
DIMENSIONS
 62
     0
 10
227.1422584488354
 20
96.69972425323306
 30
0.0
 11
228.4101132340576
 21
96.10851385745549
 31
0.0
  0
LINE
  5
421
  8
DIMENSIONS
 62
     0
 10
224.8764889812438
 20
97.75626990758484
 30
0.0
 11
222.6107195136522
 21
98.81281556193662
 31
0.0
  0
SOLID
  5
422
  8
DIMENSIONS
 62
     0
 10
224.7003980388519
 20
97.37864166298624
 30
0.0
 11
225.0525799236358
 21
98.13389815218343
 31
0.0
 12
227.1422584488354
 22
96.69972425323306
 32
0.0
 13
227.1422584488354
 23
96.69972425323306
 33
0.0
  0
SOLID
  5
423
  8
DIMENSIONS
 62
     0
 10
230.8519736440412
 20
95.42959644770231
 30
0.0
 11
230.4997917592572
 21
94.67433995850512
 31
0.0
 12
228.4101132340576
 22
96.10851385745549
 32
0.0
 13
228.4101132340576
 23
96.10851385745549
 33
0.0
  0
TEXT
  5
424
  8
DIMENSIONS
  6
CONTINUOUS
 62
     0
 10
233.1485612747574
 20
94.76579991255265
 30
0.0
 40
5.0
  1
1.399
 50
334.9999999999993
  0
POINT
  5
425
  8
DEFPOINTS
 62
     0
 10
227.1422584488354
 20
96.69972425323306
 30
0.0
  0
POINT
  5
426
  8
DEFPOINTS
 62
     0
 10
228.4101132340576
 20
96.10851385745549
 30
0.0
  0
POINT
  5
427
  8
DEFPOINTS
 62
     0
 10
228.4101132340576
 20
96.10851385745549
 30
0.0
  0
ENDBLK
  5
41C
  8
0
  0
BLOCK
  8
0
  2
*D41
 70
     1
 10
0.0
 20
0.0
 30
0.0
  3
*D41
  1

  0
LINE
  5
42E
  8
DIMENSIONS
 62
     0
 10
227.4063948624234
 20
93.9560328632435
 30
0.0
 11
227.6705312760113
 21
94.5224752301414
 31
0.0
  0
LINE
  5
42F
  8
DIMENSIONS
 62
     0
 10
228.6742496476455
 20
93.36482246746593
 30
0.0
 11
228.9383860612334
 21
93.93126483436383
 31
0.0
  0
LINE
  5
430
  8
DIMENSIONS
 62
     0
 10
230.6758827016492
 20
91.74183444621623
 30
0.0
 11
248.6822286780314
 21
83.34533742204026
 31
0.0
  0
LINE
  5
431
  8
DIMENSIONS
 62
     0
 10
227.1422584488354
 20
93.38959049634559
 30
0.0
 11
228.4101132340575
 21
92.79838010056802
 31
0.0
  0
LINE
  5
432
  8
DIMENSIONS
 62
     0
 10
224.8764889812438
 20
94.44613615069738
 30
0.0
 11
222.6107195136522
 21
95.50268180504918
 31
0.0
  0
SOLID
  5
433
  8
DIMENSIONS
 62
     0
 10
224.7003980388519
 20
94.06850790609879
 30
0.0
 11
225.0525799236358
 21
94.82376439529598
 31
0.0
 12
227.1422584488354
 22
93.38959049634559
 32
0.0
 13
227.1422584488354
 23
93.38959049634559
 33
0.0
  0
SOLID
  5
434
  8
DIMENSIONS
 62
     0
 10
230.8519736440411
 20
92.11946269081483
 30
0.0
 11
230.4997917592572
 21
91.36420620161763
 31
0.0
 12
228.4101132340575
 22
92.79838010056802
 32
0.0
 13
228.4101132340575
 23
92.79838010056802
 33
0.0
  0
TEXT
  5
435
  8
DIMENSIONS
  6
CONTINUOUS
 62
     0
 10
233.1485612747574
 20
91.45566615566514
 30
0.0
 40
5.0
  1
1.399
 50
334.9999999999987
  0
POINT
  5
436
  8
DEFPOINTS
 62
     0
 10
227.1422584488354
 20
93.38959049634559
 30
0.0
  0
POINT
  5
437
  8
DEFPOINTS
 62
     0
 10
228.4101132340575
 20
92.79838010056802
 30
0.0
  0
POINT
  5
438
  8
DEFPOINTS
 62
     0
 10
228.4101132340575
 20
92.79838010056802
 30
0.0
  0
ENDBLK
  5
42D
  8
0
  0
BLOCK
  8
0
  2
*D42
 70
     1
 10
0.0
 20
0.0
 30
0.0
  3
*D42
  1

  0
LINE
  5
43F
  8
DIMENSIONS
 62
     0
 10
231.0037183716341
 20
18.7031497786494
 30
0.0
 11
230.7395819580462
 21
18.13670741175149
 31
0.0
  0
LINE
  5
440
  8
DIMENSIONS
 62
     0
 10
201.7610822397772
 20
32.33921495157492
 30
0.0
 11
201.4969458261892
 21
31.77277258467701
 31
0.0
  0
LINE
  5
441
  8
DIMENSIONS
 62
     0
 10
229.0020853176304
 20
20.32613779989908
 30
0.0
 11
204.2909881209567
 21
31.84911166412103
 31
0.0
  0
SOLID
  5
442
  8
DIMENSIONS
 62
     0
 10
228.8259943752385
 20
19.94850955530048
 30
0.0
 11
229.1781762600224
 21
20.70376604449768
 31
0.0
 12
231.2678547852221
 22
19.2695921455473
 32
0.0
 13
231.2678547852221
 23
19.2695921455473
 33
0.0
  0
SOLID
  5
443
  8
DIMENSIONS
 62
     0
 10
204.4670790633487
 20
32.22673990871964
 30
0.0
 11
204.1148971785648
 21
31.47148341952243
 31
0.0
 12
202.0252186533651
 22
32.90565731847282
 32
0.0
 13
202.0252186533651
 23
32.90565731847282
 33
0.0
  0
TEXT
  5
444
  8
DIMENSIONS
  6
CONTINUOUS
 62
     0
 10
207.4362466889266
 20
31.24931417124414
 30
0.0
 40
5.0
  1
32.266
 50
334.999999999999
  0
POINT
  5
445
  8
DEFPOINTS
 62
     0
 10
231.2678547852221
 20
19.2695921455473
 30
0.0
  0
POINT
  5
446
  8
DEFPOINTS
 62
     0
 10
202.0252186533651
 20
32.90565731847283
 30
0.0
  0
POINT
  5
447
  8
DEFPOINTS
 62
     0
 10
202.0252186533651
 20
32.90565731847282
 30
0.0
  0
ENDBLK
  5
43E
  8
0
  0
BLOCK
  8
0
  2
*D43
 70
     1
 10
0.0
 20
0.0
 30
0.0
  3
*D43
  1

  0
LINE
  5
450
  8
DIMENSIONS
 62
     0
 10
227.7654829502596
 20
86.81639973718123
 30
0.0
 11
228.3887074516837
 21
86.8634764917918
 31
0.0
  0
LINE
  5
451
  8
DIMENSIONS
 62
     0
 10
233.1589340718683
 20
15.41532474749287
 30
0.0
 11
233.7821585732924
 21
15.46240150210343
 31
0.0
  0
LINE
  5
452
  8
DIMENSIONS
 62
     0
 10
227.3305654672777
 20
84.27642497687421
 30
0.0
 11
232.3474025520019
 21
17.86114599857877
 31
0.0
  0
SOLID
  5
453
  8
DIMENSIONS
 62
     0
 10
227.7460484682271
 20
84.30780947994792
 30
0.0
 11
226.9150824663283
 21
84.2450404738005
 31
0.0
 12
227.1422584488354
 22
86.76932298257067
 32
0.0
 13
227.1422584488354
 23
86.76932298257067
 33
0.0
  0
SOLID
  5
454
  8
DIMENSIONS
 62
     0
 10
231.9319195510525
 20
17.82976149550506
 30
0.0
 11
232.7628855529513
 21
17.89253050165248
 31
0.0
 12
232.5357095704441
 22
15.36824799288231
 32
0.0
 13
232.5357095704441
 23
15.36824799288231
 33
0.0
  0
TEXT
  5
455
  8
DIMENSIONS
  6
CONTINUOUS
 62
     0
 10
229.8258081442579
 20
61.67355492625407
 30
0.0
 40
5.0
  1
71.604
 50
274.3197702701693
  0
POINT
  5
456
  8
DEFPOINTS
 62
     0
 10
227.1422584488354
 20
86.76932298257067
 30
0.0
  0
POINT
  5
457
  8
DEFPOINTS
 62
     0
 10
232.5357095704441
 20
15.36824799288231
 30
0.0
  0
POINT
  5
458
  8
DEFPOINTS
 62
     0
 10
232.5357095704441
 20
15.36824799288231
 30
0.0
  0
ENDBLK
  5
44F
  8
0
  0
BLOCK
  8
0
  2
*D44
 70
     1
 10
0.0
 20
0.0
 30
0.0
  3
*D44
  1

  0
LINE
  5
461
  8
DIMENSIONS
 62
     0
 10
227.7654829502596
 20
83.50626598029375
 30
0.0
 11
228.3887074516837
 21
83.55334273490432
 31
0.0
  0
LINE
  5
462
  8
DIMENSIONS
 62
     0
 10
233.1589340718682
 20
12.10519099060541
 30
0.0
 11
233.7821585732923
 21
12.15226774521598
 31
0.0
  0
LINE
  5
463
  8
DIMENSIONS
 62
     0
 10
227.3305654672777
 20
80.96629121998673
 30
0.0
 11
232.3474025520019
 21
14.55101224169131
 31
0.0
  0
SOLID
  5
464
  8
DIMENSIONS
 62
     0
 10
227.7460484682271
 20
80.99767572306044
 30
0.0
 11
226.9150824663283
 21
80.93490671691302
 31
0.0
 12
227.1422584488354
 22
83.45918922568319
 32
0.0
 13
227.1422584488354
 23
83.45918922568319
 33
0.0
  0
SOLID
  5
465
  8
DIMENSIONS
 62
     0
 10
231.9319195510524
 20
14.51962773861761
 30
0.0
 11
232.7628855529513
 21
14.58239674476502
 31
0.0
 12
232.5357095704441
 22
12.05811423599485
 32
0.0
 13
232.5357095704441
 23
12.05811423599485
 33
0.0
  0
TEXT
  5
466
  8
DIMENSIONS
  6
CONTINUOUS
 62
     0
 10
229.8258081442579
 20
58.36342116936663
 30
0.0
 40
5.0
  1
71.604
 50
274.3197702701693
  0
POINT
  5
467
  8
DEFPOINTS
 62
     0
 10
227.1422584488354
 20
83.45918922568319
 30
0.0
  0
POINT
  5
468
  8
DEFPOINTS
 62
     0
 10
232.5357095704441
 20
12.05811423599485
 30
0.0
  0
POINT
  5
469
  8
DEFPOINTS
 62
     0
 10
232.5357095704441
 20
12.05811423599485
 30
0.0
  0
ENDBLK
  5
460
  8
0
  0
BLOCK
  8
0
  2
*D45
 70
     1
 10
0.0
 20
0.0
 30
0.0
  3
*D45
  1

  0
LINE
  5
472
  8
DIMENSIONS
 62
     0
 10
227.7654829502596
 20
80.19613222340631
 30
0.0
 11
228.3887074516837
 21
80.24320897801688
 31
0.0
  0
LINE
  5
473
  8
DIMENSIONS
 62
     0
 10
233.1589340718682
 20
8.795057233717955
 30
0.0
 11
233.7821585732923
 21
8.842133988328518
 31
0.0
  0
LINE
  5
474
  8
DIMENSIONS
 62
     0
 10
227.3305654672777
 20
77.65615746309929
 30
0.0
 11
232.3474025520019
 21
11.24087848480385
 31
0.0
  0
SOLID
  5
475
  8
DIMENSIONS
 62
     0
 10
227.7460484682271
 20
77.687541966173
 30
0.0
 11
226.9150824663283
 21
77.62477296002558
 31
0.0
 12
227.1422584488354
 22
80.14905546879575
 32
0.0
 13
227.1422584488354
 23
80.14905546879575
 33
0.0
  0
SOLID
  5
476
  8
DIMENSIONS
 62
     0
 10
231.9319195510524
 20
11.20949398173015
 30
0.0
 11
232.7628855529513
 21
11.27226298787756
 31
0.0
 12
232.5357095704441
 22
8.747980479107394
 32
0.0
 13
232.5357095704441
 23
8.747980479107394
 33
0.0
  0
TEXT
  5
477
  8
DIMENSIONS
  6
CONTINUOUS
 62
     0
 10
229.8258081442579
 20
55.05328741247916
 30
0.0
 40
5.0
  1
71.604
 50
274.3197702701693
  0
POINT
  5
478
  8
DEFPOINTS
 62
     0
 10
227.1422584488354
 20
80.14905546879575
 30
0.0
  0
POINT
  5
479
  8
DEFPOINTS
 62
     0
 10
232.5357095704441
 20
8.747980479107394
 30
0.0
  0
POINT
  5
47A
  8
DEFPOINTS
 62
     0
 10
232.5357095704441
 20
8.747980479107394
 30
0.0
  0
ENDBLK
  5
471
  8
0
  0
BLOCK
  8
0
  2
*D46
 70
     1
 10
0.0
 20
0.0
 30
0.0
  3
*D46
  1

  0
LINE
  5
483
  8
DIMENSIONS
 62
     0
 10
227.1422584488354
 20
77.46392171190811
 30
0.0
 11
227.1422584488354
 21
78.08892171190811
 31
0.0
  0
LINE
  5
484
  8
DIMENSIONS
 62
     0
 10
227.1422584488354
 20
77.46392171190807
 30
0.0
 11
227.1422584488354
 21
78.08892171190807
 31
0.0
  0
LINE
  5
485
  8
DIMENSIONS
 62
     0
 10
229.6422584488354
 20
76.83892171190807
 30
0.0
 11
249.898282545221
 21
76.83892171190807
 31
0.0
  0
LINE
  5
486
  8
DIMENSIONS
 62
     0
 10
227.1422584488354
 20
76.83892171190811
 30
0.0
 11
227.1422584488354
 21
76.83892171190807
 31
0.0
  0
LINE
  5
487
  8
DIMENSIONS
 62
     0
 10
224.6422584488354
 20
76.83892171190811
 30
0.0
 11
222.1422584488354
 21
76.83892171190811
 31
0.0
  0
SOLID
  5
488
  8
DIMENSIONS
 62
     0
 10
224.6422584488354
 20
76.42225504524144
 30
0.0
 11
224.6422584488354
 21
77.25558837857479
 31
0.0
 12
227.1422584488354
 22
76.83892171190811
 32
0.0
 13
227.1422584488354
 23
76.83892171190811
 33
0.0
  0
SOLID
  5
489
  8
DIMENSIONS
 62
     0
 10
229.6422584488354
 20
77.25558837857474
 30
0.0
 11
229.6422584488354
 21
76.4222550452414
 31
0.0
 12
227.1422584488354
 22
76.83892171190807
 32
0.0
 13
227.1422584488354
 23
76.83892171190807
 33
0.0
  0
TEXT
  5
48A
  8
DIMENSIONS
  6
CONTINUOUS
 62
     0
 10
232.4058126657029
 20
77.62456428218918
 30
0.0
 40
5.0
  1
0.000
  0
POINT
  5
48B
  8
DEFPOINTS
 62
     0
 10
227.1422584488354
 20
76.83892171190811
 30
0.0
  0
POINT
  5
48C
  8
DEFPOINTS
 62
     0
 10
227.1422584488354
 20
76.83892171190807
 30
0.0
  0
POINT
  5
48D
  8
DEFPOINTS
 62
     0
 10
227.1422584488354
 20
76.83892171190807
 30
0.0
  0
ENDBLK
  5
482
  8
0
  0
BLOCK
  8
0
  2
*D48
 70
     1
 10
0.0
 20
0.0
 30
0.0
  3
*D48
  1

  0
LINE
  5
4A5
  8
DIMENSIONS
 62
     0
 10
219.2494036636134
 20
73.60771054284079
 30
0.0
 11
214.4085932363166
 21
73.60771054284079
 31
0.0
  0
LINE
  5
4A6
  8
DIMENSIONS
 62
     0
 10
219.2494036636134
 20
70.8098645939108
 30
0.0
 11
214.4085932363166
 21
70.8098645939108
 31
0.0
  0
LINE
  5
4A7
  8
DIMENSIONS
 62
     0
 10
215.6585932363166
 20
68.3098645939108
 30
0.0
 11
215.6585932363166
 21
47.97351921238472
 31
0.0
  0
LINE
  5
4A8
  8
DIMENSIONS
 62
     0
 10
215.6585932363166
 20
73.60771054284079
 30
0.0
 11
215.6585932363166
 21
70.8098645939108
 31
0.0
  0
LINE
  5
4A9
  8
DIMENSIONS
 62
     0
 10
215.6585932363166
 20
76.10771054284079
 30
0.0
 11
215.6585932363166
 21
78.60771054284079
 31
0.0
  0
SOLID
  5
4AA
  8
DIMENSIONS
 62
     0
 10
215.2419265696499
 20
76.10771054284079
 30
0.0
 11
216.0752599029832
 21
76.10771054284079
 31
0.0
 12
215.6585932363166
 22
73.60771054284079
 32
0.0
 13
215.6585932363166
 23
73.60771054284079
 33
0.0
  0
SOLID
  5
4AB
  8
DIMENSIONS
 62
     0
 10
216.0752599029832
 20
68.3098645939108
 30
0.0
 11
215.2419265696499
 21
68.3098645939108
 31
0.0
 12
215.6585932363166
 22
70.8098645939108
 32
0.0
 13
215.6585932363166
 23
70.8098645939108
 33
0.0
  0
TEXT
  5
4AC
  8
DIMENSIONS
  6
CONTINUOUS
 62
     0
 10
214.8729506660355
 20
48.27723407182248
 30
0.0
 40
5.0
  1
2.798
 50
90.0
  0
POINT
  5
4AD
  8
DEFPOINTS
 62
     0
 10
219.8744036636134
 20
73.60771054284079
 30
0.0
  0
POINT
  5
4AE
  8
DEFPOINTS
 62
     0
 10
219.8744036636134
 20
70.8098645939108
 30
0.0
  0
POINT
  5
4AF
  8
DEFPOINTS
 62
     0
 10
215.6585932363166
 20
70.8098645939108
 30
0.0
  0
ENDBLK
  5
4A4
  8
0
  0
BLOCK
  8
0
  2
*D49
 70
     1
 10
0.0
 20
0.0
 30
0.0
  3
*D49
  1

  0
LINE
  5
4B6
  8
DIMENSIONS
 62
     0
 10
227.1422584488353
 20
77.46392171190811
 30
0.0
 11
227.1422584488353
 21
78.08892171190811
 31
0.0
  0
LINE
  5
4B7
  8
DIMENSIONS
 62
     0
 10
227.1422584488353
 20
77.46392171190811
 30
0.0
 11
227.1422584488353
 21
78.08892171190811
 31
0.0
  0
LINE
  5
4B8
  8
DIMENSIONS
 62
     0
 10
229.6422584488353
 20
76.83892171190811
 30
0.0
 11
249.8982825452209
 21
76.83892171190811
 31
0.0
  0
LINE
  5
4B9
  8
DIMENSIONS
 62
     0
 10
227.1422584488353
 20
76.83892171190811
 30
0.0
 11
227.1422584488353
 21
76.83892171190811
 31
0.0
  0
LINE
  5
4BA
  8
DIMENSIONS
 62
     0
 10
224.6422584488353
 20
76.83892171190811
 30
0.0
 11
222.1422584488353
 21
76.83892171190811
 31
0.0
  0
SOLID
  5
4BB
  8
DIMENSIONS
 62
     0
 10
224.6422584488353
 20
76.42225504524144
 30
0.0
 11
224.6422584488353
 21
77.25558837857479
 31
0.0
 12
227.1422584488353
 22
76.83892171190811
 32
0.0
 13
227.1422584488353
 23
76.83892171190811
 33
0.0
  0
SOLID
  5
4BC
  8
DIMENSIONS
 62
     0
 10
229.6422584488353
 20
77.25558837857479
 30
0.0
 11
229.6422584488353
 21
76.42225504524144
 31
0.0
 12
227.1422584488353
 22
76.83892171190811
 32
0.0
 13
227.1422584488353
 23
76.83892171190811
 33
0.0
  0
TEXT
  5
4BD
  8
DIMENSIONS
  6
CONTINUOUS
 62
     0
 10
232.4058126657028
 20
77.62456428218923
 30
0.0
 40
5.0
  1
0.000
  0
POINT
  5
4BE
  8
DEFPOINTS
 62
     0
 10
227.1422584488353
 20
76.83892171190811
 30
0.0
  0
POINT
  5
4DF
  8
DEFPOINTS
 62
     0
 10
227.1422584488353
 20
76.83892171190811
 30
0.0
  0
POINT
  5
4E0
  8
DEFPOINTS
 62
     0
 10
227.1422584488353
 20
76.83892171190811
 30
0.0
  0
ENDBLK
  5
4B5
  8
0
  0
BLOCK
  8
0
  2
*D50
 70
     1
 10
0.0
 20
0.0
 30
0.0
  3
*D50
  1

  0
LINE
  5
4C5
  8
DIMENSIONS
 62
     0
 10
226.4994036636134
 20
70.8098645939108
 30
0.0
 11
236.7157943148916
 21
70.8098645939108
 31
0.0
  0
LINE
  5
4C6
  8
DIMENSIONS
 62
     0
 10
226.4994036636134
 20
40.8098645939108
 30
0.0
 11
236.7157943148916
 21
40.8098645939108
 31
0.0
  0
LINE
  5
4C7
  8
DIMENSIONS
 62
     0
 10
235.4657943148916
 20
68.3098645939108
 30
0.0
 11
235.4657943148916
 21
43.3098645939108
 31
0.0
  0
SOLID
  5
4C8
  8
DIMENSIONS
 62
     0
 10
235.8824609815582
 20
68.3098645939108
 30
0.0
 11
235.0491276482249
 21
68.3098645939108
 31
0.0
 12
235.4657943148916
 22
70.8098645939108
 32
0.0
 13
235.4657943148916
 23
70.8098645939108
 33
0.0
  0
SOLID
  5
4C9
  8
DIMENSIONS
 62
     0
 10
235.0491276482249
 20
43.3098645939108
 30
0.0
 11
235.8824609815582
 21
43.3098645939108
 31
0.0
 12
235.4657943148916
 22
40.8098645939108
 32
0.0
 13
235.4657943148916
 23
40.8098645939108
 33
0.0
  0
TEXT
  5
4CA
  8
DIMENSIONS
  6
CONTINUOUS
 62
     0
 10
234.6801517446105
 20
45.30116312135391
 30
0.0
 40
5.0
  1
30.000
 50
90.0
  0
POINT
  5
4CB
  8
DEFPOINTS
 62
     0
 10
225.8744036636134
 20
70.8098645939108
 30
0.0
  0
POINT
  5
4CC
  8
DEFPOINTS
 62
     0
 10
225.8744036636134
 20
40.8098645939108
 30
0.0
  0
POINT
  5
4CD
  8
DEFPOINTS
 62
     0
 10
235.4657943148916
 20
40.8098645939108
 30
0.0
  0
ENDBLK
  5
4C4
  8
0
  0
BLOCK
  8
0
  2
*D51
 70
     1
 10
0.0
 20
0.0
 30
0.0
  3
*D51
  1

  0
LINE
  5
4D4
  8
DIMENSIONS
 62
     0
 10
219.2494036636134
 20
40.8098645939108
 30
0.0
 11
199.6588419339395
 21
40.8098645939108
 31
0.0
  0
LINE
  5
4D5
  8
DIMENSIONS
 62
     0
 10
219.2494036636134
 20
73.60771054284079
 30
0.0
 11
199.6588419339395
 21
73.60771054284079
 31
0.0
  0
LINE
  5
4D6
  8
DIMENSIONS
 62
     0
 10
200.9088419339395
 20
43.3098645939108
 30
0.0
 11
200.9088419339395
 21
71.10771054284079
 31
0.0
  0
SOLID
  5
4D7
  8
DIMENSIONS
 62
     0
 10
200.4921752672728
 20
43.3098645939108
 30
0.0
 11
201.3255086006061
 21
43.3098645939108
 31
0.0
 12
200.9088419339395
 22
40.8098645939108
 32
0.0
 13
200.9088419339395
 23
40.8098645939108
 33
0.0
  0
SOLID
  5
4D8
  8
DIMENSIONS
 62
     0
 10
201.3255086006061
 20
71.10771054284079
 30
0.0
 11
200.4921752672728
 21
71.10771054284079
 31
0.0
 12
200.9088419339395
 22
73.60771054284079
 32
0.0
 13
200.9088419339395
 23
73.60771054284079
 33
0.0
  0
TEXT
  5
4D9
  8
DIMENSIONS
  6
CONTINUOUS
 62
     0
 10
200.1231993636584
 20
46.68000577453375
 30
0.0
 40
5.0
  1
32.798
 50
90.0
  0
POINT
  5
4DA
  8
DEFPOINTS
 62
     0
 10
219.8744036636134
 20
40.8098645939108
 30
0.0
  0
POINT
  5
4DB
  8
DEFPOINTS
 62
     0
 10
219.8744036636134
 20
73.60771054284079
 30
0.0
  0
POINT
  5
4DC
  8
DEFPOINTS
 62
     0
 10
200.9088419339395
 20
73.60771054284079
 30
0.0
  0
ENDBLK
  5
4D3
  8
0
  0
BLOCK
  8
0
  2
*D52
 70
     1
 10
0.0
 20
0.0
 30
0.0
  3
*D52
  1

  0
LINE
  5
4EE
  8
DIMENSIONS
 62
     0
 10
35.81390479950493
 20
160.1261419263557
 30
0.0
 11
65.34631483055824
 21
223.4585996172753
 31
0.0
  0
LINE
  5
4EF
  8
DIMENSIONS
 62
     0
 10
226.1385400772014
 20
71.3763069608087
 30
0.0
 11
255.6709501082547
 21
134.7087646517283
 31
0.0
  0
LINE
  5
4F0
  8
DIMENSIONS
 62
     0
 10
67.083811470974
 20
221.2691692291278
 30
0.0
 11
252.8769078134872
 21
134.6324255722843
 31
0.0
  0
SOLID
  5
4F1
  8
DIMENSIONS
 62
     0
 10
67.25990241336595
 20
221.6467974737264
 30
0.0
 11
66.90772052858205
 21
220.8915409845292
 31
0.0
 12
64.81804200338237
 22
222.3257148834795
 32
0.0
 13
64.81804200338237
 23
222.3257148834795
 33
0.0
  0
SOLID
  5
4F2
  8
DIMENSIONS
 62
     0
 10
252.7008168710952
 20
134.2547973276857
 30
0.0
 11
253.0529987558791
 21
135.0100538168829
 31
0.0
 12
255.1426772810788
 22
133.5758799179325
 32
0.0
 13
255.1426772810788
 23
133.5758799179325
 33
0.0
  0
TEXT
  5
4F3
  8
DIMENSIONS
  6
CONTINUOUS
 62
     0
 10
149.0715008008176
 20
183.9045424844339
 30
0.0
 40
5.0
  1
210.000
 50
334.9999999999999
  0
POINT
  5
4F4
  8
DEFPOINTS
 62
     0
 10
35.549768385917
 20
159.5596995594578
 30
0.0
  0
POINT
  5
4F5
  8
DEFPOINTS
 62
     0
 10
225.8744036636134
 20
70.8098645939108
 30
0.0
  0
POINT
  5
4F6
  8
DEFPOINTS
 62
     0
 10
255.1426772810788
 20
133.5758799179325
 30
0.0
  0
ENDBLK
  5
4ED
  8
0
  0
BLOCK
  8
0
  2
*D53
 70
     1
 10
0.0
 20
0.0
 30
0.0
  3
*D53
  1

  0
LINE
  5
4FD
  8
DIMENSIONS
 62
     0
 10
226.5172584488353
 20
76.83892171190811
 30
0.0
 11
219.8220543172697
 21
76.83892171190811
 31
0.0
  0
LINE
  5
4FE
  8
DIMENSIONS
 62
     0
 10
226.5172584488353
 20
156.7618536105278
 30
0.0
 11
219.8220543172697
 21
156.7618536105278
 31
0.0
  0
LINE
  5
4FF
  8
DIMENSIONS
 62
     0
 10
221.0720543172697
 20
79.33892171190811
 30
0.0
 11
221.0720543172697
 21
154.2618536105278
 31
0.0
  0
SOLID
  5
500
  8
DIMENSIONS
 62
     0
 10
220.655387650603
 20
79.33892171190811
 30
0.0
 11
221.4887209839364
 21
79.33892171190811
 31
0.0
 12
221.0720543172697
 22
76.83892171190811
 32
0.0
 13
221.0720543172697
 23
76.83892171190811
 33
0.0
  0
SOLID
  5
501
  8
DIMENSIONS
 62
     0
 10
221.4887209839364
 20
154.2618536105278
 30
0.0
 11
220.655387650603
 21
154.2618536105278
 31
0.0
 12
221.0720543172697
 22
156.7618536105278
 32
0.0
 13
221.0720543172697
 23
156.7618536105278
 33
0.0
  0
TEXT
  5
502
  8
DIMENSIONS
  6
CONTINUOUS
 62
     0
 10
220.2864117469886
 20
106.2749525875901
 30
0.0
 40
5.0
  1
79.923
 50
90.0
  0
POINT
  5
503
  8
DEFPOINTS
 62
     0
 10
227.1422584488353
 20
76.83892171190811
 30
0.0
  0
POINT
  5
504
  8
DEFPOINTS
 62
     0
 10
227.1422584488353
 20
156.7618536105278
 30
0.0
  0
POINT
  5
505
  8
DEFPOINTS
 62
     0
 10
221.0720543172697
 20
156.7618536105278
 30
0.0
  0
ENDBLK
  5
4FC
  8
0
  0
BLOCK
  8
0
  2
*D54
 70
     1
 10
0.0
 20
0.0
 30
0.0
  3
*D54
  1

  0
LINE
  5
50E
  8
DIMENSIONS
 62
     0
 10
219.2494036636134
 20
70.8098645939108
 30
0.0
 11
193.4854758849399
 21
70.8098645939108
 31
0.0
  0
LINE
  5
50F
  8
DIMENSIONS
 62
     0
 10
240.6380555294259
 20
70.54572818032287
 30
0.0
 11
282.2929921451643
 21
51.12171223644294
 31
0.0
  0
ARC
  5
510
  8
DIMENSIONS
 62
     0
 10
240.0716131625279
 20
70.8098645939108
 30
0.0
 40
45.33613727758798
 50
183.1598987510972
 51
331.8401012489027
  0
SOLID
  5
511
  8
DIMENSIONS
 62
     0
 10
195.2209137054718
 20
68.3223032914484
 30
0.0
 11
194.3878971846444
 21
68.29932677140903
 31
0.0
 12
194.7354758849399
 22
70.8098645939108
 32
0.0
 13
194.7354758849399
 23
70.8098645939108
 33
0.0
  0
SOLID
  5
512
  8
DIMENSIONS
 62
     0
 10
280.4141215634744
 20
49.22777197929843
 30
0.0
 11
279.6688625008783
 21
49.60064377236247
 31
0.0
 12
281.1601074113685
 22
51.64998506361881
 32
0.0
 13
281.1601074113685
 23
51.64998506361881
 33
0.0
  0
TEXT
  5
513
  8
DIMENSIONS
  6
CONTINUOUS
 62
     0
 10
222.927194806914
 20
28.97853155619668
 30
0.0
 40
5.0
  1
155
 50
347.4999999999999
  0
POINT
  5
514
  8
DEFPOINTS
 62
     0
 10
211.9525317859579
 20
35.24748832642643
 30
0.0
  0
POINT
  5
515
  8
DEFPOINTS
 62
     0
 10
38.08547795636113
 20
164.9975462816776
 30
0.0
  0
POINT
  5
516
  8
DEFPOINTS
 62
     0
 10
219.8744036636134
 20
70.8098645939108
 30
0.0
  0
POINT
  5
517
  8
DEFPOINTS
 62
     0
 10
225.8744036636134
 20
70.8098645939108
 30
0.0
  0
POINT
  5
597
  8
DEFPOINTS
 62
     0
 10
227.1422584488353
 20
76.83892171190811
 30
0.0
  0
ENDBLK
  5
50D
  8
0
  0
BLOCK
  8
0
  2
*D55
 70
     1
 10
0.0
 20
0.0
 30
0.0
  3
*D55
  1

  0
LINE
  5
51E
  8
DIMENSIONS
 62
     0
 10
226.5172584488353
 20
76.83892171190811
 30
0.0
 11
210.4852897585008
 21
76.83892171190811
 31
0.0
  0
LINE
  5
51F
  8
DIMENSIONS
 62
     0
 10
226.5172584488353
 20
40.8098645939108
 30
0.0
 11
210.4852897585008
 21
40.8098645939108
 31
0.0
  0
LINE
  5
520
  8
DIMENSIONS
 62
     0
 10
211.7352897585008
 20
74.33892171190811
 30
0.0
 11
211.7352897585008
 21
43.3098645939108
 31
0.0
  0
SOLID
  5
521
  8
DIMENSIONS
 62
     0
 10
212.1519564251674
 20
74.33892171190811
 30
0.0
 11
211.3186230918341
 21
74.33892171190811
 31
0.0
 12
211.7352897585008
 22
76.83892171190811
 32
0.0
 13
211.7352897585008
 23
76.83892171190811
 33
0.0
  0
SOLID
  5
522
  8
DIMENSIONS
 62
     0
 10
211.3186230918341
 20
43.3098645939108
 30
0.0
 11
212.1519564251674
 21
43.3098645939108
 31
0.0
 12
211.7352897585008
 22
40.8098645939108
 32
0.0
 13
211.7352897585008
 23
40.8098645939108
 33
0.0
  0
TEXT
  5
523
  8
DIMENSIONS
  6
CONTINUOUS
 62
     0
 10
210.9496471882196
 20
48.30899823992416
 30
0.0
 40
5.0
  1
36.029
 50
90.0
  0
POINT
  5
524
  8
DEFPOINTS
 62
     0
 10
227.1422584488353
 20
76.83892171190811
 30
0.0
  0
POINT
  5
525
  8
DEFPOINTS
 62
     0
 10
227.1422584488353
 20
40.8098645939108
 30
0.0
  0
POINT
  5
526
  8
DEFPOINTS
 62
     0
 10
211.7352897585008
 20
40.8098645939108
 30
0.0
  0
ENDBLK
  5
51D
  8
0
  0
BLOCK
  8
0
  2
FOOTSWITCH
 70
     0
 10
0.0
 20
0.0
 30
0.0
  3
FOOTSWITCH
  1

  0
POLYLINE
  5
63B
  8
0
 66
     1
 10
0.0
 20
0.0
 30
0.0
 70
     1
  0
VERTEX
  5
B70
  8
0
 10
-22.0
 20
-8.0
 30
0.0
  0
VERTEX
  5
B71
  8
0
 10
-22.0
 20
8.0
 30
0.0
  0
VERTEX
  5
B72
  8
0
 10
13.0
 20
8.0
 30
0.0
  0
VERTEX
  5
B73
  8
0
 10
13.0
 20
-8.0
 30
0.0
  0
SEQEND
  5
B84
  8
0
  0
CIRCLE
  5
63C
  8
0
 10
0.0
 20
0.0
 30
0.0
 40
6.0
  0
DIMENSION
  5
63D
  8
DIMENSIONS
  2
*D67
 10
13.0
 20
10.97057523809494
 30
0.0
 11
-4.5
 21
14.1758965232355
 31
0.0
 70
    32
  3
ISO-25
 13
-22.0
 23
8.0
 33
0.0
 14
13.0
 24
8.0
 34
0.0
  0
DIMENSION
  5
640
  8
DIMENSIONS
  2
*D68
 10
18.13372952380882
 20
-8.0
 30
0.0
 11
14.92840823866826
 21
-21.08149263721553
 31
0.0
 70
    32
  3
ISO-25
 13
13.0
 23
8.0
 33
0.0
 14
13.0
 24
-8.0
 34
0.0
 50
90.0
  0
DIMENSION
  5
643
  8
DIMENSIONS
  2
*D69
 10
5.748084191895259
 20
1.720327911441217
 30
0.0
 11
5.600559179807876
 21
1.676175566510801
 31
0.0
 70
   163
  1
<>
  3
ISO-25
 15
-5.748084191895259
 25
-1.720327911441217
 35
0.0
 40
0.0
1001
ACAD_DSTYLE_DIMRADIAL_EXTE
1070
   387
1070
     1
1070
   388
1040
0.0
1070
   390
1040
6.283185307179586
  0
ENDBLK
  5
55F
  8
0
  0
BLOCK
  8
0
  2
*D61
 70
     1
 10
0.0
 20
0.0
 30
0.0
  3
*D61
  1

  0
LINE
  5
5A5
  8
DIMENSIONS
 62
     0
 10
226.8786527907909
 20
76.27223215223108
 30
0.0
 11
226.6035155020733
 21
75.6807523253156
 31
0.0
  0
LINE
  5
5A6
  8
DIMENSIONS
 62
     0
 10
228.1531468019992
 20
75.67937875170307
 30
0.0
 11
227.8780095132817
 21
75.08789892478758
 31
0.0
  0
LINE
  5
5A7
  8
DIMENSIONS
 62
     0
 10
230.6719790680788
 20
75.16685541196395
 30
0.0
 11
248.7104587869555
 21
66.77593795951381
 31
0.0
  0
LINE
  5
5A8
  8
DIMENSIONS
 62
     0
 10
227.1307268181622
 20
76.81413144466966
 30
0.0
 11
228.4052208293706
 21
76.22127804414164
 31
0.0
  0
LINE
  5
5A9
  8
DIMENSIONS
 62
     0
 10
224.863968579454
 20
77.86855407684735
 30
0.0
 11
222.5972103407458
 21
78.92297670902504
 31
0.0
  0
SOLID
  5
5AA
  8
DIMENSIONS
 62
     0
 10
224.6882314740911
 20
77.49076103706264
 30
0.0
 11
225.039705684817
 21
78.24634711663205
 31
0.0
 12
227.1307268181622
 22
76.81413144466966
 32
0.0
 13
227.1307268181622
 23
76.81413144466966
 33
0.0
  0
SOLID
  5
5AB
  8
DIMENSIONS
 62
     0
 10
230.8477161734418
 20
75.54464845174866
 30
0.0
 11
230.4962419627159
 21
74.78906237217925
 31
0.0
 12
228.4052208293706
 22
76.22127804414164
 32
0.0
 13
228.4052208293706
 23
76.22127804414164
 33
0.0
  0
TEXT
  5
5AC
  8
DIMENSIONS
  6
CONTINUOUS
 62
     0
 10
233.1449246368499
 20
74.88300363669934
 30
0.0
 40
5.0
  1
1.406
 50
335.0536743333402
  0
POINT
  5
5AD
  8
DEFPOINTS
 62
     0
 10
227.1422584488353
 20
76.83892171190811
 30
0.0
  0
POINT
  5
5AE
  8
DEFPOINTS
 62
     0
 10
228.4167524600437
 20
76.2460683113801
 30
0.0
  0
POINT
  5
5AF
  8
DEFPOINTS
 62
     0
 10
228.4052208293706
 20
76.22127804414164
 30
0.0
  0
ENDBLK
  5
5A4
  8
0
  0
BLOCK
  8
0
  2
*D67
 70
     1
 10
0.0
 20
0.0
 30
0.0
  3
*D67
  1

  0
LINE
  5
649
  8
DIMENSIONS
 62
     0
 10
-22.0
 20
8.625
 30
0.0
 11
-22.0
 21
12.22057523809494
 31
0.0
  0
LINE
  5
64A
  8
DIMENSIONS
 62
     0
 10
13.0
 20
8.625
 30
0.0
 11
13.0
 21
12.22057523809494
 31
0.0
  0
LINE
  5
64B
  8
DIMENSIONS
 62
     0
 10
-19.5
 20
10.97057523809494
 30
0.0
 11
10.5
 21
10.97057523809494
 31
0.0
  0
SOLID
  5
64C
  8
DIMENSIONS
 62
     0
 10
-19.5
 20
11.3872419047616
 30
0.0
 11
-19.5
 21
10.55390857142827
 31
0.0
 12
-22.0
 22
10.97057523809494
 32
0.0
 13
-22.0
 23
10.97057523809494
 33
0.0
  0
SOLID
  5
64D
  8
DIMENSIONS
 62
     0
 10
10.5
 20
10.55390857142827
 30
0.0
 11
10.5
 21
11.3872419047616
 31
0.0
 12
13.0
 22
10.97057523809494
 32
0.0
 13
13.0
 23
10.97057523809494
 33
0.0
  0
TEXT
  5
64E
  8
DIMENSIONS
  6
CONTINUOUS
 62
     0
 10
-15.0087014725569
 20
11.75621780837606
 30
0.0
 40
5.0
  1
35.000
  0
POINT
  5
64F
  8
DEFPOINTS
 62
     0
 10
-22.0
 20
8.0
 30
0.0
  0
POINT
  5
650
  8
DEFPOINTS
 62
     0
 10
13.0
 20
8.0
 30
0.0
  0
POINT
  5
651
  8
DEFPOINTS
 62
     0
 10
13.0
 20
10.97057523809494
 30
0.0
  0
ENDBLK
  5
648
  8
0
  0
BLOCK
  8
0
  2
*D68
 70
     1
 10
0.0
 20
0.0
 30
0.0
  3
*D68
  1

  0
LINE
  5
655
  8
DIMENSIONS
 62
     0
 10
13.625
 20
8.0
 30
0.0
 11
19.38372952380882
 21
8.0
 31
0.0
  0
LINE
  5
656
  8
DIMENSIONS
 62
     0
 10
13.625
 20
-8.0
 30
0.0
 11
19.38372952380882
 21
-8.0
 31
0.0
  0
LINE
  5
657
  8
DIMENSIONS
 62
     0
 10
18.13372952380882
 20
-8.0
 30
0.0
 11
18.13372952380882
 21
-31.66298527443106
 31
0.0
  0
LINE
  5
658
  8
DIMENSIONS
 62
     0
 10
18.13372952380882
 20
5.5
 30
0.0
 11
18.13372952380882
 21
-5.5
 31
0.0
  0
SOLID
  5
659
  8
DIMENSIONS
 62
     0
 10
18.55039619047549
 20
5.5
 30
0.0
 11
17.71706285714216
 21
5.5
 31
0.0
 12
18.13372952380882
 22
8.0
 32
0.0
 13
18.13372952380882
 23
8.0
 33
0.0
  0
SOLID
  5
65A
  8
DIMENSIONS
 62
     0
 10
17.71706285714216
 20
-5.5
 30
0.0
 11
18.55039619047549
 21
-5.5
 31
0.0
 12
18.13372952380882
 22
-8.0
 32
0.0
 13
18.13372952380882
 23
-8.0
 33
0.0
  0
TEXT
  5
65B
  8
DIMENSIONS
  6
CONTINUOUS
 62
     0
 10
17.3480869535277
 20
-31.80103748326639
 30
0.0
 40
5.0
  1
16.000
 50
90.0
  0
POINT
  5
65C
  8
DEFPOINTS
 62
     0
 10
13.0
 20
8.0
 30
0.0
  0
POINT
  5
65D
  8
DEFPOINTS
 62
     0
 10
13.0
 20
-8.0
 30
0.0
  0
POINT
  5
94E
  8
DEFPOINTS
 62
     0
 10
18.13372952380882
 20
-8.0
 30
0.0
  0
ENDBLK
  5
654
  8
0
  0
BLOCK
  8
0
  2
*D69
 70
     1
 10
0.0
 20
0.0
 30
0.0
  3
*D69
  1

  0
LINE
  5
661
  8
DIMENSIONS
 62
     0
 10
-3.353049111938897
 20
-1.003524615007375
 30
0.0
 11
18.02059551311572
 21
5.393333223218424
 31
0.0
  0
TEXT
  5
662
  8
DIMENSIONS
  6
CONTINUOUS
 62
     0
 10
-6.640879549586299
 20
-1.111561638646912
 30
0.0
 40
5.0
  1
12.000
 50
16.66176757931855
  0
SOLID
  5
663
  8
DIMENSIONS
 62
     0
 10
-3.472516328011204
 20
-0.6043521016813149
 30
0.0
 11
-3.23358189586659
 21
-1.402697128333436
 31
0.0
 12
-5.748084191895259
 22
-1.720327911441217
 32
0.0
 13
-5.748084191895259
 23
-1.720327911441217
 33
0.0
  0
POINT
  5
664
  8
DEFPOINTS
 62
     0
 10
-5.748084191895259
 20
-1.720327911441217
 30
0.0
  0
POINT
  5
665
  8
DEFPOINTS
 62
     0
 10
5.748084191895259
 20
1.720327911441217
 30
0.0
  0
ENDBLK
  5
660
  8
0
  0
BLOCK
  8
0
  2
*D70
 70
     1
 10
0.0
 20
0.0
 30
0.0
  3
*D70
  1

  0
LINE
  5
6AA
  8
DIMENSIONS
 62
     0
 10
479.4204330287213
 20
-100.3426285851827
 30
0.0
 11
473.7219137649134
 21
-122.4437721272883
 31
0.0
  0
LINE
  5
6AB
  8
DIMENSIONS
 62
     0
 10
543.8389497622951
 20
-116.9521835547182
 30
0.0
 11
538.1404304984871
 21
-139.0533270968239
 31
0.0
  0
LINE
  5
6AC
  8
DIMENSIONS
 62
     0
 10
476.454830267894
 20
-121.8575406135185
 30
0.0
 11
536.031695385683
 21
-137.2187328027014
 31
0.0
  0
SOLID
  5
6AD
  8
DIMENSIONS
 62
     0
 10
476.55886049959
 20
-121.4540696455364
 30
0.0
 11
476.3508000361979
 21
-122.2610115815005
 31
0.0
 12
474.0340044600016
 22
-121.2333592233421
 32
0.0
 13
474.0340044600016
 23
-121.2333592233421
 33
0.0
  0
SOLID
  5
6AE
  8
DIMENSIONS
 62
     0
 10
535.9276651539869
 20
-137.6222037706834
 30
0.0
 11
536.135725617379
 21
-136.8152618347193
 31
0.0
 12
538.4525211935753
 22
-137.8429141928777
 32
0.0
 13
538.4525211935753
 23
-137.8429141928777
 33
0.0
  0
TEXT
  5
6AF
  8
DIMENSIONS
  6
CONTINUOUS
 62
     0
 10
496.2343553465889
 20
-126.1461205687954
 30
0.0
 40
5.0
  1
66.525
 50
345.5418634063113
  0
POINT
  5
6B0
  8
DEFPOINTS
 62
     0
 10
479.5764783762654
 20
-99.73742213320958
 30
0.0
  0
POINT
  5
6B1
  8
DEFPOINTS
 62
     0
 10
543.9949951098391
 20
-116.3469771027451
 30
0.0
  0
POINT
  5
6B2
  8
DEFPOINTS
 62
     0
 10
538.4525211935753
 20
-137.8429141928777
 30
0.0
  0
ENDBLK
  5
6A9
  8
0
  0
BLOCK
  8
0
  2
*D71
 70
     1
 10
0.0
 20
0.0
 30
0.0
  3
*D71
  1

  0
LINE
  5
6C6
  8
DIMENSIONS
 62
     0
 10
480.2014783762654
 20
-122.6720303106156
 30
0.0
 11
493.3720689326084
 21
-122.6720303106156
 31
0.0
  0
LINE
  5
6C7
  8
DIMENSIONS
 62
     0
 10
480.2014783762654
 20
-174.7374221332095
 30
0.0
 11
493.3720689326084
 21
-174.7374221332095
 31
0.0
  0
LINE
  5
6C8
  8
DIMENSIONS
 62
     0
 10
492.1220689326084
 20
-125.1720303106156
 30
0.0
 11
492.1220689326084
 21
-172.2374221332095
 31
0.0
  0
SOLID
  5
6C9
  8
DIMENSIONS
 62
     0
 10
492.5387355992751
 20
-125.1720303106156
 30
0.0
 11
491.7054022659418
 21
-125.1720303106156
 31
0.0
 12
492.1220689326084
 22
-122.6720303106156
 32
0.0
 13
492.1220689326084
 23
-122.6720303106156
 33
0.0
  0
SOLID
  5
6CA
  8
DIMENSIONS
 62
     0
 10
491.7054022659418
 20
-172.2374221332095
 30
0.0
 11
492.5387355992751
 21
-172.2374221332095
 31
0.0
 12
492.1220689326084
 22
-174.7374221332095
 32
0.0
 13
492.1220689326084
 23
-174.7374221332095
 33
0.0
  0
TEXT
  5
6CB
  8
DIMENSIONS
  6
CONTINUOUS
 62
     0
 10
491.3364263623273
 20
-159.2134276944695
 30
0.0
 40
5.0
  1
52.065
 50
90.0
  0
POINT
  5
6CC
  8
DEFPOINTS
 62
     0
 10
479.5764783762654
 20
-122.6720303106156
 30
0.0
  0
POINT
  5
6CD
  8
DEFPOINTS
 62
     0
 10
479.5764783762654
 20
-174.7374221332095
 30
0.0
  0
POINT
  5
6CE
  8
DEFPOINTS
 62
     0
 10
492.1220689326084
 20
-174.7374221332095
 30
0.0
  0
ENDBLK
  5
6C5
  8
0
  0
BLOCK
  8
0
  2
*D72
 70
     1
 10
0.0
 20
0.0
 30
0.0
  3
*D72
  1

  0
LINE
  5
6D5
  8
DIMENSIONS
 62
     0
 10
342.6105434764364
 20
-116.3469771027451
 30
0.0
 11
278.3264783762654
 21
-116.3469771027451
 31
0.0
  0
LINE
  5
6D6
  8
DIMENSIONS
 62
     0
 10
342.6105434764364
 20
-234.7374221332096
 30
0.0
 11
278.3264783762654
 21
-234.7374221332096
 31
0.0
  0
LINE
  5
6D7
  8
DIMENSIONS
 62
     0
 10
279.5764783762654
 20
-118.8469771027451
 30
0.0
 11
279.5764783762654
 21
-232.2374221332096
 31
0.0
  0
SOLID
  5
6D8
  8
DIMENSIONS
 62
     0
 10
279.993145042932
 20
-118.8469771027451
 30
0.0
 11
279.1598117095987
 21
-118.8469771027451
 31
0.0
 12
279.5764783762654
 22
-116.3469771027451
 32
0.0
 13
279.5764783762654
 23
-116.3469771027451
 33
0.0
  0
SOLID
  5
6D9
  8
DIMENSIONS
 62
     0
 10
279.1598117095987
 20
-232.2374221332096
 30
0.0
 11
279.993145042932
 21
-232.2374221332096
 31
0.0
 12
279.5764783762654
 22
-234.7374221332096
 32
0.0
 13
279.5764783762654
 23
-234.7374221332096
 33
0.0
  0
TEXT
  5
6DA
  8
DIMENSIONS
  6
CONTINUOUS
 62
     0
 10
278.7908358059842
 20
-188.1660282659024
 30
0.0
 40
5.0
  1
118.390
 50
90.0
  0
POINT
  5
6DB
  8
DEFPOINTS
 62
     0
 10
343.2355434764364
 20
-116.3469771027451
 30
0.0
  0
POINT
  5
6DC
  8
DEFPOINTS
 62
     0
 10
343.2355434764364
 20
-234.7374221332096
 30
0.0
  0
POINT
  5
6DD
  8
DEFPOINTS
 62
     0
 10
279.5764783762654
 20
-234.7374221332096
 30
0.0
  0
ENDBLK
  5
6D4
  8
0
  0
BLOCK
  8
0
  2
*D74
 70
     1
 10
0.0
 20
0.0
 30
0.0
  3
*D74
  1

  0
LINE
  5
6F8
  8
DIMENSIONS
 62
     0
 10
414.5329616426916
 20
-150.8014804652439
 30
0.0
 11
387.8185772076807
 21
-150.8014804652439
 31
0.0
  0
LINE
  5
6F9
  8
DIMENSIONS
 62
     0
 10
414.5329616426916
 20
-189.7374221332096
 30
0.0
 11
387.8185772076807
 21
-189.7374221332096
 31
0.0
  0
LINE
  5
6FA
  8
DIMENSIONS
 62
     0
 10
389.0685772076807
 20
-153.3014804652439
 30
0.0
 11
389.0685772076807
 21
-187.2374221332096
 31
0.0
  0
SOLID
  5
6FB
  8
DIMENSIONS
 62
     0
 10
389.4852438743474
 20
-153.3014804652439
 30
0.0
 11
388.651910541014
 21
-153.3014804652439
 31
0.0
 12
389.0685772076807
 22
-150.8014804652439
 32
0.0
 13
389.0685772076807
 23
-150.8014804652439
 33
0.0
  0
SOLID
  5
6FC
  8
DIMENSIONS
 62
     0
 10
388.651910541014
 20
-187.2374221332096
 30
0.0
 11
389.4852438743474
 21
-187.2374221332096
 31
0.0
 12
389.0685772076807
 22
-189.7374221332096
 32
0.0
 13
389.0685772076807
 23
-189.7374221332096
 33
0.0
  0
TEXT
  5
6FD
  8
DIMENSIONS
  6
CONTINUOUS
 62
     0
 10
388.2829346373995
 20
-180.7982330930687
 30
0.0
 40
5.0
  1
38.936
 50
90.0
  0
POINT
  5
6FE
  8
DEFPOINTS
 62
     0
 10
415.1579616426916
 20
-150.8014804652439
 30
0.0
  0
POINT
  5
6FF
  8
DEFPOINTS
 62
     0
 10
415.1579616426916
 20
-189.7374221332096
 30
0.0
  0
POINT
  5
700
  8
DEFPOINTS
 62
     0
 10
389.0685772076807
 20
-189.7374221332096
 30
0.0
  0
ENDBLK
  5
6F7
  8
0
  0
BLOCK
  8
0
  2
*D75
 70
     1
 10
0.0
 20
0.0
 30
0.0
  3
*D75
  1

  0
LINE
  5
70A
  8
DIMENSIONS
 62
     0
 10
478.9514783762654
 20
-135.8014221332096
 30
0.0
 11
459.7571046175966
 21
-135.8014221332096
 31
0.0
  0
LINE
  5
70B
  8
DIMENSIONS
 62
     0
 10
478.9514783762654
 20
-174.7374221332095
 30
0.0
 11
459.7571046175966
 21
-174.7374221332095
 31
0.0
  0
LINE
  5
70C
  8
DIMENSIONS
 62
     0
 10
461.0071046175966
 20
-138.3014221332096
 30
0.0
 11
461.0071046175966
 21
-172.2374221332095
 31
0.0
  0
SOLID
  5
70D
  8
DIMENSIONS
 62
     0
 10
461.4237712842632
 20
-138.3014221332096
 30
0.0
 11
460.5904379509299
 21
-138.3014221332096
 31
0.0
 12
461.0071046175966
 22
-135.8014221332096
 32
0.0
 13
461.0071046175966
 23
-135.8014221332096
 33
0.0
  0
SOLID
  5
70E
  8
DIMENSIONS
 62
     0
 10
460.5904379509299
 20
-172.2374221332095
 30
0.0
 11
461.4237712842632
 21
-172.2374221332095
 31
0.0
 12
461.0071046175966
 22
-174.7374221332095
 32
0.0
 13
461.0071046175966
 23
-174.7374221332095
 33
0.0
  0
TEXT
  5
70F
  8
DIMENSIONS
  6
CONTINUOUS
 62
     0
 10
460.2214620473154
 20
-165.7982039270516
 30
0.0
 40
5.0
  1
38.936
 50
90.0
  0
POINT
  5
710
  8
DEFPOINTS
 62
     0
 10
479.5764783762654
 20
-135.8014221332096
 30
0.0
  0
POINT
  5
711
  8
DEFPOINTS
 62
     0
 10
479.5764783762654
 20
-174.7374221332095
 30
0.0
  0
POINT
  5
712
  8
DEFPOINTS
 62
     0
 10
461.0071046175966
 20
-174.7374221332095
 30
0.0
  0
ENDBLK
  5
709
  8
0
  0
BLOCK
  8
0
  2
*D76
 70
     1
 10
0.0
 20
0.0
 30
0.0
  3
*D76
  1

  0
LINE
  5
72D
  8
DIMENSIONS
 62
     0
 10
480.2014783762654
 20
-107.6720303106156
 30
0.0
 11
504.4571648979673
 21
-107.6720303106156
 31
0.0
  0
LINE
  5
72E
  8
DIMENSIONS
 62
     0
 10
480.2014783762654
 20
-24.73742213320963
 30
0.0
 11
504.4571648979673
 21
-24.73742213320963
 31
0.0
  0
LINE
  5
72F
  8
DIMENSIONS
 62
     0
 10
503.2071648979673
 20
-105.1720303106156
 30
0.0
 11
503.2071648979673
 21
-27.23742213320963
 31
0.0
  0
SOLID
  5
730
  8
DIMENSIONS
 62
     0
 10
502.7904982313007
 20
-105.1720303106156
 30
0.0
 11
503.623831564634
 21
-105.1720303106156
 31
0.0
 12
503.2071648979673
 22
-107.6720303106156
 32
0.0
 13
503.2071648979673
 23
-107.6720303106156
 33
0.0
  0
SOLID
  5
731
  8
DIMENSIONS
 62
     0
 10
503.623831564634
 20
-27.23742213320963
 30
0.0
 11
502.7904982313007
 21
-27.23742213320963
 31
0.0
 12
503.2071648979673
 22
-24.73742213320963
 32
0.0
 13
503.2071648979673
 23
-24.73742213320963
 33
0.0
  0
TEXT
  5
732
  8
DIMENSIONS
  6
CONTINUOUS
 62
     0
 10
502.4215223276863
 20
-76.72346785511206
 30
0.0
 40
5.0
  1
82.935
 50
90.0
  0
POINT
  5
733
  8
DEFPOINTS
 62
     0
 10
479.5764783762654
 20
-107.6720303106156
 30
0.0
  0
POINT
  5
734
  8
DEFPOINTS
 62
     0
 10
479.5764783762654
 20
-24.73742213320963
 30
0.0
  0
POINT
  5
735
  8
DEFPOINTS
 62
     0
 10
503.2071648979673
 20
-24.73742213320963
 30
0.0
  0
ENDBLK
  5
72C
  8
0
  0
BLOCK
  8
0
  2
*D77
 70
     1
 10
0.0
 20
0.0
 30
0.0
  3
*D77
  1

  0
LINE
  5
766
  8
DIMENSIONS
 62
     0
 10
268.9514783762654
 20
-205.3209175339413
 30
0.0
 11
261.6233102269449
 21
-205.3209175339413
 31
0.0
  0
LINE
  5
767
  8
DIMENSIONS
 62
     0
 10
268.9514783762654
 20
-220.7474221332096
 30
0.0
 11
261.6233102269449
 21
-220.7474221332096
 31
0.0
  0
LINE
  5
768
  8
DIMENSIONS
 62
     0
 10
262.8733102269449
 20
-220.7474221332096
 30
0.0
 11
262.8733102269449
 21
-244.4974221332096
 31
0.0
  0
LINE
  5
769
  8
DIMENSIONS
 62
     0
 10
262.8733102269449
 20
-207.8209175339413
 30
0.0
 11
262.8733102269449
 21
-218.2474221332096
 31
0.0
  0
SOLID
  5
76A
  8
DIMENSIONS
 62
     0
 10
263.2899768936115
 20
-207.8209175339413
 30
0.0
 11
262.4566435602782
 21
-207.8209175339413
 31
0.0
 12
262.8733102269449
 22
-205.3209175339413
 32
0.0
 13
262.8733102269449
 23
-205.3209175339413
 33
0.0
  0
SOLID
  5
76B
  8
DIMENSIONS
 62
     0
 10
262.4566435602782
 20
-218.2474221332096
 30
0.0
 11
263.2899768936115
 21
-218.2474221332096
 31
0.0
 12
262.8733102269449
 22
-220.7474221332096
 32
0.0
 13
262.8733102269449
 23
-220.7474221332096
 33
0.0
  0
TEXT
  5
76C
  8
DIMENSIONS
  6
CONTINUOUS
 62
     0
 10
262.0876676566637
 20
-244.635474342045
 30
0.0
 40
5.0
  1
15.427
 50
90.0
  0
POINT
  5
76D
  8
DEFPOINTS
 62
     0
 10
269.5764783762654
 20
-205.3209175339413
 30
0.0
  0
POINT
  5
76E
  8
DEFPOINTS
 62
     0
 10
269.5764783762654
 20
-220.7474221332096
 30
0.0
  0
POINT
  5
94F
  8
DEFPOINTS
 62
     0
 10
262.8733102269449
 20
-220.7474221332096
 30
0.0
  0
ENDBLK
  5
765
  8
0
  0
BLOCK
  8
0
  2
*D78
 70
     1
 10
0.0
 20
0.0
 30
0.0
  3
*D78
  1

  0
LINE
  5
775
  8
DIMENSIONS
 62
     0
 10
272.9514783762654
 20
-199.4757212114669
 30
0.0
 11
253.8941390792725
 21
-199.4757212114669
 31
0.0
  0
LINE
  5
776
  8
DIMENSIONS
 62
     0
 10
272.9514783762654
 20
-220.7474221332096
 30
0.0
 11
253.8941390792725
 21
-220.7474221332096
 31
0.0
  0
LINE
  5
777
  8
DIMENSIONS
 62
     0
 10
255.1441390792725
 20
-220.7474221332096
 30
0.0
 11
255.1441390792725
 21
-244.8789482376272
 31
0.0
  0
LINE
  5
778
  8
DIMENSIONS
 62
     0
 10
255.1441390792725
 20
-201.9757212114669
 30
0.0
 11
255.1441390792725
 21
-218.2474221332096
 31
0.0
  0
SOLID
  5
779
  8
DIMENSIONS
 62
     0
 10
255.5608057459392
 20
-201.9757212114669
 30
0.0
 11
254.7274724126059
 21
-201.9757212114669
 31
0.0
 12
255.1441390792725
 22
-199.4757212114669
 32
0.0
 13
255.1441390792725
 23
-199.4757212114669
 33
0.0
  0
SOLID
  5
77A
  8
DIMENSIONS
 62
     0
 10
254.7274724126059
 20
-218.2474221332096
 30
0.0
 11
255.5608057459392
 21
-218.2474221332096
 31
0.0
 12
255.1441390792725
 22
-220.7474221332096
 32
0.0
 13
255.1441390792725
 23
-220.7474221332096
 33
0.0
  0
TEXT
  5
77B
  8
DIMENSIONS
  6
CONTINUOUS
 62
     0
 10
254.5191390792725
 20
-244.5752333781895
 30
0.0
 40
5.0
  1
21.272
 50
90.0
  0
POINT
  5
77C
  8
DEFPOINTS
 62
     0
 10
273.5764783762654
 20
-199.4757212114669
 30
0.0
  0
POINT
  5
77D
  8
DEFPOINTS
 62
     0
 10
273.5764783762654
 20
-220.7474221332096
 30
0.0
  0
POINT
  5
950
  8
DEFPOINTS
 62
     0
 10
255.1441390792725
 20
-220.7474221332096
 30
0.0
  0
ENDBLK
  5
774
  8
0
  0
BLOCK
  8
0
  2
SQUARE_HOLE_UNIT
 70
     0
 10
0.0
 20
0.0
 30
0.0
  3
SQUARE_HOLE_UNIT
  1

  0
POLYLINE
  5
78D
  8
0
 66
     1
 10
0.0
 20
0.0
 30
0.0
 70
     1
  0
VERTEX
  5
B74
  8
0
 10
-3.0
 20
-12.0
 30
0.0
  0
VERTEX
  5
B75
  8
0
 10
-3.0
 20
-6.0
 30
0.0
  0
VERTEX
  5
B76
  8
0
 10
3.0
 20
-6.0
 30
0.0
  0
VERTEX
  5
B77
  8
0
 10
3.0
 20
-12.0
 30
0.0
  0
SEQEND
  5
B85
  8
0
  0
POLYLINE
  5
78E
  8
0
 66
     1
 10
0.0
 20
0.0
 30
0.0
 70
     1
  0
VERTEX
  5
B78
  8
0
 10
-3.0
 20
6.0
 30
0.0
  0
VERTEX
  5
B79
  8
0
 10
-3.0
 20
12.0
 30
0.0
  0
VERTEX
  5
B7A
  8
0
 10
3.0
 20
12.0
 30
0.0
  0
VERTEX
  5
B7B
  8
0
 10
3.0
 20
6.0
 30
0.0
  0
SEQEND
  5
B86
  8
0
  0
CIRCLE
  5
78F
  8
0
 10
0.0
 20
0.0
 30
0.0
 40
1.5
  0
ENDBLK
  5
78C
  8
0
  0
BLOCK
  8
0
  2
*D80
 70
     1
 10
0.0
 20
0.0
 30
0.0
  3
*D80
  1

  0
LINE
  5
79A
  8
DIMENSIONS
 62
     0
 10
279.5764783762654
 20
-211.3624221332096
 30
0.0
 11
279.5764783762654
 21
-242.8973033485011
 31
0.0
  0
LINE
  5
79B
  8
DIMENSIONS
 62
     0
 10
269.5764783762654
 20
-211.3624221332096
 30
0.0
 11
269.5764783762654
 21
-242.8973033485011
 31
0.0
  0
LINE
  5
79C
  8
DIMENSIONS
 62
     0
 10
269.5764783762654
 20
-241.6473033485011
 30
0.0
 11
245.9134931018343
 21
-241.6473033485011
 31
0.0
  0
LINE
  5
79D
  8
DIMENSIONS
 62
     0
 10
277.0764783762654
 20
-241.6473033485011
 30
0.0
 11
272.0764783762654
 21
-241.6473033485011
 31
0.0
  0
SOLID
  5
79E
  8
DIMENSIONS
 62
     0
 10
277.0764783762654
 20
-242.0639700151678
 30
0.0
 11
277.0764783762654
 21
-241.2306366818345
 31
0.0
 12
279.5764783762654
 22
-241.6473033485011
 32
0.0
 13
279.5764783762654
 23
-241.6473033485011
 33
0.0
  0
SOLID
  5
79F
  8
DIMENSIONS
 62
     0
 10
272.0764783762654
 20
-241.2306366818345
 30
0.0
 11
272.0764783762654
 21
-242.0639700151678
 31
0.0
 12
269.5764783762654
 22
-241.6473033485011
 32
0.0
 13
269.5764783762654
 23
-241.6473033485011
 33
0.0
  0
TEXT
  5
7A0
  8
DIMENSIONS
  6
CONTINUOUS
 62
     0
 10
245.775440892999
 20
-240.86166077822
 30
0.0
 40
5.0
  1
10.000
  0
POINT
  5
7A1
  8
DEFPOINTS
 62
     0
 10
279.5764783762654
 20
-210.7374221332096
 30
0.0
  0
POINT
  5
7A2
  8
DEFPOINTS
 62
     0
 10
269.5764783762654
 20
-210.7374221332096
 30
0.0
  0
POINT
  5
7A3
  8
DEFPOINTS
 62
     0
 10
269.5764783762654
 20
-241.6473033485011
 30
0.0
  0
ENDBLK
  5
799
  8
0
  0
BLOCK
  8
0
  2
*D81
 70
     1
 10
0.0
 20
0.0
 30
0.0
  3
*D81
  1

  0
LINE
  5
7AB
  8
DIMENSIONS
 62
     0
 10
278.9514783762654
 20
-186.7374221332096
 30
0.0
 11
260.0552747850876
 21
-186.7374221332096
 31
0.0
  0
LINE
  5
7AC
  8
DIMENSIONS
 62
     0
 10
272.9514783762654
 20
-184.4595384436624
 30
0.0
 11
260.0552747850876
 21
-184.4595384436624
 31
0.0
  0
LINE
  5
7AD
  8
DIMENSIONS
 62
     0
 10
261.3052747850876
 20
-181.9595384436624
 30
0.0
 11
261.3052747850876
 21
-161.6231930621363
 31
0.0
  0
LINE
  5
7AE
  8
DIMENSIONS
 62
     0
 10
261.3052747850876
 20
-186.7374221332096
 30
0.0
 11
261.3052747850876
 21
-184.4595384436624
 31
0.0
  0
LINE
  5
7AF
  8
DIMENSIONS
 62
     0
 10
261.3052747850876
 20
-189.2374221332096
 30
0.0
 11
261.3052747850876
 21
-191.7374221332096
 31
0.0
  0
SOLID
  5
7B0
  8
DIMENSIONS
 62
     0
 10
261.7219414517543
 20
-189.2374221332096
 30
0.0
 11
260.888608118421
 21
-189.2374221332096
 31
0.0
 12
261.3052747850876
 22
-186.7374221332096
 32
0.0
 13
261.3052747850876
 23
-186.7374221332096
 33
0.0
  0
SOLID
  5
7B1
  8
DIMENSIONS
 62
     0
 10
260.888608118421
 20
-181.9595384436624
 30
0.0
 11
261.7219414517543
 21
-181.9595384436624
 31
0.0
 12
261.3052747850876
 22
-184.4595384436624
 32
0.0
 13
261.3052747850876
 23
-184.4595384436624
 33
0.0
  0
TEXT
  5
7B2
  8
DIMENSIONS
  6
CONTINUOUS
 62
     0
 10
260.5196322148065
 20
-179.1558235842246
 30
0.0
 40
5.0
  1
2.278
 50
90.0
  0
POINT
  5
7B3
  8
DEFPOINTS
 62
     0
 10
279.5764783762654
 20
-186.7374221332096
 30
0.0
  0
POINT
  5
7B4
  8
DEFPOINTS
 62
     0
 10
273.5764783762654
 20
-184.4595384436624
 30
0.0
  0
POINT
  5
7FE
  8
DEFPOINTS
 62
     0
 10
261.3052747850876
 20
-184.4595384436624
 30
0.0
  0
ENDBLK
  5
7AA
  8
0
  0
BLOCK
  8
0
  2
*D82
 70
     1
 10
0.0
 20
0.0
 30
0.0
  3
*D82
  1

  0
LINE
  5
7BB
  8
DIMENSIONS
 62
     0
 10
285.0502788187932
 20
-166.9852182106131
 30
0.0
 11
261.0445931531112
 21
-145.0495429984555
 31
0.0
  0
TEXT
  5
7BC
  8
DIMENSIONS
  6
CONTINUOUS
 62
     0
 10
261.5171159302766
 20
-144.4170787202996
 30
0.0
 40
5.0
  1
R261.008
 50
317.5798691126305
  0
LINE
  5
7BD
  8
DIMENSIONS
 62
     0
 10
479.5764783762654
 20
-344.7374221332096
 30
0.0
 11
286.895824765612
 21
-168.671622716709
 31
0.0
  0
SOLID
  5
7BE
  8
DIMENSIONS
 62
     0
 10
284.7692114011106
 20
-167.2928092017495
 30
0.0
 11
285.3313462364759
 21
-166.6776272194766
 31
0.0
 12
286.895824765612
 22
-168.671622716709
 32
0.0
 13
286.895824765612
 23
-168.671622716709
 33
0.0
  0
POINT
  5
7BF
  8
DEFPOINTS
 62
     0
 10
286.895824765612
 20
-168.671622716709
 30
0.0
  0
POINT
  5
7C0
  8
DEFPOINTS
 62
     0
 10
479.5764783762654
 20
-344.7374221332096
 30
0.0
  0
ENDBLK
  5
7BA
  8
0
  0
BLOCK
  8
0
  2
*D83
 70
     1
 10
0.0
 20
0.0
 30
0.0
  3
*D83
  1

  0
LINE
  5
7C7
  8
DIMENSIONS
 62
     0
 10
267.4936855096845
 20
-203.9381760993556
 30
0.0
 11
240.4020430891589
 21
-185.9523566225797
 31
0.0
  0
TEXT
  5
7C8
  8
DIMENSIONS
  6
CONTINUOUS
 62
     0
 10
240.7717534206462
 20
-185.2547871931501
 30
0.0
 40
5.0
  1
R252.065
 50
326.4202886631571
  0
LINE
  5
7C9
  8
DIMENSIONS
 62
     0
 10
479.5764783762654
 20
-344.7374221332096
 30
0.0
 11
269.5764783762653
 21
-205.3209175339412
 31
0.0
  0
SOLID
  5
7CA
  8
DIMENSIONS
 62
     0
 10
267.2632286039202
 20
-204.2853082437857
 30
0.0
 11
267.7241424154488
 21
-203.5910439549255
 31
0.0
 12
269.5764783762653
 22
-205.3209175339412
 32
0.0
 13
269.5764783762653
 23
-205.3209175339412
 33
0.0
  0
POINT
  5
7CB
  8
DEFPOINTS
 62
     0
 10
269.5764783762653
 20
-205.3209175339412
 30
0.0
  0
POINT
  5
7CC
  8
DEFPOINTS
 62
     0
 10
479.5764783762654
 20
-344.7374221332096
 30
0.0
  0
ENDBLK
  5
7C6
  8
0
  0
BLOCK
  8
0
  2
*D84
 70
     1
 10
0.0
 20
0.0
 30
0.0
  3
*D84
  1

  0
LINE
  5
7D6
  8
DIMENSIONS
 62
     0
 10
324.6295895828404
 20
-202.1567576424011
 30
0.0
 11
348.5586215265045
 21
-224.1760269656983
 31
0.0
  0
TEXT
  5
7D7
  8
DIMENSIONS
  6
CONTINUOUS
 62
     0
 10
326.9439682524098
 20
-203.2187764685177
 30
0.0
 40
5.0
  1
R213.065
 50
317.3800312855234
  0
SOLID
  5
7D8
  8
DIMENSIONS
 62
     0
 10
324.9117281132526
 20
-201.8501488350131
 30
0.0
 11
324.3474510524281
 21
-202.4633664497892
 31
0.0
 12
322.7899367385119
 22
-200.4639264599277
 32
0.0
 13
322.7899367385119
 23
-200.4639264599277
 33
0.0
  0
POINT
  5
7D9
  8
DEFPOINTS
 62
     0
 10
322.7899367385119
 20
-200.4639264599277
 30
0.0
  0
POINT
  5
7DA
  8
DEFPOINTS
 62
     0
 10
479.5764783762654
 20
-344.7374221332096
 30
0.0
  0
ENDBLK
  5
7D5
  8
0
  0
BLOCK
  8
0
  2
*D85
 70
     1
 10
0.0
 20
0.0
 30
0.0
  3
*D85
  1

  0
LINE
  5
7E1
  8
DIMENSIONS
 62
     0
 10
322.1337713288302
 20
-170.8618429437715
 30
0.0
 11
343.9604610252805
 21
-194.9666642081506
 31
0.0
  0
TEXT
  5
7E2
  8
DIMENSIONS
  6
CONTINUOUS
 62
     0
 10
324.3419402641073
 20
-172.130000097464
 30
0.0
 40
5.0
  1
R237.065
 50
312.1605452045246
  0
SOLID
  5
7E3
  8
DIMENSIONS
 62
     0
 10
322.4426325697519
 20
-170.5821719853803
 30
0.0
 11
321.8249100879086
 21
-171.1415139021627
 31
0.0
 12
320.4557455784831
 22
-169.0086754982416
 32
0.0
 13
320.4557455784831
 23
-169.0086754982416
 33
0.0
  0
POINT
  5
7E4
  8
DEFPOINTS
 62
     0
 10
320.4557455784831
 20
-169.0086754982416
 30
0.0
  0
POINT
  5
7E5
  8
DEFPOINTS
 62
     0
 10
479.5764783762654
 20
-344.7374221332096
 30
0.0
  0
ENDBLK
  5
7E0
  8
0
  0
BLOCK
  8
0
  2
*D87
 70
     1
 10
0.0
 20
0.0
 30
0.0
  3
*D87
  1

  0
LINE
  5
80B
  8
DIMENSIONS
 62
     0
 10
689.5764783762654
 20
-28.36242213320963
 30
0.0
 11
689.5764783762654
 21
-196.1965355106402
 31
0.0
  0
LINE
  5
80C
  8
DIMENSIONS
 62
     0
 10
269.5764783762654
 20
-28.36242213320966
 30
0.0
 11
269.5764783762654
 21
-196.1965355106402
 31
0.0
  0
LINE
  5
80D
  8
DIMENSIONS
 62
     0
 10
687.0764783762654
 20
-194.9465355106402
 30
0.0
 11
272.0764783762654
 21
-194.9465355106402
 31
0.0
  0
SOLID
  5
80E
  8
DIMENSIONS
 62
     0
 10
687.0764783762654
 20
-195.3632021773069
 30
0.0
 11
687.0764783762654
 21
-194.5298688439736
 31
0.0
 12
689.5764783762654
 22
-194.9465355106402
 32
0.0
 13
689.5764783762654
 23
-194.9465355106402
 33
0.0
  0
SOLID
  5
80F
  8
DIMENSIONS
 62
     0
 10
272.0764783762654
 20
-194.5298688439736
 30
0.0
 11
272.0764783762654
 21
-195.3632021773069
 31
0.0
 12
269.5764783762654
 22
-194.9465355106402
 32
0.0
 13
269.5764783762654
 23
-194.9465355106402
 33
0.0
  0
TEXT
  5
810
  8
DIMENSIONS
  6
CONTINUOUS
 62
     0
 10
467.2036537444046
 20
-194.1608929403591
 30
0.0
 40
5.0
  1
420.000
  0
POINT
  5
811
  8
DEFPOINTS
 62
     0
 10
689.5764783762654
 20
-27.73742213320963
 30
0.0
  0
POINT
  5
812
  8
DEFPOINTS
 62
     0
 10
269.5764783762654
 20
-27.73742213320966
 30
0.0
  0
POINT
  5
813
  8
DEFPOINTS
 62
     0
 10
269.5764783762654
 20
-194.9465355106402
 30
0.0
  0
ENDBLK
  5
80A
  8
0
  0
BLOCK
  8
0
  2
*D88
 70
     1
 10
0.0
 20
0.0
 30
0.0
  3
*D88
  1

  0
LINE
  5
836
  8
FIXIT
 62
     0
 10
352.2124942403929
 20
-134.7205837317809
 30
0.0
 11
345.5909538500616
 21
-119.3088029590098
 31
0.0
  0
LINE
  5
837
  8
FIXIT
 62
     0
 10
414.9041951949712
 20
-107.7856281851301
 30
0.0
 11
408.2826548046399
 21
-92.37384741235901
 31
0.0
  0
LINE
  5
838
  8
FIXIT
 62
     0
 10
348.3813627300783
 20
-119.4704144756892
 30
0.0
 11
406.4791202632863
 21
-94.50920760636481
 31
0.0
  0
SOLID
  5
839
  8
FIXIT
 62
     0
 10
348.2168836736345
 20
-119.0875858572416
 30
0.0
 11
348.5458417865221
 21
-119.8532430941367
 31
0.0
 12
346.0843910193931
 22
-120.4572888143524
 32
0.0
 13
346.0843910193931
 23
-120.4572888143524
 33
0.0
  0
SOLID
  5
83A
  8
FIXIT
 62
     0
 10
406.6435993197301
 20
-94.89203622481234
 30
0.0
 11
406.3146412068425
 21
-94.12637898791728
 31
0.0
 12
408.7760919739715
 22
-93.52233326770161
 32
0.0
 13
408.7760919739715
 23
-93.52233326770161
 33
0.0
  0
TEXT
  5
83B
  8
FIXIT
  6
CONTINUOUS
 62
     0
 10
367.4586834431695
 20
-110.4189208977825
 30
0.0
 40
5.0
  1
68.233
 50
23.25036661973751
  0
POINT
  5
83C
  8
DEFPOINTS
 62
     0
 10
352.4592128250587
 20
-135.2948266594522
 30
0.0
  0
POINT
  5
83D
  8
DEFPOINTS
 62
     0
 10
415.1509137796371
 20
-108.3598711128014
 30
0.0
  0
POINT
  5
83E
  8
DEFPOINTS
 62
     0
 10
408.7760919739715
 20
-93.52233326770161
 30
0.0
  0
ENDBLK
  5
835
  8
0
  0
BLOCK
  8
0
  2
*D89
 70
     1
 10
0.0
 20
0.0
 30
0.0
  3
*D89
  1

  0
LINE
  5
846
  8
FIXIT
 62
     0
 10
609.6077509213142
 20
-154.2767577822036
 30
0.0
 11
618.1614957110577
 21
-135.2486943142023
 31
0.0
  0
LINE
  5
847
  8
FIXIT
 62
     0
 10
658.0559232854757
 20
-176.0558159942726
 30
0.0
 11
666.6096680752192
 21
-157.0277525262713
 31
0.0
  0
LINE
  5
848
  8
FIXIT
 62
     0
 10
619.9291845301357
 20
-137.4138216173664
 30
0.0
 11
663.8169529412412
 21
-157.1428271996352
 31
0.0
  0
SOLID
  5
849
  8
FIXIT
 62
     0
 10
620.1000222492856
 20
-137.0337879546117
 30
0.0
 11
619.7583468109857
 21
-137.7938552801211
 31
0.0
 12
617.6489825536077
 22
-136.3887953024663
 32
0.0
 13
617.6489825536077
 23
-136.3887953024663
 33
0.0
  0
SOLID
  5
84A
  8
FIXIT
 62
     0
 10
663.6461152220912
 20
-157.5228608623899
 30
0.0
 11
663.9877906603912
 21
-156.7627935368806
 31
0.0
 12
666.0971549177692
 22
-158.1678535145353
 32
0.0
 13
666.0971549177692
 23
-158.1678535145353
 33
0.0
  0
TEXT
  5
84B
  8
FIXIT
  6
CONTINUOUS
 62
     0
 10
632.610405711759
 20
-142.253076693941
 30
0.0
 40
5.0
  1
53.118
 50
335.7945039725556
  0
POINT
  5
84C
  8
DEFPOINTS
 62
     0
 10
609.3514943425891
 20
-154.8468082763356
 30
0.0
  0
POINT
  5
84D
  8
DEFPOINTS
 62
     0
 10
657.7996667067507
 20
-176.6258664884046
 30
0.0
  0
POINT
  5
84E
  8
DEFPOINTS
 62
     0
 10
666.0971549177692
 20
-158.1678535145353
 30
0.0
  0
ENDBLK
  5
845
  8
0
  0
BLOCK
  8
0
  2
*D92
 70
     1
 10
0.0
 20
0.0
 30
0.0
  3
*D92
  1

  0
LINE
  5
880
  8
FIXIT
 62
     0
 10
416.4810740198193
 20
-190.9965096494182
 30
0.0
 11
417.7972355437291
 21
-196.3146340304678
 31
0.0
  0
LINE
  5
881
  8
FIXIT
 62
     0
 10
479.7266272231869
 20
-175.3441183700266
 30
0.0
 11
481.0427887470967
 21
-180.6622427510763
 31
0.0
  0
LINE
  5
882
  8
FIXIT
 62
     0
 10
419.9237227971549
 20
-194.5006461691474
 30
0.0
 11
478.3157061059849
 21
-180.0494456651278
 31
0.0
  0
SOLID
  5
883
  8
FIXIT
 62
     0
 10
419.8236235658739
 20
-194.0961820112693
 30
0.0
 11
420.0238220284359
 21
-194.9051103270255
 31
0.0
 12
417.4969378498861
 22
-195.1012415568334
 32
0.0
 13
417.4969378498861
 23
-195.1012415568334
 33
0.0
  0
SOLID
  5
884
  8
FIXIT
 62
     0
 10
478.4158053372659
 20
-180.4539098230059
 30
0.0
 11
478.2156068747039
 21
-179.6449815072497
 31
0.0
 12
480.7424910532537
 22
-179.4488502774419
 32
0.0
 13
480.7424910532537
 23
-179.4488502774419
 33
0.0
  0
TEXT
  5
885
  8
FIXIT
  6
CONTINUOUS
 62
     0
 10
438.6748016727387
 20
-189.0506709138621
 30
0.0
 40
5.0
  1
65.154
 50
13.9005968888882
  0
POINT
  5
886
  8
DEFPOINTS
 62
     0
 10
416.3309251728978
 20
-190.389813412601
 30
0.0
  0
POINT
  5
887
  8
DEFPOINTS
 62
     0
 10
479.5764783762654
 20
-174.7374221332095
 30
0.0
  0
POINT
  5
888
  8
DEFPOINTS
 62
     0
 10
480.7424910532537
 20
-179.4488502774419
 30
0.0
  0
ENDBLK
  5
87F
  8
0
  0
BLOCK
  8
0
  2
*D93
 70
     1
 10
0.0
 20
0.0
 30
0.0
  3
*D93
  1

  0
LINE
  5
892
  8
FIXIT
 62
     0
 10
317.539706068449
 20
-157.6536590214288
 30
0.0
 11
296.2763921141646
 21
-133.1035477464532
 31
0.0
  0
TEXT
  5
893
  8
FIXIT
  6
CONTINUOUS
 62
     0
 10
296.8193120556725
 20
-132.530375193729
 30
0.0
 40
5.0
  1
R245.000
 50
310.8964537242514
  0
LINE
  5
894
  8
FIXIT
 62
     0
 10
479.5764783762654
 20
-344.7374221332096
 30
0.0
 11
319.1764411422654
 21
-159.5433940023559
 31
0.0
  0
SOLID
  5
895
  8
FIXIT
 62
     0
 10
317.2247502382945
 20
-157.9264482003982
 30
0.0
 11
317.8546618986036
 21
-157.3808698424594
 31
0.0
 12
319.1764411422654
 22
-159.5433940023559
 32
0.0
 13
319.1764411422654
 23
-159.5433940023559
 33
0.0
  0
POINT
  5
896
  8
DEFPOINTS
 62
     0
 10
319.1764411422654
 20
-159.5433940023559
 30
0.0
  0
POINT
  5
897
  8
DEFPOINTS
 62
     0
 10
479.5764783762654
 20
-344.7374221332096
 30
0.0
  0
ENDBLK
  5
891
  8
0
  0
BLOCK
  8
0
  2
*D94
 70
     1
 10
0.0
 20
0.0
 30
0.0
  3
*D94
  1

  0
LINE
  5
89E
  8
FIXIT
 62
     0
 10
282.5764783762654
 20
-199.3624221332096
 30
0.0
 11
282.5764783762654
 21
-244.6538884977769
 31
0.0
  0
LINE
  5
89F
  8
FIXIT
 62
     0
 10
676.5764783762654
 20
-199.3724221332101
 30
0.0
 11
676.5764783762654
 21
-244.6538884977769
 31
0.0
  0
LINE
  5
8A0
  8
FIXIT
 62
     0
 10
285.0764783762654
 20
-243.4038884977769
 30
0.0
 11
674.0764783762654
 21
-243.4038884977769
 31
0.0
  0
SOLID
  5
8A1
  8
FIXIT
 62
     0
 10
285.0764783762654
 20
-242.9872218311102
 30
0.0
 11
285.0764783762654
 21
-243.8205551644436
 31
0.0
 12
282.5764783762654
 22
-243.4038884977769
 32
0.0
 13
282.5764783762654
 23
-243.4038884977769
 33
0.0
  0
SOLID
  5
8A2
  8
FIXIT
 62
     0
 10
674.0764783762654
 20
-243.8205551644436
 30
0.0
 11
674.0764783762654
 21
-242.9872218311102
 31
0.0
 12
676.5764783762654
 22
-243.4038884977769
 32
0.0
 13
676.5764783762654
 23
-243.4038884977769
 33
0.0
  0
TEXT
  5
8A3
  8
FIXIT
  6
CONTINUOUS
 62
     0
 10
467.1634931018344
 20
-242.6182459274958
 30
0.0
 40
5.0
  1
394.000
  0
POINT
  5
8A4
  8
DEFPOINTS
 62
     0
 10
282.5764783762654
 20
-198.7374221332096
 30
0.0
  0
POINT
  5
8A5
  8
DEFPOINTS
 62
     0
 10
676.5764783762654
 20
-198.7474221332101
 30
0.0
  0
POINT
  5
8A6
  8
DEFPOINTS
 62
     0
 10
676.5764783762654
 20
-243.4038884977769
 30
0.0
  0
ENDBLK
  5
89D
  8
0
  0
BLOCK
  8
0
  2
*D95
 70
     1
 10
0.0
 20
0.0
 30
0.0
  3
*D95
  1

  0
LINE
  5
8B5
  8
FIXIT
 62
     0
 10
425.7646736717875
 20
-160.7374221332096
 30
0.0
 11
428.2746664840463
 21
-160.7374221332096
 31
0.0
  0
LINE
  5
8B6
  8
FIXIT
 62
     0
 10
419.7646736717875
 20
-198.7374221332096
 30
0.0
 11
428.2746664840463
 21
-198.7374221332096
 31
0.0
  0
LINE
  5
8B7
  8
FIXIT
 62
     0
 10
427.0246664840463
 20
-163.2374221332096
 30
0.0
 11
427.0246664840463
 21
-196.2374221332096
 31
0.0
  0
SOLID
  5
8B8
  8
FIXIT
 62
     0
 10
427.441333150713
 20
-163.2374221332096
 30
0.0
 11
426.6079998173796
 21
-163.2374221332096
 31
0.0
 12
427.0246664840463
 22
-160.7374221332096
 32
0.0
 13
427.0246664840463
 23
-160.7374221332096
 33
0.0
  0
SOLID
  5
8B9
  8
FIXIT
 62
     0
 10
426.6079998173796
 20
-196.2374221332096
 30
0.0
 11
427.441333150713
 21
-196.2374221332096
 31
0.0
 12
427.0246664840463
 22
-198.7374221332096
 32
0.0
 13
427.0246664840463
 23
-198.7374221332096
 33
0.0
  0
TEXT
  5
8BA
  8
FIXIT
  6
CONTINUOUS
 62
     0
 10
426.2390239137651
 20
-190.2461236057664
 30
0.0
 40
5.0
  1
38.000
 50
90.0
  0
POINT
  5
8BB
  8
DEFPOINTS
 62
     0
 10
425.1396736717875
 20
-160.7374221332096
 30
0.0
  0
POINT
  5
8BC
  8
DEFPOINTS
 62
     0
 10
419.1396736717875
 20
-198.7374221332096
 30
0.0
  0
POINT
  5
8BD
  8
DEFPOINTS
 62
     0
 10
427.0246664840463
 20
-198.7374221332096
 30
0.0
  0
ENDBLK
  5
8B4
  8
0
  0
BLOCK
  8
0
  2
*D96
 70
     1
 10
0.0
 20
0.0
 30
0.0
  3
*D96
  1

  0
LINE
  5
8C4
  8
FIXIT
 62
     0
 10
486.2014783762654
 20
-135.8014221332096
 30
0.0
 11
497.4832160706922
 21
-135.8014221332096
 31
0.0
  0
LINE
  5
8C5
  8
FIXIT
 62
     0
 10
480.2014783762654
 20
-174.7374221332095
 30
0.0
 11
497.4832160706922
 21
-174.7374221332095
 31
0.0
  0
LINE
  5
8C6
  8
FIXIT
 62
     0
 10
496.2332160706922
 20
-138.3014221332096
 30
0.0
 11
496.2332160706922
 21
-172.2374221332095
 31
0.0
  0
SOLID
  5
8C7
  8
FIXIT
 62
     0
 10
496.6498827373589
 20
-138.3014221332096
 30
0.0
 11
495.8165494040255
 21
-138.3014221332096
 31
0.0
 12
496.2332160706922
 22
-135.8014221332096
 32
0.0
 13
496.2332160706922
 23
-135.8014221332096
 33
0.0
  0
SOLID
  5
8C8
  8
FIXIT
 62
     0
 10
495.8165494040255
 20
-172.2374221332095
 30
0.0
 11
496.6498827373589
 21
-172.2374221332095
 31
0.0
 12
496.2332160706922
 22
-174.7374221332095
 32
0.0
 13
496.2332160706922
 23
-174.7374221332095
 33
0.0
  0
TEXT
  5
8C9
  8
FIXIT
  6
CONTINUOUS
 62
     0
 10
495.4475735004111
 20
-165.7982039270516
 30
0.0
 40
5.0
  1
38.936
 50
90.0
  0
POINT
  5
8CA
  8
DEFPOINTS
 62
     0
 10
485.5764783762654
 20
-135.8014221332096
 30
0.0
  0
POINT
  5
8CB
  8
DEFPOINTS
 62
     0
 10
479.5764783762654
 20
-174.7374221332095
 30
0.0
  0
POINT
  5
8CC
  8
DEFPOINTS
 62
     0
 10
496.2332160706922
 20
-174.7374221332095
 30
0.0
  0
ENDBLK
  5
8C3
  8
0
  0
BLOCK
  8
0
  2
*D97
 70
     1
 10
0.0
 20
0.0
 30
0.0
  3
*D97
  1

  0
LINE
  5
8D7
  8
FIXIT
 62
     0
 10
675.0764783762654
 20
-198.7474221332101
 30
0.0
 11
697.01052881175
 21
-198.7474221332101
 31
0.0
  0
TEXT
  5
8D8
  8
FIXIT
  6
CONTINUOUS
 62
     0
 10
675.3279652240658
 20
-197.9082320395019
 30
0.0
 40
5.0
  1
3.000
  0
LINE
  5
8D9
  8
FIXIT
 62
     0
 10
678.0764783762654
 20
-198.7474221332101
 30
0.0
 11
675.0764783762654
 21
-198.7474221332101
 31
0.0
  0
SOLID
  5
8DA
  8
FIXIT
 62
     0
 10
677.5764783762654
 20
-198.3307554665434
 30
0.0
 11
677.5764783762654
 21
-199.1640887998767
 31
0.0
 12
675.0764783762654
 22
-198.7474221332101
 32
0.0
 13
675.0764783762654
 23
-198.7474221332101
 33
0.0
  0
POINT
  5
8DB
  8
DEFPOINTS
 62
     0
 10
675.0764783762654
 20
-198.7474221332101
 30
0.0
  0
POINT
  5
8DC
  8
DEFPOINTS
 62
     0
 10
678.0764783762654
 20
-198.7474221332101
 30
0.0
  0
ENDBLK
  5
8D6
  8
0
  0
BLOCK
  8
0
  2
*D98
 70
     1
 10
0.0
 20
0.0
 30
0.0
  3
*D98
  1

  0
LINE
  5
8F2
  8
FIXIT
 62
     0
 10
658.4246667067507
 20
-210.74742213321
 30
0.0
 11
708.4677518410494
 21
-210.74742213321
 31
0.0
  0
LINE
  5
8F3
  8
FIXIT
 62
     0
 10
658.4246667067507
 20
-234.7374221332096
 30
0.0
 11
708.4677518410494
 21
-234.7374221332096
 31
0.0
  0
LINE
  5
8F4
  8
FIXIT
 62
     0
 10
707.2177518410494
 20
-213.24742213321
 30
0.0
 11
707.2177518410494
 21
-232.2374221332096
 31
0.0
  0
SOLID
  5
8F5
  8
FIXIT
 62
     0
 10
707.6344185077161
 20
-213.24742213321
 30
0.0
 11
706.8010851743828
 21
-213.24742213321
 31
0.0
 12
707.2177518410494
 22
-210.74742213321
 32
0.0
 13
707.2177518410494
 23
-210.74742213321
 33
0.0
  0
SOLID
  5
8F6
  8
FIXIT
 62
     0
 10
706.8010851743828
 20
-232.2374221332096
 30
0.0
 11
707.6344185077161
 21
-232.2374221332096
 31
0.0
 12
707.2177518410494
 22
-234.7374221332096
 32
0.0
 13
707.2177518410494
 23
-234.7374221332096
 33
0.0
  0
TEXT
  5
8F7
  8
FIXIT
  6
CONTINUOUS
 62
     0
 10
706.4321092707683
 20
-233.2410834451242
 30
0.0
 40
5.0
  1
23.990
 50
90.0
  0
POINT
  5
8F8
  8
DEFPOINTS
 62
     0
 10
657.7996667067507
 20
-210.74742213321
 30
0.0
  0
POINT
  5
8F9
  8
DEFPOINTS
 62
     0
 10
657.7996667067507
 20
-234.7374221332096
 30
0.0
  0
POINT
  5
8FA
  8
DEFPOINTS
 62
     0
 10
707.2177518410494
 20
-234.7374221332096
 30
0.0
  0
ENDBLK
  5
8F1
  8
0
  0
BLOCK
  8
0
  2
*D101
 70
     1
 10
0.0
 20
0.0
 30
0.0
  3
*D101
  1

  0
LINE
  5
943
  8
FIXIT
 62
     0
 10
478.9216269139433
 20
-174.7374221332095
 30
0.0
 11
456.6549560998235
 21
-174.7374221332095
 31
0.0
  0
LINE
  5
944
  8
FIXIT
 62
     0
 10
478.9514783762654
 20
-204.7374221332096
 30
0.0
 11
456.6549560998235
 21
-204.7374221332096
 31
0.0
  0
LINE
  5
945
  8
FIXIT
 62
     0
 10
457.9049560998235
 20
-177.2374221332095
 30
0.0
 11
457.9049560998235
 21
-202.2374221332096
 31
0.0
  0
SOLID
  5
946
  8
FIXIT
 62
     0
 10
458.3216227664902
 20
-177.2374221332095
 30
0.0
 11
457.4882894331568
 21
-177.2374221332095
 31
0.0
 12
457.9049560998235
 22
-174.7374221332095
 32
0.0
 13
457.9049560998235
 23
-174.7374221332095
 33
0.0
  0
SOLID
  5
947
  8
FIXIT
 62
     0
 10
457.4882894331568
 20
-202.2374221332096
 30
0.0
 11
458.3216227664902
 21
-202.2374221332096
 31
0.0
 12
457.9049560998235
 22
-204.7374221332096
 32
0.0
 13
457.9049560998235
 23
-204.7374221332096
 33
0.0
  0
TEXT
  5
948
  8
FIXIT
  6
CONTINUOUS
 62
     0
 10
457.1193135295424
 20
-200.2461236057664
 30
0.0
 40
5.0
  1
30.000
 50
90.0
  0
POINT
  5
949
  8
DEFPOINTS
 62
     0
 10
479.5466269139433
 20
-174.7374221332095
 30
0.0
  0
POINT
  5
94A
  8
DEFPOINTS
 62
     0
 10
479.5764783762654
 20
-204.7374221332096
 30
0.0
  0
POINT
  5
94B
  8
DEFPOINTS
 62
     0
 10
457.9049560998235
 20
-204.7374221332096
 30
0.0
  0
ENDBLK
  5
942
  8
0
  0
BLOCK
  8
0
  2
*D102
 70
     1
 10
0.0
 20
0.0
 30
0.0
  3
*D102
  1

  0
LINE
  5
96A
  8
FIXIT
 62
     0
 10
302.4825992440809
 20
-99.73742213320958
 30
0.0
 11
314.7758577193605
 21
-99.73742213320958
 31
0.0
  0
LINE
  5
96B
  8
FIXIT
 62
     0
 10
302.4825992440809
 20
-116.3469771027451
 30
0.0
 11
314.7758577193605
 21
-116.3469771027451
 31
0.0
  0
LINE
  5
96C
  8
FIXIT
 62
     0
 10
313.5258577193605
 20
-116.3469771027451
 30
0.0
 11
313.5258577193605
 21
-140.0099623771762
 31
0.0
  0
LINE
  5
96D
  8
FIXIT
 62
     0
 10
313.5258577193605
 20
-102.2374221332096
 30
0.0
 11
313.5258577193605
 21
-113.8469771027451
 31
0.0
  0
SOLID
  5
96E
  8
FIXIT
 62
     0
 10
313.9425243860272
 20
-102.2374221332096
 30
0.0
 11
313.1091910526938
 21
-102.2374221332096
 31
0.0
 12
313.5258577193605
 22
-99.73742213320958
 32
0.0
 13
313.5258577193605
 23
-99.73742213320958
 33
0.0
  0
SOLID
  5
96F
  8
FIXIT
 62
     0
 10
313.1091910526938
 20
-113.8469771027451
 30
0.0
 11
313.9425243860272
 21
-113.8469771027451
 31
0.0
 12
313.5258577193605
 22
-116.3469771027451
 32
0.0
 13
313.5258577193605
 23
-116.3469771027451
 33
0.0
  0
TEXT
  5
970
  8
FIXIT
  6
CONTINUOUS
 62
     0
 10
312.7402151490794
 20
-140.1480145860116
 30
0.0
 40
5.0
  1
16.610
 50
90.0
  0
POINT
  5
971
  8
DEFPOINTS
 62
     0
 10
301.8575992440809
 20
-99.73742213320958
 30
0.0
  0
POINT
  5
972
  8
DEFPOINTS
 62
     0
 10
301.8575992440809
 20
-116.3469771027451
 30
0.0
  0
POINT
  5
973
  8
DEFPOINTS
 62
     0
 10
313.5258577193605
 20
-116.3469771027451
 30
0.0
  0
ENDBLK
  5
969
  8
0
  0
BLOCK
  8
0
  2
*D103
 70
     1
 10
0.0
 20
0.0
 30
0.0
  3
*D103
  1

  0
LINE
  5
97F
  8
FIXIT
 62
     0
 10
302.4825992440809
 20
-99.73742213320958
 30
0.0
 11
329.3018506559195
 21
-99.73742213320958
 31
0.0
  0
LINE
  5
980
  8
FIXIT
 62
     0
 10
302.4825992440809
 20
-116.3469771027451
 30
0.0
 11
329.3018506559195
 21
-116.3469771027451
 31
0.0
  0
LINE
  5
981
  8
FIXIT
 62
     0
 10
328.0518506559195
 20
-116.3469771027451
 30
0.0
 11
328.0518506559195
 21
-140.0099623771762
 31
0.0
  0
LINE
  5
982
  8
FIXIT
 62
     0
 10
328.0518506559195
 20
-102.2374221332096
 30
0.0
 11
328.0518506559195
 21
-113.8469771027451
 31
0.0
  0
SOLID
  5
983
  8
FIXIT
 62
     0
 10
328.4685173225861
 20
-102.2374221332096
 30
0.0
 11
327.6351839892528
 21
-102.2374221332096
 31
0.0
 12
328.0518506559195
 22
-99.73742213320958
 32
0.0
 13
328.0518506559195
 23
-99.73742213320958
 33
0.0
  0
SOLID
  5
984
  8
FIXIT
 62
     0
 10
327.6351839892528
 20
-113.8469771027451
 30
0.0
 11
328.4685173225861
 21
-113.8469771027451
 31
0.0
 12
328.0518506559195
 22
-116.3469771027451
 32
0.0
 13
328.0518506559195
 23
-116.3469771027451
 33
0.0
  0
TEXT
  5
985
  8
FIXIT
  6
CONTINUOUS
 62
     0
 10
327.2662080856384
 20
-140.1480145860116
 30
0.0
 40
5.0
  1
16.610
 50
90.0
  0
POINT
  5
986
  8
DEFPOINTS
 62
     0
 10
301.8575992440809
 20
-99.73742213320958
 30
0.0
  0
POINT
  5
987
  8
DEFPOINTS
 62
     0
 10
301.8575992440809
 20
-116.3469771027451
 30
0.0
  0
POINT
  5
988
  8
DEFPOINTS
 62
     0
 10
328.0518506559195
 20
-116.3469771027451
 30
0.0
  0
ENDBLK
  5
97E
  8
0
  0
BLOCK
  8
0
  2
*D104
 70
     1
 10
0.0
 20
0.0
 30
0.0
  3
*D104
  1

  0
LINE
  5
993
  8
DIMENSIONS
 62
     0
 10
478.9514783762654
 20
-84.73742213320958
 30
0.0
 11
136.4236318431495
 21
-84.73742213320955
 31
0.0
  0
LINE
  5
994
  8
DIMENSIONS
 62
     0
 10
478.9514783762654
 20
-234.7374221332096
 30
0.0
 11
136.4236318431495
 21
-234.7374221332095
 31
0.0
  0
LINE
  5
995
  8
DIMENSIONS
 62
     0
 10
137.6736318431495
 20
-87.23742213320955
 30
0.0
 11
137.6736318431495
 21
-232.2374221332095
 31
0.0
  0
SOLID
  5
996
  8
DIMENSIONS
 62
     0
 10
138.0902985098161
 20
-87.23742213320955
 30
0.0
 11
137.2569651764828
 21
-87.23742213320955
 31
0.0
 12
137.6736318431495
 22
-84.73742213320955
 32
0.0
 13
137.6736318431495
 23
-84.73742213320955
 33
0.0
  0
SOLID
  5
997
  8
DIMENSIONS
 62
     0
 10
137.2569651764828
 20
-232.2374221332095
 30
0.0
 11
138.0902985098161
 21
-232.2374221332095
 31
0.0
 12
137.6736318431495
 22
-234.7374221332095
 32
0.0
 13
137.6736318431495
 23
-234.7374221332095
 33
0.0
  0
TEXT
  5
998
  8
DIMENSIONS
  6
CONTINUOUS
 62
     0
 10
136.8879892728683
 20
-172.3612507811346
 30
0.0
 40
5.0
  1
150.000
 50
90.0
  0
POINT
  5
999
  8
DEFPOINTS
 62
     0
 10
479.5764783762654
 20
-84.73742213320958
 30
0.0
  0
POINT
  5
99A
  8
DEFPOINTS
 62
     0
 10
479.5764783762654
 20
-234.7374221332096
 30
0.0
  0
POINT
  5
99B
  8
DEFPOINTS
 62
     0
 10
137.6736318431495
 20
-234.7374221332095
 30
0.0
  0
ENDBLK
  5
992
  8
0
  0
BLOCK
  8
0
  2
*D105
 70
     1
 10
0.0
 20
0.0
 30
0.0
  3
*D105
  1

  0
LINE
  5
9A7
  8
DIMENSIONS
 62
     0
 10
687.2014783762654
 20
-24.73742213320963
 30
0.0
 11
867.6123494662864
 21
-24.73742213320963
 31
0.0
  0
LINE
  5
9A8
  8
DIMENSIONS
 62
     0
 10
682.191577143507
 20
-234.7374221332096
 30
0.0
 11
867.6123494662864
 21
-234.7374221332096
 31
0.0
  0
LINE
  5
9A9
  8
DIMENSIONS
 62
     0
 10
866.3623494662864
 20
-27.23742213320963
 30
0.0
 11
866.3623494662864
 21
-232.2374221332096
 31
0.0
  0
SOLID
  5
9AA
  8
DIMENSIONS
 62
     0
 10
866.7790161329531
 20
-27.23742213320963
 30
0.0
 11
865.9456827996198
 21
-27.23742213320963
 31
0.0
 12
866.3623494662864
 22
-24.73742213320963
 32
0.0
 13
866.3623494662864
 23
-24.73742213320963
 33
0.0
  0
SOLID
  5
9AB
  8
DIMENSIONS
 62
     0
 10
865.9456827996198
 20
-232.2374221332096
 30
0.0
 11
866.7790161329531
 21
-232.2374221332096
 31
0.0
 12
866.3623494662864
 22
-234.7374221332096
 32
0.0
 13
866.3623494662864
 23
-234.7374221332096
 33
0.0
  0
TEXT
  5
9AC
  8
DIMENSIONS
  6
CONTINUOUS
 62
     0
 10
865.5767068960052
 20
-142.1403672469982
 30
0.0
 40
5.0
  1
210.000
 50
90.0
  0
POINT
  5
9AD
  8
DEFPOINTS
 62
     0
 10
686.5764783762654
 20
-24.73742213320963
 30
0.0
  0
POINT
  5
9AE
  8
DEFPOINTS
 62
     0
 10
681.566577143507
 20
-234.7374221332096
 30
0.0
  0
POINT
  5
9AF
  8
DEFPOINTS
 62
     0
 10
866.3623494662864
 20
-234.7374221332096
 30
0.0
  0
ENDBLK
  5
9A6
  8
0
  0
BLOCK
  8
0
  2
TEMP
 70
     0
 10
0.0
 20
0.0
 30
0.0
  3
TEMP
  1

  0
POLYLINE
  5
B5D
  8
0
 66
     1
 10
0.0
 20
0.0
 30
0.0
 70
     1
  0
VERTEX
  5
B7C
  8
0
 10
431.3394480603322
 20
-89.49693215265225
 30
0.0
  0
VERTEX
  5
B7D
  8
0
 10
431.3394480603322
 20
-94.7492259207917
 30
0.0
  0
VERTEX
  5
B7E
  8
0
 10
442.8377127959888
 20
-94.7492259207917
 30
0.0
  0
VERTEX
  5
B7F
  8
0
 10
442.8377127959888
 20
-89.49693215265225
 30
0.0
  0
SEQEND
  5
B87
  8
0
  0
ENDBLK
  5
B5C
  8
0
  0
ENDSEC
  0
SECTION
  2
ENTITIES
  0
POLYLINE
  5
B7
  8
0
 66
     1
 10
0.0
 20
0.0
 30
0.0
  0
VERTEX
  5
B5E
  8
0
 10
38.08547795636113
 20
164.9975462816776
 30
0.0
  0
VERTEX
  5
B5F
  8
0
 10
227.1422584488353
 20
76.83892171190811
 30
0.0
  0
SEQEND
  5
B80
  8
0
  0
POLYLINE
  5
C4
  8
0
 66
     1
 10
0.0
 20
0.0
 30
0.0
 70
     1
  0
VERTEX
  5
B60
  8
0
 10
225.8744036636134
 20
70.8098645939108
 30
0.0
  0
VERTEX
  5
B61
  8
0
 10
225.8744036636134
 20
40.8098645939108
 30
0.0
  0
VERTEX
  5
B62
  8
0
 10
219.8744036636134
 20
40.8098645939108
 30
0.0
  0
VERTEX
  5
B63
  8
0
 10
219.8744036636134
 20
70.8098645939108
 30
0.0
  0
SEQEND
  5
B81
  8
0
  0
LINE
  5
DC
  8
0
 10
92.51691130229793
 20
139.6588909733415
 30
0.0
 11
105.1954591545189
 21
166.848124584441
 31
0.0
  0
LINE
  5
DF
  8
0
 10
105.1788963677132
 20
166.8127090335412
 30
0.0
 11
203.8580584250661
 21
120.7978600658794
 31
0.0
  0
LINE
  5
E3
  8
0
 10
203.8580584250661
 20
120.7978600658794
 30
0.0
 11
225.8744036636134
 21
110.5314696765604
 31
0.0
  0
LINE
  5
132
  8
0
 10
219.8744036636134
 20
70.8098645939108
 30
0.0
 11
219.8744036636134
 21
73.60771054284079
 31
0.0
  0
LINE
  5
133
  8
0
 10
41.54976838591701
 20
40.8098645939108
 30
0.0
 11
219.8744036636134
 21
40.8098645939108
 31
0.0
  0
LINE
  5
134
  8
0
 10
219.8744036636134
 20
40.8098645939108
 30
0.0
 11
219.8744036636134
 21
46.8098645939108
 31
0.0
  0
LINE
  5
135
  8
0
 10
219.8744036636134
 20
46.8098645939108
 30
0.0
 11
41.54976838591701
 21
46.8098645939108
 31
0.0
  0
LINE
  5
137
  8
0
 10
219.8744036636134
 20
40.8098645939108
 30
0.0
 11
225.8744036636134
 21
40.8098645939108
 31
0.0
  0
LINE
  5
138
  8
0
 10
225.8744036636134
 20
110.5314696765604
 30
0.0
 11
228.4101132340576
 21
109.3490488850053
 31
0.0
  0
DIMENSION
  5
22D
  8
DIMENSIONS
  2
*D15
 10
208.4936425996221
 20
85.53491409638693
 30
0.0
 11
211.9279088850554
 21
100.4841582117833
 31
0.0
 70
    33
  3
ISO-25
 13
228.4101132340576
 23
109.3490488850053
 33
0.0
 14
215.7315653818365
 24
82.1598152739058
 34
0.0
  0
LINE
  5
264
  8
0
 10
228.4101132340576
 20
109.3490488850053
 30
0.0
 11
227.1422584488355
 21
106.6301255238954
 31
0.0
  0
DIMENSION
  5
317
  8
DIMENSIONS
  2
*D27
 10
231.2678547852221
 20
35.82026092998456
 30
0.0
 11
233.0418871573271
 21
72.7091377075528
 31
0.0
 70
    33
  3
ISO-25
 13
228.4101132340576
 23
109.3490488850053
 33
0.0
 14
231.2678547852221
 24
35.82026092998456
 34
0.0
  0
LINE
  5
338
  8
0
 10
227.1422584488355
 20
106.6301255238954
 30
0.0
 11
228.4101132340576
 21
106.0389151281179
 31
0.0
  0
LINE
  5
339
  8
0
 10
228.4101132340576
 20
106.0389151281179
 30
0.0
 11
227.1422584488354
 21
103.319991767008
 31
0.0
  0
LINE
  5
33A
  8
0
 10
227.1422584488354
 20
103.319991767008
 30
0.0
 11
228.4101132340576
 21
102.7287813712305
 31
0.0
  0
LINE
  5
33B
  8
0
 10
228.4101132340576
 20
102.7287813712305
 30
0.0
 11
227.1422584488354
 21
100.0098580101205
 31
0.0
  0
LINE
  5
33C
  8
0
 10
227.1422584488354
 20
100.0098580101205
 30
0.0
 11
228.4101132340576
 21
99.41864761434299
 31
0.0
  0
LINE
  5
33D
  8
0
 10
228.4101132340576
 20
99.41864761434299
 30
0.0
 11
227.1422584488354
 21
96.69972425323306
 31
0.0
  0
LINE
  5
33E
  8
0
 10
227.1422584488354
 20
96.69972425323306
 30
0.0
 11
228.4101132340576
 21
96.10851385745552
 31
0.0
  0
LINE
  5
33F
  8
0
 10
228.4101132340576
 20
96.10851385745552
 30
0.0
 11
227.1422584488354
 21
93.38959049634559
 31
0.0
  0
LINE
  5
340
  8
0
 10
227.1422584488354
 20
93.38959049634559
 30
0.0
 11
228.4101132340576
 21
92.79838010056807
 31
0.0
  0
LINE
  5
341
  8
0
 10
228.4101132340576
 20
92.79838010056807
 30
0.0
 11
227.1422584488354
 21
90.07945673945812
 31
0.0
  0
LINE
  5
342
  8
0
 10
227.1422584488354
 20
90.07945673945812
 30
0.0
 11
228.4101132340576
 21
89.4882463436806
 31
0.0
  0
LINE
  5
343
  8
0
 10
228.4101132340576
 20
89.4882463436806
 30
0.0
 11
227.1422584488354
 21
86.76932298257067
 31
0.0
  0
LINE
  5
344
  8
0
 10
227.1422584488354
 20
86.76932298257067
 30
0.0
 11
228.4101132340576
 21
86.17811258679313
 31
0.0
  0
LINE
  5
345
  8
0
 10
228.4101132340576
 20
86.17811258679313
 30
0.0
 11
227.1422584488354
 21
83.45918922568319
 31
0.0
  0
LINE
  5
346
  8
0
 10
227.1422584488354
 20
83.45918922568319
 30
0.0
 11
228.4101132340575
 21
82.8679788299057
 31
0.0
  0
LINE
  5
347
  8
0
 10
228.4101132340575
 20
82.8679788299057
 30
0.0
 11
227.1422584488354
 21
80.14905546879575
 31
0.0
  0
LINE
  5
348
  8
0
 10
227.1422584488354
 20
80.14905546879575
 30
0.0
 11
228.4101132340575
 21
79.55784507301821
 31
0.0
  0
LINE
  5
349
  8
0
 10
228.4101132340575
 20
79.55784507301821
 30
0.0
 11
227.1422584488354
 21
76.83892171190811
 31
0.0
  0
DIMENSION
  5
34B
  8
DIMENSIONS
  2
*D28
 10
227.1422584488354
 20
103.319991767008
 30
0.0
 11
218.367906324696
 21
92.08776921321567
 31
0.0
 70
    33
  3
ISO-25
 13
228.4101132340576
 23
106.0389151281179
 33
0.0
 14
227.1422584488354
 24
103.319991767008
 34
0.0
  0
DIMENSION
  5
35C
  8
DIMENSIONS
  2
*D29
 10
227.1422584488355
 20
100.0098580101205
 30
0.0
 11
218.3679063246962
 21
88.77763545632801
 31
0.0
 70
    33
  3
ISO-25
 13
228.4101132340576
 23
102.7287813712305
 33
0.0
 14
227.1422584488355
 24
100.0098580101205
 34
0.0
  0
DIMENSION
  5
36D
  8
DIMENSIONS
  2
*D30
 10
227.1422584488354
 20
96.69972425323306
 30
0.0
 11
218.367906324696
 21
85.46750169944073
 31
0.0
 70
    33
  3
ISO-25
 13
228.4101132340576
 23
99.41864761434299
 33
0.0
 14
227.1422584488354
 24
96.69972425323306
 34
0.0
  0
DIMENSION
  5
37E
  8
DIMENSIONS
  2
*D31
 10
227.1422584488354
 20
93.38959049634559
 30
0.0
 11
232.9672869123496
 21
59.6226191431776
 31
0.0
 70
    33
  3
ISO-25
 13
232.4007395190178
 23
25.36158683214636
 33
0.0
 14
227.1422584488354
 24
93.38959049634559
 34
0.0
  0
DIMENSION
  5
38F
  8
DIMENSIONS
  2
*D32
 10
227.0175639968521
 20
90.13760271734739
 30
0.0
 11
218.243211872713
 21
78.90538016355478
 31
0.0
 70
    33
  3
ISO-25
 13
228.4101132340576
 23
92.79838010056807
 33
0.0
 14
227.1422584488355
 24
90.07945673945808
 34
0.0
  0
DIMENSION
  5
3A0
  8
DIMENSIONS
  2
*D33
 10
227.1422584488354
 20
86.76932298257067
 30
0.0
 11
218.367906324696
 21
75.53710042877834
 31
0.0
 70
    33
  3
ISO-25
 13
228.4101132340576
 23
89.4882463436806
 33
0.0
 14
227.1422584488354
 24
86.76932298257067
 34
0.0
  0
DIMENSION
  5
3B1
  8
DIMENSIONS
  2
*D34
 10
227.1422584488354
 20
83.45918922568319
 30
0.0
 11
218.367906324696
 21
72.22696667189085
 31
0.0
 70
    33
  3
ISO-25
 13
228.4101132340576
 23
86.17811258679313
 33
0.0
 14
227.1422584488354
 24
83.45918922568319
 34
0.0
  0
DIMENSION
  5
3C2
  8
DIMENSIONS
  2
*D35
 10
227.1422584488354
 20
80.14905546879575
 30
0.0
 11
218.3679063246962
 21
68.91683291500327
 31
0.0
 70
    33
  3
ISO-25
 13
228.4101132340575
 23
82.8679788299057
 33
0.0
 14
227.1422584488354
 24
80.14905546879575
 34
0.0
  0
DIMENSION
  5
3D3
  8
DIMENSIONS
  2
*D36
 10
227.1422584488354
 20
76.83892171190811
 30
0.0
 11
218.3679063246962
 21
65.60669915811559
 31
0.0
 70
    33
  3
ISO-25
 13
228.4101132340575
 23
79.55784507301821
 33
0.0
 14
227.1422584488354
 24
76.83892171190811
 34
0.0
  0
DIMENSION
  5
3E4
  8
DIMENSIONS
  2
*D37
 10
228.4668142483146
 20
106.1605108455921
 30
0.0
 11
242.2232687477399
 21
103.282451492654
 31
0.0
 70
    33
  3
ISO-25
 13
227.1422584488355
 23
106.6301255238954
 33
0.0
 14
228.4101132340576
 24
106.0389151281179
 34
0.0
  0
DIMENSION
  5
3F5
  8
DIMENSIONS
  2
*D38
 10
228.4101132340576
 20
102.7287813712305
 30
0.0
 11
242.1665677334828
 21
99.85072201829232
 31
0.0
 70
    33
  3
ISO-25
 13
227.1422584488354
 23
103.319991767008
 33
0.0
 14
228.4101132340576
 24
102.7287813712305
 34
0.0
  0
DIMENSION
  5
406
  8
DIMENSIONS
  2
*D39
 10
228.4101132340576
 20
99.41864761434299
 30
0.0
 11
233.0428802765418
 21
64.44242412229869
 31
0.0
 70
    33
  3
ISO-25
 13
231.2703170875446
 23
29.20527384058079
 33
0.0
 14
228.4101132340576
 24
99.41864761434299
 34
0.0
  0
DIMENSION
  5
417
  8
DIMENSIONS
  2
*D40
 10
228.4101132340576
 20
96.10851385745549
 30
0.0
 11
242.1665677334828
 21
93.2304545045171
 31
0.0
 70
    33
  3
ISO-25
 13
227.1422584488354
 23
96.69972425323306
 33
0.0
 14
228.4101132340576
 24
96.10851385745549
 34
0.0
  0
DIMENSION
  5
428
  8
DIMENSIONS
  2
*D41
 10
228.4101132340575
 20
92.79838010056802
 30
0.0
 11
242.1665677334827
 21
89.92032074762952
 31
0.0
 70
    33
  3
ISO-25
 13
227.1422584488354
 23
93.38959049634559
 33
0.0
 14
228.4101132340575
 24
92.79838010056802
 34
0.0
  0
DIMENSION
  5
439
  8
DIMENSIONS
  2
*D42
 10
202.0252186533651
 20
32.90565731847282
 30
0.0
 11
218.0011640291402
 21
28.99263237268725
 31
0.0
 70
    33
  3
ISO-25
 13
231.2678547852221
 23
19.2695921455473
 33
0.0
 14
202.0252186533651
 24
32.90565731847283
 34
0.0
  0
DIMENSION
  5
44A
  8
DIMENSIONS
  2
*D43
 10
232.5357095704441
 20
15.36824799288231
 30
0.0
 11
233.0351996253771
 21
51.31021928546821
 31
0.0
 70
    33
  3
ISO-25
 13
227.1422584488354
 23
86.76932298257067
 33
0.0
 14
232.5357095704441
 24
15.36824799288231
 34
0.0
  0
DIMENSION
  5
45B
  8
DIMENSIONS
  2
*D44
 10
232.5357095704441
 20
12.05811423599485
 30
0.0
 11
233.0351996253771
 21
48.00008552858074
 31
0.0
 70
    33
  3
ISO-25
 13
227.1422584488354
 23
83.45918922568319
 33
0.0
 14
232.5357095704441
 24
12.05811423599485
 34
0.0
  0
DIMENSION
  5
46C
  8
DIMENSIONS
  2
*D45
 10
232.5357095704441
 20
8.747980479107394
 30
0.0
 11
233.0351996253771
 21
44.68995177169329
 31
0.0
 70
    33
  3
ISO-25
 13
227.1422584488354
 23
80.14905546879575
 33
0.0
 14
232.5357095704441
 24
8.747980479107394
 34
0.0
  0
DIMENSION
  5
47D
  8
DIMENSIONS
  2
*D46
 10
227.1422584488354
 20
76.83892171190807
 30
0.0
 11
241.0202704970282
 21
80.04424299704863
 31
0.0
 70
    33
  3
ISO-25
 13
227.1422584488354
 23
76.83892171190811
 33
0.0
 14
227.1422584488354
 24
76.83892171190807
 34
0.0
  0
DIMENSION
  5
49F
  8
DIMENSIONS
  2
*D48
 10
215.6585932363166
 20
70.8098645939108
 30
0.0
 11
212.453271951176
 21
56.89169190314776
 31
0.0
 70
    32
  3
ISO-25
 13
219.8744036636134
 23
73.60771054284079
 33
0.0
 14
219.8744036636134
 24
70.8098645939108
 34
0.0
 50
90.0
  0
DIMENSION
  5
4B0
  8
DIMENSIONS
  2
*D49
 10
227.1422584488353
 20
76.83892171190811
 30
0.0
 11
241.0202704970281
 21
80.04424299704867
 31
0.0
 70
    33
  3
ISO-25
 13
227.1422584488353
 23
76.83892171190811
 33
0.0
 14
227.1422584488353
 24
76.83892171190811
 34
0.0
  0
DIMENSION
  5
4BF
  8
DIMENSIONS
  2
*D50
 10
235.4657943148916
 20
40.8098645939108
 30
0.0
 11
232.260473029751
 21
55.8098645939108
 31
0.0
 70
    32
  3
ISO-25
 13
225.8744036636134
 23
70.8098645939108
 33
0.0
 14
225.8744036636134
 24
40.8098645939108
 34
0.0
 50
90.0
  0
DIMENSION
  5
4CE
  8
DIMENSIONS
  2
*D51
 10
200.9088419339395
 20
73.60771054284079
 30
0.0
 11
197.7035206487989
 21
57.2087875683758
 31
0.0
 70
    32
  3
ISO-25
 13
219.8744036636134
 23
40.8098645939108
 33
0.0
 14
219.8744036636134
 24
73.60771054284079
 34
0.0
 50
90.0
  0
LINE
  5
4E2
  8
0
 10
38.08547795636113
 20
164.9975462816776
 30
0.0
 11
35.549768385917
 21
159.5596995594578
 31
0.0
  0
LINE
  5
4E3
  8
0
 10
35.549768385917
 20
159.5596995594578
 30
0.0
 11
35.549768385917
 21
40.8098645939108
 31
0.0
  0
LINE
  5
4E4
  8
0
 10
35.549768385917
 20
40.8098645939108
 30
0.0
 11
41.549768385917
 21
40.8098645939108
 31
0.0
  0
LINE
  5
4E5
  8
0
 10
41.549768385917
 20
40.8098645939108
 30
0.0
 11
41.549768385917
 21
156.7618536105278
 31
0.0
  0
LINE
  5
4E6
  8
0
 10
41.54976838591706
 20
156.7618536105278
 30
0.0
 11
35.549768385917
 21
156.7618536105278
 31
0.0
  0
DIMENSION
  5
4E8
  8
DIMENSIONS
  2
*D52
 10
255.1426772810788
 20
133.5758799179325
 30
0.0
 11
161.3349869520771
 21
180.8558050413832
 31
0.0
 70
    33
  3
ISO-25
 13
35.549768385917
 23
159.5596995594578
 33
0.0
 14
225.8744036636134
 24
70.8098645939108
 34
0.0
  0
DIMENSION
  5
4F7
  8
DIMENSIONS
  2
*D53
 10
221.0720543172697
 20
156.7618536105278
 30
0.0
 11
217.8667330321292
 21
116.800387661218
 31
0.0
 70
    32
  3
ISO-25
 13
227.1422584488353
 23
76.83892171190811
 33
0.0
 14
227.1422584488353
 24
156.7618536105278
 34
0.0
 50
90.0
  0
DIMENSION
  5
508
  8
DIMENSIONS
  2
*D54
 10
227.1422584488353
 20
76.83892171190811
 30
0.0
 11
230.9528356142253
 21
29.67771716377976
 31
0.0
 70
    34
  1
<>
  3
ISO-25
 13
219.8744036636134
 23
70.8098645939108
 33
0.0
 14
225.8744036636134
 24
70.8098645939108
 34
0.0
 15
38.08547795636113
 25
164.9975462816776
 35
0.0
 16
211.9525317859579
 26
35.24748832642643
 36
0.0
  0
DIMENSION
  5
518
  8
DIMENSIONS
  2
*D55
 10
211.7352897585008
 20
40.8098645939108
 30
0.0
 11
208.5299684733602
 21
58.82439315290946
 31
0.0
 70
    32
  3
ISO-25
 13
227.1422584488353
 23
76.83892171190811
 33
0.0
 14
227.1422584488353
 24
40.8098645939108
 34
0.0
 50
90.0
  0
POLYLINE
  5
527
  8
0
 66
     1
 10
0.0
 20
0.0
 30
0.0
 70
     1
  0
VERTEX
  5
B64
  8
0
 10
269.5764783762654
 20
-231.7374221332096
 30
0.0
  0
VERTEX
  5
B65
  8
0
 10
269.5764783762654
 20
-27.73742213320966
 30
0.0
 42
-0.414213562373095
  0
VERTEX
  5
B66
  8
0
 10
272.5764783762654
 20
-24.73742213320966
 30
0.0
  0
VERTEX
  5
B67
  8
0
 10
686.5764783762654
 20
-24.73742213320963
 30
0.0
 42
-0.414213562373095
  0
VERTEX
  5
B68
  8
0
 10
689.5764783762654
 20
-27.73742213320963
 30
0.0
  0
VERTEX
  5
B69
  8
0
 10
689.5764783762654
 20
-231.7374221332096
 30
0.0
 42
-0.414213562373095
  0
VERTEX
  5
B6A
  8
0
 10
686.5764783762654
 20
-234.7374221332096
 30
0.0
  0
VERTEX
  5
B6B
  8
0
 10
272.5764783762654
 20
-234.7374221332096
 30
0.0
 42
-0.414213562373095
  0
SEQEND
  5
B82
  8
0
  0
LINE
  5
52E
  8
GUIDES
 10
269.5764783762654
 20
-234.7374221332096
 30
0.0
 11
269.5764783762654
 21
-234.7374221332096
 31
0.0
  0
LINE
  5
532
  8
GUIDES
 10
479.5764783762654
 20
-129.7374221332096
 30
0.0
 11
479.5764783762654
 21
-129.7374221332096
 31
0.0
  0
LINE
  5
533
  8
GUIDES
 10
479.5764783762654
 20
-129.7374221332096
 30
0.0
 11
479.5764783762654
 21
-129.7374221332096
 31
0.0
  0
LINE
  5
536
  8
GUIDES
 10
269.5764783762654
 20
-344.7374221332096
 30
0.0
 11
269.5764783762654
 21
-344.7374221332096
 31
0.0
  0
ARC
  5
538
  8
GUIDES
 10
479.5764783762654
 20
-344.7374221332096
 30
0.0
 40
237.065391822594
 50
27.64597536373869
 51
152.3540246362613
  0
LINE
  5
599
  8
0
 10
35.549768385917
 20
159.5596995594578
 30
0.0
 11
225.8744036636134
 21
70.8098645939108
 31
0.0
  0
LINE
  5
59A
  8
0
 10
225.8744036636134
 20
70.8098645939108
 30
0.0
 11
228.4167524600437
 21
76.2460683113801
 31
0.0
  0
LINE
  5
59B
  8
0
 10
228.4167524600437
 20
76.2460683113801
 30
0.0
 11
227.1422584488354
 21
76.83892171190811
 31
0.0
  0
DIMENSION
  5
59F
  8
DIMENSIONS
  2
*D61
 10
228.4052208293706
 20
76.22127804414164
 30
0.0
 11
242.1765033694525
 21
73.35046074196968
 31
0.0
 70
    33
  3
ISO-25
 13
227.1422584488353
 23
76.83892171190811
 33
0.0
 14
228.4167524600437
 24
76.2460683113801
 34
0.0
  0
LINE
  5
5C5
  8
0
 10
269.5764783762654
 20
-220.7474221332096
 30
0.0
 11
285.8589523235099
 21
-220.7474221332096
 31
0.0
  0
LINE
  5
5C6
  8
0
 10
269.5764783762654
 20
-222.1464221332096
 30
0.0
 11
284.9706030307353
 21
-222.1464221332096
 31
0.0
  0
LINE
  5
5CA
  8
0
 10
284.096302562962
 20
-223.5454221332096
 30
0.0
 11
269.5764783762654
 21
-223.5454221332096
 31
0.0
  0
LINE
  5
5CE
  8
0
 10
269.5764783762654
 20
-226.3434221332096
 30
0.0
 11
282.3891036181435
 21
-226.3434221332096
 31
0.0
  0
LINE
  5
5CF
  8
0
 10
269.5764783762654
 20
-227.7424221332096
 30
0.0
 11
281.5558482010233
 21
-227.7424221332096
 31
0.0
  0
LINE
  5
5D0
  8
0
 10
269.5764783762654
 20
-229.1414221332096
 30
0.0
 11
280.7359272203204
 21
-229.1414221332096
 31
0.0
  0
LINE
  5
5D1
  8
0
 10
269.5764783762654
 20
-230.5404221332096
 30
0.0
 11
279.929176388485
 21
-230.5404221332096
 31
0.0
  0
LINE
  5
5D2
  8
0
 10
269.5832867686332
 20
-231.9394221332096
 30
0.0
 11
279.1354366807084
 21
-231.9394221332096
 31
0.0
  0
LINE
  5
5D3
  8
0
 10
270.0393936319181
 20
-233.3384221332096
 30
0.0
 11
278.3545541259492
 21
-233.3384221332096
 31
0.0
  0
LINE
  5
5D4
  8
0
 10
689.5764783762654
 20
-220.7474221332096
 30
0.0
 11
673.2940044290209
 21
-220.7474221332096
 31
0.0
  0
LINE
  5
5D5
  8
0
 10
689.5764783762654
 20
-222.1464221332096
 30
0.0
 11
674.1823537217955
 21
-222.1464221332096
 31
0.0
  0
LINE
  5
5D6
  8
0
 10
689.5764783762654
 20
-223.5454221332096
 30
0.0
 11
675.0566541895688
 21
-223.5454221332096
 31
0.0
  0
LINE
  5
5D7
  8
0
 10
689.5764783762654
 20
-224.9444221332096
 30
0.0
 11
675.9170935097625
 21
-224.9444221332096
 31
0.0
  0
LINE
  5
5D8
  8
0
 10
689.5764783762654
 20
-226.3434221332096
 30
0.0
 11
676.7638531343873
 21
-226.3434221332096
 31
0.0
  0
LINE
  5
5D9
  8
0
 10
689.5764783762654
 20
-227.7424221332096
 30
0.0
 11
677.5971085515075
 21
-227.7424221332096
 31
0.0
  0
LINE
  5
5DA
  8
0
 10
689.5764783762654
 20
-229.1414221332096
 30
0.0
 11
678.4170295322104
 21
-229.1414221332096
 31
0.0
  0
LINE
  5
5DB
  8
0
 10
689.5764783762654
 20
-230.5404221332096
 30
0.0
 11
679.2237803640459
 21
-230.5404221332096
 31
0.0
  0
LINE
  5
5DC
  8
0
 10
689.5696699838976
 20
-231.9394221332096
 30
0.0
 11
680.0175200718224
 21
-231.9394221332096
 31
0.0
  0
LINE
  5
5DD
  8
0
 10
689.1135631206128
 20
-233.3384221332096
 30
0.0
 11
680.7984026265817
 21
-233.3384221332096
 31
0.0
  0
CIRCLE
  5
60E
  8
0
 10
558.0487796513456
 20
108.6634888068935
 30
0.0
 40
0.0
  0
INSERT
  5
66B
  8
0
  2
FOOTSWITCH
 10
479.5764783762654
 20
-99.73742213320958
 30
0.0
 50
2.91025246794211
  0
CIRCLE
  5
66D
  8
DIMENSIONS
 10
479.5764783762654
 20
-107.6720303106156
 30
0.0
 40
22.06539182259399
  0
CIRCLE
  5
670
  8
GUIDES
 10
479.5764783762654
 20
-107.6720303106156
 30
0.0
 40
0.0
  0
ARC
  5
671
  8
GUIDES
 10
479.5764783762654
 20
-107.6720303106156
 30
0.0
 40
65.0
 50
174.2045630436601
 51
201.1346773390911
  0
CIRCLE
  5
672
  8
GUIDES
 10
479.5764783762654
 20
-107.6720303106156
 30
0.0
 40
0.0
  0
ARC
  5
673
  8
GUIDES
 10
479.5764783762654
 20
-107.6720303106156
 30
0.0
 40
143.0
 50
191.1507392872519
 51
203.7771957332156
  0
CIRCLE
  5
674
  8
GUIDES
 10
615.9174132760945
 20
-150.8014804652439
 30
0.0
 40
0.0
  0
CIRCLE
  5
675
  8
GUIDES
 10
615.9174132760945
 20
-150.8014804652439
 30
0.0
 40
0.0
  0
ARC
  5
677
  8
GUIDES
 10
615.9174132760945
 20
-150.8014804652439
 30
0.0
 40
65.0
 50
303.7573198162963
 51
330.6874341117273
  0
INSERT
  5
679
  8
0
  2
FOOTSWITCH
 10
415.1509137796371
 20
-108.3598711128014
 30
0.0
 50
193.615468217159
  0
INSERT
  5
67A
  8
0
  2
FOOTSWITCH
 10
352.4592128250587
 20
-135.2948266594522
 30
0.0
 50
35.03029679330285
  0
INSERT
  5
67B
  8
0
  2
FOOTSWITCH
 10
301.8575992440809
 20
-176.0928254216636
 30
0.0
 50
222.310712302083
  0
INSERT
  5
67D
  8
0
  2
FOOTSWITCH
 10
544.0020429728938
 20
-108.3598711128014
 30
0.0
 50
346.8394289291243
  0
INSERT
  5
67E
  8
0
  2
FOOTSWITCH
 10
607.3204739067756
 20
-135.6764941578919
 30
0.0
 50
145.3265400603496
  0
INSERT
  5
67F
  8
0
  2
FOOTSWITCH
 10
657.7996667067507
 20
-176.6258664884046
 30
0.0
 50
316.9130660732229
  0
ARC
  5
680
  8
GUIDES
 10
343.2355434764364
 20
-150.8014804652439
 30
0.0
 40
65.0
 50
209.3125658882727
 51
236.2426801837037
  0
ARC
  5
681
  8
GUIDES
 10
479.5764783762654
 20
-107.6720303106156
 30
0.0
 40
143.0
 50
336.2228042667844
 51
348.8492607127481
  0
ARC
  5
682
  8
GUIDES
 10
479.5764783762654
 20
-107.6720303106156
 30
0.0
 40
65.0
 50
338.8653226609089
 51
5.795436956339934
  0
LINE
  5
684
  8
0
 10
269.5826290726263
 20
-224.9444221332096
 30
0.0
 11
283.2358632427683
 21
-224.9444221332096
 31
0.0
  0
LINE
  5
698
  8
GUIDES
 10
295.688011777781
 20
-195.1211400912537
 30
0.0
 11
295.688011777781
 21
-195.1211400912537
 31
0.0
  0
LINE
  5
69A
  8
GUIDES
 10
415.1579616426916
 20
-116.3469771027451
 30
0.0
 11
415.1579616426916
 21
-116.3469771027451
 31
0.0
  0
LINE
  5
69B
  8
GUIDES
 10
479.5764783762654
 20
-107.6720303106156
 30
0.0
 11
479.5764783762654
 21
-107.6720303106156
 31
0.0
  0
LINE
  5
69C
  8
GUIDES
 10
295.5258577193605
 20
-194.9465355106402
 30
0.0
 11
295.5258577193605
 21
-194.9465355106402
 31
0.0
  0
LINE
  5
69D
  8
GUIDES
 10
343.2355434764364
 20
-150.8014804652439
 30
0.0
 11
343.2355434764364
 21
-150.8014804652439
 31
0.0
  0
LINE
  5
69E
  8
GUIDES
 10
415.1579616426916
 20
-116.3469771027451
 30
0.0
 11
415.1579616426916
 21
-116.3469771027451
 31
0.0
  0
LINE
  5
69F
  8
GUIDES
 10
543.9627603403619
 20
-116.5830737309934
 30
0.0
 11
543.9627603403619
 21
-116.5830737309934
 31
0.0
  0
LINE
  5
6A0
  8
GUIDES
 10
615.9174132760945
 20
-150.8014804652439
 30
0.0
 11
615.9174132760945
 21
-150.8014804652439
 31
0.0
  0
LINE
  5
6A1
  8
GUIDES
 10
663.4649449747499
 20
-195.1211400912538
 30
0.0
 11
663.4649449747499
 21
-195.1211400912538
 31
0.0
  0
LINE
  5
6A2
  8
GUIDES
 10
679.5764783762654
 20
-174.7374221332096
 30
0.0
 11
679.5764783762654
 21
-174.7374221332096
 31
0.0
  0
DIMENSION
  5
6A4
  8
DIMENSIONS
  2
*D70
 10
538.4525211935753
 20
-137.8429141928777
 30
0.0
 11
507.0435435850767
 21
-126.4343269122479
 31
0.0
 70
    33
  3
ISO-25
 13
479.5764783762654
 23
-99.73742213320958
 33
0.0
 14
543.9949951098391
 24
-116.3469771027451
 34
0.0
  0
CIRCLE
  5
6B5
  8
GUIDES
 10
479.5764783762654
 20
-174.7374221332096
 30
0.0
 40
0.0
  0
CIRCLE
  5
6B6
  8
GUIDES
 10
479.5764783762654
 20
-174.7374221332096
 30
0.0
 40
0.0
  0
LINE
  5
6B8
  8
GUIDES
 10
679.5764783762654
 20
-189.7374221332096
 30
0.0
 11
679.5764783762654
 21
-189.7374221332096
 31
0.0
  0
INSERT
  5
6B9
  8
0
  2
FOOTSWITCH
 10
479.5764783762654
 20
-174.7374221332095
 30
0.0
 50
90.0
  0
INSERT
  5
6BA
  8
0
  2
FOOTSWITCH
 10
419.1396736717875
 20
-198.7374221332096
 30
0.0
 50
180.0
  0
INSERT
  5
6BB
  8
0
  2
FOOTSWITCH
 10
539.9535801560992
 20
-198.7374221332096
 30
0.0
  0
DIMENSION
  5
6C0
  8
DIMENSIONS
  2
*D71
 10
492.1220689326084
 20
-174.7374221332095
 30
0.0
 11
488.9167476474679
 21
-148.7047262219126
 31
0.0
 70
    32
  3
ISO-25
 13
479.5764783762654
 23
-122.6720303106156
 33
0.0
 14
479.5764783762654
 24
-174.7374221332095
 34
0.0
 50
90.0
  0
DIMENSION
  5
6CF
  8
DIMENSIONS
  2
*D72
 10
279.5764783762654
 20
-234.7374221332096
 30
0.0
 11
276.3711570911248
 21
-175.5421996179774
 31
0.0
 70
    32
  3
ISO-25
 13
343.2355434764364
 23
-116.3469771027451
 33
0.0
 14
343.2355434764364
 24
-234.7374221332096
 34
0.0
 50
90.0
  0
LINE
  5
6EE
  8
GUIDES
 10
279.5764783762654
 20
-24.73742213320963
 30
0.0
 11
279.5764783762654
 21
-24.73742213320963
 31
0.0
  0
LINE
  5
6EF
  8
GUIDES
 10
679.5764783762654
 20
-24.73742213320963
 30
0.0
 11
679.5764783762654
 21
-24.73742213320963
 31
0.0
  0
DIMENSION
  5
6F2
  8
DIMENSIONS
  2
*D74
 10
389.0685772076807
 20
-189.7374221332096
 30
0.0
 11
385.8632559225401
 21
-170.2694512992267
 31
0.0
 70
    32
  3
ISO-25
 13
415.1579616426916
 23
-150.8014804652439
 33
0.0
 14
415.1579616426916
 24
-189.7374221332096
 34
0.0
 50
90.0
  0
LINE
  5
702
  8
GUIDES
 10
679.5764783762654
 20
-135.8014221332096
 30
0.0
 11
679.5764783762654
 21
-135.8014221332096
 31
0.0
  0
DIMENSION
  5
704
  8
DIMENSIONS
  2
*D75
 10
461.0071046175966
 20
-174.7374221332095
 30
0.0
 11
457.801783332456
 21
-155.2694221332096
 31
0.0
 70
    32
  3
ISO-25
 13
479.5764783762654
 23
-135.8014221332096
 33
0.0
 14
479.5764783762654
 24
-174.7374221332095
 34
0.0
 50
90.0
  0
LINE
  5
714
  8
GUIDES
 10
485.5764783762654
 20
-129.7374221332096
 30
0.0
 11
485.5764783762654
 21
-129.7374221332096
 31
0.0
  0
LINE
  5
715
  8
GUIDES
 10
473.5764783762654
 20
-129.7374221332096
 30
0.0
 11
473.5764783762654
 21
-129.7374221332096
 31
0.0
  0
LINE
  5
716
  8
GUIDES
 10
409.1579616426916
 20
-116.3469771027451
 30
0.0
 11
409.1579616426916
 21
-116.3469771027451
 31
0.0
  0
LINE
  5
717
  8
GUIDES
 10
421.1579616426916
 20
-116.3469771027451
 30
0.0
 11
421.1579616426916
 21
-116.3469771027451
 31
0.0
  0
LINE
  5
718
  8
GUIDES
 10
549.9627603403619
 20
-116.5830737309934
 30
0.0
 11
549.9627603403619
 21
-116.5830737309934
 31
0.0
  0
LINE
  5
719
  8
GUIDES
 10
537.9627603403619
 20
-116.5830737309934
 30
0.0
 11
537.9627603403619
 21
-116.5830737309934
 31
0.0
  0
CIRCLE
  5
71D
  8
0
 10
413.1396736717875
 20
-160.7374221332096
 30
0.0
 40
4.0
  0
CIRCLE
  5
71E
  8
0
 10
421.1579616426916
 20
-150.8014804652439
 30
0.0
 40
0.0
  0
CIRCLE
  5
71F
  8
0
 10
425.1396736717875
 20
-160.7374221332096
 30
0.0
 40
4.0
  0
CIRCLE
  5
720
  8
0
 10
473.5764783762654
 20
-136.7374221332095
 30
0.0
 40
4.0
  0
CIRCLE
  5
721
  8
0
 10
485.5764783762654
 20
-136.7374221332095
 30
0.0
 40
4.0
  0
CIRCLE
  5
722
  8
0
 10
533.9535801560992
 20
-160.7374221332096
 30
0.0
 40
4.0
  0
CIRCLE
  5
723
  8
0
 10
545.9535801560992
 20
-160.7374221332096
 30
0.0
 40
4.0
  0
LINE
  5
725
  8
GUIDES
 10
415.1579616426916
 20
-77.41097710274511
 30
0.0
 11
415.1579616426916
 21
-77.41097710274511
 31
0.0
  0
DIMENSION
  5
727
  8
DIMENSIONS
  2
*D76
 10
503.2071648979673
 20
-24.73742213320963
 30
0.0
 11
500.0018436128268
 21
-66.20472622191262
 31
0.0
 70
    32
  3
ISO-25
 13
479.5764783762654
 23
-107.6720303106156
 33
0.0
 14
479.5764783762654
 24
-24.73742213320963
 34
0.0
 50
90.0
  0
LINE
  5
737
  8
GUIDES
 10
272.5764783762654
 20
-66.23742213320966
 30
0.0
 11
272.5764783762654
 21
-66.23742213320966
 31
0.0
  0
LINE
  5
738
  8
GUIDES
 10
272.5764783762654
 20
-52.73742213320966
 30
0.0
 11
272.5764783762654
 21
-52.73742213320966
 31
0.0
  0
LINE
  5
739
  8
GUIDES
 10
427.1579616426916
 20
-116.3469771027451
 30
0.0
 11
427.1579616426916
 21
-116.3469771027451
 31
0.0
  0
LINE
  5
73A
  8
GUIDES
 10
403.1579616426916
 20
-116.3469771027451
 30
0.0
 11
403.1579616426916
 21
-116.3469771027451
 31
0.0
  0
LINE
  5
73B
  8
GUIDES
 10
657.4649449747499
 20
-195.1211400912538
 30
0.0
 11
657.4649449747499
 21
-195.1211400912538
 31
0.0
  0
LINE
  5
73C
  8
GUIDES
 10
651.4649449747499
 20
-195.1211400912538
 30
0.0
 11
651.4649449747499
 21
-195.1211400912538
 31
0.0
  0
LINE
  5
73D
  8
GUIDES
 10
645.4649449747499
 20
-195.1211400912538
 30
0.0
 11
645.4649449747499
 21
-195.1211400912538
 31
0.0
  0
LINE
  5
73E
  8
GUIDES
 10
669.4649449747499
 20
-195.1211400912538
 30
0.0
 11
669.4649449747499
 21
-195.1211400912538
 31
0.0
  0
LINE
  5
73F
  8
GUIDES
 10
289.5258577193605
 20
-194.9465355106402
 30
0.0
 11
289.5258577193605
 21
-194.9465355106402
 31
0.0
  0
LINE
  5
740
  8
GUIDES
 10
301.5258577193605
 20
-194.9465355106402
 30
0.0
 11
301.5258577193605
 21
-194.9465355106402
 31
0.0
  0
LINE
  5
741
  8
GUIDES
 10
307.5258577193605
 20
-194.9465355106402
 30
0.0
 11
307.5258577193605
 21
-194.9465355106402
 31
0.0
  0
LINE
  5
742
  8
GUIDES
 10
313.5258577193605
 20
-194.9465355106402
 30
0.0
 11
313.5258577193605
 21
-194.9465355106402
 31
0.0
  0
CIRCLE
  5
746
  8
0
 10
403.1579616426916
 20
-52.73742213320966
 30
0.0
 40
4.0
  0
CIRCLE
  5
747
  8
0
 10
415.1579616426916
 20
-52.73742213320966
 30
0.0
 40
0.0
  0
CIRCLE
  5
748
  8
0
 10
415.1579616426916
 20
-52.73742213320966
 30
0.0
 40
4.0
  0
CIRCLE
  5
749
  8
0
 10
427.1579616426916
 20
-52.73742213320966
 30
0.0
 40
4.0
  0
CIRCLE
  5
74A
  8
0
 10
543.9627603403619
 20
-52.73742213320964
 30
0.0
 40
4.0
  0
CIRCLE
  5
74E
  8
0
 10
313.5258577193605
 20
-116.3469771027451
 30
0.0
 40
0.0
  0
CIRCLE
  5
74F
  8
0
 10
313.5258577193605
 20
-116.3469771027451
 30
0.0
 40
4.0
  0
CIRCLE
  5
750
  8
0
 10
301.5258577193605
 20
-116.3469771027451
 30
0.0
 40
0.0
  0
CIRCLE
  5
752
  8
0
 10
301.5258577193605
 20
-116.3469771027451
 30
0.0
 40
0.0
  0
CIRCLE
  5
753
  8
0
 10
301.5258577193605
 20
-116.3469771027451
 30
0.0
 40
4.0
  0
CIRCLE
  5
754
  8
0
 10
289.5258577193605
 20
-116.3469771027451
 30
0.0
 40
0.0
  0
CIRCLE
  5
755
  8
0
 10
289.5258577193605
 20
-116.3469771027451
 30
0.0
 40
4.0
  0
CIRCLE
  5
756
  8
0
 10
645.4649449747499
 20
-116.3469771027451
 30
0.0
 40
0.0
  0
CIRCLE
  5
757
  8
0
 10
645.4649449747499
 20
-116.3469771027451
 30
0.0
 40
0.0
  0
CIRCLE
  5
758
  8
0
 10
645.4649449747499
 20
-116.3469771027451
 30
0.0
 40
4.0
  0
CIRCLE
  5
759
  8
0
 10
657.4649449747499
 20
-116.3469771027451
 30
0.0
 40
0.0
  0
CIRCLE
  5
75A
  8
0
 10
657.4649449747499
 20
-116.3469771027451
 30
0.0
 40
3.771236166328265
  0
CIRCLE
  5
75B
  8
0
 10
669.4649449747499
 20
-116.3469771027451
 30
0.0
 40
3.580161769953975
  0
LINE
  5
75D
  8
GUIDES
 10
685.5764783762654
 20
-24.73742213320963
 30
0.0
 11
685.5764783762654
 21
-24.73742213320963
 31
0.0
  0
LINE
  5
75E
  8
GUIDES
 10
273.5764783762654
 20
-24.73742213320963
 30
0.0
 11
273.5764783762654
 21
-24.73742213320963
 31
0.0
  0
DIMENSION
  5
760
  8
DIMENSIONS
  2
*D77
 10
262.8733102269449
 20
-220.7474221332096
 30
0.0
 11
259.6679889418043
 21
-233.8724221332096
 31
0.0
 70
    32
  3
ISO-25
 13
269.5764783762654
 23
-205.3209175339413
 33
0.0
 14
269.5764783762654
 24
-220.7474221332096
 34
0.0
 50
90.0
  0
DIMENSION
  5
76F
  8
DIMENSIONS
  2
*D78
 10
255.1441390792725
 20
-220.7474221332096
 30
0.0
 11
252.0191390792725
 21
-234.0631851854184
 31
0.0
 70
    32
  3
ISO-25
 13
273.5764783762654
 23
-199.4757212114669
 33
0.0
 14
273.5764783762654
 24
-220.7474221332096
 34
0.0
 50
90.0
  0
LINE
  5
781
  8
GUIDES
 10
209.6746235539889
 20
-310.7843453895505
 30
0.0
 11
209.6746235539889
 21
-310.7843453895505
 31
0.0
  0
LINE
  5
782
  8
GUIDES
 10
203.6746235539889
 20
-310.7843453895505
 30
0.0
 11
203.6746235539889
 21
-310.7843453895505
 31
0.0
  0
LINE
  5
783
  8
GUIDES
 10
206.6746235539889
 20
-307.7843453895505
 30
0.0
 11
206.6746235539889
 21
-307.7843453895505
 31
0.0
  0
LINE
  5
784
  8
GUIDES
 10
206.6746235539889
 20
-301.7843453895505
 30
0.0
 11
206.6746235539889
 21
-301.7843453895505
 31
0.0
  0
LINE
  5
785
  8
GUIDES
 10
206.6746235539889
 20
-295.7843453895505
 30
0.0
 11
206.6746235539889
 21
-295.7843453895505
 31
0.0
  0
INSERT
  5
790
  8
0
  2
SQUARE_HOLE_UNIT
 10
282.5764783762654
 20
-198.7374221332096
 30
0.0
  0
DIMENSION
  5
794
  8
DIMENSIONS
  2
*D80
 10
269.5764783762654
 20
-241.6473033485011
 30
0.0
 11
256.4949857390499
 21
-238.4419820633606
 31
0.0
 70
    32
  3
ISO-25
 13
279.5764783762654
 23
-210.7374221332096
 33
0.0
 14
269.5764783762654
 24
-210.7374221332096
 34
0.0
  0
DIMENSION
  5
7A5
  8
DIMENSIONS
  2
*D81
 10
261.3052747850876
 20
-184.4595384436624
 30
0.0
 11
258.0999534999471
 21
-170.5413657528993
 31
0.0
 70
    32
  3
ISO-25
 13
279.5764783762654
 23
-186.7374221332096
 33
0.0
 14
273.5764783762654
 24
-184.4595384436624
 34
0.0
 50
90.0
  0
DIMENSION
  5
7B5
  8
DIMENSIONS
  2
*D82
 10
479.5764783762654
 20
-344.7374221332096
 30
0.0
 11
272.1246630125428
 21
-155.1741783514863
 31
0.0
 70
   164
  1
<>
  3
ISO-25
 15
286.895824765612
 25
-168.671622716709
 35
0.0
 40
0.0
1001
ACAD_DSTYLE_DIMRADIAL_EXTE
1070
   387
1070
     1
1070
   388
1040
0.5860765246971761
1070
   390
1040
2.555516128892617
  0
DIMENSION
  5
7C1
  8
DIMENSIONS
  2
*D83
 10
479.5764783762654
 20
-344.7374221332096
 30
0.0
 11
252.9064678661313
 21
-194.2538956436748
 31
0.0
 70
   164
  1
<>
  3
ISO-25
 15
269.5764783762653
 25
-205.3209175339412
 35
0.0
 40
0.0
1001
ACAD_DSTYLE_DIMRADIAL_EXTE
1070
   387
1070
     1
1070
   388
1040
0.5860765246971762
1070
   390
1040
2.555516128892617
  0
DIMENSION
  5
7D0
  8
DIMENSIONS
  2
*D84
 10
479.5764783762654
 20
-344.7374221332096
 30
0.0
 11
337.5139319768366
 21
-214.0128078952864
 31
0.0
 70
   164
  1
<>
  3
ISO-25
 15
322.7899367385119
 25
-200.4639264599277
 35
0.0
 40
0.0
1001
ACAD_DSTYLE_DIMRADIAL_EXTE
1070
   387
1070
     1
1070
   388
1040
0.5182372131961526
1070
   390
1040
2.623355440393641
  0
DIMENSION
  5
7DB
  8
DIMENSIONS
  2
*D85
 10
479.5764783762654
 20
-344.7374221332096
 30
0.0
 11
333.886129052229
 21
-183.840837298726
 31
0.0
 70
   164
  1
<>
  3
ISO-25
 15
320.4557455784831
 25
-169.0086754982416
 35
0.0
 40
0.0
1001
ACAD_DSTYLE_DIMRADIAL_EXTE
1070
   387
1070
     1
1070
   388
1040
0.482513295022477
1070
   390
1040
2.659079358567316
  0
CIRCLE
  5
7F8
  8
GUIDES
 10
479.5764783762654
 20
-344.7374221332096
 30
0.0
 40
215.0
  0
CIRCLE
  5
7FA
  8
GUIDES
 10
479.5764783762654
 20
-344.7374221332096
 30
0.0
 40
0.0
  0
CIRCLE
  5
7FB
  8
GUIDES
 10
479.5764783762654
 20
-344.7374221332096
 30
0.0
 40
245.0
  0
CIRCLE
  5
7FC
  8
GUIDES
 10
479.5764783762654
 20
-344.7374221332096
 30
0.0
 40
230.0
  0
DIMENSION
  5
805
  8
DIMENSIONS
  2
*D87
 10
269.5764783762654
 20
-194.9465355106402
 30
0.0
 11
479.5764783762654
 21
-191.7412142254996
 31
0.0
 70
    32
  3
ISO-25
 13
689.5764783762654
 23
-27.73742213320963
 33
0.0
 14
269.5764783762654
 24
-27.73742213320966
 34
0.0
  0
LINE
  5
81C
  8
FIXIT
 10
279.5764783762654
 20
-231.7374221332096
 30
0.0
 11
279.5764783762654
 21
-231.7374221332096
 31
0.0
  0
LINE
  5
81D
  8
FIXIT
 10
679.5764783762654
 20
-27.73742213320963
 30
0.0
 11
679.5764783762654
 21
-27.73742213320963
 31
0.0
  0
LINE
  5
81E
  8
FIXIT
 10
269.5764783762654
 20
-210.7474221332096
 30
0.0
 11
269.5764783762654
 21
-210.7474221332096
 31
0.0
  0
INSERT
  5
81F
  8
0
  2
SQUARE_HOLE_UNIT
 10
676.5764783762654
 20
-198.7474221332101
 30
0.0
 50
180.0
  0
ARC
  5
824
  8
0
 10
479.5764783762654
 20
-344.7374221332096
 30
0.0
 40
230.0
 50
28.57187814230886
 51
151.4281218576911
  0
CIRCLE
  5
826
  8
GUIDES
 10
479.5764783762655
 20
-114.7374221332096
 30
0.0
 40
65.0
  0
LINE
  5
82D
  8
FIXIT
 10
282.5764783762654
 20
-198.7374221332096
 30
0.0
 11
282.5764783762654
 21
-198.7374221332096
 31
0.0
  0
DIMENSION
  5
830
  8
FIXIT
  2
*D88
 10
408.7760919739715
 20
-93.52233326770161
 30
0.0
 11
376.1649417672919
 21
-104.044798114777
 31
0.0
 70
    33
  3
ISO-25
 13
352.4592128250587
 23
-135.2948266594522
 33
0.0
 14
415.1509137796371
 24
-108.3598711128014
 34
0.0
  0
DIMENSION
  5
840
  8
FIXIT
  2
*D89
 10
666.0971549177692
 20
-158.1678535145353
 30
0.0
 11
643.1872842016797
 21
-144.3548124365868
 31
0.0
 70
    33
  3
ISO-25
 13
609.3514943425891
 23
-154.8468082763356
 33
0.0
 14
657.7996667067507
 24
-176.6258664884046
 34
0.0
  0
ARC
  5
850
  8
FIXIT
 10
479.5764783762654
 20
-344.7374221332096
 30
0.0
 40
245.0
 50
31.00271913387399
 51
148.997280866126
  0
LINE
  5
853
  8
FIXIT
 10
301.8575992440809
 20
-198.7374221332096
 30
0.0
 11
301.8575992440809
 21
-198.7374221332096
 31
0.0
  0
LINE
  5
854
  8
FIXIT
 10
657.7996667067507
 20
-198.1865405420916
 30
0.0
 11
657.7996667067507
 21
-198.1865405420916
 31
0.0
  0
LINE
  5
855
  8
FIXIT
 10
539.9535801560992
 20
-198.7374221332096
 30
0.0
 11
539.9535801560992
 21
-198.7374221332096
 31
0.0
  0
LINE
  5
856
  8
FIXIT
 10
479.5764783762654
 20
-174.7374221332095
 30
0.0
 11
479.5764783762654
 21
-174.7374221332095
 31
0.0
  0
LINE
  5
857
  8
FIXIT
 10
419.1396736717875
 20
-189.7374221332096
 30
0.0
 11
419.1396736717875
 21
-189.7374221332096
 31
0.0
  0
DIMENSION
  5
87A
  8
FIXIT
  2
*D92
 10
480.7424910532537
 20
-179.4488502774419
 30
0.0
 11
448.349673979607
 21
-184.1635957387619
 31
0.0
 70
    33
  3
ISO-25
 13
416.3309251728978
 23
-190.389813412601
 33
0.0
 14
479.5764783762654
 24
-174.7374221332095
 34
0.0
  0
DIMENSION
  5
88C
  8
FIXIT
  2
*D93
 10
479.5764783762654
 20
-344.7374221332096
 30
0.0
 11
306.0896815543987
 21
-144.4337358934775
 31
0.0
 70
   164
  1
<>
  3
ISO-25
 15
319.1764411422654
 25
-159.5433940023559
 35
0.0
 40
0.0
1001
ACAD_DSTYLE_DIMRADIAL_EXTE
1070
   387
1070
     1
1070
   388
1040
0.4986733470618905
1070
   390
1040
2.642919306527903
  0
DIMENSION
  5
898
  8
FIXIT
  2
*D94
 10
676.5764783762654
 20
-243.4038884977769
 30
0.0
 11
479.5764783762654
 21
-240.1985672126363
 31
0.0
 70
    32
  3
ISO-25
 13
282.5764783762654
 23
-198.7374221332096
 33
0.0
 14
676.5764783762654
 24
-198.7474221332101
 34
0.0
  0
ARC
  5
8A7
  8
0
 10
479.5764783762654
 20
-344.7374221332096
 30
0.0
 40
260.0
 50
36.1289274719382
 51
143.8710725280618
  0
LINE
  5
8AB
  8
FIXIT
 10
544.0020429728938
 20
-108.3598711128014
 30
0.0
 11
544.0020429728938
 21
-108.3598711128014
 31
0.0
  0
DIMENSION
  5
8AF
  8
FIXIT
  2
*D95
 10
427.0246664840463
 20
-198.7374221332096
 30
0.0
 11
423.8193451989057
 21
-179.7374221332096
 31
0.0
 70
    32
  3
ISO-25
 13
425.1396736717875
 23
-160.7374221332096
 33
0.0
 14
419.1396736717875
 24
-198.7374221332096
 34
0.0
 50
90.0
  0
DIMENSION
  5
8BE
  8
FIXIT
  2
*D96
 10
496.2332160706922
 20
-174.7374221332095
 30
0.0
 11
493.0278947855517
 21
-155.2694221332095
 31
0.0
 70
    32
  3
ISO-25
 13
485.5764783762654
 23
-135.8014221332096
 33
0.0
 14
479.5764783762654
 24
-174.7374221332095
 34
0.0
 50
90.0
  0
LINE
  5
8CE
  8
FIXIT
 10
479.5466269139433
 20
-174.7374221332095
 30
0.0
 11
479.5466269139433
 21
-174.7374221332095
 31
0.0
  0
DIMENSION
  5
8D1
  8
FIXIT
  2
*D97
 10
678.0764783762654
 20
-198.7474221332101
 30
0.0
 11
685.9504551839052
 21
-198.7474221332101
 31
0.0
 70
   163
  1
<>
  3
ISO-25
 15
675.0764783762654
 25
-198.7474221332101
 35
0.0
 40
0.0
1001
ACAD_DSTYLE_DIMRADIAL_EXTE
1070
   387
1070
     1
1070
   388
1040
0.0
1070
   390
1040
6.283185307179586
  0
LINE
  5
8DD
  8
FIXIT
 10
607.3204739067756
 20
-135.6764941578919
 30
0.0
 11
607.3204739067756
 21
-135.6764941578919
 31
0.0
  0
LINE
  5
8E5
  8
FIXIT
 10
383.8050633023479
 20
-121.8273488861268
 30
0.0
 11
383.8050633023479
 21
-121.8273488861268
 31
0.0
  0
INSERT
  5
8E6
  8
0
  2
SQUARE_HOLE_UNIT
 10
383.8050633023479
 20
-119.2316881601254
 30
0.0
  0
LINE
  5
8E7
  8
FIXIT
 10
383.8050633023479
 20
-119.2316881601254
 30
0.0
 11
383.8050633023479
 21
-119.2316881601254
 31
0.0
  0
INSERT
  5
8E8
  8
0
  2
SQUARE_HOLE_UNIT
 10
575.3478934501829
 20
-119.2316881601255
 30
0.0
  0
LINE
  5
8E9
  8
FIXIT
 10
575.3478934501829
 20
-119.2316881601255
 30
0.0
 11
575.3478934501829
 21
-119.2316881601255
 31
0.0
  0
INSERT
  5
8EA
  8
0
  2
SQUARE_HOLE_UNIT
 10
575.3478934501829
 20
-198.7374221332096
 30
0.0
  0
INSERT
  5
8EB
  8
0
  2
SQUARE_HOLE_UNIT
 10
383.8050633023479
 20
-198.7374221332096
 30
0.0
  0
DIMENSION
  5
8EC
  8
FIXIT
  2
*D98
 10
707.2177518410494
 20
-234.7374221332096
 30
0.0
 11
704.0124305559088
 21
-222.7424221332098
 31
0.0
 70
    32
  3
ISO-25
 13
657.7996667067507
 23
-210.74742213321
 33
0.0
 14
657.7996667067507
 24
-234.7374221332096
 34
0.0
 50
90.0
  0
LINE
  5
8FB
  8
FIXIT
 10
272.5764783762654
 20
-48.72742213320966
 30
0.0
 11
272.5764783762654
 21
-48.72742213320966
 31
0.0
  0
INSERT
  5
8FC
  8
0
  2
SQUARE_HOLE_UNIT
 10
676.5764783762654
 20
-60.72742213320963
 30
0.0
  0
INSERT
  5
8FD
  8
0
  2
SQUARE_HOLE_UNIT
 10
282.5764783762654
 20
-60.72742213320966
 30
0.0
  0
LINE
  5
91D
  8
FIXIT
 10
479.5466269139433
 20
-198.7374221332095
 30
0.0
 11
479.5466269139433
 21
-198.7374221332095
 31
0.0
  0
LINE
  5
93C
  8
FIXIT
 10
539.9535801560992
 20
-204.7374221332096
 30
0.0
 11
539.9535801560992
 21
-204.7374221332096
 31
0.0
  0
DIMENSION
  5
93D
  8
FIXIT
  2
*D101
 10
457.9049560998235
 20
-204.7374221332096
 30
0.0
 11
454.6996348146829
 21
-189.7374221332095
 31
0.0
 70
    32
  3
ISO-25
 13
479.5466269139433
 23
-174.7374221332095
 33
0.0
 14
479.5764783762654
 24
-204.7374221332096
 34
0.0
 50
90.0
  0
LINE
  5
94C
  8
FIXIT
 10
479.5466269139433
 20
-228.7374221332095
 30
0.0
 11
479.5466269139433
 21
-228.7374221332095
 31
0.0
  0
TEXT
  5
951
  8
TEXT
 10
411.9007178484943
 20
-227.6587151760767
 30
0.0
 40
5.0
  1
neck
 72
     1
 11
419.1396736717875
 21
-228.7374221332095
 31
0.0
 73
     1
  0
TEXT
  5
952
  8
TEXT
 10
469.4794234900539
 20
-203.6587151760768
 30
0.0
 40
5.0
  1
middle
 72
     1
 11
479.5764783762654
 21
-204.7374221332096
 31
0.0
 73
     1
  0
TEXT
  5
953
  8
TEXT
 10
530.1057048048751
 20
-227.2106099769624
 30
0.0
 40
5.0
  1
bridge
 72
     1
 11
539.6304705344602
 21
-228.2893169340953
 31
0.0
 73
     1
  0
LINE
  5
961
  8
FIXIT
 10
427.1579616426916
 20
-52.73742213320966
 30
0.0
 11
427.1579616426916
 21
-52.73742213320966
 31
0.0
  0
LINE
  5
962
  8
FIXIT
 10
313.5258577193605
 20
-116.3469771027451
 30
0.0
 11
313.5258577193605
 21
-116.3469771027451
 31
0.0
  0
LINE
  5
963
  8
FIXIT
 10
479.5764783762654
 20
-99.73742213320958
 30
0.0
 11
479.5764783762654
 21
-99.73742213320958
 31
0.0
  0
DIMENSION
  5
964
  8
FIXIT
  2
*D102
 10
313.5258577193605
 20
-116.3469771027451
 30
0.0
 11
310.3205364342199
 21
-129.4284697399607
 31
0.0
 70
    32
  3
ISO-25
 13
301.8575992440809
 23
-99.73742213320958
 33
0.0
 14
301.8575992440809
 24
-116.3469771027451
 34
0.0
 50
90.0
  0
TEXT
  5
975
  8
TEXT
 10
295.1875858572001
 20
-98.65871517607675
 30
0.0
 40
5.0
  1
tone
 72
     1
 11
301.8575992440809
 21
-99.73742213320958
 31
0.0
 73
     1
  0
TEXT
  5
976
  8
TEXT
 10
472.3375225529722
 20
-51.65871517607685
 30
0.0
 40
5.0
  1
save
 72
     1
 11
479.5764783762654
 21
-52.73742213320966
 31
0.0
 73
     1
  0
TEXT
  5
977
  8
TEXT
 10
653.4188099463759
 20
-98.65871517607675
 30
0.0
 40
5.0
  1
vol
 72
     1
 11
657.7996667067507
 21
-99.73742213320958
 31
0.0
 73
     1
  0
DIMENSION
  5
979
  8
FIXIT
  2
*D103
 10
328.0518506559195
 20
-116.3469771027451
 30
0.0
 11
324.8465293707789
 21
-129.4284697399607
 31
0.0
 70
    32
  3
ISO-25
 13
301.8575992440809
 23
-99.73742213320958
 33
0.0
 14
301.8575992440809
 24
-116.3469771027451
 34
0.0
 50
90.0
  0
LINE
  5
989
  8
FIXIT
 10
427.1579616426916
 20
-69.34742213320966
 30
0.0
 11
427.1579616426916
 21
-69.34742213320966
 31
0.0
  0
TEXT
  5
98B
  8
TEXT
 10
405.6294947702662
 20
-68.26871517607684
 30
0.0
 40
5.0
  1
preset
 72
     1
 11
415.150913779637
 21
-69.34742213320966
 31
0.0
 73
     1
  0
TEXT
  5
98C
  8
TEXT
 10
537.3286828657988
 20
-68.26871517607684
 30
0.0
 40
5.0
  1
auto
 72
     1
 11
544.0020429728938
 21
-69.34742213320966
 31
0.0
 73
     1
  0
DIMENSION
  5
98D
  8
DIMENSIONS
  2
*D104
 10
137.6736318431495
 20
-234.7374221332095
 30
0.0
 11
134.4683105580089
 21
-159.7374221332095
 31
0.0
 70
    32
  3
ISO-25
 13
479.5764783762654
 23
-84.73742213320958
 33
0.0
 14
479.5764783762654
 24
-234.7374221332096
 34
0.0
 50
90.0
  0
DIMENSION
  5
9A1
  8
DIMENSIONS
  2
*D105
 10
866.3623494662864
 20
-234.7374221332096
 30
0.0
 11
863.1570281811458
 21
-129.7374221332096
 31
0.0
 70
    32
  3
ISO-25
 13
686.5764783762654
 23
-24.73742213320963
 33
0.0
 14
681.566577143507
 24
-234.7374221332096
 34
0.0
 50
90.0
  0
LINE
  5
9DB
  8
0
 10
73.20135416491527
 20
-80.36111769056392
 30
0.0
 11
178.2895447330634
 21
-31.35768964698462
 31
0.0
  0
LINE
  5
9DC
  8
0
 10
178.2895447330635
 20
-24.73742213320966
 30
0.0
 11
178.2895447330632
 21
-234.7374221332096
 31
0.0
  0
POLYLINE
  5
9DD
  8
0
 66
     1
 10
0.0
 20
0.0
 30
0.0
 70
     1
  0
VERTEX
  5
B6C
  8
0
 10
178.2895447330632
 20
-234.7374221332096
 30
0.0
  0
VERTEX
  5
B6D
  8
0
 10
151.1003111219636
 20
-247.4159699854306
 30
0.0
  0
VERTEX
  5
B6E
  8
0
 10
148.5646015515194
 20
-241.9781232632107
 30
0.0
  0
VERTEX
  5
B6F
  8
0
 10
175.7538351626189
 20
-229.2995754109897
 30
0.0
  0
SEQEND
  5
B83
  8
0
  0
LINE
  5
9DE
  8
0
 10
154.0024482737393
 20
-239.4424136927665
 30
0.0
 11
78.63920088713519
 21
-77.82540812011972
 31
0.0
  0
LINE
  5
9DF
  8
0
 10
73.20135416491527
 20
-80.36111769056392
 30
0.0
 11
148.5646015515194
 21
-241.9781232632107
 31
0.0
  0
LINE
  5
9E0
  8
0
 10
178.2895447330635
 20
-24.73742213320966
 30
0.0
 11
70.66564459447108
 21
-74.92327096834401
 31
0.0
  0
LINE
  5
9E3
  8
GUIDES
 10
48.79837603500831
 20
91.11597243877283
 30
0.0
 11
48.79837603500831
 21
91.11597243877283
 31
0.0
  0
LINE
  5
9E4
  8
GUIDES
 10
223.4161376073648
 20
3.079074203196158
 30
0.0
 11
223.4161376073648
 21
3.079074203196158
 31
0.0
  0
LINE
  5
9EC
  8
SIDEGUIDES
 10
272.5764783762654
 20
-234.7374221332096
 30
0.0
 11
272.5764783762654
 21
-234.7374221332096
 31
0.0
  0
LINE
  5
9ED
  8
SIDEGUIDES
 10
272.5764783762654
 20
-24.73742213320966
 30
0.0
 11
272.5764783762654
 21
-24.73742213320966
 31
0.0
  0
LINE
  5
9EE
  8
SIDEGUIDES
 10
282.5764783762654
 20
-48.72742213320966
 30
0.0
 11
282.5764783762654
 21
-48.72742213320966
 31
0.0
  0
LINE
  5
9EF
  8
SIDEGUIDES
 10
282.5764783762654
 20
-54.72742213320966
 30
0.0
 11
282.5764783762654
 21
-54.72742213320966
 31
0.0
  0
LINE
  5
9F0
  8
SIDEGUIDES
 10
282.5764783762654
 20
-60.72742213320966
 30
0.0
 11
282.5764783762654
 21
-60.72742213320966
 31
0.0
  0
LINE
  5
9F1
  8
SIDEGUIDES
 10
282.5764783762654
 20
-66.72742213320966
 30
0.0
 11
282.5764783762654
 21
-66.72742213320966
 31
0.0
  0
LINE
  5
9F2
  8
SIDEGUIDES
 10
282.5764783762654
 20
-72.72742213320966
 30
0.0
 11
282.5764783762654
 21
-72.72742213320966
 31
0.0
  0
LINE
  5
9F3
  8
SIDEGUIDES
 10
383.8050633023479
 20
-107.2316881601254
 30
0.0
 11
383.8050633023479
 21
-107.2316881601254
 31
0.0
  0
LINE
  5
9F4
  8
SIDEGUIDES
 10
383.8050633023479
 20
-113.2316881601254
 30
0.0
 11
383.8050633023479
 21
-113.2316881601254
 31
0.0
  0
LINE
  5
9F5
  8
SIDEGUIDES
 10
383.8050633023479
 20
-119.2316881601254
 30
0.0
 11
383.8050633023479
 21
-119.2316881601254
 31
0.0
  0
LINE
  5
9F6
  8
SIDEGUIDES
 10
383.8050633023479
 20
-125.2316881601254
 30
0.0
 11
383.8050633023479
 21
-125.2316881601254
 31
0.0
  0
LINE
  5
9F7
  8
SIDEGUIDES
 10
383.8050633023479
 20
-131.2316881601254
 30
0.0
 11
383.8050633023479
 21
-131.2316881601254
 31
0.0
  0
LINE
  5
9F8
  8
SIDEGUIDES
 10
282.5764783762654
 20
-186.7374221332096
 30
0.0
 11
282.5764783762654
 21
-186.7374221332096
 31
0.0
  0
LINE
  5
9F9
  8
SIDEGUIDES
 10
282.5764783762654
 20
-192.7374221332096
 30
0.0
 11
282.5764783762654
 21
-192.7374221332096
 31
0.0
  0
LINE
  5
9FA
  8
SIDEGUIDES
 10
282.5764783762654
 20
-198.7374221332096
 30
0.0
 11
282.5764783762654
 21
-198.7374221332096
 31
0.0
  0
LINE
  5
9FB
  8
SIDEGUIDES
 10
282.5764783762654
 20
-204.7374221332096
 30
0.0
 11
282.5764783762654
 21
-204.7374221332096
 31
0.0
  0
LINE
  5
9FC
  8
SIDEGUIDES
 10
282.5764783762654
 20
-210.7374221332096
 30
0.0
 11
282.5764783762654
 21
-210.7374221332096
 31
0.0
  0
LINE
  5
9FE
  8
0
 10
178.2895447330634
 20
-48.72742213320966
 30
0.0
 11
184.2895447330634
 21
-48.72742213320966
 31
0.0
  0
LINE
  5
9FF
  8
0
 10
184.2895447330634
 20
-48.72742213320966
 30
0.0
 11
184.2895447330634
 21
-54.72742213320966
 31
0.0
  0
LINE
  5
A00
  8
0
 10
184.2895447330634
 20
-54.72742213320966
 30
0.0
 11
178.2895447330634
 21
-54.72742213320966
 31
0.0
  0
LINE
  5
A01
  8
0
 10
178.2895447330634
 20
-66.72742213320966
 30
0.0
 11
178.2895447330634
 21
-72.72742213320966
 31
0.0
  0
LINE
  5
A03
  8
0
 10
178.2895447330634
 20
-66.72742213320966
 30
0.0
 11
184.2895447330634
 21
-66.72742213320966
 31
0.0
  0
LINE
  5
A04
  8
0
 10
184.2895447330634
 20
-66.72742213320966
 30
0.0
 11
184.2895447330634
 21
-72.72742213320966
 31
0.0
  0
LINE
  5
A05
  8
0
 10
184.2895447330634
 20
-72.72742213320966
 30
0.0
 11
178.2895447330634
 21
-72.72742213320966
 31
0.0
  0
LINE
  5
A06
  8
0
 10
178.2895447330633
 20
-107.2316881601254
 30
0.0
 11
208.2895447330633
 21
-107.2316881601254
 31
0.0
  0
LINE
  5
A07
  8
0
 10
208.2895447330633
 20
-107.2316881601254
 30
0.0
 11
208.2895447330633
 21
-113.2316881601254
 31
0.0
  0
LINE
  5
A08
  8
0
 10
208.2895447330633
 20
-113.2316881601254
 30
0.0
 11
178.2895447330633
 21
-113.2316881601254
 31
0.0
  0
LINE
  5
A09
  8
0
 10
178.2895447330633
 20
-125.2316881601254
 30
0.0
 11
208.2895447330633
 21
-125.2316881601254
 31
0.0
  0
LINE
  5
A0A
  8
0
 10
208.2895447330633
 20
-125.2316881601254
 30
0.0
 11
208.2895447330633
 21
-131.2316881601254
 31
0.0
  0
LINE
  5
A0B
  8
0
 10
208.2895447330633
 20
-131.2316881601254
 30
0.0
 11
178.2895447330633
 21
-131.2316881601254
 31
0.0
  0
LINE
  5
A0C
  8
0
 10
178.2895447330632
 20
-186.7374221332096
 30
0.0
 11
208.2895447330633
 21
-186.7374221332096
 31
0.0
  0
LINE
  5
A0D
  8
0
 10
208.2895447330633
 20
-186.7374221332096
 30
0.0
 11
208.2895447330633
 21
-192.7374221332096
 31
0.0
  0
LINE
  5
A0E
  8
0
 10
208.2895447330633
 20
-192.7374221332096
 30
0.0
 11
178.2895447330632
 21
-192.7374221332095
 31
0.0
  0
LINE
  5
A0F
  8
0
 10
178.2895447330632
 20
-204.7374221332096
 30
0.0
 11
208.2895447330633
 21
-204.7374221332096
 31
0.0
  0
LINE
  5
A10
  8
0
 10
208.2895447330633
 20
-204.7374221332096
 30
0.0
 11
208.2895447330633
 21
-210.7374221332096
 31
0.0
  0
LINE
  5
A11
  8
0
 10
208.2895447330633
 20
-210.7374221332096
 30
0.0
 11
178.2895447330632
 21
-210.7374221332096
 31
0.0
  0
LINE
  5
A12
  8
0
 10
184.2895447330634
 20
-186.7374221332096
 30
0.0
 11
184.2895447330634
 21
-192.7374221332096
 31
0.0
  0
LINE
  5
A13
  8
0
 10
184.2895447330634
 20
-204.7374221332096
 30
0.0
 11
184.2895447330634
 21
-210.7374221332096
 31
0.0
  0
VIEWPORT
  5
668
 67
     1
  8
0
 10
0.0
 20
0.0
 30
0.0
 40
2539.323892532118
 41
1176.452636718749
 68
     1
 69
     1
1001
ACAD
1000
MVIEW
1002
{
1070
    16
1010
0.0
1020
0.0
1030
0.0
1020
0.0
1030
0.0
1010
0.0
1020
0.0
1030
1.0
1020
0.0
1030
1.0
1040
0.0
1040
1176.452636718749
1040
-50.2947721493573
1040
335.4612657044631
1040
50.0
1040
0.0
1040
0.0
1070
    16
1070
   100
1070
     0
1070
     3
1070
     0
1070
     0
1070
     0
1070
     0
1040
0.0
1040
0.0
1040
0.0
1040
0.5
1040
0.5
1040
0.0
1040
0.0
1070
     0
1002
{
1002
}
1002
}
  0
VIEWPORT
  5
669
 67
     1
  8
0
 10
202.5
 20
128.5
 30
0.0
 40
324.0
 41
205.6
 68
     2
 69
     2
1001
ACAD
1000
MVIEW
1002
{
1070
    16
1010
0.0
1020
0.0
1030
0.0
1020
0.0
1030
0.0
1010
0.0
1020
0.0
1030
1.0
1020
0.0
1030
1.0
1040
0.0
1040
420.6545134154311
1040
364.6259215492845
1040
-41.04434355492253
1040
50.0
1040
0.0
1040
0.0
1070
     0
1070
   100
1070
     0
1070
     3
1070
     0
1070
     0
1070
     0
1070
     0
1040
0.0
1040
0.0
1040
0.0
1040
0.5
1040
0.5
1040
0.0
1040
0.0
1070
     0
1002
{
1002
}
1002
}
  0
ENDSEC
  0
EOF
