%FSLAX45Y45*%
G04 Gerber Fmt 4.5, Leading zero omitted, Abs format (unit mm)*
G04 Created by KiCad (PCBNEW 4.1.0-alpha+201605292346+6852~44~ubuntu15.10.1-product) date Wed Jun  1 10:45:02 2016*
%MOMM*%
%LPD*%
G01*
G04 APERTURE LIST*
%ADD10C,0.127000*%
%ADD11C,0.150000*%
%ADD12C,0.200000*%
%ADD13C,0.300000*%
G04 APERTURE END LIST*
D10*
D11*
X12420600Y-14147800D02*
X12344400Y-14147800D01*
X12420600Y-9855200D02*
X12344400Y-9855200D01*
X12420600Y-9855200D02*
X12941300Y-9855200D01*
X12344400Y-14147800D02*
X12344400Y-9855200D01*
X17449800Y-14147800D02*
X12420600Y-14147800D01*
X17449800Y-9855200D02*
X17449800Y-14147800D01*
X12941300Y-9855200D02*
X17449800Y-9855200D01*
D12*
X12781300Y-10101600D02*
X13101300Y-10421600D01*
X13101300Y-10101600D02*
X12781300Y-10421600D01*
X12781300Y-13593600D02*
X13101300Y-13913600D01*
X13101300Y-13593600D02*
X12781300Y-13913600D01*
X16688700Y-10088900D02*
X17008700Y-10408900D01*
X17008700Y-10088900D02*
X16688700Y-10408900D01*
X16695400Y-13580900D02*
X17015400Y-13900900D01*
X17015400Y-13580900D02*
X16695400Y-13900900D01*
D13*
X12623328Y-14621014D02*
X12623328Y-14321014D01*
X12694757Y-14321014D01*
X12737614Y-14335300D01*
X12766186Y-14363871D01*
X12780471Y-14392443D01*
X12794757Y-14449586D01*
X12794757Y-14492443D01*
X12780471Y-14549586D01*
X12766186Y-14578157D01*
X12737614Y-14606729D01*
X12694757Y-14621014D01*
X12623328Y-14621014D01*
X12923328Y-14621014D02*
X12923328Y-14421014D01*
X12923328Y-14478157D02*
X12937614Y-14449586D01*
X12951900Y-14435300D01*
X12980471Y-14421014D01*
X13009043Y-14421014D01*
X13109043Y-14621014D02*
X13109043Y-14421014D01*
X13109043Y-14321014D02*
X13094757Y-14335300D01*
X13109043Y-14349586D01*
X13123328Y-14335300D01*
X13109043Y-14321014D01*
X13109043Y-14349586D01*
X13294757Y-14621014D02*
X13266186Y-14606729D01*
X13251900Y-14578157D01*
X13251900Y-14321014D01*
X13451900Y-14621014D02*
X13423328Y-14606729D01*
X13409043Y-14578157D01*
X13409043Y-14321014D01*
X13794757Y-14621014D02*
X13794757Y-14321014D01*
X13894757Y-14535300D01*
X13994757Y-14321014D01*
X13994757Y-14621014D01*
X14266186Y-14621014D02*
X14266186Y-14463871D01*
X14251900Y-14435300D01*
X14223328Y-14421014D01*
X14166186Y-14421014D01*
X14137614Y-14435300D01*
X14266186Y-14606729D02*
X14237614Y-14621014D01*
X14166186Y-14621014D01*
X14137614Y-14606729D01*
X14123328Y-14578157D01*
X14123328Y-14549586D01*
X14137614Y-14521014D01*
X14166186Y-14506729D01*
X14237614Y-14506729D01*
X14266186Y-14492443D01*
X14409043Y-14421014D02*
X14409043Y-14721014D01*
X14409043Y-14435300D02*
X14437614Y-14421014D01*
X14494757Y-14421014D01*
X14523328Y-14435300D01*
X14537614Y-14449586D01*
X14551900Y-14478157D01*
X14551900Y-14563871D01*
X14537614Y-14592443D01*
X14523328Y-14606729D01*
X14494757Y-14621014D01*
X14437614Y-14621014D01*
X14409043Y-14606729D01*
X14680471Y-14592443D02*
X14694757Y-14606729D01*
X14680471Y-14621014D01*
X14666186Y-14606729D01*
X14680471Y-14592443D01*
X14680471Y-14621014D01*
X14680471Y-14435300D02*
X14694757Y-14449586D01*
X14680471Y-14463871D01*
X14666186Y-14449586D01*
X14680471Y-14435300D01*
X14680471Y-14463871D01*
X12016900Y-14955300D02*
X12336900Y-15275300D01*
X12336900Y-14955300D02*
X12016900Y-15275300D01*
X12594757Y-14951014D02*
X12780471Y-14951014D01*
X12680471Y-15065300D01*
X12723328Y-15065300D01*
X12751900Y-15079586D01*
X12766186Y-15093871D01*
X12780471Y-15122443D01*
X12780471Y-15193871D01*
X12766186Y-15222443D01*
X12751900Y-15236729D01*
X12723328Y-15251014D01*
X12637614Y-15251014D01*
X12609043Y-15236729D01*
X12594757Y-15222443D01*
X12909043Y-15222443D02*
X12923328Y-15236729D01*
X12909043Y-15251014D01*
X12894757Y-15236729D01*
X12909043Y-15222443D01*
X12909043Y-15251014D01*
X13037614Y-14979586D02*
X13051900Y-14965300D01*
X13080471Y-14951014D01*
X13151900Y-14951014D01*
X13180471Y-14965300D01*
X13194757Y-14979586D01*
X13209043Y-15008157D01*
X13209043Y-15036729D01*
X13194757Y-15079586D01*
X13023328Y-15251014D01*
X13209043Y-15251014D01*
X13394757Y-14951014D02*
X13423328Y-14951014D01*
X13451900Y-14965300D01*
X13466186Y-14979586D01*
X13480471Y-15008157D01*
X13494757Y-15065300D01*
X13494757Y-15136729D01*
X13480471Y-15193871D01*
X13466186Y-15222443D01*
X13451900Y-15236729D01*
X13423328Y-15251014D01*
X13394757Y-15251014D01*
X13366186Y-15236729D01*
X13351900Y-15222443D01*
X13337614Y-15193871D01*
X13323328Y-15136729D01*
X13323328Y-15065300D01*
X13337614Y-15008157D01*
X13351900Y-14979586D01*
X13366186Y-14965300D01*
X13394757Y-14951014D01*
X13623328Y-15251014D02*
X13623328Y-15051014D01*
X13623328Y-15079586D02*
X13637614Y-15065300D01*
X13666186Y-15051014D01*
X13709043Y-15051014D01*
X13737614Y-15065300D01*
X13751900Y-15093871D01*
X13751900Y-15251014D01*
X13751900Y-15093871D02*
X13766186Y-15065300D01*
X13794757Y-15051014D01*
X13837614Y-15051014D01*
X13866186Y-15065300D01*
X13880471Y-15093871D01*
X13880471Y-15251014D01*
X14023328Y-15251014D02*
X14023328Y-15051014D01*
X14023328Y-15079586D02*
X14037614Y-15065300D01*
X14066186Y-15051014D01*
X14109043Y-15051014D01*
X14137614Y-15065300D01*
X14151900Y-15093871D01*
X14151900Y-15251014D01*
X14151900Y-15093871D02*
X14166186Y-15065300D01*
X14194757Y-15051014D01*
X14237614Y-15051014D01*
X14266186Y-15065300D01*
X14280471Y-15093871D01*
X14280471Y-15251014D01*
X14866186Y-14936729D02*
X14609043Y-15322443D01*
X15251900Y-14951014D02*
X15280471Y-14951014D01*
X15309043Y-14965300D01*
X15323328Y-14979586D01*
X15337614Y-15008157D01*
X15351900Y-15065300D01*
X15351900Y-15136729D01*
X15337614Y-15193871D01*
X15323328Y-15222443D01*
X15309043Y-15236729D01*
X15280471Y-15251014D01*
X15251900Y-15251014D01*
X15223328Y-15236729D01*
X15209043Y-15222443D01*
X15194757Y-15193871D01*
X15180471Y-15136729D01*
X15180471Y-15065300D01*
X15194757Y-15008157D01*
X15209043Y-14979586D01*
X15223328Y-14965300D01*
X15251900Y-14951014D01*
X15480471Y-15222443D02*
X15494757Y-15236729D01*
X15480471Y-15251014D01*
X15466186Y-15236729D01*
X15480471Y-15222443D01*
X15480471Y-15251014D01*
X15780471Y-15251014D02*
X15609043Y-15251014D01*
X15694757Y-15251014D02*
X15694757Y-14951014D01*
X15666186Y-14993871D01*
X15637614Y-15022443D01*
X15609043Y-15036729D01*
X15894757Y-14979586D02*
X15909043Y-14965300D01*
X15937614Y-14951014D01*
X16009043Y-14951014D01*
X16037614Y-14965300D01*
X16051900Y-14979586D01*
X16066186Y-15008157D01*
X16066186Y-15036729D01*
X16051900Y-15079586D01*
X15880471Y-15251014D01*
X16066186Y-15251014D01*
X16323328Y-14951014D02*
X16266186Y-14951014D01*
X16237614Y-14965300D01*
X16223328Y-14979586D01*
X16194757Y-15022443D01*
X16180471Y-15079586D01*
X16180471Y-15193871D01*
X16194757Y-15222443D01*
X16209043Y-15236729D01*
X16237614Y-15251014D01*
X16294757Y-15251014D01*
X16323328Y-15236729D01*
X16337614Y-15222443D01*
X16351900Y-15193871D01*
X16351900Y-15122443D01*
X16337614Y-15093871D01*
X16323328Y-15079586D01*
X16294757Y-15065300D01*
X16237614Y-15065300D01*
X16209043Y-15079586D01*
X16194757Y-15093871D01*
X16180471Y-15122443D01*
X16466186Y-14951014D02*
X16466186Y-15008157D01*
X16580471Y-14951014D02*
X16580471Y-15008157D01*
X17023328Y-15365300D02*
X17009043Y-15351014D01*
X16980471Y-15308157D01*
X16966186Y-15279586D01*
X16951900Y-15236729D01*
X16937614Y-15165300D01*
X16937614Y-15108157D01*
X16951900Y-15036729D01*
X16966186Y-14993871D01*
X16980471Y-14965300D01*
X17009043Y-14922443D01*
X17023328Y-14908157D01*
X17266186Y-15051014D02*
X17266186Y-15251014D01*
X17194757Y-14936729D02*
X17123328Y-15151014D01*
X17309043Y-15151014D01*
X17651900Y-15251014D02*
X17651900Y-14951014D01*
X17780471Y-15251014D02*
X17780471Y-15093871D01*
X17766186Y-15065300D01*
X17737614Y-15051014D01*
X17694757Y-15051014D01*
X17666186Y-15065300D01*
X17651900Y-15079586D01*
X17966186Y-15251014D02*
X17937614Y-15236729D01*
X17923328Y-15222443D01*
X17909043Y-15193871D01*
X17909043Y-15108157D01*
X17923328Y-15079586D01*
X17937614Y-15065300D01*
X17966186Y-15051014D01*
X18009043Y-15051014D01*
X18037614Y-15065300D01*
X18051900Y-15079586D01*
X18066186Y-15108157D01*
X18066186Y-15193871D01*
X18051900Y-15222443D01*
X18037614Y-15236729D01*
X18009043Y-15251014D01*
X17966186Y-15251014D01*
X18237614Y-15251014D02*
X18209043Y-15236729D01*
X18194757Y-15208157D01*
X18194757Y-14951014D01*
X18466186Y-15236729D02*
X18437614Y-15251014D01*
X18380471Y-15251014D01*
X18351900Y-15236729D01*
X18337614Y-15208157D01*
X18337614Y-15093871D01*
X18351900Y-15065300D01*
X18380471Y-15051014D01*
X18437614Y-15051014D01*
X18466186Y-15065300D01*
X18480471Y-15093871D01*
X18480471Y-15122443D01*
X18337614Y-15151014D01*
X18594757Y-15236729D02*
X18623328Y-15251014D01*
X18680471Y-15251014D01*
X18709043Y-15236729D01*
X18723328Y-15208157D01*
X18723328Y-15193871D01*
X18709043Y-15165300D01*
X18680471Y-15151014D01*
X18637614Y-15151014D01*
X18609043Y-15136729D01*
X18594757Y-15108157D01*
X18594757Y-15093871D01*
X18609043Y-15065300D01*
X18637614Y-15051014D01*
X18680471Y-15051014D01*
X18709043Y-15065300D01*
X18823328Y-15365300D02*
X18837614Y-15351014D01*
X18866186Y-15308157D01*
X18880471Y-15279586D01*
X18894757Y-15236729D01*
X18909043Y-15165300D01*
X18909043Y-15108157D01*
X18894757Y-15036729D01*
X18880471Y-14993871D01*
X18866186Y-14965300D01*
X18837614Y-14922443D01*
X18823328Y-14908157D01*
X19366186Y-15365300D02*
X19351900Y-15351014D01*
X19323328Y-15308157D01*
X19309043Y-15279586D01*
X19294757Y-15236729D01*
X19280471Y-15165300D01*
X19280471Y-15108157D01*
X19294757Y-15036729D01*
X19309043Y-14993871D01*
X19323328Y-14965300D01*
X19351900Y-14922443D01*
X19366186Y-14908157D01*
X19480471Y-15051014D02*
X19480471Y-15251014D01*
X19480471Y-15079586D02*
X19494757Y-15065300D01*
X19523328Y-15051014D01*
X19566186Y-15051014D01*
X19594757Y-15065300D01*
X19609043Y-15093871D01*
X19609043Y-15251014D01*
X19794757Y-15251014D02*
X19766186Y-15236729D01*
X19751900Y-15222443D01*
X19737614Y-15193871D01*
X19737614Y-15108157D01*
X19751900Y-15079586D01*
X19766186Y-15065300D01*
X19794757Y-15051014D01*
X19837614Y-15051014D01*
X19866186Y-15065300D01*
X19880471Y-15079586D01*
X19894757Y-15108157D01*
X19894757Y-15193871D01*
X19880471Y-15222443D01*
X19866186Y-15236729D01*
X19837614Y-15251014D01*
X19794757Y-15251014D01*
X19980471Y-15051014D02*
X20094757Y-15051014D01*
X20023328Y-14951014D02*
X20023328Y-15208157D01*
X20037614Y-15236729D01*
X20066186Y-15251014D01*
X20094757Y-15251014D01*
X20423328Y-15051014D02*
X20423328Y-15351014D01*
X20423328Y-15065300D02*
X20451900Y-15051014D01*
X20509043Y-15051014D01*
X20537614Y-15065300D01*
X20551900Y-15079586D01*
X20566186Y-15108157D01*
X20566186Y-15193871D01*
X20551900Y-15222443D01*
X20537614Y-15236729D01*
X20509043Y-15251014D01*
X20451900Y-15251014D01*
X20423328Y-15236729D01*
X20737614Y-15251014D02*
X20709043Y-15236729D01*
X20694757Y-15208157D01*
X20694757Y-14951014D01*
X20980471Y-15251014D02*
X20980471Y-15093871D01*
X20966186Y-15065300D01*
X20937614Y-15051014D01*
X20880471Y-15051014D01*
X20851900Y-15065300D01*
X20980471Y-15236729D02*
X20951900Y-15251014D01*
X20880471Y-15251014D01*
X20851900Y-15236729D01*
X20837614Y-15208157D01*
X20837614Y-15179586D01*
X20851900Y-15151014D01*
X20880471Y-15136729D01*
X20951900Y-15136729D01*
X20980471Y-15122443D01*
X21080471Y-15051014D02*
X21194757Y-15051014D01*
X21123328Y-14951014D02*
X21123328Y-15208157D01*
X21137614Y-15236729D01*
X21166186Y-15251014D01*
X21194757Y-15251014D01*
X21409043Y-15236729D02*
X21380471Y-15251014D01*
X21323328Y-15251014D01*
X21294757Y-15236729D01*
X21280471Y-15208157D01*
X21280471Y-15093871D01*
X21294757Y-15065300D01*
X21323328Y-15051014D01*
X21380471Y-15051014D01*
X21409043Y-15065300D01*
X21423328Y-15093871D01*
X21423328Y-15122443D01*
X21280471Y-15151014D01*
X21680471Y-15251014D02*
X21680471Y-14951014D01*
X21680471Y-15236729D02*
X21651900Y-15251014D01*
X21594757Y-15251014D01*
X21566186Y-15236729D01*
X21551900Y-15222443D01*
X21537614Y-15193871D01*
X21537614Y-15108157D01*
X21551900Y-15079586D01*
X21566186Y-15065300D01*
X21594757Y-15051014D01*
X21651900Y-15051014D01*
X21680471Y-15065300D01*
X21794757Y-15365300D02*
X21809043Y-15351014D01*
X21837614Y-15308157D01*
X21851900Y-15279586D01*
X21866186Y-15236729D01*
X21880471Y-15165300D01*
X21880471Y-15108157D01*
X21866186Y-15036729D01*
X21851900Y-14993871D01*
X21837614Y-14965300D01*
X21809043Y-14922443D01*
X21794757Y-14908157D01*
M02*
