M48
;DRILL file {KiCad 4.1.0-alpha+201605292346+6852~44~ubuntu15.10.1-product} date Wed Jun  1 10:45:01 2016
;FORMAT={3:3/ absolute / metric / suppress leading zeros}
FMAT,2
METRIC,TZ
T1C0.700
T2C0.900
%
G90
G05
M71
T1
X136906Y-107442
X136906Y-110490
X136906Y-113538
X136906Y-116586
X136906Y-119634
X136906Y-122682
X136906Y-125730
X136906Y-128778
X136906Y-131826
X136906Y-134874
X147066Y-107442
X147066Y-110490
X147066Y-113538
X147066Y-116586
X147066Y-119634
X147066Y-122682
X147066Y-125730
X147066Y-128778
X147066Y-131826
X147066Y-134874
T2
X127254Y-109728
X127254Y-112268
X127254Y-114808
X127254Y-117348
X127254Y-119888
X127254Y-122428
X127254Y-124968
X127254Y-127508
X127254Y-130048
X127254Y-132588
X132334Y-109728
X132334Y-112268
X132334Y-114808
X132334Y-117348
X132334Y-119888
X132334Y-122428
X132334Y-124968
X132334Y-127508
X132334Y-130048
X132334Y-132588
X153162Y-109728
X153162Y-112268
X153162Y-114808
X153162Y-117348
X153162Y-119888
X153162Y-122428
X153162Y-124968
X153162Y-127508
X153162Y-130048
X153162Y-132588
X158115Y-109728
X158115Y-112268
X158115Y-114808
X158115Y-117348
X158115Y-119888
X158115Y-122428
X158115Y-124968
X158115Y-127508
X158115Y-130048
X158115Y-132588
X165862Y-109728
X165862Y-112268
X165862Y-114808
X165862Y-117348
X165862Y-119888
X165862Y-122428
X165862Y-124968
X165862Y-127508
X165862Y-130048
X165862Y-132588
X170815Y-109728
X170815Y-112268
X170815Y-114808
X170815Y-117348
X170815Y-119888
X170815Y-122428
X170815Y-124968
X170815Y-127508
X170815Y-130048
X170815Y-132588
T0
M30
