M48
INCH,TZ
T10C0.028
T11C0.035
%
T10
X053900Y-42300
X053900Y-43500
X053900Y-44700
X053900Y-45900
X053900Y-47100
X053900Y-48300
X053900Y-49500
X053900Y-50700
X053900Y-51900
X053900Y-53100
X057900Y-42300
X057900Y-43500
X057900Y-44700
X057900Y-45900
X057900Y-47100
X057900Y-48300
X057900Y-49500
X057900Y-50700
X057900Y-51900
X057900Y-53100
T11
X050100Y-43200
X050100Y-44200
X050100Y-45200
X050100Y-46200
X050100Y-47200
X050100Y-48200
X050100Y-49200
X050100Y-50200
X050100Y-51200
X050100Y-52200
X051900Y-43200
X051900Y-44200
X051900Y-45200
X051900Y-46200
X051900Y-47200
X051900Y-48200
X051900Y-49200
X051900Y-50200
X051900Y-51200
X051900Y-52200
X060300Y-43200
X060300Y-44200
X060300Y-45200
X060300Y-46200
X060300Y-47200
X060300Y-48200
X060300Y-49200
X060300Y-50200
X060300Y-51200
X060300Y-52200
X062200Y-43200
X062200Y-44200
X062200Y-45200
X062200Y-46200
X062200Y-47200
X062200Y-48200
X062200Y-49200
X062200Y-50200
X062200Y-51200
X062200Y-52200
X064900Y-43200
X064900Y-44200
X064900Y-45200
X064900Y-46200
X064900Y-47200
X064900Y-48200
X064900Y-49200
X064900Y-50200
X064900Y-51200
X064900Y-52200
X067000Y-43200
X067000Y-44200
X067000Y-45200
X067000Y-46200
X067000Y-47200
X067000Y-48200
X067000Y-49200
X067000Y-50200
X067000Y-51200
X067000Y-52200
M30

