G04 #@! TF.FileFunction,Copper,L2,Bot,Signal*
%FSLAX46Y46*%
G04 Gerber Fmt 4.6, Leading zero omitted, Abs format (unit mm)*
G04 Created by KiCad (PCBNEW 4.1.0-alpha+201605292346+6852~44~ubuntu15.10.1-product) date Wed Jun  1 10:44:58 2016*
%MOMM*%
%LPD*%
G01*
G04 APERTURE LIST*
%ADD10C,0.050000*%
%ADD11C,0.300000*%
%ADD12C,0.150000*%
%ADD13C,2.000000*%
%ADD14C,0.900000*%
%ADD15C,0.250000*%
G04 APERTURE END LIST*
D10*
D11*
X158328142Y-103167571D02*
X158328142Y-101667571D01*
X158328142Y-102381857D02*
X157471000Y-102381857D01*
X157471000Y-103167571D02*
X157471000Y-101667571D01*
X156756714Y-103167571D02*
X156756714Y-101667571D01*
X156256714Y-102739000D01*
X155756714Y-101667571D01*
X155756714Y-103167571D01*
X155042428Y-103167571D02*
X155042428Y-101667571D01*
X153185285Y-103167571D02*
X153185285Y-101667571D01*
X152613857Y-101667571D01*
X152471000Y-101739000D01*
X152399571Y-101810428D01*
X152328142Y-101953285D01*
X152328142Y-102167571D01*
X152399571Y-102310428D01*
X152471000Y-102381857D01*
X152613857Y-102453285D01*
X153185285Y-102453285D01*
X151471000Y-103167571D02*
X151613857Y-103096142D01*
X151685285Y-103024714D01*
X151756714Y-102881857D01*
X151756714Y-102453285D01*
X151685285Y-102310428D01*
X151613857Y-102239000D01*
X151471000Y-102167571D01*
X151256714Y-102167571D01*
X151113857Y-102239000D01*
X151042428Y-102310428D01*
X150971000Y-102453285D01*
X150971000Y-102881857D01*
X151042428Y-103024714D01*
X151113857Y-103096142D01*
X151256714Y-103167571D01*
X151471000Y-103167571D01*
X150471000Y-102167571D02*
X150185285Y-103167571D01*
X149899571Y-102453285D01*
X149613857Y-103167571D01*
X149328142Y-102167571D01*
X148185285Y-103096142D02*
X148328142Y-103167571D01*
X148613857Y-103167571D01*
X148756714Y-103096142D01*
X148828142Y-102953285D01*
X148828142Y-102381857D01*
X148756714Y-102239000D01*
X148613857Y-102167571D01*
X148328142Y-102167571D01*
X148185285Y-102239000D01*
X148113857Y-102381857D01*
X148113857Y-102524714D01*
X148828142Y-102667571D01*
X147471000Y-103167571D02*
X147471000Y-102167571D01*
X147471000Y-102453285D02*
X147399571Y-102310428D01*
X147328142Y-102239000D01*
X147185285Y-102167571D01*
X147042428Y-102167571D01*
X144899571Y-102381857D02*
X144685285Y-102453285D01*
X144613857Y-102524714D01*
X144542428Y-102667571D01*
X144542428Y-102881857D01*
X144613857Y-103024714D01*
X144685285Y-103096142D01*
X144828142Y-103167571D01*
X145399571Y-103167571D01*
X145399571Y-101667571D01*
X144899571Y-101667571D01*
X144756714Y-101739000D01*
X144685285Y-101810428D01*
X144613857Y-101953285D01*
X144613857Y-102096142D01*
X144685285Y-102239000D01*
X144756714Y-102310428D01*
X144899571Y-102381857D01*
X145399571Y-102381857D01*
X143685285Y-103167571D02*
X143828142Y-103096142D01*
X143899571Y-103024714D01*
X143971000Y-102881857D01*
X143971000Y-102453285D01*
X143899571Y-102310428D01*
X143828142Y-102239000D01*
X143685285Y-102167571D01*
X143471000Y-102167571D01*
X143328142Y-102239000D01*
X143256714Y-102310428D01*
X143185285Y-102453285D01*
X143185285Y-102881857D01*
X143256714Y-103024714D01*
X143328142Y-103096142D01*
X143471000Y-103167571D01*
X143685285Y-103167571D01*
X141899571Y-103167571D02*
X141899571Y-102381857D01*
X141971000Y-102239000D01*
X142113857Y-102167571D01*
X142399571Y-102167571D01*
X142542428Y-102239000D01*
X141899571Y-103096142D02*
X142042428Y-103167571D01*
X142399571Y-103167571D01*
X142542428Y-103096142D01*
X142613857Y-102953285D01*
X142613857Y-102810428D01*
X142542428Y-102667571D01*
X142399571Y-102596142D01*
X142042428Y-102596142D01*
X141899571Y-102524714D01*
X141185285Y-103167571D02*
X141185285Y-102167571D01*
X141185285Y-102453285D02*
X141113857Y-102310428D01*
X141042428Y-102239000D01*
X140899571Y-102167571D01*
X140756714Y-102167571D01*
X139613857Y-103167571D02*
X139613857Y-101667571D01*
X139613857Y-103096142D02*
X139756714Y-103167571D01*
X140042428Y-103167571D01*
X140185285Y-103096142D01*
X140256714Y-103024714D01*
X140328142Y-102881857D01*
X140328142Y-102453285D01*
X140256714Y-102310428D01*
X140185285Y-102239000D01*
X140042428Y-102167571D01*
X139756714Y-102167571D01*
X139613857Y-102239000D01*
D12*
X124206000Y-141478000D02*
X123444000Y-141478000D01*
X124206000Y-98552000D02*
X123444000Y-98552000D01*
X124206000Y-98552000D02*
X129413000Y-98552000D01*
X123444000Y-141478000D02*
X123444000Y-98552000D01*
X174498000Y-141478000D02*
X124206000Y-141478000D01*
X174498000Y-98552000D02*
X174498000Y-141478000D01*
X129413000Y-98552000D02*
X174498000Y-98552000D01*
D13*
X165862000Y-109728000D03*
X165862000Y-112268000D03*
X165862000Y-114808000D03*
X165862000Y-117348000D03*
X165862000Y-119888000D03*
X165862000Y-122428000D03*
X165862000Y-124968000D03*
X165862000Y-127508000D03*
X165862000Y-130048000D03*
X165862000Y-132588000D03*
X170815000Y-109728000D03*
X170815000Y-112268000D03*
X170815000Y-114808000D03*
X170815000Y-117348000D03*
X170815000Y-119888000D03*
X170815000Y-122428000D03*
X170815000Y-124968000D03*
X170815000Y-127508000D03*
X170815000Y-130048000D03*
X170815000Y-132588000D03*
X153162000Y-109728000D03*
X153162000Y-112268000D03*
X153162000Y-114808000D03*
X153162000Y-117348000D03*
X153162000Y-119888000D03*
X153162000Y-122428000D03*
X153162000Y-124968000D03*
X153162000Y-127508000D03*
X153162000Y-130048000D03*
X153162000Y-132588000D03*
X158115000Y-109728000D03*
X158115000Y-112268000D03*
X158115000Y-114808000D03*
X158115000Y-117348000D03*
X158115000Y-119888000D03*
X158115000Y-122428000D03*
X158115000Y-124968000D03*
X158115000Y-127508000D03*
X158115000Y-130048000D03*
X158115000Y-132588000D03*
X132334000Y-109728000D03*
X132334000Y-112268000D03*
X132334000Y-114808000D03*
X132334000Y-117348000D03*
X132334000Y-119888000D03*
X132334000Y-122428000D03*
X132334000Y-124968000D03*
X132334000Y-127508000D03*
X132334000Y-130048000D03*
X132334000Y-132588000D03*
X127254000Y-109728000D03*
X127254000Y-112268000D03*
X127254000Y-114808000D03*
X127254000Y-117348000D03*
X127254000Y-119888000D03*
X127254000Y-122428000D03*
X127254000Y-124968000D03*
X127254000Y-127508000D03*
X127254000Y-130048000D03*
X127254000Y-132588000D03*
X147066000Y-134874000D03*
X136906000Y-134874000D03*
X147066000Y-131826000D03*
X136906000Y-131826000D03*
X147066000Y-128778000D03*
X136906000Y-128778000D03*
X147066000Y-125730000D03*
X136906000Y-125730000D03*
X147066000Y-122682000D03*
X136906000Y-122682000D03*
X147066000Y-119634000D03*
X136906000Y-119634000D03*
X147066000Y-116586000D03*
X136906000Y-116586000D03*
X147066000Y-113538000D03*
X136906000Y-113538000D03*
X147066000Y-110490000D03*
X136906000Y-110490000D03*
X147066000Y-107442000D03*
X136906000Y-107442000D03*
D14*
X147066000Y-107442000D02*
X150876000Y-107442000D01*
X150876000Y-107442000D02*
X153162000Y-109728000D01*
X158115000Y-109728000D02*
X153162000Y-109728000D01*
X147066000Y-110490000D02*
X149098000Y-110490000D01*
X150876000Y-112268000D02*
X153162000Y-112268000D01*
X149098000Y-110490000D02*
X150876000Y-112268000D01*
X158115000Y-112268000D02*
X153162000Y-112268000D01*
D15*
X152654000Y-112776000D02*
X153162000Y-112268000D01*
D14*
X147066000Y-113538000D02*
X149606000Y-113538000D01*
X150876000Y-114808000D02*
X153162000Y-114808000D01*
X149606000Y-113538000D02*
X150876000Y-114808000D01*
X158115000Y-114808000D02*
X153162000Y-114808000D01*
X147066000Y-116586000D02*
X150114000Y-116586000D01*
X150876000Y-117348000D02*
X153162000Y-117348000D01*
X150114000Y-116586000D02*
X150876000Y-117348000D01*
X158115000Y-117348000D02*
X153162000Y-117348000D01*
X147066000Y-119634000D02*
X152908000Y-119634000D01*
X152908000Y-119634000D02*
X153162000Y-119888000D01*
X158115000Y-119888000D02*
X153162000Y-119888000D01*
D15*
X152146000Y-119888000D02*
X153162000Y-119888000D01*
D14*
X147066000Y-122682000D02*
X150876000Y-122682000D01*
X151130000Y-122428000D02*
X153162000Y-122428000D01*
X150876000Y-122682000D02*
X151130000Y-122428000D01*
X158115000Y-122428000D02*
X153162000Y-122428000D01*
X147066000Y-125730000D02*
X149352000Y-125730000D01*
X150114000Y-124968000D02*
X153162000Y-124968000D01*
X149352000Y-125730000D02*
X150114000Y-124968000D01*
X158115000Y-124968000D02*
X153162000Y-124968000D01*
D15*
X147066000Y-125730000D02*
X147828000Y-125730000D01*
D14*
X147066000Y-128778000D02*
X149352000Y-128778000D01*
X150622000Y-127508000D02*
X153162000Y-127508000D01*
X149352000Y-128778000D02*
X150622000Y-127508000D01*
X158115000Y-127508000D02*
X153162000Y-127508000D01*
D15*
X147066000Y-128778000D02*
X147574000Y-128778000D01*
D14*
X147066000Y-131826000D02*
X148844000Y-131826000D01*
X150622000Y-130048000D02*
X153162000Y-130048000D01*
X148844000Y-131826000D02*
X150622000Y-130048000D01*
X158115000Y-130048000D02*
X153162000Y-130048000D01*
D15*
X147066000Y-131826000D02*
X147320000Y-131826000D01*
D14*
X147066000Y-134874000D02*
X148590000Y-134874000D01*
X150876000Y-132588000D02*
X153162000Y-132588000D01*
X148590000Y-134874000D02*
X150876000Y-132588000D01*
X158115000Y-132588000D02*
X153162000Y-132588000D01*
X170815000Y-109728000D02*
X170815000Y-112268000D01*
X170815000Y-112268000D02*
X170815000Y-114808000D01*
X170815000Y-114808000D02*
X170815000Y-117348000D01*
X170815000Y-117348000D02*
X170815000Y-119888000D01*
X170815000Y-119888000D02*
X170815000Y-122428000D01*
X170815000Y-122428000D02*
X170815000Y-124968000D01*
X170815000Y-124968000D02*
X170815000Y-127508000D01*
X170815000Y-127508000D02*
X170815000Y-130048000D01*
X170815000Y-130048000D02*
X170815000Y-132588000D01*
X165862000Y-109728000D02*
X165862000Y-112268000D01*
X165862000Y-112268000D02*
X165862000Y-114808000D01*
X165862000Y-114808000D02*
X165862000Y-117348000D01*
X165862000Y-117348000D02*
X165862000Y-119888000D01*
X165862000Y-119888000D02*
X165862000Y-122428000D01*
X165862000Y-122428000D02*
X165862000Y-124968000D01*
X165862000Y-124968000D02*
X165862000Y-127508000D01*
X165862000Y-127508000D02*
X165862000Y-130048000D01*
X165862000Y-132588000D02*
X165862000Y-130048000D01*
D12*
G36*
X173840000Y-140820000D02*
X124102000Y-140820000D01*
X124102000Y-137968320D01*
X127229622Y-137968320D01*
X127561264Y-138770954D01*
X128174816Y-139385578D01*
X128976870Y-139718620D01*
X129845320Y-139719378D01*
X130647954Y-139387736D01*
X131262578Y-138774184D01*
X131595620Y-137972130D01*
X131595734Y-137841320D01*
X166370622Y-137841320D01*
X166702264Y-138643954D01*
X167315816Y-139258578D01*
X168117870Y-139591620D01*
X168986320Y-139592378D01*
X169788954Y-139260736D01*
X170403578Y-138647184D01*
X170736620Y-137845130D01*
X170737378Y-136976680D01*
X170405736Y-136174046D01*
X169792184Y-135559422D01*
X168990130Y-135226380D01*
X168121680Y-135225622D01*
X167319046Y-135557264D01*
X166704422Y-136170816D01*
X166371380Y-136972870D01*
X166370622Y-137841320D01*
X131595734Y-137841320D01*
X131596378Y-137103680D01*
X131264736Y-136301046D01*
X130775841Y-135811296D01*
X136221848Y-135811296D01*
X136349692Y-135944225D01*
X136801596Y-136075649D01*
X137269394Y-136024133D01*
X137462308Y-135944225D01*
X137590152Y-135811296D01*
X136906000Y-135127144D01*
X136221848Y-135811296D01*
X130775841Y-135811296D01*
X130651184Y-135686422D01*
X129849130Y-135353380D01*
X128980680Y-135352622D01*
X128178046Y-135684264D01*
X127563422Y-136297816D01*
X127230380Y-137099870D01*
X127229622Y-137968320D01*
X124102000Y-137968320D01*
X124102000Y-134769596D01*
X135704351Y-134769596D01*
X135755867Y-135237394D01*
X135835775Y-135430308D01*
X135968704Y-135558152D01*
X136652856Y-134874000D01*
X137159144Y-134874000D01*
X137843296Y-135558152D01*
X137976225Y-135430308D01*
X138107649Y-134978404D01*
X138056133Y-134510606D01*
X137976225Y-134317692D01*
X137843296Y-134189848D01*
X137159144Y-134874000D01*
X136652856Y-134874000D01*
X135968704Y-134189848D01*
X135835775Y-134317692D01*
X135704351Y-134769596D01*
X124102000Y-134769596D01*
X124102000Y-133936704D01*
X136221848Y-133936704D01*
X136906000Y-134620856D01*
X137590152Y-133936704D01*
X137462308Y-133803775D01*
X137010404Y-133672351D01*
X136542606Y-133723867D01*
X136349692Y-133803775D01*
X136221848Y-133936704D01*
X124102000Y-133936704D01*
X124102000Y-133525296D01*
X126569848Y-133525296D01*
X126697692Y-133658225D01*
X127149596Y-133789649D01*
X127617394Y-133738133D01*
X127810308Y-133658225D01*
X127938152Y-133525296D01*
X131649848Y-133525296D01*
X131777692Y-133658225D01*
X132229596Y-133789649D01*
X132697394Y-133738133D01*
X132890308Y-133658225D01*
X133018152Y-133525296D01*
X132334000Y-132841144D01*
X131649848Y-133525296D01*
X127938152Y-133525296D01*
X127254000Y-132841144D01*
X126569848Y-133525296D01*
X124102000Y-133525296D01*
X124102000Y-132483596D01*
X126052351Y-132483596D01*
X126103867Y-132951394D01*
X126183775Y-133144308D01*
X126316704Y-133272152D01*
X127000856Y-132588000D01*
X127507144Y-132588000D01*
X128191296Y-133272152D01*
X128324225Y-133144308D01*
X128455649Y-132692404D01*
X128432655Y-132483596D01*
X131132351Y-132483596D01*
X131183867Y-132951394D01*
X131263775Y-133144308D01*
X131396704Y-133272152D01*
X132080856Y-132588000D01*
X132587144Y-132588000D01*
X133271296Y-133272152D01*
X133404225Y-133144308D01*
X133515031Y-132763296D01*
X136221848Y-132763296D01*
X136349692Y-132896225D01*
X136801596Y-133027649D01*
X137269394Y-132976133D01*
X137462308Y-132896225D01*
X137590152Y-132763296D01*
X136906000Y-132079144D01*
X136221848Y-132763296D01*
X133515031Y-132763296D01*
X133535649Y-132692404D01*
X133484133Y-132224606D01*
X133404225Y-132031692D01*
X133271296Y-131903848D01*
X132587144Y-132588000D01*
X132080856Y-132588000D01*
X131396704Y-131903848D01*
X131263775Y-132031692D01*
X131132351Y-132483596D01*
X128432655Y-132483596D01*
X128404133Y-132224606D01*
X128324225Y-132031692D01*
X128191296Y-131903848D01*
X127507144Y-132588000D01*
X127000856Y-132588000D01*
X126316704Y-131903848D01*
X126183775Y-132031692D01*
X126052351Y-132483596D01*
X124102000Y-132483596D01*
X124102000Y-131650704D01*
X126569848Y-131650704D01*
X127254000Y-132334856D01*
X127938152Y-131650704D01*
X131649848Y-131650704D01*
X132334000Y-132334856D01*
X132947260Y-131721596D01*
X135704351Y-131721596D01*
X135755867Y-132189394D01*
X135835775Y-132382308D01*
X135968704Y-132510152D01*
X136652856Y-131826000D01*
X137159144Y-131826000D01*
X137843296Y-132510152D01*
X137976225Y-132382308D01*
X138107649Y-131930404D01*
X138056133Y-131462606D01*
X137976225Y-131269692D01*
X137843296Y-131141848D01*
X137159144Y-131826000D01*
X136652856Y-131826000D01*
X135968704Y-131141848D01*
X135835775Y-131269692D01*
X135704351Y-131721596D01*
X132947260Y-131721596D01*
X133018152Y-131650704D01*
X132890308Y-131517775D01*
X132438404Y-131386351D01*
X131970606Y-131437867D01*
X131777692Y-131517775D01*
X131649848Y-131650704D01*
X127938152Y-131650704D01*
X127810308Y-131517775D01*
X127358404Y-131386351D01*
X126890606Y-131437867D01*
X126697692Y-131517775D01*
X126569848Y-131650704D01*
X124102000Y-131650704D01*
X124102000Y-130985296D01*
X126569848Y-130985296D01*
X126697692Y-131118225D01*
X127149596Y-131249649D01*
X127617394Y-131198133D01*
X127810308Y-131118225D01*
X127938152Y-130985296D01*
X131649848Y-130985296D01*
X131777692Y-131118225D01*
X132229596Y-131249649D01*
X132697394Y-131198133D01*
X132890308Y-131118225D01*
X133018152Y-130985296D01*
X132921560Y-130888704D01*
X136221848Y-130888704D01*
X136906000Y-131572856D01*
X137590152Y-130888704D01*
X137462308Y-130755775D01*
X137010404Y-130624351D01*
X136542606Y-130675867D01*
X136349692Y-130755775D01*
X136221848Y-130888704D01*
X132921560Y-130888704D01*
X132334000Y-130301144D01*
X131649848Y-130985296D01*
X127938152Y-130985296D01*
X127254000Y-130301144D01*
X126569848Y-130985296D01*
X124102000Y-130985296D01*
X124102000Y-129943596D01*
X126052351Y-129943596D01*
X126103867Y-130411394D01*
X126183775Y-130604308D01*
X126316704Y-130732152D01*
X127000856Y-130048000D01*
X127507144Y-130048000D01*
X128191296Y-130732152D01*
X128324225Y-130604308D01*
X128455649Y-130152404D01*
X128432655Y-129943596D01*
X131132351Y-129943596D01*
X131183867Y-130411394D01*
X131263775Y-130604308D01*
X131396704Y-130732152D01*
X132080856Y-130048000D01*
X132587144Y-130048000D01*
X133271296Y-130732152D01*
X133404225Y-130604308D01*
X133535649Y-130152404D01*
X133487513Y-129715296D01*
X136221848Y-129715296D01*
X136349692Y-129848225D01*
X136801596Y-129979649D01*
X137269394Y-129928133D01*
X137462308Y-129848225D01*
X137590152Y-129715296D01*
X136906000Y-129031144D01*
X136221848Y-129715296D01*
X133487513Y-129715296D01*
X133484133Y-129684606D01*
X133404225Y-129491692D01*
X133271296Y-129363848D01*
X132587144Y-130048000D01*
X132080856Y-130048000D01*
X131396704Y-129363848D01*
X131263775Y-129491692D01*
X131132351Y-129943596D01*
X128432655Y-129943596D01*
X128404133Y-129684606D01*
X128324225Y-129491692D01*
X128191296Y-129363848D01*
X127507144Y-130048000D01*
X127000856Y-130048000D01*
X126316704Y-129363848D01*
X126183775Y-129491692D01*
X126052351Y-129943596D01*
X124102000Y-129943596D01*
X124102000Y-129110704D01*
X126569848Y-129110704D01*
X127254000Y-129794856D01*
X127938152Y-129110704D01*
X131649848Y-129110704D01*
X132334000Y-129794856D01*
X133018152Y-129110704D01*
X132890308Y-128977775D01*
X132438404Y-128846351D01*
X131970606Y-128897867D01*
X131777692Y-128977775D01*
X131649848Y-129110704D01*
X127938152Y-129110704D01*
X127810308Y-128977775D01*
X127358404Y-128846351D01*
X126890606Y-128897867D01*
X126697692Y-128977775D01*
X126569848Y-129110704D01*
X124102000Y-129110704D01*
X124102000Y-128445296D01*
X126569848Y-128445296D01*
X126697692Y-128578225D01*
X127149596Y-128709649D01*
X127617394Y-128658133D01*
X127810308Y-128578225D01*
X127938152Y-128445296D01*
X131649848Y-128445296D01*
X131777692Y-128578225D01*
X132229596Y-128709649D01*
X132556980Y-128673596D01*
X135704351Y-128673596D01*
X135755867Y-129141394D01*
X135835775Y-129334308D01*
X135968704Y-129462152D01*
X136652856Y-128778000D01*
X137159144Y-128778000D01*
X137843296Y-129462152D01*
X137976225Y-129334308D01*
X138107649Y-128882404D01*
X138056133Y-128414606D01*
X137976225Y-128221692D01*
X137843296Y-128093848D01*
X137159144Y-128778000D01*
X136652856Y-128778000D01*
X135968704Y-128093848D01*
X135835775Y-128221692D01*
X135704351Y-128673596D01*
X132556980Y-128673596D01*
X132697394Y-128658133D01*
X132890308Y-128578225D01*
X133018152Y-128445296D01*
X132334000Y-127761144D01*
X131649848Y-128445296D01*
X127938152Y-128445296D01*
X127254000Y-127761144D01*
X126569848Y-128445296D01*
X124102000Y-128445296D01*
X124102000Y-127403596D01*
X126052351Y-127403596D01*
X126103867Y-127871394D01*
X126183775Y-128064308D01*
X126316704Y-128192152D01*
X127000856Y-127508000D01*
X127507144Y-127508000D01*
X128191296Y-128192152D01*
X128324225Y-128064308D01*
X128455649Y-127612404D01*
X128432655Y-127403596D01*
X131132351Y-127403596D01*
X131183867Y-127871394D01*
X131263775Y-128064308D01*
X131396704Y-128192152D01*
X132080856Y-127508000D01*
X132587144Y-127508000D01*
X133271296Y-128192152D01*
X133404225Y-128064308D01*
X133469254Y-127840704D01*
X136221848Y-127840704D01*
X136906000Y-128524856D01*
X137590152Y-127840704D01*
X137462308Y-127707775D01*
X137010404Y-127576351D01*
X136542606Y-127627867D01*
X136349692Y-127707775D01*
X136221848Y-127840704D01*
X133469254Y-127840704D01*
X133535649Y-127612404D01*
X133484133Y-127144606D01*
X133404225Y-126951692D01*
X133271296Y-126823848D01*
X132587144Y-127508000D01*
X132080856Y-127508000D01*
X131396704Y-126823848D01*
X131263775Y-126951692D01*
X131132351Y-127403596D01*
X128432655Y-127403596D01*
X128404133Y-127144606D01*
X128324225Y-126951692D01*
X128191296Y-126823848D01*
X127507144Y-127508000D01*
X127000856Y-127508000D01*
X126316704Y-126823848D01*
X126183775Y-126951692D01*
X126052351Y-127403596D01*
X124102000Y-127403596D01*
X124102000Y-126570704D01*
X126569848Y-126570704D01*
X127254000Y-127254856D01*
X127938152Y-126570704D01*
X131649848Y-126570704D01*
X132334000Y-127254856D01*
X132921560Y-126667296D01*
X136221848Y-126667296D01*
X136349692Y-126800225D01*
X136801596Y-126931649D01*
X137269394Y-126880133D01*
X137462308Y-126800225D01*
X137590152Y-126667296D01*
X136906000Y-125983144D01*
X136221848Y-126667296D01*
X132921560Y-126667296D01*
X133018152Y-126570704D01*
X132890308Y-126437775D01*
X132438404Y-126306351D01*
X131970606Y-126357867D01*
X131777692Y-126437775D01*
X131649848Y-126570704D01*
X127938152Y-126570704D01*
X127810308Y-126437775D01*
X127358404Y-126306351D01*
X126890606Y-126357867D01*
X126697692Y-126437775D01*
X126569848Y-126570704D01*
X124102000Y-126570704D01*
X124102000Y-125905296D01*
X126569848Y-125905296D01*
X126697692Y-126038225D01*
X127149596Y-126169649D01*
X127617394Y-126118133D01*
X127810308Y-126038225D01*
X127938152Y-125905296D01*
X131649848Y-125905296D01*
X131777692Y-126038225D01*
X132229596Y-126169649D01*
X132697394Y-126118133D01*
X132890308Y-126038225D01*
X133018152Y-125905296D01*
X132334000Y-125221144D01*
X131649848Y-125905296D01*
X127938152Y-125905296D01*
X127254000Y-125221144D01*
X126569848Y-125905296D01*
X124102000Y-125905296D01*
X124102000Y-124863596D01*
X126052351Y-124863596D01*
X126103867Y-125331394D01*
X126183775Y-125524308D01*
X126316704Y-125652152D01*
X127000856Y-124968000D01*
X127507144Y-124968000D01*
X128191296Y-125652152D01*
X128324225Y-125524308D01*
X128455649Y-125072404D01*
X128432655Y-124863596D01*
X131132351Y-124863596D01*
X131183867Y-125331394D01*
X131263775Y-125524308D01*
X131396704Y-125652152D01*
X132080856Y-124968000D01*
X132587144Y-124968000D01*
X133271296Y-125652152D01*
X133298908Y-125625596D01*
X135704351Y-125625596D01*
X135755867Y-126093394D01*
X135835775Y-126286308D01*
X135968704Y-126414152D01*
X136652856Y-125730000D01*
X137159144Y-125730000D01*
X137843296Y-126414152D01*
X137976225Y-126286308D01*
X138107649Y-125834404D01*
X138056133Y-125366606D01*
X137976225Y-125173692D01*
X137843296Y-125045848D01*
X137159144Y-125730000D01*
X136652856Y-125730000D01*
X135968704Y-125045848D01*
X135835775Y-125173692D01*
X135704351Y-125625596D01*
X133298908Y-125625596D01*
X133404225Y-125524308D01*
X133535649Y-125072404D01*
X133504848Y-124792704D01*
X136221848Y-124792704D01*
X136906000Y-125476856D01*
X137590152Y-124792704D01*
X137462308Y-124659775D01*
X137010404Y-124528351D01*
X136542606Y-124579867D01*
X136349692Y-124659775D01*
X136221848Y-124792704D01*
X133504848Y-124792704D01*
X133484133Y-124604606D01*
X133404225Y-124411692D01*
X133271296Y-124283848D01*
X132587144Y-124968000D01*
X132080856Y-124968000D01*
X131396704Y-124283848D01*
X131263775Y-124411692D01*
X131132351Y-124863596D01*
X128432655Y-124863596D01*
X128404133Y-124604606D01*
X128324225Y-124411692D01*
X128191296Y-124283848D01*
X127507144Y-124968000D01*
X127000856Y-124968000D01*
X126316704Y-124283848D01*
X126183775Y-124411692D01*
X126052351Y-124863596D01*
X124102000Y-124863596D01*
X124102000Y-124030704D01*
X126569848Y-124030704D01*
X127254000Y-124714856D01*
X127938152Y-124030704D01*
X131649848Y-124030704D01*
X132334000Y-124714856D01*
X133018152Y-124030704D01*
X132890308Y-123897775D01*
X132438404Y-123766351D01*
X131970606Y-123817867D01*
X131777692Y-123897775D01*
X131649848Y-124030704D01*
X127938152Y-124030704D01*
X127810308Y-123897775D01*
X127358404Y-123766351D01*
X126890606Y-123817867D01*
X126697692Y-123897775D01*
X126569848Y-124030704D01*
X124102000Y-124030704D01*
X124102000Y-123365296D01*
X126569848Y-123365296D01*
X126697692Y-123498225D01*
X127149596Y-123629649D01*
X127617394Y-123578133D01*
X127810308Y-123498225D01*
X127938152Y-123365296D01*
X131649848Y-123365296D01*
X131777692Y-123498225D01*
X132229596Y-123629649D01*
X132323607Y-123619296D01*
X136221848Y-123619296D01*
X136349692Y-123752225D01*
X136801596Y-123883649D01*
X137269394Y-123832133D01*
X137462308Y-123752225D01*
X137590152Y-123619296D01*
X136906000Y-122935144D01*
X136221848Y-123619296D01*
X132323607Y-123619296D01*
X132697394Y-123578133D01*
X132890308Y-123498225D01*
X133018152Y-123365296D01*
X132334000Y-122681144D01*
X131649848Y-123365296D01*
X127938152Y-123365296D01*
X127254000Y-122681144D01*
X126569848Y-123365296D01*
X124102000Y-123365296D01*
X124102000Y-122323596D01*
X126052351Y-122323596D01*
X126103867Y-122791394D01*
X126183775Y-122984308D01*
X126316704Y-123112152D01*
X127000856Y-122428000D01*
X127507144Y-122428000D01*
X128191296Y-123112152D01*
X128324225Y-122984308D01*
X128455649Y-122532404D01*
X128432655Y-122323596D01*
X131132351Y-122323596D01*
X131183867Y-122791394D01*
X131263775Y-122984308D01*
X131396704Y-123112152D01*
X132080856Y-122428000D01*
X132587144Y-122428000D01*
X133271296Y-123112152D01*
X133404225Y-122984308D01*
X133522506Y-122577596D01*
X135704351Y-122577596D01*
X135755867Y-123045394D01*
X135835775Y-123238308D01*
X135968704Y-123366152D01*
X136652856Y-122682000D01*
X137159144Y-122682000D01*
X137843296Y-123366152D01*
X137976225Y-123238308D01*
X138107649Y-122786404D01*
X138056133Y-122318606D01*
X137976225Y-122125692D01*
X137843296Y-121997848D01*
X137159144Y-122682000D01*
X136652856Y-122682000D01*
X135968704Y-121997848D01*
X135835775Y-122125692D01*
X135704351Y-122577596D01*
X133522506Y-122577596D01*
X133535649Y-122532404D01*
X133484133Y-122064606D01*
X133404225Y-121871692D01*
X133272187Y-121744704D01*
X136221848Y-121744704D01*
X136906000Y-122428856D01*
X137590152Y-121744704D01*
X137462308Y-121611775D01*
X137010404Y-121480351D01*
X136542606Y-121531867D01*
X136349692Y-121611775D01*
X136221848Y-121744704D01*
X133272187Y-121744704D01*
X133271296Y-121743848D01*
X132587144Y-122428000D01*
X132080856Y-122428000D01*
X131396704Y-121743848D01*
X131263775Y-121871692D01*
X131132351Y-122323596D01*
X128432655Y-122323596D01*
X128404133Y-122064606D01*
X128324225Y-121871692D01*
X128191296Y-121743848D01*
X127507144Y-122428000D01*
X127000856Y-122428000D01*
X126316704Y-121743848D01*
X126183775Y-121871692D01*
X126052351Y-122323596D01*
X124102000Y-122323596D01*
X124102000Y-121490704D01*
X126569848Y-121490704D01*
X127254000Y-122174856D01*
X127938152Y-121490704D01*
X131649848Y-121490704D01*
X132334000Y-122174856D01*
X133018152Y-121490704D01*
X132890308Y-121357775D01*
X132438404Y-121226351D01*
X131970606Y-121277867D01*
X131777692Y-121357775D01*
X131649848Y-121490704D01*
X127938152Y-121490704D01*
X127810308Y-121357775D01*
X127358404Y-121226351D01*
X126890606Y-121277867D01*
X126697692Y-121357775D01*
X126569848Y-121490704D01*
X124102000Y-121490704D01*
X124102000Y-120825296D01*
X126569848Y-120825296D01*
X126697692Y-120958225D01*
X127149596Y-121089649D01*
X127617394Y-121038133D01*
X127810308Y-120958225D01*
X127938152Y-120825296D01*
X131649848Y-120825296D01*
X131777692Y-120958225D01*
X132229596Y-121089649D01*
X132697394Y-121038133D01*
X132890308Y-120958225D01*
X133018152Y-120825296D01*
X132334000Y-120141144D01*
X131649848Y-120825296D01*
X127938152Y-120825296D01*
X127254000Y-120141144D01*
X126569848Y-120825296D01*
X124102000Y-120825296D01*
X124102000Y-119783596D01*
X126052351Y-119783596D01*
X126103867Y-120251394D01*
X126183775Y-120444308D01*
X126316704Y-120572152D01*
X127000856Y-119888000D01*
X127507144Y-119888000D01*
X128191296Y-120572152D01*
X128324225Y-120444308D01*
X128455649Y-119992404D01*
X128432655Y-119783596D01*
X131132351Y-119783596D01*
X131183867Y-120251394D01*
X131263775Y-120444308D01*
X131396704Y-120572152D01*
X132080856Y-119888000D01*
X132587144Y-119888000D01*
X133271296Y-120572152D01*
X133272186Y-120571296D01*
X136221848Y-120571296D01*
X136349692Y-120704225D01*
X136801596Y-120835649D01*
X137269394Y-120784133D01*
X137462308Y-120704225D01*
X137590152Y-120571296D01*
X136906000Y-119887144D01*
X136221848Y-120571296D01*
X133272186Y-120571296D01*
X133404225Y-120444308D01*
X133535649Y-119992404D01*
X133484683Y-119529596D01*
X135704351Y-119529596D01*
X135755867Y-119997394D01*
X135835775Y-120190308D01*
X135968704Y-120318152D01*
X136652856Y-119634000D01*
X137159144Y-119634000D01*
X137843296Y-120318152D01*
X137976225Y-120190308D01*
X138107649Y-119738404D01*
X138056133Y-119270606D01*
X137976225Y-119077692D01*
X137843296Y-118949848D01*
X137159144Y-119634000D01*
X136652856Y-119634000D01*
X135968704Y-118949848D01*
X135835775Y-119077692D01*
X135704351Y-119529596D01*
X133484683Y-119529596D01*
X133484133Y-119524606D01*
X133404225Y-119331692D01*
X133271296Y-119203848D01*
X132587144Y-119888000D01*
X132080856Y-119888000D01*
X131396704Y-119203848D01*
X131263775Y-119331692D01*
X131132351Y-119783596D01*
X128432655Y-119783596D01*
X128404133Y-119524606D01*
X128324225Y-119331692D01*
X128191296Y-119203848D01*
X127507144Y-119888000D01*
X127000856Y-119888000D01*
X126316704Y-119203848D01*
X126183775Y-119331692D01*
X126052351Y-119783596D01*
X124102000Y-119783596D01*
X124102000Y-118950704D01*
X126569848Y-118950704D01*
X127254000Y-119634856D01*
X127938152Y-118950704D01*
X131649848Y-118950704D01*
X132334000Y-119634856D01*
X133018152Y-118950704D01*
X132890308Y-118817775D01*
X132474003Y-118696704D01*
X136221848Y-118696704D01*
X136906000Y-119380856D01*
X137590152Y-118696704D01*
X137462308Y-118563775D01*
X137010404Y-118432351D01*
X136542606Y-118483867D01*
X136349692Y-118563775D01*
X136221848Y-118696704D01*
X132474003Y-118696704D01*
X132438404Y-118686351D01*
X131970606Y-118737867D01*
X131777692Y-118817775D01*
X131649848Y-118950704D01*
X127938152Y-118950704D01*
X127810308Y-118817775D01*
X127358404Y-118686351D01*
X126890606Y-118737867D01*
X126697692Y-118817775D01*
X126569848Y-118950704D01*
X124102000Y-118950704D01*
X124102000Y-118285296D01*
X126569848Y-118285296D01*
X126697692Y-118418225D01*
X127149596Y-118549649D01*
X127617394Y-118498133D01*
X127810308Y-118418225D01*
X127938152Y-118285296D01*
X131649848Y-118285296D01*
X131777692Y-118418225D01*
X132229596Y-118549649D01*
X132697394Y-118498133D01*
X132890308Y-118418225D01*
X133018152Y-118285296D01*
X132334000Y-117601144D01*
X131649848Y-118285296D01*
X127938152Y-118285296D01*
X127254000Y-117601144D01*
X126569848Y-118285296D01*
X124102000Y-118285296D01*
X124102000Y-117243596D01*
X126052351Y-117243596D01*
X126103867Y-117711394D01*
X126183775Y-117904308D01*
X126316704Y-118032152D01*
X127000856Y-117348000D01*
X127507144Y-117348000D01*
X128191296Y-118032152D01*
X128324225Y-117904308D01*
X128455649Y-117452404D01*
X128432655Y-117243596D01*
X131132351Y-117243596D01*
X131183867Y-117711394D01*
X131263775Y-117904308D01*
X131396704Y-118032152D01*
X132080856Y-117348000D01*
X132587144Y-117348000D01*
X133271296Y-118032152D01*
X133404225Y-117904308D01*
X133515031Y-117523296D01*
X136221848Y-117523296D01*
X136349692Y-117656225D01*
X136801596Y-117787649D01*
X137269394Y-117736133D01*
X137462308Y-117656225D01*
X137590152Y-117523296D01*
X136906000Y-116839144D01*
X136221848Y-117523296D01*
X133515031Y-117523296D01*
X133535649Y-117452404D01*
X133484133Y-116984606D01*
X133404225Y-116791692D01*
X133271296Y-116663848D01*
X132587144Y-117348000D01*
X132080856Y-117348000D01*
X131396704Y-116663848D01*
X131263775Y-116791692D01*
X131132351Y-117243596D01*
X128432655Y-117243596D01*
X128404133Y-116984606D01*
X128324225Y-116791692D01*
X128191296Y-116663848D01*
X127507144Y-117348000D01*
X127000856Y-117348000D01*
X126316704Y-116663848D01*
X126183775Y-116791692D01*
X126052351Y-117243596D01*
X124102000Y-117243596D01*
X124102000Y-116410704D01*
X126569848Y-116410704D01*
X127254000Y-117094856D01*
X127938152Y-116410704D01*
X131649848Y-116410704D01*
X132334000Y-117094856D01*
X132947260Y-116481596D01*
X135704351Y-116481596D01*
X135755867Y-116949394D01*
X135835775Y-117142308D01*
X135968704Y-117270152D01*
X136652856Y-116586000D01*
X137159144Y-116586000D01*
X137843296Y-117270152D01*
X137976225Y-117142308D01*
X138107649Y-116690404D01*
X138056133Y-116222606D01*
X137976225Y-116029692D01*
X137843296Y-115901848D01*
X137159144Y-116586000D01*
X136652856Y-116586000D01*
X135968704Y-115901848D01*
X135835775Y-116029692D01*
X135704351Y-116481596D01*
X132947260Y-116481596D01*
X133018152Y-116410704D01*
X132890308Y-116277775D01*
X132438404Y-116146351D01*
X131970606Y-116197867D01*
X131777692Y-116277775D01*
X131649848Y-116410704D01*
X127938152Y-116410704D01*
X127810308Y-116277775D01*
X127358404Y-116146351D01*
X126890606Y-116197867D01*
X126697692Y-116277775D01*
X126569848Y-116410704D01*
X124102000Y-116410704D01*
X124102000Y-115745296D01*
X126569848Y-115745296D01*
X126697692Y-115878225D01*
X127149596Y-116009649D01*
X127617394Y-115958133D01*
X127810308Y-115878225D01*
X127938152Y-115745296D01*
X131649848Y-115745296D01*
X131777692Y-115878225D01*
X132229596Y-116009649D01*
X132697394Y-115958133D01*
X132890308Y-115878225D01*
X133018152Y-115745296D01*
X132921560Y-115648704D01*
X136221848Y-115648704D01*
X136906000Y-116332856D01*
X137590152Y-115648704D01*
X137462308Y-115515775D01*
X137010404Y-115384351D01*
X136542606Y-115435867D01*
X136349692Y-115515775D01*
X136221848Y-115648704D01*
X132921560Y-115648704D01*
X132334000Y-115061144D01*
X131649848Y-115745296D01*
X127938152Y-115745296D01*
X127254000Y-115061144D01*
X126569848Y-115745296D01*
X124102000Y-115745296D01*
X124102000Y-114703596D01*
X126052351Y-114703596D01*
X126103867Y-115171394D01*
X126183775Y-115364308D01*
X126316704Y-115492152D01*
X127000856Y-114808000D01*
X127507144Y-114808000D01*
X128191296Y-115492152D01*
X128324225Y-115364308D01*
X128455649Y-114912404D01*
X128432655Y-114703596D01*
X131132351Y-114703596D01*
X131183867Y-115171394D01*
X131263775Y-115364308D01*
X131396704Y-115492152D01*
X132080856Y-114808000D01*
X132587144Y-114808000D01*
X133271296Y-115492152D01*
X133404225Y-115364308D01*
X133535649Y-114912404D01*
X133487513Y-114475296D01*
X136221848Y-114475296D01*
X136349692Y-114608225D01*
X136801596Y-114739649D01*
X137269394Y-114688133D01*
X137462308Y-114608225D01*
X137590152Y-114475296D01*
X136906000Y-113791144D01*
X136221848Y-114475296D01*
X133487513Y-114475296D01*
X133484133Y-114444606D01*
X133404225Y-114251692D01*
X133271296Y-114123848D01*
X132587144Y-114808000D01*
X132080856Y-114808000D01*
X131396704Y-114123848D01*
X131263775Y-114251692D01*
X131132351Y-114703596D01*
X128432655Y-114703596D01*
X128404133Y-114444606D01*
X128324225Y-114251692D01*
X128191296Y-114123848D01*
X127507144Y-114808000D01*
X127000856Y-114808000D01*
X126316704Y-114123848D01*
X126183775Y-114251692D01*
X126052351Y-114703596D01*
X124102000Y-114703596D01*
X124102000Y-113870704D01*
X126569848Y-113870704D01*
X127254000Y-114554856D01*
X127938152Y-113870704D01*
X131649848Y-113870704D01*
X132334000Y-114554856D01*
X133018152Y-113870704D01*
X132890308Y-113737775D01*
X132438404Y-113606351D01*
X131970606Y-113657867D01*
X131777692Y-113737775D01*
X131649848Y-113870704D01*
X127938152Y-113870704D01*
X127810308Y-113737775D01*
X127358404Y-113606351D01*
X126890606Y-113657867D01*
X126697692Y-113737775D01*
X126569848Y-113870704D01*
X124102000Y-113870704D01*
X124102000Y-113205296D01*
X126569848Y-113205296D01*
X126697692Y-113338225D01*
X127149596Y-113469649D01*
X127617394Y-113418133D01*
X127810308Y-113338225D01*
X127938152Y-113205296D01*
X131649848Y-113205296D01*
X131777692Y-113338225D01*
X132229596Y-113469649D01*
X132556980Y-113433596D01*
X135704351Y-113433596D01*
X135755867Y-113901394D01*
X135835775Y-114094308D01*
X135968704Y-114222152D01*
X136652856Y-113538000D01*
X137159144Y-113538000D01*
X137843296Y-114222152D01*
X137976225Y-114094308D01*
X138107649Y-113642404D01*
X138056133Y-113174606D01*
X137976225Y-112981692D01*
X137843296Y-112853848D01*
X137159144Y-113538000D01*
X136652856Y-113538000D01*
X135968704Y-112853848D01*
X135835775Y-112981692D01*
X135704351Y-113433596D01*
X132556980Y-113433596D01*
X132697394Y-113418133D01*
X132890308Y-113338225D01*
X133018152Y-113205296D01*
X132334000Y-112521144D01*
X131649848Y-113205296D01*
X127938152Y-113205296D01*
X127254000Y-112521144D01*
X126569848Y-113205296D01*
X124102000Y-113205296D01*
X124102000Y-112163596D01*
X126052351Y-112163596D01*
X126103867Y-112631394D01*
X126183775Y-112824308D01*
X126316704Y-112952152D01*
X127000856Y-112268000D01*
X127507144Y-112268000D01*
X128191296Y-112952152D01*
X128324225Y-112824308D01*
X128455649Y-112372404D01*
X128432655Y-112163596D01*
X131132351Y-112163596D01*
X131183867Y-112631394D01*
X131263775Y-112824308D01*
X131396704Y-112952152D01*
X132080856Y-112268000D01*
X132587144Y-112268000D01*
X133271296Y-112952152D01*
X133404225Y-112824308D01*
X133469254Y-112600704D01*
X136221848Y-112600704D01*
X136906000Y-113284856D01*
X137590152Y-112600704D01*
X137462308Y-112467775D01*
X137010404Y-112336351D01*
X136542606Y-112387867D01*
X136349692Y-112467775D01*
X136221848Y-112600704D01*
X133469254Y-112600704D01*
X133535649Y-112372404D01*
X133484133Y-111904606D01*
X133404225Y-111711692D01*
X133271296Y-111583848D01*
X132587144Y-112268000D01*
X132080856Y-112268000D01*
X131396704Y-111583848D01*
X131263775Y-111711692D01*
X131132351Y-112163596D01*
X128432655Y-112163596D01*
X128404133Y-111904606D01*
X128324225Y-111711692D01*
X128191296Y-111583848D01*
X127507144Y-112268000D01*
X127000856Y-112268000D01*
X126316704Y-111583848D01*
X126183775Y-111711692D01*
X126052351Y-112163596D01*
X124102000Y-112163596D01*
X124102000Y-111330704D01*
X126569848Y-111330704D01*
X127254000Y-112014856D01*
X127938152Y-111330704D01*
X131649848Y-111330704D01*
X132334000Y-112014856D01*
X132921560Y-111427296D01*
X136221848Y-111427296D01*
X136349692Y-111560225D01*
X136801596Y-111691649D01*
X137269394Y-111640133D01*
X137462308Y-111560225D01*
X137590152Y-111427296D01*
X136906000Y-110743144D01*
X136221848Y-111427296D01*
X132921560Y-111427296D01*
X133018152Y-111330704D01*
X132890308Y-111197775D01*
X132438404Y-111066351D01*
X131970606Y-111117867D01*
X131777692Y-111197775D01*
X131649848Y-111330704D01*
X127938152Y-111330704D01*
X127810308Y-111197775D01*
X127358404Y-111066351D01*
X126890606Y-111117867D01*
X126697692Y-111197775D01*
X126569848Y-111330704D01*
X124102000Y-111330704D01*
X124102000Y-110665296D01*
X126569848Y-110665296D01*
X126697692Y-110798225D01*
X127149596Y-110929649D01*
X127617394Y-110878133D01*
X127810308Y-110798225D01*
X127938152Y-110665296D01*
X131649848Y-110665296D01*
X131777692Y-110798225D01*
X132229596Y-110929649D01*
X132697394Y-110878133D01*
X132890308Y-110798225D01*
X133018152Y-110665296D01*
X132334000Y-109981144D01*
X131649848Y-110665296D01*
X127938152Y-110665296D01*
X127254000Y-109981144D01*
X126569848Y-110665296D01*
X124102000Y-110665296D01*
X124102000Y-109623596D01*
X126052351Y-109623596D01*
X126103867Y-110091394D01*
X126183775Y-110284308D01*
X126316704Y-110412152D01*
X127000856Y-109728000D01*
X127507144Y-109728000D01*
X128191296Y-110412152D01*
X128324225Y-110284308D01*
X128455649Y-109832404D01*
X128432655Y-109623596D01*
X131132351Y-109623596D01*
X131183867Y-110091394D01*
X131263775Y-110284308D01*
X131396704Y-110412152D01*
X132080856Y-109728000D01*
X132587144Y-109728000D01*
X133271296Y-110412152D01*
X133298908Y-110385596D01*
X135704351Y-110385596D01*
X135755867Y-110853394D01*
X135835775Y-111046308D01*
X135968704Y-111174152D01*
X136652856Y-110490000D01*
X137159144Y-110490000D01*
X137843296Y-111174152D01*
X137976225Y-111046308D01*
X138107649Y-110594404D01*
X138056133Y-110126606D01*
X137976225Y-109933692D01*
X137843296Y-109805848D01*
X137159144Y-110490000D01*
X136652856Y-110490000D01*
X135968704Y-109805848D01*
X135835775Y-109933692D01*
X135704351Y-110385596D01*
X133298908Y-110385596D01*
X133404225Y-110284308D01*
X133535649Y-109832404D01*
X133504848Y-109552704D01*
X136221848Y-109552704D01*
X136906000Y-110236856D01*
X137590152Y-109552704D01*
X137462308Y-109419775D01*
X137010404Y-109288351D01*
X136542606Y-109339867D01*
X136349692Y-109419775D01*
X136221848Y-109552704D01*
X133504848Y-109552704D01*
X133484133Y-109364606D01*
X133404225Y-109171692D01*
X133271296Y-109043848D01*
X132587144Y-109728000D01*
X132080856Y-109728000D01*
X131396704Y-109043848D01*
X131263775Y-109171692D01*
X131132351Y-109623596D01*
X128432655Y-109623596D01*
X128404133Y-109364606D01*
X128324225Y-109171692D01*
X128191296Y-109043848D01*
X127507144Y-109728000D01*
X127000856Y-109728000D01*
X126316704Y-109043848D01*
X126183775Y-109171692D01*
X126052351Y-109623596D01*
X124102000Y-109623596D01*
X124102000Y-108790704D01*
X126569848Y-108790704D01*
X127254000Y-109474856D01*
X127938152Y-108790704D01*
X131649848Y-108790704D01*
X132334000Y-109474856D01*
X133018152Y-108790704D01*
X132890308Y-108657775D01*
X132438404Y-108526351D01*
X131970606Y-108577867D01*
X131777692Y-108657775D01*
X131649848Y-108790704D01*
X127938152Y-108790704D01*
X127810308Y-108657775D01*
X127358404Y-108526351D01*
X126890606Y-108577867D01*
X126697692Y-108657775D01*
X126569848Y-108790704D01*
X124102000Y-108790704D01*
X124102000Y-108379296D01*
X136221848Y-108379296D01*
X136349692Y-108512225D01*
X136801596Y-108643649D01*
X137269394Y-108592133D01*
X137462308Y-108512225D01*
X137590152Y-108379296D01*
X136906000Y-107695144D01*
X136221848Y-108379296D01*
X124102000Y-108379296D01*
X124102000Y-107337596D01*
X135704351Y-107337596D01*
X135755867Y-107805394D01*
X135835775Y-107998308D01*
X135968704Y-108126152D01*
X136652856Y-107442000D01*
X137159144Y-107442000D01*
X137843296Y-108126152D01*
X137976225Y-107998308D01*
X138046839Y-107755497D01*
X145482726Y-107755497D01*
X145723215Y-108337526D01*
X146168132Y-108783220D01*
X146608681Y-108966152D01*
X146170474Y-109147215D01*
X145724780Y-109592132D01*
X145483275Y-110173740D01*
X145482726Y-110803497D01*
X145723215Y-111385526D01*
X146168132Y-111831220D01*
X146608681Y-112014152D01*
X146170474Y-112195215D01*
X145724780Y-112640132D01*
X145483275Y-113221740D01*
X145482726Y-113851497D01*
X145723215Y-114433526D01*
X146168132Y-114879220D01*
X146608681Y-115062152D01*
X146170474Y-115243215D01*
X145724780Y-115688132D01*
X145483275Y-116269740D01*
X145482726Y-116899497D01*
X145723215Y-117481526D01*
X146168132Y-117927220D01*
X146608681Y-118110152D01*
X146170474Y-118291215D01*
X145724780Y-118736132D01*
X145483275Y-119317740D01*
X145482726Y-119947497D01*
X145723215Y-120529526D01*
X146168132Y-120975220D01*
X146608681Y-121158152D01*
X146170474Y-121339215D01*
X145724780Y-121784132D01*
X145483275Y-122365740D01*
X145482726Y-122995497D01*
X145723215Y-123577526D01*
X146168132Y-124023220D01*
X146608681Y-124206152D01*
X146170474Y-124387215D01*
X145724780Y-124832132D01*
X145483275Y-125413740D01*
X145482726Y-126043497D01*
X145723215Y-126625526D01*
X146168132Y-127071220D01*
X146608681Y-127254152D01*
X146170474Y-127435215D01*
X145724780Y-127880132D01*
X145483275Y-128461740D01*
X145482726Y-129091497D01*
X145723215Y-129673526D01*
X146168132Y-130119220D01*
X146608681Y-130302152D01*
X146170474Y-130483215D01*
X145724780Y-130928132D01*
X145483275Y-131509740D01*
X145482726Y-132139497D01*
X145723215Y-132721526D01*
X146168132Y-133167220D01*
X146608681Y-133350152D01*
X146170474Y-133531215D01*
X145724780Y-133976132D01*
X145483275Y-134557740D01*
X145482726Y-135187497D01*
X145723215Y-135769526D01*
X146168132Y-136215220D01*
X146749740Y-136456725D01*
X147379497Y-136457274D01*
X147961526Y-136216785D01*
X148271852Y-135907000D01*
X148590000Y-135907000D01*
X148985312Y-135828368D01*
X149320441Y-135604441D01*
X151303882Y-133621000D01*
X151956449Y-133621000D01*
X152264132Y-133929220D01*
X152845740Y-134170725D01*
X153475497Y-134171274D01*
X154057526Y-133930785D01*
X154367852Y-133621000D01*
X156909449Y-133621000D01*
X157217132Y-133929220D01*
X157798740Y-134170725D01*
X158428497Y-134171274D01*
X159010526Y-133930785D01*
X159456220Y-133485868D01*
X159697725Y-132904260D01*
X159698274Y-132274503D01*
X159457785Y-131692474D01*
X159083701Y-131317737D01*
X159456220Y-130945868D01*
X159697725Y-130364260D01*
X159698274Y-129734503D01*
X159457785Y-129152474D01*
X159083701Y-128777737D01*
X159456220Y-128405868D01*
X159697725Y-127824260D01*
X159698274Y-127194503D01*
X159457785Y-126612474D01*
X159083701Y-126237737D01*
X159456220Y-125865868D01*
X159697725Y-125284260D01*
X159698274Y-124654503D01*
X159457785Y-124072474D01*
X159083701Y-123697737D01*
X159456220Y-123325868D01*
X159697725Y-122744260D01*
X159698274Y-122114503D01*
X159457785Y-121532474D01*
X159083701Y-121157737D01*
X159456220Y-120785868D01*
X159697725Y-120204260D01*
X159698274Y-119574503D01*
X159457785Y-118992474D01*
X159083701Y-118617737D01*
X159456220Y-118245868D01*
X159697725Y-117664260D01*
X159698274Y-117034503D01*
X159457785Y-116452474D01*
X159083701Y-116077737D01*
X159456220Y-115705868D01*
X159697725Y-115124260D01*
X159698274Y-114494503D01*
X159457785Y-113912474D01*
X159083701Y-113537737D01*
X159456220Y-113165868D01*
X159697725Y-112584260D01*
X159698274Y-111954503D01*
X159457785Y-111372474D01*
X159083701Y-110997737D01*
X159456220Y-110625868D01*
X159697725Y-110044260D01*
X159697727Y-110041497D01*
X164278726Y-110041497D01*
X164519215Y-110623526D01*
X164829000Y-110933852D01*
X164829000Y-111062449D01*
X164520780Y-111370132D01*
X164279275Y-111951740D01*
X164278726Y-112581497D01*
X164519215Y-113163526D01*
X164829000Y-113473852D01*
X164829000Y-113602449D01*
X164520780Y-113910132D01*
X164279275Y-114491740D01*
X164278726Y-115121497D01*
X164519215Y-115703526D01*
X164829000Y-116013852D01*
X164829000Y-116142449D01*
X164520780Y-116450132D01*
X164279275Y-117031740D01*
X164278726Y-117661497D01*
X164519215Y-118243526D01*
X164829000Y-118553852D01*
X164829000Y-118682449D01*
X164520780Y-118990132D01*
X164279275Y-119571740D01*
X164278726Y-120201497D01*
X164519215Y-120783526D01*
X164829000Y-121093852D01*
X164829000Y-121222449D01*
X164520780Y-121530132D01*
X164279275Y-122111740D01*
X164278726Y-122741497D01*
X164519215Y-123323526D01*
X164829000Y-123633852D01*
X164829000Y-123762449D01*
X164520780Y-124070132D01*
X164279275Y-124651740D01*
X164278726Y-125281497D01*
X164519215Y-125863526D01*
X164829000Y-126173852D01*
X164829000Y-126302449D01*
X164520780Y-126610132D01*
X164279275Y-127191740D01*
X164278726Y-127821497D01*
X164519215Y-128403526D01*
X164829000Y-128713852D01*
X164829000Y-128842449D01*
X164520780Y-129150132D01*
X164279275Y-129731740D01*
X164278726Y-130361497D01*
X164519215Y-130943526D01*
X164829000Y-131253852D01*
X164829000Y-131382449D01*
X164520780Y-131690132D01*
X164279275Y-132271740D01*
X164278726Y-132901497D01*
X164519215Y-133483526D01*
X164964132Y-133929220D01*
X165545740Y-134170725D01*
X166175497Y-134171274D01*
X166757526Y-133930785D01*
X167203220Y-133485868D01*
X167444725Y-132904260D01*
X167445274Y-132274503D01*
X167204785Y-131692474D01*
X166895000Y-131382148D01*
X166895000Y-131253551D01*
X167203220Y-130945868D01*
X167444725Y-130364260D01*
X167445274Y-129734503D01*
X167204785Y-129152474D01*
X166895000Y-128842148D01*
X166895000Y-128713551D01*
X167203220Y-128405868D01*
X167444725Y-127824260D01*
X167445274Y-127194503D01*
X167204785Y-126612474D01*
X166895000Y-126302148D01*
X166895000Y-126173551D01*
X167203220Y-125865868D01*
X167444725Y-125284260D01*
X167445274Y-124654503D01*
X167204785Y-124072474D01*
X166895000Y-123762148D01*
X166895000Y-123633551D01*
X167203220Y-123325868D01*
X167444725Y-122744260D01*
X167445274Y-122114503D01*
X167204785Y-121532474D01*
X166895000Y-121222148D01*
X166895000Y-121093551D01*
X167203220Y-120785868D01*
X167444725Y-120204260D01*
X167445274Y-119574503D01*
X167204785Y-118992474D01*
X166895000Y-118682148D01*
X166895000Y-118553551D01*
X167203220Y-118245868D01*
X167444725Y-117664260D01*
X167445274Y-117034503D01*
X167204785Y-116452474D01*
X166895000Y-116142148D01*
X166895000Y-116013551D01*
X167203220Y-115705868D01*
X167444725Y-115124260D01*
X167445274Y-114494503D01*
X167204785Y-113912474D01*
X166895000Y-113602148D01*
X166895000Y-113473551D01*
X167203220Y-113165868D01*
X167444725Y-112584260D01*
X167445274Y-111954503D01*
X167204785Y-111372474D01*
X166895000Y-111062148D01*
X166895000Y-110933551D01*
X167203220Y-110625868D01*
X167444725Y-110044260D01*
X167444727Y-110041497D01*
X169231726Y-110041497D01*
X169472215Y-110623526D01*
X169782000Y-110933852D01*
X169782000Y-111062449D01*
X169473780Y-111370132D01*
X169232275Y-111951740D01*
X169231726Y-112581497D01*
X169472215Y-113163526D01*
X169782000Y-113473852D01*
X169782000Y-113602449D01*
X169473780Y-113910132D01*
X169232275Y-114491740D01*
X169231726Y-115121497D01*
X169472215Y-115703526D01*
X169782000Y-116013852D01*
X169782000Y-116142449D01*
X169473780Y-116450132D01*
X169232275Y-117031740D01*
X169231726Y-117661497D01*
X169472215Y-118243526D01*
X169782000Y-118553852D01*
X169782000Y-118682449D01*
X169473780Y-118990132D01*
X169232275Y-119571740D01*
X169231726Y-120201497D01*
X169472215Y-120783526D01*
X169782000Y-121093852D01*
X169782000Y-121222449D01*
X169473780Y-121530132D01*
X169232275Y-122111740D01*
X169231726Y-122741497D01*
X169472215Y-123323526D01*
X169782000Y-123633852D01*
X169782000Y-123762449D01*
X169473780Y-124070132D01*
X169232275Y-124651740D01*
X169231726Y-125281497D01*
X169472215Y-125863526D01*
X169782000Y-126173852D01*
X169782000Y-126302449D01*
X169473780Y-126610132D01*
X169232275Y-127191740D01*
X169231726Y-127821497D01*
X169472215Y-128403526D01*
X169782000Y-128713852D01*
X169782000Y-128842449D01*
X169473780Y-129150132D01*
X169232275Y-129731740D01*
X169231726Y-130361497D01*
X169472215Y-130943526D01*
X169782000Y-131253852D01*
X169782000Y-131382449D01*
X169473780Y-131690132D01*
X169232275Y-132271740D01*
X169231726Y-132901497D01*
X169472215Y-133483526D01*
X169917132Y-133929220D01*
X170498740Y-134170725D01*
X171128497Y-134171274D01*
X171710526Y-133930785D01*
X172156220Y-133485868D01*
X172397725Y-132904260D01*
X172398274Y-132274503D01*
X172157785Y-131692474D01*
X171848000Y-131382148D01*
X171848000Y-131253551D01*
X172156220Y-130945868D01*
X172397725Y-130364260D01*
X172398274Y-129734503D01*
X172157785Y-129152474D01*
X171848000Y-128842148D01*
X171848000Y-128713551D01*
X172156220Y-128405868D01*
X172397725Y-127824260D01*
X172398274Y-127194503D01*
X172157785Y-126612474D01*
X171848000Y-126302148D01*
X171848000Y-126173551D01*
X172156220Y-125865868D01*
X172397725Y-125284260D01*
X172398274Y-124654503D01*
X172157785Y-124072474D01*
X171848000Y-123762148D01*
X171848000Y-123633551D01*
X172156220Y-123325868D01*
X172397725Y-122744260D01*
X172398274Y-122114503D01*
X172157785Y-121532474D01*
X171848000Y-121222148D01*
X171848000Y-121093551D01*
X172156220Y-120785868D01*
X172397725Y-120204260D01*
X172398274Y-119574503D01*
X172157785Y-118992474D01*
X171848000Y-118682148D01*
X171848000Y-118553551D01*
X172156220Y-118245868D01*
X172397725Y-117664260D01*
X172398274Y-117034503D01*
X172157785Y-116452474D01*
X171848000Y-116142148D01*
X171848000Y-116013551D01*
X172156220Y-115705868D01*
X172397725Y-115124260D01*
X172398274Y-114494503D01*
X172157785Y-113912474D01*
X171848000Y-113602148D01*
X171848000Y-113473551D01*
X172156220Y-113165868D01*
X172397725Y-112584260D01*
X172398274Y-111954503D01*
X172157785Y-111372474D01*
X171848000Y-111062148D01*
X171848000Y-110933551D01*
X172156220Y-110625868D01*
X172397725Y-110044260D01*
X172398274Y-109414503D01*
X172157785Y-108832474D01*
X171712868Y-108386780D01*
X171131260Y-108145275D01*
X170501503Y-108144726D01*
X169919474Y-108385215D01*
X169473780Y-108830132D01*
X169232275Y-109411740D01*
X169231726Y-110041497D01*
X167444727Y-110041497D01*
X167445274Y-109414503D01*
X167204785Y-108832474D01*
X166759868Y-108386780D01*
X166178260Y-108145275D01*
X165548503Y-108144726D01*
X164966474Y-108385215D01*
X164520780Y-108830132D01*
X164279275Y-109411740D01*
X164278726Y-110041497D01*
X159697727Y-110041497D01*
X159698274Y-109414503D01*
X159457785Y-108832474D01*
X159012868Y-108386780D01*
X158431260Y-108145275D01*
X157801503Y-108144726D01*
X157219474Y-108385215D01*
X156909148Y-108695000D01*
X154367551Y-108695000D01*
X154059868Y-108386780D01*
X153478260Y-108145275D01*
X153039775Y-108144893D01*
X151606441Y-106711559D01*
X151271312Y-106487632D01*
X150876000Y-106409000D01*
X148271551Y-106409000D01*
X147963868Y-106100780D01*
X147382260Y-105859275D01*
X146752503Y-105858726D01*
X146170474Y-106099215D01*
X145724780Y-106544132D01*
X145483275Y-107125740D01*
X145482726Y-107755497D01*
X138046839Y-107755497D01*
X138107649Y-107546404D01*
X138056133Y-107078606D01*
X137976225Y-106885692D01*
X137843296Y-106757848D01*
X137159144Y-107442000D01*
X136652856Y-107442000D01*
X135968704Y-106757848D01*
X135835775Y-106885692D01*
X135704351Y-107337596D01*
X124102000Y-107337596D01*
X124102000Y-106504704D01*
X136221848Y-106504704D01*
X136906000Y-107188856D01*
X137590152Y-106504704D01*
X137462308Y-106371775D01*
X137010404Y-106240351D01*
X136542606Y-106291867D01*
X136349692Y-106371775D01*
X136221848Y-106504704D01*
X124102000Y-106504704D01*
X124102000Y-103048320D01*
X127229622Y-103048320D01*
X127561264Y-103850954D01*
X128174816Y-104465578D01*
X128976870Y-104798620D01*
X129845320Y-104799378D01*
X130647954Y-104467736D01*
X131262578Y-103854184D01*
X131595620Y-103052130D01*
X131596378Y-102183680D01*
X131264736Y-101381046D01*
X130651184Y-100766422D01*
X130614044Y-100751000D01*
X138523715Y-100751000D01*
X138523715Y-104467000D01*
X159418286Y-104467000D01*
X159418286Y-102921320D01*
X166303622Y-102921320D01*
X166635264Y-103723954D01*
X167248816Y-104338578D01*
X168050870Y-104671620D01*
X168919320Y-104672378D01*
X169721954Y-104340736D01*
X170336578Y-103727184D01*
X170669620Y-102925130D01*
X170670378Y-102056680D01*
X170338736Y-101254046D01*
X169725184Y-100639422D01*
X168923130Y-100306380D01*
X168054680Y-100305622D01*
X167252046Y-100637264D01*
X166637422Y-101250816D01*
X166304380Y-102052870D01*
X166303622Y-102921320D01*
X159418286Y-102921320D01*
X159418286Y-100751000D01*
X138523715Y-100751000D01*
X130614044Y-100751000D01*
X129849130Y-100433380D01*
X128980680Y-100432622D01*
X128178046Y-100764264D01*
X127563422Y-101377816D01*
X127230380Y-102179870D01*
X127229622Y-103048320D01*
X124102000Y-103048320D01*
X124102000Y-99210000D01*
X173840000Y-99210000D01*
X173840000Y-140820000D01*
X173840000Y-140820000D01*
G37*
X173840000Y-140820000D02*
X124102000Y-140820000D01*
X124102000Y-137968320D01*
X127229622Y-137968320D01*
X127561264Y-138770954D01*
X128174816Y-139385578D01*
X128976870Y-139718620D01*
X129845320Y-139719378D01*
X130647954Y-139387736D01*
X131262578Y-138774184D01*
X131595620Y-137972130D01*
X131595734Y-137841320D01*
X166370622Y-137841320D01*
X166702264Y-138643954D01*
X167315816Y-139258578D01*
X168117870Y-139591620D01*
X168986320Y-139592378D01*
X169788954Y-139260736D01*
X170403578Y-138647184D01*
X170736620Y-137845130D01*
X170737378Y-136976680D01*
X170405736Y-136174046D01*
X169792184Y-135559422D01*
X168990130Y-135226380D01*
X168121680Y-135225622D01*
X167319046Y-135557264D01*
X166704422Y-136170816D01*
X166371380Y-136972870D01*
X166370622Y-137841320D01*
X131595734Y-137841320D01*
X131596378Y-137103680D01*
X131264736Y-136301046D01*
X130775841Y-135811296D01*
X136221848Y-135811296D01*
X136349692Y-135944225D01*
X136801596Y-136075649D01*
X137269394Y-136024133D01*
X137462308Y-135944225D01*
X137590152Y-135811296D01*
X136906000Y-135127144D01*
X136221848Y-135811296D01*
X130775841Y-135811296D01*
X130651184Y-135686422D01*
X129849130Y-135353380D01*
X128980680Y-135352622D01*
X128178046Y-135684264D01*
X127563422Y-136297816D01*
X127230380Y-137099870D01*
X127229622Y-137968320D01*
X124102000Y-137968320D01*
X124102000Y-134769596D01*
X135704351Y-134769596D01*
X135755867Y-135237394D01*
X135835775Y-135430308D01*
X135968704Y-135558152D01*
X136652856Y-134874000D01*
X137159144Y-134874000D01*
X137843296Y-135558152D01*
X137976225Y-135430308D01*
X138107649Y-134978404D01*
X138056133Y-134510606D01*
X137976225Y-134317692D01*
X137843296Y-134189848D01*
X137159144Y-134874000D01*
X136652856Y-134874000D01*
X135968704Y-134189848D01*
X135835775Y-134317692D01*
X135704351Y-134769596D01*
X124102000Y-134769596D01*
X124102000Y-133936704D01*
X136221848Y-133936704D01*
X136906000Y-134620856D01*
X137590152Y-133936704D01*
X137462308Y-133803775D01*
X137010404Y-133672351D01*
X136542606Y-133723867D01*
X136349692Y-133803775D01*
X136221848Y-133936704D01*
X124102000Y-133936704D01*
X124102000Y-133525296D01*
X126569848Y-133525296D01*
X126697692Y-133658225D01*
X127149596Y-133789649D01*
X127617394Y-133738133D01*
X127810308Y-133658225D01*
X127938152Y-133525296D01*
X131649848Y-133525296D01*
X131777692Y-133658225D01*
X132229596Y-133789649D01*
X132697394Y-133738133D01*
X132890308Y-133658225D01*
X133018152Y-133525296D01*
X132334000Y-132841144D01*
X131649848Y-133525296D01*
X127938152Y-133525296D01*
X127254000Y-132841144D01*
X126569848Y-133525296D01*
X124102000Y-133525296D01*
X124102000Y-132483596D01*
X126052351Y-132483596D01*
X126103867Y-132951394D01*
X126183775Y-133144308D01*
X126316704Y-133272152D01*
X127000856Y-132588000D01*
X127507144Y-132588000D01*
X128191296Y-133272152D01*
X128324225Y-133144308D01*
X128455649Y-132692404D01*
X128432655Y-132483596D01*
X131132351Y-132483596D01*
X131183867Y-132951394D01*
X131263775Y-133144308D01*
X131396704Y-133272152D01*
X132080856Y-132588000D01*
X132587144Y-132588000D01*
X133271296Y-133272152D01*
X133404225Y-133144308D01*
X133515031Y-132763296D01*
X136221848Y-132763296D01*
X136349692Y-132896225D01*
X136801596Y-133027649D01*
X137269394Y-132976133D01*
X137462308Y-132896225D01*
X137590152Y-132763296D01*
X136906000Y-132079144D01*
X136221848Y-132763296D01*
X133515031Y-132763296D01*
X133535649Y-132692404D01*
X133484133Y-132224606D01*
X133404225Y-132031692D01*
X133271296Y-131903848D01*
X132587144Y-132588000D01*
X132080856Y-132588000D01*
X131396704Y-131903848D01*
X131263775Y-132031692D01*
X131132351Y-132483596D01*
X128432655Y-132483596D01*
X128404133Y-132224606D01*
X128324225Y-132031692D01*
X128191296Y-131903848D01*
X127507144Y-132588000D01*
X127000856Y-132588000D01*
X126316704Y-131903848D01*
X126183775Y-132031692D01*
X126052351Y-132483596D01*
X124102000Y-132483596D01*
X124102000Y-131650704D01*
X126569848Y-131650704D01*
X127254000Y-132334856D01*
X127938152Y-131650704D01*
X131649848Y-131650704D01*
X132334000Y-132334856D01*
X132947260Y-131721596D01*
X135704351Y-131721596D01*
X135755867Y-132189394D01*
X135835775Y-132382308D01*
X135968704Y-132510152D01*
X136652856Y-131826000D01*
X137159144Y-131826000D01*
X137843296Y-132510152D01*
X137976225Y-132382308D01*
X138107649Y-131930404D01*
X138056133Y-131462606D01*
X137976225Y-131269692D01*
X137843296Y-131141848D01*
X137159144Y-131826000D01*
X136652856Y-131826000D01*
X135968704Y-131141848D01*
X135835775Y-131269692D01*
X135704351Y-131721596D01*
X132947260Y-131721596D01*
X133018152Y-131650704D01*
X132890308Y-131517775D01*
X132438404Y-131386351D01*
X131970606Y-131437867D01*
X131777692Y-131517775D01*
X131649848Y-131650704D01*
X127938152Y-131650704D01*
X127810308Y-131517775D01*
X127358404Y-131386351D01*
X126890606Y-131437867D01*
X126697692Y-131517775D01*
X126569848Y-131650704D01*
X124102000Y-131650704D01*
X124102000Y-130985296D01*
X126569848Y-130985296D01*
X126697692Y-131118225D01*
X127149596Y-131249649D01*
X127617394Y-131198133D01*
X127810308Y-131118225D01*
X127938152Y-130985296D01*
X131649848Y-130985296D01*
X131777692Y-131118225D01*
X132229596Y-131249649D01*
X132697394Y-131198133D01*
X132890308Y-131118225D01*
X133018152Y-130985296D01*
X132921560Y-130888704D01*
X136221848Y-130888704D01*
X136906000Y-131572856D01*
X137590152Y-130888704D01*
X137462308Y-130755775D01*
X137010404Y-130624351D01*
X136542606Y-130675867D01*
X136349692Y-130755775D01*
X136221848Y-130888704D01*
X132921560Y-130888704D01*
X132334000Y-130301144D01*
X131649848Y-130985296D01*
X127938152Y-130985296D01*
X127254000Y-130301144D01*
X126569848Y-130985296D01*
X124102000Y-130985296D01*
X124102000Y-129943596D01*
X126052351Y-129943596D01*
X126103867Y-130411394D01*
X126183775Y-130604308D01*
X126316704Y-130732152D01*
X127000856Y-130048000D01*
X127507144Y-130048000D01*
X128191296Y-130732152D01*
X128324225Y-130604308D01*
X128455649Y-130152404D01*
X128432655Y-129943596D01*
X131132351Y-129943596D01*
X131183867Y-130411394D01*
X131263775Y-130604308D01*
X131396704Y-130732152D01*
X132080856Y-130048000D01*
X132587144Y-130048000D01*
X133271296Y-130732152D01*
X133404225Y-130604308D01*
X133535649Y-130152404D01*
X133487513Y-129715296D01*
X136221848Y-129715296D01*
X136349692Y-129848225D01*
X136801596Y-129979649D01*
X137269394Y-129928133D01*
X137462308Y-129848225D01*
X137590152Y-129715296D01*
X136906000Y-129031144D01*
X136221848Y-129715296D01*
X133487513Y-129715296D01*
X133484133Y-129684606D01*
X133404225Y-129491692D01*
X133271296Y-129363848D01*
X132587144Y-130048000D01*
X132080856Y-130048000D01*
X131396704Y-129363848D01*
X131263775Y-129491692D01*
X131132351Y-129943596D01*
X128432655Y-129943596D01*
X128404133Y-129684606D01*
X128324225Y-129491692D01*
X128191296Y-129363848D01*
X127507144Y-130048000D01*
X127000856Y-130048000D01*
X126316704Y-129363848D01*
X126183775Y-129491692D01*
X126052351Y-129943596D01*
X124102000Y-129943596D01*
X124102000Y-129110704D01*
X126569848Y-129110704D01*
X127254000Y-129794856D01*
X127938152Y-129110704D01*
X131649848Y-129110704D01*
X132334000Y-129794856D01*
X133018152Y-129110704D01*
X132890308Y-128977775D01*
X132438404Y-128846351D01*
X131970606Y-128897867D01*
X131777692Y-128977775D01*
X131649848Y-129110704D01*
X127938152Y-129110704D01*
X127810308Y-128977775D01*
X127358404Y-128846351D01*
X126890606Y-128897867D01*
X126697692Y-128977775D01*
X126569848Y-129110704D01*
X124102000Y-129110704D01*
X124102000Y-128445296D01*
X126569848Y-128445296D01*
X126697692Y-128578225D01*
X127149596Y-128709649D01*
X127617394Y-128658133D01*
X127810308Y-128578225D01*
X127938152Y-128445296D01*
X131649848Y-128445296D01*
X131777692Y-128578225D01*
X132229596Y-128709649D01*
X132556980Y-128673596D01*
X135704351Y-128673596D01*
X135755867Y-129141394D01*
X135835775Y-129334308D01*
X135968704Y-129462152D01*
X136652856Y-128778000D01*
X137159144Y-128778000D01*
X137843296Y-129462152D01*
X137976225Y-129334308D01*
X138107649Y-128882404D01*
X138056133Y-128414606D01*
X137976225Y-128221692D01*
X137843296Y-128093848D01*
X137159144Y-128778000D01*
X136652856Y-128778000D01*
X135968704Y-128093848D01*
X135835775Y-128221692D01*
X135704351Y-128673596D01*
X132556980Y-128673596D01*
X132697394Y-128658133D01*
X132890308Y-128578225D01*
X133018152Y-128445296D01*
X132334000Y-127761144D01*
X131649848Y-128445296D01*
X127938152Y-128445296D01*
X127254000Y-127761144D01*
X126569848Y-128445296D01*
X124102000Y-128445296D01*
X124102000Y-127403596D01*
X126052351Y-127403596D01*
X126103867Y-127871394D01*
X126183775Y-128064308D01*
X126316704Y-128192152D01*
X127000856Y-127508000D01*
X127507144Y-127508000D01*
X128191296Y-128192152D01*
X128324225Y-128064308D01*
X128455649Y-127612404D01*
X128432655Y-127403596D01*
X131132351Y-127403596D01*
X131183867Y-127871394D01*
X131263775Y-128064308D01*
X131396704Y-128192152D01*
X132080856Y-127508000D01*
X132587144Y-127508000D01*
X133271296Y-128192152D01*
X133404225Y-128064308D01*
X133469254Y-127840704D01*
X136221848Y-127840704D01*
X136906000Y-128524856D01*
X137590152Y-127840704D01*
X137462308Y-127707775D01*
X137010404Y-127576351D01*
X136542606Y-127627867D01*
X136349692Y-127707775D01*
X136221848Y-127840704D01*
X133469254Y-127840704D01*
X133535649Y-127612404D01*
X133484133Y-127144606D01*
X133404225Y-126951692D01*
X133271296Y-126823848D01*
X132587144Y-127508000D01*
X132080856Y-127508000D01*
X131396704Y-126823848D01*
X131263775Y-126951692D01*
X131132351Y-127403596D01*
X128432655Y-127403596D01*
X128404133Y-127144606D01*
X128324225Y-126951692D01*
X128191296Y-126823848D01*
X127507144Y-127508000D01*
X127000856Y-127508000D01*
X126316704Y-126823848D01*
X126183775Y-126951692D01*
X126052351Y-127403596D01*
X124102000Y-127403596D01*
X124102000Y-126570704D01*
X126569848Y-126570704D01*
X127254000Y-127254856D01*
X127938152Y-126570704D01*
X131649848Y-126570704D01*
X132334000Y-127254856D01*
X132921560Y-126667296D01*
X136221848Y-126667296D01*
X136349692Y-126800225D01*
X136801596Y-126931649D01*
X137269394Y-126880133D01*
X137462308Y-126800225D01*
X137590152Y-126667296D01*
X136906000Y-125983144D01*
X136221848Y-126667296D01*
X132921560Y-126667296D01*
X133018152Y-126570704D01*
X132890308Y-126437775D01*
X132438404Y-126306351D01*
X131970606Y-126357867D01*
X131777692Y-126437775D01*
X131649848Y-126570704D01*
X127938152Y-126570704D01*
X127810308Y-126437775D01*
X127358404Y-126306351D01*
X126890606Y-126357867D01*
X126697692Y-126437775D01*
X126569848Y-126570704D01*
X124102000Y-126570704D01*
X124102000Y-125905296D01*
X126569848Y-125905296D01*
X126697692Y-126038225D01*
X127149596Y-126169649D01*
X127617394Y-126118133D01*
X127810308Y-126038225D01*
X127938152Y-125905296D01*
X131649848Y-125905296D01*
X131777692Y-126038225D01*
X132229596Y-126169649D01*
X132697394Y-126118133D01*
X132890308Y-126038225D01*
X133018152Y-125905296D01*
X132334000Y-125221144D01*
X131649848Y-125905296D01*
X127938152Y-125905296D01*
X127254000Y-125221144D01*
X126569848Y-125905296D01*
X124102000Y-125905296D01*
X124102000Y-124863596D01*
X126052351Y-124863596D01*
X126103867Y-125331394D01*
X126183775Y-125524308D01*
X126316704Y-125652152D01*
X127000856Y-124968000D01*
X127507144Y-124968000D01*
X128191296Y-125652152D01*
X128324225Y-125524308D01*
X128455649Y-125072404D01*
X128432655Y-124863596D01*
X131132351Y-124863596D01*
X131183867Y-125331394D01*
X131263775Y-125524308D01*
X131396704Y-125652152D01*
X132080856Y-124968000D01*
X132587144Y-124968000D01*
X133271296Y-125652152D01*
X133298908Y-125625596D01*
X135704351Y-125625596D01*
X135755867Y-126093394D01*
X135835775Y-126286308D01*
X135968704Y-126414152D01*
X136652856Y-125730000D01*
X137159144Y-125730000D01*
X137843296Y-126414152D01*
X137976225Y-126286308D01*
X138107649Y-125834404D01*
X138056133Y-125366606D01*
X137976225Y-125173692D01*
X137843296Y-125045848D01*
X137159144Y-125730000D01*
X136652856Y-125730000D01*
X135968704Y-125045848D01*
X135835775Y-125173692D01*
X135704351Y-125625596D01*
X133298908Y-125625596D01*
X133404225Y-125524308D01*
X133535649Y-125072404D01*
X133504848Y-124792704D01*
X136221848Y-124792704D01*
X136906000Y-125476856D01*
X137590152Y-124792704D01*
X137462308Y-124659775D01*
X137010404Y-124528351D01*
X136542606Y-124579867D01*
X136349692Y-124659775D01*
X136221848Y-124792704D01*
X133504848Y-124792704D01*
X133484133Y-124604606D01*
X133404225Y-124411692D01*
X133271296Y-124283848D01*
X132587144Y-124968000D01*
X132080856Y-124968000D01*
X131396704Y-124283848D01*
X131263775Y-124411692D01*
X131132351Y-124863596D01*
X128432655Y-124863596D01*
X128404133Y-124604606D01*
X128324225Y-124411692D01*
X128191296Y-124283848D01*
X127507144Y-124968000D01*
X127000856Y-124968000D01*
X126316704Y-124283848D01*
X126183775Y-124411692D01*
X126052351Y-124863596D01*
X124102000Y-124863596D01*
X124102000Y-124030704D01*
X126569848Y-124030704D01*
X127254000Y-124714856D01*
X127938152Y-124030704D01*
X131649848Y-124030704D01*
X132334000Y-124714856D01*
X133018152Y-124030704D01*
X132890308Y-123897775D01*
X132438404Y-123766351D01*
X131970606Y-123817867D01*
X131777692Y-123897775D01*
X131649848Y-124030704D01*
X127938152Y-124030704D01*
X127810308Y-123897775D01*
X127358404Y-123766351D01*
X126890606Y-123817867D01*
X126697692Y-123897775D01*
X126569848Y-124030704D01*
X124102000Y-124030704D01*
X124102000Y-123365296D01*
X126569848Y-123365296D01*
X126697692Y-123498225D01*
X127149596Y-123629649D01*
X127617394Y-123578133D01*
X127810308Y-123498225D01*
X127938152Y-123365296D01*
X131649848Y-123365296D01*
X131777692Y-123498225D01*
X132229596Y-123629649D01*
X132323607Y-123619296D01*
X136221848Y-123619296D01*
X136349692Y-123752225D01*
X136801596Y-123883649D01*
X137269394Y-123832133D01*
X137462308Y-123752225D01*
X137590152Y-123619296D01*
X136906000Y-122935144D01*
X136221848Y-123619296D01*
X132323607Y-123619296D01*
X132697394Y-123578133D01*
X132890308Y-123498225D01*
X133018152Y-123365296D01*
X132334000Y-122681144D01*
X131649848Y-123365296D01*
X127938152Y-123365296D01*
X127254000Y-122681144D01*
X126569848Y-123365296D01*
X124102000Y-123365296D01*
X124102000Y-122323596D01*
X126052351Y-122323596D01*
X126103867Y-122791394D01*
X126183775Y-122984308D01*
X126316704Y-123112152D01*
X127000856Y-122428000D01*
X127507144Y-122428000D01*
X128191296Y-123112152D01*
X128324225Y-122984308D01*
X128455649Y-122532404D01*
X128432655Y-122323596D01*
X131132351Y-122323596D01*
X131183867Y-122791394D01*
X131263775Y-122984308D01*
X131396704Y-123112152D01*
X132080856Y-122428000D01*
X132587144Y-122428000D01*
X133271296Y-123112152D01*
X133404225Y-122984308D01*
X133522506Y-122577596D01*
X135704351Y-122577596D01*
X135755867Y-123045394D01*
X135835775Y-123238308D01*
X135968704Y-123366152D01*
X136652856Y-122682000D01*
X137159144Y-122682000D01*
X137843296Y-123366152D01*
X137976225Y-123238308D01*
X138107649Y-122786404D01*
X138056133Y-122318606D01*
X137976225Y-122125692D01*
X137843296Y-121997848D01*
X137159144Y-122682000D01*
X136652856Y-122682000D01*
X135968704Y-121997848D01*
X135835775Y-122125692D01*
X135704351Y-122577596D01*
X133522506Y-122577596D01*
X133535649Y-122532404D01*
X133484133Y-122064606D01*
X133404225Y-121871692D01*
X133272187Y-121744704D01*
X136221848Y-121744704D01*
X136906000Y-122428856D01*
X137590152Y-121744704D01*
X137462308Y-121611775D01*
X137010404Y-121480351D01*
X136542606Y-121531867D01*
X136349692Y-121611775D01*
X136221848Y-121744704D01*
X133272187Y-121744704D01*
X133271296Y-121743848D01*
X132587144Y-122428000D01*
X132080856Y-122428000D01*
X131396704Y-121743848D01*
X131263775Y-121871692D01*
X131132351Y-122323596D01*
X128432655Y-122323596D01*
X128404133Y-122064606D01*
X128324225Y-121871692D01*
X128191296Y-121743848D01*
X127507144Y-122428000D01*
X127000856Y-122428000D01*
X126316704Y-121743848D01*
X126183775Y-121871692D01*
X126052351Y-122323596D01*
X124102000Y-122323596D01*
X124102000Y-121490704D01*
X126569848Y-121490704D01*
X127254000Y-122174856D01*
X127938152Y-121490704D01*
X131649848Y-121490704D01*
X132334000Y-122174856D01*
X133018152Y-121490704D01*
X132890308Y-121357775D01*
X132438404Y-121226351D01*
X131970606Y-121277867D01*
X131777692Y-121357775D01*
X131649848Y-121490704D01*
X127938152Y-121490704D01*
X127810308Y-121357775D01*
X127358404Y-121226351D01*
X126890606Y-121277867D01*
X126697692Y-121357775D01*
X126569848Y-121490704D01*
X124102000Y-121490704D01*
X124102000Y-120825296D01*
X126569848Y-120825296D01*
X126697692Y-120958225D01*
X127149596Y-121089649D01*
X127617394Y-121038133D01*
X127810308Y-120958225D01*
X127938152Y-120825296D01*
X131649848Y-120825296D01*
X131777692Y-120958225D01*
X132229596Y-121089649D01*
X132697394Y-121038133D01*
X132890308Y-120958225D01*
X133018152Y-120825296D01*
X132334000Y-120141144D01*
X131649848Y-120825296D01*
X127938152Y-120825296D01*
X127254000Y-120141144D01*
X126569848Y-120825296D01*
X124102000Y-120825296D01*
X124102000Y-119783596D01*
X126052351Y-119783596D01*
X126103867Y-120251394D01*
X126183775Y-120444308D01*
X126316704Y-120572152D01*
X127000856Y-119888000D01*
X127507144Y-119888000D01*
X128191296Y-120572152D01*
X128324225Y-120444308D01*
X128455649Y-119992404D01*
X128432655Y-119783596D01*
X131132351Y-119783596D01*
X131183867Y-120251394D01*
X131263775Y-120444308D01*
X131396704Y-120572152D01*
X132080856Y-119888000D01*
X132587144Y-119888000D01*
X133271296Y-120572152D01*
X133272186Y-120571296D01*
X136221848Y-120571296D01*
X136349692Y-120704225D01*
X136801596Y-120835649D01*
X137269394Y-120784133D01*
X137462308Y-120704225D01*
X137590152Y-120571296D01*
X136906000Y-119887144D01*
X136221848Y-120571296D01*
X133272186Y-120571296D01*
X133404225Y-120444308D01*
X133535649Y-119992404D01*
X133484683Y-119529596D01*
X135704351Y-119529596D01*
X135755867Y-119997394D01*
X135835775Y-120190308D01*
X135968704Y-120318152D01*
X136652856Y-119634000D01*
X137159144Y-119634000D01*
X137843296Y-120318152D01*
X137976225Y-120190308D01*
X138107649Y-119738404D01*
X138056133Y-119270606D01*
X137976225Y-119077692D01*
X137843296Y-118949848D01*
X137159144Y-119634000D01*
X136652856Y-119634000D01*
X135968704Y-118949848D01*
X135835775Y-119077692D01*
X135704351Y-119529596D01*
X133484683Y-119529596D01*
X133484133Y-119524606D01*
X133404225Y-119331692D01*
X133271296Y-119203848D01*
X132587144Y-119888000D01*
X132080856Y-119888000D01*
X131396704Y-119203848D01*
X131263775Y-119331692D01*
X131132351Y-119783596D01*
X128432655Y-119783596D01*
X128404133Y-119524606D01*
X128324225Y-119331692D01*
X128191296Y-119203848D01*
X127507144Y-119888000D01*
X127000856Y-119888000D01*
X126316704Y-119203848D01*
X126183775Y-119331692D01*
X126052351Y-119783596D01*
X124102000Y-119783596D01*
X124102000Y-118950704D01*
X126569848Y-118950704D01*
X127254000Y-119634856D01*
X127938152Y-118950704D01*
X131649848Y-118950704D01*
X132334000Y-119634856D01*
X133018152Y-118950704D01*
X132890308Y-118817775D01*
X132474003Y-118696704D01*
X136221848Y-118696704D01*
X136906000Y-119380856D01*
X137590152Y-118696704D01*
X137462308Y-118563775D01*
X137010404Y-118432351D01*
X136542606Y-118483867D01*
X136349692Y-118563775D01*
X136221848Y-118696704D01*
X132474003Y-118696704D01*
X132438404Y-118686351D01*
X131970606Y-118737867D01*
X131777692Y-118817775D01*
X131649848Y-118950704D01*
X127938152Y-118950704D01*
X127810308Y-118817775D01*
X127358404Y-118686351D01*
X126890606Y-118737867D01*
X126697692Y-118817775D01*
X126569848Y-118950704D01*
X124102000Y-118950704D01*
X124102000Y-118285296D01*
X126569848Y-118285296D01*
X126697692Y-118418225D01*
X127149596Y-118549649D01*
X127617394Y-118498133D01*
X127810308Y-118418225D01*
X127938152Y-118285296D01*
X131649848Y-118285296D01*
X131777692Y-118418225D01*
X132229596Y-118549649D01*
X132697394Y-118498133D01*
X132890308Y-118418225D01*
X133018152Y-118285296D01*
X132334000Y-117601144D01*
X131649848Y-118285296D01*
X127938152Y-118285296D01*
X127254000Y-117601144D01*
X126569848Y-118285296D01*
X124102000Y-118285296D01*
X124102000Y-117243596D01*
X126052351Y-117243596D01*
X126103867Y-117711394D01*
X126183775Y-117904308D01*
X126316704Y-118032152D01*
X127000856Y-117348000D01*
X127507144Y-117348000D01*
X128191296Y-118032152D01*
X128324225Y-117904308D01*
X128455649Y-117452404D01*
X128432655Y-117243596D01*
X131132351Y-117243596D01*
X131183867Y-117711394D01*
X131263775Y-117904308D01*
X131396704Y-118032152D01*
X132080856Y-117348000D01*
X132587144Y-117348000D01*
X133271296Y-118032152D01*
X133404225Y-117904308D01*
X133515031Y-117523296D01*
X136221848Y-117523296D01*
X136349692Y-117656225D01*
X136801596Y-117787649D01*
X137269394Y-117736133D01*
X137462308Y-117656225D01*
X137590152Y-117523296D01*
X136906000Y-116839144D01*
X136221848Y-117523296D01*
X133515031Y-117523296D01*
X133535649Y-117452404D01*
X133484133Y-116984606D01*
X133404225Y-116791692D01*
X133271296Y-116663848D01*
X132587144Y-117348000D01*
X132080856Y-117348000D01*
X131396704Y-116663848D01*
X131263775Y-116791692D01*
X131132351Y-117243596D01*
X128432655Y-117243596D01*
X128404133Y-116984606D01*
X128324225Y-116791692D01*
X128191296Y-116663848D01*
X127507144Y-117348000D01*
X127000856Y-117348000D01*
X126316704Y-116663848D01*
X126183775Y-116791692D01*
X126052351Y-117243596D01*
X124102000Y-117243596D01*
X124102000Y-116410704D01*
X126569848Y-116410704D01*
X127254000Y-117094856D01*
X127938152Y-116410704D01*
X131649848Y-116410704D01*
X132334000Y-117094856D01*
X132947260Y-116481596D01*
X135704351Y-116481596D01*
X135755867Y-116949394D01*
X135835775Y-117142308D01*
X135968704Y-117270152D01*
X136652856Y-116586000D01*
X137159144Y-116586000D01*
X137843296Y-117270152D01*
X137976225Y-117142308D01*
X138107649Y-116690404D01*
X138056133Y-116222606D01*
X137976225Y-116029692D01*
X137843296Y-115901848D01*
X137159144Y-116586000D01*
X136652856Y-116586000D01*
X135968704Y-115901848D01*
X135835775Y-116029692D01*
X135704351Y-116481596D01*
X132947260Y-116481596D01*
X133018152Y-116410704D01*
X132890308Y-116277775D01*
X132438404Y-116146351D01*
X131970606Y-116197867D01*
X131777692Y-116277775D01*
X131649848Y-116410704D01*
X127938152Y-116410704D01*
X127810308Y-116277775D01*
X127358404Y-116146351D01*
X126890606Y-116197867D01*
X126697692Y-116277775D01*
X126569848Y-116410704D01*
X124102000Y-116410704D01*
X124102000Y-115745296D01*
X126569848Y-115745296D01*
X126697692Y-115878225D01*
X127149596Y-116009649D01*
X127617394Y-115958133D01*
X127810308Y-115878225D01*
X127938152Y-115745296D01*
X131649848Y-115745296D01*
X131777692Y-115878225D01*
X132229596Y-116009649D01*
X132697394Y-115958133D01*
X132890308Y-115878225D01*
X133018152Y-115745296D01*
X132921560Y-115648704D01*
X136221848Y-115648704D01*
X136906000Y-116332856D01*
X137590152Y-115648704D01*
X137462308Y-115515775D01*
X137010404Y-115384351D01*
X136542606Y-115435867D01*
X136349692Y-115515775D01*
X136221848Y-115648704D01*
X132921560Y-115648704D01*
X132334000Y-115061144D01*
X131649848Y-115745296D01*
X127938152Y-115745296D01*
X127254000Y-115061144D01*
X126569848Y-115745296D01*
X124102000Y-115745296D01*
X124102000Y-114703596D01*
X126052351Y-114703596D01*
X126103867Y-115171394D01*
X126183775Y-115364308D01*
X126316704Y-115492152D01*
X127000856Y-114808000D01*
X127507144Y-114808000D01*
X128191296Y-115492152D01*
X128324225Y-115364308D01*
X128455649Y-114912404D01*
X128432655Y-114703596D01*
X131132351Y-114703596D01*
X131183867Y-115171394D01*
X131263775Y-115364308D01*
X131396704Y-115492152D01*
X132080856Y-114808000D01*
X132587144Y-114808000D01*
X133271296Y-115492152D01*
X133404225Y-115364308D01*
X133535649Y-114912404D01*
X133487513Y-114475296D01*
X136221848Y-114475296D01*
X136349692Y-114608225D01*
X136801596Y-114739649D01*
X137269394Y-114688133D01*
X137462308Y-114608225D01*
X137590152Y-114475296D01*
X136906000Y-113791144D01*
X136221848Y-114475296D01*
X133487513Y-114475296D01*
X133484133Y-114444606D01*
X133404225Y-114251692D01*
X133271296Y-114123848D01*
X132587144Y-114808000D01*
X132080856Y-114808000D01*
X131396704Y-114123848D01*
X131263775Y-114251692D01*
X131132351Y-114703596D01*
X128432655Y-114703596D01*
X128404133Y-114444606D01*
X128324225Y-114251692D01*
X128191296Y-114123848D01*
X127507144Y-114808000D01*
X127000856Y-114808000D01*
X126316704Y-114123848D01*
X126183775Y-114251692D01*
X126052351Y-114703596D01*
X124102000Y-114703596D01*
X124102000Y-113870704D01*
X126569848Y-113870704D01*
X127254000Y-114554856D01*
X127938152Y-113870704D01*
X131649848Y-113870704D01*
X132334000Y-114554856D01*
X133018152Y-113870704D01*
X132890308Y-113737775D01*
X132438404Y-113606351D01*
X131970606Y-113657867D01*
X131777692Y-113737775D01*
X131649848Y-113870704D01*
X127938152Y-113870704D01*
X127810308Y-113737775D01*
X127358404Y-113606351D01*
X126890606Y-113657867D01*
X126697692Y-113737775D01*
X126569848Y-113870704D01*
X124102000Y-113870704D01*
X124102000Y-113205296D01*
X126569848Y-113205296D01*
X126697692Y-113338225D01*
X127149596Y-113469649D01*
X127617394Y-113418133D01*
X127810308Y-113338225D01*
X127938152Y-113205296D01*
X131649848Y-113205296D01*
X131777692Y-113338225D01*
X132229596Y-113469649D01*
X132556980Y-113433596D01*
X135704351Y-113433596D01*
X135755867Y-113901394D01*
X135835775Y-114094308D01*
X135968704Y-114222152D01*
X136652856Y-113538000D01*
X137159144Y-113538000D01*
X137843296Y-114222152D01*
X137976225Y-114094308D01*
X138107649Y-113642404D01*
X138056133Y-113174606D01*
X137976225Y-112981692D01*
X137843296Y-112853848D01*
X137159144Y-113538000D01*
X136652856Y-113538000D01*
X135968704Y-112853848D01*
X135835775Y-112981692D01*
X135704351Y-113433596D01*
X132556980Y-113433596D01*
X132697394Y-113418133D01*
X132890308Y-113338225D01*
X133018152Y-113205296D01*
X132334000Y-112521144D01*
X131649848Y-113205296D01*
X127938152Y-113205296D01*
X127254000Y-112521144D01*
X126569848Y-113205296D01*
X124102000Y-113205296D01*
X124102000Y-112163596D01*
X126052351Y-112163596D01*
X126103867Y-112631394D01*
X126183775Y-112824308D01*
X126316704Y-112952152D01*
X127000856Y-112268000D01*
X127507144Y-112268000D01*
X128191296Y-112952152D01*
X128324225Y-112824308D01*
X128455649Y-112372404D01*
X128432655Y-112163596D01*
X131132351Y-112163596D01*
X131183867Y-112631394D01*
X131263775Y-112824308D01*
X131396704Y-112952152D01*
X132080856Y-112268000D01*
X132587144Y-112268000D01*
X133271296Y-112952152D01*
X133404225Y-112824308D01*
X133469254Y-112600704D01*
X136221848Y-112600704D01*
X136906000Y-113284856D01*
X137590152Y-112600704D01*
X137462308Y-112467775D01*
X137010404Y-112336351D01*
X136542606Y-112387867D01*
X136349692Y-112467775D01*
X136221848Y-112600704D01*
X133469254Y-112600704D01*
X133535649Y-112372404D01*
X133484133Y-111904606D01*
X133404225Y-111711692D01*
X133271296Y-111583848D01*
X132587144Y-112268000D01*
X132080856Y-112268000D01*
X131396704Y-111583848D01*
X131263775Y-111711692D01*
X131132351Y-112163596D01*
X128432655Y-112163596D01*
X128404133Y-111904606D01*
X128324225Y-111711692D01*
X128191296Y-111583848D01*
X127507144Y-112268000D01*
X127000856Y-112268000D01*
X126316704Y-111583848D01*
X126183775Y-111711692D01*
X126052351Y-112163596D01*
X124102000Y-112163596D01*
X124102000Y-111330704D01*
X126569848Y-111330704D01*
X127254000Y-112014856D01*
X127938152Y-111330704D01*
X131649848Y-111330704D01*
X132334000Y-112014856D01*
X132921560Y-111427296D01*
X136221848Y-111427296D01*
X136349692Y-111560225D01*
X136801596Y-111691649D01*
X137269394Y-111640133D01*
X137462308Y-111560225D01*
X137590152Y-111427296D01*
X136906000Y-110743144D01*
X136221848Y-111427296D01*
X132921560Y-111427296D01*
X133018152Y-111330704D01*
X132890308Y-111197775D01*
X132438404Y-111066351D01*
X131970606Y-111117867D01*
X131777692Y-111197775D01*
X131649848Y-111330704D01*
X127938152Y-111330704D01*
X127810308Y-111197775D01*
X127358404Y-111066351D01*
X126890606Y-111117867D01*
X126697692Y-111197775D01*
X126569848Y-111330704D01*
X124102000Y-111330704D01*
X124102000Y-110665296D01*
X126569848Y-110665296D01*
X126697692Y-110798225D01*
X127149596Y-110929649D01*
X127617394Y-110878133D01*
X127810308Y-110798225D01*
X127938152Y-110665296D01*
X131649848Y-110665296D01*
X131777692Y-110798225D01*
X132229596Y-110929649D01*
X132697394Y-110878133D01*
X132890308Y-110798225D01*
X133018152Y-110665296D01*
X132334000Y-109981144D01*
X131649848Y-110665296D01*
X127938152Y-110665296D01*
X127254000Y-109981144D01*
X126569848Y-110665296D01*
X124102000Y-110665296D01*
X124102000Y-109623596D01*
X126052351Y-109623596D01*
X126103867Y-110091394D01*
X126183775Y-110284308D01*
X126316704Y-110412152D01*
X127000856Y-109728000D01*
X127507144Y-109728000D01*
X128191296Y-110412152D01*
X128324225Y-110284308D01*
X128455649Y-109832404D01*
X128432655Y-109623596D01*
X131132351Y-109623596D01*
X131183867Y-110091394D01*
X131263775Y-110284308D01*
X131396704Y-110412152D01*
X132080856Y-109728000D01*
X132587144Y-109728000D01*
X133271296Y-110412152D01*
X133298908Y-110385596D01*
X135704351Y-110385596D01*
X135755867Y-110853394D01*
X135835775Y-111046308D01*
X135968704Y-111174152D01*
X136652856Y-110490000D01*
X137159144Y-110490000D01*
X137843296Y-111174152D01*
X137976225Y-111046308D01*
X138107649Y-110594404D01*
X138056133Y-110126606D01*
X137976225Y-109933692D01*
X137843296Y-109805848D01*
X137159144Y-110490000D01*
X136652856Y-110490000D01*
X135968704Y-109805848D01*
X135835775Y-109933692D01*
X135704351Y-110385596D01*
X133298908Y-110385596D01*
X133404225Y-110284308D01*
X133535649Y-109832404D01*
X133504848Y-109552704D01*
X136221848Y-109552704D01*
X136906000Y-110236856D01*
X137590152Y-109552704D01*
X137462308Y-109419775D01*
X137010404Y-109288351D01*
X136542606Y-109339867D01*
X136349692Y-109419775D01*
X136221848Y-109552704D01*
X133504848Y-109552704D01*
X133484133Y-109364606D01*
X133404225Y-109171692D01*
X133271296Y-109043848D01*
X132587144Y-109728000D01*
X132080856Y-109728000D01*
X131396704Y-109043848D01*
X131263775Y-109171692D01*
X131132351Y-109623596D01*
X128432655Y-109623596D01*
X128404133Y-109364606D01*
X128324225Y-109171692D01*
X128191296Y-109043848D01*
X127507144Y-109728000D01*
X127000856Y-109728000D01*
X126316704Y-109043848D01*
X126183775Y-109171692D01*
X126052351Y-109623596D01*
X124102000Y-109623596D01*
X124102000Y-108790704D01*
X126569848Y-108790704D01*
X127254000Y-109474856D01*
X127938152Y-108790704D01*
X131649848Y-108790704D01*
X132334000Y-109474856D01*
X133018152Y-108790704D01*
X132890308Y-108657775D01*
X132438404Y-108526351D01*
X131970606Y-108577867D01*
X131777692Y-108657775D01*
X131649848Y-108790704D01*
X127938152Y-108790704D01*
X127810308Y-108657775D01*
X127358404Y-108526351D01*
X126890606Y-108577867D01*
X126697692Y-108657775D01*
X126569848Y-108790704D01*
X124102000Y-108790704D01*
X124102000Y-108379296D01*
X136221848Y-108379296D01*
X136349692Y-108512225D01*
X136801596Y-108643649D01*
X137269394Y-108592133D01*
X137462308Y-108512225D01*
X137590152Y-108379296D01*
X136906000Y-107695144D01*
X136221848Y-108379296D01*
X124102000Y-108379296D01*
X124102000Y-107337596D01*
X135704351Y-107337596D01*
X135755867Y-107805394D01*
X135835775Y-107998308D01*
X135968704Y-108126152D01*
X136652856Y-107442000D01*
X137159144Y-107442000D01*
X137843296Y-108126152D01*
X137976225Y-107998308D01*
X138046839Y-107755497D01*
X145482726Y-107755497D01*
X145723215Y-108337526D01*
X146168132Y-108783220D01*
X146608681Y-108966152D01*
X146170474Y-109147215D01*
X145724780Y-109592132D01*
X145483275Y-110173740D01*
X145482726Y-110803497D01*
X145723215Y-111385526D01*
X146168132Y-111831220D01*
X146608681Y-112014152D01*
X146170474Y-112195215D01*
X145724780Y-112640132D01*
X145483275Y-113221740D01*
X145482726Y-113851497D01*
X145723215Y-114433526D01*
X146168132Y-114879220D01*
X146608681Y-115062152D01*
X146170474Y-115243215D01*
X145724780Y-115688132D01*
X145483275Y-116269740D01*
X145482726Y-116899497D01*
X145723215Y-117481526D01*
X146168132Y-117927220D01*
X146608681Y-118110152D01*
X146170474Y-118291215D01*
X145724780Y-118736132D01*
X145483275Y-119317740D01*
X145482726Y-119947497D01*
X145723215Y-120529526D01*
X146168132Y-120975220D01*
X146608681Y-121158152D01*
X146170474Y-121339215D01*
X145724780Y-121784132D01*
X145483275Y-122365740D01*
X145482726Y-122995497D01*
X145723215Y-123577526D01*
X146168132Y-124023220D01*
X146608681Y-124206152D01*
X146170474Y-124387215D01*
X145724780Y-124832132D01*
X145483275Y-125413740D01*
X145482726Y-126043497D01*
X145723215Y-126625526D01*
X146168132Y-127071220D01*
X146608681Y-127254152D01*
X146170474Y-127435215D01*
X145724780Y-127880132D01*
X145483275Y-128461740D01*
X145482726Y-129091497D01*
X145723215Y-129673526D01*
X146168132Y-130119220D01*
X146608681Y-130302152D01*
X146170474Y-130483215D01*
X145724780Y-130928132D01*
X145483275Y-131509740D01*
X145482726Y-132139497D01*
X145723215Y-132721526D01*
X146168132Y-133167220D01*
X146608681Y-133350152D01*
X146170474Y-133531215D01*
X145724780Y-133976132D01*
X145483275Y-134557740D01*
X145482726Y-135187497D01*
X145723215Y-135769526D01*
X146168132Y-136215220D01*
X146749740Y-136456725D01*
X147379497Y-136457274D01*
X147961526Y-136216785D01*
X148271852Y-135907000D01*
X148590000Y-135907000D01*
X148985312Y-135828368D01*
X149320441Y-135604441D01*
X151303882Y-133621000D01*
X151956449Y-133621000D01*
X152264132Y-133929220D01*
X152845740Y-134170725D01*
X153475497Y-134171274D01*
X154057526Y-133930785D01*
X154367852Y-133621000D01*
X156909449Y-133621000D01*
X157217132Y-133929220D01*
X157798740Y-134170725D01*
X158428497Y-134171274D01*
X159010526Y-133930785D01*
X159456220Y-133485868D01*
X159697725Y-132904260D01*
X159698274Y-132274503D01*
X159457785Y-131692474D01*
X159083701Y-131317737D01*
X159456220Y-130945868D01*
X159697725Y-130364260D01*
X159698274Y-129734503D01*
X159457785Y-129152474D01*
X159083701Y-128777737D01*
X159456220Y-128405868D01*
X159697725Y-127824260D01*
X159698274Y-127194503D01*
X159457785Y-126612474D01*
X159083701Y-126237737D01*
X159456220Y-125865868D01*
X159697725Y-125284260D01*
X159698274Y-124654503D01*
X159457785Y-124072474D01*
X159083701Y-123697737D01*
X159456220Y-123325868D01*
X159697725Y-122744260D01*
X159698274Y-122114503D01*
X159457785Y-121532474D01*
X159083701Y-121157737D01*
X159456220Y-120785868D01*
X159697725Y-120204260D01*
X159698274Y-119574503D01*
X159457785Y-118992474D01*
X159083701Y-118617737D01*
X159456220Y-118245868D01*
X159697725Y-117664260D01*
X159698274Y-117034503D01*
X159457785Y-116452474D01*
X159083701Y-116077737D01*
X159456220Y-115705868D01*
X159697725Y-115124260D01*
X159698274Y-114494503D01*
X159457785Y-113912474D01*
X159083701Y-113537737D01*
X159456220Y-113165868D01*
X159697725Y-112584260D01*
X159698274Y-111954503D01*
X159457785Y-111372474D01*
X159083701Y-110997737D01*
X159456220Y-110625868D01*
X159697725Y-110044260D01*
X159697727Y-110041497D01*
X164278726Y-110041497D01*
X164519215Y-110623526D01*
X164829000Y-110933852D01*
X164829000Y-111062449D01*
X164520780Y-111370132D01*
X164279275Y-111951740D01*
X164278726Y-112581497D01*
X164519215Y-113163526D01*
X164829000Y-113473852D01*
X164829000Y-113602449D01*
X164520780Y-113910132D01*
X164279275Y-114491740D01*
X164278726Y-115121497D01*
X164519215Y-115703526D01*
X164829000Y-116013852D01*
X164829000Y-116142449D01*
X164520780Y-116450132D01*
X164279275Y-117031740D01*
X164278726Y-117661497D01*
X164519215Y-118243526D01*
X164829000Y-118553852D01*
X164829000Y-118682449D01*
X164520780Y-118990132D01*
X164279275Y-119571740D01*
X164278726Y-120201497D01*
X164519215Y-120783526D01*
X164829000Y-121093852D01*
X164829000Y-121222449D01*
X164520780Y-121530132D01*
X164279275Y-122111740D01*
X164278726Y-122741497D01*
X164519215Y-123323526D01*
X164829000Y-123633852D01*
X164829000Y-123762449D01*
X164520780Y-124070132D01*
X164279275Y-124651740D01*
X164278726Y-125281497D01*
X164519215Y-125863526D01*
X164829000Y-126173852D01*
X164829000Y-126302449D01*
X164520780Y-126610132D01*
X164279275Y-127191740D01*
X164278726Y-127821497D01*
X164519215Y-128403526D01*
X164829000Y-128713852D01*
X164829000Y-128842449D01*
X164520780Y-129150132D01*
X164279275Y-129731740D01*
X164278726Y-130361497D01*
X164519215Y-130943526D01*
X164829000Y-131253852D01*
X164829000Y-131382449D01*
X164520780Y-131690132D01*
X164279275Y-132271740D01*
X164278726Y-132901497D01*
X164519215Y-133483526D01*
X164964132Y-133929220D01*
X165545740Y-134170725D01*
X166175497Y-134171274D01*
X166757526Y-133930785D01*
X167203220Y-133485868D01*
X167444725Y-132904260D01*
X167445274Y-132274503D01*
X167204785Y-131692474D01*
X166895000Y-131382148D01*
X166895000Y-131253551D01*
X167203220Y-130945868D01*
X167444725Y-130364260D01*
X167445274Y-129734503D01*
X167204785Y-129152474D01*
X166895000Y-128842148D01*
X166895000Y-128713551D01*
X167203220Y-128405868D01*
X167444725Y-127824260D01*
X167445274Y-127194503D01*
X167204785Y-126612474D01*
X166895000Y-126302148D01*
X166895000Y-126173551D01*
X167203220Y-125865868D01*
X167444725Y-125284260D01*
X167445274Y-124654503D01*
X167204785Y-124072474D01*
X166895000Y-123762148D01*
X166895000Y-123633551D01*
X167203220Y-123325868D01*
X167444725Y-122744260D01*
X167445274Y-122114503D01*
X167204785Y-121532474D01*
X166895000Y-121222148D01*
X166895000Y-121093551D01*
X167203220Y-120785868D01*
X167444725Y-120204260D01*
X167445274Y-119574503D01*
X167204785Y-118992474D01*
X166895000Y-118682148D01*
X166895000Y-118553551D01*
X167203220Y-118245868D01*
X167444725Y-117664260D01*
X167445274Y-117034503D01*
X167204785Y-116452474D01*
X166895000Y-116142148D01*
X166895000Y-116013551D01*
X167203220Y-115705868D01*
X167444725Y-115124260D01*
X167445274Y-114494503D01*
X167204785Y-113912474D01*
X166895000Y-113602148D01*
X166895000Y-113473551D01*
X167203220Y-113165868D01*
X167444725Y-112584260D01*
X167445274Y-111954503D01*
X167204785Y-111372474D01*
X166895000Y-111062148D01*
X166895000Y-110933551D01*
X167203220Y-110625868D01*
X167444725Y-110044260D01*
X167444727Y-110041497D01*
X169231726Y-110041497D01*
X169472215Y-110623526D01*
X169782000Y-110933852D01*
X169782000Y-111062449D01*
X169473780Y-111370132D01*
X169232275Y-111951740D01*
X169231726Y-112581497D01*
X169472215Y-113163526D01*
X169782000Y-113473852D01*
X169782000Y-113602449D01*
X169473780Y-113910132D01*
X169232275Y-114491740D01*
X169231726Y-115121497D01*
X169472215Y-115703526D01*
X169782000Y-116013852D01*
X169782000Y-116142449D01*
X169473780Y-116450132D01*
X169232275Y-117031740D01*
X169231726Y-117661497D01*
X169472215Y-118243526D01*
X169782000Y-118553852D01*
X169782000Y-118682449D01*
X169473780Y-118990132D01*
X169232275Y-119571740D01*
X169231726Y-120201497D01*
X169472215Y-120783526D01*
X169782000Y-121093852D01*
X169782000Y-121222449D01*
X169473780Y-121530132D01*
X169232275Y-122111740D01*
X169231726Y-122741497D01*
X169472215Y-123323526D01*
X169782000Y-123633852D01*
X169782000Y-123762449D01*
X169473780Y-124070132D01*
X169232275Y-124651740D01*
X169231726Y-125281497D01*
X169472215Y-125863526D01*
X169782000Y-126173852D01*
X169782000Y-126302449D01*
X169473780Y-126610132D01*
X169232275Y-127191740D01*
X169231726Y-127821497D01*
X169472215Y-128403526D01*
X169782000Y-128713852D01*
X169782000Y-128842449D01*
X169473780Y-129150132D01*
X169232275Y-129731740D01*
X169231726Y-130361497D01*
X169472215Y-130943526D01*
X169782000Y-131253852D01*
X169782000Y-131382449D01*
X169473780Y-131690132D01*
X169232275Y-132271740D01*
X169231726Y-132901497D01*
X169472215Y-133483526D01*
X169917132Y-133929220D01*
X170498740Y-134170725D01*
X171128497Y-134171274D01*
X171710526Y-133930785D01*
X172156220Y-133485868D01*
X172397725Y-132904260D01*
X172398274Y-132274503D01*
X172157785Y-131692474D01*
X171848000Y-131382148D01*
X171848000Y-131253551D01*
X172156220Y-130945868D01*
X172397725Y-130364260D01*
X172398274Y-129734503D01*
X172157785Y-129152474D01*
X171848000Y-128842148D01*
X171848000Y-128713551D01*
X172156220Y-128405868D01*
X172397725Y-127824260D01*
X172398274Y-127194503D01*
X172157785Y-126612474D01*
X171848000Y-126302148D01*
X171848000Y-126173551D01*
X172156220Y-125865868D01*
X172397725Y-125284260D01*
X172398274Y-124654503D01*
X172157785Y-124072474D01*
X171848000Y-123762148D01*
X171848000Y-123633551D01*
X172156220Y-123325868D01*
X172397725Y-122744260D01*
X172398274Y-122114503D01*
X172157785Y-121532474D01*
X171848000Y-121222148D01*
X171848000Y-121093551D01*
X172156220Y-120785868D01*
X172397725Y-120204260D01*
X172398274Y-119574503D01*
X172157785Y-118992474D01*
X171848000Y-118682148D01*
X171848000Y-118553551D01*
X172156220Y-118245868D01*
X172397725Y-117664260D01*
X172398274Y-117034503D01*
X172157785Y-116452474D01*
X171848000Y-116142148D01*
X171848000Y-116013551D01*
X172156220Y-115705868D01*
X172397725Y-115124260D01*
X172398274Y-114494503D01*
X172157785Y-113912474D01*
X171848000Y-113602148D01*
X171848000Y-113473551D01*
X172156220Y-113165868D01*
X172397725Y-112584260D01*
X172398274Y-111954503D01*
X172157785Y-111372474D01*
X171848000Y-111062148D01*
X171848000Y-110933551D01*
X172156220Y-110625868D01*
X172397725Y-110044260D01*
X172398274Y-109414503D01*
X172157785Y-108832474D01*
X171712868Y-108386780D01*
X171131260Y-108145275D01*
X170501503Y-108144726D01*
X169919474Y-108385215D01*
X169473780Y-108830132D01*
X169232275Y-109411740D01*
X169231726Y-110041497D01*
X167444727Y-110041497D01*
X167445274Y-109414503D01*
X167204785Y-108832474D01*
X166759868Y-108386780D01*
X166178260Y-108145275D01*
X165548503Y-108144726D01*
X164966474Y-108385215D01*
X164520780Y-108830132D01*
X164279275Y-109411740D01*
X164278726Y-110041497D01*
X159697727Y-110041497D01*
X159698274Y-109414503D01*
X159457785Y-108832474D01*
X159012868Y-108386780D01*
X158431260Y-108145275D01*
X157801503Y-108144726D01*
X157219474Y-108385215D01*
X156909148Y-108695000D01*
X154367551Y-108695000D01*
X154059868Y-108386780D01*
X153478260Y-108145275D01*
X153039775Y-108144893D01*
X151606441Y-106711559D01*
X151271312Y-106487632D01*
X150876000Y-106409000D01*
X148271551Y-106409000D01*
X147963868Y-106100780D01*
X147382260Y-105859275D01*
X146752503Y-105858726D01*
X146170474Y-106099215D01*
X145724780Y-106544132D01*
X145483275Y-107125740D01*
X145482726Y-107755497D01*
X138046839Y-107755497D01*
X138107649Y-107546404D01*
X138056133Y-107078606D01*
X137976225Y-106885692D01*
X137843296Y-106757848D01*
X137159144Y-107442000D01*
X136652856Y-107442000D01*
X135968704Y-106757848D01*
X135835775Y-106885692D01*
X135704351Y-107337596D01*
X124102000Y-107337596D01*
X124102000Y-106504704D01*
X136221848Y-106504704D01*
X136906000Y-107188856D01*
X137590152Y-106504704D01*
X137462308Y-106371775D01*
X137010404Y-106240351D01*
X136542606Y-106291867D01*
X136349692Y-106371775D01*
X136221848Y-106504704D01*
X124102000Y-106504704D01*
X124102000Y-103048320D01*
X127229622Y-103048320D01*
X127561264Y-103850954D01*
X128174816Y-104465578D01*
X128976870Y-104798620D01*
X129845320Y-104799378D01*
X130647954Y-104467736D01*
X131262578Y-103854184D01*
X131595620Y-103052130D01*
X131596378Y-102183680D01*
X131264736Y-101381046D01*
X130651184Y-100766422D01*
X130614044Y-100751000D01*
X138523715Y-100751000D01*
X138523715Y-104467000D01*
X159418286Y-104467000D01*
X159418286Y-102921320D01*
X166303622Y-102921320D01*
X166635264Y-103723954D01*
X167248816Y-104338578D01*
X168050870Y-104671620D01*
X168919320Y-104672378D01*
X169721954Y-104340736D01*
X170336578Y-103727184D01*
X170669620Y-102925130D01*
X170670378Y-102056680D01*
X170338736Y-101254046D01*
X169725184Y-100639422D01*
X168923130Y-100306380D01*
X168054680Y-100305622D01*
X167252046Y-100637264D01*
X166637422Y-101250816D01*
X166304380Y-102052870D01*
X166303622Y-102921320D01*
X159418286Y-102921320D01*
X159418286Y-100751000D01*
X138523715Y-100751000D01*
X130614044Y-100751000D01*
X129849130Y-100433380D01*
X128980680Y-100432622D01*
X128178046Y-100764264D01*
X127563422Y-101377816D01*
X127230380Y-102179870D01*
X127229622Y-103048320D01*
X124102000Y-103048320D01*
X124102000Y-99210000D01*
X173840000Y-99210000D01*
X173840000Y-140820000D01*
M02*
