%FSLAX45Y45*%
G04 Gerber Fmt 4.5, Leading zero omitted, Abs format (unit mm)*
G04 Created by KiCad (PCBNEW 0.201509101502+6177~30~ubuntu15.04.1-product) date Sat 12 Sep 2015 07:26:31 PM CEST*
%MOMM*%
G01*
G04 APERTURE LIST*
%ADD10C,0.127000*%
%ADD11C,0.100000*%
%ADD12C,0.200000*%
%ADD13C,0.300000*%
G04 APERTURE END LIST*
D10*
D11*
X17424400Y-508000D02*
X-508000Y-508000D01*
X17424400Y-431800D02*
X17424400Y-508000D01*
X17424400Y13843000D02*
X254000Y13843000D01*
X17424400Y-431800D02*
X17424400Y13843000D01*
X-508000Y13843000D02*
X-508000Y-508000D01*
X254000Y13843000D02*
X-508000Y13843000D01*
D12*
X-101380Y8647090D02*
X-61380Y8607090D01*
X-61380Y8647090D02*
X-101380Y8607090D01*
X122080Y9723850D02*
X162080Y9683850D01*
X162080Y9723850D02*
X122080Y9683850D01*
X207350Y9091040D02*
X247350Y9051040D01*
X247350Y9091040D02*
X207350Y9051040D01*
X494350Y5411150D02*
X534350Y5371150D01*
X534350Y5411150D02*
X494350Y5371150D01*
X1034100Y11932600D02*
X1074100Y11892600D01*
X1074100Y11932600D02*
X1034100Y11892600D01*
X4314230Y8669980D02*
X4354230Y8629980D01*
X4354230Y8669980D02*
X4314230Y8629980D01*
X4448270Y7940560D02*
X4488270Y7900560D01*
X4488270Y7940560D02*
X4448270Y7900560D01*
X4648760Y8452700D02*
X4688760Y8412700D01*
X4688760Y8452700D02*
X4648760Y8412700D01*
X4719950Y11328390D02*
X4759950Y11288390D01*
X4759950Y11328390D02*
X4719950Y11288390D01*
X4882200Y5112700D02*
X4922200Y5072700D01*
X4922200Y5112700D02*
X4882200Y5072700D01*
X5105480Y5410080D02*
X5145480Y5370080D01*
X5145480Y5410080D02*
X5105480Y5370080D01*
X5241000Y8935680D02*
X5281000Y8895680D01*
X5281000Y8935680D02*
X5241000Y8895680D01*
X5332920Y5534850D02*
X5372920Y5494850D01*
X5372920Y5534850D02*
X5332920Y5494850D01*
X5511230Y8909650D02*
X5551230Y8869650D01*
X5551230Y8909650D02*
X5511230Y8869650D01*
X5511230Y7702350D02*
X5551230Y7662350D01*
X5551230Y7702350D02*
X5511230Y7662350D01*
X5537850Y7150250D02*
X5577850Y7110250D01*
X5577850Y7150250D02*
X5537850Y7110250D01*
X5687650Y7974830D02*
X5727650Y7934830D01*
X5727650Y7974830D02*
X5687650Y7934830D01*
X5793610Y5116210D02*
X5833610Y5076210D01*
X5833610Y5116210D02*
X5793610Y5076210D01*
X5960150Y7935070D02*
X6000150Y7895070D01*
X6000150Y7935070D02*
X5960150Y7895070D01*
X6844350Y10541950D02*
X6884350Y10501950D01*
X6884350Y10541950D02*
X6844350Y10501950D01*
X7380430Y8562310D02*
X7420430Y8522310D01*
X7420430Y8562310D02*
X7380430Y8522310D01*
X7403960Y8910000D02*
X7443960Y8870000D01*
X7443960Y8910000D02*
X7403960Y8870000D01*
X7499170Y9802280D02*
X7539170Y9762280D01*
X7539170Y9802280D02*
X7499170Y9762280D01*
X7674300Y7961040D02*
X7714300Y7921040D01*
X7714300Y7961040D02*
X7674300Y7921040D01*
X8044500Y4985700D02*
X8084500Y4945700D01*
X8084500Y4985700D02*
X8044500Y4945700D01*
X8409900Y5052100D02*
X8449900Y5012100D01*
X8449900Y5052100D02*
X8409900Y5012100D01*
X8438200Y4846000D02*
X8478200Y4806000D01*
X8478200Y4846000D02*
X8438200Y4806000D01*
X8576830Y8681170D02*
X8616830Y8641170D01*
X8616830Y8681170D02*
X8576830Y8641170D01*
X8932040Y7722560D02*
X8972040Y7682560D01*
X8972040Y7722560D02*
X8932040Y7682560D01*
X9103670Y8275000D02*
X9143670Y8235000D01*
X9143670Y8275000D02*
X9103670Y8235000D01*
X9129080Y10195240D02*
X9169080Y10155240D01*
X9169080Y10195240D02*
X9129080Y10155240D01*
X9998330Y8559880D02*
X10038330Y8519880D01*
X10038330Y8559880D02*
X9998330Y8519880D01*
X10327960Y8930320D02*
X10367960Y8890320D01*
X10367960Y8930320D02*
X10327960Y8890320D01*
X10338120Y9164000D02*
X10378120Y9124000D01*
X10378120Y9164000D02*
X10338120Y9124000D01*
X10462200Y8601650D02*
X10502200Y8561650D01*
X10502200Y8601650D02*
X10462200Y8561650D01*
X11099150Y8890390D02*
X11139150Y8850390D01*
X11139150Y8890390D02*
X11099150Y8850390D01*
X11269450Y8347580D02*
X11309450Y8307580D01*
X11309450Y8347580D02*
X11269450Y8307580D01*
X11488580Y8740190D02*
X11528580Y8700190D01*
X11528580Y8740190D02*
X11488580Y8700190D01*
X11575100Y2052000D02*
X11615100Y2012000D01*
X11615100Y2052000D02*
X11575100Y2012000D01*
X11607930Y2370330D02*
X11647930Y2330330D01*
X11647930Y2370330D02*
X11607930Y2330330D01*
X11620700Y4416080D02*
X11660700Y4376080D01*
X11660700Y4416080D02*
X11620700Y4376080D01*
X11944120Y7977860D02*
X11984120Y7937860D01*
X11984120Y7977860D02*
X11944120Y7937860D01*
X12493470Y5115700D02*
X12533470Y5075700D01*
X12533470Y5115700D02*
X12493470Y5075700D01*
X12776850Y5057810D02*
X12816850Y5017810D01*
X12816850Y5057810D02*
X12776850Y5017810D01*
X12994790Y4846000D02*
X13034790Y4806000D01*
X13034790Y4846000D02*
X12994790Y4806000D01*
X13087680Y8609700D02*
X13127680Y8569700D01*
X13127680Y8609700D02*
X13087680Y8569700D01*
X13146890Y9153120D02*
X13186890Y9113120D01*
X13186890Y9153120D02*
X13146890Y9113120D01*
X13259120Y8026080D02*
X13299120Y7986080D01*
X13299120Y8026080D02*
X13259120Y7986080D01*
X13543600Y4077650D02*
X13583600Y4037650D01*
X13583600Y4077650D02*
X13543600Y4037650D01*
X13576570Y4846000D02*
X13616570Y4806000D01*
X13616570Y4846000D02*
X13576570Y4806000D01*
X14170750Y8397400D02*
X14210750Y8357400D01*
X14210750Y8397400D02*
X14170750Y8357400D01*
X14235830Y5019020D02*
X14275830Y4979020D01*
X14275830Y5019020D02*
X14235830Y4979020D01*
X14326420Y4206420D02*
X14366420Y4166420D01*
X14366420Y4206420D02*
X14326420Y4166420D01*
X14423660Y5000260D02*
X14463660Y4960260D01*
X14463660Y5000260D02*
X14423660Y4960260D01*
X14487780Y9845550D02*
X14527780Y9805550D01*
X14527780Y9845550D02*
X14487780Y9805550D01*
X14510840Y4902010D02*
X14550840Y4862010D01*
X14550840Y4902010D02*
X14510840Y4862010D01*
X14681510Y4854950D02*
X14721510Y4814950D01*
X14721510Y4854950D02*
X14681510Y4814950D01*
X15434410Y11871080D02*
X15474410Y11831080D01*
X15474410Y11871080D02*
X15434410Y11831080D01*
X15481800Y4984410D02*
X15521800Y4944410D01*
X15521800Y4984410D02*
X15481800Y4944410D01*
X15703150Y8676930D02*
X15743150Y8636930D01*
X15743150Y8676930D02*
X15703150Y8636930D01*
X16131860Y7990520D02*
X16171860Y7950520D01*
X16171860Y7990520D02*
X16131860Y7950520D01*
X16136940Y8460420D02*
X16176940Y8420420D01*
X16176940Y8460420D02*
X16136940Y8420420D01*
X8884920Y13164820D02*
G75*
G03X8884920Y13164820I-32512J0D01*
G01*
X8999474Y13314934D02*
G75*
G03X8999474Y13314934I-32512J0D01*
G01*
X8999474Y13014960D02*
G75*
G03X8999474Y13014960I-32512J0D01*
G01*
X9114028Y13164820D02*
G75*
G03X9114028Y13164820I-32512J0D01*
G01*
X9228582Y13314934D02*
G75*
G03X9228582Y13314934I-32512J0D01*
G01*
X9228582Y13014960D02*
G75*
G03X9228582Y13014960I-32512J0D01*
G01*
X9343136Y13164820D02*
G75*
G03X9343136Y13164820I-32512J0D01*
G01*
X9457182Y13014960D02*
G75*
G03X9457182Y13014960I-32512J0D01*
G01*
X9457436Y13314680D02*
G75*
G03X9457436Y13314680I-32512J0D01*
G01*
X9571990Y13164820D02*
G75*
G03X9571990Y13164820I-32512J0D01*
G01*
X9686544Y13314934D02*
G75*
G03X9686544Y13314934I-32512J0D01*
G01*
X9686544Y13014960D02*
G75*
G03X9686544Y13014960I-32512J0D01*
G01*
X9801098Y13164820D02*
G75*
G03X9801098Y13164820I-32512J0D01*
G01*
X9915398Y13314934D02*
G75*
G03X9915398Y13314934I-32512J0D01*
G01*
X9915398Y13014960D02*
G75*
G03X9915398Y13014960I-32512J0D01*
G01*
X4191000Y11722100D02*
X4191000Y11645900D01*
X4152900Y11684000D02*
X4229100Y11684000D01*
X4191000Y11468100D02*
X4191000Y11391900D01*
X4152900Y11430000D02*
X4229100Y11430000D01*
X4191000Y11214100D02*
X4191000Y11137900D01*
X4152900Y11176000D02*
X4229100Y11176000D01*
X4191000Y10960100D02*
X4191000Y10883900D01*
X4152900Y10922000D02*
X4229100Y10922000D01*
X4191000Y10706100D02*
X4191000Y10629900D01*
X4152900Y10668000D02*
X4229100Y10668000D01*
X4191000Y10452100D02*
X4191000Y10375900D01*
X4152900Y10414000D02*
X4229100Y10414000D01*
X4191000Y10198100D02*
X4191000Y10121900D01*
X4152900Y10160000D02*
X4229100Y10160000D01*
X4191000Y9944100D02*
X4191000Y9867900D01*
X4152900Y9906000D02*
X4229100Y9906000D01*
X4191000Y9690100D02*
X4191000Y9613900D01*
X4152900Y9652000D02*
X4229100Y9652000D01*
X4191000Y9436100D02*
X4191000Y9359900D01*
X4152900Y9398000D02*
X4229100Y9398000D01*
X4191000Y9182100D02*
X4191000Y9105900D01*
X4152900Y9144000D02*
X4229100Y9144000D01*
X4191000Y8928100D02*
X4191000Y8851900D01*
X4152900Y8890000D02*
X4229100Y8890000D01*
X4191000Y8293100D02*
X4191000Y8216900D01*
X4152900Y8255000D02*
X4229100Y8255000D01*
X4191000Y8039100D02*
X4191000Y7962900D01*
X4152900Y8001000D02*
X4229100Y8001000D01*
X4191000Y7785100D02*
X4191000Y7708900D01*
X4152900Y7747000D02*
X4229100Y7747000D01*
X4191000Y7531100D02*
X4191000Y7454900D01*
X4152900Y7493000D02*
X4229100Y7493000D01*
X4191000Y7277100D02*
X4191000Y7200900D01*
X4152900Y7239000D02*
X4229100Y7239000D01*
X4191000Y7023100D02*
X4191000Y6946900D01*
X4152900Y6985000D02*
X4229100Y6985000D01*
X4191000Y6769100D02*
X4191000Y6692900D01*
X4152900Y6731000D02*
X4229100Y6731000D01*
X4191000Y6515100D02*
X4191000Y6438900D01*
X4152900Y6477000D02*
X4229100Y6477000D01*
X4191000Y6261100D02*
X4191000Y6184900D01*
X4152900Y6223000D02*
X4229100Y6223000D01*
X4191000Y6007100D02*
X4191000Y5930900D01*
X4152900Y5969000D02*
X4229100Y5969000D01*
X4191000Y5753100D02*
X4191000Y5676900D01*
X4152900Y5715000D02*
X4229100Y5715000D01*
X4191000Y5499100D02*
X4191000Y5422900D01*
X4152900Y5461000D02*
X4229100Y5461000D01*
X4953000Y11722100D02*
X4953000Y11645900D01*
X4914900Y11684000D02*
X4991100Y11684000D01*
X4953000Y11468100D02*
X4953000Y11391900D01*
X4914900Y11430000D02*
X4991100Y11430000D01*
X4953000Y11214100D02*
X4953000Y11137900D01*
X4914900Y11176000D02*
X4991100Y11176000D01*
X4953000Y10960100D02*
X4953000Y10883900D01*
X4914900Y10922000D02*
X4991100Y10922000D01*
X4953000Y10706100D02*
X4953000Y10629900D01*
X4914900Y10668000D02*
X4991100Y10668000D01*
X4953000Y10452100D02*
X4953000Y10375900D01*
X4914900Y10414000D02*
X4991100Y10414000D01*
X4953000Y10198100D02*
X4953000Y10121900D01*
X4914900Y10160000D02*
X4991100Y10160000D01*
X4953000Y9944100D02*
X4953000Y9867900D01*
X4914900Y9906000D02*
X4991100Y9906000D01*
X4953000Y9690100D02*
X4953000Y9613900D01*
X4914900Y9652000D02*
X4991100Y9652000D01*
X4953000Y9436100D02*
X4953000Y9359900D01*
X4914900Y9398000D02*
X4991100Y9398000D01*
X4953000Y9182100D02*
X4953000Y9105900D01*
X4914900Y9144000D02*
X4991100Y9144000D01*
X4953000Y8928100D02*
X4953000Y8851900D01*
X4914900Y8890000D02*
X4991100Y8890000D01*
X4953000Y8293100D02*
X4953000Y8216900D01*
X4914900Y8255000D02*
X4991100Y8255000D01*
X4953000Y8039100D02*
X4953000Y7962900D01*
X4914900Y8001000D02*
X4991100Y8001000D01*
X4953000Y7785100D02*
X4953000Y7708900D01*
X4914900Y7747000D02*
X4991100Y7747000D01*
X4953000Y7531100D02*
X4953000Y7454900D01*
X4914900Y7493000D02*
X4991100Y7493000D01*
X4953000Y7277100D02*
X4953000Y7200900D01*
X4914900Y7239000D02*
X4991100Y7239000D01*
X4953000Y7023100D02*
X4953000Y6946900D01*
X4914900Y6985000D02*
X4991100Y6985000D01*
X4953000Y6769100D02*
X4953000Y6692900D01*
X4914900Y6731000D02*
X4991100Y6731000D01*
X4953000Y6515100D02*
X4953000Y6438900D01*
X4914900Y6477000D02*
X4991100Y6477000D01*
X4953000Y6261100D02*
X4953000Y6184900D01*
X4914900Y6223000D02*
X4991100Y6223000D01*
X4953000Y6007100D02*
X4953000Y5930900D01*
X4914900Y5969000D02*
X4991100Y5969000D01*
X4953000Y5753100D02*
X4953000Y5676900D01*
X4914900Y5715000D02*
X4991100Y5715000D01*
X4953000Y5499100D02*
X4953000Y5422900D01*
X4914900Y5461000D02*
X4991100Y5461000D01*
X7239000Y11722100D02*
X7239000Y11645900D01*
X7200900Y11684000D02*
X7277100Y11684000D01*
X7239000Y11468100D02*
X7239000Y11391900D01*
X7200900Y11430000D02*
X7277100Y11430000D01*
X7239000Y11214100D02*
X7239000Y11137900D01*
X7200900Y11176000D02*
X7277100Y11176000D01*
X7239000Y10960100D02*
X7239000Y10883900D01*
X7200900Y10922000D02*
X7277100Y10922000D01*
X7239000Y10706100D02*
X7239000Y10629900D01*
X7200900Y10668000D02*
X7277100Y10668000D01*
X7239000Y10452100D02*
X7239000Y10375900D01*
X7200900Y10414000D02*
X7277100Y10414000D01*
X7239000Y10198100D02*
X7239000Y10121900D01*
X7200900Y10160000D02*
X7277100Y10160000D01*
X7239000Y9944100D02*
X7239000Y9867900D01*
X7200900Y9906000D02*
X7277100Y9906000D01*
X7239000Y9690100D02*
X7239000Y9613900D01*
X7200900Y9652000D02*
X7277100Y9652000D01*
X7239000Y9436100D02*
X7239000Y9359900D01*
X7200900Y9398000D02*
X7277100Y9398000D01*
X7239000Y9182100D02*
X7239000Y9105900D01*
X7200900Y9144000D02*
X7277100Y9144000D01*
X7239000Y8928100D02*
X7239000Y8851900D01*
X7200900Y8890000D02*
X7277100Y8890000D01*
X7239000Y8293100D02*
X7239000Y8216900D01*
X7200900Y8255000D02*
X7277100Y8255000D01*
X7239000Y8039100D02*
X7239000Y7962900D01*
X7200900Y8001000D02*
X7277100Y8001000D01*
X7239000Y7785100D02*
X7239000Y7708900D01*
X7200900Y7747000D02*
X7277100Y7747000D01*
X7239000Y7531100D02*
X7239000Y7454900D01*
X7200900Y7493000D02*
X7277100Y7493000D01*
X7239000Y7277100D02*
X7239000Y7200900D01*
X7200900Y7239000D02*
X7277100Y7239000D01*
X7239000Y7023100D02*
X7239000Y6946900D01*
X7200900Y6985000D02*
X7277100Y6985000D01*
X7239000Y6769100D02*
X7239000Y6692900D01*
X7200900Y6731000D02*
X7277100Y6731000D01*
X7239000Y6515100D02*
X7239000Y6438900D01*
X7200900Y6477000D02*
X7277100Y6477000D01*
X7239000Y6261100D02*
X7239000Y6184900D01*
X7200900Y6223000D02*
X7277100Y6223000D01*
X7239000Y6007100D02*
X7239000Y5930900D01*
X7200900Y5969000D02*
X7277100Y5969000D01*
X7239000Y5753100D02*
X7239000Y5676900D01*
X7200900Y5715000D02*
X7277100Y5715000D01*
X7239000Y5499100D02*
X7239000Y5422900D01*
X7200900Y5461000D02*
X7277100Y5461000D01*
X8001000Y11722100D02*
X8001000Y11645900D01*
X7962900Y11684000D02*
X8039100Y11684000D01*
X8001000Y11468100D02*
X8001000Y11391900D01*
X7962900Y11430000D02*
X8039100Y11430000D01*
X8001000Y11214100D02*
X8001000Y11137900D01*
X7962900Y11176000D02*
X8039100Y11176000D01*
X8001000Y10960100D02*
X8001000Y10883900D01*
X7962900Y10922000D02*
X8039100Y10922000D01*
X8001000Y10706100D02*
X8001000Y10629900D01*
X7962900Y10668000D02*
X8039100Y10668000D01*
X8001000Y10452100D02*
X8001000Y10375900D01*
X7962900Y10414000D02*
X8039100Y10414000D01*
X8001000Y10198100D02*
X8001000Y10121900D01*
X7962900Y10160000D02*
X8039100Y10160000D01*
X8001000Y9944100D02*
X8001000Y9867900D01*
X7962900Y9906000D02*
X8039100Y9906000D01*
X8001000Y9690100D02*
X8001000Y9613900D01*
X7962900Y9652000D02*
X8039100Y9652000D01*
X8001000Y9436100D02*
X8001000Y9359900D01*
X7962900Y9398000D02*
X8039100Y9398000D01*
X8001000Y9182100D02*
X8001000Y9105900D01*
X7962900Y9144000D02*
X8039100Y9144000D01*
X8001000Y8928100D02*
X8001000Y8851900D01*
X7962900Y8890000D02*
X8039100Y8890000D01*
X8001000Y8293100D02*
X8001000Y8216900D01*
X7962900Y8255000D02*
X8039100Y8255000D01*
X8001000Y8039100D02*
X8001000Y7962900D01*
X7962900Y8001000D02*
X8039100Y8001000D01*
X8001000Y7785100D02*
X8001000Y7708900D01*
X7962900Y7747000D02*
X8039100Y7747000D01*
X8001000Y7531100D02*
X8001000Y7454900D01*
X7962900Y7493000D02*
X8039100Y7493000D01*
X8001000Y7277100D02*
X8001000Y7200900D01*
X7962900Y7239000D02*
X8039100Y7239000D01*
X8001000Y7023100D02*
X8001000Y6946900D01*
X7962900Y6985000D02*
X8039100Y6985000D01*
X8001000Y6769100D02*
X8001000Y6692900D01*
X7962900Y6731000D02*
X8039100Y6731000D01*
X8001000Y6515100D02*
X8001000Y6438900D01*
X7962900Y6477000D02*
X8039100Y6477000D01*
X8001000Y6261100D02*
X8001000Y6184900D01*
X7962900Y6223000D02*
X8039100Y6223000D01*
X8001000Y6007100D02*
X8001000Y5930900D01*
X7962900Y5969000D02*
X8039100Y5969000D01*
X8001000Y5753100D02*
X8001000Y5676900D01*
X7962900Y5715000D02*
X8039100Y5715000D01*
X8001000Y5499100D02*
X8001000Y5422900D01*
X7962900Y5461000D02*
X8039100Y5461000D01*
X9144000Y4864100D02*
X9144000Y4787900D01*
X9105900Y4826000D02*
X9182100Y4826000D01*
X9144000Y4610100D02*
X9144000Y4533900D01*
X9105900Y4572000D02*
X9182100Y4572000D01*
X9144000Y4356100D02*
X9144000Y4279900D01*
X9105900Y4318000D02*
X9182100Y4318000D01*
X9144000Y4102100D02*
X9144000Y4025900D01*
X9105900Y4064000D02*
X9182100Y4064000D01*
X9144000Y3848100D02*
X9144000Y3771900D01*
X9105900Y3810000D02*
X9182100Y3810000D01*
X9144000Y3594100D02*
X9144000Y3517900D01*
X9105900Y3556000D02*
X9182100Y3556000D01*
X9144000Y3340100D02*
X9144000Y3263900D01*
X9105900Y3302000D02*
X9182100Y3302000D01*
X9144000Y3086100D02*
X9144000Y3009900D01*
X9105900Y3048000D02*
X9182100Y3048000D01*
X9144000Y2832100D02*
X9144000Y2755900D01*
X9105900Y2794000D02*
X9182100Y2794000D01*
X9144000Y2578100D02*
X9144000Y2501900D01*
X9105900Y2540000D02*
X9182100Y2540000D01*
X9144000Y2324100D02*
X9144000Y2247900D01*
X9105900Y2286000D02*
X9182100Y2286000D01*
X9144000Y2070100D02*
X9144000Y1993900D01*
X9105900Y2032000D02*
X9182100Y2032000D01*
X9906000Y4864100D02*
X9906000Y4787900D01*
X9867900Y4826000D02*
X9944100Y4826000D01*
X9906000Y4610100D02*
X9906000Y4533900D01*
X9867900Y4572000D02*
X9944100Y4572000D01*
X9906000Y4356100D02*
X9906000Y4279900D01*
X9867900Y4318000D02*
X9944100Y4318000D01*
X9906000Y4102100D02*
X9906000Y4025900D01*
X9867900Y4064000D02*
X9944100Y4064000D01*
X9906000Y3848100D02*
X9906000Y3771900D01*
X9867900Y3810000D02*
X9944100Y3810000D01*
X9906000Y3594100D02*
X9906000Y3517900D01*
X9867900Y3556000D02*
X9944100Y3556000D01*
X9906000Y3340100D02*
X9906000Y3263900D01*
X9867900Y3302000D02*
X9944100Y3302000D01*
X9906000Y3086100D02*
X9906000Y3009900D01*
X9867900Y3048000D02*
X9944100Y3048000D01*
X9906000Y2832100D02*
X9906000Y2755900D01*
X9867900Y2794000D02*
X9944100Y2794000D01*
X9906000Y2578100D02*
X9906000Y2501900D01*
X9867900Y2540000D02*
X9944100Y2540000D01*
X9906000Y2324100D02*
X9906000Y2247900D01*
X9867900Y2286000D02*
X9944100Y2286000D01*
X9906000Y2070100D02*
X9906000Y1993900D01*
X9867900Y2032000D02*
X9944100Y2032000D01*
X10033000Y11722100D02*
X10033000Y11645900D01*
X9994900Y11684000D02*
X10071100Y11684000D01*
X10033000Y11468100D02*
X10033000Y11391900D01*
X9994900Y11430000D02*
X10071100Y11430000D01*
X10033000Y11214100D02*
X10033000Y11137900D01*
X9994900Y11176000D02*
X10071100Y11176000D01*
X10033000Y10960100D02*
X10033000Y10883900D01*
X9994900Y10922000D02*
X10071100Y10922000D01*
X10033000Y10706100D02*
X10033000Y10629900D01*
X9994900Y10668000D02*
X10071100Y10668000D01*
X10033000Y10452100D02*
X10033000Y10375900D01*
X9994900Y10414000D02*
X10071100Y10414000D01*
X10033000Y10198100D02*
X10033000Y10121900D01*
X9994900Y10160000D02*
X10071100Y10160000D01*
X10033000Y9944100D02*
X10033000Y9867900D01*
X9994900Y9906000D02*
X10071100Y9906000D01*
X10033000Y9690100D02*
X10033000Y9613900D01*
X9994900Y9652000D02*
X10071100Y9652000D01*
X10033000Y9436100D02*
X10033000Y9359900D01*
X9994900Y9398000D02*
X10071100Y9398000D01*
X10033000Y9182100D02*
X10033000Y9105900D01*
X9994900Y9144000D02*
X10071100Y9144000D01*
X10033000Y8928100D02*
X10033000Y8851900D01*
X9994900Y8890000D02*
X10071100Y8890000D01*
X10033000Y8293100D02*
X10033000Y8216900D01*
X9994900Y8255000D02*
X10071100Y8255000D01*
X10033000Y8039100D02*
X10033000Y7962900D01*
X9994900Y8001000D02*
X10071100Y8001000D01*
X10033000Y7785100D02*
X10033000Y7708900D01*
X9994900Y7747000D02*
X10071100Y7747000D01*
X10033000Y7531100D02*
X10033000Y7454900D01*
X9994900Y7493000D02*
X10071100Y7493000D01*
X10033000Y7277100D02*
X10033000Y7200900D01*
X9994900Y7239000D02*
X10071100Y7239000D01*
X10033000Y7023100D02*
X10033000Y6946900D01*
X9994900Y6985000D02*
X10071100Y6985000D01*
X10033000Y6769100D02*
X10033000Y6692900D01*
X9994900Y6731000D02*
X10071100Y6731000D01*
X10033000Y6515100D02*
X10033000Y6438900D01*
X9994900Y6477000D02*
X10071100Y6477000D01*
X10033000Y6261100D02*
X10033000Y6184900D01*
X9994900Y6223000D02*
X10071100Y6223000D01*
X10033000Y6007100D02*
X10033000Y5930900D01*
X9994900Y5969000D02*
X10071100Y5969000D01*
X10033000Y5753100D02*
X10033000Y5676900D01*
X9994900Y5715000D02*
X10071100Y5715000D01*
X10033000Y5499100D02*
X10033000Y5422900D01*
X9994900Y5461000D02*
X10071100Y5461000D01*
X10795000Y11722100D02*
X10795000Y11645900D01*
X10756900Y11684000D02*
X10833100Y11684000D01*
X10795000Y11468100D02*
X10795000Y11391900D01*
X10756900Y11430000D02*
X10833100Y11430000D01*
X10795000Y11214100D02*
X10795000Y11137900D01*
X10756900Y11176000D02*
X10833100Y11176000D01*
X10795000Y10960100D02*
X10795000Y10883900D01*
X10756900Y10922000D02*
X10833100Y10922000D01*
X10795000Y10706100D02*
X10795000Y10629900D01*
X10756900Y10668000D02*
X10833100Y10668000D01*
X10795000Y10452100D02*
X10795000Y10375900D01*
X10756900Y10414000D02*
X10833100Y10414000D01*
X10795000Y10198100D02*
X10795000Y10121900D01*
X10756900Y10160000D02*
X10833100Y10160000D01*
X10795000Y9944100D02*
X10795000Y9867900D01*
X10756900Y9906000D02*
X10833100Y9906000D01*
X10795000Y9690100D02*
X10795000Y9613900D01*
X10756900Y9652000D02*
X10833100Y9652000D01*
X10795000Y9436100D02*
X10795000Y9359900D01*
X10756900Y9398000D02*
X10833100Y9398000D01*
X10795000Y9182100D02*
X10795000Y9105900D01*
X10756900Y9144000D02*
X10833100Y9144000D01*
X10795000Y8928100D02*
X10795000Y8851900D01*
X10756900Y8890000D02*
X10833100Y8890000D01*
X10795000Y8293100D02*
X10795000Y8216900D01*
X10756900Y8255000D02*
X10833100Y8255000D01*
X10795000Y8039100D02*
X10795000Y7962900D01*
X10756900Y8001000D02*
X10833100Y8001000D01*
X10795000Y7785100D02*
X10795000Y7708900D01*
X10756900Y7747000D02*
X10833100Y7747000D01*
X10795000Y7531100D02*
X10795000Y7454900D01*
X10756900Y7493000D02*
X10833100Y7493000D01*
X10795000Y7277100D02*
X10795000Y7200900D01*
X10756900Y7239000D02*
X10833100Y7239000D01*
X10795000Y7023100D02*
X10795000Y6946900D01*
X10756900Y6985000D02*
X10833100Y6985000D01*
X10795000Y6769100D02*
X10795000Y6692900D01*
X10756900Y6731000D02*
X10833100Y6731000D01*
X10795000Y6515100D02*
X10795000Y6438900D01*
X10756900Y6477000D02*
X10833100Y6477000D01*
X10795000Y6261100D02*
X10795000Y6184900D01*
X10756900Y6223000D02*
X10833100Y6223000D01*
X10795000Y6007100D02*
X10795000Y5930900D01*
X10756900Y5969000D02*
X10833100Y5969000D01*
X10795000Y5753100D02*
X10795000Y5676900D01*
X10756900Y5715000D02*
X10833100Y5715000D01*
X10795000Y5499100D02*
X10795000Y5422900D01*
X10756900Y5461000D02*
X10833100Y5461000D01*
X11176000Y4864100D02*
X11176000Y4787900D01*
X11137900Y4826000D02*
X11214100Y4826000D01*
X11176000Y4610100D02*
X11176000Y4533900D01*
X11137900Y4572000D02*
X11214100Y4572000D01*
X11176000Y4356100D02*
X11176000Y4279900D01*
X11137900Y4318000D02*
X11214100Y4318000D01*
X11176000Y4102100D02*
X11176000Y4025900D01*
X11137900Y4064000D02*
X11214100Y4064000D01*
X11176000Y3848100D02*
X11176000Y3771900D01*
X11137900Y3810000D02*
X11214100Y3810000D01*
X11176000Y3594100D02*
X11176000Y3517900D01*
X11137900Y3556000D02*
X11214100Y3556000D01*
X11176000Y3340100D02*
X11176000Y3263900D01*
X11137900Y3302000D02*
X11214100Y3302000D01*
X11176000Y3086100D02*
X11176000Y3009900D01*
X11137900Y3048000D02*
X11214100Y3048000D01*
X11176000Y2832100D02*
X11176000Y2755900D01*
X11137900Y2794000D02*
X11214100Y2794000D01*
X11176000Y2578100D02*
X11176000Y2501900D01*
X11137900Y2540000D02*
X11214100Y2540000D01*
X11176000Y2324100D02*
X11176000Y2247900D01*
X11137900Y2286000D02*
X11214100Y2286000D01*
X11176000Y2070100D02*
X11176000Y1993900D01*
X11137900Y2032000D02*
X11214100Y2032000D01*
X11938000Y4864100D02*
X11938000Y4787900D01*
X11899900Y4826000D02*
X11976100Y4826000D01*
X11938000Y4610100D02*
X11938000Y4533900D01*
X11899900Y4572000D02*
X11976100Y4572000D01*
X11938000Y4356100D02*
X11938000Y4279900D01*
X11899900Y4318000D02*
X11976100Y4318000D01*
X11938000Y4102100D02*
X11938000Y4025900D01*
X11899900Y4064000D02*
X11976100Y4064000D01*
X11938000Y3848100D02*
X11938000Y3771900D01*
X11899900Y3810000D02*
X11976100Y3810000D01*
X11938000Y3594100D02*
X11938000Y3517900D01*
X11899900Y3556000D02*
X11976100Y3556000D01*
X11938000Y3340100D02*
X11938000Y3263900D01*
X11899900Y3302000D02*
X11976100Y3302000D01*
X11938000Y3086100D02*
X11938000Y3009900D01*
X11899900Y3048000D02*
X11976100Y3048000D01*
X11938000Y2832100D02*
X11938000Y2755900D01*
X11899900Y2794000D02*
X11976100Y2794000D01*
X11938000Y2578100D02*
X11938000Y2501900D01*
X11899900Y2540000D02*
X11976100Y2540000D01*
X11938000Y2324100D02*
X11938000Y2247900D01*
X11899900Y2286000D02*
X11976100Y2286000D01*
X11938000Y2070100D02*
X11938000Y1993900D01*
X11899900Y2032000D02*
X11976100Y2032000D01*
X12827000Y11722100D02*
X12827000Y11645900D01*
X12788900Y11684000D02*
X12865100Y11684000D01*
X12827000Y11468100D02*
X12827000Y11391900D01*
X12788900Y11430000D02*
X12865100Y11430000D01*
X12827000Y11214100D02*
X12827000Y11137900D01*
X12788900Y11176000D02*
X12865100Y11176000D01*
X12827000Y10960100D02*
X12827000Y10883900D01*
X12788900Y10922000D02*
X12865100Y10922000D01*
X12827000Y10706100D02*
X12827000Y10629900D01*
X12788900Y10668000D02*
X12865100Y10668000D01*
X12827000Y10452100D02*
X12827000Y10375900D01*
X12788900Y10414000D02*
X12865100Y10414000D01*
X12827000Y10198100D02*
X12827000Y10121900D01*
X12788900Y10160000D02*
X12865100Y10160000D01*
X12827000Y9944100D02*
X12827000Y9867900D01*
X12788900Y9906000D02*
X12865100Y9906000D01*
X12827000Y9690100D02*
X12827000Y9613900D01*
X12788900Y9652000D02*
X12865100Y9652000D01*
X12827000Y9436100D02*
X12827000Y9359900D01*
X12788900Y9398000D02*
X12865100Y9398000D01*
X12827000Y9182100D02*
X12827000Y9105900D01*
X12788900Y9144000D02*
X12865100Y9144000D01*
X12827000Y8928100D02*
X12827000Y8851900D01*
X12788900Y8890000D02*
X12865100Y8890000D01*
X12827000Y8293100D02*
X12827000Y8216900D01*
X12788900Y8255000D02*
X12865100Y8255000D01*
X12827000Y8039100D02*
X12827000Y7962900D01*
X12788900Y8001000D02*
X12865100Y8001000D01*
X12827000Y7785100D02*
X12827000Y7708900D01*
X12788900Y7747000D02*
X12865100Y7747000D01*
X12827000Y7531100D02*
X12827000Y7454900D01*
X12788900Y7493000D02*
X12865100Y7493000D01*
X12827000Y7277100D02*
X12827000Y7200900D01*
X12788900Y7239000D02*
X12865100Y7239000D01*
X12827000Y7023100D02*
X12827000Y6946900D01*
X12788900Y6985000D02*
X12865100Y6985000D01*
X12827000Y6769100D02*
X12827000Y6692900D01*
X12788900Y6731000D02*
X12865100Y6731000D01*
X12827000Y6515100D02*
X12827000Y6438900D01*
X12788900Y6477000D02*
X12865100Y6477000D01*
X12827000Y6261100D02*
X12827000Y6184900D01*
X12788900Y6223000D02*
X12865100Y6223000D01*
X12827000Y6007100D02*
X12827000Y5930900D01*
X12788900Y5969000D02*
X12865100Y5969000D01*
X12827000Y5753100D02*
X12827000Y5676900D01*
X12788900Y5715000D02*
X12865100Y5715000D01*
X12827000Y5499100D02*
X12827000Y5422900D01*
X12788900Y5461000D02*
X12865100Y5461000D01*
X13208000Y4864100D02*
X13208000Y4787900D01*
X13169900Y4826000D02*
X13246100Y4826000D01*
X13208000Y4610100D02*
X13208000Y4533900D01*
X13169900Y4572000D02*
X13246100Y4572000D01*
X13208000Y4356100D02*
X13208000Y4279900D01*
X13169900Y4318000D02*
X13246100Y4318000D01*
X13208000Y4102100D02*
X13208000Y4025900D01*
X13169900Y4064000D02*
X13246100Y4064000D01*
X13208000Y3848100D02*
X13208000Y3771900D01*
X13169900Y3810000D02*
X13246100Y3810000D01*
X13208000Y3594100D02*
X13208000Y3517900D01*
X13169900Y3556000D02*
X13246100Y3556000D01*
X13208000Y3340100D02*
X13208000Y3263900D01*
X13169900Y3302000D02*
X13246100Y3302000D01*
X13208000Y3086100D02*
X13208000Y3009900D01*
X13169900Y3048000D02*
X13246100Y3048000D01*
X13208000Y2832100D02*
X13208000Y2755900D01*
X13169900Y2794000D02*
X13246100Y2794000D01*
X13208000Y2578100D02*
X13208000Y2501900D01*
X13169900Y2540000D02*
X13246100Y2540000D01*
X13208000Y2324100D02*
X13208000Y2247900D01*
X13169900Y2286000D02*
X13246100Y2286000D01*
X13208000Y2070100D02*
X13208000Y1993900D01*
X13169900Y2032000D02*
X13246100Y2032000D01*
X13589000Y11722100D02*
X13589000Y11645900D01*
X13550900Y11684000D02*
X13627100Y11684000D01*
X13589000Y11468100D02*
X13589000Y11391900D01*
X13550900Y11430000D02*
X13627100Y11430000D01*
X13589000Y11214100D02*
X13589000Y11137900D01*
X13550900Y11176000D02*
X13627100Y11176000D01*
X13589000Y10960100D02*
X13589000Y10883900D01*
X13550900Y10922000D02*
X13627100Y10922000D01*
X13589000Y10706100D02*
X13589000Y10629900D01*
X13550900Y10668000D02*
X13627100Y10668000D01*
X13589000Y10452100D02*
X13589000Y10375900D01*
X13550900Y10414000D02*
X13627100Y10414000D01*
X13589000Y10198100D02*
X13589000Y10121900D01*
X13550900Y10160000D02*
X13627100Y10160000D01*
X13589000Y9944100D02*
X13589000Y9867900D01*
X13550900Y9906000D02*
X13627100Y9906000D01*
X13589000Y9690100D02*
X13589000Y9613900D01*
X13550900Y9652000D02*
X13627100Y9652000D01*
X13589000Y9436100D02*
X13589000Y9359900D01*
X13550900Y9398000D02*
X13627100Y9398000D01*
X13589000Y9182100D02*
X13589000Y9105900D01*
X13550900Y9144000D02*
X13627100Y9144000D01*
X13589000Y8928100D02*
X13589000Y8851900D01*
X13550900Y8890000D02*
X13627100Y8890000D01*
X13589000Y8293100D02*
X13589000Y8216900D01*
X13550900Y8255000D02*
X13627100Y8255000D01*
X13589000Y8039100D02*
X13589000Y7962900D01*
X13550900Y8001000D02*
X13627100Y8001000D01*
X13589000Y7785100D02*
X13589000Y7708900D01*
X13550900Y7747000D02*
X13627100Y7747000D01*
X13589000Y7531100D02*
X13589000Y7454900D01*
X13550900Y7493000D02*
X13627100Y7493000D01*
X13589000Y7277100D02*
X13589000Y7200900D01*
X13550900Y7239000D02*
X13627100Y7239000D01*
X13589000Y7023100D02*
X13589000Y6946900D01*
X13550900Y6985000D02*
X13627100Y6985000D01*
X13589000Y6769100D02*
X13589000Y6692900D01*
X13550900Y6731000D02*
X13627100Y6731000D01*
X13589000Y6515100D02*
X13589000Y6438900D01*
X13550900Y6477000D02*
X13627100Y6477000D01*
X13589000Y6261100D02*
X13589000Y6184900D01*
X13550900Y6223000D02*
X13627100Y6223000D01*
X13589000Y6007100D02*
X13589000Y5930900D01*
X13550900Y5969000D02*
X13627100Y5969000D01*
X13589000Y5753100D02*
X13589000Y5676900D01*
X13550900Y5715000D02*
X13627100Y5715000D01*
X13589000Y5499100D02*
X13589000Y5422900D01*
X13550900Y5461000D02*
X13627100Y5461000D01*
X13970000Y4864100D02*
X13970000Y4787900D01*
X13931900Y4826000D02*
X14008100Y4826000D01*
X13970000Y4610100D02*
X13970000Y4533900D01*
X13931900Y4572000D02*
X14008100Y4572000D01*
X13970000Y4356100D02*
X13970000Y4279900D01*
X13931900Y4318000D02*
X14008100Y4318000D01*
X13970000Y4102100D02*
X13970000Y4025900D01*
X13931900Y4064000D02*
X14008100Y4064000D01*
X13970000Y3848100D02*
X13970000Y3771900D01*
X13931900Y3810000D02*
X14008100Y3810000D01*
X13970000Y3594100D02*
X13970000Y3517900D01*
X13931900Y3556000D02*
X14008100Y3556000D01*
X13970000Y3340100D02*
X13970000Y3263900D01*
X13931900Y3302000D02*
X14008100Y3302000D01*
X13970000Y3086100D02*
X13970000Y3009900D01*
X13931900Y3048000D02*
X14008100Y3048000D01*
X13970000Y2832100D02*
X13970000Y2755900D01*
X13931900Y2794000D02*
X14008100Y2794000D01*
X13970000Y2578100D02*
X13970000Y2501900D01*
X13931900Y2540000D02*
X14008100Y2540000D01*
X13970000Y2324100D02*
X13970000Y2247900D01*
X13931900Y2286000D02*
X14008100Y2286000D01*
X13970000Y2070100D02*
X13970000Y1993900D01*
X13931900Y2032000D02*
X14008100Y2032000D01*
X15240000Y4864100D02*
X15240000Y4787900D01*
X15201900Y4826000D02*
X15278100Y4826000D01*
X15240000Y4610100D02*
X15240000Y4533900D01*
X15201900Y4572000D02*
X15278100Y4572000D01*
X15240000Y4356100D02*
X15240000Y4279900D01*
X15201900Y4318000D02*
X15278100Y4318000D01*
X15240000Y4102100D02*
X15240000Y4025900D01*
X15201900Y4064000D02*
X15278100Y4064000D01*
X15240000Y3848100D02*
X15240000Y3771900D01*
X15201900Y3810000D02*
X15278100Y3810000D01*
X15240000Y3594100D02*
X15240000Y3517900D01*
X15201900Y3556000D02*
X15278100Y3556000D01*
X15240000Y3340100D02*
X15240000Y3263900D01*
X15201900Y3302000D02*
X15278100Y3302000D01*
X15240000Y3086100D02*
X15240000Y3009900D01*
X15201900Y3048000D02*
X15278100Y3048000D01*
X15240000Y2832100D02*
X15240000Y2755900D01*
X15201900Y2794000D02*
X15278100Y2794000D01*
X15240000Y2578100D02*
X15240000Y2501900D01*
X15201900Y2540000D02*
X15278100Y2540000D01*
X15240000Y2324100D02*
X15240000Y2247900D01*
X15201900Y2286000D02*
X15278100Y2286000D01*
X15240000Y2070100D02*
X15240000Y1993900D01*
X15201900Y2032000D02*
X15278100Y2032000D01*
X15621000Y11722100D02*
X15621000Y11645900D01*
X15582900Y11684000D02*
X15659100Y11684000D01*
X15621000Y11468100D02*
X15621000Y11391900D01*
X15582900Y11430000D02*
X15659100Y11430000D01*
X15621000Y11214100D02*
X15621000Y11137900D01*
X15582900Y11176000D02*
X15659100Y11176000D01*
X15621000Y10960100D02*
X15621000Y10883900D01*
X15582900Y10922000D02*
X15659100Y10922000D01*
X15621000Y10706100D02*
X15621000Y10629900D01*
X15582900Y10668000D02*
X15659100Y10668000D01*
X15621000Y10452100D02*
X15621000Y10375900D01*
X15582900Y10414000D02*
X15659100Y10414000D01*
X15621000Y10198100D02*
X15621000Y10121900D01*
X15582900Y10160000D02*
X15659100Y10160000D01*
X15621000Y9944100D02*
X15621000Y9867900D01*
X15582900Y9906000D02*
X15659100Y9906000D01*
X15621000Y9690100D02*
X15621000Y9613900D01*
X15582900Y9652000D02*
X15659100Y9652000D01*
X15621000Y9436100D02*
X15621000Y9359900D01*
X15582900Y9398000D02*
X15659100Y9398000D01*
X15621000Y9182100D02*
X15621000Y9105900D01*
X15582900Y9144000D02*
X15659100Y9144000D01*
X15621000Y8928100D02*
X15621000Y8851900D01*
X15582900Y8890000D02*
X15659100Y8890000D01*
X15621000Y8293100D02*
X15621000Y8216900D01*
X15582900Y8255000D02*
X15659100Y8255000D01*
X15621000Y8039100D02*
X15621000Y7962900D01*
X15582900Y8001000D02*
X15659100Y8001000D01*
X15621000Y7785100D02*
X15621000Y7708900D01*
X15582900Y7747000D02*
X15659100Y7747000D01*
X15621000Y7531100D02*
X15621000Y7454900D01*
X15582900Y7493000D02*
X15659100Y7493000D01*
X15621000Y7277100D02*
X15621000Y7200900D01*
X15582900Y7239000D02*
X15659100Y7239000D01*
X15621000Y7023100D02*
X15621000Y6946900D01*
X15582900Y6985000D02*
X15659100Y6985000D01*
X15621000Y6769100D02*
X15621000Y6692900D01*
X15582900Y6731000D02*
X15659100Y6731000D01*
X15621000Y6515100D02*
X15621000Y6438900D01*
X15582900Y6477000D02*
X15659100Y6477000D01*
X15621000Y6261100D02*
X15621000Y6184900D01*
X15582900Y6223000D02*
X15659100Y6223000D01*
X15621000Y6007100D02*
X15621000Y5930900D01*
X15582900Y5969000D02*
X15659100Y5969000D01*
X15621000Y5753100D02*
X15621000Y5676900D01*
X15582900Y5715000D02*
X15659100Y5715000D01*
X15621000Y5499100D02*
X15621000Y5422900D01*
X15582900Y5461000D02*
X15659100Y5461000D01*
X16002000Y4864100D02*
X16002000Y4787900D01*
X15963900Y4826000D02*
X16040100Y4826000D01*
X16002000Y4610100D02*
X16002000Y4533900D01*
X15963900Y4572000D02*
X16040100Y4572000D01*
X16002000Y4356100D02*
X16002000Y4279900D01*
X15963900Y4318000D02*
X16040100Y4318000D01*
X16002000Y4102100D02*
X16002000Y4025900D01*
X15963900Y4064000D02*
X16040100Y4064000D01*
X16002000Y3848100D02*
X16002000Y3771900D01*
X15963900Y3810000D02*
X16040100Y3810000D01*
X16002000Y3594100D02*
X16002000Y3517900D01*
X15963900Y3556000D02*
X16040100Y3556000D01*
X16002000Y3340100D02*
X16002000Y3263900D01*
X15963900Y3302000D02*
X16040100Y3302000D01*
X16002000Y3086100D02*
X16002000Y3009900D01*
X15963900Y3048000D02*
X16040100Y3048000D01*
X16002000Y2832100D02*
X16002000Y2755900D01*
X15963900Y2794000D02*
X16040100Y2794000D01*
X16002000Y2578100D02*
X16002000Y2501900D01*
X15963900Y2540000D02*
X16040100Y2540000D01*
X16002000Y2324100D02*
X16002000Y2247900D01*
X15963900Y2286000D02*
X16040100Y2286000D01*
X16002000Y2070100D02*
X16002000Y1993900D01*
X15963900Y2032000D02*
X16040100Y2032000D01*
X16383000Y11722100D02*
X16383000Y11645900D01*
X16344900Y11684000D02*
X16421100Y11684000D01*
X16383000Y11468100D02*
X16383000Y11391900D01*
X16344900Y11430000D02*
X16421100Y11430000D01*
X16383000Y11214100D02*
X16383000Y11137900D01*
X16344900Y11176000D02*
X16421100Y11176000D01*
X16383000Y10960100D02*
X16383000Y10883900D01*
X16344900Y10922000D02*
X16421100Y10922000D01*
X16383000Y10706100D02*
X16383000Y10629900D01*
X16344900Y10668000D02*
X16421100Y10668000D01*
X16383000Y10452100D02*
X16383000Y10375900D01*
X16344900Y10414000D02*
X16421100Y10414000D01*
X16383000Y10198100D02*
X16383000Y10121900D01*
X16344900Y10160000D02*
X16421100Y10160000D01*
X16383000Y9944100D02*
X16383000Y9867900D01*
X16344900Y9906000D02*
X16421100Y9906000D01*
X16383000Y9690100D02*
X16383000Y9613900D01*
X16344900Y9652000D02*
X16421100Y9652000D01*
X16383000Y9436100D02*
X16383000Y9359900D01*
X16344900Y9398000D02*
X16421100Y9398000D01*
X16383000Y9182100D02*
X16383000Y9105900D01*
X16344900Y9144000D02*
X16421100Y9144000D01*
X16383000Y8928100D02*
X16383000Y8851900D01*
X16344900Y8890000D02*
X16421100Y8890000D01*
X16383000Y8293100D02*
X16383000Y8216900D01*
X16344900Y8255000D02*
X16421100Y8255000D01*
X16383000Y8039100D02*
X16383000Y7962900D01*
X16344900Y8001000D02*
X16421100Y8001000D01*
X16383000Y7785100D02*
X16383000Y7708900D01*
X16344900Y7747000D02*
X16421100Y7747000D01*
X16383000Y7531100D02*
X16383000Y7454900D01*
X16344900Y7493000D02*
X16421100Y7493000D01*
X16383000Y7277100D02*
X16383000Y7200900D01*
X16344900Y7239000D02*
X16421100Y7239000D01*
X16383000Y7023100D02*
X16383000Y6946900D01*
X16344900Y6985000D02*
X16421100Y6985000D01*
X16383000Y6769100D02*
X16383000Y6692900D01*
X16344900Y6731000D02*
X16421100Y6731000D01*
X16383000Y6515100D02*
X16383000Y6438900D01*
X16344900Y6477000D02*
X16421100Y6477000D01*
X16383000Y6261100D02*
X16383000Y6184900D01*
X16344900Y6223000D02*
X16421100Y6223000D01*
X16383000Y6007100D02*
X16383000Y5930900D01*
X16344900Y5969000D02*
X16421100Y5969000D01*
X16383000Y5753100D02*
X16383000Y5676900D01*
X16344900Y5715000D02*
X16421100Y5715000D01*
X16383000Y5499100D02*
X16383000Y5422900D01*
X16344900Y5461000D02*
X16421100Y5461000D01*
X2034884Y860715D02*
X2034884Y917284D01*
X1978315Y917284D01*
X1978315Y860715D01*
X2034884Y860715D01*
X2187285Y3519715D02*
X2187285Y3576284D01*
X2130716Y3576284D01*
X2130716Y3519715D01*
X2187285Y3519715D01*
X2187285Y3019715D02*
X2187285Y3076284D01*
X2130716Y3076284D01*
X2130716Y3019715D01*
X2187285Y3019715D01*
X2384885Y860715D02*
X2384885Y917284D01*
X2328316Y917284D01*
X2328316Y860715D01*
X2384885Y860715D01*
X3457284Y10385716D02*
X3457284Y10442285D01*
X3400715Y10442285D01*
X3400715Y10385716D01*
X3457284Y10385716D01*
X3965284Y9623716D02*
X3965284Y9680285D01*
X3908715Y9680285D01*
X3908715Y9623716D01*
X3965284Y9623716D01*
X3965284Y8023515D02*
X3965284Y8080084D01*
X3908715Y8080084D01*
X3908715Y8023515D01*
X3965284Y8023515D01*
X5235285Y9115716D02*
X5235285Y9172285D01*
X5178716Y9172285D01*
X5178716Y9115716D01*
X5235285Y9115716D01*
X5235285Y7464715D02*
X5235285Y7521284D01*
X5178716Y7521284D01*
X5178716Y7464715D01*
X5235285Y7464715D01*
X5235285Y3019715D02*
X5235285Y3076284D01*
X5178716Y3076284D01*
X5178716Y3019715D01*
X5235285Y3019715D01*
X5235285Y860715D02*
X5235285Y917284D01*
X5178716Y917284D01*
X5178716Y860715D01*
X5235285Y860715D01*
X5585285Y860715D02*
X5585285Y917284D01*
X5528716Y917284D01*
X5528716Y860715D01*
X5585285Y860715D01*
X5735284Y3019715D02*
X5735284Y3076284D01*
X5678715Y3076284D01*
X5678715Y3019715D01*
X5735284Y3019715D01*
X7013284Y9623716D02*
X7013284Y9680285D01*
X6956715Y9680285D01*
X6956715Y9623716D01*
X7013284Y9623716D01*
X7013284Y7972715D02*
X7013284Y8029284D01*
X6956715Y8029284D01*
X6956715Y7972715D01*
X7013284Y7972715D01*
X8283284Y9115716D02*
X8283284Y9172285D01*
X8226715Y9172285D01*
X8226715Y9115716D01*
X8283284Y9115716D01*
X8283284Y7464715D02*
X8283284Y7521284D01*
X8226715Y7521284D01*
X8226715Y7464715D01*
X8283284Y7464715D01*
X8791285Y6956715D02*
X8791285Y7013284D01*
X8734716Y7013284D01*
X8734716Y6956715D01*
X8791285Y6956715D01*
X8918285Y2765716D02*
X8918285Y2822284D01*
X8861716Y2822284D01*
X8861716Y2765716D01*
X8918285Y2765716D01*
X9807285Y9623716D02*
X9807285Y9680285D01*
X9750716Y9680285D01*
X9750716Y9623716D01*
X9807285Y9623716D01*
X9807285Y7972715D02*
X9807285Y8029284D01*
X9750716Y8029284D01*
X9750716Y7972715D01*
X9807285Y7972715D01*
X10188285Y2257716D02*
X10188285Y2314285D01*
X10131716Y2314285D01*
X10131716Y2257716D01*
X10188285Y2257716D01*
X10950285Y2765716D02*
X10950285Y2822284D01*
X10893716Y2822284D01*
X10893716Y2765716D01*
X10950285Y2765716D01*
X11077285Y9115716D02*
X11077285Y9172285D01*
X11020716Y9172285D01*
X11020716Y9115716D01*
X11077285Y9115716D01*
X11077285Y7464715D02*
X11077285Y7521284D01*
X11020716Y7521284D01*
X11020716Y7464715D01*
X11077285Y7464715D01*
X11585284Y6956715D02*
X11585284Y7013284D01*
X11528715Y7013284D01*
X11528715Y6956715D01*
X11585284Y6956715D01*
X12220284Y2257716D02*
X12220284Y2314285D01*
X12163715Y2314285D01*
X12163715Y2257716D01*
X12220284Y2257716D01*
X12601284Y9623716D02*
X12601284Y9680285D01*
X12544715Y9680285D01*
X12544715Y9623716D01*
X12601284Y9623716D01*
X12601284Y7972715D02*
X12601284Y8029284D01*
X12544715Y8029284D01*
X12544715Y7972715D01*
X12601284Y7972715D01*
X12982284Y2765716D02*
X12982284Y2822284D01*
X12925715Y2822284D01*
X12925715Y2765716D01*
X12982284Y2765716D01*
X13871284Y9115716D02*
X13871284Y9172285D01*
X13814715Y9172285D01*
X13814715Y9115716D01*
X13871284Y9115716D01*
X13871284Y7464715D02*
X13871284Y7521284D01*
X13814715Y7521284D01*
X13814715Y7464715D01*
X13871284Y7464715D01*
X14252284Y2257716D02*
X14252284Y2314285D01*
X14195715Y2314285D01*
X14195715Y2257716D01*
X14252284Y2257716D01*
X14379284Y6956715D02*
X14379284Y7013284D01*
X14322715Y7013284D01*
X14322715Y6956715D01*
X14379284Y6956715D01*
X15014284Y2765716D02*
X15014284Y2822284D01*
X14957715Y2822284D01*
X14957715Y2765716D01*
X15014284Y2765716D01*
X15395284Y9623716D02*
X15395284Y9680285D01*
X15338715Y9680285D01*
X15338715Y9623716D01*
X15395284Y9623716D01*
X15395284Y7972715D02*
X15395284Y8029284D01*
X15338715Y8029284D01*
X15338715Y7972715D01*
X15395284Y7972715D01*
X16284284Y2257716D02*
X16284284Y2314285D01*
X16227715Y2314285D01*
X16227715Y2257716D01*
X16284284Y2257716D01*
X16665284Y9115716D02*
X16665284Y9172285D01*
X16608715Y9172285D01*
X16608715Y9115716D01*
X16665284Y9115716D01*
X16665284Y7464715D02*
X16665284Y7521284D01*
X16608715Y7521284D01*
X16608715Y7464715D01*
X16665284Y7464715D01*
X16919285Y6956715D02*
X16919285Y7013284D01*
X16862716Y7013284D01*
X16862716Y6956715D01*
X16919285Y6956715D01*
X3679000Y10373995D02*
X3719005Y10414000D01*
X3679000Y10454005D01*
X3638995Y10414000D01*
X3679000Y10373995D01*
X3937000Y9361995D02*
X3977005Y9402000D01*
X3937000Y9442005D01*
X3896995Y9402000D01*
X3937000Y9361995D01*
X3937000Y7761795D02*
X3977005Y7801800D01*
X3937000Y7841805D01*
X3896995Y7801800D01*
X3937000Y7761795D01*
X5457000Y9103995D02*
X5497005Y9144000D01*
X5457000Y9184005D01*
X5416995Y9144000D01*
X5457000Y9103995D01*
X5457000Y7452995D02*
X5497005Y7493000D01*
X5457000Y7533005D01*
X5416995Y7493000D01*
X5457000Y7452995D01*
X6735000Y9611995D02*
X6775005Y9652000D01*
X6735000Y9692005D01*
X6694995Y9652000D01*
X6735000Y9611995D01*
X6735000Y7960995D02*
X6775005Y8001000D01*
X6735000Y8041005D01*
X6694995Y8001000D01*
X6735000Y7960995D01*
X8505000Y9103995D02*
X8545005Y9144000D01*
X8505000Y9184005D01*
X8464995Y9144000D01*
X8505000Y9103995D01*
X8505000Y7452995D02*
X8545005Y7493000D01*
X8505000Y7533005D01*
X8464995Y7493000D01*
X8505000Y7452995D01*
X8513000Y6944995D02*
X8553005Y6985000D01*
X8513000Y7025005D01*
X8472995Y6985000D01*
X8513000Y6944995D01*
X8890000Y3003995D02*
X8930005Y3044000D01*
X8890000Y3084005D01*
X8849995Y3044000D01*
X8890000Y3003995D01*
X9529000Y9611995D02*
X9569005Y9652000D01*
X9529000Y9692005D01*
X9488995Y9652000D01*
X9529000Y9611995D01*
X9529000Y7960995D02*
X9569005Y8001000D01*
X9529000Y8041005D01*
X9488995Y8001000D01*
X9529000Y7960995D01*
X10410000Y2245995D02*
X10450005Y2286000D01*
X10410000Y2326005D01*
X10369995Y2286000D01*
X10410000Y2245995D01*
X10672000Y2753995D02*
X10712005Y2794000D01*
X10672000Y2834005D01*
X10631995Y2794000D01*
X10672000Y2753995D01*
X11299000Y9103995D02*
X11339005Y9144000D01*
X11299000Y9184005D01*
X11258995Y9144000D01*
X11299000Y9103995D01*
X11299000Y7452995D02*
X11339005Y7493000D01*
X11299000Y7533005D01*
X11258995Y7493000D01*
X11299000Y7452995D01*
X11307000Y6944995D02*
X11347005Y6985000D01*
X11307000Y7025005D01*
X11266995Y6985000D01*
X11307000Y6944995D01*
X12323000Y9611995D02*
X12363005Y9652000D01*
X12323000Y9692005D01*
X12282995Y9652000D01*
X12323000Y9611995D01*
X12323000Y7960995D02*
X12363005Y8001000D01*
X12323000Y8041005D01*
X12282995Y8001000D01*
X12323000Y7960995D01*
X12442000Y2245995D02*
X12482005Y2286000D01*
X12442000Y2326005D01*
X12401995Y2286000D01*
X12442000Y2245995D01*
X12704000Y2753995D02*
X12744005Y2794000D01*
X12704000Y2834005D01*
X12663995Y2794000D01*
X12704000Y2753995D01*
X14093000Y9103995D02*
X14133005Y9144000D01*
X14093000Y9184005D01*
X14052995Y9144000D01*
X14093000Y9103995D01*
X14093000Y7452995D02*
X14133005Y7493000D01*
X14093000Y7533005D01*
X14052995Y7493000D01*
X14093000Y7452995D01*
X14101000Y6944995D02*
X14141005Y6985000D01*
X14101000Y7025005D01*
X14060995Y6985000D01*
X14101000Y6944995D01*
X14474000Y2245995D02*
X14514005Y2286000D01*
X14474000Y2326005D01*
X14433995Y2286000D01*
X14474000Y2245995D01*
X14736000Y2753995D02*
X14776005Y2794000D01*
X14736000Y2834005D01*
X14695995Y2794000D01*
X14736000Y2753995D01*
X15117000Y9611995D02*
X15157005Y9652000D01*
X15117000Y9692005D01*
X15076995Y9652000D01*
X15117000Y9611995D01*
X15117000Y7960995D02*
X15157005Y8001000D01*
X15117000Y8041005D01*
X15076995Y8001000D01*
X15117000Y7960995D01*
X16506000Y2245995D02*
X16546005Y2286000D01*
X16506000Y2326005D01*
X16465995Y2286000D01*
X16506000Y2245995D01*
X16641000Y6944995D02*
X16681005Y6985000D01*
X16641000Y7025005D01*
X16600995Y6985000D01*
X16641000Y6944995D01*
X16887000Y9103995D02*
X16927005Y9144000D01*
X16887000Y9184005D01*
X16846995Y9144000D01*
X16887000Y9103995D01*
X16887000Y7452995D02*
X16927005Y7493000D01*
X16887000Y7533005D01*
X16846995Y7493000D01*
X16887000Y7452995D01*
X5686360Y13398640D02*
X5767640Y13317360D01*
X5767640Y13398640D02*
X5686360Y13317360D01*
X5767640Y13358000D02*
G75*
G03X5767640Y13358000I-40640J0D01*
G01*
X5686360Y13098640D02*
X5767640Y13017360D01*
X5767640Y13098640D02*
X5686360Y13017360D01*
X5767640Y13058000D02*
G75*
G03X5767640Y13058000I-40640J0D01*
G01*
X7186360Y13498640D02*
X7267640Y13417360D01*
X7267640Y13498640D02*
X7186360Y13417360D01*
X7267640Y13458000D02*
G75*
G03X7267640Y13458000I-40640J0D01*
G01*
X7186360Y12998640D02*
X7267640Y12917360D01*
X7267640Y12998640D02*
X7186360Y12917360D01*
X7267640Y12958000D02*
G75*
G03X7267640Y12958000I-40640J0D01*
G01*
X5797000Y9824000D02*
X5887000Y9734000D01*
X5887000Y9824000D02*
X5797000Y9734000D01*
X5842000Y9824000D02*
X5842000Y9734000D01*
X5797000Y9779000D02*
X5887000Y9779000D01*
X5797000Y9316000D02*
X5887000Y9226000D01*
X5887000Y9316000D02*
X5797000Y9226000D01*
X5842000Y9316000D02*
X5842000Y9226000D01*
X5797000Y9271000D02*
X5887000Y9271000D01*
X5805000Y8808000D02*
X5895000Y8718000D01*
X5895000Y8808000D02*
X5805000Y8718000D01*
X5850000Y8808000D02*
X5850000Y8718000D01*
X5805000Y8763000D02*
X5895000Y8763000D01*
X5805000Y8300000D02*
X5895000Y8210000D01*
X5895000Y8300000D02*
X5805000Y8210000D01*
X5850000Y8300000D02*
X5850000Y8210000D01*
X5805000Y8255000D02*
X5895000Y8255000D01*
X5805000Y7792000D02*
X5895000Y7702000D01*
X5895000Y7792000D02*
X5805000Y7702000D01*
X5850000Y7792000D02*
X5850000Y7702000D01*
X5805000Y7747000D02*
X5895000Y7747000D01*
X6186000Y7030000D02*
X6276000Y6940000D01*
X6276000Y7030000D02*
X6186000Y6940000D01*
X6231000Y7030000D02*
X6231000Y6940000D01*
X6186000Y6985000D02*
X6276000Y6985000D01*
X6297000Y9824000D02*
X6387000Y9734000D01*
X6387000Y9824000D02*
X6297000Y9734000D01*
X6342000Y9824000D02*
X6342000Y9734000D01*
X6297000Y9779000D02*
X6387000Y9779000D01*
X6297000Y9316000D02*
X6387000Y9226000D01*
X6387000Y9316000D02*
X6297000Y9226000D01*
X6342000Y9316000D02*
X6342000Y9226000D01*
X6297000Y9271000D02*
X6387000Y9271000D01*
X6305000Y8808000D02*
X6395000Y8718000D01*
X6395000Y8808000D02*
X6305000Y8718000D01*
X6350000Y8808000D02*
X6350000Y8718000D01*
X6305000Y8763000D02*
X6395000Y8763000D01*
X6305000Y8300000D02*
X6395000Y8210000D01*
X6395000Y8300000D02*
X6305000Y8210000D01*
X6350000Y8300000D02*
X6350000Y8210000D01*
X6305000Y8255000D02*
X6395000Y8255000D01*
X6305000Y7792000D02*
X6395000Y7702000D01*
X6395000Y7792000D02*
X6305000Y7702000D01*
X6350000Y7792000D02*
X6350000Y7702000D01*
X6305000Y7747000D02*
X6395000Y7747000D01*
X6686000Y7030000D02*
X6776000Y6940000D01*
X6776000Y7030000D02*
X6686000Y6940000D01*
X6731000Y7030000D02*
X6731000Y6940000D01*
X6686000Y6985000D02*
X6776000Y6985000D01*
X8980000Y11602000D02*
X9070000Y11512000D01*
X9070000Y11602000D02*
X8980000Y11512000D01*
X9025000Y11602000D02*
X9025000Y11512000D01*
X8980000Y11557000D02*
X9070000Y11557000D01*
X9480000Y11602000D02*
X9570000Y11512000D01*
X9570000Y11602000D02*
X9480000Y11512000D01*
X9525000Y11602000D02*
X9525000Y11512000D01*
X9480000Y11557000D02*
X9570000Y11557000D01*
X11774000Y11602000D02*
X11864000Y11512000D01*
X11864000Y11602000D02*
X11774000Y11512000D01*
X11819000Y11602000D02*
X11819000Y11512000D01*
X11774000Y11557000D02*
X11864000Y11557000D01*
X12274000Y11602000D02*
X12364000Y11512000D01*
X12364000Y11602000D02*
X12274000Y11512000D01*
X12319000Y11602000D02*
X12319000Y11512000D01*
X12274000Y11557000D02*
X12364000Y11557000D01*
X14568000Y11602000D02*
X14658000Y11512000D01*
X14658000Y11602000D02*
X14568000Y11512000D01*
X14613000Y11602000D02*
X14613000Y11512000D01*
X14568000Y11557000D02*
X14658000Y11557000D01*
X15068000Y11602000D02*
X15158000Y11512000D01*
X15158000Y11602000D02*
X15068000Y11512000D01*
X15113000Y11602000D02*
X15113000Y11512000D01*
X15068000Y11557000D02*
X15158000Y11557000D01*
X775589Y4367911D02*
X875411Y4268089D01*
X875411Y4367911D02*
X775589Y4268089D01*
X860793Y4282707D02*
X860793Y4353293D01*
X790207Y4353293D01*
X790207Y4282707D01*
X860793Y4282707D01*
X775589Y4113911D02*
X875411Y4014089D01*
X875411Y4113911D02*
X775589Y4014089D01*
X860793Y4028707D02*
X860793Y4099293D01*
X790207Y4099293D01*
X790207Y4028707D01*
X860793Y4028707D01*
X1472946Y4114038D02*
X1573022Y4013962D01*
X1573022Y4114038D02*
X1472946Y4013962D01*
X1522984Y4013962D02*
X1573022Y4064000D01*
X1522984Y4114038D01*
X1472946Y4064000D01*
X1522984Y4013962D01*
X1473962Y4622038D02*
X1574038Y4521962D01*
X1574038Y4622038D02*
X1473962Y4521962D01*
X1524000Y4521962D02*
X1574038Y4572000D01*
X1524000Y4622038D01*
X1473962Y4572000D01*
X1524000Y4521962D01*
X1524762Y253238D02*
X1624838Y153162D01*
X1624838Y253238D02*
X1524762Y153162D01*
X1574800Y153162D02*
X1624838Y203200D01*
X1574800Y253238D01*
X1524762Y203200D01*
X1574800Y153162D01*
X1524762Y-26162D02*
X1624838Y-126238D01*
X1624838Y-26162D02*
X1524762Y-126238D01*
X1574800Y-126238D02*
X1624838Y-76200D01*
X1574800Y-26162D01*
X1524762Y-76200D01*
X1574800Y-126238D01*
X2540762Y253238D02*
X2640838Y153162D01*
X2640838Y253238D02*
X2540762Y153162D01*
X2590800Y153162D02*
X2640838Y203200D01*
X2590800Y253238D01*
X2540762Y203200D01*
X2590800Y153162D01*
X2540762Y-26162D02*
X2640838Y-126238D01*
X2640838Y-26162D02*
X2540762Y-126238D01*
X2590800Y-126238D02*
X2640838Y-76200D01*
X2590800Y-26162D01*
X2540762Y-76200D01*
X2590800Y-126238D01*
X2616962Y11734038D02*
X2717038Y11633962D01*
X2717038Y11734038D02*
X2616962Y11633962D01*
X2667000Y11633962D02*
X2717038Y11684000D01*
X2667000Y11734038D01*
X2616962Y11684000D01*
X2667000Y11633962D01*
X2616962Y11480038D02*
X2717038Y11379962D01*
X2717038Y11480038D02*
X2616962Y11379962D01*
X2667000Y11379962D02*
X2717038Y11430000D01*
X2667000Y11480038D01*
X2616962Y11430000D01*
X2667000Y11379962D01*
X2616962Y11226038D02*
X2717038Y11125962D01*
X2717038Y11226038D02*
X2616962Y11125962D01*
X2667000Y11125962D02*
X2717038Y11176000D01*
X2667000Y11226038D01*
X2616962Y11176000D01*
X2667000Y11125962D01*
X2616962Y10972038D02*
X2717038Y10871962D01*
X2717038Y10972038D02*
X2616962Y10871962D01*
X2667000Y10871962D02*
X2717038Y10922000D01*
X2667000Y10972038D01*
X2616962Y10922000D01*
X2667000Y10871962D01*
X2616962Y10718038D02*
X2717038Y10617962D01*
X2717038Y10718038D02*
X2616962Y10617962D01*
X2667000Y10617962D02*
X2717038Y10668000D01*
X2667000Y10718038D01*
X2616962Y10668000D01*
X2667000Y10617962D01*
X3632962Y11734038D02*
X3733038Y11633962D01*
X3733038Y11734038D02*
X3632962Y11633962D01*
X3683000Y11633962D02*
X3733038Y11684000D01*
X3683000Y11734038D01*
X3632962Y11684000D01*
X3683000Y11633962D01*
X3632962Y11480038D02*
X3733038Y11379962D01*
X3733038Y11480038D02*
X3632962Y11379962D01*
X3683000Y11379962D02*
X3733038Y11430000D01*
X3683000Y11480038D01*
X3632962Y11430000D01*
X3683000Y11379962D01*
X3632962Y11226038D02*
X3733038Y11125962D01*
X3733038Y11226038D02*
X3632962Y11125962D01*
X3683000Y11125962D02*
X3733038Y11176000D01*
X3683000Y11226038D01*
X3632962Y11176000D01*
X3683000Y11125962D01*
X3632962Y10972038D02*
X3733038Y10871962D01*
X3733038Y10972038D02*
X3632962Y10871962D01*
X3683000Y10871962D02*
X3733038Y10922000D01*
X3683000Y10972038D01*
X3632962Y10922000D01*
X3683000Y10871962D01*
X3632962Y10718038D02*
X3733038Y10617962D01*
X3733038Y10718038D02*
X3632962Y10617962D01*
X3683000Y10617962D02*
X3733038Y10668000D01*
X3683000Y10718038D01*
X3632962Y10668000D01*
X3683000Y10617962D01*
X4344162Y13410438D02*
X4444238Y13310362D01*
X4444238Y13410438D02*
X4344162Y13310362D01*
X4394200Y13310362D02*
X4444238Y13360400D01*
X4394200Y13410438D01*
X4344162Y13360400D01*
X4394200Y13310362D01*
X5360162Y13410438D02*
X5460238Y13310362D01*
X5460238Y13410438D02*
X5360162Y13310362D01*
X5410200Y13310362D02*
X5460238Y13360400D01*
X5410200Y13410438D01*
X5360162Y13360400D01*
X5410200Y13310362D01*
X5410962Y11734038D02*
X5511038Y11633962D01*
X5511038Y11734038D02*
X5410962Y11633962D01*
X5461000Y11633962D02*
X5511038Y11684000D01*
X5461000Y11734038D01*
X5410962Y11684000D01*
X5461000Y11633962D01*
X5410962Y11480038D02*
X5511038Y11379962D01*
X5511038Y11480038D02*
X5410962Y11379962D01*
X5461000Y11379962D02*
X5511038Y11430000D01*
X5461000Y11480038D01*
X5410962Y11430000D01*
X5461000Y11379962D01*
X5410962Y11226038D02*
X5511038Y11125962D01*
X5511038Y11226038D02*
X5410962Y11125962D01*
X5461000Y11125962D02*
X5511038Y11176000D01*
X5461000Y11226038D01*
X5410962Y11176000D01*
X5461000Y11125962D01*
X5410962Y10972038D02*
X5511038Y10871962D01*
X5511038Y10972038D02*
X5410962Y10871962D01*
X5461000Y10871962D02*
X5511038Y10922000D01*
X5461000Y10972038D01*
X5410962Y10922000D01*
X5461000Y10871962D01*
X5410962Y10718038D02*
X5511038Y10617962D01*
X5511038Y10718038D02*
X5410962Y10617962D01*
X5461000Y10617962D02*
X5511038Y10668000D01*
X5461000Y10718038D01*
X5410962Y10668000D01*
X5461000Y10617962D01*
X5664962Y6654038D02*
X5765038Y6553962D01*
X5765038Y6654038D02*
X5664962Y6553962D01*
X5715000Y6553962D02*
X5765038Y6604000D01*
X5715000Y6654038D01*
X5664962Y6604000D01*
X5715000Y6553962D01*
X5664962Y6400038D02*
X5765038Y6299962D01*
X5765038Y6400038D02*
X5664962Y6299962D01*
X5715000Y6299962D02*
X5765038Y6350000D01*
X5715000Y6400038D01*
X5664962Y6350000D01*
X5715000Y6299962D01*
X5664962Y6146038D02*
X5765038Y6045962D01*
X5765038Y6146038D02*
X5664962Y6045962D01*
X5715000Y6045962D02*
X5765038Y6096000D01*
X5715000Y6146038D01*
X5664962Y6096000D01*
X5715000Y6045962D01*
X5664962Y5892038D02*
X5765038Y5791962D01*
X5765038Y5892038D02*
X5664962Y5791962D01*
X5715000Y5791962D02*
X5765038Y5842000D01*
X5715000Y5892038D01*
X5664962Y5842000D01*
X5715000Y5791962D01*
X5969762Y989838D02*
X6069838Y889762D01*
X6069838Y989838D02*
X5969762Y889762D01*
X6019800Y889762D02*
X6069838Y939800D01*
X6019800Y989838D01*
X5969762Y939800D01*
X6019800Y889762D01*
X5969762Y-26162D02*
X6069838Y-126238D01*
X6069838Y-26162D02*
X5969762Y-126238D01*
X6019800Y-126238D02*
X6069838Y-76200D01*
X6019800Y-26162D01*
X5969762Y-76200D01*
X6019800Y-126238D01*
X6249162Y989838D02*
X6349238Y889762D01*
X6349238Y989838D02*
X6249162Y889762D01*
X6299200Y889762D02*
X6349238Y939800D01*
X6299200Y989838D01*
X6249162Y939800D01*
X6299200Y889762D01*
X6249162Y-26162D02*
X6349238Y-126238D01*
X6349238Y-26162D02*
X6249162Y-126238D01*
X6299200Y-126238D02*
X6349238Y-76200D01*
X6299200Y-26162D01*
X6249162Y-76200D01*
X6299200Y-126238D01*
X6426962Y11734038D02*
X6527038Y11633962D01*
X6527038Y11734038D02*
X6426962Y11633962D01*
X6477000Y11633962D02*
X6527038Y11684000D01*
X6477000Y11734038D01*
X6426962Y11684000D01*
X6477000Y11633962D01*
X6426962Y11480038D02*
X6527038Y11379962D01*
X6527038Y11480038D02*
X6426962Y11379962D01*
X6477000Y11379962D02*
X6527038Y11430000D01*
X6477000Y11480038D01*
X6426962Y11430000D01*
X6477000Y11379962D01*
X6426962Y11226038D02*
X6527038Y11125962D01*
X6527038Y11226038D02*
X6426962Y11125962D01*
X6477000Y11125962D02*
X6527038Y11176000D01*
X6477000Y11226038D01*
X6426962Y11176000D01*
X6477000Y11125962D01*
X6426962Y10972038D02*
X6527038Y10871962D01*
X6527038Y10972038D02*
X6426962Y10871962D01*
X6477000Y10871962D02*
X6527038Y10922000D01*
X6477000Y10972038D01*
X6426962Y10922000D01*
X6477000Y10871962D01*
X6426962Y10718038D02*
X6527038Y10617962D01*
X6527038Y10718038D02*
X6426962Y10617962D01*
X6477000Y10617962D02*
X6527038Y10668000D01*
X6477000Y10718038D01*
X6426962Y10668000D01*
X6477000Y10617962D01*
X6680962Y6654038D02*
X6781038Y6553962D01*
X6781038Y6654038D02*
X6680962Y6553962D01*
X6731000Y6553962D02*
X6781038Y6604000D01*
X6731000Y6654038D01*
X6680962Y6604000D01*
X6731000Y6553962D01*
X6680962Y6400038D02*
X6781038Y6299962D01*
X6781038Y6400038D02*
X6680962Y6299962D01*
X6731000Y6299962D02*
X6781038Y6350000D01*
X6731000Y6400038D01*
X6680962Y6350000D01*
X6731000Y6299962D01*
X6680962Y6146038D02*
X6781038Y6045962D01*
X6781038Y6146038D02*
X6680962Y6045962D01*
X6731000Y6045962D02*
X6781038Y6096000D01*
X6731000Y6146038D01*
X6680962Y6096000D01*
X6731000Y6045962D01*
X6680962Y5892038D02*
X6781038Y5791962D01*
X6781038Y5892038D02*
X6680962Y5791962D01*
X6731000Y5791962D02*
X6781038Y5842000D01*
X6731000Y5892038D01*
X6680962Y5842000D01*
X6731000Y5791962D01*
X8458962Y11226038D02*
X8559038Y11125962D01*
X8559038Y11226038D02*
X8458962Y11125962D01*
X8509000Y11125962D02*
X8559038Y11176000D01*
X8509000Y11226038D01*
X8458962Y11176000D01*
X8509000Y11125962D01*
X8458962Y10972038D02*
X8559038Y10871962D01*
X8559038Y10972038D02*
X8458962Y10871962D01*
X8509000Y10871962D02*
X8559038Y10922000D01*
X8509000Y10972038D01*
X8458962Y10922000D01*
X8509000Y10871962D01*
X8458962Y10718038D02*
X8559038Y10617962D01*
X8559038Y10718038D02*
X8458962Y10617962D01*
X8509000Y10617962D02*
X8559038Y10668000D01*
X8509000Y10718038D01*
X8458962Y10668000D01*
X8509000Y10617962D01*
X8458962Y10464038D02*
X8559038Y10363962D01*
X8559038Y10464038D02*
X8458962Y10363962D01*
X8509000Y10363962D02*
X8559038Y10414000D01*
X8509000Y10464038D01*
X8458962Y10414000D01*
X8509000Y10363962D01*
X8458962Y6527038D02*
X8559038Y6426962D01*
X8559038Y6527038D02*
X8458962Y6426962D01*
X8509000Y6426962D02*
X8559038Y6477000D01*
X8509000Y6527038D01*
X8458962Y6477000D01*
X8509000Y6426962D01*
X8458962Y6273038D02*
X8559038Y6172962D01*
X8559038Y6273038D02*
X8458962Y6172962D01*
X8509000Y6172962D02*
X8559038Y6223000D01*
X8509000Y6273038D01*
X8458962Y6223000D01*
X8509000Y6172962D01*
X8458962Y6019038D02*
X8559038Y5918962D01*
X8559038Y6019038D02*
X8458962Y5918962D01*
X8509000Y5918962D02*
X8559038Y5969000D01*
X8509000Y6019038D01*
X8458962Y5969000D01*
X8509000Y5918962D01*
X8458962Y5765038D02*
X8559038Y5664962D01*
X8559038Y5765038D02*
X8458962Y5664962D01*
X8509000Y5664962D02*
X8559038Y5715000D01*
X8509000Y5765038D01*
X8458962Y5715000D01*
X8509000Y5664962D01*
X8458962Y5511038D02*
X8559038Y5410962D01*
X8559038Y5511038D02*
X8458962Y5410962D01*
X8509000Y5410962D02*
X8559038Y5461000D01*
X8509000Y5511038D01*
X8458962Y5461000D01*
X8509000Y5410962D01*
X9474962Y11226038D02*
X9575038Y11125962D01*
X9575038Y11226038D02*
X9474962Y11125962D01*
X9525000Y11125962D02*
X9575038Y11176000D01*
X9525000Y11226038D01*
X9474962Y11176000D01*
X9525000Y11125962D01*
X9474962Y10972038D02*
X9575038Y10871962D01*
X9575038Y10972038D02*
X9474962Y10871962D01*
X9525000Y10871962D02*
X9575038Y10922000D01*
X9525000Y10972038D01*
X9474962Y10922000D01*
X9525000Y10871962D01*
X9474962Y10718038D02*
X9575038Y10617962D01*
X9575038Y10718038D02*
X9474962Y10617962D01*
X9525000Y10617962D02*
X9575038Y10668000D01*
X9525000Y10718038D01*
X9474962Y10668000D01*
X9525000Y10617962D01*
X9474962Y10464038D02*
X9575038Y10363962D01*
X9575038Y10464038D02*
X9474962Y10363962D01*
X9525000Y10363962D02*
X9575038Y10414000D01*
X9525000Y10464038D01*
X9474962Y10414000D01*
X9525000Y10363962D01*
X9474962Y6527038D02*
X9575038Y6426962D01*
X9575038Y6527038D02*
X9474962Y6426962D01*
X9525000Y6426962D02*
X9575038Y6477000D01*
X9525000Y6527038D01*
X9474962Y6477000D01*
X9525000Y6426962D01*
X9474962Y6273038D02*
X9575038Y6172962D01*
X9575038Y6273038D02*
X9474962Y6172962D01*
X9525000Y6172962D02*
X9575038Y6223000D01*
X9525000Y6273038D01*
X9474962Y6223000D01*
X9525000Y6172962D01*
X9474962Y6019038D02*
X9575038Y5918962D01*
X9575038Y6019038D02*
X9474962Y5918962D01*
X9525000Y5918962D02*
X9575038Y5969000D01*
X9525000Y6019038D01*
X9474962Y5969000D01*
X9525000Y5918962D01*
X9474962Y5765038D02*
X9575038Y5664962D01*
X9575038Y5765038D02*
X9474962Y5664962D01*
X9525000Y5664962D02*
X9575038Y5715000D01*
X9525000Y5765038D01*
X9474962Y5715000D01*
X9525000Y5664962D01*
X9474962Y5511038D02*
X9575038Y5410962D01*
X9575038Y5511038D02*
X9474962Y5410962D01*
X9525000Y5410962D02*
X9575038Y5461000D01*
X9525000Y5511038D01*
X9474962Y5461000D01*
X9525000Y5410962D01*
X11252962Y11226038D02*
X11353038Y11125962D01*
X11353038Y11226038D02*
X11252962Y11125962D01*
X11303000Y11125962D02*
X11353038Y11176000D01*
X11303000Y11226038D01*
X11252962Y11176000D01*
X11303000Y11125962D01*
X11252962Y10972038D02*
X11353038Y10871962D01*
X11353038Y10972038D02*
X11252962Y10871962D01*
X11303000Y10871962D02*
X11353038Y10922000D01*
X11303000Y10972038D01*
X11252962Y10922000D01*
X11303000Y10871962D01*
X11252962Y10718038D02*
X11353038Y10617962D01*
X11353038Y10718038D02*
X11252962Y10617962D01*
X11303000Y10617962D02*
X11353038Y10668000D01*
X11303000Y10718038D01*
X11252962Y10668000D01*
X11303000Y10617962D01*
X11252962Y10464038D02*
X11353038Y10363962D01*
X11353038Y10464038D02*
X11252962Y10363962D01*
X11303000Y10363962D02*
X11353038Y10414000D01*
X11303000Y10464038D01*
X11252962Y10414000D01*
X11303000Y10363962D01*
X11252962Y6527038D02*
X11353038Y6426962D01*
X11353038Y6527038D02*
X11252962Y6426962D01*
X11303000Y6426962D02*
X11353038Y6477000D01*
X11303000Y6527038D01*
X11252962Y6477000D01*
X11303000Y6426962D01*
X11252962Y6273038D02*
X11353038Y6172962D01*
X11353038Y6273038D02*
X11252962Y6172962D01*
X11303000Y6172962D02*
X11353038Y6223000D01*
X11303000Y6273038D01*
X11252962Y6223000D01*
X11303000Y6172962D01*
X11252962Y6019038D02*
X11353038Y5918962D01*
X11353038Y6019038D02*
X11252962Y5918962D01*
X11303000Y5918962D02*
X11353038Y5969000D01*
X11303000Y6019038D01*
X11252962Y5969000D01*
X11303000Y5918962D01*
X11252962Y5765038D02*
X11353038Y5664962D01*
X11353038Y5765038D02*
X11252962Y5664962D01*
X11303000Y5664962D02*
X11353038Y5715000D01*
X11303000Y5765038D01*
X11252962Y5715000D01*
X11303000Y5664962D01*
X11252962Y5511038D02*
X11353038Y5410962D01*
X11353038Y5511038D02*
X11252962Y5410962D01*
X11303000Y5410962D02*
X11353038Y5461000D01*
X11303000Y5511038D01*
X11252962Y5461000D01*
X11303000Y5410962D01*
X12268962Y11226038D02*
X12369038Y11125962D01*
X12369038Y11226038D02*
X12268962Y11125962D01*
X12319000Y11125962D02*
X12369038Y11176000D01*
X12319000Y11226038D01*
X12268962Y11176000D01*
X12319000Y11125962D01*
X12268962Y10972038D02*
X12369038Y10871962D01*
X12369038Y10972038D02*
X12268962Y10871962D01*
X12319000Y10871962D02*
X12369038Y10922000D01*
X12319000Y10972038D01*
X12268962Y10922000D01*
X12319000Y10871962D01*
X12268962Y10718038D02*
X12369038Y10617962D01*
X12369038Y10718038D02*
X12268962Y10617962D01*
X12319000Y10617962D02*
X12369038Y10668000D01*
X12319000Y10718038D01*
X12268962Y10668000D01*
X12319000Y10617962D01*
X12268962Y10464038D02*
X12369038Y10363962D01*
X12369038Y10464038D02*
X12268962Y10363962D01*
X12319000Y10363962D02*
X12369038Y10414000D01*
X12319000Y10464038D01*
X12268962Y10414000D01*
X12319000Y10363962D01*
X12268962Y6527038D02*
X12369038Y6426962D01*
X12369038Y6527038D02*
X12268962Y6426962D01*
X12319000Y6426962D02*
X12369038Y6477000D01*
X12319000Y6527038D01*
X12268962Y6477000D01*
X12319000Y6426962D01*
X12268962Y6273038D02*
X12369038Y6172962D01*
X12369038Y6273038D02*
X12268962Y6172962D01*
X12319000Y6172962D02*
X12369038Y6223000D01*
X12319000Y6273038D01*
X12268962Y6223000D01*
X12319000Y6172962D01*
X12268962Y6019038D02*
X12369038Y5918962D01*
X12369038Y6019038D02*
X12268962Y5918962D01*
X12319000Y5918962D02*
X12369038Y5969000D01*
X12319000Y6019038D01*
X12268962Y5969000D01*
X12319000Y5918962D01*
X12268962Y5765038D02*
X12369038Y5664962D01*
X12369038Y5765038D02*
X12268962Y5664962D01*
X12319000Y5664962D02*
X12369038Y5715000D01*
X12319000Y5765038D01*
X12268962Y5715000D01*
X12319000Y5664962D01*
X12268962Y5511038D02*
X12369038Y5410962D01*
X12369038Y5511038D02*
X12268962Y5410962D01*
X12319000Y5410962D02*
X12369038Y5461000D01*
X12319000Y5511038D01*
X12268962Y5461000D01*
X12319000Y5410962D01*
X14046962Y11226038D02*
X14147038Y11125962D01*
X14147038Y11226038D02*
X14046962Y11125962D01*
X14097000Y11125962D02*
X14147038Y11176000D01*
X14097000Y11226038D01*
X14046962Y11176000D01*
X14097000Y11125962D01*
X14046962Y10972038D02*
X14147038Y10871962D01*
X14147038Y10972038D02*
X14046962Y10871962D01*
X14097000Y10871962D02*
X14147038Y10922000D01*
X14097000Y10972038D01*
X14046962Y10922000D01*
X14097000Y10871962D01*
X14046962Y10718038D02*
X14147038Y10617962D01*
X14147038Y10718038D02*
X14046962Y10617962D01*
X14097000Y10617962D02*
X14147038Y10668000D01*
X14097000Y10718038D01*
X14046962Y10668000D01*
X14097000Y10617962D01*
X14046962Y10464038D02*
X14147038Y10363962D01*
X14147038Y10464038D02*
X14046962Y10363962D01*
X14097000Y10363962D02*
X14147038Y10414000D01*
X14097000Y10464038D01*
X14046962Y10414000D01*
X14097000Y10363962D01*
X14046962Y6527038D02*
X14147038Y6426962D01*
X14147038Y6527038D02*
X14046962Y6426962D01*
X14097000Y6426962D02*
X14147038Y6477000D01*
X14097000Y6527038D01*
X14046962Y6477000D01*
X14097000Y6426962D01*
X14046962Y6273038D02*
X14147038Y6172962D01*
X14147038Y6273038D02*
X14046962Y6172962D01*
X14097000Y6172962D02*
X14147038Y6223000D01*
X14097000Y6273038D01*
X14046962Y6223000D01*
X14097000Y6172962D01*
X14046962Y6019038D02*
X14147038Y5918962D01*
X14147038Y6019038D02*
X14046962Y5918962D01*
X14097000Y5918962D02*
X14147038Y5969000D01*
X14097000Y6019038D01*
X14046962Y5969000D01*
X14097000Y5918962D01*
X14046962Y5765038D02*
X14147038Y5664962D01*
X14147038Y5765038D02*
X14046962Y5664962D01*
X14097000Y5664962D02*
X14147038Y5715000D01*
X14097000Y5765038D01*
X14046962Y5715000D01*
X14097000Y5664962D01*
X14046962Y5511038D02*
X14147038Y5410962D01*
X14147038Y5511038D02*
X14046962Y5410962D01*
X14097000Y5410962D02*
X14147038Y5461000D01*
X14097000Y5511038D01*
X14046962Y5461000D01*
X14097000Y5410962D01*
X15062962Y11226038D02*
X15163038Y11125962D01*
X15163038Y11226038D02*
X15062962Y11125962D01*
X15113000Y11125962D02*
X15163038Y11176000D01*
X15113000Y11226038D01*
X15062962Y11176000D01*
X15113000Y11125962D01*
X15062962Y10972038D02*
X15163038Y10871962D01*
X15163038Y10972038D02*
X15062962Y10871962D01*
X15113000Y10871962D02*
X15163038Y10922000D01*
X15113000Y10972038D01*
X15062962Y10922000D01*
X15113000Y10871962D01*
X15062962Y10718038D02*
X15163038Y10617962D01*
X15163038Y10718038D02*
X15062962Y10617962D01*
X15113000Y10617962D02*
X15163038Y10668000D01*
X15113000Y10718038D01*
X15062962Y10668000D01*
X15113000Y10617962D01*
X15062962Y10464038D02*
X15163038Y10363962D01*
X15163038Y10464038D02*
X15062962Y10363962D01*
X15113000Y10363962D02*
X15163038Y10414000D01*
X15113000Y10464038D01*
X15062962Y10414000D01*
X15113000Y10363962D01*
X15062962Y6527038D02*
X15163038Y6426962D01*
X15163038Y6527038D02*
X15062962Y6426962D01*
X15113000Y6426962D02*
X15163038Y6477000D01*
X15113000Y6527038D01*
X15062962Y6477000D01*
X15113000Y6426962D01*
X15062962Y6273038D02*
X15163038Y6172962D01*
X15163038Y6273038D02*
X15062962Y6172962D01*
X15113000Y6172962D02*
X15163038Y6223000D01*
X15113000Y6273038D01*
X15062962Y6223000D01*
X15113000Y6172962D01*
X15062962Y6019038D02*
X15163038Y5918962D01*
X15163038Y6019038D02*
X15062962Y5918962D01*
X15113000Y5918962D02*
X15163038Y5969000D01*
X15113000Y6019038D01*
X15062962Y5969000D01*
X15113000Y5918962D01*
X15062962Y5765038D02*
X15163038Y5664962D01*
X15163038Y5765038D02*
X15062962Y5664962D01*
X15113000Y5664962D02*
X15163038Y5715000D01*
X15113000Y5765038D01*
X15062962Y5715000D01*
X15113000Y5664962D01*
X15062962Y5511038D02*
X15163038Y5410962D01*
X15163038Y5511038D02*
X15062962Y5410962D01*
X15113000Y5410962D02*
X15163038Y5461000D01*
X15113000Y5511038D01*
X15062962Y5461000D01*
X15113000Y5410962D01*
X16383762Y5028438D02*
X16483838Y4928362D01*
X16483838Y5028438D02*
X16383762Y4928362D01*
X16433800Y4928362D02*
X16483838Y4978400D01*
X16433800Y5028438D01*
X16383762Y4978400D01*
X16433800Y4928362D01*
X16383762Y4012438D02*
X16483838Y3912362D01*
X16483838Y4012438D02*
X16383762Y3912362D01*
X16433800Y3912362D02*
X16483838Y3962400D01*
X16433800Y4012438D01*
X16383762Y3962400D01*
X16433800Y3912362D01*
X16663162Y5028438D02*
X16763238Y4928362D01*
X16763238Y5028438D02*
X16663162Y4928362D01*
X16713200Y4928362D02*
X16763238Y4978400D01*
X16713200Y5028438D01*
X16663162Y4978400D01*
X16713200Y4928362D01*
X16663162Y4012438D02*
X16763238Y3912362D01*
X16763238Y4012438D02*
X16663162Y3912362D01*
X16713200Y3912362D02*
X16763238Y3962400D01*
X16713200Y4012438D01*
X16663162Y3962400D01*
X16713200Y3912362D01*
X16688562Y6501638D02*
X16788638Y6401562D01*
X16788638Y6501638D02*
X16688562Y6401562D01*
X16738600Y6401562D02*
X16788638Y6451600D01*
X16738600Y6501638D01*
X16688562Y6451600D01*
X16738600Y6401562D01*
X16688562Y5485638D02*
X16788638Y5385562D01*
X16788638Y5485638D02*
X16688562Y5385562D01*
X16738600Y5385562D02*
X16788638Y5435600D01*
X16738600Y5485638D01*
X16688562Y5435600D01*
X16738600Y5385562D01*
X16942562Y5028438D02*
X17042638Y4928362D01*
X17042638Y5028438D02*
X16942562Y4928362D01*
X16992600Y4928362D02*
X17042638Y4978400D01*
X16992600Y5028438D01*
X16942562Y4978400D01*
X16992600Y4928362D01*
X16942562Y4012438D02*
X17042638Y3912362D01*
X17042638Y4012438D02*
X16942562Y3912362D01*
X16992600Y3912362D02*
X17042638Y3962400D01*
X16992600Y4012438D01*
X16942562Y3962400D01*
X16992600Y3912362D01*
X16967962Y6501638D02*
X17068038Y6401562D01*
X17068038Y6501638D02*
X16967962Y6401562D01*
X17018000Y6401562D02*
X17068038Y6451600D01*
X17018000Y6501638D01*
X16967962Y6451600D01*
X17018000Y6401562D01*
X16967962Y5485638D02*
X17068038Y5385562D01*
X17068038Y5485638D02*
X16967962Y5385562D01*
X17018000Y5385562D02*
X17068038Y5435600D01*
X17018000Y5485638D01*
X16967962Y5435600D01*
X17018000Y5385562D01*
X-50800Y12725400D02*
X-50800Y12623800D01*
X-101600Y12674600D02*
X0Y12674600D01*
X0Y12674600D02*
G75*
G03X0Y12674600I-50800J0D01*
G01*
X-50800Y12471400D02*
X-50800Y12369800D01*
X-101600Y12420600D02*
X0Y12420600D01*
X0Y12420600D02*
G75*
G03X0Y12420600I-50800J0D01*
G01*
X-50800Y12217400D02*
X-50800Y12115800D01*
X-101600Y12166600D02*
X0Y12166600D01*
X0Y12166600D02*
G75*
G03X0Y12166600I-50800J0D01*
G01*
X-50800Y11963400D02*
X-50800Y11861800D01*
X-101600Y11912600D02*
X0Y11912600D01*
X0Y11912600D02*
G75*
G03X0Y11912600I-50800J0D01*
G01*
X-50800Y11709400D02*
X-50800Y11607800D01*
X-101600Y11658600D02*
X0Y11658600D01*
X0Y11658600D02*
G75*
G03X0Y11658600I-50800J0D01*
G01*
X-50800Y11455400D02*
X-50800Y11353800D01*
X-101600Y11404600D02*
X0Y11404600D01*
X0Y11404600D02*
G75*
G03X0Y11404600I-50800J0D01*
G01*
X-50800Y11201400D02*
X-50800Y11099800D01*
X-101600Y11150600D02*
X0Y11150600D01*
X0Y11150600D02*
G75*
G03X0Y11150600I-50800J0D01*
G01*
X-50800Y10947400D02*
X-50800Y10845800D01*
X-101600Y10896600D02*
X0Y10896600D01*
X0Y10896600D02*
G75*
G03X0Y10896600I-50800J0D01*
G01*
X-50800Y10693400D02*
X-50800Y10591800D01*
X-101600Y10642600D02*
X0Y10642600D01*
X0Y10642600D02*
G75*
G03X0Y10642600I-50800J0D01*
G01*
X-50800Y10439400D02*
X-50800Y10337800D01*
X-101600Y10388600D02*
X0Y10388600D01*
X0Y10388600D02*
G75*
G03X0Y10388600I-50800J0D01*
G01*
X-50800Y10185400D02*
X-50800Y10083800D01*
X-101600Y10134600D02*
X0Y10134600D01*
X0Y10134600D02*
G75*
G03X0Y10134600I-50800J0D01*
G01*
X-50800Y9931400D02*
X-50800Y9829800D01*
X-101600Y9880600D02*
X0Y9880600D01*
X0Y9880600D02*
G75*
G03X0Y9880600I-50800J0D01*
G01*
X-50800Y9677400D02*
X-50800Y9575800D01*
X-101600Y9626600D02*
X0Y9626600D01*
X0Y9626600D02*
G75*
G03X0Y9626600I-50800J0D01*
G01*
X-50800Y9423400D02*
X-50800Y9321800D01*
X-101600Y9372600D02*
X0Y9372600D01*
X0Y9372600D02*
G75*
G03X0Y9372600I-50800J0D01*
G01*
X-25400Y8356600D02*
X-25400Y8255000D01*
X-76200Y8305800D02*
X25400Y8305800D01*
X25400Y8305800D02*
G75*
G03X25400Y8305800I-50800J0D01*
G01*
X-25400Y8102600D02*
X-25400Y8001000D01*
X-76200Y8051800D02*
X25400Y8051800D01*
X25400Y8051800D02*
G75*
G03X25400Y8051800I-50800J0D01*
G01*
X-25400Y7848600D02*
X-25400Y7747000D01*
X-76200Y7797800D02*
X25400Y7797800D01*
X25400Y7797800D02*
G75*
G03X25400Y7797800I-50800J0D01*
G01*
X-25400Y7594600D02*
X-25400Y7493000D01*
X-76200Y7543800D02*
X25400Y7543800D01*
X25400Y7543800D02*
G75*
G03X25400Y7543800I-50800J0D01*
G01*
X-25400Y7340600D02*
X-25400Y7239000D01*
X-76200Y7289800D02*
X25400Y7289800D01*
X25400Y7289800D02*
G75*
G03X25400Y7289800I-50800J0D01*
G01*
X-25400Y7086600D02*
X-25400Y6985000D01*
X-76200Y7035800D02*
X25400Y7035800D01*
X25400Y7035800D02*
G75*
G03X25400Y7035800I-50800J0D01*
G01*
X-25400Y6832600D02*
X-25400Y6731000D01*
X-76200Y6781800D02*
X25400Y6781800D01*
X25400Y6781800D02*
G75*
G03X25400Y6781800I-50800J0D01*
G01*
X-25400Y6578600D02*
X-25400Y6477000D01*
X-76200Y6527800D02*
X25400Y6527800D01*
X25400Y6527800D02*
G75*
G03X25400Y6527800I-50800J0D01*
G01*
X-25400Y6324600D02*
X-25400Y6223000D01*
X-76200Y6273800D02*
X25400Y6273800D01*
X25400Y6273800D02*
G75*
G03X25400Y6273800I-50800J0D01*
G01*
X-25400Y6070600D02*
X-25400Y5969000D01*
X-76200Y6019800D02*
X25400Y6019800D01*
X25400Y6019800D02*
G75*
G03X25400Y6019800I-50800J0D01*
G01*
X-25400Y5816600D02*
X-25400Y5715000D01*
X-76200Y5765800D02*
X25400Y5765800D01*
X25400Y5765800D02*
G75*
G03X25400Y5765800I-50800J0D01*
G01*
X-25400Y5562600D02*
X-25400Y5461000D01*
X-76200Y5511800D02*
X25400Y5511800D01*
X25400Y5511800D02*
G75*
G03X25400Y5511800I-50800J0D01*
G01*
X-25400Y5308600D02*
X-25400Y5207000D01*
X-76200Y5257800D02*
X25400Y5257800D01*
X25400Y5257800D02*
G75*
G03X25400Y5257800I-50800J0D01*
G01*
X-25400Y5054600D02*
X-25400Y4953000D01*
X-76200Y5003800D02*
X25400Y5003800D01*
X25400Y5003800D02*
G75*
G03X25400Y5003800I-50800J0D01*
G01*
X635000Y9715500D02*
X635000Y9613900D01*
X584200Y9664700D02*
X685800Y9664700D01*
X685800Y9664700D02*
G75*
G03X685800Y9664700I-50800J0D01*
G01*
X635000Y9461500D02*
X635000Y9359900D01*
X584200Y9410700D02*
X685800Y9410700D01*
X685800Y9410700D02*
G75*
G03X685800Y9410700I-50800J0D01*
G01*
X635000Y9207500D02*
X635000Y9105900D01*
X584200Y9156700D02*
X685800Y9156700D01*
X685800Y9156700D02*
G75*
G03X685800Y9156700I-50800J0D01*
G01*
X635000Y8953500D02*
X635000Y8851900D01*
X584200Y8902700D02*
X685800Y8902700D01*
X685800Y8902700D02*
G75*
G03X685800Y8902700I-50800J0D01*
G01*
X635000Y8699500D02*
X635000Y8597900D01*
X584200Y8648700D02*
X685800Y8648700D01*
X685800Y8648700D02*
G75*
G03X685800Y8648700I-50800J0D01*
G01*
X635000Y8445500D02*
X635000Y8343900D01*
X584200Y8394700D02*
X685800Y8394700D01*
X685800Y8394700D02*
G75*
G03X685800Y8394700I-50800J0D01*
G01*
X635000Y8191500D02*
X635000Y8089900D01*
X584200Y8140700D02*
X685800Y8140700D01*
X685800Y8140700D02*
G75*
G03X685800Y8140700I-50800J0D01*
G01*
X635000Y7937500D02*
X635000Y7835900D01*
X584200Y7886700D02*
X685800Y7886700D01*
X685800Y7886700D02*
G75*
G03X685800Y7886700I-50800J0D01*
G01*
X635000Y7683500D02*
X635000Y7581900D01*
X584200Y7632700D02*
X685800Y7632700D01*
X685800Y7632700D02*
G75*
G03X685800Y7632700I-50800J0D01*
G01*
X635000Y7429500D02*
X635000Y7327900D01*
X584200Y7378700D02*
X685800Y7378700D01*
X685800Y7378700D02*
G75*
G03X685800Y7378700I-50800J0D01*
G01*
X635000Y7175500D02*
X635000Y7073900D01*
X584200Y7124700D02*
X685800Y7124700D01*
X685800Y7124700D02*
G75*
G03X685800Y7124700I-50800J0D01*
G01*
X635000Y6921500D02*
X635000Y6819900D01*
X584200Y6870700D02*
X685800Y6870700D01*
X685800Y6870700D02*
G75*
G03X685800Y6870700I-50800J0D01*
G01*
X635000Y6667500D02*
X635000Y6565900D01*
X584200Y6616700D02*
X685800Y6616700D01*
X685800Y6616700D02*
G75*
G03X685800Y6616700I-50800J0D01*
G01*
X635000Y6413500D02*
X635000Y6311900D01*
X584200Y6362700D02*
X685800Y6362700D01*
X685800Y6362700D02*
G75*
G03X685800Y6362700I-50800J0D01*
G01*
X635000Y6159500D02*
X635000Y6057900D01*
X584200Y6108700D02*
X685800Y6108700D01*
X685800Y6108700D02*
G75*
G03X685800Y6108700I-50800J0D01*
G01*
X635000Y5905500D02*
X635000Y5803900D01*
X584200Y5854700D02*
X685800Y5854700D01*
X685800Y5854700D02*
G75*
G03X685800Y5854700I-50800J0D01*
G01*
X3429000Y9715500D02*
X3429000Y9613900D01*
X3378200Y9664700D02*
X3479800Y9664700D01*
X3479800Y9664700D02*
G75*
G03X3479800Y9664700I-50800J0D01*
G01*
X3429000Y9461500D02*
X3429000Y9359900D01*
X3378200Y9410700D02*
X3479800Y9410700D01*
X3479800Y9410700D02*
G75*
G03X3479800Y9410700I-50800J0D01*
G01*
X3429000Y9207500D02*
X3429000Y9105900D01*
X3378200Y9156700D02*
X3479800Y9156700D01*
X3479800Y9156700D02*
G75*
G03X3479800Y9156700I-50800J0D01*
G01*
X3429000Y8953500D02*
X3429000Y8851900D01*
X3378200Y8902700D02*
X3479800Y8902700D01*
X3479800Y8902700D02*
G75*
G03X3479800Y8902700I-50800J0D01*
G01*
X3429000Y8699500D02*
X3429000Y8597900D01*
X3378200Y8648700D02*
X3479800Y8648700D01*
X3479800Y8648700D02*
G75*
G03X3479800Y8648700I-50800J0D01*
G01*
X3429000Y8445500D02*
X3429000Y8343900D01*
X3378200Y8394700D02*
X3479800Y8394700D01*
X3479800Y8394700D02*
G75*
G03X3479800Y8394700I-50800J0D01*
G01*
X3429000Y8191500D02*
X3429000Y8089900D01*
X3378200Y8140700D02*
X3479800Y8140700D01*
X3479800Y8140700D02*
G75*
G03X3479800Y8140700I-50800J0D01*
G01*
X3429000Y7937500D02*
X3429000Y7835900D01*
X3378200Y7886700D02*
X3479800Y7886700D01*
X3479800Y7886700D02*
G75*
G03X3479800Y7886700I-50800J0D01*
G01*
X3429000Y7683500D02*
X3429000Y7581900D01*
X3378200Y7632700D02*
X3479800Y7632700D01*
X3479800Y7632700D02*
G75*
G03X3479800Y7632700I-50800J0D01*
G01*
X3429000Y7429500D02*
X3429000Y7327900D01*
X3378200Y7378700D02*
X3479800Y7378700D01*
X3479800Y7378700D02*
G75*
G03X3479800Y7378700I-50800J0D01*
G01*
X3429000Y7175500D02*
X3429000Y7073900D01*
X3378200Y7124700D02*
X3479800Y7124700D01*
X3479800Y7124700D02*
G75*
G03X3479800Y7124700I-50800J0D01*
G01*
X3429000Y6921500D02*
X3429000Y6819900D01*
X3378200Y6870700D02*
X3479800Y6870700D01*
X3479800Y6870700D02*
G75*
G03X3479800Y6870700I-50800J0D01*
G01*
X3429000Y6667500D02*
X3429000Y6565900D01*
X3378200Y6616700D02*
X3479800Y6616700D01*
X3479800Y6616700D02*
G75*
G03X3479800Y6616700I-50800J0D01*
G01*
X3429000Y6413500D02*
X3429000Y6311900D01*
X3378200Y6362700D02*
X3479800Y6362700D01*
X3479800Y6362700D02*
G75*
G03X3479800Y6362700I-50800J0D01*
G01*
X3429000Y6159500D02*
X3429000Y6057900D01*
X3378200Y6108700D02*
X3479800Y6108700D01*
X3479800Y6108700D02*
G75*
G03X3479800Y6108700I-50800J0D01*
G01*
X3429000Y5905500D02*
X3429000Y5803900D01*
X3378200Y5854700D02*
X3479800Y5854700D01*
X3479800Y5854700D02*
G75*
G03X3479800Y5854700I-50800J0D01*
G01*
X3556000Y2423160D02*
X3556000Y2321560D01*
X3505200Y2372360D02*
X3606800Y2372360D01*
X3606800Y2372360D02*
G75*
G03X3606800Y2372360I-50800J0D01*
G01*
X3556000Y2082800D02*
X3556000Y1981200D01*
X3505200Y2032000D02*
X3606800Y2032000D01*
X3606800Y2032000D02*
G75*
G03X3606800Y2032000I-50800J0D01*
G01*
X3556000Y1742440D02*
X3556000Y1640840D01*
X3505200Y1691640D02*
X3606800Y1691640D01*
X3606800Y1691640D02*
G75*
G03X3606800Y1691640I-50800J0D01*
G01*
X3972560Y2252980D02*
X3972560Y2151380D01*
X3921760Y2202180D02*
X4023360Y2202180D01*
X4023360Y2202180D02*
G75*
G03X4023360Y2202180I-50800J0D01*
G01*
X3972560Y1912620D02*
X3972560Y1811020D01*
X3921760Y1861820D02*
X4023360Y1861820D01*
X4023360Y1861820D02*
G75*
G03X4023360Y1861820I-50800J0D01*
G01*
X5171440Y2252980D02*
X5171440Y2151380D01*
X5120640Y2202180D02*
X5222240Y2202180D01*
X5222240Y2202180D02*
G75*
G03X5222240Y2202180I-50800J0D01*
G01*
X5171440Y1912620D02*
X5171440Y1811020D01*
X5120640Y1861820D02*
X5222240Y1861820D01*
X5222240Y1861820D02*
G75*
G03X5222240Y1861820I-50800J0D01*
G01*
X5588000Y2423160D02*
X5588000Y2321560D01*
X5537200Y2372360D02*
X5638800Y2372360D01*
X5638800Y2372360D02*
G75*
G03X5638800Y2372360I-50800J0D01*
G01*
X5588000Y2082800D02*
X5588000Y1981200D01*
X5537200Y2032000D02*
X5638800Y2032000D01*
X5638800Y2032000D02*
G75*
G03X5638800Y2032000I-50800J0D01*
G01*
X5588000Y1742440D02*
X5588000Y1640840D01*
X5537200Y1691640D02*
X5638800Y1691640D01*
X5638800Y1691640D02*
G75*
G03X5638800Y1691640I-50800J0D01*
G01*
X8839200Y2590800D02*
X8839200Y2489200D01*
X8788400Y2540000D02*
X8890000Y2540000D01*
X8890000Y2540000D02*
G75*
G03X8890000Y2540000I-50800J0D01*
G01*
X1261627Y2014973D02*
X1261627Y2099827D01*
X1176773Y2099827D01*
X1176773Y2014973D01*
X1261627Y2014973D01*
X1279200Y2057400D02*
G75*
G03X1279200Y2057400I-60000J0D01*
G01*
X2023627Y2014973D02*
X2023627Y2099827D01*
X1938773Y2099827D01*
X1938773Y2014973D01*
X2023627Y2014973D01*
X2041200Y2057400D02*
G75*
G03X2041200Y2057400I-60000J0D01*
G01*
X6976627Y1227573D02*
X6976627Y1312427D01*
X6891773Y1312427D01*
X6891773Y1227573D01*
X6976627Y1227573D01*
X6994200Y1270000D02*
G75*
G03X6994200Y1270000I-60000J0D01*
G01*
X7738627Y1227573D02*
X7738627Y1312427D01*
X7653773Y1312427D01*
X7653773Y1227573D01*
X7738627Y1227573D01*
X7756200Y1270000D02*
G75*
G03X7756200Y1270000I-60000J0D01*
G01*
X1524122Y5068739D02*
X1599179Y5143796D01*
X1524122Y5218853D01*
X1449065Y5143796D01*
X1524122Y5068739D01*
X1599179Y5143796D02*
G75*
G03X1599179Y5143796I-75057J0D01*
G01*
X2794296Y2718821D02*
X2869353Y2793878D01*
X2794296Y2868935D01*
X2719239Y2793878D01*
X2794296Y2718821D01*
X2869353Y2793878D02*
G75*
G03X2869353Y2793878I-75057J0D01*
G01*
X2794296Y1194821D02*
X2869353Y1269878D01*
X2794296Y1344935D01*
X2719239Y1269878D01*
X2794296Y1194821D01*
X2869353Y1269878D02*
G75*
G03X2869353Y1269878I-75057J0D01*
G01*
X3048122Y5068739D02*
X3123179Y5143796D01*
X3048122Y5218853D01*
X2973065Y5143796D01*
X3048122Y5068739D01*
X3123179Y5143796D02*
G75*
G03X3123179Y5143796I-75057J0D01*
G01*
X6222704Y2719065D02*
X6297761Y2794122D01*
X6222704Y2869179D01*
X6147647Y2794122D01*
X6222704Y2719065D01*
X6297761Y2794122D02*
G75*
G03X6297761Y2794122I-75057J0D01*
G01*
X6222704Y1195065D02*
X6297761Y1270122D01*
X6222704Y1345179D01*
X6147647Y1270122D01*
X6222704Y1195065D01*
X6297761Y1270122D02*
G75*
G03X6297761Y1270122I-75057J0D01*
G01*
X0Y13485000D02*
X0Y13185000D01*
X-150000Y13335000D02*
X150000Y13335000D01*
X106067Y13228933D02*
X106067Y13441067D01*
X-106067Y13441067D01*
X-106067Y13228933D01*
X106067Y13228933D01*
X0Y150000D02*
X0Y-150000D01*
X-150000Y0D02*
X150000Y0D01*
X106067Y-106067D02*
X106067Y106067D01*
X-106067Y106067D01*
X-106067Y-106067D01*
X106067Y-106067D01*
X16891000Y13485000D02*
X16891000Y13185000D01*
X16741000Y13335000D02*
X17041000Y13335000D01*
X16997067Y13228933D02*
X16997067Y13441067D01*
X16784933Y13441067D01*
X16784933Y13228933D01*
X16997067Y13228933D01*
X16891000Y150000D02*
X16891000Y-150000D01*
X16741000Y0D02*
X17041000Y0D01*
X16997067Y-106067D02*
X16997067Y106067D01*
X16784933Y106067D01*
X16784933Y-106067D01*
X16997067Y-106067D01*
X8148574Y13374878D02*
X8148574Y13054838D01*
X7988554Y13214858D02*
X8308594Y13214858D01*
X8148574Y13054838D02*
X8308594Y13214858D01*
X8148574Y13374878D01*
X7988554Y13214858D01*
X8148574Y13054838D01*
X10647426Y13374878D02*
X10647426Y13054838D01*
X10487406Y13214858D02*
X10807446Y13214858D01*
X10647426Y13054838D02*
X10807446Y13214858D01*
X10647426Y13374878D01*
X10487406Y13214858D01*
X10647426Y13054838D01*
D13*
X-241571Y-978714D02*
X-241571Y-678714D01*
X-170143Y-678714D01*
X-127286Y-693000D01*
X-98714Y-721571D01*
X-84429Y-750143D01*
X-70143Y-807286D01*
X-70143Y-850143D01*
X-84429Y-907286D01*
X-98714Y-935857D01*
X-127286Y-964429D01*
X-170143Y-978714D01*
X-241571Y-978714D01*
X58428Y-978714D02*
X58428Y-778714D01*
X58428Y-835857D02*
X72714Y-807286D01*
X87000Y-793000D01*
X115571Y-778714D01*
X144143Y-778714D01*
X244143Y-978714D02*
X244143Y-778714D01*
X244143Y-678714D02*
X229857Y-693000D01*
X244143Y-707286D01*
X258428Y-693000D01*
X244143Y-678714D01*
X244143Y-707286D01*
X429857Y-978714D02*
X401286Y-964429D01*
X387000Y-935857D01*
X387000Y-678714D01*
X587000Y-978714D02*
X558429Y-964429D01*
X544143Y-935857D01*
X544143Y-678714D01*
X929857Y-978714D02*
X929857Y-678714D01*
X1029857Y-893000D01*
X1129857Y-678714D01*
X1129857Y-978714D01*
X1401286Y-978714D02*
X1401286Y-821571D01*
X1387000Y-793000D01*
X1358429Y-778714D01*
X1301286Y-778714D01*
X1272714Y-793000D01*
X1401286Y-964429D02*
X1372714Y-978714D01*
X1301286Y-978714D01*
X1272714Y-964429D01*
X1258429Y-935857D01*
X1258429Y-907286D01*
X1272714Y-878714D01*
X1301286Y-864429D01*
X1372714Y-864429D01*
X1401286Y-850143D01*
X1544143Y-778714D02*
X1544143Y-1078714D01*
X1544143Y-793000D02*
X1572714Y-778714D01*
X1629857Y-778714D01*
X1658428Y-793000D01*
X1672714Y-807286D01*
X1687000Y-835857D01*
X1687000Y-921571D01*
X1672714Y-950143D01*
X1658428Y-964429D01*
X1629857Y-978714D01*
X1572714Y-978714D01*
X1544143Y-964429D01*
X1815571Y-950143D02*
X1829857Y-964429D01*
X1815571Y-978714D01*
X1801286Y-964429D01*
X1815571Y-950143D01*
X1815571Y-978714D01*
X1815571Y-793000D02*
X1829857Y-807286D01*
X1815571Y-821571D01*
X1801286Y-807286D01*
X1815571Y-793000D01*
X1815571Y-821571D01*
X-553000Y-1453000D02*
X-513000Y-1493000D01*
X-513000Y-1453000D02*
X-553000Y-1493000D01*
X-184429Y-1308714D02*
X-155857Y-1308714D01*
X-127286Y-1323000D01*
X-113000Y-1337286D01*
X-98714Y-1365857D01*
X-84429Y-1423000D01*
X-84429Y-1494429D01*
X-98714Y-1551571D01*
X-113000Y-1580143D01*
X-127286Y-1594429D01*
X-155857Y-1608714D01*
X-184429Y-1608714D01*
X-213000Y-1594429D01*
X-227286Y-1580143D01*
X-241571Y-1551571D01*
X-255857Y-1494429D01*
X-255857Y-1423000D01*
X-241571Y-1365857D01*
X-227286Y-1337286D01*
X-213000Y-1323000D01*
X-184429Y-1308714D01*
X44143Y-1580143D02*
X58428Y-1594429D01*
X44143Y-1608714D01*
X29857Y-1594429D01*
X44143Y-1580143D01*
X44143Y-1608714D01*
X315571Y-1408714D02*
X315571Y-1608714D01*
X244143Y-1294429D02*
X172714Y-1508714D01*
X358428Y-1508714D01*
X529857Y-1308714D02*
X558429Y-1308714D01*
X587000Y-1323000D01*
X601286Y-1337286D01*
X615571Y-1365857D01*
X629857Y-1423000D01*
X629857Y-1494429D01*
X615571Y-1551571D01*
X601286Y-1580143D01*
X587000Y-1594429D01*
X558429Y-1608714D01*
X529857Y-1608714D01*
X501286Y-1594429D01*
X487000Y-1580143D01*
X472714Y-1551571D01*
X458428Y-1494429D01*
X458428Y-1423000D01*
X472714Y-1365857D01*
X487000Y-1337286D01*
X501286Y-1323000D01*
X529857Y-1308714D01*
X758428Y-1608714D02*
X758428Y-1408714D01*
X758428Y-1437286D02*
X772714Y-1423000D01*
X801286Y-1408714D01*
X844143Y-1408714D01*
X872714Y-1423000D01*
X887000Y-1451571D01*
X887000Y-1608714D01*
X887000Y-1451571D02*
X901286Y-1423000D01*
X929857Y-1408714D01*
X972714Y-1408714D01*
X1001286Y-1423000D01*
X1015571Y-1451571D01*
X1015571Y-1608714D01*
X1158429Y-1608714D02*
X1158429Y-1408714D01*
X1158429Y-1437286D02*
X1172714Y-1423000D01*
X1201286Y-1408714D01*
X1244143Y-1408714D01*
X1272714Y-1423000D01*
X1287000Y-1451571D01*
X1287000Y-1608714D01*
X1287000Y-1451571D02*
X1301286Y-1423000D01*
X1329857Y-1408714D01*
X1372714Y-1408714D01*
X1401286Y-1423000D01*
X1415571Y-1451571D01*
X1415571Y-1608714D01*
X2001286Y-1294429D02*
X1744143Y-1680143D01*
X2387000Y-1308714D02*
X2415571Y-1308714D01*
X2444143Y-1323000D01*
X2458428Y-1337286D01*
X2472714Y-1365857D01*
X2487000Y-1423000D01*
X2487000Y-1494429D01*
X2472714Y-1551571D01*
X2458428Y-1580143D01*
X2444143Y-1594429D01*
X2415571Y-1608714D01*
X2387000Y-1608714D01*
X2358428Y-1594429D01*
X2344143Y-1580143D01*
X2329857Y-1551571D01*
X2315571Y-1494429D01*
X2315571Y-1423000D01*
X2329857Y-1365857D01*
X2344143Y-1337286D01*
X2358428Y-1323000D01*
X2387000Y-1308714D01*
X2615571Y-1580143D02*
X2629857Y-1594429D01*
X2615571Y-1608714D01*
X2601286Y-1594429D01*
X2615571Y-1580143D01*
X2615571Y-1608714D01*
X2815571Y-1308714D02*
X2844143Y-1308714D01*
X2872714Y-1323000D01*
X2887000Y-1337286D01*
X2901285Y-1365857D01*
X2915571Y-1423000D01*
X2915571Y-1494429D01*
X2901285Y-1551571D01*
X2887000Y-1580143D01*
X2872714Y-1594429D01*
X2844143Y-1608714D01*
X2815571Y-1608714D01*
X2787000Y-1594429D01*
X2772714Y-1580143D01*
X2758428Y-1551571D01*
X2744143Y-1494429D01*
X2744143Y-1423000D01*
X2758428Y-1365857D01*
X2772714Y-1337286D01*
X2787000Y-1323000D01*
X2815571Y-1308714D01*
X3201285Y-1608714D02*
X3029857Y-1608714D01*
X3115571Y-1608714D02*
X3115571Y-1308714D01*
X3087000Y-1351572D01*
X3058428Y-1380143D01*
X3029857Y-1394429D01*
X3458428Y-1308714D02*
X3401285Y-1308714D01*
X3372714Y-1323000D01*
X3358428Y-1337286D01*
X3329857Y-1380143D01*
X3315571Y-1437286D01*
X3315571Y-1551571D01*
X3329857Y-1580143D01*
X3344143Y-1594429D01*
X3372714Y-1608714D01*
X3429857Y-1608714D01*
X3458428Y-1594429D01*
X3472714Y-1580143D01*
X3487000Y-1551571D01*
X3487000Y-1480143D01*
X3472714Y-1451571D01*
X3458428Y-1437286D01*
X3429857Y-1423000D01*
X3372714Y-1423000D01*
X3344143Y-1437286D01*
X3329857Y-1451571D01*
X3315571Y-1480143D01*
X3601286Y-1308714D02*
X3601286Y-1365857D01*
X3715571Y-1308714D02*
X3715571Y-1365857D01*
X4158428Y-1723000D02*
X4144143Y-1708714D01*
X4115571Y-1665857D01*
X4101285Y-1637286D01*
X4087000Y-1594429D01*
X4072714Y-1523000D01*
X4072714Y-1465857D01*
X4087000Y-1394429D01*
X4101285Y-1351572D01*
X4115571Y-1323000D01*
X4144143Y-1280143D01*
X4158428Y-1265857D01*
X4401286Y-1308714D02*
X4344143Y-1308714D01*
X4315571Y-1323000D01*
X4301286Y-1337286D01*
X4272714Y-1380143D01*
X4258428Y-1437286D01*
X4258428Y-1551571D01*
X4272714Y-1580143D01*
X4287000Y-1594429D01*
X4315571Y-1608714D01*
X4372714Y-1608714D01*
X4401286Y-1594429D01*
X4415571Y-1580143D01*
X4429857Y-1551571D01*
X4429857Y-1480143D01*
X4415571Y-1451571D01*
X4401286Y-1437286D01*
X4372714Y-1423000D01*
X4315571Y-1423000D01*
X4287000Y-1437286D01*
X4272714Y-1451571D01*
X4258428Y-1480143D01*
X4544143Y-1337286D02*
X4558428Y-1323000D01*
X4587000Y-1308714D01*
X4658428Y-1308714D01*
X4687000Y-1323000D01*
X4701286Y-1337286D01*
X4715571Y-1365857D01*
X4715571Y-1394429D01*
X4701286Y-1437286D01*
X4529857Y-1608714D01*
X4715571Y-1608714D01*
X5072714Y-1608714D02*
X5072714Y-1308714D01*
X5201286Y-1608714D02*
X5201286Y-1451571D01*
X5187000Y-1423000D01*
X5158428Y-1408714D01*
X5115571Y-1408714D01*
X5087000Y-1423000D01*
X5072714Y-1437286D01*
X5387000Y-1608714D02*
X5358428Y-1594429D01*
X5344143Y-1580143D01*
X5329857Y-1551571D01*
X5329857Y-1465857D01*
X5344143Y-1437286D01*
X5358428Y-1423000D01*
X5387000Y-1408714D01*
X5429857Y-1408714D01*
X5458428Y-1423000D01*
X5472714Y-1437286D01*
X5487000Y-1465857D01*
X5487000Y-1551571D01*
X5472714Y-1580143D01*
X5458428Y-1594429D01*
X5429857Y-1608714D01*
X5387000Y-1608714D01*
X5658428Y-1608714D02*
X5629857Y-1594429D01*
X5615571Y-1565857D01*
X5615571Y-1308714D01*
X5887000Y-1594429D02*
X5858428Y-1608714D01*
X5801286Y-1608714D01*
X5772714Y-1594429D01*
X5758428Y-1565857D01*
X5758428Y-1451571D01*
X5772714Y-1423000D01*
X5801286Y-1408714D01*
X5858428Y-1408714D01*
X5887000Y-1423000D01*
X5901286Y-1451571D01*
X5901286Y-1480143D01*
X5758428Y-1508714D01*
X6015571Y-1594429D02*
X6044143Y-1608714D01*
X6101286Y-1608714D01*
X6129857Y-1594429D01*
X6144143Y-1565857D01*
X6144143Y-1551571D01*
X6129857Y-1523000D01*
X6101286Y-1508714D01*
X6058428Y-1508714D01*
X6029857Y-1494429D01*
X6015571Y-1465857D01*
X6015571Y-1451571D01*
X6029857Y-1423000D01*
X6058428Y-1408714D01*
X6101286Y-1408714D01*
X6129857Y-1423000D01*
X6244143Y-1723000D02*
X6258428Y-1708714D01*
X6287000Y-1665857D01*
X6301286Y-1637286D01*
X6315571Y-1594429D01*
X6329857Y-1523000D01*
X6329857Y-1465857D01*
X6315571Y-1394429D01*
X6301286Y-1351572D01*
X6287000Y-1323000D01*
X6258428Y-1280143D01*
X6244143Y-1265857D01*
X-513000Y-1869000D02*
G75*
G03X-513000Y-1869000I-32512J0D01*
G01*
X-184429Y-1704714D02*
X-155857Y-1704714D01*
X-127286Y-1719000D01*
X-113000Y-1733286D01*
X-98714Y-1761857D01*
X-84429Y-1819000D01*
X-84429Y-1890429D01*
X-98714Y-1947571D01*
X-113000Y-1976143D01*
X-127286Y-1990429D01*
X-155857Y-2004714D01*
X-184429Y-2004714D01*
X-213000Y-1990429D01*
X-227286Y-1976143D01*
X-241571Y-1947571D01*
X-255857Y-1890429D01*
X-255857Y-1819000D01*
X-241571Y-1761857D01*
X-227286Y-1733286D01*
X-213000Y-1719000D01*
X-184429Y-1704714D01*
X44143Y-1976143D02*
X58428Y-1990429D01*
X44143Y-2004714D01*
X29857Y-1990429D01*
X44143Y-1976143D01*
X44143Y-2004714D01*
X315571Y-1704714D02*
X258428Y-1704714D01*
X229857Y-1719000D01*
X215571Y-1733286D01*
X187000Y-1776143D01*
X172714Y-1833286D01*
X172714Y-1947571D01*
X187000Y-1976143D01*
X201286Y-1990429D01*
X229857Y-2004714D01*
X287000Y-2004714D01*
X315571Y-1990429D01*
X329857Y-1976143D01*
X344143Y-1947571D01*
X344143Y-1876143D01*
X329857Y-1847571D01*
X315571Y-1833286D01*
X287000Y-1819000D01*
X229857Y-1819000D01*
X201286Y-1833286D01*
X187000Y-1847571D01*
X172714Y-1876143D01*
X615571Y-1704714D02*
X472714Y-1704714D01*
X458428Y-1847571D01*
X472714Y-1833286D01*
X501286Y-1819000D01*
X572714Y-1819000D01*
X601286Y-1833286D01*
X615571Y-1847571D01*
X629857Y-1876143D01*
X629857Y-1947571D01*
X615571Y-1976143D01*
X601286Y-1990429D01*
X572714Y-2004714D01*
X501286Y-2004714D01*
X472714Y-1990429D01*
X458428Y-1976143D01*
X758428Y-2004714D02*
X758428Y-1804714D01*
X758428Y-1833286D02*
X772714Y-1819000D01*
X801286Y-1804714D01*
X844143Y-1804714D01*
X872714Y-1819000D01*
X887000Y-1847571D01*
X887000Y-2004714D01*
X887000Y-1847571D02*
X901286Y-1819000D01*
X929857Y-1804714D01*
X972714Y-1804714D01*
X1001286Y-1819000D01*
X1015571Y-1847571D01*
X1015571Y-2004714D01*
X1158429Y-2004714D02*
X1158429Y-1804714D01*
X1158429Y-1833286D02*
X1172714Y-1819000D01*
X1201286Y-1804714D01*
X1244143Y-1804714D01*
X1272714Y-1819000D01*
X1287000Y-1847571D01*
X1287000Y-2004714D01*
X1287000Y-1847571D02*
X1301286Y-1819000D01*
X1329857Y-1804714D01*
X1372714Y-1804714D01*
X1401286Y-1819000D01*
X1415571Y-1847571D01*
X1415571Y-2004714D01*
X2001286Y-1690429D02*
X1744143Y-2076143D01*
X2387000Y-1704714D02*
X2415571Y-1704714D01*
X2444143Y-1719000D01*
X2458428Y-1733286D01*
X2472714Y-1761857D01*
X2487000Y-1819000D01*
X2487000Y-1890429D01*
X2472714Y-1947571D01*
X2458428Y-1976143D01*
X2444143Y-1990429D01*
X2415571Y-2004714D01*
X2387000Y-2004714D01*
X2358428Y-1990429D01*
X2344143Y-1976143D01*
X2329857Y-1947571D01*
X2315571Y-1890429D01*
X2315571Y-1819000D01*
X2329857Y-1761857D01*
X2344143Y-1733286D01*
X2358428Y-1719000D01*
X2387000Y-1704714D01*
X2615571Y-1976143D02*
X2629857Y-1990429D01*
X2615571Y-2004714D01*
X2601286Y-1990429D01*
X2615571Y-1976143D01*
X2615571Y-2004714D01*
X2815571Y-1704714D02*
X2844143Y-1704714D01*
X2872714Y-1719000D01*
X2887000Y-1733286D01*
X2901285Y-1761857D01*
X2915571Y-1819000D01*
X2915571Y-1890429D01*
X2901285Y-1947571D01*
X2887000Y-1976143D01*
X2872714Y-1990429D01*
X2844143Y-2004714D01*
X2815571Y-2004714D01*
X2787000Y-1990429D01*
X2772714Y-1976143D01*
X2758428Y-1947571D01*
X2744143Y-1890429D01*
X2744143Y-1819000D01*
X2758428Y-1761857D01*
X2772714Y-1733286D01*
X2787000Y-1719000D01*
X2815571Y-1704714D01*
X3029857Y-1733286D02*
X3044143Y-1719000D01*
X3072714Y-1704714D01*
X3144143Y-1704714D01*
X3172714Y-1719000D01*
X3187000Y-1733286D01*
X3201285Y-1761857D01*
X3201285Y-1790429D01*
X3187000Y-1833286D01*
X3015571Y-2004714D01*
X3201285Y-2004714D01*
X3458428Y-1704714D02*
X3401285Y-1704714D01*
X3372714Y-1719000D01*
X3358428Y-1733286D01*
X3329857Y-1776143D01*
X3315571Y-1833286D01*
X3315571Y-1947571D01*
X3329857Y-1976143D01*
X3344143Y-1990429D01*
X3372714Y-2004714D01*
X3429857Y-2004714D01*
X3458428Y-1990429D01*
X3472714Y-1976143D01*
X3487000Y-1947571D01*
X3487000Y-1876143D01*
X3472714Y-1847571D01*
X3458428Y-1833286D01*
X3429857Y-1819000D01*
X3372714Y-1819000D01*
X3344143Y-1833286D01*
X3329857Y-1847571D01*
X3315571Y-1876143D01*
X3601286Y-1704714D02*
X3601286Y-1761857D01*
X3715571Y-1704714D02*
X3715571Y-1761857D01*
X4158428Y-2119000D02*
X4144143Y-2104714D01*
X4115571Y-2061857D01*
X4101285Y-2033286D01*
X4087000Y-1990429D01*
X4072714Y-1919000D01*
X4072714Y-1861857D01*
X4087000Y-1790429D01*
X4101285Y-1747571D01*
X4115571Y-1719000D01*
X4144143Y-1676143D01*
X4158428Y-1661857D01*
X4429857Y-2004714D02*
X4258428Y-2004714D01*
X4344143Y-2004714D02*
X4344143Y-1704714D01*
X4315571Y-1747571D01*
X4287000Y-1776143D01*
X4258428Y-1790429D01*
X4701286Y-1704714D02*
X4558428Y-1704714D01*
X4544143Y-1847571D01*
X4558428Y-1833286D01*
X4587000Y-1819000D01*
X4658428Y-1819000D01*
X4687000Y-1833286D01*
X4701286Y-1847571D01*
X4715571Y-1876143D01*
X4715571Y-1947571D01*
X4701286Y-1976143D01*
X4687000Y-1990429D01*
X4658428Y-2004714D01*
X4587000Y-2004714D01*
X4558428Y-1990429D01*
X4544143Y-1976143D01*
X5072714Y-2004714D02*
X5072714Y-1704714D01*
X5201286Y-2004714D02*
X5201286Y-1847571D01*
X5187000Y-1819000D01*
X5158428Y-1804714D01*
X5115571Y-1804714D01*
X5087000Y-1819000D01*
X5072714Y-1833286D01*
X5387000Y-2004714D02*
X5358428Y-1990429D01*
X5344143Y-1976143D01*
X5329857Y-1947571D01*
X5329857Y-1861857D01*
X5344143Y-1833286D01*
X5358428Y-1819000D01*
X5387000Y-1804714D01*
X5429857Y-1804714D01*
X5458428Y-1819000D01*
X5472714Y-1833286D01*
X5487000Y-1861857D01*
X5487000Y-1947571D01*
X5472714Y-1976143D01*
X5458428Y-1990429D01*
X5429857Y-2004714D01*
X5387000Y-2004714D01*
X5658428Y-2004714D02*
X5629857Y-1990429D01*
X5615571Y-1961857D01*
X5615571Y-1704714D01*
X5887000Y-1990429D02*
X5858428Y-2004714D01*
X5801286Y-2004714D01*
X5772714Y-1990429D01*
X5758428Y-1961857D01*
X5758428Y-1847571D01*
X5772714Y-1819000D01*
X5801286Y-1804714D01*
X5858428Y-1804714D01*
X5887000Y-1819000D01*
X5901286Y-1847571D01*
X5901286Y-1876143D01*
X5758428Y-1904714D01*
X6015571Y-1990429D02*
X6044143Y-2004714D01*
X6101286Y-2004714D01*
X6129857Y-1990429D01*
X6144143Y-1961857D01*
X6144143Y-1947571D01*
X6129857Y-1919000D01*
X6101286Y-1904714D01*
X6058428Y-1904714D01*
X6029857Y-1890429D01*
X6015571Y-1861857D01*
X6015571Y-1847571D01*
X6029857Y-1819000D01*
X6058428Y-1804714D01*
X6101286Y-1804714D01*
X6129857Y-1819000D01*
X6244143Y-2119000D02*
X6258428Y-2104714D01*
X6287000Y-2061857D01*
X6301286Y-2033286D01*
X6315571Y-1990429D01*
X6329857Y-1919000D01*
X6329857Y-1861857D01*
X6315571Y-1790429D01*
X6301286Y-1747571D01*
X6287000Y-1719000D01*
X6258428Y-1676143D01*
X6244143Y-1661857D01*
X-551100Y-2226900D02*
X-551100Y-2303100D01*
X-589200Y-2265000D02*
X-513000Y-2265000D01*
X-184429Y-2100714D02*
X-155857Y-2100714D01*
X-127286Y-2115000D01*
X-113000Y-2129286D01*
X-98714Y-2157857D01*
X-84429Y-2215000D01*
X-84429Y-2286429D01*
X-98714Y-2343572D01*
X-113000Y-2372143D01*
X-127286Y-2386429D01*
X-155857Y-2400714D01*
X-184429Y-2400714D01*
X-213000Y-2386429D01*
X-227286Y-2372143D01*
X-241571Y-2343572D01*
X-255857Y-2286429D01*
X-255857Y-2215000D01*
X-241571Y-2157857D01*
X-227286Y-2129286D01*
X-213000Y-2115000D01*
X-184429Y-2100714D01*
X44143Y-2372143D02*
X58428Y-2386429D01*
X44143Y-2400714D01*
X29857Y-2386429D01*
X44143Y-2372143D01*
X44143Y-2400714D01*
X158428Y-2100714D02*
X358428Y-2100714D01*
X229857Y-2400714D01*
X601286Y-2100714D02*
X544143Y-2100714D01*
X515571Y-2115000D01*
X501286Y-2129286D01*
X472714Y-2172143D01*
X458428Y-2229286D01*
X458428Y-2343572D01*
X472714Y-2372143D01*
X487000Y-2386429D01*
X515571Y-2400714D01*
X572714Y-2400714D01*
X601286Y-2386429D01*
X615571Y-2372143D01*
X629857Y-2343572D01*
X629857Y-2272143D01*
X615571Y-2243572D01*
X601286Y-2229286D01*
X572714Y-2215000D01*
X515571Y-2215000D01*
X487000Y-2229286D01*
X472714Y-2243572D01*
X458428Y-2272143D01*
X758428Y-2400714D02*
X758428Y-2200714D01*
X758428Y-2229286D02*
X772714Y-2215000D01*
X801286Y-2200714D01*
X844143Y-2200714D01*
X872714Y-2215000D01*
X887000Y-2243572D01*
X887000Y-2400714D01*
X887000Y-2243572D02*
X901286Y-2215000D01*
X929857Y-2200714D01*
X972714Y-2200714D01*
X1001286Y-2215000D01*
X1015571Y-2243572D01*
X1015571Y-2400714D01*
X1158429Y-2400714D02*
X1158429Y-2200714D01*
X1158429Y-2229286D02*
X1172714Y-2215000D01*
X1201286Y-2200714D01*
X1244143Y-2200714D01*
X1272714Y-2215000D01*
X1287000Y-2243572D01*
X1287000Y-2400714D01*
X1287000Y-2243572D02*
X1301286Y-2215000D01*
X1329857Y-2200714D01*
X1372714Y-2200714D01*
X1401286Y-2215000D01*
X1415571Y-2243572D01*
X1415571Y-2400714D01*
X2001286Y-2086429D02*
X1744143Y-2472143D01*
X2387000Y-2100714D02*
X2415571Y-2100714D01*
X2444143Y-2115000D01*
X2458428Y-2129286D01*
X2472714Y-2157857D01*
X2487000Y-2215000D01*
X2487000Y-2286429D01*
X2472714Y-2343572D01*
X2458428Y-2372143D01*
X2444143Y-2386429D01*
X2415571Y-2400714D01*
X2387000Y-2400714D01*
X2358428Y-2386429D01*
X2344143Y-2372143D01*
X2329857Y-2343572D01*
X2315571Y-2286429D01*
X2315571Y-2215000D01*
X2329857Y-2157857D01*
X2344143Y-2129286D01*
X2358428Y-2115000D01*
X2387000Y-2100714D01*
X2615571Y-2372143D02*
X2629857Y-2386429D01*
X2615571Y-2400714D01*
X2601286Y-2386429D01*
X2615571Y-2372143D01*
X2615571Y-2400714D01*
X2815571Y-2100714D02*
X2844143Y-2100714D01*
X2872714Y-2115000D01*
X2887000Y-2129286D01*
X2901285Y-2157857D01*
X2915571Y-2215000D01*
X2915571Y-2286429D01*
X2901285Y-2343572D01*
X2887000Y-2372143D01*
X2872714Y-2386429D01*
X2844143Y-2400714D01*
X2815571Y-2400714D01*
X2787000Y-2386429D01*
X2772714Y-2372143D01*
X2758428Y-2343572D01*
X2744143Y-2286429D01*
X2744143Y-2215000D01*
X2758428Y-2157857D01*
X2772714Y-2129286D01*
X2787000Y-2115000D01*
X2815571Y-2100714D01*
X3015571Y-2100714D02*
X3201285Y-2100714D01*
X3101285Y-2215000D01*
X3144143Y-2215000D01*
X3172714Y-2229286D01*
X3187000Y-2243572D01*
X3201285Y-2272143D01*
X3201285Y-2343572D01*
X3187000Y-2372143D01*
X3172714Y-2386429D01*
X3144143Y-2400714D01*
X3058428Y-2400714D01*
X3029857Y-2386429D01*
X3015571Y-2372143D01*
X3387000Y-2100714D02*
X3415571Y-2100714D01*
X3444143Y-2115000D01*
X3458428Y-2129286D01*
X3472714Y-2157857D01*
X3487000Y-2215000D01*
X3487000Y-2286429D01*
X3472714Y-2343572D01*
X3458428Y-2372143D01*
X3444143Y-2386429D01*
X3415571Y-2400714D01*
X3387000Y-2400714D01*
X3358428Y-2386429D01*
X3344143Y-2372143D01*
X3329857Y-2343572D01*
X3315571Y-2286429D01*
X3315571Y-2215000D01*
X3329857Y-2157857D01*
X3344143Y-2129286D01*
X3358428Y-2115000D01*
X3387000Y-2100714D01*
X3601286Y-2100714D02*
X3601286Y-2157857D01*
X3715571Y-2100714D02*
X3715571Y-2157857D01*
X4158428Y-2515000D02*
X4144143Y-2500714D01*
X4115571Y-2457857D01*
X4101285Y-2429286D01*
X4087000Y-2386429D01*
X4072714Y-2315000D01*
X4072714Y-2257857D01*
X4087000Y-2186429D01*
X4101285Y-2143572D01*
X4115571Y-2115000D01*
X4144143Y-2072143D01*
X4158428Y-2057857D01*
X4244143Y-2100714D02*
X4429857Y-2100714D01*
X4329857Y-2215000D01*
X4372714Y-2215000D01*
X4401286Y-2229286D01*
X4415571Y-2243572D01*
X4429857Y-2272143D01*
X4429857Y-2343572D01*
X4415571Y-2372143D01*
X4401286Y-2386429D01*
X4372714Y-2400714D01*
X4287000Y-2400714D01*
X4258428Y-2386429D01*
X4244143Y-2372143D01*
X4529857Y-2100714D02*
X4715571Y-2100714D01*
X4615571Y-2215000D01*
X4658428Y-2215000D01*
X4687000Y-2229286D01*
X4701286Y-2243572D01*
X4715571Y-2272143D01*
X4715571Y-2343572D01*
X4701286Y-2372143D01*
X4687000Y-2386429D01*
X4658428Y-2400714D01*
X4572714Y-2400714D01*
X4544143Y-2386429D01*
X4529857Y-2372143D01*
X4972714Y-2100714D02*
X4915571Y-2100714D01*
X4887000Y-2115000D01*
X4872714Y-2129286D01*
X4844143Y-2172143D01*
X4829857Y-2229286D01*
X4829857Y-2343572D01*
X4844143Y-2372143D01*
X4858428Y-2386429D01*
X4887000Y-2400714D01*
X4944143Y-2400714D01*
X4972714Y-2386429D01*
X4987000Y-2372143D01*
X5001286Y-2343572D01*
X5001286Y-2272143D01*
X4987000Y-2243572D01*
X4972714Y-2229286D01*
X4944143Y-2215000D01*
X4887000Y-2215000D01*
X4858428Y-2229286D01*
X4844143Y-2243572D01*
X4829857Y-2272143D01*
X5358428Y-2400714D02*
X5358428Y-2100714D01*
X5487000Y-2400714D02*
X5487000Y-2243572D01*
X5472714Y-2215000D01*
X5444143Y-2200714D01*
X5401286Y-2200714D01*
X5372714Y-2215000D01*
X5358428Y-2229286D01*
X5672714Y-2400714D02*
X5644143Y-2386429D01*
X5629857Y-2372143D01*
X5615571Y-2343572D01*
X5615571Y-2257857D01*
X5629857Y-2229286D01*
X5644143Y-2215000D01*
X5672714Y-2200714D01*
X5715571Y-2200714D01*
X5744143Y-2215000D01*
X5758428Y-2229286D01*
X5772714Y-2257857D01*
X5772714Y-2343572D01*
X5758428Y-2372143D01*
X5744143Y-2386429D01*
X5715571Y-2400714D01*
X5672714Y-2400714D01*
X5944143Y-2400714D02*
X5915571Y-2386429D01*
X5901286Y-2357857D01*
X5901286Y-2100714D01*
X6172714Y-2386429D02*
X6144143Y-2400714D01*
X6087000Y-2400714D01*
X6058428Y-2386429D01*
X6044143Y-2357857D01*
X6044143Y-2243572D01*
X6058428Y-2215000D01*
X6087000Y-2200714D01*
X6144143Y-2200714D01*
X6172714Y-2215000D01*
X6187000Y-2243572D01*
X6187000Y-2272143D01*
X6044143Y-2300714D01*
X6301286Y-2386429D02*
X6329857Y-2400714D01*
X6387000Y-2400714D01*
X6415571Y-2386429D01*
X6429857Y-2357857D01*
X6429857Y-2343572D01*
X6415571Y-2315000D01*
X6387000Y-2300714D01*
X6344143Y-2300714D01*
X6315571Y-2286429D01*
X6301286Y-2257857D01*
X6301286Y-2243572D01*
X6315571Y-2215000D01*
X6344143Y-2200714D01*
X6387000Y-2200714D01*
X6415571Y-2215000D01*
X6529857Y-2515000D02*
X6544143Y-2500714D01*
X6572714Y-2457857D01*
X6587000Y-2429286D01*
X6601286Y-2386429D01*
X6615571Y-2315000D01*
X6615571Y-2257857D01*
X6601286Y-2186429D01*
X6587000Y-2143572D01*
X6572714Y-2115000D01*
X6544143Y-2072143D01*
X6529857Y-2057857D01*
X-524716Y-2689285D02*
X-524716Y-2632716D01*
X-581285Y-2632716D01*
X-581285Y-2689285D01*
X-524716Y-2689285D01*
X-184429Y-2496714D02*
X-155857Y-2496714D01*
X-127286Y-2511000D01*
X-113000Y-2525286D01*
X-98714Y-2553857D01*
X-84429Y-2611000D01*
X-84429Y-2682429D01*
X-98714Y-2739572D01*
X-113000Y-2768143D01*
X-127286Y-2782429D01*
X-155857Y-2796714D01*
X-184429Y-2796714D01*
X-213000Y-2782429D01*
X-227286Y-2768143D01*
X-241571Y-2739572D01*
X-255857Y-2682429D01*
X-255857Y-2611000D01*
X-241571Y-2553857D01*
X-227286Y-2525286D01*
X-213000Y-2511000D01*
X-184429Y-2496714D01*
X44143Y-2768143D02*
X58428Y-2782429D01*
X44143Y-2796714D01*
X29857Y-2782429D01*
X44143Y-2768143D01*
X44143Y-2796714D01*
X229857Y-2625286D02*
X201286Y-2611000D01*
X187000Y-2596714D01*
X172714Y-2568143D01*
X172714Y-2553857D01*
X187000Y-2525286D01*
X201286Y-2511000D01*
X229857Y-2496714D01*
X287000Y-2496714D01*
X315571Y-2511000D01*
X329857Y-2525286D01*
X344143Y-2553857D01*
X344143Y-2568143D01*
X329857Y-2596714D01*
X315571Y-2611000D01*
X287000Y-2625286D01*
X229857Y-2625286D01*
X201286Y-2639572D01*
X187000Y-2653857D01*
X172714Y-2682429D01*
X172714Y-2739572D01*
X187000Y-2768143D01*
X201286Y-2782429D01*
X229857Y-2796714D01*
X287000Y-2796714D01*
X315571Y-2782429D01*
X329857Y-2768143D01*
X344143Y-2739572D01*
X344143Y-2682429D01*
X329857Y-2653857D01*
X315571Y-2639572D01*
X287000Y-2625286D01*
X529857Y-2496714D02*
X558429Y-2496714D01*
X587000Y-2511000D01*
X601286Y-2525286D01*
X615571Y-2553857D01*
X629857Y-2611000D01*
X629857Y-2682429D01*
X615571Y-2739572D01*
X601286Y-2768143D01*
X587000Y-2782429D01*
X558429Y-2796714D01*
X529857Y-2796714D01*
X501286Y-2782429D01*
X487000Y-2768143D01*
X472714Y-2739572D01*
X458428Y-2682429D01*
X458428Y-2611000D01*
X472714Y-2553857D01*
X487000Y-2525286D01*
X501286Y-2511000D01*
X529857Y-2496714D01*
X758428Y-2796714D02*
X758428Y-2596714D01*
X758428Y-2625286D02*
X772714Y-2611000D01*
X801286Y-2596714D01*
X844143Y-2596714D01*
X872714Y-2611000D01*
X887000Y-2639572D01*
X887000Y-2796714D01*
X887000Y-2639572D02*
X901286Y-2611000D01*
X929857Y-2596714D01*
X972714Y-2596714D01*
X1001286Y-2611000D01*
X1015571Y-2639572D01*
X1015571Y-2796714D01*
X1158429Y-2796714D02*
X1158429Y-2596714D01*
X1158429Y-2625286D02*
X1172714Y-2611000D01*
X1201286Y-2596714D01*
X1244143Y-2596714D01*
X1272714Y-2611000D01*
X1287000Y-2639572D01*
X1287000Y-2796714D01*
X1287000Y-2639572D02*
X1301286Y-2611000D01*
X1329857Y-2596714D01*
X1372714Y-2596714D01*
X1401286Y-2611000D01*
X1415571Y-2639572D01*
X1415571Y-2796714D01*
X2001286Y-2482429D02*
X1744143Y-2868143D01*
X2387000Y-2496714D02*
X2415571Y-2496714D01*
X2444143Y-2511000D01*
X2458428Y-2525286D01*
X2472714Y-2553857D01*
X2487000Y-2611000D01*
X2487000Y-2682429D01*
X2472714Y-2739572D01*
X2458428Y-2768143D01*
X2444143Y-2782429D01*
X2415571Y-2796714D01*
X2387000Y-2796714D01*
X2358428Y-2782429D01*
X2344143Y-2768143D01*
X2329857Y-2739572D01*
X2315571Y-2682429D01*
X2315571Y-2611000D01*
X2329857Y-2553857D01*
X2344143Y-2525286D01*
X2358428Y-2511000D01*
X2387000Y-2496714D01*
X2615571Y-2768143D02*
X2629857Y-2782429D01*
X2615571Y-2796714D01*
X2601286Y-2782429D01*
X2615571Y-2768143D01*
X2615571Y-2796714D01*
X2815571Y-2496714D02*
X2844143Y-2496714D01*
X2872714Y-2511000D01*
X2887000Y-2525286D01*
X2901285Y-2553857D01*
X2915571Y-2611000D01*
X2915571Y-2682429D01*
X2901285Y-2739572D01*
X2887000Y-2768143D01*
X2872714Y-2782429D01*
X2844143Y-2796714D01*
X2815571Y-2796714D01*
X2787000Y-2782429D01*
X2772714Y-2768143D01*
X2758428Y-2739572D01*
X2744143Y-2682429D01*
X2744143Y-2611000D01*
X2758428Y-2553857D01*
X2772714Y-2525286D01*
X2787000Y-2511000D01*
X2815571Y-2496714D01*
X3015571Y-2496714D02*
X3201285Y-2496714D01*
X3101285Y-2611000D01*
X3144143Y-2611000D01*
X3172714Y-2625286D01*
X3187000Y-2639572D01*
X3201285Y-2668143D01*
X3201285Y-2739572D01*
X3187000Y-2768143D01*
X3172714Y-2782429D01*
X3144143Y-2796714D01*
X3058428Y-2796714D01*
X3029857Y-2782429D01*
X3015571Y-2768143D01*
X3487000Y-2796714D02*
X3315571Y-2796714D01*
X3401285Y-2796714D02*
X3401285Y-2496714D01*
X3372714Y-2539572D01*
X3344143Y-2568143D01*
X3315571Y-2582429D01*
X3601286Y-2496714D02*
X3601286Y-2553857D01*
X3715571Y-2496714D02*
X3715571Y-2553857D01*
X4158428Y-2911000D02*
X4144143Y-2896714D01*
X4115571Y-2853857D01*
X4101285Y-2825286D01*
X4087000Y-2782429D01*
X4072714Y-2711000D01*
X4072714Y-2653857D01*
X4087000Y-2582429D01*
X4101285Y-2539572D01*
X4115571Y-2511000D01*
X4144143Y-2468143D01*
X4158428Y-2453857D01*
X4401286Y-2596714D02*
X4401286Y-2796714D01*
X4329857Y-2482429D02*
X4258428Y-2696714D01*
X4444143Y-2696714D01*
X4715571Y-2796714D02*
X4544143Y-2796714D01*
X4629857Y-2796714D02*
X4629857Y-2496714D01*
X4601286Y-2539572D01*
X4572714Y-2568143D01*
X4544143Y-2582429D01*
X5072714Y-2796714D02*
X5072714Y-2496714D01*
X5201286Y-2796714D02*
X5201286Y-2639572D01*
X5187000Y-2611000D01*
X5158428Y-2596714D01*
X5115571Y-2596714D01*
X5087000Y-2611000D01*
X5072714Y-2625286D01*
X5387000Y-2796714D02*
X5358428Y-2782429D01*
X5344143Y-2768143D01*
X5329857Y-2739572D01*
X5329857Y-2653857D01*
X5344143Y-2625286D01*
X5358428Y-2611000D01*
X5387000Y-2596714D01*
X5429857Y-2596714D01*
X5458428Y-2611000D01*
X5472714Y-2625286D01*
X5487000Y-2653857D01*
X5487000Y-2739572D01*
X5472714Y-2768143D01*
X5458428Y-2782429D01*
X5429857Y-2796714D01*
X5387000Y-2796714D01*
X5658428Y-2796714D02*
X5629857Y-2782429D01*
X5615571Y-2753857D01*
X5615571Y-2496714D01*
X5887000Y-2782429D02*
X5858428Y-2796714D01*
X5801286Y-2796714D01*
X5772714Y-2782429D01*
X5758428Y-2753857D01*
X5758428Y-2639572D01*
X5772714Y-2611000D01*
X5801286Y-2596714D01*
X5858428Y-2596714D01*
X5887000Y-2611000D01*
X5901286Y-2639572D01*
X5901286Y-2668143D01*
X5758428Y-2696714D01*
X6015571Y-2782429D02*
X6044143Y-2796714D01*
X6101286Y-2796714D01*
X6129857Y-2782429D01*
X6144143Y-2753857D01*
X6144143Y-2739572D01*
X6129857Y-2711000D01*
X6101286Y-2696714D01*
X6058428Y-2696714D01*
X6029857Y-2682429D01*
X6015571Y-2653857D01*
X6015571Y-2639572D01*
X6029857Y-2611000D01*
X6058428Y-2596714D01*
X6101286Y-2596714D01*
X6129857Y-2611000D01*
X6244143Y-2911000D02*
X6258428Y-2896714D01*
X6287000Y-2853857D01*
X6301286Y-2825286D01*
X6315571Y-2782429D01*
X6329857Y-2711000D01*
X6329857Y-2653857D01*
X6315571Y-2582429D01*
X6301286Y-2539572D01*
X6287000Y-2511000D01*
X6258428Y-2468143D01*
X6244143Y-2453857D01*
X-553005Y-3097005D02*
X-513000Y-3057000D01*
X-553005Y-3016995D01*
X-593010Y-3057000D01*
X-553005Y-3097005D01*
X-184429Y-2892714D02*
X-155857Y-2892714D01*
X-127286Y-2907000D01*
X-113000Y-2921286D01*
X-98714Y-2949857D01*
X-84429Y-3007000D01*
X-84429Y-3078429D01*
X-98714Y-3135571D01*
X-113000Y-3164143D01*
X-127286Y-3178429D01*
X-155857Y-3192714D01*
X-184429Y-3192714D01*
X-213000Y-3178429D01*
X-227286Y-3164143D01*
X-241571Y-3135571D01*
X-255857Y-3078429D01*
X-255857Y-3007000D01*
X-241571Y-2949857D01*
X-227286Y-2921286D01*
X-213000Y-2907000D01*
X-184429Y-2892714D01*
X44143Y-3164143D02*
X58428Y-3178429D01*
X44143Y-3192714D01*
X29857Y-3178429D01*
X44143Y-3164143D01*
X44143Y-3192714D01*
X229857Y-3021286D02*
X201286Y-3007000D01*
X187000Y-2992714D01*
X172714Y-2964143D01*
X172714Y-2949857D01*
X187000Y-2921286D01*
X201286Y-2907000D01*
X229857Y-2892714D01*
X287000Y-2892714D01*
X315571Y-2907000D01*
X329857Y-2921286D01*
X344143Y-2949857D01*
X344143Y-2964143D01*
X329857Y-2992714D01*
X315571Y-3007000D01*
X287000Y-3021286D01*
X229857Y-3021286D01*
X201286Y-3035571D01*
X187000Y-3049857D01*
X172714Y-3078429D01*
X172714Y-3135571D01*
X187000Y-3164143D01*
X201286Y-3178429D01*
X229857Y-3192714D01*
X287000Y-3192714D01*
X315571Y-3178429D01*
X329857Y-3164143D01*
X344143Y-3135571D01*
X344143Y-3078429D01*
X329857Y-3049857D01*
X315571Y-3035571D01*
X287000Y-3021286D01*
X529857Y-2892714D02*
X558429Y-2892714D01*
X587000Y-2907000D01*
X601286Y-2921286D01*
X615571Y-2949857D01*
X629857Y-3007000D01*
X629857Y-3078429D01*
X615571Y-3135571D01*
X601286Y-3164143D01*
X587000Y-3178429D01*
X558429Y-3192714D01*
X529857Y-3192714D01*
X501286Y-3178429D01*
X487000Y-3164143D01*
X472714Y-3135571D01*
X458428Y-3078429D01*
X458428Y-3007000D01*
X472714Y-2949857D01*
X487000Y-2921286D01*
X501286Y-2907000D01*
X529857Y-2892714D01*
X758428Y-3192714D02*
X758428Y-2992714D01*
X758428Y-3021286D02*
X772714Y-3007000D01*
X801286Y-2992714D01*
X844143Y-2992714D01*
X872714Y-3007000D01*
X887000Y-3035571D01*
X887000Y-3192714D01*
X887000Y-3035571D02*
X901286Y-3007000D01*
X929857Y-2992714D01*
X972714Y-2992714D01*
X1001286Y-3007000D01*
X1015571Y-3035571D01*
X1015571Y-3192714D01*
X1158429Y-3192714D02*
X1158429Y-2992714D01*
X1158429Y-3021286D02*
X1172714Y-3007000D01*
X1201286Y-2992714D01*
X1244143Y-2992714D01*
X1272714Y-3007000D01*
X1287000Y-3035571D01*
X1287000Y-3192714D01*
X1287000Y-3035571D02*
X1301286Y-3007000D01*
X1329857Y-2992714D01*
X1372714Y-2992714D01*
X1401286Y-3007000D01*
X1415571Y-3035571D01*
X1415571Y-3192714D01*
X2001286Y-2878429D02*
X1744143Y-3264143D01*
X2387000Y-2892714D02*
X2415571Y-2892714D01*
X2444143Y-2907000D01*
X2458428Y-2921286D01*
X2472714Y-2949857D01*
X2487000Y-3007000D01*
X2487000Y-3078429D01*
X2472714Y-3135571D01*
X2458428Y-3164143D01*
X2444143Y-3178429D01*
X2415571Y-3192714D01*
X2387000Y-3192714D01*
X2358428Y-3178429D01*
X2344143Y-3164143D01*
X2329857Y-3135571D01*
X2315571Y-3078429D01*
X2315571Y-3007000D01*
X2329857Y-2949857D01*
X2344143Y-2921286D01*
X2358428Y-2907000D01*
X2387000Y-2892714D01*
X2615571Y-3164143D02*
X2629857Y-3178429D01*
X2615571Y-3192714D01*
X2601286Y-3178429D01*
X2615571Y-3164143D01*
X2615571Y-3192714D01*
X2815571Y-2892714D02*
X2844143Y-2892714D01*
X2872714Y-2907000D01*
X2887000Y-2921286D01*
X2901285Y-2949857D01*
X2915571Y-3007000D01*
X2915571Y-3078429D01*
X2901285Y-3135571D01*
X2887000Y-3164143D01*
X2872714Y-3178429D01*
X2844143Y-3192714D01*
X2815571Y-3192714D01*
X2787000Y-3178429D01*
X2772714Y-3164143D01*
X2758428Y-3135571D01*
X2744143Y-3078429D01*
X2744143Y-3007000D01*
X2758428Y-2949857D01*
X2772714Y-2921286D01*
X2787000Y-2907000D01*
X2815571Y-2892714D01*
X3015571Y-2892714D02*
X3201285Y-2892714D01*
X3101285Y-3007000D01*
X3144143Y-3007000D01*
X3172714Y-3021286D01*
X3187000Y-3035571D01*
X3201285Y-3064143D01*
X3201285Y-3135571D01*
X3187000Y-3164143D01*
X3172714Y-3178429D01*
X3144143Y-3192714D01*
X3058428Y-3192714D01*
X3029857Y-3178429D01*
X3015571Y-3164143D01*
X3315571Y-2921286D02*
X3329857Y-2907000D01*
X3358428Y-2892714D01*
X3429857Y-2892714D01*
X3458428Y-2907000D01*
X3472714Y-2921286D01*
X3487000Y-2949857D01*
X3487000Y-2978429D01*
X3472714Y-3021286D01*
X3301285Y-3192714D01*
X3487000Y-3192714D01*
X3601286Y-2892714D02*
X3601286Y-2949857D01*
X3715571Y-2892714D02*
X3715571Y-2949857D01*
X4158428Y-3307000D02*
X4144143Y-3292714D01*
X4115571Y-3249857D01*
X4101285Y-3221286D01*
X4087000Y-3178429D01*
X4072714Y-3107000D01*
X4072714Y-3049857D01*
X4087000Y-2978429D01*
X4101285Y-2935571D01*
X4115571Y-2907000D01*
X4144143Y-2864143D01*
X4158428Y-2849857D01*
X4244143Y-2892714D02*
X4429857Y-2892714D01*
X4329857Y-3007000D01*
X4372714Y-3007000D01*
X4401286Y-3021286D01*
X4415571Y-3035571D01*
X4429857Y-3064143D01*
X4429857Y-3135571D01*
X4415571Y-3164143D01*
X4401286Y-3178429D01*
X4372714Y-3192714D01*
X4287000Y-3192714D01*
X4258428Y-3178429D01*
X4244143Y-3164143D01*
X4529857Y-2892714D02*
X4715571Y-2892714D01*
X4615571Y-3007000D01*
X4658428Y-3007000D01*
X4687000Y-3021286D01*
X4701286Y-3035571D01*
X4715571Y-3064143D01*
X4715571Y-3135571D01*
X4701286Y-3164143D01*
X4687000Y-3178429D01*
X4658428Y-3192714D01*
X4572714Y-3192714D01*
X4544143Y-3178429D01*
X4529857Y-3164143D01*
X5072714Y-3192714D02*
X5072714Y-2892714D01*
X5201286Y-3192714D02*
X5201286Y-3035571D01*
X5187000Y-3007000D01*
X5158428Y-2992714D01*
X5115571Y-2992714D01*
X5087000Y-3007000D01*
X5072714Y-3021286D01*
X5387000Y-3192714D02*
X5358428Y-3178429D01*
X5344143Y-3164143D01*
X5329857Y-3135571D01*
X5329857Y-3049857D01*
X5344143Y-3021286D01*
X5358428Y-3007000D01*
X5387000Y-2992714D01*
X5429857Y-2992714D01*
X5458428Y-3007000D01*
X5472714Y-3021286D01*
X5487000Y-3049857D01*
X5487000Y-3135571D01*
X5472714Y-3164143D01*
X5458428Y-3178429D01*
X5429857Y-3192714D01*
X5387000Y-3192714D01*
X5658428Y-3192714D02*
X5629857Y-3178429D01*
X5615571Y-3149857D01*
X5615571Y-2892714D01*
X5887000Y-3178429D02*
X5858428Y-3192714D01*
X5801286Y-3192714D01*
X5772714Y-3178429D01*
X5758428Y-3149857D01*
X5758428Y-3035571D01*
X5772714Y-3007000D01*
X5801286Y-2992714D01*
X5858428Y-2992714D01*
X5887000Y-3007000D01*
X5901286Y-3035571D01*
X5901286Y-3064143D01*
X5758428Y-3092714D01*
X6015571Y-3178429D02*
X6044143Y-3192714D01*
X6101286Y-3192714D01*
X6129857Y-3178429D01*
X6144143Y-3149857D01*
X6144143Y-3135571D01*
X6129857Y-3107000D01*
X6101286Y-3092714D01*
X6058428Y-3092714D01*
X6029857Y-3078429D01*
X6015571Y-3049857D01*
X6015571Y-3035571D01*
X6029857Y-3007000D01*
X6058428Y-2992714D01*
X6101286Y-2992714D01*
X6129857Y-3007000D01*
X6244143Y-3307000D02*
X6258428Y-3292714D01*
X6287000Y-3249857D01*
X6301286Y-3221286D01*
X6315571Y-3178429D01*
X6329857Y-3107000D01*
X6329857Y-3049857D01*
X6315571Y-2978429D01*
X6301286Y-2935571D01*
X6287000Y-2907000D01*
X6258428Y-2864143D01*
X6244143Y-2849857D01*
X-594280Y-3412360D02*
X-513000Y-3493640D01*
X-513000Y-3412360D02*
X-594280Y-3493640D01*
X-513000Y-3453000D02*
G75*
G03X-513000Y-3453000I-40640J0D01*
G01*
X-184429Y-3288714D02*
X-155857Y-3288714D01*
X-127286Y-3303000D01*
X-113000Y-3317286D01*
X-98714Y-3345857D01*
X-84429Y-3403000D01*
X-84429Y-3474429D01*
X-98714Y-3531571D01*
X-113000Y-3560143D01*
X-127286Y-3574429D01*
X-155857Y-3588714D01*
X-184429Y-3588714D01*
X-213000Y-3574429D01*
X-227286Y-3560143D01*
X-241571Y-3531571D01*
X-255857Y-3474429D01*
X-255857Y-3403000D01*
X-241571Y-3345857D01*
X-227286Y-3317286D01*
X-213000Y-3303000D01*
X-184429Y-3288714D01*
X44143Y-3560143D02*
X58428Y-3574429D01*
X44143Y-3588714D01*
X29857Y-3574429D01*
X44143Y-3560143D01*
X44143Y-3588714D01*
X229857Y-3417286D02*
X201286Y-3403000D01*
X187000Y-3388714D01*
X172714Y-3360143D01*
X172714Y-3345857D01*
X187000Y-3317286D01*
X201286Y-3303000D01*
X229857Y-3288714D01*
X287000Y-3288714D01*
X315571Y-3303000D01*
X329857Y-3317286D01*
X344143Y-3345857D01*
X344143Y-3360143D01*
X329857Y-3388714D01*
X315571Y-3403000D01*
X287000Y-3417286D01*
X229857Y-3417286D01*
X201286Y-3431571D01*
X187000Y-3445857D01*
X172714Y-3474429D01*
X172714Y-3531571D01*
X187000Y-3560143D01*
X201286Y-3574429D01*
X229857Y-3588714D01*
X287000Y-3588714D01*
X315571Y-3574429D01*
X329857Y-3560143D01*
X344143Y-3531571D01*
X344143Y-3474429D01*
X329857Y-3445857D01*
X315571Y-3431571D01*
X287000Y-3417286D01*
X629857Y-3588714D02*
X458428Y-3588714D01*
X544143Y-3588714D02*
X544143Y-3288714D01*
X515571Y-3331571D01*
X487000Y-3360143D01*
X458428Y-3374429D01*
X758428Y-3588714D02*
X758428Y-3388714D01*
X758428Y-3417286D02*
X772714Y-3403000D01*
X801286Y-3388714D01*
X844143Y-3388714D01*
X872714Y-3403000D01*
X887000Y-3431571D01*
X887000Y-3588714D01*
X887000Y-3431571D02*
X901286Y-3403000D01*
X929857Y-3388714D01*
X972714Y-3388714D01*
X1001286Y-3403000D01*
X1015571Y-3431571D01*
X1015571Y-3588714D01*
X1158429Y-3588714D02*
X1158429Y-3388714D01*
X1158429Y-3417286D02*
X1172714Y-3403000D01*
X1201286Y-3388714D01*
X1244143Y-3388714D01*
X1272714Y-3403000D01*
X1287000Y-3431571D01*
X1287000Y-3588714D01*
X1287000Y-3431571D02*
X1301286Y-3403000D01*
X1329857Y-3388714D01*
X1372714Y-3388714D01*
X1401286Y-3403000D01*
X1415571Y-3431571D01*
X1415571Y-3588714D01*
X2001286Y-3274429D02*
X1744143Y-3660143D01*
X2387000Y-3288714D02*
X2415571Y-3288714D01*
X2444143Y-3303000D01*
X2458428Y-3317286D01*
X2472714Y-3345857D01*
X2487000Y-3403000D01*
X2487000Y-3474429D01*
X2472714Y-3531571D01*
X2458428Y-3560143D01*
X2444143Y-3574429D01*
X2415571Y-3588714D01*
X2387000Y-3588714D01*
X2358428Y-3574429D01*
X2344143Y-3560143D01*
X2329857Y-3531571D01*
X2315571Y-3474429D01*
X2315571Y-3403000D01*
X2329857Y-3345857D01*
X2344143Y-3317286D01*
X2358428Y-3303000D01*
X2387000Y-3288714D01*
X2615571Y-3560143D02*
X2629857Y-3574429D01*
X2615571Y-3588714D01*
X2601286Y-3574429D01*
X2615571Y-3560143D01*
X2615571Y-3588714D01*
X2815571Y-3288714D02*
X2844143Y-3288714D01*
X2872714Y-3303000D01*
X2887000Y-3317286D01*
X2901285Y-3345857D01*
X2915571Y-3403000D01*
X2915571Y-3474429D01*
X2901285Y-3531571D01*
X2887000Y-3560143D01*
X2872714Y-3574429D01*
X2844143Y-3588714D01*
X2815571Y-3588714D01*
X2787000Y-3574429D01*
X2772714Y-3560143D01*
X2758428Y-3531571D01*
X2744143Y-3474429D01*
X2744143Y-3403000D01*
X2758428Y-3345857D01*
X2772714Y-3317286D01*
X2787000Y-3303000D01*
X2815571Y-3288714D01*
X3015571Y-3288714D02*
X3201285Y-3288714D01*
X3101285Y-3403000D01*
X3144143Y-3403000D01*
X3172714Y-3417286D01*
X3187000Y-3431571D01*
X3201285Y-3460143D01*
X3201285Y-3531571D01*
X3187000Y-3560143D01*
X3172714Y-3574429D01*
X3144143Y-3588714D01*
X3058428Y-3588714D01*
X3029857Y-3574429D01*
X3015571Y-3560143D01*
X3315571Y-3317286D02*
X3329857Y-3303000D01*
X3358428Y-3288714D01*
X3429857Y-3288714D01*
X3458428Y-3303000D01*
X3472714Y-3317286D01*
X3487000Y-3345857D01*
X3487000Y-3374429D01*
X3472714Y-3417286D01*
X3301285Y-3588714D01*
X3487000Y-3588714D01*
X3601286Y-3288714D02*
X3601286Y-3345857D01*
X3715571Y-3288714D02*
X3715571Y-3345857D01*
X4158428Y-3703000D02*
X4144143Y-3688714D01*
X4115571Y-3645857D01*
X4101285Y-3617286D01*
X4087000Y-3574429D01*
X4072714Y-3503000D01*
X4072714Y-3445857D01*
X4087000Y-3374429D01*
X4101285Y-3331571D01*
X4115571Y-3303000D01*
X4144143Y-3260143D01*
X4158428Y-3245857D01*
X4401286Y-3388714D02*
X4401286Y-3588714D01*
X4329857Y-3274429D02*
X4258428Y-3488714D01*
X4444143Y-3488714D01*
X4787000Y-3588714D02*
X4787000Y-3288714D01*
X4915571Y-3588714D02*
X4915571Y-3431571D01*
X4901286Y-3403000D01*
X4872714Y-3388714D01*
X4829857Y-3388714D01*
X4801286Y-3403000D01*
X4787000Y-3417286D01*
X5101286Y-3588714D02*
X5072714Y-3574429D01*
X5058428Y-3560143D01*
X5044143Y-3531571D01*
X5044143Y-3445857D01*
X5058428Y-3417286D01*
X5072714Y-3403000D01*
X5101286Y-3388714D01*
X5144143Y-3388714D01*
X5172714Y-3403000D01*
X5187000Y-3417286D01*
X5201286Y-3445857D01*
X5201286Y-3531571D01*
X5187000Y-3560143D01*
X5172714Y-3574429D01*
X5144143Y-3588714D01*
X5101286Y-3588714D01*
X5372714Y-3588714D02*
X5344143Y-3574429D01*
X5329857Y-3545857D01*
X5329857Y-3288714D01*
X5601286Y-3574429D02*
X5572714Y-3588714D01*
X5515571Y-3588714D01*
X5487000Y-3574429D01*
X5472714Y-3545857D01*
X5472714Y-3431571D01*
X5487000Y-3403000D01*
X5515571Y-3388714D01*
X5572714Y-3388714D01*
X5601286Y-3403000D01*
X5615571Y-3431571D01*
X5615571Y-3460143D01*
X5472714Y-3488714D01*
X5729857Y-3574429D02*
X5758428Y-3588714D01*
X5815571Y-3588714D01*
X5844143Y-3574429D01*
X5858428Y-3545857D01*
X5858428Y-3531571D01*
X5844143Y-3503000D01*
X5815571Y-3488714D01*
X5772714Y-3488714D01*
X5744143Y-3474429D01*
X5729857Y-3445857D01*
X5729857Y-3431571D01*
X5744143Y-3403000D01*
X5772714Y-3388714D01*
X5815571Y-3388714D01*
X5844143Y-3403000D01*
X5958428Y-3703000D02*
X5972714Y-3688714D01*
X6001286Y-3645857D01*
X6015571Y-3617286D01*
X6029857Y-3574429D01*
X6044143Y-3503000D01*
X6044143Y-3445857D01*
X6029857Y-3374429D01*
X6015571Y-3331571D01*
X6001286Y-3303000D01*
X5972714Y-3260143D01*
X5958428Y-3245857D01*
X-603000Y-3804000D02*
X-513000Y-3894000D01*
X-513000Y-3804000D02*
X-603000Y-3894000D01*
X-558000Y-3804000D02*
X-558000Y-3894000D01*
X-603000Y-3849000D02*
X-513000Y-3849000D01*
X-184429Y-3684714D02*
X-155857Y-3684714D01*
X-127286Y-3699000D01*
X-113000Y-3713286D01*
X-98714Y-3741857D01*
X-84429Y-3799000D01*
X-84429Y-3870429D01*
X-98714Y-3927571D01*
X-113000Y-3956143D01*
X-127286Y-3970429D01*
X-155857Y-3984714D01*
X-184429Y-3984714D01*
X-213000Y-3970429D01*
X-227286Y-3956143D01*
X-241571Y-3927571D01*
X-255857Y-3870429D01*
X-255857Y-3799000D01*
X-241571Y-3741857D01*
X-227286Y-3713286D01*
X-213000Y-3699000D01*
X-184429Y-3684714D01*
X44143Y-3956143D02*
X58428Y-3970429D01*
X44143Y-3984714D01*
X29857Y-3970429D01*
X44143Y-3956143D01*
X44143Y-3984714D01*
X201286Y-3984714D02*
X258428Y-3984714D01*
X287000Y-3970429D01*
X301286Y-3956143D01*
X329857Y-3913286D01*
X344143Y-3856143D01*
X344143Y-3741857D01*
X329857Y-3713286D01*
X315571Y-3699000D01*
X287000Y-3684714D01*
X229857Y-3684714D01*
X201286Y-3699000D01*
X187000Y-3713286D01*
X172714Y-3741857D01*
X172714Y-3813286D01*
X187000Y-3841857D01*
X201286Y-3856143D01*
X229857Y-3870429D01*
X287000Y-3870429D01*
X315571Y-3856143D01*
X329857Y-3841857D01*
X344143Y-3813286D01*
X529857Y-3684714D02*
X558429Y-3684714D01*
X587000Y-3699000D01*
X601286Y-3713286D01*
X615571Y-3741857D01*
X629857Y-3799000D01*
X629857Y-3870429D01*
X615571Y-3927571D01*
X601286Y-3956143D01*
X587000Y-3970429D01*
X558429Y-3984714D01*
X529857Y-3984714D01*
X501286Y-3970429D01*
X487000Y-3956143D01*
X472714Y-3927571D01*
X458428Y-3870429D01*
X458428Y-3799000D01*
X472714Y-3741857D01*
X487000Y-3713286D01*
X501286Y-3699000D01*
X529857Y-3684714D01*
X758428Y-3984714D02*
X758428Y-3784714D01*
X758428Y-3813286D02*
X772714Y-3799000D01*
X801286Y-3784714D01*
X844143Y-3784714D01*
X872714Y-3799000D01*
X887000Y-3827571D01*
X887000Y-3984714D01*
X887000Y-3827571D02*
X901286Y-3799000D01*
X929857Y-3784714D01*
X972714Y-3784714D01*
X1001286Y-3799000D01*
X1015571Y-3827571D01*
X1015571Y-3984714D01*
X1158429Y-3984714D02*
X1158429Y-3784714D01*
X1158429Y-3813286D02*
X1172714Y-3799000D01*
X1201286Y-3784714D01*
X1244143Y-3784714D01*
X1272714Y-3799000D01*
X1287000Y-3827571D01*
X1287000Y-3984714D01*
X1287000Y-3827571D02*
X1301286Y-3799000D01*
X1329857Y-3784714D01*
X1372714Y-3784714D01*
X1401286Y-3799000D01*
X1415571Y-3827571D01*
X1415571Y-3984714D01*
X2001286Y-3670429D02*
X1744143Y-4056143D01*
X2387000Y-3684714D02*
X2415571Y-3684714D01*
X2444143Y-3699000D01*
X2458428Y-3713286D01*
X2472714Y-3741857D01*
X2487000Y-3799000D01*
X2487000Y-3870429D01*
X2472714Y-3927571D01*
X2458428Y-3956143D01*
X2444143Y-3970429D01*
X2415571Y-3984714D01*
X2387000Y-3984714D01*
X2358428Y-3970429D01*
X2344143Y-3956143D01*
X2329857Y-3927571D01*
X2315571Y-3870429D01*
X2315571Y-3799000D01*
X2329857Y-3741857D01*
X2344143Y-3713286D01*
X2358428Y-3699000D01*
X2387000Y-3684714D01*
X2615571Y-3956143D02*
X2629857Y-3970429D01*
X2615571Y-3984714D01*
X2601286Y-3970429D01*
X2615571Y-3956143D01*
X2615571Y-3984714D01*
X2815571Y-3684714D02*
X2844143Y-3684714D01*
X2872714Y-3699000D01*
X2887000Y-3713286D01*
X2901285Y-3741857D01*
X2915571Y-3799000D01*
X2915571Y-3870429D01*
X2901285Y-3927571D01*
X2887000Y-3956143D01*
X2872714Y-3970429D01*
X2844143Y-3984714D01*
X2815571Y-3984714D01*
X2787000Y-3970429D01*
X2772714Y-3956143D01*
X2758428Y-3927571D01*
X2744143Y-3870429D01*
X2744143Y-3799000D01*
X2758428Y-3741857D01*
X2772714Y-3713286D01*
X2787000Y-3699000D01*
X2815571Y-3684714D01*
X3015571Y-3684714D02*
X3201285Y-3684714D01*
X3101285Y-3799000D01*
X3144143Y-3799000D01*
X3172714Y-3813286D01*
X3187000Y-3827571D01*
X3201285Y-3856143D01*
X3201285Y-3927571D01*
X3187000Y-3956143D01*
X3172714Y-3970429D01*
X3144143Y-3984714D01*
X3058428Y-3984714D01*
X3029857Y-3970429D01*
X3015571Y-3956143D01*
X3472714Y-3684714D02*
X3329857Y-3684714D01*
X3315571Y-3827571D01*
X3329857Y-3813286D01*
X3358428Y-3799000D01*
X3429857Y-3799000D01*
X3458428Y-3813286D01*
X3472714Y-3827571D01*
X3487000Y-3856143D01*
X3487000Y-3927571D01*
X3472714Y-3956143D01*
X3458428Y-3970429D01*
X3429857Y-3984714D01*
X3358428Y-3984714D01*
X3329857Y-3970429D01*
X3315571Y-3956143D01*
X3601286Y-3684714D02*
X3601286Y-3741857D01*
X3715571Y-3684714D02*
X3715571Y-3741857D01*
X4158428Y-4099000D02*
X4144143Y-4084714D01*
X4115571Y-4041857D01*
X4101285Y-4013286D01*
X4087000Y-3970429D01*
X4072714Y-3899000D01*
X4072714Y-3841857D01*
X4087000Y-3770429D01*
X4101285Y-3727571D01*
X4115571Y-3699000D01*
X4144143Y-3656143D01*
X4158428Y-3641857D01*
X4429857Y-3984714D02*
X4258428Y-3984714D01*
X4344143Y-3984714D02*
X4344143Y-3684714D01*
X4315571Y-3727571D01*
X4287000Y-3756143D01*
X4258428Y-3770429D01*
X4601286Y-3813286D02*
X4572714Y-3799000D01*
X4558428Y-3784714D01*
X4544143Y-3756143D01*
X4544143Y-3741857D01*
X4558428Y-3713286D01*
X4572714Y-3699000D01*
X4601286Y-3684714D01*
X4658428Y-3684714D01*
X4687000Y-3699000D01*
X4701286Y-3713286D01*
X4715571Y-3741857D01*
X4715571Y-3756143D01*
X4701286Y-3784714D01*
X4687000Y-3799000D01*
X4658428Y-3813286D01*
X4601286Y-3813286D01*
X4572714Y-3827571D01*
X4558428Y-3841857D01*
X4544143Y-3870429D01*
X4544143Y-3927571D01*
X4558428Y-3956143D01*
X4572714Y-3970429D01*
X4601286Y-3984714D01*
X4658428Y-3984714D01*
X4687000Y-3970429D01*
X4701286Y-3956143D01*
X4715571Y-3927571D01*
X4715571Y-3870429D01*
X4701286Y-3841857D01*
X4687000Y-3827571D01*
X4658428Y-3813286D01*
X5072714Y-3984714D02*
X5072714Y-3684714D01*
X5201286Y-3984714D02*
X5201286Y-3827571D01*
X5187000Y-3799000D01*
X5158428Y-3784714D01*
X5115571Y-3784714D01*
X5087000Y-3799000D01*
X5072714Y-3813286D01*
X5387000Y-3984714D02*
X5358428Y-3970429D01*
X5344143Y-3956143D01*
X5329857Y-3927571D01*
X5329857Y-3841857D01*
X5344143Y-3813286D01*
X5358428Y-3799000D01*
X5387000Y-3784714D01*
X5429857Y-3784714D01*
X5458428Y-3799000D01*
X5472714Y-3813286D01*
X5487000Y-3841857D01*
X5487000Y-3927571D01*
X5472714Y-3956143D01*
X5458428Y-3970429D01*
X5429857Y-3984714D01*
X5387000Y-3984714D01*
X5658428Y-3984714D02*
X5629857Y-3970429D01*
X5615571Y-3941857D01*
X5615571Y-3684714D01*
X5887000Y-3970429D02*
X5858428Y-3984714D01*
X5801286Y-3984714D01*
X5772714Y-3970429D01*
X5758428Y-3941857D01*
X5758428Y-3827571D01*
X5772714Y-3799000D01*
X5801286Y-3784714D01*
X5858428Y-3784714D01*
X5887000Y-3799000D01*
X5901286Y-3827571D01*
X5901286Y-3856143D01*
X5758428Y-3884714D01*
X6015571Y-3970429D02*
X6044143Y-3984714D01*
X6101286Y-3984714D01*
X6129857Y-3970429D01*
X6144143Y-3941857D01*
X6144143Y-3927571D01*
X6129857Y-3899000D01*
X6101286Y-3884714D01*
X6058428Y-3884714D01*
X6029857Y-3870429D01*
X6015571Y-3841857D01*
X6015571Y-3827571D01*
X6029857Y-3799000D01*
X6058428Y-3784714D01*
X6101286Y-3784714D01*
X6129857Y-3799000D01*
X6244143Y-4099000D02*
X6258428Y-4084714D01*
X6287000Y-4041857D01*
X6301286Y-4013286D01*
X6315571Y-3970429D01*
X6329857Y-3899000D01*
X6329857Y-3841857D01*
X6315571Y-3770429D01*
X6301286Y-3727571D01*
X6287000Y-3699000D01*
X6258428Y-3656143D01*
X6244143Y-3641857D01*
X-612822Y-4195089D02*
X-513000Y-4294911D01*
X-513000Y-4195089D02*
X-612822Y-4294911D01*
X-527618Y-4280293D02*
X-527618Y-4209707D01*
X-598204Y-4209707D01*
X-598204Y-4280293D01*
X-527618Y-4280293D01*
X-84429Y-4380714D02*
X-255857Y-4380714D01*
X-170143Y-4380714D02*
X-170143Y-4080714D01*
X-198714Y-4123571D01*
X-227286Y-4152143D01*
X-255857Y-4166429D01*
X44143Y-4352143D02*
X58428Y-4366429D01*
X44143Y-4380714D01*
X29857Y-4366429D01*
X44143Y-4352143D01*
X44143Y-4380714D01*
X244143Y-4080714D02*
X272714Y-4080714D01*
X301286Y-4095000D01*
X315571Y-4109286D01*
X329857Y-4137857D01*
X344143Y-4195000D01*
X344143Y-4266429D01*
X329857Y-4323572D01*
X315571Y-4352143D01*
X301286Y-4366429D01*
X272714Y-4380714D01*
X244143Y-4380714D01*
X215571Y-4366429D01*
X201286Y-4352143D01*
X187000Y-4323572D01*
X172714Y-4266429D01*
X172714Y-4195000D01*
X187000Y-4137857D01*
X201286Y-4109286D01*
X215571Y-4095000D01*
X244143Y-4080714D01*
X529857Y-4080714D02*
X558429Y-4080714D01*
X587000Y-4095000D01*
X601286Y-4109286D01*
X615571Y-4137857D01*
X629857Y-4195000D01*
X629857Y-4266429D01*
X615571Y-4323572D01*
X601286Y-4352143D01*
X587000Y-4366429D01*
X558429Y-4380714D01*
X529857Y-4380714D01*
X501286Y-4366429D01*
X487000Y-4352143D01*
X472714Y-4323572D01*
X458428Y-4266429D01*
X458428Y-4195000D01*
X472714Y-4137857D01*
X487000Y-4109286D01*
X501286Y-4095000D01*
X529857Y-4080714D01*
X758428Y-4380714D02*
X758428Y-4180714D01*
X758428Y-4209286D02*
X772714Y-4195000D01*
X801286Y-4180714D01*
X844143Y-4180714D01*
X872714Y-4195000D01*
X887000Y-4223572D01*
X887000Y-4380714D01*
X887000Y-4223572D02*
X901286Y-4195000D01*
X929857Y-4180714D01*
X972714Y-4180714D01*
X1001286Y-4195000D01*
X1015571Y-4223572D01*
X1015571Y-4380714D01*
X1158429Y-4380714D02*
X1158429Y-4180714D01*
X1158429Y-4209286D02*
X1172714Y-4195000D01*
X1201286Y-4180714D01*
X1244143Y-4180714D01*
X1272714Y-4195000D01*
X1287000Y-4223572D01*
X1287000Y-4380714D01*
X1287000Y-4223572D02*
X1301286Y-4195000D01*
X1329857Y-4180714D01*
X1372714Y-4180714D01*
X1401286Y-4195000D01*
X1415571Y-4223572D01*
X1415571Y-4380714D01*
X2001286Y-4066429D02*
X1744143Y-4452143D01*
X2387000Y-4080714D02*
X2415571Y-4080714D01*
X2444143Y-4095000D01*
X2458428Y-4109286D01*
X2472714Y-4137857D01*
X2487000Y-4195000D01*
X2487000Y-4266429D01*
X2472714Y-4323572D01*
X2458428Y-4352143D01*
X2444143Y-4366429D01*
X2415571Y-4380714D01*
X2387000Y-4380714D01*
X2358428Y-4366429D01*
X2344143Y-4352143D01*
X2329857Y-4323572D01*
X2315571Y-4266429D01*
X2315571Y-4195000D01*
X2329857Y-4137857D01*
X2344143Y-4109286D01*
X2358428Y-4095000D01*
X2387000Y-4080714D01*
X2615571Y-4352143D02*
X2629857Y-4366429D01*
X2615571Y-4380714D01*
X2601286Y-4366429D01*
X2615571Y-4352143D01*
X2615571Y-4380714D01*
X2815571Y-4080714D02*
X2844143Y-4080714D01*
X2872714Y-4095000D01*
X2887000Y-4109286D01*
X2901285Y-4137857D01*
X2915571Y-4195000D01*
X2915571Y-4266429D01*
X2901285Y-4323572D01*
X2887000Y-4352143D01*
X2872714Y-4366429D01*
X2844143Y-4380714D01*
X2815571Y-4380714D01*
X2787000Y-4366429D01*
X2772714Y-4352143D01*
X2758428Y-4323572D01*
X2744143Y-4266429D01*
X2744143Y-4195000D01*
X2758428Y-4137857D01*
X2772714Y-4109286D01*
X2787000Y-4095000D01*
X2815571Y-4080714D01*
X3015571Y-4080714D02*
X3201285Y-4080714D01*
X3101285Y-4195000D01*
X3144143Y-4195000D01*
X3172714Y-4209286D01*
X3187000Y-4223572D01*
X3201285Y-4252143D01*
X3201285Y-4323572D01*
X3187000Y-4352143D01*
X3172714Y-4366429D01*
X3144143Y-4380714D01*
X3058428Y-4380714D01*
X3029857Y-4366429D01*
X3015571Y-4352143D01*
X3344143Y-4380714D02*
X3401285Y-4380714D01*
X3429857Y-4366429D01*
X3444143Y-4352143D01*
X3472714Y-4309286D01*
X3487000Y-4252143D01*
X3487000Y-4137857D01*
X3472714Y-4109286D01*
X3458428Y-4095000D01*
X3429857Y-4080714D01*
X3372714Y-4080714D01*
X3344143Y-4095000D01*
X3329857Y-4109286D01*
X3315571Y-4137857D01*
X3315571Y-4209286D01*
X3329857Y-4237857D01*
X3344143Y-4252143D01*
X3372714Y-4266429D01*
X3429857Y-4266429D01*
X3458428Y-4252143D01*
X3472714Y-4237857D01*
X3487000Y-4209286D01*
X3601286Y-4080714D02*
X3601286Y-4137857D01*
X3715571Y-4080714D02*
X3715571Y-4137857D01*
X4158428Y-4495000D02*
X4144143Y-4480714D01*
X4115571Y-4437857D01*
X4101285Y-4409286D01*
X4087000Y-4366429D01*
X4072714Y-4295000D01*
X4072714Y-4237857D01*
X4087000Y-4166429D01*
X4101285Y-4123571D01*
X4115571Y-4095000D01*
X4144143Y-4052143D01*
X4158428Y-4037857D01*
X4258428Y-4109286D02*
X4272714Y-4095000D01*
X4301286Y-4080714D01*
X4372714Y-4080714D01*
X4401286Y-4095000D01*
X4415571Y-4109286D01*
X4429857Y-4137857D01*
X4429857Y-4166429D01*
X4415571Y-4209286D01*
X4244143Y-4380714D01*
X4429857Y-4380714D01*
X4787000Y-4380714D02*
X4787000Y-4080714D01*
X4915571Y-4380714D02*
X4915571Y-4223572D01*
X4901286Y-4195000D01*
X4872714Y-4180714D01*
X4829857Y-4180714D01*
X4801286Y-4195000D01*
X4787000Y-4209286D01*
X5101286Y-4380714D02*
X5072714Y-4366429D01*
X5058428Y-4352143D01*
X5044143Y-4323572D01*
X5044143Y-4237857D01*
X5058428Y-4209286D01*
X5072714Y-4195000D01*
X5101286Y-4180714D01*
X5144143Y-4180714D01*
X5172714Y-4195000D01*
X5187000Y-4209286D01*
X5201286Y-4237857D01*
X5201286Y-4323572D01*
X5187000Y-4352143D01*
X5172714Y-4366429D01*
X5144143Y-4380714D01*
X5101286Y-4380714D01*
X5372714Y-4380714D02*
X5344143Y-4366429D01*
X5329857Y-4337857D01*
X5329857Y-4080714D01*
X5601286Y-4366429D02*
X5572714Y-4380714D01*
X5515571Y-4380714D01*
X5487000Y-4366429D01*
X5472714Y-4337857D01*
X5472714Y-4223572D01*
X5487000Y-4195000D01*
X5515571Y-4180714D01*
X5572714Y-4180714D01*
X5601286Y-4195000D01*
X5615571Y-4223572D01*
X5615571Y-4252143D01*
X5472714Y-4280714D01*
X5729857Y-4366429D02*
X5758428Y-4380714D01*
X5815571Y-4380714D01*
X5844143Y-4366429D01*
X5858428Y-4337857D01*
X5858428Y-4323572D01*
X5844143Y-4295000D01*
X5815571Y-4280714D01*
X5772714Y-4280714D01*
X5744143Y-4266429D01*
X5729857Y-4237857D01*
X5729857Y-4223572D01*
X5744143Y-4195000D01*
X5772714Y-4180714D01*
X5815571Y-4180714D01*
X5844143Y-4195000D01*
X5958428Y-4495000D02*
X5972714Y-4480714D01*
X6001286Y-4437857D01*
X6015571Y-4409286D01*
X6029857Y-4366429D01*
X6044143Y-4295000D01*
X6044143Y-4237857D01*
X6029857Y-4166429D01*
X6015571Y-4123571D01*
X6001286Y-4095000D01*
X5972714Y-4052143D01*
X5958428Y-4037857D01*
X-613076Y-4590962D02*
X-513000Y-4691038D01*
X-513000Y-4590962D02*
X-613076Y-4691038D01*
X-563038Y-4691038D02*
X-513000Y-4641000D01*
X-563038Y-4590962D01*
X-613076Y-4641000D01*
X-563038Y-4691038D01*
X-84429Y-4776714D02*
X-255857Y-4776714D01*
X-170143Y-4776714D02*
X-170143Y-4476714D01*
X-198714Y-4519572D01*
X-227286Y-4548143D01*
X-255857Y-4562429D01*
X44143Y-4748143D02*
X58428Y-4762429D01*
X44143Y-4776714D01*
X29857Y-4762429D01*
X44143Y-4748143D01*
X44143Y-4776714D01*
X244143Y-4476714D02*
X272714Y-4476714D01*
X301286Y-4491000D01*
X315571Y-4505286D01*
X329857Y-4533857D01*
X344143Y-4591000D01*
X344143Y-4662429D01*
X329857Y-4719572D01*
X315571Y-4748143D01*
X301286Y-4762429D01*
X272714Y-4776714D01*
X244143Y-4776714D01*
X215571Y-4762429D01*
X201286Y-4748143D01*
X187000Y-4719572D01*
X172714Y-4662429D01*
X172714Y-4591000D01*
X187000Y-4533857D01*
X201286Y-4505286D01*
X215571Y-4491000D01*
X244143Y-4476714D01*
X529857Y-4476714D02*
X558429Y-4476714D01*
X587000Y-4491000D01*
X601286Y-4505286D01*
X615571Y-4533857D01*
X629857Y-4591000D01*
X629857Y-4662429D01*
X615571Y-4719572D01*
X601286Y-4748143D01*
X587000Y-4762429D01*
X558429Y-4776714D01*
X529857Y-4776714D01*
X501286Y-4762429D01*
X487000Y-4748143D01*
X472714Y-4719572D01*
X458428Y-4662429D01*
X458428Y-4591000D01*
X472714Y-4533857D01*
X487000Y-4505286D01*
X501286Y-4491000D01*
X529857Y-4476714D01*
X758428Y-4776714D02*
X758428Y-4576714D01*
X758428Y-4605286D02*
X772714Y-4591000D01*
X801286Y-4576714D01*
X844143Y-4576714D01*
X872714Y-4591000D01*
X887000Y-4619572D01*
X887000Y-4776714D01*
X887000Y-4619572D02*
X901286Y-4591000D01*
X929857Y-4576714D01*
X972714Y-4576714D01*
X1001286Y-4591000D01*
X1015571Y-4619572D01*
X1015571Y-4776714D01*
X1158429Y-4776714D02*
X1158429Y-4576714D01*
X1158429Y-4605286D02*
X1172714Y-4591000D01*
X1201286Y-4576714D01*
X1244143Y-4576714D01*
X1272714Y-4591000D01*
X1287000Y-4619572D01*
X1287000Y-4776714D01*
X1287000Y-4619572D02*
X1301286Y-4591000D01*
X1329857Y-4576714D01*
X1372714Y-4576714D01*
X1401286Y-4591000D01*
X1415571Y-4619572D01*
X1415571Y-4776714D01*
X2001286Y-4462429D02*
X1744143Y-4848143D01*
X2387000Y-4476714D02*
X2415571Y-4476714D01*
X2444143Y-4491000D01*
X2458428Y-4505286D01*
X2472714Y-4533857D01*
X2487000Y-4591000D01*
X2487000Y-4662429D01*
X2472714Y-4719572D01*
X2458428Y-4748143D01*
X2444143Y-4762429D01*
X2415571Y-4776714D01*
X2387000Y-4776714D01*
X2358428Y-4762429D01*
X2344143Y-4748143D01*
X2329857Y-4719572D01*
X2315571Y-4662429D01*
X2315571Y-4591000D01*
X2329857Y-4533857D01*
X2344143Y-4505286D01*
X2358428Y-4491000D01*
X2387000Y-4476714D01*
X2615571Y-4748143D02*
X2629857Y-4762429D01*
X2615571Y-4776714D01*
X2601286Y-4762429D01*
X2615571Y-4748143D01*
X2615571Y-4776714D01*
X2815571Y-4476714D02*
X2844143Y-4476714D01*
X2872714Y-4491000D01*
X2887000Y-4505286D01*
X2901285Y-4533857D01*
X2915571Y-4591000D01*
X2915571Y-4662429D01*
X2901285Y-4719572D01*
X2887000Y-4748143D01*
X2872714Y-4762429D01*
X2844143Y-4776714D01*
X2815571Y-4776714D01*
X2787000Y-4762429D01*
X2772714Y-4748143D01*
X2758428Y-4719572D01*
X2744143Y-4662429D01*
X2744143Y-4591000D01*
X2758428Y-4533857D01*
X2772714Y-4505286D01*
X2787000Y-4491000D01*
X2815571Y-4476714D01*
X3015571Y-4476714D02*
X3201285Y-4476714D01*
X3101285Y-4591000D01*
X3144143Y-4591000D01*
X3172714Y-4605286D01*
X3187000Y-4619572D01*
X3201285Y-4648143D01*
X3201285Y-4719572D01*
X3187000Y-4748143D01*
X3172714Y-4762429D01*
X3144143Y-4776714D01*
X3058428Y-4776714D01*
X3029857Y-4762429D01*
X3015571Y-4748143D01*
X3344143Y-4776714D02*
X3401285Y-4776714D01*
X3429857Y-4762429D01*
X3444143Y-4748143D01*
X3472714Y-4705286D01*
X3487000Y-4648143D01*
X3487000Y-4533857D01*
X3472714Y-4505286D01*
X3458428Y-4491000D01*
X3429857Y-4476714D01*
X3372714Y-4476714D01*
X3344143Y-4491000D01*
X3329857Y-4505286D01*
X3315571Y-4533857D01*
X3315571Y-4605286D01*
X3329857Y-4633857D01*
X3344143Y-4648143D01*
X3372714Y-4662429D01*
X3429857Y-4662429D01*
X3458428Y-4648143D01*
X3472714Y-4633857D01*
X3487000Y-4605286D01*
X3601286Y-4476714D02*
X3601286Y-4533857D01*
X3715571Y-4476714D02*
X3715571Y-4533857D01*
X4158428Y-4891000D02*
X4144143Y-4876714D01*
X4115571Y-4833857D01*
X4101285Y-4805286D01*
X4087000Y-4762429D01*
X4072714Y-4691000D01*
X4072714Y-4633857D01*
X4087000Y-4562429D01*
X4101285Y-4519572D01*
X4115571Y-4491000D01*
X4144143Y-4448143D01*
X4158428Y-4433857D01*
X4429857Y-4776714D02*
X4258428Y-4776714D01*
X4344143Y-4776714D02*
X4344143Y-4476714D01*
X4315571Y-4519572D01*
X4287000Y-4548143D01*
X4258428Y-4562429D01*
X4615571Y-4476714D02*
X4644143Y-4476714D01*
X4672714Y-4491000D01*
X4687000Y-4505286D01*
X4701286Y-4533857D01*
X4715571Y-4591000D01*
X4715571Y-4662429D01*
X4701286Y-4719572D01*
X4687000Y-4748143D01*
X4672714Y-4762429D01*
X4644143Y-4776714D01*
X4615571Y-4776714D01*
X4587000Y-4762429D01*
X4572714Y-4748143D01*
X4558428Y-4719572D01*
X4544143Y-4662429D01*
X4544143Y-4591000D01*
X4558428Y-4533857D01*
X4572714Y-4505286D01*
X4587000Y-4491000D01*
X4615571Y-4476714D01*
X4972714Y-4576714D02*
X4972714Y-4776714D01*
X4901286Y-4462429D02*
X4829857Y-4676714D01*
X5015571Y-4676714D01*
X5358428Y-4776714D02*
X5358428Y-4476714D01*
X5487000Y-4776714D02*
X5487000Y-4619572D01*
X5472714Y-4591000D01*
X5444143Y-4576714D01*
X5401286Y-4576714D01*
X5372714Y-4591000D01*
X5358428Y-4605286D01*
X5672714Y-4776714D02*
X5644143Y-4762429D01*
X5629857Y-4748143D01*
X5615571Y-4719572D01*
X5615571Y-4633857D01*
X5629857Y-4605286D01*
X5644143Y-4591000D01*
X5672714Y-4576714D01*
X5715571Y-4576714D01*
X5744143Y-4591000D01*
X5758428Y-4605286D01*
X5772714Y-4633857D01*
X5772714Y-4719572D01*
X5758428Y-4748143D01*
X5744143Y-4762429D01*
X5715571Y-4776714D01*
X5672714Y-4776714D01*
X5944143Y-4776714D02*
X5915571Y-4762429D01*
X5901286Y-4733857D01*
X5901286Y-4476714D01*
X6172714Y-4762429D02*
X6144143Y-4776714D01*
X6087000Y-4776714D01*
X6058428Y-4762429D01*
X6044143Y-4733857D01*
X6044143Y-4619572D01*
X6058428Y-4591000D01*
X6087000Y-4576714D01*
X6144143Y-4576714D01*
X6172714Y-4591000D01*
X6187000Y-4619572D01*
X6187000Y-4648143D01*
X6044143Y-4676714D01*
X6301286Y-4762429D02*
X6329857Y-4776714D01*
X6387000Y-4776714D01*
X6415571Y-4762429D01*
X6429857Y-4733857D01*
X6429857Y-4719572D01*
X6415571Y-4691000D01*
X6387000Y-4676714D01*
X6344143Y-4676714D01*
X6315571Y-4662429D01*
X6301286Y-4633857D01*
X6301286Y-4619572D01*
X6315571Y-4591000D01*
X6344143Y-4576714D01*
X6387000Y-4576714D01*
X6415571Y-4591000D01*
X6529857Y-4891000D02*
X6544143Y-4876714D01*
X6572714Y-4833857D01*
X6587000Y-4805286D01*
X6601286Y-4762429D01*
X6615571Y-4691000D01*
X6615571Y-4633857D01*
X6601286Y-4562429D01*
X6587000Y-4519572D01*
X6572714Y-4491000D01*
X6544143Y-4448143D01*
X6529857Y-4433857D01*
X-563800Y-4986200D02*
X-563800Y-5087800D01*
X-614600Y-5037000D02*
X-513000Y-5037000D01*
X-513000Y-5037000D02*
G75*
G03X-513000Y-5037000I-50800J0D01*
G01*
X-84429Y-5172714D02*
X-255857Y-5172714D01*
X-170143Y-5172714D02*
X-170143Y-4872714D01*
X-198714Y-4915572D01*
X-227286Y-4944143D01*
X-255857Y-4958429D01*
X44143Y-5144143D02*
X58428Y-5158429D01*
X44143Y-5172714D01*
X29857Y-5158429D01*
X44143Y-5144143D01*
X44143Y-5172714D01*
X244143Y-4872714D02*
X272714Y-4872714D01*
X301286Y-4887000D01*
X315571Y-4901286D01*
X329857Y-4929857D01*
X344143Y-4987000D01*
X344143Y-5058429D01*
X329857Y-5115572D01*
X315571Y-5144143D01*
X301286Y-5158429D01*
X272714Y-5172714D01*
X244143Y-5172714D01*
X215571Y-5158429D01*
X201286Y-5144143D01*
X187000Y-5115572D01*
X172714Y-5058429D01*
X172714Y-4987000D01*
X187000Y-4929857D01*
X201286Y-4901286D01*
X215571Y-4887000D01*
X244143Y-4872714D01*
X458428Y-4901286D02*
X472714Y-4887000D01*
X501286Y-4872714D01*
X572714Y-4872714D01*
X601286Y-4887000D01*
X615571Y-4901286D01*
X629857Y-4929857D01*
X629857Y-4958429D01*
X615571Y-5001286D01*
X444143Y-5172714D01*
X629857Y-5172714D01*
X758428Y-5172714D02*
X758428Y-4972714D01*
X758428Y-5001286D02*
X772714Y-4987000D01*
X801286Y-4972714D01*
X844143Y-4972714D01*
X872714Y-4987000D01*
X887000Y-5015572D01*
X887000Y-5172714D01*
X887000Y-5015572D02*
X901286Y-4987000D01*
X929857Y-4972714D01*
X972714Y-4972714D01*
X1001286Y-4987000D01*
X1015571Y-5015572D01*
X1015571Y-5172714D01*
X1158429Y-5172714D02*
X1158429Y-4972714D01*
X1158429Y-5001286D02*
X1172714Y-4987000D01*
X1201286Y-4972714D01*
X1244143Y-4972714D01*
X1272714Y-4987000D01*
X1287000Y-5015572D01*
X1287000Y-5172714D01*
X1287000Y-5015572D02*
X1301286Y-4987000D01*
X1329857Y-4972714D01*
X1372714Y-4972714D01*
X1401286Y-4987000D01*
X1415571Y-5015572D01*
X1415571Y-5172714D01*
X2001286Y-4858429D02*
X1744143Y-5244143D01*
X2387000Y-4872714D02*
X2415571Y-4872714D01*
X2444143Y-4887000D01*
X2458428Y-4901286D01*
X2472714Y-4929857D01*
X2487000Y-4987000D01*
X2487000Y-5058429D01*
X2472714Y-5115572D01*
X2458428Y-5144143D01*
X2444143Y-5158429D01*
X2415571Y-5172714D01*
X2387000Y-5172714D01*
X2358428Y-5158429D01*
X2344143Y-5144143D01*
X2329857Y-5115572D01*
X2315571Y-5058429D01*
X2315571Y-4987000D01*
X2329857Y-4929857D01*
X2344143Y-4901286D01*
X2358428Y-4887000D01*
X2387000Y-4872714D01*
X2615571Y-5144143D02*
X2629857Y-5158429D01*
X2615571Y-5172714D01*
X2601286Y-5158429D01*
X2615571Y-5144143D01*
X2615571Y-5172714D01*
X2815571Y-4872714D02*
X2844143Y-4872714D01*
X2872714Y-4887000D01*
X2887000Y-4901286D01*
X2901285Y-4929857D01*
X2915571Y-4987000D01*
X2915571Y-5058429D01*
X2901285Y-5115572D01*
X2887000Y-5144143D01*
X2872714Y-5158429D01*
X2844143Y-5172714D01*
X2815571Y-5172714D01*
X2787000Y-5158429D01*
X2772714Y-5144143D01*
X2758428Y-5115572D01*
X2744143Y-5058429D01*
X2744143Y-4987000D01*
X2758428Y-4929857D01*
X2772714Y-4901286D01*
X2787000Y-4887000D01*
X2815571Y-4872714D01*
X3172714Y-4972714D02*
X3172714Y-5172714D01*
X3101285Y-4858429D02*
X3029857Y-5072714D01*
X3215571Y-5072714D01*
X3387000Y-4872714D02*
X3415571Y-4872714D01*
X3444143Y-4887000D01*
X3458428Y-4901286D01*
X3472714Y-4929857D01*
X3487000Y-4987000D01*
X3487000Y-5058429D01*
X3472714Y-5115572D01*
X3458428Y-5144143D01*
X3444143Y-5158429D01*
X3415571Y-5172714D01*
X3387000Y-5172714D01*
X3358428Y-5158429D01*
X3344143Y-5144143D01*
X3329857Y-5115572D01*
X3315571Y-5058429D01*
X3315571Y-4987000D01*
X3329857Y-4929857D01*
X3344143Y-4901286D01*
X3358428Y-4887000D01*
X3387000Y-4872714D01*
X3601286Y-4872714D02*
X3601286Y-4929857D01*
X3715571Y-4872714D02*
X3715571Y-4929857D01*
X4158428Y-5287000D02*
X4144143Y-5272714D01*
X4115571Y-5229857D01*
X4101285Y-5201286D01*
X4087000Y-5158429D01*
X4072714Y-5087000D01*
X4072714Y-5029857D01*
X4087000Y-4958429D01*
X4101285Y-4915572D01*
X4115571Y-4887000D01*
X4144143Y-4844143D01*
X4158428Y-4829857D01*
X4244143Y-4872714D02*
X4444143Y-4872714D01*
X4315571Y-5172714D01*
X4715571Y-5172714D02*
X4544143Y-5172714D01*
X4629857Y-5172714D02*
X4629857Y-4872714D01*
X4601286Y-4915572D01*
X4572714Y-4944143D01*
X4544143Y-4958429D01*
X5072714Y-5172714D02*
X5072714Y-4872714D01*
X5201286Y-5172714D02*
X5201286Y-5015572D01*
X5187000Y-4987000D01*
X5158428Y-4972714D01*
X5115571Y-4972714D01*
X5087000Y-4987000D01*
X5072714Y-5001286D01*
X5387000Y-5172714D02*
X5358428Y-5158429D01*
X5344143Y-5144143D01*
X5329857Y-5115572D01*
X5329857Y-5029857D01*
X5344143Y-5001286D01*
X5358428Y-4987000D01*
X5387000Y-4972714D01*
X5429857Y-4972714D01*
X5458428Y-4987000D01*
X5472714Y-5001286D01*
X5487000Y-5029857D01*
X5487000Y-5115572D01*
X5472714Y-5144143D01*
X5458428Y-5158429D01*
X5429857Y-5172714D01*
X5387000Y-5172714D01*
X5658428Y-5172714D02*
X5629857Y-5158429D01*
X5615571Y-5129857D01*
X5615571Y-4872714D01*
X5887000Y-5158429D02*
X5858428Y-5172714D01*
X5801286Y-5172714D01*
X5772714Y-5158429D01*
X5758428Y-5129857D01*
X5758428Y-5015572D01*
X5772714Y-4987000D01*
X5801286Y-4972714D01*
X5858428Y-4972714D01*
X5887000Y-4987000D01*
X5901286Y-5015572D01*
X5901286Y-5044143D01*
X5758428Y-5072714D01*
X6015571Y-5158429D02*
X6044143Y-5172714D01*
X6101286Y-5172714D01*
X6129857Y-5158429D01*
X6144143Y-5129857D01*
X6144143Y-5115572D01*
X6129857Y-5087000D01*
X6101286Y-5072714D01*
X6058428Y-5072714D01*
X6029857Y-5058429D01*
X6015571Y-5029857D01*
X6015571Y-5015572D01*
X6029857Y-4987000D01*
X6058428Y-4972714D01*
X6101286Y-4972714D01*
X6129857Y-4987000D01*
X6244143Y-5287000D02*
X6258428Y-5272714D01*
X6287000Y-5229857D01*
X6301286Y-5201286D01*
X6315571Y-5158429D01*
X6329857Y-5087000D01*
X6329857Y-5029857D01*
X6315571Y-4958429D01*
X6301286Y-4915572D01*
X6287000Y-4887000D01*
X6258428Y-4844143D01*
X6244143Y-4829857D01*
X-530573Y-5475427D02*
X-530573Y-5390573D01*
X-615427Y-5390573D01*
X-615427Y-5475427D01*
X-530573Y-5475427D01*
X-513000Y-5433000D02*
G75*
G03X-513000Y-5433000I-60000J0D01*
G01*
X-84429Y-5568714D02*
X-255857Y-5568714D01*
X-170143Y-5568714D02*
X-170143Y-5268714D01*
X-198714Y-5311572D01*
X-227286Y-5340143D01*
X-255857Y-5354429D01*
X44143Y-5540143D02*
X58428Y-5554429D01*
X44143Y-5568714D01*
X29857Y-5554429D01*
X44143Y-5540143D01*
X44143Y-5568714D01*
X172714Y-5297286D02*
X187000Y-5283000D01*
X215571Y-5268714D01*
X287000Y-5268714D01*
X315571Y-5283000D01*
X329857Y-5297286D01*
X344143Y-5325857D01*
X344143Y-5354429D01*
X329857Y-5397286D01*
X158428Y-5568714D01*
X344143Y-5568714D01*
X529857Y-5268714D02*
X558429Y-5268714D01*
X587000Y-5283000D01*
X601286Y-5297286D01*
X615571Y-5325857D01*
X629857Y-5383000D01*
X629857Y-5454429D01*
X615571Y-5511572D01*
X601286Y-5540143D01*
X587000Y-5554429D01*
X558429Y-5568714D01*
X529857Y-5568714D01*
X501286Y-5554429D01*
X487000Y-5540143D01*
X472714Y-5511572D01*
X458428Y-5454429D01*
X458428Y-5383000D01*
X472714Y-5325857D01*
X487000Y-5297286D01*
X501286Y-5283000D01*
X529857Y-5268714D01*
X758428Y-5568714D02*
X758428Y-5368714D01*
X758428Y-5397286D02*
X772714Y-5383000D01*
X801286Y-5368714D01*
X844143Y-5368714D01*
X872714Y-5383000D01*
X887000Y-5411572D01*
X887000Y-5568714D01*
X887000Y-5411572D02*
X901286Y-5383000D01*
X929857Y-5368714D01*
X972714Y-5368714D01*
X1001286Y-5383000D01*
X1015571Y-5411572D01*
X1015571Y-5568714D01*
X1158429Y-5568714D02*
X1158429Y-5368714D01*
X1158429Y-5397286D02*
X1172714Y-5383000D01*
X1201286Y-5368714D01*
X1244143Y-5368714D01*
X1272714Y-5383000D01*
X1287000Y-5411572D01*
X1287000Y-5568714D01*
X1287000Y-5411572D02*
X1301286Y-5383000D01*
X1329857Y-5368714D01*
X1372714Y-5368714D01*
X1401286Y-5383000D01*
X1415571Y-5411572D01*
X1415571Y-5568714D01*
X2001286Y-5254429D02*
X1744143Y-5640143D01*
X2387000Y-5268714D02*
X2415571Y-5268714D01*
X2444143Y-5283000D01*
X2458428Y-5297286D01*
X2472714Y-5325857D01*
X2487000Y-5383000D01*
X2487000Y-5454429D01*
X2472714Y-5511572D01*
X2458428Y-5540143D01*
X2444143Y-5554429D01*
X2415571Y-5568714D01*
X2387000Y-5568714D01*
X2358428Y-5554429D01*
X2344143Y-5540143D01*
X2329857Y-5511572D01*
X2315571Y-5454429D01*
X2315571Y-5383000D01*
X2329857Y-5325857D01*
X2344143Y-5297286D01*
X2358428Y-5283000D01*
X2387000Y-5268714D01*
X2615571Y-5540143D02*
X2629857Y-5554429D01*
X2615571Y-5568714D01*
X2601286Y-5554429D01*
X2615571Y-5540143D01*
X2615571Y-5568714D01*
X2815571Y-5268714D02*
X2844143Y-5268714D01*
X2872714Y-5283000D01*
X2887000Y-5297286D01*
X2901285Y-5325857D01*
X2915571Y-5383000D01*
X2915571Y-5454429D01*
X2901285Y-5511572D01*
X2887000Y-5540143D01*
X2872714Y-5554429D01*
X2844143Y-5568714D01*
X2815571Y-5568714D01*
X2787000Y-5554429D01*
X2772714Y-5540143D01*
X2758428Y-5511572D01*
X2744143Y-5454429D01*
X2744143Y-5383000D01*
X2758428Y-5325857D01*
X2772714Y-5297286D01*
X2787000Y-5283000D01*
X2815571Y-5268714D01*
X3172714Y-5368714D02*
X3172714Y-5568714D01*
X3101285Y-5254429D02*
X3029857Y-5468714D01*
X3215571Y-5468714D01*
X3301285Y-5268714D02*
X3501285Y-5268714D01*
X3372714Y-5568714D01*
X3601286Y-5268714D02*
X3601286Y-5325857D01*
X3715571Y-5268714D02*
X3715571Y-5325857D01*
X4158428Y-5683000D02*
X4144143Y-5668714D01*
X4115571Y-5625857D01*
X4101285Y-5597286D01*
X4087000Y-5554429D01*
X4072714Y-5483000D01*
X4072714Y-5425857D01*
X4087000Y-5354429D01*
X4101285Y-5311572D01*
X4115571Y-5283000D01*
X4144143Y-5240143D01*
X4158428Y-5225857D01*
X4401286Y-5368714D02*
X4401286Y-5568714D01*
X4329857Y-5254429D02*
X4258428Y-5468714D01*
X4444143Y-5468714D01*
X4787000Y-5568714D02*
X4787000Y-5268714D01*
X4915571Y-5568714D02*
X4915571Y-5411572D01*
X4901286Y-5383000D01*
X4872714Y-5368714D01*
X4829857Y-5368714D01*
X4801286Y-5383000D01*
X4787000Y-5397286D01*
X5101286Y-5568714D02*
X5072714Y-5554429D01*
X5058428Y-5540143D01*
X5044143Y-5511572D01*
X5044143Y-5425857D01*
X5058428Y-5397286D01*
X5072714Y-5383000D01*
X5101286Y-5368714D01*
X5144143Y-5368714D01*
X5172714Y-5383000D01*
X5187000Y-5397286D01*
X5201286Y-5425857D01*
X5201286Y-5511572D01*
X5187000Y-5540143D01*
X5172714Y-5554429D01*
X5144143Y-5568714D01*
X5101286Y-5568714D01*
X5372714Y-5568714D02*
X5344143Y-5554429D01*
X5329857Y-5525857D01*
X5329857Y-5268714D01*
X5601286Y-5554429D02*
X5572714Y-5568714D01*
X5515571Y-5568714D01*
X5487000Y-5554429D01*
X5472714Y-5525857D01*
X5472714Y-5411572D01*
X5487000Y-5383000D01*
X5515571Y-5368714D01*
X5572714Y-5368714D01*
X5601286Y-5383000D01*
X5615571Y-5411572D01*
X5615571Y-5440143D01*
X5472714Y-5468714D01*
X5729857Y-5554429D02*
X5758428Y-5568714D01*
X5815571Y-5568714D01*
X5844143Y-5554429D01*
X5858428Y-5525857D01*
X5858428Y-5511572D01*
X5844143Y-5483000D01*
X5815571Y-5468714D01*
X5772714Y-5468714D01*
X5744143Y-5454429D01*
X5729857Y-5425857D01*
X5729857Y-5411572D01*
X5744143Y-5383000D01*
X5772714Y-5368714D01*
X5815571Y-5368714D01*
X5844143Y-5383000D01*
X5958428Y-5683000D02*
X5972714Y-5668714D01*
X6001286Y-5625857D01*
X6015571Y-5597286D01*
X6029857Y-5554429D01*
X6044143Y-5483000D01*
X6044143Y-5425857D01*
X6029857Y-5354429D01*
X6015571Y-5311572D01*
X6001286Y-5283000D01*
X5972714Y-5240143D01*
X5958428Y-5225857D01*
X-588057Y-5904057D02*
X-513000Y-5829000D01*
X-588057Y-5753943D01*
X-663114Y-5829000D01*
X-588057Y-5904057D01*
X-513000Y-5829000D02*
G75*
G03X-513000Y-5829000I-75057J0D01*
G01*
X-84429Y-5964714D02*
X-255857Y-5964714D01*
X-170143Y-5964714D02*
X-170143Y-5664714D01*
X-198714Y-5707571D01*
X-227286Y-5736143D01*
X-255857Y-5750429D01*
X44143Y-5936143D02*
X58428Y-5950429D01*
X44143Y-5964714D01*
X29857Y-5950429D01*
X44143Y-5936143D01*
X44143Y-5964714D01*
X329857Y-5664714D02*
X187000Y-5664714D01*
X172714Y-5807571D01*
X187000Y-5793286D01*
X215571Y-5779000D01*
X287000Y-5779000D01*
X315571Y-5793286D01*
X329857Y-5807571D01*
X344143Y-5836143D01*
X344143Y-5907571D01*
X329857Y-5936143D01*
X315571Y-5950429D01*
X287000Y-5964714D01*
X215571Y-5964714D01*
X187000Y-5950429D01*
X172714Y-5936143D01*
X529857Y-5664714D02*
X558429Y-5664714D01*
X587000Y-5679000D01*
X601286Y-5693286D01*
X615571Y-5721857D01*
X629857Y-5779000D01*
X629857Y-5850429D01*
X615571Y-5907571D01*
X601286Y-5936143D01*
X587000Y-5950429D01*
X558429Y-5964714D01*
X529857Y-5964714D01*
X501286Y-5950429D01*
X487000Y-5936143D01*
X472714Y-5907571D01*
X458428Y-5850429D01*
X458428Y-5779000D01*
X472714Y-5721857D01*
X487000Y-5693286D01*
X501286Y-5679000D01*
X529857Y-5664714D01*
X758428Y-5964714D02*
X758428Y-5764714D01*
X758428Y-5793286D02*
X772714Y-5779000D01*
X801286Y-5764714D01*
X844143Y-5764714D01*
X872714Y-5779000D01*
X887000Y-5807571D01*
X887000Y-5964714D01*
X887000Y-5807571D02*
X901286Y-5779000D01*
X929857Y-5764714D01*
X972714Y-5764714D01*
X1001286Y-5779000D01*
X1015571Y-5807571D01*
X1015571Y-5964714D01*
X1158429Y-5964714D02*
X1158429Y-5764714D01*
X1158429Y-5793286D02*
X1172714Y-5779000D01*
X1201286Y-5764714D01*
X1244143Y-5764714D01*
X1272714Y-5779000D01*
X1287000Y-5807571D01*
X1287000Y-5964714D01*
X1287000Y-5807571D02*
X1301286Y-5779000D01*
X1329857Y-5764714D01*
X1372714Y-5764714D01*
X1401286Y-5779000D01*
X1415571Y-5807571D01*
X1415571Y-5964714D01*
X2001286Y-5650429D02*
X1744143Y-6036143D01*
X2387000Y-5664714D02*
X2415571Y-5664714D01*
X2444143Y-5679000D01*
X2458428Y-5693286D01*
X2472714Y-5721857D01*
X2487000Y-5779000D01*
X2487000Y-5850429D01*
X2472714Y-5907571D01*
X2458428Y-5936143D01*
X2444143Y-5950429D01*
X2415571Y-5964714D01*
X2387000Y-5964714D01*
X2358428Y-5950429D01*
X2344143Y-5936143D01*
X2329857Y-5907571D01*
X2315571Y-5850429D01*
X2315571Y-5779000D01*
X2329857Y-5721857D01*
X2344143Y-5693286D01*
X2358428Y-5679000D01*
X2387000Y-5664714D01*
X2615571Y-5936143D02*
X2629857Y-5950429D01*
X2615571Y-5964714D01*
X2601286Y-5950429D01*
X2615571Y-5936143D01*
X2615571Y-5964714D01*
X2815571Y-5664714D02*
X2844143Y-5664714D01*
X2872714Y-5679000D01*
X2887000Y-5693286D01*
X2901285Y-5721857D01*
X2915571Y-5779000D01*
X2915571Y-5850429D01*
X2901285Y-5907571D01*
X2887000Y-5936143D01*
X2872714Y-5950429D01*
X2844143Y-5964714D01*
X2815571Y-5964714D01*
X2787000Y-5950429D01*
X2772714Y-5936143D01*
X2758428Y-5907571D01*
X2744143Y-5850429D01*
X2744143Y-5779000D01*
X2758428Y-5721857D01*
X2772714Y-5693286D01*
X2787000Y-5679000D01*
X2815571Y-5664714D01*
X3187000Y-5664714D02*
X3044143Y-5664714D01*
X3029857Y-5807571D01*
X3044143Y-5793286D01*
X3072714Y-5779000D01*
X3144143Y-5779000D01*
X3172714Y-5793286D01*
X3187000Y-5807571D01*
X3201285Y-5836143D01*
X3201285Y-5907571D01*
X3187000Y-5936143D01*
X3172714Y-5950429D01*
X3144143Y-5964714D01*
X3072714Y-5964714D01*
X3044143Y-5950429D01*
X3029857Y-5936143D01*
X3344143Y-5964714D02*
X3401285Y-5964714D01*
X3429857Y-5950429D01*
X3444143Y-5936143D01*
X3472714Y-5893286D01*
X3487000Y-5836143D01*
X3487000Y-5721857D01*
X3472714Y-5693286D01*
X3458428Y-5679000D01*
X3429857Y-5664714D01*
X3372714Y-5664714D01*
X3344143Y-5679000D01*
X3329857Y-5693286D01*
X3315571Y-5721857D01*
X3315571Y-5793286D01*
X3329857Y-5821857D01*
X3344143Y-5836143D01*
X3372714Y-5850429D01*
X3429857Y-5850429D01*
X3458428Y-5836143D01*
X3472714Y-5821857D01*
X3487000Y-5793286D01*
X3601286Y-5664714D02*
X3601286Y-5721857D01*
X3715571Y-5664714D02*
X3715571Y-5721857D01*
X4158428Y-6079000D02*
X4144143Y-6064714D01*
X4115571Y-6021857D01*
X4101285Y-5993286D01*
X4087000Y-5950429D01*
X4072714Y-5879000D01*
X4072714Y-5821857D01*
X4087000Y-5750429D01*
X4101285Y-5707571D01*
X4115571Y-5679000D01*
X4144143Y-5636143D01*
X4158428Y-5621857D01*
X4401286Y-5664714D02*
X4344143Y-5664714D01*
X4315571Y-5679000D01*
X4301286Y-5693286D01*
X4272714Y-5736143D01*
X4258428Y-5793286D01*
X4258428Y-5907571D01*
X4272714Y-5936143D01*
X4287000Y-5950429D01*
X4315571Y-5964714D01*
X4372714Y-5964714D01*
X4401286Y-5950429D01*
X4415571Y-5936143D01*
X4429857Y-5907571D01*
X4429857Y-5836143D01*
X4415571Y-5807571D01*
X4401286Y-5793286D01*
X4372714Y-5779000D01*
X4315571Y-5779000D01*
X4287000Y-5793286D01*
X4272714Y-5807571D01*
X4258428Y-5836143D01*
X4787000Y-5964714D02*
X4787000Y-5664714D01*
X4915571Y-5964714D02*
X4915571Y-5807571D01*
X4901286Y-5779000D01*
X4872714Y-5764714D01*
X4829857Y-5764714D01*
X4801286Y-5779000D01*
X4787000Y-5793286D01*
X5101286Y-5964714D02*
X5072714Y-5950429D01*
X5058428Y-5936143D01*
X5044143Y-5907571D01*
X5044143Y-5821857D01*
X5058428Y-5793286D01*
X5072714Y-5779000D01*
X5101286Y-5764714D01*
X5144143Y-5764714D01*
X5172714Y-5779000D01*
X5187000Y-5793286D01*
X5201286Y-5821857D01*
X5201286Y-5907571D01*
X5187000Y-5936143D01*
X5172714Y-5950429D01*
X5144143Y-5964714D01*
X5101286Y-5964714D01*
X5372714Y-5964714D02*
X5344143Y-5950429D01*
X5329857Y-5921857D01*
X5329857Y-5664714D01*
X5601286Y-5950429D02*
X5572714Y-5964714D01*
X5515571Y-5964714D01*
X5487000Y-5950429D01*
X5472714Y-5921857D01*
X5472714Y-5807571D01*
X5487000Y-5779000D01*
X5515571Y-5764714D01*
X5572714Y-5764714D01*
X5601286Y-5779000D01*
X5615571Y-5807571D01*
X5615571Y-5836143D01*
X5472714Y-5864714D01*
X5729857Y-5950429D02*
X5758428Y-5964714D01*
X5815571Y-5964714D01*
X5844143Y-5950429D01*
X5858428Y-5921857D01*
X5858428Y-5907571D01*
X5844143Y-5879000D01*
X5815571Y-5864714D01*
X5772714Y-5864714D01*
X5744143Y-5850429D01*
X5729857Y-5821857D01*
X5729857Y-5807571D01*
X5744143Y-5779000D01*
X5772714Y-5764714D01*
X5815571Y-5764714D01*
X5844143Y-5779000D01*
X5958428Y-6079000D02*
X5972714Y-6064714D01*
X6001286Y-6021857D01*
X6015571Y-5993286D01*
X6029857Y-5950429D01*
X6044143Y-5879000D01*
X6044143Y-5821857D01*
X6029857Y-5750429D01*
X6015571Y-5707571D01*
X6001286Y-5679000D01*
X5972714Y-5636143D01*
X5958428Y-5621857D01*
X-663000Y-6075000D02*
X-663000Y-6375000D01*
X-813000Y-6225000D02*
X-513000Y-6225000D01*
X-556933Y-6331067D02*
X-556933Y-6118933D01*
X-769067Y-6118933D01*
X-769067Y-6331067D01*
X-556933Y-6331067D01*
X-270143Y-6060714D02*
X-84429Y-6060714D01*
X-184429Y-6175000D01*
X-141572Y-6175000D01*
X-113000Y-6189286D01*
X-98714Y-6203571D01*
X-84429Y-6232143D01*
X-84429Y-6303571D01*
X-98714Y-6332143D01*
X-113000Y-6346429D01*
X-141572Y-6360714D01*
X-227286Y-6360714D01*
X-255857Y-6346429D01*
X-270143Y-6332143D01*
X44143Y-6332143D02*
X58428Y-6346429D01*
X44143Y-6360714D01*
X29857Y-6346429D01*
X44143Y-6332143D01*
X44143Y-6360714D01*
X244143Y-6060714D02*
X272714Y-6060714D01*
X301286Y-6075000D01*
X315571Y-6089286D01*
X329857Y-6117857D01*
X344143Y-6175000D01*
X344143Y-6246429D01*
X329857Y-6303571D01*
X315571Y-6332143D01*
X301286Y-6346429D01*
X272714Y-6360714D01*
X244143Y-6360714D01*
X215571Y-6346429D01*
X201286Y-6332143D01*
X187000Y-6303571D01*
X172714Y-6246429D01*
X172714Y-6175000D01*
X187000Y-6117857D01*
X201286Y-6089286D01*
X215571Y-6075000D01*
X244143Y-6060714D01*
X529857Y-6060714D02*
X558429Y-6060714D01*
X587000Y-6075000D01*
X601286Y-6089286D01*
X615571Y-6117857D01*
X629857Y-6175000D01*
X629857Y-6246429D01*
X615571Y-6303571D01*
X601286Y-6332143D01*
X587000Y-6346429D01*
X558429Y-6360714D01*
X529857Y-6360714D01*
X501286Y-6346429D01*
X487000Y-6332143D01*
X472714Y-6303571D01*
X458428Y-6246429D01*
X458428Y-6175000D01*
X472714Y-6117857D01*
X487000Y-6089286D01*
X501286Y-6075000D01*
X529857Y-6060714D01*
X758428Y-6360714D02*
X758428Y-6160714D01*
X758428Y-6189286D02*
X772714Y-6175000D01*
X801286Y-6160714D01*
X844143Y-6160714D01*
X872714Y-6175000D01*
X887000Y-6203571D01*
X887000Y-6360714D01*
X887000Y-6203571D02*
X901286Y-6175000D01*
X929857Y-6160714D01*
X972714Y-6160714D01*
X1001286Y-6175000D01*
X1015571Y-6203571D01*
X1015571Y-6360714D01*
X1158429Y-6360714D02*
X1158429Y-6160714D01*
X1158429Y-6189286D02*
X1172714Y-6175000D01*
X1201286Y-6160714D01*
X1244143Y-6160714D01*
X1272714Y-6175000D01*
X1287000Y-6203571D01*
X1287000Y-6360714D01*
X1287000Y-6203571D02*
X1301286Y-6175000D01*
X1329857Y-6160714D01*
X1372714Y-6160714D01*
X1401286Y-6175000D01*
X1415571Y-6203571D01*
X1415571Y-6360714D01*
X2001286Y-6046429D02*
X1744143Y-6432143D01*
X2387000Y-6060714D02*
X2415571Y-6060714D01*
X2444143Y-6075000D01*
X2458428Y-6089286D01*
X2472714Y-6117857D01*
X2487000Y-6175000D01*
X2487000Y-6246429D01*
X2472714Y-6303571D01*
X2458428Y-6332143D01*
X2444143Y-6346429D01*
X2415571Y-6360714D01*
X2387000Y-6360714D01*
X2358428Y-6346429D01*
X2344143Y-6332143D01*
X2329857Y-6303571D01*
X2315571Y-6246429D01*
X2315571Y-6175000D01*
X2329857Y-6117857D01*
X2344143Y-6089286D01*
X2358428Y-6075000D01*
X2387000Y-6060714D01*
X2615571Y-6332143D02*
X2629857Y-6346429D01*
X2615571Y-6360714D01*
X2601286Y-6346429D01*
X2615571Y-6332143D01*
X2615571Y-6360714D01*
X2915571Y-6360714D02*
X2744143Y-6360714D01*
X2829857Y-6360714D02*
X2829857Y-6060714D01*
X2801285Y-6103571D01*
X2772714Y-6132143D01*
X2744143Y-6146429D01*
X3201285Y-6360714D02*
X3029857Y-6360714D01*
X3115571Y-6360714D02*
X3115571Y-6060714D01*
X3087000Y-6103571D01*
X3058428Y-6132143D01*
X3029857Y-6146429D01*
X3372714Y-6189286D02*
X3344143Y-6175000D01*
X3329857Y-6160714D01*
X3315571Y-6132143D01*
X3315571Y-6117857D01*
X3329857Y-6089286D01*
X3344143Y-6075000D01*
X3372714Y-6060714D01*
X3429857Y-6060714D01*
X3458428Y-6075000D01*
X3472714Y-6089286D01*
X3487000Y-6117857D01*
X3487000Y-6132143D01*
X3472714Y-6160714D01*
X3458428Y-6175000D01*
X3429857Y-6189286D01*
X3372714Y-6189286D01*
X3344143Y-6203571D01*
X3329857Y-6217857D01*
X3315571Y-6246429D01*
X3315571Y-6303571D01*
X3329857Y-6332143D01*
X3344143Y-6346429D01*
X3372714Y-6360714D01*
X3429857Y-6360714D01*
X3458428Y-6346429D01*
X3472714Y-6332143D01*
X3487000Y-6303571D01*
X3487000Y-6246429D01*
X3472714Y-6217857D01*
X3458428Y-6203571D01*
X3429857Y-6189286D01*
X3601286Y-6060714D02*
X3601286Y-6117857D01*
X3715571Y-6060714D02*
X3715571Y-6117857D01*
X4158428Y-6475000D02*
X4144143Y-6460714D01*
X4115571Y-6417857D01*
X4101285Y-6389286D01*
X4087000Y-6346429D01*
X4072714Y-6275000D01*
X4072714Y-6217857D01*
X4087000Y-6146429D01*
X4101285Y-6103571D01*
X4115571Y-6075000D01*
X4144143Y-6032143D01*
X4158428Y-6017857D01*
X4401286Y-6160714D02*
X4401286Y-6360714D01*
X4329857Y-6046429D02*
X4258428Y-6260714D01*
X4444143Y-6260714D01*
X4787000Y-6360714D02*
X4787000Y-6060714D01*
X4915571Y-6360714D02*
X4915571Y-6203571D01*
X4901286Y-6175000D01*
X4872714Y-6160714D01*
X4829857Y-6160714D01*
X4801286Y-6175000D01*
X4787000Y-6189286D01*
X5101286Y-6360714D02*
X5072714Y-6346429D01*
X5058428Y-6332143D01*
X5044143Y-6303571D01*
X5044143Y-6217857D01*
X5058428Y-6189286D01*
X5072714Y-6175000D01*
X5101286Y-6160714D01*
X5144143Y-6160714D01*
X5172714Y-6175000D01*
X5187000Y-6189286D01*
X5201286Y-6217857D01*
X5201286Y-6303571D01*
X5187000Y-6332143D01*
X5172714Y-6346429D01*
X5144143Y-6360714D01*
X5101286Y-6360714D01*
X5372714Y-6360714D02*
X5344143Y-6346429D01*
X5329857Y-6317857D01*
X5329857Y-6060714D01*
X5601286Y-6346429D02*
X5572714Y-6360714D01*
X5515571Y-6360714D01*
X5487000Y-6346429D01*
X5472714Y-6317857D01*
X5472714Y-6203571D01*
X5487000Y-6175000D01*
X5515571Y-6160714D01*
X5572714Y-6160714D01*
X5601286Y-6175000D01*
X5615571Y-6203571D01*
X5615571Y-6232143D01*
X5472714Y-6260714D01*
X5729857Y-6346429D02*
X5758428Y-6360714D01*
X5815571Y-6360714D01*
X5844143Y-6346429D01*
X5858428Y-6317857D01*
X5858428Y-6303571D01*
X5844143Y-6275000D01*
X5815571Y-6260714D01*
X5772714Y-6260714D01*
X5744143Y-6246429D01*
X5729857Y-6217857D01*
X5729857Y-6203571D01*
X5744143Y-6175000D01*
X5772714Y-6160714D01*
X5815571Y-6160714D01*
X5844143Y-6175000D01*
X5958428Y-6475000D02*
X5972714Y-6460714D01*
X6001286Y-6417857D01*
X6015571Y-6389286D01*
X6029857Y-6346429D01*
X6044143Y-6275000D01*
X6044143Y-6217857D01*
X6029857Y-6146429D01*
X6015571Y-6103571D01*
X6001286Y-6075000D01*
X5972714Y-6032143D01*
X5958428Y-6017857D01*
X-673020Y-6494980D02*
X-673020Y-6815020D01*
X-833040Y-6655000D02*
X-513000Y-6655000D01*
X-673020Y-6815020D02*
X-513000Y-6655000D01*
X-673020Y-6494980D01*
X-833040Y-6655000D01*
X-673020Y-6815020D01*
X-270143Y-6490714D02*
X-84429Y-6490714D01*
X-184429Y-6605000D01*
X-141572Y-6605000D01*
X-113000Y-6619286D01*
X-98714Y-6633571D01*
X-84429Y-6662143D01*
X-84429Y-6733571D01*
X-98714Y-6762143D01*
X-113000Y-6776429D01*
X-141572Y-6790714D01*
X-227286Y-6790714D01*
X-255857Y-6776429D01*
X-270143Y-6762143D01*
X44143Y-6762143D02*
X58428Y-6776429D01*
X44143Y-6790714D01*
X29857Y-6776429D01*
X44143Y-6762143D01*
X44143Y-6790714D01*
X172714Y-6519286D02*
X187000Y-6505000D01*
X215571Y-6490714D01*
X287000Y-6490714D01*
X315571Y-6505000D01*
X329857Y-6519286D01*
X344143Y-6547857D01*
X344143Y-6576429D01*
X329857Y-6619286D01*
X158428Y-6790714D01*
X344143Y-6790714D01*
X529857Y-6490714D02*
X558429Y-6490714D01*
X587000Y-6505000D01*
X601286Y-6519286D01*
X615571Y-6547857D01*
X629857Y-6605000D01*
X629857Y-6676429D01*
X615571Y-6733571D01*
X601286Y-6762143D01*
X587000Y-6776429D01*
X558429Y-6790714D01*
X529857Y-6790714D01*
X501286Y-6776429D01*
X487000Y-6762143D01*
X472714Y-6733571D01*
X458428Y-6676429D01*
X458428Y-6605000D01*
X472714Y-6547857D01*
X487000Y-6519286D01*
X501286Y-6505000D01*
X529857Y-6490714D01*
X758428Y-6790714D02*
X758428Y-6590714D01*
X758428Y-6619286D02*
X772714Y-6605000D01*
X801286Y-6590714D01*
X844143Y-6590714D01*
X872714Y-6605000D01*
X887000Y-6633571D01*
X887000Y-6790714D01*
X887000Y-6633571D02*
X901286Y-6605000D01*
X929857Y-6590714D01*
X972714Y-6590714D01*
X1001286Y-6605000D01*
X1015571Y-6633571D01*
X1015571Y-6790714D01*
X1158429Y-6790714D02*
X1158429Y-6590714D01*
X1158429Y-6619286D02*
X1172714Y-6605000D01*
X1201286Y-6590714D01*
X1244143Y-6590714D01*
X1272714Y-6605000D01*
X1287000Y-6633571D01*
X1287000Y-6790714D01*
X1287000Y-6633571D02*
X1301286Y-6605000D01*
X1329857Y-6590714D01*
X1372714Y-6590714D01*
X1401286Y-6605000D01*
X1415571Y-6633571D01*
X1415571Y-6790714D01*
X2001286Y-6476429D02*
X1744143Y-6862143D01*
X2387000Y-6490714D02*
X2415571Y-6490714D01*
X2444143Y-6505000D01*
X2458428Y-6519286D01*
X2472714Y-6547857D01*
X2487000Y-6605000D01*
X2487000Y-6676429D01*
X2472714Y-6733571D01*
X2458428Y-6762143D01*
X2444143Y-6776429D01*
X2415571Y-6790714D01*
X2387000Y-6790714D01*
X2358428Y-6776429D01*
X2344143Y-6762143D01*
X2329857Y-6733571D01*
X2315571Y-6676429D01*
X2315571Y-6605000D01*
X2329857Y-6547857D01*
X2344143Y-6519286D01*
X2358428Y-6505000D01*
X2387000Y-6490714D01*
X2615571Y-6762143D02*
X2629857Y-6776429D01*
X2615571Y-6790714D01*
X2601286Y-6776429D01*
X2615571Y-6762143D01*
X2615571Y-6790714D01*
X2915571Y-6790714D02*
X2744143Y-6790714D01*
X2829857Y-6790714D02*
X2829857Y-6490714D01*
X2801285Y-6533571D01*
X2772714Y-6562143D01*
X2744143Y-6576429D01*
X3029857Y-6519286D02*
X3044143Y-6505000D01*
X3072714Y-6490714D01*
X3144143Y-6490714D01*
X3172714Y-6505000D01*
X3187000Y-6519286D01*
X3201285Y-6547857D01*
X3201285Y-6576429D01*
X3187000Y-6619286D01*
X3015571Y-6790714D01*
X3201285Y-6790714D01*
X3458428Y-6490714D02*
X3401285Y-6490714D01*
X3372714Y-6505000D01*
X3358428Y-6519286D01*
X3329857Y-6562143D01*
X3315571Y-6619286D01*
X3315571Y-6733571D01*
X3329857Y-6762143D01*
X3344143Y-6776429D01*
X3372714Y-6790714D01*
X3429857Y-6790714D01*
X3458428Y-6776429D01*
X3472714Y-6762143D01*
X3487000Y-6733571D01*
X3487000Y-6662143D01*
X3472714Y-6633571D01*
X3458428Y-6619286D01*
X3429857Y-6605000D01*
X3372714Y-6605000D01*
X3344143Y-6619286D01*
X3329857Y-6633571D01*
X3315571Y-6662143D01*
X3601286Y-6490714D02*
X3601286Y-6547857D01*
X3715571Y-6490714D02*
X3715571Y-6547857D01*
X4158428Y-6905000D02*
X4144143Y-6890714D01*
X4115571Y-6847857D01*
X4101285Y-6819286D01*
X4087000Y-6776429D01*
X4072714Y-6705000D01*
X4072714Y-6647857D01*
X4087000Y-6576429D01*
X4101285Y-6533571D01*
X4115571Y-6505000D01*
X4144143Y-6462143D01*
X4158428Y-6447857D01*
X4258428Y-6519286D02*
X4272714Y-6505000D01*
X4301286Y-6490714D01*
X4372714Y-6490714D01*
X4401286Y-6505000D01*
X4415571Y-6519286D01*
X4429857Y-6547857D01*
X4429857Y-6576429D01*
X4415571Y-6619286D01*
X4244143Y-6790714D01*
X4429857Y-6790714D01*
X4787000Y-6790714D02*
X4787000Y-6490714D01*
X4915571Y-6790714D02*
X4915571Y-6633571D01*
X4901286Y-6605000D01*
X4872714Y-6590714D01*
X4829857Y-6590714D01*
X4801286Y-6605000D01*
X4787000Y-6619286D01*
X5101286Y-6790714D02*
X5072714Y-6776429D01*
X5058428Y-6762143D01*
X5044143Y-6733571D01*
X5044143Y-6647857D01*
X5058428Y-6619286D01*
X5072714Y-6605000D01*
X5101286Y-6590714D01*
X5144143Y-6590714D01*
X5172714Y-6605000D01*
X5187000Y-6619286D01*
X5201286Y-6647857D01*
X5201286Y-6733571D01*
X5187000Y-6762143D01*
X5172714Y-6776429D01*
X5144143Y-6790714D01*
X5101286Y-6790714D01*
X5372714Y-6790714D02*
X5344143Y-6776429D01*
X5329857Y-6747857D01*
X5329857Y-6490714D01*
X5601286Y-6776429D02*
X5572714Y-6790714D01*
X5515571Y-6790714D01*
X5487000Y-6776429D01*
X5472714Y-6747857D01*
X5472714Y-6633571D01*
X5487000Y-6605000D01*
X5515571Y-6590714D01*
X5572714Y-6590714D01*
X5601286Y-6605000D01*
X5615571Y-6633571D01*
X5615571Y-6662143D01*
X5472714Y-6690714D01*
X5729857Y-6776429D02*
X5758428Y-6790714D01*
X5815571Y-6790714D01*
X5844143Y-6776429D01*
X5858428Y-6747857D01*
X5858428Y-6733571D01*
X5844143Y-6705000D01*
X5815571Y-6690714D01*
X5772714Y-6690714D01*
X5744143Y-6676429D01*
X5729857Y-6647857D01*
X5729857Y-6633571D01*
X5744143Y-6605000D01*
X5772714Y-6590714D01*
X5815571Y-6590714D01*
X5844143Y-6605000D01*
X5958428Y-6905000D02*
X5972714Y-6890714D01*
X6001286Y-6847857D01*
X6015571Y-6819286D01*
X6029857Y-6776429D01*
X6044143Y-6705000D01*
X6044143Y-6647857D01*
X6029857Y-6576429D01*
X6015571Y-6533571D01*
X6001286Y-6505000D01*
X5972714Y-6462143D01*
X5958428Y-6447857D01*
M02*
