M48
;DRILL file {KiCad 0.201509101502+6177~30~ubuntu15.04.1-product} date Sat 12 Sep 2015 07:26:30 PM CEST
;FORMAT={3:3/ absolute / metric / suppress leading zeros}
FMAT,2
METRIC,TZ
T1C0.400
T2C0.650
T3C0.762
T4C0.800
T5C0.800
T6C0.813
T7C0.900
T8C0.998
T9C1.001
T10C1.016
T11C1.200
T12C1.501
T13C3.000
T14C3.200
%
G90
G05
M71
T1
X-814Y86271
X1421Y97039
X2274Y90710
X5143Y53912
X10541Y119126
X43342Y86500
X44683Y79206
X46688Y84327
X47400Y113084
X49022Y50927
X51255Y53901
X52610Y89157
X53529Y55149
X55312Y88897
X55312Y76823
X55578Y71303
X57077Y79548
X58136Y50962
X59802Y79151
X68644Y105219
X74004Y85423
X74240Y88900
X75192Y97823
X76943Y79410
X80645Y49657
X84299Y50321
X84582Y48260
X85968Y86612
X89520Y77026
X91237Y82550
X91491Y101752
X100183Y85399
X103480Y89103
X103581Y91440
X104822Y85817
X111192Y88704
X112894Y83276
X115086Y87202
X115951Y20320
X116279Y23503
X116407Y43961
X119641Y79579
X125135Y50957
X127968Y50378
X130148Y48260
X131077Y85897
X131669Y91331
X132791Y80061
X135636Y40577
X135966Y48260
X141908Y83774
X142558Y49990
X143464Y41864
X144437Y49803
X145078Y98256
X145308Y48820
X147015Y48350
X154544Y118511
X155018Y49644
X157231Y86569
X161519Y79705
X161569Y84404
T2
X88524Y131648
X89670Y133149
X89670Y130150
X90815Y131648
X91961Y133149
X91961Y130150
X93106Y131648
X94247Y130150
X94249Y133147
X95395Y131648
X96540Y133149
X96540Y130150
X97686Y131648
X98829Y133149
X98829Y130150
T3
X41910Y116840
X41910Y114300
X41910Y111760
X41910Y109220
X41910Y106680
X41910Y104140
X41910Y101600
X41910Y99060
X41910Y96520
X41910Y93980
X41910Y91440
X41910Y88900
X41910Y82550
X41910Y80010
X41910Y77470
X41910Y74930
X41910Y72390
X41910Y69850
X41910Y67310
X41910Y64770
X41910Y62230
X41910Y59690
X41910Y57150
X41910Y54610
X49530Y116840
X49530Y114300
X49530Y111760
X49530Y109220
X49530Y106680
X49530Y104140
X49530Y101600
X49530Y99060
X49530Y96520
X49530Y93980
X49530Y91440
X49530Y88900
X49530Y82550
X49530Y80010
X49530Y77470
X49530Y74930
X49530Y72390
X49530Y69850
X49530Y67310
X49530Y64770
X49530Y62230
X49530Y59690
X49530Y57150
X49530Y54610
X72390Y116840
X72390Y114300
X72390Y111760
X72390Y109220
X72390Y106680
X72390Y104140
X72390Y101600
X72390Y99060
X72390Y96520
X72390Y93980
X72390Y91440
X72390Y88900
X72390Y82550
X72390Y80010
X72390Y77470
X72390Y74930
X72390Y72390
X72390Y69850
X72390Y67310
X72390Y64770
X72390Y62230
X72390Y59690
X72390Y57150
X72390Y54610
X80010Y116840
X80010Y114300
X80010Y111760
X80010Y109220
X80010Y106680
X80010Y104140
X80010Y101600
X80010Y99060
X80010Y96520
X80010Y93980
X80010Y91440
X80010Y88900
X80010Y82550
X80010Y80010
X80010Y77470
X80010Y74930
X80010Y72390
X80010Y69850
X80010Y67310
X80010Y64770
X80010Y62230
X80010Y59690
X80010Y57150
X80010Y54610
X91440Y48260
X91440Y45720
X91440Y43180
X91440Y40640
X91440Y38100
X91440Y35560
X91440Y33020
X91440Y30480
X91440Y27940
X91440Y25400
X91440Y22860
X91440Y20320
X99060Y48260
X99060Y45720
X99060Y43180
X99060Y40640
X99060Y38100
X99060Y35560
X99060Y33020
X99060Y30480
X99060Y27940
X99060Y25400
X99060Y22860
X99060Y20320
X100330Y116840
X100330Y114300
X100330Y111760
X100330Y109220
X100330Y106680
X100330Y104140
X100330Y101600
X100330Y99060
X100330Y96520
X100330Y93980
X100330Y91440
X100330Y88900
X100330Y82550
X100330Y80010
X100330Y77470
X100330Y74930
X100330Y72390
X100330Y69850
X100330Y67310
X100330Y64770
X100330Y62230
X100330Y59690
X100330Y57150
X100330Y54610
X107950Y116840
X107950Y114300
X107950Y111760
X107950Y109220
X107950Y106680
X107950Y104140
X107950Y101600
X107950Y99060
X107950Y96520
X107950Y93980
X107950Y91440
X107950Y88900
X107950Y82550
X107950Y80010
X107950Y77470
X107950Y74930
X107950Y72390
X107950Y69850
X107950Y67310
X107950Y64770
X107950Y62230
X107950Y59690
X107950Y57150
X107950Y54610
X111760Y48260
X111760Y45720
X111760Y43180
X111760Y40640
X111760Y38100
X111760Y35560
X111760Y33020
X111760Y30480
X111760Y27940
X111760Y25400
X111760Y22860
X111760Y20320
X119380Y48260
X119380Y45720
X119380Y43180
X119380Y40640
X119380Y38100
X119380Y35560
X119380Y33020
X119380Y30480
X119380Y27940
X119380Y25400
X119380Y22860
X119380Y20320
X128270Y116840
X128270Y114300
X128270Y111760
X128270Y109220
X128270Y106680
X128270Y104140
X128270Y101600
X128270Y99060
X128270Y96520
X128270Y93980
X128270Y91440
X128270Y88900
X128270Y82550
X128270Y80010
X128270Y77470
X128270Y74930
X128270Y72390
X128270Y69850
X128270Y67310
X128270Y64770
X128270Y62230
X128270Y59690
X128270Y57150
X128270Y54610
X132080Y48260
X132080Y45720
X132080Y43180
X132080Y40640
X132080Y38100
X132080Y35560
X132080Y33020
X132080Y30480
X132080Y27940
X132080Y25400
X132080Y22860
X132080Y20320
X135890Y116840
X135890Y114300
X135890Y111760
X135890Y109220
X135890Y106680
X135890Y104140
X135890Y101600
X135890Y99060
X135890Y96520
X135890Y93980
X135890Y91440
X135890Y88900
X135890Y82550
X135890Y80010
X135890Y77470
X135890Y74930
X135890Y72390
X135890Y69850
X135890Y67310
X135890Y64770
X135890Y62230
X135890Y59690
X135890Y57150
X135890Y54610
X139700Y48260
X139700Y45720
X139700Y43180
X139700Y40640
X139700Y38100
X139700Y35560
X139700Y33020
X139700Y30480
X139700Y27940
X139700Y25400
X139700Y22860
X139700Y20320
X152400Y48260
X152400Y45720
X152400Y43180
X152400Y40640
X152400Y38100
X152400Y35560
X152400Y33020
X152400Y30480
X152400Y27940
X152400Y25400
X152400Y22860
X152400Y20320
X156210Y116840
X156210Y114300
X156210Y111760
X156210Y109220
X156210Y106680
X156210Y104140
X156210Y101600
X156210Y99060
X156210Y96520
X156210Y93980
X156210Y91440
X156210Y88900
X156210Y82550
X156210Y80010
X156210Y77470
X156210Y74930
X156210Y72390
X156210Y69850
X156210Y67310
X156210Y64770
X156210Y62230
X156210Y59690
X156210Y57150
X156210Y54610
X160020Y48260
X160020Y45720
X160020Y43180
X160020Y40640
X160020Y38100
X160020Y35560
X160020Y33020
X160020Y30480
X160020Y27940
X160020Y25400
X160020Y22860
X160020Y20320
X163830Y116840
X163830Y114300
X163830Y111760
X163830Y109220
X163830Y106680
X163830Y104140
X163830Y101600
X163830Y99060
X163830Y96520
X163830Y93980
X163830Y91440
X163830Y88900
X163830Y82550
X163830Y80010
X163830Y77470
X163830Y74930
X163830Y72390
X163830Y69850
X163830Y67310
X163830Y64770
X163830Y62230
X163830Y59690
X163830Y57150
X163830Y54610
T4
X20066Y8890
X21590Y35480
X21590Y30480
X23566Y8890
X34290Y104140
X39370Y96520
X39370Y80518
X52070Y91440
X52070Y74930
X52070Y30480
X52070Y8890
X55570Y8890
X57070Y30480
X69850Y96520
X69850Y80010
X82550Y91440
X82550Y74930
X87630Y69850
X88900Y27940
X97790Y96520
X97790Y80010
X101600Y22860
X109220Y27940
X110490Y91440
X110490Y74930
X115570Y69850
X121920Y22860
X125730Y96520
X125730Y80010
X129540Y27940
X138430Y91440
X138430Y74930
X142240Y22860
X143510Y69850
X149860Y27940
X153670Y96520
X153670Y80010
X162560Y22860
X166370Y91440
X166370Y74930
X168910Y69850
T5
X36790Y104140
X39370Y94020
X39370Y78018
X54570Y91440
X54570Y74930
X67350Y96520
X67350Y80010
X85050Y91440
X85050Y74930
X85130Y69850
X88900Y30440
X95290Y96520
X95290Y80010
X104100Y22860
X106720Y27940
X112990Y91440
X112990Y74930
X113070Y69850
X123230Y96520
X123230Y80010
X124420Y22860
X127040Y27940
X140930Y91440
X140930Y74930
X141010Y69850
X144740Y22860
X147360Y27940
X151170Y96520
X151170Y80010
X165060Y22860
X166410Y69850
X168870Y91440
X168870Y74930
T6
X57270Y133580
X57270Y130580
X72270Y134580
X72270Y129580
T7
X58420Y97790
X58420Y92710
X58500Y87630
X58500Y82550
X58500Y77470
X62310Y69850
X63420Y97790
X63420Y92710
X63500Y87630
X63500Y82550
X63500Y77470
X67310Y69850
X90250Y115570
X95250Y115570
X118190Y115570
X123190Y115570
X146130Y115570
X151130Y115570
T8
X8255Y43180
X8255Y40640
T9
X15230Y40640
X15240Y45720
X15748Y2032
X15748Y-762
X25908Y2032
X25908Y-762
X26670Y116840
X26670Y114300
X26670Y111760
X26670Y109220
X26670Y106680
X36830Y116840
X36830Y114300
X36830Y111760
X36830Y109220
X36830Y106680
X43942Y133604
X54102Y133604
X54610Y116840
X54610Y114300
X54610Y111760
X54610Y109220
X54610Y106680
X57150Y66040
X57150Y63500
X57150Y60960
X57150Y58420
X60198Y9398
X60198Y-762
X62992Y9398
X62992Y-762
X64770Y116840
X64770Y114300
X64770Y111760
X64770Y109220
X64770Y106680
X67310Y66040
X67310Y63500
X67310Y60960
X67310Y58420
X85090Y111760
X85090Y109220
X85090Y106680
X85090Y104140
X85090Y64770
X85090Y62230
X85090Y59690
X85090Y57150
X85090Y54610
X95250Y111760
X95250Y109220
X95250Y106680
X95250Y104140
X95250Y64770
X95250Y62230
X95250Y59690
X95250Y57150
X95250Y54610
X113030Y111760
X113030Y109220
X113030Y106680
X113030Y104140
X113030Y64770
X113030Y62230
X113030Y59690
X113030Y57150
X113030Y54610
X123190Y111760
X123190Y109220
X123190Y106680
X123190Y104140
X123190Y64770
X123190Y62230
X123190Y59690
X123190Y57150
X123190Y54610
X140970Y111760
X140970Y109220
X140970Y106680
X140970Y104140
X140970Y64770
X140970Y62230
X140970Y59690
X140970Y57150
X140970Y54610
X151130Y111760
X151130Y109220
X151130Y106680
X151130Y104140
X151130Y64770
X151130Y62230
X151130Y59690
X151130Y57150
X151130Y54610
X164338Y49784
X164338Y39624
X167132Y49784
X167132Y39624
X167386Y64516
X167386Y54356
X169926Y49784
X169926Y39624
X170180Y64516
X170180Y54356
T10
X-508Y126746
X-508Y124206
X-508Y121666
X-508Y119126
X-508Y116586
X-508Y114046
X-508Y111506
X-508Y108966
X-508Y106426
X-508Y103886
X-508Y101346
X-508Y98806
X-508Y96266
X-508Y93726
X-254Y83058
X-254Y80518
X-254Y77978
X-254Y75438
X-254Y72898
X-254Y70358
X-254Y67818
X-254Y65278
X-254Y62738
X-254Y60198
X-254Y57658
X-254Y55118
X-254Y52578
X-254Y50038
X6350Y96647
X6350Y94107
X6350Y91567
X6350Y89027
X6350Y86487
X6350Y83947
X6350Y81407
X6350Y78867
X6350Y76327
X6350Y73787
X6350Y71247
X6350Y68707
X6350Y66167
X6350Y63627
X6350Y61087
X6350Y58547
X34290Y96647
X34290Y94107
X34290Y91567
X34290Y89027
X34290Y86487
X34290Y83947
X34290Y81407
X34290Y78867
X34290Y76327
X34290Y73787
X34290Y71247
X34290Y68707
X34290Y66167
X34290Y63627
X34290Y61087
X34290Y58547
X35560Y23724
X35560Y20320
X35560Y16916
X39726Y22022
X39726Y18618
X51714Y22022
X51714Y18618
X55880Y23724
X55880Y20320
X55880Y16916
X88392Y25400
T11
X12192Y20574
X19812Y20574
X69342Y12700
X76962Y12700
T12
X15241Y51438
X27943Y27939
X27943Y12699
X30481Y51438
X62227Y27941
X62227Y12701
T13
X0Y133350
X0Y0
X168910Y133350
X168910Y0
T14
X81486Y132149
X106474Y132149
T0
M30
