<?xml version="1.0" encoding="UTF-8" standalone="no"?>
<!-- Created with Inkscape (http://www.inkscape.org/) -->

<svg
   xmlns:dc="http://purl.org/dc/elements/1.1/"
   xmlns:cc="http://creativecommons.org/ns#"
   xmlns:rdf="http://www.w3.org/1999/02/22-rdf-syntax-ns#"
   xmlns:svg="http://www.w3.org/2000/svg"
   xmlns="http://www.w3.org/2000/svg"
   xmlns:sodipodi="http://sodipodi.sourceforge.net/DTD/sodipodi-0.dtd"
   xmlns:inkscape="http://www.inkscape.org/namespaces/inkscape"
   version="1.0"
   width="376.00562"
   height="334.18771"
   viewBox="-104.705 -0.5 376.00561 334.18771"
   id="Layer_1"
   xml:space="preserve"
   inkscape:version="0.91 r13725"
   sodipodi:docname="VGA_Connector_Pinout.svg"
   inkscape:export-filename="/home/bob/ArduGuitar/Ardu2/design/POC-3_MAX395/Images/VGA_Connector_Pinout.png"
   inkscape:export-xdpi="90"
   inkscape:export-ydpi="90"><metadata
     id="metadata64"><rdf:RDF><cc:Work
         rdf:about=""><dc:format>image/svg+xml</dc:format><dc:type
           rdf:resource="http://purl.org/dc/dcmitype/StillImage" /><dc:title /></cc:Work></rdf:RDF></metadata><sodipodi:namedview
     pagecolor="#ffffff"
     bordercolor="#666666"
     borderopacity="1"
     objecttolerance="10"
     gridtolerance="10"
     guidetolerance="10"
     inkscape:pageopacity="0"
     inkscape:pageshadow="2"
     inkscape:window-width="1895"
     inkscape:window-height="1056"
     id="namedview62"
     showgrid="false"
     fit-margin-top="0"
     fit-margin-left="0"
     fit-margin-right="0"
     fit-margin-bottom="0"
     inkscape:zoom="1.8693641"
     inkscape:cx="207.59162"
     inkscape:cy="151.07147"
     inkscape:window-x="0"
     inkscape:window-y="0"
     inkscape:window-maximized="1"
     inkscape:current-layer="Layer_1" /><defs
     id="defs4541" /><path
     d="m -67.580689,81.194068 c 0,-8.604 6.98,-15.579 15.584,-15.579 l 270.588999,0 c 8.614,0 15.584,6.976 15.584,15.579 l 0,92.636002 c 0,8.609 -6.97,15.584 -15.584,15.584 l -270.588999,0 c -8.604,0 -15.584,-6.975 -15.584,-15.584 l 0,-92.636002 z"
     style="fill:#ffffff;stroke:#000000;stroke-width:2.59739995"
     id="path4424"
     inkscape:connector-curvature="0" /><path
     d="m 9.0299225,170.88507 c -14.567,0 -24.4149995,-11.735 -21.8819995,-26.085 l 6.1139995,-34.566 c 2.542,-14.350003 16.537,-26.094003 31.1040005,-26.094003 l 99.198007,0 c 14.564,0 28.559,11.744 31.103,26.094003 l 6.116,34.566 c 2.531,14.35 -7.308,26.085 -21.886,26.085 l -129.8670075,0 0,0 z"
     style="fill:none;stroke:#000000;stroke-width:2.59739995"
     id="path4426"
     inkscape:connector-curvature="0" /><g
     id="g4428"
     transform="matrix(-1,0,0,-1,137.76689,202.01507)"><path
       d="m -57.976,61.373 c 7.251,0 13.128,5.877 13.128,13.128 0,7.243 -5.877,13.125 -13.128,13.125 -7.25,0 -13.127,-5.882 -13.127,-13.125 -0.001,-7.251 5.876,-13.128 13.127,-13.128 z"
       style="fill:none;stroke:#000000;stroke-width:2.59739995"
       id="path4430"
       inkscape:connector-curvature="0" /><path
       d="m 185.58,61.373 c 7.249,0 13.126,5.877 13.126,13.128 0,7.243 -5.877,13.125 -13.126,13.125 -7.247,0 -13.124,-5.882 -13.124,-13.125 0,-7.251 5.877,-13.128 13.124,-13.128 z"
       style="fill:none;stroke:#000000;stroke-width:2.59739995"
       id="path4432"
       inkscape:connector-curvature="0" /></g><g
     id="g4434"
     transform="matrix(1,0,0,-1,10.16389,202.00807)"><path
       d="m 103.695,49.63 c -3.213,0 -5.821,2.606 -5.821,5.817 0,3.212 2.608,5.819 5.821,5.819 3.212,0 5.812,-2.607 5.812,-5.819 0,-3.211 -2.6,-5.817 -5.812,-5.817 z"
       style="fill:none;stroke:#000000;stroke-width:2.59739995"
       id="path4436"
       inkscape:connector-curvature="0" /><path
       d="m 80.893,49.63 c -3.214,0 -5.816,2.606 -5.816,5.817 0,3.212 2.603,5.819 5.816,5.819 3.219,0 5.823,-2.607 5.823,-5.819 0,-3.211 -2.605,-5.817 -5.823,-5.817 z"
       style="fill:none;stroke:#000000;stroke-width:2.59739995"
       id="path4438"
       inkscape:connector-curvature="0" /><path
       d="m 58.106,49.633 c -3.213,0 -5.823,2.604 -5.823,5.814 0,3.212 2.61,5.816 5.823,5.816 3.205,0 5.812,-2.604 5.812,-5.816 0,-3.211 -2.607,-5.814 -5.812,-5.814 z"
       style="fill:none;stroke:#000000;stroke-width:2.59739995"
       id="path4440"
       inkscape:connector-curvature="0" /><path
       d="m 35.304,49.63 c -3.214,0 -5.811,2.606 -5.811,5.817 0,3.212 2.597,5.819 5.811,5.819 3.214,0 5.821,-2.607 5.821,-5.819 0,-3.211 -2.607,-5.817 -5.821,-5.817 z"
       style="fill:none;stroke:#000000;stroke-width:2.59739995"
       id="path4442"
       inkscape:connector-curvature="0" /><path
       d="m 12.505,49.63 c -3.216,0 -5.816,2.606 -5.816,5.817 0,3.212 2.6,5.819 5.816,5.819 3.219,0 5.819,-2.607 5.819,-5.819 0,-3.211 -2.6,-5.817 -5.819,-5.817 z"
       style="fill:none;stroke:#000000;stroke-width:2.59739995"
       id="path4444"
       inkscape:connector-curvature="0" /><path
       d="m 92.289,68.681 c -3.209,0 -5.812,2.606 -5.812,5.82 0,3.207 2.603,5.812 5.812,5.812 3.214,0 5.826,-2.605 5.826,-5.812 0,-3.214 -2.612,-5.82 -5.826,-5.82 z"
       style="fill:none;stroke:#000000;stroke-width:2.59739995"
       id="path4446"
       inkscape:connector-curvature="0" /><path
       d="m 69.501,68.682 c -3.214,0 -5.819,2.605 -5.819,5.819 0,3.205 2.605,5.81 5.819,5.81 3.206,0 5.809,-2.604 5.809,-5.81 0,-3.214 -2.603,-5.819 -5.809,-5.819 z"
       style="fill:none;stroke:#000000;stroke-width:2.59739995"
       id="path4448"
       inkscape:connector-curvature="0" /><path
       d="m 115.093,68.681 c 3.213,0 5.818,2.604 5.818,5.817 0,3.208 -2.605,5.805 -5.818,5.805 -3.209,0 -5.812,-2.597 -5.812,-5.805 0,-3.214 2.603,-5.817 5.812,-5.817 z"
       style="fill:none;stroke:#000000;stroke-width:2.59739995"
       id="path4450"
       inkscape:connector-curvature="0" /><path
       d="m 46.703,68.681 c -3.206,0 -5.816,2.606 -5.816,5.82 0,3.207 2.61,5.812 5.816,5.812 3.211,0 5.819,-2.605 5.819,-5.812 -10e-4,-3.214 -2.608,-5.82 -5.819,-5.82 z"
       style="fill:none;stroke:#000000;stroke-width:2.59739995"
       id="path4452"
       inkscape:connector-curvature="0" /><path
       d="m 23.907,68.681 c -3.214,0 -5.822,2.606 -5.822,5.82 0,3.207 2.608,5.812 5.822,5.812 3.213,0 5.824,-2.605 5.824,-5.812 0,-3.214 -2.61,-5.82 -5.824,-5.82 z"
       style="fill:none;stroke:#000000;stroke-width:2.59739995"
       id="path4454"
       inkscape:connector-curvature="0" /><path
       d="m 103.695,99.362 c -3.213,0 -5.821,-2.607 -5.821,-5.821 0,-3.208 2.608,-5.816 5.821,-5.816 3.212,0 5.812,2.608 5.812,5.816 0,3.214 -2.6,5.821 -5.812,5.821 z"
       style="fill:none;stroke:#000000;stroke-width:2.59739995"
       id="path4456"
       inkscape:connector-curvature="0" /><path
       d="m 80.893,99.362 c -3.214,0 -5.816,-2.607 -5.816,-5.821 0,-3.208 2.603,-5.816 5.816,-5.816 3.219,0 5.823,2.608 5.823,5.816 0,3.214 -2.605,5.821 -5.823,5.821 z"
       style="fill:none;stroke:#000000;stroke-width:2.59739995"
       id="path4458"
       inkscape:connector-curvature="0" /><path
       d="m 58.106,99.36 c -3.213,0 -5.823,-2.605 -5.823,-5.819 0,-3.208 2.61,-5.816 5.823,-5.816 3.205,0 5.812,2.608 5.812,5.816 0,3.214 -2.607,5.819 -5.812,5.819 z"
       style="fill:none;stroke:#000000;stroke-width:2.59739995"
       id="path4460"
       inkscape:connector-curvature="0" /><path
       d="m 35.304,99.362 c -3.214,0 -5.811,-2.607 -5.811,-5.821 0,-3.208 2.597,-5.816 5.811,-5.816 3.214,0 5.821,2.608 5.821,5.816 0,3.214 -2.607,5.821 -5.821,5.821 z"
       style="fill:none;stroke:#000000;stroke-width:2.59739995"
       id="path4462"
       inkscape:connector-curvature="0" /><path
       d="m 12.505,99.362 c -3.216,0 -5.816,-2.607 -5.816,-5.821 0,-3.208 2.6,-5.816 5.816,-5.816 3.219,0 5.819,2.608 5.819,5.816 0,3.214 -2.6,5.821 -5.819,5.821 z"
       style="fill:none;stroke:#000000;stroke-width:2.59739995"
       id="path4464"
       inkscape:connector-curvature="0" /></g><g
     id="g4466"
     transform="matrix(1,0,0,-1,10.16389,201.66907)"><g
       id="g4468"><path
         d="m 103.973,57.629 0.604,0 0,-4.607 -0.533,0 -1.007,0.54 0.119,0.476 0.805,-0.433 0.013,0 0,4.024 -0.001,0 z"
         id="path4470"
         inkscape:connector-curvature="0" /></g><g
       id="g4472"><path
         d="m 82.444,57.573 0,-0.516 -2.06,0 0,-0.016 0.36,-0.341 c 0.969,-0.936 1.588,-1.624 1.588,-2.471 0,-0.66 -0.418,-1.341 -1.402,-1.341 -0.535,0 -0.992,0.205 -1.304,0.467 l 0.195,0.44 c 0.215,-0.176 0.562,-0.39 0.979,-0.39 0.688,0 0.908,0.433 0.908,0.9 0,0.693 -0.54,1.288 -1.715,2.406 l -0.486,0.474 0,0.386 2.937,0 0,0.002 z"
         id="path4474"
         inkscape:connector-curvature="0" /></g><g
       id="g4476"><path
         d="m 56.71,57.395 c 0.229,0.149 0.683,0.312 1.2,0.312 1.096,0 1.675,-0.646 1.675,-1.38 0,-0.644 -0.457,-1.07 -1.026,-1.177 l 0,-0.017 c 0.562,-0.206 0.851,-0.607 0.851,-1.087 0,-0.561 -0.41,-1.101 -1.316,-1.101 -0.497,0 -0.965,0.179 -1.212,0.355 l 0.171,0.452 c 0.195,-0.141 0.554,-0.303 0.922,-0.303 0.572,0 0.804,0.326 0.804,0.692 0,0.546 -0.573,0.781 -1.027,0.781 l -0.344,0 0,0.467 0.344,0 c 0.603,0 1.185,0.276 1.192,0.92 0.005,0.391 -0.247,0.894 -1.042,0.894 -0.438,0 -0.843,-0.178 -1.02,-0.286 l -0.172,0.478 z"
         id="path4478"
         inkscape:connector-curvature="0" /></g><g
       id="g4480"><path
         d="m 36.356,57.629 0,-1.254 0.646,0 0,-0.484 -0.646,0 0,-2.869 -0.672,0 -2.056,2.95 0,0.403 2.142,0 0,1.254 0.586,0 z m -2.095,-1.738 0,-0.013 1.124,-1.567 c 0.129,-0.218 0.242,-0.415 0.386,-0.686 l 0.019,0 c -0.014,0.241 -0.019,0.479 -0.019,0.723 l 0,1.543 -1.51,0 z"
         id="path4482"
         inkscape:connector-curvature="0" /></g><g
       id="g4484"><path
         d="m 13.822,53.082 -2.204,0 -0.298,2.195 c 0.171,-0.028 0.377,-0.049 0.646,-0.049 0.914,0 1.319,0.417 1.319,1.027 0.005,0.62 -0.503,1.006 -1.086,1.006 -0.425,0 -0.801,-0.144 -0.989,-0.258 l -0.16,0.476 c 0.227,0.142 0.647,0.283 1.149,0.283 1,0 1.719,-0.673 1.719,-1.571 0,-0.596 -0.303,-0.999 -0.664,-1.199 -0.281,-0.168 -0.629,-0.25 -0.992,-0.25 -0.167,0 -0.271,0.017 -0.373,0.031 l 0.175,-1.169 1.758,0 0,-0.522 0,0 z"
         id="path4486"
         inkscape:connector-curvature="0" /></g><g
       id="g4488"><path
         d="m 116.401,72.188 c -0.114,0 -0.271,0.009 -0.454,0.034 -0.584,0.073 -1.091,0.309 -1.474,0.681 -0.459,0.464 -0.779,1.179 -0.779,2.086 0,1.193 0.645,1.959 1.621,1.959 0.964,0 1.537,-0.777 1.537,-1.625 0,-0.895 -0.573,-1.49 -1.388,-1.49 -0.51,0 -0.902,0.239 -1.121,0.539 l -0.013,0 c 0.106,-0.766 0.617,-1.48 1.604,-1.636 0.175,-0.029 0.337,-0.043 0.467,-0.038 l 0,-0.51 z m -1.078,4.276 c -0.654,0 -1.005,-0.564 -1.012,-1.322 0,-0.112 0.027,-0.197 0.062,-0.27 0.171,-0.338 0.523,-0.565 0.898,-0.565 0.573,0 0.946,0.397 0.946,1.054 0,0.658 -0.357,1.104 -0.888,1.104 l -0.006,0 0,-0.001 z"
         id="path4490"
         inkscape:connector-curvature="0" /></g><g
       id="g4492"><path
         d="m 90.987,72.422 0,0.518 2.253,0 0,0.014 -1.991,4.071 0.64,0 2.006,-4.192 0,-0.41 -2.908,0 0,-0.001 z"
         id="path4494"
         inkscape:connector-curvature="0" /></g><g
       id="g4496"><path
         d="m 69.647,72.188 c -0.806,0 -1.42,0.497 -1.42,1.229 0,0.395 0.216,0.793 0.735,1.033 l 0,0.02 c -0.562,0.241 -0.908,0.66 -0.908,1.242 0,0.671 0.581,1.236 1.548,1.236 0.875,0 1.56,-0.529 1.56,-1.339 0,-0.552 -0.35,-0.963 -0.923,-1.19 l 0,-0.021 c 0.565,-0.26 0.766,-0.684 0.766,-1.072 0,-0.584 -0.459,-1.137 -1.35,-1.137 l -0.008,0 0,-10e-4 z m -0.035,4.306 c -0.581,0 -0.934,-0.41 -0.916,-0.869 0,-0.44 0.297,-0.801 0.832,-0.958 0.624,0.178 1.015,0.454 1.015,1.006 0,0.476 -0.359,0.821 -0.92,0.821 l -0.011,0 z m 0.031,-3.861 c 0.554,0 0.771,0.386 0.771,0.753 0,0.416 -0.305,0.704 -0.703,0.836 -0.529,-0.141 -0.885,-0.39 -0.877,-0.849 0,-0.397 0.284,-0.74 0.799,-0.74 l 0.01,0 z"
         id="path4498"
         inkscape:connector-curvature="0" /></g><g
       id="g4500"><path
         d="m 45.625,76.944 c 0.141,0.011 0.349,-0.005 0.576,-0.036 0.489,-0.055 0.983,-0.272 1.334,-0.614 0.454,-0.446 0.799,-1.152 0.799,-2.163 0,-1.185 -0.583,-1.943 -1.527,-1.943 -0.941,0 -1.58,0.766 -1.58,1.63 0,0.794 0.53,1.417 1.365,1.417 0.464,0 0.832,-0.185 1.085,-0.495 l 0.021,0 c -0.079,0.544 -0.302,0.946 -0.609,1.224 -0.259,0.253 -0.604,0.402 -0.961,0.445 -0.21,0.03 -0.37,0.034 -0.502,0.03 l 0,0.505 -10e-4,0 z m 1.131,-4.281 c 0.657,0 0.949,0.595 0.941,1.387 0,0.099 -0.021,0.172 -0.046,0.228 -0.172,0.278 -0.497,0.483 -0.918,0.483 -0.533,0 -0.887,-0.407 -0.887,-0.98 0,-0.65 0.379,-1.117 0.907,-1.117 l 0.003,0 0,-0.001 z"
         id="path4502"
         inkscape:connector-curvature="0" /></g><g
       id="g4504"><path
         d="m 21.738,76.87 0.604,0 0,-4.605 -0.533,0 -1.005,0.539 0.12,0.476 0.802,-0.433 0.013,0 0,4.023 -0.001,0 z"
         id="path4506"
         inkscape:connector-curvature="0" /><path
         d="m 25.492,76.947 c 1.007,0 1.596,-0.863 1.596,-2.432 0,-1.463 -0.561,-2.328 -1.522,-2.328 -0.938,0 -1.611,0.845 -1.611,2.392 0.018,1.526 0.629,2.368 1.532,2.368 l 0.005,0 0,0 z m 0.013,-0.483 c -0.576,0 -0.938,-0.719 -0.924,-1.917 0,-1.153 0.369,-1.875 0.935,-1.875 0.649,0 0.936,0.744 0.936,1.875 0,1.178 -0.31,1.917 -0.936,1.917 l -0.011,0 z"
         id="path4508"
         inkscape:connector-curvature="0" /></g><g
       id="g4510"><path
         d="m 102.156,95.626 0.604,0 0,-4.601 -0.53,0 -1.007,0.535 0.119,0.477 0.802,-0.434 0.013,0 0,4.023 -10e-4,0 z"
         id="path4512"
         inkscape:connector-curvature="0" /><path
         d="m 105.793,95.626 0.602,0 0,-4.601 -0.53,0 -1.01,0.535 0.12,0.477 0.804,-0.434 0.015,0 0,4.023 -10e-4,0 z"
         id="path4514"
         inkscape:connector-curvature="0" /></g><g
       id="g4516"><path
         d="m 78.833,95.573 0.604,0 0,-4.609 -0.53,0 -1.007,0.541 0.119,0.474 0.802,-0.434 0.013,0 0,4.028 -0.001,0 z"
         id="path4518"
         inkscape:connector-curvature="0" /><path
         d="m 84.053,95.573 0,-0.521 -2.06,0 0,-0.02 0.36,-0.335 c 0.974,-0.934 1.59,-1.624 1.59,-2.471 0,-0.66 -0.421,-1.342 -1.405,-1.342 -0.529,0 -0.991,0.205 -1.304,0.469 l 0.198,0.441 c 0.213,-0.183 0.561,-0.391 0.977,-0.391 0.69,0 0.908,0.434 0.908,0.898 0,0.694 -0.54,1.291 -1.712,2.412 l -0.487,0.469 0,0.389 2.935,0 0,0.002 z"
         id="path4520"
         inkscape:connector-curvature="0" /></g><g
       id="g4522"><path
         d="m 56.045,95.626 0.606,0 0,-4.601 -0.533,0 -1.007,0.535 0.122,0.474 0.802,-0.431 0.01,0 0,4.023 z"
         id="path4524"
         inkscape:connector-curvature="0" /><path
         d="m 58.306,95.391 c 0.227,0.152 0.681,0.312 1.198,0.312 1.096,0 1.679,-0.646 1.679,-1.375 0,-0.648 -0.461,-1.07 -1.03,-1.179 l 0,-0.013 c 0.563,-0.206 0.85,-0.611 0.85,-1.091 0,-0.563 -0.414,-1.101 -1.317,-1.101 -0.495,0 -0.961,0.177 -1.209,0.353 l 0.168,0.456 c 0.195,-0.142 0.553,-0.305 0.921,-0.305 0.573,0 0.807,0.325 0.807,0.692 0,0.546 -0.573,0.779 -1.027,0.779 l -0.346,0 0,0.469 0.346,0 c 0.603,0 1.183,0.277 1.191,0.921 0.007,0.389 -0.249,0.894 -1.04,0.894 -0.441,0 -0.843,-0.181 -1.02,-0.282 l -0.171,0.47 z"
         id="path4526"
         inkscape:connector-curvature="0" /></g><g
       id="g4528"><path
         d="m 33.069,95.626 0.601,0 0,-4.601 -0.533,0 -1.008,0.535 0.123,0.477 0.802,-0.434 0.015,0 0,4.023 0,0 z"
         id="path4530"
         inkscape:connector-curvature="0" /><path
         d="m 37.86,95.626 0,-1.253 0.647,0 0,-0.479 -0.647,0 0,-2.868 -0.667,0 -2.053,2.944 0,0.403 2.134,0 0,1.253 0.586,0 0,0 z m -2.092,-1.732 0,-0.02 1.126,-1.561 c 0.127,-0.218 0.238,-0.421 0.38,-0.689 l 0.023,0 c -0.017,0.238 -0.023,0.484 -0.023,0.723 l 0,1.547 -1.506,0 z"
         id="path4532"
         inkscape:connector-curvature="0" /></g><g
       id="g4534"><path
         d="m 10.389,95.682 0.606,0 0,-4.601 -0.539,0 -0.999,0.54 0.12,0.475 0.799,-0.439 0.013,0 0,4.025 0,0 z"
         id="path4536"
         inkscape:connector-curvature="0" /><path
         d="m 15.417,91.081 -2.205,0 -0.297,2.196 c 0.167,-0.033 0.375,-0.053 0.643,-0.053 0.917,0 1.318,0.421 1.318,1.027 0.01,0.626 -0.5,1.007 -1.079,1.007 -0.425,0 -0.803,-0.143 -0.996,-0.257 l -0.155,0.475 c 0.226,0.143 0.644,0.289 1.15,0.289 0.993,0 1.711,-0.677 1.711,-1.577 0,-0.597 -0.293,-0.997 -0.655,-1.195 -0.288,-0.17 -0.637,-0.248 -0.994,-0.248 -0.172,0 -0.268,0.013 -0.378,0.027 l 0.178,-1.172 1.758,0 0,-0.519 10e-4,0 z"
         id="path4538"
         inkscape:connector-curvature="0" /></g></g><text
     xml:space="preserve"
     style="font-style:normal;font-weight:normal;font-size:40px;line-height:125%;font-family:sans-serif;letter-spacing:0px;word-spacing:0px;fill:#000000;fill-opacity:1;stroke:none;stroke-width:1px;stroke-linecap:butt;stroke-linejoin:miter;stroke-opacity:1"
     x="-96.152817"
     y="233.00771"
     id="text3392"
     sodipodi:linespacing="125%"><tspan
       sodipodi:role="line"
       id="tspan3394"
       x="-96.152817"
       y="233.00771"
       style="font-style:normal;font-variant:normal;font-weight:normal;font-stretch:normal;font-family:Courier;-inkscape-font-specification:Courier">C- D+ D- O+ G</tspan><tspan
       sodipodi:role="line"
       x="-96.152817"
       y="283.00769"
       id="tspan3398"
       style="font-style:normal;font-variant:normal;font-weight:normal;font-stretch:normal;font-family:Courier;-inkscape-font-specification:Courier">  G  G  G  G  G</tspan><tspan
       sodipodi:role="line"
       x="-96.152817"
       y="333.00769"
       id="tspan3396"
       style="font-style:normal;font-variant:normal;font-weight:normal;font-stretch:normal;font-family:Courier;-inkscape-font-specification:Courier">C+ A+ A- B+ B-</tspan></text>
<text
     xml:space="preserve"
     style="font-style:normal;font-weight:normal;font-size:40px;line-height:125%;font-family:sans-serif;letter-spacing:0px;word-spacing:0px;fill:#000000;fill-opacity:1;stroke:none;stroke-width:1px;stroke-linecap:butt;stroke-linejoin:miter;stroke-opacity:1"
     x="50.700153"
     y="28.660156"
     id="text3402"
     sodipodi:linespacing="125%"><tspan
       sodipodi:role="line"
       id="tspan3404"
       x="50.700153"
       y="28.660156">Top</tspan></text>
</svg>