%FSLAX45Y45*%
G04 Gerber Fmt 4.5, Leading zero omitted, Abs format (unit mm)*
G04 Created by KiCad (PCBNEW 0.201601231531+6508~42~ubuntu15.10.1-product) date Sun 24 Jan 2016 05:30:02 PM CET*
%MOMM*%
G01*
G04 APERTURE LIST*
%ADD10C,0.127000*%
%ADD11C,0.150000*%
%ADD12C,0.200000*%
%ADD13C,0.300000*%
G04 APERTURE END LIST*
D10*
D11*
X17729200Y-11379200D02*
X17729200Y-11353800D01*
X12293600Y-11379200D02*
X17729200Y-11379200D01*
X12293600Y-9753600D02*
X12293600Y-11379200D01*
X17729200Y-9753600D02*
X12293600Y-9753600D01*
X17729200Y-9753600D02*
X17729200Y-11353800D01*
D12*
D13*
X12557528Y-11852414D02*
X12557528Y-11552414D01*
X12628957Y-11552414D01*
X12671814Y-11566700D01*
X12700386Y-11595271D01*
X12714671Y-11623843D01*
X12728957Y-11680986D01*
X12728957Y-11723843D01*
X12714671Y-11780986D01*
X12700386Y-11809557D01*
X12671814Y-11838129D01*
X12628957Y-11852414D01*
X12557528Y-11852414D01*
X12857528Y-11852414D02*
X12857528Y-11652414D01*
X12857528Y-11709557D02*
X12871814Y-11680986D01*
X12886100Y-11666700D01*
X12914671Y-11652414D01*
X12943243Y-11652414D01*
X13043243Y-11852414D02*
X13043243Y-11652414D01*
X13043243Y-11552414D02*
X13028957Y-11566700D01*
X13043243Y-11580986D01*
X13057528Y-11566700D01*
X13043243Y-11552414D01*
X13043243Y-11580986D01*
X13228957Y-11852414D02*
X13200386Y-11838129D01*
X13186100Y-11809557D01*
X13186100Y-11552414D01*
X13386100Y-11852414D02*
X13357528Y-11838129D01*
X13343243Y-11809557D01*
X13343243Y-11552414D01*
X13728957Y-11852414D02*
X13728957Y-11552414D01*
X13828957Y-11766700D01*
X13928957Y-11552414D01*
X13928957Y-11852414D01*
X14200386Y-11852414D02*
X14200386Y-11695271D01*
X14186100Y-11666700D01*
X14157528Y-11652414D01*
X14100386Y-11652414D01*
X14071814Y-11666700D01*
X14200386Y-11838129D02*
X14171814Y-11852414D01*
X14100386Y-11852414D01*
X14071814Y-11838129D01*
X14057528Y-11809557D01*
X14057528Y-11780986D01*
X14071814Y-11752414D01*
X14100386Y-11738129D01*
X14171814Y-11738129D01*
X14200386Y-11723843D01*
X14343243Y-11652414D02*
X14343243Y-11952414D01*
X14343243Y-11666700D02*
X14371814Y-11652414D01*
X14428957Y-11652414D01*
X14457528Y-11666700D01*
X14471814Y-11680986D01*
X14486100Y-11709557D01*
X14486100Y-11795271D01*
X14471814Y-11823843D01*
X14457528Y-11838129D01*
X14428957Y-11852414D01*
X14371814Y-11852414D01*
X14343243Y-11838129D01*
X14614671Y-11823843D02*
X14628957Y-11838129D01*
X14614671Y-11852414D01*
X14600386Y-11838129D01*
X14614671Y-11823843D01*
X14614671Y-11852414D01*
X14614671Y-11666700D02*
X14628957Y-11680986D01*
X14614671Y-11695271D01*
X14600386Y-11680986D01*
X14614671Y-11666700D01*
X14614671Y-11695271D01*
M02*
