%FSLAX45Y45*%
G04 Gerber Fmt 4.5, Leading zero omitted, Abs format (unit mm)*
G04 Created by KiCad (PCBNEW 0.201601231531+6508~42~ubuntu15.10.1-product) date Sun 24 Jan 2016 05:30:02 PM CET*
%MOMM*%
G01*
G04 APERTURE LIST*
%ADD10C,0.127000*%
%ADD11C,0.150000*%
%ADD12C,0.200000*%
%ADD13C,0.300000*%
G04 APERTURE END LIST*
D10*
D11*
X17729200Y-11379200D02*
X17729200Y-11353800D01*
X12293600Y-11379200D02*
X17729200Y-11379200D01*
X12293600Y-9753600D02*
X12293600Y-11379200D01*
X17729200Y-9753600D02*
X12293600Y-9753600D01*
X17729200Y-9753600D02*
X17729200Y-11353800D01*
D12*
X14006200Y-10555000D02*
X14086200Y-10635000D01*
X14086200Y-10555000D02*
X14006200Y-10635000D01*
X14006200Y-10755000D02*
X14086200Y-10835000D01*
X14086200Y-10755000D02*
X14006200Y-10835000D01*
X17181200Y-10755000D02*
X17261200Y-10835000D01*
X17261200Y-10755000D02*
X17181200Y-10835000D01*
X17381200Y-10755000D02*
X17461200Y-10835000D01*
X17461200Y-10755000D02*
X17381200Y-10835000D01*
X13359638Y-10007600D02*
G75*
G03X13359638Y-10007600I-50038J0D01*
G01*
X13359638Y-11023600D02*
G75*
G03X13359638Y-11023600I-50038J0D01*
G01*
X13664438Y-10007600D02*
G75*
G03X13664438Y-10007600I-50038J0D01*
G01*
X13664438Y-11023600D02*
G75*
G03X13664438Y-11023600I-50038J0D01*
G01*
X14528038Y-10795000D02*
G75*
G03X14528038Y-10795000I-50038J0D01*
G01*
X15544038Y-10795000D02*
G75*
G03X15544038Y-10795000I-50038J0D01*
G01*
X15874238Y-10795000D02*
G75*
G03X15874238Y-10795000I-50038J0D01*
G01*
X16890238Y-10795000D02*
G75*
G03X16890238Y-10795000I-50038J0D01*
G01*
X12547600Y-10261600D02*
X12547600Y-10363200D01*
X12496800Y-10312400D02*
X12598400Y-10312400D01*
X12547600Y-10515600D02*
X12547600Y-10617200D01*
X12496800Y-10566400D02*
X12598400Y-10566400D01*
X12598400Y-10896600D02*
X12598400Y-10998200D01*
X12547600Y-10947400D02*
X12649200Y-10947400D01*
X12852400Y-10896600D02*
X12852400Y-10998200D01*
X12801600Y-10947400D02*
X12903200Y-10947400D01*
X12928600Y-10261600D02*
X12928600Y-10363200D01*
X12877800Y-10312400D02*
X12979400Y-10312400D01*
X12928600Y-10515600D02*
X12928600Y-10617200D01*
X12877800Y-10566400D02*
X12979400Y-10566400D01*
X14823480Y-9923740D02*
X14823480Y-10025340D01*
X14772680Y-9974540D02*
X14874280Y-9974540D01*
X14782680Y-9954220D02*
X14782680Y-9994860D01*
X14864280Y-9954220D02*
X14864280Y-9994860D01*
X14782680Y-9994860D02*
G75*
G03X14864280Y-9994860I40800J0D01*
G01*
X14864280Y-9954220D02*
G75*
G03X14782680Y-9954220I-40800J0D01*
G01*
X14823480Y-10375860D02*
X14823480Y-10477460D01*
X14772680Y-10426660D02*
X14874280Y-10426660D01*
X14782680Y-10406340D02*
X14782680Y-10446980D01*
X14864280Y-10406340D02*
X14864280Y-10446980D01*
X14782680Y-10446980D02*
G75*
G03X14864280Y-10446980I40800J0D01*
G01*
X14864280Y-10406340D02*
G75*
G03X14782680Y-10406340I-40800J0D01*
G01*
X15473720Y-9923740D02*
X15473720Y-10025340D01*
X15422920Y-9974540D02*
X15524520Y-9974540D01*
X15432920Y-9954220D02*
X15432920Y-9994860D01*
X15514520Y-9954220D02*
X15514520Y-9994860D01*
X15432920Y-9994860D02*
G75*
G03X15514520Y-9994860I40800J0D01*
G01*
X15514520Y-9954220D02*
G75*
G03X15432920Y-9954220I-40800J0D01*
G01*
X15473720Y-10375860D02*
X15473720Y-10477460D01*
X15422920Y-10426660D02*
X15524520Y-10426660D01*
X15432920Y-10406340D02*
X15432920Y-10446980D01*
X15514520Y-10406340D02*
X15514520Y-10446980D01*
X15432920Y-10446980D02*
G75*
G03X15514520Y-10446980I40800J0D01*
G01*
X15514520Y-10406340D02*
G75*
G03X15432920Y-10406340I-40800J0D01*
G01*
X16195080Y-9928840D02*
X16195080Y-10030440D01*
X16144280Y-9979640D02*
X16245880Y-9979640D01*
X16154280Y-9959320D02*
X16154280Y-9999960D01*
X16235880Y-9959320D02*
X16235880Y-9999960D01*
X16154280Y-9999960D02*
G75*
G03X16235880Y-9999960I40800J0D01*
G01*
X16235880Y-9959320D02*
G75*
G03X16154280Y-9959320I-40800J0D01*
G01*
X16195080Y-10380960D02*
X16195080Y-10482560D01*
X16144280Y-10431760D02*
X16245880Y-10431760D01*
X16154280Y-10411440D02*
X16154280Y-10452080D01*
X16235880Y-10411440D02*
X16235880Y-10452080D01*
X16154280Y-10452080D02*
G75*
G03X16235880Y-10452080I40800J0D01*
G01*
X16235880Y-10411440D02*
G75*
G03X16154280Y-10411440I-40800J0D01*
G01*
X16845320Y-9928840D02*
X16845320Y-10030440D01*
X16794520Y-9979640D02*
X16896120Y-9979640D01*
X16804520Y-9959320D02*
X16804520Y-9999960D01*
X16886120Y-9959320D02*
X16886120Y-9999960D01*
X16804520Y-9999960D02*
G75*
G03X16886120Y-9999960I40800J0D01*
G01*
X16886120Y-9959320D02*
G75*
G03X16804520Y-9959320I-40800J0D01*
G01*
X16845320Y-10380960D02*
X16845320Y-10482560D01*
X16794520Y-10431760D02*
X16896120Y-10431760D01*
X16804520Y-10411440D02*
X16804520Y-10452080D01*
X16886120Y-10411440D02*
X16886120Y-10452080D01*
X16804520Y-10452080D02*
G75*
G03X16886120Y-10452080I40800J0D01*
G01*
X16886120Y-10411440D02*
G75*
G03X16804520Y-10411440I-40800J0D01*
G01*
X14439389Y-10248389D02*
X14439389Y-10071611D01*
X14262611Y-10071611D01*
X14262611Y-10248389D01*
X14439389Y-10248389D01*
X17436589Y-10273789D02*
X17436589Y-10097011D01*
X17259811Y-10097011D01*
X17259811Y-10273789D01*
X17436589Y-10273789D01*
D13*
X12557528Y-11852414D02*
X12557528Y-11552414D01*
X12628957Y-11552414D01*
X12671814Y-11566700D01*
X12700386Y-11595271D01*
X12714671Y-11623843D01*
X12728957Y-11680986D01*
X12728957Y-11723843D01*
X12714671Y-11780986D01*
X12700386Y-11809557D01*
X12671814Y-11838129D01*
X12628957Y-11852414D01*
X12557528Y-11852414D01*
X12857528Y-11852414D02*
X12857528Y-11652414D01*
X12857528Y-11709557D02*
X12871814Y-11680986D01*
X12886100Y-11666700D01*
X12914671Y-11652414D01*
X12943243Y-11652414D01*
X13043243Y-11852414D02*
X13043243Y-11652414D01*
X13043243Y-11552414D02*
X13028957Y-11566700D01*
X13043243Y-11580986D01*
X13057528Y-11566700D01*
X13043243Y-11552414D01*
X13043243Y-11580986D01*
X13228957Y-11852414D02*
X13200386Y-11838129D01*
X13186100Y-11809557D01*
X13186100Y-11552414D01*
X13386100Y-11852414D02*
X13357528Y-11838129D01*
X13343243Y-11809557D01*
X13343243Y-11552414D01*
X13728957Y-11852414D02*
X13728957Y-11552414D01*
X13828957Y-11766700D01*
X13928957Y-11552414D01*
X13928957Y-11852414D01*
X14200386Y-11852414D02*
X14200386Y-11695271D01*
X14186100Y-11666700D01*
X14157528Y-11652414D01*
X14100386Y-11652414D01*
X14071814Y-11666700D01*
X14200386Y-11838129D02*
X14171814Y-11852414D01*
X14100386Y-11852414D01*
X14071814Y-11838129D01*
X14057528Y-11809557D01*
X14057528Y-11780986D01*
X14071814Y-11752414D01*
X14100386Y-11738129D01*
X14171814Y-11738129D01*
X14200386Y-11723843D01*
X14343243Y-11652414D02*
X14343243Y-11952414D01*
X14343243Y-11666700D02*
X14371814Y-11652414D01*
X14428957Y-11652414D01*
X14457528Y-11666700D01*
X14471814Y-11680986D01*
X14486100Y-11709557D01*
X14486100Y-11795271D01*
X14471814Y-11823843D01*
X14457528Y-11838129D01*
X14428957Y-11852414D01*
X14371814Y-11852414D01*
X14343243Y-11838129D01*
X14614671Y-11823843D02*
X14628957Y-11838129D01*
X14614671Y-11852414D01*
X14600386Y-11838129D01*
X14614671Y-11823843D01*
X14614671Y-11852414D01*
X14614671Y-11666700D02*
X14628957Y-11680986D01*
X14614671Y-11695271D01*
X14600386Y-11680986D01*
X14614671Y-11666700D01*
X14614671Y-11695271D01*
X12206100Y-12306700D02*
X12286100Y-12386700D01*
X12286100Y-12306700D02*
X12206100Y-12386700D01*
X12614671Y-12182414D02*
X12643243Y-12182414D01*
X12671814Y-12196700D01*
X12686100Y-12210986D01*
X12700386Y-12239557D01*
X12714671Y-12296700D01*
X12714671Y-12368129D01*
X12700386Y-12425271D01*
X12686100Y-12453843D01*
X12671814Y-12468129D01*
X12643243Y-12482414D01*
X12614671Y-12482414D01*
X12586100Y-12468129D01*
X12571814Y-12453843D01*
X12557528Y-12425271D01*
X12543243Y-12368129D01*
X12543243Y-12296700D01*
X12557528Y-12239557D01*
X12571814Y-12210986D01*
X12586100Y-12196700D01*
X12614671Y-12182414D01*
X12843243Y-12453843D02*
X12857528Y-12468129D01*
X12843243Y-12482414D01*
X12828957Y-12468129D01*
X12843243Y-12453843D01*
X12843243Y-12482414D01*
X13028957Y-12310986D02*
X13000386Y-12296700D01*
X12986100Y-12282414D01*
X12971814Y-12253843D01*
X12971814Y-12239557D01*
X12986100Y-12210986D01*
X13000386Y-12196700D01*
X13028957Y-12182414D01*
X13086100Y-12182414D01*
X13114671Y-12196700D01*
X13128957Y-12210986D01*
X13143243Y-12239557D01*
X13143243Y-12253843D01*
X13128957Y-12282414D01*
X13114671Y-12296700D01*
X13086100Y-12310986D01*
X13028957Y-12310986D01*
X13000386Y-12325271D01*
X12986100Y-12339557D01*
X12971814Y-12368129D01*
X12971814Y-12425271D01*
X12986100Y-12453843D01*
X13000386Y-12468129D01*
X13028957Y-12482414D01*
X13086100Y-12482414D01*
X13114671Y-12468129D01*
X13128957Y-12453843D01*
X13143243Y-12425271D01*
X13143243Y-12368129D01*
X13128957Y-12339557D01*
X13114671Y-12325271D01*
X13086100Y-12310986D01*
X13328957Y-12182414D02*
X13357528Y-12182414D01*
X13386100Y-12196700D01*
X13400386Y-12210986D01*
X13414671Y-12239557D01*
X13428957Y-12296700D01*
X13428957Y-12368129D01*
X13414671Y-12425271D01*
X13400386Y-12453843D01*
X13386100Y-12468129D01*
X13357528Y-12482414D01*
X13328957Y-12482414D01*
X13300386Y-12468129D01*
X13286100Y-12453843D01*
X13271814Y-12425271D01*
X13257528Y-12368129D01*
X13257528Y-12296700D01*
X13271814Y-12239557D01*
X13286100Y-12210986D01*
X13300386Y-12196700D01*
X13328957Y-12182414D01*
X13557528Y-12482414D02*
X13557528Y-12282414D01*
X13557528Y-12310986D02*
X13571814Y-12296700D01*
X13600386Y-12282414D01*
X13643243Y-12282414D01*
X13671814Y-12296700D01*
X13686100Y-12325271D01*
X13686100Y-12482414D01*
X13686100Y-12325271D02*
X13700386Y-12296700D01*
X13728957Y-12282414D01*
X13771814Y-12282414D01*
X13800386Y-12296700D01*
X13814671Y-12325271D01*
X13814671Y-12482414D01*
X13957528Y-12482414D02*
X13957528Y-12282414D01*
X13957528Y-12310986D02*
X13971814Y-12296700D01*
X14000386Y-12282414D01*
X14043243Y-12282414D01*
X14071814Y-12296700D01*
X14086100Y-12325271D01*
X14086100Y-12482414D01*
X14086100Y-12325271D02*
X14100386Y-12296700D01*
X14128957Y-12282414D01*
X14171814Y-12282414D01*
X14200386Y-12296700D01*
X14214671Y-12325271D01*
X14214671Y-12482414D01*
X14800386Y-12168129D02*
X14543243Y-12553843D01*
X15186100Y-12182414D02*
X15214671Y-12182414D01*
X15243243Y-12196700D01*
X15257528Y-12210986D01*
X15271814Y-12239557D01*
X15286100Y-12296700D01*
X15286100Y-12368129D01*
X15271814Y-12425271D01*
X15257528Y-12453843D01*
X15243243Y-12468129D01*
X15214671Y-12482414D01*
X15186100Y-12482414D01*
X15157528Y-12468129D01*
X15143243Y-12453843D01*
X15128957Y-12425271D01*
X15114671Y-12368129D01*
X15114671Y-12296700D01*
X15128957Y-12239557D01*
X15143243Y-12210986D01*
X15157528Y-12196700D01*
X15186100Y-12182414D01*
X15414671Y-12453843D02*
X15428957Y-12468129D01*
X15414671Y-12482414D01*
X15400386Y-12468129D01*
X15414671Y-12453843D01*
X15414671Y-12482414D01*
X15614671Y-12182414D02*
X15643243Y-12182414D01*
X15671814Y-12196700D01*
X15686100Y-12210986D01*
X15700385Y-12239557D01*
X15714671Y-12296700D01*
X15714671Y-12368129D01*
X15700385Y-12425271D01*
X15686100Y-12453843D01*
X15671814Y-12468129D01*
X15643243Y-12482414D01*
X15614671Y-12482414D01*
X15586100Y-12468129D01*
X15571814Y-12453843D01*
X15557528Y-12425271D01*
X15543243Y-12368129D01*
X15543243Y-12296700D01*
X15557528Y-12239557D01*
X15571814Y-12210986D01*
X15586100Y-12196700D01*
X15614671Y-12182414D01*
X15814671Y-12182414D02*
X16000385Y-12182414D01*
X15900385Y-12296700D01*
X15943243Y-12296700D01*
X15971814Y-12310986D01*
X15986100Y-12325271D01*
X16000385Y-12353843D01*
X16000385Y-12425271D01*
X15986100Y-12453843D01*
X15971814Y-12468129D01*
X15943243Y-12482414D01*
X15857528Y-12482414D01*
X15828957Y-12468129D01*
X15814671Y-12453843D01*
X16286100Y-12482414D02*
X16114671Y-12482414D01*
X16200385Y-12482414D02*
X16200385Y-12182414D01*
X16171814Y-12225271D01*
X16143243Y-12253843D01*
X16114671Y-12268129D01*
X16400386Y-12182414D02*
X16400386Y-12239557D01*
X16514671Y-12182414D02*
X16514671Y-12239557D01*
X16957528Y-12596700D02*
X16943243Y-12582414D01*
X16914671Y-12539557D01*
X16900386Y-12510986D01*
X16886100Y-12468129D01*
X16871814Y-12396700D01*
X16871814Y-12339557D01*
X16886100Y-12268129D01*
X16900386Y-12225271D01*
X16914671Y-12196700D01*
X16943243Y-12153843D01*
X16957528Y-12139557D01*
X17200386Y-12282414D02*
X17200386Y-12482414D01*
X17128957Y-12168129D02*
X17057528Y-12382414D01*
X17243243Y-12382414D01*
X17586100Y-12482414D02*
X17586100Y-12182414D01*
X17714671Y-12482414D02*
X17714671Y-12325271D01*
X17700386Y-12296700D01*
X17671814Y-12282414D01*
X17628957Y-12282414D01*
X17600386Y-12296700D01*
X17586100Y-12310986D01*
X17900386Y-12482414D02*
X17871814Y-12468129D01*
X17857528Y-12453843D01*
X17843243Y-12425271D01*
X17843243Y-12339557D01*
X17857528Y-12310986D01*
X17871814Y-12296700D01*
X17900386Y-12282414D01*
X17943243Y-12282414D01*
X17971814Y-12296700D01*
X17986100Y-12310986D01*
X18000386Y-12339557D01*
X18000386Y-12425271D01*
X17986100Y-12453843D01*
X17971814Y-12468129D01*
X17943243Y-12482414D01*
X17900386Y-12482414D01*
X18171814Y-12482414D02*
X18143243Y-12468129D01*
X18128957Y-12439557D01*
X18128957Y-12182414D01*
X18400386Y-12468129D02*
X18371814Y-12482414D01*
X18314671Y-12482414D01*
X18286100Y-12468129D01*
X18271814Y-12439557D01*
X18271814Y-12325271D01*
X18286100Y-12296700D01*
X18314671Y-12282414D01*
X18371814Y-12282414D01*
X18400386Y-12296700D01*
X18414671Y-12325271D01*
X18414671Y-12353843D01*
X18271814Y-12382414D01*
X18528957Y-12468129D02*
X18557529Y-12482414D01*
X18614671Y-12482414D01*
X18643243Y-12468129D01*
X18657529Y-12439557D01*
X18657529Y-12425271D01*
X18643243Y-12396700D01*
X18614671Y-12382414D01*
X18571814Y-12382414D01*
X18543243Y-12368129D01*
X18528957Y-12339557D01*
X18528957Y-12325271D01*
X18543243Y-12296700D01*
X18571814Y-12282414D01*
X18614671Y-12282414D01*
X18643243Y-12296700D01*
X18757528Y-12596700D02*
X18771814Y-12582414D01*
X18800386Y-12539557D01*
X18814671Y-12510986D01*
X18828957Y-12468129D01*
X18843243Y-12396700D01*
X18843243Y-12339557D01*
X18828957Y-12268129D01*
X18814671Y-12225271D01*
X18800386Y-12196700D01*
X18771814Y-12153843D01*
X18757528Y-12139557D01*
X12286100Y-12742700D02*
G75*
G03X12286100Y-12742700I-50038J0D01*
G01*
X12714671Y-12878414D02*
X12543243Y-12878414D01*
X12628957Y-12878414D02*
X12628957Y-12578414D01*
X12600386Y-12621271D01*
X12571814Y-12649843D01*
X12543243Y-12664129D01*
X12843243Y-12849843D02*
X12857528Y-12864129D01*
X12843243Y-12878414D01*
X12828957Y-12864129D01*
X12843243Y-12849843D01*
X12843243Y-12878414D01*
X13043243Y-12578414D02*
X13071814Y-12578414D01*
X13100386Y-12592700D01*
X13114671Y-12606986D01*
X13128957Y-12635557D01*
X13143243Y-12692700D01*
X13143243Y-12764129D01*
X13128957Y-12821271D01*
X13114671Y-12849843D01*
X13100386Y-12864129D01*
X13071814Y-12878414D01*
X13043243Y-12878414D01*
X13014671Y-12864129D01*
X13000386Y-12849843D01*
X12986100Y-12821271D01*
X12971814Y-12764129D01*
X12971814Y-12692700D01*
X12986100Y-12635557D01*
X13000386Y-12606986D01*
X13014671Y-12592700D01*
X13043243Y-12578414D01*
X13328957Y-12578414D02*
X13357528Y-12578414D01*
X13386100Y-12592700D01*
X13400386Y-12606986D01*
X13414671Y-12635557D01*
X13428957Y-12692700D01*
X13428957Y-12764129D01*
X13414671Y-12821271D01*
X13400386Y-12849843D01*
X13386100Y-12864129D01*
X13357528Y-12878414D01*
X13328957Y-12878414D01*
X13300386Y-12864129D01*
X13286100Y-12849843D01*
X13271814Y-12821271D01*
X13257528Y-12764129D01*
X13257528Y-12692700D01*
X13271814Y-12635557D01*
X13286100Y-12606986D01*
X13300386Y-12592700D01*
X13328957Y-12578414D01*
X13557528Y-12878414D02*
X13557528Y-12678414D01*
X13557528Y-12706986D02*
X13571814Y-12692700D01*
X13600386Y-12678414D01*
X13643243Y-12678414D01*
X13671814Y-12692700D01*
X13686100Y-12721271D01*
X13686100Y-12878414D01*
X13686100Y-12721271D02*
X13700386Y-12692700D01*
X13728957Y-12678414D01*
X13771814Y-12678414D01*
X13800386Y-12692700D01*
X13814671Y-12721271D01*
X13814671Y-12878414D01*
X13957528Y-12878414D02*
X13957528Y-12678414D01*
X13957528Y-12706986D02*
X13971814Y-12692700D01*
X14000386Y-12678414D01*
X14043243Y-12678414D01*
X14071814Y-12692700D01*
X14086100Y-12721271D01*
X14086100Y-12878414D01*
X14086100Y-12721271D02*
X14100386Y-12692700D01*
X14128957Y-12678414D01*
X14171814Y-12678414D01*
X14200386Y-12692700D01*
X14214671Y-12721271D01*
X14214671Y-12878414D01*
X14800386Y-12564129D02*
X14543243Y-12949843D01*
X15186100Y-12578414D02*
X15214671Y-12578414D01*
X15243243Y-12592700D01*
X15257528Y-12606986D01*
X15271814Y-12635557D01*
X15286100Y-12692700D01*
X15286100Y-12764129D01*
X15271814Y-12821271D01*
X15257528Y-12849843D01*
X15243243Y-12864129D01*
X15214671Y-12878414D01*
X15186100Y-12878414D01*
X15157528Y-12864129D01*
X15143243Y-12849843D01*
X15128957Y-12821271D01*
X15114671Y-12764129D01*
X15114671Y-12692700D01*
X15128957Y-12635557D01*
X15143243Y-12606986D01*
X15157528Y-12592700D01*
X15186100Y-12578414D01*
X15414671Y-12849843D02*
X15428957Y-12864129D01*
X15414671Y-12878414D01*
X15400386Y-12864129D01*
X15414671Y-12849843D01*
X15414671Y-12878414D01*
X15614671Y-12578414D02*
X15643243Y-12578414D01*
X15671814Y-12592700D01*
X15686100Y-12606986D01*
X15700385Y-12635557D01*
X15714671Y-12692700D01*
X15714671Y-12764129D01*
X15700385Y-12821271D01*
X15686100Y-12849843D01*
X15671814Y-12864129D01*
X15643243Y-12878414D01*
X15614671Y-12878414D01*
X15586100Y-12864129D01*
X15571814Y-12849843D01*
X15557528Y-12821271D01*
X15543243Y-12764129D01*
X15543243Y-12692700D01*
X15557528Y-12635557D01*
X15571814Y-12606986D01*
X15586100Y-12592700D01*
X15614671Y-12578414D01*
X15814671Y-12578414D02*
X16000385Y-12578414D01*
X15900385Y-12692700D01*
X15943243Y-12692700D01*
X15971814Y-12706986D01*
X15986100Y-12721271D01*
X16000385Y-12749843D01*
X16000385Y-12821271D01*
X15986100Y-12849843D01*
X15971814Y-12864129D01*
X15943243Y-12878414D01*
X15857528Y-12878414D01*
X15828957Y-12864129D01*
X15814671Y-12849843D01*
X16143243Y-12878414D02*
X16200385Y-12878414D01*
X16228957Y-12864129D01*
X16243243Y-12849843D01*
X16271814Y-12806986D01*
X16286100Y-12749843D01*
X16286100Y-12635557D01*
X16271814Y-12606986D01*
X16257528Y-12592700D01*
X16228957Y-12578414D01*
X16171814Y-12578414D01*
X16143243Y-12592700D01*
X16128957Y-12606986D01*
X16114671Y-12635557D01*
X16114671Y-12706986D01*
X16128957Y-12735557D01*
X16143243Y-12749843D01*
X16171814Y-12764129D01*
X16228957Y-12764129D01*
X16257528Y-12749843D01*
X16271814Y-12735557D01*
X16286100Y-12706986D01*
X16400386Y-12578414D02*
X16400386Y-12635557D01*
X16514671Y-12578414D02*
X16514671Y-12635557D01*
X16957528Y-12992700D02*
X16943243Y-12978414D01*
X16914671Y-12935557D01*
X16900386Y-12906986D01*
X16886100Y-12864129D01*
X16871814Y-12792700D01*
X16871814Y-12735557D01*
X16886100Y-12664129D01*
X16900386Y-12621271D01*
X16914671Y-12592700D01*
X16943243Y-12549843D01*
X16957528Y-12535557D01*
X17114671Y-12706986D02*
X17086100Y-12692700D01*
X17071814Y-12678414D01*
X17057528Y-12649843D01*
X17057528Y-12635557D01*
X17071814Y-12606986D01*
X17086100Y-12592700D01*
X17114671Y-12578414D01*
X17171814Y-12578414D01*
X17200386Y-12592700D01*
X17214671Y-12606986D01*
X17228957Y-12635557D01*
X17228957Y-12649843D01*
X17214671Y-12678414D01*
X17200386Y-12692700D01*
X17171814Y-12706986D01*
X17114671Y-12706986D01*
X17086100Y-12721271D01*
X17071814Y-12735557D01*
X17057528Y-12764129D01*
X17057528Y-12821271D01*
X17071814Y-12849843D01*
X17086100Y-12864129D01*
X17114671Y-12878414D01*
X17171814Y-12878414D01*
X17200386Y-12864129D01*
X17214671Y-12849843D01*
X17228957Y-12821271D01*
X17228957Y-12764129D01*
X17214671Y-12735557D01*
X17200386Y-12721271D01*
X17171814Y-12706986D01*
X17586100Y-12878414D02*
X17586100Y-12578414D01*
X17714671Y-12878414D02*
X17714671Y-12721271D01*
X17700386Y-12692700D01*
X17671814Y-12678414D01*
X17628957Y-12678414D01*
X17600386Y-12692700D01*
X17586100Y-12706986D01*
X17900386Y-12878414D02*
X17871814Y-12864129D01*
X17857528Y-12849843D01*
X17843243Y-12821271D01*
X17843243Y-12735557D01*
X17857528Y-12706986D01*
X17871814Y-12692700D01*
X17900386Y-12678414D01*
X17943243Y-12678414D01*
X17971814Y-12692700D01*
X17986100Y-12706986D01*
X18000386Y-12735557D01*
X18000386Y-12821271D01*
X17986100Y-12849843D01*
X17971814Y-12864129D01*
X17943243Y-12878414D01*
X17900386Y-12878414D01*
X18171814Y-12878414D02*
X18143243Y-12864129D01*
X18128957Y-12835557D01*
X18128957Y-12578414D01*
X18400386Y-12864129D02*
X18371814Y-12878414D01*
X18314671Y-12878414D01*
X18286100Y-12864129D01*
X18271814Y-12835557D01*
X18271814Y-12721271D01*
X18286100Y-12692700D01*
X18314671Y-12678414D01*
X18371814Y-12678414D01*
X18400386Y-12692700D01*
X18414671Y-12721271D01*
X18414671Y-12749843D01*
X18271814Y-12778414D01*
X18528957Y-12864129D02*
X18557529Y-12878414D01*
X18614671Y-12878414D01*
X18643243Y-12864129D01*
X18657529Y-12835557D01*
X18657529Y-12821271D01*
X18643243Y-12792700D01*
X18614671Y-12778414D01*
X18571814Y-12778414D01*
X18543243Y-12764129D01*
X18528957Y-12735557D01*
X18528957Y-12721271D01*
X18543243Y-12692700D01*
X18571814Y-12678414D01*
X18614671Y-12678414D01*
X18643243Y-12692700D01*
X18757528Y-12992700D02*
X18771814Y-12978414D01*
X18800386Y-12935557D01*
X18814671Y-12906986D01*
X18828957Y-12864129D01*
X18843243Y-12792700D01*
X18843243Y-12735557D01*
X18828957Y-12664129D01*
X18814671Y-12621271D01*
X18800386Y-12592700D01*
X18771814Y-12549843D01*
X18757528Y-12535557D01*
X12235300Y-13087900D02*
X12235300Y-13189500D01*
X12184500Y-13138700D02*
X12286100Y-13138700D01*
X12714671Y-13274414D02*
X12543243Y-13274414D01*
X12628957Y-13274414D02*
X12628957Y-12974414D01*
X12600386Y-13017271D01*
X12571814Y-13045843D01*
X12543243Y-13060129D01*
X12843243Y-13245843D02*
X12857528Y-13260129D01*
X12843243Y-13274414D01*
X12828957Y-13260129D01*
X12843243Y-13245843D01*
X12843243Y-13274414D01*
X13043243Y-12974414D02*
X13071814Y-12974414D01*
X13100386Y-12988700D01*
X13114671Y-13002986D01*
X13128957Y-13031557D01*
X13143243Y-13088700D01*
X13143243Y-13160129D01*
X13128957Y-13217271D01*
X13114671Y-13245843D01*
X13100386Y-13260129D01*
X13071814Y-13274414D01*
X13043243Y-13274414D01*
X13014671Y-13260129D01*
X13000386Y-13245843D01*
X12986100Y-13217271D01*
X12971814Y-13160129D01*
X12971814Y-13088700D01*
X12986100Y-13031557D01*
X13000386Y-13002986D01*
X13014671Y-12988700D01*
X13043243Y-12974414D01*
X13257528Y-13002986D02*
X13271814Y-12988700D01*
X13300386Y-12974414D01*
X13371814Y-12974414D01*
X13400386Y-12988700D01*
X13414671Y-13002986D01*
X13428957Y-13031557D01*
X13428957Y-13060129D01*
X13414671Y-13102986D01*
X13243243Y-13274414D01*
X13428957Y-13274414D01*
X13557528Y-13274414D02*
X13557528Y-13074414D01*
X13557528Y-13102986D02*
X13571814Y-13088700D01*
X13600386Y-13074414D01*
X13643243Y-13074414D01*
X13671814Y-13088700D01*
X13686100Y-13117271D01*
X13686100Y-13274414D01*
X13686100Y-13117271D02*
X13700386Y-13088700D01*
X13728957Y-13074414D01*
X13771814Y-13074414D01*
X13800386Y-13088700D01*
X13814671Y-13117271D01*
X13814671Y-13274414D01*
X13957528Y-13274414D02*
X13957528Y-13074414D01*
X13957528Y-13102986D02*
X13971814Y-13088700D01*
X14000386Y-13074414D01*
X14043243Y-13074414D01*
X14071814Y-13088700D01*
X14086100Y-13117271D01*
X14086100Y-13274414D01*
X14086100Y-13117271D02*
X14100386Y-13088700D01*
X14128957Y-13074414D01*
X14171814Y-13074414D01*
X14200386Y-13088700D01*
X14214671Y-13117271D01*
X14214671Y-13274414D01*
X14800386Y-12960129D02*
X14543243Y-13345843D01*
X15186100Y-12974414D02*
X15214671Y-12974414D01*
X15243243Y-12988700D01*
X15257528Y-13002986D01*
X15271814Y-13031557D01*
X15286100Y-13088700D01*
X15286100Y-13160129D01*
X15271814Y-13217271D01*
X15257528Y-13245843D01*
X15243243Y-13260129D01*
X15214671Y-13274414D01*
X15186100Y-13274414D01*
X15157528Y-13260129D01*
X15143243Y-13245843D01*
X15128957Y-13217271D01*
X15114671Y-13160129D01*
X15114671Y-13088700D01*
X15128957Y-13031557D01*
X15143243Y-13002986D01*
X15157528Y-12988700D01*
X15186100Y-12974414D01*
X15414671Y-13245843D02*
X15428957Y-13260129D01*
X15414671Y-13274414D01*
X15400386Y-13260129D01*
X15414671Y-13245843D01*
X15414671Y-13274414D01*
X15614671Y-12974414D02*
X15643243Y-12974414D01*
X15671814Y-12988700D01*
X15686100Y-13002986D01*
X15700385Y-13031557D01*
X15714671Y-13088700D01*
X15714671Y-13160129D01*
X15700385Y-13217271D01*
X15686100Y-13245843D01*
X15671814Y-13260129D01*
X15643243Y-13274414D01*
X15614671Y-13274414D01*
X15586100Y-13260129D01*
X15571814Y-13245843D01*
X15557528Y-13217271D01*
X15543243Y-13160129D01*
X15543243Y-13088700D01*
X15557528Y-13031557D01*
X15571814Y-13002986D01*
X15586100Y-12988700D01*
X15614671Y-12974414D01*
X15971814Y-13074414D02*
X15971814Y-13274414D01*
X15900385Y-12960129D02*
X15828957Y-13174414D01*
X16014671Y-13174414D01*
X16186100Y-12974414D02*
X16214671Y-12974414D01*
X16243243Y-12988700D01*
X16257528Y-13002986D01*
X16271814Y-13031557D01*
X16286100Y-13088700D01*
X16286100Y-13160129D01*
X16271814Y-13217271D01*
X16257528Y-13245843D01*
X16243243Y-13260129D01*
X16214671Y-13274414D01*
X16186100Y-13274414D01*
X16157528Y-13260129D01*
X16143243Y-13245843D01*
X16128957Y-13217271D01*
X16114671Y-13160129D01*
X16114671Y-13088700D01*
X16128957Y-13031557D01*
X16143243Y-13002986D01*
X16157528Y-12988700D01*
X16186100Y-12974414D01*
X16400386Y-12974414D02*
X16400386Y-13031557D01*
X16514671Y-12974414D02*
X16514671Y-13031557D01*
X16957528Y-13388700D02*
X16943243Y-13374414D01*
X16914671Y-13331557D01*
X16900386Y-13302986D01*
X16886100Y-13260129D01*
X16871814Y-13188700D01*
X16871814Y-13131557D01*
X16886100Y-13060129D01*
X16900386Y-13017271D01*
X16914671Y-12988700D01*
X16943243Y-12945843D01*
X16957528Y-12931557D01*
X17200386Y-12974414D02*
X17143243Y-12974414D01*
X17114671Y-12988700D01*
X17100386Y-13002986D01*
X17071814Y-13045843D01*
X17057528Y-13102986D01*
X17057528Y-13217271D01*
X17071814Y-13245843D01*
X17086100Y-13260129D01*
X17114671Y-13274414D01*
X17171814Y-13274414D01*
X17200386Y-13260129D01*
X17214671Y-13245843D01*
X17228957Y-13217271D01*
X17228957Y-13145843D01*
X17214671Y-13117271D01*
X17200386Y-13102986D01*
X17171814Y-13088700D01*
X17114671Y-13088700D01*
X17086100Y-13102986D01*
X17071814Y-13117271D01*
X17057528Y-13145843D01*
X17586100Y-13274414D02*
X17586100Y-12974414D01*
X17714671Y-13274414D02*
X17714671Y-13117271D01*
X17700386Y-13088700D01*
X17671814Y-13074414D01*
X17628957Y-13074414D01*
X17600386Y-13088700D01*
X17586100Y-13102986D01*
X17900386Y-13274414D02*
X17871814Y-13260129D01*
X17857528Y-13245843D01*
X17843243Y-13217271D01*
X17843243Y-13131557D01*
X17857528Y-13102986D01*
X17871814Y-13088700D01*
X17900386Y-13074414D01*
X17943243Y-13074414D01*
X17971814Y-13088700D01*
X17986100Y-13102986D01*
X18000386Y-13131557D01*
X18000386Y-13217271D01*
X17986100Y-13245843D01*
X17971814Y-13260129D01*
X17943243Y-13274414D01*
X17900386Y-13274414D01*
X18171814Y-13274414D02*
X18143243Y-13260129D01*
X18128957Y-13231557D01*
X18128957Y-12974414D01*
X18400386Y-13260129D02*
X18371814Y-13274414D01*
X18314671Y-13274414D01*
X18286100Y-13260129D01*
X18271814Y-13231557D01*
X18271814Y-13117271D01*
X18286100Y-13088700D01*
X18314671Y-13074414D01*
X18371814Y-13074414D01*
X18400386Y-13088700D01*
X18414671Y-13117271D01*
X18414671Y-13145843D01*
X18271814Y-13174414D01*
X18528957Y-13260129D02*
X18557529Y-13274414D01*
X18614671Y-13274414D01*
X18643243Y-13260129D01*
X18657529Y-13231557D01*
X18657529Y-13217271D01*
X18643243Y-13188700D01*
X18614671Y-13174414D01*
X18571814Y-13174414D01*
X18543243Y-13160129D01*
X18528957Y-13131557D01*
X18528957Y-13117271D01*
X18543243Y-13088700D01*
X18571814Y-13074414D01*
X18614671Y-13074414D01*
X18643243Y-13088700D01*
X19014671Y-13160129D02*
X19243243Y-13160129D01*
X19128957Y-13274414D02*
X19128957Y-13045843D01*
X19657528Y-13102986D02*
X19628957Y-13088700D01*
X19614671Y-13074414D01*
X19600386Y-13045843D01*
X19600386Y-13031557D01*
X19614671Y-13002986D01*
X19628957Y-12988700D01*
X19657528Y-12974414D01*
X19714671Y-12974414D01*
X19743243Y-12988700D01*
X19757528Y-13002986D01*
X19771814Y-13031557D01*
X19771814Y-13045843D01*
X19757528Y-13074414D01*
X19743243Y-13088700D01*
X19714671Y-13102986D01*
X19657528Y-13102986D01*
X19628957Y-13117271D01*
X19614671Y-13131557D01*
X19600386Y-13160129D01*
X19600386Y-13217271D01*
X19614671Y-13245843D01*
X19628957Y-13260129D01*
X19657528Y-13274414D01*
X19714671Y-13274414D01*
X19743243Y-13260129D01*
X19757528Y-13245843D01*
X19771814Y-13217271D01*
X19771814Y-13160129D01*
X19757528Y-13131557D01*
X19743243Y-13117271D01*
X19714671Y-13102986D01*
X20114671Y-13260129D02*
X20143243Y-13274414D01*
X20200386Y-13274414D01*
X20228957Y-13260129D01*
X20243243Y-13231557D01*
X20243243Y-13217271D01*
X20228957Y-13188700D01*
X20200386Y-13174414D01*
X20157528Y-13174414D01*
X20128957Y-13160129D01*
X20114671Y-13131557D01*
X20114671Y-13117271D01*
X20128957Y-13088700D01*
X20157528Y-13074414D01*
X20200386Y-13074414D01*
X20228957Y-13088700D01*
X20414671Y-13274414D02*
X20386100Y-13260129D01*
X20371814Y-13231557D01*
X20371814Y-12974414D01*
X20571814Y-13274414D02*
X20543243Y-13260129D01*
X20528957Y-13245843D01*
X20514671Y-13217271D01*
X20514671Y-13131557D01*
X20528957Y-13102986D01*
X20543243Y-13088700D01*
X20571814Y-13074414D01*
X20614671Y-13074414D01*
X20643243Y-13088700D01*
X20657528Y-13102986D01*
X20671814Y-13131557D01*
X20671814Y-13217271D01*
X20657528Y-13245843D01*
X20643243Y-13260129D01*
X20614671Y-13274414D01*
X20571814Y-13274414D01*
X20757528Y-13074414D02*
X20871814Y-13074414D01*
X20800386Y-12974414D02*
X20800386Y-13231557D01*
X20814671Y-13260129D01*
X20843243Y-13274414D01*
X20871814Y-13274414D01*
X20957529Y-13260129D02*
X20986100Y-13274414D01*
X21043243Y-13274414D01*
X21071814Y-13260129D01*
X21086100Y-13231557D01*
X21086100Y-13217271D01*
X21071814Y-13188700D01*
X21043243Y-13174414D01*
X21000386Y-13174414D01*
X20971814Y-13160129D01*
X20957529Y-13131557D01*
X20957529Y-13117271D01*
X20971814Y-13088700D01*
X21000386Y-13074414D01*
X21043243Y-13074414D01*
X21071814Y-13088700D01*
X21186100Y-13388700D02*
X21200386Y-13374414D01*
X21228957Y-13331557D01*
X21243243Y-13302986D01*
X21257528Y-13260129D01*
X21271814Y-13188700D01*
X21271814Y-13131557D01*
X21257528Y-13060129D01*
X21243243Y-13017271D01*
X21228957Y-12988700D01*
X21200386Y-12945843D01*
X21186100Y-12931557D01*
X12249489Y-13623089D02*
X12249489Y-13446311D01*
X12072711Y-13446311D01*
X12072711Y-13623089D01*
X12249489Y-13623089D01*
X12543243Y-13398986D02*
X12557528Y-13384700D01*
X12586100Y-13370414D01*
X12657528Y-13370414D01*
X12686100Y-13384700D01*
X12700386Y-13398986D01*
X12714671Y-13427557D01*
X12714671Y-13456129D01*
X12700386Y-13498986D01*
X12528957Y-13670414D01*
X12714671Y-13670414D01*
X12843243Y-13641843D02*
X12857528Y-13656129D01*
X12843243Y-13670414D01*
X12828957Y-13656129D01*
X12843243Y-13641843D01*
X12843243Y-13670414D01*
X13128957Y-13370414D02*
X12986100Y-13370414D01*
X12971814Y-13513271D01*
X12986100Y-13498986D01*
X13014671Y-13484700D01*
X13086100Y-13484700D01*
X13114671Y-13498986D01*
X13128957Y-13513271D01*
X13143243Y-13541843D01*
X13143243Y-13613271D01*
X13128957Y-13641843D01*
X13114671Y-13656129D01*
X13086100Y-13670414D01*
X13014671Y-13670414D01*
X12986100Y-13656129D01*
X12971814Y-13641843D01*
X13328957Y-13370414D02*
X13357528Y-13370414D01*
X13386100Y-13384700D01*
X13400386Y-13398986D01*
X13414671Y-13427557D01*
X13428957Y-13484700D01*
X13428957Y-13556129D01*
X13414671Y-13613271D01*
X13400386Y-13641843D01*
X13386100Y-13656129D01*
X13357528Y-13670414D01*
X13328957Y-13670414D01*
X13300386Y-13656129D01*
X13286100Y-13641843D01*
X13271814Y-13613271D01*
X13257528Y-13556129D01*
X13257528Y-13484700D01*
X13271814Y-13427557D01*
X13286100Y-13398986D01*
X13300386Y-13384700D01*
X13328957Y-13370414D01*
X13557528Y-13670414D02*
X13557528Y-13470414D01*
X13557528Y-13498986D02*
X13571814Y-13484700D01*
X13600386Y-13470414D01*
X13643243Y-13470414D01*
X13671814Y-13484700D01*
X13686100Y-13513271D01*
X13686100Y-13670414D01*
X13686100Y-13513271D02*
X13700386Y-13484700D01*
X13728957Y-13470414D01*
X13771814Y-13470414D01*
X13800386Y-13484700D01*
X13814671Y-13513271D01*
X13814671Y-13670414D01*
X13957528Y-13670414D02*
X13957528Y-13470414D01*
X13957528Y-13498986D02*
X13971814Y-13484700D01*
X14000386Y-13470414D01*
X14043243Y-13470414D01*
X14071814Y-13484700D01*
X14086100Y-13513271D01*
X14086100Y-13670414D01*
X14086100Y-13513271D02*
X14100386Y-13484700D01*
X14128957Y-13470414D01*
X14171814Y-13470414D01*
X14200386Y-13484700D01*
X14214671Y-13513271D01*
X14214671Y-13670414D01*
X14800386Y-13356129D02*
X14543243Y-13741843D01*
X15186100Y-13370414D02*
X15214671Y-13370414D01*
X15243243Y-13384700D01*
X15257528Y-13398986D01*
X15271814Y-13427557D01*
X15286100Y-13484700D01*
X15286100Y-13556129D01*
X15271814Y-13613271D01*
X15257528Y-13641843D01*
X15243243Y-13656129D01*
X15214671Y-13670414D01*
X15186100Y-13670414D01*
X15157528Y-13656129D01*
X15143243Y-13641843D01*
X15128957Y-13613271D01*
X15114671Y-13556129D01*
X15114671Y-13484700D01*
X15128957Y-13427557D01*
X15143243Y-13398986D01*
X15157528Y-13384700D01*
X15186100Y-13370414D01*
X15414671Y-13641843D02*
X15428957Y-13656129D01*
X15414671Y-13670414D01*
X15400386Y-13656129D01*
X15414671Y-13641843D01*
X15414671Y-13670414D01*
X15614671Y-13370414D02*
X15643243Y-13370414D01*
X15671814Y-13384700D01*
X15686100Y-13398986D01*
X15700385Y-13427557D01*
X15714671Y-13484700D01*
X15714671Y-13556129D01*
X15700385Y-13613271D01*
X15686100Y-13641843D01*
X15671814Y-13656129D01*
X15643243Y-13670414D01*
X15614671Y-13670414D01*
X15586100Y-13656129D01*
X15571814Y-13641843D01*
X15557528Y-13613271D01*
X15543243Y-13556129D01*
X15543243Y-13484700D01*
X15557528Y-13427557D01*
X15571814Y-13398986D01*
X15586100Y-13384700D01*
X15614671Y-13370414D01*
X15857528Y-13670414D02*
X15914671Y-13670414D01*
X15943243Y-13656129D01*
X15957528Y-13641843D01*
X15986100Y-13598986D01*
X16000385Y-13541843D01*
X16000385Y-13427557D01*
X15986100Y-13398986D01*
X15971814Y-13384700D01*
X15943243Y-13370414D01*
X15886100Y-13370414D01*
X15857528Y-13384700D01*
X15843243Y-13398986D01*
X15828957Y-13427557D01*
X15828957Y-13498986D01*
X15843243Y-13527557D01*
X15857528Y-13541843D01*
X15886100Y-13556129D01*
X15943243Y-13556129D01*
X15971814Y-13541843D01*
X15986100Y-13527557D01*
X16000385Y-13498986D01*
X16171814Y-13498986D02*
X16143243Y-13484700D01*
X16128957Y-13470414D01*
X16114671Y-13441843D01*
X16114671Y-13427557D01*
X16128957Y-13398986D01*
X16143243Y-13384700D01*
X16171814Y-13370414D01*
X16228957Y-13370414D01*
X16257528Y-13384700D01*
X16271814Y-13398986D01*
X16286100Y-13427557D01*
X16286100Y-13441843D01*
X16271814Y-13470414D01*
X16257528Y-13484700D01*
X16228957Y-13498986D01*
X16171814Y-13498986D01*
X16143243Y-13513271D01*
X16128957Y-13527557D01*
X16114671Y-13556129D01*
X16114671Y-13613271D01*
X16128957Y-13641843D01*
X16143243Y-13656129D01*
X16171814Y-13670414D01*
X16228957Y-13670414D01*
X16257528Y-13656129D01*
X16271814Y-13641843D01*
X16286100Y-13613271D01*
X16286100Y-13556129D01*
X16271814Y-13527557D01*
X16257528Y-13513271D01*
X16228957Y-13498986D01*
X16400386Y-13370414D02*
X16400386Y-13427557D01*
X16514671Y-13370414D02*
X16514671Y-13427557D01*
X16957528Y-13784700D02*
X16943243Y-13770414D01*
X16914671Y-13727557D01*
X16900386Y-13698986D01*
X16886100Y-13656129D01*
X16871814Y-13584700D01*
X16871814Y-13527557D01*
X16886100Y-13456129D01*
X16900386Y-13413271D01*
X16914671Y-13384700D01*
X16943243Y-13341843D01*
X16957528Y-13327557D01*
X17057528Y-13398986D02*
X17071814Y-13384700D01*
X17100386Y-13370414D01*
X17171814Y-13370414D01*
X17200386Y-13384700D01*
X17214671Y-13398986D01*
X17228957Y-13427557D01*
X17228957Y-13456129D01*
X17214671Y-13498986D01*
X17043243Y-13670414D01*
X17228957Y-13670414D01*
X17586100Y-13670414D02*
X17586100Y-13370414D01*
X17714671Y-13670414D02*
X17714671Y-13513271D01*
X17700386Y-13484700D01*
X17671814Y-13470414D01*
X17628957Y-13470414D01*
X17600386Y-13484700D01*
X17586100Y-13498986D01*
X17900386Y-13670414D02*
X17871814Y-13656129D01*
X17857528Y-13641843D01*
X17843243Y-13613271D01*
X17843243Y-13527557D01*
X17857528Y-13498986D01*
X17871814Y-13484700D01*
X17900386Y-13470414D01*
X17943243Y-13470414D01*
X17971814Y-13484700D01*
X17986100Y-13498986D01*
X18000386Y-13527557D01*
X18000386Y-13613271D01*
X17986100Y-13641843D01*
X17971814Y-13656129D01*
X17943243Y-13670414D01*
X17900386Y-13670414D01*
X18171814Y-13670414D02*
X18143243Y-13656129D01*
X18128957Y-13627557D01*
X18128957Y-13370414D01*
X18400386Y-13656129D02*
X18371814Y-13670414D01*
X18314671Y-13670414D01*
X18286100Y-13656129D01*
X18271814Y-13627557D01*
X18271814Y-13513271D01*
X18286100Y-13484700D01*
X18314671Y-13470414D01*
X18371814Y-13470414D01*
X18400386Y-13484700D01*
X18414671Y-13513271D01*
X18414671Y-13541843D01*
X18271814Y-13570414D01*
X18528957Y-13656129D02*
X18557529Y-13670414D01*
X18614671Y-13670414D01*
X18643243Y-13656129D01*
X18657529Y-13627557D01*
X18657529Y-13613271D01*
X18643243Y-13584700D01*
X18614671Y-13570414D01*
X18571814Y-13570414D01*
X18543243Y-13556129D01*
X18528957Y-13527557D01*
X18528957Y-13513271D01*
X18543243Y-13484700D01*
X18571814Y-13470414D01*
X18614671Y-13470414D01*
X18643243Y-13484700D01*
X18757528Y-13784700D02*
X18771814Y-13770414D01*
X18800386Y-13727557D01*
X18814671Y-13698986D01*
X18828957Y-13656129D01*
X18843243Y-13584700D01*
X18843243Y-13527557D01*
X18828957Y-13456129D01*
X18814671Y-13413271D01*
X18800386Y-13384700D01*
X18771814Y-13341843D01*
X18757528Y-13327557D01*
M02*
