M48
;DRILL file {KiCad 0.201601231531+6508~42~ubuntu15.10.1-product} date Sun 24 Jan 2016 05:30:01 PM CET
;FORMAT={3:3/ absolute / metric / suppress leading zeros}
FMAT,2
METRIC,TZ
T1C0.800
T2C1.001
T3C1.016
T4C2.500
%
G90
G05
M71
T1
X140462Y-105950
X140462Y-107950
X172212Y-107950
X174212Y-107950
T2
X133096Y-100076
X133096Y-110236
X136144Y-100076
X136144Y-110236
X144780Y-107950
X154940Y-107950
X158242Y-107950
X168402Y-107950
T3
X125476Y-103124
X125476Y-105664
X125984Y-109474
X128524Y-109474
X129286Y-103124
X129286Y-105664
T4
X143510Y-101600
X173482Y-101854
T3
X148235Y-99542G85X148235Y-99949
G05
X148235Y-104063G85X148235Y-104470
G05
X154737Y-99542G85X154737Y-99949
G05
X154737Y-104063G85X154737Y-104470
G05
X161951Y-99593G85X161951Y-100000
G05
X161951Y-104114G85X161951Y-104521
G05
X168453Y-99593G85X168453Y-100000
G05
X168453Y-104114G85X168453Y-104521
G05
T0
M30
