M48
;DRILL file {KiCad no-vcs-found-undefined} date Tue Oct 25 22:05:39 2016
;FORMAT={3:3/ absolute / metric / suppress leading zeros}
FMAT,2
METRIC,TZ
T1C0.700
T2C1.000
T3C1.100
%
G90
G05
M71
T1
X83566Y-90170
X91186Y-90170
X92456Y-76708
X92456Y-85852
X112522Y-93726
X120142Y-93726
X125730Y-76708
X125730Y-85852
X134620Y-93726
X142240Y-93726
X147828Y-76708
X147828Y-85852
X152908Y-113604
X152908Y-133604
X152908Y-135641
X152908Y-139446
X156464Y-93726
X158496Y-113604
X158496Y-133604
X158496Y-135641
X158496Y-139446
X164084Y-93726
X164084Y-113604
X164084Y-133604
X164084Y-135641
X164084Y-139446
X169672Y-113604
X169672Y-133604
X169672Y-135641
X169672Y-139446
X170180Y-76708
X170180Y-85852
X175260Y-113604
X175260Y-133604
X175260Y-135641
X175260Y-139446
X177546Y-93726
X180848Y-113604
X180848Y-133604
X180848Y-135636
X180848Y-139441
X185166Y-93726
X192278Y-76708
X192278Y-85852
X210566Y-92329
X210566Y-125984
X210566Y-128524
X210566Y-131064
X210566Y-133604
X212090Y-113284
X212090Y-120904
X214630Y-115824
X214630Y-123444
X218186Y-92329
X218186Y-125984
X218186Y-128524
X218186Y-131064
X218186Y-133604
T2
X70866Y-86614
X73406Y-86614
X81088Y-85852
X83566Y-95504
X83566Y-98041
X83566Y-100541
X83566Y-103041
X83566Y-105541
X83566Y-108041
X83588Y-85852
X86128Y-85852
X115088Y-85852
X117588Y-85852
X120128Y-85852
X137128Y-85852
X139628Y-85852
X142168Y-85852
X159128Y-85852
X161628Y-85852
X164168Y-85852
X180088Y-85852
X182588Y-85852
X185128Y-85852
X208026Y-120988
X208026Y-123524
X208026Y-126024
X208026Y-128524
X208026Y-131024
X208026Y-133524
X213128Y-85852
X215628Y-85852
X218168Y-85852
X225298Y-105450
X225298Y-107950
X225298Y-110490
X225298Y-117896
X225298Y-120396
X225298Y-122936
X225298Y-130342
X225298Y-132842
X225298Y-135382
T3
X230124Y-83566
X230124Y-88646
X230124Y-93726
X230124Y-98806
T0
M30
