G04 #@! TF.FileFunction,Copper,L2,Bot,Signal*
%FSLAX46Y46*%
G04 Gerber Fmt 4.6, Leading zero omitted, Abs format (unit mm)*
G04 Created by KiCad (PCBNEW no-vcs-found-undefined) date Mon Oct 24 12:18:55 2016*
%MOMM*%
%LPD*%
G01*
G04 APERTURE LIST*
%ADD10C,0.050000*%
%ADD11C,0.300000*%
%ADD12R,1.300000X1.300000*%
%ADD13C,1.300000*%
%ADD14C,2.000000*%
%ADD15R,2.000000X2.000000*%
%ADD16O,2.032000X2.032000*%
%ADD17R,2.032000X2.032000*%
%ADD18C,3.810000*%
%ADD19R,3.810000X3.810000*%
%ADD20C,2.000000*%
%ADD21C,4.000000*%
%ADD22C,1.000000*%
G04 APERTURE END LIST*
D10*
D11*
X114921428Y-123863571D02*
X114921428Y-122363571D01*
X114350000Y-122363571D01*
X114207142Y-122435000D01*
X114135714Y-122506428D01*
X114064285Y-122649285D01*
X114064285Y-122863571D01*
X114135714Y-123006428D01*
X114207142Y-123077857D01*
X114350000Y-123149285D01*
X114921428Y-123149285D01*
X113564285Y-122863571D02*
X113207142Y-123863571D01*
X112850000Y-122863571D02*
X113207142Y-123863571D01*
X113350000Y-124220714D01*
X113421428Y-124292142D01*
X113564285Y-124363571D01*
X111492857Y-122435000D02*
X111635714Y-122363571D01*
X111850000Y-122363571D01*
X112064285Y-122435000D01*
X112207142Y-122577857D01*
X112278571Y-122720714D01*
X112350000Y-123006428D01*
X112350000Y-123220714D01*
X112278571Y-123506428D01*
X112207142Y-123649285D01*
X112064285Y-123792142D01*
X111850000Y-123863571D01*
X111707142Y-123863571D01*
X111492857Y-123792142D01*
X111421428Y-123720714D01*
X111421428Y-123220714D01*
X111707142Y-123220714D01*
X110135714Y-122863571D02*
X110135714Y-123863571D01*
X110778571Y-122863571D02*
X110778571Y-123649285D01*
X110707142Y-123792142D01*
X110564285Y-123863571D01*
X110350000Y-123863571D01*
X110207142Y-123792142D01*
X110135714Y-123720714D01*
X109421428Y-123863571D02*
X109421428Y-122863571D01*
X109421428Y-122363571D02*
X109492857Y-122435000D01*
X109421428Y-122506428D01*
X109350000Y-122435000D01*
X109421428Y-122363571D01*
X109421428Y-122506428D01*
X108921428Y-122863571D02*
X108350000Y-122863571D01*
X108707142Y-122363571D02*
X108707142Y-123649285D01*
X108635714Y-123792142D01*
X108492857Y-123863571D01*
X108350000Y-123863571D01*
X107207142Y-123863571D02*
X107207142Y-123077857D01*
X107278571Y-122935000D01*
X107421428Y-122863571D01*
X107707142Y-122863571D01*
X107850000Y-122935000D01*
X107207142Y-123792142D02*
X107350000Y-123863571D01*
X107707142Y-123863571D01*
X107850000Y-123792142D01*
X107921428Y-123649285D01*
X107921428Y-123506428D01*
X107850000Y-123363571D01*
X107707142Y-123292142D01*
X107350000Y-123292142D01*
X107207142Y-123220714D01*
X106492857Y-123863571D02*
X106492857Y-122863571D01*
X106492857Y-123149285D02*
X106421428Y-123006428D01*
X106350000Y-122935000D01*
X106207142Y-122863571D01*
X106064285Y-122863571D01*
X104421428Y-123863571D02*
X104421428Y-122363571D01*
X103850000Y-122363571D01*
X103707142Y-122435000D01*
X103635714Y-122506428D01*
X103564285Y-122649285D01*
X103564285Y-122863571D01*
X103635714Y-123006428D01*
X103707142Y-123077857D01*
X103850000Y-123149285D01*
X104421428Y-123149285D01*
X102350000Y-123792142D02*
X102492857Y-123863571D01*
X102778571Y-123863571D01*
X102921428Y-123792142D01*
X102992857Y-123649285D01*
X102992857Y-123077857D01*
X102921428Y-122935000D01*
X102778571Y-122863571D01*
X102492857Y-122863571D01*
X102350000Y-122935000D01*
X102278571Y-123077857D01*
X102278571Y-123220714D01*
X102992857Y-123363571D01*
X101635714Y-123863571D02*
X101635714Y-122863571D01*
X101635714Y-123149285D02*
X101564285Y-123006428D01*
X101492857Y-122935000D01*
X101350000Y-122863571D01*
X101207142Y-122863571D01*
X100707142Y-123863571D02*
X100707142Y-122863571D01*
X100707142Y-122363571D02*
X100778571Y-122435000D01*
X100707142Y-122506428D01*
X100635714Y-122435000D01*
X100707142Y-122363571D01*
X100707142Y-122506428D01*
X99992857Y-122863571D02*
X99992857Y-124363571D01*
X99992857Y-122935000D02*
X99850000Y-122863571D01*
X99564285Y-122863571D01*
X99421428Y-122935000D01*
X99350000Y-123006428D01*
X99278571Y-123149285D01*
X99278571Y-123577857D01*
X99350000Y-123720714D01*
X99421428Y-123792142D01*
X99564285Y-123863571D01*
X99850000Y-123863571D01*
X99992857Y-123792142D01*
X98635714Y-123863571D02*
X98635714Y-122363571D01*
X97992857Y-123863571D02*
X97992857Y-123077857D01*
X98064285Y-122935000D01*
X98207142Y-122863571D01*
X98421428Y-122863571D01*
X98564285Y-122935000D01*
X98635714Y-123006428D01*
X96707142Y-123792142D02*
X96850000Y-123863571D01*
X97135714Y-123863571D01*
X97278571Y-123792142D01*
X97350000Y-123649285D01*
X97350000Y-123077857D01*
X97278571Y-122935000D01*
X97135714Y-122863571D01*
X96850000Y-122863571D01*
X96707142Y-122935000D01*
X96635714Y-123077857D01*
X96635714Y-123220714D01*
X97350000Y-123363571D01*
X95992857Y-123863571D02*
X95992857Y-122863571D01*
X95992857Y-123149285D02*
X95921428Y-123006428D01*
X95850000Y-122935000D01*
X95707142Y-122863571D01*
X95564285Y-122863571D01*
X94421428Y-123863571D02*
X94421428Y-123077857D01*
X94492857Y-122935000D01*
X94635714Y-122863571D01*
X94921428Y-122863571D01*
X95064285Y-122935000D01*
X94421428Y-123792142D02*
X94564285Y-123863571D01*
X94921428Y-123863571D01*
X95064285Y-123792142D01*
X95135714Y-123649285D01*
X95135714Y-123506428D01*
X95064285Y-123363571D01*
X94921428Y-123292142D01*
X94564285Y-123292142D01*
X94421428Y-123220714D01*
X93492857Y-123863571D02*
X93635714Y-123792142D01*
X93707142Y-123649285D01*
X93707142Y-122363571D01*
X92992857Y-123792142D02*
X92850000Y-123863571D01*
X92564285Y-123863571D01*
X92421428Y-123792142D01*
X92350000Y-123649285D01*
X92350000Y-123577857D01*
X92421428Y-123435000D01*
X92564285Y-123363571D01*
X92778571Y-123363571D01*
X92921428Y-123292142D01*
X92992857Y-123149285D01*
X92992857Y-123077857D01*
X92921428Y-122935000D01*
X92778571Y-122863571D01*
X92564285Y-122863571D01*
X92421428Y-122935000D01*
X89350000Y-123863571D02*
X89421428Y-123863571D01*
X89564285Y-123792142D01*
X89778571Y-123577857D01*
X90135714Y-123149285D01*
X90278571Y-122935000D01*
X90350000Y-122720714D01*
X90350000Y-122577857D01*
X90278571Y-122435000D01*
X90135714Y-122363571D01*
X90064285Y-122363571D01*
X89921428Y-122435000D01*
X89850000Y-122577857D01*
X89850000Y-122649285D01*
X89921428Y-122792142D01*
X89992857Y-122863571D01*
X90421428Y-123149285D01*
X90492857Y-123220714D01*
X90564285Y-123363571D01*
X90564285Y-123577857D01*
X90492857Y-123720714D01*
X90421428Y-123792142D01*
X90278571Y-123863571D01*
X90064285Y-123863571D01*
X89921428Y-123792142D01*
X89850000Y-123720714D01*
X89635714Y-123435000D01*
X89564285Y-123220714D01*
X89564285Y-123077857D01*
X115421428Y-126413571D02*
X115421428Y-124913571D01*
X114850000Y-124913571D01*
X114707142Y-124985000D01*
X114635714Y-125056428D01*
X114564285Y-125199285D01*
X114564285Y-125413571D01*
X114635714Y-125556428D01*
X114707142Y-125627857D01*
X114850000Y-125699285D01*
X115421428Y-125699285D01*
X113707142Y-126413571D02*
X113850000Y-126342142D01*
X113921428Y-126270714D01*
X113992857Y-126127857D01*
X113992857Y-125699285D01*
X113921428Y-125556428D01*
X113850000Y-125485000D01*
X113707142Y-125413571D01*
X113492857Y-125413571D01*
X113350000Y-125485000D01*
X113278571Y-125556428D01*
X113207142Y-125699285D01*
X113207142Y-126127857D01*
X113278571Y-126270714D01*
X113350000Y-126342142D01*
X113492857Y-126413571D01*
X113707142Y-126413571D01*
X112707142Y-125413571D02*
X112421428Y-126413571D01*
X112135714Y-125699285D01*
X111850000Y-126413571D01*
X111564285Y-125413571D01*
X110421428Y-126342142D02*
X110564285Y-126413571D01*
X110850000Y-126413571D01*
X110992857Y-126342142D01*
X111064285Y-126199285D01*
X111064285Y-125627857D01*
X110992857Y-125485000D01*
X110850000Y-125413571D01*
X110564285Y-125413571D01*
X110421428Y-125485000D01*
X110350000Y-125627857D01*
X110350000Y-125770714D01*
X111064285Y-125913571D01*
X109707142Y-126413571D02*
X109707142Y-125413571D01*
X109707142Y-125699285D02*
X109635714Y-125556428D01*
X109564285Y-125485000D01*
X109421428Y-125413571D01*
X109278571Y-125413571D01*
X107635714Y-126413571D02*
X107635714Y-124913571D01*
X107278571Y-124913571D01*
X107064285Y-124985000D01*
X106921428Y-125127857D01*
X106850000Y-125270714D01*
X106778571Y-125556428D01*
X106778571Y-125770714D01*
X106850000Y-126056428D01*
X106921428Y-126199285D01*
X107064285Y-126342142D01*
X107278571Y-126413571D01*
X107635714Y-126413571D01*
X106135714Y-126413571D02*
X106135714Y-125413571D01*
X106135714Y-124913571D02*
X106207142Y-124985000D01*
X106135714Y-125056428D01*
X106064285Y-124985000D01*
X106135714Y-124913571D01*
X106135714Y-125056428D01*
X105492857Y-126342142D02*
X105350000Y-126413571D01*
X105064285Y-126413571D01*
X104921428Y-126342142D01*
X104850000Y-126199285D01*
X104850000Y-126127857D01*
X104921428Y-125985000D01*
X105064285Y-125913571D01*
X105278571Y-125913571D01*
X105421428Y-125842142D01*
X105492857Y-125699285D01*
X105492857Y-125627857D01*
X105421428Y-125485000D01*
X105278571Y-125413571D01*
X105064285Y-125413571D01*
X104921428Y-125485000D01*
X104421428Y-125413571D02*
X103850000Y-125413571D01*
X104207142Y-124913571D02*
X104207142Y-126199285D01*
X104135714Y-126342142D01*
X103992857Y-126413571D01*
X103850000Y-126413571D01*
X103350000Y-126413571D02*
X103350000Y-125413571D01*
X103350000Y-125699285D02*
X103278571Y-125556428D01*
X103207142Y-125485000D01*
X103064285Y-125413571D01*
X102921428Y-125413571D01*
X102421428Y-126413571D02*
X102421428Y-125413571D01*
X102421428Y-124913571D02*
X102492857Y-124985000D01*
X102421428Y-125056428D01*
X102350000Y-124985000D01*
X102421428Y-124913571D01*
X102421428Y-125056428D01*
X101707142Y-126413571D02*
X101707142Y-124913571D01*
X101707142Y-125485000D02*
X101564285Y-125413571D01*
X101278571Y-125413571D01*
X101135714Y-125485000D01*
X101064285Y-125556428D01*
X100992857Y-125699285D01*
X100992857Y-126127857D01*
X101064285Y-126270714D01*
X101135714Y-126342142D01*
X101278571Y-126413571D01*
X101564285Y-126413571D01*
X101707142Y-126342142D01*
X99707142Y-125413571D02*
X99707142Y-126413571D01*
X100350000Y-125413571D02*
X100350000Y-126199285D01*
X100278571Y-126342142D01*
X100135714Y-126413571D01*
X99921428Y-126413571D01*
X99778571Y-126342142D01*
X99707142Y-126270714D01*
X99207142Y-125413571D02*
X98635714Y-125413571D01*
X98992857Y-124913571D02*
X98992857Y-126199285D01*
X98921428Y-126342142D01*
X98778571Y-126413571D01*
X98635714Y-126413571D01*
X98135714Y-126413571D02*
X98135714Y-125413571D01*
X98135714Y-124913571D02*
X98207142Y-124985000D01*
X98135714Y-125056428D01*
X98064285Y-124985000D01*
X98135714Y-124913571D01*
X98135714Y-125056428D01*
X97207142Y-126413571D02*
X97350000Y-126342142D01*
X97421428Y-126270714D01*
X97492857Y-126127857D01*
X97492857Y-125699285D01*
X97421428Y-125556428D01*
X97350000Y-125485000D01*
X97207142Y-125413571D01*
X96992857Y-125413571D01*
X96850000Y-125485000D01*
X96778571Y-125556428D01*
X96707142Y-125699285D01*
X96707142Y-126127857D01*
X96778571Y-126270714D01*
X96850000Y-126342142D01*
X96992857Y-126413571D01*
X97207142Y-126413571D01*
X96064285Y-125413571D02*
X96064285Y-126413571D01*
X96064285Y-125556428D02*
X95992857Y-125485000D01*
X95850000Y-125413571D01*
X95635714Y-125413571D01*
X95492857Y-125485000D01*
X95421428Y-125627857D01*
X95421428Y-126413571D01*
X93064285Y-125627857D02*
X92850000Y-125699285D01*
X92778571Y-125770714D01*
X92707142Y-125913571D01*
X92707142Y-126127857D01*
X92778571Y-126270714D01*
X92850000Y-126342142D01*
X92992857Y-126413571D01*
X93564285Y-126413571D01*
X93564285Y-124913571D01*
X93064285Y-124913571D01*
X92921428Y-124985000D01*
X92850000Y-125056428D01*
X92778571Y-125199285D01*
X92778571Y-125342142D01*
X92850000Y-125485000D01*
X92921428Y-125556428D01*
X93064285Y-125627857D01*
X93564285Y-125627857D01*
X91850000Y-126413571D02*
X91992857Y-126342142D01*
X92064285Y-126270714D01*
X92135714Y-126127857D01*
X92135714Y-125699285D01*
X92064285Y-125556428D01*
X91992857Y-125485000D01*
X91850000Y-125413571D01*
X91635714Y-125413571D01*
X91492857Y-125485000D01*
X91421428Y-125556428D01*
X91350000Y-125699285D01*
X91350000Y-126127857D01*
X91421428Y-126270714D01*
X91492857Y-126342142D01*
X91635714Y-126413571D01*
X91850000Y-126413571D01*
X90064285Y-126413571D02*
X90064285Y-125627857D01*
X90135714Y-125485000D01*
X90278571Y-125413571D01*
X90564285Y-125413571D01*
X90707142Y-125485000D01*
X90064285Y-126342142D02*
X90207142Y-126413571D01*
X90564285Y-126413571D01*
X90707142Y-126342142D01*
X90778571Y-126199285D01*
X90778571Y-126056428D01*
X90707142Y-125913571D01*
X90564285Y-125842142D01*
X90207142Y-125842142D01*
X90064285Y-125770714D01*
X89350000Y-126413571D02*
X89350000Y-125413571D01*
X89350000Y-125699285D02*
X89278571Y-125556428D01*
X89207142Y-125485000D01*
X89064285Y-125413571D01*
X88921428Y-125413571D01*
X87778571Y-126413571D02*
X87778571Y-124913571D01*
X87778571Y-126342142D02*
X87921428Y-126413571D01*
X88207142Y-126413571D01*
X88350000Y-126342142D01*
X88421428Y-126270714D01*
X88492857Y-126127857D01*
X88492857Y-125699285D01*
X88421428Y-125556428D01*
X88350000Y-125485000D01*
X88207142Y-125413571D01*
X87921428Y-125413571D01*
X87778571Y-125485000D01*
D12*
X132882000Y-136398000D03*
D13*
X135382000Y-136398000D03*
D12*
X142026000Y-136398000D03*
D13*
X144526000Y-136398000D03*
D12*
X160060000Y-136398000D03*
D13*
X162560000Y-136398000D03*
D12*
X169966000Y-136398000D03*
D13*
X172466000Y-136398000D03*
D12*
X179618000Y-136398000D03*
D13*
X182118000Y-136398000D03*
D14*
X177546000Y-92202000D03*
X185166000Y-92202000D03*
D15*
X86128000Y-85852000D03*
D14*
X83588000Y-85852000D03*
X81088000Y-85852000D03*
X120142000Y-91948000D03*
X112522000Y-91948000D03*
D15*
X142168000Y-85852000D03*
D14*
X139628000Y-85852000D03*
X137128000Y-85852000D03*
D15*
X120128000Y-85852000D03*
D14*
X117588000Y-85852000D03*
X115088000Y-85852000D03*
X134620000Y-91948000D03*
X142240000Y-91948000D03*
D16*
X73406000Y-86614000D03*
D17*
X70866000Y-86614000D03*
D14*
X78486000Y-91694000D03*
X86106000Y-91694000D03*
X164084000Y-92710000D03*
X156464000Y-92710000D03*
D15*
X164168000Y-85852000D03*
D14*
X161628000Y-85852000D03*
X159128000Y-85852000D03*
X180088000Y-85852000D03*
X182588000Y-85852000D03*
D15*
X185128000Y-85852000D03*
D14*
X225298000Y-117896000D03*
X225298000Y-120396000D03*
D15*
X225298000Y-122936000D03*
D12*
X151670000Y-136398000D03*
D13*
X153670000Y-136398000D03*
D14*
X225298000Y-130342000D03*
X225298000Y-132842000D03*
D15*
X225298000Y-135382000D03*
D14*
X208026000Y-133948500D03*
X208026000Y-131448500D03*
X208026000Y-128948500D03*
X208026000Y-126448500D03*
X208026000Y-123948500D03*
D15*
X208026000Y-121412000D03*
X77470000Y-98298000D03*
D14*
X77470000Y-100834500D03*
X77470000Y-103334500D03*
X77470000Y-105834500D03*
X77470000Y-108334500D03*
X77470000Y-110834500D03*
D15*
X225044000Y-110490000D03*
D14*
X225044000Y-107950000D03*
X225044000Y-105450000D03*
D15*
X218168000Y-85852000D03*
D14*
X215628000Y-85852000D03*
X213128000Y-85852000D03*
D18*
X230124000Y-98806000D03*
D19*
X230124000Y-83566000D03*
D18*
X230124000Y-93726000D03*
X230124000Y-88646000D03*
D14*
X213360000Y-135382000D03*
X220980000Y-135382000D03*
X176784000Y-136398000D03*
X176784000Y-116398000D03*
X220980000Y-132842000D03*
X213360000Y-132842000D03*
X166624000Y-136398000D03*
X166624000Y-116398000D03*
X213360000Y-129286000D03*
X220980000Y-129286000D03*
X157480000Y-116398000D03*
X157480000Y-136398000D03*
X220980000Y-125476000D03*
X213360000Y-125476000D03*
X148336000Y-116398000D03*
X148336000Y-136398000D03*
X213360000Y-117348000D03*
X220980000Y-117348000D03*
X139446000Y-136398000D03*
X139446000Y-116398000D03*
X218186000Y-89154000D03*
X210566000Y-89154000D03*
X220980000Y-114808000D03*
X213360000Y-114808000D03*
X130302000Y-116398000D03*
X130302000Y-136398000D03*
X192278000Y-76708000D03*
X192278000Y-85852000D03*
X170180000Y-76708000D03*
X170180000Y-85852000D03*
X147828000Y-76708000D03*
X147828000Y-85852000D03*
X125730000Y-76708000D03*
X125730000Y-85852000D03*
X92456000Y-85852000D03*
X92456000Y-76708000D03*
D20*
X176784000Y-136398000D02*
X179618000Y-136398000D01*
X208026000Y-133948500D02*
X183189905Y-133948500D01*
X183189905Y-133948500D02*
X183149395Y-133907990D01*
X183149395Y-133907990D02*
X181086605Y-133907990D01*
X181086605Y-133907990D02*
X179618000Y-135376595D01*
X179618000Y-135376595D02*
X179618000Y-136398000D01*
X208026000Y-133948500D02*
X209459500Y-135382000D01*
X209459500Y-135382000D02*
X213360000Y-135382000D01*
X153924000Y-139954000D02*
X153924000Y-137414000D01*
X153924000Y-137414000D02*
X153810001Y-137300001D01*
X153810001Y-137300001D02*
X153810001Y-136398000D01*
X172466000Y-136398000D02*
X172466000Y-139446000D01*
X172466000Y-139446000D02*
X171958000Y-139954000D01*
X162560000Y-139954000D02*
X162560000Y-136398000D01*
X144526000Y-139954000D02*
X144526000Y-136398000D01*
X135382000Y-136398000D02*
X135382000Y-137317238D01*
X137836798Y-139772036D02*
X137836798Y-139954000D01*
X135382000Y-137317238D02*
X137836798Y-139772036D01*
X182118000Y-136398000D02*
X182118000Y-137317238D01*
X182118000Y-137317238D02*
X182118000Y-139954000D01*
D21*
X230124000Y-105664000D02*
X230124000Y-115570000D01*
D20*
X229910000Y-105450000D02*
X225044000Y-105450000D01*
D21*
X230124000Y-103124000D02*
X230124000Y-105664000D01*
D20*
X230124000Y-105664000D02*
X229910000Y-105450000D01*
D21*
X137836798Y-139954000D02*
X144526000Y-139954000D01*
X230124000Y-93726000D02*
X230124000Y-98806000D01*
X230124000Y-98806000D02*
X230124000Y-101600000D01*
X153924000Y-139954000D02*
X144526000Y-139954000D01*
X162560000Y-139954000D02*
X153924000Y-139954000D01*
X171958000Y-139954000D02*
X162560000Y-139954000D01*
X182118000Y-139954000D02*
X171958000Y-139954000D01*
X227226002Y-139954000D02*
X182118000Y-139954000D01*
X230084000Y-130342000D02*
X230084000Y-137096002D01*
X230084000Y-137096002D02*
X227226002Y-139954000D01*
X230124000Y-128016000D02*
X230124000Y-130302000D01*
D20*
X225298000Y-130342000D02*
X230084000Y-130342000D01*
D22*
X230084000Y-130342000D02*
X230124000Y-130302000D01*
D21*
X230124000Y-115570000D02*
X230124000Y-117856000D01*
X230124000Y-117856000D02*
X230124000Y-128016000D01*
D20*
X225298000Y-117896000D02*
X230084000Y-117896000D01*
D22*
X230084000Y-117896000D02*
X230124000Y-117856000D01*
D21*
X230124000Y-101600000D02*
X230124000Y-103124000D01*
D20*
X166624000Y-136398000D02*
X169966000Y-136398000D01*
X208026000Y-131448500D02*
X184211310Y-131448500D01*
X184211310Y-131448500D02*
X184180790Y-131417980D01*
X169975990Y-136388010D02*
X169966000Y-136398000D01*
X184180790Y-131417980D02*
X173924615Y-131417980D01*
X173924615Y-131417980D02*
X169975990Y-135366605D01*
X169975990Y-135366605D02*
X169975990Y-136388010D01*
X208026000Y-131448500D02*
X211966500Y-131448500D01*
X211966500Y-131448500D02*
X213360000Y-132842000D01*
X213360000Y-129286000D02*
X213022500Y-128948500D01*
X213022500Y-128948500D02*
X208026000Y-128948500D01*
X157480000Y-136398000D02*
X160060000Y-136398000D01*
X208026000Y-128948500D02*
X206611787Y-128948500D01*
X206611787Y-128948500D02*
X206591257Y-128927970D01*
X164880030Y-128927970D02*
X160060000Y-133748000D01*
X206591257Y-128927970D02*
X164880030Y-128927970D01*
X160060000Y-133748000D02*
X160060000Y-136398000D01*
X213360000Y-125476000D02*
X212387500Y-126448500D01*
X212387500Y-126448500D02*
X208026000Y-126448500D01*
X208026000Y-126448500D02*
X207633192Y-126448500D01*
X207633192Y-126448500D02*
X207622652Y-126437960D01*
X207622652Y-126437960D02*
X160248636Y-126437960D01*
X160248636Y-126437960D02*
X151319991Y-135366605D01*
X151319991Y-135366605D02*
X151319991Y-136398000D01*
X151319991Y-136398000D02*
X148336000Y-136398000D01*
X213360000Y-117348000D02*
X213360000Y-120760002D01*
X213360000Y-120760002D02*
X210171502Y-123948500D01*
X210171502Y-123948500D02*
X209440213Y-123948500D01*
X209440213Y-123948500D02*
X208026000Y-123948500D01*
X142026000Y-136398000D02*
X142026000Y-133748000D01*
X142026000Y-133748000D02*
X151826050Y-123947950D01*
X151826050Y-123947950D02*
X208025450Y-123947950D01*
X208025450Y-123947950D02*
X208026000Y-123948500D01*
X142026000Y-136398000D02*
X139446000Y-136398000D01*
X213360000Y-114808000D02*
X211630000Y-114808000D01*
X211630000Y-114808000D02*
X208026000Y-118412000D01*
X208026000Y-118412000D02*
X208026000Y-121412000D01*
X132882000Y-136398000D02*
X132882000Y-135376595D01*
X146846595Y-121412000D02*
X205026000Y-121412000D01*
X132882000Y-135376595D02*
X146846595Y-121412000D01*
X205026000Y-121412000D02*
X208026000Y-121412000D01*
X130302000Y-136398000D02*
X132882000Y-136398000D01*
D21*
X212024000Y-76708000D02*
X192278000Y-76708000D01*
X192278000Y-76708000D02*
X170180000Y-76708000D01*
D20*
X188128000Y-85852000D02*
X192278000Y-85852000D01*
X185128000Y-85852000D02*
X188128000Y-85852000D01*
D21*
X170180000Y-76708000D02*
X147828000Y-76708000D01*
D20*
X167168000Y-85852000D02*
X170180000Y-85852000D01*
X164168000Y-85852000D02*
X167168000Y-85852000D01*
D21*
X147828000Y-76708000D02*
X125730000Y-76708000D01*
D20*
X142168000Y-85852000D02*
X147828000Y-85852000D01*
D21*
X125730000Y-76708000D02*
X92456000Y-76708000D01*
D20*
X120128000Y-85852000D02*
X125730000Y-85852000D01*
X86128000Y-85852000D02*
X92456000Y-85852000D01*
X70866000Y-86614000D02*
X70866000Y-85445118D01*
X70866000Y-85445118D02*
X72898000Y-83413118D01*
X72898000Y-83413118D02*
X72898000Y-76708000D01*
D21*
X92456000Y-76708000D02*
X72898000Y-76708000D01*
D20*
X218168000Y-85852000D02*
X218168000Y-82852000D01*
X218168000Y-82852000D02*
X212024000Y-76708000D01*
X164168000Y-85852000D02*
X164168000Y-92626000D01*
X164168000Y-92626000D02*
X164084000Y-92710000D01*
X185128000Y-85852000D02*
X185128000Y-90424000D01*
X185128000Y-90424000D02*
X185128000Y-91656000D01*
X185166000Y-92202000D02*
X185166000Y-90462000D01*
X185166000Y-90462000D02*
X185128000Y-90424000D01*
X218168000Y-85852000D02*
X218168000Y-89136000D01*
X218168000Y-89136000D02*
X218186000Y-89154000D01*
X185128000Y-91656000D02*
X185166000Y-91694000D01*
X142168000Y-85852000D02*
X142168000Y-91876000D01*
X142168000Y-91876000D02*
X142240000Y-91948000D01*
X120128000Y-85852000D02*
X120128000Y-91934000D01*
X120128000Y-91934000D02*
X120142000Y-91948000D01*
X86128000Y-85852000D02*
X86128000Y-91672000D01*
X86128000Y-91672000D02*
X86106000Y-91694000D01*
X78486000Y-91694000D02*
X78486000Y-97282000D01*
X78486000Y-97282000D02*
X77470000Y-98298000D01*
X83588000Y-85852000D02*
X83588000Y-87266213D01*
X83588000Y-87266213D02*
X80160212Y-90694001D01*
X80160212Y-90694001D02*
X79485999Y-90694001D01*
X79485999Y-90694001D02*
X78486000Y-91694000D01*
D21*
X81026000Y-81198010D02*
X90596177Y-81198010D01*
X78821990Y-81198010D02*
X81026000Y-81198010D01*
D20*
X81026000Y-81198010D02*
X81088000Y-81260010D01*
X81088000Y-81260010D02*
X81088000Y-85852000D01*
D21*
X115062000Y-81198010D02*
X137160000Y-81198010D01*
X90596177Y-81198010D02*
X115062000Y-81198010D01*
D20*
X115062000Y-81198010D02*
X115088000Y-81224010D01*
X115088000Y-81224010D02*
X115088000Y-85852000D01*
D21*
X137160000Y-81198010D02*
X159004000Y-81198010D01*
D20*
X137160000Y-81198010D02*
X137128000Y-81230010D01*
X137128000Y-81230010D02*
X137128000Y-85852000D01*
D21*
X159004000Y-81198010D02*
X180086000Y-81198010D01*
D20*
X159004000Y-81198010D02*
X159128000Y-81322010D01*
X159128000Y-81322010D02*
X159128000Y-85852000D01*
D21*
X180086000Y-81198010D02*
X210312000Y-81198010D01*
D20*
X180088000Y-85852000D02*
X180088000Y-84437787D01*
X180088000Y-84437787D02*
X180086000Y-84435787D01*
X180086000Y-84435787D02*
X180086000Y-81198010D01*
X210312000Y-81198010D02*
X210312000Y-83036000D01*
X210312000Y-83036000D02*
X213128000Y-85852000D01*
D21*
X78232000Y-81788000D02*
X78821990Y-81198010D01*
D20*
X73406000Y-86614000D02*
X78232000Y-81788000D01*
X225298000Y-132842000D02*
X220980000Y-132842000D01*
X225298000Y-135382000D02*
X220980000Y-135382000D01*
X112522000Y-91948000D02*
X89373405Y-91948000D01*
X89373405Y-91948000D02*
X80486905Y-100834500D01*
X80486905Y-100834500D02*
X78884213Y-100834500D01*
X78884213Y-100834500D02*
X77470000Y-100834500D01*
X117588000Y-85852000D02*
X117588000Y-86882000D01*
X117588000Y-86882000D02*
X112522000Y-91948000D01*
X77470000Y-103334500D02*
X81508309Y-103334500D01*
X81508309Y-103334500D02*
X90404799Y-94438010D01*
X90404799Y-94438010D02*
X132129990Y-94438010D01*
X132129990Y-94438010D02*
X134620000Y-91948000D01*
X139628000Y-85852000D02*
X139628000Y-86940000D01*
X139628000Y-86940000D02*
X134620000Y-91948000D01*
X156464000Y-92710000D02*
X152245980Y-96928020D01*
X152245980Y-96928020D02*
X91436193Y-96928020D01*
X91436193Y-96928020D02*
X82529713Y-105834500D01*
X82529713Y-105834500D02*
X77470000Y-105834500D01*
X161628000Y-85852000D02*
X161628000Y-87546000D01*
X161628000Y-87546000D02*
X156464000Y-92710000D01*
X177546000Y-92202000D02*
X170329970Y-99418030D01*
X170329970Y-99418030D02*
X92467587Y-99418030D01*
X92467587Y-99418030D02*
X83551117Y-108334500D01*
X83551117Y-108334500D02*
X77470000Y-108334500D01*
X182588000Y-87266213D02*
X182481787Y-87266213D01*
X182481787Y-87266213D02*
X177546000Y-92202000D01*
X182588000Y-85852000D02*
X182588000Y-87266213D01*
X210566000Y-89154000D02*
X209151787Y-89154000D01*
X209151787Y-89154000D02*
X196397747Y-101908040D01*
X78884213Y-110834500D02*
X77470000Y-110834500D01*
X196397747Y-101908040D02*
X93498981Y-101908040D01*
X93498981Y-101908040D02*
X84572521Y-110834500D01*
X84572521Y-110834500D02*
X78884213Y-110834500D01*
X215628000Y-85852000D02*
X215628000Y-87037202D01*
X215628000Y-87037202D02*
X213511202Y-89154000D01*
X213511202Y-89154000D02*
X211980213Y-89154000D01*
X211980213Y-89154000D02*
X210566000Y-89154000D01*
X220980000Y-125476000D02*
X220980000Y-122571998D01*
X225298000Y-120396000D02*
X223155998Y-120396000D01*
X223155998Y-120396000D02*
X220980000Y-122571998D01*
X220980000Y-122571998D02*
X220980000Y-123299787D01*
X225298000Y-122936000D02*
X225298000Y-124968000D01*
X225298000Y-124968000D02*
X220980000Y-129286000D01*
X220980000Y-117348000D02*
X221961405Y-117348000D01*
X221961405Y-117348000D02*
X225044000Y-114265405D01*
X225044000Y-114265405D02*
X225044000Y-113490000D01*
X225044000Y-113490000D02*
X225044000Y-110490000D01*
X225044000Y-107950000D02*
X222901998Y-107950000D01*
X222901998Y-107950000D02*
X220980000Y-109871998D01*
X220980000Y-109871998D02*
X220980000Y-113393787D01*
X220980000Y-113393787D02*
X220980000Y-114808000D01*
D21*
X204569924Y-111506000D02*
X176784000Y-111506000D01*
D20*
X176784000Y-114983787D02*
X176784000Y-111506000D01*
D21*
X176784000Y-111506000D02*
X166624000Y-111506000D01*
D20*
X176784000Y-116398000D02*
X176784000Y-114983787D01*
D21*
X166624000Y-111506000D02*
X157480000Y-111506000D01*
D20*
X166624000Y-116398000D02*
X166624000Y-111506000D01*
D21*
X157480000Y-111506000D02*
X148336000Y-111506000D01*
D20*
X157480000Y-116398000D02*
X157480000Y-114983787D01*
X157480000Y-114983787D02*
X157480000Y-111506000D01*
D21*
X148336000Y-111506000D02*
X139446000Y-111506000D01*
D20*
X148336000Y-116398000D02*
X148336000Y-111506000D01*
D21*
X139446000Y-111506000D02*
X130302000Y-111506000D01*
D20*
X139446000Y-116398000D02*
X139446000Y-111506000D01*
X130302000Y-116398000D02*
X130302000Y-111506000D01*
D21*
X230124000Y-88646000D02*
X227429924Y-88646000D01*
X227429924Y-88646000D02*
X204569924Y-111506000D01*
M02*
