G04 #@! TF.FileFunction,Copper,L1,Top,Signal*
%FSLAX46Y46*%
G04 Gerber Fmt 4.6, Leading zero omitted, Abs format (unit mm)*
G04 Created by KiCad (PCBNEW no-vcs-found-undefined) date Wed Oct 26 20:43:27 2016*
%MOMM*%
%LPD*%
G01*
G04 APERTURE LIST*
%ADD10C,0.050000*%
%ADD11C,2.000000*%
%ADD12O,2.400000X2.000000*%
%ADD13C,3.810000*%
%ADD14R,3.810000X3.810000*%
%ADD15O,2.000000X2.400000*%
%ADD16R,2.032000X2.400000*%
%ADD17O,2.032000X2.400000*%
%ADD18C,2.000000*%
G04 APERTURE END LIST*
D10*
D11*
X176022000Y-135636000D03*
X176022000Y-139441000D03*
X170434000Y-135641000D03*
X170434000Y-139446000D03*
X164846000Y-135641000D03*
X164846000Y-139446000D03*
X159258000Y-135641000D03*
X159258000Y-139446000D03*
X153670000Y-135641000D03*
X153670000Y-139446000D03*
X148082000Y-135641000D03*
X148082000Y-139446000D03*
X86186000Y-92710000D03*
X91186000Y-92710000D03*
X93726000Y-83867000D03*
X93726000Y-78867000D03*
X96266000Y-83867000D03*
X96266000Y-78867000D03*
X98806000Y-83867000D03*
X98806000Y-78867000D03*
X101346000Y-83867000D03*
X101346000Y-78867000D03*
X103886000Y-83867000D03*
X103886000Y-78867000D03*
D12*
X225004334Y-110490000D03*
X225004334Y-107950000D03*
X225004334Y-105410000D03*
D13*
X230124000Y-88646000D03*
X230124000Y-93726000D03*
D14*
X230124000Y-83566000D03*
D13*
X230124000Y-98806000D03*
D12*
X207772000Y-120904000D03*
X207772000Y-123444000D03*
X207772000Y-125984000D03*
X207772000Y-128524000D03*
X207772000Y-131064000D03*
X207772000Y-133604000D03*
X86360000Y-95504000D03*
X86360000Y-98044000D03*
X86360000Y-100584000D03*
X86360000Y-103124000D03*
X86360000Y-105664000D03*
X86360000Y-108204000D03*
D15*
X86106000Y-86415523D03*
X83566000Y-86415523D03*
X81026000Y-86415523D03*
X142113000Y-86486952D03*
X139573000Y-86486952D03*
X137033000Y-86486952D03*
X185166000Y-86486952D03*
X182626000Y-86486952D03*
X180086000Y-86486952D03*
D12*
X225171000Y-135382000D03*
X225171000Y-132842000D03*
X225171000Y-130302000D03*
D15*
X120142000Y-86558381D03*
X117602000Y-86558381D03*
X115062000Y-86558381D03*
X164211000Y-86486952D03*
X161671000Y-86486952D03*
X159131000Y-86486952D03*
D12*
X225044000Y-122936000D03*
X225044000Y-120396000D03*
X225044000Y-117856000D03*
D15*
X218186000Y-86614000D03*
X215646000Y-86614000D03*
X213106000Y-86614000D03*
D16*
X77343000Y-86487000D03*
D17*
X74803000Y-86487000D03*
D11*
X177546000Y-94742000D03*
X185166000Y-94742000D03*
X164846000Y-113604000D03*
X164846000Y-133604000D03*
X120142000Y-93726000D03*
X112522000Y-93726000D03*
X134620000Y-93726000D03*
X142240000Y-93726000D03*
X83566000Y-90170000D03*
X91186000Y-90170000D03*
X164338000Y-93472000D03*
X156718000Y-93472000D03*
X210566000Y-133604000D03*
X218186000Y-133604000D03*
X176022000Y-133604000D03*
X176022000Y-113604000D03*
X218186000Y-131064000D03*
X210566000Y-131064000D03*
X170434000Y-133604000D03*
X170434000Y-113604000D03*
X210566000Y-128524000D03*
X218186000Y-128524000D03*
X218186000Y-125984000D03*
X210566000Y-125984000D03*
X159258000Y-113604000D03*
X159258000Y-133604000D03*
X214630000Y-123444000D03*
X214630000Y-115824000D03*
X153670000Y-133604000D03*
X153670000Y-113604000D03*
X219202000Y-90678000D03*
X211582000Y-90678000D03*
X212090000Y-113284000D03*
X212090000Y-120904000D03*
X148082000Y-113604000D03*
X148082000Y-133604000D03*
X81026000Y-90464000D03*
X81026000Y-92964000D03*
X74843000Y-90424000D03*
X77343000Y-90424000D03*
X222758000Y-98806000D03*
X222758000Y-93806000D03*
X91186000Y-78820000D03*
X190246000Y-86360000D03*
X190246000Y-78740000D03*
X169672000Y-78740000D03*
X169672000Y-86360000D03*
X147066000Y-86614000D03*
X147066000Y-78740000D03*
X124460000Y-86360000D03*
X124460000Y-78740000D03*
X91186000Y-86360000D03*
X96266000Y-100584000D03*
X96266000Y-92710000D03*
X98806000Y-103124000D03*
X98806000Y-92710000D03*
X101346000Y-105664000D03*
X101346000Y-92710000D03*
X103886000Y-108204000D03*
X103886000Y-92710000D03*
D18*
X91186000Y-86360000D02*
X91186000Y-78820000D01*
X190246000Y-78740000D02*
X190246000Y-86360000D01*
X169672000Y-86360000D02*
X169672000Y-78740000D01*
X147066000Y-78740000D02*
X147066000Y-86614000D01*
X124460000Y-78740000D02*
X124460000Y-86360000D01*
X96266000Y-92710000D02*
X96266000Y-100584000D01*
X98806000Y-92710000D02*
X98806000Y-103124000D01*
X101346000Y-92710000D02*
X101346000Y-105664000D01*
X103886000Y-92710000D02*
X103886000Y-108204000D01*
M02*
