%FSLAX45Y45*%
G04 Gerber Fmt 4.5, Leading zero omitted, Abs format (unit mm)*
G04 Created by KiCad (PCBNEW no-vcs-found-undefined) date Tue Oct 25 21:33:48 2016*
%MOMM*%
%LPD*%
G01*
G04 APERTURE LIST*
%ADD10C,0.127000*%
%ADD11C,0.100000*%
%ADD12C,0.200000*%
%ADD13C,0.300000*%
G04 APERTURE END LIST*
D10*
D11*
X6654800Y-14376400D02*
X6654800Y-7213600D01*
X23672800Y-14376400D02*
X6654800Y-14376400D01*
X23672800Y-7213600D02*
X23672800Y-14376400D01*
X6654800Y-7213600D02*
X23672800Y-7213600D01*
D12*
X8321600Y-8982000D02*
X8391600Y-9052000D01*
X8391600Y-8982000D02*
X8321600Y-9052000D01*
X9083600Y-8982000D02*
X9153600Y-9052000D01*
X9153600Y-8982000D02*
X9083600Y-9052000D01*
X9210600Y-7635800D02*
X9280600Y-7705800D01*
X9280600Y-7635800D02*
X9210600Y-7705800D01*
X9210600Y-8550200D02*
X9280600Y-8620200D01*
X9280600Y-8550200D02*
X9210600Y-8620200D01*
X11217200Y-9337600D02*
X11287200Y-9407600D01*
X11287200Y-9337600D02*
X11217200Y-9407600D01*
X11979200Y-9337600D02*
X12049200Y-9407600D01*
X12049200Y-9337600D02*
X11979200Y-9407600D01*
X12538000Y-7635800D02*
X12608000Y-7705800D01*
X12608000Y-7635800D02*
X12538000Y-7705800D01*
X12538000Y-8550200D02*
X12608000Y-8620200D01*
X12608000Y-8550200D02*
X12538000Y-8620200D01*
X13427000Y-9337600D02*
X13497000Y-9407600D01*
X13497000Y-9337600D02*
X13427000Y-9407600D01*
X14189000Y-9337600D02*
X14259000Y-9407600D01*
X14259000Y-9337600D02*
X14189000Y-9407600D01*
X14747800Y-7635800D02*
X14817800Y-7705800D01*
X14817800Y-7635800D02*
X14747800Y-7705800D01*
X14747800Y-8550200D02*
X14817800Y-8620200D01*
X14817800Y-8550200D02*
X14747800Y-8620200D01*
X15255800Y-11325400D02*
X15325800Y-11395400D01*
X15325800Y-11325400D02*
X15255800Y-11395400D01*
X15255800Y-13325400D02*
X15325800Y-13395400D01*
X15325800Y-13325400D02*
X15255800Y-13395400D01*
X15255800Y-13529100D02*
X15325800Y-13599100D01*
X15325800Y-13529100D02*
X15255800Y-13599100D01*
X15255800Y-13909600D02*
X15325800Y-13979600D01*
X15325800Y-13909600D02*
X15255800Y-13979600D01*
X15611400Y-9337600D02*
X15681400Y-9407600D01*
X15681400Y-9337600D02*
X15611400Y-9407600D01*
X15814600Y-11325400D02*
X15884600Y-11395400D01*
X15884600Y-11325400D02*
X15814600Y-11395400D01*
X15814600Y-13325400D02*
X15884600Y-13395400D01*
X15884600Y-13325400D02*
X15814600Y-13395400D01*
X15814600Y-13529100D02*
X15884600Y-13599100D01*
X15884600Y-13529100D02*
X15814600Y-13599100D01*
X15814600Y-13909600D02*
X15884600Y-13979600D01*
X15884600Y-13909600D02*
X15814600Y-13979600D01*
X16373400Y-9337600D02*
X16443400Y-9407600D01*
X16443400Y-9337600D02*
X16373400Y-9407600D01*
X16373400Y-11325400D02*
X16443400Y-11395400D01*
X16443400Y-11325400D02*
X16373400Y-11395400D01*
X16373400Y-13325400D02*
X16443400Y-13395400D01*
X16443400Y-13325400D02*
X16373400Y-13395400D01*
X16373400Y-13529100D02*
X16443400Y-13599100D01*
X16443400Y-13529100D02*
X16373400Y-13599100D01*
X16373400Y-13909600D02*
X16443400Y-13979600D01*
X16443400Y-13909600D02*
X16373400Y-13979600D01*
X16932200Y-11325400D02*
X17002200Y-11395400D01*
X17002200Y-11325400D02*
X16932200Y-11395400D01*
X16932200Y-13325400D02*
X17002200Y-13395400D01*
X17002200Y-13325400D02*
X16932200Y-13395400D01*
X16932200Y-13529100D02*
X17002200Y-13599100D01*
X17002200Y-13529100D02*
X16932200Y-13599100D01*
X16932200Y-13909600D02*
X17002200Y-13979600D01*
X17002200Y-13909600D02*
X16932200Y-13979600D01*
X16983000Y-7635800D02*
X17053000Y-7705800D01*
X17053000Y-7635800D02*
X16983000Y-7705800D01*
X16983000Y-8550200D02*
X17053000Y-8620200D01*
X17053000Y-8550200D02*
X16983000Y-8620200D01*
X17491000Y-11325400D02*
X17561000Y-11395400D01*
X17561000Y-11325400D02*
X17491000Y-11395400D01*
X17491000Y-13325400D02*
X17561000Y-13395400D01*
X17561000Y-13325400D02*
X17491000Y-13395400D01*
X17491000Y-13529100D02*
X17561000Y-13599100D01*
X17561000Y-13529100D02*
X17491000Y-13599100D01*
X17491000Y-13909600D02*
X17561000Y-13979600D01*
X17561000Y-13909600D02*
X17491000Y-13979600D01*
X17719600Y-9337600D02*
X17789600Y-9407600D01*
X17789600Y-9337600D02*
X17719600Y-9407600D01*
X18049800Y-11325400D02*
X18119800Y-11395400D01*
X18119800Y-11325400D02*
X18049800Y-11395400D01*
X18049800Y-13325400D02*
X18119800Y-13395400D01*
X18119800Y-13325400D02*
X18049800Y-13395400D01*
X18049800Y-13528600D02*
X18119800Y-13598600D01*
X18119800Y-13528600D02*
X18049800Y-13598600D01*
X18049800Y-13909100D02*
X18119800Y-13979100D01*
X18119800Y-13909100D02*
X18049800Y-13979100D01*
X18481600Y-9337600D02*
X18551600Y-9407600D01*
X18551600Y-9337600D02*
X18481600Y-9407600D01*
X19192800Y-7635800D02*
X19262800Y-7705800D01*
X19262800Y-7635800D02*
X19192800Y-7705800D01*
X19192800Y-8550200D02*
X19262800Y-8620200D01*
X19262800Y-8550200D02*
X19192800Y-8620200D01*
X20869200Y-9337600D02*
X20939200Y-9407600D01*
X20939200Y-9337600D02*
X20869200Y-9407600D01*
X21021600Y-12563400D02*
X21091600Y-12633400D01*
X21091600Y-12563400D02*
X21021600Y-12633400D01*
X21021600Y-12817400D02*
X21091600Y-12887400D01*
X21091600Y-12817400D02*
X21021600Y-12887400D01*
X21021600Y-13071400D02*
X21091600Y-13141400D01*
X21091600Y-13071400D02*
X21021600Y-13141400D01*
X21021600Y-13325400D02*
X21091600Y-13395400D01*
X21091600Y-13325400D02*
X21021600Y-13395400D01*
X21174000Y-11293400D02*
X21244000Y-11363400D01*
X21244000Y-11293400D02*
X21174000Y-11363400D01*
X21174000Y-12055400D02*
X21244000Y-12125400D01*
X21244000Y-12055400D02*
X21174000Y-12125400D01*
X21428000Y-11547400D02*
X21498000Y-11617400D01*
X21498000Y-11547400D02*
X21428000Y-11617400D01*
X21428000Y-12309400D02*
X21498000Y-12379400D01*
X21498000Y-12309400D02*
X21428000Y-12379400D01*
X21631200Y-9337600D02*
X21701200Y-9407600D01*
X21701200Y-9337600D02*
X21631200Y-9407600D01*
X21783600Y-12563400D02*
X21853600Y-12633400D01*
X21853600Y-12563400D02*
X21783600Y-12633400D01*
X21783600Y-12817400D02*
X21853600Y-12887400D01*
X21853600Y-12817400D02*
X21783600Y-12887400D01*
X21783600Y-13071400D02*
X21853600Y-13141400D01*
X21853600Y-13071400D02*
X21783600Y-13141400D01*
X21783600Y-13325400D02*
X21853600Y-13395400D01*
X21853600Y-13325400D02*
X21783600Y-13395400D01*
X7136600Y-8661400D02*
G75*
G03X7136600Y-8661400I-50000J0D01*
G01*
X7390600Y-8661400D02*
G75*
G03X7390600Y-8661400I-50000J0D01*
G01*
X8158800Y-8585200D02*
G75*
G03X8158800Y-8585200I-50000J0D01*
G01*
X8406600Y-9550400D02*
G75*
G03X8406600Y-9550400I-50000J0D01*
G01*
X8406600Y-9804050D02*
G75*
G03X8406600Y-9804050I-50000J0D01*
G01*
X8406600Y-10054050D02*
G75*
G03X8406600Y-10054050I-50000J0D01*
G01*
X8406600Y-10304050D02*
G75*
G03X8406600Y-10304050I-50000J0D01*
G01*
X8406600Y-10554050D02*
G75*
G03X8406600Y-10554050I-50000J0D01*
G01*
X8406600Y-10804050D02*
G75*
G03X8406600Y-10804050I-50000J0D01*
G01*
X8408800Y-8585200D02*
G75*
G03X8408800Y-8585200I-50000J0D01*
G01*
X8662800Y-8585200D02*
G75*
G03X8662800Y-8585200I-50000J0D01*
G01*
X11558800Y-8585200D02*
G75*
G03X11558800Y-8585200I-50000J0D01*
G01*
X11808800Y-8585200D02*
G75*
G03X11808800Y-8585200I-50000J0D01*
G01*
X12062800Y-8585200D02*
G75*
G03X12062800Y-8585200I-50000J0D01*
G01*
X13762800Y-8585200D02*
G75*
G03X13762800Y-8585200I-50000J0D01*
G01*
X14012800Y-8585200D02*
G75*
G03X14012800Y-8585200I-50000J0D01*
G01*
X14266800Y-8585200D02*
G75*
G03X14266800Y-8585200I-50000J0D01*
G01*
X15962800Y-8585200D02*
G75*
G03X15962800Y-8585200I-50000J0D01*
G01*
X16212800Y-8585200D02*
G75*
G03X16212800Y-8585200I-50000J0D01*
G01*
X16466800Y-8585200D02*
G75*
G03X16466800Y-8585200I-50000J0D01*
G01*
X18058800Y-8585200D02*
G75*
G03X18058800Y-8585200I-50000J0D01*
G01*
X18308800Y-8585200D02*
G75*
G03X18308800Y-8585200I-50000J0D01*
G01*
X18562800Y-8585200D02*
G75*
G03X18562800Y-8585200I-50000J0D01*
G01*
X20852600Y-12098750D02*
G75*
G03X20852600Y-12098750I-50000J0D01*
G01*
X20852600Y-12352400D02*
G75*
G03X20852600Y-12352400I-50000J0D01*
G01*
X20852600Y-12602400D02*
G75*
G03X20852600Y-12602400I-50000J0D01*
G01*
X20852600Y-12852400D02*
G75*
G03X20852600Y-12852400I-50000J0D01*
G01*
X20852600Y-13102400D02*
G75*
G03X20852600Y-13102400I-50000J0D01*
G01*
X20852600Y-13352400D02*
G75*
G03X20852600Y-13352400I-50000J0D01*
G01*
X21362800Y-8585200D02*
G75*
G03X21362800Y-8585200I-50000J0D01*
G01*
X21612800Y-8585200D02*
G75*
G03X21612800Y-8585200I-50000J0D01*
G01*
X21866800Y-8585200D02*
G75*
G03X21866800Y-8585200I-50000J0D01*
G01*
X22579800Y-10545000D02*
G75*
G03X22579800Y-10545000I-50000J0D01*
G01*
X22579800Y-10795000D02*
G75*
G03X22579800Y-10795000I-50000J0D01*
G01*
X22579800Y-11049000D02*
G75*
G03X22579800Y-11049000I-50000J0D01*
G01*
X22579800Y-11789600D02*
G75*
G03X22579800Y-11789600I-50000J0D01*
G01*
X22579800Y-12039600D02*
G75*
G03X22579800Y-12039600I-50000J0D01*
G01*
X22579800Y-12293600D02*
G75*
G03X22579800Y-12293600I-50000J0D01*
G01*
X22579800Y-13034200D02*
G75*
G03X22579800Y-13034200I-50000J0D01*
G01*
X22579800Y-13284200D02*
G75*
G03X22579800Y-13284200I-50000J0D01*
G01*
X22579800Y-13538200D02*
G75*
G03X22579800Y-13538200I-50000J0D01*
G01*
X23012400Y-8301600D02*
X23012400Y-8411600D01*
X22957400Y-8356600D02*
X23067400Y-8356600D01*
X23012400Y-8809600D02*
X23012400Y-8919600D01*
X22957400Y-8864600D02*
X23067400Y-8864600D01*
X23012400Y-9317600D02*
X23012400Y-9427600D01*
X22957400Y-9372600D02*
X23067400Y-9372600D01*
X23012400Y-9825600D02*
X23012400Y-9935600D01*
X22957400Y-9880600D02*
X23067400Y-9880600D01*
D13*
X6936228Y-14847114D02*
X6936228Y-14547114D01*
X7007657Y-14547114D01*
X7050514Y-14561400D01*
X7079086Y-14589971D01*
X7093371Y-14618543D01*
X7107657Y-14675686D01*
X7107657Y-14718543D01*
X7093371Y-14775686D01*
X7079086Y-14804257D01*
X7050514Y-14832829D01*
X7007657Y-14847114D01*
X6936228Y-14847114D01*
X7236228Y-14847114D02*
X7236228Y-14647114D01*
X7236228Y-14704257D02*
X7250514Y-14675686D01*
X7264800Y-14661400D01*
X7293371Y-14647114D01*
X7321943Y-14647114D01*
X7421943Y-14847114D02*
X7421943Y-14647114D01*
X7421943Y-14547114D02*
X7407657Y-14561400D01*
X7421943Y-14575686D01*
X7436228Y-14561400D01*
X7421943Y-14547114D01*
X7421943Y-14575686D01*
X7607657Y-14847114D02*
X7579086Y-14832829D01*
X7564800Y-14804257D01*
X7564800Y-14547114D01*
X7764800Y-14847114D02*
X7736228Y-14832829D01*
X7721943Y-14804257D01*
X7721943Y-14547114D01*
X8107657Y-14847114D02*
X8107657Y-14547114D01*
X8207657Y-14761400D01*
X8307657Y-14547114D01*
X8307657Y-14847114D01*
X8579086Y-14847114D02*
X8579086Y-14689971D01*
X8564800Y-14661400D01*
X8536228Y-14647114D01*
X8479086Y-14647114D01*
X8450514Y-14661400D01*
X8579086Y-14832829D02*
X8550514Y-14847114D01*
X8479086Y-14847114D01*
X8450514Y-14832829D01*
X8436228Y-14804257D01*
X8436228Y-14775686D01*
X8450514Y-14747114D01*
X8479086Y-14732829D01*
X8550514Y-14732829D01*
X8579086Y-14718543D01*
X8721943Y-14647114D02*
X8721943Y-14947114D01*
X8721943Y-14661400D02*
X8750514Y-14647114D01*
X8807657Y-14647114D01*
X8836228Y-14661400D01*
X8850514Y-14675686D01*
X8864800Y-14704257D01*
X8864800Y-14789971D01*
X8850514Y-14818543D01*
X8836228Y-14832829D01*
X8807657Y-14847114D01*
X8750514Y-14847114D01*
X8721943Y-14832829D01*
X8993371Y-14818543D02*
X9007657Y-14832829D01*
X8993371Y-14847114D01*
X8979086Y-14832829D01*
X8993371Y-14818543D01*
X8993371Y-14847114D01*
X8993371Y-14661400D02*
X9007657Y-14675686D01*
X8993371Y-14689971D01*
X8979086Y-14675686D01*
X8993371Y-14661400D01*
X8993371Y-14689971D01*
X6579800Y-15306400D02*
X6649800Y-15376400D01*
X6649800Y-15306400D02*
X6579800Y-15376400D01*
X6993371Y-15177114D02*
X7021943Y-15177114D01*
X7050514Y-15191400D01*
X7064800Y-15205686D01*
X7079086Y-15234257D01*
X7093371Y-15291400D01*
X7093371Y-15362829D01*
X7079086Y-15419971D01*
X7064800Y-15448543D01*
X7050514Y-15462829D01*
X7021943Y-15477114D01*
X6993371Y-15477114D01*
X6964800Y-15462829D01*
X6950514Y-15448543D01*
X6936228Y-15419971D01*
X6921943Y-15362829D01*
X6921943Y-15291400D01*
X6936228Y-15234257D01*
X6950514Y-15205686D01*
X6964800Y-15191400D01*
X6993371Y-15177114D01*
X7221943Y-15448543D02*
X7236228Y-15462829D01*
X7221943Y-15477114D01*
X7207657Y-15462829D01*
X7221943Y-15448543D01*
X7221943Y-15477114D01*
X7336228Y-15177114D02*
X7536228Y-15177114D01*
X7407657Y-15477114D01*
X7707657Y-15177114D02*
X7736228Y-15177114D01*
X7764800Y-15191400D01*
X7779086Y-15205686D01*
X7793371Y-15234257D01*
X7807657Y-15291400D01*
X7807657Y-15362829D01*
X7793371Y-15419971D01*
X7779086Y-15448543D01*
X7764800Y-15462829D01*
X7736228Y-15477114D01*
X7707657Y-15477114D01*
X7679086Y-15462829D01*
X7664800Y-15448543D01*
X7650514Y-15419971D01*
X7636228Y-15362829D01*
X7636228Y-15291400D01*
X7650514Y-15234257D01*
X7664800Y-15205686D01*
X7679086Y-15191400D01*
X7707657Y-15177114D01*
X7936228Y-15477114D02*
X7936228Y-15277114D01*
X7936228Y-15305686D02*
X7950514Y-15291400D01*
X7979086Y-15277114D01*
X8021943Y-15277114D01*
X8050514Y-15291400D01*
X8064800Y-15319971D01*
X8064800Y-15477114D01*
X8064800Y-15319971D02*
X8079086Y-15291400D01*
X8107657Y-15277114D01*
X8150514Y-15277114D01*
X8179086Y-15291400D01*
X8193371Y-15319971D01*
X8193371Y-15477114D01*
X8336228Y-15477114D02*
X8336228Y-15277114D01*
X8336228Y-15305686D02*
X8350514Y-15291400D01*
X8379086Y-15277114D01*
X8421943Y-15277114D01*
X8450514Y-15291400D01*
X8464800Y-15319971D01*
X8464800Y-15477114D01*
X8464800Y-15319971D02*
X8479086Y-15291400D01*
X8507657Y-15277114D01*
X8550514Y-15277114D01*
X8579086Y-15291400D01*
X8593371Y-15319971D01*
X8593371Y-15477114D01*
X9179086Y-15162829D02*
X8921943Y-15548543D01*
X9564800Y-15177114D02*
X9593371Y-15177114D01*
X9621943Y-15191400D01*
X9636228Y-15205686D01*
X9650514Y-15234257D01*
X9664800Y-15291400D01*
X9664800Y-15362829D01*
X9650514Y-15419971D01*
X9636228Y-15448543D01*
X9621943Y-15462829D01*
X9593371Y-15477114D01*
X9564800Y-15477114D01*
X9536228Y-15462829D01*
X9521943Y-15448543D01*
X9507657Y-15419971D01*
X9493371Y-15362829D01*
X9493371Y-15291400D01*
X9507657Y-15234257D01*
X9521943Y-15205686D01*
X9536228Y-15191400D01*
X9564800Y-15177114D01*
X9793371Y-15448543D02*
X9807657Y-15462829D01*
X9793371Y-15477114D01*
X9779086Y-15462829D01*
X9793371Y-15448543D01*
X9793371Y-15477114D01*
X9993371Y-15177114D02*
X10021943Y-15177114D01*
X10050514Y-15191400D01*
X10064800Y-15205686D01*
X10079086Y-15234257D01*
X10093371Y-15291400D01*
X10093371Y-15362829D01*
X10079086Y-15419971D01*
X10064800Y-15448543D01*
X10050514Y-15462829D01*
X10021943Y-15477114D01*
X9993371Y-15477114D01*
X9964800Y-15462829D01*
X9950514Y-15448543D01*
X9936228Y-15419971D01*
X9921943Y-15362829D01*
X9921943Y-15291400D01*
X9936228Y-15234257D01*
X9950514Y-15205686D01*
X9964800Y-15191400D01*
X9993371Y-15177114D01*
X10207657Y-15205686D02*
X10221943Y-15191400D01*
X10250514Y-15177114D01*
X10321943Y-15177114D01*
X10350514Y-15191400D01*
X10364800Y-15205686D01*
X10379086Y-15234257D01*
X10379086Y-15262829D01*
X10364800Y-15305686D01*
X10193371Y-15477114D01*
X10379086Y-15477114D01*
X10550514Y-15305686D02*
X10521943Y-15291400D01*
X10507657Y-15277114D01*
X10493371Y-15248543D01*
X10493371Y-15234257D01*
X10507657Y-15205686D01*
X10521943Y-15191400D01*
X10550514Y-15177114D01*
X10607657Y-15177114D01*
X10636228Y-15191400D01*
X10650514Y-15205686D01*
X10664800Y-15234257D01*
X10664800Y-15248543D01*
X10650514Y-15277114D01*
X10636228Y-15291400D01*
X10607657Y-15305686D01*
X10550514Y-15305686D01*
X10521943Y-15319971D01*
X10507657Y-15334257D01*
X10493371Y-15362829D01*
X10493371Y-15419971D01*
X10507657Y-15448543D01*
X10521943Y-15462829D01*
X10550514Y-15477114D01*
X10607657Y-15477114D01*
X10636228Y-15462829D01*
X10650514Y-15448543D01*
X10664800Y-15419971D01*
X10664800Y-15362829D01*
X10650514Y-15334257D01*
X10636228Y-15319971D01*
X10607657Y-15305686D01*
X10779086Y-15177114D02*
X10779086Y-15234257D01*
X10893371Y-15177114D02*
X10893371Y-15234257D01*
X11336228Y-15591400D02*
X11321943Y-15577114D01*
X11293371Y-15534257D01*
X11279086Y-15505686D01*
X11264800Y-15462829D01*
X11250514Y-15391400D01*
X11250514Y-15334257D01*
X11264800Y-15262829D01*
X11279086Y-15219971D01*
X11293371Y-15191400D01*
X11321943Y-15148543D01*
X11336228Y-15134257D01*
X11593371Y-15177114D02*
X11450514Y-15177114D01*
X11436228Y-15319971D01*
X11450514Y-15305686D01*
X11479086Y-15291400D01*
X11550514Y-15291400D01*
X11579086Y-15305686D01*
X11593371Y-15319971D01*
X11607657Y-15348543D01*
X11607657Y-15419971D01*
X11593371Y-15448543D01*
X11579086Y-15462829D01*
X11550514Y-15477114D01*
X11479086Y-15477114D01*
X11450514Y-15462829D01*
X11436228Y-15448543D01*
X11779086Y-15305686D02*
X11750514Y-15291400D01*
X11736228Y-15277114D01*
X11721943Y-15248543D01*
X11721943Y-15234257D01*
X11736228Y-15205686D01*
X11750514Y-15191400D01*
X11779086Y-15177114D01*
X11836228Y-15177114D01*
X11864800Y-15191400D01*
X11879086Y-15205686D01*
X11893371Y-15234257D01*
X11893371Y-15248543D01*
X11879086Y-15277114D01*
X11864800Y-15291400D01*
X11836228Y-15305686D01*
X11779086Y-15305686D01*
X11750514Y-15319971D01*
X11736228Y-15334257D01*
X11721943Y-15362829D01*
X11721943Y-15419971D01*
X11736228Y-15448543D01*
X11750514Y-15462829D01*
X11779086Y-15477114D01*
X11836228Y-15477114D01*
X11864800Y-15462829D01*
X11879086Y-15448543D01*
X11893371Y-15419971D01*
X11893371Y-15362829D01*
X11879086Y-15334257D01*
X11864800Y-15319971D01*
X11836228Y-15305686D01*
X12250514Y-15477114D02*
X12250514Y-15177114D01*
X12379086Y-15477114D02*
X12379086Y-15319971D01*
X12364800Y-15291400D01*
X12336228Y-15277114D01*
X12293371Y-15277114D01*
X12264800Y-15291400D01*
X12250514Y-15305686D01*
X12564800Y-15477114D02*
X12536228Y-15462829D01*
X12521943Y-15448543D01*
X12507657Y-15419971D01*
X12507657Y-15334257D01*
X12521943Y-15305686D01*
X12536228Y-15291400D01*
X12564800Y-15277114D01*
X12607657Y-15277114D01*
X12636228Y-15291400D01*
X12650514Y-15305686D01*
X12664800Y-15334257D01*
X12664800Y-15419971D01*
X12650514Y-15448543D01*
X12636228Y-15462829D01*
X12607657Y-15477114D01*
X12564800Y-15477114D01*
X12836228Y-15477114D02*
X12807657Y-15462829D01*
X12793371Y-15434257D01*
X12793371Y-15177114D01*
X13064800Y-15462829D02*
X13036228Y-15477114D01*
X12979086Y-15477114D01*
X12950514Y-15462829D01*
X12936228Y-15434257D01*
X12936228Y-15319971D01*
X12950514Y-15291400D01*
X12979086Y-15277114D01*
X13036228Y-15277114D01*
X13064800Y-15291400D01*
X13079086Y-15319971D01*
X13079086Y-15348543D01*
X12936228Y-15377114D01*
X13193371Y-15462829D02*
X13221943Y-15477114D01*
X13279086Y-15477114D01*
X13307657Y-15462829D01*
X13321943Y-15434257D01*
X13321943Y-15419971D01*
X13307657Y-15391400D01*
X13279086Y-15377114D01*
X13236228Y-15377114D01*
X13207657Y-15362829D01*
X13193371Y-15334257D01*
X13193371Y-15319971D01*
X13207657Y-15291400D01*
X13236228Y-15277114D01*
X13279086Y-15277114D01*
X13307657Y-15291400D01*
X13421943Y-15591400D02*
X13436228Y-15577114D01*
X13464800Y-15534257D01*
X13479086Y-15505686D01*
X13493371Y-15462829D01*
X13507657Y-15391400D01*
X13507657Y-15334257D01*
X13493371Y-15262829D01*
X13479086Y-15219971D01*
X13464800Y-15191400D01*
X13436228Y-15148543D01*
X13421943Y-15134257D01*
X6649800Y-15737400D02*
G75*
G03X6649800Y-15737400I-50000J0D01*
G01*
X7093371Y-15873114D02*
X6921943Y-15873114D01*
X7007657Y-15873114D02*
X7007657Y-15573114D01*
X6979086Y-15615971D01*
X6950514Y-15644543D01*
X6921943Y-15658829D01*
X7221943Y-15844543D02*
X7236228Y-15858829D01*
X7221943Y-15873114D01*
X7207657Y-15858829D01*
X7221943Y-15844543D01*
X7221943Y-15873114D01*
X7421943Y-15573114D02*
X7450514Y-15573114D01*
X7479086Y-15587400D01*
X7493371Y-15601686D01*
X7507657Y-15630257D01*
X7521943Y-15687400D01*
X7521943Y-15758829D01*
X7507657Y-15815971D01*
X7493371Y-15844543D01*
X7479086Y-15858829D01*
X7450514Y-15873114D01*
X7421943Y-15873114D01*
X7393371Y-15858829D01*
X7379086Y-15844543D01*
X7364800Y-15815971D01*
X7350514Y-15758829D01*
X7350514Y-15687400D01*
X7364800Y-15630257D01*
X7379086Y-15601686D01*
X7393371Y-15587400D01*
X7421943Y-15573114D01*
X7707657Y-15573114D02*
X7736228Y-15573114D01*
X7764800Y-15587400D01*
X7779086Y-15601686D01*
X7793371Y-15630257D01*
X7807657Y-15687400D01*
X7807657Y-15758829D01*
X7793371Y-15815971D01*
X7779086Y-15844543D01*
X7764800Y-15858829D01*
X7736228Y-15873114D01*
X7707657Y-15873114D01*
X7679086Y-15858829D01*
X7664800Y-15844543D01*
X7650514Y-15815971D01*
X7636228Y-15758829D01*
X7636228Y-15687400D01*
X7650514Y-15630257D01*
X7664800Y-15601686D01*
X7679086Y-15587400D01*
X7707657Y-15573114D01*
X7936228Y-15873114D02*
X7936228Y-15673114D01*
X7936228Y-15701686D02*
X7950514Y-15687400D01*
X7979086Y-15673114D01*
X8021943Y-15673114D01*
X8050514Y-15687400D01*
X8064800Y-15715971D01*
X8064800Y-15873114D01*
X8064800Y-15715971D02*
X8079086Y-15687400D01*
X8107657Y-15673114D01*
X8150514Y-15673114D01*
X8179086Y-15687400D01*
X8193371Y-15715971D01*
X8193371Y-15873114D01*
X8336228Y-15873114D02*
X8336228Y-15673114D01*
X8336228Y-15701686D02*
X8350514Y-15687400D01*
X8379086Y-15673114D01*
X8421943Y-15673114D01*
X8450514Y-15687400D01*
X8464800Y-15715971D01*
X8464800Y-15873114D01*
X8464800Y-15715971D02*
X8479086Y-15687400D01*
X8507657Y-15673114D01*
X8550514Y-15673114D01*
X8579086Y-15687400D01*
X8593371Y-15715971D01*
X8593371Y-15873114D01*
X9179086Y-15558829D02*
X8921943Y-15944543D01*
X9564800Y-15573114D02*
X9593371Y-15573114D01*
X9621943Y-15587400D01*
X9636228Y-15601686D01*
X9650514Y-15630257D01*
X9664800Y-15687400D01*
X9664800Y-15758829D01*
X9650514Y-15815971D01*
X9636228Y-15844543D01*
X9621943Y-15858829D01*
X9593371Y-15873114D01*
X9564800Y-15873114D01*
X9536228Y-15858829D01*
X9521943Y-15844543D01*
X9507657Y-15815971D01*
X9493371Y-15758829D01*
X9493371Y-15687400D01*
X9507657Y-15630257D01*
X9521943Y-15601686D01*
X9536228Y-15587400D01*
X9564800Y-15573114D01*
X9793371Y-15844543D02*
X9807657Y-15858829D01*
X9793371Y-15873114D01*
X9779086Y-15858829D01*
X9793371Y-15844543D01*
X9793371Y-15873114D01*
X9993371Y-15573114D02*
X10021943Y-15573114D01*
X10050514Y-15587400D01*
X10064800Y-15601686D01*
X10079086Y-15630257D01*
X10093371Y-15687400D01*
X10093371Y-15758829D01*
X10079086Y-15815971D01*
X10064800Y-15844543D01*
X10050514Y-15858829D01*
X10021943Y-15873114D01*
X9993371Y-15873114D01*
X9964800Y-15858829D01*
X9950514Y-15844543D01*
X9936228Y-15815971D01*
X9921943Y-15758829D01*
X9921943Y-15687400D01*
X9936228Y-15630257D01*
X9950514Y-15601686D01*
X9964800Y-15587400D01*
X9993371Y-15573114D01*
X10193371Y-15573114D02*
X10379086Y-15573114D01*
X10279086Y-15687400D01*
X10321943Y-15687400D01*
X10350514Y-15701686D01*
X10364800Y-15715971D01*
X10379086Y-15744543D01*
X10379086Y-15815971D01*
X10364800Y-15844543D01*
X10350514Y-15858829D01*
X10321943Y-15873114D01*
X10236228Y-15873114D01*
X10207657Y-15858829D01*
X10193371Y-15844543D01*
X10521943Y-15873114D02*
X10579086Y-15873114D01*
X10607657Y-15858829D01*
X10621943Y-15844543D01*
X10650514Y-15801686D01*
X10664800Y-15744543D01*
X10664800Y-15630257D01*
X10650514Y-15601686D01*
X10636228Y-15587400D01*
X10607657Y-15573114D01*
X10550514Y-15573114D01*
X10521943Y-15587400D01*
X10507657Y-15601686D01*
X10493371Y-15630257D01*
X10493371Y-15701686D01*
X10507657Y-15730257D01*
X10521943Y-15744543D01*
X10550514Y-15758829D01*
X10607657Y-15758829D01*
X10636228Y-15744543D01*
X10650514Y-15730257D01*
X10664800Y-15701686D01*
X10779086Y-15573114D02*
X10779086Y-15630257D01*
X10893371Y-15573114D02*
X10893371Y-15630257D01*
X11336228Y-15987400D02*
X11321943Y-15973114D01*
X11293371Y-15930257D01*
X11279086Y-15901686D01*
X11264800Y-15858829D01*
X11250514Y-15787400D01*
X11250514Y-15730257D01*
X11264800Y-15658829D01*
X11279086Y-15615971D01*
X11293371Y-15587400D01*
X11321943Y-15544543D01*
X11336228Y-15530257D01*
X11579086Y-15673114D02*
X11579086Y-15873114D01*
X11507657Y-15558829D02*
X11436228Y-15773114D01*
X11621943Y-15773114D01*
X11893371Y-15873114D02*
X11721943Y-15873114D01*
X11807657Y-15873114D02*
X11807657Y-15573114D01*
X11779086Y-15615971D01*
X11750514Y-15644543D01*
X11721943Y-15658829D01*
X12250514Y-15873114D02*
X12250514Y-15573114D01*
X12379086Y-15873114D02*
X12379086Y-15715971D01*
X12364800Y-15687400D01*
X12336228Y-15673114D01*
X12293371Y-15673114D01*
X12264800Y-15687400D01*
X12250514Y-15701686D01*
X12564800Y-15873114D02*
X12536228Y-15858829D01*
X12521943Y-15844543D01*
X12507657Y-15815971D01*
X12507657Y-15730257D01*
X12521943Y-15701686D01*
X12536228Y-15687400D01*
X12564800Y-15673114D01*
X12607657Y-15673114D01*
X12636228Y-15687400D01*
X12650514Y-15701686D01*
X12664800Y-15730257D01*
X12664800Y-15815971D01*
X12650514Y-15844543D01*
X12636228Y-15858829D01*
X12607657Y-15873114D01*
X12564800Y-15873114D01*
X12836228Y-15873114D02*
X12807657Y-15858829D01*
X12793371Y-15830257D01*
X12793371Y-15573114D01*
X13064800Y-15858829D02*
X13036228Y-15873114D01*
X12979086Y-15873114D01*
X12950514Y-15858829D01*
X12936228Y-15830257D01*
X12936228Y-15715971D01*
X12950514Y-15687400D01*
X12979086Y-15673114D01*
X13036228Y-15673114D01*
X13064800Y-15687400D01*
X13079086Y-15715971D01*
X13079086Y-15744543D01*
X12936228Y-15773114D01*
X13193371Y-15858829D02*
X13221943Y-15873114D01*
X13279086Y-15873114D01*
X13307657Y-15858829D01*
X13321943Y-15830257D01*
X13321943Y-15815971D01*
X13307657Y-15787400D01*
X13279086Y-15773114D01*
X13236228Y-15773114D01*
X13207657Y-15758829D01*
X13193371Y-15730257D01*
X13193371Y-15715971D01*
X13207657Y-15687400D01*
X13236228Y-15673114D01*
X13279086Y-15673114D01*
X13307657Y-15687400D01*
X13421943Y-15987400D02*
X13436228Y-15973114D01*
X13464800Y-15930257D01*
X13479086Y-15901686D01*
X13493371Y-15858829D01*
X13507657Y-15787400D01*
X13507657Y-15730257D01*
X13493371Y-15658829D01*
X13479086Y-15615971D01*
X13464800Y-15587400D01*
X13436228Y-15544543D01*
X13421943Y-15530257D01*
X6594800Y-16078400D02*
X6594800Y-16188400D01*
X6539800Y-16133400D02*
X6649800Y-16133400D01*
X7093371Y-16269114D02*
X6921943Y-16269114D01*
X7007657Y-16269114D02*
X7007657Y-15969114D01*
X6979086Y-16011971D01*
X6950514Y-16040543D01*
X6921943Y-16054829D01*
X7221943Y-16240543D02*
X7236228Y-16254829D01*
X7221943Y-16269114D01*
X7207657Y-16254829D01*
X7221943Y-16240543D01*
X7221943Y-16269114D01*
X7521943Y-16269114D02*
X7350514Y-16269114D01*
X7436228Y-16269114D02*
X7436228Y-15969114D01*
X7407657Y-16011971D01*
X7379086Y-16040543D01*
X7350514Y-16054829D01*
X7707657Y-15969114D02*
X7736228Y-15969114D01*
X7764800Y-15983400D01*
X7779086Y-15997686D01*
X7793371Y-16026257D01*
X7807657Y-16083400D01*
X7807657Y-16154829D01*
X7793371Y-16211971D01*
X7779086Y-16240543D01*
X7764800Y-16254829D01*
X7736228Y-16269114D01*
X7707657Y-16269114D01*
X7679086Y-16254829D01*
X7664800Y-16240543D01*
X7650514Y-16211971D01*
X7636228Y-16154829D01*
X7636228Y-16083400D01*
X7650514Y-16026257D01*
X7664800Y-15997686D01*
X7679086Y-15983400D01*
X7707657Y-15969114D01*
X7936228Y-16269114D02*
X7936228Y-16069114D01*
X7936228Y-16097686D02*
X7950514Y-16083400D01*
X7979086Y-16069114D01*
X8021943Y-16069114D01*
X8050514Y-16083400D01*
X8064800Y-16111971D01*
X8064800Y-16269114D01*
X8064800Y-16111971D02*
X8079086Y-16083400D01*
X8107657Y-16069114D01*
X8150514Y-16069114D01*
X8179086Y-16083400D01*
X8193371Y-16111971D01*
X8193371Y-16269114D01*
X8336228Y-16269114D02*
X8336228Y-16069114D01*
X8336228Y-16097686D02*
X8350514Y-16083400D01*
X8379086Y-16069114D01*
X8421943Y-16069114D01*
X8450514Y-16083400D01*
X8464800Y-16111971D01*
X8464800Y-16269114D01*
X8464800Y-16111971D02*
X8479086Y-16083400D01*
X8507657Y-16069114D01*
X8550514Y-16069114D01*
X8579086Y-16083400D01*
X8593371Y-16111971D01*
X8593371Y-16269114D01*
X9179086Y-15954829D02*
X8921943Y-16340543D01*
X9564800Y-15969114D02*
X9593371Y-15969114D01*
X9621943Y-15983400D01*
X9636228Y-15997686D01*
X9650514Y-16026257D01*
X9664800Y-16083400D01*
X9664800Y-16154829D01*
X9650514Y-16211971D01*
X9636228Y-16240543D01*
X9621943Y-16254829D01*
X9593371Y-16269114D01*
X9564800Y-16269114D01*
X9536228Y-16254829D01*
X9521943Y-16240543D01*
X9507657Y-16211971D01*
X9493371Y-16154829D01*
X9493371Y-16083400D01*
X9507657Y-16026257D01*
X9521943Y-15997686D01*
X9536228Y-15983400D01*
X9564800Y-15969114D01*
X9793371Y-16240543D02*
X9807657Y-16254829D01*
X9793371Y-16269114D01*
X9779086Y-16254829D01*
X9793371Y-16240543D01*
X9793371Y-16269114D01*
X9993371Y-15969114D02*
X10021943Y-15969114D01*
X10050514Y-15983400D01*
X10064800Y-15997686D01*
X10079086Y-16026257D01*
X10093371Y-16083400D01*
X10093371Y-16154829D01*
X10079086Y-16211971D01*
X10064800Y-16240543D01*
X10050514Y-16254829D01*
X10021943Y-16269114D01*
X9993371Y-16269114D01*
X9964800Y-16254829D01*
X9950514Y-16240543D01*
X9936228Y-16211971D01*
X9921943Y-16154829D01*
X9921943Y-16083400D01*
X9936228Y-16026257D01*
X9950514Y-15997686D01*
X9964800Y-15983400D01*
X9993371Y-15969114D01*
X10350514Y-16069114D02*
X10350514Y-16269114D01*
X10279086Y-15954829D02*
X10207657Y-16169114D01*
X10393371Y-16169114D01*
X10479086Y-15969114D02*
X10664800Y-15969114D01*
X10564800Y-16083400D01*
X10607657Y-16083400D01*
X10636228Y-16097686D01*
X10650514Y-16111971D01*
X10664800Y-16140543D01*
X10664800Y-16211971D01*
X10650514Y-16240543D01*
X10636228Y-16254829D01*
X10607657Y-16269114D01*
X10521943Y-16269114D01*
X10493371Y-16254829D01*
X10479086Y-16240543D01*
X10779086Y-15969114D02*
X10779086Y-16026257D01*
X10893371Y-15969114D02*
X10893371Y-16026257D01*
X11336228Y-16383400D02*
X11321943Y-16369114D01*
X11293371Y-16326257D01*
X11279086Y-16297686D01*
X11264800Y-16254829D01*
X11250514Y-16183400D01*
X11250514Y-16126257D01*
X11264800Y-16054829D01*
X11279086Y-16011971D01*
X11293371Y-15983400D01*
X11321943Y-15940543D01*
X11336228Y-15926257D01*
X11579086Y-16069114D02*
X11579086Y-16269114D01*
X11507657Y-15954829D02*
X11436228Y-16169114D01*
X11621943Y-16169114D01*
X11964800Y-16269114D02*
X11964800Y-15969114D01*
X12093371Y-16269114D02*
X12093371Y-16111971D01*
X12079086Y-16083400D01*
X12050514Y-16069114D01*
X12007657Y-16069114D01*
X11979086Y-16083400D01*
X11964800Y-16097686D01*
X12279086Y-16269114D02*
X12250514Y-16254829D01*
X12236228Y-16240543D01*
X12221943Y-16211971D01*
X12221943Y-16126257D01*
X12236228Y-16097686D01*
X12250514Y-16083400D01*
X12279086Y-16069114D01*
X12321943Y-16069114D01*
X12350514Y-16083400D01*
X12364800Y-16097686D01*
X12379086Y-16126257D01*
X12379086Y-16211971D01*
X12364800Y-16240543D01*
X12350514Y-16254829D01*
X12321943Y-16269114D01*
X12279086Y-16269114D01*
X12550514Y-16269114D02*
X12521943Y-16254829D01*
X12507657Y-16226257D01*
X12507657Y-15969114D01*
X12779086Y-16254829D02*
X12750514Y-16269114D01*
X12693371Y-16269114D01*
X12664800Y-16254829D01*
X12650514Y-16226257D01*
X12650514Y-16111971D01*
X12664800Y-16083400D01*
X12693371Y-16069114D01*
X12750514Y-16069114D01*
X12779086Y-16083400D01*
X12793371Y-16111971D01*
X12793371Y-16140543D01*
X12650514Y-16169114D01*
X12907657Y-16254829D02*
X12936228Y-16269114D01*
X12993371Y-16269114D01*
X13021943Y-16254829D01*
X13036228Y-16226257D01*
X13036228Y-16211971D01*
X13021943Y-16183400D01*
X12993371Y-16169114D01*
X12950514Y-16169114D01*
X12921943Y-16154829D01*
X12907657Y-16126257D01*
X12907657Y-16111971D01*
X12921943Y-16083400D01*
X12950514Y-16069114D01*
X12993371Y-16069114D01*
X13021943Y-16083400D01*
X13136228Y-16383400D02*
X13150514Y-16369114D01*
X13179086Y-16326257D01*
X13193371Y-16297686D01*
X13207657Y-16254829D01*
X13221943Y-16183400D01*
X13221943Y-16126257D01*
X13207657Y-16054829D01*
X13193371Y-16011971D01*
X13179086Y-15983400D01*
X13150514Y-15940543D01*
X13136228Y-15926257D01*
M02*
