M48
;DRILL file {KiCad no-vcs-found-undefined} date Mon Oct 24 17:52:03 2016
;FORMAT={3:3/ absolute / metric / suppress leading zeros}
FMAT,2
METRIC,TZ
T1C0.700
T2C0.800
T3C1.016
T4C1.200
T5C1.524
%
G90
G05
M71
T1
X78486Y-91694
X86106Y-91694
X92456Y-76708
X92456Y-85852
X112522Y-91948
X120142Y-91948
X125730Y-76708
X125730Y-85852
X134620Y-91948
X142240Y-91948
X146558Y-113604
X146558Y-133604
X147828Y-76708
X147828Y-85852
X153162Y-113604
X153162Y-133604
X156464Y-92710
X159766Y-113604
X159766Y-133604
X164084Y-92710
X166370Y-113604
X166370Y-133604
X170180Y-76708
X170180Y-85852
X172974Y-113604
X172974Y-133604
X177546Y-92202
X179578Y-113538
X179578Y-133538
X185166Y-92202
X192278Y-76708
X192278Y-85852
X210566Y-89154
X213360Y-114808
X213360Y-117348
X213360Y-125476
X213360Y-129286
X213360Y-132842
X213360Y-135382
X218186Y-89154
X220980Y-114808
X220980Y-117348
X220980Y-125476
X220980Y-129286
X220980Y-132842
X220980Y-135382
T2
X146558Y-135641
X146558Y-139446
X153162Y-135641
X153162Y-139446
X159766Y-135641
X159766Y-139446
X166370Y-135641
X166370Y-139446
X172974Y-135641
X172974Y-139446
X179618Y-135641
X179618Y-139446
T3
X70866Y-86614
X73406Y-86614
T4
X77470Y-98298
X77470Y-100834
X77470Y-103334
X77470Y-105834
X77470Y-108334
X77470Y-110834
X81088Y-85852
X83588Y-85852
X86128Y-85852
X115088Y-85852
X117588Y-85852
X120128Y-85852
X137128Y-85852
X139628Y-85852
X142168Y-85852
X159128Y-85852
X161628Y-85852
X164168Y-85852
X180088Y-85852
X182588Y-85852
X185128Y-85852
X208026Y-121412
X208026Y-123948
X208026Y-126448
X208026Y-128948
X208026Y-131449
X208026Y-133949
X213128Y-85852
X215628Y-85852
X218168Y-85852
X225044Y-105450
X225044Y-107950
X225044Y-110490
X225298Y-117896
X225298Y-120396
X225298Y-122936
X225298Y-130342
X225298Y-132842
X225298Y-135382
T5
X230124Y-83566
X230124Y-88646
X230124Y-93726
X230124Y-98806
T0
M30
