G04 #@! TF.FileFunction,Other,Fab,Top*
%FSLAX46Y46*%
G04 Gerber Fmt 4.6, Leading zero omitted, Abs format (unit mm)*
G04 Created by KiCad (PCBNEW no-vcs-found-undefined) date Fri Oct 28 12:41:03 2016*
%MOMM*%
%LPD*%
G01*
G04 APERTURE LIST*
%ADD10C,0.050000*%
%ADD11C,0.120000*%
%ADD12C,0.300000*%
%ADD13C,0.200000*%
%ADD14C,0.150000*%
G04 APERTURE END LIST*
D10*
D11*
X103552666Y-89876380D02*
X103552666Y-90590666D01*
X103505047Y-90733523D01*
X103409809Y-90828761D01*
X103266952Y-90876380D01*
X103171714Y-90876380D01*
X104076476Y-90876380D02*
X104266952Y-90876380D01*
X104362190Y-90828761D01*
X104409809Y-90781142D01*
X104505047Y-90638285D01*
X104552666Y-90447809D01*
X104552666Y-90066857D01*
X104505047Y-89971619D01*
X104457428Y-89924000D01*
X104362190Y-89876380D01*
X104171714Y-89876380D01*
X104076476Y-89924000D01*
X104028857Y-89971619D01*
X103981238Y-90066857D01*
X103981238Y-90304952D01*
X104028857Y-90400190D01*
X104076476Y-90447809D01*
X104171714Y-90495428D01*
X104362190Y-90495428D01*
X104457428Y-90447809D01*
X104505047Y-90400190D01*
X104552666Y-90304952D01*
X101012666Y-89876380D02*
X101012666Y-90590666D01*
X100965047Y-90733523D01*
X100869809Y-90828761D01*
X100726952Y-90876380D01*
X100631714Y-90876380D01*
X101631714Y-90304952D02*
X101536476Y-90257333D01*
X101488857Y-90209714D01*
X101441238Y-90114476D01*
X101441238Y-90066857D01*
X101488857Y-89971619D01*
X101536476Y-89924000D01*
X101631714Y-89876380D01*
X101822190Y-89876380D01*
X101917428Y-89924000D01*
X101965047Y-89971619D01*
X102012666Y-90066857D01*
X102012666Y-90114476D01*
X101965047Y-90209714D01*
X101917428Y-90257333D01*
X101822190Y-90304952D01*
X101631714Y-90304952D01*
X101536476Y-90352571D01*
X101488857Y-90400190D01*
X101441238Y-90495428D01*
X101441238Y-90685904D01*
X101488857Y-90781142D01*
X101536476Y-90828761D01*
X101631714Y-90876380D01*
X101822190Y-90876380D01*
X101917428Y-90828761D01*
X101965047Y-90781142D01*
X102012666Y-90685904D01*
X102012666Y-90495428D01*
X101965047Y-90400190D01*
X101917428Y-90352571D01*
X101822190Y-90304952D01*
X98472666Y-89876380D02*
X98472666Y-90590666D01*
X98425047Y-90733523D01*
X98329809Y-90828761D01*
X98186952Y-90876380D01*
X98091714Y-90876380D01*
X98853619Y-89876380D02*
X99520285Y-89876380D01*
X99091714Y-90876380D01*
X95932666Y-89876380D02*
X95932666Y-90590666D01*
X95885047Y-90733523D01*
X95789809Y-90828761D01*
X95646952Y-90876380D01*
X95551714Y-90876380D01*
X96837428Y-89876380D02*
X96646952Y-89876380D01*
X96551714Y-89924000D01*
X96504095Y-89971619D01*
X96408857Y-90114476D01*
X96361238Y-90304952D01*
X96361238Y-90685904D01*
X96408857Y-90781142D01*
X96456476Y-90828761D01*
X96551714Y-90876380D01*
X96742190Y-90876380D01*
X96837428Y-90828761D01*
X96885047Y-90781142D01*
X96932666Y-90685904D01*
X96932666Y-90447809D01*
X96885047Y-90352571D01*
X96837428Y-90304952D01*
X96742190Y-90257333D01*
X96551714Y-90257333D01*
X96456476Y-90304952D01*
X96408857Y-90352571D01*
X96361238Y-90447809D01*
D12*
X88786571Y-130467571D02*
X88786571Y-128967571D01*
X89358000Y-128967571D01*
X89500857Y-129039000D01*
X89572285Y-129110428D01*
X89643714Y-129253285D01*
X89643714Y-129467571D01*
X89572285Y-129610428D01*
X89500857Y-129681857D01*
X89358000Y-129753285D01*
X88786571Y-129753285D01*
X90143714Y-129467571D02*
X90500857Y-130467571D01*
X90858000Y-129467571D02*
X90500857Y-130467571D01*
X90358000Y-130824714D01*
X90286571Y-130896142D01*
X90143714Y-130967571D01*
X92215142Y-129039000D02*
X92072285Y-128967571D01*
X91858000Y-128967571D01*
X91643714Y-129039000D01*
X91500857Y-129181857D01*
X91429428Y-129324714D01*
X91358000Y-129610428D01*
X91358000Y-129824714D01*
X91429428Y-130110428D01*
X91500857Y-130253285D01*
X91643714Y-130396142D01*
X91858000Y-130467571D01*
X92000857Y-130467571D01*
X92215142Y-130396142D01*
X92286571Y-130324714D01*
X92286571Y-129824714D01*
X92000857Y-129824714D01*
X93572285Y-129467571D02*
X93572285Y-130467571D01*
X92929428Y-129467571D02*
X92929428Y-130253285D01*
X93000857Y-130396142D01*
X93143714Y-130467571D01*
X93358000Y-130467571D01*
X93500857Y-130396142D01*
X93572285Y-130324714D01*
X94286571Y-130467571D02*
X94286571Y-129467571D01*
X94286571Y-128967571D02*
X94215142Y-129039000D01*
X94286571Y-129110428D01*
X94358000Y-129039000D01*
X94286571Y-128967571D01*
X94286571Y-129110428D01*
X94786571Y-129467571D02*
X95358000Y-129467571D01*
X95000857Y-128967571D02*
X95000857Y-130253285D01*
X95072285Y-130396142D01*
X95215142Y-130467571D01*
X95358000Y-130467571D01*
X96500857Y-130467571D02*
X96500857Y-129681857D01*
X96429428Y-129539000D01*
X96286571Y-129467571D01*
X96000857Y-129467571D01*
X95858000Y-129539000D01*
X96500857Y-130396142D02*
X96358000Y-130467571D01*
X96000857Y-130467571D01*
X95858000Y-130396142D01*
X95786571Y-130253285D01*
X95786571Y-130110428D01*
X95858000Y-129967571D01*
X96000857Y-129896142D01*
X96358000Y-129896142D01*
X96500857Y-129824714D01*
X97215142Y-130467571D02*
X97215142Y-129467571D01*
X97215142Y-129753285D02*
X97286571Y-129610428D01*
X97358000Y-129539000D01*
X97500857Y-129467571D01*
X97643714Y-129467571D01*
X99286571Y-130467571D02*
X99286571Y-128967571D01*
X99858000Y-128967571D01*
X100000857Y-129039000D01*
X100072285Y-129110428D01*
X100143714Y-129253285D01*
X100143714Y-129467571D01*
X100072285Y-129610428D01*
X100000857Y-129681857D01*
X99858000Y-129753285D01*
X99286571Y-129753285D01*
X101358000Y-130396142D02*
X101215142Y-130467571D01*
X100929428Y-130467571D01*
X100786571Y-130396142D01*
X100715142Y-130253285D01*
X100715142Y-129681857D01*
X100786571Y-129539000D01*
X100929428Y-129467571D01*
X101215142Y-129467571D01*
X101358000Y-129539000D01*
X101429428Y-129681857D01*
X101429428Y-129824714D01*
X100715142Y-129967571D01*
X102072285Y-130467571D02*
X102072285Y-129467571D01*
X102072285Y-129753285D02*
X102143714Y-129610428D01*
X102215142Y-129539000D01*
X102358000Y-129467571D01*
X102500857Y-129467571D01*
X103000857Y-130467571D02*
X103000857Y-129467571D01*
X103000857Y-128967571D02*
X102929428Y-129039000D01*
X103000857Y-129110428D01*
X103072285Y-129039000D01*
X103000857Y-128967571D01*
X103000857Y-129110428D01*
X103715142Y-129467571D02*
X103715142Y-130967571D01*
X103715142Y-129539000D02*
X103858000Y-129467571D01*
X104143714Y-129467571D01*
X104286571Y-129539000D01*
X104358000Y-129610428D01*
X104429428Y-129753285D01*
X104429428Y-130181857D01*
X104358000Y-130324714D01*
X104286571Y-130396142D01*
X104143714Y-130467571D01*
X103858000Y-130467571D01*
X103715142Y-130396142D01*
X105072285Y-130467571D02*
X105072285Y-128967571D01*
X105715142Y-130467571D02*
X105715142Y-129681857D01*
X105643714Y-129539000D01*
X105500857Y-129467571D01*
X105286571Y-129467571D01*
X105143714Y-129539000D01*
X105072285Y-129610428D01*
X107000857Y-130396142D02*
X106858000Y-130467571D01*
X106572285Y-130467571D01*
X106429428Y-130396142D01*
X106358000Y-130253285D01*
X106358000Y-129681857D01*
X106429428Y-129539000D01*
X106572285Y-129467571D01*
X106858000Y-129467571D01*
X107000857Y-129539000D01*
X107072285Y-129681857D01*
X107072285Y-129824714D01*
X106358000Y-129967571D01*
X107715142Y-130467571D02*
X107715142Y-129467571D01*
X107715142Y-129753285D02*
X107786571Y-129610428D01*
X107858000Y-129539000D01*
X108000857Y-129467571D01*
X108143714Y-129467571D01*
X109286571Y-130467571D02*
X109286571Y-129681857D01*
X109215142Y-129539000D01*
X109072285Y-129467571D01*
X108786571Y-129467571D01*
X108643714Y-129539000D01*
X109286571Y-130396142D02*
X109143714Y-130467571D01*
X108786571Y-130467571D01*
X108643714Y-130396142D01*
X108572285Y-130253285D01*
X108572285Y-130110428D01*
X108643714Y-129967571D01*
X108786571Y-129896142D01*
X109143714Y-129896142D01*
X109286571Y-129824714D01*
X110215142Y-130467571D02*
X110072285Y-130396142D01*
X110000857Y-130253285D01*
X110000857Y-128967571D01*
X110715142Y-130396142D02*
X110858000Y-130467571D01*
X111143714Y-130467571D01*
X111286571Y-130396142D01*
X111358000Y-130253285D01*
X111358000Y-130181857D01*
X111286571Y-130039000D01*
X111143714Y-129967571D01*
X110929428Y-129967571D01*
X110786571Y-129896142D01*
X110715142Y-129753285D01*
X110715142Y-129681857D01*
X110786571Y-129539000D01*
X110929428Y-129467571D01*
X111143714Y-129467571D01*
X111286571Y-129539000D01*
X114358000Y-130467571D02*
X114286571Y-130467571D01*
X114143714Y-130396142D01*
X113929428Y-130181857D01*
X113572285Y-129753285D01*
X113429428Y-129539000D01*
X113358000Y-129324714D01*
X113358000Y-129181857D01*
X113429428Y-129039000D01*
X113572285Y-128967571D01*
X113643714Y-128967571D01*
X113786571Y-129039000D01*
X113858000Y-129181857D01*
X113858000Y-129253285D01*
X113786571Y-129396142D01*
X113715142Y-129467571D01*
X113286571Y-129753285D01*
X113215142Y-129824714D01*
X113143714Y-129967571D01*
X113143714Y-130181857D01*
X113215142Y-130324714D01*
X113286571Y-130396142D01*
X113429428Y-130467571D01*
X113643714Y-130467571D01*
X113786571Y-130396142D01*
X113858000Y-130324714D01*
X114072285Y-130039000D01*
X114143714Y-129824714D01*
X114143714Y-129681857D01*
X88286571Y-133017571D02*
X88286571Y-131517571D01*
X88858000Y-131517571D01*
X89000857Y-131589000D01*
X89072285Y-131660428D01*
X89143714Y-131803285D01*
X89143714Y-132017571D01*
X89072285Y-132160428D01*
X89000857Y-132231857D01*
X88858000Y-132303285D01*
X88286571Y-132303285D01*
X90000857Y-133017571D02*
X89858000Y-132946142D01*
X89786571Y-132874714D01*
X89715142Y-132731857D01*
X89715142Y-132303285D01*
X89786571Y-132160428D01*
X89858000Y-132089000D01*
X90000857Y-132017571D01*
X90215142Y-132017571D01*
X90358000Y-132089000D01*
X90429428Y-132160428D01*
X90500857Y-132303285D01*
X90500857Y-132731857D01*
X90429428Y-132874714D01*
X90358000Y-132946142D01*
X90215142Y-133017571D01*
X90000857Y-133017571D01*
X91000857Y-132017571D02*
X91286571Y-133017571D01*
X91572285Y-132303285D01*
X91858000Y-133017571D01*
X92143714Y-132017571D01*
X93286571Y-132946142D02*
X93143714Y-133017571D01*
X92858000Y-133017571D01*
X92715142Y-132946142D01*
X92643714Y-132803285D01*
X92643714Y-132231857D01*
X92715142Y-132089000D01*
X92858000Y-132017571D01*
X93143714Y-132017571D01*
X93286571Y-132089000D01*
X93358000Y-132231857D01*
X93358000Y-132374714D01*
X92643714Y-132517571D01*
X94000857Y-133017571D02*
X94000857Y-132017571D01*
X94000857Y-132303285D02*
X94072285Y-132160428D01*
X94143714Y-132089000D01*
X94286571Y-132017571D01*
X94429428Y-132017571D01*
X96072285Y-133017571D02*
X96072285Y-131517571D01*
X96429428Y-131517571D01*
X96643714Y-131589000D01*
X96786571Y-131731857D01*
X96858000Y-131874714D01*
X96929428Y-132160428D01*
X96929428Y-132374714D01*
X96858000Y-132660428D01*
X96786571Y-132803285D01*
X96643714Y-132946142D01*
X96429428Y-133017571D01*
X96072285Y-133017571D01*
X97572285Y-133017571D02*
X97572285Y-132017571D01*
X97572285Y-131517571D02*
X97500857Y-131589000D01*
X97572285Y-131660428D01*
X97643714Y-131589000D01*
X97572285Y-131517571D01*
X97572285Y-131660428D01*
X98215142Y-132946142D02*
X98358000Y-133017571D01*
X98643714Y-133017571D01*
X98786571Y-132946142D01*
X98858000Y-132803285D01*
X98858000Y-132731857D01*
X98786571Y-132589000D01*
X98643714Y-132517571D01*
X98429428Y-132517571D01*
X98286571Y-132446142D01*
X98215142Y-132303285D01*
X98215142Y-132231857D01*
X98286571Y-132089000D01*
X98429428Y-132017571D01*
X98643714Y-132017571D01*
X98786571Y-132089000D01*
X99286571Y-132017571D02*
X99858000Y-132017571D01*
X99500857Y-131517571D02*
X99500857Y-132803285D01*
X99572285Y-132946142D01*
X99715142Y-133017571D01*
X99858000Y-133017571D01*
X100358000Y-133017571D02*
X100358000Y-132017571D01*
X100358000Y-132303285D02*
X100429428Y-132160428D01*
X100500857Y-132089000D01*
X100643714Y-132017571D01*
X100786571Y-132017571D01*
X101286571Y-133017571D02*
X101286571Y-132017571D01*
X101286571Y-131517571D02*
X101215142Y-131589000D01*
X101286571Y-131660428D01*
X101358000Y-131589000D01*
X101286571Y-131517571D01*
X101286571Y-131660428D01*
X102000857Y-133017571D02*
X102000857Y-131517571D01*
X102000857Y-132089000D02*
X102143714Y-132017571D01*
X102429428Y-132017571D01*
X102572285Y-132089000D01*
X102643714Y-132160428D01*
X102715142Y-132303285D01*
X102715142Y-132731857D01*
X102643714Y-132874714D01*
X102572285Y-132946142D01*
X102429428Y-133017571D01*
X102143714Y-133017571D01*
X102000857Y-132946142D01*
X104000857Y-132017571D02*
X104000857Y-133017571D01*
X103358000Y-132017571D02*
X103358000Y-132803285D01*
X103429428Y-132946142D01*
X103572285Y-133017571D01*
X103786571Y-133017571D01*
X103929428Y-132946142D01*
X104000857Y-132874714D01*
X104500857Y-132017571D02*
X105072285Y-132017571D01*
X104715142Y-131517571D02*
X104715142Y-132803285D01*
X104786571Y-132946142D01*
X104929428Y-133017571D01*
X105072285Y-133017571D01*
X105572285Y-133017571D02*
X105572285Y-132017571D01*
X105572285Y-131517571D02*
X105500857Y-131589000D01*
X105572285Y-131660428D01*
X105643714Y-131589000D01*
X105572285Y-131517571D01*
X105572285Y-131660428D01*
X106500857Y-133017571D02*
X106358000Y-132946142D01*
X106286571Y-132874714D01*
X106215142Y-132731857D01*
X106215142Y-132303285D01*
X106286571Y-132160428D01*
X106358000Y-132089000D01*
X106500857Y-132017571D01*
X106715142Y-132017571D01*
X106858000Y-132089000D01*
X106929428Y-132160428D01*
X107000857Y-132303285D01*
X107000857Y-132731857D01*
X106929428Y-132874714D01*
X106858000Y-132946142D01*
X106715142Y-133017571D01*
X106500857Y-133017571D01*
X107643714Y-132017571D02*
X107643714Y-133017571D01*
X107643714Y-132160428D02*
X107715142Y-132089000D01*
X107858000Y-132017571D01*
X108072285Y-132017571D01*
X108215142Y-132089000D01*
X108286571Y-132231857D01*
X108286571Y-133017571D01*
X110643714Y-132231857D02*
X110858000Y-132303285D01*
X110929428Y-132374714D01*
X111000857Y-132517571D01*
X111000857Y-132731857D01*
X110929428Y-132874714D01*
X110858000Y-132946142D01*
X110715142Y-133017571D01*
X110143714Y-133017571D01*
X110143714Y-131517571D01*
X110643714Y-131517571D01*
X110786571Y-131589000D01*
X110858000Y-131660428D01*
X110929428Y-131803285D01*
X110929428Y-131946142D01*
X110858000Y-132089000D01*
X110786571Y-132160428D01*
X110643714Y-132231857D01*
X110143714Y-132231857D01*
X111858000Y-133017571D02*
X111715142Y-132946142D01*
X111643714Y-132874714D01*
X111572285Y-132731857D01*
X111572285Y-132303285D01*
X111643714Y-132160428D01*
X111715142Y-132089000D01*
X111858000Y-132017571D01*
X112072285Y-132017571D01*
X112215142Y-132089000D01*
X112286571Y-132160428D01*
X112358000Y-132303285D01*
X112358000Y-132731857D01*
X112286571Y-132874714D01*
X112215142Y-132946142D01*
X112072285Y-133017571D01*
X111858000Y-133017571D01*
X113643714Y-133017571D02*
X113643714Y-132231857D01*
X113572285Y-132089000D01*
X113429428Y-132017571D01*
X113143714Y-132017571D01*
X113000857Y-132089000D01*
X113643714Y-132946142D02*
X113500857Y-133017571D01*
X113143714Y-133017571D01*
X113000857Y-132946142D01*
X112929428Y-132803285D01*
X112929428Y-132660428D01*
X113000857Y-132517571D01*
X113143714Y-132446142D01*
X113500857Y-132446142D01*
X113643714Y-132374714D01*
X114358000Y-133017571D02*
X114358000Y-132017571D01*
X114358000Y-132303285D02*
X114429428Y-132160428D01*
X114500857Y-132089000D01*
X114643714Y-132017571D01*
X114786571Y-132017571D01*
X115929428Y-133017571D02*
X115929428Y-131517571D01*
X115929428Y-132946142D02*
X115786571Y-133017571D01*
X115500857Y-133017571D01*
X115358000Y-132946142D01*
X115286571Y-132874714D01*
X115215142Y-132731857D01*
X115215142Y-132303285D01*
X115286571Y-132160428D01*
X115358000Y-132089000D01*
X115500857Y-132017571D01*
X115786571Y-132017571D01*
X115929428Y-132089000D01*
D11*
X146732666Y-75398380D02*
X146732666Y-76112666D01*
X146685047Y-76255523D01*
X146589809Y-76350761D01*
X146446952Y-76398380D01*
X146351714Y-76398380D01*
X147113619Y-75398380D02*
X147732666Y-75398380D01*
X147399333Y-75779333D01*
X147542190Y-75779333D01*
X147637428Y-75826952D01*
X147685047Y-75874571D01*
X147732666Y-75969809D01*
X147732666Y-76207904D01*
X147685047Y-76303142D01*
X147637428Y-76350761D01*
X147542190Y-76398380D01*
X147256476Y-76398380D01*
X147161238Y-76350761D01*
X147113619Y-76303142D01*
X124126666Y-75398380D02*
X124126666Y-76112666D01*
X124079047Y-76255523D01*
X123983809Y-76350761D01*
X123840952Y-76398380D01*
X123745714Y-76398380D01*
X124555238Y-75493619D02*
X124602857Y-75446000D01*
X124698095Y-75398380D01*
X124936190Y-75398380D01*
X125031428Y-75446000D01*
X125079047Y-75493619D01*
X125126666Y-75588857D01*
X125126666Y-75684095D01*
X125079047Y-75826952D01*
X124507619Y-76398380D01*
X125126666Y-76398380D01*
X90852666Y-75398380D02*
X90852666Y-76112666D01*
X90805047Y-76255523D01*
X90709809Y-76350761D01*
X90566952Y-76398380D01*
X90471714Y-76398380D01*
X91852666Y-76398380D02*
X91281238Y-76398380D01*
X91566952Y-76398380D02*
X91566952Y-75398380D01*
X91471714Y-75541238D01*
X91376476Y-75636476D01*
X91281238Y-75684095D01*
X78192380Y-81501857D02*
X78192380Y-80882809D01*
X78573333Y-81216142D01*
X78573333Y-81073285D01*
X78620952Y-80978047D01*
X78668571Y-80930428D01*
X78763809Y-80882809D01*
X79001904Y-80882809D01*
X79097142Y-80930428D01*
X79144761Y-80978047D01*
X79192380Y-81073285D01*
X79192380Y-81359000D01*
X79144761Y-81454238D01*
X79097142Y-81501857D01*
X78525714Y-80549476D02*
X79192380Y-80311380D01*
X78525714Y-80073285D01*
X78192380Y-79787571D02*
X78192380Y-79168523D01*
X78573333Y-79501857D01*
X78573333Y-79359000D01*
X78620952Y-79263761D01*
X78668571Y-79216142D01*
X78763809Y-79168523D01*
X79001904Y-79168523D01*
X79097142Y-79216142D01*
X79144761Y-79263761D01*
X79192380Y-79359000D01*
X79192380Y-79644714D01*
X79144761Y-79739952D01*
X79097142Y-79787571D01*
X79287619Y-78978047D02*
X79287619Y-78216142D01*
X78906666Y-78025666D02*
X78906666Y-77549476D01*
X79192380Y-78120904D02*
X78192380Y-77787571D01*
X79192380Y-77454238D01*
X79287619Y-77359000D02*
X79287619Y-76597095D01*
X79192380Y-76359000D02*
X78192380Y-76359000D01*
X79192380Y-75882809D02*
X78192380Y-75882809D01*
X79192380Y-75311380D01*
X78192380Y-75311380D01*
X72906000Y-80819428D02*
X72858380Y-80914666D01*
X72858380Y-81057523D01*
X72906000Y-81200380D01*
X73001238Y-81295619D01*
X73096476Y-81343238D01*
X73286952Y-81390857D01*
X73429809Y-81390857D01*
X73620285Y-81343238D01*
X73715523Y-81295619D01*
X73810761Y-81200380D01*
X73858380Y-81057523D01*
X73858380Y-80962285D01*
X73810761Y-80819428D01*
X73763142Y-80771809D01*
X73429809Y-80771809D01*
X73429809Y-80962285D01*
X73858380Y-80343238D02*
X72858380Y-80343238D01*
X73858380Y-79771809D01*
X72858380Y-79771809D01*
X73858380Y-79295619D02*
X72858380Y-79295619D01*
X72858380Y-79057523D01*
X72906000Y-78914666D01*
X73001238Y-78819428D01*
X73096476Y-78771809D01*
X73286952Y-78724190D01*
X73429809Y-78724190D01*
X73620285Y-78771809D01*
X73715523Y-78819428D01*
X73810761Y-78914666D01*
X73858380Y-79057523D01*
X73858380Y-79295619D01*
X73953619Y-78533714D02*
X73953619Y-77771809D01*
X73572666Y-77581333D02*
X73572666Y-77105142D01*
X73858380Y-77676571D02*
X72858380Y-77343238D01*
X73858380Y-77009904D01*
X189912666Y-75398380D02*
X189912666Y-76112666D01*
X189865047Y-76255523D01*
X189769809Y-76350761D01*
X189626952Y-76398380D01*
X189531714Y-76398380D01*
X190865047Y-75398380D02*
X190388857Y-75398380D01*
X190341238Y-75874571D01*
X190388857Y-75826952D01*
X190484095Y-75779333D01*
X190722190Y-75779333D01*
X190817428Y-75826952D01*
X190865047Y-75874571D01*
X190912666Y-75969809D01*
X190912666Y-76207904D01*
X190865047Y-76303142D01*
X190817428Y-76350761D01*
X190722190Y-76398380D01*
X190484095Y-76398380D01*
X190388857Y-76350761D01*
X190341238Y-76303142D01*
X169338666Y-75398380D02*
X169338666Y-76112666D01*
X169291047Y-76255523D01*
X169195809Y-76350761D01*
X169052952Y-76398380D01*
X168957714Y-76398380D01*
X170243428Y-75731714D02*
X170243428Y-76398380D01*
X170005333Y-75350761D02*
X169767238Y-76065047D01*
X170386285Y-76065047D01*
D12*
X180277238Y-125430285D02*
X180182000Y-125525523D01*
X179896285Y-125620761D01*
X179705809Y-125620761D01*
X179420095Y-125525523D01*
X179229619Y-125335047D01*
X179134380Y-125144571D01*
X179039142Y-124763619D01*
X179039142Y-124477904D01*
X179134380Y-124096952D01*
X179229619Y-123906476D01*
X179420095Y-123716000D01*
X179705809Y-123620761D01*
X179896285Y-123620761D01*
X180182000Y-123716000D01*
X180277238Y-123811238D01*
X181420095Y-125620761D02*
X181229619Y-125525523D01*
X181134380Y-125430285D01*
X181039142Y-125239809D01*
X181039142Y-124668380D01*
X181134380Y-124477904D01*
X181229619Y-124382666D01*
X181420095Y-124287428D01*
X181705809Y-124287428D01*
X181896285Y-124382666D01*
X181991523Y-124477904D01*
X182086761Y-124668380D01*
X182086761Y-125239809D01*
X181991523Y-125430285D01*
X181896285Y-125525523D01*
X181705809Y-125620761D01*
X181420095Y-125620761D01*
X182943904Y-124287428D02*
X182943904Y-125620761D01*
X182943904Y-124477904D02*
X183039142Y-124382666D01*
X183229619Y-124287428D01*
X183515333Y-124287428D01*
X183705809Y-124382666D01*
X183801047Y-124573142D01*
X183801047Y-125620761D01*
X184753428Y-124287428D02*
X184753428Y-125620761D01*
X184753428Y-124477904D02*
X184848666Y-124382666D01*
X185039142Y-124287428D01*
X185324857Y-124287428D01*
X185515333Y-124382666D01*
X185610571Y-124573142D01*
X185610571Y-125620761D01*
X187324857Y-125525523D02*
X187134380Y-125620761D01*
X186753428Y-125620761D01*
X186562952Y-125525523D01*
X186467714Y-125335047D01*
X186467714Y-124573142D01*
X186562952Y-124382666D01*
X186753428Y-124287428D01*
X187134380Y-124287428D01*
X187324857Y-124382666D01*
X187420095Y-124573142D01*
X187420095Y-124763619D01*
X186467714Y-124954095D01*
X189134380Y-125525523D02*
X188943904Y-125620761D01*
X188562952Y-125620761D01*
X188372476Y-125525523D01*
X188277238Y-125430285D01*
X188182000Y-125239809D01*
X188182000Y-124668380D01*
X188277238Y-124477904D01*
X188372476Y-124382666D01*
X188562952Y-124287428D01*
X188943904Y-124287428D01*
X189134380Y-124382666D01*
X189705809Y-124287428D02*
X190467714Y-124287428D01*
X189991523Y-123620761D02*
X189991523Y-125335047D01*
X190086761Y-125525523D01*
X190277238Y-125620761D01*
X190467714Y-125620761D01*
X191420095Y-125620761D02*
X191229619Y-125525523D01*
X191134380Y-125430285D01*
X191039142Y-125239809D01*
X191039142Y-124668380D01*
X191134380Y-124477904D01*
X191229619Y-124382666D01*
X191420095Y-124287428D01*
X191705809Y-124287428D01*
X191896285Y-124382666D01*
X191991523Y-124477904D01*
X192086761Y-124668380D01*
X192086761Y-125239809D01*
X191991523Y-125430285D01*
X191896285Y-125525523D01*
X191705809Y-125620761D01*
X191420095Y-125620761D01*
X192943904Y-125620761D02*
X192943904Y-124287428D01*
X192943904Y-124668380D02*
X193039142Y-124477904D01*
X193134380Y-124382666D01*
X193324857Y-124287428D01*
X193515333Y-124287428D01*
X183324857Y-128920761D02*
X183324857Y-126920761D01*
X184086761Y-126920761D01*
X184277238Y-127016000D01*
X184372476Y-127111238D01*
X184467714Y-127301714D01*
X184467714Y-127587428D01*
X184372476Y-127777904D01*
X184277238Y-127873142D01*
X184086761Y-127968380D01*
X183324857Y-127968380D01*
X185610571Y-128920761D02*
X185420095Y-128825523D01*
X185324857Y-128635047D01*
X185324857Y-126920761D01*
X187229619Y-127587428D02*
X187229619Y-128920761D01*
X186372476Y-127587428D02*
X186372476Y-128635047D01*
X186467714Y-128825523D01*
X186658190Y-128920761D01*
X186943904Y-128920761D01*
X187134380Y-128825523D01*
X187229619Y-128730285D01*
X189039142Y-127587428D02*
X189039142Y-129206476D01*
X188943904Y-129396952D01*
X188848666Y-129492190D01*
X188658190Y-129587428D01*
X188372476Y-129587428D01*
X188182000Y-129492190D01*
X189039142Y-128825523D02*
X188848666Y-128920761D01*
X188467714Y-128920761D01*
X188277238Y-128825523D01*
X188182000Y-128730285D01*
X188086761Y-128539809D01*
X188086761Y-127968380D01*
X188182000Y-127777904D01*
X188277238Y-127682666D01*
X188467714Y-127587428D01*
X188848666Y-127587428D01*
X189039142Y-127682666D01*
X182848666Y-130220761D02*
X184182000Y-130220761D01*
X182848666Y-132220761D01*
X184182000Y-132220761D01*
X185229619Y-132220761D02*
X185039142Y-132125523D01*
X184943904Y-132030285D01*
X184848666Y-131839809D01*
X184848666Y-131268380D01*
X184943904Y-131077904D01*
X185039142Y-130982666D01*
X185229619Y-130887428D01*
X185515333Y-130887428D01*
X185705809Y-130982666D01*
X185801047Y-131077904D01*
X185896285Y-131268380D01*
X185896285Y-131839809D01*
X185801047Y-132030285D01*
X185705809Y-132125523D01*
X185515333Y-132220761D01*
X185229619Y-132220761D01*
X186753428Y-130887428D02*
X186753428Y-132220761D01*
X186753428Y-131077904D02*
X186848666Y-130982666D01*
X187039142Y-130887428D01*
X187324857Y-130887428D01*
X187515333Y-130982666D01*
X187610571Y-131173142D01*
X187610571Y-132220761D01*
X189324857Y-132125523D02*
X189134380Y-132220761D01*
X188753428Y-132220761D01*
X188562952Y-132125523D01*
X188467714Y-131935047D01*
X188467714Y-131173142D01*
X188562952Y-130982666D01*
X188753428Y-130887428D01*
X189134380Y-130887428D01*
X189324857Y-130982666D01*
X189420095Y-131173142D01*
X189420095Y-131363619D01*
X188467714Y-131554095D01*
D13*
X193548000Y-136906000D02*
X193548000Y-117856000D01*
X178816000Y-136906000D02*
X193548000Y-136906000D01*
X178816000Y-117856000D02*
X178816000Y-136906000D01*
X193548000Y-117856000D02*
X178816000Y-117856000D01*
D11*
X213720107Y-105612785D02*
X213619092Y-105646457D01*
X213518076Y-105747472D01*
X213450733Y-105882159D01*
X213450733Y-106016846D01*
X213484405Y-106117862D01*
X213585420Y-106286220D01*
X213686435Y-106387236D01*
X213854794Y-106488251D01*
X213955809Y-106521923D01*
X214090496Y-106521923D01*
X214225183Y-106454579D01*
X214292527Y-106387236D01*
X214359870Y-106252549D01*
X214359870Y-106185205D01*
X214124168Y-105949503D01*
X213989481Y-106084190D01*
X214730259Y-105949503D02*
X214023153Y-105242396D01*
X215134320Y-105545442D01*
X214427214Y-104838335D01*
X215471038Y-105208724D02*
X214763931Y-104501618D01*
X214932290Y-104333259D01*
X215066977Y-104265915D01*
X215201664Y-104265915D01*
X215302679Y-104299587D01*
X215471038Y-104400602D01*
X215572053Y-104501618D01*
X215673068Y-104669976D01*
X215706740Y-104770992D01*
X215706740Y-104905679D01*
X215639397Y-105040366D01*
X215471038Y-105208724D01*
X216077129Y-104737320D02*
X216615877Y-104198572D01*
X216716893Y-103962870D02*
X216009786Y-103255763D01*
X216178145Y-103087404D01*
X216312832Y-103020061D01*
X216447519Y-103020061D01*
X216548534Y-103053732D01*
X216716893Y-103154748D01*
X216817908Y-103255763D01*
X216918923Y-103424122D01*
X216952595Y-103525137D01*
X216952595Y-103659824D01*
X216885251Y-103794511D01*
X216716893Y-103962870D01*
X217962748Y-102717015D02*
X217255641Y-102009908D01*
X218299465Y-102380297D02*
X217592358Y-101673190D01*
X218703526Y-101976236D01*
X217996419Y-101269129D01*
X218804541Y-100393664D02*
X219107587Y-101908893D01*
X219208602Y-100056946D02*
X219343289Y-99922259D01*
X219444305Y-99888588D01*
X219578992Y-99888588D01*
X219747350Y-99989603D01*
X219983053Y-100225305D01*
X220084068Y-100393664D01*
X220084068Y-100528351D01*
X220050396Y-100629366D01*
X219915709Y-100764053D01*
X219814694Y-100797725D01*
X219680007Y-100797725D01*
X219511648Y-100696710D01*
X219275946Y-100461007D01*
X219174931Y-100292649D01*
X219174931Y-100157962D01*
X219208602Y-100056946D01*
X219814694Y-99450855D02*
X220387114Y-100023275D01*
X220488129Y-100056946D01*
X220555472Y-100056946D01*
X220656488Y-100023275D01*
X220791175Y-99888588D01*
X220824846Y-99787572D01*
X220824846Y-99720229D01*
X220791175Y-99619214D01*
X220218755Y-99046794D01*
X220454457Y-98811092D02*
X220858518Y-98407031D01*
X221363594Y-99316168D02*
X220656488Y-98609061D01*
X215391244Y-98861648D02*
X215290229Y-98895320D01*
X215189214Y-98996335D01*
X215121870Y-99131022D01*
X215121870Y-99265709D01*
X215155542Y-99366724D01*
X215256557Y-99535083D01*
X215357572Y-99636098D01*
X215525931Y-99737114D01*
X215626946Y-99770785D01*
X215761633Y-99770785D01*
X215896320Y-99703442D01*
X215963664Y-99636098D01*
X216031007Y-99501411D01*
X216031007Y-99434068D01*
X215795305Y-99198366D01*
X215660618Y-99333053D01*
X216401397Y-99198366D02*
X215694290Y-98491259D01*
X216805458Y-98794305D01*
X216098351Y-98087198D01*
X217142175Y-98457587D02*
X216435068Y-97750480D01*
X216603427Y-97582122D01*
X216738114Y-97514778D01*
X216872801Y-97514778D01*
X216973816Y-97548450D01*
X217142175Y-97649465D01*
X217243190Y-97750480D01*
X217344206Y-97918839D01*
X217377877Y-98019854D01*
X217377877Y-98154541D01*
X217310534Y-98289228D01*
X217142175Y-98457587D01*
X217748267Y-97986183D02*
X218287015Y-97447435D01*
X218388030Y-97211732D02*
X217680923Y-96504625D01*
X217849282Y-96336267D01*
X217983969Y-96268923D01*
X218118656Y-96268923D01*
X218219671Y-96302595D01*
X218388030Y-96403610D01*
X218489045Y-96504625D01*
X218590061Y-96672984D01*
X218623732Y-96773999D01*
X218623732Y-96908687D01*
X218556389Y-97043374D01*
X218388030Y-97211732D01*
X219061465Y-95124084D02*
X219196152Y-94989397D01*
X219297167Y-94955725D01*
X219431854Y-94955725D01*
X219600213Y-95056740D01*
X219835915Y-95292442D01*
X219936931Y-95460801D01*
X219936931Y-95595488D01*
X219903259Y-95696503D01*
X219768572Y-95831190D01*
X219667557Y-95864862D01*
X219532870Y-95864862D01*
X219364511Y-95763847D01*
X219128809Y-95528145D01*
X219027793Y-95359786D01*
X219027793Y-95225099D01*
X219061465Y-95124084D01*
X219667557Y-94517992D02*
X220239976Y-95090412D01*
X220340992Y-95124084D01*
X220408335Y-95124084D01*
X220509350Y-95090412D01*
X220644037Y-94955725D01*
X220677709Y-94854710D01*
X220677709Y-94787366D01*
X220644037Y-94686351D01*
X220071618Y-94113931D01*
X220307320Y-93878229D02*
X220711381Y-93474168D01*
X221216457Y-94383305D02*
X220509350Y-93676198D01*
X217193389Y-94452159D02*
X217631122Y-94014427D01*
X217664794Y-94519503D01*
X217765809Y-94418488D01*
X217866824Y-94384816D01*
X217934168Y-94384816D01*
X218035183Y-94418488D01*
X218203542Y-94586846D01*
X218237214Y-94687862D01*
X218237214Y-94755205D01*
X218203542Y-94856220D01*
X218001511Y-95058251D01*
X217900496Y-95091923D01*
X217833153Y-95091923D01*
X218102527Y-94014427D02*
X218742290Y-94317472D01*
X218439244Y-93677709D01*
X218405572Y-93239976D02*
X218843305Y-92802244D01*
X218876977Y-93307320D01*
X218977992Y-93206305D01*
X219079007Y-93172633D01*
X219146351Y-93172633D01*
X219247366Y-93206305D01*
X219415725Y-93374663D01*
X219449397Y-93475679D01*
X219449397Y-93543022D01*
X219415725Y-93644037D01*
X219213694Y-93846068D01*
X219112679Y-93879740D01*
X219045336Y-93879740D01*
X219752442Y-93442007D02*
X220291190Y-92903259D01*
X220392206Y-92667557D02*
X219685099Y-91960450D01*
X219853458Y-91792091D01*
X219988145Y-91724748D01*
X220122832Y-91724748D01*
X220223847Y-91758419D01*
X220392206Y-91859435D01*
X220493221Y-91960450D01*
X220594236Y-92128809D01*
X220627908Y-92229824D01*
X220627908Y-92364511D01*
X220560564Y-92499198D01*
X220392206Y-92667557D01*
X221638061Y-91421702D02*
X220930954Y-90714595D01*
X221974778Y-91084984D02*
X221267671Y-90377877D01*
X222378839Y-90680923D01*
X221671732Y-89973816D01*
X222479854Y-89098351D02*
X222782900Y-90613580D01*
X222883915Y-88761633D02*
X223018602Y-88626946D01*
X223119618Y-88593275D01*
X223254305Y-88593275D01*
X223422663Y-88694290D01*
X223658366Y-88929992D01*
X223759381Y-89098351D01*
X223759381Y-89233038D01*
X223725709Y-89334053D01*
X223591022Y-89468740D01*
X223490007Y-89502412D01*
X223355320Y-89502412D01*
X223186961Y-89401397D01*
X222951259Y-89165694D01*
X222850244Y-88997336D01*
X222850244Y-88862649D01*
X222883915Y-88761633D01*
X223490007Y-88155542D02*
X224062427Y-88727962D01*
X224163442Y-88761633D01*
X224230785Y-88761633D01*
X224331801Y-88727962D01*
X224466488Y-88593275D01*
X224500159Y-88492259D01*
X224500159Y-88424916D01*
X224466488Y-88323901D01*
X223894068Y-87751481D01*
X224129770Y-87515779D02*
X224533831Y-87111718D01*
X225038907Y-88020855D02*
X224331801Y-87313748D01*
X220081095Y-88262453D02*
X219744378Y-88599171D01*
X220047424Y-88969560D01*
X220047424Y-88902217D01*
X220081095Y-88801201D01*
X220249454Y-88632843D01*
X220350469Y-88599171D01*
X220417813Y-88599171D01*
X220518828Y-88632843D01*
X220687187Y-88801201D01*
X220720859Y-88902217D01*
X220720859Y-88969560D01*
X220687187Y-89070575D01*
X220518828Y-89238934D01*
X220417813Y-89272606D01*
X220350469Y-89272606D01*
X220586172Y-88228782D02*
X221225935Y-88531827D01*
X220922889Y-87892064D01*
X222202416Y-87555347D02*
X221495309Y-86848240D01*
X222539133Y-87218629D02*
X221832026Y-86511522D01*
X222943194Y-86814568D01*
X222236087Y-86107461D01*
X223044209Y-85231996D02*
X223347255Y-86747225D01*
X223448270Y-84895278D02*
X223582957Y-84760591D01*
X223683973Y-84726920D01*
X223818660Y-84726920D01*
X223987018Y-84827935D01*
X224222721Y-85063637D01*
X224323736Y-85231996D01*
X224323736Y-85366683D01*
X224290064Y-85467698D01*
X224155377Y-85602385D01*
X224054362Y-85636057D01*
X223919675Y-85636057D01*
X223751316Y-85535042D01*
X223515614Y-85299339D01*
X223414599Y-85130981D01*
X223414599Y-84996294D01*
X223448270Y-84895278D01*
X224054362Y-84289187D02*
X224626782Y-84861607D01*
X224727797Y-84895278D01*
X224795140Y-84895278D01*
X224896156Y-84861607D01*
X225030843Y-84726920D01*
X225064514Y-84625904D01*
X225064514Y-84558561D01*
X225030843Y-84457546D01*
X224458423Y-83885126D01*
X224694125Y-83649424D02*
X225098186Y-83245362D01*
X225603263Y-84154500D02*
X224896156Y-83447393D01*
D14*
X115641523Y-93416380D02*
X115070095Y-93416380D01*
X115355809Y-93416380D02*
X115355809Y-92416380D01*
X115260571Y-92559238D01*
X115165333Y-92654476D01*
X115070095Y-92702095D01*
X116260571Y-92416380D02*
X116355809Y-92416380D01*
X116451047Y-92464000D01*
X116498666Y-92511619D01*
X116546285Y-92606857D01*
X116593904Y-92797333D01*
X116593904Y-93035428D01*
X116546285Y-93225904D01*
X116498666Y-93321142D01*
X116451047Y-93368761D01*
X116355809Y-93416380D01*
X116260571Y-93416380D01*
X116165333Y-93368761D01*
X116117714Y-93321142D01*
X116070095Y-93225904D01*
X116022476Y-93035428D01*
X116022476Y-92797333D01*
X116070095Y-92606857D01*
X116117714Y-92511619D01*
X116165333Y-92464000D01*
X116260571Y-92416380D01*
X117022476Y-93416380D02*
X117022476Y-92416380D01*
X117593904Y-93416380D02*
X117165333Y-92844952D01*
X117593904Y-92416380D02*
X117022476Y-92987809D01*
X175355333Y-141925380D02*
X174783904Y-141925380D01*
X175069619Y-141925380D02*
X175069619Y-140925380D01*
X174974380Y-141068238D01*
X174879142Y-141163476D01*
X174783904Y-141211095D01*
X175783904Y-141258714D02*
X175783904Y-142258714D01*
X176260095Y-141782523D02*
X176307714Y-141877761D01*
X176402952Y-141925380D01*
X175783904Y-141782523D02*
X175831523Y-141877761D01*
X175926761Y-141925380D01*
X176117238Y-141925380D01*
X176212476Y-141877761D01*
X176260095Y-141782523D01*
X176260095Y-141258714D01*
X177164857Y-141401571D02*
X176831523Y-141401571D01*
X176831523Y-141925380D02*
X176831523Y-140925380D01*
X177307714Y-140925380D01*
X169767333Y-141930380D02*
X169195904Y-141930380D01*
X169481619Y-141930380D02*
X169481619Y-140930380D01*
X169386380Y-141073238D01*
X169291142Y-141168476D01*
X169195904Y-141216095D01*
X170195904Y-141263714D02*
X170195904Y-142263714D01*
X170672095Y-141787523D02*
X170719714Y-141882761D01*
X170814952Y-141930380D01*
X170195904Y-141787523D02*
X170243523Y-141882761D01*
X170338761Y-141930380D01*
X170529238Y-141930380D01*
X170624476Y-141882761D01*
X170672095Y-141787523D01*
X170672095Y-141263714D01*
X171576857Y-141406571D02*
X171243523Y-141406571D01*
X171243523Y-141930380D02*
X171243523Y-140930380D01*
X171719714Y-140930380D01*
X164179333Y-141930380D02*
X163607904Y-141930380D01*
X163893619Y-141930380D02*
X163893619Y-140930380D01*
X163798380Y-141073238D01*
X163703142Y-141168476D01*
X163607904Y-141216095D01*
X164607904Y-141263714D02*
X164607904Y-142263714D01*
X165084095Y-141787523D02*
X165131714Y-141882761D01*
X165226952Y-141930380D01*
X164607904Y-141787523D02*
X164655523Y-141882761D01*
X164750761Y-141930380D01*
X164941238Y-141930380D01*
X165036476Y-141882761D01*
X165084095Y-141787523D01*
X165084095Y-141263714D01*
X165988857Y-141406571D02*
X165655523Y-141406571D01*
X165655523Y-141930380D02*
X165655523Y-140930380D01*
X166131714Y-140930380D01*
X158591333Y-141930380D02*
X158019904Y-141930380D01*
X158305619Y-141930380D02*
X158305619Y-140930380D01*
X158210380Y-141073238D01*
X158115142Y-141168476D01*
X158019904Y-141216095D01*
X159019904Y-141263714D02*
X159019904Y-142263714D01*
X159496095Y-141787523D02*
X159543714Y-141882761D01*
X159638952Y-141930380D01*
X159019904Y-141787523D02*
X159067523Y-141882761D01*
X159162761Y-141930380D01*
X159353238Y-141930380D01*
X159448476Y-141882761D01*
X159496095Y-141787523D01*
X159496095Y-141263714D01*
X160400857Y-141406571D02*
X160067523Y-141406571D01*
X160067523Y-141930380D02*
X160067523Y-140930380D01*
X160543714Y-140930380D01*
X153003333Y-141930380D02*
X152431904Y-141930380D01*
X152717619Y-141930380D02*
X152717619Y-140930380D01*
X152622380Y-141073238D01*
X152527142Y-141168476D01*
X152431904Y-141216095D01*
X153431904Y-141263714D02*
X153431904Y-142263714D01*
X153908095Y-141787523D02*
X153955714Y-141882761D01*
X154050952Y-141930380D01*
X153431904Y-141787523D02*
X153479523Y-141882761D01*
X153574761Y-141930380D01*
X153765238Y-141930380D01*
X153860476Y-141882761D01*
X153908095Y-141787523D01*
X153908095Y-141263714D01*
X154812857Y-141406571D02*
X154479523Y-141406571D01*
X154479523Y-141930380D02*
X154479523Y-140930380D01*
X154955714Y-140930380D01*
X147415333Y-141930380D02*
X146843904Y-141930380D01*
X147129619Y-141930380D02*
X147129619Y-140930380D01*
X147034380Y-141073238D01*
X146939142Y-141168476D01*
X146843904Y-141216095D01*
X147843904Y-141263714D02*
X147843904Y-142263714D01*
X148320095Y-141787523D02*
X148367714Y-141882761D01*
X148462952Y-141930380D01*
X147843904Y-141787523D02*
X147891523Y-141882761D01*
X147986761Y-141930380D01*
X148177238Y-141930380D01*
X148272476Y-141882761D01*
X148320095Y-141787523D01*
X148320095Y-141263714D01*
X149224857Y-141406571D02*
X148891523Y-141406571D01*
X148891523Y-141930380D02*
X148891523Y-140930380D01*
X149367714Y-140930380D01*
X87447571Y-94686380D02*
X86876142Y-94686380D01*
X87161857Y-94686380D02*
X87161857Y-93686380D01*
X87066619Y-93829238D01*
X86971380Y-93924476D01*
X86876142Y-93972095D01*
X88066619Y-93686380D02*
X88161857Y-93686380D01*
X88257095Y-93734000D01*
X88304714Y-93781619D01*
X88352333Y-93876857D01*
X88399952Y-94067333D01*
X88399952Y-94305428D01*
X88352333Y-94495904D01*
X88304714Y-94591142D01*
X88257095Y-94638761D01*
X88161857Y-94686380D01*
X88066619Y-94686380D01*
X87971380Y-94638761D01*
X87923761Y-94591142D01*
X87876142Y-94495904D01*
X87828523Y-94305428D01*
X87828523Y-94067333D01*
X87876142Y-93876857D01*
X87923761Y-93781619D01*
X87971380Y-93734000D01*
X88066619Y-93686380D01*
X88828523Y-94019714D02*
X88828523Y-94686380D01*
X88828523Y-94114952D02*
X88876142Y-94067333D01*
X88971380Y-94019714D01*
X89114238Y-94019714D01*
X89209476Y-94067333D01*
X89257095Y-94162571D01*
X89257095Y-94686380D01*
X90066619Y-94162571D02*
X89733285Y-94162571D01*
X89733285Y-94686380D02*
X89733285Y-93686380D01*
X90209476Y-93686380D01*
X94178380Y-76382428D02*
X94178380Y-76953857D01*
X94178380Y-76668142D02*
X93178380Y-76668142D01*
X93321238Y-76763380D01*
X93416476Y-76858619D01*
X93464095Y-76953857D01*
X93178380Y-75763380D02*
X93178380Y-75668142D01*
X93226000Y-75572904D01*
X93273619Y-75525285D01*
X93368857Y-75477666D01*
X93559333Y-75430047D01*
X93797428Y-75430047D01*
X93987904Y-75477666D01*
X94083142Y-75525285D01*
X94130761Y-75572904D01*
X94178380Y-75668142D01*
X94178380Y-75763380D01*
X94130761Y-75858619D01*
X94083142Y-75906238D01*
X93987904Y-75953857D01*
X93797428Y-76001476D01*
X93559333Y-76001476D01*
X93368857Y-75953857D01*
X93273619Y-75906238D01*
X93226000Y-75858619D01*
X93178380Y-75763380D01*
X93511714Y-75001476D02*
X94178380Y-75001476D01*
X93606952Y-75001476D02*
X93559333Y-74953857D01*
X93511714Y-74858619D01*
X93511714Y-74715761D01*
X93559333Y-74620523D01*
X93654571Y-74572904D01*
X94178380Y-74572904D01*
X93654571Y-73763380D02*
X93654571Y-74096714D01*
X94178380Y-74096714D02*
X93178380Y-74096714D01*
X93178380Y-73620523D01*
X96718380Y-76382428D02*
X96718380Y-76953857D01*
X96718380Y-76668142D02*
X95718380Y-76668142D01*
X95861238Y-76763380D01*
X95956476Y-76858619D01*
X96004095Y-76953857D01*
X95718380Y-75763380D02*
X95718380Y-75668142D01*
X95766000Y-75572904D01*
X95813619Y-75525285D01*
X95908857Y-75477666D01*
X96099333Y-75430047D01*
X96337428Y-75430047D01*
X96527904Y-75477666D01*
X96623142Y-75525285D01*
X96670761Y-75572904D01*
X96718380Y-75668142D01*
X96718380Y-75763380D01*
X96670761Y-75858619D01*
X96623142Y-75906238D01*
X96527904Y-75953857D01*
X96337428Y-76001476D01*
X96099333Y-76001476D01*
X95908857Y-75953857D01*
X95813619Y-75906238D01*
X95766000Y-75858619D01*
X95718380Y-75763380D01*
X96051714Y-75001476D02*
X96718380Y-75001476D01*
X96146952Y-75001476D02*
X96099333Y-74953857D01*
X96051714Y-74858619D01*
X96051714Y-74715761D01*
X96099333Y-74620523D01*
X96194571Y-74572904D01*
X96718380Y-74572904D01*
X96194571Y-73763380D02*
X96194571Y-74096714D01*
X96718380Y-74096714D02*
X95718380Y-74096714D01*
X95718380Y-73620523D01*
X99258380Y-76382428D02*
X99258380Y-76953857D01*
X99258380Y-76668142D02*
X98258380Y-76668142D01*
X98401238Y-76763380D01*
X98496476Y-76858619D01*
X98544095Y-76953857D01*
X98258380Y-75763380D02*
X98258380Y-75668142D01*
X98306000Y-75572904D01*
X98353619Y-75525285D01*
X98448857Y-75477666D01*
X98639333Y-75430047D01*
X98877428Y-75430047D01*
X99067904Y-75477666D01*
X99163142Y-75525285D01*
X99210761Y-75572904D01*
X99258380Y-75668142D01*
X99258380Y-75763380D01*
X99210761Y-75858619D01*
X99163142Y-75906238D01*
X99067904Y-75953857D01*
X98877428Y-76001476D01*
X98639333Y-76001476D01*
X98448857Y-75953857D01*
X98353619Y-75906238D01*
X98306000Y-75858619D01*
X98258380Y-75763380D01*
X98591714Y-75001476D02*
X99258380Y-75001476D01*
X98686952Y-75001476D02*
X98639333Y-74953857D01*
X98591714Y-74858619D01*
X98591714Y-74715761D01*
X98639333Y-74620523D01*
X98734571Y-74572904D01*
X99258380Y-74572904D01*
X98734571Y-73763380D02*
X98734571Y-74096714D01*
X99258380Y-74096714D02*
X98258380Y-74096714D01*
X98258380Y-73620523D01*
X101798380Y-76382428D02*
X101798380Y-76953857D01*
X101798380Y-76668142D02*
X100798380Y-76668142D01*
X100941238Y-76763380D01*
X101036476Y-76858619D01*
X101084095Y-76953857D01*
X100798380Y-75763380D02*
X100798380Y-75668142D01*
X100846000Y-75572904D01*
X100893619Y-75525285D01*
X100988857Y-75477666D01*
X101179333Y-75430047D01*
X101417428Y-75430047D01*
X101607904Y-75477666D01*
X101703142Y-75525285D01*
X101750761Y-75572904D01*
X101798380Y-75668142D01*
X101798380Y-75763380D01*
X101750761Y-75858619D01*
X101703142Y-75906238D01*
X101607904Y-75953857D01*
X101417428Y-76001476D01*
X101179333Y-76001476D01*
X100988857Y-75953857D01*
X100893619Y-75906238D01*
X100846000Y-75858619D01*
X100798380Y-75763380D01*
X101131714Y-75001476D02*
X101798380Y-75001476D01*
X101226952Y-75001476D02*
X101179333Y-74953857D01*
X101131714Y-74858619D01*
X101131714Y-74715761D01*
X101179333Y-74620523D01*
X101274571Y-74572904D01*
X101798380Y-74572904D01*
X101274571Y-73763380D02*
X101274571Y-74096714D01*
X101798380Y-74096714D02*
X100798380Y-74096714D01*
X100798380Y-73620523D01*
X104338380Y-76382428D02*
X104338380Y-76953857D01*
X104338380Y-76668142D02*
X103338380Y-76668142D01*
X103481238Y-76763380D01*
X103576476Y-76858619D01*
X103624095Y-76953857D01*
X103338380Y-75763380D02*
X103338380Y-75668142D01*
X103386000Y-75572904D01*
X103433619Y-75525285D01*
X103528857Y-75477666D01*
X103719333Y-75430047D01*
X103957428Y-75430047D01*
X104147904Y-75477666D01*
X104243142Y-75525285D01*
X104290761Y-75572904D01*
X104338380Y-75668142D01*
X104338380Y-75763380D01*
X104290761Y-75858619D01*
X104243142Y-75906238D01*
X104147904Y-75953857D01*
X103957428Y-76001476D01*
X103719333Y-76001476D01*
X103528857Y-75953857D01*
X103433619Y-75906238D01*
X103386000Y-75858619D01*
X103338380Y-75763380D01*
X103671714Y-75001476D02*
X104338380Y-75001476D01*
X103766952Y-75001476D02*
X103719333Y-74953857D01*
X103671714Y-74858619D01*
X103671714Y-74715761D01*
X103719333Y-74620523D01*
X103814571Y-74572904D01*
X104338380Y-74572904D01*
X103814571Y-73763380D02*
X103814571Y-74096714D01*
X104338380Y-74096714D02*
X103338380Y-74096714D01*
X103338380Y-73620523D01*
X230322857Y-103338380D02*
X230894285Y-103338380D01*
X230608571Y-104338380D02*
X230608571Y-103338380D01*
X231799047Y-104338380D02*
X231465714Y-103862190D01*
X231227619Y-104338380D02*
X231227619Y-103338380D01*
X231608571Y-103338380D01*
X231703809Y-103386000D01*
X231751428Y-103433619D01*
X231799047Y-103528857D01*
X231799047Y-103671714D01*
X231751428Y-103766952D01*
X231703809Y-103814571D01*
X231608571Y-103862190D01*
X231227619Y-103862190D01*
X232227619Y-103814571D02*
X232560952Y-103814571D01*
X232703809Y-104338380D02*
X232227619Y-104338380D01*
X232227619Y-103338380D01*
X232703809Y-103338380D01*
X233132380Y-104338380D02*
X233132380Y-103338380D01*
X233465714Y-104052666D01*
X233799047Y-103338380D01*
X233799047Y-104338380D01*
X234037142Y-104433619D02*
X234799047Y-104433619D01*
X234894285Y-103338380D02*
X235227619Y-104338380D01*
X235560952Y-103338380D01*
X235894285Y-104338380D02*
X235894285Y-103338380D01*
X236703809Y-103814571D02*
X236846666Y-103862190D01*
X236894285Y-103909809D01*
X236941904Y-104005047D01*
X236941904Y-104147904D01*
X236894285Y-104243142D01*
X236846666Y-104290761D01*
X236751428Y-104338380D01*
X236370476Y-104338380D01*
X236370476Y-103338380D01*
X236703809Y-103338380D01*
X236799047Y-103386000D01*
X236846666Y-103433619D01*
X236894285Y-103528857D01*
X236894285Y-103624095D01*
X236846666Y-103719333D01*
X236799047Y-103766952D01*
X236703809Y-103814571D01*
X236370476Y-103814571D01*
X235402380Y-99066952D02*
X234402380Y-99066952D01*
X234402380Y-98828857D01*
X234450000Y-98686000D01*
X234545238Y-98590761D01*
X234640476Y-98543142D01*
X234830952Y-98495523D01*
X234973809Y-98495523D01*
X235164285Y-98543142D01*
X235259523Y-98590761D01*
X235354761Y-98686000D01*
X235402380Y-98828857D01*
X235402380Y-99066952D01*
X235402380Y-98066952D02*
X234735714Y-98066952D01*
X234402380Y-98066952D02*
X234450000Y-98114571D01*
X234497619Y-98066952D01*
X234450000Y-98019333D01*
X234402380Y-98066952D01*
X234497619Y-98066952D01*
X234735714Y-97162190D02*
X235545238Y-97162190D01*
X235640476Y-97209809D01*
X235688095Y-97257428D01*
X235735714Y-97352666D01*
X235735714Y-97495523D01*
X235688095Y-97590761D01*
X235354761Y-97162190D02*
X235402380Y-97257428D01*
X235402380Y-97447904D01*
X235354761Y-97543142D01*
X235307142Y-97590761D01*
X235211904Y-97638380D01*
X234926190Y-97638380D01*
X234830952Y-97590761D01*
X234783333Y-97543142D01*
X234735714Y-97447904D01*
X234735714Y-97257428D01*
X234783333Y-97162190D01*
X235402380Y-96686000D02*
X234735714Y-96686000D01*
X234402380Y-96686000D02*
X234450000Y-96733619D01*
X234497619Y-96686000D01*
X234450000Y-96638380D01*
X234402380Y-96686000D01*
X234497619Y-96686000D01*
X234735714Y-96352666D02*
X234735714Y-95971714D01*
X234402380Y-96209809D02*
X235259523Y-96209809D01*
X235354761Y-96162190D01*
X235402380Y-96066952D01*
X235402380Y-95971714D01*
X235402380Y-95209809D02*
X234878571Y-95209809D01*
X234783333Y-95257428D01*
X234735714Y-95352666D01*
X234735714Y-95543142D01*
X234783333Y-95638380D01*
X235354761Y-95209809D02*
X235402380Y-95305047D01*
X235402380Y-95543142D01*
X235354761Y-95638380D01*
X235259523Y-95686000D01*
X235164285Y-95686000D01*
X235069047Y-95638380D01*
X235021428Y-95543142D01*
X235021428Y-95305047D01*
X234973809Y-95209809D01*
X235402380Y-94590761D02*
X235354761Y-94686000D01*
X235259523Y-94733619D01*
X234402380Y-94733619D01*
X235402380Y-93447904D02*
X234402380Y-93447904D01*
X234402380Y-93066952D01*
X234450000Y-92971714D01*
X234497619Y-92924095D01*
X234592857Y-92876476D01*
X234735714Y-92876476D01*
X234830952Y-92924095D01*
X234878571Y-92971714D01*
X234926190Y-93066952D01*
X234926190Y-93447904D01*
X235402380Y-92305047D02*
X235354761Y-92400285D01*
X235307142Y-92447904D01*
X235211904Y-92495523D01*
X234926190Y-92495523D01*
X234830952Y-92447904D01*
X234783333Y-92400285D01*
X234735714Y-92305047D01*
X234735714Y-92162190D01*
X234783333Y-92066952D01*
X234830952Y-92019333D01*
X234926190Y-91971714D01*
X235211904Y-91971714D01*
X235307142Y-92019333D01*
X235354761Y-92066952D01*
X235402380Y-92162190D01*
X235402380Y-92305047D01*
X234735714Y-91638380D02*
X235402380Y-91447904D01*
X234926190Y-91257428D01*
X235402380Y-91066952D01*
X234735714Y-90876476D01*
X235354761Y-90114571D02*
X235402380Y-90209809D01*
X235402380Y-90400285D01*
X235354761Y-90495523D01*
X235259523Y-90543142D01*
X234878571Y-90543142D01*
X234783333Y-90495523D01*
X234735714Y-90400285D01*
X234735714Y-90209809D01*
X234783333Y-90114571D01*
X234878571Y-90066952D01*
X234973809Y-90066952D01*
X235069047Y-90543142D01*
X235402380Y-89638380D02*
X234735714Y-89638380D01*
X234926190Y-89638380D02*
X234830952Y-89590761D01*
X234783333Y-89543142D01*
X234735714Y-89447904D01*
X234735714Y-89352666D01*
X235402380Y-88257428D02*
X234402380Y-88257428D01*
X235402380Y-87781238D02*
X234402380Y-87781238D01*
X235402380Y-87209809D01*
X234402380Y-87209809D01*
X234354761Y-86019333D02*
X235640476Y-86876476D01*
X234402380Y-85495523D02*
X234402380Y-85305047D01*
X234450000Y-85209809D01*
X234545238Y-85114571D01*
X234735714Y-85066952D01*
X235069047Y-85066952D01*
X235259523Y-85114571D01*
X235354761Y-85209809D01*
X235402380Y-85305047D01*
X235402380Y-85495523D01*
X235354761Y-85590761D01*
X235259523Y-85686000D01*
X235069047Y-85733619D01*
X234735714Y-85733619D01*
X234545238Y-85686000D01*
X234450000Y-85590761D01*
X234402380Y-85495523D01*
X234402380Y-84638380D02*
X235211904Y-84638380D01*
X235307142Y-84590761D01*
X235354761Y-84543142D01*
X235402380Y-84447904D01*
X235402380Y-84257428D01*
X235354761Y-84162190D01*
X235307142Y-84114571D01*
X235211904Y-84066952D01*
X234402380Y-84066952D01*
X234402380Y-83733619D02*
X234402380Y-83162190D01*
X235402380Y-83447904D02*
X234402380Y-83447904D01*
X195929571Y-135961380D02*
X195929571Y-134961380D01*
X196310523Y-134961380D01*
X196405761Y-135009000D01*
X196453380Y-135056619D01*
X196501000Y-135151857D01*
X196501000Y-135294714D01*
X196453380Y-135389952D01*
X196405761Y-135437571D01*
X196310523Y-135485190D01*
X195929571Y-135485190D01*
X197262904Y-135437571D02*
X197405761Y-135485190D01*
X197453380Y-135532809D01*
X197501000Y-135628047D01*
X197501000Y-135770904D01*
X197453380Y-135866142D01*
X197405761Y-135913761D01*
X197310523Y-135961380D01*
X196929571Y-135961380D01*
X196929571Y-134961380D01*
X197262904Y-134961380D01*
X197358142Y-135009000D01*
X197405761Y-135056619D01*
X197453380Y-135151857D01*
X197453380Y-135247095D01*
X197405761Y-135342333D01*
X197358142Y-135389952D01*
X197262904Y-135437571D01*
X196929571Y-135437571D01*
X197691476Y-136056619D02*
X198453380Y-136056619D01*
X198881952Y-134961380D02*
X199072428Y-134961380D01*
X199167666Y-135009000D01*
X199262904Y-135104238D01*
X199310523Y-135294714D01*
X199310523Y-135628047D01*
X199262904Y-135818523D01*
X199167666Y-135913761D01*
X199072428Y-135961380D01*
X198881952Y-135961380D01*
X198786714Y-135913761D01*
X198691476Y-135818523D01*
X198643857Y-135628047D01*
X198643857Y-135294714D01*
X198691476Y-135104238D01*
X198786714Y-135009000D01*
X198881952Y-134961380D01*
X199739095Y-134961380D02*
X199739095Y-135770904D01*
X199786714Y-135866142D01*
X199834333Y-135913761D01*
X199929571Y-135961380D01*
X200120047Y-135961380D01*
X200215285Y-135913761D01*
X200262904Y-135866142D01*
X200310523Y-135770904D01*
X200310523Y-134961380D01*
X200643857Y-134961380D02*
X201215285Y-134961380D01*
X200929571Y-135961380D02*
X200929571Y-134961380D01*
X72327333Y-120435666D02*
X72803523Y-120435666D01*
X72232095Y-120721380D02*
X72565428Y-119721380D01*
X72898761Y-120721380D01*
X73232095Y-120054714D02*
X73232095Y-120721380D01*
X73232095Y-120149952D02*
X73279714Y-120102333D01*
X73374952Y-120054714D01*
X73517809Y-120054714D01*
X73613047Y-120102333D01*
X73660666Y-120197571D01*
X73660666Y-120721380D01*
X74565428Y-120721380D02*
X74565428Y-120197571D01*
X74517809Y-120102333D01*
X74422571Y-120054714D01*
X74232095Y-120054714D01*
X74136857Y-120102333D01*
X74565428Y-120673761D02*
X74470190Y-120721380D01*
X74232095Y-120721380D01*
X74136857Y-120673761D01*
X74089238Y-120578523D01*
X74089238Y-120483285D01*
X74136857Y-120388047D01*
X74232095Y-120340428D01*
X74470190Y-120340428D01*
X74565428Y-120292809D01*
X75184476Y-120721380D02*
X75089238Y-120673761D01*
X75041619Y-120578523D01*
X75041619Y-119721380D01*
X75708285Y-120721380D02*
X75613047Y-120673761D01*
X75565428Y-120626142D01*
X75517809Y-120530904D01*
X75517809Y-120245190D01*
X75565428Y-120149952D01*
X75613047Y-120102333D01*
X75708285Y-120054714D01*
X75851142Y-120054714D01*
X75946380Y-120102333D01*
X75994000Y-120149952D01*
X76041619Y-120245190D01*
X76041619Y-120530904D01*
X75994000Y-120626142D01*
X75946380Y-120673761D01*
X75851142Y-120721380D01*
X75708285Y-120721380D01*
X76898761Y-120054714D02*
X76898761Y-120864238D01*
X76851142Y-120959476D01*
X76803523Y-121007095D01*
X76708285Y-121054714D01*
X76565428Y-121054714D01*
X76470190Y-121007095D01*
X76898761Y-120673761D02*
X76803523Y-120721380D01*
X76613047Y-120721380D01*
X76517809Y-120673761D01*
X76470190Y-120626142D01*
X76422571Y-120530904D01*
X76422571Y-120245190D01*
X76470190Y-120149952D01*
X76517809Y-120102333D01*
X76613047Y-120054714D01*
X76803523Y-120054714D01*
X76898761Y-120102333D01*
X77136857Y-120816619D02*
X77898761Y-120816619D01*
X78089238Y-120673761D02*
X78232095Y-120721380D01*
X78470190Y-120721380D01*
X78565428Y-120673761D01*
X78613047Y-120626142D01*
X78660666Y-120530904D01*
X78660666Y-120435666D01*
X78613047Y-120340428D01*
X78565428Y-120292809D01*
X78470190Y-120245190D01*
X78279714Y-120197571D01*
X78184476Y-120149952D01*
X78136857Y-120102333D01*
X78089238Y-120007095D01*
X78089238Y-119911857D01*
X78136857Y-119816619D01*
X78184476Y-119769000D01*
X78279714Y-119721380D01*
X78517809Y-119721380D01*
X78660666Y-119769000D01*
X79089238Y-120721380D02*
X79089238Y-120054714D01*
X79089238Y-119721380D02*
X79041619Y-119769000D01*
X79089238Y-119816619D01*
X79136857Y-119769000D01*
X79089238Y-119721380D01*
X79089238Y-119816619D01*
X79994000Y-120054714D02*
X79994000Y-120864238D01*
X79946380Y-120959476D01*
X79898761Y-121007095D01*
X79803523Y-121054714D01*
X79660666Y-121054714D01*
X79565428Y-121007095D01*
X79994000Y-120673761D02*
X79898761Y-120721380D01*
X79708285Y-120721380D01*
X79613047Y-120673761D01*
X79565428Y-120626142D01*
X79517809Y-120530904D01*
X79517809Y-120245190D01*
X79565428Y-120149952D01*
X79613047Y-120102333D01*
X79708285Y-120054714D01*
X79898761Y-120054714D01*
X79994000Y-120102333D01*
X80470190Y-120054714D02*
X80470190Y-120721380D01*
X80470190Y-120149952D02*
X80517809Y-120102333D01*
X80613047Y-120054714D01*
X80755904Y-120054714D01*
X80851142Y-120102333D01*
X80898761Y-120197571D01*
X80898761Y-120721380D01*
X81803523Y-120721380D02*
X81803523Y-120197571D01*
X81755904Y-120102333D01*
X81660666Y-120054714D01*
X81470190Y-120054714D01*
X81374952Y-120102333D01*
X81803523Y-120673761D02*
X81708285Y-120721380D01*
X81470190Y-120721380D01*
X81374952Y-120673761D01*
X81327333Y-120578523D01*
X81327333Y-120483285D01*
X81374952Y-120388047D01*
X81470190Y-120340428D01*
X81708285Y-120340428D01*
X81803523Y-120292809D01*
X82422571Y-120721380D02*
X82327333Y-120673761D01*
X82279714Y-120578523D01*
X82279714Y-119721380D01*
X82565428Y-120816619D02*
X83327333Y-120816619D01*
X83755904Y-119721380D02*
X83946380Y-119721380D01*
X84041619Y-119769000D01*
X84136857Y-119864238D01*
X84184476Y-120054714D01*
X84184476Y-120388047D01*
X84136857Y-120578523D01*
X84041619Y-120673761D01*
X83946380Y-120721380D01*
X83755904Y-120721380D01*
X83660666Y-120673761D01*
X83565428Y-120578523D01*
X83517809Y-120388047D01*
X83517809Y-120054714D01*
X83565428Y-119864238D01*
X83660666Y-119769000D01*
X83755904Y-119721380D01*
X85041619Y-120054714D02*
X85041619Y-120721380D01*
X84613047Y-120054714D02*
X84613047Y-120578523D01*
X84660666Y-120673761D01*
X84755904Y-120721380D01*
X84898761Y-120721380D01*
X84994000Y-120673761D01*
X85041619Y-120626142D01*
X85374952Y-120054714D02*
X85755904Y-120054714D01*
X85517809Y-119721380D02*
X85517809Y-120578523D01*
X85565428Y-120673761D01*
X85660666Y-120721380D01*
X85755904Y-120721380D01*
X89304761Y-85724428D02*
X89352380Y-85581571D01*
X89352380Y-85343476D01*
X89304761Y-85248238D01*
X89257142Y-85200619D01*
X89161904Y-85153000D01*
X89066666Y-85153000D01*
X88971428Y-85200619D01*
X88923809Y-85248238D01*
X88876190Y-85343476D01*
X88828571Y-85533952D01*
X88780952Y-85629190D01*
X88733333Y-85676809D01*
X88638095Y-85724428D01*
X88542857Y-85724428D01*
X88447619Y-85676809D01*
X88400000Y-85629190D01*
X88352380Y-85533952D01*
X88352380Y-85295857D01*
X88400000Y-85153000D01*
X88685714Y-84724428D02*
X89685714Y-84724428D01*
X88733333Y-84724428D02*
X88685714Y-84629190D01*
X88685714Y-84438714D01*
X88733333Y-84343476D01*
X88780952Y-84295857D01*
X88876190Y-84248238D01*
X89161904Y-84248238D01*
X89257142Y-84295857D01*
X89304761Y-84343476D01*
X89352380Y-84438714D01*
X89352380Y-84629190D01*
X89304761Y-84724428D01*
X89352380Y-83676809D02*
X89304761Y-83772047D01*
X89209523Y-83819666D01*
X88352380Y-83819666D01*
X89352380Y-83295857D02*
X88685714Y-83295857D01*
X88352380Y-83295857D02*
X88400000Y-83343476D01*
X88447619Y-83295857D01*
X88400000Y-83248238D01*
X88352380Y-83295857D01*
X88447619Y-83295857D01*
X88685714Y-82962523D02*
X88685714Y-82581571D01*
X88352380Y-82819666D02*
X89209523Y-82819666D01*
X89304761Y-82772047D01*
X89352380Y-82676809D01*
X89352380Y-82581571D01*
X89352380Y-82248238D02*
X88352380Y-82248238D01*
X88352380Y-81867285D01*
X88400000Y-81772047D01*
X88447619Y-81724428D01*
X88542857Y-81676809D01*
X88685714Y-81676809D01*
X88780952Y-81724428D01*
X88828571Y-81772047D01*
X88876190Y-81867285D01*
X88876190Y-82248238D01*
X89352380Y-81105380D02*
X89304761Y-81200619D01*
X89257142Y-81248238D01*
X89161904Y-81295857D01*
X88876190Y-81295857D01*
X88780952Y-81248238D01*
X88733333Y-81200619D01*
X88685714Y-81105380D01*
X88685714Y-80962523D01*
X88733333Y-80867285D01*
X88780952Y-80819666D01*
X88876190Y-80772047D01*
X89161904Y-80772047D01*
X89257142Y-80819666D01*
X89304761Y-80867285D01*
X89352380Y-80962523D01*
X89352380Y-81105380D01*
X88685714Y-80486333D02*
X88685714Y-80105380D01*
X88352380Y-80343476D02*
X89209523Y-80343476D01*
X89304761Y-80295857D01*
X89352380Y-80200619D01*
X89352380Y-80105380D01*
X89447619Y-80010142D02*
X89447619Y-79248238D01*
X88352380Y-78819666D02*
X88352380Y-78724428D01*
X88400000Y-78629190D01*
X88447619Y-78581571D01*
X88542857Y-78533952D01*
X88733333Y-78486333D01*
X88971428Y-78486333D01*
X89161904Y-78533952D01*
X89257142Y-78581571D01*
X89304761Y-78629190D01*
X89352380Y-78724428D01*
X89352380Y-78819666D01*
X89304761Y-78914904D01*
X89257142Y-78962523D01*
X89161904Y-79010142D01*
X88971428Y-79057761D01*
X88733333Y-79057761D01*
X88542857Y-79010142D01*
X88447619Y-78962523D01*
X88400000Y-78914904D01*
X88352380Y-78819666D01*
X89447619Y-78295857D02*
X89447619Y-77533952D01*
X89352380Y-77295857D02*
X88352380Y-77295857D01*
X89066666Y-76962523D01*
X88352380Y-76629190D01*
X89352380Y-76629190D01*
X145311761Y-83875000D02*
X145359380Y-83732142D01*
X145359380Y-83494047D01*
X145311761Y-83398809D01*
X145264142Y-83351190D01*
X145168904Y-83303571D01*
X145073666Y-83303571D01*
X144978428Y-83351190D01*
X144930809Y-83398809D01*
X144883190Y-83494047D01*
X144835571Y-83684523D01*
X144787952Y-83779761D01*
X144740333Y-83827380D01*
X144645095Y-83875000D01*
X144549857Y-83875000D01*
X144454619Y-83827380D01*
X144407000Y-83779761D01*
X144359380Y-83684523D01*
X144359380Y-83446428D01*
X144407000Y-83303571D01*
X144692714Y-82875000D02*
X145692714Y-82875000D01*
X144740333Y-82875000D02*
X144692714Y-82779761D01*
X144692714Y-82589285D01*
X144740333Y-82494047D01*
X144787952Y-82446428D01*
X144883190Y-82398809D01*
X145168904Y-82398809D01*
X145264142Y-82446428D01*
X145311761Y-82494047D01*
X145359380Y-82589285D01*
X145359380Y-82779761D01*
X145311761Y-82875000D01*
X145359380Y-81827380D02*
X145311761Y-81922619D01*
X145216523Y-81970238D01*
X144359380Y-81970238D01*
X145359380Y-81446428D02*
X144692714Y-81446428D01*
X144359380Y-81446428D02*
X144407000Y-81494047D01*
X144454619Y-81446428D01*
X144407000Y-81398809D01*
X144359380Y-81446428D01*
X144454619Y-81446428D01*
X144692714Y-81113095D02*
X144692714Y-80732142D01*
X144359380Y-80970238D02*
X145216523Y-80970238D01*
X145311761Y-80922619D01*
X145359380Y-80827380D01*
X145359380Y-80732142D01*
X145359380Y-80398809D02*
X144359380Y-80398809D01*
X144359380Y-80017857D01*
X144407000Y-79922619D01*
X144454619Y-79875000D01*
X144549857Y-79827380D01*
X144692714Y-79827380D01*
X144787952Y-79875000D01*
X144835571Y-79922619D01*
X144883190Y-80017857D01*
X144883190Y-80398809D01*
X145359380Y-79255952D02*
X145311761Y-79351190D01*
X145264142Y-79398809D01*
X145168904Y-79446428D01*
X144883190Y-79446428D01*
X144787952Y-79398809D01*
X144740333Y-79351190D01*
X144692714Y-79255952D01*
X144692714Y-79113095D01*
X144740333Y-79017857D01*
X144787952Y-78970238D01*
X144883190Y-78922619D01*
X145168904Y-78922619D01*
X145264142Y-78970238D01*
X145311761Y-79017857D01*
X145359380Y-79113095D01*
X145359380Y-79255952D01*
X144692714Y-78636904D02*
X144692714Y-78255952D01*
X144359380Y-78494047D02*
X145216523Y-78494047D01*
X145311761Y-78446428D01*
X145359380Y-78351190D01*
X145359380Y-78255952D01*
X145454619Y-78160714D02*
X145454619Y-77398809D01*
X144454619Y-77208333D02*
X144407000Y-77160714D01*
X144359380Y-77065476D01*
X144359380Y-76827380D01*
X144407000Y-76732142D01*
X144454619Y-76684523D01*
X144549857Y-76636904D01*
X144645095Y-76636904D01*
X144787952Y-76684523D01*
X145359380Y-77255952D01*
X145359380Y-76636904D01*
X145454619Y-76446428D02*
X145454619Y-75684523D01*
X144835571Y-75113095D02*
X144883190Y-74970238D01*
X144930809Y-74922619D01*
X145026047Y-74875000D01*
X145168904Y-74875000D01*
X145264142Y-74922619D01*
X145311761Y-74970238D01*
X145359380Y-75065476D01*
X145359380Y-75446428D01*
X144359380Y-75446428D01*
X144359380Y-75113095D01*
X144407000Y-75017857D01*
X144454619Y-74970238D01*
X144549857Y-74922619D01*
X144645095Y-74922619D01*
X144740333Y-74970238D01*
X144787952Y-75017857D01*
X144835571Y-75113095D01*
X144835571Y-75446428D01*
X188745761Y-83875000D02*
X188793380Y-83732142D01*
X188793380Y-83494047D01*
X188745761Y-83398809D01*
X188698142Y-83351190D01*
X188602904Y-83303571D01*
X188507666Y-83303571D01*
X188412428Y-83351190D01*
X188364809Y-83398809D01*
X188317190Y-83494047D01*
X188269571Y-83684523D01*
X188221952Y-83779761D01*
X188174333Y-83827380D01*
X188079095Y-83875000D01*
X187983857Y-83875000D01*
X187888619Y-83827380D01*
X187841000Y-83779761D01*
X187793380Y-83684523D01*
X187793380Y-83446428D01*
X187841000Y-83303571D01*
X188126714Y-82875000D02*
X189126714Y-82875000D01*
X188174333Y-82875000D02*
X188126714Y-82779761D01*
X188126714Y-82589285D01*
X188174333Y-82494047D01*
X188221952Y-82446428D01*
X188317190Y-82398809D01*
X188602904Y-82398809D01*
X188698142Y-82446428D01*
X188745761Y-82494047D01*
X188793380Y-82589285D01*
X188793380Y-82779761D01*
X188745761Y-82875000D01*
X188793380Y-81827380D02*
X188745761Y-81922619D01*
X188650523Y-81970238D01*
X187793380Y-81970238D01*
X188793380Y-81446428D02*
X188126714Y-81446428D01*
X187793380Y-81446428D02*
X187841000Y-81494047D01*
X187888619Y-81446428D01*
X187841000Y-81398809D01*
X187793380Y-81446428D01*
X187888619Y-81446428D01*
X188126714Y-81113095D02*
X188126714Y-80732142D01*
X187793380Y-80970238D02*
X188650523Y-80970238D01*
X188745761Y-80922619D01*
X188793380Y-80827380D01*
X188793380Y-80732142D01*
X188793380Y-80398809D02*
X187793380Y-80398809D01*
X187793380Y-80017857D01*
X187841000Y-79922619D01*
X187888619Y-79875000D01*
X187983857Y-79827380D01*
X188126714Y-79827380D01*
X188221952Y-79875000D01*
X188269571Y-79922619D01*
X188317190Y-80017857D01*
X188317190Y-80398809D01*
X188793380Y-79255952D02*
X188745761Y-79351190D01*
X188698142Y-79398809D01*
X188602904Y-79446428D01*
X188317190Y-79446428D01*
X188221952Y-79398809D01*
X188174333Y-79351190D01*
X188126714Y-79255952D01*
X188126714Y-79113095D01*
X188174333Y-79017857D01*
X188221952Y-78970238D01*
X188317190Y-78922619D01*
X188602904Y-78922619D01*
X188698142Y-78970238D01*
X188745761Y-79017857D01*
X188793380Y-79113095D01*
X188793380Y-79255952D01*
X188126714Y-78636904D02*
X188126714Y-78255952D01*
X187793380Y-78494047D02*
X188650523Y-78494047D01*
X188745761Y-78446428D01*
X188793380Y-78351190D01*
X188793380Y-78255952D01*
X188888619Y-78160714D02*
X188888619Y-77398809D01*
X188126714Y-76732142D02*
X188793380Y-76732142D01*
X187745761Y-76970238D02*
X188460047Y-77208333D01*
X188460047Y-76589285D01*
X188888619Y-76446428D02*
X188888619Y-75684523D01*
X188793380Y-75446428D02*
X187793380Y-75446428D01*
X187793380Y-75208333D01*
X187841000Y-75065476D01*
X187936238Y-74970238D01*
X188031476Y-74922619D01*
X188221952Y-74875000D01*
X188364809Y-74875000D01*
X188555285Y-74922619D01*
X188650523Y-74970238D01*
X188745761Y-75065476D01*
X188793380Y-75208333D01*
X188793380Y-75446428D01*
X229997428Y-129055761D02*
X230140285Y-129103380D01*
X230378380Y-129103380D01*
X230473619Y-129055761D01*
X230521238Y-129008142D01*
X230568857Y-128912904D01*
X230568857Y-128817666D01*
X230521238Y-128722428D01*
X230473619Y-128674809D01*
X230378380Y-128627190D01*
X230187904Y-128579571D01*
X230092666Y-128531952D01*
X230045047Y-128484333D01*
X229997428Y-128389095D01*
X229997428Y-128293857D01*
X230045047Y-128198619D01*
X230092666Y-128151000D01*
X230187904Y-128103380D01*
X230426000Y-128103380D01*
X230568857Y-128151000D01*
X230997428Y-128579571D02*
X231330761Y-128579571D01*
X231473619Y-129103380D02*
X230997428Y-129103380D01*
X230997428Y-128103380D01*
X231473619Y-128103380D01*
X232568857Y-129198619D02*
X232473619Y-129151000D01*
X232378380Y-129055761D01*
X232235523Y-128912904D01*
X232140285Y-128865285D01*
X232045047Y-128865285D01*
X232092666Y-129103380D02*
X231997428Y-129055761D01*
X231902190Y-128960523D01*
X231854571Y-128770047D01*
X231854571Y-128436714D01*
X231902190Y-128246238D01*
X231997428Y-128151000D01*
X232092666Y-128103380D01*
X232283142Y-128103380D01*
X232378380Y-128151000D01*
X232473619Y-128246238D01*
X232521238Y-128436714D01*
X232521238Y-128770047D01*
X232473619Y-128960523D01*
X232378380Y-129055761D01*
X232283142Y-129103380D01*
X232092666Y-129103380D01*
X232711714Y-129198619D02*
X233473619Y-129198619D01*
X233664095Y-129055761D02*
X233806952Y-129103380D01*
X234045047Y-129103380D01*
X234140285Y-129055761D01*
X234187904Y-129008142D01*
X234235523Y-128912904D01*
X234235523Y-128817666D01*
X234187904Y-128722428D01*
X234140285Y-128674809D01*
X234045047Y-128627190D01*
X233854571Y-128579571D01*
X233759333Y-128531952D01*
X233711714Y-128484333D01*
X233664095Y-128389095D01*
X233664095Y-128293857D01*
X233711714Y-128198619D01*
X233759333Y-128151000D01*
X233854571Y-128103380D01*
X234092666Y-128103380D01*
X234235523Y-128151000D01*
X234616476Y-128817666D02*
X235092666Y-128817666D01*
X234521238Y-129103380D02*
X234854571Y-128103380D01*
X235187904Y-129103380D01*
X235378380Y-128103380D02*
X235711714Y-129103380D01*
X236045047Y-128103380D01*
X236378380Y-128579571D02*
X236711714Y-128579571D01*
X236854571Y-129103380D02*
X236378380Y-129103380D01*
X236378380Y-128103380D01*
X236854571Y-128103380D01*
X123340761Y-83803571D02*
X123388380Y-83660714D01*
X123388380Y-83422619D01*
X123340761Y-83327380D01*
X123293142Y-83279761D01*
X123197904Y-83232142D01*
X123102666Y-83232142D01*
X123007428Y-83279761D01*
X122959809Y-83327380D01*
X122912190Y-83422619D01*
X122864571Y-83613095D01*
X122816952Y-83708333D01*
X122769333Y-83755952D01*
X122674095Y-83803571D01*
X122578857Y-83803571D01*
X122483619Y-83755952D01*
X122436000Y-83708333D01*
X122388380Y-83613095D01*
X122388380Y-83375000D01*
X122436000Y-83232142D01*
X122721714Y-82803571D02*
X123721714Y-82803571D01*
X122769333Y-82803571D02*
X122721714Y-82708333D01*
X122721714Y-82517857D01*
X122769333Y-82422619D01*
X122816952Y-82375000D01*
X122912190Y-82327380D01*
X123197904Y-82327380D01*
X123293142Y-82375000D01*
X123340761Y-82422619D01*
X123388380Y-82517857D01*
X123388380Y-82708333D01*
X123340761Y-82803571D01*
X123388380Y-81755952D02*
X123340761Y-81851190D01*
X123245523Y-81898809D01*
X122388380Y-81898809D01*
X123388380Y-81375000D02*
X122721714Y-81375000D01*
X122388380Y-81375000D02*
X122436000Y-81422619D01*
X122483619Y-81375000D01*
X122436000Y-81327380D01*
X122388380Y-81375000D01*
X122483619Y-81375000D01*
X122721714Y-81041666D02*
X122721714Y-80660714D01*
X122388380Y-80898809D02*
X123245523Y-80898809D01*
X123340761Y-80851190D01*
X123388380Y-80755952D01*
X123388380Y-80660714D01*
X123388380Y-80327380D02*
X122388380Y-80327380D01*
X122388380Y-79946428D01*
X122436000Y-79851190D01*
X122483619Y-79803571D01*
X122578857Y-79755952D01*
X122721714Y-79755952D01*
X122816952Y-79803571D01*
X122864571Y-79851190D01*
X122912190Y-79946428D01*
X122912190Y-80327380D01*
X123388380Y-79184523D02*
X123340761Y-79279761D01*
X123293142Y-79327380D01*
X123197904Y-79375000D01*
X122912190Y-79375000D01*
X122816952Y-79327380D01*
X122769333Y-79279761D01*
X122721714Y-79184523D01*
X122721714Y-79041666D01*
X122769333Y-78946428D01*
X122816952Y-78898809D01*
X122912190Y-78851190D01*
X123197904Y-78851190D01*
X123293142Y-78898809D01*
X123340761Y-78946428D01*
X123388380Y-79041666D01*
X123388380Y-79184523D01*
X122721714Y-78565476D02*
X122721714Y-78184523D01*
X122388380Y-78422619D02*
X123245523Y-78422619D01*
X123340761Y-78375000D01*
X123388380Y-78279761D01*
X123388380Y-78184523D01*
X123483619Y-78089285D02*
X123483619Y-77327380D01*
X123388380Y-76565476D02*
X123388380Y-77136904D01*
X123388380Y-76851190D02*
X122388380Y-76851190D01*
X122531238Y-76946428D01*
X122626476Y-77041666D01*
X122674095Y-77136904D01*
X123483619Y-76375000D02*
X123483619Y-75613095D01*
X123102666Y-75422619D02*
X123102666Y-74946428D01*
X123388380Y-75517857D02*
X122388380Y-75184523D01*
X123388380Y-74851190D01*
X167790761Y-83875000D02*
X167838380Y-83732142D01*
X167838380Y-83494047D01*
X167790761Y-83398809D01*
X167743142Y-83351190D01*
X167647904Y-83303571D01*
X167552666Y-83303571D01*
X167457428Y-83351190D01*
X167409809Y-83398809D01*
X167362190Y-83494047D01*
X167314571Y-83684523D01*
X167266952Y-83779761D01*
X167219333Y-83827380D01*
X167124095Y-83875000D01*
X167028857Y-83875000D01*
X166933619Y-83827380D01*
X166886000Y-83779761D01*
X166838380Y-83684523D01*
X166838380Y-83446428D01*
X166886000Y-83303571D01*
X167171714Y-82875000D02*
X168171714Y-82875000D01*
X167219333Y-82875000D02*
X167171714Y-82779761D01*
X167171714Y-82589285D01*
X167219333Y-82494047D01*
X167266952Y-82446428D01*
X167362190Y-82398809D01*
X167647904Y-82398809D01*
X167743142Y-82446428D01*
X167790761Y-82494047D01*
X167838380Y-82589285D01*
X167838380Y-82779761D01*
X167790761Y-82875000D01*
X167838380Y-81827380D02*
X167790761Y-81922619D01*
X167695523Y-81970238D01*
X166838380Y-81970238D01*
X167838380Y-81446428D02*
X167171714Y-81446428D01*
X166838380Y-81446428D02*
X166886000Y-81494047D01*
X166933619Y-81446428D01*
X166886000Y-81398809D01*
X166838380Y-81446428D01*
X166933619Y-81446428D01*
X167171714Y-81113095D02*
X167171714Y-80732142D01*
X166838380Y-80970238D02*
X167695523Y-80970238D01*
X167790761Y-80922619D01*
X167838380Y-80827380D01*
X167838380Y-80732142D01*
X167838380Y-80398809D02*
X166838380Y-80398809D01*
X166838380Y-80017857D01*
X166886000Y-79922619D01*
X166933619Y-79875000D01*
X167028857Y-79827380D01*
X167171714Y-79827380D01*
X167266952Y-79875000D01*
X167314571Y-79922619D01*
X167362190Y-80017857D01*
X167362190Y-80398809D01*
X167838380Y-79255952D02*
X167790761Y-79351190D01*
X167743142Y-79398809D01*
X167647904Y-79446428D01*
X167362190Y-79446428D01*
X167266952Y-79398809D01*
X167219333Y-79351190D01*
X167171714Y-79255952D01*
X167171714Y-79113095D01*
X167219333Y-79017857D01*
X167266952Y-78970238D01*
X167362190Y-78922619D01*
X167647904Y-78922619D01*
X167743142Y-78970238D01*
X167790761Y-79017857D01*
X167838380Y-79113095D01*
X167838380Y-79255952D01*
X167171714Y-78636904D02*
X167171714Y-78255952D01*
X166838380Y-78494047D02*
X167695523Y-78494047D01*
X167790761Y-78446428D01*
X167838380Y-78351190D01*
X167838380Y-78255952D01*
X167933619Y-78160714D02*
X167933619Y-77398809D01*
X166838380Y-77255952D02*
X166838380Y-76636904D01*
X167219333Y-76970238D01*
X167219333Y-76827380D01*
X167266952Y-76732142D01*
X167314571Y-76684523D01*
X167409809Y-76636904D01*
X167647904Y-76636904D01*
X167743142Y-76684523D01*
X167790761Y-76732142D01*
X167838380Y-76827380D01*
X167838380Y-77113095D01*
X167790761Y-77208333D01*
X167743142Y-77255952D01*
X167933619Y-76446428D02*
X167933619Y-75684523D01*
X167743142Y-74875000D02*
X167790761Y-74922619D01*
X167838380Y-75065476D01*
X167838380Y-75160714D01*
X167790761Y-75303571D01*
X167695523Y-75398809D01*
X167600285Y-75446428D01*
X167409809Y-75494047D01*
X167266952Y-75494047D01*
X167076476Y-75446428D01*
X166981238Y-75398809D01*
X166886000Y-75303571D01*
X166838380Y-75160714D01*
X166838380Y-75065476D01*
X166886000Y-74922619D01*
X166933619Y-74875000D01*
X230949809Y-116657380D02*
X230473619Y-116657380D01*
X230473619Y-115657380D01*
X231854571Y-116562142D02*
X231806952Y-116609761D01*
X231664095Y-116657380D01*
X231568857Y-116657380D01*
X231426000Y-116609761D01*
X231330761Y-116514523D01*
X231283142Y-116419285D01*
X231235523Y-116228809D01*
X231235523Y-116085952D01*
X231283142Y-115895476D01*
X231330761Y-115800238D01*
X231426000Y-115705000D01*
X231568857Y-115657380D01*
X231664095Y-115657380D01*
X231806952Y-115705000D01*
X231854571Y-115752619D01*
X232283142Y-116657380D02*
X232283142Y-115657380D01*
X232521238Y-115657380D01*
X232664095Y-115705000D01*
X232759333Y-115800238D01*
X232806952Y-115895476D01*
X232854571Y-116085952D01*
X232854571Y-116228809D01*
X232806952Y-116419285D01*
X232759333Y-116514523D01*
X232664095Y-116609761D01*
X232521238Y-116657380D01*
X232283142Y-116657380D01*
X233045047Y-116752619D02*
X233806952Y-116752619D01*
X234045047Y-116657380D02*
X234045047Y-115657380D01*
X234426000Y-115657380D01*
X234521238Y-115705000D01*
X234568857Y-115752619D01*
X234616476Y-115847857D01*
X234616476Y-115990714D01*
X234568857Y-116085952D01*
X234521238Y-116133571D01*
X234426000Y-116181190D01*
X234045047Y-116181190D01*
X235378380Y-116133571D02*
X235521238Y-116181190D01*
X235568857Y-116228809D01*
X235616476Y-116324047D01*
X235616476Y-116466904D01*
X235568857Y-116562142D01*
X235521238Y-116609761D01*
X235426000Y-116657380D01*
X235045047Y-116657380D01*
X235045047Y-115657380D01*
X235378380Y-115657380D01*
X235473619Y-115705000D01*
X235521238Y-115752619D01*
X235568857Y-115847857D01*
X235568857Y-115943095D01*
X235521238Y-116038333D01*
X235473619Y-116085952D01*
X235378380Y-116133571D01*
X235045047Y-116133571D01*
X235997428Y-116609761D02*
X236092666Y-116657380D01*
X236283142Y-116657380D01*
X236378380Y-116609761D01*
X236426000Y-116514523D01*
X236426000Y-116466904D01*
X236378380Y-116371666D01*
X236283142Y-116324047D01*
X236140285Y-116324047D01*
X236045047Y-116276428D01*
X235997428Y-116181190D01*
X235997428Y-116133571D01*
X236045047Y-116038333D01*
X236140285Y-115990714D01*
X236283142Y-115990714D01*
X236378380Y-116038333D01*
X210970761Y-83493952D02*
X211018380Y-83351095D01*
X211018380Y-83113000D01*
X210970761Y-83017761D01*
X210923142Y-82970142D01*
X210827904Y-82922523D01*
X210732666Y-82922523D01*
X210637428Y-82970142D01*
X210589809Y-83017761D01*
X210542190Y-83113000D01*
X210494571Y-83303476D01*
X210446952Y-83398714D01*
X210399333Y-83446333D01*
X210304095Y-83493952D01*
X210208857Y-83493952D01*
X210113619Y-83446333D01*
X210066000Y-83398714D01*
X210018380Y-83303476D01*
X210018380Y-83065380D01*
X210066000Y-82922523D01*
X210351714Y-82493952D02*
X211351714Y-82493952D01*
X210399333Y-82493952D02*
X210351714Y-82398714D01*
X210351714Y-82208238D01*
X210399333Y-82113000D01*
X210446952Y-82065380D01*
X210542190Y-82017761D01*
X210827904Y-82017761D01*
X210923142Y-82065380D01*
X210970761Y-82113000D01*
X211018380Y-82208238D01*
X211018380Y-82398714D01*
X210970761Y-82493952D01*
X211018380Y-81446333D02*
X210970761Y-81541571D01*
X210875523Y-81589190D01*
X210018380Y-81589190D01*
X211018380Y-81065380D02*
X210351714Y-81065380D01*
X210018380Y-81065380D02*
X210066000Y-81113000D01*
X210113619Y-81065380D01*
X210066000Y-81017761D01*
X210018380Y-81065380D01*
X210113619Y-81065380D01*
X210351714Y-80732047D02*
X210351714Y-80351095D01*
X210018380Y-80589190D02*
X210875523Y-80589190D01*
X210970761Y-80541571D01*
X211018380Y-80446333D01*
X211018380Y-80351095D01*
X211018380Y-80017761D02*
X210018380Y-80017761D01*
X210018380Y-79636809D01*
X210066000Y-79541571D01*
X210113619Y-79493952D01*
X210208857Y-79446333D01*
X210351714Y-79446333D01*
X210446952Y-79493952D01*
X210494571Y-79541571D01*
X210542190Y-79636809D01*
X210542190Y-80017761D01*
X211018380Y-78874904D02*
X210970761Y-78970142D01*
X210923142Y-79017761D01*
X210827904Y-79065380D01*
X210542190Y-79065380D01*
X210446952Y-79017761D01*
X210399333Y-78970142D01*
X210351714Y-78874904D01*
X210351714Y-78732047D01*
X210399333Y-78636809D01*
X210446952Y-78589190D01*
X210542190Y-78541571D01*
X210827904Y-78541571D01*
X210923142Y-78589190D01*
X210970761Y-78636809D01*
X211018380Y-78732047D01*
X211018380Y-78874904D01*
X210351714Y-78255857D02*
X210351714Y-77874904D01*
X210018380Y-78113000D02*
X210875523Y-78113000D01*
X210970761Y-78065380D01*
X211018380Y-77970142D01*
X211018380Y-77874904D01*
X211113619Y-77779666D02*
X211113619Y-77017761D01*
X210018380Y-76303476D02*
X210018380Y-76779666D01*
X210494571Y-76827285D01*
X210446952Y-76779666D01*
X210399333Y-76684428D01*
X210399333Y-76446333D01*
X210446952Y-76351095D01*
X210494571Y-76303476D01*
X210589809Y-76255857D01*
X210827904Y-76255857D01*
X210923142Y-76303476D01*
X210970761Y-76351095D01*
X211018380Y-76446333D01*
X211018380Y-76684428D01*
X210970761Y-76779666D01*
X210923142Y-76827285D01*
X211113619Y-76065380D02*
X211113619Y-75303476D01*
X210018380Y-75208238D02*
X210018380Y-74636809D01*
X211018380Y-74922523D02*
X210018380Y-74922523D01*
X211018380Y-73732047D02*
X210542190Y-74065380D01*
X211018380Y-74303476D02*
X210018380Y-74303476D01*
X210018380Y-73922523D01*
X210066000Y-73827285D01*
X210113619Y-73779666D01*
X210208857Y-73732047D01*
X210351714Y-73732047D01*
X210446952Y-73779666D01*
X210494571Y-73827285D01*
X210542190Y-73922523D01*
X210542190Y-74303476D01*
X71794666Y-86565619D02*
X71794666Y-86089428D01*
X72080380Y-86660857D02*
X71080380Y-86327523D01*
X72080380Y-85994190D01*
X71413714Y-85660857D02*
X72080380Y-85660857D01*
X71508952Y-85660857D02*
X71461333Y-85613238D01*
X71413714Y-85518000D01*
X71413714Y-85375142D01*
X71461333Y-85279904D01*
X71556571Y-85232285D01*
X72080380Y-85232285D01*
X72080380Y-84327523D02*
X71556571Y-84327523D01*
X71461333Y-84375142D01*
X71413714Y-84470380D01*
X71413714Y-84660857D01*
X71461333Y-84756095D01*
X72032761Y-84327523D02*
X72080380Y-84422761D01*
X72080380Y-84660857D01*
X72032761Y-84756095D01*
X71937523Y-84803714D01*
X71842285Y-84803714D01*
X71747047Y-84756095D01*
X71699428Y-84660857D01*
X71699428Y-84422761D01*
X71651809Y-84327523D01*
X72080380Y-83708476D02*
X72032761Y-83803714D01*
X71937523Y-83851333D01*
X71080380Y-83851333D01*
X72080380Y-83184666D02*
X72032761Y-83279904D01*
X71985142Y-83327523D01*
X71889904Y-83375142D01*
X71604190Y-83375142D01*
X71508952Y-83327523D01*
X71461333Y-83279904D01*
X71413714Y-83184666D01*
X71413714Y-83041809D01*
X71461333Y-82946571D01*
X71508952Y-82898952D01*
X71604190Y-82851333D01*
X71889904Y-82851333D01*
X71985142Y-82898952D01*
X72032761Y-82946571D01*
X72080380Y-83041809D01*
X72080380Y-83184666D01*
X71413714Y-81994190D02*
X72223238Y-81994190D01*
X72318476Y-82041809D01*
X72366095Y-82089428D01*
X72413714Y-82184666D01*
X72413714Y-82327523D01*
X72366095Y-82422761D01*
X72032761Y-81994190D02*
X72080380Y-82089428D01*
X72080380Y-82279904D01*
X72032761Y-82375142D01*
X71985142Y-82422761D01*
X71889904Y-82470380D01*
X71604190Y-82470380D01*
X71508952Y-82422761D01*
X71461333Y-82375142D01*
X71413714Y-82279904D01*
X71413714Y-82089428D01*
X71461333Y-81994190D01*
X72080380Y-80756095D02*
X71080380Y-80756095D01*
X71080380Y-80375142D01*
X71128000Y-80279904D01*
X71175619Y-80232285D01*
X71270857Y-80184666D01*
X71413714Y-80184666D01*
X71508952Y-80232285D01*
X71556571Y-80279904D01*
X71604190Y-80375142D01*
X71604190Y-80756095D01*
X72080380Y-79613238D02*
X72032761Y-79708476D01*
X71985142Y-79756095D01*
X71889904Y-79803714D01*
X71604190Y-79803714D01*
X71508952Y-79756095D01*
X71461333Y-79708476D01*
X71413714Y-79613238D01*
X71413714Y-79470380D01*
X71461333Y-79375142D01*
X71508952Y-79327523D01*
X71604190Y-79279904D01*
X71889904Y-79279904D01*
X71985142Y-79327523D01*
X72032761Y-79375142D01*
X72080380Y-79470380D01*
X72080380Y-79613238D01*
X71413714Y-78946571D02*
X72080380Y-78756095D01*
X71604190Y-78565619D01*
X72080380Y-78375142D01*
X71413714Y-78184666D01*
X72032761Y-77422761D02*
X72080380Y-77518000D01*
X72080380Y-77708476D01*
X72032761Y-77803714D01*
X71937523Y-77851333D01*
X71556571Y-77851333D01*
X71461333Y-77803714D01*
X71413714Y-77708476D01*
X71413714Y-77518000D01*
X71461333Y-77422761D01*
X71556571Y-77375142D01*
X71651809Y-77375142D01*
X71747047Y-77851333D01*
X72080380Y-76946571D02*
X71413714Y-76946571D01*
X71604190Y-76946571D02*
X71508952Y-76898952D01*
X71461333Y-76851333D01*
X71413714Y-76756095D01*
X71413714Y-76660857D01*
X72080380Y-75565619D02*
X71080380Y-75565619D01*
X72080380Y-75089428D02*
X71080380Y-75089428D01*
X72080380Y-74518000D01*
X71080380Y-74518000D01*
X180919523Y-93416380D02*
X180348095Y-93416380D01*
X180633809Y-93416380D02*
X180633809Y-92416380D01*
X180538571Y-92559238D01*
X180443333Y-92654476D01*
X180348095Y-92702095D01*
X181538571Y-92416380D02*
X181633809Y-92416380D01*
X181729047Y-92464000D01*
X181776666Y-92511619D01*
X181824285Y-92606857D01*
X181871904Y-92797333D01*
X181871904Y-93035428D01*
X181824285Y-93225904D01*
X181776666Y-93321142D01*
X181729047Y-93368761D01*
X181633809Y-93416380D01*
X181538571Y-93416380D01*
X181443333Y-93368761D01*
X181395714Y-93321142D01*
X181348095Y-93225904D01*
X181300476Y-93035428D01*
X181300476Y-92797333D01*
X181348095Y-92606857D01*
X181395714Y-92511619D01*
X181443333Y-92464000D01*
X181538571Y-92416380D01*
X182300476Y-93416380D02*
X182300476Y-92416380D01*
X182871904Y-93416380D02*
X182443333Y-92844952D01*
X182871904Y-92416380D02*
X182300476Y-92987809D01*
X163806285Y-129325714D02*
X163806285Y-129992380D01*
X163568190Y-128944761D02*
X163330095Y-129659047D01*
X163949142Y-129659047D01*
X164234857Y-128992380D02*
X164901523Y-128992380D01*
X164472952Y-129992380D01*
X165282476Y-129992380D02*
X165282476Y-128992380D01*
X165853904Y-129992380D02*
X165425333Y-129420952D01*
X165853904Y-128992380D02*
X165282476Y-129563809D01*
X137739523Y-93416380D02*
X137168095Y-93416380D01*
X137453809Y-93416380D02*
X137453809Y-92416380D01*
X137358571Y-92559238D01*
X137263333Y-92654476D01*
X137168095Y-92702095D01*
X138358571Y-92416380D02*
X138453809Y-92416380D01*
X138549047Y-92464000D01*
X138596666Y-92511619D01*
X138644285Y-92606857D01*
X138691904Y-92797333D01*
X138691904Y-93035428D01*
X138644285Y-93225904D01*
X138596666Y-93321142D01*
X138549047Y-93368761D01*
X138453809Y-93416380D01*
X138358571Y-93416380D01*
X138263333Y-93368761D01*
X138215714Y-93321142D01*
X138168095Y-93225904D01*
X138120476Y-93035428D01*
X138120476Y-92797333D01*
X138168095Y-92606857D01*
X138215714Y-92511619D01*
X138263333Y-92464000D01*
X138358571Y-92416380D01*
X139120476Y-93416380D02*
X139120476Y-92416380D01*
X139691904Y-93416380D02*
X139263333Y-92844952D01*
X139691904Y-92416380D02*
X139120476Y-92987809D01*
X88463523Y-88590380D02*
X87892095Y-88590380D01*
X88177809Y-88590380D02*
X88177809Y-87590380D01*
X88082571Y-87733238D01*
X87987333Y-87828476D01*
X87892095Y-87876095D01*
X89082571Y-87590380D02*
X89177809Y-87590380D01*
X89273047Y-87638000D01*
X89320666Y-87685619D01*
X89368285Y-87780857D01*
X89415904Y-87971333D01*
X89415904Y-88209428D01*
X89368285Y-88399904D01*
X89320666Y-88495142D01*
X89273047Y-88542761D01*
X89177809Y-88590380D01*
X89082571Y-88590380D01*
X88987333Y-88542761D01*
X88939714Y-88495142D01*
X88892095Y-88399904D01*
X88844476Y-88209428D01*
X88844476Y-87971333D01*
X88892095Y-87780857D01*
X88939714Y-87685619D01*
X88987333Y-87638000D01*
X89082571Y-87590380D01*
X89844476Y-88590380D02*
X89844476Y-87590380D01*
X90415904Y-88590380D02*
X89987333Y-88018952D01*
X90415904Y-87590380D02*
X89844476Y-88161809D01*
X159837523Y-93416380D02*
X159266095Y-93416380D01*
X159551809Y-93416380D02*
X159551809Y-92416380D01*
X159456571Y-92559238D01*
X159361333Y-92654476D01*
X159266095Y-92702095D01*
X160456571Y-92416380D02*
X160551809Y-92416380D01*
X160647047Y-92464000D01*
X160694666Y-92511619D01*
X160742285Y-92606857D01*
X160789904Y-92797333D01*
X160789904Y-93035428D01*
X160742285Y-93225904D01*
X160694666Y-93321142D01*
X160647047Y-93368761D01*
X160551809Y-93416380D01*
X160456571Y-93416380D01*
X160361333Y-93368761D01*
X160313714Y-93321142D01*
X160266095Y-93225904D01*
X160218476Y-93035428D01*
X160218476Y-92797333D01*
X160266095Y-92606857D01*
X160313714Y-92511619D01*
X160361333Y-92464000D01*
X160456571Y-92416380D01*
X161218476Y-93416380D02*
X161218476Y-92416380D01*
X161789904Y-93416380D02*
X161361333Y-92844952D01*
X161789904Y-92416380D02*
X161218476Y-92987809D01*
X220257714Y-134056380D02*
X219686285Y-134056380D01*
X219972000Y-134056380D02*
X219972000Y-133056380D01*
X219876761Y-133199238D01*
X219781523Y-133294476D01*
X219686285Y-133342095D01*
X220686285Y-134056380D02*
X220686285Y-133056380D01*
X221257714Y-134056380D02*
X220829142Y-133484952D01*
X221257714Y-133056380D02*
X220686285Y-133627809D01*
X175236285Y-129391714D02*
X175236285Y-130058380D01*
X174998190Y-129010761D02*
X174760095Y-129725047D01*
X175379142Y-129725047D01*
X175664857Y-129058380D02*
X176331523Y-129058380D01*
X175902952Y-130058380D01*
X176712476Y-130058380D02*
X176712476Y-129058380D01*
X177283904Y-130058380D02*
X176855333Y-129486952D01*
X177283904Y-129058380D02*
X176712476Y-129629809D01*
X220257714Y-131516380D02*
X219686285Y-131516380D01*
X219972000Y-131516380D02*
X219972000Y-130516380D01*
X219876761Y-130659238D01*
X219781523Y-130754476D01*
X219686285Y-130802095D01*
X220686285Y-131516380D02*
X220686285Y-130516380D01*
X221257714Y-131516380D02*
X220829142Y-130944952D01*
X221257714Y-130516380D02*
X220686285Y-131087809D01*
X169648285Y-129325714D02*
X169648285Y-129992380D01*
X169410190Y-128944761D02*
X169172095Y-129659047D01*
X169791142Y-129659047D01*
X170076857Y-128992380D02*
X170743523Y-128992380D01*
X170314952Y-129992380D01*
X171124476Y-129992380D02*
X171124476Y-128992380D01*
X171695904Y-129992380D02*
X171267333Y-129420952D01*
X171695904Y-128992380D02*
X171124476Y-129563809D01*
X220257714Y-128976380D02*
X219686285Y-128976380D01*
X219972000Y-128976380D02*
X219972000Y-127976380D01*
X219876761Y-128119238D01*
X219781523Y-128214476D01*
X219686285Y-128262095D01*
X220686285Y-128976380D02*
X220686285Y-127976380D01*
X221257714Y-128976380D02*
X220829142Y-128404952D01*
X221257714Y-127976380D02*
X220686285Y-128547809D01*
X220257714Y-126436380D02*
X219686285Y-126436380D01*
X219972000Y-126436380D02*
X219972000Y-125436380D01*
X219876761Y-125579238D01*
X219781523Y-125674476D01*
X219686285Y-125722095D01*
X220686285Y-126436380D02*
X220686285Y-125436380D01*
X221257714Y-126436380D02*
X220829142Y-125864952D01*
X221257714Y-125436380D02*
X220686285Y-126007809D01*
X158218285Y-129325714D02*
X158218285Y-129992380D01*
X157980190Y-128944761D02*
X157742095Y-129659047D01*
X158361142Y-129659047D01*
X158646857Y-128992380D02*
X159313523Y-128992380D01*
X158884952Y-129992380D01*
X159694476Y-129992380D02*
X159694476Y-128992380D01*
X160265904Y-129992380D02*
X159837333Y-129420952D01*
X160265904Y-128992380D02*
X159694476Y-129563809D01*
X215082380Y-113752285D02*
X215082380Y-114323714D01*
X215082380Y-114038000D02*
X214082380Y-114038000D01*
X214225238Y-114133238D01*
X214320476Y-114228476D01*
X214368095Y-114323714D01*
X215082380Y-113323714D02*
X214082380Y-113323714D01*
X215082380Y-112752285D02*
X214510952Y-113180857D01*
X214082380Y-112752285D02*
X214653809Y-113323714D01*
X152884285Y-129325714D02*
X152884285Y-129992380D01*
X152646190Y-128944761D02*
X152408095Y-129659047D01*
X153027142Y-129659047D01*
X153312857Y-128992380D02*
X153979523Y-128992380D01*
X153550952Y-129992380D01*
X154360476Y-129992380D02*
X154360476Y-128992380D01*
X154931904Y-129992380D02*
X154503333Y-129420952D01*
X154931904Y-128992380D02*
X154360476Y-129563809D01*
X213939523Y-93416380D02*
X213368095Y-93416380D01*
X213653809Y-93416380D02*
X213653809Y-92416380D01*
X213558571Y-92559238D01*
X213463333Y-92654476D01*
X213368095Y-92702095D01*
X214558571Y-92416380D02*
X214653809Y-92416380D01*
X214749047Y-92464000D01*
X214796666Y-92511619D01*
X214844285Y-92606857D01*
X214891904Y-92797333D01*
X214891904Y-93035428D01*
X214844285Y-93225904D01*
X214796666Y-93321142D01*
X214749047Y-93368761D01*
X214653809Y-93416380D01*
X214558571Y-93416380D01*
X214463333Y-93368761D01*
X214415714Y-93321142D01*
X214368095Y-93225904D01*
X214320476Y-93035428D01*
X214320476Y-92797333D01*
X214368095Y-92606857D01*
X214415714Y-92511619D01*
X214463333Y-92464000D01*
X214558571Y-92416380D01*
X215320476Y-93416380D02*
X215320476Y-92416380D01*
X215891904Y-93416380D02*
X215463333Y-92844952D01*
X215891904Y-92416380D02*
X215320476Y-92987809D01*
X212542380Y-111212285D02*
X212542380Y-111783714D01*
X212542380Y-111498000D02*
X211542380Y-111498000D01*
X211685238Y-111593238D01*
X211780476Y-111688476D01*
X211828095Y-111783714D01*
X212542380Y-110783714D02*
X211542380Y-110783714D01*
X212542380Y-110212285D02*
X211970952Y-110640857D01*
X211542380Y-110212285D02*
X212113809Y-110783714D01*
X147296285Y-129325714D02*
X147296285Y-129992380D01*
X147058190Y-128944761D02*
X146820095Y-129659047D01*
X147439142Y-129659047D01*
X147724857Y-128992380D02*
X148391523Y-128992380D01*
X147962952Y-129992380D01*
X148772476Y-129992380D02*
X148772476Y-128992380D01*
X149343904Y-129992380D02*
X148915333Y-129420952D01*
X149343904Y-128992380D02*
X148772476Y-129563809D01*
X71191380Y-90320619D02*
X71191380Y-90892047D01*
X71191380Y-90606333D02*
X70191380Y-90606333D01*
X70334238Y-90701571D01*
X70429476Y-90796809D01*
X70477095Y-90892047D01*
X70191380Y-89701571D02*
X70191380Y-89606333D01*
X70239000Y-89511095D01*
X70286619Y-89463476D01*
X70381857Y-89415857D01*
X70572333Y-89368238D01*
X70810428Y-89368238D01*
X71000904Y-89415857D01*
X71096142Y-89463476D01*
X71143761Y-89511095D01*
X71191380Y-89606333D01*
X71191380Y-89701571D01*
X71143761Y-89796809D01*
X71096142Y-89844428D01*
X71000904Y-89892047D01*
X70810428Y-89939666D01*
X70572333Y-89939666D01*
X70381857Y-89892047D01*
X70286619Y-89844428D01*
X70239000Y-89796809D01*
X70191380Y-89701571D01*
X70191380Y-88749190D02*
X70191380Y-88653952D01*
X70239000Y-88558714D01*
X70286619Y-88511095D01*
X70381857Y-88463476D01*
X70572333Y-88415857D01*
X70810428Y-88415857D01*
X71000904Y-88463476D01*
X71096142Y-88511095D01*
X71143761Y-88558714D01*
X71191380Y-88653952D01*
X71191380Y-88749190D01*
X71143761Y-88844428D01*
X71096142Y-88892047D01*
X71000904Y-88939666D01*
X70810428Y-88987285D01*
X70572333Y-88987285D01*
X70381857Y-88939666D01*
X70286619Y-88892047D01*
X70239000Y-88844428D01*
X70191380Y-88749190D01*
X70524714Y-87987285D02*
X71191380Y-87987285D01*
X70619952Y-87987285D02*
X70572333Y-87939666D01*
X70524714Y-87844428D01*
X70524714Y-87701571D01*
X70572333Y-87606333D01*
X70667571Y-87558714D01*
X71191380Y-87558714D01*
X70667571Y-86749190D02*
X70667571Y-87082523D01*
X71191380Y-87082523D02*
X70191380Y-87082523D01*
X70191380Y-86606333D01*
X74168142Y-102814380D02*
X73596714Y-102814380D01*
X73882428Y-102814380D02*
X73882428Y-101814380D01*
X73787190Y-101957238D01*
X73691952Y-102052476D01*
X73596714Y-102100095D01*
X74787190Y-101814380D02*
X74882428Y-101814380D01*
X74977666Y-101862000D01*
X75025285Y-101909619D01*
X75072904Y-102004857D01*
X75120523Y-102195333D01*
X75120523Y-102433428D01*
X75072904Y-102623904D01*
X75025285Y-102719142D01*
X74977666Y-102766761D01*
X74882428Y-102814380D01*
X74787190Y-102814380D01*
X74691952Y-102766761D01*
X74644333Y-102719142D01*
X74596714Y-102623904D01*
X74549095Y-102433428D01*
X74549095Y-102195333D01*
X74596714Y-102004857D01*
X74644333Y-101909619D01*
X74691952Y-101862000D01*
X74787190Y-101814380D01*
X75549095Y-102147714D02*
X75549095Y-103147714D01*
X76025285Y-102671523D02*
X76072904Y-102766761D01*
X76168142Y-102814380D01*
X75549095Y-102671523D02*
X75596714Y-102766761D01*
X75691952Y-102814380D01*
X75882428Y-102814380D01*
X75977666Y-102766761D01*
X76025285Y-102671523D01*
X76025285Y-102147714D01*
X76930047Y-102290571D02*
X76596714Y-102290571D01*
X76596714Y-102814380D02*
X76596714Y-101814380D01*
X77072904Y-101814380D01*
X222559619Y-103242857D02*
X222512000Y-103195238D01*
X222464380Y-103100000D01*
X222464380Y-102861904D01*
X222512000Y-102766666D01*
X222559619Y-102719047D01*
X222654857Y-102671428D01*
X222750095Y-102671428D01*
X222892952Y-102719047D01*
X223464380Y-103290476D01*
X223464380Y-102671428D01*
X222559619Y-102290476D02*
X222512000Y-102242857D01*
X222464380Y-102147619D01*
X222464380Y-101909523D01*
X222512000Y-101814285D01*
X222559619Y-101766666D01*
X222654857Y-101719047D01*
X222750095Y-101719047D01*
X222892952Y-101766666D01*
X223464380Y-102338095D01*
X223464380Y-101719047D01*
X222797714Y-101290476D02*
X223464380Y-101290476D01*
X222892952Y-101290476D02*
X222845333Y-101242857D01*
X222797714Y-101147619D01*
X222797714Y-101004761D01*
X222845333Y-100909523D01*
X222940571Y-100861904D01*
X223464380Y-100861904D01*
X222940571Y-100052380D02*
X222940571Y-100385714D01*
X223464380Y-100385714D02*
X222464380Y-100385714D01*
X222464380Y-99909523D01*
X74176333Y-93162380D02*
X73604904Y-93162380D01*
X73890619Y-93162380D02*
X73890619Y-92162380D01*
X73795380Y-92305238D01*
X73700142Y-92400476D01*
X73604904Y-92448095D01*
X74604904Y-92495714D02*
X74604904Y-93495714D01*
X75081095Y-93019523D02*
X75128714Y-93114761D01*
X75223952Y-93162380D01*
X74604904Y-93019523D02*
X74652523Y-93114761D01*
X74747761Y-93162380D01*
X74938238Y-93162380D01*
X75033476Y-93114761D01*
X75081095Y-93019523D01*
X75081095Y-92495714D01*
X75985857Y-92638571D02*
X75652523Y-92638571D01*
X75652523Y-93162380D02*
X75652523Y-92162380D01*
X76128714Y-92162380D01*
X80081380Y-96249952D02*
X80081380Y-96821380D01*
X80081380Y-96535666D02*
X79081380Y-96535666D01*
X79224238Y-96630904D01*
X79319476Y-96726142D01*
X79367095Y-96821380D01*
X79081380Y-95630904D02*
X79081380Y-95535666D01*
X79129000Y-95440428D01*
X79176619Y-95392809D01*
X79271857Y-95345190D01*
X79462333Y-95297571D01*
X79700428Y-95297571D01*
X79890904Y-95345190D01*
X79986142Y-95392809D01*
X80033761Y-95440428D01*
X80081380Y-95535666D01*
X80081380Y-95630904D01*
X80033761Y-95726142D01*
X79986142Y-95773761D01*
X79890904Y-95821380D01*
X79700428Y-95869000D01*
X79462333Y-95869000D01*
X79271857Y-95821380D01*
X79176619Y-95773761D01*
X79129000Y-95726142D01*
X79081380Y-95630904D01*
X80081380Y-94869000D02*
X79414714Y-94869000D01*
X79509952Y-94869000D02*
X79462333Y-94821380D01*
X79414714Y-94726142D01*
X79414714Y-94583285D01*
X79462333Y-94488047D01*
X79557571Y-94440428D01*
X80081380Y-94440428D01*
X79557571Y-94440428D02*
X79462333Y-94392809D01*
X79414714Y-94297571D01*
X79414714Y-94154714D01*
X79462333Y-94059476D01*
X79557571Y-94011857D01*
X80081380Y-94011857D01*
X80081380Y-93535666D02*
X79081380Y-93535666D01*
X79557571Y-93535666D02*
X79557571Y-92964238D01*
X80081380Y-92964238D02*
X79081380Y-92964238D01*
M02*
