G04 #@! TF.FileFunction,Legend,Top*
%FSLAX46Y46*%
G04 Gerber Fmt 4.6, Leading zero omitted, Abs format (unit mm)*
G04 Created by KiCad (PCBNEW no-vcs-found-undefined) date Wed Nov  9 18:10:00 2016*
%MOMM*%
%LPD*%
G01*
G04 APERTURE LIST*
%ADD10C,0.050000*%
%ADD11C,0.150000*%
G04 APERTURE END LIST*
D10*
D11*
X113792000Y-91948000D02*
X113792000Y-89408000D01*
X118872000Y-91948000D02*
X113792000Y-91948000D01*
X118872000Y-89408000D02*
X118872000Y-91948000D01*
X113792000Y-89408000D02*
X118872000Y-89408000D01*
X226528334Y-111760000D02*
X229068334Y-111760000D01*
X226528334Y-106680000D02*
X226528334Y-109220000D01*
X229068334Y-107696000D02*
X238004334Y-107696000D01*
X238004334Y-107696000D02*
X238004334Y-108204000D01*
X238004334Y-108204000D02*
X229068334Y-108204000D01*
X229068334Y-109220000D02*
X229068334Y-106680000D01*
X229068334Y-111760000D02*
X229068334Y-109220000D01*
X238004334Y-110744000D02*
X229068334Y-110744000D01*
X238004334Y-110236000D02*
X238004334Y-110744000D01*
X229068334Y-110236000D02*
X238004334Y-110236000D01*
X226528334Y-109220000D02*
X226528334Y-111760000D01*
X226528334Y-104140000D02*
X229068334Y-104140000D01*
X226528334Y-104140000D02*
X226528334Y-106680000D01*
X229068334Y-105156000D02*
X238004334Y-105156000D01*
X238004334Y-105156000D02*
X238004334Y-105664000D01*
X238004334Y-105664000D02*
X229068334Y-105664000D01*
X229068334Y-106680000D02*
X229068334Y-104140000D01*
X226528334Y-110744000D02*
X226147334Y-110744000D01*
X226528334Y-110236000D02*
X226147334Y-110236000D01*
X226528334Y-108204000D02*
X226147334Y-108204000D01*
X226528334Y-107696000D02*
X226147334Y-107696000D01*
X226528334Y-105664000D02*
X226147334Y-105664000D01*
X226528334Y-105156000D02*
X226147334Y-105156000D01*
D10*
X229068334Y-110744000D02*
X239004334Y-110744000D01*
X229068334Y-105156000D02*
X239004334Y-105156000D01*
X239004334Y-105156000D02*
X239004334Y-110744000D01*
D11*
X233934000Y-81026000D02*
X226314000Y-81026000D01*
X226314000Y-101346000D02*
X233934000Y-101346000D01*
X227584000Y-101346000D02*
X227584000Y-81026000D01*
X233934000Y-81026000D02*
X233934000Y-101346000D01*
X226314000Y-81026000D02*
X226314000Y-101346000D01*
X206248000Y-129794000D02*
X206248000Y-127254000D01*
X203708000Y-128778000D02*
X194772000Y-128778000D01*
X194772000Y-128778000D02*
X194772000Y-128270000D01*
X194772000Y-128270000D02*
X203708000Y-128270000D01*
X203708000Y-127254000D02*
X203708000Y-129794000D01*
X203708000Y-124714000D02*
X203708000Y-127254000D01*
X194772000Y-125730000D02*
X203708000Y-125730000D01*
X194772000Y-126238000D02*
X194772000Y-125730000D01*
X203708000Y-126238000D02*
X194772000Y-126238000D01*
X206248000Y-127254000D02*
X206248000Y-124714000D01*
X206248000Y-122174000D02*
X206248000Y-119634000D01*
X206248000Y-119634000D02*
X203708000Y-119634000D01*
X203708000Y-121158000D02*
X194772000Y-121158000D01*
X194772000Y-121158000D02*
X194772000Y-120650000D01*
X194772000Y-120650000D02*
X203708000Y-120650000D01*
X203708000Y-119634000D02*
X203708000Y-122174000D01*
X203708000Y-122174000D02*
X203708000Y-124714000D01*
X194772000Y-123190000D02*
X203708000Y-123190000D01*
X194772000Y-123698000D02*
X194772000Y-123190000D01*
X203708000Y-123698000D02*
X194772000Y-123698000D01*
X206248000Y-124714000D02*
X206248000Y-122174000D01*
X206248000Y-134874000D02*
X206248000Y-132334000D01*
X203708000Y-133858000D02*
X194772000Y-133858000D01*
X194772000Y-133858000D02*
X194772000Y-133350000D01*
X194772000Y-133350000D02*
X203708000Y-133350000D01*
X203708000Y-132334000D02*
X203708000Y-134874000D01*
X203708000Y-129794000D02*
X203708000Y-132334000D01*
X194772000Y-130810000D02*
X203708000Y-130810000D01*
X194772000Y-131318000D02*
X194772000Y-130810000D01*
X203708000Y-131318000D02*
X194772000Y-131318000D01*
X206248000Y-132334000D02*
X206248000Y-129794000D01*
X206248000Y-134874000D02*
X203708000Y-134874000D01*
X206248000Y-126238000D02*
X206629000Y-126238000D01*
X206248000Y-125730000D02*
X206629000Y-125730000D01*
X206248000Y-123698000D02*
X206629000Y-123698000D01*
X206248000Y-123190000D02*
X206629000Y-123190000D01*
X206248000Y-121158000D02*
X206629000Y-121158000D01*
X206248000Y-120650000D02*
X206629000Y-120650000D01*
X206248000Y-128270000D02*
X206629000Y-128270000D01*
X206248000Y-128778000D02*
X206629000Y-128778000D01*
X206248000Y-130810000D02*
X206629000Y-130810000D01*
X206248000Y-131318000D02*
X206629000Y-131318000D01*
X206248000Y-133350000D02*
X206629000Y-133350000D01*
X206248000Y-133858000D02*
X206629000Y-133858000D01*
D10*
X203708000Y-120650000D02*
X193772000Y-120650000D01*
X203631800Y-133858000D02*
X193776600Y-133858000D01*
X193772000Y-133858000D02*
X193772000Y-120650000D01*
D11*
X84836000Y-121031000D02*
X84836000Y-118491000D01*
X82296000Y-120015000D02*
X73360000Y-120015000D01*
X73360000Y-120015000D02*
X73360000Y-119507000D01*
X73360000Y-119507000D02*
X82296000Y-119507000D01*
X82296000Y-118491000D02*
X82296000Y-121031000D01*
X82296000Y-115951000D02*
X82296000Y-118491000D01*
X73360000Y-116967000D02*
X82296000Y-116967000D01*
X73360000Y-117475000D02*
X73360000Y-116967000D01*
X82296000Y-117475000D02*
X73360000Y-117475000D01*
X84836000Y-118491000D02*
X84836000Y-115951000D01*
X84836000Y-113411000D02*
X84836000Y-110871000D01*
X84836000Y-110871000D02*
X82296000Y-110871000D01*
X82296000Y-112395000D02*
X73360000Y-112395000D01*
X73360000Y-112395000D02*
X73360000Y-111887000D01*
X73360000Y-111887000D02*
X82296000Y-111887000D01*
X82296000Y-110871000D02*
X82296000Y-113411000D01*
X82296000Y-113411000D02*
X82296000Y-115951000D01*
X73360000Y-114427000D02*
X82296000Y-114427000D01*
X73360000Y-114935000D02*
X73360000Y-114427000D01*
X82296000Y-114935000D02*
X73360000Y-114935000D01*
X84836000Y-115951000D02*
X84836000Y-113411000D01*
X84836000Y-126111000D02*
X84836000Y-123571000D01*
X82296000Y-125095000D02*
X73360000Y-125095000D01*
X73360000Y-125095000D02*
X73360000Y-124587000D01*
X73360000Y-124587000D02*
X82296000Y-124587000D01*
X82296000Y-123571000D02*
X82296000Y-126111000D01*
X82296000Y-121031000D02*
X82296000Y-123571000D01*
X73360000Y-122047000D02*
X82296000Y-122047000D01*
X73360000Y-122555000D02*
X73360000Y-122047000D01*
X82296000Y-122555000D02*
X73360000Y-122555000D01*
X84836000Y-123571000D02*
X84836000Y-121031000D01*
X84836000Y-126111000D02*
X82296000Y-126111000D01*
X84836000Y-117475000D02*
X85217000Y-117475000D01*
X84836000Y-116967000D02*
X85217000Y-116967000D01*
X84836000Y-114935000D02*
X85217000Y-114935000D01*
X84836000Y-114427000D02*
X85217000Y-114427000D01*
X84836000Y-112395000D02*
X85217000Y-112395000D01*
X84836000Y-111887000D02*
X85217000Y-111887000D01*
X84836000Y-119507000D02*
X85217000Y-119507000D01*
X84836000Y-120015000D02*
X85217000Y-120015000D01*
X84836000Y-122047000D02*
X85217000Y-122047000D01*
X84836000Y-122555000D02*
X85217000Y-122555000D01*
X84836000Y-124587000D02*
X85217000Y-124587000D01*
X84836000Y-125095000D02*
X85217000Y-125095000D01*
D10*
X82296000Y-111887000D02*
X72360000Y-111887000D01*
X82219800Y-125095000D02*
X72364600Y-125095000D01*
X72360000Y-125095000D02*
X72360000Y-111887000D01*
D11*
X87376000Y-84891523D02*
X87376000Y-82351523D01*
X82296000Y-84891523D02*
X84836000Y-84891523D01*
X83312000Y-82351523D02*
X83312000Y-73415523D01*
X83312000Y-73415523D02*
X83820000Y-73415523D01*
X83820000Y-73415523D02*
X83820000Y-82351523D01*
X84836000Y-82351523D02*
X82296000Y-82351523D01*
X87376000Y-82351523D02*
X84836000Y-82351523D01*
X86360000Y-73415523D02*
X86360000Y-82351523D01*
X85852000Y-73415523D02*
X86360000Y-73415523D01*
X85852000Y-82351523D02*
X85852000Y-73415523D01*
X84836000Y-84891523D02*
X87376000Y-84891523D01*
X79756000Y-84891523D02*
X79756000Y-82351523D01*
X79756000Y-84891523D02*
X82296000Y-84891523D01*
X80772000Y-82351523D02*
X80772000Y-73415523D01*
X80772000Y-73415523D02*
X81280000Y-73415523D01*
X81280000Y-73415523D02*
X81280000Y-82351523D01*
X82296000Y-82351523D02*
X79756000Y-82351523D01*
X86360000Y-84891523D02*
X86360000Y-85272523D01*
X85852000Y-84891523D02*
X85852000Y-85272523D01*
X83820000Y-84891523D02*
X83820000Y-85272523D01*
X83312000Y-84891523D02*
X83312000Y-85272523D01*
X81280000Y-84891523D02*
X81280000Y-85272523D01*
X80772000Y-84891523D02*
X80772000Y-85272523D01*
D10*
X86360000Y-82351523D02*
X86360000Y-72415523D01*
X80772000Y-82351523D02*
X80772000Y-72415523D01*
X80772000Y-72415523D02*
X86360000Y-72415523D01*
D11*
X143383000Y-84962952D02*
X143383000Y-82422952D01*
X138303000Y-84962952D02*
X140843000Y-84962952D01*
X139319000Y-82422952D02*
X139319000Y-73486952D01*
X139319000Y-73486952D02*
X139827000Y-73486952D01*
X139827000Y-73486952D02*
X139827000Y-82422952D01*
X140843000Y-82422952D02*
X138303000Y-82422952D01*
X143383000Y-82422952D02*
X140843000Y-82422952D01*
X142367000Y-73486952D02*
X142367000Y-82422952D01*
X141859000Y-73486952D02*
X142367000Y-73486952D01*
X141859000Y-82422952D02*
X141859000Y-73486952D01*
X140843000Y-84962952D02*
X143383000Y-84962952D01*
X135763000Y-84962952D02*
X135763000Y-82422952D01*
X135763000Y-84962952D02*
X138303000Y-84962952D01*
X136779000Y-82422952D02*
X136779000Y-73486952D01*
X136779000Y-73486952D02*
X137287000Y-73486952D01*
X137287000Y-73486952D02*
X137287000Y-82422952D01*
X138303000Y-82422952D02*
X135763000Y-82422952D01*
X142367000Y-84962952D02*
X142367000Y-85343952D01*
X141859000Y-84962952D02*
X141859000Y-85343952D01*
X139827000Y-84962952D02*
X139827000Y-85343952D01*
X139319000Y-84962952D02*
X139319000Y-85343952D01*
X137287000Y-84962952D02*
X137287000Y-85343952D01*
X136779000Y-84962952D02*
X136779000Y-85343952D01*
D10*
X142367000Y-82422952D02*
X142367000Y-72486952D01*
X136779000Y-82422952D02*
X136779000Y-72486952D01*
X136779000Y-72486952D02*
X142367000Y-72486952D01*
D11*
X186436000Y-84962952D02*
X186436000Y-82422952D01*
X181356000Y-84962952D02*
X183896000Y-84962952D01*
X182372000Y-82422952D02*
X182372000Y-73486952D01*
X182372000Y-73486952D02*
X182880000Y-73486952D01*
X182880000Y-73486952D02*
X182880000Y-82422952D01*
X183896000Y-82422952D02*
X181356000Y-82422952D01*
X186436000Y-82422952D02*
X183896000Y-82422952D01*
X185420000Y-73486952D02*
X185420000Y-82422952D01*
X184912000Y-73486952D02*
X185420000Y-73486952D01*
X184912000Y-82422952D02*
X184912000Y-73486952D01*
X183896000Y-84962952D02*
X186436000Y-84962952D01*
X178816000Y-84962952D02*
X178816000Y-82422952D01*
X178816000Y-84962952D02*
X181356000Y-84962952D01*
X179832000Y-82422952D02*
X179832000Y-73486952D01*
X179832000Y-73486952D02*
X180340000Y-73486952D01*
X180340000Y-73486952D02*
X180340000Y-82422952D01*
X181356000Y-82422952D02*
X178816000Y-82422952D01*
X185420000Y-84962952D02*
X185420000Y-85343952D01*
X184912000Y-84962952D02*
X184912000Y-85343952D01*
X182880000Y-84962952D02*
X182880000Y-85343952D01*
X182372000Y-84962952D02*
X182372000Y-85343952D01*
X180340000Y-84962952D02*
X180340000Y-85343952D01*
X179832000Y-84962952D02*
X179832000Y-85343952D01*
D10*
X185420000Y-82422952D02*
X185420000Y-72486952D01*
X179832000Y-82422952D02*
X179832000Y-72486952D01*
X179832000Y-72486952D02*
X185420000Y-72486952D01*
D11*
X226695000Y-136652000D02*
X229235000Y-136652000D01*
X226695000Y-131572000D02*
X226695000Y-134112000D01*
X229235000Y-132588000D02*
X238171000Y-132588000D01*
X238171000Y-132588000D02*
X238171000Y-133096000D01*
X238171000Y-133096000D02*
X229235000Y-133096000D01*
X229235000Y-134112000D02*
X229235000Y-131572000D01*
X229235000Y-136652000D02*
X229235000Y-134112000D01*
X238171000Y-135636000D02*
X229235000Y-135636000D01*
X238171000Y-135128000D02*
X238171000Y-135636000D01*
X229235000Y-135128000D02*
X238171000Y-135128000D01*
X226695000Y-134112000D02*
X226695000Y-136652000D01*
X226695000Y-129032000D02*
X229235000Y-129032000D01*
X226695000Y-129032000D02*
X226695000Y-131572000D01*
X229235000Y-130048000D02*
X238171000Y-130048000D01*
X238171000Y-130048000D02*
X238171000Y-130556000D01*
X238171000Y-130556000D02*
X229235000Y-130556000D01*
X229235000Y-131572000D02*
X229235000Y-129032000D01*
X226695000Y-135636000D02*
X226314000Y-135636000D01*
X226695000Y-135128000D02*
X226314000Y-135128000D01*
X226695000Y-133096000D02*
X226314000Y-133096000D01*
X226695000Y-132588000D02*
X226314000Y-132588000D01*
X226695000Y-130556000D02*
X226314000Y-130556000D01*
X226695000Y-130048000D02*
X226314000Y-130048000D01*
D10*
X229235000Y-135636000D02*
X239171000Y-135636000D01*
X229235000Y-130048000D02*
X239171000Y-130048000D01*
X239171000Y-130048000D02*
X239171000Y-135636000D01*
D11*
X121412000Y-85034381D02*
X121412000Y-82494381D01*
X116332000Y-85034381D02*
X118872000Y-85034381D01*
X117348000Y-82494381D02*
X117348000Y-73558381D01*
X117348000Y-73558381D02*
X117856000Y-73558381D01*
X117856000Y-73558381D02*
X117856000Y-82494381D01*
X118872000Y-82494381D02*
X116332000Y-82494381D01*
X121412000Y-82494381D02*
X118872000Y-82494381D01*
X120396000Y-73558381D02*
X120396000Y-82494381D01*
X119888000Y-73558381D02*
X120396000Y-73558381D01*
X119888000Y-82494381D02*
X119888000Y-73558381D01*
X118872000Y-85034381D02*
X121412000Y-85034381D01*
X113792000Y-85034381D02*
X113792000Y-82494381D01*
X113792000Y-85034381D02*
X116332000Y-85034381D01*
X114808000Y-82494381D02*
X114808000Y-73558381D01*
X114808000Y-73558381D02*
X115316000Y-73558381D01*
X115316000Y-73558381D02*
X115316000Y-82494381D01*
X116332000Y-82494381D02*
X113792000Y-82494381D01*
X120396000Y-85034381D02*
X120396000Y-85415381D01*
X119888000Y-85034381D02*
X119888000Y-85415381D01*
X117856000Y-85034381D02*
X117856000Y-85415381D01*
X117348000Y-85034381D02*
X117348000Y-85415381D01*
X115316000Y-85034381D02*
X115316000Y-85415381D01*
X114808000Y-85034381D02*
X114808000Y-85415381D01*
D10*
X120396000Y-82494381D02*
X120396000Y-72558381D01*
X114808000Y-82494381D02*
X114808000Y-72558381D01*
X114808000Y-72558381D02*
X120396000Y-72558381D01*
D11*
X165481000Y-84962952D02*
X165481000Y-82422952D01*
X160401000Y-84962952D02*
X162941000Y-84962952D01*
X161417000Y-82422952D02*
X161417000Y-73486952D01*
X161417000Y-73486952D02*
X161925000Y-73486952D01*
X161925000Y-73486952D02*
X161925000Y-82422952D01*
X162941000Y-82422952D02*
X160401000Y-82422952D01*
X165481000Y-82422952D02*
X162941000Y-82422952D01*
X164465000Y-73486952D02*
X164465000Y-82422952D01*
X163957000Y-73486952D02*
X164465000Y-73486952D01*
X163957000Y-82422952D02*
X163957000Y-73486952D01*
X162941000Y-84962952D02*
X165481000Y-84962952D01*
X157861000Y-84962952D02*
X157861000Y-82422952D01*
X157861000Y-84962952D02*
X160401000Y-84962952D01*
X158877000Y-82422952D02*
X158877000Y-73486952D01*
X158877000Y-73486952D02*
X159385000Y-73486952D01*
X159385000Y-73486952D02*
X159385000Y-82422952D01*
X160401000Y-82422952D02*
X157861000Y-82422952D01*
X164465000Y-84962952D02*
X164465000Y-85343952D01*
X163957000Y-84962952D02*
X163957000Y-85343952D01*
X161925000Y-84962952D02*
X161925000Y-85343952D01*
X161417000Y-84962952D02*
X161417000Y-85343952D01*
X159385000Y-84962952D02*
X159385000Y-85343952D01*
X158877000Y-84962952D02*
X158877000Y-85343952D01*
D10*
X164465000Y-82422952D02*
X164465000Y-72486952D01*
X158877000Y-82422952D02*
X158877000Y-72486952D01*
X158877000Y-72486952D02*
X164465000Y-72486952D01*
D11*
X226568000Y-124206000D02*
X229108000Y-124206000D01*
X226568000Y-119126000D02*
X226568000Y-121666000D01*
X229108000Y-120142000D02*
X238044000Y-120142000D01*
X238044000Y-120142000D02*
X238044000Y-120650000D01*
X238044000Y-120650000D02*
X229108000Y-120650000D01*
X229108000Y-121666000D02*
X229108000Y-119126000D01*
X229108000Y-124206000D02*
X229108000Y-121666000D01*
X238044000Y-123190000D02*
X229108000Y-123190000D01*
X238044000Y-122682000D02*
X238044000Y-123190000D01*
X229108000Y-122682000D02*
X238044000Y-122682000D01*
X226568000Y-121666000D02*
X226568000Y-124206000D01*
X226568000Y-116586000D02*
X229108000Y-116586000D01*
X226568000Y-116586000D02*
X226568000Y-119126000D01*
X229108000Y-117602000D02*
X238044000Y-117602000D01*
X238044000Y-117602000D02*
X238044000Y-118110000D01*
X238044000Y-118110000D02*
X229108000Y-118110000D01*
X229108000Y-119126000D02*
X229108000Y-116586000D01*
X226568000Y-123190000D02*
X226187000Y-123190000D01*
X226568000Y-122682000D02*
X226187000Y-122682000D01*
X226568000Y-120650000D02*
X226187000Y-120650000D01*
X226568000Y-120142000D02*
X226187000Y-120142000D01*
X226568000Y-118110000D02*
X226187000Y-118110000D01*
X226568000Y-117602000D02*
X226187000Y-117602000D01*
D10*
X229108000Y-123190000D02*
X239044000Y-123190000D01*
X229108000Y-117602000D02*
X239044000Y-117602000D01*
X239044000Y-117602000D02*
X239044000Y-123190000D01*
D11*
X219456000Y-85090000D02*
X219456000Y-82550000D01*
X214376000Y-85090000D02*
X216916000Y-85090000D01*
X215392000Y-82550000D02*
X215392000Y-73614000D01*
X215392000Y-73614000D02*
X215900000Y-73614000D01*
X215900000Y-73614000D02*
X215900000Y-82550000D01*
X216916000Y-82550000D02*
X214376000Y-82550000D01*
X219456000Y-82550000D02*
X216916000Y-82550000D01*
X218440000Y-73614000D02*
X218440000Y-82550000D01*
X217932000Y-73614000D02*
X218440000Y-73614000D01*
X217932000Y-82550000D02*
X217932000Y-73614000D01*
X216916000Y-85090000D02*
X219456000Y-85090000D01*
X211836000Y-85090000D02*
X211836000Y-82550000D01*
X211836000Y-85090000D02*
X214376000Y-85090000D01*
X212852000Y-82550000D02*
X212852000Y-73614000D01*
X212852000Y-73614000D02*
X213360000Y-73614000D01*
X213360000Y-73614000D02*
X213360000Y-82550000D01*
X214376000Y-82550000D02*
X211836000Y-82550000D01*
X218440000Y-85090000D02*
X218440000Y-85471000D01*
X217932000Y-85090000D02*
X217932000Y-85471000D01*
X215900000Y-85090000D02*
X215900000Y-85471000D01*
X215392000Y-85090000D02*
X215392000Y-85471000D01*
X213360000Y-85090000D02*
X213360000Y-85471000D01*
X212852000Y-85090000D02*
X212852000Y-85471000D01*
D10*
X218440000Y-82550000D02*
X218440000Y-72614000D01*
X212852000Y-82550000D02*
X212852000Y-72614000D01*
X212852000Y-72614000D02*
X218440000Y-72614000D01*
D11*
X73533000Y-84963000D02*
X76073000Y-84963000D01*
X76073000Y-84963000D02*
X76073000Y-82423000D01*
X74549000Y-82423000D02*
X74549000Y-73487000D01*
X74549000Y-73487000D02*
X75057000Y-73487000D01*
X75057000Y-73487000D02*
X75057000Y-82423000D01*
X76073000Y-82423000D02*
X73533000Y-82423000D01*
X78613000Y-82423000D02*
X76073000Y-82423000D01*
X77597000Y-73487000D02*
X77597000Y-82423000D01*
X77089000Y-73487000D02*
X77597000Y-73487000D01*
X77089000Y-82423000D02*
X77089000Y-73487000D01*
X78613000Y-84963000D02*
X78613000Y-82423000D01*
X76073000Y-84963000D02*
X78613000Y-84963000D01*
X76073000Y-84963000D02*
X76073000Y-82423000D01*
X73533000Y-84963000D02*
X73533000Y-82423000D01*
X77597000Y-84963000D02*
X77597000Y-85344000D01*
X77089000Y-84963000D02*
X77089000Y-85344000D01*
X75057000Y-84963000D02*
X75057000Y-85344000D01*
X74549000Y-84963000D02*
X74549000Y-85344000D01*
D10*
X77597000Y-84963000D02*
X77597000Y-72487000D01*
X74549000Y-84963000D02*
X74549000Y-72487000D01*
X74549000Y-72487000D02*
X77597000Y-72487000D01*
D11*
X178816000Y-89408000D02*
X183896000Y-89408000D01*
X183896000Y-89408000D02*
X183896000Y-91948000D01*
X183896000Y-91948000D02*
X178816000Y-91948000D01*
X178816000Y-91948000D02*
X178816000Y-89408000D01*
X167386000Y-115984000D02*
X162306000Y-115984000D01*
X162306000Y-115984000D02*
X162306000Y-131224000D01*
X162306000Y-131224000D02*
X164846000Y-131224000D01*
X164846000Y-131224000D02*
X167386000Y-131224000D01*
X167386000Y-131224000D02*
X167386000Y-115984000D01*
X164846000Y-132334000D02*
X164846000Y-131224000D01*
X164846000Y-114874000D02*
X164846000Y-115984000D01*
X135890000Y-89408000D02*
X140970000Y-89408000D01*
X140970000Y-89408000D02*
X140970000Y-91948000D01*
X140970000Y-91948000D02*
X135890000Y-91948000D01*
X135890000Y-91948000D02*
X135890000Y-89408000D01*
X84836000Y-88900000D02*
X89916000Y-88900000D01*
X89916000Y-88900000D02*
X89916000Y-91440000D01*
X89916000Y-91440000D02*
X84836000Y-91440000D01*
X84836000Y-91440000D02*
X84836000Y-88900000D01*
X157988000Y-91948000D02*
X157988000Y-89408000D01*
X163068000Y-91948000D02*
X157988000Y-91948000D01*
X163068000Y-89408000D02*
X163068000Y-91948000D01*
X157988000Y-89408000D02*
X163068000Y-89408000D01*
X211836000Y-132334000D02*
X216916000Y-132334000D01*
X216916000Y-132334000D02*
X216916000Y-134874000D01*
X216916000Y-134874000D02*
X211836000Y-134874000D01*
X211836000Y-134874000D02*
X211836000Y-132334000D01*
X176022000Y-114874000D02*
X176022000Y-115984000D01*
X176022000Y-132334000D02*
X176022000Y-131224000D01*
X178562000Y-131224000D02*
X178562000Y-115984000D01*
X176022000Y-131224000D02*
X178562000Y-131224000D01*
X173482000Y-131224000D02*
X176022000Y-131224000D01*
X173482000Y-115984000D02*
X173482000Y-131224000D01*
X178562000Y-115984000D02*
X173482000Y-115984000D01*
X211836000Y-132334000D02*
X211836000Y-129794000D01*
X216916000Y-132334000D02*
X211836000Y-132334000D01*
X216916000Y-129794000D02*
X216916000Y-132334000D01*
X211836000Y-129794000D02*
X216916000Y-129794000D01*
X170434000Y-114874000D02*
X170434000Y-115984000D01*
X170434000Y-132334000D02*
X170434000Y-131224000D01*
X172974000Y-131224000D02*
X172974000Y-115984000D01*
X170434000Y-131224000D02*
X172974000Y-131224000D01*
X167894000Y-131224000D02*
X170434000Y-131224000D01*
X167894000Y-115984000D02*
X167894000Y-131224000D01*
X172974000Y-115984000D02*
X167894000Y-115984000D01*
X211836000Y-127254000D02*
X216916000Y-127254000D01*
X216916000Y-127254000D02*
X216916000Y-129794000D01*
X216916000Y-129794000D02*
X211836000Y-129794000D01*
X211836000Y-129794000D02*
X211836000Y-127254000D01*
X211836000Y-127254000D02*
X211836000Y-124714000D01*
X216916000Y-127254000D02*
X211836000Y-127254000D01*
X216916000Y-124714000D02*
X216916000Y-127254000D01*
X211836000Y-124714000D02*
X216916000Y-124714000D01*
X161798000Y-115984000D02*
X156718000Y-115984000D01*
X156718000Y-115984000D02*
X156718000Y-131224000D01*
X156718000Y-131224000D02*
X159258000Y-131224000D01*
X159258000Y-131224000D02*
X161798000Y-131224000D01*
X161798000Y-131224000D02*
X161798000Y-115984000D01*
X159258000Y-132334000D02*
X159258000Y-131224000D01*
X159258000Y-114874000D02*
X159258000Y-115984000D01*
X213360000Y-122174000D02*
X213360000Y-117094000D01*
X213360000Y-117094000D02*
X215900000Y-117094000D01*
X215900000Y-117094000D02*
X215900000Y-122174000D01*
X215900000Y-122174000D02*
X213360000Y-122174000D01*
X153670000Y-114874000D02*
X153670000Y-115984000D01*
X153670000Y-132334000D02*
X153670000Y-131224000D01*
X156210000Y-131224000D02*
X156210000Y-115984000D01*
X153670000Y-131224000D02*
X156210000Y-131224000D01*
X151130000Y-131224000D02*
X153670000Y-131224000D01*
X151130000Y-115984000D02*
X151130000Y-131224000D01*
X156210000Y-115984000D02*
X151130000Y-115984000D01*
X211836000Y-91948000D02*
X211836000Y-89408000D01*
X216916000Y-91948000D02*
X211836000Y-91948000D01*
X216916000Y-89408000D02*
X216916000Y-91948000D01*
X211836000Y-89408000D02*
X216916000Y-89408000D01*
X213360000Y-119634000D02*
X210820000Y-119634000D01*
X213360000Y-114554000D02*
X213360000Y-119634000D01*
X210820000Y-114554000D02*
X213360000Y-114554000D01*
X210820000Y-119634000D02*
X210820000Y-114554000D01*
X150622000Y-115984000D02*
X145542000Y-115984000D01*
X145542000Y-115984000D02*
X145542000Y-131224000D01*
X145542000Y-131224000D02*
X148082000Y-131224000D01*
X148082000Y-131224000D02*
X150622000Y-131224000D01*
X150622000Y-131224000D02*
X150622000Y-115984000D01*
X148082000Y-132334000D02*
X148082000Y-131224000D01*
X148082000Y-114874000D02*
X148082000Y-115984000D01*
X75672000Y-105287000D02*
X75672000Y-108287000D01*
X73172000Y-108287000D02*
X73172000Y-105287000D01*
X221508000Y-92806000D02*
X224008000Y-92806000D01*
X221508000Y-99806000D02*
X221508000Y-92806000D01*
X224008000Y-99806000D02*
X221508000Y-99806000D01*
X224008000Y-92806000D02*
X224008000Y-99806000D01*
X178521000Y-137616000D02*
X173523000Y-137616000D01*
X178513000Y-137756000D02*
X173531000Y-137756000D01*
X178497000Y-137896000D02*
X176117000Y-137896000D01*
X175927000Y-137896000D02*
X173547000Y-137896000D01*
X178473000Y-138036000D02*
X176512000Y-138036000D01*
X175532000Y-138036000D02*
X173571000Y-138036000D01*
X178440000Y-138176000D02*
X176679000Y-138176000D01*
X175365000Y-138176000D02*
X173604000Y-138176000D01*
X178399000Y-138316000D02*
X176786000Y-138316000D01*
X175258000Y-138316000D02*
X173645000Y-138316000D01*
X178349000Y-138456000D02*
X176857000Y-138456000D01*
X175187000Y-138456000D02*
X173695000Y-138456000D01*
X178288000Y-138596000D02*
X176901000Y-138596000D01*
X175143000Y-138596000D02*
X173756000Y-138596000D01*
X178218000Y-138736000D02*
X176920000Y-138736000D01*
X175124000Y-138736000D02*
X173826000Y-138736000D01*
X178136000Y-138876000D02*
X176918000Y-138876000D01*
X175126000Y-138876000D02*
X173908000Y-138876000D01*
X178041000Y-139016000D02*
X176893000Y-139016000D01*
X175151000Y-139016000D02*
X174003000Y-139016000D01*
X177930000Y-139156000D02*
X176845000Y-139156000D01*
X175199000Y-139156000D02*
X174114000Y-139156000D01*
X177802000Y-139296000D02*
X176767000Y-139296000D01*
X175277000Y-139296000D02*
X174242000Y-139296000D01*
X177653000Y-139436000D02*
X176650000Y-139436000D01*
X175394000Y-139436000D02*
X174391000Y-139436000D01*
X177474000Y-139576000D02*
X176462000Y-139576000D01*
X175582000Y-139576000D02*
X174570000Y-139576000D01*
X177255000Y-139716000D02*
X174789000Y-139716000D01*
X176966000Y-139856000D02*
X175078000Y-139856000D01*
X176494000Y-139996000D02*
X175550000Y-139996000D01*
X176922000Y-138791000D02*
G75*
G03X176922000Y-138791000I-900000J0D01*
G01*
X178559500Y-137541000D02*
G75*
G03X178559500Y-137541000I-2537500J0D01*
G01*
X172971500Y-137546000D02*
G75*
G03X172971500Y-137546000I-2537500J0D01*
G01*
X171334000Y-138796000D02*
G75*
G03X171334000Y-138796000I-900000J0D01*
G01*
X170906000Y-140001000D02*
X169962000Y-140001000D01*
X171378000Y-139861000D02*
X169490000Y-139861000D01*
X171667000Y-139721000D02*
X169201000Y-139721000D01*
X169994000Y-139581000D02*
X168982000Y-139581000D01*
X171886000Y-139581000D02*
X170874000Y-139581000D01*
X169806000Y-139441000D02*
X168803000Y-139441000D01*
X172065000Y-139441000D02*
X171062000Y-139441000D01*
X169689000Y-139301000D02*
X168654000Y-139301000D01*
X172214000Y-139301000D02*
X171179000Y-139301000D01*
X169611000Y-139161000D02*
X168526000Y-139161000D01*
X172342000Y-139161000D02*
X171257000Y-139161000D01*
X169563000Y-139021000D02*
X168415000Y-139021000D01*
X172453000Y-139021000D02*
X171305000Y-139021000D01*
X169538000Y-138881000D02*
X168320000Y-138881000D01*
X172548000Y-138881000D02*
X171330000Y-138881000D01*
X169536000Y-138741000D02*
X168238000Y-138741000D01*
X172630000Y-138741000D02*
X171332000Y-138741000D01*
X169555000Y-138601000D02*
X168168000Y-138601000D01*
X172700000Y-138601000D02*
X171313000Y-138601000D01*
X169599000Y-138461000D02*
X168107000Y-138461000D01*
X172761000Y-138461000D02*
X171269000Y-138461000D01*
X169670000Y-138321000D02*
X168057000Y-138321000D01*
X172811000Y-138321000D02*
X171198000Y-138321000D01*
X169777000Y-138181000D02*
X168016000Y-138181000D01*
X172852000Y-138181000D02*
X171091000Y-138181000D01*
X169944000Y-138041000D02*
X167983000Y-138041000D01*
X172885000Y-138041000D02*
X170924000Y-138041000D01*
X170339000Y-137901000D02*
X167959000Y-137901000D01*
X172909000Y-137901000D02*
X170529000Y-137901000D01*
X172925000Y-137761000D02*
X167943000Y-137761000D01*
X172933000Y-137621000D02*
X167935000Y-137621000D01*
X167345000Y-137621000D02*
X162347000Y-137621000D01*
X167337000Y-137761000D02*
X162355000Y-137761000D01*
X167321000Y-137901000D02*
X164941000Y-137901000D01*
X164751000Y-137901000D02*
X162371000Y-137901000D01*
X167297000Y-138041000D02*
X165336000Y-138041000D01*
X164356000Y-138041000D02*
X162395000Y-138041000D01*
X167264000Y-138181000D02*
X165503000Y-138181000D01*
X164189000Y-138181000D02*
X162428000Y-138181000D01*
X167223000Y-138321000D02*
X165610000Y-138321000D01*
X164082000Y-138321000D02*
X162469000Y-138321000D01*
X167173000Y-138461000D02*
X165681000Y-138461000D01*
X164011000Y-138461000D02*
X162519000Y-138461000D01*
X167112000Y-138601000D02*
X165725000Y-138601000D01*
X163967000Y-138601000D02*
X162580000Y-138601000D01*
X167042000Y-138741000D02*
X165744000Y-138741000D01*
X163948000Y-138741000D02*
X162650000Y-138741000D01*
X166960000Y-138881000D02*
X165742000Y-138881000D01*
X163950000Y-138881000D02*
X162732000Y-138881000D01*
X166865000Y-139021000D02*
X165717000Y-139021000D01*
X163975000Y-139021000D02*
X162827000Y-139021000D01*
X166754000Y-139161000D02*
X165669000Y-139161000D01*
X164023000Y-139161000D02*
X162938000Y-139161000D01*
X166626000Y-139301000D02*
X165591000Y-139301000D01*
X164101000Y-139301000D02*
X163066000Y-139301000D01*
X166477000Y-139441000D02*
X165474000Y-139441000D01*
X164218000Y-139441000D02*
X163215000Y-139441000D01*
X166298000Y-139581000D02*
X165286000Y-139581000D01*
X164406000Y-139581000D02*
X163394000Y-139581000D01*
X166079000Y-139721000D02*
X163613000Y-139721000D01*
X165790000Y-139861000D02*
X163902000Y-139861000D01*
X165318000Y-140001000D02*
X164374000Y-140001000D01*
X165746000Y-138796000D02*
G75*
G03X165746000Y-138796000I-900000J0D01*
G01*
X167383500Y-137546000D02*
G75*
G03X167383500Y-137546000I-2537500J0D01*
G01*
X161757000Y-137621000D02*
X156759000Y-137621000D01*
X161749000Y-137761000D02*
X156767000Y-137761000D01*
X161733000Y-137901000D02*
X159353000Y-137901000D01*
X159163000Y-137901000D02*
X156783000Y-137901000D01*
X161709000Y-138041000D02*
X159748000Y-138041000D01*
X158768000Y-138041000D02*
X156807000Y-138041000D01*
X161676000Y-138181000D02*
X159915000Y-138181000D01*
X158601000Y-138181000D02*
X156840000Y-138181000D01*
X161635000Y-138321000D02*
X160022000Y-138321000D01*
X158494000Y-138321000D02*
X156881000Y-138321000D01*
X161585000Y-138461000D02*
X160093000Y-138461000D01*
X158423000Y-138461000D02*
X156931000Y-138461000D01*
X161524000Y-138601000D02*
X160137000Y-138601000D01*
X158379000Y-138601000D02*
X156992000Y-138601000D01*
X161454000Y-138741000D02*
X160156000Y-138741000D01*
X158360000Y-138741000D02*
X157062000Y-138741000D01*
X161372000Y-138881000D02*
X160154000Y-138881000D01*
X158362000Y-138881000D02*
X157144000Y-138881000D01*
X161277000Y-139021000D02*
X160129000Y-139021000D01*
X158387000Y-139021000D02*
X157239000Y-139021000D01*
X161166000Y-139161000D02*
X160081000Y-139161000D01*
X158435000Y-139161000D02*
X157350000Y-139161000D01*
X161038000Y-139301000D02*
X160003000Y-139301000D01*
X158513000Y-139301000D02*
X157478000Y-139301000D01*
X160889000Y-139441000D02*
X159886000Y-139441000D01*
X158630000Y-139441000D02*
X157627000Y-139441000D01*
X160710000Y-139581000D02*
X159698000Y-139581000D01*
X158818000Y-139581000D02*
X157806000Y-139581000D01*
X160491000Y-139721000D02*
X158025000Y-139721000D01*
X160202000Y-139861000D02*
X158314000Y-139861000D01*
X159730000Y-140001000D02*
X158786000Y-140001000D01*
X160158000Y-138796000D02*
G75*
G03X160158000Y-138796000I-900000J0D01*
G01*
X161795500Y-137546000D02*
G75*
G03X161795500Y-137546000I-2537500J0D01*
G01*
X156207500Y-137546000D02*
G75*
G03X156207500Y-137546000I-2537500J0D01*
G01*
X154570000Y-138796000D02*
G75*
G03X154570000Y-138796000I-900000J0D01*
G01*
X154142000Y-140001000D02*
X153198000Y-140001000D01*
X154614000Y-139861000D02*
X152726000Y-139861000D01*
X154903000Y-139721000D02*
X152437000Y-139721000D01*
X153230000Y-139581000D02*
X152218000Y-139581000D01*
X155122000Y-139581000D02*
X154110000Y-139581000D01*
X153042000Y-139441000D02*
X152039000Y-139441000D01*
X155301000Y-139441000D02*
X154298000Y-139441000D01*
X152925000Y-139301000D02*
X151890000Y-139301000D01*
X155450000Y-139301000D02*
X154415000Y-139301000D01*
X152847000Y-139161000D02*
X151762000Y-139161000D01*
X155578000Y-139161000D02*
X154493000Y-139161000D01*
X152799000Y-139021000D02*
X151651000Y-139021000D01*
X155689000Y-139021000D02*
X154541000Y-139021000D01*
X152774000Y-138881000D02*
X151556000Y-138881000D01*
X155784000Y-138881000D02*
X154566000Y-138881000D01*
X152772000Y-138741000D02*
X151474000Y-138741000D01*
X155866000Y-138741000D02*
X154568000Y-138741000D01*
X152791000Y-138601000D02*
X151404000Y-138601000D01*
X155936000Y-138601000D02*
X154549000Y-138601000D01*
X152835000Y-138461000D02*
X151343000Y-138461000D01*
X155997000Y-138461000D02*
X154505000Y-138461000D01*
X152906000Y-138321000D02*
X151293000Y-138321000D01*
X156047000Y-138321000D02*
X154434000Y-138321000D01*
X153013000Y-138181000D02*
X151252000Y-138181000D01*
X156088000Y-138181000D02*
X154327000Y-138181000D01*
X153180000Y-138041000D02*
X151219000Y-138041000D01*
X156121000Y-138041000D02*
X154160000Y-138041000D01*
X153575000Y-137901000D02*
X151195000Y-137901000D01*
X156145000Y-137901000D02*
X153765000Y-137901000D01*
X156161000Y-137761000D02*
X151179000Y-137761000D01*
X156169000Y-137621000D02*
X151171000Y-137621000D01*
X150619500Y-137546000D02*
G75*
G03X150619500Y-137546000I-2537500J0D01*
G01*
X148982000Y-138796000D02*
G75*
G03X148982000Y-138796000I-900000J0D01*
G01*
X148554000Y-140001000D02*
X147610000Y-140001000D01*
X149026000Y-139861000D02*
X147138000Y-139861000D01*
X149315000Y-139721000D02*
X146849000Y-139721000D01*
X147642000Y-139581000D02*
X146630000Y-139581000D01*
X149534000Y-139581000D02*
X148522000Y-139581000D01*
X147454000Y-139441000D02*
X146451000Y-139441000D01*
X149713000Y-139441000D02*
X148710000Y-139441000D01*
X147337000Y-139301000D02*
X146302000Y-139301000D01*
X149862000Y-139301000D02*
X148827000Y-139301000D01*
X147259000Y-139161000D02*
X146174000Y-139161000D01*
X149990000Y-139161000D02*
X148905000Y-139161000D01*
X147211000Y-139021000D02*
X146063000Y-139021000D01*
X150101000Y-139021000D02*
X148953000Y-139021000D01*
X147186000Y-138881000D02*
X145968000Y-138881000D01*
X150196000Y-138881000D02*
X148978000Y-138881000D01*
X147184000Y-138741000D02*
X145886000Y-138741000D01*
X150278000Y-138741000D02*
X148980000Y-138741000D01*
X147203000Y-138601000D02*
X145816000Y-138601000D01*
X150348000Y-138601000D02*
X148961000Y-138601000D01*
X147247000Y-138461000D02*
X145755000Y-138461000D01*
X150409000Y-138461000D02*
X148917000Y-138461000D01*
X147318000Y-138321000D02*
X145705000Y-138321000D01*
X150459000Y-138321000D02*
X148846000Y-138321000D01*
X147425000Y-138181000D02*
X145664000Y-138181000D01*
X150500000Y-138181000D02*
X148739000Y-138181000D01*
X147592000Y-138041000D02*
X145631000Y-138041000D01*
X150533000Y-138041000D02*
X148572000Y-138041000D01*
X147987000Y-137901000D02*
X145607000Y-137901000D01*
X150557000Y-137901000D02*
X148177000Y-137901000D01*
X150573000Y-137761000D02*
X145591000Y-137761000D01*
X150581000Y-137621000D02*
X145583000Y-137621000D01*
X85686000Y-90460000D02*
X91686000Y-90460000D01*
X91686000Y-94960000D02*
X85686000Y-94960000D01*
X95976000Y-78367000D02*
X95976000Y-84367000D01*
X91476000Y-84367000D02*
X91476000Y-78367000D01*
X94016000Y-84367000D02*
X94016000Y-78367000D01*
X98516000Y-78367000D02*
X98516000Y-84367000D01*
X101056000Y-78367000D02*
X101056000Y-84367000D01*
X96556000Y-84367000D02*
X96556000Y-78367000D01*
X99096000Y-84367000D02*
X99096000Y-78367000D01*
X103596000Y-78367000D02*
X103596000Y-84367000D01*
X106136000Y-78367000D02*
X106136000Y-84367000D01*
X101636000Y-84367000D02*
X101636000Y-78367000D01*
X80752000Y-105287000D02*
X80752000Y-108287000D01*
X78252000Y-108287000D02*
X78252000Y-105287000D01*
X75712000Y-108287000D02*
X75712000Y-105287000D01*
X78212000Y-105287000D02*
X78212000Y-108287000D01*
X84328000Y-96393000D02*
G75*
G03X84328000Y-96393000I-6858000J0D01*
G01*
D10*
X121117000Y-90678000D02*
G75*
G03X121117000Y-90678000I-975000J0D01*
G01*
X113497000Y-90678000D02*
G75*
G03X113497000Y-90678000I-975000J0D01*
G01*
X224804334Y-111465000D02*
X225204334Y-111465000D01*
X224804334Y-109515000D02*
X225204334Y-109515000D01*
X225204334Y-111465000D02*
G75*
G03X225204334Y-109515000I0J975000D01*
G01*
X224804334Y-109515000D02*
G75*
G03X224804334Y-111465000I0J-975000D01*
G01*
X224804334Y-108925000D02*
X225204334Y-108925000D01*
X224804334Y-106975000D02*
X225204334Y-106975000D01*
X225204334Y-108925000D02*
G75*
G03X225204334Y-106975000I0J975000D01*
G01*
X224804334Y-106975000D02*
G75*
G03X224804334Y-108925000I0J-975000D01*
G01*
X224804334Y-106385000D02*
X225204334Y-106385000D01*
X224804334Y-104435000D02*
X225204334Y-104435000D01*
X225204334Y-106385000D02*
G75*
G03X225204334Y-104435000I0J975000D01*
G01*
X224804334Y-104435000D02*
G75*
G03X224804334Y-106385000I0J-975000D01*
G01*
X232004000Y-88646000D02*
G75*
G03X232004000Y-88646000I-1880000J0D01*
G01*
X232004000Y-93726000D02*
G75*
G03X232004000Y-93726000I-1880000J0D01*
G01*
X232004000Y-83566000D02*
G75*
G03X232004000Y-83566000I-1880000J0D01*
G01*
X232004000Y-98806000D02*
G75*
G03X232004000Y-98806000I-1880000J0D01*
G01*
X207972000Y-119929000D02*
X207572000Y-119929000D01*
X207972000Y-121879000D02*
X207572000Y-121879000D01*
X207572000Y-119929000D02*
G75*
G03X207572000Y-121879000I0J-975000D01*
G01*
X207972000Y-121879000D02*
G75*
G03X207972000Y-119929000I0J975000D01*
G01*
X207972000Y-122469000D02*
X207572000Y-122469000D01*
X207972000Y-124419000D02*
X207572000Y-124419000D01*
X207572000Y-122469000D02*
G75*
G03X207572000Y-124419000I0J-975000D01*
G01*
X207972000Y-124419000D02*
G75*
G03X207972000Y-122469000I0J975000D01*
G01*
X207972000Y-125009000D02*
X207572000Y-125009000D01*
X207972000Y-126959000D02*
X207572000Y-126959000D01*
X207572000Y-125009000D02*
G75*
G03X207572000Y-126959000I0J-975000D01*
G01*
X207972000Y-126959000D02*
G75*
G03X207972000Y-125009000I0J975000D01*
G01*
X207972000Y-127549000D02*
X207572000Y-127549000D01*
X207972000Y-129499000D02*
X207572000Y-129499000D01*
X207572000Y-127549000D02*
G75*
G03X207572000Y-129499000I0J-975000D01*
G01*
X207972000Y-129499000D02*
G75*
G03X207972000Y-127549000I0J975000D01*
G01*
X207972000Y-130089000D02*
X207572000Y-130089000D01*
X207972000Y-132039000D02*
X207572000Y-132039000D01*
X207572000Y-130089000D02*
G75*
G03X207572000Y-132039000I0J-975000D01*
G01*
X207972000Y-132039000D02*
G75*
G03X207972000Y-130089000I0J975000D01*
G01*
X207972000Y-132629000D02*
X207572000Y-132629000D01*
X207972000Y-134579000D02*
X207572000Y-134579000D01*
X207572000Y-132629000D02*
G75*
G03X207572000Y-134579000I0J-975000D01*
G01*
X207972000Y-134579000D02*
G75*
G03X207972000Y-132629000I0J975000D01*
G01*
X86560000Y-111166000D02*
X86160000Y-111166000D01*
X86560000Y-113116000D02*
X86160000Y-113116000D01*
X86160000Y-111166000D02*
G75*
G03X86160000Y-113116000I0J-975000D01*
G01*
X86560000Y-113116000D02*
G75*
G03X86560000Y-111166000I0J975000D01*
G01*
X86560000Y-113706000D02*
X86160000Y-113706000D01*
X86560000Y-115656000D02*
X86160000Y-115656000D01*
X86160000Y-113706000D02*
G75*
G03X86160000Y-115656000I0J-975000D01*
G01*
X86560000Y-115656000D02*
G75*
G03X86560000Y-113706000I0J975000D01*
G01*
X86560000Y-116246000D02*
X86160000Y-116246000D01*
X86560000Y-118196000D02*
X86160000Y-118196000D01*
X86160000Y-116246000D02*
G75*
G03X86160000Y-118196000I0J-975000D01*
G01*
X86560000Y-118196000D02*
G75*
G03X86560000Y-116246000I0J975000D01*
G01*
X86560000Y-118786000D02*
X86160000Y-118786000D01*
X86560000Y-120736000D02*
X86160000Y-120736000D01*
X86160000Y-118786000D02*
G75*
G03X86160000Y-120736000I0J-975000D01*
G01*
X86560000Y-120736000D02*
G75*
G03X86560000Y-118786000I0J975000D01*
G01*
X86560000Y-121326000D02*
X86160000Y-121326000D01*
X86560000Y-123276000D02*
X86160000Y-123276000D01*
X86160000Y-121326000D02*
G75*
G03X86160000Y-123276000I0J-975000D01*
G01*
X86560000Y-123276000D02*
G75*
G03X86560000Y-121326000I0J975000D01*
G01*
X86560000Y-123866000D02*
X86160000Y-123866000D01*
X86560000Y-125816000D02*
X86160000Y-125816000D01*
X86160000Y-123866000D02*
G75*
G03X86160000Y-125816000I0J-975000D01*
G01*
X86560000Y-125816000D02*
G75*
G03X86560000Y-123866000I0J975000D01*
G01*
X87081000Y-86615523D02*
X87081000Y-86215523D01*
X85131000Y-86615523D02*
X85131000Y-86215523D01*
X87081000Y-86215523D02*
G75*
G03X85131000Y-86215523I-975000J0D01*
G01*
X85131000Y-86615523D02*
G75*
G03X87081000Y-86615523I975000J0D01*
G01*
X84541000Y-86615523D02*
X84541000Y-86215523D01*
X82591000Y-86615523D02*
X82591000Y-86215523D01*
X84541000Y-86215523D02*
G75*
G03X82591000Y-86215523I-975000J0D01*
G01*
X82591000Y-86615523D02*
G75*
G03X84541000Y-86615523I975000J0D01*
G01*
X82001000Y-86615523D02*
X82001000Y-86215523D01*
X80051000Y-86615523D02*
X80051000Y-86215523D01*
X82001000Y-86215523D02*
G75*
G03X80051000Y-86215523I-975000J0D01*
G01*
X80051000Y-86615523D02*
G75*
G03X82001000Y-86615523I975000J0D01*
G01*
X143088000Y-86686952D02*
X143088000Y-86286952D01*
X141138000Y-86686952D02*
X141138000Y-86286952D01*
X143088000Y-86286952D02*
G75*
G03X141138000Y-86286952I-975000J0D01*
G01*
X141138000Y-86686952D02*
G75*
G03X143088000Y-86686952I975000J0D01*
G01*
X140548000Y-86686952D02*
X140548000Y-86286952D01*
X138598000Y-86686952D02*
X138598000Y-86286952D01*
X140548000Y-86286952D02*
G75*
G03X138598000Y-86286952I-975000J0D01*
G01*
X138598000Y-86686952D02*
G75*
G03X140548000Y-86686952I975000J0D01*
G01*
X138008000Y-86686952D02*
X138008000Y-86286952D01*
X136058000Y-86686952D02*
X136058000Y-86286952D01*
X138008000Y-86286952D02*
G75*
G03X136058000Y-86286952I-975000J0D01*
G01*
X136058000Y-86686952D02*
G75*
G03X138008000Y-86686952I975000J0D01*
G01*
X186141000Y-86686952D02*
X186141000Y-86286952D01*
X184191000Y-86686952D02*
X184191000Y-86286952D01*
X186141000Y-86286952D02*
G75*
G03X184191000Y-86286952I-975000J0D01*
G01*
X184191000Y-86686952D02*
G75*
G03X186141000Y-86686952I975000J0D01*
G01*
X183601000Y-86686952D02*
X183601000Y-86286952D01*
X181651000Y-86686952D02*
X181651000Y-86286952D01*
X183601000Y-86286952D02*
G75*
G03X181651000Y-86286952I-975000J0D01*
G01*
X181651000Y-86686952D02*
G75*
G03X183601000Y-86686952I975000J0D01*
G01*
X181061000Y-86686952D02*
X181061000Y-86286952D01*
X179111000Y-86686952D02*
X179111000Y-86286952D01*
X181061000Y-86286952D02*
G75*
G03X179111000Y-86286952I-975000J0D01*
G01*
X179111000Y-86686952D02*
G75*
G03X181061000Y-86686952I975000J0D01*
G01*
X224971000Y-136357000D02*
X225371000Y-136357000D01*
X224971000Y-134407000D02*
X225371000Y-134407000D01*
X225371000Y-136357000D02*
G75*
G03X225371000Y-134407000I0J975000D01*
G01*
X224971000Y-134407000D02*
G75*
G03X224971000Y-136357000I0J-975000D01*
G01*
X224971000Y-133817000D02*
X225371000Y-133817000D01*
X224971000Y-131867000D02*
X225371000Y-131867000D01*
X225371000Y-133817000D02*
G75*
G03X225371000Y-131867000I0J975000D01*
G01*
X224971000Y-131867000D02*
G75*
G03X224971000Y-133817000I0J-975000D01*
G01*
X224971000Y-131277000D02*
X225371000Y-131277000D01*
X224971000Y-129327000D02*
X225371000Y-129327000D01*
X225371000Y-131277000D02*
G75*
G03X225371000Y-129327000I0J975000D01*
G01*
X224971000Y-129327000D02*
G75*
G03X224971000Y-131277000I0J-975000D01*
G01*
X121117000Y-86758381D02*
X121117000Y-86358381D01*
X119167000Y-86758381D02*
X119167000Y-86358381D01*
X121117000Y-86358381D02*
G75*
G03X119167000Y-86358381I-975000J0D01*
G01*
X119167000Y-86758381D02*
G75*
G03X121117000Y-86758381I975000J0D01*
G01*
X118577000Y-86758381D02*
X118577000Y-86358381D01*
X116627000Y-86758381D02*
X116627000Y-86358381D01*
X118577000Y-86358381D02*
G75*
G03X116627000Y-86358381I-975000J0D01*
G01*
X116627000Y-86758381D02*
G75*
G03X118577000Y-86758381I975000J0D01*
G01*
X116037000Y-86758381D02*
X116037000Y-86358381D01*
X114087000Y-86758381D02*
X114087000Y-86358381D01*
X116037000Y-86358381D02*
G75*
G03X114087000Y-86358381I-975000J0D01*
G01*
X114087000Y-86758381D02*
G75*
G03X116037000Y-86758381I975000J0D01*
G01*
X165186000Y-86686952D02*
X165186000Y-86286952D01*
X163236000Y-86686952D02*
X163236000Y-86286952D01*
X165186000Y-86286952D02*
G75*
G03X163236000Y-86286952I-975000J0D01*
G01*
X163236000Y-86686952D02*
G75*
G03X165186000Y-86686952I975000J0D01*
G01*
X162646000Y-86686952D02*
X162646000Y-86286952D01*
X160696000Y-86686952D02*
X160696000Y-86286952D01*
X162646000Y-86286952D02*
G75*
G03X160696000Y-86286952I-975000J0D01*
G01*
X160696000Y-86686952D02*
G75*
G03X162646000Y-86686952I975000J0D01*
G01*
X160106000Y-86686952D02*
X160106000Y-86286952D01*
X158156000Y-86686952D02*
X158156000Y-86286952D01*
X160106000Y-86286952D02*
G75*
G03X158156000Y-86286952I-975000J0D01*
G01*
X158156000Y-86686952D02*
G75*
G03X160106000Y-86686952I975000J0D01*
G01*
X224844000Y-123911000D02*
X225244000Y-123911000D01*
X224844000Y-121961000D02*
X225244000Y-121961000D01*
X225244000Y-123911000D02*
G75*
G03X225244000Y-121961000I0J975000D01*
G01*
X224844000Y-121961000D02*
G75*
G03X224844000Y-123911000I0J-975000D01*
G01*
X224844000Y-121371000D02*
X225244000Y-121371000D01*
X224844000Y-119421000D02*
X225244000Y-119421000D01*
X225244000Y-121371000D02*
G75*
G03X225244000Y-119421000I0J975000D01*
G01*
X224844000Y-119421000D02*
G75*
G03X224844000Y-121371000I0J-975000D01*
G01*
X224844000Y-118831000D02*
X225244000Y-118831000D01*
X224844000Y-116881000D02*
X225244000Y-116881000D01*
X225244000Y-118831000D02*
G75*
G03X225244000Y-116881000I0J975000D01*
G01*
X224844000Y-116881000D02*
G75*
G03X224844000Y-118831000I0J-975000D01*
G01*
X219161000Y-86814000D02*
X219161000Y-86414000D01*
X217211000Y-86814000D02*
X217211000Y-86414000D01*
X219161000Y-86414000D02*
G75*
G03X217211000Y-86414000I-975000J0D01*
G01*
X217211000Y-86814000D02*
G75*
G03X219161000Y-86814000I975000J0D01*
G01*
X216621000Y-86814000D02*
X216621000Y-86414000D01*
X214671000Y-86814000D02*
X214671000Y-86414000D01*
X216621000Y-86414000D02*
G75*
G03X214671000Y-86414000I-975000J0D01*
G01*
X214671000Y-86814000D02*
G75*
G03X216621000Y-86814000I975000J0D01*
G01*
X214081000Y-86814000D02*
X214081000Y-86414000D01*
X212131000Y-86814000D02*
X212131000Y-86414000D01*
X214081000Y-86414000D02*
G75*
G03X212131000Y-86414000I-975000J0D01*
G01*
X212131000Y-86814000D02*
G75*
G03X214081000Y-86814000I975000J0D01*
G01*
X78318000Y-86687000D02*
X78318000Y-86287000D01*
X76368000Y-86687000D02*
X76368000Y-86287000D01*
X78318000Y-86287000D02*
G75*
G03X76368000Y-86287000I-975000J0D01*
G01*
X76368000Y-86687000D02*
G75*
G03X78318000Y-86687000I975000J0D01*
G01*
X75794000Y-86671000D02*
X75794000Y-86303000D01*
X73812000Y-86671000D02*
X73812000Y-86303000D01*
X75794000Y-86303000D02*
G75*
G03X73812000Y-86303000I-991000J0D01*
G01*
X73812000Y-86671000D02*
G75*
G03X75794000Y-86671000I991000J0D01*
G01*
X178521000Y-90678000D02*
G75*
G03X178521000Y-90678000I-975000J0D01*
G01*
X186141000Y-90678000D02*
G75*
G03X186141000Y-90678000I-975000J0D01*
G01*
X75075000Y-140000000D02*
G75*
G03X75075000Y-140000000I-1075000J0D01*
G01*
X109914000Y-86614000D02*
G75*
G03X109914000Y-86614000I-1075000J0D01*
G01*
X235075000Y-139792000D02*
G75*
G03X235075000Y-139792000I-1075000J0D01*
G01*
X235075000Y-75000000D02*
G75*
G03X235075000Y-75000000I-1075000J0D01*
G01*
X165821000Y-113604000D02*
G75*
G03X165821000Y-113604000I-975000J0D01*
G01*
X165821000Y-133604000D02*
G75*
G03X165821000Y-133604000I-975000J0D01*
G01*
X135595000Y-90678000D02*
G75*
G03X135595000Y-90678000I-975000J0D01*
G01*
X143215000Y-90678000D02*
G75*
G03X143215000Y-90678000I-975000J0D01*
G01*
X84541000Y-90170000D02*
G75*
G03X84541000Y-90170000I-975000J0D01*
G01*
X92161000Y-90170000D02*
G75*
G03X92161000Y-90170000I-975000J0D01*
G01*
X165313000Y-90678000D02*
G75*
G03X165313000Y-90678000I-975000J0D01*
G01*
X157693000Y-90678000D02*
G75*
G03X157693000Y-90678000I-975000J0D01*
G01*
X211541000Y-133604000D02*
G75*
G03X211541000Y-133604000I-975000J0D01*
G01*
X219161000Y-133604000D02*
G75*
G03X219161000Y-133604000I-975000J0D01*
G01*
X176997000Y-133604000D02*
G75*
G03X176997000Y-133604000I-975000J0D01*
G01*
X176997000Y-113604000D02*
G75*
G03X176997000Y-113604000I-975000J0D01*
G01*
X219161000Y-131064000D02*
G75*
G03X219161000Y-131064000I-975000J0D01*
G01*
X211541000Y-131064000D02*
G75*
G03X211541000Y-131064000I-975000J0D01*
G01*
X171409000Y-133604000D02*
G75*
G03X171409000Y-133604000I-975000J0D01*
G01*
X171409000Y-113604000D02*
G75*
G03X171409000Y-113604000I-975000J0D01*
G01*
X211541000Y-128524000D02*
G75*
G03X211541000Y-128524000I-975000J0D01*
G01*
X219161000Y-128524000D02*
G75*
G03X219161000Y-128524000I-975000J0D01*
G01*
X219161000Y-125984000D02*
G75*
G03X219161000Y-125984000I-975000J0D01*
G01*
X211541000Y-125984000D02*
G75*
G03X211541000Y-125984000I-975000J0D01*
G01*
X160233000Y-113604000D02*
G75*
G03X160233000Y-113604000I-975000J0D01*
G01*
X160233000Y-133604000D02*
G75*
G03X160233000Y-133604000I-975000J0D01*
G01*
X215605000Y-123444000D02*
G75*
G03X215605000Y-123444000I-975000J0D01*
G01*
X215605000Y-115824000D02*
G75*
G03X215605000Y-115824000I-975000J0D01*
G01*
X154645000Y-133604000D02*
G75*
G03X154645000Y-133604000I-975000J0D01*
G01*
X154645000Y-113604000D02*
G75*
G03X154645000Y-113604000I-975000J0D01*
G01*
X219161000Y-90678000D02*
G75*
G03X219161000Y-90678000I-975000J0D01*
G01*
X211541000Y-90678000D02*
G75*
G03X211541000Y-90678000I-975000J0D01*
G01*
X213065000Y-113284000D02*
G75*
G03X213065000Y-113284000I-975000J0D01*
G01*
X213065000Y-120904000D02*
G75*
G03X213065000Y-120904000I-975000J0D01*
G01*
X149057000Y-113604000D02*
G75*
G03X149057000Y-113604000I-975000J0D01*
G01*
X149057000Y-133604000D02*
G75*
G03X149057000Y-133604000I-975000J0D01*
G01*
X75397000Y-105537000D02*
G75*
G03X75397000Y-105537000I-975000J0D01*
G01*
X75397000Y-108037000D02*
G75*
G03X75397000Y-108037000I-975000J0D01*
G01*
X223733000Y-98806000D02*
G75*
G03X223733000Y-98806000I-975000J0D01*
G01*
X223733000Y-93806000D02*
G75*
G03X223733000Y-93806000I-975000J0D01*
G01*
X176647000Y-139441000D02*
G75*
G03X176647000Y-139441000I-625000J0D01*
G01*
X171059000Y-139446000D02*
G75*
G03X171059000Y-139446000I-625000J0D01*
G01*
X165471000Y-139446000D02*
G75*
G03X165471000Y-139446000I-625000J0D01*
G01*
X159883000Y-139446000D02*
G75*
G03X159883000Y-139446000I-625000J0D01*
G01*
X154295000Y-139446000D02*
G75*
G03X154295000Y-139446000I-625000J0D01*
G01*
X148707000Y-139446000D02*
G75*
G03X148707000Y-139446000I-625000J0D01*
G01*
D11*
X116414253Y-91130380D02*
X116080920Y-90654190D01*
X115842824Y-91130380D02*
X115842824Y-90130380D01*
X116223777Y-90130380D01*
X116319015Y-90178000D01*
X116366634Y-90225619D01*
X116414253Y-90320857D01*
X116414253Y-90463714D01*
X116366634Y-90558952D01*
X116319015Y-90606571D01*
X116223777Y-90654190D01*
X115842824Y-90654190D01*
X117271396Y-90130380D02*
X117080920Y-90130380D01*
X116985681Y-90178000D01*
X116938062Y-90225619D01*
X116842824Y-90368476D01*
X116795205Y-90558952D01*
X116795205Y-90939904D01*
X116842824Y-91035142D01*
X116890443Y-91082761D01*
X116985681Y-91130380D01*
X117176158Y-91130380D01*
X117271396Y-91082761D01*
X117319015Y-91035142D01*
X117366634Y-90939904D01*
X117366634Y-90701809D01*
X117319015Y-90606571D01*
X117271396Y-90558952D01*
X117176158Y-90511333D01*
X116985681Y-90511333D01*
X116890443Y-90558952D01*
X116842824Y-90606571D01*
X116795205Y-90701809D01*
X228544380Y-109291285D02*
X227544380Y-109291285D01*
X227544380Y-108910333D01*
X227592000Y-108815095D01*
X227639619Y-108767476D01*
X227734857Y-108719857D01*
X227877714Y-108719857D01*
X227972952Y-108767476D01*
X228020571Y-108815095D01*
X228068190Y-108910333D01*
X228068190Y-109291285D01*
X228544380Y-107767476D02*
X228544380Y-108338904D01*
X228544380Y-108053190D02*
X227544380Y-108053190D01*
X227687238Y-108148428D01*
X227782476Y-108243666D01*
X227830095Y-108338904D01*
X227544380Y-107148428D02*
X227544380Y-107053190D01*
X227592000Y-106957952D01*
X227639619Y-106910333D01*
X227734857Y-106862714D01*
X227925333Y-106815095D01*
X228163428Y-106815095D01*
X228353904Y-106862714D01*
X228449142Y-106910333D01*
X228496761Y-106957952D01*
X228544380Y-107053190D01*
X228544380Y-107148428D01*
X228496761Y-107243666D01*
X228449142Y-107291285D01*
X228353904Y-107338904D01*
X228163428Y-107386523D01*
X227925333Y-107386523D01*
X227734857Y-107338904D01*
X227639619Y-107291285D01*
X227592000Y-107243666D01*
X227544380Y-107148428D01*
X227274380Y-92400285D02*
X226274380Y-92400285D01*
X226274380Y-92019333D01*
X226322000Y-91924095D01*
X226369619Y-91876476D01*
X226464857Y-91828857D01*
X226607714Y-91828857D01*
X226702952Y-91876476D01*
X226750571Y-91924095D01*
X226798190Y-92019333D01*
X226798190Y-92400285D01*
X227274380Y-90876476D02*
X227274380Y-91447904D01*
X227274380Y-91162190D02*
X226274380Y-91162190D01*
X226417238Y-91257428D01*
X226512476Y-91352666D01*
X226560095Y-91447904D01*
X226274380Y-90543142D02*
X226274380Y-89924095D01*
X226655333Y-90257428D01*
X226655333Y-90114571D01*
X226702952Y-90019333D01*
X226750571Y-89971714D01*
X226845809Y-89924095D01*
X227083904Y-89924095D01*
X227179142Y-89971714D01*
X227226761Y-90019333D01*
X227274380Y-90114571D01*
X227274380Y-90400285D01*
X227226761Y-90495523D01*
X227179142Y-90543142D01*
X205354180Y-127992095D02*
X204354180Y-127992095D01*
X204354180Y-127611142D01*
X204401800Y-127515904D01*
X204449419Y-127468285D01*
X204544657Y-127420666D01*
X204687514Y-127420666D01*
X204782752Y-127468285D01*
X204830371Y-127515904D01*
X204877990Y-127611142D01*
X204877990Y-127992095D01*
X204354180Y-126515904D02*
X204354180Y-126992095D01*
X204830371Y-127039714D01*
X204782752Y-126992095D01*
X204735133Y-126896857D01*
X204735133Y-126658761D01*
X204782752Y-126563523D01*
X204830371Y-126515904D01*
X204925609Y-126468285D01*
X205163704Y-126468285D01*
X205258942Y-126515904D01*
X205306561Y-126563523D01*
X205354180Y-126658761D01*
X205354180Y-126896857D01*
X205306561Y-126992095D01*
X205258942Y-127039714D01*
X83942180Y-119229095D02*
X82942180Y-119229095D01*
X82942180Y-118848142D01*
X82989800Y-118752904D01*
X83037419Y-118705285D01*
X83132657Y-118657666D01*
X83275514Y-118657666D01*
X83370752Y-118705285D01*
X83418371Y-118752904D01*
X83465990Y-118848142D01*
X83465990Y-119229095D01*
X82942180Y-117800523D02*
X82942180Y-117991000D01*
X82989800Y-118086238D01*
X83037419Y-118133857D01*
X83180276Y-118229095D01*
X83370752Y-118276714D01*
X83751704Y-118276714D01*
X83846942Y-118229095D01*
X83894561Y-118181476D01*
X83942180Y-118086238D01*
X83942180Y-117895761D01*
X83894561Y-117800523D01*
X83846942Y-117752904D01*
X83751704Y-117705285D01*
X83513609Y-117705285D01*
X83418371Y-117752904D01*
X83370752Y-117800523D01*
X83323133Y-117895761D01*
X83323133Y-118086238D01*
X83370752Y-118181476D01*
X83418371Y-118229095D01*
X83513609Y-118276714D01*
X82700904Y-84018380D02*
X82700904Y-83018380D01*
X83081857Y-83018380D01*
X83177095Y-83066000D01*
X83224714Y-83113619D01*
X83272333Y-83208857D01*
X83272333Y-83351714D01*
X83224714Y-83446952D01*
X83177095Y-83494571D01*
X83081857Y-83542190D01*
X82700904Y-83542190D01*
X84224714Y-84018380D02*
X83653285Y-84018380D01*
X83939000Y-84018380D02*
X83939000Y-83018380D01*
X83843761Y-83161238D01*
X83748523Y-83256476D01*
X83653285Y-83304095D01*
X138707904Y-84145380D02*
X138707904Y-83145380D01*
X139088857Y-83145380D01*
X139184095Y-83193000D01*
X139231714Y-83240619D01*
X139279333Y-83335857D01*
X139279333Y-83478714D01*
X139231714Y-83573952D01*
X139184095Y-83621571D01*
X139088857Y-83669190D01*
X138707904Y-83669190D01*
X140136476Y-83478714D02*
X140136476Y-84145380D01*
X139898380Y-83097761D02*
X139660285Y-83812047D01*
X140279333Y-83812047D01*
X182014904Y-84145380D02*
X182014904Y-83145380D01*
X182395857Y-83145380D01*
X182491095Y-83193000D01*
X182538714Y-83240619D01*
X182586333Y-83335857D01*
X182586333Y-83478714D01*
X182538714Y-83573952D01*
X182491095Y-83621571D01*
X182395857Y-83669190D01*
X182014904Y-83669190D01*
X183062523Y-84145380D02*
X183253000Y-84145380D01*
X183348238Y-84097761D01*
X183395857Y-84050142D01*
X183491095Y-83907285D01*
X183538714Y-83716809D01*
X183538714Y-83335857D01*
X183491095Y-83240619D01*
X183443476Y-83193000D01*
X183348238Y-83145380D01*
X183157761Y-83145380D01*
X183062523Y-83193000D01*
X183014904Y-83240619D01*
X182967285Y-83335857D01*
X182967285Y-83573952D01*
X183014904Y-83669190D01*
X183062523Y-83716809D01*
X183157761Y-83764428D01*
X183348238Y-83764428D01*
X183443476Y-83716809D01*
X183491095Y-83669190D01*
X183538714Y-83573952D01*
X228544380Y-133580095D02*
X227544380Y-133580095D01*
X227544380Y-133199142D01*
X227592000Y-133103904D01*
X227639619Y-133056285D01*
X227734857Y-133008666D01*
X227877714Y-133008666D01*
X227972952Y-133056285D01*
X228020571Y-133103904D01*
X228068190Y-133199142D01*
X228068190Y-133580095D01*
X227639619Y-132627714D02*
X227592000Y-132580095D01*
X227544380Y-132484857D01*
X227544380Y-132246761D01*
X227592000Y-132151523D01*
X227639619Y-132103904D01*
X227734857Y-132056285D01*
X227830095Y-132056285D01*
X227972952Y-132103904D01*
X228544380Y-132675333D01*
X228544380Y-132056285D01*
X116863904Y-84272380D02*
X116863904Y-83272380D01*
X117244857Y-83272380D01*
X117340095Y-83320000D01*
X117387714Y-83367619D01*
X117435333Y-83462857D01*
X117435333Y-83605714D01*
X117387714Y-83700952D01*
X117340095Y-83748571D01*
X117244857Y-83796190D01*
X116863904Y-83796190D01*
X117768666Y-83272380D02*
X118387714Y-83272380D01*
X118054380Y-83653333D01*
X118197238Y-83653333D01*
X118292476Y-83700952D01*
X118340095Y-83748571D01*
X118387714Y-83843809D01*
X118387714Y-84081904D01*
X118340095Y-84177142D01*
X118292476Y-84224761D01*
X118197238Y-84272380D01*
X117911523Y-84272380D01*
X117816285Y-84224761D01*
X117768666Y-84177142D01*
X161186904Y-84272380D02*
X161186904Y-83272380D01*
X161567857Y-83272380D01*
X161663095Y-83320000D01*
X161710714Y-83367619D01*
X161758333Y-83462857D01*
X161758333Y-83605714D01*
X161710714Y-83700952D01*
X161663095Y-83748571D01*
X161567857Y-83796190D01*
X161186904Y-83796190D01*
X162329761Y-83700952D02*
X162234523Y-83653333D01*
X162186904Y-83605714D01*
X162139285Y-83510476D01*
X162139285Y-83462857D01*
X162186904Y-83367619D01*
X162234523Y-83320000D01*
X162329761Y-83272380D01*
X162520238Y-83272380D01*
X162615476Y-83320000D01*
X162663095Y-83367619D01*
X162710714Y-83462857D01*
X162710714Y-83510476D01*
X162663095Y-83605714D01*
X162615476Y-83653333D01*
X162520238Y-83700952D01*
X162329761Y-83700952D01*
X162234523Y-83748571D01*
X162186904Y-83796190D01*
X162139285Y-83891428D01*
X162139285Y-84081904D01*
X162186904Y-84177142D01*
X162234523Y-84224761D01*
X162329761Y-84272380D01*
X162520238Y-84272380D01*
X162615476Y-84224761D01*
X162663095Y-84177142D01*
X162710714Y-84081904D01*
X162710714Y-83891428D01*
X162663095Y-83796190D01*
X162615476Y-83748571D01*
X162520238Y-83700952D01*
X228417380Y-120880095D02*
X227417380Y-120880095D01*
X227417380Y-120499142D01*
X227465000Y-120403904D01*
X227512619Y-120356285D01*
X227607857Y-120308666D01*
X227750714Y-120308666D01*
X227845952Y-120356285D01*
X227893571Y-120403904D01*
X227941190Y-120499142D01*
X227941190Y-120880095D01*
X227417380Y-119975333D02*
X227417380Y-119308666D01*
X228417380Y-119737238D01*
X214050714Y-84272380D02*
X214050714Y-83272380D01*
X214431666Y-83272380D01*
X214526904Y-83320000D01*
X214574523Y-83367619D01*
X214622142Y-83462857D01*
X214622142Y-83605714D01*
X214574523Y-83700952D01*
X214526904Y-83748571D01*
X214431666Y-83796190D01*
X214050714Y-83796190D01*
X215574523Y-84272380D02*
X215003095Y-84272380D01*
X215288809Y-84272380D02*
X215288809Y-83272380D01*
X215193571Y-83415238D01*
X215098333Y-83510476D01*
X215003095Y-83558095D01*
X216526904Y-84272380D02*
X215955476Y-84272380D01*
X216241190Y-84272380D02*
X216241190Y-83272380D01*
X216145952Y-83415238D01*
X216050714Y-83510476D01*
X215955476Y-83558095D01*
X74858714Y-84145380D02*
X74858714Y-83145380D01*
X75239666Y-83145380D01*
X75334904Y-83193000D01*
X75382523Y-83240619D01*
X75430142Y-83335857D01*
X75430142Y-83478714D01*
X75382523Y-83573952D01*
X75334904Y-83621571D01*
X75239666Y-83669190D01*
X74858714Y-83669190D01*
X76382523Y-84145380D02*
X75811095Y-84145380D01*
X76096809Y-84145380D02*
X76096809Y-83145380D01*
X76001571Y-83288238D01*
X75906333Y-83383476D01*
X75811095Y-83431095D01*
X76763476Y-83240619D02*
X76811095Y-83193000D01*
X76906333Y-83145380D01*
X77144428Y-83145380D01*
X77239666Y-83193000D01*
X77287285Y-83240619D01*
X77334904Y-83335857D01*
X77334904Y-83431095D01*
X77287285Y-83573952D01*
X76715857Y-84145380D01*
X77334904Y-84145380D01*
X180967142Y-91130380D02*
X180633809Y-90654190D01*
X180395714Y-91130380D02*
X180395714Y-90130380D01*
X180776666Y-90130380D01*
X180871904Y-90178000D01*
X180919523Y-90225619D01*
X180967142Y-90320857D01*
X180967142Y-90463714D01*
X180919523Y-90558952D01*
X180871904Y-90606571D01*
X180776666Y-90654190D01*
X180395714Y-90654190D01*
X181919523Y-91130380D02*
X181348095Y-91130380D01*
X181633809Y-91130380D02*
X181633809Y-90130380D01*
X181538571Y-90273238D01*
X181443333Y-90368476D01*
X181348095Y-90416095D01*
X182252857Y-90130380D02*
X182871904Y-90130380D01*
X182538571Y-90511333D01*
X182681428Y-90511333D01*
X182776666Y-90558952D01*
X182824285Y-90606571D01*
X182871904Y-90701809D01*
X182871904Y-90939904D01*
X182824285Y-91035142D01*
X182776666Y-91082761D01*
X182681428Y-91130380D01*
X182395714Y-91130380D01*
X182300476Y-91082761D01*
X182252857Y-91035142D01*
X164679333Y-117800380D02*
X164346000Y-117324190D01*
X164107904Y-117800380D02*
X164107904Y-116800380D01*
X164488857Y-116800380D01*
X164584095Y-116848000D01*
X164631714Y-116895619D01*
X164679333Y-116990857D01*
X164679333Y-117133714D01*
X164631714Y-117228952D01*
X164584095Y-117276571D01*
X164488857Y-117324190D01*
X164107904Y-117324190D01*
X165250761Y-117228952D02*
X165155523Y-117181333D01*
X165107904Y-117133714D01*
X165060285Y-117038476D01*
X165060285Y-116990857D01*
X165107904Y-116895619D01*
X165155523Y-116848000D01*
X165250761Y-116800380D01*
X165441238Y-116800380D01*
X165536476Y-116848000D01*
X165584095Y-116895619D01*
X165631714Y-116990857D01*
X165631714Y-117038476D01*
X165584095Y-117133714D01*
X165536476Y-117181333D01*
X165441238Y-117228952D01*
X165250761Y-117228952D01*
X165155523Y-117276571D01*
X165107904Y-117324190D01*
X165060285Y-117419428D01*
X165060285Y-117609904D01*
X165107904Y-117705142D01*
X165155523Y-117752761D01*
X165250761Y-117800380D01*
X165441238Y-117800380D01*
X165536476Y-117752761D01*
X165584095Y-117705142D01*
X165631714Y-117609904D01*
X165631714Y-117419428D01*
X165584095Y-117324190D01*
X165536476Y-117276571D01*
X165441238Y-117228952D01*
X138771333Y-91130380D02*
X138438000Y-90654190D01*
X138199904Y-91130380D02*
X138199904Y-90130380D01*
X138580857Y-90130380D01*
X138676095Y-90178000D01*
X138723714Y-90225619D01*
X138771333Y-90320857D01*
X138771333Y-90463714D01*
X138723714Y-90558952D01*
X138676095Y-90606571D01*
X138580857Y-90654190D01*
X138199904Y-90654190D01*
X139247523Y-91130380D02*
X139438000Y-91130380D01*
X139533238Y-91082761D01*
X139580857Y-91035142D01*
X139676095Y-90892285D01*
X139723714Y-90701809D01*
X139723714Y-90320857D01*
X139676095Y-90225619D01*
X139628476Y-90178000D01*
X139533238Y-90130380D01*
X139342761Y-90130380D01*
X139247523Y-90178000D01*
X139199904Y-90225619D01*
X139152285Y-90320857D01*
X139152285Y-90558952D01*
X139199904Y-90654190D01*
X139247523Y-90701809D01*
X139342761Y-90749428D01*
X139533238Y-90749428D01*
X139628476Y-90701809D01*
X139676095Y-90654190D01*
X139723714Y-90558952D01*
X91019333Y-88590380D02*
X90686000Y-88114190D01*
X90447904Y-88590380D02*
X90447904Y-87590380D01*
X90828857Y-87590380D01*
X90924095Y-87638000D01*
X90971714Y-87685619D01*
X91019333Y-87780857D01*
X91019333Y-87923714D01*
X90971714Y-88018952D01*
X90924095Y-88066571D01*
X90828857Y-88114190D01*
X90447904Y-88114190D01*
X91352666Y-87590380D02*
X91971714Y-87590380D01*
X91638380Y-87971333D01*
X91781238Y-87971333D01*
X91876476Y-88018952D01*
X91924095Y-88066571D01*
X91971714Y-88161809D01*
X91971714Y-88399904D01*
X91924095Y-88495142D01*
X91876476Y-88542761D01*
X91781238Y-88590380D01*
X91495523Y-88590380D01*
X91400285Y-88542761D01*
X91352666Y-88495142D01*
X160134062Y-91130380D02*
X159800729Y-90654190D01*
X159562634Y-91130380D02*
X159562634Y-90130380D01*
X159943586Y-90130380D01*
X160038824Y-90178000D01*
X160086443Y-90225619D01*
X160134062Y-90320857D01*
X160134062Y-90463714D01*
X160086443Y-90558952D01*
X160038824Y-90606571D01*
X159943586Y-90654190D01*
X159562634Y-90654190D01*
X161086443Y-91130380D02*
X160515015Y-91130380D01*
X160800729Y-91130380D02*
X160800729Y-90130380D01*
X160705491Y-90273238D01*
X160610253Y-90368476D01*
X160515015Y-90416095D01*
X162038824Y-91130380D02*
X161467396Y-91130380D01*
X161753110Y-91130380D02*
X161753110Y-90130380D01*
X161657872Y-90273238D01*
X161562634Y-90368476D01*
X161467396Y-90416095D01*
X175855333Y-117866380D02*
X175522000Y-117390190D01*
X175283904Y-117866380D02*
X175283904Y-116866380D01*
X175664857Y-116866380D01*
X175760095Y-116914000D01*
X175807714Y-116961619D01*
X175855333Y-117056857D01*
X175855333Y-117199714D01*
X175807714Y-117294952D01*
X175760095Y-117342571D01*
X175664857Y-117390190D01*
X175283904Y-117390190D01*
X176236285Y-116961619D02*
X176283904Y-116914000D01*
X176379142Y-116866380D01*
X176617238Y-116866380D01*
X176712476Y-116914000D01*
X176760095Y-116961619D01*
X176807714Y-117056857D01*
X176807714Y-117152095D01*
X176760095Y-117294952D01*
X176188666Y-117866380D01*
X176807714Y-117866380D01*
X170267333Y-117800380D02*
X169934000Y-117324190D01*
X169695904Y-117800380D02*
X169695904Y-116800380D01*
X170076857Y-116800380D01*
X170172095Y-116848000D01*
X170219714Y-116895619D01*
X170267333Y-116990857D01*
X170267333Y-117133714D01*
X170219714Y-117228952D01*
X170172095Y-117276571D01*
X170076857Y-117324190D01*
X169695904Y-117324190D01*
X171172095Y-116800380D02*
X170695904Y-116800380D01*
X170648285Y-117276571D01*
X170695904Y-117228952D01*
X170791142Y-117181333D01*
X171029238Y-117181333D01*
X171124476Y-117228952D01*
X171172095Y-117276571D01*
X171219714Y-117371809D01*
X171219714Y-117609904D01*
X171172095Y-117705142D01*
X171124476Y-117752761D01*
X171029238Y-117800380D01*
X170791142Y-117800380D01*
X170695904Y-117752761D01*
X170648285Y-117705142D01*
X158615142Y-117800380D02*
X158281809Y-117324190D01*
X158043714Y-117800380D02*
X158043714Y-116800380D01*
X158424666Y-116800380D01*
X158519904Y-116848000D01*
X158567523Y-116895619D01*
X158615142Y-116990857D01*
X158615142Y-117133714D01*
X158567523Y-117228952D01*
X158519904Y-117276571D01*
X158424666Y-117324190D01*
X158043714Y-117324190D01*
X159567523Y-117800380D02*
X158996095Y-117800380D01*
X159281809Y-117800380D02*
X159281809Y-116800380D01*
X159186571Y-116943238D01*
X159091333Y-117038476D01*
X158996095Y-117086095D01*
X159948476Y-116895619D02*
X159996095Y-116848000D01*
X160091333Y-116800380D01*
X160329428Y-116800380D01*
X160424666Y-116848000D01*
X160472285Y-116895619D01*
X160519904Y-116990857D01*
X160519904Y-117086095D01*
X160472285Y-117228952D01*
X159900857Y-117800380D01*
X160519904Y-117800380D01*
X153027142Y-117800380D02*
X152693809Y-117324190D01*
X152455714Y-117800380D02*
X152455714Y-116800380D01*
X152836666Y-116800380D01*
X152931904Y-116848000D01*
X152979523Y-116895619D01*
X153027142Y-116990857D01*
X153027142Y-117133714D01*
X152979523Y-117228952D01*
X152931904Y-117276571D01*
X152836666Y-117324190D01*
X152455714Y-117324190D01*
X153979523Y-117800380D02*
X153408095Y-117800380D01*
X153693809Y-117800380D02*
X153693809Y-116800380D01*
X153598571Y-116943238D01*
X153503333Y-117038476D01*
X153408095Y-117086095D01*
X154884285Y-116800380D02*
X154408095Y-116800380D01*
X154360476Y-117276571D01*
X154408095Y-117228952D01*
X154503333Y-117181333D01*
X154741428Y-117181333D01*
X154836666Y-117228952D01*
X154884285Y-117276571D01*
X154931904Y-117371809D01*
X154931904Y-117609904D01*
X154884285Y-117705142D01*
X154836666Y-117752761D01*
X154741428Y-117800380D01*
X154503333Y-117800380D01*
X154408095Y-117752761D01*
X154360476Y-117705142D01*
X213733142Y-91130380D02*
X213399809Y-90654190D01*
X213161714Y-91130380D02*
X213161714Y-90130380D01*
X213542666Y-90130380D01*
X213637904Y-90178000D01*
X213685523Y-90225619D01*
X213733142Y-90320857D01*
X213733142Y-90463714D01*
X213685523Y-90558952D01*
X213637904Y-90606571D01*
X213542666Y-90654190D01*
X213161714Y-90654190D01*
X214685523Y-91130380D02*
X214114095Y-91130380D01*
X214399809Y-91130380D02*
X214399809Y-90130380D01*
X214304571Y-90273238D01*
X214209333Y-90368476D01*
X214114095Y-90416095D01*
X215542666Y-90130380D02*
X215352190Y-90130380D01*
X215256952Y-90178000D01*
X215209333Y-90225619D01*
X215114095Y-90368476D01*
X215066476Y-90558952D01*
X215066476Y-90939904D01*
X215114095Y-91035142D01*
X215161714Y-91082761D01*
X215256952Y-91130380D01*
X215447428Y-91130380D01*
X215542666Y-91082761D01*
X215590285Y-91035142D01*
X215637904Y-90939904D01*
X215637904Y-90701809D01*
X215590285Y-90606571D01*
X215542666Y-90558952D01*
X215447428Y-90511333D01*
X215256952Y-90511333D01*
X215161714Y-90558952D01*
X215114095Y-90606571D01*
X215066476Y-90701809D01*
X147439142Y-118054380D02*
X147105809Y-117578190D01*
X146867714Y-118054380D02*
X146867714Y-117054380D01*
X147248666Y-117054380D01*
X147343904Y-117102000D01*
X147391523Y-117149619D01*
X147439142Y-117244857D01*
X147439142Y-117387714D01*
X147391523Y-117482952D01*
X147343904Y-117530571D01*
X147248666Y-117578190D01*
X146867714Y-117578190D01*
X148391523Y-118054380D02*
X147820095Y-118054380D01*
X148105809Y-118054380D02*
X148105809Y-117054380D01*
X148010571Y-117197238D01*
X147915333Y-117292476D01*
X147820095Y-117340095D01*
X148962952Y-117482952D02*
X148867714Y-117435333D01*
X148820095Y-117387714D01*
X148772476Y-117292476D01*
X148772476Y-117244857D01*
X148820095Y-117149619D01*
X148867714Y-117102000D01*
X148962952Y-117054380D01*
X149153428Y-117054380D01*
X149248666Y-117102000D01*
X149296285Y-117149619D01*
X149343904Y-117244857D01*
X149343904Y-117292476D01*
X149296285Y-117387714D01*
X149248666Y-117435333D01*
X149153428Y-117482952D01*
X148962952Y-117482952D01*
X148867714Y-117530571D01*
X148820095Y-117578190D01*
X148772476Y-117673428D01*
X148772476Y-117863904D01*
X148820095Y-117959142D01*
X148867714Y-118006761D01*
X148962952Y-118054380D01*
X149153428Y-118054380D01*
X149248666Y-118006761D01*
X149296285Y-117959142D01*
X149343904Y-117863904D01*
X149343904Y-117673428D01*
X149296285Y-117578190D01*
X149248666Y-117530571D01*
X149153428Y-117482952D01*
X70985142Y-107164142D02*
X70937523Y-107211761D01*
X70794666Y-107259380D01*
X70699428Y-107259380D01*
X70556571Y-107211761D01*
X70461333Y-107116523D01*
X70413714Y-107021285D01*
X70366095Y-106830809D01*
X70366095Y-106687952D01*
X70413714Y-106497476D01*
X70461333Y-106402238D01*
X70556571Y-106307000D01*
X70699428Y-106259380D01*
X70794666Y-106259380D01*
X70937523Y-106307000D01*
X70985142Y-106354619D01*
X71937523Y-107259380D02*
X71366095Y-107259380D01*
X71651809Y-107259380D02*
X71651809Y-106259380D01*
X71556571Y-106402238D01*
X71461333Y-106497476D01*
X71366095Y-106545095D01*
X72270857Y-106259380D02*
X72889904Y-106259380D01*
X72556571Y-106640333D01*
X72699428Y-106640333D01*
X72794666Y-106687952D01*
X72842285Y-106735571D01*
X72889904Y-106830809D01*
X72889904Y-107068904D01*
X72842285Y-107164142D01*
X72794666Y-107211761D01*
X72699428Y-107259380D01*
X72413714Y-107259380D01*
X72318476Y-107211761D01*
X72270857Y-107164142D01*
X225401142Y-96908857D02*
X225448761Y-96956476D01*
X225496380Y-97099333D01*
X225496380Y-97194571D01*
X225448761Y-97337428D01*
X225353523Y-97432666D01*
X225258285Y-97480285D01*
X225067809Y-97527904D01*
X224924952Y-97527904D01*
X224734476Y-97480285D01*
X224639238Y-97432666D01*
X224544000Y-97337428D01*
X224496380Y-97194571D01*
X224496380Y-97099333D01*
X224544000Y-96956476D01*
X224591619Y-96908857D01*
X225496380Y-95956476D02*
X225496380Y-96527904D01*
X225496380Y-96242190D02*
X224496380Y-96242190D01*
X224639238Y-96337428D01*
X224734476Y-96432666D01*
X224782095Y-96527904D01*
X224496380Y-95051714D02*
X224496380Y-95527904D01*
X224972571Y-95575523D01*
X224924952Y-95527904D01*
X224877333Y-95432666D01*
X224877333Y-95194571D01*
X224924952Y-95099333D01*
X224972571Y-95051714D01*
X225067809Y-95004095D01*
X225305904Y-95004095D01*
X225401142Y-95051714D01*
X225448761Y-95099333D01*
X225496380Y-95194571D01*
X225496380Y-95432666D01*
X225448761Y-95527904D01*
X225401142Y-95575523D01*
X180179142Y-137707666D02*
X180226761Y-137755285D01*
X180274380Y-137898142D01*
X180274380Y-137993380D01*
X180226761Y-138136238D01*
X180131523Y-138231476D01*
X180036285Y-138279095D01*
X179845809Y-138326714D01*
X179702952Y-138326714D01*
X179512476Y-138279095D01*
X179417238Y-138231476D01*
X179322000Y-138136238D01*
X179274380Y-137993380D01*
X179274380Y-137898142D01*
X179322000Y-137755285D01*
X179369619Y-137707666D01*
X180274380Y-136755285D02*
X180274380Y-137326714D01*
X180274380Y-137041000D02*
X179274380Y-137041000D01*
X179417238Y-137136238D01*
X179512476Y-137231476D01*
X179560095Y-137326714D01*
X174591142Y-137712666D02*
X174638761Y-137760285D01*
X174686380Y-137903142D01*
X174686380Y-137998380D01*
X174638761Y-138141238D01*
X174543523Y-138236476D01*
X174448285Y-138284095D01*
X174257809Y-138331714D01*
X174114952Y-138331714D01*
X173924476Y-138284095D01*
X173829238Y-138236476D01*
X173734000Y-138141238D01*
X173686380Y-137998380D01*
X173686380Y-137903142D01*
X173734000Y-137760285D01*
X173781619Y-137712666D01*
X173781619Y-137331714D02*
X173734000Y-137284095D01*
X173686380Y-137188857D01*
X173686380Y-136950761D01*
X173734000Y-136855523D01*
X173781619Y-136807904D01*
X173876857Y-136760285D01*
X173972095Y-136760285D01*
X174114952Y-136807904D01*
X174686380Y-137379333D01*
X174686380Y-136760285D01*
X169003142Y-137712666D02*
X169050761Y-137760285D01*
X169098380Y-137903142D01*
X169098380Y-137998380D01*
X169050761Y-138141238D01*
X168955523Y-138236476D01*
X168860285Y-138284095D01*
X168669809Y-138331714D01*
X168526952Y-138331714D01*
X168336476Y-138284095D01*
X168241238Y-138236476D01*
X168146000Y-138141238D01*
X168098380Y-137998380D01*
X168098380Y-137903142D01*
X168146000Y-137760285D01*
X168193619Y-137712666D01*
X168098380Y-137379333D02*
X168098380Y-136760285D01*
X168479333Y-137093619D01*
X168479333Y-136950761D01*
X168526952Y-136855523D01*
X168574571Y-136807904D01*
X168669809Y-136760285D01*
X168907904Y-136760285D01*
X169003142Y-136807904D01*
X169050761Y-136855523D01*
X169098380Y-136950761D01*
X169098380Y-137236476D01*
X169050761Y-137331714D01*
X169003142Y-137379333D01*
X163415142Y-137712666D02*
X163462761Y-137760285D01*
X163510380Y-137903142D01*
X163510380Y-137998380D01*
X163462761Y-138141238D01*
X163367523Y-138236476D01*
X163272285Y-138284095D01*
X163081809Y-138331714D01*
X162938952Y-138331714D01*
X162748476Y-138284095D01*
X162653238Y-138236476D01*
X162558000Y-138141238D01*
X162510380Y-137998380D01*
X162510380Y-137903142D01*
X162558000Y-137760285D01*
X162605619Y-137712666D01*
X162843714Y-136855523D02*
X163510380Y-136855523D01*
X162462761Y-137093619D02*
X163177047Y-137331714D01*
X163177047Y-136712666D01*
X157827142Y-137712666D02*
X157874761Y-137760285D01*
X157922380Y-137903142D01*
X157922380Y-137998380D01*
X157874761Y-138141238D01*
X157779523Y-138236476D01*
X157684285Y-138284095D01*
X157493809Y-138331714D01*
X157350952Y-138331714D01*
X157160476Y-138284095D01*
X157065238Y-138236476D01*
X156970000Y-138141238D01*
X156922380Y-137998380D01*
X156922380Y-137903142D01*
X156970000Y-137760285D01*
X157017619Y-137712666D01*
X156922380Y-136807904D02*
X156922380Y-137284095D01*
X157398571Y-137331714D01*
X157350952Y-137284095D01*
X157303333Y-137188857D01*
X157303333Y-136950761D01*
X157350952Y-136855523D01*
X157398571Y-136807904D01*
X157493809Y-136760285D01*
X157731904Y-136760285D01*
X157827142Y-136807904D01*
X157874761Y-136855523D01*
X157922380Y-136950761D01*
X157922380Y-137188857D01*
X157874761Y-137284095D01*
X157827142Y-137331714D01*
X152239142Y-137712666D02*
X152286761Y-137760285D01*
X152334380Y-137903142D01*
X152334380Y-137998380D01*
X152286761Y-138141238D01*
X152191523Y-138236476D01*
X152096285Y-138284095D01*
X151905809Y-138331714D01*
X151762952Y-138331714D01*
X151572476Y-138284095D01*
X151477238Y-138236476D01*
X151382000Y-138141238D01*
X151334380Y-137998380D01*
X151334380Y-137903142D01*
X151382000Y-137760285D01*
X151429619Y-137712666D01*
X151334380Y-136855523D02*
X151334380Y-137046000D01*
X151382000Y-137141238D01*
X151429619Y-137188857D01*
X151572476Y-137284095D01*
X151762952Y-137331714D01*
X152143904Y-137331714D01*
X152239142Y-137284095D01*
X152286761Y-137236476D01*
X152334380Y-137141238D01*
X152334380Y-136950761D01*
X152286761Y-136855523D01*
X152239142Y-136807904D01*
X152143904Y-136760285D01*
X151905809Y-136760285D01*
X151810571Y-136807904D01*
X151762952Y-136855523D01*
X151715333Y-136950761D01*
X151715333Y-137141238D01*
X151762952Y-137236476D01*
X151810571Y-137284095D01*
X151905809Y-137331714D01*
X88479333Y-94464142D02*
X88431714Y-94511761D01*
X88288857Y-94559380D01*
X88193619Y-94559380D01*
X88050761Y-94511761D01*
X87955523Y-94416523D01*
X87907904Y-94321285D01*
X87860285Y-94130809D01*
X87860285Y-93987952D01*
X87907904Y-93797476D01*
X87955523Y-93702238D01*
X88050761Y-93607000D01*
X88193619Y-93559380D01*
X88288857Y-93559380D01*
X88431714Y-93607000D01*
X88479333Y-93654619D01*
X88812666Y-93559380D02*
X89479333Y-93559380D01*
X89050761Y-94559380D01*
X94083142Y-86145666D02*
X94130761Y-86193285D01*
X94178380Y-86336142D01*
X94178380Y-86431380D01*
X94130761Y-86574238D01*
X94035523Y-86669476D01*
X93940285Y-86717095D01*
X93749809Y-86764714D01*
X93606952Y-86764714D01*
X93416476Y-86717095D01*
X93321238Y-86669476D01*
X93226000Y-86574238D01*
X93178380Y-86431380D01*
X93178380Y-86336142D01*
X93226000Y-86193285D01*
X93273619Y-86145666D01*
X93606952Y-85574238D02*
X93559333Y-85669476D01*
X93511714Y-85717095D01*
X93416476Y-85764714D01*
X93368857Y-85764714D01*
X93273619Y-85717095D01*
X93226000Y-85669476D01*
X93178380Y-85574238D01*
X93178380Y-85383761D01*
X93226000Y-85288523D01*
X93273619Y-85240904D01*
X93368857Y-85193285D01*
X93416476Y-85193285D01*
X93511714Y-85240904D01*
X93559333Y-85288523D01*
X93606952Y-85383761D01*
X93606952Y-85574238D01*
X93654571Y-85669476D01*
X93702190Y-85717095D01*
X93797428Y-85764714D01*
X93987904Y-85764714D01*
X94083142Y-85717095D01*
X94130761Y-85669476D01*
X94178380Y-85574238D01*
X94178380Y-85383761D01*
X94130761Y-85288523D01*
X94083142Y-85240904D01*
X93987904Y-85193285D01*
X93797428Y-85193285D01*
X93702190Y-85240904D01*
X93654571Y-85288523D01*
X93606952Y-85383761D01*
X96623142Y-86018666D02*
X96670761Y-86066285D01*
X96718380Y-86209142D01*
X96718380Y-86304380D01*
X96670761Y-86447238D01*
X96575523Y-86542476D01*
X96480285Y-86590095D01*
X96289809Y-86637714D01*
X96146952Y-86637714D01*
X95956476Y-86590095D01*
X95861238Y-86542476D01*
X95766000Y-86447238D01*
X95718380Y-86304380D01*
X95718380Y-86209142D01*
X95766000Y-86066285D01*
X95813619Y-86018666D01*
X96718380Y-85542476D02*
X96718380Y-85352000D01*
X96670761Y-85256761D01*
X96623142Y-85209142D01*
X96480285Y-85113904D01*
X96289809Y-85066285D01*
X95908857Y-85066285D01*
X95813619Y-85113904D01*
X95766000Y-85161523D01*
X95718380Y-85256761D01*
X95718380Y-85447238D01*
X95766000Y-85542476D01*
X95813619Y-85590095D01*
X95908857Y-85637714D01*
X96146952Y-85637714D01*
X96242190Y-85590095D01*
X96289809Y-85542476D01*
X96337428Y-85447238D01*
X96337428Y-85256761D01*
X96289809Y-85161523D01*
X96242190Y-85113904D01*
X96146952Y-85066285D01*
X99163142Y-86748857D02*
X99210761Y-86796476D01*
X99258380Y-86939333D01*
X99258380Y-87034571D01*
X99210761Y-87177428D01*
X99115523Y-87272666D01*
X99020285Y-87320285D01*
X98829809Y-87367904D01*
X98686952Y-87367904D01*
X98496476Y-87320285D01*
X98401238Y-87272666D01*
X98306000Y-87177428D01*
X98258380Y-87034571D01*
X98258380Y-86939333D01*
X98306000Y-86796476D01*
X98353619Y-86748857D01*
X99258380Y-85796476D02*
X99258380Y-86367904D01*
X99258380Y-86082190D02*
X98258380Y-86082190D01*
X98401238Y-86177428D01*
X98496476Y-86272666D01*
X98544095Y-86367904D01*
X98258380Y-85177428D02*
X98258380Y-85082190D01*
X98306000Y-84986952D01*
X98353619Y-84939333D01*
X98448857Y-84891714D01*
X98639333Y-84844095D01*
X98877428Y-84844095D01*
X99067904Y-84891714D01*
X99163142Y-84939333D01*
X99210761Y-84986952D01*
X99258380Y-85082190D01*
X99258380Y-85177428D01*
X99210761Y-85272666D01*
X99163142Y-85320285D01*
X99067904Y-85367904D01*
X98877428Y-85415523D01*
X98639333Y-85415523D01*
X98448857Y-85367904D01*
X98353619Y-85320285D01*
X98306000Y-85272666D01*
X98258380Y-85177428D01*
X101703142Y-86621857D02*
X101750761Y-86669476D01*
X101798380Y-86812333D01*
X101798380Y-86907571D01*
X101750761Y-87050428D01*
X101655523Y-87145666D01*
X101560285Y-87193285D01*
X101369809Y-87240904D01*
X101226952Y-87240904D01*
X101036476Y-87193285D01*
X100941238Y-87145666D01*
X100846000Y-87050428D01*
X100798380Y-86907571D01*
X100798380Y-86812333D01*
X100846000Y-86669476D01*
X100893619Y-86621857D01*
X101798380Y-85669476D02*
X101798380Y-86240904D01*
X101798380Y-85955190D02*
X100798380Y-85955190D01*
X100941238Y-86050428D01*
X101036476Y-86145666D01*
X101084095Y-86240904D01*
X101798380Y-84717095D02*
X101798380Y-85288523D01*
X101798380Y-85002809D02*
X100798380Y-85002809D01*
X100941238Y-85098047D01*
X101036476Y-85193285D01*
X101084095Y-85288523D01*
X104243142Y-86748857D02*
X104290761Y-86796476D01*
X104338380Y-86939333D01*
X104338380Y-87034571D01*
X104290761Y-87177428D01*
X104195523Y-87272666D01*
X104100285Y-87320285D01*
X103909809Y-87367904D01*
X103766952Y-87367904D01*
X103576476Y-87320285D01*
X103481238Y-87272666D01*
X103386000Y-87177428D01*
X103338380Y-87034571D01*
X103338380Y-86939333D01*
X103386000Y-86796476D01*
X103433619Y-86748857D01*
X104338380Y-85796476D02*
X104338380Y-86367904D01*
X104338380Y-86082190D02*
X103338380Y-86082190D01*
X103481238Y-86177428D01*
X103576476Y-86272666D01*
X103624095Y-86367904D01*
X103433619Y-85415523D02*
X103386000Y-85367904D01*
X103338380Y-85272666D01*
X103338380Y-85034571D01*
X103386000Y-84939333D01*
X103433619Y-84891714D01*
X103528857Y-84844095D01*
X103624095Y-84844095D01*
X103766952Y-84891714D01*
X104338380Y-85463142D01*
X104338380Y-84844095D01*
X81907142Y-107291142D02*
X81859523Y-107338761D01*
X81716666Y-107386380D01*
X81621428Y-107386380D01*
X81478571Y-107338761D01*
X81383333Y-107243523D01*
X81335714Y-107148285D01*
X81288095Y-106957809D01*
X81288095Y-106814952D01*
X81335714Y-106624476D01*
X81383333Y-106529238D01*
X81478571Y-106434000D01*
X81621428Y-106386380D01*
X81716666Y-106386380D01*
X81859523Y-106434000D01*
X81907142Y-106481619D01*
X82859523Y-107386380D02*
X82288095Y-107386380D01*
X82573809Y-107386380D02*
X82573809Y-106386380D01*
X82478571Y-106529238D01*
X82383333Y-106624476D01*
X82288095Y-106672095D01*
X83716666Y-106719714D02*
X83716666Y-107386380D01*
X83478571Y-106338761D02*
X83240476Y-107053047D01*
X83859523Y-107053047D01*
X76192142Y-104243142D02*
X76144523Y-104290761D01*
X76001666Y-104338380D01*
X75906428Y-104338380D01*
X75763571Y-104290761D01*
X75668333Y-104195523D01*
X75620714Y-104100285D01*
X75573095Y-103909809D01*
X75573095Y-103766952D01*
X75620714Y-103576476D01*
X75668333Y-103481238D01*
X75763571Y-103386000D01*
X75906428Y-103338380D01*
X76001666Y-103338380D01*
X76144523Y-103386000D01*
X76192142Y-103433619D01*
X77144523Y-104338380D02*
X76573095Y-104338380D01*
X76858809Y-104338380D02*
X76858809Y-103338380D01*
X76763571Y-103481238D01*
X76668333Y-103576476D01*
X76573095Y-103624095D01*
X78001666Y-103338380D02*
X77811190Y-103338380D01*
X77715952Y-103386000D01*
X77668333Y-103433619D01*
X77573095Y-103576476D01*
X77525476Y-103766952D01*
X77525476Y-104147904D01*
X77573095Y-104243142D01*
X77620714Y-104290761D01*
X77715952Y-104338380D01*
X77906428Y-104338380D01*
X78001666Y-104290761D01*
X78049285Y-104243142D01*
X78096904Y-104147904D01*
X78096904Y-103909809D01*
X78049285Y-103814571D01*
X78001666Y-103766952D01*
X77906428Y-103719333D01*
X77715952Y-103719333D01*
X77620714Y-103766952D01*
X77573095Y-103814571D01*
X77525476Y-103909809D01*
X84415333Y-101671380D02*
X83939142Y-101671380D01*
X83939142Y-100671380D01*
X85272476Y-101671380D02*
X84701047Y-101671380D01*
X84986761Y-101671380D02*
X84986761Y-100671380D01*
X84891523Y-100814238D01*
X84796285Y-100909476D01*
X84701047Y-100957095D01*
M02*
