%FSLAX45Y45*%
G04 Gerber Fmt 4.5, Leading zero omitted, Abs format (unit mm)*
G04 Created by KiCad (PCBNEW no-vcs-found-undefined) date Fri Oct 28 12:41:06 2016*
%MOMM*%
%LPD*%
G01*
G04 APERTURE LIST*
%ADD10C,0.127000*%
%ADD11C,0.100000*%
%ADD12C,0.200000*%
%ADD13C,0.300000*%
G04 APERTURE END LIST*
D10*
D11*
X6997700Y-14376400D02*
X6997700Y-7086600D01*
X24015700Y-14376400D02*
X6997700Y-14376400D01*
X24015700Y-7086600D02*
X24015700Y-14376400D01*
X6997700Y-7086600D02*
X24015700Y-7086600D01*
D12*
X7290000Y-13890000D02*
X7510000Y-14110000D01*
X7510000Y-13890000D02*
X7290000Y-14110000D01*
X10773900Y-8551400D02*
X10993900Y-8771400D01*
X10993900Y-8551400D02*
X10773900Y-8771400D01*
X23290000Y-7390000D02*
X23510000Y-7610000D01*
X23510000Y-7390000D02*
X23290000Y-7610000D01*
X23290000Y-13869200D02*
X23510000Y-14089200D01*
X23510000Y-13869200D02*
X23290000Y-14089200D01*
D13*
X7279128Y-14847114D02*
X7279128Y-14547114D01*
X7350557Y-14547114D01*
X7393414Y-14561400D01*
X7421986Y-14589971D01*
X7436271Y-14618543D01*
X7450557Y-14675686D01*
X7450557Y-14718543D01*
X7436271Y-14775686D01*
X7421986Y-14804257D01*
X7393414Y-14832829D01*
X7350557Y-14847114D01*
X7279128Y-14847114D01*
X7579128Y-14847114D02*
X7579128Y-14647114D01*
X7579128Y-14704257D02*
X7593414Y-14675686D01*
X7607700Y-14661400D01*
X7636271Y-14647114D01*
X7664843Y-14647114D01*
X7764843Y-14847114D02*
X7764843Y-14647114D01*
X7764843Y-14547114D02*
X7750557Y-14561400D01*
X7764843Y-14575686D01*
X7779128Y-14561400D01*
X7764843Y-14547114D01*
X7764843Y-14575686D01*
X7950557Y-14847114D02*
X7921986Y-14832829D01*
X7907700Y-14804257D01*
X7907700Y-14547114D01*
X8107700Y-14847114D02*
X8079128Y-14832829D01*
X8064843Y-14804257D01*
X8064843Y-14547114D01*
X8450557Y-14847114D02*
X8450557Y-14547114D01*
X8550557Y-14761400D01*
X8650557Y-14547114D01*
X8650557Y-14847114D01*
X8921986Y-14847114D02*
X8921986Y-14689971D01*
X8907700Y-14661400D01*
X8879128Y-14647114D01*
X8821986Y-14647114D01*
X8793414Y-14661400D01*
X8921986Y-14832829D02*
X8893414Y-14847114D01*
X8821986Y-14847114D01*
X8793414Y-14832829D01*
X8779128Y-14804257D01*
X8779128Y-14775686D01*
X8793414Y-14747114D01*
X8821986Y-14732829D01*
X8893414Y-14732829D01*
X8921986Y-14718543D01*
X9064843Y-14647114D02*
X9064843Y-14947114D01*
X9064843Y-14661400D02*
X9093414Y-14647114D01*
X9150557Y-14647114D01*
X9179128Y-14661400D01*
X9193414Y-14675686D01*
X9207700Y-14704257D01*
X9207700Y-14789971D01*
X9193414Y-14818543D01*
X9179128Y-14832829D01*
X9150557Y-14847114D01*
X9093414Y-14847114D01*
X9064843Y-14832829D01*
X9336271Y-14818543D02*
X9350557Y-14832829D01*
X9336271Y-14847114D01*
X9321986Y-14832829D01*
X9336271Y-14818543D01*
X9336271Y-14847114D01*
X9336271Y-14661400D02*
X9350557Y-14675686D01*
X9336271Y-14689971D01*
X9321986Y-14675686D01*
X9336271Y-14661400D01*
X9336271Y-14689971D01*
X6772700Y-15231400D02*
X6992700Y-15451400D01*
X6992700Y-15231400D02*
X6772700Y-15451400D01*
X7264843Y-15205686D02*
X7279128Y-15191400D01*
X7307700Y-15177114D01*
X7379128Y-15177114D01*
X7407700Y-15191400D01*
X7421986Y-15205686D01*
X7436271Y-15234257D01*
X7436271Y-15262829D01*
X7421986Y-15305686D01*
X7250557Y-15477114D01*
X7436271Y-15477114D01*
X7564843Y-15448543D02*
X7579128Y-15462829D01*
X7564843Y-15477114D01*
X7550557Y-15462829D01*
X7564843Y-15448543D01*
X7564843Y-15477114D01*
X7693414Y-15205686D02*
X7707700Y-15191400D01*
X7736271Y-15177114D01*
X7807700Y-15177114D01*
X7836271Y-15191400D01*
X7850557Y-15205686D01*
X7864843Y-15234257D01*
X7864843Y-15262829D01*
X7850557Y-15305686D01*
X7679128Y-15477114D01*
X7864843Y-15477114D01*
X8050557Y-15177114D02*
X8079128Y-15177114D01*
X8107700Y-15191400D01*
X8121986Y-15205686D01*
X8136271Y-15234257D01*
X8150557Y-15291400D01*
X8150557Y-15362829D01*
X8136271Y-15419971D01*
X8121986Y-15448543D01*
X8107700Y-15462829D01*
X8079128Y-15477114D01*
X8050557Y-15477114D01*
X8021986Y-15462829D01*
X8007700Y-15448543D01*
X7993414Y-15419971D01*
X7979128Y-15362829D01*
X7979128Y-15291400D01*
X7993414Y-15234257D01*
X8007700Y-15205686D01*
X8021986Y-15191400D01*
X8050557Y-15177114D01*
X8279128Y-15477114D02*
X8279128Y-15277114D01*
X8279128Y-15305686D02*
X8293414Y-15291400D01*
X8321986Y-15277114D01*
X8364843Y-15277114D01*
X8393414Y-15291400D01*
X8407700Y-15319971D01*
X8407700Y-15477114D01*
X8407700Y-15319971D02*
X8421986Y-15291400D01*
X8450557Y-15277114D01*
X8493414Y-15277114D01*
X8521986Y-15291400D01*
X8536271Y-15319971D01*
X8536271Y-15477114D01*
X8679128Y-15477114D02*
X8679128Y-15277114D01*
X8679128Y-15305686D02*
X8693414Y-15291400D01*
X8721986Y-15277114D01*
X8764843Y-15277114D01*
X8793414Y-15291400D01*
X8807700Y-15319971D01*
X8807700Y-15477114D01*
X8807700Y-15319971D02*
X8821986Y-15291400D01*
X8850557Y-15277114D01*
X8893414Y-15277114D01*
X8921986Y-15291400D01*
X8936271Y-15319971D01*
X8936271Y-15477114D01*
X9521986Y-15162829D02*
X9264843Y-15548543D01*
X9907700Y-15177114D02*
X9936271Y-15177114D01*
X9964843Y-15191400D01*
X9979128Y-15205686D01*
X9993414Y-15234257D01*
X10007700Y-15291400D01*
X10007700Y-15362829D01*
X9993414Y-15419971D01*
X9979128Y-15448543D01*
X9964843Y-15462829D01*
X9936271Y-15477114D01*
X9907700Y-15477114D01*
X9879128Y-15462829D01*
X9864843Y-15448543D01*
X9850557Y-15419971D01*
X9836271Y-15362829D01*
X9836271Y-15291400D01*
X9850557Y-15234257D01*
X9864843Y-15205686D01*
X9879128Y-15191400D01*
X9907700Y-15177114D01*
X10136271Y-15448543D02*
X10150557Y-15462829D01*
X10136271Y-15477114D01*
X10121986Y-15462829D01*
X10136271Y-15448543D01*
X10136271Y-15477114D01*
X10336271Y-15177114D02*
X10364843Y-15177114D01*
X10393414Y-15191400D01*
X10407700Y-15205686D01*
X10421986Y-15234257D01*
X10436271Y-15291400D01*
X10436271Y-15362829D01*
X10421986Y-15419971D01*
X10407700Y-15448543D01*
X10393414Y-15462829D01*
X10364843Y-15477114D01*
X10336271Y-15477114D01*
X10307700Y-15462829D01*
X10293414Y-15448543D01*
X10279128Y-15419971D01*
X10264843Y-15362829D01*
X10264843Y-15291400D01*
X10279128Y-15234257D01*
X10293414Y-15205686D01*
X10307700Y-15191400D01*
X10336271Y-15177114D01*
X10607700Y-15305686D02*
X10579128Y-15291400D01*
X10564843Y-15277114D01*
X10550557Y-15248543D01*
X10550557Y-15234257D01*
X10564843Y-15205686D01*
X10579128Y-15191400D01*
X10607700Y-15177114D01*
X10664843Y-15177114D01*
X10693414Y-15191400D01*
X10707700Y-15205686D01*
X10721986Y-15234257D01*
X10721986Y-15248543D01*
X10707700Y-15277114D01*
X10693414Y-15291400D01*
X10664843Y-15305686D01*
X10607700Y-15305686D01*
X10579128Y-15319971D01*
X10564843Y-15334257D01*
X10550557Y-15362829D01*
X10550557Y-15419971D01*
X10564843Y-15448543D01*
X10579128Y-15462829D01*
X10607700Y-15477114D01*
X10664843Y-15477114D01*
X10693414Y-15462829D01*
X10707700Y-15448543D01*
X10721986Y-15419971D01*
X10721986Y-15362829D01*
X10707700Y-15334257D01*
X10693414Y-15319971D01*
X10664843Y-15305686D01*
X10821986Y-15177114D02*
X11021986Y-15177114D01*
X10893414Y-15477114D01*
X11121986Y-15177114D02*
X11121986Y-15234257D01*
X11236271Y-15177114D02*
X11236271Y-15234257D01*
X11679128Y-15591400D02*
X11664843Y-15577114D01*
X11636271Y-15534257D01*
X11621986Y-15505686D01*
X11607700Y-15462829D01*
X11593414Y-15391400D01*
X11593414Y-15334257D01*
X11607700Y-15262829D01*
X11621986Y-15219971D01*
X11636271Y-15191400D01*
X11664843Y-15148543D01*
X11679128Y-15134257D01*
X11921986Y-15277114D02*
X11921986Y-15477114D01*
X11850557Y-15162829D02*
X11779128Y-15377114D01*
X11964843Y-15377114D01*
X12307700Y-15477114D02*
X12307700Y-15177114D01*
X12436271Y-15477114D02*
X12436271Y-15319971D01*
X12421986Y-15291400D01*
X12393414Y-15277114D01*
X12350557Y-15277114D01*
X12321986Y-15291400D01*
X12307700Y-15305686D01*
X12621986Y-15477114D02*
X12593414Y-15462829D01*
X12579128Y-15448543D01*
X12564843Y-15419971D01*
X12564843Y-15334257D01*
X12579128Y-15305686D01*
X12593414Y-15291400D01*
X12621986Y-15277114D01*
X12664843Y-15277114D01*
X12693414Y-15291400D01*
X12707700Y-15305686D01*
X12721986Y-15334257D01*
X12721986Y-15419971D01*
X12707700Y-15448543D01*
X12693414Y-15462829D01*
X12664843Y-15477114D01*
X12621986Y-15477114D01*
X12893414Y-15477114D02*
X12864843Y-15462829D01*
X12850557Y-15434257D01*
X12850557Y-15177114D01*
X13121986Y-15462829D02*
X13093414Y-15477114D01*
X13036271Y-15477114D01*
X13007700Y-15462829D01*
X12993414Y-15434257D01*
X12993414Y-15319971D01*
X13007700Y-15291400D01*
X13036271Y-15277114D01*
X13093414Y-15277114D01*
X13121986Y-15291400D01*
X13136271Y-15319971D01*
X13136271Y-15348543D01*
X12993414Y-15377114D01*
X13250557Y-15462829D02*
X13279128Y-15477114D01*
X13336271Y-15477114D01*
X13364843Y-15462829D01*
X13379128Y-15434257D01*
X13379128Y-15419971D01*
X13364843Y-15391400D01*
X13336271Y-15377114D01*
X13293414Y-15377114D01*
X13264843Y-15362829D01*
X13250557Y-15334257D01*
X13250557Y-15319971D01*
X13264843Y-15291400D01*
X13293414Y-15277114D01*
X13336271Y-15277114D01*
X13364843Y-15291400D01*
X13479128Y-15591400D02*
X13493414Y-15577114D01*
X13521986Y-15534257D01*
X13536271Y-15505686D01*
X13550557Y-15462829D01*
X13564843Y-15391400D01*
X13564843Y-15334257D01*
X13550557Y-15262829D01*
X13536271Y-15219971D01*
X13521986Y-15191400D01*
X13493414Y-15148543D01*
X13479128Y-15134257D01*
X14021986Y-15591400D02*
X14007700Y-15577114D01*
X13979128Y-15534257D01*
X13964843Y-15505686D01*
X13950557Y-15462829D01*
X13936271Y-15391400D01*
X13936271Y-15334257D01*
X13950557Y-15262829D01*
X13964843Y-15219971D01*
X13979128Y-15191400D01*
X14007700Y-15148543D01*
X14021986Y-15134257D01*
X14136271Y-15277114D02*
X14136271Y-15477114D01*
X14136271Y-15305686D02*
X14150557Y-15291400D01*
X14179128Y-15277114D01*
X14221986Y-15277114D01*
X14250557Y-15291400D01*
X14264843Y-15319971D01*
X14264843Y-15477114D01*
X14450557Y-15477114D02*
X14421986Y-15462829D01*
X14407700Y-15448543D01*
X14393414Y-15419971D01*
X14393414Y-15334257D01*
X14407700Y-15305686D01*
X14421986Y-15291400D01*
X14450557Y-15277114D01*
X14493414Y-15277114D01*
X14521986Y-15291400D01*
X14536271Y-15305686D01*
X14550557Y-15334257D01*
X14550557Y-15419971D01*
X14536271Y-15448543D01*
X14521986Y-15462829D01*
X14493414Y-15477114D01*
X14450557Y-15477114D01*
X14636271Y-15277114D02*
X14750557Y-15277114D01*
X14679128Y-15177114D02*
X14679128Y-15434257D01*
X14693414Y-15462829D01*
X14721986Y-15477114D01*
X14750557Y-15477114D01*
X15079128Y-15277114D02*
X15079128Y-15577114D01*
X15079128Y-15291400D02*
X15107700Y-15277114D01*
X15164843Y-15277114D01*
X15193414Y-15291400D01*
X15207700Y-15305686D01*
X15221986Y-15334257D01*
X15221986Y-15419971D01*
X15207700Y-15448543D01*
X15193414Y-15462829D01*
X15164843Y-15477114D01*
X15107700Y-15477114D01*
X15079128Y-15462829D01*
X15393414Y-15477114D02*
X15364843Y-15462829D01*
X15350557Y-15434257D01*
X15350557Y-15177114D01*
X15636271Y-15477114D02*
X15636271Y-15319971D01*
X15621986Y-15291400D01*
X15593414Y-15277114D01*
X15536271Y-15277114D01*
X15507700Y-15291400D01*
X15636271Y-15462829D02*
X15607700Y-15477114D01*
X15536271Y-15477114D01*
X15507700Y-15462829D01*
X15493414Y-15434257D01*
X15493414Y-15405686D01*
X15507700Y-15377114D01*
X15536271Y-15362829D01*
X15607700Y-15362829D01*
X15636271Y-15348543D01*
X15736271Y-15277114D02*
X15850557Y-15277114D01*
X15779128Y-15177114D02*
X15779128Y-15434257D01*
X15793414Y-15462829D01*
X15821986Y-15477114D01*
X15850557Y-15477114D01*
X16064843Y-15462829D02*
X16036271Y-15477114D01*
X15979128Y-15477114D01*
X15950557Y-15462829D01*
X15936271Y-15434257D01*
X15936271Y-15319971D01*
X15950557Y-15291400D01*
X15979128Y-15277114D01*
X16036271Y-15277114D01*
X16064843Y-15291400D01*
X16079128Y-15319971D01*
X16079128Y-15348543D01*
X15936271Y-15377114D01*
X16336271Y-15477114D02*
X16336271Y-15177114D01*
X16336271Y-15462829D02*
X16307700Y-15477114D01*
X16250557Y-15477114D01*
X16221986Y-15462829D01*
X16207700Y-15448543D01*
X16193414Y-15419971D01*
X16193414Y-15334257D01*
X16207700Y-15305686D01*
X16221986Y-15291400D01*
X16250557Y-15277114D01*
X16307700Y-15277114D01*
X16336271Y-15291400D01*
X16450557Y-15591400D02*
X16464843Y-15577114D01*
X16493414Y-15534257D01*
X16507700Y-15505686D01*
X16521986Y-15462829D01*
X16536271Y-15391400D01*
X16536271Y-15334257D01*
X16521986Y-15262829D01*
X16507700Y-15219971D01*
X16493414Y-15191400D01*
X16464843Y-15148543D01*
X16450557Y-15134257D01*
M02*
