G04 #@! TF.FileFunction,Copper,L1,Top,Signal*
%FSLAX46Y46*%
G04 Gerber Fmt 4.6, Leading zero omitted, Abs format (unit mm)*
G04 Created by KiCad (PCBNEW no-vcs-found-undefined) date Tue Oct 25 21:33:45 2016*
%MOMM*%
%LPD*%
G01*
G04 APERTURE LIST*
%ADD10C,0.050000*%
%ADD11C,2.000000*%
%ADD12R,2.000000X2.000000*%
%ADD13C,1.300000*%
%ADD14R,1.300000X1.300000*%
%ADD15R,2.032000X2.032000*%
%ADD16O,2.032000X2.032000*%
%ADD17C,3.810000*%
%ADD18R,3.810000X3.810000*%
%ADD19C,2.000000*%
G04 APERTURE END LIST*
D10*
D11*
X137128000Y-85852000D03*
X139628000Y-85852000D03*
D12*
X142168000Y-85852000D03*
D13*
X175260000Y-139446000D03*
D14*
X175260000Y-135641000D03*
D13*
X180848000Y-139441000D03*
D14*
X180848000Y-135636000D03*
D13*
X164084000Y-139446000D03*
D14*
X164084000Y-135641000D03*
D13*
X169672000Y-139446000D03*
D14*
X169672000Y-135641000D03*
D13*
X158496000Y-139446000D03*
D14*
X158496000Y-135641000D03*
D13*
X152908000Y-139446000D03*
D14*
X152908000Y-135641000D03*
D11*
X208026000Y-133524000D03*
X208026000Y-131024000D03*
X208026000Y-128524000D03*
X208026000Y-126024000D03*
X208026000Y-123524000D03*
D12*
X208026000Y-120987500D03*
D11*
X83566000Y-108040500D03*
X83566000Y-105540500D03*
X83566000Y-103040500D03*
X83566000Y-100540500D03*
X83566000Y-98040500D03*
D12*
X83566000Y-95504000D03*
D15*
X70866000Y-86614000D03*
D16*
X73406000Y-86614000D03*
D11*
X180088000Y-85852000D03*
X182588000Y-85852000D03*
D12*
X185128000Y-85852000D03*
D11*
X225298000Y-130342000D03*
X225298000Y-132842000D03*
D12*
X225298000Y-135382000D03*
D11*
X81088000Y-85852000D03*
X83588000Y-85852000D03*
D12*
X86128000Y-85852000D03*
D11*
X115088000Y-85852000D03*
X117588000Y-85852000D03*
D12*
X120128000Y-85852000D03*
D11*
X159128000Y-85852000D03*
X161628000Y-85852000D03*
D12*
X164168000Y-85852000D03*
D11*
X225298000Y-117896000D03*
X225298000Y-120396000D03*
D12*
X225298000Y-122936000D03*
D11*
X225298000Y-105450000D03*
X225298000Y-107950000D03*
D12*
X225298000Y-110490000D03*
D11*
X213128000Y-85852000D03*
X215628000Y-85852000D03*
D12*
X218168000Y-85852000D03*
D17*
X230124000Y-88646000D03*
X230124000Y-93726000D03*
D18*
X230124000Y-83566000D03*
D17*
X230124000Y-98806000D03*
D11*
X177546000Y-93726000D03*
X185166000Y-93726000D03*
X169672000Y-113604000D03*
X169672000Y-133604000D03*
X120142000Y-93726000D03*
X112522000Y-93726000D03*
X134620000Y-93726000D03*
X142240000Y-93726000D03*
X83566000Y-90170000D03*
X91186000Y-90170000D03*
X164084000Y-93726000D03*
X156464000Y-93726000D03*
X210566000Y-133604000D03*
X218186000Y-133604000D03*
X180848000Y-133604000D03*
X180848000Y-113604000D03*
X218186000Y-131064000D03*
X210566000Y-131064000D03*
X175260000Y-133604000D03*
X175260000Y-113604000D03*
X210566000Y-128524000D03*
X218186000Y-128524000D03*
X218186000Y-125984000D03*
X210566000Y-125984000D03*
X164084000Y-113604000D03*
X164084000Y-133604000D03*
X214630000Y-123444000D03*
X214630000Y-115824000D03*
X158496000Y-133604000D03*
X158496000Y-113604000D03*
X216662000Y-93726000D03*
X209042000Y-93726000D03*
X212090000Y-113284000D03*
X212090000Y-120904000D03*
X152908000Y-113604000D03*
X152908000Y-133604000D03*
X192278000Y-76708000D03*
X192278000Y-85852000D03*
X170180000Y-76708000D03*
X170180000Y-85852000D03*
X147828000Y-76708000D03*
X147828000Y-85852000D03*
X125730000Y-76708000D03*
X125730000Y-85852000D03*
X92456000Y-85852000D03*
X92456000Y-76708000D03*
D19*
X192278000Y-85852000D02*
X192278000Y-76708000D01*
X170180000Y-85852000D02*
X170180000Y-76708000D01*
X147828000Y-85852000D02*
X147828000Y-76708000D01*
X125730000Y-84437787D02*
X125730000Y-76708000D01*
X125730000Y-85852000D02*
X125730000Y-84437787D01*
X92456000Y-78122213D02*
X92456000Y-85852000D01*
X92456000Y-76708000D02*
X92456000Y-78122213D01*
M02*
