M48
;DRILL file {KiCad no-vcs-found-undefined} date Wed Oct 26 00:51:34 2016
;FORMAT={3:3/ absolute / metric / suppress leading zeros}
FMAT,2
METRIC,TZ
T1C0.700
T2C1.000
T3C1.100
%
G90
G05
M71
T1
X83566Y-90170
X91186Y-90170
X92456Y-76708
X92456Y-85852
X112522Y-93726
X120142Y-93726
X125730Y-76708
X125730Y-85852
X134620Y-93726
X142240Y-93726
X147828Y-76708
X147828Y-85852
X148082Y-113604
X148082Y-133604
X148082Y-135641
X148082Y-139446
X153670Y-113604
X153670Y-133604
X153670Y-135641
X153670Y-139446
X156464Y-93726
X159258Y-113604
X159258Y-133604
X159258Y-135641
X159258Y-139446
X164084Y-93726
X164846Y-113604
X164846Y-133604
X164846Y-135641
X164846Y-139446
X170180Y-76708
X170180Y-85852
X170434Y-113604
X170434Y-133604
X170434Y-135641
X170434Y-139446
X176022Y-113604
X176022Y-133604
X176022Y-135636
X176022Y-139441
X177546Y-92964
X185166Y-92964
X192278Y-76708
X192278Y-85852
X210566Y-92329
X210566Y-125984
X210566Y-128524
X210566Y-131064
X210566Y-133604
X212090Y-113284
X212090Y-120904
X214630Y-115824
X214630Y-123444
X218186Y-92329
X218186Y-125984
X218186Y-128524
X218186Y-131064
X218186Y-133604
T2
X74803Y-86487
X77343Y-86487
X81026Y-86416
X83566Y-86416
X86106Y-86416
X86360Y-95504
X86360Y-98044
X86360Y-100584
X86360Y-103124
X86360Y-105664
X86360Y-108204
X115062Y-86558
X117602Y-86558
X120142Y-86558
X137033Y-86487
X139573Y-86487
X142113Y-86487
X159131Y-86487
X161671Y-86487
X164211Y-86487
X180086Y-86487
X182626Y-86487
X185166Y-86487
X207772Y-120904
X207772Y-123444
X207772Y-125984
X207772Y-128524
X207772Y-131064
X207772Y-133604
X213106Y-86614
X215646Y-86614
X218186Y-86614
X225004Y-105410
X225004Y-107950
X225004Y-110490
X225044Y-117856
X225044Y-120396
X225044Y-122936
X225171Y-130302
X225171Y-132842
X225171Y-135382
T3
X230124Y-83566
X230124Y-88646
X230124Y-93726
X230124Y-98806
T0
M30
