G04 #@! TF.FileFunction,Legend,Top*
%FSLAX46Y46*%
G04 Gerber Fmt 4.6, Leading zero omitted, Abs format (unit mm)*
G04 Created by KiCad (PCBNEW no-vcs-found-undefined) date Tue Oct 25 18:02:23 2016*
%MOMM*%
%LPD*%
G01*
G04 APERTURE LIST*
%ADD10C,0.050000*%
%ADD11C,0.150000*%
G04 APERTURE END LIST*
D10*
D11*
X168910000Y-115984000D02*
X163830000Y-115984000D01*
X163830000Y-115984000D02*
X163830000Y-131224000D01*
X163830000Y-131224000D02*
X166370000Y-131224000D01*
X166370000Y-131224000D02*
X168910000Y-131224000D01*
X168910000Y-131224000D02*
X168910000Y-115984000D01*
X166370000Y-132334000D02*
X166370000Y-131224000D01*
X166370000Y-114874000D02*
X166370000Y-115984000D01*
X175473000Y-137621000D02*
X170475000Y-137621000D01*
X175465000Y-137761000D02*
X170483000Y-137761000D01*
X175449000Y-137901000D02*
X173069000Y-137901000D01*
X172879000Y-137901000D02*
X170499000Y-137901000D01*
X175425000Y-138041000D02*
X173464000Y-138041000D01*
X172484000Y-138041000D02*
X170523000Y-138041000D01*
X175392000Y-138181000D02*
X173631000Y-138181000D01*
X172317000Y-138181000D02*
X170556000Y-138181000D01*
X175351000Y-138321000D02*
X173738000Y-138321000D01*
X172210000Y-138321000D02*
X170597000Y-138321000D01*
X175301000Y-138461000D02*
X173809000Y-138461000D01*
X172139000Y-138461000D02*
X170647000Y-138461000D01*
X175240000Y-138601000D02*
X173853000Y-138601000D01*
X172095000Y-138601000D02*
X170708000Y-138601000D01*
X175170000Y-138741000D02*
X173872000Y-138741000D01*
X172076000Y-138741000D02*
X170778000Y-138741000D01*
X175088000Y-138881000D02*
X173870000Y-138881000D01*
X172078000Y-138881000D02*
X170860000Y-138881000D01*
X174993000Y-139021000D02*
X173845000Y-139021000D01*
X172103000Y-139021000D02*
X170955000Y-139021000D01*
X174882000Y-139161000D02*
X173797000Y-139161000D01*
X172151000Y-139161000D02*
X171066000Y-139161000D01*
X174754000Y-139301000D02*
X173719000Y-139301000D01*
X172229000Y-139301000D02*
X171194000Y-139301000D01*
X174605000Y-139441000D02*
X173602000Y-139441000D01*
X172346000Y-139441000D02*
X171343000Y-139441000D01*
X174426000Y-139581000D02*
X173414000Y-139581000D01*
X172534000Y-139581000D02*
X171522000Y-139581000D01*
X174207000Y-139721000D02*
X171741000Y-139721000D01*
X173918000Y-139861000D02*
X172030000Y-139861000D01*
X173446000Y-140001000D02*
X172502000Y-140001000D01*
X173874000Y-138796000D02*
G75*
G03X173874000Y-138796000I-900000J0D01*
G01*
X175511500Y-137546000D02*
G75*
G03X175511500Y-137546000I-2537500J0D01*
G01*
X182077000Y-137616000D02*
X177079000Y-137616000D01*
X182069000Y-137756000D02*
X177087000Y-137756000D01*
X182053000Y-137896000D02*
X179673000Y-137896000D01*
X179483000Y-137896000D02*
X177103000Y-137896000D01*
X182029000Y-138036000D02*
X180068000Y-138036000D01*
X179088000Y-138036000D02*
X177127000Y-138036000D01*
X181996000Y-138176000D02*
X180235000Y-138176000D01*
X178921000Y-138176000D02*
X177160000Y-138176000D01*
X181955000Y-138316000D02*
X180342000Y-138316000D01*
X178814000Y-138316000D02*
X177201000Y-138316000D01*
X181905000Y-138456000D02*
X180413000Y-138456000D01*
X178743000Y-138456000D02*
X177251000Y-138456000D01*
X181844000Y-138596000D02*
X180457000Y-138596000D01*
X178699000Y-138596000D02*
X177312000Y-138596000D01*
X181774000Y-138736000D02*
X180476000Y-138736000D01*
X178680000Y-138736000D02*
X177382000Y-138736000D01*
X181692000Y-138876000D02*
X180474000Y-138876000D01*
X178682000Y-138876000D02*
X177464000Y-138876000D01*
X181597000Y-139016000D02*
X180449000Y-139016000D01*
X178707000Y-139016000D02*
X177559000Y-139016000D01*
X181486000Y-139156000D02*
X180401000Y-139156000D01*
X178755000Y-139156000D02*
X177670000Y-139156000D01*
X181358000Y-139296000D02*
X180323000Y-139296000D01*
X178833000Y-139296000D02*
X177798000Y-139296000D01*
X181209000Y-139436000D02*
X180206000Y-139436000D01*
X178950000Y-139436000D02*
X177947000Y-139436000D01*
X181030000Y-139576000D02*
X180018000Y-139576000D01*
X179138000Y-139576000D02*
X178126000Y-139576000D01*
X180811000Y-139716000D02*
X178345000Y-139716000D01*
X180522000Y-139856000D02*
X178634000Y-139856000D01*
X180050000Y-139996000D02*
X179106000Y-139996000D01*
X180478000Y-138791000D02*
G75*
G03X180478000Y-138791000I-900000J0D01*
G01*
X182115500Y-137541000D02*
G75*
G03X182115500Y-137541000I-2537500J0D01*
G01*
X162303500Y-137546000D02*
G75*
G03X162303500Y-137546000I-2537500J0D01*
G01*
X160666000Y-138796000D02*
G75*
G03X160666000Y-138796000I-900000J0D01*
G01*
X160238000Y-140001000D02*
X159294000Y-140001000D01*
X160710000Y-139861000D02*
X158822000Y-139861000D01*
X160999000Y-139721000D02*
X158533000Y-139721000D01*
X159326000Y-139581000D02*
X158314000Y-139581000D01*
X161218000Y-139581000D02*
X160206000Y-139581000D01*
X159138000Y-139441000D02*
X158135000Y-139441000D01*
X161397000Y-139441000D02*
X160394000Y-139441000D01*
X159021000Y-139301000D02*
X157986000Y-139301000D01*
X161546000Y-139301000D02*
X160511000Y-139301000D01*
X158943000Y-139161000D02*
X157858000Y-139161000D01*
X161674000Y-139161000D02*
X160589000Y-139161000D01*
X158895000Y-139021000D02*
X157747000Y-139021000D01*
X161785000Y-139021000D02*
X160637000Y-139021000D01*
X158870000Y-138881000D02*
X157652000Y-138881000D01*
X161880000Y-138881000D02*
X160662000Y-138881000D01*
X158868000Y-138741000D02*
X157570000Y-138741000D01*
X161962000Y-138741000D02*
X160664000Y-138741000D01*
X158887000Y-138601000D02*
X157500000Y-138601000D01*
X162032000Y-138601000D02*
X160645000Y-138601000D01*
X158931000Y-138461000D02*
X157439000Y-138461000D01*
X162093000Y-138461000D02*
X160601000Y-138461000D01*
X159002000Y-138321000D02*
X157389000Y-138321000D01*
X162143000Y-138321000D02*
X160530000Y-138321000D01*
X159109000Y-138181000D02*
X157348000Y-138181000D01*
X162184000Y-138181000D02*
X160423000Y-138181000D01*
X159276000Y-138041000D02*
X157315000Y-138041000D01*
X162217000Y-138041000D02*
X160256000Y-138041000D01*
X159671000Y-137901000D02*
X157291000Y-137901000D01*
X162241000Y-137901000D02*
X159861000Y-137901000D01*
X162257000Y-137761000D02*
X157275000Y-137761000D01*
X162265000Y-137621000D02*
X157267000Y-137621000D01*
X178816000Y-90932000D02*
X183896000Y-90932000D01*
X183896000Y-90932000D02*
X183896000Y-93472000D01*
X183896000Y-93472000D02*
X178816000Y-93472000D01*
X178816000Y-93472000D02*
X178816000Y-90932000D01*
X88541000Y-76581000D02*
X78635000Y-76581000D01*
X88541000Y-83566000D02*
X78635000Y-83566000D01*
X78546100Y-83566000D02*
X78546100Y-84455000D01*
X81086100Y-83693000D02*
X81086100Y-84455000D01*
X83626100Y-83566000D02*
X83626100Y-84455000D01*
X86039100Y-84455000D02*
X86039100Y-83566000D01*
X88579100Y-83566000D02*
X88579100Y-84455000D01*
X81721100Y-76581000D02*
X81721100Y-80137000D01*
X81721100Y-80137000D02*
X80451100Y-80137000D01*
X80451100Y-80137000D02*
X80451100Y-76581000D01*
X86674100Y-76581000D02*
X86674100Y-80137000D01*
X86674100Y-80137000D02*
X85404100Y-80137000D01*
X85404100Y-80137000D02*
X85404100Y-76581000D01*
X78546100Y-83566000D02*
X78546100Y-88265000D01*
X78546100Y-88265000D02*
X79689100Y-88265000D01*
X79689100Y-88265000D02*
X79689100Y-83566000D01*
X88579100Y-88265000D02*
X87436100Y-88265000D01*
X87436100Y-88265000D02*
X87436100Y-83566000D01*
X88579100Y-83439000D02*
X88579100Y-88265000D01*
X78546100Y-83566000D02*
X78546100Y-76581000D01*
X88579100Y-76581000D02*
X88579100Y-83566000D01*
X113792000Y-93218000D02*
X113792000Y-90678000D01*
X118872000Y-93218000D02*
X113792000Y-93218000D01*
X118872000Y-90678000D02*
X118872000Y-93218000D01*
X113792000Y-90678000D02*
X118872000Y-90678000D01*
X144581000Y-76581000D02*
X134675000Y-76581000D01*
X144581000Y-83566000D02*
X134675000Y-83566000D01*
X134586100Y-83566000D02*
X134586100Y-84455000D01*
X137126100Y-83693000D02*
X137126100Y-84455000D01*
X139666100Y-83566000D02*
X139666100Y-84455000D01*
X142079100Y-84455000D02*
X142079100Y-83566000D01*
X144619100Y-83566000D02*
X144619100Y-84455000D01*
X137761100Y-76581000D02*
X137761100Y-80137000D01*
X137761100Y-80137000D02*
X136491100Y-80137000D01*
X136491100Y-80137000D02*
X136491100Y-76581000D01*
X142714100Y-76581000D02*
X142714100Y-80137000D01*
X142714100Y-80137000D02*
X141444100Y-80137000D01*
X141444100Y-80137000D02*
X141444100Y-76581000D01*
X134586100Y-83566000D02*
X134586100Y-88265000D01*
X134586100Y-88265000D02*
X135729100Y-88265000D01*
X135729100Y-88265000D02*
X135729100Y-83566000D01*
X144619100Y-88265000D02*
X143476100Y-88265000D01*
X143476100Y-88265000D02*
X143476100Y-83566000D01*
X144619100Y-83439000D02*
X144619100Y-88265000D01*
X134586100Y-83566000D02*
X134586100Y-76581000D01*
X144619100Y-76581000D02*
X144619100Y-83566000D01*
X122541000Y-76581000D02*
X112635000Y-76581000D01*
X122541000Y-83566000D02*
X112635000Y-83566000D01*
X112546100Y-83566000D02*
X112546100Y-84455000D01*
X115086100Y-83693000D02*
X115086100Y-84455000D01*
X117626100Y-83566000D02*
X117626100Y-84455000D01*
X120039100Y-84455000D02*
X120039100Y-83566000D01*
X122579100Y-83566000D02*
X122579100Y-84455000D01*
X115721100Y-76581000D02*
X115721100Y-80137000D01*
X115721100Y-80137000D02*
X114451100Y-80137000D01*
X114451100Y-80137000D02*
X114451100Y-76581000D01*
X120674100Y-76581000D02*
X120674100Y-80137000D01*
X120674100Y-80137000D02*
X119404100Y-80137000D01*
X119404100Y-80137000D02*
X119404100Y-76581000D01*
X112546100Y-83566000D02*
X112546100Y-88265000D01*
X112546100Y-88265000D02*
X113689100Y-88265000D01*
X113689100Y-88265000D02*
X113689100Y-83566000D01*
X122579100Y-88265000D02*
X121436100Y-88265000D01*
X121436100Y-88265000D02*
X121436100Y-83566000D01*
X122579100Y-83439000D02*
X122579100Y-88265000D01*
X112546100Y-83566000D02*
X112546100Y-76581000D01*
X122579100Y-76581000D02*
X122579100Y-83566000D01*
X135890000Y-90678000D02*
X140970000Y-90678000D01*
X140970000Y-90678000D02*
X140970000Y-93218000D01*
X140970000Y-93218000D02*
X135890000Y-93218000D01*
X135890000Y-93218000D02*
X135890000Y-90678000D01*
X69596000Y-85090000D02*
X72136000Y-85090000D01*
X72136000Y-85090000D02*
X72136000Y-82550000D01*
X70612000Y-82550000D02*
X70612000Y-76454000D01*
X70612000Y-76454000D02*
X71120000Y-76454000D01*
X71120000Y-76454000D02*
X71120000Y-82550000D01*
X72136000Y-82550000D02*
X69596000Y-82550000D01*
X74676000Y-82550000D02*
X72136000Y-82550000D01*
X73660000Y-76454000D02*
X73660000Y-82550000D01*
X73152000Y-76454000D02*
X73660000Y-76454000D01*
X73152000Y-82550000D02*
X73152000Y-76454000D01*
X74676000Y-85090000D02*
X74676000Y-82550000D01*
X72136000Y-85090000D02*
X74676000Y-85090000D01*
X72136000Y-85090000D02*
X72136000Y-82550000D01*
X69596000Y-85090000D02*
X69596000Y-82550000D01*
X73660000Y-85090000D02*
X73660000Y-85471000D01*
X73152000Y-85090000D02*
X73152000Y-85471000D01*
X71120000Y-85090000D02*
X71120000Y-85471000D01*
X70612000Y-85090000D02*
X70612000Y-85471000D01*
X70866000Y-82423000D02*
X70866000Y-76581000D01*
X70993000Y-82423000D02*
X70866000Y-82423000D01*
X70993000Y-76581000D02*
X70993000Y-82423000D01*
X70739000Y-76581000D02*
X70993000Y-76581000D01*
X70739000Y-82423000D02*
X70739000Y-76581000D01*
X69316000Y-86614000D02*
X69316000Y-87914000D01*
X69316000Y-87914000D02*
X70866000Y-87914000D01*
X79756000Y-90424000D02*
X84836000Y-90424000D01*
X84836000Y-90424000D02*
X84836000Y-92964000D01*
X84836000Y-92964000D02*
X79756000Y-92964000D01*
X79756000Y-92964000D02*
X79756000Y-90424000D01*
X157734000Y-93980000D02*
X157734000Y-91440000D01*
X162814000Y-93980000D02*
X157734000Y-93980000D01*
X162814000Y-91440000D02*
X162814000Y-93980000D01*
X157734000Y-91440000D02*
X162814000Y-91440000D01*
X166581000Y-76581000D02*
X156675000Y-76581000D01*
X166581000Y-83566000D02*
X156675000Y-83566000D01*
X156586100Y-83566000D02*
X156586100Y-84455000D01*
X159126100Y-83693000D02*
X159126100Y-84455000D01*
X161666100Y-83566000D02*
X161666100Y-84455000D01*
X164079100Y-84455000D02*
X164079100Y-83566000D01*
X166619100Y-83566000D02*
X166619100Y-84455000D01*
X159761100Y-76581000D02*
X159761100Y-80137000D01*
X159761100Y-80137000D02*
X158491100Y-80137000D01*
X158491100Y-80137000D02*
X158491100Y-76581000D01*
X164714100Y-76581000D02*
X164714100Y-80137000D01*
X164714100Y-80137000D02*
X163444100Y-80137000D01*
X163444100Y-80137000D02*
X163444100Y-76581000D01*
X156586100Y-83566000D02*
X156586100Y-88265000D01*
X156586100Y-88265000D02*
X157729100Y-88265000D01*
X157729100Y-88265000D02*
X157729100Y-83566000D01*
X166619100Y-88265000D02*
X165476100Y-88265000D01*
X165476100Y-88265000D02*
X165476100Y-83566000D01*
X166619100Y-83439000D02*
X166619100Y-88265000D01*
X156586100Y-83566000D02*
X156586100Y-76581000D01*
X166619100Y-76581000D02*
X166619100Y-83566000D01*
X187579100Y-76581000D02*
X187579100Y-83566000D01*
X177546100Y-83566000D02*
X177546100Y-76581000D01*
X187579100Y-83439000D02*
X187579100Y-88265000D01*
X186436100Y-88265000D02*
X186436100Y-83566000D01*
X187579100Y-88265000D02*
X186436100Y-88265000D01*
X178689100Y-88265000D02*
X178689100Y-83566000D01*
X177546100Y-88265000D02*
X178689100Y-88265000D01*
X177546100Y-83566000D02*
X177546100Y-88265000D01*
X184404100Y-80137000D02*
X184404100Y-76581000D01*
X185674100Y-80137000D02*
X184404100Y-80137000D01*
X185674100Y-76581000D02*
X185674100Y-80137000D01*
X179451100Y-80137000D02*
X179451100Y-76581000D01*
X180721100Y-80137000D02*
X179451100Y-80137000D01*
X180721100Y-76581000D02*
X180721100Y-80137000D01*
X187579100Y-83566000D02*
X187579100Y-84455000D01*
X185039100Y-84455000D02*
X185039100Y-83566000D01*
X182626100Y-83566000D02*
X182626100Y-84455000D01*
X180086100Y-83693000D02*
X180086100Y-84455000D01*
X177546100Y-83566000D02*
X177546100Y-84455000D01*
X187541000Y-83566000D02*
X177635000Y-83566000D01*
X187541000Y-76581000D02*
X177635000Y-76581000D01*
X234569000Y-125387100D02*
X227584000Y-125387100D01*
X227584000Y-115354100D02*
X234569000Y-115354100D01*
X227711000Y-125387100D02*
X222885000Y-125387100D01*
X222885000Y-124244100D02*
X227584000Y-124244100D01*
X222885000Y-125387100D02*
X222885000Y-124244100D01*
X222885000Y-116497100D02*
X227584000Y-116497100D01*
X222885000Y-115354100D02*
X222885000Y-116497100D01*
X227584000Y-115354100D02*
X222885000Y-115354100D01*
X231013000Y-122212100D02*
X234569000Y-122212100D01*
X231013000Y-123482100D02*
X231013000Y-122212100D01*
X234569000Y-123482100D02*
X231013000Y-123482100D01*
X231013000Y-117259100D02*
X234569000Y-117259100D01*
X231013000Y-118529100D02*
X231013000Y-117259100D01*
X234569000Y-118529100D02*
X231013000Y-118529100D01*
X227584000Y-125387100D02*
X226695000Y-125387100D01*
X226695000Y-122847100D02*
X227584000Y-122847100D01*
X227584000Y-120434100D02*
X226695000Y-120434100D01*
X227457000Y-117894100D02*
X226695000Y-117894100D01*
X227584000Y-115354100D02*
X226695000Y-115354100D01*
X227584000Y-125349000D02*
X227584000Y-115443000D01*
X234569000Y-125349000D02*
X234569000Y-115443000D01*
X234569000Y-137833100D02*
X227584000Y-137833100D01*
X227584000Y-127800100D02*
X234569000Y-127800100D01*
X227711000Y-137833100D02*
X222885000Y-137833100D01*
X222885000Y-136690100D02*
X227584000Y-136690100D01*
X222885000Y-137833100D02*
X222885000Y-136690100D01*
X222885000Y-128943100D02*
X227584000Y-128943100D01*
X222885000Y-127800100D02*
X222885000Y-128943100D01*
X227584000Y-127800100D02*
X222885000Y-127800100D01*
X231013000Y-134658100D02*
X234569000Y-134658100D01*
X231013000Y-135928100D02*
X231013000Y-134658100D01*
X234569000Y-135928100D02*
X231013000Y-135928100D01*
X231013000Y-129705100D02*
X234569000Y-129705100D01*
X231013000Y-130975100D02*
X231013000Y-129705100D01*
X234569000Y-130975100D02*
X231013000Y-130975100D01*
X227584000Y-137833100D02*
X226695000Y-137833100D01*
X226695000Y-135293100D02*
X227584000Y-135293100D01*
X227584000Y-132880100D02*
X226695000Y-132880100D01*
X227457000Y-130340100D02*
X226695000Y-130340100D01*
X227584000Y-127800100D02*
X226695000Y-127800100D01*
X227584000Y-137795000D02*
X227584000Y-127889000D01*
X234569000Y-137795000D02*
X234569000Y-127889000D01*
X205740000Y-121131000D02*
X206629000Y-121131000D01*
X205740000Y-123671000D02*
X206629000Y-123671000D01*
X205740000Y-126084000D02*
X206629000Y-126084000D01*
X205740000Y-128624000D02*
X206629000Y-128624000D01*
X205740000Y-131037000D02*
X206629000Y-131037000D01*
X205740000Y-133704000D02*
X206629000Y-133704000D01*
X202184000Y-121766000D02*
X198755000Y-121766000D01*
X202184000Y-120623000D02*
X202184000Y-121766000D01*
X202311000Y-134339000D02*
X198755000Y-134339000D01*
X202311000Y-133069000D02*
X202311000Y-134339000D01*
X198755000Y-133069000D02*
X202311000Y-133069000D01*
X205740000Y-118591000D02*
X198755000Y-118591000D01*
X205740000Y-136117000D02*
X198755000Y-136117000D01*
X202184000Y-120623000D02*
X198755000Y-120623000D01*
X198755000Y-118591000D02*
X198755000Y-136117000D01*
X205740000Y-118591000D02*
X205740000Y-136117000D01*
X210439000Y-119861000D02*
X205740000Y-119861000D01*
X210439000Y-119607000D02*
X210439000Y-119861000D01*
X210439000Y-118591000D02*
X210439000Y-119607000D01*
X205740000Y-118591000D02*
X210439000Y-118591000D01*
X210439000Y-134847000D02*
X205740000Y-134847000D01*
X210439000Y-136117000D02*
X210439000Y-134847000D01*
X205740000Y-136117000D02*
X210439000Y-136117000D01*
X75184000Y-113347500D02*
X79883000Y-113347500D01*
X79883000Y-113347500D02*
X79883000Y-112077500D01*
X79883000Y-112077500D02*
X75184000Y-112077500D01*
X75184000Y-95821500D02*
X79883000Y-95821500D01*
X79883000Y-95821500D02*
X79883000Y-96837500D01*
X79883000Y-96837500D02*
X79883000Y-97091500D01*
X79883000Y-97091500D02*
X75184000Y-97091500D01*
X75184000Y-95821500D02*
X75184000Y-113347500D01*
X68199000Y-95821500D02*
X68199000Y-113347500D01*
X71628000Y-97853500D02*
X68199000Y-97853500D01*
X75184000Y-113347500D02*
X68199000Y-113347500D01*
X75184000Y-95821500D02*
X68199000Y-95821500D01*
X68199000Y-110299500D02*
X71755000Y-110299500D01*
X71755000Y-110299500D02*
X71755000Y-111569500D01*
X71755000Y-111569500D02*
X68199000Y-111569500D01*
X71628000Y-97853500D02*
X71628000Y-98996500D01*
X71628000Y-98996500D02*
X68199000Y-98996500D01*
X75184000Y-110934500D02*
X76073000Y-110934500D01*
X75184000Y-108267500D02*
X76073000Y-108267500D01*
X75184000Y-105854500D02*
X76073000Y-105854500D01*
X75184000Y-103314500D02*
X76073000Y-103314500D01*
X75184000Y-100901500D02*
X76073000Y-100901500D01*
X75184000Y-98361500D02*
X76073000Y-98361500D01*
X234315000Y-112903000D02*
X234315000Y-102997000D01*
X227330000Y-112903000D02*
X227330000Y-102997000D01*
X227330000Y-102908100D02*
X226441000Y-102908100D01*
X227203000Y-105448100D02*
X226441000Y-105448100D01*
X227330000Y-107988100D02*
X226441000Y-107988100D01*
X226441000Y-110401100D02*
X227330000Y-110401100D01*
X227330000Y-112941100D02*
X226441000Y-112941100D01*
X234315000Y-106083100D02*
X230759000Y-106083100D01*
X230759000Y-106083100D02*
X230759000Y-104813100D01*
X230759000Y-104813100D02*
X234315000Y-104813100D01*
X234315000Y-111036100D02*
X230759000Y-111036100D01*
X230759000Y-111036100D02*
X230759000Y-109766100D01*
X230759000Y-109766100D02*
X234315000Y-109766100D01*
X227330000Y-102908100D02*
X222631000Y-102908100D01*
X222631000Y-102908100D02*
X222631000Y-104051100D01*
X222631000Y-104051100D02*
X227330000Y-104051100D01*
X222631000Y-112941100D02*
X222631000Y-111798100D01*
X222631000Y-111798100D02*
X227330000Y-111798100D01*
X227457000Y-112941100D02*
X222631000Y-112941100D01*
X227330000Y-102908100D02*
X234315000Y-102908100D01*
X234315000Y-112941100D02*
X227330000Y-112941100D01*
X220581000Y-76581000D02*
X210675000Y-76581000D01*
X220581000Y-83566000D02*
X210675000Y-83566000D01*
X210586100Y-83566000D02*
X210586100Y-84455000D01*
X213126100Y-83693000D02*
X213126100Y-84455000D01*
X215666100Y-83566000D02*
X215666100Y-84455000D01*
X218079100Y-84455000D02*
X218079100Y-83566000D01*
X220619100Y-83566000D02*
X220619100Y-84455000D01*
X213761100Y-76581000D02*
X213761100Y-80137000D01*
X213761100Y-80137000D02*
X212491100Y-80137000D01*
X212491100Y-80137000D02*
X212491100Y-76581000D01*
X218714100Y-76581000D02*
X218714100Y-80137000D01*
X218714100Y-80137000D02*
X217444100Y-80137000D01*
X217444100Y-80137000D02*
X217444100Y-76581000D01*
X210586100Y-83566000D02*
X210586100Y-88265000D01*
X210586100Y-88265000D02*
X211729100Y-88265000D01*
X211729100Y-88265000D02*
X211729100Y-83566000D01*
X220619100Y-88265000D02*
X219476100Y-88265000D01*
X219476100Y-88265000D02*
X219476100Y-83566000D01*
X220619100Y-83439000D02*
X220619100Y-88265000D01*
X210586100Y-83566000D02*
X210586100Y-76581000D01*
X220619100Y-76581000D02*
X220619100Y-83566000D01*
X226314000Y-81026000D02*
X226314000Y-101346000D01*
X233934000Y-81026000D02*
X233934000Y-101346000D01*
X227584000Y-101346000D02*
X227584000Y-81026000D01*
X226314000Y-101346000D02*
X233934000Y-101346000D01*
X233934000Y-81026000D02*
X226314000Y-81026000D01*
X214630000Y-134112000D02*
X219710000Y-134112000D01*
X219710000Y-134112000D02*
X219710000Y-136652000D01*
X219710000Y-136652000D02*
X214630000Y-136652000D01*
X214630000Y-136652000D02*
X214630000Y-134112000D01*
X179578000Y-114874000D02*
X179578000Y-115984000D01*
X179578000Y-132334000D02*
X179578000Y-131224000D01*
X182118000Y-131224000D02*
X182118000Y-115984000D01*
X179578000Y-131224000D02*
X182118000Y-131224000D01*
X177038000Y-131224000D02*
X179578000Y-131224000D01*
X177038000Y-115984000D02*
X177038000Y-131224000D01*
X182118000Y-115984000D02*
X177038000Y-115984000D01*
X214630000Y-134112000D02*
X214630000Y-131572000D01*
X219710000Y-134112000D02*
X214630000Y-134112000D01*
X219710000Y-131572000D02*
X219710000Y-134112000D01*
X214630000Y-131572000D02*
X219710000Y-131572000D01*
X172974000Y-114874000D02*
X172974000Y-115984000D01*
X172974000Y-132334000D02*
X172974000Y-131224000D01*
X175514000Y-131224000D02*
X175514000Y-115984000D01*
X172974000Y-131224000D02*
X175514000Y-131224000D01*
X170434000Y-131224000D02*
X172974000Y-131224000D01*
X170434000Y-115984000D02*
X170434000Y-131224000D01*
X175514000Y-115984000D02*
X170434000Y-115984000D01*
X214630000Y-128016000D02*
X219710000Y-128016000D01*
X219710000Y-128016000D02*
X219710000Y-130556000D01*
X219710000Y-130556000D02*
X214630000Y-130556000D01*
X214630000Y-130556000D02*
X214630000Y-128016000D01*
X214630000Y-126746000D02*
X214630000Y-124206000D01*
X219710000Y-126746000D02*
X214630000Y-126746000D01*
X219710000Y-124206000D02*
X219710000Y-126746000D01*
X214630000Y-124206000D02*
X219710000Y-124206000D01*
X162306000Y-115984000D02*
X157226000Y-115984000D01*
X157226000Y-115984000D02*
X157226000Y-131224000D01*
X157226000Y-131224000D02*
X159766000Y-131224000D01*
X159766000Y-131224000D02*
X162306000Y-131224000D01*
X162306000Y-131224000D02*
X162306000Y-115984000D01*
X159766000Y-132334000D02*
X159766000Y-131224000D01*
X159766000Y-114874000D02*
X159766000Y-115984000D01*
X214630000Y-116078000D02*
X219710000Y-116078000D01*
X219710000Y-116078000D02*
X219710000Y-118618000D01*
X219710000Y-118618000D02*
X214630000Y-118618000D01*
X214630000Y-118618000D02*
X214630000Y-116078000D01*
X153162000Y-114874000D02*
X153162000Y-115984000D01*
X153162000Y-132334000D02*
X153162000Y-131224000D01*
X155702000Y-131224000D02*
X155702000Y-115984000D01*
X153162000Y-131224000D02*
X155702000Y-131224000D01*
X150622000Y-131224000D02*
X153162000Y-131224000D01*
X150622000Y-115984000D02*
X150622000Y-131224000D01*
X155702000Y-115984000D02*
X150622000Y-115984000D01*
X211836000Y-90424000D02*
X211836000Y-87884000D01*
X216916000Y-90424000D02*
X211836000Y-90424000D01*
X216916000Y-87884000D02*
X216916000Y-90424000D01*
X211836000Y-87884000D02*
X216916000Y-87884000D01*
X214630000Y-116078000D02*
X214630000Y-113538000D01*
X219710000Y-116078000D02*
X214630000Y-116078000D01*
X219710000Y-113538000D02*
X219710000Y-116078000D01*
X214630000Y-113538000D02*
X219710000Y-113538000D01*
X149098000Y-115984000D02*
X144018000Y-115984000D01*
X144018000Y-115984000D02*
X144018000Y-131224000D01*
X144018000Y-131224000D02*
X146558000Y-131224000D01*
X146558000Y-131224000D02*
X149098000Y-131224000D01*
X149098000Y-131224000D02*
X149098000Y-115984000D01*
X146558000Y-132334000D02*
X146558000Y-131224000D01*
X146558000Y-114874000D02*
X146558000Y-115984000D01*
X168907500Y-137546000D02*
G75*
G03X168907500Y-137546000I-2537500J0D01*
G01*
X167270000Y-138796000D02*
G75*
G03X167270000Y-138796000I-900000J0D01*
G01*
X166842000Y-140001000D02*
X165898000Y-140001000D01*
X167314000Y-139861000D02*
X165426000Y-139861000D01*
X167603000Y-139721000D02*
X165137000Y-139721000D01*
X165930000Y-139581000D02*
X164918000Y-139581000D01*
X167822000Y-139581000D02*
X166810000Y-139581000D01*
X165742000Y-139441000D02*
X164739000Y-139441000D01*
X168001000Y-139441000D02*
X166998000Y-139441000D01*
X165625000Y-139301000D02*
X164590000Y-139301000D01*
X168150000Y-139301000D02*
X167115000Y-139301000D01*
X165547000Y-139161000D02*
X164462000Y-139161000D01*
X168278000Y-139161000D02*
X167193000Y-139161000D01*
X165499000Y-139021000D02*
X164351000Y-139021000D01*
X168389000Y-139021000D02*
X167241000Y-139021000D01*
X165474000Y-138881000D02*
X164256000Y-138881000D01*
X168484000Y-138881000D02*
X167266000Y-138881000D01*
X165472000Y-138741000D02*
X164174000Y-138741000D01*
X168566000Y-138741000D02*
X167268000Y-138741000D01*
X165491000Y-138601000D02*
X164104000Y-138601000D01*
X168636000Y-138601000D02*
X167249000Y-138601000D01*
X165535000Y-138461000D02*
X164043000Y-138461000D01*
X168697000Y-138461000D02*
X167205000Y-138461000D01*
X165606000Y-138321000D02*
X163993000Y-138321000D01*
X168747000Y-138321000D02*
X167134000Y-138321000D01*
X165713000Y-138181000D02*
X163952000Y-138181000D01*
X168788000Y-138181000D02*
X167027000Y-138181000D01*
X165880000Y-138041000D02*
X163919000Y-138041000D01*
X168821000Y-138041000D02*
X166860000Y-138041000D01*
X166275000Y-137901000D02*
X163895000Y-137901000D01*
X168845000Y-137901000D02*
X166465000Y-137901000D01*
X168861000Y-137761000D02*
X163879000Y-137761000D01*
X168869000Y-137621000D02*
X163871000Y-137621000D01*
X155699500Y-137546000D02*
G75*
G03X155699500Y-137546000I-2537500J0D01*
G01*
X154062000Y-138796000D02*
G75*
G03X154062000Y-138796000I-900000J0D01*
G01*
X153634000Y-140001000D02*
X152690000Y-140001000D01*
X154106000Y-139861000D02*
X152218000Y-139861000D01*
X154395000Y-139721000D02*
X151929000Y-139721000D01*
X152722000Y-139581000D02*
X151710000Y-139581000D01*
X154614000Y-139581000D02*
X153602000Y-139581000D01*
X152534000Y-139441000D02*
X151531000Y-139441000D01*
X154793000Y-139441000D02*
X153790000Y-139441000D01*
X152417000Y-139301000D02*
X151382000Y-139301000D01*
X154942000Y-139301000D02*
X153907000Y-139301000D01*
X152339000Y-139161000D02*
X151254000Y-139161000D01*
X155070000Y-139161000D02*
X153985000Y-139161000D01*
X152291000Y-139021000D02*
X151143000Y-139021000D01*
X155181000Y-139021000D02*
X154033000Y-139021000D01*
X152266000Y-138881000D02*
X151048000Y-138881000D01*
X155276000Y-138881000D02*
X154058000Y-138881000D01*
X152264000Y-138741000D02*
X150966000Y-138741000D01*
X155358000Y-138741000D02*
X154060000Y-138741000D01*
X152283000Y-138601000D02*
X150896000Y-138601000D01*
X155428000Y-138601000D02*
X154041000Y-138601000D01*
X152327000Y-138461000D02*
X150835000Y-138461000D01*
X155489000Y-138461000D02*
X153997000Y-138461000D01*
X152398000Y-138321000D02*
X150785000Y-138321000D01*
X155539000Y-138321000D02*
X153926000Y-138321000D01*
X152505000Y-138181000D02*
X150744000Y-138181000D01*
X155580000Y-138181000D02*
X153819000Y-138181000D01*
X152672000Y-138041000D02*
X150711000Y-138041000D01*
X155613000Y-138041000D02*
X153652000Y-138041000D01*
X153067000Y-137901000D02*
X150687000Y-137901000D01*
X155637000Y-137901000D02*
X153257000Y-137901000D01*
X155653000Y-137761000D02*
X150671000Y-137761000D01*
X155661000Y-137621000D02*
X150663000Y-137621000D01*
X149057000Y-137621000D02*
X144059000Y-137621000D01*
X149049000Y-137761000D02*
X144067000Y-137761000D01*
X149033000Y-137901000D02*
X146653000Y-137901000D01*
X146463000Y-137901000D02*
X144083000Y-137901000D01*
X149009000Y-138041000D02*
X147048000Y-138041000D01*
X146068000Y-138041000D02*
X144107000Y-138041000D01*
X148976000Y-138181000D02*
X147215000Y-138181000D01*
X145901000Y-138181000D02*
X144140000Y-138181000D01*
X148935000Y-138321000D02*
X147322000Y-138321000D01*
X145794000Y-138321000D02*
X144181000Y-138321000D01*
X148885000Y-138461000D02*
X147393000Y-138461000D01*
X145723000Y-138461000D02*
X144231000Y-138461000D01*
X148824000Y-138601000D02*
X147437000Y-138601000D01*
X145679000Y-138601000D02*
X144292000Y-138601000D01*
X148754000Y-138741000D02*
X147456000Y-138741000D01*
X145660000Y-138741000D02*
X144362000Y-138741000D01*
X148672000Y-138881000D02*
X147454000Y-138881000D01*
X145662000Y-138881000D02*
X144444000Y-138881000D01*
X148577000Y-139021000D02*
X147429000Y-139021000D01*
X145687000Y-139021000D02*
X144539000Y-139021000D01*
X148466000Y-139161000D02*
X147381000Y-139161000D01*
X145735000Y-139161000D02*
X144650000Y-139161000D01*
X148338000Y-139301000D02*
X147303000Y-139301000D01*
X145813000Y-139301000D02*
X144778000Y-139301000D01*
X148189000Y-139441000D02*
X147186000Y-139441000D01*
X145930000Y-139441000D02*
X144927000Y-139441000D01*
X148010000Y-139581000D02*
X146998000Y-139581000D01*
X146118000Y-139581000D02*
X145106000Y-139581000D01*
X147791000Y-139721000D02*
X145325000Y-139721000D01*
X147502000Y-139861000D02*
X145614000Y-139861000D01*
X147030000Y-140001000D02*
X146086000Y-140001000D01*
X147458000Y-138796000D02*
G75*
G03X147458000Y-138796000I-900000J0D01*
G01*
X149095500Y-137546000D02*
G75*
G03X149095500Y-137546000I-2537500J0D01*
G01*
D10*
X71433000Y-143510000D02*
G75*
G03X71433000Y-143510000I-1075000J0D01*
G01*
X102929000Y-86614000D02*
G75*
G03X102929000Y-86614000I-1075000J0D01*
G01*
X233993000Y-143510000D02*
G75*
G03X233993000Y-143510000I-1075000J0D01*
G01*
X233993000Y-75946000D02*
G75*
G03X233993000Y-75946000I-1075000J0D01*
G01*
X167345000Y-113604000D02*
G75*
G03X167345000Y-113604000I-975000J0D01*
G01*
X167345000Y-133604000D02*
G75*
G03X167345000Y-133604000I-975000J0D01*
G01*
X173599000Y-139446000D02*
G75*
G03X173599000Y-139446000I-625000J0D01*
G01*
X180203000Y-139441000D02*
G75*
G03X180203000Y-139441000I-625000J0D01*
G01*
X160391000Y-139446000D02*
G75*
G03X160391000Y-139446000I-625000J0D01*
G01*
X178521000Y-92202000D02*
G75*
G03X178521000Y-92202000I-975000J0D01*
G01*
X186141000Y-92202000D02*
G75*
G03X186141000Y-92202000I-975000J0D01*
G01*
X84563000Y-85852000D02*
G75*
G03X84563000Y-85852000I-975000J0D01*
G01*
X82063000Y-85852000D02*
G75*
G03X82063000Y-85852000I-975000J0D01*
G01*
X121117000Y-91948000D02*
G75*
G03X121117000Y-91948000I-975000J0D01*
G01*
X113497000Y-91948000D02*
G75*
G03X113497000Y-91948000I-975000J0D01*
G01*
X140603000Y-85852000D02*
G75*
G03X140603000Y-85852000I-975000J0D01*
G01*
X138103000Y-85852000D02*
G75*
G03X138103000Y-85852000I-975000J0D01*
G01*
X118563000Y-85852000D02*
G75*
G03X118563000Y-85852000I-975000J0D01*
G01*
X116063000Y-85852000D02*
G75*
G03X116063000Y-85852000I-975000J0D01*
G01*
X135595000Y-91948000D02*
G75*
G03X135595000Y-91948000I-975000J0D01*
G01*
X143215000Y-91948000D02*
G75*
G03X143215000Y-91948000I-975000J0D01*
G01*
X73406000Y-87605000D02*
X73406000Y-87605000D01*
X73406000Y-85623000D02*
X73406000Y-85623000D01*
X73406000Y-87605000D02*
G75*
G03X73406000Y-85623000I0J991000D01*
G01*
X73406000Y-85623000D02*
G75*
G03X73406000Y-87605000I0J-991000D01*
G01*
X79461000Y-91694000D02*
G75*
G03X79461000Y-91694000I-975000J0D01*
G01*
X87081000Y-91694000D02*
G75*
G03X87081000Y-91694000I-975000J0D01*
G01*
X165059000Y-92710000D02*
G75*
G03X165059000Y-92710000I-975000J0D01*
G01*
X157439000Y-92710000D02*
G75*
G03X157439000Y-92710000I-975000J0D01*
G01*
X162603000Y-85852000D02*
G75*
G03X162603000Y-85852000I-975000J0D01*
G01*
X160103000Y-85852000D02*
G75*
G03X160103000Y-85852000I-975000J0D01*
G01*
X181063000Y-85852000D02*
G75*
G03X181063000Y-85852000I-975000J0D01*
G01*
X183563000Y-85852000D02*
G75*
G03X183563000Y-85852000I-975000J0D01*
G01*
X226273000Y-117896000D02*
G75*
G03X226273000Y-117896000I-975000J0D01*
G01*
X226273000Y-120396000D02*
G75*
G03X226273000Y-120396000I-975000J0D01*
G01*
X226273000Y-130342000D02*
G75*
G03X226273000Y-130342000I-975000J0D01*
G01*
X226273000Y-132842000D02*
G75*
G03X226273000Y-132842000I-975000J0D01*
G01*
X209001000Y-133604000D02*
G75*
G03X209001000Y-133604000I-975000J0D01*
G01*
X209001000Y-131104000D02*
G75*
G03X209001000Y-131104000I-975000J0D01*
G01*
X209001000Y-128604000D02*
G75*
G03X209001000Y-128604000I-975000J0D01*
G01*
X209001000Y-126104000D02*
G75*
G03X209001000Y-126104000I-975000J0D01*
G01*
X209001000Y-123604000D02*
G75*
G03X209001000Y-123604000I-975000J0D01*
G01*
X78445000Y-100834500D02*
G75*
G03X78445000Y-100834500I-975000J0D01*
G01*
X78445000Y-103334500D02*
G75*
G03X78445000Y-103334500I-975000J0D01*
G01*
X78445000Y-105834500D02*
G75*
G03X78445000Y-105834500I-975000J0D01*
G01*
X78445000Y-108334500D02*
G75*
G03X78445000Y-108334500I-975000J0D01*
G01*
X78445000Y-110834500D02*
G75*
G03X78445000Y-110834500I-975000J0D01*
G01*
X226019000Y-107950000D02*
G75*
G03X226019000Y-107950000I-975000J0D01*
G01*
X226019000Y-105450000D02*
G75*
G03X226019000Y-105450000I-975000J0D01*
G01*
X216603000Y-85852000D02*
G75*
G03X216603000Y-85852000I-975000J0D01*
G01*
X214103000Y-85852000D02*
G75*
G03X214103000Y-85852000I-975000J0D01*
G01*
X232004000Y-98806000D02*
G75*
G03X232004000Y-98806000I-1880000J0D01*
G01*
X232004000Y-93726000D02*
G75*
G03X232004000Y-93726000I-1880000J0D01*
G01*
X232004000Y-88646000D02*
G75*
G03X232004000Y-88646000I-1880000J0D01*
G01*
X214335000Y-135382000D02*
G75*
G03X214335000Y-135382000I-975000J0D01*
G01*
X221955000Y-135382000D02*
G75*
G03X221955000Y-135382000I-975000J0D01*
G01*
X180553000Y-133604000D02*
G75*
G03X180553000Y-133604000I-975000J0D01*
G01*
X180553000Y-113604000D02*
G75*
G03X180553000Y-113604000I-975000J0D01*
G01*
X221955000Y-132842000D02*
G75*
G03X221955000Y-132842000I-975000J0D01*
G01*
X214335000Y-132842000D02*
G75*
G03X214335000Y-132842000I-975000J0D01*
G01*
X173949000Y-133604000D02*
G75*
G03X173949000Y-133604000I-975000J0D01*
G01*
X173949000Y-113604000D02*
G75*
G03X173949000Y-113604000I-975000J0D01*
G01*
X214335000Y-129286000D02*
G75*
G03X214335000Y-129286000I-975000J0D01*
G01*
X221955000Y-129286000D02*
G75*
G03X221955000Y-129286000I-975000J0D01*
G01*
X221955000Y-125476000D02*
G75*
G03X221955000Y-125476000I-975000J0D01*
G01*
X214335000Y-125476000D02*
G75*
G03X214335000Y-125476000I-975000J0D01*
G01*
X160741000Y-113604000D02*
G75*
G03X160741000Y-113604000I-975000J0D01*
G01*
X160741000Y-133604000D02*
G75*
G03X160741000Y-133604000I-975000J0D01*
G01*
X214335000Y-117348000D02*
G75*
G03X214335000Y-117348000I-975000J0D01*
G01*
X221955000Y-117348000D02*
G75*
G03X221955000Y-117348000I-975000J0D01*
G01*
X154137000Y-133604000D02*
G75*
G03X154137000Y-133604000I-975000J0D01*
G01*
X154137000Y-113604000D02*
G75*
G03X154137000Y-113604000I-975000J0D01*
G01*
X219161000Y-89154000D02*
G75*
G03X219161000Y-89154000I-975000J0D01*
G01*
X211541000Y-89154000D02*
G75*
G03X211541000Y-89154000I-975000J0D01*
G01*
X221955000Y-114808000D02*
G75*
G03X221955000Y-114808000I-975000J0D01*
G01*
X214335000Y-114808000D02*
G75*
G03X214335000Y-114808000I-975000J0D01*
G01*
X147533000Y-113604000D02*
G75*
G03X147533000Y-113604000I-975000J0D01*
G01*
X147533000Y-133604000D02*
G75*
G03X147533000Y-133604000I-975000J0D01*
G01*
X166995000Y-139446000D02*
G75*
G03X166995000Y-139446000I-625000J0D01*
G01*
X153787000Y-139446000D02*
G75*
G03X153787000Y-139446000I-625000J0D01*
G01*
X147183000Y-139446000D02*
G75*
G03X147183000Y-139446000I-625000J0D01*
G01*
D11*
X166203333Y-117800380D02*
X165870000Y-117324190D01*
X165631904Y-117800380D02*
X165631904Y-116800380D01*
X166012857Y-116800380D01*
X166108095Y-116848000D01*
X166155714Y-116895619D01*
X166203333Y-116990857D01*
X166203333Y-117133714D01*
X166155714Y-117228952D01*
X166108095Y-117276571D01*
X166012857Y-117324190D01*
X165631904Y-117324190D01*
X166774761Y-117228952D02*
X166679523Y-117181333D01*
X166631904Y-117133714D01*
X166584285Y-117038476D01*
X166584285Y-116990857D01*
X166631904Y-116895619D01*
X166679523Y-116848000D01*
X166774761Y-116800380D01*
X166965238Y-116800380D01*
X167060476Y-116848000D01*
X167108095Y-116895619D01*
X167155714Y-116990857D01*
X167155714Y-117038476D01*
X167108095Y-117133714D01*
X167060476Y-117181333D01*
X166965238Y-117228952D01*
X166774761Y-117228952D01*
X166679523Y-117276571D01*
X166631904Y-117324190D01*
X166584285Y-117419428D01*
X166584285Y-117609904D01*
X166631904Y-117705142D01*
X166679523Y-117752761D01*
X166774761Y-117800380D01*
X166965238Y-117800380D01*
X167060476Y-117752761D01*
X167108095Y-117705142D01*
X167155714Y-117609904D01*
X167155714Y-117419428D01*
X167108095Y-117324190D01*
X167060476Y-117276571D01*
X166965238Y-117228952D01*
X172807333Y-137263142D02*
X172759714Y-137310761D01*
X172616857Y-137358380D01*
X172521619Y-137358380D01*
X172378761Y-137310761D01*
X172283523Y-137215523D01*
X172235904Y-137120285D01*
X172188285Y-136929809D01*
X172188285Y-136786952D01*
X172235904Y-136596476D01*
X172283523Y-136501238D01*
X172378761Y-136406000D01*
X172521619Y-136358380D01*
X172616857Y-136358380D01*
X172759714Y-136406000D01*
X172807333Y-136453619D01*
X173188285Y-136453619D02*
X173235904Y-136406000D01*
X173331142Y-136358380D01*
X173569238Y-136358380D01*
X173664476Y-136406000D01*
X173712095Y-136453619D01*
X173759714Y-136548857D01*
X173759714Y-136644095D01*
X173712095Y-136786952D01*
X173140666Y-137358380D01*
X173759714Y-137358380D01*
X179371333Y-137258142D02*
X179323714Y-137305761D01*
X179180857Y-137353380D01*
X179085619Y-137353380D01*
X178942761Y-137305761D01*
X178847523Y-137210523D01*
X178799904Y-137115285D01*
X178752285Y-136924809D01*
X178752285Y-136781952D01*
X178799904Y-136591476D01*
X178847523Y-136496238D01*
X178942761Y-136401000D01*
X179085619Y-136353380D01*
X179180857Y-136353380D01*
X179323714Y-136401000D01*
X179371333Y-136448619D01*
X180323714Y-137353380D02*
X179752285Y-137353380D01*
X180038000Y-137353380D02*
X180038000Y-136353380D01*
X179942761Y-136496238D01*
X179847523Y-136591476D01*
X179752285Y-136639095D01*
X159599333Y-137263142D02*
X159551714Y-137310761D01*
X159408857Y-137358380D01*
X159313619Y-137358380D01*
X159170761Y-137310761D01*
X159075523Y-137215523D01*
X159027904Y-137120285D01*
X158980285Y-136929809D01*
X158980285Y-136786952D01*
X159027904Y-136596476D01*
X159075523Y-136501238D01*
X159170761Y-136406000D01*
X159313619Y-136358380D01*
X159408857Y-136358380D01*
X159551714Y-136406000D01*
X159599333Y-136453619D01*
X160456476Y-136691714D02*
X160456476Y-137358380D01*
X160218380Y-136310761D02*
X159980285Y-137025047D01*
X160599333Y-137025047D01*
X180967142Y-92654380D02*
X180633809Y-92178190D01*
X180395714Y-92654380D02*
X180395714Y-91654380D01*
X180776666Y-91654380D01*
X180871904Y-91702000D01*
X180919523Y-91749619D01*
X180967142Y-91844857D01*
X180967142Y-91987714D01*
X180919523Y-92082952D01*
X180871904Y-92130571D01*
X180776666Y-92178190D01*
X180395714Y-92178190D01*
X181919523Y-92654380D02*
X181348095Y-92654380D01*
X181633809Y-92654380D02*
X181633809Y-91654380D01*
X181538571Y-91797238D01*
X181443333Y-91892476D01*
X181348095Y-91940095D01*
X182252857Y-91654380D02*
X182871904Y-91654380D01*
X182538571Y-92035333D01*
X182681428Y-92035333D01*
X182776666Y-92082952D01*
X182824285Y-92130571D01*
X182871904Y-92225809D01*
X182871904Y-92463904D01*
X182824285Y-92559142D01*
X182776666Y-92606761D01*
X182681428Y-92654380D01*
X182395714Y-92654380D01*
X182300476Y-92606761D01*
X182252857Y-92559142D01*
X82827904Y-81732380D02*
X82827904Y-80732380D01*
X83208857Y-80732380D01*
X83304095Y-80780000D01*
X83351714Y-80827619D01*
X83399333Y-80922857D01*
X83399333Y-81065714D01*
X83351714Y-81160952D01*
X83304095Y-81208571D01*
X83208857Y-81256190D01*
X82827904Y-81256190D01*
X84351714Y-81732380D02*
X83780285Y-81732380D01*
X84066000Y-81732380D02*
X84066000Y-80732380D01*
X83970761Y-80875238D01*
X83875523Y-80970476D01*
X83780285Y-81018095D01*
X116414253Y-92400380D02*
X116080920Y-91924190D01*
X115842824Y-92400380D02*
X115842824Y-91400380D01*
X116223777Y-91400380D01*
X116319015Y-91448000D01*
X116366634Y-91495619D01*
X116414253Y-91590857D01*
X116414253Y-91733714D01*
X116366634Y-91828952D01*
X116319015Y-91876571D01*
X116223777Y-91924190D01*
X115842824Y-91924190D01*
X117271396Y-91400380D02*
X117080920Y-91400380D01*
X116985681Y-91448000D01*
X116938062Y-91495619D01*
X116842824Y-91638476D01*
X116795205Y-91828952D01*
X116795205Y-92209904D01*
X116842824Y-92305142D01*
X116890443Y-92352761D01*
X116985681Y-92400380D01*
X117176158Y-92400380D01*
X117271396Y-92352761D01*
X117319015Y-92305142D01*
X117366634Y-92209904D01*
X117366634Y-91971809D01*
X117319015Y-91876571D01*
X117271396Y-91828952D01*
X117176158Y-91781333D01*
X116985681Y-91781333D01*
X116890443Y-91828952D01*
X116842824Y-91876571D01*
X116795205Y-91971809D01*
X139215904Y-81732380D02*
X139215904Y-80732380D01*
X139596857Y-80732380D01*
X139692095Y-80780000D01*
X139739714Y-80827619D01*
X139787333Y-80922857D01*
X139787333Y-81065714D01*
X139739714Y-81160952D01*
X139692095Y-81208571D01*
X139596857Y-81256190D01*
X139215904Y-81256190D01*
X140644476Y-81065714D02*
X140644476Y-81732380D01*
X140406380Y-80684761D02*
X140168285Y-81399047D01*
X140787333Y-81399047D01*
X117117904Y-81986380D02*
X117117904Y-80986380D01*
X117498857Y-80986380D01*
X117594095Y-81034000D01*
X117641714Y-81081619D01*
X117689333Y-81176857D01*
X117689333Y-81319714D01*
X117641714Y-81414952D01*
X117594095Y-81462571D01*
X117498857Y-81510190D01*
X117117904Y-81510190D01*
X118022666Y-80986380D02*
X118641714Y-80986380D01*
X118308380Y-81367333D01*
X118451238Y-81367333D01*
X118546476Y-81414952D01*
X118594095Y-81462571D01*
X118641714Y-81557809D01*
X118641714Y-81795904D01*
X118594095Y-81891142D01*
X118546476Y-81938761D01*
X118451238Y-81986380D01*
X118165523Y-81986380D01*
X118070285Y-81938761D01*
X118022666Y-81891142D01*
X138771333Y-92400380D02*
X138438000Y-91924190D01*
X138199904Y-92400380D02*
X138199904Y-91400380D01*
X138580857Y-91400380D01*
X138676095Y-91448000D01*
X138723714Y-91495619D01*
X138771333Y-91590857D01*
X138771333Y-91733714D01*
X138723714Y-91828952D01*
X138676095Y-91876571D01*
X138580857Y-91924190D01*
X138199904Y-91924190D01*
X139247523Y-92400380D02*
X139438000Y-92400380D01*
X139533238Y-92352761D01*
X139580857Y-92305142D01*
X139676095Y-92162285D01*
X139723714Y-91971809D01*
X139723714Y-91590857D01*
X139676095Y-91495619D01*
X139628476Y-91448000D01*
X139533238Y-91400380D01*
X139342761Y-91400380D01*
X139247523Y-91448000D01*
X139199904Y-91495619D01*
X139152285Y-91590857D01*
X139152285Y-91828952D01*
X139199904Y-91924190D01*
X139247523Y-91971809D01*
X139342761Y-92019428D01*
X139533238Y-92019428D01*
X139628476Y-91971809D01*
X139676095Y-91924190D01*
X139723714Y-91828952D01*
X70921714Y-84272380D02*
X70921714Y-83272380D01*
X71302666Y-83272380D01*
X71397904Y-83320000D01*
X71445523Y-83367619D01*
X71493142Y-83462857D01*
X71493142Y-83605714D01*
X71445523Y-83700952D01*
X71397904Y-83748571D01*
X71302666Y-83796190D01*
X70921714Y-83796190D01*
X72445523Y-84272380D02*
X71874095Y-84272380D01*
X72159809Y-84272380D02*
X72159809Y-83272380D01*
X72064571Y-83415238D01*
X71969333Y-83510476D01*
X71874095Y-83558095D01*
X72826476Y-83367619D02*
X72874095Y-83320000D01*
X72969333Y-83272380D01*
X73207428Y-83272380D01*
X73302666Y-83320000D01*
X73350285Y-83367619D01*
X73397904Y-83462857D01*
X73397904Y-83558095D01*
X73350285Y-83700952D01*
X72778857Y-84272380D01*
X73397904Y-84272380D01*
X82129333Y-92146380D02*
X81796000Y-91670190D01*
X81557904Y-92146380D02*
X81557904Y-91146380D01*
X81938857Y-91146380D01*
X82034095Y-91194000D01*
X82081714Y-91241619D01*
X82129333Y-91336857D01*
X82129333Y-91479714D01*
X82081714Y-91574952D01*
X82034095Y-91622571D01*
X81938857Y-91670190D01*
X81557904Y-91670190D01*
X82462666Y-91146380D02*
X83081714Y-91146380D01*
X82748380Y-91527333D01*
X82891238Y-91527333D01*
X82986476Y-91574952D01*
X83034095Y-91622571D01*
X83081714Y-91717809D01*
X83081714Y-91955904D01*
X83034095Y-92051142D01*
X82986476Y-92098761D01*
X82891238Y-92146380D01*
X82605523Y-92146380D01*
X82510285Y-92098761D01*
X82462666Y-92051142D01*
X159880062Y-93162380D02*
X159546729Y-92686190D01*
X159308634Y-93162380D02*
X159308634Y-92162380D01*
X159689586Y-92162380D01*
X159784824Y-92210000D01*
X159832443Y-92257619D01*
X159880062Y-92352857D01*
X159880062Y-92495714D01*
X159832443Y-92590952D01*
X159784824Y-92638571D01*
X159689586Y-92686190D01*
X159308634Y-92686190D01*
X160832443Y-93162380D02*
X160261015Y-93162380D01*
X160546729Y-93162380D02*
X160546729Y-92162380D01*
X160451491Y-92305238D01*
X160356253Y-92400476D01*
X160261015Y-92448095D01*
X161784824Y-93162380D02*
X161213396Y-93162380D01*
X161499110Y-93162380D02*
X161499110Y-92162380D01*
X161403872Y-92305238D01*
X161308634Y-92400476D01*
X161213396Y-92448095D01*
X161059904Y-81732380D02*
X161059904Y-80732380D01*
X161440857Y-80732380D01*
X161536095Y-80780000D01*
X161583714Y-80827619D01*
X161631333Y-80922857D01*
X161631333Y-81065714D01*
X161583714Y-81160952D01*
X161536095Y-81208571D01*
X161440857Y-81256190D01*
X161059904Y-81256190D01*
X162202761Y-81160952D02*
X162107523Y-81113333D01*
X162059904Y-81065714D01*
X162012285Y-80970476D01*
X162012285Y-80922857D01*
X162059904Y-80827619D01*
X162107523Y-80780000D01*
X162202761Y-80732380D01*
X162393238Y-80732380D01*
X162488476Y-80780000D01*
X162536095Y-80827619D01*
X162583714Y-80922857D01*
X162583714Y-80970476D01*
X162536095Y-81065714D01*
X162488476Y-81113333D01*
X162393238Y-81160952D01*
X162202761Y-81160952D01*
X162107523Y-81208571D01*
X162059904Y-81256190D01*
X162012285Y-81351428D01*
X162012285Y-81541904D01*
X162059904Y-81637142D01*
X162107523Y-81684761D01*
X162202761Y-81732380D01*
X162393238Y-81732380D01*
X162488476Y-81684761D01*
X162536095Y-81637142D01*
X162583714Y-81541904D01*
X162583714Y-81351428D01*
X162536095Y-81256190D01*
X162488476Y-81208571D01*
X162393238Y-81160952D01*
X182141904Y-81732380D02*
X182141904Y-80732380D01*
X182522857Y-80732380D01*
X182618095Y-80780000D01*
X182665714Y-80827619D01*
X182713333Y-80922857D01*
X182713333Y-81065714D01*
X182665714Y-81160952D01*
X182618095Y-81208571D01*
X182522857Y-81256190D01*
X182141904Y-81256190D01*
X183189523Y-81732380D02*
X183380000Y-81732380D01*
X183475238Y-81684761D01*
X183522857Y-81637142D01*
X183618095Y-81494285D01*
X183665714Y-81303809D01*
X183665714Y-80922857D01*
X183618095Y-80827619D01*
X183570476Y-80780000D01*
X183475238Y-80732380D01*
X183284761Y-80732380D01*
X183189523Y-80780000D01*
X183141904Y-80827619D01*
X183094285Y-80922857D01*
X183094285Y-81160952D01*
X183141904Y-81256190D01*
X183189523Y-81303809D01*
X183284761Y-81351428D01*
X183475238Y-81351428D01*
X183570476Y-81303809D01*
X183618095Y-81256190D01*
X183665714Y-81160952D01*
X231084380Y-120880095D02*
X230084380Y-120880095D01*
X230084380Y-120499142D01*
X230132000Y-120403904D01*
X230179619Y-120356285D01*
X230274857Y-120308666D01*
X230417714Y-120308666D01*
X230512952Y-120356285D01*
X230560571Y-120403904D01*
X230608190Y-120499142D01*
X230608190Y-120880095D01*
X230084380Y-119975333D02*
X230084380Y-119308666D01*
X231084380Y-119737238D01*
X231084380Y-133326095D02*
X230084380Y-133326095D01*
X230084380Y-132945142D01*
X230132000Y-132849904D01*
X230179619Y-132802285D01*
X230274857Y-132754666D01*
X230417714Y-132754666D01*
X230512952Y-132802285D01*
X230560571Y-132849904D01*
X230608190Y-132945142D01*
X230608190Y-133326095D01*
X230179619Y-132373714D02*
X230132000Y-132326095D01*
X230084380Y-132230857D01*
X230084380Y-131992761D01*
X230132000Y-131897523D01*
X230179619Y-131849904D01*
X230274857Y-131802285D01*
X230370095Y-131802285D01*
X230512952Y-131849904D01*
X231084380Y-132421333D01*
X231084380Y-131802285D01*
X203398380Y-128219095D02*
X202398380Y-128219095D01*
X202398380Y-127838142D01*
X202446000Y-127742904D01*
X202493619Y-127695285D01*
X202588857Y-127647666D01*
X202731714Y-127647666D01*
X202826952Y-127695285D01*
X202874571Y-127742904D01*
X202922190Y-127838142D01*
X202922190Y-128219095D01*
X202398380Y-126742904D02*
X202398380Y-127219095D01*
X202874571Y-127266714D01*
X202826952Y-127219095D01*
X202779333Y-127123857D01*
X202779333Y-126885761D01*
X202826952Y-126790523D01*
X202874571Y-126742904D01*
X202969809Y-126695285D01*
X203207904Y-126695285D01*
X203303142Y-126742904D01*
X203350761Y-126790523D01*
X203398380Y-126885761D01*
X203398380Y-127123857D01*
X203350761Y-127219095D01*
X203303142Y-127266714D01*
X72842380Y-105640095D02*
X71842380Y-105640095D01*
X71842380Y-105259142D01*
X71890000Y-105163904D01*
X71937619Y-105116285D01*
X72032857Y-105068666D01*
X72175714Y-105068666D01*
X72270952Y-105116285D01*
X72318571Y-105163904D01*
X72366190Y-105259142D01*
X72366190Y-105640095D01*
X71842380Y-104211523D02*
X71842380Y-104402000D01*
X71890000Y-104497238D01*
X71937619Y-104544857D01*
X72080476Y-104640095D01*
X72270952Y-104687714D01*
X72651904Y-104687714D01*
X72747142Y-104640095D01*
X72794761Y-104592476D01*
X72842380Y-104497238D01*
X72842380Y-104306761D01*
X72794761Y-104211523D01*
X72747142Y-104163904D01*
X72651904Y-104116285D01*
X72413809Y-104116285D01*
X72318571Y-104163904D01*
X72270952Y-104211523D01*
X72223333Y-104306761D01*
X72223333Y-104497238D01*
X72270952Y-104592476D01*
X72318571Y-104640095D01*
X72413809Y-104687714D01*
X230830380Y-109164285D02*
X229830380Y-109164285D01*
X229830380Y-108783333D01*
X229878000Y-108688095D01*
X229925619Y-108640476D01*
X230020857Y-108592857D01*
X230163714Y-108592857D01*
X230258952Y-108640476D01*
X230306571Y-108688095D01*
X230354190Y-108783333D01*
X230354190Y-109164285D01*
X230830380Y-107640476D02*
X230830380Y-108211904D01*
X230830380Y-107926190D02*
X229830380Y-107926190D01*
X229973238Y-108021428D01*
X230068476Y-108116666D01*
X230116095Y-108211904D01*
X229830380Y-107021428D02*
X229830380Y-106926190D01*
X229878000Y-106830952D01*
X229925619Y-106783333D01*
X230020857Y-106735714D01*
X230211333Y-106688095D01*
X230449428Y-106688095D01*
X230639904Y-106735714D01*
X230735142Y-106783333D01*
X230782761Y-106830952D01*
X230830380Y-106926190D01*
X230830380Y-107021428D01*
X230782761Y-107116666D01*
X230735142Y-107164285D01*
X230639904Y-107211904D01*
X230449428Y-107259523D01*
X230211333Y-107259523D01*
X230020857Y-107211904D01*
X229925619Y-107164285D01*
X229878000Y-107116666D01*
X229830380Y-107021428D01*
X214177714Y-81478380D02*
X214177714Y-80478380D01*
X214558666Y-80478380D01*
X214653904Y-80526000D01*
X214701523Y-80573619D01*
X214749142Y-80668857D01*
X214749142Y-80811714D01*
X214701523Y-80906952D01*
X214653904Y-80954571D01*
X214558666Y-81002190D01*
X214177714Y-81002190D01*
X215701523Y-81478380D02*
X215130095Y-81478380D01*
X215415809Y-81478380D02*
X215415809Y-80478380D01*
X215320571Y-80621238D01*
X215225333Y-80716476D01*
X215130095Y-80764095D01*
X216653904Y-81478380D02*
X216082476Y-81478380D01*
X216368190Y-81478380D02*
X216368190Y-80478380D01*
X216272952Y-80621238D01*
X216177714Y-80716476D01*
X216082476Y-80764095D01*
X227274380Y-92400285D02*
X226274380Y-92400285D01*
X226274380Y-92019333D01*
X226322000Y-91924095D01*
X226369619Y-91876476D01*
X226464857Y-91828857D01*
X226607714Y-91828857D01*
X226702952Y-91876476D01*
X226750571Y-91924095D01*
X226798190Y-92019333D01*
X226798190Y-92400285D01*
X227274380Y-90876476D02*
X227274380Y-91447904D01*
X227274380Y-91162190D02*
X226274380Y-91162190D01*
X226417238Y-91257428D01*
X226512476Y-91352666D01*
X226560095Y-91447904D01*
X226274380Y-90543142D02*
X226274380Y-89924095D01*
X226655333Y-90257428D01*
X226655333Y-90114571D01*
X226702952Y-90019333D01*
X226750571Y-89971714D01*
X226845809Y-89924095D01*
X227083904Y-89924095D01*
X227179142Y-89971714D01*
X227226761Y-90019333D01*
X227274380Y-90114571D01*
X227274380Y-90400285D01*
X227226761Y-90495523D01*
X227179142Y-90543142D01*
X179411333Y-117866380D02*
X179078000Y-117390190D01*
X178839904Y-117866380D02*
X178839904Y-116866380D01*
X179220857Y-116866380D01*
X179316095Y-116914000D01*
X179363714Y-116961619D01*
X179411333Y-117056857D01*
X179411333Y-117199714D01*
X179363714Y-117294952D01*
X179316095Y-117342571D01*
X179220857Y-117390190D01*
X178839904Y-117390190D01*
X179792285Y-116961619D02*
X179839904Y-116914000D01*
X179935142Y-116866380D01*
X180173238Y-116866380D01*
X180268476Y-116914000D01*
X180316095Y-116961619D01*
X180363714Y-117056857D01*
X180363714Y-117152095D01*
X180316095Y-117294952D01*
X179744666Y-117866380D01*
X180363714Y-117866380D01*
X172807333Y-117800380D02*
X172474000Y-117324190D01*
X172235904Y-117800380D02*
X172235904Y-116800380D01*
X172616857Y-116800380D01*
X172712095Y-116848000D01*
X172759714Y-116895619D01*
X172807333Y-116990857D01*
X172807333Y-117133714D01*
X172759714Y-117228952D01*
X172712095Y-117276571D01*
X172616857Y-117324190D01*
X172235904Y-117324190D01*
X173712095Y-116800380D02*
X173235904Y-116800380D01*
X173188285Y-117276571D01*
X173235904Y-117228952D01*
X173331142Y-117181333D01*
X173569238Y-117181333D01*
X173664476Y-117228952D01*
X173712095Y-117276571D01*
X173759714Y-117371809D01*
X173759714Y-117609904D01*
X173712095Y-117705142D01*
X173664476Y-117752761D01*
X173569238Y-117800380D01*
X173331142Y-117800380D01*
X173235904Y-117752761D01*
X173188285Y-117705142D01*
X159123142Y-117800380D02*
X158789809Y-117324190D01*
X158551714Y-117800380D02*
X158551714Y-116800380D01*
X158932666Y-116800380D01*
X159027904Y-116848000D01*
X159075523Y-116895619D01*
X159123142Y-116990857D01*
X159123142Y-117133714D01*
X159075523Y-117228952D01*
X159027904Y-117276571D01*
X158932666Y-117324190D01*
X158551714Y-117324190D01*
X160075523Y-117800380D02*
X159504095Y-117800380D01*
X159789809Y-117800380D02*
X159789809Y-116800380D01*
X159694571Y-116943238D01*
X159599333Y-117038476D01*
X159504095Y-117086095D01*
X160456476Y-116895619D02*
X160504095Y-116848000D01*
X160599333Y-116800380D01*
X160837428Y-116800380D01*
X160932666Y-116848000D01*
X160980285Y-116895619D01*
X161027904Y-116990857D01*
X161027904Y-117086095D01*
X160980285Y-117228952D01*
X160408857Y-117800380D01*
X161027904Y-117800380D01*
X152519142Y-117800380D02*
X152185809Y-117324190D01*
X151947714Y-117800380D02*
X151947714Y-116800380D01*
X152328666Y-116800380D01*
X152423904Y-116848000D01*
X152471523Y-116895619D01*
X152519142Y-116990857D01*
X152519142Y-117133714D01*
X152471523Y-117228952D01*
X152423904Y-117276571D01*
X152328666Y-117324190D01*
X151947714Y-117324190D01*
X153471523Y-117800380D02*
X152900095Y-117800380D01*
X153185809Y-117800380D02*
X153185809Y-116800380D01*
X153090571Y-116943238D01*
X152995333Y-117038476D01*
X152900095Y-117086095D01*
X154376285Y-116800380D02*
X153900095Y-116800380D01*
X153852476Y-117276571D01*
X153900095Y-117228952D01*
X153995333Y-117181333D01*
X154233428Y-117181333D01*
X154328666Y-117228952D01*
X154376285Y-117276571D01*
X154423904Y-117371809D01*
X154423904Y-117609904D01*
X154376285Y-117705142D01*
X154328666Y-117752761D01*
X154233428Y-117800380D01*
X153995333Y-117800380D01*
X153900095Y-117752761D01*
X153852476Y-117705142D01*
X213733142Y-89606380D02*
X213399809Y-89130190D01*
X213161714Y-89606380D02*
X213161714Y-88606380D01*
X213542666Y-88606380D01*
X213637904Y-88654000D01*
X213685523Y-88701619D01*
X213733142Y-88796857D01*
X213733142Y-88939714D01*
X213685523Y-89034952D01*
X213637904Y-89082571D01*
X213542666Y-89130190D01*
X213161714Y-89130190D01*
X214685523Y-89606380D02*
X214114095Y-89606380D01*
X214399809Y-89606380D02*
X214399809Y-88606380D01*
X214304571Y-88749238D01*
X214209333Y-88844476D01*
X214114095Y-88892095D01*
X215542666Y-88606380D02*
X215352190Y-88606380D01*
X215256952Y-88654000D01*
X215209333Y-88701619D01*
X215114095Y-88844476D01*
X215066476Y-89034952D01*
X215066476Y-89415904D01*
X215114095Y-89511142D01*
X215161714Y-89558761D01*
X215256952Y-89606380D01*
X215447428Y-89606380D01*
X215542666Y-89558761D01*
X215590285Y-89511142D01*
X215637904Y-89415904D01*
X215637904Y-89177809D01*
X215590285Y-89082571D01*
X215542666Y-89034952D01*
X215447428Y-88987333D01*
X215256952Y-88987333D01*
X215161714Y-89034952D01*
X215114095Y-89082571D01*
X215066476Y-89177809D01*
X145915142Y-118054380D02*
X145581809Y-117578190D01*
X145343714Y-118054380D02*
X145343714Y-117054380D01*
X145724666Y-117054380D01*
X145819904Y-117102000D01*
X145867523Y-117149619D01*
X145915142Y-117244857D01*
X145915142Y-117387714D01*
X145867523Y-117482952D01*
X145819904Y-117530571D01*
X145724666Y-117578190D01*
X145343714Y-117578190D01*
X146867523Y-118054380D02*
X146296095Y-118054380D01*
X146581809Y-118054380D02*
X146581809Y-117054380D01*
X146486571Y-117197238D01*
X146391333Y-117292476D01*
X146296095Y-117340095D01*
X147438952Y-117482952D02*
X147343714Y-117435333D01*
X147296095Y-117387714D01*
X147248476Y-117292476D01*
X147248476Y-117244857D01*
X147296095Y-117149619D01*
X147343714Y-117102000D01*
X147438952Y-117054380D01*
X147629428Y-117054380D01*
X147724666Y-117102000D01*
X147772285Y-117149619D01*
X147819904Y-117244857D01*
X147819904Y-117292476D01*
X147772285Y-117387714D01*
X147724666Y-117435333D01*
X147629428Y-117482952D01*
X147438952Y-117482952D01*
X147343714Y-117530571D01*
X147296095Y-117578190D01*
X147248476Y-117673428D01*
X147248476Y-117863904D01*
X147296095Y-117959142D01*
X147343714Y-118006761D01*
X147438952Y-118054380D01*
X147629428Y-118054380D01*
X147724666Y-118006761D01*
X147772285Y-117959142D01*
X147819904Y-117863904D01*
X147819904Y-117673428D01*
X147772285Y-117578190D01*
X147724666Y-117530571D01*
X147629428Y-117482952D01*
X166203333Y-137263142D02*
X166155714Y-137310761D01*
X166012857Y-137358380D01*
X165917619Y-137358380D01*
X165774761Y-137310761D01*
X165679523Y-137215523D01*
X165631904Y-137120285D01*
X165584285Y-136929809D01*
X165584285Y-136786952D01*
X165631904Y-136596476D01*
X165679523Y-136501238D01*
X165774761Y-136406000D01*
X165917619Y-136358380D01*
X166012857Y-136358380D01*
X166155714Y-136406000D01*
X166203333Y-136453619D01*
X166536666Y-136358380D02*
X167155714Y-136358380D01*
X166822380Y-136739333D01*
X166965238Y-136739333D01*
X167060476Y-136786952D01*
X167108095Y-136834571D01*
X167155714Y-136929809D01*
X167155714Y-137167904D01*
X167108095Y-137263142D01*
X167060476Y-137310761D01*
X166965238Y-137358380D01*
X166679523Y-137358380D01*
X166584285Y-137310761D01*
X166536666Y-137263142D01*
X152995333Y-137263142D02*
X152947714Y-137310761D01*
X152804857Y-137358380D01*
X152709619Y-137358380D01*
X152566761Y-137310761D01*
X152471523Y-137215523D01*
X152423904Y-137120285D01*
X152376285Y-136929809D01*
X152376285Y-136786952D01*
X152423904Y-136596476D01*
X152471523Y-136501238D01*
X152566761Y-136406000D01*
X152709619Y-136358380D01*
X152804857Y-136358380D01*
X152947714Y-136406000D01*
X152995333Y-136453619D01*
X153900095Y-136358380D02*
X153423904Y-136358380D01*
X153376285Y-136834571D01*
X153423904Y-136786952D01*
X153519142Y-136739333D01*
X153757238Y-136739333D01*
X153852476Y-136786952D01*
X153900095Y-136834571D01*
X153947714Y-136929809D01*
X153947714Y-137167904D01*
X153900095Y-137263142D01*
X153852476Y-137310761D01*
X153757238Y-137358380D01*
X153519142Y-137358380D01*
X153423904Y-137310761D01*
X153376285Y-137263142D01*
X146391333Y-137263142D02*
X146343714Y-137310761D01*
X146200857Y-137358380D01*
X146105619Y-137358380D01*
X145962761Y-137310761D01*
X145867523Y-137215523D01*
X145819904Y-137120285D01*
X145772285Y-136929809D01*
X145772285Y-136786952D01*
X145819904Y-136596476D01*
X145867523Y-136501238D01*
X145962761Y-136406000D01*
X146105619Y-136358380D01*
X146200857Y-136358380D01*
X146343714Y-136406000D01*
X146391333Y-136453619D01*
X147248476Y-136358380D02*
X147058000Y-136358380D01*
X146962761Y-136406000D01*
X146915142Y-136453619D01*
X146819904Y-136596476D01*
X146772285Y-136786952D01*
X146772285Y-137167904D01*
X146819904Y-137263142D01*
X146867523Y-137310761D01*
X146962761Y-137358380D01*
X147153238Y-137358380D01*
X147248476Y-137310761D01*
X147296095Y-137263142D01*
X147343714Y-137167904D01*
X147343714Y-136929809D01*
X147296095Y-136834571D01*
X147248476Y-136786952D01*
X147153238Y-136739333D01*
X146962761Y-136739333D01*
X146867523Y-136786952D01*
X146819904Y-136834571D01*
X146772285Y-136929809D01*
M02*
