M48
;DRILL file {KiCad no-vcs-found-undefined} date Fri Oct 28 12:41:05 2016
;FORMAT={3:3/ absolute / metric / suppress leading zeros}
FMAT,2
METRIC,TZ
T1C0.700
T2C1.000
T3C1.100
%
G90
G05
M71
T1
X72009Y-90043
X72049Y-94615
X72049Y-100076
X74509Y-90043
X74549Y-94615
X74549Y-100076
X77343Y-89916
X77343Y-100076
X83566Y-90170
X86186Y-92710
X91186Y-78820
X91186Y-86360
X91186Y-90170
X91186Y-92710
X93726Y-78867
X93726Y-83867
X96266Y-78867
X96266Y-83867
X96266Y-92710
X96266Y-100584
X98806Y-78867
X98806Y-83867
X98806Y-92710
X98806Y-103124
X101346Y-78867
X101346Y-83867
X101346Y-92710
X101346Y-105664
X103886Y-78867
X103886Y-83867
X103886Y-92710
X103886Y-108204
X112522Y-90678
X120142Y-90678
X124460Y-78740
X124460Y-86360
X134620Y-90678
X142240Y-90678
X147066Y-78740
X147066Y-86614
X148082Y-113604
X148082Y-133604
X148082Y-135641
X148082Y-139446
X153670Y-113604
X153670Y-133604
X153670Y-135641
X153670Y-139446
X156718Y-90678
X159258Y-113604
X159258Y-133604
X159258Y-135641
X159258Y-139446
X164338Y-90678
X164846Y-113604
X164846Y-133604
X164846Y-135641
X164846Y-139446
X169672Y-78740
X169672Y-86360
X170434Y-113604
X170434Y-133604
X170434Y-135641
X170434Y-139446
X176022Y-113604
X176022Y-133604
X176022Y-135636
X176022Y-139441
X177546Y-90678
X185166Y-90678
X190246Y-78740
X190246Y-86360
X210566Y-90678
X210566Y-125984
X210566Y-128524
X210566Y-131064
X210566Y-133604
X212090Y-113284
X212090Y-120904
X214630Y-115824
X214630Y-123444
X218186Y-90678
X218186Y-125984
X218186Y-128524
X218186Y-131064
X218186Y-133604
X222758Y-93806
X222758Y-98806
T2
X74803Y-86487
X77343Y-86487
X81026Y-86416
X83566Y-86416
X86106Y-86416
X86360Y-104775
X86360Y-107315
X86360Y-109855
X86360Y-112395
X86360Y-114935
X86360Y-117475
X115062Y-86558
X117602Y-86558
X120142Y-86558
X137033Y-86487
X139573Y-86487
X142113Y-86487
X159131Y-86487
X161671Y-86487
X164211Y-86487
X180086Y-86487
X182626Y-86487
X185166Y-86487
X207772Y-120904
X207772Y-123444
X207772Y-125984
X207772Y-128524
X207772Y-131064
X207772Y-133604
X213106Y-86614
X215646Y-86614
X218186Y-86614
X225004Y-105410
X225004Y-107950
X225004Y-110490
X225044Y-117856
X225044Y-120396
X225044Y-122936
X225171Y-130302
X225171Y-132842
X225171Y-135382
T3
X230124Y-83566
X230124Y-88646
X230124Y-93726
X230124Y-98806
T0
M30
