G04 #@! TF.FileFunction,Legend,Top*
%FSLAX46Y46*%
G04 Gerber Fmt 4.6, Leading zero omitted, Abs format (unit mm)*
G04 Created by KiCad (PCBNEW no-vcs-found-undefined) date Mon Oct 24 12:18:55 2016*
%MOMM*%
%LPD*%
G01*
G04 APERTURE LIST*
%ADD10C,0.050000*%
%ADD11C,0.150000*%
G04 APERTURE END LIST*
D10*
D11*
X134207000Y-133899000D02*
X134207000Y-138897000D01*
X134347000Y-133907000D02*
X134347000Y-138889000D01*
X134487000Y-133923000D02*
X134487000Y-136303000D01*
X134487000Y-136493000D02*
X134487000Y-138873000D01*
X134627000Y-133947000D02*
X134627000Y-135908000D01*
X134627000Y-136888000D02*
X134627000Y-138849000D01*
X134767000Y-133980000D02*
X134767000Y-135741000D01*
X134767000Y-137055000D02*
X134767000Y-138816000D01*
X134907000Y-134021000D02*
X134907000Y-135634000D01*
X134907000Y-137162000D02*
X134907000Y-138775000D01*
X135047000Y-134071000D02*
X135047000Y-135563000D01*
X135047000Y-137233000D02*
X135047000Y-138725000D01*
X135187000Y-134132000D02*
X135187000Y-135519000D01*
X135187000Y-137277000D02*
X135187000Y-138664000D01*
X135327000Y-134202000D02*
X135327000Y-135500000D01*
X135327000Y-137296000D02*
X135327000Y-138594000D01*
X135467000Y-134284000D02*
X135467000Y-135502000D01*
X135467000Y-137294000D02*
X135467000Y-138512000D01*
X135607000Y-134379000D02*
X135607000Y-135527000D01*
X135607000Y-137269000D02*
X135607000Y-138417000D01*
X135747000Y-134490000D02*
X135747000Y-135575000D01*
X135747000Y-137221000D02*
X135747000Y-138306000D01*
X135887000Y-134618000D02*
X135887000Y-135653000D01*
X135887000Y-137143000D02*
X135887000Y-138178000D01*
X136027000Y-134767000D02*
X136027000Y-135770000D01*
X136027000Y-137026000D02*
X136027000Y-138029000D01*
X136167000Y-134946000D02*
X136167000Y-135958000D01*
X136167000Y-136838000D02*
X136167000Y-137850000D01*
X136307000Y-135165000D02*
X136307000Y-137631000D01*
X136447000Y-135454000D02*
X136447000Y-137342000D01*
X136587000Y-135926000D02*
X136587000Y-136870000D01*
X136282000Y-136398000D02*
G75*
G03X136282000Y-136398000I-900000J0D01*
G01*
X136669500Y-136398000D02*
G75*
G03X136669500Y-136398000I-2537500J0D01*
G01*
X143351000Y-133899000D02*
X143351000Y-138897000D01*
X143491000Y-133907000D02*
X143491000Y-138889000D01*
X143631000Y-133923000D02*
X143631000Y-136303000D01*
X143631000Y-136493000D02*
X143631000Y-138873000D01*
X143771000Y-133947000D02*
X143771000Y-135908000D01*
X143771000Y-136888000D02*
X143771000Y-138849000D01*
X143911000Y-133980000D02*
X143911000Y-135741000D01*
X143911000Y-137055000D02*
X143911000Y-138816000D01*
X144051000Y-134021000D02*
X144051000Y-135634000D01*
X144051000Y-137162000D02*
X144051000Y-138775000D01*
X144191000Y-134071000D02*
X144191000Y-135563000D01*
X144191000Y-137233000D02*
X144191000Y-138725000D01*
X144331000Y-134132000D02*
X144331000Y-135519000D01*
X144331000Y-137277000D02*
X144331000Y-138664000D01*
X144471000Y-134202000D02*
X144471000Y-135500000D01*
X144471000Y-137296000D02*
X144471000Y-138594000D01*
X144611000Y-134284000D02*
X144611000Y-135502000D01*
X144611000Y-137294000D02*
X144611000Y-138512000D01*
X144751000Y-134379000D02*
X144751000Y-135527000D01*
X144751000Y-137269000D02*
X144751000Y-138417000D01*
X144891000Y-134490000D02*
X144891000Y-135575000D01*
X144891000Y-137221000D02*
X144891000Y-138306000D01*
X145031000Y-134618000D02*
X145031000Y-135653000D01*
X145031000Y-137143000D02*
X145031000Y-138178000D01*
X145171000Y-134767000D02*
X145171000Y-135770000D01*
X145171000Y-137026000D02*
X145171000Y-138029000D01*
X145311000Y-134946000D02*
X145311000Y-135958000D01*
X145311000Y-136838000D02*
X145311000Y-137850000D01*
X145451000Y-135165000D02*
X145451000Y-137631000D01*
X145591000Y-135454000D02*
X145591000Y-137342000D01*
X145731000Y-135926000D02*
X145731000Y-136870000D01*
X145426000Y-136398000D02*
G75*
G03X145426000Y-136398000I-900000J0D01*
G01*
X145813500Y-136398000D02*
G75*
G03X145813500Y-136398000I-2537500J0D01*
G01*
X161385000Y-133899000D02*
X161385000Y-138897000D01*
X161525000Y-133907000D02*
X161525000Y-138889000D01*
X161665000Y-133923000D02*
X161665000Y-136303000D01*
X161665000Y-136493000D02*
X161665000Y-138873000D01*
X161805000Y-133947000D02*
X161805000Y-135908000D01*
X161805000Y-136888000D02*
X161805000Y-138849000D01*
X161945000Y-133980000D02*
X161945000Y-135741000D01*
X161945000Y-137055000D02*
X161945000Y-138816000D01*
X162085000Y-134021000D02*
X162085000Y-135634000D01*
X162085000Y-137162000D02*
X162085000Y-138775000D01*
X162225000Y-134071000D02*
X162225000Y-135563000D01*
X162225000Y-137233000D02*
X162225000Y-138725000D01*
X162365000Y-134132000D02*
X162365000Y-135519000D01*
X162365000Y-137277000D02*
X162365000Y-138664000D01*
X162505000Y-134202000D02*
X162505000Y-135500000D01*
X162505000Y-137296000D02*
X162505000Y-138594000D01*
X162645000Y-134284000D02*
X162645000Y-135502000D01*
X162645000Y-137294000D02*
X162645000Y-138512000D01*
X162785000Y-134379000D02*
X162785000Y-135527000D01*
X162785000Y-137269000D02*
X162785000Y-138417000D01*
X162925000Y-134490000D02*
X162925000Y-135575000D01*
X162925000Y-137221000D02*
X162925000Y-138306000D01*
X163065000Y-134618000D02*
X163065000Y-135653000D01*
X163065000Y-137143000D02*
X163065000Y-138178000D01*
X163205000Y-134767000D02*
X163205000Y-135770000D01*
X163205000Y-137026000D02*
X163205000Y-138029000D01*
X163345000Y-134946000D02*
X163345000Y-135958000D01*
X163345000Y-136838000D02*
X163345000Y-137850000D01*
X163485000Y-135165000D02*
X163485000Y-137631000D01*
X163625000Y-135454000D02*
X163625000Y-137342000D01*
X163765000Y-135926000D02*
X163765000Y-136870000D01*
X163460000Y-136398000D02*
G75*
G03X163460000Y-136398000I-900000J0D01*
G01*
X163847500Y-136398000D02*
G75*
G03X163847500Y-136398000I-2537500J0D01*
G01*
X171291000Y-133899000D02*
X171291000Y-138897000D01*
X171431000Y-133907000D02*
X171431000Y-138889000D01*
X171571000Y-133923000D02*
X171571000Y-136303000D01*
X171571000Y-136493000D02*
X171571000Y-138873000D01*
X171711000Y-133947000D02*
X171711000Y-135908000D01*
X171711000Y-136888000D02*
X171711000Y-138849000D01*
X171851000Y-133980000D02*
X171851000Y-135741000D01*
X171851000Y-137055000D02*
X171851000Y-138816000D01*
X171991000Y-134021000D02*
X171991000Y-135634000D01*
X171991000Y-137162000D02*
X171991000Y-138775000D01*
X172131000Y-134071000D02*
X172131000Y-135563000D01*
X172131000Y-137233000D02*
X172131000Y-138725000D01*
X172271000Y-134132000D02*
X172271000Y-135519000D01*
X172271000Y-137277000D02*
X172271000Y-138664000D01*
X172411000Y-134202000D02*
X172411000Y-135500000D01*
X172411000Y-137296000D02*
X172411000Y-138594000D01*
X172551000Y-134284000D02*
X172551000Y-135502000D01*
X172551000Y-137294000D02*
X172551000Y-138512000D01*
X172691000Y-134379000D02*
X172691000Y-135527000D01*
X172691000Y-137269000D02*
X172691000Y-138417000D01*
X172831000Y-134490000D02*
X172831000Y-135575000D01*
X172831000Y-137221000D02*
X172831000Y-138306000D01*
X172971000Y-134618000D02*
X172971000Y-135653000D01*
X172971000Y-137143000D02*
X172971000Y-138178000D01*
X173111000Y-134767000D02*
X173111000Y-135770000D01*
X173111000Y-137026000D02*
X173111000Y-138029000D01*
X173251000Y-134946000D02*
X173251000Y-135958000D01*
X173251000Y-136838000D02*
X173251000Y-137850000D01*
X173391000Y-135165000D02*
X173391000Y-137631000D01*
X173531000Y-135454000D02*
X173531000Y-137342000D01*
X173671000Y-135926000D02*
X173671000Y-136870000D01*
X173366000Y-136398000D02*
G75*
G03X173366000Y-136398000I-900000J0D01*
G01*
X173753500Y-136398000D02*
G75*
G03X173753500Y-136398000I-2537500J0D01*
G01*
X180943000Y-133899000D02*
X180943000Y-138897000D01*
X181083000Y-133907000D02*
X181083000Y-138889000D01*
X181223000Y-133923000D02*
X181223000Y-136303000D01*
X181223000Y-136493000D02*
X181223000Y-138873000D01*
X181363000Y-133947000D02*
X181363000Y-135908000D01*
X181363000Y-136888000D02*
X181363000Y-138849000D01*
X181503000Y-133980000D02*
X181503000Y-135741000D01*
X181503000Y-137055000D02*
X181503000Y-138816000D01*
X181643000Y-134021000D02*
X181643000Y-135634000D01*
X181643000Y-137162000D02*
X181643000Y-138775000D01*
X181783000Y-134071000D02*
X181783000Y-135563000D01*
X181783000Y-137233000D02*
X181783000Y-138725000D01*
X181923000Y-134132000D02*
X181923000Y-135519000D01*
X181923000Y-137277000D02*
X181923000Y-138664000D01*
X182063000Y-134202000D02*
X182063000Y-135500000D01*
X182063000Y-137296000D02*
X182063000Y-138594000D01*
X182203000Y-134284000D02*
X182203000Y-135502000D01*
X182203000Y-137294000D02*
X182203000Y-138512000D01*
X182343000Y-134379000D02*
X182343000Y-135527000D01*
X182343000Y-137269000D02*
X182343000Y-138417000D01*
X182483000Y-134490000D02*
X182483000Y-135575000D01*
X182483000Y-137221000D02*
X182483000Y-138306000D01*
X182623000Y-134618000D02*
X182623000Y-135653000D01*
X182623000Y-137143000D02*
X182623000Y-138178000D01*
X182763000Y-134767000D02*
X182763000Y-135770000D01*
X182763000Y-137026000D02*
X182763000Y-138029000D01*
X182903000Y-134946000D02*
X182903000Y-135958000D01*
X182903000Y-136838000D02*
X182903000Y-137850000D01*
X183043000Y-135165000D02*
X183043000Y-137631000D01*
X183183000Y-135454000D02*
X183183000Y-137342000D01*
X183323000Y-135926000D02*
X183323000Y-136870000D01*
X183018000Y-136398000D02*
G75*
G03X183018000Y-136398000I-900000J0D01*
G01*
X183405500Y-136398000D02*
G75*
G03X183405500Y-136398000I-2537500J0D01*
G01*
X178816000Y-90932000D02*
X183896000Y-90932000D01*
X183896000Y-90932000D02*
X183896000Y-93472000D01*
X183896000Y-93472000D02*
X178816000Y-93472000D01*
X178816000Y-93472000D02*
X178816000Y-90932000D01*
X88541000Y-76581000D02*
X78635000Y-76581000D01*
X88541000Y-83566000D02*
X78635000Y-83566000D01*
X78546100Y-83566000D02*
X78546100Y-84455000D01*
X81086100Y-83693000D02*
X81086100Y-84455000D01*
X83626100Y-83566000D02*
X83626100Y-84455000D01*
X86039100Y-84455000D02*
X86039100Y-83566000D01*
X88579100Y-83566000D02*
X88579100Y-84455000D01*
X81721100Y-76581000D02*
X81721100Y-80137000D01*
X81721100Y-80137000D02*
X80451100Y-80137000D01*
X80451100Y-80137000D02*
X80451100Y-76581000D01*
X86674100Y-76581000D02*
X86674100Y-80137000D01*
X86674100Y-80137000D02*
X85404100Y-80137000D01*
X85404100Y-80137000D02*
X85404100Y-76581000D01*
X78546100Y-83566000D02*
X78546100Y-88265000D01*
X78546100Y-88265000D02*
X79689100Y-88265000D01*
X79689100Y-88265000D02*
X79689100Y-83566000D01*
X88579100Y-88265000D02*
X87436100Y-88265000D01*
X87436100Y-88265000D02*
X87436100Y-83566000D01*
X88579100Y-83439000D02*
X88579100Y-88265000D01*
X78546100Y-83566000D02*
X78546100Y-76581000D01*
X88579100Y-76581000D02*
X88579100Y-83566000D01*
X113792000Y-93218000D02*
X113792000Y-90678000D01*
X118872000Y-93218000D02*
X113792000Y-93218000D01*
X118872000Y-90678000D02*
X118872000Y-93218000D01*
X113792000Y-90678000D02*
X118872000Y-90678000D01*
X144581000Y-76581000D02*
X134675000Y-76581000D01*
X144581000Y-83566000D02*
X134675000Y-83566000D01*
X134586100Y-83566000D02*
X134586100Y-84455000D01*
X137126100Y-83693000D02*
X137126100Y-84455000D01*
X139666100Y-83566000D02*
X139666100Y-84455000D01*
X142079100Y-84455000D02*
X142079100Y-83566000D01*
X144619100Y-83566000D02*
X144619100Y-84455000D01*
X137761100Y-76581000D02*
X137761100Y-80137000D01*
X137761100Y-80137000D02*
X136491100Y-80137000D01*
X136491100Y-80137000D02*
X136491100Y-76581000D01*
X142714100Y-76581000D02*
X142714100Y-80137000D01*
X142714100Y-80137000D02*
X141444100Y-80137000D01*
X141444100Y-80137000D02*
X141444100Y-76581000D01*
X134586100Y-83566000D02*
X134586100Y-88265000D01*
X134586100Y-88265000D02*
X135729100Y-88265000D01*
X135729100Y-88265000D02*
X135729100Y-83566000D01*
X144619100Y-88265000D02*
X143476100Y-88265000D01*
X143476100Y-88265000D02*
X143476100Y-83566000D01*
X144619100Y-83439000D02*
X144619100Y-88265000D01*
X134586100Y-83566000D02*
X134586100Y-76581000D01*
X144619100Y-76581000D02*
X144619100Y-83566000D01*
X122541000Y-76581000D02*
X112635000Y-76581000D01*
X122541000Y-83566000D02*
X112635000Y-83566000D01*
X112546100Y-83566000D02*
X112546100Y-84455000D01*
X115086100Y-83693000D02*
X115086100Y-84455000D01*
X117626100Y-83566000D02*
X117626100Y-84455000D01*
X120039100Y-84455000D02*
X120039100Y-83566000D01*
X122579100Y-83566000D02*
X122579100Y-84455000D01*
X115721100Y-76581000D02*
X115721100Y-80137000D01*
X115721100Y-80137000D02*
X114451100Y-80137000D01*
X114451100Y-80137000D02*
X114451100Y-76581000D01*
X120674100Y-76581000D02*
X120674100Y-80137000D01*
X120674100Y-80137000D02*
X119404100Y-80137000D01*
X119404100Y-80137000D02*
X119404100Y-76581000D01*
X112546100Y-83566000D02*
X112546100Y-88265000D01*
X112546100Y-88265000D02*
X113689100Y-88265000D01*
X113689100Y-88265000D02*
X113689100Y-83566000D01*
X122579100Y-88265000D02*
X121436100Y-88265000D01*
X121436100Y-88265000D02*
X121436100Y-83566000D01*
X122579100Y-83439000D02*
X122579100Y-88265000D01*
X112546100Y-83566000D02*
X112546100Y-76581000D01*
X122579100Y-76581000D02*
X122579100Y-83566000D01*
X135890000Y-90678000D02*
X140970000Y-90678000D01*
X140970000Y-90678000D02*
X140970000Y-93218000D01*
X140970000Y-93218000D02*
X135890000Y-93218000D01*
X135890000Y-93218000D02*
X135890000Y-90678000D01*
X69596000Y-85090000D02*
X72136000Y-85090000D01*
X72136000Y-85090000D02*
X72136000Y-82550000D01*
X70612000Y-82550000D02*
X70612000Y-76454000D01*
X70612000Y-76454000D02*
X71120000Y-76454000D01*
X71120000Y-76454000D02*
X71120000Y-82550000D01*
X72136000Y-82550000D02*
X69596000Y-82550000D01*
X74676000Y-82550000D02*
X72136000Y-82550000D01*
X73660000Y-76454000D02*
X73660000Y-82550000D01*
X73152000Y-76454000D02*
X73660000Y-76454000D01*
X73152000Y-82550000D02*
X73152000Y-76454000D01*
X74676000Y-85090000D02*
X74676000Y-82550000D01*
X72136000Y-85090000D02*
X74676000Y-85090000D01*
X72136000Y-85090000D02*
X72136000Y-82550000D01*
X69596000Y-85090000D02*
X69596000Y-82550000D01*
X73660000Y-85090000D02*
X73660000Y-85471000D01*
X73152000Y-85090000D02*
X73152000Y-85471000D01*
X71120000Y-85090000D02*
X71120000Y-85471000D01*
X70612000Y-85090000D02*
X70612000Y-85471000D01*
X70866000Y-82423000D02*
X70866000Y-76581000D01*
X70993000Y-82423000D02*
X70866000Y-82423000D01*
X70993000Y-76581000D02*
X70993000Y-82423000D01*
X70739000Y-76581000D02*
X70993000Y-76581000D01*
X70739000Y-82423000D02*
X70739000Y-76581000D01*
X69316000Y-86614000D02*
X69316000Y-87914000D01*
X69316000Y-87914000D02*
X70866000Y-87914000D01*
X79756000Y-90424000D02*
X84836000Y-90424000D01*
X84836000Y-90424000D02*
X84836000Y-92964000D01*
X84836000Y-92964000D02*
X79756000Y-92964000D01*
X79756000Y-92964000D02*
X79756000Y-90424000D01*
X157734000Y-93980000D02*
X157734000Y-91440000D01*
X162814000Y-93980000D02*
X157734000Y-93980000D01*
X162814000Y-91440000D02*
X162814000Y-93980000D01*
X157734000Y-91440000D02*
X162814000Y-91440000D01*
X166581000Y-76581000D02*
X156675000Y-76581000D01*
X166581000Y-83566000D02*
X156675000Y-83566000D01*
X156586100Y-83566000D02*
X156586100Y-84455000D01*
X159126100Y-83693000D02*
X159126100Y-84455000D01*
X161666100Y-83566000D02*
X161666100Y-84455000D01*
X164079100Y-84455000D02*
X164079100Y-83566000D01*
X166619100Y-83566000D02*
X166619100Y-84455000D01*
X159761100Y-76581000D02*
X159761100Y-80137000D01*
X159761100Y-80137000D02*
X158491100Y-80137000D01*
X158491100Y-80137000D02*
X158491100Y-76581000D01*
X164714100Y-76581000D02*
X164714100Y-80137000D01*
X164714100Y-80137000D02*
X163444100Y-80137000D01*
X163444100Y-80137000D02*
X163444100Y-76581000D01*
X156586100Y-83566000D02*
X156586100Y-88265000D01*
X156586100Y-88265000D02*
X157729100Y-88265000D01*
X157729100Y-88265000D02*
X157729100Y-83566000D01*
X166619100Y-88265000D02*
X165476100Y-88265000D01*
X165476100Y-88265000D02*
X165476100Y-83566000D01*
X166619100Y-83439000D02*
X166619100Y-88265000D01*
X156586100Y-83566000D02*
X156586100Y-76581000D01*
X166619100Y-76581000D02*
X166619100Y-83566000D01*
X187579100Y-76581000D02*
X187579100Y-83566000D01*
X177546100Y-83566000D02*
X177546100Y-76581000D01*
X187579100Y-83439000D02*
X187579100Y-88265000D01*
X186436100Y-88265000D02*
X186436100Y-83566000D01*
X187579100Y-88265000D02*
X186436100Y-88265000D01*
X178689100Y-88265000D02*
X178689100Y-83566000D01*
X177546100Y-88265000D02*
X178689100Y-88265000D01*
X177546100Y-83566000D02*
X177546100Y-88265000D01*
X184404100Y-80137000D02*
X184404100Y-76581000D01*
X185674100Y-80137000D02*
X184404100Y-80137000D01*
X185674100Y-76581000D02*
X185674100Y-80137000D01*
X179451100Y-80137000D02*
X179451100Y-76581000D01*
X180721100Y-80137000D02*
X179451100Y-80137000D01*
X180721100Y-76581000D02*
X180721100Y-80137000D01*
X187579100Y-83566000D02*
X187579100Y-84455000D01*
X185039100Y-84455000D02*
X185039100Y-83566000D01*
X182626100Y-83566000D02*
X182626100Y-84455000D01*
X180086100Y-83693000D02*
X180086100Y-84455000D01*
X177546100Y-83566000D02*
X177546100Y-84455000D01*
X187541000Y-83566000D02*
X177635000Y-83566000D01*
X187541000Y-76581000D02*
X177635000Y-76581000D01*
X234569000Y-125387100D02*
X227584000Y-125387100D01*
X227584000Y-115354100D02*
X234569000Y-115354100D01*
X227711000Y-125387100D02*
X222885000Y-125387100D01*
X222885000Y-124244100D02*
X227584000Y-124244100D01*
X222885000Y-125387100D02*
X222885000Y-124244100D01*
X222885000Y-116497100D02*
X227584000Y-116497100D01*
X222885000Y-115354100D02*
X222885000Y-116497100D01*
X227584000Y-115354100D02*
X222885000Y-115354100D01*
X231013000Y-122212100D02*
X234569000Y-122212100D01*
X231013000Y-123482100D02*
X231013000Y-122212100D01*
X234569000Y-123482100D02*
X231013000Y-123482100D01*
X231013000Y-117259100D02*
X234569000Y-117259100D01*
X231013000Y-118529100D02*
X231013000Y-117259100D01*
X234569000Y-118529100D02*
X231013000Y-118529100D01*
X227584000Y-125387100D02*
X226695000Y-125387100D01*
X226695000Y-122847100D02*
X227584000Y-122847100D01*
X227584000Y-120434100D02*
X226695000Y-120434100D01*
X227457000Y-117894100D02*
X226695000Y-117894100D01*
X227584000Y-115354100D02*
X226695000Y-115354100D01*
X227584000Y-125349000D02*
X227584000Y-115443000D01*
X234569000Y-125349000D02*
X234569000Y-115443000D01*
X152745000Y-133899000D02*
X152745000Y-138897000D01*
X152885000Y-133907000D02*
X152885000Y-136244000D01*
X152885000Y-136552000D02*
X152885000Y-138889000D01*
X153025000Y-133923000D02*
X153025000Y-135925000D01*
X153025000Y-136871000D02*
X153025000Y-138873000D01*
X153165000Y-133947000D02*
X153165000Y-135778000D01*
X153165000Y-137018000D02*
X153165000Y-138849000D01*
X153305000Y-133980000D02*
X153305000Y-135686000D01*
X153305000Y-137110000D02*
X153305000Y-138816000D01*
X153445000Y-134021000D02*
X153445000Y-135630000D01*
X153445000Y-137166000D02*
X153445000Y-138775000D01*
X153585000Y-134071000D02*
X153585000Y-135603000D01*
X153585000Y-137193000D02*
X153585000Y-138725000D01*
X153725000Y-134132000D02*
X153725000Y-135600000D01*
X153725000Y-137196000D02*
X153725000Y-138664000D01*
X153865000Y-134202000D02*
X153865000Y-135622000D01*
X153865000Y-137174000D02*
X153865000Y-138594000D01*
X154005000Y-134284000D02*
X154005000Y-135672000D01*
X154005000Y-137124000D02*
X154005000Y-138512000D01*
X154145000Y-134379000D02*
X154145000Y-135754000D01*
X154145000Y-137042000D02*
X154145000Y-138417000D01*
X154285000Y-134490000D02*
X154285000Y-135886000D01*
X154285000Y-136910000D02*
X154285000Y-138306000D01*
X154425000Y-134618000D02*
X154425000Y-136133000D01*
X154425000Y-136663000D02*
X154425000Y-138178000D01*
X154565000Y-134767000D02*
X154565000Y-138029000D01*
X154705000Y-134946000D02*
X154705000Y-137850000D01*
X154845000Y-135165000D02*
X154845000Y-137631000D01*
X154985000Y-135454000D02*
X154985000Y-137342000D01*
X155125000Y-135926000D02*
X155125000Y-136870000D01*
X154470000Y-136398000D02*
G75*
G03X154470000Y-136398000I-800000J0D01*
G01*
X155207500Y-136398000D02*
G75*
G03X155207500Y-136398000I-2537500J0D01*
G01*
X234569000Y-137833100D02*
X227584000Y-137833100D01*
X227584000Y-127800100D02*
X234569000Y-127800100D01*
X227711000Y-137833100D02*
X222885000Y-137833100D01*
X222885000Y-136690100D02*
X227584000Y-136690100D01*
X222885000Y-137833100D02*
X222885000Y-136690100D01*
X222885000Y-128943100D02*
X227584000Y-128943100D01*
X222885000Y-127800100D02*
X222885000Y-128943100D01*
X227584000Y-127800100D02*
X222885000Y-127800100D01*
X231013000Y-134658100D02*
X234569000Y-134658100D01*
X231013000Y-135928100D02*
X231013000Y-134658100D01*
X234569000Y-135928100D02*
X231013000Y-135928100D01*
X231013000Y-129705100D02*
X234569000Y-129705100D01*
X231013000Y-130975100D02*
X231013000Y-129705100D01*
X234569000Y-130975100D02*
X231013000Y-130975100D01*
X227584000Y-137833100D02*
X226695000Y-137833100D01*
X226695000Y-135293100D02*
X227584000Y-135293100D01*
X227584000Y-132880100D02*
X226695000Y-132880100D01*
X227457000Y-130340100D02*
X226695000Y-130340100D01*
X227584000Y-127800100D02*
X226695000Y-127800100D01*
X227584000Y-137795000D02*
X227584000Y-127889000D01*
X234569000Y-137795000D02*
X234569000Y-127889000D01*
X205740000Y-121475500D02*
X206629000Y-121475500D01*
X205740000Y-124015500D02*
X206629000Y-124015500D01*
X205740000Y-126428500D02*
X206629000Y-126428500D01*
X205740000Y-128968500D02*
X206629000Y-128968500D01*
X205740000Y-131381500D02*
X206629000Y-131381500D01*
X205740000Y-134048500D02*
X206629000Y-134048500D01*
X202184000Y-122110500D02*
X198755000Y-122110500D01*
X202184000Y-120967500D02*
X202184000Y-122110500D01*
X202311000Y-134683500D02*
X198755000Y-134683500D01*
X202311000Y-133413500D02*
X202311000Y-134683500D01*
X198755000Y-133413500D02*
X202311000Y-133413500D01*
X205740000Y-118935500D02*
X198755000Y-118935500D01*
X205740000Y-136461500D02*
X198755000Y-136461500D01*
X202184000Y-120967500D02*
X198755000Y-120967500D01*
X198755000Y-118935500D02*
X198755000Y-136461500D01*
X205740000Y-118935500D02*
X205740000Y-136461500D01*
X210439000Y-120205500D02*
X205740000Y-120205500D01*
X210439000Y-119951500D02*
X210439000Y-120205500D01*
X210439000Y-118935500D02*
X210439000Y-119951500D01*
X205740000Y-118935500D02*
X210439000Y-118935500D01*
X210439000Y-135191500D02*
X205740000Y-135191500D01*
X210439000Y-136461500D02*
X210439000Y-135191500D01*
X205740000Y-136461500D02*
X210439000Y-136461500D01*
X75184000Y-113347500D02*
X79883000Y-113347500D01*
X79883000Y-113347500D02*
X79883000Y-112077500D01*
X79883000Y-112077500D02*
X75184000Y-112077500D01*
X75184000Y-95821500D02*
X79883000Y-95821500D01*
X79883000Y-95821500D02*
X79883000Y-96837500D01*
X79883000Y-96837500D02*
X79883000Y-97091500D01*
X79883000Y-97091500D02*
X75184000Y-97091500D01*
X75184000Y-95821500D02*
X75184000Y-113347500D01*
X68199000Y-95821500D02*
X68199000Y-113347500D01*
X71628000Y-97853500D02*
X68199000Y-97853500D01*
X75184000Y-113347500D02*
X68199000Y-113347500D01*
X75184000Y-95821500D02*
X68199000Y-95821500D01*
X68199000Y-110299500D02*
X71755000Y-110299500D01*
X71755000Y-110299500D02*
X71755000Y-111569500D01*
X71755000Y-111569500D02*
X68199000Y-111569500D01*
X71628000Y-97853500D02*
X71628000Y-98996500D01*
X71628000Y-98996500D02*
X68199000Y-98996500D01*
X75184000Y-110934500D02*
X76073000Y-110934500D01*
X75184000Y-108267500D02*
X76073000Y-108267500D01*
X75184000Y-105854500D02*
X76073000Y-105854500D01*
X75184000Y-103314500D02*
X76073000Y-103314500D01*
X75184000Y-100901500D02*
X76073000Y-100901500D01*
X75184000Y-98361500D02*
X76073000Y-98361500D01*
X234315000Y-112903000D02*
X234315000Y-102997000D01*
X227330000Y-112903000D02*
X227330000Y-102997000D01*
X227330000Y-102908100D02*
X226441000Y-102908100D01*
X227203000Y-105448100D02*
X226441000Y-105448100D01*
X227330000Y-107988100D02*
X226441000Y-107988100D01*
X226441000Y-110401100D02*
X227330000Y-110401100D01*
X227330000Y-112941100D02*
X226441000Y-112941100D01*
X234315000Y-106083100D02*
X230759000Y-106083100D01*
X230759000Y-106083100D02*
X230759000Y-104813100D01*
X230759000Y-104813100D02*
X234315000Y-104813100D01*
X234315000Y-111036100D02*
X230759000Y-111036100D01*
X230759000Y-111036100D02*
X230759000Y-109766100D01*
X230759000Y-109766100D02*
X234315000Y-109766100D01*
X227330000Y-102908100D02*
X222631000Y-102908100D01*
X222631000Y-102908100D02*
X222631000Y-104051100D01*
X222631000Y-104051100D02*
X227330000Y-104051100D01*
X222631000Y-112941100D02*
X222631000Y-111798100D01*
X222631000Y-111798100D02*
X227330000Y-111798100D01*
X227457000Y-112941100D02*
X222631000Y-112941100D01*
X227330000Y-102908100D02*
X234315000Y-102908100D01*
X234315000Y-112941100D02*
X227330000Y-112941100D01*
X220581000Y-76581000D02*
X210675000Y-76581000D01*
X220581000Y-83566000D02*
X210675000Y-83566000D01*
X210586100Y-83566000D02*
X210586100Y-84455000D01*
X213126100Y-83693000D02*
X213126100Y-84455000D01*
X215666100Y-83566000D02*
X215666100Y-84455000D01*
X218079100Y-84455000D02*
X218079100Y-83566000D01*
X220619100Y-83566000D02*
X220619100Y-84455000D01*
X213761100Y-76581000D02*
X213761100Y-80137000D01*
X213761100Y-80137000D02*
X212491100Y-80137000D01*
X212491100Y-80137000D02*
X212491100Y-76581000D01*
X218714100Y-76581000D02*
X218714100Y-80137000D01*
X218714100Y-80137000D02*
X217444100Y-80137000D01*
X217444100Y-80137000D02*
X217444100Y-76581000D01*
X210586100Y-83566000D02*
X210586100Y-88265000D01*
X210586100Y-88265000D02*
X211729100Y-88265000D01*
X211729100Y-88265000D02*
X211729100Y-83566000D01*
X220619100Y-88265000D02*
X219476100Y-88265000D01*
X219476100Y-88265000D02*
X219476100Y-83566000D01*
X220619100Y-83439000D02*
X220619100Y-88265000D01*
X210586100Y-83566000D02*
X210586100Y-76581000D01*
X220619100Y-76581000D02*
X220619100Y-83566000D01*
X226314000Y-81026000D02*
X226314000Y-101346000D01*
X233934000Y-81026000D02*
X233934000Y-101346000D01*
X227584000Y-101346000D02*
X227584000Y-81026000D01*
X226314000Y-101346000D02*
X233934000Y-101346000D01*
X233934000Y-81026000D02*
X226314000Y-81026000D01*
X214630000Y-134112000D02*
X219710000Y-134112000D01*
X219710000Y-134112000D02*
X219710000Y-136652000D01*
X219710000Y-136652000D02*
X214630000Y-136652000D01*
X214630000Y-136652000D02*
X214630000Y-134112000D01*
X176784000Y-117668000D02*
X176784000Y-118778000D01*
X176784000Y-135128000D02*
X176784000Y-134018000D01*
X179324000Y-134018000D02*
X179324000Y-118778000D01*
X176784000Y-134018000D02*
X179324000Y-134018000D01*
X174244000Y-134018000D02*
X176784000Y-134018000D01*
X174244000Y-118778000D02*
X174244000Y-134018000D01*
X179324000Y-118778000D02*
X174244000Y-118778000D01*
X214630000Y-134112000D02*
X214630000Y-131572000D01*
X219710000Y-134112000D02*
X214630000Y-134112000D01*
X219710000Y-131572000D02*
X219710000Y-134112000D01*
X214630000Y-131572000D02*
X219710000Y-131572000D01*
X166624000Y-117668000D02*
X166624000Y-118778000D01*
X166624000Y-135128000D02*
X166624000Y-134018000D01*
X169164000Y-134018000D02*
X169164000Y-118778000D01*
X166624000Y-134018000D02*
X169164000Y-134018000D01*
X164084000Y-134018000D02*
X166624000Y-134018000D01*
X164084000Y-118778000D02*
X164084000Y-134018000D01*
X169164000Y-118778000D02*
X164084000Y-118778000D01*
X214630000Y-128016000D02*
X219710000Y-128016000D01*
X219710000Y-128016000D02*
X219710000Y-130556000D01*
X219710000Y-130556000D02*
X214630000Y-130556000D01*
X214630000Y-130556000D02*
X214630000Y-128016000D01*
X160020000Y-118778000D02*
X154940000Y-118778000D01*
X154940000Y-118778000D02*
X154940000Y-134018000D01*
X154940000Y-134018000D02*
X157480000Y-134018000D01*
X157480000Y-134018000D02*
X160020000Y-134018000D01*
X160020000Y-134018000D02*
X160020000Y-118778000D01*
X157480000Y-135128000D02*
X157480000Y-134018000D01*
X157480000Y-117668000D02*
X157480000Y-118778000D01*
X214630000Y-126746000D02*
X214630000Y-124206000D01*
X219710000Y-126746000D02*
X214630000Y-126746000D01*
X219710000Y-124206000D02*
X219710000Y-126746000D01*
X214630000Y-124206000D02*
X219710000Y-124206000D01*
X150876000Y-118778000D02*
X145796000Y-118778000D01*
X145796000Y-118778000D02*
X145796000Y-134018000D01*
X145796000Y-134018000D02*
X148336000Y-134018000D01*
X148336000Y-134018000D02*
X150876000Y-134018000D01*
X150876000Y-134018000D02*
X150876000Y-118778000D01*
X148336000Y-135128000D02*
X148336000Y-134018000D01*
X148336000Y-117668000D02*
X148336000Y-118778000D01*
X214630000Y-116078000D02*
X219710000Y-116078000D01*
X219710000Y-116078000D02*
X219710000Y-118618000D01*
X219710000Y-118618000D02*
X214630000Y-118618000D01*
X214630000Y-118618000D02*
X214630000Y-116078000D01*
X139446000Y-117668000D02*
X139446000Y-118778000D01*
X139446000Y-135128000D02*
X139446000Y-134018000D01*
X141986000Y-134018000D02*
X141986000Y-118778000D01*
X139446000Y-134018000D02*
X141986000Y-134018000D01*
X136906000Y-134018000D02*
X139446000Y-134018000D01*
X136906000Y-118778000D02*
X136906000Y-134018000D01*
X141986000Y-118778000D02*
X136906000Y-118778000D01*
X211836000Y-90424000D02*
X211836000Y-87884000D01*
X216916000Y-90424000D02*
X211836000Y-90424000D01*
X216916000Y-87884000D02*
X216916000Y-90424000D01*
X211836000Y-87884000D02*
X216916000Y-87884000D01*
X214630000Y-116078000D02*
X214630000Y-113538000D01*
X219710000Y-116078000D02*
X214630000Y-116078000D01*
X219710000Y-113538000D02*
X219710000Y-116078000D01*
X214630000Y-113538000D02*
X219710000Y-113538000D01*
X132842000Y-118778000D02*
X127762000Y-118778000D01*
X127762000Y-118778000D02*
X127762000Y-134018000D01*
X127762000Y-134018000D02*
X130302000Y-134018000D01*
X130302000Y-134018000D02*
X132842000Y-134018000D01*
X132842000Y-134018000D02*
X132842000Y-118778000D01*
X130302000Y-135128000D02*
X130302000Y-134018000D01*
X130302000Y-117668000D02*
X130302000Y-118778000D01*
D10*
X136007000Y-136398000D02*
G75*
G03X136007000Y-136398000I-625000J0D01*
G01*
X145151000Y-136398000D02*
G75*
G03X145151000Y-136398000I-625000J0D01*
G01*
X163185000Y-136398000D02*
G75*
G03X163185000Y-136398000I-625000J0D01*
G01*
X173091000Y-136398000D02*
G75*
G03X173091000Y-136398000I-625000J0D01*
G01*
X182743000Y-136398000D02*
G75*
G03X182743000Y-136398000I-625000J0D01*
G01*
X178521000Y-92202000D02*
G75*
G03X178521000Y-92202000I-975000J0D01*
G01*
X186141000Y-92202000D02*
G75*
G03X186141000Y-92202000I-975000J0D01*
G01*
X103683000Y-86868000D02*
G75*
G03X103683000Y-86868000I-1575000J0D01*
G01*
X84563000Y-85852000D02*
G75*
G03X84563000Y-85852000I-975000J0D01*
G01*
X82063000Y-85852000D02*
G75*
G03X82063000Y-85852000I-975000J0D01*
G01*
X121117000Y-91948000D02*
G75*
G03X121117000Y-91948000I-975000J0D01*
G01*
X113497000Y-91948000D02*
G75*
G03X113497000Y-91948000I-975000J0D01*
G01*
X140603000Y-85852000D02*
G75*
G03X140603000Y-85852000I-975000J0D01*
G01*
X138103000Y-85852000D02*
G75*
G03X138103000Y-85852000I-975000J0D01*
G01*
X118563000Y-85852000D02*
G75*
G03X118563000Y-85852000I-975000J0D01*
G01*
X116063000Y-85852000D02*
G75*
G03X116063000Y-85852000I-975000J0D01*
G01*
X135595000Y-91948000D02*
G75*
G03X135595000Y-91948000I-975000J0D01*
G01*
X143215000Y-91948000D02*
G75*
G03X143215000Y-91948000I-975000J0D01*
G01*
X73406000Y-87605000D02*
X73406000Y-87605000D01*
X73406000Y-85623000D02*
X73406000Y-85623000D01*
X73406000Y-87605000D02*
G75*
G03X73406000Y-85623000I0J991000D01*
G01*
X73406000Y-85623000D02*
G75*
G03X73406000Y-87605000I0J-991000D01*
G01*
X79461000Y-91694000D02*
G75*
G03X79461000Y-91694000I-975000J0D01*
G01*
X87081000Y-91694000D02*
G75*
G03X87081000Y-91694000I-975000J0D01*
G01*
X165059000Y-92710000D02*
G75*
G03X165059000Y-92710000I-975000J0D01*
G01*
X157439000Y-92710000D02*
G75*
G03X157439000Y-92710000I-975000J0D01*
G01*
X162603000Y-85852000D02*
G75*
G03X162603000Y-85852000I-975000J0D01*
G01*
X160103000Y-85852000D02*
G75*
G03X160103000Y-85852000I-975000J0D01*
G01*
X181063000Y-85852000D02*
G75*
G03X181063000Y-85852000I-975000J0D01*
G01*
X183563000Y-85852000D02*
G75*
G03X183563000Y-85852000I-975000J0D01*
G01*
X234493000Y-143256000D02*
G75*
G03X234493000Y-143256000I-1575000J0D01*
G01*
X73457000Y-141986000D02*
G75*
G03X73457000Y-141986000I-1575000J0D01*
G01*
X232461000Y-77216000D02*
G75*
G03X232461000Y-77216000I-1575000J0D01*
G01*
X226273000Y-117896000D02*
G75*
G03X226273000Y-117896000I-975000J0D01*
G01*
X226273000Y-120396000D02*
G75*
G03X226273000Y-120396000I-975000J0D01*
G01*
X154295000Y-136398000D02*
G75*
G03X154295000Y-136398000I-625000J0D01*
G01*
X226273000Y-130342000D02*
G75*
G03X226273000Y-130342000I-975000J0D01*
G01*
X226273000Y-132842000D02*
G75*
G03X226273000Y-132842000I-975000J0D01*
G01*
X209001000Y-133948500D02*
G75*
G03X209001000Y-133948500I-975000J0D01*
G01*
X209001000Y-131448500D02*
G75*
G03X209001000Y-131448500I-975000J0D01*
G01*
X209001000Y-128948500D02*
G75*
G03X209001000Y-128948500I-975000J0D01*
G01*
X209001000Y-126448500D02*
G75*
G03X209001000Y-126448500I-975000J0D01*
G01*
X209001000Y-123948500D02*
G75*
G03X209001000Y-123948500I-975000J0D01*
G01*
X78445000Y-100834500D02*
G75*
G03X78445000Y-100834500I-975000J0D01*
G01*
X78445000Y-103334500D02*
G75*
G03X78445000Y-103334500I-975000J0D01*
G01*
X78445000Y-105834500D02*
G75*
G03X78445000Y-105834500I-975000J0D01*
G01*
X78445000Y-108334500D02*
G75*
G03X78445000Y-108334500I-975000J0D01*
G01*
X78445000Y-110834500D02*
G75*
G03X78445000Y-110834500I-975000J0D01*
G01*
X226019000Y-107950000D02*
G75*
G03X226019000Y-107950000I-975000J0D01*
G01*
X226019000Y-105450000D02*
G75*
G03X226019000Y-105450000I-975000J0D01*
G01*
X216603000Y-85852000D02*
G75*
G03X216603000Y-85852000I-975000J0D01*
G01*
X214103000Y-85852000D02*
G75*
G03X214103000Y-85852000I-975000J0D01*
G01*
X232004000Y-98806000D02*
G75*
G03X232004000Y-98806000I-1880000J0D01*
G01*
X232004000Y-93726000D02*
G75*
G03X232004000Y-93726000I-1880000J0D01*
G01*
X232004000Y-88646000D02*
G75*
G03X232004000Y-88646000I-1880000J0D01*
G01*
X214335000Y-135382000D02*
G75*
G03X214335000Y-135382000I-975000J0D01*
G01*
X221955000Y-135382000D02*
G75*
G03X221955000Y-135382000I-975000J0D01*
G01*
X177759000Y-136398000D02*
G75*
G03X177759000Y-136398000I-975000J0D01*
G01*
X177759000Y-116398000D02*
G75*
G03X177759000Y-116398000I-975000J0D01*
G01*
X221955000Y-132842000D02*
G75*
G03X221955000Y-132842000I-975000J0D01*
G01*
X214335000Y-132842000D02*
G75*
G03X214335000Y-132842000I-975000J0D01*
G01*
X167599000Y-136398000D02*
G75*
G03X167599000Y-136398000I-975000J0D01*
G01*
X167599000Y-116398000D02*
G75*
G03X167599000Y-116398000I-975000J0D01*
G01*
X214335000Y-129286000D02*
G75*
G03X214335000Y-129286000I-975000J0D01*
G01*
X221955000Y-129286000D02*
G75*
G03X221955000Y-129286000I-975000J0D01*
G01*
X158455000Y-116398000D02*
G75*
G03X158455000Y-116398000I-975000J0D01*
G01*
X158455000Y-136398000D02*
G75*
G03X158455000Y-136398000I-975000J0D01*
G01*
X221955000Y-125476000D02*
G75*
G03X221955000Y-125476000I-975000J0D01*
G01*
X214335000Y-125476000D02*
G75*
G03X214335000Y-125476000I-975000J0D01*
G01*
X149311000Y-116398000D02*
G75*
G03X149311000Y-116398000I-975000J0D01*
G01*
X149311000Y-136398000D02*
G75*
G03X149311000Y-136398000I-975000J0D01*
G01*
X214335000Y-117348000D02*
G75*
G03X214335000Y-117348000I-975000J0D01*
G01*
X221955000Y-117348000D02*
G75*
G03X221955000Y-117348000I-975000J0D01*
G01*
X140421000Y-136398000D02*
G75*
G03X140421000Y-136398000I-975000J0D01*
G01*
X140421000Y-116398000D02*
G75*
G03X140421000Y-116398000I-975000J0D01*
G01*
X219161000Y-89154000D02*
G75*
G03X219161000Y-89154000I-975000J0D01*
G01*
X211541000Y-89154000D02*
G75*
G03X211541000Y-89154000I-975000J0D01*
G01*
X221955000Y-114808000D02*
G75*
G03X221955000Y-114808000I-975000J0D01*
G01*
X214335000Y-114808000D02*
G75*
G03X214335000Y-114808000I-975000J0D01*
G01*
X131277000Y-116398000D02*
G75*
G03X131277000Y-116398000I-975000J0D01*
G01*
X131277000Y-136398000D02*
G75*
G03X131277000Y-136398000I-975000J0D01*
G01*
D11*
X133965333Y-132955142D02*
X133917714Y-133002761D01*
X133774857Y-133050380D01*
X133679619Y-133050380D01*
X133536761Y-133002761D01*
X133441523Y-132907523D01*
X133393904Y-132812285D01*
X133346285Y-132621809D01*
X133346285Y-132478952D01*
X133393904Y-132288476D01*
X133441523Y-132193238D01*
X133536761Y-132098000D01*
X133679619Y-132050380D01*
X133774857Y-132050380D01*
X133917714Y-132098000D01*
X133965333Y-132145619D01*
X134822476Y-132050380D02*
X134632000Y-132050380D01*
X134536761Y-132098000D01*
X134489142Y-132145619D01*
X134393904Y-132288476D01*
X134346285Y-132478952D01*
X134346285Y-132859904D01*
X134393904Y-132955142D01*
X134441523Y-133002761D01*
X134536761Y-133050380D01*
X134727238Y-133050380D01*
X134822476Y-133002761D01*
X134870095Y-132955142D01*
X134917714Y-132859904D01*
X134917714Y-132621809D01*
X134870095Y-132526571D01*
X134822476Y-132478952D01*
X134727238Y-132431333D01*
X134536761Y-132431333D01*
X134441523Y-132478952D01*
X134393904Y-132526571D01*
X134346285Y-132621809D01*
X143109333Y-132955142D02*
X143061714Y-133002761D01*
X142918857Y-133050380D01*
X142823619Y-133050380D01*
X142680761Y-133002761D01*
X142585523Y-132907523D01*
X142537904Y-132812285D01*
X142490285Y-132621809D01*
X142490285Y-132478952D01*
X142537904Y-132288476D01*
X142585523Y-132193238D01*
X142680761Y-132098000D01*
X142823619Y-132050380D01*
X142918857Y-132050380D01*
X143061714Y-132098000D01*
X143109333Y-132145619D01*
X144014095Y-132050380D02*
X143537904Y-132050380D01*
X143490285Y-132526571D01*
X143537904Y-132478952D01*
X143633142Y-132431333D01*
X143871238Y-132431333D01*
X143966476Y-132478952D01*
X144014095Y-132526571D01*
X144061714Y-132621809D01*
X144061714Y-132859904D01*
X144014095Y-132955142D01*
X143966476Y-133002761D01*
X143871238Y-133050380D01*
X143633142Y-133050380D01*
X143537904Y-133002761D01*
X143490285Y-132955142D01*
X161143333Y-132955142D02*
X161095714Y-133002761D01*
X160952857Y-133050380D01*
X160857619Y-133050380D01*
X160714761Y-133002761D01*
X160619523Y-132907523D01*
X160571904Y-132812285D01*
X160524285Y-132621809D01*
X160524285Y-132478952D01*
X160571904Y-132288476D01*
X160619523Y-132193238D01*
X160714761Y-132098000D01*
X160857619Y-132050380D01*
X160952857Y-132050380D01*
X161095714Y-132098000D01*
X161143333Y-132145619D01*
X161476666Y-132050380D02*
X162095714Y-132050380D01*
X161762380Y-132431333D01*
X161905238Y-132431333D01*
X162000476Y-132478952D01*
X162048095Y-132526571D01*
X162095714Y-132621809D01*
X162095714Y-132859904D01*
X162048095Y-132955142D01*
X162000476Y-133002761D01*
X161905238Y-133050380D01*
X161619523Y-133050380D01*
X161524285Y-133002761D01*
X161476666Y-132955142D01*
X171049333Y-132955142D02*
X171001714Y-133002761D01*
X170858857Y-133050380D01*
X170763619Y-133050380D01*
X170620761Y-133002761D01*
X170525523Y-132907523D01*
X170477904Y-132812285D01*
X170430285Y-132621809D01*
X170430285Y-132478952D01*
X170477904Y-132288476D01*
X170525523Y-132193238D01*
X170620761Y-132098000D01*
X170763619Y-132050380D01*
X170858857Y-132050380D01*
X171001714Y-132098000D01*
X171049333Y-132145619D01*
X171430285Y-132145619D02*
X171477904Y-132098000D01*
X171573142Y-132050380D01*
X171811238Y-132050380D01*
X171906476Y-132098000D01*
X171954095Y-132145619D01*
X172001714Y-132240857D01*
X172001714Y-132336095D01*
X171954095Y-132478952D01*
X171382666Y-133050380D01*
X172001714Y-133050380D01*
X180701333Y-132955142D02*
X180653714Y-133002761D01*
X180510857Y-133050380D01*
X180415619Y-133050380D01*
X180272761Y-133002761D01*
X180177523Y-132907523D01*
X180129904Y-132812285D01*
X180082285Y-132621809D01*
X180082285Y-132478952D01*
X180129904Y-132288476D01*
X180177523Y-132193238D01*
X180272761Y-132098000D01*
X180415619Y-132050380D01*
X180510857Y-132050380D01*
X180653714Y-132098000D01*
X180701333Y-132145619D01*
X181653714Y-133050380D02*
X181082285Y-133050380D01*
X181368000Y-133050380D02*
X181368000Y-132050380D01*
X181272761Y-132193238D01*
X181177523Y-132288476D01*
X181082285Y-132336095D01*
X180967142Y-92654380D02*
X180633809Y-92178190D01*
X180395714Y-92654380D02*
X180395714Y-91654380D01*
X180776666Y-91654380D01*
X180871904Y-91702000D01*
X180919523Y-91749619D01*
X180967142Y-91844857D01*
X180967142Y-91987714D01*
X180919523Y-92082952D01*
X180871904Y-92130571D01*
X180776666Y-92178190D01*
X180395714Y-92178190D01*
X181919523Y-92654380D02*
X181348095Y-92654380D01*
X181633809Y-92654380D02*
X181633809Y-91654380D01*
X181538571Y-91797238D01*
X181443333Y-91892476D01*
X181348095Y-91940095D01*
X182252857Y-91654380D02*
X182871904Y-91654380D01*
X182538571Y-92035333D01*
X182681428Y-92035333D01*
X182776666Y-92082952D01*
X182824285Y-92130571D01*
X182871904Y-92225809D01*
X182871904Y-92463904D01*
X182824285Y-92559142D01*
X182776666Y-92606761D01*
X182681428Y-92654380D01*
X182395714Y-92654380D01*
X182300476Y-92606761D01*
X182252857Y-92559142D01*
X82827904Y-81732380D02*
X82827904Y-80732380D01*
X83208857Y-80732380D01*
X83304095Y-80780000D01*
X83351714Y-80827619D01*
X83399333Y-80922857D01*
X83399333Y-81065714D01*
X83351714Y-81160952D01*
X83304095Y-81208571D01*
X83208857Y-81256190D01*
X82827904Y-81256190D01*
X84351714Y-81732380D02*
X83780285Y-81732380D01*
X84066000Y-81732380D02*
X84066000Y-80732380D01*
X83970761Y-80875238D01*
X83875523Y-80970476D01*
X83780285Y-81018095D01*
X116414253Y-92400380D02*
X116080920Y-91924190D01*
X115842824Y-92400380D02*
X115842824Y-91400380D01*
X116223777Y-91400380D01*
X116319015Y-91448000D01*
X116366634Y-91495619D01*
X116414253Y-91590857D01*
X116414253Y-91733714D01*
X116366634Y-91828952D01*
X116319015Y-91876571D01*
X116223777Y-91924190D01*
X115842824Y-91924190D01*
X117271396Y-91400380D02*
X117080920Y-91400380D01*
X116985681Y-91448000D01*
X116938062Y-91495619D01*
X116842824Y-91638476D01*
X116795205Y-91828952D01*
X116795205Y-92209904D01*
X116842824Y-92305142D01*
X116890443Y-92352761D01*
X116985681Y-92400380D01*
X117176158Y-92400380D01*
X117271396Y-92352761D01*
X117319015Y-92305142D01*
X117366634Y-92209904D01*
X117366634Y-91971809D01*
X117319015Y-91876571D01*
X117271396Y-91828952D01*
X117176158Y-91781333D01*
X116985681Y-91781333D01*
X116890443Y-91828952D01*
X116842824Y-91876571D01*
X116795205Y-91971809D01*
X139215904Y-81732380D02*
X139215904Y-80732380D01*
X139596857Y-80732380D01*
X139692095Y-80780000D01*
X139739714Y-80827619D01*
X139787333Y-80922857D01*
X139787333Y-81065714D01*
X139739714Y-81160952D01*
X139692095Y-81208571D01*
X139596857Y-81256190D01*
X139215904Y-81256190D01*
X140644476Y-81065714D02*
X140644476Y-81732380D01*
X140406380Y-80684761D02*
X140168285Y-81399047D01*
X140787333Y-81399047D01*
X117117904Y-81986380D02*
X117117904Y-80986380D01*
X117498857Y-80986380D01*
X117594095Y-81034000D01*
X117641714Y-81081619D01*
X117689333Y-81176857D01*
X117689333Y-81319714D01*
X117641714Y-81414952D01*
X117594095Y-81462571D01*
X117498857Y-81510190D01*
X117117904Y-81510190D01*
X118022666Y-80986380D02*
X118641714Y-80986380D01*
X118308380Y-81367333D01*
X118451238Y-81367333D01*
X118546476Y-81414952D01*
X118594095Y-81462571D01*
X118641714Y-81557809D01*
X118641714Y-81795904D01*
X118594095Y-81891142D01*
X118546476Y-81938761D01*
X118451238Y-81986380D01*
X118165523Y-81986380D01*
X118070285Y-81938761D01*
X118022666Y-81891142D01*
X138771333Y-92400380D02*
X138438000Y-91924190D01*
X138199904Y-92400380D02*
X138199904Y-91400380D01*
X138580857Y-91400380D01*
X138676095Y-91448000D01*
X138723714Y-91495619D01*
X138771333Y-91590857D01*
X138771333Y-91733714D01*
X138723714Y-91828952D01*
X138676095Y-91876571D01*
X138580857Y-91924190D01*
X138199904Y-91924190D01*
X139247523Y-92400380D02*
X139438000Y-92400380D01*
X139533238Y-92352761D01*
X139580857Y-92305142D01*
X139676095Y-92162285D01*
X139723714Y-91971809D01*
X139723714Y-91590857D01*
X139676095Y-91495619D01*
X139628476Y-91448000D01*
X139533238Y-91400380D01*
X139342761Y-91400380D01*
X139247523Y-91448000D01*
X139199904Y-91495619D01*
X139152285Y-91590857D01*
X139152285Y-91828952D01*
X139199904Y-91924190D01*
X139247523Y-91971809D01*
X139342761Y-92019428D01*
X139533238Y-92019428D01*
X139628476Y-91971809D01*
X139676095Y-91924190D01*
X139723714Y-91828952D01*
X70921714Y-84272380D02*
X70921714Y-83272380D01*
X71302666Y-83272380D01*
X71397904Y-83320000D01*
X71445523Y-83367619D01*
X71493142Y-83462857D01*
X71493142Y-83605714D01*
X71445523Y-83700952D01*
X71397904Y-83748571D01*
X71302666Y-83796190D01*
X70921714Y-83796190D01*
X72445523Y-84272380D02*
X71874095Y-84272380D01*
X72159809Y-84272380D02*
X72159809Y-83272380D01*
X72064571Y-83415238D01*
X71969333Y-83510476D01*
X71874095Y-83558095D01*
X72826476Y-83367619D02*
X72874095Y-83320000D01*
X72969333Y-83272380D01*
X73207428Y-83272380D01*
X73302666Y-83320000D01*
X73350285Y-83367619D01*
X73397904Y-83462857D01*
X73397904Y-83558095D01*
X73350285Y-83700952D01*
X72778857Y-84272380D01*
X73397904Y-84272380D01*
X82129333Y-92146380D02*
X81796000Y-91670190D01*
X81557904Y-92146380D02*
X81557904Y-91146380D01*
X81938857Y-91146380D01*
X82034095Y-91194000D01*
X82081714Y-91241619D01*
X82129333Y-91336857D01*
X82129333Y-91479714D01*
X82081714Y-91574952D01*
X82034095Y-91622571D01*
X81938857Y-91670190D01*
X81557904Y-91670190D01*
X82462666Y-91146380D02*
X83081714Y-91146380D01*
X82748380Y-91527333D01*
X82891238Y-91527333D01*
X82986476Y-91574952D01*
X83034095Y-91622571D01*
X83081714Y-91717809D01*
X83081714Y-91955904D01*
X83034095Y-92051142D01*
X82986476Y-92098761D01*
X82891238Y-92146380D01*
X82605523Y-92146380D01*
X82510285Y-92098761D01*
X82462666Y-92051142D01*
X159880062Y-93162380D02*
X159546729Y-92686190D01*
X159308634Y-93162380D02*
X159308634Y-92162380D01*
X159689586Y-92162380D01*
X159784824Y-92210000D01*
X159832443Y-92257619D01*
X159880062Y-92352857D01*
X159880062Y-92495714D01*
X159832443Y-92590952D01*
X159784824Y-92638571D01*
X159689586Y-92686190D01*
X159308634Y-92686190D01*
X160832443Y-93162380D02*
X160261015Y-93162380D01*
X160546729Y-93162380D02*
X160546729Y-92162380D01*
X160451491Y-92305238D01*
X160356253Y-92400476D01*
X160261015Y-92448095D01*
X161784824Y-93162380D02*
X161213396Y-93162380D01*
X161499110Y-93162380D02*
X161499110Y-92162380D01*
X161403872Y-92305238D01*
X161308634Y-92400476D01*
X161213396Y-92448095D01*
X161059904Y-81732380D02*
X161059904Y-80732380D01*
X161440857Y-80732380D01*
X161536095Y-80780000D01*
X161583714Y-80827619D01*
X161631333Y-80922857D01*
X161631333Y-81065714D01*
X161583714Y-81160952D01*
X161536095Y-81208571D01*
X161440857Y-81256190D01*
X161059904Y-81256190D01*
X162202761Y-81160952D02*
X162107523Y-81113333D01*
X162059904Y-81065714D01*
X162012285Y-80970476D01*
X162012285Y-80922857D01*
X162059904Y-80827619D01*
X162107523Y-80780000D01*
X162202761Y-80732380D01*
X162393238Y-80732380D01*
X162488476Y-80780000D01*
X162536095Y-80827619D01*
X162583714Y-80922857D01*
X162583714Y-80970476D01*
X162536095Y-81065714D01*
X162488476Y-81113333D01*
X162393238Y-81160952D01*
X162202761Y-81160952D01*
X162107523Y-81208571D01*
X162059904Y-81256190D01*
X162012285Y-81351428D01*
X162012285Y-81541904D01*
X162059904Y-81637142D01*
X162107523Y-81684761D01*
X162202761Y-81732380D01*
X162393238Y-81732380D01*
X162488476Y-81684761D01*
X162536095Y-81637142D01*
X162583714Y-81541904D01*
X162583714Y-81351428D01*
X162536095Y-81256190D01*
X162488476Y-81208571D01*
X162393238Y-81160952D01*
X182141904Y-81732380D02*
X182141904Y-80732380D01*
X182522857Y-80732380D01*
X182618095Y-80780000D01*
X182665714Y-80827619D01*
X182713333Y-80922857D01*
X182713333Y-81065714D01*
X182665714Y-81160952D01*
X182618095Y-81208571D01*
X182522857Y-81256190D01*
X182141904Y-81256190D01*
X183189523Y-81732380D02*
X183380000Y-81732380D01*
X183475238Y-81684761D01*
X183522857Y-81637142D01*
X183618095Y-81494285D01*
X183665714Y-81303809D01*
X183665714Y-80922857D01*
X183618095Y-80827619D01*
X183570476Y-80780000D01*
X183475238Y-80732380D01*
X183284761Y-80732380D01*
X183189523Y-80780000D01*
X183141904Y-80827619D01*
X183094285Y-80922857D01*
X183094285Y-81160952D01*
X183141904Y-81256190D01*
X183189523Y-81303809D01*
X183284761Y-81351428D01*
X183475238Y-81351428D01*
X183570476Y-81303809D01*
X183618095Y-81256190D01*
X183665714Y-81160952D01*
X231084380Y-120880095D02*
X230084380Y-120880095D01*
X230084380Y-120499142D01*
X230132000Y-120403904D01*
X230179619Y-120356285D01*
X230274857Y-120308666D01*
X230417714Y-120308666D01*
X230512952Y-120356285D01*
X230560571Y-120403904D01*
X230608190Y-120499142D01*
X230608190Y-120880095D01*
X230084380Y-119975333D02*
X230084380Y-119308666D01*
X231084380Y-119737238D01*
X152503333Y-132955142D02*
X152455714Y-133002761D01*
X152312857Y-133050380D01*
X152217619Y-133050380D01*
X152074761Y-133002761D01*
X151979523Y-132907523D01*
X151931904Y-132812285D01*
X151884285Y-132621809D01*
X151884285Y-132478952D01*
X151931904Y-132288476D01*
X151979523Y-132193238D01*
X152074761Y-132098000D01*
X152217619Y-132050380D01*
X152312857Y-132050380D01*
X152455714Y-132098000D01*
X152503333Y-132145619D01*
X153360476Y-132383714D02*
X153360476Y-133050380D01*
X153122380Y-132002761D02*
X152884285Y-132717047D01*
X153503333Y-132717047D01*
X231084380Y-133326095D02*
X230084380Y-133326095D01*
X230084380Y-132945142D01*
X230132000Y-132849904D01*
X230179619Y-132802285D01*
X230274857Y-132754666D01*
X230417714Y-132754666D01*
X230512952Y-132802285D01*
X230560571Y-132849904D01*
X230608190Y-132945142D01*
X230608190Y-133326095D01*
X230179619Y-132373714D02*
X230132000Y-132326095D01*
X230084380Y-132230857D01*
X230084380Y-131992761D01*
X230132000Y-131897523D01*
X230179619Y-131849904D01*
X230274857Y-131802285D01*
X230370095Y-131802285D01*
X230512952Y-131849904D01*
X231084380Y-132421333D01*
X231084380Y-131802285D01*
X203398380Y-128563595D02*
X202398380Y-128563595D01*
X202398380Y-128182642D01*
X202446000Y-128087404D01*
X202493619Y-128039785D01*
X202588857Y-127992166D01*
X202731714Y-127992166D01*
X202826952Y-128039785D01*
X202874571Y-128087404D01*
X202922190Y-128182642D01*
X202922190Y-128563595D01*
X202398380Y-127087404D02*
X202398380Y-127563595D01*
X202874571Y-127611214D01*
X202826952Y-127563595D01*
X202779333Y-127468357D01*
X202779333Y-127230261D01*
X202826952Y-127135023D01*
X202874571Y-127087404D01*
X202969809Y-127039785D01*
X203207904Y-127039785D01*
X203303142Y-127087404D01*
X203350761Y-127135023D01*
X203398380Y-127230261D01*
X203398380Y-127468357D01*
X203350761Y-127563595D01*
X203303142Y-127611214D01*
X72842380Y-105640095D02*
X71842380Y-105640095D01*
X71842380Y-105259142D01*
X71890000Y-105163904D01*
X71937619Y-105116285D01*
X72032857Y-105068666D01*
X72175714Y-105068666D01*
X72270952Y-105116285D01*
X72318571Y-105163904D01*
X72366190Y-105259142D01*
X72366190Y-105640095D01*
X71842380Y-104211523D02*
X71842380Y-104402000D01*
X71890000Y-104497238D01*
X71937619Y-104544857D01*
X72080476Y-104640095D01*
X72270952Y-104687714D01*
X72651904Y-104687714D01*
X72747142Y-104640095D01*
X72794761Y-104592476D01*
X72842380Y-104497238D01*
X72842380Y-104306761D01*
X72794761Y-104211523D01*
X72747142Y-104163904D01*
X72651904Y-104116285D01*
X72413809Y-104116285D01*
X72318571Y-104163904D01*
X72270952Y-104211523D01*
X72223333Y-104306761D01*
X72223333Y-104497238D01*
X72270952Y-104592476D01*
X72318571Y-104640095D01*
X72413809Y-104687714D01*
X230830380Y-109164285D02*
X229830380Y-109164285D01*
X229830380Y-108783333D01*
X229878000Y-108688095D01*
X229925619Y-108640476D01*
X230020857Y-108592857D01*
X230163714Y-108592857D01*
X230258952Y-108640476D01*
X230306571Y-108688095D01*
X230354190Y-108783333D01*
X230354190Y-109164285D01*
X230830380Y-107640476D02*
X230830380Y-108211904D01*
X230830380Y-107926190D02*
X229830380Y-107926190D01*
X229973238Y-108021428D01*
X230068476Y-108116666D01*
X230116095Y-108211904D01*
X229830380Y-107021428D02*
X229830380Y-106926190D01*
X229878000Y-106830952D01*
X229925619Y-106783333D01*
X230020857Y-106735714D01*
X230211333Y-106688095D01*
X230449428Y-106688095D01*
X230639904Y-106735714D01*
X230735142Y-106783333D01*
X230782761Y-106830952D01*
X230830380Y-106926190D01*
X230830380Y-107021428D01*
X230782761Y-107116666D01*
X230735142Y-107164285D01*
X230639904Y-107211904D01*
X230449428Y-107259523D01*
X230211333Y-107259523D01*
X230020857Y-107211904D01*
X229925619Y-107164285D01*
X229878000Y-107116666D01*
X229830380Y-107021428D01*
X214177714Y-81478380D02*
X214177714Y-80478380D01*
X214558666Y-80478380D01*
X214653904Y-80526000D01*
X214701523Y-80573619D01*
X214749142Y-80668857D01*
X214749142Y-80811714D01*
X214701523Y-80906952D01*
X214653904Y-80954571D01*
X214558666Y-81002190D01*
X214177714Y-81002190D01*
X215701523Y-81478380D02*
X215130095Y-81478380D01*
X215415809Y-81478380D02*
X215415809Y-80478380D01*
X215320571Y-80621238D01*
X215225333Y-80716476D01*
X215130095Y-80764095D01*
X216653904Y-81478380D02*
X216082476Y-81478380D01*
X216368190Y-81478380D02*
X216368190Y-80478380D01*
X216272952Y-80621238D01*
X216177714Y-80716476D01*
X216082476Y-80764095D01*
X227274380Y-92400285D02*
X226274380Y-92400285D01*
X226274380Y-92019333D01*
X226322000Y-91924095D01*
X226369619Y-91876476D01*
X226464857Y-91828857D01*
X226607714Y-91828857D01*
X226702952Y-91876476D01*
X226750571Y-91924095D01*
X226798190Y-92019333D01*
X226798190Y-92400285D01*
X227274380Y-90876476D02*
X227274380Y-91447904D01*
X227274380Y-91162190D02*
X226274380Y-91162190D01*
X226417238Y-91257428D01*
X226512476Y-91352666D01*
X226560095Y-91447904D01*
X226274380Y-90543142D02*
X226274380Y-89924095D01*
X226655333Y-90257428D01*
X226655333Y-90114571D01*
X226702952Y-90019333D01*
X226750571Y-89971714D01*
X226845809Y-89924095D01*
X227083904Y-89924095D01*
X227179142Y-89971714D01*
X227226761Y-90019333D01*
X227274380Y-90114571D01*
X227274380Y-90400285D01*
X227226761Y-90495523D01*
X227179142Y-90543142D01*
X177490380Y-126470666D02*
X177014190Y-126804000D01*
X177490380Y-127042095D02*
X176490380Y-127042095D01*
X176490380Y-126661142D01*
X176538000Y-126565904D01*
X176585619Y-126518285D01*
X176680857Y-126470666D01*
X176823714Y-126470666D01*
X176918952Y-126518285D01*
X176966571Y-126565904D01*
X177014190Y-126661142D01*
X177014190Y-127042095D01*
X176585619Y-126089714D02*
X176538000Y-126042095D01*
X176490380Y-125946857D01*
X176490380Y-125708761D01*
X176538000Y-125613523D01*
X176585619Y-125565904D01*
X176680857Y-125518285D01*
X176776095Y-125518285D01*
X176918952Y-125565904D01*
X177490380Y-126137333D01*
X177490380Y-125518285D01*
X167076380Y-126564666D02*
X166600190Y-126898000D01*
X167076380Y-127136095D02*
X166076380Y-127136095D01*
X166076380Y-126755142D01*
X166124000Y-126659904D01*
X166171619Y-126612285D01*
X166266857Y-126564666D01*
X166409714Y-126564666D01*
X166504952Y-126612285D01*
X166552571Y-126659904D01*
X166600190Y-126755142D01*
X166600190Y-127136095D01*
X166076380Y-125659904D02*
X166076380Y-126136095D01*
X166552571Y-126183714D01*
X166504952Y-126136095D01*
X166457333Y-126040857D01*
X166457333Y-125802761D01*
X166504952Y-125707523D01*
X166552571Y-125659904D01*
X166647809Y-125612285D01*
X166885904Y-125612285D01*
X166981142Y-125659904D01*
X167028761Y-125707523D01*
X167076380Y-125802761D01*
X167076380Y-126040857D01*
X167028761Y-126136095D01*
X166981142Y-126183714D01*
X157932380Y-126470666D02*
X157456190Y-126804000D01*
X157932380Y-127042095D02*
X156932380Y-127042095D01*
X156932380Y-126661142D01*
X156980000Y-126565904D01*
X157027619Y-126518285D01*
X157122857Y-126470666D01*
X157265714Y-126470666D01*
X157360952Y-126518285D01*
X157408571Y-126565904D01*
X157456190Y-126661142D01*
X157456190Y-127042095D01*
X157360952Y-125899238D02*
X157313333Y-125994476D01*
X157265714Y-126042095D01*
X157170476Y-126089714D01*
X157122857Y-126089714D01*
X157027619Y-126042095D01*
X156980000Y-125994476D01*
X156932380Y-125899238D01*
X156932380Y-125708761D01*
X156980000Y-125613523D01*
X157027619Y-125565904D01*
X157122857Y-125518285D01*
X157170476Y-125518285D01*
X157265714Y-125565904D01*
X157313333Y-125613523D01*
X157360952Y-125708761D01*
X157360952Y-125899238D01*
X157408571Y-125994476D01*
X157456190Y-126042095D01*
X157551428Y-126089714D01*
X157741904Y-126089714D01*
X157837142Y-126042095D01*
X157884761Y-125994476D01*
X157932380Y-125899238D01*
X157932380Y-125708761D01*
X157884761Y-125613523D01*
X157837142Y-125565904D01*
X157741904Y-125518285D01*
X157551428Y-125518285D01*
X157456190Y-125565904D01*
X157408571Y-125613523D01*
X157360952Y-125708761D01*
X148788380Y-126946857D02*
X148312190Y-127280190D01*
X148788380Y-127518285D02*
X147788380Y-127518285D01*
X147788380Y-127137333D01*
X147836000Y-127042095D01*
X147883619Y-126994476D01*
X147978857Y-126946857D01*
X148121714Y-126946857D01*
X148216952Y-126994476D01*
X148264571Y-127042095D01*
X148312190Y-127137333D01*
X148312190Y-127518285D01*
X148788380Y-125994476D02*
X148788380Y-126565904D01*
X148788380Y-126280190D02*
X147788380Y-126280190D01*
X147931238Y-126375428D01*
X148026476Y-126470666D01*
X148074095Y-126565904D01*
X147883619Y-125613523D02*
X147836000Y-125565904D01*
X147788380Y-125470666D01*
X147788380Y-125232571D01*
X147836000Y-125137333D01*
X147883619Y-125089714D01*
X147978857Y-125042095D01*
X148074095Y-125042095D01*
X148216952Y-125089714D01*
X148788380Y-125661142D01*
X148788380Y-125042095D01*
X139898380Y-126946857D02*
X139422190Y-127280190D01*
X139898380Y-127518285D02*
X138898380Y-127518285D01*
X138898380Y-127137333D01*
X138946000Y-127042095D01*
X138993619Y-126994476D01*
X139088857Y-126946857D01*
X139231714Y-126946857D01*
X139326952Y-126994476D01*
X139374571Y-127042095D01*
X139422190Y-127137333D01*
X139422190Y-127518285D01*
X139898380Y-125994476D02*
X139898380Y-126565904D01*
X139898380Y-126280190D02*
X138898380Y-126280190D01*
X139041238Y-126375428D01*
X139136476Y-126470666D01*
X139184095Y-126565904D01*
X138898380Y-125089714D02*
X138898380Y-125565904D01*
X139374571Y-125613523D01*
X139326952Y-125565904D01*
X139279333Y-125470666D01*
X139279333Y-125232571D01*
X139326952Y-125137333D01*
X139374571Y-125089714D01*
X139469809Y-125042095D01*
X139707904Y-125042095D01*
X139803142Y-125089714D01*
X139850761Y-125137333D01*
X139898380Y-125232571D01*
X139898380Y-125470666D01*
X139850761Y-125565904D01*
X139803142Y-125613523D01*
X213733142Y-89606380D02*
X213399809Y-89130190D01*
X213161714Y-89606380D02*
X213161714Y-88606380D01*
X213542666Y-88606380D01*
X213637904Y-88654000D01*
X213685523Y-88701619D01*
X213733142Y-88796857D01*
X213733142Y-88939714D01*
X213685523Y-89034952D01*
X213637904Y-89082571D01*
X213542666Y-89130190D01*
X213161714Y-89130190D01*
X214685523Y-89606380D02*
X214114095Y-89606380D01*
X214399809Y-89606380D02*
X214399809Y-88606380D01*
X214304571Y-88749238D01*
X214209333Y-88844476D01*
X214114095Y-88892095D01*
X215542666Y-88606380D02*
X215352190Y-88606380D01*
X215256952Y-88654000D01*
X215209333Y-88701619D01*
X215114095Y-88844476D01*
X215066476Y-89034952D01*
X215066476Y-89415904D01*
X215114095Y-89511142D01*
X215161714Y-89558761D01*
X215256952Y-89606380D01*
X215447428Y-89606380D01*
X215542666Y-89558761D01*
X215590285Y-89511142D01*
X215637904Y-89415904D01*
X215637904Y-89177809D01*
X215590285Y-89082571D01*
X215542666Y-89034952D01*
X215447428Y-88987333D01*
X215256952Y-88987333D01*
X215161714Y-89034952D01*
X215114095Y-89082571D01*
X215066476Y-89177809D01*
X130754380Y-127200857D02*
X130278190Y-127534190D01*
X130754380Y-127772285D02*
X129754380Y-127772285D01*
X129754380Y-127391333D01*
X129802000Y-127296095D01*
X129849619Y-127248476D01*
X129944857Y-127200857D01*
X130087714Y-127200857D01*
X130182952Y-127248476D01*
X130230571Y-127296095D01*
X130278190Y-127391333D01*
X130278190Y-127772285D01*
X130754380Y-126248476D02*
X130754380Y-126819904D01*
X130754380Y-126534190D02*
X129754380Y-126534190D01*
X129897238Y-126629428D01*
X129992476Y-126724666D01*
X130040095Y-126819904D01*
X130182952Y-125677047D02*
X130135333Y-125772285D01*
X130087714Y-125819904D01*
X129992476Y-125867523D01*
X129944857Y-125867523D01*
X129849619Y-125819904D01*
X129802000Y-125772285D01*
X129754380Y-125677047D01*
X129754380Y-125486571D01*
X129802000Y-125391333D01*
X129849619Y-125343714D01*
X129944857Y-125296095D01*
X129992476Y-125296095D01*
X130087714Y-125343714D01*
X130135333Y-125391333D01*
X130182952Y-125486571D01*
X130182952Y-125677047D01*
X130230571Y-125772285D01*
X130278190Y-125819904D01*
X130373428Y-125867523D01*
X130563904Y-125867523D01*
X130659142Y-125819904D01*
X130706761Y-125772285D01*
X130754380Y-125677047D01*
X130754380Y-125486571D01*
X130706761Y-125391333D01*
X130659142Y-125343714D01*
X130563904Y-125296095D01*
X130373428Y-125296095D01*
X130278190Y-125343714D01*
X130230571Y-125391333D01*
X130182952Y-125486571D01*
M02*
