%FSLAX45Y45*%
G04 Gerber Fmt 4.5, Leading zero omitted, Abs format (unit mm)*
G04 Created by KiCad (PCBNEW no-vcs-found-undefined) date Tue Oct 25 21:33:48 2016*
%MOMM*%
%LPD*%
G01*
G04 APERTURE LIST*
%ADD10C,0.127000*%
%ADD11C,0.100000*%
%ADD12C,0.200000*%
%ADD13C,0.300000*%
G04 APERTURE END LIST*
D10*
D11*
X6654800Y-14376400D02*
X6654800Y-7213600D01*
X23672800Y-14376400D02*
X6654800Y-14376400D01*
X23672800Y-7213600D02*
X23672800Y-14376400D01*
X6654800Y-7213600D02*
X23672800Y-7213600D01*
D12*
X6875000Y-13936200D02*
X7095000Y-14156200D01*
X7095000Y-13936200D02*
X6875000Y-14156200D01*
X10075400Y-8907000D02*
X10295400Y-9127000D01*
X10295400Y-8907000D02*
X10075400Y-9127000D01*
X23181800Y-7484600D02*
X23401800Y-7704600D01*
X23401800Y-7484600D02*
X23181800Y-7704600D01*
X23283400Y-13987000D02*
X23503400Y-14207000D01*
X23503400Y-13987000D02*
X23283400Y-14207000D01*
D13*
X6936228Y-14847114D02*
X6936228Y-14547114D01*
X7007657Y-14547114D01*
X7050514Y-14561400D01*
X7079086Y-14589971D01*
X7093371Y-14618543D01*
X7107657Y-14675686D01*
X7107657Y-14718543D01*
X7093371Y-14775686D01*
X7079086Y-14804257D01*
X7050514Y-14832829D01*
X7007657Y-14847114D01*
X6936228Y-14847114D01*
X7236228Y-14847114D02*
X7236228Y-14647114D01*
X7236228Y-14704257D02*
X7250514Y-14675686D01*
X7264800Y-14661400D01*
X7293371Y-14647114D01*
X7321943Y-14647114D01*
X7421943Y-14847114D02*
X7421943Y-14647114D01*
X7421943Y-14547114D02*
X7407657Y-14561400D01*
X7421943Y-14575686D01*
X7436228Y-14561400D01*
X7421943Y-14547114D01*
X7421943Y-14575686D01*
X7607657Y-14847114D02*
X7579086Y-14832829D01*
X7564800Y-14804257D01*
X7564800Y-14547114D01*
X7764800Y-14847114D02*
X7736228Y-14832829D01*
X7721943Y-14804257D01*
X7721943Y-14547114D01*
X8107657Y-14847114D02*
X8107657Y-14547114D01*
X8207657Y-14761400D01*
X8307657Y-14547114D01*
X8307657Y-14847114D01*
X8579086Y-14847114D02*
X8579086Y-14689971D01*
X8564800Y-14661400D01*
X8536228Y-14647114D01*
X8479086Y-14647114D01*
X8450514Y-14661400D01*
X8579086Y-14832829D02*
X8550514Y-14847114D01*
X8479086Y-14847114D01*
X8450514Y-14832829D01*
X8436228Y-14804257D01*
X8436228Y-14775686D01*
X8450514Y-14747114D01*
X8479086Y-14732829D01*
X8550514Y-14732829D01*
X8579086Y-14718543D01*
X8721943Y-14647114D02*
X8721943Y-14947114D01*
X8721943Y-14661400D02*
X8750514Y-14647114D01*
X8807657Y-14647114D01*
X8836228Y-14661400D01*
X8850514Y-14675686D01*
X8864800Y-14704257D01*
X8864800Y-14789971D01*
X8850514Y-14818543D01*
X8836228Y-14832829D01*
X8807657Y-14847114D01*
X8750514Y-14847114D01*
X8721943Y-14832829D01*
X8993371Y-14818543D02*
X9007657Y-14832829D01*
X8993371Y-14847114D01*
X8979086Y-14832829D01*
X8993371Y-14818543D01*
X8993371Y-14847114D01*
X8993371Y-14661400D02*
X9007657Y-14675686D01*
X8993371Y-14689971D01*
X8979086Y-14675686D01*
X8993371Y-14661400D01*
X8993371Y-14689971D01*
X6429800Y-15231400D02*
X6649800Y-15451400D01*
X6649800Y-15231400D02*
X6429800Y-15451400D01*
X6921943Y-15205686D02*
X6936228Y-15191400D01*
X6964800Y-15177114D01*
X7036228Y-15177114D01*
X7064800Y-15191400D01*
X7079086Y-15205686D01*
X7093371Y-15234257D01*
X7093371Y-15262829D01*
X7079086Y-15305686D01*
X6907657Y-15477114D01*
X7093371Y-15477114D01*
X7221943Y-15448543D02*
X7236228Y-15462829D01*
X7221943Y-15477114D01*
X7207657Y-15462829D01*
X7221943Y-15448543D01*
X7221943Y-15477114D01*
X7350514Y-15205686D02*
X7364800Y-15191400D01*
X7393371Y-15177114D01*
X7464800Y-15177114D01*
X7493371Y-15191400D01*
X7507657Y-15205686D01*
X7521943Y-15234257D01*
X7521943Y-15262829D01*
X7507657Y-15305686D01*
X7336228Y-15477114D01*
X7521943Y-15477114D01*
X7707657Y-15177114D02*
X7736228Y-15177114D01*
X7764800Y-15191400D01*
X7779086Y-15205686D01*
X7793371Y-15234257D01*
X7807657Y-15291400D01*
X7807657Y-15362829D01*
X7793371Y-15419971D01*
X7779086Y-15448543D01*
X7764800Y-15462829D01*
X7736228Y-15477114D01*
X7707657Y-15477114D01*
X7679086Y-15462829D01*
X7664800Y-15448543D01*
X7650514Y-15419971D01*
X7636228Y-15362829D01*
X7636228Y-15291400D01*
X7650514Y-15234257D01*
X7664800Y-15205686D01*
X7679086Y-15191400D01*
X7707657Y-15177114D01*
X7936228Y-15477114D02*
X7936228Y-15277114D01*
X7936228Y-15305686D02*
X7950514Y-15291400D01*
X7979086Y-15277114D01*
X8021943Y-15277114D01*
X8050514Y-15291400D01*
X8064800Y-15319971D01*
X8064800Y-15477114D01*
X8064800Y-15319971D02*
X8079086Y-15291400D01*
X8107657Y-15277114D01*
X8150514Y-15277114D01*
X8179086Y-15291400D01*
X8193371Y-15319971D01*
X8193371Y-15477114D01*
X8336228Y-15477114D02*
X8336228Y-15277114D01*
X8336228Y-15305686D02*
X8350514Y-15291400D01*
X8379086Y-15277114D01*
X8421943Y-15277114D01*
X8450514Y-15291400D01*
X8464800Y-15319971D01*
X8464800Y-15477114D01*
X8464800Y-15319971D02*
X8479086Y-15291400D01*
X8507657Y-15277114D01*
X8550514Y-15277114D01*
X8579086Y-15291400D01*
X8593371Y-15319971D01*
X8593371Y-15477114D01*
X9179086Y-15162829D02*
X8921943Y-15548543D01*
X9564800Y-15177114D02*
X9593371Y-15177114D01*
X9621943Y-15191400D01*
X9636228Y-15205686D01*
X9650514Y-15234257D01*
X9664800Y-15291400D01*
X9664800Y-15362829D01*
X9650514Y-15419971D01*
X9636228Y-15448543D01*
X9621943Y-15462829D01*
X9593371Y-15477114D01*
X9564800Y-15477114D01*
X9536228Y-15462829D01*
X9521943Y-15448543D01*
X9507657Y-15419971D01*
X9493371Y-15362829D01*
X9493371Y-15291400D01*
X9507657Y-15234257D01*
X9521943Y-15205686D01*
X9536228Y-15191400D01*
X9564800Y-15177114D01*
X9793371Y-15448543D02*
X9807657Y-15462829D01*
X9793371Y-15477114D01*
X9779086Y-15462829D01*
X9793371Y-15448543D01*
X9793371Y-15477114D01*
X9993371Y-15177114D02*
X10021943Y-15177114D01*
X10050514Y-15191400D01*
X10064800Y-15205686D01*
X10079086Y-15234257D01*
X10093371Y-15291400D01*
X10093371Y-15362829D01*
X10079086Y-15419971D01*
X10064800Y-15448543D01*
X10050514Y-15462829D01*
X10021943Y-15477114D01*
X9993371Y-15477114D01*
X9964800Y-15462829D01*
X9950514Y-15448543D01*
X9936228Y-15419971D01*
X9921943Y-15362829D01*
X9921943Y-15291400D01*
X9936228Y-15234257D01*
X9950514Y-15205686D01*
X9964800Y-15191400D01*
X9993371Y-15177114D01*
X10264800Y-15305686D02*
X10236228Y-15291400D01*
X10221943Y-15277114D01*
X10207657Y-15248543D01*
X10207657Y-15234257D01*
X10221943Y-15205686D01*
X10236228Y-15191400D01*
X10264800Y-15177114D01*
X10321943Y-15177114D01*
X10350514Y-15191400D01*
X10364800Y-15205686D01*
X10379086Y-15234257D01*
X10379086Y-15248543D01*
X10364800Y-15277114D01*
X10350514Y-15291400D01*
X10321943Y-15305686D01*
X10264800Y-15305686D01*
X10236228Y-15319971D01*
X10221943Y-15334257D01*
X10207657Y-15362829D01*
X10207657Y-15419971D01*
X10221943Y-15448543D01*
X10236228Y-15462829D01*
X10264800Y-15477114D01*
X10321943Y-15477114D01*
X10350514Y-15462829D01*
X10364800Y-15448543D01*
X10379086Y-15419971D01*
X10379086Y-15362829D01*
X10364800Y-15334257D01*
X10350514Y-15319971D01*
X10321943Y-15305686D01*
X10479086Y-15177114D02*
X10679086Y-15177114D01*
X10550514Y-15477114D01*
X10779086Y-15177114D02*
X10779086Y-15234257D01*
X10893371Y-15177114D02*
X10893371Y-15234257D01*
X11336228Y-15591400D02*
X11321943Y-15577114D01*
X11293371Y-15534257D01*
X11279086Y-15505686D01*
X11264800Y-15462829D01*
X11250514Y-15391400D01*
X11250514Y-15334257D01*
X11264800Y-15262829D01*
X11279086Y-15219971D01*
X11293371Y-15191400D01*
X11321943Y-15148543D01*
X11336228Y-15134257D01*
X11579086Y-15277114D02*
X11579086Y-15477114D01*
X11507657Y-15162829D02*
X11436228Y-15377114D01*
X11621943Y-15377114D01*
X11964800Y-15477114D02*
X11964800Y-15177114D01*
X12093371Y-15477114D02*
X12093371Y-15319971D01*
X12079086Y-15291400D01*
X12050514Y-15277114D01*
X12007657Y-15277114D01*
X11979086Y-15291400D01*
X11964800Y-15305686D01*
X12279086Y-15477114D02*
X12250514Y-15462829D01*
X12236228Y-15448543D01*
X12221943Y-15419971D01*
X12221943Y-15334257D01*
X12236228Y-15305686D01*
X12250514Y-15291400D01*
X12279086Y-15277114D01*
X12321943Y-15277114D01*
X12350514Y-15291400D01*
X12364800Y-15305686D01*
X12379086Y-15334257D01*
X12379086Y-15419971D01*
X12364800Y-15448543D01*
X12350514Y-15462829D01*
X12321943Y-15477114D01*
X12279086Y-15477114D01*
X12550514Y-15477114D02*
X12521943Y-15462829D01*
X12507657Y-15434257D01*
X12507657Y-15177114D01*
X12779086Y-15462829D02*
X12750514Y-15477114D01*
X12693371Y-15477114D01*
X12664800Y-15462829D01*
X12650514Y-15434257D01*
X12650514Y-15319971D01*
X12664800Y-15291400D01*
X12693371Y-15277114D01*
X12750514Y-15277114D01*
X12779086Y-15291400D01*
X12793371Y-15319971D01*
X12793371Y-15348543D01*
X12650514Y-15377114D01*
X12907657Y-15462829D02*
X12936228Y-15477114D01*
X12993371Y-15477114D01*
X13021943Y-15462829D01*
X13036228Y-15434257D01*
X13036228Y-15419971D01*
X13021943Y-15391400D01*
X12993371Y-15377114D01*
X12950514Y-15377114D01*
X12921943Y-15362829D01*
X12907657Y-15334257D01*
X12907657Y-15319971D01*
X12921943Y-15291400D01*
X12950514Y-15277114D01*
X12993371Y-15277114D01*
X13021943Y-15291400D01*
X13136228Y-15591400D02*
X13150514Y-15577114D01*
X13179086Y-15534257D01*
X13193371Y-15505686D01*
X13207657Y-15462829D01*
X13221943Y-15391400D01*
X13221943Y-15334257D01*
X13207657Y-15262829D01*
X13193371Y-15219971D01*
X13179086Y-15191400D01*
X13150514Y-15148543D01*
X13136228Y-15134257D01*
X13679086Y-15591400D02*
X13664800Y-15577114D01*
X13636228Y-15534257D01*
X13621943Y-15505686D01*
X13607657Y-15462829D01*
X13593371Y-15391400D01*
X13593371Y-15334257D01*
X13607657Y-15262829D01*
X13621943Y-15219971D01*
X13636228Y-15191400D01*
X13664800Y-15148543D01*
X13679086Y-15134257D01*
X13793371Y-15277114D02*
X13793371Y-15477114D01*
X13793371Y-15305686D02*
X13807657Y-15291400D01*
X13836228Y-15277114D01*
X13879086Y-15277114D01*
X13907657Y-15291400D01*
X13921943Y-15319971D01*
X13921943Y-15477114D01*
X14107657Y-15477114D02*
X14079086Y-15462829D01*
X14064800Y-15448543D01*
X14050514Y-15419971D01*
X14050514Y-15334257D01*
X14064800Y-15305686D01*
X14079086Y-15291400D01*
X14107657Y-15277114D01*
X14150514Y-15277114D01*
X14179086Y-15291400D01*
X14193371Y-15305686D01*
X14207657Y-15334257D01*
X14207657Y-15419971D01*
X14193371Y-15448543D01*
X14179086Y-15462829D01*
X14150514Y-15477114D01*
X14107657Y-15477114D01*
X14293371Y-15277114D02*
X14407657Y-15277114D01*
X14336228Y-15177114D02*
X14336228Y-15434257D01*
X14350514Y-15462829D01*
X14379086Y-15477114D01*
X14407657Y-15477114D01*
X14736228Y-15277114D02*
X14736228Y-15577114D01*
X14736228Y-15291400D02*
X14764800Y-15277114D01*
X14821943Y-15277114D01*
X14850514Y-15291400D01*
X14864800Y-15305686D01*
X14879086Y-15334257D01*
X14879086Y-15419971D01*
X14864800Y-15448543D01*
X14850514Y-15462829D01*
X14821943Y-15477114D01*
X14764800Y-15477114D01*
X14736228Y-15462829D01*
X15050514Y-15477114D02*
X15021943Y-15462829D01*
X15007657Y-15434257D01*
X15007657Y-15177114D01*
X15293371Y-15477114D02*
X15293371Y-15319971D01*
X15279086Y-15291400D01*
X15250514Y-15277114D01*
X15193371Y-15277114D01*
X15164800Y-15291400D01*
X15293371Y-15462829D02*
X15264800Y-15477114D01*
X15193371Y-15477114D01*
X15164800Y-15462829D01*
X15150514Y-15434257D01*
X15150514Y-15405686D01*
X15164800Y-15377114D01*
X15193371Y-15362829D01*
X15264800Y-15362829D01*
X15293371Y-15348543D01*
X15393371Y-15277114D02*
X15507657Y-15277114D01*
X15436228Y-15177114D02*
X15436228Y-15434257D01*
X15450514Y-15462829D01*
X15479086Y-15477114D01*
X15507657Y-15477114D01*
X15721943Y-15462829D02*
X15693371Y-15477114D01*
X15636228Y-15477114D01*
X15607657Y-15462829D01*
X15593371Y-15434257D01*
X15593371Y-15319971D01*
X15607657Y-15291400D01*
X15636228Y-15277114D01*
X15693371Y-15277114D01*
X15721943Y-15291400D01*
X15736228Y-15319971D01*
X15736228Y-15348543D01*
X15593371Y-15377114D01*
X15993371Y-15477114D02*
X15993371Y-15177114D01*
X15993371Y-15462829D02*
X15964800Y-15477114D01*
X15907657Y-15477114D01*
X15879086Y-15462829D01*
X15864800Y-15448543D01*
X15850514Y-15419971D01*
X15850514Y-15334257D01*
X15864800Y-15305686D01*
X15879086Y-15291400D01*
X15907657Y-15277114D01*
X15964800Y-15277114D01*
X15993371Y-15291400D01*
X16107657Y-15591400D02*
X16121943Y-15577114D01*
X16150514Y-15534257D01*
X16164800Y-15505686D01*
X16179086Y-15462829D01*
X16193371Y-15391400D01*
X16193371Y-15334257D01*
X16179086Y-15262829D01*
X16164800Y-15219971D01*
X16150514Y-15191400D01*
X16121943Y-15148543D01*
X16107657Y-15134257D01*
M02*
