G04 #@! TF.FileFunction,Copper,L2,Bot,Signal*
%FSLAX46Y46*%
G04 Gerber Fmt 4.6, Leading zero omitted, Abs format (unit mm)*
G04 Created by KiCad (PCBNEW no-vcs-found-undefined) date Wed Nov  9 18:10:00 2016*
%MOMM*%
%LPD*%
G01*
G04 APERTURE LIST*
%ADD10C,0.050000*%
%ADD11C,0.300000*%
%ADD12C,2.000000*%
%ADD13O,2.400000X2.000000*%
%ADD14C,3.810000*%
%ADD15O,2.000000X2.400000*%
%ADD16O,2.032000X2.400000*%
%ADD17R,1.300000X1.300000*%
%ADD18C,1.300000*%
%ADD19C,1.400000*%
%ADD20R,1.400000X1.400000*%
%ADD21C,2.500000*%
%ADD22C,2.000000*%
G04 APERTURE END LIST*
D10*
D11*
X134352428Y-119164571D02*
X134352428Y-117664571D01*
X133781000Y-117664571D01*
X133638142Y-117736000D01*
X133566714Y-117807428D01*
X133495285Y-117950285D01*
X133495285Y-118164571D01*
X133566714Y-118307428D01*
X133638142Y-118378857D01*
X133781000Y-118450285D01*
X134352428Y-118450285D01*
X132995285Y-118164571D02*
X132638142Y-119164571D01*
X132281000Y-118164571D02*
X132638142Y-119164571D01*
X132781000Y-119521714D01*
X132852428Y-119593142D01*
X132995285Y-119664571D01*
X130923857Y-117736000D02*
X131066714Y-117664571D01*
X131281000Y-117664571D01*
X131495285Y-117736000D01*
X131638142Y-117878857D01*
X131709571Y-118021714D01*
X131781000Y-118307428D01*
X131781000Y-118521714D01*
X131709571Y-118807428D01*
X131638142Y-118950285D01*
X131495285Y-119093142D01*
X131281000Y-119164571D01*
X131138142Y-119164571D01*
X130923857Y-119093142D01*
X130852428Y-119021714D01*
X130852428Y-118521714D01*
X131138142Y-118521714D01*
X129566714Y-118164571D02*
X129566714Y-119164571D01*
X130209571Y-118164571D02*
X130209571Y-118950285D01*
X130138142Y-119093142D01*
X129995285Y-119164571D01*
X129781000Y-119164571D01*
X129638142Y-119093142D01*
X129566714Y-119021714D01*
X128852428Y-119164571D02*
X128852428Y-118164571D01*
X128852428Y-117664571D02*
X128923857Y-117736000D01*
X128852428Y-117807428D01*
X128781000Y-117736000D01*
X128852428Y-117664571D01*
X128852428Y-117807428D01*
X128352428Y-118164571D02*
X127781000Y-118164571D01*
X128138142Y-117664571D02*
X128138142Y-118950285D01*
X128066714Y-119093142D01*
X127923857Y-119164571D01*
X127781000Y-119164571D01*
X126638142Y-119164571D02*
X126638142Y-118378857D01*
X126709571Y-118236000D01*
X126852428Y-118164571D01*
X127138142Y-118164571D01*
X127281000Y-118236000D01*
X126638142Y-119093142D02*
X126781000Y-119164571D01*
X127138142Y-119164571D01*
X127281000Y-119093142D01*
X127352428Y-118950285D01*
X127352428Y-118807428D01*
X127281000Y-118664571D01*
X127138142Y-118593142D01*
X126781000Y-118593142D01*
X126638142Y-118521714D01*
X125923857Y-119164571D02*
X125923857Y-118164571D01*
X125923857Y-118450285D02*
X125852428Y-118307428D01*
X125781000Y-118236000D01*
X125638142Y-118164571D01*
X125495285Y-118164571D01*
X123852428Y-119164571D02*
X123852428Y-117664571D01*
X123281000Y-117664571D01*
X123138142Y-117736000D01*
X123066714Y-117807428D01*
X122995285Y-117950285D01*
X122995285Y-118164571D01*
X123066714Y-118307428D01*
X123138142Y-118378857D01*
X123281000Y-118450285D01*
X123852428Y-118450285D01*
X121781000Y-119093142D02*
X121923857Y-119164571D01*
X122209571Y-119164571D01*
X122352428Y-119093142D01*
X122423857Y-118950285D01*
X122423857Y-118378857D01*
X122352428Y-118236000D01*
X122209571Y-118164571D01*
X121923857Y-118164571D01*
X121781000Y-118236000D01*
X121709571Y-118378857D01*
X121709571Y-118521714D01*
X122423857Y-118664571D01*
X121066714Y-119164571D02*
X121066714Y-118164571D01*
X121066714Y-118450285D02*
X120995285Y-118307428D01*
X120923857Y-118236000D01*
X120781000Y-118164571D01*
X120638142Y-118164571D01*
X120138142Y-119164571D02*
X120138142Y-118164571D01*
X120138142Y-117664571D02*
X120209571Y-117736000D01*
X120138142Y-117807428D01*
X120066714Y-117736000D01*
X120138142Y-117664571D01*
X120138142Y-117807428D01*
X119423857Y-118164571D02*
X119423857Y-119664571D01*
X119423857Y-118236000D02*
X119281000Y-118164571D01*
X118995285Y-118164571D01*
X118852428Y-118236000D01*
X118781000Y-118307428D01*
X118709571Y-118450285D01*
X118709571Y-118878857D01*
X118781000Y-119021714D01*
X118852428Y-119093142D01*
X118995285Y-119164571D01*
X119281000Y-119164571D01*
X119423857Y-119093142D01*
X118066714Y-119164571D02*
X118066714Y-117664571D01*
X117423857Y-119164571D02*
X117423857Y-118378857D01*
X117495285Y-118236000D01*
X117638142Y-118164571D01*
X117852428Y-118164571D01*
X117995285Y-118236000D01*
X118066714Y-118307428D01*
X116138142Y-119093142D02*
X116281000Y-119164571D01*
X116566714Y-119164571D01*
X116709571Y-119093142D01*
X116781000Y-118950285D01*
X116781000Y-118378857D01*
X116709571Y-118236000D01*
X116566714Y-118164571D01*
X116281000Y-118164571D01*
X116138142Y-118236000D01*
X116066714Y-118378857D01*
X116066714Y-118521714D01*
X116781000Y-118664571D01*
X115423857Y-119164571D02*
X115423857Y-118164571D01*
X115423857Y-118450285D02*
X115352428Y-118307428D01*
X115281000Y-118236000D01*
X115138142Y-118164571D01*
X114995285Y-118164571D01*
X113852428Y-119164571D02*
X113852428Y-118378857D01*
X113923857Y-118236000D01*
X114066714Y-118164571D01*
X114352428Y-118164571D01*
X114495285Y-118236000D01*
X113852428Y-119093142D02*
X113995285Y-119164571D01*
X114352428Y-119164571D01*
X114495285Y-119093142D01*
X114566714Y-118950285D01*
X114566714Y-118807428D01*
X114495285Y-118664571D01*
X114352428Y-118593142D01*
X113995285Y-118593142D01*
X113852428Y-118521714D01*
X112923857Y-119164571D02*
X113066714Y-119093142D01*
X113138142Y-118950285D01*
X113138142Y-117664571D01*
X112423857Y-119093142D02*
X112281000Y-119164571D01*
X111995285Y-119164571D01*
X111852428Y-119093142D01*
X111781000Y-118950285D01*
X111781000Y-118878857D01*
X111852428Y-118736000D01*
X111995285Y-118664571D01*
X112209571Y-118664571D01*
X112352428Y-118593142D01*
X112423857Y-118450285D01*
X112423857Y-118378857D01*
X112352428Y-118236000D01*
X112209571Y-118164571D01*
X111995285Y-118164571D01*
X111852428Y-118236000D01*
X108781000Y-119164571D02*
X108852428Y-119164571D01*
X108995285Y-119093142D01*
X109209571Y-118878857D01*
X109566714Y-118450285D01*
X109709571Y-118236000D01*
X109781000Y-118021714D01*
X109781000Y-117878857D01*
X109709571Y-117736000D01*
X109566714Y-117664571D01*
X109495285Y-117664571D01*
X109352428Y-117736000D01*
X109281000Y-117878857D01*
X109281000Y-117950285D01*
X109352428Y-118093142D01*
X109423857Y-118164571D01*
X109852428Y-118450285D01*
X109923857Y-118521714D01*
X109995285Y-118664571D01*
X109995285Y-118878857D01*
X109923857Y-119021714D01*
X109852428Y-119093142D01*
X109709571Y-119164571D01*
X109495285Y-119164571D01*
X109352428Y-119093142D01*
X109281000Y-119021714D01*
X109066714Y-118736000D01*
X108995285Y-118521714D01*
X108995285Y-118378857D01*
X134852428Y-121714571D02*
X134852428Y-120214571D01*
X134281000Y-120214571D01*
X134138142Y-120286000D01*
X134066714Y-120357428D01*
X133995285Y-120500285D01*
X133995285Y-120714571D01*
X134066714Y-120857428D01*
X134138142Y-120928857D01*
X134281000Y-121000285D01*
X134852428Y-121000285D01*
X133138142Y-121714571D02*
X133281000Y-121643142D01*
X133352428Y-121571714D01*
X133423857Y-121428857D01*
X133423857Y-121000285D01*
X133352428Y-120857428D01*
X133281000Y-120786000D01*
X133138142Y-120714571D01*
X132923857Y-120714571D01*
X132781000Y-120786000D01*
X132709571Y-120857428D01*
X132638142Y-121000285D01*
X132638142Y-121428857D01*
X132709571Y-121571714D01*
X132781000Y-121643142D01*
X132923857Y-121714571D01*
X133138142Y-121714571D01*
X132138142Y-120714571D02*
X131852428Y-121714571D01*
X131566714Y-121000285D01*
X131281000Y-121714571D01*
X130995285Y-120714571D01*
X129852428Y-121643142D02*
X129995285Y-121714571D01*
X130281000Y-121714571D01*
X130423857Y-121643142D01*
X130495285Y-121500285D01*
X130495285Y-120928857D01*
X130423857Y-120786000D01*
X130281000Y-120714571D01*
X129995285Y-120714571D01*
X129852428Y-120786000D01*
X129781000Y-120928857D01*
X129781000Y-121071714D01*
X130495285Y-121214571D01*
X129138142Y-121714571D02*
X129138142Y-120714571D01*
X129138142Y-121000285D02*
X129066714Y-120857428D01*
X128995285Y-120786000D01*
X128852428Y-120714571D01*
X128709571Y-120714571D01*
X127066714Y-121714571D02*
X127066714Y-120214571D01*
X126709571Y-120214571D01*
X126495285Y-120286000D01*
X126352428Y-120428857D01*
X126281000Y-120571714D01*
X126209571Y-120857428D01*
X126209571Y-121071714D01*
X126281000Y-121357428D01*
X126352428Y-121500285D01*
X126495285Y-121643142D01*
X126709571Y-121714571D01*
X127066714Y-121714571D01*
X125566714Y-121714571D02*
X125566714Y-120714571D01*
X125566714Y-120214571D02*
X125638142Y-120286000D01*
X125566714Y-120357428D01*
X125495285Y-120286000D01*
X125566714Y-120214571D01*
X125566714Y-120357428D01*
X124923857Y-121643142D02*
X124781000Y-121714571D01*
X124495285Y-121714571D01*
X124352428Y-121643142D01*
X124281000Y-121500285D01*
X124281000Y-121428857D01*
X124352428Y-121286000D01*
X124495285Y-121214571D01*
X124709571Y-121214571D01*
X124852428Y-121143142D01*
X124923857Y-121000285D01*
X124923857Y-120928857D01*
X124852428Y-120786000D01*
X124709571Y-120714571D01*
X124495285Y-120714571D01*
X124352428Y-120786000D01*
X123852428Y-120714571D02*
X123281000Y-120714571D01*
X123638142Y-120214571D02*
X123638142Y-121500285D01*
X123566714Y-121643142D01*
X123423857Y-121714571D01*
X123281000Y-121714571D01*
X122781000Y-121714571D02*
X122781000Y-120714571D01*
X122781000Y-121000285D02*
X122709571Y-120857428D01*
X122638142Y-120786000D01*
X122495285Y-120714571D01*
X122352428Y-120714571D01*
X121852428Y-121714571D02*
X121852428Y-120714571D01*
X121852428Y-120214571D02*
X121923857Y-120286000D01*
X121852428Y-120357428D01*
X121781000Y-120286000D01*
X121852428Y-120214571D01*
X121852428Y-120357428D01*
X121138142Y-121714571D02*
X121138142Y-120214571D01*
X121138142Y-120786000D02*
X120995285Y-120714571D01*
X120709571Y-120714571D01*
X120566714Y-120786000D01*
X120495285Y-120857428D01*
X120423857Y-121000285D01*
X120423857Y-121428857D01*
X120495285Y-121571714D01*
X120566714Y-121643142D01*
X120709571Y-121714571D01*
X120995285Y-121714571D01*
X121138142Y-121643142D01*
X119138142Y-120714571D02*
X119138142Y-121714571D01*
X119781000Y-120714571D02*
X119781000Y-121500285D01*
X119709571Y-121643142D01*
X119566714Y-121714571D01*
X119352428Y-121714571D01*
X119209571Y-121643142D01*
X119138142Y-121571714D01*
X118638142Y-120714571D02*
X118066714Y-120714571D01*
X118423857Y-120214571D02*
X118423857Y-121500285D01*
X118352428Y-121643142D01*
X118209571Y-121714571D01*
X118066714Y-121714571D01*
X117566714Y-121714571D02*
X117566714Y-120714571D01*
X117566714Y-120214571D02*
X117638142Y-120286000D01*
X117566714Y-120357428D01*
X117495285Y-120286000D01*
X117566714Y-120214571D01*
X117566714Y-120357428D01*
X116638142Y-121714571D02*
X116781000Y-121643142D01*
X116852428Y-121571714D01*
X116923857Y-121428857D01*
X116923857Y-121000285D01*
X116852428Y-120857428D01*
X116781000Y-120786000D01*
X116638142Y-120714571D01*
X116423857Y-120714571D01*
X116281000Y-120786000D01*
X116209571Y-120857428D01*
X116138142Y-121000285D01*
X116138142Y-121428857D01*
X116209571Y-121571714D01*
X116281000Y-121643142D01*
X116423857Y-121714571D01*
X116638142Y-121714571D01*
X115495285Y-120714571D02*
X115495285Y-121714571D01*
X115495285Y-120857428D02*
X115423857Y-120786000D01*
X115281000Y-120714571D01*
X115066714Y-120714571D01*
X114923857Y-120786000D01*
X114852428Y-120928857D01*
X114852428Y-121714571D01*
X112495285Y-120928857D02*
X112281000Y-121000285D01*
X112209571Y-121071714D01*
X112138142Y-121214571D01*
X112138142Y-121428857D01*
X112209571Y-121571714D01*
X112281000Y-121643142D01*
X112423857Y-121714571D01*
X112995285Y-121714571D01*
X112995285Y-120214571D01*
X112495285Y-120214571D01*
X112352428Y-120286000D01*
X112281000Y-120357428D01*
X112209571Y-120500285D01*
X112209571Y-120643142D01*
X112281000Y-120786000D01*
X112352428Y-120857428D01*
X112495285Y-120928857D01*
X112995285Y-120928857D01*
X111281000Y-121714571D02*
X111423857Y-121643142D01*
X111495285Y-121571714D01*
X111566714Y-121428857D01*
X111566714Y-121000285D01*
X111495285Y-120857428D01*
X111423857Y-120786000D01*
X111281000Y-120714571D01*
X111066714Y-120714571D01*
X110923857Y-120786000D01*
X110852428Y-120857428D01*
X110781000Y-121000285D01*
X110781000Y-121428857D01*
X110852428Y-121571714D01*
X110923857Y-121643142D01*
X111066714Y-121714571D01*
X111281000Y-121714571D01*
X109495285Y-121714571D02*
X109495285Y-120928857D01*
X109566714Y-120786000D01*
X109709571Y-120714571D01*
X109995285Y-120714571D01*
X110138142Y-120786000D01*
X109495285Y-121643142D02*
X109638142Y-121714571D01*
X109995285Y-121714571D01*
X110138142Y-121643142D01*
X110209571Y-121500285D01*
X110209571Y-121357428D01*
X110138142Y-121214571D01*
X109995285Y-121143142D01*
X109638142Y-121143142D01*
X109495285Y-121071714D01*
X108781000Y-121714571D02*
X108781000Y-120714571D01*
X108781000Y-121000285D02*
X108709571Y-120857428D01*
X108638142Y-120786000D01*
X108495285Y-120714571D01*
X108352428Y-120714571D01*
X107209571Y-121714571D02*
X107209571Y-120214571D01*
X107209571Y-121643142D02*
X107352428Y-121714571D01*
X107638142Y-121714571D01*
X107781000Y-121643142D01*
X107852428Y-121571714D01*
X107923857Y-121428857D01*
X107923857Y-121000285D01*
X107852428Y-120857428D01*
X107781000Y-120786000D01*
X107638142Y-120714571D01*
X107352428Y-120714571D01*
X107209571Y-120786000D01*
D12*
X120142000Y-90678000D03*
X112522000Y-90678000D03*
D13*
X225004334Y-110490000D03*
X225004334Y-107950000D03*
X225004334Y-105410000D03*
D14*
X230124000Y-88646000D03*
X230124000Y-93726000D03*
X230124000Y-83566000D03*
X230124000Y-98806000D03*
D13*
X207772000Y-120904000D03*
X207772000Y-123444000D03*
X207772000Y-125984000D03*
X207772000Y-128524000D03*
X207772000Y-131064000D03*
X207772000Y-133604000D03*
X86360000Y-112141000D03*
X86360000Y-114681000D03*
X86360000Y-117221000D03*
X86360000Y-119761000D03*
X86360000Y-122301000D03*
X86360000Y-124841000D03*
D15*
X86106000Y-86415523D03*
X83566000Y-86415523D03*
X81026000Y-86415523D03*
X142113000Y-86486952D03*
X139573000Y-86486952D03*
X137033000Y-86486952D03*
X185166000Y-86486952D03*
X182626000Y-86486952D03*
X180086000Y-86486952D03*
D13*
X225171000Y-135382000D03*
X225171000Y-132842000D03*
X225171000Y-130302000D03*
D15*
X120142000Y-86558381D03*
X117602000Y-86558381D03*
X115062000Y-86558381D03*
X164211000Y-86486952D03*
X161671000Y-86486952D03*
X159131000Y-86486952D03*
D13*
X225044000Y-122936000D03*
X225044000Y-120396000D03*
X225044000Y-117856000D03*
D15*
X218186000Y-86614000D03*
X215646000Y-86614000D03*
X213106000Y-86614000D03*
X77343000Y-86487000D03*
D16*
X74803000Y-86487000D03*
D12*
X177546000Y-90678000D03*
X185166000Y-90678000D03*
X164846000Y-113604000D03*
X164846000Y-133604000D03*
X134620000Y-90678000D03*
X142240000Y-90678000D03*
X83566000Y-90170000D03*
X91186000Y-90170000D03*
X164338000Y-90678000D03*
X156718000Y-90678000D03*
X210566000Y-133604000D03*
X218186000Y-133604000D03*
X176022000Y-133604000D03*
X176022000Y-113604000D03*
X218186000Y-131064000D03*
X210566000Y-131064000D03*
X170434000Y-133604000D03*
X170434000Y-113604000D03*
X210566000Y-128524000D03*
X218186000Y-128524000D03*
X218186000Y-125984000D03*
X210566000Y-125984000D03*
X159258000Y-113604000D03*
X159258000Y-133604000D03*
X214630000Y-123444000D03*
X214630000Y-115824000D03*
X153670000Y-133604000D03*
X153670000Y-113604000D03*
X218186000Y-90678000D03*
X210566000Y-90678000D03*
X212090000Y-113284000D03*
X212090000Y-120904000D03*
X148082000Y-113604000D03*
X148082000Y-133604000D03*
X74422000Y-105537000D03*
X74422000Y-108037000D03*
X222758000Y-98806000D03*
X222758000Y-93806000D03*
D17*
X176022000Y-135636000D03*
D18*
X176022000Y-139441000D03*
X170434000Y-139446000D03*
D17*
X170434000Y-135641000D03*
X164846000Y-135641000D03*
D18*
X164846000Y-139446000D03*
D17*
X159258000Y-135641000D03*
D18*
X159258000Y-139446000D03*
X153670000Y-139446000D03*
D17*
X153670000Y-135641000D03*
D18*
X148082000Y-139446000D03*
D17*
X148082000Y-135641000D03*
D19*
X86186000Y-92710000D03*
D20*
X91186000Y-92710000D03*
X93726000Y-78867000D03*
D19*
X93726000Y-83867000D03*
X96266000Y-83867000D03*
D20*
X96266000Y-78867000D03*
X98806000Y-78867000D03*
D19*
X98806000Y-83867000D03*
X101346000Y-83867000D03*
D20*
X101346000Y-78867000D03*
X103886000Y-78867000D03*
D19*
X103886000Y-83867000D03*
D17*
X79502000Y-105537000D03*
D18*
X79502000Y-108037000D03*
X76962000Y-108037000D03*
D17*
X76962000Y-105537000D03*
D21*
X77470000Y-101473000D03*
X77470000Y-91313000D03*
D12*
X91186000Y-78820000D03*
X190246000Y-86360000D03*
X190246000Y-78740000D03*
X169672000Y-78740000D03*
X169672000Y-86360000D03*
X147066000Y-86614000D03*
X147066000Y-78740000D03*
X124460000Y-86360000D03*
X124460000Y-78740000D03*
X91186000Y-86360000D03*
X96266000Y-100584000D03*
X96266000Y-92710000D03*
X98806000Y-103124000D03*
X98806000Y-92710000D03*
X101346000Y-105664000D03*
X101346000Y-92710000D03*
X103886000Y-108204000D03*
X103886000Y-92710000D03*
D22*
X210566000Y-133604000D02*
X207772000Y-133604000D01*
X176022000Y-133604000D02*
X207772000Y-133604000D01*
X176022000Y-133604000D02*
X176022000Y-135636000D01*
X230124000Y-98806000D02*
X224028000Y-98806000D01*
X224028000Y-98806000D02*
X222758000Y-98806000D01*
X225171000Y-130302000D02*
X228371000Y-130302000D01*
X228371000Y-130302000D02*
X230124000Y-130302000D01*
X225044000Y-117856000D02*
X229362000Y-117856000D01*
X229362000Y-117856000D02*
X230124000Y-117094000D01*
X225004334Y-105410000D02*
X229870000Y-105410000D01*
X229870000Y-105410000D02*
X230124000Y-105664000D01*
X230124000Y-115570000D02*
X230124000Y-117094000D01*
X230124000Y-117094000D02*
X230124000Y-130302000D01*
X176022000Y-139441000D02*
X226247619Y-139441000D01*
X226247619Y-139441000D02*
X230124000Y-135564619D01*
X230124000Y-135564619D02*
X230124000Y-130302000D01*
X148082000Y-139446000D02*
X153670000Y-139446000D01*
X153670000Y-139446000D02*
X159258000Y-139446000D01*
X159258000Y-139446000D02*
X164846000Y-139446000D01*
X164846000Y-139446000D02*
X170434000Y-139446000D01*
X170434000Y-139446000D02*
X176017000Y-139446000D01*
X176017000Y-139446000D02*
X176022000Y-139441000D01*
X230124000Y-93726000D02*
X230124000Y-98806000D01*
X230124000Y-105664000D02*
X230124000Y-115570000D01*
X230124000Y-98806000D02*
X230124000Y-105664000D01*
X210566000Y-131064000D02*
X207772000Y-131064000D01*
X170434000Y-133604000D02*
X172974000Y-131064000D01*
X172974000Y-131064000D02*
X207772000Y-131064000D01*
X170434000Y-133604000D02*
X170434000Y-135641000D01*
X210566000Y-128524000D02*
X207772000Y-128524000D01*
X164846000Y-133604000D02*
X169926000Y-128524000D01*
X169926000Y-128524000D02*
X207772000Y-128524000D01*
X164846000Y-133604000D02*
X164846000Y-135641000D01*
X210566000Y-125984000D02*
X207772000Y-125984000D01*
X159258000Y-133604000D02*
X166878000Y-125984000D01*
X166878000Y-125984000D02*
X207772000Y-125984000D01*
X159258000Y-133604000D02*
X159258000Y-135641000D01*
X214630000Y-123444000D02*
X207772000Y-123444000D01*
X153670000Y-133604000D02*
X163830000Y-123444000D01*
X163830000Y-123444000D02*
X207772000Y-123444000D01*
X153670000Y-133604000D02*
X153670000Y-135641000D01*
X212090000Y-120904000D02*
X207772000Y-120904000D01*
X148082000Y-133604000D02*
X160782000Y-120904000D01*
X160782000Y-120904000D02*
X207772000Y-120904000D01*
X148082000Y-133604000D02*
X148082000Y-135641000D01*
X74422000Y-108037000D02*
X73007787Y-108037000D01*
X73007787Y-108037000D02*
X71931999Y-106961212D01*
X71931999Y-92558001D02*
X74803000Y-89687000D01*
X71931999Y-106961212D02*
X71931999Y-92558001D01*
X74803000Y-89687000D02*
X74803000Y-86487000D01*
X74422000Y-108037000D02*
X76962000Y-108037000D01*
X79502000Y-108037000D02*
X76962000Y-108037000D01*
X164211000Y-86486952D02*
X164211000Y-90551000D01*
X164211000Y-90551000D02*
X164338000Y-90678000D01*
X185166000Y-86486952D02*
X185166000Y-90678000D01*
X142113000Y-86486952D02*
X142113000Y-90551000D01*
X142113000Y-90551000D02*
X142240000Y-90678000D01*
X120142000Y-86558381D02*
X120142000Y-90678000D01*
X218186000Y-86614000D02*
X218186000Y-90678000D01*
X103886000Y-78740000D02*
X124460000Y-78740000D01*
X103886000Y-78740000D02*
X101346000Y-78740000D01*
X101346000Y-78740000D02*
X98806000Y-78740000D01*
X98806000Y-78740000D02*
X96266000Y-78740000D01*
X96266000Y-78740000D02*
X93726000Y-78740000D01*
X91186000Y-78820000D02*
X93646000Y-78820000D01*
X93646000Y-78820000D02*
X93726000Y-78740000D01*
X91186000Y-78820000D02*
X79430000Y-78820000D01*
X74803000Y-83287000D02*
X74803000Y-86487000D01*
X79430000Y-78820000D02*
X79350000Y-78740000D01*
X79350000Y-78740000D02*
X74803000Y-83287000D01*
X190246000Y-86360000D02*
X185292952Y-86360000D01*
X185292952Y-86360000D02*
X185166000Y-86486952D01*
X190246000Y-78740000D02*
X213512000Y-78740000D01*
X169672000Y-78740000D02*
X190246000Y-78740000D01*
X147066000Y-78740000D02*
X169672000Y-78740000D01*
X164211000Y-86486952D02*
X169545048Y-86486952D01*
X169545048Y-86486952D02*
X169672000Y-86360000D01*
X164338000Y-86613952D02*
X164211000Y-86486952D01*
X147066000Y-86614000D02*
X142240048Y-86614000D01*
X142240048Y-86614000D02*
X142113000Y-86486952D01*
X124460000Y-78740000D02*
X147066000Y-78740000D01*
X142240000Y-86613952D02*
X142113000Y-86486952D01*
X124460000Y-86360000D02*
X120340381Y-86360000D01*
X120340381Y-86360000D02*
X120142000Y-86558381D01*
X213512000Y-78740000D02*
X218186000Y-83414000D01*
X218186000Y-83414000D02*
X218186000Y-86614000D01*
X86106000Y-86415523D02*
X91130477Y-86415523D01*
X91130477Y-86415523D02*
X91186000Y-86360000D01*
X91186000Y-90170000D02*
X91186000Y-86360000D01*
X91186000Y-92710000D02*
X91186000Y-90170000D01*
X74803000Y-86487000D02*
X74803000Y-86671000D01*
X86360000Y-104775000D02*
X86360000Y-112141000D01*
X86360000Y-104775000D02*
X86360000Y-92964000D01*
X86360000Y-92964000D02*
X83566000Y-90170000D01*
X83566000Y-86415523D02*
X83566000Y-90170000D01*
X83588000Y-90148000D02*
X83566000Y-90170000D01*
X77470000Y-101473000D02*
X77470000Y-105029000D01*
X77470000Y-105029000D02*
X76962000Y-105537000D01*
X74422000Y-105537000D02*
X76962000Y-105537000D01*
X79502000Y-105537000D02*
X76962000Y-105537000D01*
X77470000Y-101473000D02*
X81026000Y-97917000D01*
X81026000Y-97917000D02*
X81026000Y-86415523D01*
X81026000Y-86415523D02*
X81026000Y-85234118D01*
X115062000Y-81361990D02*
X84898128Y-81361990D01*
X84898128Y-81361990D02*
X81026000Y-85234118D01*
X212155990Y-85663990D02*
X213106000Y-86614000D01*
X178353010Y-81361990D02*
X180086000Y-81361990D01*
X180086000Y-81361990D02*
X207853990Y-81361990D01*
X180086000Y-86486952D02*
X180086000Y-83286952D01*
X180086000Y-83286952D02*
X180086000Y-81361990D01*
X178353010Y-81361990D02*
X159258000Y-81361990D01*
X159258000Y-81361990D02*
X157988000Y-81361990D01*
X159131000Y-86486952D02*
X159131000Y-81488990D01*
X159131000Y-81488990D02*
X159258000Y-81361990D01*
X137160000Y-81361990D02*
X136017000Y-81361990D01*
X156210000Y-81361990D02*
X137160000Y-81361990D01*
X137160000Y-81361990D02*
X137033000Y-81488990D01*
X137033000Y-81488990D02*
X137033000Y-86486952D01*
X136017000Y-81361990D02*
X115062000Y-81361990D01*
X115062000Y-86558381D02*
X115062000Y-83358381D01*
X115062000Y-83358381D02*
X115062000Y-81361990D01*
X157988000Y-81361990D02*
X156210000Y-81361990D01*
X207853990Y-81361990D02*
X212155990Y-85663990D01*
X225298000Y-132842000D02*
X221109202Y-132842000D01*
X221109202Y-132842000D02*
X219331202Y-131064000D01*
X219331202Y-131064000D02*
X218186000Y-131064000D01*
X225298000Y-135382000D02*
X219964000Y-135382000D01*
X219964000Y-135382000D02*
X218186000Y-133604000D01*
X93726000Y-98044000D02*
X93726000Y-108496405D01*
X93726000Y-108496405D02*
X87591395Y-114631010D01*
X87591395Y-114631010D02*
X86409990Y-114631010D01*
X86409990Y-114631010D02*
X86360000Y-114681000D01*
X105283000Y-97917000D02*
X93853000Y-97917000D01*
X93853000Y-97917000D02*
X93726000Y-98044000D01*
X112522000Y-90678000D02*
X105283000Y-97917000D01*
X117602000Y-86558381D02*
X117602000Y-87739786D01*
X117602000Y-87739786D02*
X114663786Y-90678000D01*
X114663786Y-90678000D02*
X113936213Y-90678000D01*
X113936213Y-90678000D02*
X112522000Y-90678000D01*
X93726000Y-98044000D02*
X93726000Y-85281213D01*
X93726000Y-85281213D02*
X93726000Y-83867000D01*
X96266000Y-100584000D02*
X96266000Y-110515000D01*
X96266000Y-110515000D02*
X89560000Y-117221000D01*
X89560000Y-117221000D02*
X86360000Y-117221000D01*
X139573000Y-86486952D02*
X139573000Y-87668357D01*
X139573000Y-87668357D02*
X136563357Y-90678000D01*
X136563357Y-90678000D02*
X136034213Y-90678000D01*
X136034213Y-90678000D02*
X134620000Y-90678000D01*
X96266000Y-100584000D02*
X124714000Y-100584000D01*
X124714000Y-100584000D02*
X134620000Y-90678000D01*
X96266000Y-87884000D02*
X96266000Y-92710000D01*
X96266000Y-83994000D02*
X96266000Y-87884000D01*
X96266000Y-87884000D02*
X96266000Y-83852000D01*
X98806000Y-103124000D02*
X98806000Y-111496404D01*
X98806000Y-111496404D02*
X90541404Y-119761000D01*
X90541404Y-119761000D02*
X89560000Y-119761000D01*
X89560000Y-119761000D02*
X86360000Y-119761000D01*
X98806000Y-103124000D02*
X144272000Y-103124000D01*
X144272000Y-103124000D02*
X156718000Y-90678000D01*
X161671000Y-86486952D02*
X161671000Y-87668357D01*
X161671000Y-87668357D02*
X158661357Y-90678000D01*
X158661357Y-90678000D02*
X158132213Y-90678000D01*
X158132213Y-90678000D02*
X156718000Y-90678000D01*
X98806000Y-88392000D02*
X98806000Y-92710000D01*
X98806000Y-83994000D02*
X98806000Y-88392000D01*
X98806000Y-88392000D02*
X98806000Y-83852000D01*
X101346000Y-105664000D02*
X101346000Y-112477808D01*
X101346000Y-112477808D02*
X91522808Y-122301000D01*
X91522808Y-122301000D02*
X89560000Y-122301000D01*
X89560000Y-122301000D02*
X86360000Y-122301000D01*
X101346000Y-105664000D02*
X162560000Y-105664000D01*
X162560000Y-105664000D02*
X177546000Y-90678000D01*
X182626000Y-86486952D02*
X182626000Y-87668357D01*
X182626000Y-87668357D02*
X179616357Y-90678000D01*
X179616357Y-90678000D02*
X178960213Y-90678000D01*
X178960213Y-90678000D02*
X177546000Y-90678000D01*
X101346000Y-88138000D02*
X101346000Y-83994000D01*
X101346000Y-88138000D02*
X101346000Y-83852000D01*
X101346000Y-92710000D02*
X101346000Y-88138000D01*
X103886000Y-108204000D02*
X103886000Y-113459213D01*
X103886000Y-113459213D02*
X92504213Y-124841000D01*
X92504213Y-124841000D02*
X89560000Y-124841000D01*
X89560000Y-124841000D02*
X86360000Y-124841000D01*
X191643000Y-108204000D02*
X104394000Y-108204000D01*
X210566000Y-90678000D02*
X193040000Y-108204000D01*
X193040000Y-108204000D02*
X191643000Y-108204000D01*
X215646000Y-86614000D02*
X215646000Y-87795405D01*
X215646000Y-87795405D02*
X212763405Y-90678000D01*
X212763405Y-90678000D02*
X211980213Y-90678000D01*
X211980213Y-90678000D02*
X210566000Y-90678000D01*
X103886000Y-86614000D02*
X103886000Y-92710000D01*
X103886000Y-84074000D02*
X103886000Y-86614000D01*
X103886000Y-86614000D02*
X103886000Y-83852000D01*
X221542429Y-120396000D02*
X225044000Y-120396000D01*
X218186000Y-125984000D02*
X218186000Y-123752429D01*
X218186000Y-123752429D02*
X221542429Y-120396000D01*
X218186000Y-128524000D02*
X219456000Y-128524000D01*
X219456000Y-128524000D02*
X225044000Y-122936000D01*
X225298000Y-110490000D02*
X219964000Y-110490000D01*
X219964000Y-110490000D02*
X214630000Y-115824000D01*
X212090000Y-113284000D02*
X217424000Y-107950000D01*
X217424000Y-107950000D02*
X225298000Y-107950000D01*
X230124000Y-88646000D02*
X227918000Y-88646000D01*
X227918000Y-88646000D02*
X222758000Y-93806000D01*
X230124000Y-88646000D02*
X227838000Y-88646000D01*
X202880167Y-113604000D02*
X176022000Y-113604000D01*
X227838000Y-88646000D02*
X223626020Y-92857980D01*
X223626020Y-92857980D02*
X223626020Y-92858147D01*
X223626020Y-92858147D02*
X202880167Y-113604000D01*
X148082000Y-113604000D02*
X153670000Y-113604000D01*
X153670000Y-113604000D02*
X159258000Y-113604000D01*
X159258000Y-113604000D02*
X164846000Y-113604000D01*
X164846000Y-113604000D02*
X170434000Y-113604000D01*
X170434000Y-113604000D02*
X176022000Y-113604000D01*
X77343000Y-86487000D02*
X77343000Y-91186000D01*
X77343000Y-91186000D02*
X77470000Y-91313000D01*
M02*
