G04 #@! TF.FileFunction,Legend,Top*
%FSLAX46Y46*%
G04 Gerber Fmt 4.6, Leading zero omitted, Abs format (unit mm)*
G04 Created by KiCad (PCBNEW no-vcs-found-undefined) date Wed Oct 26 00:51:32 2016*
%MOMM*%
%LPD*%
G01*
G04 APERTURE LIST*
%ADD10C,0.050000*%
%ADD11C,0.150000*%
G04 APERTURE END LIST*
D10*
D11*
X206248000Y-129794000D02*
X206248000Y-127254000D01*
X203708000Y-128778000D02*
X194772000Y-128778000D01*
X194772000Y-128778000D02*
X194772000Y-128270000D01*
X194772000Y-128270000D02*
X203708000Y-128270000D01*
X203708000Y-127254000D02*
X203708000Y-129794000D01*
X203708000Y-124714000D02*
X203708000Y-127254000D01*
X194772000Y-125730000D02*
X203708000Y-125730000D01*
X194772000Y-126238000D02*
X194772000Y-125730000D01*
X203708000Y-126238000D02*
X194772000Y-126238000D01*
X206248000Y-127254000D02*
X206248000Y-124714000D01*
X206248000Y-122174000D02*
X206248000Y-119634000D01*
X206248000Y-119634000D02*
X203708000Y-119634000D01*
X203708000Y-121158000D02*
X194772000Y-121158000D01*
X194772000Y-121158000D02*
X194772000Y-120650000D01*
X194772000Y-120650000D02*
X203708000Y-120650000D01*
X203708000Y-119634000D02*
X203708000Y-122174000D01*
X203708000Y-122174000D02*
X203708000Y-124714000D01*
X194772000Y-123190000D02*
X203708000Y-123190000D01*
X194772000Y-123698000D02*
X194772000Y-123190000D01*
X203708000Y-123698000D02*
X194772000Y-123698000D01*
X206248000Y-124714000D02*
X206248000Y-122174000D01*
X206248000Y-134874000D02*
X206248000Y-132334000D01*
X203708000Y-133858000D02*
X194772000Y-133858000D01*
X194772000Y-133858000D02*
X194772000Y-133350000D01*
X194772000Y-133350000D02*
X203708000Y-133350000D01*
X203708000Y-132334000D02*
X203708000Y-134874000D01*
X203708000Y-129794000D02*
X203708000Y-132334000D01*
X194772000Y-130810000D02*
X203708000Y-130810000D01*
X194772000Y-131318000D02*
X194772000Y-130810000D01*
X203708000Y-131318000D02*
X194772000Y-131318000D01*
X206248000Y-132334000D02*
X206248000Y-129794000D01*
X206248000Y-134874000D02*
X203708000Y-134874000D01*
X206248000Y-126238000D02*
X206629000Y-126238000D01*
X206248000Y-125730000D02*
X206629000Y-125730000D01*
X206248000Y-123698000D02*
X206629000Y-123698000D01*
X206248000Y-123190000D02*
X206629000Y-123190000D01*
X206248000Y-121158000D02*
X206629000Y-121158000D01*
X206248000Y-120650000D02*
X206629000Y-120650000D01*
X206248000Y-128270000D02*
X206629000Y-128270000D01*
X206248000Y-128778000D02*
X206629000Y-128778000D01*
X206248000Y-130810000D02*
X206629000Y-130810000D01*
X206248000Y-131318000D02*
X206629000Y-131318000D01*
X206248000Y-133350000D02*
X206629000Y-133350000D01*
X206248000Y-133858000D02*
X206629000Y-133858000D01*
D10*
X203708000Y-120650000D02*
X193772000Y-120650000D01*
X203631800Y-133858000D02*
X193776600Y-133858000D01*
X193772000Y-133858000D02*
X193772000Y-120650000D01*
D11*
X84836000Y-104394000D02*
X84836000Y-101854000D01*
X82296000Y-103378000D02*
X73360000Y-103378000D01*
X73360000Y-103378000D02*
X73360000Y-102870000D01*
X73360000Y-102870000D02*
X82296000Y-102870000D01*
X82296000Y-101854000D02*
X82296000Y-104394000D01*
X82296000Y-99314000D02*
X82296000Y-101854000D01*
X73360000Y-100330000D02*
X82296000Y-100330000D01*
X73360000Y-100838000D02*
X73360000Y-100330000D01*
X82296000Y-100838000D02*
X73360000Y-100838000D01*
X84836000Y-101854000D02*
X84836000Y-99314000D01*
X84836000Y-96774000D02*
X84836000Y-94234000D01*
X84836000Y-94234000D02*
X82296000Y-94234000D01*
X82296000Y-95758000D02*
X73360000Y-95758000D01*
X73360000Y-95758000D02*
X73360000Y-95250000D01*
X73360000Y-95250000D02*
X82296000Y-95250000D01*
X82296000Y-94234000D02*
X82296000Y-96774000D01*
X82296000Y-96774000D02*
X82296000Y-99314000D01*
X73360000Y-97790000D02*
X82296000Y-97790000D01*
X73360000Y-98298000D02*
X73360000Y-97790000D01*
X82296000Y-98298000D02*
X73360000Y-98298000D01*
X84836000Y-99314000D02*
X84836000Y-96774000D01*
X84836000Y-109474000D02*
X84836000Y-106934000D01*
X82296000Y-108458000D02*
X73360000Y-108458000D01*
X73360000Y-108458000D02*
X73360000Y-107950000D01*
X73360000Y-107950000D02*
X82296000Y-107950000D01*
X82296000Y-106934000D02*
X82296000Y-109474000D01*
X82296000Y-104394000D02*
X82296000Y-106934000D01*
X73360000Y-105410000D02*
X82296000Y-105410000D01*
X73360000Y-105918000D02*
X73360000Y-105410000D01*
X82296000Y-105918000D02*
X73360000Y-105918000D01*
X84836000Y-106934000D02*
X84836000Y-104394000D01*
X84836000Y-109474000D02*
X82296000Y-109474000D01*
X84836000Y-100838000D02*
X85217000Y-100838000D01*
X84836000Y-100330000D02*
X85217000Y-100330000D01*
X84836000Y-98298000D02*
X85217000Y-98298000D01*
X84836000Y-97790000D02*
X85217000Y-97790000D01*
X84836000Y-95758000D02*
X85217000Y-95758000D01*
X84836000Y-95250000D02*
X85217000Y-95250000D01*
X84836000Y-102870000D02*
X85217000Y-102870000D01*
X84836000Y-103378000D02*
X85217000Y-103378000D01*
X84836000Y-105410000D02*
X85217000Y-105410000D01*
X84836000Y-105918000D02*
X85217000Y-105918000D01*
X84836000Y-107950000D02*
X85217000Y-107950000D01*
X84836000Y-108458000D02*
X85217000Y-108458000D01*
D10*
X82296000Y-95250000D02*
X72360000Y-95250000D01*
X82219800Y-108458000D02*
X72364600Y-108458000D01*
X72360000Y-108458000D02*
X72360000Y-95250000D01*
D11*
X87376000Y-84891523D02*
X87376000Y-82351523D01*
X82296000Y-84891523D02*
X84836000Y-84891523D01*
X83312000Y-82351523D02*
X83312000Y-73415523D01*
X83312000Y-73415523D02*
X83820000Y-73415523D01*
X83820000Y-73415523D02*
X83820000Y-82351523D01*
X84836000Y-82351523D02*
X82296000Y-82351523D01*
X87376000Y-82351523D02*
X84836000Y-82351523D01*
X86360000Y-73415523D02*
X86360000Y-82351523D01*
X85852000Y-73415523D02*
X86360000Y-73415523D01*
X85852000Y-82351523D02*
X85852000Y-73415523D01*
X84836000Y-84891523D02*
X87376000Y-84891523D01*
X79756000Y-84891523D02*
X79756000Y-82351523D01*
X79756000Y-84891523D02*
X82296000Y-84891523D01*
X80772000Y-82351523D02*
X80772000Y-73415523D01*
X80772000Y-73415523D02*
X81280000Y-73415523D01*
X81280000Y-73415523D02*
X81280000Y-82351523D01*
X82296000Y-82351523D02*
X79756000Y-82351523D01*
X86360000Y-84891523D02*
X86360000Y-85272523D01*
X85852000Y-84891523D02*
X85852000Y-85272523D01*
X83820000Y-84891523D02*
X83820000Y-85272523D01*
X83312000Y-84891523D02*
X83312000Y-85272523D01*
X81280000Y-84891523D02*
X81280000Y-85272523D01*
X80772000Y-84891523D02*
X80772000Y-85272523D01*
D10*
X86360000Y-82351523D02*
X86360000Y-72415523D01*
X80772000Y-82351523D02*
X80772000Y-72415523D01*
X80772000Y-72415523D02*
X86360000Y-72415523D01*
D11*
X143383000Y-84962952D02*
X143383000Y-82422952D01*
X138303000Y-84962952D02*
X140843000Y-84962952D01*
X139319000Y-82422952D02*
X139319000Y-73486952D01*
X139319000Y-73486952D02*
X139827000Y-73486952D01*
X139827000Y-73486952D02*
X139827000Y-82422952D01*
X140843000Y-82422952D02*
X138303000Y-82422952D01*
X143383000Y-82422952D02*
X140843000Y-82422952D01*
X142367000Y-73486952D02*
X142367000Y-82422952D01*
X141859000Y-73486952D02*
X142367000Y-73486952D01*
X141859000Y-82422952D02*
X141859000Y-73486952D01*
X140843000Y-84962952D02*
X143383000Y-84962952D01*
X135763000Y-84962952D02*
X135763000Y-82422952D01*
X135763000Y-84962952D02*
X138303000Y-84962952D01*
X136779000Y-82422952D02*
X136779000Y-73486952D01*
X136779000Y-73486952D02*
X137287000Y-73486952D01*
X137287000Y-73486952D02*
X137287000Y-82422952D01*
X138303000Y-82422952D02*
X135763000Y-82422952D01*
X142367000Y-84962952D02*
X142367000Y-85343952D01*
X141859000Y-84962952D02*
X141859000Y-85343952D01*
X139827000Y-84962952D02*
X139827000Y-85343952D01*
X139319000Y-84962952D02*
X139319000Y-85343952D01*
X137287000Y-84962952D02*
X137287000Y-85343952D01*
X136779000Y-84962952D02*
X136779000Y-85343952D01*
D10*
X142367000Y-82422952D02*
X142367000Y-72486952D01*
X136779000Y-82422952D02*
X136779000Y-72486952D01*
X136779000Y-72486952D02*
X142367000Y-72486952D01*
D11*
X186436000Y-84962952D02*
X186436000Y-82422952D01*
X181356000Y-84962952D02*
X183896000Y-84962952D01*
X182372000Y-82422952D02*
X182372000Y-73486952D01*
X182372000Y-73486952D02*
X182880000Y-73486952D01*
X182880000Y-73486952D02*
X182880000Y-82422952D01*
X183896000Y-82422952D02*
X181356000Y-82422952D01*
X186436000Y-82422952D02*
X183896000Y-82422952D01*
X185420000Y-73486952D02*
X185420000Y-82422952D01*
X184912000Y-73486952D02*
X185420000Y-73486952D01*
X184912000Y-82422952D02*
X184912000Y-73486952D01*
X183896000Y-84962952D02*
X186436000Y-84962952D01*
X178816000Y-84962952D02*
X178816000Y-82422952D01*
X178816000Y-84962952D02*
X181356000Y-84962952D01*
X179832000Y-82422952D02*
X179832000Y-73486952D01*
X179832000Y-73486952D02*
X180340000Y-73486952D01*
X180340000Y-73486952D02*
X180340000Y-82422952D01*
X181356000Y-82422952D02*
X178816000Y-82422952D01*
X185420000Y-84962952D02*
X185420000Y-85343952D01*
X184912000Y-84962952D02*
X184912000Y-85343952D01*
X182880000Y-84962952D02*
X182880000Y-85343952D01*
X182372000Y-84962952D02*
X182372000Y-85343952D01*
X180340000Y-84962952D02*
X180340000Y-85343952D01*
X179832000Y-84962952D02*
X179832000Y-85343952D01*
D10*
X185420000Y-82422952D02*
X185420000Y-72486952D01*
X179832000Y-82422952D02*
X179832000Y-72486952D01*
X179832000Y-72486952D02*
X185420000Y-72486952D01*
D11*
X226695000Y-136652000D02*
X229235000Y-136652000D01*
X226695000Y-131572000D02*
X226695000Y-134112000D01*
X229235000Y-132588000D02*
X238171000Y-132588000D01*
X238171000Y-132588000D02*
X238171000Y-133096000D01*
X238171000Y-133096000D02*
X229235000Y-133096000D01*
X229235000Y-134112000D02*
X229235000Y-131572000D01*
X229235000Y-136652000D02*
X229235000Y-134112000D01*
X238171000Y-135636000D02*
X229235000Y-135636000D01*
X238171000Y-135128000D02*
X238171000Y-135636000D01*
X229235000Y-135128000D02*
X238171000Y-135128000D01*
X226695000Y-134112000D02*
X226695000Y-136652000D01*
X226695000Y-129032000D02*
X229235000Y-129032000D01*
X226695000Y-129032000D02*
X226695000Y-131572000D01*
X229235000Y-130048000D02*
X238171000Y-130048000D01*
X238171000Y-130048000D02*
X238171000Y-130556000D01*
X238171000Y-130556000D02*
X229235000Y-130556000D01*
X229235000Y-131572000D02*
X229235000Y-129032000D01*
X226695000Y-135636000D02*
X226314000Y-135636000D01*
X226695000Y-135128000D02*
X226314000Y-135128000D01*
X226695000Y-133096000D02*
X226314000Y-133096000D01*
X226695000Y-132588000D02*
X226314000Y-132588000D01*
X226695000Y-130556000D02*
X226314000Y-130556000D01*
X226695000Y-130048000D02*
X226314000Y-130048000D01*
D10*
X229235000Y-135636000D02*
X239171000Y-135636000D01*
X229235000Y-130048000D02*
X239171000Y-130048000D01*
X239171000Y-130048000D02*
X239171000Y-135636000D01*
D11*
X121412000Y-85034381D02*
X121412000Y-82494381D01*
X116332000Y-85034381D02*
X118872000Y-85034381D01*
X117348000Y-82494381D02*
X117348000Y-73558381D01*
X117348000Y-73558381D02*
X117856000Y-73558381D01*
X117856000Y-73558381D02*
X117856000Y-82494381D01*
X118872000Y-82494381D02*
X116332000Y-82494381D01*
X121412000Y-82494381D02*
X118872000Y-82494381D01*
X120396000Y-73558381D02*
X120396000Y-82494381D01*
X119888000Y-73558381D02*
X120396000Y-73558381D01*
X119888000Y-82494381D02*
X119888000Y-73558381D01*
X118872000Y-85034381D02*
X121412000Y-85034381D01*
X113792000Y-85034381D02*
X113792000Y-82494381D01*
X113792000Y-85034381D02*
X116332000Y-85034381D01*
X114808000Y-82494381D02*
X114808000Y-73558381D01*
X114808000Y-73558381D02*
X115316000Y-73558381D01*
X115316000Y-73558381D02*
X115316000Y-82494381D01*
X116332000Y-82494381D02*
X113792000Y-82494381D01*
X120396000Y-85034381D02*
X120396000Y-85415381D01*
X119888000Y-85034381D02*
X119888000Y-85415381D01*
X117856000Y-85034381D02*
X117856000Y-85415381D01*
X117348000Y-85034381D02*
X117348000Y-85415381D01*
X115316000Y-85034381D02*
X115316000Y-85415381D01*
X114808000Y-85034381D02*
X114808000Y-85415381D01*
D10*
X120396000Y-82494381D02*
X120396000Y-72558381D01*
X114808000Y-82494381D02*
X114808000Y-72558381D01*
X114808000Y-72558381D02*
X120396000Y-72558381D01*
D11*
X165481000Y-84962952D02*
X165481000Y-82422952D01*
X160401000Y-84962952D02*
X162941000Y-84962952D01*
X161417000Y-82422952D02*
X161417000Y-73486952D01*
X161417000Y-73486952D02*
X161925000Y-73486952D01*
X161925000Y-73486952D02*
X161925000Y-82422952D01*
X162941000Y-82422952D02*
X160401000Y-82422952D01*
X165481000Y-82422952D02*
X162941000Y-82422952D01*
X164465000Y-73486952D02*
X164465000Y-82422952D01*
X163957000Y-73486952D02*
X164465000Y-73486952D01*
X163957000Y-82422952D02*
X163957000Y-73486952D01*
X162941000Y-84962952D02*
X165481000Y-84962952D01*
X157861000Y-84962952D02*
X157861000Y-82422952D01*
X157861000Y-84962952D02*
X160401000Y-84962952D01*
X158877000Y-82422952D02*
X158877000Y-73486952D01*
X158877000Y-73486952D02*
X159385000Y-73486952D01*
X159385000Y-73486952D02*
X159385000Y-82422952D01*
X160401000Y-82422952D02*
X157861000Y-82422952D01*
X164465000Y-84962952D02*
X164465000Y-85343952D01*
X163957000Y-84962952D02*
X163957000Y-85343952D01*
X161925000Y-84962952D02*
X161925000Y-85343952D01*
X161417000Y-84962952D02*
X161417000Y-85343952D01*
X159385000Y-84962952D02*
X159385000Y-85343952D01*
X158877000Y-84962952D02*
X158877000Y-85343952D01*
D10*
X164465000Y-82422952D02*
X164465000Y-72486952D01*
X158877000Y-82422952D02*
X158877000Y-72486952D01*
X158877000Y-72486952D02*
X164465000Y-72486952D01*
D11*
X226568000Y-124206000D02*
X229108000Y-124206000D01*
X226568000Y-119126000D02*
X226568000Y-121666000D01*
X229108000Y-120142000D02*
X238044000Y-120142000D01*
X238044000Y-120142000D02*
X238044000Y-120650000D01*
X238044000Y-120650000D02*
X229108000Y-120650000D01*
X229108000Y-121666000D02*
X229108000Y-119126000D01*
X229108000Y-124206000D02*
X229108000Y-121666000D01*
X238044000Y-123190000D02*
X229108000Y-123190000D01*
X238044000Y-122682000D02*
X238044000Y-123190000D01*
X229108000Y-122682000D02*
X238044000Y-122682000D01*
X226568000Y-121666000D02*
X226568000Y-124206000D01*
X226568000Y-116586000D02*
X229108000Y-116586000D01*
X226568000Y-116586000D02*
X226568000Y-119126000D01*
X229108000Y-117602000D02*
X238044000Y-117602000D01*
X238044000Y-117602000D02*
X238044000Y-118110000D01*
X238044000Y-118110000D02*
X229108000Y-118110000D01*
X229108000Y-119126000D02*
X229108000Y-116586000D01*
X226568000Y-123190000D02*
X226187000Y-123190000D01*
X226568000Y-122682000D02*
X226187000Y-122682000D01*
X226568000Y-120650000D02*
X226187000Y-120650000D01*
X226568000Y-120142000D02*
X226187000Y-120142000D01*
X226568000Y-118110000D02*
X226187000Y-118110000D01*
X226568000Y-117602000D02*
X226187000Y-117602000D01*
D10*
X229108000Y-123190000D02*
X239044000Y-123190000D01*
X229108000Y-117602000D02*
X239044000Y-117602000D01*
X239044000Y-117602000D02*
X239044000Y-123190000D01*
D11*
X226528334Y-111760000D02*
X229068334Y-111760000D01*
X226528334Y-106680000D02*
X226528334Y-109220000D01*
X229068334Y-107696000D02*
X238004334Y-107696000D01*
X238004334Y-107696000D02*
X238004334Y-108204000D01*
X238004334Y-108204000D02*
X229068334Y-108204000D01*
X229068334Y-109220000D02*
X229068334Y-106680000D01*
X229068334Y-111760000D02*
X229068334Y-109220000D01*
X238004334Y-110744000D02*
X229068334Y-110744000D01*
X238004334Y-110236000D02*
X238004334Y-110744000D01*
X229068334Y-110236000D02*
X238004334Y-110236000D01*
X226528334Y-109220000D02*
X226528334Y-111760000D01*
X226528334Y-104140000D02*
X229068334Y-104140000D01*
X226528334Y-104140000D02*
X226528334Y-106680000D01*
X229068334Y-105156000D02*
X238004334Y-105156000D01*
X238004334Y-105156000D02*
X238004334Y-105664000D01*
X238004334Y-105664000D02*
X229068334Y-105664000D01*
X229068334Y-106680000D02*
X229068334Y-104140000D01*
X226528334Y-110744000D02*
X226147334Y-110744000D01*
X226528334Y-110236000D02*
X226147334Y-110236000D01*
X226528334Y-108204000D02*
X226147334Y-108204000D01*
X226528334Y-107696000D02*
X226147334Y-107696000D01*
X226528334Y-105664000D02*
X226147334Y-105664000D01*
X226528334Y-105156000D02*
X226147334Y-105156000D01*
D10*
X229068334Y-110744000D02*
X239004334Y-110744000D01*
X229068334Y-105156000D02*
X239004334Y-105156000D01*
X239004334Y-105156000D02*
X239004334Y-110744000D01*
D11*
X219456000Y-85090000D02*
X219456000Y-82550000D01*
X214376000Y-85090000D02*
X216916000Y-85090000D01*
X215392000Y-82550000D02*
X215392000Y-73614000D01*
X215392000Y-73614000D02*
X215900000Y-73614000D01*
X215900000Y-73614000D02*
X215900000Y-82550000D01*
X216916000Y-82550000D02*
X214376000Y-82550000D01*
X219456000Y-82550000D02*
X216916000Y-82550000D01*
X218440000Y-73614000D02*
X218440000Y-82550000D01*
X217932000Y-73614000D02*
X218440000Y-73614000D01*
X217932000Y-82550000D02*
X217932000Y-73614000D01*
X216916000Y-85090000D02*
X219456000Y-85090000D01*
X211836000Y-85090000D02*
X211836000Y-82550000D01*
X211836000Y-85090000D02*
X214376000Y-85090000D01*
X212852000Y-82550000D02*
X212852000Y-73614000D01*
X212852000Y-73614000D02*
X213360000Y-73614000D01*
X213360000Y-73614000D02*
X213360000Y-82550000D01*
X214376000Y-82550000D02*
X211836000Y-82550000D01*
X218440000Y-85090000D02*
X218440000Y-85471000D01*
X217932000Y-85090000D02*
X217932000Y-85471000D01*
X215900000Y-85090000D02*
X215900000Y-85471000D01*
X215392000Y-85090000D02*
X215392000Y-85471000D01*
X213360000Y-85090000D02*
X213360000Y-85471000D01*
X212852000Y-85090000D02*
X212852000Y-85471000D01*
D10*
X218440000Y-82550000D02*
X218440000Y-72614000D01*
X212852000Y-82550000D02*
X212852000Y-72614000D01*
X212852000Y-72614000D02*
X218440000Y-72614000D01*
D11*
X73533000Y-84963000D02*
X76073000Y-84963000D01*
X76073000Y-84963000D02*
X76073000Y-82423000D01*
X74549000Y-82423000D02*
X74549000Y-73487000D01*
X74549000Y-73487000D02*
X75057000Y-73487000D01*
X75057000Y-73487000D02*
X75057000Y-82423000D01*
X76073000Y-82423000D02*
X73533000Y-82423000D01*
X78613000Y-82423000D02*
X76073000Y-82423000D01*
X77597000Y-73487000D02*
X77597000Y-82423000D01*
X77089000Y-73487000D02*
X77597000Y-73487000D01*
X77089000Y-82423000D02*
X77089000Y-73487000D01*
X78613000Y-84963000D02*
X78613000Y-82423000D01*
X76073000Y-84963000D02*
X78613000Y-84963000D01*
X76073000Y-84963000D02*
X76073000Y-82423000D01*
X73533000Y-84963000D02*
X73533000Y-82423000D01*
X77597000Y-84963000D02*
X77597000Y-85344000D01*
X77089000Y-84963000D02*
X77089000Y-85344000D01*
X75057000Y-84963000D02*
X75057000Y-85344000D01*
X74549000Y-84963000D02*
X74549000Y-85344000D01*
D10*
X77597000Y-84963000D02*
X77597000Y-72487000D01*
X74549000Y-84963000D02*
X74549000Y-72487000D01*
X74549000Y-72487000D02*
X77597000Y-72487000D01*
D11*
X172971500Y-137546000D02*
G75*
G03X172971500Y-137546000I-2537500J0D01*
G01*
X171334000Y-138796000D02*
G75*
G03X171334000Y-138796000I-900000J0D01*
G01*
X170906000Y-140001000D02*
X169962000Y-140001000D01*
X171378000Y-139861000D02*
X169490000Y-139861000D01*
X171667000Y-139721000D02*
X169201000Y-139721000D01*
X169994000Y-139581000D02*
X168982000Y-139581000D01*
X171886000Y-139581000D02*
X170874000Y-139581000D01*
X169806000Y-139441000D02*
X168803000Y-139441000D01*
X172065000Y-139441000D02*
X171062000Y-139441000D01*
X169689000Y-139301000D02*
X168654000Y-139301000D01*
X172214000Y-139301000D02*
X171179000Y-139301000D01*
X169611000Y-139161000D02*
X168526000Y-139161000D01*
X172342000Y-139161000D02*
X171257000Y-139161000D01*
X169563000Y-139021000D02*
X168415000Y-139021000D01*
X172453000Y-139021000D02*
X171305000Y-139021000D01*
X169538000Y-138881000D02*
X168320000Y-138881000D01*
X172548000Y-138881000D02*
X171330000Y-138881000D01*
X169536000Y-138741000D02*
X168238000Y-138741000D01*
X172630000Y-138741000D02*
X171332000Y-138741000D01*
X169555000Y-138601000D02*
X168168000Y-138601000D01*
X172700000Y-138601000D02*
X171313000Y-138601000D01*
X169599000Y-138461000D02*
X168107000Y-138461000D01*
X172761000Y-138461000D02*
X171269000Y-138461000D01*
X169670000Y-138321000D02*
X168057000Y-138321000D01*
X172811000Y-138321000D02*
X171198000Y-138321000D01*
X169777000Y-138181000D02*
X168016000Y-138181000D01*
X172852000Y-138181000D02*
X171091000Y-138181000D01*
X169944000Y-138041000D02*
X167983000Y-138041000D01*
X172885000Y-138041000D02*
X170924000Y-138041000D01*
X170339000Y-137901000D02*
X167959000Y-137901000D01*
X172909000Y-137901000D02*
X170529000Y-137901000D01*
X172925000Y-137761000D02*
X167943000Y-137761000D01*
X172933000Y-137621000D02*
X167935000Y-137621000D01*
X178559500Y-137541000D02*
G75*
G03X178559500Y-137541000I-2537500J0D01*
G01*
X176922000Y-138791000D02*
G75*
G03X176922000Y-138791000I-900000J0D01*
G01*
X176494000Y-139996000D02*
X175550000Y-139996000D01*
X176966000Y-139856000D02*
X175078000Y-139856000D01*
X177255000Y-139716000D02*
X174789000Y-139716000D01*
X175582000Y-139576000D02*
X174570000Y-139576000D01*
X177474000Y-139576000D02*
X176462000Y-139576000D01*
X175394000Y-139436000D02*
X174391000Y-139436000D01*
X177653000Y-139436000D02*
X176650000Y-139436000D01*
X175277000Y-139296000D02*
X174242000Y-139296000D01*
X177802000Y-139296000D02*
X176767000Y-139296000D01*
X175199000Y-139156000D02*
X174114000Y-139156000D01*
X177930000Y-139156000D02*
X176845000Y-139156000D01*
X175151000Y-139016000D02*
X174003000Y-139016000D01*
X178041000Y-139016000D02*
X176893000Y-139016000D01*
X175126000Y-138876000D02*
X173908000Y-138876000D01*
X178136000Y-138876000D02*
X176918000Y-138876000D01*
X175124000Y-138736000D02*
X173826000Y-138736000D01*
X178218000Y-138736000D02*
X176920000Y-138736000D01*
X175143000Y-138596000D02*
X173756000Y-138596000D01*
X178288000Y-138596000D02*
X176901000Y-138596000D01*
X175187000Y-138456000D02*
X173695000Y-138456000D01*
X178349000Y-138456000D02*
X176857000Y-138456000D01*
X175258000Y-138316000D02*
X173645000Y-138316000D01*
X178399000Y-138316000D02*
X176786000Y-138316000D01*
X175365000Y-138176000D02*
X173604000Y-138176000D01*
X178440000Y-138176000D02*
X176679000Y-138176000D01*
X175532000Y-138036000D02*
X173571000Y-138036000D01*
X178473000Y-138036000D02*
X176512000Y-138036000D01*
X175927000Y-137896000D02*
X173547000Y-137896000D01*
X178497000Y-137896000D02*
X176117000Y-137896000D01*
X178513000Y-137756000D02*
X173531000Y-137756000D01*
X178521000Y-137616000D02*
X173523000Y-137616000D01*
X161795500Y-137546000D02*
G75*
G03X161795500Y-137546000I-2537500J0D01*
G01*
X160158000Y-138796000D02*
G75*
G03X160158000Y-138796000I-900000J0D01*
G01*
X159730000Y-140001000D02*
X158786000Y-140001000D01*
X160202000Y-139861000D02*
X158314000Y-139861000D01*
X160491000Y-139721000D02*
X158025000Y-139721000D01*
X158818000Y-139581000D02*
X157806000Y-139581000D01*
X160710000Y-139581000D02*
X159698000Y-139581000D01*
X158630000Y-139441000D02*
X157627000Y-139441000D01*
X160889000Y-139441000D02*
X159886000Y-139441000D01*
X158513000Y-139301000D02*
X157478000Y-139301000D01*
X161038000Y-139301000D02*
X160003000Y-139301000D01*
X158435000Y-139161000D02*
X157350000Y-139161000D01*
X161166000Y-139161000D02*
X160081000Y-139161000D01*
X158387000Y-139021000D02*
X157239000Y-139021000D01*
X161277000Y-139021000D02*
X160129000Y-139021000D01*
X158362000Y-138881000D02*
X157144000Y-138881000D01*
X161372000Y-138881000D02*
X160154000Y-138881000D01*
X158360000Y-138741000D02*
X157062000Y-138741000D01*
X161454000Y-138741000D02*
X160156000Y-138741000D01*
X158379000Y-138601000D02*
X156992000Y-138601000D01*
X161524000Y-138601000D02*
X160137000Y-138601000D01*
X158423000Y-138461000D02*
X156931000Y-138461000D01*
X161585000Y-138461000D02*
X160093000Y-138461000D01*
X158494000Y-138321000D02*
X156881000Y-138321000D01*
X161635000Y-138321000D02*
X160022000Y-138321000D01*
X158601000Y-138181000D02*
X156840000Y-138181000D01*
X161676000Y-138181000D02*
X159915000Y-138181000D01*
X158768000Y-138041000D02*
X156807000Y-138041000D01*
X161709000Y-138041000D02*
X159748000Y-138041000D01*
X159163000Y-137901000D02*
X156783000Y-137901000D01*
X161733000Y-137901000D02*
X159353000Y-137901000D01*
X161749000Y-137761000D02*
X156767000Y-137761000D01*
X161757000Y-137621000D02*
X156759000Y-137621000D01*
X167383500Y-137546000D02*
G75*
G03X167383500Y-137546000I-2537500J0D01*
G01*
X165746000Y-138796000D02*
G75*
G03X165746000Y-138796000I-900000J0D01*
G01*
X165318000Y-140001000D02*
X164374000Y-140001000D01*
X165790000Y-139861000D02*
X163902000Y-139861000D01*
X166079000Y-139721000D02*
X163613000Y-139721000D01*
X164406000Y-139581000D02*
X163394000Y-139581000D01*
X166298000Y-139581000D02*
X165286000Y-139581000D01*
X164218000Y-139441000D02*
X163215000Y-139441000D01*
X166477000Y-139441000D02*
X165474000Y-139441000D01*
X164101000Y-139301000D02*
X163066000Y-139301000D01*
X166626000Y-139301000D02*
X165591000Y-139301000D01*
X164023000Y-139161000D02*
X162938000Y-139161000D01*
X166754000Y-139161000D02*
X165669000Y-139161000D01*
X163975000Y-139021000D02*
X162827000Y-139021000D01*
X166865000Y-139021000D02*
X165717000Y-139021000D01*
X163950000Y-138881000D02*
X162732000Y-138881000D01*
X166960000Y-138881000D02*
X165742000Y-138881000D01*
X163948000Y-138741000D02*
X162650000Y-138741000D01*
X167042000Y-138741000D02*
X165744000Y-138741000D01*
X163967000Y-138601000D02*
X162580000Y-138601000D01*
X167112000Y-138601000D02*
X165725000Y-138601000D01*
X164011000Y-138461000D02*
X162519000Y-138461000D01*
X167173000Y-138461000D02*
X165681000Y-138461000D01*
X164082000Y-138321000D02*
X162469000Y-138321000D01*
X167223000Y-138321000D02*
X165610000Y-138321000D01*
X164189000Y-138181000D02*
X162428000Y-138181000D01*
X167264000Y-138181000D02*
X165503000Y-138181000D01*
X164356000Y-138041000D02*
X162395000Y-138041000D01*
X167297000Y-138041000D02*
X165336000Y-138041000D01*
X164751000Y-137901000D02*
X162371000Y-137901000D01*
X167321000Y-137901000D02*
X164941000Y-137901000D01*
X167337000Y-137761000D02*
X162355000Y-137761000D01*
X167345000Y-137621000D02*
X162347000Y-137621000D01*
X156207500Y-137546000D02*
G75*
G03X156207500Y-137546000I-2537500J0D01*
G01*
X154570000Y-138796000D02*
G75*
G03X154570000Y-138796000I-900000J0D01*
G01*
X154142000Y-140001000D02*
X153198000Y-140001000D01*
X154614000Y-139861000D02*
X152726000Y-139861000D01*
X154903000Y-139721000D02*
X152437000Y-139721000D01*
X153230000Y-139581000D02*
X152218000Y-139581000D01*
X155122000Y-139581000D02*
X154110000Y-139581000D01*
X153042000Y-139441000D02*
X152039000Y-139441000D01*
X155301000Y-139441000D02*
X154298000Y-139441000D01*
X152925000Y-139301000D02*
X151890000Y-139301000D01*
X155450000Y-139301000D02*
X154415000Y-139301000D01*
X152847000Y-139161000D02*
X151762000Y-139161000D01*
X155578000Y-139161000D02*
X154493000Y-139161000D01*
X152799000Y-139021000D02*
X151651000Y-139021000D01*
X155689000Y-139021000D02*
X154541000Y-139021000D01*
X152774000Y-138881000D02*
X151556000Y-138881000D01*
X155784000Y-138881000D02*
X154566000Y-138881000D01*
X152772000Y-138741000D02*
X151474000Y-138741000D01*
X155866000Y-138741000D02*
X154568000Y-138741000D01*
X152791000Y-138601000D02*
X151404000Y-138601000D01*
X155936000Y-138601000D02*
X154549000Y-138601000D01*
X152835000Y-138461000D02*
X151343000Y-138461000D01*
X155997000Y-138461000D02*
X154505000Y-138461000D01*
X152906000Y-138321000D02*
X151293000Y-138321000D01*
X156047000Y-138321000D02*
X154434000Y-138321000D01*
X153013000Y-138181000D02*
X151252000Y-138181000D01*
X156088000Y-138181000D02*
X154327000Y-138181000D01*
X153180000Y-138041000D02*
X151219000Y-138041000D01*
X156121000Y-138041000D02*
X154160000Y-138041000D01*
X153575000Y-137901000D02*
X151195000Y-137901000D01*
X156145000Y-137901000D02*
X153765000Y-137901000D01*
X156161000Y-137761000D02*
X151179000Y-137761000D01*
X156169000Y-137621000D02*
X151171000Y-137621000D01*
X150619500Y-137546000D02*
G75*
G03X150619500Y-137546000I-2537500J0D01*
G01*
X148982000Y-138796000D02*
G75*
G03X148982000Y-138796000I-900000J0D01*
G01*
X148554000Y-140001000D02*
X147610000Y-140001000D01*
X149026000Y-139861000D02*
X147138000Y-139861000D01*
X149315000Y-139721000D02*
X146849000Y-139721000D01*
X147642000Y-139581000D02*
X146630000Y-139581000D01*
X149534000Y-139581000D02*
X148522000Y-139581000D01*
X147454000Y-139441000D02*
X146451000Y-139441000D01*
X149713000Y-139441000D02*
X148710000Y-139441000D01*
X147337000Y-139301000D02*
X146302000Y-139301000D01*
X149862000Y-139301000D02*
X148827000Y-139301000D01*
X147259000Y-139161000D02*
X146174000Y-139161000D01*
X149990000Y-139161000D02*
X148905000Y-139161000D01*
X147211000Y-139021000D02*
X146063000Y-139021000D01*
X150101000Y-139021000D02*
X148953000Y-139021000D01*
X147186000Y-138881000D02*
X145968000Y-138881000D01*
X150196000Y-138881000D02*
X148978000Y-138881000D01*
X147184000Y-138741000D02*
X145886000Y-138741000D01*
X150278000Y-138741000D02*
X148980000Y-138741000D01*
X147203000Y-138601000D02*
X145816000Y-138601000D01*
X150348000Y-138601000D02*
X148961000Y-138601000D01*
X147247000Y-138461000D02*
X145755000Y-138461000D01*
X150409000Y-138461000D02*
X148917000Y-138461000D01*
X147318000Y-138321000D02*
X145705000Y-138321000D01*
X150459000Y-138321000D02*
X148846000Y-138321000D01*
X147425000Y-138181000D02*
X145664000Y-138181000D01*
X150500000Y-138181000D02*
X148739000Y-138181000D01*
X147592000Y-138041000D02*
X145631000Y-138041000D01*
X150533000Y-138041000D02*
X148572000Y-138041000D01*
X147987000Y-137901000D02*
X145607000Y-137901000D01*
X150557000Y-137901000D02*
X148177000Y-137901000D01*
X150573000Y-137761000D02*
X145591000Y-137761000D01*
X150581000Y-137621000D02*
X145583000Y-137621000D01*
X233934000Y-81026000D02*
X226314000Y-81026000D01*
X226314000Y-101346000D02*
X233934000Y-101346000D01*
X227584000Y-101346000D02*
X227584000Y-81026000D01*
X233934000Y-81026000D02*
X233934000Y-101346000D01*
X226314000Y-81026000D02*
X226314000Y-101346000D01*
X178816000Y-91694000D02*
X183896000Y-91694000D01*
X183896000Y-91694000D02*
X183896000Y-94234000D01*
X183896000Y-94234000D02*
X178816000Y-94234000D01*
X178816000Y-94234000D02*
X178816000Y-91694000D01*
X167386000Y-115984000D02*
X162306000Y-115984000D01*
X162306000Y-115984000D02*
X162306000Y-131224000D01*
X162306000Y-131224000D02*
X164846000Y-131224000D01*
X164846000Y-131224000D02*
X167386000Y-131224000D01*
X167386000Y-131224000D02*
X167386000Y-115984000D01*
X164846000Y-132334000D02*
X164846000Y-131224000D01*
X164846000Y-114874000D02*
X164846000Y-115984000D01*
X113792000Y-94996000D02*
X113792000Y-92456000D01*
X118872000Y-94996000D02*
X113792000Y-94996000D01*
X118872000Y-92456000D02*
X118872000Y-94996000D01*
X113792000Y-92456000D02*
X118872000Y-92456000D01*
X135890000Y-92456000D02*
X140970000Y-92456000D01*
X140970000Y-92456000D02*
X140970000Y-94996000D01*
X140970000Y-94996000D02*
X135890000Y-94996000D01*
X135890000Y-94996000D02*
X135890000Y-92456000D01*
X84836000Y-88900000D02*
X89916000Y-88900000D01*
X89916000Y-88900000D02*
X89916000Y-91440000D01*
X89916000Y-91440000D02*
X84836000Y-91440000D01*
X84836000Y-91440000D02*
X84836000Y-88900000D01*
X157734000Y-94996000D02*
X157734000Y-92456000D01*
X162814000Y-94996000D02*
X157734000Y-94996000D01*
X162814000Y-92456000D02*
X162814000Y-94996000D01*
X157734000Y-92456000D02*
X162814000Y-92456000D01*
X211836000Y-132334000D02*
X216916000Y-132334000D01*
X216916000Y-132334000D02*
X216916000Y-134874000D01*
X216916000Y-134874000D02*
X211836000Y-134874000D01*
X211836000Y-134874000D02*
X211836000Y-132334000D01*
X176022000Y-114874000D02*
X176022000Y-115984000D01*
X176022000Y-132334000D02*
X176022000Y-131224000D01*
X178562000Y-131224000D02*
X178562000Y-115984000D01*
X176022000Y-131224000D02*
X178562000Y-131224000D01*
X173482000Y-131224000D02*
X176022000Y-131224000D01*
X173482000Y-115984000D02*
X173482000Y-131224000D01*
X178562000Y-115984000D02*
X173482000Y-115984000D01*
X211836000Y-132334000D02*
X211836000Y-129794000D01*
X216916000Y-132334000D02*
X211836000Y-132334000D01*
X216916000Y-129794000D02*
X216916000Y-132334000D01*
X211836000Y-129794000D02*
X216916000Y-129794000D01*
X170434000Y-114874000D02*
X170434000Y-115984000D01*
X170434000Y-132334000D02*
X170434000Y-131224000D01*
X172974000Y-131224000D02*
X172974000Y-115984000D01*
X170434000Y-131224000D02*
X172974000Y-131224000D01*
X167894000Y-131224000D02*
X170434000Y-131224000D01*
X167894000Y-115984000D02*
X167894000Y-131224000D01*
X172974000Y-115984000D02*
X167894000Y-115984000D01*
X211836000Y-127254000D02*
X216916000Y-127254000D01*
X216916000Y-127254000D02*
X216916000Y-129794000D01*
X216916000Y-129794000D02*
X211836000Y-129794000D01*
X211836000Y-129794000D02*
X211836000Y-127254000D01*
X211836000Y-127254000D02*
X211836000Y-124714000D01*
X216916000Y-127254000D02*
X211836000Y-127254000D01*
X216916000Y-124714000D02*
X216916000Y-127254000D01*
X211836000Y-124714000D02*
X216916000Y-124714000D01*
X161798000Y-115984000D02*
X156718000Y-115984000D01*
X156718000Y-115984000D02*
X156718000Y-131224000D01*
X156718000Y-131224000D02*
X159258000Y-131224000D01*
X159258000Y-131224000D02*
X161798000Y-131224000D01*
X161798000Y-131224000D02*
X161798000Y-115984000D01*
X159258000Y-132334000D02*
X159258000Y-131224000D01*
X159258000Y-114874000D02*
X159258000Y-115984000D01*
X213360000Y-122174000D02*
X213360000Y-117094000D01*
X213360000Y-117094000D02*
X215900000Y-117094000D01*
X215900000Y-117094000D02*
X215900000Y-122174000D01*
X215900000Y-122174000D02*
X213360000Y-122174000D01*
X153670000Y-114874000D02*
X153670000Y-115984000D01*
X153670000Y-132334000D02*
X153670000Y-131224000D01*
X156210000Y-131224000D02*
X156210000Y-115984000D01*
X153670000Y-131224000D02*
X156210000Y-131224000D01*
X151130000Y-131224000D02*
X153670000Y-131224000D01*
X151130000Y-115984000D02*
X151130000Y-131224000D01*
X156210000Y-115984000D02*
X151130000Y-115984000D01*
X211836000Y-93599000D02*
X211836000Y-91059000D01*
X216916000Y-93599000D02*
X211836000Y-93599000D01*
X216916000Y-91059000D02*
X216916000Y-93599000D01*
X211836000Y-91059000D02*
X216916000Y-91059000D01*
X213360000Y-119634000D02*
X210820000Y-119634000D01*
X213360000Y-114554000D02*
X213360000Y-119634000D01*
X210820000Y-114554000D02*
X213360000Y-114554000D01*
X210820000Y-119634000D02*
X210820000Y-114554000D01*
X150622000Y-115984000D02*
X145542000Y-115984000D01*
X145542000Y-115984000D02*
X145542000Y-131224000D01*
X145542000Y-131224000D02*
X148082000Y-131224000D01*
X148082000Y-131224000D02*
X150622000Y-131224000D01*
X150622000Y-131224000D02*
X150622000Y-115984000D01*
X148082000Y-132334000D02*
X148082000Y-131224000D01*
X148082000Y-114874000D02*
X148082000Y-115984000D01*
D10*
X207972000Y-119929000D02*
X207572000Y-119929000D01*
X207972000Y-121879000D02*
X207572000Y-121879000D01*
X207572000Y-119929000D02*
G75*
G03X207572000Y-121879000I0J-975000D01*
G01*
X207972000Y-121879000D02*
G75*
G03X207972000Y-119929000I0J975000D01*
G01*
X207972000Y-122469000D02*
X207572000Y-122469000D01*
X207972000Y-124419000D02*
X207572000Y-124419000D01*
X207572000Y-122469000D02*
G75*
G03X207572000Y-124419000I0J-975000D01*
G01*
X207972000Y-124419000D02*
G75*
G03X207972000Y-122469000I0J975000D01*
G01*
X207972000Y-125009000D02*
X207572000Y-125009000D01*
X207972000Y-126959000D02*
X207572000Y-126959000D01*
X207572000Y-125009000D02*
G75*
G03X207572000Y-126959000I0J-975000D01*
G01*
X207972000Y-126959000D02*
G75*
G03X207972000Y-125009000I0J975000D01*
G01*
X207972000Y-127549000D02*
X207572000Y-127549000D01*
X207972000Y-129499000D02*
X207572000Y-129499000D01*
X207572000Y-127549000D02*
G75*
G03X207572000Y-129499000I0J-975000D01*
G01*
X207972000Y-129499000D02*
G75*
G03X207972000Y-127549000I0J975000D01*
G01*
X207972000Y-130089000D02*
X207572000Y-130089000D01*
X207972000Y-132039000D02*
X207572000Y-132039000D01*
X207572000Y-130089000D02*
G75*
G03X207572000Y-132039000I0J-975000D01*
G01*
X207972000Y-132039000D02*
G75*
G03X207972000Y-130089000I0J975000D01*
G01*
X207972000Y-132629000D02*
X207572000Y-132629000D01*
X207972000Y-134579000D02*
X207572000Y-134579000D01*
X207572000Y-132629000D02*
G75*
G03X207572000Y-134579000I0J-975000D01*
G01*
X207972000Y-134579000D02*
G75*
G03X207972000Y-132629000I0J975000D01*
G01*
X86560000Y-94529000D02*
X86160000Y-94529000D01*
X86560000Y-96479000D02*
X86160000Y-96479000D01*
X86160000Y-94529000D02*
G75*
G03X86160000Y-96479000I0J-975000D01*
G01*
X86560000Y-96479000D02*
G75*
G03X86560000Y-94529000I0J975000D01*
G01*
X86560000Y-97069000D02*
X86160000Y-97069000D01*
X86560000Y-99019000D02*
X86160000Y-99019000D01*
X86160000Y-97069000D02*
G75*
G03X86160000Y-99019000I0J-975000D01*
G01*
X86560000Y-99019000D02*
G75*
G03X86560000Y-97069000I0J975000D01*
G01*
X86560000Y-99609000D02*
X86160000Y-99609000D01*
X86560000Y-101559000D02*
X86160000Y-101559000D01*
X86160000Y-99609000D02*
G75*
G03X86160000Y-101559000I0J-975000D01*
G01*
X86560000Y-101559000D02*
G75*
G03X86560000Y-99609000I0J975000D01*
G01*
X86560000Y-102149000D02*
X86160000Y-102149000D01*
X86560000Y-104099000D02*
X86160000Y-104099000D01*
X86160000Y-102149000D02*
G75*
G03X86160000Y-104099000I0J-975000D01*
G01*
X86560000Y-104099000D02*
G75*
G03X86560000Y-102149000I0J975000D01*
G01*
X86560000Y-104689000D02*
X86160000Y-104689000D01*
X86560000Y-106639000D02*
X86160000Y-106639000D01*
X86160000Y-104689000D02*
G75*
G03X86160000Y-106639000I0J-975000D01*
G01*
X86560000Y-106639000D02*
G75*
G03X86560000Y-104689000I0J975000D01*
G01*
X86560000Y-107229000D02*
X86160000Y-107229000D01*
X86560000Y-109179000D02*
X86160000Y-109179000D01*
X86160000Y-107229000D02*
G75*
G03X86160000Y-109179000I0J-975000D01*
G01*
X86560000Y-109179000D02*
G75*
G03X86560000Y-107229000I0J975000D01*
G01*
X87081000Y-86615523D02*
X87081000Y-86215523D01*
X85131000Y-86615523D02*
X85131000Y-86215523D01*
X87081000Y-86215523D02*
G75*
G03X85131000Y-86215523I-975000J0D01*
G01*
X85131000Y-86615523D02*
G75*
G03X87081000Y-86615523I975000J0D01*
G01*
X84541000Y-86615523D02*
X84541000Y-86215523D01*
X82591000Y-86615523D02*
X82591000Y-86215523D01*
X84541000Y-86215523D02*
G75*
G03X82591000Y-86215523I-975000J0D01*
G01*
X82591000Y-86615523D02*
G75*
G03X84541000Y-86615523I975000J0D01*
G01*
X82001000Y-86615523D02*
X82001000Y-86215523D01*
X80051000Y-86615523D02*
X80051000Y-86215523D01*
X82001000Y-86215523D02*
G75*
G03X80051000Y-86215523I-975000J0D01*
G01*
X80051000Y-86615523D02*
G75*
G03X82001000Y-86615523I975000J0D01*
G01*
X143088000Y-86686952D02*
X143088000Y-86286952D01*
X141138000Y-86686952D02*
X141138000Y-86286952D01*
X143088000Y-86286952D02*
G75*
G03X141138000Y-86286952I-975000J0D01*
G01*
X141138000Y-86686952D02*
G75*
G03X143088000Y-86686952I975000J0D01*
G01*
X140548000Y-86686952D02*
X140548000Y-86286952D01*
X138598000Y-86686952D02*
X138598000Y-86286952D01*
X140548000Y-86286952D02*
G75*
G03X138598000Y-86286952I-975000J0D01*
G01*
X138598000Y-86686952D02*
G75*
G03X140548000Y-86686952I975000J0D01*
G01*
X138008000Y-86686952D02*
X138008000Y-86286952D01*
X136058000Y-86686952D02*
X136058000Y-86286952D01*
X138008000Y-86286952D02*
G75*
G03X136058000Y-86286952I-975000J0D01*
G01*
X136058000Y-86686952D02*
G75*
G03X138008000Y-86686952I975000J0D01*
G01*
X186141000Y-86686952D02*
X186141000Y-86286952D01*
X184191000Y-86686952D02*
X184191000Y-86286952D01*
X186141000Y-86286952D02*
G75*
G03X184191000Y-86286952I-975000J0D01*
G01*
X184191000Y-86686952D02*
G75*
G03X186141000Y-86686952I975000J0D01*
G01*
X183601000Y-86686952D02*
X183601000Y-86286952D01*
X181651000Y-86686952D02*
X181651000Y-86286952D01*
X183601000Y-86286952D02*
G75*
G03X181651000Y-86286952I-975000J0D01*
G01*
X181651000Y-86686952D02*
G75*
G03X183601000Y-86686952I975000J0D01*
G01*
X181061000Y-86686952D02*
X181061000Y-86286952D01*
X179111000Y-86686952D02*
X179111000Y-86286952D01*
X181061000Y-86286952D02*
G75*
G03X179111000Y-86286952I-975000J0D01*
G01*
X179111000Y-86686952D02*
G75*
G03X181061000Y-86686952I975000J0D01*
G01*
X224971000Y-136357000D02*
X225371000Y-136357000D01*
X224971000Y-134407000D02*
X225371000Y-134407000D01*
X225371000Y-136357000D02*
G75*
G03X225371000Y-134407000I0J975000D01*
G01*
X224971000Y-134407000D02*
G75*
G03X224971000Y-136357000I0J-975000D01*
G01*
X224971000Y-133817000D02*
X225371000Y-133817000D01*
X224971000Y-131867000D02*
X225371000Y-131867000D01*
X225371000Y-133817000D02*
G75*
G03X225371000Y-131867000I0J975000D01*
G01*
X224971000Y-131867000D02*
G75*
G03X224971000Y-133817000I0J-975000D01*
G01*
X224971000Y-131277000D02*
X225371000Y-131277000D01*
X224971000Y-129327000D02*
X225371000Y-129327000D01*
X225371000Y-131277000D02*
G75*
G03X225371000Y-129327000I0J975000D01*
G01*
X224971000Y-129327000D02*
G75*
G03X224971000Y-131277000I0J-975000D01*
G01*
X121117000Y-86758381D02*
X121117000Y-86358381D01*
X119167000Y-86758381D02*
X119167000Y-86358381D01*
X121117000Y-86358381D02*
G75*
G03X119167000Y-86358381I-975000J0D01*
G01*
X119167000Y-86758381D02*
G75*
G03X121117000Y-86758381I975000J0D01*
G01*
X118577000Y-86758381D02*
X118577000Y-86358381D01*
X116627000Y-86758381D02*
X116627000Y-86358381D01*
X118577000Y-86358381D02*
G75*
G03X116627000Y-86358381I-975000J0D01*
G01*
X116627000Y-86758381D02*
G75*
G03X118577000Y-86758381I975000J0D01*
G01*
X116037000Y-86758381D02*
X116037000Y-86358381D01*
X114087000Y-86758381D02*
X114087000Y-86358381D01*
X116037000Y-86358381D02*
G75*
G03X114087000Y-86358381I-975000J0D01*
G01*
X114087000Y-86758381D02*
G75*
G03X116037000Y-86758381I975000J0D01*
G01*
X165186000Y-86686952D02*
X165186000Y-86286952D01*
X163236000Y-86686952D02*
X163236000Y-86286952D01*
X165186000Y-86286952D02*
G75*
G03X163236000Y-86286952I-975000J0D01*
G01*
X163236000Y-86686952D02*
G75*
G03X165186000Y-86686952I975000J0D01*
G01*
X162646000Y-86686952D02*
X162646000Y-86286952D01*
X160696000Y-86686952D02*
X160696000Y-86286952D01*
X162646000Y-86286952D02*
G75*
G03X160696000Y-86286952I-975000J0D01*
G01*
X160696000Y-86686952D02*
G75*
G03X162646000Y-86686952I975000J0D01*
G01*
X160106000Y-86686952D02*
X160106000Y-86286952D01*
X158156000Y-86686952D02*
X158156000Y-86286952D01*
X160106000Y-86286952D02*
G75*
G03X158156000Y-86286952I-975000J0D01*
G01*
X158156000Y-86686952D02*
G75*
G03X160106000Y-86686952I975000J0D01*
G01*
X224844000Y-123911000D02*
X225244000Y-123911000D01*
X224844000Y-121961000D02*
X225244000Y-121961000D01*
X225244000Y-123911000D02*
G75*
G03X225244000Y-121961000I0J975000D01*
G01*
X224844000Y-121961000D02*
G75*
G03X224844000Y-123911000I0J-975000D01*
G01*
X224844000Y-121371000D02*
X225244000Y-121371000D01*
X224844000Y-119421000D02*
X225244000Y-119421000D01*
X225244000Y-121371000D02*
G75*
G03X225244000Y-119421000I0J975000D01*
G01*
X224844000Y-119421000D02*
G75*
G03X224844000Y-121371000I0J-975000D01*
G01*
X224844000Y-118831000D02*
X225244000Y-118831000D01*
X224844000Y-116881000D02*
X225244000Y-116881000D01*
X225244000Y-118831000D02*
G75*
G03X225244000Y-116881000I0J975000D01*
G01*
X224844000Y-116881000D02*
G75*
G03X224844000Y-118831000I0J-975000D01*
G01*
X224804334Y-111465000D02*
X225204334Y-111465000D01*
X224804334Y-109515000D02*
X225204334Y-109515000D01*
X225204334Y-111465000D02*
G75*
G03X225204334Y-109515000I0J975000D01*
G01*
X224804334Y-109515000D02*
G75*
G03X224804334Y-111465000I0J-975000D01*
G01*
X224804334Y-108925000D02*
X225204334Y-108925000D01*
X224804334Y-106975000D02*
X225204334Y-106975000D01*
X225204334Y-108925000D02*
G75*
G03X225204334Y-106975000I0J975000D01*
G01*
X224804334Y-106975000D02*
G75*
G03X224804334Y-108925000I0J-975000D01*
G01*
X224804334Y-106385000D02*
X225204334Y-106385000D01*
X224804334Y-104435000D02*
X225204334Y-104435000D01*
X225204334Y-106385000D02*
G75*
G03X225204334Y-104435000I0J975000D01*
G01*
X224804334Y-104435000D02*
G75*
G03X224804334Y-106385000I0J-975000D01*
G01*
X219161000Y-86814000D02*
X219161000Y-86414000D01*
X217211000Y-86814000D02*
X217211000Y-86414000D01*
X219161000Y-86414000D02*
G75*
G03X217211000Y-86414000I-975000J0D01*
G01*
X217211000Y-86814000D02*
G75*
G03X219161000Y-86814000I975000J0D01*
G01*
X216621000Y-86814000D02*
X216621000Y-86414000D01*
X214671000Y-86814000D02*
X214671000Y-86414000D01*
X216621000Y-86414000D02*
G75*
G03X214671000Y-86414000I-975000J0D01*
G01*
X214671000Y-86814000D02*
G75*
G03X216621000Y-86814000I975000J0D01*
G01*
X214081000Y-86814000D02*
X214081000Y-86414000D01*
X212131000Y-86814000D02*
X212131000Y-86414000D01*
X214081000Y-86414000D02*
G75*
G03X212131000Y-86414000I-975000J0D01*
G01*
X212131000Y-86814000D02*
G75*
G03X214081000Y-86814000I975000J0D01*
G01*
X75794000Y-86671000D02*
X75794000Y-86303000D01*
X73812000Y-86671000D02*
X73812000Y-86303000D01*
X75794000Y-86303000D02*
G75*
G03X73812000Y-86303000I-991000J0D01*
G01*
X73812000Y-86671000D02*
G75*
G03X75794000Y-86671000I991000J0D01*
G01*
X171059000Y-139446000D02*
G75*
G03X171059000Y-139446000I-625000J0D01*
G01*
X176647000Y-139441000D02*
G75*
G03X176647000Y-139441000I-625000J0D01*
G01*
X159883000Y-139446000D02*
G75*
G03X159883000Y-139446000I-625000J0D01*
G01*
X165471000Y-139446000D02*
G75*
G03X165471000Y-139446000I-625000J0D01*
G01*
X154295000Y-139446000D02*
G75*
G03X154295000Y-139446000I-625000J0D01*
G01*
X148707000Y-139446000D02*
G75*
G03X148707000Y-139446000I-625000J0D01*
G01*
X232004000Y-88646000D02*
G75*
G03X232004000Y-88646000I-1880000J0D01*
G01*
X232004000Y-93726000D02*
G75*
G03X232004000Y-93726000I-1880000J0D01*
G01*
X232004000Y-98806000D02*
G75*
G03X232004000Y-98806000I-1880000J0D01*
G01*
X178521000Y-92964000D02*
G75*
G03X178521000Y-92964000I-975000J0D01*
G01*
X186141000Y-92964000D02*
G75*
G03X186141000Y-92964000I-975000J0D01*
G01*
X75075000Y-140000000D02*
G75*
G03X75075000Y-140000000I-1075000J0D01*
G01*
X102929000Y-90170000D02*
G75*
G03X102929000Y-90170000I-1075000J0D01*
G01*
X235075000Y-139792000D02*
G75*
G03X235075000Y-139792000I-1075000J0D01*
G01*
X235075000Y-75000000D02*
G75*
G03X235075000Y-75000000I-1075000J0D01*
G01*
X165821000Y-113604000D02*
G75*
G03X165821000Y-113604000I-975000J0D01*
G01*
X165821000Y-133604000D02*
G75*
G03X165821000Y-133604000I-975000J0D01*
G01*
X121117000Y-93726000D02*
G75*
G03X121117000Y-93726000I-975000J0D01*
G01*
X113497000Y-93726000D02*
G75*
G03X113497000Y-93726000I-975000J0D01*
G01*
X135595000Y-93726000D02*
G75*
G03X135595000Y-93726000I-975000J0D01*
G01*
X143215000Y-93726000D02*
G75*
G03X143215000Y-93726000I-975000J0D01*
G01*
X84541000Y-90170000D02*
G75*
G03X84541000Y-90170000I-975000J0D01*
G01*
X92161000Y-90170000D02*
G75*
G03X92161000Y-90170000I-975000J0D01*
G01*
X165059000Y-93726000D02*
G75*
G03X165059000Y-93726000I-975000J0D01*
G01*
X157439000Y-93726000D02*
G75*
G03X157439000Y-93726000I-975000J0D01*
G01*
X211541000Y-133604000D02*
G75*
G03X211541000Y-133604000I-975000J0D01*
G01*
X219161000Y-133604000D02*
G75*
G03X219161000Y-133604000I-975000J0D01*
G01*
X176997000Y-133604000D02*
G75*
G03X176997000Y-133604000I-975000J0D01*
G01*
X176997000Y-113604000D02*
G75*
G03X176997000Y-113604000I-975000J0D01*
G01*
X219161000Y-131064000D02*
G75*
G03X219161000Y-131064000I-975000J0D01*
G01*
X211541000Y-131064000D02*
G75*
G03X211541000Y-131064000I-975000J0D01*
G01*
X171409000Y-133604000D02*
G75*
G03X171409000Y-133604000I-975000J0D01*
G01*
X171409000Y-113604000D02*
G75*
G03X171409000Y-113604000I-975000J0D01*
G01*
X211541000Y-128524000D02*
G75*
G03X211541000Y-128524000I-975000J0D01*
G01*
X219161000Y-128524000D02*
G75*
G03X219161000Y-128524000I-975000J0D01*
G01*
X219161000Y-125984000D02*
G75*
G03X219161000Y-125984000I-975000J0D01*
G01*
X211541000Y-125984000D02*
G75*
G03X211541000Y-125984000I-975000J0D01*
G01*
X160233000Y-113604000D02*
G75*
G03X160233000Y-113604000I-975000J0D01*
G01*
X160233000Y-133604000D02*
G75*
G03X160233000Y-133604000I-975000J0D01*
G01*
X215605000Y-123444000D02*
G75*
G03X215605000Y-123444000I-975000J0D01*
G01*
X215605000Y-115824000D02*
G75*
G03X215605000Y-115824000I-975000J0D01*
G01*
X154645000Y-133604000D02*
G75*
G03X154645000Y-133604000I-975000J0D01*
G01*
X154645000Y-113604000D02*
G75*
G03X154645000Y-113604000I-975000J0D01*
G01*
X219161000Y-92329000D02*
G75*
G03X219161000Y-92329000I-975000J0D01*
G01*
X211541000Y-92329000D02*
G75*
G03X211541000Y-92329000I-975000J0D01*
G01*
X213065000Y-113284000D02*
G75*
G03X213065000Y-113284000I-975000J0D01*
G01*
X213065000Y-120904000D02*
G75*
G03X213065000Y-120904000I-975000J0D01*
G01*
X149057000Y-113604000D02*
G75*
G03X149057000Y-113604000I-975000J0D01*
G01*
X149057000Y-133604000D02*
G75*
G03X149057000Y-133604000I-975000J0D01*
G01*
D11*
X205354180Y-127992095D02*
X204354180Y-127992095D01*
X204354180Y-127611142D01*
X204401800Y-127515904D01*
X204449419Y-127468285D01*
X204544657Y-127420666D01*
X204687514Y-127420666D01*
X204782752Y-127468285D01*
X204830371Y-127515904D01*
X204877990Y-127611142D01*
X204877990Y-127992095D01*
X204354180Y-126515904D02*
X204354180Y-126992095D01*
X204830371Y-127039714D01*
X204782752Y-126992095D01*
X204735133Y-126896857D01*
X204735133Y-126658761D01*
X204782752Y-126563523D01*
X204830371Y-126515904D01*
X204925609Y-126468285D01*
X205163704Y-126468285D01*
X205258942Y-126515904D01*
X205306561Y-126563523D01*
X205354180Y-126658761D01*
X205354180Y-126896857D01*
X205306561Y-126992095D01*
X205258942Y-127039714D01*
X83942180Y-102592095D02*
X82942180Y-102592095D01*
X82942180Y-102211142D01*
X82989800Y-102115904D01*
X83037419Y-102068285D01*
X83132657Y-102020666D01*
X83275514Y-102020666D01*
X83370752Y-102068285D01*
X83418371Y-102115904D01*
X83465990Y-102211142D01*
X83465990Y-102592095D01*
X82942180Y-101163523D02*
X82942180Y-101354000D01*
X82989800Y-101449238D01*
X83037419Y-101496857D01*
X83180276Y-101592095D01*
X83370752Y-101639714D01*
X83751704Y-101639714D01*
X83846942Y-101592095D01*
X83894561Y-101544476D01*
X83942180Y-101449238D01*
X83942180Y-101258761D01*
X83894561Y-101163523D01*
X83846942Y-101115904D01*
X83751704Y-101068285D01*
X83513609Y-101068285D01*
X83418371Y-101115904D01*
X83370752Y-101163523D01*
X83323133Y-101258761D01*
X83323133Y-101449238D01*
X83370752Y-101544476D01*
X83418371Y-101592095D01*
X83513609Y-101639714D01*
X82700904Y-84018380D02*
X82700904Y-83018380D01*
X83081857Y-83018380D01*
X83177095Y-83066000D01*
X83224714Y-83113619D01*
X83272333Y-83208857D01*
X83272333Y-83351714D01*
X83224714Y-83446952D01*
X83177095Y-83494571D01*
X83081857Y-83542190D01*
X82700904Y-83542190D01*
X84224714Y-84018380D02*
X83653285Y-84018380D01*
X83939000Y-84018380D02*
X83939000Y-83018380D01*
X83843761Y-83161238D01*
X83748523Y-83256476D01*
X83653285Y-83304095D01*
X138707904Y-84145380D02*
X138707904Y-83145380D01*
X139088857Y-83145380D01*
X139184095Y-83193000D01*
X139231714Y-83240619D01*
X139279333Y-83335857D01*
X139279333Y-83478714D01*
X139231714Y-83573952D01*
X139184095Y-83621571D01*
X139088857Y-83669190D01*
X138707904Y-83669190D01*
X140136476Y-83478714D02*
X140136476Y-84145380D01*
X139898380Y-83097761D02*
X139660285Y-83812047D01*
X140279333Y-83812047D01*
X182014904Y-84145380D02*
X182014904Y-83145380D01*
X182395857Y-83145380D01*
X182491095Y-83193000D01*
X182538714Y-83240619D01*
X182586333Y-83335857D01*
X182586333Y-83478714D01*
X182538714Y-83573952D01*
X182491095Y-83621571D01*
X182395857Y-83669190D01*
X182014904Y-83669190D01*
X183062523Y-84145380D02*
X183253000Y-84145380D01*
X183348238Y-84097761D01*
X183395857Y-84050142D01*
X183491095Y-83907285D01*
X183538714Y-83716809D01*
X183538714Y-83335857D01*
X183491095Y-83240619D01*
X183443476Y-83193000D01*
X183348238Y-83145380D01*
X183157761Y-83145380D01*
X183062523Y-83193000D01*
X183014904Y-83240619D01*
X182967285Y-83335857D01*
X182967285Y-83573952D01*
X183014904Y-83669190D01*
X183062523Y-83716809D01*
X183157761Y-83764428D01*
X183348238Y-83764428D01*
X183443476Y-83716809D01*
X183491095Y-83669190D01*
X183538714Y-83573952D01*
X228544380Y-133580095D02*
X227544380Y-133580095D01*
X227544380Y-133199142D01*
X227592000Y-133103904D01*
X227639619Y-133056285D01*
X227734857Y-133008666D01*
X227877714Y-133008666D01*
X227972952Y-133056285D01*
X228020571Y-133103904D01*
X228068190Y-133199142D01*
X228068190Y-133580095D01*
X227639619Y-132627714D02*
X227592000Y-132580095D01*
X227544380Y-132484857D01*
X227544380Y-132246761D01*
X227592000Y-132151523D01*
X227639619Y-132103904D01*
X227734857Y-132056285D01*
X227830095Y-132056285D01*
X227972952Y-132103904D01*
X228544380Y-132675333D01*
X228544380Y-132056285D01*
X116863904Y-84272380D02*
X116863904Y-83272380D01*
X117244857Y-83272380D01*
X117340095Y-83320000D01*
X117387714Y-83367619D01*
X117435333Y-83462857D01*
X117435333Y-83605714D01*
X117387714Y-83700952D01*
X117340095Y-83748571D01*
X117244857Y-83796190D01*
X116863904Y-83796190D01*
X117768666Y-83272380D02*
X118387714Y-83272380D01*
X118054380Y-83653333D01*
X118197238Y-83653333D01*
X118292476Y-83700952D01*
X118340095Y-83748571D01*
X118387714Y-83843809D01*
X118387714Y-84081904D01*
X118340095Y-84177142D01*
X118292476Y-84224761D01*
X118197238Y-84272380D01*
X117911523Y-84272380D01*
X117816285Y-84224761D01*
X117768666Y-84177142D01*
X161186904Y-84272380D02*
X161186904Y-83272380D01*
X161567857Y-83272380D01*
X161663095Y-83320000D01*
X161710714Y-83367619D01*
X161758333Y-83462857D01*
X161758333Y-83605714D01*
X161710714Y-83700952D01*
X161663095Y-83748571D01*
X161567857Y-83796190D01*
X161186904Y-83796190D01*
X162329761Y-83700952D02*
X162234523Y-83653333D01*
X162186904Y-83605714D01*
X162139285Y-83510476D01*
X162139285Y-83462857D01*
X162186904Y-83367619D01*
X162234523Y-83320000D01*
X162329761Y-83272380D01*
X162520238Y-83272380D01*
X162615476Y-83320000D01*
X162663095Y-83367619D01*
X162710714Y-83462857D01*
X162710714Y-83510476D01*
X162663095Y-83605714D01*
X162615476Y-83653333D01*
X162520238Y-83700952D01*
X162329761Y-83700952D01*
X162234523Y-83748571D01*
X162186904Y-83796190D01*
X162139285Y-83891428D01*
X162139285Y-84081904D01*
X162186904Y-84177142D01*
X162234523Y-84224761D01*
X162329761Y-84272380D01*
X162520238Y-84272380D01*
X162615476Y-84224761D01*
X162663095Y-84177142D01*
X162710714Y-84081904D01*
X162710714Y-83891428D01*
X162663095Y-83796190D01*
X162615476Y-83748571D01*
X162520238Y-83700952D01*
X228417380Y-120880095D02*
X227417380Y-120880095D01*
X227417380Y-120499142D01*
X227465000Y-120403904D01*
X227512619Y-120356285D01*
X227607857Y-120308666D01*
X227750714Y-120308666D01*
X227845952Y-120356285D01*
X227893571Y-120403904D01*
X227941190Y-120499142D01*
X227941190Y-120880095D01*
X227417380Y-119975333D02*
X227417380Y-119308666D01*
X228417380Y-119737238D01*
X228544380Y-109291285D02*
X227544380Y-109291285D01*
X227544380Y-108910333D01*
X227592000Y-108815095D01*
X227639619Y-108767476D01*
X227734857Y-108719857D01*
X227877714Y-108719857D01*
X227972952Y-108767476D01*
X228020571Y-108815095D01*
X228068190Y-108910333D01*
X228068190Y-109291285D01*
X228544380Y-107767476D02*
X228544380Y-108338904D01*
X228544380Y-108053190D02*
X227544380Y-108053190D01*
X227687238Y-108148428D01*
X227782476Y-108243666D01*
X227830095Y-108338904D01*
X227544380Y-107148428D02*
X227544380Y-107053190D01*
X227592000Y-106957952D01*
X227639619Y-106910333D01*
X227734857Y-106862714D01*
X227925333Y-106815095D01*
X228163428Y-106815095D01*
X228353904Y-106862714D01*
X228449142Y-106910333D01*
X228496761Y-106957952D01*
X228544380Y-107053190D01*
X228544380Y-107148428D01*
X228496761Y-107243666D01*
X228449142Y-107291285D01*
X228353904Y-107338904D01*
X228163428Y-107386523D01*
X227925333Y-107386523D01*
X227734857Y-107338904D01*
X227639619Y-107291285D01*
X227592000Y-107243666D01*
X227544380Y-107148428D01*
X214050714Y-84272380D02*
X214050714Y-83272380D01*
X214431666Y-83272380D01*
X214526904Y-83320000D01*
X214574523Y-83367619D01*
X214622142Y-83462857D01*
X214622142Y-83605714D01*
X214574523Y-83700952D01*
X214526904Y-83748571D01*
X214431666Y-83796190D01*
X214050714Y-83796190D01*
X215574523Y-84272380D02*
X215003095Y-84272380D01*
X215288809Y-84272380D02*
X215288809Y-83272380D01*
X215193571Y-83415238D01*
X215098333Y-83510476D01*
X215003095Y-83558095D01*
X216526904Y-84272380D02*
X215955476Y-84272380D01*
X216241190Y-84272380D02*
X216241190Y-83272380D01*
X216145952Y-83415238D01*
X216050714Y-83510476D01*
X215955476Y-83558095D01*
X74858714Y-84145380D02*
X74858714Y-83145380D01*
X75239666Y-83145380D01*
X75334904Y-83193000D01*
X75382523Y-83240619D01*
X75430142Y-83335857D01*
X75430142Y-83478714D01*
X75382523Y-83573952D01*
X75334904Y-83621571D01*
X75239666Y-83669190D01*
X74858714Y-83669190D01*
X76382523Y-84145380D02*
X75811095Y-84145380D01*
X76096809Y-84145380D02*
X76096809Y-83145380D01*
X76001571Y-83288238D01*
X75906333Y-83383476D01*
X75811095Y-83431095D01*
X76763476Y-83240619D02*
X76811095Y-83193000D01*
X76906333Y-83145380D01*
X77144428Y-83145380D01*
X77239666Y-83193000D01*
X77287285Y-83240619D01*
X77334904Y-83335857D01*
X77334904Y-83431095D01*
X77287285Y-83573952D01*
X76715857Y-84145380D01*
X77334904Y-84145380D01*
X170267333Y-137263142D02*
X170219714Y-137310761D01*
X170076857Y-137358380D01*
X169981619Y-137358380D01*
X169838761Y-137310761D01*
X169743523Y-137215523D01*
X169695904Y-137120285D01*
X169648285Y-136929809D01*
X169648285Y-136786952D01*
X169695904Y-136596476D01*
X169743523Y-136501238D01*
X169838761Y-136406000D01*
X169981619Y-136358380D01*
X170076857Y-136358380D01*
X170219714Y-136406000D01*
X170267333Y-136453619D01*
X170648285Y-136453619D02*
X170695904Y-136406000D01*
X170791142Y-136358380D01*
X171029238Y-136358380D01*
X171124476Y-136406000D01*
X171172095Y-136453619D01*
X171219714Y-136548857D01*
X171219714Y-136644095D01*
X171172095Y-136786952D01*
X170600666Y-137358380D01*
X171219714Y-137358380D01*
X175855333Y-137258142D02*
X175807714Y-137305761D01*
X175664857Y-137353380D01*
X175569619Y-137353380D01*
X175426761Y-137305761D01*
X175331523Y-137210523D01*
X175283904Y-137115285D01*
X175236285Y-136924809D01*
X175236285Y-136781952D01*
X175283904Y-136591476D01*
X175331523Y-136496238D01*
X175426761Y-136401000D01*
X175569619Y-136353380D01*
X175664857Y-136353380D01*
X175807714Y-136401000D01*
X175855333Y-136448619D01*
X176807714Y-137353380D02*
X176236285Y-137353380D01*
X176522000Y-137353380D02*
X176522000Y-136353380D01*
X176426761Y-136496238D01*
X176331523Y-136591476D01*
X176236285Y-136639095D01*
X159091333Y-137263142D02*
X159043714Y-137310761D01*
X158900857Y-137358380D01*
X158805619Y-137358380D01*
X158662761Y-137310761D01*
X158567523Y-137215523D01*
X158519904Y-137120285D01*
X158472285Y-136929809D01*
X158472285Y-136786952D01*
X158519904Y-136596476D01*
X158567523Y-136501238D01*
X158662761Y-136406000D01*
X158805619Y-136358380D01*
X158900857Y-136358380D01*
X159043714Y-136406000D01*
X159091333Y-136453619D01*
X159948476Y-136691714D02*
X159948476Y-137358380D01*
X159710380Y-136310761D02*
X159472285Y-137025047D01*
X160091333Y-137025047D01*
X164679333Y-137263142D02*
X164631714Y-137310761D01*
X164488857Y-137358380D01*
X164393619Y-137358380D01*
X164250761Y-137310761D01*
X164155523Y-137215523D01*
X164107904Y-137120285D01*
X164060285Y-136929809D01*
X164060285Y-136786952D01*
X164107904Y-136596476D01*
X164155523Y-136501238D01*
X164250761Y-136406000D01*
X164393619Y-136358380D01*
X164488857Y-136358380D01*
X164631714Y-136406000D01*
X164679333Y-136453619D01*
X165012666Y-136358380D02*
X165631714Y-136358380D01*
X165298380Y-136739333D01*
X165441238Y-136739333D01*
X165536476Y-136786952D01*
X165584095Y-136834571D01*
X165631714Y-136929809D01*
X165631714Y-137167904D01*
X165584095Y-137263142D01*
X165536476Y-137310761D01*
X165441238Y-137358380D01*
X165155523Y-137358380D01*
X165060285Y-137310761D01*
X165012666Y-137263142D01*
X153503333Y-137263142D02*
X153455714Y-137310761D01*
X153312857Y-137358380D01*
X153217619Y-137358380D01*
X153074761Y-137310761D01*
X152979523Y-137215523D01*
X152931904Y-137120285D01*
X152884285Y-136929809D01*
X152884285Y-136786952D01*
X152931904Y-136596476D01*
X152979523Y-136501238D01*
X153074761Y-136406000D01*
X153217619Y-136358380D01*
X153312857Y-136358380D01*
X153455714Y-136406000D01*
X153503333Y-136453619D01*
X154408095Y-136358380D02*
X153931904Y-136358380D01*
X153884285Y-136834571D01*
X153931904Y-136786952D01*
X154027142Y-136739333D01*
X154265238Y-136739333D01*
X154360476Y-136786952D01*
X154408095Y-136834571D01*
X154455714Y-136929809D01*
X154455714Y-137167904D01*
X154408095Y-137263142D01*
X154360476Y-137310761D01*
X154265238Y-137358380D01*
X154027142Y-137358380D01*
X153931904Y-137310761D01*
X153884285Y-137263142D01*
X147915333Y-137263142D02*
X147867714Y-137310761D01*
X147724857Y-137358380D01*
X147629619Y-137358380D01*
X147486761Y-137310761D01*
X147391523Y-137215523D01*
X147343904Y-137120285D01*
X147296285Y-136929809D01*
X147296285Y-136786952D01*
X147343904Y-136596476D01*
X147391523Y-136501238D01*
X147486761Y-136406000D01*
X147629619Y-136358380D01*
X147724857Y-136358380D01*
X147867714Y-136406000D01*
X147915333Y-136453619D01*
X148772476Y-136358380D02*
X148582000Y-136358380D01*
X148486761Y-136406000D01*
X148439142Y-136453619D01*
X148343904Y-136596476D01*
X148296285Y-136786952D01*
X148296285Y-137167904D01*
X148343904Y-137263142D01*
X148391523Y-137310761D01*
X148486761Y-137358380D01*
X148677238Y-137358380D01*
X148772476Y-137310761D01*
X148820095Y-137263142D01*
X148867714Y-137167904D01*
X148867714Y-136929809D01*
X148820095Y-136834571D01*
X148772476Y-136786952D01*
X148677238Y-136739333D01*
X148486761Y-136739333D01*
X148391523Y-136786952D01*
X148343904Y-136834571D01*
X148296285Y-136929809D01*
X227274380Y-92400285D02*
X226274380Y-92400285D01*
X226274380Y-92019333D01*
X226322000Y-91924095D01*
X226369619Y-91876476D01*
X226464857Y-91828857D01*
X226607714Y-91828857D01*
X226702952Y-91876476D01*
X226750571Y-91924095D01*
X226798190Y-92019333D01*
X226798190Y-92400285D01*
X227274380Y-90876476D02*
X227274380Y-91447904D01*
X227274380Y-91162190D02*
X226274380Y-91162190D01*
X226417238Y-91257428D01*
X226512476Y-91352666D01*
X226560095Y-91447904D01*
X226274380Y-90543142D02*
X226274380Y-89924095D01*
X226655333Y-90257428D01*
X226655333Y-90114571D01*
X226702952Y-90019333D01*
X226750571Y-89971714D01*
X226845809Y-89924095D01*
X227083904Y-89924095D01*
X227179142Y-89971714D01*
X227226761Y-90019333D01*
X227274380Y-90114571D01*
X227274380Y-90400285D01*
X227226761Y-90495523D01*
X227179142Y-90543142D01*
X180967142Y-93416380D02*
X180633809Y-92940190D01*
X180395714Y-93416380D02*
X180395714Y-92416380D01*
X180776666Y-92416380D01*
X180871904Y-92464000D01*
X180919523Y-92511619D01*
X180967142Y-92606857D01*
X180967142Y-92749714D01*
X180919523Y-92844952D01*
X180871904Y-92892571D01*
X180776666Y-92940190D01*
X180395714Y-92940190D01*
X181919523Y-93416380D02*
X181348095Y-93416380D01*
X181633809Y-93416380D02*
X181633809Y-92416380D01*
X181538571Y-92559238D01*
X181443333Y-92654476D01*
X181348095Y-92702095D01*
X182252857Y-92416380D02*
X182871904Y-92416380D01*
X182538571Y-92797333D01*
X182681428Y-92797333D01*
X182776666Y-92844952D01*
X182824285Y-92892571D01*
X182871904Y-92987809D01*
X182871904Y-93225904D01*
X182824285Y-93321142D01*
X182776666Y-93368761D01*
X182681428Y-93416380D01*
X182395714Y-93416380D01*
X182300476Y-93368761D01*
X182252857Y-93321142D01*
X164679333Y-117800380D02*
X164346000Y-117324190D01*
X164107904Y-117800380D02*
X164107904Y-116800380D01*
X164488857Y-116800380D01*
X164584095Y-116848000D01*
X164631714Y-116895619D01*
X164679333Y-116990857D01*
X164679333Y-117133714D01*
X164631714Y-117228952D01*
X164584095Y-117276571D01*
X164488857Y-117324190D01*
X164107904Y-117324190D01*
X165250761Y-117228952D02*
X165155523Y-117181333D01*
X165107904Y-117133714D01*
X165060285Y-117038476D01*
X165060285Y-116990857D01*
X165107904Y-116895619D01*
X165155523Y-116848000D01*
X165250761Y-116800380D01*
X165441238Y-116800380D01*
X165536476Y-116848000D01*
X165584095Y-116895619D01*
X165631714Y-116990857D01*
X165631714Y-117038476D01*
X165584095Y-117133714D01*
X165536476Y-117181333D01*
X165441238Y-117228952D01*
X165250761Y-117228952D01*
X165155523Y-117276571D01*
X165107904Y-117324190D01*
X165060285Y-117419428D01*
X165060285Y-117609904D01*
X165107904Y-117705142D01*
X165155523Y-117752761D01*
X165250761Y-117800380D01*
X165441238Y-117800380D01*
X165536476Y-117752761D01*
X165584095Y-117705142D01*
X165631714Y-117609904D01*
X165631714Y-117419428D01*
X165584095Y-117324190D01*
X165536476Y-117276571D01*
X165441238Y-117228952D01*
X116414253Y-94178380D02*
X116080920Y-93702190D01*
X115842824Y-94178380D02*
X115842824Y-93178380D01*
X116223777Y-93178380D01*
X116319015Y-93226000D01*
X116366634Y-93273619D01*
X116414253Y-93368857D01*
X116414253Y-93511714D01*
X116366634Y-93606952D01*
X116319015Y-93654571D01*
X116223777Y-93702190D01*
X115842824Y-93702190D01*
X117271396Y-93178380D02*
X117080920Y-93178380D01*
X116985681Y-93226000D01*
X116938062Y-93273619D01*
X116842824Y-93416476D01*
X116795205Y-93606952D01*
X116795205Y-93987904D01*
X116842824Y-94083142D01*
X116890443Y-94130761D01*
X116985681Y-94178380D01*
X117176158Y-94178380D01*
X117271396Y-94130761D01*
X117319015Y-94083142D01*
X117366634Y-93987904D01*
X117366634Y-93749809D01*
X117319015Y-93654571D01*
X117271396Y-93606952D01*
X117176158Y-93559333D01*
X116985681Y-93559333D01*
X116890443Y-93606952D01*
X116842824Y-93654571D01*
X116795205Y-93749809D01*
X138771333Y-94178380D02*
X138438000Y-93702190D01*
X138199904Y-94178380D02*
X138199904Y-93178380D01*
X138580857Y-93178380D01*
X138676095Y-93226000D01*
X138723714Y-93273619D01*
X138771333Y-93368857D01*
X138771333Y-93511714D01*
X138723714Y-93606952D01*
X138676095Y-93654571D01*
X138580857Y-93702190D01*
X138199904Y-93702190D01*
X139247523Y-94178380D02*
X139438000Y-94178380D01*
X139533238Y-94130761D01*
X139580857Y-94083142D01*
X139676095Y-93940285D01*
X139723714Y-93749809D01*
X139723714Y-93368857D01*
X139676095Y-93273619D01*
X139628476Y-93226000D01*
X139533238Y-93178380D01*
X139342761Y-93178380D01*
X139247523Y-93226000D01*
X139199904Y-93273619D01*
X139152285Y-93368857D01*
X139152285Y-93606952D01*
X139199904Y-93702190D01*
X139247523Y-93749809D01*
X139342761Y-93797428D01*
X139533238Y-93797428D01*
X139628476Y-93749809D01*
X139676095Y-93702190D01*
X139723714Y-93606952D01*
X87209333Y-90622380D02*
X86876000Y-90146190D01*
X86637904Y-90622380D02*
X86637904Y-89622380D01*
X87018857Y-89622380D01*
X87114095Y-89670000D01*
X87161714Y-89717619D01*
X87209333Y-89812857D01*
X87209333Y-89955714D01*
X87161714Y-90050952D01*
X87114095Y-90098571D01*
X87018857Y-90146190D01*
X86637904Y-90146190D01*
X87542666Y-89622380D02*
X88161714Y-89622380D01*
X87828380Y-90003333D01*
X87971238Y-90003333D01*
X88066476Y-90050952D01*
X88114095Y-90098571D01*
X88161714Y-90193809D01*
X88161714Y-90431904D01*
X88114095Y-90527142D01*
X88066476Y-90574761D01*
X87971238Y-90622380D01*
X87685523Y-90622380D01*
X87590285Y-90574761D01*
X87542666Y-90527142D01*
X159880062Y-94178380D02*
X159546729Y-93702190D01*
X159308634Y-94178380D02*
X159308634Y-93178380D01*
X159689586Y-93178380D01*
X159784824Y-93226000D01*
X159832443Y-93273619D01*
X159880062Y-93368857D01*
X159880062Y-93511714D01*
X159832443Y-93606952D01*
X159784824Y-93654571D01*
X159689586Y-93702190D01*
X159308634Y-93702190D01*
X160832443Y-94178380D02*
X160261015Y-94178380D01*
X160546729Y-94178380D02*
X160546729Y-93178380D01*
X160451491Y-93321238D01*
X160356253Y-93416476D01*
X160261015Y-93464095D01*
X161784824Y-94178380D02*
X161213396Y-94178380D01*
X161499110Y-94178380D02*
X161499110Y-93178380D01*
X161403872Y-93321238D01*
X161308634Y-93416476D01*
X161213396Y-93464095D01*
X175855333Y-117866380D02*
X175522000Y-117390190D01*
X175283904Y-117866380D02*
X175283904Y-116866380D01*
X175664857Y-116866380D01*
X175760095Y-116914000D01*
X175807714Y-116961619D01*
X175855333Y-117056857D01*
X175855333Y-117199714D01*
X175807714Y-117294952D01*
X175760095Y-117342571D01*
X175664857Y-117390190D01*
X175283904Y-117390190D01*
X176236285Y-116961619D02*
X176283904Y-116914000D01*
X176379142Y-116866380D01*
X176617238Y-116866380D01*
X176712476Y-116914000D01*
X176760095Y-116961619D01*
X176807714Y-117056857D01*
X176807714Y-117152095D01*
X176760095Y-117294952D01*
X176188666Y-117866380D01*
X176807714Y-117866380D01*
X170267333Y-117800380D02*
X169934000Y-117324190D01*
X169695904Y-117800380D02*
X169695904Y-116800380D01*
X170076857Y-116800380D01*
X170172095Y-116848000D01*
X170219714Y-116895619D01*
X170267333Y-116990857D01*
X170267333Y-117133714D01*
X170219714Y-117228952D01*
X170172095Y-117276571D01*
X170076857Y-117324190D01*
X169695904Y-117324190D01*
X171172095Y-116800380D02*
X170695904Y-116800380D01*
X170648285Y-117276571D01*
X170695904Y-117228952D01*
X170791142Y-117181333D01*
X171029238Y-117181333D01*
X171124476Y-117228952D01*
X171172095Y-117276571D01*
X171219714Y-117371809D01*
X171219714Y-117609904D01*
X171172095Y-117705142D01*
X171124476Y-117752761D01*
X171029238Y-117800380D01*
X170791142Y-117800380D01*
X170695904Y-117752761D01*
X170648285Y-117705142D01*
X158615142Y-117800380D02*
X158281809Y-117324190D01*
X158043714Y-117800380D02*
X158043714Y-116800380D01*
X158424666Y-116800380D01*
X158519904Y-116848000D01*
X158567523Y-116895619D01*
X158615142Y-116990857D01*
X158615142Y-117133714D01*
X158567523Y-117228952D01*
X158519904Y-117276571D01*
X158424666Y-117324190D01*
X158043714Y-117324190D01*
X159567523Y-117800380D02*
X158996095Y-117800380D01*
X159281809Y-117800380D02*
X159281809Y-116800380D01*
X159186571Y-116943238D01*
X159091333Y-117038476D01*
X158996095Y-117086095D01*
X159948476Y-116895619D02*
X159996095Y-116848000D01*
X160091333Y-116800380D01*
X160329428Y-116800380D01*
X160424666Y-116848000D01*
X160472285Y-116895619D01*
X160519904Y-116990857D01*
X160519904Y-117086095D01*
X160472285Y-117228952D01*
X159900857Y-117800380D01*
X160519904Y-117800380D01*
X153027142Y-117800380D02*
X152693809Y-117324190D01*
X152455714Y-117800380D02*
X152455714Y-116800380D01*
X152836666Y-116800380D01*
X152931904Y-116848000D01*
X152979523Y-116895619D01*
X153027142Y-116990857D01*
X153027142Y-117133714D01*
X152979523Y-117228952D01*
X152931904Y-117276571D01*
X152836666Y-117324190D01*
X152455714Y-117324190D01*
X153979523Y-117800380D02*
X153408095Y-117800380D01*
X153693809Y-117800380D02*
X153693809Y-116800380D01*
X153598571Y-116943238D01*
X153503333Y-117038476D01*
X153408095Y-117086095D01*
X154884285Y-116800380D02*
X154408095Y-116800380D01*
X154360476Y-117276571D01*
X154408095Y-117228952D01*
X154503333Y-117181333D01*
X154741428Y-117181333D01*
X154836666Y-117228952D01*
X154884285Y-117276571D01*
X154931904Y-117371809D01*
X154931904Y-117609904D01*
X154884285Y-117705142D01*
X154836666Y-117752761D01*
X154741428Y-117800380D01*
X154503333Y-117800380D01*
X154408095Y-117752761D01*
X154360476Y-117705142D01*
X213733142Y-92781380D02*
X213399809Y-92305190D01*
X213161714Y-92781380D02*
X213161714Y-91781380D01*
X213542666Y-91781380D01*
X213637904Y-91829000D01*
X213685523Y-91876619D01*
X213733142Y-91971857D01*
X213733142Y-92114714D01*
X213685523Y-92209952D01*
X213637904Y-92257571D01*
X213542666Y-92305190D01*
X213161714Y-92305190D01*
X214685523Y-92781380D02*
X214114095Y-92781380D01*
X214399809Y-92781380D02*
X214399809Y-91781380D01*
X214304571Y-91924238D01*
X214209333Y-92019476D01*
X214114095Y-92067095D01*
X215542666Y-91781380D02*
X215352190Y-91781380D01*
X215256952Y-91829000D01*
X215209333Y-91876619D01*
X215114095Y-92019476D01*
X215066476Y-92209952D01*
X215066476Y-92590904D01*
X215114095Y-92686142D01*
X215161714Y-92733761D01*
X215256952Y-92781380D01*
X215447428Y-92781380D01*
X215542666Y-92733761D01*
X215590285Y-92686142D01*
X215637904Y-92590904D01*
X215637904Y-92352809D01*
X215590285Y-92257571D01*
X215542666Y-92209952D01*
X215447428Y-92162333D01*
X215256952Y-92162333D01*
X215161714Y-92209952D01*
X215114095Y-92257571D01*
X215066476Y-92352809D01*
X147439142Y-118054380D02*
X147105809Y-117578190D01*
X146867714Y-118054380D02*
X146867714Y-117054380D01*
X147248666Y-117054380D01*
X147343904Y-117102000D01*
X147391523Y-117149619D01*
X147439142Y-117244857D01*
X147439142Y-117387714D01*
X147391523Y-117482952D01*
X147343904Y-117530571D01*
X147248666Y-117578190D01*
X146867714Y-117578190D01*
X148391523Y-118054380D02*
X147820095Y-118054380D01*
X148105809Y-118054380D02*
X148105809Y-117054380D01*
X148010571Y-117197238D01*
X147915333Y-117292476D01*
X147820095Y-117340095D01*
X148962952Y-117482952D02*
X148867714Y-117435333D01*
X148820095Y-117387714D01*
X148772476Y-117292476D01*
X148772476Y-117244857D01*
X148820095Y-117149619D01*
X148867714Y-117102000D01*
X148962952Y-117054380D01*
X149153428Y-117054380D01*
X149248666Y-117102000D01*
X149296285Y-117149619D01*
X149343904Y-117244857D01*
X149343904Y-117292476D01*
X149296285Y-117387714D01*
X149248666Y-117435333D01*
X149153428Y-117482952D01*
X148962952Y-117482952D01*
X148867714Y-117530571D01*
X148820095Y-117578190D01*
X148772476Y-117673428D01*
X148772476Y-117863904D01*
X148820095Y-117959142D01*
X148867714Y-118006761D01*
X148962952Y-118054380D01*
X149153428Y-118054380D01*
X149248666Y-118006761D01*
X149296285Y-117959142D01*
X149343904Y-117863904D01*
X149343904Y-117673428D01*
X149296285Y-117578190D01*
X149248666Y-117530571D01*
X149153428Y-117482952D01*
M02*
