G04 #@! TF.FileFunction,Copper,L1,Top,Signal*
%FSLAX46Y46*%
G04 Gerber Fmt 4.6, Leading zero omitted, Abs format (unit mm)*
G04 Created by KiCad (PCBNEW no-vcs-found-undefined) date Wed Oct 26 00:51:32 2016*
%MOMM*%
%LPD*%
G01*
G04 APERTURE LIST*
%ADD10C,0.050000*%
%ADD11O,2.400000X2.000000*%
%ADD12O,2.000000X2.400000*%
%ADD13R,2.032000X2.400000*%
%ADD14O,2.032000X2.400000*%
%ADD15C,1.300000*%
%ADD16R,1.300000X1.300000*%
%ADD17C,3.810000*%
%ADD18R,3.810000X3.810000*%
%ADD19C,2.000000*%
%ADD20C,2.000000*%
G04 APERTURE END LIST*
D10*
D11*
X207772000Y-120904000D03*
X207772000Y-123444000D03*
X207772000Y-125984000D03*
X207772000Y-128524000D03*
X207772000Y-131064000D03*
X207772000Y-133604000D03*
X86360000Y-95504000D03*
X86360000Y-98044000D03*
X86360000Y-100584000D03*
X86360000Y-103124000D03*
X86360000Y-105664000D03*
X86360000Y-108204000D03*
D12*
X86106000Y-86415523D03*
X83566000Y-86415523D03*
X81026000Y-86415523D03*
X142113000Y-86486952D03*
X139573000Y-86486952D03*
X137033000Y-86486952D03*
X185166000Y-86486952D03*
X182626000Y-86486952D03*
X180086000Y-86486952D03*
D11*
X225171000Y-135382000D03*
X225171000Y-132842000D03*
X225171000Y-130302000D03*
D12*
X120142000Y-86558381D03*
X117602000Y-86558381D03*
X115062000Y-86558381D03*
X164211000Y-86486952D03*
X161671000Y-86486952D03*
X159131000Y-86486952D03*
D11*
X225044000Y-122936000D03*
X225044000Y-120396000D03*
X225044000Y-117856000D03*
X225004334Y-110490000D03*
X225004334Y-107950000D03*
X225004334Y-105410000D03*
D12*
X218186000Y-86614000D03*
X215646000Y-86614000D03*
X213106000Y-86614000D03*
D13*
X77343000Y-86487000D03*
D14*
X74803000Y-86487000D03*
D15*
X170434000Y-139446000D03*
D16*
X170434000Y-135641000D03*
D15*
X176022000Y-139441000D03*
D16*
X176022000Y-135636000D03*
D15*
X159258000Y-139446000D03*
D16*
X159258000Y-135641000D03*
D15*
X164846000Y-139446000D03*
D16*
X164846000Y-135641000D03*
D15*
X153670000Y-139446000D03*
D16*
X153670000Y-135641000D03*
D15*
X148082000Y-139446000D03*
D16*
X148082000Y-135641000D03*
D17*
X230124000Y-88646000D03*
X230124000Y-93726000D03*
D18*
X230124000Y-83566000D03*
D17*
X230124000Y-98806000D03*
D19*
X177546000Y-92964000D03*
X185166000Y-92964000D03*
X164846000Y-113604000D03*
X164846000Y-133604000D03*
X120142000Y-93726000D03*
X112522000Y-93726000D03*
X134620000Y-93726000D03*
X142240000Y-93726000D03*
X83566000Y-90170000D03*
X91186000Y-90170000D03*
X164084000Y-93726000D03*
X156464000Y-93726000D03*
X210566000Y-133604000D03*
X218186000Y-133604000D03*
X176022000Y-133604000D03*
X176022000Y-113604000D03*
X218186000Y-131064000D03*
X210566000Y-131064000D03*
X170434000Y-133604000D03*
X170434000Y-113604000D03*
X210566000Y-128524000D03*
X218186000Y-128524000D03*
X218186000Y-125984000D03*
X210566000Y-125984000D03*
X159258000Y-113604000D03*
X159258000Y-133604000D03*
X214630000Y-123444000D03*
X214630000Y-115824000D03*
X153670000Y-133604000D03*
X153670000Y-113604000D03*
X218186000Y-92329000D03*
X210566000Y-92329000D03*
X212090000Y-113284000D03*
X212090000Y-120904000D03*
X148082000Y-113604000D03*
X148082000Y-133604000D03*
X92456000Y-76708000D03*
X92456000Y-85852000D03*
X192278000Y-85852000D03*
X170180000Y-85852000D03*
X147828000Y-85852000D03*
X192278000Y-76708000D03*
X170180000Y-76708000D03*
X125730000Y-85852000D03*
X147828000Y-76708000D03*
X125730000Y-76708000D03*
D20*
X92456000Y-85852000D02*
X92456000Y-76708000D01*
X192278000Y-85852000D02*
X192278000Y-76708000D01*
X170180000Y-85852000D02*
X170180000Y-76708000D01*
X147828000Y-85852000D02*
X147828000Y-76708000D01*
X125730000Y-85852000D02*
X125730000Y-76708000D01*
M02*
