G04 #@! TF.FileFunction,Copper,L1,Top,Signal*
%FSLAX46Y46*%
G04 Gerber Fmt 4.6, Leading zero omitted, Abs format (unit mm)*
G04 Created by KiCad (PCBNEW no-vcs-found-undefined) date Mon Oct 24 17:52:01 2016*
%MOMM*%
%LPD*%
G01*
G04 APERTURE LIST*
%ADD10C,0.050000*%
%ADD11C,2.000000*%
%ADD12R,1.300000X1.300000*%
%ADD13C,1.300000*%
%ADD14R,2.000000X2.000000*%
%ADD15O,2.032000X2.032000*%
%ADD16R,2.032000X2.032000*%
%ADD17C,3.810000*%
%ADD18R,3.810000X3.810000*%
%ADD19C,2.000000*%
G04 APERTURE END LIST*
D10*
D11*
X166370000Y-113604000D03*
X166370000Y-133604000D03*
D12*
X172974000Y-135641000D03*
D13*
X172974000Y-139446000D03*
D12*
X179618000Y-135641000D03*
D13*
X179618000Y-139446000D03*
X159766000Y-139446000D03*
D12*
X159766000Y-135641000D03*
D11*
X177546000Y-92202000D03*
X185166000Y-92202000D03*
D14*
X86128000Y-85852000D03*
D11*
X83588000Y-85852000D03*
X81088000Y-85852000D03*
X120142000Y-91948000D03*
X112522000Y-91948000D03*
D14*
X142168000Y-85852000D03*
D11*
X139628000Y-85852000D03*
X137128000Y-85852000D03*
D14*
X120128000Y-85852000D03*
D11*
X117588000Y-85852000D03*
X115088000Y-85852000D03*
X134620000Y-91948000D03*
X142240000Y-91948000D03*
D15*
X73406000Y-86614000D03*
D16*
X70866000Y-86614000D03*
D11*
X78486000Y-91694000D03*
X86106000Y-91694000D03*
X164084000Y-92710000D03*
X156464000Y-92710000D03*
D14*
X164168000Y-85852000D03*
D11*
X161628000Y-85852000D03*
X159128000Y-85852000D03*
X180088000Y-85852000D03*
X182588000Y-85852000D03*
D14*
X185128000Y-85852000D03*
D11*
X225298000Y-117896000D03*
X225298000Y-120396000D03*
D14*
X225298000Y-122936000D03*
D11*
X225298000Y-130342000D03*
X225298000Y-132842000D03*
D14*
X225298000Y-135382000D03*
D11*
X208026000Y-133948500D03*
X208026000Y-131448500D03*
X208026000Y-128948500D03*
X208026000Y-126448500D03*
X208026000Y-123948500D03*
D14*
X208026000Y-121412000D03*
X77470000Y-98298000D03*
D11*
X77470000Y-100834500D03*
X77470000Y-103334500D03*
X77470000Y-105834500D03*
X77470000Y-108334500D03*
X77470000Y-110834500D03*
D14*
X225044000Y-110490000D03*
D11*
X225044000Y-107950000D03*
X225044000Y-105450000D03*
D14*
X218168000Y-85852000D03*
D11*
X215628000Y-85852000D03*
X213128000Y-85852000D03*
D17*
X230124000Y-98806000D03*
D18*
X230124000Y-83566000D03*
D17*
X230124000Y-93726000D03*
X230124000Y-88646000D03*
D11*
X213360000Y-135382000D03*
X220980000Y-135382000D03*
X179578000Y-133538000D03*
X179578000Y-113538000D03*
X220980000Y-132842000D03*
X213360000Y-132842000D03*
X172974000Y-133604000D03*
X172974000Y-113604000D03*
X213360000Y-129286000D03*
X220980000Y-129286000D03*
X220980000Y-125476000D03*
X213360000Y-125476000D03*
X159766000Y-113604000D03*
X159766000Y-133604000D03*
X213360000Y-117348000D03*
X220980000Y-117348000D03*
X153162000Y-133604000D03*
X153162000Y-113604000D03*
X218186000Y-89154000D03*
X210566000Y-89154000D03*
X220980000Y-114808000D03*
X213360000Y-114808000D03*
X146558000Y-113604000D03*
X146558000Y-133604000D03*
D13*
X166370000Y-139446000D03*
D12*
X166370000Y-135641000D03*
D13*
X153162000Y-139446000D03*
D12*
X153162000Y-135641000D03*
X146558000Y-135641000D03*
D13*
X146558000Y-139446000D03*
D11*
X192278000Y-76708000D03*
X192278000Y-85852000D03*
X170180000Y-76708000D03*
X170180000Y-85852000D03*
X147828000Y-76708000D03*
X147828000Y-85852000D03*
X125730000Y-76708000D03*
X125730000Y-85852000D03*
X92456000Y-85852000D03*
X92456000Y-76708000D03*
D19*
X192278000Y-85852000D02*
X192278000Y-76708000D01*
X170180000Y-85852000D02*
X170180000Y-76708000D01*
X147828000Y-85852000D02*
X147828000Y-76708000D01*
X125730000Y-84437787D02*
X125730000Y-76708000D01*
X125730000Y-85852000D02*
X125730000Y-84437787D01*
X92456000Y-78122213D02*
X92456000Y-85852000D01*
X92456000Y-76708000D02*
X92456000Y-78122213D01*
M02*
