G04 #@! TF.FileFunction,Copper,L2,Bot,Signal*
%FSLAX46Y46*%
G04 Gerber Fmt 4.6, Leading zero omitted, Abs format (unit mm)*
G04 Created by KiCad (PCBNEW no-vcs-found-undefined) date Wed Oct 26 20:43:27 2016*
%MOMM*%
%LPD*%
G01*
G04 APERTURE LIST*
%ADD10C,0.050000*%
%ADD11C,0.300000*%
%ADD12C,2.000000*%
%ADD13O,2.400000X2.000000*%
%ADD14C,3.810000*%
%ADD15R,3.810000X3.810000*%
%ADD16O,2.000000X2.400000*%
%ADD17R,2.032000X2.400000*%
%ADD18O,2.032000X2.400000*%
%ADD19C,2.000000*%
G04 APERTURE END LIST*
D10*
D11*
X114921428Y-123863571D02*
X114921428Y-122363571D01*
X114350000Y-122363571D01*
X114207142Y-122435000D01*
X114135714Y-122506428D01*
X114064285Y-122649285D01*
X114064285Y-122863571D01*
X114135714Y-123006428D01*
X114207142Y-123077857D01*
X114350000Y-123149285D01*
X114921428Y-123149285D01*
X113564285Y-122863571D02*
X113207142Y-123863571D01*
X112850000Y-122863571D02*
X113207142Y-123863571D01*
X113350000Y-124220714D01*
X113421428Y-124292142D01*
X113564285Y-124363571D01*
X111492857Y-122435000D02*
X111635714Y-122363571D01*
X111850000Y-122363571D01*
X112064285Y-122435000D01*
X112207142Y-122577857D01*
X112278571Y-122720714D01*
X112350000Y-123006428D01*
X112350000Y-123220714D01*
X112278571Y-123506428D01*
X112207142Y-123649285D01*
X112064285Y-123792142D01*
X111850000Y-123863571D01*
X111707142Y-123863571D01*
X111492857Y-123792142D01*
X111421428Y-123720714D01*
X111421428Y-123220714D01*
X111707142Y-123220714D01*
X110135714Y-122863571D02*
X110135714Y-123863571D01*
X110778571Y-122863571D02*
X110778571Y-123649285D01*
X110707142Y-123792142D01*
X110564285Y-123863571D01*
X110350000Y-123863571D01*
X110207142Y-123792142D01*
X110135714Y-123720714D01*
X109421428Y-123863571D02*
X109421428Y-122863571D01*
X109421428Y-122363571D02*
X109492857Y-122435000D01*
X109421428Y-122506428D01*
X109350000Y-122435000D01*
X109421428Y-122363571D01*
X109421428Y-122506428D01*
X108921428Y-122863571D02*
X108350000Y-122863571D01*
X108707142Y-122363571D02*
X108707142Y-123649285D01*
X108635714Y-123792142D01*
X108492857Y-123863571D01*
X108350000Y-123863571D01*
X107207142Y-123863571D02*
X107207142Y-123077857D01*
X107278571Y-122935000D01*
X107421428Y-122863571D01*
X107707142Y-122863571D01*
X107850000Y-122935000D01*
X107207142Y-123792142D02*
X107350000Y-123863571D01*
X107707142Y-123863571D01*
X107850000Y-123792142D01*
X107921428Y-123649285D01*
X107921428Y-123506428D01*
X107850000Y-123363571D01*
X107707142Y-123292142D01*
X107350000Y-123292142D01*
X107207142Y-123220714D01*
X106492857Y-123863571D02*
X106492857Y-122863571D01*
X106492857Y-123149285D02*
X106421428Y-123006428D01*
X106350000Y-122935000D01*
X106207142Y-122863571D01*
X106064285Y-122863571D01*
X104421428Y-123863571D02*
X104421428Y-122363571D01*
X103850000Y-122363571D01*
X103707142Y-122435000D01*
X103635714Y-122506428D01*
X103564285Y-122649285D01*
X103564285Y-122863571D01*
X103635714Y-123006428D01*
X103707142Y-123077857D01*
X103850000Y-123149285D01*
X104421428Y-123149285D01*
X102350000Y-123792142D02*
X102492857Y-123863571D01*
X102778571Y-123863571D01*
X102921428Y-123792142D01*
X102992857Y-123649285D01*
X102992857Y-123077857D01*
X102921428Y-122935000D01*
X102778571Y-122863571D01*
X102492857Y-122863571D01*
X102350000Y-122935000D01*
X102278571Y-123077857D01*
X102278571Y-123220714D01*
X102992857Y-123363571D01*
X101635714Y-123863571D02*
X101635714Y-122863571D01*
X101635714Y-123149285D02*
X101564285Y-123006428D01*
X101492857Y-122935000D01*
X101350000Y-122863571D01*
X101207142Y-122863571D01*
X100707142Y-123863571D02*
X100707142Y-122863571D01*
X100707142Y-122363571D02*
X100778571Y-122435000D01*
X100707142Y-122506428D01*
X100635714Y-122435000D01*
X100707142Y-122363571D01*
X100707142Y-122506428D01*
X99992857Y-122863571D02*
X99992857Y-124363571D01*
X99992857Y-122935000D02*
X99850000Y-122863571D01*
X99564285Y-122863571D01*
X99421428Y-122935000D01*
X99350000Y-123006428D01*
X99278571Y-123149285D01*
X99278571Y-123577857D01*
X99350000Y-123720714D01*
X99421428Y-123792142D01*
X99564285Y-123863571D01*
X99850000Y-123863571D01*
X99992857Y-123792142D01*
X98635714Y-123863571D02*
X98635714Y-122363571D01*
X97992857Y-123863571D02*
X97992857Y-123077857D01*
X98064285Y-122935000D01*
X98207142Y-122863571D01*
X98421428Y-122863571D01*
X98564285Y-122935000D01*
X98635714Y-123006428D01*
X96707142Y-123792142D02*
X96850000Y-123863571D01*
X97135714Y-123863571D01*
X97278571Y-123792142D01*
X97350000Y-123649285D01*
X97350000Y-123077857D01*
X97278571Y-122935000D01*
X97135714Y-122863571D01*
X96850000Y-122863571D01*
X96707142Y-122935000D01*
X96635714Y-123077857D01*
X96635714Y-123220714D01*
X97350000Y-123363571D01*
X95992857Y-123863571D02*
X95992857Y-122863571D01*
X95992857Y-123149285D02*
X95921428Y-123006428D01*
X95850000Y-122935000D01*
X95707142Y-122863571D01*
X95564285Y-122863571D01*
X94421428Y-123863571D02*
X94421428Y-123077857D01*
X94492857Y-122935000D01*
X94635714Y-122863571D01*
X94921428Y-122863571D01*
X95064285Y-122935000D01*
X94421428Y-123792142D02*
X94564285Y-123863571D01*
X94921428Y-123863571D01*
X95064285Y-123792142D01*
X95135714Y-123649285D01*
X95135714Y-123506428D01*
X95064285Y-123363571D01*
X94921428Y-123292142D01*
X94564285Y-123292142D01*
X94421428Y-123220714D01*
X93492857Y-123863571D02*
X93635714Y-123792142D01*
X93707142Y-123649285D01*
X93707142Y-122363571D01*
X92992857Y-123792142D02*
X92850000Y-123863571D01*
X92564285Y-123863571D01*
X92421428Y-123792142D01*
X92350000Y-123649285D01*
X92350000Y-123577857D01*
X92421428Y-123435000D01*
X92564285Y-123363571D01*
X92778571Y-123363571D01*
X92921428Y-123292142D01*
X92992857Y-123149285D01*
X92992857Y-123077857D01*
X92921428Y-122935000D01*
X92778571Y-122863571D01*
X92564285Y-122863571D01*
X92421428Y-122935000D01*
X89350000Y-123863571D02*
X89421428Y-123863571D01*
X89564285Y-123792142D01*
X89778571Y-123577857D01*
X90135714Y-123149285D01*
X90278571Y-122935000D01*
X90350000Y-122720714D01*
X90350000Y-122577857D01*
X90278571Y-122435000D01*
X90135714Y-122363571D01*
X90064285Y-122363571D01*
X89921428Y-122435000D01*
X89850000Y-122577857D01*
X89850000Y-122649285D01*
X89921428Y-122792142D01*
X89992857Y-122863571D01*
X90421428Y-123149285D01*
X90492857Y-123220714D01*
X90564285Y-123363571D01*
X90564285Y-123577857D01*
X90492857Y-123720714D01*
X90421428Y-123792142D01*
X90278571Y-123863571D01*
X90064285Y-123863571D01*
X89921428Y-123792142D01*
X89850000Y-123720714D01*
X89635714Y-123435000D01*
X89564285Y-123220714D01*
X89564285Y-123077857D01*
X115421428Y-126413571D02*
X115421428Y-124913571D01*
X114850000Y-124913571D01*
X114707142Y-124985000D01*
X114635714Y-125056428D01*
X114564285Y-125199285D01*
X114564285Y-125413571D01*
X114635714Y-125556428D01*
X114707142Y-125627857D01*
X114850000Y-125699285D01*
X115421428Y-125699285D01*
X113707142Y-126413571D02*
X113850000Y-126342142D01*
X113921428Y-126270714D01*
X113992857Y-126127857D01*
X113992857Y-125699285D01*
X113921428Y-125556428D01*
X113850000Y-125485000D01*
X113707142Y-125413571D01*
X113492857Y-125413571D01*
X113350000Y-125485000D01*
X113278571Y-125556428D01*
X113207142Y-125699285D01*
X113207142Y-126127857D01*
X113278571Y-126270714D01*
X113350000Y-126342142D01*
X113492857Y-126413571D01*
X113707142Y-126413571D01*
X112707142Y-125413571D02*
X112421428Y-126413571D01*
X112135714Y-125699285D01*
X111850000Y-126413571D01*
X111564285Y-125413571D01*
X110421428Y-126342142D02*
X110564285Y-126413571D01*
X110850000Y-126413571D01*
X110992857Y-126342142D01*
X111064285Y-126199285D01*
X111064285Y-125627857D01*
X110992857Y-125485000D01*
X110850000Y-125413571D01*
X110564285Y-125413571D01*
X110421428Y-125485000D01*
X110350000Y-125627857D01*
X110350000Y-125770714D01*
X111064285Y-125913571D01*
X109707142Y-126413571D02*
X109707142Y-125413571D01*
X109707142Y-125699285D02*
X109635714Y-125556428D01*
X109564285Y-125485000D01*
X109421428Y-125413571D01*
X109278571Y-125413571D01*
X107635714Y-126413571D02*
X107635714Y-124913571D01*
X107278571Y-124913571D01*
X107064285Y-124985000D01*
X106921428Y-125127857D01*
X106850000Y-125270714D01*
X106778571Y-125556428D01*
X106778571Y-125770714D01*
X106850000Y-126056428D01*
X106921428Y-126199285D01*
X107064285Y-126342142D01*
X107278571Y-126413571D01*
X107635714Y-126413571D01*
X106135714Y-126413571D02*
X106135714Y-125413571D01*
X106135714Y-124913571D02*
X106207142Y-124985000D01*
X106135714Y-125056428D01*
X106064285Y-124985000D01*
X106135714Y-124913571D01*
X106135714Y-125056428D01*
X105492857Y-126342142D02*
X105350000Y-126413571D01*
X105064285Y-126413571D01*
X104921428Y-126342142D01*
X104850000Y-126199285D01*
X104850000Y-126127857D01*
X104921428Y-125985000D01*
X105064285Y-125913571D01*
X105278571Y-125913571D01*
X105421428Y-125842142D01*
X105492857Y-125699285D01*
X105492857Y-125627857D01*
X105421428Y-125485000D01*
X105278571Y-125413571D01*
X105064285Y-125413571D01*
X104921428Y-125485000D01*
X104421428Y-125413571D02*
X103850000Y-125413571D01*
X104207142Y-124913571D02*
X104207142Y-126199285D01*
X104135714Y-126342142D01*
X103992857Y-126413571D01*
X103850000Y-126413571D01*
X103350000Y-126413571D02*
X103350000Y-125413571D01*
X103350000Y-125699285D02*
X103278571Y-125556428D01*
X103207142Y-125485000D01*
X103064285Y-125413571D01*
X102921428Y-125413571D01*
X102421428Y-126413571D02*
X102421428Y-125413571D01*
X102421428Y-124913571D02*
X102492857Y-124985000D01*
X102421428Y-125056428D01*
X102350000Y-124985000D01*
X102421428Y-124913571D01*
X102421428Y-125056428D01*
X101707142Y-126413571D02*
X101707142Y-124913571D01*
X101707142Y-125485000D02*
X101564285Y-125413571D01*
X101278571Y-125413571D01*
X101135714Y-125485000D01*
X101064285Y-125556428D01*
X100992857Y-125699285D01*
X100992857Y-126127857D01*
X101064285Y-126270714D01*
X101135714Y-126342142D01*
X101278571Y-126413571D01*
X101564285Y-126413571D01*
X101707142Y-126342142D01*
X99707142Y-125413571D02*
X99707142Y-126413571D01*
X100350000Y-125413571D02*
X100350000Y-126199285D01*
X100278571Y-126342142D01*
X100135714Y-126413571D01*
X99921428Y-126413571D01*
X99778571Y-126342142D01*
X99707142Y-126270714D01*
X99207142Y-125413571D02*
X98635714Y-125413571D01*
X98992857Y-124913571D02*
X98992857Y-126199285D01*
X98921428Y-126342142D01*
X98778571Y-126413571D01*
X98635714Y-126413571D01*
X98135714Y-126413571D02*
X98135714Y-125413571D01*
X98135714Y-124913571D02*
X98207142Y-124985000D01*
X98135714Y-125056428D01*
X98064285Y-124985000D01*
X98135714Y-124913571D01*
X98135714Y-125056428D01*
X97207142Y-126413571D02*
X97350000Y-126342142D01*
X97421428Y-126270714D01*
X97492857Y-126127857D01*
X97492857Y-125699285D01*
X97421428Y-125556428D01*
X97350000Y-125485000D01*
X97207142Y-125413571D01*
X96992857Y-125413571D01*
X96850000Y-125485000D01*
X96778571Y-125556428D01*
X96707142Y-125699285D01*
X96707142Y-126127857D01*
X96778571Y-126270714D01*
X96850000Y-126342142D01*
X96992857Y-126413571D01*
X97207142Y-126413571D01*
X96064285Y-125413571D02*
X96064285Y-126413571D01*
X96064285Y-125556428D02*
X95992857Y-125485000D01*
X95850000Y-125413571D01*
X95635714Y-125413571D01*
X95492857Y-125485000D01*
X95421428Y-125627857D01*
X95421428Y-126413571D01*
X93064285Y-125627857D02*
X92850000Y-125699285D01*
X92778571Y-125770714D01*
X92707142Y-125913571D01*
X92707142Y-126127857D01*
X92778571Y-126270714D01*
X92850000Y-126342142D01*
X92992857Y-126413571D01*
X93564285Y-126413571D01*
X93564285Y-124913571D01*
X93064285Y-124913571D01*
X92921428Y-124985000D01*
X92850000Y-125056428D01*
X92778571Y-125199285D01*
X92778571Y-125342142D01*
X92850000Y-125485000D01*
X92921428Y-125556428D01*
X93064285Y-125627857D01*
X93564285Y-125627857D01*
X91850000Y-126413571D02*
X91992857Y-126342142D01*
X92064285Y-126270714D01*
X92135714Y-126127857D01*
X92135714Y-125699285D01*
X92064285Y-125556428D01*
X91992857Y-125485000D01*
X91850000Y-125413571D01*
X91635714Y-125413571D01*
X91492857Y-125485000D01*
X91421428Y-125556428D01*
X91350000Y-125699285D01*
X91350000Y-126127857D01*
X91421428Y-126270714D01*
X91492857Y-126342142D01*
X91635714Y-126413571D01*
X91850000Y-126413571D01*
X90064285Y-126413571D02*
X90064285Y-125627857D01*
X90135714Y-125485000D01*
X90278571Y-125413571D01*
X90564285Y-125413571D01*
X90707142Y-125485000D01*
X90064285Y-126342142D02*
X90207142Y-126413571D01*
X90564285Y-126413571D01*
X90707142Y-126342142D01*
X90778571Y-126199285D01*
X90778571Y-126056428D01*
X90707142Y-125913571D01*
X90564285Y-125842142D01*
X90207142Y-125842142D01*
X90064285Y-125770714D01*
X89350000Y-126413571D02*
X89350000Y-125413571D01*
X89350000Y-125699285D02*
X89278571Y-125556428D01*
X89207142Y-125485000D01*
X89064285Y-125413571D01*
X88921428Y-125413571D01*
X87778571Y-126413571D02*
X87778571Y-124913571D01*
X87778571Y-126342142D02*
X87921428Y-126413571D01*
X88207142Y-126413571D01*
X88350000Y-126342142D01*
X88421428Y-126270714D01*
X88492857Y-126127857D01*
X88492857Y-125699285D01*
X88421428Y-125556428D01*
X88350000Y-125485000D01*
X88207142Y-125413571D01*
X87921428Y-125413571D01*
X87778571Y-125485000D01*
D12*
X176022000Y-135636000D03*
X176022000Y-139441000D03*
X170434000Y-135641000D03*
X170434000Y-139446000D03*
X164846000Y-135641000D03*
X164846000Y-139446000D03*
X159258000Y-135641000D03*
X159258000Y-139446000D03*
X153670000Y-135641000D03*
X153670000Y-139446000D03*
X148082000Y-135641000D03*
X148082000Y-139446000D03*
X86186000Y-92710000D03*
X91186000Y-92710000D03*
X93726000Y-83867000D03*
X93726000Y-78867000D03*
X96266000Y-83867000D03*
X96266000Y-78867000D03*
X98806000Y-83867000D03*
X98806000Y-78867000D03*
X101346000Y-83867000D03*
X101346000Y-78867000D03*
X103886000Y-83867000D03*
X103886000Y-78867000D03*
D13*
X225004334Y-110490000D03*
X225004334Y-107950000D03*
X225004334Y-105410000D03*
D14*
X230124000Y-88646000D03*
X230124000Y-93726000D03*
D15*
X230124000Y-83566000D03*
D14*
X230124000Y-98806000D03*
D13*
X207772000Y-120904000D03*
X207772000Y-123444000D03*
X207772000Y-125984000D03*
X207772000Y-128524000D03*
X207772000Y-131064000D03*
X207772000Y-133604000D03*
X86360000Y-95504000D03*
X86360000Y-98044000D03*
X86360000Y-100584000D03*
X86360000Y-103124000D03*
X86360000Y-105664000D03*
X86360000Y-108204000D03*
D16*
X86106000Y-86415523D03*
X83566000Y-86415523D03*
X81026000Y-86415523D03*
X142113000Y-86486952D03*
X139573000Y-86486952D03*
X137033000Y-86486952D03*
X185166000Y-86486952D03*
X182626000Y-86486952D03*
X180086000Y-86486952D03*
D13*
X225171000Y-135382000D03*
X225171000Y-132842000D03*
X225171000Y-130302000D03*
D16*
X120142000Y-86558381D03*
X117602000Y-86558381D03*
X115062000Y-86558381D03*
X164211000Y-86486952D03*
X161671000Y-86486952D03*
X159131000Y-86486952D03*
D13*
X225044000Y-122936000D03*
X225044000Y-120396000D03*
X225044000Y-117856000D03*
D16*
X218186000Y-86614000D03*
X215646000Y-86614000D03*
X213106000Y-86614000D03*
D17*
X77343000Y-86487000D03*
D18*
X74803000Y-86487000D03*
D12*
X177546000Y-94742000D03*
X185166000Y-94742000D03*
X164846000Y-113604000D03*
X164846000Y-133604000D03*
X120142000Y-93726000D03*
X112522000Y-93726000D03*
X134620000Y-93726000D03*
X142240000Y-93726000D03*
X83566000Y-90170000D03*
X91186000Y-90170000D03*
X164338000Y-93472000D03*
X156718000Y-93472000D03*
X210566000Y-133604000D03*
X218186000Y-133604000D03*
X176022000Y-133604000D03*
X176022000Y-113604000D03*
X218186000Y-131064000D03*
X210566000Y-131064000D03*
X170434000Y-133604000D03*
X170434000Y-113604000D03*
X210566000Y-128524000D03*
X218186000Y-128524000D03*
X218186000Y-125984000D03*
X210566000Y-125984000D03*
X159258000Y-113604000D03*
X159258000Y-133604000D03*
X214630000Y-123444000D03*
X214630000Y-115824000D03*
X153670000Y-133604000D03*
X153670000Y-113604000D03*
X219202000Y-90678000D03*
X211582000Y-90678000D03*
X212090000Y-113284000D03*
X212090000Y-120904000D03*
X148082000Y-113604000D03*
X148082000Y-133604000D03*
X81026000Y-90464000D03*
X81026000Y-92964000D03*
X74843000Y-90424000D03*
X77343000Y-90424000D03*
X222758000Y-98806000D03*
X222758000Y-93806000D03*
X91186000Y-78820000D03*
X190246000Y-86360000D03*
X190246000Y-78740000D03*
X169672000Y-78740000D03*
X169672000Y-86360000D03*
X147066000Y-86614000D03*
X147066000Y-78740000D03*
X124460000Y-86360000D03*
X124460000Y-78740000D03*
X91186000Y-86360000D03*
X96266000Y-100584000D03*
X96266000Y-92710000D03*
X98806000Y-103124000D03*
X98806000Y-92710000D03*
X101346000Y-105664000D03*
X101346000Y-92710000D03*
X103886000Y-108204000D03*
X103886000Y-92710000D03*
D19*
X210566000Y-133604000D02*
X207772000Y-133604000D01*
X176022000Y-133604000D02*
X207772000Y-133604000D01*
X176022000Y-133604000D02*
X176022000Y-135636000D01*
X230124000Y-98806000D02*
X224028000Y-98806000D01*
X224028000Y-98806000D02*
X222758000Y-98806000D01*
X225171000Y-130302000D02*
X228371000Y-130302000D01*
X228371000Y-130302000D02*
X230124000Y-130302000D01*
X225044000Y-117856000D02*
X229362000Y-117856000D01*
X229362000Y-117856000D02*
X230124000Y-117094000D01*
X225004334Y-105410000D02*
X229870000Y-105410000D01*
X229870000Y-105410000D02*
X230124000Y-105664000D01*
X230124000Y-115570000D02*
X230124000Y-117094000D01*
X230124000Y-117094000D02*
X230124000Y-130302000D01*
X176022000Y-139441000D02*
X226247619Y-139441000D01*
X226247619Y-139441000D02*
X230124000Y-135564619D01*
X230124000Y-135564619D02*
X230124000Y-130302000D01*
X148082000Y-139446000D02*
X153670000Y-139446000D01*
X153670000Y-139446000D02*
X159258000Y-139446000D01*
X159258000Y-139446000D02*
X164846000Y-139446000D01*
X164846000Y-139446000D02*
X170434000Y-139446000D01*
X170434000Y-139446000D02*
X176017000Y-139446000D01*
X176017000Y-139446000D02*
X176022000Y-139441000D01*
X230124000Y-93726000D02*
X230124000Y-98806000D01*
X230124000Y-105664000D02*
X230124000Y-115570000D01*
X230124000Y-98806000D02*
X230124000Y-105664000D01*
X210566000Y-131064000D02*
X207772000Y-131064000D01*
X170434000Y-133604000D02*
X172974000Y-131064000D01*
X172974000Y-131064000D02*
X207772000Y-131064000D01*
X170434000Y-133604000D02*
X170434000Y-135641000D01*
X210566000Y-128524000D02*
X207772000Y-128524000D01*
X164846000Y-133604000D02*
X169926000Y-128524000D01*
X169926000Y-128524000D02*
X207772000Y-128524000D01*
X164846000Y-133604000D02*
X164846000Y-135641000D01*
X210566000Y-125984000D02*
X207772000Y-125984000D01*
X159258000Y-133604000D02*
X166878000Y-125984000D01*
X166878000Y-125984000D02*
X207772000Y-125984000D01*
X159258000Y-133604000D02*
X159258000Y-135641000D01*
X214630000Y-123444000D02*
X207772000Y-123444000D01*
X153670000Y-133604000D02*
X163830000Y-123444000D01*
X163830000Y-123444000D02*
X207772000Y-123444000D01*
X153670000Y-133604000D02*
X153670000Y-135641000D01*
X212090000Y-120904000D02*
X207772000Y-120904000D01*
X148082000Y-133604000D02*
X160782000Y-120904000D01*
X160782000Y-120904000D02*
X207772000Y-120904000D01*
X148082000Y-133604000D02*
X148082000Y-135641000D01*
X74803000Y-86487000D02*
X74803000Y-90384000D01*
X74803000Y-90384000D02*
X74843000Y-90424000D01*
X81026000Y-92964000D02*
X75968787Y-92964000D01*
X75968787Y-92964000D02*
X74843000Y-91838213D01*
X74843000Y-91838213D02*
X74843000Y-90424000D01*
X103886000Y-78740000D02*
X124460000Y-78740000D01*
X103886000Y-78740000D02*
X101346000Y-78740000D01*
X101346000Y-78740000D02*
X98806000Y-78740000D01*
X98806000Y-78740000D02*
X96266000Y-78740000D01*
X96266000Y-78740000D02*
X93726000Y-78740000D01*
X91186000Y-78820000D02*
X93646000Y-78820000D01*
X93646000Y-78820000D02*
X93726000Y-78740000D01*
X91186000Y-78820000D02*
X79430000Y-78820000D01*
X74803000Y-83287000D02*
X74803000Y-86487000D01*
X79430000Y-78820000D02*
X79350000Y-78740000D01*
X79350000Y-78740000D02*
X74803000Y-83287000D01*
X190246000Y-86360000D02*
X185292952Y-86360000D01*
X185292952Y-86360000D02*
X185166000Y-86486952D01*
X190246000Y-78740000D02*
X213512000Y-78740000D01*
X169672000Y-78740000D02*
X190246000Y-78740000D01*
X185166000Y-94742000D02*
X185166000Y-86486952D01*
X147066000Y-78740000D02*
X169672000Y-78740000D01*
X164211000Y-86486952D02*
X169545048Y-86486952D01*
X169545048Y-86486952D02*
X169672000Y-86360000D01*
X164338000Y-93472000D02*
X164338000Y-86613952D01*
X164338000Y-86613952D02*
X164211000Y-86486952D01*
X147066000Y-86614000D02*
X142240048Y-86614000D01*
X142240048Y-86614000D02*
X142113000Y-86486952D01*
X124460000Y-78740000D02*
X147066000Y-78740000D01*
X142240000Y-93726000D02*
X142240000Y-86613952D01*
X142240000Y-86613952D02*
X142113000Y-86486952D01*
X124460000Y-86360000D02*
X120340381Y-86360000D01*
X120340381Y-86360000D02*
X120142000Y-86558381D01*
X120142000Y-86558381D02*
X120142000Y-93726000D01*
X219202000Y-90678000D02*
X219202000Y-87630000D01*
X219202000Y-87630000D02*
X218186000Y-86614000D01*
X213512000Y-78740000D02*
X218186000Y-83414000D01*
X218186000Y-83414000D02*
X218186000Y-86614000D01*
X86106000Y-86415523D02*
X91130477Y-86415523D01*
X91130477Y-86415523D02*
X91186000Y-86360000D01*
X91186000Y-90170000D02*
X91186000Y-86360000D01*
X91186000Y-92710000D02*
X91186000Y-90170000D01*
X74803000Y-86487000D02*
X74803000Y-86671000D01*
X86360000Y-95504000D02*
X86360000Y-92964000D01*
X86360000Y-92964000D02*
X83566000Y-90170000D01*
X83566000Y-86415523D02*
X83566000Y-90170000D01*
X83588000Y-90148000D02*
X83566000Y-90170000D01*
X77343000Y-90424000D02*
X77343000Y-86487000D01*
X81026000Y-90464000D02*
X77383000Y-90464000D01*
X77383000Y-90464000D02*
X77343000Y-90424000D01*
X81026000Y-86415523D02*
X77414477Y-86415523D01*
X77414477Y-86415523D02*
X77343000Y-86487000D01*
X81026000Y-86415523D02*
X81026000Y-85234118D01*
X115062000Y-81361990D02*
X84898128Y-81361990D01*
X84898128Y-81361990D02*
X81026000Y-85234118D01*
X212155990Y-85663990D02*
X213106000Y-86614000D01*
X178353010Y-81361990D02*
X180086000Y-81361990D01*
X180086000Y-81361990D02*
X207853990Y-81361990D01*
X180086000Y-86486952D02*
X180086000Y-83286952D01*
X180086000Y-83286952D02*
X180086000Y-81361990D01*
X178353010Y-81361990D02*
X159258000Y-81361990D01*
X159258000Y-81361990D02*
X157988000Y-81361990D01*
X159131000Y-86486952D02*
X159131000Y-81488990D01*
X159131000Y-81488990D02*
X159258000Y-81361990D01*
X137160000Y-81361990D02*
X136017000Y-81361990D01*
X156210000Y-81361990D02*
X137160000Y-81361990D01*
X137160000Y-81361990D02*
X137033000Y-81488990D01*
X137033000Y-81488990D02*
X137033000Y-86486952D01*
X136017000Y-81361990D02*
X115062000Y-81361990D01*
X115062000Y-86558381D02*
X115062000Y-83358381D01*
X115062000Y-83358381D02*
X115062000Y-81361990D01*
X157988000Y-81361990D02*
X156210000Y-81361990D01*
X207853990Y-81361990D02*
X212155990Y-85663990D01*
X225298000Y-132842000D02*
X221109202Y-132842000D01*
X221109202Y-132842000D02*
X219331202Y-131064000D01*
X219331202Y-131064000D02*
X218186000Y-131064000D01*
X225298000Y-135382000D02*
X219964000Y-135382000D01*
X219964000Y-135382000D02*
X218186000Y-133604000D01*
X93676010Y-92710000D02*
X93676010Y-83852000D01*
X93676010Y-93905192D02*
X93676010Y-92710000D01*
X93472000Y-98044000D02*
X94488000Y-98044000D01*
X94488000Y-98044000D02*
X95250000Y-98044000D01*
X93676010Y-92710000D02*
X93676010Y-97232010D01*
X93676010Y-83852000D02*
X93726000Y-83852000D01*
X112522000Y-93726000D02*
X117602000Y-88646000D01*
X117602000Y-88646000D02*
X117602000Y-86558381D01*
X86360000Y-98044000D02*
X93472000Y-98044000D01*
X113538000Y-92710000D02*
X108204000Y-98044000D01*
X117602000Y-87739786D02*
X117602000Y-88646000D01*
X117602000Y-88646000D02*
X113538000Y-92710000D01*
X95250000Y-98044000D02*
X108204000Y-98044000D01*
X117602000Y-86558381D02*
X117602000Y-87739786D01*
X117602000Y-87739786D02*
X117588000Y-87753786D01*
X117588000Y-87753786D02*
X117588000Y-88660000D01*
X96266000Y-87884000D02*
X96266000Y-92710000D01*
X96266000Y-83994000D02*
X96266000Y-87884000D01*
X96266000Y-87884000D02*
X96266000Y-83852000D01*
X86360000Y-100584000D02*
X96266000Y-100584000D01*
X96266000Y-100584000D02*
X99060000Y-100584000D01*
X99060000Y-100584000D02*
X127762000Y-100584000D01*
X134620000Y-93726000D02*
X139573000Y-88773000D01*
X139573000Y-88773000D02*
X139573000Y-86486952D01*
X127762000Y-100584000D02*
X134620000Y-93726000D01*
X98806000Y-88392000D02*
X98806000Y-92710000D01*
X98806000Y-83994000D02*
X98806000Y-88392000D01*
X98806000Y-88392000D02*
X98806000Y-83852000D01*
X156718000Y-93472000D02*
X161671000Y-88519000D01*
X161671000Y-88519000D02*
X161671000Y-86486952D01*
X86360000Y-103124000D02*
X98806000Y-103124000D01*
X86360000Y-103124000D02*
X147066000Y-103124000D01*
X147066000Y-103124000D02*
X161671000Y-88519000D01*
X101346000Y-88138000D02*
X101346000Y-83994000D01*
X101346000Y-88138000D02*
X101346000Y-83852000D01*
X101346000Y-92710000D02*
X101346000Y-88138000D01*
X177546000Y-94742000D02*
X166624000Y-105664000D01*
X166624000Y-105664000D02*
X102108000Y-105664000D01*
X102108000Y-105664000D02*
X101346000Y-105664000D01*
X86360000Y-105664000D02*
X101346000Y-105664000D01*
X177546000Y-94742000D02*
X182626000Y-89662000D01*
X182626000Y-89662000D02*
X182626000Y-86486952D01*
X103886000Y-86614000D02*
X103886000Y-92710000D01*
X103886000Y-84074000D02*
X103886000Y-86614000D01*
X103886000Y-86614000D02*
X103886000Y-83852000D01*
X193548000Y-108204000D02*
X104394000Y-108204000D01*
X211582000Y-90678000D02*
X194056000Y-108204000D01*
X194056000Y-108204000D02*
X193548000Y-108204000D01*
X215646000Y-86614000D02*
X215646000Y-89814000D01*
X215646000Y-89814000D02*
X214782000Y-90678000D01*
X214782000Y-90678000D02*
X212996213Y-90678000D01*
X212996213Y-90678000D02*
X211582000Y-90678000D01*
X86360000Y-108204000D02*
X104394000Y-108204000D01*
X221542429Y-120396000D02*
X225044000Y-120396000D01*
X218186000Y-125984000D02*
X218186000Y-123752429D01*
X218186000Y-123752429D02*
X221542429Y-120396000D01*
X218186000Y-128524000D02*
X219456000Y-128524000D01*
X219456000Y-128524000D02*
X225044000Y-122936000D01*
X225298000Y-110490000D02*
X219964000Y-110490000D01*
X219964000Y-110490000D02*
X214630000Y-115824000D01*
X212090000Y-113284000D02*
X217424000Y-107950000D01*
X217424000Y-107950000D02*
X225298000Y-107950000D01*
X230124000Y-88646000D02*
X227918000Y-88646000D01*
X227918000Y-88646000D02*
X222758000Y-93806000D01*
X230124000Y-88646000D02*
X227838000Y-88646000D01*
X202880167Y-113604000D02*
X176022000Y-113604000D01*
X227838000Y-88646000D02*
X223626020Y-92857980D01*
X223626020Y-92857980D02*
X223626020Y-92858147D01*
X223626020Y-92858147D02*
X202880167Y-113604000D01*
X148082000Y-113604000D02*
X153670000Y-113604000D01*
X153670000Y-113604000D02*
X159258000Y-113604000D01*
X159258000Y-113604000D02*
X164846000Y-113604000D01*
X164846000Y-113604000D02*
X170434000Y-113604000D01*
X170434000Y-113604000D02*
X176022000Y-113604000D01*
M02*
