M48
;DRILL file {KiCad no-vcs-found-undefined} date Mon Oct 24 12:17:02 2016
;FORMAT={3:3/ absolute / metric / suppress leading zeros}
FMAT,2
METRIC,TZ
T1C0.700
T2C0.800
T3C1.016
T4C1.200
T5C1.524
%
G90
G05
M71
T1
X78486Y-91694
X86106Y-91694
X92456Y-76708
X92456Y-85852
X112522Y-91948
X120142Y-91948
X125730Y-76708
X125730Y-85852
X130302Y-116398
X130302Y-136398
X134620Y-91948
X139446Y-116398
X139446Y-136398
X142240Y-91948
X147828Y-76708
X147828Y-85852
X148336Y-116398
X148336Y-136398
X156464Y-92710
X157480Y-116398
X157480Y-136398
X164084Y-92710
X166624Y-116398
X166624Y-136398
X170180Y-76708
X170180Y-85852
X176784Y-116398
X176784Y-136398
X177546Y-92202
X185166Y-92202
X192278Y-76708
X192278Y-85852
X210566Y-89154
X213360Y-114808
X213360Y-117348
X213360Y-125476
X213360Y-129286
X213360Y-132842
X213360Y-135382
X218186Y-89154
X220980Y-114808
X220980Y-117348
X220980Y-125476
X220980Y-129286
X220980Y-132842
X220980Y-135382
T2
X132882Y-136398
X135382Y-136398
X142026Y-136398
X144526Y-136398
X151670Y-136398
X153670Y-136398
X160060Y-136398
X162560Y-136398
X169966Y-136398
X172466Y-136398
X179618Y-136398
X182118Y-136398
T3
X70866Y-86614
X73406Y-86614
T4
X77470Y-98298
X77470Y-100834
X77470Y-103334
X77470Y-105834
X77470Y-108334
X77470Y-110834
X81088Y-85852
X83588Y-85852
X86128Y-85852
X115088Y-85852
X117588Y-85852
X120128Y-85852
X137128Y-85852
X139628Y-85852
X142168Y-85852
X159128Y-85852
X161628Y-85852
X164168Y-85852
X180088Y-85852
X182588Y-85852
X185128Y-85852
X208026Y-121412
X208026Y-123948
X208026Y-126448
X208026Y-128948
X208026Y-131449
X208026Y-133949
X213128Y-85852
X215628Y-85852
X218168Y-85852
X225044Y-105450
X225044Y-107950
X225044Y-110490
X225298Y-117896
X225298Y-120396
X225298Y-122936
X225298Y-130342
X225298Y-132842
X225298Y-135382
T5
X230124Y-83566
X230124Y-88646
X230124Y-93726
X230124Y-98806
T0
M30
