G04 #@! TF.FileFunction,Other,Fab,Top*
%FSLAX46Y46*%
G04 Gerber Fmt 4.6, Leading zero omitted, Abs format (unit mm)*
G04 Created by KiCad (PCBNEW no-vcs-found-undefined) date Wed Oct 26 00:51:32 2016*
%MOMM*%
%LPD*%
G01*
G04 APERTURE LIST*
%ADD10C,0.050000*%
%ADD11C,0.300000*%
%ADD12C,0.120000*%
%ADD13C,0.200000*%
%ADD14C,0.150000*%
G04 APERTURE END LIST*
D10*
D11*
X88786571Y-130467571D02*
X88786571Y-128967571D01*
X89358000Y-128967571D01*
X89500857Y-129039000D01*
X89572285Y-129110428D01*
X89643714Y-129253285D01*
X89643714Y-129467571D01*
X89572285Y-129610428D01*
X89500857Y-129681857D01*
X89358000Y-129753285D01*
X88786571Y-129753285D01*
X90143714Y-129467571D02*
X90500857Y-130467571D01*
X90858000Y-129467571D02*
X90500857Y-130467571D01*
X90358000Y-130824714D01*
X90286571Y-130896142D01*
X90143714Y-130967571D01*
X92215142Y-129039000D02*
X92072285Y-128967571D01*
X91858000Y-128967571D01*
X91643714Y-129039000D01*
X91500857Y-129181857D01*
X91429428Y-129324714D01*
X91358000Y-129610428D01*
X91358000Y-129824714D01*
X91429428Y-130110428D01*
X91500857Y-130253285D01*
X91643714Y-130396142D01*
X91858000Y-130467571D01*
X92000857Y-130467571D01*
X92215142Y-130396142D01*
X92286571Y-130324714D01*
X92286571Y-129824714D01*
X92000857Y-129824714D01*
X93572285Y-129467571D02*
X93572285Y-130467571D01*
X92929428Y-129467571D02*
X92929428Y-130253285D01*
X93000857Y-130396142D01*
X93143714Y-130467571D01*
X93358000Y-130467571D01*
X93500857Y-130396142D01*
X93572285Y-130324714D01*
X94286571Y-130467571D02*
X94286571Y-129467571D01*
X94286571Y-128967571D02*
X94215142Y-129039000D01*
X94286571Y-129110428D01*
X94358000Y-129039000D01*
X94286571Y-128967571D01*
X94286571Y-129110428D01*
X94786571Y-129467571D02*
X95358000Y-129467571D01*
X95000857Y-128967571D02*
X95000857Y-130253285D01*
X95072285Y-130396142D01*
X95215142Y-130467571D01*
X95358000Y-130467571D01*
X96500857Y-130467571D02*
X96500857Y-129681857D01*
X96429428Y-129539000D01*
X96286571Y-129467571D01*
X96000857Y-129467571D01*
X95858000Y-129539000D01*
X96500857Y-130396142D02*
X96358000Y-130467571D01*
X96000857Y-130467571D01*
X95858000Y-130396142D01*
X95786571Y-130253285D01*
X95786571Y-130110428D01*
X95858000Y-129967571D01*
X96000857Y-129896142D01*
X96358000Y-129896142D01*
X96500857Y-129824714D01*
X97215142Y-130467571D02*
X97215142Y-129467571D01*
X97215142Y-129753285D02*
X97286571Y-129610428D01*
X97358000Y-129539000D01*
X97500857Y-129467571D01*
X97643714Y-129467571D01*
X99286571Y-130467571D02*
X99286571Y-128967571D01*
X99858000Y-128967571D01*
X100000857Y-129039000D01*
X100072285Y-129110428D01*
X100143714Y-129253285D01*
X100143714Y-129467571D01*
X100072285Y-129610428D01*
X100000857Y-129681857D01*
X99858000Y-129753285D01*
X99286571Y-129753285D01*
X101358000Y-130396142D02*
X101215142Y-130467571D01*
X100929428Y-130467571D01*
X100786571Y-130396142D01*
X100715142Y-130253285D01*
X100715142Y-129681857D01*
X100786571Y-129539000D01*
X100929428Y-129467571D01*
X101215142Y-129467571D01*
X101358000Y-129539000D01*
X101429428Y-129681857D01*
X101429428Y-129824714D01*
X100715142Y-129967571D01*
X102072285Y-130467571D02*
X102072285Y-129467571D01*
X102072285Y-129753285D02*
X102143714Y-129610428D01*
X102215142Y-129539000D01*
X102358000Y-129467571D01*
X102500857Y-129467571D01*
X103000857Y-130467571D02*
X103000857Y-129467571D01*
X103000857Y-128967571D02*
X102929428Y-129039000D01*
X103000857Y-129110428D01*
X103072285Y-129039000D01*
X103000857Y-128967571D01*
X103000857Y-129110428D01*
X103715142Y-129467571D02*
X103715142Y-130967571D01*
X103715142Y-129539000D02*
X103858000Y-129467571D01*
X104143714Y-129467571D01*
X104286571Y-129539000D01*
X104358000Y-129610428D01*
X104429428Y-129753285D01*
X104429428Y-130181857D01*
X104358000Y-130324714D01*
X104286571Y-130396142D01*
X104143714Y-130467571D01*
X103858000Y-130467571D01*
X103715142Y-130396142D01*
X105072285Y-130467571D02*
X105072285Y-128967571D01*
X105715142Y-130467571D02*
X105715142Y-129681857D01*
X105643714Y-129539000D01*
X105500857Y-129467571D01*
X105286571Y-129467571D01*
X105143714Y-129539000D01*
X105072285Y-129610428D01*
X107000857Y-130396142D02*
X106858000Y-130467571D01*
X106572285Y-130467571D01*
X106429428Y-130396142D01*
X106358000Y-130253285D01*
X106358000Y-129681857D01*
X106429428Y-129539000D01*
X106572285Y-129467571D01*
X106858000Y-129467571D01*
X107000857Y-129539000D01*
X107072285Y-129681857D01*
X107072285Y-129824714D01*
X106358000Y-129967571D01*
X107715142Y-130467571D02*
X107715142Y-129467571D01*
X107715142Y-129753285D02*
X107786571Y-129610428D01*
X107858000Y-129539000D01*
X108000857Y-129467571D01*
X108143714Y-129467571D01*
X109286571Y-130467571D02*
X109286571Y-129681857D01*
X109215142Y-129539000D01*
X109072285Y-129467571D01*
X108786571Y-129467571D01*
X108643714Y-129539000D01*
X109286571Y-130396142D02*
X109143714Y-130467571D01*
X108786571Y-130467571D01*
X108643714Y-130396142D01*
X108572285Y-130253285D01*
X108572285Y-130110428D01*
X108643714Y-129967571D01*
X108786571Y-129896142D01*
X109143714Y-129896142D01*
X109286571Y-129824714D01*
X110215142Y-130467571D02*
X110072285Y-130396142D01*
X110000857Y-130253285D01*
X110000857Y-128967571D01*
X110715142Y-130396142D02*
X110858000Y-130467571D01*
X111143714Y-130467571D01*
X111286571Y-130396142D01*
X111358000Y-130253285D01*
X111358000Y-130181857D01*
X111286571Y-130039000D01*
X111143714Y-129967571D01*
X110929428Y-129967571D01*
X110786571Y-129896142D01*
X110715142Y-129753285D01*
X110715142Y-129681857D01*
X110786571Y-129539000D01*
X110929428Y-129467571D01*
X111143714Y-129467571D01*
X111286571Y-129539000D01*
X114358000Y-130467571D02*
X114286571Y-130467571D01*
X114143714Y-130396142D01*
X113929428Y-130181857D01*
X113572285Y-129753285D01*
X113429428Y-129539000D01*
X113358000Y-129324714D01*
X113358000Y-129181857D01*
X113429428Y-129039000D01*
X113572285Y-128967571D01*
X113643714Y-128967571D01*
X113786571Y-129039000D01*
X113858000Y-129181857D01*
X113858000Y-129253285D01*
X113786571Y-129396142D01*
X113715142Y-129467571D01*
X113286571Y-129753285D01*
X113215142Y-129824714D01*
X113143714Y-129967571D01*
X113143714Y-130181857D01*
X113215142Y-130324714D01*
X113286571Y-130396142D01*
X113429428Y-130467571D01*
X113643714Y-130467571D01*
X113786571Y-130396142D01*
X113858000Y-130324714D01*
X114072285Y-130039000D01*
X114143714Y-129824714D01*
X114143714Y-129681857D01*
X88286571Y-133017571D02*
X88286571Y-131517571D01*
X88858000Y-131517571D01*
X89000857Y-131589000D01*
X89072285Y-131660428D01*
X89143714Y-131803285D01*
X89143714Y-132017571D01*
X89072285Y-132160428D01*
X89000857Y-132231857D01*
X88858000Y-132303285D01*
X88286571Y-132303285D01*
X90000857Y-133017571D02*
X89858000Y-132946142D01*
X89786571Y-132874714D01*
X89715142Y-132731857D01*
X89715142Y-132303285D01*
X89786571Y-132160428D01*
X89858000Y-132089000D01*
X90000857Y-132017571D01*
X90215142Y-132017571D01*
X90358000Y-132089000D01*
X90429428Y-132160428D01*
X90500857Y-132303285D01*
X90500857Y-132731857D01*
X90429428Y-132874714D01*
X90358000Y-132946142D01*
X90215142Y-133017571D01*
X90000857Y-133017571D01*
X91000857Y-132017571D02*
X91286571Y-133017571D01*
X91572285Y-132303285D01*
X91858000Y-133017571D01*
X92143714Y-132017571D01*
X93286571Y-132946142D02*
X93143714Y-133017571D01*
X92858000Y-133017571D01*
X92715142Y-132946142D01*
X92643714Y-132803285D01*
X92643714Y-132231857D01*
X92715142Y-132089000D01*
X92858000Y-132017571D01*
X93143714Y-132017571D01*
X93286571Y-132089000D01*
X93358000Y-132231857D01*
X93358000Y-132374714D01*
X92643714Y-132517571D01*
X94000857Y-133017571D02*
X94000857Y-132017571D01*
X94000857Y-132303285D02*
X94072285Y-132160428D01*
X94143714Y-132089000D01*
X94286571Y-132017571D01*
X94429428Y-132017571D01*
X96072285Y-133017571D02*
X96072285Y-131517571D01*
X96429428Y-131517571D01*
X96643714Y-131589000D01*
X96786571Y-131731857D01*
X96858000Y-131874714D01*
X96929428Y-132160428D01*
X96929428Y-132374714D01*
X96858000Y-132660428D01*
X96786571Y-132803285D01*
X96643714Y-132946142D01*
X96429428Y-133017571D01*
X96072285Y-133017571D01*
X97572285Y-133017571D02*
X97572285Y-132017571D01*
X97572285Y-131517571D02*
X97500857Y-131589000D01*
X97572285Y-131660428D01*
X97643714Y-131589000D01*
X97572285Y-131517571D01*
X97572285Y-131660428D01*
X98215142Y-132946142D02*
X98358000Y-133017571D01*
X98643714Y-133017571D01*
X98786571Y-132946142D01*
X98858000Y-132803285D01*
X98858000Y-132731857D01*
X98786571Y-132589000D01*
X98643714Y-132517571D01*
X98429428Y-132517571D01*
X98286571Y-132446142D01*
X98215142Y-132303285D01*
X98215142Y-132231857D01*
X98286571Y-132089000D01*
X98429428Y-132017571D01*
X98643714Y-132017571D01*
X98786571Y-132089000D01*
X99286571Y-132017571D02*
X99858000Y-132017571D01*
X99500857Y-131517571D02*
X99500857Y-132803285D01*
X99572285Y-132946142D01*
X99715142Y-133017571D01*
X99858000Y-133017571D01*
X100358000Y-133017571D02*
X100358000Y-132017571D01*
X100358000Y-132303285D02*
X100429428Y-132160428D01*
X100500857Y-132089000D01*
X100643714Y-132017571D01*
X100786571Y-132017571D01*
X101286571Y-133017571D02*
X101286571Y-132017571D01*
X101286571Y-131517571D02*
X101215142Y-131589000D01*
X101286571Y-131660428D01*
X101358000Y-131589000D01*
X101286571Y-131517571D01*
X101286571Y-131660428D01*
X102000857Y-133017571D02*
X102000857Y-131517571D01*
X102000857Y-132089000D02*
X102143714Y-132017571D01*
X102429428Y-132017571D01*
X102572285Y-132089000D01*
X102643714Y-132160428D01*
X102715142Y-132303285D01*
X102715142Y-132731857D01*
X102643714Y-132874714D01*
X102572285Y-132946142D01*
X102429428Y-133017571D01*
X102143714Y-133017571D01*
X102000857Y-132946142D01*
X104000857Y-132017571D02*
X104000857Y-133017571D01*
X103358000Y-132017571D02*
X103358000Y-132803285D01*
X103429428Y-132946142D01*
X103572285Y-133017571D01*
X103786571Y-133017571D01*
X103929428Y-132946142D01*
X104000857Y-132874714D01*
X104500857Y-132017571D02*
X105072285Y-132017571D01*
X104715142Y-131517571D02*
X104715142Y-132803285D01*
X104786571Y-132946142D01*
X104929428Y-133017571D01*
X105072285Y-133017571D01*
X105572285Y-133017571D02*
X105572285Y-132017571D01*
X105572285Y-131517571D02*
X105500857Y-131589000D01*
X105572285Y-131660428D01*
X105643714Y-131589000D01*
X105572285Y-131517571D01*
X105572285Y-131660428D01*
X106500857Y-133017571D02*
X106358000Y-132946142D01*
X106286571Y-132874714D01*
X106215142Y-132731857D01*
X106215142Y-132303285D01*
X106286571Y-132160428D01*
X106358000Y-132089000D01*
X106500857Y-132017571D01*
X106715142Y-132017571D01*
X106858000Y-132089000D01*
X106929428Y-132160428D01*
X107000857Y-132303285D01*
X107000857Y-132731857D01*
X106929428Y-132874714D01*
X106858000Y-132946142D01*
X106715142Y-133017571D01*
X106500857Y-133017571D01*
X107643714Y-132017571D02*
X107643714Y-133017571D01*
X107643714Y-132160428D02*
X107715142Y-132089000D01*
X107858000Y-132017571D01*
X108072285Y-132017571D01*
X108215142Y-132089000D01*
X108286571Y-132231857D01*
X108286571Y-133017571D01*
X110643714Y-132231857D02*
X110858000Y-132303285D01*
X110929428Y-132374714D01*
X111000857Y-132517571D01*
X111000857Y-132731857D01*
X110929428Y-132874714D01*
X110858000Y-132946142D01*
X110715142Y-133017571D01*
X110143714Y-133017571D01*
X110143714Y-131517571D01*
X110643714Y-131517571D01*
X110786571Y-131589000D01*
X110858000Y-131660428D01*
X110929428Y-131803285D01*
X110929428Y-131946142D01*
X110858000Y-132089000D01*
X110786571Y-132160428D01*
X110643714Y-132231857D01*
X110143714Y-132231857D01*
X111858000Y-133017571D02*
X111715142Y-132946142D01*
X111643714Y-132874714D01*
X111572285Y-132731857D01*
X111572285Y-132303285D01*
X111643714Y-132160428D01*
X111715142Y-132089000D01*
X111858000Y-132017571D01*
X112072285Y-132017571D01*
X112215142Y-132089000D01*
X112286571Y-132160428D01*
X112358000Y-132303285D01*
X112358000Y-132731857D01*
X112286571Y-132874714D01*
X112215142Y-132946142D01*
X112072285Y-133017571D01*
X111858000Y-133017571D01*
X113643714Y-133017571D02*
X113643714Y-132231857D01*
X113572285Y-132089000D01*
X113429428Y-132017571D01*
X113143714Y-132017571D01*
X113000857Y-132089000D01*
X113643714Y-132946142D02*
X113500857Y-133017571D01*
X113143714Y-133017571D01*
X113000857Y-132946142D01*
X112929428Y-132803285D01*
X112929428Y-132660428D01*
X113000857Y-132517571D01*
X113143714Y-132446142D01*
X113500857Y-132446142D01*
X113643714Y-132374714D01*
X114358000Y-133017571D02*
X114358000Y-132017571D01*
X114358000Y-132303285D02*
X114429428Y-132160428D01*
X114500857Y-132089000D01*
X114643714Y-132017571D01*
X114786571Y-132017571D01*
X115929428Y-133017571D02*
X115929428Y-131517571D01*
X115929428Y-132946142D02*
X115786571Y-133017571D01*
X115500857Y-133017571D01*
X115358000Y-132946142D01*
X115286571Y-132874714D01*
X115215142Y-132731857D01*
X115215142Y-132303285D01*
X115286571Y-132160428D01*
X115358000Y-132089000D01*
X115500857Y-132017571D01*
X115786571Y-132017571D01*
X115929428Y-132089000D01*
D12*
X147494666Y-73874380D02*
X147494666Y-74588666D01*
X147447047Y-74731523D01*
X147351809Y-74826761D01*
X147208952Y-74874380D01*
X147113714Y-74874380D01*
X147875619Y-73874380D02*
X148494666Y-73874380D01*
X148161333Y-74255333D01*
X148304190Y-74255333D01*
X148399428Y-74302952D01*
X148447047Y-74350571D01*
X148494666Y-74445809D01*
X148494666Y-74683904D01*
X148447047Y-74779142D01*
X148399428Y-74826761D01*
X148304190Y-74874380D01*
X148018476Y-74874380D01*
X147923238Y-74826761D01*
X147875619Y-74779142D01*
X125396666Y-73874380D02*
X125396666Y-74588666D01*
X125349047Y-74731523D01*
X125253809Y-74826761D01*
X125110952Y-74874380D01*
X125015714Y-74874380D01*
X125825238Y-73969619D02*
X125872857Y-73922000D01*
X125968095Y-73874380D01*
X126206190Y-73874380D01*
X126301428Y-73922000D01*
X126349047Y-73969619D01*
X126396666Y-74064857D01*
X126396666Y-74160095D01*
X126349047Y-74302952D01*
X125777619Y-74874380D01*
X126396666Y-74874380D01*
X92122666Y-73874380D02*
X92122666Y-74588666D01*
X92075047Y-74731523D01*
X91979809Y-74826761D01*
X91836952Y-74874380D01*
X91741714Y-74874380D01*
X93122666Y-74874380D02*
X92551238Y-74874380D01*
X92836952Y-74874380D02*
X92836952Y-73874380D01*
X92741714Y-74017238D01*
X92646476Y-74112476D01*
X92551238Y-74160095D01*
X74144561Y-91196988D02*
X74582294Y-90759255D01*
X74615965Y-91264331D01*
X74716981Y-91163316D01*
X74817996Y-91129644D01*
X74885339Y-91129644D01*
X74986355Y-91163316D01*
X75154713Y-91331675D01*
X75188385Y-91432690D01*
X75188385Y-91500034D01*
X75154713Y-91601049D01*
X74952683Y-91803079D01*
X74851668Y-91836751D01*
X74784324Y-91836751D01*
X75053698Y-90759255D02*
X75693461Y-91062301D01*
X75390416Y-90422538D01*
X75356744Y-89984805D02*
X75794477Y-89547072D01*
X75828148Y-90052148D01*
X75929164Y-89951133D01*
X76030179Y-89917461D01*
X76097522Y-89917461D01*
X76198538Y-89951133D01*
X76366896Y-90119492D01*
X76400568Y-90220507D01*
X76400568Y-90287851D01*
X76366896Y-90388866D01*
X76164866Y-90590896D01*
X76063851Y-90624568D01*
X75996507Y-90624568D01*
X76703614Y-90186835D02*
X77242362Y-89648087D01*
X77107675Y-89244026D02*
X77444392Y-88907309D01*
X77242362Y-89513400D02*
X76770957Y-88570591D01*
X77713766Y-89041996D01*
X71941278Y-90673614D02*
X71840263Y-90707286D01*
X71739248Y-90808301D01*
X71671904Y-90942988D01*
X71671904Y-91077675D01*
X71705576Y-91178690D01*
X71806591Y-91347049D01*
X71907607Y-91448064D01*
X72075965Y-91549079D01*
X72176981Y-91582751D01*
X72311668Y-91582751D01*
X72446355Y-91515408D01*
X72513698Y-91448064D01*
X72581042Y-91313377D01*
X72581042Y-91246034D01*
X72345339Y-91010331D01*
X72210652Y-91145018D01*
X72951431Y-91010331D02*
X72244324Y-90303225D01*
X73355492Y-90606270D01*
X72648385Y-89899164D01*
X73692209Y-90269553D02*
X72985103Y-89562446D01*
X73153461Y-89394087D01*
X73288148Y-89326744D01*
X73422835Y-89326744D01*
X73523851Y-89360416D01*
X73692209Y-89461431D01*
X73793225Y-89562446D01*
X73894240Y-89730805D01*
X73927912Y-89831820D01*
X73927912Y-89966507D01*
X73860568Y-90101194D01*
X73692209Y-90269553D01*
X74298301Y-89798148D02*
X74837049Y-89259400D01*
X74702362Y-88855339D02*
X75039079Y-88518622D01*
X74837049Y-89124713D02*
X74365644Y-88181904D01*
X75308453Y-88653309D01*
X191944666Y-73874380D02*
X191944666Y-74588666D01*
X191897047Y-74731523D01*
X191801809Y-74826761D01*
X191658952Y-74874380D01*
X191563714Y-74874380D01*
X192897047Y-73874380D02*
X192420857Y-73874380D01*
X192373238Y-74350571D01*
X192420857Y-74302952D01*
X192516095Y-74255333D01*
X192754190Y-74255333D01*
X192849428Y-74302952D01*
X192897047Y-74350571D01*
X192944666Y-74445809D01*
X192944666Y-74683904D01*
X192897047Y-74779142D01*
X192849428Y-74826761D01*
X192754190Y-74874380D01*
X192516095Y-74874380D01*
X192420857Y-74826761D01*
X192373238Y-74779142D01*
X169846666Y-73874380D02*
X169846666Y-74588666D01*
X169799047Y-74731523D01*
X169703809Y-74826761D01*
X169560952Y-74874380D01*
X169465714Y-74874380D01*
X170751428Y-74207714D02*
X170751428Y-74874380D01*
X170513333Y-73826761D02*
X170275238Y-74541047D01*
X170894285Y-74541047D01*
D11*
X180277238Y-125430285D02*
X180182000Y-125525523D01*
X179896285Y-125620761D01*
X179705809Y-125620761D01*
X179420095Y-125525523D01*
X179229619Y-125335047D01*
X179134380Y-125144571D01*
X179039142Y-124763619D01*
X179039142Y-124477904D01*
X179134380Y-124096952D01*
X179229619Y-123906476D01*
X179420095Y-123716000D01*
X179705809Y-123620761D01*
X179896285Y-123620761D01*
X180182000Y-123716000D01*
X180277238Y-123811238D01*
X181420095Y-125620761D02*
X181229619Y-125525523D01*
X181134380Y-125430285D01*
X181039142Y-125239809D01*
X181039142Y-124668380D01*
X181134380Y-124477904D01*
X181229619Y-124382666D01*
X181420095Y-124287428D01*
X181705809Y-124287428D01*
X181896285Y-124382666D01*
X181991523Y-124477904D01*
X182086761Y-124668380D01*
X182086761Y-125239809D01*
X181991523Y-125430285D01*
X181896285Y-125525523D01*
X181705809Y-125620761D01*
X181420095Y-125620761D01*
X182943904Y-124287428D02*
X182943904Y-125620761D01*
X182943904Y-124477904D02*
X183039142Y-124382666D01*
X183229619Y-124287428D01*
X183515333Y-124287428D01*
X183705809Y-124382666D01*
X183801047Y-124573142D01*
X183801047Y-125620761D01*
X184753428Y-124287428D02*
X184753428Y-125620761D01*
X184753428Y-124477904D02*
X184848666Y-124382666D01*
X185039142Y-124287428D01*
X185324857Y-124287428D01*
X185515333Y-124382666D01*
X185610571Y-124573142D01*
X185610571Y-125620761D01*
X187324857Y-125525523D02*
X187134380Y-125620761D01*
X186753428Y-125620761D01*
X186562952Y-125525523D01*
X186467714Y-125335047D01*
X186467714Y-124573142D01*
X186562952Y-124382666D01*
X186753428Y-124287428D01*
X187134380Y-124287428D01*
X187324857Y-124382666D01*
X187420095Y-124573142D01*
X187420095Y-124763619D01*
X186467714Y-124954095D01*
X189134380Y-125525523D02*
X188943904Y-125620761D01*
X188562952Y-125620761D01*
X188372476Y-125525523D01*
X188277238Y-125430285D01*
X188182000Y-125239809D01*
X188182000Y-124668380D01*
X188277238Y-124477904D01*
X188372476Y-124382666D01*
X188562952Y-124287428D01*
X188943904Y-124287428D01*
X189134380Y-124382666D01*
X189705809Y-124287428D02*
X190467714Y-124287428D01*
X189991523Y-123620761D02*
X189991523Y-125335047D01*
X190086761Y-125525523D01*
X190277238Y-125620761D01*
X190467714Y-125620761D01*
X191420095Y-125620761D02*
X191229619Y-125525523D01*
X191134380Y-125430285D01*
X191039142Y-125239809D01*
X191039142Y-124668380D01*
X191134380Y-124477904D01*
X191229619Y-124382666D01*
X191420095Y-124287428D01*
X191705809Y-124287428D01*
X191896285Y-124382666D01*
X191991523Y-124477904D01*
X192086761Y-124668380D01*
X192086761Y-125239809D01*
X191991523Y-125430285D01*
X191896285Y-125525523D01*
X191705809Y-125620761D01*
X191420095Y-125620761D01*
X192943904Y-125620761D02*
X192943904Y-124287428D01*
X192943904Y-124668380D02*
X193039142Y-124477904D01*
X193134380Y-124382666D01*
X193324857Y-124287428D01*
X193515333Y-124287428D01*
X183324857Y-128920761D02*
X183324857Y-126920761D01*
X184086761Y-126920761D01*
X184277238Y-127016000D01*
X184372476Y-127111238D01*
X184467714Y-127301714D01*
X184467714Y-127587428D01*
X184372476Y-127777904D01*
X184277238Y-127873142D01*
X184086761Y-127968380D01*
X183324857Y-127968380D01*
X185610571Y-128920761D02*
X185420095Y-128825523D01*
X185324857Y-128635047D01*
X185324857Y-126920761D01*
X187229619Y-127587428D02*
X187229619Y-128920761D01*
X186372476Y-127587428D02*
X186372476Y-128635047D01*
X186467714Y-128825523D01*
X186658190Y-128920761D01*
X186943904Y-128920761D01*
X187134380Y-128825523D01*
X187229619Y-128730285D01*
X189039142Y-127587428D02*
X189039142Y-129206476D01*
X188943904Y-129396952D01*
X188848666Y-129492190D01*
X188658190Y-129587428D01*
X188372476Y-129587428D01*
X188182000Y-129492190D01*
X189039142Y-128825523D02*
X188848666Y-128920761D01*
X188467714Y-128920761D01*
X188277238Y-128825523D01*
X188182000Y-128730285D01*
X188086761Y-128539809D01*
X188086761Y-127968380D01*
X188182000Y-127777904D01*
X188277238Y-127682666D01*
X188467714Y-127587428D01*
X188848666Y-127587428D01*
X189039142Y-127682666D01*
X182848666Y-130220761D02*
X184182000Y-130220761D01*
X182848666Y-132220761D01*
X184182000Y-132220761D01*
X185229619Y-132220761D02*
X185039142Y-132125523D01*
X184943904Y-132030285D01*
X184848666Y-131839809D01*
X184848666Y-131268380D01*
X184943904Y-131077904D01*
X185039142Y-130982666D01*
X185229619Y-130887428D01*
X185515333Y-130887428D01*
X185705809Y-130982666D01*
X185801047Y-131077904D01*
X185896285Y-131268380D01*
X185896285Y-131839809D01*
X185801047Y-132030285D01*
X185705809Y-132125523D01*
X185515333Y-132220761D01*
X185229619Y-132220761D01*
X186753428Y-130887428D02*
X186753428Y-132220761D01*
X186753428Y-131077904D02*
X186848666Y-130982666D01*
X187039142Y-130887428D01*
X187324857Y-130887428D01*
X187515333Y-130982666D01*
X187610571Y-131173142D01*
X187610571Y-132220761D01*
X189324857Y-132125523D02*
X189134380Y-132220761D01*
X188753428Y-132220761D01*
X188562952Y-132125523D01*
X188467714Y-131935047D01*
X188467714Y-131173142D01*
X188562952Y-130982666D01*
X188753428Y-130887428D01*
X189134380Y-130887428D01*
X189324857Y-130982666D01*
X189420095Y-131173142D01*
X189420095Y-131363619D01*
X188467714Y-131554095D01*
D13*
X193548000Y-136906000D02*
X193548000Y-117856000D01*
X178816000Y-136906000D02*
X193548000Y-136906000D01*
X178816000Y-117856000D02*
X178816000Y-136906000D01*
X193548000Y-117856000D02*
X178816000Y-117856000D01*
D12*
X220988000Y-103544095D02*
X220940380Y-103639333D01*
X220940380Y-103782190D01*
X220988000Y-103925047D01*
X221083238Y-104020285D01*
X221178476Y-104067904D01*
X221368952Y-104115523D01*
X221511809Y-104115523D01*
X221702285Y-104067904D01*
X221797523Y-104020285D01*
X221892761Y-103925047D01*
X221940380Y-103782190D01*
X221940380Y-103686952D01*
X221892761Y-103544095D01*
X221845142Y-103496476D01*
X221511809Y-103496476D01*
X221511809Y-103686952D01*
X221940380Y-103067904D02*
X220940380Y-103067904D01*
X221940380Y-102496476D01*
X220940380Y-102496476D01*
X221940380Y-102020285D02*
X220940380Y-102020285D01*
X220940380Y-101782190D01*
X220988000Y-101639333D01*
X221083238Y-101544095D01*
X221178476Y-101496476D01*
X221368952Y-101448857D01*
X221511809Y-101448857D01*
X221702285Y-101496476D01*
X221797523Y-101544095D01*
X221892761Y-101639333D01*
X221940380Y-101782190D01*
X221940380Y-102020285D01*
X222035619Y-101258380D02*
X222035619Y-100496476D01*
X221940380Y-100258380D02*
X220940380Y-100258380D01*
X220940380Y-100020285D01*
X220988000Y-99877428D01*
X221083238Y-99782190D01*
X221178476Y-99734571D01*
X221368952Y-99686952D01*
X221511809Y-99686952D01*
X221702285Y-99734571D01*
X221797523Y-99782190D01*
X221892761Y-99877428D01*
X221940380Y-100020285D01*
X221940380Y-100258380D01*
X221940380Y-98496476D02*
X220940380Y-98496476D01*
X221940380Y-98020285D02*
X220940380Y-98020285D01*
X221940380Y-97448857D01*
X220940380Y-97448857D01*
X220892761Y-96258380D02*
X222178476Y-97115523D01*
X220940380Y-95734571D02*
X220940380Y-95544095D01*
X220988000Y-95448857D01*
X221083238Y-95353619D01*
X221273714Y-95306000D01*
X221607047Y-95306000D01*
X221797523Y-95353619D01*
X221892761Y-95448857D01*
X221940380Y-95544095D01*
X221940380Y-95734571D01*
X221892761Y-95829809D01*
X221797523Y-95925047D01*
X221607047Y-95972666D01*
X221273714Y-95972666D01*
X221083238Y-95925047D01*
X220988000Y-95829809D01*
X220940380Y-95734571D01*
X220940380Y-94877428D02*
X221749904Y-94877428D01*
X221845142Y-94829809D01*
X221892761Y-94782190D01*
X221940380Y-94686952D01*
X221940380Y-94496476D01*
X221892761Y-94401238D01*
X221845142Y-94353619D01*
X221749904Y-94306000D01*
X220940380Y-94306000D01*
X220940380Y-93972666D02*
X220940380Y-93401238D01*
X221940380Y-93686952D02*
X220940380Y-93686952D01*
X222766000Y-97178380D02*
X222718380Y-97273619D01*
X222718380Y-97416476D01*
X222766000Y-97559333D01*
X222861238Y-97654571D01*
X222956476Y-97702190D01*
X223146952Y-97749809D01*
X223289809Y-97749809D01*
X223480285Y-97702190D01*
X223575523Y-97654571D01*
X223670761Y-97559333D01*
X223718380Y-97416476D01*
X223718380Y-97321238D01*
X223670761Y-97178380D01*
X223623142Y-97130761D01*
X223289809Y-97130761D01*
X223289809Y-97321238D01*
X223718380Y-96702190D02*
X222718380Y-96702190D01*
X223718380Y-96130761D01*
X222718380Y-96130761D01*
X223718380Y-95654571D02*
X222718380Y-95654571D01*
X222718380Y-95416476D01*
X222766000Y-95273619D01*
X222861238Y-95178380D01*
X222956476Y-95130761D01*
X223146952Y-95083142D01*
X223289809Y-95083142D01*
X223480285Y-95130761D01*
X223575523Y-95178380D01*
X223670761Y-95273619D01*
X223718380Y-95416476D01*
X223718380Y-95654571D01*
X223813619Y-94892666D02*
X223813619Y-94130761D01*
X223718380Y-93892666D02*
X222718380Y-93892666D01*
X222718380Y-93654571D01*
X222766000Y-93511714D01*
X222861238Y-93416476D01*
X222956476Y-93368857D01*
X223146952Y-93321238D01*
X223289809Y-93321238D01*
X223480285Y-93368857D01*
X223575523Y-93416476D01*
X223670761Y-93511714D01*
X223718380Y-93654571D01*
X223718380Y-93892666D01*
X222718380Y-91940285D02*
X222718380Y-91749809D01*
X222766000Y-91654571D01*
X222861238Y-91559333D01*
X223051714Y-91511714D01*
X223385047Y-91511714D01*
X223575523Y-91559333D01*
X223670761Y-91654571D01*
X223718380Y-91749809D01*
X223718380Y-91940285D01*
X223670761Y-92035523D01*
X223575523Y-92130761D01*
X223385047Y-92178380D01*
X223051714Y-92178380D01*
X222861238Y-92130761D01*
X222766000Y-92035523D01*
X222718380Y-91940285D01*
X222718380Y-91083142D02*
X223527904Y-91083142D01*
X223623142Y-91035523D01*
X223670761Y-90987904D01*
X223718380Y-90892666D01*
X223718380Y-90702190D01*
X223670761Y-90606952D01*
X223623142Y-90559333D01*
X223527904Y-90511714D01*
X222718380Y-90511714D01*
X222718380Y-90178380D02*
X222718380Y-89606952D01*
X223718380Y-89892666D02*
X222718380Y-89892666D01*
X224750380Y-94066666D02*
X224750380Y-93447619D01*
X225131333Y-93780952D01*
X225131333Y-93638095D01*
X225178952Y-93542857D01*
X225226571Y-93495238D01*
X225321809Y-93447619D01*
X225559904Y-93447619D01*
X225655142Y-93495238D01*
X225702761Y-93542857D01*
X225750380Y-93638095D01*
X225750380Y-93923809D01*
X225702761Y-94019047D01*
X225655142Y-94066666D01*
X225083714Y-93114285D02*
X225750380Y-92876190D01*
X225083714Y-92638095D01*
X224750380Y-92352380D02*
X224750380Y-91733333D01*
X225131333Y-92066666D01*
X225131333Y-91923809D01*
X225178952Y-91828571D01*
X225226571Y-91780952D01*
X225321809Y-91733333D01*
X225559904Y-91733333D01*
X225655142Y-91780952D01*
X225702761Y-91828571D01*
X225750380Y-91923809D01*
X225750380Y-92209523D01*
X225702761Y-92304761D01*
X225655142Y-92352380D01*
X225845619Y-91542857D02*
X225845619Y-90780952D01*
X225750380Y-90542857D02*
X224750380Y-90542857D01*
X224750380Y-90304761D01*
X224798000Y-90161904D01*
X224893238Y-90066666D01*
X224988476Y-90019047D01*
X225178952Y-89971428D01*
X225321809Y-89971428D01*
X225512285Y-90019047D01*
X225607523Y-90066666D01*
X225702761Y-90161904D01*
X225750380Y-90304761D01*
X225750380Y-90542857D01*
X225750380Y-88780952D02*
X224750380Y-88780952D01*
X225750380Y-88304761D02*
X224750380Y-88304761D01*
X225750380Y-87733333D01*
X224750380Y-87733333D01*
X224702761Y-86542857D02*
X225988476Y-87400000D01*
X224750380Y-86019047D02*
X224750380Y-85828571D01*
X224798000Y-85733333D01*
X224893238Y-85638095D01*
X225083714Y-85590476D01*
X225417047Y-85590476D01*
X225607523Y-85638095D01*
X225702761Y-85733333D01*
X225750380Y-85828571D01*
X225750380Y-86019047D01*
X225702761Y-86114285D01*
X225607523Y-86209523D01*
X225417047Y-86257142D01*
X225083714Y-86257142D01*
X224893238Y-86209523D01*
X224798000Y-86114285D01*
X224750380Y-86019047D01*
X224750380Y-85161904D02*
X225559904Y-85161904D01*
X225655142Y-85114285D01*
X225702761Y-85066666D01*
X225750380Y-84971428D01*
X225750380Y-84780952D01*
X225702761Y-84685714D01*
X225655142Y-84638095D01*
X225559904Y-84590476D01*
X224750380Y-84590476D01*
X224750380Y-84257142D02*
X224750380Y-83685714D01*
X225750380Y-83971428D02*
X224750380Y-83971428D01*
X222464380Y-86296095D02*
X222464380Y-86772285D01*
X222940571Y-86819904D01*
X222892952Y-86772285D01*
X222845333Y-86677047D01*
X222845333Y-86438952D01*
X222892952Y-86343714D01*
X222940571Y-86296095D01*
X223035809Y-86248476D01*
X223273904Y-86248476D01*
X223369142Y-86296095D01*
X223416761Y-86343714D01*
X223464380Y-86438952D01*
X223464380Y-86677047D01*
X223416761Y-86772285D01*
X223369142Y-86819904D01*
X222797714Y-85915142D02*
X223464380Y-85677047D01*
X222797714Y-85438952D01*
X223464380Y-84296095D02*
X222464380Y-84296095D01*
X223464380Y-83819904D02*
X222464380Y-83819904D01*
X223464380Y-83248476D01*
X222464380Y-83248476D01*
X222416761Y-82058000D02*
X223702476Y-82915142D01*
X222464380Y-81534190D02*
X222464380Y-81343714D01*
X222512000Y-81248476D01*
X222607238Y-81153238D01*
X222797714Y-81105619D01*
X223131047Y-81105619D01*
X223321523Y-81153238D01*
X223416761Y-81248476D01*
X223464380Y-81343714D01*
X223464380Y-81534190D01*
X223416761Y-81629428D01*
X223321523Y-81724666D01*
X223131047Y-81772285D01*
X222797714Y-81772285D01*
X222607238Y-81724666D01*
X222512000Y-81629428D01*
X222464380Y-81534190D01*
X222464380Y-80677047D02*
X223273904Y-80677047D01*
X223369142Y-80629428D01*
X223416761Y-80581809D01*
X223464380Y-80486571D01*
X223464380Y-80296095D01*
X223416761Y-80200857D01*
X223369142Y-80153238D01*
X223273904Y-80105619D01*
X222464380Y-80105619D01*
X222464380Y-79772285D02*
X222464380Y-79200857D01*
X223464380Y-79486571D02*
X222464380Y-79486571D01*
D14*
X195929571Y-135961380D02*
X195929571Y-134961380D01*
X196310523Y-134961380D01*
X196405761Y-135009000D01*
X196453380Y-135056619D01*
X196501000Y-135151857D01*
X196501000Y-135294714D01*
X196453380Y-135389952D01*
X196405761Y-135437571D01*
X196310523Y-135485190D01*
X195929571Y-135485190D01*
X197262904Y-135437571D02*
X197405761Y-135485190D01*
X197453380Y-135532809D01*
X197501000Y-135628047D01*
X197501000Y-135770904D01*
X197453380Y-135866142D01*
X197405761Y-135913761D01*
X197310523Y-135961380D01*
X196929571Y-135961380D01*
X196929571Y-134961380D01*
X197262904Y-134961380D01*
X197358142Y-135009000D01*
X197405761Y-135056619D01*
X197453380Y-135151857D01*
X197453380Y-135247095D01*
X197405761Y-135342333D01*
X197358142Y-135389952D01*
X197262904Y-135437571D01*
X196929571Y-135437571D01*
X197691476Y-136056619D02*
X198453380Y-136056619D01*
X198881952Y-134961380D02*
X199072428Y-134961380D01*
X199167666Y-135009000D01*
X199262904Y-135104238D01*
X199310523Y-135294714D01*
X199310523Y-135628047D01*
X199262904Y-135818523D01*
X199167666Y-135913761D01*
X199072428Y-135961380D01*
X198881952Y-135961380D01*
X198786714Y-135913761D01*
X198691476Y-135818523D01*
X198643857Y-135628047D01*
X198643857Y-135294714D01*
X198691476Y-135104238D01*
X198786714Y-135009000D01*
X198881952Y-134961380D01*
X199739095Y-134961380D02*
X199739095Y-135770904D01*
X199786714Y-135866142D01*
X199834333Y-135913761D01*
X199929571Y-135961380D01*
X200120047Y-135961380D01*
X200215285Y-135913761D01*
X200262904Y-135866142D01*
X200310523Y-135770904D01*
X200310523Y-134961380D01*
X200643857Y-134961380D02*
X201215285Y-134961380D01*
X200929571Y-135961380D02*
X200929571Y-134961380D01*
X73136619Y-110275666D02*
X73612809Y-110275666D01*
X73041380Y-110561380D02*
X73374714Y-109561380D01*
X73708047Y-110561380D01*
X74041380Y-109894714D02*
X74041380Y-110561380D01*
X74041380Y-109989952D02*
X74089000Y-109942333D01*
X74184238Y-109894714D01*
X74327095Y-109894714D01*
X74422333Y-109942333D01*
X74469952Y-110037571D01*
X74469952Y-110561380D01*
X75374714Y-110561380D02*
X75374714Y-110037571D01*
X75327095Y-109942333D01*
X75231857Y-109894714D01*
X75041380Y-109894714D01*
X74946142Y-109942333D01*
X75374714Y-110513761D02*
X75279476Y-110561380D01*
X75041380Y-110561380D01*
X74946142Y-110513761D01*
X74898523Y-110418523D01*
X74898523Y-110323285D01*
X74946142Y-110228047D01*
X75041380Y-110180428D01*
X75279476Y-110180428D01*
X75374714Y-110132809D01*
X75993761Y-110561380D02*
X75898523Y-110513761D01*
X75850904Y-110418523D01*
X75850904Y-109561380D01*
X76517571Y-110561380D02*
X76422333Y-110513761D01*
X76374714Y-110466142D01*
X76327095Y-110370904D01*
X76327095Y-110085190D01*
X76374714Y-109989952D01*
X76422333Y-109942333D01*
X76517571Y-109894714D01*
X76660428Y-109894714D01*
X76755666Y-109942333D01*
X76803285Y-109989952D01*
X76850904Y-110085190D01*
X76850904Y-110370904D01*
X76803285Y-110466142D01*
X76755666Y-110513761D01*
X76660428Y-110561380D01*
X76517571Y-110561380D01*
X77708047Y-109894714D02*
X77708047Y-110704238D01*
X77660428Y-110799476D01*
X77612809Y-110847095D01*
X77517571Y-110894714D01*
X77374714Y-110894714D01*
X77279476Y-110847095D01*
X77708047Y-110513761D02*
X77612809Y-110561380D01*
X77422333Y-110561380D01*
X77327095Y-110513761D01*
X77279476Y-110466142D01*
X77231857Y-110370904D01*
X77231857Y-110085190D01*
X77279476Y-109989952D01*
X77327095Y-109942333D01*
X77422333Y-109894714D01*
X77612809Y-109894714D01*
X77708047Y-109942333D01*
X77946142Y-110656619D02*
X78708047Y-110656619D01*
X79136619Y-109561380D02*
X79327095Y-109561380D01*
X79422333Y-109609000D01*
X79517571Y-109704238D01*
X79565190Y-109894714D01*
X79565190Y-110228047D01*
X79517571Y-110418523D01*
X79422333Y-110513761D01*
X79327095Y-110561380D01*
X79136619Y-110561380D01*
X79041380Y-110513761D01*
X78946142Y-110418523D01*
X78898523Y-110228047D01*
X78898523Y-109894714D01*
X78946142Y-109704238D01*
X79041380Y-109609000D01*
X79136619Y-109561380D01*
X80422333Y-109894714D02*
X80422333Y-110561380D01*
X79993761Y-109894714D02*
X79993761Y-110418523D01*
X80041380Y-110513761D01*
X80136619Y-110561380D01*
X80279476Y-110561380D01*
X80374714Y-110513761D01*
X80422333Y-110466142D01*
X80755666Y-109894714D02*
X81136619Y-109894714D01*
X80898523Y-109561380D02*
X80898523Y-110418523D01*
X80946142Y-110513761D01*
X81041380Y-110561380D01*
X81136619Y-110561380D01*
X89304761Y-85724428D02*
X89352380Y-85581571D01*
X89352380Y-85343476D01*
X89304761Y-85248238D01*
X89257142Y-85200619D01*
X89161904Y-85153000D01*
X89066666Y-85153000D01*
X88971428Y-85200619D01*
X88923809Y-85248238D01*
X88876190Y-85343476D01*
X88828571Y-85533952D01*
X88780952Y-85629190D01*
X88733333Y-85676809D01*
X88638095Y-85724428D01*
X88542857Y-85724428D01*
X88447619Y-85676809D01*
X88400000Y-85629190D01*
X88352380Y-85533952D01*
X88352380Y-85295857D01*
X88400000Y-85153000D01*
X88685714Y-84724428D02*
X89685714Y-84724428D01*
X88733333Y-84724428D02*
X88685714Y-84629190D01*
X88685714Y-84438714D01*
X88733333Y-84343476D01*
X88780952Y-84295857D01*
X88876190Y-84248238D01*
X89161904Y-84248238D01*
X89257142Y-84295857D01*
X89304761Y-84343476D01*
X89352380Y-84438714D01*
X89352380Y-84629190D01*
X89304761Y-84724428D01*
X89352380Y-83676809D02*
X89304761Y-83772047D01*
X89209523Y-83819666D01*
X88352380Y-83819666D01*
X89352380Y-83295857D02*
X88685714Y-83295857D01*
X88352380Y-83295857D02*
X88400000Y-83343476D01*
X88447619Y-83295857D01*
X88400000Y-83248238D01*
X88352380Y-83295857D01*
X88447619Y-83295857D01*
X88685714Y-82962523D02*
X88685714Y-82581571D01*
X88352380Y-82819666D02*
X89209523Y-82819666D01*
X89304761Y-82772047D01*
X89352380Y-82676809D01*
X89352380Y-82581571D01*
X89352380Y-82248238D02*
X88352380Y-82248238D01*
X88352380Y-81867285D01*
X88400000Y-81772047D01*
X88447619Y-81724428D01*
X88542857Y-81676809D01*
X88685714Y-81676809D01*
X88780952Y-81724428D01*
X88828571Y-81772047D01*
X88876190Y-81867285D01*
X88876190Y-82248238D01*
X89352380Y-81105380D02*
X89304761Y-81200619D01*
X89257142Y-81248238D01*
X89161904Y-81295857D01*
X88876190Y-81295857D01*
X88780952Y-81248238D01*
X88733333Y-81200619D01*
X88685714Y-81105380D01*
X88685714Y-80962523D01*
X88733333Y-80867285D01*
X88780952Y-80819666D01*
X88876190Y-80772047D01*
X89161904Y-80772047D01*
X89257142Y-80819666D01*
X89304761Y-80867285D01*
X89352380Y-80962523D01*
X89352380Y-81105380D01*
X88685714Y-80486333D02*
X88685714Y-80105380D01*
X88352380Y-80343476D02*
X89209523Y-80343476D01*
X89304761Y-80295857D01*
X89352380Y-80200619D01*
X89352380Y-80105380D01*
X89447619Y-80010142D02*
X89447619Y-79248238D01*
X88352380Y-78819666D02*
X88352380Y-78724428D01*
X88400000Y-78629190D01*
X88447619Y-78581571D01*
X88542857Y-78533952D01*
X88733333Y-78486333D01*
X88971428Y-78486333D01*
X89161904Y-78533952D01*
X89257142Y-78581571D01*
X89304761Y-78629190D01*
X89352380Y-78724428D01*
X89352380Y-78819666D01*
X89304761Y-78914904D01*
X89257142Y-78962523D01*
X89161904Y-79010142D01*
X88971428Y-79057761D01*
X88733333Y-79057761D01*
X88542857Y-79010142D01*
X88447619Y-78962523D01*
X88400000Y-78914904D01*
X88352380Y-78819666D01*
X89447619Y-78295857D02*
X89447619Y-77533952D01*
X89352380Y-77295857D02*
X88352380Y-77295857D01*
X89066666Y-76962523D01*
X88352380Y-76629190D01*
X89352380Y-76629190D01*
X145311761Y-83875000D02*
X145359380Y-83732142D01*
X145359380Y-83494047D01*
X145311761Y-83398809D01*
X145264142Y-83351190D01*
X145168904Y-83303571D01*
X145073666Y-83303571D01*
X144978428Y-83351190D01*
X144930809Y-83398809D01*
X144883190Y-83494047D01*
X144835571Y-83684523D01*
X144787952Y-83779761D01*
X144740333Y-83827380D01*
X144645095Y-83875000D01*
X144549857Y-83875000D01*
X144454619Y-83827380D01*
X144407000Y-83779761D01*
X144359380Y-83684523D01*
X144359380Y-83446428D01*
X144407000Y-83303571D01*
X144692714Y-82875000D02*
X145692714Y-82875000D01*
X144740333Y-82875000D02*
X144692714Y-82779761D01*
X144692714Y-82589285D01*
X144740333Y-82494047D01*
X144787952Y-82446428D01*
X144883190Y-82398809D01*
X145168904Y-82398809D01*
X145264142Y-82446428D01*
X145311761Y-82494047D01*
X145359380Y-82589285D01*
X145359380Y-82779761D01*
X145311761Y-82875000D01*
X145359380Y-81827380D02*
X145311761Y-81922619D01*
X145216523Y-81970238D01*
X144359380Y-81970238D01*
X145359380Y-81446428D02*
X144692714Y-81446428D01*
X144359380Y-81446428D02*
X144407000Y-81494047D01*
X144454619Y-81446428D01*
X144407000Y-81398809D01*
X144359380Y-81446428D01*
X144454619Y-81446428D01*
X144692714Y-81113095D02*
X144692714Y-80732142D01*
X144359380Y-80970238D02*
X145216523Y-80970238D01*
X145311761Y-80922619D01*
X145359380Y-80827380D01*
X145359380Y-80732142D01*
X145359380Y-80398809D02*
X144359380Y-80398809D01*
X144359380Y-80017857D01*
X144407000Y-79922619D01*
X144454619Y-79875000D01*
X144549857Y-79827380D01*
X144692714Y-79827380D01*
X144787952Y-79875000D01*
X144835571Y-79922619D01*
X144883190Y-80017857D01*
X144883190Y-80398809D01*
X145359380Y-79255952D02*
X145311761Y-79351190D01*
X145264142Y-79398809D01*
X145168904Y-79446428D01*
X144883190Y-79446428D01*
X144787952Y-79398809D01*
X144740333Y-79351190D01*
X144692714Y-79255952D01*
X144692714Y-79113095D01*
X144740333Y-79017857D01*
X144787952Y-78970238D01*
X144883190Y-78922619D01*
X145168904Y-78922619D01*
X145264142Y-78970238D01*
X145311761Y-79017857D01*
X145359380Y-79113095D01*
X145359380Y-79255952D01*
X144692714Y-78636904D02*
X144692714Y-78255952D01*
X144359380Y-78494047D02*
X145216523Y-78494047D01*
X145311761Y-78446428D01*
X145359380Y-78351190D01*
X145359380Y-78255952D01*
X145454619Y-78160714D02*
X145454619Y-77398809D01*
X144454619Y-77208333D02*
X144407000Y-77160714D01*
X144359380Y-77065476D01*
X144359380Y-76827380D01*
X144407000Y-76732142D01*
X144454619Y-76684523D01*
X144549857Y-76636904D01*
X144645095Y-76636904D01*
X144787952Y-76684523D01*
X145359380Y-77255952D01*
X145359380Y-76636904D01*
X145454619Y-76446428D02*
X145454619Y-75684523D01*
X144835571Y-75113095D02*
X144883190Y-74970238D01*
X144930809Y-74922619D01*
X145026047Y-74875000D01*
X145168904Y-74875000D01*
X145264142Y-74922619D01*
X145311761Y-74970238D01*
X145359380Y-75065476D01*
X145359380Y-75446428D01*
X144359380Y-75446428D01*
X144359380Y-75113095D01*
X144407000Y-75017857D01*
X144454619Y-74970238D01*
X144549857Y-74922619D01*
X144645095Y-74922619D01*
X144740333Y-74970238D01*
X144787952Y-75017857D01*
X144835571Y-75113095D01*
X144835571Y-75446428D01*
X188745761Y-83875000D02*
X188793380Y-83732142D01*
X188793380Y-83494047D01*
X188745761Y-83398809D01*
X188698142Y-83351190D01*
X188602904Y-83303571D01*
X188507666Y-83303571D01*
X188412428Y-83351190D01*
X188364809Y-83398809D01*
X188317190Y-83494047D01*
X188269571Y-83684523D01*
X188221952Y-83779761D01*
X188174333Y-83827380D01*
X188079095Y-83875000D01*
X187983857Y-83875000D01*
X187888619Y-83827380D01*
X187841000Y-83779761D01*
X187793380Y-83684523D01*
X187793380Y-83446428D01*
X187841000Y-83303571D01*
X188126714Y-82875000D02*
X189126714Y-82875000D01*
X188174333Y-82875000D02*
X188126714Y-82779761D01*
X188126714Y-82589285D01*
X188174333Y-82494047D01*
X188221952Y-82446428D01*
X188317190Y-82398809D01*
X188602904Y-82398809D01*
X188698142Y-82446428D01*
X188745761Y-82494047D01*
X188793380Y-82589285D01*
X188793380Y-82779761D01*
X188745761Y-82875000D01*
X188793380Y-81827380D02*
X188745761Y-81922619D01*
X188650523Y-81970238D01*
X187793380Y-81970238D01*
X188793380Y-81446428D02*
X188126714Y-81446428D01*
X187793380Y-81446428D02*
X187841000Y-81494047D01*
X187888619Y-81446428D01*
X187841000Y-81398809D01*
X187793380Y-81446428D01*
X187888619Y-81446428D01*
X188126714Y-81113095D02*
X188126714Y-80732142D01*
X187793380Y-80970238D02*
X188650523Y-80970238D01*
X188745761Y-80922619D01*
X188793380Y-80827380D01*
X188793380Y-80732142D01*
X188793380Y-80398809D02*
X187793380Y-80398809D01*
X187793380Y-80017857D01*
X187841000Y-79922619D01*
X187888619Y-79875000D01*
X187983857Y-79827380D01*
X188126714Y-79827380D01*
X188221952Y-79875000D01*
X188269571Y-79922619D01*
X188317190Y-80017857D01*
X188317190Y-80398809D01*
X188793380Y-79255952D02*
X188745761Y-79351190D01*
X188698142Y-79398809D01*
X188602904Y-79446428D01*
X188317190Y-79446428D01*
X188221952Y-79398809D01*
X188174333Y-79351190D01*
X188126714Y-79255952D01*
X188126714Y-79113095D01*
X188174333Y-79017857D01*
X188221952Y-78970238D01*
X188317190Y-78922619D01*
X188602904Y-78922619D01*
X188698142Y-78970238D01*
X188745761Y-79017857D01*
X188793380Y-79113095D01*
X188793380Y-79255952D01*
X188126714Y-78636904D02*
X188126714Y-78255952D01*
X187793380Y-78494047D02*
X188650523Y-78494047D01*
X188745761Y-78446428D01*
X188793380Y-78351190D01*
X188793380Y-78255952D01*
X188888619Y-78160714D02*
X188888619Y-77398809D01*
X188126714Y-76732142D02*
X188793380Y-76732142D01*
X187745761Y-76970238D02*
X188460047Y-77208333D01*
X188460047Y-76589285D01*
X188888619Y-76446428D02*
X188888619Y-75684523D01*
X188793380Y-75446428D02*
X187793380Y-75446428D01*
X187793380Y-75208333D01*
X187841000Y-75065476D01*
X187936238Y-74970238D01*
X188031476Y-74922619D01*
X188221952Y-74875000D01*
X188364809Y-74875000D01*
X188555285Y-74922619D01*
X188650523Y-74970238D01*
X188745761Y-75065476D01*
X188793380Y-75208333D01*
X188793380Y-75446428D01*
X229997428Y-129055761D02*
X230140285Y-129103380D01*
X230378380Y-129103380D01*
X230473619Y-129055761D01*
X230521238Y-129008142D01*
X230568857Y-128912904D01*
X230568857Y-128817666D01*
X230521238Y-128722428D01*
X230473619Y-128674809D01*
X230378380Y-128627190D01*
X230187904Y-128579571D01*
X230092666Y-128531952D01*
X230045047Y-128484333D01*
X229997428Y-128389095D01*
X229997428Y-128293857D01*
X230045047Y-128198619D01*
X230092666Y-128151000D01*
X230187904Y-128103380D01*
X230426000Y-128103380D01*
X230568857Y-128151000D01*
X230997428Y-128579571D02*
X231330761Y-128579571D01*
X231473619Y-129103380D02*
X230997428Y-129103380D01*
X230997428Y-128103380D01*
X231473619Y-128103380D01*
X232568857Y-129198619D02*
X232473619Y-129151000D01*
X232378380Y-129055761D01*
X232235523Y-128912904D01*
X232140285Y-128865285D01*
X232045047Y-128865285D01*
X232092666Y-129103380D02*
X231997428Y-129055761D01*
X231902190Y-128960523D01*
X231854571Y-128770047D01*
X231854571Y-128436714D01*
X231902190Y-128246238D01*
X231997428Y-128151000D01*
X232092666Y-128103380D01*
X232283142Y-128103380D01*
X232378380Y-128151000D01*
X232473619Y-128246238D01*
X232521238Y-128436714D01*
X232521238Y-128770047D01*
X232473619Y-128960523D01*
X232378380Y-129055761D01*
X232283142Y-129103380D01*
X232092666Y-129103380D01*
X232711714Y-129198619D02*
X233473619Y-129198619D01*
X233664095Y-129055761D02*
X233806952Y-129103380D01*
X234045047Y-129103380D01*
X234140285Y-129055761D01*
X234187904Y-129008142D01*
X234235523Y-128912904D01*
X234235523Y-128817666D01*
X234187904Y-128722428D01*
X234140285Y-128674809D01*
X234045047Y-128627190D01*
X233854571Y-128579571D01*
X233759333Y-128531952D01*
X233711714Y-128484333D01*
X233664095Y-128389095D01*
X233664095Y-128293857D01*
X233711714Y-128198619D01*
X233759333Y-128151000D01*
X233854571Y-128103380D01*
X234092666Y-128103380D01*
X234235523Y-128151000D01*
X234616476Y-128817666D02*
X235092666Y-128817666D01*
X234521238Y-129103380D02*
X234854571Y-128103380D01*
X235187904Y-129103380D01*
X235378380Y-128103380D02*
X235711714Y-129103380D01*
X236045047Y-128103380D01*
X236378380Y-128579571D02*
X236711714Y-128579571D01*
X236854571Y-129103380D02*
X236378380Y-129103380D01*
X236378380Y-128103380D01*
X236854571Y-128103380D01*
X123340761Y-83803571D02*
X123388380Y-83660714D01*
X123388380Y-83422619D01*
X123340761Y-83327380D01*
X123293142Y-83279761D01*
X123197904Y-83232142D01*
X123102666Y-83232142D01*
X123007428Y-83279761D01*
X122959809Y-83327380D01*
X122912190Y-83422619D01*
X122864571Y-83613095D01*
X122816952Y-83708333D01*
X122769333Y-83755952D01*
X122674095Y-83803571D01*
X122578857Y-83803571D01*
X122483619Y-83755952D01*
X122436000Y-83708333D01*
X122388380Y-83613095D01*
X122388380Y-83375000D01*
X122436000Y-83232142D01*
X122721714Y-82803571D02*
X123721714Y-82803571D01*
X122769333Y-82803571D02*
X122721714Y-82708333D01*
X122721714Y-82517857D01*
X122769333Y-82422619D01*
X122816952Y-82375000D01*
X122912190Y-82327380D01*
X123197904Y-82327380D01*
X123293142Y-82375000D01*
X123340761Y-82422619D01*
X123388380Y-82517857D01*
X123388380Y-82708333D01*
X123340761Y-82803571D01*
X123388380Y-81755952D02*
X123340761Y-81851190D01*
X123245523Y-81898809D01*
X122388380Y-81898809D01*
X123388380Y-81375000D02*
X122721714Y-81375000D01*
X122388380Y-81375000D02*
X122436000Y-81422619D01*
X122483619Y-81375000D01*
X122436000Y-81327380D01*
X122388380Y-81375000D01*
X122483619Y-81375000D01*
X122721714Y-81041666D02*
X122721714Y-80660714D01*
X122388380Y-80898809D02*
X123245523Y-80898809D01*
X123340761Y-80851190D01*
X123388380Y-80755952D01*
X123388380Y-80660714D01*
X123388380Y-80327380D02*
X122388380Y-80327380D01*
X122388380Y-79946428D01*
X122436000Y-79851190D01*
X122483619Y-79803571D01*
X122578857Y-79755952D01*
X122721714Y-79755952D01*
X122816952Y-79803571D01*
X122864571Y-79851190D01*
X122912190Y-79946428D01*
X122912190Y-80327380D01*
X123388380Y-79184523D02*
X123340761Y-79279761D01*
X123293142Y-79327380D01*
X123197904Y-79375000D01*
X122912190Y-79375000D01*
X122816952Y-79327380D01*
X122769333Y-79279761D01*
X122721714Y-79184523D01*
X122721714Y-79041666D01*
X122769333Y-78946428D01*
X122816952Y-78898809D01*
X122912190Y-78851190D01*
X123197904Y-78851190D01*
X123293142Y-78898809D01*
X123340761Y-78946428D01*
X123388380Y-79041666D01*
X123388380Y-79184523D01*
X122721714Y-78565476D02*
X122721714Y-78184523D01*
X122388380Y-78422619D02*
X123245523Y-78422619D01*
X123340761Y-78375000D01*
X123388380Y-78279761D01*
X123388380Y-78184523D01*
X123483619Y-78089285D02*
X123483619Y-77327380D01*
X123388380Y-76565476D02*
X123388380Y-77136904D01*
X123388380Y-76851190D02*
X122388380Y-76851190D01*
X122531238Y-76946428D01*
X122626476Y-77041666D01*
X122674095Y-77136904D01*
X123483619Y-76375000D02*
X123483619Y-75613095D01*
X123102666Y-75422619D02*
X123102666Y-74946428D01*
X123388380Y-75517857D02*
X122388380Y-75184523D01*
X123388380Y-74851190D01*
X167790761Y-83875000D02*
X167838380Y-83732142D01*
X167838380Y-83494047D01*
X167790761Y-83398809D01*
X167743142Y-83351190D01*
X167647904Y-83303571D01*
X167552666Y-83303571D01*
X167457428Y-83351190D01*
X167409809Y-83398809D01*
X167362190Y-83494047D01*
X167314571Y-83684523D01*
X167266952Y-83779761D01*
X167219333Y-83827380D01*
X167124095Y-83875000D01*
X167028857Y-83875000D01*
X166933619Y-83827380D01*
X166886000Y-83779761D01*
X166838380Y-83684523D01*
X166838380Y-83446428D01*
X166886000Y-83303571D01*
X167171714Y-82875000D02*
X168171714Y-82875000D01*
X167219333Y-82875000D02*
X167171714Y-82779761D01*
X167171714Y-82589285D01*
X167219333Y-82494047D01*
X167266952Y-82446428D01*
X167362190Y-82398809D01*
X167647904Y-82398809D01*
X167743142Y-82446428D01*
X167790761Y-82494047D01*
X167838380Y-82589285D01*
X167838380Y-82779761D01*
X167790761Y-82875000D01*
X167838380Y-81827380D02*
X167790761Y-81922619D01*
X167695523Y-81970238D01*
X166838380Y-81970238D01*
X167838380Y-81446428D02*
X167171714Y-81446428D01*
X166838380Y-81446428D02*
X166886000Y-81494047D01*
X166933619Y-81446428D01*
X166886000Y-81398809D01*
X166838380Y-81446428D01*
X166933619Y-81446428D01*
X167171714Y-81113095D02*
X167171714Y-80732142D01*
X166838380Y-80970238D02*
X167695523Y-80970238D01*
X167790761Y-80922619D01*
X167838380Y-80827380D01*
X167838380Y-80732142D01*
X167838380Y-80398809D02*
X166838380Y-80398809D01*
X166838380Y-80017857D01*
X166886000Y-79922619D01*
X166933619Y-79875000D01*
X167028857Y-79827380D01*
X167171714Y-79827380D01*
X167266952Y-79875000D01*
X167314571Y-79922619D01*
X167362190Y-80017857D01*
X167362190Y-80398809D01*
X167838380Y-79255952D02*
X167790761Y-79351190D01*
X167743142Y-79398809D01*
X167647904Y-79446428D01*
X167362190Y-79446428D01*
X167266952Y-79398809D01*
X167219333Y-79351190D01*
X167171714Y-79255952D01*
X167171714Y-79113095D01*
X167219333Y-79017857D01*
X167266952Y-78970238D01*
X167362190Y-78922619D01*
X167647904Y-78922619D01*
X167743142Y-78970238D01*
X167790761Y-79017857D01*
X167838380Y-79113095D01*
X167838380Y-79255952D01*
X167171714Y-78636904D02*
X167171714Y-78255952D01*
X166838380Y-78494047D02*
X167695523Y-78494047D01*
X167790761Y-78446428D01*
X167838380Y-78351190D01*
X167838380Y-78255952D01*
X167933619Y-78160714D02*
X167933619Y-77398809D01*
X166838380Y-77255952D02*
X166838380Y-76636904D01*
X167219333Y-76970238D01*
X167219333Y-76827380D01*
X167266952Y-76732142D01*
X167314571Y-76684523D01*
X167409809Y-76636904D01*
X167647904Y-76636904D01*
X167743142Y-76684523D01*
X167790761Y-76732142D01*
X167838380Y-76827380D01*
X167838380Y-77113095D01*
X167790761Y-77208333D01*
X167743142Y-77255952D01*
X167933619Y-76446428D02*
X167933619Y-75684523D01*
X167743142Y-74875000D02*
X167790761Y-74922619D01*
X167838380Y-75065476D01*
X167838380Y-75160714D01*
X167790761Y-75303571D01*
X167695523Y-75398809D01*
X167600285Y-75446428D01*
X167409809Y-75494047D01*
X167266952Y-75494047D01*
X167076476Y-75446428D01*
X166981238Y-75398809D01*
X166886000Y-75303571D01*
X166838380Y-75160714D01*
X166838380Y-75065476D01*
X166886000Y-74922619D01*
X166933619Y-74875000D01*
X230949809Y-116657380D02*
X230473619Y-116657380D01*
X230473619Y-115657380D01*
X231854571Y-116562142D02*
X231806952Y-116609761D01*
X231664095Y-116657380D01*
X231568857Y-116657380D01*
X231426000Y-116609761D01*
X231330761Y-116514523D01*
X231283142Y-116419285D01*
X231235523Y-116228809D01*
X231235523Y-116085952D01*
X231283142Y-115895476D01*
X231330761Y-115800238D01*
X231426000Y-115705000D01*
X231568857Y-115657380D01*
X231664095Y-115657380D01*
X231806952Y-115705000D01*
X231854571Y-115752619D01*
X232283142Y-116657380D02*
X232283142Y-115657380D01*
X232521238Y-115657380D01*
X232664095Y-115705000D01*
X232759333Y-115800238D01*
X232806952Y-115895476D01*
X232854571Y-116085952D01*
X232854571Y-116228809D01*
X232806952Y-116419285D01*
X232759333Y-116514523D01*
X232664095Y-116609761D01*
X232521238Y-116657380D01*
X232283142Y-116657380D01*
X233045047Y-116752619D02*
X233806952Y-116752619D01*
X234045047Y-116657380D02*
X234045047Y-115657380D01*
X234426000Y-115657380D01*
X234521238Y-115705000D01*
X234568857Y-115752619D01*
X234616476Y-115847857D01*
X234616476Y-115990714D01*
X234568857Y-116085952D01*
X234521238Y-116133571D01*
X234426000Y-116181190D01*
X234045047Y-116181190D01*
X235378380Y-116133571D02*
X235521238Y-116181190D01*
X235568857Y-116228809D01*
X235616476Y-116324047D01*
X235616476Y-116466904D01*
X235568857Y-116562142D01*
X235521238Y-116609761D01*
X235426000Y-116657380D01*
X235045047Y-116657380D01*
X235045047Y-115657380D01*
X235378380Y-115657380D01*
X235473619Y-115705000D01*
X235521238Y-115752619D01*
X235568857Y-115847857D01*
X235568857Y-115943095D01*
X235521238Y-116038333D01*
X235473619Y-116085952D01*
X235378380Y-116133571D01*
X235045047Y-116133571D01*
X235997428Y-116609761D02*
X236092666Y-116657380D01*
X236283142Y-116657380D01*
X236378380Y-116609761D01*
X236426000Y-116514523D01*
X236426000Y-116466904D01*
X236378380Y-116371666D01*
X236283142Y-116324047D01*
X236140285Y-116324047D01*
X236045047Y-116276428D01*
X235997428Y-116181190D01*
X235997428Y-116133571D01*
X236045047Y-116038333D01*
X236140285Y-115990714D01*
X236283142Y-115990714D01*
X236378380Y-116038333D01*
X230322857Y-103338380D02*
X230894285Y-103338380D01*
X230608571Y-104338380D02*
X230608571Y-103338380D01*
X231799047Y-104338380D02*
X231465714Y-103862190D01*
X231227619Y-104338380D02*
X231227619Y-103338380D01*
X231608571Y-103338380D01*
X231703809Y-103386000D01*
X231751428Y-103433619D01*
X231799047Y-103528857D01*
X231799047Y-103671714D01*
X231751428Y-103766952D01*
X231703809Y-103814571D01*
X231608571Y-103862190D01*
X231227619Y-103862190D01*
X232227619Y-103814571D02*
X232560952Y-103814571D01*
X232703809Y-104338380D02*
X232227619Y-104338380D01*
X232227619Y-103338380D01*
X232703809Y-103338380D01*
X233132380Y-104338380D02*
X233132380Y-103338380D01*
X233465714Y-104052666D01*
X233799047Y-103338380D01*
X233799047Y-104338380D01*
X234037142Y-104433619D02*
X234799047Y-104433619D01*
X234894285Y-103338380D02*
X235227619Y-104338380D01*
X235560952Y-103338380D01*
X235894285Y-104338380D02*
X235894285Y-103338380D01*
X236703809Y-103814571D02*
X236846666Y-103862190D01*
X236894285Y-103909809D01*
X236941904Y-104005047D01*
X236941904Y-104147904D01*
X236894285Y-104243142D01*
X236846666Y-104290761D01*
X236751428Y-104338380D01*
X236370476Y-104338380D01*
X236370476Y-103338380D01*
X236703809Y-103338380D01*
X236799047Y-103386000D01*
X236846666Y-103433619D01*
X236894285Y-103528857D01*
X236894285Y-103624095D01*
X236846666Y-103719333D01*
X236799047Y-103766952D01*
X236703809Y-103814571D01*
X236370476Y-103814571D01*
X210970761Y-83493952D02*
X211018380Y-83351095D01*
X211018380Y-83113000D01*
X210970761Y-83017761D01*
X210923142Y-82970142D01*
X210827904Y-82922523D01*
X210732666Y-82922523D01*
X210637428Y-82970142D01*
X210589809Y-83017761D01*
X210542190Y-83113000D01*
X210494571Y-83303476D01*
X210446952Y-83398714D01*
X210399333Y-83446333D01*
X210304095Y-83493952D01*
X210208857Y-83493952D01*
X210113619Y-83446333D01*
X210066000Y-83398714D01*
X210018380Y-83303476D01*
X210018380Y-83065380D01*
X210066000Y-82922523D01*
X210351714Y-82493952D02*
X211351714Y-82493952D01*
X210399333Y-82493952D02*
X210351714Y-82398714D01*
X210351714Y-82208238D01*
X210399333Y-82113000D01*
X210446952Y-82065380D01*
X210542190Y-82017761D01*
X210827904Y-82017761D01*
X210923142Y-82065380D01*
X210970761Y-82113000D01*
X211018380Y-82208238D01*
X211018380Y-82398714D01*
X210970761Y-82493952D01*
X211018380Y-81446333D02*
X210970761Y-81541571D01*
X210875523Y-81589190D01*
X210018380Y-81589190D01*
X211018380Y-81065380D02*
X210351714Y-81065380D01*
X210018380Y-81065380D02*
X210066000Y-81113000D01*
X210113619Y-81065380D01*
X210066000Y-81017761D01*
X210018380Y-81065380D01*
X210113619Y-81065380D01*
X210351714Y-80732047D02*
X210351714Y-80351095D01*
X210018380Y-80589190D02*
X210875523Y-80589190D01*
X210970761Y-80541571D01*
X211018380Y-80446333D01*
X211018380Y-80351095D01*
X211018380Y-80017761D02*
X210018380Y-80017761D01*
X210018380Y-79636809D01*
X210066000Y-79541571D01*
X210113619Y-79493952D01*
X210208857Y-79446333D01*
X210351714Y-79446333D01*
X210446952Y-79493952D01*
X210494571Y-79541571D01*
X210542190Y-79636809D01*
X210542190Y-80017761D01*
X211018380Y-78874904D02*
X210970761Y-78970142D01*
X210923142Y-79017761D01*
X210827904Y-79065380D01*
X210542190Y-79065380D01*
X210446952Y-79017761D01*
X210399333Y-78970142D01*
X210351714Y-78874904D01*
X210351714Y-78732047D01*
X210399333Y-78636809D01*
X210446952Y-78589190D01*
X210542190Y-78541571D01*
X210827904Y-78541571D01*
X210923142Y-78589190D01*
X210970761Y-78636809D01*
X211018380Y-78732047D01*
X211018380Y-78874904D01*
X210351714Y-78255857D02*
X210351714Y-77874904D01*
X210018380Y-78113000D02*
X210875523Y-78113000D01*
X210970761Y-78065380D01*
X211018380Y-77970142D01*
X211018380Y-77874904D01*
X211113619Y-77779666D02*
X211113619Y-77017761D01*
X210018380Y-76303476D02*
X210018380Y-76779666D01*
X210494571Y-76827285D01*
X210446952Y-76779666D01*
X210399333Y-76684428D01*
X210399333Y-76446333D01*
X210446952Y-76351095D01*
X210494571Y-76303476D01*
X210589809Y-76255857D01*
X210827904Y-76255857D01*
X210923142Y-76303476D01*
X210970761Y-76351095D01*
X211018380Y-76446333D01*
X211018380Y-76684428D01*
X210970761Y-76779666D01*
X210923142Y-76827285D01*
X211113619Y-76065380D02*
X211113619Y-75303476D01*
X210018380Y-75208238D02*
X210018380Y-74636809D01*
X211018380Y-74922523D02*
X210018380Y-74922523D01*
X211018380Y-73732047D02*
X210542190Y-74065380D01*
X211018380Y-74303476D02*
X210018380Y-74303476D01*
X210018380Y-73922523D01*
X210066000Y-73827285D01*
X210113619Y-73779666D01*
X210208857Y-73732047D01*
X210351714Y-73732047D01*
X210446952Y-73779666D01*
X210494571Y-73827285D01*
X210542190Y-73922523D01*
X210542190Y-74303476D01*
X71921666Y-88216619D02*
X71921666Y-87740428D01*
X72207380Y-88311857D02*
X71207380Y-87978523D01*
X72207380Y-87645190D01*
X71540714Y-87311857D02*
X72207380Y-87311857D01*
X71635952Y-87311857D02*
X71588333Y-87264238D01*
X71540714Y-87169000D01*
X71540714Y-87026142D01*
X71588333Y-86930904D01*
X71683571Y-86883285D01*
X72207380Y-86883285D01*
X72207380Y-85978523D02*
X71683571Y-85978523D01*
X71588333Y-86026142D01*
X71540714Y-86121380D01*
X71540714Y-86311857D01*
X71588333Y-86407095D01*
X72159761Y-85978523D02*
X72207380Y-86073761D01*
X72207380Y-86311857D01*
X72159761Y-86407095D01*
X72064523Y-86454714D01*
X71969285Y-86454714D01*
X71874047Y-86407095D01*
X71826428Y-86311857D01*
X71826428Y-86073761D01*
X71778809Y-85978523D01*
X72207380Y-85359476D02*
X72159761Y-85454714D01*
X72064523Y-85502333D01*
X71207380Y-85502333D01*
X72207380Y-84835666D02*
X72159761Y-84930904D01*
X72112142Y-84978523D01*
X72016904Y-85026142D01*
X71731190Y-85026142D01*
X71635952Y-84978523D01*
X71588333Y-84930904D01*
X71540714Y-84835666D01*
X71540714Y-84692809D01*
X71588333Y-84597571D01*
X71635952Y-84549952D01*
X71731190Y-84502333D01*
X72016904Y-84502333D01*
X72112142Y-84549952D01*
X72159761Y-84597571D01*
X72207380Y-84692809D01*
X72207380Y-84835666D01*
X71540714Y-83645190D02*
X72350238Y-83645190D01*
X72445476Y-83692809D01*
X72493095Y-83740428D01*
X72540714Y-83835666D01*
X72540714Y-83978523D01*
X72493095Y-84073761D01*
X72159761Y-83645190D02*
X72207380Y-83740428D01*
X72207380Y-83930904D01*
X72159761Y-84026142D01*
X72112142Y-84073761D01*
X72016904Y-84121380D01*
X71731190Y-84121380D01*
X71635952Y-84073761D01*
X71588333Y-84026142D01*
X71540714Y-83930904D01*
X71540714Y-83740428D01*
X71588333Y-83645190D01*
X72207380Y-82407095D02*
X71207380Y-82407095D01*
X71207380Y-82026142D01*
X71255000Y-81930904D01*
X71302619Y-81883285D01*
X71397857Y-81835666D01*
X71540714Y-81835666D01*
X71635952Y-81883285D01*
X71683571Y-81930904D01*
X71731190Y-82026142D01*
X71731190Y-82407095D01*
X72207380Y-81264238D02*
X72159761Y-81359476D01*
X72112142Y-81407095D01*
X72016904Y-81454714D01*
X71731190Y-81454714D01*
X71635952Y-81407095D01*
X71588333Y-81359476D01*
X71540714Y-81264238D01*
X71540714Y-81121380D01*
X71588333Y-81026142D01*
X71635952Y-80978523D01*
X71731190Y-80930904D01*
X72016904Y-80930904D01*
X72112142Y-80978523D01*
X72159761Y-81026142D01*
X72207380Y-81121380D01*
X72207380Y-81264238D01*
X71540714Y-80597571D02*
X72207380Y-80407095D01*
X71731190Y-80216619D01*
X72207380Y-80026142D01*
X71540714Y-79835666D01*
X72159761Y-79073761D02*
X72207380Y-79169000D01*
X72207380Y-79359476D01*
X72159761Y-79454714D01*
X72064523Y-79502333D01*
X71683571Y-79502333D01*
X71588333Y-79454714D01*
X71540714Y-79359476D01*
X71540714Y-79169000D01*
X71588333Y-79073761D01*
X71683571Y-79026142D01*
X71778809Y-79026142D01*
X71874047Y-79502333D01*
X72207380Y-78597571D02*
X71540714Y-78597571D01*
X71731190Y-78597571D02*
X71635952Y-78549952D01*
X71588333Y-78502333D01*
X71540714Y-78407095D01*
X71540714Y-78311857D01*
X72207380Y-77216619D02*
X71207380Y-77216619D01*
X72207380Y-76740428D02*
X71207380Y-76740428D01*
X72207380Y-76169000D01*
X71207380Y-76169000D01*
X169767333Y-141676380D02*
X169195904Y-141676380D01*
X169481619Y-141676380D02*
X169481619Y-140676380D01*
X169386380Y-140819238D01*
X169291142Y-140914476D01*
X169195904Y-140962095D01*
X170195904Y-141009714D02*
X170195904Y-142009714D01*
X170672095Y-141533523D02*
X170719714Y-141628761D01*
X170814952Y-141676380D01*
X170195904Y-141533523D02*
X170243523Y-141628761D01*
X170338761Y-141676380D01*
X170529238Y-141676380D01*
X170624476Y-141628761D01*
X170672095Y-141533523D01*
X170672095Y-141009714D01*
X171576857Y-141152571D02*
X171243523Y-141152571D01*
X171243523Y-141676380D02*
X171243523Y-140676380D01*
X171719714Y-140676380D01*
X175355333Y-141671380D02*
X174783904Y-141671380D01*
X175069619Y-141671380D02*
X175069619Y-140671380D01*
X174974380Y-140814238D01*
X174879142Y-140909476D01*
X174783904Y-140957095D01*
X175783904Y-141004714D02*
X175783904Y-142004714D01*
X176260095Y-141528523D02*
X176307714Y-141623761D01*
X176402952Y-141671380D01*
X175783904Y-141528523D02*
X175831523Y-141623761D01*
X175926761Y-141671380D01*
X176117238Y-141671380D01*
X176212476Y-141623761D01*
X176260095Y-141528523D01*
X176260095Y-141004714D01*
X177164857Y-141147571D02*
X176831523Y-141147571D01*
X176831523Y-141671380D02*
X176831523Y-140671380D01*
X177307714Y-140671380D01*
X158591333Y-141676380D02*
X158019904Y-141676380D01*
X158305619Y-141676380D02*
X158305619Y-140676380D01*
X158210380Y-140819238D01*
X158115142Y-140914476D01*
X158019904Y-140962095D01*
X159019904Y-141009714D02*
X159019904Y-142009714D01*
X159496095Y-141533523D02*
X159543714Y-141628761D01*
X159638952Y-141676380D01*
X159019904Y-141533523D02*
X159067523Y-141628761D01*
X159162761Y-141676380D01*
X159353238Y-141676380D01*
X159448476Y-141628761D01*
X159496095Y-141533523D01*
X159496095Y-141009714D01*
X160400857Y-141152571D02*
X160067523Y-141152571D01*
X160067523Y-141676380D02*
X160067523Y-140676380D01*
X160543714Y-140676380D01*
X164179333Y-141676380D02*
X163607904Y-141676380D01*
X163893619Y-141676380D02*
X163893619Y-140676380D01*
X163798380Y-140819238D01*
X163703142Y-140914476D01*
X163607904Y-140962095D01*
X164607904Y-141009714D02*
X164607904Y-142009714D01*
X165084095Y-141533523D02*
X165131714Y-141628761D01*
X165226952Y-141676380D01*
X164607904Y-141533523D02*
X164655523Y-141628761D01*
X164750761Y-141676380D01*
X164941238Y-141676380D01*
X165036476Y-141628761D01*
X165084095Y-141533523D01*
X165084095Y-141009714D01*
X165988857Y-141152571D02*
X165655523Y-141152571D01*
X165655523Y-141676380D02*
X165655523Y-140676380D01*
X166131714Y-140676380D01*
X153003333Y-141676380D02*
X152431904Y-141676380D01*
X152717619Y-141676380D02*
X152717619Y-140676380D01*
X152622380Y-140819238D01*
X152527142Y-140914476D01*
X152431904Y-140962095D01*
X153431904Y-141009714D02*
X153431904Y-142009714D01*
X153908095Y-141533523D02*
X153955714Y-141628761D01*
X154050952Y-141676380D01*
X153431904Y-141533523D02*
X153479523Y-141628761D01*
X153574761Y-141676380D01*
X153765238Y-141676380D01*
X153860476Y-141628761D01*
X153908095Y-141533523D01*
X153908095Y-141009714D01*
X154812857Y-141152571D02*
X154479523Y-141152571D01*
X154479523Y-141676380D02*
X154479523Y-140676380D01*
X154955714Y-140676380D01*
X147415333Y-141676380D02*
X146843904Y-141676380D01*
X147129619Y-141676380D02*
X147129619Y-140676380D01*
X147034380Y-140819238D01*
X146939142Y-140914476D01*
X146843904Y-140962095D01*
X147843904Y-141009714D02*
X147843904Y-142009714D01*
X148320095Y-141533523D02*
X148367714Y-141628761D01*
X148462952Y-141676380D01*
X147843904Y-141533523D02*
X147891523Y-141628761D01*
X147986761Y-141676380D01*
X148177238Y-141676380D01*
X148272476Y-141628761D01*
X148320095Y-141533523D01*
X148320095Y-141009714D01*
X149224857Y-141152571D02*
X148891523Y-141152571D01*
X148891523Y-141676380D02*
X148891523Y-140676380D01*
X149367714Y-140676380D01*
X235402380Y-99066952D02*
X234402380Y-99066952D01*
X234402380Y-98828857D01*
X234450000Y-98686000D01*
X234545238Y-98590761D01*
X234640476Y-98543142D01*
X234830952Y-98495523D01*
X234973809Y-98495523D01*
X235164285Y-98543142D01*
X235259523Y-98590761D01*
X235354761Y-98686000D01*
X235402380Y-98828857D01*
X235402380Y-99066952D01*
X235402380Y-98066952D02*
X234735714Y-98066952D01*
X234402380Y-98066952D02*
X234450000Y-98114571D01*
X234497619Y-98066952D01*
X234450000Y-98019333D01*
X234402380Y-98066952D01*
X234497619Y-98066952D01*
X234735714Y-97162190D02*
X235545238Y-97162190D01*
X235640476Y-97209809D01*
X235688095Y-97257428D01*
X235735714Y-97352666D01*
X235735714Y-97495523D01*
X235688095Y-97590761D01*
X235354761Y-97162190D02*
X235402380Y-97257428D01*
X235402380Y-97447904D01*
X235354761Y-97543142D01*
X235307142Y-97590761D01*
X235211904Y-97638380D01*
X234926190Y-97638380D01*
X234830952Y-97590761D01*
X234783333Y-97543142D01*
X234735714Y-97447904D01*
X234735714Y-97257428D01*
X234783333Y-97162190D01*
X235402380Y-96686000D02*
X234735714Y-96686000D01*
X234402380Y-96686000D02*
X234450000Y-96733619D01*
X234497619Y-96686000D01*
X234450000Y-96638380D01*
X234402380Y-96686000D01*
X234497619Y-96686000D01*
X234735714Y-96352666D02*
X234735714Y-95971714D01*
X234402380Y-96209809D02*
X235259523Y-96209809D01*
X235354761Y-96162190D01*
X235402380Y-96066952D01*
X235402380Y-95971714D01*
X235402380Y-95209809D02*
X234878571Y-95209809D01*
X234783333Y-95257428D01*
X234735714Y-95352666D01*
X234735714Y-95543142D01*
X234783333Y-95638380D01*
X235354761Y-95209809D02*
X235402380Y-95305047D01*
X235402380Y-95543142D01*
X235354761Y-95638380D01*
X235259523Y-95686000D01*
X235164285Y-95686000D01*
X235069047Y-95638380D01*
X235021428Y-95543142D01*
X235021428Y-95305047D01*
X234973809Y-95209809D01*
X235402380Y-94590761D02*
X235354761Y-94686000D01*
X235259523Y-94733619D01*
X234402380Y-94733619D01*
X235402380Y-93447904D02*
X234402380Y-93447904D01*
X234402380Y-93066952D01*
X234450000Y-92971714D01*
X234497619Y-92924095D01*
X234592857Y-92876476D01*
X234735714Y-92876476D01*
X234830952Y-92924095D01*
X234878571Y-92971714D01*
X234926190Y-93066952D01*
X234926190Y-93447904D01*
X235402380Y-92305047D02*
X235354761Y-92400285D01*
X235307142Y-92447904D01*
X235211904Y-92495523D01*
X234926190Y-92495523D01*
X234830952Y-92447904D01*
X234783333Y-92400285D01*
X234735714Y-92305047D01*
X234735714Y-92162190D01*
X234783333Y-92066952D01*
X234830952Y-92019333D01*
X234926190Y-91971714D01*
X235211904Y-91971714D01*
X235307142Y-92019333D01*
X235354761Y-92066952D01*
X235402380Y-92162190D01*
X235402380Y-92305047D01*
X234735714Y-91638380D02*
X235402380Y-91447904D01*
X234926190Y-91257428D01*
X235402380Y-91066952D01*
X234735714Y-90876476D01*
X235354761Y-90114571D02*
X235402380Y-90209809D01*
X235402380Y-90400285D01*
X235354761Y-90495523D01*
X235259523Y-90543142D01*
X234878571Y-90543142D01*
X234783333Y-90495523D01*
X234735714Y-90400285D01*
X234735714Y-90209809D01*
X234783333Y-90114571D01*
X234878571Y-90066952D01*
X234973809Y-90066952D01*
X235069047Y-90543142D01*
X235402380Y-89638380D02*
X234735714Y-89638380D01*
X234926190Y-89638380D02*
X234830952Y-89590761D01*
X234783333Y-89543142D01*
X234735714Y-89447904D01*
X234735714Y-89352666D01*
X235402380Y-88257428D02*
X234402380Y-88257428D01*
X235402380Y-87781238D02*
X234402380Y-87781238D01*
X235402380Y-87209809D01*
X234402380Y-87209809D01*
X234354761Y-86019333D02*
X235640476Y-86876476D01*
X234402380Y-85495523D02*
X234402380Y-85305047D01*
X234450000Y-85209809D01*
X234545238Y-85114571D01*
X234735714Y-85066952D01*
X235069047Y-85066952D01*
X235259523Y-85114571D01*
X235354761Y-85209809D01*
X235402380Y-85305047D01*
X235402380Y-85495523D01*
X235354761Y-85590761D01*
X235259523Y-85686000D01*
X235069047Y-85733619D01*
X234735714Y-85733619D01*
X234545238Y-85686000D01*
X234450000Y-85590761D01*
X234402380Y-85495523D01*
X234402380Y-84638380D02*
X235211904Y-84638380D01*
X235307142Y-84590761D01*
X235354761Y-84543142D01*
X235402380Y-84447904D01*
X235402380Y-84257428D01*
X235354761Y-84162190D01*
X235307142Y-84114571D01*
X235211904Y-84066952D01*
X234402380Y-84066952D01*
X234402380Y-83733619D02*
X234402380Y-83162190D01*
X235402380Y-83447904D02*
X234402380Y-83447904D01*
X180919523Y-95702380D02*
X180348095Y-95702380D01*
X180633809Y-95702380D02*
X180633809Y-94702380D01*
X180538571Y-94845238D01*
X180443333Y-94940476D01*
X180348095Y-94988095D01*
X181538571Y-94702380D02*
X181633809Y-94702380D01*
X181729047Y-94750000D01*
X181776666Y-94797619D01*
X181824285Y-94892857D01*
X181871904Y-95083333D01*
X181871904Y-95321428D01*
X181824285Y-95511904D01*
X181776666Y-95607142D01*
X181729047Y-95654761D01*
X181633809Y-95702380D01*
X181538571Y-95702380D01*
X181443333Y-95654761D01*
X181395714Y-95607142D01*
X181348095Y-95511904D01*
X181300476Y-95321428D01*
X181300476Y-95083333D01*
X181348095Y-94892857D01*
X181395714Y-94797619D01*
X181443333Y-94750000D01*
X181538571Y-94702380D01*
X182300476Y-95702380D02*
X182300476Y-94702380D01*
X182871904Y-95702380D02*
X182443333Y-95130952D01*
X182871904Y-94702380D02*
X182300476Y-95273809D01*
X163806285Y-129325714D02*
X163806285Y-129992380D01*
X163568190Y-128944761D02*
X163330095Y-129659047D01*
X163949142Y-129659047D01*
X164234857Y-128992380D02*
X164901523Y-128992380D01*
X164472952Y-129992380D01*
X165282476Y-129992380D02*
X165282476Y-128992380D01*
X165853904Y-129992380D02*
X165425333Y-129420952D01*
X165853904Y-128992380D02*
X165282476Y-129563809D01*
X115641523Y-96464380D02*
X115070095Y-96464380D01*
X115355809Y-96464380D02*
X115355809Y-95464380D01*
X115260571Y-95607238D01*
X115165333Y-95702476D01*
X115070095Y-95750095D01*
X116260571Y-95464380D02*
X116355809Y-95464380D01*
X116451047Y-95512000D01*
X116498666Y-95559619D01*
X116546285Y-95654857D01*
X116593904Y-95845333D01*
X116593904Y-96083428D01*
X116546285Y-96273904D01*
X116498666Y-96369142D01*
X116451047Y-96416761D01*
X116355809Y-96464380D01*
X116260571Y-96464380D01*
X116165333Y-96416761D01*
X116117714Y-96369142D01*
X116070095Y-96273904D01*
X116022476Y-96083428D01*
X116022476Y-95845333D01*
X116070095Y-95654857D01*
X116117714Y-95559619D01*
X116165333Y-95512000D01*
X116260571Y-95464380D01*
X117022476Y-96464380D02*
X117022476Y-95464380D01*
X117593904Y-96464380D02*
X117165333Y-95892952D01*
X117593904Y-95464380D02*
X117022476Y-96035809D01*
X137739523Y-96464380D02*
X137168095Y-96464380D01*
X137453809Y-96464380D02*
X137453809Y-95464380D01*
X137358571Y-95607238D01*
X137263333Y-95702476D01*
X137168095Y-95750095D01*
X138358571Y-95464380D02*
X138453809Y-95464380D01*
X138549047Y-95512000D01*
X138596666Y-95559619D01*
X138644285Y-95654857D01*
X138691904Y-95845333D01*
X138691904Y-96083428D01*
X138644285Y-96273904D01*
X138596666Y-96369142D01*
X138549047Y-96416761D01*
X138453809Y-96464380D01*
X138358571Y-96464380D01*
X138263333Y-96416761D01*
X138215714Y-96369142D01*
X138168095Y-96273904D01*
X138120476Y-96083428D01*
X138120476Y-95845333D01*
X138168095Y-95654857D01*
X138215714Y-95559619D01*
X138263333Y-95512000D01*
X138358571Y-95464380D01*
X139120476Y-96464380D02*
X139120476Y-95464380D01*
X139691904Y-96464380D02*
X139263333Y-95892952D01*
X139691904Y-95464380D02*
X139120476Y-96035809D01*
X86685523Y-94432380D02*
X86114095Y-94432380D01*
X86399809Y-94432380D02*
X86399809Y-93432380D01*
X86304571Y-93575238D01*
X86209333Y-93670476D01*
X86114095Y-93718095D01*
X87304571Y-93432380D02*
X87399809Y-93432380D01*
X87495047Y-93480000D01*
X87542666Y-93527619D01*
X87590285Y-93622857D01*
X87637904Y-93813333D01*
X87637904Y-94051428D01*
X87590285Y-94241904D01*
X87542666Y-94337142D01*
X87495047Y-94384761D01*
X87399809Y-94432380D01*
X87304571Y-94432380D01*
X87209333Y-94384761D01*
X87161714Y-94337142D01*
X87114095Y-94241904D01*
X87066476Y-94051428D01*
X87066476Y-93813333D01*
X87114095Y-93622857D01*
X87161714Y-93527619D01*
X87209333Y-93480000D01*
X87304571Y-93432380D01*
X88066476Y-94432380D02*
X88066476Y-93432380D01*
X88637904Y-94432380D02*
X88209333Y-93860952D01*
X88637904Y-93432380D02*
X88066476Y-94003809D01*
X159583523Y-96464380D02*
X159012095Y-96464380D01*
X159297809Y-96464380D02*
X159297809Y-95464380D01*
X159202571Y-95607238D01*
X159107333Y-95702476D01*
X159012095Y-95750095D01*
X160202571Y-95464380D02*
X160297809Y-95464380D01*
X160393047Y-95512000D01*
X160440666Y-95559619D01*
X160488285Y-95654857D01*
X160535904Y-95845333D01*
X160535904Y-96083428D01*
X160488285Y-96273904D01*
X160440666Y-96369142D01*
X160393047Y-96416761D01*
X160297809Y-96464380D01*
X160202571Y-96464380D01*
X160107333Y-96416761D01*
X160059714Y-96369142D01*
X160012095Y-96273904D01*
X159964476Y-96083428D01*
X159964476Y-95845333D01*
X160012095Y-95654857D01*
X160059714Y-95559619D01*
X160107333Y-95512000D01*
X160202571Y-95464380D01*
X160964476Y-96464380D02*
X160964476Y-95464380D01*
X161535904Y-96464380D02*
X161107333Y-95892952D01*
X161535904Y-95464380D02*
X160964476Y-96035809D01*
X220257714Y-134056380D02*
X219686285Y-134056380D01*
X219972000Y-134056380D02*
X219972000Y-133056380D01*
X219876761Y-133199238D01*
X219781523Y-133294476D01*
X219686285Y-133342095D01*
X220686285Y-134056380D02*
X220686285Y-133056380D01*
X221257714Y-134056380D02*
X220829142Y-133484952D01*
X221257714Y-133056380D02*
X220686285Y-133627809D01*
X175236285Y-129391714D02*
X175236285Y-130058380D01*
X174998190Y-129010761D02*
X174760095Y-129725047D01*
X175379142Y-129725047D01*
X175664857Y-129058380D02*
X176331523Y-129058380D01*
X175902952Y-130058380D01*
X176712476Y-130058380D02*
X176712476Y-129058380D01*
X177283904Y-130058380D02*
X176855333Y-129486952D01*
X177283904Y-129058380D02*
X176712476Y-129629809D01*
X220257714Y-131516380D02*
X219686285Y-131516380D01*
X219972000Y-131516380D02*
X219972000Y-130516380D01*
X219876761Y-130659238D01*
X219781523Y-130754476D01*
X219686285Y-130802095D01*
X220686285Y-131516380D02*
X220686285Y-130516380D01*
X221257714Y-131516380D02*
X220829142Y-130944952D01*
X221257714Y-130516380D02*
X220686285Y-131087809D01*
X169648285Y-129325714D02*
X169648285Y-129992380D01*
X169410190Y-128944761D02*
X169172095Y-129659047D01*
X169791142Y-129659047D01*
X170076857Y-128992380D02*
X170743523Y-128992380D01*
X170314952Y-129992380D01*
X171124476Y-129992380D02*
X171124476Y-128992380D01*
X171695904Y-129992380D02*
X171267333Y-129420952D01*
X171695904Y-128992380D02*
X171124476Y-129563809D01*
X220257714Y-128976380D02*
X219686285Y-128976380D01*
X219972000Y-128976380D02*
X219972000Y-127976380D01*
X219876761Y-128119238D01*
X219781523Y-128214476D01*
X219686285Y-128262095D01*
X220686285Y-128976380D02*
X220686285Y-127976380D01*
X221257714Y-128976380D02*
X220829142Y-128404952D01*
X221257714Y-127976380D02*
X220686285Y-128547809D01*
X220257714Y-126436380D02*
X219686285Y-126436380D01*
X219972000Y-126436380D02*
X219972000Y-125436380D01*
X219876761Y-125579238D01*
X219781523Y-125674476D01*
X219686285Y-125722095D01*
X220686285Y-126436380D02*
X220686285Y-125436380D01*
X221257714Y-126436380D02*
X220829142Y-125864952D01*
X221257714Y-125436380D02*
X220686285Y-126007809D01*
X158218285Y-129325714D02*
X158218285Y-129992380D01*
X157980190Y-128944761D02*
X157742095Y-129659047D01*
X158361142Y-129659047D01*
X158646857Y-128992380D02*
X159313523Y-128992380D01*
X158884952Y-129992380D01*
X159694476Y-129992380D02*
X159694476Y-128992380D01*
X160265904Y-129992380D02*
X159837333Y-129420952D01*
X160265904Y-128992380D02*
X159694476Y-129563809D01*
X215082380Y-113752285D02*
X215082380Y-114323714D01*
X215082380Y-114038000D02*
X214082380Y-114038000D01*
X214225238Y-114133238D01*
X214320476Y-114228476D01*
X214368095Y-114323714D01*
X215082380Y-113323714D02*
X214082380Y-113323714D01*
X215082380Y-112752285D02*
X214510952Y-113180857D01*
X214082380Y-112752285D02*
X214653809Y-113323714D01*
X152884285Y-129325714D02*
X152884285Y-129992380D01*
X152646190Y-128944761D02*
X152408095Y-129659047D01*
X153027142Y-129659047D01*
X153312857Y-128992380D02*
X153979523Y-128992380D01*
X153550952Y-129992380D01*
X154360476Y-129992380D02*
X154360476Y-128992380D01*
X154931904Y-129992380D02*
X154503333Y-129420952D01*
X154931904Y-128992380D02*
X154360476Y-129563809D01*
X213939523Y-95067380D02*
X213368095Y-95067380D01*
X213653809Y-95067380D02*
X213653809Y-94067380D01*
X213558571Y-94210238D01*
X213463333Y-94305476D01*
X213368095Y-94353095D01*
X214558571Y-94067380D02*
X214653809Y-94067380D01*
X214749047Y-94115000D01*
X214796666Y-94162619D01*
X214844285Y-94257857D01*
X214891904Y-94448333D01*
X214891904Y-94686428D01*
X214844285Y-94876904D01*
X214796666Y-94972142D01*
X214749047Y-95019761D01*
X214653809Y-95067380D01*
X214558571Y-95067380D01*
X214463333Y-95019761D01*
X214415714Y-94972142D01*
X214368095Y-94876904D01*
X214320476Y-94686428D01*
X214320476Y-94448333D01*
X214368095Y-94257857D01*
X214415714Y-94162619D01*
X214463333Y-94115000D01*
X214558571Y-94067380D01*
X215320476Y-95067380D02*
X215320476Y-94067380D01*
X215891904Y-95067380D02*
X215463333Y-94495952D01*
X215891904Y-94067380D02*
X215320476Y-94638809D01*
X212542380Y-111212285D02*
X212542380Y-111783714D01*
X212542380Y-111498000D02*
X211542380Y-111498000D01*
X211685238Y-111593238D01*
X211780476Y-111688476D01*
X211828095Y-111783714D01*
X212542380Y-110783714D02*
X211542380Y-110783714D01*
X212542380Y-110212285D02*
X211970952Y-110640857D01*
X211542380Y-110212285D02*
X212113809Y-110783714D01*
X147296285Y-129325714D02*
X147296285Y-129992380D01*
X147058190Y-128944761D02*
X146820095Y-129659047D01*
X147439142Y-129659047D01*
X147724857Y-128992380D02*
X148391523Y-128992380D01*
X147962952Y-129992380D01*
X148772476Y-129992380D02*
X148772476Y-128992380D01*
X149343904Y-129992380D02*
X148915333Y-129420952D01*
X149343904Y-128992380D02*
X148772476Y-129563809D01*
M02*
