<?xml version="1.0" standalone="no"?>
 <!DOCTYPE svg PUBLIC "-//W3C//DTD SVG 1.1//EN" 
 "http://www.w3.org/Graphics/SVG/1.1/DTD/svg11.dtd"> 
<svg xmlns="http://www.w3.org/2000/svg" version="1.1" 
    width="5.30352cm" height="1.2319cm" viewBox="0 0 20880 4850 ">
<title>SVG Picture created as 2PB with Headers-brd.svg date 2016/01/25 18:56:15 </title>
  <desc>Picture generated by PCBNEW </desc>
<g style="fill:#000000; fill-opacity:1;stroke:#000000; stroke-opacity:1;
stroke-linecap:round; stroke-linejoin:round; "
 transform="translate(0 0) scale(1 1)">
</g>
<g style="fill:#000000; fill-opacity:0.0; 
stroke:#000000; stroke-width:-0.000393701; stroke-opacity:1; 
stroke-linecap:round; stroke-linejoin:round;">
</g>
<g style="fill:#840084; fill-opacity:0.0; 
stroke:#840084; stroke-width:-0.000393701; stroke-opacity:1; 
stroke-linecap:round; stroke-linejoin:round;">
</g>
<g style="fill:#840084; fill-opacity:0.0; 
stroke:#840084; stroke-width:59.0551; stroke-opacity:1; 
stroke-linecap:round; stroke-linejoin:round;">
<path d="M18258 2636
L18258 636
" />
<path d="M18258 636
L19258 636
" />
<path d="M19258 636
L19258 2636
" />
<path d="M19369 3746
L19369 3136
" />
<path d="M19258 2636
L18258 2636
" />
<path d="M18148 3136
L18148 3746
" />
<path d="M18148 3746
L19369 3746
" />
</g>
<g style="fill:#008484; fill-opacity:0.0; 
stroke:#008484; stroke-width:59.0551; stroke-opacity:1; 
stroke-linecap:round; stroke-linejoin:round;">
</g>
<g style="fill:#008484; fill-opacity:0.0; 
stroke:#008484; stroke-width:30; stroke-opacity:1; 
stroke-linecap:round; stroke-linejoin:round;">
<path d="M12534 738
L12488 753
L12412 753
L12382 738
L12366 723
L12351 692
L12351 662
L12366 631
L12382 616
L12412 601
L12473 586
L12504 570
L12519 555
L12534 525
L12534 494
L12519 464
L12504 449
L12473 433
L12397 433
L12351 449
" />
<path d="M12244 433
L12168 753
L12107 525
L12046 753
L11970 433
" />
<path d="M11864 464
L11848 449
L11818 433
L11742 433
L11711 449
L11696 464
L11681 494
L11681 525
L11696 570
L11879 753
L11681 753
" />
</g>
<g style="fill:#840000; fill-opacity:0.0; 
stroke:#840000; stroke-width:30; stroke-opacity:1; 
stroke-linecap:round; stroke-linejoin:round;">
</g>
<g style="fill:#840000; fill-opacity:0.0; 
stroke:#840000; stroke-width:59.0551; stroke-opacity:1; 
stroke-linecap:round; stroke-linejoin:round;">
<path d="M17561 767
L17543 729
L17543 673
L17561 617
L17599 579
L17636 561
L17711 542
L17768 542
L17843 561
L17880 579
L17918 617
L17936 673
L17936 711
L17918 767
L17899 786
L17768 786
L17768 711
" />
<path d="M17936 954
L17543 954
L17936 1179
L17543 1179
" />
<path d="M17936 1367
L17543 1367
L17543 1461
L17561 1517
L17599 1554
L17636 1573
L17711 1592
L17768 1592
L17843 1573
L17880 1554
L17918 1517
L17936 1461
L17936 1367
" />
<path d="M17936 2061
L17543 2061
L17543 2211
L17561 2248
L17580 2267
L17618 2286
L17674 2286
L17711 2267
L17730 2248
L17749 2211
L17749 2061
" />
<path d="M17580 2435
L17561 2454
L17543 2492
L17543 2585
L17561 2623
L17580 2642
L17618 2660
L17655 2660
L17711 2642
L17936 2417
L17936 2660
" />
<path d="M17936 3129
L17543 3129
L17543 3279
L17561 3317
L17580 3335
L17618 3354
L17674 3354
L17711 3335
L17730 3317
L17749 3279
L17749 3129
" />
<path d="M17936 3729
L17936 3504
" />
<path d="M17936 3617
L17543 3617
L17599 3579
L17636 3542
L17655 3504
" />
</g>
<g style="fill:#008484; fill-opacity:0.0; 
stroke:#008484; stroke-width:59.0551; stroke-opacity:1; 
stroke-linecap:round; stroke-linejoin:round;">
</g>
<g style="fill:#008484; fill-opacity:0.0; 
stroke:#008484; stroke-width:30; stroke-opacity:1; 
stroke-linecap:round; stroke-linejoin:round;">
<path d="M7135 725
L7089 740
L7013 740
L6983 725
L6967 710
L6952 679
L6952 649
L6967 618
L6983 603
L7013 588
L7074 573
L7105 557
L7120 542
L7135 512
L7135 481
L7120 451
L7105 436
L7074 420
L6998 420
L6952 436
" />
<path d="M6845 420
L6769 740
L6708 512
L6647 740
L6571 420
" />
<path d="M6282 740
L6465 740
" />
<path d="M6373 740
L6373 420
L6404 466
L6434 496
L6465 512
" />
</g>
<g style="fill:#000000; fill-opacity:0.0; 
stroke:#000000; stroke-width:30; stroke-opacity:1; 
stroke-linecap:round; stroke-linejoin:round;">
</g>
<g style="fill:#008400; fill-opacity:0.0; 
stroke:#008400; stroke-width:30; stroke-opacity:1; 
stroke-linecap:round; stroke-linejoin:round;">
</g>
<g style="fill:#008400; fill-opacity:0.0; 
stroke:#008400; stroke-width:39.3701; stroke-opacity:1; 
stroke-linecap:round; stroke-linejoin:round;">
<path d="M4205 4014
L4205 3620
L4055 3620
L4018 3639
L3999 3657
L3980 3695
L3980 3751
L3999 3789
L4018 3807
L4055 3826
L4205 3826
" />
<path d="M3680 3807
L3624 3826
L3605 3845
L3586 3882
L3586 3939
L3605 3976
L3624 3995
L3661 4014
L3811 4014
L3811 3620
L3680 3620
L3643 3639
L3624 3657
L3605 3695
L3605 3732
L3624 3770
L3643 3789
L3680 3807
L3811 3807
" />
<path d="M3455 4014
L3249 3751
" />
<path d="M3455 3751
L3249 4014
" />
<path d="M3118 3657
L3099 3639
L3062 3620
L2968 3620
L2930 3639
L2912 3657
L2893 3695
L2893 3732
L2912 3789
L3137 4014
L2893 4014
" />
</g>
<g style="fill:#840000; fill-opacity:0.0; 
stroke:#840000; stroke-width:39.3701; stroke-opacity:1; 
stroke-linecap:round; stroke-linejoin:round;">
</g>
<g style="fill:#840000; fill-opacity:0.0; 
stroke:#840000; stroke-width:0; stroke-opacity:1; 
stroke-linecap:round; stroke-linejoin:round;">
</g>
<g style="fill:#840000; fill-opacity:1.0; 
stroke:#840000; stroke-width:0; stroke-opacity:1; 
stroke-linecap:round; stroke-linejoin:round;">
<polyline style="fill-rule:evenodd;"
points="10457,1589
10457,849
11197,849
11197,1589
10457,1589
" /> 
<polyline style="fill-rule:evenodd;"
points="13017,1589
13017,849
13757,849
13757,1589
13017,1589
" /> 
<polyline style="fill-rule:evenodd;"
points="10457,3369
10457,2629
11197,2629
11197,3369
10457,3369
" /> 
<polyline style="fill-rule:evenodd;"
points="13017,3369
13017,2629
13757,2629
13757,3369
13017,3369
" /> 
<polyline style="fill-rule:evenodd;"
points="18358,3476
18358,2796
19158,2796
19158,3476
18358,3476
" /> 
</g>
<g style="fill:#840000; fill-opacity:1.0; 
stroke:#840000; stroke-width:680; stroke-opacity:1; 
stroke-linecap:round; stroke-linejoin:round;">
</g>
<g style="fill:#840000; fill-opacity:0.0; 
stroke:#840000; stroke-width:680; stroke-opacity:1; 
stroke-linecap:round; stroke-linejoin:round;">
<path d="M18698 2136
L18818 2136
" />
<path d="M18698 1136
L18818 1136
" />
</g>
<g style="fill:#840000; fill-opacity:0.0; 
stroke:#840000; stroke-width:0; stroke-opacity:1; 
stroke-linecap:round; stroke-linejoin:round;">
</g>
<g style="fill:#840000; fill-opacity:1.0; 
stroke:#840000; stroke-width:0; stroke-opacity:1; 
stroke-linecap:round; stroke-linejoin:round;">
<polyline style="fill-rule:evenodd;"
points="5058,1576
5058,836
5798,836
5798,1576
5058,1576
" /> 
<polyline style="fill-rule:evenodd;"
points="7618,1576
7618,836
8358,836
8358,1576
7618,1576
" /> 
<polyline style="fill-rule:evenodd;"
points="5058,3356
5058,2616
5798,2616
5798,3356
5058,3356
" /> 
<polyline style="fill-rule:evenodd;"
points="7618,3356
7618,2616
8358,2616
8358,3356
7618,3356
" /> 
</g>
<g style="fill:#008400; fill-opacity:1.0; 
stroke:#008400; stroke-width:0; stroke-opacity:1; 
stroke-linecap:round; stroke-linejoin:round;">
</g>
<g style="fill:#008400; fill-opacity:1.0; 
stroke:#008400; stroke-width:354.331; stroke-opacity:1; 
stroke-linecap:round; stroke-linejoin:round;">
</g>
<g style="fill:#008400; fill-opacity:0.0; 
stroke:#008400; stroke-width:354.331; stroke-opacity:1; 
stroke-linecap:round; stroke-linejoin:round;">
<path d="M18758 3136
L17658 3136
" />
<path d="M9238 4236
L7988 2986
" />
<path d="M16558 4236
L9238 4236
" />
<path d="M17658 3136
L16558 4236
" />
<path d="M5428 2986
L7988 2986
" />
<path d="M13387 2999
L13387 3065
" />
<path d="M13387 3065
L13958 3636
" />
<path d="M17858 2136
L18758 2136
" />
<path d="M16358 3636
L17858 2136
" />
<path d="M13958 3636
L16358 3636
" />
<path d="M10827 2999
L13387 2999
" />
</g>
<g style="fill:#008400; fill-opacity:1.0; 
stroke:#008400; stroke-width:59.0551; stroke-opacity:1; 
stroke-linecap:round; stroke-linejoin:round;">
<polyline style="fill-rule:evenodd;"
points="19399,2131
19357,1918
19233,1733
19049,1609
18831,1566
18686,1566
18468,1609
18289,1729
17858,1729
17703,1760
17571,1848
16190,3229
14127,3229
13991,3093
13991,2629
13974,2539
13923,2463
13847,2412
13757,2394
13017,2394
12928,2412
12852,2463
12801,2539
12791,2592
11424,2592
11414,2539
11363,2463
11287,2412
11197,2394
10457,2394
10368,2412
10292,2463
10241,2539
10223,2629
10223,3369
10241,3458
10292,3534
10368,3585
10457,3603
11197,3603
11287,3585
11363,3534
11414,3458
11424,3405
12791,3405
12801,3458
12852,3534
12928,3585
13017,3603
13350,3603
13577,3829
9407,3829
8592,3014
8592,2616
8575,2526
8524,2450
8448,2399
8358,2381
7618,2381
7529,2399
7453,2450
7402,2526
7392,2579
6025,2579
6015,2526
5964,2450
5888,2399
5798,2381
5058,2381
4969,2399
4893,2450
4842,2526
4824,2616
4824,3356
4842,3445
4893,3521
4969,3572
5058,3590
5798,3590
5888,3572
5964,3521
6015,3445
6025,3392
7392,3392
7402,3445
7453,3521
7529,3572
7618,3590
8017,3590
8904,4476
2317,4476
2317,3271
2569,3271
2569,4360
4548,4360
4548,3271
2569,3271
2317,3271
2317,2286
2697,2286
2813,2566
3027,2780
3306,2896
3609,2897
3889,2781
4103,2567
4219,2288
4219,2286
14897,2286
15013,2566
15227,2780
15506,2896
15809,2897
16089,2781
16303,2567
16419,2288
16419,1985
16304,1705
16090,1491
15810,1375
15508,1374
15228,1490
15014,1704
14897,1983
14897,2286
4219,2286
4219,1985
4104,1705
3890,1491
3610,1375
3308,1374
3028,1490
2814,1704
2697,1983
2697,2286
2317,2286
2317,1294
4986,1294
4986,1590
4997,1616
5018,1637
5044,1648
5340,1648
5358,1630
5358,1276
5499,1276
5499,1630
5517,1648
5813,1648
5839,1637
5859,1616
5870,1590
5870,1294
7546,1294
7546,1590
7557,1616
7578,1637
7604,1648
7900,1648
7918,1630
7918,1276
8059,1276
8059,1630
8077,1648
8373,1648
8399,1637
8419,1616
8430,1590
8430,1307
10385,1307
10385,1603
10396,1629
10417,1650
10443,1661
10739,1661
10757,1643
10757,1289
10898,1289
10898,1643
10916,1661
11212,1661
11238,1650
11258,1629
11269,1603
11269,1307
12945,1307
12945,1603
12956,1629
12977,1650
13003,1661
13299,1661
13317,1643
13317,1289
13458,1289
13458,1643
13476,1661
13772,1661
13798,1650
13818,1629
13829,1603
13829,1307
13811,1289
13458,1289
13317,1289
12963,1289
12945,1307
11269,1307
11251,1289
10898,1289
10757,1289
10403,1289
10385,1307
8430,1307
8430,1294
8412,1276
8059,1276
7918,1276
7564,1276
7546,1294
5870,1294
5852,1276
5499,1276
5358,1276
5004,1276
4986,1294
2317,1294
2317,1269
18308,1269
18360,1369
18475,1481
18624,1540
18688,1529
18688,1206
18829,1206
18829,1529
18893,1540
19042,1481
19157,1369
19208,1269
19206,1206
18829,1206
18688,1206
18311,1206
18308,1269
2317,1269
2317,821
4986,821
4986,1117
5004,1135
5358,1135
5358,781
5499,781
5499,1135
5852,1135
5870,1117
5870,821
7546,821
7546,1117
7564,1135
7918,1135
7918,781
8059,781
8059,1135
8412,1135
8430,1117
8430,834
10385,834
10385,1130
10403,1148
10757,1148
10757,794
10898,794
10898,1148
11251,1148
11269,1130
11269,834
12945,834
12945,1130
12963,1148
13317,1148
13317,794
13458,794
13458,1148
13811,1148
13829,1130
13829,1002
18308,1002
18311,1065
18688,1065
18688,742
18829,742
18829,1065
19206,1065
19208,1002
19157,902
19042,790
18893,731
18829,742
18688,742
18624,731
18475,790
18360,902
18308,1002
13829,1002
13829,834
13818,808
13798,787
13772,776
13476,776
13458,794
13317,794
13299,776
13003,776
12977,787
12956,808
12945,834
11269,834
11258,808
11238,787
11212,776
10916,776
10898,794
10757,794
10739,776
10443,776
10417,787
10396,808
10385,834
8430,834
8430,821
8419,795
8399,774
8373,763
8077,763
8059,781
7918,781
7900,763
7604,763
7578,774
7557,795
7546,821
5870,821
5859,795
5839,774
5813,763
5517,763
5499,781
5358,781
5340,763
5044,763
5018,774
4997,795
4986,821
2317,821
2317,495
19399,495
19399,2131
" /> 
</g>
<g style="fill:#FFFFFF; fill-opacity:1.0; 
stroke:#FFFFFF; stroke-width:59.0551; stroke-opacity:1; 
stroke-linecap:round; stroke-linejoin:round;">
</g>
<g style="fill:#FFFFFF; fill-opacity:1.0; 
stroke:#FFFFFF; stroke-width:400; stroke-opacity:1; 
stroke-linecap:round; stroke-linejoin:round;">
</g>
<g style="fill:#FFFFFF; fill-opacity:0.0; 
stroke:#FFFFFF; stroke-width:400; stroke-opacity:1; 
stroke-linecap:round; stroke-linejoin:round;">
<path d="M10827 1139
L10827 1299
" />
<path d="M13387 1139
L13387 1299
" />
<path d="M10827 2919
L10827 3079
" />
<path d="M13387 2919
L13387 3079
" />
</g>
<g style="fill:#FFFFFF; fill-opacity:1.0; 
stroke:#FFFFFF; stroke-width:0; stroke-opacity:1; 
stroke-linecap:round; stroke-linejoin:round;">
<circle cx="18758.8" cy="3136.02" r="200" /> 
</g>
<g style="fill:#FFFFFF; fill-opacity:1.0; 
stroke:#FFFFFF; stroke-width:19.685; stroke-opacity:1; 
stroke-linecap:round; stroke-linejoin:round;">
</g>
<g style="fill:#FFFFFF; fill-opacity:1.0; 
stroke:#FFFFFF; stroke-width:0; stroke-opacity:1; 
stroke-linecap:round; stroke-linejoin:round;">
<circle cx="18758.8" cy="2136.02" r="200" /> 
</g>
<g style="fill:#FFFFFF; fill-opacity:1.0; 
stroke:#FFFFFF; stroke-width:19.685; stroke-opacity:1; 
stroke-linecap:round; stroke-linejoin:round;">
</g>
<g style="fill:#FFFFFF; fill-opacity:1.0; 
stroke:#FFFFFF; stroke-width:0; stroke-opacity:1; 
stroke-linecap:round; stroke-linejoin:round;">
<circle cx="18758.8" cy="1136.02" r="200" /> 
</g>
<g style="fill:#FFFFFF; fill-opacity:1.0; 
stroke:#FFFFFF; stroke-width:19.685; stroke-opacity:1; 
stroke-linecap:round; stroke-linejoin:round;">
</g>
<g style="fill:#FFFFFF; fill-opacity:1.0; 
stroke:#FFFFFF; stroke-width:400; stroke-opacity:1; 
stroke-linecap:round; stroke-linejoin:round;">
</g>
<g style="fill:#FFFFFF; fill-opacity:0.0; 
stroke:#FFFFFF; stroke-width:400; stroke-opacity:1; 
stroke-linecap:round; stroke-linejoin:round;">
<path d="M5428 1126
L5428 1286
" />
<path d="M7988 1126
L7988 1286
" />
<path d="M5428 2906
L5428 3066
" />
<path d="M7988 2906
L7988 3066
" />
</g>
<g style="fill:#FFFFFF; fill-opacity:1.0; 
stroke:#FFFFFF; stroke-width:0; stroke-opacity:1; 
stroke-linecap:round; stroke-linejoin:round;">
<circle cx="15658.8" cy="2136.02" r="531.496" /> 
</g>
<g style="fill:#FFFFFF; fill-opacity:1.0; 
stroke:#FFFFFF; stroke-width:19.685; stroke-opacity:1; 
stroke-linecap:round; stroke-linejoin:round;">
</g>
<g style="fill:#FFFFFF; fill-opacity:1.0; 
stroke:#FFFFFF; stroke-width:0; stroke-opacity:1; 
stroke-linecap:round; stroke-linejoin:round;">
<circle cx="3458.84" cy="2136.02" r="531.496" /> 
</g>
<g style="fill:#FFFFFF; fill-opacity:1.0; 
stroke:#FFFFFF; stroke-width:19.685; stroke-opacity:1; 
stroke-linecap:round; stroke-linejoin:round;">
</g>
<g style="fill:#000000; fill-opacity:1.0; 
stroke:#000000; stroke-width:19.685; stroke-opacity:1; 
stroke-linecap:round; stroke-linejoin:round;">
</g>
<g style="fill:#008484; fill-opacity:1.0; 
stroke:#008484; stroke-width:19.685; stroke-opacity:1; 
stroke-linecap:round; stroke-linejoin:round;">
</g>
<g style="fill:#008484; fill-opacity:1.0; 
stroke:#008484; stroke-width:50; stroke-opacity:1; 
stroke-linecap:round; stroke-linejoin:round;">
</g>
<g style="fill:#008484; fill-opacity:0.0; 
stroke:#008484; stroke-width:50; stroke-opacity:1; 
stroke-linecap:round; stroke-linejoin:round;">
<path d="M11107 1909
L11257 2259
" />
<path d="M11107 2609
L11107 2309
" />
<path d="M11107 1609
L11107 1909
" />
<path d="M11107 909
L13107 909
" />
<path d="M13107 909
L13307 1109
" />
<path d="M13307 1109
L13307 3109
" />
<path d="M13307 3109
L13107 3309
" />
<path d="M13107 3309
L11107 3309
" />
<path d="M11107 3309
L10907 3109
" />
<path d="M10907 3109
L10907 1109
" />
<path d="M10907 1109
L11107 909
" />
<circle cx="12107.8" cy="2109.02" r="700" /> 
<path d="M5708 1896
L5858 2246
" />
<path d="M5708 2596
L5708 2296
" />
<path d="M5708 1596
L5708 1896
" />
<path d="M5708 896
L7708 896
" />
<path d="M7708 896
L7908 1096
" />
<path d="M7908 1096
L7908 3096
" />
<path d="M7908 3096
L7708 3296
" />
<path d="M7708 3296
L5708 3296
" />
<path d="M5708 3296
L5508 3096
" />
<path d="M5508 3096
L5508 1096
" />
<path d="M5508 1096
L5708 896
" />
<circle cx="6708.84" cy="2096.02" r="700" /> 
</g>
<g style="fill:#000000; fill-opacity:0.0; 
stroke:#000000; stroke-width:50; stroke-opacity:1; 
stroke-linecap:round; stroke-linejoin:round;">
</g>
<g style="fill:#C2C200; fill-opacity:0.0; 
stroke:#C2C200; stroke-width:50; stroke-opacity:1; 
stroke-linecap:round; stroke-linejoin:round;">
</g>
<g style="fill:#C2C200; fill-opacity:0.0; 
stroke:#C2C200; stroke-width:59.0551; stroke-opacity:1; 
stroke-linecap:round; stroke-linejoin:round;">
<path d="M2058 4736
L12758 4736
" />
<path d="M2058 236
L2058 4736
" />
<path d="M19658 236
L2058 236
" />
<path d="M19658 4736
L19658 236
" />
<path d="M12758 4736
L19658 4736
" />
</g> 
</svg>
