<?xml version="1.0" standalone="no"?>
 <!DOCTYPE svg PUBLIC "-//W3C//DTD SVG 1.1//EN" 
 "http://www.w3.org/Graphics/SVG/1.1/DTD/svg11.dtd"> 
<svg xmlns="http://www.w3.org/2000/svg" version="1.1" 
    width="29.7002cm" height="21.0007cm" viewBox="0 0 116930 82680 ">
<title>SVG Picture created as 2PB with Headers.sch.svg date 2016/01/25 19:35:37 </title>
  <desc>Picture generated by Eeschema-SVG </desc>
<g style="fill:#000000; fill-opacity:1;stroke:#000000; stroke-opacity:1;
stroke-linecap:round; stroke-linejoin:round; "
 transform="translate(0 0) scale(1 1)">
</g>
<g style="fill:#000000; fill-opacity:0.0; 
stroke:#000000; stroke-width:0; stroke-opacity:1; 
stroke-linecap:round; stroke-linejoin:round;">
</g>
<g style="fill:#000000; fill-opacity:0.0; 
stroke:#000000; stroke-width:10; stroke-opacity:1; 
stroke-linecap:round; stroke-linejoin:round;">
<rect x="40000" y="31200" width="100" height="3400" rx="0" />
<polyline fill="none;"
points="40000,33300
39700,33200
39700,32600
40000,32500
" /> 
<circle cx="40600" cy="34150" r="250" /> 
<path d="M40600 34400
L40600 35900
" />
<circle cx="40600" cy="31650" r="250" /> 
<path d="M40600 31400
L40600 29900
" />
<path d="M38100 33190
L38170 33220
L38290 33220
L38330 33190
L38360 33170
L38380 33120
L38380 33070
L38360 33030
L38330 33000
L38290 32980
L38190 32950
L38140 32930
L38120 32910
L38100 32860
L38100 32810
L38120 32760
L38140 32740
L38190 32720
L38310 32720
L38380 32740
" />
<path d="M38550 32720
L38670 33220
L38770 32860
L38860 33220
L38980 32720
" />
<path d="M39430 33220
L39150 33220
" />
<path d="M39290 33220
L39290 32720
L39240 32790
L39190 32840
L39150 32860
" />
</g>
<g style="fill:#000000; fill-opacity:0.0; 
stroke:#000000; stroke-width:0; stroke-opacity:1; 
stroke-linecap:round; stroke-linejoin:round;">
</g>
<g style="fill:#000000; fill-opacity:0.0; 
stroke:#000000; stroke-width:10; stroke-opacity:1; 
stroke-linecap:round; stroke-linejoin:round;">
<rect x="44700" y="31200" width="100" height="3400" rx="0" />
<polyline fill="none;"
points="44700,33300
44400,33200
44400,32600
44700,32500
" /> 
<circle cx="45300" cy="34150" r="250" /> 
<path d="M45300 34400
L45300 35900
" />
<circle cx="45300" cy="31650" r="250" /> 
<path d="M45300 31400
L45300 29900
" />
<path d="M42730 33090
L42800 33120
L42920 33120
L42960 33090
L42990 33070
L43010 33020
L43010 32970
L42990 32930
L42960 32900
L42920 32880
L42820 32850
L42770 32830
L42750 32810
L42730 32760
L42730 32710
L42750 32660
L42770 32640
L42820 32620
L42940 32620
L43010 32640
" />
<path d="M43180 32620
L43300 33120
L43400 32760
L43490 33120
L43610 32620
" />
<path d="M43780 32660
L43800 32640
L43850 32620
L43970 32620
L44010 32640
L44040 32660
L44060 32710
L44060 32760
L44040 32830
L43750 33120
L44060 33120
" />
</g>
<g style="fill:#000000; fill-opacity:0.0; 
stroke:#000000; stroke-width:0; stroke-opacity:1; 
stroke-linecap:round; stroke-linejoin:round;">
</g>
<g style="fill:#000000; fill-opacity:0.0; 
stroke:#000000; stroke-width:10; stroke-opacity:1; 
stroke-linecap:round; stroke-linejoin:round;">
<rect x="49000" y="34050" width="600" height="100" rx="0" />
<rect x="49000" y="33050" width="600" height="100" rx="0" />
<rect x="49000" y="32050" width="600" height="100" rx="0" />
<rect x="49000" y="31600" width="1000" height="3000" rx="0" />
<path d="M49000 32100
L47500 32100
" />
<path d="M48390 31980
L48110 31980
" />
<path d="M48250 31980
L48250 31480
L48200 31550
L48150 31600
L48110 31620
" />
<path d="M49000 33100
L47500 33100
" />
<path d="M48110 32520
L48130 32500
L48180 32480
L48300 32480
L48340 32500
L48370 32520
L48390 32570
L48390 32620
L48370 32690
L48080 32980
L48390 32980
" />
<path d="M49000 34100
L47500 34100
" />
<path d="M48080 33480
L48390 33480
L48220 33670
L48300 33670
L48340 33690
L48370 33710
L48390 33760
L48390 33880
L48370 33930
L48340 33950
L48300 33980
L48150 33980
L48110 33950
L48080 33930
" />
<path d="M50400 33410
L50400 32910
L50590 32910
L50640 32930
L50660 32950
L50680 33000
L50680 33070
L50660 33120
L50640 33140
L50590 33170
L50400 33170
" />
<path d="M51160 33410
L50880 33410
" />
<path d="M51020 33410
L51020 32910
L50970 32980
L50920 33030
L50880 33050
" />
</g>
<g style="fill:#000000; fill-opacity:0.0; 
stroke:#000000; stroke-width:0; stroke-opacity:1; 
stroke-linecap:round; stroke-linejoin:round;">
</g>
<g style="fill:#000000; fill-opacity:0.0; 
stroke:#000000; stroke-width:10; stroke-opacity:1; 
stroke-linecap:round; stroke-linejoin:round;">
<polyline fill="none;"
points="47500,35900
47500,36400
48000,36400
47500,36900
47000,36400
47500,36400
" /> 
<path d="M47200 37390
L47150 37370
L47080 37370
L47010 37390
L46960 37440
L46940 37490
L46920 37580
L46920 37650
L46940 37750
L46960 37790
L47010 37840
L47080 37870
L47130 37870
L47200 37840
L47220 37820
L47220 37650
L47130 37650
" />
<path d="M47440 37870
L47440 37370
L47720 37870
L47720 37370
" />
<path d="M47960 37870
L47960 37370
L48080 37370
L48150 37390
L48200 37440
L48220 37490
L48240 37580
L48240 37650
L48220 37750
L48200 37790
L48150 37840
L48080 37870
L47960 37870
" />
<path d="M40600 35900
L47500 35900
" />
</g>
<g style="fill:#000000; fill-opacity:0.0; 
stroke:#000000; stroke-width:0; stroke-opacity:1; 
stroke-linecap:round; stroke-linejoin:round;">
</g>
<g style="fill:#000000; fill-opacity:1.0; 
stroke:#000000; stroke-width:100; stroke-opacity:1; 
stroke-linecap:round; stroke-linejoin:round;">
<circle cx="45300" cy="35900" r="200" /> 
</g>
<g style="fill:#000000; fill-opacity:1.0; 
stroke:#000000; stroke-width:10; stroke-opacity:1; 
stroke-linecap:round; stroke-linejoin:round;">
</g>
<g style="fill:#000000; fill-opacity:0.0; 
stroke:#000000; stroke-width:10; stroke-opacity:1; 
stroke-linecap:round; stroke-linejoin:round;">
<path d="M47500 35900
L47500 34100
" />
<path d="M47500 33100
L46900 33100
" />
<path d="M46900 33100
L46900 29900
" />
<path d="M46900 29900
L45300 29900
" />
<path d="M47500 29600
L47500 32100
" />
<path d="M47500 29600
L40600 29600
" />
<path d="M40600 29600
L40600 29900
" />
</g> 
</svg>
