 0
SECTION
 2
ENTITIES
  0
LINE
 8
Layer0
10
319.685442055988
20
-101.9196948266
30
0.0
11
319.708284387649
21
-102.310606593606
31
0.0
  0
LINE
 8
Layer0
10
319.708284387649
20
-102.310606593606
30
0.0
11
319.831523795988
21
-102.682286334689
31
0.0
  0
LINE
 8
Layer0
10
319.831523795988
20
-102.682286334689
30
0.0
11
320.046761718991
21
-103.009404689724
31
0.0
  0
LINE
 8
Layer0
10
320.046761718991
20
-103.009404689724
30
0.0
11
320.339330047902
21
-103.269669083403
31
0.0
  0
LINE
 8
Layer0
10
320.048893346616
20
-114.126629890384
30
0.0
11
314.570040952708
21
-112.223428260032
31
0.0
  0
LINE
 8
Layer0
10
321.952094976967
20
-108.647777496476
30
0.0
11
320.048893346616
21
-114.126629890384
31
0.0
  0
LINE
 8
Layer0
10
316.47324258306
20
-106.744575866124
30
0.0
11
321.952094976967
21
-108.647777496476
31
0.0
  0
LINE
 8
Layer0
10
6.48561829843747
20
166.239407712355
30
0.0
11
-59.2076517699118
21
-22.8754628497636
31
0.0
  0
LINE
 8
Layer0
10
-59.2076517699118
20
-22.8754628497636
30
0.0
11
318.833163409708
21
-154.196375344036
31
0.0
  0
LINE
 8
Layer0
10
318.833163409708
20
-154.196375344036
30
0.0
11
384.526433478057
21
34.9184952180824
31
0.0
  0
LINE
 8
Layer0
10
384.526433478057
20
34.9184952180824
30
0.0
11
6.48561829843747
21
166.239407712355
31
0.0
  0
LINE
 8
Layer0
10
108.924150236559
20
-40.7877394794145
30
0.0
11
110.82735186691
21
-35.308887085507
31
0.0
  0
LINE
 8
Layer0
10
114.403002630466
20
-42.6909411097663
30
0.0
11
108.924150236559
21
-40.7877394794145
31
0.0
  0
LINE
 8
Layer0
10
116.306204260818
20
-37.2120887158588
30
0.0
11
114.403002630466
21
-42.6909411097663
31
0.0
  0
LINE
 8
Layer0
10
114.765010412466
20
-23.9733304084569
30
0.0
11
120.243862806373
21
-25.8765320388087
31
0.0
  0
LINE
 8
Layer0
10
120.243862806373
20
-25.8765320388087
30
0.0
11
122.147064436725
21
-20.3976796449012
31
0.0
  0
LINE
 8
Layer0
10
122.147064436725
20
-20.3976796449012
30
0.0
11
116.668212042818
21
-18.4944780145494
31
0.0
  0
LINE
 8
Layer0
10
116.668212042818
20
-18.4944780145494
30
0.0
11
114.765010412466
21
-23.9733304084569
31
0.0
  0
LINE
 8
Layer0
10
143.673986901085
20
59.2485481955524
30
0.0
11
149.152839294992
21
57.3453465652006
31
0.0
  0
LINE
 8
Layer0
10
141.770785270733
20
53.7696958016449
30
0.0
11
143.673986901085
21
59.2485481955524
31
0.0
  0
LINE
 8
Layer0
10
147.249637664641
20
51.8664941712931
30
0.0
11
141.770785270733
21
53.7696958016449
31
0.0
  0
LINE
 8
Layer0
10
149.152839294992
20
57.3453465652006
30
0.0
11
147.249637664641
21
51.8664941712931
31
0.0
  0
LINE
 8
Layer0
10
153.090497840548
20
68.6809032422506
30
0.0
11
147.61164544664
21
70.5841048726025
31
0.0
  0
LINE
 8
Layer0
10
154.9936994709
20
74.1597556361582
30
0.0
11
153.090497840548
21
68.6809032422506
31
0.0
  0
LINE
 8
Layer0
10
149.514847076992
20
76.06295726651
30
0.0
11
154.9936994709
21
74.1597556361582
31
0.0
  0
LINE
 8
Layer0
10
147.61164544664
20
70.5841048726025
30
0.0
11
149.514847076992
21
76.06295726651
31
0.0
  0
LINE
 8
Layer0
10
149.844542467175
20
64.2989089443771
30
0.0
11
149.708222816367
21
64.6659930416938
31
0.0
  0
LINE
 8
Layer0
10
149.708222816367
20
64.6659930416938
30
0.0
11
149.481539789482
21
64.9852869298613
31
0.0
  0
LINE
 8
Layer0
10
149.481539789482
20
64.9852869298613
30
0.0
11
149.179941460189
21
65.2350312580591
31
0.0
  0
LINE
 8
Layer0
10
149.179941460189
20
65.2350312580591
30
0.0
11
148.823981256215
21
65.3982063630424
31
0.0
  0
LINE
 8
Layer0
10
148.823981256215
20
65.3982063630424
30
0.0
11
148.43791727721
21
65.4636921310663
31
0.0
  0
LINE
 8
Layer0
10
148.43791727721
20
65.4636921310663
30
0.0
11
148.048059145341
21
65.4270258152603
31
0.0
  0
LINE
 8
Layer0
10
148.048059145341
20
65.4270258152603
30
0.0
11
147.680975048024
21
65.2907061644526
31
0.0
  0
LINE
 8
Layer0
10
147.680975048024
20
65.2907061644526
30
0.0
11
147.361681159857
21
65.0640231375669
31
0.0
  0
LINE
 8
Layer0
10
147.361681159857
20
65.0640231375669
30
0.0
11
147.111936831659
21
64.762424808274
31
0.0
  0
LINE
 8
Layer0
10
147.111936831659
20
64.762424808274
30
0.0
11
146.948761726676
21
64.4064646043005
31
0.0
  0
LINE
 8
Layer0
10
146.948761726676
20
64.4064646043005
30
0.0
11
146.883275958652
21
64.0204006252951
31
0.0
  0
LINE
 8
Layer0
10
320.339330047902
20
-103.269669083403
30
0.0
11
320.689290734597
21
-103.445342927407
31
0.0
  0
LINE
 8
Layer0
10
320.689290734597
20
-103.445342927407
30
0.0
11
321.072794536616
21
-103.524454339579
31
0.0
  0
LINE
 8
Layer0
10
321.072794536616
20
-103.524454339579
30
0.0
11
321.463706303622
21
-103.501612007918
31
0.0
  0
LINE
 8
Layer0
10
321.463706303622
20
-103.501612007918
30
0.0
11
321.835386044705
21
-103.378372599579
31
0.0
  0
LINE
 8
Layer0
10
321.835386044705
20
-103.378372599579
30
0.0
11
322.16250439974
21
-103.163134676576
31
0.0
  0
LINE
 8
Layer0
10
322.16250439974
20
-103.163134676576
30
0.0
11
322.42276879342
21
-102.870566347665
31
0.0
  0
LINE
 8
Layer0
10
322.42276879342
20
-102.870566347665
30
0.0
11
322.598442637423
21
-102.52060566097
31
0.0
  0
LINE
 8
Layer0
10
322.598442637423
20
-102.52060566097
30
0.0
11
322.677554049595
21
-102.13710185895
31
0.0
  0
LINE
 8
Layer0
10
322.677554049595
20
-102.13710185895
30
0.0
11
322.654711717934
21
-101.746190091945
31
0.0
  0
LINE
 8
Layer0
10
322.654711717934
20
-101.746190091945
30
0.0
11
322.531472309595
21
-101.374510350862
31
0.0
  0
LINE
 8
Layer0
10
322.531472309595
20
-101.374510350862
30
0.0
11
322.316234386592
21
-101.047391995827
31
0.0
  0
LINE
 8
Layer0
10
322.316234386592
20
-101.047391995827
30
0.0
11
322.023666057681
21
-100.787127602147
31
0.0
  0
LINE
 8
Layer0
10
322.023666057681
20
-100.787127602147
30
0.0
11
321.673705370986
21
-100.611453758144
31
0.0
  0
LINE
 8
Layer0
10
321.673705370986
20
-100.611453758144
30
0.0
11
321.290201568966
21
-100.532342345972
31
0.0
  0
LINE
 8
Layer0
10
321.290201568966
20
-100.532342345972
30
0.0
11
320.899289801961
21
-100.555184677633
31
0.0
  0
LINE
 8
Layer0
10
320.899289801961
20
-100.555184677633
30
0.0
11
320.527610060878
21
-100.678424085972
31
0.0
  0
LINE
 8
Layer0
10
320.527610060878
20
-100.678424085972
30
0.0
11
320.200491705843
21
-100.893662008975
31
0.0
  0
LINE
 8
Layer0
10
320.200491705843
20
-100.893662008975
30
0.0
11
319.940227312163
21
-101.186230337885
31
0.0
  0
LINE
 8
Layer0
10
319.940227312163
20
-101.186230337885
30
0.0
11
319.76455346816
21
-101.536191024581
31
0.0
  0
LINE
 8
Layer0
10
319.76455346816
20
-101.536191024581
30
0.0
11
319.685442055988
21
-101.9196948266
31
0.0
  0
LINE
 8
Layer0
10
-28.42714312799
20
18.0407817648921
30
0.0
11
-28.0554633869073
21
18.1640211732315
31
0.0
  0
LINE
 8
Layer0
10
-28.0554633869073
20
18.1640211732315
30
0.0
11
-27.7283450318724
21
18.3792590962341
31
0.0
  0
LINE
 8
Layer0
10
-27.7283450318724
20
18.3792590962341
30
0.0
11
-27.4680806381924
21
18.6718274251448
31
0.0
  0
LINE
 8
Layer0
10
-27.4680806381924
20
18.6718274251448
30
0.0
11
-27.2924067941894
21
19.0217881118403
31
0.0
  0
LINE
 8
Layer0
10
-27.2924067941894
20
19.0217881118403
30
0.0
11
-27.2132953820173
21
19.4052919138597
31
0.0
  0
LINE
 8
Layer0
10
-27.2132953820173
20
19.4052919138597
30
0.0
11
-27.236137713678
21
19.7962036808654
31
0.0
  0
LINE
 8
Layer0
10
-27.236137713678
20
19.7962036808654
30
0.0
11
-27.3593771220174
21
20.1678834219482
31
0.0
  0
LINE
 8
Layer0
10
-24.0010959090892
20
24.2301729533839
30
0.0
11
-22.0978942787374
21
29.7090253472914
31
0.0
  0
LINE
 8
Layer0
10
-22.0978942787374
20
29.7090253472914
30
0.0
11
-27.5767466726449
21
31.6122269776432
31
0.0
  0
LINE
 8
Layer0
10
-27.5767466726449
20
31.6122269776432
30
0.0
11
-29.4799483029967
21
26.1333745837357
31
0.0
  0
LINE
 8
Layer0
10
-29.4799483029967
20
26.1333745837357
30
0.0
11
-24.0010959090892
21
24.2301729533839
31
0.0
  0
LINE
 8
Layer0
10
314.570040952708
20
-112.223428260032
30
0.0
11
316.47324258306
21
-106.744575866124
31
0.0
  0
LINE
 8
Layer0
10
320.410901128616
20
-95.4090191890744
30
0.0
11
322.314102758967
21
-89.9301667951669
31
0.0
  0
LINE
 8
Layer0
10
325.889753522523
20
-97.3122208194261
30
0.0
11
320.410901128616
21
-95.4090191890744
31
0.0
  0
LINE
 8
Layer0
10
327.792955152875
20
-91.8333684255186
30
0.0
11
325.889753522523
21
-97.3122208194261
31
0.0
  0
LINE
 8
Layer0
10
322.314102758967
20
-89.9301667951669
30
0.0
11
327.792955152875
21
-91.8333684255186
31
0.0
  0
LINE
 8
Layer0
10
355.445077671598
20
-7.96317037991039
30
0.0
11
355.52418908377
21
-7.57966657789095
31
0.0
  0
LINE
 8
Layer0
10
355.52418908377
20
-7.57966657789095
30
0.0
11
355.501346752109
21
-7.1887548108853
31
0.0
  0
LINE
 8
Layer0
10
355.501346752109
20
-7.1887548108853
30
0.0
11
355.378107343769
21
-6.81707506980253
31
0.0
  0
LINE
 8
Layer0
10
355.378107343769
20
-6.81707506980253
30
0.0
11
355.162869420767
21
-6.4899567147677
31
0.0
  0
LINE
 8
Layer0
10
355.162869420767
20
-6.4899567147677
30
0.0
11
354.870301091856
21
-6.22969232108769
31
0.0
  0
LINE
 8
Layer0
10
354.870301091856
20
-6.22969232108769
30
0.0
11
354.520340405161
21
-6.05401847708463
31
0.0
  0
LINE
 8
Layer0
10
354.520340405161
20
-6.05401847708463
30
0.0
11
354.136836603141
21
-5.97490706491257
31
0.0
  0
LINE
 8
Layer0
10
354.136836603141
20
-5.97490706491257
30
0.0
11
353.745924836135
21
-5.99774939657324
31
0.0
  0
LINE
 8
Layer0
10
353.745924836135
20
-5.99774939657324
30
0.0
11
353.374245095053
21
-6.12098880491266
31
0.0
  0
LINE
 8
Layer0
10
353.374245095053
20
-6.12098880491266
30
0.0
11
353.047126740018
21
-6.33622672791528
31
0.0
  0
LINE
 8
Layer0
10
353.047126740018
20
-6.33622672791528
30
0.0
11
352.786862346338
21
-6.62879505682603
31
0.0
  0
LINE
 8
Layer0
10
352.786862346338
20
-6.62879505682603
30
0.0
11
352.611188502335
21
-6.97875574352151
31
0.0
  0
LINE
 8
Layer0
10
352.611188502335
20
-6.97875574352151
30
0.0
11
352.532077090163
21
-7.36225954554091
31
0.0
  0
LINE
 8
Layer0
10
352.532077090163
20
-7.36225954554091
30
0.0
11
352.554919421823
21
-7.75317131254657
31
0.0
  0
LINE
 8
Layer0
10
352.554919421823
20
-7.75317131254657
30
0.0
11
352.678158830163
21
-8.12485105362933
31
0.0
  0
LINE
 8
Layer0
10
352.678158830163
20
-8.12485105362933
30
0.0
11
352.893396753166
21
-8.45196940866417
31
0.0
  0
LINE
 8
Layer0
10
352.893396753166
20
-8.45196940866417
30
0.0
11
353.185965082076
21
-8.71223380234419
31
0.0
  0
LINE
 8
Layer0
10
353.185965082076
20
-8.71223380234419
30
0.0
11
353.535925768772
21
-8.88790764634721
31
0.0
  0
LINE
 8
Layer0
10
353.535925768772
20
-8.88790764634721
30
0.0
11
353.919429570791
21
-8.96701905851931
31
0.0
  0
LINE
 8
Layer0
10
353.919429570791
20
-8.96701905851931
30
0.0
11
354.310341337797
21
-8.9441767268586
31
0.0
  0
LINE
 8
Layer0
10
354.310341337797
20
-8.9441767268586
30
0.0
11
354.682021078879
21
-8.82093731851922
31
0.0
  0
LINE
 8
Layer0
10
354.682021078879
20
-8.82093731851922
30
0.0
11
355.009139433914
21
-8.60569939551655
31
0.0
  0
LINE
 8
Layer0
10
355.009139433914
20
-8.60569939551655
30
0.0
11
355.269403827594
21
-8.31313106660584
31
0.0
  0
LINE
 8
Layer0
10
355.269403827594
20
-8.31313106660584
30
0.0
11
355.445077671598
21
-7.96317037991039
31
0.0
  0
LINE
 8
Layer0
10
349.319877617235
20
-12.1871405850651
30
0.0
11
347.416675986883
21
-17.6659929789726
31
0.0
  0
LINE
 8
Layer0
10
347.416675986883
20
-17.6659929789726
30
0.0
11
352.89552838079
21
-19.5691946093244
31
0.0
  0
LINE
 8
Layer0
10
352.89552838079
20
-19.5691946093244
30
0.0
11
354.798730011142
21
-14.0903422154168
31
0.0
  0
LINE
 8
Layer0
10
354.798730011142
20
-14.0903422154168
30
0.0
11
349.319877617235
21
-12.1871405850651
31
0.0
  0
LINE
 8
Layer0
10
355.160737793142
20
4.62726848589249
30
0.0
11
353.25753616279
21
-0.85158390801505
31
0.0
  0
LINE
 8
Layer0
10
353.25753616279
20
-0.85158390801505
30
0.0
11
358.736388556698
21
-2.7547855383668
31
0.0
  0
LINE
 8
Layer0
10
358.736388556698
20
-2.7547855383668
30
0.0
11
360.639590187049
21
2.72406685554072
31
0.0
  0
LINE
 8
Layer0
10
360.639590187049
20
2.72406685554072
30
0.0
11
355.160737793142
21
4.62726848589249
31
0.0
  0
LINE
 8
Layer0
10
-27.3593771220174
20
20.1678834219482
30
0.0
11
-27.57461504502
21
20.495001776983
31
0.0
  0
LINE
 8
Layer0
10
-27.57461504502
20
20.495001776983
30
0.0
11
-27.8671833739307
21
20.755266170663
31
0.0
  0
LINE
 8
Layer0
10
-27.8671833739307
20
20.755266170663
30
0.0
11
-28.2171440606262
21
20.930940014666
31
0.0
  0
LINE
 8
Layer0
10
-28.2171440606262
20
20.930940014666
30
0.0
11
-28.6006478626456
21
21.0100514268381
31
0.0
  0
LINE
 8
Layer0
10
-28.6006478626456
20
21.0100514268381
30
0.0
11
-28.9915596296513
21
20.9872090951774
31
0.0
  0
LINE
 8
Layer0
10
-28.9915596296513
20
20.9872090951774
30
0.0
11
-29.363239370734
21
20.863969686838
31
0.0
  0
LINE
 8
Layer0
10
-29.363239370734
20
20.863969686838
30
0.0
11
-29.6903577257689
21
20.6487317638354
31
0.0
  0
LINE
 8
Layer0
10
-29.6903577257689
20
20.6487317638354
30
0.0
11
-29.9506221194489
21
20.3561634349247
31
0.0
  0
LINE
 8
Layer0
10
-29.9506221194489
20
20.3561634349247
30
0.0
11
-30.1262959634519
21
20.0062027482292
31
0.0
  0
LINE
 8
Layer0
10
-30.1262959634519
20
20.0062027482292
30
0.0
11
-30.205407375624
21
19.6226989462098
31
0.0
  0
LINE
 8
Layer0
10
-30.205407375624
20
19.6226989462098
30
0.0
11
-30.1825650439633
21
19.2317871792041
31
0.0
  0
LINE
 8
Layer0
10
-30.1825650439633
20
19.2317871792041
30
0.0
11
-30.0593256356239
21
18.8601074381214
31
0.0
  0
LINE
 8
Layer0
10
-30.0593256356239
20
18.8601074381214
30
0.0
11
-29.8440877126213
21
18.5329890830865
31
0.0
  0
LINE
 8
Layer0
10
-29.8440877126213
20
18.5329890830865
30
0.0
11
-29.5515193837106
21
18.2727246894065
31
0.0
  0
LINE
 8
Layer0
10
-29.5515193837106
20
18.2727246894065
30
0.0
11
-29.2015586970151
21
18.0970508454035
31
0.0
  0
LINE
 8
Layer0
10
-29.2015586970151
20
18.0970508454035
30
0.0
11
-28.8180548949957
21
18.0179394332314
31
0.0
  0
LINE
 8
Layer0
10
-28.8180548949957
20
18.0179394332314
30
0.0
11
-28.42714312799
21
18.0407817648921
31
0.0
  0
LINE
 8
Layer0
10
146.883275958652
20
64.0204006252951
30
0.0
11
146.919942274458
21
63.630542493426
31
0.0
  0
LINE
 8
Layer0
10
146.919942274458
20
63.630542493426
30
0.0
11
147.056261925265
21
63.2634583961093
31
0.0
  0
LINE
 8
Layer0
10
147.056261925265
20
63.2634583961093
30
0.0
11
147.282944952151
21
62.9441645079418
31
0.0
  0
LINE
 8
Layer0
10
147.282944952151
20
62.9441645079418
30
0.0
11
147.584543281444
21
62.694420179744
31
0.0
  0
LINE
 8
Layer0
10
147.584543281444
20
62.694420179744
30
0.0
11
147.940503485418
21
62.5312450747607
31
0.0
  0
LINE
 8
Layer0
10
147.940503485418
20
62.5312450747607
30
0.0
11
148.326567464423
21
62.4657593067368
31
0.0
  0
LINE
 8
Layer0
10
148.326567464423
20
62.4657593067368
30
0.0
11
148.716425596292
21
62.5024256225427
31
0.0
  0
LINE
 8
Layer0
10
148.716425596292
20
62.5024256225427
30
0.0
11
149.083509693609
21
62.6387452733505
31
0.0
  0
LINE
 8
Layer0
10
149.083509693609
20
62.6387452733505
30
0.0
11
149.402803581776
21
62.8654283002362
31
0.0
  0
LINE
 8
Layer0
10
149.402803581776
20
62.8654283002362
30
0.0
11
149.652547909974
21
63.1670266295291
31
0.0
  0
LINE
 8
Layer0
10
149.652547909974
20
63.1670266295291
30
0.0
11
149.815723014957
21
63.5229868335026
31
0.0
  0
LINE
 8
Layer0
10
149.815723014957
20
63.5229868335026
30
0.0
11
149.881208782981
21
63.9090508125081
31
0.0
  0
LINE
 8
Layer0
10
149.881208782981
20
63.9090508125081
30
0.0
11
149.844542467175
21
64.2989089443771
31
0.0
  0
LINE
 8
Layer0
10
-0.570971814377458
20
109.355253187745
30
0.0
11
-2.47417344472924
21
103.876400793837
31
0.0
  0
LINE
 8
Layer0
10
-2.47417344472924
20
103.876400793837
30
0.0
11
3.00467894917828
21
101.973199163486
31
0.0
  0
LINE
 8
Layer0
10
-35.3208084789039
20
9.31896551277807
30
0.0
11
-29.8419560849964
21
7.41576388242629
31
0.0
  0
LINE
 8
Layer0
10
-29.8419560849964
20
7.41576388242629
30
0.0
11
-27.9387544546446
21
12.8946162763338
31
0.0
  0
LINE
 8
Layer0
10
-27.9387544546446
20
12.8946162763338
30
0.0
11
-33.4176068485521
21
14.7978179066856
31
0.0
  0
LINE
 8
Layer0
10
-33.4176068485521
20
14.7978179066856
30
0.0
11
-35.3208084789039
21
9.31896551277807
31
0.0
  0
LINE
 8
Layer0
10
5.63333965215732
20
113.962727194919
30
0.0
11
5.61049732049669
21
114.353638961925
31
0.0
  0
LINE
 8
Layer0
10
5.61049732049669
20
114.353638961925
30
0.0
11
5.48725791215726
21
114.725318703008
31
0.0
  0
LINE
 8
Layer0
10
5.48725791215726
20
114.725318703008
30
0.0
11
5.27201998915462
21
115.052437058042
31
0.0
  0
LINE
 8
Layer0
10
5.27201998915462
20
115.052437058042
30
0.0
11
4.97945166024394
21
115.312701451722
31
0.0
  0
LINE
 8
Layer0
10
4.97945166024394
20
115.312701451722
30
0.0
11
4.62949097354843
21
115.488375295725
31
0.0
  0
LINE
 8
Layer0
10
4.62949097354843
20
115.488375295725
30
0.0
11
4.24598717152903
21
115.567486707897
31
0.0
  0
LINE
 8
Layer0
10
4.24598717152903
20
115.567486707897
30
0.0
11
3.85507540452335
21
115.544644376237
31
0.0
  0
LINE
 8
Layer0
10
3.85507540452335
20
115.544644376237
30
0.0
11
3.48339566344062
21
115.421404967897
31
0.0
  0
LINE
 8
Layer0
10
3.48339566344062
20
115.421404967897
30
0.0
11
3.15627730840576
21
115.206167044895
31
0.0
  0
LINE
 8
Layer0
10
3.15627730840576
20
115.206167044895
30
0.0
11
2.89601291472578
21
114.913598715984
31
0.0
  0
LINE
 8
Layer0
10
2.89601291472578
20
114.913598715984
30
0.0
11
2.72033907072275
21
114.563638029289
31
0.0
  0
LINE
 8
Layer0
10
2.72033907072275
20
114.563638029289
30
0.0
11
2.64122765855068
21
114.180134227269
31
0.0
  0
LINE
 8
Layer0
10
2.64122765855068
20
114.180134227269
30
0.0
11
2.66406999021133
21
113.789222460263
31
0.0
  0
LINE
 8
Layer0
10
2.66406999021133
20
113.789222460263
30
0.0
11
2.78730939855076
21
113.417542719181
31
0.0
  0
LINE
 8
Layer0
10
2.78730939855076
20
113.417542719181
30
0.0
11
3.00254732155339
21
113.090424364146
31
0.0
  0
LINE
 8
Layer0
10
3.00254732155339
20
113.090424364146
30
0.0
11
3.29511565046408
21
112.830159970466
31
0.0
  0
LINE
 8
Layer0
10
3.29511565046408
20
112.830159970466
30
0.0
11
3.64507633715959
21
112.654486126463
31
0.0
  0
LINE
 8
Layer0
10
3.64507633715959
20
112.654486126463
30
0.0
11
4.02858013917898
21
112.575374714291
31
0.0
  0
LINE
 8
Layer0
10
4.02858013917898
20
112.575374714291
30
0.0
11
4.41949190618466
21
112.598217045951
31
0.0
  0
LINE
 8
Layer0
10
4.41949190618466
20
112.598217045951
30
0.0
11
4.7911716472674
21
112.721456454291
31
0.0
  0
LINE
 8
Layer0
10
4.7911716472674
20
112.721456454291
30
0.0
11
5.11829000230226
21
112.936694377294
31
0.0
  0
LINE
 8
Layer0
10
5.11829000230226
20
112.936694377294
30
0.0
11
5.37855439598222
21
113.229262706204
31
0.0
  0
LINE
 8
Layer0
10
5.37855439598222
20
113.229262706204
30
0.0
11
5.55422823998527
21
113.5792233929
31
0.0
  0
LINE
 8
Layer0
10
5.55422823998527
20
113.5792233929
30
0.0
11
5.63333965215732
21
113.962727194919
31
0.0
  0
LINE
 8
Layer0
10
5.26988836152968
20
126.169662258703
30
0.0
11
3.36668673117792
21
120.690809864795
31
0.0
  0
LINE
 8
Layer0
10
3.36668673117792
20
120.690809864795
30
0.0
11
8.84553912508546
21
118.787608234443
31
0.0
  0
LINE
 8
Layer0
10
8.84553912508546
20
118.787608234443
30
0.0
11
10.7487407554372
21
124.266460628351
31
0.0
  0
LINE
 8
Layer0
10
10.7487407554372
20
124.266460628351
30
0.0
11
5.26988836152968
21
126.169662258703
31
0.0
  0
LINE
 8
Layer0
10
116.802905266682
20
-31.3951782260414
30
0.0
11
116.967417310182
21
-31.0398339292771
31
0.0
  0
LINE
 8
Layer0
10
116.967417310182
20
-31.0398339292771
30
0.0
11
117.034353870162
21
-30.6540188458017
31
0.0
  0
LINE
 8
Layer0
10
117.034353870162
20
-30.6540188458017
30
0.0
11
116.999153330679
21
-30.2640256359643
31
0.0
  0
LINE
 8
Layer0
10
116.999153330679
20
-30.2640256359643
30
0.0
11
116.864214550326
21
-29.8964316925211
31
0.0
  0
LINE
 8
Layer0
10
116.864214550326
20
-29.8964316925211
30
0.0
11
116.638733383988
21
-29.5762879352401
31
0.0
  0
LINE
 8
Layer0
10
116.638733383988
20
-29.5762879352401
30
0.0
11
116.338076000525
21
-29.3254116321173
31
0.0
  0
LINE
 8
Layer0
10
116.338076000525
20
-29.3254116321173
30
0.0
11
115.982731703761
21
-29.160899588618
31
0.0
  0
LINE
 8
Layer0
10
115.982731703761
20
-29.160899588618
30
0.0
11
115.596916620286
21
-29.0939630286376
31
0.0
  0
LINE
 8
Layer0
10
115.596916620286
20
-29.0939630286376
30
0.0
11
115.206923410448
21
-29.1291635681208
31
0.0
  0
LINE
 8
Layer0
10
115.206923410448
20
-29.1291635681208
30
0.0
11
114.839329467005
21
-29.2641023484735
31
0.0
  0
LINE
 8
Layer0
10
114.839329467005
20
-29.2641023484735
30
0.0
11
114.519185709724
21
-29.4895835148116
31
0.0
  0
LINE
 8
Layer0
10
114.519185709724
20
-29.4895835148116
30
0.0
11
114.268309406601
21
-29.7902408982743
31
0.0
  0
LINE
 8
Layer0
10
114.268309406601
20
-29.7902408982743
30
0.0
11
114.103797363102
21
-30.1455851950385
31
0.0
  0
LINE
 8
Layer0
10
114.103797363102
20
-30.1455851950385
30
0.0
11
114.036860803122
21
-30.531400278514
31
0.0
  0
LINE
 8
Layer0
10
114.036860803122
20
-30.531400278514
30
0.0
11
114.072061342605
21
-30.9213934883514
31
0.0
  0
LINE
 8
Layer0
10
114.072061342605
20
-30.9213934883514
30
0.0
11
114.207000122957
21
-31.2889874317946
31
0.0
  0
LINE
 8
Layer0
10
114.207000122957
20
-31.2889874317946
30
0.0
11
114.432481289295
21
-31.6091311890756
31
0.0
  0
LINE
 8
Layer0
10
114.432481289295
20
-31.6091311890756
30
0.0
11
114.733138672758
21
-31.8600074921983
31
0.0
  0
LINE
 8
Layer0
10
114.733138672758
20
-31.8600074921983
30
0.0
11
115.088482969523
21
-32.0245195356977
31
0.0
  0
LINE
 8
Layer0
10
115.088482969523
20
-32.0245195356977
30
0.0
11
115.474298052998
21
-32.0914560956781
31
0.0
  0
LINE
 8
Layer0
10
115.474298052998
20
-32.0914560956781
30
0.0
11
115.864291262835
21
-32.0562555561949
31
0.0
  0
LINE
 8
Layer0
10
115.864291262835
20
-32.0562555561949
30
0.0
11
116.231885206279
21
-31.9213167758422
31
0.0
  0
LINE
 8
Layer0
10
116.231885206279
20
-31.9213167758422
30
0.0
11
116.55202896356
21
-31.6958356095041
31
0.0
  0
LINE
 8
Layer0
10
116.55202896356
20
-31.6958356095041
30
0.0
11
116.802905266682
21
-31.3951782260414
31
0.0
  0
LINE
 8
Layer0
10
110.82735186691
20
-35.308887085507
30
0.0
11
116.306204260818
21
-37.2120887158588
31
0.0
  0
LINE
 8
Layer0
10
3.00467894917828
20
101.973199163486
30
0.0
11
4.90788057953006
21
107.452051557393
31
0.0
  0
LINE
 8
Layer0
10
4.90788057953006
20
107.452051557393
30
0.0
11
-0.570971814377458
21
109.355253187745
31
0.0
 0
ENDSEC
 0
EOF
