999
dxfrw 0.5.11
0
SECTION
2
HEADER
9
$ACADVER
1
AC1021
9
$HANDSEED
5
20000
9
$DWGCODEPAGE
3
ANSI_1252
9
$INSBASE
10
0
20
0
30
0
9
$EXTMIN
10
-309.662
20
-263.61
30
0
9
$EXTMAX
10
982.033242985
20
196.277904004
30
0
9
$LIMMIN
10
0
20
0
9
$LIMMAX
10
420
20
297
9
$ORTHOMODE
70
0
9
$LTSCALE
40
1
9
$TEXTSTYLE
7
STANDARD
9
$CLAYER
8
Guitar
9
$DIMASZ
40
2.5
9
$DIMLFAC
40
1
9
$DIMSCALE
40
1
9
$DIMEXO
40
0.625
9
$DIMEXE
40
100
9
$DIMTXT
40
2.5
9
$DIMTSZ
40
0
9
$DIMAUNIT
70
0
9
$DIMADEC
70
2
9
$DIMLUNIT
70
2
9
$DIMSTYLE
2
Standard
9
$DIMGAP
40
0.625
9
$DIMTIH
70
0
9
$LUNITS
70
2
9
$LUPREC
70
4
9
$AUNITS
70
0
9
$AUPREC
70
2
9
$SPLINESEGS
70
8
9
$GRIDMODE
70
0
9
$SNAPSTYLE
70
0
9
$GRIDUNIT
10
0
20
0
9
$PINSBASE
10
0
20
0
30
0
9
$PLIMMIN
10
0
20
0
9
$PLIMMAX
10
210
20
297
9
$INSUNITS
70
4
9
$PSVPSCALE
40
1
0
ENDSEC
0
SECTION
2
CLASSES
0
ENDSEC
0
SECTION
2
TABLES
0
TABLE
2
VPORT
5
8
330
0
100
AcDbSymbolTable
70
1
0
VPORT
5
31
330
2
100
AcDbSymbolTableRecord
100
AcDbViewportTableRecord
2
*ACTIVE
70
0
10
0
20
0
11
1
21
1
12
435.798489318
22
231.916155134
13
0
23
0
14
10
24
10
15
10
25
10
16
0
26
0
36
1
17
0
27
0
37
0
40
666.015625
41
1.97193877551
42
50
43
0
44
0
50
0
51
0
71
0
72
100
73
1
74
3
75
0
76
0
77
0
78
0
281
0
65
1
110
0
120
0
130
0
111
1
121
0
131
0
112
0
122
1
132
0
79
0
146
0
348
10020
60
7
61
5
292
1
282
1
141
0
142
0
63
250
421
3358443
0
ENDTAB
0
TABLE
2
LTYPE
5
5
330
0
100
AcDbSymbolTable
70
4
0
LTYPE
5
14
330
5
100
AcDbSymbolTableRecord
100
AcDbLinetypeTableRecord
2
ByBlock
70
0
3

72
65
73
0
40
0
0
LTYPE
5
15
330
5
100
AcDbSymbolTableRecord
100
AcDbLinetypeTableRecord
2
ByLayer
70
0
3

72
65
73
0
40
0
0
LTYPE
5
16
330
5
100
AcDbSymbolTableRecord
100
AcDbLinetypeTableRecord
2
Continuous
70
0
3
Solid line
72
65
73
0
40
0
0
LTYPE
5
32
330
5
100
AcDbSymbolTableRecord
100
AcDbLinetypeTableRecord
2
DOT
70
0
3
Dot . . . . . . . . . . . . . . . . . . . . . .
72
65
73
2
40
6.35
49
0
74
0
49
-6.35
74
0
0
LTYPE
5
33
330
5
100
AcDbSymbolTableRecord
100
AcDbLinetypeTableRecord
2
DOT2
70
0
3
Dot (.5x) .....................................
72
65
73
2
40
3.175
49
0
74
0
49
-3.175
74
0
0
LTYPE
5
34
330
5
100
AcDbSymbolTableRecord
100
AcDbLinetypeTableRecord
2
DOTX2
70
0
3
Dot (2x) .  .  .  .  .  .  .  .  .  .  .  .  .
72
65
73
2
40
12.7
49
0
74
0
49
-12.7
74
0
0
LTYPE
5
35
330
5
100
AcDbSymbolTableRecord
100
AcDbLinetypeTableRecord
2
DASHED
70
0
3
Dot . . . . . . . . . . . . . . . . . . . . . .
72
65
73
2
40
19.05
49
12.7
74
0
49
-6.35
74
0
0
LTYPE
5
36
330
5
100
AcDbSymbolTableRecord
100
AcDbLinetypeTableRecord
2
DASHED2
70
0
3
Dashed (.5x) _ _ _ _ _ _ _ _ _ _ _ _ _ _ _ _ _
72
65
73
2
40
9.525
49
6.35
74
0
49
-3.175
74
0
0
LTYPE
5
37
330
5
100
AcDbSymbolTableRecord
100
AcDbLinetypeTableRecord
2
DASHEDX2
70
0
3
Dashed (2x) ____  ____  ____  ____  ____  ___
72
65
73
2
40
38.1
49
25.4
74
0
49
-12.7
74
0
0
LTYPE
5
38
330
5
100
AcDbSymbolTableRecord
100
AcDbLinetypeTableRecord
2
DASHDOT
70
0
3
Dash dot __ . __ . __ . __ . __ . __ . __ . __
72
65
73
4
40
25.4
49
12.7
74
0
49
-6.35
74
0
49
0
74
0
49
-6.35
74
0
0
LTYPE
5
39
330
5
100
AcDbSymbolTableRecord
100
AcDbLinetypeTableRecord
2
DASHDOT2
70
0
3
Dash dot (.5x) _._._._._._._._._._._._._._._.
72
65
73
4
40
12.7
49
6.35
74
0
49
-3.175
74
0
49
0
74
0
49
-3.175
74
0
0
LTYPE
5
3A
330
5
100
AcDbSymbolTableRecord
100
AcDbLinetypeTableRecord
2
DASHDOTX2
70
0
3
Dash dot (2x) ____  .  ____  .  ____  .  ___
72
65
73
4
40
50.8
49
25.4
74
0
49
-12.7
74
0
49
0
74
0
49
-12.7
74
0
0
LTYPE
5
3B
330
5
100
AcDbSymbolTableRecord
100
AcDbLinetypeTableRecord
2
DIVIDE
70
0
3
Divide ____ . . ____ . . ____ . . ____ . . ____
72
65
73
6
40
31.75
49
12.7
74
0
49
-6.35
74
0
49
0
74
0
49
-6.35
74
0
49
0
74
0
49
-6.35
74
0
0
LTYPE
5
3C
330
5
100
AcDbSymbolTableRecord
100
AcDbLinetypeTableRecord
2
DIVIDE2
70
0
3
Divide (.5x) __..__..__..__..__..__..__..__.._
72
65
73
6
40
15.875
49
6.35
74
0
49
-3.175
74
0
49
0
74
0
49
-3.175
74
0
49
0
74
0
49
-3.175
74
0
0
LTYPE
5
3D
330
5
100
AcDbSymbolTableRecord
100
AcDbLinetypeTableRecord
2
DIVIDEX2
70
0
3
Divide (2x) ________  .  .  ________  .  .  _
72
65
73
6
40
63.5
49
25.4
74
0
49
-12.7
74
0
49
0
74
0
49
-12.7
74
0
49
0
74
0
49
-12.7
74
0
0
LTYPE
5
3E
330
5
100
AcDbSymbolTableRecord
100
AcDbLinetypeTableRecord
2
BORDER
70
0
3
Border __ __ . __ __ . __ __ . __ __ . __ __ .
72
65
73
6
40
44.45
49
12.7
74
0
49
-6.35
74
0
49
12.7
74
0
49
-6.35
74
0
49
0
74
0
49
-6.35
74
0
0
LTYPE
5
3F
330
5
100
AcDbSymbolTableRecord
100
AcDbLinetypeTableRecord
2
BORDER2
70
0
3
Border (.5x) __.__.__.__.__.__.__.__.__.__.__.
72
65
73
6
40
22.225
49
6.35
74
0
49
-3.175
74
0
49
6.35
74
0
49
-3.175
74
0
49
0
74
0
49
-3.175
74
0
0
LTYPE
5
40
330
5
100
AcDbSymbolTableRecord
100
AcDbLinetypeTableRecord
2
BORDERX2
70
0
3
Border (2x) ____  ____  .  ____  ____  .  ___
72
65
73
6
40
88.9
49
25.4
74
0
49
-12.7
74
0
49
25.4
74
0
49
-12.7
74
0
49
0
74
0
49
-12.7
74
0
0
LTYPE
5
41
330
5
100
AcDbSymbolTableRecord
100
AcDbLinetypeTableRecord
2
CENTER
70
0
3
Center ____ _ ____ _ ____ _ ____ _ ____ _ ____
72
65
73
4
40
50.8
49
31.75
74
0
49
-6.35
74
0
49
6.35
74
0
49
-6.35
74
0
0
LTYPE
5
42
330
5
100
AcDbSymbolTableRecord
100
AcDbLinetypeTableRecord
2
CENTER2
70
0
3
Center (.5x) ___ _ ___ _ ___ _ ___ _ ___ _ ___
72
65
73
4
40
28.575
49
19.05
74
0
49
-3.175
74
0
49
3.175
74
0
49
-3.175
74
0
0
LTYPE
5
43
330
5
100
AcDbSymbolTableRecord
100
AcDbLinetypeTableRecord
2
CENTERX2
70
0
3
Center (2x) ________  __  ________  __  _____
72
65
73
4
40
101.6
49
63.5
74
0
49
-12.7
74
0
49
12.7
74
0
49
-12.7
74
0
0
ENDTAB
0
TABLE
2
LAYER
5
2
330
0
100
AcDbSymbolTable
70
1
0
LAYER
5
10
330
2
100
AcDbSymbolTableRecord
100
AcDbLayerTableRecord
2
0
70
4
62
7
6
CONTINUOUS
370
-3
390
F
0
LAYER
5
44
330
2
100
AcDbSymbolTableRecord
100
AcDbLayerTableRecord
2
Enclosure
70
1
62
6
6
CONTINUOUS
370
0
390
F
0
LAYER
5
45
330
2
100
AcDbSymbolTableRecord
100
AcDbLayerTableRecord
2
Guides
70
1
62
3
6
DOT2
290
0
370
0
390
F
0
LAYER
5
46
330
2
100
AcDbSymbolTableRecord
100
AcDbLayerTableRecord
2
Guitar
70
0
62
136
420
32896
6
CONTINUOUS
370
0
390
F
0
LAYER
5
47
330
2
100
AcDbSymbolTableRecord
100
AcDbLayerTableRecord
2
Guitar Guides
70
0
62
56
420
8421376
6
DOT2
370
0
390
F
0
LAYER
5
48
330
2
100
AcDbSymbolTableRecord
100
AcDbLayerTableRecord
2
HMI
70
1
62
7
6
CONTINUOUS
370
0
390
F
0
LAYER
5
49
330
2
100
AcDbSymbolTableRecord
100
AcDbLayerTableRecord
2
PCB
70
1
62
56
420
8421376
6
CONTINUOUS
370
0
390
F
0
LAYER
5
4A
330
2
100
AcDbSymbolTableRecord
100
AcDbLayerTableRecord
2
Perimeter
70
1
62
5
6
CONTINUOUS
370
0
390
F
0
ENDTAB
0
TABLE
2
STYLE
5
3
330
0
100
AcDbSymbolTable
70
3
0
STYLE
5
4B
330
2
100
AcDbSymbolTableRecord
100
AcDbTextStyleTableRecord
2
standard
70
0
40
0
41
1
50
0
71
0
42
1
3
standard
4

0
ENDTAB
0
TABLE
2
VIEW
5
6
330
0
100
AcDbSymbolTable
70
0
0
ENDTAB
0
TABLE
2
UCS
5
7
330
0
100
AcDbSymbolTable
70
0
0
ENDTAB
0
TABLE
2
APPID
5
9
330
0
100
AcDbSymbolTable
70
1
0
APPID
5
12
330
9
100
AcDbSymbolTableRecord
100
AcDbRegAppTableRecord
2
ACAD
70
0
0
ENDTAB
0
TABLE
2
DIMSTYLE
5
A
330
0
100
AcDbSymbolTable
70
1
100
AcDbDimStyleTable
71
1
0
DIMSTYLE
105
4C
330
A
100
AcDbSymbolTableRecord
100
AcDbDimStyleTableRecord
2
Standard
70
0
40
1
41
2.5
42
0.625
43
0.38
44
100
45
0
46
0
47
0
48
0
140
2.5
141
0.09
142
0
143
25.4
144
1
145
0
146
1
147
0.625
148
0
71
0
72
0
73
0
74
1
75
0
76
0
77
0
78
0
79
0
170
0
171
2
172
0
173
0
174
0
175
0
176
0
177
0
178
0
179
0
271
4
272
4
273
2
274
2
275
0
276
0
277
2
278
46
279
0
280
0
281
0
282
0
283
1
284
0
285
0
286
0
288
0
289
3
340
Standard
341

371
-2
372
-2
0
ENDTAB
0
TABLE
2
BLOCK_RECORD
5
1
330
0
100
AcDbSymbolTable
70
2
0
BLOCK_RECORD
5
1F
330
1
100
AcDbSymbolTableRecord
100
AcDbBlockTableRecord
2
*Model_Space
70
0
280
1
281
0
0
BLOCK_RECORD
5
1E
330
1
100
AcDbSymbolTableRecord
100
AcDbBlockTableRecord
2
*Paper_Space
70
0
280
1
281
0
0
BLOCK_RECORD
5
4D
330
1
100
AcDbSymbolTableRecord
100
AcDbBlockTableRecord
2
PCB
70
0
280
1
281
0
0
BLOCK_RECORD
5
50
330
1
100
AcDbSymbolTableRecord
100
AcDbBlockTableRecord
2
Flat round pot (narrow)
70
0
280
1
281
0
0
BLOCK_RECORD
5
53
330
1
100
AcDbSymbolTableRecord
100
AcDbBlockTableRecord
2
Flat round pot (wide)
70
0
280
1
281
0
0
BLOCK_RECORD
5
56
330
1
100
AcDbSymbolTableRecord
100
AcDbBlockTableRecord
2
Trackball
70
0
280
1
281
0
0
BLOCK_RECORD
5
59
330
1
100
AcDbSymbolTableRecord
100
AcDbBlockTableRecord
2
PCB-0
70
0
280
1
281
0
0
BLOCK_RECORD
5
5C
330
1
100
AcDbSymbolTableRecord
100
AcDbBlockTableRecord
2
Flat straight pot (long)
70
0
280
1
281
0
0
BLOCK_RECORD
5
5F
330
1
100
AcDbSymbolTableRecord
100
AcDbBlockTableRecord
2
Flat straight pot (short)
70
0
280
1
281
0
0
BLOCK_RECORD
5
62
330
1
100
AcDbSymbolTableRecord
100
AcDbBlockTableRecord
2
LCD 16x2
70
0
280
1
281
0
0
BLOCK_RECORD
5
65
330
1
100
AcDbSymbolTableRecord
100
AcDbBlockTableRecord
2
5 position selector
70
0
280
1
281
0
0
BLOCK_RECORD
5
68
330
1
100
AcDbSymbolTableRecord
100
AcDbBlockTableRecord
2
LED Holder
70
0
280
1
281
0
0
BLOCK_RECORD
5
6B
330
1
100
AcDbSymbolTableRecord
100
AcDbBlockTableRecord
2
Pushbutton (non latching)
70
0
280
1
281
0
0
BLOCK_RECORD
5
6E
330
1
100
AcDbSymbolTableRecord
100
AcDbBlockTableRecord
2
LCD + 2 PBs
70
0
280
1
281
0
0
BLOCK_RECORD
5
71
330
1
100
AcDbSymbolTableRecord
100
AcDbBlockTableRecord
2
PB + LED
70
0
280
1
281
0
0
BLOCK_RECORD
5
74
330
1
100
AcDbSymbolTableRecord
100
AcDbBlockTableRecord
2
LED 5x Cross
70
0
280
1
281
0
0
BLOCK_RECORD
5
77
330
1
100
AcDbSymbolTableRecord
100
AcDbBlockTableRecord
2
HMI_00-0
70
0
280
1
281
0
0
BLOCK_RECORD
5
7A
330
1
100
AcDbSymbolTableRecord
100
AcDbBlockTableRecord
2
Flat round pot (narrow)-0
70
0
280
1
281
0
0
BLOCK_RECORD
5
7D
330
1
100
AcDbSymbolTableRecord
100
AcDbBlockTableRecord
2
Flat round pot (wide)-0
70
0
280
1
281
0
0
BLOCK_RECORD
5
80
330
1
100
AcDbSymbolTableRecord
100
AcDbBlockTableRecord
2
Trackball-0
70
0
280
1
281
0
0
BLOCK_RECORD
5
83
330
1
100
AcDbSymbolTableRecord
100
AcDbBlockTableRecord
2
PCB-1
70
0
280
1
281
0
0
BLOCK_RECORD
5
86
330
1
100
AcDbSymbolTableRecord
100
AcDbBlockTableRecord
2
Flat straight pot (long)-0
70
0
280
1
281
0
0
BLOCK_RECORD
5
89
330
1
100
AcDbSymbolTableRecord
100
AcDbBlockTableRecord
2
Flat straight pot (short)-0
70
0
280
1
281
0
0
BLOCK_RECORD
5
8C
330
1
100
AcDbSymbolTableRecord
100
AcDbBlockTableRecord
2
LCD 16x2-0
70
0
280
1
281
0
0
BLOCK_RECORD
5
8F
330
1
100
AcDbSymbolTableRecord
100
AcDbBlockTableRecord
2
5 position selector-0
70
0
280
1
281
0
0
BLOCK_RECORD
5
92
330
1
100
AcDbSymbolTableRecord
100
AcDbBlockTableRecord
2
LED Holder-0
70
0
280
1
281
0
0
BLOCK_RECORD
5
95
330
1
100
AcDbSymbolTableRecord
100
AcDbBlockTableRecord
2
Pushbutton (non latching)-0
70
0
280
1
281
0
0
BLOCK_RECORD
5
98
330
1
100
AcDbSymbolTableRecord
100
AcDbBlockTableRecord
2
LCD + 2 PBs-0
70
0
280
1
281
0
0
BLOCK_RECORD
5
9B
330
1
100
AcDbSymbolTableRecord
100
AcDbBlockTableRecord
2
PB + LED-0
70
0
280
1
281
0
0
BLOCK_RECORD
5
9E
330
1
100
AcDbSymbolTableRecord
100
AcDbBlockTableRecord
2
LED 5x Cross-0
70
0
280
1
281
0
0
BLOCK_RECORD
5
A1
330
1
100
AcDbSymbolTableRecord
100
AcDbBlockTableRecord
2
HMI_00-1
70
0
280
1
281
0
0
BLOCK_RECORD
5
A4
330
1
100
AcDbSymbolTableRecord
100
AcDbBlockTableRecord
2
flat v/t x5
70
0
280
1
281
0
0
BLOCK_RECORD
5
A7
330
1
100
AcDbSymbolTableRecord
100
AcDbBlockTableRecord
2
PB+LED 4x
70
0
280
1
281
0
0
BLOCK_RECORD
5
AA
330
1
100
AcDbSymbolTableRecord
100
AcDbBlockTableRecord
2
Flat round pot (narrow)-1
70
0
280
1
281
0
0
BLOCK_RECORD
5
AD
330
1
100
AcDbSymbolTableRecord
100
AcDbBlockTableRecord
2
Flat round pot (wide)-1
70
0
280
1
281
0
0
BLOCK_RECORD
5
B0
330
1
100
AcDbSymbolTableRecord
100
AcDbBlockTableRecord
2
Trackball-1
70
0
280
1
281
0
0
BLOCK_RECORD
5
B3
330
1
100
AcDbSymbolTableRecord
100
AcDbBlockTableRecord
2
PCB-2
70
0
280
1
281
0
0
BLOCK_RECORD
5
B6
330
1
100
AcDbSymbolTableRecord
100
AcDbBlockTableRecord
2
Flat straight pot (long)-1
70
0
280
1
281
0
0
BLOCK_RECORD
5
B9
330
1
100
AcDbSymbolTableRecord
100
AcDbBlockTableRecord
2
Flat straight pot (short)-1
70
0
280
1
281
0
0
BLOCK_RECORD
5
BC
330
1
100
AcDbSymbolTableRecord
100
AcDbBlockTableRecord
2
LCD 16x2-1
70
0
280
1
281
0
0
BLOCK_RECORD
5
BF
330
1
100
AcDbSymbolTableRecord
100
AcDbBlockTableRecord
2
5 position selector-1
70
0
280
1
281
0
0
BLOCK_RECORD
5
C2
330
1
100
AcDbSymbolTableRecord
100
AcDbBlockTableRecord
2
LED Holder-1
70
0
280
1
281
0
0
BLOCK_RECORD
5
C5
330
1
100
AcDbSymbolTableRecord
100
AcDbBlockTableRecord
2
Pushbutton (non latching)-1
70
0
280
1
281
0
0
BLOCK_RECORD
5
C8
330
1
100
AcDbSymbolTableRecord
100
AcDbBlockTableRecord
2
LCD + 2 PBs-1
70
0
280
1
281
0
0
BLOCK_RECORD
5
CB
330
1
100
AcDbSymbolTableRecord
100
AcDbBlockTableRecord
2
PB + LED-1
70
0
280
1
281
0
0
BLOCK_RECORD
5
CE
330
1
100
AcDbSymbolTableRecord
100
AcDbBlockTableRecord
2
LED 5x Cross-1
70
0
280
1
281
0
0
BLOCK_RECORD
5
D1
330
1
100
AcDbSymbolTableRecord
100
AcDbBlockTableRecord
2
Selectors 2x
70
0
280
1
281
0
0
BLOCK_RECORD
5
D4
330
1
100
AcDbSymbolTableRecord
100
AcDbBlockTableRecord
2
Selectors Crossed
70
0
280
1
281
0
0
BLOCK_RECORD
5
D7
330
1
100
AcDbSymbolTableRecord
100
AcDbBlockTableRecord
2
TB + Selectors crossed
70
0
280
1
281
0
0
BLOCK_RECORD
5
DA
330
1
100
AcDbSymbolTableRecord
100
AcDbBlockTableRecord
2
TB 2xSelect 4x PB LED
70
0
280
1
281
0
0
BLOCK_RECORD
5
DD
330
1
100
AcDbSymbolTableRecord
100
AcDbBlockTableRecord
2
HMI_v_00
70
0
280
1
281
0
0
BLOCK_RECORD
5
E0
330
1
100
AcDbSymbolTableRecord
100
AcDbBlockTableRecord
2
HMI_01-0
70
0
280
1
281
0
0
BLOCK_RECORD
5
E3
330
1
100
AcDbSymbolTableRecord
100
AcDbBlockTableRecord
2
BoltPlus Guitar
70
0
280
1
281
0
0
BLOCK_RECORD
5
E6
330
1
100
AcDbSymbolTableRecord
100
AcDbBlockTableRecord
2
BoltPlus Guitar Clean
70
0
280
1
281
0
0
BLOCK_RECORD
5
E9
330
1
100
AcDbSymbolTableRecord
100
AcDbBlockTableRecord
2
BoltPlus Guitar Clean With Guides
70
0
280
1
281
0
0
ENDTAB
0
ENDSEC
0
SECTION
2
BLOCKS
0
BLOCK
5
20
330
1F
100
AcDbEntity
8
0
100
AcDbBlockBegin
2
*Model_Space
70
0
10
0
20
0
30
0
3
*Model_Space
1

0
ENDBLK
5
21
330
1F
100
AcDbEntity
8
0
100
AcDbBlockEnd
0
BLOCK
5
1C
330
1B
100
AcDbEntity
8
0
100
AcDbBlockBegin
2
*Paper_Space
70
0
10
0
20
0
30
0
3
*Paper_Space
1

0
ENDBLK
5
1D
330
1F
100
AcDbEntity
8
0
100
AcDbBlockEnd
0
BLOCK
5
4E
330
4D
100
AcDbEntity
8
0
100
AcDbBlockBegin
2
PCB
70
0
10
0
20
0
3
PCB
1

0
LINE
5
EC
100
AcDbEntity
8
0
6
ByLayer
62
256
370
-1
100
AcDbLine
10
0
20
0
11
180
21
0
0
LINE
5
ED
100
AcDbEntity
8
0
6
ByLayer
62
256
370
-1
100
AcDbLine
10
180
20
0
11
180
21
140
0
LINE
5
EE
100
AcDbEntity
8
0
6
ByLayer
62
256
370
-1
100
AcDbLine
10
180
20
140
11
0
21
140
0
LINE
5
EF
100
AcDbEntity
8
0
6
ByLayer
62
256
370
-1
100
AcDbLine
10
0
20
140
11
0
21
0
0
MTEXT
5
F0
100
AcDbEntity
8
0
6
ByLayer
62
256
370
-1
100
AcDbMText
10
90
20
70
30
0
40
5
41
11.1111111111
71
5
72
1
1
PCB
7
standard
210
0
220
0
230
1
50
0
73
2
44
1
0
ENDBLK
5
4F
330
4D
100
AcDbEntity
8
0
100
AcDbBlockEnd
0
BLOCK
5
51
330
50
100
AcDbEntity
8
0
100
AcDbBlockBegin
2
Flat round pot (narrow)
70
0
10
0
20
0
3
Flat round pot (narrow)
1

0
CIRCLE
5
F1
100
AcDbEntity
8
0
6
ByLayer
62
256
370
-1
100
AcDbCircle
10
0
20
0
40
20
0
MTEXT
5
F2
100
AcDbEntity
8
0
6
ByLayer
62
256
370
-1
100
AcDbMText
10
0
20
1
30
0
40
2.5
41
24.5833333333
71
5
72
1
1
Flat round pot\P(narrow)
7
standard
210
0
220
0
230
1
50
0
73
2
44
1
0
ENDBLK
5
52
330
50
100
AcDbEntity
8
0
100
AcDbBlockEnd
0
BLOCK
5
54
330
53
100
AcDbEntity
8
0
100
AcDbBlockBegin
2
Flat round pot (wide)
70
0
10
0
20
0
3
Flat round pot (wide)
1

0
CIRCLE
5
F3
100
AcDbEntity
8
0
6
ByLayer
62
256
370
-1
100
AcDbCircle
10
0
20
0
40
22
0
MTEXT
5
F4
100
AcDbEntity
8
0
6
ByLayer
62
256
370
-1
100
AcDbMText
10
0
20
0
30
0
40
2.5
41
35.9027775
71
5
72
1
1
Flat round pot (wide)
7
standard
210
0
220
0
230
1
50
0
73
2
44
1
0
ENDBLK
5
55
330
53
100
AcDbEntity
8
0
100
AcDbBlockEnd
0
BLOCK
5
57
330
56
100
AcDbEntity
8
0
100
AcDbBlockBegin
2
Trackball
70
0
10
0
20
0
3
Trackball
1

0
CIRCLE
5
F5
100
AcDbEntity
8
0
6
ByLayer
62
256
370
-1
100
AcDbCircle
10
0
20
0
40
21.5
0
MTEXT
5
F6
100
AcDbEntity
8
0
6
ByLayer
62
256
370
-1
100
AcDbMText
10
0
20
0
30
0
40
5
41
30
71
5
72
1
1
TrackBall
7
standard
210
0
220
0
230
1
50
0
73
2
44
1
0
ENDBLK
5
58
330
56
100
AcDbEntity
8
0
100
AcDbBlockEnd
0
BLOCK
5
5A
330
59
100
AcDbEntity
8
0
100
AcDbBlockBegin
2
PCB-0
70
0
10
0
20
0
3
PCB-0
1

0
LINE
5
F7
100
AcDbEntity
8
0
6
ByLayer
62
256
370
-1
100
AcDbLine
10
0
20
0
11
180
21
0
0
LINE
5
F8
100
AcDbEntity
8
0
6
ByLayer
62
256
370
-1
100
AcDbLine
10
180
20
0
11
180
21
140
0
LINE
5
F9
100
AcDbEntity
8
0
6
ByLayer
62
256
370
-1
100
AcDbLine
10
180
20
140
11
0
21
140
0
LINE
5
FA
100
AcDbEntity
8
0
6
ByLayer
62
256
370
-1
100
AcDbLine
10
0
20
140
11
0
21
0
0
MTEXT
5
FB
100
AcDbEntity
8
0
6
ByLayer
62
256
370
-1
100
AcDbMText
10
90
20
70
30
0
40
5
41
11.1111111111
71
5
72
1
1
PCB
7
standard
210
0
220
0
230
1
50
0
73
2
44
1
0
ENDBLK
5
5B
330
59
100
AcDbEntity
8
0
100
AcDbBlockEnd
0
BLOCK
5
5D
330
5C
100
AcDbEntity
8
0
100
AcDbBlockBegin
2
Flat straight pot (long)
70
0
10
0
20
0
3
Flat straight pot (long)
1

0
LINE
5
FC
100
AcDbEntity
8
0
6
ByLayer
62
256
370
-1
100
AcDbLine
10
0
20
0
11
118
21
0
0
LINE
5
FD
100
AcDbEntity
8
0
6
ByLayer
62
256
370
-1
100
AcDbLine
10
118
20
0
11
118
21
22
0
LINE
5
FE
100
AcDbEntity
8
0
6
ByLayer
62
256
370
-1
100
AcDbLine
10
118
20
22
11
0
21
22
0
LINE
5
FF
100
AcDbEntity
8
0
6
ByLayer
62
256
370
-1
100
AcDbLine
10
0
20
22
11
0
21
0
0
MTEXT
5
100
100
AcDbEntity
8
0
6
ByLayer
62
256
370
-1
100
AcDbMText
10
60
20
11
30
0
40
2.5
41
41.1805547478
71
5
72
1
1
Flat Straight POT (long)
7
standard
210
0
220
0
230
1
50
0
73
2
44
1
0
ENDBLK
5
5E
330
5C
100
AcDbEntity
8
0
100
AcDbBlockEnd
0
BLOCK
5
60
330
5F
100
AcDbEntity
8
0
100
AcDbBlockBegin
2
Flat straight pot (short)
70
0
10
0
20
0
3
Flat straight pot (short)
1

0
LINE
5
101
100
AcDbEntity
8
0
6
ByLayer
62
256
370
-1
100
AcDbLine
10
0
20
0
11
68
21
0
0
LINE
5
102
100
AcDbEntity
8
0
6
ByLayer
62
256
370
-1
100
AcDbLine
10
68
20
0
11
68
21
22
0
LINE
5
103
100
AcDbEntity
8
0
6
ByLayer
62
256
370
-1
100
AcDbLine
10
68
20
22
11
0
21
22
0
LINE
5
104
100
AcDbEntity
8
0
6
ByLayer
62
256
370
-1
100
AcDbLine
10
0
20
22
11
0
21
0
0
MTEXT
5
105
100
AcDbEntity
8
0
6
ByLayer
62
256
370
-1
100
AcDbMText
10
36
20
10
30
0
40
2.5
41
43.4027782557
71
5
72
1
1
Flat Straight POT (short)
7
standard
210
0
220
0
230
1
50
0
73
2
44
1
0
ENDBLK
5
61
330
5F
100
AcDbEntity
8
0
100
AcDbBlockEnd
0
BLOCK
5
63
330
62
100
AcDbEntity
8
0
100
AcDbBlockBegin
2
LCD 16x2
70
0
10
0
20
0
3
LCD 16x2
1

0
LINE
5
106
100
AcDbEntity
8
0
6
ByLayer
62
256
370
-1
100
AcDbLine
10
0
20
0
11
70
21
0
0
LINE
5
107
100
AcDbEntity
8
0
6
ByLayer
62
256
370
-1
100
AcDbLine
10
70
20
0
11
70
21
26.5
0
LINE
5
108
100
AcDbEntity
8
0
6
ByLayer
62
256
370
-1
100
AcDbLine
10
70
20
26.5
11
0
21
26.5
0
LINE
5
109
100
AcDbEntity
8
0
6
ByLayer
62
256
370
-1
100
AcDbLine
10
0
20
26.5
11
0
21
0
0
MTEXT
5
10A
100
AcDbEntity
8
0
6
ByLayer
62
256
370
-1
100
AcDbMText
10
35
20
13
30
0
40
5
41
28.75
71
5
72
1
1
LCD 16x2
7
standard
210
0
220
0
230
1
50
0
73
2
44
1
0
ENDBLK
5
64
330
62
100
AcDbEntity
8
0
100
AcDbBlockEnd
0
BLOCK
5
66
330
65
100
AcDbEntity
8
0
100
AcDbBlockBegin
2
5 position selector
70
0
10
0
20
0
3
5 position selector
1

0
LINE
5
10B
100
AcDbEntity
8
0
6
ByLayer
62
256
370
-1
100
AcDbLine
10
0
20
0
11
50
21
0
0
LINE
5
10C
100
AcDbEntity
8
0
6
ByLayer
62
256
370
-1
100
AcDbLine
10
50
20
0
11
50
21
10
0
LINE
5
10D
100
AcDbEntity
8
0
6
ByLayer
62
256
370
-1
100
AcDbLine
10
50
20
10
11
0
21
10
0
LINE
5
10E
100
AcDbEntity
8
0
6
ByLayer
62
256
370
-1
100
AcDbLine
10
0
20
10
11
0
21
0
0
MTEXT
5
10F
100
AcDbEntity
8
0
6
ByLayer
62
256
370
-1
100
AcDbMText
10
26
20
5
30
0
40
2.5
41
32.4305563113
71
5
72
1
1
5-Position Selector
7
standard
210
0
220
0
230
1
50
0
73
2
44
1
0
ENDBLK
5
67
330
65
100
AcDbEntity
8
0
100
AcDbBlockEnd
0
BLOCK
5
69
330
68
100
AcDbEntity
8
0
100
AcDbBlockBegin
2
LED Holder
70
0
10
0
20
0
3
LED Holder
1

0
CIRCLE
5
110
100
AcDbEntity
8
0
6
ByLayer
62
256
370
-1
100
AcDbCircle
10
0
20
0
40
4
0
MTEXT
5
111
100
AcDbEntity
8
0
6
ByLayer
62
256
370
-1
100
AcDbMText
10
0
20
0
30
0
40
2
41
4.22222222222
71
5
72
1
1
LED
7
standard
210
0
220
0
230
1
50
0
73
2
44
1
0
ENDBLK
5
6A
330
68
100
AcDbEntity
8
0
100
AcDbBlockEnd
0
BLOCK
5
6C
330
6B
100
AcDbEntity
8
0
100
AcDbBlockBegin
2
Pushbutton (non latching)
70
0
10
0
20
0
3
Pushbutton (non latching)
1

0
CIRCLE
5
112
100
AcDbEntity
8
0
6
ByLayer
62
256
370
-1
100
AcDbCircle
10
0
20
0
40
1.75
0
LINE
5
113
100
AcDbEntity
8
0
6
ByLayer
62
256
370
-1
100
AcDbLine
10
-3
20
-3
11
3
21
-3
0
LINE
5
114
100
AcDbEntity
8
0
6
ByLayer
62
256
370
-1
100
AcDbLine
10
3
20
-3
11
3
21
3
0
LINE
5
115
100
AcDbEntity
8
0
6
ByLayer
62
256
370
-1
100
AcDbLine
10
3
20
3
11
-3
21
3
0
LINE
5
116
100
AcDbEntity
8
0
6
ByLayer
62
256
370
-1
100
AcDbLine
10
-3
20
3
11
-3
21
-3
0
MTEXT
5
117
100
AcDbEntity
8
0
6
ByLayer
62
256
370
-1
100
AcDbMText
10
0
20
-1
30
0
40
1
41
2.222222
71
5
72
1
1
PB\P(NL)\P
7
standard
210
0
220
0
230
1
50
0
73
2
44
1
0
ENDBLK
5
6D
330
6B
100
AcDbEntity
8
0
100
AcDbBlockEnd
0
BLOCK
5
6F
330
6E
100
AcDbEntity
8
0
100
AcDbBlockBegin
2
LCD + 2 PBs
70
0
10
0
20
0
3
LCD + 2 PBs
1

0
INSERT
5
118
100
AcDbEntity
8
0
6
ByLayer
62
256
370
-1
100
AcDbBlockReference
2
LCD 16x2
10
-35
20
-13
30
0
41
1
42
1
43
0
50
0
70
1
71
1
44
0
45
0
0
INSERT
5
119
100
AcDbEntity
8
0
6
ByLayer
62
256
370
-1
100
AcDbBlockReference
2
Pushbutton (non latching)
10
8
20
-20
30
0
41
1
42
1
43
0
50
0
70
1
71
1
44
1
45
1
0
INSERT
5
11A
100
AcDbEntity
8
0
6
ByLayer
62
256
370
-1
100
AcDbBlockReference
2
Pushbutton (non latching)
10
-8
20
-20
30
0
41
1
42
1
43
0
50
0
70
1
71
1
44
1
45
1
0
ENDBLK
5
70
330
6E
100
AcDbEntity
8
0
100
AcDbBlockEnd
0
BLOCK
5
72
330
71
100
AcDbEntity
8
0
100
AcDbBlockBegin
2
PB + LED
70
0
10
0
20
0
3
PB + LED
1

0
INSERT
5
11B
100
AcDbEntity
8
0
6
ByLayer
62
256
370
-1
100
AcDbBlockReference
2
LED Holder
10
0
20
5
30
0
41
1
42
1
43
0
50
0
70
1
71
1
44
1
45
1
0
INSERT
5
11C
100
AcDbEntity
8
0
6
ByLayer
62
256
370
-1
100
AcDbBlockReference
2
Pushbutton (non latching)
10
0
20
-4
30
0
41
1
42
1
43
0
50
0
70
1
71
1
44
1
45
1
0
ENDBLK
5
73
330
71
100
AcDbEntity
8
0
100
AcDbBlockEnd
0
BLOCK
5
75
330
74
100
AcDbEntity
8
0
100
AcDbBlockBegin
2
LED 5x Cross
70
0
10
0
20
0
3
LED 5x Cross
1

0
INSERT
5
11D
100
AcDbEntity
8
0
6
ByLayer
62
256
370
-1
100
AcDbBlockReference
2
LED Holder
10
0
20
0
30
0
41
1
42
1
43
0
50
0
70
1
71
1
44
1
45
1
0
INSERT
5
11E
100
AcDbEntity
8
0
6
ByLayer
62
256
370
-1
100
AcDbBlockReference
2
LED Holder
10
0
20
10
30
0
41
1
42
1
43
0
50
0
70
1
71
1
44
1
45
1
0
INSERT
5
11F
100
AcDbEntity
8
0
6
ByLayer
62
256
370
-1
100
AcDbBlockReference
2
LED Holder
10
-10
20
0
30
0
41
1
42
1
43
0
50
0
70
1
71
1
44
1
45
1
0
INSERT
5
120
100
AcDbEntity
8
0
6
ByLayer
62
256
370
-1
100
AcDbBlockReference
2
LED Holder
10
0
20
-10
30
0
41
1
42
1
43
0
50
0
70
1
71
1
44
1
45
1
0
INSERT
5
121
100
AcDbEntity
8
0
6
ByLayer
62
256
370
-1
100
AcDbBlockReference
2
LED Holder
10
10
20
0
30
0
41
1
42
1
43
0
50
0
70
1
71
1
44
1
45
1
0
ENDBLK
5
76
330
74
100
AcDbEntity
8
0
100
AcDbBlockEnd
0
BLOCK
5
78
330
77
100
AcDbEntity
8
0
100
AcDbBlockBegin
2
HMI_00-0
70
0
10
0
20
0
3
HMI_00-0
1

0
INSERT
5
122
100
AcDbEntity
8
0
6
ByLayer
62
256
370
-1
100
AcDbBlockReference
2
LCD + 2 PBs
10
-200
20
200
30
0
41
1
42
1
43
0
50
0
70
1
71
1
44
1
45
1
0
INSERT
5
123
100
AcDbEntity
8
0
6
ByLayer
62
256
370
-1
100
AcDbBlockReference
2
Trackball
10
-60
20
190
30
0
41
1
42
1
43
0
50
0
70
1
71
1
44
1
45
1
0
INSERT
5
124
100
AcDbEntity
8
0
6
ByLayer
62
256
370
-1
100
AcDbBlockReference
2
PB + LED
10
-121.062177826
20
185.160254038
30
0
41
1
42
1
43
0
50
30
70
1
71
1
44
0
45
0
0
INSERT
5
125
100
AcDbEntity
8
0
6
ByLayer
62
256
370
-1
100
AcDbBlockReference
2
PB + LED
10
-108.937822174
20
192.160254038
30
0
41
1
42
1
43
0
50
30
70
1
71
1
44
0
45
0
0
INSERT
5
126
100
AcDbEntity
8
0
6
ByLayer
62
256
370
-1
100
AcDbBlockReference
2
PB + LED
10
-111.062177826
20
167.839745962
30
0
41
1
42
1
43
0
50
30
70
1
71
1
44
0
45
0
0
INSERT
5
127
100
AcDbEntity
8
0
6
ByLayer
62
256
370
-1
100
AcDbBlockReference
2
PB + LED
10
-98.9378221735
20
174.839745962
30
0
41
1
42
1
43
0
50
30
70
1
71
1
44
0
45
0
0
INSERT
5
128
100
AcDbEntity
8
0
6
ByLayer
62
256
370
-1
100
AcDbBlockReference
2
LED 5x Cross
10
-200
20
130
30
0
41
1
42
1
43
0
50
0
70
1
71
1
44
0
45
0
0
INSERT
5
129
100
AcDbEntity
8
0
6
ByLayer
62
256
370
-1
100
AcDbBlockReference
2
LED 5x Cross
10
-230
20
130
30
0
41
1
42
1
43
0
50
0
70
1
71
1
44
0
45
0
0
INSERT
5
12A
100
AcDbEntity
8
0
6
ByLayer
62
256
370
-1
100
AcDbBlockReference
2
LED 5x Cross
10
-230
20
90
30
0
41
1
42
1
43
0
50
0
70
1
71
1
44
0
45
0
0
INSERT
5
12B
100
AcDbEntity
8
0
6
ByLayer
62
256
370
-1
100
AcDbBlockReference
2
LED 5x Cross
10
-200
20
90
30
0
41
1
42
1
43
0
50
0
70
1
71
1
44
0
45
0
0
INSERT
5
12C
100
AcDbEntity
8
0
6
ByLayer
62
256
370
-1
100
AcDbBlockReference
2
5 position selector
10
-130
20
127.320508076
30
0
41
1
42
1
43
0
50
30
70
1
71
1
44
1
45
1
0
INSERT
5
12D
100
AcDbEntity
8
0
6
ByLayer
62
256
370
-1
100
AcDbBlockReference
2
5 position selector
10
-96.7390923627
20
95.8493649054
30
0
41
1
42
1
43
0
50
60
70
1
71
1
44
1
45
1
0
INSERT
5
12E
100
AcDbEntity
8
0
6
ByLayer
62
256
370
-1
100
AcDbBlockReference
2
Flat straight pot (short)
10
-110
20
10
30
0
41
1
42
1
43
0
50
90
70
1
71
1
44
1
45
1
0
INSERT
5
12F
100
AcDbEntity
8
0
6
ByLayer
62
256
370
-1
100
AcDbBlockReference
2
Flat straight pot (short)
10
-80
20
10
30
0
41
1
42
1
43
0
50
90
70
1
71
1
44
1
45
1
0
INSERT
5
130
100
AcDbEntity
8
0
6
ByLayer
62
256
370
-1
100
AcDbBlockReference
2
Flat straight pot (short)
10
-140
20
10
30
0
41
1
42
1
43
0
50
90
70
1
71
1
44
1
45
1
0
INSERT
5
131
100
AcDbEntity
8
0
6
ByLayer
62
256
370
-1
100
AcDbBlockReference
2
Flat straight pot (short)
10
-50
20
10
30
0
41
1
42
1
43
0
50
90
70
1
71
1
44
1
45
1
0
ENDBLK
5
79
330
77
100
AcDbEntity
8
0
100
AcDbBlockEnd
0
BLOCK
5
7B
330
7A
100
AcDbEntity
8
0
100
AcDbBlockBegin
2
Flat round pot (narrow)-0
70
0
10
0
20
0
3
Flat round pot (narrow)-0
1

0
CIRCLE
5
132
100
AcDbEntity
8
0
6
ByLayer
62
256
370
-1
100
AcDbCircle
10
0
20
0
40
20
0
MTEXT
5
133
100
AcDbEntity
8
0
6
ByLayer
62
256
370
-1
100
AcDbMText
10
0
20
1
30
0
40
2.5
41
24.5833333333
71
5
72
1
1
Flat round pot\P(narrow)
7
standard
210
0
220
0
230
1
50
0
73
2
44
1
0
ENDBLK
5
7C
330
7A
100
AcDbEntity
8
0
100
AcDbBlockEnd
0
BLOCK
5
7E
330
7D
100
AcDbEntity
8
0
100
AcDbBlockBegin
2
Flat round pot (wide)-0
70
0
10
0
20
0
3
Flat round pot (wide)-0
1

0
CIRCLE
5
134
100
AcDbEntity
8
0
6
ByLayer
62
256
370
-1
100
AcDbCircle
10
0
20
0
40
22
0
MTEXT
5
135
100
AcDbEntity
8
0
6
ByLayer
62
256
370
-1
100
AcDbMText
10
0
20
0
30
0
40
2.5
41
35.9027775
71
5
72
1
1
Flat round pot (wide)
7
standard
210
0
220
0
230
1
50
0
73
2
44
1
0
ENDBLK
5
7F
330
7D
100
AcDbEntity
8
0
100
AcDbBlockEnd
0
BLOCK
5
81
330
80
100
AcDbEntity
8
0
100
AcDbBlockBegin
2
Trackball-0
70
0
10
0
20
0
3
Trackball-0
1

0
CIRCLE
5
136
100
AcDbEntity
8
0
6
ByLayer
62
256
370
-1
100
AcDbCircle
10
0
20
0
40
21.5
0
MTEXT
5
137
100
AcDbEntity
8
0
6
ByLayer
62
256
370
-1
100
AcDbMText
10
0
20
0
30
0
40
5
41
30
71
5
72
1
1
TrackBall
7
standard
210
0
220
0
230
1
50
0
73
2
44
1
0
ENDBLK
5
82
330
80
100
AcDbEntity
8
0
100
AcDbBlockEnd
0
BLOCK
5
84
330
83
100
AcDbEntity
8
0
100
AcDbBlockBegin
2
PCB-1
70
0
10
0
20
0
3
PCB-1
1

0
LINE
5
138
100
AcDbEntity
8
0
6
ByLayer
62
256
370
-1
100
AcDbLine
10
0
20
0
11
180
21
0
0
LINE
5
139
100
AcDbEntity
8
0
6
ByLayer
62
256
370
-1
100
AcDbLine
10
180
20
0
11
180
21
140
0
LINE
5
13A
100
AcDbEntity
8
0
6
ByLayer
62
256
370
-1
100
AcDbLine
10
180
20
140
11
0
21
140
0
LINE
5
13B
100
AcDbEntity
8
0
6
ByLayer
62
256
370
-1
100
AcDbLine
10
0
20
140
11
0
21
0
0
MTEXT
5
13C
100
AcDbEntity
8
0
6
ByLayer
62
256
370
-1
100
AcDbMText
10
90
20
70
30
0
40
5
41
11.1111111111
71
5
72
1
1
PCB
7
standard
210
0
220
0
230
1
50
0
73
2
44
1
0
ENDBLK
5
85
330
83
100
AcDbEntity
8
0
100
AcDbBlockEnd
0
BLOCK
5
87
330
86
100
AcDbEntity
8
0
100
AcDbBlockBegin
2
Flat straight pot (long)-0
70
0
10
0
20
0
3
Flat straight pot (long)-0
1

0
LINE
5
13D
100
AcDbEntity
8
0
6
ByLayer
62
256
370
-1
100
AcDbLine
10
0
20
0
11
118
21
0
0
LINE
5
13E
100
AcDbEntity
8
0
6
ByLayer
62
256
370
-1
100
AcDbLine
10
118
20
0
11
118
21
22
0
LINE
5
13F
100
AcDbEntity
8
0
6
ByLayer
62
256
370
-1
100
AcDbLine
10
118
20
22
11
0
21
22
0
LINE
5
140
100
AcDbEntity
8
0
6
ByLayer
62
256
370
-1
100
AcDbLine
10
0
20
22
11
0
21
0
0
MTEXT
5
141
100
AcDbEntity
8
0
6
ByLayer
62
256
370
-1
100
AcDbMText
10
60
20
11
30
0
40
2.5
41
41.1805547478
71
5
72
1
1
Flat Straight POT (long)
7
standard
210
0
220
0
230
1
50
0
73
2
44
1
0
ENDBLK
5
88
330
86
100
AcDbEntity
8
0
100
AcDbBlockEnd
0
BLOCK
5
8A
330
89
100
AcDbEntity
8
0
100
AcDbBlockBegin
2
Flat straight pot (short)-0
70
0
10
0
20
0
3
Flat straight pot (short)-0
1

0
LINE
5
142
100
AcDbEntity
8
0
6
ByLayer
62
256
370
-1
100
AcDbLine
10
0
20
0
11
68
21
0
0
LINE
5
143
100
AcDbEntity
8
0
6
ByLayer
62
256
370
-1
100
AcDbLine
10
68
20
0
11
68
21
22
0
LINE
5
144
100
AcDbEntity
8
0
6
ByLayer
62
256
370
-1
100
AcDbLine
10
68
20
22
11
0
21
22
0
LINE
5
145
100
AcDbEntity
8
0
6
ByLayer
62
256
370
-1
100
AcDbLine
10
0
20
22
11
0
21
0
0
MTEXT
5
146
100
AcDbEntity
8
0
6
ByLayer
62
256
370
-1
100
AcDbMText
10
36
20
10
30
0
40
2.5
41
43.4027782557
71
5
72
1
1
Flat Straight POT (short)
7
standard
210
0
220
0
230
1
50
0
73
2
44
1
0
ENDBLK
5
8B
330
89
100
AcDbEntity
8
0
100
AcDbBlockEnd
0
BLOCK
5
8D
330
8C
100
AcDbEntity
8
0
100
AcDbBlockBegin
2
LCD 16x2-0
70
0
10
0
20
0
3
LCD 16x2-0
1

0
LINE
5
147
100
AcDbEntity
8
0
6
ByLayer
62
256
370
-1
100
AcDbLine
10
0
20
0
11
70
21
0
0
LINE
5
148
100
AcDbEntity
8
0
6
ByLayer
62
256
370
-1
100
AcDbLine
10
70
20
0
11
70
21
26.5
0
LINE
5
149
100
AcDbEntity
8
0
6
ByLayer
62
256
370
-1
100
AcDbLine
10
70
20
26.5
11
0
21
26.5
0
LINE
5
14A
100
AcDbEntity
8
0
6
ByLayer
62
256
370
-1
100
AcDbLine
10
0
20
26.5
11
0
21
0
0
MTEXT
5
14B
100
AcDbEntity
8
0
6
ByLayer
62
256
370
-1
100
AcDbMText
10
35
20
13
30
0
40
5
41
28.75
71
5
72
1
1
LCD 16x2
7
standard
210
0
220
0
230
1
50
0
73
2
44
1
0
ENDBLK
5
8E
330
8C
100
AcDbEntity
8
0
100
AcDbBlockEnd
0
BLOCK
5
90
330
8F
100
AcDbEntity
8
0
100
AcDbBlockBegin
2
5 position selector-0
70
0
10
0
20
0
3
5 position selector-0
1

0
LINE
5
14C
100
AcDbEntity
8
0
6
ByLayer
62
256
370
-1
100
AcDbLine
10
0
20
0
11
50
21
0
0
LINE
5
14D
100
AcDbEntity
8
0
6
ByLayer
62
256
370
-1
100
AcDbLine
10
50
20
0
11
50
21
10
0
LINE
5
14E
100
AcDbEntity
8
0
6
ByLayer
62
256
370
-1
100
AcDbLine
10
50
20
10
11
0
21
10
0
LINE
5
14F
100
AcDbEntity
8
0
6
ByLayer
62
256
370
-1
100
AcDbLine
10
0
20
10
11
0
21
0
0
MTEXT
5
150
100
AcDbEntity
8
0
6
ByLayer
62
256
370
-1
100
AcDbMText
10
26
20
5
30
0
40
2.5
41
32.4305563113
71
5
72
1
1
5-Position Selector
7
standard
210
0
220
0
230
1
50
0
73
2
44
1
0
ENDBLK
5
91
330
8F
100
AcDbEntity
8
0
100
AcDbBlockEnd
0
BLOCK
5
93
330
92
100
AcDbEntity
8
0
100
AcDbBlockBegin
2
LED Holder-0
70
0
10
0
20
0
3
LED Holder-0
1

0
CIRCLE
5
151
100
AcDbEntity
8
0
6
ByLayer
62
256
370
-1
100
AcDbCircle
10
0
20
0
40
4
0
MTEXT
5
152
100
AcDbEntity
8
0
6
ByLayer
62
256
370
-1
100
AcDbMText
10
0
20
0
30
0
40
2
41
4.22222222222
71
5
72
1
1
LED
7
standard
210
0
220
0
230
1
50
0
73
2
44
1
0
ENDBLK
5
94
330
92
100
AcDbEntity
8
0
100
AcDbBlockEnd
0
BLOCK
5
96
330
95
100
AcDbEntity
8
0
100
AcDbBlockBegin
2
Pushbutton (non latching)-0
70
0
10
0
20
0
3
Pushbutton (non latching)-0
1

0
CIRCLE
5
153
100
AcDbEntity
8
0
6
ByLayer
62
256
370
-1
100
AcDbCircle
10
0
20
0
40
1.75
0
LINE
5
154
100
AcDbEntity
8
0
6
ByLayer
62
256
370
-1
100
AcDbLine
10
-3
20
-3
11
3
21
-3
0
LINE
5
155
100
AcDbEntity
8
0
6
ByLayer
62
256
370
-1
100
AcDbLine
10
3
20
-3
11
3
21
3
0
LINE
5
156
100
AcDbEntity
8
0
6
ByLayer
62
256
370
-1
100
AcDbLine
10
3
20
3
11
-3
21
3
0
LINE
5
157
100
AcDbEntity
8
0
6
ByLayer
62
256
370
-1
100
AcDbLine
10
-3
20
3
11
-3
21
-3
0
MTEXT
5
158
100
AcDbEntity
8
0
6
ByLayer
62
256
370
-1
100
AcDbMText
10
0
20
-1
30
0
40
1
41
2.222222
71
5
72
1
1
PB\P(NL)\P
7
standard
210
0
220
0
230
1
50
0
73
2
44
1
0
ENDBLK
5
97
330
95
100
AcDbEntity
8
0
100
AcDbBlockEnd
0
BLOCK
5
99
330
98
100
AcDbEntity
8
0
100
AcDbBlockBegin
2
LCD + 2 PBs-0
70
0
10
0
20
0
3
LCD + 2 PBs-0
1

0
INSERT
5
159
100
AcDbEntity
8
0
6
ByLayer
62
256
370
-1
100
AcDbBlockReference
2
LCD 16x2-0
10
-35
20
-13
30
0
41
1
42
1
43
0
50
0
70
1
71
1
44
0
45
0
0
INSERT
5
15A
100
AcDbEntity
8
0
6
ByLayer
62
256
370
-1
100
AcDbBlockReference
2
Pushbutton (non latching)-0
10
8
20
-20
30
0
41
1
42
1
43
0
50
0
70
1
71
1
44
1
45
1
0
INSERT
5
15B
100
AcDbEntity
8
0
6
ByLayer
62
256
370
-1
100
AcDbBlockReference
2
Pushbutton (non latching)-0
10
-8
20
-20
30
0
41
1
42
1
43
0
50
0
70
1
71
1
44
1
45
1
0
ENDBLK
5
9A
330
98
100
AcDbEntity
8
0
100
AcDbBlockEnd
0
BLOCK
5
9C
330
9B
100
AcDbEntity
8
0
100
AcDbBlockBegin
2
PB + LED-0
70
0
10
0
20
0
3
PB + LED-0
1

0
INSERT
5
15C
100
AcDbEntity
8
0
6
ByLayer
62
256
370
-1
100
AcDbBlockReference
2
LED Holder-0
10
0
20
5
30
0
41
1
42
1
43
0
50
0
70
1
71
1
44
1
45
1
0
INSERT
5
15D
100
AcDbEntity
8
0
6
ByLayer
62
256
370
-1
100
AcDbBlockReference
2
Pushbutton (non latching)-0
10
0
20
-4
30
0
41
1
42
1
43
0
50
0
70
1
71
1
44
1
45
1
0
ENDBLK
5
9D
330
9B
100
AcDbEntity
8
0
100
AcDbBlockEnd
0
BLOCK
5
9F
330
9E
100
AcDbEntity
8
0
100
AcDbBlockBegin
2
LED 5x Cross-0
70
0
10
0
20
0
3
LED 5x Cross-0
1

0
INSERT
5
15E
100
AcDbEntity
8
0
6
ByLayer
62
256
370
-1
100
AcDbBlockReference
2
LED Holder-0
10
0
20
0
30
0
41
1
42
1
43
0
50
0
70
1
71
1
44
1
45
1
0
INSERT
5
15F
100
AcDbEntity
8
0
6
ByLayer
62
256
370
-1
100
AcDbBlockReference
2
LED Holder-0
10
0
20
10
30
0
41
1
42
1
43
0
50
0
70
1
71
1
44
1
45
1
0
INSERT
5
160
100
AcDbEntity
8
0
6
ByLayer
62
256
370
-1
100
AcDbBlockReference
2
LED Holder-0
10
-10
20
0
30
0
41
1
42
1
43
0
50
0
70
1
71
1
44
1
45
1
0
INSERT
5
161
100
AcDbEntity
8
0
6
ByLayer
62
256
370
-1
100
AcDbBlockReference
2
LED Holder-0
10
0
20
-10
30
0
41
1
42
1
43
0
50
0
70
1
71
1
44
1
45
1
0
INSERT
5
162
100
AcDbEntity
8
0
6
ByLayer
62
256
370
-1
100
AcDbBlockReference
2
LED Holder-0
10
10
20
0
30
0
41
1
42
1
43
0
50
0
70
1
71
1
44
1
45
1
0
ENDBLK
5
A0
330
9E
100
AcDbEntity
8
0
100
AcDbBlockEnd
0
BLOCK
5
A2
330
A1
100
AcDbEntity
8
0
100
AcDbBlockBegin
2
HMI_00-1
70
0
10
0
20
0
3
HMI_00-1
1

0
INSERT
5
163
100
AcDbEntity
8
0
6
ByLayer
62
256
370
-1
100
AcDbBlockReference
2
LCD + 2 PBs-0
10
-200
20
200
30
0
41
1
42
1
43
0
50
0
70
1
71
1
44
1
45
1
0
INSERT
5
164
100
AcDbEntity
8
0
6
ByLayer
62
256
370
-1
100
AcDbBlockReference
2
Trackball-0
10
-60
20
190
30
0
41
1
42
1
43
0
50
0
70
1
71
1
44
1
45
1
0
INSERT
5
165
100
AcDbEntity
8
0
6
ByLayer
62
256
370
-1
100
AcDbBlockReference
2
PB + LED-0
10
-121.062177826
20
185.160254038
30
0
41
1
42
1
43
0
50
30
70
1
71
1
44
0
45
0
0
INSERT
5
166
100
AcDbEntity
8
0
6
ByLayer
62
256
370
-1
100
AcDbBlockReference
2
PB + LED-0
10
-108.937822174
20
192.160254038
30
0
41
1
42
1
43
0
50
30
70
1
71
1
44
0
45
0
0
INSERT
5
167
100
AcDbEntity
8
0
6
ByLayer
62
256
370
-1
100
AcDbBlockReference
2
PB + LED-0
10
-111.062177826
20
167.839745962
30
0
41
1
42
1
43
0
50
30
70
1
71
1
44
0
45
0
0
INSERT
5
168
100
AcDbEntity
8
0
6
ByLayer
62
256
370
-1
100
AcDbBlockReference
2
PB + LED-0
10
-98.9378221735
20
174.839745962
30
0
41
1
42
1
43
0
50
30
70
1
71
1
44
0
45
0
0
INSERT
5
169
100
AcDbEntity
8
0
6
ByLayer
62
256
370
-1
100
AcDbBlockReference
2
LED 5x Cross-0
10
-200
20
130
30
0
41
1
42
1
43
0
50
0
70
1
71
1
44
0
45
0
0
INSERT
5
16A
100
AcDbEntity
8
0
6
ByLayer
62
256
370
-1
100
AcDbBlockReference
2
LED 5x Cross-0
10
-230
20
130
30
0
41
1
42
1
43
0
50
0
70
1
71
1
44
0
45
0
0
INSERT
5
16B
100
AcDbEntity
8
0
6
ByLayer
62
256
370
-1
100
AcDbBlockReference
2
LED 5x Cross-0
10
-230
20
90
30
0
41
1
42
1
43
0
50
0
70
1
71
1
44
0
45
0
0
INSERT
5
16C
100
AcDbEntity
8
0
6
ByLayer
62
256
370
-1
100
AcDbBlockReference
2
LED 5x Cross-0
10
-200
20
90
30
0
41
1
42
1
43
0
50
0
70
1
71
1
44
0
45
0
0
INSERT
5
16D
100
AcDbEntity
8
0
6
ByLayer
62
256
370
-1
100
AcDbBlockReference
2
5 position selector-0
10
-130
20
127.320508076
30
0
41
1
42
1
43
0
50
30
70
1
71
1
44
1
45
1
0
INSERT
5
16E
100
AcDbEntity
8
0
6
ByLayer
62
256
370
-1
100
AcDbBlockReference
2
5 position selector-0
10
-96.7390923627
20
95.8493649054
30
0
41
1
42
1
43
0
50
60
70
1
71
1
44
1
45
1
0
INSERT
5
16F
100
AcDbEntity
8
0
6
ByLayer
62
256
370
-1
100
AcDbBlockReference
2
Flat straight pot (short)-0
10
-110
20
10
30
0
41
1
42
1
43
0
50
90
70
1
71
1
44
1
45
1
0
INSERT
5
170
100
AcDbEntity
8
0
6
ByLayer
62
256
370
-1
100
AcDbBlockReference
2
Flat straight pot (short)-0
10
-80
20
10
30
0
41
1
42
1
43
0
50
90
70
1
71
1
44
1
45
1
0
INSERT
5
171
100
AcDbEntity
8
0
6
ByLayer
62
256
370
-1
100
AcDbBlockReference
2
Flat straight pot (short)-0
10
-140
20
10
30
0
41
1
42
1
43
0
50
90
70
1
71
1
44
1
45
1
0
INSERT
5
172
100
AcDbEntity
8
0
6
ByLayer
62
256
370
-1
100
AcDbBlockReference
2
Flat straight pot (short)-0
10
-50
20
10
30
0
41
1
42
1
43
0
50
90
70
1
71
1
44
1
45
1
0
ENDBLK
5
A3
330
A1
100
AcDbEntity
8
0
100
AcDbBlockEnd
0
BLOCK
5
A5
330
A4
100
AcDbEntity
8
0
100
AcDbBlockBegin
2
flat v/t x5
70
0
10
0
20
0
3
flat v/t x5
1

0
INSERT
5
173
100
AcDbEntity
8
0
6
ByLayer
62
256
370
-1
100
AcDbBlockReference
2
Flat straight pot (short)-0
10
-132
20
2.39808173319e-14
30
0
41
1
42
1
43
0
50
270
70
1
71
1
44
1
45
1
0
INSERT
5
174
100
AcDbEntity
8
0
6
ByLayer
62
256
370
-1
100
AcDbBlockReference
2
Flat straight pot (short)-0
10
-110
20
1.99840144433e-14
30
0
41
1
42
1
43
0
50
270
70
1
71
1
44
1
45
1
0
INSERT
5
175
100
AcDbEntity
8
0
6
ByLayer
62
256
370
-1
100
AcDbBlockReference
2
Flat straight pot (short)-0
10
-88
20
1.59872115546e-14
30
0
41
1
42
1
43
0
50
270
70
1
71
1
44
1
45
1
0
INSERT
5
176
100
AcDbEntity
8
0
6
ByLayer
62
256
370
-1
100
AcDbBlockReference
2
Flat straight pot (short)-0
10
-66
20
1.1990408666e-14
30
0
41
1
42
1
43
0
50
270
70
1
71
1
44
1
45
1
0
LINE
5
177
100
AcDbEntity
8
Guitar Guides
6
DOT2
62
256
370
-1
100
AcDbLine
10
-66
20
1.1990408666e-14
11
-66
21
1
0
INSERT
5
178
100
AcDbEntity
8
0
6
ByLayer
62
256
370
-1
100
AcDbBlockReference
2
Flat straight pot (short)-0
10
-22
20
3.99680288865e-15
30
0
41
1
42
1
43
0
50
270
70
1
71
1
44
1
45
1
0
ENDBLK
5
A6
330
A4
100
AcDbEntity
8
0
100
AcDbBlockEnd
0
BLOCK
5
A8
330
A7
100
AcDbEntity
8
0
100
AcDbBlockBegin
2
PB+LED 4x
70
0
10
0
20
0
3
PB+LED 4x
1

0
INSERT
5
179
100
AcDbEntity
8
0
6
ByLayer
62
256
370
-1
100
AcDbBlockReference
2
PB + LED-0
10
10.9019237886
20
-24.8826859025
30
0
41
1
42
1
43
0
50
210
70
1
71
1
44
0
45
0
0
INSERT
5
17A
100
AcDbEntity
8
0
6
ByLayer
62
256
370
-1
100
AcDbBlockReference
2
PB + LED-0
10
-1.22243186335
20
-31.8826859025
30
0
41
1
42
1
43
0
50
210
70
1
71
1
44
0
45
0
0
INSERT
5
17B
100
AcDbEntity
8
0
6
ByLayer
62
256
370
-1
100
AcDbBlockReference
2
PB + LED-0
10
0.901923788647
20
-7.56217782649
30
0
41
1
42
1
43
0
50
210
70
1
71
1
44
0
45
0
0
INSERT
5
17C
100
AcDbEntity
8
0
6
ByLayer
62
256
370
-1
100
AcDbBlockReference
2
PB + LED-0
10
-11.2224318639
20
-14.5621778265
30
0
41
1
42
1
43
0
50
210
70
1
71
1
44
0
45
0
0
ENDBLK
5
A9
330
A7
100
AcDbEntity
8
0
100
AcDbBlockEnd
0
BLOCK
5
AB
330
AA
100
AcDbEntity
8
0
100
AcDbBlockBegin
2
Flat round pot (narrow)-1
70
0
10
0
20
0
3
Flat round pot (narrow)-1
1

0
CIRCLE
5
17D
100
AcDbEntity
8
0
6
ByLayer
62
256
370
-1
100
AcDbCircle
10
0
20
0
40
20
0
MTEXT
5
17E
100
AcDbEntity
8
0
6
ByLayer
62
256
370
-1
100
AcDbMText
10
0
20
1
30
0
40
2.5
41
24.5833333333
71
5
72
1
1
Flat round pot\P(narrow)
7
standard
210
0
220
0
230
1
50
0
73
2
44
1
0
ENDBLK
5
AC
330
AA
100
AcDbEntity
8
0
100
AcDbBlockEnd
0
BLOCK
5
AE
330
AD
100
AcDbEntity
8
0
100
AcDbBlockBegin
2
Flat round pot (wide)-1
70
0
10
0
20
0
3
Flat round pot (wide)-1
1

0
CIRCLE
5
17F
100
AcDbEntity
8
0
6
ByLayer
62
256
370
-1
100
AcDbCircle
10
0
20
0
40
22
0
MTEXT
5
180
100
AcDbEntity
8
0
6
ByLayer
62
256
370
-1
100
AcDbMText
10
0
20
0
30
0
40
2.5
41
35.9027775
71
5
72
1
1
Flat round pot (wide)
7
standard
210
0
220
0
230
1
50
0
73
2
44
1
0
ENDBLK
5
AF
330
AD
100
AcDbEntity
8
0
100
AcDbBlockEnd
0
BLOCK
5
B1
330
B0
100
AcDbEntity
8
0
100
AcDbBlockBegin
2
Trackball-1
70
0
10
0
20
0
3
Trackball-1
1

0
CIRCLE
5
181
100
AcDbEntity
8
0
6
ByLayer
62
256
370
-1
100
AcDbCircle
10
0
20
0
40
21.5
0
MTEXT
5
182
100
AcDbEntity
8
0
6
ByLayer
62
256
370
-1
100
AcDbMText
10
0
20
0
30
0
40
5
41
30
71
5
72
1
1
TrackBall
7
standard
210
0
220
0
230
1
50
0
73
2
44
1
0
ENDBLK
5
B2
330
B0
100
AcDbEntity
8
0
100
AcDbBlockEnd
0
BLOCK
5
B4
330
B3
100
AcDbEntity
8
0
100
AcDbBlockBegin
2
PCB-2
70
0
10
0
20
0
3
PCB-2
1

0
LINE
5
183
100
AcDbEntity
8
0
6
ByLayer
62
256
370
-1
100
AcDbLine
10
0
20
0
11
180
21
0
0
LINE
5
184
100
AcDbEntity
8
0
6
ByLayer
62
256
370
-1
100
AcDbLine
10
180
20
0
11
180
21
140
0
LINE
5
185
100
AcDbEntity
8
0
6
ByLayer
62
256
370
-1
100
AcDbLine
10
180
20
140
11
0
21
140
0
LINE
5
186
100
AcDbEntity
8
0
6
ByLayer
62
256
370
-1
100
AcDbLine
10
0
20
140
11
0
21
0
0
MTEXT
5
187
100
AcDbEntity
8
0
6
ByLayer
62
256
370
-1
100
AcDbMText
10
90
20
70
30
0
40
5
41
11.1111111111
71
5
72
1
1
PCB
7
standard
210
0
220
0
230
1
50
0
73
2
44
1
0
ENDBLK
5
B5
330
B3
100
AcDbEntity
8
0
100
AcDbBlockEnd
0
BLOCK
5
B7
330
B6
100
AcDbEntity
8
0
100
AcDbBlockBegin
2
Flat straight pot (long)-1
70
0
10
0
20
0
3
Flat straight pot (long)-1
1

0
LINE
5
188
100
AcDbEntity
8
0
6
ByLayer
62
256
370
-1
100
AcDbLine
10
0
20
0
11
118
21
0
0
LINE
5
189
100
AcDbEntity
8
0
6
ByLayer
62
256
370
-1
100
AcDbLine
10
118
20
0
11
118
21
22
0
LINE
5
18A
100
AcDbEntity
8
0
6
ByLayer
62
256
370
-1
100
AcDbLine
10
118
20
22
11
0
21
22
0
LINE
5
18B
100
AcDbEntity
8
0
6
ByLayer
62
256
370
-1
100
AcDbLine
10
0
20
22
11
0
21
0
0
MTEXT
5
18C
100
AcDbEntity
8
0
6
ByLayer
62
256
370
-1
100
AcDbMText
10
60
20
11
30
0
40
2.5
41
41.1805547478
71
5
72
1
1
Flat Straight POT (long)
7
standard
210
0
220
0
230
1
50
0
73
2
44
1
0
ENDBLK
5
B8
330
B6
100
AcDbEntity
8
0
100
AcDbBlockEnd
0
BLOCK
5
BA
330
B9
100
AcDbEntity
8
0
100
AcDbBlockBegin
2
Flat straight pot (short)-1
70
0
10
0
20
0
3
Flat straight pot (short)-1
1

0
LINE
5
18D
100
AcDbEntity
8
0
6
ByLayer
62
256
370
-1
100
AcDbLine
10
0
20
0
11
68
21
0
0
LINE
5
18E
100
AcDbEntity
8
0
6
ByLayer
62
256
370
-1
100
AcDbLine
10
68
20
0
11
68
21
22
0
LINE
5
18F
100
AcDbEntity
8
0
6
ByLayer
62
256
370
-1
100
AcDbLine
10
68
20
22
11
0
21
22
0
LINE
5
190
100
AcDbEntity
8
0
6
ByLayer
62
256
370
-1
100
AcDbLine
10
0
20
22
11
0
21
0
0
MTEXT
5
191
100
AcDbEntity
8
0
6
ByLayer
62
256
370
-1
100
AcDbMText
10
36
20
10
30
0
40
2.5
41
43.4027782557
71
5
72
1
1
Flat Straight POT (short)
7
standard
210
0
220
0
230
1
50
0
73
2
44
1
0
ENDBLK
5
BB
330
B9
100
AcDbEntity
8
0
100
AcDbBlockEnd
0
BLOCK
5
BD
330
BC
100
AcDbEntity
8
0
100
AcDbBlockBegin
2
LCD 16x2-1
70
0
10
0
20
0
3
LCD 16x2-1
1

0
LINE
5
192
100
AcDbEntity
8
0
6
ByLayer
62
256
370
-1
100
AcDbLine
10
0
20
0
11
70
21
0
0
LINE
5
193
100
AcDbEntity
8
0
6
ByLayer
62
256
370
-1
100
AcDbLine
10
70
20
0
11
70
21
26.5
0
LINE
5
194
100
AcDbEntity
8
0
6
ByLayer
62
256
370
-1
100
AcDbLine
10
70
20
26.5
11
0
21
26.5
0
LINE
5
195
100
AcDbEntity
8
0
6
ByLayer
62
256
370
-1
100
AcDbLine
10
0
20
26.5
11
0
21
0
0
MTEXT
5
196
100
AcDbEntity
8
0
6
ByLayer
62
256
370
-1
100
AcDbMText
10
35
20
13
30
0
40
5
41
28.75
71
5
72
1
1
LCD 16x2
7
standard
210
0
220
0
230
1
50
0
73
2
44
1
0
ENDBLK
5
BE
330
BC
100
AcDbEntity
8
0
100
AcDbBlockEnd
0
BLOCK
5
C0
330
BF
100
AcDbEntity
8
0
100
AcDbBlockBegin
2
5 position selector-1
70
0
10
0
20
0
3
5 position selector-1
1

0
LINE
5
197
100
AcDbEntity
8
0
6
ByLayer
62
256
370
-1
100
AcDbLine
10
0
20
0
11
50
21
0
0
LINE
5
198
100
AcDbEntity
8
0
6
ByLayer
62
256
370
-1
100
AcDbLine
10
50
20
0
11
50
21
10
0
LINE
5
199
100
AcDbEntity
8
0
6
ByLayer
62
256
370
-1
100
AcDbLine
10
50
20
10
11
0
21
10
0
LINE
5
19A
100
AcDbEntity
8
0
6
ByLayer
62
256
370
-1
100
AcDbLine
10
0
20
10
11
0
21
0
0
MTEXT
5
19B
100
AcDbEntity
8
0
6
ByLayer
62
256
370
-1
100
AcDbMText
10
26
20
5
30
0
40
2.5
41
32.4305563113
71
5
72
1
1
5-Position Selector
7
standard
210
0
220
0
230
1
50
0
73
2
44
1
0
ENDBLK
5
C1
330
BF
100
AcDbEntity
8
0
100
AcDbBlockEnd
0
BLOCK
5
C3
330
C2
100
AcDbEntity
8
0
100
AcDbBlockBegin
2
LED Holder-1
70
0
10
0
20
0
3
LED Holder-1
1

0
CIRCLE
5
19C
100
AcDbEntity
8
0
6
ByLayer
62
256
370
-1
100
AcDbCircle
10
0
20
0
40
4
0
MTEXT
5
19D
100
AcDbEntity
8
0
6
ByLayer
62
256
370
-1
100
AcDbMText
10
0
20
0
30
0
40
2
41
4.22222222222
71
5
72
1
1
LED
7
standard
210
0
220
0
230
1
50
0
73
2
44
1
0
ENDBLK
5
C4
330
C2
100
AcDbEntity
8
0
100
AcDbBlockEnd
0
BLOCK
5
C6
330
C5
100
AcDbEntity
8
0
100
AcDbBlockBegin
2
Pushbutton (non latching)-1
70
0
10
0
20
0
3
Pushbutton (non latching)-1
1

0
CIRCLE
5
19E
100
AcDbEntity
8
0
6
ByLayer
62
256
370
-1
100
AcDbCircle
10
0
20
0
40
1.75
0
LINE
5
19F
100
AcDbEntity
8
0
6
ByLayer
62
256
370
-1
100
AcDbLine
10
-3
20
-3
11
3
21
-3
0
LINE
5
1A0
100
AcDbEntity
8
0
6
ByLayer
62
256
370
-1
100
AcDbLine
10
3
20
-3
11
3
21
3
0
LINE
5
1A1
100
AcDbEntity
8
0
6
ByLayer
62
256
370
-1
100
AcDbLine
10
3
20
3
11
-3
21
3
0
LINE
5
1A2
100
AcDbEntity
8
0
6
ByLayer
62
256
370
-1
100
AcDbLine
10
-3
20
3
11
-3
21
-3
0
MTEXT
5
1A3
100
AcDbEntity
8
0
6
ByLayer
62
256
370
-1
100
AcDbMText
10
0
20
-1
30
0
40
1
41
2.222222
71
5
72
1
1
PB\P(NL)\P
7
standard
210
0
220
0
230
1
50
0
73
2
44
1
0
ENDBLK
5
C7
330
C5
100
AcDbEntity
8
0
100
AcDbBlockEnd
0
BLOCK
5
C9
330
C8
100
AcDbEntity
8
0
100
AcDbBlockBegin
2
LCD + 2 PBs-1
70
0
10
0
20
0
3
LCD + 2 PBs-1
1

0
INSERT
5
1A4
100
AcDbEntity
8
0
6
ByLayer
62
256
370
-1
100
AcDbBlockReference
2
LCD 16x2-1
10
-35
20
-13
30
0
41
1
42
1
43
0
50
0
70
1
71
1
44
0
45
0
0
INSERT
5
1A5
100
AcDbEntity
8
0
6
ByLayer
62
256
370
-1
100
AcDbBlockReference
2
Pushbutton (non latching)-1
10
8
20
-20
30
0
41
1
42
1
43
0
50
0
70
1
71
1
44
1
45
1
0
INSERT
5
1A6
100
AcDbEntity
8
0
6
ByLayer
62
256
370
-1
100
AcDbBlockReference
2
Pushbutton (non latching)-1
10
-8
20
-20
30
0
41
1
42
1
43
0
50
0
70
1
71
1
44
1
45
1
0
ENDBLK
5
CA
330
C8
100
AcDbEntity
8
0
100
AcDbBlockEnd
0
BLOCK
5
CC
330
CB
100
AcDbEntity
8
0
100
AcDbBlockBegin
2
PB + LED-1
70
0
10
0
20
0
3
PB + LED-1
1

0
INSERT
5
1A7
100
AcDbEntity
8
0
6
ByLayer
62
256
370
-1
100
AcDbBlockReference
2
LED Holder-1
10
0
20
5
30
0
41
1
42
1
43
0
50
0
70
1
71
1
44
1
45
1
0
INSERT
5
1A8
100
AcDbEntity
8
0
6
ByLayer
62
256
370
-1
100
AcDbBlockReference
2
Pushbutton (non latching)-1
10
0
20
-4
30
0
41
1
42
1
43
0
50
0
70
1
71
1
44
1
45
1
0
ENDBLK
5
CD
330
CB
100
AcDbEntity
8
0
100
AcDbBlockEnd
0
BLOCK
5
CF
330
CE
100
AcDbEntity
8
0
100
AcDbBlockBegin
2
LED 5x Cross-1
70
0
10
0
20
0
3
LED 5x Cross-1
1

0
INSERT
5
1A9
100
AcDbEntity
8
0
6
ByLayer
62
256
370
-1
100
AcDbBlockReference
2
LED Holder-1
10
0
20
0
30
0
41
1
42
1
43
0
50
0
70
1
71
1
44
1
45
1
0
INSERT
5
1AA
100
AcDbEntity
8
0
6
ByLayer
62
256
370
-1
100
AcDbBlockReference
2
LED Holder-1
10
0
20
10
30
0
41
1
42
1
43
0
50
0
70
1
71
1
44
1
45
1
0
INSERT
5
1AB
100
AcDbEntity
8
0
6
ByLayer
62
256
370
-1
100
AcDbBlockReference
2
LED Holder-1
10
-10
20
0
30
0
41
1
42
1
43
0
50
0
70
1
71
1
44
1
45
1
0
INSERT
5
1AC
100
AcDbEntity
8
0
6
ByLayer
62
256
370
-1
100
AcDbBlockReference
2
LED Holder-1
10
0
20
-10
30
0
41
1
42
1
43
0
50
0
70
1
71
1
44
1
45
1
0
INSERT
5
1AD
100
AcDbEntity
8
0
6
ByLayer
62
256
370
-1
100
AcDbBlockReference
2
LED Holder-1
10
10
20
0
30
0
41
1
42
1
43
0
50
0
70
1
71
1
44
1
45
1
0
ENDBLK
5
D0
330
CE
100
AcDbEntity
8
0
100
AcDbBlockEnd
0
BLOCK
5
D2
330
D1
100
AcDbEntity
8
0
100
AcDbBlockBegin
2
Selectors 2x
70
0
10
0
20
0
3
Selectors 2x
1

0
INSERT
5
1AE
100
AcDbEntity
8
0
6
DOT2
62
256
370
-1
100
AcDbBlockReference
2
5 position selector-1
10
0
20
0
30
0
41
1
42
1
43
0
50
180
70
1
71
1
44
1
45
1
0
INSERT
5
1AF
100
AcDbEntity
8
0
6
DOT2
62
256
370
-1
100
AcDbBlockReference
2
5 position selector-1
10
13.6773436309
20
-36.4280396723
30
0
41
-1
42
1
43
0
50
38.2132107017
70
1
71
1
44
1
45
1
0
ENDBLK
5
D3
330
D1
100
AcDbEntity
8
0
100
AcDbBlockEnd
0
BLOCK
5
D5
330
D4
100
AcDbEntity
8
0
100
AcDbBlockBegin
2
Selectors Crossed
70
0
10
0
20
0
3
Selectors Crossed
1

0
INSERT
5
1B0
100
AcDbEntity
8
0
6
DOT2
62
256
370
-1
100
AcDbBlockReference
2
5 position selector-1
10
-50
20
-2.84217094304e-14
30
0
41
1
42
1
43
0
50
0
70
1
71
1
44
1
45
1
0
INSERT
5
1B1
100
AcDbEntity
8
0
6
DOT2
62
256
370
-1
100
AcDbBlockReference
2
5 position selector-1
10
10
20
-21
30
0
41
1
42
1
43
0
50
90
70
1
71
1
44
1
45
1
0
ENDBLK
5
D6
330
D4
100
AcDbEntity
8
0
100
AcDbBlockEnd
0
BLOCK
5
D8
330
D7
100
AcDbEntity
8
0
100
AcDbBlockBegin
2
TB + Selectors crossed
70
0
10
0
20
0
3
TB + Selectors crossed
1

0
INSERT
5
1B2
100
AcDbEntity
8
0
6
ByLayer
62
256
370
-1
100
AcDbBlockReference
2
Trackball-1
10
0
20
0
30
0
41
1
42
1
43
0
50
0
70
1
71
1
44
1
45
1
0
INSERT
5
1B3
100
AcDbEntity
8
0
6
DOT2
62
256
370
-1
100
AcDbBlockReference
2
Selectors Crossed
10
31.536875
20
31.536875
30
0
41
1
42
1
43
0
50
0
70
1
71
1
44
0
45
0
0
ENDBLK
5
D9
330
D7
100
AcDbEntity
8
0
100
AcDbBlockEnd
0
BLOCK
5
DB
330
DA
100
AcDbEntity
8
0
100
AcDbBlockBegin
2
TB 2xSelect 4x PB LED
70
0
10
0
20
0
3
TB 2xSelect 4x PB LED
1

0
INSERT
5
1B4
100
AcDbEntity
8
0
6
DOT2
62
256
370
-1
100
AcDbBlockReference
2
TB + Selectors crossed
10
-41.536875
20
-60.536875
30
0
41
1
42
1
43
0
50
0
70
1
71
1
44
0
45
0
0
INSERT
5
1B5
100
AcDbEntity
8
0
6
DOT2
62
256
370
-1
100
AcDbBlockReference
2
PB + LED-1
10
-87.312
20
-28
30
0
41
1
42
1
43
0
50
0
70
1
71
1
44
1
45
1
0
INSERT
5
1B6
100
AcDbEntity
8
0
6
DOT2
62
256
370
-1
100
AcDbBlockReference
2
PB + LED-1
10
-74
20
-28
30
0
41
1
42
1
43
0
50
0
70
1
71
1
44
1
45
1
0
INSERT
5
1B7
100
AcDbEntity
8
0
6
DOT2
62
256
370
-1
100
AcDbBlockReference
2
PB + LED-1
10
-73.7952
20
-49.605325
30
0
41
1
42
1
43
0
50
0
70
1
71
1
44
1
45
1
0
INSERT
5
1B8
100
AcDbEntity
8
0
6
DOT2
62
256
370
-1
100
AcDbBlockReference
2
PB + LED-1
10
-87.5168
20
-49.502925
30
0
41
1
42
1
43
0
50
0
70
1
71
1
44
1
45
1
0
ENDBLK
5
DC
330
DA
100
AcDbEntity
8
0
100
AcDbBlockEnd
0
BLOCK
5
DE
330
DD
100
AcDbEntity
8
0
100
AcDbBlockBegin
2
HMI_v_00
70
0
10
0
20
0
3
HMI_v_00
1

0
INSERT
5
1B9
100
AcDbEntity
8
0
6
ByLayer
62
256
370
-1
100
AcDbBlockReference
2
Flat straight pot (short)-1
10
157.781
20
17.78125
30
0
41
1
42
1
43
0
50
90
70
1
71
1
44
1
45
1
0
INSERT
5
1BA
100
AcDbEntity
8
0
6
ByLayer
62
256
370
-1
100
AcDbBlockReference
2
Flat straight pot (short)-1
10
135.781
20
17.78125
30
0
41
1
42
1
43
0
50
90
70
1
71
1
44
1
45
1
0
INSERT
5
1BB
100
AcDbEntity
8
0
6
ByLayer
62
256
370
-1
100
AcDbBlockReference
2
Flat straight pot (short)-1
10
113.781
20
17.78125
30
0
41
1
42
1
43
0
50
90
70
1
71
1
44
1
45
1
0
INSERT
5
1BC
100
AcDbEntity
8
0
6
ByLayer
62
256
370
-1
100
AcDbBlockReference
2
Flat straight pot (short)-1
10
91.781
20
17.78125
30
0
41
1
42
1
43
0
50
90
70
1
71
1
44
1
45
1
0
INSERT
5
1BD
100
AcDbEntity
8
0
6
ByLayer
62
256
370
-1
100
AcDbBlockReference
2
Flat straight pot (short)-1
10
47.781
20
17.78125
30
0
41
1
42
1
43
0
50
90
70
1
71
1
44
1
45
1
0
INSERT
5
1BE
100
AcDbEntity
8
PCB
6
ByLayer
62
256
370
-1
100
AcDbBlockReference
2
PCB-2
10
147
20
7
30
0
41
1
42
1
43
0
50
90
70
1
71
1
44
1
45
1
0
INSERT
5
1BF
100
AcDbEntity
8
0
6
DOT2
62
256
370
-1
100
AcDbBlockReference
2
TB 2xSelect 4x PB LED
10
228.5762
20
152.386575
30
0
41
1
42
1
43
0
50
0
70
1
71
1
44
0
45
0
0
INSERT
5
1C0
100
AcDbEntity
8
0
6
ByLayer
62
256
370
-1
100
AcDbBlockReference
2
LCD + 2 PBs-1
10
172.2642
20
166.386575
30
0
41
1
42
1
43
0
50
0
70
1
71
1
44
1
45
1
0
LINE
5
1C1
100
AcDbEntity
8
Perimeter
6
ByLayer
62
256
370
-1
100
AcDbLine
10
0
20
0
11
235.5762
21
0
0
LINE
5
1C2
100
AcDbEntity
8
Perimeter
6
ByLayer
62
256
370
-1
100
AcDbLine
10
235.5762
20
0
11
235.5762
21
194
0
LINE
5
1C3
100
AcDbEntity
8
Perimeter
6
ByLayer
62
256
370
-1
100
AcDbLine
10
235.5762
20
194
11
0
21
194
0
LINE
5
1C4
100
AcDbEntity
8
Perimeter
6
ByLayer
62
256
370
-1
100
AcDbLine
10
0
20
194
11
0
21
0
0
LINE
5
1C5
100
AcDbEntity
8
Perimeter
6
ByLayer
62
256
370
-1
100
AcDbLine
10
232.5762
20
191
11
3
21
191
0
LINE
5
1C6
100
AcDbEntity
8
Perimeter
6
ByLayer
62
256
370
-1
100
AcDbLine
10
3
20
191
11
3
21
3
0
LINE
5
1C7
100
AcDbEntity
8
Perimeter
6
ByLayer
62
256
370
-1
100
AcDbLine
10
3
20
3
11
232.5762
21
3
0
LINE
5
1C8
100
AcDbEntity
8
Perimeter
6
ByLayer
62
256
370
-1
100
AcDbLine
10
232.5762
20
3
11
232.5762
21
191
0
INSERT
5
1C9
100
AcDbEntity
8
0
6
ByLayer
62
256
370
-1
100
AcDbBlockReference
2
LED 5x Cross-1
10
99.781
20
165.886575
30
0
41
1
42
1
43
0
50
0
70
1
71
1
44
0
45
0
0
INSERT
5
1CA
100
AcDbEntity
8
0
6
ByLayer
62
256
370
-1
100
AcDbBlockReference
2
LED 5x Cross-1
10
69.781
20
165.886575
30
0
41
1
42
1
43
0
50
0
70
1
71
1
44
0
45
0
0
INSERT
5
1CB
100
AcDbEntity
8
0
6
DOT2
62
256
370
-1
100
AcDbBlockReference
2
LED 5x Cross-1
10
39.781
20
145.886575
30
0
41
1
42
1
43
0
50
0
70
1
71
1
44
1
45
1
0
INSERT
5
1CC
100
AcDbEntity
8
0
6
ByLayer
62
256
370
-1
100
AcDbBlockReference
2
LED 5x Cross-1
10
69.781
20
125.886575
30
0
41
1
42
1
43
0
50
0
70
1
71
1
44
0
45
0
0
INSERT
5
1CD
100
AcDbEntity
8
0
6
ByLayer
62
256
370
-1
100
AcDbBlockReference
2
LED 5x Cross-1
10
99.781
20
125.886575
30
0
41
1
42
1
43
0
50
0
70
1
71
1
44
0
45
0
0
ENDBLK
5
DF
330
DD
100
AcDbEntity
8
0
100
AcDbBlockEnd
0
BLOCK
5
E1
330
E0
100
AcDbEntity
8
0
100
AcDbBlockBegin
2
HMI_01-0
70
0
10
0
20
0
3
HMI_01-0
1

0
LINE
5
1CE
100
AcDbEntity
8
0
6
DOT2
62
256
370
-1
100
AcDbLine
10
-68
20
202.578125
11
-67
21
202.578125
0
INSERT
5
1CF
100
AcDbEntity
8
0
6
ByLayer
62
256
370
-1
100
AcDbBlockReference
2
HMI_v_00
10
-224.781
20
-24.7812
30
0
41
1
42
1
43
0
50
0
70
1
71
1
44
0
45
0
0
ENDBLK
5
E2
330
E0
100
AcDbEntity
8
0
100
AcDbBlockEnd
0
BLOCK
5
E4
330
E3
100
AcDbEntity
8
0
100
AcDbBlockBegin
2
BoltPlus Guitar
70
0
10
0
20
0
3
BoltPlus Guitar
1

0
SPLINE
5
1D0
100
AcDbEntity
8
0
6
ByLayer
62
7
370
-1
100
AcDbSpline
210
0
220
0
230
1
70
8
71
3
72
8
73
4
74
0
42
1e-07
43
1e-07
40
0
40
0
40
0
40
0
40
1
40
1
40
1
40
1
10
141.2612965
20
-157.7446759
30
0
10
149.1923162
20
-154.8653196
30
0
10
167.4723787
20
-147.2374828
30
0
10
181.883655
20
-140.7939097
30
0
0
SPLINE
5
1D1
100
AcDbEntity
8
0
6
ByLayer
62
7
370
-1
100
AcDbSpline
210
0
220
0
230
1
70
8
71
3
72
8
73
4
74
0
42
1e-07
43
1e-07
40
0
40
0
40
0
40
0
40
1
40
1
40
1
40
1
10
181.883655
20
-140.7939097
30
0
10
224.662021
20
-121.6667897
30
0
10
227.9673994
20
-120.5614672
30
0
10
242.9051415
20
-120.3883521
30
0
0
SPLINE
5
1D2
100
AcDbEntity
8
0
6
ByLayer
62
7
370
-1
100
AcDbSpline
210
0
220
0
230
1
70
8
71
3
72
8
73
4
74
0
42
1e-07
43
1e-07
40
0
40
0
40
0
40
0
40
1
40
1
40
1
40
1
10
242.9051415
20
-120.3883521
30
0
10
257.5852719
20
-120.2181933
30
0
10
268.568951
20
-123.2962891
30
0
10
292.4493925
20
-134.2727913
30
0
0
SPLINE
5
1D3
100
AcDbEntity
8
0
6
ByLayer
62
7
370
-1
100
AcDbSpline
210
0
220
0
230
1
70
8
71
3
72
8
73
4
74
0
42
1e-07
43
1e-07
40
0
40
0
40
0
40
0
40
1
40
1
40
1
40
1
10
292.4493925
20
-134.2727913
30
0
10
313.6594256
20
-144.0218227
30
0
10
331.214123
20
-147.0272424
30
0
10
349.9805509
20
-144.1223134
30
0
0
SPLINE
5
1D4
100
AcDbEntity
8
0
6
ByLayer
62
7
370
-1
100
AcDbSpline
210
0
220
0
230
1
70
8
71
3
72
8
73
4
74
0
42
1e-07
43
1e-07
40
0
40
0
40
0
40
0
40
1
40
1
40
1
40
1
10
349.9805509
20
-144.1223134
30
0
10
369.7672031
20
-141.0594644
30
0
10
386.3269481
20
-131.2974939
30
0
10
386.3269481
20
-122.6961132
30
0
0
SPLINE
5
1D5
100
AcDbEntity
8
0
6
ByLayer
62
7
370
-1
100
AcDbSpline
210
0
220
0
230
1
70
8
71
3
72
8
73
4
74
0
42
1e-07
43
1e-07
40
0
40
0
40
0
40
0
40
1
40
1
40
1
40
1
10
386.3269481
20
-122.6961132
30
0
10
386.3269481
20
-115.9774209
30
0
10
380.2529595
20
-111.7933775
30
0
10
364.9534443
20
-107.9730718
30
0
0
SPLINE
5
1D6
100
AcDbEntity
8
0
6
ByLayer
62
7
370
-1
100
AcDbSpline
210
0
220
0
230
1
70
8
71
3
72
8
73
4
74
0
42
1e-07
43
1e-07
40
0
40
0
40
0
40
0
40
1
40
1
40
1
40
1
10
364.9534443
20
-107.9730718
30
0
10
347.3834014
20
-103.5858145
30
0
10
338.2884878
20
-98.266801
30
0
10
331.92199
20
-88.6551694
30
0
0
SPLINE
5
1D7
100
AcDbEntity
8
0
6
ByLayer
62
7
370
-1
100
AcDbSpline
210
0
220
0
230
1
70
8
71
3
72
8
73
4
74
0
42
1e-07
43
1e-07
40
0
40
0
40
0
40
0
40
1
40
1
40
1
40
1
10
331.92199
20
-88.6551694
30
0
10
319.6715857
20
-70.1604109
30
0
10
325.2988158
20
-43.6815697
30
0
10
342.5734449
20
-38.5349522
30
0
0
SPLINE
5
1D8
100
AcDbEntity
8
0
6
ByLayer
62
7
370
-1
100
AcDbSpline
210
0
220
0
230
1
70
8
71
3
72
8
73
4
74
0
42
1e-07
43
1e-07
40
0
40
0
40
0
40
0
40
1
40
1
40
1
40
1
10
342.5734449
20
-38.5349522
30
0
10
348.3028107
20
-36.8280156
30
0
10
463.2872908
20
-34.7068868
30
0
10
649.9577783
20
-32.8645996
30
0
0
SPLINE
5
1D9
100
AcDbEntity
8
0
6
ByLayer
62
7
370
-1
100
AcDbSpline
210
0
220
0
230
1
70
8
71
3
72
8
73
4
74
0
42
1e-07
43
1e-07
40
0
40
0
40
0
40
0
40
1
40
1
40
1
40
1
10
756.4878467
20
-31.4044506
30
0
10
804.2859537
20
-31.1140893
30
0
10
804.0568804
20
-31.0758219
30
0
10
820.6486183
20
-42.123844
30
0
0
SPLINE
5
1DA
100
AcDbEntity
8
0
6
ByLayer
62
7
370
-1
100
AcDbSpline
210
0
220
0
230
1
70
8
71
3
72
8
73
4
74
0
42
1e-07
43
1e-07
40
0
40
0
40
0
40
0
40
1
40
1
40
1
40
1
10
820.6486183
20
-42.123844
30
0
10
828.9318795
20
-47.6394773
30
0
10
830.6462515
20
-47.7839177
30
0
10
856.3856981
20
-45.1346875
30
0
0
SPLINE
5
1DB
100
AcDbEntity
8
0
6
ByLayer
62
7
370
-1
100
AcDbSpline
210
0
220
0
230
1
70
8
71
3
72
8
73
4
74
0
42
1e-07
43
1e-07
40
0
40
0
40
0
40
0
40
1
40
1
40
1
40
1
10
856.3856981
20
-45.1346875
30
0
10
876.067968
20
-43.1089029
30
0
10
907.8959638
20
-42.183722
30
0
10
911.9305566
20
-43.5201012
30
0
0
SPLINE
5
1DC
100
AcDbEntity
8
0
6
ByLayer
62
7
370
-1
100
AcDbSpline
210
0
220
0
230
1
70
8
71
3
72
8
73
4
74
0
42
1e-07
43
1e-07
40
0
40
0
40
0
40
0
40
1
40
1
40
1
40
1
10
911.9305566
20
-43.5201012
30
0
10
913.298454
20
-43.9731859
30
0
10
925.0295412
20
-45.5881059
30
0
10
937.999633
20
-47.1087956
30
0
0
SPLINE
5
1DD
100
AcDbEntity
8
0
6
ByLayer
62
7
370
-1
100
AcDbSpline
210
0
220
0
230
1
70
8
71
3
72
8
73
4
74
0
42
1e-07
43
1e-07
40
0
40
0
40
0
40
0
40
1
40
1
40
1
40
1
10
937.999633
20
-47.1087956
30
0
10
959.0733191
20
-49.5795762
30
0
10
962.0941642
20
-49.6086269
30
0
10
966.4001632
20
-47.3819126
30
0
0
SPLINE
5
1DE
100
AcDbEntity
8
0
6
ByLayer
62
7
370
-1
100
AcDbSpline
210
0
220
0
230
1
70
8
71
3
72
8
73
4
74
0
42
1e-07
43
1e-07
40
0
40
0
40
0
40
0
40
1
40
1
40
1
40
1
10
966.4001632
20
-47.3819126
30
0
10
972.7402893
20
-44.103296
30
0
10
974.1109033
20
-40.1425872
30
0
10
970.4063962
20
-35.8049431
30
0
0
SPLINE
5
1DF
100
AcDbEntity
8
0
6
ByLayer
62
7
370
-1
100
AcDbSpline
210
0
220
0
230
1
70
8
71
3
72
8
73
4
74
0
42
1e-07
43
1e-07
40
0
40
0
40
0
40
0
40
1
40
1
40
1
40
1
10
970.4063962
20
-35.8049431
30
0
10
968.7751202
20
-33.8948631
30
0
10
965.9753443
20
-29.4417212
30
0
10
964.1846678
20
-25.9090696
30
0
0
SPLINE
5
1E0
100
AcDbEntity
8
0
6
ByLayer
62
7
370
-1
100
AcDbSpline
210
0
220
0
230
1
70
8
71
3
72
8
73
4
74
0
42
1e-07
43
1e-07
40
0
40
0
40
0
40
0
40
1
40
1
40
1
40
1
10
964.1846678
20
-25.9090696
30
0
10
962.3940101
20
-22.3764415
30
0
10
959.230849
20
-18.3734609
30
0
10
957.1554277
20
-17.0135864
30
0
0
SPLINE
5
1E1
100
AcDbEntity
8
0
6
ByLayer
62
7
370
-1
100
AcDbSpline
210
0
220
0
230
1
70
8
71
3
72
8
73
4
74
0
42
1e-07
43
1e-07
40
0
40
0
40
0
40
0
40
1
40
1
40
1
40
1
10
957.1554277
20
-17.0135864
30
0
10
952.8993709
20
-14.2249119
30
0
10
952.0521207
20
-8.2902783
30
0
10
955.9100687
20
-8.2902783
30
0
0
SPLINE
5
1E2
100
AcDbEntity
8
0
6
ByLayer
62
7
370
-1
100
AcDbSpline
210
0
220
0
230
1
70
8
71
3
72
8
73
4
74
0
42
1e-07
43
1e-07
40
0
40
0
40
0
40
0
40
1
40
1
40
1
40
1
10
955.9100687
20
-8.2902783
30
0
10
957.9692938
20
-8.2902783
30
0
10
961.6722217
20
-2.3062101
30
0
10
961.6722217
20
1.0215732
30
0
0
SPLINE
5
1E3
100
AcDbEntity
8
0
6
ByLayer
62
7
370
-1
100
AcDbSpline
210
0
220
0
230
1
70
8
71
3
72
8
73
4
74
0
42
1e-07
43
1e-07
40
0
40
0
40
0
40
0
40
1
40
1
40
1
40
1
10
961.6722217
20
1.0215732
30
0
10
961.6722217
20
2.8180025
30
0
10
949.6127361
20
6.7118726
30
0
10
946.8070382
20
5.8213777
30
0
0
SPLINE
5
1E4
100
AcDbEntity
8
0
6
ByLayer
62
7
370
-1
100
AcDbSpline
210
0
220
0
230
1
70
8
71
3
72
8
73
4
74
0
42
1e-07
43
1e-07
40
0
40
0
40
0
40
0
40
1
40
1
40
1
40
1
10
946.8070382
20
5.8213777
30
0
10
943.3021072
20
4.7089535
30
0
10
941.1462924
20
-1.6920141
30
0
10
943.487917
20
-4.0336387
30
0
0
SPLINE
5
1E5
100
AcDbEntity
8
0
6
ByLayer
62
7
370
-1
100
AcDbSpline
210
0
220
0
230
1
70
8
71
3
72
8
73
4
74
0
42
1e-07
43
1e-07
40
0
40
0
40
0
40
0
40
1
40
1
40
1
40
1
10
943.487917
20
-4.0336387
30
0
10
946.3893821
20
-6.9351038
30
0
10
945.1637584
20
-9.9483349
30
0
10
941.0821468
20
-9.9483349
30
0
0
SPLINE
5
1E6
100
AcDbEntity
8
0
6
ByLayer
62
7
370
-1
100
AcDbSpline
210
0
220
0
230
1
70
8
71
3
72
8
73
4
74
0
42
1e-07
43
1e-07
40
0
40
0
40
0
40
0
40
1
40
1
40
1
40
1
10
941.0821468
20
-9.9483349
30
0
10
932.0640359
20
-9.9483349
30
0
10
928.6244584
20
-5.1468572
30
0
10
935.1433349
20
-1.6580566
30
0
0
SPLINE
5
1E7
100
AcDbEntity
8
0
6
ByLayer
62
7
370
-1
100
AcDbSpline
210
0
220
0
230
1
70
8
71
3
72
8
73
4
74
0
42
1e-07
43
1e-07
40
0
40
0
40
0
40
0
40
1
40
1
40
1
40
1
10
935.1433349
20
-1.6580566
30
0
10
938.6201176
20
0.202664
30
0
10
939.7148745
20
7.3186708
30
0
10
936.8013915
20
9.1193019
30
0
0
SPLINE
5
1E8
100
AcDbEntity
8
0
6
ByLayer
62
7
370
-1
100
AcDbSpline
210
0
220
0
230
1
70
8
71
3
72
8
73
4
74
0
42
1e-07
43
1e-07
40
0
40
0
40
0
40
0
40
1
40
1
40
1
40
1
10
936.8013915
20
9.1193019
30
0
10
935.8682112
20
9.6960436
30
0
10
935.1433349
20
8.3666251
30
0
10
935.1433349
20
6.0784442
30
0
0
SPLINE
5
1E9
100
AcDbEntity
8
0
6
ByLayer
62
7
370
-1
100
AcDbSpline
210
0
220
0
230
1
70
8
71
3
72
8
73
4
74
0
42
1e-07
43
1e-07
40
0
40
0
40
0
40
0
40
1
40
1
40
1
40
1
10
935.1433349
20
6.0784442
30
0
10
935.1433349
20
2.3458969
30
0
10
932.4620084
20
0
30
0
10
928.1957526
20
0
30
0
0
SPLINE
5
1EA
100
AcDbEntity
8
0
6
ByLayer
62
7
370
-1
100
AcDbSpline
210
0
220
0
230
1
70
8
71
3
72
8
73
4
74
0
42
1e-07
43
1e-07
40
0
40
0
40
0
40
0
40
1
40
1
40
1
40
1
10
928.1957526
20
0
30
0
10
926.5927565
20
0
30
0
10
927.1444096
20
4.4575035
30
0
10
929.5104554
20
10.6233207
30
0
0
SPLINE
5
1EB
100
AcDbEntity
8
0
6
ByLayer
62
7
370
-1
100
AcDbSpline
210
0
220
0
230
1
70
8
71
3
72
8
73
4
74
0
42
1e-07
43
1e-07
40
0
40
0
40
0
40
0
40
1
40
1
40
1
40
1
10
929.5104554
20
10.6233207
30
0
10
930.2342977
20
12.5096187
30
0
10
929.5534322
20
13.2644434
30
0
10
927.1283074
20
13.2644434
30
0
0
SPLINE
5
1EC
100
AcDbEntity
8
0
6
ByLayer
62
7
370
-1
100
AcDbSpline
210
0
220
0
230
1
70
8
71
3
72
8
73
4
74
0
42
1e-07
43
1e-07
40
0
40
0
40
0
40
0
40
1
40
1
40
1
40
1
10
927.1283074
20
13.2644434
30
0
10
925.2607013
20
13.2644434
30
0
10
923.271525
20
12.5183184
30
0
10
922.7079198
20
11.6063868
30
0
0
SPLINE
5
1ED
100
AcDbEntity
8
0
6
ByLayer
62
7
370
-1
100
AcDbSpline
210
0
220
0
230
1
70
8
71
3
72
8
73
4
74
0
42
1e-07
43
1e-07
40
0
40
0
40
0
40
0
40
1
40
1
40
1
40
1
10
922.7079198
20
11.6063868
30
0
10
920.9074955
20
8.6932375
30
0
10
917.3288027
20
9.8255286
30
0
10
916.1574828
20
13.6789552
30
0
0
SPLINE
5
1EE
100
AcDbEntity
8
0
6
ByLayer
62
7
370
-1
100
AcDbSpline
210
0
220
0
230
1
70
8
71
3
72
8
73
4
74
0
42
1e-07
43
1e-07
40
0
40
0
40
0
40
0
40
1
40
1
40
1
40
1
10
916.1574828
20
13.6789552
30
0
10
914.9674898
20
17.5937967
30
0
10
914.5284252
20
17.0335238
30
0
10
912.8560054
20
9.4660115
30
0
0
SPLINE
5
1EF
100
AcDbEntity
8
0
6
ByLayer
62
7
370
-1
100
AcDbSpline
210
0
220
0
230
1
70
8
71
3
72
8
73
4
74
0
42
1e-07
43
1e-07
40
0
40
0
40
0
40
0
40
1
40
1
40
1
40
1
10
912.8560054
20
9.4660115
30
0
10
912.2254769
20
6.6128953
30
0
10
911.1179783
20
5.2806521
30
0
10
909.9676956
20
5.99156
30
0
0
SPLINE
5
1F0
100
AcDbEntity
8
0
6
ByLayer
62
7
370
-1
100
AcDbSpline
210
0
220
0
230
1
70
8
71
3
72
8
73
4
74
0
42
1e-07
43
1e-07
40
0
40
0
40
0
40
0
40
1
40
1
40
1
40
1
10
909.9676956
20
5.99156
30
0
10
908.8291582
20
6.6952252
30
0
10
908.5631382
20
6.3985565
30
0
10
909.2851475
20
5.2303527
30
0
0
SPLINE
5
1F1
100
AcDbEntity
8
0
6
ByLayer
62
7
370
-1
100
AcDbSpline
210
0
220
0
230
1
70
8
71
3
72
8
73
4
74
0
42
1e-07
43
1e-07
40
0
40
0
40
0
40
0
40
1
40
1
40
1
40
1
10
909.2851475
20
5.2303527
30
0
10
909.935839
20
4.1775151
30
0
10
909.574127
20
3.3161085
30
0
10
908.4813488
20
3.3161085
30
0
0
SPLINE
5
1F2
100
AcDbEntity
8
0
6
ByLayer
62
7
370
-1
100
AcDbSpline
210
0
220
0
230
1
70
8
71
3
72
8
73
4
74
0
42
1e-07
43
1e-07
40
0
40
0
40
0
40
0
40
1
40
1
40
1
40
1
10
908.4813488
20
3.3161085
30
0
10
907.0715791
20
3.3161085
30
0
10
906.7796809
20
5.7240172
30
0
10
907.4763431
20
11.6063868
30
0
0
SPLINE
5
1F3
100
AcDbEntity
8
0
6
ByLayer
62
7
370
-1
100
AcDbSpline
210
0
220
0
230
1
70
8
71
3
72
8
73
4
74
0
42
1e-07
43
1e-07
40
0
40
0
40
0
40
0
40
1
40
1
40
1
40
1
10
907.4763431
20
11.6063868
30
0
10
908.4193276
20
19.5683701
30
0
10
908.2971605
20
19.8966651
30
0
10
904.3911926
20
19.8966651
30
0
0
SPLINE
5
1F4
100
AcDbEntity
8
0
6
ByLayer
62
7
370
-1
100
AcDbSpline
210
0
220
0
230
1
70
8
71
3
72
8
73
4
74
0
42
1e-07
43
1e-07
40
0
40
0
40
0
40
0
40
1
40
1
40
1
40
1
10
904.3911926
20
19.8966651
30
0
10
902.154331
20
19.8966651
30
0
10
900.3241698
20
19.1505401
30
0
10
900.3241698
20
18.2386085
30
0
0
SPLINE
5
1F5
100
AcDbEntity
8
0
6
ByLayer
62
7
370
-1
100
AcDbSpline
210
0
220
0
230
1
70
8
71
3
72
8
73
4
74
0
42
1e-07
43
1e-07
40
0
40
0
40
0
40
0
40
1
40
1
40
1
40
1
10
900.3241698
20
18.2386085
30
0
10
900.3241698
20
17.3266769
30
0
10
899.2049823
20
16.5805519
30
0
10
897.8370849
20
16.5805519
30
0
0
SPLINE
5
1F6
100
AcDbEntity
8
0
6
ByLayer
62
7
370
-1
100
AcDbSpline
210
0
220
0
230
1
70
8
71
3
72
8
73
4
74
0
42
1e-07
43
1e-07
40
0
40
0
40
0
40
0
40
1
40
1
40
1
40
1
10
897.8370849
20
16.5805519
30
0
10
896.4691875
20
16.5805519
30
0
10
895.35
20
17.6557051
30
0
10
895.35
20
18.9697875
30
0
0
SPLINE
5
1F7
100
AcDbEntity
8
0
6
ByLayer
62
7
370
-1
100
AcDbSpline
210
0
220
0
230
1
70
8
71
3
72
8
73
4
74
0
42
1e-07
43
1e-07
40
0
40
0
40
0
40
0
40
1
40
1
40
1
40
1
10
895.35
20
18.9697875
30
0
10
895.35
20
20.2838558
30
0
10
894.603875
20
21.8201401
30
0
10
893.6919481
20
22.38375
30
0
0
SPLINE
5
1F8
100
AcDbEntity
8
0
6
ByLayer
62
7
370
-1
100
AcDbSpline
210
0
220
0
230
1
70
8
71
3
72
8
73
4
74
0
42
1e-07
43
1e-07
40
0
40
0
40
0
40
0
40
1
40
1
40
1
40
1
10
893.6919481
20
22.38375
30
0
10
892.7800165
20
22.9473552
30
0
10
892.0338915
20
21.8023553
30
0
10
892.0338915
20
19.8392969
30
0
0
SPLINE
5
1F9
100
AcDbEntity
8
0
6
ByLayer
62
7
370
-1
100
AcDbSpline
210
0
220
0
230
1
70
8
71
3
72
8
73
4
74
0
42
1e-07
43
1e-07
40
0
40
0
40
0
40
0
40
1
40
1
40
1
40
1
10
892.0338915
20
19.8392969
30
0
10
892.0338915
20
17.8098369
30
0
10
893.3087477
20
15.936713
30
0
10
894.9890776
20
15.4973006
30
0
0
SPLINE
5
1FA
100
AcDbEntity
8
0
6
ByLayer
62
7
370
-1
100
AcDbSpline
210
0
220
0
230
1
70
8
71
3
72
8
73
4
74
0
42
1e-07
43
1e-07
40
0
40
0
40
0
40
0
40
1
40
1
40
1
40
1
10
894.9890776
20
15.4973006
30
0
10
898.340469
20
14.6208916
30
0
10
902.7691756
20
5.9307984
30
0
10
901.1771493
20
3.3548835
30
0
0
SPLINE
5
1FB
100
AcDbEntity
8
0
6
ByLayer
62
7
370
-1
100
AcDbSpline
210
0
220
0
230
1
70
8
71
3
72
8
73
4
74
0
42
1e-07
43
1e-07
40
0
40
0
40
0
40
0
40
1
40
1
40
1
40
1
10
901.1771493
20
3.3548835
30
0
10
898.0095514
20
-1.7704054
30
0
10
885.9376202
20
3.8202775
30
0
10
887.4753004
20
9.7003817
30
0
0
SPLINE
5
1FC
100
AcDbEntity
8
0
6
ByLayer
62
7
370
-1
100
AcDbSpline
210
0
220
0
230
1
70
8
71
3
72
8
73
4
74
0
42
1e-07
43
1e-07
40
0
40
0
40
0
40
0
40
1
40
1
40
1
40
1
10
887.4753004
20
9.7003817
30
0
10
888.1026658
20
12.0994262
30
0
10
887.6450832
20
13.2644434
30
0
10
886.0754618
20
13.2644434
30
0
0
SPLINE
5
1FD
100
AcDbEntity
8
0
6
ByLayer
62
7
370
-1
100
AcDbSpline
210
0
220
0
230
1
70
8
71
3
72
8
73
4
74
0
42
1e-07
43
1e-07
40
0
40
0
40
0
40
0
40
1
40
1
40
1
40
1
10
886.0754618
20
13.2644434
30
0
10
883.4900764
20
13.2644434
30
0
10
883.3298393
20
14.0386227
30
0
10
884.7886629
20
19.4821533
30
0
0
SPLINE
5
1FE
100
AcDbEntity
8
0
6
ByLayer
62
7
370
-1
100
AcDbSpline
210
0
220
0
230
1
70
8
71
3
72
8
73
4
74
0
42
1e-07
43
1e-07
40
0
40
0
40
0
40
0
40
1
40
1
40
1
40
1
10
884.7886629
20
19.4821533
30
0
10
885.33853
20
21.53399
30
0
10
886.9698295
20
23.2127783
30
0
10
888.4137447
20
23.2127783
30
0
0
SPLINE
5
1FF
100
AcDbEntity
8
0
6
ByLayer
62
7
370
-1
100
AcDbSpline
210
0
220
0
230
1
70
8
71
3
72
8
73
4
74
0
42
1e-07
43
1e-07
40
0
40
0
40
0
40
0
40
1
40
1
40
1
40
1
10
888.4137447
20
23.2127783
30
0
10
890.2908636
20
23.2127783
30
0
10
890.5295813
20
23.7222489
30
0
10
889.2513834
20
25.0004515
30
0
0
SPLINE
5
200
100
AcDbEntity
8
0
6
ByLayer
62
7
370
-1
100
AcDbSpline
210
0
220
0
230
1
70
8
71
3
72
8
73
4
74
0
42
1e-07
43
1e-07
40
0
40
0
40
0
40
0
40
1
40
1
40
1
40
1
10
889.2513834
20
25.0004515
30
0
10
888.2681528
20
25.9836774
30
0
10
885.320952
20
26.5432641
30
0
10
882.7020509
20
26.2439916
30
0
0
SPLINE
5
201
100
AcDbEntity
8
0
6
ByLayer
62
7
370
-1
100
AcDbSpline
210
0
220
0
230
1
70
8
71
3
72
8
73
4
74
0
42
1e-07
43
1e-07
40
0
40
0
40
0
40
0
40
1
40
1
40
1
40
1
10
882.7020509
20
26.2439916
30
0
10
878.0629676
20
25.7138645
30
0
10
877.9523578
20
25.4758236
30
0
10
878.4045542
20
16.9950684
30
0
0
SPLINE
5
202
100
AcDbEntity
8
0
6
ByLayer
62
7
370
-1
100
AcDbSpline
210
0
220
0
230
1
70
8
71
3
72
8
73
4
74
0
42
1e-07
43
1e-07
40
0
40
0
40
0
40
0
40
1
40
1
40
1
40
1
10
878.4045542
20
16.9950684
30
0
10
878.8366816
20
8.890849
30
0
10
878.6078997
20
8.2939114
30
0
10
875.088441
20
8.3430029
30
0
0
SPLINE
5
203
100
AcDbEntity
8
0
6
ByLayer
62
7
370
-1
100
AcDbSpline
210
0
220
0
230
1
70
8
71
3
72
8
73
4
74
0
42
1e-07
43
1e-07
40
0
40
0
40
0
40
0
40
1
40
1
40
1
40
1
10
875.088441
20
8.3430029
30
0
10
866.8043338
20
8.4585336
30
0
10
861.5829581
20
18.4842681
30
0
10
868.8211132
20
20.3770897
30
0
0
SPLINE
5
204
100
AcDbEntity
8
0
6
ByLayer
62
7
370
-1
100
AcDbSpline
210
0
220
0
230
1
70
8
71
3
72
8
73
4
74
0
42
1e-07
43
1e-07
40
0
40
0
40
0
40
0
40
1
40
1
40
1
40
1
10
868.8211132
20
20.3770897
30
0
10
870.9721011
20
20.939581
30
0
10
872.1372217
20
22.6387062
30
0
10
872.1372217
20
25.2130137
30
0
0
SPLINE
5
205
100
AcDbEntity
8
0
6
ByLayer
62
7
370
-1
100
AcDbSpline
210
0
220
0
230
1
70
8
71
3
72
8
73
4
74
0
42
1e-07
43
1e-07
40
0
40
0
40
0
40
0
40
1
40
1
40
1
40
1
10
872.1372217
20
25.2130137
30
0
10
872.1372217
20
30.6413304
30
0
10
869.1671272
20
33.1611085
30
0
10
862.7686929
20
33.1611085
30
0
0
SPLINE
5
206
100
AcDbEntity
8
0
6
ByLayer
62
7
370
-1
100
AcDbSpline
210
0
220
0
230
1
70
8
71
3
72
8
73
4
74
0
42
1e-07
43
1e-07
40
0
40
0
40
0
40
0
40
1
40
1
40
1
40
1
10
862.7686929
20
33.1611085
30
0
10
856.0657033
20
33.1611085
30
0
10
853.6787942
20
29.53245
30
0
10
856.1227143
20
23.0577394
30
0
0
SPLINE
5
207
100
AcDbEntity
8
0
6
ByLayer
62
7
370
-1
100
AcDbSpline
210
0
220
0
230
1
70
8
71
3
72
8
73
4
74
0
42
1e-07
43
1e-07
40
0
40
0
40
0
40
0
40
1
40
1
40
1
40
1
10
856.1227143
20
23.0577394
30
0
10
858.3818069
20
17.0727312
30
0
10
857.1227474
20
15.9177015
30
0
10
849.8307914
20
17.2856788
30
0
0
SPLINE
5
208
100
AcDbEntity
8
0
6
ByLayer
62
7
370
-1
100
AcDbSpline
210
0
220
0
230
1
70
8
71
3
72
8
73
4
74
0
42
1e-07
43
1e-07
40
0
40
0
40
0
40
0
40
1
40
1
40
1
40
1
10
849.8307914
20
17.2856788
30
0
10
845.0457214
20
18.1833647
30
0
10
843.9502783
20
19.126227
30
0
10
843.9502783
20
22.3471511
30
0
0
SPLINE
5
209
100
AcDbEntity
8
0
6
ByLayer
62
7
370
-1
100
AcDbSpline
210
0
220
0
230
1
70
8
71
3
72
8
73
4
74
0
42
1e-07
43
1e-07
40
0
40
0
40
0
40
0
40
1
40
1
40
1
40
1
10
843.9502783
20
22.3471511
30
0
10
843.9502783
20
24.8492243
30
0
10
845.1702385
20
26.6926254
30
0
10
847.2663915
20
27.3579151
30
0
0
SPLINE
5
20A
100
AcDbEntity
8
0
6
ByLayer
62
7
370
-1
100
AcDbSpline
210
0
220
0
230
1
70
8
71
3
72
8
73
4
74
0
42
1e-07
43
1e-07
40
0
40
0
40
0
40
0
40
1
40
1
40
1
40
1
10
847.2663915
20
27.3579151
30
0
10
851.0844553
20
28.5697302
30
0
10
851.7830539
20
35.0748122
30
0
10
848.3969201
20
37.885055
30
0
0
SPLINE
5
20B
100
AcDbEntity
8
0
6
ByLayer
62
7
370
-1
100
AcDbSpline
210
0
220
0
230
1
70
8
71
3
72
8
73
4
74
0
42
1e-07
43
1e-07
40
0
40
0
40
0
40
0
40
1
40
1
40
1
40
1
10
848.3969201
20
37.885055
30
0
10
847.1948434
20
38.8826864
30
0
10
843.7553834
20
39.9067036
30
0
10
840.7536814
20
40.1606493
30
0
0
SPLINE
5
20C
100
AcDbEntity
8
0
6
ByLayer
62
7
370
-1
100
AcDbSpline
210
0
220
0
230
1
70
8
71
3
72
8
73
4
74
0
42
1e-07
43
1e-07
40
0
40
0
40
0
40
0
40
1
40
1
40
1
40
1
10
840.7536814
20
40.1606493
30
0
10
833.8921702
20
40.7411275
30
0
10
830.4447531
20
36.582873
30
0
10
833.5995153
20
31.5312801
30
0
0
SPLINE
5
20D
100
AcDbEntity
8
0
6
ByLayer
62
7
370
-1
100
AcDbSpline
210
0
220
0
230
1
70
8
71
3
72
8
73
4
74
0
42
1e-07
43
1e-07
40
0
40
0
40
0
40
0
40
1
40
1
40
1
40
1
10
833.5995153
20
31.5312801
30
0
10
837.1282941
20
25.8808273
30
0
10
836.1753268
20
24.4051025
30
0
10
829.7732547
20
25.6061452
30
0
0
SPLINE
5
20E
100
AcDbEntity
8
0
6
ByLayer
62
7
370
-1
100
AcDbSpline
210
0
220
0
230
1
70
8
71
3
72
8
73
4
74
0
42
1e-07
43
1e-07
40
0
40
0
40
0
40
0
40
1
40
1
40
1
40
1
10
829.7732547
20
25.6061452
30
0
10
824.9275547
20
26.5152004
30
0
10
822.3927695
20
25.7913957
30
0
10
815.4400407
20
21.5133335
30
0
0
SPLINE
5
20F
100
AcDbEntity
8
0
6
ByLayer
62
7
370
-1
100
AcDbSpline
210
0
220
0
230
1
70
8
71
3
72
8
73
4
74
0
42
1e-07
43
1e-07
40
0
40
0
40
0
40
0
40
1
40
1
40
1
40
1
10
815.4400407
20
21.5133335
30
0
10
810.7944855
20
18.6549016
30
0
10
805.049605
20
15.568609
30
0
10
802.673661
20
14.6549149
30
0
0
SPLINE
5
210
100
AcDbEntity
8
0
6
ByLayer
62
7
370
-1
100
AcDbSpline
210
0
220
0
230
1
70
8
71
3
72
8
73
4
74
0
42
1e-07
43
1e-07
40
0
40
0
40
0
40
0
40
1
40
1
40
1
40
1
10
802.673661
20
14.6549149
30
0
10
800.2785175
20
13.7338465
30
0
10
783.2092314
20
13.013783
30
0
10
764.3636132
20
13.0388293
30
0
0
SPLINE
5
211
100
AcDbEntity
8
0
6
ByLayer
62
7
370
-1
100
AcDbSpline
210
0
220
0
230
1
70
8
71
3
72
8
73
4
74
0
42
1e-07
43
1e-07
40
0
40
0
40
0
40
0
40
1
40
1
40
1
40
1
10
598.1435448
20
15.4376106
30
0
10
599.7394157
20
15.8546557
30
0
10
587.241829
20
16.2835354
30
0
10
570.3711132
20
16.3906625
30
0
0
SPLINE
5
212
100
AcDbEntity
8
0
6
ByLayer
62
7
370
-1
100
AcDbSpline
210
0
220
0
230
1
70
8
71
3
72
8
73
4
74
0
42
1e-07
43
1e-07
40
0
40
0
40
0
40
0
40
1
40
1
40
1
40
1
10
570.3711132
20
16.3906625
30
0
10
553.5003974
20
16.4978366
30
0
10
512.2769841
20
17.0784464
30
0
10
478.7635448
20
17.6810005
30
0
0
SPLINE
5
213
100
AcDbEntity
8
0
6
ByLayer
62
7
370
-1
100
AcDbSpline
210
0
220
0
230
1
70
8
71
3
72
8
73
4
74
0
42
1e-07
43
1e-07
40
0
40
0
40
0
40
0
40
1
40
1
40
1
40
1
10
396.6005371
20
19.8966651
30
0
10
386.0247146
20
19.8966651
30
0
10
385.0005
20
20.2335799
30
0
10
380.2189362
20
25.2853467
30
0
0
SPLINE
5
214
100
AcDbEntity
8
0
6
ByLayer
62
7
370
-1
100
AcDbSpline
210
0
220
0
230
1
70
8
71
3
72
8
73
4
74
0
42
1e-07
43
1e-07
40
0
40
0
40
0
40
0
40
1
40
1
40
1
40
1
10
380.2189362
20
25.2853467
30
0
10
373.1240465
20
32.7811511
30
0
10
371.4044481
20
36.7384101
30
0
10
371.4044481
20
45.5698605
30
0
0
SPLINE
5
215
100
AcDbEntity
8
0
6
ByLayer
62
7
370
-1
100
AcDbSpline
210
0
220
0
230
1
70
8
71
3
72
8
73
4
74
0
42
1e-07
43
1e-07
40
0
40
0
40
0
40
0
40
1
40
1
40
1
40
1
10
371.4044481
20
45.5698605
30
0
10
371.4044481
20
54.8279628
30
0
10
374.0689016
20
60.2670143003
30
0
10
382.4596565
20
68.1372677003
30
0
0
SPLINE
5
216
100
AcDbEntity
8
0
6
ByLayer
62
7
370
-1
100
AcDbSpline
210
0
220
0
230
1
70
8
71
3
72
8
73
4
74
0
42
1e-07
43
1e-07
40
0
40
0
40
0
40
0
40
1
40
1
40
1
40
1
10
382.4596565
20
68.1372677003
30
0
10
390.6710641
20
75.8392893003
30
0
10
398.5844729
20
80.4484853003
30
0
10
407.8816698
20
82.9444062003
30
0
0
SPLINE
5
217
100
AcDbEntity
8
0
6
ByLayer
62
7
370
-1
100
AcDbSpline
210
0
220
0
230
1
70
8
71
3
72
8
73
4
74
0
42
1e-07
43
1e-07
40
0
40
0
40
0
40
0
40
1
40
1
40
1
40
1
10
407.8816698
20
82.9444062003
30
0
10
416.4804232
20
85.2528347003
30
0
10
447.2168205
20
89.8166146003
30
0
10
456.3620993
20
90.1428557003
30
0
0
SPLINE
5
218
100
AcDbEntity
8
0
6
ByLayer
62
7
370
-1
100
AcDbSpline
210
0
220
0
230
1
70
8
71
3
72
8
73
4
74
0
42
1e-07
43
1e-07
40
0
40
0
40
0
40
0
40
1
40
1
40
1
40
1
10
456.3620993
20
90.1428557003
30
0
10
461.6241676
20
90.3305690003
30
0
10
462.8155941
20
91.0912358003
30
0
10
464.2378611
20
95.1710990003
30
0
0
SPLINE
5
219
100
AcDbEntity
8
0
6
ByLayer
62
7
370
-1
100
AcDbSpline
210
0
220
0
230
1
70
8
71
3
72
8
73
4
74
0
42
1e-07
43
1e-07
40
0
40
0
40
0
40
0
40
1
40
1
40
1
40
1
10
464.2378611
20
95.1710990003
30
0
10
466.4474251
20
101.5094673
30
0
10
466.3538575
20
102.7994434
30
0
10
463.6845113
20
102.7994434
30
0
0
SPLINE
5
21A
100
AcDbEntity
8
0
6
ByLayer
62
7
370
-1
100
AcDbSpline
210
0
220
0
230
1
70
8
71
3
72
8
73
4
74
0
42
1e-07
43
1e-07
40
0
40
0
40
0
40
0
40
1
40
1
40
1
40
1
10
463.6845113
20
102.7994434
30
0
10
462.4584881
20
102.7994434
30
0
10
457.0911116
20
106.6185224
30
0
10
451.7570017
20
111.2862898
30
0
0
SPLINE
5
21B
100
AcDbEntity
8
0
6
ByLayer
62
7
370
-1
100
AcDbSpline
210
0
220
0
230
1
70
8
71
3
72
8
73
4
74
0
42
1e-07
43
1e-07
40
0
40
0
40
0
40
0
40
1
40
1
40
1
40
1
10
451.7570017
20
111.2862898
30
0
10
446.4228918
20
115.9540572
30
0
10
438.6590135
20
121.2685634
30
0
10
434.5039503
20
123.0963041
30
0
0
SPLINE
5
21C
100
AcDbEntity
8
0
6
ByLayer
62
7
370
-1
100
AcDbSpline
210
0
220
0
230
1
70
8
71
3
72
8
73
4
74
0
42
1e-07
43
1e-07
40
0
40
0
40
0
40
0
40
1
40
1
40
1
40
1
10
434.5039503
20
123.0963041
30
0
10
424.9395302
20
127.3035467
30
0
10
406.6241613
20
128.6320816
30
0
10
391.9163714
20
126.1854637
30
0
0
SPLINE
5
21D
100
AcDbEntity
8
0
6
ByLayer
62
7
370
-1
100
AcDbSpline
210
0
220
0
230
1
70
8
71
3
72
8
73
4
74
0
42
1e-07
43
1e-07
40
0
40
0
40
0
40
0
40
1
40
1
40
1
40
1
10
391.9163714
20
126.1854637
30
0
10
377.7859295
20
123.8348903
30
0
10
326.4887571
20
107.6967494
30
0
10
327.5726852
20
105.942888
30
0
0
SPLINE
5
21E
100
AcDbEntity
8
0
6
ByLayer
62
7
370
-1
100
AcDbSpline
210
0
220
0
230
1
70
8
71
3
72
8
73
4
74
0
42
1e-07
43
1e-07
40
0
40
0
40
0
40
0
40
1
40
1
40
1
40
1
10
327.5726852
20
105.942888
30
0
10
328.0093763
20
105.2363041
30
0
10
327.0448282
20
104.7304149
30
0
10
325.4292314
20
104.8186903
30
0
0
SPLINE
5
21F
100
AcDbEntity
8
0
6
ByLayer
62
7
370
-1
100
AcDbSpline
210
0
220
0
230
1
70
8
71
3
72
8
73
4
74
0
42
1e-07
43
1e-07
40
0
40
0
40
0
40
0
40
1
40
1
40
1
40
1
10
325.4292314
20
104.8186903
30
0
10
323.8136628
20
104.9069657
30
0
10
317.2689316
20
103.2827303
30
0
10
310.8854198
20
101.209283
30
0
0
SPLINE
5
220
100
AcDbEntity
8
0
6
ByLayer
62
7
370
-1
100
AcDbSpline
210
0
220
0
230
1
70
8
71
3
72
8
73
4
74
0
42
1e-07
43
1e-07
40
0
40
0
40
0
40
0
40
1
40
1
40
1
40
1
10
310.8854198
20
101.209283
30
0
10
297.558974
20
96.8806770003
30
0
10
274.3863619
20
96.0050435003
30
0
10
261.9727783
20
99.3609939003
30
0
0
SPLINE
5
221
100
AcDbEntity
8
0
6
ByLayer
62
7
370
-1
100
AcDbSpline
210
0
220
0
230
1
70
8
71
3
72
8
73
4
74
0
42
1e-07
43
1e-07
40
0
40
0
40
0
40
0
40
1
40
1
40
1
40
1
10
261.9727783
20
99.3609939003
30
0
10
257.8690908
20
100.4704054
30
0
10
239.5890283
20
108.7230837
30
0
10
221.3504198
20
117.7002811
30
0
0
SPLINE
5
222
100
AcDbEntity
8
0
6
ByLayer
62
7
370
-1
100
AcDbSpline
210
0
220
0
230
1
70
8
71
3
72
8
73
4
74
0
42
1e-07
43
1e-07
40
0
40
0
40
0
40
0
40
1
40
1
40
1
40
1
10
221.3504198
20
117.7002811
30
0
10
163.0994799
20
146.3718932
30
0
10
146.9100103
20
151.3278552
30
0
10
111.0897217
20
151.4535802
30
0
0
SPLINE
5
223
100
AcDbEntity
8
0
6
ByLayer
62
7
370
-1
100
AcDbSpline
210
0
220
0
230
1
70
8
71
3
72
8
73
4
74
0
42
1e-07
43
1e-07
40
0
40
0
40
0
40
0
40
1
40
1
40
1
40
1
10
111.0897217
20
151.4535802
30
0
10
85.3651694
20
151.5438719
30
0
10
75.4681867
20
149.0087765
30
0
10
56.009101
20
137.3447583
30
0
0
SPLINE
5
224
100
AcDbEntity
8
0
6
ByLayer
62
7
370
-1
100
AcDbSpline
210
0
220
0
230
1
70
8
71
3
72
8
73
4
74
0
42
1e-07
43
1e-07
40
0
40
0
40
0
40
0
40
1
40
1
40
1
40
1
10
56.009101
20
137.3447583
30
0
10
20.7084632
20
116.1851139
30
0
10
0.030926
20
71.1367231003
30
0
10
0.00666930000003
20
15.3370118
30
0
0
SPLINE
5
225
100
AcDbEntity
8
0
6
ByLayer
62
7
370
-1
100
AcDbSpline
210
0
220
0
230
1
70
8
71
3
72
8
73
4
74
0
42
1e-07
43
1e-07
40
0
40
0
40
0
40
0
40
1
40
1
40
1
40
1
10
-4.9741651
20
0
30
0
10
-9.3956478
20
0
30
0
10
-9.9483302
20
-0.5526777
30
0
10
-9.9483302
20
-4.9741698
30
0
0
SPLINE
5
226
100
AcDbEntity
8
0
6
ByLayer
62
7
370
-1
100
AcDbSpline
210
0
220
0
230
1
70
8
71
3
72
8
73
4
74
0
42
1e-07
43
1e-07
40
0
40
0
40
0
40
0
40
1
40
1
40
1
40
1
10
-9.9483302
20
-4.9741698
30
0
10
-9.9483302
20
-9.1378246
30
0
10
-9.2911198
20
-9.9483349
30
0
10
-5.9149265
20
-9.9483349
30
0
0
SPLINE
5
227
100
AcDbEntity
8
0
6
ByLayer
62
7
370
-1
100
AcDbSpline
210
0
220
0
230
1
70
8
71
3
72
8
73
4
74
0
42
1e-07
43
1e-07
40
0
40
0
40
0
40
0
40
1
40
1
40
1
40
1
10
-5.9149265
20
-9.9483349
30
0
10
-1.8637145
20
-9.9483349
30
0
10
1.2503927
20
-14.8740336
30
0
10
-0.752235
20
-18.1143499
30
0
0
SPLINE
5
228
100
AcDbEntity
8
0
6
ByLayer
62
7
370
-1
100
AcDbSpline
210
0
220
0
230
1
70
8
71
3
72
8
73
4
74
0
42
1e-07
43
1e-07
40
0
40
0
40
0
40
0
40
1
40
1
40
1
40
1
10
-0.752235
20
-18.1143499
30
0
10
-2.3102897
20
-20.63535
30
0
10
1.3185756
20
-61.6879183
30
0
10
4.2316074
20
-74.495564
30
0
0
SPLINE
5
229
100
AcDbEntity
8
0
6
ByLayer
62
7
370
-1
100
AcDbSpline
210
0
220
0
230
1
70
8
71
3
72
8
73
4
74
0
42
1e-07
43
1e-07
40
0
40
0
40
0
40
0
40
1
40
1
40
1
40
1
10
4.2316074
20
-74.495564
30
0
10
5.8404174
20
-81.5689465
30
0
10
7.5808462
20
-85.8283168
30
0
10
8.6039469
20
-85.1960023
30
0
0
SPLINE
5
22A
100
AcDbEntity
8
0
6
ByLayer
62
7
370
-1
100
AcDbSpline
210
0
220
0
230
1
70
8
71
3
72
8
73
4
74
0
42
1e-07
43
1e-07
40
0
40
0
40
0
40
0
40
1
40
1
40
1
40
1
10
8.6039469
20
-85.1960023
30
0
10
9.6632846
20
-84.541297
30
0
10
9.9056072
20
-85.3995311
30
0
10
9.2471701
20
-87.4740923
30
0
0
SPLINE
5
22B
100
AcDbEntity
8
0
6
ByLayer
62
7
370
-1
100
AcDbSpline
210
0
220
0
230
1
70
8
71
3
72
8
73
4
74
0
42
1e-07
43
1e-07
40
0
40
0
40
0
40
0
40
1
40
1
40
1
40
1
10
9.2471701
20
-87.4740923
30
0
10
7.7611006
20
-92.1562699
30
0
10
13.7619619
20
-107.1961853
30
0
10
22.0237394
20
-119.4958644
30
0
0
SPLINE
5
22C
100
AcDbEntity
8
0
6
ByLayer
62
7
370
-1
100
AcDbSpline
210
0
220
0
230
1
70
8
71
3
72
8
73
4
74
0
42
1e-07
43
1e-07
40
0
40
0
40
0
40
0
40
1
40
1
40
1
40
1
10
22.0237394
20
-119.4958644
30
0
10
25.8694674
20
-125.2211835
30
0
10
29.867372
20
-131.3410676
30
0
10
30.9079661
20
-133.0956105
30
0
0
SPLINE
5
22D
100
AcDbEntity
8
0
6
ByLayer
62
7
370
-1
100
AcDbSpline
210
0
220
0
230
1
70
8
71
3
72
8
73
4
74
0
42
1e-07
43
1e-07
40
0
40
0
40
0
40
0
40
1
40
1
40
1
40
1
10
30.9079661
20
-133.0956105
30
0
10
31.9485649
20
-134.8501393
30
0
10
36.4253149
20
-138.8469676
30
0
10
40.856301
20
-141.9774308
30
0
0
SPLINE
5
22E
100
AcDbEntity
8
0
6
ByLayer
62
7
370
-1
100
AcDbSpline
210
0
220
0
230
1
70
8
71
3
72
8
73
4
74
0
42
1e-07
43
1e-07
40
0
40
0
40
0
40
0
40
1
40
1
40
1
40
1
10
40.856301
20
-141.9774308
30
0
10
45.2872871
20
-145.1079034
30
0
10
49.8474386
20
-149.8845651
30
0
10
50.9899663
20
-152.5922351
30
0
0
SPLINE
5
22F
100
AcDbEntity
8
0
6
ByLayer
62
7
370
-1
100
AcDbSpline
210
0
220
0
230
1
70
8
71
3
72
8
73
4
74
0
42
1e-07
43
1e-07
40
0
40
0
40
0
40
0
40
1
40
1
40
1
40
1
10
50.9899663
20
-152.5922351
30
0
10
53.1607177
20
-157.7367047
30
0
10
53.5915949
20
-157.919953
30
0
10
63.0061132
20
-157.7026391
30
0
0
SPLINE
5
230
100
AcDbEntity
8
0
6
ByLayer
62
7
370
-1
100
AcDbSpline
210
0
220
0
230
1
70
8
71
3
72
8
73
4
74
0
42
1e-07
43
1e-07
40
0
40
0
40
0
40
0
40
1
40
1
40
1
40
1
10
63.0061132
20
-157.7026391
30
0
10
66.1978691
20
-157.629023
30
0
10
71.4207441
20
-158.9294002
30
0
10
74.6125
20
-160.5924858
30
0
0
SPLINE
5
231
100
AcDbEntity
8
0
6
ByLayer
62
7
370
-1
100
AcDbSpline
210
0
220
0
230
1
70
8
71
3
72
8
73
4
74
0
42
1e-07
43
1e-07
40
0
40
0
40
0
40
0
40
1
40
1
40
1
40
1
10
74.6125
20
-160.5924858
30
0
10
79.52541
20
-163.1524019
30
0
10
83.9768411
20
-163.5674589
30
0
10
103.6284717
20
-163.2980596
30
0
0
SPLINE
5
232
100
AcDbEntity
8
0
6
ByLayer
62
7
370
-1
100
AcDbSpline
210
0
220
0
230
1
70
8
71
3
72
8
73
4
74
0
42
1e-07
43
1e-07
40
0
40
0
40
0
40
0
40
1
40
1
40
1
40
1
10
103.6284717
20
-163.2980596
30
0
10
125.1024944
20
-163.0036563
30
0
10
127.9213899
20
-162.5876828
30
0
10
141.2612965
20
-157.7446759
30
0
0
LWPOLYLINE
5
233
100
AcDbEntity
8
0
6
ByLayer
62
7
370
-1
100
AcDbPolyline
90
2
70
1
43
0
10
141.2612965
20
-157.7446759
10
141.2612965
20
-157.7446759
0
SPLINE
5
234
100
AcDbEntity
8
0
6
ByLayer
62
7
370
-1
100
AcDbSpline
210
0
220
0
230
1
70
8
71
3
72
8
73
4
74
0
42
1e-07
43
1e-07
40
0
40
0
40
0
40
0
40
1
40
1
40
1
40
1
10
478.7635448
20
17.6810005
30
0
10
422.6234548
20
18.6903584
30
0
10
430.670888304
20
18.9019271778
30
0
10
396.626868462
20
19.9267289921
30
0
0
SPLINE
5
235
100
AcDbEntity
8
0
6
ByLayer
62
7
370
-1
100
AcDbSpline
210
0
220
0
230
1
70
8
71
3
72
8
73
4
74
0
42
1e-07
43
1e-07
40
0
40
0
40
0
40
0
40
1
40
1
40
1
40
1
10
644.5690967
20
14.9157743
30
0
10
619.5110514
20
14.9210806
30
0
10
615.1386132
20
14.5529907
30
0
10
597.767960088
20
15.7460295639
30
0
0
SPLINE
5
236
100
AcDbEntity
8
0
6
ByLayer
62
7
370
-1
100
AcDbSpline
210
0
220
0
230
1
70
8
71
3
72
8
73
4
74
0
42
1e-07
43
1e-07
40
0
40
0
40
0
40
0
40
1
40
1
40
1
40
1
10
764.186769583
20
13.0038503691
30
0
10
683.4301161
20
14.4280553
30
0
10
660.7558591
20
14.9120707
30
0
10
644.5690967
20
14.9157743
30
0
0
SPLINE
5
237
100
AcDbEntity
8
0
6
ByLayer
62
7
370
-1
100
AcDbSpline
210
0
220
0
230
1
70
8
71
3
72
8
73
4
74
0
42
1e-07
43
1e-07
40
0
40
0
40
0
40
0
40
1
40
1
40
1
40
1
10
711.543690088
20
-31.5866805637
30
0
10
712.9638915
20
-31.3615913
30
0
10
718.1675435
20
-31.6372416
30
0
10
756.4878467
20
-31.4044506
30
0
0
SPLINE
5
238
100
AcDbEntity
8
0
6
ByLayer
62
7
370
-1
100
AcDbSpline
210
0
220
0
230
1
70
8
71
3
72
8
73
4
74
0
42
1e-07
43
1e-07
40
0
40
0
40
0
40
0
40
1
40
1
40
1
40
1
10
649.9577783
20
-32.8645996
30
0
10
699.0603797
20
-32.3799826
30
0
10
707.9897217
20
-31.7660357
30
0
10
713.200865396
20
-31.4393760918
30
0
0
LINE
5
239
100
AcDbEntity
8
0
6
ByLayer
62
7
370
-1
100
AcDbLine
10
0.00666930000003
20
15.3370118
11
0
21
0
0
LINE
5
23A
100
AcDbEntity
8
0
6
ByLayer
62
7
370
-1
100
AcDbLine
10
0
20
0
11
-4.9741651
21
0
0
ENDBLK
5
E5
330
E3
100
AcDbEntity
8
0
100
AcDbBlockEnd
0
BLOCK
5
E7
330
E6
100
AcDbEntity
8
0
100
AcDbBlockBegin
2
BoltPlus Guitar Clean
70
0
10
0
20
0
3
BoltPlus Guitar Clean
1

0
SPLINE
5
23B
100
AcDbEntity
8
Guitar
6
ByLayer
62
256
370
-1
100
AcDbSpline
210
0
220
0
230
1
70
8
71
3
72
8
73
4
74
0
42
1e-07
43
1e-07
40
0
40
0
40
0
40
0
40
1
40
1
40
1
40
1
10
141.797311194
20
-152.588022839
30
0
10
149.728330894
20
-149.708666539
30
0
10
168.008393394
20
-142.080829739
30
0
10
182.419669694
20
-135.637256639
30
0
0
SPLINE
5
23C
100
AcDbEntity
8
Guitar
6
ByLayer
62
256
370
-1
100
AcDbSpline
210
0
220
0
230
1
70
8
71
3
72
8
73
4
74
0
42
1e-07
43
1e-07
40
0
40
0
40
0
40
0
40
1
40
1
40
1
40
1
10
182.419669694
20
-135.637256639
30
0
10
225.198035694
20
-116.510136639
30
0
10
228.503414094
20
-115.404814139
30
0
10
243.441156194
20
-115.231699039
30
0
0
SPLINE
5
23D
100
AcDbEntity
8
Guitar
6
ByLayer
62
256
370
-1
100
AcDbSpline
210
0
220
0
230
1
70
8
71
3
72
8
73
4
74
0
42
1e-07
43
1e-07
40
0
40
0
40
0
40
0
40
1
40
1
40
1
40
1
10
243.441156194
20
-115.231699039
30
0
10
258.121286594
20
-115.061540239
30
0
10
269.104965694
20
-118.139636039
30
0
10
292.985407194
20
-129.116138239
30
0
0
SPLINE
5
23E
100
AcDbEntity
8
Guitar
6
ByLayer
62
256
370
-1
100
AcDbSpline
210
0
220
0
230
1
70
8
71
3
72
8
73
4
74
0
42
1e-07
43
1e-07
40
0
40
0
40
0
40
0
40
1
40
1
40
1
40
1
10
292.985407194
20
-129.116138239
30
0
10
314.195440294
20
-138.865169639
30
0
10
331.750137694
20
-141.870589339
30
0
10
350.516565594
20
-138.965660339
30
0
0
SPLINE
5
23F
100
AcDbEntity
8
Guitar
6
ByLayer
62
256
370
-1
100
AcDbSpline
210
0
220
0
230
1
70
8
71
3
72
8
73
4
74
0
42
1e-07
43
1e-07
40
0
40
0
40
0
40
0
40
1
40
1
40
1
40
1
10
350.516565594
20
-138.965660339
30
0
10
370.303217794
20
-135.902811339
30
0
10
386.862962794
20
-126.140840839
30
0
10
386.862962794
20
-117.539460139
30
0
0
SPLINE
5
240
100
AcDbEntity
8
Guitar
6
ByLayer
62
256
370
-1
100
AcDbSpline
210
0
220
0
230
1
70
8
71
3
72
8
73
4
74
0
42
1e-07
43
1e-07
40
0
40
0
40
0
40
0
40
1
40
1
40
1
40
1
10
386.862962794
20
-117.539460139
30
0
10
386.862962794
20
-110.820767839
30
0
10
380.788974194
20
-106.636724439
30
0
10
365.489458994
20
-102.816418739
30
0
0
SPLINE
5
241
100
AcDbEntity
8
Guitar
6
ByLayer
62
256
370
-1
100
AcDbSpline
210
0
220
0
230
1
70
8
71
3
72
8
73
4
74
0
42
1e-07
43
1e-07
40
0
40
0
40
0
40
0
40
1
40
1
40
1
40
1
10
365.489458994
20
-102.816418739
30
0
10
347.919416094
20
-98.4291614388
30
0
10
338.824502494
20
-93.1101479388
30
0
10
332.458004694
20
-83.4985163388
30
0
0
SPLINE
5
242
100
AcDbEntity
8
Guitar
6
ByLayer
62
256
370
-1
100
AcDbSpline
210
0
220
0
230
1
70
8
71
3
72
8
73
4
74
0
42
1e-07
43
1e-07
40
0
40
0
40
0
40
0
40
1
40
1
40
1
40
1
10
332.458004694
20
-83.4985163388
30
0
10
320.207600394
20
-65.0037578388
30
0
10
325.834830494
20
-38.5249166388
30
0
10
343.109459594
20
-33.3782991388
30
0
0
SPLINE
5
243
100
AcDbEntity
8
Guitar
6
ByLayer
62
256
370
-1
100
AcDbSpline
210
0
220
0
230
1
70
8
71
3
72
8
73
4
74
0
42
1e-07
43
1e-07
40
0
40
0
40
0
40
0
40
1
40
1
40
1
40
1
10
343.109459594
20
-33.3782991388
30
0
10
348.838825394
20
-31.6713625388
30
0
10
463.823305494
20
-29.5502337388
30
0
10
650.493792994
20
-27.7079465388
30
0
0
SPLINE
5
244
100
AcDbEntity
8
Guitar
6
ByLayer
62
256
370
-1
100
AcDbSpline
210
0
220
0
230
1
70
8
71
3
72
8
73
4
74
0
42
1e-07
43
1e-07
40
0
40
0
40
0
40
0
40
1
40
1
40
1
40
1
10
757.023861394
20
-26.2477975388
30
0
10
804.821968394
20
-25.9574362388
30
0
10
804.592895094
20
-25.9191688388
30
0
10
821.184632994
20
-36.9671909388
30
0
0
SPLINE
5
245
100
AcDbEntity
8
Guitar
6
ByLayer
62
256
370
-1
100
AcDbSpline
210
0
220
0
230
1
70
8
71
3
72
8
73
4
74
0
42
1e-07
43
1e-07
40
0
40
0
40
0
40
0
40
1
40
1
40
1
40
1
10
821.184632994
20
-36.9671909388
30
0
10
829.467894194
20
-42.4828242388
30
0
10
831.182266194
20
-42.6272646388
30
0
10
856.921712794
20
-39.9780344388
30
0
0
SPLINE
5
246
100
AcDbEntity
8
Guitar
6
ByLayer
62
256
370
-1
100
AcDbSpline
210
0
220
0
230
1
70
8
71
3
72
8
73
4
74
0
42
1e-07
43
1e-07
40
0
40
0
40
0
40
0
40
1
40
1
40
1
40
1
10
856.921712794
20
-39.9780344388
30
0
10
876.603982694
20
-37.9522498388
30
0
10
908.431978494
20
-37.0270689388
30
0
10
912.466571294
20
-38.3634481388
30
0
0
SPLINE
5
247
100
AcDbEntity
8
Guitar
6
ByLayer
62
256
370
-1
100
AcDbSpline
210
0
220
0
230
1
70
8
71
3
72
8
73
4
74
0
42
1e-07
43
1e-07
40
0
40
0
40
0
40
0
40
1
40
1
40
1
40
1
10
912.466571294
20
-38.3634481388
30
0
10
913.834468694
20
-38.8165328388
30
0
10
925.565555894
20
-40.4314528388
30
0
10
938.535647694
20
-41.9521425388
30
0
0
SPLINE
5
248
100
AcDbEntity
8
Guitar
6
ByLayer
62
256
370
-1
100
AcDbSpline
210
0
220
0
230
1
70
8
71
3
72
8
73
4
74
0
42
1e-07
43
1e-07
40
0
40
0
40
0
40
0
40
1
40
1
40
1
40
1
10
938.535647694
20
-41.9521425388
30
0
10
959.609333794
20
-44.4229231388
30
0
10
962.630178894
20
-44.4519738388
30
0
10
966.936177894
20
-42.2252595388
30
0
0
SPLINE
5
249
100
AcDbEntity
8
Guitar
6
ByLayer
62
256
370
-1
100
AcDbSpline
210
0
220
0
230
1
70
8
71
3
72
8
73
4
74
0
42
1e-07
43
1e-07
40
0
40
0
40
0
40
0
40
1
40
1
40
1
40
1
10
966.936177894
20
-42.2252595388
30
0
10
973.276303994
20
-38.9466429388
30
0
10
974.646917994
20
-34.9859341388
30
0
10
970.942410894
20
-30.6482900388
30
0
0
SPLINE
5
24A
100
AcDbEntity
8
Guitar
6
ByLayer
62
256
370
-1
100
AcDbSpline
210
0
220
0
230
1
70
8
71
3
72
8
73
4
74
0
42
1e-07
43
1e-07
40
0
40
0
40
0
40
0
40
1
40
1
40
1
40
1
10
970.942410894
20
-30.6482900388
30
0
10
969.311134894
20
-28.7382100388
30
0
10
966.511358994
20
-24.2850681388
30
0
10
964.720682494
20
-20.7524165388
30
0
0
SPLINE
5
24B
100
AcDbEntity
8
Guitar
6
ByLayer
62
256
370
-1
100
AcDbSpline
210
0
220
0
230
1
70
8
71
3
72
8
73
4
74
0
42
1e-07
43
1e-07
40
0
40
0
40
0
40
0
40
1
40
1
40
1
40
1
10
964.720682494
20
-20.7524165388
30
0
10
962.930024794
20
-17.2197884388
30
0
10
959.766863694
20
-13.2168078388
30
0
10
957.691442394
20
-11.8569333388
30
0
0
SPLINE
5
24C
100
AcDbEntity
8
Guitar
6
ByLayer
62
256
370
-1
100
AcDbSpline
210
0
220
0
230
1
70
8
71
3
72
8
73
4
74
0
42
1e-07
43
1e-07
40
0
40
0
40
0
40
0
40
1
40
1
40
1
40
1
10
957.691442394
20
-11.8569333388
30
0
10
953.435385594
20
-9.0682588388
30
0
10
952.588135394
20
-3.1336252388
30
0
10
956.446083394
20
-3.1336252388
30
0
0
SPLINE
5
24D
100
AcDbEntity
8
Guitar
6
ByLayer
62
256
370
-1
100
AcDbSpline
210
0
220
0
230
1
70
8
71
3
72
8
73
4
74
0
42
1e-07
43
1e-07
40
0
40
0
40
0
40
0
40
1
40
1
40
1
40
1
10
956.446083394
20
-3.1336252388
30
0
10
958.505308494
20
-3.1336252388
30
0
10
962.208236394
20
2.8504429612
30
0
10
962.208236394
20
6.1782262612
30
0
0
SPLINE
5
24E
100
AcDbEntity
8
Guitar
6
ByLayer
62
256
370
-1
100
AcDbSpline
210
0
220
0
230
1
70
8
71
3
72
8
73
4
74
0
42
1e-07
43
1e-07
40
0
40
0
40
0
40
0
40
1
40
1
40
1
40
1
10
962.208236394
20
6.1782262612
30
0
10
962.208236394
20
7.9746555612
30
0
10
950.148750794
20
11.8685256612
30
0
10
947.343052894
20
10.9780307612
30
0
0
SPLINE
5
24F
100
AcDbEntity
8
Guitar
6
ByLayer
62
256
370
-1
100
AcDbSpline
210
0
220
0
230
1
70
8
71
3
72
8
73
4
74
0
42
1e-07
43
1e-07
40
0
40
0
40
0
40
0
40
1
40
1
40
1
40
1
10
947.343052894
20
10.9780307612
30
0
10
943.838121894
20
9.8656065612
30
0
10
941.682307094
20
3.4646389612
30
0
10
944.023931694
20
1.1230143612
30
0
0
SPLINE
5
250
100
AcDbEntity
8
Guitar
6
ByLayer
62
256
370
-1
100
AcDbSpline
210
0
220
0
230
1
70
8
71
3
72
8
73
4
74
0
42
1e-07
43
1e-07
40
0
40
0
40
0
40
0
40
1
40
1
40
1
40
1
10
944.023931694
20
1.1230143612
30
0
10
946.925396794
20
-1.7784507388
30
0
10
945.699773094
20
-4.7916818388
30
0
10
941.618161494
20
-4.7916818388
30
0
0
SPLINE
5
251
100
AcDbEntity
8
Guitar
6
ByLayer
62
256
370
-1
100
AcDbSpline
210
0
220
0
230
1
70
8
71
3
72
8
73
4
74
0
42
1e-07
43
1e-07
40
0
40
0
40
0
40
0
40
1
40
1
40
1
40
1
10
941.618161494
20
-4.7916818388
30
0
10
932.600050594
20
-4.7916818388
30
0
10
929.160473094
20
0.0097958612
30
0
10
935.679349594
20
3.4985964612
30
0
0
SPLINE
5
252
100
AcDbEntity
8
Guitar
6
ByLayer
62
256
370
-1
100
AcDbSpline
210
0
220
0
230
1
70
8
71
3
72
8
73
4
74
0
42
1e-07
43
1e-07
40
0
40
0
40
0
40
0
40
1
40
1
40
1
40
1
10
935.679349594
20
3.4985964612
30
0
10
939.156132294
20
5.3593170612
30
0
10
940.250889194
20
12.4753238612
30
0
10
937.337406194
20
14.2759549612
30
0
0
SPLINE
5
253
100
AcDbEntity
8
Guitar
6
ByLayer
62
256
370
-1
100
AcDbSpline
210
0
220
0
230
1
70
8
71
3
72
8
73
4
74
0
42
1e-07
43
1e-07
40
0
40
0
40
0
40
0
40
1
40
1
40
1
40
1
10
937.337406194
20
14.2759549612
30
0
10
936.404225894
20
14.8526966612
30
0
10
935.679349594
20
13.5232781612
30
0
10
935.679349594
20
11.2350972612
30
0
0
SPLINE
5
254
100
AcDbEntity
8
Guitar
6
ByLayer
62
256
370
-1
100
AcDbSpline
210
0
220
0
230
1
70
8
71
3
72
8
73
4
74
0
42
1e-07
43
1e-07
40
0
40
0
40
0
40
0
40
1
40
1
40
1
40
1
10
935.679349594
20
11.2350972612
30
0
10
935.679349594
20
7.5025499612
30
0
10
932.998023094
20
5.1566530612
30
0
10
928.731767294
20
5.1566530612
30
0
0
SPLINE
5
255
100
AcDbEntity
8
Guitar
6
ByLayer
62
256
370
-1
100
AcDbSpline
210
0
220
0
230
1
70
8
71
3
72
8
73
4
74
0
42
1e-07
43
1e-07
40
0
40
0
40
0
40
0
40
1
40
1
40
1
40
1
10
928.731767294
20
5.1566530612
30
0
10
927.128771194
20
5.1566530612
30
0
10
927.680424294
20
9.6141565612
30
0
10
930.046470094
20
15.7799737612
30
0
0
SPLINE
5
256
100
AcDbEntity
8
Guitar
6
ByLayer
62
256
370
-1
100
AcDbSpline
210
0
220
0
230
1
70
8
71
3
72
8
73
4
74
0
42
1e-07
43
1e-07
40
0
40
0
40
0
40
0
40
1
40
1
40
1
40
1
10
930.046470094
20
15.7799737612
30
0
10
930.770312394
20
17.6662717612
30
0
10
930.089446894
20
18.4210964612
30
0
10
927.664322094
20
18.4210964612
30
0
0
SPLINE
5
257
100
AcDbEntity
8
Guitar
6
ByLayer
62
256
370
-1
100
AcDbSpline
210
0
220
0
230
1
70
8
71
3
72
8
73
4
74
0
42
1e-07
43
1e-07
40
0
40
0
40
0
40
0
40
1
40
1
40
1
40
1
10
927.664322094
20
18.4210964612
30
0
10
925.796715994
20
18.4210964612
30
0
10
923.807539694
20
17.6749714612
30
0
10
923.243934494
20
16.7630398612
30
0
0
SPLINE
5
258
100
AcDbEntity
8
Guitar
6
ByLayer
62
256
370
-1
100
AcDbSpline
210
0
220
0
230
1
70
8
71
3
72
8
73
4
74
0
42
1e-07
43
1e-07
40
0
40
0
40
0
40
0
40
1
40
1
40
1
40
1
10
923.243934494
20
16.7630398612
30
0
10
921.443510194
20
13.8498905612
30
0
10
917.864817394
20
14.9821816612
30
0
10
916.693497494
20
18.8356082612
30
0
0
SPLINE
5
259
100
AcDbEntity
8
Guitar
6
ByLayer
62
256
370
-1
100
AcDbSpline
210
0
220
0
230
1
70
8
71
3
72
8
73
4
74
0
42
1e-07
43
1e-07
40
0
40
0
40
0
40
0
40
1
40
1
40
1
40
1
10
916.693497494
20
18.8356082612
30
0
10
915.503504494
20
22.7504497612
30
0
10
915.064439894
20
22.1901768612
30
0
10
913.392020094
20
14.6226645612
30
0
0
SPLINE
5
25A
100
AcDbEntity
8
Guitar
6
ByLayer
62
256
370
-1
100
AcDbSpline
210
0
220
0
230
1
70
8
71
3
72
8
73
4
74
0
42
1e-07
43
1e-07
40
0
40
0
40
0
40
0
40
1
40
1
40
1
40
1
10
913.392020094
20
14.6226645612
30
0
10
912.761491594
20
11.7695483612
30
0
10
911.653992994
20
10.4373051612
30
0
10
910.503710294
20
11.1482130612
30
0
0
SPLINE
5
25B
100
AcDbEntity
8
Guitar
6
ByLayer
62
256
370
-1
100
AcDbSpline
210
0
220
0
230
1
70
8
71
3
72
8
73
4
74
0
42
1e-07
43
1e-07
40
0
40
0
40
0
40
0
40
1
40
1
40
1
40
1
10
910.503710294
20
11.1482130612
30
0
10
909.365172894
20
11.8518782612
30
0
10
909.099152894
20
11.5552095612
30
0
10
909.821162194
20
10.3870057612
30
0
0
SPLINE
5
25C
100
AcDbEntity
8
Guitar
6
ByLayer
62
256
370
-1
100
AcDbSpline
210
0
220
0
230
1
70
8
71
3
72
8
73
4
74
0
42
1e-07
43
1e-07
40
0
40
0
40
0
40
0
40
1
40
1
40
1
40
1
10
909.821162194
20
10.3870057612
30
0
10
910.471853694
20
9.3341681612
30
0
10
910.110141694
20
8.4727615612
30
0
10
909.017363494
20
8.4727615612
30
0
0
SPLINE
5
25D
100
AcDbEntity
8
Guitar
6
ByLayer
62
256
370
-1
100
AcDbSpline
210
0
220
0
230
1
70
8
71
3
72
8
73
4
74
0
42
1e-07
43
1e-07
40
0
40
0
40
0
40
0
40
1
40
1
40
1
40
1
10
909.017363494
20
8.4727615612
30
0
10
907.607593794
20
8.4727615612
30
0
10
907.315695594
20
10.8806702612
30
0
10
908.012357794
20
16.7630398612
30
0
0
SPLINE
5
25E
100
AcDbEntity
8
Guitar
6
ByLayer
62
256
370
-1
100
AcDbSpline
210
0
220
0
230
1
70
8
71
3
72
8
73
4
74
0
42
1e-07
43
1e-07
40
0
40
0
40
0
40
0
40
1
40
1
40
1
40
1
10
908.012357794
20
16.7630398612
30
0
10
908.955342294
20
24.7250231612
30
0
10
908.833175194
20
25.0533181612
30
0
10
904.927207294
20
25.0533181612
30
0
0
SPLINE
5
25F
100
AcDbEntity
8
Guitar
6
ByLayer
62
256
370
-1
100
AcDbSpline
210
0
220
0
230
1
70
8
71
3
72
8
73
4
74
0
42
1e-07
43
1e-07
40
0
40
0
40
0
40
0
40
1
40
1
40
1
40
1
10
904.927207294
20
25.0533181612
30
0
10
902.690345694
20
25.0533181612
30
0
10
900.860184494
20
24.3071931612
30
0
10
900.860184494
20
23.3952615612
30
0
0
SPLINE
5
260
100
AcDbEntity
8
Guitar
6
ByLayer
62
256
370
-1
100
AcDbSpline
210
0
220
0
230
1
70
8
71
3
72
8
73
4
74
0
42
1e-07
43
1e-07
40
0
40
0
40
0
40
0
40
1
40
1
40
1
40
1
10
900.860184494
20
23.3952615612
30
0
10
900.860184494
20
22.4833299612
30
0
10
899.740996994
20
21.7372049612
30
0
10
898.373099594
20
21.7372049612
30
0
0
SPLINE
5
261
100
AcDbEntity
8
Guitar
6
ByLayer
62
256
370
-1
100
AcDbSpline
210
0
220
0
230
1
70
8
71
3
72
8
73
4
74
0
42
1e-07
43
1e-07
40
0
40
0
40
0
40
0
40
1
40
1
40
1
40
1
10
898.373099594
20
21.7372049612
30
0
10
897.005202194
20
21.7372049612
30
0
10
895.886014694
20
22.8123581612
30
0
10
895.886014694
20
24.1264405612
30
0
0
SPLINE
5
262
100
AcDbEntity
8
Guitar
6
ByLayer
62
256
370
-1
100
AcDbSpline
210
0
220
0
230
1
70
8
71
3
72
8
73
4
74
0
42
1e-07
43
1e-07
40
0
40
0
40
0
40
0
40
1
40
1
40
1
40
1
10
895.886014694
20
24.1264405612
30
0
10
895.886014694
20
25.4405088612
30
0
10
895.139889694
20
26.9767931612
30
0
10
894.227962794
20
27.5404030612
30
0
0
SPLINE
5
263
100
AcDbEntity
8
Guitar
6
ByLayer
62
256
370
-1
100
AcDbSpline
210
0
220
0
230
1
70
8
71
3
72
8
73
4
74
0
42
1e-07
43
1e-07
40
0
40
0
40
0
40
0
40
1
40
1
40
1
40
1
10
894.227962794
20
27.5404030612
30
0
10
893.316031194
20
28.1040082612
30
0
10
892.569906194
20
26.9590083612
30
0
10
892.569906194
20
24.9959499612
30
0
0
SPLINE
5
264
100
AcDbEntity
8
Guitar
6
ByLayer
62
256
370
-1
100
AcDbSpline
210
0
220
0
230
1
70
8
71
3
72
8
73
4
74
0
42
1e-07
43
1e-07
40
0
40
0
40
0
40
0
40
1
40
1
40
1
40
1
10
892.569906194
20
24.9959499612
30
0
10
892.569906194
20
22.9664899612
30
0
10
893.844762394
20
21.0933660612
30
0
10
895.525092294
20
20.6539536612
30
0
0
SPLINE
5
265
100
AcDbEntity
8
Guitar
6
ByLayer
62
256
370
-1
100
AcDbSpline
210
0
220
0
230
1
70
8
71
3
72
8
73
4
74
0
42
1e-07
43
1e-07
40
0
40
0
40
0
40
0
40
1
40
1
40
1
40
1
10
895.525092294
20
20.6539536612
30
0
10
898.876483694
20
19.7775446612
30
0
10
903.305190294
20
11.0874514612
30
0
10
901.713163994
20
8.5115365612
30
0
0
SPLINE
5
266
100
AcDbEntity
8
Guitar
6
ByLayer
62
256
370
-1
100
AcDbSpline
210
0
220
0
230
1
70
8
71
3
72
8
73
4
74
0
42
1e-07
43
1e-07
40
0
40
0
40
0
40
0
40
1
40
1
40
1
40
1
10
901.713163994
20
8.5115365612
30
0
10
898.545566094
20
3.3862476612
30
0
10
886.473634894
20
8.9769305612
30
0
10
888.011315094
20
14.8570347612
30
0
0
SPLINE
5
267
100
AcDbEntity
8
Guitar
6
ByLayer
62
256
370
-1
100
AcDbSpline
210
0
220
0
230
1
70
8
71
3
72
8
73
4
74
0
42
1e-07
43
1e-07
40
0
40
0
40
0
40
0
40
1
40
1
40
1
40
1
10
888.011315094
20
14.8570347612
30
0
10
888.638680494
20
17.2560792612
30
0
10
888.181097894
20
18.4210964612
30
0
10
886.611476494
20
18.4210964612
30
0
0
SPLINE
5
268
100
AcDbEntity
8
Guitar
6
ByLayer
62
256
370
-1
100
AcDbSpline
210
0
220
0
230
1
70
8
71
3
72
8
73
4
74
0
42
1e-07
43
1e-07
40
0
40
0
40
0
40
0
40
1
40
1
40
1
40
1
10
886.611476494
20
18.4210964612
30
0
10
884.026091094
20
18.4210964612
30
0
10
883.865853994
20
19.1952757612
30
0
10
885.324677594
20
24.6388063612
30
0
0
SPLINE
5
269
100
AcDbEntity
8
Guitar
6
ByLayer
62
256
370
-1
100
AcDbSpline
210
0
220
0
230
1
70
8
71
3
72
8
73
4
74
0
42
1e-07
43
1e-07
40
0
40
0
40
0
40
0
40
1
40
1
40
1
40
1
10
885.324677594
20
24.6388063612
30
0
10
885.874544694
20
26.6906430612
30
0
10
887.505844194
20
28.3694313612
30
0
10
888.949759394
20
28.3694313612
30
0
0
SPLINE
5
26A
100
AcDbEntity
8
Guitar
6
ByLayer
62
256
370
-1
100
AcDbSpline
210
0
220
0
230
1
70
8
71
3
72
8
73
4
74
0
42
1e-07
43
1e-07
40
0
40
0
40
0
40
0
40
1
40
1
40
1
40
1
10
888.949759394
20
28.3694313612
30
0
10
890.826878294
20
28.3694313612
30
0
10
891.065595994
20
28.8789019612
30
0
10
889.787398094
20
30.1571045612
30
0
0
SPLINE
5
26B
100
AcDbEntity
8
Guitar
6
ByLayer
62
256
370
-1
100
AcDbSpline
210
0
220
0
230
1
70
8
71
3
72
8
73
4
74
0
42
1e-07
43
1e-07
40
0
40
0
40
0
40
0
40
1
40
1
40
1
40
1
10
889.787398094
20
30.1571045612
30
0
10
888.804167494
20
31.1403304612
30
0
10
885.856966694
20
31.6999171612
30
0
10
883.238065594
20
31.4006446612
30
0
0
SPLINE
5
26C
100
AcDbEntity
8
Guitar
6
ByLayer
62
256
370
-1
100
AcDbSpline
210
0
220
0
230
1
70
8
71
3
72
8
73
4
74
0
42
1e-07
43
1e-07
40
0
40
0
40
0
40
0
40
1
40
1
40
1
40
1
10
883.238065594
20
31.4006446612
30
0
10
878.598982294
20
30.8705175612
30
0
10
878.488372494
20
30.6324766612
30
0
10
878.940568894
20
22.1517214612
30
0
0
SPLINE
5
26D
100
AcDbEntity
8
Guitar
6
ByLayer
62
256
370
-1
100
AcDbSpline
210
0
220
0
230
1
70
8
71
3
72
8
73
4
74
0
42
1e-07
43
1e-07
40
0
40
0
40
0
40
0
40
1
40
1
40
1
40
1
10
878.940568894
20
22.1517214612
30
0
10
879.372696294
20
14.0475020612
30
0
10
879.143914394
20
13.4505644612
30
0
10
875.624455694
20
13.4996559612
30
0
0
SPLINE
5
26E
100
AcDbEntity
8
Guitar
6
ByLayer
62
256
370
-1
100
AcDbSpline
210
0
220
0
230
1
70
8
71
3
72
8
73
4
74
0
42
1e-07
43
1e-07
40
0
40
0
40
0
40
0
40
1
40
1
40
1
40
1
10
875.624455694
20
13.4996559612
30
0
10
867.340348494
20
13.6151866612
30
0
10
862.118972794
20
23.6409211612
30
0
10
869.357127894
20
25.5337427612
30
0
0
SPLINE
5
26F
100
AcDbEntity
8
Guitar
6
ByLayer
62
256
370
-1
100
AcDbSpline
210
0
220
0
230
1
70
8
71
3
72
8
73
4
74
0
42
1e-07
43
1e-07
40
0
40
0
40
0
40
0
40
1
40
1
40
1
40
1
10
869.357127894
20
25.5337427612
30
0
10
871.508115794
20
26.0962340612
30
0
10
872.673236394
20
27.7953592612
30
0
10
872.673236394
20
30.3696667612
30
0
0
SPLINE
5
270
100
AcDbEntity
8
Guitar
6
ByLayer
62
256
370
-1
100
AcDbSpline
210
0
220
0
230
1
70
8
71
3
72
8
73
4
74
0
42
1e-07
43
1e-07
40
0
40
0
40
0
40
0
40
1
40
1
40
1
40
1
10
872.673236394
20
30.3696667612
30
0
10
872.673236394
20
35.7979834612
30
0
10
869.703141894
20
38.3177615612
30
0
10
863.304707594
20
38.3177615612
30
0
0
SPLINE
5
271
100
AcDbEntity
8
Guitar
6
ByLayer
62
256
370
-1
100
AcDbSpline
210
0
220
0
230
1
70
8
71
3
72
8
73
4
74
0
42
1e-07
43
1e-07
40
0
40
0
40
0
40
0
40
1
40
1
40
1
40
1
10
863.304707594
20
38.3177615612
30
0
10
856.601717994
20
38.3177615612
30
0
10
854.214808894
20
34.6891030612
30
0
10
856.658728994
20
28.2143924612
30
0
0
SPLINE
5
272
100
AcDbEntity
8
Guitar
6
ByLayer
62
256
370
-1
100
AcDbSpline
210
0
220
0
230
1
70
8
71
3
72
8
73
4
74
0
42
1e-07
43
1e-07
40
0
40
0
40
0
40
0
40
1
40
1
40
1
40
1
10
856.658728994
20
28.2143924612
30
0
10
858.917821594
20
22.2293842612
30
0
10
857.658762094
20
21.0743545612
30
0
10
850.366806094
20
22.4423318612
30
0
0
SPLINE
5
273
100
AcDbEntity
8
Guitar
6
ByLayer
62
256
370
-1
100
AcDbSpline
210
0
220
0
230
1
70
8
71
3
72
8
73
4
74
0
42
1e-07
43
1e-07
40
0
40
0
40
0
40
0
40
1
40
1
40
1
40
1
10
850.366806094
20
22.4423318612
30
0
10
845.581736094
20
23.3400177612
30
0
10
844.486292994
20
24.2828800612
30
0
10
844.486292994
20
27.5038041612
30
0
0
SPLINE
5
274
100
AcDbEntity
8
Guitar
6
ByLayer
62
256
370
-1
100
AcDbSpline
210
0
220
0
230
1
70
8
71
3
72
8
73
4
74
0
42
1e-07
43
1e-07
40
0
40
0
40
0
40
0
40
1
40
1
40
1
40
1
10
844.486292994
20
27.5038041612
30
0
10
844.486292994
20
30.0058773612
30
0
10
845.706253194
20
31.8492784612
30
0
10
847.802406194
20
32.5145681612
30
0
0
SPLINE
5
275
100
AcDbEntity
8
Guitar
6
ByLayer
62
256
370
-1
100
AcDbSpline
210
0
220
0
230
1
70
8
71
3
72
8
73
4
74
0
42
1e-07
43
1e-07
40
0
40
0
40
0
40
0
40
1
40
1
40
1
40
1
10
847.802406194
20
32.5145681612
30
0
10
851.620469994
20
33.7263832612
30
0
10
852.319068594
20
40.2314652612
30
0
10
848.932934794
20
43.0417080612
30
0
0
SPLINE
5
276
100
AcDbEntity
8
Guitar
6
ByLayer
62
256
370
-1
100
AcDbSpline
210
0
220
0
230
1
70
8
71
3
72
8
73
4
74
0
42
1e-07
43
1e-07
40
0
40
0
40
0
40
0
40
1
40
1
40
1
40
1
10
848.932934794
20
43.0417080612
30
0
10
847.730858094
20
44.0393394612
30
0
10
844.291398094
20
45.0633566612
30
0
10
841.289696094
20
45.3173023612
30
0
0
SPLINE
5
277
100
AcDbEntity
8
Guitar
6
ByLayer
62
256
370
-1
100
AcDbSpline
210
0
220
0
230
1
70
8
71
3
72
8
73
4
74
0
42
1e-07
43
1e-07
40
0
40
0
40
0
40
0
40
1
40
1
40
1
40
1
10
841.289696094
20
45.3173023612
30
0
10
834.428184894
20
45.8977805612
30
0
10
830.980767794
20
41.7395260612
30
0
10
834.135529994
20
36.6879331612
30
0
0
SPLINE
5
278
100
AcDbEntity
8
Guitar
6
ByLayer
62
256
370
-1
100
AcDbSpline
210
0
220
0
230
1
70
8
71
3
72
8
73
4
74
0
42
1e-07
43
1e-07
40
0
40
0
40
0
40
0
40
1
40
1
40
1
40
1
10
834.135529994
20
36.6879331612
30
0
10
837.664308794
20
31.0374803612
30
0
10
836.711341494
20
29.5617555612
30
0
10
830.309269394
20
30.7627982612
30
0
0
SPLINE
5
279
100
AcDbEntity
8
Guitar
6
ByLayer
62
256
370
-1
100
AcDbSpline
210
0
220
0
230
1
70
8
71
3
72
8
73
4
74
0
42
1e-07
43
1e-07
40
0
40
0
40
0
40
0
40
1
40
1
40
1
40
1
10
830.309269394
20
30.7627982612
30
0
10
825.463569394
20
31.6718534612
30
0
10
822.928784194
20
30.9480487612
30
0
10
815.976055394
20
26.6699865612
30
0
0
SPLINE
5
27A
100
AcDbEntity
8
Guitar
6
ByLayer
62
256
370
-1
100
AcDbSpline
210
0
220
0
230
1
70
8
71
3
72
8
73
4
74
0
42
1e-07
43
1e-07
40
0
40
0
40
0
40
0
40
1
40
1
40
1
40
1
10
815.976055394
20
26.6699865612
30
0
10
811.330500194
20
23.8115546612
30
0
10
805.585619694
20
20.7252620612
30
0
10
803.209675694
20
19.8115679612
30
0
0
SPLINE
5
27B
100
AcDbEntity
8
Guitar
6
ByLayer
62
256
370
-1
100
AcDbSpline
210
0
220
0
230
1
70
8
71
3
72
8
73
4
74
0
42
1e-07
43
1e-07
40
0
40
0
40
0
40
0
40
1
40
1
40
1
40
1
10
803.209675694
20
19.8115679612
30
0
10
800.814532194
20
18.8904995612
30
0
10
783.745246094
20
18.1704360612
30
0
10
764.899627894
20
18.1954823612
30
0
0
SPLINE
5
27C
100
AcDbEntity
8
Guitar
6
ByLayer
62
256
370
-1
100
AcDbSpline
210
0
220
0
230
1
70
8
71
3
72
8
73
4
74
0
42
1e-07
43
1e-07
40
0
40
0
40
0
40
0
40
1
40
1
40
1
40
1
10
598.679559494
20
20.5942636612
30
0
10
600.275430394
20
21.0113087612
30
0
10
587.777843694
20
21.4401884612
30
0
10
570.907127894
20
21.5473155612
30
0
0
SPLINE
5
27D
100
AcDbEntity
8
Guitar
6
ByLayer
62
256
370
-1
100
AcDbSpline
210
0
220
0
230
1
70
8
71
3
72
8
73
4
74
0
42
1e-07
43
1e-07
40
0
40
0
40
0
40
0
40
1
40
1
40
1
40
1
10
570.907127894
20
21.5473155612
30
0
10
554.036412094
20
21.6544896612
30
0
10
512.812998794
20
22.2350994612
30
0
10
479.299559494
20
22.8376535612
30
0
0
SPLINE
5
27E
100
AcDbEntity
8
Guitar
6
ByLayer
62
256
370
-1
100
AcDbSpline
210
0
220
0
230
1
70
8
71
3
72
8
73
4
74
0
42
1e-07
43
1e-07
40
0
40
0
40
0
40
0
40
1
40
1
40
1
40
1
10
397.136551794
20
25.0533181612
30
0
10
386.560729294
20
25.0533181612
30
0
10
385.536514694
20
25.3902329612
30
0
10
380.754950894
20
30.4419997612
30
0
0
SPLINE
5
27F
100
AcDbEntity
8
Guitar
6
ByLayer
62
256
370
-1
100
AcDbSpline
210
0
220
0
230
1
70
8
71
3
72
8
73
4
74
0
42
1e-07
43
1e-07
40
0
40
0
40
0
40
0
40
1
40
1
40
1
40
1
10
380.754950894
20
30.4419997612
30
0
10
373.660061194
20
37.9378041612
30
0
10
371.940462794
20
41.8950631612
30
0
10
371.940462794
20
50.7265135612
30
0
0
SPLINE
5
280
100
AcDbEntity
8
Guitar
6
ByLayer
62
256
370
-1
100
AcDbSpline
210
0
220
0
230
1
70
8
71
3
72
8
73
4
74
0
42
1e-07
43
1e-07
40
0
40
0
40
0
40
0
40
1
40
1
40
1
40
1
10
371.940462794
20
50.7265135612
30
0
10
371.940462794
20
59.9846158612
30
0
10
374.604916294
20
65.4236673612
30
0
10
382.995671194
20
73.2939207612
30
0
0
SPLINE
5
281
100
AcDbEntity
8
Guitar
6
ByLayer
62
256
370
-1
100
AcDbSpline
210
0
220
0
230
1
70
8
71
3
72
8
73
4
74
0
42
1e-07
43
1e-07
40
0
40
0
40
0
40
0
40
1
40
1
40
1
40
1
10
382.995671194
20
73.2939207612
30
0
10
391.207078794
20
80.9959423612
30
0
10
399.120487594
20
85.6051383612
30
0
10
408.417684494
20
88.1010592612
30
0
0
SPLINE
5
282
100
AcDbEntity
8
Guitar
6
ByLayer
62
256
370
-1
100
AcDbSpline
210
0
220
0
230
1
70
8
71
3
72
8
73
4
74
0
42
1e-07
43
1e-07
40
0
40
0
40
0
40
0
40
1
40
1
40
1
40
1
10
408.417684494
20
88.1010592612
30
0
10
417.016437894
20
90.4094877612
30
0
10
447.752835194
20
94.9732676612
30
0
10
456.898113994
20
95.2995087612
30
0
0
SPLINE
5
283
100
AcDbEntity
8
Guitar
6
ByLayer
62
256
370
-1
100
AcDbSpline
210
0
220
0
230
1
70
8
71
3
72
8
73
4
74
0
42
1e-07
43
1e-07
40
0
40
0
40
0
40
0
40
1
40
1
40
1
40
1
10
456.898113994
20
95.2995087612
30
0
10
462.160182294
20
95.4872220612
30
0
10
463.351608794
20
96.2478888612
30
0
10
464.773875794
20
100.327752061
30
0
0
SPLINE
5
284
100
AcDbEntity
8
Guitar
6
ByLayer
62
256
370
-1
100
AcDbSpline
210
0
220
0
230
1
70
8
71
3
72
8
73
4
74
0
42
1e-07
43
1e-07
40
0
40
0
40
0
40
0
40
1
40
1
40
1
40
1
10
464.773875794
20
100.327752061
30
0
10
466.983439794
20
106.666120361
30
0
10
466.889872194
20
107.956096461
30
0
10
464.220525994
20
107.956096461
30
0
0
SPLINE
5
285
100
AcDbEntity
8
Guitar
6
ByLayer
62
256
370
-1
100
AcDbSpline
210
0
220
0
230
1
70
8
71
3
72
8
73
4
74
0
42
1e-07
43
1e-07
40
0
40
0
40
0
40
0
40
1
40
1
40
1
40
1
10
464.220525994
20
107.956096461
30
0
10
462.994502794
20
107.956096461
30
0
10
457.627126294
20
111.775175461
30
0
10
452.293016394
20
116.442942861
30
0
0
SPLINE
5
286
100
AcDbEntity
8
Guitar
6
ByLayer
62
256
370
-1
100
AcDbSpline
210
0
220
0
230
1
70
8
71
3
72
8
73
4
74
0
42
1e-07
43
1e-07
40
0
40
0
40
0
40
0
40
1
40
1
40
1
40
1
10
452.293016394
20
116.442942861
30
0
10
446.958906494
20
121.110710261
30
0
10
439.195028194
20
126.425216461
30
0
10
435.039964994
20
128.252957161
30
0
0
SPLINE
5
287
100
AcDbEntity
8
Guitar
6
ByLayer
62
256
370
-1
100
AcDbSpline
210
0
220
0
230
1
70
8
71
3
72
8
73
4
74
0
42
1e-07
43
1e-07
40
0
40
0
40
0
40
0
40
1
40
1
40
1
40
1
10
435.039964994
20
128.252957161
30
0
10
425.475544894
20
132.460199761
30
0
10
407.160175994
20
133.788734661
30
0
10
392.452386094
20
131.342116761
30
0
0
SPLINE
5
288
100
AcDbEntity
8
Guitar
6
ByLayer
62
256
370
-1
100
AcDbSpline
210
0
220
0
230
1
70
8
71
3
72
8
73
4
74
0
42
1e-07
43
1e-07
40
0
40
0
40
0
40
0
40
1
40
1
40
1
40
1
10
262.508792994
20
104.517646961
30
0
10
258.405105494
20
105.627058461
30
0
10
240.125042994
20
113.879736761
30
0
10
221.886434494
20
122.856934161
30
0
0
SPLINE
5
289
100
AcDbEntity
8
Guitar
6
ByLayer
62
256
370
-1
100
AcDbSpline
210
0
220
0
230
1
70
8
71
3
72
8
73
4
74
0
42
1e-07
43
1e-07
40
0
40
0
40
0
40
0
40
1
40
1
40
1
40
1
10
221.886434494
20
122.856934161
30
0
10
163.635494594
20
151.528546261
30
0
10
147.446024994
20
156.484508261
30
0
10
111.625736394
20
156.610233261
30
0
0
SPLINE
5
28A
100
AcDbEntity
8
Guitar
6
ByLayer
62
256
370
-1
100
AcDbSpline
210
0
220
0
230
1
70
8
71
3
72
8
73
4
74
0
42
1e-07
43
1e-07
40
0
40
0
40
0
40
0
40
1
40
1
40
1
40
1
10
111.625736394
20
156.610233261
30
0
10
85.9011840939
20
156.700524961
30
0
10
76.0042013939
20
154.165429561
30
0
10
56.5451156939
20
142.501411361
30
0
0
SPLINE
5
28B
100
AcDbEntity
8
Guitar
6
ByLayer
62
256
370
-1
100
AcDbSpline
210
0
220
0
230
1
70
8
71
3
72
8
73
4
74
0
42
1e-07
43
1e-07
40
0
40
0
40
0
40
0
40
1
40
1
40
1
40
1
10
56.5451156939
20
142.501411361
30
0
10
21.2444778939
20
121.341766961
30
0
10
0.566940693885
20
76.2933761612
30
0
10
0.542683993885
20
20.4936648612
30
0
0
SPLINE
5
28C
100
AcDbEntity
8
Guitar
6
ByLayer
62
256
370
-1
100
AcDbSpline
210
0
220
0
230
1
70
8
71
3
72
8
73
4
74
0
42
1e-07
43
1e-07
40
0
40
0
40
0
40
0
40
1
40
1
40
1
40
1
10
22.5597540939
20
-114.339211339
30
0
10
26.4054820939
20
-120.064530439
30
0
10
30.4033866939
20
-126.184414539
30
0
10
31.4439807939
20
-127.938957439
30
0
0
SPLINE
5
28D
100
AcDbEntity
8
Guitar
6
ByLayer
62
256
370
-1
100
AcDbSpline
210
0
220
0
230
1
70
8
71
3
72
8
73
4
74
0
42
1e-07
43
1e-07
40
0
40
0
40
0
40
0
40
1
40
1
40
1
40
1
10
31.4439807939
20
-127.938957439
30
0
10
32.4845795939
20
-129.693486239
30
0
10
36.9613295939
20
-133.690314539
30
0
10
41.3923156939
20
-136.820777739
30
0
0
SPLINE
5
28E
100
AcDbEntity
8
Guitar
6
ByLayer
62
256
370
-1
100
AcDbSpline
210
0
220
0
230
1
70
8
71
3
72
8
73
4
74
0
42
1e-07
43
1e-07
40
0
40
0
40
0
40
0
40
1
40
1
40
1
40
1
10
75.1485146939
20
-155.435832739
30
0
10
80.0614246939
20
-157.995748839
30
0
10
84.5128557939
20
-158.410805839
30
0
10
104.164486394
20
-158.141406539
30
0
0
SPLINE
5
28F
100
AcDbEntity
8
Guitar
6
ByLayer
62
256
370
-1
100
AcDbSpline
210
0
220
0
230
1
70
8
71
3
72
8
73
4
74
0
42
1e-07
43
1e-07
40
0
40
0
40
0
40
0
40
1
40
1
40
1
40
1
10
104.164486394
20
-158.141406539
30
0
10
125.638509094
20
-157.847003239
30
0
10
128.457404594
20
-157.431029739
30
0
10
141.797311194
20
-152.588022839
30
0
0
LWPOLYLINE
5
290
100
AcDbEntity
8
Guitar
6
ByLayer
62
256
370
-1
100
AcDbPolyline
90
2
70
1
43
0
10
141.797311194
20
-152.588022839
10
141.797311194
20
-152.588022839
0
SPLINE
5
291
100
AcDbEntity
8
Guitar
6
ByLayer
62
256
370
-1
100
AcDbSpline
210
0
220
0
230
1
70
8
71
3
72
8
73
4
74
0
42
1e-07
43
1e-07
40
0
40
0
40
0
40
0
40
1
40
1
40
1
40
1
10
479.299559494
20
22.8376535612
30
0
10
423.159469494
20
23.8470114612
30
0
10
431.206902998
20
24.058580239
30
0
10
397.162883156
20
25.0833820533
30
0
0
SPLINE
5
292
100
AcDbEntity
8
Guitar
6
ByLayer
62
256
370
-1
100
AcDbSpline
210
0
220
0
230
1
70
8
71
3
72
8
73
4
74
0
42
1e-07
43
1e-07
40
0
40
0
40
0
40
0
40
1
40
1
40
1
40
1
10
645.105111394
20
20.0724273612
30
0
10
620.047066094
20
20.0777336612
30
0
10
615.674627894
20
19.7096437612
30
0
10
598.303974782
20
20.9026826251
30
0
0
SPLINE
5
293
100
AcDbEntity
8
Guitar
6
ByLayer
62
256
370
-1
100
AcDbSpline
210
0
220
0
230
1
70
8
71
3
72
8
73
4
74
0
42
1e-07
43
1e-07
40
0
40
0
40
0
40
0
40
1
40
1
40
1
40
1
10
764.722784277
20
18.1605034303
30
0
10
683.966130794
20
19.5847083612
30
0
10
661.291873794
20
20.0687237612
30
0
10
645.105111394
20
20.0724273612
30
0
0
SPLINE
5
294
100
AcDbEntity
8
Guitar
6
ByLayer
62
256
370
-1
100
AcDbSpline
210
0
220
0
230
1
70
8
71
3
72
8
73
4
74
0
42
1e-07
43
1e-07
40
0
40
0
40
0
40
0
40
1
40
1
40
1
40
1
10
712.079704782
20
-26.4300275025
30
0
10
713.499906194
20
-26.2049382388
30
0
10
718.703558194
20
-26.4805885388
30
0
10
757.023861394
20
-26.2477975388
30
0
0
SPLINE
5
295
100
AcDbEntity
8
Guitar
6
ByLayer
62
256
370
-1
100
AcDbSpline
210
0
220
0
230
1
70
8
71
3
72
8
73
4
74
0
42
1e-07
43
1e-07
40
0
40
0
40
0
40
0
40
1
40
1
40
1
40
1
10
650.493792994
20
-27.7079465388
30
0
10
699.596394394
20
-27.2233295388
30
0
10
708.525736394
20
-26.6093826388
30
0
10
713.73688009
20
-26.2827230306
30
0
0
LINE
5
296
100
AcDbEntity
8
Guitar
6
ByLayer
62
256
370
-1
100
AcDbLine
10
0.542683993885
20
20.4936648612
11
0.536014693885
21
5.1566530612
0
SPLINE
5
297
100
AcDbEntity
8
Guitar
6
ByLayer
62
256
370
-1
100
AcDbSpline
210
0
220
0
230
1
70
8
71
3
72
8
73
4
74
0
42
1e-07
43
1e-07
40
0
40
0
40
0
40
0
40
1
40
1
40
1
40
1
10
0.536014693885
20
5.1566530612
30
0
10
-1.77427500611
20
-15.4786969388
30
0
10
1.85459029389
20
-56.5312652388
30
0
10
4.76762209389
20
-69.3389109388
30
0
0
SPLINE
5
298
100
AcDbEntity
8
Guitar
6
ByLayer
62
256
370
-1
100
AcDbSpline
210
0
220
0
230
1
70
8
71
3
72
8
73
4
74
0
42
1e-07
43
1e-07
40
0
40
0
40
0
40
0
40
1
40
1
40
1
40
1
10
4.76762209389
20
-69.3389109388
30
0
10
8.29711529389
20
-86.9996168388
30
0
10
14.2979765939
20
-102.039532239
30
0
10
22.5597540939
20
-114.339211339
30
0
0
SPLINE
5
299
100
AcDbEntity
8
Guitar
6
ByLayer
62
256
370
-1
100
AcDbSpline
210
0
220
0
230
1
70
8
71
3
72
8
73
4
74
0
42
1e-07
43
1e-07
40
0
40
0
40
0
40
0
40
1
40
1
40
1
40
1
10
41.3923156939
20
-136.820777739
30
0
10
66.7338837939
20
-152.472369939
30
0
10
71.9567587939
20
-153.772747139
30
0
10
75.1485146939
20
-155.435832739
30
0
0
SPLINE
5
29A
100
AcDbEntity
8
Guitar
6
ByLayer
62
256
370
-1
100
AcDbSpline
210
0
220
0
230
1
70
8
71
3
72
8
73
4
74
0
42
1e-07
43
1e-07
40
0
40
0
40
0
40
0
40
1
40
1
40
1
40
1
10
311.421434494
20
106.365936061
30
0
10
298.094988694
20
102.037330061
30
0
10
274.922376594
20
101.161696561
30
0
10
262.508792994
20
104.517646961
30
0
0
SPLINE
5
29B
100
AcDbEntity
8
Guitar
6
ByLayer
62
256
370
-1
100
AcDbSpline
210
0
220
0
230
1
70
8
71
3
72
8
73
4
74
0
42
1e-07
43
1e-07
40
0
40
0
40
0
40
0
40
1
40
1
40
1
40
1
10
328.108699894
20
111.099541061
30
0
10
324.349677494
20
110.063618761
30
0
10
317.804946294
20
108.439383361
30
0
10
311.421434494
20
106.365936061
30
0
0
SPLINE
5
29C
100
AcDbEntity
8
Guitar
6
ByLayer
62
256
370
-1
100
AcDbSpline
210
0
220
0
230
1
70
8
71
3
72
8
73
4
74
0
42
1e-07
43
1e-07
40
0
40
0
40
0
40
0
40
1
40
1
40
1
40
1
10
392.452386094
20
131.342116761
30
0
10
378.321944194
20
128.991543361
30
0
10
328.108699894
20
111.099541061
30
0
10
328.108699894
20
111.099541061
30
0
0
ENDBLK
5
E8
330
E6
100
AcDbEntity
8
0
100
AcDbBlockEnd
0
BLOCK
5
EA
330
E9
100
AcDbEntity
8
0
100
AcDbBlockBegin
2
BoltPlus Guitar Clean With Guides
70
0
10
0
20
0
3
BoltPlus Guitar Clean With Guides
1

0
LINE
5
29D
100
AcDbEntity
8
Guitar Guides
6
ByLayer
62
256
370
-1
100
AcDbLine
10
17.9366556736
20
156.603380102
11
189.99172702
21
156.603380102
0
LINE
5
29E
100
AcDbEntity
8
Guitar Guides
6
ByLayer
62
256
370
-1
100
AcDbLine
10
-51.3309387754
20
0
11
1189.58393686
21
0
0
LINE
5
29F
100
AcDbEntity
8
Guitar Guides
6
ByLayer
62
256
370
-1
100
AcDbLine
10
-13.2191085714
20
-158.291166255
11
182.46645551
21
-158.291166255
0
LINE
5
2A0
100
AcDbEntity
8
Guitar Guides
6
ByLayer
62
256
370
-1
100
AcDbLine
10
-51.3309387754
20
-90
11
1189.58393686
21
-90
0
LINE
5
2A1
100
AcDbEntity
8
Guitar Guides
6
ByLayer
62
256
370
-1
100
AcDbLine
10
-51.3309387754
20
-65
11
1189.58393686
21
-65
0
LINE
5
2A2
100
AcDbEntity
8
Guitar Guides
6
ByLayer
62
256
370
-1
100
AcDbLine
10
-51.3309387754
20
-115
11
1189.58393686
21
-115
0
LINE
5
2A3
100
AcDbEntity
8
Guitar Guides
6
ByLayer
62
256
370
-1
100
AcDbLine
10
1.33573933856
20
-92.8102756875
11
20.5295533496
21
-87.1891099983
0
LINE
5
2A4
100
AcDbEntity
8
Guitar Guides
6
ByLayer
62
256
370
-1
100
AcDbLine
10
-5.37631287144
20
-67.8139226885
11
13.8175011396
21
-62.1927569994
0
LINE
5
2A5
100
AcDbEntity
8
Guitar Guides
6
ByLayer
62
256
370
-1
100
AcDbLine
10
15.0383476946
20
-120.561126486
11
31.6454786386
21
-109.416477465
0
LINE
5
2A6
100
AcDbEntity
8
Guitar Guides
6
ByLayer
62
256
370
-1
100
AcDbLine
10
83.2876127846
20
-167.803506362
11
84.5718460496
21
-147.844780327
0
LINE
5
2A7
100
AcDbEntity
8
Guitar Guides
6
ByLayer
62
256
370
-1
100
AcDbLine
10
-84.1745348794
20
102.760375271
11
111.740157122
21
-294.429557541
0
LINE
5
2A8
100
AcDbEntity
8
Guitar Guides
6
ByLayer
62
256
370
-1
100
AcDbLine
10
-102.111306122
20
93.9126530612
11
93.8036938776
21
-303.277346939
0
INSERT
5
2A9
100
AcDbEntity
8
Guitar
6
ByLayer
62
256
370
-1
100
AcDbBlockReference
2
BoltPlus Guitar Clean
10
0.320679183674
20
0
30
0
41
1
42
1
43
0
50
0
70
1
71
1
44
0
45
0
0
ENDBLK
5
EB
330
E9
100
AcDbEntity
8
0
100
AcDbBlockEnd
0
ENDSEC
0
SECTION
2
ENTITIES
0
SPLINE
5
2AA
100
AcDbEntity
8
Enclosure
6
ByLayer
62
256
370
-1
100
AcDbSpline
210
0
220
0
230
1
70
8
71
3
72
20
73
16
74
0
42
1e-07
43
1e-07
40
0
40
0
40
0
40
0
40
0.0769230769231
40
0.153846153846
40
0.230769230769
40
0.307692307692
40
0.384615384615
40
0.461538461538
40
0.538461538462
40
0.615384615385
40
0.692307692308
40
0.769230769231
40
0.846153846154
40
0.923076923077
40
1
40
1
40
1
40
1
10
-117.951354081
20
-118.469199101
30
0
10
-130.124258492
20
-118.215174269
30
0
10
-185.114285714
20
-119.697959184
30
0
10
-324.854693878
20
-162.009795918
30
0
10
-350.464489796
20
-169.804081633
30
0
10
-405.58122449
20
-174.257959184
30
0
10
-417.272653061
20
-174.814693878
30
0
10
-439.263673469
20
-132.502857143
30
0
10
-441.745057398
20
-94.4654815051
30
0
10
-392.813297194
20
12.232940051
30
0
10
-384.658003827
20
29.9027423469
30
0
10
-254.85291773
20
82.9121492347
30
0
10
-188.93096301
20
139.999202806
30
0
10
-188.93096301
20
141.358418367
30
0
10
-188.399020408
20
141.633306122
30
0
10
-188.399020408
20
141.633306122
30
0
0
INSERT
5
2AB
100
AcDbEntity
8
HMI
6
ByLayer
62
256
370
-1
100
AcDbBlockReference
2
HMI_01-0
10
-451.844
20
-28.6497
30
0
41
1
42
1
43
0
50
198.323
70
1
71
1
44
0
45
0
0
LINE
5
2AC
100
AcDbEntity
8
Guides
6
ByLayer
62
256
370
-1
100
AcDbLine
10
-469.882430341
20
-8.51864818197
11
-185.261625707
21
-118.623796
0
LINE
5
2AD
100
AcDbEntity
8
Guides
6
ByLayer
62
256
370
-1
100
AcDbLine
10
-408.893960774
20
-192.682723343
11
-246.250095275
21
65.540279161
0
LINE
5
2AE
100
AcDbEntity
8
Guides
6
ByLayer
62
256
370
-1
100
AcDbLine
10
-358.066262808
20
28.5108154895
11
-297.077793241
21
-155.653259671
0
LINE
5
2AF
100
AcDbEntity
8
Guides
6
ByLayer
62
256
370
-1
100
AcDbLine
10
-337.065021589
20
-66.7149576356
11
-318.079034459
21
-60.4274865461
0
LINE
5
2B0
100
AcDbEntity
8
Guides
6
ByLayer
62
256
370
-1
100
AcDbLine
10
-246.250095275
20
65.540279161
11
-185.261625707
21
-118.623796
0
LINE
5
2B1
100
AcDbEntity
8
Guides
6
ByLayer
62
256
370
-1
100
AcDbLine
10
-246.250095275
20
65.540279161
11
-185.261625707
21
-118.623796
0
LINE
5
2B2
100
AcDbEntity
8
Guides
6
ByLayer
62
256
370
-1
100
AcDbLine
10
-134.433927742
20
102.569742833
11
-73.4454581742
21
-81.5943323282
0
INSERT
5
2B3
100
AcDbEntity
8
Guitar
6
ByLayer
62
256
370
-1
100
AcDbBlockReference
2
BoltPlus Guitar Clean With Guides
10
-207.550693878
20
39.6673469388
30
0
41
1
42
1
43
0
50
0
70
1
71
1
44
0
45
0
0
ENDSEC
0
SECTION
2
OBJECTS
0
DICTIONARY
5
C
330
0
100
AcDbDictionary
281
1
3
ACAD_GROUP
350
D
0
DICTIONARY
5
D
330
C
100
AcDbDictionary
281
1
0
ENDSEC
0
EOF
