999
dxfrw 0.5.11
0
SECTION
2
HEADER
9
$ACADVER
1
AC1021
9
$HANDSEED
5
20000
9
$DWGCODEPAGE
3
ANSI_1252
9
$INSBASE
10
0
20
0
30
0
9
$EXTMIN
10
-102.111306122
20
-413.42554072
30
0
9
$EXTMAX
10
1638.50835168
20
156.603380102
30
0
9
$LIMMIN
10
0
20
0
9
$LIMMAX
10
420
20
297
9
$ORTHOMODE
70
0
9
$LTSCALE
40
1
9
$TEXTSTYLE
7
STANDARD
9
$CLAYER
8
Guitar Guides
9
$DIMASZ
40
2.5
9
$DIMLFAC
40
1
9
$DIMSCALE
40
1
9
$DIMEXO
40
0.625
9
$DIMEXE
40
1.25
9
$DIMTXT
40
2.5
9
$DIMTSZ
40
0
9
$DIMAUNIT
70
0
9
$DIMADEC
70
0
9
$DIMLUNIT
70
2
9
$DIMSTYLE
2
STANDARD
9
$DIMGAP
40
0.625
9
$DIMTIH
70
0
9
$LUNITS
70
2
9
$LUPREC
70
4
9
$AUNITS
70
0
9
$AUPREC
70
2
9
$SPLINESEGS
70
8
9
$GRIDMODE
70
1
9
$SNAPSTYLE
70
0
9
$PINSBASE
10
0
20
0
30
0
9
$PLIMMIN
10
0
20
0
9
$PLIMMAX
10
297
20
210
9
$INSUNITS
70
4
9
$PSVPSCALE
40
1
0
ENDSEC
0
SECTION
2
CLASSES
0
ENDSEC
0
SECTION
2
TABLES
0
TABLE
2
VPORT
5
8
330
0
100
AcDbSymbolTable
70
1
0
VPORT
5
31
330
2
100
AcDbSymbolTableRecord
100
AcDbViewportTableRecord
2
*ACTIVE
70
0
10
0
20
0
11
1
21
1
12
328.433147752
22
152.775976554
13
0
23
0
14
10
24
10
15
10
25
10
16
0
26
0
36
1
17
0
27
0
37
0
40
551.964818516
41
1.97193877551
42
50
43
0
44
0
50
0
51
0
71
0
72
100
73
1
74
3
75
0
76
1
77
0
78
0
281
0
65
1
110
0
120
0
130
0
111
1
121
0
131
0
112
0
122
1
132
0
79
0
146
0
348
10020
60
7
61
5
292
1
282
1
141
0
142
0
63
250
421
3358443
0
ENDTAB
0
TABLE
2
LTYPE
5
5
330
0
100
AcDbSymbolTable
70
4
0
LTYPE
5
14
330
5
100
AcDbSymbolTableRecord
100
AcDbLinetypeTableRecord
2
ByBlock
70
0
3

72
65
73
0
40
0
0
LTYPE
5
15
330
5
100
AcDbSymbolTableRecord
100
AcDbLinetypeTableRecord
2
ByLayer
70
0
3

72
65
73
0
40
0
0
LTYPE
5
16
330
5
100
AcDbSymbolTableRecord
100
AcDbLinetypeTableRecord
2
Continuous
70
0
3
Solid line
72
65
73
0
40
0
0
LTYPE
5
32
330
5
100
AcDbSymbolTableRecord
100
AcDbLinetypeTableRecord
2
DOT
70
0
3
Dot . . . . . . . . . . . . . . . . . . . . . .
72
65
73
2
40
6.35
49
0
74
0
49
-6.35
74
0
0
LTYPE
5
33
330
5
100
AcDbSymbolTableRecord
100
AcDbLinetypeTableRecord
2
DOT2
70
0
3
Dot (.5x) .....................................
72
65
73
2
40
3.175
49
0
74
0
49
-3.175
74
0
0
LTYPE
5
34
330
5
100
AcDbSymbolTableRecord
100
AcDbLinetypeTableRecord
2
DOTX2
70
0
3
Dot (2x) .  .  .  .  .  .  .  .  .  .  .  .  .
72
65
73
2
40
12.7
49
0
74
0
49
-12.7
74
0
0
LTYPE
5
35
330
5
100
AcDbSymbolTableRecord
100
AcDbLinetypeTableRecord
2
DASHED
70
0
3
Dot . . . . . . . . . . . . . . . . . . . . . .
72
65
73
2
40
19.05
49
12.7
74
0
49
-6.35
74
0
0
LTYPE
5
36
330
5
100
AcDbSymbolTableRecord
100
AcDbLinetypeTableRecord
2
DASHED2
70
0
3
Dashed (.5x) _ _ _ _ _ _ _ _ _ _ _ _ _ _ _ _ _
72
65
73
2
40
9.525
49
6.35
74
0
49
-3.175
74
0
0
LTYPE
5
37
330
5
100
AcDbSymbolTableRecord
100
AcDbLinetypeTableRecord
2
DASHEDX2
70
0
3
Dashed (2x) ____  ____  ____  ____  ____  ___
72
65
73
2
40
38.1
49
25.4
74
0
49
-12.7
74
0
0
LTYPE
5
38
330
5
100
AcDbSymbolTableRecord
100
AcDbLinetypeTableRecord
2
DASHDOT
70
0
3
Dash dot __ . __ . __ . __ . __ . __ . __ . __
72
65
73
4
40
25.4
49
12.7
74
0
49
-6.35
74
0
49
0
74
0
49
-6.35
74
0
0
LTYPE
5
39
330
5
100
AcDbSymbolTableRecord
100
AcDbLinetypeTableRecord
2
DASHDOT2
70
0
3
Dash dot (.5x) _._._._._._._._._._._._._._._.
72
65
73
4
40
12.7
49
6.35
74
0
49
-3.175
74
0
49
0
74
0
49
-3.175
74
0
0
LTYPE
5
3A
330
5
100
AcDbSymbolTableRecord
100
AcDbLinetypeTableRecord
2
DASHDOTX2
70
0
3
Dash dot (2x) ____  .  ____  .  ____  .  ___
72
65
73
4
40
50.8
49
25.4
74
0
49
-12.7
74
0
49
0
74
0
49
-12.7
74
0
0
LTYPE
5
3B
330
5
100
AcDbSymbolTableRecord
100
AcDbLinetypeTableRecord
2
DIVIDE
70
0
3
Divide ____ . . ____ . . ____ . . ____ . . ____
72
65
73
6
40
31.75
49
12.7
74
0
49
-6.35
74
0
49
0
74
0
49
-6.35
74
0
49
0
74
0
49
-6.35
74
0
0
LTYPE
5
3C
330
5
100
AcDbSymbolTableRecord
100
AcDbLinetypeTableRecord
2
DIVIDE2
70
0
3
Divide (.5x) __..__..__..__..__..__..__..__.._
72
65
73
6
40
15.875
49
6.35
74
0
49
-3.175
74
0
49
0
74
0
49
-3.175
74
0
49
0
74
0
49
-3.175
74
0
0
LTYPE
5
3D
330
5
100
AcDbSymbolTableRecord
100
AcDbLinetypeTableRecord
2
DIVIDEX2
70
0
3
Divide (2x) ________  .  .  ________  .  .  _
72
65
73
6
40
63.5
49
25.4
74
0
49
-12.7
74
0
49
0
74
0
49
-12.7
74
0
49
0
74
0
49
-12.7
74
0
0
LTYPE
5
3E
330
5
100
AcDbSymbolTableRecord
100
AcDbLinetypeTableRecord
2
BORDER
70
0
3
Border __ __ . __ __ . __ __ . __ __ . __ __ .
72
65
73
6
40
44.45
49
12.7
74
0
49
-6.35
74
0
49
12.7
74
0
49
-6.35
74
0
49
0
74
0
49
-6.35
74
0
0
LTYPE
5
3F
330
5
100
AcDbSymbolTableRecord
100
AcDbLinetypeTableRecord
2
BORDER2
70
0
3
Border (.5x) __.__.__.__.__.__.__.__.__.__.__.
72
65
73
6
40
22.225
49
6.35
74
0
49
-3.175
74
0
49
6.35
74
0
49
-3.175
74
0
49
0
74
0
49
-3.175
74
0
0
LTYPE
5
40
330
5
100
AcDbSymbolTableRecord
100
AcDbLinetypeTableRecord
2
BORDERX2
70
0
3
Border (2x) ____  ____  .  ____  ____  .  ___
72
65
73
6
40
88.9
49
25.4
74
0
49
-12.7
74
0
49
25.4
74
0
49
-12.7
74
0
49
0
74
0
49
-12.7
74
0
0
LTYPE
5
41
330
5
100
AcDbSymbolTableRecord
100
AcDbLinetypeTableRecord
2
CENTER
70
0
3
Center ____ _ ____ _ ____ _ ____ _ ____ _ ____
72
65
73
4
40
50.8
49
31.75
74
0
49
-6.35
74
0
49
6.35
74
0
49
-6.35
74
0
0
LTYPE
5
42
330
5
100
AcDbSymbolTableRecord
100
AcDbLinetypeTableRecord
2
CENTER2
70
0
3
Center (.5x) ___ _ ___ _ ___ _ ___ _ ___ _ ___
72
65
73
4
40
28.575
49
19.05
74
0
49
-3.175
74
0
49
3.175
74
0
49
-3.175
74
0
0
LTYPE
5
43
330
5
100
AcDbSymbolTableRecord
100
AcDbLinetypeTableRecord
2
CENTERX2
70
0
3
Center (2x) ________  __  ________  __  _____
72
65
73
4
40
101.6
49
63.5
74
0
49
-12.7
74
0
49
12.7
74
0
49
-12.7
74
0
0
ENDTAB
0
TABLE
2
LAYER
5
2
330
0
100
AcDbSymbolTable
70
1
0
LAYER
5
10
330
2
100
AcDbSymbolTableRecord
100
AcDbLayerTableRecord
2
0
70
1
62
7
6
CONTINUOUS
370
-3
390
F
0
LAYER
5
44
330
2
100
AcDbSymbolTableRecord
100
AcDbLayerTableRecord
2
Guitar
70
0
62
4
6
CONTINUOUS
370
-3
390
F
0
LAYER
5
45
330
2
100
AcDbSymbolTableRecord
100
AcDbLayerTableRecord
2
Guitar Guides
70
0
62
56
420
8421376
6
DOT2
290
0
370
-3
390
F
0
ENDTAB
0
TABLE
2
STYLE
5
3
330
0
100
AcDbSymbolTable
70
3
0
STYLE
5
46
330
2
100
AcDbSymbolTableRecord
100
AcDbTextStyleTableRecord
2
Standard
70
0
40
0
41
1
50
0
71
0
42
1
3
txt
4

0
ENDTAB
0
TABLE
2
VIEW
5
6
330
0
100
AcDbSymbolTable
70
0
0
ENDTAB
0
TABLE
2
UCS
5
7
330
0
100
AcDbSymbolTable
70
0
0
ENDTAB
0
TABLE
2
APPID
5
9
330
0
100
AcDbSymbolTable
70
1
0
APPID
5
12
330
9
100
AcDbSymbolTableRecord
100
AcDbRegAppTableRecord
2
ACAD
70
0
0
ENDTAB
0
TABLE
2
DIMSTYLE
5
A
330
0
100
AcDbSymbolTable
70
1
100
AcDbDimStyleTable
71
1
0
DIMSTYLE
105
47
330
A
100
AcDbSymbolTableRecord
100
AcDbDimStyleTableRecord
2
Standard
70
0
40
1
41
2.5
42
0.625
43
0.38
44
1.25
45
0
46
0
47
0
48
0
140
2.5
141
0.09
142
0
143
25.4
144
1
145
0
146
1
147
0.625
148
0
71
0
72
0
73
0
74
1
75
0
76
0
77
0
78
0
79
0
170
0
171
2
172
0
173
0
174
0
175
0
176
0
177
0
178
0
179
0
271
4
272
4
273
2
274
2
275
0
276
0
277
2
278
46
279
0
280
0
281
0
282
0
283
1
284
0
285
0
286
0
288
0
289
3
340
Standard
341

371
-2
372
-2
0
ENDTAB
0
TABLE
2
BLOCK_RECORD
5
1
330
0
100
AcDbSymbolTable
70
2
0
BLOCK_RECORD
5
1F
330
1
100
AcDbSymbolTableRecord
100
AcDbBlockTableRecord
2
*Model_Space
70
0
280
1
281
0
0
BLOCK_RECORD
5
1E
330
1
100
AcDbSymbolTableRecord
100
AcDbBlockTableRecord
2
*Paper_Space
70
0
280
1
281
0
0
BLOCK_RECORD
5
48
330
1
100
AcDbSymbolTableRecord
100
AcDbBlockTableRecord
2
BoltPlus Guitar Clean
70
0
280
1
281
0
0
ENDTAB
0
ENDSEC
0
SECTION
2
BLOCKS
0
BLOCK
5
20
330
1F
100
AcDbEntity
8
0
100
AcDbBlockBegin
2
*Model_Space
70
0
10
0
20
0
30
0
3
*Model_Space
1

0
ENDBLK
5
21
330
1F
100
AcDbEntity
8
0
100
AcDbBlockEnd
0
BLOCK
5
1C
330
1B
100
AcDbEntity
8
0
100
AcDbBlockBegin
2
*Paper_Space
70
0
10
0
20
0
30
0
3
*Paper_Space
1

0
ENDBLK
5
1D
330
1F
100
AcDbEntity
8
0
100
AcDbBlockEnd
0
BLOCK
5
49
330
48
100
AcDbEntity
8
0
100
AcDbBlockBegin
2
BoltPlus Guitar Clean
70
0
10
0
20
0
3
BoltPlus Guitar Clean
1

0
SPLINE
5
4B
100
AcDbEntity
8
Guitar
6
ByLayer
62
256
370
-1
100
AcDbSpline
210
0
220
0
230
1
70
8
71
3
72
8
73
4
74
0
42
1e-07
43
1e-07
40
0
40
0
40
0
40
0
40
1
40
1
40
1
40
1
10
141.797311194
20
-152.588022839
30
0
10
149.728330894
20
-149.708666539
30
0
10
168.008393394
20
-142.080829739
30
0
10
182.419669694
20
-135.637256639
30
0
0
SPLINE
5
4C
100
AcDbEntity
8
Guitar
6
ByLayer
62
256
370
-1
100
AcDbSpline
210
0
220
0
230
1
70
8
71
3
72
8
73
4
74
0
42
1e-07
43
1e-07
40
0
40
0
40
0
40
0
40
1
40
1
40
1
40
1
10
182.419669694
20
-135.637256639
30
0
10
225.198035694
20
-116.510136639
30
0
10
228.503414094
20
-115.404814139
30
0
10
243.441156194
20
-115.231699039
30
0
0
SPLINE
5
4D
100
AcDbEntity
8
Guitar
6
ByLayer
62
256
370
-1
100
AcDbSpline
210
0
220
0
230
1
70
8
71
3
72
8
73
4
74
0
42
1e-07
43
1e-07
40
0
40
0
40
0
40
0
40
1
40
1
40
1
40
1
10
243.441156194
20
-115.231699039
30
0
10
258.121286594
20
-115.061540239
30
0
10
269.104965694
20
-118.139636039
30
0
10
292.985407194
20
-129.116138239
30
0
0
SPLINE
5
4E
100
AcDbEntity
8
Guitar
6
ByLayer
62
256
370
-1
100
AcDbSpline
210
0
220
0
230
1
70
8
71
3
72
8
73
4
74
0
42
1e-07
43
1e-07
40
0
40
0
40
0
40
0
40
1
40
1
40
1
40
1
10
292.985407194
20
-129.116138239
30
0
10
314.195440294
20
-138.865169639
30
0
10
331.750137694
20
-141.870589339
30
0
10
350.516565594
20
-138.965660339
30
0
0
SPLINE
5
4F
100
AcDbEntity
8
Guitar
6
ByLayer
62
256
370
-1
100
AcDbSpline
210
0
220
0
230
1
70
8
71
3
72
8
73
4
74
0
42
1e-07
43
1e-07
40
0
40
0
40
0
40
0
40
1
40
1
40
1
40
1
10
350.516565594
20
-138.965660339
30
0
10
370.303217794
20
-135.902811339
30
0
10
386.862962794
20
-126.140840839
30
0
10
386.862962794
20
-117.539460139
30
0
0
SPLINE
5
50
100
AcDbEntity
8
Guitar
6
ByLayer
62
256
370
-1
100
AcDbSpline
210
0
220
0
230
1
70
8
71
3
72
8
73
4
74
0
42
1e-07
43
1e-07
40
0
40
0
40
0
40
0
40
1
40
1
40
1
40
1
10
386.862962794
20
-117.539460139
30
0
10
386.862962794
20
-110.820767839
30
0
10
380.788974194
20
-106.636724439
30
0
10
365.489458994
20
-102.816418739
30
0
0
SPLINE
5
51
100
AcDbEntity
8
Guitar
6
ByLayer
62
256
370
-1
100
AcDbSpline
210
0
220
0
230
1
70
8
71
3
72
8
73
4
74
0
42
1e-07
43
1e-07
40
0
40
0
40
0
40
0
40
1
40
1
40
1
40
1
10
365.489458994
20
-102.816418739
30
0
10
347.919416094
20
-98.4291614388
30
0
10
338.824502494
20
-93.1101479388
30
0
10
332.458004694
20
-83.4985163388
30
0
0
SPLINE
5
52
100
AcDbEntity
8
Guitar
6
ByLayer
62
256
370
-1
100
AcDbSpline
210
0
220
0
230
1
70
8
71
3
72
8
73
4
74
0
42
1e-07
43
1e-07
40
0
40
0
40
0
40
0
40
1
40
1
40
1
40
1
10
332.458004694
20
-83.4985163388
30
0
10
320.207600394
20
-65.0037578388
30
0
10
325.834830494
20
-38.5249166388
30
0
10
343.109459594
20
-33.3782991388
30
0
0
SPLINE
5
53
100
AcDbEntity
8
Guitar
6
ByLayer
62
256
370
-1
100
AcDbSpline
210
0
220
0
230
1
70
8
71
3
72
8
73
4
74
0
42
1e-07
43
1e-07
40
0
40
0
40
0
40
0
40
1
40
1
40
1
40
1
10
343.109459594
20
-33.3782991388
30
0
10
348.838825394
20
-31.6713625388
30
0
10
463.823305494
20
-29.5502337388
30
0
10
650.493792994
20
-27.7079465388
30
0
0
SPLINE
5
54
100
AcDbEntity
8
Guitar
6
ByLayer
62
256
370
-1
100
AcDbSpline
210
0
220
0
230
1
70
8
71
3
72
8
73
4
74
0
42
1e-07
43
1e-07
40
0
40
0
40
0
40
0
40
1
40
1
40
1
40
1
10
757.023861394
20
-26.2477975388
30
0
10
804.821968394
20
-25.9574362388
30
0
10
804.592895094
20
-25.9191688388
30
0
10
821.184632994
20
-36.9671909388
30
0
0
SPLINE
5
55
100
AcDbEntity
8
Guitar
6
ByLayer
62
256
370
-1
100
AcDbSpline
210
0
220
0
230
1
70
8
71
3
72
8
73
4
74
0
42
1e-07
43
1e-07
40
0
40
0
40
0
40
0
40
1
40
1
40
1
40
1
10
821.184632994
20
-36.9671909388
30
0
10
829.467894194
20
-42.4828242388
30
0
10
831.182266194
20
-42.6272646388
30
0
10
856.921712794
20
-39.9780344388
30
0
0
SPLINE
5
56
100
AcDbEntity
8
Guitar
6
ByLayer
62
256
370
-1
100
AcDbSpline
210
0
220
0
230
1
70
8
71
3
72
8
73
4
74
0
42
1e-07
43
1e-07
40
0
40
0
40
0
40
0
40
1
40
1
40
1
40
1
10
856.921712794
20
-39.9780344388
30
0
10
876.603982694
20
-37.9522498388
30
0
10
908.431978494
20
-37.0270689388
30
0
10
912.466571294
20
-38.3634481388
30
0
0
SPLINE
5
57
100
AcDbEntity
8
Guitar
6
ByLayer
62
256
370
-1
100
AcDbSpline
210
0
220
0
230
1
70
8
71
3
72
8
73
4
74
0
42
1e-07
43
1e-07
40
0
40
0
40
0
40
0
40
1
40
1
40
1
40
1
10
912.466571294
20
-38.3634481388
30
0
10
913.834468694
20
-38.8165328388
30
0
10
925.565555894
20
-40.4314528388
30
0
10
938.535647694
20
-41.9521425388
30
0
0
SPLINE
5
58
100
AcDbEntity
8
Guitar
6
ByLayer
62
256
370
-1
100
AcDbSpline
210
0
220
0
230
1
70
8
71
3
72
8
73
4
74
0
42
1e-07
43
1e-07
40
0
40
0
40
0
40
0
40
1
40
1
40
1
40
1
10
938.535647694
20
-41.9521425388
30
0
10
959.609333794
20
-44.4229231388
30
0
10
962.630178894
20
-44.4519738388
30
0
10
966.936177894
20
-42.2252595388
30
0
0
SPLINE
5
59
100
AcDbEntity
8
Guitar
6
ByLayer
62
256
370
-1
100
AcDbSpline
210
0
220
0
230
1
70
8
71
3
72
8
73
4
74
0
42
1e-07
43
1e-07
40
0
40
0
40
0
40
0
40
1
40
1
40
1
40
1
10
966.936177894
20
-42.2252595388
30
0
10
973.276303994
20
-38.9466429388
30
0
10
974.646917994
20
-34.9859341388
30
0
10
970.942410894
20
-30.6482900388
30
0
0
SPLINE
5
5A
100
AcDbEntity
8
Guitar
6
ByLayer
62
256
370
-1
100
AcDbSpline
210
0
220
0
230
1
70
8
71
3
72
8
73
4
74
0
42
1e-07
43
1e-07
40
0
40
0
40
0
40
0
40
1
40
1
40
1
40
1
10
970.942410894
20
-30.6482900388
30
0
10
969.311134894
20
-28.7382100388
30
0
10
966.511358994
20
-24.2850681388
30
0
10
964.720682494
20
-20.7524165388
30
0
0
SPLINE
5
5B
100
AcDbEntity
8
Guitar
6
ByLayer
62
256
370
-1
100
AcDbSpline
210
0
220
0
230
1
70
8
71
3
72
8
73
4
74
0
42
1e-07
43
1e-07
40
0
40
0
40
0
40
0
40
1
40
1
40
1
40
1
10
964.720682494
20
-20.7524165388
30
0
10
962.930024794
20
-17.2197884388
30
0
10
959.766863694
20
-13.2168078388
30
0
10
957.691442394
20
-11.8569333388
30
0
0
SPLINE
5
5C
100
AcDbEntity
8
Guitar
6
ByLayer
62
256
370
-1
100
AcDbSpline
210
0
220
0
230
1
70
8
71
3
72
8
73
4
74
0
42
1e-07
43
1e-07
40
0
40
0
40
0
40
0
40
1
40
1
40
1
40
1
10
957.691442394
20
-11.8569333388
30
0
10
953.435385594
20
-9.0682588388
30
0
10
952.588135394
20
-3.1336252388
30
0
10
956.446083394
20
-3.1336252388
30
0
0
SPLINE
5
5D
100
AcDbEntity
8
Guitar
6
ByLayer
62
256
370
-1
100
AcDbSpline
210
0
220
0
230
1
70
8
71
3
72
8
73
4
74
0
42
1e-07
43
1e-07
40
0
40
0
40
0
40
0
40
1
40
1
40
1
40
1
10
956.446083394
20
-3.1336252388
30
0
10
958.505308494
20
-3.1336252388
30
0
10
962.208236394
20
2.8504429612
30
0
10
962.208236394
20
6.1782262612
30
0
0
SPLINE
5
5E
100
AcDbEntity
8
Guitar
6
ByLayer
62
256
370
-1
100
AcDbSpline
210
0
220
0
230
1
70
8
71
3
72
8
73
4
74
0
42
1e-07
43
1e-07
40
0
40
0
40
0
40
0
40
1
40
1
40
1
40
1
10
962.208236394
20
6.1782262612
30
0
10
962.208236394
20
7.9746555612
30
0
10
950.148750794
20
11.8685256612
30
0
10
947.343052894
20
10.9780307612
30
0
0
SPLINE
5
5F
100
AcDbEntity
8
Guitar
6
ByLayer
62
256
370
-1
100
AcDbSpline
210
0
220
0
230
1
70
8
71
3
72
8
73
4
74
0
42
1e-07
43
1e-07
40
0
40
0
40
0
40
0
40
1
40
1
40
1
40
1
10
947.343052894
20
10.9780307612
30
0
10
943.838121894
20
9.8656065612
30
0
10
941.682307094
20
3.4646389612
30
0
10
944.023931694
20
1.1230143612
30
0
0
SPLINE
5
60
100
AcDbEntity
8
Guitar
6
ByLayer
62
256
370
-1
100
AcDbSpline
210
0
220
0
230
1
70
8
71
3
72
8
73
4
74
0
42
1e-07
43
1e-07
40
0
40
0
40
0
40
0
40
1
40
1
40
1
40
1
10
944.023931694
20
1.1230143612
30
0
10
946.925396794
20
-1.7784507388
30
0
10
945.699773094
20
-4.7916818388
30
0
10
941.618161494
20
-4.7916818388
30
0
0
SPLINE
5
61
100
AcDbEntity
8
Guitar
6
ByLayer
62
256
370
-1
100
AcDbSpline
210
0
220
0
230
1
70
8
71
3
72
8
73
4
74
0
42
1e-07
43
1e-07
40
0
40
0
40
0
40
0
40
1
40
1
40
1
40
1
10
941.618161494
20
-4.7916818388
30
0
10
932.600050594
20
-4.7916818388
30
0
10
929.160473094
20
0.0097958612
30
0
10
935.679349594
20
3.4985964612
30
0
0
SPLINE
5
62
100
AcDbEntity
8
Guitar
6
ByLayer
62
256
370
-1
100
AcDbSpline
210
0
220
0
230
1
70
8
71
3
72
8
73
4
74
0
42
1e-07
43
1e-07
40
0
40
0
40
0
40
0
40
1
40
1
40
1
40
1
10
935.679349594
20
3.4985964612
30
0
10
939.156132294
20
5.3593170612
30
0
10
940.250889194
20
12.4753238612
30
0
10
937.337406194
20
14.2759549612
30
0
0
SPLINE
5
63
100
AcDbEntity
8
Guitar
6
ByLayer
62
256
370
-1
100
AcDbSpline
210
0
220
0
230
1
70
8
71
3
72
8
73
4
74
0
42
1e-07
43
1e-07
40
0
40
0
40
0
40
0
40
1
40
1
40
1
40
1
10
937.337406194
20
14.2759549612
30
0
10
936.404225894
20
14.8526966612
30
0
10
935.679349594
20
13.5232781612
30
0
10
935.679349594
20
11.2350972612
30
0
0
SPLINE
5
64
100
AcDbEntity
8
Guitar
6
ByLayer
62
256
370
-1
100
AcDbSpline
210
0
220
0
230
1
70
8
71
3
72
8
73
4
74
0
42
1e-07
43
1e-07
40
0
40
0
40
0
40
0
40
1
40
1
40
1
40
1
10
935.679349594
20
11.2350972612
30
0
10
935.679349594
20
7.5025499612
30
0
10
932.998023094
20
5.1566530612
30
0
10
928.731767294
20
5.1566530612
30
0
0
SPLINE
5
65
100
AcDbEntity
8
Guitar
6
ByLayer
62
256
370
-1
100
AcDbSpline
210
0
220
0
230
1
70
8
71
3
72
8
73
4
74
0
42
1e-07
43
1e-07
40
0
40
0
40
0
40
0
40
1
40
1
40
1
40
1
10
928.731767294
20
5.1566530612
30
0
10
927.128771194
20
5.1566530612
30
0
10
927.680424294
20
9.6141565612
30
0
10
930.046470094
20
15.7799737612
30
0
0
SPLINE
5
66
100
AcDbEntity
8
Guitar
6
ByLayer
62
256
370
-1
100
AcDbSpline
210
0
220
0
230
1
70
8
71
3
72
8
73
4
74
0
42
1e-07
43
1e-07
40
0
40
0
40
0
40
0
40
1
40
1
40
1
40
1
10
930.046470094
20
15.7799737612
30
0
10
930.770312394
20
17.6662717612
30
0
10
930.089446894
20
18.4210964612
30
0
10
927.664322094
20
18.4210964612
30
0
0
SPLINE
5
67
100
AcDbEntity
8
Guitar
6
ByLayer
62
256
370
-1
100
AcDbSpline
210
0
220
0
230
1
70
8
71
3
72
8
73
4
74
0
42
1e-07
43
1e-07
40
0
40
0
40
0
40
0
40
1
40
1
40
1
40
1
10
927.664322094
20
18.4210964612
30
0
10
925.796715994
20
18.4210964612
30
0
10
923.807539694
20
17.6749714612
30
0
10
923.243934494
20
16.7630398612
30
0
0
SPLINE
5
68
100
AcDbEntity
8
Guitar
6
ByLayer
62
256
370
-1
100
AcDbSpline
210
0
220
0
230
1
70
8
71
3
72
8
73
4
74
0
42
1e-07
43
1e-07
40
0
40
0
40
0
40
0
40
1
40
1
40
1
40
1
10
923.243934494
20
16.7630398612
30
0
10
921.443510194
20
13.8498905612
30
0
10
917.864817394
20
14.9821816612
30
0
10
916.693497494
20
18.8356082612
30
0
0
SPLINE
5
69
100
AcDbEntity
8
Guitar
6
ByLayer
62
256
370
-1
100
AcDbSpline
210
0
220
0
230
1
70
8
71
3
72
8
73
4
74
0
42
1e-07
43
1e-07
40
0
40
0
40
0
40
0
40
1
40
1
40
1
40
1
10
916.693497494
20
18.8356082612
30
0
10
915.503504494
20
22.7504497612
30
0
10
915.064439894
20
22.1901768612
30
0
10
913.392020094
20
14.6226645612
30
0
0
SPLINE
5
6A
100
AcDbEntity
8
Guitar
6
ByLayer
62
256
370
-1
100
AcDbSpline
210
0
220
0
230
1
70
8
71
3
72
8
73
4
74
0
42
1e-07
43
1e-07
40
0
40
0
40
0
40
0
40
1
40
1
40
1
40
1
10
913.392020094
20
14.6226645612
30
0
10
912.761491594
20
11.7695483612
30
0
10
911.653992994
20
10.4373051612
30
0
10
910.503710294
20
11.1482130612
30
0
0
SPLINE
5
6B
100
AcDbEntity
8
Guitar
6
ByLayer
62
256
370
-1
100
AcDbSpline
210
0
220
0
230
1
70
8
71
3
72
8
73
4
74
0
42
1e-07
43
1e-07
40
0
40
0
40
0
40
0
40
1
40
1
40
1
40
1
10
910.503710294
20
11.1482130612
30
0
10
909.365172894
20
11.8518782612
30
0
10
909.099152894
20
11.5552095612
30
0
10
909.821162194
20
10.3870057612
30
0
0
SPLINE
5
6C
100
AcDbEntity
8
Guitar
6
ByLayer
62
256
370
-1
100
AcDbSpline
210
0
220
0
230
1
70
8
71
3
72
8
73
4
74
0
42
1e-07
43
1e-07
40
0
40
0
40
0
40
0
40
1
40
1
40
1
40
1
10
909.821162194
20
10.3870057612
30
0
10
910.471853694
20
9.3341681612
30
0
10
910.110141694
20
8.4727615612
30
0
10
909.017363494
20
8.4727615612
30
0
0
SPLINE
5
6D
100
AcDbEntity
8
Guitar
6
ByLayer
62
256
370
-1
100
AcDbSpline
210
0
220
0
230
1
70
8
71
3
72
8
73
4
74
0
42
1e-07
43
1e-07
40
0
40
0
40
0
40
0
40
1
40
1
40
1
40
1
10
909.017363494
20
8.4727615612
30
0
10
907.607593794
20
8.4727615612
30
0
10
907.315695594
20
10.8806702612
30
0
10
908.012357794
20
16.7630398612
30
0
0
SPLINE
5
6E
100
AcDbEntity
8
Guitar
6
ByLayer
62
256
370
-1
100
AcDbSpline
210
0
220
0
230
1
70
8
71
3
72
8
73
4
74
0
42
1e-07
43
1e-07
40
0
40
0
40
0
40
0
40
1
40
1
40
1
40
1
10
908.012357794
20
16.7630398612
30
0
10
908.955342294
20
24.7250231612
30
0
10
908.833175194
20
25.0533181612
30
0
10
904.927207294
20
25.0533181612
30
0
0
SPLINE
5
6F
100
AcDbEntity
8
Guitar
6
ByLayer
62
256
370
-1
100
AcDbSpline
210
0
220
0
230
1
70
8
71
3
72
8
73
4
74
0
42
1e-07
43
1e-07
40
0
40
0
40
0
40
0
40
1
40
1
40
1
40
1
10
904.927207294
20
25.0533181612
30
0
10
902.690345694
20
25.0533181612
30
0
10
900.860184494
20
24.3071931612
30
0
10
900.860184494
20
23.3952615612
30
0
0
SPLINE
5
70
100
AcDbEntity
8
Guitar
6
ByLayer
62
256
370
-1
100
AcDbSpline
210
0
220
0
230
1
70
8
71
3
72
8
73
4
74
0
42
1e-07
43
1e-07
40
0
40
0
40
0
40
0
40
1
40
1
40
1
40
1
10
900.860184494
20
23.3952615612
30
0
10
900.860184494
20
22.4833299612
30
0
10
899.740996994
20
21.7372049612
30
0
10
898.373099594
20
21.7372049612
30
0
0
SPLINE
5
71
100
AcDbEntity
8
Guitar
6
ByLayer
62
256
370
-1
100
AcDbSpline
210
0
220
0
230
1
70
8
71
3
72
8
73
4
74
0
42
1e-07
43
1e-07
40
0
40
0
40
0
40
0
40
1
40
1
40
1
40
1
10
898.373099594
20
21.7372049612
30
0
10
897.005202194
20
21.7372049612
30
0
10
895.886014694
20
22.8123581612
30
0
10
895.886014694
20
24.1264405612
30
0
0
SPLINE
5
72
100
AcDbEntity
8
Guitar
6
ByLayer
62
256
370
-1
100
AcDbSpline
210
0
220
0
230
1
70
8
71
3
72
8
73
4
74
0
42
1e-07
43
1e-07
40
0
40
0
40
0
40
0
40
1
40
1
40
1
40
1
10
895.886014694
20
24.1264405612
30
0
10
895.886014694
20
25.4405088612
30
0
10
895.139889694
20
26.9767931612
30
0
10
894.227962794
20
27.5404030612
30
0
0
SPLINE
5
73
100
AcDbEntity
8
Guitar
6
ByLayer
62
256
370
-1
100
AcDbSpline
210
0
220
0
230
1
70
8
71
3
72
8
73
4
74
0
42
1e-07
43
1e-07
40
0
40
0
40
0
40
0
40
1
40
1
40
1
40
1
10
894.227962794
20
27.5404030612
30
0
10
893.316031194
20
28.1040082612
30
0
10
892.569906194
20
26.9590083612
30
0
10
892.569906194
20
24.9959499612
30
0
0
SPLINE
5
74
100
AcDbEntity
8
Guitar
6
ByLayer
62
256
370
-1
100
AcDbSpline
210
0
220
0
230
1
70
8
71
3
72
8
73
4
74
0
42
1e-07
43
1e-07
40
0
40
0
40
0
40
0
40
1
40
1
40
1
40
1
10
892.569906194
20
24.9959499612
30
0
10
892.569906194
20
22.9664899612
30
0
10
893.844762394
20
21.0933660612
30
0
10
895.525092294
20
20.6539536612
30
0
0
SPLINE
5
75
100
AcDbEntity
8
Guitar
6
ByLayer
62
256
370
-1
100
AcDbSpline
210
0
220
0
230
1
70
8
71
3
72
8
73
4
74
0
42
1e-07
43
1e-07
40
0
40
0
40
0
40
0
40
1
40
1
40
1
40
1
10
895.525092294
20
20.6539536612
30
0
10
898.876483694
20
19.7775446612
30
0
10
903.305190294
20
11.0874514612
30
0
10
901.713163994
20
8.5115365612
30
0
0
SPLINE
5
76
100
AcDbEntity
8
Guitar
6
ByLayer
62
256
370
-1
100
AcDbSpline
210
0
220
0
230
1
70
8
71
3
72
8
73
4
74
0
42
1e-07
43
1e-07
40
0
40
0
40
0
40
0
40
1
40
1
40
1
40
1
10
901.713163994
20
8.5115365612
30
0
10
898.545566094
20
3.3862476612
30
0
10
886.473634894
20
8.9769305612
30
0
10
888.011315094
20
14.8570347612
30
0
0
SPLINE
5
77
100
AcDbEntity
8
Guitar
6
ByLayer
62
256
370
-1
100
AcDbSpline
210
0
220
0
230
1
70
8
71
3
72
8
73
4
74
0
42
1e-07
43
1e-07
40
0
40
0
40
0
40
0
40
1
40
1
40
1
40
1
10
888.011315094
20
14.8570347612
30
0
10
888.638680494
20
17.2560792612
30
0
10
888.181097894
20
18.4210964612
30
0
10
886.611476494
20
18.4210964612
30
0
0
SPLINE
5
78
100
AcDbEntity
8
Guitar
6
ByLayer
62
256
370
-1
100
AcDbSpline
210
0
220
0
230
1
70
8
71
3
72
8
73
4
74
0
42
1e-07
43
1e-07
40
0
40
0
40
0
40
0
40
1
40
1
40
1
40
1
10
886.611476494
20
18.4210964612
30
0
10
884.026091094
20
18.4210964612
30
0
10
883.865853994
20
19.1952757612
30
0
10
885.324677594
20
24.6388063612
30
0
0
SPLINE
5
79
100
AcDbEntity
8
Guitar
6
ByLayer
62
256
370
-1
100
AcDbSpline
210
0
220
0
230
1
70
8
71
3
72
8
73
4
74
0
42
1e-07
43
1e-07
40
0
40
0
40
0
40
0
40
1
40
1
40
1
40
1
10
885.324677594
20
24.6388063612
30
0
10
885.874544694
20
26.6906430612
30
0
10
887.505844194
20
28.3694313612
30
0
10
888.949759394
20
28.3694313612
30
0
0
SPLINE
5
7A
100
AcDbEntity
8
Guitar
6
ByLayer
62
256
370
-1
100
AcDbSpline
210
0
220
0
230
1
70
8
71
3
72
8
73
4
74
0
42
1e-07
43
1e-07
40
0
40
0
40
0
40
0
40
1
40
1
40
1
40
1
10
888.949759394
20
28.3694313612
30
0
10
890.826878294
20
28.3694313612
30
0
10
891.065595994
20
28.8789019612
30
0
10
889.787398094
20
30.1571045612
30
0
0
SPLINE
5
7B
100
AcDbEntity
8
Guitar
6
ByLayer
62
256
370
-1
100
AcDbSpline
210
0
220
0
230
1
70
8
71
3
72
8
73
4
74
0
42
1e-07
43
1e-07
40
0
40
0
40
0
40
0
40
1
40
1
40
1
40
1
10
889.787398094
20
30.1571045612
30
0
10
888.804167494
20
31.1403304612
30
0
10
885.856966694
20
31.6999171612
30
0
10
883.238065594
20
31.4006446612
30
0
0
SPLINE
5
7C
100
AcDbEntity
8
Guitar
6
ByLayer
62
256
370
-1
100
AcDbSpline
210
0
220
0
230
1
70
8
71
3
72
8
73
4
74
0
42
1e-07
43
1e-07
40
0
40
0
40
0
40
0
40
1
40
1
40
1
40
1
10
883.238065594
20
31.4006446612
30
0
10
878.598982294
20
30.8705175612
30
0
10
878.488372494
20
30.6324766612
30
0
10
878.940568894
20
22.1517214612
30
0
0
SPLINE
5
7D
100
AcDbEntity
8
Guitar
6
ByLayer
62
256
370
-1
100
AcDbSpline
210
0
220
0
230
1
70
8
71
3
72
8
73
4
74
0
42
1e-07
43
1e-07
40
0
40
0
40
0
40
0
40
1
40
1
40
1
40
1
10
878.940568894
20
22.1517214612
30
0
10
879.372696294
20
14.0475020612
30
0
10
879.143914394
20
13.4505644612
30
0
10
875.624455694
20
13.4996559612
30
0
0
SPLINE
5
7E
100
AcDbEntity
8
Guitar
6
ByLayer
62
256
370
-1
100
AcDbSpline
210
0
220
0
230
1
70
8
71
3
72
8
73
4
74
0
42
1e-07
43
1e-07
40
0
40
0
40
0
40
0
40
1
40
1
40
1
40
1
10
875.624455694
20
13.4996559612
30
0
10
867.340348494
20
13.6151866612
30
0
10
862.118972794
20
23.6409211612
30
0
10
869.357127894
20
25.5337427612
30
0
0
SPLINE
5
7F
100
AcDbEntity
8
Guitar
6
ByLayer
62
256
370
-1
100
AcDbSpline
210
0
220
0
230
1
70
8
71
3
72
8
73
4
74
0
42
1e-07
43
1e-07
40
0
40
0
40
0
40
0
40
1
40
1
40
1
40
1
10
869.357127894
20
25.5337427612
30
0
10
871.508115794
20
26.0962340612
30
0
10
872.673236394
20
27.7953592612
30
0
10
872.673236394
20
30.3696667612
30
0
0
SPLINE
5
80
100
AcDbEntity
8
Guitar
6
ByLayer
62
256
370
-1
100
AcDbSpline
210
0
220
0
230
1
70
8
71
3
72
8
73
4
74
0
42
1e-07
43
1e-07
40
0
40
0
40
0
40
0
40
1
40
1
40
1
40
1
10
872.673236394
20
30.3696667612
30
0
10
872.673236394
20
35.7979834612
30
0
10
869.703141894
20
38.3177615612
30
0
10
863.304707594
20
38.3177615612
30
0
0
SPLINE
5
81
100
AcDbEntity
8
Guitar
6
ByLayer
62
256
370
-1
100
AcDbSpline
210
0
220
0
230
1
70
8
71
3
72
8
73
4
74
0
42
1e-07
43
1e-07
40
0
40
0
40
0
40
0
40
1
40
1
40
1
40
1
10
863.304707594
20
38.3177615612
30
0
10
856.601717994
20
38.3177615612
30
0
10
854.214808894
20
34.6891030612
30
0
10
856.658728994
20
28.2143924612
30
0
0
SPLINE
5
82
100
AcDbEntity
8
Guitar
6
ByLayer
62
256
370
-1
100
AcDbSpline
210
0
220
0
230
1
70
8
71
3
72
8
73
4
74
0
42
1e-07
43
1e-07
40
0
40
0
40
0
40
0
40
1
40
1
40
1
40
1
10
856.658728994
20
28.2143924612
30
0
10
858.917821594
20
22.2293842612
30
0
10
857.658762094
20
21.0743545612
30
0
10
850.366806094
20
22.4423318612
30
0
0
SPLINE
5
83
100
AcDbEntity
8
Guitar
6
ByLayer
62
256
370
-1
100
AcDbSpline
210
0
220
0
230
1
70
8
71
3
72
8
73
4
74
0
42
1e-07
43
1e-07
40
0
40
0
40
0
40
0
40
1
40
1
40
1
40
1
10
850.366806094
20
22.4423318612
30
0
10
845.581736094
20
23.3400177612
30
0
10
844.486292994
20
24.2828800612
30
0
10
844.486292994
20
27.5038041612
30
0
0
SPLINE
5
84
100
AcDbEntity
8
Guitar
6
ByLayer
62
256
370
-1
100
AcDbSpline
210
0
220
0
230
1
70
8
71
3
72
8
73
4
74
0
42
1e-07
43
1e-07
40
0
40
0
40
0
40
0
40
1
40
1
40
1
40
1
10
844.486292994
20
27.5038041612
30
0
10
844.486292994
20
30.0058773612
30
0
10
845.706253194
20
31.8492784612
30
0
10
847.802406194
20
32.5145681612
30
0
0
SPLINE
5
85
100
AcDbEntity
8
Guitar
6
ByLayer
62
256
370
-1
100
AcDbSpline
210
0
220
0
230
1
70
8
71
3
72
8
73
4
74
0
42
1e-07
43
1e-07
40
0
40
0
40
0
40
0
40
1
40
1
40
1
40
1
10
847.802406194
20
32.5145681612
30
0
10
851.620469994
20
33.7263832612
30
0
10
852.319068594
20
40.2314652612
30
0
10
848.932934794
20
43.0417080612
30
0
0
SPLINE
5
86
100
AcDbEntity
8
Guitar
6
ByLayer
62
256
370
-1
100
AcDbSpline
210
0
220
0
230
1
70
8
71
3
72
8
73
4
74
0
42
1e-07
43
1e-07
40
0
40
0
40
0
40
0
40
1
40
1
40
1
40
1
10
848.932934794
20
43.0417080612
30
0
10
847.730858094
20
44.0393394612
30
0
10
844.291398094
20
45.0633566612
30
0
10
841.289696094
20
45.3173023612
30
0
0
SPLINE
5
87
100
AcDbEntity
8
Guitar
6
ByLayer
62
256
370
-1
100
AcDbSpline
210
0
220
0
230
1
70
8
71
3
72
8
73
4
74
0
42
1e-07
43
1e-07
40
0
40
0
40
0
40
0
40
1
40
1
40
1
40
1
10
841.289696094
20
45.3173023612
30
0
10
834.428184894
20
45.8977805612
30
0
10
830.980767794
20
41.7395260612
30
0
10
834.135529994
20
36.6879331612
30
0
0
SPLINE
5
88
100
AcDbEntity
8
Guitar
6
ByLayer
62
256
370
-1
100
AcDbSpline
210
0
220
0
230
1
70
8
71
3
72
8
73
4
74
0
42
1e-07
43
1e-07
40
0
40
0
40
0
40
0
40
1
40
1
40
1
40
1
10
834.135529994
20
36.6879331612
30
0
10
837.664308794
20
31.0374803612
30
0
10
836.711341494
20
29.5617555612
30
0
10
830.309269394
20
30.7627982612
30
0
0
SPLINE
5
89
100
AcDbEntity
8
Guitar
6
ByLayer
62
256
370
-1
100
AcDbSpline
210
0
220
0
230
1
70
8
71
3
72
8
73
4
74
0
42
1e-07
43
1e-07
40
0
40
0
40
0
40
0
40
1
40
1
40
1
40
1
10
830.309269394
20
30.7627982612
30
0
10
825.463569394
20
31.6718534612
30
0
10
822.928784194
20
30.9480487612
30
0
10
815.976055394
20
26.6699865612
30
0
0
SPLINE
5
8A
100
AcDbEntity
8
Guitar
6
ByLayer
62
256
370
-1
100
AcDbSpline
210
0
220
0
230
1
70
8
71
3
72
8
73
4
74
0
42
1e-07
43
1e-07
40
0
40
0
40
0
40
0
40
1
40
1
40
1
40
1
10
815.976055394
20
26.6699865612
30
0
10
811.330500194
20
23.8115546612
30
0
10
805.585619694
20
20.7252620612
30
0
10
803.209675694
20
19.8115679612
30
0
0
SPLINE
5
8B
100
AcDbEntity
8
Guitar
6
ByLayer
62
256
370
-1
100
AcDbSpline
210
0
220
0
230
1
70
8
71
3
72
8
73
4
74
0
42
1e-07
43
1e-07
40
0
40
0
40
0
40
0
40
1
40
1
40
1
40
1
10
803.209675694
20
19.8115679612
30
0
10
800.814532194
20
18.8904995612
30
0
10
783.745246094
20
18.1704360612
30
0
10
764.899627894
20
18.1954823612
30
0
0
SPLINE
5
8C
100
AcDbEntity
8
Guitar
6
ByLayer
62
256
370
-1
100
AcDbSpline
210
0
220
0
230
1
70
8
71
3
72
8
73
4
74
0
42
1e-07
43
1e-07
40
0
40
0
40
0
40
0
40
1
40
1
40
1
40
1
10
598.679559494
20
20.5942636612
30
0
10
600.275430394
20
21.0113087612
30
0
10
587.777843694
20
21.4401884612
30
0
10
570.907127894
20
21.5473155612
30
0
0
SPLINE
5
8D
100
AcDbEntity
8
Guitar
6
ByLayer
62
256
370
-1
100
AcDbSpline
210
0
220
0
230
1
70
8
71
3
72
8
73
4
74
0
42
1e-07
43
1e-07
40
0
40
0
40
0
40
0
40
1
40
1
40
1
40
1
10
570.907127894
20
21.5473155612
30
0
10
554.036412094
20
21.6544896612
30
0
10
512.812998794
20
22.2350994612
30
0
10
479.299559494
20
22.8376535612
30
0
0
SPLINE
5
8E
100
AcDbEntity
8
Guitar
6
ByLayer
62
256
370
-1
100
AcDbSpline
210
0
220
0
230
1
70
8
71
3
72
8
73
4
74
0
42
1e-07
43
1e-07
40
0
40
0
40
0
40
0
40
1
40
1
40
1
40
1
10
397.136551794
20
25.0533181612
30
0
10
386.560729294
20
25.0533181612
30
0
10
385.536514694
20
25.3902329612
30
0
10
380.754950894
20
30.4419997612
30
0
0
SPLINE
5
8F
100
AcDbEntity
8
Guitar
6
ByLayer
62
256
370
-1
100
AcDbSpline
210
0
220
0
230
1
70
8
71
3
72
8
73
4
74
0
42
1e-07
43
1e-07
40
0
40
0
40
0
40
0
40
1
40
1
40
1
40
1
10
380.754950894
20
30.4419997612
30
0
10
373.660061194
20
37.9378041612
30
0
10
371.940462794
20
41.8950631612
30
0
10
371.940462794
20
50.7265135612
30
0
0
SPLINE
5
90
100
AcDbEntity
8
Guitar
6
ByLayer
62
256
370
-1
100
AcDbSpline
210
0
220
0
230
1
70
8
71
3
72
8
73
4
74
0
42
1e-07
43
1e-07
40
0
40
0
40
0
40
0
40
1
40
1
40
1
40
1
10
371.940462794
20
50.7265135612
30
0
10
371.940462794
20
59.9846158612
30
0
10
374.604916294
20
65.4236673612
30
0
10
382.995671194
20
73.2939207612
30
0
0
SPLINE
5
91
100
AcDbEntity
8
Guitar
6
ByLayer
62
256
370
-1
100
AcDbSpline
210
0
220
0
230
1
70
8
71
3
72
8
73
4
74
0
42
1e-07
43
1e-07
40
0
40
0
40
0
40
0
40
1
40
1
40
1
40
1
10
382.995671194
20
73.2939207612
30
0
10
391.207078794
20
80.9959423612
30
0
10
399.120487594
20
85.6051383612
30
0
10
408.417684494
20
88.1010592612
30
0
0
SPLINE
5
92
100
AcDbEntity
8
Guitar
6
ByLayer
62
256
370
-1
100
AcDbSpline
210
0
220
0
230
1
70
8
71
3
72
8
73
4
74
0
42
1e-07
43
1e-07
40
0
40
0
40
0
40
0
40
1
40
1
40
1
40
1
10
408.417684494
20
88.1010592612
30
0
10
417.016437894
20
90.4094877612
30
0
10
447.752835194
20
94.9732676612
30
0
10
456.898113994
20
95.2995087612
30
0
0
SPLINE
5
93
100
AcDbEntity
8
Guitar
6
ByLayer
62
256
370
-1
100
AcDbSpline
210
0
220
0
230
1
70
8
71
3
72
8
73
4
74
0
42
1e-07
43
1e-07
40
0
40
0
40
0
40
0
40
1
40
1
40
1
40
1
10
456.898113994
20
95.2995087612
30
0
10
462.160182294
20
95.4872220612
30
0
10
463.351608794
20
96.2478888612
30
0
10
464.773875794
20
100.327752061
30
0
0
SPLINE
5
94
100
AcDbEntity
8
Guitar
6
ByLayer
62
256
370
-1
100
AcDbSpline
210
0
220
0
230
1
70
8
71
3
72
8
73
4
74
0
42
1e-07
43
1e-07
40
0
40
0
40
0
40
0
40
1
40
1
40
1
40
1
10
464.773875794
20
100.327752061
30
0
10
466.983439794
20
106.666120361
30
0
10
466.889872194
20
107.956096461
30
0
10
464.220525994
20
107.956096461
30
0
0
SPLINE
5
95
100
AcDbEntity
8
Guitar
6
ByLayer
62
256
370
-1
100
AcDbSpline
210
0
220
0
230
1
70
8
71
3
72
8
73
4
74
0
42
1e-07
43
1e-07
40
0
40
0
40
0
40
0
40
1
40
1
40
1
40
1
10
464.220525994
20
107.956096461
30
0
10
462.994502794
20
107.956096461
30
0
10
457.627126294
20
111.775175461
30
0
10
452.293016394
20
116.442942861
30
0
0
SPLINE
5
96
100
AcDbEntity
8
Guitar
6
ByLayer
62
256
370
-1
100
AcDbSpline
210
0
220
0
230
1
70
8
71
3
72
8
73
4
74
0
42
1e-07
43
1e-07
40
0
40
0
40
0
40
0
40
1
40
1
40
1
40
1
10
452.293016394
20
116.442942861
30
0
10
446.958906494
20
121.110710261
30
0
10
439.195028194
20
126.425216461
30
0
10
435.039964994
20
128.252957161
30
0
0
SPLINE
5
97
100
AcDbEntity
8
Guitar
6
ByLayer
62
256
370
-1
100
AcDbSpline
210
0
220
0
230
1
70
8
71
3
72
8
73
4
74
0
42
1e-07
43
1e-07
40
0
40
0
40
0
40
0
40
1
40
1
40
1
40
1
10
435.039964994
20
128.252957161
30
0
10
425.475544894
20
132.460199761
30
0
10
407.160175994
20
133.788734661
30
0
10
392.452386094
20
131.342116761
30
0
0
SPLINE
5
98
100
AcDbEntity
8
Guitar
6
ByLayer
62
256
370
-1
100
AcDbSpline
210
0
220
0
230
1
70
8
71
3
72
8
73
4
74
0
42
1e-07
43
1e-07
40
0
40
0
40
0
40
0
40
1
40
1
40
1
40
1
10
262.508792994
20
104.517646961
30
0
10
258.405105494
20
105.627058461
30
0
10
240.125042994
20
113.879736761
30
0
10
221.886434494
20
122.856934161
30
0
0
SPLINE
5
99
100
AcDbEntity
8
Guitar
6
ByLayer
62
256
370
-1
100
AcDbSpline
210
0
220
0
230
1
70
8
71
3
72
8
73
4
74
0
42
1e-07
43
1e-07
40
0
40
0
40
0
40
0
40
1
40
1
40
1
40
1
10
221.886434494
20
122.856934161
30
0
10
163.635494594
20
151.528546261
30
0
10
147.446024994
20
156.484508261
30
0
10
111.625736394
20
156.610233261
30
0
0
SPLINE
5
9A
100
AcDbEntity
8
Guitar
6
ByLayer
62
256
370
-1
100
AcDbSpline
210
0
220
0
230
1
70
8
71
3
72
8
73
4
74
0
42
1e-07
43
1e-07
40
0
40
0
40
0
40
0
40
1
40
1
40
1
40
1
10
111.625736394
20
156.610233261
30
0
10
85.9011840939
20
156.700524961
30
0
10
76.0042013939
20
154.165429561
30
0
10
56.5451156939
20
142.501411361
30
0
0
SPLINE
5
9B
100
AcDbEntity
8
Guitar
6
ByLayer
62
256
370
-1
100
AcDbSpline
210
0
220
0
230
1
70
8
71
3
72
8
73
4
74
0
42
1e-07
43
1e-07
40
0
40
0
40
0
40
0
40
1
40
1
40
1
40
1
10
56.5451156939
20
142.501411361
30
0
10
21.2444778939
20
121.341766961
30
0
10
0.566940693885
20
76.2933761612
30
0
10
0.542683993885
20
20.4936648612
30
0
0
SPLINE
5
9C
100
AcDbEntity
8
Guitar
6
ByLayer
62
256
370
-1
100
AcDbSpline
210
0
220
0
230
1
70
8
71
3
72
8
73
4
74
0
42
1e-07
43
1e-07
40
0
40
0
40
0
40
0
40
1
40
1
40
1
40
1
10
22.5597540939
20
-114.339211339
30
0
10
26.4054820939
20
-120.064530439
30
0
10
30.4033866939
20
-126.184414539
30
0
10
31.4439807939
20
-127.938957439
30
0
0
SPLINE
5
9D
100
AcDbEntity
8
Guitar
6
ByLayer
62
256
370
-1
100
AcDbSpline
210
0
220
0
230
1
70
8
71
3
72
8
73
4
74
0
42
1e-07
43
1e-07
40
0
40
0
40
0
40
0
40
1
40
1
40
1
40
1
10
31.4439807939
20
-127.938957439
30
0
10
32.4845795939
20
-129.693486239
30
0
10
36.9613295939
20
-133.690314539
30
0
10
41.3923156939
20
-136.820777739
30
0
0
SPLINE
5
9E
100
AcDbEntity
8
Guitar
6
ByLayer
62
256
370
-1
100
AcDbSpline
210
0
220
0
230
1
70
8
71
3
72
8
73
4
74
0
42
1e-07
43
1e-07
40
0
40
0
40
0
40
0
40
1
40
1
40
1
40
1
10
75.1485146939
20
-155.435832739
30
0
10
80.0614246939
20
-157.995748839
30
0
10
84.5128557939
20
-158.410805839
30
0
10
104.164486394
20
-158.141406539
30
0
0
SPLINE
5
9F
100
AcDbEntity
8
Guitar
6
ByLayer
62
256
370
-1
100
AcDbSpline
210
0
220
0
230
1
70
8
71
3
72
8
73
4
74
0
42
1e-07
43
1e-07
40
0
40
0
40
0
40
0
40
1
40
1
40
1
40
1
10
104.164486394
20
-158.141406539
30
0
10
125.638509094
20
-157.847003239
30
0
10
128.457404594
20
-157.431029739
30
0
10
141.797311194
20
-152.588022839
30
0
0
LWPOLYLINE
5
A0
100
AcDbEntity
8
Guitar
6
ByLayer
62
256
370
-1
100
AcDbPolyline
90
2
70
1
43
0
10
141.797311194
20
-152.588022839
10
141.797311194
20
-152.588022839
0
SPLINE
5
A1
100
AcDbEntity
8
Guitar
6
ByLayer
62
256
370
-1
100
AcDbSpline
210
0
220
0
230
1
70
8
71
3
72
8
73
4
74
0
42
1e-07
43
1e-07
40
0
40
0
40
0
40
0
40
1
40
1
40
1
40
1
10
479.299559494
20
22.8376535612
30
0
10
423.159469494
20
23.8470114612
30
0
10
431.206902998
20
24.058580239
30
0
10
397.162883156
20
25.0833820533
30
0
0
SPLINE
5
A2
100
AcDbEntity
8
Guitar
6
ByLayer
62
256
370
-1
100
AcDbSpline
210
0
220
0
230
1
70
8
71
3
72
8
73
4
74
0
42
1e-07
43
1e-07
40
0
40
0
40
0
40
0
40
1
40
1
40
1
40
1
10
645.105111394
20
20.0724273612
30
0
10
620.047066094
20
20.0777336612
30
0
10
615.674627894
20
19.7096437612
30
0
10
598.303974782
20
20.9026826251
30
0
0
SPLINE
5
A3
100
AcDbEntity
8
Guitar
6
ByLayer
62
256
370
-1
100
AcDbSpline
210
0
220
0
230
1
70
8
71
3
72
8
73
4
74
0
42
1e-07
43
1e-07
40
0
40
0
40
0
40
0
40
1
40
1
40
1
40
1
10
764.722784277
20
18.1605034303
30
0
10
683.966130794
20
19.5847083612
30
0
10
661.291873794
20
20.0687237612
30
0
10
645.105111394
20
20.0724273612
30
0
0
SPLINE
5
A4
100
AcDbEntity
8
Guitar
6
ByLayer
62
256
370
-1
100
AcDbSpline
210
0
220
0
230
1
70
8
71
3
72
8
73
4
74
0
42
1e-07
43
1e-07
40
0
40
0
40
0
40
0
40
1
40
1
40
1
40
1
10
712.079704782
20
-26.4300275025
30
0
10
713.499906194
20
-26.2049382388
30
0
10
718.703558194
20
-26.4805885388
30
0
10
757.023861394
20
-26.2477975388
30
0
0
SPLINE
5
A5
100
AcDbEntity
8
Guitar
6
ByLayer
62
256
370
-1
100
AcDbSpline
210
0
220
0
230
1
70
8
71
3
72
8
73
4
74
0
42
1e-07
43
1e-07
40
0
40
0
40
0
40
0
40
1
40
1
40
1
40
1
10
650.493792994
20
-27.7079465388
30
0
10
699.596394394
20
-27.2233295388
30
0
10
708.525736394
20
-26.6093826388
30
0
10
713.73688009
20
-26.2827230306
30
0
0
LINE
5
A6
100
AcDbEntity
8
Guitar
6
ByLayer
62
256
370
-1
100
AcDbLine
10
0.542683993885
20
20.4936648612
11
0.536014693885
21
5.1566530612
0
SPLINE
5
A7
100
AcDbEntity
8
Guitar
6
ByLayer
62
256
370
-1
100
AcDbSpline
210
0
220
0
230
1
70
8
71
3
72
8
73
4
74
0
42
1e-07
43
1e-07
40
0
40
0
40
0
40
0
40
1
40
1
40
1
40
1
10
0.536014693885
20
5.1566530612
30
0
10
-1.77427500611
20
-15.4786969388
30
0
10
1.85459029389
20
-56.5312652388
30
0
10
4.76762209389
20
-69.3389109388
30
0
0
SPLINE
5
A8
100
AcDbEntity
8
Guitar
6
ByLayer
62
256
370
-1
100
AcDbSpline
210
0
220
0
230
1
70
8
71
3
72
8
73
4
74
0
42
1e-07
43
1e-07
40
0
40
0
40
0
40
0
40
1
40
1
40
1
40
1
10
4.76762209389
20
-69.3389109388
30
0
10
8.29711529389
20
-86.9996168388
30
0
10
14.2979765939
20
-102.039532239
30
0
10
22.5597540939
20
-114.339211339
30
0
0
SPLINE
5
A9
100
AcDbEntity
8
Guitar
6
ByLayer
62
256
370
-1
100
AcDbSpline
210
0
220
0
230
1
70
8
71
3
72
8
73
4
74
0
42
1e-07
43
1e-07
40
0
40
0
40
0
40
0
40
1
40
1
40
1
40
1
10
41.3923156939
20
-136.820777739
30
0
10
66.7338837939
20
-152.472369939
30
0
10
71.9567587939
20
-153.772747139
30
0
10
75.1485146939
20
-155.435832739
30
0
0
SPLINE
5
AA
100
AcDbEntity
8
Guitar
6
ByLayer
62
256
370
-1
100
AcDbSpline
210
0
220
0
230
1
70
8
71
3
72
8
73
4
74
0
42
1e-07
43
1e-07
40
0
40
0
40
0
40
0
40
1
40
1
40
1
40
1
10
311.421434494
20
106.365936061
30
0
10
298.094988694
20
102.037330061
30
0
10
274.922376594
20
101.161696561
30
0
10
262.508792994
20
104.517646961
30
0
0
SPLINE
5
AB
100
AcDbEntity
8
Guitar
6
ByLayer
62
256
370
-1
100
AcDbSpline
210
0
220
0
230
1
70
8
71
3
72
8
73
4
74
0
42
1e-07
43
1e-07
40
0
40
0
40
0
40
0
40
1
40
1
40
1
40
1
10
328.108699894
20
111.099541061
30
0
10
324.349677494
20
110.063618761
30
0
10
317.804946294
20
108.439383361
30
0
10
311.421434494
20
106.365936061
30
0
0
SPLINE
5
AC
100
AcDbEntity
8
Guitar
6
ByLayer
62
256
370
-1
100
AcDbSpline
210
0
220
0
230
1
70
8
71
3
72
8
73
4
74
0
42
1e-07
43
1e-07
40
0
40
0
40
0
40
0
40
1
40
1
40
1
40
1
10
392.452386094
20
131.342116761
30
0
10
378.321944194
20
128.991543361
30
0
10
328.108699894
20
111.099541061
30
0
10
328.108699894
20
111.099541061
30
0
0
ENDBLK
5
4A
330
48
100
AcDbEntity
8
0
100
AcDbBlockEnd
0
ENDSEC
0
SECTION
2
ENTITIES
0
LINE
5
AD
100
AcDbEntity
8
Guitar Guides
6
ByLayer
62
256
370
-1
100
AcDbLine
10
17.9366556736
20
156.603380102
11
189.99172702
21
156.603380102
0
LINE
5
AE
100
AcDbEntity
8
Guitar Guides
6
ByLayer
62
256
370
-1
100
AcDbLine
10
-51.3309387754
20
0
11
1189.58393686
21
0
0
LINE
5
AF
100
AcDbEntity
8
Guitar Guides
6
ByLayer
62
256
370
-1
100
AcDbLine
10
-13.2191085714
20
-158.291166255
11
182.46645551
21
-158.291166255
0
LINE
5
B0
100
AcDbEntity
8
Guitar Guides
6
ByLayer
62
256
370
-1
100
AcDbLine
10
-51.3309387754
20
-90
11
1189.58393686
21
-90
0
LINE
5
B1
100
AcDbEntity
8
Guitar Guides
6
ByLayer
62
256
370
-1
100
AcDbLine
10
-51.3309387754
20
-65
11
1189.58393686
21
-65
0
LINE
5
B2
100
AcDbEntity
8
Guitar Guides
6
ByLayer
62
256
370
-1
100
AcDbLine
10
-51.3309387754
20
-115
11
1189.58393686
21
-115
0
LINE
5
B3
100
AcDbEntity
8
Guitar Guides
6
ByLayer
62
256
370
-1
100
AcDbLine
10
1.33573933856
20
-92.8102756875
11
20.5295533496
21
-87.1891099983
0
LINE
5
B4
100
AcDbEntity
8
Guitar Guides
6
ByLayer
62
256
370
-1
100
AcDbLine
10
-5.37631287144
20
-67.8139226885
11
13.8175011396
21
-62.1927569994
0
LINE
5
B5
100
AcDbEntity
8
Guitar Guides
6
ByLayer
62
256
370
-1
100
AcDbLine
10
15.0383476946
20
-120.561126486
11
31.6454786386
21
-109.416477465
0
LINE
5
B6
100
AcDbEntity
8
Guitar Guides
6
ByLayer
62
256
370
-1
100
AcDbLine
10
83.2876127846
20
-167.803506362
11
84.5718460496
21
-147.844780327
0
LINE
5
B7
100
AcDbEntity
8
Guitar Guides
6
ByLayer
62
256
370
-1
100
AcDbLine
10
-84.1745348794
20
102.760375271
11
111.740157122
21
-294.429557541
0
LINE
5
B8
100
AcDbEntity
8
Guitar Guides
6
ByLayer
62
256
370
-1
100
AcDbLine
10
-102.111306122
20
93.9126530612
11
93.8036938776
21
-303.277346939
0
INSERT
5
B9
100
AcDbEntity
8
Guitar
6
ByLayer
62
256
370
-1
100
AcDbBlockReference
2
BoltPlus Guitar Clean
10
0.320679183674
20
0
30
0
41
1
42
1
43
0
50
0
70
1
71
1
44
0
45
0
0
ENDSEC
0
SECTION
2
OBJECTS
0
DICTIONARY
5
C
330
0
100
AcDbDictionary
281
1
3
ACAD_GROUP
350
D
0
DICTIONARY
5
D
330
C
100
AcDbDictionary
281
1
0
ENDSEC
0
EOF
