999
dxfrw 0.5.11
0
SECTION
2
HEADER
9
$ACADVER
1
AC1021
9
$HANDSEED
5
20000
9
$DWGCODEPAGE
3
ANSI_1252
9
$INSBASE
10
0
20
0
30
0
9
$EXTMIN
10
2.116667
20
5.45733319288
30
0
9
$EXTMAX
10
211.134947658
20
72.5193175726
30
0
9
$LIMMIN
10
0
20
0
9
$LIMMAX
10
420
20
297
9
$ORTHOMODE
70
0
9
$LTSCALE
40
1
9
$TEXTSTYLE
7
STANDARD
9
$CLAYER
8
guides
9
$DIMASZ
40
2.5
9
$DIMLFAC
40
1
9
$DIMSCALE
40
1
9
$DIMEXO
40
0.625
9
$DIMEXE
40
1.25
9
$DIMTXT
40
2.5
9
$DIMTSZ
40
0
9
$DIMAUNIT
70
0
9
$DIMADEC
70
0
9
$DIMLUNIT
70
2
9
$DIMSTYLE
2
Standard
9
$DIMGAP
40
0.625
9
$DIMTIH
70
0
9
$LUNITS
70
2
9
$LUPREC
70
4
9
$AUNITS
70
0
9
$AUPREC
70
2
9
$SPLINESEGS
70
8
9
$GRIDMODE
70
0
9
$SNAPSTYLE
70
0
9
$PINSBASE
10
0
20
0
30
0
9
$PLIMMIN
10
0
20
0
9
$PLIMMAX
10
210
20
297
9
$INSUNITS
70
4
9
$PSVPSCALE
40
1
0
ENDSEC
0
SECTION
2
CLASSES
0
ENDSEC
0
SECTION
2
TABLES
0
TABLE
2
VPORT
5
8
330
0
100
AcDbSymbolTable
70
1
0
VPORT
5
31
330
2
100
AcDbSymbolTableRecord
100
AcDbViewportTableRecord
2
*ACTIVE
70
0
10
0
20
0
11
1
21
1
12
27.3114998174
22
42.7232558703
13
0
23
0
14
10
24
10
15
10
25
10
16
0
26
0
36
1
17
0
27
0
37
0
40
29.2916769587
41
1.97193877551
42
50
43
0
44
0
50
0
51
0
71
0
72
100
73
1
74
3
75
0
76
0
77
0
78
0
281
0
65
1
110
0
120
0
130
0
111
1
121
0
131
0
112
0
122
1
132
0
79
0
146
0
348
10020
60
7
61
5
292
1
282
1
141
0
142
0
63
250
421
3358443
0
ENDTAB
0
TABLE
2
LTYPE
5
5
330
0
100
AcDbSymbolTable
70
4
0
LTYPE
5
14
330
5
100
AcDbSymbolTableRecord
100
AcDbLinetypeTableRecord
2
ByBlock
70
0
3

72
65
73
0
40
0
0
LTYPE
5
15
330
5
100
AcDbSymbolTableRecord
100
AcDbLinetypeTableRecord
2
ByLayer
70
0
3

72
65
73
0
40
0
0
LTYPE
5
16
330
5
100
AcDbSymbolTableRecord
100
AcDbLinetypeTableRecord
2
Continuous
70
0
3
Solid line
72
65
73
0
40
0
0
LTYPE
5
32
330
5
100
AcDbSymbolTableRecord
100
AcDbLinetypeTableRecord
2
DOT
70
0
3
Dot . . . . . . . . . . . . . . . . . . . . . .
72
65
73
2
40
6.35
49
0
74
0
49
-6.35
74
0
0
LTYPE
5
33
330
5
100
AcDbSymbolTableRecord
100
AcDbLinetypeTableRecord
2
DOT2
70
0
3
Dot (.5x) .....................................
72
65
73
2
40
3.175
49
0
74
0
49
-3.175
74
0
0
LTYPE
5
34
330
5
100
AcDbSymbolTableRecord
100
AcDbLinetypeTableRecord
2
DOTX2
70
0
3
Dot (2x) .  .  .  .  .  .  .  .  .  .  .  .  .
72
65
73
2
40
12.7
49
0
74
0
49
-12.7
74
0
0
LTYPE
5
35
330
5
100
AcDbSymbolTableRecord
100
AcDbLinetypeTableRecord
2
DASHED
70
0
3
Dot . . . . . . . . . . . . . . . . . . . . . .
72
65
73
2
40
19.05
49
12.7
74
0
49
-6.35
74
0
0
LTYPE
5
36
330
5
100
AcDbSymbolTableRecord
100
AcDbLinetypeTableRecord
2
DASHED2
70
0
3
Dashed (.5x) _ _ _ _ _ _ _ _ _ _ _ _ _ _ _ _ _
72
65
73
2
40
9.525
49
6.35
74
0
49
-3.175
74
0
0
LTYPE
5
37
330
5
100
AcDbSymbolTableRecord
100
AcDbLinetypeTableRecord
2
DASHEDX2
70
0
3
Dashed (2x) ____  ____  ____  ____  ____  ___
72
65
73
2
40
38.1
49
25.4
74
0
49
-12.7
74
0
0
LTYPE
5
38
330
5
100
AcDbSymbolTableRecord
100
AcDbLinetypeTableRecord
2
DASHDOT
70
0
3
Dash dot __ . __ . __ . __ . __ . __ . __ . __
72
65
73
4
40
25.4
49
12.7
74
0
49
-6.35
74
0
49
0
74
0
49
-6.35
74
0
0
LTYPE
5
39
330
5
100
AcDbSymbolTableRecord
100
AcDbLinetypeTableRecord
2
DASHDOT2
70
0
3
Dash dot (.5x) _._._._._._._._._._._._._._._.
72
65
73
4
40
12.7
49
6.35
74
0
49
-3.175
74
0
49
0
74
0
49
-3.175
74
0
0
LTYPE
5
3A
330
5
100
AcDbSymbolTableRecord
100
AcDbLinetypeTableRecord
2
DASHDOTX2
70
0
3
Dash dot (2x) ____  .  ____  .  ____  .  ___
72
65
73
4
40
50.8
49
25.4
74
0
49
-12.7
74
0
49
0
74
0
49
-12.7
74
0
0
LTYPE
5
3B
330
5
100
AcDbSymbolTableRecord
100
AcDbLinetypeTableRecord
2
DIVIDE
70
0
3
Divide ____ . . ____ . . ____ . . ____ . . ____
72
65
73
6
40
31.75
49
12.7
74
0
49
-6.35
74
0
49
0
74
0
49
-6.35
74
0
49
0
74
0
49
-6.35
74
0
0
LTYPE
5
3C
330
5
100
AcDbSymbolTableRecord
100
AcDbLinetypeTableRecord
2
DIVIDE2
70
0
3
Divide (.5x) __..__..__..__..__..__..__..__.._
72
65
73
6
40
15.875
49
6.35
74
0
49
-3.175
74
0
49
0
74
0
49
-3.175
74
0
49
0
74
0
49
-3.175
74
0
0
LTYPE
5
3D
330
5
100
AcDbSymbolTableRecord
100
AcDbLinetypeTableRecord
2
DIVIDEX2
70
0
3
Divide (2x) ________  .  .  ________  .  .  _
72
65
73
6
40
63.5
49
25.4
74
0
49
-12.7
74
0
49
0
74
0
49
-12.7
74
0
49
0
74
0
49
-12.7
74
0
0
LTYPE
5
3E
330
5
100
AcDbSymbolTableRecord
100
AcDbLinetypeTableRecord
2
BORDER
70
0
3
Border __ __ . __ __ . __ __ . __ __ . __ __ .
72
65
73
6
40
44.45
49
12.7
74
0
49
-6.35
74
0
49
12.7
74
0
49
-6.35
74
0
49
0
74
0
49
-6.35
74
0
0
LTYPE
5
3F
330
5
100
AcDbSymbolTableRecord
100
AcDbLinetypeTableRecord
2
BORDER2
70
0
3
Border (.5x) __.__.__.__.__.__.__.__.__.__.__.
72
65
73
6
40
22.225
49
6.35
74
0
49
-3.175
74
0
49
6.35
74
0
49
-3.175
74
0
49
0
74
0
49
-3.175
74
0
0
LTYPE
5
40
330
5
100
AcDbSymbolTableRecord
100
AcDbLinetypeTableRecord
2
BORDERX2
70
0
3
Border (2x) ____  ____  .  ____  ____  .  ___
72
65
73
6
40
88.9
49
25.4
74
0
49
-12.7
74
0
49
25.4
74
0
49
-12.7
74
0
49
0
74
0
49
-12.7
74
0
0
LTYPE
5
41
330
5
100
AcDbSymbolTableRecord
100
AcDbLinetypeTableRecord
2
CENTER
70
0
3
Center ____ _ ____ _ ____ _ ____ _ ____ _ ____
72
65
73
4
40
50.8
49
31.75
74
0
49
-6.35
74
0
49
6.35
74
0
49
-6.35
74
0
0
LTYPE
5
42
330
5
100
AcDbSymbolTableRecord
100
AcDbLinetypeTableRecord
2
CENTER2
70
0
3
Center (.5x) ___ _ ___ _ ___ _ ___ _ ___ _ ___
72
65
73
4
40
28.575
49
19.05
74
0
49
-3.175
74
0
49
3.175
74
0
49
-3.175
74
0
0
LTYPE
5
43
330
5
100
AcDbSymbolTableRecord
100
AcDbLinetypeTableRecord
2
CENTERX2
70
0
3
Center (2x) ________  __  ________  __  _____
72
65
73
4
40
101.6
49
63.5
74
0
49
-12.7
74
0
49
12.7
74
0
49
-12.7
74
0
0
ENDTAB
0
TABLE
2
LAYER
5
2
330
0
100
AcDbSymbolTable
70
1
0
LAYER
5
10
330
2
100
AcDbSymbolTableRecord
100
AcDbLayerTableRecord
2
0
70
0
62
7
6
CONTINUOUS
370
-3
390
F
0
LAYER
5
44
330
2
100
AcDbSymbolTableRecord
100
AcDbLayerTableRecord
2
guides
70
1
62
3
6
CONTINUOUS
370
0
390
F
0
ENDTAB
0
TABLE
2
STYLE
5
3
330
0
100
AcDbSymbolTable
70
3
0
STYLE
5
45
330
2
100
AcDbSymbolTableRecord
100
AcDbTextStyleTableRecord
2
Standard
70
0
40
0
41
1
50
0
71
0
42
1
3
txt
4

0
ENDTAB
0
TABLE
2
VIEW
5
6
330
0
100
AcDbSymbolTable
70
0
0
ENDTAB
0
TABLE
2
UCS
5
7
330
0
100
AcDbSymbolTable
70
0
0
ENDTAB
0
TABLE
2
APPID
5
9
330
0
100
AcDbSymbolTable
70
1
0
APPID
5
12
330
9
100
AcDbSymbolTableRecord
100
AcDbRegAppTableRecord
2
ACAD
70
0
0
ENDTAB
0
TABLE
2
DIMSTYLE
5
A
330
0
100
AcDbSymbolTable
70
1
100
AcDbDimStyleTable
71
1
0
DIMSTYLE
105
46
330
A
100
AcDbSymbolTableRecord
100
AcDbDimStyleTableRecord
2
Standard
70
0
40
1
41
2.5
42
0.625
43
0.38
44
1.25
45
0
46
0
47
0
48
0
140
2.5
141
0.09
142
0
143
25.4
144
1
145
0
146
1
147
0.625
148
0
71
0
72
0
73
0
74
1
75
0
76
0
77
0
78
0
79
0
170
0
171
2
172
0
173
0
174
0
175
0
176
0
177
0
178
0
179
0
271
4
272
4
273
2
274
2
275
0
276
0
277
2
278
46
279
0
280
0
281
0
282
0
283
1
284
0
285
0
286
0
288
0
289
3
340
Standard
341

371
-2
372
-2
0
ENDTAB
0
TABLE
2
BLOCK_RECORD
5
1
330
0
100
AcDbSymbolTable
70
2
0
BLOCK_RECORD
5
1F
330
1
100
AcDbSymbolTableRecord
100
AcDbBlockTableRecord
2
*Model_Space
70
0
280
1
281
0
0
BLOCK_RECORD
5
1E
330
1
100
AcDbSymbolTableRecord
100
AcDbBlockTableRecord
2
*Paper_Space
70
0
280
1
281
0
0
ENDTAB
0
ENDSEC
0
SECTION
2
BLOCKS
0
BLOCK
5
20
330
1F
100
AcDbEntity
8
0
100
AcDbBlockBegin
2
*Model_Space
70
0
10
0
20
0
30
0
3
*Model_Space
1

0
ENDBLK
5
21
330
1F
100
AcDbEntity
8
0
100
AcDbBlockEnd
0
BLOCK
5
1C
330
1B
100
AcDbEntity
8
0
100
AcDbBlockBegin
2
*Paper_Space
70
0
10
0
20
0
30
0
3
*Paper_Space
1

0
ENDBLK
5
1D
330
1F
100
AcDbEntity
8
0
100
AcDbBlockEnd
0
ENDSEC
0
SECTION
2
ENTITIES
0
SPLINE
5
47
100
AcDbEntity
8
0
6
ByLayer
62
7
370
-1
100
AcDbSpline
210
0
220
0
230
1
70
8
71
3
72
8
73
4
74
0
42
1e-07
43
1e-07
40
0
40
0
40
0
40
0
40
1
40
1
40
1
40
1
10
34.288928
20
6.65397
30
0
10
35.976379
20
7.266599
30
0
10
39.865754
20
8.889543
30
0
10
42.931983
20
10.260516
30
0
0
SPLINE
5
48
100
AcDbEntity
8
0
6
ByLayer
62
7
370
-1
100
AcDbSpline
210
0
220
0
230
1
70
8
71
3
72
8
73
4
74
0
42
1e-07
43
1e-07
40
0
40
0
40
0
40
0
40
1
40
1
40
1
40
1
10
42.931983
20
10.260516
30
0
10
52.033763
20
14.330116
30
0
10
52.737035
20
14.565291
30
0
10
55.915278
20
14.602124
30
0
0
SPLINE
5
49
100
AcDbEntity
8
0
6
ByLayer
62
7
370
-1
100
AcDbSpline
210
0
220
0
230
1
70
8
71
3
72
8
73
4
74
0
42
1e-07
43
1e-07
40
0
40
0
40
0
40
0
40
1
40
1
40
1
40
1
10
55.915278
20
14.602124
30
0
10
59.03871
20
14.638328
30
0
10
61.375663
20
13.983414
30
0
10
66.456608
20
11.647988
30
0
0
SPLINE
5
4A
100
AcDbEntity
8
0
6
ByLayer
62
7
370
-1
100
AcDbSpline
210
0
220
0
230
1
70
8
71
3
72
8
73
4
74
0
42
1e-07
43
1e-07
40
0
40
0
40
0
40
0
40
1
40
1
40
1
40
1
10
66.456608
20
11.647988
30
0
10
70.969381
20
9.573726
30
0
10
74.704423
20
8.934275
30
0
10
78.69728
20
9.552345
30
0
0
SPLINE
5
4B
100
AcDbEntity
8
0
6
ByLayer
62
7
370
-1
100
AcDbSpline
210
0
220
0
230
1
70
8
71
3
72
8
73
4
74
0
42
1e-07
43
1e-07
40
0
40
0
40
0
40
0
40
1
40
1
40
1
40
1
10
78.69728
20
9.552345
30
0
10
82.907206
20
10.204015
30
0
10
86.430556
20
12.28103
30
0
10
86.430556
20
14.111111
30
0
0
SPLINE
5
4C
100
AcDbEntity
8
0
6
ByLayer
62
7
370
-1
100
AcDbSpline
210
0
220
0
230
1
70
8
71
3
72
8
73
4
74
0
42
1e-07
43
1e-07
40
0
40
0
40
0
40
0
40
1
40
1
40
1
40
1
10
86.430556
20
14.111111
30
0
10
86.430556
20
15.54062
30
0
10
85.138218
20
16.430842
30
0
10
81.883002
20
17.243673
30
0
0
SPLINE
5
4D
100
AcDbEntity
8
0
6
ByLayer
62
7
370
-1
100
AcDbSpline
210
0
220
0
230
1
70
8
71
3
72
8
73
4
74
0
42
1e-07
43
1e-07
40
0
40
0
40
0
40
0
40
1
40
1
40
1
40
1
10
81.883002
20
17.243673
30
0
10
78.144695
20
18.177132
30
0
10
76.209607
20
19.308837
30
0
10
74.855033
20
21.353865
30
0
0
SPLINE
5
4E
100
AcDbEntity
8
0
6
ByLayer
62
7
370
-1
100
AcDbSpline
210
0
220
0
230
1
70
8
71
3
72
8
73
4
74
0
42
1e-07
43
1e-07
40
0
40
0
40
0
40
0
40
1
40
1
40
1
40
1
10
74.855033
20
21.353865
30
0
10
72.248564
20
25.28892
30
0
10
73.445847
20
30.922716
30
0
10
77.1213
20
32.017741
30
0
0
SPLINE
5
4F
100
AcDbEntity
8
0
6
ByLayer
62
7
370
-1
100
AcDbSpline
210
0
220
0
230
1
70
8
71
3
72
8
73
4
74
0
42
1e-07
43
1e-07
40
0
40
0
40
0
40
0
40
1
40
1
40
1
40
1
10
77.1213
20
32.017741
30
0
10
78.340314
20
32.380919
30
0
10
102.805097
20
32.832223
30
0
10
142.522222
20
33.224199
30
0
0
SPLINE
5
50
100
AcDbEntity
8
0
6
ByLayer
62
7
370
-1
100
AcDbSpline
210
0
220
0
230
1
70
8
71
3
72
8
73
4
74
0
42
1e-07
43
1e-07
40
0
40
0
40
0
40
0
40
1
40
1
40
1
40
1
10
165.188194
20
33.534869
30
0
10
175.358004
20
33.596648
30
0
10
175.309265
20
33.60479
30
0
10
178.839422
20
31.254147
30
0
0
SPLINE
5
51
100
AcDbEntity
8
0
6
ByLayer
62
7
370
-1
100
AcDbSpline
210
0
220
0
230
1
70
8
71
3
72
8
73
4
74
0
42
1e-07
43
1e-07
40
0
40
0
40
0
40
0
40
1
40
1
40
1
40
1
10
178.839422
20
31.254147
30
0
10
180.601818
20
30.080608
30
0
10
180.966578
20
30.049876
30
0
10
186.443056
20
30.613542
30
0
0
SPLINE
5
52
100
AcDbEntity
8
0
6
ByLayer
62
7
370
-1
100
AcDbSpline
210
0
220
0
230
1
70
8
71
3
72
8
73
4
74
0
42
1e-07
43
1e-07
40
0
40
0
40
0
40
0
40
1
40
1
40
1
40
1
10
186.443056
20
30.613542
30
0
10
190.630773
20
31.04456
30
0
10
197.402687
20
31.241407
30
0
10
198.261111
20
30.957071
30
0
0
SPLINE
5
53
100
AcDbEntity
8
0
6
ByLayer
62
7
370
-1
100
AcDbSpline
210
0
220
0
230
1
70
8
71
3
72
8
73
4
74
0
42
1e-07
43
1e-07
40
0
40
0
40
0
40
0
40
1
40
1
40
1
40
1
10
198.261111
20
30.957071
30
0
10
198.552153
20
30.86067
30
0
10
201.048129
20
30.51707
30
0
10
203.807723
20
30.193519
30
0
0
SPLINE
5
54
100
AcDbEntity
8
0
6
ByLayer
62
7
370
-1
100
AcDbSpline
210
0
220
0
230
1
70
8
71
3
72
8
73
4
74
0
42
1e-07
43
1e-07
40
0
40
0
40
0
40
0
40
1
40
1
40
1
40
1
10
203.807723
20
30.193519
30
0
10
208.291486
20
29.667821
30
0
10
208.934219
20
29.66164
30
0
10
209.850389
20
30.135409
30
0
0
SPLINE
5
55
100
AcDbEntity
8
0
6
ByLayer
62
7
370
-1
100
AcDbSpline
210
0
220
0
230
1
70
8
71
3
72
8
73
4
74
0
42
1e-07
43
1e-07
40
0
40
0
40
0
40
0
40
1
40
1
40
1
40
1
10
209.850389
20
30.135409
30
0
10
211.199352
20
30.832987
30
0
10
211.490972
20
31.675691
30
0
10
210.702779
20
32.598594
30
0
0
SPLINE
5
56
100
AcDbEntity
8
0
6
ByLayer
62
7
370
-1
100
AcDbSpline
210
0
220
0
230
1
70
8
71
3
72
8
73
4
74
0
42
1e-07
43
1e-07
40
0
40
0
40
0
40
0
40
1
40
1
40
1
40
1
10
210.702779
20
32.598594
30
0
10
210.355699
20
33.004994
30
0
10
209.760002
20
33.952471
30
0
10
209.379007
20
34.704099
30
0
0
SPLINE
5
57
100
AcDbEntity
8
0
6
ByLayer
62
7
370
-1
100
AcDbSpline
210
0
220
0
230
1
70
8
71
3
72
8
73
4
74
0
42
1e-07
43
1e-07
40
0
40
0
40
0
40
0
40
1
40
1
40
1
40
1
10
209.379007
20
34.704099
30
0
10
208.998016
20
35.455722
30
0
10
208.325003
20
36.30742
30
0
10
207.883424
20
36.596755
30
0
0
SPLINE
5
58
100
AcDbEntity
8
0
6
ByLayer
62
7
370
-1
100
AcDbSpline
210
0
220
0
230
1
70
8
71
3
72
8
73
4
74
0
42
1e-07
43
1e-07
40
0
40
0
40
0
40
0
40
1
40
1
40
1
40
1
10
207.883424
20
36.596755
30
0
10
206.97788
20
37.19009
30
0
10
206.797614
20
38.452778
30
0
10
207.618454
20
38.452778
30
0
0
SPLINE
5
59
100
AcDbEntity
8
0
6
ByLayer
62
7
370
-1
100
AcDbSpline
210
0
220
0
230
1
70
8
71
3
72
8
73
4
74
0
42
1e-07
43
1e-07
40
0
40
0
40
0
40
0
40
1
40
1
40
1
40
1
10
207.618454
20
38.452778
30
0
10
208.056587
20
38.452778
30
0
10
208.844444
20
39.725984
30
0
10
208.844444
20
40.434023
30
0
0
SPLINE
5
5A
100
AcDbEntity
8
0
6
ByLayer
62
7
370
-1
100
AcDbSpline
210
0
220
0
230
1
70
8
71
3
72
8
73
4
74
0
42
1e-07
43
1e-07
40
0
40
0
40
0
40
0
40
1
40
1
40
1
40
1
10
208.844444
20
40.434023
30
0
10
208.844444
20
40.816242
30
0
10
206.278596
20
41.644725
30
0
10
205.681639
20
41.455258
30
0
0
SPLINE
5
5B
100
AcDbEntity
8
0
6
ByLayer
62
7
370
-1
100
AcDbSpline
210
0
220
0
230
1
70
8
71
3
72
8
73
4
74
0
42
1e-07
43
1e-07
40
0
40
0
40
0
40
0
40
1
40
1
40
1
40
1
10
205.681639
20
41.455258
30
0
10
204.935909
20
41.218572
30
0
10
204.477225
20
39.856664
30
0
10
204.975443
20
39.358446
30
0
0
SPLINE
5
5C
100
AcDbEntity
8
0
6
ByLayer
62
7
370
-1
100
AcDbSpline
210
0
220
0
230
1
70
8
71
3
72
8
73
4
74
0
42
1e-07
43
1e-07
40
0
40
0
40
0
40
0
40
1
40
1
40
1
40
1
10
204.975443
20
39.358446
30
0
10
205.592776
20
38.741113
30
0
10
205.332005
20
38.1
30
0
10
204.463577
20
38.1
30
0
0
SPLINE
5
5D
100
AcDbEntity
8
0
6
ByLayer
62
7
370
-1
100
AcDbSpline
210
0
220
0
230
1
70
8
71
3
72
8
73
4
74
0
42
1e-07
43
1e-07
40
0
40
0
40
0
40
0
40
1
40
1
40
1
40
1
10
204.463577
20
38.1
30
0
10
202.54483
20
38.1
30
0
10
201.813005
20
39.121591
30
0
10
203.2
20
39.863889
30
0
0
SPLINE
5
5E
100
AcDbEntity
8
0
6
ByLayer
62
7
370
-1
100
AcDbSpline
210
0
220
0
230
1
70
8
71
3
72
8
73
4
74
0
42
1e-07
43
1e-07
40
0
40
0
40
0
40
0
40
1
40
1
40
1
40
1
10
203.2
20
39.863889
30
0
10
203.939741
20
40.259787
30
0
10
204.172668
20
41.773831
30
0
10
203.552778
20
42.156944
30
0
0
SPLINE
5
5F
100
AcDbEntity
8
0
6
ByLayer
62
7
370
-1
100
AcDbSpline
210
0
220
0
230
1
70
8
71
3
72
8
73
4
74
0
42
1e-07
43
1e-07
40
0
40
0
40
0
40
0
40
1
40
1
40
1
40
1
10
203.552778
20
42.156944
30
0
10
203.354229
20
42.279655
30
0
10
203.2
20
41.9968
30
0
10
203.2
20
41.509953
30
0
0
SPLINE
5
60
100
AcDbEntity
8
0
6
ByLayer
62
7
370
-1
100
AcDbSpline
210
0
220
0
230
1
70
8
71
3
72
8
73
4
74
0
42
1e-07
43
1e-07
40
0
40
0
40
0
40
0
40
1
40
1
40
1
40
1
10
203.2
20
41.509953
30
0
10
203.2
20
40.715794
30
0
10
202.629505
20
40.216667
30
0
10
201.721791
20
40.216667
30
0
0
SPLINE
5
61
100
AcDbEntity
8
0
6
ByLayer
62
7
370
-1
100
AcDbSpline
210
0
220
0
230
1
70
8
71
3
72
8
73
4
74
0
42
1e-07
43
1e-07
40
0
40
0
40
0
40
0
40
1
40
1
40
1
40
1
10
201.721791
20
40.216667
30
0
10
201.380728
20
40.216667
30
0
10
201.498101
20
41.165072
30
0
10
202.001515
20
42.476948
30
0
0
SPLINE
5
62
100
AcDbEntity
8
0
6
ByLayer
62
7
370
-1
100
AcDbSpline
210
0
220
0
230
1
70
8
71
3
72
8
73
4
74
0
42
1e-07
43
1e-07
40
0
40
0
40
0
40
0
40
1
40
1
40
1
40
1
10
202.001515
20
42.476948
30
0
10
202.155524
20
42.878288
30
0
10
202.010659
20
43.038889
30
0
10
201.494675
20
43.038889
30
0
0
SPLINE
5
63
100
AcDbEntity
8
0
6
ByLayer
62
7
370
-1
100
AcDbSpline
210
0
220
0
230
1
70
8
71
3
72
8
73
4
74
0
42
1e-07
43
1e-07
40
0
40
0
40
0
40
0
40
1
40
1
40
1
40
1
10
201.494675
20
43.038889
30
0
10
201.097312
20
43.038889
30
0
10
200.674083
20
42.880139
30
0
10
200.554167
20
42.686111
30
0
0
SPLINE
5
64
100
AcDbEntity
8
0
6
ByLayer
62
7
370
-1
100
AcDbSpline
210
0
220
0
230
1
70
8
71
3
72
8
73
4
74
0
42
1e-07
43
1e-07
40
0
40
0
40
0
40
0
40
1
40
1
40
1
40
1
10
200.554167
20
42.686111
30
0
10
200.171098
20
42.066292
30
0
10
199.409674
20
42.307205
30
0
10
199.160457
20
43.127083
30
0
0
SPLINE
5
65
100
AcDbEntity
8
0
6
ByLayer
62
7
370
-1
100
AcDbSpline
210
0
220
0
230
1
70
8
71
3
72
8
73
4
74
0
42
1e-07
43
1e-07
40
0
40
0
40
0
40
0
40
1
40
1
40
1
40
1
10
199.160457
20
43.127083
30
0
10
198.907267
20
43.960028
30
0
10
198.813849
20
43.840821
30
0
10
198.458015
20
42.230712
30
0
0
SPLINE
5
66
100
AcDbEntity
8
0
6
ByLayer
62
7
370
-1
100
AcDbSpline
210
0
220
0
230
1
70
8
71
3
72
8
73
4
74
0
42
1e-07
43
1e-07
40
0
40
0
40
0
40
0
40
1
40
1
40
1
40
1
10
198.458015
20
42.230712
30
0
10
198.32386
20
41.623666
30
0
10
198.088222
20
41.34021
30
0
10
197.843481
20
41.491467
30
0
0
SPLINE
5
67
100
AcDbEntity
8
0
6
ByLayer
62
7
370
-1
100
AcDbSpline
210
0
220
0
230
1
70
8
71
3
72
8
73
4
74
0
42
1e-07
43
1e-07
40
0
40
0
40
0
40
0
40
1
40
1
40
1
40
1
10
197.843481
20
41.491467
30
0
10
197.601239
20
41.641183
30
0
10
197.544639
20
41.578062
30
0
10
197.698258
20
41.329508
30
0
0
SPLINE
5
68
100
AcDbEntity
8
0
6
ByLayer
62
7
370
-1
100
AcDbSpline
210
0
220
0
230
1
70
8
71
3
72
8
73
4
74
0
42
1e-07
43
1e-07
40
0
40
0
40
0
40
0
40
1
40
1
40
1
40
1
10
197.698258
20
41.329508
30
0
10
197.836703
20
41.1055
30
0
10
197.759743
20
40.922222
30
0
10
197.527237
20
40.922222
30
0
0
SPLINE
5
69
100
AcDbEntity
8
0
6
ByLayer
62
7
370
-1
100
AcDbSpline
210
0
220
0
230
1
70
8
71
3
72
8
73
4
74
0
42
1e-07
43
1e-07
40
0
40
0
40
0
40
0
40
1
40
1
40
1
40
1
10
197.527237
20
40.922222
30
0
10
197.227286
20
40.922222
30
0
10
197.16518
20
41.434543
30
0
10
197.313406
20
42.686111
30
0
0
SPLINE
5
6A
100
AcDbEntity
8
0
6
ByLayer
62
7
370
-1
100
AcDbSpline
210
0
220
0
230
1
70
8
71
3
72
8
73
4
74
0
42
1e-07
43
1e-07
40
0
40
0
40
0
40
0
40
1
40
1
40
1
40
1
10
197.313406
20
42.686111
30
0
10
197.514041
20
44.38015
30
0
10
197.488048
20
44.45
30
0
10
196.656991
20
44.45
30
0
0
SPLINE
5
6B
100
AcDbEntity
8
0
6
ByLayer
62
7
370
-1
100
AcDbSpline
210
0
220
0
230
1
70
8
71
3
72
8
73
4
74
0
42
1e-07
43
1e-07
40
0
40
0
40
0
40
0
40
1
40
1
40
1
40
1
10
196.656991
20
44.45
30
0
10
196.181063
20
44.45
30
0
10
195.791667
20
44.29125
30
0
10
195.791667
20
44.097222
30
0
0
SPLINE
5
6C
100
AcDbEntity
8
0
6
ByLayer
62
7
370
-1
100
AcDbSpline
210
0
220
0
230
1
70
8
71
3
72
8
73
4
74
0
42
1e-07
43
1e-07
40
0
40
0
40
0
40
0
40
1
40
1
40
1
40
1
10
195.791667
20
44.097222
30
0
10
195.791667
20
43.903194
30
0
10
195.553542
20
43.744444
30
0
10
195.2625
20
43.744444
30
0
0
SPLINE
5
6D
100
AcDbEntity
8
0
6
ByLayer
62
7
370
-1
100
AcDbSpline
210
0
220
0
230
1
70
8
71
3
72
8
73
4
74
0
42
1e-07
43
1e-07
40
0
40
0
40
0
40
0
40
1
40
1
40
1
40
1
10
195.2625
20
43.744444
30
0
10
194.971458
20
43.744444
30
0
10
194.733333
20
43.9732
30
0
10
194.733333
20
44.252792
30
0
0
SPLINE
5
6E
100
AcDbEntity
8
0
6
ByLayer
62
7
370
-1
100
AcDbSpline
210
0
220
0
230
1
70
8
71
3
72
8
73
4
74
0
42
1e-07
43
1e-07
40
0
40
0
40
0
40
0
40
1
40
1
40
1
40
1
10
194.733333
20
44.252792
30
0
10
194.733333
20
44.532381
30
0
10
194.574583
20
44.85925
30
0
10
194.380556
20
44.979167
30
0
0
SPLINE
5
6F
100
AcDbEntity
8
0
6
ByLayer
62
7
370
-1
100
AcDbSpline
210
0
220
0
230
1
70
8
71
3
72
8
73
4
74
0
42
1e-07
43
1e-07
40
0
40
0
40
0
40
0
40
1
40
1
40
1
40
1
10
194.380556
20
44.979167
30
0
10
194.186528
20
45.099083
30
0
10
194.027778
20
44.855466
30
0
10
194.027778
20
44.437794
30
0
0
SPLINE
5
70
100
AcDbEntity
8
0
6
ByLayer
62
7
370
-1
100
AcDbSpline
210
0
220
0
230
1
70
8
71
3
72
8
73
4
74
0
42
1e-07
43
1e-07
40
0
40
0
40
0
40
0
40
1
40
1
40
1
40
1
10
194.027778
20
44.437794
30
0
10
194.027778
20
44.005994
30
0
10
194.299024
20
43.607457
30
0
10
194.656541
20
43.513965
30
0
0
SPLINE
5
71
100
AcDbEntity
8
0
6
ByLayer
62
7
370
-1
100
AcDbSpline
210
0
220
0
230
1
70
8
71
3
72
8
73
4
74
0
42
1e-07
43
1e-07
40
0
40
0
40
0
40
0
40
1
40
1
40
1
40
1
10
194.656541
20
43.513965
30
0
10
195.369603
20
43.327495
30
0
10
196.311881
20
41.478539
30
0
10
195.973152
20
40.930472
30
0
0
SPLINE
5
72
100
AcDbEntity
8
0
6
ByLayer
62
7
370
-1
100
AcDbSpline
210
0
220
0
230
1
70
8
71
3
72
8
73
4
74
0
42
1e-07
43
1e-07
40
0
40
0
40
0
40
0
40
1
40
1
40
1
40
1
10
195.973152
20
40.930472
30
0
10
195.299195
20
39.839985
30
0
10
192.730699
20
41.029492
30
0
10
193.057865
20
42.280578
30
0
0
SPLINE
5
73
100
AcDbEntity
8
0
6
ByLayer
62
7
370
-1
100
AcDbSpline
210
0
220
0
230
1
70
8
71
3
72
8
73
4
74
0
42
1e-07
43
1e-07
40
0
40
0
40
0
40
0
40
1
40
1
40
1
40
1
10
193.057865
20
42.280578
30
0
10
193.191347
20
42.791013
30
0
10
193.093989
20
43.038889
30
0
10
192.760027
20
43.038889
30
0
0
SPLINE
5
74
100
AcDbEntity
8
0
6
ByLayer
62
7
370
-1
100
AcDbSpline
210
0
220
0
230
1
70
8
71
3
72
8
73
4
74
0
42
1e-07
43
1e-07
40
0
40
0
40
0
40
0
40
1
40
1
40
1
40
1
10
192.760027
20
43.038889
30
0
10
192.209945
20
43.038889
30
0
10
192.175852
20
43.203608
30
0
10
192.48624
20
44.361806
30
0
0
SPLINE
5
75
100
AcDbEntity
8
0
6
ByLayer
62
7
370
-1
100
AcDbSpline
210
0
220
0
230
1
70
8
71
3
72
8
73
4
74
0
42
1e-07
43
1e-07
40
0
40
0
40
0
40
0
40
1
40
1
40
1
40
1
10
192.48624
20
44.361806
30
0
10
192.603233
20
44.798367
30
0
10
192.950318
20
45.155556
30
0
10
193.257534
20
45.155556
30
0
0
SPLINE
5
76
100
AcDbEntity
8
0
6
ByLayer
62
7
370
-1
100
AcDbSpline
210
0
220
0
230
1
70
8
71
3
72
8
73
4
74
0
42
1e-07
43
1e-07
40
0
40
0
40
0
40
0
40
1
40
1
40
1
40
1
10
193.257534
20
45.155556
30
0
10
193.656921
20
45.155556
30
0
10
193.707712
20
45.263954
30
0
10
193.435755
20
45.535912
30
0
0
SPLINE
5
77
100
AcDbEntity
8
0
6
ByLayer
62
7
370
-1
100
AcDbSpline
210
0
220
0
230
1
70
8
71
3
72
8
73
4
74
0
42
1e-07
43
1e-07
40
0
40
0
40
0
40
0
40
1
40
1
40
1
40
1
10
193.435755
20
45.535912
30
0
10
193.226557
20
45.745109
30
0
10
192.599493
20
45.86417
30
0
10
192.04228
20
45.800495
30
0
0
SPLINE
5
78
100
AcDbEntity
8
0
6
ByLayer
62
7
370
-1
100
AcDbSpline
210
0
220
0
230
1
70
8
71
3
72
8
73
4
74
0
42
1e-07
43
1e-07
40
0
40
0
40
0
40
0
40
1
40
1
40
1
40
1
10
192.04228
20
45.800495
30
0
10
191.055241
20
45.687702
30
0
10
191.031707
20
45.637055
30
0
10
191.127919
20
43.832639
30
0
0
SPLINE
5
79
100
AcDbEntity
8
0
6
ByLayer
62
7
370
-1
100
AcDbSpline
210
0
220
0
230
1
70
8
71
3
72
8
73
4
74
0
42
1e-07
43
1e-07
40
0
40
0
40
0
40
0
40
1
40
1
40
1
40
1
10
191.127919
20
43.832639
30
0
10
191.219861
20
42.108337
30
0
10
191.171184
20
41.981329
30
0
10
190.422363
20
41.991774
30
0
0
SPLINE
5
7A
100
AcDbEntity
8
0
6
ByLayer
62
7
370
-1
100
AcDbSpline
210
0
220
0
230
1
70
8
71
3
72
8
73
4
74
0
42
1e-07
43
1e-07
40
0
40
0
40
0
40
0
40
1
40
1
40
1
40
1
10
190.422363
20
41.991774
30
0
10
188.659787
20
42.016355
30
0
10
187.548856
20
44.14949
30
0
10
189.088889
20
44.552218
30
0
0
SPLINE
5
7B
100
AcDbEntity
8
0
6
ByLayer
62
7
370
-1
100
AcDbSpline
210
0
220
0
230
1
70
8
71
3
72
8
73
4
74
0
42
1e-07
43
1e-07
40
0
40
0
40
0
40
0
40
1
40
1
40
1
40
1
10
189.088889
20
44.552218
30
0
10
189.546546
20
44.671897
30
0
10
189.794444
20
45.033413
30
0
10
189.794444
20
45.581138
30
0
0
SPLINE
5
7C
100
AcDbEntity
8
0
6
ByLayer
62
7
370
-1
100
AcDbSpline
210
0
220
0
230
1
70
8
71
3
72
8
73
4
74
0
42
1e-07
43
1e-07
40
0
40
0
40
0
40
0
40
1
40
1
40
1
40
1
10
189.794444
20
45.581138
30
0
10
189.794444
20
46.736099
30
0
10
189.162509
20
47.272222
30
0
10
187.80114
20
47.272222
30
0
0
SPLINE
5
7D
100
AcDbEntity
8
0
6
ByLayer
62
7
370
-1
100
AcDbSpline
210
0
220
0
230
1
70
8
71
3
72
8
73
4
74
0
42
1e-07
43
1e-07
40
0
40
0
40
0
40
0
40
1
40
1
40
1
40
1
10
187.80114
20
47.272222
30
0
10
186.374972
20
47.272222
30
0
10
185.867119
20
46.500167
30
0
10
186.387102
20
45.122569
30
0
0
SPLINE
5
7E
100
AcDbEntity
8
0
6
ByLayer
62
7
370
-1
100
AcDbSpline
210
0
220
0
230
1
70
8
71
3
72
8
73
4
74
0
42
1e-07
43
1e-07
40
0
40
0
40
0
40
0
40
1
40
1
40
1
40
1
10
186.387102
20
45.122569
30
0
10
186.86776
20
43.849163
30
0
10
186.599875
20
43.603412
30
0
10
185.048395
20
43.894471
30
0
0
SPLINE
5
7F
100
AcDbEntity
8
0
6
ByLayer
62
7
370
-1
100
AcDbSpline
210
0
220
0
230
1
70
8
71
3
72
8
73
4
74
0
42
1e-07
43
1e-07
40
0
40
0
40
0
40
0
40
1
40
1
40
1
40
1
10
185.048395
20
43.894471
30
0
10
184.030295
20
44.085468
30
0
10
183.797222
20
44.286077
30
0
10
183.797222
20
44.97138
30
0
0
SPLINE
5
80
100
AcDbEntity
8
0
6
ByLayer
62
7
370
-1
100
AcDbSpline
210
0
220
0
230
1
70
8
71
3
72
8
73
4
74
0
42
1e-07
43
1e-07
40
0
40
0
40
0
40
0
40
1
40
1
40
1
40
1
10
183.797222
20
44.97138
30
0
10
183.797222
20
45.503736
30
0
10
184.056788
20
45.895949
30
0
10
184.502778
20
46.0375
30
0
0
SPLINE
5
81
100
AcDbEntity
8
0
6
ByLayer
62
7
370
-1
100
AcDbSpline
210
0
220
0
230
1
70
8
71
3
72
8
73
4
74
0
42
1e-07
43
1e-07
40
0
40
0
40
0
40
0
40
1
40
1
40
1
40
1
10
184.502778
20
46.0375
30
0
10
185.315132
20
46.295333
30
0
10
185.46377
20
47.679393
30
0
10
184.743316
20
48.277317
30
0
0
SPLINE
5
82
100
AcDbEntity
8
0
6
ByLayer
62
7
370
-1
100
AcDbSpline
210
0
220
0
230
1
70
8
71
3
72
8
73
4
74
0
42
1e-07
43
1e-07
40
0
40
0
40
0
40
0
40
1
40
1
40
1
40
1
10
184.743316
20
48.277317
30
0
10
184.487555
20
48.489579
30
0
10
183.755755
20
48.707455
30
0
10
183.117095
20
48.761486
30
0
0
SPLINE
5
83
100
AcDbEntity
8
0
6
ByLayer
62
7
370
-1
100
AcDbSpline
210
0
220
0
230
1
70
8
71
3
72
8
73
4
74
0
42
1e-07
43
1e-07
40
0
40
0
40
0
40
0
40
1
40
1
40
1
40
1
10
183.117095
20
48.761486
30
0
10
181.657199
20
48.884992
30
0
10
180.923706
20
48.000257
30
0
10
181.594932
20
46.92545
30
0
0
SPLINE
5
84
100
AcDbEntity
8
0
6
ByLayer
62
7
370
-1
100
AcDbSpline
210
0
220
0
230
1
70
8
71
3
72
8
73
4
74
0
42
1e-07
43
1e-07
40
0
40
0
40
0
40
0
40
1
40
1
40
1
40
1
10
181.594932
20
46.92545
30
0
10
182.345736
20
45.723226
30
0
10
182.142977
20
45.409242
30
0
10
180.780834
20
45.664783
30
0
0
SPLINE
5
85
100
AcDbEntity
8
0
6
ByLayer
62
7
370
-1
100
AcDbSpline
210
0
220
0
230
1
70
8
71
3
72
8
73
4
74
0
42
1e-07
43
1e-07
40
0
40
0
40
0
40
0
40
1
40
1
40
1
40
1
10
180.780834
20
45.664783
30
0
10
179.749834
20
45.858199
30
0
10
179.210518
20
45.704198
30
0
10
177.731214
20
44.793972
30
0
0
SPLINE
5
86
100
AcDbEntity
8
0
6
ByLayer
62
7
370
-1
100
AcDbSpline
210
0
220
0
230
1
70
8
71
3
72
8
73
4
74
0
42
1e-07
43
1e-07
40
0
40
0
40
0
40
0
40
1
40
1
40
1
40
1
10
177.731214
20
44.793972
30
0
10
176.742798
20
44.185795
30
0
10
175.520483
20
43.529137
30
0
10
175.014963
20
43.334734
30
0
0
SPLINE
5
87
100
AcDbEntity
8
0
6
ByLayer
62
7
370
-1
100
AcDbSpline
210
0
220
0
230
1
70
8
71
3
72
8
73
4
74
0
42
1e-07
43
1e-07
40
0
40
0
40
0
40
0
40
1
40
1
40
1
40
1
10
175.014963
20
43.334734
30
0
10
174.505358
20
43.138762
30
0
10
170.873595
20
42.985557
30
0
10
166.863889
20
42.990886
30
0
0
SPLINE
5
88
100
AcDbEntity
8
0
6
ByLayer
62
7
370
-1
100
AcDbSpline
210
0
220
0
230
1
70
8
71
3
72
8
73
4
74
0
42
1e-07
43
1e-07
40
0
40
0
40
0
40
0
40
1
40
1
40
1
40
1
10
131.497917
20
43.501265
30
0
10
131.837464
20
43.589998
30
0
10
129.178403
20
43.681249
30
0
10
125.588889
20
43.704042
30
0
0
SPLINE
5
89
100
AcDbEntity
8
0
6
ByLayer
62
7
370
-1
100
AcDbSpline
210
0
220
0
230
1
70
8
71
3
72
8
73
4
74
0
42
1e-07
43
1e-07
40
0
40
0
40
0
40
0
40
1
40
1
40
1
40
1
10
125.588889
20
43.704042
30
0
10
121.999375
20
43.726845
30
0
10
113.228436
20
43.850379
30
0
10
106.097917
20
43.978582
30
0
0
SPLINE
5
8A
100
AcDbEntity
8
0
6
ByLayer
62
7
370
-1
100
AcDbSpline
210
0
220
0
230
1
70
8
71
3
72
8
73
4
74
0
42
1e-07
43
1e-07
40
0
40
0
40
0
40
0
40
1
40
1
40
1
40
1
10
88.616426
20
44.45
30
0
10
86.366251
20
44.45
30
0
10
86.148333
20
44.521684
30
0
10
85.130979
20
45.596528
30
0
0
SPLINE
5
8B
100
AcDbEntity
8
0
6
ByLayer
62
7
370
-1
100
AcDbSpline
210
0
220
0
230
1
70
8
71
3
72
8
73
4
74
0
42
1e-07
43
1e-07
40
0
40
0
40
0
40
0
40
1
40
1
40
1
40
1
10
85.130979
20
45.596528
30
0
10
83.621428
20
47.19138
30
0
10
83.255556
20
48.03335
30
0
10
83.255556
20
49.912382
30
0
0
SPLINE
5
8C
100
AcDbEntity
8
0
6
ByLayer
62
7
370
-1
100
AcDbSpline
210
0
220
0
230
1
70
8
71
3
72
8
73
4
74
0
42
1e-07
43
1e-07
40
0
40
0
40
0
40
0
40
1
40
1
40
1
40
1
10
83.255556
20
49.912382
30
0
10
83.255556
20
51.882191
30
0
10
83.822461
20
53.039436
30
0
10
85.607728
20
54.713958
30
0
0
SPLINE
5
8D
100
AcDbEntity
8
0
6
ByLayer
62
7
370
-1
100
AcDbSpline
210
0
220
0
230
1
70
8
71
3
72
8
73
4
74
0
42
1e-07
43
1e-07
40
0
40
0
40
0
40
0
40
1
40
1
40
1
40
1
10
85.607728
20
54.713958
30
0
10
87.354836
20
56.352686
30
0
10
89.03854
20
57.333366
30
0
10
91.016667
20
57.864413
30
0
0
SPLINE
5
8E
100
AcDbEntity
8
0
6
ByLayer
62
7
370
-1
100
AcDbSpline
210
0
220
0
230
1
70
8
71
3
72
8
73
4
74
0
42
1e-07
43
1e-07
40
0
40
0
40
0
40
0
40
1
40
1
40
1
40
1
10
91.016667
20
57.864413
30
0
10
92.846189
20
58.355568
30
0
10
99.385848
20
59.326585
30
0
10
101.331652
20
59.395998
30
0
0
SPLINE
5
8F
100
AcDbEntity
8
0
6
ByLayer
62
7
370
-1
100
AcDbSpline
210
0
220
0
230
1
70
8
71
3
72
8
73
4
74
0
42
1e-07
43
1e-07
40
0
40
0
40
0
40
0
40
1
40
1
40
1
40
1
10
101.331652
20
59.395998
30
0
10
102.451241
20
59.435937
30
0
10
102.704736
20
59.597781
30
0
10
103.007346
20
60.465837
30
0
0
SPLINE
5
90
100
AcDbEntity
8
0
6
ByLayer
62
7
370
-1
100
AcDbSpline
210
0
220
0
230
1
70
8
71
3
72
8
73
4
74
0
42
1e-07
43
1e-07
40
0
40
0
40
0
40
0
40
1
40
1
40
1
40
1
10
103.007346
20
60.465837
30
0
10
103.477466
20
61.814426
30
0
10
103.457558
20
62.088889
30
0
10
102.889612
20
62.088889
30
0
0
SPLINE
5
91
100
AcDbEntity
8
0
6
ByLayer
62
7
370
-1
100
AcDbSpline
210
0
220
0
230
1
70
8
71
3
72
8
73
4
74
0
42
1e-07
43
1e-07
40
0
40
0
40
0
40
0
40
1
40
1
40
1
40
1
10
102.889612
20
62.088889
30
0
10
102.628756
20
62.088889
30
0
10
101.486761
20
62.901459
30
0
10
100.351844
20
63.894601
30
0
0
SPLINE
5
92
100
AcDbEntity
8
0
6
ByLayer
62
7
370
-1
100
AcDbSpline
210
0
220
0
230
1
70
8
71
3
72
8
73
4
74
0
42
1e-07
43
1e-07
40
0
40
0
40
0
40
0
40
1
40
1
40
1
40
1
10
100.351844
20
63.894601
30
0
10
99.216927
20
64.887743
30
0
10
97.565038
20
66.018489
30
0
10
96.680982
20
66.40737
30
0
0
SPLINE
5
93
100
AcDbEntity
8
0
6
ByLayer
62
7
370
-1
100
AcDbSpline
210
0
220
0
230
1
70
8
71
3
72
8
73
4
74
0
42
1e-07
43
1e-07
40
0
40
0
40
0
40
0
40
1
40
1
40
1
40
1
10
96.680982
20
66.40737
30
0
10
94.645999
20
67.302528
30
0
10
90.749112
20
67.585195
30
0
10
87.619795
20
67.064638
30
0
0
SPLINE
5
94
100
AcDbEntity
8
0
6
ByLayer
62
7
370
-1
100
AcDbSpline
210
0
220
0
230
1
70
8
71
3
72
8
73
4
74
0
42
1e-07
43
1e-07
40
0
40
0
40
0
40
0
40
1
40
1
40
1
40
1
10
87.619795
20
67.064638
30
0
10
84.613318
20
66.564516
30
0
10
73.699026
20
63.130869
30
0
10
73.929649
20
62.757707
30
0
0
SPLINE
5
95
100
AcDbEntity
8
0
6
ByLayer
62
7
370
-1
100
AcDbSpline
210
0
220
0
230
1
70
8
71
3
72
8
73
4
74
0
42
1e-07
43
1e-07
40
0
40
0
40
0
40
0
40
1
40
1
40
1
40
1
10
73.929649
20
62.757707
30
0
10
74.022562
20
62.60737
30
0
10
73.817339
20
62.499734
30
0
10
73.473595
20
62.518516
30
0
0
SPLINE
5
96
100
AcDbEntity
8
0
6
ByLayer
62
7
370
-1
100
AcDbSpline
210
0
220
0
230
1
70
8
71
3
72
8
73
4
74
0
42
1e-07
43
1e-07
40
0
40
0
40
0
40
0
40
1
40
1
40
1
40
1
10
73.473595
20
62.518516
30
0
10
73.129857
20
62.537298
30
0
10
71.737361
20
62.191716
30
0
10
70.379167
20
61.750557
30
0
0
SPLINE
5
97
100
AcDbEntity
8
0
6
ByLayer
62
7
370
-1
100
AcDbSpline
210
0
220
0
230
1
70
8
71
3
72
8
73
4
74
0
42
1e-07
43
1e-07
40
0
40
0
40
0
40
0
40
1
40
1
40
1
40
1
10
70.379167
20
61.750557
30
0
10
67.543753
20
60.829577
30
0
10
62.61341
20
60.643272
30
0
10
59.972222
20
61.357304
30
0
0
SPLINE
5
98
100
AcDbEntity
8
0
6
ByLayer
62
7
370
-1
100
AcDbSpline
210
0
220
0
230
1
70
8
71
3
72
8
73
4
74
0
42
1e-07
43
1e-07
40
0
40
0
40
0
40
0
40
1
40
1
40
1
40
1
10
59.972222
20
61.357304
30
0
10
59.099097
20
61.593349
30
0
10
55.209722
20
63.349238
30
0
10
51.329167
20
65.25928
30
0
0
SPLINE
5
99
100
AcDbEntity
8
0
6
ByLayer
62
7
370
-1
100
AcDbSpline
210
0
220
0
230
1
70
8
71
3
72
8
73
4
74
0
42
1e-07
43
1e-07
40
0
40
0
40
0
40
0
40
1
40
1
40
1
40
1
10
51.329167
20
65.25928
30
0
10
38.93535
20
71.359623
30
0
10
35.490782
20
72.414083
30
0
10
27.869444
20
72.440833
30
0
0
SPLINE
5
9A
100
AcDbEntity
8
0
6
ByLayer
62
7
370
-1
100
AcDbSpline
210
0
220
0
230
1
70
8
71
3
72
8
73
4
74
0
42
1e-07
43
1e-07
40
0
40
0
40
0
40
0
40
1
40
1
40
1
40
1
10
27.869444
20
72.440833
30
0
10
22.396135
20
72.460044
30
0
10
20.290394
20
71.920662
30
0
10
16.150163
20
69.438956
30
0
0
SPLINE
5
9B
100
AcDbEntity
8
0
6
ByLayer
62
7
370
-1
100
AcDbSpline
210
0
220
0
230
1
70
8
71
3
72
8
73
4
74
0
42
1e-07
43
1e-07
40
0
40
0
40
0
40
0
40
1
40
1
40
1
40
1
10
16.150163
20
69.438956
30
0
10
8.639389
20
64.936904
30
0
10
4.239913
20
55.35214
30
0
10
4.234752
20
43.479861
30
0
0
SPLINE
5
9C
100
AcDbEntity
8
0
6
ByLayer
62
7
370
-1
100
AcDbSpline
210
0
220
0
230
1
70
8
71
3
72
8
73
4
74
0
42
1e-07
43
1e-07
40
0
40
0
40
0
40
0
40
1
40
1
40
1
40
1
10
3.175
20
40.216667
30
0
10
2.234259
20
40.216667
30
0
10
2.116667
20
40.099076
30
0
10
2.116667
20
39.158333
30
0
0
SPLINE
5
9D
100
AcDbEntity
8
0
6
ByLayer
62
7
370
-1
100
AcDbSpline
210
0
220
0
230
1
70
8
71
3
72
8
73
4
74
0
42
1e-07
43
1e-07
40
0
40
0
40
0
40
0
40
1
40
1
40
1
40
1
10
2.116667
20
39.158333
30
0
10
2.116667
20
38.272449
30
0
10
2.256499
20
38.1
30
0
10
2.974838
20
38.1
30
0
0
SPLINE
5
9E
100
AcDbEntity
8
0
6
ByLayer
62
7
370
-1
100
AcDbSpline
210
0
220
0
230
1
70
8
71
3
72
8
73
4
74
0
42
1e-07
43
1e-07
40
0
40
0
40
0
40
0
40
1
40
1
40
1
40
1
10
2.974838
20
38.1
30
0
10
3.836798
20
38.1
30
0
10
4.499374
20
37.051979
30
0
10
4.073283
20
36.36255
30
0
0
SPLINE
5
9F
100
AcDbEntity
8
0
6
ByLayer
62
7
370
-1
100
AcDbSpline
210
0
220
0
230
1
70
8
71
3
72
8
73
4
74
0
42
1e-07
43
1e-07
40
0
40
0
40
0
40
0
40
1
40
1
40
1
40
1
10
4.073283
20
36.36255
30
0
10
3.741782
20
35.826167
30
0
10
4.513881
20
27.091578
30
0
10
5.133675
20
24.366547
30
0
0
SPLINE
5
A0
100
AcDbEntity
8
0
6
ByLayer
62
7
370
-1
100
AcDbSpline
210
0
220
0
230
1
70
8
71
3
72
8
73
4
74
0
42
1e-07
43
1e-07
40
0
40
0
40
0
40
0
40
1
40
1
40
1
40
1
10
5.133675
20
24.366547
30
0
10
5.475975
20
22.861572
30
0
10
5.846279
20
21.955323
30
0
10
6.06396
20
22.089858
30
0
0
SPLINE
5
A1
100
AcDbEntity
8
0
6
ByLayer
62
7
370
-1
100
AcDbSpline
210
0
220
0
230
1
70
8
71
3
72
8
73
4
74
0
42
1e-07
43
1e-07
40
0
40
0
40
0
40
0
40
1
40
1
40
1
40
1
10
6.06396
20
22.089858
30
0
10
6.289351
20
22.229157
30
0
10
6.340909
20
22.046554
30
0
10
6.200816
20
21.605158
30
0
0
SPLINE
5
A2
100
AcDbEntity
8
0
6
ByLayer
62
7
370
-1
100
AcDbSpline
210
0
220
0
230
1
70
8
71
3
72
8
73
4
74
0
42
1e-07
43
1e-07
40
0
40
0
40
0
40
0
40
1
40
1
40
1
40
1
10
6.200816
20
21.605158
30
0
10
5.884631
20
20.60895
30
0
10
7.16141
20
17.408968
30
0
10
8.919235
20
14.792015
30
0
0
SPLINE
5
A3
100
AcDbEntity
8
0
6
ByLayer
62
7
370
-1
100
AcDbSpline
210
0
220
0
230
1
70
8
71
3
72
8
73
4
74
0
42
1e-07
43
1e-07
40
0
40
0
40
0
40
0
40
1
40
1
40
1
40
1
10
8.919235
20
14.792015
30
0
10
9.737475
20
13.573862
30
0
10
10.588093
20
12.271759
30
0
10
10.809496
20
11.898452
30
0
0
SPLINE
5
A4
100
AcDbEntity
8
0
6
ByLayer
62
7
370
-1
100
AcDbSpline
210
0
220
0
230
1
70
8
71
3
72
8
73
4
74
0
42
1e-07
43
1e-07
40
0
40
0
40
0
40
0
40
1
40
1
40
1
40
1
10
10.809496
20
11.898452
30
0
10
11.0309
20
11.525148
30
0
10
11.9834
20
10.674759
30
0
10
12.926163
20
10.008703
30
0
0
SPLINE
5
A5
100
AcDbEntity
8
0
6
ByLayer
62
7
370
-1
100
AcDbSpline
210
0
220
0
230
1
70
8
71
3
72
8
73
4
74
0
42
1e-07
43
1e-07
40
0
40
0
40
0
40
0
40
1
40
1
40
1
40
1
10
12.926163
20
10.008703
30
0
10
13.868926
20
9.342645
30
0
10
14.839171
20
8.326334
30
0
10
15.082262
20
7.750234
30
0
0
SPLINE
5
A6
100
AcDbEntity
8
0
6
ByLayer
62
7
370
-1
100
AcDbSpline
210
0
220
0
230
1
70
8
71
3
72
8
73
4
74
0
42
1e-07
43
1e-07
40
0
40
0
40
0
40
0
40
1
40
1
40
1
40
1
10
15.082262
20
7.750234
30
0
10
15.544124
20
6.655666
30
0
10
15.6358
20
6.616677
30
0
10
17.638889
20
6.662914
30
0
0
SPLINE
5
A7
100
AcDbEntity
8
0
6
ByLayer
62
7
370
-1
100
AcDbSpline
210
0
220
0
230
1
70
8
71
3
72
8
73
4
74
0
42
1e-07
43
1e-07
40
0
40
0
40
0
40
0
40
1
40
1
40
1
40
1
10
17.638889
20
6.662914
30
0
10
18.317986
20
6.678577
30
0
10
19.429236
20
6.401901
30
0
10
20.108333
20
6.048053
30
0
0
SPLINE
5
A8
100
AcDbEntity
8
0
6
ByLayer
62
7
370
-1
100
AcDbSpline
210
0
220
0
230
1
70
8
71
3
72
8
73
4
74
0
42
1e-07
43
1e-07
40
0
40
0
40
0
40
0
40
1
40
1
40
1
40
1
10
20.108333
20
6.048053
30
0
10
21.153633
20
5.50339
30
0
10
22.100746
20
5.41508
30
0
10
26.281944
20
5.472399
30
0
0
SPLINE
5
A9
100
AcDbEntity
8
0
6
ByLayer
62
7
370
-1
100
AcDbSpline
210
0
220
0
230
1
70
8
71
3
72
8
73
4
74
0
42
1e-07
43
1e-07
40
0
40
0
40
0
40
0
40
1
40
1
40
1
40
1
10
26.281944
20
5.472399
30
0
10
30.850885
20
5.535038
30
0
10
31.45065
20
5.623543
30
0
10
34.288928
20
6.65397
30
0
0
LWPOLYLINE
5
AA
100
AcDbEntity
8
0
6
ByLayer
62
7
370
-1
100
AcDbPolyline
90
2
70
1
43
0
10
34.288928
20
6.65397
10
34.288928
20
6.65397
0
SPLINE
5
AB
100
AcDbEntity
8
0
6
ByLayer
62
7
370
-1
100
AcDbSpline
210
0
220
0
230
1
70
8
71
3
72
8
73
4
74
0
42
1e-07
43
1e-07
40
0
40
0
40
0
40
0
40
1
40
1
40
1
40
1
10
106.097917
20
43.978582
30
0
10
94.153217
20
44.193339
30
0
10
95.8654368946
20
44.2383536336
30
0
10
88.6220284175
20
44.4563965728
30
0
0
SPLINE
5
AC
100
AcDbEntity
8
0
6
ByLayer
62
7
370
-1
100
AcDbSpline
210
0
220
0
230
1
70
8
71
3
72
8
73
4
74
0
42
1e-07
43
1e-07
40
0
40
0
40
0
40
0
40
1
40
1
40
1
40
1
10
141.375694
20
43.390236
30
0
10
136.044195
20
43.391365
30
0
10
135.113889
20
43.313048
30
0
10
131.418005359
20
43.5668860562
30
0
0
SPLINE
5
AD
100
AcDbEntity
8
0
6
ByLayer
62
7
370
-1
100
AcDbSpline
210
0
220
0
230
1
70
8
71
3
72
8
73
4
74
0
42
1e-07
43
1e-07
40
0
40
0
40
0
40
0
40
1
40
1
40
1
40
1
10
166.826262698
20
42.9834436743
30
0
10
149.643996
20
43.286466
30
0
10
144.819686
20
43.389448
30
0
10
141.375694
20
43.390236
30
0
0
SPLINE
5
AE
100
AcDbEntity
8
0
6
ByLayer
62
7
370
-1
100
AcDbSpline
210
0
220
0
230
1
70
8
71
3
72
8
73
4
74
0
42
1e-07
43
1e-07
40
0
40
0
40
0
40
0
40
1
40
1
40
1
40
1
10
155.625607487
20
33.4960966673
30
0
10
155.927778
20
33.543988
30
0
10
157.034938
20
33.485339
30
0
10
165.188194
20
33.534869
30
0
0
SPLINE
5
AF
100
AcDbEntity
8
0
6
ByLayer
62
7
370
-1
100
AcDbSpline
210
0
220
0
230
1
70
8
71
3
72
8
73
4
74
0
42
1e-07
43
1e-07
40
0
40
0
40
0
40
0
40
1
40
1
40
1
40
1
10
142.522222
20
33.224199
30
0
10
152.969584
20
33.327309
30
0
10
154.869444
20
33.457936
30
0
10
155.978197978
20
33.5274380443
30
0
0
LINE
5
B0
100
AcDbEntity
8
0
6
ByLayer
62
7
370
-1
100
AcDbLine
10
4.234752
20
43.479861
11
4.233333
21
40.216667
0
LINE
5
B1
100
AcDbEntity
8
0
6
ByLayer
62
7
370
-1
100
AcDbLine
10
4.233333
20
40.216667
11
3.175
21
40.216667
0
LINE
5
B2
100
AcDbEntity
8
guides
6
ByLayer
62
256
370
-1
100
AcDbLine
10
27.4139106935
20
72.4377575881
11
28.4139106935
21
72.4377575881
0
LINE
5
B3
100
AcDbEntity
8
guides
6
ByLayer
62
256
370
-1
100
AcDbLine
10
25.3865153689
20
72.4279634078
11
26.3865153689
21
72.4279634078
0
LINE
5
B4
100
AcDbEntity
8
guides
6
ByLayer
62
256
370
-1
100
AcDbLine
10
27.178850366
20
72.4475517684
11
28.178850366
21
72.4475517684
0
LINE
5
B5
100
AcDbEntity
8
guides
6
ByLayer
62
256
370
-1
100
AcDbLine
10
17.6347851078
20
72.4445939068
11
39.9397993225
21
72.5193175726
0
ENDSEC
0
SECTION
2
OBJECTS
0
DICTIONARY
5
C
330
0
100
AcDbDictionary
281
1
3
ACAD_GROUP
350
D
0
DICTIONARY
5
D
330
C
100
AcDbDictionary
281
1
0
ENDSEC
0
EOF
