999
dxfrw 0.5.11
0
SECTION
2
HEADER
9
$ACADVER
1
AC1021
9
$HANDSEED
5
20000
9
$DWGCODEPAGE
3
ANSI_1252
9
$INSBASE
10
0
20
0
30
0
9
$EXTMIN
10
-301.812720396
20
-184.643893316
30
0
9
$EXTMAX
10
119.865115235
20
172.984690464
30
0
9
$LIMMIN
10
0
20
0
9
$LIMMAX
10
420
20
297
9
$ORTHOMODE
70
0
9
$LTSCALE
40
1
9
$TEXTSTYLE
7
STANDARD
9
$CLAYER
8
Guides
9
$DIMASZ
40
2.5
9
$DIMLFAC
40
1
9
$DIMSCALE
40
1
9
$DIMEXO
40
0.625
9
$DIMEXE
40
1.25
9
$DIMTXT
40
2.5
9
$DIMTSZ
40
0
9
$DIMAUNIT
70
0
9
$DIMADEC
70
0
9
$DIMLUNIT
70
2
9
$DIMSTYLE
2
STANDARD
9
$DIMGAP
40
0.625
9
$DIMTIH
70
0
9
$LUNITS
70
2
9
$LUPREC
70
4
9
$AUNITS
70
0
9
$AUPREC
70
2
9
$SPLINESEGS
70
8
9
$GRIDMODE
70
1
9
$SNAPSTYLE
70
0
9
$PINSBASE
10
0
20
0
30
0
9
$PLIMMIN
10
0
20
0
9
$PLIMMAX
10
297
20
210
9
$INSUNITS
70
4
9
$PSVPSCALE
40
1
0
ENDSEC
0
SECTION
2
CLASSES
0
ENDSEC
0
SECTION
2
TABLES
0
TABLE
2
VPORT
5
8
330
0
100
AcDbSymbolTable
70
1
0
VPORT
5
31
330
2
100
AcDbSymbolTableRecord
100
AcDbViewportTableRecord
2
*ACTIVE
70
0
10
0
20
0
11
1
21
1
12
-39.3332166327
22
-10.2762457869
13
0
23
0
14
10
24
10
15
10
25
10
16
0
26
0
36
1
17
0
27
0
37
0
40
92.60432985
41
1.97193877551
42
50
43
0
44
0
50
0
51
0
71
0
72
100
73
1
74
3
75
0
76
1
77
0
78
0
281
0
65
1
110
0
120
0
130
0
111
1
121
0
131
0
112
0
122
1
132
0
79
0
146
0
348
10020
60
7
61
5
292
1
282
1
141
0
142
0
63
250
421
3358443
0
ENDTAB
0
TABLE
2
LTYPE
5
5
330
0
100
AcDbSymbolTable
70
4
0
LTYPE
5
14
330
5
100
AcDbSymbolTableRecord
100
AcDbLinetypeTableRecord
2
ByBlock
70
0
3

72
65
73
0
40
0
0
LTYPE
5
15
330
5
100
AcDbSymbolTableRecord
100
AcDbLinetypeTableRecord
2
ByLayer
70
0
3

72
65
73
0
40
0
0
LTYPE
5
16
330
5
100
AcDbSymbolTableRecord
100
AcDbLinetypeTableRecord
2
Continuous
70
0
3
Solid line
72
65
73
0
40
0
0
LTYPE
5
32
330
5
100
AcDbSymbolTableRecord
100
AcDbLinetypeTableRecord
2
DOT
70
0
3
Dot . . . . . . . . . . . . . . . . . . . . . .
72
65
73
2
40
6.35
49
0
74
0
49
-6.35
74
0
0
LTYPE
5
33
330
5
100
AcDbSymbolTableRecord
100
AcDbLinetypeTableRecord
2
DOT2
70
0
3
Dot (.5x) .....................................
72
65
73
2
40
3.175
49
0
74
0
49
-3.175
74
0
0
LTYPE
5
34
330
5
100
AcDbSymbolTableRecord
100
AcDbLinetypeTableRecord
2
DOTX2
70
0
3
Dot (2x) .  .  .  .  .  .  .  .  .  .  .  .  .
72
65
73
2
40
12.7
49
0
74
0
49
-12.7
74
0
0
LTYPE
5
35
330
5
100
AcDbSymbolTableRecord
100
AcDbLinetypeTableRecord
2
DASHED
70
0
3
Dot . . . . . . . . . . . . . . . . . . . . . .
72
65
73
2
40
19.05
49
12.7
74
0
49
-6.35
74
0
0
LTYPE
5
36
330
5
100
AcDbSymbolTableRecord
100
AcDbLinetypeTableRecord
2
DASHED2
70
0
3
Dashed (.5x) _ _ _ _ _ _ _ _ _ _ _ _ _ _ _ _ _
72
65
73
2
40
9.525
49
6.35
74
0
49
-3.175
74
0
0
LTYPE
5
37
330
5
100
AcDbSymbolTableRecord
100
AcDbLinetypeTableRecord
2
DASHEDX2
70
0
3
Dashed (2x) ____  ____  ____  ____  ____  ___
72
65
73
2
40
38.1
49
25.4
74
0
49
-12.7
74
0
0
LTYPE
5
38
330
5
100
AcDbSymbolTableRecord
100
AcDbLinetypeTableRecord
2
DASHDOT
70
0
3
Dash dot __ . __ . __ . __ . __ . __ . __ . __
72
65
73
4
40
25.4
49
12.7
74
0
49
-6.35
74
0
49
0
74
0
49
-6.35
74
0
0
LTYPE
5
39
330
5
100
AcDbSymbolTableRecord
100
AcDbLinetypeTableRecord
2
DASHDOT2
70
0
3
Dash dot (.5x) _._._._._._._._._._._._._._._.
72
65
73
4
40
12.7
49
6.35
74
0
49
-3.175
74
0
49
0
74
0
49
-3.175
74
0
0
LTYPE
5
3A
330
5
100
AcDbSymbolTableRecord
100
AcDbLinetypeTableRecord
2
DASHDOTX2
70
0
3
Dash dot (2x) ____  .  ____  .  ____  .  ___
72
65
73
4
40
50.8
49
25.4
74
0
49
-12.7
74
0
49
0
74
0
49
-12.7
74
0
0
LTYPE
5
3B
330
5
100
AcDbSymbolTableRecord
100
AcDbLinetypeTableRecord
2
DIVIDE
70
0
3
Divide ____ . . ____ . . ____ . . ____ . . ____
72
65
73
6
40
31.75
49
12.7
74
0
49
-6.35
74
0
49
0
74
0
49
-6.35
74
0
49
0
74
0
49
-6.35
74
0
0
LTYPE
5
3C
330
5
100
AcDbSymbolTableRecord
100
AcDbLinetypeTableRecord
2
DIVIDE2
70
0
3
Divide (.5x) __..__..__..__..__..__..__..__.._
72
65
73
6
40
15.875
49
6.35
74
0
49
-3.175
74
0
49
0
74
0
49
-3.175
74
0
49
0
74
0
49
-3.175
74
0
0
LTYPE
5
3D
330
5
100
AcDbSymbolTableRecord
100
AcDbLinetypeTableRecord
2
DIVIDEX2
70
0
3
Divide (2x) ________  .  .  ________  .  .  _
72
65
73
6
40
63.5
49
25.4
74
0
49
-12.7
74
0
49
0
74
0
49
-12.7
74
0
49
0
74
0
49
-12.7
74
0
0
LTYPE
5
3E
330
5
100
AcDbSymbolTableRecord
100
AcDbLinetypeTableRecord
2
BORDER
70
0
3
Border __ __ . __ __ . __ __ . __ __ . __ __ .
72
65
73
6
40
44.45
49
12.7
74
0
49
-6.35
74
0
49
12.7
74
0
49
-6.35
74
0
49
0
74
0
49
-6.35
74
0
0
LTYPE
5
3F
330
5
100
AcDbSymbolTableRecord
100
AcDbLinetypeTableRecord
2
BORDER2
70
0
3
Border (.5x) __.__.__.__.__.__.__.__.__.__.__.
72
65
73
6
40
22.225
49
6.35
74
0
49
-3.175
74
0
49
6.35
74
0
49
-3.175
74
0
49
0
74
0
49
-3.175
74
0
0
LTYPE
5
40
330
5
100
AcDbSymbolTableRecord
100
AcDbLinetypeTableRecord
2
BORDERX2
70
0
3
Border (2x) ____  ____  .  ____  ____  .  ___
72
65
73
6
40
88.9
49
25.4
74
0
49
-12.7
74
0
49
25.4
74
0
49
-12.7
74
0
49
0
74
0
49
-12.7
74
0
0
LTYPE
5
41
330
5
100
AcDbSymbolTableRecord
100
AcDbLinetypeTableRecord
2
CENTER
70
0
3
Center ____ _ ____ _ ____ _ ____ _ ____ _ ____
72
65
73
4
40
50.8
49
31.75
74
0
49
-6.35
74
0
49
6.35
74
0
49
-6.35
74
0
0
LTYPE
5
42
330
5
100
AcDbSymbolTableRecord
100
AcDbLinetypeTableRecord
2
CENTER2
70
0
3
Center (.5x) ___ _ ___ _ ___ _ ___ _ ___ _ ___
72
65
73
4
40
28.575
49
19.05
74
0
49
-3.175
74
0
49
3.175
74
0
49
-3.175
74
0
0
LTYPE
5
43
330
5
100
AcDbSymbolTableRecord
100
AcDbLinetypeTableRecord
2
CENTERX2
70
0
3
Center (2x) ________  __  ________  __  _____
72
65
73
4
40
101.6
49
63.5
74
0
49
-12.7
74
0
49
12.7
74
0
49
-12.7
74
0
0
ENDTAB
0
TABLE
2
LAYER
5
2
330
0
100
AcDbSymbolTable
70
1
0
LAYER
5
10
330
2
100
AcDbSymbolTableRecord
100
AcDbLayerTableRecord
2
0
70
0
62
7
6
CONTINUOUS
370
-3
390
F
0
LAYER
5
44
330
2
100
AcDbSymbolTableRecord
100
AcDbLayerTableRecord
2
1st Cut
70
0
62
2
6
CONTINUOUS
370
0
390
F
0
LAYER
5
45
330
2
100
AcDbSymbolTableRecord
100
AcDbLayerTableRecord
2
Engraving
70
0
62
1
6
CONTINUOUS
370
0
390
F
0
LAYER
5
46
330
2
100
AcDbSymbolTableRecord
100
AcDbLayerTableRecord
2
Guides
70
4
62
3
6
DOT2
290
0
370
0
390
F
0
ENDTAB
0
TABLE
2
STYLE
5
3
330
0
100
AcDbSymbolTable
70
3
0
STYLE
5
47
330
2
100
AcDbSymbolTableRecord
100
AcDbTextStyleTableRecord
2
standard
70
0
40
0
41
1
50
0
71
0
42
1
3
standard
4

0
ENDTAB
0
TABLE
2
VIEW
5
6
330
0
100
AcDbSymbolTable
70
0
0
ENDTAB
0
TABLE
2
UCS
5
7
330
0
100
AcDbSymbolTable
70
0
0
ENDTAB
0
TABLE
2
APPID
5
9
330
0
100
AcDbSymbolTable
70
1
0
APPID
5
12
330
9
100
AcDbSymbolTableRecord
100
AcDbRegAppTableRecord
2
ACAD
70
0
0
ENDTAB
0
TABLE
2
DIMSTYLE
5
A
330
0
100
AcDbSymbolTable
70
1
100
AcDbDimStyleTable
71
1
0
DIMSTYLE
105
48
330
A
100
AcDbSymbolTableRecord
100
AcDbDimStyleTableRecord
2
Standard
70
0
40
1
41
2.5
42
0.625
43
0.38
44
1.25
45
0
46
0
47
0
48
0
140
2.5
141
0.09
142
0
143
25.4
144
1
145
0
146
1
147
0.625
148
0
71
0
72
0
73
0
74
1
75
0
76
0
77
0
78
0
79
0
170
0
171
2
172
0
173
0
174
0
175
0
176
0
177
0
178
0
179
0
271
4
272
4
273
2
274
2
275
0
276
0
277
2
278
46
279
0
280
0
281
0
282
0
283
1
284
0
285
0
286
0
288
0
289
3
340
Standard
341

371
-2
372
-2
0
ENDTAB
0
TABLE
2
BLOCK_RECORD
5
1
330
0
100
AcDbSymbolTable
70
2
0
BLOCK_RECORD
5
1F
330
1
100
AcDbSymbolTableRecord
100
AcDbBlockTableRecord
2
*Model_Space
70
0
280
1
281
0
0
BLOCK_RECORD
5
1E
330
1
100
AcDbSymbolTableRecord
100
AcDbBlockTableRecord
2
*Paper_Space
70
0
280
1
281
0
0
BLOCK_RECORD
5
49
330
1
100
AcDbSymbolTableRecord
100
AcDbBlockTableRecord
2
BoltPlus Guitar Clean
70
0
280
1
281
0
0
BLOCK_RECORD
5
4C
330
1
100
AcDbSymbolTableRecord
100
AcDbBlockTableRecord
2
Flat round pot (narrow)
70
0
280
1
281
0
0
BLOCK_RECORD
5
4F
330
1
100
AcDbSymbolTableRecord
100
AcDbBlockTableRecord
2
Flat round pot (wide)
70
0
280
1
281
0
0
BLOCK_RECORD
5
52
330
1
100
AcDbSymbolTableRecord
100
AcDbBlockTableRecord
2
Trackball
70
0
280
1
281
0
0
BLOCK_RECORD
5
55
330
1
100
AcDbSymbolTableRecord
100
AcDbBlockTableRecord
2
PCB
70
0
280
1
281
0
0
BLOCK_RECORD
5
58
330
1
100
AcDbSymbolTableRecord
100
AcDbBlockTableRecord
2
Flat straight pot (long)
70
0
280
1
281
0
0
BLOCK_RECORD
5
5B
330
1
100
AcDbSymbolTableRecord
100
AcDbBlockTableRecord
2
Flat straight pot (short)
70
0
280
1
281
0
0
BLOCK_RECORD
5
5E
330
1
100
AcDbSymbolTableRecord
100
AcDbBlockTableRecord
2
LCD 16x2
70
0
280
1
281
0
0
BLOCK_RECORD
5
61
330
1
100
AcDbSymbolTableRecord
100
AcDbBlockTableRecord
2
5 position selector
70
0
280
1
281
0
0
BLOCK_RECORD
5
64
330
1
100
AcDbSymbolTableRecord
100
AcDbBlockTableRecord
2
LED Holder
70
0
280
1
281
0
0
BLOCK_RECORD
5
67
330
1
100
AcDbSymbolTableRecord
100
AcDbBlockTableRecord
2
Pushbutton (non latching)
70
0
280
1
281
0
0
BLOCK_RECORD
5
6A
330
1
100
AcDbSymbolTableRecord
100
AcDbBlockTableRecord
2
LCD + 2 PBs
70
0
280
1
281
0
0
BLOCK_RECORD
5
6D
330
1
100
AcDbSymbolTableRecord
100
AcDbBlockTableRecord
2
PB + LED
70
0
280
1
281
0
0
BLOCK_RECORD
5
70
330
1
100
AcDbSymbolTableRecord
100
AcDbBlockTableRecord
2
LED 5x Cross
70
0
280
1
281
0
0
BLOCK_RECORD
5
73
330
1
100
AcDbSymbolTableRecord
100
AcDbBlockTableRecord
2
Selectors 2x
70
0
280
1
281
0
0
BLOCK_RECORD
5
76
330
1
100
AcDbSymbolTableRecord
100
AcDbBlockTableRecord
2
Selectors Crossed
70
0
280
1
281
0
0
BLOCK_RECORD
5
79
330
1
100
AcDbSymbolTableRecord
100
AcDbBlockTableRecord
2
TB + Selectors crossed
70
0
280
1
281
0
0
BLOCK_RECORD
5
7C
330
1
100
AcDbSymbolTableRecord
100
AcDbBlockTableRecord
2
TB 2xSelect 4x PB LED
70
0
280
1
281
0
0
BLOCK_RECORD
5
7F
330
1
100
AcDbSymbolTableRecord
100
AcDbBlockTableRecord
2
LED 3x Line
70
0
280
1
281
0
0
BLOCK_RECORD
5
82
330
1
100
AcDbSymbolTableRecord
100
AcDbBlockTableRecord
2
Selectors PBs LEDs LCD
70
0
280
1
281
0
0
BLOCK_RECORD
5
85
330
1
100
AcDbSymbolTableRecord
100
AcDbBlockTableRecord
2
LED Array
70
0
280
1
281
0
0
BLOCK_RECORD
5
88
330
1
100
AcDbSymbolTableRecord
100
AcDbBlockTableRecord
2
PCB-0
70
0
280
1
281
0
0
BLOCK_RECORD
5
8B
330
1
100
AcDbSymbolTableRecord
100
AcDbBlockTableRecord
2
LCD + 2 PBs REEL
70
0
280
1
281
0
0
BLOCK_RECORD
5
8E
330
1
100
AcDbSymbolTableRecord
100
AcDbBlockTableRecord
2
LCD final-0
70
0
280
1
281
0
0
BLOCK_RECORD
5
91
330
1
100
AcDbSymbolTableRecord
100
AcDbBlockTableRecord
2
LCD+2 PBs layered
70
0
280
1
281
0
0
BLOCK_RECORD
5
94
330
1
100
AcDbSymbolTableRecord
100
AcDbBlockTableRecord
2
LCD + 2 PBs REEL-0
70
0
280
1
281
0
0
BLOCK_RECORD
5
97
330
1
100
AcDbSymbolTableRecord
100
AcDbBlockTableRecord
2
Pushbutton (non latching)-0
70
0
280
1
281
0
0
BLOCK_RECORD
5
9A
330
1
100
AcDbSymbolTableRecord
100
AcDbBlockTableRecord
2
5 position selector REAL
70
0
280
1
281
0
0
BLOCK_RECORD
5
9D
330
1
100
AcDbSymbolTableRecord
100
AcDbBlockTableRecord
2
Selector Cross REAL
70
0
280
1
281
0
0
ENDTAB
0
ENDSEC
0
SECTION
2
BLOCKS
0
BLOCK
5
20
330
1F
100
AcDbEntity
8
0
100
AcDbBlockBegin
2
*Model_Space
70
0
10
0
20
0
30
0
3
*Model_Space
1

0
ENDBLK
5
21
330
1F
100
AcDbEntity
8
0
100
AcDbBlockEnd
0
BLOCK
5
1C
330
1B
100
AcDbEntity
8
0
100
AcDbBlockBegin
2
*Paper_Space
70
0
10
0
20
0
30
0
3
*Paper_Space
1

0
ENDBLK
5
1D
330
1F
100
AcDbEntity
8
0
100
AcDbBlockEnd
0
BLOCK
5
4A
330
49
100
AcDbEntity
8
0
100
AcDbBlockBegin
2
BoltPlus Guitar Clean
70
0
10
0
20
0
3
BoltPlus Guitar Clean
1

0
ENDBLK
5
4B
330
49
100
AcDbEntity
8
0
100
AcDbBlockEnd
0
BLOCK
5
4D
330
4C
100
AcDbEntity
8
0
100
AcDbBlockBegin
2
Flat round pot (narrow)
70
0
10
0
20
0
3
Flat round pot (narrow)
1

0
CIRCLE
5
A0
100
AcDbEntity
8
0
6
ByLayer
62
256
370
-1
100
AcDbCircle
10
0
20
0
40
20
0
MTEXT
5
A1
100
AcDbEntity
8
0
6
ByLayer
62
256
370
-1
100
AcDbMText
10
0
20
1
30
0
40
2.5
41
24.5833333333
71
5
72
1
1
Flat round pot\P(narrow)
7
standard
210
0
220
0
230
1
50
0
73
2
44
1
0
ENDBLK
5
4E
330
4C
100
AcDbEntity
8
0
100
AcDbBlockEnd
0
BLOCK
5
50
330
4F
100
AcDbEntity
8
0
100
AcDbBlockBegin
2
Flat round pot (wide)
70
0
10
0
20
0
3
Flat round pot (wide)
1

0
CIRCLE
5
A2
100
AcDbEntity
8
0
6
ByLayer
62
256
370
-1
100
AcDbCircle
10
0
20
0
40
22
0
MTEXT
5
A3
100
AcDbEntity
8
0
6
ByLayer
62
256
370
-1
100
AcDbMText
10
0
20
0
30
0
40
2.5
41
35.9027775
71
5
72
1
1
Flat round pot (wide)
7
standard
210
0
220
0
230
1
50
0
73
2
44
1
0
ENDBLK
5
51
330
4F
100
AcDbEntity
8
0
100
AcDbBlockEnd
0
BLOCK
5
53
330
52
100
AcDbEntity
8
0
100
AcDbBlockBegin
2
Trackball
70
0
10
0
20
0
3
Trackball
1

0
CIRCLE
5
A4
100
AcDbEntity
8
0
6
ByLayer
62
256
370
-1
100
AcDbCircle
10
0
20
0
40
21.5
0
CIRCLE
5
A5
100
AcDbEntity
8
0
6
ByLayer
62
256
370
-1
100
AcDbCircle
10
21.75
20
-32
40
1.75
0
CIRCLE
5
A6
100
AcDbEntity
8
0
6
ByLayer
62
256
370
-1
100
AcDbCircle
10
-21.75
20
-32
40
1.75
0
CIRCLE
5
A7
100
AcDbEntity
8
0
6
ByLayer
62
256
370
-1
100
AcDbCircle
10
21.75
20
32
40
1.75
0
CIRCLE
5
A8
100
AcDbEntity
8
0
6
ByLayer
62
256
370
-1
100
AcDbCircle
10
-21.75
20
32
40
1.75
0
ENDBLK
5
54
330
52
100
AcDbEntity
8
0
100
AcDbBlockEnd
0
BLOCK
5
56
330
55
100
AcDbEntity
8
0
100
AcDbBlockBegin
2
PCB
70
0
10
0
20
0
3
PCB
1

0
LINE
5
A9
100
AcDbEntity
8
0
6
ByLayer
62
256
370
-1
100
AcDbLine
10
0
20
0
11
180
21
0
0
LINE
5
AA
100
AcDbEntity
8
0
6
ByLayer
62
256
370
-1
100
AcDbLine
10
180
20
0
11
180
21
140
0
LINE
5
AB
100
AcDbEntity
8
0
6
ByLayer
62
256
370
-1
100
AcDbLine
10
180
20
140
11
0
21
140
0
LINE
5
AC
100
AcDbEntity
8
0
6
ByLayer
62
256
370
-1
100
AcDbLine
10
0
20
140
11
0
21
0
0
MTEXT
5
AD
100
AcDbEntity
8
0
6
ByLayer
62
256
370
-1
100
AcDbMText
10
90
20
70
30
0
40
5
41
11.1111111111
71
5
72
1
1
PCB
7
standard
210
0
220
0
230
1
50
0
73
2
44
1
0
ENDBLK
5
57
330
55
100
AcDbEntity
8
0
100
AcDbBlockEnd
0
BLOCK
5
59
330
58
100
AcDbEntity
8
0
100
AcDbBlockBegin
2
Flat straight pot (long)
70
0
10
0
20
0
3
Flat straight pot (long)
1

0
LINE
5
AE
100
AcDbEntity
8
0
6
ByLayer
62
256
370
-1
100
AcDbLine
10
0
20
0
11
118
21
0
0
LINE
5
AF
100
AcDbEntity
8
0
6
ByLayer
62
256
370
-1
100
AcDbLine
10
118
20
0
11
118
21
22
0
LINE
5
B0
100
AcDbEntity
8
0
6
ByLayer
62
256
370
-1
100
AcDbLine
10
118
20
22
11
0
21
22
0
LINE
5
B1
100
AcDbEntity
8
0
6
ByLayer
62
256
370
-1
100
AcDbLine
10
0
20
22
11
0
21
0
0
MTEXT
5
B2
100
AcDbEntity
8
0
6
ByLayer
62
256
370
-1
100
AcDbMText
10
60
20
11
30
0
40
2.5
41
41.1805547478
71
5
72
1
1
Flat Straight POT (long)
7
standard
210
0
220
0
230
1
50
0
73
2
44
1
0
ENDBLK
5
5A
330
58
100
AcDbEntity
8
0
100
AcDbBlockEnd
0
BLOCK
5
5C
330
5B
100
AcDbEntity
8
0
100
AcDbBlockBegin
2
Flat straight pot (short)
70
0
10
0
20
0
3
Flat straight pot (short)
1

0
LINE
5
B3
100
AcDbEntity
8
0
6
ByLayer
62
256
370
-1
100
AcDbLine
10
68
20
5.5
11
78
21
5.5
0
LINE
5
B4
100
AcDbEntity
8
0
6
ByLayer
62
256
370
-1
100
AcDbLine
10
78
20
5.5
11
78
21
16.5
0
LINE
5
B5
100
AcDbEntity
8
0
6
ByLayer
62
256
370
-1
100
AcDbLine
10
78
20
16.5
11
68
21
16.5
0
LINE
5
B6
100
AcDbEntity
8
0
6
ByLayer
62
256
370
-1
100
AcDbLine
10
68
20
16.5
11
68
21
5.5
0
ENDBLK
5
5D
330
5B
100
AcDbEntity
8
0
100
AcDbBlockEnd
0
BLOCK
5
5F
330
5E
100
AcDbEntity
8
0
100
AcDbBlockBegin
2
LCD 16x2
70
0
10
0
20
0
3
LCD 16x2
1

0
MTEXT
5
B7
100
AcDbEntity
8
0
6
ByLayer
62
256
370
-1
100
AcDbMText
10
35
20
13
30
0
40
5
41
28.75
71
5
72
1
1
LCD 16x2
7
standard
210
0
220
0
230
1
50
0
73
2
44
1
0
LINE
5
B8
100
AcDbEntity
8
0
6
ByLayer
62
256
370
-1
100
AcDbLine
10
0
20
0
11
69.5
21
-1.70225905081e-14
0
LINE
5
B9
100
AcDbEntity
8
0
6
ByLayer
62
256
370
-1
100
AcDbLine
10
69.5
20
-1.70225905081e-14
11
69.5
21
26.3
0
LINE
5
BA
100
AcDbEntity
8
0
6
ByLayer
62
256
370
-1
100
AcDbLine
10
69.5
20
26.3
11
1.61041054088e-15
21
26.3
0
LINE
5
BB
100
AcDbEntity
8
0
6
ByLayer
62
256
370
-1
100
AcDbLine
10
1.61041054088e-15
20
26.3
11
0
21
0
0
ENDBLK
5
60
330
5E
100
AcDbEntity
8
0
100
AcDbBlockEnd
0
BLOCK
5
62
330
61
100
AcDbEntity
8
0
100
AcDbBlockBegin
2
5 position selector
70
0
10
0
20
0
3
5 position selector
1

0
LINE
5
BC
100
AcDbEntity
8
0
6
ByLayer
62
256
370
-1
100
AcDbLine
10
0
20
0
11
50
21
0
0
LINE
5
BD
100
AcDbEntity
8
0
6
ByLayer
62
256
370
-1
100
AcDbLine
10
50
20
0
11
50
21
10
0
LINE
5
BE
100
AcDbEntity
8
0
6
ByLayer
62
256
370
-1
100
AcDbLine
10
50
20
10
11
0
21
10
0
LINE
5
BF
100
AcDbEntity
8
0
6
ByLayer
62
256
370
-1
100
AcDbLine
10
0
20
10
11
0
21
0
0
MTEXT
5
C0
100
AcDbEntity
8
0
6
ByLayer
62
256
370
-1
100
AcDbMText
10
26
20
5
30
0
40
2.5
41
32.4305563113
71
5
72
1
1
5-Position Selector
7
standard
210
0
220
0
230
1
50
0
73
2
44
1
0
ENDBLK
5
63
330
61
100
AcDbEntity
8
0
100
AcDbBlockEnd
0
BLOCK
5
65
330
64
100
AcDbEntity
8
0
100
AcDbBlockBegin
2
LED Holder
70
0
10
0
20
0
3
LED Holder
1

0
CIRCLE
5
C1
100
AcDbEntity
8
0
6
ByLayer
62
256
370
-1
100
AcDbCircle
10
0
20
0
40
4
0
ENDBLK
5
66
330
64
100
AcDbEntity
8
0
100
AcDbBlockEnd
0
BLOCK
5
68
330
67
100
AcDbEntity
8
0
100
AcDbBlockBegin
2
Pushbutton (non latching)
70
0
10
0
20
0
3
Pushbutton (non latching)
1

0
CIRCLE
5
C2
100
AcDbEntity
8
0
6
ByLayer
62
256
370
-1
100
AcDbCircle
10
0
20
0
40
1.75
0
LINE
5
C3
100
AcDbEntity
8
0
6
ByLayer
62
256
370
-1
100
AcDbLine
10
-3
20
-3
11
3
21
-3
0
LINE
5
C4
100
AcDbEntity
8
0
6
ByLayer
62
256
370
-1
100
AcDbLine
10
3
20
-3
11
3
21
3
0
LINE
5
C5
100
AcDbEntity
8
0
6
ByLayer
62
256
370
-1
100
AcDbLine
10
3
20
3
11
-3
21
3
0
LINE
5
C6
100
AcDbEntity
8
0
6
ByLayer
62
256
370
-1
100
AcDbLine
10
-3
20
3
11
-3
21
-3
0
MTEXT
5
C7
100
AcDbEntity
8
0
6
ByLayer
62
256
370
-1
100
AcDbMText
10
0
20
-1
30
0
40
1
41
2.222222
71
5
72
1
1
PB\P(NL)\P
7
standard
210
0
220
0
230
1
50
0
73
2
44
1
0
ENDBLK
5
69
330
67
100
AcDbEntity
8
0
100
AcDbBlockEnd
0
BLOCK
5
6B
330
6A
100
AcDbEntity
8
0
100
AcDbBlockBegin
2
LCD + 2 PBs
70
0
10
0
20
0
3
LCD + 2 PBs
1

0
INSERT
5
C8
100
AcDbEntity
8
0
6
ByLayer
62
256
370
-1
100
AcDbBlockReference
2
LCD 16x2
10
-35
20
-13
30
0
41
1
42
1
43
0
50
0
70
1
71
1
44
0
45
0
0
INSERT
5
C9
100
AcDbEntity
8
0
6
ByLayer
62
256
370
-1
100
AcDbBlockReference
2
Pushbutton (non latching)
10
8
20
-20
30
0
41
1
42
1
43
0
50
0
70
1
71
1
44
1
45
1
0
INSERT
5
CA
100
AcDbEntity
8
0
6
ByLayer
62
256
370
-1
100
AcDbBlockReference
2
Pushbutton (non latching)
10
-8
20
-20
30
0
41
1
42
1
43
0
50
0
70
1
71
1
44
1
45
1
0
ENDBLK
5
6C
330
6A
100
AcDbEntity
8
0
100
AcDbBlockEnd
0
BLOCK
5
6E
330
6D
100
AcDbEntity
8
0
100
AcDbBlockBegin
2
PB + LED
70
0
10
0
20
0
3
PB + LED
1

0
CIRCLE
5
CB
100
AcDbEntity
8
0
6
ByLayer
62
256
370
-1
100
AcDbCircle
10
0
20
5
40
4
0
LINE
5
CC
100
AcDbEntity
8
0
6
ByLayer
62
256
370
-1
100
AcDbLine
10
-3
20
-7
11
3
21
-7
0
LINE
5
CD
100
AcDbEntity
8
0
6
ByLayer
62
256
370
-1
100
AcDbLine
10
3
20
-7
11
3
21
-1
0
LINE
5
CE
100
AcDbEntity
8
0
6
ByLayer
62
256
370
-1
100
AcDbLine
10
3
20
-1
11
-3
21
-1
0
LINE
5
CF
100
AcDbEntity
8
0
6
ByLayer
62
256
370
-1
100
AcDbLine
10
-3
20
-1
11
-3
21
-7
0
ENDBLK
5
6F
330
6D
100
AcDbEntity
8
0
100
AcDbBlockEnd
0
BLOCK
5
71
330
70
100
AcDbEntity
8
0
100
AcDbBlockBegin
2
LED 5x Cross
70
0
10
0
20
0
3
LED 5x Cross
1

0
INSERT
5
D0
100
AcDbEntity
8
0
6
ByLayer
62
256
370
-1
100
AcDbBlockReference
2
LED Holder
10
0
20
0
30
0
41
1
42
1
43
0
50
0
70
1
71
1
44
1
45
1
0
INSERT
5
D1
100
AcDbEntity
8
0
6
ByLayer
62
256
370
-1
100
AcDbBlockReference
2
LED Holder
10
0
20
10
30
0
41
1
42
1
43
0
50
0
70
1
71
1
44
1
45
1
0
INSERT
5
D2
100
AcDbEntity
8
0
6
ByLayer
62
256
370
-1
100
AcDbBlockReference
2
LED Holder
10
-10
20
0
30
0
41
1
42
1
43
0
50
0
70
1
71
1
44
1
45
1
0
INSERT
5
D3
100
AcDbEntity
8
0
6
ByLayer
62
256
370
-1
100
AcDbBlockReference
2
LED Holder
10
0
20
-10
30
0
41
1
42
1
43
0
50
0
70
1
71
1
44
1
45
1
0
INSERT
5
D4
100
AcDbEntity
8
0
6
ByLayer
62
256
370
-1
100
AcDbBlockReference
2
LED Holder
10
10
20
0
30
0
41
1
42
1
43
0
50
0
70
1
71
1
44
1
45
1
0
ENDBLK
5
72
330
70
100
AcDbEntity
8
0
100
AcDbBlockEnd
0
BLOCK
5
74
330
73
100
AcDbEntity
8
0
100
AcDbBlockBegin
2
Selectors 2x
70
0
10
0
20
0
3
Selectors 2x
1

0
INSERT
5
D5
100
AcDbEntity
8
0
6
DOT2
62
256
370
-1
100
AcDbBlockReference
2
5 position selector
10
0
20
0
30
0
41
1
42
1
43
0
50
180
70
1
71
1
44
1
45
1
0
INSERT
5
D6
100
AcDbEntity
8
0
6
DOT2
62
256
370
-1
100
AcDbBlockReference
2
5 position selector
10
13.6773436309
20
-36.4280396723
30
0
41
-1
42
1
43
0
50
38.2132107017
70
1
71
1
44
1
45
1
0
ENDBLK
5
75
330
73
100
AcDbEntity
8
0
100
AcDbBlockEnd
0
BLOCK
5
77
330
76
100
AcDbEntity
8
0
100
AcDbBlockBegin
2
Selectors Crossed
70
0
10
0
20
0
3
Selectors Crossed
1

0
INSERT
5
D7
100
AcDbEntity
8
0
6
DOT2
62
256
370
-1
100
AcDbBlockReference
2
5 position selector
10
-50
20
-2.84217094304e-14
30
0
41
1
42
1
43
0
50
0
70
1
71
1
44
1
45
1
0
INSERT
5
D8
100
AcDbEntity
8
0
6
DOT2
62
256
370
-1
100
AcDbBlockReference
2
5 position selector
10
10
20
-21
30
0
41
1
42
1
43
0
50
90
70
1
71
1
44
1
45
1
0
ENDBLK
5
78
330
76
100
AcDbEntity
8
0
100
AcDbBlockEnd
0
BLOCK
5
7A
330
79
100
AcDbEntity
8
0
100
AcDbBlockBegin
2
TB + Selectors crossed
70
0
10
0
20
0
3
TB + Selectors crossed
1

0
INSERT
5
D9
100
AcDbEntity
8
0
6
ByLayer
62
256
370
-1
100
AcDbBlockReference
2
Trackball
10
0
20
0
30
0
41
1
42
1
43
0
50
0
70
1
71
1
44
1
45
1
0
INSERT
5
DA
100
AcDbEntity
8
0
6
DOT2
62
256
370
-1
100
AcDbBlockReference
2
Selectors Crossed
10
31.536875
20
31.536875
30
0
41
1
42
1
43
0
50
0
70
1
71
1
44
0
45
0
0
ENDBLK
5
7B
330
79
100
AcDbEntity
8
0
100
AcDbBlockEnd
0
BLOCK
5
7D
330
7C
100
AcDbEntity
8
0
100
AcDbBlockBegin
2
TB 2xSelect 4x PB LED
70
0
10
0
20
0
3
TB 2xSelect 4x PB LED
1

0
INSERT
5
DB
100
AcDbEntity
8
0
6
DOT2
62
256
370
-1
100
AcDbBlockReference
2
TB + Selectors crossed
10
-41.536875
20
-60.536875
30
0
41
1
42
1
43
0
50
0
70
1
71
1
44
0
45
0
0
INSERT
5
DC
100
AcDbEntity
8
0
6
DOT2
62
256
370
-1
100
AcDbBlockReference
2
PB + LED
10
-87.312
20
-28
30
0
41
1
42
1
43
0
50
0
70
1
71
1
44
1
45
1
0
INSERT
5
DD
100
AcDbEntity
8
0
6
DOT2
62
256
370
-1
100
AcDbBlockReference
2
PB + LED
10
-74
20
-28
30
0
41
1
42
1
43
0
50
0
70
1
71
1
44
1
45
1
0
INSERT
5
DE
100
AcDbEntity
8
0
6
DOT2
62
256
370
-1
100
AcDbBlockReference
2
PB + LED
10
-73.7952
20
-49.605325
30
0
41
1
42
1
43
0
50
0
70
1
71
1
44
1
45
1
0
INSERT
5
DF
100
AcDbEntity
8
0
6
DOT2
62
256
370
-1
100
AcDbBlockReference
2
PB + LED
10
-87.5168
20
-49.502925
30
0
41
1
42
1
43
0
50
0
70
1
71
1
44
1
45
1
0
ENDBLK
5
7E
330
7C
100
AcDbEntity
8
0
100
AcDbBlockEnd
0
BLOCK
5
80
330
7F
100
AcDbEntity
8
0
100
AcDbBlockBegin
2
LED 3x Line
70
0
10
0
20
0
3
LED 3x Line
1

0
INSERT
5
E0
100
AcDbEntity
8
0
6
ByLayer
62
256
370
-1
100
AcDbBlockReference
2
LED Holder
10
0.0072639970477
20
-0.00971370479095
30
0
41
1
42
1
43
0
50
0
70
1
71
1
44
1
45
1
0
INSERT
5
E1
100
AcDbEntity
8
0
6
ByLayer
62
256
370
-1
100
AcDbBlockReference
2
LED Holder
10
0.0072639970477
20
9.99028629521
30
0
41
1
42
1
43
0
50
0
70
1
71
1
44
1
45
1
0
INSERT
5
E2
100
AcDbEntity
8
0
6
ByLayer
62
256
370
-1
100
AcDbBlockReference
2
LED Holder
10
0.0072639970477
20
-10.0097137048
30
0
41
1
42
1
43
0
50
0
70
1
71
1
44
1
45
1
0
ENDBLK
5
81
330
7F
100
AcDbEntity
8
0
100
AcDbBlockEnd
0
BLOCK
5
83
330
82
100
AcDbEntity
8
0
100
AcDbBlockBegin
2
Selectors PBs LEDs LCD
70
0
10
0
20
0
3
Selectors PBs LEDs LCD
1

0
ENDBLK
5
84
330
82
100
AcDbEntity
8
0
100
AcDbBlockEnd
0
BLOCK
5
86
330
85
100
AcDbEntity
8
0
100
AcDbBlockBegin
2
LED Array
70
0
10
0
20
0
3
LED Array
1

0
ENDBLK
5
87
330
85
100
AcDbEntity
8
0
100
AcDbBlockEnd
0
BLOCK
5
89
330
88
100
AcDbEntity
8
0
100
AcDbBlockBegin
2
PCB-0
70
0
10
0
20
0
3
PCB-0
1

0
LINE
5
E3
100
AcDbEntity
8
0
6
ByLayer
62
256
370
-1
100
AcDbLine
10
0
20
0
11
180
21
0
0
LINE
5
E4
100
AcDbEntity
8
0
6
ByLayer
62
256
370
-1
100
AcDbLine
10
180
20
0
11
180
21
140
0
LINE
5
E5
100
AcDbEntity
8
0
6
ByLayer
62
256
370
-1
100
AcDbLine
10
180
20
140
11
0
21
140
0
LINE
5
E6
100
AcDbEntity
8
0
6
ByLayer
62
256
370
-1
100
AcDbLine
10
0
20
140
11
0
21
0
0
MTEXT
5
E7
100
AcDbEntity
8
0
6
ByLayer
62
256
370
-1
100
AcDbMText
10
90
20
70
30
0
40
5
41
11.1111111111
71
5
72
1
1
PCB
7
standard
210
0
220
0
230
1
50
0
73
2
44
1
0
ENDBLK
5
8A
330
88
100
AcDbEntity
8
0
100
AcDbBlockEnd
0
BLOCK
5
8C
330
8B
100
AcDbEntity
8
0
100
AcDbBlockBegin
2
LCD + 2 PBs REEL
70
0
10
0
20
0
3
LCD + 2 PBs REEL
1

0
CIRCLE
5
E8
100
AcDbEntity
8
0
6
ByLayer
62
256
370
-1
100
AcDbCircle
10
-2.599647552
20
-28.250236859
40
1.5
0
CIRCLE
5
E9
100
AcDbEntity
8
0
6
ByLayer
62
256
370
-1
100
AcDbCircle
10
72.400352448
20
-28.250236859
40
1.5
0
CIRCLE
5
EA
100
AcDbEntity
8
0
6
ByLayer
62
256
370
-1
100
AcDbCircle
10
72.400352448
20
2.749763141
40
1.5
0
CIRCLE
5
EB
100
AcDbEntity
8
0
6
ByLayer
62
256
370
-1
100
AcDbCircle
10
-2.6
20
2.75
40
1.5
0
LINE
5
EC
100
AcDbEntity
8
0
6
ByLayer
62
256
370
-1
100
AcDbLine
10
0
20
0
11
69.8
21
0
0
LINE
5
ED
100
AcDbEntity
8
0
6
ByLayer
62
256
370
-1
100
AcDbLine
10
69.8
20
0
11
69.8
21
-26.5
0
LINE
5
EE
100
AcDbEntity
8
0
6
ByLayer
62
256
370
-1
100
AcDbLine
10
69.8
20
-26.5
11
0
21
-26.5
0
LINE
5
EF
100
AcDbEntity
8
0
6
ByLayer
62
256
370
-1
100
AcDbLine
10
0
20
-26.5
11
0
21
0
0
MTEXT
5
F0
100
AcDbEntity
8
0
6
ByLayer
62
256
370
-1
100
AcDbMText
10
34.9
20
-13.25
30
0
40
5
41
28.75
71
5
72
1
1
LCD 16x2
7
standard
210
0
220
0
230
1
50
0
73
2
44
1
0
ENDBLK
5
8D
330
8B
100
AcDbEntity
8
0
100
AcDbBlockEnd
0
BLOCK
5
8F
330
8E
100
AcDbEntity
8
0
100
AcDbBlockBegin
2
LCD final-0
70
0
10
0
20
0
3
LCD final-0
1

0
INSERT
5
F1
100
AcDbEntity
8
0
6
ByLayer
62
256
370
-1
100
AcDbBlockReference
2
LCD + 2 PBs REEL
10
-294.232
20
-368.647
30
0
41
1
42
1
43
0
50
0
70
1
71
1
44
0
45
0
0
ENDBLK
5
90
330
8E
100
AcDbEntity
8
0
100
AcDbBlockEnd
0
BLOCK
5
92
330
91
100
AcDbEntity
8
0
100
AcDbBlockBegin
2
LCD+2 PBs layered
70
0
10
0
20
0
3
LCD+2 PBs layered
1

0
INSERT
5
F2
100
AcDbEntity
8
0
6
ByLayer
62
256
370
-1
100
AcDbBlockReference
2
LCD + 2 PBs REEL-0
10
0
20
26.5
30
0
41
1
42
1
43
0
50
0
70
1
71
1
44
0
45
0
0
INSERT
5
F3
100
AcDbEntity
8
0
6
ByLayer
62
256
370
-1
100
AcDbBlockReference
2
Pushbutton (non latching)-0
10
42.9
20
-8
30
0
41
1
42
1
43
0
50
0
70
1
71
1
44
1
45
1
0
INSERT
5
F4
100
AcDbEntity
8
0
6
ByLayer
62
256
370
-1
100
AcDbBlockReference
2
Pushbutton (non latching)-0
10
31.9
20
-8
30
0
41
1
42
1
43
0
50
0
70
1
71
1
44
1
45
1
0
ENDBLK
5
93
330
91
100
AcDbEntity
8
0
100
AcDbBlockEnd
0
BLOCK
5
95
330
94
100
AcDbEntity
8
0
100
AcDbBlockBegin
2
LCD + 2 PBs REEL-0
70
0
10
0
20
0
3
LCD + 2 PBs REEL-0
1

0
CIRCLE
5
F5
100
AcDbEntity
8
0
6
ByLayer
62
256
370
-1
100
AcDbCircle
10
-2.599647552
20
-28.250236859
40
1.5
0
CIRCLE
5
F6
100
AcDbEntity
8
0
6
ByLayer
62
256
370
-1
100
AcDbCircle
10
72.400352448
20
-28.250236859
40
1.5
0
CIRCLE
5
F7
100
AcDbEntity
8
0
6
ByLayer
62
256
370
-1
100
AcDbCircle
10
72.400352448
20
2.749763141
40
1.5
0
CIRCLE
5
F8
100
AcDbEntity
8
0
6
ByLayer
62
256
370
-1
100
AcDbCircle
10
-2.6
20
2.75
40
1.5
0
LINE
5
F9
100
AcDbEntity
8
0
6
ByLayer
62
256
370
-1
100
AcDbLine
10
0
20
0
11
69.8
21
0
0
LINE
5
FA
100
AcDbEntity
8
0
6
ByLayer
62
256
370
-1
100
AcDbLine
10
69.8
20
0
11
69.8
21
-26.5
0
LINE
5
FB
100
AcDbEntity
8
0
6
ByLayer
62
256
370
-1
100
AcDbLine
10
69.8
20
-26.5
11
0
21
-26.5
0
LINE
5
FC
100
AcDbEntity
8
0
6
ByLayer
62
256
370
-1
100
AcDbLine
10
0
20
-26.5
11
0
21
0
0
MTEXT
5
FD
100
AcDbEntity
8
0
6
ByLayer
62
256
370
-1
100
AcDbMText
10
34.9
20
-13.25
30
0
40
5
41
28.75
71
5
72
1
1
LCD 16x2
7
standard
210
0
220
0
230
1
50
0
73
2
44
1
0
ENDBLK
5
96
330
94
100
AcDbEntity
8
0
100
AcDbBlockEnd
0
BLOCK
5
98
330
97
100
AcDbEntity
8
0
100
AcDbBlockBegin
2
Pushbutton (non latching)-0
70
0
10
0
20
0
3
Pushbutton (non latching)-0
1

0
LINE
5
FE
100
AcDbEntity
8
0
6
ByLayer
62
256
370
-1
100
AcDbLine
10
-3
20
-3
11
3
21
-3
0
LINE
5
FF
100
AcDbEntity
8
0
6
ByLayer
62
256
370
-1
100
AcDbLine
10
3
20
-3
11
3
21
3
0
LINE
5
100
100
AcDbEntity
8
0
6
ByLayer
62
256
370
-1
100
AcDbLine
10
3
20
3
11
-3
21
3
0
LINE
5
101
100
AcDbEntity
8
0
6
ByLayer
62
256
370
-1
100
AcDbLine
10
-3
20
3
11
-3
21
-3
0
ENDBLK
5
99
330
97
100
AcDbEntity
8
0
100
AcDbBlockEnd
0
BLOCK
5
9B
330
9A
100
AcDbEntity
8
0
100
AcDbBlockBegin
2
5 position selector REAL
70
0
10
0
20
0
3
5 position selector REAL
1

0
CIRCLE
5
102
100
AcDbEntity
8
0
6
ByLayer
62
256
370
-1
100
AcDbCircle
10
-44.5
20
-5.75
40
1.5
0
CIRCLE
5
103
100
AcDbEntity
8
0
6
ByLayer
62
256
370
-1
100
AcDbCircle
10
-3.5
20
-5.75
40
1.5
0
LINE
5
104
100
AcDbEntity
8
0
6
ByLayer
62
256
370
-1
100
AcDbLine
10
-36.75
20
-7
11
-11.25
21
-7
0
LINE
5
105
100
AcDbEntity
8
0
6
ByLayer
62
256
370
-1
100
AcDbLine
10
-11.25
20
-7
11
-11.25
21
-4.5
0
LINE
5
106
100
AcDbEntity
8
0
6
ByLayer
62
256
370
-1
100
AcDbLine
10
-11.25
20
-4.5
11
-36.75
21
-4.5
0
LINE
5
107
100
AcDbEntity
8
0
6
ByLayer
62
256
370
-1
100
AcDbLine
10
-36.75
20
-4.5
11
-36.75
21
-7
0
ENDBLK
5
9C
330
9A
100
AcDbEntity
8
0
100
AcDbBlockEnd
0
BLOCK
5
9E
330
9D
100
AcDbEntity
8
0
100
AcDbBlockBegin
2
Selector Cross REAL
70
0
10
0
20
0
3
Selector Cross REAL
1

0
CIRCLE
5
108
100
AcDbEntity
8
0
6
ByLayer
62
256
370
-1
100
AcDbCircle
10
3.5
20
-5.75
40
1.5
0
CIRCLE
5
109
100
AcDbEntity
8
0
6
ByLayer
62
256
370
-1
100
AcDbCircle
10
44.5
20
-5.75
40
1.5
0
LINE
5
10A
100
AcDbEntity
8
0
6
ByLayer
62
256
370
-1
100
AcDbLine
10
11.25
20
-7
11
36.75
21
-7
0
LINE
5
10B
100
AcDbEntity
8
0
6
ByLayer
62
256
370
-1
100
AcDbLine
10
36.75
20
-7
11
36.75
21
-4.5
0
LINE
5
10C
100
AcDbEntity
8
0
6
ByLayer
62
256
370
-1
100
AcDbLine
10
36.75
20
-4.5
11
11.25
21
-4.5
0
LINE
5
10D
100
AcDbEntity
8
0
6
ByLayer
62
256
370
-1
100
AcDbLine
10
11.25
20
-4.5
11
11.25
21
-7
0
CIRCLE
5
10E
100
AcDbEntity
8
0
6
ByLayer
62
256
370
-1
100
AcDbCircle
10
53.75
20
-26.25
40
1.5
0
CIRCLE
5
10F
100
AcDbEntity
8
0
6
ByLayer
62
256
370
-1
100
AcDbCircle
10
53.75
20
14.75
40
1.5
0
LINE
5
110
100
AcDbEntity
8
0
6
ByLayer
62
256
370
-1
100
AcDbLine
10
55
20
-18.5
11
55
21
7
0
LINE
5
111
100
AcDbEntity
8
0
6
ByLayer
62
256
370
-1
100
AcDbLine
10
55
20
7
11
52.5
21
7
0
LINE
5
112
100
AcDbEntity
8
0
6
ByLayer
62
256
370
-1
100
AcDbLine
10
52.5
20
7
11
52.5
21
-18.5
0
LINE
5
113
100
AcDbEntity
8
0
6
ByLayer
62
256
370
-1
100
AcDbLine
10
52.5
20
-18.5
11
55
21
-18.5
0
ENDBLK
5
9F
330
9D
100
AcDbEntity
8
0
100
AcDbBlockEnd
0
ENDSEC
0
SECTION
2
ENTITIES
0
LINE
5
114
100
AcDbEntity
8
0
6
ByLayer
62
256
370
-1
100
AcDbLine
10
99.83246524
20
116.3218192
11
97.9401058241
21
116.170726536
0
LINE
5
115
100
AcDbEntity
8
0
6
ByLayer
62
256
370
-1
100
AcDbLine
10
42.2111001374
20
42.1292335115
11
41.6408310336
21
37.0582278574
0
LINE
5
116
100
AcDbEntity
8
0
6
ByLayer
62
256
370
-1
100
AcDbLine
10
40.5364096845
20
-3.3280956777
11
40.558524441
21
-7.82104347622
0
LINE
5
117
100
AcDbEntity
8
0
6
ByLayer
62
256
370
-1
100
AcDbLine
10
40.5441294357
20
1.03002031554
11
40.5368444487
21
-3.58807684401
0
LINE
5
118
100
AcDbEntity
8
0
6
ByLayer
62
256
370
-1
100
AcDbLine
10
40.5811033838
20
5.5115447288
11
40.5428791513
21
0.770625376874
0
LINE
5
119
100
AcDbEntity
8
0
6
ByLayer
62
256
370
-1
100
AcDbLine
10
40.6488767009
20
10.1137667198
11
40.5781737208
21
5.25235234411
0
LINE
5
11A
100
AcDbEntity
8
0
6
ByLayer
62
256
370
-1
100
AcDbLine
10
40.7489852584
20
14.8340166754
11
40.6442640284
21
9.85443444464
0
LINE
5
11B
100
AcDbEntity
8
0
6
ByLayer
62
256
370
-1
100
AcDbLine
10
40.8602808105
20
19.9970967744
11
40.7426778109
21
14.574237131
0
LINE
5
11C
100
AcDbEntity
8
0
6
ByLayer
62
256
370
-1
100
AcDbLine
10
40.5563881941
20
-7.56004366051
11
40.6063631917
21
-11.9255149293
0
LINE
5
11D
100
AcDbEntity
8
0
6
ByLayer
62
256
370
-1
100
AcDbLine
10
40.6731508414
20
-15.6340959311
11
40.7742278151
21
-19.7376326346
0
LINE
5
11E
100
AcDbEntity
8
0
6
ByLayer
62
256
370
-1
100
AcDbLine
10
40.6024964157
20
-11.663006064
11
40.6787921525
21
-15.8986736345
0
LINE
5
11F
100
AcDbEntity
8
0
6
ByLayer
62
256
370
-1
100
AcDbLine
10
40.7667499981
20
-19.4703427076
11
40.8910687066
21
-23.4394213755
0
LINE
5
120
100
AcDbEntity
8
0
6
ByLayer
62
256
370
-1
100
AcDbLine
10
40.8816705697
20
-23.1686744036
11
41.0276915108
21
-27.0009678672
0
LINE
5
121
100
AcDbEntity
8
0
6
ByLayer
62
256
370
-1
100
AcDbLine
10
41.0162623428
20
-26.7258950004
11
41.1824460144
21
-30.419076091
0
LINE
5
122
100
AcDbEntity
8
0
6
ByLayer
62
256
370
-1
100
AcDbLine
10
41.1688415538
20
-30.1386555626
11
41.3536484538
21
-33.6903971116
0
LINE
5
123
100
AcDbEntity
8
0
6
ByLayer
62
256
370
-1
100
AcDbLine
10
41.3376820295
20
-33.4034169166
11
41.5395726556
21
-36.8113917554
0
LINE
5
124
100
AcDbEntity
8
0
6
ByLayer
62
256
370
-1
100
AcDbLine
10
41.5210032363
20
-36.516400885
11
41.7384380865
21
-39.7782818449
0
LINE
5
125
100
AcDbEntity
8
0
6
ByLayer
62
256
370
-1
100
AcDbLine
10
41.7169539341
20
-39.4735257745
11
41.9483935063
21
-42.5869856868
0
LINE
5
126
100
AcDbEntity
8
0
6
ByLayer
62
256
370
-1
100
AcDbLine
10
41.923589463
20
-42.270319866
11
42.1674942549
21
-45.233031562
0
LINE
5
127
100
AcDbEntity
8
0
6
ByLayer
62
256
370
-1
100
AcDbLine
10
42.1388396308
20
-44.9018036555
11
42.3936701403
21
-47.7114399667
0
LINE
5
128
100
AcDbEntity
8
0
6
ByLayer
62
256
370
-1
100
AcDbLine
10
46.621034917
20
-70.9822358469
11
47.0922206375
21
-72.5513817497
0
LINE
5
129
100
AcDbEntity
8
0
6
ByLayer
62
256
370
-1
100
AcDbLine
10
56.0946951669
20
-92.0499132984
11
56.467233073
21
-92.605048393
0
LINE
5
12A
100
AcDbEntity
8
0
6
ByLayer
62
256
370
-1
100
AcDbLine
10
56.0946951669
20
-92.0499132984
11
56.467233073
21
-92.605048393
0
LINE
5
12B
100
AcDbEntity
8
0
6
ByLayer
62
256
370
-1
100
AcDbLine
10
57.6573580932
20
-94.3849251422
11
58.0274338519
21
-94.9403274983
0
LINE
5
12C
100
AcDbEntity
8
0
6
ByLayer
62
256
370
-1
100
AcDbLine
10
61.0168370073
20
-99.461053988
11
61.3447367026
21
-99.9609760782
0
LINE
5
12D
100
AcDbEntity
8
0
6
ByLayer
62
256
370
-1
100
AcDbLine
10
64.9346326562
20
-104.143642123
11
67.2028760342
21
-105.527367033
0
LINE
5
12E
100
AcDbEntity
8
0
6
ByLayer
62
256
370
-1
100
AcDbLine
10
67.0693831145
20
-105.446287864
11
69.2193012927
21
-106.746337875
0
LINE
5
12F
100
AcDbEntity
8
0
6
ByLayer
62
256
370
-1
100
AcDbLine
10
69.0788427158
20
-106.66179553
11
71.1140785877
21
-107.881134073
0
LINE
5
130
100
AcDbEntity
8
0
6
ByLayer
62
256
370
-1
100
AcDbLine
10
70.9662411347
20
-107.792994247
11
72.8904375941
21
-108.93458475
0
LINE
5
131
100
AcDbEntity
8
0
6
ByLayer
62
256
370
-1
100
AcDbLine
10
72.7348003014
20
-108.842722711
11
74.5516002419
21
-109.909528606
0
LINE
5
132
100
AcDbEntity
8
0
6
ByLayer
62
256
370
-1
100
AcDbLine
10
74.387741978
20
-109.813834692
11
76.1007882931
21
-110.808819407
0
LINE
5
133
100
AcDbEntity
8
0
6
ByLayer
62
256
370
-1
100
AcDbLine
10
75.9282986258
20
-110.709206165
11
77.5412342092
21
-111.635333131
0
LINE
5
134
100
AcDbEntity
8
0
6
ByLayer
62
256
370
-1
100
AcDbLine
10
77.3597286762
20
-111.531744508
11
78.8761964215
21
-112.391977154
0
LINE
5
135
100
AcDbEntity
8
0
6
ByLayer
62
256
370
-1
100
AcDbLine
10
78.685337664
20
-112.284400281
11
80.1089804648
21
-113.081702039
0
LINE
5
136
100
AcDbEntity
8
0
6
ByLayer
62
256
370
-1
100
AcDbLine
10
79.9085071203
20
-112.970182231
11
81.2429678703
21
-113.707516529
0
LINE
5
137
100
AcDbEntity
8
0
6
ByLayer
62
256
370
-1
100
AcDbLine
10
81.0327336737
20
-113.592176281
11
82.2816552664
21
-114.272506549
0
LINE
5
138
100
AcDbEntity
8
0
6
ByLayer
62
256
370
-1
100
AcDbLine
10
82.0616814816
20
-114.153569446
11
83.2287068107
21
-114.779859114
0
LINE
5
139
100
AcDbEntity
8
0
6
ByLayer
62
256
370
-1
100
AcDbLine
10
82.9992519115
20
-114.657679726
11
84.0880238706
21
-115.232892224
0
LINE
5
13A
100
AcDbEntity
8
0
6
ByLayer
62
256
370
-1
100
AcDbLine
10
83.8496752832
20
-115.107993216
11
84.8638367661
21
-115.635091975
0
LINE
5
13B
100
AcDbEntity
8
0
6
ByLayer
62
256
370
-1
100
AcDbLine
10
84.6176303921
20
-115.508209791
11
85.5608242922
21
-115.99015824
0
LINE
5
13C
100
AcDbEntity
8
0
6
ByLayer
62
256
370
-1
100
AcDbLine
10
85.308398276
20
-115.862298796
11
86.1842674871
21
-116.302060364
0
LINE
5
13D
100
AcDbEntity
8
0
6
ByLayer
62
256
370
-1
100
AcDbLine
10
86.9838425523
20
-116.693036222
11
87.6795950579
21
-117.024017731
0
LINE
5
13E
100
AcDbEntity
8
0
6
ByLayer
62
256
370
-1
100
AcDbLine
10
88.2626013872
20
-117.294078191
11
88.8110232299
21
-117.542950508
0
LINE
5
13F
100
AcDbEntity
8
0
6
ByLayer
62
256
370
-1
100
AcDbLine
10
88.6637658352
20
-117.476483816
11
89.1703632441
21
-117.703913261
0
LINE
5
140
100
AcDbEntity
8
0
6
ByLayer
62
256
370
-1
100
AcDbLine
10
89.083447131
20
-117.665017791
11
89.5518629999
21
-117.873967796
0
LINE
5
141
100
AcDbEntity
8
0
6
ByLayer
62
256
370
-1
100
AcDbLine
10
90.6601268707
20
-118.151266275
11
91.8027945673
21
-118.179077536
0
LINE
5
142
100
AcDbEntity
8
0
6
ByLayer
62
256
370
-1
100
AcDbLine
10
91.5204932003
20
-118.173203537
11
92.7296744907
21
-118.19409423
0
LINE
5
143
100
AcDbEntity
8
0
6
ByLayer
62
256
370
-1
100
AcDbLine
10
92.4848399454
20
-118.190613853
11
93.7636891404
21
-118.204878109
0
LINE
5
144
100
AcDbEntity
8
0
6
ByLayer
62
256
370
-1
100
AcDbLine
10
92.4848399454
20
-118.190613853
11
93.7636891404
21
-118.204878109
0
LINE
5
145
100
AcDbEntity
8
0
6
ByLayer
62
256
370
-1
100
AcDbLine
10
93.5522837891
20
-118.203078826
11
94.9039551993
21
-118.211010773
0
LINE
5
146
100
AcDbEntity
8
0
6
ByLayer
62
256
370
-1
100
AcDbLine
10
90.6601268707
20
-118.151266275
11
91.8027945673
21
-118.179077536
0
LINE
5
147
100
AcDbEntity
8
0
6
ByLayer
62
256
370
-1
100
AcDbLine
10
92.4848399454
20
-118.190613853
11
93.7636891404
21
-118.204878109
0
LINE
5
148
100
AcDbEntity
8
0
6
ByLayer
62
256
370
-1
100
AcDbLine
10
93.5522837891
20
-118.203078826
11
94.9039551993
21
-118.211010773
0
LINE
5
149
100
AcDbEntity
8
0
6
ByLayer
62
256
370
-1
100
AcDbLine
10
94.722288978
20
-118.210357255
11
96.1499369141
21
-118.212251024
0
LINE
5
14A
100
AcDbEntity
8
0
6
ByLayer
62
256
370
-1
100
AcDbLine
10
95.9946652518
20
-118.212346424
11
97.5014440246
21
-118.208496144
0
LINE
5
14B
100
AcDbEntity
8
0
6
ByLayer
62
256
370
-1
100
AcDbLine
10
95.9946652518
20
-118.212346424
11
97.5014440246
21
-118.208496144
0
LINE
5
14C
100
AcDbEntity
8
0
6
ByLayer
62
256
370
-1
100
AcDbLine
10
97.3695548211
20
-118.2090506
11
98.9586187413
21
-118.199750401
0
LINE
5
14D
100
AcDbEntity
8
0
6
ByLayer
62
256
370
-1
100
AcDbLine
10
97.3695548211
20
-118.2090506
11
98.9586187413
21
-118.199750401
0
LINE
5
14E
100
AcDbEntity
8
0
6
ByLayer
62
256
370
-1
100
AcDbLine
10
97.3695548211
20
-118.2090506
11
98.9586187413
21
-118.199750401
0
LINE
5
14F
100
AcDbEntity
8
0
6
ByLayer
62
256
370
-1
100
AcDbLine
10
85.9280569404
20
-116.17456619
11
86.9838425523
21
-116.693036222
0
LINE
5
150
100
AcDbEntity
8
0
6
ByLayer
62
256
370
-1
100
AcDbLine
10
87.6795950579
20
-117.024017731
11
88.4538227832
21
-117.381460678
0
LINE
5
151
100
AcDbEntity
8
0
6
ByLayer
62
256
370
-1
100
AcDbLine
10
62.0386754019
20
-101.022141853
11
64.9346326562
21
-104.143642123
0
LINE
5
152
100
AcDbEntity
8
0
6
ByLayer
62
256
370
-1
100
AcDbLine
10
61.7052638457
20
-100.511727869
11
62.0386754019
21
-101.022141853
0
LINE
5
153
100
AcDbEntity
8
0
6
ByLayer
62
256
370
-1
100
AcDbLine
10
61.3447367026
20
-99.9609760782
11
61.7052638457
21
-100.511727869
0
LINE
5
154
100
AcDbEntity
8
0
6
ByLayer
62
256
370
-1
100
AcDbLine
10
61.3447367026
20
-99.9609760782
11
61.7052638457
21
-100.511727869
0
LINE
5
155
100
AcDbEntity
8
0
6
ByLayer
62
256
370
-1
100
AcDbLine
10
60.6442547884
20
-98.8940791335
11
61.0168370073
21
-99.461053988
0
LINE
5
156
100
AcDbEntity
8
0
6
ByLayer
62
256
370
-1
100
AcDbLine
10
98.8474126766
20
-118.200555844
11
99.9312106647
21
-118.191199416
0
ARC
5
157
100
AcDbEntity
8
0
6
ByBlock
62
256
370
-1
100
AcDbCircle
10
99.6915158197
20
-138.150337834
40
19.9605776476
100
AcDbArc
50
263.959107903
51
89.3119521228
0
ARC
5
158
100
AcDbEntity
8
0
6
ByBlock
62
256
370
-1
100
AcDbCircle
10
99.83246524
20
136.354469195
40
20.032649995
100
AcDbArc
50
270
51
89.7175751088
0
LINE
5
159
100
AcDbEntity
8
0
6
ByLayer
62
256
370
-1
100
AcDbLine
10
98.6188307766
20
116.230740169
11
97.1523073717
21
116.088470281
0
LINE
5
15A
100
AcDbEntity
8
0
6
ByLayer
62
256
370
-1
100
AcDbLine
10
97.1523073717
20
116.088470281
11
95.6305711647
21
115.911310854
0
LINE
5
15B
100
AcDbEntity
8
0
6
ByLayer
62
256
370
-1
100
AcDbLine
10
95.6305711647
20
115.911310854
11
94.3805954584
21
115.71441188
0
LINE
5
15C
100
AcDbEntity
8
0
6
ByLayer
62
256
370
-1
100
AcDbLine
10
93.6258535045
20
115.578178222
11
92.4616360119
21
115.339848053
0
LINE
5
15D
100
AcDbEntity
8
0
6
ByLayer
62
256
370
-1
100
AcDbLine
10
94.3805954584
20
115.71441188
11
93.6258535045
21
115.578178222
0
LINE
5
15E
100
AcDbEntity
8
0
6
ByLayer
62
256
370
-1
100
AcDbLine
10
92.4616360119
20
115.339848053
11
90.9893229587
21
114.933856144
0
LINE
5
15F
100
AcDbEntity
8
0
6
ByLayer
62
256
370
-1
100
AcDbLine
10
90.9893229587
20
114.933856144
11
90.1953227528
21
114.687563862
0
LINE
5
160
100
AcDbEntity
8
0
6
ByLayer
62
256
370
-1
100
AcDbLine
10
90.1953227528
20
114.687563862
11
89.2536428443
21
114.344011703
0
LINE
5
161
100
AcDbEntity
8
0
6
ByLayer
62
256
370
-1
100
AcDbLine
10
89.2536428443
20
114.344011703
11
88.5723082623
21
114.077136813
0
LINE
5
162
100
AcDbEntity
8
0
6
ByLayer
62
256
370
-1
100
AcDbLine
10
88.5723082623
20
114.077136813
11
87.3936690457
21
113.582189686
0
LINE
5
163
100
AcDbEntity
8
0
6
ByLayer
62
256
370
-1
100
AcDbLine
10
87.3936690457
20
113.582189686
11
86.1512280819
21
113.001488992
0
LINE
5
164
100
AcDbEntity
8
0
6
ByLayer
62
256
370
-1
100
AcDbLine
10
86.1512280819
20
113.001488992
11
85.1889210387
21
112.52971949
0
LINE
5
165
100
AcDbEntity
8
0
6
ByLayer
62
256
370
-1
100
AcDbLine
10
85.1889210387
20
112.52971949
11
84.1380438609
21
111.992053651
0
LINE
5
166
100
AcDbEntity
8
0
6
ByLayer
62
256
370
-1
100
AcDbLine
10
84.138043861
20
111.992053651
11
82.9939979933
21
111.384075976
0
LINE
5
167
100
AcDbEntity
8
0
6
ByLayer
62
256
370
-1
100
AcDbLine
10
82.9939979933
20
111.384075976
11
81.7531836607
21
110.702194635
0
LINE
5
168
100
AcDbEntity
8
0
6
ByLayer
62
256
370
-1
100
AcDbLine
10
81.7531836607
20
110.702194635
11
80.4127721652
21
109.943606983
0
LINE
5
169
100
AcDbEntity
8
0
6
ByLayer
62
256
370
-1
100
AcDbLine
10
80.4127721652
20
109.943606983
11
78.9704938777
21
109.106228404
0
LINE
5
16A
100
AcDbEntity
8
0
6
ByLayer
62
256
370
-1
100
AcDbLine
10
78.9704938777
20
109.106228404
11
77.7328801228
21
108.371661587
0
LINE
5
16B
100
AcDbEntity
8
0
6
ByLayer
62
256
370
-1
100
AcDbLine
10
77.7328801228
20
108.371661587
11
75.5424181236
21
106.992627341
0
LINE
5
16C
100
AcDbEntity
8
0
6
ByLayer
62
256
370
-1
100
AcDbLine
10
75.5424181236
20
106.992627341
11
73.68672808
21
105.708439038
0
LINE
5
16D
100
AcDbEntity
8
0
6
ByLayer
62
256
370
-1
100
AcDbLine
10
73.68672808
20
105.708439038
11
71.8639607455
21
104.327550346
0
LINE
5
16E
100
AcDbEntity
8
0
6
ByLayer
62
256
370
-1
100
AcDbLine
10
71.8639607455
20
104.327550346
11
70.0724391863
21
102.846725617
0
LINE
5
16F
100
AcDbEntity
8
0
6
ByLayer
62
256
370
-1
100
AcDbLine
10
70.0724391863
20
102.846725617
11
68.311312122
21
101.262722016
0
LINE
5
170
100
AcDbEntity
8
0
6
ByLayer
62
256
370
-1
100
AcDbLine
10
68.311312122
20
101.262722016
11
66.5805133787
21
99.5724050344
0
LINE
5
171
100
AcDbEntity
8
0
6
ByLayer
62
256
370
-1
100
AcDbLine
10
66.5805133787
20
99.5724050344
11
64.8807029659
21
97.7728473956
0
LINE
5
172
100
AcDbEntity
8
0
6
ByLayer
62
256
370
-1
100
AcDbLine
10
64.8807029659
20
97.7728473956
11
63.2131948204
21
95.8614095021
0
LINE
5
173
100
AcDbEntity
8
0
6
ByLayer
62
256
370
-1
100
AcDbLine
10
63.2131948204
20
95.8614095021
11
61.5798761596
21
93.8358008811
0
LINE
5
174
100
AcDbEntity
8
0
6
ByLayer
62
256
370
-1
100
AcDbLine
10
61.5798761596
20
93.8358008811
11
59.9831229597
21
91.6941232259
0
LINE
5
175
100
AcDbEntity
8
0
6
ByLayer
62
256
370
-1
100
AcDbLine
10
59.9831229597
20
91.6941232259
11
58.4257154263
21
89.4348964779
0
LINE
5
176
100
AcDbEntity
8
0
6
ByLayer
62
256
370
-1
100
AcDbLine
10
58.4257154263
20
89.4348964779
11
56.9107565629
21
87.0570699717
0
LINE
5
177
100
AcDbEntity
8
0
6
ByLayer
62
256
370
-1
100
AcDbLine
10
56.9107565629
20
87.0570699717
11
55.4415961509
21
84.5600209836
0
LINE
5
178
100
AcDbEntity
8
0
6
ByLayer
62
256
370
-1
100
AcDbLine
10
55.4415961509
20
84.5600209836
11
54.0217617109
21
81.943543122
0
LINE
5
179
100
AcDbEntity
8
0
6
ByLayer
62
256
370
-1
100
AcDbLine
10
54.0217617109
20
81.943543122
11
52.6548973512
21
79.2078269298
0
LINE
5
17A
100
AcDbEntity
8
0
6
ByLayer
62
256
370
-1
100
AcDbLine
10
52.6548973512
20
79.2078269298
11
51.3447108642
21
76.3534348791
0
LINE
5
17B
100
AcDbEntity
8
0
6
ByLayer
62
256
370
-1
100
AcDbLine
10
51.3447108642
20
76.3534348791
11
50.0949290009
21
73.3812726758
0
LINE
5
17C
100
AcDbEntity
8
0
6
ByLayer
62
256
370
-1
100
AcDbLine
10
50.0949290009
20
73.3812726758
11
48.9092605402
21
70.292558494
0
LINE
5
17D
100
AcDbEntity
8
0
6
ByLayer
62
256
370
-1
100
AcDbLine
10
48.9092605402
20
70.292558494
11
47.7913665561
21
67.0887914594
0
LINE
5
17E
100
AcDbEntity
8
0
6
ByLayer
62
256
370
-1
100
AcDbLine
10
47.7913665561
20
67.0887914594
11
46.7448371634
21
63.7717204113
0
LINE
5
17F
100
AcDbEntity
8
0
6
ByLayer
62
256
370
-1
100
AcDbLine
10
46.7448371634
20
63.7717204113
11
45.77317396
21
60.3433137091
0
LINE
5
180
100
AcDbEntity
8
0
6
ByLayer
62
256
370
-1
100
AcDbLine
10
45.77317396
20
60.3433137091
11
44.8797773836
21
56.8057306429
0
LINE
5
181
100
AcDbEntity
8
0
6
ByLayer
62
256
370
-1
100
AcDbLine
10
44.8797773836
20
56.8057306429
11
44.0679382202
21
53.1612947769
0
LINE
5
182
100
AcDbEntity
8
0
6
ByLayer
62
256
370
-1
100
AcDbLine
10
44.0679382202
20
53.1612947769
11
43.3408325757
21
49.4124694914
0
LINE
5
183
100
AcDbEntity
8
0
6
ByLayer
62
256
370
-1
100
AcDbLine
10
42.7015196528
20
45.5618357144
11
42.0813483282
21
41.0965985372
0
LINE
5
184
100
AcDbEntity
8
0
6
ByLayer
62
256
370
-1
100
AcDbLine
10
43.3408325757
20
49.4124694914
11
42.7015196528
21
45.5618357144
0
LINE
5
185
100
AcDbEntity
8
0
6
ByLayer
62
256
370
-1
100
AcDbLine
10
41.7420354608
20
38.0749377568
11
41.339188665
21
33.4262515875
0
LINE
5
186
100
AcDbEntity
8
0
6
ByLayer
62
256
370
-1
100
AcDbLine
10
41.339188665
20
33.4262515875
11
41.0793365787
21
29.1958898052
0
LINE
5
187
100
AcDbEntity
8
0
6
ByLayer
62
256
370
-1
100
AcDbLine
10
41.339188665
20
33.4262515875
11
41.0793365787
21
29.1958898052
0
LINE
5
188
100
AcDbEntity
8
0
6
ByLayer
62
256
370
-1
100
AcDbLine
10
41.0793365787
20
29.1958898052
11
40.9208750429
21
24.8777618592
0
LINE
5
189
100
AcDbEntity
8
0
6
ByLayer
62
256
370
-1
100
AcDbLine
10
40.9208750429
20
24.8777618592
11
40.8602808105
21
19.9970967744
0
LINE
5
18A
100
AcDbEntity
8
0
6
ByLayer
62
256
370
-1
100
AcDbLine
10
59.9193449692
20
-97.7940046276
11
60.2846005949
21
-98.3478032333
0
LINE
5
18B
100
AcDbEntity
8
0
6
ByLayer
62
256
370
-1
100
AcDbLine
10
60.2846005949
20
-98.3478032333
11
60.6442547884
21
-98.8940791335
0
LINE
5
18C
100
AcDbEntity
8
0
6
ByLayer
62
256
370
-1
100
AcDbLine
10
59.5490069225
20
-97.2334770775
11
59.9193449692
21
-97.7940046276
0
LINE
5
18D
100
AcDbEntity
8
0
6
ByLayer
62
256
370
-1
100
AcDbLine
10
59.1741130841
20
-96.6670269986
11
59.5490069225
21
-97.2334770775
0
LINE
5
18E
100
AcDbEntity
8
0
6
ByLayer
62
256
370
-1
100
AcDbLine
10
58.7951955413
20
-96.0954700724
11
59.1741130841
21
-96.6670269986
0
LINE
5
18F
100
AcDbEntity
8
0
6
ByLayer
62
256
370
-1
100
AcDbLine
10
58.0274338519
20
-94.9403274983
11
58.412789953
21
-95.5196283195
0
LINE
5
190
100
AcDbEntity
8
0
6
ByLayer
62
256
370
-1
100
AcDbLine
10
58.412789953
20
-95.5196283195
11
58.7951955413
21
-96.0954700724
0
LINE
5
191
100
AcDbEntity
8
0
6
ByLayer
62
256
370
-1
100
AcDbLine
10
57.6396650626
20
-94.3583947167
11
58.0274338519
21
-94.9403274983
0
LINE
5
192
100
AcDbEntity
8
0
6
ByLayer
62
256
370
-1
100
AcDbLine
10
57.2500201756
20
-93.7746561613
11
57.6396650626
21
-94.3583947167
0
LINE
5
193
100
AcDbEntity
8
0
6
ByLayer
62
256
370
-1
100
AcDbLine
10
56.8590330191
20
-93.1899348594
11
57.2500201756
21
-93.7746561613
0
LINE
5
194
100
AcDbEntity
8
0
6
ByLayer
62
256
370
-1
100
AcDbLine
10
56.467233073
20
-92.605048393
11
56.8590330191
21
-93.1899348594
0
LINE
5
195
100
AcDbEntity
8
0
6
ByLayer
62
256
370
-1
100
AcDbLine
10
55.6188566763
20
-91.3283025046
11
56.2491106179
21
-92.2817551721
0
LINE
5
196
100
AcDbEntity
8
0
6
ByLayer
62
256
370
-1
100
AcDbLine
10
55.1564124212
20
-90.6058358952
11
55.6188566763
21
-91.3283025046
0
LINE
5
197
100
AcDbEntity
8
0
6
ByLayer
62
256
370
-1
100
AcDbLine
10
54.6983568289
20
-89.8666987697
11
55.1564124212
21
-90.6058358952
0
LINE
5
198
100
AcDbEntity
8
0
6
ByLayer
62
256
370
-1
100
AcDbLine
10
54.2447872431
20
-89.1105935212
11
54.6983568289
21
-89.8666987697
0
LINE
5
199
100
AcDbEntity
8
0
6
ByLayer
62
256
370
-1
100
AcDbLine
10
53.7958147678
20
-88.3372323485
11
54.2447872431
21
-89.1105935212
0
LINE
5
19A
100
AcDbEntity
8
0
6
ByLayer
62
256
370
-1
100
AcDbLine
10
53.3515634936
20
-87.546337828
11
53.7958147678
21
-88.3372323485
0
LINE
5
19B
100
AcDbEntity
8
0
6
ByLayer
62
256
370
-1
100
AcDbLine
10
52.9121696451
20
-86.7376433097
11
53.3515634936
21
-87.546337828
0
LINE
5
19C
100
AcDbEntity
8
0
6
ByLayer
62
256
370
-1
100
AcDbLine
10
52.4777807802
20
-85.9108933497
11
52.9121696451
21
-86.7376433097
0
LINE
5
19D
100
AcDbEntity
8
0
6
ByLayer
62
256
370
-1
100
AcDbLine
10
52.0485549184
20
-85.0658439526
11
52.4777807802
21
-85.9108933497
0
LINE
5
19E
100
AcDbEntity
8
0
6
ByLayer
62
256
370
-1
100
AcDbLine
10
51.6246597323
20
-84.2022628586
11
52.0485549184
21
-85.0658439526
0
LINE
5
19F
100
AcDbEntity
8
0
6
ByLayer
62
256
370
-1
100
AcDbLine
10
51.2062716957
20
-83.3199296722
11
51.6246597323
21
-84.2022628586
0
LINE
5
1A0
100
AcDbEntity
8
0
6
ByLayer
62
256
370
-1
100
AcDbLine
10
50.793575278
20
-82.4186359981
11
51.2062716957
21
-83.3199296722
0
LINE
5
1A1
100
AcDbEntity
8
0
6
ByLayer
62
256
370
-1
100
AcDbLine
10
50.3867621302
20
-81.4981854679
11
50.793575278
21
-82.4186359981
0
LINE
5
1A2
100
AcDbEntity
8
0
6
ByLayer
62
256
370
-1
100
AcDbLine
10
49.5915835128
20
-79.5990884966
11
49.9860303113
21
-80.5583937567
0
LINE
5
1A3
100
AcDbEntity
8
0
6
ByLayer
62
256
370
-1
100
AcDbLine
10
49.9860303113
20
-80.5583937567
11
50.3867621302
21
-81.4981854679
0
LINE
5
1A4
100
AcDbEntity
8
0
6
ByLayer
62
256
370
-1
100
AcDbLine
10
49.2036303359
20
-78.6201091997
11
49.5915835128
21
-79.5990884966
0
LINE
5
1A5
100
AcDbEntity
8
0
6
ByLayer
62
256
370
-1
100
AcDbLine
10
48.8223835798
20
-77.6213071046
11
49.2036303359
21
-78.6201091997
0
LINE
5
1A6
100
AcDbEntity
8
0
6
ByLayer
62
256
370
-1
100
AcDbLine
10
48.4480595618
20
-76.6025449833
11
48.8223835798
21
-77.6213071046
0
LINE
5
1A7
100
AcDbEntity
8
0
6
ByLayer
62
256
370
-1
100
AcDbLine
10
48.0808774725
20
-75.5636969218
11
48.4480595618
21
-76.6025449833
0
LINE
5
1A8
100
AcDbEntity
8
0
6
ByLayer
62
256
370
-1
100
AcDbLine
10
47.2947734648
20
-73.1983716232
11
47.721058773
21
-74.5046480969
0
LINE
5
1A9
100
AcDbEntity
8
0
6
ByLayer
62
256
370
-1
100
AcDbLine
10
47.721058773
20
-74.5046480969
11
48.0808774725
21
-75.5636969218
0
LINE
5
1AA
100
AcDbEntity
8
0
6
ByLayer
62
256
370
-1
100
AcDbLine
10
46.6759604777
20
-71.2129435573
11
47.4401662399
21
-73.6530849458
0
LINE
5
1AB
100
AcDbEntity
8
0
6
ByLayer
62
256
370
-1
100
AcDbLine
10
46.3598948231
20
-70.0645198944
11
46.7524020658
21
-71.4291466959
0
LINE
5
1AC
100
AcDbEntity
8
0
6
ByLayer
62
256
370
-1
100
AcDbLine
10
46.0402556188
20
-68.9031117487
11
46.3598948231
21
-70.0645198944
0
LINE
5
1AD
100
AcDbEntity
8
0
6
ByLayer
62
256
370
-1
100
AcDbLine
10
45.7293261239
20
-67.7210294882
11
46.0402556188
21
-68.9031117487
0
LINE
5
1AE
100
AcDbEntity
8
0
6
ByLayer
62
256
370
-1
100
AcDbLine
10
45.4273293769
20
-66.5182270012
11
45.7293261239
21
-67.7210294882
0
LINE
5
1AF
100
AcDbEntity
8
0
6
ByLayer
62
256
370
-1
100
AcDbLine
10
45.1344870183
20
-65.2946666144
11
45.4273293769
21
-66.5182270012
0
LINE
5
1B0
100
AcDbEntity
8
0
6
ByLayer
62
256
370
-1
100
AcDbLine
10
44.8510189682
20
-64.0503186782
11
45.1344870183
21
-65.2946666144
0
LINE
5
1B1
100
AcDbEntity
8
0
6
ByLayer
62
256
370
-1
100
AcDbLine
10
44.2707482853
20
-61.2930519737
11
44.5771431462
21
-62.7851612007
0
LINE
5
1B2
100
AcDbEntity
8
0
6
ByLayer
62
256
370
-1
100
AcDbLine
10
44.5771431462
20
-62.7851612007
11
44.8510189682
21
-64.0503186782
0
LINE
5
1B3
100
AcDbEntity
8
0
6
ByLayer
62
256
370
-1
100
AcDbLine
10
44.0145598512
20
-60.0906243602
11
44.2707482853
21
-61.2930519737
0
LINE
5
1B4
100
AcDbEntity
8
0
6
ByLayer
62
256
370
-1
100
AcDbLine
10
43.8752164452
20
-59.3612670722
11
44.0145598512
21
-60.0906243602
0
LINE
5
1B5
100
AcDbEntity
8
0
6
ByLayer
62
256
370
-1
100
AcDbLine
10
43.7013577216
20
-58.35206488
11
43.8752164452
21
-59.3612670722
0
LINE
5
1B6
100
AcDbEntity
8
0
6
ByLayer
62
256
370
-1
100
AcDbLine
10
43.5030105803
20
-57.0834971917
11
43.7013577216
21
-58.35206488
0
LINE
5
1B7
100
AcDbEntity
8
0
6
ByLayer
62
256
370
-1
100
AcDbLine
10
43.2888658563
20
-55.5809052308
11
43.5030105803
21
-57.0834971917
0
LINE
5
1B8
100
AcDbEntity
8
0
6
ByLayer
62
256
370
-1
100
AcDbLine
10
43.0650824058
20
-53.8625957043
11
43.2888658563
21
-55.5809052308
0
LINE
5
1B9
100
AcDbEntity
8
0
6
ByLayer
62
256
370
-1
100
AcDbLine
10
42.8362974489
20
-51.9423359342
11
43.0650824058
21
-53.8625957043
0
LINE
5
1BA
100
AcDbEntity
8
0
6
ByLayer
62
256
370
-1
100
AcDbLine
10
42.6061934484
20
-49.8308593998
11
42.8362974489
21
-51.9423359342
0
LINE
5
1BB
100
AcDbEntity
8
0
6
ByLayer
62
256
370
-1
100
AcDbLine
10
42.1388396308
20
-44.9018036555
11
42.3778314773
21
-47.5368106308
0
LINE
5
1BC
100
AcDbEntity
8
0
6
ByLayer
62
256
370
-1
100
AcDbLine
10
42.1388396308
20
-44.9018036555
11
42.3778314773
21
-47.5368106308
0
LINE
5
1BD
100
AcDbEntity
8
0
6
ByLayer
62
256
370
-1
100
AcDbLine
10
42.3778314773
20
-47.5368106308
11
42.6061934484
21
-49.8308593998
0
LINE
5
1BE
100
AcDbEntity
8
0
6
ByLayer
62
256
370
-1
100
AcDbLine
10
89.5442020428
20
-117.870551375
11
89.9862292576
21
-118.087336127
0
LINE
5
1BF
100
AcDbEntity
8
0
6
ByLayer
62
256
370
-1
100
AcDbLine
10
89.9862292576
20
-118.087336127
11
90.6601268707
21
-118.151266275
0
ARC
5
1C0
100
AcDbEntity
8
0
6
ByBlock
62
256
370
-1
100
AcDbCircle
10
-8.00660729774
20
-856.721197756
40
706.655648121
100
AcDbArc
50
81.4059432109
51
107.675470095
0
ARC
5
1C1
100
AcDbEntity
8
0
6
ByBlock
62
256
370
-1
100
AcDbCircle
10
173.413486767
20
-721.188374261
40
880.695926306
100
AcDbArc
50
94.7861294242
51
121.003496066
0
ARC
5
1C2
100
AcDbEntity
8
0
6
ByLayer
62
256
370
-1
100
AcDbCircle
10
-124.419324617
20
-45.6310114194
40
177.393395779
100
AcDbArc
50
155.895889211
51
229.326570352
0
ARC
5
1C3
100
AcDbEntity
8
0
6
ByLayer
62
256
370
-1
100
AcDbCircle
10
-228.771947998
20
-168.22269255
40
16.4212007658
100
AcDbArc
50
226.695272362
51
292.208661376
0
ARC
5
1C4
100
AcDbEntity
8
0
6
ByLayer
62
256
370
-1
100
AcDbCircle
10
-272.623241512
20
20.7563117264
40
15
100
AcDbArc
50
120.447669881
51
156.173937807
0
LINE
5
1C5
100
AcDbEntity
8
1st Cut
6
ByLayer
62
256
370
-1
100
AcDbLine
10
-152.468641722
20
-59.9573240484
11
-157.750959635
21
-62.8028674873
0
LINE
5
1C6
100
AcDbEntity
8
1st Cut
6
ByLayer
62
256
370
-1
100
AcDbLine
10
-157.750959635
20
-62.8028674873
11
-154.905416196
21
-68.0851854006
0
LINE
5
1C7
100
AcDbEntity
8
1st Cut
6
ByLayer
62
256
370
-1
100
AcDbLine
10
-154.905416196
20
-68.0851854006
11
-149.623098283
21
-65.2396419616
0
LINE
5
1C8
100
AcDbEntity
8
1st Cut
6
ByLayer
62
256
370
-1
100
AcDbLine
10
-149.623098283
20
-65.2396419616
11
-152.468641722
21
-59.9573240484
0
LINE
5
1C9
100
AcDbEntity
8
1st Cut
6
ByLayer
62
256
370
-1
100
AcDbLine
10
-166.805416196
20
-74.4957854006
11
-161.523098283
21
-71.6502419616
0
CIRCLE
5
1CA
100
AcDbEntity
8
1st Cut
6
ByLayer
62
256
370
-1
100
AcDbCircle
10
-177.375185802
20
-85.0170490871
40
1.5
0
CIRCLE
5
1CB
100
AcDbEntity
8
1st Cut
6
ByLayer
62
256
370
-1
100
AcDbCircle
10
-213.471024876
20
-104.46159592
40
1.5
0
LINE
5
1CC
100
AcDbEntity
8
1st Cut
6
ByLayer
62
256
370
-1
100
AcDbLine
10
-184.791001323
20
-87.5920597972
11
-207.240852454
21
-99.6856194127
0
LINE
5
1CD
100
AcDbEntity
8
1st Cut
6
ByLayer
62
256
370
-1
100
AcDbLine
10
-207.240852454
20
-99.6856194127
11
-206.055209355
21
-101.88658521
0
LINE
5
1CE
100
AcDbEntity
8
1st Cut
6
ByLayer
62
256
370
-1
100
AcDbLine
10
-206.055209355
20
-101.88658521
11
-183.605358223
21
-89.7930255944
0
LINE
5
1CF
100
AcDbEntity
8
1st Cut
6
ByLayer
62
256
370
-1
100
AcDbLine
10
-183.605358223
20
-89.7930255944
11
-184.791001323
21
-87.5920597972
0
CIRCLE
5
1D0
100
AcDbEntity
8
1st Cut
6
ByLayer
62
256
370
-1
100
AcDbCircle
10
-231.336871742
20
-90.8005558513
40
1.5
0
CIRCLE
5
1D1
100
AcDbEntity
8
1st Cut
6
ByLayer
62
256
370
-1
100
AcDbCircle
10
-211.892324909
20
-126.896394925
40
1.5
0
LINE
5
1D2
100
AcDbEntity
8
1st Cut
6
ByLayer
62
256
370
-1
100
AcDbLine
10
-228.761861032
20
-98.2163713724
11
-216.668301416
21
-120.666222504
0
LINE
5
1D3
100
AcDbEntity
8
1st Cut
6
ByLayer
62
256
370
-1
100
AcDbLine
10
-216.668301416
20
-120.666222504
11
-214.467335619
21
-119.480579404
0
LINE
5
1D4
100
AcDbEntity
8
1st Cut
6
ByLayer
62
256
370
-1
100
AcDbLine
10
-214.467335619
20
-119.480579404
11
-226.560895235
21
-97.0307282729
0
LINE
5
1D5
100
AcDbEntity
8
1st Cut
6
ByLayer
62
256
370
-1
100
AcDbLine
10
-226.560895235
20
-97.0307282729
11
-228.761861032
21
-98.2163713724
0
LINE
5
1D6
100
AcDbEntity
8
Engraving
6
ByLayer
62
256
370
-1
100
AcDbLine
10
-147.190329267
20
5.78425953941
11
-176.101433445
21
67.3321925282
0
LINE
5
1D7
100
AcDbEntity
8
Engraving
6
ByLayer
62
256
370
-1
100
AcDbLine
10
-196.014
20
57.9786
11
-167.102895822
21
-3.56933298883
0
LINE
5
1D8
100
AcDbEntity
8
Engraving
6
ByLayer
62
256
370
-1
100
AcDbLine
10
-176.101433445
20
67.3321925282
11
-196.014
21
57.9786
0
LINE
5
1D9
100
AcDbEntity
8
Engraving
6
ByLayer
62
256
370
-1
100
AcDbLine
10
-117.414075401
20
17.4909846247
11
-142.996225664
21
80.4953780264
0
LINE
5
1DA
100
AcDbEntity
8
Engraving
6
ByLayer
62
256
370
-1
100
AcDbLine
10
-163.38
20
72.2188
11
-137.797849737
21
9.21440659837
0
LINE
5
1DB
100
AcDbEntity
8
Engraving
6
ByLayer
62
256
370
-1
100
AcDbLine
10
-142.996225664
20
80.4953780264
11
-163.38
21
72.2188
0
LINE
5
1DC
100
AcDbEntity
8
Engraving
6
ByLayer
62
256
370
-1
100
AcDbLine
10
-96.7449965953
20
25.0290258409
11
-120.043625726
21
88.9130917777
0
LINE
5
1DD
100
AcDbEntity
8
Engraving
6
ByLayer
62
256
370
-1
100
AcDbLine
10
-140.712
20
81.3753
11
-117.413370869
21
17.4912340632
0
LINE
5
1DE
100
AcDbEntity
8
Engraving
6
ByLayer
62
256
370
-1
100
AcDbLine
10
-120.043625726
20
88.9130917777
11
-140.712
21
81.3753
0
LINE
5
1DF
100
AcDbEntity
8
Engraving
6
ByLayer
62
256
370
-1
100
AcDbLine
10
-75.9604602492
20
32.2405698474
11
-98.2505253039
21
96.4834916353
0
LINE
5
1E0
100
AcDbEntity
8
Engraving
6
ByLayer
62
256
370
-1
100
AcDbLine
10
-119.035
20
89.272
11
-96.7449349453
21
25.029078212
0
LINE
5
1E1
100
AcDbEntity
8
Engraving
6
ByLayer
62
256
370
-1
100
AcDbLine
10
-98.2505253039
20
96.4834916353
11
-119.035
21
89.272
0
LINE
5
1E2
100
AcDbEntity
8
Engraving
6
ByLayer
62
256
370
-1
100
AcDbLine
10
-55.0799455967
20
39.1670600524
11
-76.4900174446
21
103.708587951
0
LINE
5
1E3
100
AcDbEntity
8
Engraving
6
ByLayer
62
256
370
-1
100
AcDbLine
10
-97.3711
20
96.7818
11
-75.961028152
21
32.2402721016
0
LINE
5
1E4
100
AcDbEntity
8
Engraving
6
ByLayer
62
256
370
-1
100
AcDbLine
10
-76.4900174446
20
103.708587951
11
-97.3711
21
96.7818
0
LINE
5
1E5
100
AcDbEntity
8
Engraving
6
ByLayer
62
256
370
-1
100
AcDbLine
10
-23.8114622571
20
47.847915992
11
-41.6048193533
21
113.478674355
0
LINE
5
1E6
100
AcDbEntity
8
Engraving
6
ByLayer
62
256
370
-1
100
AcDbLine
10
-62.8383
20
107.722
11
-45.0449429038
21
42.0912416374
0
LINE
5
1E7
100
AcDbEntity
8
Engraving
6
ByLayer
62
256
370
-1
100
AcDbLine
10
-41.6048193533
20
113.478674355
11
-62.8383
21
107.722
0
CIRCLE
5
1E8
100
AcDbEntity
8
1st Cut
6
ByLayer
62
256
370
-1
100
AcDbCircle
10
-133.056402454
20
-88.4031088371
40
1.5
0
CIRCLE
5
1E9
100
AcDbEntity
8
1st Cut
6
ByLayer
62
256
370
-1
100
AcDbCircle
10
-199.08537637
20
-123.972401824
40
1.5
0
CIRCLE
5
1EA
100
AcDbEntity
8
1st Cut
6
ByLayer
62
256
370
-1
100
AcDbCircle
10
-184.383401936
20
-151.264377709
40
1.5
0
CIRCLE
5
1EB
100
AcDbEntity
8
1st Cut
6
ByLayer
62
256
370
-1
100
AcDbCircle
10
-118.354005397
20
-115.695126099
40
1.5
0
LINE
5
1EC
100
AcDbEntity
8
1st Cut
6
ByLayer
62
256
370
-1
100
AcDbLine
10
-121.947217236
20
-114.507132545
11
-183.398182294
21
-147.610287885
0
LINE
5
1ED
100
AcDbEntity
8
1st Cut
6
ByLayer
62
256
370
-1
100
AcDbLine
10
-183.398182294
20
-147.610287885
11
-195.965999149
21
-124.280050435
0
LINE
5
1EE
100
AcDbEntity
8
1st Cut
6
ByLayer
62
256
370
-1
100
AcDbLine
10
-195.965999149
20
-124.280050435
11
-134.515034091
21
-91.1768950951
0
LINE
5
1EF
100
AcDbEntity
8
1st Cut
6
ByLayer
62
256
370
-1
100
AcDbLine
10
-134.515034091
20
-91.1768950951
11
-121.947217236
21
-114.507132545
0
LINE
5
1F0
100
AcDbEntity
8
1st Cut
6
ByLayer
62
256
370
-1
100
AcDbLine
10
-174.859277852
20
-100.415509456
11
-180.141595766
21
-103.261052895
0
LINE
5
1F1
100
AcDbEntity
8
1st Cut
6
ByLayer
62
256
370
-1
100
AcDbLine
10
-180.141595766
20
-103.261052895
11
-177.296052327
21
-108.543370809
0
LINE
5
1F2
100
AcDbEntity
8
1st Cut
6
ByLayer
62
256
370
-1
100
AcDbLine
10
-177.296052327
20
-108.543370809
11
-172.013734413
21
-105.69782737
0
LINE
5
1F3
100
AcDbEntity
8
1st Cut
6
ByLayer
62
256
370
-1
100
AcDbLine
10
-172.013734413
20
-105.69782737
11
-174.859277852
21
-100.415509456
0
LINE
5
1F4
100
AcDbEntity
8
1st Cut
6
ByLayer
62
256
370
-1
100
AcDbLine
10
-165.175028345
20
-95.1986798184
11
-170.457346258
21
-98.0442232573
0
LINE
5
1F5
100
AcDbEntity
8
1st Cut
6
ByLayer
62
256
370
-1
100
AcDbLine
10
-170.457346258
20
-98.0442232573
11
-167.611802819
21
-103.326541171
0
LINE
5
1F6
100
AcDbEntity
8
1st Cut
6
ByLayer
62
256
370
-1
100
AcDbLine
10
-167.611802819
20
-103.326541171
11
-162.329484906
21
-100.480997732
0
LINE
5
1F7
100
AcDbEntity
8
1st Cut
6
ByLayer
62
256
370
-1
100
AcDbLine
10
-162.329484906
20
-100.480997732
11
-165.175028345
21
-95.1986798184
0
CIRCLE
5
1F8
100
AcDbEntity
8
1st Cut
6
ByLayer
62
256
370
-1
100
AcDbCircle
10
-115.000704676
20
-62.7447963489
40
4
0
CIRCLE
5
1F9
100
AcDbEntity
8
1st Cut
6
ByLayer
62
256
370
-1
100
AcDbCircle
10
-110.749071708
20
-71.7959629649
40
4
0
CIRCLE
5
1FA
100
AcDbEntity
8
1st Cut
6
ByLayer
62
256
370
-1
100
AcDbCircle
10
-119.252337643
20
-53.6936297329
40
4
0
CIRCLE
5
1FB
100
AcDbEntity
8
1st Cut
6
ByLayer
62
256
370
-1
100
AcDbCircle
10
-81.1375
20
-71.8519
40
4
0
CIRCLE
5
1FC
100
AcDbEntity
8
1st Cut
6
ByLayer
62
256
370
-1
100
AcDbCircle
10
-77.3754190789
20
-81.1172519708
40
4
0
CIRCLE
5
1FD
100
AcDbEntity
8
1st Cut
6
ByLayer
62
256
370
-1
100
AcDbCircle
10
-71.8721480292
20
-68.0898190789
40
4
0
CIRCLE
5
1FE
100
AcDbEntity
8
1st Cut
6
ByLayer
62
256
370
-1
100
AcDbCircle
10
-84.8995809211
20
-62.5865480292
40
4
0
CIRCLE
5
1FF
100
AcDbEntity
8
1st Cut
6
ByLayer
62
256
370
-1
100
AcDbCircle
10
-90.4028519708
20
-75.6139809211
40
4
0
CIRCLE
5
200
100
AcDbEntity
8
1st Cut
6
ByLayer
62
256
370
-1
100
AcDbCircle
10
-96.1858
20
-34.7905
40
4
0
CIRCLE
5
201
100
AcDbEntity
8
1st Cut
6
ByLayer
62
256
370
-1
100
AcDbCircle
10
-92.4237190789
20
-44.0558519708
40
4
0
CIRCLE
5
202
100
AcDbEntity
8
1st Cut
6
ByLayer
62
256
370
-1
100
AcDbCircle
10
-86.9204480292
20
-31.0284190789
40
4
0
CIRCLE
5
203
100
AcDbEntity
8
1st Cut
6
ByLayer
62
256
370
-1
100
AcDbCircle
10
-99.9478809211
20
-25.5251480292
40
4
0
CIRCLE
5
204
100
AcDbEntity
8
1st Cut
6
ByLayer
62
256
370
-1
100
AcDbCircle
10
-105.451151971
20
-38.5525809211
40
4
0
CIRCLE
5
205
100
AcDbEntity
8
1st Cut
6
ByLayer
62
256
370
-1
100
AcDbCircle
10
-58.2499
20
-21.1486
40
4
0
CIRCLE
5
206
100
AcDbEntity
8
1st Cut
6
ByLayer
62
256
370
-1
100
AcDbCircle
10
-55.1013600224
20
-30.6400011615
40
4
0
CIRCLE
5
207
100
AcDbEntity
8
1st Cut
6
ByLayer
62
256
370
-1
100
AcDbCircle
10
-48.7584988385
20
-18.0000600224
40
4
0
CIRCLE
5
208
100
AcDbEntity
8
1st Cut
6
ByLayer
62
256
370
-1
100
AcDbCircle
10
-61.3984399776
20
-11.6571988385
40
4
0
CIRCLE
5
209
100
AcDbEntity
8
1st Cut
6
ByLayer
62
256
370
-1
100
AcDbCircle
10
-67.7413011615
20
-24.2971399776
40
4
0
CIRCLE
5
20A
100
AcDbEntity
8
1st Cut
6
ByLayer
62
256
370
-1
100
AcDbCircle
10
-45.6558
20
-59.1142
40
4
0
CIRCLE
5
20B
100
AcDbEntity
8
1st Cut
6
ByLayer
62
256
370
-1
100
AcDbCircle
10
-42.5072600224
20
-68.6056011615
40
4
0
CIRCLE
5
20C
100
AcDbEntity
8
1st Cut
6
ByLayer
62
256
370
-1
100
AcDbCircle
10
-36.1643988385
20
-55.9656600224
40
4
0
CIRCLE
5
20D
100
AcDbEntity
8
1st Cut
6
ByLayer
62
256
370
-1
100
AcDbCircle
10
-48.8043399776
20
-49.6227988385
40
4
0
CIRCLE
5
20E
100
AcDbEntity
8
1st Cut
6
ByLayer
62
256
370
-1
100
AcDbCircle
10
-55.1472011615
20
-62.2627399776
40
4
0
CIRCLE
5
20F
100
AcDbEntity
8
1st Cut
6
ByLayer
62
256
370
-1
100
AcDbCircle
10
-25.3443
20
-30.5747
40
4
0
CIRCLE
5
210
100
AcDbEntity
8
1st Cut
6
ByLayer
62
256
370
-1
100
AcDbCircle
10
-22.7276298388
20
-40.2262821121
40
4
0
CIRCLE
5
211
100
AcDbEntity
8
1st Cut
6
ByLayer
62
256
370
-1
100
AcDbCircle
10
-15.6927178879
20
-27.9580298388
40
4
0
CIRCLE
5
212
100
AcDbEntity
8
1st Cut
6
ByLayer
62
256
370
-1
100
AcDbCircle
10
-27.9609701612
20
-20.9231178879
40
4
0
CIRCLE
5
213
100
AcDbEntity
8
1st Cut
6
ByLayer
62
256
370
-1
100
AcDbCircle
10
-34.9958821121
20
-33.1913701612
40
4
0
CIRCLE
5
214
100
AcDbEntity
8
1st Cut
6
ByLayer
62
256
370
-1
100
AcDbCircle
10
-251.99
20
22.5227
40
1.75
0
CIRCLE
5
215
100
AcDbEntity
8
1st Cut
6
ByLayer
62
256
370
-1
100
AcDbCircle
10
-213.693
20
43.1529
40
1.75
0
CIRCLE
5
216
100
AcDbEntity
8
1st Cut
6
ByLayer
62
256
370
-1
100
AcDbCircle
10
-217.665
20
4.66543
40
21.5
0
CIRCLE
5
217
100
AcDbEntity
8
1st Cut
6
ByLayer
62
256
370
-1
100
AcDbCircle
10
-221.637
20
-33.822
40
1.75
0
CIRCLE
5
218
100
AcDbEntity
8
1st Cut
6
ByLayer
62
256
370
-1
100
AcDbCircle
10
-183.34
20
-13.1918
40
1.75
0
LINE
5
219
100
AcDbEntity
8
1st Cut
6
ByLayer
62
256
370
-1
100
AcDbLine
10
-157.873
20
-10.2821
11
-147.917
21
-5.60531
0
LINE
5
21A
100
AcDbEntity
8
1st Cut
6
ByLayer
62
256
370
-1
100
AcDbLine
10
-162.125
20
-1.23093
11
-157.873
21
-10.2821
0
LINE
5
21B
100
AcDbEntity
8
1st Cut
6
ByLayer
62
256
370
-1
100
AcDbLine
10
-152.168
20
3.44586
11
-162.125
21
-1.23093
0
LINE
5
21C
100
AcDbEntity
8
1st Cut
6
ByLayer
62
256
370
-1
100
AcDbLine
10
-147.917
20
-5.60531
11
-152.168
21
3.44586
0
LINE
5
21D
100
AcDbEntity
8
1st Cut
6
ByLayer
62
256
370
-1
100
AcDbLine
10
-128.94
20
2.0182
11
-118.748
21
6.15649
0
LINE
5
21E
100
AcDbEntity
8
1st Cut
6
ByLayer
62
256
370
-1
100
AcDbLine
10
-118.748
20
6.15649
11
-122.51
21
15.4218
0
LINE
5
21F
100
AcDbEntity
8
1st Cut
6
ByLayer
62
256
370
-1
100
AcDbLine
10
-122.51
20
15.4218
11
-132.702
21
11.2836
0
LINE
5
220
100
AcDbEntity
8
1st Cut
6
ByLayer
62
256
370
-1
100
AcDbLine
10
-101.912
20
23.1446
11
-112.246
21
19.3757
0
LINE
5
221
100
AcDbEntity
8
1st Cut
6
ByLayer
62
256
370
-1
100
AcDbLine
10
-112.246
20
19.3757
11
-108.82
21
9.98097
0
LINE
5
222
100
AcDbEntity
8
1st Cut
6
ByLayer
62
256
370
-1
100
AcDbLine
10
-98.4858
20
13.7499
11
-101.912
21
23.1446
0
LINE
5
223
100
AcDbEntity
8
1st Cut
6
ByLayer
62
256
370
-1
100
AcDbLine
10
-108.82
20
9.98097
11
-98.4858
21
13.7499
0
LINE
5
224
100
AcDbEntity
8
1st Cut
6
ByLayer
62
256
370
-1
100
AcDbLine
10
-91.5488
20
26.832
11
-88.2709
21
17.3845
0
LINE
5
225
100
AcDbEntity
8
1st Cut
6
ByLayer
62
256
370
-1
100
AcDbLine
10
-81.1566
20
30.4377
11
-91.5488
21
26.832
0
LINE
5
226
100
AcDbEntity
8
1st Cut
6
ByLayer
62
256
370
-1
100
AcDbLine
10
-77.8786
20
20.9902
11
-81.1566
21
30.4377
0
LINE
5
227
100
AcDbEntity
8
1st Cut
6
ByLayer
62
256
370
-1
100
AcDbLine
10
-88.2709
20
17.3845
11
-77.8786
21
20.9902
0
LINE
5
228
100
AcDbEntity
8
1st Cut
6
ByLayer
62
256
370
-1
100
AcDbLine
10
-67.5922
20
24.4806
11
-57.1517
21
27.944
0
LINE
5
229
100
AcDbEntity
8
1st Cut
6
ByLayer
62
256
370
-1
100
AcDbLine
10
-70.7408
20
33.972
11
-67.5922
21
24.4806
0
LINE
5
22A
100
AcDbEntity
8
1st Cut
6
ByLayer
62
256
370
-1
100
AcDbLine
10
-57.1517
20
27.944
11
-60.3002
21
37.4354
0
LINE
5
22B
100
AcDbEntity
8
1st Cut
6
ByLayer
62
256
370
-1
100
AcDbLine
10
-60.3002
20
37.4354
11
-70.7408
21
33.972
0
LINE
5
22C
100
AcDbEntity
8
1st Cut
6
ByLayer
62
256
370
-1
100
AcDbLine
10
-26.5032
20
36.7572
11
-29.1198
21
46.4087
0
LINE
5
22D
100
AcDbEntity
8
1st Cut
6
ByLayer
62
256
370
-1
100
AcDbLine
10
-37.1199
20
33.8788
11
-26.5032
21
36.7572
0
LINE
5
22E
100
AcDbEntity
8
1st Cut
6
ByLayer
62
256
370
-1
100
AcDbLine
10
-39.7366
20
43.5304
11
-37.1199
21
33.8788
0
LINE
5
22F
100
AcDbEntity
8
1st Cut
6
ByLayer
62
256
370
-1
100
AcDbLine
10
-177.052
20
-55.4748
11
-171.77
21
-52.6292
0
LINE
5
230
100
AcDbEntity
8
1st Cut
6
ByLayer
62
256
370
-1
100
AcDbLine
10
-179.898
20
-50.1925
11
-177.052
21
-55.4748
0
LINE
5
231
100
AcDbEntity
8
1st Cut
6
ByLayer
62
256
370
-1
100
AcDbLine
10
-174.616
20
-47.3469
11
-179.898
21
-50.1925
0
LINE
5
232
100
AcDbEntity
8
1st Cut
6
ByLayer
62
256
370
-1
100
AcDbLine
10
-171.77
20
-52.6292
11
-174.616
21
-47.3469
0
CIRCLE
5
233
100
AcDbEntity
8
1st Cut
6
ByLayer
62
256
370
-1
100
AcDbCircle
10
-171.566
20
-59.3343
40
4
0
CIRCLE
5
234
100
AcDbEntity
8
1st Cut
6
ByLayer
62
256
370
-1
100
AcDbCircle
10
-159.437
20
-52.9168
40
4
0
LINE
5
235
100
AcDbEntity
8
1st Cut
6
ByLayer
62
256
370
-1
100
AcDbLine
10
-167.769
20
-43.775
11
-164.923
21
-49.0573
0
LINE
5
236
100
AcDbEntity
8
1st Cut
6
ByLayer
62
256
370
-1
100
AcDbLine
10
-164.923
20
-49.0573
11
-159.641
21
-46.2117
0
LINE
5
237
100
AcDbEntity
8
1st Cut
6
ByLayer
62
256
370
-1
100
AcDbLine
10
-159.641
20
-46.2117
11
-162.487
21
-40.9294
0
LINE
5
238
100
AcDbEntity
8
1st Cut
6
ByLayer
62
256
370
-1
100
AcDbLine
10
-162.487
20
-40.9294
11
-167.769
21
-43.775
0
CIRCLE
5
239
100
AcDbEntity
8
1st Cut
6
ByLayer
62
256
370
-1
100
AcDbCircle
10
-149.419
20
-71.9447
40
4
0
CIRCLE
5
23A
100
AcDbEntity
8
1st Cut
6
ByLayer
62
256
370
-1
100
AcDbCircle
10
-161.319
20
-78.3553
40
4
0
LINE
5
23B
100
AcDbEntity
8
Guides
6
ByLayer
62
256
370
-1
100
AcDbLine
10
-161.523
20
-71.6502
11
-164.369
21
-66.3679
0
LINE
5
23C
100
AcDbEntity
8
1st Cut
6
ByLayer
62
256
370
-1
100
AcDbLine
10
-164.369
20
-66.3679
11
-169.651
21
-69.2135
0
LINE
5
23D
100
AcDbEntity
8
1st Cut
6
ByLayer
62
256
370
-1
100
AcDbLine
10
-169.651
20
-69.2135
11
-166.805
21
-74.4958
0
LINE
5
23E
100
AcDbEntity
8
1st Cut
6
ByLayer
62
256
370
-1
100
AcDbLine
10
-132.701969675
20
11.2835253126
11
-128.94
21
2.0182
0
LINE
5
23F
100
AcDbEntity
8
Engraving
6
ByLayer
62
256
370
-1
100
AcDbLine
10
-167.102895822
20
-3.56933298883
11
-162.125
21
-1.23093
0
LINE
5
240
100
AcDbEntity
8
Engraving
6
ByLayer
62
256
370
-1
100
AcDbLine
10
-152.168
20
3.44586
11
-147.190329267
21
5.78425953941
0
LINE
5
241
100
AcDbEntity
8
Engraving
6
ByLayer
62
256
370
-1
100
AcDbLine
10
-137.797849737
20
9.21440659837
11
-132.701969675
21
11.2835253126
0
LINE
5
242
100
AcDbEntity
8
Engraving
6
ByLayer
62
256
370
-1
100
AcDbLine
10
-122.51
20
15.4218
11
-117.414075401
21
17.4909846247
0
LINE
5
243
100
AcDbEntity
8
Engraving
6
ByLayer
62
256
370
-1
100
AcDbLine
10
-117.413370869
20
17.4912340632
11
-112.246
21
19.3757
0
LINE
5
244
100
AcDbEntity
8
Engraving
6
ByLayer
62
256
370
-1
100
AcDbLine
10
-101.912
20
23.1446
11
-96.7449965953
21
25.0290258409
0
LINE
5
245
100
AcDbEntity
8
Engraving
6
ByLayer
62
256
370
-1
100
AcDbLine
10
-96.7449349453
20
25.029078212
11
-91.5488
21
26.832
0
LINE
5
246
100
AcDbEntity
8
Engraving
6
ByLayer
62
256
370
-1
100
AcDbLine
10
-81.1566
20
30.4377
11
-75.961028152
21
32.2402721016
0
LINE
5
247
100
AcDbEntity
8
Engraving
6
ByLayer
62
256
370
-1
100
AcDbLine
10
-75.961028152
20
32.2402721016
11
-70.7408
21
33.972
0
LINE
5
248
100
AcDbEntity
8
Engraving
6
ByLayer
62
256
370
-1
100
AcDbLine
10
-60.3002
20
37.4354
11
-55.0799455967
21
39.1670600524
0
LINE
5
249
100
AcDbEntity
8
Engraving
6
ByLayer
62
256
370
-1
100
AcDbLine
10
-29.1198
20
46.4087
11
-23.8114622571
21
47.847915992
0
LINE
5
24A
100
AcDbEntity
8
Engraving
6
ByLayer
62
256
370
-1
100
AcDbLine
10
-45.0449429038
20
42.0912416374
11
-39.7366
21
43.5304
0
LINE
5
24B
100
AcDbEntity
8
1st Cut
6
ByLayer
62
256
370
-1
100
AcDbLine
10
-39.7366
20
43.5304
11
-29.1198
21
46.4087
0
LINE
5
24C
100
AcDbEntity
8
0
6
ByLayer
62
256
370
-1
100
AcDbLine
10
-267.998545112
20
89.9405284797
11
-267.010499523
21
88.7595273845
0
LINE
5
24D
100
AcDbEntity
8
0
6
ByLayer
62
256
370
-1
100
AcDbLine
10
-267.010499523
20
88.7595273845
11
-266.121260757
21
87.5283905418
0
LINE
5
24E
100
AcDbEntity
8
0
6
ByLayer
62
256
370
-1
100
AcDbLine
10
2.9088732233
20
172.984690464
11
1.04392628702
21
171.234110826
0
LINE
5
24F
100
AcDbEntity
8
0
6
ByLayer
62
256
370
-1
100
AcDbLine
10
1.04392628702
20
171.234110826
11
-0.654539170021
21
169.500193545
0
ARC
5
250
100
AcDbEntity
8
0
6
ByLayer
62
256
370
-1
100
AcDbCircle
10
107.094444103
20
-650.290823139
40
826.841674343
100
AcDbArc
50
97.487733165
51
116.831940224
0
ARC
5
251
100
AcDbEntity
8
0
6
ByLayer
62
256
370
-1
100
AcDbCircle
10
107.094444103
20
-650.290823139
40
829.841674343
100
AcDbArc
50
97.2124455195
51
116.872426824
0
ARC
5
252
100
AcDbEntity
8
Engraving
6
ByLayer
62
256
370
-1
100
AcDbCircle
10
173.413486767
20
-721.188374261
40
826.841674343
100
AcDbArc
50
104.415179505
51
105.939708792
0
ARC
5
253
100
AcDbEntity
8
Engraving
6
ByLayer
62
256
370
-1
100
AcDbCircle
10
173.413486767
20
-721.188374261
40
829.841674343
100
AcDbArc
50
106.796334517
51
113.035614291
0
ARC
5
254
100
AcDbEntity
8
Engraving
6
ByLayer
62
256
370
-1
100
AcDbCircle
10
173.413486767
20
-721.188374261
40
826.841674343
100
AcDbArc
50
113.851338287
51
115.375937132
0
ARC
5
255
100
AcDbEntity
8
Engraving
6
ByLayer
62
256
370
-1
100
AcDbCircle
10
173.413486767
20
-721.188374261
40
829.841674343
100
AcDbArc
50
113.851338287
51
115.375937132
0
ARC
5
256
100
AcDbEntity
8
Engraving
6
ByLayer
62
256
370
-1
100
AcDbCircle
10
173.413486767
20
-721.188374261
40
826.841674343
100
AcDbArc
50
106.796334517
51
113.035614291
0
ARC
5
257
100
AcDbEntity
8
Engraving
6
ByLayer
62
256
370
-1
100
AcDbCircle
10
173.413486767
20
-721.188374261
40
829.841674343
100
AcDbArc
50
104.415179505
51
105.939708792
0
ARC
5
258
100
AcDbEntity
8
Engraving
6
ByLayer
62
256
370
-1
100
AcDbCircle
10
173.413486767
20
-721.188374261
40
829.841674343
100
AcDbArc
50
111.516589485
51
113.035614291
0
LINE
5
259
100
AcDbEntity
8
Guides
6
ByLayer
62
256
370
-1
100
AcDbLine
10
-162.354249572
20
-41.1757905783
11
-149.623098283
21
-65.2396419616
0
LINE
5
25A
100
AcDbEntity
8
Guides
6
ByLayer
62
256
370
-1
100
AcDbLine
10
-149.623098283
20
-65.2396419616
11
-169.635692885
21
-69.2419106717
0
LINE
5
25B
100
AcDbEntity
8
Guides
6
ByLayer
62
256
370
-1
100
AcDbLine
10
-166.844322752
20
-74.4228152599
11
-152.444083566
21
-59.9075420543
0
ENDSEC
0
SECTION
2
OBJECTS
0
DICTIONARY
5
C
330
0
100
AcDbDictionary
281
1
3
ACAD_GROUP
350
D
0
DICTIONARY
5
D
330
C
100
AcDbDictionary
281
1
0
ENDSEC
0
EOF
