999
dxfrw 0.5.11
0
SECTION
2
HEADER
9
$ACADVER
1
AC1021
9
$HANDSEED
5
20000
9
$DWGCODEPAGE
3
ANSI_1252
9
$INSBASE
10
0
20
0
30
0
9
$EXTMIN
10
-412.386267693
20
-411.197236859
30
0
9
$EXTMAX
10
973.294282771
20
156.610557065
30
0
9
$LIMMIN
10
0
20
0
9
$LIMMAX
10
420
20
297
9
$ORTHOMODE
70
0
9
$LTSCALE
40
1
9
$TEXTSTYLE
7
STANDARD
9
$CLAYER
8
0
9
$DIMASZ
40
2.5
9
$DIMLFAC
40
1
9
$DIMSCALE
40
1
9
$DIMEXO
40
0.625
9
$DIMEXE
40
1.25
9
$DIMTXT
40
2.5
9
$DIMTSZ
40
0
9
$DIMAUNIT
70
0
9
$DIMADEC
70
0
9
$DIMLUNIT
70
2
9
$DIMSTYLE
2
STANDARD
9
$DIMGAP
40
0.625
9
$DIMTIH
70
0
9
$LUNITS
70
2
9
$LUPREC
70
4
9
$AUNITS
70
0
9
$AUPREC
70
2
9
$SPLINESEGS
70
8
9
$GRIDMODE
70
1
9
$SNAPSTYLE
70
0
9
$PINSBASE
10
0
20
0
30
0
9
$PLIMMIN
10
0
20
0
9
$PLIMMAX
10
297
20
210
9
$INSUNITS
70
4
9
$PSVPSCALE
40
1
0
ENDSEC
0
SECTION
2
CLASSES
0
ENDSEC
0
SECTION
2
TABLES
0
TABLE
2
VPORT
5
8
330
0
100
AcDbSymbolTable
70
1
0
VPORT
5
31
330
2
100
AcDbSymbolTableRecord
100
AcDbViewportTableRecord
2
*ACTIVE
70
0
10
0
20
0
11
1
21
1
12
-62.8238876773
22
-157.761043439
13
0
23
0
14
10
24
10
15
10
25
10
16
0
26
0
36
1
17
0
27
0
37
0
40
115.755412313
41
1.97193877551
42
50
43
0
44
0
50
0
51
0
71
0
72
100
73
1
74
3
75
0
76
1
77
0
78
0
281
0
65
1
110
0
120
0
130
0
111
1
121
0
131
0
112
0
122
1
132
0
79
0
146
0
348
10020
60
7
61
5
292
1
282
1
141
0
142
0
63
250
421
3358443
0
ENDTAB
0
TABLE
2
LTYPE
5
5
330
0
100
AcDbSymbolTable
70
4
0
LTYPE
5
14
330
5
100
AcDbSymbolTableRecord
100
AcDbLinetypeTableRecord
2
ByBlock
70
0
3

72
65
73
0
40
0
0
LTYPE
5
15
330
5
100
AcDbSymbolTableRecord
100
AcDbLinetypeTableRecord
2
ByLayer
70
0
3

72
65
73
0
40
0
0
LTYPE
5
16
330
5
100
AcDbSymbolTableRecord
100
AcDbLinetypeTableRecord
2
Continuous
70
0
3
Solid line
72
65
73
0
40
0
0
LTYPE
5
32
330
5
100
AcDbSymbolTableRecord
100
AcDbLinetypeTableRecord
2
DOT
70
0
3
Dot . . . . . . . . . . . . . . . . . . . . . .
72
65
73
2
40
6.35
49
0
74
0
49
-6.35
74
0
0
LTYPE
5
33
330
5
100
AcDbSymbolTableRecord
100
AcDbLinetypeTableRecord
2
DOT2
70
0
3
Dot (.5x) .....................................
72
65
73
2
40
3.175
49
0
74
0
49
-3.175
74
0
0
LTYPE
5
34
330
5
100
AcDbSymbolTableRecord
100
AcDbLinetypeTableRecord
2
DOTX2
70
0
3
Dot (2x) .  .  .  .  .  .  .  .  .  .  .  .  .
72
65
73
2
40
12.7
49
0
74
0
49
-12.7
74
0
0
LTYPE
5
35
330
5
100
AcDbSymbolTableRecord
100
AcDbLinetypeTableRecord
2
DASHED
70
0
3
Dot . . . . . . . . . . . . . . . . . . . . . .
72
65
73
2
40
19.05
49
12.7
74
0
49
-6.35
74
0
0
LTYPE
5
36
330
5
100
AcDbSymbolTableRecord
100
AcDbLinetypeTableRecord
2
DASHED2
70
0
3
Dashed (.5x) _ _ _ _ _ _ _ _ _ _ _ _ _ _ _ _ _
72
65
73
2
40
9.525
49
6.35
74
0
49
-3.175
74
0
0
LTYPE
5
37
330
5
100
AcDbSymbolTableRecord
100
AcDbLinetypeTableRecord
2
DASHEDX2
70
0
3
Dashed (2x) ____  ____  ____  ____  ____  ___
72
65
73
2
40
38.1
49
25.4
74
0
49
-12.7
74
0
0
LTYPE
5
38
330
5
100
AcDbSymbolTableRecord
100
AcDbLinetypeTableRecord
2
DASHDOT
70
0
3
Dash dot __ . __ . __ . __ . __ . __ . __ . __
72
65
73
4
40
25.4
49
12.7
74
0
49
-6.35
74
0
49
0
74
0
49
-6.35
74
0
0
LTYPE
5
39
330
5
100
AcDbSymbolTableRecord
100
AcDbLinetypeTableRecord
2
DASHDOT2
70
0
3
Dash dot (.5x) _._._._._._._._._._._._._._._.
72
65
73
4
40
12.7
49
6.35
74
0
49
-3.175
74
0
49
0
74
0
49
-3.175
74
0
0
LTYPE
5
3A
330
5
100
AcDbSymbolTableRecord
100
AcDbLinetypeTableRecord
2
DASHDOTX2
70
0
3
Dash dot (2x) ____  .  ____  .  ____  .  ___
72
65
73
4
40
50.8
49
25.4
74
0
49
-12.7
74
0
49
0
74
0
49
-12.7
74
0
0
LTYPE
5
3B
330
5
100
AcDbSymbolTableRecord
100
AcDbLinetypeTableRecord
2
DIVIDE
70
0
3
Divide ____ . . ____ . . ____ . . ____ . . ____
72
65
73
6
40
31.75
49
12.7
74
0
49
-6.35
74
0
49
0
74
0
49
-6.35
74
0
49
0
74
0
49
-6.35
74
0
0
LTYPE
5
3C
330
5
100
AcDbSymbolTableRecord
100
AcDbLinetypeTableRecord
2
DIVIDE2
70
0
3
Divide (.5x) __..__..__..__..__..__..__..__.._
72
65
73
6
40
15.875
49
6.35
74
0
49
-3.175
74
0
49
0
74
0
49
-3.175
74
0
49
0
74
0
49
-3.175
74
0
0
LTYPE
5
3D
330
5
100
AcDbSymbolTableRecord
100
AcDbLinetypeTableRecord
2
DIVIDEX2
70
0
3
Divide (2x) ________  .  .  ________  .  .  _
72
65
73
6
40
63.5
49
25.4
74
0
49
-12.7
74
0
49
0
74
0
49
-12.7
74
0
49
0
74
0
49
-12.7
74
0
0
LTYPE
5
3E
330
5
100
AcDbSymbolTableRecord
100
AcDbLinetypeTableRecord
2
BORDER
70
0
3
Border __ __ . __ __ . __ __ . __ __ . __ __ .
72
65
73
6
40
44.45
49
12.7
74
0
49
-6.35
74
0
49
12.7
74
0
49
-6.35
74
0
49
0
74
0
49
-6.35
74
0
0
LTYPE
5
3F
330
5
100
AcDbSymbolTableRecord
100
AcDbLinetypeTableRecord
2
BORDER2
70
0
3
Border (.5x) __.__.__.__.__.__.__.__.__.__.__.
72
65
73
6
40
22.225
49
6.35
74
0
49
-3.175
74
0
49
6.35
74
0
49
-3.175
74
0
49
0
74
0
49
-3.175
74
0
0
LTYPE
5
40
330
5
100
AcDbSymbolTableRecord
100
AcDbLinetypeTableRecord
2
BORDERX2
70
0
3
Border (2x) ____  ____  .  ____  ____  .  ___
72
65
73
6
40
88.9
49
25.4
74
0
49
-12.7
74
0
49
25.4
74
0
49
-12.7
74
0
49
0
74
0
49
-12.7
74
0
0
LTYPE
5
41
330
5
100
AcDbSymbolTableRecord
100
AcDbLinetypeTableRecord
2
CENTER
70
0
3
Center ____ _ ____ _ ____ _ ____ _ ____ _ ____
72
65
73
4
40
50.8
49
31.75
74
0
49
-6.35
74
0
49
6.35
74
0
49
-6.35
74
0
0
LTYPE
5
42
330
5
100
AcDbSymbolTableRecord
100
AcDbLinetypeTableRecord
2
CENTER2
70
0
3
Center (.5x) ___ _ ___ _ ___ _ ___ _ ___ _ ___
72
65
73
4
40
28.575
49
19.05
74
0
49
-3.175
74
0
49
3.175
74
0
49
-3.175
74
0
0
LTYPE
5
43
330
5
100
AcDbSymbolTableRecord
100
AcDbLinetypeTableRecord
2
CENTERX2
70
0
3
Center (2x) ________  __  ________  __  _____
72
65
73
4
40
101.6
49
63.5
74
0
49
-12.7
74
0
49
12.7
74
0
49
-12.7
74
0
0
ENDTAB
0
TABLE
2
LAYER
5
2
330
0
100
AcDbSymbolTable
70
1
0
LAYER
5
10
330
2
100
AcDbSymbolTableRecord
100
AcDbLayerTableRecord
2
0
70
0
62
7
6
CONTINUOUS
370
-3
390
F
0
LAYER
5
44
330
2
100
AcDbSymbolTableRecord
100
AcDbLayerTableRecord
2
Annotations
70
1
62
1
6
CONTINUOUS
370
0
390
F
0
LAYER
5
45
330
2
100
AcDbSymbolTableRecord
100
AcDbLayerTableRecord
2
Edge Guides
70
0
62
2
6
DOT2
290
0
370
0
390
F
0
LAYER
5
46
330
2
100
AcDbSymbolTableRecord
100
AcDbLayerTableRecord
2
Encomberment
70
0
62
176
420
128
6
CONTINUOUS
370
0
390
F
0
LAYER
5
47
330
2
100
AcDbSymbolTableRecord
100
AcDbLayerTableRecord
2
Guides
70
0
62
6
6
DOT2
290
0
370
0
390
F
0
LAYER
5
48
330
2
100
AcDbSymbolTableRecord
100
AcDbLayerTableRecord
2
Guitar
70
0
62
4
6
CONTINUOUS
370
-3
390
F
0
LAYER
5
49
330
2
100
AcDbSymbolTableRecord
100
AcDbLayerTableRecord
2
Guitar Guides
70
0
62
56
420
8421376
6
DOT2
290
0
370
-3
390
F
0
LAYER
5
4A
330
2
100
AcDbSymbolTableRecord
100
AcDbLayerTableRecord
2
PCB
70
1
62
56
420
8421376
6
CONTINUOUS
370
0
390
F
0
LAYER
5
4B
330
2
100
AcDbSymbolTableRecord
100
AcDbLayerTableRecord
2
Perimeter
70
0
62
5
6
CONTINUOUS
370
0
390
F
0
ENDTAB
0
TABLE
2
STYLE
5
3
330
0
100
AcDbSymbolTable
70
3
0
STYLE
5
4C
330
2
100
AcDbSymbolTableRecord
100
AcDbTextStyleTableRecord
2
standard
70
0
40
0
41
1
50
0
71
0
42
1
3
standard
4

0
ENDTAB
0
TABLE
2
VIEW
5
6
330
0
100
AcDbSymbolTable
70
0
0
ENDTAB
0
TABLE
2
UCS
5
7
330
0
100
AcDbSymbolTable
70
0
0
ENDTAB
0
TABLE
2
APPID
5
9
330
0
100
AcDbSymbolTable
70
1
0
APPID
5
12
330
9
100
AcDbSymbolTableRecord
100
AcDbRegAppTableRecord
2
ACAD
70
0
0
ENDTAB
0
TABLE
2
DIMSTYLE
5
A
330
0
100
AcDbSymbolTable
70
1
100
AcDbDimStyleTable
71
1
0
DIMSTYLE
105
4D
330
A
100
AcDbSymbolTableRecord
100
AcDbDimStyleTableRecord
2
Standard
70
0
40
1
41
2.5
42
0.625
43
0.38
44
1.25
45
0
46
0
47
0
48
0
140
2.5
141
0.09
142
0
143
25.4
144
1
145
0
146
1
147
0.625
148
0
71
0
72
0
73
0
74
1
75
0
76
0
77
0
78
0
79
0
170
0
171
2
172
0
173
0
174
0
175
0
176
0
177
0
178
0
179
0
271
4
272
4
273
2
274
2
275
0
276
0
277
2
278
46
279
0
280
0
281
0
282
0
283
1
284
0
285
0
286
0
288
0
289
3
340
Standard
341

371
-2
372
-2
0
ENDTAB
0
TABLE
2
BLOCK_RECORD
5
1
330
0
100
AcDbSymbolTable
70
2
0
BLOCK_RECORD
5
1F
330
1
100
AcDbSymbolTableRecord
100
AcDbBlockTableRecord
2
*Model_Space
70
0
280
1
281
0
0
BLOCK_RECORD
5
1E
330
1
100
AcDbSymbolTableRecord
100
AcDbBlockTableRecord
2
*Paper_Space
70
0
280
1
281
0
0
BLOCK_RECORD
5
4E
330
1
100
AcDbSymbolTableRecord
100
AcDbBlockTableRecord
2
BoltPlus Guitar Clean
70
0
280
1
281
0
0
BLOCK_RECORD
5
51
330
1
100
AcDbSymbolTableRecord
100
AcDbBlockTableRecord
2
Flat round pot (narrow)
70
0
280
1
281
0
0
BLOCK_RECORD
5
54
330
1
100
AcDbSymbolTableRecord
100
AcDbBlockTableRecord
2
Flat round pot (wide)
70
0
280
1
281
0
0
BLOCK_RECORD
5
57
330
1
100
AcDbSymbolTableRecord
100
AcDbBlockTableRecord
2
Trackball
70
0
280
1
281
0
0
BLOCK_RECORD
5
5A
330
1
100
AcDbSymbolTableRecord
100
AcDbBlockTableRecord
2
PCB
70
0
280
1
281
0
0
BLOCK_RECORD
5
5D
330
1
100
AcDbSymbolTableRecord
100
AcDbBlockTableRecord
2
Flat straight pot (long)
70
0
280
1
281
0
0
BLOCK_RECORD
5
60
330
1
100
AcDbSymbolTableRecord
100
AcDbBlockTableRecord
2
Flat straight pot (short)
70
0
280
1
281
0
0
BLOCK_RECORD
5
63
330
1
100
AcDbSymbolTableRecord
100
AcDbBlockTableRecord
2
LCD 16x2
70
0
280
1
281
0
0
BLOCK_RECORD
5
66
330
1
100
AcDbSymbolTableRecord
100
AcDbBlockTableRecord
2
5 position selector
70
0
280
1
281
0
0
BLOCK_RECORD
5
69
330
1
100
AcDbSymbolTableRecord
100
AcDbBlockTableRecord
2
LED Holder
70
0
280
1
281
0
0
BLOCK_RECORD
5
6C
330
1
100
AcDbSymbolTableRecord
100
AcDbBlockTableRecord
2
Pushbutton (non latching)
70
0
280
1
281
0
0
BLOCK_RECORD
5
6F
330
1
100
AcDbSymbolTableRecord
100
AcDbBlockTableRecord
2
LCD + 2 PBs
70
0
280
1
281
0
0
BLOCK_RECORD
5
72
330
1
100
AcDbSymbolTableRecord
100
AcDbBlockTableRecord
2
PB + LED
70
0
280
1
281
0
0
BLOCK_RECORD
5
75
330
1
100
AcDbSymbolTableRecord
100
AcDbBlockTableRecord
2
LED 5x Cross
70
0
280
1
281
0
0
BLOCK_RECORD
5
78
330
1
100
AcDbSymbolTableRecord
100
AcDbBlockTableRecord
2
Selectors 2x
70
0
280
1
281
0
0
BLOCK_RECORD
5
7B
330
1
100
AcDbSymbolTableRecord
100
AcDbBlockTableRecord
2
Selectors Crossed
70
0
280
1
281
0
0
BLOCK_RECORD
5
7E
330
1
100
AcDbSymbolTableRecord
100
AcDbBlockTableRecord
2
TB + Selectors crossed
70
0
280
1
281
0
0
BLOCK_RECORD
5
81
330
1
100
AcDbSymbolTableRecord
100
AcDbBlockTableRecord
2
TB 2xSelect 4x PB LED
70
0
280
1
281
0
0
BLOCK_RECORD
5
84
330
1
100
AcDbSymbolTableRecord
100
AcDbBlockTableRecord
2
HMI_v_00
70
0
280
1
281
0
0
BLOCK_RECORD
5
87
330
1
100
AcDbSymbolTableRecord
100
AcDbBlockTableRecord
2
LED 3x Line
70
0
280
1
281
0
0
BLOCK_RECORD
5
8A
330
1
100
AcDbSymbolTableRecord
100
AcDbBlockTableRecord
2
HMI_03-0
70
0
280
1
281
0
0
BLOCK_RECORD
5
8D
330
1
100
AcDbSymbolTableRecord
100
AcDbBlockTableRecord
2
Selectors PBs LEDs LCD
70
0
280
1
281
0
0
BLOCK_RECORD
5
90
330
1
100
AcDbSymbolTableRecord
100
AcDbBlockTableRecord
2
LED Array
70
0
280
1
281
0
0
ENDTAB
0
ENDSEC
0
SECTION
2
BLOCKS
0
BLOCK
5
20
330
1F
100
AcDbEntity
8
0
100
AcDbBlockBegin
2
*Model_Space
70
0
10
0
20
0
30
0
3
*Model_Space
1

0
ENDBLK
5
21
330
1F
100
AcDbEntity
8
0
100
AcDbBlockEnd
0
BLOCK
5
1C
330
1B
100
AcDbEntity
8
0
100
AcDbBlockBegin
2
*Paper_Space
70
0
10
0
20
0
30
0
3
*Paper_Space
1

0
ENDBLK
5
1D
330
1F
100
AcDbEntity
8
0
100
AcDbBlockEnd
0
BLOCK
5
4F
330
4E
100
AcDbEntity
8
0
100
AcDbBlockBegin
2
BoltPlus Guitar Clean
70
0
10
0
20
0
3
BoltPlus Guitar Clean
1

0
SPLINE
5
93
100
AcDbEntity
8
Guitar
6
ByLayer
62
256
370
-1
100
AcDbSpline
210
0
220
0
230
1
70
8
71
3
72
8
73
4
74
0
42
1e-07
43
1e-07
40
0
40
0
40
0
40
0
40
1
40
1
40
1
40
1
10
141.797311194
20
-152.588022839
30
0
10
149.728330894
20
-149.708666539
30
0
10
168.008393394
20
-142.080829739
30
0
10
182.419669694
20
-135.637256639
30
0
0
SPLINE
5
94
100
AcDbEntity
8
Guitar
6
ByLayer
62
256
370
-1
100
AcDbSpline
210
0
220
0
230
1
70
8
71
3
72
8
73
4
74
0
42
1e-07
43
1e-07
40
0
40
0
40
0
40
0
40
1
40
1
40
1
40
1
10
182.419669694
20
-135.637256639
30
0
10
225.198035694
20
-116.510136639
30
0
10
228.503414094
20
-115.404814139
30
0
10
243.441156194
20
-115.231699039
30
0
0
SPLINE
5
95
100
AcDbEntity
8
Guitar
6
ByLayer
62
256
370
-1
100
AcDbSpline
210
0
220
0
230
1
70
8
71
3
72
8
73
4
74
0
42
1e-07
43
1e-07
40
0
40
0
40
0
40
0
40
1
40
1
40
1
40
1
10
243.441156194
20
-115.231699039
30
0
10
258.121286594
20
-115.061540239
30
0
10
269.104965694
20
-118.139636039
30
0
10
292.985407194
20
-129.116138239
30
0
0
SPLINE
5
96
100
AcDbEntity
8
Guitar
6
ByLayer
62
256
370
-1
100
AcDbSpline
210
0
220
0
230
1
70
8
71
3
72
8
73
4
74
0
42
1e-07
43
1e-07
40
0
40
0
40
0
40
0
40
1
40
1
40
1
40
1
10
292.985407194
20
-129.116138239
30
0
10
314.195440294
20
-138.865169639
30
0
10
331.750137694
20
-141.870589339
30
0
10
350.516565594
20
-138.965660339
30
0
0
SPLINE
5
97
100
AcDbEntity
8
Guitar
6
ByLayer
62
256
370
-1
100
AcDbSpline
210
0
220
0
230
1
70
8
71
3
72
8
73
4
74
0
42
1e-07
43
1e-07
40
0
40
0
40
0
40
0
40
1
40
1
40
1
40
1
10
350.516565594
20
-138.965660339
30
0
10
370.303217794
20
-135.902811339
30
0
10
386.862962794
20
-126.140840839
30
0
10
386.862962794
20
-117.539460139
30
0
0
SPLINE
5
98
100
AcDbEntity
8
Guitar
6
ByLayer
62
256
370
-1
100
AcDbSpline
210
0
220
0
230
1
70
8
71
3
72
8
73
4
74
0
42
1e-07
43
1e-07
40
0
40
0
40
0
40
0
40
1
40
1
40
1
40
1
10
386.862962794
20
-117.539460139
30
0
10
386.862962794
20
-110.820767839
30
0
10
380.788974194
20
-106.636724439
30
0
10
365.489458994
20
-102.816418739
30
0
0
SPLINE
5
99
100
AcDbEntity
8
Guitar
6
ByLayer
62
256
370
-1
100
AcDbSpline
210
0
220
0
230
1
70
8
71
3
72
8
73
4
74
0
42
1e-07
43
1e-07
40
0
40
0
40
0
40
0
40
1
40
1
40
1
40
1
10
365.489458994
20
-102.816418739
30
0
10
347.919416094
20
-98.4291614388
30
0
10
338.824502494
20
-93.1101479388
30
0
10
332.458004694
20
-83.4985163388
30
0
0
SPLINE
5
9A
100
AcDbEntity
8
Guitar
6
ByLayer
62
256
370
-1
100
AcDbSpline
210
0
220
0
230
1
70
8
71
3
72
8
73
4
74
0
42
1e-07
43
1e-07
40
0
40
0
40
0
40
0
40
1
40
1
40
1
40
1
10
332.458004694
20
-83.4985163388
30
0
10
320.207600394
20
-65.0037578388
30
0
10
325.834830494
20
-38.5249166388
30
0
10
343.109459594
20
-33.3782991388
30
0
0
SPLINE
5
9B
100
AcDbEntity
8
Guitar
6
ByLayer
62
256
370
-1
100
AcDbSpline
210
0
220
0
230
1
70
8
71
3
72
8
73
4
74
0
42
1e-07
43
1e-07
40
0
40
0
40
0
40
0
40
1
40
1
40
1
40
1
10
343.109459594
20
-33.3782991388
30
0
10
348.838825394
20
-31.6713625388
30
0
10
463.823305494
20
-29.5502337388
30
0
10
650.493792994
20
-27.7079465388
30
0
0
SPLINE
5
9C
100
AcDbEntity
8
Guitar
6
ByLayer
62
256
370
-1
100
AcDbSpline
210
0
220
0
230
1
70
8
71
3
72
8
73
4
74
0
42
1e-07
43
1e-07
40
0
40
0
40
0
40
0
40
1
40
1
40
1
40
1
10
757.023861394
20
-26.2477975388
30
0
10
804.821968394
20
-25.9574362388
30
0
10
804.592895094
20
-25.9191688388
30
0
10
821.184632994
20
-36.9671909388
30
0
0
SPLINE
5
9D
100
AcDbEntity
8
Guitar
6
ByLayer
62
256
370
-1
100
AcDbSpline
210
0
220
0
230
1
70
8
71
3
72
8
73
4
74
0
42
1e-07
43
1e-07
40
0
40
0
40
0
40
0
40
1
40
1
40
1
40
1
10
821.184632994
20
-36.9671909388
30
0
10
829.467894194
20
-42.4828242388
30
0
10
831.182266194
20
-42.6272646388
30
0
10
856.921712794
20
-39.9780344388
30
0
0
SPLINE
5
9E
100
AcDbEntity
8
Guitar
6
ByLayer
62
256
370
-1
100
AcDbSpline
210
0
220
0
230
1
70
8
71
3
72
8
73
4
74
0
42
1e-07
43
1e-07
40
0
40
0
40
0
40
0
40
1
40
1
40
1
40
1
10
856.921712794
20
-39.9780344388
30
0
10
876.603982694
20
-37.9522498388
30
0
10
908.431978494
20
-37.0270689388
30
0
10
912.466571294
20
-38.3634481388
30
0
0
SPLINE
5
9F
100
AcDbEntity
8
Guitar
6
ByLayer
62
256
370
-1
100
AcDbSpline
210
0
220
0
230
1
70
8
71
3
72
8
73
4
74
0
42
1e-07
43
1e-07
40
0
40
0
40
0
40
0
40
1
40
1
40
1
40
1
10
912.466571294
20
-38.3634481388
30
0
10
913.834468694
20
-38.8165328388
30
0
10
925.565555894
20
-40.4314528388
30
0
10
938.535647694
20
-41.9521425388
30
0
0
SPLINE
5
A0
100
AcDbEntity
8
Guitar
6
ByLayer
62
256
370
-1
100
AcDbSpline
210
0
220
0
230
1
70
8
71
3
72
8
73
4
74
0
42
1e-07
43
1e-07
40
0
40
0
40
0
40
0
40
1
40
1
40
1
40
1
10
938.535647694
20
-41.9521425388
30
0
10
959.609333794
20
-44.4229231388
30
0
10
962.630178894
20
-44.4519738388
30
0
10
966.936177894
20
-42.2252595388
30
0
0
SPLINE
5
A1
100
AcDbEntity
8
Guitar
6
ByLayer
62
256
370
-1
100
AcDbSpline
210
0
220
0
230
1
70
8
71
3
72
8
73
4
74
0
42
1e-07
43
1e-07
40
0
40
0
40
0
40
0
40
1
40
1
40
1
40
1
10
966.936177894
20
-42.2252595388
30
0
10
973.276303994
20
-38.9466429388
30
0
10
974.646917994
20
-34.9859341388
30
0
10
970.942410894
20
-30.6482900388
30
0
0
SPLINE
5
A2
100
AcDbEntity
8
Guitar
6
ByLayer
62
256
370
-1
100
AcDbSpline
210
0
220
0
230
1
70
8
71
3
72
8
73
4
74
0
42
1e-07
43
1e-07
40
0
40
0
40
0
40
0
40
1
40
1
40
1
40
1
10
970.942410894
20
-30.6482900388
30
0
10
969.311134894
20
-28.7382100388
30
0
10
966.511358994
20
-24.2850681388
30
0
10
964.720682494
20
-20.7524165388
30
0
0
SPLINE
5
A3
100
AcDbEntity
8
Guitar
6
ByLayer
62
256
370
-1
100
AcDbSpline
210
0
220
0
230
1
70
8
71
3
72
8
73
4
74
0
42
1e-07
43
1e-07
40
0
40
0
40
0
40
0
40
1
40
1
40
1
40
1
10
964.720682494
20
-20.7524165388
30
0
10
962.930024794
20
-17.2197884388
30
0
10
959.766863694
20
-13.2168078388
30
0
10
957.691442394
20
-11.8569333388
30
0
0
SPLINE
5
A4
100
AcDbEntity
8
Guitar
6
ByLayer
62
256
370
-1
100
AcDbSpline
210
0
220
0
230
1
70
8
71
3
72
8
73
4
74
0
42
1e-07
43
1e-07
40
0
40
0
40
0
40
0
40
1
40
1
40
1
40
1
10
957.691442394
20
-11.8569333388
30
0
10
953.435385594
20
-9.0682588388
30
0
10
952.588135394
20
-3.1336252388
30
0
10
956.446083394
20
-3.1336252388
30
0
0
SPLINE
5
A5
100
AcDbEntity
8
Guitar
6
ByLayer
62
256
370
-1
100
AcDbSpline
210
0
220
0
230
1
70
8
71
3
72
8
73
4
74
0
42
1e-07
43
1e-07
40
0
40
0
40
0
40
0
40
1
40
1
40
1
40
1
10
956.446083394
20
-3.1336252388
30
0
10
958.505308494
20
-3.1336252388
30
0
10
962.208236394
20
2.8504429612
30
0
10
962.208236394
20
6.1782262612
30
0
0
SPLINE
5
A6
100
AcDbEntity
8
Guitar
6
ByLayer
62
256
370
-1
100
AcDbSpline
210
0
220
0
230
1
70
8
71
3
72
8
73
4
74
0
42
1e-07
43
1e-07
40
0
40
0
40
0
40
0
40
1
40
1
40
1
40
1
10
962.208236394
20
6.1782262612
30
0
10
962.208236394
20
7.9746555612
30
0
10
950.148750794
20
11.8685256612
30
0
10
947.343052894
20
10.9780307612
30
0
0
SPLINE
5
A7
100
AcDbEntity
8
Guitar
6
ByLayer
62
256
370
-1
100
AcDbSpline
210
0
220
0
230
1
70
8
71
3
72
8
73
4
74
0
42
1e-07
43
1e-07
40
0
40
0
40
0
40
0
40
1
40
1
40
1
40
1
10
947.343052894
20
10.9780307612
30
0
10
943.838121894
20
9.8656065612
30
0
10
941.682307094
20
3.4646389612
30
0
10
944.023931694
20
1.1230143612
30
0
0
SPLINE
5
A8
100
AcDbEntity
8
Guitar
6
ByLayer
62
256
370
-1
100
AcDbSpline
210
0
220
0
230
1
70
8
71
3
72
8
73
4
74
0
42
1e-07
43
1e-07
40
0
40
0
40
0
40
0
40
1
40
1
40
1
40
1
10
944.023931694
20
1.1230143612
30
0
10
946.925396794
20
-1.7784507388
30
0
10
945.699773094
20
-4.7916818388
30
0
10
941.618161494
20
-4.7916818388
30
0
0
SPLINE
5
A9
100
AcDbEntity
8
Guitar
6
ByLayer
62
256
370
-1
100
AcDbSpline
210
0
220
0
230
1
70
8
71
3
72
8
73
4
74
0
42
1e-07
43
1e-07
40
0
40
0
40
0
40
0
40
1
40
1
40
1
40
1
10
941.618161494
20
-4.7916818388
30
0
10
932.600050594
20
-4.7916818388
30
0
10
929.160473094
20
0.0097958612
30
0
10
935.679349594
20
3.4985964612
30
0
0
SPLINE
5
AA
100
AcDbEntity
8
Guitar
6
ByLayer
62
256
370
-1
100
AcDbSpline
210
0
220
0
230
1
70
8
71
3
72
8
73
4
74
0
42
1e-07
43
1e-07
40
0
40
0
40
0
40
0
40
1
40
1
40
1
40
1
10
935.679349594
20
3.4985964612
30
0
10
939.156132294
20
5.3593170612
30
0
10
940.250889194
20
12.4753238612
30
0
10
937.337406194
20
14.2759549612
30
0
0
SPLINE
5
AB
100
AcDbEntity
8
Guitar
6
ByLayer
62
256
370
-1
100
AcDbSpline
210
0
220
0
230
1
70
8
71
3
72
8
73
4
74
0
42
1e-07
43
1e-07
40
0
40
0
40
0
40
0
40
1
40
1
40
1
40
1
10
937.337406194
20
14.2759549612
30
0
10
936.404225894
20
14.8526966612
30
0
10
935.679349594
20
13.5232781612
30
0
10
935.679349594
20
11.2350972612
30
0
0
SPLINE
5
AC
100
AcDbEntity
8
Guitar
6
ByLayer
62
256
370
-1
100
AcDbSpline
210
0
220
0
230
1
70
8
71
3
72
8
73
4
74
0
42
1e-07
43
1e-07
40
0
40
0
40
0
40
0
40
1
40
1
40
1
40
1
10
935.679349594
20
11.2350972612
30
0
10
935.679349594
20
7.5025499612
30
0
10
932.998023094
20
5.1566530612
30
0
10
928.731767294
20
5.1566530612
30
0
0
SPLINE
5
AD
100
AcDbEntity
8
Guitar
6
ByLayer
62
256
370
-1
100
AcDbSpline
210
0
220
0
230
1
70
8
71
3
72
8
73
4
74
0
42
1e-07
43
1e-07
40
0
40
0
40
0
40
0
40
1
40
1
40
1
40
1
10
928.731767294
20
5.1566530612
30
0
10
927.128771194
20
5.1566530612
30
0
10
927.680424294
20
9.6141565612
30
0
10
930.046470094
20
15.7799737612
30
0
0
SPLINE
5
AE
100
AcDbEntity
8
Guitar
6
ByLayer
62
256
370
-1
100
AcDbSpline
210
0
220
0
230
1
70
8
71
3
72
8
73
4
74
0
42
1e-07
43
1e-07
40
0
40
0
40
0
40
0
40
1
40
1
40
1
40
1
10
930.046470094
20
15.7799737612
30
0
10
930.770312394
20
17.6662717612
30
0
10
930.089446894
20
18.4210964612
30
0
10
927.664322094
20
18.4210964612
30
0
0
SPLINE
5
AF
100
AcDbEntity
8
Guitar
6
ByLayer
62
256
370
-1
100
AcDbSpline
210
0
220
0
230
1
70
8
71
3
72
8
73
4
74
0
42
1e-07
43
1e-07
40
0
40
0
40
0
40
0
40
1
40
1
40
1
40
1
10
927.664322094
20
18.4210964612
30
0
10
925.796715994
20
18.4210964612
30
0
10
923.807539694
20
17.6749714612
30
0
10
923.243934494
20
16.7630398612
30
0
0
SPLINE
5
B0
100
AcDbEntity
8
Guitar
6
ByLayer
62
256
370
-1
100
AcDbSpline
210
0
220
0
230
1
70
8
71
3
72
8
73
4
74
0
42
1e-07
43
1e-07
40
0
40
0
40
0
40
0
40
1
40
1
40
1
40
1
10
923.243934494
20
16.7630398612
30
0
10
921.443510194
20
13.8498905612
30
0
10
917.864817394
20
14.9821816612
30
0
10
916.693497494
20
18.8356082612
30
0
0
SPLINE
5
B1
100
AcDbEntity
8
Guitar
6
ByLayer
62
256
370
-1
100
AcDbSpline
210
0
220
0
230
1
70
8
71
3
72
8
73
4
74
0
42
1e-07
43
1e-07
40
0
40
0
40
0
40
0
40
1
40
1
40
1
40
1
10
916.693497494
20
18.8356082612
30
0
10
915.503504494
20
22.7504497612
30
0
10
915.064439894
20
22.1901768612
30
0
10
913.392020094
20
14.6226645612
30
0
0
SPLINE
5
B2
100
AcDbEntity
8
Guitar
6
ByLayer
62
256
370
-1
100
AcDbSpline
210
0
220
0
230
1
70
8
71
3
72
8
73
4
74
0
42
1e-07
43
1e-07
40
0
40
0
40
0
40
0
40
1
40
1
40
1
40
1
10
913.392020094
20
14.6226645612
30
0
10
912.761491594
20
11.7695483612
30
0
10
911.653992994
20
10.4373051612
30
0
10
910.503710294
20
11.1482130612
30
0
0
SPLINE
5
B3
100
AcDbEntity
8
Guitar
6
ByLayer
62
256
370
-1
100
AcDbSpline
210
0
220
0
230
1
70
8
71
3
72
8
73
4
74
0
42
1e-07
43
1e-07
40
0
40
0
40
0
40
0
40
1
40
1
40
1
40
1
10
910.503710294
20
11.1482130612
30
0
10
909.365172894
20
11.8518782612
30
0
10
909.099152894
20
11.5552095612
30
0
10
909.821162194
20
10.3870057612
30
0
0
SPLINE
5
B4
100
AcDbEntity
8
Guitar
6
ByLayer
62
256
370
-1
100
AcDbSpline
210
0
220
0
230
1
70
8
71
3
72
8
73
4
74
0
42
1e-07
43
1e-07
40
0
40
0
40
0
40
0
40
1
40
1
40
1
40
1
10
909.821162194
20
10.3870057612
30
0
10
910.471853694
20
9.3341681612
30
0
10
910.110141694
20
8.4727615612
30
0
10
909.017363494
20
8.4727615612
30
0
0
SPLINE
5
B5
100
AcDbEntity
8
Guitar
6
ByLayer
62
256
370
-1
100
AcDbSpline
210
0
220
0
230
1
70
8
71
3
72
8
73
4
74
0
42
1e-07
43
1e-07
40
0
40
0
40
0
40
0
40
1
40
1
40
1
40
1
10
909.017363494
20
8.4727615612
30
0
10
907.607593794
20
8.4727615612
30
0
10
907.315695594
20
10.8806702612
30
0
10
908.012357794
20
16.7630398612
30
0
0
SPLINE
5
B6
100
AcDbEntity
8
Guitar
6
ByLayer
62
256
370
-1
100
AcDbSpline
210
0
220
0
230
1
70
8
71
3
72
8
73
4
74
0
42
1e-07
43
1e-07
40
0
40
0
40
0
40
0
40
1
40
1
40
1
40
1
10
908.012357794
20
16.7630398612
30
0
10
908.955342294
20
24.7250231612
30
0
10
908.833175194
20
25.0533181612
30
0
10
904.927207294
20
25.0533181612
30
0
0
SPLINE
5
B7
100
AcDbEntity
8
Guitar
6
ByLayer
62
256
370
-1
100
AcDbSpline
210
0
220
0
230
1
70
8
71
3
72
8
73
4
74
0
42
1e-07
43
1e-07
40
0
40
0
40
0
40
0
40
1
40
1
40
1
40
1
10
904.927207294
20
25.0533181612
30
0
10
902.690345694
20
25.0533181612
30
0
10
900.860184494
20
24.3071931612
30
0
10
900.860184494
20
23.3952615612
30
0
0
SPLINE
5
B8
100
AcDbEntity
8
Guitar
6
ByLayer
62
256
370
-1
100
AcDbSpline
210
0
220
0
230
1
70
8
71
3
72
8
73
4
74
0
42
1e-07
43
1e-07
40
0
40
0
40
0
40
0
40
1
40
1
40
1
40
1
10
900.860184494
20
23.3952615612
30
0
10
900.860184494
20
22.4833299612
30
0
10
899.740996994
20
21.7372049612
30
0
10
898.373099594
20
21.7372049612
30
0
0
SPLINE
5
B9
100
AcDbEntity
8
Guitar
6
ByLayer
62
256
370
-1
100
AcDbSpline
210
0
220
0
230
1
70
8
71
3
72
8
73
4
74
0
42
1e-07
43
1e-07
40
0
40
0
40
0
40
0
40
1
40
1
40
1
40
1
10
898.373099594
20
21.7372049612
30
0
10
897.005202194
20
21.7372049612
30
0
10
895.886014694
20
22.8123581612
30
0
10
895.886014694
20
24.1264405612
30
0
0
SPLINE
5
BA
100
AcDbEntity
8
Guitar
6
ByLayer
62
256
370
-1
100
AcDbSpline
210
0
220
0
230
1
70
8
71
3
72
8
73
4
74
0
42
1e-07
43
1e-07
40
0
40
0
40
0
40
0
40
1
40
1
40
1
40
1
10
895.886014694
20
24.1264405612
30
0
10
895.886014694
20
25.4405088612
30
0
10
895.139889694
20
26.9767931612
30
0
10
894.227962794
20
27.5404030612
30
0
0
SPLINE
5
BB
100
AcDbEntity
8
Guitar
6
ByLayer
62
256
370
-1
100
AcDbSpline
210
0
220
0
230
1
70
8
71
3
72
8
73
4
74
0
42
1e-07
43
1e-07
40
0
40
0
40
0
40
0
40
1
40
1
40
1
40
1
10
894.227962794
20
27.5404030612
30
0
10
893.316031194
20
28.1040082612
30
0
10
892.569906194
20
26.9590083612
30
0
10
892.569906194
20
24.9959499612
30
0
0
SPLINE
5
BC
100
AcDbEntity
8
Guitar
6
ByLayer
62
256
370
-1
100
AcDbSpline
210
0
220
0
230
1
70
8
71
3
72
8
73
4
74
0
42
1e-07
43
1e-07
40
0
40
0
40
0
40
0
40
1
40
1
40
1
40
1
10
892.569906194
20
24.9959499612
30
0
10
892.569906194
20
22.9664899612
30
0
10
893.844762394
20
21.0933660612
30
0
10
895.525092294
20
20.6539536612
30
0
0
SPLINE
5
BD
100
AcDbEntity
8
Guitar
6
ByLayer
62
256
370
-1
100
AcDbSpline
210
0
220
0
230
1
70
8
71
3
72
8
73
4
74
0
42
1e-07
43
1e-07
40
0
40
0
40
0
40
0
40
1
40
1
40
1
40
1
10
895.525092294
20
20.6539536612
30
0
10
898.876483694
20
19.7775446612
30
0
10
903.305190294
20
11.0874514612
30
0
10
901.713163994
20
8.5115365612
30
0
0
SPLINE
5
BE
100
AcDbEntity
8
Guitar
6
ByLayer
62
256
370
-1
100
AcDbSpline
210
0
220
0
230
1
70
8
71
3
72
8
73
4
74
0
42
1e-07
43
1e-07
40
0
40
0
40
0
40
0
40
1
40
1
40
1
40
1
10
901.713163994
20
8.5115365612
30
0
10
898.545566094
20
3.3862476612
30
0
10
886.473634894
20
8.9769305612
30
0
10
888.011315094
20
14.8570347612
30
0
0
SPLINE
5
BF
100
AcDbEntity
8
Guitar
6
ByLayer
62
256
370
-1
100
AcDbSpline
210
0
220
0
230
1
70
8
71
3
72
8
73
4
74
0
42
1e-07
43
1e-07
40
0
40
0
40
0
40
0
40
1
40
1
40
1
40
1
10
888.011315094
20
14.8570347612
30
0
10
888.638680494
20
17.2560792612
30
0
10
888.181097894
20
18.4210964612
30
0
10
886.611476494
20
18.4210964612
30
0
0
SPLINE
5
C0
100
AcDbEntity
8
Guitar
6
ByLayer
62
256
370
-1
100
AcDbSpline
210
0
220
0
230
1
70
8
71
3
72
8
73
4
74
0
42
1e-07
43
1e-07
40
0
40
0
40
0
40
0
40
1
40
1
40
1
40
1
10
886.611476494
20
18.4210964612
30
0
10
884.026091094
20
18.4210964612
30
0
10
883.865853994
20
19.1952757612
30
0
10
885.324677594
20
24.6388063612
30
0
0
SPLINE
5
C1
100
AcDbEntity
8
Guitar
6
ByLayer
62
256
370
-1
100
AcDbSpline
210
0
220
0
230
1
70
8
71
3
72
8
73
4
74
0
42
1e-07
43
1e-07
40
0
40
0
40
0
40
0
40
1
40
1
40
1
40
1
10
885.324677594
20
24.6388063612
30
0
10
885.874544694
20
26.6906430612
30
0
10
887.505844194
20
28.3694313612
30
0
10
888.949759394
20
28.3694313612
30
0
0
SPLINE
5
C2
100
AcDbEntity
8
Guitar
6
ByLayer
62
256
370
-1
100
AcDbSpline
210
0
220
0
230
1
70
8
71
3
72
8
73
4
74
0
42
1e-07
43
1e-07
40
0
40
0
40
0
40
0
40
1
40
1
40
1
40
1
10
888.949759394
20
28.3694313612
30
0
10
890.826878294
20
28.3694313612
30
0
10
891.065595994
20
28.8789019612
30
0
10
889.787398094
20
30.1571045612
30
0
0
SPLINE
5
C3
100
AcDbEntity
8
Guitar
6
ByLayer
62
256
370
-1
100
AcDbSpline
210
0
220
0
230
1
70
8
71
3
72
8
73
4
74
0
42
1e-07
43
1e-07
40
0
40
0
40
0
40
0
40
1
40
1
40
1
40
1
10
889.787398094
20
30.1571045612
30
0
10
888.804167494
20
31.1403304612
30
0
10
885.856966694
20
31.6999171612
30
0
10
883.238065594
20
31.4006446612
30
0
0
SPLINE
5
C4
100
AcDbEntity
8
Guitar
6
ByLayer
62
256
370
-1
100
AcDbSpline
210
0
220
0
230
1
70
8
71
3
72
8
73
4
74
0
42
1e-07
43
1e-07
40
0
40
0
40
0
40
0
40
1
40
1
40
1
40
1
10
883.238065594
20
31.4006446612
30
0
10
878.598982294
20
30.8705175612
30
0
10
878.488372494
20
30.6324766612
30
0
10
878.940568894
20
22.1517214612
30
0
0
SPLINE
5
C5
100
AcDbEntity
8
Guitar
6
ByLayer
62
256
370
-1
100
AcDbSpline
210
0
220
0
230
1
70
8
71
3
72
8
73
4
74
0
42
1e-07
43
1e-07
40
0
40
0
40
0
40
0
40
1
40
1
40
1
40
1
10
878.940568894
20
22.1517214612
30
0
10
879.372696294
20
14.0475020612
30
0
10
879.143914394
20
13.4505644612
30
0
10
875.624455694
20
13.4996559612
30
0
0
SPLINE
5
C6
100
AcDbEntity
8
Guitar
6
ByLayer
62
256
370
-1
100
AcDbSpline
210
0
220
0
230
1
70
8
71
3
72
8
73
4
74
0
42
1e-07
43
1e-07
40
0
40
0
40
0
40
0
40
1
40
1
40
1
40
1
10
875.624455694
20
13.4996559612
30
0
10
867.340348494
20
13.6151866612
30
0
10
862.118972794
20
23.6409211612
30
0
10
869.357127894
20
25.5337427612
30
0
0
SPLINE
5
C7
100
AcDbEntity
8
Guitar
6
ByLayer
62
256
370
-1
100
AcDbSpline
210
0
220
0
230
1
70
8
71
3
72
8
73
4
74
0
42
1e-07
43
1e-07
40
0
40
0
40
0
40
0
40
1
40
1
40
1
40
1
10
869.357127894
20
25.5337427612
30
0
10
871.508115794
20
26.0962340612
30
0
10
872.673236394
20
27.7953592612
30
0
10
872.673236394
20
30.3696667612
30
0
0
SPLINE
5
C8
100
AcDbEntity
8
Guitar
6
ByLayer
62
256
370
-1
100
AcDbSpline
210
0
220
0
230
1
70
8
71
3
72
8
73
4
74
0
42
1e-07
43
1e-07
40
0
40
0
40
0
40
0
40
1
40
1
40
1
40
1
10
872.673236394
20
30.3696667612
30
0
10
872.673236394
20
35.7979834612
30
0
10
869.703141894
20
38.3177615612
30
0
10
863.304707594
20
38.3177615612
30
0
0
SPLINE
5
C9
100
AcDbEntity
8
Guitar
6
ByLayer
62
256
370
-1
100
AcDbSpline
210
0
220
0
230
1
70
8
71
3
72
8
73
4
74
0
42
1e-07
43
1e-07
40
0
40
0
40
0
40
0
40
1
40
1
40
1
40
1
10
863.304707594
20
38.3177615612
30
0
10
856.601717994
20
38.3177615612
30
0
10
854.214808894
20
34.6891030612
30
0
10
856.658728994
20
28.2143924612
30
0
0
SPLINE
5
CA
100
AcDbEntity
8
Guitar
6
ByLayer
62
256
370
-1
100
AcDbSpline
210
0
220
0
230
1
70
8
71
3
72
8
73
4
74
0
42
1e-07
43
1e-07
40
0
40
0
40
0
40
0
40
1
40
1
40
1
40
1
10
856.658728994
20
28.2143924612
30
0
10
858.917821594
20
22.2293842612
30
0
10
857.658762094
20
21.0743545612
30
0
10
850.366806094
20
22.4423318612
30
0
0
SPLINE
5
CB
100
AcDbEntity
8
Guitar
6
ByLayer
62
256
370
-1
100
AcDbSpline
210
0
220
0
230
1
70
8
71
3
72
8
73
4
74
0
42
1e-07
43
1e-07
40
0
40
0
40
0
40
0
40
1
40
1
40
1
40
1
10
850.366806094
20
22.4423318612
30
0
10
845.581736094
20
23.3400177612
30
0
10
844.486292994
20
24.2828800612
30
0
10
844.486292994
20
27.5038041612
30
0
0
SPLINE
5
CC
100
AcDbEntity
8
Guitar
6
ByLayer
62
256
370
-1
100
AcDbSpline
210
0
220
0
230
1
70
8
71
3
72
8
73
4
74
0
42
1e-07
43
1e-07
40
0
40
0
40
0
40
0
40
1
40
1
40
1
40
1
10
844.486292994
20
27.5038041612
30
0
10
844.486292994
20
30.0058773612
30
0
10
845.706253194
20
31.8492784612
30
0
10
847.802406194
20
32.5145681612
30
0
0
SPLINE
5
CD
100
AcDbEntity
8
Guitar
6
ByLayer
62
256
370
-1
100
AcDbSpline
210
0
220
0
230
1
70
8
71
3
72
8
73
4
74
0
42
1e-07
43
1e-07
40
0
40
0
40
0
40
0
40
1
40
1
40
1
40
1
10
847.802406194
20
32.5145681612
30
0
10
851.620469994
20
33.7263832612
30
0
10
852.319068594
20
40.2314652612
30
0
10
848.932934794
20
43.0417080612
30
0
0
SPLINE
5
CE
100
AcDbEntity
8
Guitar
6
ByLayer
62
256
370
-1
100
AcDbSpline
210
0
220
0
230
1
70
8
71
3
72
8
73
4
74
0
42
1e-07
43
1e-07
40
0
40
0
40
0
40
0
40
1
40
1
40
1
40
1
10
848.932934794
20
43.0417080612
30
0
10
847.730858094
20
44.0393394612
30
0
10
844.291398094
20
45.0633566612
30
0
10
841.289696094
20
45.3173023612
30
0
0
SPLINE
5
CF
100
AcDbEntity
8
Guitar
6
ByLayer
62
256
370
-1
100
AcDbSpline
210
0
220
0
230
1
70
8
71
3
72
8
73
4
74
0
42
1e-07
43
1e-07
40
0
40
0
40
0
40
0
40
1
40
1
40
1
40
1
10
841.289696094
20
45.3173023612
30
0
10
834.428184894
20
45.8977805612
30
0
10
830.980767794
20
41.7395260612
30
0
10
834.135529994
20
36.6879331612
30
0
0
SPLINE
5
D0
100
AcDbEntity
8
Guitar
6
ByLayer
62
256
370
-1
100
AcDbSpline
210
0
220
0
230
1
70
8
71
3
72
8
73
4
74
0
42
1e-07
43
1e-07
40
0
40
0
40
0
40
0
40
1
40
1
40
1
40
1
10
834.135529994
20
36.6879331612
30
0
10
837.664308794
20
31.0374803612
30
0
10
836.711341494
20
29.5617555612
30
0
10
830.309269394
20
30.7627982612
30
0
0
SPLINE
5
D1
100
AcDbEntity
8
Guitar
6
ByLayer
62
256
370
-1
100
AcDbSpline
210
0
220
0
230
1
70
8
71
3
72
8
73
4
74
0
42
1e-07
43
1e-07
40
0
40
0
40
0
40
0
40
1
40
1
40
1
40
1
10
830.309269394
20
30.7627982612
30
0
10
825.463569394
20
31.6718534612
30
0
10
822.928784194
20
30.9480487612
30
0
10
815.976055394
20
26.6699865612
30
0
0
SPLINE
5
D2
100
AcDbEntity
8
Guitar
6
ByLayer
62
256
370
-1
100
AcDbSpline
210
0
220
0
230
1
70
8
71
3
72
8
73
4
74
0
42
1e-07
43
1e-07
40
0
40
0
40
0
40
0
40
1
40
1
40
1
40
1
10
815.976055394
20
26.6699865612
30
0
10
811.330500194
20
23.8115546612
30
0
10
805.585619694
20
20.7252620612
30
0
10
803.209675694
20
19.8115679612
30
0
0
SPLINE
5
D3
100
AcDbEntity
8
Guitar
6
ByLayer
62
256
370
-1
100
AcDbSpline
210
0
220
0
230
1
70
8
71
3
72
8
73
4
74
0
42
1e-07
43
1e-07
40
0
40
0
40
0
40
0
40
1
40
1
40
1
40
1
10
803.209675694
20
19.8115679612
30
0
10
800.814532194
20
18.8904995612
30
0
10
783.745246094
20
18.1704360612
30
0
10
764.899627894
20
18.1954823612
30
0
0
SPLINE
5
D4
100
AcDbEntity
8
Guitar
6
ByLayer
62
256
370
-1
100
AcDbSpline
210
0
220
0
230
1
70
8
71
3
72
8
73
4
74
0
42
1e-07
43
1e-07
40
0
40
0
40
0
40
0
40
1
40
1
40
1
40
1
10
598.679559494
20
20.5942636612
30
0
10
600.275430394
20
21.0113087612
30
0
10
587.777843694
20
21.4401884612
30
0
10
570.907127894
20
21.5473155612
30
0
0
SPLINE
5
D5
100
AcDbEntity
8
Guitar
6
ByLayer
62
256
370
-1
100
AcDbSpline
210
0
220
0
230
1
70
8
71
3
72
8
73
4
74
0
42
1e-07
43
1e-07
40
0
40
0
40
0
40
0
40
1
40
1
40
1
40
1
10
570.907127894
20
21.5473155612
30
0
10
554.036412094
20
21.6544896612
30
0
10
512.812998794
20
22.2350994612
30
0
10
479.299559494
20
22.8376535612
30
0
0
SPLINE
5
D6
100
AcDbEntity
8
Guitar
6
ByLayer
62
256
370
-1
100
AcDbSpline
210
0
220
0
230
1
70
8
71
3
72
8
73
4
74
0
42
1e-07
43
1e-07
40
0
40
0
40
0
40
0
40
1
40
1
40
1
40
1
10
397.136551794
20
25.0533181612
30
0
10
386.560729294
20
25.0533181612
30
0
10
385.536514694
20
25.3902329612
30
0
10
380.754950894
20
30.4419997612
30
0
0
SPLINE
5
D7
100
AcDbEntity
8
Guitar
6
ByLayer
62
256
370
-1
100
AcDbSpline
210
0
220
0
230
1
70
8
71
3
72
8
73
4
74
0
42
1e-07
43
1e-07
40
0
40
0
40
0
40
0
40
1
40
1
40
1
40
1
10
380.754950894
20
30.4419997612
30
0
10
373.660061194
20
37.9378041612
30
0
10
371.940462794
20
41.8950631612
30
0
10
371.940462794
20
50.7265135612
30
0
0
SPLINE
5
D8
100
AcDbEntity
8
Guitar
6
ByLayer
62
256
370
-1
100
AcDbSpline
210
0
220
0
230
1
70
8
71
3
72
8
73
4
74
0
42
1e-07
43
1e-07
40
0
40
0
40
0
40
0
40
1
40
1
40
1
40
1
10
371.940462794
20
50.7265135612
30
0
10
371.940462794
20
59.9846158612
30
0
10
374.604916294
20
65.4236673612
30
0
10
382.995671194
20
73.2939207612
30
0
0
SPLINE
5
D9
100
AcDbEntity
8
Guitar
6
ByLayer
62
256
370
-1
100
AcDbSpline
210
0
220
0
230
1
70
8
71
3
72
8
73
4
74
0
42
1e-07
43
1e-07
40
0
40
0
40
0
40
0
40
1
40
1
40
1
40
1
10
382.995671194
20
73.2939207612
30
0
10
391.207078794
20
80.9959423612
30
0
10
399.120487594
20
85.6051383612
30
0
10
408.417684494
20
88.1010592612
30
0
0
SPLINE
5
DA
100
AcDbEntity
8
Guitar
6
ByLayer
62
256
370
-1
100
AcDbSpline
210
0
220
0
230
1
70
8
71
3
72
8
73
4
74
0
42
1e-07
43
1e-07
40
0
40
0
40
0
40
0
40
1
40
1
40
1
40
1
10
408.417684494
20
88.1010592612
30
0
10
417.016437894
20
90.4094877612
30
0
10
447.752835194
20
94.9732676612
30
0
10
456.898113994
20
95.2995087612
30
0
0
SPLINE
5
DB
100
AcDbEntity
8
Guitar
6
ByLayer
62
256
370
-1
100
AcDbSpline
210
0
220
0
230
1
70
8
71
3
72
8
73
4
74
0
42
1e-07
43
1e-07
40
0
40
0
40
0
40
0
40
1
40
1
40
1
40
1
10
456.898113994
20
95.2995087612
30
0
10
462.160182294
20
95.4872220612
30
0
10
463.351608794
20
96.2478888612
30
0
10
464.773875794
20
100.327752061
30
0
0
SPLINE
5
DC
100
AcDbEntity
8
Guitar
6
ByLayer
62
256
370
-1
100
AcDbSpline
210
0
220
0
230
1
70
8
71
3
72
8
73
4
74
0
42
1e-07
43
1e-07
40
0
40
0
40
0
40
0
40
1
40
1
40
1
40
1
10
464.773875794
20
100.327752061
30
0
10
466.983439794
20
106.666120361
30
0
10
466.889872194
20
107.956096461
30
0
10
464.220525994
20
107.956096461
30
0
0
SPLINE
5
DD
100
AcDbEntity
8
Guitar
6
ByLayer
62
256
370
-1
100
AcDbSpline
210
0
220
0
230
1
70
8
71
3
72
8
73
4
74
0
42
1e-07
43
1e-07
40
0
40
0
40
0
40
0
40
1
40
1
40
1
40
1
10
464.220525994
20
107.956096461
30
0
10
462.994502794
20
107.956096461
30
0
10
457.627126294
20
111.775175461
30
0
10
452.293016394
20
116.442942861
30
0
0
SPLINE
5
DE
100
AcDbEntity
8
Guitar
6
ByLayer
62
256
370
-1
100
AcDbSpline
210
0
220
0
230
1
70
8
71
3
72
8
73
4
74
0
42
1e-07
43
1e-07
40
0
40
0
40
0
40
0
40
1
40
1
40
1
40
1
10
452.293016394
20
116.442942861
30
0
10
446.958906494
20
121.110710261
30
0
10
439.195028194
20
126.425216461
30
0
10
435.039964994
20
128.252957161
30
0
0
SPLINE
5
DF
100
AcDbEntity
8
Guitar
6
ByLayer
62
256
370
-1
100
AcDbSpline
210
0
220
0
230
1
70
8
71
3
72
8
73
4
74
0
42
1e-07
43
1e-07
40
0
40
0
40
0
40
0
40
1
40
1
40
1
40
1
10
435.039964994
20
128.252957161
30
0
10
425.475544894
20
132.460199761
30
0
10
407.160175994
20
133.788734661
30
0
10
392.452386094
20
131.342116761
30
0
0
SPLINE
5
E0
100
AcDbEntity
8
Guitar
6
ByLayer
62
256
370
-1
100
AcDbSpline
210
0
220
0
230
1
70
8
71
3
72
8
73
4
74
0
42
1e-07
43
1e-07
40
0
40
0
40
0
40
0
40
1
40
1
40
1
40
1
10
262.508792994
20
104.517646961
30
0
10
258.405105494
20
105.627058461
30
0
10
240.125042994
20
113.879736761
30
0
10
221.886434494
20
122.856934161
30
0
0
SPLINE
5
E1
100
AcDbEntity
8
Guitar
6
ByLayer
62
256
370
-1
100
AcDbSpline
210
0
220
0
230
1
70
8
71
3
72
8
73
4
74
0
42
1e-07
43
1e-07
40
0
40
0
40
0
40
0
40
1
40
1
40
1
40
1
10
221.886434494
20
122.856934161
30
0
10
163.635494594
20
151.528546261
30
0
10
147.446024994
20
156.484508261
30
0
10
111.625736394
20
156.610233261
30
0
0
SPLINE
5
E2
100
AcDbEntity
8
Guitar
6
ByLayer
62
256
370
-1
100
AcDbSpline
210
0
220
0
230
1
70
8
71
3
72
8
73
4
74
0
42
1e-07
43
1e-07
40
0
40
0
40
0
40
0
40
1
40
1
40
1
40
1
10
111.625736394
20
156.610233261
30
0
10
85.9011840939
20
156.700524961
30
0
10
76.0042013939
20
154.165429561
30
0
10
56.5451156939
20
142.501411361
30
0
0
SPLINE
5
E3
100
AcDbEntity
8
Guitar
6
ByLayer
62
256
370
-1
100
AcDbSpline
210
0
220
0
230
1
70
8
71
3
72
8
73
4
74
0
42
1e-07
43
1e-07
40
0
40
0
40
0
40
0
40
1
40
1
40
1
40
1
10
56.5451156939
20
142.501411361
30
0
10
21.2444778939
20
121.341766961
30
0
10
0.566940693885
20
76.2933761612
30
0
10
0.542683993885
20
20.4936648612
30
0
0
SPLINE
5
E4
100
AcDbEntity
8
Guitar
6
ByLayer
62
256
370
-1
100
AcDbSpline
210
0
220
0
230
1
70
8
71
3
72
8
73
4
74
0
42
1e-07
43
1e-07
40
0
40
0
40
0
40
0
40
1
40
1
40
1
40
1
10
22.5597540939
20
-114.339211339
30
0
10
26.4054820939
20
-120.064530439
30
0
10
30.4033866939
20
-126.184414539
30
0
10
31.4439807939
20
-127.938957439
30
0
0
SPLINE
5
E5
100
AcDbEntity
8
Guitar
6
ByLayer
62
256
370
-1
100
AcDbSpline
210
0
220
0
230
1
70
8
71
3
72
8
73
4
74
0
42
1e-07
43
1e-07
40
0
40
0
40
0
40
0
40
1
40
1
40
1
40
1
10
31.4439807939
20
-127.938957439
30
0
10
32.4845795939
20
-129.693486239
30
0
10
36.9613295939
20
-133.690314539
30
0
10
41.3923156939
20
-136.820777739
30
0
0
SPLINE
5
E6
100
AcDbEntity
8
Guitar
6
ByLayer
62
256
370
-1
100
AcDbSpline
210
0
220
0
230
1
70
8
71
3
72
8
73
4
74
0
42
1e-07
43
1e-07
40
0
40
0
40
0
40
0
40
1
40
1
40
1
40
1
10
75.1485146939
20
-155.435832739
30
0
10
80.0614246939
20
-157.995748839
30
0
10
84.5128557939
20
-158.410805839
30
0
10
104.164486394
20
-158.141406539
30
0
0
SPLINE
5
E7
100
AcDbEntity
8
Guitar
6
ByLayer
62
256
370
-1
100
AcDbSpline
210
0
220
0
230
1
70
8
71
3
72
8
73
4
74
0
42
1e-07
43
1e-07
40
0
40
0
40
0
40
0
40
1
40
1
40
1
40
1
10
104.164486394
20
-158.141406539
30
0
10
125.638509094
20
-157.847003239
30
0
10
128.457404594
20
-157.431029739
30
0
10
141.797311194
20
-152.588022839
30
0
0
LWPOLYLINE
5
E8
100
AcDbEntity
8
Guitar
6
ByLayer
62
256
370
-1
100
AcDbPolyline
90
2
70
1
43
0
10
141.797311194
20
-152.588022839
10
141.797311194
20
-152.588022839
0
SPLINE
5
E9
100
AcDbEntity
8
Guitar
6
ByLayer
62
256
370
-1
100
AcDbSpline
210
0
220
0
230
1
70
8
71
3
72
8
73
4
74
0
42
1e-07
43
1e-07
40
0
40
0
40
0
40
0
40
1
40
1
40
1
40
1
10
479.299559494
20
22.8376535612
30
0
10
423.159469494
20
23.8470114612
30
0
10
431.206902998
20
24.058580239
30
0
10
397.162883156
20
25.0833820533
30
0
0
SPLINE
5
EA
100
AcDbEntity
8
Guitar
6
ByLayer
62
256
370
-1
100
AcDbSpline
210
0
220
0
230
1
70
8
71
3
72
8
73
4
74
0
42
1e-07
43
1e-07
40
0
40
0
40
0
40
0
40
1
40
1
40
1
40
1
10
645.105111394
20
20.0724273612
30
0
10
620.047066094
20
20.0777336612
30
0
10
615.674627894
20
19.7096437612
30
0
10
598.303974782
20
20.9026826251
30
0
0
SPLINE
5
EB
100
AcDbEntity
8
Guitar
6
ByLayer
62
256
370
-1
100
AcDbSpline
210
0
220
0
230
1
70
8
71
3
72
8
73
4
74
0
42
1e-07
43
1e-07
40
0
40
0
40
0
40
0
40
1
40
1
40
1
40
1
10
764.722784277
20
18.1605034303
30
0
10
683.966130794
20
19.5847083612
30
0
10
661.291873794
20
20.0687237612
30
0
10
645.105111394
20
20.0724273612
30
0
0
SPLINE
5
EC
100
AcDbEntity
8
Guitar
6
ByLayer
62
256
370
-1
100
AcDbSpline
210
0
220
0
230
1
70
8
71
3
72
8
73
4
74
0
42
1e-07
43
1e-07
40
0
40
0
40
0
40
0
40
1
40
1
40
1
40
1
10
712.079704782
20
-26.4300275025
30
0
10
713.499906194
20
-26.2049382388
30
0
10
718.703558194
20
-26.4805885388
30
0
10
757.023861394
20
-26.2477975388
30
0
0
SPLINE
5
ED
100
AcDbEntity
8
Guitar
6
ByLayer
62
256
370
-1
100
AcDbSpline
210
0
220
0
230
1
70
8
71
3
72
8
73
4
74
0
42
1e-07
43
1e-07
40
0
40
0
40
0
40
0
40
1
40
1
40
1
40
1
10
650.493792994
20
-27.7079465388
30
0
10
699.596394394
20
-27.2233295388
30
0
10
708.525736394
20
-26.6093826388
30
0
10
713.73688009
20
-26.2827230306
30
0
0
LINE
5
EE
100
AcDbEntity
8
Guitar
6
ByLayer
62
256
370
-1
100
AcDbLine
10
0.542683993885
20
20.4936648612
11
0.536014693885
21
5.1566530612
0
SPLINE
5
EF
100
AcDbEntity
8
Guitar
6
ByLayer
62
256
370
-1
100
AcDbSpline
210
0
220
0
230
1
70
8
71
3
72
8
73
4
74
0
42
1e-07
43
1e-07
40
0
40
0
40
0
40
0
40
1
40
1
40
1
40
1
10
0.536014693885
20
5.1566530612
30
0
10
-1.77427500611
20
-15.4786969388
30
0
10
1.85459029389
20
-56.5312652388
30
0
10
4.76762209389
20
-69.3389109388
30
0
0
SPLINE
5
F0
100
AcDbEntity
8
Guitar
6
ByLayer
62
256
370
-1
100
AcDbSpline
210
0
220
0
230
1
70
8
71
3
72
8
73
4
74
0
42
1e-07
43
1e-07
40
0
40
0
40
0
40
0
40
1
40
1
40
1
40
1
10
4.76762209389
20
-69.3389109388
30
0
10
8.29711529389
20
-86.9996168388
30
0
10
14.2979765939
20
-102.039532239
30
0
10
22.5597540939
20
-114.339211339
30
0
0
SPLINE
5
F1
100
AcDbEntity
8
Guitar
6
ByLayer
62
256
370
-1
100
AcDbSpline
210
0
220
0
230
1
70
8
71
3
72
8
73
4
74
0
42
1e-07
43
1e-07
40
0
40
0
40
0
40
0
40
1
40
1
40
1
40
1
10
41.3923156939
20
-136.820777739
30
0
10
66.7338837939
20
-152.472369939
30
0
10
71.9567587939
20
-153.772747139
30
0
10
75.1485146939
20
-155.435832739
30
0
0
SPLINE
5
F2
100
AcDbEntity
8
Guitar
6
ByLayer
62
256
370
-1
100
AcDbSpline
210
0
220
0
230
1
70
8
71
3
72
8
73
4
74
0
42
1e-07
43
1e-07
40
0
40
0
40
0
40
0
40
1
40
1
40
1
40
1
10
311.421434494
20
106.365936061
30
0
10
298.094988694
20
102.037330061
30
0
10
274.922376594
20
101.161696561
30
0
10
262.508792994
20
104.517646961
30
0
0
SPLINE
5
F3
100
AcDbEntity
8
Guitar
6
ByLayer
62
256
370
-1
100
AcDbSpline
210
0
220
0
230
1
70
8
71
3
72
8
73
4
74
0
42
1e-07
43
1e-07
40
0
40
0
40
0
40
0
40
1
40
1
40
1
40
1
10
328.108699894
20
111.099541061
30
0
10
324.349677494
20
110.063618761
30
0
10
317.804946294
20
108.439383361
30
0
10
311.421434494
20
106.365936061
30
0
0
SPLINE
5
F4
100
AcDbEntity
8
Guitar
6
ByLayer
62
256
370
-1
100
AcDbSpline
210
0
220
0
230
1
70
8
71
3
72
8
73
4
74
0
42
1e-07
43
1e-07
40
0
40
0
40
0
40
0
40
1
40
1
40
1
40
1
10
392.452386094
20
131.342116761
30
0
10
378.321944194
20
128.991543361
30
0
10
328.108699894
20
111.099541061
30
0
10
328.108699894
20
111.099541061
30
0
0
ENDBLK
5
50
330
4E
100
AcDbEntity
8
0
100
AcDbBlockEnd
0
BLOCK
5
52
330
51
100
AcDbEntity
8
0
100
AcDbBlockBegin
2
Flat round pot (narrow)
70
0
10
0
20
0
3
Flat round pot (narrow)
1

0
CIRCLE
5
F5
100
AcDbEntity
8
0
6
ByLayer
62
256
370
-1
100
AcDbCircle
10
0
20
0
40
20
0
MTEXT
5
F6
100
AcDbEntity
8
0
6
ByLayer
62
256
370
-1
100
AcDbMText
10
0
20
1
30
0
40
2.5
41
24.5833333333
71
5
72
1
1
Flat round pot\P(narrow)
7
standard
210
0
220
0
230
1
50
0
73
2
44
1
0
ENDBLK
5
53
330
51
100
AcDbEntity
8
0
100
AcDbBlockEnd
0
BLOCK
5
55
330
54
100
AcDbEntity
8
0
100
AcDbBlockBegin
2
Flat round pot (wide)
70
0
10
0
20
0
3
Flat round pot (wide)
1

0
CIRCLE
5
F7
100
AcDbEntity
8
0
6
ByLayer
62
256
370
-1
100
AcDbCircle
10
0
20
0
40
22
0
MTEXT
5
F8
100
AcDbEntity
8
0
6
ByLayer
62
256
370
-1
100
AcDbMText
10
0
20
0
30
0
40
2.5
41
35.9027775
71
5
72
1
1
Flat round pot (wide)
7
standard
210
0
220
0
230
1
50
0
73
2
44
1
0
ENDBLK
5
56
330
54
100
AcDbEntity
8
0
100
AcDbBlockEnd
0
BLOCK
5
58
330
57
100
AcDbEntity
8
0
100
AcDbBlockBegin
2
Trackball
70
0
10
0
20
0
3
Trackball
1

0
CIRCLE
5
F9
100
AcDbEntity
8
0
6
ByLayer
62
256
370
-1
100
AcDbCircle
10
0
20
0
40
21.5
0
MTEXT
5
FA
100
AcDbEntity
8
0
6
ByLayer
62
256
370
-1
100
AcDbMText
10
0
20
0
30
0
40
5
41
30
71
5
72
1
1
TrackBall
7
standard
210
0
220
0
230
1
50
0
73
2
44
1
0
CIRCLE
5
FB
100
AcDbEntity
8
0
6
ByLayer
62
256
370
-1
100
AcDbCircle
10
21.75
20
-32
40
1.75
0
CIRCLE
5
FC
100
AcDbEntity
8
0
6
ByLayer
62
256
370
-1
100
AcDbCircle
10
-21.75
20
-32
40
1.75
0
CIRCLE
5
FD
100
AcDbEntity
8
0
6
ByLayer
62
256
370
-1
100
AcDbCircle
10
21.75
20
32
40
1.75
0
CIRCLE
5
FE
100
AcDbEntity
8
0
6
ByLayer
62
256
370
-1
100
AcDbCircle
10
-21.75
20
32
40
1.75
0
LINE
5
FF
100
AcDbEntity
8
0
6
ByLayer
62
256
370
-1
100
AcDbLine
10
-26.75
20
-37
11
26.75
21
-37
0
LINE
5
100
100
AcDbEntity
8
0
6
ByLayer
62
256
370
-1
100
AcDbLine
10
26.75
20
-37
11
26.75
21
37
0
LINE
5
101
100
AcDbEntity
8
0
6
ByLayer
62
256
370
-1
100
AcDbLine
10
26.75
20
37
11
-26.75
21
37
0
LINE
5
102
100
AcDbEntity
8
0
6
ByLayer
62
256
370
-1
100
AcDbLine
10
-26.75
20
37
11
-26.75
21
-37
0
ENDBLK
5
59
330
57
100
AcDbEntity
8
0
100
AcDbBlockEnd
0
BLOCK
5
5B
330
5A
100
AcDbEntity
8
0
100
AcDbBlockBegin
2
PCB
70
0
10
0
20
0
3
PCB
1

0
LINE
5
103
100
AcDbEntity
8
0
6
ByLayer
62
256
370
-1
100
AcDbLine
10
0
20
0
11
180
21
0
0
LINE
5
104
100
AcDbEntity
8
0
6
ByLayer
62
256
370
-1
100
AcDbLine
10
180
20
0
11
180
21
140
0
LINE
5
105
100
AcDbEntity
8
0
6
ByLayer
62
256
370
-1
100
AcDbLine
10
180
20
140
11
0
21
140
0
LINE
5
106
100
AcDbEntity
8
0
6
ByLayer
62
256
370
-1
100
AcDbLine
10
0
20
140
11
0
21
0
0
MTEXT
5
107
100
AcDbEntity
8
0
6
ByLayer
62
256
370
-1
100
AcDbMText
10
90
20
70
30
0
40
5
41
11.1111111111
71
5
72
1
1
PCB
7
standard
210
0
220
0
230
1
50
0
73
2
44
1
0
ENDBLK
5
5C
330
5A
100
AcDbEntity
8
0
100
AcDbBlockEnd
0
BLOCK
5
5E
330
5D
100
AcDbEntity
8
0
100
AcDbBlockBegin
2
Flat straight pot (long)
70
0
10
0
20
0
3
Flat straight pot (long)
1

0
LINE
5
108
100
AcDbEntity
8
0
6
ByLayer
62
256
370
-1
100
AcDbLine
10
0
20
0
11
118
21
0
0
LINE
5
109
100
AcDbEntity
8
0
6
ByLayer
62
256
370
-1
100
AcDbLine
10
118
20
0
11
118
21
22
0
LINE
5
10A
100
AcDbEntity
8
0
6
ByLayer
62
256
370
-1
100
AcDbLine
10
118
20
22
11
0
21
22
0
LINE
5
10B
100
AcDbEntity
8
0
6
ByLayer
62
256
370
-1
100
AcDbLine
10
0
20
22
11
0
21
0
0
MTEXT
5
10C
100
AcDbEntity
8
0
6
ByLayer
62
256
370
-1
100
AcDbMText
10
60
20
11
30
0
40
2.5
41
41.1805547478
71
5
72
1
1
Flat Straight POT (long)
7
standard
210
0
220
0
230
1
50
0
73
2
44
1
0
ENDBLK
5
5F
330
5D
100
AcDbEntity
8
0
100
AcDbBlockEnd
0
BLOCK
5
61
330
60
100
AcDbEntity
8
0
100
AcDbBlockBegin
2
Flat straight pot (short)
70
0
10
0
20
0
3
Flat straight pot (short)
1

0
LINE
5
10D
100
AcDbEntity
8
0
6
ByLayer
62
256
370
-1
100
AcDbLine
10
0
20
0
11
68
21
0
0
LINE
5
10E
100
AcDbEntity
8
0
6
ByLayer
62
256
370
-1
100
AcDbLine
10
68
20
0
11
68
21
22
0
LINE
5
10F
100
AcDbEntity
8
0
6
ByLayer
62
256
370
-1
100
AcDbLine
10
68
20
22
11
0
21
22
0
LINE
5
110
100
AcDbEntity
8
0
6
ByLayer
62
256
370
-1
100
AcDbLine
10
0
20
22
11
0
21
0
0
MTEXT
5
111
100
AcDbEntity
8
0
6
ByLayer
62
256
370
-1
100
AcDbMText
10
36
20
10
30
0
40
2.5
41
43.4027782557
71
5
72
1
1
Flat Straight POT (short)
7
standard
210
0
220
0
230
1
50
0
73
2
44
1
0
ENDBLK
5
62
330
60
100
AcDbEntity
8
0
100
AcDbBlockEnd
0
BLOCK
5
64
330
63
100
AcDbEntity
8
0
100
AcDbBlockBegin
2
LCD 16x2
70
0
10
0
20
0
3
LCD 16x2
1

0
MTEXT
5
112
100
AcDbEntity
8
0
6
ByLayer
62
256
370
-1
100
AcDbMText
10
35
20
13
30
0
40
5
41
28.75
71
5
72
1
1
LCD 16x2
7
standard
210
0
220
0
230
1
50
0
73
2
44
1
0
LINE
5
113
100
AcDbEntity
8
Guides
6
ByLayer
62
256
370
-1
100
AcDbLine
10
69.5
20
26.5
11
69.5
21
-1.70225905081e-14
0
LINE
5
114
100
AcDbEntity
8
Guides
6
ByLayer
62
256
370
-1
100
AcDbLine
10
1.61041054088e-15
20
26.3
11
70
21
26.3
0
LINE
5
115
100
AcDbEntity
8
0
6
ByLayer
62
256
370
-1
100
AcDbLine
10
0
20
0
11
69.5
21
-1.70225905081e-14
0
LINE
5
116
100
AcDbEntity
8
0
6
ByLayer
62
256
370
-1
100
AcDbLine
10
69.5
20
-1.70225905081e-14
11
69.5
21
26.3
0
LINE
5
117
100
AcDbEntity
8
0
6
ByLayer
62
256
370
-1
100
AcDbLine
10
69.5
20
26.3
11
1.61041054088e-15
21
26.3
0
LINE
5
118
100
AcDbEntity
8
0
6
ByLayer
62
256
370
-1
100
AcDbLine
10
1.61041054088e-15
20
26.3
11
0
21
0
0
ENDBLK
5
65
330
63
100
AcDbEntity
8
0
100
AcDbBlockEnd
0
BLOCK
5
67
330
66
100
AcDbEntity
8
0
100
AcDbBlockBegin
2
5 position selector
70
0
10
0
20
0
3
5 position selector
1

0
LINE
5
119
100
AcDbEntity
8
0
6
ByLayer
62
256
370
-1
100
AcDbLine
10
0
20
0
11
50
21
0
0
LINE
5
11A
100
AcDbEntity
8
0
6
ByLayer
62
256
370
-1
100
AcDbLine
10
50
20
0
11
50
21
10
0
LINE
5
11B
100
AcDbEntity
8
0
6
ByLayer
62
256
370
-1
100
AcDbLine
10
50
20
10
11
0
21
10
0
LINE
5
11C
100
AcDbEntity
8
0
6
ByLayer
62
256
370
-1
100
AcDbLine
10
0
20
10
11
0
21
0
0
MTEXT
5
11D
100
AcDbEntity
8
0
6
ByLayer
62
256
370
-1
100
AcDbMText
10
26
20
5
30
0
40
2.5
41
32.4305563113
71
5
72
1
1
5-Position Selector
7
standard
210
0
220
0
230
1
50
0
73
2
44
1
0
ENDBLK
5
68
330
66
100
AcDbEntity
8
0
100
AcDbBlockEnd
0
BLOCK
5
6A
330
69
100
AcDbEntity
8
0
100
AcDbBlockBegin
2
LED Holder
70
0
10
0
20
0
3
LED Holder
1

0
CIRCLE
5
11E
100
AcDbEntity
8
0
6
ByLayer
62
256
370
-1
100
AcDbCircle
10
0
20
0
40
4
0
MTEXT
5
11F
100
AcDbEntity
8
0
6
ByLayer
62
256
370
-1
100
AcDbMText
10
0
20
0
30
0
40
2
41
4.22222222222
71
5
72
1
1
LED
7
standard
210
0
220
0
230
1
50
0
73
2
44
1
0
ENDBLK
5
6B
330
69
100
AcDbEntity
8
0
100
AcDbBlockEnd
0
BLOCK
5
6D
330
6C
100
AcDbEntity
8
0
100
AcDbBlockBegin
2
Pushbutton (non latching)
70
0
10
0
20
0
3
Pushbutton (non latching)
1

0
CIRCLE
5
120
100
AcDbEntity
8
0
6
ByLayer
62
256
370
-1
100
AcDbCircle
10
0
20
0
40
1.75
0
LINE
5
121
100
AcDbEntity
8
0
6
ByLayer
62
256
370
-1
100
AcDbLine
10
-3
20
-3
11
3
21
-3
0
LINE
5
122
100
AcDbEntity
8
0
6
ByLayer
62
256
370
-1
100
AcDbLine
10
3
20
-3
11
3
21
3
0
LINE
5
123
100
AcDbEntity
8
0
6
ByLayer
62
256
370
-1
100
AcDbLine
10
3
20
3
11
-3
21
3
0
LINE
5
124
100
AcDbEntity
8
0
6
ByLayer
62
256
370
-1
100
AcDbLine
10
-3
20
3
11
-3
21
-3
0
MTEXT
5
125
100
AcDbEntity
8
0
6
ByLayer
62
256
370
-1
100
AcDbMText
10
0
20
-1
30
0
40
1
41
2.222222
71
5
72
1
1
PB\P(NL)\P
7
standard
210
0
220
0
230
1
50
0
73
2
44
1
0
ENDBLK
5
6E
330
6C
100
AcDbEntity
8
0
100
AcDbBlockEnd
0
BLOCK
5
70
330
6F
100
AcDbEntity
8
0
100
AcDbBlockBegin
2
LCD + 2 PBs
70
0
10
0
20
0
3
LCD + 2 PBs
1

0
INSERT
5
126
100
AcDbEntity
8
0
6
ByLayer
62
256
370
-1
100
AcDbBlockReference
2
LCD 16x2
10
-35
20
-13
30
0
41
1
42
1
43
0
50
0
70
1
71
1
44
0
45
0
0
INSERT
5
127
100
AcDbEntity
8
0
6
ByLayer
62
256
370
-1
100
AcDbBlockReference
2
Pushbutton (non latching)
10
8
20
-20
30
0
41
1
42
1
43
0
50
0
70
1
71
1
44
1
45
1
0
INSERT
5
128
100
AcDbEntity
8
0
6
ByLayer
62
256
370
-1
100
AcDbBlockReference
2
Pushbutton (non latching)
10
-8
20
-20
30
0
41
1
42
1
43
0
50
0
70
1
71
1
44
1
45
1
0
ENDBLK
5
71
330
6F
100
AcDbEntity
8
0
100
AcDbBlockEnd
0
BLOCK
5
73
330
72
100
AcDbEntity
8
0
100
AcDbBlockBegin
2
PB + LED
70
0
10
0
20
0
3
PB + LED
1

0
INSERT
5
129
100
AcDbEntity
8
0
6
ByLayer
62
256
370
-1
100
AcDbBlockReference
2
LED Holder
10
0
20
5
30
0
41
1
42
1
43
0
50
0
70
1
71
1
44
1
45
1
0
INSERT
5
12A
100
AcDbEntity
8
0
6
ByLayer
62
256
370
-1
100
AcDbBlockReference
2
Pushbutton (non latching)
10
0
20
-4
30
0
41
1
42
1
43
0
50
0
70
1
71
1
44
1
45
1
0
ENDBLK
5
74
330
72
100
AcDbEntity
8
0
100
AcDbBlockEnd
0
BLOCK
5
76
330
75
100
AcDbEntity
8
0
100
AcDbBlockBegin
2
LED 5x Cross
70
0
10
0
20
0
3
LED 5x Cross
1

0
INSERT
5
12B
100
AcDbEntity
8
0
6
ByLayer
62
256
370
-1
100
AcDbBlockReference
2
LED Holder
10
0
20
0
30
0
41
1
42
1
43
0
50
0
70
1
71
1
44
1
45
1
0
INSERT
5
12C
100
AcDbEntity
8
0
6
ByLayer
62
256
370
-1
100
AcDbBlockReference
2
LED Holder
10
0
20
10
30
0
41
1
42
1
43
0
50
0
70
1
71
1
44
1
45
1
0
INSERT
5
12D
100
AcDbEntity
8
0
6
ByLayer
62
256
370
-1
100
AcDbBlockReference
2
LED Holder
10
-10
20
0
30
0
41
1
42
1
43
0
50
0
70
1
71
1
44
1
45
1
0
INSERT
5
12E
100
AcDbEntity
8
0
6
ByLayer
62
256
370
-1
100
AcDbBlockReference
2
LED Holder
10
0
20
-10
30
0
41
1
42
1
43
0
50
0
70
1
71
1
44
1
45
1
0
INSERT
5
12F
100
AcDbEntity
8
0
6
ByLayer
62
256
370
-1
100
AcDbBlockReference
2
LED Holder
10
10
20
0
30
0
41
1
42
1
43
0
50
0
70
1
71
1
44
1
45
1
0
ENDBLK
5
77
330
75
100
AcDbEntity
8
0
100
AcDbBlockEnd
0
BLOCK
5
79
330
78
100
AcDbEntity
8
0
100
AcDbBlockBegin
2
Selectors 2x
70
0
10
0
20
0
3
Selectors 2x
1

0
INSERT
5
130
100
AcDbEntity
8
0
6
DOT2
62
256
370
-1
100
AcDbBlockReference
2
5 position selector
10
0
20
0
30
0
41
1
42
1
43
0
50
180
70
1
71
1
44
1
45
1
0
INSERT
5
131
100
AcDbEntity
8
0
6
DOT2
62
256
370
-1
100
AcDbBlockReference
2
5 position selector
10
13.6773436309
20
-36.4280396723
30
0
41
-1
42
1
43
0
50
38.2132107017
70
1
71
1
44
1
45
1
0
ENDBLK
5
7A
330
78
100
AcDbEntity
8
0
100
AcDbBlockEnd
0
BLOCK
5
7C
330
7B
100
AcDbEntity
8
0
100
AcDbBlockBegin
2
Selectors Crossed
70
0
10
0
20
0
3
Selectors Crossed
1

0
INSERT
5
132
100
AcDbEntity
8
0
6
DOT2
62
256
370
-1
100
AcDbBlockReference
2
5 position selector
10
-50
20
-2.84217094304e-14
30
0
41
1
42
1
43
0
50
0
70
1
71
1
44
1
45
1
0
INSERT
5
133
100
AcDbEntity
8
0
6
DOT2
62
256
370
-1
100
AcDbBlockReference
2
5 position selector
10
10
20
-21
30
0
41
1
42
1
43
0
50
90
70
1
71
1
44
1
45
1
0
ENDBLK
5
7D
330
7B
100
AcDbEntity
8
0
100
AcDbBlockEnd
0
BLOCK
5
7F
330
7E
100
AcDbEntity
8
0
100
AcDbBlockBegin
2
TB + Selectors crossed
70
0
10
0
20
0
3
TB + Selectors crossed
1

0
INSERT
5
134
100
AcDbEntity
8
0
6
ByLayer
62
256
370
-1
100
AcDbBlockReference
2
Trackball
10
0
20
0
30
0
41
1
42
1
43
0
50
0
70
1
71
1
44
1
45
1
0
INSERT
5
135
100
AcDbEntity
8
0
6
DOT2
62
256
370
-1
100
AcDbBlockReference
2
Selectors Crossed
10
31.536875
20
31.536875
30
0
41
1
42
1
43
0
50
0
70
1
71
1
44
0
45
0
0
ENDBLK
5
80
330
7E
100
AcDbEntity
8
0
100
AcDbBlockEnd
0
BLOCK
5
82
330
81
100
AcDbEntity
8
0
100
AcDbBlockBegin
2
TB 2xSelect 4x PB LED
70
0
10
0
20
0
3
TB 2xSelect 4x PB LED
1

0
INSERT
5
136
100
AcDbEntity
8
0
6
DOT2
62
256
370
-1
100
AcDbBlockReference
2
TB + Selectors crossed
10
-41.536875
20
-60.536875
30
0
41
1
42
1
43
0
50
0
70
1
71
1
44
0
45
0
0
INSERT
5
137
100
AcDbEntity
8
0
6
DOT2
62
256
370
-1
100
AcDbBlockReference
2
PB + LED
10
-87.312
20
-28
30
0
41
1
42
1
43
0
50
0
70
1
71
1
44
1
45
1
0
INSERT
5
138
100
AcDbEntity
8
0
6
DOT2
62
256
370
-1
100
AcDbBlockReference
2
PB + LED
10
-74
20
-28
30
0
41
1
42
1
43
0
50
0
70
1
71
1
44
1
45
1
0
INSERT
5
139
100
AcDbEntity
8
0
6
DOT2
62
256
370
-1
100
AcDbBlockReference
2
PB + LED
10
-73.7952
20
-49.605325
30
0
41
1
42
1
43
0
50
0
70
1
71
1
44
1
45
1
0
INSERT
5
13A
100
AcDbEntity
8
0
6
DOT2
62
256
370
-1
100
AcDbBlockReference
2
PB + LED
10
-87.5168
20
-49.502925
30
0
41
1
42
1
43
0
50
0
70
1
71
1
44
1
45
1
0
ENDBLK
5
83
330
81
100
AcDbEntity
8
0
100
AcDbBlockEnd
0
BLOCK
5
85
330
84
100
AcDbEntity
8
0
100
AcDbBlockBegin
2
HMI_v_00
70
0
10
0
20
0
3
HMI_v_00
1

0
INSERT
5
13B
100
AcDbEntity
8
0
6
ByLayer
62
256
370
-1
100
AcDbBlockReference
2
Flat straight pot (short)
10
157.781
20
17.78125
30
0
41
1
42
1
43
0
50
90
70
1
71
1
44
1
45
1
0
INSERT
5
13C
100
AcDbEntity
8
0
6
ByLayer
62
256
370
-1
100
AcDbBlockReference
2
Flat straight pot (short)
10
135.781
20
17.78125
30
0
41
1
42
1
43
0
50
90
70
1
71
1
44
1
45
1
0
INSERT
5
13D
100
AcDbEntity
8
0
6
ByLayer
62
256
370
-1
100
AcDbBlockReference
2
Flat straight pot (short)
10
113.781
20
17.78125
30
0
41
1
42
1
43
0
50
90
70
1
71
1
44
1
45
1
0
INSERT
5
13E
100
AcDbEntity
8
0
6
ByLayer
62
256
370
-1
100
AcDbBlockReference
2
Flat straight pot (short)
10
91.781
20
17.78125
30
0
41
1
42
1
43
0
50
90
70
1
71
1
44
1
45
1
0
INSERT
5
13F
100
AcDbEntity
8
0
6
ByLayer
62
256
370
-1
100
AcDbBlockReference
2
Flat straight pot (short)
10
47.781
20
17.78125
30
0
41
1
42
1
43
0
50
90
70
1
71
1
44
1
45
1
0
INSERT
5
140
100
AcDbEntity
8
PCB
6
ByLayer
62
256
370
-1
100
AcDbBlockReference
2
PCB
10
147
20
7
30
0
41
1
42
1
43
0
50
90
70
1
71
1
44
1
45
1
0
INSERT
5
141
100
AcDbEntity
8
0
6
DOT2
62
256
370
-1
100
AcDbBlockReference
2
TB 2xSelect 4x PB LED
10
228.5762
20
152.386575
30
0
41
1
42
1
43
0
50
0
70
1
71
1
44
0
45
0
0
INSERT
5
142
100
AcDbEntity
8
0
6
ByLayer
62
256
370
-1
100
AcDbBlockReference
2
LCD + 2 PBs
10
172.2642
20
166.386575
30
0
41
1
42
1
43
0
50
0
70
1
71
1
44
1
45
1
0
LINE
5
143
100
AcDbEntity
8
Perimeter
6
ByLayer
62
256
370
-1
100
AcDbLine
10
0
20
0
11
235.5762
21
0
0
LINE
5
144
100
AcDbEntity
8
Perimeter
6
ByLayer
62
256
370
-1
100
AcDbLine
10
235.5762
20
0
11
235.5762
21
194
0
LINE
5
145
100
AcDbEntity
8
Perimeter
6
ByLayer
62
256
370
-1
100
AcDbLine
10
235.5762
20
194
11
0
21
194
0
LINE
5
146
100
AcDbEntity
8
Perimeter
6
ByLayer
62
256
370
-1
100
AcDbLine
10
0
20
194
11
0
21
0
0
LINE
5
147
100
AcDbEntity
8
Perimeter
6
ByLayer
62
256
370
-1
100
AcDbLine
10
232.5762
20
191
11
3
21
191
0
LINE
5
148
100
AcDbEntity
8
Perimeter
6
ByLayer
62
256
370
-1
100
AcDbLine
10
3
20
191
11
3
21
3
0
LINE
5
149
100
AcDbEntity
8
Perimeter
6
ByLayer
62
256
370
-1
100
AcDbLine
10
3
20
3
11
232.5762
21
3
0
LINE
5
14A
100
AcDbEntity
8
Perimeter
6
ByLayer
62
256
370
-1
100
AcDbLine
10
232.5762
20
3
11
232.5762
21
191
0
INSERT
5
14B
100
AcDbEntity
8
0
6
ByLayer
62
256
370
-1
100
AcDbBlockReference
2
LED 5x Cross
10
99.781
20
165.886575
30
0
41
1
42
1
43
0
50
0
70
1
71
1
44
0
45
0
0
INSERT
5
14C
100
AcDbEntity
8
0
6
ByLayer
62
256
370
-1
100
AcDbBlockReference
2
LED 5x Cross
10
69.781
20
165.886575
30
0
41
1
42
1
43
0
50
0
70
1
71
1
44
0
45
0
0
INSERT
5
14D
100
AcDbEntity
8
0
6
DOT2
62
256
370
-1
100
AcDbBlockReference
2
LED 5x Cross
10
39.781
20
145.886575
30
0
41
1
42
1
43
0
50
0
70
1
71
1
44
1
45
1
0
INSERT
5
14E
100
AcDbEntity
8
0
6
ByLayer
62
256
370
-1
100
AcDbBlockReference
2
LED 5x Cross
10
69.781
20
125.886575
30
0
41
1
42
1
43
0
50
0
70
1
71
1
44
0
45
0
0
INSERT
5
14F
100
AcDbEntity
8
0
6
ByLayer
62
256
370
-1
100
AcDbBlockReference
2
LED 5x Cross
10
99.781
20
125.886575
30
0
41
1
42
1
43
0
50
0
70
1
71
1
44
0
45
0
0
ENDBLK
5
86
330
84
100
AcDbEntity
8
0
100
AcDbBlockEnd
0
BLOCK
5
88
330
87
100
AcDbEntity
8
0
100
AcDbBlockBegin
2
LED 3x Line
70
0
10
0
20
0
3
LED 3x Line
1

0
INSERT
5
150
100
AcDbEntity
8
0
6
ByLayer
62
256
370
-1
100
AcDbBlockReference
2
LED Holder
10
0.0072639970477
20
-0.00971370479095
30
0
41
1
42
1
43
0
50
0
70
1
71
1
44
1
45
1
0
INSERT
5
151
100
AcDbEntity
8
0
6
ByLayer
62
256
370
-1
100
AcDbBlockReference
2
LED Holder
10
0.0072639970477
20
9.99028629521
30
0
41
1
42
1
43
0
50
0
70
1
71
1
44
1
45
1
0
INSERT
5
152
100
AcDbEntity
8
0
6
ByLayer
62
256
370
-1
100
AcDbBlockReference
2
LED Holder
10
0.0072639970477
20
-10.0097137048
30
0
41
1
42
1
43
0
50
0
70
1
71
1
44
1
45
1
0
ENDBLK
5
89
330
87
100
AcDbEntity
8
0
100
AcDbBlockEnd
0
BLOCK
5
8B
330
8A
100
AcDbEntity
8
0
100
AcDbBlockBegin
2
HMI_03-0
70
0
10
0
20
0
3
HMI_03-0
1

0
INSERT
5
153
100
AcDbEntity
8
PCB
6
ByLayer
62
256
370
-1
100
AcDbBlockReference
2
PCB
10
-77.781
20
-17.7812
30
0
41
1
42
1
43
0
50
90
70
1
71
1
44
1
45
1
0
LINE
5
154
100
AcDbEntity
8
Perimeter
6
ByLayer
62
256
370
-1
100
AcDbLine
10
-224.781
20
-24.7812
11
10.7952
21
-24.7812
0
LINE
5
155
100
AcDbEntity
8
Perimeter
6
ByLayer
62
256
370
-1
100
AcDbLine
10
10.7952
20
-24.7812
11
10.7952
21
169.2188
0
LINE
5
156
100
AcDbEntity
8
Perimeter
6
ByLayer
62
256
370
-1
100
AcDbLine
10
10.7952
20
169.2188
11
-224.781
21
169.2188
0
LINE
5
157
100
AcDbEntity
8
Perimeter
6
ByLayer
62
256
370
-1
100
AcDbLine
10
-224.781
20
169.2188
11
-224.781
21
-24.7812
0
LINE
5
158
100
AcDbEntity
8
Perimeter
6
ByLayer
62
256
370
-1
100
AcDbLine
10
7.7952
20
166.2188
11
-221.781
21
166.2188
0
LINE
5
159
100
AcDbEntity
8
Perimeter
6
ByLayer
62
256
370
-1
100
AcDbLine
10
-221.781
20
166.2188
11
-221.781
21
-21.7812
0
LINE
5
15A
100
AcDbEntity
8
Perimeter
6
ByLayer
62
256
370
-1
100
AcDbLine
10
-221.781
20
-21.7812
11
7.7952
21
-21.7812
0
LINE
5
15B
100
AcDbEntity
8
Perimeter
6
ByLayer
62
256
370
-1
100
AcDbLine
10
7.7952
20
-21.7812
11
7.7952
21
166.2188
0
MTEXT
5
15C
100
AcDbEntity
8
Annotations
6
ByLayer
62
256
370
-1
100
AcDbMText
10
56.1702520861
20
89.2772218587
30
0
40
5
41
70.5555555556
71
5
72
1
1
Vibrato/Tremolo/Aux\PPushbuttons &\PIndicators
7
standard
210
0
220
0
230
1
50
0
73
2
44
1
0
MTEXT
5
15D
100
AcDbEntity
8
Annotations
6
ByLayer
62
256
370
-1
100
AcDbMText
10
55.2402810251
20
160.154362136
30
0
40
5
41
40.5555606984
71
5
72
1
1
LCD Control\PPushbuttons
7
standard
210
0
220
0
230
1
50
0
73
2
44
1
0
MTEXT
5
15E
100
AcDbEntity
8
Annotations
6
ByLayer
62
256
370
-1
100
AcDbMText
10
56.1702520861
20
127.605375
30
0
40
5
41
42.7777792892
71
5
72
1
1
Style/Preset\PSelectors
7
standard
210
0
220
0
230
1
50
0
73
2
44
1
0
LINE
5
15F
100
AcDbEntity
8
Annotations
6
ByLayer
62
256
370
-1
100
AcDbLine
10
-67.2048
20
92.605375
11
56.1702520861
21
89.2772218587
0
LINE
5
160
100
AcDbEntity
8
Annotations
6
ByLayer
62
256
370
-1
100
AcDbLine
10
56.1702520861
20
127.605375
11
-6.2048
21
108.605375
0
LINE
5
161
100
AcDbEntity
8
Annotations
6
ByLayer
62
256
370
-1
100
AcDbLine
10
-41.5168
20
124.605375
11
55.2402810251
21
160.154362136
0
LINE
5
162
100
AcDbEntity
8
Annotations
6
ByLayer
62
256
370
-1
100
AcDbLine
10
55.2402810251
20
160.154362136
11
-57.5168
21
124.605375
0
LINE
5
163
100
AcDbEntity
8
Annotations
6
ByLayer
62
256
370
-1
100
AcDbLine
10
-83.5168
20
104.605375
11
56.1702520861
21
89.2772218587
0
LINE
5
164
100
AcDbEntity
8
Annotations
6
ByLayer
62
256
370
-1
100
AcDbLine
10
-83.7216
20
83.10245
11
56.1702520861
21
89.2772218587
0
LINE
5
165
100
AcDbEntity
8
Annotations
6
ByLayer
62
256
370
-1
100
AcDbLine
10
56.1702520861
20
89.2772218587
11
-67
21
77.00005
0
LINE
5
166
100
AcDbEntity
8
Annotations
6
ByLayer
62
256
370
-1
100
AcDbLine
10
-281.933932272
20
25.5685
11
-208.244444444
21
29.00005
0
MTEXT
5
167
100
AcDbEntity
8
Annotations
6
ByLayer
62
256
370
-1
100
AcDbMText
10
-144.069053689
20
-37.4455808751
30
0
40
5
41
29.4444444444
71
5
72
1
1
Coil\PVol/Tone\PSlider
7
standard
210
0
220
0
230
1
50
0
73
2
44
1
0
LINE
5
168
100
AcDbEntity
8
Annotations
6
ByLayer
62
256
370
-1
100
AcDbLine
10
-144.069053689
20
-37.4455808751
11
-176
21
29.00005
0
LINE
5
169
100
AcDbEntity
8
Annotations
6
ByLayer
62
256
370
-1
100
AcDbLine
10
-144.069053689
20
-37.4455808751
11
-154
21
29.00005
0
LINE
5
16A
100
AcDbEntity
8
Annotations
6
ByLayer
62
256
370
-1
100
AcDbLine
10
-144.069053689
20
-37.4455808751
11
-132
21
29.00005
0
LINE
5
16B
100
AcDbEntity
8
Annotations
6
ByLayer
62
256
370
-1
100
AcDbLine
10
-144.069053689
20
-37.4455808751
11
-110.781
21
25.5685
0
LINE
5
16C
100
AcDbEntity
8
Annotations
6
ByLayer
62
256
370
-1
100
AcDbLine
10
-78
20
-37.4455808751
11
-78
21
27.00005
0
MTEXT
5
16D
100
AcDbEntity
8
Annotations
6
ByLayer
62
256
370
-1
100
AcDbMText
10
-78
20
-37.4455808751
30
0
40
5
41
18.3333333333
71
5
72
1
1
Tone\PRange\PSlider
7
standard
210
0
220
0
230
1
50
0
73
2
44
1
0
MTEXT
5
16E
100
AcDbEntity
8
Annotations
6
ByLayer
62
256
370
-1
100
AcDbMText
10
-275.314890199
20
121.105375
30
0
40
5
41
56.5277803492
71
5
72
1
1
Master Vol/Tone\PIndicator
7
standard
210
0
220
0
230
1
50
0
73
2
44
1
0
MTEXT
5
16F
100
AcDbEntity
8
Annotations
6
ByLayer
62
256
370
-1
100
AcDbMText
10
-154.121061526
20
184.506258508
30
0
40
5
41
48.1944444444
71
5
72
1
1
Coil Volt/Tone\PIndicator
7
standard
210
0
220
0
230
1
50
0
73
2
44
1
0
LINE
5
170
100
AcDbEntity
8
Annotations
6
ByLayer
62
256
370
-1
100
AcDbLine
10
-139.625402372
20
101.105375
11
-154.121061526
21
184.506258508
0
LINE
5
171
100
AcDbEntity
8
Annotations
6
ByLayer
62
256
370
-1
100
AcDbLine
10
-154.121061526
20
184.506258508
11
-169.625402372
21
101.105375
0
LINE
5
172
100
AcDbEntity
8
Annotations
6
ByLayer
62
256
370
-1
100
AcDbLine
10
-169.625402372
20
141.105375
11
-154.121061526
21
184.506258508
0
LINE
5
173
100
AcDbEntity
8
Annotations
6
ByLayer
62
256
370
-1
100
AcDbLine
10
-154.121061526
20
184.506258508
11
-139.625402372
21
141.105375
0
LINE
5
174
100
AcDbEntity
8
Annotations
6
ByLayer
62
256
370
-1
100
AcDbLine
10
-275.314890199
20
121.105375
11
-199.625402372
21
121.105375
0
MTEXT
5
175
100
AcDbEntity
8
Annotations
6
ByLayer
62
256
370
-1
100
AcDbMText
10
-97.5168
20
184.506258508
30
0
40
5
41
38.1944444444
71
5
72
1
1
Tone Range\PIndicator
7
standard
210
0
220
0
230
1
50
0
73
2
44
1
0
LINE
5
176
100
AcDbEntity
8
Annotations
6
ByLayer
62
256
370
-1
100
AcDbLine
10
-36.1870339267
20
185.220476283
11
-52.5168
21
141.605375
0
MTEXT
5
177
100
AcDbEntity
8
Annotations
6
ByLayer
62
256
370
-1
100
AcDbMText
10
-36.1870339267
20
185.220476283
30
0
40
5
41
38.1944470159
71
5
72
1
1
LCD Display
7
standard
210
0
220
0
230
1
50
0
73
2
44
1
0
LINE
5
178
100
AcDbEntity
8
Annotations
6
ByLayer
62
256
370
-1
100
AcDbLine
10
-97.5168
20
184.506258508
11
-96.8096932188
21
185.213365289
0
LINE
5
179
100
AcDbEntity
8
Annotations
6
ByLayer
62
256
370
-1
100
AcDbLine
10
-109.625297934
20
121.105286295
11
-108.918191153
21
121.812393076
0
LINE
5
17A
100
AcDbEntity
8
Annotations
6
ByLayer
62
256
370
-1
100
AcDbLine
10
-97.5168
20
184.506258508
11
-96.8096932188
21
185.213365289
0
LINE
5
17B
100
AcDbEntity
8
Annotations
6
ByLayer
62
256
370
-1
100
AcDbLine
10
-109.625297934
20
121.105286295
11
-97.5168
21
184.506258508
0
LINE
5
17C
100
AcDbEntity
8
0
6
DOT2
62
256
370
-1
100
AcDbLine
10
-68
20
202.578125
11
-67
21
202.578125
0
INSERT
5
17D
100
AcDbEntity
8
0
6
ByLayer
62
256
370
-1
100
AcDbBlockReference
2
LCD + 2 PBs
10
-52.5168
20
141.605375
30
0
41
1
42
1
43
0
50
0
70
1
71
1
44
1
45
1
0
INSERT
5
17E
100
AcDbEntity
8
0
6
ByLayer
62
256
370
-1
100
AcDbBlockReference
2
PB + LED
10
-83.5168
20
99.605375
30
0
41
1
42
1
43
0
50
0
70
1
71
1
44
1
45
1
0
INSERT
5
17F
100
AcDbEntity
8
0
6
ByLayer
62
256
370
-1
100
AcDbBlockReference
2
PB + LED
10
-70.2048
20
99.605375
30
0
41
1
42
1
43
0
50
0
70
1
71
1
44
1
45
1
0
INSERT
5
180
100
AcDbEntity
8
0
6
ByLayer
62
256
370
-1
100
AcDbBlockReference
2
PB + LED
10
-70
20
78.00005
30
0
41
1
42
1
43
0
50
0
70
1
71
1
44
1
45
1
0
INSERT
5
181
100
AcDbEntity
8
0
6
ByLayer
62
256
370
-1
100
AcDbBlockReference
2
PB + LED
10
-83.7216
20
78.10245
30
0
41
1
42
1
43
0
50
0
70
1
71
1
44
1
45
1
0
INSERT
5
182
100
AcDbEntity
8
0
6
ByLayer
62
256
370
-1
100
AcDbBlockReference
2
Selectors Crossed
10
-6.2048
20
98.605375
30
0
41
1
42
1
43
0
50
0
70
1
71
1
44
0
45
0
0
INSERT
5
183
100
AcDbEntity
8
0
6
ByLayer
62
256
370
-1
100
AcDbBlockReference
2
Flat straight pot (short)
10
-198.244444444
20
-6.99995
30
0
41
1
42
1
43
0
50
90
70
1
71
1
44
1
45
1
0
INSERT
5
184
100
AcDbEntity
8
0
6
ByLayer
62
256
370
-1
100
AcDbBlockReference
2
Flat straight pot (short)
10
-100
20
-6.99995
30
0
41
1
42
1
43
0
50
90
70
1
71
1
44
1
45
1
0
INSERT
5
185
100
AcDbEntity
8
0
6
ByLayer
62
256
370
-1
100
AcDbBlockReference
2
Flat straight pot (short)
10
-122
20
-6.99995
30
0
41
1
42
1
43
0
50
90
70
1
71
1
44
1
45
1
0
INSERT
5
186
100
AcDbEntity
8
0
6
ByLayer
62
256
370
-1
100
AcDbBlockReference
2
Flat straight pot (short)
10
-144
20
-6.99995
30
0
41
1
42
1
43
0
50
90
70
1
71
1
44
1
45
1
0
INSERT
5
187
100
AcDbEntity
8
0
6
ByLayer
62
256
370
-1
100
AcDbBlockReference
2
Flat straight pot (short)
10
-166
20
-6.99995
30
0
41
1
42
1
43
0
50
90
70
1
71
1
44
1
45
1
0
INSERT
5
188
100
AcDbEntity
8
0
6
ByLayer
62
256
370
-1
100
AcDbBlockReference
2
Flat straight pot (short)
10
-67
20
-6.99995
30
0
41
1
42
1
43
0
50
90
70
1
71
1
44
1
45
1
0
INSERT
5
189
100
AcDbEntity
8
0
6
ByLayer
62
256
370
-1
100
AcDbBlockReference
2
LED 5x Cross
10
-139.625402372
20
141.105375
30
0
41
1
42
1
43
0
50
0
70
1
71
1
44
0
45
0
0
INSERT
5
18A
100
AcDbEntity
8
0
6
ByLayer
62
256
370
-1
100
AcDbBlockReference
2
LED 5x Cross
10
-169.625402372
20
141.105375
30
0
41
1
42
1
43
0
50
0
70
1
71
1
44
0
45
0
0
INSERT
5
18B
100
AcDbEntity
8
0
6
ByLayer
62
256
370
-1
100
AcDbBlockReference
2
LED 5x Cross
10
-199.625402372
20
121.105375
30
0
41
1
42
1
43
0
50
0
70
1
71
1
44
1
45
1
0
INSERT
5
18C
100
AcDbEntity
8
0
6
ByLayer
62
256
370
-1
100
AcDbBlockReference
2
LED 5x Cross
10
-169.625402372
20
101.105375
30
0
41
1
42
1
43
0
50
0
70
1
71
1
44
0
45
0
0
INSERT
5
18D
100
AcDbEntity
8
0
6
ByLayer
62
256
370
-1
100
AcDbBlockReference
2
LED 5x Cross
10
-139.625402372
20
101.105375
30
0
41
1
42
1
43
0
50
0
70
1
71
1
44
0
45
0
0
INSERT
5
18E
100
AcDbEntity
8
0
6
ByLayer
62
256
370
-1
100
AcDbBlockReference
2
LED 3x Line
10
-109.632561931
20
121.115
30
0
41
1
42
1
43
0
50
0
70
1
71
1
44
1
45
1
0
MTEXT
5
18F
100
AcDbEntity
8
Annotations
6
ByLayer
62
256
370
-1
100
AcDbMText
10
-281.933932272
20
25.5685
30
0
40
5
41
29.4444444444
71
5
72
1
1
Master\PVol/Tone\PSlider
7
standard
210
0
220
0
230
1
50
0
73
2
44
1
0
INSERT
5
190
100
AcDbEntity
8
0
6
ByLayer
62
256
370
-1
100
AcDbBlockReference
2
Trackball
10
-31.2048
20
30.605375
30
0
41
1
42
1
43
0
50
0
70
1
71
1
44
1
45
1
0
LINE
5
191
100
AcDbEntity
8
Annotations
6
ByLayer
62
256
370
-1
100
AcDbLine
10
-31.2048
20
30.605375
11
56.1702520861
21
30.605375
0
MTEXT
5
192
100
AcDbEntity
8
Annotations
6
ByLayer
62
256
370
-1
100
AcDbMText
10
56.1702520861
20
30.605375
30
0
40
5
41
56.5277803492
71
5
72
1
1
Master Vol/Tone\PTrackball
7
standard
210
0
220
0
230
1
50
0
73
2
44
1
0
ENDBLK
5
8C
330
8A
100
AcDbEntity
8
0
100
AcDbBlockEnd
0
BLOCK
5
8E
330
8D
100
AcDbEntity
8
0
100
AcDbBlockBegin
2
Selectors PBs LEDs LCD
70
0
10
0
20
0
3
Selectors PBs LEDs LCD
1

0
INSERT
5
193
100
AcDbEntity
8
Perimeter
6
ByLayer
62
256
370
-1
100
AcDbBlockReference
2
LCD + 2 PBs
10
69.3209715138
20
-49.6149599656
30
0
41
1
42
1
43
0
50
193.0639
70
1
71
1
44
1
45
1
0
INSERT
5
194
100
AcDbEntity
8
Perimeter
6
ByLayer
62
256
370
-1
100
AcDbBlockReference
2
PB + LED
10
90.0250684467
20
-1.69481419998
30
0
41
1
42
1
43
0
50
193.0639
70
1
71
1
44
1
45
1
0
INSERT
5
195
100
AcDbEntity
8
Perimeter
6
ByLayer
62
256
370
-1
100
AcDbBlockReference
2
PB + LED
10
77.0576019264
20
-4.70382667037
30
0
41
1
42
1
43
0
50
193.0639
70
1
71
1
44
1
45
1
0
INSERT
5
196
100
AcDbEntity
8
Perimeter
6
ByLayer
62
256
370
-1
100
AcDbBlockReference
2
PB + LED
10
71.97448673
20
16.2960293124
30
0
41
1
42
1
43
0
50
193.0639
70
1
71
1
44
1
45
1
0
INSERT
5
197
100
AcDbEntity
8
Perimeter
6
ByLayer
62
256
370
-1
100
AcDbBlockReference
2
PB + LED
10
85.3640984698
20
19.2978770394
30
0
41
1
42
1
43
0
50
193.0639
70
1
71
1
44
1
45
1
0
INSERT
5
198
100
AcDbEntity
8
Perimeter
6
ByLayer
62
256
370
-1
100
AcDbBlockReference
2
Selectors Crossed
10
14.4879752915
20
-18.1961141993
30
0
41
1
42
1
43
0
50
193.0639
70
1
71
1
44
0
45
0
0
ENDBLK
5
8F
330
8D
100
AcDbEntity
8
0
100
AcDbBlockEnd
0
BLOCK
5
91
330
90
100
AcDbEntity
8
0
100
AcDbBlockBegin
2
LED Array
70
0
10
0
20
0
3
LED Array
1

0
INSERT
5
199
100
AcDbEntity
8
Perimeter
6
ByLayer
62
256
370
-1
100
AcDbBlockReference
2
LED 5x Cross
10
33.7444310566
20
-12.701306514
30
0
41
1
42
1
43
0
50
193.0639
70
1
71
1
44
0
45
0
0
INSERT
5
19A
100
AcDbEntity
8
Perimeter
6
ByLayer
62
256
370
-1
100
AcDbBlockReference
2
LED 5x Cross
10
62.9679884189
20
-5.92017865099
30
0
41
1
42
1
43
0
50
193.0639
70
1
71
1
44
0
45
0
0
INSERT
5
19B
100
AcDbEntity
8
Perimeter
6
ByLayer
62
256
370
-1
100
AcDbBlockReference
2
LED 5x Cross
10
87.6707938725
20
20.3433207868
30
0
41
1
42
1
43
0
50
193.0639
70
1
71
1
44
1
45
1
0
INSERT
5
19C
100
AcDbEntity
8
Perimeter
6
ByLayer
62
256
370
-1
100
AcDbBlockReference
2
LED 5x Cross
10
53.9264846016
20
33.0445644987
30
0
41
1
42
1
43
0
50
193.0639
70
1
71
1
44
0
45
0
0
INSERT
5
19D
100
AcDbEntity
8
Perimeter
6
ByLayer
62
256
370
-1
100
AcDbBlockReference
2
LED 5x Cross
10
24.7029272393
20
26.2634366357
30
0
41
1
42
1
43
0
50
193.0639
70
1
71
1
44
0
45
0
0
INSERT
5
19E
100
AcDbEntity
8
Perimeter
6
ByLayer
62
256
370
-1
100
AcDbBlockReference
2
LED 3x Line
10
0.00927165695379
20
-0.0078203638794
30
0
41
1
42
1
43
0
50
193.0639
70
1
71
1
44
1
45
1
0
ENDBLK
5
92
330
90
100
AcDbEntity
8
0
100
AcDbBlockEnd
0
ENDSEC
0
SECTION
2
ENTITIES
0
LINE
5
19F
100
AcDbEntity
8
0
6
ByLayer
62
256
370
-1
100
AcDbLine
10
99.83246524
20
116.3218192
11
97.9401058241
21
116.170726536
0
LINE
5
1A0
100
AcDbEntity
8
0
6
ByLayer
62
256
370
-1
100
AcDbLine
10
42.2111001374
20
42.1292335115
11
41.6408310336
21
37.0582278574
0
SPLINE
5
1A1
100
AcDbEntity
8
Guitar
6
ByLayer
62
256
370
-1
100
AcDbSpline
210
0
220
0
230
1
70
8
71
3
72
8
73
4
74
0
42
1e-07
43
1e-07
40
0
40
0
40
0
40
0
40
1
40
1
40
1
40
1
10
142.117990378
20
-152.588022839
30
0
10
150.049010078
20
-149.708666539
30
0
10
168.329072578
20
-142.080829739
30
0
10
182.740348878
20
-135.637256639
30
0
0
SPLINE
5
1A2
100
AcDbEntity
8
Guitar
6
ByLayer
62
256
370
-1
100
AcDbSpline
210
0
220
0
230
1
70
8
71
3
72
8
73
4
74
0
42
1e-07
43
1e-07
40
0
40
0
40
0
40
0
40
1
40
1
40
1
40
1
10
182.740348878
20
-135.637256639
30
0
10
225.518714878
20
-116.510136639
30
0
10
228.824093278
20
-115.404814139
30
0
10
243.761835378
20
-115.231699039
30
0
0
SPLINE
5
1A3
100
AcDbEntity
8
Guitar
6
ByLayer
62
256
370
-1
100
AcDbSpline
210
0
220
0
230
1
70
8
71
3
72
8
73
4
74
0
42
1e-07
43
1e-07
40
0
40
0
40
0
40
0
40
1
40
1
40
1
40
1
10
243.761835378
20
-115.231699039
30
0
10
258.441965778
20
-115.061540239
30
0
10
269.425644878
20
-118.139636039
30
0
10
293.306086378
20
-129.116138239
30
0
0
SPLINE
5
1A4
100
AcDbEntity
8
Guitar
6
ByLayer
62
256
370
-1
100
AcDbSpline
210
0
220
0
230
1
70
8
71
3
72
8
73
4
74
0
42
1e-07
43
1e-07
40
0
40
0
40
0
40
0
40
1
40
1
40
1
40
1
10
293.306086378
20
-129.116138239
30
0
10
314.516119478
20
-138.865169639
30
0
10
332.070816878
20
-141.870589339
30
0
10
350.837244778
20
-138.965660339
30
0
0
SPLINE
5
1A5
100
AcDbEntity
8
Guitar
6
ByLayer
62
256
370
-1
100
AcDbSpline
210
0
220
0
230
1
70
8
71
3
72
8
73
4
74
0
42
1e-07
43
1e-07
40
0
40
0
40
0
40
0
40
1
40
1
40
1
40
1
10
350.837244778
20
-138.965660339
30
0
10
370.623896978
20
-135.902811339
30
0
10
387.183641978
20
-126.140840839
30
0
10
387.183641978
20
-117.539460139
30
0
0
SPLINE
5
1A6
100
AcDbEntity
8
Guitar
6
ByLayer
62
256
370
-1
100
AcDbSpline
210
0
220
0
230
1
70
8
71
3
72
8
73
4
74
0
42
1e-07
43
1e-07
40
0
40
0
40
0
40
0
40
1
40
1
40
1
40
1
10
387.183641978
20
-117.539460139
30
0
10
387.183641978
20
-110.820767839
30
0
10
381.109653378
20
-106.636724439
30
0
10
365.810138178
20
-102.816418739
30
0
0
SPLINE
5
1A7
100
AcDbEntity
8
Guitar
6
ByLayer
62
256
370
-1
100
AcDbSpline
210
0
220
0
230
1
70
8
71
3
72
8
73
4
74
0
42
1e-07
43
1e-07
40
0
40
0
40
0
40
0
40
1
40
1
40
1
40
1
10
365.810138178
20
-102.816418739
30
0
10
348.240095278
20
-98.4291614388
30
0
10
339.145181678
20
-93.1101479388
30
0
10
332.778683878
20
-83.4985163388
30
0
0
SPLINE
5
1A8
100
AcDbEntity
8
Guitar
6
ByLayer
62
256
370
-1
100
AcDbSpline
210
0
220
0
230
1
70
8
71
3
72
8
73
4
74
0
42
1e-07
43
1e-07
40
0
40
0
40
0
40
0
40
1
40
1
40
1
40
1
10
332.778683878
20
-83.4985163388
30
0
10
320.528279578
20
-65.0037578388
30
0
10
326.155509678
20
-38.5249166388
30
0
10
343.430138778
20
-33.3782991388
30
0
0
SPLINE
5
1A9
100
AcDbEntity
8
Guitar
6
ByLayer
62
256
370
-1
100
AcDbSpline
210
0
220
0
230
1
70
8
71
3
72
8
73
4
74
0
42
1e-07
43
1e-07
40
0
40
0
40
0
40
0
40
1
40
1
40
1
40
1
10
343.430138778
20
-33.3782991388
30
0
10
349.159504578
20
-31.6713625388
30
0
10
464.143984678
20
-29.5502337388
30
0
10
650.814472178
20
-27.7079465388
30
0
0
SPLINE
5
1AA
100
AcDbEntity
8
Guitar
6
ByLayer
62
256
370
-1
100
AcDbSpline
210
0
220
0
230
1
70
8
71
3
72
8
73
4
74
0
42
1e-07
43
1e-07
40
0
40
0
40
0
40
0
40
1
40
1
40
1
40
1
10
757.344540578
20
-26.2477975388
30
0
10
805.142647578
20
-25.9574362388
30
0
10
804.913574278
20
-25.9191688388
30
0
10
821.505312178
20
-36.9671909388
30
0
0
SPLINE
5
1AB
100
AcDbEntity
8
Guitar
6
ByLayer
62
256
370
-1
100
AcDbSpline
210
0
220
0
230
1
70
8
71
3
72
8
73
4
74
0
42
1e-07
43
1e-07
40
0
40
0
40
0
40
0
40
1
40
1
40
1
40
1
10
821.505312178
20
-36.9671909388
30
0
10
829.788573378
20
-42.4828242388
30
0
10
831.502945378
20
-42.6272646388
30
0
10
857.242391978
20
-39.9780344388
30
0
0
SPLINE
5
1AC
100
AcDbEntity
8
Guitar
6
ByLayer
62
256
370
-1
100
AcDbSpline
210
0
220
0
230
1
70
8
71
3
72
8
73
4
74
0
42
1e-07
43
1e-07
40
0
40
0
40
0
40
0
40
1
40
1
40
1
40
1
10
857.242391978
20
-39.9780344388
30
0
10
876.924661878
20
-37.9522498388
30
0
10
908.752657678
20
-37.0270689388
30
0
10
912.787250478
20
-38.3634481388
30
0
0
SPLINE
5
1AD
100
AcDbEntity
8
Guitar
6
ByLayer
62
256
370
-1
100
AcDbSpline
210
0
220
0
230
1
70
8
71
3
72
8
73
4
74
0
42
1e-07
43
1e-07
40
0
40
0
40
0
40
0
40
1
40
1
40
1
40
1
10
912.787250478
20
-38.3634481388
30
0
10
914.155147878
20
-38.8165328388
30
0
10
925.886235078
20
-40.4314528388
30
0
10
938.856326878
20
-41.9521425388
30
0
0
SPLINE
5
1AE
100
AcDbEntity
8
Guitar
6
ByLayer
62
256
370
-1
100
AcDbSpline
210
0
220
0
230
1
70
8
71
3
72
8
73
4
74
0
42
1e-07
43
1e-07
40
0
40
0
40
0
40
0
40
1
40
1
40
1
40
1
10
938.856326878
20
-41.9521425388
30
0
10
959.930012978
20
-44.4229231388
30
0
10
962.950858078
20
-44.4519738388
30
0
10
967.256857078
20
-42.2252595388
30
0
0
SPLINE
5
1AF
100
AcDbEntity
8
Guitar
6
ByLayer
62
256
370
-1
100
AcDbSpline
210
0
220
0
230
1
70
8
71
3
72
8
73
4
74
0
42
1e-07
43
1e-07
40
0
40
0
40
0
40
0
40
1
40
1
40
1
40
1
10
967.256857078
20
-42.2252595388
30
0
10
973.596983178
20
-38.9466429388
30
0
10
974.967597178
20
-34.9859341388
30
0
10
971.263090078
20
-30.6482900388
30
0
0
SPLINE
5
1B0
100
AcDbEntity
8
Guitar
6
ByLayer
62
256
370
-1
100
AcDbSpline
210
0
220
0
230
1
70
8
71
3
72
8
73
4
74
0
42
1e-07
43
1e-07
40
0
40
0
40
0
40
0
40
1
40
1
40
1
40
1
10
971.263090078
20
-30.6482900388
30
0
10
969.631814078
20
-28.7382100388
30
0
10
966.832038178
20
-24.2850681388
30
0
10
965.041361678
20
-20.7524165388
30
0
0
SPLINE
5
1B1
100
AcDbEntity
8
Guitar
6
ByLayer
62
256
370
-1
100
AcDbSpline
210
0
220
0
230
1
70
8
71
3
72
8
73
4
74
0
42
1e-07
43
1e-07
40
0
40
0
40
0
40
0
40
1
40
1
40
1
40
1
10
965.041361678
20
-20.7524165388
30
0
10
963.250703978
20
-17.2197884388
30
0
10
960.087542878
20
-13.2168078388
30
0
10
958.012121578
20
-11.8569333388
30
0
0
SPLINE
5
1B2
100
AcDbEntity
8
Guitar
6
ByLayer
62
256
370
-1
100
AcDbSpline
210
0
220
0
230
1
70
8
71
3
72
8
73
4
74
0
42
1e-07
43
1e-07
40
0
40
0
40
0
40
0
40
1
40
1
40
1
40
1
10
958.012121578
20
-11.8569333388
30
0
10
953.756064778
20
-9.0682588388
30
0
10
952.908814578
20
-3.1336252388
30
0
10
956.766762578
20
-3.1336252388
30
0
0
SPLINE
5
1B3
100
AcDbEntity
8
Guitar
6
ByLayer
62
256
370
-1
100
AcDbSpline
210
0
220
0
230
1
70
8
71
3
72
8
73
4
74
0
42
1e-07
43
1e-07
40
0
40
0
40
0
40
0
40
1
40
1
40
1
40
1
10
956.766762578
20
-3.1336252388
30
0
10
958.825987678
20
-3.1336252388
30
0
10
962.528915578
20
2.8504429612
30
0
10
962.528915578
20
6.1782262612
30
0
0
SPLINE
5
1B4
100
AcDbEntity
8
Guitar
6
ByLayer
62
256
370
-1
100
AcDbSpline
210
0
220
0
230
1
70
8
71
3
72
8
73
4
74
0
42
1e-07
43
1e-07
40
0
40
0
40
0
40
0
40
1
40
1
40
1
40
1
10
962.528915578
20
6.1782262612
30
0
10
962.528915578
20
7.9746555612
30
0
10
950.469429978
20
11.8685256612
30
0
10
947.663732078
20
10.9780307612
30
0
0
SPLINE
5
1B5
100
AcDbEntity
8
Guitar
6
ByLayer
62
256
370
-1
100
AcDbSpline
210
0
220
0
230
1
70
8
71
3
72
8
73
4
74
0
42
1e-07
43
1e-07
40
0
40
0
40
0
40
0
40
1
40
1
40
1
40
1
10
947.663732078
20
10.9780307612
30
0
10
944.158801078
20
9.8656065612
30
0
10
942.002986278
20
3.4646389612
30
0
10
944.344610878
20
1.1230143612
30
0
0
SPLINE
5
1B6
100
AcDbEntity
8
Guitar
6
ByLayer
62
256
370
-1
100
AcDbSpline
210
0
220
0
230
1
70
8
71
3
72
8
73
4
74
0
42
1e-07
43
1e-07
40
0
40
0
40
0
40
0
40
1
40
1
40
1
40
1
10
944.344610878
20
1.1230143612
30
0
10
947.246075978
20
-1.7784507388
30
0
10
946.020452278
20
-4.7916818388
30
0
10
941.938840678
20
-4.7916818388
30
0
0
SPLINE
5
1B7
100
AcDbEntity
8
Guitar
6
ByLayer
62
256
370
-1
100
AcDbSpline
210
0
220
0
230
1
70
8
71
3
72
8
73
4
74
0
42
1e-07
43
1e-07
40
0
40
0
40
0
40
0
40
1
40
1
40
1
40
1
10
941.938840678
20
-4.7916818388
30
0
10
932.920729778
20
-4.7916818388
30
0
10
929.481152278
20
0.0097958612
30
0
10
936.000028778
20
3.4985964612
30
0
0
SPLINE
5
1B8
100
AcDbEntity
8
Guitar
6
ByLayer
62
256
370
-1
100
AcDbSpline
210
0
220
0
230
1
70
8
71
3
72
8
73
4
74
0
42
1e-07
43
1e-07
40
0
40
0
40
0
40
0
40
1
40
1
40
1
40
1
10
936.000028778
20
3.4985964612
30
0
10
939.476811478
20
5.3593170612
30
0
10
940.571568378
20
12.4753238612
30
0
10
937.658085378
20
14.2759549612
30
0
0
SPLINE
5
1B9
100
AcDbEntity
8
Guitar
6
ByLayer
62
256
370
-1
100
AcDbSpline
210
0
220
0
230
1
70
8
71
3
72
8
73
4
74
0
42
1e-07
43
1e-07
40
0
40
0
40
0
40
0
40
1
40
1
40
1
40
1
10
937.658085378
20
14.2759549612
30
0
10
936.724905078
20
14.8526966612
30
0
10
936.000028778
20
13.5232781612
30
0
10
936.000028778
20
11.2350972612
30
0
0
SPLINE
5
1BA
100
AcDbEntity
8
Guitar
6
ByLayer
62
256
370
-1
100
AcDbSpline
210
0
220
0
230
1
70
8
71
3
72
8
73
4
74
0
42
1e-07
43
1e-07
40
0
40
0
40
0
40
0
40
1
40
1
40
1
40
1
10
936.000028778
20
11.2350972612
30
0
10
936.000028778
20
7.5025499612
30
0
10
933.318702278
20
5.1566530612
30
0
10
929.052446478
20
5.1566530612
30
0
0
SPLINE
5
1BB
100
AcDbEntity
8
Guitar
6
ByLayer
62
256
370
-1
100
AcDbSpline
210
0
220
0
230
1
70
8
71
3
72
8
73
4
74
0
42
1e-07
43
1e-07
40
0
40
0
40
0
40
0
40
1
40
1
40
1
40
1
10
929.052446478
20
5.1566530612
30
0
10
927.449450378
20
5.1566530612
30
0
10
928.001103478
20
9.6141565612
30
0
10
930.367149278
20
15.7799737612
30
0
0
SPLINE
5
1BC
100
AcDbEntity
8
Guitar
6
ByLayer
62
256
370
-1
100
AcDbSpline
210
0
220
0
230
1
70
8
71
3
72
8
73
4
74
0
42
1e-07
43
1e-07
40
0
40
0
40
0
40
0
40
1
40
1
40
1
40
1
10
930.367149278
20
15.7799737612
30
0
10
931.090991578
20
17.6662717612
30
0
10
930.410126078
20
18.4210964612
30
0
10
927.985001278
20
18.4210964612
30
0
0
SPLINE
5
1BD
100
AcDbEntity
8
Guitar
6
ByLayer
62
256
370
-1
100
AcDbSpline
210
0
220
0
230
1
70
8
71
3
72
8
73
4
74
0
42
1e-07
43
1e-07
40
0
40
0
40
0
40
0
40
1
40
1
40
1
40
1
10
927.985001278
20
18.4210964612
30
0
10
926.117395178
20
18.4210964612
30
0
10
924.128218878
20
17.6749714612
30
0
10
923.564613678
20
16.7630398612
30
0
0
SPLINE
5
1BE
100
AcDbEntity
8
Guitar
6
ByLayer
62
256
370
-1
100
AcDbSpline
210
0
220
0
230
1
70
8
71
3
72
8
73
4
74
0
42
1e-07
43
1e-07
40
0
40
0
40
0
40
0
40
1
40
1
40
1
40
1
10
923.564613678
20
16.7630398612
30
0
10
921.764189378
20
13.8498905612
30
0
10
918.185496578
20
14.9821816612
30
0
10
917.014176678
20
18.8356082612
30
0
0
SPLINE
5
1BF
100
AcDbEntity
8
Guitar
6
ByLayer
62
256
370
-1
100
AcDbSpline
210
0
220
0
230
1
70
8
71
3
72
8
73
4
74
0
42
1e-07
43
1e-07
40
0
40
0
40
0
40
0
40
1
40
1
40
1
40
1
10
917.014176678
20
18.8356082612
30
0
10
915.824183678
20
22.7504497612
30
0
10
915.385119078
20
22.1901768612
30
0
10
913.712699278
20
14.6226645612
30
0
0
SPLINE
5
1C0
100
AcDbEntity
8
Guitar
6
ByLayer
62
256
370
-1
100
AcDbSpline
210
0
220
0
230
1
70
8
71
3
72
8
73
4
74
0
42
1e-07
43
1e-07
40
0
40
0
40
0
40
0
40
1
40
1
40
1
40
1
10
913.712699278
20
14.6226645612
30
0
10
913.082170778
20
11.7695483612
30
0
10
911.974672178
20
10.4373051612
30
0
10
910.824389478
20
11.1482130612
30
0
0
SPLINE
5
1C1
100
AcDbEntity
8
Guitar
6
ByLayer
62
256
370
-1
100
AcDbSpline
210
0
220
0
230
1
70
8
71
3
72
8
73
4
74
0
42
1e-07
43
1e-07
40
0
40
0
40
0
40
0
40
1
40
1
40
1
40
1
10
910.824389478
20
11.1482130612
30
0
10
909.685852078
20
11.8518782612
30
0
10
909.419832078
20
11.5552095612
30
0
10
910.141841378
20
10.3870057612
30
0
0
SPLINE
5
1C2
100
AcDbEntity
8
Guitar
6
ByLayer
62
256
370
-1
100
AcDbSpline
210
0
220
0
230
1
70
8
71
3
72
8
73
4
74
0
42
1e-07
43
1e-07
40
0
40
0
40
0
40
0
40
1
40
1
40
1
40
1
10
910.141841378
20
10.3870057612
30
0
10
910.792532878
20
9.3341681612
30
0
10
910.430820878
20
8.4727615612
30
0
10
909.338042678
20
8.4727615612
30
0
0
SPLINE
5
1C3
100
AcDbEntity
8
Guitar
6
ByLayer
62
256
370
-1
100
AcDbSpline
210
0
220
0
230
1
70
8
71
3
72
8
73
4
74
0
42
1e-07
43
1e-07
40
0
40
0
40
0
40
0
40
1
40
1
40
1
40
1
10
909.338042678
20
8.4727615612
30
0
10
907.928272978
20
8.4727615612
30
0
10
907.636374778
20
10.8806702612
30
0
10
908.333036978
20
16.7630398612
30
0
0
SPLINE
5
1C4
100
AcDbEntity
8
Guitar
6
ByLayer
62
256
370
-1
100
AcDbSpline
210
0
220
0
230
1
70
8
71
3
72
8
73
4
74
0
42
1e-07
43
1e-07
40
0
40
0
40
0
40
0
40
1
40
1
40
1
40
1
10
908.333036978
20
16.7630398612
30
0
10
909.276021478
20
24.7250231612
30
0
10
909.153854378
20
25.0533181612
30
0
10
905.247886478
20
25.0533181612
30
0
0
SPLINE
5
1C5
100
AcDbEntity
8
Guitar
6
ByLayer
62
256
370
-1
100
AcDbSpline
210
0
220
0
230
1
70
8
71
3
72
8
73
4
74
0
42
1e-07
43
1e-07
40
0
40
0
40
0
40
0
40
1
40
1
40
1
40
1
10
905.247886478
20
25.0533181612
30
0
10
903.011024878
20
25.0533181612
30
0
10
901.180863678
20
24.3071931612
30
0
10
901.180863678
20
23.3952615612
30
0
0
SPLINE
5
1C6
100
AcDbEntity
8
Guitar
6
ByLayer
62
256
370
-1
100
AcDbSpline
210
0
220
0
230
1
70
8
71
3
72
8
73
4
74
0
42
1e-07
43
1e-07
40
0
40
0
40
0
40
0
40
1
40
1
40
1
40
1
10
901.180863678
20
23.3952615612
30
0
10
901.180863678
20
22.4833299612
30
0
10
900.061676178
20
21.7372049612
30
0
10
898.693778778
20
21.7372049612
30
0
0
SPLINE
5
1C7
100
AcDbEntity
8
Guitar
6
ByLayer
62
256
370
-1
100
AcDbSpline
210
0
220
0
230
1
70
8
71
3
72
8
73
4
74
0
42
1e-07
43
1e-07
40
0
40
0
40
0
40
0
40
1
40
1
40
1
40
1
10
898.693778778
20
21.7372049612
30
0
10
897.325881378
20
21.7372049612
30
0
10
896.206693878
20
22.8123581612
30
0
10
896.206693878
20
24.1264405612
30
0
0
SPLINE
5
1C8
100
AcDbEntity
8
Guitar
6
ByLayer
62
256
370
-1
100
AcDbSpline
210
0
220
0
230
1
70
8
71
3
72
8
73
4
74
0
42
1e-07
43
1e-07
40
0
40
0
40
0
40
0
40
1
40
1
40
1
40
1
10
896.206693878
20
24.1264405612
30
0
10
896.206693878
20
25.4405088612
30
0
10
895.460568878
20
26.9767931612
30
0
10
894.548641978
20
27.5404030612
30
0
0
SPLINE
5
1C9
100
AcDbEntity
8
Guitar
6
ByLayer
62
256
370
-1
100
AcDbSpline
210
0
220
0
230
1
70
8
71
3
72
8
73
4
74
0
42
1e-07
43
1e-07
40
0
40
0
40
0
40
0
40
1
40
1
40
1
40
1
10
894.548641978
20
27.5404030612
30
0
10
893.636710378
20
28.1040082612
30
0
10
892.890585378
20
26.9590083612
30
0
10
892.890585378
20
24.9959499612
30
0
0
SPLINE
5
1CA
100
AcDbEntity
8
Guitar
6
ByLayer
62
256
370
-1
100
AcDbSpline
210
0
220
0
230
1
70
8
71
3
72
8
73
4
74
0
42
1e-07
43
1e-07
40
0
40
0
40
0
40
0
40
1
40
1
40
1
40
1
10
892.890585378
20
24.9959499612
30
0
10
892.890585378
20
22.9664899612
30
0
10
894.165441578
20
21.0933660612
30
0
10
895.845771478
20
20.6539536612
30
0
0
SPLINE
5
1CB
100
AcDbEntity
8
Guitar
6
ByLayer
62
256
370
-1
100
AcDbSpline
210
0
220
0
230
1
70
8
71
3
72
8
73
4
74
0
42
1e-07
43
1e-07
40
0
40
0
40
0
40
0
40
1
40
1
40
1
40
1
10
895.845771478
20
20.6539536612
30
0
10
899.197162878
20
19.7775446612
30
0
10
903.625869478
20
11.0874514612
30
0
10
902.033843178
20
8.5115365612
30
0
0
SPLINE
5
1CC
100
AcDbEntity
8
Guitar
6
ByLayer
62
256
370
-1
100
AcDbSpline
210
0
220
0
230
1
70
8
71
3
72
8
73
4
74
0
42
1e-07
43
1e-07
40
0
40
0
40
0
40
0
40
1
40
1
40
1
40
1
10
902.033843178
20
8.5115365612
30
0
10
898.866245278
20
3.3862476612
30
0
10
886.794314078
20
8.9769305612
30
0
10
888.331994278
20
14.8570347612
30
0
0
SPLINE
5
1CD
100
AcDbEntity
8
Guitar
6
ByLayer
62
256
370
-1
100
AcDbSpline
210
0
220
0
230
1
70
8
71
3
72
8
73
4
74
0
42
1e-07
43
1e-07
40
0
40
0
40
0
40
0
40
1
40
1
40
1
40
1
10
888.331994278
20
14.8570347612
30
0
10
888.959359678
20
17.2560792612
30
0
10
888.501777078
20
18.4210964612
30
0
10
886.932155678
20
18.4210964612
30
0
0
SPLINE
5
1CE
100
AcDbEntity
8
Guitar
6
ByLayer
62
256
370
-1
100
AcDbSpline
210
0
220
0
230
1
70
8
71
3
72
8
73
4
74
0
42
1e-07
43
1e-07
40
0
40
0
40
0
40
0
40
1
40
1
40
1
40
1
10
886.932155678
20
18.4210964612
30
0
10
884.346770278
20
18.4210964612
30
0
10
884.186533178
20
19.1952757612
30
0
10
885.645356778
20
24.6388063612
30
0
0
SPLINE
5
1CF
100
AcDbEntity
8
Guitar
6
ByLayer
62
256
370
-1
100
AcDbSpline
210
0
220
0
230
1
70
8
71
3
72
8
73
4
74
0
42
1e-07
43
1e-07
40
0
40
0
40
0
40
0
40
1
40
1
40
1
40
1
10
885.645356778
20
24.6388063612
30
0
10
886.195223878
20
26.6906430612
30
0
10
887.826523378
20
28.3694313612
30
0
10
889.270438578
20
28.3694313612
30
0
0
SPLINE
5
1D0
100
AcDbEntity
8
Guitar
6
ByLayer
62
256
370
-1
100
AcDbSpline
210
0
220
0
230
1
70
8
71
3
72
8
73
4
74
0
42
1e-07
43
1e-07
40
0
40
0
40
0
40
0
40
1
40
1
40
1
40
1
10
889.270438578
20
28.3694313612
30
0
10
891.147557478
20
28.3694313612
30
0
10
891.386275178
20
28.8789019612
30
0
10
890.108077278
20
30.1571045612
30
0
0
SPLINE
5
1D1
100
AcDbEntity
8
Guitar
6
ByLayer
62
256
370
-1
100
AcDbSpline
210
0
220
0
230
1
70
8
71
3
72
8
73
4
74
0
42
1e-07
43
1e-07
40
0
40
0
40
0
40
0
40
1
40
1
40
1
40
1
10
890.108077278
20
30.1571045612
30
0
10
889.124846678
20
31.1403304612
30
0
10
886.177645878
20
31.6999171612
30
0
10
883.558744778
20
31.4006446612
30
0
0
SPLINE
5
1D2
100
AcDbEntity
8
Guitar
6
ByLayer
62
256
370
-1
100
AcDbSpline
210
0
220
0
230
1
70
8
71
3
72
8
73
4
74
0
42
1e-07
43
1e-07
40
0
40
0
40
0
40
0
40
1
40
1
40
1
40
1
10
883.558744778
20
31.4006446612
30
0
10
878.919661478
20
30.8705175612
30
0
10
878.809051678
20
30.6324766612
30
0
10
879.261248078
20
22.1517214612
30
0
0
SPLINE
5
1D3
100
AcDbEntity
8
Guitar
6
ByLayer
62
256
370
-1
100
AcDbSpline
210
0
220
0
230
1
70
8
71
3
72
8
73
4
74
0
42
1e-07
43
1e-07
40
0
40
0
40
0
40
0
40
1
40
1
40
1
40
1
10
879.261248078
20
22.1517214612
30
0
10
879.693375478
20
14.0475020612
30
0
10
879.464593578
20
13.4505644612
30
0
10
875.945134878
20
13.4996559612
30
0
0
SPLINE
5
1D4
100
AcDbEntity
8
Guitar
6
ByLayer
62
256
370
-1
100
AcDbSpline
210
0
220
0
230
1
70
8
71
3
72
8
73
4
74
0
42
1e-07
43
1e-07
40
0
40
0
40
0
40
0
40
1
40
1
40
1
40
1
10
875.945134878
20
13.4996559612
30
0
10
867.661027678
20
13.6151866612
30
0
10
862.439651978
20
23.6409211612
30
0
10
869.677807078
20
25.5337427612
30
0
0
SPLINE
5
1D5
100
AcDbEntity
8
Guitar
6
ByLayer
62
256
370
-1
100
AcDbSpline
210
0
220
0
230
1
70
8
71
3
72
8
73
4
74
0
42
1e-07
43
1e-07
40
0
40
0
40
0
40
0
40
1
40
1
40
1
40
1
10
869.677807078
20
25.5337427612
30
0
10
871.828794978
20
26.0962340612
30
0
10
872.993915578
20
27.7953592612
30
0
10
872.993915578
20
30.3696667612
30
0
0
SPLINE
5
1D6
100
AcDbEntity
8
Guitar
6
ByLayer
62
256
370
-1
100
AcDbSpline
210
0
220
0
230
1
70
8
71
3
72
8
73
4
74
0
42
1e-07
43
1e-07
40
0
40
0
40
0
40
0
40
1
40
1
40
1
40
1
10
872.993915578
20
30.3696667612
30
0
10
872.993915578
20
35.7979834612
30
0
10
870.023821078
20
38.3177615612
30
0
10
863.625386778
20
38.3177615612
30
0
0
SPLINE
5
1D7
100
AcDbEntity
8
Guitar
6
ByLayer
62
256
370
-1
100
AcDbSpline
210
0
220
0
230
1
70
8
71
3
72
8
73
4
74
0
42
1e-07
43
1e-07
40
0
40
0
40
0
40
0
40
1
40
1
40
1
40
1
10
863.625386778
20
38.3177615612
30
0
10
856.922397178
20
38.3177615612
30
0
10
854.535488078
20
34.6891030612
30
0
10
856.979408178
20
28.2143924612
30
0
0
SPLINE
5
1D8
100
AcDbEntity
8
Guitar
6
ByLayer
62
256
370
-1
100
AcDbSpline
210
0
220
0
230
1
70
8
71
3
72
8
73
4
74
0
42
1e-07
43
1e-07
40
0
40
0
40
0
40
0
40
1
40
1
40
1
40
1
10
856.979408178
20
28.2143924612
30
0
10
859.238500778
20
22.2293842612
30
0
10
857.979441278
20
21.0743545612
30
0
10
850.687485278
20
22.4423318612
30
0
0
SPLINE
5
1D9
100
AcDbEntity
8
Guitar
6
ByLayer
62
256
370
-1
100
AcDbSpline
210
0
220
0
230
1
70
8
71
3
72
8
73
4
74
0
42
1e-07
43
1e-07
40
0
40
0
40
0
40
0
40
1
40
1
40
1
40
1
10
850.687485278
20
22.4423318612
30
0
10
845.902415278
20
23.3400177612
30
0
10
844.806972178
20
24.2828800612
30
0
10
844.806972178
20
27.5038041612
30
0
0
SPLINE
5
1DA
100
AcDbEntity
8
Guitar
6
ByLayer
62
256
370
-1
100
AcDbSpline
210
0
220
0
230
1
70
8
71
3
72
8
73
4
74
0
42
1e-07
43
1e-07
40
0
40
0
40
0
40
0
40
1
40
1
40
1
40
1
10
844.806972178
20
27.5038041612
30
0
10
844.806972178
20
30.0058773612
30
0
10
846.026932378
20
31.8492784612
30
0
10
848.123085378
20
32.5145681612
30
0
0
SPLINE
5
1DB
100
AcDbEntity
8
Guitar
6
ByLayer
62
256
370
-1
100
AcDbSpline
210
0
220
0
230
1
70
8
71
3
72
8
73
4
74
0
42
1e-07
43
1e-07
40
0
40
0
40
0
40
0
40
1
40
1
40
1
40
1
10
848.123085378
20
32.5145681612
30
0
10
851.941149178
20
33.7263832612
30
0
10
852.639747778
20
40.2314652612
30
0
10
849.253613978
20
43.0417080612
30
0
0
SPLINE
5
1DC
100
AcDbEntity
8
Guitar
6
ByLayer
62
256
370
-1
100
AcDbSpline
210
0
220
0
230
1
70
8
71
3
72
8
73
4
74
0
42
1e-07
43
1e-07
40
0
40
0
40
0
40
0
40
1
40
1
40
1
40
1
10
849.253613978
20
43.0417080612
30
0
10
848.051537278
20
44.0393394612
30
0
10
844.612077278
20
45.0633566612
30
0
10
841.610375278
20
45.3173023612
30
0
0
SPLINE
5
1DD
100
AcDbEntity
8
Guitar
6
ByLayer
62
256
370
-1
100
AcDbSpline
210
0
220
0
230
1
70
8
71
3
72
8
73
4
74
0
42
1e-07
43
1e-07
40
0
40
0
40
0
40
0
40
1
40
1
40
1
40
1
10
841.610375278
20
45.3173023612
30
0
10
834.748864078
20
45.8977805612
30
0
10
831.301446978
20
41.7395260612
30
0
10
834.456209178
20
36.6879331612
30
0
0
SPLINE
5
1DE
100
AcDbEntity
8
Guitar
6
ByLayer
62
256
370
-1
100
AcDbSpline
210
0
220
0
230
1
70
8
71
3
72
8
73
4
74
0
42
1e-07
43
1e-07
40
0
40
0
40
0
40
0
40
1
40
1
40
1
40
1
10
834.456209178
20
36.6879331612
30
0
10
837.984987978
20
31.0374803612
30
0
10
837.032020678
20
29.5617555612
30
0
10
830.629948578
20
30.7627982612
30
0
0
SPLINE
5
1DF
100
AcDbEntity
8
Guitar
6
ByLayer
62
256
370
-1
100
AcDbSpline
210
0
220
0
230
1
70
8
71
3
72
8
73
4
74
0
42
1e-07
43
1e-07
40
0
40
0
40
0
40
0
40
1
40
1
40
1
40
1
10
830.629948578
20
30.7627982612
30
0
10
825.784248578
20
31.6718534612
30
0
10
823.249463378
20
30.9480487612
30
0
10
816.296734578
20
26.6699865612
30
0
0
SPLINE
5
1E0
100
AcDbEntity
8
Guitar
6
ByLayer
62
256
370
-1
100
AcDbSpline
210
0
220
0
230
1
70
8
71
3
72
8
73
4
74
0
42
1e-07
43
1e-07
40
0
40
0
40
0
40
0
40
1
40
1
40
1
40
1
10
816.296734578
20
26.6699865612
30
0
10
811.651179378
20
23.8115546612
30
0
10
805.906298878
20
20.7252620612
30
0
10
803.530354878
20
19.8115679612
30
0
0
SPLINE
5
1E1
100
AcDbEntity
8
Guitar
6
ByLayer
62
256
370
-1
100
AcDbSpline
210
0
220
0
230
1
70
8
71
3
72
8
73
4
74
0
42
1e-07
43
1e-07
40
0
40
0
40
0
40
0
40
1
40
1
40
1
40
1
10
803.530354878
20
19.8115679612
30
0
10
801.135211378
20
18.8904995612
30
0
10
784.065925278
20
18.1704360612
30
0
10
765.220307078
20
18.1954823612
30
0
0
SPLINE
5
1E2
100
AcDbEntity
8
Guitar
6
ByLayer
62
256
370
-1
100
AcDbSpline
210
0
220
0
230
1
70
8
71
3
72
8
73
4
74
0
42
1e-07
43
1e-07
40
0
40
0
40
0
40
0
40
1
40
1
40
1
40
1
10
599.000238678
20
20.5942636612
30
0
10
600.596109578
20
21.0113087612
30
0
10
588.098522878
20
21.4401884612
30
0
10
571.227807078
20
21.5473155612
30
0
0
SPLINE
5
1E3
100
AcDbEntity
8
Guitar
6
ByLayer
62
256
370
-1
100
AcDbSpline
210
0
220
0
230
1
70
8
71
3
72
8
73
4
74
0
42
1e-07
43
1e-07
40
0
40
0
40
0
40
0
40
1
40
1
40
1
40
1
10
571.227807078
20
21.5473155612
30
0
10
554.357091278
20
21.6544896612
30
0
10
513.133677978
20
22.2350994612
30
0
10
479.620238678
20
22.8376535612
30
0
0
SPLINE
5
1E4
100
AcDbEntity
8
Guitar
6
ByLayer
62
256
370
-1
100
AcDbSpline
210
0
220
0
230
1
70
8
71
3
72
8
73
4
74
0
42
1e-07
43
1e-07
40
0
40
0
40
0
40
0
40
1
40
1
40
1
40
1
10
397.457230978
20
25.0533181612
30
0
10
386.881408478
20
25.0533181612
30
0
10
385.857193878
20
25.3902329612
30
0
10
381.075630078
20
30.4419997612
30
0
0
SPLINE
5
1E5
100
AcDbEntity
8
Guitar
6
ByLayer
62
256
370
-1
100
AcDbSpline
210
0
220
0
230
1
70
8
71
3
72
8
73
4
74
0
42
1e-07
43
1e-07
40
0
40
0
40
0
40
0
40
1
40
1
40
1
40
1
10
381.075630078
20
30.4419997612
30
0
10
373.980740378
20
37.9378041612
30
0
10
372.261141978
20
41.8950631612
30
0
10
372.261141978
20
50.7265135612
30
0
0
SPLINE
5
1E6
100
AcDbEntity
8
Guitar
6
ByLayer
62
256
370
-1
100
AcDbSpline
210
0
220
0
230
1
70
8
71
3
72
8
73
4
74
0
42
1e-07
43
1e-07
40
0
40
0
40
0
40
0
40
1
40
1
40
1
40
1
10
372.261141978
20
50.7265135612
30
0
10
372.261141978
20
59.9846158612
30
0
10
374.925595478
20
65.4236673612
30
0
10
383.316350378
20
73.2939207612
30
0
0
SPLINE
5
1E7
100
AcDbEntity
8
Guitar
6
ByLayer
62
256
370
-1
100
AcDbSpline
210
0
220
0
230
1
70
8
71
3
72
8
73
4
74
0
42
1e-07
43
1e-07
40
0
40
0
40
0
40
0
40
1
40
1
40
1
40
1
10
383.316350378
20
73.2939207612
30
0
10
391.527757978
20
80.9959423612
30
0
10
399.441166778
20
85.6051383612
30
0
10
408.738363678
20
88.1010592612
30
0
0
SPLINE
5
1E8
100
AcDbEntity
8
Guitar
6
ByLayer
62
256
370
-1
100
AcDbSpline
210
0
220
0
230
1
70
8
71
3
72
8
73
4
74
0
42
1e-07
43
1e-07
40
0
40
0
40
0
40
0
40
1
40
1
40
1
40
1
10
408.738363678
20
88.1010592612
30
0
10
417.337117078
20
90.4094877612
30
0
10
448.073514378
20
94.9732676612
30
0
10
457.218793178
20
95.2995087612
30
0
0
SPLINE
5
1E9
100
AcDbEntity
8
Guitar
6
ByLayer
62
256
370
-1
100
AcDbSpline
210
0
220
0
230
1
70
8
71
3
72
8
73
4
74
0
42
1e-07
43
1e-07
40
0
40
0
40
0
40
0
40
1
40
1
40
1
40
1
10
457.218793178
20
95.2995087612
30
0
10
462.480861478
20
95.4872220612
30
0
10
463.672287978
20
96.2478888612
30
0
10
465.094554978
20
100.327752061
30
0
0
SPLINE
5
1EA
100
AcDbEntity
8
Guitar
6
ByLayer
62
256
370
-1
100
AcDbSpline
210
0
220
0
230
1
70
8
71
3
72
8
73
4
74
0
42
1e-07
43
1e-07
40
0
40
0
40
0
40
0
40
1
40
1
40
1
40
1
10
465.094554978
20
100.327752061
30
0
10
467.304118978
20
106.666120361
30
0
10
467.210551378
20
107.956096461
30
0
10
464.541205178
20
107.956096461
30
0
0
SPLINE
5
1EB
100
AcDbEntity
8
Guitar
6
ByLayer
62
256
370
-1
100
AcDbSpline
210
0
220
0
230
1
70
8
71
3
72
8
73
4
74
0
42
1e-07
43
1e-07
40
0
40
0
40
0
40
0
40
1
40
1
40
1
40
1
10
464.541205178
20
107.956096461
30
0
10
463.315181978
20
107.956096461
30
0
10
457.947805478
20
111.775175461
30
0
10
452.613695578
20
116.442942861
30
0
0
SPLINE
5
1EC
100
AcDbEntity
8
Guitar
6
ByLayer
62
256
370
-1
100
AcDbSpline
210
0
220
0
230
1
70
8
71
3
72
8
73
4
74
0
42
1e-07
43
1e-07
40
0
40
0
40
0
40
0
40
1
40
1
40
1
40
1
10
452.613695578
20
116.442942861
30
0
10
447.279585678
20
121.110710261
30
0
10
439.515707378
20
126.425216461
30
0
10
435.360644178
20
128.252957161
30
0
0
SPLINE
5
1ED
100
AcDbEntity
8
Guitar
6
ByLayer
62
256
370
-1
100
AcDbSpline
210
0
220
0
230
1
70
8
71
3
72
8
73
4
74
0
42
1e-07
43
1e-07
40
0
40
0
40
0
40
0
40
1
40
1
40
1
40
1
10
435.360644178
20
128.252957161
30
0
10
425.796224078
20
132.460199761
30
0
10
407.480855178
20
133.788734661
30
0
10
392.773065278
20
131.342116761
30
0
0
SPLINE
5
1EE
100
AcDbEntity
8
Guitar
6
ByLayer
62
256
370
-1
100
AcDbSpline
210
0
220
0
230
1
70
8
71
3
72
8
73
4
74
0
42
1e-07
43
1e-07
40
0
40
0
40
0
40
0
40
1
40
1
40
1
40
1
10
262.829472178
20
104.517646961
30
0
10
258.725784678
20
105.627058461
30
0
10
240.445722178
20
113.879736761
30
0
10
222.207113678
20
122.856934161
30
0
0
SPLINE
5
1EF
100
AcDbEntity
8
Guitar
6
ByLayer
62
256
370
-1
100
AcDbSpline
210
0
220
0
230
1
70
8
71
3
72
8
73
4
74
0
42
1e-07
43
1e-07
40
0
40
0
40
0
40
0
40
1
40
1
40
1
40
1
10
222.207113678
20
122.856934161
30
0
10
163.956173778
20
151.528546261
30
0
10
147.766704178
20
156.484508261
30
0
10
111.946415578
20
156.610233261
30
0
0
SPLINE
5
1F0
100
AcDbEntity
8
Guitar
6
ByLayer
62
256
370
-1
100
AcDbSpline
210
0
220
0
230
1
70
8
71
3
72
8
73
4
74
0
42
1e-07
43
1e-07
40
0
40
0
40
0
40
0
40
1
40
1
40
1
40
1
10
111.946415578
20
156.610233261
30
0
10
86.2218632776
20
156.700524961
30
0
10
76.3248805776
20
154.165429561
30
0
10
56.8657948776
20
142.501411361
30
0
0
SPLINE
5
1F1
100
AcDbEntity
8
Guitar
6
ByLayer
62
256
370
-1
100
AcDbSpline
210
0
220
0
230
1
70
8
71
3
72
8
73
4
74
0
42
1e-07
43
1e-07
40
0
40
0
40
0
40
0
40
1
40
1
40
1
40
1
10
22.8804332776
20
-114.339211339
30
0
10
26.7261612776
20
-120.064530439
30
0
10
30.7240658776
20
-126.184414539
30
0
10
31.7646599776
20
-127.938957439
30
0
0
SPLINE
5
1F2
100
AcDbEntity
8
Guitar
6
ByLayer
62
256
370
-1
100
AcDbSpline
210
0
220
0
230
1
70
8
71
3
72
8
73
4
74
0
42
1e-07
43
1e-07
40
0
40
0
40
0
40
0
40
1
40
1
40
1
40
1
10
31.7646599776
20
-127.938957439
30
0
10
32.8052587776
20
-129.693486239
30
0
10
37.2820087776
20
-133.690314539
30
0
10
41.7129948776
20
-136.820777739
30
0
0
SPLINE
5
1F3
100
AcDbEntity
8
Guitar
6
ByLayer
62
256
370
-1
100
AcDbSpline
210
0
220
0
230
1
70
8
71
3
72
8
73
4
74
0
42
1e-07
43
1e-07
40
0
40
0
40
0
40
0
40
1
40
1
40
1
40
1
10
75.4691938776
20
-155.435832739
30
0
10
80.3821038776
20
-157.995748839
30
0
10
84.8335349776
20
-158.410805839
30
0
10
104.485165578
20
-158.141406539
30
0
0
SPLINE
5
1F4
100
AcDbEntity
8
Guitar
6
ByLayer
62
256
370
-1
100
AcDbSpline
210
0
220
0
230
1
70
8
71
3
72
8
73
4
74
0
42
1e-07
43
1e-07
40
0
40
0
40
0
40
0
40
1
40
1
40
1
40
1
10
104.485165578
20
-158.141406539
30
0
10
125.959188278
20
-157.847003239
30
0
10
128.778083778
20
-157.431029739
30
0
10
142.117990378
20
-152.588022839
30
0
0
LWPOLYLINE
5
1F5
100
AcDbEntity
8
Guitar
6
ByLayer
62
256
370
-1
100
AcDbPolyline
90
2
70
1
43
0
10
142.117990378
20
-152.588022839
10
142.117990378
20
-152.588022839
0
SPLINE
5
1F6
100
AcDbEntity
8
Guitar
6
ByLayer
62
256
370
-1
100
AcDbSpline
210
0
220
0
230
1
70
8
71
3
72
8
73
4
74
0
42
1e-07
43
1e-07
40
0
40
0
40
0
40
0
40
1
40
1
40
1
40
1
10
479.620238678
20
22.8376535612
30
0
10
423.480148678
20
23.8470114612
30
0
10
431.527582182
20
24.058580239
30
0
10
397.48356234
20
25.0833820533
30
0
0
SPLINE
5
1F7
100
AcDbEntity
8
Guitar
6
ByLayer
62
256
370
-1
100
AcDbSpline
210
0
220
0
230
1
70
8
71
3
72
8
73
4
74
0
42
1e-07
43
1e-07
40
0
40
0
40
0
40
0
40
1
40
1
40
1
40
1
10
645.425790578
20
20.0724273612
30
0
10
620.367745278
20
20.0777336612
30
0
10
615.995307078
20
19.7096437612
30
0
10
598.624653966
20
20.9026826251
30
0
0
SPLINE
5
1F8
100
AcDbEntity
8
Guitar
6
ByLayer
62
256
370
-1
100
AcDbSpline
210
0
220
0
230
1
70
8
71
3
72
8
73
4
74
0
42
1e-07
43
1e-07
40
0
40
0
40
0
40
0
40
1
40
1
40
1
40
1
10
765.043463461
20
18.1605034303
30
0
10
684.286809978
20
19.5847083612
30
0
10
661.612552978
20
20.0687237612
30
0
10
645.425790578
20
20.0724273612
30
0
0
SPLINE
5
1F9
100
AcDbEntity
8
Guitar
6
ByLayer
62
256
370
-1
100
AcDbSpline
210
0
220
0
230
1
70
8
71
3
72
8
73
4
74
0
42
1e-07
43
1e-07
40
0
40
0
40
0
40
0
40
1
40
1
40
1
40
1
10
712.400383966
20
-26.4300275025
30
0
10
713.820585378
20
-26.2049382388
30
0
10
719.024237378
20
-26.4805885388
30
0
10
757.344540578
20
-26.2477975388
30
0
0
SPLINE
5
1FA
100
AcDbEntity
8
Guitar
6
ByLayer
62
256
370
-1
100
AcDbSpline
210
0
220
0
230
1
70
8
71
3
72
8
73
4
74
0
42
1e-07
43
1e-07
40
0
40
0
40
0
40
0
40
1
40
1
40
1
40
1
10
650.814472178
20
-27.7079465388
30
0
10
699.917073578
20
-27.2233295388
30
0
10
708.846415578
20
-26.6093826388
30
0
10
714.057559274
20
-26.2827230306
30
0
0
SPLINE
5
1FB
100
AcDbEntity
8
Guitar
6
ByLayer
62
256
370
-1
100
AcDbSpline
210
0
220
0
230
1
70
8
71
3
72
8
73
4
74
0
42
1e-07
43
1e-07
40
0
40
0
40
0
40
0
40
1
40
1
40
1
40
1
10
5.08830127756
20
-69.3389109388
30
0
10
8.61779447756
20
-86.9996168388
30
0
10
14.6186557776
20
-102.039532239
30
0
10
22.8804332776
20
-114.339211339
30
0
0
SPLINE
5
1FC
100
AcDbEntity
8
Guitar
6
ByLayer
62
256
370
-1
100
AcDbSpline
210
0
220
0
230
1
70
8
71
3
72
8
73
4
74
0
42
1e-07
43
1e-07
40
0
40
0
40
0
40
0
40
1
40
1
40
1
40
1
10
41.7129948776
20
-136.820777739
30
0
10
67.0545629776
20
-152.472369939
30
0
10
72.2774379776
20
-153.772747139
30
0
10
75.4691938776
20
-155.435832739
30
0
0
SPLINE
5
1FD
100
AcDbEntity
8
Guitar
6
ByLayer
62
256
370
-1
100
AcDbSpline
210
0
220
0
230
1
70
8
71
3
72
8
73
4
74
0
42
1e-07
43
1e-07
40
0
40
0
40
0
40
0
40
1
40
1
40
1
40
1
10
311.742113678
20
106.365936061
30
0
10
298.415667878
20
102.037330061
30
0
10
275.243055778
20
101.161696561
30
0
10
262.829472178
20
104.517646961
30
0
0
SPLINE
5
1FE
100
AcDbEntity
8
Guitar
6
ByLayer
62
256
370
-1
100
AcDbSpline
210
0
220
0
230
1
70
8
71
3
72
8
73
4
74
0
42
1e-07
43
1e-07
40
0
40
0
40
0
40
0
40
1
40
1
40
1
40
1
10
328.429379078
20
111.099541061
30
0
10
324.670356678
20
110.063618761
30
0
10
318.125625478
20
108.439383361
30
0
10
311.742113678
20
106.365936061
30
0
0
SPLINE
5
1FF
100
AcDbEntity
8
Guitar
6
ByLayer
62
256
370
-1
100
AcDbSpline
210
0
220
0
230
1
70
8
71
3
72
8
73
4
74
0
42
1e-07
43
1e-07
40
0
40
0
40
0
40
0
40
1
40
1
40
1
40
1
10
392.773065278
20
131.342116761
30
0
10
378.642623378
20
128.991543361
30
0
10
328.429379078
20
111.099541061
30
0
10
328.429379078
20
111.099541061
30
0
0
SPLINE
5
200
100
AcDbEntity
8
Guitar
6
ByLayer
62
256
370
-1
100
AcDbSpline
210
0
220
0
230
1
70
8
71
3
72
8
73
4
74
0
42
1e-07
43
1e-07
40
0
40
0
40
0
40
0
40
1
40
1
40
1
40
1
10
1.84559011971
20
42.2640137413
30
0
10
-1.45359582244
20
-15.4786969388
30
0
10
2.17526947756
20
-56.5312652388
30
0
10
5.08830127756
20
-69.3389109388
30
0
0
SPLINE
5
201
100
AcDbEntity
8
Guitar
6
ByLayer
62
256
370
-1
100
AcDbSpline
210
0
220
0
230
1
70
8
71
3
72
8
73
4
74
0
42
1e-07
43
1e-07
40
0
40
0
40
0
40
0
40
1
40
1
40
1
40
1
10
56.8657948776
20
142.501411361
30
0
10
21.5651570776
20
121.341766961
30
0
10
0.887619877559
20
76.2933761612
30
0
10
1.84559011971
20
42.2640137413
30
0
0
LINE
5
202
100
AcDbEntity
8
0
6
ByLayer
62
256
370
-1
100
AcDbLine
10
40.5364096845
20
-3.3280956777
11
40.558524441
21
-7.82104347622
0
LINE
5
203
100
AcDbEntity
8
0
6
ByLayer
62
256
370
-1
100
AcDbLine
10
40.5441294357
20
1.03002031554
11
40.5368444487
21
-3.58807684401
0
LINE
5
204
100
AcDbEntity
8
0
6
ByLayer
62
256
370
-1
100
AcDbLine
10
40.5811033838
20
5.5115447288
11
40.5428791513
21
0.770625376874
0
LINE
5
205
100
AcDbEntity
8
0
6
ByLayer
62
256
370
-1
100
AcDbLine
10
40.6488767009
20
10.1137667198
11
40.5781737208
21
5.25235234411
0
LINE
5
206
100
AcDbEntity
8
0
6
ByLayer
62
256
370
-1
100
AcDbLine
10
40.7489852584
20
14.8340166754
11
40.6442640284
21
9.85443444464
0
LINE
5
207
100
AcDbEntity
8
0
6
ByLayer
62
256
370
-1
100
AcDbLine
10
40.8602808105
20
19.9970967744
11
40.7426778109
21
14.574237131
0
LINE
5
208
100
AcDbEntity
8
0
6
ByLayer
62
256
370
-1
100
AcDbLine
10
40.5563881941
20
-7.56004366051
11
40.6063631917
21
-11.9255149293
0
LINE
5
209
100
AcDbEntity
8
0
6
ByLayer
62
256
370
-1
100
AcDbLine
10
40.6731508414
20
-15.6340959311
11
40.7742278151
21
-19.7376326346
0
LINE
5
20A
100
AcDbEntity
8
0
6
ByLayer
62
256
370
-1
100
AcDbLine
10
40.6024964157
20
-11.663006064
11
40.6787921525
21
-15.8986736345
0
LINE
5
20B
100
AcDbEntity
8
0
6
ByLayer
62
256
370
-1
100
AcDbLine
10
40.7667499981
20
-19.4703427076
11
40.8910687066
21
-23.4394213755
0
LINE
5
20C
100
AcDbEntity
8
0
6
ByLayer
62
256
370
-1
100
AcDbLine
10
40.8816705697
20
-23.1686744036
11
41.0276915108
21
-27.0009678672
0
LINE
5
20D
100
AcDbEntity
8
0
6
ByLayer
62
256
370
-1
100
AcDbLine
10
41.0162623428
20
-26.7258950004
11
41.1824460144
21
-30.419076091
0
LINE
5
20E
100
AcDbEntity
8
0
6
ByLayer
62
256
370
-1
100
AcDbLine
10
41.1688415538
20
-30.1386555626
11
41.3536484538
21
-33.6903971116
0
LINE
5
20F
100
AcDbEntity
8
0
6
ByLayer
62
256
370
-1
100
AcDbLine
10
41.3376820295
20
-33.4034169166
11
41.5395726556
21
-36.8113917554
0
LINE
5
210
100
AcDbEntity
8
0
6
ByLayer
62
256
370
-1
100
AcDbLine
10
41.5210032363
20
-36.516400885
11
41.7384380865
21
-39.7782818449
0
LINE
5
211
100
AcDbEntity
8
0
6
ByLayer
62
256
370
-1
100
AcDbLine
10
41.7169539341
20
-39.4735257745
11
41.9483935063
21
-42.5869856868
0
LINE
5
212
100
AcDbEntity
8
0
6
ByLayer
62
256
370
-1
100
AcDbLine
10
41.923589463
20
-42.270319866
11
42.1674942549
21
-45.233031562
0
LINE
5
213
100
AcDbEntity
8
0
6
ByLayer
62
256
370
-1
100
AcDbLine
10
42.1388396308
20
-44.9018036555
11
42.3936701403
21
-47.7114399667
0
LINE
5
214
100
AcDbEntity
8
0
6
ByLayer
62
256
370
-1
100
AcDbLine
10
46.621034917
20
-70.9822358469
11
47.0922206375
21
-72.5513817497
0
LINE
5
215
100
AcDbEntity
8
0
6
ByLayer
62
256
370
-1
100
AcDbLine
10
56.0946951669
20
-92.0499132984
11
56.467233073
21
-92.605048393
0
LINE
5
216
100
AcDbEntity
8
0
6
ByLayer
62
256
370
-1
100
AcDbLine
10
56.0946951669
20
-92.0499132984
11
56.467233073
21
-92.605048393
0
LINE
5
217
100
AcDbEntity
8
0
6
ByLayer
62
256
370
-1
100
AcDbLine
10
57.6573580932
20
-94.3849251422
11
58.0274338519
21
-94.9403274983
0
LINE
5
218
100
AcDbEntity
8
0
6
ByLayer
62
256
370
-1
100
AcDbLine
10
61.0168370073
20
-99.461053988
11
61.3447367026
21
-99.9609760782
0
LINE
5
219
100
AcDbEntity
8
0
6
ByLayer
62
256
370
-1
100
AcDbLine
10
64.9346326562
20
-104.143642123
11
67.2028760342
21
-105.527367033
0
LINE
5
21A
100
AcDbEntity
8
0
6
ByLayer
62
256
370
-1
100
AcDbLine
10
67.0693831145
20
-105.446287864
11
69.2193012927
21
-106.746337875
0
LINE
5
21B
100
AcDbEntity
8
0
6
ByLayer
62
256
370
-1
100
AcDbLine
10
69.0788427158
20
-106.66179553
11
71.1140785877
21
-107.881134073
0
LINE
5
21C
100
AcDbEntity
8
0
6
ByLayer
62
256
370
-1
100
AcDbLine
10
70.9662411347
20
-107.792994247
11
72.8904375941
21
-108.93458475
0
LINE
5
21D
100
AcDbEntity
8
0
6
ByLayer
62
256
370
-1
100
AcDbLine
10
72.7348003014
20
-108.842722711
11
74.5516002419
21
-109.909528606
0
LINE
5
21E
100
AcDbEntity
8
0
6
ByLayer
62
256
370
-1
100
AcDbLine
10
74.387741978
20
-109.813834692
11
76.1007882931
21
-110.808819407
0
LINE
5
21F
100
AcDbEntity
8
0
6
ByLayer
62
256
370
-1
100
AcDbLine
10
75.9282986258
20
-110.709206165
11
77.5412342092
21
-111.635333131
0
LINE
5
220
100
AcDbEntity
8
0
6
ByLayer
62
256
370
-1
100
AcDbLine
10
77.3597286762
20
-111.531744508
11
78.8761964215
21
-112.391977154
0
LINE
5
221
100
AcDbEntity
8
0
6
ByLayer
62
256
370
-1
100
AcDbLine
10
78.685337664
20
-112.284400281
11
80.1089804648
21
-113.081702039
0
LINE
5
222
100
AcDbEntity
8
0
6
ByLayer
62
256
370
-1
100
AcDbLine
10
79.9085071203
20
-112.970182231
11
81.2429678703
21
-113.707516529
0
LINE
5
223
100
AcDbEntity
8
0
6
ByLayer
62
256
370
-1
100
AcDbLine
10
81.0327336737
20
-113.592176281
11
82.2816552664
21
-114.272506549
0
LINE
5
224
100
AcDbEntity
8
0
6
ByLayer
62
256
370
-1
100
AcDbLine
10
82.0616814816
20
-114.153569446
11
83.2287068107
21
-114.779859114
0
LINE
5
225
100
AcDbEntity
8
0
6
ByLayer
62
256
370
-1
100
AcDbLine
10
82.9992519115
20
-114.657679726
11
84.0880238706
21
-115.232892224
0
LINE
5
226
100
AcDbEntity
8
0
6
ByLayer
62
256
370
-1
100
AcDbLine
10
83.8496752832
20
-115.107993216
11
84.8638367661
21
-115.635091975
0
LINE
5
227
100
AcDbEntity
8
0
6
ByLayer
62
256
370
-1
100
AcDbLine
10
84.6176303921
20
-115.508209791
11
85.5608242922
21
-115.99015824
0
LINE
5
228
100
AcDbEntity
8
0
6
ByLayer
62
256
370
-1
100
AcDbLine
10
85.308398276
20
-115.862298796
11
86.1842674871
21
-116.302060364
0
LINE
5
229
100
AcDbEntity
8
0
6
ByLayer
62
256
370
-1
100
AcDbLine
10
86.9838425523
20
-116.693036222
11
87.6795950579
21
-117.024017731
0
LINE
5
22A
100
AcDbEntity
8
0
6
ByLayer
62
256
370
-1
100
AcDbLine
10
88.2626013872
20
-117.294078191
11
88.8110232299
21
-117.542950508
0
LINE
5
22B
100
AcDbEntity
8
0
6
ByLayer
62
256
370
-1
100
AcDbLine
10
88.6637658352
20
-117.476483816
11
89.1703632441
21
-117.703913261
0
LINE
5
22C
100
AcDbEntity
8
0
6
ByLayer
62
256
370
-1
100
AcDbLine
10
89.083447131
20
-117.665017791
11
89.5518629999
21
-117.873967796
0
LINE
5
22D
100
AcDbEntity
8
0
6
ByLayer
62
256
370
-1
100
AcDbLine
10
90.6601268707
20
-118.151266275
11
91.8027945673
21
-118.179077536
0
LINE
5
22E
100
AcDbEntity
8
0
6
ByLayer
62
256
370
-1
100
AcDbLine
10
91.5204932003
20
-118.173203537
11
92.7296744907
21
-118.19409423
0
LINE
5
22F
100
AcDbEntity
8
0
6
ByLayer
62
256
370
-1
100
AcDbLine
10
92.4848399454
20
-118.190613853
11
93.7636891404
21
-118.204878109
0
LINE
5
230
100
AcDbEntity
8
0
6
ByLayer
62
256
370
-1
100
AcDbLine
10
92.4848399454
20
-118.190613853
11
93.7636891404
21
-118.204878109
0
LINE
5
231
100
AcDbEntity
8
0
6
ByLayer
62
256
370
-1
100
AcDbLine
10
93.5522837891
20
-118.203078826
11
94.9039551993
21
-118.211010773
0
LINE
5
232
100
AcDbEntity
8
0
6
ByLayer
62
256
370
-1
100
AcDbLine
10
90.6601268707
20
-118.151266275
11
91.8027945673
21
-118.179077536
0
LINE
5
233
100
AcDbEntity
8
0
6
ByLayer
62
256
370
-1
100
AcDbLine
10
92.4848399454
20
-118.190613853
11
93.7636891404
21
-118.204878109
0
LINE
5
234
100
AcDbEntity
8
0
6
ByLayer
62
256
370
-1
100
AcDbLine
10
93.5522837891
20
-118.203078826
11
94.9039551993
21
-118.211010773
0
LINE
5
235
100
AcDbEntity
8
0
6
ByLayer
62
256
370
-1
100
AcDbLine
10
94.722288978
20
-118.210357255
11
96.1499369141
21
-118.212251024
0
LINE
5
236
100
AcDbEntity
8
0
6
ByLayer
62
256
370
-1
100
AcDbLine
10
95.9946652518
20
-118.212346424
11
97.5014440246
21
-118.208496144
0
LINE
5
237
100
AcDbEntity
8
0
6
ByLayer
62
256
370
-1
100
AcDbLine
10
95.9946652518
20
-118.212346424
11
97.5014440246
21
-118.208496144
0
LINE
5
238
100
AcDbEntity
8
0
6
ByLayer
62
256
370
-1
100
AcDbLine
10
97.3695548211
20
-118.2090506
11
98.9586187413
21
-118.199750401
0
LINE
5
239
100
AcDbEntity
8
0
6
ByLayer
62
256
370
-1
100
AcDbLine
10
97.3695548211
20
-118.2090506
11
98.9586187413
21
-118.199750401
0
LINE
5
23A
100
AcDbEntity
8
0
6
ByLayer
62
256
370
-1
100
AcDbLine
10
97.3695548211
20
-118.2090506
11
98.9586187413
21
-118.199750401
0
LINE
5
23B
100
AcDbEntity
8
0
6
ByLayer
62
256
370
-1
100
AcDbLine
10
85.9280569404
20
-116.17456619
11
86.9838425523
21
-116.693036222
0
LINE
5
23C
100
AcDbEntity
8
0
6
ByLayer
62
256
370
-1
100
AcDbLine
10
87.6795950579
20
-117.024017731
11
88.4538227832
21
-117.381460678
0
LINE
5
23D
100
AcDbEntity
8
0
6
ByLayer
62
256
370
-1
100
AcDbLine
10
62.0386754019
20
-101.022141853
11
64.9346326562
21
-104.143642123
0
LINE
5
23E
100
AcDbEntity
8
0
6
ByLayer
62
256
370
-1
100
AcDbLine
10
61.7052638457
20
-100.511727869
11
62.0386754019
21
-101.022141853
0
LINE
5
23F
100
AcDbEntity
8
0
6
ByLayer
62
256
370
-1
100
AcDbLine
10
61.3447367026
20
-99.9609760782
11
61.7052638457
21
-100.511727869
0
LINE
5
240
100
AcDbEntity
8
0
6
ByLayer
62
256
370
-1
100
AcDbLine
10
61.3447367026
20
-99.9609760782
11
61.7052638457
21
-100.511727869
0
LINE
5
241
100
AcDbEntity
8
0
6
ByLayer
62
256
370
-1
100
AcDbLine
10
60.6442547884
20
-98.8940791335
11
61.0168370073
21
-99.461053988
0
LINE
5
242
100
AcDbEntity
8
0
6
ByLayer
62
256
370
-1
100
AcDbLine
10
98.8474126766
20
-118.200555844
11
99.9312106647
21
-118.191199416
0
ARC
5
243
100
AcDbEntity
8
0
6
ByBlock
62
256
370
-1
100
AcDbCircle
10
99.6915158197
20
-138.150337834
40
19.9605776476
100
AcDbArc
50
263.959107903
51
89.3119521228
0
ARC
5
244
100
AcDbEntity
8
0
6
ByBlock
62
256
370
-1
100
AcDbCircle
10
99.83246524
20
136.354469195
40
20.032649995
100
AcDbArc
50
270
51
89.7175751088
0
LINE
5
245
100
AcDbEntity
8
0
6
ByLayer
62
256
370
-1
100
AcDbLine
10
98.6188307766
20
116.230740169
11
97.1523073717
21
116.088470281
0
LINE
5
246
100
AcDbEntity
8
0
6
ByLayer
62
256
370
-1
100
AcDbLine
10
97.1523073717
20
116.088470281
11
95.6305711647
21
115.911310854
0
LINE
5
247
100
AcDbEntity
8
0
6
ByLayer
62
256
370
-1
100
AcDbLine
10
95.6305711647
20
115.911310854
11
94.3805954584
21
115.71441188
0
LINE
5
248
100
AcDbEntity
8
0
6
ByLayer
62
256
370
-1
100
AcDbLine
10
93.6258535045
20
115.578178222
11
92.4616360119
21
115.339848053
0
LINE
5
249
100
AcDbEntity
8
0
6
ByLayer
62
256
370
-1
100
AcDbLine
10
94.3805954584
20
115.71441188
11
93.6258535045
21
115.578178222
0
LINE
5
24A
100
AcDbEntity
8
0
6
ByLayer
62
256
370
-1
100
AcDbLine
10
92.4616360119
20
115.339848053
11
90.9893229587
21
114.933856144
0
LINE
5
24B
100
AcDbEntity
8
0
6
ByLayer
62
256
370
-1
100
AcDbLine
10
90.9893229587
20
114.933856144
11
90.1953227528
21
114.687563862
0
LINE
5
24C
100
AcDbEntity
8
0
6
ByLayer
62
256
370
-1
100
AcDbLine
10
90.1953227528
20
114.687563862
11
89.2536428443
21
114.344011703
0
LINE
5
24D
100
AcDbEntity
8
0
6
ByLayer
62
256
370
-1
100
AcDbLine
10
89.2536428443
20
114.344011703
11
88.5723082623
21
114.077136813
0
LINE
5
24E
100
AcDbEntity
8
0
6
ByLayer
62
256
370
-1
100
AcDbLine
10
88.5723082623
20
114.077136813
11
87.3936690457
21
113.582189686
0
LINE
5
24F
100
AcDbEntity
8
0
6
ByLayer
62
256
370
-1
100
AcDbLine
10
87.3936690457
20
113.582189686
11
86.1512280819
21
113.001488992
0
LINE
5
250
100
AcDbEntity
8
0
6
ByLayer
62
256
370
-1
100
AcDbLine
10
86.1512280819
20
113.001488992
11
85.1889210387
21
112.52971949
0
LINE
5
251
100
AcDbEntity
8
0
6
ByLayer
62
256
370
-1
100
AcDbLine
10
85.1889210387
20
112.52971949
11
84.1380438609
21
111.992053651
0
LINE
5
252
100
AcDbEntity
8
0
6
ByLayer
62
256
370
-1
100
AcDbLine
10
84.138043861
20
111.992053651
11
82.9939979933
21
111.384075976
0
LINE
5
253
100
AcDbEntity
8
0
6
ByLayer
62
256
370
-1
100
AcDbLine
10
82.9939979933
20
111.384075976
11
81.7531836607
21
110.702194635
0
LINE
5
254
100
AcDbEntity
8
0
6
ByLayer
62
256
370
-1
100
AcDbLine
10
81.7531836607
20
110.702194635
11
80.4127721652
21
109.943606983
0
LINE
5
255
100
AcDbEntity
8
0
6
ByLayer
62
256
370
-1
100
AcDbLine
10
80.4127721652
20
109.943606983
11
78.9704938777
21
109.106228404
0
LINE
5
256
100
AcDbEntity
8
0
6
ByLayer
62
256
370
-1
100
AcDbLine
10
78.9704938777
20
109.106228404
11
77.7328801228
21
108.371661587
0
LINE
5
257
100
AcDbEntity
8
0
6
ByLayer
62
256
370
-1
100
AcDbLine
10
77.7328801228
20
108.371661587
11
75.5424181236
21
106.992627341
0
LINE
5
258
100
AcDbEntity
8
0
6
ByLayer
62
256
370
-1
100
AcDbLine
10
75.5424181236
20
106.992627341
11
73.68672808
21
105.708439038
0
LINE
5
259
100
AcDbEntity
8
0
6
ByLayer
62
256
370
-1
100
AcDbLine
10
73.68672808
20
105.708439038
11
71.8639607455
21
104.327550346
0
LINE
5
25A
100
AcDbEntity
8
0
6
ByLayer
62
256
370
-1
100
AcDbLine
10
71.8639607455
20
104.327550346
11
70.0724391863
21
102.846725617
0
LINE
5
25B
100
AcDbEntity
8
0
6
ByLayer
62
256
370
-1
100
AcDbLine
10
70.0724391863
20
102.846725617
11
68.311312122
21
101.262722016
0
LINE
5
25C
100
AcDbEntity
8
0
6
ByLayer
62
256
370
-1
100
AcDbLine
10
68.311312122
20
101.262722016
11
66.5805133787
21
99.5724050344
0
LINE
5
25D
100
AcDbEntity
8
0
6
ByLayer
62
256
370
-1
100
AcDbLine
10
66.5805133787
20
99.5724050344
11
64.8807029659
21
97.7728473956
0
LINE
5
25E
100
AcDbEntity
8
0
6
ByLayer
62
256
370
-1
100
AcDbLine
10
64.8807029659
20
97.7728473956
11
63.2131948204
21
95.8614095021
0
LINE
5
25F
100
AcDbEntity
8
0
6
ByLayer
62
256
370
-1
100
AcDbLine
10
63.2131948204
20
95.8614095021
11
61.5798761596
21
93.8358008811
0
LINE
5
260
100
AcDbEntity
8
0
6
ByLayer
62
256
370
-1
100
AcDbLine
10
61.5798761596
20
93.8358008811
11
59.9831229597
21
91.6941232259
0
LINE
5
261
100
AcDbEntity
8
0
6
ByLayer
62
256
370
-1
100
AcDbLine
10
59.9831229597
20
91.6941232259
11
58.4257154263
21
89.4348964779
0
LINE
5
262
100
AcDbEntity
8
0
6
ByLayer
62
256
370
-1
100
AcDbLine
10
58.4257154263
20
89.4348964779
11
56.9107565629
21
87.0570699717
0
LINE
5
263
100
AcDbEntity
8
0
6
ByLayer
62
256
370
-1
100
AcDbLine
10
56.9107565629
20
87.0570699717
11
55.4415961509
21
84.5600209836
0
LINE
5
264
100
AcDbEntity
8
0
6
ByLayer
62
256
370
-1
100
AcDbLine
10
55.4415961509
20
84.5600209836
11
54.0217617109
21
81.943543122
0
LINE
5
265
100
AcDbEntity
8
0
6
ByLayer
62
256
370
-1
100
AcDbLine
10
54.0217617109
20
81.943543122
11
52.6548973512
21
79.2078269298
0
LINE
5
266
100
AcDbEntity
8
0
6
ByLayer
62
256
370
-1
100
AcDbLine
10
52.6548973512
20
79.2078269298
11
51.3447108642
21
76.3534348791
0
LINE
5
267
100
AcDbEntity
8
0
6
ByLayer
62
256
370
-1
100
AcDbLine
10
51.3447108642
20
76.3534348791
11
50.0949290009
21
73.3812726758
0
LINE
5
268
100
AcDbEntity
8
0
6
ByLayer
62
256
370
-1
100
AcDbLine
10
50.0949290009
20
73.3812726758
11
48.9092605402
21
70.292558494
0
LINE
5
269
100
AcDbEntity
8
0
6
ByLayer
62
256
370
-1
100
AcDbLine
10
48.9092605402
20
70.292558494
11
47.7913665561
21
67.0887914594
0
LINE
5
26A
100
AcDbEntity
8
0
6
ByLayer
62
256
370
-1
100
AcDbLine
10
47.7913665561
20
67.0887914594
11
46.7448371634
21
63.7717204113
0
LINE
5
26B
100
AcDbEntity
8
0
6
ByLayer
62
256
370
-1
100
AcDbLine
10
46.7448371634
20
63.7717204113
11
45.77317396
21
60.3433137091
0
LINE
5
26C
100
AcDbEntity
8
0
6
ByLayer
62
256
370
-1
100
AcDbLine
10
45.77317396
20
60.3433137091
11
44.8797773836
21
56.8057306429
0
LINE
5
26D
100
AcDbEntity
8
0
6
ByLayer
62
256
370
-1
100
AcDbLine
10
44.8797773836
20
56.8057306429
11
44.0679382202
21
53.1612947769
0
LINE
5
26E
100
AcDbEntity
8
0
6
ByLayer
62
256
370
-1
100
AcDbLine
10
44.0679382202
20
53.1612947769
11
43.3408325757
21
49.4124694914
0
LINE
5
26F
100
AcDbEntity
8
0
6
ByLayer
62
256
370
-1
100
AcDbLine
10
42.7015196528
20
45.5618357144
11
42.0813483282
21
41.0965985372
0
LINE
5
270
100
AcDbEntity
8
0
6
ByLayer
62
256
370
-1
100
AcDbLine
10
43.3408325757
20
49.4124694914
11
42.7015196528
21
45.5618357144
0
LINE
5
271
100
AcDbEntity
8
0
6
ByLayer
62
256
370
-1
100
AcDbLine
10
41.7420354608
20
38.0749377568
11
41.339188665
21
33.4262515875
0
LINE
5
272
100
AcDbEntity
8
0
6
ByLayer
62
256
370
-1
100
AcDbLine
10
41.339188665
20
33.4262515875
11
41.0793365787
21
29.1958898052
0
LINE
5
273
100
AcDbEntity
8
0
6
ByLayer
62
256
370
-1
100
AcDbLine
10
41.339188665
20
33.4262515875
11
41.0793365787
21
29.1958898052
0
LINE
5
274
100
AcDbEntity
8
0
6
ByLayer
62
256
370
-1
100
AcDbLine
10
41.0793365787
20
29.1958898052
11
40.9208750429
21
24.8777618592
0
LINE
5
275
100
AcDbEntity
8
0
6
ByLayer
62
256
370
-1
100
AcDbLine
10
40.9208750429
20
24.8777618592
11
40.8602808105
21
19.9970967744
0
LINE
5
276
100
AcDbEntity
8
0
6
ByLayer
62
256
370
-1
100
AcDbLine
10
59.9193449692
20
-97.7940046276
11
60.2846005949
21
-98.3478032333
0
LINE
5
277
100
AcDbEntity
8
0
6
ByLayer
62
256
370
-1
100
AcDbLine
10
60.2846005949
20
-98.3478032333
11
60.6442547884
21
-98.8940791335
0
LINE
5
278
100
AcDbEntity
8
0
6
ByLayer
62
256
370
-1
100
AcDbLine
10
59.5490069225
20
-97.2334770775
11
59.9193449692
21
-97.7940046276
0
LINE
5
279
100
AcDbEntity
8
0
6
ByLayer
62
256
370
-1
100
AcDbLine
10
59.1741130841
20
-96.6670269986
11
59.5490069225
21
-97.2334770775
0
LINE
5
27A
100
AcDbEntity
8
0
6
ByLayer
62
256
370
-1
100
AcDbLine
10
58.7951955413
20
-96.0954700724
11
59.1741130841
21
-96.6670269986
0
LINE
5
27B
100
AcDbEntity
8
0
6
ByLayer
62
256
370
-1
100
AcDbLine
10
58.0274338519
20
-94.9403274983
11
58.412789953
21
-95.5196283195
0
LINE
5
27C
100
AcDbEntity
8
0
6
ByLayer
62
256
370
-1
100
AcDbLine
10
58.412789953
20
-95.5196283195
11
58.7951955413
21
-96.0954700724
0
LINE
5
27D
100
AcDbEntity
8
0
6
ByLayer
62
256
370
-1
100
AcDbLine
10
57.6396650626
20
-94.3583947167
11
58.0274338519
21
-94.9403274983
0
LINE
5
27E
100
AcDbEntity
8
0
6
ByLayer
62
256
370
-1
100
AcDbLine
10
57.2500201756
20
-93.7746561613
11
57.6396650626
21
-94.3583947167
0
LINE
5
27F
100
AcDbEntity
8
0
6
ByLayer
62
256
370
-1
100
AcDbLine
10
56.8590330191
20
-93.1899348594
11
57.2500201756
21
-93.7746561613
0
LINE
5
280
100
AcDbEntity
8
0
6
ByLayer
62
256
370
-1
100
AcDbLine
10
56.467233073
20
-92.605048393
11
56.8590330191
21
-93.1899348594
0
LINE
5
281
100
AcDbEntity
8
0
6
ByLayer
62
256
370
-1
100
AcDbLine
10
55.6188566763
20
-91.3283025046
11
56.2491106179
21
-92.2817551721
0
LINE
5
282
100
AcDbEntity
8
0
6
ByLayer
62
256
370
-1
100
AcDbLine
10
55.1564124212
20
-90.6058358952
11
55.6188566763
21
-91.3283025046
0
LINE
5
283
100
AcDbEntity
8
0
6
ByLayer
62
256
370
-1
100
AcDbLine
10
54.6983568289
20
-89.8666987697
11
55.1564124212
21
-90.6058358952
0
LINE
5
284
100
AcDbEntity
8
0
6
ByLayer
62
256
370
-1
100
AcDbLine
10
54.2447872431
20
-89.1105935212
11
54.6983568289
21
-89.8666987697
0
LINE
5
285
100
AcDbEntity
8
0
6
ByLayer
62
256
370
-1
100
AcDbLine
10
53.7958147678
20
-88.3372323485
11
54.2447872431
21
-89.1105935212
0
LINE
5
286
100
AcDbEntity
8
0
6
ByLayer
62
256
370
-1
100
AcDbLine
10
53.3515634936
20
-87.546337828
11
53.7958147678
21
-88.3372323485
0
LINE
5
287
100
AcDbEntity
8
0
6
ByLayer
62
256
370
-1
100
AcDbLine
10
52.9121696451
20
-86.7376433097
11
53.3515634936
21
-87.546337828
0
LINE
5
288
100
AcDbEntity
8
0
6
ByLayer
62
256
370
-1
100
AcDbLine
10
52.4777807802
20
-85.9108933497
11
52.9121696451
21
-86.7376433097
0
LINE
5
289
100
AcDbEntity
8
0
6
ByLayer
62
256
370
-1
100
AcDbLine
10
52.0485549184
20
-85.0658439526
11
52.4777807802
21
-85.9108933497
0
LINE
5
28A
100
AcDbEntity
8
0
6
ByLayer
62
256
370
-1
100
AcDbLine
10
51.6246597323
20
-84.2022628586
11
52.0485549184
21
-85.0658439526
0
LINE
5
28B
100
AcDbEntity
8
0
6
ByLayer
62
256
370
-1
100
AcDbLine
10
51.2062716957
20
-83.3199296722
11
51.6246597323
21
-84.2022628586
0
LINE
5
28C
100
AcDbEntity
8
0
6
ByLayer
62
256
370
-1
100
AcDbLine
10
50.793575278
20
-82.4186359981
11
51.2062716957
21
-83.3199296722
0
LINE
5
28D
100
AcDbEntity
8
0
6
ByLayer
62
256
370
-1
100
AcDbLine
10
50.3867621302
20
-81.4981854679
11
50.793575278
21
-82.4186359981
0
LINE
5
28E
100
AcDbEntity
8
0
6
ByLayer
62
256
370
-1
100
AcDbLine
10
49.5915835128
20
-79.5990884966
11
49.9860303113
21
-80.5583937567
0
LINE
5
28F
100
AcDbEntity
8
0
6
ByLayer
62
256
370
-1
100
AcDbLine
10
49.9860303113
20
-80.5583937567
11
50.3867621302
21
-81.4981854679
0
LINE
5
290
100
AcDbEntity
8
0
6
ByLayer
62
256
370
-1
100
AcDbLine
10
49.2036303359
20
-78.6201091997
11
49.5915835128
21
-79.5990884966
0
LINE
5
291
100
AcDbEntity
8
0
6
ByLayer
62
256
370
-1
100
AcDbLine
10
48.8223835798
20
-77.6213071046
11
49.2036303359
21
-78.6201091997
0
LINE
5
292
100
AcDbEntity
8
0
6
ByLayer
62
256
370
-1
100
AcDbLine
10
48.4480595618
20
-76.6025449833
11
48.8223835798
21
-77.6213071046
0
LINE
5
293
100
AcDbEntity
8
0
6
ByLayer
62
256
370
-1
100
AcDbLine
10
48.0808774725
20
-75.5636969218
11
48.4480595618
21
-76.6025449833
0
LINE
5
294
100
AcDbEntity
8
0
6
ByLayer
62
256
370
-1
100
AcDbLine
10
47.2947734648
20
-73.1983716232
11
47.721058773
21
-74.5046480969
0
LINE
5
295
100
AcDbEntity
8
0
6
ByLayer
62
256
370
-1
100
AcDbLine
10
47.721058773
20
-74.5046480969
11
48.0808774725
21
-75.5636969218
0
LINE
5
296
100
AcDbEntity
8
0
6
ByLayer
62
256
370
-1
100
AcDbLine
10
46.6759604777
20
-71.2129435573
11
47.4401662399
21
-73.6530849458
0
LINE
5
297
100
AcDbEntity
8
0
6
ByLayer
62
256
370
-1
100
AcDbLine
10
46.3598948231
20
-70.0645198944
11
46.7524020658
21
-71.4291466959
0
LINE
5
298
100
AcDbEntity
8
0
6
ByLayer
62
256
370
-1
100
AcDbLine
10
46.0402556188
20
-68.9031117487
11
46.3598948231
21
-70.0645198944
0
LINE
5
299
100
AcDbEntity
8
0
6
ByLayer
62
256
370
-1
100
AcDbLine
10
45.7293261239
20
-67.7210294882
11
46.0402556188
21
-68.9031117487
0
LINE
5
29A
100
AcDbEntity
8
0
6
ByLayer
62
256
370
-1
100
AcDbLine
10
45.4273293769
20
-66.5182270012
11
45.7293261239
21
-67.7210294882
0
LINE
5
29B
100
AcDbEntity
8
0
6
ByLayer
62
256
370
-1
100
AcDbLine
10
45.1344870183
20
-65.2946666144
11
45.4273293769
21
-66.5182270012
0
LINE
5
29C
100
AcDbEntity
8
0
6
ByLayer
62
256
370
-1
100
AcDbLine
10
44.8510189682
20
-64.0503186782
11
45.1344870183
21
-65.2946666144
0
LINE
5
29D
100
AcDbEntity
8
0
6
ByLayer
62
256
370
-1
100
AcDbLine
10
44.2707482853
20
-61.2930519737
11
44.5771431462
21
-62.7851612007
0
LINE
5
29E
100
AcDbEntity
8
0
6
ByLayer
62
256
370
-1
100
AcDbLine
10
44.5771431462
20
-62.7851612007
11
44.8510189682
21
-64.0503186782
0
LINE
5
29F
100
AcDbEntity
8
0
6
ByLayer
62
256
370
-1
100
AcDbLine
10
44.0145598512
20
-60.0906243602
11
44.2707482853
21
-61.2930519737
0
LINE
5
2A0
100
AcDbEntity
8
0
6
ByLayer
62
256
370
-1
100
AcDbLine
10
43.8752164452
20
-59.3612670722
11
44.0145598512
21
-60.0906243602
0
LINE
5
2A1
100
AcDbEntity
8
0
6
ByLayer
62
256
370
-1
100
AcDbLine
10
43.7013577216
20
-58.35206488
11
43.8752164452
21
-59.3612670722
0
LINE
5
2A2
100
AcDbEntity
8
0
6
ByLayer
62
256
370
-1
100
AcDbLine
10
43.5030105803
20
-57.0834971917
11
43.7013577216
21
-58.35206488
0
LINE
5
2A3
100
AcDbEntity
8
0
6
ByLayer
62
256
370
-1
100
AcDbLine
10
43.2888658563
20
-55.5809052308
11
43.5030105803
21
-57.0834971917
0
LINE
5
2A4
100
AcDbEntity
8
0
6
ByLayer
62
256
370
-1
100
AcDbLine
10
43.0650824058
20
-53.8625957043
11
43.2888658563
21
-55.5809052308
0
LINE
5
2A5
100
AcDbEntity
8
0
6
ByLayer
62
256
370
-1
100
AcDbLine
10
42.8362974489
20
-51.9423359342
11
43.0650824058
21
-53.8625957043
0
LINE
5
2A6
100
AcDbEntity
8
0
6
ByLayer
62
256
370
-1
100
AcDbLine
10
42.6061934484
20
-49.8308593998
11
42.8362974489
21
-51.9423359342
0
LINE
5
2A7
100
AcDbEntity
8
0
6
ByLayer
62
256
370
-1
100
AcDbLine
10
42.1388396308
20
-44.9018036555
11
42.3778314773
21
-47.5368106308
0
LINE
5
2A8
100
AcDbEntity
8
0
6
ByLayer
62
256
370
-1
100
AcDbLine
10
42.1388396308
20
-44.9018036555
11
42.3778314773
21
-47.5368106308
0
LINE
5
2A9
100
AcDbEntity
8
0
6
ByLayer
62
256
370
-1
100
AcDbLine
10
42.3778314773
20
-47.5368106308
11
42.6061934484
21
-49.8308593998
0
LINE
5
2AA
100
AcDbEntity
8
0
6
ByLayer
62
256
370
-1
100
AcDbLine
10
89.5442020428
20
-117.870551375
11
89.9862292576
21
-118.087336127
0
LINE
5
2AB
100
AcDbEntity
8
0
6
ByLayer
62
256
370
-1
100
AcDbLine
10
89.9862292576
20
-118.087336127
11
90.6601268707
21
-118.151266275
0
ARC
5
2AC
100
AcDbEntity
8
0
6
ByBlock
62
256
370
-1
100
AcDbCircle
10
-8.00660729774
20
-856.721197756
40
706.655648121
100
AcDbArc
50
81.4059432109
51
107.675470095
0
ARC
5
2AD
100
AcDbEntity
8
0
6
ByBlock
62
256
370
-1
100
AcDbCircle
10
173.413486767
20
-721.188374261
40
880.695926306
100
AcDbArc
50
94.7861294242
51
121.003496066
0
ARC
5
2AE
100
AcDbEntity
8
0
6
ByLayer
62
256
370
-1
100
AcDbCircle
10
-124.419324617
20
-45.6310114194
40
177.393395779
100
AcDbArc
50
155.895889211
51
229.326570352
0
ARC
5
2AF
100
AcDbEntity
8
0
6
ByLayer
62
256
370
-1
100
AcDbCircle
10
-228.771947998
20
-168.22269255
40
16.4212007658
100
AcDbArc
50
226.695272362
51
292.208661376
0
ARC
5
2B0
100
AcDbEntity
8
0
6
ByLayer
62
256
370
-1
100
AcDbCircle
10
-272.623241512
20
20.7563117264
40
15
100
AcDbArc
50
120.447669881
51
156.173937807
0
INSERT
5
2B1
100
AcDbEntity
8
Perimeter
6
ByLayer
62
256
370
-1
100
AcDbBlockReference
2
Flat straight pot (short)
10
-62.8383293972
20
107.721763339
30
0
41
1
42
1
43
0
50
285.169
70
1
71
1
44
1
45
1
0
INSERT
5
2B2
100
AcDbEntity
8
Perimeter
6
ByLayer
62
256
370
-1
100
AcDbBlockReference
2
Flat straight pot (short)
10
-97.3711216062
20
96.7818348878
30
0
41
1
42
1
43
0
50
288.35218
70
1
71
1
44
1
45
1
0
INSERT
5
2B3
100
AcDbEntity
8
Perimeter
6
ByLayer
62
256
370
-1
100
AcDbBlockReference
2
Flat straight pot (short)
10
-119.035084148
20
89.2720329482
30
0
41
1
42
1
43
0
50
289.134696
70
1
71
1
44
1
45
1
0
INSERT
5
2B4
100
AcDbEntity
8
Perimeter
6
ByLayer
62
256
370
-1
100
AcDbBlockReference
2
Flat straight pot (short)
10
-140.712267966
20
81.3753414883
30
0
41
1
42
1
43
0
50
290.036903
70
1
71
1
44
1
45
1
0
INSERT
5
2B5
100
AcDbEntity
8
Perimeter
6
ByLayer
62
256
370
-1
100
AcDbBlockReference
2
Flat straight pot (short)
10
-163.38
20
72.2188
30
0
41
1
42
1
43
0
50
292.099
70
1
71
1
44
1
45
1
0
INSERT
5
2B6
100
AcDbEntity
8
Perimeter
6
ByLayer
62
256
370
-1
100
AcDbBlockReference
2
Flat straight pot (short)
10
-196.014400587
20
57.9786146966
30
0
41
1
42
1
43
0
50
295.161
70
1
71
1
44
1
45
1
0
INSERT
5
2B7
100
AcDbEntity
8
PCB
6
ByLayer
62
256
370
-1
100
AcDbBlockReference
2
PCB
10
-184.75725629
20
33.9590329357
30
0
41
1
42
1
43
0
50
283.0639
70
1
71
1
44
1
45
1
0
LINE
5
2B8
100
AcDbEntity
8
Annotations
6
ByLayer
62
256
370
-1
100
AcDbLine
10
-119.807676136
20
-158.631905868
11
-120.336649272
21
-159.480544437
0
LINE
5
2B9
100
AcDbEntity
8
Annotations
6
ByLayer
62
256
370
-1
100
AcDbLine
10
-119.807676136
20
-158.631905868
11
-120.336649272
21
-159.480544437
0
INSERT
5
2BA
100
AcDbEntity
8
Perimeter
6
ByLayer
62
256
370
-1
100
AcDbBlockReference
2
Trackball
10
-217.665325206
20
4.66542741852
30
0
41
1
42
1
43
0
50
208.3114
70
1
71
1
44
1
45
1
0
INSERT
5
2BB
100
AcDbEntity
8
Perimeter
6
ByLayer
62
256
370
-1
100
AcDbBlockReference
2
LED 3x Line
10
-114.989634999
20
-62.7505303946
30
0
41
1
42
1
43
0
50
205.161
70
1
71
1
44
1
45
1
0
INSERT
5
2BC
100
AcDbEntity
8
Perimeter
6
ByLayer
62
256
370
-1
100
AcDbBlockReference
2
LED 5x Cross
10
-25.3443383911
20
-30.574739703
30
0
41
1
42
1
43
0
50
195.1689
70
1
71
1
44
1
45
1
0
INSERT
5
2BD
100
AcDbEntity
8
Perimeter
6
ByLayer
62
256
370
-1
100
AcDbBlockReference
2
LED 5x Cross
10
-96.1858283414
20
-34.7905013019
30
0
41
1
42
1
43
0
50
202.099
70
1
71
1
44
0
45
0
0
INSERT
5
2BE
100
AcDbEntity
8
Perimeter
6
ByLayer
62
256
370
-1
100
AcDbBlockReference
2
LED 5x Cross
10
-45.6558254341
20
-59.114223884
30
0
41
1
42
1
43
0
50
198.3519
70
1
71
1
44
0
45
0
0
INSERT
5
2BF
100
AcDbEntity
8
Perimeter
6
ByLayer
62
256
370
-1
100
AcDbBlockReference
2
LED 5x Cross
10
-58.2499190822
20
-21.148597257
30
0
41
1
42
1
43
0
50
198.3519
70
1
71
1
44
0
45
0
0
LINE
5
2C0
100
AcDbEntity
8
Guides
6
ByLayer
62
256
370
-1
100
AcDbLine
10
-196.901747923
20
-90.2816040129
11
-149.801256999
21
-64.9085128581
0
MTEXT
5
2C1
100
AcDbEntity
8
Annotations
6
ByLayer
62
256
370
-1
100
AcDbMText
10
-341.404231674
20
5.19336504554
30
0
40
5
41
56.5277803492
71
5
72
1
1
Master Vol/Tone\PTrackball
7
standard
210
0
220
0
230
1
50
0.1749
73
2
44
1
0
MTEXT
5
2C2
100
AcDbEntity
8
Annotations
6
ByLayer
62
256
370
-1
100
AcDbMText
10
-195.521479214
20
109.277906169
30
0
40
5
41
18.3333333333
71
5
72
1
1
Tone\PRange\PSlider
7
standard
210
0
220
0
230
1
50
0.1649
73
2
44
1
0
MTEXT
5
2C3
100
AcDbEntity
8
Annotations
6
ByLayer
62
256
370
-1
100
AcDbMText
10
-125.682037362
20
131.543964982
30
0
40
5
41
29.4444444444
71
5
72
1
1
Coil\PVol/Tone\PSlider
7
standard
210
0
220
0
230
1
50
0.8349
73
2
44
1
0
MTEXT
5
2C4
100
AcDbEntity
8
Annotations
6
ByLayer
62
256
370
-1
100
AcDbMText
10
-51.3074053297
20
151.15383081
30
0
40
5
41
29.4444444444
71
5
72
1
1
Master\PVol/Tone\PSlider
7
standard
210
0
220
0
230
1
50
0.9199
73
2
44
1
0
MTEXT
5
2C5
100
AcDbEntity
8
Annotations
6
ByLayer
62
256
370
-1
100
AcDbMText
10
-348.66688356
20
-92.1964266239
30
0
40
5
41
70.5555555556
71
5
72
1
1
Vibrato/Tremolo/Aux\PPushbuttons &\PIndicators
7
standard
210
0
220
0
230
1
50
359.9699
73
2
44
1
0
LINE
5
2C6
100
AcDbEntity
8
Annotations
6
ByLayer
62
256
370
-1
100
AcDbLine
10
-317.672199366
20
-90.433915869
11
-179.897772678
21
-50.1925128387
0
LINE
5
2C7
100
AcDbEntity
8
Annotations
6
ByLayer
62
256
370
-1
100
AcDbLine
10
-163.289449036
20
-53.9919099629
11
-317.672199366
21
-90.433915869
0
LINE
5
2C8
100
AcDbEntity
8
Annotations
6
ByLayer
62
256
370
-1
100
AcDbLine
10
-153.30983206
20
-72.9586047548
11
-317.672199366
21
-90.433915869
0
LINE
5
2C9
100
AcDbEntity
8
Annotations
6
ByLayer
62
256
370
-1
100
AcDbLine
10
-169.470855647
20
-69.1163447078
11
-317.672199366
21
-90.433915869
0
LINE
5
2CA
100
AcDbEntity
8
Annotations
6
ByLayer
62
256
370
-1
100
AcDbLine
10
-318.363981885
20
4.09699211678
11
-217.665325206
21
4.66542741852
0
LINE
5
2CB
100
AcDbEntity
8
Annotations
6
ByLayer
62
256
370
-1
100
AcDbLine
10
-51.3674896821
20
138.055441999
11
-51.4919643417
21
110.919966198
0
LINE
5
2CC
100
AcDbEntity
8
Annotations
6
ByLayer
62
256
370
-1
100
AcDbLine
10
-195.632552696
20
96.2659806475
11
-184.74773627
21
62.8480052306
0
LINE
5
2CD
100
AcDbEntity
8
Annotations
6
ByLayer
62
256
370
-1
100
AcDbLine
10
-127.060729897
20
118.402956942
11
-128.637631348
21
85.4508225456
0
LINE
5
2CE
100
AcDbEntity
8
Annotations
6
ByLayer
62
256
370
-1
100
AcDbLine
10
-127.060729897
20
118.402956942
11
-151.707507845
21
76.5919899707
0
LINE
5
2CF
100
AcDbEntity
8
Annotations
6
ByLayer
62
256
370
-1
100
AcDbLine
10
-127.060729897
20
118.402956942
11
-87.3882492297
21
100.088271609
0
LINE
5
2D0
100
AcDbEntity
8
Annotations
6
ByLayer
62
256
370
-1
100
AcDbLine
10
-127.060729897
20
118.402956942
11
-110.849671927
21
92.1120383507
0
LINE
5
2D1
100
AcDbEntity
8
Annotations
6
ByLayer
62
256
370
-1
100
AcDbLine
10
-296.357479073
20
-146.466031905
11
-214.540873292
21
-105.548071706
0
MTEXT
5
2D2
100
AcDbEntity
8
Annotations
6
ByLayer
62
256
370
-1
100
AcDbMText
10
-318.298312288
20
-144.288365723
30
0
40
5
41
42.7777792892
71
5
72
1
1
Style/Preset\PSelectors
7
standard
210
0
220
0
230
1
50
0.6149
73
2
44
1
0
MTEXT
5
2D3
100
AcDbEntity
8
Annotations
6
ByLayer
62
256
370
-1
100
AcDbMText
10
-294.219182783
20
-169.614075819
30
0
40
5
41
40.5555606984
71
5
72
1
1
LCD Control\PPushbuttons
7
standard
210
0
220
0
230
1
50
0.3619
73
2
44
1
0
LINE
5
2D4
100
AcDbEntity
8
Annotations
6
ByLayer
62
256
370
-1
100
AcDbLine
10
-179.755286316
20
-104.189180775
11
-274.115630897
21
-169.439114464
0
LINE
5
2D5
100
AcDbEntity
8
Annotations
6
ByLayer
62
256
370
-1
100
AcDbLine
10
-274.115630897
20
-169.439114464
11
-162.823577873
21
-101.883264645
0
MTEXT
5
2D6
100
AcDbEntity
8
Annotations
6
ByLayer
62
256
370
-1
100
AcDbMText
10
-163.61473121
20
-191.769792906
30
0
40
5
41
38.1944470159
71
5
72
1
1
LCD Display
7
standard
210
0
220
0
230
1
50
359.9629
73
2
44
1
0
LINE
5
2D7
100
AcDbEntity
8
Annotations
6
ByLayer
62
256
370
-1
100
AcDbLine
10
-169.026525529
20
-186.035484073
11
-155.575274148
21
-125.563911739
0
MTEXT
5
2D8
100
AcDbEntity
8
Annotations
6
ByLayer
62
256
370
-1
100
AcDbMText
10
-93.0358668456
20
-188.286507945
30
0
40
5
41
38.1944444444
71
5
72
1
1
Tone Range\PIndicator
7
standard
210
0
220
0
230
1
50
1.0599
73
2
44
1
0
LINE
5
2D9
100
AcDbEntity
8
Annotations
6
ByLayer
62
256
370
-1
100
AcDbLine
10
-110.212003734
20
-75.7647049377
11
-95.7399874633
21
-180.810157047
0
MTEXT
5
2DA
100
AcDbEntity
8
Annotations
6
ByLayer
62
256
370
-1
100
AcDbMText
10
-32.9323814212
20
-185.958610611
30
0
40
5
41
44.8611111111
71
5
72
1
1
Coil Vol/Tone\PIndicator
7
standard
210
0
220
0
230
1
50
0.0959
73
2
44
1
0
LINE
5
2DB
100
AcDbEntity
8
Annotations
6
ByLayer
62
256
370
-1
100
AcDbLine
10
-74.9770986159
20
-84.8971455096
11
-43.3713678147
21
-176.484555203
0
LINE
5
2DC
100
AcDbEntity
8
Annotations
6
ByLayer
62
256
370
-1
100
AcDbLine
10
-43.3713678147
20
-176.484555203
11
-66.4412443119
21
-28.3759480915
0
LINE
5
2DD
100
AcDbEntity
8
Annotations
6
ByLayer
62
256
370
-1
100
AcDbLine
10
-41.5257776949
20
-73.1315084961
11
-43.3713678147
21
-176.484555203
0
LINE
5
2DE
100
AcDbEntity
8
Annotations
6
ByLayer
62
256
370
-1
100
AcDbLine
10
-43.3713678147
20
-176.484555203
11
-103.122347942
21
-42.9099702848
0
INSERT
5
2DF
100
AcDbEntity
8
Perimeter
6
ByLayer
62
256
370
-1
100
AcDbBlockReference
2
LED 5x Cross
10
-81.1375046572
20
-71.8519091852
30
0
41
1
42
1
43
0
50
202.099
70
1
71
1
44
0
45
0
0
MTEXT
5
2E0
100
AcDbEntity
8
Annotations
6
ByLayer
62
256
370
-1
100
AcDbMText
10
39.4830769816
20
-181.575938343
30
0
40
5
41
56.5277803492
71
5
72
1
1
Master Vol/Tone\PIndicator
7
standard
210
0
220
0
230
1
50
0.2069
73
2
44
1
0
LINE
5
2E1
100
AcDbEntity
8
Annotations
6
ByLayer
62
256
370
-1
100
AcDbLine
10
34.2443479255
20
-169.869989052
11
-20.6103220329
21
-43.8332200981
0
CIRCLE
5
2E2
100
AcDbEntity
8
0
6
ByLayer
62
256
370
-1
100
AcDbCircle
10
-296.831647552
20
-396.897236859
40
1.5
0
CIRCLE
5
2E3
100
AcDbEntity
8
0
6
ByLayer
62
256
370
-1
100
AcDbCircle
10
-221.831647552
20
-396.897236859
40
1.5
0
CIRCLE
5
2E4
100
AcDbEntity
8
0
6
ByLayer
62
256
370
-1
100
AcDbCircle
10
-221.831647552
20
-365.897236859
40
1.5
0
CIRCLE
5
2E5
100
AcDbEntity
8
0
6
ByLayer
62
256
370
-1
100
AcDbCircle
10
-296.832
20
-365.897
40
1.5
0
LINE
5
2E6
100
AcDbEntity
8
Encomberment
6
ByLayer
62
256
370
-1
100
AcDbLine
10
-219.332
20
-363.397
11
-299.332
21
-363.397
0
LINE
5
2E7
100
AcDbEntity
8
Encomberment
6
ByLayer
62
256
370
-1
100
AcDbLine
10
-299.332
20
-399.397
11
-219.332
21
-399.397
0
LINE
5
2E8
100
AcDbEntity
8
Encomberment
6
ByLayer
62
256
370
-1
100
AcDbLine
10
-219.332
20
-399.397
11
-219.332
21
-363.397
0
LINE
5
2E9
100
AcDbEntity
8
Encomberment
6
ByLayer
62
256
370
-1
100
AcDbLine
10
-299.332
20
-363.397
11
-299.332
21
-399.397
0
LINE
5
2EA
100
AcDbEntity
8
0
6
ByLayer
62
256
370
-1
100
AcDbLine
10
-294.232
20
-368.647
11
-224.432
21
-368.647
0
LINE
5
2EB
100
AcDbEntity
8
0
6
ByLayer
62
256
370
-1
100
AcDbLine
10
-224.432
20
-368.647
11
-224.432
21
-395.147
0
LINE
5
2EC
100
AcDbEntity
8
0
6
ByLayer
62
256
370
-1
100
AcDbLine
10
-224.432
20
-395.147
11
-294.232
21
-395.147
0
LINE
5
2ED
100
AcDbEntity
8
0
6
ByLayer
62
256
370
-1
100
AcDbLine
10
-294.232
20
-395.147
11
-294.232
21
-368.647
0
MTEXT
5
2EE
100
AcDbEntity
8
0
6
ByLayer
62
256
370
-1
100
AcDbMText
10
-259.332
20
-381.897
30
0
40
5
41
28.75
71
5
72
1
1
LCD 16x2
7

210
0
220
0
230
1
50
0
73
2
44
1
0
INSERT
5
2EF
100
AcDbEntity
8
0
6
ByLayer
62
256
370
-1
100
AcDbBlockReference
2
Pushbutton (non latching)
10
-267.332
20
-403.147
30
0
41
1
42
1
43
0
50
0
70
1
71
1
44
1
45
1
0
INSERT
5
2F0
100
AcDbEntity
8
0
6
ByLayer
62
256
370
-1
100
AcDbBlockReference
2
Pushbutton (non latching)
10
-251.332
20
-403.147
30
0
41
1
42
1
43
0
50
0
70
1
71
1
44
1
45
1
0
ENDSEC
0
SECTION
2
OBJECTS
0
DICTIONARY
5
C
330
0
100
AcDbDictionary
281
1
3
ACAD_GROUP
350
D
0
DICTIONARY
5
D
330
C
100
AcDbDictionary
281
1
0
ENDSEC
0
EOF
