G04 MADE WITH FRITZING*
G04 WWW.FRITZING.ORG*
G04 DOUBLE SIDED*
G04 HOLES PLATED*
G04 CONTOUR ON CENTER OF CONTOUR VECTOR*
%ASAXBY*%
%FSLAX23Y23*%
%MOIN*%
%OFA0B0*%
%SFA1.0B1.0*%
%ADD10C,0.090551*%
%ADD11R,0.090551X0.090551*%
%ADD12C,0.024000*%
%LNCOPPER1*%
G90*
G70*
G54D10*
X6982Y1143D03*
X6982Y1443D03*
X7082Y1143D03*
X7082Y1443D03*
X7182Y1143D03*
X7182Y1443D03*
X7282Y1143D03*
X7282Y1443D03*
X7382Y1143D03*
X7382Y1443D03*
X7482Y1143D03*
X7482Y1443D03*
X7582Y1143D03*
X7582Y1443D03*
X7682Y1143D03*
X7682Y1443D03*
X6032Y1143D03*
X6032Y1443D03*
X6132Y1143D03*
X6132Y1443D03*
X6232Y1143D03*
X6232Y1443D03*
X6332Y1143D03*
X6332Y1443D03*
X6432Y1143D03*
X6432Y1443D03*
X6532Y1143D03*
X6532Y1443D03*
X6632Y1143D03*
X6632Y1443D03*
X6732Y1143D03*
X6732Y1443D03*
X5082Y1143D03*
X5082Y1443D03*
X5182Y1143D03*
X5182Y1443D03*
X5282Y1143D03*
X5282Y1443D03*
X5382Y1143D03*
X5382Y1443D03*
X5482Y1143D03*
X5482Y1443D03*
X5582Y1143D03*
X5582Y1443D03*
X5682Y1143D03*
X5682Y1443D03*
X5782Y1143D03*
X5782Y1443D03*
X4132Y1143D03*
X4132Y1443D03*
X4232Y1143D03*
X4232Y1443D03*
X4332Y1143D03*
X4332Y1443D03*
X4432Y1143D03*
X4432Y1443D03*
X4532Y1143D03*
X4532Y1443D03*
X4632Y1143D03*
X4632Y1443D03*
X4732Y1143D03*
X4732Y1443D03*
X4832Y1143D03*
X4832Y1443D03*
X2232Y1143D03*
X2232Y1443D03*
X2332Y1143D03*
X2332Y1443D03*
X2432Y1143D03*
X2432Y1443D03*
X2532Y1143D03*
X2532Y1443D03*
X2632Y1143D03*
X2632Y1443D03*
X2732Y1143D03*
X2732Y1443D03*
X2832Y1143D03*
X2832Y1443D03*
X2932Y1143D03*
X2932Y1443D03*
X1282Y1143D03*
X1282Y1443D03*
X1382Y1143D03*
X1382Y1443D03*
X1482Y1143D03*
X1482Y1443D03*
X1582Y1143D03*
X1582Y1443D03*
X1682Y1143D03*
X1682Y1443D03*
X1782Y1143D03*
X1782Y1443D03*
X1882Y1143D03*
X1882Y1443D03*
X1982Y1143D03*
X1982Y1443D03*
X332Y1143D03*
X332Y1443D03*
X432Y1143D03*
X432Y1443D03*
X532Y1143D03*
X532Y1443D03*
X632Y1143D03*
X632Y1443D03*
X732Y1143D03*
X732Y1443D03*
X832Y1143D03*
X832Y1443D03*
X932Y1143D03*
X932Y1443D03*
X1032Y1143D03*
X1032Y1443D03*
X6332Y893D03*
X6332Y593D03*
X4432Y593D03*
X6982Y693D03*
X6982Y993D03*
X3182Y693D03*
X3182Y993D03*
X632Y593D03*
X2532Y593D03*
X2532Y993D03*
X5382Y993D03*
X5382Y793D03*
X1582Y993D03*
X5082Y993D03*
X5082Y693D03*
X1282Y693D03*
X1282Y993D03*
X4432Y993D03*
X3482Y793D03*
X532Y993D03*
X532Y793D03*
X1382Y793D03*
X1382Y993D03*
X1582Y793D03*
X5382Y1593D03*
X5382Y2193D03*
X4632Y2193D03*
X4632Y1593D03*
X7382Y2193D03*
X7382Y1593D03*
X5582Y1593D03*
X5582Y2193D03*
X1782Y1593D03*
X1782Y2193D03*
X3582Y1593D03*
X3582Y2193D03*
X2832Y2093D03*
X2832Y1593D03*
X6332Y1593D03*
X6332Y1993D03*
X3482Y1993D03*
X3482Y1593D03*
X2532Y1993D03*
X2532Y1593D03*
X932Y1893D03*
X932Y1593D03*
X632Y993D03*
X3482Y993D03*
X7382Y993D03*
X7482Y993D03*
X6432Y993D03*
X6532Y993D03*
X5482Y993D03*
X5582Y993D03*
X4532Y993D03*
X4632Y993D03*
X3582Y993D03*
X3682Y993D03*
X2632Y993D03*
X2732Y993D03*
X1682Y993D03*
X1782Y993D03*
X732Y993D03*
X832Y993D03*
X1282Y1593D03*
X432Y1693D03*
X532Y1693D03*
X1032Y493D03*
X3882Y493D03*
X6732Y493D03*
X1982Y493D03*
X2932Y493D03*
X4832Y493D03*
X5782Y493D03*
X6732Y993D03*
X2932Y993D03*
X1982Y993D03*
X3882Y993D03*
X5782Y993D03*
X4832Y993D03*
X1032Y993D03*
X2232Y2593D03*
X4132Y2593D03*
X1282Y2593D03*
X3182Y2593D03*
X6032Y2593D03*
X5082Y2593D03*
X6982Y2593D03*
X332Y2593D03*
X6982Y1693D03*
X6032Y1693D03*
X2232Y1693D03*
X1282Y1693D03*
X3182Y1693D03*
X5082Y1693D03*
X4132Y1693D03*
X332Y1693D03*
X6732Y2493D03*
X2932Y2493D03*
X1982Y2493D03*
X3882Y2493D03*
X5782Y2493D03*
X4832Y2493D03*
X1132Y2493D03*
X6732Y1693D03*
X5782Y1693D03*
X4832Y1693D03*
X3882Y1693D03*
X2932Y1693D03*
X1982Y1693D03*
X1132Y1593D03*
X332Y1593D03*
X1382Y1693D03*
X1482Y1693D03*
X7082Y1693D03*
X7182Y1693D03*
X6132Y1693D03*
X6232Y1693D03*
X5182Y1693D03*
X5282Y1693D03*
X4232Y1693D03*
X4332Y1693D03*
X3282Y1693D03*
X3382Y1693D03*
X2332Y1693D03*
X2432Y1693D03*
X2232Y1593D03*
X7682Y1593D03*
X6982Y1593D03*
X6732Y1593D03*
X6032Y1593D03*
X5782Y1593D03*
X5082Y1593D03*
X4832Y1593D03*
X4132Y1593D03*
X3882Y1593D03*
X3182Y1593D03*
X2932Y1593D03*
X1982Y1593D03*
X1032Y1593D03*
X7682Y493D03*
X7682Y2493D03*
X432Y493D03*
X532Y493D03*
X632Y493D03*
X432Y2393D03*
X532Y2393D03*
X632Y2393D03*
X732Y2393D03*
X832Y2393D03*
X932Y2393D03*
X1032Y2393D03*
X3182Y1143D03*
X3182Y1443D03*
X3282Y1143D03*
X3282Y1443D03*
X3382Y1143D03*
X3382Y1443D03*
X3482Y1143D03*
X3482Y1443D03*
X3582Y1143D03*
X3582Y1443D03*
X3682Y1143D03*
X3682Y1443D03*
X3782Y1143D03*
X3782Y1443D03*
X3882Y1143D03*
X3882Y1443D03*
G54D11*
X6982Y1143D03*
X6032Y1143D03*
X5082Y1143D03*
X4132Y1143D03*
X2232Y1143D03*
X1282Y1143D03*
X332Y1143D03*
X3182Y1143D03*
G54D12*
X1382Y818D02*
X1382Y969D01*
D02*
X532Y818D02*
X532Y969D01*
D02*
X932Y1618D02*
X932Y1869D01*
D02*
X3482Y1618D02*
X3482Y1969D01*
D02*
X2532Y1618D02*
X2532Y1969D01*
D02*
X6332Y1618D02*
X6332Y1969D01*
D02*
X1782Y1618D02*
X1782Y2169D01*
D02*
X3582Y1618D02*
X3582Y2169D01*
D02*
X2832Y1618D02*
X2832Y2069D01*
D02*
X7382Y2169D02*
X7382Y1618D01*
D02*
X5582Y2169D02*
X5582Y1618D01*
D02*
X4632Y1618D02*
X4632Y2169D01*
D02*
X5382Y1618D02*
X5382Y2169D01*
D02*
X5782Y1718D02*
X5782Y2469D01*
D02*
X4832Y1718D02*
X4832Y2469D01*
D02*
X3882Y1718D02*
X3882Y2469D01*
D02*
X2932Y1718D02*
X2932Y2469D01*
D02*
X1982Y1718D02*
X1982Y2469D01*
D02*
X1135Y1695D02*
X1132Y2469D01*
D02*
X1132Y1618D02*
X1135Y1695D01*
D02*
X5082Y1718D02*
X5082Y2569D01*
D02*
X4132Y1718D02*
X4132Y2569D01*
D02*
X3182Y1718D02*
X3182Y2569D01*
D02*
X2232Y1718D02*
X2232Y2569D01*
D02*
X1282Y1718D02*
X1282Y2569D01*
D02*
X6732Y1718D02*
X6732Y2469D01*
D02*
X6982Y1718D02*
X6982Y2569D01*
D02*
X6032Y1718D02*
X6032Y2569D01*
D02*
X6732Y518D02*
X6732Y969D01*
D02*
X5782Y518D02*
X5782Y969D01*
D02*
X4832Y518D02*
X4832Y969D01*
D02*
X3882Y518D02*
X3882Y969D01*
D02*
X2932Y518D02*
X2932Y969D01*
D02*
X1982Y518D02*
X1982Y969D01*
D02*
X1032Y518D02*
X1032Y969D01*
D02*
X6982Y718D02*
X6982Y969D01*
D02*
X6332Y618D02*
X6332Y869D01*
D02*
X5382Y818D02*
X5382Y969D01*
D02*
X5082Y718D02*
X5082Y969D01*
D02*
X4432Y618D02*
X4432Y969D01*
D02*
X3482Y818D02*
X3482Y969D01*
D02*
X3182Y718D02*
X3182Y969D01*
D02*
X2532Y618D02*
X2532Y969D01*
D02*
X1582Y818D02*
X1582Y969D01*
D02*
X1282Y718D02*
X1282Y969D01*
D02*
X632Y618D02*
X632Y969D01*
G04 End of Copper1*
M02*