M48
;DRILL file {KiCad 5.0.0-rc2-unknown-da66005~65~ubuntu16.04.1} date Mon May 28 11:28:43 2018
;FORMAT={3:3/ absolute / metric / suppress leading zeros}
FMAT,2
METRIC,TZ
T1C1.016
%
G90
G05
M71
T1
X167640Y-116840
X170180Y-116840
X172720Y-116840
X175260Y-116840
X177800Y-116840
X180340Y-116840
X182880Y-116840
X185420Y-116840
X187960Y-116840
X190500Y-116840
X193040Y-116840
X195580Y-116840
X198120Y-116840
X200660Y-116840
X203200Y-116840
X205740Y-116840
X208280Y-116840
X210820Y-116840
X213360Y-116840
X215900Y-116840
X218440Y-116840
X220980Y-116840
X223520Y-116840
X226060Y-116840
X228600Y-116840
X104140Y-116840
X106680Y-116840
X109220Y-116840
X111760Y-116840
X114300Y-116840
X116840Y-116840
X119380Y-116840
X121920Y-116840
X124460Y-116840
X127000Y-116840
X129540Y-116840
X132080Y-116840
X134620Y-116840
X137160Y-116840
X139700Y-116840
X142240Y-116840
X144780Y-116840
X147320Y-116840
X149860Y-116840
X152400Y-116840
X154940Y-116840
X157480Y-116840
X160020Y-116840
X162560Y-116840
X165100Y-116840
X104140Y-81280
X106680Y-81280
X109220Y-81280
X111760Y-81280
X114300Y-81280
X116840Y-81280
X119380Y-81280
X121920Y-81280
X124460Y-81280
X127000Y-81280
X129540Y-81280
X132080Y-81280
X134620Y-81280
X137160Y-81280
X139700Y-81280
X142240Y-81280
X144780Y-81280
X147320Y-81280
X149860Y-81280
X152400Y-81280
X154940Y-81280
X157480Y-81280
X160020Y-81280
X162560Y-81280
X165100Y-81280
X167640Y-81280
X170180Y-81280
X172720Y-81280
X175260Y-81280
X177800Y-81280
X180340Y-81280
X182880Y-81280
X185420Y-81280
X187960Y-81280
X190500Y-81280
X193040Y-81280
X195580Y-81280
X198120Y-81280
X200660Y-81280
X203200Y-81280
X205740Y-81280
X208280Y-81280
X210820Y-81280
X213360Y-81280
X215900Y-81280
X218440Y-81280
X220980Y-81280
X223520Y-81280
X226060Y-81280
X228600Y-81280
T0
M30
