G04 #@! TF.GenerationSoftware,KiCad,Pcbnew,5.0.0-rc2-unknown-da66005~65~ubuntu16.04.1*
G04 #@! TF.CreationDate,2018-05-28T11:28:40+02:00*
G04 #@! TF.ProjectId,AD8113 Breakout LQFP 100,41443831313320427265616B6F757420,rev?*
G04 #@! TF.SameCoordinates,Original*
G04 #@! TF.FileFunction,Soldermask,Bot*
G04 #@! TF.FilePolarity,Negative*
%FSLAX46Y46*%
G04 Gerber Fmt 4.6, Leading zero omitted, Abs format (unit mm)*
G04 Created by KiCad (PCBNEW 5.0.0-rc2-unknown-da66005~65~ubuntu16.04.1) date Mon May 28 11:28:40 2018*
%MOMM*%
%LPD*%
G01*
G04 APERTURE LIST*
%ADD10R,1.879600X1.879600*%
%ADD11C,2.082800*%
G04 APERTURE END LIST*
D10*
G04 #@! TO.C,J1*
X167640000Y-116840000D03*
D11*
X170180000Y-116840000D03*
X172720000Y-116840000D03*
X175260000Y-116840000D03*
X177800000Y-116840000D03*
X180340000Y-116840000D03*
X182880000Y-116840000D03*
X185420000Y-116840000D03*
X187960000Y-116840000D03*
X190500000Y-116840000D03*
X193040000Y-116840000D03*
X195580000Y-116840000D03*
X198120000Y-116840000D03*
X200660000Y-116840000D03*
X203200000Y-116840000D03*
X205740000Y-116840000D03*
X208280000Y-116840000D03*
X210820000Y-116840000D03*
X213360000Y-116840000D03*
X215900000Y-116840000D03*
X218440000Y-116840000D03*
X220980000Y-116840000D03*
X223520000Y-116840000D03*
X226060000Y-116840000D03*
X228600000Y-116840000D03*
G04 #@! TD*
G04 #@! TO.C,J2*
X167640000Y-81280000D03*
X170180000Y-81280000D03*
X172720000Y-81280000D03*
X175260000Y-81280000D03*
X177800000Y-81280000D03*
X180340000Y-81280000D03*
X182880000Y-81280000D03*
X185420000Y-81280000D03*
X187960000Y-81280000D03*
X190500000Y-81280000D03*
X193040000Y-81280000D03*
X195580000Y-81280000D03*
X198120000Y-81280000D03*
X200660000Y-81280000D03*
X203200000Y-81280000D03*
X205740000Y-81280000D03*
X208280000Y-81280000D03*
X210820000Y-81280000D03*
X213360000Y-81280000D03*
X215900000Y-81280000D03*
X218440000Y-81280000D03*
X220980000Y-81280000D03*
X223520000Y-81280000D03*
X226060000Y-81280000D03*
D10*
X228600000Y-81280000D03*
G04 #@! TD*
G04 #@! TO.C,J3*
X165100000Y-81280000D03*
D11*
X162560000Y-81280000D03*
X160020000Y-81280000D03*
X157480000Y-81280000D03*
X154940000Y-81280000D03*
X152400000Y-81280000D03*
X149860000Y-81280000D03*
X147320000Y-81280000D03*
X144780000Y-81280000D03*
X142240000Y-81280000D03*
X139700000Y-81280000D03*
X137160000Y-81280000D03*
X134620000Y-81280000D03*
X132080000Y-81280000D03*
X129540000Y-81280000D03*
X127000000Y-81280000D03*
X124460000Y-81280000D03*
X121920000Y-81280000D03*
X119380000Y-81280000D03*
X116840000Y-81280000D03*
X114300000Y-81280000D03*
X111760000Y-81280000D03*
X109220000Y-81280000D03*
X106680000Y-81280000D03*
X104140000Y-81280000D03*
G04 #@! TD*
G04 #@! TO.C,J4*
X165100000Y-116840000D03*
X162560000Y-116840000D03*
X160020000Y-116840000D03*
X157480000Y-116840000D03*
X154940000Y-116840000D03*
X152400000Y-116840000D03*
X149860000Y-116840000D03*
X147320000Y-116840000D03*
X144780000Y-116840000D03*
X142240000Y-116840000D03*
X139700000Y-116840000D03*
X137160000Y-116840000D03*
X134620000Y-116840000D03*
X132080000Y-116840000D03*
X129540000Y-116840000D03*
X127000000Y-116840000D03*
X124460000Y-116840000D03*
X121920000Y-116840000D03*
X119380000Y-116840000D03*
X116840000Y-116840000D03*
X114300000Y-116840000D03*
X111760000Y-116840000D03*
X109220000Y-116840000D03*
X106680000Y-116840000D03*
D10*
X104140000Y-116840000D03*
G04 #@! TD*
M02*
