G04 #@! TF.GenerationSoftware,KiCad,Pcbnew,5.0.0-rc2-unknown-da66005~65~ubuntu16.04.1*
G04 #@! TF.CreationDate,2018-05-28T11:28:40+02:00*
G04 #@! TF.ProjectId,AD8113 Breakout LQFP 100,41443831313320427265616B6F757420,rev?*
G04 #@! TF.SameCoordinates,Original*
G04 #@! TF.FileFunction,Legend,Top*
G04 #@! TF.FilePolarity,Positive*
%FSLAX46Y46*%
G04 Gerber Fmt 4.6, Leading zero omitted, Abs format (unit mm)*
G04 Created by KiCad (PCBNEW 5.0.0-rc2-unknown-da66005~65~ubuntu16.04.1) date Mon May 28 11:28:40 2018*
%MOMM*%
%LPD*%
G01*
G04 APERTURE LIST*
%ADD10C,0.300000*%
%ADD11C,0.200000*%
%ADD12C,0.152400*%
%ADD13C,0.203200*%
G04 APERTURE END LIST*
D10*
X226098571Y-109675000D02*
X226098571Y-110389285D01*
X224598571Y-110389285D01*
X226241428Y-108175000D02*
X226170000Y-108317857D01*
X226027142Y-108460714D01*
X225812857Y-108675000D01*
X225741428Y-108817857D01*
X225741428Y-108960714D01*
X226098571Y-108889285D02*
X226027142Y-109032142D01*
X225884285Y-109175000D01*
X225598571Y-109246428D01*
X225098571Y-109246428D01*
X224812857Y-109175000D01*
X224670000Y-109032142D01*
X224598571Y-108889285D01*
X224598571Y-108603571D01*
X224670000Y-108460714D01*
X224812857Y-108317857D01*
X225098571Y-108246428D01*
X225598571Y-108246428D01*
X225884285Y-108317857D01*
X226027142Y-108460714D01*
X226098571Y-108603571D01*
X226098571Y-108889285D01*
X225312857Y-107103571D02*
X225312857Y-107603571D01*
X226098571Y-107603571D02*
X224598571Y-107603571D01*
X224598571Y-106889285D01*
X226098571Y-106317857D02*
X224598571Y-106317857D01*
X224598571Y-105746428D01*
X224670000Y-105603571D01*
X224741428Y-105532142D01*
X224884285Y-105460714D01*
X225098571Y-105460714D01*
X225241428Y-105532142D01*
X225312857Y-105603571D01*
X225384285Y-105746428D01*
X225384285Y-106317857D01*
X226098571Y-102889285D02*
X226098571Y-103746428D01*
X226098571Y-103317857D02*
X224598571Y-103317857D01*
X224812857Y-103460714D01*
X224955714Y-103603571D01*
X225027142Y-103746428D01*
X224598571Y-101960714D02*
X224598571Y-101817857D01*
X224670000Y-101675000D01*
X224741428Y-101603571D01*
X224884285Y-101532142D01*
X225170000Y-101460714D01*
X225527142Y-101460714D01*
X225812857Y-101532142D01*
X225955714Y-101603571D01*
X226027142Y-101675000D01*
X226098571Y-101817857D01*
X226098571Y-101960714D01*
X226027142Y-102103571D01*
X225955714Y-102175000D01*
X225812857Y-102246428D01*
X225527142Y-102317857D01*
X225170000Y-102317857D01*
X224884285Y-102246428D01*
X224741428Y-102175000D01*
X224670000Y-102103571D01*
X224598571Y-101960714D01*
X224598571Y-100532142D02*
X224598571Y-100389285D01*
X224670000Y-100246428D01*
X224741428Y-100175000D01*
X224884285Y-100103571D01*
X225170000Y-100032142D01*
X225527142Y-100032142D01*
X225812857Y-100103571D01*
X225955714Y-100175000D01*
X226027142Y-100246428D01*
X226098571Y-100389285D01*
X226098571Y-100532142D01*
X226027142Y-100675000D01*
X225955714Y-100746428D01*
X225812857Y-100817857D01*
X225527142Y-100889285D01*
X225170000Y-100889285D01*
X224884285Y-100817857D01*
X224741428Y-100746428D01*
X224670000Y-100675000D01*
X224598571Y-100532142D01*
X225098571Y-98460714D02*
X225098571Y-97889285D01*
X224598571Y-98246428D02*
X225884285Y-98246428D01*
X226027142Y-98175000D01*
X226098571Y-98032142D01*
X226098571Y-97889285D01*
X226098571Y-97175000D02*
X226027142Y-97317857D01*
X225955714Y-97389285D01*
X225812857Y-97460714D01*
X225384285Y-97460714D01*
X225241428Y-97389285D01*
X225170000Y-97317857D01*
X225098571Y-97175000D01*
X225098571Y-96960714D01*
X225170000Y-96817857D01*
X225241428Y-96746428D01*
X225384285Y-96675000D01*
X225812857Y-96675000D01*
X225955714Y-96746428D01*
X226027142Y-96817857D01*
X226098571Y-96960714D01*
X226098571Y-97175000D01*
X226098571Y-94889285D02*
X224598571Y-94889285D01*
X224598571Y-94532142D01*
X224670000Y-94317857D01*
X224812857Y-94175000D01*
X224955714Y-94103571D01*
X225241428Y-94032142D01*
X225455714Y-94032142D01*
X225741428Y-94103571D01*
X225884285Y-94175000D01*
X226027142Y-94317857D01*
X226098571Y-94532142D01*
X226098571Y-94889285D01*
X226098571Y-93389285D02*
X224598571Y-93389285D01*
X226098571Y-92675000D02*
X224598571Y-92675000D01*
X224598571Y-92103571D01*
X224670000Y-91960714D01*
X224741428Y-91889285D01*
X224884285Y-91817857D01*
X225098571Y-91817857D01*
X225241428Y-91889285D01*
X225312857Y-91960714D01*
X225384285Y-92103571D01*
X225384285Y-92675000D01*
X226098571Y-89246428D02*
X226098571Y-90103571D01*
X226098571Y-89675000D02*
X224598571Y-89675000D01*
X224812857Y-89817857D01*
X224955714Y-89960714D01*
X225027142Y-90103571D01*
X224598571Y-88317857D02*
X224598571Y-88175000D01*
X224670000Y-88032142D01*
X224741428Y-87960714D01*
X224884285Y-87889285D01*
X225170000Y-87817857D01*
X225527142Y-87817857D01*
X225812857Y-87889285D01*
X225955714Y-87960714D01*
X226027142Y-88032142D01*
X226098571Y-88175000D01*
X226098571Y-88317857D01*
X226027142Y-88460714D01*
X225955714Y-88532142D01*
X225812857Y-88603571D01*
X225527142Y-88675000D01*
X225170000Y-88675000D01*
X224884285Y-88603571D01*
X224741428Y-88532142D01*
X224670000Y-88460714D01*
X224598571Y-88317857D01*
X224598571Y-86889285D02*
X224598571Y-86746428D01*
X224670000Y-86603571D01*
X224741428Y-86532142D01*
X224884285Y-86460714D01*
X225170000Y-86389285D01*
X225527142Y-86389285D01*
X225812857Y-86460714D01*
X225955714Y-86532142D01*
X226027142Y-86603571D01*
X226098571Y-86746428D01*
X226098571Y-86889285D01*
X226027142Y-87032142D01*
X225955714Y-87103571D01*
X225812857Y-87175000D01*
X225527142Y-87246428D01*
X225170000Y-87246428D01*
X224884285Y-87175000D01*
X224741428Y-87103571D01*
X224670000Y-87032142D01*
X224598571Y-86889285D01*
X227148571Y-102925000D02*
X227148571Y-102782142D01*
X227220000Y-102639285D01*
X227291428Y-102567857D01*
X227434285Y-102496428D01*
X227720000Y-102425000D01*
X228077142Y-102425000D01*
X228362857Y-102496428D01*
X228505714Y-102567857D01*
X228577142Y-102639285D01*
X228648571Y-102782142D01*
X228648571Y-102925000D01*
X228577142Y-103067857D01*
X228505714Y-103139285D01*
X228362857Y-103210714D01*
X228077142Y-103282142D01*
X227720000Y-103282142D01*
X227434285Y-103210714D01*
X227291428Y-103139285D01*
X227220000Y-103067857D01*
X227148571Y-102925000D01*
X228505714Y-101782142D02*
X228577142Y-101710714D01*
X228648571Y-101782142D01*
X228577142Y-101853571D01*
X228505714Y-101782142D01*
X228648571Y-101782142D01*
X227148571Y-100353571D02*
X227148571Y-101067857D01*
X227862857Y-101139285D01*
X227791428Y-101067857D01*
X227720000Y-100925000D01*
X227720000Y-100567857D01*
X227791428Y-100425000D01*
X227862857Y-100353571D01*
X228005714Y-100282142D01*
X228362857Y-100282142D01*
X228505714Y-100353571D01*
X228577142Y-100425000D01*
X228648571Y-100567857D01*
X228648571Y-100925000D01*
X228577142Y-101067857D01*
X228505714Y-101139285D01*
X227648571Y-98496428D02*
X229148571Y-98496428D01*
X227720000Y-98496428D02*
X227648571Y-98353571D01*
X227648571Y-98067857D01*
X227720000Y-97925000D01*
X227791428Y-97853571D01*
X227934285Y-97782142D01*
X228362857Y-97782142D01*
X228505714Y-97853571D01*
X228577142Y-97925000D01*
X228648571Y-98067857D01*
X228648571Y-98353571D01*
X228577142Y-98496428D01*
X228648571Y-97139285D02*
X227648571Y-97139285D01*
X227148571Y-97139285D02*
X227220000Y-97210714D01*
X227291428Y-97139285D01*
X227220000Y-97067857D01*
X227148571Y-97139285D01*
X227291428Y-97139285D01*
X227648571Y-96639285D02*
X227648571Y-96067857D01*
X227148571Y-96425000D02*
X228434285Y-96425000D01*
X228577142Y-96353571D01*
X228648571Y-96210714D01*
X228648571Y-96067857D01*
X228577142Y-94925000D02*
X228648571Y-95067857D01*
X228648571Y-95353571D01*
X228577142Y-95496428D01*
X228505714Y-95567857D01*
X228362857Y-95639285D01*
X227934285Y-95639285D01*
X227791428Y-95567857D01*
X227720000Y-95496428D01*
X227648571Y-95353571D01*
X227648571Y-95067857D01*
X227720000Y-94925000D01*
X228648571Y-94282142D02*
X227148571Y-94282142D01*
X228648571Y-93639285D02*
X227862857Y-93639285D01*
X227720000Y-93710714D01*
X227648571Y-93853571D01*
X227648571Y-94067857D01*
X227720000Y-94210714D01*
X227791428Y-94282142D01*
X164278571Y-77827142D02*
X164278571Y-78541428D01*
X164992857Y-78612857D01*
X164921428Y-78541428D01*
X164850000Y-78398571D01*
X164850000Y-78041428D01*
X164921428Y-77898571D01*
X164992857Y-77827142D01*
X165135714Y-77755714D01*
X165492857Y-77755714D01*
X165635714Y-77827142D01*
X165707142Y-77898571D01*
X165778571Y-78041428D01*
X165778571Y-78398571D01*
X165707142Y-78541428D01*
X165635714Y-78612857D01*
X165778571Y-76327142D02*
X165778571Y-77184285D01*
X165778571Y-76755714D02*
X164278571Y-76755714D01*
X164492857Y-76898571D01*
X164635714Y-77041428D01*
X164707142Y-77184285D01*
X151578571Y-77827142D02*
X151578571Y-78541428D01*
X152292857Y-78612857D01*
X152221428Y-78541428D01*
X152150000Y-78398571D01*
X152150000Y-78041428D01*
X152221428Y-77898571D01*
X152292857Y-77827142D01*
X152435714Y-77755714D01*
X152792857Y-77755714D01*
X152935714Y-77827142D01*
X153007142Y-77898571D01*
X153078571Y-78041428D01*
X153078571Y-78398571D01*
X153007142Y-78541428D01*
X152935714Y-78612857D01*
X151578571Y-76470000D02*
X151578571Y-76755714D01*
X151650000Y-76898571D01*
X151721428Y-76970000D01*
X151935714Y-77112857D01*
X152221428Y-77184285D01*
X152792857Y-77184285D01*
X152935714Y-77112857D01*
X153007142Y-77041428D01*
X153078571Y-76898571D01*
X153078571Y-76612857D01*
X153007142Y-76470000D01*
X152935714Y-76398571D01*
X152792857Y-76327142D01*
X152435714Y-76327142D01*
X152292857Y-76398571D01*
X152221428Y-76470000D01*
X152150000Y-76612857D01*
X152150000Y-76898571D01*
X152221428Y-77041428D01*
X152292857Y-77112857D01*
X152435714Y-77184285D01*
X209998571Y-78684285D02*
X209998571Y-77755714D01*
X210570000Y-78255714D01*
X210570000Y-78041428D01*
X210641428Y-77898571D01*
X210712857Y-77827142D01*
X210855714Y-77755714D01*
X211212857Y-77755714D01*
X211355714Y-77827142D01*
X211427142Y-77898571D01*
X211498571Y-78041428D01*
X211498571Y-78470000D01*
X211427142Y-78612857D01*
X211355714Y-78684285D01*
X209998571Y-77255714D02*
X209998571Y-76327142D01*
X210570000Y-76827142D01*
X210570000Y-76612857D01*
X210641428Y-76470000D01*
X210712857Y-76398571D01*
X210855714Y-76327142D01*
X211212857Y-76327142D01*
X211355714Y-76398571D01*
X211427142Y-76470000D01*
X211498571Y-76612857D01*
X211498571Y-77041428D01*
X211427142Y-77184285D01*
X211355714Y-77255714D01*
X166818571Y-77827142D02*
X166818571Y-78541428D01*
X167532857Y-78612857D01*
X167461428Y-78541428D01*
X167390000Y-78398571D01*
X167390000Y-78041428D01*
X167461428Y-77898571D01*
X167532857Y-77827142D01*
X167675714Y-77755714D01*
X168032857Y-77755714D01*
X168175714Y-77827142D01*
X168247142Y-77898571D01*
X168318571Y-78041428D01*
X168318571Y-78398571D01*
X168247142Y-78541428D01*
X168175714Y-78612857D01*
X166818571Y-76827142D02*
X166818571Y-76684285D01*
X166890000Y-76541428D01*
X166961428Y-76470000D01*
X167104285Y-76398571D01*
X167390000Y-76327142D01*
X167747142Y-76327142D01*
X168032857Y-76398571D01*
X168175714Y-76470000D01*
X168247142Y-76541428D01*
X168318571Y-76684285D01*
X168318571Y-76827142D01*
X168247142Y-76970000D01*
X168175714Y-77041428D01*
X168032857Y-77112857D01*
X167747142Y-77184285D01*
X167390000Y-77184285D01*
X167104285Y-77112857D01*
X166961428Y-77041428D01*
X166890000Y-76970000D01*
X166818571Y-76827142D01*
X199711571Y-78684285D02*
X199711571Y-77755714D01*
X200283000Y-78255714D01*
X200283000Y-78041428D01*
X200354428Y-77898571D01*
X200425857Y-77827142D01*
X200568714Y-77755714D01*
X200925857Y-77755714D01*
X201068714Y-77827142D01*
X201140142Y-77898571D01*
X201211571Y-78041428D01*
X201211571Y-78470000D01*
X201140142Y-78612857D01*
X201068714Y-78684285D01*
X199711571Y-77255714D02*
X199711571Y-76255714D01*
X201211571Y-76898571D01*
X174938571Y-77898571D02*
X175938571Y-77898571D01*
X174367142Y-78255714D02*
X175438571Y-78612857D01*
X175438571Y-77684285D01*
X174438571Y-77255714D02*
X174438571Y-76255714D01*
X175938571Y-76898571D01*
X197298571Y-78684285D02*
X197298571Y-77755714D01*
X197870000Y-78255714D01*
X197870000Y-78041428D01*
X197941428Y-77898571D01*
X198012857Y-77827142D01*
X198155714Y-77755714D01*
X198512857Y-77755714D01*
X198655714Y-77827142D01*
X198727142Y-77898571D01*
X198798571Y-78041428D01*
X198798571Y-78470000D01*
X198727142Y-78612857D01*
X198655714Y-78684285D01*
X197941428Y-76898571D02*
X197870000Y-77041428D01*
X197798571Y-77112857D01*
X197655714Y-77184285D01*
X197584285Y-77184285D01*
X197441428Y-77112857D01*
X197370000Y-77041428D01*
X197298571Y-76898571D01*
X197298571Y-76612857D01*
X197370000Y-76470000D01*
X197441428Y-76398571D01*
X197584285Y-76327142D01*
X197655714Y-76327142D01*
X197798571Y-76398571D01*
X197870000Y-76470000D01*
X197941428Y-76612857D01*
X197941428Y-76898571D01*
X198012857Y-77041428D01*
X198084285Y-77112857D01*
X198227142Y-77184285D01*
X198512857Y-77184285D01*
X198655714Y-77112857D01*
X198727142Y-77041428D01*
X198798571Y-76898571D01*
X198798571Y-76612857D01*
X198727142Y-76470000D01*
X198655714Y-76398571D01*
X198512857Y-76327142D01*
X198227142Y-76327142D01*
X198084285Y-76398571D01*
X198012857Y-76470000D01*
X197941428Y-76612857D01*
X141418571Y-77898571D02*
X141418571Y-78184285D01*
X141490000Y-78327142D01*
X141561428Y-78398571D01*
X141775714Y-78541428D01*
X142061428Y-78612857D01*
X142632857Y-78612857D01*
X142775714Y-78541428D01*
X142847142Y-78470000D01*
X142918571Y-78327142D01*
X142918571Y-78041428D01*
X142847142Y-77898571D01*
X142775714Y-77827142D01*
X142632857Y-77755714D01*
X142275714Y-77755714D01*
X142132857Y-77827142D01*
X142061428Y-77898571D01*
X141990000Y-78041428D01*
X141990000Y-78327142D01*
X142061428Y-78470000D01*
X142132857Y-78541428D01*
X142275714Y-78612857D01*
X141418571Y-76827142D02*
X141418571Y-76684285D01*
X141490000Y-76541428D01*
X141561428Y-76470000D01*
X141704285Y-76398571D01*
X141990000Y-76327142D01*
X142347142Y-76327142D01*
X142632857Y-76398571D01*
X142775714Y-76470000D01*
X142847142Y-76541428D01*
X142918571Y-76684285D01*
X142918571Y-76827142D01*
X142847142Y-76970000D01*
X142775714Y-77041428D01*
X142632857Y-77112857D01*
X142347142Y-77184285D01*
X141990000Y-77184285D01*
X141704285Y-77112857D01*
X141561428Y-77041428D01*
X141490000Y-76970000D01*
X141418571Y-76827142D01*
X113478571Y-78684285D02*
X113478571Y-77684285D01*
X114978571Y-78327142D01*
X114978571Y-76327142D02*
X114978571Y-77184285D01*
X114978571Y-76755714D02*
X113478571Y-76755714D01*
X113692857Y-76898571D01*
X113835714Y-77041428D01*
X113907142Y-77184285D01*
X187638571Y-77898571D02*
X188638571Y-77898571D01*
X187067142Y-78255714D02*
X188138571Y-78612857D01*
X188138571Y-77684285D01*
X187281428Y-77184285D02*
X187210000Y-77112857D01*
X187138571Y-76970000D01*
X187138571Y-76612857D01*
X187210000Y-76470000D01*
X187281428Y-76398571D01*
X187424285Y-76327142D01*
X187567142Y-76327142D01*
X187781428Y-76398571D01*
X188638571Y-77255714D01*
X188638571Y-76327142D01*
X192591571Y-77898571D02*
X193591571Y-77898571D01*
X192020142Y-78255714D02*
X193091571Y-78612857D01*
X193091571Y-77684285D01*
X192091571Y-76827142D02*
X192091571Y-76684285D01*
X192163000Y-76541428D01*
X192234428Y-76470000D01*
X192377285Y-76398571D01*
X192663000Y-76327142D01*
X193020142Y-76327142D01*
X193305857Y-76398571D01*
X193448714Y-76470000D01*
X193520142Y-76541428D01*
X193591571Y-76684285D01*
X193591571Y-76827142D01*
X193520142Y-76970000D01*
X193448714Y-77041428D01*
X193305857Y-77112857D01*
X193020142Y-77184285D01*
X192663000Y-77184285D01*
X192377285Y-77112857D01*
X192234428Y-77041428D01*
X192163000Y-76970000D01*
X192091571Y-76827142D01*
X138878571Y-77898571D02*
X138878571Y-78184285D01*
X138950000Y-78327142D01*
X139021428Y-78398571D01*
X139235714Y-78541428D01*
X139521428Y-78612857D01*
X140092857Y-78612857D01*
X140235714Y-78541428D01*
X140307142Y-78470000D01*
X140378571Y-78327142D01*
X140378571Y-78041428D01*
X140307142Y-77898571D01*
X140235714Y-77827142D01*
X140092857Y-77755714D01*
X139735714Y-77755714D01*
X139592857Y-77827142D01*
X139521428Y-77898571D01*
X139450000Y-78041428D01*
X139450000Y-78327142D01*
X139521428Y-78470000D01*
X139592857Y-78541428D01*
X139735714Y-78612857D01*
X140378571Y-76327142D02*
X140378571Y-77184285D01*
X140378571Y-76755714D02*
X138878571Y-76755714D01*
X139092857Y-76898571D01*
X139235714Y-77041428D01*
X139307142Y-77184285D01*
X134441428Y-78327142D02*
X134370000Y-78470000D01*
X134298571Y-78541428D01*
X134155714Y-78612857D01*
X134084285Y-78612857D01*
X133941428Y-78541428D01*
X133870000Y-78470000D01*
X133798571Y-78327142D01*
X133798571Y-78041428D01*
X133870000Y-77898571D01*
X133941428Y-77827142D01*
X134084285Y-77755714D01*
X134155714Y-77755714D01*
X134298571Y-77827142D01*
X134370000Y-77898571D01*
X134441428Y-78041428D01*
X134441428Y-78327142D01*
X134512857Y-78470000D01*
X134584285Y-78541428D01*
X134727142Y-78612857D01*
X135012857Y-78612857D01*
X135155714Y-78541428D01*
X135227142Y-78470000D01*
X135298571Y-78327142D01*
X135298571Y-78041428D01*
X135227142Y-77898571D01*
X135155714Y-77827142D01*
X135012857Y-77755714D01*
X134727142Y-77755714D01*
X134584285Y-77827142D01*
X134512857Y-77898571D01*
X134441428Y-78041428D01*
X134441428Y-76898571D02*
X134370000Y-77041428D01*
X134298571Y-77112857D01*
X134155714Y-77184285D01*
X134084285Y-77184285D01*
X133941428Y-77112857D01*
X133870000Y-77041428D01*
X133798571Y-76898571D01*
X133798571Y-76612857D01*
X133870000Y-76470000D01*
X133941428Y-76398571D01*
X134084285Y-76327142D01*
X134155714Y-76327142D01*
X134298571Y-76398571D01*
X134370000Y-76470000D01*
X134441428Y-76612857D01*
X134441428Y-76898571D01*
X134512857Y-77041428D01*
X134584285Y-77112857D01*
X134727142Y-77184285D01*
X135012857Y-77184285D01*
X135155714Y-77112857D01*
X135227142Y-77041428D01*
X135298571Y-76898571D01*
X135298571Y-76612857D01*
X135227142Y-76470000D01*
X135155714Y-76398571D01*
X135012857Y-76327142D01*
X134727142Y-76327142D01*
X134584285Y-76398571D01*
X134512857Y-76470000D01*
X134441428Y-76612857D01*
X131258571Y-77898571D02*
X131258571Y-78184285D01*
X131330000Y-78327142D01*
X131401428Y-78398571D01*
X131615714Y-78541428D01*
X131901428Y-78612857D01*
X132472857Y-78612857D01*
X132615714Y-78541428D01*
X132687142Y-78470000D01*
X132758571Y-78327142D01*
X132758571Y-78041428D01*
X132687142Y-77898571D01*
X132615714Y-77827142D01*
X132472857Y-77755714D01*
X132115714Y-77755714D01*
X131972857Y-77827142D01*
X131901428Y-77898571D01*
X131830000Y-78041428D01*
X131830000Y-78327142D01*
X131901428Y-78470000D01*
X131972857Y-78541428D01*
X132115714Y-78612857D01*
X131758571Y-76470000D02*
X132758571Y-76470000D01*
X131187142Y-76827142D02*
X132258571Y-77184285D01*
X132258571Y-76255714D01*
X202378571Y-78684285D02*
X202378571Y-77755714D01*
X202950000Y-78255714D01*
X202950000Y-78041428D01*
X203021428Y-77898571D01*
X203092857Y-77827142D01*
X203235714Y-77755714D01*
X203592857Y-77755714D01*
X203735714Y-77827142D01*
X203807142Y-77898571D01*
X203878571Y-78041428D01*
X203878571Y-78470000D01*
X203807142Y-78612857D01*
X203735714Y-78684285D01*
X202378571Y-76470000D02*
X202378571Y-76755714D01*
X202450000Y-76898571D01*
X202521428Y-76970000D01*
X202735714Y-77112857D01*
X203021428Y-77184285D01*
X203592857Y-77184285D01*
X203735714Y-77112857D01*
X203807142Y-77041428D01*
X203878571Y-76898571D01*
X203878571Y-76612857D01*
X203807142Y-76470000D01*
X203735714Y-76398571D01*
X203592857Y-76327142D01*
X203235714Y-76327142D01*
X203092857Y-76398571D01*
X203021428Y-76470000D01*
X202950000Y-76612857D01*
X202950000Y-76898571D01*
X203021428Y-77041428D01*
X203092857Y-77112857D01*
X203235714Y-77184285D01*
X116661428Y-78327142D02*
X116590000Y-78470000D01*
X116518571Y-78541428D01*
X116375714Y-78612857D01*
X116304285Y-78612857D01*
X116161428Y-78541428D01*
X116090000Y-78470000D01*
X116018571Y-78327142D01*
X116018571Y-78041428D01*
X116090000Y-77898571D01*
X116161428Y-77827142D01*
X116304285Y-77755714D01*
X116375714Y-77755714D01*
X116518571Y-77827142D01*
X116590000Y-77898571D01*
X116661428Y-78041428D01*
X116661428Y-78327142D01*
X116732857Y-78470000D01*
X116804285Y-78541428D01*
X116947142Y-78612857D01*
X117232857Y-78612857D01*
X117375714Y-78541428D01*
X117447142Y-78470000D01*
X117518571Y-78327142D01*
X117518571Y-78041428D01*
X117447142Y-77898571D01*
X117375714Y-77827142D01*
X117232857Y-77755714D01*
X116947142Y-77755714D01*
X116804285Y-77827142D01*
X116732857Y-77898571D01*
X116661428Y-78041428D01*
X117518571Y-76327142D02*
X117518571Y-77184285D01*
X117518571Y-76755714D02*
X116018571Y-76755714D01*
X116232857Y-76898571D01*
X116375714Y-77041428D01*
X116447142Y-77184285D01*
X222714428Y-78612857D02*
X222643000Y-78541428D01*
X222571571Y-78398571D01*
X222571571Y-78041428D01*
X222643000Y-77898571D01*
X222714428Y-77827142D01*
X222857285Y-77755714D01*
X223000142Y-77755714D01*
X223214428Y-77827142D01*
X224071571Y-78684285D01*
X224071571Y-77755714D01*
X223214428Y-76898571D02*
X223143000Y-77041428D01*
X223071571Y-77112857D01*
X222928714Y-77184285D01*
X222857285Y-77184285D01*
X222714428Y-77112857D01*
X222643000Y-77041428D01*
X222571571Y-76898571D01*
X222571571Y-76612857D01*
X222643000Y-76470000D01*
X222714428Y-76398571D01*
X222857285Y-76327142D01*
X222928714Y-76327142D01*
X223071571Y-76398571D01*
X223143000Y-76470000D01*
X223214428Y-76612857D01*
X223214428Y-76898571D01*
X223285857Y-77041428D01*
X223357285Y-77112857D01*
X223500142Y-77184285D01*
X223785857Y-77184285D01*
X223928714Y-77112857D01*
X224000142Y-77041428D01*
X224071571Y-76898571D01*
X224071571Y-76612857D01*
X224000142Y-76470000D01*
X223928714Y-76398571D01*
X223785857Y-76327142D01*
X223500142Y-76327142D01*
X223357285Y-76398571D01*
X223285857Y-76470000D01*
X223214428Y-76612857D01*
X207458571Y-78684285D02*
X207458571Y-77755714D01*
X208030000Y-78255714D01*
X208030000Y-78041428D01*
X208101428Y-77898571D01*
X208172857Y-77827142D01*
X208315714Y-77755714D01*
X208672857Y-77755714D01*
X208815714Y-77827142D01*
X208887142Y-77898571D01*
X208958571Y-78041428D01*
X208958571Y-78470000D01*
X208887142Y-78612857D01*
X208815714Y-78684285D01*
X207958571Y-76470000D02*
X208958571Y-76470000D01*
X207387142Y-76827142D02*
X208458571Y-77184285D01*
X208458571Y-76255714D01*
X172398571Y-77898571D02*
X173398571Y-77898571D01*
X171827142Y-78255714D02*
X172898571Y-78612857D01*
X172898571Y-77684285D01*
X172541428Y-76898571D02*
X172470000Y-77041428D01*
X172398571Y-77112857D01*
X172255714Y-77184285D01*
X172184285Y-77184285D01*
X172041428Y-77112857D01*
X171970000Y-77041428D01*
X171898571Y-76898571D01*
X171898571Y-76612857D01*
X171970000Y-76470000D01*
X172041428Y-76398571D01*
X172184285Y-76327142D01*
X172255714Y-76327142D01*
X172398571Y-76398571D01*
X172470000Y-76470000D01*
X172541428Y-76612857D01*
X172541428Y-76898571D01*
X172612857Y-77041428D01*
X172684285Y-77112857D01*
X172827142Y-77184285D01*
X173112857Y-77184285D01*
X173255714Y-77112857D01*
X173327142Y-77041428D01*
X173398571Y-76898571D01*
X173398571Y-76612857D01*
X173327142Y-76470000D01*
X173255714Y-76398571D01*
X173112857Y-76327142D01*
X172827142Y-76327142D01*
X172684285Y-76398571D01*
X172612857Y-76470000D01*
X172541428Y-76612857D01*
X123638571Y-77898571D02*
X123638571Y-78184285D01*
X123710000Y-78327142D01*
X123781428Y-78398571D01*
X123995714Y-78541428D01*
X124281428Y-78612857D01*
X124852857Y-78612857D01*
X124995714Y-78541428D01*
X125067142Y-78470000D01*
X125138571Y-78327142D01*
X125138571Y-78041428D01*
X125067142Y-77898571D01*
X124995714Y-77827142D01*
X124852857Y-77755714D01*
X124495714Y-77755714D01*
X124352857Y-77827142D01*
X124281428Y-77898571D01*
X124210000Y-78041428D01*
X124210000Y-78327142D01*
X124281428Y-78470000D01*
X124352857Y-78541428D01*
X124495714Y-78612857D01*
X123638571Y-77255714D02*
X123638571Y-76255714D01*
X125138571Y-76898571D01*
X128718571Y-77898571D02*
X128718571Y-78184285D01*
X128790000Y-78327142D01*
X128861428Y-78398571D01*
X129075714Y-78541428D01*
X129361428Y-78612857D01*
X129932857Y-78612857D01*
X130075714Y-78541428D01*
X130147142Y-78470000D01*
X130218571Y-78327142D01*
X130218571Y-78041428D01*
X130147142Y-77898571D01*
X130075714Y-77827142D01*
X129932857Y-77755714D01*
X129575714Y-77755714D01*
X129432857Y-77827142D01*
X129361428Y-77898571D01*
X129290000Y-78041428D01*
X129290000Y-78327142D01*
X129361428Y-78470000D01*
X129432857Y-78541428D01*
X129575714Y-78612857D01*
X128718571Y-76398571D02*
X128718571Y-77112857D01*
X129432857Y-77184285D01*
X129361428Y-77112857D01*
X129290000Y-76970000D01*
X129290000Y-76612857D01*
X129361428Y-76470000D01*
X129432857Y-76398571D01*
X129575714Y-76327142D01*
X129932857Y-76327142D01*
X130075714Y-76398571D01*
X130147142Y-76470000D01*
X130218571Y-76612857D01*
X130218571Y-76970000D01*
X130147142Y-77112857D01*
X130075714Y-77184285D01*
X182558571Y-77898571D02*
X183558571Y-77898571D01*
X181987142Y-78255714D02*
X183058571Y-78612857D01*
X183058571Y-77684285D01*
X182558571Y-76470000D02*
X183558571Y-76470000D01*
X181987142Y-76827142D02*
X183058571Y-77184285D01*
X183058571Y-76255714D01*
X185098571Y-77898571D02*
X186098571Y-77898571D01*
X184527142Y-78255714D02*
X185598571Y-78612857D01*
X185598571Y-77684285D01*
X184598571Y-77255714D02*
X184598571Y-76327142D01*
X185170000Y-76827142D01*
X185170000Y-76612857D01*
X185241428Y-76470000D01*
X185312857Y-76398571D01*
X185455714Y-76327142D01*
X185812857Y-76327142D01*
X185955714Y-76398571D01*
X186027142Y-76470000D01*
X186098571Y-76612857D01*
X186098571Y-77041428D01*
X186027142Y-77184285D01*
X185955714Y-77255714D01*
X227921428Y-78612857D02*
X227850000Y-78541428D01*
X227778571Y-78398571D01*
X227778571Y-78041428D01*
X227850000Y-77898571D01*
X227921428Y-77827142D01*
X228064285Y-77755714D01*
X228207142Y-77755714D01*
X228421428Y-77827142D01*
X229278571Y-78684285D01*
X229278571Y-77755714D01*
X227778571Y-76470000D02*
X227778571Y-76755714D01*
X227850000Y-76898571D01*
X227921428Y-76970000D01*
X228135714Y-77112857D01*
X228421428Y-77184285D01*
X228992857Y-77184285D01*
X229135714Y-77112857D01*
X229207142Y-77041428D01*
X229278571Y-76898571D01*
X229278571Y-76612857D01*
X229207142Y-76470000D01*
X229135714Y-76398571D01*
X228992857Y-76327142D01*
X228635714Y-76327142D01*
X228492857Y-76398571D01*
X228421428Y-76470000D01*
X228350000Y-76612857D01*
X228350000Y-76898571D01*
X228421428Y-77041428D01*
X228492857Y-77112857D01*
X228635714Y-77184285D01*
X225381428Y-78612857D02*
X225310000Y-78541428D01*
X225238571Y-78398571D01*
X225238571Y-78041428D01*
X225310000Y-77898571D01*
X225381428Y-77827142D01*
X225524285Y-77755714D01*
X225667142Y-77755714D01*
X225881428Y-77827142D01*
X226738571Y-78684285D01*
X226738571Y-77755714D01*
X225238571Y-77255714D02*
X225238571Y-76255714D01*
X226738571Y-76898571D01*
X180018571Y-77898571D02*
X181018571Y-77898571D01*
X179447142Y-78255714D02*
X180518571Y-78612857D01*
X180518571Y-77684285D01*
X179518571Y-76398571D02*
X179518571Y-77112857D01*
X180232857Y-77184285D01*
X180161428Y-77112857D01*
X180090000Y-76970000D01*
X180090000Y-76612857D01*
X180161428Y-76470000D01*
X180232857Y-76398571D01*
X180375714Y-76327142D01*
X180732857Y-76327142D01*
X180875714Y-76398571D01*
X180947142Y-76470000D01*
X181018571Y-76612857D01*
X181018571Y-76970000D01*
X180947142Y-77112857D01*
X180875714Y-77184285D01*
X118558571Y-77898571D02*
X118558571Y-78184285D01*
X118630000Y-78327142D01*
X118701428Y-78398571D01*
X118915714Y-78541428D01*
X119201428Y-78612857D01*
X119772857Y-78612857D01*
X119915714Y-78541428D01*
X119987142Y-78470000D01*
X120058571Y-78327142D01*
X120058571Y-78041428D01*
X119987142Y-77898571D01*
X119915714Y-77827142D01*
X119772857Y-77755714D01*
X119415714Y-77755714D01*
X119272857Y-77827142D01*
X119201428Y-77898571D01*
X119130000Y-78041428D01*
X119130000Y-78327142D01*
X119201428Y-78470000D01*
X119272857Y-78541428D01*
X119415714Y-78612857D01*
X120058571Y-77041428D02*
X120058571Y-76755714D01*
X119987142Y-76612857D01*
X119915714Y-76541428D01*
X119701428Y-76398571D01*
X119415714Y-76327142D01*
X118844285Y-76327142D01*
X118701428Y-76398571D01*
X118630000Y-76470000D01*
X118558571Y-76612857D01*
X118558571Y-76898571D01*
X118630000Y-77041428D01*
X118701428Y-77112857D01*
X118844285Y-77184285D01*
X119201428Y-77184285D01*
X119344285Y-77112857D01*
X119415714Y-77041428D01*
X119487142Y-76898571D01*
X119487142Y-76612857D01*
X119415714Y-76470000D01*
X119344285Y-76398571D01*
X119201428Y-76327142D01*
X108398571Y-78684285D02*
X108398571Y-77684285D01*
X109898571Y-78327142D01*
X108398571Y-77255714D02*
X108398571Y-76327142D01*
X108970000Y-76827142D01*
X108970000Y-76612857D01*
X109041428Y-76470000D01*
X109112857Y-76398571D01*
X109255714Y-76327142D01*
X109612857Y-76327142D01*
X109755714Y-76398571D01*
X109827142Y-76470000D01*
X109898571Y-76612857D01*
X109898571Y-77041428D01*
X109827142Y-77184285D01*
X109755714Y-77255714D01*
X215078571Y-78684285D02*
X215078571Y-77755714D01*
X215650000Y-78255714D01*
X215650000Y-78041428D01*
X215721428Y-77898571D01*
X215792857Y-77827142D01*
X215935714Y-77755714D01*
X216292857Y-77755714D01*
X216435714Y-77827142D01*
X216507142Y-77898571D01*
X216578571Y-78041428D01*
X216578571Y-78470000D01*
X216507142Y-78612857D01*
X216435714Y-78684285D01*
X216578571Y-76327142D02*
X216578571Y-77184285D01*
X216578571Y-76755714D02*
X215078571Y-76755714D01*
X215292857Y-76898571D01*
X215435714Y-77041428D01*
X215507142Y-77184285D01*
X136338571Y-77898571D02*
X136338571Y-78184285D01*
X136410000Y-78327142D01*
X136481428Y-78398571D01*
X136695714Y-78541428D01*
X136981428Y-78612857D01*
X137552857Y-78612857D01*
X137695714Y-78541428D01*
X137767142Y-78470000D01*
X137838571Y-78327142D01*
X137838571Y-78041428D01*
X137767142Y-77898571D01*
X137695714Y-77827142D01*
X137552857Y-77755714D01*
X137195714Y-77755714D01*
X137052857Y-77827142D01*
X136981428Y-77898571D01*
X136910000Y-78041428D01*
X136910000Y-78327142D01*
X136981428Y-78470000D01*
X137052857Y-78541428D01*
X137195714Y-78612857D01*
X136481428Y-77184285D02*
X136410000Y-77112857D01*
X136338571Y-76970000D01*
X136338571Y-76612857D01*
X136410000Y-76470000D01*
X136481428Y-76398571D01*
X136624285Y-76327142D01*
X136767142Y-76327142D01*
X136981428Y-76398571D01*
X137838571Y-77255714D01*
X137838571Y-76327142D01*
X121098571Y-77898571D02*
X121098571Y-78184285D01*
X121170000Y-78327142D01*
X121241428Y-78398571D01*
X121455714Y-78541428D01*
X121741428Y-78612857D01*
X122312857Y-78612857D01*
X122455714Y-78541428D01*
X122527142Y-78470000D01*
X122598571Y-78327142D01*
X122598571Y-78041428D01*
X122527142Y-77898571D01*
X122455714Y-77827142D01*
X122312857Y-77755714D01*
X121955714Y-77755714D01*
X121812857Y-77827142D01*
X121741428Y-77898571D01*
X121670000Y-78041428D01*
X121670000Y-78327142D01*
X121741428Y-78470000D01*
X121812857Y-78541428D01*
X121955714Y-78612857D01*
X121741428Y-76898571D02*
X121670000Y-77041428D01*
X121598571Y-77112857D01*
X121455714Y-77184285D01*
X121384285Y-77184285D01*
X121241428Y-77112857D01*
X121170000Y-77041428D01*
X121098571Y-76898571D01*
X121098571Y-76612857D01*
X121170000Y-76470000D01*
X121241428Y-76398571D01*
X121384285Y-76327142D01*
X121455714Y-76327142D01*
X121598571Y-76398571D01*
X121670000Y-76470000D01*
X121741428Y-76612857D01*
X121741428Y-76898571D01*
X121812857Y-77041428D01*
X121884285Y-77112857D01*
X122027142Y-77184285D01*
X122312857Y-77184285D01*
X122455714Y-77112857D01*
X122527142Y-77041428D01*
X122598571Y-76898571D01*
X122598571Y-76612857D01*
X122527142Y-76470000D01*
X122455714Y-76398571D01*
X122312857Y-76327142D01*
X122027142Y-76327142D01*
X121884285Y-76398571D01*
X121812857Y-76470000D01*
X121741428Y-76612857D01*
X169858571Y-77898571D02*
X170858571Y-77898571D01*
X169287142Y-78255714D02*
X170358571Y-78612857D01*
X170358571Y-77684285D01*
X170858571Y-77041428D02*
X170858571Y-76755714D01*
X170787142Y-76612857D01*
X170715714Y-76541428D01*
X170501428Y-76398571D01*
X170215714Y-76327142D01*
X169644285Y-76327142D01*
X169501428Y-76398571D01*
X169430000Y-76470000D01*
X169358571Y-76612857D01*
X169358571Y-76898571D01*
X169430000Y-77041428D01*
X169501428Y-77112857D01*
X169644285Y-77184285D01*
X170001428Y-77184285D01*
X170144285Y-77112857D01*
X170215714Y-77041428D01*
X170287142Y-76898571D01*
X170287142Y-76612857D01*
X170215714Y-76470000D01*
X170144285Y-76398571D01*
X170001428Y-76327142D01*
X146498571Y-77827142D02*
X146498571Y-78541428D01*
X147212857Y-78612857D01*
X147141428Y-78541428D01*
X147070000Y-78398571D01*
X147070000Y-78041428D01*
X147141428Y-77898571D01*
X147212857Y-77827142D01*
X147355714Y-77755714D01*
X147712857Y-77755714D01*
X147855714Y-77827142D01*
X147927142Y-77898571D01*
X147998571Y-78041428D01*
X147998571Y-78398571D01*
X147927142Y-78541428D01*
X147855714Y-78612857D01*
X147141428Y-76898571D02*
X147070000Y-77041428D01*
X146998571Y-77112857D01*
X146855714Y-77184285D01*
X146784285Y-77184285D01*
X146641428Y-77112857D01*
X146570000Y-77041428D01*
X146498571Y-76898571D01*
X146498571Y-76612857D01*
X146570000Y-76470000D01*
X146641428Y-76398571D01*
X146784285Y-76327142D01*
X146855714Y-76327142D01*
X146998571Y-76398571D01*
X147070000Y-76470000D01*
X147141428Y-76612857D01*
X147141428Y-76898571D01*
X147212857Y-77041428D01*
X147284285Y-77112857D01*
X147427142Y-77184285D01*
X147712857Y-77184285D01*
X147855714Y-77112857D01*
X147927142Y-77041428D01*
X147998571Y-76898571D01*
X147998571Y-76612857D01*
X147927142Y-76470000D01*
X147855714Y-76398571D01*
X147712857Y-76327142D01*
X147427142Y-76327142D01*
X147284285Y-76398571D01*
X147212857Y-76470000D01*
X147141428Y-76612857D01*
X154118571Y-77827142D02*
X154118571Y-78541428D01*
X154832857Y-78612857D01*
X154761428Y-78541428D01*
X154690000Y-78398571D01*
X154690000Y-78041428D01*
X154761428Y-77898571D01*
X154832857Y-77827142D01*
X154975714Y-77755714D01*
X155332857Y-77755714D01*
X155475714Y-77827142D01*
X155547142Y-77898571D01*
X155618571Y-78041428D01*
X155618571Y-78398571D01*
X155547142Y-78541428D01*
X155475714Y-78612857D01*
X154118571Y-76398571D02*
X154118571Y-77112857D01*
X154832857Y-77184285D01*
X154761428Y-77112857D01*
X154690000Y-76970000D01*
X154690000Y-76612857D01*
X154761428Y-76470000D01*
X154832857Y-76398571D01*
X154975714Y-76327142D01*
X155332857Y-76327142D01*
X155475714Y-76398571D01*
X155547142Y-76470000D01*
X155618571Y-76612857D01*
X155618571Y-76970000D01*
X155547142Y-77112857D01*
X155475714Y-77184285D01*
X190178571Y-77898571D02*
X191178571Y-77898571D01*
X189607142Y-78255714D02*
X190678571Y-78612857D01*
X190678571Y-77684285D01*
X191178571Y-76327142D02*
X191178571Y-77184285D01*
X191178571Y-76755714D02*
X189678571Y-76755714D01*
X189892857Y-76898571D01*
X190035714Y-77041428D01*
X190107142Y-77184285D01*
X148911571Y-77827142D02*
X148911571Y-78541428D01*
X149625857Y-78612857D01*
X149554428Y-78541428D01*
X149483000Y-78398571D01*
X149483000Y-78041428D01*
X149554428Y-77898571D01*
X149625857Y-77827142D01*
X149768714Y-77755714D01*
X150125857Y-77755714D01*
X150268714Y-77827142D01*
X150340142Y-77898571D01*
X150411571Y-78041428D01*
X150411571Y-78398571D01*
X150340142Y-78541428D01*
X150268714Y-78612857D01*
X148911571Y-77255714D02*
X148911571Y-76255714D01*
X150411571Y-76898571D01*
X217618571Y-78684285D02*
X217618571Y-77755714D01*
X218190000Y-78255714D01*
X218190000Y-78041428D01*
X218261428Y-77898571D01*
X218332857Y-77827142D01*
X218475714Y-77755714D01*
X218832857Y-77755714D01*
X218975714Y-77827142D01*
X219047142Y-77898571D01*
X219118571Y-78041428D01*
X219118571Y-78470000D01*
X219047142Y-78612857D01*
X218975714Y-78684285D01*
X217618571Y-76827142D02*
X217618571Y-76684285D01*
X217690000Y-76541428D01*
X217761428Y-76470000D01*
X217904285Y-76398571D01*
X218190000Y-76327142D01*
X218547142Y-76327142D01*
X218832857Y-76398571D01*
X218975714Y-76470000D01*
X219047142Y-76541428D01*
X219118571Y-76684285D01*
X219118571Y-76827142D01*
X219047142Y-76970000D01*
X218975714Y-77041428D01*
X218832857Y-77112857D01*
X218547142Y-77184285D01*
X218190000Y-77184285D01*
X217904285Y-77112857D01*
X217761428Y-77041428D01*
X217690000Y-76970000D01*
X217618571Y-76827142D01*
X220301428Y-78612857D02*
X220230000Y-78541428D01*
X220158571Y-78398571D01*
X220158571Y-78041428D01*
X220230000Y-77898571D01*
X220301428Y-77827142D01*
X220444285Y-77755714D01*
X220587142Y-77755714D01*
X220801428Y-77827142D01*
X221658571Y-78684285D01*
X221658571Y-77755714D01*
X220301428Y-77184285D02*
X220230000Y-77112857D01*
X220158571Y-76970000D01*
X220158571Y-76612857D01*
X220230000Y-76470000D01*
X220301428Y-76398571D01*
X220444285Y-76327142D01*
X220587142Y-76327142D01*
X220801428Y-76398571D01*
X221658571Y-77255714D01*
X221658571Y-76327142D01*
X156658571Y-77827142D02*
X156658571Y-78541428D01*
X157372857Y-78612857D01*
X157301428Y-78541428D01*
X157230000Y-78398571D01*
X157230000Y-78041428D01*
X157301428Y-77898571D01*
X157372857Y-77827142D01*
X157515714Y-77755714D01*
X157872857Y-77755714D01*
X158015714Y-77827142D01*
X158087142Y-77898571D01*
X158158571Y-78041428D01*
X158158571Y-78398571D01*
X158087142Y-78541428D01*
X158015714Y-78612857D01*
X157158571Y-76470000D02*
X158158571Y-76470000D01*
X156587142Y-76827142D02*
X157658571Y-77184285D01*
X157658571Y-76255714D01*
X194758571Y-78684285D02*
X194758571Y-77755714D01*
X195330000Y-78255714D01*
X195330000Y-78041428D01*
X195401428Y-77898571D01*
X195472857Y-77827142D01*
X195615714Y-77755714D01*
X195972857Y-77755714D01*
X196115714Y-77827142D01*
X196187142Y-77898571D01*
X196258571Y-78041428D01*
X196258571Y-78470000D01*
X196187142Y-78612857D01*
X196115714Y-78684285D01*
X196258571Y-77041428D02*
X196258571Y-76755714D01*
X196187142Y-76612857D01*
X196115714Y-76541428D01*
X195901428Y-76398571D01*
X195615714Y-76327142D01*
X195044285Y-76327142D01*
X194901428Y-76398571D01*
X194830000Y-76470000D01*
X194758571Y-76612857D01*
X194758571Y-76898571D01*
X194830000Y-77041428D01*
X194901428Y-77112857D01*
X195044285Y-77184285D01*
X195401428Y-77184285D01*
X195544285Y-77112857D01*
X195615714Y-77041428D01*
X195687142Y-76898571D01*
X195687142Y-76612857D01*
X195615714Y-76470000D01*
X195544285Y-76398571D01*
X195401428Y-76327142D01*
X159198571Y-77827142D02*
X159198571Y-78541428D01*
X159912857Y-78612857D01*
X159841428Y-78541428D01*
X159770000Y-78398571D01*
X159770000Y-78041428D01*
X159841428Y-77898571D01*
X159912857Y-77827142D01*
X160055714Y-77755714D01*
X160412857Y-77755714D01*
X160555714Y-77827142D01*
X160627142Y-77898571D01*
X160698571Y-78041428D01*
X160698571Y-78398571D01*
X160627142Y-78541428D01*
X160555714Y-78612857D01*
X159198571Y-77255714D02*
X159198571Y-76327142D01*
X159770000Y-76827142D01*
X159770000Y-76612857D01*
X159841428Y-76470000D01*
X159912857Y-76398571D01*
X160055714Y-76327142D01*
X160412857Y-76327142D01*
X160555714Y-76398571D01*
X160627142Y-76470000D01*
X160698571Y-76612857D01*
X160698571Y-77041428D01*
X160627142Y-77184285D01*
X160555714Y-77255714D01*
X143958571Y-77827142D02*
X143958571Y-78541428D01*
X144672857Y-78612857D01*
X144601428Y-78541428D01*
X144530000Y-78398571D01*
X144530000Y-78041428D01*
X144601428Y-77898571D01*
X144672857Y-77827142D01*
X144815714Y-77755714D01*
X145172857Y-77755714D01*
X145315714Y-77827142D01*
X145387142Y-77898571D01*
X145458571Y-78041428D01*
X145458571Y-78398571D01*
X145387142Y-78541428D01*
X145315714Y-78612857D01*
X145458571Y-77041428D02*
X145458571Y-76755714D01*
X145387142Y-76612857D01*
X145315714Y-76541428D01*
X145101428Y-76398571D01*
X144815714Y-76327142D01*
X144244285Y-76327142D01*
X144101428Y-76398571D01*
X144030000Y-76470000D01*
X143958571Y-76612857D01*
X143958571Y-76898571D01*
X144030000Y-77041428D01*
X144101428Y-77112857D01*
X144244285Y-77184285D01*
X144601428Y-77184285D01*
X144744285Y-77112857D01*
X144815714Y-77041428D01*
X144887142Y-76898571D01*
X144887142Y-76612857D01*
X144815714Y-76470000D01*
X144744285Y-76398571D01*
X144601428Y-76327142D01*
X103318571Y-78684285D02*
X103318571Y-77684285D01*
X104818571Y-78327142D01*
X103318571Y-76398571D02*
X103318571Y-77112857D01*
X104032857Y-77184285D01*
X103961428Y-77112857D01*
X103890000Y-76970000D01*
X103890000Y-76612857D01*
X103961428Y-76470000D01*
X104032857Y-76398571D01*
X104175714Y-76327142D01*
X104532857Y-76327142D01*
X104675714Y-76398571D01*
X104747142Y-76470000D01*
X104818571Y-76612857D01*
X104818571Y-76970000D01*
X104747142Y-77112857D01*
X104675714Y-77184285D01*
X177478571Y-77898571D02*
X178478571Y-77898571D01*
X176907142Y-78255714D02*
X177978571Y-78612857D01*
X177978571Y-77684285D01*
X176978571Y-76470000D02*
X176978571Y-76755714D01*
X177050000Y-76898571D01*
X177121428Y-76970000D01*
X177335714Y-77112857D01*
X177621428Y-77184285D01*
X178192857Y-77184285D01*
X178335714Y-77112857D01*
X178407142Y-77041428D01*
X178478571Y-76898571D01*
X178478571Y-76612857D01*
X178407142Y-76470000D01*
X178335714Y-76398571D01*
X178192857Y-76327142D01*
X177835714Y-76327142D01*
X177692857Y-76398571D01*
X177621428Y-76470000D01*
X177550000Y-76612857D01*
X177550000Y-76898571D01*
X177621428Y-77041428D01*
X177692857Y-77112857D01*
X177835714Y-77184285D01*
X161738571Y-77827142D02*
X161738571Y-78541428D01*
X162452857Y-78612857D01*
X162381428Y-78541428D01*
X162310000Y-78398571D01*
X162310000Y-78041428D01*
X162381428Y-77898571D01*
X162452857Y-77827142D01*
X162595714Y-77755714D01*
X162952857Y-77755714D01*
X163095714Y-77827142D01*
X163167142Y-77898571D01*
X163238571Y-78041428D01*
X163238571Y-78398571D01*
X163167142Y-78541428D01*
X163095714Y-78612857D01*
X161881428Y-77184285D02*
X161810000Y-77112857D01*
X161738571Y-76970000D01*
X161738571Y-76612857D01*
X161810000Y-76470000D01*
X161881428Y-76398571D01*
X162024285Y-76327142D01*
X162167142Y-76327142D01*
X162381428Y-76398571D01*
X163238571Y-77255714D01*
X163238571Y-76327142D01*
X205045571Y-78684285D02*
X205045571Y-77755714D01*
X205617000Y-78255714D01*
X205617000Y-78041428D01*
X205688428Y-77898571D01*
X205759857Y-77827142D01*
X205902714Y-77755714D01*
X206259857Y-77755714D01*
X206402714Y-77827142D01*
X206474142Y-77898571D01*
X206545571Y-78041428D01*
X206545571Y-78470000D01*
X206474142Y-78612857D01*
X206402714Y-78684285D01*
X205045571Y-76398571D02*
X205045571Y-77112857D01*
X205759857Y-77184285D01*
X205688428Y-77112857D01*
X205617000Y-76970000D01*
X205617000Y-76612857D01*
X205688428Y-76470000D01*
X205759857Y-76398571D01*
X205902714Y-76327142D01*
X206259857Y-76327142D01*
X206402714Y-76398571D01*
X206474142Y-76470000D01*
X206545571Y-76612857D01*
X206545571Y-76970000D01*
X206474142Y-77112857D01*
X206402714Y-77184285D01*
X105858571Y-78684285D02*
X105858571Y-77684285D01*
X107358571Y-78327142D01*
X106358571Y-76470000D02*
X107358571Y-76470000D01*
X105787142Y-76827142D02*
X106858571Y-77184285D01*
X106858571Y-76255714D01*
X110938571Y-78684285D02*
X110938571Y-77684285D01*
X112438571Y-78327142D01*
X111081428Y-77184285D02*
X111010000Y-77112857D01*
X110938571Y-76970000D01*
X110938571Y-76612857D01*
X111010000Y-76470000D01*
X111081428Y-76398571D01*
X111224285Y-76327142D01*
X111367142Y-76327142D01*
X111581428Y-76398571D01*
X112438571Y-77255714D01*
X112438571Y-76327142D01*
X212538571Y-78684285D02*
X212538571Y-77755714D01*
X213110000Y-78255714D01*
X213110000Y-78041428D01*
X213181428Y-77898571D01*
X213252857Y-77827142D01*
X213395714Y-77755714D01*
X213752857Y-77755714D01*
X213895714Y-77827142D01*
X213967142Y-77898571D01*
X214038571Y-78041428D01*
X214038571Y-78470000D01*
X213967142Y-78612857D01*
X213895714Y-78684285D01*
X212681428Y-77184285D02*
X212610000Y-77112857D01*
X212538571Y-76970000D01*
X212538571Y-76612857D01*
X212610000Y-76470000D01*
X212681428Y-76398571D01*
X212824285Y-76327142D01*
X212967142Y-76327142D01*
X213181428Y-76398571D01*
X214038571Y-77255714D01*
X214038571Y-76327142D01*
X126178571Y-77898571D02*
X126178571Y-78184285D01*
X126250000Y-78327142D01*
X126321428Y-78398571D01*
X126535714Y-78541428D01*
X126821428Y-78612857D01*
X127392857Y-78612857D01*
X127535714Y-78541428D01*
X127607142Y-78470000D01*
X127678571Y-78327142D01*
X127678571Y-78041428D01*
X127607142Y-77898571D01*
X127535714Y-77827142D01*
X127392857Y-77755714D01*
X127035714Y-77755714D01*
X126892857Y-77827142D01*
X126821428Y-77898571D01*
X126750000Y-78041428D01*
X126750000Y-78327142D01*
X126821428Y-78470000D01*
X126892857Y-78541428D01*
X127035714Y-78612857D01*
X126178571Y-76470000D02*
X126178571Y-76755714D01*
X126250000Y-76898571D01*
X126321428Y-76970000D01*
X126535714Y-77112857D01*
X126821428Y-77184285D01*
X127392857Y-77184285D01*
X127535714Y-77112857D01*
X127607142Y-77041428D01*
X127678571Y-76898571D01*
X127678571Y-76612857D01*
X127607142Y-76470000D01*
X127535714Y-76398571D01*
X127392857Y-76327142D01*
X127035714Y-76327142D01*
X126892857Y-76398571D01*
X126821428Y-76470000D01*
X126750000Y-76612857D01*
X126750000Y-76898571D01*
X126821428Y-77041428D01*
X126892857Y-77112857D01*
X127035714Y-77184285D01*
X227921428Y-121792857D02*
X227850000Y-121721428D01*
X227778571Y-121578571D01*
X227778571Y-121221428D01*
X227850000Y-121078571D01*
X227921428Y-121007142D01*
X228064285Y-120935714D01*
X228207142Y-120935714D01*
X228421428Y-121007142D01*
X229278571Y-121864285D01*
X229278571Y-120935714D01*
X227778571Y-119578571D02*
X227778571Y-120292857D01*
X228492857Y-120364285D01*
X228421428Y-120292857D01*
X228350000Y-120150000D01*
X228350000Y-119792857D01*
X228421428Y-119650000D01*
X228492857Y-119578571D01*
X228635714Y-119507142D01*
X228992857Y-119507142D01*
X229135714Y-119578571D01*
X229207142Y-119650000D01*
X229278571Y-119792857D01*
X229278571Y-120150000D01*
X229207142Y-120292857D01*
X229135714Y-120364285D01*
X225381428Y-121792857D02*
X225310000Y-121721428D01*
X225238571Y-121578571D01*
X225238571Y-121221428D01*
X225310000Y-121078571D01*
X225381428Y-121007142D01*
X225524285Y-120935714D01*
X225667142Y-120935714D01*
X225881428Y-121007142D01*
X226738571Y-121864285D01*
X226738571Y-120935714D01*
X225738571Y-119650000D02*
X226738571Y-119650000D01*
X225167142Y-120007142D02*
X226238571Y-120364285D01*
X226238571Y-119435714D01*
X222714428Y-121792857D02*
X222643000Y-121721428D01*
X222571571Y-121578571D01*
X222571571Y-121221428D01*
X222643000Y-121078571D01*
X222714428Y-121007142D01*
X222857285Y-120935714D01*
X223000142Y-120935714D01*
X223214428Y-121007142D01*
X224071571Y-121864285D01*
X224071571Y-120935714D01*
X222571571Y-120435714D02*
X222571571Y-119507142D01*
X223143000Y-120007142D01*
X223143000Y-119792857D01*
X223214428Y-119650000D01*
X223285857Y-119578571D01*
X223428714Y-119507142D01*
X223785857Y-119507142D01*
X223928714Y-119578571D01*
X224000142Y-119650000D01*
X224071571Y-119792857D01*
X224071571Y-120221428D01*
X224000142Y-120364285D01*
X223928714Y-120435714D01*
X220301428Y-121792857D02*
X220230000Y-121721428D01*
X220158571Y-121578571D01*
X220158571Y-121221428D01*
X220230000Y-121078571D01*
X220301428Y-121007142D01*
X220444285Y-120935714D01*
X220587142Y-120935714D01*
X220801428Y-121007142D01*
X221658571Y-121864285D01*
X221658571Y-120935714D01*
X220301428Y-120364285D02*
X220230000Y-120292857D01*
X220158571Y-120150000D01*
X220158571Y-119792857D01*
X220230000Y-119650000D01*
X220301428Y-119578571D01*
X220444285Y-119507142D01*
X220587142Y-119507142D01*
X220801428Y-119578571D01*
X221658571Y-120435714D01*
X221658571Y-119507142D01*
X217761428Y-121792857D02*
X217690000Y-121721428D01*
X217618571Y-121578571D01*
X217618571Y-121221428D01*
X217690000Y-121078571D01*
X217761428Y-121007142D01*
X217904285Y-120935714D01*
X218047142Y-120935714D01*
X218261428Y-121007142D01*
X219118571Y-121864285D01*
X219118571Y-120935714D01*
X219118571Y-119507142D02*
X219118571Y-120364285D01*
X219118571Y-119935714D02*
X217618571Y-119935714D01*
X217832857Y-120078571D01*
X217975714Y-120221428D01*
X218047142Y-120364285D01*
X215221428Y-121665857D02*
X215150000Y-121594428D01*
X215078571Y-121451571D01*
X215078571Y-121094428D01*
X215150000Y-120951571D01*
X215221428Y-120880142D01*
X215364285Y-120808714D01*
X215507142Y-120808714D01*
X215721428Y-120880142D01*
X216578571Y-121737285D01*
X216578571Y-120808714D01*
X215078571Y-119880142D02*
X215078571Y-119737285D01*
X215150000Y-119594428D01*
X215221428Y-119523000D01*
X215364285Y-119451571D01*
X215650000Y-119380142D01*
X216007142Y-119380142D01*
X216292857Y-119451571D01*
X216435714Y-119523000D01*
X216507142Y-119594428D01*
X216578571Y-119737285D01*
X216578571Y-119880142D01*
X216507142Y-120023000D01*
X216435714Y-120094428D01*
X216292857Y-120165857D01*
X216007142Y-120237285D01*
X215650000Y-120237285D01*
X215364285Y-120165857D01*
X215221428Y-120094428D01*
X215150000Y-120023000D01*
X215078571Y-119880142D01*
X214038571Y-120935714D02*
X214038571Y-121792857D01*
X214038571Y-121364285D02*
X212538571Y-121364285D01*
X212752857Y-121507142D01*
X212895714Y-121650000D01*
X212967142Y-121792857D01*
X214038571Y-120221428D02*
X214038571Y-119935714D01*
X213967142Y-119792857D01*
X213895714Y-119721428D01*
X213681428Y-119578571D01*
X213395714Y-119507142D01*
X212824285Y-119507142D01*
X212681428Y-119578571D01*
X212610000Y-119650000D01*
X212538571Y-119792857D01*
X212538571Y-120078571D01*
X212610000Y-120221428D01*
X212681428Y-120292857D01*
X212824285Y-120364285D01*
X213181428Y-120364285D01*
X213324285Y-120292857D01*
X213395714Y-120221428D01*
X213467142Y-120078571D01*
X213467142Y-119792857D01*
X213395714Y-119650000D01*
X213324285Y-119578571D01*
X213181428Y-119507142D01*
X211498571Y-120935714D02*
X211498571Y-121792857D01*
X211498571Y-121364285D02*
X209998571Y-121364285D01*
X210212857Y-121507142D01*
X210355714Y-121650000D01*
X210427142Y-121792857D01*
X210641428Y-120078571D02*
X210570000Y-120221428D01*
X210498571Y-120292857D01*
X210355714Y-120364285D01*
X210284285Y-120364285D01*
X210141428Y-120292857D01*
X210070000Y-120221428D01*
X209998571Y-120078571D01*
X209998571Y-119792857D01*
X210070000Y-119650000D01*
X210141428Y-119578571D01*
X210284285Y-119507142D01*
X210355714Y-119507142D01*
X210498571Y-119578571D01*
X210570000Y-119650000D01*
X210641428Y-119792857D01*
X210641428Y-120078571D01*
X210712857Y-120221428D01*
X210784285Y-120292857D01*
X210927142Y-120364285D01*
X211212857Y-120364285D01*
X211355714Y-120292857D01*
X211427142Y-120221428D01*
X211498571Y-120078571D01*
X211498571Y-119792857D01*
X211427142Y-119650000D01*
X211355714Y-119578571D01*
X211212857Y-119507142D01*
X210927142Y-119507142D01*
X210784285Y-119578571D01*
X210712857Y-119650000D01*
X210641428Y-119792857D01*
X208958571Y-120935714D02*
X208958571Y-121792857D01*
X208958571Y-121364285D02*
X207458571Y-121364285D01*
X207672857Y-121507142D01*
X207815714Y-121650000D01*
X207887142Y-121792857D01*
X207458571Y-120435714D02*
X207458571Y-119435714D01*
X208958571Y-120078571D01*
X206545571Y-120935714D02*
X206545571Y-121792857D01*
X206545571Y-121364285D02*
X205045571Y-121364285D01*
X205259857Y-121507142D01*
X205402714Y-121650000D01*
X205474142Y-121792857D01*
X205045571Y-119650000D02*
X205045571Y-119935714D01*
X205117000Y-120078571D01*
X205188428Y-120150000D01*
X205402714Y-120292857D01*
X205688428Y-120364285D01*
X206259857Y-120364285D01*
X206402714Y-120292857D01*
X206474142Y-120221428D01*
X206545571Y-120078571D01*
X206545571Y-119792857D01*
X206474142Y-119650000D01*
X206402714Y-119578571D01*
X206259857Y-119507142D01*
X205902714Y-119507142D01*
X205759857Y-119578571D01*
X205688428Y-119650000D01*
X205617000Y-119792857D01*
X205617000Y-120078571D01*
X205688428Y-120221428D01*
X205759857Y-120292857D01*
X205902714Y-120364285D01*
X203878571Y-120935714D02*
X203878571Y-121792857D01*
X203878571Y-121364285D02*
X202378571Y-121364285D01*
X202592857Y-121507142D01*
X202735714Y-121650000D01*
X202807142Y-121792857D01*
X202378571Y-119578571D02*
X202378571Y-120292857D01*
X203092857Y-120364285D01*
X203021428Y-120292857D01*
X202950000Y-120150000D01*
X202950000Y-119792857D01*
X203021428Y-119650000D01*
X203092857Y-119578571D01*
X203235714Y-119507142D01*
X203592857Y-119507142D01*
X203735714Y-119578571D01*
X203807142Y-119650000D01*
X203878571Y-119792857D01*
X203878571Y-120150000D01*
X203807142Y-120292857D01*
X203735714Y-120364285D01*
X201211571Y-120935714D02*
X201211571Y-121792857D01*
X201211571Y-121364285D02*
X199711571Y-121364285D01*
X199925857Y-121507142D01*
X200068714Y-121650000D01*
X200140142Y-121792857D01*
X200211571Y-119650000D02*
X201211571Y-119650000D01*
X199640142Y-120007142D02*
X200711571Y-120364285D01*
X200711571Y-119435714D01*
X198798571Y-120935714D02*
X198798571Y-121792857D01*
X198798571Y-121364285D02*
X197298571Y-121364285D01*
X197512857Y-121507142D01*
X197655714Y-121650000D01*
X197727142Y-121792857D01*
X197298571Y-120435714D02*
X197298571Y-119507142D01*
X197870000Y-120007142D01*
X197870000Y-119792857D01*
X197941428Y-119650000D01*
X198012857Y-119578571D01*
X198155714Y-119507142D01*
X198512857Y-119507142D01*
X198655714Y-119578571D01*
X198727142Y-119650000D01*
X198798571Y-119792857D01*
X198798571Y-120221428D01*
X198727142Y-120364285D01*
X198655714Y-120435714D01*
X196258571Y-120935714D02*
X196258571Y-121792857D01*
X196258571Y-121364285D02*
X194758571Y-121364285D01*
X194972857Y-121507142D01*
X195115714Y-121650000D01*
X195187142Y-121792857D01*
X194901428Y-120364285D02*
X194830000Y-120292857D01*
X194758571Y-120150000D01*
X194758571Y-119792857D01*
X194830000Y-119650000D01*
X194901428Y-119578571D01*
X195044285Y-119507142D01*
X195187142Y-119507142D01*
X195401428Y-119578571D01*
X196258571Y-120435714D01*
X196258571Y-119507142D01*
X193591571Y-120935714D02*
X193591571Y-121792857D01*
X193591571Y-121364285D02*
X192091571Y-121364285D01*
X192305857Y-121507142D01*
X192448714Y-121650000D01*
X192520142Y-121792857D01*
X193591571Y-119507142D02*
X193591571Y-120364285D01*
X193591571Y-119935714D02*
X192091571Y-119935714D01*
X192305857Y-120078571D01*
X192448714Y-120221428D01*
X192520142Y-120364285D01*
X191178571Y-120935714D02*
X191178571Y-121792857D01*
X191178571Y-121364285D02*
X189678571Y-121364285D01*
X189892857Y-121507142D01*
X190035714Y-121650000D01*
X190107142Y-121792857D01*
X189678571Y-120007142D02*
X189678571Y-119864285D01*
X189750000Y-119721428D01*
X189821428Y-119650000D01*
X189964285Y-119578571D01*
X190250000Y-119507142D01*
X190607142Y-119507142D01*
X190892857Y-119578571D01*
X191035714Y-119650000D01*
X191107142Y-119721428D01*
X191178571Y-119864285D01*
X191178571Y-120007142D01*
X191107142Y-120150000D01*
X191035714Y-120221428D01*
X190892857Y-120292857D01*
X190607142Y-120364285D01*
X190250000Y-120364285D01*
X189964285Y-120292857D01*
X189821428Y-120221428D01*
X189750000Y-120150000D01*
X189678571Y-120007142D01*
X188638571Y-120935714D02*
X188638571Y-120650000D01*
X188567142Y-120507142D01*
X188495714Y-120435714D01*
X188281428Y-120292857D01*
X187995714Y-120221428D01*
X187424285Y-120221428D01*
X187281428Y-120292857D01*
X187210000Y-120364285D01*
X187138571Y-120507142D01*
X187138571Y-120792857D01*
X187210000Y-120935714D01*
X187281428Y-121007142D01*
X187424285Y-121078571D01*
X187781428Y-121078571D01*
X187924285Y-121007142D01*
X187995714Y-120935714D01*
X188067142Y-120792857D01*
X188067142Y-120507142D01*
X187995714Y-120364285D01*
X187924285Y-120292857D01*
X187781428Y-120221428D01*
X185241428Y-120792857D02*
X185170000Y-120935714D01*
X185098571Y-121007142D01*
X184955714Y-121078571D01*
X184884285Y-121078571D01*
X184741428Y-121007142D01*
X184670000Y-120935714D01*
X184598571Y-120792857D01*
X184598571Y-120507142D01*
X184670000Y-120364285D01*
X184741428Y-120292857D01*
X184884285Y-120221428D01*
X184955714Y-120221428D01*
X185098571Y-120292857D01*
X185170000Y-120364285D01*
X185241428Y-120507142D01*
X185241428Y-120792857D01*
X185312857Y-120935714D01*
X185384285Y-121007142D01*
X185527142Y-121078571D01*
X185812857Y-121078571D01*
X185955714Y-121007142D01*
X186027142Y-120935714D01*
X186098571Y-120792857D01*
X186098571Y-120507142D01*
X186027142Y-120364285D01*
X185955714Y-120292857D01*
X185812857Y-120221428D01*
X185527142Y-120221428D01*
X185384285Y-120292857D01*
X185312857Y-120364285D01*
X185241428Y-120507142D01*
X182058571Y-121150000D02*
X182058571Y-120150000D01*
X183558571Y-120792857D01*
X179518571Y-120364285D02*
X179518571Y-120650000D01*
X179590000Y-120792857D01*
X179661428Y-120864285D01*
X179875714Y-121007142D01*
X180161428Y-121078571D01*
X180732857Y-121078571D01*
X180875714Y-121007142D01*
X180947142Y-120935714D01*
X181018571Y-120792857D01*
X181018571Y-120507142D01*
X180947142Y-120364285D01*
X180875714Y-120292857D01*
X180732857Y-120221428D01*
X180375714Y-120221428D01*
X180232857Y-120292857D01*
X180161428Y-120364285D01*
X180090000Y-120507142D01*
X180090000Y-120792857D01*
X180161428Y-120935714D01*
X180232857Y-121007142D01*
X180375714Y-121078571D01*
X176978571Y-120292857D02*
X176978571Y-121007142D01*
X177692857Y-121078571D01*
X177621428Y-121007142D01*
X177550000Y-120864285D01*
X177550000Y-120507142D01*
X177621428Y-120364285D01*
X177692857Y-120292857D01*
X177835714Y-120221428D01*
X178192857Y-120221428D01*
X178335714Y-120292857D01*
X178407142Y-120364285D01*
X178478571Y-120507142D01*
X178478571Y-120864285D01*
X178407142Y-121007142D01*
X178335714Y-121078571D01*
X174938571Y-120364285D02*
X175938571Y-120364285D01*
X174367142Y-120721428D02*
X175438571Y-121078571D01*
X175438571Y-120150000D01*
X171898571Y-121150000D02*
X171898571Y-120221428D01*
X172470000Y-120721428D01*
X172470000Y-120507142D01*
X172541428Y-120364285D01*
X172612857Y-120292857D01*
X172755714Y-120221428D01*
X173112857Y-120221428D01*
X173255714Y-120292857D01*
X173327142Y-120364285D01*
X173398571Y-120507142D01*
X173398571Y-120935714D01*
X173327142Y-121078571D01*
X173255714Y-121150000D01*
X169501428Y-121078571D02*
X169430000Y-121007142D01*
X169358571Y-120864285D01*
X169358571Y-120507142D01*
X169430000Y-120364285D01*
X169501428Y-120292857D01*
X169644285Y-120221428D01*
X169787142Y-120221428D01*
X170001428Y-120292857D01*
X170858571Y-121150000D01*
X170858571Y-120221428D01*
X168318571Y-120221428D02*
X168318571Y-121078571D01*
X168318571Y-120650000D02*
X166818571Y-120650000D01*
X167032857Y-120792857D01*
X167175714Y-120935714D01*
X167247142Y-121078571D01*
X165778571Y-122412000D02*
X165778571Y-123269142D01*
X165778571Y-122840571D02*
X164278571Y-122840571D01*
X164492857Y-122983428D01*
X164635714Y-123126285D01*
X164707142Y-123269142D01*
X164278571Y-121483428D02*
X164278571Y-121340571D01*
X164350000Y-121197714D01*
X164421428Y-121126285D01*
X164564285Y-121054857D01*
X164850000Y-120983428D01*
X165207142Y-120983428D01*
X165492857Y-121054857D01*
X165635714Y-121126285D01*
X165707142Y-121197714D01*
X165778571Y-121340571D01*
X165778571Y-121483428D01*
X165707142Y-121626285D01*
X165635714Y-121697714D01*
X165492857Y-121769142D01*
X165207142Y-121840571D01*
X164850000Y-121840571D01*
X164564285Y-121769142D01*
X164421428Y-121697714D01*
X164350000Y-121626285D01*
X164278571Y-121483428D01*
X164278571Y-120054857D02*
X164278571Y-119912000D01*
X164350000Y-119769142D01*
X164421428Y-119697714D01*
X164564285Y-119626285D01*
X164850000Y-119554857D01*
X165207142Y-119554857D01*
X165492857Y-119626285D01*
X165635714Y-119697714D01*
X165707142Y-119769142D01*
X165778571Y-119912000D01*
X165778571Y-120054857D01*
X165707142Y-120197714D01*
X165635714Y-120269142D01*
X165492857Y-120340571D01*
X165207142Y-120412000D01*
X164850000Y-120412000D01*
X164564285Y-120340571D01*
X164421428Y-120269142D01*
X164350000Y-120197714D01*
X164278571Y-120054857D01*
X163238571Y-121650000D02*
X163238571Y-121364285D01*
X163167142Y-121221428D01*
X163095714Y-121150000D01*
X162881428Y-121007142D01*
X162595714Y-120935714D01*
X162024285Y-120935714D01*
X161881428Y-121007142D01*
X161810000Y-121078571D01*
X161738571Y-121221428D01*
X161738571Y-121507142D01*
X161810000Y-121650000D01*
X161881428Y-121721428D01*
X162024285Y-121792857D01*
X162381428Y-121792857D01*
X162524285Y-121721428D01*
X162595714Y-121650000D01*
X162667142Y-121507142D01*
X162667142Y-121221428D01*
X162595714Y-121078571D01*
X162524285Y-121007142D01*
X162381428Y-120935714D01*
X163238571Y-120221428D02*
X163238571Y-119935714D01*
X163167142Y-119792857D01*
X163095714Y-119721428D01*
X162881428Y-119578571D01*
X162595714Y-119507142D01*
X162024285Y-119507142D01*
X161881428Y-119578571D01*
X161810000Y-119650000D01*
X161738571Y-119792857D01*
X161738571Y-120078571D01*
X161810000Y-120221428D01*
X161881428Y-120292857D01*
X162024285Y-120364285D01*
X162381428Y-120364285D01*
X162524285Y-120292857D01*
X162595714Y-120221428D01*
X162667142Y-120078571D01*
X162667142Y-119792857D01*
X162595714Y-119650000D01*
X162524285Y-119578571D01*
X162381428Y-119507142D01*
X160698571Y-121650000D02*
X160698571Y-121364285D01*
X160627142Y-121221428D01*
X160555714Y-121150000D01*
X160341428Y-121007142D01*
X160055714Y-120935714D01*
X159484285Y-120935714D01*
X159341428Y-121007142D01*
X159270000Y-121078571D01*
X159198571Y-121221428D01*
X159198571Y-121507142D01*
X159270000Y-121650000D01*
X159341428Y-121721428D01*
X159484285Y-121792857D01*
X159841428Y-121792857D01*
X159984285Y-121721428D01*
X160055714Y-121650000D01*
X160127142Y-121507142D01*
X160127142Y-121221428D01*
X160055714Y-121078571D01*
X159984285Y-121007142D01*
X159841428Y-120935714D01*
X159841428Y-120078571D02*
X159770000Y-120221428D01*
X159698571Y-120292857D01*
X159555714Y-120364285D01*
X159484285Y-120364285D01*
X159341428Y-120292857D01*
X159270000Y-120221428D01*
X159198571Y-120078571D01*
X159198571Y-119792857D01*
X159270000Y-119650000D01*
X159341428Y-119578571D01*
X159484285Y-119507142D01*
X159555714Y-119507142D01*
X159698571Y-119578571D01*
X159770000Y-119650000D01*
X159841428Y-119792857D01*
X159841428Y-120078571D01*
X159912857Y-120221428D01*
X159984285Y-120292857D01*
X160127142Y-120364285D01*
X160412857Y-120364285D01*
X160555714Y-120292857D01*
X160627142Y-120221428D01*
X160698571Y-120078571D01*
X160698571Y-119792857D01*
X160627142Y-119650000D01*
X160555714Y-119578571D01*
X160412857Y-119507142D01*
X160127142Y-119507142D01*
X159984285Y-119578571D01*
X159912857Y-119650000D01*
X159841428Y-119792857D01*
X158158571Y-121650000D02*
X158158571Y-121364285D01*
X158087142Y-121221428D01*
X158015714Y-121150000D01*
X157801428Y-121007142D01*
X157515714Y-120935714D01*
X156944285Y-120935714D01*
X156801428Y-121007142D01*
X156730000Y-121078571D01*
X156658571Y-121221428D01*
X156658571Y-121507142D01*
X156730000Y-121650000D01*
X156801428Y-121721428D01*
X156944285Y-121792857D01*
X157301428Y-121792857D01*
X157444285Y-121721428D01*
X157515714Y-121650000D01*
X157587142Y-121507142D01*
X157587142Y-121221428D01*
X157515714Y-121078571D01*
X157444285Y-121007142D01*
X157301428Y-120935714D01*
X156658571Y-120435714D02*
X156658571Y-119435714D01*
X158158571Y-120078571D01*
X155618571Y-121650000D02*
X155618571Y-121364285D01*
X155547142Y-121221428D01*
X155475714Y-121150000D01*
X155261428Y-121007142D01*
X154975714Y-120935714D01*
X154404285Y-120935714D01*
X154261428Y-121007142D01*
X154190000Y-121078571D01*
X154118571Y-121221428D01*
X154118571Y-121507142D01*
X154190000Y-121650000D01*
X154261428Y-121721428D01*
X154404285Y-121792857D01*
X154761428Y-121792857D01*
X154904285Y-121721428D01*
X154975714Y-121650000D01*
X155047142Y-121507142D01*
X155047142Y-121221428D01*
X154975714Y-121078571D01*
X154904285Y-121007142D01*
X154761428Y-120935714D01*
X154118571Y-119650000D02*
X154118571Y-119935714D01*
X154190000Y-120078571D01*
X154261428Y-120150000D01*
X154475714Y-120292857D01*
X154761428Y-120364285D01*
X155332857Y-120364285D01*
X155475714Y-120292857D01*
X155547142Y-120221428D01*
X155618571Y-120078571D01*
X155618571Y-119792857D01*
X155547142Y-119650000D01*
X155475714Y-119578571D01*
X155332857Y-119507142D01*
X154975714Y-119507142D01*
X154832857Y-119578571D01*
X154761428Y-119650000D01*
X154690000Y-119792857D01*
X154690000Y-120078571D01*
X154761428Y-120221428D01*
X154832857Y-120292857D01*
X154975714Y-120364285D01*
X153078571Y-121650000D02*
X153078571Y-121364285D01*
X153007142Y-121221428D01*
X152935714Y-121150000D01*
X152721428Y-121007142D01*
X152435714Y-120935714D01*
X151864285Y-120935714D01*
X151721428Y-121007142D01*
X151650000Y-121078571D01*
X151578571Y-121221428D01*
X151578571Y-121507142D01*
X151650000Y-121650000D01*
X151721428Y-121721428D01*
X151864285Y-121792857D01*
X152221428Y-121792857D01*
X152364285Y-121721428D01*
X152435714Y-121650000D01*
X152507142Y-121507142D01*
X152507142Y-121221428D01*
X152435714Y-121078571D01*
X152364285Y-121007142D01*
X152221428Y-120935714D01*
X151578571Y-119578571D02*
X151578571Y-120292857D01*
X152292857Y-120364285D01*
X152221428Y-120292857D01*
X152150000Y-120150000D01*
X152150000Y-119792857D01*
X152221428Y-119650000D01*
X152292857Y-119578571D01*
X152435714Y-119507142D01*
X152792857Y-119507142D01*
X152935714Y-119578571D01*
X153007142Y-119650000D01*
X153078571Y-119792857D01*
X153078571Y-120150000D01*
X153007142Y-120292857D01*
X152935714Y-120364285D01*
X150411571Y-121650000D02*
X150411571Y-121364285D01*
X150340142Y-121221428D01*
X150268714Y-121150000D01*
X150054428Y-121007142D01*
X149768714Y-120935714D01*
X149197285Y-120935714D01*
X149054428Y-121007142D01*
X148983000Y-121078571D01*
X148911571Y-121221428D01*
X148911571Y-121507142D01*
X148983000Y-121650000D01*
X149054428Y-121721428D01*
X149197285Y-121792857D01*
X149554428Y-121792857D01*
X149697285Y-121721428D01*
X149768714Y-121650000D01*
X149840142Y-121507142D01*
X149840142Y-121221428D01*
X149768714Y-121078571D01*
X149697285Y-121007142D01*
X149554428Y-120935714D01*
X149411571Y-119650000D02*
X150411571Y-119650000D01*
X148840142Y-120007142D02*
X149911571Y-120364285D01*
X149911571Y-119435714D01*
X147998571Y-121650000D02*
X147998571Y-121364285D01*
X147927142Y-121221428D01*
X147855714Y-121150000D01*
X147641428Y-121007142D01*
X147355714Y-120935714D01*
X146784285Y-120935714D01*
X146641428Y-121007142D01*
X146570000Y-121078571D01*
X146498571Y-121221428D01*
X146498571Y-121507142D01*
X146570000Y-121650000D01*
X146641428Y-121721428D01*
X146784285Y-121792857D01*
X147141428Y-121792857D01*
X147284285Y-121721428D01*
X147355714Y-121650000D01*
X147427142Y-121507142D01*
X147427142Y-121221428D01*
X147355714Y-121078571D01*
X147284285Y-121007142D01*
X147141428Y-120935714D01*
X146498571Y-120435714D02*
X146498571Y-119507142D01*
X147070000Y-120007142D01*
X147070000Y-119792857D01*
X147141428Y-119650000D01*
X147212857Y-119578571D01*
X147355714Y-119507142D01*
X147712857Y-119507142D01*
X147855714Y-119578571D01*
X147927142Y-119650000D01*
X147998571Y-119792857D01*
X147998571Y-120221428D01*
X147927142Y-120364285D01*
X147855714Y-120435714D01*
X145458571Y-121650000D02*
X145458571Y-121364285D01*
X145387142Y-121221428D01*
X145315714Y-121150000D01*
X145101428Y-121007142D01*
X144815714Y-120935714D01*
X144244285Y-120935714D01*
X144101428Y-121007142D01*
X144030000Y-121078571D01*
X143958571Y-121221428D01*
X143958571Y-121507142D01*
X144030000Y-121650000D01*
X144101428Y-121721428D01*
X144244285Y-121792857D01*
X144601428Y-121792857D01*
X144744285Y-121721428D01*
X144815714Y-121650000D01*
X144887142Y-121507142D01*
X144887142Y-121221428D01*
X144815714Y-121078571D01*
X144744285Y-121007142D01*
X144601428Y-120935714D01*
X144101428Y-120364285D02*
X144030000Y-120292857D01*
X143958571Y-120150000D01*
X143958571Y-119792857D01*
X144030000Y-119650000D01*
X144101428Y-119578571D01*
X144244285Y-119507142D01*
X144387142Y-119507142D01*
X144601428Y-119578571D01*
X145458571Y-120435714D01*
X145458571Y-119507142D01*
X142918571Y-121650000D02*
X142918571Y-121364285D01*
X142847142Y-121221428D01*
X142775714Y-121150000D01*
X142561428Y-121007142D01*
X142275714Y-120935714D01*
X141704285Y-120935714D01*
X141561428Y-121007142D01*
X141490000Y-121078571D01*
X141418571Y-121221428D01*
X141418571Y-121507142D01*
X141490000Y-121650000D01*
X141561428Y-121721428D01*
X141704285Y-121792857D01*
X142061428Y-121792857D01*
X142204285Y-121721428D01*
X142275714Y-121650000D01*
X142347142Y-121507142D01*
X142347142Y-121221428D01*
X142275714Y-121078571D01*
X142204285Y-121007142D01*
X142061428Y-120935714D01*
X142918571Y-119507142D02*
X142918571Y-120364285D01*
X142918571Y-119935714D02*
X141418571Y-119935714D01*
X141632857Y-120078571D01*
X141775714Y-120221428D01*
X141847142Y-120364285D01*
X140378571Y-121650000D02*
X140378571Y-121364285D01*
X140307142Y-121221428D01*
X140235714Y-121150000D01*
X140021428Y-121007142D01*
X139735714Y-120935714D01*
X139164285Y-120935714D01*
X139021428Y-121007142D01*
X138950000Y-121078571D01*
X138878571Y-121221428D01*
X138878571Y-121507142D01*
X138950000Y-121650000D01*
X139021428Y-121721428D01*
X139164285Y-121792857D01*
X139521428Y-121792857D01*
X139664285Y-121721428D01*
X139735714Y-121650000D01*
X139807142Y-121507142D01*
X139807142Y-121221428D01*
X139735714Y-121078571D01*
X139664285Y-121007142D01*
X139521428Y-120935714D01*
X138878571Y-120007142D02*
X138878571Y-119864285D01*
X138950000Y-119721428D01*
X139021428Y-119650000D01*
X139164285Y-119578571D01*
X139450000Y-119507142D01*
X139807142Y-119507142D01*
X140092857Y-119578571D01*
X140235714Y-119650000D01*
X140307142Y-119721428D01*
X140378571Y-119864285D01*
X140378571Y-120007142D01*
X140307142Y-120150000D01*
X140235714Y-120221428D01*
X140092857Y-120292857D01*
X139807142Y-120364285D01*
X139450000Y-120364285D01*
X139164285Y-120292857D01*
X139021428Y-120221428D01*
X138950000Y-120150000D01*
X138878571Y-120007142D01*
X136981428Y-121507142D02*
X136910000Y-121650000D01*
X136838571Y-121721428D01*
X136695714Y-121792857D01*
X136624285Y-121792857D01*
X136481428Y-121721428D01*
X136410000Y-121650000D01*
X136338571Y-121507142D01*
X136338571Y-121221428D01*
X136410000Y-121078571D01*
X136481428Y-121007142D01*
X136624285Y-120935714D01*
X136695714Y-120935714D01*
X136838571Y-121007142D01*
X136910000Y-121078571D01*
X136981428Y-121221428D01*
X136981428Y-121507142D01*
X137052857Y-121650000D01*
X137124285Y-121721428D01*
X137267142Y-121792857D01*
X137552857Y-121792857D01*
X137695714Y-121721428D01*
X137767142Y-121650000D01*
X137838571Y-121507142D01*
X137838571Y-121221428D01*
X137767142Y-121078571D01*
X137695714Y-121007142D01*
X137552857Y-120935714D01*
X137267142Y-120935714D01*
X137124285Y-121007142D01*
X137052857Y-121078571D01*
X136981428Y-121221428D01*
X137838571Y-120221428D02*
X137838571Y-119935714D01*
X137767142Y-119792857D01*
X137695714Y-119721428D01*
X137481428Y-119578571D01*
X137195714Y-119507142D01*
X136624285Y-119507142D01*
X136481428Y-119578571D01*
X136410000Y-119650000D01*
X136338571Y-119792857D01*
X136338571Y-120078571D01*
X136410000Y-120221428D01*
X136481428Y-120292857D01*
X136624285Y-120364285D01*
X136981428Y-120364285D01*
X137124285Y-120292857D01*
X137195714Y-120221428D01*
X137267142Y-120078571D01*
X137267142Y-119792857D01*
X137195714Y-119650000D01*
X137124285Y-119578571D01*
X136981428Y-119507142D01*
X134441428Y-121507142D02*
X134370000Y-121650000D01*
X134298571Y-121721428D01*
X134155714Y-121792857D01*
X134084285Y-121792857D01*
X133941428Y-121721428D01*
X133870000Y-121650000D01*
X133798571Y-121507142D01*
X133798571Y-121221428D01*
X133870000Y-121078571D01*
X133941428Y-121007142D01*
X134084285Y-120935714D01*
X134155714Y-120935714D01*
X134298571Y-121007142D01*
X134370000Y-121078571D01*
X134441428Y-121221428D01*
X134441428Y-121507142D01*
X134512857Y-121650000D01*
X134584285Y-121721428D01*
X134727142Y-121792857D01*
X135012857Y-121792857D01*
X135155714Y-121721428D01*
X135227142Y-121650000D01*
X135298571Y-121507142D01*
X135298571Y-121221428D01*
X135227142Y-121078571D01*
X135155714Y-121007142D01*
X135012857Y-120935714D01*
X134727142Y-120935714D01*
X134584285Y-121007142D01*
X134512857Y-121078571D01*
X134441428Y-121221428D01*
X134441428Y-120078571D02*
X134370000Y-120221428D01*
X134298571Y-120292857D01*
X134155714Y-120364285D01*
X134084285Y-120364285D01*
X133941428Y-120292857D01*
X133870000Y-120221428D01*
X133798571Y-120078571D01*
X133798571Y-119792857D01*
X133870000Y-119650000D01*
X133941428Y-119578571D01*
X134084285Y-119507142D01*
X134155714Y-119507142D01*
X134298571Y-119578571D01*
X134370000Y-119650000D01*
X134441428Y-119792857D01*
X134441428Y-120078571D01*
X134512857Y-120221428D01*
X134584285Y-120292857D01*
X134727142Y-120364285D01*
X135012857Y-120364285D01*
X135155714Y-120292857D01*
X135227142Y-120221428D01*
X135298571Y-120078571D01*
X135298571Y-119792857D01*
X135227142Y-119650000D01*
X135155714Y-119578571D01*
X135012857Y-119507142D01*
X134727142Y-119507142D01*
X134584285Y-119578571D01*
X134512857Y-119650000D01*
X134441428Y-119792857D01*
X131901428Y-121507142D02*
X131830000Y-121650000D01*
X131758571Y-121721428D01*
X131615714Y-121792857D01*
X131544285Y-121792857D01*
X131401428Y-121721428D01*
X131330000Y-121650000D01*
X131258571Y-121507142D01*
X131258571Y-121221428D01*
X131330000Y-121078571D01*
X131401428Y-121007142D01*
X131544285Y-120935714D01*
X131615714Y-120935714D01*
X131758571Y-121007142D01*
X131830000Y-121078571D01*
X131901428Y-121221428D01*
X131901428Y-121507142D01*
X131972857Y-121650000D01*
X132044285Y-121721428D01*
X132187142Y-121792857D01*
X132472857Y-121792857D01*
X132615714Y-121721428D01*
X132687142Y-121650000D01*
X132758571Y-121507142D01*
X132758571Y-121221428D01*
X132687142Y-121078571D01*
X132615714Y-121007142D01*
X132472857Y-120935714D01*
X132187142Y-120935714D01*
X132044285Y-121007142D01*
X131972857Y-121078571D01*
X131901428Y-121221428D01*
X131258571Y-120435714D02*
X131258571Y-119435714D01*
X132758571Y-120078571D01*
X129361428Y-121507142D02*
X129290000Y-121650000D01*
X129218571Y-121721428D01*
X129075714Y-121792857D01*
X129004285Y-121792857D01*
X128861428Y-121721428D01*
X128790000Y-121650000D01*
X128718571Y-121507142D01*
X128718571Y-121221428D01*
X128790000Y-121078571D01*
X128861428Y-121007142D01*
X129004285Y-120935714D01*
X129075714Y-120935714D01*
X129218571Y-121007142D01*
X129290000Y-121078571D01*
X129361428Y-121221428D01*
X129361428Y-121507142D01*
X129432857Y-121650000D01*
X129504285Y-121721428D01*
X129647142Y-121792857D01*
X129932857Y-121792857D01*
X130075714Y-121721428D01*
X130147142Y-121650000D01*
X130218571Y-121507142D01*
X130218571Y-121221428D01*
X130147142Y-121078571D01*
X130075714Y-121007142D01*
X129932857Y-120935714D01*
X129647142Y-120935714D01*
X129504285Y-121007142D01*
X129432857Y-121078571D01*
X129361428Y-121221428D01*
X128718571Y-119650000D02*
X128718571Y-119935714D01*
X128790000Y-120078571D01*
X128861428Y-120150000D01*
X129075714Y-120292857D01*
X129361428Y-120364285D01*
X129932857Y-120364285D01*
X130075714Y-120292857D01*
X130147142Y-120221428D01*
X130218571Y-120078571D01*
X130218571Y-119792857D01*
X130147142Y-119650000D01*
X130075714Y-119578571D01*
X129932857Y-119507142D01*
X129575714Y-119507142D01*
X129432857Y-119578571D01*
X129361428Y-119650000D01*
X129290000Y-119792857D01*
X129290000Y-120078571D01*
X129361428Y-120221428D01*
X129432857Y-120292857D01*
X129575714Y-120364285D01*
X126821428Y-121507142D02*
X126750000Y-121650000D01*
X126678571Y-121721428D01*
X126535714Y-121792857D01*
X126464285Y-121792857D01*
X126321428Y-121721428D01*
X126250000Y-121650000D01*
X126178571Y-121507142D01*
X126178571Y-121221428D01*
X126250000Y-121078571D01*
X126321428Y-121007142D01*
X126464285Y-120935714D01*
X126535714Y-120935714D01*
X126678571Y-121007142D01*
X126750000Y-121078571D01*
X126821428Y-121221428D01*
X126821428Y-121507142D01*
X126892857Y-121650000D01*
X126964285Y-121721428D01*
X127107142Y-121792857D01*
X127392857Y-121792857D01*
X127535714Y-121721428D01*
X127607142Y-121650000D01*
X127678571Y-121507142D01*
X127678571Y-121221428D01*
X127607142Y-121078571D01*
X127535714Y-121007142D01*
X127392857Y-120935714D01*
X127107142Y-120935714D01*
X126964285Y-121007142D01*
X126892857Y-121078571D01*
X126821428Y-121221428D01*
X126178571Y-119578571D02*
X126178571Y-120292857D01*
X126892857Y-120364285D01*
X126821428Y-120292857D01*
X126750000Y-120150000D01*
X126750000Y-119792857D01*
X126821428Y-119650000D01*
X126892857Y-119578571D01*
X127035714Y-119507142D01*
X127392857Y-119507142D01*
X127535714Y-119578571D01*
X127607142Y-119650000D01*
X127678571Y-119792857D01*
X127678571Y-120150000D01*
X127607142Y-120292857D01*
X127535714Y-120364285D01*
X124281428Y-121507142D02*
X124210000Y-121650000D01*
X124138571Y-121721428D01*
X123995714Y-121792857D01*
X123924285Y-121792857D01*
X123781428Y-121721428D01*
X123710000Y-121650000D01*
X123638571Y-121507142D01*
X123638571Y-121221428D01*
X123710000Y-121078571D01*
X123781428Y-121007142D01*
X123924285Y-120935714D01*
X123995714Y-120935714D01*
X124138571Y-121007142D01*
X124210000Y-121078571D01*
X124281428Y-121221428D01*
X124281428Y-121507142D01*
X124352857Y-121650000D01*
X124424285Y-121721428D01*
X124567142Y-121792857D01*
X124852857Y-121792857D01*
X124995714Y-121721428D01*
X125067142Y-121650000D01*
X125138571Y-121507142D01*
X125138571Y-121221428D01*
X125067142Y-121078571D01*
X124995714Y-121007142D01*
X124852857Y-120935714D01*
X124567142Y-120935714D01*
X124424285Y-121007142D01*
X124352857Y-121078571D01*
X124281428Y-121221428D01*
X124138571Y-119650000D02*
X125138571Y-119650000D01*
X123567142Y-120007142D02*
X124638571Y-120364285D01*
X124638571Y-119435714D01*
X121741428Y-121507142D02*
X121670000Y-121650000D01*
X121598571Y-121721428D01*
X121455714Y-121792857D01*
X121384285Y-121792857D01*
X121241428Y-121721428D01*
X121170000Y-121650000D01*
X121098571Y-121507142D01*
X121098571Y-121221428D01*
X121170000Y-121078571D01*
X121241428Y-121007142D01*
X121384285Y-120935714D01*
X121455714Y-120935714D01*
X121598571Y-121007142D01*
X121670000Y-121078571D01*
X121741428Y-121221428D01*
X121741428Y-121507142D01*
X121812857Y-121650000D01*
X121884285Y-121721428D01*
X122027142Y-121792857D01*
X122312857Y-121792857D01*
X122455714Y-121721428D01*
X122527142Y-121650000D01*
X122598571Y-121507142D01*
X122598571Y-121221428D01*
X122527142Y-121078571D01*
X122455714Y-121007142D01*
X122312857Y-120935714D01*
X122027142Y-120935714D01*
X121884285Y-121007142D01*
X121812857Y-121078571D01*
X121741428Y-121221428D01*
X121098571Y-120435714D02*
X121098571Y-119507142D01*
X121670000Y-120007142D01*
X121670000Y-119792857D01*
X121741428Y-119650000D01*
X121812857Y-119578571D01*
X121955714Y-119507142D01*
X122312857Y-119507142D01*
X122455714Y-119578571D01*
X122527142Y-119650000D01*
X122598571Y-119792857D01*
X122598571Y-120221428D01*
X122527142Y-120364285D01*
X122455714Y-120435714D01*
X119201428Y-121507142D02*
X119130000Y-121650000D01*
X119058571Y-121721428D01*
X118915714Y-121792857D01*
X118844285Y-121792857D01*
X118701428Y-121721428D01*
X118630000Y-121650000D01*
X118558571Y-121507142D01*
X118558571Y-121221428D01*
X118630000Y-121078571D01*
X118701428Y-121007142D01*
X118844285Y-120935714D01*
X118915714Y-120935714D01*
X119058571Y-121007142D01*
X119130000Y-121078571D01*
X119201428Y-121221428D01*
X119201428Y-121507142D01*
X119272857Y-121650000D01*
X119344285Y-121721428D01*
X119487142Y-121792857D01*
X119772857Y-121792857D01*
X119915714Y-121721428D01*
X119987142Y-121650000D01*
X120058571Y-121507142D01*
X120058571Y-121221428D01*
X119987142Y-121078571D01*
X119915714Y-121007142D01*
X119772857Y-120935714D01*
X119487142Y-120935714D01*
X119344285Y-121007142D01*
X119272857Y-121078571D01*
X119201428Y-121221428D01*
X118701428Y-120364285D02*
X118630000Y-120292857D01*
X118558571Y-120150000D01*
X118558571Y-119792857D01*
X118630000Y-119650000D01*
X118701428Y-119578571D01*
X118844285Y-119507142D01*
X118987142Y-119507142D01*
X119201428Y-119578571D01*
X120058571Y-120435714D01*
X120058571Y-119507142D01*
X116661428Y-121507142D02*
X116590000Y-121650000D01*
X116518571Y-121721428D01*
X116375714Y-121792857D01*
X116304285Y-121792857D01*
X116161428Y-121721428D01*
X116090000Y-121650000D01*
X116018571Y-121507142D01*
X116018571Y-121221428D01*
X116090000Y-121078571D01*
X116161428Y-121007142D01*
X116304285Y-120935714D01*
X116375714Y-120935714D01*
X116518571Y-121007142D01*
X116590000Y-121078571D01*
X116661428Y-121221428D01*
X116661428Y-121507142D01*
X116732857Y-121650000D01*
X116804285Y-121721428D01*
X116947142Y-121792857D01*
X117232857Y-121792857D01*
X117375714Y-121721428D01*
X117447142Y-121650000D01*
X117518571Y-121507142D01*
X117518571Y-121221428D01*
X117447142Y-121078571D01*
X117375714Y-121007142D01*
X117232857Y-120935714D01*
X116947142Y-120935714D01*
X116804285Y-121007142D01*
X116732857Y-121078571D01*
X116661428Y-121221428D01*
X117518571Y-119507142D02*
X117518571Y-120364285D01*
X117518571Y-119935714D02*
X116018571Y-119935714D01*
X116232857Y-120078571D01*
X116375714Y-120221428D01*
X116447142Y-120364285D01*
X114121428Y-121507142D02*
X114050000Y-121650000D01*
X113978571Y-121721428D01*
X113835714Y-121792857D01*
X113764285Y-121792857D01*
X113621428Y-121721428D01*
X113550000Y-121650000D01*
X113478571Y-121507142D01*
X113478571Y-121221428D01*
X113550000Y-121078571D01*
X113621428Y-121007142D01*
X113764285Y-120935714D01*
X113835714Y-120935714D01*
X113978571Y-121007142D01*
X114050000Y-121078571D01*
X114121428Y-121221428D01*
X114121428Y-121507142D01*
X114192857Y-121650000D01*
X114264285Y-121721428D01*
X114407142Y-121792857D01*
X114692857Y-121792857D01*
X114835714Y-121721428D01*
X114907142Y-121650000D01*
X114978571Y-121507142D01*
X114978571Y-121221428D01*
X114907142Y-121078571D01*
X114835714Y-121007142D01*
X114692857Y-120935714D01*
X114407142Y-120935714D01*
X114264285Y-121007142D01*
X114192857Y-121078571D01*
X114121428Y-121221428D01*
X113478571Y-120007142D02*
X113478571Y-119864285D01*
X113550000Y-119721428D01*
X113621428Y-119650000D01*
X113764285Y-119578571D01*
X114050000Y-119507142D01*
X114407142Y-119507142D01*
X114692857Y-119578571D01*
X114835714Y-119650000D01*
X114907142Y-119721428D01*
X114978571Y-119864285D01*
X114978571Y-120007142D01*
X114907142Y-120150000D01*
X114835714Y-120221428D01*
X114692857Y-120292857D01*
X114407142Y-120364285D01*
X114050000Y-120364285D01*
X113764285Y-120292857D01*
X113621428Y-120221428D01*
X113550000Y-120150000D01*
X113478571Y-120007142D01*
X110938571Y-121864285D02*
X110938571Y-120864285D01*
X112438571Y-121507142D01*
X112438571Y-120221428D02*
X112438571Y-119935714D01*
X112367142Y-119792857D01*
X112295714Y-119721428D01*
X112081428Y-119578571D01*
X111795714Y-119507142D01*
X111224285Y-119507142D01*
X111081428Y-119578571D01*
X111010000Y-119650000D01*
X110938571Y-119792857D01*
X110938571Y-120078571D01*
X111010000Y-120221428D01*
X111081428Y-120292857D01*
X111224285Y-120364285D01*
X111581428Y-120364285D01*
X111724285Y-120292857D01*
X111795714Y-120221428D01*
X111867142Y-120078571D01*
X111867142Y-119792857D01*
X111795714Y-119650000D01*
X111724285Y-119578571D01*
X111581428Y-119507142D01*
X108398571Y-121864285D02*
X108398571Y-120864285D01*
X109898571Y-121507142D01*
X109041428Y-120078571D02*
X108970000Y-120221428D01*
X108898571Y-120292857D01*
X108755714Y-120364285D01*
X108684285Y-120364285D01*
X108541428Y-120292857D01*
X108470000Y-120221428D01*
X108398571Y-120078571D01*
X108398571Y-119792857D01*
X108470000Y-119650000D01*
X108541428Y-119578571D01*
X108684285Y-119507142D01*
X108755714Y-119507142D01*
X108898571Y-119578571D01*
X108970000Y-119650000D01*
X109041428Y-119792857D01*
X109041428Y-120078571D01*
X109112857Y-120221428D01*
X109184285Y-120292857D01*
X109327142Y-120364285D01*
X109612857Y-120364285D01*
X109755714Y-120292857D01*
X109827142Y-120221428D01*
X109898571Y-120078571D01*
X109898571Y-119792857D01*
X109827142Y-119650000D01*
X109755714Y-119578571D01*
X109612857Y-119507142D01*
X109327142Y-119507142D01*
X109184285Y-119578571D01*
X109112857Y-119650000D01*
X109041428Y-119792857D01*
X105858571Y-121864285D02*
X105858571Y-120864285D01*
X107358571Y-121507142D01*
X105858571Y-120435714D02*
X105858571Y-119435714D01*
X107358571Y-120078571D01*
X103318571Y-121864285D02*
X103318571Y-120864285D01*
X104818571Y-121507142D01*
X103318571Y-119650000D02*
X103318571Y-119935714D01*
X103390000Y-120078571D01*
X103461428Y-120150000D01*
X103675714Y-120292857D01*
X103961428Y-120364285D01*
X104532857Y-120364285D01*
X104675714Y-120292857D01*
X104747142Y-120221428D01*
X104818571Y-120078571D01*
X104818571Y-119792857D01*
X104747142Y-119650000D01*
X104675714Y-119578571D01*
X104532857Y-119507142D01*
X104175714Y-119507142D01*
X104032857Y-119578571D01*
X103961428Y-119650000D01*
X103890000Y-119792857D01*
X103890000Y-120078571D01*
X103961428Y-120221428D01*
X104032857Y-120292857D01*
X104175714Y-120364285D01*
D11*
X166624000Y-107315000D02*
G75*
G03X166624000Y-107315000I-254000J0D01*
G01*
D12*
G04 #@! TO.C,U1*
X166638187Y-108058217D02*
X166101813Y-108058217D01*
X176266242Y-99060000D02*
X175894828Y-98688586D01*
X166370000Y-89163758D02*
X165998586Y-89535172D01*
X156473758Y-99060000D02*
X156845172Y-99431414D01*
X166370000Y-108956242D02*
X166741414Y-108584828D01*
X175894828Y-99431414D02*
X176266242Y-99060000D01*
X166741414Y-89535172D02*
X166370000Y-89163758D01*
X156845172Y-98688586D02*
X156473758Y-99060000D01*
X165998586Y-108584828D02*
X166370000Y-108956242D01*
D13*
G04 #@! TO.C,J1*
X182245000Y-115570000D02*
X183515000Y-115570000D01*
X183515000Y-115570000D02*
X184150000Y-116205000D01*
X184150000Y-117475000D02*
X183515000Y-118110000D01*
X179070000Y-116205000D02*
X179705000Y-115570000D01*
X179705000Y-115570000D02*
X180975000Y-115570000D01*
X180975000Y-115570000D02*
X181610000Y-116205000D01*
X181610000Y-117475000D02*
X180975000Y-118110000D01*
X180975000Y-118110000D02*
X179705000Y-118110000D01*
X179705000Y-118110000D02*
X179070000Y-117475000D01*
X182245000Y-115570000D02*
X181610000Y-116205000D01*
X181610000Y-117475000D02*
X182245000Y-118110000D01*
X183515000Y-118110000D02*
X182245000Y-118110000D01*
X174625000Y-115570000D02*
X175895000Y-115570000D01*
X175895000Y-115570000D02*
X176530000Y-116205000D01*
X176530000Y-117475000D02*
X175895000Y-118110000D01*
X176530000Y-116205000D02*
X177165000Y-115570000D01*
X177165000Y-115570000D02*
X178435000Y-115570000D01*
X178435000Y-115570000D02*
X179070000Y-116205000D01*
X179070000Y-117475000D02*
X178435000Y-118110000D01*
X178435000Y-118110000D02*
X177165000Y-118110000D01*
X177165000Y-118110000D02*
X176530000Y-117475000D01*
X171450000Y-116205000D02*
X172085000Y-115570000D01*
X172085000Y-115570000D02*
X173355000Y-115570000D01*
X173355000Y-115570000D02*
X173990000Y-116205000D01*
X173990000Y-117475000D02*
X173355000Y-118110000D01*
X173355000Y-118110000D02*
X172085000Y-118110000D01*
X172085000Y-118110000D02*
X171450000Y-117475000D01*
X174625000Y-115570000D02*
X173990000Y-116205000D01*
X173990000Y-117475000D02*
X174625000Y-118110000D01*
X175895000Y-118110000D02*
X174625000Y-118110000D01*
X167005000Y-115570000D02*
X168275000Y-115570000D01*
X168275000Y-115570000D02*
X168910000Y-116205000D01*
X168910000Y-117475000D02*
X168275000Y-118110000D01*
X168910000Y-116205000D02*
X169545000Y-115570000D01*
X169545000Y-115570000D02*
X170815000Y-115570000D01*
X170815000Y-115570000D02*
X171450000Y-116205000D01*
X171450000Y-117475000D02*
X170815000Y-118110000D01*
X170815000Y-118110000D02*
X169545000Y-118110000D01*
X169545000Y-118110000D02*
X168910000Y-117475000D01*
X166370000Y-116205000D02*
X166370000Y-117475000D01*
X167005000Y-115570000D02*
X166370000Y-116205000D01*
X166370000Y-117475000D02*
X167005000Y-118110000D01*
X168275000Y-118110000D02*
X167005000Y-118110000D01*
X200025000Y-115570000D02*
X201295000Y-115570000D01*
X201295000Y-115570000D02*
X201930000Y-116205000D01*
X201930000Y-117475000D02*
X201295000Y-118110000D01*
X196850000Y-116205000D02*
X197485000Y-115570000D01*
X197485000Y-115570000D02*
X198755000Y-115570000D01*
X198755000Y-115570000D02*
X199390000Y-116205000D01*
X199390000Y-117475000D02*
X198755000Y-118110000D01*
X198755000Y-118110000D02*
X197485000Y-118110000D01*
X197485000Y-118110000D02*
X196850000Y-117475000D01*
X200025000Y-115570000D02*
X199390000Y-116205000D01*
X199390000Y-117475000D02*
X200025000Y-118110000D01*
X201295000Y-118110000D02*
X200025000Y-118110000D01*
X192405000Y-115570000D02*
X193675000Y-115570000D01*
X193675000Y-115570000D02*
X194310000Y-116205000D01*
X194310000Y-117475000D02*
X193675000Y-118110000D01*
X194310000Y-116205000D02*
X194945000Y-115570000D01*
X194945000Y-115570000D02*
X196215000Y-115570000D01*
X196215000Y-115570000D02*
X196850000Y-116205000D01*
X196850000Y-117475000D02*
X196215000Y-118110000D01*
X196215000Y-118110000D02*
X194945000Y-118110000D01*
X194945000Y-118110000D02*
X194310000Y-117475000D01*
X189230000Y-116205000D02*
X189865000Y-115570000D01*
X189865000Y-115570000D02*
X191135000Y-115570000D01*
X191135000Y-115570000D02*
X191770000Y-116205000D01*
X191770000Y-117475000D02*
X191135000Y-118110000D01*
X191135000Y-118110000D02*
X189865000Y-118110000D01*
X189865000Y-118110000D02*
X189230000Y-117475000D01*
X192405000Y-115570000D02*
X191770000Y-116205000D01*
X191770000Y-117475000D02*
X192405000Y-118110000D01*
X193675000Y-118110000D02*
X192405000Y-118110000D01*
X184785000Y-115570000D02*
X186055000Y-115570000D01*
X186055000Y-115570000D02*
X186690000Y-116205000D01*
X186690000Y-117475000D02*
X186055000Y-118110000D01*
X186690000Y-116205000D02*
X187325000Y-115570000D01*
X187325000Y-115570000D02*
X188595000Y-115570000D01*
X188595000Y-115570000D02*
X189230000Y-116205000D01*
X189230000Y-117475000D02*
X188595000Y-118110000D01*
X188595000Y-118110000D02*
X187325000Y-118110000D01*
X187325000Y-118110000D02*
X186690000Y-117475000D01*
X184785000Y-115570000D02*
X184150000Y-116205000D01*
X184150000Y-117475000D02*
X184785000Y-118110000D01*
X186055000Y-118110000D02*
X184785000Y-118110000D01*
X202565000Y-115570000D02*
X201930000Y-116205000D01*
X202565000Y-115570000D02*
X203835000Y-115570000D01*
X203835000Y-115570000D02*
X204470000Y-116205000D01*
X204470000Y-117475000D02*
X203835000Y-118110000D01*
X203835000Y-118110000D02*
X202565000Y-118110000D01*
X201930000Y-117475000D02*
X202565000Y-118110000D01*
X205105000Y-115570000D02*
X204470000Y-116205000D01*
X205105000Y-115570000D02*
X206375000Y-115570000D01*
X206375000Y-115570000D02*
X207010000Y-116205000D01*
X207010000Y-117475000D02*
X206375000Y-118110000D01*
X206375000Y-118110000D02*
X205105000Y-118110000D01*
X204470000Y-117475000D02*
X205105000Y-118110000D01*
X207645000Y-115570000D02*
X207010000Y-116205000D01*
X207645000Y-115570000D02*
X208915000Y-115570000D01*
X208915000Y-115570000D02*
X209550000Y-116205000D01*
X209550000Y-117475000D02*
X208915000Y-118110000D01*
X208915000Y-118110000D02*
X207645000Y-118110000D01*
X207010000Y-117475000D02*
X207645000Y-118110000D01*
X210185000Y-115570000D02*
X209550000Y-116205000D01*
X210185000Y-115570000D02*
X211455000Y-115570000D01*
X211455000Y-115570000D02*
X212090000Y-116205000D01*
X212090000Y-117475000D02*
X211455000Y-118110000D01*
X211455000Y-118110000D02*
X210185000Y-118110000D01*
X209550000Y-117475000D02*
X210185000Y-118110000D01*
X212725000Y-115570000D02*
X212090000Y-116205000D01*
X212725000Y-115570000D02*
X213995000Y-115570000D01*
X213995000Y-115570000D02*
X214630000Y-116205000D01*
X214630000Y-117475000D02*
X213995000Y-118110000D01*
X213995000Y-118110000D02*
X212725000Y-118110000D01*
X212090000Y-117475000D02*
X212725000Y-118110000D01*
X215265000Y-115570000D02*
X214630000Y-116205000D01*
X215265000Y-115570000D02*
X216535000Y-115570000D01*
X216535000Y-115570000D02*
X217170000Y-116205000D01*
X217170000Y-117475000D02*
X216535000Y-118110000D01*
X216535000Y-118110000D02*
X215265000Y-118110000D01*
X214630000Y-117475000D02*
X215265000Y-118110000D01*
X217805000Y-115570000D02*
X217170000Y-116205000D01*
X217805000Y-115570000D02*
X219075000Y-115570000D01*
X219075000Y-115570000D02*
X219710000Y-116205000D01*
X219710000Y-117475000D02*
X219075000Y-118110000D01*
X219075000Y-118110000D02*
X217805000Y-118110000D01*
X217170000Y-117475000D02*
X217805000Y-118110000D01*
X220345000Y-115570000D02*
X219710000Y-116205000D01*
X220345000Y-115570000D02*
X221615000Y-115570000D01*
X221615000Y-115570000D02*
X222250000Y-116205000D01*
X222250000Y-117475000D02*
X221615000Y-118110000D01*
X221615000Y-118110000D02*
X220345000Y-118110000D01*
X219710000Y-117475000D02*
X220345000Y-118110000D01*
X222885000Y-115570000D02*
X222250000Y-116205000D01*
X222885000Y-115570000D02*
X224155000Y-115570000D01*
X224155000Y-115570000D02*
X224790000Y-116205000D01*
X224790000Y-117475000D02*
X224155000Y-118110000D01*
X224155000Y-118110000D02*
X222885000Y-118110000D01*
X222250000Y-117475000D02*
X222885000Y-118110000D01*
X225425000Y-115570000D02*
X224790000Y-116205000D01*
X225425000Y-115570000D02*
X226695000Y-115570000D01*
X226695000Y-115570000D02*
X227330000Y-116205000D01*
X227330000Y-117475000D02*
X226695000Y-118110000D01*
X226695000Y-118110000D02*
X225425000Y-118110000D01*
X224790000Y-117475000D02*
X225425000Y-118110000D01*
X227965000Y-115570000D02*
X227330000Y-116205000D01*
X227965000Y-115570000D02*
X229235000Y-115570000D01*
X229235000Y-115570000D02*
X229870000Y-116205000D01*
X229870000Y-116205000D02*
X229870000Y-117475000D01*
X229870000Y-117475000D02*
X229235000Y-118110000D01*
X229235000Y-118110000D02*
X227965000Y-118110000D01*
X227330000Y-117475000D02*
X227965000Y-118110000D01*
G04 #@! TO.C,J2*
X168910000Y-80645000D02*
X168275000Y-80010000D01*
X167005000Y-80010000D02*
X168275000Y-80010000D01*
X166370000Y-80645000D02*
X167005000Y-80010000D01*
X166370000Y-81915000D02*
X166370000Y-80645000D01*
X167005000Y-82550000D02*
X166370000Y-81915000D01*
X168275000Y-82550000D02*
X167005000Y-82550000D01*
X168275000Y-82550000D02*
X168910000Y-81915000D01*
X171450000Y-80645000D02*
X170815000Y-80010000D01*
X169545000Y-80010000D02*
X170815000Y-80010000D01*
X168910000Y-80645000D02*
X169545000Y-80010000D01*
X169545000Y-82550000D02*
X168910000Y-81915000D01*
X170815000Y-82550000D02*
X169545000Y-82550000D01*
X170815000Y-82550000D02*
X171450000Y-81915000D01*
X173990000Y-80645000D02*
X173355000Y-80010000D01*
X172085000Y-80010000D02*
X173355000Y-80010000D01*
X171450000Y-80645000D02*
X172085000Y-80010000D01*
X172085000Y-82550000D02*
X171450000Y-81915000D01*
X173355000Y-82550000D02*
X172085000Y-82550000D01*
X173355000Y-82550000D02*
X173990000Y-81915000D01*
X176530000Y-80645000D02*
X175895000Y-80010000D01*
X174625000Y-80010000D02*
X175895000Y-80010000D01*
X173990000Y-80645000D02*
X174625000Y-80010000D01*
X174625000Y-82550000D02*
X173990000Y-81915000D01*
X175895000Y-82550000D02*
X174625000Y-82550000D01*
X175895000Y-82550000D02*
X176530000Y-81915000D01*
X179070000Y-80645000D02*
X178435000Y-80010000D01*
X177165000Y-80010000D02*
X178435000Y-80010000D01*
X176530000Y-80645000D02*
X177165000Y-80010000D01*
X177165000Y-82550000D02*
X176530000Y-81915000D01*
X178435000Y-82550000D02*
X177165000Y-82550000D01*
X178435000Y-82550000D02*
X179070000Y-81915000D01*
X181610000Y-80645000D02*
X180975000Y-80010000D01*
X179705000Y-80010000D02*
X180975000Y-80010000D01*
X179070000Y-80645000D02*
X179705000Y-80010000D01*
X179705000Y-82550000D02*
X179070000Y-81915000D01*
X180975000Y-82550000D02*
X179705000Y-82550000D01*
X180975000Y-82550000D02*
X181610000Y-81915000D01*
X184150000Y-80645000D02*
X183515000Y-80010000D01*
X182245000Y-80010000D02*
X183515000Y-80010000D01*
X181610000Y-80645000D02*
X182245000Y-80010000D01*
X182245000Y-82550000D02*
X181610000Y-81915000D01*
X183515000Y-82550000D02*
X182245000Y-82550000D01*
X183515000Y-82550000D02*
X184150000Y-81915000D01*
X186690000Y-80645000D02*
X186055000Y-80010000D01*
X184785000Y-80010000D02*
X186055000Y-80010000D01*
X184150000Y-80645000D02*
X184785000Y-80010000D01*
X184785000Y-82550000D02*
X184150000Y-81915000D01*
X186055000Y-82550000D02*
X184785000Y-82550000D01*
X186055000Y-82550000D02*
X186690000Y-81915000D01*
X189230000Y-80645000D02*
X188595000Y-80010000D01*
X187325000Y-80010000D02*
X188595000Y-80010000D01*
X186690000Y-80645000D02*
X187325000Y-80010000D01*
X187325000Y-82550000D02*
X186690000Y-81915000D01*
X188595000Y-82550000D02*
X187325000Y-82550000D01*
X188595000Y-82550000D02*
X189230000Y-81915000D01*
X191770000Y-80645000D02*
X191135000Y-80010000D01*
X189865000Y-80010000D02*
X191135000Y-80010000D01*
X189230000Y-80645000D02*
X189865000Y-80010000D01*
X189865000Y-82550000D02*
X189230000Y-81915000D01*
X191135000Y-82550000D02*
X189865000Y-82550000D01*
X191135000Y-82550000D02*
X191770000Y-81915000D01*
X194310000Y-80645000D02*
X193675000Y-80010000D01*
X192405000Y-80010000D02*
X193675000Y-80010000D01*
X191770000Y-80645000D02*
X192405000Y-80010000D01*
X192405000Y-82550000D02*
X191770000Y-81915000D01*
X193675000Y-82550000D02*
X192405000Y-82550000D01*
X193675000Y-82550000D02*
X194310000Y-81915000D01*
X210185000Y-80010000D02*
X211455000Y-80010000D01*
X212090000Y-80645000D02*
X211455000Y-80010000D01*
X211455000Y-82550000D02*
X212090000Y-81915000D01*
X208915000Y-80010000D02*
X209550000Y-80645000D01*
X207645000Y-80010000D02*
X208915000Y-80010000D01*
X207010000Y-80645000D02*
X207645000Y-80010000D01*
X207645000Y-82550000D02*
X207010000Y-81915000D01*
X208915000Y-82550000D02*
X207645000Y-82550000D01*
X209550000Y-81915000D02*
X208915000Y-82550000D01*
X209550000Y-80645000D02*
X210185000Y-80010000D01*
X210185000Y-82550000D02*
X209550000Y-81915000D01*
X211455000Y-82550000D02*
X210185000Y-82550000D01*
X202565000Y-80010000D02*
X203835000Y-80010000D01*
X204470000Y-80645000D02*
X203835000Y-80010000D01*
X203835000Y-82550000D02*
X204470000Y-81915000D01*
X206375000Y-80010000D02*
X207010000Y-80645000D01*
X205105000Y-80010000D02*
X206375000Y-80010000D01*
X204470000Y-80645000D02*
X205105000Y-80010000D01*
X205105000Y-82550000D02*
X204470000Y-81915000D01*
X206375000Y-82550000D02*
X205105000Y-82550000D01*
X207010000Y-81915000D02*
X206375000Y-82550000D01*
X201295000Y-80010000D02*
X201930000Y-80645000D01*
X200025000Y-80010000D02*
X201295000Y-80010000D01*
X199390000Y-80645000D02*
X200025000Y-80010000D01*
X200025000Y-82550000D02*
X199390000Y-81915000D01*
X201295000Y-82550000D02*
X200025000Y-82550000D01*
X201930000Y-81915000D02*
X201295000Y-82550000D01*
X201930000Y-80645000D02*
X202565000Y-80010000D01*
X202565000Y-82550000D02*
X201930000Y-81915000D01*
X203835000Y-82550000D02*
X202565000Y-82550000D01*
X194945000Y-80010000D02*
X196215000Y-80010000D01*
X196850000Y-80645000D02*
X196215000Y-80010000D01*
X196215000Y-82550000D02*
X196850000Y-81915000D01*
X198755000Y-80010000D02*
X199390000Y-80645000D01*
X197485000Y-80010000D02*
X198755000Y-80010000D01*
X196850000Y-80645000D02*
X197485000Y-80010000D01*
X197485000Y-82550000D02*
X196850000Y-81915000D01*
X198755000Y-82550000D02*
X197485000Y-82550000D01*
X199390000Y-81915000D02*
X198755000Y-82550000D01*
X194310000Y-80645000D02*
X194945000Y-80010000D01*
X194945000Y-82550000D02*
X194310000Y-81915000D01*
X196215000Y-82550000D02*
X194945000Y-82550000D01*
X227965000Y-80010000D02*
X229235000Y-80010000D01*
X229870000Y-80645000D02*
X229235000Y-80010000D01*
X229235000Y-82550000D02*
X229870000Y-81915000D01*
X229870000Y-81915000D02*
X229870000Y-80645000D01*
X226695000Y-80010000D02*
X227330000Y-80645000D01*
X225425000Y-80010000D02*
X226695000Y-80010000D01*
X224790000Y-80645000D02*
X225425000Y-80010000D01*
X225425000Y-82550000D02*
X224790000Y-81915000D01*
X226695000Y-82550000D02*
X225425000Y-82550000D01*
X227330000Y-81915000D02*
X226695000Y-82550000D01*
X227330000Y-80645000D02*
X227965000Y-80010000D01*
X227965000Y-82550000D02*
X227330000Y-81915000D01*
X229235000Y-82550000D02*
X227965000Y-82550000D01*
X220345000Y-80010000D02*
X221615000Y-80010000D01*
X222250000Y-80645000D02*
X221615000Y-80010000D01*
X221615000Y-82550000D02*
X222250000Y-81915000D01*
X224155000Y-80010000D02*
X224790000Y-80645000D01*
X222885000Y-80010000D02*
X224155000Y-80010000D01*
X222250000Y-80645000D02*
X222885000Y-80010000D01*
X222885000Y-82550000D02*
X222250000Y-81915000D01*
X224155000Y-82550000D02*
X222885000Y-82550000D01*
X224790000Y-81915000D02*
X224155000Y-82550000D01*
X219075000Y-80010000D02*
X219710000Y-80645000D01*
X217805000Y-80010000D02*
X219075000Y-80010000D01*
X217170000Y-80645000D02*
X217805000Y-80010000D01*
X217805000Y-82550000D02*
X217170000Y-81915000D01*
X219075000Y-82550000D02*
X217805000Y-82550000D01*
X219710000Y-81915000D02*
X219075000Y-82550000D01*
X219710000Y-80645000D02*
X220345000Y-80010000D01*
X220345000Y-82550000D02*
X219710000Y-81915000D01*
X221615000Y-82550000D02*
X220345000Y-82550000D01*
X212725000Y-80010000D02*
X213995000Y-80010000D01*
X214630000Y-80645000D02*
X213995000Y-80010000D01*
X213995000Y-82550000D02*
X214630000Y-81915000D01*
X216535000Y-80010000D02*
X217170000Y-80645000D01*
X215265000Y-80010000D02*
X216535000Y-80010000D01*
X214630000Y-80645000D02*
X215265000Y-80010000D01*
X215265000Y-82550000D02*
X214630000Y-81915000D01*
X216535000Y-82550000D02*
X215265000Y-82550000D01*
X217170000Y-81915000D02*
X216535000Y-82550000D01*
X212090000Y-80645000D02*
X212725000Y-80010000D01*
X212725000Y-82550000D02*
X212090000Y-81915000D01*
X213995000Y-82550000D02*
X212725000Y-82550000D01*
G04 #@! TO.C,J3*
X150495000Y-82550000D02*
X149225000Y-82550000D01*
X149225000Y-82550000D02*
X148590000Y-81915000D01*
X148590000Y-80645000D02*
X149225000Y-80010000D01*
X153670000Y-81915000D02*
X153035000Y-82550000D01*
X153035000Y-82550000D02*
X151765000Y-82550000D01*
X151765000Y-82550000D02*
X151130000Y-81915000D01*
X151130000Y-80645000D02*
X151765000Y-80010000D01*
X151765000Y-80010000D02*
X153035000Y-80010000D01*
X153035000Y-80010000D02*
X153670000Y-80645000D01*
X150495000Y-82550000D02*
X151130000Y-81915000D01*
X151130000Y-80645000D02*
X150495000Y-80010000D01*
X149225000Y-80010000D02*
X150495000Y-80010000D01*
X158115000Y-82550000D02*
X156845000Y-82550000D01*
X156845000Y-82550000D02*
X156210000Y-81915000D01*
X156210000Y-80645000D02*
X156845000Y-80010000D01*
X156210000Y-81915000D02*
X155575000Y-82550000D01*
X155575000Y-82550000D02*
X154305000Y-82550000D01*
X154305000Y-82550000D02*
X153670000Y-81915000D01*
X153670000Y-80645000D02*
X154305000Y-80010000D01*
X154305000Y-80010000D02*
X155575000Y-80010000D01*
X155575000Y-80010000D02*
X156210000Y-80645000D01*
X161290000Y-81915000D02*
X160655000Y-82550000D01*
X160655000Y-82550000D02*
X159385000Y-82550000D01*
X159385000Y-82550000D02*
X158750000Y-81915000D01*
X158750000Y-80645000D02*
X159385000Y-80010000D01*
X159385000Y-80010000D02*
X160655000Y-80010000D01*
X160655000Y-80010000D02*
X161290000Y-80645000D01*
X158115000Y-82550000D02*
X158750000Y-81915000D01*
X158750000Y-80645000D02*
X158115000Y-80010000D01*
X156845000Y-80010000D02*
X158115000Y-80010000D01*
X165735000Y-82550000D02*
X164465000Y-82550000D01*
X164465000Y-82550000D02*
X163830000Y-81915000D01*
X163830000Y-80645000D02*
X164465000Y-80010000D01*
X163830000Y-81915000D02*
X163195000Y-82550000D01*
X163195000Y-82550000D02*
X161925000Y-82550000D01*
X161925000Y-82550000D02*
X161290000Y-81915000D01*
X161290000Y-80645000D02*
X161925000Y-80010000D01*
X161925000Y-80010000D02*
X163195000Y-80010000D01*
X163195000Y-80010000D02*
X163830000Y-80645000D01*
X166370000Y-81915000D02*
X166370000Y-80645000D01*
X165735000Y-82550000D02*
X166370000Y-81915000D01*
X166370000Y-80645000D02*
X165735000Y-80010000D01*
X164465000Y-80010000D02*
X165735000Y-80010000D01*
X132715000Y-82550000D02*
X131445000Y-82550000D01*
X131445000Y-82550000D02*
X130810000Y-81915000D01*
X130810000Y-80645000D02*
X131445000Y-80010000D01*
X135890000Y-81915000D02*
X135255000Y-82550000D01*
X135255000Y-82550000D02*
X133985000Y-82550000D01*
X133985000Y-82550000D02*
X133350000Y-81915000D01*
X133350000Y-80645000D02*
X133985000Y-80010000D01*
X133985000Y-80010000D02*
X135255000Y-80010000D01*
X135255000Y-80010000D02*
X135890000Y-80645000D01*
X132715000Y-82550000D02*
X133350000Y-81915000D01*
X133350000Y-80645000D02*
X132715000Y-80010000D01*
X131445000Y-80010000D02*
X132715000Y-80010000D01*
X140335000Y-82550000D02*
X139065000Y-82550000D01*
X139065000Y-82550000D02*
X138430000Y-81915000D01*
X138430000Y-80645000D02*
X139065000Y-80010000D01*
X138430000Y-81915000D02*
X137795000Y-82550000D01*
X137795000Y-82550000D02*
X136525000Y-82550000D01*
X136525000Y-82550000D02*
X135890000Y-81915000D01*
X135890000Y-80645000D02*
X136525000Y-80010000D01*
X136525000Y-80010000D02*
X137795000Y-80010000D01*
X137795000Y-80010000D02*
X138430000Y-80645000D01*
X143510000Y-81915000D02*
X142875000Y-82550000D01*
X142875000Y-82550000D02*
X141605000Y-82550000D01*
X141605000Y-82550000D02*
X140970000Y-81915000D01*
X140970000Y-80645000D02*
X141605000Y-80010000D01*
X141605000Y-80010000D02*
X142875000Y-80010000D01*
X142875000Y-80010000D02*
X143510000Y-80645000D01*
X140335000Y-82550000D02*
X140970000Y-81915000D01*
X140970000Y-80645000D02*
X140335000Y-80010000D01*
X139065000Y-80010000D02*
X140335000Y-80010000D01*
X147955000Y-82550000D02*
X146685000Y-82550000D01*
X146685000Y-82550000D02*
X146050000Y-81915000D01*
X146050000Y-80645000D02*
X146685000Y-80010000D01*
X146050000Y-81915000D02*
X145415000Y-82550000D01*
X145415000Y-82550000D02*
X144145000Y-82550000D01*
X144145000Y-82550000D02*
X143510000Y-81915000D01*
X143510000Y-80645000D02*
X144145000Y-80010000D01*
X144145000Y-80010000D02*
X145415000Y-80010000D01*
X145415000Y-80010000D02*
X146050000Y-80645000D01*
X147955000Y-82550000D02*
X148590000Y-81915000D01*
X148590000Y-80645000D02*
X147955000Y-80010000D01*
X146685000Y-80010000D02*
X147955000Y-80010000D01*
X130175000Y-82550000D02*
X130810000Y-81915000D01*
X130175000Y-82550000D02*
X128905000Y-82550000D01*
X128905000Y-82550000D02*
X128270000Y-81915000D01*
X128270000Y-80645000D02*
X128905000Y-80010000D01*
X128905000Y-80010000D02*
X130175000Y-80010000D01*
X130810000Y-80645000D02*
X130175000Y-80010000D01*
X127635000Y-82550000D02*
X128270000Y-81915000D01*
X127635000Y-82550000D02*
X126365000Y-82550000D01*
X126365000Y-82550000D02*
X125730000Y-81915000D01*
X125730000Y-80645000D02*
X126365000Y-80010000D01*
X126365000Y-80010000D02*
X127635000Y-80010000D01*
X128270000Y-80645000D02*
X127635000Y-80010000D01*
X125095000Y-82550000D02*
X125730000Y-81915000D01*
X125095000Y-82550000D02*
X123825000Y-82550000D01*
X123825000Y-82550000D02*
X123190000Y-81915000D01*
X123190000Y-80645000D02*
X123825000Y-80010000D01*
X123825000Y-80010000D02*
X125095000Y-80010000D01*
X125730000Y-80645000D02*
X125095000Y-80010000D01*
X122555000Y-82550000D02*
X123190000Y-81915000D01*
X122555000Y-82550000D02*
X121285000Y-82550000D01*
X121285000Y-82550000D02*
X120650000Y-81915000D01*
X120650000Y-80645000D02*
X121285000Y-80010000D01*
X121285000Y-80010000D02*
X122555000Y-80010000D01*
X123190000Y-80645000D02*
X122555000Y-80010000D01*
X120015000Y-82550000D02*
X120650000Y-81915000D01*
X120015000Y-82550000D02*
X118745000Y-82550000D01*
X118745000Y-82550000D02*
X118110000Y-81915000D01*
X118110000Y-80645000D02*
X118745000Y-80010000D01*
X118745000Y-80010000D02*
X120015000Y-80010000D01*
X120650000Y-80645000D02*
X120015000Y-80010000D01*
X117475000Y-82550000D02*
X118110000Y-81915000D01*
X117475000Y-82550000D02*
X116205000Y-82550000D01*
X116205000Y-82550000D02*
X115570000Y-81915000D01*
X115570000Y-80645000D02*
X116205000Y-80010000D01*
X116205000Y-80010000D02*
X117475000Y-80010000D01*
X118110000Y-80645000D02*
X117475000Y-80010000D01*
X114935000Y-82550000D02*
X115570000Y-81915000D01*
X114935000Y-82550000D02*
X113665000Y-82550000D01*
X113665000Y-82550000D02*
X113030000Y-81915000D01*
X113030000Y-80645000D02*
X113665000Y-80010000D01*
X113665000Y-80010000D02*
X114935000Y-80010000D01*
X115570000Y-80645000D02*
X114935000Y-80010000D01*
X112395000Y-82550000D02*
X113030000Y-81915000D01*
X112395000Y-82550000D02*
X111125000Y-82550000D01*
X111125000Y-82550000D02*
X110490000Y-81915000D01*
X110490000Y-80645000D02*
X111125000Y-80010000D01*
X111125000Y-80010000D02*
X112395000Y-80010000D01*
X113030000Y-80645000D02*
X112395000Y-80010000D01*
X109855000Y-82550000D02*
X110490000Y-81915000D01*
X109855000Y-82550000D02*
X108585000Y-82550000D01*
X108585000Y-82550000D02*
X107950000Y-81915000D01*
X107950000Y-80645000D02*
X108585000Y-80010000D01*
X108585000Y-80010000D02*
X109855000Y-80010000D01*
X110490000Y-80645000D02*
X109855000Y-80010000D01*
X107315000Y-82550000D02*
X107950000Y-81915000D01*
X107315000Y-82550000D02*
X106045000Y-82550000D01*
X106045000Y-82550000D02*
X105410000Y-81915000D01*
X105410000Y-80645000D02*
X106045000Y-80010000D01*
X106045000Y-80010000D02*
X107315000Y-80010000D01*
X107950000Y-80645000D02*
X107315000Y-80010000D01*
X104775000Y-82550000D02*
X105410000Y-81915000D01*
X104775000Y-82550000D02*
X103505000Y-82550000D01*
X103505000Y-82550000D02*
X102870000Y-81915000D01*
X102870000Y-81915000D02*
X102870000Y-80645000D01*
X102870000Y-80645000D02*
X103505000Y-80010000D01*
X103505000Y-80010000D02*
X104775000Y-80010000D01*
X105410000Y-80645000D02*
X104775000Y-80010000D01*
G04 #@! TO.C,J4*
X163830000Y-117475000D02*
X164465000Y-118110000D01*
X165735000Y-118110000D02*
X164465000Y-118110000D01*
X166370000Y-117475000D02*
X165735000Y-118110000D01*
X166370000Y-116205000D02*
X166370000Y-117475000D01*
X165735000Y-115570000D02*
X166370000Y-116205000D01*
X164465000Y-115570000D02*
X165735000Y-115570000D01*
X164465000Y-115570000D02*
X163830000Y-116205000D01*
X161290000Y-117475000D02*
X161925000Y-118110000D01*
X163195000Y-118110000D02*
X161925000Y-118110000D01*
X163830000Y-117475000D02*
X163195000Y-118110000D01*
X163195000Y-115570000D02*
X163830000Y-116205000D01*
X161925000Y-115570000D02*
X163195000Y-115570000D01*
X161925000Y-115570000D02*
X161290000Y-116205000D01*
X158750000Y-117475000D02*
X159385000Y-118110000D01*
X160655000Y-118110000D02*
X159385000Y-118110000D01*
X161290000Y-117475000D02*
X160655000Y-118110000D01*
X160655000Y-115570000D02*
X161290000Y-116205000D01*
X159385000Y-115570000D02*
X160655000Y-115570000D01*
X159385000Y-115570000D02*
X158750000Y-116205000D01*
X156210000Y-117475000D02*
X156845000Y-118110000D01*
X158115000Y-118110000D02*
X156845000Y-118110000D01*
X158750000Y-117475000D02*
X158115000Y-118110000D01*
X158115000Y-115570000D02*
X158750000Y-116205000D01*
X156845000Y-115570000D02*
X158115000Y-115570000D01*
X156845000Y-115570000D02*
X156210000Y-116205000D01*
X153670000Y-117475000D02*
X154305000Y-118110000D01*
X155575000Y-118110000D02*
X154305000Y-118110000D01*
X156210000Y-117475000D02*
X155575000Y-118110000D01*
X155575000Y-115570000D02*
X156210000Y-116205000D01*
X154305000Y-115570000D02*
X155575000Y-115570000D01*
X154305000Y-115570000D02*
X153670000Y-116205000D01*
X151130000Y-117475000D02*
X151765000Y-118110000D01*
X153035000Y-118110000D02*
X151765000Y-118110000D01*
X153670000Y-117475000D02*
X153035000Y-118110000D01*
X153035000Y-115570000D02*
X153670000Y-116205000D01*
X151765000Y-115570000D02*
X153035000Y-115570000D01*
X151765000Y-115570000D02*
X151130000Y-116205000D01*
X148590000Y-117475000D02*
X149225000Y-118110000D01*
X150495000Y-118110000D02*
X149225000Y-118110000D01*
X151130000Y-117475000D02*
X150495000Y-118110000D01*
X150495000Y-115570000D02*
X151130000Y-116205000D01*
X149225000Y-115570000D02*
X150495000Y-115570000D01*
X149225000Y-115570000D02*
X148590000Y-116205000D01*
X146050000Y-117475000D02*
X146685000Y-118110000D01*
X147955000Y-118110000D02*
X146685000Y-118110000D01*
X148590000Y-117475000D02*
X147955000Y-118110000D01*
X147955000Y-115570000D02*
X148590000Y-116205000D01*
X146685000Y-115570000D02*
X147955000Y-115570000D01*
X146685000Y-115570000D02*
X146050000Y-116205000D01*
X143510000Y-117475000D02*
X144145000Y-118110000D01*
X145415000Y-118110000D02*
X144145000Y-118110000D01*
X146050000Y-117475000D02*
X145415000Y-118110000D01*
X145415000Y-115570000D02*
X146050000Y-116205000D01*
X144145000Y-115570000D02*
X145415000Y-115570000D01*
X144145000Y-115570000D02*
X143510000Y-116205000D01*
X140970000Y-117475000D02*
X141605000Y-118110000D01*
X142875000Y-118110000D02*
X141605000Y-118110000D01*
X143510000Y-117475000D02*
X142875000Y-118110000D01*
X142875000Y-115570000D02*
X143510000Y-116205000D01*
X141605000Y-115570000D02*
X142875000Y-115570000D01*
X141605000Y-115570000D02*
X140970000Y-116205000D01*
X138430000Y-117475000D02*
X139065000Y-118110000D01*
X140335000Y-118110000D02*
X139065000Y-118110000D01*
X140970000Y-117475000D02*
X140335000Y-118110000D01*
X140335000Y-115570000D02*
X140970000Y-116205000D01*
X139065000Y-115570000D02*
X140335000Y-115570000D01*
X139065000Y-115570000D02*
X138430000Y-116205000D01*
X122555000Y-118110000D02*
X121285000Y-118110000D01*
X120650000Y-117475000D02*
X121285000Y-118110000D01*
X121285000Y-115570000D02*
X120650000Y-116205000D01*
X123825000Y-118110000D02*
X123190000Y-117475000D01*
X125095000Y-118110000D02*
X123825000Y-118110000D01*
X125730000Y-117475000D02*
X125095000Y-118110000D01*
X125095000Y-115570000D02*
X125730000Y-116205000D01*
X123825000Y-115570000D02*
X125095000Y-115570000D01*
X123190000Y-116205000D02*
X123825000Y-115570000D01*
X123190000Y-117475000D02*
X122555000Y-118110000D01*
X122555000Y-115570000D02*
X123190000Y-116205000D01*
X121285000Y-115570000D02*
X122555000Y-115570000D01*
X130175000Y-118110000D02*
X128905000Y-118110000D01*
X128270000Y-117475000D02*
X128905000Y-118110000D01*
X128905000Y-115570000D02*
X128270000Y-116205000D01*
X126365000Y-118110000D02*
X125730000Y-117475000D01*
X127635000Y-118110000D02*
X126365000Y-118110000D01*
X128270000Y-117475000D02*
X127635000Y-118110000D01*
X127635000Y-115570000D02*
X128270000Y-116205000D01*
X126365000Y-115570000D02*
X127635000Y-115570000D01*
X125730000Y-116205000D02*
X126365000Y-115570000D01*
X131445000Y-118110000D02*
X130810000Y-117475000D01*
X132715000Y-118110000D02*
X131445000Y-118110000D01*
X133350000Y-117475000D02*
X132715000Y-118110000D01*
X132715000Y-115570000D02*
X133350000Y-116205000D01*
X131445000Y-115570000D02*
X132715000Y-115570000D01*
X130810000Y-116205000D02*
X131445000Y-115570000D01*
X130810000Y-117475000D02*
X130175000Y-118110000D01*
X130175000Y-115570000D02*
X130810000Y-116205000D01*
X128905000Y-115570000D02*
X130175000Y-115570000D01*
X137795000Y-118110000D02*
X136525000Y-118110000D01*
X135890000Y-117475000D02*
X136525000Y-118110000D01*
X136525000Y-115570000D02*
X135890000Y-116205000D01*
X133985000Y-118110000D02*
X133350000Y-117475000D01*
X135255000Y-118110000D02*
X133985000Y-118110000D01*
X135890000Y-117475000D02*
X135255000Y-118110000D01*
X135255000Y-115570000D02*
X135890000Y-116205000D01*
X133985000Y-115570000D02*
X135255000Y-115570000D01*
X133350000Y-116205000D02*
X133985000Y-115570000D01*
X138430000Y-117475000D02*
X137795000Y-118110000D01*
X137795000Y-115570000D02*
X138430000Y-116205000D01*
X136525000Y-115570000D02*
X137795000Y-115570000D01*
X104775000Y-118110000D02*
X103505000Y-118110000D01*
X102870000Y-117475000D02*
X103505000Y-118110000D01*
X103505000Y-115570000D02*
X102870000Y-116205000D01*
X102870000Y-116205000D02*
X102870000Y-117475000D01*
X106045000Y-118110000D02*
X105410000Y-117475000D01*
X107315000Y-118110000D02*
X106045000Y-118110000D01*
X107950000Y-117475000D02*
X107315000Y-118110000D01*
X107315000Y-115570000D02*
X107950000Y-116205000D01*
X106045000Y-115570000D02*
X107315000Y-115570000D01*
X105410000Y-116205000D02*
X106045000Y-115570000D01*
X105410000Y-117475000D02*
X104775000Y-118110000D01*
X104775000Y-115570000D02*
X105410000Y-116205000D01*
X103505000Y-115570000D02*
X104775000Y-115570000D01*
X112395000Y-118110000D02*
X111125000Y-118110000D01*
X110490000Y-117475000D02*
X111125000Y-118110000D01*
X111125000Y-115570000D02*
X110490000Y-116205000D01*
X108585000Y-118110000D02*
X107950000Y-117475000D01*
X109855000Y-118110000D02*
X108585000Y-118110000D01*
X110490000Y-117475000D02*
X109855000Y-118110000D01*
X109855000Y-115570000D02*
X110490000Y-116205000D01*
X108585000Y-115570000D02*
X109855000Y-115570000D01*
X107950000Y-116205000D02*
X108585000Y-115570000D01*
X113665000Y-118110000D02*
X113030000Y-117475000D01*
X114935000Y-118110000D02*
X113665000Y-118110000D01*
X115570000Y-117475000D02*
X114935000Y-118110000D01*
X114935000Y-115570000D02*
X115570000Y-116205000D01*
X113665000Y-115570000D02*
X114935000Y-115570000D01*
X113030000Y-116205000D02*
X113665000Y-115570000D01*
X113030000Y-117475000D02*
X112395000Y-118110000D01*
X112395000Y-115570000D02*
X113030000Y-116205000D01*
X111125000Y-115570000D02*
X112395000Y-115570000D01*
X120015000Y-118110000D02*
X118745000Y-118110000D01*
X118110000Y-117475000D02*
X118745000Y-118110000D01*
X118745000Y-115570000D02*
X118110000Y-116205000D01*
X116205000Y-118110000D02*
X115570000Y-117475000D01*
X117475000Y-118110000D02*
X116205000Y-118110000D01*
X118110000Y-117475000D02*
X117475000Y-118110000D01*
X117475000Y-115570000D02*
X118110000Y-116205000D01*
X116205000Y-115570000D02*
X117475000Y-115570000D01*
X115570000Y-116205000D02*
X116205000Y-115570000D01*
X120650000Y-117475000D02*
X120015000Y-118110000D01*
X120015000Y-115570000D02*
X120650000Y-116205000D01*
X118745000Y-115570000D02*
X120015000Y-115570000D01*
G04 #@! TD*
M02*
