G04 #@! TF.GenerationSoftware,KiCad,Pcbnew,5.0.0-rc2-unknown-da66005~65~ubuntu16.04.1*
G04 #@! TF.CreationDate,2018-05-28T11:28:40+02:00*
G04 #@! TF.ProjectId,AD8113 Breakout LQFP 100,41443831313320427265616B6F757420,rev?*
G04 #@! TF.SameCoordinates,Original*
G04 #@! TF.FileFunction,Soldermask,Top*
G04 #@! TF.FilePolarity,Negative*
%FSLAX46Y46*%
G04 Gerber Fmt 4.6, Leading zero omitted, Abs format (unit mm)*
G04 Created by KiCad (PCBNEW 5.0.0-rc2-unknown-da66005~65~ubuntu16.04.1) date Mon May 28 11:28:40 2018*
%MOMM*%
%LPD*%
G01*
G04 APERTURE LIST*
%ADD10C,0.279400*%
%ADD11C,0.050000*%
%ADD12R,1.879600X1.879600*%
%ADD13C,2.082800*%
G04 APERTURE END LIST*
D10*
G04 #@! TO.C,U1*
X167515512Y-108690795D03*
D11*
G36*
X167093440Y-108071157D02*
X168135150Y-109112867D01*
X167937584Y-109310433D01*
X166895874Y-108268723D01*
X167093440Y-108071157D01*
X167093440Y-108071157D01*
G37*
D10*
X167869067Y-108337240D03*
D11*
G36*
X167446995Y-107717602D02*
X168488705Y-108759312D01*
X168291139Y-108956878D01*
X167249429Y-107915168D01*
X167446995Y-107717602D01*
X167446995Y-107717602D01*
G37*
D10*
X168222620Y-107983688D03*
D11*
G36*
X167800548Y-107364050D02*
X168842258Y-108405760D01*
X168644692Y-108603326D01*
X167602982Y-107561616D01*
X167800548Y-107364050D01*
X167800548Y-107364050D01*
G37*
D10*
X168576172Y-107630135D03*
D11*
G36*
X168154100Y-107010497D02*
X169195810Y-108052207D01*
X168998244Y-108249773D01*
X167956534Y-107208063D01*
X168154100Y-107010497D01*
X168154100Y-107010497D01*
G37*
D10*
X168929727Y-107276581D03*
D11*
G36*
X168507655Y-106656943D02*
X169549365Y-107698653D01*
X169351799Y-107896219D01*
X168310089Y-106854509D01*
X168507655Y-106656943D01*
X168507655Y-106656943D01*
G37*
D10*
X169283279Y-106923028D03*
D11*
G36*
X168861207Y-106303390D02*
X169902917Y-107345100D01*
X169705351Y-107542666D01*
X168663641Y-106500956D01*
X168861207Y-106303390D01*
X168861207Y-106303390D01*
G37*
D10*
X169636834Y-106569473D03*
D11*
G36*
X169214762Y-105949835D02*
X170256472Y-106991545D01*
X170058906Y-107189111D01*
X169017196Y-106147401D01*
X169214762Y-105949835D01*
X169214762Y-105949835D01*
G37*
D10*
X169990387Y-106215921D03*
D11*
G36*
X169568315Y-105596283D02*
X170610025Y-106637993D01*
X170412459Y-106835559D01*
X169370749Y-105793849D01*
X169568315Y-105596283D01*
X169568315Y-105596283D01*
G37*
D10*
X170343939Y-105862368D03*
D11*
G36*
X169921867Y-105242730D02*
X170963577Y-106284440D01*
X170766011Y-106482006D01*
X169724301Y-105440296D01*
X169921867Y-105242730D01*
X169921867Y-105242730D01*
G37*
D10*
X170697494Y-105508814D03*
D11*
G36*
X170275422Y-104889176D02*
X171317132Y-105930886D01*
X171119566Y-106128452D01*
X170077856Y-105086742D01*
X170275422Y-104889176D01*
X170275422Y-104889176D01*
G37*
D10*
X171051046Y-105155261D03*
D11*
G36*
X170628974Y-104535623D02*
X171670684Y-105577333D01*
X171473118Y-105774899D01*
X170431408Y-104733189D01*
X170628974Y-104535623D01*
X170628974Y-104535623D01*
G37*
D10*
X171404599Y-104801708D03*
D11*
G36*
X170982527Y-104182070D02*
X172024237Y-105223780D01*
X171826671Y-105421346D01*
X170784961Y-104379636D01*
X170982527Y-104182070D01*
X170982527Y-104182070D01*
G37*
D10*
X171758154Y-104448154D03*
D11*
G36*
X171336082Y-103828516D02*
X172377792Y-104870226D01*
X172180226Y-105067792D01*
X171138516Y-104026082D01*
X171336082Y-103828516D01*
X171336082Y-103828516D01*
G37*
D10*
X172111706Y-104094601D03*
D11*
G36*
X171689634Y-103474963D02*
X172731344Y-104516673D01*
X172533778Y-104714239D01*
X171492068Y-103672529D01*
X171689634Y-103474963D01*
X171689634Y-103474963D01*
G37*
D10*
X172465261Y-103741046D03*
D11*
G36*
X172043189Y-103121408D02*
X173084899Y-104163118D01*
X172887333Y-104360684D01*
X171845623Y-103318974D01*
X172043189Y-103121408D01*
X172043189Y-103121408D01*
G37*
D10*
X172818814Y-103387494D03*
D11*
G36*
X172396742Y-102767856D02*
X173438452Y-103809566D01*
X173240886Y-104007132D01*
X172199176Y-102965422D01*
X172396742Y-102767856D01*
X172396742Y-102767856D01*
G37*
D10*
X173172367Y-103033941D03*
D11*
G36*
X172750295Y-102414303D02*
X173792005Y-103456013D01*
X173594439Y-103653579D01*
X172552729Y-102611869D01*
X172750295Y-102414303D01*
X172750295Y-102414303D01*
G37*
D10*
X173525921Y-102680387D03*
D11*
G36*
X173103849Y-102060749D02*
X174145559Y-103102459D01*
X173947993Y-103300025D01*
X172906283Y-102258315D01*
X173103849Y-102060749D01*
X173103849Y-102060749D01*
G37*
D10*
X173879473Y-102326834D03*
D11*
G36*
X173457401Y-101707196D02*
X174499111Y-102748906D01*
X174301545Y-102946472D01*
X173259835Y-101904762D01*
X173457401Y-101707196D01*
X173457401Y-101707196D01*
G37*
D10*
X174233028Y-101973279D03*
D11*
G36*
X173810956Y-101353641D02*
X174852666Y-102395351D01*
X174655100Y-102592917D01*
X173613390Y-101551207D01*
X173810956Y-101353641D01*
X173810956Y-101353641D01*
G37*
D10*
X174586581Y-101619727D03*
D11*
G36*
X174164509Y-101000089D02*
X175206219Y-102041799D01*
X175008653Y-102239365D01*
X173966943Y-101197655D01*
X174164509Y-101000089D01*
X174164509Y-101000089D01*
G37*
D10*
X174940133Y-101266174D03*
D11*
G36*
X174518061Y-100646536D02*
X175559771Y-101688246D01*
X175362205Y-101885812D01*
X174320495Y-100844102D01*
X174518061Y-100646536D01*
X174518061Y-100646536D01*
G37*
D10*
X175293688Y-100912620D03*
D11*
G36*
X174871616Y-100292982D02*
X175913326Y-101334692D01*
X175715760Y-101532258D01*
X174674050Y-100490548D01*
X174871616Y-100292982D01*
X174871616Y-100292982D01*
G37*
D10*
X175647240Y-100559067D03*
D11*
G36*
X175225168Y-99939429D02*
X176266878Y-100981139D01*
X176069312Y-101178705D01*
X175027602Y-100136995D01*
X175225168Y-99939429D01*
X175225168Y-99939429D01*
G37*
D10*
X176000795Y-100205512D03*
D11*
G36*
X175578723Y-99585874D02*
X176620433Y-100627584D01*
X176422867Y-100825150D01*
X175381157Y-99783440D01*
X175578723Y-99585874D01*
X175578723Y-99585874D01*
G37*
D10*
X176000795Y-97914488D03*
D11*
G36*
X176620433Y-97492416D02*
X175578723Y-98534126D01*
X175381157Y-98336560D01*
X176422867Y-97294850D01*
X176620433Y-97492416D01*
X176620433Y-97492416D01*
G37*
D10*
X175647240Y-97560933D03*
D11*
G36*
X176266878Y-97138861D02*
X175225168Y-98180571D01*
X175027602Y-97983005D01*
X176069312Y-96941295D01*
X176266878Y-97138861D01*
X176266878Y-97138861D01*
G37*
D10*
X175293688Y-97207380D03*
D11*
G36*
X175913326Y-96785308D02*
X174871616Y-97827018D01*
X174674050Y-97629452D01*
X175715760Y-96587742D01*
X175913326Y-96785308D01*
X175913326Y-96785308D01*
G37*
D10*
X174940135Y-96853828D03*
D11*
G36*
X175559773Y-96431756D02*
X174518063Y-97473466D01*
X174320497Y-97275900D01*
X175362207Y-96234190D01*
X175559773Y-96431756D01*
X175559773Y-96431756D01*
G37*
D10*
X174586581Y-96500273D03*
D11*
G36*
X175206219Y-96078201D02*
X174164509Y-97119911D01*
X173966943Y-96922345D01*
X175008653Y-95880635D01*
X175206219Y-96078201D01*
X175206219Y-96078201D01*
G37*
D10*
X174233028Y-96146721D03*
D11*
G36*
X174852666Y-95724649D02*
X173810956Y-96766359D01*
X173613390Y-96568793D01*
X174655100Y-95527083D01*
X174852666Y-95724649D01*
X174852666Y-95724649D01*
G37*
D10*
X173879473Y-95793166D03*
D11*
G36*
X174499111Y-95371094D02*
X173457401Y-96412804D01*
X173259835Y-96215238D01*
X174301545Y-95173528D01*
X174499111Y-95371094D01*
X174499111Y-95371094D01*
G37*
D10*
X173525921Y-95439613D03*
D11*
G36*
X174145559Y-95017541D02*
X173103849Y-96059251D01*
X172906283Y-95861685D01*
X173947993Y-94819975D01*
X174145559Y-95017541D01*
X174145559Y-95017541D01*
G37*
D10*
X173172368Y-95086061D03*
D11*
G36*
X173792006Y-94663989D02*
X172750296Y-95705699D01*
X172552730Y-95508133D01*
X173594440Y-94466423D01*
X173792006Y-94663989D01*
X173792006Y-94663989D01*
G37*
D10*
X172818814Y-94732506D03*
D11*
G36*
X173438452Y-94310434D02*
X172396742Y-95352144D01*
X172199176Y-95154578D01*
X173240886Y-94112868D01*
X173438452Y-94310434D01*
X173438452Y-94310434D01*
G37*
D10*
X172465261Y-94378954D03*
D11*
G36*
X173084899Y-93956882D02*
X172043189Y-94998592D01*
X171845623Y-94801026D01*
X172887333Y-93759316D01*
X173084899Y-93956882D01*
X173084899Y-93956882D01*
G37*
D10*
X172111706Y-94025399D03*
D11*
G36*
X172731344Y-93603327D02*
X171689634Y-94645037D01*
X171492068Y-94447471D01*
X172533778Y-93405761D01*
X172731344Y-93603327D01*
X172731344Y-93603327D01*
G37*
D10*
X171758154Y-93671846D03*
D11*
G36*
X172377792Y-93249774D02*
X171336082Y-94291484D01*
X171138516Y-94093918D01*
X172180226Y-93052208D01*
X172377792Y-93249774D01*
X172377792Y-93249774D01*
G37*
D10*
X171404601Y-93318294D03*
D11*
G36*
X172024239Y-92896222D02*
X170982529Y-93937932D01*
X170784963Y-93740366D01*
X171826673Y-92698656D01*
X172024239Y-92896222D01*
X172024239Y-92896222D01*
G37*
D10*
X171051046Y-92964739D03*
D11*
G36*
X171670684Y-92542667D02*
X170628974Y-93584377D01*
X170431408Y-93386811D01*
X171473118Y-92345101D01*
X171670684Y-92542667D01*
X171670684Y-92542667D01*
G37*
D10*
X170697494Y-92611186D03*
D11*
G36*
X171317132Y-92189114D02*
X170275422Y-93230824D01*
X170077856Y-93033258D01*
X171119566Y-91991548D01*
X171317132Y-92189114D01*
X171317132Y-92189114D01*
G37*
D10*
X170343939Y-92257632D03*
D11*
G36*
X170963577Y-91835560D02*
X169921867Y-92877270D01*
X169724301Y-92679704D01*
X170766011Y-91637994D01*
X170963577Y-91835560D01*
X170963577Y-91835560D01*
G37*
D10*
X169990387Y-91904079D03*
D11*
G36*
X170610025Y-91482007D02*
X169568315Y-92523717D01*
X169370749Y-92326151D01*
X170412459Y-91284441D01*
X170610025Y-91482007D01*
X170610025Y-91482007D01*
G37*
D10*
X169636834Y-91550527D03*
D11*
G36*
X170256472Y-91128455D02*
X169214762Y-92170165D01*
X169017196Y-91972599D01*
X170058906Y-90930889D01*
X170256472Y-91128455D01*
X170256472Y-91128455D01*
G37*
D10*
X169283279Y-91196972D03*
D11*
G36*
X169902917Y-90774900D02*
X168861207Y-91816610D01*
X168663641Y-91619044D01*
X169705351Y-90577334D01*
X169902917Y-90774900D01*
X169902917Y-90774900D01*
G37*
D10*
X168929727Y-90843419D03*
D11*
G36*
X169549365Y-90421347D02*
X168507655Y-91463057D01*
X168310089Y-91265491D01*
X169351799Y-90223781D01*
X169549365Y-90421347D01*
X169549365Y-90421347D01*
G37*
D10*
X168576172Y-90489865D03*
D11*
G36*
X169195810Y-90067793D02*
X168154100Y-91109503D01*
X167956534Y-90911937D01*
X168998244Y-89870227D01*
X169195810Y-90067793D01*
X169195810Y-90067793D01*
G37*
D10*
X168222620Y-90136312D03*
D11*
G36*
X168842258Y-89714240D02*
X167800548Y-90755950D01*
X167602982Y-90558384D01*
X168644692Y-89516674D01*
X168842258Y-89714240D01*
X168842258Y-89714240D01*
G37*
D10*
X167869067Y-89782760D03*
D11*
G36*
X168488705Y-89360688D02*
X167446995Y-90402398D01*
X167249429Y-90204832D01*
X168291139Y-89163122D01*
X168488705Y-89360688D01*
X168488705Y-89360688D01*
G37*
D10*
X167515512Y-89429205D03*
D11*
G36*
X168135150Y-89007133D02*
X167093440Y-90048843D01*
X166895874Y-89851277D01*
X167937584Y-88809567D01*
X168135150Y-89007133D01*
X168135150Y-89007133D01*
G37*
D10*
X165224488Y-89429205D03*
D11*
G36*
X164802416Y-88809567D02*
X165844126Y-89851277D01*
X165646560Y-90048843D01*
X164604850Y-89007133D01*
X164802416Y-88809567D01*
X164802416Y-88809567D01*
G37*
D10*
X164870933Y-89782760D03*
D11*
G36*
X164448861Y-89163122D02*
X165490571Y-90204832D01*
X165293005Y-90402398D01*
X164251295Y-89360688D01*
X164448861Y-89163122D01*
X164448861Y-89163122D01*
G37*
D10*
X164517380Y-90136312D03*
D11*
G36*
X164095308Y-89516674D02*
X165137018Y-90558384D01*
X164939452Y-90755950D01*
X163897742Y-89714240D01*
X164095308Y-89516674D01*
X164095308Y-89516674D01*
G37*
D10*
X164163828Y-90489865D03*
D11*
G36*
X163741756Y-89870227D02*
X164783466Y-90911937D01*
X164585900Y-91109503D01*
X163544190Y-90067793D01*
X163741756Y-89870227D01*
X163741756Y-89870227D01*
G37*
D10*
X163810273Y-90843419D03*
D11*
G36*
X163388201Y-90223781D02*
X164429911Y-91265491D01*
X164232345Y-91463057D01*
X163190635Y-90421347D01*
X163388201Y-90223781D01*
X163388201Y-90223781D01*
G37*
D10*
X163456721Y-91196972D03*
D11*
G36*
X163034649Y-90577334D02*
X164076359Y-91619044D01*
X163878793Y-91816610D01*
X162837083Y-90774900D01*
X163034649Y-90577334D01*
X163034649Y-90577334D01*
G37*
D10*
X163103166Y-91550527D03*
D11*
G36*
X162681094Y-90930889D02*
X163722804Y-91972599D01*
X163525238Y-92170165D01*
X162483528Y-91128455D01*
X162681094Y-90930889D01*
X162681094Y-90930889D01*
G37*
D10*
X162749613Y-91904079D03*
D11*
G36*
X162327541Y-91284441D02*
X163369251Y-92326151D01*
X163171685Y-92523717D01*
X162129975Y-91482007D01*
X162327541Y-91284441D01*
X162327541Y-91284441D01*
G37*
D10*
X162396061Y-92257632D03*
D11*
G36*
X161973989Y-91637994D02*
X163015699Y-92679704D01*
X162818133Y-92877270D01*
X161776423Y-91835560D01*
X161973989Y-91637994D01*
X161973989Y-91637994D01*
G37*
D10*
X162042506Y-92611186D03*
D11*
G36*
X161620434Y-91991548D02*
X162662144Y-93033258D01*
X162464578Y-93230824D01*
X161422868Y-92189114D01*
X161620434Y-91991548D01*
X161620434Y-91991548D01*
G37*
D10*
X161688954Y-92964739D03*
D11*
G36*
X161266882Y-92345101D02*
X162308592Y-93386811D01*
X162111026Y-93584377D01*
X161069316Y-92542667D01*
X161266882Y-92345101D01*
X161266882Y-92345101D01*
G37*
D10*
X161335399Y-93318294D03*
D11*
G36*
X160913327Y-92698656D02*
X161955037Y-93740366D01*
X161757471Y-93937932D01*
X160715761Y-92896222D01*
X160913327Y-92698656D01*
X160913327Y-92698656D01*
G37*
D10*
X160981846Y-93671846D03*
D11*
G36*
X160559774Y-93052208D02*
X161601484Y-94093918D01*
X161403918Y-94291484D01*
X160362208Y-93249774D01*
X160559774Y-93052208D01*
X160559774Y-93052208D01*
G37*
D10*
X160628294Y-94025399D03*
D11*
G36*
X160206222Y-93405761D02*
X161247932Y-94447471D01*
X161050366Y-94645037D01*
X160008656Y-93603327D01*
X160206222Y-93405761D01*
X160206222Y-93405761D01*
G37*
D10*
X160274739Y-94378954D03*
D11*
G36*
X159852667Y-93759316D02*
X160894377Y-94801026D01*
X160696811Y-94998592D01*
X159655101Y-93956882D01*
X159852667Y-93759316D01*
X159852667Y-93759316D01*
G37*
D10*
X159921186Y-94732506D03*
D11*
G36*
X159499114Y-94112868D02*
X160540824Y-95154578D01*
X160343258Y-95352144D01*
X159301548Y-94310434D01*
X159499114Y-94112868D01*
X159499114Y-94112868D01*
G37*
D10*
X159567632Y-95086061D03*
D11*
G36*
X159145560Y-94466423D02*
X160187270Y-95508133D01*
X159989704Y-95705699D01*
X158947994Y-94663989D01*
X159145560Y-94466423D01*
X159145560Y-94466423D01*
G37*
D10*
X159214079Y-95439613D03*
D11*
G36*
X158792007Y-94819975D02*
X159833717Y-95861685D01*
X159636151Y-96059251D01*
X158594441Y-95017541D01*
X158792007Y-94819975D01*
X158792007Y-94819975D01*
G37*
D10*
X158860527Y-95793166D03*
D11*
G36*
X158438455Y-95173528D02*
X159480165Y-96215238D01*
X159282599Y-96412804D01*
X158240889Y-95371094D01*
X158438455Y-95173528D01*
X158438455Y-95173528D01*
G37*
D10*
X158506972Y-96146721D03*
D11*
G36*
X158084900Y-95527083D02*
X159126610Y-96568793D01*
X158929044Y-96766359D01*
X157887334Y-95724649D01*
X158084900Y-95527083D01*
X158084900Y-95527083D01*
G37*
D10*
X158153419Y-96500273D03*
D11*
G36*
X157731347Y-95880635D02*
X158773057Y-96922345D01*
X158575491Y-97119911D01*
X157533781Y-96078201D01*
X157731347Y-95880635D01*
X157731347Y-95880635D01*
G37*
D10*
X157799865Y-96853828D03*
D11*
G36*
X157377793Y-96234190D02*
X158419503Y-97275900D01*
X158221937Y-97473466D01*
X157180227Y-96431756D01*
X157377793Y-96234190D01*
X157377793Y-96234190D01*
G37*
D10*
X157446312Y-97207380D03*
D11*
G36*
X157024240Y-96587742D02*
X158065950Y-97629452D01*
X157868384Y-97827018D01*
X156826674Y-96785308D01*
X157024240Y-96587742D01*
X157024240Y-96587742D01*
G37*
D10*
X157092760Y-97560933D03*
D11*
G36*
X156670688Y-96941295D02*
X157712398Y-97983005D01*
X157514832Y-98180571D01*
X156473122Y-97138861D01*
X156670688Y-96941295D01*
X156670688Y-96941295D01*
G37*
D10*
X156739205Y-97914488D03*
D11*
G36*
X156317133Y-97294850D02*
X157358843Y-98336560D01*
X157161277Y-98534126D01*
X156119567Y-97492416D01*
X156317133Y-97294850D01*
X156317133Y-97294850D01*
G37*
D10*
X156739205Y-100205512D03*
D11*
G36*
X157358843Y-99783440D02*
X156317133Y-100825150D01*
X156119567Y-100627584D01*
X157161277Y-99585874D01*
X157358843Y-99783440D01*
X157358843Y-99783440D01*
G37*
D10*
X157092760Y-100559067D03*
D11*
G36*
X157712398Y-100136995D02*
X156670688Y-101178705D01*
X156473122Y-100981139D01*
X157514832Y-99939429D01*
X157712398Y-100136995D01*
X157712398Y-100136995D01*
G37*
D10*
X157446312Y-100912620D03*
D11*
G36*
X158065950Y-100490548D02*
X157024240Y-101532258D01*
X156826674Y-101334692D01*
X157868384Y-100292982D01*
X158065950Y-100490548D01*
X158065950Y-100490548D01*
G37*
D10*
X157799865Y-101266172D03*
D11*
G36*
X158419503Y-100844100D02*
X157377793Y-101885810D01*
X157180227Y-101688244D01*
X158221937Y-100646534D01*
X158419503Y-100844100D01*
X158419503Y-100844100D01*
G37*
D10*
X158153419Y-101619727D03*
D11*
G36*
X158773057Y-101197655D02*
X157731347Y-102239365D01*
X157533781Y-102041799D01*
X158575491Y-101000089D01*
X158773057Y-101197655D01*
X158773057Y-101197655D01*
G37*
D10*
X158506972Y-101973279D03*
D11*
G36*
X159126610Y-101551207D02*
X158084900Y-102592917D01*
X157887334Y-102395351D01*
X158929044Y-101353641D01*
X159126610Y-101551207D01*
X159126610Y-101551207D01*
G37*
D10*
X158860527Y-102326834D03*
D11*
G36*
X159480165Y-101904762D02*
X158438455Y-102946472D01*
X158240889Y-102748906D01*
X159282599Y-101707196D01*
X159480165Y-101904762D01*
X159480165Y-101904762D01*
G37*
D10*
X159214079Y-102680387D03*
D11*
G36*
X159833717Y-102258315D02*
X158792007Y-103300025D01*
X158594441Y-103102459D01*
X159636151Y-102060749D01*
X159833717Y-102258315D01*
X159833717Y-102258315D01*
G37*
D10*
X159567632Y-103033939D03*
D11*
G36*
X160187270Y-102611867D02*
X159145560Y-103653577D01*
X158947994Y-103456011D01*
X159989704Y-102414301D01*
X160187270Y-102611867D01*
X160187270Y-102611867D01*
G37*
D10*
X159921186Y-103387494D03*
D11*
G36*
X160540824Y-102965422D02*
X159499114Y-104007132D01*
X159301548Y-103809566D01*
X160343258Y-102767856D01*
X160540824Y-102965422D01*
X160540824Y-102965422D01*
G37*
D10*
X160274739Y-103741046D03*
D11*
G36*
X160894377Y-103318974D02*
X159852667Y-104360684D01*
X159655101Y-104163118D01*
X160696811Y-103121408D01*
X160894377Y-103318974D01*
X160894377Y-103318974D01*
G37*
D10*
X160628294Y-104094601D03*
D11*
G36*
X161247932Y-103672529D02*
X160206222Y-104714239D01*
X160008656Y-104516673D01*
X161050366Y-103474963D01*
X161247932Y-103672529D01*
X161247932Y-103672529D01*
G37*
D10*
X160981846Y-104448154D03*
D11*
G36*
X161601484Y-104026082D02*
X160559774Y-105067792D01*
X160362208Y-104870226D01*
X161403918Y-103828516D01*
X161601484Y-104026082D01*
X161601484Y-104026082D01*
G37*
D10*
X161335399Y-104801706D03*
D11*
G36*
X161955037Y-104379634D02*
X160913327Y-105421344D01*
X160715761Y-105223778D01*
X161757471Y-104182068D01*
X161955037Y-104379634D01*
X161955037Y-104379634D01*
G37*
D10*
X161688954Y-105155261D03*
D11*
G36*
X162308592Y-104733189D02*
X161266882Y-105774899D01*
X161069316Y-105577333D01*
X162111026Y-104535623D01*
X162308592Y-104733189D01*
X162308592Y-104733189D01*
G37*
D10*
X162042506Y-105508814D03*
D11*
G36*
X162662144Y-105086742D02*
X161620434Y-106128452D01*
X161422868Y-105930886D01*
X162464578Y-104889176D01*
X162662144Y-105086742D01*
X162662144Y-105086742D01*
G37*
D10*
X162396061Y-105862368D03*
D11*
G36*
X163015699Y-105440296D02*
X161973989Y-106482006D01*
X161776423Y-106284440D01*
X162818133Y-105242730D01*
X163015699Y-105440296D01*
X163015699Y-105440296D01*
G37*
D10*
X162749613Y-106215921D03*
D11*
G36*
X163369251Y-105793849D02*
X162327541Y-106835559D01*
X162129975Y-106637993D01*
X163171685Y-105596283D01*
X163369251Y-105793849D01*
X163369251Y-105793849D01*
G37*
D10*
X163103166Y-106569473D03*
D11*
G36*
X163722804Y-106147401D02*
X162681094Y-107189111D01*
X162483528Y-106991545D01*
X163525238Y-105949835D01*
X163722804Y-106147401D01*
X163722804Y-106147401D01*
G37*
D10*
X163456721Y-106923028D03*
D11*
G36*
X164076359Y-106500956D02*
X163034649Y-107542666D01*
X162837083Y-107345100D01*
X163878793Y-106303390D01*
X164076359Y-106500956D01*
X164076359Y-106500956D01*
G37*
D10*
X163810273Y-107276581D03*
D11*
G36*
X164429911Y-106854509D02*
X163388201Y-107896219D01*
X163190635Y-107698653D01*
X164232345Y-106656943D01*
X164429911Y-106854509D01*
X164429911Y-106854509D01*
G37*
D10*
X164163828Y-107630135D03*
D11*
G36*
X164783466Y-107208063D02*
X163741756Y-108249773D01*
X163544190Y-108052207D01*
X164585900Y-107010497D01*
X164783466Y-107208063D01*
X164783466Y-107208063D01*
G37*
D10*
X164517380Y-107983688D03*
D11*
G36*
X165137018Y-107561616D02*
X164095308Y-108603326D01*
X163897742Y-108405760D01*
X164939452Y-107364050D01*
X165137018Y-107561616D01*
X165137018Y-107561616D01*
G37*
D10*
X164870933Y-108337240D03*
D11*
G36*
X165490571Y-107915168D02*
X164448861Y-108956878D01*
X164251295Y-108759312D01*
X165293005Y-107717602D01*
X165490571Y-107915168D01*
X165490571Y-107915168D01*
G37*
D10*
X165224488Y-108690795D03*
D11*
G36*
X165844126Y-108268723D02*
X164802416Y-109310433D01*
X164604850Y-109112867D01*
X165646560Y-108071157D01*
X165844126Y-108268723D01*
X165844126Y-108268723D01*
G37*
G04 #@! TD*
D12*
G04 #@! TO.C,J1*
X167640000Y-116840000D03*
D13*
X170180000Y-116840000D03*
X172720000Y-116840000D03*
X175260000Y-116840000D03*
X177800000Y-116840000D03*
X180340000Y-116840000D03*
X182880000Y-116840000D03*
X185420000Y-116840000D03*
X187960000Y-116840000D03*
X190500000Y-116840000D03*
X193040000Y-116840000D03*
X195580000Y-116840000D03*
X198120000Y-116840000D03*
X200660000Y-116840000D03*
X203200000Y-116840000D03*
X205740000Y-116840000D03*
X208280000Y-116840000D03*
X210820000Y-116840000D03*
X213360000Y-116840000D03*
X215900000Y-116840000D03*
X218440000Y-116840000D03*
X220980000Y-116840000D03*
X223520000Y-116840000D03*
X226060000Y-116840000D03*
X228600000Y-116840000D03*
G04 #@! TD*
G04 #@! TO.C,J2*
X167640000Y-81280000D03*
X170180000Y-81280000D03*
X172720000Y-81280000D03*
X175260000Y-81280000D03*
X177800000Y-81280000D03*
X180340000Y-81280000D03*
X182880000Y-81280000D03*
X185420000Y-81280000D03*
X187960000Y-81280000D03*
X190500000Y-81280000D03*
X193040000Y-81280000D03*
X195580000Y-81280000D03*
X198120000Y-81280000D03*
X200660000Y-81280000D03*
X203200000Y-81280000D03*
X205740000Y-81280000D03*
X208280000Y-81280000D03*
X210820000Y-81280000D03*
X213360000Y-81280000D03*
X215900000Y-81280000D03*
X218440000Y-81280000D03*
X220980000Y-81280000D03*
X223520000Y-81280000D03*
X226060000Y-81280000D03*
D12*
X228600000Y-81280000D03*
G04 #@! TD*
G04 #@! TO.C,J3*
X165100000Y-81280000D03*
D13*
X162560000Y-81280000D03*
X160020000Y-81280000D03*
X157480000Y-81280000D03*
X154940000Y-81280000D03*
X152400000Y-81280000D03*
X149860000Y-81280000D03*
X147320000Y-81280000D03*
X144780000Y-81280000D03*
X142240000Y-81280000D03*
X139700000Y-81280000D03*
X137160000Y-81280000D03*
X134620000Y-81280000D03*
X132080000Y-81280000D03*
X129540000Y-81280000D03*
X127000000Y-81280000D03*
X124460000Y-81280000D03*
X121920000Y-81280000D03*
X119380000Y-81280000D03*
X116840000Y-81280000D03*
X114300000Y-81280000D03*
X111760000Y-81280000D03*
X109220000Y-81280000D03*
X106680000Y-81280000D03*
X104140000Y-81280000D03*
G04 #@! TD*
G04 #@! TO.C,J4*
X165100000Y-116840000D03*
X162560000Y-116840000D03*
X160020000Y-116840000D03*
X157480000Y-116840000D03*
X154940000Y-116840000D03*
X152400000Y-116840000D03*
X149860000Y-116840000D03*
X147320000Y-116840000D03*
X144780000Y-116840000D03*
X142240000Y-116840000D03*
X139700000Y-116840000D03*
X137160000Y-116840000D03*
X134620000Y-116840000D03*
X132080000Y-116840000D03*
X129540000Y-116840000D03*
X127000000Y-116840000D03*
X124460000Y-116840000D03*
X121920000Y-116840000D03*
X119380000Y-116840000D03*
X116840000Y-116840000D03*
X114300000Y-116840000D03*
X111760000Y-116840000D03*
X109220000Y-116840000D03*
X106680000Y-116840000D03*
D12*
X104140000Y-116840000D03*
G04 #@! TD*
M02*
