G04 #@! TF.GenerationSoftware,KiCad,Pcbnew,5.0.0-rc2-unknown-da66005~65~ubuntu16.04.1*
G04 #@! TF.CreationDate,2018-05-28T11:28:40+02:00*
G04 #@! TF.ProjectId,AD8113 Breakout LQFP 100,41443831313320427265616B6F757420,rev?*
G04 #@! TF.SameCoordinates,Original*
G04 #@! TF.FileFunction,Copper,L2,Bot,Signal*
G04 #@! TF.FilePolarity,Positive*
%FSLAX46Y46*%
G04 Gerber Fmt 4.6, Leading zero omitted, Abs format (unit mm)*
G04 Created by KiCad (PCBNEW 5.0.0-rc2-unknown-da66005~65~ubuntu16.04.1) date Mon May 28 11:28:40 2018*
%MOMM*%
%LPD*%
G01*
G04 APERTURE LIST*
G04 #@! TA.AperFunction,ComponentPad*
%ADD10R,1.879600X1.879600*%
G04 #@! TD*
G04 #@! TA.AperFunction,ComponentPad*
%ADD11C,1.879600*%
G04 #@! TD*
G04 APERTURE END LIST*
D10*
G04 #@! TO.P,J1,1*
G04 #@! TO.N,/P001*
X167640000Y-116840000D03*
D11*
G04 #@! TO.P,J1,2*
G04 #@! TO.N,/P002*
X170180000Y-116840000D03*
G04 #@! TO.P,J1,3*
G04 #@! TO.N,/P003*
X172720000Y-116840000D03*
G04 #@! TO.P,J1,4*
G04 #@! TO.N,/P004*
X175260000Y-116840000D03*
G04 #@! TO.P,J1,5*
G04 #@! TO.N,/P005*
X177800000Y-116840000D03*
G04 #@! TO.P,J1,6*
G04 #@! TO.N,/P006*
X180340000Y-116840000D03*
G04 #@! TO.P,J1,7*
G04 #@! TO.N,/P007*
X182880000Y-116840000D03*
G04 #@! TO.P,J1,8*
G04 #@! TO.N,/P008*
X185420000Y-116840000D03*
G04 #@! TO.P,J1,9*
G04 #@! TO.N,/P009*
X187960000Y-116840000D03*
G04 #@! TO.P,J1,10*
G04 #@! TO.N,/P010*
X190500000Y-116840000D03*
G04 #@! TO.P,J1,11*
G04 #@! TO.N,/P011*
X193040000Y-116840000D03*
G04 #@! TO.P,J1,12*
G04 #@! TO.N,/P012*
X195580000Y-116840000D03*
G04 #@! TO.P,J1,13*
G04 #@! TO.N,/P013*
X198120000Y-116840000D03*
G04 #@! TO.P,J1,14*
G04 #@! TO.N,/P014*
X200660000Y-116840000D03*
G04 #@! TO.P,J1,15*
G04 #@! TO.N,/P015*
X203200000Y-116840000D03*
G04 #@! TO.P,J1,16*
G04 #@! TO.N,/P016*
X205740000Y-116840000D03*
G04 #@! TO.P,J1,17*
G04 #@! TO.N,/P017*
X208280000Y-116840000D03*
G04 #@! TO.P,J1,18*
G04 #@! TO.N,/P018*
X210820000Y-116840000D03*
G04 #@! TO.P,J1,19*
G04 #@! TO.N,/P019*
X213360000Y-116840000D03*
G04 #@! TO.P,J1,20*
G04 #@! TO.N,/P020*
X215900000Y-116840000D03*
G04 #@! TO.P,J1,21*
G04 #@! TO.N,/P021*
X218440000Y-116840000D03*
G04 #@! TO.P,J1,22*
G04 #@! TO.N,/P022*
X220980000Y-116840000D03*
G04 #@! TO.P,J1,23*
G04 #@! TO.N,/P023*
X223520000Y-116840000D03*
G04 #@! TO.P,J1,24*
G04 #@! TO.N,/P024*
X226060000Y-116840000D03*
G04 #@! TO.P,J1,25*
G04 #@! TO.N,/P025*
X228600000Y-116840000D03*
G04 #@! TD*
G04 #@! TO.P,J2,25*
G04 #@! TO.N,/P050*
X167640000Y-81280000D03*
G04 #@! TO.P,J2,24*
G04 #@! TO.N,/P049*
X170180000Y-81280000D03*
G04 #@! TO.P,J2,23*
G04 #@! TO.N,/P048*
X172720000Y-81280000D03*
G04 #@! TO.P,J2,22*
G04 #@! TO.N,/P047*
X175260000Y-81280000D03*
G04 #@! TO.P,J2,21*
G04 #@! TO.N,/P046*
X177800000Y-81280000D03*
G04 #@! TO.P,J2,20*
G04 #@! TO.N,/P045*
X180340000Y-81280000D03*
G04 #@! TO.P,J2,19*
G04 #@! TO.N,/P044*
X182880000Y-81280000D03*
G04 #@! TO.P,J2,18*
G04 #@! TO.N,/P043*
X185420000Y-81280000D03*
G04 #@! TO.P,J2,17*
G04 #@! TO.N,/P042*
X187960000Y-81280000D03*
G04 #@! TO.P,J2,16*
G04 #@! TO.N,/P041*
X190500000Y-81280000D03*
G04 #@! TO.P,J2,15*
G04 #@! TO.N,/P040*
X193040000Y-81280000D03*
G04 #@! TO.P,J2,14*
G04 #@! TO.N,/P039*
X195580000Y-81280000D03*
G04 #@! TO.P,J2,13*
G04 #@! TO.N,/P038*
X198120000Y-81280000D03*
G04 #@! TO.P,J2,12*
G04 #@! TO.N,/P037*
X200660000Y-81280000D03*
G04 #@! TO.P,J2,11*
G04 #@! TO.N,/P036*
X203200000Y-81280000D03*
G04 #@! TO.P,J2,10*
G04 #@! TO.N,/P035*
X205740000Y-81280000D03*
G04 #@! TO.P,J2,9*
G04 #@! TO.N,/P034*
X208280000Y-81280000D03*
G04 #@! TO.P,J2,8*
G04 #@! TO.N,/P033*
X210820000Y-81280000D03*
G04 #@! TO.P,J2,7*
G04 #@! TO.N,/P032*
X213360000Y-81280000D03*
G04 #@! TO.P,J2,6*
G04 #@! TO.N,/P031*
X215900000Y-81280000D03*
G04 #@! TO.P,J2,5*
G04 #@! TO.N,/P030*
X218440000Y-81280000D03*
G04 #@! TO.P,J2,4*
G04 #@! TO.N,/P029*
X220980000Y-81280000D03*
G04 #@! TO.P,J2,3*
G04 #@! TO.N,/P028*
X223520000Y-81280000D03*
G04 #@! TO.P,J2,2*
G04 #@! TO.N,/P027*
X226060000Y-81280000D03*
D10*
G04 #@! TO.P,J2,1*
G04 #@! TO.N,/P026*
X228600000Y-81280000D03*
G04 #@! TD*
G04 #@! TO.P,J3,1*
G04 #@! TO.N,/P051*
X165100000Y-81280000D03*
D11*
G04 #@! TO.P,J3,2*
G04 #@! TO.N,/P052*
X162560000Y-81280000D03*
G04 #@! TO.P,J3,3*
G04 #@! TO.N,/P053*
X160020000Y-81280000D03*
G04 #@! TO.P,J3,4*
G04 #@! TO.N,/P054*
X157480000Y-81280000D03*
G04 #@! TO.P,J3,5*
G04 #@! TO.N,/P055*
X154940000Y-81280000D03*
G04 #@! TO.P,J3,6*
G04 #@! TO.N,/P056*
X152400000Y-81280000D03*
G04 #@! TO.P,J3,7*
G04 #@! TO.N,/P057*
X149860000Y-81280000D03*
G04 #@! TO.P,J3,8*
G04 #@! TO.N,/P058*
X147320000Y-81280000D03*
G04 #@! TO.P,J3,9*
G04 #@! TO.N,/P059*
X144780000Y-81280000D03*
G04 #@! TO.P,J3,10*
G04 #@! TO.N,/P060*
X142240000Y-81280000D03*
G04 #@! TO.P,J3,11*
G04 #@! TO.N,/P061*
X139700000Y-81280000D03*
G04 #@! TO.P,J3,12*
G04 #@! TO.N,/P062*
X137160000Y-81280000D03*
G04 #@! TO.P,J3,13*
G04 #@! TO.N,/P063*
X134620000Y-81280000D03*
G04 #@! TO.P,J3,14*
G04 #@! TO.N,/P064*
X132080000Y-81280000D03*
G04 #@! TO.P,J3,15*
G04 #@! TO.N,/P065*
X129540000Y-81280000D03*
G04 #@! TO.P,J3,16*
G04 #@! TO.N,/P066*
X127000000Y-81280000D03*
G04 #@! TO.P,J3,17*
G04 #@! TO.N,/P067*
X124460000Y-81280000D03*
G04 #@! TO.P,J3,18*
G04 #@! TO.N,/P068*
X121920000Y-81280000D03*
G04 #@! TO.P,J3,19*
G04 #@! TO.N,/P069*
X119380000Y-81280000D03*
G04 #@! TO.P,J3,20*
G04 #@! TO.N,/P070*
X116840000Y-81280000D03*
G04 #@! TO.P,J3,21*
G04 #@! TO.N,/P071*
X114300000Y-81280000D03*
G04 #@! TO.P,J3,22*
G04 #@! TO.N,/P072*
X111760000Y-81280000D03*
G04 #@! TO.P,J3,23*
G04 #@! TO.N,/P073*
X109220000Y-81280000D03*
G04 #@! TO.P,J3,24*
G04 #@! TO.N,/P074*
X106680000Y-81280000D03*
G04 #@! TO.P,J3,25*
G04 #@! TO.N,/P075*
X104140000Y-81280000D03*
G04 #@! TD*
G04 #@! TO.P,J4,25*
G04 #@! TO.N,/P100*
X165100000Y-116840000D03*
G04 #@! TO.P,J4,24*
G04 #@! TO.N,/P099*
X162560000Y-116840000D03*
G04 #@! TO.P,J4,23*
G04 #@! TO.N,/P098*
X160020000Y-116840000D03*
G04 #@! TO.P,J4,22*
G04 #@! TO.N,/P097*
X157480000Y-116840000D03*
G04 #@! TO.P,J4,21*
G04 #@! TO.N,/P096*
X154940000Y-116840000D03*
G04 #@! TO.P,J4,20*
G04 #@! TO.N,/P095*
X152400000Y-116840000D03*
G04 #@! TO.P,J4,19*
G04 #@! TO.N,/P094*
X149860000Y-116840000D03*
G04 #@! TO.P,J4,18*
G04 #@! TO.N,/P093*
X147320000Y-116840000D03*
G04 #@! TO.P,J4,17*
G04 #@! TO.N,/P092*
X144780000Y-116840000D03*
G04 #@! TO.P,J4,16*
G04 #@! TO.N,/P091*
X142240000Y-116840000D03*
G04 #@! TO.P,J4,15*
G04 #@! TO.N,/P090*
X139700000Y-116840000D03*
G04 #@! TO.P,J4,14*
G04 #@! TO.N,/P089*
X137160000Y-116840000D03*
G04 #@! TO.P,J4,13*
G04 #@! TO.N,/P088*
X134620000Y-116840000D03*
G04 #@! TO.P,J4,12*
G04 #@! TO.N,/P087*
X132080000Y-116840000D03*
G04 #@! TO.P,J4,11*
G04 #@! TO.N,/P086*
X129540000Y-116840000D03*
G04 #@! TO.P,J4,10*
G04 #@! TO.N,/P085*
X127000000Y-116840000D03*
G04 #@! TO.P,J4,9*
G04 #@! TO.N,/P084*
X124460000Y-116840000D03*
G04 #@! TO.P,J4,8*
G04 #@! TO.N,/P083*
X121920000Y-116840000D03*
G04 #@! TO.P,J4,7*
G04 #@! TO.N,/P082*
X119380000Y-116840000D03*
G04 #@! TO.P,J4,6*
G04 #@! TO.N,/P081*
X116840000Y-116840000D03*
G04 #@! TO.P,J4,5*
G04 #@! TO.N,/P080*
X114300000Y-116840000D03*
G04 #@! TO.P,J4,4*
G04 #@! TO.N,/P079*
X111760000Y-116840000D03*
G04 #@! TO.P,J4,3*
G04 #@! TO.N,/P078*
X109220000Y-116840000D03*
G04 #@! TO.P,J4,2*
G04 #@! TO.N,/P077*
X106680000Y-116840000D03*
D10*
G04 #@! TO.P,J4,1*
G04 #@! TO.N,/P076*
X104140000Y-116840000D03*
G04 #@! TD*
M02*
