G04 MADE WITH FRITZING*
G04 WWW.FRITZING.ORG*
G04 DOUBLE SIDED*
G04 HOLES PLATED*
G04 CONTOUR ON CENTER OF CONTOUR VECTOR*
%ASAXBY*%
%FSLAX23Y23*%
%MOIN*%
%OFA0B0*%
%SFA1.0B1.0*%
%ADD10C,0.075000*%
%ADD11C,0.116772*%
%LNCOPPER1*%
G90*
G70*
G54D10*
X1846Y1269D03*
G54D11*
X1412Y553D03*
X1570Y553D03*
X1885Y553D03*
X1727Y553D03*
X1255Y553D03*
X1255Y789D03*
X1412Y789D03*
X1570Y789D03*
X1727Y789D03*
X1885Y789D03*
G36*
X40Y1338D02*
X40Y1256D01*
X1736Y1256D01*
X1736Y1254D01*
X1746Y1254D01*
X1746Y1252D01*
X1752Y1252D01*
X1752Y1250D01*
X1756Y1250D01*
X1756Y1248D01*
X1760Y1248D01*
X1760Y1246D01*
X1764Y1246D01*
X1764Y1244D01*
X1768Y1244D01*
X1768Y1242D01*
X1770Y1242D01*
X1770Y1240D01*
X1772Y1240D01*
X1772Y1238D01*
X1774Y1238D01*
X1774Y1236D01*
X1778Y1236D01*
X1778Y1234D01*
X1780Y1234D01*
X1780Y1232D01*
X1782Y1232D01*
X1782Y1228D01*
X1784Y1228D01*
X1784Y1226D01*
X1786Y1226D01*
X1786Y1224D01*
X1788Y1224D01*
X1788Y1220D01*
X1790Y1220D01*
X1790Y1218D01*
X1792Y1218D01*
X1792Y1214D01*
X1794Y1214D01*
X1794Y1210D01*
X1796Y1210D01*
X1796Y1204D01*
X1798Y1204D01*
X1798Y1196D01*
X1800Y1196D01*
X1800Y1170D01*
X1798Y1170D01*
X1798Y1162D01*
X1796Y1162D01*
X1796Y1156D01*
X1794Y1156D01*
X1794Y1152D01*
X1792Y1152D01*
X1792Y1148D01*
X1790Y1148D01*
X1790Y1144D01*
X1788Y1144D01*
X1788Y1142D01*
X1786Y1142D01*
X1786Y1138D01*
X1784Y1138D01*
X1784Y1136D01*
X1782Y1136D01*
X1782Y1134D01*
X1780Y1134D01*
X1780Y1132D01*
X1778Y1132D01*
X1778Y1130D01*
X1776Y1130D01*
X1776Y1128D01*
X1774Y1128D01*
X1774Y1126D01*
X1772Y1126D01*
X1772Y1124D01*
X1768Y1124D01*
X1768Y1122D01*
X1766Y1122D01*
X1766Y1120D01*
X1762Y1120D01*
X1762Y1118D01*
X1758Y1118D01*
X1758Y1116D01*
X1754Y1116D01*
X1754Y1114D01*
X1748Y1114D01*
X1748Y1112D01*
X1740Y1112D01*
X1740Y1110D01*
X1928Y1110D01*
X1928Y1338D01*
X40Y1338D01*
G37*
D02*
G36*
X40Y1256D02*
X40Y1110D01*
X218Y1110D01*
X218Y1112D01*
X210Y1112D01*
X210Y1114D01*
X204Y1114D01*
X204Y1116D01*
X200Y1116D01*
X200Y1118D01*
X196Y1118D01*
X196Y1120D01*
X194Y1120D01*
X194Y1122D01*
X190Y1122D01*
X190Y1124D01*
X188Y1124D01*
X188Y1126D01*
X186Y1126D01*
X186Y1128D01*
X182Y1128D01*
X182Y1130D01*
X180Y1130D01*
X180Y1132D01*
X178Y1132D01*
X178Y1134D01*
X176Y1134D01*
X176Y1138D01*
X174Y1138D01*
X174Y1140D01*
X172Y1140D01*
X172Y1142D01*
X170Y1142D01*
X170Y1146D01*
X168Y1146D01*
X168Y1150D01*
X166Y1150D01*
X166Y1154D01*
X164Y1154D01*
X164Y1158D01*
X162Y1158D01*
X162Y1164D01*
X160Y1164D01*
X160Y1174D01*
X158Y1174D01*
X158Y1192D01*
X160Y1192D01*
X160Y1202D01*
X162Y1202D01*
X162Y1208D01*
X164Y1208D01*
X164Y1212D01*
X166Y1212D01*
X166Y1216D01*
X168Y1216D01*
X168Y1220D01*
X170Y1220D01*
X170Y1222D01*
X172Y1222D01*
X172Y1226D01*
X174Y1226D01*
X174Y1228D01*
X176Y1228D01*
X176Y1230D01*
X178Y1230D01*
X178Y1232D01*
X180Y1232D01*
X180Y1234D01*
X182Y1234D01*
X182Y1236D01*
X184Y1236D01*
X184Y1238D01*
X186Y1238D01*
X186Y1240D01*
X188Y1240D01*
X188Y1242D01*
X192Y1242D01*
X192Y1244D01*
X194Y1244D01*
X194Y1246D01*
X198Y1246D01*
X198Y1248D01*
X202Y1248D01*
X202Y1250D01*
X206Y1250D01*
X206Y1252D01*
X212Y1252D01*
X212Y1254D01*
X222Y1254D01*
X222Y1256D01*
X40Y1256D01*
G37*
D02*
G36*
X240Y1256D02*
X240Y1254D01*
X250Y1254D01*
X250Y1252D01*
X256Y1252D01*
X256Y1250D01*
X260Y1250D01*
X260Y1248D01*
X264Y1248D01*
X264Y1246D01*
X268Y1246D01*
X268Y1244D01*
X272Y1244D01*
X272Y1242D01*
X274Y1242D01*
X274Y1240D01*
X276Y1240D01*
X276Y1238D01*
X278Y1238D01*
X278Y1236D01*
X282Y1236D01*
X282Y1234D01*
X284Y1234D01*
X284Y1232D01*
X286Y1232D01*
X286Y1228D01*
X288Y1228D01*
X288Y1226D01*
X290Y1226D01*
X290Y1224D01*
X292Y1224D01*
X292Y1220D01*
X294Y1220D01*
X294Y1218D01*
X296Y1218D01*
X296Y1214D01*
X298Y1214D01*
X298Y1208D01*
X300Y1208D01*
X300Y1204D01*
X302Y1204D01*
X302Y1196D01*
X304Y1196D01*
X304Y1170D01*
X302Y1170D01*
X302Y1162D01*
X300Y1162D01*
X300Y1156D01*
X298Y1156D01*
X298Y1152D01*
X296Y1152D01*
X296Y1148D01*
X294Y1148D01*
X294Y1144D01*
X292Y1144D01*
X292Y1142D01*
X290Y1142D01*
X290Y1138D01*
X288Y1138D01*
X288Y1136D01*
X286Y1136D01*
X286Y1134D01*
X284Y1134D01*
X284Y1132D01*
X282Y1132D01*
X282Y1130D01*
X280Y1130D01*
X280Y1128D01*
X278Y1128D01*
X278Y1126D01*
X276Y1126D01*
X276Y1124D01*
X272Y1124D01*
X272Y1122D01*
X270Y1122D01*
X270Y1120D01*
X266Y1120D01*
X266Y1118D01*
X262Y1118D01*
X262Y1116D01*
X258Y1116D01*
X258Y1114D01*
X252Y1114D01*
X252Y1112D01*
X244Y1112D01*
X244Y1110D01*
X1006Y1110D01*
X1006Y1112D01*
X998Y1112D01*
X998Y1114D01*
X992Y1114D01*
X992Y1116D01*
X988Y1116D01*
X988Y1118D01*
X984Y1118D01*
X984Y1120D01*
X980Y1120D01*
X980Y1122D01*
X978Y1122D01*
X978Y1124D01*
X976Y1124D01*
X976Y1126D01*
X972Y1126D01*
X972Y1128D01*
X970Y1128D01*
X970Y1130D01*
X968Y1130D01*
X968Y1132D01*
X966Y1132D01*
X966Y1134D01*
X964Y1134D01*
X964Y1136D01*
X962Y1136D01*
X962Y1140D01*
X960Y1140D01*
X960Y1142D01*
X958Y1142D01*
X958Y1144D01*
X956Y1144D01*
X956Y1148D01*
X954Y1148D01*
X954Y1152D01*
X952Y1152D01*
X952Y1156D01*
X950Y1156D01*
X950Y1162D01*
X948Y1162D01*
X948Y1170D01*
X946Y1170D01*
X946Y1196D01*
X948Y1196D01*
X948Y1204D01*
X950Y1204D01*
X950Y1208D01*
X952Y1208D01*
X952Y1214D01*
X954Y1214D01*
X954Y1218D01*
X956Y1218D01*
X956Y1220D01*
X958Y1220D01*
X958Y1224D01*
X960Y1224D01*
X960Y1226D01*
X962Y1226D01*
X962Y1228D01*
X964Y1228D01*
X964Y1230D01*
X966Y1230D01*
X966Y1234D01*
X968Y1234D01*
X968Y1236D01*
X972Y1236D01*
X972Y1238D01*
X974Y1238D01*
X974Y1240D01*
X976Y1240D01*
X976Y1242D01*
X978Y1242D01*
X978Y1244D01*
X982Y1244D01*
X982Y1246D01*
X986Y1246D01*
X986Y1248D01*
X990Y1248D01*
X990Y1250D01*
X994Y1250D01*
X994Y1252D01*
X1000Y1252D01*
X1000Y1254D01*
X1010Y1254D01*
X1010Y1256D01*
X240Y1256D01*
G37*
D02*
G36*
X1028Y1256D02*
X1028Y1254D01*
X1038Y1254D01*
X1038Y1252D01*
X1044Y1252D01*
X1044Y1250D01*
X1048Y1250D01*
X1048Y1248D01*
X1052Y1248D01*
X1052Y1246D01*
X1056Y1246D01*
X1056Y1244D01*
X1058Y1244D01*
X1058Y1242D01*
X1062Y1242D01*
X1062Y1240D01*
X1064Y1240D01*
X1064Y1238D01*
X1066Y1238D01*
X1066Y1236D01*
X1068Y1236D01*
X1068Y1234D01*
X1070Y1234D01*
X1070Y1232D01*
X1072Y1232D01*
X1072Y1230D01*
X1074Y1230D01*
X1074Y1228D01*
X1076Y1228D01*
X1076Y1226D01*
X1078Y1226D01*
X1078Y1222D01*
X1080Y1222D01*
X1080Y1220D01*
X1082Y1220D01*
X1082Y1216D01*
X1084Y1216D01*
X1084Y1212D01*
X1086Y1212D01*
X1086Y1208D01*
X1088Y1208D01*
X1088Y1202D01*
X1090Y1202D01*
X1090Y1192D01*
X1092Y1192D01*
X1092Y1172D01*
X1090Y1172D01*
X1090Y1164D01*
X1088Y1164D01*
X1088Y1158D01*
X1086Y1158D01*
X1086Y1154D01*
X1084Y1154D01*
X1084Y1150D01*
X1082Y1150D01*
X1082Y1146D01*
X1080Y1146D01*
X1080Y1142D01*
X1078Y1142D01*
X1078Y1140D01*
X1076Y1140D01*
X1076Y1138D01*
X1074Y1138D01*
X1074Y1134D01*
X1072Y1134D01*
X1072Y1132D01*
X1070Y1132D01*
X1070Y1130D01*
X1068Y1130D01*
X1068Y1128D01*
X1064Y1128D01*
X1064Y1126D01*
X1062Y1126D01*
X1062Y1124D01*
X1060Y1124D01*
X1060Y1122D01*
X1056Y1122D01*
X1056Y1120D01*
X1054Y1120D01*
X1054Y1118D01*
X1050Y1118D01*
X1050Y1116D01*
X1046Y1116D01*
X1046Y1114D01*
X1040Y1114D01*
X1040Y1112D01*
X1032Y1112D01*
X1032Y1110D01*
X1714Y1110D01*
X1714Y1112D01*
X1706Y1112D01*
X1706Y1114D01*
X1700Y1114D01*
X1700Y1116D01*
X1696Y1116D01*
X1696Y1118D01*
X1692Y1118D01*
X1692Y1120D01*
X1690Y1120D01*
X1690Y1122D01*
X1686Y1122D01*
X1686Y1124D01*
X1684Y1124D01*
X1684Y1126D01*
X1682Y1126D01*
X1682Y1128D01*
X1678Y1128D01*
X1678Y1130D01*
X1676Y1130D01*
X1676Y1132D01*
X1674Y1132D01*
X1674Y1136D01*
X1672Y1136D01*
X1672Y1138D01*
X1670Y1138D01*
X1670Y1140D01*
X1668Y1140D01*
X1668Y1142D01*
X1666Y1142D01*
X1666Y1146D01*
X1664Y1146D01*
X1664Y1150D01*
X1662Y1150D01*
X1662Y1154D01*
X1660Y1154D01*
X1660Y1158D01*
X1658Y1158D01*
X1658Y1164D01*
X1656Y1164D01*
X1656Y1174D01*
X1654Y1174D01*
X1654Y1192D01*
X1656Y1192D01*
X1656Y1202D01*
X1658Y1202D01*
X1658Y1208D01*
X1660Y1208D01*
X1660Y1212D01*
X1662Y1212D01*
X1662Y1216D01*
X1664Y1216D01*
X1664Y1220D01*
X1666Y1220D01*
X1666Y1222D01*
X1668Y1222D01*
X1668Y1226D01*
X1670Y1226D01*
X1670Y1228D01*
X1672Y1228D01*
X1672Y1230D01*
X1674Y1230D01*
X1674Y1232D01*
X1676Y1232D01*
X1676Y1234D01*
X1678Y1234D01*
X1678Y1236D01*
X1680Y1236D01*
X1680Y1238D01*
X1682Y1238D01*
X1682Y1240D01*
X1684Y1240D01*
X1684Y1242D01*
X1688Y1242D01*
X1688Y1244D01*
X1690Y1244D01*
X1690Y1246D01*
X1694Y1246D01*
X1694Y1248D01*
X1698Y1248D01*
X1698Y1250D01*
X1702Y1250D01*
X1702Y1252D01*
X1708Y1252D01*
X1708Y1254D01*
X1718Y1254D01*
X1718Y1256D01*
X1028Y1256D01*
G37*
D02*
G36*
X40Y1110D02*
X40Y1108D01*
X1928Y1108D01*
X1928Y1110D01*
X40Y1110D01*
G37*
D02*
G36*
X40Y1110D02*
X40Y1108D01*
X1928Y1108D01*
X1928Y1110D01*
X40Y1110D01*
G37*
D02*
G36*
X40Y1110D02*
X40Y1108D01*
X1928Y1108D01*
X1928Y1110D01*
X40Y1110D01*
G37*
D02*
G36*
X40Y1110D02*
X40Y1108D01*
X1928Y1108D01*
X1928Y1110D01*
X40Y1110D01*
G37*
D02*
G36*
X40Y1108D02*
X40Y858D01*
X1890Y858D01*
X1890Y856D01*
X1900Y856D01*
X1900Y854D01*
X1906Y854D01*
X1906Y852D01*
X1928Y852D01*
X1928Y1108D01*
X40Y1108D01*
G37*
D02*
G36*
X40Y858D02*
X40Y484D01*
X1246Y484D01*
X1246Y486D01*
X1238Y486D01*
X1238Y488D01*
X1232Y488D01*
X1232Y490D01*
X1228Y490D01*
X1228Y492D01*
X1224Y492D01*
X1224Y494D01*
X1220Y494D01*
X1220Y496D01*
X1218Y496D01*
X1218Y498D01*
X1214Y498D01*
X1214Y500D01*
X1212Y500D01*
X1212Y502D01*
X1210Y502D01*
X1210Y504D01*
X1208Y504D01*
X1208Y506D01*
X1206Y506D01*
X1206Y508D01*
X1204Y508D01*
X1204Y510D01*
X1202Y510D01*
X1202Y512D01*
X1200Y512D01*
X1200Y516D01*
X1198Y516D01*
X1198Y518D01*
X1196Y518D01*
X1196Y522D01*
X1194Y522D01*
X1194Y526D01*
X1192Y526D01*
X1192Y530D01*
X1190Y530D01*
X1190Y536D01*
X1188Y536D01*
X1188Y546D01*
X1186Y546D01*
X1186Y560D01*
X1188Y560D01*
X1188Y570D01*
X1190Y570D01*
X1190Y574D01*
X1192Y574D01*
X1192Y580D01*
X1194Y580D01*
X1194Y584D01*
X1196Y584D01*
X1196Y586D01*
X1198Y586D01*
X1198Y590D01*
X1200Y590D01*
X1200Y592D01*
X1202Y592D01*
X1202Y594D01*
X1204Y594D01*
X1204Y598D01*
X1206Y598D01*
X1206Y600D01*
X1208Y600D01*
X1208Y602D01*
X1210Y602D01*
X1210Y604D01*
X1214Y604D01*
X1214Y606D01*
X1216Y606D01*
X1216Y608D01*
X1218Y608D01*
X1218Y610D01*
X1222Y610D01*
X1222Y612D01*
X1224Y612D01*
X1224Y614D01*
X1228Y614D01*
X1228Y616D01*
X1234Y616D01*
X1234Y618D01*
X1236Y618D01*
X1236Y638D01*
X1232Y638D01*
X1232Y640D01*
X1230Y640D01*
X1230Y642D01*
X1228Y642D01*
X1228Y644D01*
X1226Y644D01*
X1226Y646D01*
X1224Y646D01*
X1224Y648D01*
X1222Y648D01*
X1222Y652D01*
X1220Y652D01*
X1220Y656D01*
X1218Y656D01*
X1218Y660D01*
X1216Y660D01*
X1216Y682D01*
X1218Y682D01*
X1218Y686D01*
X1220Y686D01*
X1220Y690D01*
X1222Y690D01*
X1222Y692D01*
X1224Y692D01*
X1224Y696D01*
X1226Y696D01*
X1226Y698D01*
X1228Y698D01*
X1228Y700D01*
X1230Y700D01*
X1230Y702D01*
X1234Y702D01*
X1234Y704D01*
X1236Y704D01*
X1236Y724D01*
X1232Y724D01*
X1232Y726D01*
X1228Y726D01*
X1228Y728D01*
X1224Y728D01*
X1224Y730D01*
X1220Y730D01*
X1220Y732D01*
X1218Y732D01*
X1218Y734D01*
X1216Y734D01*
X1216Y736D01*
X1212Y736D01*
X1212Y738D01*
X1210Y738D01*
X1210Y740D01*
X1208Y740D01*
X1208Y742D01*
X1206Y742D01*
X1206Y744D01*
X1204Y744D01*
X1204Y746D01*
X1202Y746D01*
X1202Y750D01*
X1200Y750D01*
X1200Y752D01*
X1198Y752D01*
X1198Y754D01*
X1196Y754D01*
X1196Y758D01*
X1194Y758D01*
X1194Y762D01*
X1192Y762D01*
X1192Y766D01*
X1190Y766D01*
X1190Y772D01*
X1188Y772D01*
X1188Y782D01*
X1186Y782D01*
X1186Y796D01*
X1188Y796D01*
X1188Y806D01*
X1190Y806D01*
X1190Y812D01*
X1192Y812D01*
X1192Y816D01*
X1194Y816D01*
X1194Y820D01*
X1196Y820D01*
X1196Y822D01*
X1198Y822D01*
X1198Y826D01*
X1200Y826D01*
X1200Y828D01*
X1202Y828D01*
X1202Y832D01*
X1204Y832D01*
X1204Y834D01*
X1206Y834D01*
X1206Y836D01*
X1208Y836D01*
X1208Y838D01*
X1210Y838D01*
X1210Y840D01*
X1212Y840D01*
X1212Y842D01*
X1216Y842D01*
X1216Y844D01*
X1218Y844D01*
X1218Y846D01*
X1222Y846D01*
X1222Y848D01*
X1224Y848D01*
X1224Y850D01*
X1228Y850D01*
X1228Y852D01*
X1232Y852D01*
X1232Y854D01*
X1238Y854D01*
X1238Y856D01*
X1250Y856D01*
X1250Y858D01*
X40Y858D01*
G37*
D02*
G36*
X1260Y858D02*
X1260Y856D01*
X1272Y856D01*
X1272Y854D01*
X1276Y854D01*
X1276Y852D01*
X1282Y852D01*
X1282Y850D01*
X1286Y850D01*
X1286Y848D01*
X1288Y848D01*
X1288Y846D01*
X1292Y846D01*
X1292Y844D01*
X1294Y844D01*
X1294Y842D01*
X1298Y842D01*
X1298Y840D01*
X1300Y840D01*
X1300Y838D01*
X1302Y838D01*
X1302Y836D01*
X1304Y836D01*
X1304Y834D01*
X1306Y834D01*
X1306Y832D01*
X1308Y832D01*
X1308Y828D01*
X1310Y828D01*
X1310Y826D01*
X1312Y826D01*
X1312Y822D01*
X1314Y822D01*
X1314Y820D01*
X1316Y820D01*
X1316Y816D01*
X1318Y816D01*
X1318Y812D01*
X1320Y812D01*
X1320Y806D01*
X1322Y806D01*
X1322Y796D01*
X1324Y796D01*
X1324Y782D01*
X1322Y782D01*
X1322Y772D01*
X1320Y772D01*
X1320Y766D01*
X1318Y766D01*
X1318Y762D01*
X1316Y762D01*
X1316Y758D01*
X1314Y758D01*
X1314Y754D01*
X1312Y754D01*
X1312Y752D01*
X1310Y752D01*
X1310Y750D01*
X1308Y750D01*
X1308Y746D01*
X1306Y746D01*
X1306Y744D01*
X1304Y744D01*
X1304Y742D01*
X1302Y742D01*
X1302Y740D01*
X1300Y740D01*
X1300Y738D01*
X1298Y738D01*
X1298Y736D01*
X1294Y736D01*
X1294Y734D01*
X1292Y734D01*
X1292Y732D01*
X1290Y732D01*
X1290Y730D01*
X1286Y730D01*
X1286Y728D01*
X1282Y728D01*
X1282Y726D01*
X1278Y726D01*
X1278Y724D01*
X1274Y724D01*
X1274Y704D01*
X1276Y704D01*
X1276Y702D01*
X1280Y702D01*
X1280Y700D01*
X1282Y700D01*
X1282Y698D01*
X1284Y698D01*
X1284Y696D01*
X1286Y696D01*
X1286Y692D01*
X1288Y692D01*
X1288Y690D01*
X1290Y690D01*
X1290Y686D01*
X1292Y686D01*
X1292Y680D01*
X1294Y680D01*
X1294Y660D01*
X1292Y660D01*
X1292Y656D01*
X1290Y656D01*
X1290Y652D01*
X1288Y652D01*
X1288Y648D01*
X1286Y648D01*
X1286Y646D01*
X1284Y646D01*
X1284Y644D01*
X1282Y644D01*
X1282Y642D01*
X1280Y642D01*
X1280Y640D01*
X1278Y640D01*
X1278Y638D01*
X1274Y638D01*
X1274Y618D01*
X1276Y618D01*
X1276Y616D01*
X1282Y616D01*
X1282Y614D01*
X1284Y614D01*
X1284Y612D01*
X1288Y612D01*
X1288Y610D01*
X1292Y610D01*
X1292Y608D01*
X1294Y608D01*
X1294Y606D01*
X1296Y606D01*
X1296Y604D01*
X1300Y604D01*
X1300Y602D01*
X1302Y602D01*
X1302Y600D01*
X1304Y600D01*
X1304Y598D01*
X1306Y598D01*
X1306Y594D01*
X1308Y594D01*
X1308Y592D01*
X1310Y592D01*
X1310Y590D01*
X1312Y590D01*
X1312Y586D01*
X1314Y586D01*
X1314Y584D01*
X1316Y584D01*
X1316Y580D01*
X1318Y580D01*
X1318Y574D01*
X1320Y574D01*
X1320Y568D01*
X1322Y568D01*
X1322Y558D01*
X1324Y558D01*
X1324Y546D01*
X1322Y546D01*
X1322Y536D01*
X1320Y536D01*
X1320Y530D01*
X1318Y530D01*
X1318Y526D01*
X1316Y526D01*
X1316Y522D01*
X1314Y522D01*
X1314Y518D01*
X1312Y518D01*
X1312Y516D01*
X1310Y516D01*
X1310Y514D01*
X1308Y514D01*
X1308Y510D01*
X1306Y510D01*
X1306Y508D01*
X1304Y508D01*
X1304Y506D01*
X1302Y506D01*
X1302Y504D01*
X1300Y504D01*
X1300Y502D01*
X1298Y502D01*
X1298Y500D01*
X1296Y500D01*
X1296Y498D01*
X1292Y498D01*
X1292Y496D01*
X1290Y496D01*
X1290Y494D01*
X1286Y494D01*
X1286Y492D01*
X1282Y492D01*
X1282Y490D01*
X1278Y490D01*
X1278Y488D01*
X1272Y488D01*
X1272Y486D01*
X1264Y486D01*
X1264Y484D01*
X1404Y484D01*
X1404Y486D01*
X1396Y486D01*
X1396Y488D01*
X1390Y488D01*
X1390Y490D01*
X1386Y490D01*
X1386Y492D01*
X1382Y492D01*
X1382Y494D01*
X1378Y494D01*
X1378Y496D01*
X1374Y496D01*
X1374Y498D01*
X1372Y498D01*
X1372Y500D01*
X1370Y500D01*
X1370Y502D01*
X1368Y502D01*
X1368Y504D01*
X1366Y504D01*
X1366Y506D01*
X1364Y506D01*
X1364Y508D01*
X1362Y508D01*
X1362Y510D01*
X1360Y510D01*
X1360Y512D01*
X1358Y512D01*
X1358Y514D01*
X1356Y514D01*
X1356Y518D01*
X1354Y518D01*
X1354Y522D01*
X1352Y522D01*
X1352Y524D01*
X1350Y524D01*
X1350Y530D01*
X1348Y530D01*
X1348Y534D01*
X1346Y534D01*
X1346Y542D01*
X1344Y542D01*
X1344Y562D01*
X1346Y562D01*
X1346Y570D01*
X1348Y570D01*
X1348Y576D01*
X1350Y576D01*
X1350Y580D01*
X1352Y580D01*
X1352Y584D01*
X1354Y584D01*
X1354Y588D01*
X1356Y588D01*
X1356Y590D01*
X1358Y590D01*
X1358Y594D01*
X1360Y594D01*
X1360Y596D01*
X1362Y596D01*
X1362Y598D01*
X1364Y598D01*
X1364Y600D01*
X1366Y600D01*
X1366Y602D01*
X1368Y602D01*
X1368Y604D01*
X1370Y604D01*
X1370Y606D01*
X1374Y606D01*
X1374Y608D01*
X1376Y608D01*
X1376Y610D01*
X1378Y610D01*
X1378Y612D01*
X1382Y612D01*
X1382Y614D01*
X1386Y614D01*
X1386Y616D01*
X1392Y616D01*
X1392Y618D01*
X1394Y618D01*
X1394Y638D01*
X1390Y638D01*
X1390Y640D01*
X1388Y640D01*
X1388Y642D01*
X1386Y642D01*
X1386Y644D01*
X1384Y644D01*
X1384Y646D01*
X1382Y646D01*
X1382Y648D01*
X1380Y648D01*
X1380Y650D01*
X1378Y650D01*
X1378Y654D01*
X1376Y654D01*
X1376Y658D01*
X1374Y658D01*
X1374Y668D01*
X1372Y668D01*
X1372Y674D01*
X1374Y674D01*
X1374Y682D01*
X1376Y682D01*
X1376Y688D01*
X1378Y688D01*
X1378Y690D01*
X1380Y690D01*
X1380Y694D01*
X1382Y694D01*
X1382Y696D01*
X1384Y696D01*
X1384Y698D01*
X1386Y698D01*
X1386Y700D01*
X1388Y700D01*
X1388Y702D01*
X1390Y702D01*
X1390Y704D01*
X1394Y704D01*
X1394Y724D01*
X1390Y724D01*
X1390Y726D01*
X1386Y726D01*
X1386Y728D01*
X1382Y728D01*
X1382Y730D01*
X1378Y730D01*
X1378Y732D01*
X1376Y732D01*
X1376Y734D01*
X1372Y734D01*
X1372Y736D01*
X1370Y736D01*
X1370Y738D01*
X1368Y738D01*
X1368Y740D01*
X1366Y740D01*
X1366Y742D01*
X1364Y742D01*
X1364Y744D01*
X1362Y744D01*
X1362Y746D01*
X1360Y746D01*
X1360Y748D01*
X1358Y748D01*
X1358Y752D01*
X1356Y752D01*
X1356Y754D01*
X1354Y754D01*
X1354Y758D01*
X1352Y758D01*
X1352Y760D01*
X1350Y760D01*
X1350Y766D01*
X1348Y766D01*
X1348Y770D01*
X1346Y770D01*
X1346Y778D01*
X1344Y778D01*
X1344Y800D01*
X1346Y800D01*
X1346Y808D01*
X1348Y808D01*
X1348Y812D01*
X1350Y812D01*
X1350Y816D01*
X1352Y816D01*
X1352Y820D01*
X1354Y820D01*
X1354Y824D01*
X1356Y824D01*
X1356Y826D01*
X1358Y826D01*
X1358Y830D01*
X1360Y830D01*
X1360Y832D01*
X1362Y832D01*
X1362Y834D01*
X1364Y834D01*
X1364Y836D01*
X1366Y836D01*
X1366Y838D01*
X1368Y838D01*
X1368Y840D01*
X1370Y840D01*
X1370Y842D01*
X1372Y842D01*
X1372Y844D01*
X1376Y844D01*
X1376Y846D01*
X1378Y846D01*
X1378Y848D01*
X1382Y848D01*
X1382Y850D01*
X1386Y850D01*
X1386Y852D01*
X1390Y852D01*
X1390Y854D01*
X1396Y854D01*
X1396Y856D01*
X1406Y856D01*
X1406Y858D01*
X1260Y858D01*
G37*
D02*
G36*
X1418Y858D02*
X1418Y856D01*
X1428Y856D01*
X1428Y854D01*
X1434Y854D01*
X1434Y852D01*
X1440Y852D01*
X1440Y850D01*
X1442Y850D01*
X1442Y848D01*
X1446Y848D01*
X1446Y846D01*
X1450Y846D01*
X1450Y844D01*
X1452Y844D01*
X1452Y842D01*
X1454Y842D01*
X1454Y840D01*
X1456Y840D01*
X1456Y838D01*
X1458Y838D01*
X1458Y836D01*
X1460Y836D01*
X1460Y834D01*
X1462Y834D01*
X1462Y832D01*
X1464Y832D01*
X1464Y830D01*
X1466Y830D01*
X1466Y828D01*
X1468Y828D01*
X1468Y826D01*
X1470Y826D01*
X1470Y822D01*
X1472Y822D01*
X1472Y818D01*
X1474Y818D01*
X1474Y814D01*
X1476Y814D01*
X1476Y810D01*
X1478Y810D01*
X1478Y804D01*
X1480Y804D01*
X1480Y774D01*
X1478Y774D01*
X1478Y768D01*
X1476Y768D01*
X1476Y764D01*
X1474Y764D01*
X1474Y760D01*
X1472Y760D01*
X1472Y756D01*
X1470Y756D01*
X1470Y752D01*
X1468Y752D01*
X1468Y750D01*
X1466Y750D01*
X1466Y748D01*
X1464Y748D01*
X1464Y746D01*
X1462Y746D01*
X1462Y742D01*
X1460Y742D01*
X1460Y740D01*
X1458Y740D01*
X1458Y738D01*
X1454Y738D01*
X1454Y736D01*
X1452Y736D01*
X1452Y734D01*
X1450Y734D01*
X1450Y732D01*
X1446Y732D01*
X1446Y730D01*
X1444Y730D01*
X1444Y728D01*
X1440Y728D01*
X1440Y726D01*
X1434Y726D01*
X1434Y724D01*
X1432Y724D01*
X1432Y720D01*
X1562Y720D01*
X1562Y722D01*
X1554Y722D01*
X1554Y724D01*
X1548Y724D01*
X1548Y726D01*
X1542Y726D01*
X1542Y728D01*
X1540Y728D01*
X1540Y730D01*
X1536Y730D01*
X1536Y732D01*
X1532Y732D01*
X1532Y734D01*
X1530Y734D01*
X1530Y736D01*
X1528Y736D01*
X1528Y738D01*
X1526Y738D01*
X1526Y740D01*
X1524Y740D01*
X1524Y742D01*
X1522Y742D01*
X1522Y744D01*
X1520Y744D01*
X1520Y746D01*
X1518Y746D01*
X1518Y748D01*
X1516Y748D01*
X1516Y750D01*
X1514Y750D01*
X1514Y754D01*
X1512Y754D01*
X1512Y756D01*
X1510Y756D01*
X1510Y760D01*
X1508Y760D01*
X1508Y764D01*
X1506Y764D01*
X1506Y770D01*
X1504Y770D01*
X1504Y776D01*
X1502Y776D01*
X1502Y802D01*
X1504Y802D01*
X1504Y808D01*
X1506Y808D01*
X1506Y814D01*
X1508Y814D01*
X1508Y818D01*
X1510Y818D01*
X1510Y822D01*
X1512Y822D01*
X1512Y824D01*
X1514Y824D01*
X1514Y828D01*
X1516Y828D01*
X1516Y830D01*
X1518Y830D01*
X1518Y832D01*
X1520Y832D01*
X1520Y834D01*
X1522Y834D01*
X1522Y836D01*
X1524Y836D01*
X1524Y838D01*
X1526Y838D01*
X1526Y840D01*
X1528Y840D01*
X1528Y842D01*
X1530Y842D01*
X1530Y844D01*
X1534Y844D01*
X1534Y846D01*
X1536Y846D01*
X1536Y848D01*
X1540Y848D01*
X1540Y850D01*
X1544Y850D01*
X1544Y852D01*
X1548Y852D01*
X1548Y854D01*
X1554Y854D01*
X1554Y856D01*
X1564Y856D01*
X1564Y858D01*
X1418Y858D01*
G37*
D02*
G36*
X1576Y858D02*
X1576Y856D01*
X1586Y856D01*
X1586Y854D01*
X1592Y854D01*
X1592Y852D01*
X1596Y852D01*
X1596Y850D01*
X1600Y850D01*
X1600Y848D01*
X1604Y848D01*
X1604Y846D01*
X1606Y846D01*
X1606Y844D01*
X1610Y844D01*
X1610Y842D01*
X1612Y842D01*
X1612Y840D01*
X1614Y840D01*
X1614Y838D01*
X1616Y838D01*
X1616Y836D01*
X1618Y836D01*
X1618Y834D01*
X1620Y834D01*
X1620Y832D01*
X1622Y832D01*
X1622Y830D01*
X1624Y830D01*
X1624Y828D01*
X1626Y828D01*
X1626Y824D01*
X1628Y824D01*
X1628Y822D01*
X1630Y822D01*
X1630Y818D01*
X1632Y818D01*
X1632Y814D01*
X1634Y814D01*
X1634Y808D01*
X1636Y808D01*
X1636Y800D01*
X1638Y800D01*
X1638Y776D01*
X1636Y776D01*
X1636Y770D01*
X1634Y770D01*
X1634Y764D01*
X1632Y764D01*
X1632Y760D01*
X1630Y760D01*
X1630Y756D01*
X1628Y756D01*
X1628Y754D01*
X1626Y754D01*
X1626Y750D01*
X1624Y750D01*
X1624Y748D01*
X1622Y748D01*
X1622Y746D01*
X1620Y746D01*
X1620Y744D01*
X1618Y744D01*
X1618Y742D01*
X1616Y742D01*
X1616Y740D01*
X1614Y740D01*
X1614Y738D01*
X1612Y738D01*
X1612Y736D01*
X1610Y736D01*
X1610Y734D01*
X1608Y734D01*
X1608Y732D01*
X1604Y732D01*
X1604Y730D01*
X1600Y730D01*
X1600Y728D01*
X1596Y728D01*
X1596Y726D01*
X1592Y726D01*
X1592Y724D01*
X1586Y724D01*
X1586Y722D01*
X1578Y722D01*
X1578Y720D01*
X1720Y720D01*
X1720Y722D01*
X1710Y722D01*
X1710Y724D01*
X1704Y724D01*
X1704Y726D01*
X1700Y726D01*
X1700Y728D01*
X1696Y728D01*
X1696Y730D01*
X1694Y730D01*
X1694Y732D01*
X1690Y732D01*
X1690Y734D01*
X1688Y734D01*
X1688Y736D01*
X1686Y736D01*
X1686Y738D01*
X1682Y738D01*
X1682Y740D01*
X1680Y740D01*
X1680Y742D01*
X1678Y742D01*
X1678Y744D01*
X1676Y744D01*
X1676Y748D01*
X1674Y748D01*
X1674Y750D01*
X1672Y750D01*
X1672Y752D01*
X1670Y752D01*
X1670Y756D01*
X1668Y756D01*
X1668Y760D01*
X1666Y760D01*
X1666Y762D01*
X1664Y762D01*
X1664Y768D01*
X1662Y768D01*
X1662Y774D01*
X1660Y774D01*
X1660Y804D01*
X1662Y804D01*
X1662Y810D01*
X1664Y810D01*
X1664Y814D01*
X1666Y814D01*
X1666Y818D01*
X1668Y818D01*
X1668Y822D01*
X1670Y822D01*
X1670Y826D01*
X1672Y826D01*
X1672Y828D01*
X1674Y828D01*
X1674Y830D01*
X1676Y830D01*
X1676Y832D01*
X1678Y832D01*
X1678Y836D01*
X1680Y836D01*
X1680Y838D01*
X1684Y838D01*
X1684Y840D01*
X1686Y840D01*
X1686Y842D01*
X1688Y842D01*
X1688Y844D01*
X1690Y844D01*
X1690Y846D01*
X1694Y846D01*
X1694Y848D01*
X1696Y848D01*
X1696Y850D01*
X1700Y850D01*
X1700Y852D01*
X1706Y852D01*
X1706Y854D01*
X1712Y854D01*
X1712Y856D01*
X1722Y856D01*
X1722Y858D01*
X1576Y858D01*
G37*
D02*
G36*
X1732Y858D02*
X1732Y856D01*
X1744Y856D01*
X1744Y854D01*
X1750Y854D01*
X1750Y852D01*
X1754Y852D01*
X1754Y850D01*
X1758Y850D01*
X1758Y848D01*
X1762Y848D01*
X1762Y846D01*
X1764Y846D01*
X1764Y844D01*
X1766Y844D01*
X1766Y842D01*
X1770Y842D01*
X1770Y840D01*
X1772Y840D01*
X1772Y838D01*
X1774Y838D01*
X1774Y836D01*
X1776Y836D01*
X1776Y834D01*
X1778Y834D01*
X1778Y832D01*
X1780Y832D01*
X1780Y830D01*
X1782Y830D01*
X1782Y826D01*
X1784Y826D01*
X1784Y824D01*
X1786Y824D01*
X1786Y820D01*
X1788Y820D01*
X1788Y816D01*
X1790Y816D01*
X1790Y812D01*
X1792Y812D01*
X1792Y806D01*
X1794Y806D01*
X1794Y798D01*
X1796Y798D01*
X1796Y780D01*
X1794Y780D01*
X1794Y772D01*
X1792Y772D01*
X1792Y766D01*
X1790Y766D01*
X1790Y762D01*
X1788Y762D01*
X1788Y758D01*
X1786Y758D01*
X1786Y754D01*
X1784Y754D01*
X1784Y752D01*
X1782Y752D01*
X1782Y748D01*
X1780Y748D01*
X1780Y746D01*
X1778Y746D01*
X1778Y744D01*
X1776Y744D01*
X1776Y742D01*
X1774Y742D01*
X1774Y740D01*
X1772Y740D01*
X1772Y738D01*
X1770Y738D01*
X1770Y736D01*
X1768Y736D01*
X1768Y734D01*
X1764Y734D01*
X1764Y732D01*
X1762Y732D01*
X1762Y730D01*
X1758Y730D01*
X1758Y728D01*
X1754Y728D01*
X1754Y726D01*
X1750Y726D01*
X1750Y724D01*
X1744Y724D01*
X1744Y722D01*
X1734Y722D01*
X1734Y720D01*
X1878Y720D01*
X1878Y722D01*
X1868Y722D01*
X1868Y724D01*
X1862Y724D01*
X1862Y726D01*
X1858Y726D01*
X1858Y728D01*
X1854Y728D01*
X1854Y730D01*
X1850Y730D01*
X1850Y732D01*
X1848Y732D01*
X1848Y734D01*
X1846Y734D01*
X1846Y736D01*
X1842Y736D01*
X1842Y738D01*
X1840Y738D01*
X1840Y740D01*
X1838Y740D01*
X1838Y742D01*
X1836Y742D01*
X1836Y744D01*
X1834Y744D01*
X1834Y746D01*
X1832Y746D01*
X1832Y750D01*
X1830Y750D01*
X1830Y752D01*
X1828Y752D01*
X1828Y754D01*
X1826Y754D01*
X1826Y758D01*
X1824Y758D01*
X1824Y762D01*
X1822Y762D01*
X1822Y766D01*
X1820Y766D01*
X1820Y772D01*
X1818Y772D01*
X1818Y782D01*
X1816Y782D01*
X1816Y796D01*
X1818Y796D01*
X1818Y806D01*
X1820Y806D01*
X1820Y812D01*
X1822Y812D01*
X1822Y816D01*
X1824Y816D01*
X1824Y820D01*
X1826Y820D01*
X1826Y824D01*
X1828Y824D01*
X1828Y826D01*
X1830Y826D01*
X1830Y828D01*
X1832Y828D01*
X1832Y832D01*
X1834Y832D01*
X1834Y834D01*
X1836Y834D01*
X1836Y836D01*
X1838Y836D01*
X1838Y838D01*
X1840Y838D01*
X1840Y840D01*
X1842Y840D01*
X1842Y842D01*
X1846Y842D01*
X1846Y844D01*
X1848Y844D01*
X1848Y846D01*
X1852Y846D01*
X1852Y848D01*
X1854Y848D01*
X1854Y850D01*
X1858Y850D01*
X1858Y852D01*
X1862Y852D01*
X1862Y854D01*
X1868Y854D01*
X1868Y856D01*
X1880Y856D01*
X1880Y858D01*
X1732Y858D01*
G37*
D02*
G36*
X1908Y726D02*
X1908Y724D01*
X1902Y724D01*
X1902Y722D01*
X1892Y722D01*
X1892Y720D01*
X1928Y720D01*
X1928Y726D01*
X1908Y726D01*
G37*
D02*
G36*
X1432Y720D02*
X1432Y718D01*
X1928Y718D01*
X1928Y720D01*
X1432Y720D01*
G37*
D02*
G36*
X1432Y720D02*
X1432Y718D01*
X1928Y718D01*
X1928Y720D01*
X1432Y720D01*
G37*
D02*
G36*
X1432Y720D02*
X1432Y718D01*
X1928Y718D01*
X1928Y720D01*
X1432Y720D01*
G37*
D02*
G36*
X1432Y720D02*
X1432Y718D01*
X1928Y718D01*
X1928Y720D01*
X1432Y720D01*
G37*
D02*
G36*
X1432Y718D02*
X1432Y704D01*
X1434Y704D01*
X1434Y702D01*
X1436Y702D01*
X1436Y700D01*
X1440Y700D01*
X1440Y698D01*
X1442Y698D01*
X1442Y694D01*
X1444Y694D01*
X1444Y692D01*
X1446Y692D01*
X1446Y688D01*
X1448Y688D01*
X1448Y684D01*
X1450Y684D01*
X1450Y678D01*
X1452Y678D01*
X1452Y662D01*
X1450Y662D01*
X1450Y656D01*
X1448Y656D01*
X1448Y652D01*
X1446Y652D01*
X1446Y650D01*
X1444Y650D01*
X1444Y646D01*
X1442Y646D01*
X1442Y644D01*
X1440Y644D01*
X1440Y642D01*
X1438Y642D01*
X1438Y640D01*
X1434Y640D01*
X1434Y638D01*
X1432Y638D01*
X1432Y622D01*
X1888Y622D01*
X1888Y620D01*
X1900Y620D01*
X1900Y618D01*
X1906Y618D01*
X1906Y616D01*
X1928Y616D01*
X1928Y718D01*
X1432Y718D01*
G37*
D02*
G36*
X1432Y622D02*
X1432Y618D01*
X1434Y618D01*
X1434Y616D01*
X1438Y616D01*
X1438Y614D01*
X1442Y614D01*
X1442Y612D01*
X1446Y612D01*
X1446Y610D01*
X1448Y610D01*
X1448Y608D01*
X1452Y608D01*
X1452Y606D01*
X1454Y606D01*
X1454Y604D01*
X1456Y604D01*
X1456Y602D01*
X1458Y602D01*
X1458Y600D01*
X1460Y600D01*
X1460Y598D01*
X1462Y598D01*
X1462Y596D01*
X1464Y596D01*
X1464Y594D01*
X1466Y594D01*
X1466Y592D01*
X1468Y592D01*
X1468Y588D01*
X1470Y588D01*
X1470Y586D01*
X1472Y586D01*
X1472Y582D01*
X1474Y582D01*
X1474Y578D01*
X1476Y578D01*
X1476Y574D01*
X1478Y574D01*
X1478Y566D01*
X1480Y566D01*
X1480Y538D01*
X1478Y538D01*
X1478Y532D01*
X1476Y532D01*
X1476Y528D01*
X1474Y528D01*
X1474Y524D01*
X1472Y524D01*
X1472Y520D01*
X1470Y520D01*
X1470Y516D01*
X1468Y516D01*
X1468Y514D01*
X1466Y514D01*
X1466Y512D01*
X1464Y512D01*
X1464Y508D01*
X1462Y508D01*
X1462Y506D01*
X1460Y506D01*
X1460Y504D01*
X1458Y504D01*
X1458Y502D01*
X1456Y502D01*
X1456Y500D01*
X1452Y500D01*
X1452Y498D01*
X1450Y498D01*
X1450Y496D01*
X1446Y496D01*
X1446Y494D01*
X1444Y494D01*
X1444Y492D01*
X1440Y492D01*
X1440Y490D01*
X1436Y490D01*
X1436Y488D01*
X1430Y488D01*
X1430Y486D01*
X1422Y486D01*
X1422Y484D01*
X1562Y484D01*
X1562Y486D01*
X1552Y486D01*
X1552Y488D01*
X1546Y488D01*
X1546Y490D01*
X1542Y490D01*
X1542Y492D01*
X1538Y492D01*
X1538Y494D01*
X1536Y494D01*
X1536Y496D01*
X1532Y496D01*
X1532Y498D01*
X1530Y498D01*
X1530Y500D01*
X1528Y500D01*
X1528Y502D01*
X1526Y502D01*
X1526Y504D01*
X1522Y504D01*
X1522Y506D01*
X1520Y506D01*
X1520Y510D01*
X1518Y510D01*
X1518Y512D01*
X1516Y512D01*
X1516Y514D01*
X1514Y514D01*
X1514Y518D01*
X1512Y518D01*
X1512Y520D01*
X1510Y520D01*
X1510Y524D01*
X1508Y524D01*
X1508Y528D01*
X1506Y528D01*
X1506Y532D01*
X1504Y532D01*
X1504Y540D01*
X1502Y540D01*
X1502Y566D01*
X1504Y566D01*
X1504Y572D01*
X1506Y572D01*
X1506Y578D01*
X1508Y578D01*
X1508Y582D01*
X1510Y582D01*
X1510Y586D01*
X1512Y586D01*
X1512Y588D01*
X1514Y588D01*
X1514Y592D01*
X1516Y592D01*
X1516Y594D01*
X1518Y594D01*
X1518Y596D01*
X1520Y596D01*
X1520Y598D01*
X1522Y598D01*
X1522Y600D01*
X1524Y600D01*
X1524Y602D01*
X1526Y602D01*
X1526Y604D01*
X1528Y604D01*
X1528Y606D01*
X1530Y606D01*
X1530Y608D01*
X1534Y608D01*
X1534Y610D01*
X1536Y610D01*
X1536Y612D01*
X1540Y612D01*
X1540Y614D01*
X1544Y614D01*
X1544Y616D01*
X1548Y616D01*
X1548Y618D01*
X1554Y618D01*
X1554Y620D01*
X1568Y620D01*
X1568Y622D01*
X1432Y622D01*
G37*
D02*
G36*
X1572Y622D02*
X1572Y620D01*
X1586Y620D01*
X1586Y618D01*
X1592Y618D01*
X1592Y616D01*
X1596Y616D01*
X1596Y614D01*
X1600Y614D01*
X1600Y612D01*
X1604Y612D01*
X1604Y610D01*
X1606Y610D01*
X1606Y608D01*
X1610Y608D01*
X1610Y606D01*
X1612Y606D01*
X1612Y604D01*
X1614Y604D01*
X1614Y602D01*
X1616Y602D01*
X1616Y600D01*
X1618Y600D01*
X1618Y598D01*
X1620Y598D01*
X1620Y596D01*
X1622Y596D01*
X1622Y594D01*
X1624Y594D01*
X1624Y590D01*
X1626Y590D01*
X1626Y588D01*
X1628Y588D01*
X1628Y584D01*
X1630Y584D01*
X1630Y582D01*
X1632Y582D01*
X1632Y578D01*
X1634Y578D01*
X1634Y572D01*
X1636Y572D01*
X1636Y564D01*
X1638Y564D01*
X1638Y540D01*
X1636Y540D01*
X1636Y534D01*
X1634Y534D01*
X1634Y528D01*
X1632Y528D01*
X1632Y524D01*
X1630Y524D01*
X1630Y520D01*
X1628Y520D01*
X1628Y518D01*
X1626Y518D01*
X1626Y514D01*
X1624Y514D01*
X1624Y512D01*
X1622Y512D01*
X1622Y510D01*
X1620Y510D01*
X1620Y508D01*
X1618Y508D01*
X1618Y506D01*
X1616Y506D01*
X1616Y504D01*
X1614Y504D01*
X1614Y502D01*
X1612Y502D01*
X1612Y500D01*
X1610Y500D01*
X1610Y498D01*
X1608Y498D01*
X1608Y496D01*
X1604Y496D01*
X1604Y494D01*
X1602Y494D01*
X1602Y492D01*
X1598Y492D01*
X1598Y490D01*
X1592Y490D01*
X1592Y488D01*
X1588Y488D01*
X1588Y486D01*
X1578Y486D01*
X1578Y484D01*
X1718Y484D01*
X1718Y486D01*
X1710Y486D01*
X1710Y488D01*
X1704Y488D01*
X1704Y490D01*
X1700Y490D01*
X1700Y492D01*
X1696Y492D01*
X1696Y494D01*
X1692Y494D01*
X1692Y496D01*
X1690Y496D01*
X1690Y498D01*
X1688Y498D01*
X1688Y500D01*
X1684Y500D01*
X1684Y502D01*
X1682Y502D01*
X1682Y504D01*
X1680Y504D01*
X1680Y506D01*
X1678Y506D01*
X1678Y508D01*
X1676Y508D01*
X1676Y510D01*
X1674Y510D01*
X1674Y514D01*
X1672Y514D01*
X1672Y516D01*
X1670Y516D01*
X1670Y520D01*
X1668Y520D01*
X1668Y522D01*
X1666Y522D01*
X1666Y526D01*
X1664Y526D01*
X1664Y532D01*
X1662Y532D01*
X1662Y538D01*
X1660Y538D01*
X1660Y568D01*
X1662Y568D01*
X1662Y574D01*
X1664Y574D01*
X1664Y578D01*
X1666Y578D01*
X1666Y582D01*
X1668Y582D01*
X1668Y586D01*
X1670Y586D01*
X1670Y590D01*
X1672Y590D01*
X1672Y592D01*
X1674Y592D01*
X1674Y594D01*
X1676Y594D01*
X1676Y596D01*
X1678Y596D01*
X1678Y598D01*
X1680Y598D01*
X1680Y600D01*
X1682Y600D01*
X1682Y602D01*
X1684Y602D01*
X1684Y604D01*
X1686Y604D01*
X1686Y606D01*
X1688Y606D01*
X1688Y608D01*
X1690Y608D01*
X1690Y610D01*
X1694Y610D01*
X1694Y612D01*
X1698Y612D01*
X1698Y614D01*
X1702Y614D01*
X1702Y616D01*
X1706Y616D01*
X1706Y618D01*
X1712Y618D01*
X1712Y620D01*
X1724Y620D01*
X1724Y622D01*
X1572Y622D01*
G37*
D02*
G36*
X1730Y622D02*
X1730Y620D01*
X1742Y620D01*
X1742Y618D01*
X1748Y618D01*
X1748Y616D01*
X1754Y616D01*
X1754Y614D01*
X1758Y614D01*
X1758Y612D01*
X1760Y612D01*
X1760Y610D01*
X1764Y610D01*
X1764Y608D01*
X1766Y608D01*
X1766Y606D01*
X1770Y606D01*
X1770Y604D01*
X1772Y604D01*
X1772Y602D01*
X1774Y602D01*
X1774Y600D01*
X1776Y600D01*
X1776Y598D01*
X1778Y598D01*
X1778Y596D01*
X1780Y596D01*
X1780Y592D01*
X1782Y592D01*
X1782Y590D01*
X1784Y590D01*
X1784Y588D01*
X1786Y588D01*
X1786Y584D01*
X1788Y584D01*
X1788Y580D01*
X1790Y580D01*
X1790Y576D01*
X1792Y576D01*
X1792Y570D01*
X1794Y570D01*
X1794Y562D01*
X1796Y562D01*
X1796Y544D01*
X1794Y544D01*
X1794Y536D01*
X1792Y536D01*
X1792Y530D01*
X1790Y530D01*
X1790Y526D01*
X1788Y526D01*
X1788Y522D01*
X1786Y522D01*
X1786Y518D01*
X1784Y518D01*
X1784Y516D01*
X1782Y516D01*
X1782Y512D01*
X1780Y512D01*
X1780Y510D01*
X1778Y510D01*
X1778Y508D01*
X1776Y508D01*
X1776Y506D01*
X1774Y506D01*
X1774Y504D01*
X1772Y504D01*
X1772Y502D01*
X1770Y502D01*
X1770Y500D01*
X1768Y500D01*
X1768Y498D01*
X1764Y498D01*
X1764Y496D01*
X1762Y496D01*
X1762Y494D01*
X1758Y494D01*
X1758Y492D01*
X1754Y492D01*
X1754Y490D01*
X1750Y490D01*
X1750Y488D01*
X1744Y488D01*
X1744Y486D01*
X1736Y486D01*
X1736Y484D01*
X1876Y484D01*
X1876Y486D01*
X1868Y486D01*
X1868Y488D01*
X1862Y488D01*
X1862Y490D01*
X1858Y490D01*
X1858Y492D01*
X1854Y492D01*
X1854Y494D01*
X1850Y494D01*
X1850Y496D01*
X1848Y496D01*
X1848Y498D01*
X1844Y498D01*
X1844Y500D01*
X1842Y500D01*
X1842Y502D01*
X1840Y502D01*
X1840Y504D01*
X1838Y504D01*
X1838Y506D01*
X1836Y506D01*
X1836Y508D01*
X1834Y508D01*
X1834Y510D01*
X1832Y510D01*
X1832Y512D01*
X1830Y512D01*
X1830Y516D01*
X1828Y516D01*
X1828Y518D01*
X1826Y518D01*
X1826Y522D01*
X1824Y522D01*
X1824Y526D01*
X1822Y526D01*
X1822Y530D01*
X1820Y530D01*
X1820Y536D01*
X1818Y536D01*
X1818Y546D01*
X1816Y546D01*
X1816Y560D01*
X1818Y560D01*
X1818Y570D01*
X1820Y570D01*
X1820Y576D01*
X1822Y576D01*
X1822Y580D01*
X1824Y580D01*
X1824Y584D01*
X1826Y584D01*
X1826Y586D01*
X1828Y586D01*
X1828Y590D01*
X1830Y590D01*
X1830Y592D01*
X1832Y592D01*
X1832Y596D01*
X1834Y596D01*
X1834Y598D01*
X1836Y598D01*
X1836Y600D01*
X1838Y600D01*
X1838Y602D01*
X1840Y602D01*
X1840Y604D01*
X1844Y604D01*
X1844Y606D01*
X1846Y606D01*
X1846Y608D01*
X1848Y608D01*
X1848Y610D01*
X1852Y610D01*
X1852Y612D01*
X1854Y612D01*
X1854Y614D01*
X1858Y614D01*
X1858Y616D01*
X1864Y616D01*
X1864Y618D01*
X1870Y618D01*
X1870Y620D01*
X1882Y620D01*
X1882Y622D01*
X1730Y622D01*
G37*
D02*
G36*
X1908Y490D02*
X1908Y488D01*
X1902Y488D01*
X1902Y486D01*
X1894Y486D01*
X1894Y484D01*
X1928Y484D01*
X1928Y490D01*
X1908Y490D01*
G37*
D02*
G36*
X40Y484D02*
X40Y482D01*
X1928Y482D01*
X1928Y484D01*
X40Y484D01*
G37*
D02*
G36*
X40Y484D02*
X40Y482D01*
X1928Y482D01*
X1928Y484D01*
X40Y484D01*
G37*
D02*
G36*
X40Y484D02*
X40Y482D01*
X1928Y482D01*
X1928Y484D01*
X40Y484D01*
G37*
D02*
G36*
X40Y484D02*
X40Y482D01*
X1928Y482D01*
X1928Y484D01*
X40Y484D01*
G37*
D02*
G36*
X40Y484D02*
X40Y482D01*
X1928Y482D01*
X1928Y484D01*
X40Y484D01*
G37*
D02*
G36*
X40Y484D02*
X40Y482D01*
X1928Y482D01*
X1928Y484D01*
X40Y484D01*
G37*
D02*
G36*
X40Y482D02*
X40Y232D01*
X1738Y232D01*
X1738Y230D01*
X1748Y230D01*
X1748Y228D01*
X1752Y228D01*
X1752Y226D01*
X1758Y226D01*
X1758Y224D01*
X1762Y224D01*
X1762Y222D01*
X1764Y222D01*
X1764Y220D01*
X1768Y220D01*
X1768Y218D01*
X1770Y218D01*
X1770Y216D01*
X1774Y216D01*
X1774Y214D01*
X1776Y214D01*
X1776Y212D01*
X1778Y212D01*
X1778Y210D01*
X1780Y210D01*
X1780Y208D01*
X1782Y208D01*
X1782Y206D01*
X1784Y206D01*
X1784Y202D01*
X1786Y202D01*
X1786Y200D01*
X1788Y200D01*
X1788Y198D01*
X1790Y198D01*
X1790Y194D01*
X1792Y194D01*
X1792Y190D01*
X1794Y190D01*
X1794Y186D01*
X1796Y186D01*
X1796Y180D01*
X1798Y180D01*
X1798Y172D01*
X1800Y172D01*
X1800Y146D01*
X1798Y146D01*
X1798Y138D01*
X1796Y138D01*
X1796Y132D01*
X1794Y132D01*
X1794Y128D01*
X1792Y128D01*
X1792Y124D01*
X1790Y124D01*
X1790Y120D01*
X1788Y120D01*
X1788Y118D01*
X1786Y118D01*
X1786Y116D01*
X1784Y116D01*
X1784Y112D01*
X1782Y112D01*
X1782Y110D01*
X1780Y110D01*
X1780Y108D01*
X1778Y108D01*
X1778Y106D01*
X1776Y106D01*
X1776Y104D01*
X1774Y104D01*
X1774Y102D01*
X1770Y102D01*
X1770Y100D01*
X1768Y100D01*
X1768Y98D01*
X1764Y98D01*
X1764Y96D01*
X1762Y96D01*
X1762Y94D01*
X1758Y94D01*
X1758Y92D01*
X1754Y92D01*
X1754Y90D01*
X1748Y90D01*
X1748Y88D01*
X1738Y88D01*
X1738Y86D01*
X1928Y86D01*
X1928Y482D01*
X40Y482D01*
G37*
D02*
G36*
X40Y232D02*
X40Y86D01*
X220Y86D01*
X220Y88D01*
X212Y88D01*
X212Y90D01*
X206Y90D01*
X206Y92D01*
X202Y92D01*
X202Y94D01*
X198Y94D01*
X198Y96D01*
X194Y96D01*
X194Y98D01*
X190Y98D01*
X190Y100D01*
X188Y100D01*
X188Y102D01*
X186Y102D01*
X186Y104D01*
X184Y104D01*
X184Y106D01*
X182Y106D01*
X182Y108D01*
X180Y108D01*
X180Y110D01*
X178Y110D01*
X178Y112D01*
X176Y112D01*
X176Y114D01*
X174Y114D01*
X174Y116D01*
X172Y116D01*
X172Y120D01*
X170Y120D01*
X170Y122D01*
X168Y122D01*
X168Y126D01*
X166Y126D01*
X166Y130D01*
X164Y130D01*
X164Y134D01*
X162Y134D01*
X162Y140D01*
X160Y140D01*
X160Y150D01*
X158Y150D01*
X158Y168D01*
X160Y168D01*
X160Y178D01*
X162Y178D01*
X162Y184D01*
X164Y184D01*
X164Y188D01*
X166Y188D01*
X166Y192D01*
X168Y192D01*
X168Y196D01*
X170Y196D01*
X170Y198D01*
X172Y198D01*
X172Y202D01*
X174Y202D01*
X174Y204D01*
X176Y204D01*
X176Y206D01*
X178Y206D01*
X178Y208D01*
X180Y208D01*
X180Y210D01*
X182Y210D01*
X182Y212D01*
X184Y212D01*
X184Y214D01*
X186Y214D01*
X186Y216D01*
X188Y216D01*
X188Y218D01*
X190Y218D01*
X190Y220D01*
X194Y220D01*
X194Y222D01*
X198Y222D01*
X198Y224D01*
X202Y224D01*
X202Y226D01*
X206Y226D01*
X206Y228D01*
X212Y228D01*
X212Y230D01*
X220Y230D01*
X220Y232D01*
X40Y232D01*
G37*
D02*
G36*
X242Y232D02*
X242Y230D01*
X252Y230D01*
X252Y228D01*
X256Y228D01*
X256Y226D01*
X262Y226D01*
X262Y224D01*
X266Y224D01*
X266Y222D01*
X268Y222D01*
X268Y220D01*
X272Y220D01*
X272Y218D01*
X274Y218D01*
X274Y216D01*
X278Y216D01*
X278Y214D01*
X280Y214D01*
X280Y212D01*
X282Y212D01*
X282Y210D01*
X284Y210D01*
X284Y208D01*
X286Y208D01*
X286Y206D01*
X288Y206D01*
X288Y202D01*
X290Y202D01*
X290Y200D01*
X292Y200D01*
X292Y196D01*
X294Y196D01*
X294Y194D01*
X296Y194D01*
X296Y190D01*
X298Y190D01*
X298Y186D01*
X300Y186D01*
X300Y180D01*
X302Y180D01*
X302Y172D01*
X304Y172D01*
X304Y146D01*
X302Y146D01*
X302Y138D01*
X300Y138D01*
X300Y132D01*
X298Y132D01*
X298Y128D01*
X296Y128D01*
X296Y124D01*
X294Y124D01*
X294Y122D01*
X292Y122D01*
X292Y118D01*
X290Y118D01*
X290Y116D01*
X288Y116D01*
X288Y112D01*
X286Y112D01*
X286Y110D01*
X284Y110D01*
X284Y108D01*
X282Y108D01*
X282Y106D01*
X280Y106D01*
X280Y104D01*
X278Y104D01*
X278Y102D01*
X274Y102D01*
X274Y100D01*
X272Y100D01*
X272Y98D01*
X268Y98D01*
X268Y96D01*
X266Y96D01*
X266Y94D01*
X262Y94D01*
X262Y92D01*
X256Y92D01*
X256Y90D01*
X252Y90D01*
X252Y88D01*
X242Y88D01*
X242Y86D01*
X1008Y86D01*
X1008Y88D01*
X998Y88D01*
X998Y90D01*
X994Y90D01*
X994Y92D01*
X988Y92D01*
X988Y94D01*
X984Y94D01*
X984Y96D01*
X982Y96D01*
X982Y98D01*
X978Y98D01*
X978Y100D01*
X976Y100D01*
X976Y102D01*
X974Y102D01*
X974Y104D01*
X970Y104D01*
X970Y106D01*
X968Y106D01*
X968Y108D01*
X966Y108D01*
X966Y110D01*
X964Y110D01*
X964Y112D01*
X962Y112D01*
X962Y116D01*
X960Y116D01*
X960Y118D01*
X958Y118D01*
X958Y122D01*
X956Y122D01*
X956Y124D01*
X954Y124D01*
X954Y128D01*
X952Y128D01*
X952Y132D01*
X950Y132D01*
X950Y138D01*
X948Y138D01*
X948Y146D01*
X946Y146D01*
X946Y172D01*
X948Y172D01*
X948Y180D01*
X950Y180D01*
X950Y186D01*
X952Y186D01*
X952Y190D01*
X954Y190D01*
X954Y194D01*
X956Y194D01*
X956Y196D01*
X958Y196D01*
X958Y200D01*
X960Y200D01*
X960Y202D01*
X962Y202D01*
X962Y206D01*
X964Y206D01*
X964Y208D01*
X966Y208D01*
X966Y210D01*
X968Y210D01*
X968Y212D01*
X970Y212D01*
X970Y214D01*
X974Y214D01*
X974Y216D01*
X976Y216D01*
X976Y218D01*
X978Y218D01*
X978Y220D01*
X982Y220D01*
X982Y222D01*
X984Y222D01*
X984Y224D01*
X988Y224D01*
X988Y226D01*
X994Y226D01*
X994Y228D01*
X998Y228D01*
X998Y230D01*
X1008Y230D01*
X1008Y232D01*
X242Y232D01*
G37*
D02*
G36*
X1030Y232D02*
X1030Y230D01*
X1038Y230D01*
X1038Y228D01*
X1044Y228D01*
X1044Y226D01*
X1048Y226D01*
X1048Y224D01*
X1052Y224D01*
X1052Y222D01*
X1056Y222D01*
X1056Y220D01*
X1060Y220D01*
X1060Y218D01*
X1062Y218D01*
X1062Y216D01*
X1064Y216D01*
X1064Y214D01*
X1066Y214D01*
X1066Y212D01*
X1068Y212D01*
X1068Y210D01*
X1070Y210D01*
X1070Y208D01*
X1072Y208D01*
X1072Y206D01*
X1074Y206D01*
X1074Y204D01*
X1076Y204D01*
X1076Y202D01*
X1078Y202D01*
X1078Y200D01*
X1080Y200D01*
X1080Y196D01*
X1082Y196D01*
X1082Y192D01*
X1084Y192D01*
X1084Y188D01*
X1086Y188D01*
X1086Y184D01*
X1088Y184D01*
X1088Y178D01*
X1090Y178D01*
X1090Y168D01*
X1092Y168D01*
X1092Y150D01*
X1090Y150D01*
X1090Y140D01*
X1088Y140D01*
X1088Y134D01*
X1086Y134D01*
X1086Y130D01*
X1084Y130D01*
X1084Y126D01*
X1082Y126D01*
X1082Y122D01*
X1080Y122D01*
X1080Y118D01*
X1078Y118D01*
X1078Y116D01*
X1076Y116D01*
X1076Y114D01*
X1074Y114D01*
X1074Y112D01*
X1072Y112D01*
X1072Y110D01*
X1070Y110D01*
X1070Y108D01*
X1068Y108D01*
X1068Y106D01*
X1066Y106D01*
X1066Y104D01*
X1064Y104D01*
X1064Y102D01*
X1062Y102D01*
X1062Y100D01*
X1060Y100D01*
X1060Y98D01*
X1056Y98D01*
X1056Y96D01*
X1052Y96D01*
X1052Y94D01*
X1048Y94D01*
X1048Y92D01*
X1044Y92D01*
X1044Y90D01*
X1038Y90D01*
X1038Y88D01*
X1030Y88D01*
X1030Y86D01*
X1716Y86D01*
X1716Y88D01*
X1708Y88D01*
X1708Y90D01*
X1702Y90D01*
X1702Y92D01*
X1698Y92D01*
X1698Y94D01*
X1694Y94D01*
X1694Y96D01*
X1690Y96D01*
X1690Y98D01*
X1686Y98D01*
X1686Y100D01*
X1684Y100D01*
X1684Y102D01*
X1682Y102D01*
X1682Y104D01*
X1680Y104D01*
X1680Y106D01*
X1678Y106D01*
X1678Y108D01*
X1676Y108D01*
X1676Y110D01*
X1674Y110D01*
X1674Y112D01*
X1672Y112D01*
X1672Y114D01*
X1670Y114D01*
X1670Y116D01*
X1668Y116D01*
X1668Y120D01*
X1666Y120D01*
X1666Y122D01*
X1664Y122D01*
X1664Y126D01*
X1662Y126D01*
X1662Y130D01*
X1660Y130D01*
X1660Y134D01*
X1658Y134D01*
X1658Y140D01*
X1656Y140D01*
X1656Y150D01*
X1654Y150D01*
X1654Y168D01*
X1656Y168D01*
X1656Y178D01*
X1658Y178D01*
X1658Y184D01*
X1660Y184D01*
X1660Y188D01*
X1662Y188D01*
X1662Y192D01*
X1664Y192D01*
X1664Y196D01*
X1666Y196D01*
X1666Y198D01*
X1668Y198D01*
X1668Y202D01*
X1670Y202D01*
X1670Y204D01*
X1672Y204D01*
X1672Y206D01*
X1674Y206D01*
X1674Y208D01*
X1676Y208D01*
X1676Y210D01*
X1678Y210D01*
X1678Y212D01*
X1680Y212D01*
X1680Y214D01*
X1682Y214D01*
X1682Y216D01*
X1684Y216D01*
X1684Y218D01*
X1686Y218D01*
X1686Y220D01*
X1690Y220D01*
X1690Y222D01*
X1694Y222D01*
X1694Y224D01*
X1698Y224D01*
X1698Y226D01*
X1702Y226D01*
X1702Y228D01*
X1708Y228D01*
X1708Y230D01*
X1716Y230D01*
X1716Y232D01*
X1030Y232D01*
G37*
D02*
G36*
X40Y86D02*
X40Y84D01*
X1928Y84D01*
X1928Y86D01*
X40Y86D01*
G37*
D02*
G36*
X40Y86D02*
X40Y84D01*
X1928Y84D01*
X1928Y86D01*
X40Y86D01*
G37*
D02*
G36*
X40Y86D02*
X40Y84D01*
X1928Y84D01*
X1928Y86D01*
X40Y86D01*
G37*
D02*
G36*
X40Y86D02*
X40Y84D01*
X1928Y84D01*
X1928Y86D01*
X40Y86D01*
G37*
D02*
G36*
X40Y84D02*
X40Y42D01*
X1928Y42D01*
X1928Y84D01*
X40Y84D01*
G37*
D02*
G36*
X1382Y626D02*
X1441Y626D01*
X1441Y594D01*
X1382Y594D01*
X1382Y626D01*
G37*
D02*
G36*
X1382Y516D02*
X1441Y516D01*
X1441Y484D01*
X1382Y484D01*
X1382Y516D01*
G37*
D02*
G04 End of Copper1*
M02*