G04 MADE WITH FRITZING*
G04 WWW.FRITZING.ORG*
G04 DOUBLE SIDED*
G04 HOLES PLATED*
G04 CONTOUR ON CENTER OF CONTOUR VECTOR*
%ASAXBY*%
%FSLAX23Y23*%
%MOIN*%
%OFA0B0*%
%SFA1.0B1.0*%
%ADD10C,0.075000*%
%ADD11C,0.070000*%
%ADD12C,0.090551*%
%ADD13R,0.090551X0.090551*%
%ADD14C,0.024000*%
%LNCOPPER0*%
G90*
G70*
G54D10*
X278Y2018D03*
X1675Y1202D03*
X2974Y1190D03*
X1145Y1633D03*
X970Y1839D03*
X1370Y1839D03*
X1470Y1839D03*
X1870Y1839D03*
X1970Y1839D03*
X2370Y1839D03*
X2470Y1839D03*
X2870Y1839D03*
X2970Y1839D03*
X3370Y1839D03*
X2770Y439D03*
X3170Y439D03*
X2770Y539D03*
X3170Y539D03*
X2770Y639D03*
X3170Y639D03*
X2770Y739D03*
X3170Y739D03*
G54D11*
X3170Y839D03*
X3170Y940D03*
G54D12*
X3170Y1089D03*
X3170Y1389D03*
X3270Y1089D03*
X3270Y1389D03*
X3370Y1089D03*
X3370Y1389D03*
X3470Y1089D03*
X3470Y1389D03*
X3570Y1089D03*
X3570Y1389D03*
X3670Y1089D03*
X3670Y1389D03*
X3770Y1089D03*
X3770Y1389D03*
X3870Y1089D03*
X3870Y1389D03*
X2220Y1089D03*
X2220Y1389D03*
X2320Y1089D03*
X2320Y1389D03*
X2420Y1089D03*
X2420Y1389D03*
X2520Y1089D03*
X2520Y1389D03*
X2620Y1089D03*
X2620Y1389D03*
X2720Y1089D03*
X2720Y1389D03*
X2820Y1089D03*
X2820Y1389D03*
X2920Y1089D03*
X2920Y1389D03*
X1270Y1089D03*
X1270Y1389D03*
X1370Y1089D03*
X1370Y1389D03*
X1470Y1089D03*
X1470Y1389D03*
X1570Y1089D03*
X1570Y1389D03*
X1670Y1089D03*
X1670Y1389D03*
X1770Y1089D03*
X1770Y1389D03*
X1870Y1089D03*
X1870Y1389D03*
X1970Y1089D03*
X1970Y1389D03*
X320Y1089D03*
X320Y1389D03*
X420Y1089D03*
X420Y1389D03*
X520Y1089D03*
X520Y1389D03*
X620Y1089D03*
X620Y1389D03*
X720Y1089D03*
X720Y1389D03*
X820Y1089D03*
X820Y1389D03*
X920Y1089D03*
X920Y1389D03*
X1020Y1089D03*
X1020Y1389D03*
X3770Y1639D03*
X3670Y939D03*
X2620Y939D03*
X2720Y939D03*
X1670Y939D03*
X1770Y939D03*
X720Y939D03*
X1270Y1539D03*
X420Y1639D03*
X1020Y239D03*
X1970Y239D03*
X2920Y239D03*
X2920Y939D03*
X1970Y939D03*
X1470Y939D03*
X620Y939D03*
X1020Y939D03*
X2220Y1939D03*
X1270Y1939D03*
X3170Y1939D03*
X320Y1639D03*
X2220Y1639D03*
X1270Y1639D03*
X3170Y1639D03*
X2920Y2039D03*
X1970Y2039D03*
X1020Y2039D03*
X2920Y1639D03*
X1970Y1639D03*
X1020Y1639D03*
X320Y1539D03*
X1370Y1639D03*
X1470Y1639D03*
X3270Y1639D03*
X3370Y1639D03*
X2320Y1639D03*
X2420Y1639D03*
X2220Y1539D03*
X3870Y1539D03*
X3170Y1539D03*
X2920Y1539D03*
X1970Y1539D03*
X620Y1539D03*
X1020Y1539D03*
X3870Y1639D03*
X3870Y939D03*
X170Y1289D03*
X170Y1189D03*
G54D13*
X3170Y1089D03*
X2220Y1089D03*
X1270Y1089D03*
X320Y1089D03*
G54D14*
X1945Y239D02*
X1045Y239D01*
D02*
X1995Y239D02*
X2895Y239D01*
D02*
X3170Y238D02*
X3852Y922D01*
D02*
X2945Y239D02*
X3170Y238D01*
D02*
X1020Y964D02*
X1020Y1064D01*
D02*
X1970Y964D02*
X1970Y1064D01*
D02*
X2920Y964D02*
X2920Y1064D01*
D02*
X603Y1372D02*
X520Y1289D01*
D02*
X620Y1414D02*
X620Y1515D01*
D02*
X620Y1064D02*
X620Y964D01*
D02*
X3170Y966D02*
X3170Y1065D01*
D02*
X3170Y768D02*
X3170Y813D01*
D02*
X3170Y668D02*
X3170Y711D01*
D02*
X3170Y568D02*
X3170Y611D01*
D02*
X3170Y511D02*
X3170Y468D01*
D02*
X2670Y739D02*
X2519Y887D01*
D02*
X2519Y887D02*
X2520Y1064D01*
D02*
X2741Y739D02*
X2670Y739D01*
D02*
X2219Y988D02*
X2220Y1064D01*
D02*
X2569Y641D02*
X2219Y988D01*
D02*
X2741Y640D02*
X2569Y641D01*
D02*
X1919Y540D02*
X1569Y890D01*
D02*
X1569Y890D02*
X1570Y1064D01*
D02*
X2741Y539D02*
X1919Y540D01*
D02*
X1769Y439D02*
X1270Y940D01*
D02*
X1270Y940D02*
X1270Y1064D01*
D02*
X2741Y439D02*
X1769Y439D01*
D02*
X3445Y1089D02*
X3395Y1089D01*
D02*
X3495Y1089D02*
X3545Y1089D01*
D02*
X3671Y1191D02*
X3753Y1107D01*
D02*
X3588Y1107D02*
X3671Y1191D01*
D02*
X1470Y1064D02*
X1470Y964D01*
D02*
X3770Y1414D02*
X3770Y1615D01*
D02*
X2941Y1839D02*
X2899Y1839D01*
D02*
X2441Y1839D02*
X2399Y1839D01*
D02*
X1941Y1839D02*
X1899Y1839D01*
D02*
X1441Y1839D02*
X1399Y1839D01*
D02*
X3570Y1839D02*
X3399Y1839D01*
D02*
X3752Y1657D02*
X3570Y1839D01*
D02*
X3471Y1289D02*
X3553Y1372D01*
D02*
X2620Y1290D02*
X3471Y1289D01*
D02*
X1670Y1290D02*
X2419Y1290D01*
D02*
X3470Y1690D02*
X3470Y1414D01*
D02*
X3069Y1739D02*
X3421Y1739D01*
D02*
X3421Y1739D02*
X3470Y1690D01*
D02*
X2990Y1819D02*
X3069Y1739D01*
D02*
X2821Y1488D02*
X2490Y1819D01*
D02*
X2820Y1414D02*
X2821Y1488D01*
D02*
X2519Y1690D02*
X2470Y1739D01*
D02*
X2069Y1739D02*
X1990Y1819D01*
D02*
X2470Y1739D02*
X2069Y1739D01*
D02*
X2520Y1414D02*
X2519Y1690D01*
D02*
X1870Y1488D02*
X1492Y1821D01*
D02*
X1870Y1414D02*
X1870Y1488D01*
D02*
X1570Y1690D02*
X1519Y1739D01*
D02*
X1519Y1739D02*
X971Y1739D01*
D02*
X971Y1739D02*
X970Y1811D01*
D02*
X1570Y1414D02*
X1570Y1690D01*
D02*
X821Y1589D02*
X820Y1414D01*
D02*
X971Y1739D02*
X821Y1589D01*
D02*
X3870Y964D02*
X3870Y1064D01*
D02*
X3269Y439D02*
X3171Y340D01*
D02*
X1070Y340D02*
X521Y888D01*
D02*
X521Y888D02*
X520Y1065D01*
D02*
X3171Y340D02*
X1070Y340D01*
D02*
X3270Y1064D02*
X3269Y439D01*
D02*
X320Y1564D02*
X320Y1615D01*
D02*
X520Y1289D02*
X195Y1289D01*
D02*
X3845Y1089D02*
X3795Y1089D01*
D02*
X2895Y1089D02*
X2845Y1089D01*
D02*
X995Y1089D02*
X945Y1089D01*
D02*
X1945Y1089D02*
X1895Y1089D01*
D02*
X1945Y2039D02*
X1045Y2039D01*
D02*
X1995Y2039D02*
X2895Y2039D01*
D02*
X3871Y1688D02*
X3870Y1664D01*
D02*
X3521Y2038D02*
X3871Y1688D01*
D02*
X3870Y1615D02*
X3870Y1564D01*
D02*
X2945Y2039D02*
X3521Y2038D01*
D02*
X1020Y1564D02*
X1020Y1615D01*
D02*
X1970Y1564D02*
X1970Y1615D01*
D02*
X2920Y1564D02*
X2920Y1615D01*
D02*
X3145Y1939D02*
X2245Y1939D01*
D02*
X2195Y1939D02*
X1295Y1939D01*
D02*
X620Y1940D02*
X338Y1657D01*
D02*
X1245Y1939D02*
X620Y1940D01*
D02*
X1270Y1615D02*
X1270Y1564D01*
D02*
X2220Y1615D02*
X2220Y1564D01*
D02*
X3170Y1615D02*
X3170Y1564D01*
D02*
X320Y1414D02*
X320Y1515D01*
D02*
X1020Y1414D02*
X1020Y1515D01*
D02*
X1970Y1414D02*
X1970Y1515D01*
D02*
X2220Y1414D02*
X2220Y1515D01*
D02*
X2920Y1414D02*
X2920Y1515D01*
D02*
X3170Y1414D02*
X3170Y1515D01*
D02*
X3870Y1414D02*
X3870Y1515D01*
D02*
X795Y1389D02*
X745Y1389D01*
D02*
X1670Y1290D02*
X1670Y1365D01*
D02*
X1620Y1289D02*
X1670Y1290D01*
D02*
X1470Y1139D02*
X1620Y1289D01*
D02*
X1470Y1114D02*
X1470Y1139D01*
D02*
X1445Y1089D02*
X1395Y1089D01*
D02*
X1695Y1389D02*
X1745Y1389D01*
D02*
X495Y1089D02*
X445Y1089D01*
D02*
X2620Y1290D02*
X2419Y1290D01*
D02*
X2419Y1290D02*
X2420Y1114D01*
D02*
X2620Y1365D02*
X2620Y1290D01*
D02*
X2395Y1089D02*
X2345Y1089D01*
D02*
X2645Y1389D02*
X2695Y1389D01*
D02*
X3370Y1240D02*
X3269Y1139D01*
D02*
X3671Y1240D02*
X3370Y1240D01*
D02*
X3269Y1139D02*
X3269Y1114D01*
D02*
X3769Y1338D02*
X3671Y1240D01*
D02*
X3770Y1365D02*
X3769Y1338D01*
D02*
X3595Y1389D02*
X3645Y1389D01*
D02*
X420Y1414D02*
X420Y1615D01*
D02*
X495Y1389D02*
X445Y1389D01*
D02*
X2320Y1414D02*
X2320Y1615D01*
D02*
X2420Y1414D02*
X2420Y1615D01*
D02*
X3270Y1414D02*
X3270Y1615D01*
D02*
X3370Y1414D02*
X3370Y1615D01*
D02*
X1270Y1414D02*
X1270Y1515D01*
D02*
X1370Y1414D02*
X1370Y1615D01*
D02*
X1470Y1414D02*
X1470Y1615D01*
D02*
X720Y964D02*
X720Y1064D01*
D02*
X745Y1089D02*
X795Y1089D01*
D02*
X3670Y964D02*
X3670Y1064D01*
D02*
X2720Y964D02*
X2720Y1064D01*
D02*
X2620Y964D02*
X2620Y1064D01*
D02*
X1770Y964D02*
X1770Y1064D01*
D02*
X1670Y964D02*
X1670Y1064D01*
D02*
X320Y1114D02*
X321Y1189D01*
D02*
X321Y1189D02*
X719Y1188D01*
D02*
X719Y1188D02*
X902Y1372D01*
D02*
X321Y1189D02*
X195Y1189D01*
G36*
X200Y2072D02*
X200Y2046D01*
X202Y2046D01*
X202Y2032D01*
X200Y2032D01*
X200Y2020D01*
X198Y2020D01*
X198Y2014D01*
X196Y2014D01*
X196Y2010D01*
X194Y2010D01*
X194Y2006D01*
X192Y2006D01*
X192Y2002D01*
X190Y2002D01*
X190Y1998D01*
X188Y1998D01*
X188Y1994D01*
X186Y1994D01*
X186Y1992D01*
X184Y1992D01*
X184Y1990D01*
X182Y1990D01*
X182Y1988D01*
X180Y1988D01*
X180Y1986D01*
X178Y1986D01*
X178Y1982D01*
X174Y1982D01*
X174Y1980D01*
X172Y1980D01*
X172Y1978D01*
X170Y1978D01*
X170Y1976D01*
X168Y1976D01*
X168Y1974D01*
X166Y1974D01*
X166Y1972D01*
X162Y1972D01*
X162Y1970D01*
X160Y1970D01*
X160Y1968D01*
X156Y1968D01*
X156Y1966D01*
X152Y1966D01*
X152Y1964D01*
X146Y1964D01*
X146Y1962D01*
X140Y1962D01*
X140Y1960D01*
X132Y1960D01*
X132Y1958D01*
X598Y1958D01*
X598Y1960D01*
X600Y1960D01*
X600Y1962D01*
X602Y1962D01*
X602Y1964D01*
X604Y1964D01*
X604Y1966D01*
X608Y1966D01*
X608Y1968D01*
X616Y1968D01*
X616Y1970D01*
X986Y1970D01*
X986Y1990D01*
X984Y1990D01*
X984Y1992D01*
X982Y1992D01*
X982Y1994D01*
X978Y1994D01*
X978Y1996D01*
X976Y1996D01*
X976Y1998D01*
X974Y1998D01*
X974Y2002D01*
X972Y2002D01*
X972Y2004D01*
X970Y2004D01*
X970Y2006D01*
X968Y2006D01*
X968Y2010D01*
X966Y2010D01*
X966Y2012D01*
X964Y2012D01*
X964Y2016D01*
X962Y2016D01*
X962Y2020D01*
X960Y2020D01*
X960Y2026D01*
X958Y2026D01*
X958Y2052D01*
X960Y2052D01*
X960Y2072D01*
X200Y2072D01*
G37*
D02*
G36*
X3548Y2072D02*
X3548Y2052D01*
X3550Y2052D01*
X3550Y2050D01*
X3552Y2050D01*
X3552Y2048D01*
X3554Y2048D01*
X3554Y2046D01*
X3556Y2046D01*
X3556Y2044D01*
X3558Y2044D01*
X3558Y2042D01*
X3560Y2042D01*
X3560Y2040D01*
X3562Y2040D01*
X3562Y2038D01*
X3564Y2038D01*
X3564Y2036D01*
X3566Y2036D01*
X3566Y2034D01*
X3568Y2034D01*
X3568Y2032D01*
X3570Y2032D01*
X3570Y2030D01*
X3572Y2030D01*
X3572Y2028D01*
X3574Y2028D01*
X3574Y2026D01*
X3576Y2026D01*
X3576Y2024D01*
X3578Y2024D01*
X3578Y2022D01*
X3580Y2022D01*
X3580Y2020D01*
X3582Y2020D01*
X3582Y2018D01*
X3584Y2018D01*
X3584Y2016D01*
X3586Y2016D01*
X3586Y2014D01*
X3588Y2014D01*
X3588Y2012D01*
X3590Y2012D01*
X3590Y2010D01*
X3592Y2010D01*
X3592Y2008D01*
X3594Y2008D01*
X3594Y2006D01*
X3596Y2006D01*
X3596Y2004D01*
X3598Y2004D01*
X3598Y2002D01*
X3600Y2002D01*
X3600Y2000D01*
X3602Y2000D01*
X3602Y1998D01*
X3604Y1998D01*
X3604Y1996D01*
X3606Y1996D01*
X3606Y1994D01*
X3608Y1994D01*
X3608Y1992D01*
X3610Y1992D01*
X3610Y1990D01*
X3612Y1990D01*
X3612Y1988D01*
X3614Y1988D01*
X3614Y1986D01*
X3616Y1986D01*
X3616Y1984D01*
X3618Y1984D01*
X3618Y1982D01*
X3620Y1982D01*
X3620Y1980D01*
X3622Y1980D01*
X3622Y1978D01*
X3624Y1978D01*
X3624Y1976D01*
X3626Y1976D01*
X3626Y1974D01*
X3628Y1974D01*
X3628Y1972D01*
X3630Y1972D01*
X3630Y1970D01*
X3632Y1970D01*
X3632Y1968D01*
X3634Y1968D01*
X3634Y1966D01*
X3636Y1966D01*
X3636Y1964D01*
X3638Y1964D01*
X3638Y1962D01*
X3640Y1962D01*
X3640Y1960D01*
X3642Y1960D01*
X3642Y1958D01*
X3910Y1958D01*
X3910Y1960D01*
X3900Y1960D01*
X3900Y1962D01*
X3894Y1962D01*
X3894Y1964D01*
X3890Y1964D01*
X3890Y1966D01*
X3886Y1966D01*
X3886Y1968D01*
X3882Y1968D01*
X3882Y1970D01*
X3878Y1970D01*
X3878Y1972D01*
X3876Y1972D01*
X3876Y1974D01*
X3874Y1974D01*
X3874Y1976D01*
X3870Y1976D01*
X3870Y1978D01*
X3868Y1978D01*
X3868Y1980D01*
X3866Y1980D01*
X3866Y1982D01*
X3864Y1982D01*
X3864Y1984D01*
X3862Y1984D01*
X3862Y1986D01*
X3860Y1986D01*
X3860Y1988D01*
X3858Y1988D01*
X3858Y1990D01*
X3856Y1990D01*
X3856Y1994D01*
X3854Y1994D01*
X3854Y1996D01*
X3852Y1996D01*
X3852Y2000D01*
X3850Y2000D01*
X3850Y2002D01*
X3848Y2002D01*
X3848Y2006D01*
X3846Y2006D01*
X3846Y2012D01*
X3844Y2012D01*
X3844Y2018D01*
X3842Y2018D01*
X3842Y2024D01*
X3840Y2024D01*
X3840Y2072D01*
X3548Y2072D01*
G37*
D02*
G36*
X42Y1986D02*
X42Y1958D01*
X110Y1958D01*
X110Y1960D01*
X100Y1960D01*
X100Y1962D01*
X94Y1962D01*
X94Y1964D01*
X90Y1964D01*
X90Y1966D01*
X86Y1966D01*
X86Y1968D01*
X82Y1968D01*
X82Y1970D01*
X78Y1970D01*
X78Y1972D01*
X76Y1972D01*
X76Y1974D01*
X74Y1974D01*
X74Y1976D01*
X70Y1976D01*
X70Y1978D01*
X68Y1978D01*
X68Y1980D01*
X66Y1980D01*
X66Y1982D01*
X64Y1982D01*
X64Y1984D01*
X62Y1984D01*
X62Y1986D01*
X42Y1986D01*
G37*
D02*
G36*
X3970Y1978D02*
X3970Y1976D01*
X3968Y1976D01*
X3968Y1974D01*
X3966Y1974D01*
X3966Y1972D01*
X3962Y1972D01*
X3962Y1970D01*
X3960Y1970D01*
X3960Y1968D01*
X3956Y1968D01*
X3956Y1966D01*
X3952Y1966D01*
X3952Y1964D01*
X3946Y1964D01*
X3946Y1962D01*
X3940Y1962D01*
X3940Y1960D01*
X3932Y1960D01*
X3932Y1958D01*
X3990Y1958D01*
X3990Y1978D01*
X3970Y1978D01*
G37*
D02*
G36*
X42Y1958D02*
X42Y1956D01*
X596Y1956D01*
X596Y1958D01*
X42Y1958D01*
G37*
D02*
G36*
X42Y1958D02*
X42Y1956D01*
X596Y1956D01*
X596Y1958D01*
X42Y1958D01*
G37*
D02*
G36*
X3644Y1958D02*
X3644Y1956D01*
X3990Y1956D01*
X3990Y1958D01*
X3644Y1958D01*
G37*
D02*
G36*
X3644Y1958D02*
X3644Y1956D01*
X3990Y1956D01*
X3990Y1958D01*
X3644Y1958D01*
G37*
D02*
G36*
X42Y1956D02*
X42Y1352D01*
X182Y1352D01*
X182Y1350D01*
X188Y1350D01*
X188Y1348D01*
X192Y1348D01*
X192Y1346D01*
X196Y1346D01*
X196Y1344D01*
X200Y1344D01*
X200Y1342D01*
X202Y1342D01*
X202Y1340D01*
X206Y1340D01*
X206Y1338D01*
X208Y1338D01*
X208Y1336D01*
X210Y1336D01*
X210Y1334D01*
X212Y1334D01*
X212Y1332D01*
X214Y1332D01*
X214Y1330D01*
X216Y1330D01*
X216Y1328D01*
X218Y1328D01*
X218Y1326D01*
X220Y1326D01*
X220Y1324D01*
X222Y1324D01*
X222Y1320D01*
X224Y1320D01*
X224Y1318D01*
X288Y1318D01*
X288Y1338D01*
X286Y1338D01*
X286Y1340D01*
X284Y1340D01*
X284Y1342D01*
X282Y1342D01*
X282Y1344D01*
X278Y1344D01*
X278Y1346D01*
X276Y1346D01*
X276Y1348D01*
X274Y1348D01*
X274Y1352D01*
X272Y1352D01*
X272Y1354D01*
X270Y1354D01*
X270Y1356D01*
X268Y1356D01*
X268Y1360D01*
X266Y1360D01*
X266Y1362D01*
X264Y1362D01*
X264Y1366D01*
X262Y1366D01*
X262Y1370D01*
X260Y1370D01*
X260Y1376D01*
X258Y1376D01*
X258Y1402D01*
X260Y1402D01*
X260Y1408D01*
X262Y1408D01*
X262Y1412D01*
X264Y1412D01*
X264Y1416D01*
X266Y1416D01*
X266Y1420D01*
X268Y1420D01*
X268Y1422D01*
X270Y1422D01*
X270Y1424D01*
X272Y1424D01*
X272Y1426D01*
X274Y1426D01*
X274Y1430D01*
X276Y1430D01*
X276Y1432D01*
X278Y1432D01*
X278Y1434D01*
X280Y1434D01*
X280Y1436D01*
X284Y1436D01*
X284Y1438D01*
X286Y1438D01*
X286Y1440D01*
X288Y1440D01*
X288Y1442D01*
X290Y1442D01*
X290Y1486D01*
X288Y1486D01*
X288Y1488D01*
X286Y1488D01*
X286Y1490D01*
X284Y1490D01*
X284Y1492D01*
X282Y1492D01*
X282Y1494D01*
X278Y1494D01*
X278Y1496D01*
X276Y1496D01*
X276Y1498D01*
X274Y1498D01*
X274Y1502D01*
X272Y1502D01*
X272Y1504D01*
X270Y1504D01*
X270Y1506D01*
X268Y1506D01*
X268Y1510D01*
X266Y1510D01*
X266Y1512D01*
X264Y1512D01*
X264Y1516D01*
X262Y1516D01*
X262Y1520D01*
X260Y1520D01*
X260Y1526D01*
X258Y1526D01*
X258Y1552D01*
X260Y1552D01*
X260Y1558D01*
X262Y1558D01*
X262Y1562D01*
X264Y1562D01*
X264Y1566D01*
X266Y1566D01*
X266Y1570D01*
X268Y1570D01*
X268Y1572D01*
X270Y1572D01*
X270Y1574D01*
X272Y1574D01*
X272Y1576D01*
X274Y1576D01*
X274Y1602D01*
X272Y1602D01*
X272Y1604D01*
X270Y1604D01*
X270Y1606D01*
X268Y1606D01*
X268Y1610D01*
X266Y1610D01*
X266Y1612D01*
X264Y1612D01*
X264Y1616D01*
X262Y1616D01*
X262Y1620D01*
X260Y1620D01*
X260Y1626D01*
X258Y1626D01*
X258Y1652D01*
X260Y1652D01*
X260Y1658D01*
X262Y1658D01*
X262Y1662D01*
X264Y1662D01*
X264Y1666D01*
X266Y1666D01*
X266Y1670D01*
X268Y1670D01*
X268Y1672D01*
X270Y1672D01*
X270Y1674D01*
X272Y1674D01*
X272Y1676D01*
X274Y1676D01*
X274Y1680D01*
X276Y1680D01*
X276Y1682D01*
X278Y1682D01*
X278Y1684D01*
X280Y1684D01*
X280Y1686D01*
X284Y1686D01*
X284Y1688D01*
X286Y1688D01*
X286Y1690D01*
X288Y1690D01*
X288Y1692D01*
X292Y1692D01*
X292Y1694D01*
X294Y1694D01*
X294Y1696D01*
X298Y1696D01*
X298Y1698D01*
X304Y1698D01*
X304Y1700D01*
X310Y1700D01*
X310Y1702D01*
X342Y1702D01*
X342Y1704D01*
X344Y1704D01*
X344Y1706D01*
X346Y1706D01*
X346Y1708D01*
X348Y1708D01*
X348Y1710D01*
X350Y1710D01*
X350Y1712D01*
X352Y1712D01*
X352Y1714D01*
X354Y1714D01*
X354Y1716D01*
X356Y1716D01*
X356Y1718D01*
X358Y1718D01*
X358Y1720D01*
X360Y1720D01*
X360Y1722D01*
X362Y1722D01*
X362Y1724D01*
X364Y1724D01*
X364Y1726D01*
X366Y1726D01*
X366Y1728D01*
X368Y1728D01*
X368Y1730D01*
X370Y1730D01*
X370Y1732D01*
X372Y1732D01*
X372Y1734D01*
X374Y1734D01*
X374Y1736D01*
X376Y1736D01*
X376Y1738D01*
X378Y1738D01*
X378Y1740D01*
X380Y1740D01*
X380Y1742D01*
X382Y1742D01*
X382Y1744D01*
X384Y1744D01*
X384Y1746D01*
X386Y1746D01*
X386Y1748D01*
X388Y1748D01*
X388Y1750D01*
X390Y1750D01*
X390Y1752D01*
X392Y1752D01*
X392Y1754D01*
X394Y1754D01*
X394Y1756D01*
X396Y1756D01*
X396Y1758D01*
X398Y1758D01*
X398Y1760D01*
X400Y1760D01*
X400Y1762D01*
X402Y1762D01*
X402Y1764D01*
X404Y1764D01*
X404Y1766D01*
X406Y1766D01*
X406Y1768D01*
X408Y1768D01*
X408Y1770D01*
X410Y1770D01*
X410Y1772D01*
X412Y1772D01*
X412Y1774D01*
X414Y1774D01*
X414Y1776D01*
X416Y1776D01*
X416Y1778D01*
X418Y1778D01*
X418Y1780D01*
X420Y1780D01*
X420Y1782D01*
X422Y1782D01*
X422Y1784D01*
X424Y1784D01*
X424Y1786D01*
X426Y1786D01*
X426Y1788D01*
X428Y1788D01*
X428Y1790D01*
X430Y1790D01*
X430Y1792D01*
X432Y1792D01*
X432Y1794D01*
X434Y1794D01*
X434Y1796D01*
X436Y1796D01*
X436Y1798D01*
X438Y1798D01*
X438Y1800D01*
X440Y1800D01*
X440Y1802D01*
X442Y1802D01*
X442Y1804D01*
X444Y1804D01*
X444Y1806D01*
X446Y1806D01*
X446Y1808D01*
X448Y1808D01*
X448Y1810D01*
X450Y1810D01*
X450Y1812D01*
X452Y1812D01*
X452Y1814D01*
X454Y1814D01*
X454Y1816D01*
X456Y1816D01*
X456Y1818D01*
X458Y1818D01*
X458Y1820D01*
X460Y1820D01*
X460Y1822D01*
X462Y1822D01*
X462Y1824D01*
X464Y1824D01*
X464Y1826D01*
X466Y1826D01*
X466Y1828D01*
X468Y1828D01*
X468Y1830D01*
X470Y1830D01*
X470Y1832D01*
X472Y1832D01*
X472Y1834D01*
X474Y1834D01*
X474Y1836D01*
X476Y1836D01*
X476Y1838D01*
X478Y1838D01*
X478Y1840D01*
X480Y1840D01*
X480Y1842D01*
X482Y1842D01*
X482Y1844D01*
X484Y1844D01*
X484Y1846D01*
X486Y1846D01*
X486Y1848D01*
X488Y1848D01*
X488Y1850D01*
X490Y1850D01*
X490Y1852D01*
X492Y1852D01*
X492Y1854D01*
X494Y1854D01*
X494Y1856D01*
X496Y1856D01*
X496Y1858D01*
X498Y1858D01*
X498Y1860D01*
X500Y1860D01*
X500Y1862D01*
X502Y1862D01*
X502Y1864D01*
X504Y1864D01*
X504Y1866D01*
X506Y1866D01*
X506Y1868D01*
X508Y1868D01*
X508Y1870D01*
X510Y1870D01*
X510Y1872D01*
X512Y1872D01*
X512Y1874D01*
X514Y1874D01*
X514Y1876D01*
X516Y1876D01*
X516Y1878D01*
X518Y1878D01*
X518Y1880D01*
X520Y1880D01*
X520Y1882D01*
X522Y1882D01*
X522Y1884D01*
X524Y1884D01*
X524Y1886D01*
X526Y1886D01*
X526Y1888D01*
X528Y1888D01*
X528Y1890D01*
X530Y1890D01*
X530Y1892D01*
X532Y1892D01*
X532Y1894D01*
X534Y1894D01*
X534Y1896D01*
X536Y1896D01*
X536Y1898D01*
X538Y1898D01*
X538Y1900D01*
X540Y1900D01*
X540Y1902D01*
X542Y1902D01*
X542Y1904D01*
X544Y1904D01*
X544Y1906D01*
X546Y1906D01*
X546Y1908D01*
X548Y1908D01*
X548Y1910D01*
X550Y1910D01*
X550Y1912D01*
X552Y1912D01*
X552Y1914D01*
X554Y1914D01*
X554Y1916D01*
X556Y1916D01*
X556Y1918D01*
X558Y1918D01*
X558Y1920D01*
X560Y1920D01*
X560Y1922D01*
X562Y1922D01*
X562Y1924D01*
X564Y1924D01*
X564Y1926D01*
X566Y1926D01*
X566Y1928D01*
X568Y1928D01*
X568Y1930D01*
X570Y1930D01*
X570Y1932D01*
X572Y1932D01*
X572Y1934D01*
X574Y1934D01*
X574Y1936D01*
X576Y1936D01*
X576Y1938D01*
X578Y1938D01*
X578Y1940D01*
X580Y1940D01*
X580Y1942D01*
X582Y1942D01*
X582Y1944D01*
X584Y1944D01*
X584Y1946D01*
X586Y1946D01*
X586Y1948D01*
X588Y1948D01*
X588Y1950D01*
X590Y1950D01*
X590Y1952D01*
X592Y1952D01*
X592Y1954D01*
X594Y1954D01*
X594Y1956D01*
X42Y1956D01*
G37*
D02*
G36*
X3646Y1956D02*
X3646Y1954D01*
X3648Y1954D01*
X3648Y1952D01*
X3650Y1952D01*
X3650Y1950D01*
X3652Y1950D01*
X3652Y1948D01*
X3654Y1948D01*
X3654Y1946D01*
X3656Y1946D01*
X3656Y1944D01*
X3658Y1944D01*
X3658Y1942D01*
X3660Y1942D01*
X3660Y1940D01*
X3662Y1940D01*
X3662Y1938D01*
X3664Y1938D01*
X3664Y1936D01*
X3666Y1936D01*
X3666Y1934D01*
X3668Y1934D01*
X3668Y1932D01*
X3670Y1932D01*
X3670Y1930D01*
X3672Y1930D01*
X3672Y1928D01*
X3674Y1928D01*
X3674Y1926D01*
X3676Y1926D01*
X3676Y1924D01*
X3678Y1924D01*
X3678Y1922D01*
X3680Y1922D01*
X3680Y1920D01*
X3682Y1920D01*
X3682Y1918D01*
X3684Y1918D01*
X3684Y1916D01*
X3686Y1916D01*
X3686Y1914D01*
X3688Y1914D01*
X3688Y1912D01*
X3690Y1912D01*
X3690Y1910D01*
X3692Y1910D01*
X3692Y1908D01*
X3694Y1908D01*
X3694Y1906D01*
X3696Y1906D01*
X3696Y1904D01*
X3698Y1904D01*
X3698Y1902D01*
X3700Y1902D01*
X3700Y1900D01*
X3702Y1900D01*
X3702Y1898D01*
X3704Y1898D01*
X3704Y1896D01*
X3706Y1896D01*
X3706Y1894D01*
X3708Y1894D01*
X3708Y1892D01*
X3710Y1892D01*
X3710Y1890D01*
X3712Y1890D01*
X3712Y1888D01*
X3714Y1888D01*
X3714Y1886D01*
X3716Y1886D01*
X3716Y1884D01*
X3718Y1884D01*
X3718Y1882D01*
X3720Y1882D01*
X3720Y1880D01*
X3722Y1880D01*
X3722Y1878D01*
X3724Y1878D01*
X3724Y1876D01*
X3726Y1876D01*
X3726Y1874D01*
X3728Y1874D01*
X3728Y1872D01*
X3730Y1872D01*
X3730Y1870D01*
X3732Y1870D01*
X3732Y1868D01*
X3734Y1868D01*
X3734Y1866D01*
X3736Y1866D01*
X3736Y1864D01*
X3738Y1864D01*
X3738Y1862D01*
X3740Y1862D01*
X3740Y1860D01*
X3742Y1860D01*
X3742Y1858D01*
X3744Y1858D01*
X3744Y1856D01*
X3746Y1856D01*
X3746Y1854D01*
X3748Y1854D01*
X3748Y1852D01*
X3750Y1852D01*
X3750Y1850D01*
X3752Y1850D01*
X3752Y1848D01*
X3754Y1848D01*
X3754Y1846D01*
X3756Y1846D01*
X3756Y1844D01*
X3758Y1844D01*
X3758Y1842D01*
X3760Y1842D01*
X3760Y1840D01*
X3762Y1840D01*
X3762Y1838D01*
X3764Y1838D01*
X3764Y1836D01*
X3766Y1836D01*
X3766Y1834D01*
X3768Y1834D01*
X3768Y1832D01*
X3770Y1832D01*
X3770Y1830D01*
X3772Y1830D01*
X3772Y1828D01*
X3774Y1828D01*
X3774Y1826D01*
X3776Y1826D01*
X3776Y1824D01*
X3778Y1824D01*
X3778Y1822D01*
X3780Y1822D01*
X3780Y1820D01*
X3782Y1820D01*
X3782Y1818D01*
X3784Y1818D01*
X3784Y1816D01*
X3786Y1816D01*
X3786Y1814D01*
X3788Y1814D01*
X3788Y1812D01*
X3790Y1812D01*
X3790Y1810D01*
X3792Y1810D01*
X3792Y1808D01*
X3794Y1808D01*
X3794Y1806D01*
X3796Y1806D01*
X3796Y1804D01*
X3798Y1804D01*
X3798Y1802D01*
X3800Y1802D01*
X3800Y1800D01*
X3802Y1800D01*
X3802Y1798D01*
X3804Y1798D01*
X3804Y1796D01*
X3806Y1796D01*
X3806Y1794D01*
X3808Y1794D01*
X3808Y1792D01*
X3810Y1792D01*
X3810Y1790D01*
X3812Y1790D01*
X3812Y1788D01*
X3814Y1788D01*
X3814Y1786D01*
X3816Y1786D01*
X3816Y1784D01*
X3818Y1784D01*
X3818Y1782D01*
X3820Y1782D01*
X3820Y1780D01*
X3822Y1780D01*
X3822Y1778D01*
X3824Y1778D01*
X3824Y1776D01*
X3826Y1776D01*
X3826Y1774D01*
X3828Y1774D01*
X3828Y1772D01*
X3830Y1772D01*
X3830Y1770D01*
X3832Y1770D01*
X3832Y1768D01*
X3834Y1768D01*
X3834Y1766D01*
X3836Y1766D01*
X3836Y1764D01*
X3838Y1764D01*
X3838Y1762D01*
X3840Y1762D01*
X3840Y1760D01*
X3842Y1760D01*
X3842Y1758D01*
X3844Y1758D01*
X3844Y1756D01*
X3846Y1756D01*
X3846Y1754D01*
X3848Y1754D01*
X3848Y1752D01*
X3850Y1752D01*
X3850Y1750D01*
X3852Y1750D01*
X3852Y1748D01*
X3854Y1748D01*
X3854Y1746D01*
X3856Y1746D01*
X3856Y1744D01*
X3858Y1744D01*
X3858Y1742D01*
X3860Y1742D01*
X3860Y1740D01*
X3862Y1740D01*
X3862Y1738D01*
X3864Y1738D01*
X3864Y1736D01*
X3866Y1736D01*
X3866Y1734D01*
X3868Y1734D01*
X3868Y1732D01*
X3870Y1732D01*
X3870Y1730D01*
X3872Y1730D01*
X3872Y1728D01*
X3874Y1728D01*
X3874Y1726D01*
X3876Y1726D01*
X3876Y1724D01*
X3878Y1724D01*
X3878Y1722D01*
X3880Y1722D01*
X3880Y1720D01*
X3882Y1720D01*
X3882Y1718D01*
X3884Y1718D01*
X3884Y1716D01*
X3886Y1716D01*
X3886Y1714D01*
X3888Y1714D01*
X3888Y1712D01*
X3890Y1712D01*
X3890Y1710D01*
X3892Y1710D01*
X3892Y1708D01*
X3894Y1708D01*
X3894Y1706D01*
X3896Y1706D01*
X3896Y1702D01*
X3898Y1702D01*
X3898Y1698D01*
X3900Y1698D01*
X3900Y1692D01*
X3902Y1692D01*
X3902Y1690D01*
X3906Y1690D01*
X3906Y1688D01*
X3908Y1688D01*
X3908Y1686D01*
X3910Y1686D01*
X3910Y1684D01*
X3912Y1684D01*
X3912Y1682D01*
X3914Y1682D01*
X3914Y1680D01*
X3916Y1680D01*
X3916Y1678D01*
X3918Y1678D01*
X3918Y1676D01*
X3920Y1676D01*
X3920Y1674D01*
X3922Y1674D01*
X3922Y1670D01*
X3924Y1670D01*
X3924Y1668D01*
X3926Y1668D01*
X3926Y1664D01*
X3928Y1664D01*
X3928Y1660D01*
X3930Y1660D01*
X3930Y1654D01*
X3932Y1654D01*
X3932Y1646D01*
X3934Y1646D01*
X3934Y1632D01*
X3932Y1632D01*
X3932Y1624D01*
X3930Y1624D01*
X3930Y1618D01*
X3928Y1618D01*
X3928Y1614D01*
X3926Y1614D01*
X3926Y1610D01*
X3924Y1610D01*
X3924Y1608D01*
X3922Y1608D01*
X3922Y1604D01*
X3920Y1604D01*
X3920Y1602D01*
X3918Y1602D01*
X3918Y1600D01*
X3916Y1600D01*
X3916Y1578D01*
X3918Y1578D01*
X3918Y1576D01*
X3920Y1576D01*
X3920Y1574D01*
X3922Y1574D01*
X3922Y1570D01*
X3924Y1570D01*
X3924Y1568D01*
X3926Y1568D01*
X3926Y1564D01*
X3928Y1564D01*
X3928Y1560D01*
X3930Y1560D01*
X3930Y1554D01*
X3932Y1554D01*
X3932Y1546D01*
X3934Y1546D01*
X3934Y1532D01*
X3932Y1532D01*
X3932Y1524D01*
X3930Y1524D01*
X3930Y1518D01*
X3928Y1518D01*
X3928Y1514D01*
X3926Y1514D01*
X3926Y1510D01*
X3924Y1510D01*
X3924Y1508D01*
X3922Y1508D01*
X3922Y1504D01*
X3920Y1504D01*
X3920Y1502D01*
X3918Y1502D01*
X3918Y1500D01*
X3916Y1500D01*
X3916Y1498D01*
X3914Y1498D01*
X3914Y1496D01*
X3912Y1496D01*
X3912Y1494D01*
X3910Y1494D01*
X3910Y1492D01*
X3908Y1492D01*
X3908Y1490D01*
X3906Y1490D01*
X3906Y1488D01*
X3902Y1488D01*
X3902Y1486D01*
X3900Y1486D01*
X3900Y1442D01*
X3902Y1442D01*
X3902Y1440D01*
X3906Y1440D01*
X3906Y1438D01*
X3908Y1438D01*
X3908Y1436D01*
X3910Y1436D01*
X3910Y1434D01*
X3912Y1434D01*
X3912Y1432D01*
X3914Y1432D01*
X3914Y1430D01*
X3916Y1430D01*
X3916Y1428D01*
X3918Y1428D01*
X3918Y1426D01*
X3920Y1426D01*
X3920Y1424D01*
X3922Y1424D01*
X3922Y1420D01*
X3924Y1420D01*
X3924Y1418D01*
X3926Y1418D01*
X3926Y1414D01*
X3928Y1414D01*
X3928Y1410D01*
X3930Y1410D01*
X3930Y1404D01*
X3932Y1404D01*
X3932Y1396D01*
X3934Y1396D01*
X3934Y1382D01*
X3932Y1382D01*
X3932Y1374D01*
X3930Y1374D01*
X3930Y1368D01*
X3928Y1368D01*
X3928Y1364D01*
X3926Y1364D01*
X3926Y1360D01*
X3924Y1360D01*
X3924Y1358D01*
X3922Y1358D01*
X3922Y1354D01*
X3920Y1354D01*
X3920Y1352D01*
X3918Y1352D01*
X3918Y1350D01*
X3916Y1350D01*
X3916Y1348D01*
X3914Y1348D01*
X3914Y1346D01*
X3912Y1346D01*
X3912Y1344D01*
X3910Y1344D01*
X3910Y1342D01*
X3908Y1342D01*
X3908Y1340D01*
X3906Y1340D01*
X3906Y1338D01*
X3902Y1338D01*
X3902Y1336D01*
X3900Y1336D01*
X3900Y1334D01*
X3896Y1334D01*
X3896Y1332D01*
X3892Y1332D01*
X3892Y1330D01*
X3888Y1330D01*
X3888Y1328D01*
X3880Y1328D01*
X3880Y1326D01*
X3990Y1326D01*
X3990Y1956D01*
X3646Y1956D01*
G37*
D02*
G36*
X42Y1352D02*
X42Y1126D01*
X160Y1126D01*
X160Y1128D01*
X154Y1128D01*
X154Y1130D01*
X148Y1130D01*
X148Y1132D01*
X144Y1132D01*
X144Y1134D01*
X142Y1134D01*
X142Y1136D01*
X138Y1136D01*
X138Y1138D01*
X136Y1138D01*
X136Y1140D01*
X134Y1140D01*
X134Y1142D01*
X132Y1142D01*
X132Y1144D01*
X128Y1144D01*
X128Y1146D01*
X126Y1146D01*
X126Y1148D01*
X124Y1148D01*
X124Y1152D01*
X122Y1152D01*
X122Y1154D01*
X120Y1154D01*
X120Y1156D01*
X118Y1156D01*
X118Y1160D01*
X116Y1160D01*
X116Y1162D01*
X114Y1162D01*
X114Y1166D01*
X112Y1166D01*
X112Y1170D01*
X110Y1170D01*
X110Y1176D01*
X108Y1176D01*
X108Y1202D01*
X110Y1202D01*
X110Y1208D01*
X112Y1208D01*
X112Y1212D01*
X114Y1212D01*
X114Y1216D01*
X116Y1216D01*
X116Y1220D01*
X118Y1220D01*
X118Y1222D01*
X120Y1222D01*
X120Y1224D01*
X122Y1224D01*
X122Y1226D01*
X124Y1226D01*
X124Y1252D01*
X122Y1252D01*
X122Y1254D01*
X120Y1254D01*
X120Y1256D01*
X118Y1256D01*
X118Y1260D01*
X116Y1260D01*
X116Y1262D01*
X114Y1262D01*
X114Y1266D01*
X112Y1266D01*
X112Y1270D01*
X110Y1270D01*
X110Y1276D01*
X108Y1276D01*
X108Y1302D01*
X110Y1302D01*
X110Y1308D01*
X112Y1308D01*
X112Y1312D01*
X114Y1312D01*
X114Y1316D01*
X116Y1316D01*
X116Y1320D01*
X118Y1320D01*
X118Y1322D01*
X120Y1322D01*
X120Y1324D01*
X122Y1324D01*
X122Y1326D01*
X124Y1326D01*
X124Y1330D01*
X126Y1330D01*
X126Y1332D01*
X128Y1332D01*
X128Y1334D01*
X130Y1334D01*
X130Y1336D01*
X134Y1336D01*
X134Y1338D01*
X136Y1338D01*
X136Y1340D01*
X138Y1340D01*
X138Y1342D01*
X142Y1342D01*
X142Y1344D01*
X144Y1344D01*
X144Y1346D01*
X148Y1346D01*
X148Y1348D01*
X154Y1348D01*
X154Y1350D01*
X160Y1350D01*
X160Y1352D01*
X42Y1352D01*
G37*
D02*
G36*
X3810Y1344D02*
X3810Y1342D01*
X3808Y1342D01*
X3808Y1340D01*
X3806Y1340D01*
X3806Y1338D01*
X3802Y1338D01*
X3802Y1336D01*
X3800Y1336D01*
X3800Y1332D01*
X3798Y1332D01*
X3798Y1326D01*
X3860Y1326D01*
X3860Y1328D01*
X3854Y1328D01*
X3854Y1330D01*
X3848Y1330D01*
X3848Y1332D01*
X3844Y1332D01*
X3844Y1334D01*
X3842Y1334D01*
X3842Y1336D01*
X3838Y1336D01*
X3838Y1338D01*
X3836Y1338D01*
X3836Y1340D01*
X3834Y1340D01*
X3834Y1342D01*
X3832Y1342D01*
X3832Y1344D01*
X3810Y1344D01*
G37*
D02*
G36*
X3796Y1326D02*
X3796Y1324D01*
X3990Y1324D01*
X3990Y1326D01*
X3796Y1326D01*
G37*
D02*
G36*
X3796Y1326D02*
X3796Y1324D01*
X3990Y1324D01*
X3990Y1326D01*
X3796Y1326D01*
G37*
D02*
G36*
X3796Y1324D02*
X3796Y1322D01*
X3794Y1322D01*
X3794Y1320D01*
X3792Y1320D01*
X3792Y1316D01*
X3790Y1316D01*
X3790Y1314D01*
X3788Y1314D01*
X3788Y1312D01*
X3786Y1312D01*
X3786Y1310D01*
X3784Y1310D01*
X3784Y1308D01*
X3782Y1308D01*
X3782Y1306D01*
X3780Y1306D01*
X3780Y1304D01*
X3778Y1304D01*
X3778Y1302D01*
X3776Y1302D01*
X3776Y1300D01*
X3774Y1300D01*
X3774Y1298D01*
X3772Y1298D01*
X3772Y1296D01*
X3770Y1296D01*
X3770Y1294D01*
X3768Y1294D01*
X3768Y1292D01*
X3766Y1292D01*
X3766Y1290D01*
X3764Y1290D01*
X3764Y1288D01*
X3762Y1288D01*
X3762Y1286D01*
X3760Y1286D01*
X3760Y1284D01*
X3758Y1284D01*
X3758Y1282D01*
X3756Y1282D01*
X3756Y1280D01*
X3754Y1280D01*
X3754Y1278D01*
X3752Y1278D01*
X3752Y1276D01*
X3750Y1276D01*
X3750Y1274D01*
X3748Y1274D01*
X3748Y1272D01*
X3746Y1272D01*
X3746Y1270D01*
X3744Y1270D01*
X3744Y1268D01*
X3742Y1268D01*
X3742Y1266D01*
X3740Y1266D01*
X3740Y1264D01*
X3738Y1264D01*
X3738Y1262D01*
X3736Y1262D01*
X3736Y1260D01*
X3734Y1260D01*
X3734Y1258D01*
X3732Y1258D01*
X3732Y1256D01*
X3730Y1256D01*
X3730Y1254D01*
X3728Y1254D01*
X3728Y1252D01*
X3726Y1252D01*
X3726Y1250D01*
X3724Y1250D01*
X3724Y1248D01*
X3722Y1248D01*
X3722Y1246D01*
X3720Y1246D01*
X3720Y1244D01*
X3718Y1244D01*
X3718Y1242D01*
X3716Y1242D01*
X3716Y1240D01*
X3714Y1240D01*
X3714Y1238D01*
X3712Y1238D01*
X3712Y1236D01*
X3710Y1236D01*
X3710Y1234D01*
X3708Y1234D01*
X3708Y1232D01*
X3706Y1232D01*
X3706Y1230D01*
X3704Y1230D01*
X3704Y1228D01*
X3702Y1228D01*
X3702Y1226D01*
X3700Y1226D01*
X3700Y1224D01*
X3698Y1224D01*
X3698Y1222D01*
X3696Y1222D01*
X3696Y1220D01*
X3694Y1220D01*
X3694Y1218D01*
X3692Y1218D01*
X3692Y1216D01*
X3688Y1216D01*
X3688Y1214D01*
X3686Y1214D01*
X3686Y1212D01*
X3680Y1212D01*
X3680Y1210D01*
X3382Y1210D01*
X3382Y1208D01*
X3380Y1208D01*
X3380Y1206D01*
X3378Y1206D01*
X3378Y1204D01*
X3376Y1204D01*
X3376Y1202D01*
X3374Y1202D01*
X3374Y1200D01*
X3372Y1200D01*
X3372Y1198D01*
X3370Y1198D01*
X3370Y1196D01*
X3368Y1196D01*
X3368Y1194D01*
X3366Y1194D01*
X3366Y1192D01*
X3364Y1192D01*
X3364Y1190D01*
X3362Y1190D01*
X3362Y1188D01*
X3360Y1188D01*
X3360Y1186D01*
X3358Y1186D01*
X3358Y1184D01*
X3356Y1184D01*
X3356Y1182D01*
X3354Y1182D01*
X3354Y1180D01*
X3352Y1180D01*
X3352Y1178D01*
X3350Y1178D01*
X3350Y1176D01*
X3348Y1176D01*
X3348Y1174D01*
X3346Y1174D01*
X3346Y1172D01*
X3344Y1172D01*
X3344Y1170D01*
X3342Y1170D01*
X3342Y1168D01*
X3340Y1168D01*
X3340Y1166D01*
X3338Y1166D01*
X3338Y1164D01*
X3336Y1164D01*
X3336Y1162D01*
X3334Y1162D01*
X3334Y1160D01*
X3332Y1160D01*
X3332Y1158D01*
X3330Y1158D01*
X3330Y1156D01*
X3328Y1156D01*
X3328Y1154D01*
X3326Y1154D01*
X3326Y1152D01*
X3882Y1152D01*
X3882Y1150D01*
X3888Y1150D01*
X3888Y1148D01*
X3892Y1148D01*
X3892Y1146D01*
X3896Y1146D01*
X3896Y1144D01*
X3900Y1144D01*
X3900Y1142D01*
X3902Y1142D01*
X3902Y1140D01*
X3906Y1140D01*
X3906Y1138D01*
X3908Y1138D01*
X3908Y1136D01*
X3910Y1136D01*
X3910Y1134D01*
X3912Y1134D01*
X3912Y1132D01*
X3914Y1132D01*
X3914Y1130D01*
X3916Y1130D01*
X3916Y1128D01*
X3918Y1128D01*
X3918Y1126D01*
X3920Y1126D01*
X3920Y1124D01*
X3922Y1124D01*
X3922Y1120D01*
X3924Y1120D01*
X3924Y1118D01*
X3926Y1118D01*
X3926Y1114D01*
X3928Y1114D01*
X3928Y1110D01*
X3930Y1110D01*
X3930Y1104D01*
X3932Y1104D01*
X3932Y1096D01*
X3934Y1096D01*
X3934Y1082D01*
X3932Y1082D01*
X3932Y1074D01*
X3930Y1074D01*
X3930Y1068D01*
X3928Y1068D01*
X3928Y1064D01*
X3926Y1064D01*
X3926Y1060D01*
X3924Y1060D01*
X3924Y1058D01*
X3922Y1058D01*
X3922Y1054D01*
X3920Y1054D01*
X3920Y1052D01*
X3918Y1052D01*
X3918Y1050D01*
X3916Y1050D01*
X3916Y1048D01*
X3914Y1048D01*
X3914Y1046D01*
X3912Y1046D01*
X3912Y1044D01*
X3910Y1044D01*
X3910Y1042D01*
X3908Y1042D01*
X3908Y1040D01*
X3906Y1040D01*
X3906Y1038D01*
X3902Y1038D01*
X3902Y1036D01*
X3900Y1036D01*
X3900Y1034D01*
X3896Y1034D01*
X3896Y1032D01*
X3892Y1032D01*
X3892Y1030D01*
X3888Y1030D01*
X3888Y1028D01*
X3880Y1028D01*
X3880Y1026D01*
X3990Y1026D01*
X3990Y1324D01*
X3796Y1324D01*
G37*
D02*
G36*
X222Y1158D02*
X222Y1154D01*
X220Y1154D01*
X220Y1152D01*
X218Y1152D01*
X218Y1150D01*
X216Y1150D01*
X216Y1148D01*
X214Y1148D01*
X214Y1146D01*
X212Y1146D01*
X212Y1144D01*
X210Y1144D01*
X210Y1142D01*
X208Y1142D01*
X208Y1140D01*
X206Y1140D01*
X206Y1138D01*
X202Y1138D01*
X202Y1136D01*
X200Y1136D01*
X200Y1134D01*
X196Y1134D01*
X196Y1132D01*
X192Y1132D01*
X192Y1130D01*
X188Y1130D01*
X188Y1128D01*
X180Y1128D01*
X180Y1126D01*
X258Y1126D01*
X258Y1158D01*
X222Y1158D01*
G37*
D02*
G36*
X3324Y1152D02*
X3324Y1150D01*
X3322Y1150D01*
X3322Y1148D01*
X3320Y1148D01*
X3320Y1146D01*
X3318Y1146D01*
X3318Y1140D01*
X3338Y1140D01*
X3338Y1142D01*
X3342Y1142D01*
X3342Y1144D01*
X3344Y1144D01*
X3344Y1146D01*
X3348Y1146D01*
X3348Y1148D01*
X3354Y1148D01*
X3354Y1150D01*
X3360Y1150D01*
X3360Y1152D01*
X3324Y1152D01*
G37*
D02*
G36*
X3382Y1152D02*
X3382Y1150D01*
X3388Y1150D01*
X3388Y1148D01*
X3392Y1148D01*
X3392Y1146D01*
X3396Y1146D01*
X3396Y1144D01*
X3400Y1144D01*
X3400Y1142D01*
X3402Y1142D01*
X3402Y1140D01*
X3406Y1140D01*
X3406Y1138D01*
X3408Y1138D01*
X3408Y1136D01*
X3410Y1136D01*
X3410Y1134D01*
X3430Y1134D01*
X3430Y1136D01*
X3434Y1136D01*
X3434Y1138D01*
X3436Y1138D01*
X3436Y1140D01*
X3438Y1140D01*
X3438Y1142D01*
X3442Y1142D01*
X3442Y1144D01*
X3444Y1144D01*
X3444Y1146D01*
X3448Y1146D01*
X3448Y1148D01*
X3454Y1148D01*
X3454Y1150D01*
X3460Y1150D01*
X3460Y1152D01*
X3382Y1152D01*
G37*
D02*
G36*
X3482Y1152D02*
X3482Y1150D01*
X3488Y1150D01*
X3488Y1148D01*
X3492Y1148D01*
X3492Y1146D01*
X3496Y1146D01*
X3496Y1144D01*
X3500Y1144D01*
X3500Y1142D01*
X3502Y1142D01*
X3502Y1140D01*
X3506Y1140D01*
X3506Y1138D01*
X3508Y1138D01*
X3508Y1136D01*
X3510Y1136D01*
X3510Y1134D01*
X3530Y1134D01*
X3530Y1136D01*
X3534Y1136D01*
X3534Y1138D01*
X3536Y1138D01*
X3536Y1140D01*
X3538Y1140D01*
X3538Y1142D01*
X3542Y1142D01*
X3542Y1144D01*
X3544Y1144D01*
X3544Y1146D01*
X3548Y1146D01*
X3548Y1148D01*
X3554Y1148D01*
X3554Y1150D01*
X3560Y1150D01*
X3560Y1152D01*
X3482Y1152D01*
G37*
D02*
G36*
X3582Y1152D02*
X3582Y1150D01*
X3588Y1150D01*
X3588Y1148D01*
X3592Y1148D01*
X3592Y1146D01*
X3596Y1146D01*
X3596Y1144D01*
X3600Y1144D01*
X3600Y1142D01*
X3602Y1142D01*
X3602Y1140D01*
X3606Y1140D01*
X3606Y1138D01*
X3608Y1138D01*
X3608Y1136D01*
X3610Y1136D01*
X3610Y1134D01*
X3630Y1134D01*
X3630Y1136D01*
X3634Y1136D01*
X3634Y1138D01*
X3636Y1138D01*
X3636Y1140D01*
X3638Y1140D01*
X3638Y1142D01*
X3642Y1142D01*
X3642Y1144D01*
X3644Y1144D01*
X3644Y1146D01*
X3648Y1146D01*
X3648Y1148D01*
X3654Y1148D01*
X3654Y1150D01*
X3660Y1150D01*
X3660Y1152D01*
X3582Y1152D01*
G37*
D02*
G36*
X3682Y1152D02*
X3682Y1150D01*
X3688Y1150D01*
X3688Y1148D01*
X3692Y1148D01*
X3692Y1146D01*
X3696Y1146D01*
X3696Y1144D01*
X3700Y1144D01*
X3700Y1142D01*
X3702Y1142D01*
X3702Y1140D01*
X3706Y1140D01*
X3706Y1138D01*
X3708Y1138D01*
X3708Y1136D01*
X3710Y1136D01*
X3710Y1134D01*
X3730Y1134D01*
X3730Y1136D01*
X3734Y1136D01*
X3734Y1138D01*
X3736Y1138D01*
X3736Y1140D01*
X3738Y1140D01*
X3738Y1142D01*
X3742Y1142D01*
X3742Y1144D01*
X3744Y1144D01*
X3744Y1146D01*
X3748Y1146D01*
X3748Y1148D01*
X3754Y1148D01*
X3754Y1150D01*
X3760Y1150D01*
X3760Y1152D01*
X3682Y1152D01*
G37*
D02*
G36*
X3782Y1152D02*
X3782Y1150D01*
X3788Y1150D01*
X3788Y1148D01*
X3792Y1148D01*
X3792Y1146D01*
X3796Y1146D01*
X3796Y1144D01*
X3800Y1144D01*
X3800Y1142D01*
X3802Y1142D01*
X3802Y1140D01*
X3806Y1140D01*
X3806Y1138D01*
X3808Y1138D01*
X3808Y1136D01*
X3810Y1136D01*
X3810Y1134D01*
X3830Y1134D01*
X3830Y1136D01*
X3834Y1136D01*
X3834Y1138D01*
X3836Y1138D01*
X3836Y1140D01*
X3838Y1140D01*
X3838Y1142D01*
X3842Y1142D01*
X3842Y1144D01*
X3844Y1144D01*
X3844Y1146D01*
X3848Y1146D01*
X3848Y1148D01*
X3854Y1148D01*
X3854Y1150D01*
X3860Y1150D01*
X3860Y1152D01*
X3782Y1152D01*
G37*
D02*
G36*
X42Y1126D02*
X42Y1124D01*
X258Y1124D01*
X258Y1126D01*
X42Y1126D01*
G37*
D02*
G36*
X42Y1126D02*
X42Y1124D01*
X258Y1124D01*
X258Y1126D01*
X42Y1126D01*
G37*
D02*
G36*
X42Y1124D02*
X42Y1026D01*
X258Y1026D01*
X258Y1124D01*
X42Y1124D01*
G37*
D02*
G36*
X460Y1044D02*
X460Y1042D01*
X458Y1042D01*
X458Y1040D01*
X456Y1040D01*
X456Y1038D01*
X452Y1038D01*
X452Y1036D01*
X450Y1036D01*
X450Y1034D01*
X446Y1034D01*
X446Y1032D01*
X442Y1032D01*
X442Y1030D01*
X438Y1030D01*
X438Y1028D01*
X430Y1028D01*
X430Y1026D01*
X490Y1026D01*
X490Y1036D01*
X488Y1036D01*
X488Y1038D01*
X486Y1038D01*
X486Y1040D01*
X484Y1040D01*
X484Y1042D01*
X482Y1042D01*
X482Y1044D01*
X460Y1044D01*
G37*
D02*
G36*
X3310Y1044D02*
X3310Y1042D01*
X3308Y1042D01*
X3308Y1040D01*
X3306Y1040D01*
X3306Y1038D01*
X3302Y1038D01*
X3302Y1036D01*
X3300Y1036D01*
X3300Y1026D01*
X3360Y1026D01*
X3360Y1028D01*
X3354Y1028D01*
X3354Y1030D01*
X3348Y1030D01*
X3348Y1032D01*
X3344Y1032D01*
X3344Y1034D01*
X3342Y1034D01*
X3342Y1036D01*
X3338Y1036D01*
X3338Y1038D01*
X3336Y1038D01*
X3336Y1040D01*
X3334Y1040D01*
X3334Y1042D01*
X3332Y1042D01*
X3332Y1044D01*
X3310Y1044D01*
G37*
D02*
G36*
X3410Y1044D02*
X3410Y1042D01*
X3408Y1042D01*
X3408Y1040D01*
X3406Y1040D01*
X3406Y1038D01*
X3402Y1038D01*
X3402Y1036D01*
X3400Y1036D01*
X3400Y1034D01*
X3396Y1034D01*
X3396Y1032D01*
X3392Y1032D01*
X3392Y1030D01*
X3388Y1030D01*
X3388Y1028D01*
X3380Y1028D01*
X3380Y1026D01*
X3460Y1026D01*
X3460Y1028D01*
X3454Y1028D01*
X3454Y1030D01*
X3448Y1030D01*
X3448Y1032D01*
X3444Y1032D01*
X3444Y1034D01*
X3442Y1034D01*
X3442Y1036D01*
X3438Y1036D01*
X3438Y1038D01*
X3436Y1038D01*
X3436Y1040D01*
X3434Y1040D01*
X3434Y1042D01*
X3432Y1042D01*
X3432Y1044D01*
X3410Y1044D01*
G37*
D02*
G36*
X3510Y1044D02*
X3510Y1042D01*
X3508Y1042D01*
X3508Y1040D01*
X3506Y1040D01*
X3506Y1038D01*
X3502Y1038D01*
X3502Y1036D01*
X3500Y1036D01*
X3500Y1034D01*
X3496Y1034D01*
X3496Y1032D01*
X3492Y1032D01*
X3492Y1030D01*
X3488Y1030D01*
X3488Y1028D01*
X3480Y1028D01*
X3480Y1026D01*
X3560Y1026D01*
X3560Y1028D01*
X3554Y1028D01*
X3554Y1030D01*
X3548Y1030D01*
X3548Y1032D01*
X3544Y1032D01*
X3544Y1034D01*
X3542Y1034D01*
X3542Y1036D01*
X3538Y1036D01*
X3538Y1038D01*
X3536Y1038D01*
X3536Y1040D01*
X3534Y1040D01*
X3534Y1042D01*
X3532Y1042D01*
X3532Y1044D01*
X3510Y1044D01*
G37*
D02*
G36*
X3610Y1044D02*
X3610Y1042D01*
X3608Y1042D01*
X3608Y1040D01*
X3606Y1040D01*
X3606Y1038D01*
X3602Y1038D01*
X3602Y1036D01*
X3600Y1036D01*
X3600Y1034D01*
X3596Y1034D01*
X3596Y1032D01*
X3592Y1032D01*
X3592Y1030D01*
X3588Y1030D01*
X3588Y1028D01*
X3580Y1028D01*
X3580Y1026D01*
X3640Y1026D01*
X3640Y1036D01*
X3638Y1036D01*
X3638Y1038D01*
X3636Y1038D01*
X3636Y1040D01*
X3634Y1040D01*
X3634Y1042D01*
X3632Y1042D01*
X3632Y1044D01*
X3610Y1044D01*
G37*
D02*
G36*
X3710Y1044D02*
X3710Y1042D01*
X3708Y1042D01*
X3708Y1040D01*
X3706Y1040D01*
X3706Y1038D01*
X3702Y1038D01*
X3702Y1036D01*
X3700Y1036D01*
X3700Y1026D01*
X3760Y1026D01*
X3760Y1028D01*
X3754Y1028D01*
X3754Y1030D01*
X3748Y1030D01*
X3748Y1032D01*
X3744Y1032D01*
X3744Y1034D01*
X3742Y1034D01*
X3742Y1036D01*
X3738Y1036D01*
X3738Y1038D01*
X3736Y1038D01*
X3736Y1040D01*
X3734Y1040D01*
X3734Y1042D01*
X3732Y1042D01*
X3732Y1044D01*
X3710Y1044D01*
G37*
D02*
G36*
X3810Y1044D02*
X3810Y1042D01*
X3808Y1042D01*
X3808Y1040D01*
X3806Y1040D01*
X3806Y1038D01*
X3802Y1038D01*
X3802Y1036D01*
X3800Y1036D01*
X3800Y1034D01*
X3796Y1034D01*
X3796Y1032D01*
X3792Y1032D01*
X3792Y1030D01*
X3788Y1030D01*
X3788Y1028D01*
X3780Y1028D01*
X3780Y1026D01*
X3860Y1026D01*
X3860Y1028D01*
X3854Y1028D01*
X3854Y1030D01*
X3848Y1030D01*
X3848Y1032D01*
X3844Y1032D01*
X3844Y1034D01*
X3842Y1034D01*
X3842Y1036D01*
X3838Y1036D01*
X3838Y1038D01*
X3836Y1038D01*
X3836Y1040D01*
X3834Y1040D01*
X3834Y1042D01*
X3832Y1042D01*
X3832Y1044D01*
X3810Y1044D01*
G37*
D02*
G36*
X384Y1030D02*
X384Y1026D01*
X410Y1026D01*
X410Y1028D01*
X404Y1028D01*
X404Y1030D01*
X384Y1030D01*
G37*
D02*
G36*
X42Y1026D02*
X42Y1024D01*
X490Y1024D01*
X490Y1026D01*
X42Y1026D01*
G37*
D02*
G36*
X42Y1026D02*
X42Y1024D01*
X490Y1024D01*
X490Y1026D01*
X42Y1026D01*
G37*
D02*
G36*
X42Y1026D02*
X42Y1024D01*
X490Y1024D01*
X490Y1026D01*
X42Y1026D01*
G37*
D02*
G36*
X3300Y1026D02*
X3300Y1024D01*
X3640Y1024D01*
X3640Y1026D01*
X3300Y1026D01*
G37*
D02*
G36*
X3300Y1026D02*
X3300Y1024D01*
X3640Y1024D01*
X3640Y1026D01*
X3300Y1026D01*
G37*
D02*
G36*
X3300Y1026D02*
X3300Y1024D01*
X3640Y1024D01*
X3640Y1026D01*
X3300Y1026D01*
G37*
D02*
G36*
X3300Y1026D02*
X3300Y1024D01*
X3640Y1024D01*
X3640Y1026D01*
X3300Y1026D01*
G37*
D02*
G36*
X3700Y1026D02*
X3700Y1024D01*
X3990Y1024D01*
X3990Y1026D01*
X3700Y1026D01*
G37*
D02*
G36*
X3700Y1026D02*
X3700Y1024D01*
X3990Y1024D01*
X3990Y1026D01*
X3700Y1026D01*
G37*
D02*
G36*
X3700Y1026D02*
X3700Y1024D01*
X3990Y1024D01*
X3990Y1026D01*
X3700Y1026D01*
G37*
D02*
G36*
X42Y1024D02*
X42Y302D01*
X1032Y302D01*
X1032Y300D01*
X1038Y300D01*
X1038Y298D01*
X1042Y298D01*
X1042Y296D01*
X1046Y296D01*
X1046Y294D01*
X1050Y294D01*
X1050Y292D01*
X1052Y292D01*
X1052Y290D01*
X1056Y290D01*
X1056Y288D01*
X1058Y288D01*
X1058Y286D01*
X1060Y286D01*
X1060Y284D01*
X1062Y284D01*
X1062Y282D01*
X1064Y282D01*
X1064Y280D01*
X1066Y280D01*
X1066Y278D01*
X1068Y278D01*
X1068Y276D01*
X1070Y276D01*
X1070Y274D01*
X1072Y274D01*
X1072Y270D01*
X1074Y270D01*
X1074Y268D01*
X1076Y268D01*
X1076Y264D01*
X1078Y264D01*
X1078Y260D01*
X1080Y260D01*
X1080Y254D01*
X1082Y254D01*
X1082Y246D01*
X1084Y246D01*
X1084Y232D01*
X1082Y232D01*
X1082Y224D01*
X1080Y224D01*
X1080Y218D01*
X1078Y218D01*
X1078Y214D01*
X1076Y214D01*
X1076Y210D01*
X1074Y210D01*
X1074Y208D01*
X1072Y208D01*
X1072Y204D01*
X1070Y204D01*
X1070Y202D01*
X1068Y202D01*
X1068Y200D01*
X1066Y200D01*
X1066Y198D01*
X1064Y198D01*
X1064Y196D01*
X1062Y196D01*
X1062Y194D01*
X1060Y194D01*
X1060Y192D01*
X1058Y192D01*
X1058Y190D01*
X1056Y190D01*
X1056Y188D01*
X1052Y188D01*
X1052Y186D01*
X1050Y186D01*
X1050Y184D01*
X1046Y184D01*
X1046Y182D01*
X1042Y182D01*
X1042Y180D01*
X1038Y180D01*
X1038Y178D01*
X1030Y178D01*
X1030Y176D01*
X1960Y176D01*
X1960Y178D01*
X1954Y178D01*
X1954Y180D01*
X1948Y180D01*
X1948Y182D01*
X1944Y182D01*
X1944Y184D01*
X1942Y184D01*
X1942Y186D01*
X1938Y186D01*
X1938Y188D01*
X1936Y188D01*
X1936Y190D01*
X1934Y190D01*
X1934Y192D01*
X1932Y192D01*
X1932Y194D01*
X1928Y194D01*
X1928Y196D01*
X1926Y196D01*
X1926Y198D01*
X1924Y198D01*
X1924Y202D01*
X1922Y202D01*
X1922Y204D01*
X1920Y204D01*
X1920Y206D01*
X1918Y206D01*
X1918Y210D01*
X1916Y210D01*
X1916Y212D01*
X1914Y212D01*
X1914Y216D01*
X1912Y216D01*
X1912Y220D01*
X1910Y220D01*
X1910Y226D01*
X1908Y226D01*
X1908Y252D01*
X1910Y252D01*
X1910Y258D01*
X1912Y258D01*
X1912Y262D01*
X1914Y262D01*
X1914Y266D01*
X1916Y266D01*
X1916Y270D01*
X1918Y270D01*
X1918Y272D01*
X1920Y272D01*
X1920Y274D01*
X1922Y274D01*
X1922Y276D01*
X1924Y276D01*
X1924Y280D01*
X1926Y280D01*
X1926Y282D01*
X1928Y282D01*
X1928Y284D01*
X1930Y284D01*
X1930Y286D01*
X1934Y286D01*
X1934Y288D01*
X1936Y288D01*
X1936Y290D01*
X1938Y290D01*
X1938Y310D01*
X1060Y310D01*
X1060Y312D01*
X1056Y312D01*
X1056Y314D01*
X1052Y314D01*
X1052Y316D01*
X1050Y316D01*
X1050Y318D01*
X1048Y318D01*
X1048Y320D01*
X1046Y320D01*
X1046Y322D01*
X1044Y322D01*
X1044Y324D01*
X1042Y324D01*
X1042Y326D01*
X1040Y326D01*
X1040Y328D01*
X1038Y328D01*
X1038Y330D01*
X1036Y330D01*
X1036Y332D01*
X1034Y332D01*
X1034Y334D01*
X1032Y334D01*
X1032Y336D01*
X1030Y336D01*
X1030Y338D01*
X1028Y338D01*
X1028Y340D01*
X1026Y340D01*
X1026Y342D01*
X1024Y342D01*
X1024Y344D01*
X1022Y344D01*
X1022Y346D01*
X1020Y346D01*
X1020Y348D01*
X1018Y348D01*
X1018Y350D01*
X1016Y350D01*
X1016Y352D01*
X1014Y352D01*
X1014Y354D01*
X1012Y354D01*
X1012Y356D01*
X1010Y356D01*
X1010Y358D01*
X1008Y358D01*
X1008Y360D01*
X1006Y360D01*
X1006Y362D01*
X1004Y362D01*
X1004Y364D01*
X1002Y364D01*
X1002Y366D01*
X1000Y366D01*
X1000Y368D01*
X998Y368D01*
X998Y370D01*
X996Y370D01*
X996Y372D01*
X994Y372D01*
X994Y374D01*
X992Y374D01*
X992Y376D01*
X990Y376D01*
X990Y378D01*
X988Y378D01*
X988Y380D01*
X986Y380D01*
X986Y382D01*
X984Y382D01*
X984Y384D01*
X982Y384D01*
X982Y386D01*
X980Y386D01*
X980Y388D01*
X978Y388D01*
X978Y390D01*
X976Y390D01*
X976Y392D01*
X974Y392D01*
X974Y394D01*
X972Y394D01*
X972Y396D01*
X970Y396D01*
X970Y398D01*
X968Y398D01*
X968Y400D01*
X966Y400D01*
X966Y402D01*
X964Y402D01*
X964Y404D01*
X962Y404D01*
X962Y406D01*
X960Y406D01*
X960Y408D01*
X958Y408D01*
X958Y410D01*
X956Y410D01*
X956Y412D01*
X954Y412D01*
X954Y414D01*
X952Y414D01*
X952Y416D01*
X950Y416D01*
X950Y418D01*
X948Y418D01*
X948Y420D01*
X946Y420D01*
X946Y422D01*
X944Y422D01*
X944Y424D01*
X942Y424D01*
X942Y426D01*
X940Y426D01*
X940Y428D01*
X938Y428D01*
X938Y430D01*
X936Y430D01*
X936Y432D01*
X934Y432D01*
X934Y434D01*
X932Y434D01*
X932Y436D01*
X930Y436D01*
X930Y438D01*
X928Y438D01*
X928Y440D01*
X926Y440D01*
X926Y442D01*
X924Y442D01*
X924Y444D01*
X922Y444D01*
X922Y446D01*
X920Y446D01*
X920Y448D01*
X918Y448D01*
X918Y450D01*
X916Y450D01*
X916Y452D01*
X914Y452D01*
X914Y454D01*
X912Y454D01*
X912Y456D01*
X910Y456D01*
X910Y458D01*
X908Y458D01*
X908Y460D01*
X906Y460D01*
X906Y462D01*
X904Y462D01*
X904Y464D01*
X902Y464D01*
X902Y466D01*
X900Y466D01*
X900Y468D01*
X898Y468D01*
X898Y470D01*
X896Y470D01*
X896Y472D01*
X894Y472D01*
X894Y474D01*
X892Y474D01*
X892Y476D01*
X890Y476D01*
X890Y478D01*
X888Y478D01*
X888Y480D01*
X886Y480D01*
X886Y482D01*
X884Y482D01*
X884Y484D01*
X882Y484D01*
X882Y486D01*
X880Y486D01*
X880Y488D01*
X878Y488D01*
X878Y490D01*
X876Y490D01*
X876Y492D01*
X874Y492D01*
X874Y494D01*
X872Y494D01*
X872Y496D01*
X870Y496D01*
X870Y498D01*
X868Y498D01*
X868Y500D01*
X866Y500D01*
X866Y502D01*
X864Y502D01*
X864Y504D01*
X862Y504D01*
X862Y506D01*
X860Y506D01*
X860Y508D01*
X858Y508D01*
X858Y510D01*
X856Y510D01*
X856Y512D01*
X854Y512D01*
X854Y514D01*
X852Y514D01*
X852Y516D01*
X850Y516D01*
X850Y518D01*
X848Y518D01*
X848Y520D01*
X846Y520D01*
X846Y522D01*
X844Y522D01*
X844Y524D01*
X842Y524D01*
X842Y526D01*
X840Y526D01*
X840Y528D01*
X838Y528D01*
X838Y530D01*
X836Y530D01*
X836Y532D01*
X834Y532D01*
X834Y534D01*
X832Y534D01*
X832Y536D01*
X830Y536D01*
X830Y538D01*
X828Y538D01*
X828Y540D01*
X826Y540D01*
X826Y542D01*
X824Y542D01*
X824Y544D01*
X822Y544D01*
X822Y546D01*
X820Y546D01*
X820Y548D01*
X818Y548D01*
X818Y550D01*
X816Y550D01*
X816Y552D01*
X814Y552D01*
X814Y554D01*
X812Y554D01*
X812Y556D01*
X810Y556D01*
X810Y558D01*
X808Y558D01*
X808Y560D01*
X806Y560D01*
X806Y562D01*
X804Y562D01*
X804Y564D01*
X802Y564D01*
X802Y566D01*
X800Y566D01*
X800Y568D01*
X798Y568D01*
X798Y570D01*
X796Y570D01*
X796Y572D01*
X794Y572D01*
X794Y574D01*
X792Y574D01*
X792Y576D01*
X790Y576D01*
X790Y578D01*
X788Y578D01*
X788Y580D01*
X786Y580D01*
X786Y582D01*
X784Y582D01*
X784Y584D01*
X782Y584D01*
X782Y586D01*
X780Y586D01*
X780Y588D01*
X778Y588D01*
X778Y590D01*
X776Y590D01*
X776Y592D01*
X774Y592D01*
X774Y594D01*
X772Y594D01*
X772Y596D01*
X770Y596D01*
X770Y598D01*
X768Y598D01*
X768Y600D01*
X766Y600D01*
X766Y602D01*
X764Y602D01*
X764Y604D01*
X762Y604D01*
X762Y606D01*
X760Y606D01*
X760Y608D01*
X758Y608D01*
X758Y610D01*
X756Y610D01*
X756Y612D01*
X754Y612D01*
X754Y614D01*
X752Y614D01*
X752Y616D01*
X750Y616D01*
X750Y618D01*
X748Y618D01*
X748Y620D01*
X746Y620D01*
X746Y622D01*
X744Y622D01*
X744Y624D01*
X742Y624D01*
X742Y626D01*
X740Y626D01*
X740Y628D01*
X738Y628D01*
X738Y630D01*
X736Y630D01*
X736Y632D01*
X734Y632D01*
X734Y634D01*
X732Y634D01*
X732Y636D01*
X730Y636D01*
X730Y638D01*
X728Y638D01*
X728Y640D01*
X726Y640D01*
X726Y642D01*
X724Y642D01*
X724Y644D01*
X722Y644D01*
X722Y646D01*
X720Y646D01*
X720Y648D01*
X718Y648D01*
X718Y650D01*
X716Y650D01*
X716Y652D01*
X714Y652D01*
X714Y654D01*
X712Y654D01*
X712Y656D01*
X710Y656D01*
X710Y658D01*
X708Y658D01*
X708Y660D01*
X706Y660D01*
X706Y662D01*
X704Y662D01*
X704Y664D01*
X702Y664D01*
X702Y666D01*
X700Y666D01*
X700Y668D01*
X698Y668D01*
X698Y670D01*
X696Y670D01*
X696Y672D01*
X694Y672D01*
X694Y674D01*
X692Y674D01*
X692Y676D01*
X690Y676D01*
X690Y678D01*
X688Y678D01*
X688Y680D01*
X686Y680D01*
X686Y682D01*
X684Y682D01*
X684Y684D01*
X682Y684D01*
X682Y686D01*
X680Y686D01*
X680Y688D01*
X678Y688D01*
X678Y690D01*
X676Y690D01*
X676Y692D01*
X674Y692D01*
X674Y694D01*
X672Y694D01*
X672Y696D01*
X670Y696D01*
X670Y698D01*
X668Y698D01*
X668Y700D01*
X666Y700D01*
X666Y702D01*
X664Y702D01*
X664Y704D01*
X662Y704D01*
X662Y706D01*
X660Y706D01*
X660Y708D01*
X658Y708D01*
X658Y710D01*
X656Y710D01*
X656Y712D01*
X654Y712D01*
X654Y714D01*
X652Y714D01*
X652Y716D01*
X650Y716D01*
X650Y718D01*
X648Y718D01*
X648Y720D01*
X646Y720D01*
X646Y722D01*
X644Y722D01*
X644Y724D01*
X642Y724D01*
X642Y726D01*
X640Y726D01*
X640Y728D01*
X638Y728D01*
X638Y730D01*
X636Y730D01*
X636Y732D01*
X634Y732D01*
X634Y734D01*
X632Y734D01*
X632Y736D01*
X630Y736D01*
X630Y738D01*
X628Y738D01*
X628Y740D01*
X626Y740D01*
X626Y742D01*
X624Y742D01*
X624Y744D01*
X622Y744D01*
X622Y746D01*
X620Y746D01*
X620Y748D01*
X618Y748D01*
X618Y750D01*
X616Y750D01*
X616Y752D01*
X614Y752D01*
X614Y754D01*
X612Y754D01*
X612Y756D01*
X610Y756D01*
X610Y758D01*
X608Y758D01*
X608Y760D01*
X606Y760D01*
X606Y762D01*
X604Y762D01*
X604Y764D01*
X602Y764D01*
X602Y766D01*
X600Y766D01*
X600Y768D01*
X598Y768D01*
X598Y770D01*
X596Y770D01*
X596Y772D01*
X594Y772D01*
X594Y774D01*
X592Y774D01*
X592Y776D01*
X590Y776D01*
X590Y778D01*
X588Y778D01*
X588Y780D01*
X586Y780D01*
X586Y782D01*
X584Y782D01*
X584Y784D01*
X582Y784D01*
X582Y786D01*
X580Y786D01*
X580Y788D01*
X578Y788D01*
X578Y790D01*
X576Y790D01*
X576Y792D01*
X574Y792D01*
X574Y794D01*
X572Y794D01*
X572Y796D01*
X570Y796D01*
X570Y798D01*
X568Y798D01*
X568Y800D01*
X566Y800D01*
X566Y802D01*
X564Y802D01*
X564Y804D01*
X562Y804D01*
X562Y806D01*
X560Y806D01*
X560Y808D01*
X558Y808D01*
X558Y810D01*
X556Y810D01*
X556Y812D01*
X554Y812D01*
X554Y814D01*
X552Y814D01*
X552Y816D01*
X550Y816D01*
X550Y818D01*
X548Y818D01*
X548Y820D01*
X546Y820D01*
X546Y822D01*
X544Y822D01*
X544Y824D01*
X542Y824D01*
X542Y826D01*
X540Y826D01*
X540Y828D01*
X538Y828D01*
X538Y830D01*
X536Y830D01*
X536Y832D01*
X534Y832D01*
X534Y834D01*
X532Y834D01*
X532Y836D01*
X530Y836D01*
X530Y838D01*
X528Y838D01*
X528Y840D01*
X526Y840D01*
X526Y842D01*
X524Y842D01*
X524Y844D01*
X522Y844D01*
X522Y846D01*
X520Y846D01*
X520Y848D01*
X518Y848D01*
X518Y850D01*
X516Y850D01*
X516Y852D01*
X514Y852D01*
X514Y854D01*
X512Y854D01*
X512Y856D01*
X510Y856D01*
X510Y858D01*
X508Y858D01*
X508Y860D01*
X506Y860D01*
X506Y862D01*
X504Y862D01*
X504Y864D01*
X502Y864D01*
X502Y866D01*
X500Y866D01*
X500Y868D01*
X498Y868D01*
X498Y870D01*
X496Y870D01*
X496Y874D01*
X494Y874D01*
X494Y878D01*
X492Y878D01*
X492Y924D01*
X490Y924D01*
X490Y1024D01*
X42Y1024D01*
G37*
D02*
G36*
X3300Y1024D02*
X3300Y876D01*
X3660Y876D01*
X3660Y878D01*
X3654Y878D01*
X3654Y880D01*
X3648Y880D01*
X3648Y882D01*
X3644Y882D01*
X3644Y884D01*
X3642Y884D01*
X3642Y886D01*
X3638Y886D01*
X3638Y888D01*
X3636Y888D01*
X3636Y890D01*
X3634Y890D01*
X3634Y892D01*
X3632Y892D01*
X3632Y894D01*
X3628Y894D01*
X3628Y896D01*
X3626Y896D01*
X3626Y898D01*
X3624Y898D01*
X3624Y902D01*
X3622Y902D01*
X3622Y904D01*
X3620Y904D01*
X3620Y906D01*
X3618Y906D01*
X3618Y910D01*
X3616Y910D01*
X3616Y912D01*
X3614Y912D01*
X3614Y916D01*
X3612Y916D01*
X3612Y920D01*
X3610Y920D01*
X3610Y926D01*
X3608Y926D01*
X3608Y952D01*
X3610Y952D01*
X3610Y958D01*
X3612Y958D01*
X3612Y962D01*
X3614Y962D01*
X3614Y966D01*
X3616Y966D01*
X3616Y970D01*
X3618Y970D01*
X3618Y972D01*
X3620Y972D01*
X3620Y974D01*
X3622Y974D01*
X3622Y976D01*
X3624Y976D01*
X3624Y980D01*
X3626Y980D01*
X3626Y982D01*
X3628Y982D01*
X3628Y984D01*
X3630Y984D01*
X3630Y986D01*
X3634Y986D01*
X3634Y988D01*
X3636Y988D01*
X3636Y990D01*
X3638Y990D01*
X3638Y992D01*
X3640Y992D01*
X3640Y1024D01*
X3300Y1024D01*
G37*
D02*
G36*
X3700Y1024D02*
X3700Y1002D01*
X3882Y1002D01*
X3882Y1000D01*
X3888Y1000D01*
X3888Y998D01*
X3892Y998D01*
X3892Y996D01*
X3896Y996D01*
X3896Y994D01*
X3900Y994D01*
X3900Y992D01*
X3902Y992D01*
X3902Y990D01*
X3906Y990D01*
X3906Y988D01*
X3908Y988D01*
X3908Y986D01*
X3910Y986D01*
X3910Y984D01*
X3912Y984D01*
X3912Y982D01*
X3914Y982D01*
X3914Y980D01*
X3916Y980D01*
X3916Y978D01*
X3918Y978D01*
X3918Y976D01*
X3920Y976D01*
X3920Y974D01*
X3922Y974D01*
X3922Y970D01*
X3924Y970D01*
X3924Y968D01*
X3926Y968D01*
X3926Y964D01*
X3928Y964D01*
X3928Y960D01*
X3930Y960D01*
X3930Y954D01*
X3932Y954D01*
X3932Y946D01*
X3934Y946D01*
X3934Y932D01*
X3932Y932D01*
X3932Y924D01*
X3930Y924D01*
X3930Y918D01*
X3928Y918D01*
X3928Y914D01*
X3926Y914D01*
X3926Y910D01*
X3924Y910D01*
X3924Y908D01*
X3922Y908D01*
X3922Y904D01*
X3920Y904D01*
X3920Y902D01*
X3918Y902D01*
X3918Y900D01*
X3916Y900D01*
X3916Y898D01*
X3914Y898D01*
X3914Y896D01*
X3912Y896D01*
X3912Y894D01*
X3910Y894D01*
X3910Y892D01*
X3908Y892D01*
X3908Y890D01*
X3906Y890D01*
X3906Y888D01*
X3902Y888D01*
X3902Y886D01*
X3900Y886D01*
X3900Y884D01*
X3896Y884D01*
X3896Y882D01*
X3892Y882D01*
X3892Y880D01*
X3888Y880D01*
X3888Y878D01*
X3880Y878D01*
X3880Y876D01*
X3990Y876D01*
X3990Y1024D01*
X3700Y1024D01*
G37*
D02*
G36*
X3700Y1002D02*
X3700Y992D01*
X3702Y992D01*
X3702Y990D01*
X3706Y990D01*
X3706Y988D01*
X3708Y988D01*
X3708Y986D01*
X3710Y986D01*
X3710Y984D01*
X3712Y984D01*
X3712Y982D01*
X3714Y982D01*
X3714Y980D01*
X3716Y980D01*
X3716Y978D01*
X3718Y978D01*
X3718Y976D01*
X3720Y976D01*
X3720Y974D01*
X3722Y974D01*
X3722Y970D01*
X3724Y970D01*
X3724Y968D01*
X3726Y968D01*
X3726Y964D01*
X3728Y964D01*
X3728Y960D01*
X3730Y960D01*
X3730Y954D01*
X3732Y954D01*
X3732Y946D01*
X3734Y946D01*
X3734Y932D01*
X3732Y932D01*
X3732Y924D01*
X3730Y924D01*
X3730Y918D01*
X3728Y918D01*
X3728Y914D01*
X3726Y914D01*
X3726Y910D01*
X3724Y910D01*
X3724Y908D01*
X3722Y908D01*
X3722Y904D01*
X3720Y904D01*
X3720Y902D01*
X3718Y902D01*
X3718Y900D01*
X3716Y900D01*
X3716Y898D01*
X3714Y898D01*
X3714Y896D01*
X3712Y896D01*
X3712Y894D01*
X3710Y894D01*
X3710Y892D01*
X3708Y892D01*
X3708Y890D01*
X3706Y890D01*
X3706Y888D01*
X3702Y888D01*
X3702Y886D01*
X3700Y886D01*
X3700Y884D01*
X3696Y884D01*
X3696Y882D01*
X3692Y882D01*
X3692Y880D01*
X3688Y880D01*
X3688Y878D01*
X3680Y878D01*
X3680Y876D01*
X3860Y876D01*
X3860Y878D01*
X3854Y878D01*
X3854Y880D01*
X3848Y880D01*
X3848Y882D01*
X3844Y882D01*
X3844Y884D01*
X3842Y884D01*
X3842Y886D01*
X3838Y886D01*
X3838Y888D01*
X3836Y888D01*
X3836Y890D01*
X3834Y890D01*
X3834Y892D01*
X3832Y892D01*
X3832Y894D01*
X3828Y894D01*
X3828Y896D01*
X3826Y896D01*
X3826Y898D01*
X3824Y898D01*
X3824Y902D01*
X3822Y902D01*
X3822Y904D01*
X3820Y904D01*
X3820Y906D01*
X3818Y906D01*
X3818Y910D01*
X3816Y910D01*
X3816Y912D01*
X3814Y912D01*
X3814Y916D01*
X3812Y916D01*
X3812Y920D01*
X3810Y920D01*
X3810Y926D01*
X3808Y926D01*
X3808Y952D01*
X3810Y952D01*
X3810Y958D01*
X3812Y958D01*
X3812Y962D01*
X3814Y962D01*
X3814Y966D01*
X3816Y966D01*
X3816Y970D01*
X3818Y970D01*
X3818Y972D01*
X3820Y972D01*
X3820Y974D01*
X3822Y974D01*
X3822Y976D01*
X3824Y976D01*
X3824Y980D01*
X3826Y980D01*
X3826Y982D01*
X3828Y982D01*
X3828Y984D01*
X3830Y984D01*
X3830Y986D01*
X3834Y986D01*
X3834Y988D01*
X3836Y988D01*
X3836Y990D01*
X3838Y990D01*
X3838Y992D01*
X3842Y992D01*
X3842Y994D01*
X3844Y994D01*
X3844Y996D01*
X3848Y996D01*
X3848Y998D01*
X3854Y998D01*
X3854Y1000D01*
X3860Y1000D01*
X3860Y1002D01*
X3700Y1002D01*
G37*
D02*
G36*
X3300Y876D02*
X3300Y874D01*
X3990Y874D01*
X3990Y876D01*
X3300Y876D01*
G37*
D02*
G36*
X3300Y876D02*
X3300Y874D01*
X3990Y874D01*
X3990Y876D01*
X3300Y876D01*
G37*
D02*
G36*
X3300Y876D02*
X3300Y874D01*
X3990Y874D01*
X3990Y876D01*
X3300Y876D01*
G37*
D02*
G36*
X3300Y874D02*
X3300Y434D01*
X3298Y434D01*
X3298Y426D01*
X3296Y426D01*
X3296Y422D01*
X3294Y422D01*
X3294Y420D01*
X3292Y420D01*
X3292Y418D01*
X3290Y418D01*
X3290Y416D01*
X3288Y416D01*
X3288Y414D01*
X3286Y414D01*
X3286Y412D01*
X3284Y412D01*
X3284Y410D01*
X3282Y410D01*
X3282Y408D01*
X3280Y408D01*
X3280Y406D01*
X3278Y406D01*
X3278Y404D01*
X3276Y404D01*
X3276Y402D01*
X3274Y402D01*
X3274Y400D01*
X3272Y400D01*
X3272Y398D01*
X3270Y398D01*
X3270Y396D01*
X3268Y396D01*
X3268Y394D01*
X3266Y394D01*
X3266Y392D01*
X3264Y392D01*
X3264Y390D01*
X3262Y390D01*
X3262Y388D01*
X3260Y388D01*
X3260Y386D01*
X3258Y386D01*
X3258Y384D01*
X3256Y384D01*
X3256Y382D01*
X3254Y382D01*
X3254Y380D01*
X3252Y380D01*
X3252Y378D01*
X3250Y378D01*
X3250Y376D01*
X3248Y376D01*
X3248Y374D01*
X3246Y374D01*
X3246Y372D01*
X3244Y372D01*
X3244Y370D01*
X3242Y370D01*
X3242Y368D01*
X3240Y368D01*
X3240Y366D01*
X3238Y366D01*
X3238Y364D01*
X3236Y364D01*
X3236Y362D01*
X3234Y362D01*
X3234Y360D01*
X3232Y360D01*
X3232Y358D01*
X3230Y358D01*
X3230Y356D01*
X3228Y356D01*
X3228Y354D01*
X3226Y354D01*
X3226Y352D01*
X3224Y352D01*
X3224Y350D01*
X3222Y350D01*
X3222Y348D01*
X3220Y348D01*
X3220Y346D01*
X3218Y346D01*
X3218Y344D01*
X3216Y344D01*
X3216Y342D01*
X3214Y342D01*
X3214Y340D01*
X3212Y340D01*
X3212Y338D01*
X3210Y338D01*
X3210Y336D01*
X3208Y336D01*
X3208Y334D01*
X3206Y334D01*
X3206Y332D01*
X3204Y332D01*
X3204Y330D01*
X3202Y330D01*
X3202Y328D01*
X3200Y328D01*
X3200Y326D01*
X3198Y326D01*
X3198Y324D01*
X3196Y324D01*
X3196Y322D01*
X3194Y322D01*
X3194Y320D01*
X3192Y320D01*
X3192Y318D01*
X3190Y318D01*
X3190Y316D01*
X3188Y316D01*
X3188Y314D01*
X3184Y314D01*
X3184Y312D01*
X3178Y312D01*
X3178Y310D01*
X2952Y310D01*
X2952Y290D01*
X2956Y290D01*
X2956Y288D01*
X2958Y288D01*
X2958Y286D01*
X2960Y286D01*
X2960Y284D01*
X2962Y284D01*
X2962Y282D01*
X2964Y282D01*
X2964Y280D01*
X2966Y280D01*
X2966Y278D01*
X2968Y278D01*
X2968Y276D01*
X2970Y276D01*
X2970Y274D01*
X2972Y274D01*
X2972Y270D01*
X2974Y270D01*
X2974Y268D01*
X2976Y268D01*
X2976Y264D01*
X2978Y264D01*
X2978Y260D01*
X2980Y260D01*
X2980Y254D01*
X2982Y254D01*
X2982Y246D01*
X2984Y246D01*
X2984Y232D01*
X2982Y232D01*
X2982Y224D01*
X2980Y224D01*
X2980Y220D01*
X3932Y220D01*
X3932Y218D01*
X3940Y218D01*
X3940Y216D01*
X3946Y216D01*
X3946Y214D01*
X3952Y214D01*
X3952Y212D01*
X3956Y212D01*
X3956Y210D01*
X3960Y210D01*
X3960Y208D01*
X3962Y208D01*
X3962Y206D01*
X3966Y206D01*
X3966Y204D01*
X3968Y204D01*
X3968Y202D01*
X3970Y202D01*
X3970Y200D01*
X3990Y200D01*
X3990Y874D01*
X3300Y874D01*
G37*
D02*
G36*
X2002Y310D02*
X2002Y290D01*
X2006Y290D01*
X2006Y288D01*
X2008Y288D01*
X2008Y286D01*
X2010Y286D01*
X2010Y284D01*
X2012Y284D01*
X2012Y282D01*
X2014Y282D01*
X2014Y280D01*
X2016Y280D01*
X2016Y278D01*
X2018Y278D01*
X2018Y276D01*
X2020Y276D01*
X2020Y274D01*
X2022Y274D01*
X2022Y270D01*
X2024Y270D01*
X2024Y268D01*
X2026Y268D01*
X2026Y264D01*
X2028Y264D01*
X2028Y260D01*
X2030Y260D01*
X2030Y254D01*
X2032Y254D01*
X2032Y246D01*
X2034Y246D01*
X2034Y232D01*
X2032Y232D01*
X2032Y224D01*
X2030Y224D01*
X2030Y218D01*
X2028Y218D01*
X2028Y214D01*
X2026Y214D01*
X2026Y210D01*
X2024Y210D01*
X2024Y208D01*
X2022Y208D01*
X2022Y204D01*
X2020Y204D01*
X2020Y202D01*
X2018Y202D01*
X2018Y200D01*
X2016Y200D01*
X2016Y198D01*
X2014Y198D01*
X2014Y196D01*
X2012Y196D01*
X2012Y194D01*
X2010Y194D01*
X2010Y192D01*
X2008Y192D01*
X2008Y190D01*
X2006Y190D01*
X2006Y188D01*
X2002Y188D01*
X2002Y186D01*
X2000Y186D01*
X2000Y184D01*
X1996Y184D01*
X1996Y182D01*
X1992Y182D01*
X1992Y180D01*
X1988Y180D01*
X1988Y178D01*
X1980Y178D01*
X1980Y176D01*
X2910Y176D01*
X2910Y178D01*
X2904Y178D01*
X2904Y180D01*
X2898Y180D01*
X2898Y182D01*
X2894Y182D01*
X2894Y184D01*
X2892Y184D01*
X2892Y186D01*
X2888Y186D01*
X2888Y188D01*
X2886Y188D01*
X2886Y190D01*
X2884Y190D01*
X2884Y192D01*
X2882Y192D01*
X2882Y194D01*
X2878Y194D01*
X2878Y196D01*
X2876Y196D01*
X2876Y198D01*
X2874Y198D01*
X2874Y202D01*
X2872Y202D01*
X2872Y204D01*
X2870Y204D01*
X2870Y206D01*
X2868Y206D01*
X2868Y210D01*
X2866Y210D01*
X2866Y212D01*
X2864Y212D01*
X2864Y216D01*
X2862Y216D01*
X2862Y220D01*
X2860Y220D01*
X2860Y226D01*
X2858Y226D01*
X2858Y252D01*
X2860Y252D01*
X2860Y258D01*
X2862Y258D01*
X2862Y262D01*
X2864Y262D01*
X2864Y266D01*
X2866Y266D01*
X2866Y270D01*
X2868Y270D01*
X2868Y272D01*
X2870Y272D01*
X2870Y274D01*
X2872Y274D01*
X2872Y276D01*
X2874Y276D01*
X2874Y280D01*
X2876Y280D01*
X2876Y282D01*
X2878Y282D01*
X2878Y284D01*
X2880Y284D01*
X2880Y286D01*
X2884Y286D01*
X2884Y288D01*
X2886Y288D01*
X2886Y290D01*
X2888Y290D01*
X2888Y310D01*
X2002Y310D01*
G37*
D02*
G36*
X42Y302D02*
X42Y220D01*
X132Y220D01*
X132Y218D01*
X140Y218D01*
X140Y216D01*
X146Y216D01*
X146Y214D01*
X152Y214D01*
X152Y212D01*
X156Y212D01*
X156Y210D01*
X160Y210D01*
X160Y208D01*
X162Y208D01*
X162Y206D01*
X166Y206D01*
X166Y204D01*
X168Y204D01*
X168Y202D01*
X170Y202D01*
X170Y200D01*
X172Y200D01*
X172Y198D01*
X176Y198D01*
X176Y196D01*
X178Y196D01*
X178Y192D01*
X180Y192D01*
X180Y190D01*
X182Y190D01*
X182Y188D01*
X184Y188D01*
X184Y186D01*
X186Y186D01*
X186Y184D01*
X188Y184D01*
X188Y180D01*
X190Y180D01*
X190Y176D01*
X1010Y176D01*
X1010Y178D01*
X1004Y178D01*
X1004Y180D01*
X998Y180D01*
X998Y182D01*
X994Y182D01*
X994Y184D01*
X992Y184D01*
X992Y186D01*
X988Y186D01*
X988Y188D01*
X986Y188D01*
X986Y190D01*
X984Y190D01*
X984Y192D01*
X982Y192D01*
X982Y194D01*
X978Y194D01*
X978Y196D01*
X976Y196D01*
X976Y198D01*
X974Y198D01*
X974Y202D01*
X972Y202D01*
X972Y204D01*
X970Y204D01*
X970Y206D01*
X968Y206D01*
X968Y210D01*
X966Y210D01*
X966Y212D01*
X964Y212D01*
X964Y216D01*
X962Y216D01*
X962Y220D01*
X960Y220D01*
X960Y226D01*
X958Y226D01*
X958Y252D01*
X960Y252D01*
X960Y258D01*
X962Y258D01*
X962Y262D01*
X964Y262D01*
X964Y266D01*
X966Y266D01*
X966Y270D01*
X968Y270D01*
X968Y272D01*
X970Y272D01*
X970Y274D01*
X972Y274D01*
X972Y276D01*
X974Y276D01*
X974Y280D01*
X976Y280D01*
X976Y282D01*
X978Y282D01*
X978Y284D01*
X980Y284D01*
X980Y286D01*
X984Y286D01*
X984Y288D01*
X986Y288D01*
X986Y290D01*
X988Y290D01*
X988Y292D01*
X992Y292D01*
X992Y294D01*
X994Y294D01*
X994Y296D01*
X998Y296D01*
X998Y298D01*
X1004Y298D01*
X1004Y300D01*
X1010Y300D01*
X1010Y302D01*
X42Y302D01*
G37*
D02*
G36*
X42Y220D02*
X42Y192D01*
X62Y192D01*
X62Y194D01*
X64Y194D01*
X64Y196D01*
X66Y196D01*
X66Y198D01*
X68Y198D01*
X68Y200D01*
X70Y200D01*
X70Y202D01*
X72Y202D01*
X72Y204D01*
X76Y204D01*
X76Y206D01*
X78Y206D01*
X78Y208D01*
X82Y208D01*
X82Y210D01*
X86Y210D01*
X86Y212D01*
X90Y212D01*
X90Y214D01*
X94Y214D01*
X94Y216D01*
X100Y216D01*
X100Y218D01*
X110Y218D01*
X110Y220D01*
X42Y220D01*
G37*
D02*
G36*
X2980Y220D02*
X2980Y218D01*
X2978Y218D01*
X2978Y214D01*
X2976Y214D01*
X2976Y210D01*
X2974Y210D01*
X2974Y208D01*
X2972Y208D01*
X2972Y204D01*
X2970Y204D01*
X2970Y202D01*
X2968Y202D01*
X2968Y200D01*
X2966Y200D01*
X2966Y198D01*
X2964Y198D01*
X2964Y196D01*
X2962Y196D01*
X2962Y194D01*
X2960Y194D01*
X2960Y192D01*
X2958Y192D01*
X2958Y190D01*
X2956Y190D01*
X2956Y188D01*
X2952Y188D01*
X2952Y186D01*
X2950Y186D01*
X2950Y184D01*
X2946Y184D01*
X2946Y182D01*
X2942Y182D01*
X2942Y180D01*
X2938Y180D01*
X2938Y178D01*
X2930Y178D01*
X2930Y176D01*
X3850Y176D01*
X3850Y178D01*
X3852Y178D01*
X3852Y182D01*
X3854Y182D01*
X3854Y184D01*
X3856Y184D01*
X3856Y188D01*
X3858Y188D01*
X3858Y190D01*
X3860Y190D01*
X3860Y192D01*
X3862Y192D01*
X3862Y194D01*
X3864Y194D01*
X3864Y196D01*
X3866Y196D01*
X3866Y198D01*
X3868Y198D01*
X3868Y200D01*
X3870Y200D01*
X3870Y202D01*
X3872Y202D01*
X3872Y204D01*
X3876Y204D01*
X3876Y206D01*
X3878Y206D01*
X3878Y208D01*
X3882Y208D01*
X3882Y210D01*
X3886Y210D01*
X3886Y212D01*
X3890Y212D01*
X3890Y214D01*
X3894Y214D01*
X3894Y216D01*
X3900Y216D01*
X3900Y218D01*
X3910Y218D01*
X3910Y220D01*
X2980Y220D01*
G37*
D02*
G36*
X192Y176D02*
X192Y174D01*
X3848Y174D01*
X3848Y176D01*
X192Y176D01*
G37*
D02*
G36*
X192Y176D02*
X192Y174D01*
X3848Y174D01*
X3848Y176D01*
X192Y176D01*
G37*
D02*
G36*
X192Y176D02*
X192Y174D01*
X3848Y174D01*
X3848Y176D01*
X192Y176D01*
G37*
D02*
G36*
X192Y176D02*
X192Y174D01*
X3848Y174D01*
X3848Y176D01*
X192Y176D01*
G37*
D02*
G36*
X192Y174D02*
X192Y172D01*
X194Y172D01*
X194Y168D01*
X196Y168D01*
X196Y164D01*
X198Y164D01*
X198Y158D01*
X200Y158D01*
X200Y146D01*
X202Y146D01*
X202Y132D01*
X200Y132D01*
X200Y120D01*
X198Y120D01*
X198Y114D01*
X196Y114D01*
X196Y110D01*
X194Y110D01*
X194Y106D01*
X192Y106D01*
X192Y102D01*
X190Y102D01*
X190Y98D01*
X188Y98D01*
X188Y94D01*
X186Y94D01*
X186Y92D01*
X184Y92D01*
X184Y90D01*
X182Y90D01*
X182Y88D01*
X180Y88D01*
X180Y86D01*
X178Y86D01*
X178Y82D01*
X174Y82D01*
X174Y80D01*
X172Y80D01*
X172Y78D01*
X170Y78D01*
X170Y76D01*
X168Y76D01*
X168Y74D01*
X166Y74D01*
X166Y72D01*
X162Y72D01*
X162Y70D01*
X160Y70D01*
X160Y68D01*
X156Y68D01*
X156Y66D01*
X152Y66D01*
X152Y64D01*
X146Y64D01*
X146Y62D01*
X140Y62D01*
X140Y60D01*
X132Y60D01*
X132Y40D01*
X3910Y40D01*
X3910Y60D01*
X3900Y60D01*
X3900Y62D01*
X3894Y62D01*
X3894Y64D01*
X3890Y64D01*
X3890Y66D01*
X3886Y66D01*
X3886Y68D01*
X3882Y68D01*
X3882Y70D01*
X3878Y70D01*
X3878Y72D01*
X3876Y72D01*
X3876Y74D01*
X3874Y74D01*
X3874Y76D01*
X3870Y76D01*
X3870Y78D01*
X3868Y78D01*
X3868Y80D01*
X3866Y80D01*
X3866Y82D01*
X3864Y82D01*
X3864Y84D01*
X3862Y84D01*
X3862Y86D01*
X3860Y86D01*
X3860Y88D01*
X3858Y88D01*
X3858Y90D01*
X3856Y90D01*
X3856Y94D01*
X3854Y94D01*
X3854Y96D01*
X3852Y96D01*
X3852Y100D01*
X3850Y100D01*
X3850Y102D01*
X3848Y102D01*
X3848Y106D01*
X3846Y106D01*
X3846Y112D01*
X3844Y112D01*
X3844Y118D01*
X3842Y118D01*
X3842Y124D01*
X3840Y124D01*
X3840Y154D01*
X3842Y154D01*
X3842Y162D01*
X3844Y162D01*
X3844Y166D01*
X3846Y166D01*
X3846Y172D01*
X3848Y172D01*
X3848Y174D01*
X192Y174D01*
G37*
D02*
G36*
X1648Y1260D02*
X1648Y1258D01*
X1632Y1258D01*
X1632Y1256D01*
X1630Y1256D01*
X1630Y1254D01*
X1628Y1254D01*
X1628Y1252D01*
X1626Y1252D01*
X1626Y1250D01*
X1624Y1250D01*
X1624Y1248D01*
X1622Y1248D01*
X1622Y1246D01*
X1620Y1246D01*
X1620Y1244D01*
X1618Y1244D01*
X1618Y1242D01*
X1616Y1242D01*
X1616Y1240D01*
X1614Y1240D01*
X1614Y1238D01*
X1612Y1238D01*
X1612Y1236D01*
X1610Y1236D01*
X1610Y1234D01*
X1608Y1234D01*
X1608Y1232D01*
X1606Y1232D01*
X1606Y1230D01*
X1604Y1230D01*
X1604Y1228D01*
X1602Y1228D01*
X1602Y1226D01*
X1600Y1226D01*
X1600Y1224D01*
X1598Y1224D01*
X1598Y1222D01*
X1596Y1222D01*
X1596Y1220D01*
X1594Y1220D01*
X1594Y1218D01*
X1592Y1218D01*
X1592Y1216D01*
X1590Y1216D01*
X1590Y1214D01*
X1588Y1214D01*
X1588Y1212D01*
X1586Y1212D01*
X1586Y1210D01*
X1584Y1210D01*
X1584Y1208D01*
X1582Y1208D01*
X1582Y1206D01*
X1580Y1206D01*
X1580Y1204D01*
X1578Y1204D01*
X1578Y1202D01*
X1576Y1202D01*
X1576Y1200D01*
X1574Y1200D01*
X1574Y1198D01*
X1572Y1198D01*
X1572Y1196D01*
X1570Y1196D01*
X1570Y1194D01*
X1568Y1194D01*
X1568Y1192D01*
X1566Y1192D01*
X1566Y1190D01*
X1564Y1190D01*
X1564Y1188D01*
X1562Y1188D01*
X1562Y1186D01*
X1560Y1186D01*
X1560Y1184D01*
X1558Y1184D01*
X1558Y1182D01*
X1556Y1182D01*
X1556Y1180D01*
X1554Y1180D01*
X1554Y1178D01*
X1552Y1178D01*
X1552Y1176D01*
X1550Y1176D01*
X1550Y1174D01*
X1548Y1174D01*
X1548Y1172D01*
X1546Y1172D01*
X1546Y1170D01*
X1544Y1170D01*
X1544Y1168D01*
X1542Y1168D01*
X1542Y1166D01*
X1540Y1166D01*
X1540Y1164D01*
X1538Y1164D01*
X1538Y1162D01*
X1536Y1162D01*
X1536Y1160D01*
X1534Y1160D01*
X1534Y1158D01*
X1532Y1158D01*
X1532Y1156D01*
X1530Y1156D01*
X1530Y1154D01*
X1528Y1154D01*
X1528Y1152D01*
X2332Y1152D01*
X2332Y1150D01*
X2338Y1150D01*
X2338Y1148D01*
X2342Y1148D01*
X2342Y1146D01*
X2346Y1146D01*
X2346Y1144D01*
X2350Y1144D01*
X2350Y1142D01*
X2352Y1142D01*
X2352Y1140D01*
X2356Y1140D01*
X2356Y1138D01*
X2358Y1138D01*
X2358Y1136D01*
X2360Y1136D01*
X2360Y1134D01*
X2380Y1134D01*
X2380Y1136D01*
X2384Y1136D01*
X2384Y1138D01*
X2386Y1138D01*
X2386Y1140D01*
X2388Y1140D01*
X2388Y1142D01*
X2390Y1142D01*
X2390Y1260D01*
X1648Y1260D01*
G37*
D02*
G36*
X1526Y1152D02*
X1526Y1150D01*
X1524Y1150D01*
X1524Y1148D01*
X1522Y1148D01*
X1522Y1146D01*
X1520Y1146D01*
X1520Y1142D01*
X1542Y1142D01*
X1542Y1144D01*
X1544Y1144D01*
X1544Y1146D01*
X1548Y1146D01*
X1548Y1148D01*
X1554Y1148D01*
X1554Y1150D01*
X1560Y1150D01*
X1560Y1152D01*
X1526Y1152D01*
G37*
D02*
G36*
X1582Y1152D02*
X1582Y1150D01*
X1588Y1150D01*
X1588Y1148D01*
X1592Y1148D01*
X1592Y1146D01*
X1596Y1146D01*
X1596Y1144D01*
X1600Y1144D01*
X1600Y1142D01*
X1602Y1142D01*
X1602Y1140D01*
X1606Y1140D01*
X1606Y1138D01*
X1608Y1138D01*
X1608Y1136D01*
X1610Y1136D01*
X1610Y1134D01*
X1630Y1134D01*
X1630Y1136D01*
X1634Y1136D01*
X1634Y1138D01*
X1636Y1138D01*
X1636Y1140D01*
X1638Y1140D01*
X1638Y1142D01*
X1642Y1142D01*
X1642Y1144D01*
X1644Y1144D01*
X1644Y1146D01*
X1648Y1146D01*
X1648Y1148D01*
X1654Y1148D01*
X1654Y1150D01*
X1660Y1150D01*
X1660Y1152D01*
X1582Y1152D01*
G37*
D02*
G36*
X1682Y1152D02*
X1682Y1150D01*
X1688Y1150D01*
X1688Y1148D01*
X1692Y1148D01*
X1692Y1146D01*
X1696Y1146D01*
X1696Y1144D01*
X1700Y1144D01*
X1700Y1142D01*
X1702Y1142D01*
X1702Y1140D01*
X1706Y1140D01*
X1706Y1138D01*
X1708Y1138D01*
X1708Y1136D01*
X1710Y1136D01*
X1710Y1134D01*
X1730Y1134D01*
X1730Y1136D01*
X1734Y1136D01*
X1734Y1138D01*
X1736Y1138D01*
X1736Y1140D01*
X1738Y1140D01*
X1738Y1142D01*
X1742Y1142D01*
X1742Y1144D01*
X1744Y1144D01*
X1744Y1146D01*
X1748Y1146D01*
X1748Y1148D01*
X1754Y1148D01*
X1754Y1150D01*
X1760Y1150D01*
X1760Y1152D01*
X1682Y1152D01*
G37*
D02*
G36*
X1782Y1152D02*
X1782Y1150D01*
X1788Y1150D01*
X1788Y1148D01*
X1792Y1148D01*
X1792Y1146D01*
X1796Y1146D01*
X1796Y1144D01*
X1800Y1144D01*
X1800Y1142D01*
X1802Y1142D01*
X1802Y1140D01*
X1806Y1140D01*
X1806Y1138D01*
X1808Y1138D01*
X1808Y1136D01*
X1810Y1136D01*
X1810Y1134D01*
X1830Y1134D01*
X1830Y1136D01*
X1834Y1136D01*
X1834Y1138D01*
X1836Y1138D01*
X1836Y1140D01*
X1838Y1140D01*
X1838Y1142D01*
X1842Y1142D01*
X1842Y1144D01*
X1844Y1144D01*
X1844Y1146D01*
X1848Y1146D01*
X1848Y1148D01*
X1854Y1148D01*
X1854Y1150D01*
X1860Y1150D01*
X1860Y1152D01*
X1782Y1152D01*
G37*
D02*
G36*
X1882Y1152D02*
X1882Y1150D01*
X1888Y1150D01*
X1888Y1148D01*
X1892Y1148D01*
X1892Y1146D01*
X1896Y1146D01*
X1896Y1144D01*
X1900Y1144D01*
X1900Y1142D01*
X1902Y1142D01*
X1902Y1140D01*
X1906Y1140D01*
X1906Y1138D01*
X1908Y1138D01*
X1908Y1136D01*
X1910Y1136D01*
X1910Y1134D01*
X1930Y1134D01*
X1930Y1136D01*
X1934Y1136D01*
X1934Y1138D01*
X1936Y1138D01*
X1936Y1140D01*
X1938Y1140D01*
X1938Y1142D01*
X1942Y1142D01*
X1942Y1144D01*
X1944Y1144D01*
X1944Y1146D01*
X1948Y1146D01*
X1948Y1148D01*
X1954Y1148D01*
X1954Y1150D01*
X1960Y1150D01*
X1960Y1152D01*
X1882Y1152D01*
G37*
D02*
G36*
X1982Y1152D02*
X1982Y1150D01*
X1988Y1150D01*
X1988Y1148D01*
X1992Y1148D01*
X1992Y1146D01*
X1996Y1146D01*
X1996Y1144D01*
X2000Y1144D01*
X2000Y1142D01*
X2002Y1142D01*
X2002Y1140D01*
X2006Y1140D01*
X2006Y1138D01*
X2008Y1138D01*
X2008Y1136D01*
X2010Y1136D01*
X2010Y1134D01*
X2012Y1134D01*
X2012Y1132D01*
X2014Y1132D01*
X2014Y1130D01*
X2016Y1130D01*
X2016Y1128D01*
X2018Y1128D01*
X2018Y1126D01*
X2020Y1126D01*
X2020Y1124D01*
X2022Y1124D01*
X2022Y1120D01*
X2024Y1120D01*
X2024Y1118D01*
X2026Y1118D01*
X2026Y1114D01*
X2028Y1114D01*
X2028Y1110D01*
X2030Y1110D01*
X2030Y1104D01*
X2032Y1104D01*
X2032Y1096D01*
X2034Y1096D01*
X2034Y1082D01*
X2032Y1082D01*
X2032Y1074D01*
X2030Y1074D01*
X2030Y1068D01*
X2028Y1068D01*
X2028Y1064D01*
X2026Y1064D01*
X2026Y1060D01*
X2024Y1060D01*
X2024Y1058D01*
X2022Y1058D01*
X2022Y1054D01*
X2020Y1054D01*
X2020Y1052D01*
X2018Y1052D01*
X2018Y1050D01*
X2016Y1050D01*
X2016Y1048D01*
X2014Y1048D01*
X2014Y1046D01*
X2012Y1046D01*
X2012Y1044D01*
X2010Y1044D01*
X2010Y1042D01*
X2008Y1042D01*
X2008Y1040D01*
X2006Y1040D01*
X2006Y1038D01*
X2002Y1038D01*
X2002Y1036D01*
X2000Y1036D01*
X2000Y1034D01*
X1996Y1034D01*
X1996Y1032D01*
X1992Y1032D01*
X1992Y1030D01*
X1988Y1030D01*
X1988Y1028D01*
X1980Y1028D01*
X1980Y1026D01*
X2158Y1026D01*
X2158Y1152D01*
X1982Y1152D01*
G37*
D02*
G36*
X2284Y1152D02*
X2284Y1148D01*
X2304Y1148D01*
X2304Y1150D01*
X2310Y1150D01*
X2310Y1152D01*
X2284Y1152D01*
G37*
D02*
G36*
X1810Y1044D02*
X1810Y1042D01*
X1808Y1042D01*
X1808Y1040D01*
X1806Y1040D01*
X1806Y1038D01*
X1802Y1038D01*
X1802Y1036D01*
X1800Y1036D01*
X1800Y1026D01*
X1860Y1026D01*
X1860Y1028D01*
X1854Y1028D01*
X1854Y1030D01*
X1848Y1030D01*
X1848Y1032D01*
X1844Y1032D01*
X1844Y1034D01*
X1842Y1034D01*
X1842Y1036D01*
X1838Y1036D01*
X1838Y1038D01*
X1836Y1038D01*
X1836Y1040D01*
X1834Y1040D01*
X1834Y1042D01*
X1832Y1042D01*
X1832Y1044D01*
X1810Y1044D01*
G37*
D02*
G36*
X1910Y1044D02*
X1910Y1042D01*
X1908Y1042D01*
X1908Y1040D01*
X1906Y1040D01*
X1906Y1038D01*
X1902Y1038D01*
X1902Y1036D01*
X1900Y1036D01*
X1900Y1034D01*
X1896Y1034D01*
X1896Y1032D01*
X1892Y1032D01*
X1892Y1030D01*
X1888Y1030D01*
X1888Y1028D01*
X1880Y1028D01*
X1880Y1026D01*
X1960Y1026D01*
X1960Y1028D01*
X1954Y1028D01*
X1954Y1030D01*
X1948Y1030D01*
X1948Y1032D01*
X1944Y1032D01*
X1944Y1034D01*
X1942Y1034D01*
X1942Y1036D01*
X1938Y1036D01*
X1938Y1038D01*
X1936Y1038D01*
X1936Y1040D01*
X1934Y1040D01*
X1934Y1042D01*
X1932Y1042D01*
X1932Y1044D01*
X1910Y1044D01*
G37*
D02*
G36*
X1800Y1026D02*
X1800Y1024D01*
X2190Y1024D01*
X2190Y1026D01*
X1800Y1026D01*
G37*
D02*
G36*
X1800Y1026D02*
X1800Y1024D01*
X2190Y1024D01*
X2190Y1026D01*
X1800Y1026D01*
G37*
D02*
G36*
X1800Y1026D02*
X1800Y1024D01*
X2190Y1024D01*
X2190Y1026D01*
X1800Y1026D01*
G37*
D02*
G36*
X1800Y1024D02*
X1800Y1002D01*
X1982Y1002D01*
X1982Y1000D01*
X1988Y1000D01*
X1988Y998D01*
X1992Y998D01*
X1992Y996D01*
X1996Y996D01*
X1996Y994D01*
X2000Y994D01*
X2000Y992D01*
X2002Y992D01*
X2002Y990D01*
X2006Y990D01*
X2006Y988D01*
X2008Y988D01*
X2008Y986D01*
X2010Y986D01*
X2010Y984D01*
X2012Y984D01*
X2012Y982D01*
X2014Y982D01*
X2014Y980D01*
X2016Y980D01*
X2016Y978D01*
X2018Y978D01*
X2018Y976D01*
X2020Y976D01*
X2020Y974D01*
X2022Y974D01*
X2022Y970D01*
X2024Y970D01*
X2024Y968D01*
X2026Y968D01*
X2026Y964D01*
X2028Y964D01*
X2028Y960D01*
X2030Y960D01*
X2030Y954D01*
X2032Y954D01*
X2032Y946D01*
X2034Y946D01*
X2034Y932D01*
X2032Y932D01*
X2032Y924D01*
X2030Y924D01*
X2030Y918D01*
X2028Y918D01*
X2028Y914D01*
X2026Y914D01*
X2026Y910D01*
X2024Y910D01*
X2024Y908D01*
X2022Y908D01*
X2022Y904D01*
X2020Y904D01*
X2020Y902D01*
X2018Y902D01*
X2018Y900D01*
X2016Y900D01*
X2016Y898D01*
X2014Y898D01*
X2014Y896D01*
X2012Y896D01*
X2012Y894D01*
X2010Y894D01*
X2010Y892D01*
X2008Y892D01*
X2008Y890D01*
X2006Y890D01*
X2006Y888D01*
X2002Y888D01*
X2002Y886D01*
X2000Y886D01*
X2000Y884D01*
X1996Y884D01*
X1996Y882D01*
X1992Y882D01*
X1992Y880D01*
X1988Y880D01*
X1988Y878D01*
X1980Y878D01*
X1980Y876D01*
X2288Y876D01*
X2288Y878D01*
X2286Y878D01*
X2286Y880D01*
X2284Y880D01*
X2284Y882D01*
X2282Y882D01*
X2282Y884D01*
X2280Y884D01*
X2280Y886D01*
X2278Y886D01*
X2278Y888D01*
X2276Y888D01*
X2276Y890D01*
X2274Y890D01*
X2274Y892D01*
X2272Y892D01*
X2272Y894D01*
X2270Y894D01*
X2270Y896D01*
X2268Y896D01*
X2268Y898D01*
X2266Y898D01*
X2266Y900D01*
X2264Y900D01*
X2264Y902D01*
X2262Y902D01*
X2262Y904D01*
X2260Y904D01*
X2260Y906D01*
X2258Y906D01*
X2258Y908D01*
X2256Y908D01*
X2256Y910D01*
X2254Y910D01*
X2254Y912D01*
X2252Y912D01*
X2252Y914D01*
X2250Y914D01*
X2250Y916D01*
X2248Y916D01*
X2248Y918D01*
X2246Y918D01*
X2246Y920D01*
X2244Y920D01*
X2244Y922D01*
X2242Y922D01*
X2242Y924D01*
X2240Y924D01*
X2240Y926D01*
X2238Y926D01*
X2238Y928D01*
X2236Y928D01*
X2236Y930D01*
X2234Y930D01*
X2234Y932D01*
X2232Y932D01*
X2232Y934D01*
X2230Y934D01*
X2230Y936D01*
X2228Y936D01*
X2228Y938D01*
X2226Y938D01*
X2226Y940D01*
X2224Y940D01*
X2224Y942D01*
X2222Y942D01*
X2222Y944D01*
X2220Y944D01*
X2220Y946D01*
X2218Y946D01*
X2218Y948D01*
X2216Y948D01*
X2216Y950D01*
X2214Y950D01*
X2214Y952D01*
X2212Y952D01*
X2212Y954D01*
X2210Y954D01*
X2210Y956D01*
X2208Y956D01*
X2208Y958D01*
X2206Y958D01*
X2206Y960D01*
X2204Y960D01*
X2204Y962D01*
X2202Y962D01*
X2202Y964D01*
X2200Y964D01*
X2200Y966D01*
X2198Y966D01*
X2198Y968D01*
X2196Y968D01*
X2196Y970D01*
X2194Y970D01*
X2194Y974D01*
X2192Y974D01*
X2192Y978D01*
X2190Y978D01*
X2190Y1024D01*
X1800Y1024D01*
G37*
D02*
G36*
X1800Y1002D02*
X1800Y992D01*
X1802Y992D01*
X1802Y990D01*
X1806Y990D01*
X1806Y988D01*
X1808Y988D01*
X1808Y986D01*
X1810Y986D01*
X1810Y984D01*
X1812Y984D01*
X1812Y982D01*
X1814Y982D01*
X1814Y980D01*
X1816Y980D01*
X1816Y978D01*
X1818Y978D01*
X1818Y976D01*
X1820Y976D01*
X1820Y974D01*
X1822Y974D01*
X1822Y970D01*
X1824Y970D01*
X1824Y968D01*
X1826Y968D01*
X1826Y964D01*
X1828Y964D01*
X1828Y960D01*
X1830Y960D01*
X1830Y954D01*
X1832Y954D01*
X1832Y946D01*
X1834Y946D01*
X1834Y932D01*
X1832Y932D01*
X1832Y924D01*
X1830Y924D01*
X1830Y918D01*
X1828Y918D01*
X1828Y914D01*
X1826Y914D01*
X1826Y910D01*
X1824Y910D01*
X1824Y908D01*
X1822Y908D01*
X1822Y904D01*
X1820Y904D01*
X1820Y902D01*
X1818Y902D01*
X1818Y900D01*
X1816Y900D01*
X1816Y898D01*
X1814Y898D01*
X1814Y896D01*
X1812Y896D01*
X1812Y894D01*
X1810Y894D01*
X1810Y892D01*
X1808Y892D01*
X1808Y890D01*
X1806Y890D01*
X1806Y888D01*
X1802Y888D01*
X1802Y886D01*
X1800Y886D01*
X1800Y884D01*
X1796Y884D01*
X1796Y882D01*
X1792Y882D01*
X1792Y880D01*
X1788Y880D01*
X1788Y878D01*
X1780Y878D01*
X1780Y876D01*
X1960Y876D01*
X1960Y878D01*
X1954Y878D01*
X1954Y880D01*
X1948Y880D01*
X1948Y882D01*
X1944Y882D01*
X1944Y884D01*
X1942Y884D01*
X1942Y886D01*
X1938Y886D01*
X1938Y888D01*
X1936Y888D01*
X1936Y890D01*
X1934Y890D01*
X1934Y892D01*
X1932Y892D01*
X1932Y894D01*
X1928Y894D01*
X1928Y896D01*
X1926Y896D01*
X1926Y898D01*
X1924Y898D01*
X1924Y902D01*
X1922Y902D01*
X1922Y904D01*
X1920Y904D01*
X1920Y906D01*
X1918Y906D01*
X1918Y910D01*
X1916Y910D01*
X1916Y912D01*
X1914Y912D01*
X1914Y916D01*
X1912Y916D01*
X1912Y920D01*
X1910Y920D01*
X1910Y926D01*
X1908Y926D01*
X1908Y952D01*
X1910Y952D01*
X1910Y958D01*
X1912Y958D01*
X1912Y962D01*
X1914Y962D01*
X1914Y966D01*
X1916Y966D01*
X1916Y970D01*
X1918Y970D01*
X1918Y972D01*
X1920Y972D01*
X1920Y974D01*
X1922Y974D01*
X1922Y976D01*
X1924Y976D01*
X1924Y980D01*
X1926Y980D01*
X1926Y982D01*
X1928Y982D01*
X1928Y984D01*
X1930Y984D01*
X1930Y986D01*
X1934Y986D01*
X1934Y988D01*
X1936Y988D01*
X1936Y990D01*
X1938Y990D01*
X1938Y992D01*
X1942Y992D01*
X1942Y994D01*
X1944Y994D01*
X1944Y996D01*
X1948Y996D01*
X1948Y998D01*
X1954Y998D01*
X1954Y1000D01*
X1960Y1000D01*
X1960Y1002D01*
X1800Y1002D01*
G37*
D02*
G36*
X1600Y906D02*
X1600Y900D01*
X1602Y900D01*
X1602Y898D01*
X1604Y898D01*
X1604Y896D01*
X1606Y896D01*
X1606Y894D01*
X1608Y894D01*
X1608Y892D01*
X1610Y892D01*
X1610Y890D01*
X1612Y890D01*
X1612Y888D01*
X1614Y888D01*
X1614Y886D01*
X1616Y886D01*
X1616Y884D01*
X1618Y884D01*
X1618Y882D01*
X1620Y882D01*
X1620Y880D01*
X1622Y880D01*
X1622Y878D01*
X1624Y878D01*
X1624Y876D01*
X1660Y876D01*
X1660Y878D01*
X1654Y878D01*
X1654Y880D01*
X1648Y880D01*
X1648Y882D01*
X1644Y882D01*
X1644Y884D01*
X1642Y884D01*
X1642Y886D01*
X1638Y886D01*
X1638Y888D01*
X1636Y888D01*
X1636Y890D01*
X1634Y890D01*
X1634Y892D01*
X1632Y892D01*
X1632Y894D01*
X1628Y894D01*
X1628Y896D01*
X1626Y896D01*
X1626Y898D01*
X1624Y898D01*
X1624Y902D01*
X1622Y902D01*
X1622Y904D01*
X1620Y904D01*
X1620Y906D01*
X1600Y906D01*
G37*
D02*
G36*
X1710Y894D02*
X1710Y892D01*
X1708Y892D01*
X1708Y890D01*
X1706Y890D01*
X1706Y888D01*
X1702Y888D01*
X1702Y886D01*
X1700Y886D01*
X1700Y884D01*
X1696Y884D01*
X1696Y882D01*
X1692Y882D01*
X1692Y880D01*
X1688Y880D01*
X1688Y878D01*
X1680Y878D01*
X1680Y876D01*
X1760Y876D01*
X1760Y878D01*
X1754Y878D01*
X1754Y880D01*
X1748Y880D01*
X1748Y882D01*
X1744Y882D01*
X1744Y884D01*
X1742Y884D01*
X1742Y886D01*
X1738Y886D01*
X1738Y888D01*
X1736Y888D01*
X1736Y890D01*
X1734Y890D01*
X1734Y892D01*
X1732Y892D01*
X1732Y894D01*
X1710Y894D01*
G37*
D02*
G36*
X1626Y876D02*
X1626Y874D01*
X2290Y874D01*
X2290Y876D01*
X1626Y876D01*
G37*
D02*
G36*
X1626Y876D02*
X1626Y874D01*
X2290Y874D01*
X2290Y876D01*
X1626Y876D01*
G37*
D02*
G36*
X1626Y876D02*
X1626Y874D01*
X2290Y874D01*
X2290Y876D01*
X1626Y876D01*
G37*
D02*
G36*
X1626Y876D02*
X1626Y874D01*
X2290Y874D01*
X2290Y876D01*
X1626Y876D01*
G37*
D02*
G36*
X1628Y874D02*
X1628Y872D01*
X1630Y872D01*
X1630Y870D01*
X1632Y870D01*
X1632Y868D01*
X1634Y868D01*
X1634Y866D01*
X1636Y866D01*
X1636Y864D01*
X1638Y864D01*
X1638Y862D01*
X1640Y862D01*
X1640Y860D01*
X1642Y860D01*
X1642Y858D01*
X1644Y858D01*
X1644Y856D01*
X1646Y856D01*
X1646Y854D01*
X1648Y854D01*
X1648Y852D01*
X1650Y852D01*
X1650Y850D01*
X1652Y850D01*
X1652Y848D01*
X1654Y848D01*
X1654Y846D01*
X1656Y846D01*
X1656Y844D01*
X1658Y844D01*
X1658Y842D01*
X1660Y842D01*
X1660Y840D01*
X1662Y840D01*
X1662Y838D01*
X1664Y838D01*
X1664Y836D01*
X1666Y836D01*
X1666Y834D01*
X1668Y834D01*
X1668Y832D01*
X1670Y832D01*
X1670Y830D01*
X1672Y830D01*
X1672Y828D01*
X1674Y828D01*
X1674Y826D01*
X1676Y826D01*
X1676Y824D01*
X1678Y824D01*
X1678Y822D01*
X1680Y822D01*
X1680Y820D01*
X1682Y820D01*
X1682Y818D01*
X1684Y818D01*
X1684Y816D01*
X1686Y816D01*
X1686Y814D01*
X1688Y814D01*
X1688Y812D01*
X1690Y812D01*
X1690Y810D01*
X1692Y810D01*
X1692Y808D01*
X1694Y808D01*
X1694Y806D01*
X1696Y806D01*
X1696Y804D01*
X1698Y804D01*
X1698Y802D01*
X1700Y802D01*
X1700Y800D01*
X1702Y800D01*
X1702Y798D01*
X1704Y798D01*
X1704Y796D01*
X1706Y796D01*
X1706Y794D01*
X1708Y794D01*
X1708Y792D01*
X1710Y792D01*
X1710Y790D01*
X1712Y790D01*
X1712Y788D01*
X1714Y788D01*
X1714Y786D01*
X1716Y786D01*
X1716Y784D01*
X1718Y784D01*
X1718Y782D01*
X1720Y782D01*
X1720Y780D01*
X1722Y780D01*
X1722Y778D01*
X1724Y778D01*
X1724Y776D01*
X1726Y776D01*
X1726Y774D01*
X1728Y774D01*
X1728Y772D01*
X1730Y772D01*
X1730Y770D01*
X1732Y770D01*
X1732Y768D01*
X1734Y768D01*
X1734Y766D01*
X1736Y766D01*
X1736Y764D01*
X1738Y764D01*
X1738Y762D01*
X1740Y762D01*
X1740Y760D01*
X1742Y760D01*
X1742Y758D01*
X1744Y758D01*
X1744Y756D01*
X1746Y756D01*
X1746Y754D01*
X1748Y754D01*
X1748Y752D01*
X1750Y752D01*
X1750Y750D01*
X1752Y750D01*
X1752Y748D01*
X1754Y748D01*
X1754Y746D01*
X1756Y746D01*
X1756Y744D01*
X1758Y744D01*
X1758Y742D01*
X1760Y742D01*
X1760Y740D01*
X1762Y740D01*
X1762Y738D01*
X1764Y738D01*
X1764Y736D01*
X1766Y736D01*
X1766Y734D01*
X1768Y734D01*
X1768Y732D01*
X1770Y732D01*
X1770Y730D01*
X1772Y730D01*
X1772Y728D01*
X1774Y728D01*
X1774Y726D01*
X1776Y726D01*
X1776Y724D01*
X1778Y724D01*
X1778Y722D01*
X1780Y722D01*
X1780Y720D01*
X1782Y720D01*
X1782Y718D01*
X1784Y718D01*
X1784Y716D01*
X1786Y716D01*
X1786Y714D01*
X1788Y714D01*
X1788Y712D01*
X1790Y712D01*
X1790Y710D01*
X1792Y710D01*
X1792Y708D01*
X1794Y708D01*
X1794Y706D01*
X1796Y706D01*
X1796Y704D01*
X1798Y704D01*
X1798Y702D01*
X1800Y702D01*
X1800Y700D01*
X1802Y700D01*
X1802Y698D01*
X1804Y698D01*
X1804Y696D01*
X1806Y696D01*
X1806Y694D01*
X1808Y694D01*
X1808Y692D01*
X1810Y692D01*
X1810Y690D01*
X1812Y690D01*
X1812Y688D01*
X1814Y688D01*
X1814Y686D01*
X1816Y686D01*
X1816Y684D01*
X1818Y684D01*
X1818Y682D01*
X1820Y682D01*
X1820Y680D01*
X1822Y680D01*
X1822Y678D01*
X1824Y678D01*
X1824Y676D01*
X1826Y676D01*
X1826Y674D01*
X1828Y674D01*
X1828Y672D01*
X1830Y672D01*
X1830Y670D01*
X1832Y670D01*
X1832Y668D01*
X1834Y668D01*
X1834Y666D01*
X1836Y666D01*
X1836Y664D01*
X1838Y664D01*
X1838Y662D01*
X1840Y662D01*
X1840Y660D01*
X1842Y660D01*
X1842Y658D01*
X1844Y658D01*
X1844Y656D01*
X1846Y656D01*
X1846Y654D01*
X1848Y654D01*
X1848Y652D01*
X1850Y652D01*
X1850Y650D01*
X1852Y650D01*
X1852Y648D01*
X1854Y648D01*
X1854Y646D01*
X1856Y646D01*
X1856Y644D01*
X1858Y644D01*
X1858Y642D01*
X1860Y642D01*
X1860Y640D01*
X1862Y640D01*
X1862Y638D01*
X1864Y638D01*
X1864Y636D01*
X1866Y636D01*
X1866Y634D01*
X1868Y634D01*
X1868Y632D01*
X1870Y632D01*
X1870Y630D01*
X1872Y630D01*
X1872Y628D01*
X1874Y628D01*
X1874Y626D01*
X1876Y626D01*
X1876Y624D01*
X1878Y624D01*
X1878Y622D01*
X1880Y622D01*
X1880Y620D01*
X1882Y620D01*
X1882Y618D01*
X1884Y618D01*
X1884Y616D01*
X1886Y616D01*
X1886Y614D01*
X1888Y614D01*
X1888Y612D01*
X1890Y612D01*
X1890Y610D01*
X1892Y610D01*
X1892Y608D01*
X1894Y608D01*
X1894Y606D01*
X1896Y606D01*
X1896Y604D01*
X1898Y604D01*
X1898Y602D01*
X1900Y602D01*
X1900Y600D01*
X1902Y600D01*
X1902Y598D01*
X1904Y598D01*
X1904Y596D01*
X1906Y596D01*
X1906Y594D01*
X1908Y594D01*
X1908Y592D01*
X1910Y592D01*
X1910Y590D01*
X1912Y590D01*
X1912Y588D01*
X1914Y588D01*
X1914Y586D01*
X1916Y586D01*
X1916Y584D01*
X1918Y584D01*
X1918Y582D01*
X1920Y582D01*
X1920Y580D01*
X1922Y580D01*
X1922Y578D01*
X1924Y578D01*
X1924Y576D01*
X1926Y576D01*
X1926Y574D01*
X1928Y574D01*
X1928Y572D01*
X1930Y572D01*
X1930Y570D01*
X2728Y570D01*
X2728Y572D01*
X2730Y572D01*
X2730Y574D01*
X2732Y574D01*
X2732Y578D01*
X2736Y578D01*
X2736Y600D01*
X2734Y600D01*
X2734Y602D01*
X2732Y602D01*
X2732Y604D01*
X2730Y604D01*
X2730Y606D01*
X2728Y606D01*
X2728Y608D01*
X2726Y608D01*
X2726Y610D01*
X2564Y610D01*
X2564Y612D01*
X2558Y612D01*
X2558Y614D01*
X2554Y614D01*
X2554Y616D01*
X2552Y616D01*
X2552Y618D01*
X2548Y618D01*
X2548Y620D01*
X2546Y620D01*
X2546Y622D01*
X2544Y622D01*
X2544Y624D01*
X2542Y624D01*
X2542Y626D01*
X2540Y626D01*
X2540Y628D01*
X2538Y628D01*
X2538Y630D01*
X2536Y630D01*
X2536Y632D01*
X2534Y632D01*
X2534Y634D01*
X2532Y634D01*
X2532Y636D01*
X2530Y636D01*
X2530Y638D01*
X2528Y638D01*
X2528Y640D01*
X2526Y640D01*
X2526Y642D01*
X2524Y642D01*
X2524Y644D01*
X2522Y644D01*
X2522Y646D01*
X2520Y646D01*
X2520Y648D01*
X2518Y648D01*
X2518Y650D01*
X2516Y650D01*
X2516Y652D01*
X2514Y652D01*
X2514Y654D01*
X2512Y654D01*
X2512Y656D01*
X2510Y656D01*
X2510Y658D01*
X2508Y658D01*
X2508Y660D01*
X2506Y660D01*
X2506Y662D01*
X2504Y662D01*
X2504Y664D01*
X2502Y664D01*
X2502Y666D01*
X2500Y666D01*
X2500Y668D01*
X2498Y668D01*
X2498Y670D01*
X2496Y670D01*
X2496Y672D01*
X2494Y672D01*
X2494Y674D01*
X2492Y674D01*
X2492Y676D01*
X2490Y676D01*
X2490Y678D01*
X2488Y678D01*
X2488Y680D01*
X2486Y680D01*
X2486Y682D01*
X2484Y682D01*
X2484Y684D01*
X2482Y684D01*
X2482Y686D01*
X2480Y686D01*
X2480Y688D01*
X2478Y688D01*
X2478Y690D01*
X2476Y690D01*
X2476Y692D01*
X2474Y692D01*
X2474Y694D01*
X2472Y694D01*
X2472Y696D01*
X2470Y696D01*
X2470Y698D01*
X2468Y698D01*
X2468Y700D01*
X2466Y700D01*
X2466Y702D01*
X2464Y702D01*
X2464Y704D01*
X2462Y704D01*
X2462Y706D01*
X2460Y706D01*
X2460Y708D01*
X2458Y708D01*
X2458Y710D01*
X2456Y710D01*
X2456Y712D01*
X2454Y712D01*
X2454Y714D01*
X2452Y714D01*
X2452Y716D01*
X2450Y716D01*
X2450Y718D01*
X2448Y718D01*
X2448Y720D01*
X2446Y720D01*
X2446Y722D01*
X2444Y722D01*
X2444Y724D01*
X2442Y724D01*
X2442Y726D01*
X2440Y726D01*
X2440Y728D01*
X2438Y728D01*
X2438Y730D01*
X2436Y730D01*
X2436Y732D01*
X2434Y732D01*
X2434Y734D01*
X2432Y734D01*
X2432Y736D01*
X2430Y736D01*
X2430Y738D01*
X2428Y738D01*
X2428Y740D01*
X2426Y740D01*
X2426Y742D01*
X2424Y742D01*
X2424Y744D01*
X2422Y744D01*
X2422Y746D01*
X2420Y746D01*
X2420Y748D01*
X2418Y748D01*
X2418Y750D01*
X2416Y750D01*
X2416Y752D01*
X2414Y752D01*
X2414Y754D01*
X2412Y754D01*
X2412Y756D01*
X2410Y756D01*
X2410Y758D01*
X2408Y758D01*
X2408Y760D01*
X2406Y760D01*
X2406Y762D01*
X2404Y762D01*
X2404Y764D01*
X2402Y764D01*
X2402Y766D01*
X2400Y766D01*
X2400Y768D01*
X2398Y768D01*
X2398Y770D01*
X2396Y770D01*
X2396Y772D01*
X2394Y772D01*
X2394Y774D01*
X2392Y774D01*
X2392Y776D01*
X2390Y776D01*
X2390Y778D01*
X2388Y778D01*
X2388Y780D01*
X2386Y780D01*
X2386Y782D01*
X2384Y782D01*
X2384Y784D01*
X2382Y784D01*
X2382Y786D01*
X2380Y786D01*
X2380Y788D01*
X2378Y788D01*
X2378Y790D01*
X2376Y790D01*
X2376Y792D01*
X2374Y792D01*
X2374Y794D01*
X2372Y794D01*
X2372Y796D01*
X2370Y796D01*
X2370Y798D01*
X2368Y798D01*
X2368Y800D01*
X2366Y800D01*
X2366Y802D01*
X2364Y802D01*
X2364Y804D01*
X2362Y804D01*
X2362Y806D01*
X2360Y806D01*
X2360Y808D01*
X2358Y808D01*
X2358Y810D01*
X2356Y810D01*
X2356Y812D01*
X2354Y812D01*
X2354Y814D01*
X2350Y814D01*
X2350Y816D01*
X2348Y816D01*
X2348Y818D01*
X2346Y818D01*
X2346Y820D01*
X2344Y820D01*
X2344Y822D01*
X2342Y822D01*
X2342Y824D01*
X2340Y824D01*
X2340Y826D01*
X2338Y826D01*
X2338Y828D01*
X2336Y828D01*
X2336Y830D01*
X2334Y830D01*
X2334Y832D01*
X2332Y832D01*
X2332Y834D01*
X2330Y834D01*
X2330Y836D01*
X2328Y836D01*
X2328Y838D01*
X2326Y838D01*
X2326Y840D01*
X2324Y840D01*
X2324Y842D01*
X2322Y842D01*
X2322Y844D01*
X2320Y844D01*
X2320Y846D01*
X2318Y846D01*
X2318Y848D01*
X2316Y848D01*
X2316Y850D01*
X2314Y850D01*
X2314Y852D01*
X2312Y852D01*
X2312Y854D01*
X2310Y854D01*
X2310Y856D01*
X2308Y856D01*
X2308Y858D01*
X2306Y858D01*
X2306Y860D01*
X2304Y860D01*
X2304Y862D01*
X2302Y862D01*
X2302Y864D01*
X2300Y864D01*
X2300Y866D01*
X2298Y866D01*
X2298Y868D01*
X2296Y868D01*
X2296Y870D01*
X2294Y870D01*
X2294Y872D01*
X2292Y872D01*
X2292Y874D01*
X1628Y874D01*
G37*
D02*
G36*
X2450Y1260D02*
X2450Y1152D01*
X2932Y1152D01*
X2932Y1150D01*
X2938Y1150D01*
X2938Y1148D01*
X2942Y1148D01*
X2942Y1146D01*
X2946Y1146D01*
X2946Y1144D01*
X2950Y1144D01*
X2950Y1142D01*
X2952Y1142D01*
X2952Y1140D01*
X2956Y1140D01*
X2956Y1138D01*
X2958Y1138D01*
X2958Y1136D01*
X2960Y1136D01*
X2960Y1134D01*
X2962Y1134D01*
X2962Y1132D01*
X2964Y1132D01*
X2964Y1130D01*
X2966Y1130D01*
X2966Y1128D01*
X2968Y1128D01*
X2968Y1126D01*
X2970Y1126D01*
X2970Y1124D01*
X2972Y1124D01*
X2972Y1120D01*
X2974Y1120D01*
X2974Y1118D01*
X2976Y1118D01*
X2976Y1114D01*
X2978Y1114D01*
X2978Y1110D01*
X2980Y1110D01*
X2980Y1104D01*
X2982Y1104D01*
X2982Y1096D01*
X2984Y1096D01*
X2984Y1082D01*
X2982Y1082D01*
X2982Y1074D01*
X2980Y1074D01*
X2980Y1068D01*
X2978Y1068D01*
X2978Y1064D01*
X2976Y1064D01*
X2976Y1060D01*
X2974Y1060D01*
X2974Y1058D01*
X2972Y1058D01*
X2972Y1054D01*
X2970Y1054D01*
X2970Y1052D01*
X2968Y1052D01*
X2968Y1050D01*
X2966Y1050D01*
X2966Y1048D01*
X2964Y1048D01*
X2964Y1046D01*
X2962Y1046D01*
X2962Y1044D01*
X2960Y1044D01*
X2960Y1042D01*
X2958Y1042D01*
X2958Y1040D01*
X2956Y1040D01*
X2956Y1038D01*
X2952Y1038D01*
X2952Y1036D01*
X2950Y1036D01*
X2950Y1034D01*
X2946Y1034D01*
X2946Y1032D01*
X2942Y1032D01*
X2942Y1030D01*
X2938Y1030D01*
X2938Y1028D01*
X2930Y1028D01*
X2930Y1026D01*
X3108Y1026D01*
X3108Y1152D01*
X3244Y1152D01*
X3244Y1156D01*
X3246Y1156D01*
X3246Y1158D01*
X3248Y1158D01*
X3248Y1160D01*
X3250Y1160D01*
X3250Y1162D01*
X3252Y1162D01*
X3252Y1164D01*
X3254Y1164D01*
X3254Y1166D01*
X3256Y1166D01*
X3256Y1168D01*
X3258Y1168D01*
X3258Y1170D01*
X3260Y1170D01*
X3260Y1172D01*
X3262Y1172D01*
X3262Y1174D01*
X3264Y1174D01*
X3264Y1176D01*
X3266Y1176D01*
X3266Y1178D01*
X3268Y1178D01*
X3268Y1180D01*
X3270Y1180D01*
X3270Y1182D01*
X3272Y1182D01*
X3272Y1184D01*
X3274Y1184D01*
X3274Y1186D01*
X3276Y1186D01*
X3276Y1188D01*
X3278Y1188D01*
X3278Y1190D01*
X3280Y1190D01*
X3280Y1192D01*
X3282Y1192D01*
X3282Y1194D01*
X3284Y1194D01*
X3284Y1196D01*
X3286Y1196D01*
X3286Y1198D01*
X3288Y1198D01*
X3288Y1200D01*
X3290Y1200D01*
X3290Y1202D01*
X3292Y1202D01*
X3292Y1204D01*
X3294Y1204D01*
X3294Y1206D01*
X3296Y1206D01*
X3296Y1208D01*
X3298Y1208D01*
X3298Y1210D01*
X3300Y1210D01*
X3300Y1212D01*
X3302Y1212D01*
X3302Y1214D01*
X3304Y1214D01*
X3304Y1216D01*
X3306Y1216D01*
X3306Y1218D01*
X3308Y1218D01*
X3308Y1220D01*
X3310Y1220D01*
X3310Y1222D01*
X3312Y1222D01*
X3312Y1224D01*
X3314Y1224D01*
X3314Y1226D01*
X3316Y1226D01*
X3316Y1228D01*
X3318Y1228D01*
X3318Y1230D01*
X3320Y1230D01*
X3320Y1232D01*
X3322Y1232D01*
X3322Y1234D01*
X3324Y1234D01*
X3324Y1236D01*
X3326Y1236D01*
X3326Y1238D01*
X3328Y1238D01*
X3328Y1258D01*
X2998Y1258D01*
X2998Y1260D01*
X2450Y1260D01*
G37*
D02*
G36*
X2450Y1152D02*
X2450Y1142D01*
X2452Y1142D01*
X2452Y1140D01*
X2456Y1140D01*
X2456Y1138D01*
X2458Y1138D01*
X2458Y1136D01*
X2460Y1136D01*
X2460Y1134D01*
X2480Y1134D01*
X2480Y1136D01*
X2484Y1136D01*
X2484Y1138D01*
X2486Y1138D01*
X2486Y1140D01*
X2488Y1140D01*
X2488Y1142D01*
X2492Y1142D01*
X2492Y1144D01*
X2494Y1144D01*
X2494Y1146D01*
X2498Y1146D01*
X2498Y1148D01*
X2504Y1148D01*
X2504Y1150D01*
X2510Y1150D01*
X2510Y1152D01*
X2450Y1152D01*
G37*
D02*
G36*
X2532Y1152D02*
X2532Y1150D01*
X2538Y1150D01*
X2538Y1148D01*
X2542Y1148D01*
X2542Y1146D01*
X2546Y1146D01*
X2546Y1144D01*
X2550Y1144D01*
X2550Y1142D01*
X2552Y1142D01*
X2552Y1140D01*
X2556Y1140D01*
X2556Y1138D01*
X2558Y1138D01*
X2558Y1136D01*
X2560Y1136D01*
X2560Y1134D01*
X2580Y1134D01*
X2580Y1136D01*
X2584Y1136D01*
X2584Y1138D01*
X2586Y1138D01*
X2586Y1140D01*
X2588Y1140D01*
X2588Y1142D01*
X2592Y1142D01*
X2592Y1144D01*
X2594Y1144D01*
X2594Y1146D01*
X2598Y1146D01*
X2598Y1148D01*
X2604Y1148D01*
X2604Y1150D01*
X2610Y1150D01*
X2610Y1152D01*
X2532Y1152D01*
G37*
D02*
G36*
X2632Y1152D02*
X2632Y1150D01*
X2638Y1150D01*
X2638Y1148D01*
X2642Y1148D01*
X2642Y1146D01*
X2646Y1146D01*
X2646Y1144D01*
X2650Y1144D01*
X2650Y1142D01*
X2652Y1142D01*
X2652Y1140D01*
X2656Y1140D01*
X2656Y1138D01*
X2658Y1138D01*
X2658Y1136D01*
X2660Y1136D01*
X2660Y1134D01*
X2680Y1134D01*
X2680Y1136D01*
X2684Y1136D01*
X2684Y1138D01*
X2686Y1138D01*
X2686Y1140D01*
X2688Y1140D01*
X2688Y1142D01*
X2692Y1142D01*
X2692Y1144D01*
X2694Y1144D01*
X2694Y1146D01*
X2698Y1146D01*
X2698Y1148D01*
X2704Y1148D01*
X2704Y1150D01*
X2710Y1150D01*
X2710Y1152D01*
X2632Y1152D01*
G37*
D02*
G36*
X2732Y1152D02*
X2732Y1150D01*
X2738Y1150D01*
X2738Y1148D01*
X2742Y1148D01*
X2742Y1146D01*
X2746Y1146D01*
X2746Y1144D01*
X2750Y1144D01*
X2750Y1142D01*
X2752Y1142D01*
X2752Y1140D01*
X2756Y1140D01*
X2756Y1138D01*
X2758Y1138D01*
X2758Y1136D01*
X2760Y1136D01*
X2760Y1134D01*
X2780Y1134D01*
X2780Y1136D01*
X2784Y1136D01*
X2784Y1138D01*
X2786Y1138D01*
X2786Y1140D01*
X2788Y1140D01*
X2788Y1142D01*
X2792Y1142D01*
X2792Y1144D01*
X2794Y1144D01*
X2794Y1146D01*
X2798Y1146D01*
X2798Y1148D01*
X2804Y1148D01*
X2804Y1150D01*
X2810Y1150D01*
X2810Y1152D01*
X2732Y1152D01*
G37*
D02*
G36*
X2832Y1152D02*
X2832Y1150D01*
X2838Y1150D01*
X2838Y1148D01*
X2842Y1148D01*
X2842Y1146D01*
X2846Y1146D01*
X2846Y1144D01*
X2850Y1144D01*
X2850Y1142D01*
X2852Y1142D01*
X2852Y1140D01*
X2856Y1140D01*
X2856Y1138D01*
X2858Y1138D01*
X2858Y1136D01*
X2860Y1136D01*
X2860Y1134D01*
X2880Y1134D01*
X2880Y1136D01*
X2884Y1136D01*
X2884Y1138D01*
X2886Y1138D01*
X2886Y1140D01*
X2888Y1140D01*
X2888Y1142D01*
X2892Y1142D01*
X2892Y1144D01*
X2894Y1144D01*
X2894Y1146D01*
X2898Y1146D01*
X2898Y1148D01*
X2904Y1148D01*
X2904Y1150D01*
X2910Y1150D01*
X2910Y1152D01*
X2832Y1152D01*
G37*
D02*
G36*
X2760Y1044D02*
X2760Y1042D01*
X2758Y1042D01*
X2758Y1040D01*
X2756Y1040D01*
X2756Y1038D01*
X2752Y1038D01*
X2752Y1036D01*
X2750Y1036D01*
X2750Y1026D01*
X2810Y1026D01*
X2810Y1028D01*
X2804Y1028D01*
X2804Y1030D01*
X2798Y1030D01*
X2798Y1032D01*
X2794Y1032D01*
X2794Y1034D01*
X2792Y1034D01*
X2792Y1036D01*
X2788Y1036D01*
X2788Y1038D01*
X2786Y1038D01*
X2786Y1040D01*
X2784Y1040D01*
X2784Y1042D01*
X2782Y1042D01*
X2782Y1044D01*
X2760Y1044D01*
G37*
D02*
G36*
X2860Y1044D02*
X2860Y1042D01*
X2858Y1042D01*
X2858Y1040D01*
X2856Y1040D01*
X2856Y1038D01*
X2852Y1038D01*
X2852Y1036D01*
X2850Y1036D01*
X2850Y1034D01*
X2846Y1034D01*
X2846Y1032D01*
X2842Y1032D01*
X2842Y1030D01*
X2838Y1030D01*
X2838Y1028D01*
X2830Y1028D01*
X2830Y1026D01*
X2910Y1026D01*
X2910Y1028D01*
X2904Y1028D01*
X2904Y1030D01*
X2898Y1030D01*
X2898Y1032D01*
X2894Y1032D01*
X2894Y1034D01*
X2892Y1034D01*
X2892Y1036D01*
X2888Y1036D01*
X2888Y1038D01*
X2886Y1038D01*
X2886Y1040D01*
X2884Y1040D01*
X2884Y1042D01*
X2882Y1042D01*
X2882Y1044D01*
X2860Y1044D01*
G37*
D02*
G36*
X2750Y1026D02*
X2750Y1024D01*
X3140Y1024D01*
X3140Y1026D01*
X2750Y1026D01*
G37*
D02*
G36*
X2750Y1026D02*
X2750Y1024D01*
X3140Y1024D01*
X3140Y1026D01*
X2750Y1026D01*
G37*
D02*
G36*
X2750Y1026D02*
X2750Y1024D01*
X3140Y1024D01*
X3140Y1026D01*
X2750Y1026D01*
G37*
D02*
G36*
X2750Y1024D02*
X2750Y1002D01*
X2932Y1002D01*
X2932Y1000D01*
X2938Y1000D01*
X2938Y998D01*
X2942Y998D01*
X2942Y996D01*
X2946Y996D01*
X2946Y994D01*
X2950Y994D01*
X2950Y992D01*
X2952Y992D01*
X2952Y990D01*
X2956Y990D01*
X2956Y988D01*
X2958Y988D01*
X2958Y986D01*
X2960Y986D01*
X2960Y984D01*
X2962Y984D01*
X2962Y982D01*
X2964Y982D01*
X2964Y980D01*
X2966Y980D01*
X2966Y978D01*
X2968Y978D01*
X2968Y976D01*
X2970Y976D01*
X2970Y974D01*
X2972Y974D01*
X2972Y970D01*
X2974Y970D01*
X2974Y968D01*
X2976Y968D01*
X2976Y964D01*
X2978Y964D01*
X2978Y960D01*
X2980Y960D01*
X2980Y954D01*
X2982Y954D01*
X2982Y946D01*
X2984Y946D01*
X2984Y932D01*
X2982Y932D01*
X2982Y924D01*
X2980Y924D01*
X2980Y918D01*
X2978Y918D01*
X2978Y914D01*
X2976Y914D01*
X2976Y910D01*
X2974Y910D01*
X2974Y908D01*
X2972Y908D01*
X2972Y904D01*
X2970Y904D01*
X2970Y902D01*
X2968Y902D01*
X2968Y900D01*
X2966Y900D01*
X2966Y898D01*
X2964Y898D01*
X2964Y896D01*
X2962Y896D01*
X2962Y894D01*
X2960Y894D01*
X2960Y892D01*
X2958Y892D01*
X2958Y890D01*
X2956Y890D01*
X2956Y888D01*
X2952Y888D01*
X2952Y886D01*
X2950Y886D01*
X2950Y884D01*
X2946Y884D01*
X2946Y882D01*
X2942Y882D01*
X2942Y880D01*
X2938Y880D01*
X2938Y878D01*
X2930Y878D01*
X2930Y876D01*
X3136Y876D01*
X3136Y878D01*
X3140Y878D01*
X3140Y900D01*
X3138Y900D01*
X3138Y902D01*
X3134Y902D01*
X3134Y904D01*
X3132Y904D01*
X3132Y908D01*
X3130Y908D01*
X3130Y910D01*
X3128Y910D01*
X3128Y912D01*
X3126Y912D01*
X3126Y916D01*
X3124Y916D01*
X3124Y918D01*
X3122Y918D01*
X3122Y922D01*
X3120Y922D01*
X3120Y928D01*
X3118Y928D01*
X3118Y950D01*
X3120Y950D01*
X3120Y956D01*
X3122Y956D01*
X3122Y960D01*
X3124Y960D01*
X3124Y962D01*
X3126Y962D01*
X3126Y966D01*
X3128Y966D01*
X3128Y968D01*
X3130Y968D01*
X3130Y972D01*
X3132Y972D01*
X3132Y974D01*
X3134Y974D01*
X3134Y976D01*
X3136Y976D01*
X3136Y978D01*
X3138Y978D01*
X3138Y980D01*
X3140Y980D01*
X3140Y1024D01*
X2750Y1024D01*
G37*
D02*
G36*
X2750Y1002D02*
X2750Y992D01*
X2752Y992D01*
X2752Y990D01*
X2756Y990D01*
X2756Y988D01*
X2758Y988D01*
X2758Y986D01*
X2760Y986D01*
X2760Y984D01*
X2762Y984D01*
X2762Y982D01*
X2764Y982D01*
X2764Y980D01*
X2766Y980D01*
X2766Y978D01*
X2768Y978D01*
X2768Y976D01*
X2770Y976D01*
X2770Y974D01*
X2772Y974D01*
X2772Y970D01*
X2774Y970D01*
X2774Y968D01*
X2776Y968D01*
X2776Y964D01*
X2778Y964D01*
X2778Y960D01*
X2780Y960D01*
X2780Y954D01*
X2782Y954D01*
X2782Y946D01*
X2784Y946D01*
X2784Y932D01*
X2782Y932D01*
X2782Y924D01*
X2780Y924D01*
X2780Y918D01*
X2778Y918D01*
X2778Y914D01*
X2776Y914D01*
X2776Y910D01*
X2774Y910D01*
X2774Y908D01*
X2772Y908D01*
X2772Y904D01*
X2770Y904D01*
X2770Y902D01*
X2768Y902D01*
X2768Y900D01*
X2766Y900D01*
X2766Y898D01*
X2764Y898D01*
X2764Y896D01*
X2762Y896D01*
X2762Y894D01*
X2760Y894D01*
X2760Y892D01*
X2758Y892D01*
X2758Y890D01*
X2756Y890D01*
X2756Y888D01*
X2752Y888D01*
X2752Y886D01*
X2750Y886D01*
X2750Y884D01*
X2746Y884D01*
X2746Y882D01*
X2742Y882D01*
X2742Y880D01*
X2738Y880D01*
X2738Y878D01*
X2730Y878D01*
X2730Y876D01*
X2910Y876D01*
X2910Y878D01*
X2904Y878D01*
X2904Y880D01*
X2898Y880D01*
X2898Y882D01*
X2894Y882D01*
X2894Y884D01*
X2892Y884D01*
X2892Y886D01*
X2888Y886D01*
X2888Y888D01*
X2886Y888D01*
X2886Y890D01*
X2884Y890D01*
X2884Y892D01*
X2882Y892D01*
X2882Y894D01*
X2878Y894D01*
X2878Y896D01*
X2876Y896D01*
X2876Y898D01*
X2874Y898D01*
X2874Y902D01*
X2872Y902D01*
X2872Y904D01*
X2870Y904D01*
X2870Y906D01*
X2868Y906D01*
X2868Y910D01*
X2866Y910D01*
X2866Y912D01*
X2864Y912D01*
X2864Y916D01*
X2862Y916D01*
X2862Y920D01*
X2860Y920D01*
X2860Y926D01*
X2858Y926D01*
X2858Y952D01*
X2860Y952D01*
X2860Y958D01*
X2862Y958D01*
X2862Y962D01*
X2864Y962D01*
X2864Y966D01*
X2866Y966D01*
X2866Y970D01*
X2868Y970D01*
X2868Y972D01*
X2870Y972D01*
X2870Y974D01*
X2872Y974D01*
X2872Y976D01*
X2874Y976D01*
X2874Y980D01*
X2876Y980D01*
X2876Y982D01*
X2878Y982D01*
X2878Y984D01*
X2880Y984D01*
X2880Y986D01*
X2884Y986D01*
X2884Y988D01*
X2886Y988D01*
X2886Y990D01*
X2888Y990D01*
X2888Y992D01*
X2892Y992D01*
X2892Y994D01*
X2894Y994D01*
X2894Y996D01*
X2898Y996D01*
X2898Y998D01*
X2904Y998D01*
X2904Y1000D01*
X2910Y1000D01*
X2910Y1002D01*
X2750Y1002D01*
G37*
D02*
G36*
X2550Y906D02*
X2550Y898D01*
X2552Y898D01*
X2552Y896D01*
X2554Y896D01*
X2554Y894D01*
X2556Y894D01*
X2556Y892D01*
X2558Y892D01*
X2558Y890D01*
X2560Y890D01*
X2560Y888D01*
X2562Y888D01*
X2562Y886D01*
X2564Y886D01*
X2564Y884D01*
X2566Y884D01*
X2566Y882D01*
X2568Y882D01*
X2568Y880D01*
X2570Y880D01*
X2570Y878D01*
X2572Y878D01*
X2572Y876D01*
X2610Y876D01*
X2610Y878D01*
X2604Y878D01*
X2604Y880D01*
X2598Y880D01*
X2598Y882D01*
X2594Y882D01*
X2594Y884D01*
X2592Y884D01*
X2592Y886D01*
X2588Y886D01*
X2588Y888D01*
X2586Y888D01*
X2586Y890D01*
X2584Y890D01*
X2584Y892D01*
X2582Y892D01*
X2582Y894D01*
X2578Y894D01*
X2578Y896D01*
X2576Y896D01*
X2576Y898D01*
X2574Y898D01*
X2574Y902D01*
X2572Y902D01*
X2572Y904D01*
X2570Y904D01*
X2570Y906D01*
X2550Y906D01*
G37*
D02*
G36*
X2660Y894D02*
X2660Y892D01*
X2658Y892D01*
X2658Y890D01*
X2656Y890D01*
X2656Y888D01*
X2652Y888D01*
X2652Y886D01*
X2650Y886D01*
X2650Y884D01*
X2646Y884D01*
X2646Y882D01*
X2642Y882D01*
X2642Y880D01*
X2638Y880D01*
X2638Y878D01*
X2630Y878D01*
X2630Y876D01*
X2710Y876D01*
X2710Y878D01*
X2704Y878D01*
X2704Y880D01*
X2698Y880D01*
X2698Y882D01*
X2694Y882D01*
X2694Y884D01*
X2692Y884D01*
X2692Y886D01*
X2688Y886D01*
X2688Y888D01*
X2686Y888D01*
X2686Y890D01*
X2684Y890D01*
X2684Y892D01*
X2682Y892D01*
X2682Y894D01*
X2660Y894D01*
G37*
D02*
G36*
X2574Y876D02*
X2574Y874D01*
X3134Y874D01*
X3134Y876D01*
X2574Y876D01*
G37*
D02*
G36*
X2574Y876D02*
X2574Y874D01*
X3134Y874D01*
X3134Y876D01*
X2574Y876D01*
G37*
D02*
G36*
X2574Y876D02*
X2574Y874D01*
X3134Y874D01*
X3134Y876D01*
X2574Y876D01*
G37*
D02*
G36*
X2574Y876D02*
X2574Y874D01*
X3134Y874D01*
X3134Y876D01*
X2574Y876D01*
G37*
D02*
G36*
X2576Y874D02*
X2576Y872D01*
X2578Y872D01*
X2578Y870D01*
X2580Y870D01*
X2580Y868D01*
X2582Y868D01*
X2582Y866D01*
X2584Y866D01*
X2584Y864D01*
X2586Y864D01*
X2586Y862D01*
X2588Y862D01*
X2588Y860D01*
X2590Y860D01*
X2590Y858D01*
X2592Y858D01*
X2592Y856D01*
X2594Y856D01*
X2594Y854D01*
X2596Y854D01*
X2596Y852D01*
X2598Y852D01*
X2598Y850D01*
X2600Y850D01*
X2600Y848D01*
X2602Y848D01*
X2602Y846D01*
X2604Y846D01*
X2604Y844D01*
X2606Y844D01*
X2606Y842D01*
X2608Y842D01*
X2608Y840D01*
X2610Y840D01*
X2610Y838D01*
X2612Y838D01*
X2612Y836D01*
X2614Y836D01*
X2614Y834D01*
X2616Y834D01*
X2616Y832D01*
X2620Y832D01*
X2620Y830D01*
X2622Y830D01*
X2622Y828D01*
X2624Y828D01*
X2624Y826D01*
X2626Y826D01*
X2626Y824D01*
X2628Y824D01*
X2628Y822D01*
X2630Y822D01*
X2630Y820D01*
X2632Y820D01*
X2632Y818D01*
X2634Y818D01*
X2634Y816D01*
X2636Y816D01*
X2636Y814D01*
X2638Y814D01*
X2638Y812D01*
X2640Y812D01*
X2640Y810D01*
X2642Y810D01*
X2642Y808D01*
X2644Y808D01*
X2644Y806D01*
X2646Y806D01*
X2646Y804D01*
X2648Y804D01*
X2648Y802D01*
X2650Y802D01*
X2650Y800D01*
X2652Y800D01*
X2652Y798D01*
X2654Y798D01*
X2654Y796D01*
X2656Y796D01*
X2656Y794D01*
X2782Y794D01*
X2782Y792D01*
X2788Y792D01*
X2788Y790D01*
X2792Y790D01*
X2792Y788D01*
X2794Y788D01*
X2794Y786D01*
X2798Y786D01*
X2798Y784D01*
X2802Y784D01*
X2802Y782D01*
X2804Y782D01*
X2804Y780D01*
X2806Y780D01*
X2806Y778D01*
X2808Y778D01*
X2808Y776D01*
X2810Y776D01*
X2810Y774D01*
X2812Y774D01*
X2812Y772D01*
X2814Y772D01*
X2814Y768D01*
X2816Y768D01*
X2816Y766D01*
X2818Y766D01*
X2818Y762D01*
X2820Y762D01*
X2820Y760D01*
X2822Y760D01*
X2822Y754D01*
X2824Y754D01*
X2824Y748D01*
X2826Y748D01*
X2826Y730D01*
X2824Y730D01*
X2824Y724D01*
X2822Y724D01*
X2822Y720D01*
X2820Y720D01*
X2820Y716D01*
X2818Y716D01*
X2818Y712D01*
X2816Y712D01*
X2816Y710D01*
X2814Y710D01*
X2814Y706D01*
X2812Y706D01*
X2812Y704D01*
X2810Y704D01*
X2810Y702D01*
X2808Y702D01*
X2808Y700D01*
X2806Y700D01*
X2806Y678D01*
X2808Y678D01*
X2808Y676D01*
X2810Y676D01*
X2810Y674D01*
X2812Y674D01*
X2812Y672D01*
X2814Y672D01*
X2814Y668D01*
X2816Y668D01*
X2816Y666D01*
X2818Y666D01*
X2818Y662D01*
X2820Y662D01*
X2820Y660D01*
X2822Y660D01*
X2822Y654D01*
X2824Y654D01*
X2824Y648D01*
X2826Y648D01*
X2826Y630D01*
X2824Y630D01*
X2824Y624D01*
X2822Y624D01*
X2822Y620D01*
X2820Y620D01*
X2820Y616D01*
X2818Y616D01*
X2818Y612D01*
X2816Y612D01*
X2816Y610D01*
X2814Y610D01*
X2814Y606D01*
X2812Y606D01*
X2812Y604D01*
X2810Y604D01*
X2810Y602D01*
X2808Y602D01*
X2808Y600D01*
X2806Y600D01*
X2806Y578D01*
X2808Y578D01*
X2808Y576D01*
X2810Y576D01*
X2810Y574D01*
X2812Y574D01*
X2812Y572D01*
X2814Y572D01*
X2814Y568D01*
X2816Y568D01*
X2816Y566D01*
X2818Y566D01*
X2818Y562D01*
X2820Y562D01*
X2820Y560D01*
X2822Y560D01*
X2822Y554D01*
X2824Y554D01*
X2824Y548D01*
X2826Y548D01*
X2826Y530D01*
X2824Y530D01*
X2824Y524D01*
X2822Y524D01*
X2822Y520D01*
X2820Y520D01*
X2820Y516D01*
X2818Y516D01*
X2818Y512D01*
X2816Y512D01*
X2816Y510D01*
X2814Y510D01*
X2814Y506D01*
X2812Y506D01*
X2812Y504D01*
X2810Y504D01*
X2810Y502D01*
X2808Y502D01*
X2808Y500D01*
X2806Y500D01*
X2806Y478D01*
X2808Y478D01*
X2808Y476D01*
X2810Y476D01*
X2810Y474D01*
X2812Y474D01*
X2812Y472D01*
X2814Y472D01*
X2814Y468D01*
X2816Y468D01*
X2816Y466D01*
X2818Y466D01*
X2818Y462D01*
X2820Y462D01*
X2820Y460D01*
X2822Y460D01*
X2822Y454D01*
X2824Y454D01*
X2824Y448D01*
X2826Y448D01*
X2826Y430D01*
X2824Y430D01*
X2824Y424D01*
X2822Y424D01*
X2822Y420D01*
X2820Y420D01*
X2820Y416D01*
X2818Y416D01*
X2818Y412D01*
X2816Y412D01*
X2816Y410D01*
X2814Y410D01*
X2814Y406D01*
X2812Y406D01*
X2812Y404D01*
X2810Y404D01*
X2810Y402D01*
X2808Y402D01*
X2808Y400D01*
X2806Y400D01*
X2806Y398D01*
X2804Y398D01*
X2804Y396D01*
X2800Y396D01*
X2800Y394D01*
X2798Y394D01*
X2798Y392D01*
X2794Y392D01*
X2794Y390D01*
X2792Y390D01*
X2792Y370D01*
X3150Y370D01*
X3150Y390D01*
X3146Y390D01*
X3146Y392D01*
X3142Y392D01*
X3142Y394D01*
X3140Y394D01*
X3140Y396D01*
X3138Y396D01*
X3138Y398D01*
X3136Y398D01*
X3136Y400D01*
X3134Y400D01*
X3134Y402D01*
X3132Y402D01*
X3132Y404D01*
X3130Y404D01*
X3130Y406D01*
X3128Y406D01*
X3128Y408D01*
X3126Y408D01*
X3126Y410D01*
X3124Y410D01*
X3124Y414D01*
X3122Y414D01*
X3122Y418D01*
X3120Y418D01*
X3120Y422D01*
X3118Y422D01*
X3118Y426D01*
X3116Y426D01*
X3116Y438D01*
X3114Y438D01*
X3114Y440D01*
X3116Y440D01*
X3116Y452D01*
X3118Y452D01*
X3118Y456D01*
X3120Y456D01*
X3120Y460D01*
X3122Y460D01*
X3122Y464D01*
X3124Y464D01*
X3124Y468D01*
X3126Y468D01*
X3126Y470D01*
X3128Y470D01*
X3128Y472D01*
X3130Y472D01*
X3130Y474D01*
X3132Y474D01*
X3132Y478D01*
X3136Y478D01*
X3136Y500D01*
X3134Y500D01*
X3134Y502D01*
X3132Y502D01*
X3132Y504D01*
X3130Y504D01*
X3130Y506D01*
X3128Y506D01*
X3128Y508D01*
X3126Y508D01*
X3126Y510D01*
X3124Y510D01*
X3124Y514D01*
X3122Y514D01*
X3122Y518D01*
X3120Y518D01*
X3120Y522D01*
X3118Y522D01*
X3118Y526D01*
X3116Y526D01*
X3116Y538D01*
X3114Y538D01*
X3114Y540D01*
X3116Y540D01*
X3116Y552D01*
X3118Y552D01*
X3118Y556D01*
X3120Y556D01*
X3120Y560D01*
X3122Y560D01*
X3122Y564D01*
X3124Y564D01*
X3124Y568D01*
X3126Y568D01*
X3126Y570D01*
X3128Y570D01*
X3128Y572D01*
X3130Y572D01*
X3130Y574D01*
X3132Y574D01*
X3132Y578D01*
X3136Y578D01*
X3136Y600D01*
X3134Y600D01*
X3134Y602D01*
X3132Y602D01*
X3132Y604D01*
X3130Y604D01*
X3130Y606D01*
X3128Y606D01*
X3128Y608D01*
X3126Y608D01*
X3126Y610D01*
X3124Y610D01*
X3124Y614D01*
X3122Y614D01*
X3122Y618D01*
X3120Y618D01*
X3120Y622D01*
X3118Y622D01*
X3118Y626D01*
X3116Y626D01*
X3116Y638D01*
X3114Y638D01*
X3114Y640D01*
X3116Y640D01*
X3116Y652D01*
X3118Y652D01*
X3118Y656D01*
X3120Y656D01*
X3120Y660D01*
X3122Y660D01*
X3122Y664D01*
X3124Y664D01*
X3124Y668D01*
X3126Y668D01*
X3126Y670D01*
X3128Y670D01*
X3128Y672D01*
X3130Y672D01*
X3130Y674D01*
X3132Y674D01*
X3132Y678D01*
X3136Y678D01*
X3136Y700D01*
X3134Y700D01*
X3134Y702D01*
X3132Y702D01*
X3132Y704D01*
X3130Y704D01*
X3130Y706D01*
X3128Y706D01*
X3128Y708D01*
X3126Y708D01*
X3126Y710D01*
X3124Y710D01*
X3124Y714D01*
X3122Y714D01*
X3122Y718D01*
X3120Y718D01*
X3120Y722D01*
X3118Y722D01*
X3118Y726D01*
X3116Y726D01*
X3116Y738D01*
X3114Y738D01*
X3114Y740D01*
X3116Y740D01*
X3116Y752D01*
X3118Y752D01*
X3118Y756D01*
X3120Y756D01*
X3120Y760D01*
X3122Y760D01*
X3122Y764D01*
X3124Y764D01*
X3124Y768D01*
X3126Y768D01*
X3126Y770D01*
X3128Y770D01*
X3128Y772D01*
X3130Y772D01*
X3130Y774D01*
X3132Y774D01*
X3132Y778D01*
X3136Y778D01*
X3136Y780D01*
X3138Y780D01*
X3138Y800D01*
X3136Y800D01*
X3136Y802D01*
X3134Y802D01*
X3134Y804D01*
X3132Y804D01*
X3132Y808D01*
X3130Y808D01*
X3130Y810D01*
X3128Y810D01*
X3128Y812D01*
X3126Y812D01*
X3126Y816D01*
X3124Y816D01*
X3124Y818D01*
X3122Y818D01*
X3122Y822D01*
X3120Y822D01*
X3120Y828D01*
X3118Y828D01*
X3118Y850D01*
X3120Y850D01*
X3120Y856D01*
X3122Y856D01*
X3122Y860D01*
X3124Y860D01*
X3124Y862D01*
X3126Y862D01*
X3126Y866D01*
X3128Y866D01*
X3128Y868D01*
X3130Y868D01*
X3130Y872D01*
X3132Y872D01*
X3132Y874D01*
X2576Y874D01*
G37*
D02*
G36*
X2658Y794D02*
X2658Y792D01*
X2660Y792D01*
X2660Y790D01*
X2662Y790D01*
X2662Y788D01*
X2664Y788D01*
X2664Y786D01*
X2666Y786D01*
X2666Y784D01*
X2668Y784D01*
X2668Y782D01*
X2670Y782D01*
X2670Y780D01*
X2672Y780D01*
X2672Y778D01*
X2674Y778D01*
X2674Y776D01*
X2676Y776D01*
X2676Y774D01*
X2678Y774D01*
X2678Y772D01*
X2680Y772D01*
X2680Y770D01*
X2682Y770D01*
X2682Y768D01*
X2726Y768D01*
X2726Y770D01*
X2728Y770D01*
X2728Y772D01*
X2730Y772D01*
X2730Y774D01*
X2732Y774D01*
X2732Y778D01*
X2736Y778D01*
X2736Y780D01*
X2738Y780D01*
X2738Y782D01*
X2740Y782D01*
X2740Y784D01*
X2742Y784D01*
X2742Y786D01*
X2746Y786D01*
X2746Y788D01*
X2750Y788D01*
X2750Y790D01*
X2754Y790D01*
X2754Y792D01*
X2760Y792D01*
X2760Y794D01*
X2658Y794D01*
G37*
D02*
G36*
X1056Y1708D02*
X1056Y1688D01*
X1058Y1688D01*
X1058Y1686D01*
X1060Y1686D01*
X1060Y1684D01*
X1062Y1684D01*
X1062Y1682D01*
X1064Y1682D01*
X1064Y1680D01*
X1066Y1680D01*
X1066Y1678D01*
X1068Y1678D01*
X1068Y1676D01*
X1070Y1676D01*
X1070Y1674D01*
X1072Y1674D01*
X1072Y1670D01*
X1074Y1670D01*
X1074Y1668D01*
X1076Y1668D01*
X1076Y1664D01*
X1078Y1664D01*
X1078Y1660D01*
X1080Y1660D01*
X1080Y1654D01*
X1082Y1654D01*
X1082Y1646D01*
X1084Y1646D01*
X1084Y1632D01*
X1082Y1632D01*
X1082Y1624D01*
X1080Y1624D01*
X1080Y1618D01*
X1078Y1618D01*
X1078Y1614D01*
X1076Y1614D01*
X1076Y1610D01*
X1074Y1610D01*
X1074Y1608D01*
X1072Y1608D01*
X1072Y1604D01*
X1070Y1604D01*
X1070Y1602D01*
X1068Y1602D01*
X1068Y1600D01*
X1066Y1600D01*
X1066Y1578D01*
X1068Y1578D01*
X1068Y1576D01*
X1070Y1576D01*
X1070Y1574D01*
X1072Y1574D01*
X1072Y1570D01*
X1074Y1570D01*
X1074Y1568D01*
X1076Y1568D01*
X1076Y1564D01*
X1078Y1564D01*
X1078Y1560D01*
X1080Y1560D01*
X1080Y1554D01*
X1082Y1554D01*
X1082Y1546D01*
X1084Y1546D01*
X1084Y1532D01*
X1082Y1532D01*
X1082Y1524D01*
X1080Y1524D01*
X1080Y1518D01*
X1078Y1518D01*
X1078Y1514D01*
X1076Y1514D01*
X1076Y1510D01*
X1074Y1510D01*
X1074Y1508D01*
X1072Y1508D01*
X1072Y1504D01*
X1070Y1504D01*
X1070Y1502D01*
X1068Y1502D01*
X1068Y1500D01*
X1066Y1500D01*
X1066Y1498D01*
X1064Y1498D01*
X1064Y1496D01*
X1062Y1496D01*
X1062Y1494D01*
X1060Y1494D01*
X1060Y1492D01*
X1058Y1492D01*
X1058Y1490D01*
X1056Y1490D01*
X1056Y1488D01*
X1052Y1488D01*
X1052Y1486D01*
X1050Y1486D01*
X1050Y1442D01*
X1052Y1442D01*
X1052Y1440D01*
X1056Y1440D01*
X1056Y1438D01*
X1058Y1438D01*
X1058Y1436D01*
X1060Y1436D01*
X1060Y1434D01*
X1062Y1434D01*
X1062Y1432D01*
X1064Y1432D01*
X1064Y1430D01*
X1066Y1430D01*
X1066Y1428D01*
X1068Y1428D01*
X1068Y1426D01*
X1070Y1426D01*
X1070Y1424D01*
X1072Y1424D01*
X1072Y1420D01*
X1074Y1420D01*
X1074Y1418D01*
X1076Y1418D01*
X1076Y1414D01*
X1078Y1414D01*
X1078Y1410D01*
X1080Y1410D01*
X1080Y1404D01*
X1082Y1404D01*
X1082Y1396D01*
X1084Y1396D01*
X1084Y1382D01*
X1082Y1382D01*
X1082Y1374D01*
X1080Y1374D01*
X1080Y1368D01*
X1078Y1368D01*
X1078Y1364D01*
X1076Y1364D01*
X1076Y1360D01*
X1074Y1360D01*
X1074Y1358D01*
X1072Y1358D01*
X1072Y1354D01*
X1070Y1354D01*
X1070Y1352D01*
X1068Y1352D01*
X1068Y1350D01*
X1066Y1350D01*
X1066Y1348D01*
X1064Y1348D01*
X1064Y1346D01*
X1062Y1346D01*
X1062Y1344D01*
X1060Y1344D01*
X1060Y1342D01*
X1058Y1342D01*
X1058Y1340D01*
X1056Y1340D01*
X1056Y1338D01*
X1052Y1338D01*
X1052Y1336D01*
X1050Y1336D01*
X1050Y1334D01*
X1046Y1334D01*
X1046Y1332D01*
X1042Y1332D01*
X1042Y1330D01*
X1038Y1330D01*
X1038Y1328D01*
X1030Y1328D01*
X1030Y1326D01*
X1260Y1326D01*
X1260Y1328D01*
X1254Y1328D01*
X1254Y1330D01*
X1248Y1330D01*
X1248Y1332D01*
X1244Y1332D01*
X1244Y1334D01*
X1242Y1334D01*
X1242Y1336D01*
X1238Y1336D01*
X1238Y1338D01*
X1236Y1338D01*
X1236Y1340D01*
X1234Y1340D01*
X1234Y1342D01*
X1232Y1342D01*
X1232Y1344D01*
X1228Y1344D01*
X1228Y1346D01*
X1226Y1346D01*
X1226Y1348D01*
X1224Y1348D01*
X1224Y1352D01*
X1222Y1352D01*
X1222Y1354D01*
X1220Y1354D01*
X1220Y1356D01*
X1218Y1356D01*
X1218Y1360D01*
X1216Y1360D01*
X1216Y1362D01*
X1214Y1362D01*
X1214Y1366D01*
X1212Y1366D01*
X1212Y1370D01*
X1210Y1370D01*
X1210Y1376D01*
X1208Y1376D01*
X1208Y1402D01*
X1210Y1402D01*
X1210Y1408D01*
X1212Y1408D01*
X1212Y1412D01*
X1214Y1412D01*
X1214Y1416D01*
X1216Y1416D01*
X1216Y1420D01*
X1218Y1420D01*
X1218Y1422D01*
X1220Y1422D01*
X1220Y1424D01*
X1222Y1424D01*
X1222Y1426D01*
X1224Y1426D01*
X1224Y1430D01*
X1226Y1430D01*
X1226Y1432D01*
X1228Y1432D01*
X1228Y1434D01*
X1230Y1434D01*
X1230Y1436D01*
X1234Y1436D01*
X1234Y1438D01*
X1236Y1438D01*
X1236Y1440D01*
X1238Y1440D01*
X1238Y1442D01*
X1240Y1442D01*
X1240Y1486D01*
X1238Y1486D01*
X1238Y1488D01*
X1236Y1488D01*
X1236Y1490D01*
X1234Y1490D01*
X1234Y1492D01*
X1232Y1492D01*
X1232Y1494D01*
X1228Y1494D01*
X1228Y1496D01*
X1226Y1496D01*
X1226Y1498D01*
X1224Y1498D01*
X1224Y1502D01*
X1222Y1502D01*
X1222Y1504D01*
X1220Y1504D01*
X1220Y1506D01*
X1218Y1506D01*
X1218Y1510D01*
X1216Y1510D01*
X1216Y1512D01*
X1214Y1512D01*
X1214Y1516D01*
X1212Y1516D01*
X1212Y1520D01*
X1210Y1520D01*
X1210Y1526D01*
X1208Y1526D01*
X1208Y1552D01*
X1210Y1552D01*
X1210Y1558D01*
X1212Y1558D01*
X1212Y1562D01*
X1214Y1562D01*
X1214Y1566D01*
X1216Y1566D01*
X1216Y1570D01*
X1218Y1570D01*
X1218Y1572D01*
X1220Y1572D01*
X1220Y1574D01*
X1222Y1574D01*
X1222Y1576D01*
X1224Y1576D01*
X1224Y1602D01*
X1222Y1602D01*
X1222Y1604D01*
X1220Y1604D01*
X1220Y1606D01*
X1218Y1606D01*
X1218Y1610D01*
X1216Y1610D01*
X1216Y1612D01*
X1214Y1612D01*
X1214Y1616D01*
X1212Y1616D01*
X1212Y1620D01*
X1210Y1620D01*
X1210Y1626D01*
X1208Y1626D01*
X1208Y1652D01*
X1210Y1652D01*
X1210Y1658D01*
X1212Y1658D01*
X1212Y1662D01*
X1214Y1662D01*
X1214Y1666D01*
X1216Y1666D01*
X1216Y1670D01*
X1218Y1670D01*
X1218Y1672D01*
X1220Y1672D01*
X1220Y1674D01*
X1222Y1674D01*
X1222Y1676D01*
X1224Y1676D01*
X1224Y1680D01*
X1226Y1680D01*
X1226Y1682D01*
X1228Y1682D01*
X1228Y1684D01*
X1230Y1684D01*
X1230Y1686D01*
X1234Y1686D01*
X1234Y1688D01*
X1236Y1688D01*
X1236Y1708D01*
X1056Y1708D01*
G37*
D02*
G36*
X960Y1344D02*
X960Y1342D01*
X958Y1342D01*
X958Y1340D01*
X956Y1340D01*
X956Y1338D01*
X952Y1338D01*
X952Y1336D01*
X950Y1336D01*
X950Y1334D01*
X946Y1334D01*
X946Y1332D01*
X942Y1332D01*
X942Y1330D01*
X938Y1330D01*
X938Y1328D01*
X930Y1328D01*
X930Y1326D01*
X1010Y1326D01*
X1010Y1328D01*
X1004Y1328D01*
X1004Y1330D01*
X998Y1330D01*
X998Y1332D01*
X994Y1332D01*
X994Y1334D01*
X992Y1334D01*
X992Y1336D01*
X988Y1336D01*
X988Y1338D01*
X986Y1338D01*
X986Y1340D01*
X984Y1340D01*
X984Y1342D01*
X982Y1342D01*
X982Y1344D01*
X960Y1344D01*
G37*
D02*
G36*
X1310Y1344D02*
X1310Y1342D01*
X1308Y1342D01*
X1308Y1340D01*
X1306Y1340D01*
X1306Y1338D01*
X1302Y1338D01*
X1302Y1336D01*
X1300Y1336D01*
X1300Y1334D01*
X1296Y1334D01*
X1296Y1332D01*
X1292Y1332D01*
X1292Y1330D01*
X1288Y1330D01*
X1288Y1328D01*
X1280Y1328D01*
X1280Y1326D01*
X1360Y1326D01*
X1360Y1328D01*
X1354Y1328D01*
X1354Y1330D01*
X1348Y1330D01*
X1348Y1332D01*
X1344Y1332D01*
X1344Y1334D01*
X1342Y1334D01*
X1342Y1336D01*
X1338Y1336D01*
X1338Y1338D01*
X1336Y1338D01*
X1336Y1340D01*
X1334Y1340D01*
X1334Y1342D01*
X1332Y1342D01*
X1332Y1344D01*
X1310Y1344D01*
G37*
D02*
G36*
X1410Y1344D02*
X1410Y1342D01*
X1408Y1342D01*
X1408Y1340D01*
X1406Y1340D01*
X1406Y1338D01*
X1402Y1338D01*
X1402Y1336D01*
X1400Y1336D01*
X1400Y1334D01*
X1396Y1334D01*
X1396Y1332D01*
X1392Y1332D01*
X1392Y1330D01*
X1388Y1330D01*
X1388Y1328D01*
X1380Y1328D01*
X1380Y1326D01*
X1460Y1326D01*
X1460Y1328D01*
X1454Y1328D01*
X1454Y1330D01*
X1448Y1330D01*
X1448Y1332D01*
X1444Y1332D01*
X1444Y1334D01*
X1442Y1334D01*
X1442Y1336D01*
X1438Y1336D01*
X1438Y1338D01*
X1436Y1338D01*
X1436Y1340D01*
X1434Y1340D01*
X1434Y1342D01*
X1432Y1342D01*
X1432Y1344D01*
X1410Y1344D01*
G37*
D02*
G36*
X1510Y1344D02*
X1510Y1342D01*
X1508Y1342D01*
X1508Y1340D01*
X1506Y1340D01*
X1506Y1338D01*
X1502Y1338D01*
X1502Y1336D01*
X1500Y1336D01*
X1500Y1334D01*
X1496Y1334D01*
X1496Y1332D01*
X1492Y1332D01*
X1492Y1330D01*
X1488Y1330D01*
X1488Y1328D01*
X1480Y1328D01*
X1480Y1326D01*
X1560Y1326D01*
X1560Y1328D01*
X1554Y1328D01*
X1554Y1330D01*
X1548Y1330D01*
X1548Y1332D01*
X1544Y1332D01*
X1544Y1334D01*
X1542Y1334D01*
X1542Y1336D01*
X1538Y1336D01*
X1538Y1338D01*
X1536Y1338D01*
X1536Y1340D01*
X1534Y1340D01*
X1534Y1342D01*
X1532Y1342D01*
X1532Y1344D01*
X1510Y1344D01*
G37*
D02*
G36*
X1610Y1344D02*
X1610Y1342D01*
X1608Y1342D01*
X1608Y1340D01*
X1606Y1340D01*
X1606Y1338D01*
X1602Y1338D01*
X1602Y1336D01*
X1600Y1336D01*
X1600Y1334D01*
X1596Y1334D01*
X1596Y1332D01*
X1592Y1332D01*
X1592Y1330D01*
X1588Y1330D01*
X1588Y1328D01*
X1580Y1328D01*
X1580Y1326D01*
X1638Y1326D01*
X1638Y1338D01*
X1636Y1338D01*
X1636Y1340D01*
X1634Y1340D01*
X1634Y1342D01*
X1632Y1342D01*
X1632Y1344D01*
X1610Y1344D01*
G37*
D02*
G36*
X898Y1326D02*
X898Y1324D01*
X1638Y1324D01*
X1638Y1326D01*
X898Y1326D01*
G37*
D02*
G36*
X898Y1326D02*
X898Y1324D01*
X1638Y1324D01*
X1638Y1326D01*
X898Y1326D01*
G37*
D02*
G36*
X898Y1326D02*
X898Y1324D01*
X1638Y1324D01*
X1638Y1326D01*
X898Y1326D01*
G37*
D02*
G36*
X898Y1326D02*
X898Y1324D01*
X1638Y1324D01*
X1638Y1326D01*
X898Y1326D01*
G37*
D02*
G36*
X898Y1326D02*
X898Y1324D01*
X1638Y1324D01*
X1638Y1326D01*
X898Y1326D01*
G37*
D02*
G36*
X898Y1326D02*
X898Y1324D01*
X1638Y1324D01*
X1638Y1326D01*
X898Y1326D01*
G37*
D02*
G36*
X896Y1324D02*
X896Y1322D01*
X894Y1322D01*
X894Y1320D01*
X892Y1320D01*
X892Y1318D01*
X890Y1318D01*
X890Y1316D01*
X888Y1316D01*
X888Y1314D01*
X886Y1314D01*
X886Y1312D01*
X884Y1312D01*
X884Y1310D01*
X882Y1310D01*
X882Y1308D01*
X880Y1308D01*
X880Y1306D01*
X878Y1306D01*
X878Y1304D01*
X876Y1304D01*
X876Y1302D01*
X874Y1302D01*
X874Y1300D01*
X872Y1300D01*
X872Y1298D01*
X870Y1298D01*
X870Y1296D01*
X868Y1296D01*
X868Y1294D01*
X866Y1294D01*
X866Y1292D01*
X864Y1292D01*
X864Y1290D01*
X862Y1290D01*
X862Y1288D01*
X860Y1288D01*
X860Y1286D01*
X858Y1286D01*
X858Y1284D01*
X856Y1284D01*
X856Y1282D01*
X854Y1282D01*
X854Y1280D01*
X852Y1280D01*
X852Y1278D01*
X850Y1278D01*
X850Y1276D01*
X848Y1276D01*
X848Y1274D01*
X846Y1274D01*
X846Y1272D01*
X844Y1272D01*
X844Y1270D01*
X842Y1270D01*
X842Y1268D01*
X840Y1268D01*
X840Y1266D01*
X838Y1266D01*
X838Y1264D01*
X836Y1264D01*
X836Y1262D01*
X834Y1262D01*
X834Y1260D01*
X832Y1260D01*
X832Y1258D01*
X830Y1258D01*
X830Y1256D01*
X828Y1256D01*
X828Y1254D01*
X826Y1254D01*
X826Y1252D01*
X824Y1252D01*
X824Y1250D01*
X822Y1250D01*
X822Y1248D01*
X820Y1248D01*
X820Y1246D01*
X818Y1246D01*
X818Y1244D01*
X816Y1244D01*
X816Y1242D01*
X814Y1242D01*
X814Y1240D01*
X812Y1240D01*
X812Y1238D01*
X810Y1238D01*
X810Y1236D01*
X808Y1236D01*
X808Y1234D01*
X806Y1234D01*
X806Y1232D01*
X804Y1232D01*
X804Y1230D01*
X802Y1230D01*
X802Y1228D01*
X800Y1228D01*
X800Y1226D01*
X798Y1226D01*
X798Y1224D01*
X796Y1224D01*
X796Y1222D01*
X794Y1222D01*
X794Y1220D01*
X792Y1220D01*
X792Y1218D01*
X790Y1218D01*
X790Y1216D01*
X788Y1216D01*
X788Y1214D01*
X786Y1214D01*
X786Y1212D01*
X784Y1212D01*
X784Y1210D01*
X782Y1210D01*
X782Y1208D01*
X780Y1208D01*
X780Y1206D01*
X778Y1206D01*
X778Y1204D01*
X776Y1204D01*
X776Y1202D01*
X774Y1202D01*
X774Y1200D01*
X772Y1200D01*
X772Y1198D01*
X770Y1198D01*
X770Y1196D01*
X768Y1196D01*
X768Y1194D01*
X766Y1194D01*
X766Y1192D01*
X764Y1192D01*
X764Y1190D01*
X762Y1190D01*
X762Y1188D01*
X760Y1188D01*
X760Y1186D01*
X758Y1186D01*
X758Y1184D01*
X756Y1184D01*
X756Y1182D01*
X754Y1182D01*
X754Y1180D01*
X752Y1180D01*
X752Y1178D01*
X750Y1178D01*
X750Y1176D01*
X748Y1176D01*
X748Y1174D01*
X746Y1174D01*
X746Y1172D01*
X744Y1172D01*
X744Y1170D01*
X742Y1170D01*
X742Y1168D01*
X740Y1168D01*
X740Y1152D01*
X1382Y1152D01*
X1382Y1150D01*
X1388Y1150D01*
X1388Y1148D01*
X1392Y1148D01*
X1392Y1146D01*
X1396Y1146D01*
X1396Y1144D01*
X1400Y1144D01*
X1400Y1142D01*
X1402Y1142D01*
X1402Y1140D01*
X1406Y1140D01*
X1406Y1138D01*
X1408Y1138D01*
X1408Y1136D01*
X1410Y1136D01*
X1410Y1134D01*
X1430Y1134D01*
X1430Y1136D01*
X1434Y1136D01*
X1434Y1138D01*
X1436Y1138D01*
X1436Y1140D01*
X1438Y1140D01*
X1438Y1142D01*
X1440Y1142D01*
X1440Y1144D01*
X1442Y1144D01*
X1442Y1150D01*
X1444Y1150D01*
X1444Y1154D01*
X1446Y1154D01*
X1446Y1156D01*
X1448Y1156D01*
X1448Y1160D01*
X1450Y1160D01*
X1450Y1162D01*
X1452Y1162D01*
X1452Y1164D01*
X1454Y1164D01*
X1454Y1166D01*
X1456Y1166D01*
X1456Y1168D01*
X1458Y1168D01*
X1458Y1170D01*
X1460Y1170D01*
X1460Y1172D01*
X1462Y1172D01*
X1462Y1174D01*
X1464Y1174D01*
X1464Y1176D01*
X1466Y1176D01*
X1466Y1178D01*
X1468Y1178D01*
X1468Y1180D01*
X1470Y1180D01*
X1470Y1182D01*
X1472Y1182D01*
X1472Y1184D01*
X1474Y1184D01*
X1474Y1186D01*
X1476Y1186D01*
X1476Y1188D01*
X1478Y1188D01*
X1478Y1190D01*
X1480Y1190D01*
X1480Y1192D01*
X1482Y1192D01*
X1482Y1194D01*
X1484Y1194D01*
X1484Y1196D01*
X1486Y1196D01*
X1486Y1198D01*
X1488Y1198D01*
X1488Y1200D01*
X1490Y1200D01*
X1490Y1202D01*
X1492Y1202D01*
X1492Y1204D01*
X1494Y1204D01*
X1494Y1206D01*
X1496Y1206D01*
X1496Y1208D01*
X1498Y1208D01*
X1498Y1210D01*
X1500Y1210D01*
X1500Y1212D01*
X1502Y1212D01*
X1502Y1214D01*
X1504Y1214D01*
X1504Y1216D01*
X1506Y1216D01*
X1506Y1218D01*
X1508Y1218D01*
X1508Y1220D01*
X1510Y1220D01*
X1510Y1222D01*
X1512Y1222D01*
X1512Y1224D01*
X1514Y1224D01*
X1514Y1226D01*
X1516Y1226D01*
X1516Y1228D01*
X1518Y1228D01*
X1518Y1230D01*
X1520Y1230D01*
X1520Y1232D01*
X1522Y1232D01*
X1522Y1234D01*
X1524Y1234D01*
X1524Y1236D01*
X1526Y1236D01*
X1526Y1238D01*
X1528Y1238D01*
X1528Y1240D01*
X1530Y1240D01*
X1530Y1242D01*
X1532Y1242D01*
X1532Y1244D01*
X1534Y1244D01*
X1534Y1246D01*
X1536Y1246D01*
X1536Y1248D01*
X1538Y1248D01*
X1538Y1250D01*
X1540Y1250D01*
X1540Y1252D01*
X1542Y1252D01*
X1542Y1254D01*
X1544Y1254D01*
X1544Y1256D01*
X1546Y1256D01*
X1546Y1258D01*
X1548Y1258D01*
X1548Y1260D01*
X1550Y1260D01*
X1550Y1262D01*
X1552Y1262D01*
X1552Y1264D01*
X1554Y1264D01*
X1554Y1266D01*
X1556Y1266D01*
X1556Y1268D01*
X1558Y1268D01*
X1558Y1270D01*
X1560Y1270D01*
X1560Y1272D01*
X1562Y1272D01*
X1562Y1274D01*
X1564Y1274D01*
X1564Y1276D01*
X1566Y1276D01*
X1566Y1278D01*
X1568Y1278D01*
X1568Y1280D01*
X1570Y1280D01*
X1570Y1282D01*
X1572Y1282D01*
X1572Y1284D01*
X1574Y1284D01*
X1574Y1286D01*
X1576Y1286D01*
X1576Y1288D01*
X1578Y1288D01*
X1578Y1290D01*
X1580Y1290D01*
X1580Y1292D01*
X1582Y1292D01*
X1582Y1294D01*
X1584Y1294D01*
X1584Y1296D01*
X1586Y1296D01*
X1586Y1298D01*
X1588Y1298D01*
X1588Y1300D01*
X1590Y1300D01*
X1590Y1302D01*
X1592Y1302D01*
X1592Y1304D01*
X1594Y1304D01*
X1594Y1306D01*
X1596Y1306D01*
X1596Y1308D01*
X1598Y1308D01*
X1598Y1310D01*
X1600Y1310D01*
X1600Y1312D01*
X1604Y1312D01*
X1604Y1314D01*
X1606Y1314D01*
X1606Y1316D01*
X1612Y1316D01*
X1612Y1318D01*
X1638Y1318D01*
X1638Y1324D01*
X896Y1324D01*
G37*
D02*
G36*
X740Y1152D02*
X740Y1148D01*
X742Y1148D01*
X742Y1146D01*
X746Y1146D01*
X746Y1144D01*
X750Y1144D01*
X750Y1142D01*
X752Y1142D01*
X752Y1140D01*
X756Y1140D01*
X756Y1138D01*
X758Y1138D01*
X758Y1136D01*
X760Y1136D01*
X760Y1134D01*
X780Y1134D01*
X780Y1136D01*
X784Y1136D01*
X784Y1138D01*
X786Y1138D01*
X786Y1140D01*
X788Y1140D01*
X788Y1142D01*
X792Y1142D01*
X792Y1144D01*
X794Y1144D01*
X794Y1146D01*
X798Y1146D01*
X798Y1148D01*
X804Y1148D01*
X804Y1150D01*
X810Y1150D01*
X810Y1152D01*
X740Y1152D01*
G37*
D02*
G36*
X832Y1152D02*
X832Y1150D01*
X838Y1150D01*
X838Y1148D01*
X842Y1148D01*
X842Y1146D01*
X846Y1146D01*
X846Y1144D01*
X850Y1144D01*
X850Y1142D01*
X852Y1142D01*
X852Y1140D01*
X856Y1140D01*
X856Y1138D01*
X858Y1138D01*
X858Y1136D01*
X860Y1136D01*
X860Y1134D01*
X880Y1134D01*
X880Y1136D01*
X884Y1136D01*
X884Y1138D01*
X886Y1138D01*
X886Y1140D01*
X888Y1140D01*
X888Y1142D01*
X892Y1142D01*
X892Y1144D01*
X894Y1144D01*
X894Y1146D01*
X898Y1146D01*
X898Y1148D01*
X904Y1148D01*
X904Y1150D01*
X910Y1150D01*
X910Y1152D01*
X832Y1152D01*
G37*
D02*
G36*
X932Y1152D02*
X932Y1150D01*
X938Y1150D01*
X938Y1148D01*
X942Y1148D01*
X942Y1146D01*
X946Y1146D01*
X946Y1144D01*
X950Y1144D01*
X950Y1142D01*
X952Y1142D01*
X952Y1140D01*
X956Y1140D01*
X956Y1138D01*
X958Y1138D01*
X958Y1136D01*
X960Y1136D01*
X960Y1134D01*
X980Y1134D01*
X980Y1136D01*
X984Y1136D01*
X984Y1138D01*
X986Y1138D01*
X986Y1140D01*
X988Y1140D01*
X988Y1142D01*
X992Y1142D01*
X992Y1144D01*
X994Y1144D01*
X994Y1146D01*
X998Y1146D01*
X998Y1148D01*
X1004Y1148D01*
X1004Y1150D01*
X1010Y1150D01*
X1010Y1152D01*
X932Y1152D01*
G37*
D02*
G36*
X1032Y1152D02*
X1032Y1150D01*
X1038Y1150D01*
X1038Y1148D01*
X1042Y1148D01*
X1042Y1146D01*
X1046Y1146D01*
X1046Y1144D01*
X1050Y1144D01*
X1050Y1142D01*
X1052Y1142D01*
X1052Y1140D01*
X1056Y1140D01*
X1056Y1138D01*
X1058Y1138D01*
X1058Y1136D01*
X1060Y1136D01*
X1060Y1134D01*
X1062Y1134D01*
X1062Y1132D01*
X1064Y1132D01*
X1064Y1130D01*
X1066Y1130D01*
X1066Y1128D01*
X1068Y1128D01*
X1068Y1126D01*
X1070Y1126D01*
X1070Y1124D01*
X1072Y1124D01*
X1072Y1120D01*
X1074Y1120D01*
X1074Y1118D01*
X1076Y1118D01*
X1076Y1114D01*
X1078Y1114D01*
X1078Y1110D01*
X1080Y1110D01*
X1080Y1104D01*
X1082Y1104D01*
X1082Y1096D01*
X1084Y1096D01*
X1084Y1082D01*
X1082Y1082D01*
X1082Y1074D01*
X1080Y1074D01*
X1080Y1068D01*
X1078Y1068D01*
X1078Y1064D01*
X1076Y1064D01*
X1076Y1060D01*
X1074Y1060D01*
X1074Y1058D01*
X1072Y1058D01*
X1072Y1054D01*
X1070Y1054D01*
X1070Y1052D01*
X1068Y1052D01*
X1068Y1050D01*
X1066Y1050D01*
X1066Y1048D01*
X1064Y1048D01*
X1064Y1046D01*
X1062Y1046D01*
X1062Y1044D01*
X1060Y1044D01*
X1060Y1042D01*
X1058Y1042D01*
X1058Y1040D01*
X1056Y1040D01*
X1056Y1038D01*
X1052Y1038D01*
X1052Y1036D01*
X1050Y1036D01*
X1050Y1034D01*
X1046Y1034D01*
X1046Y1032D01*
X1042Y1032D01*
X1042Y1030D01*
X1038Y1030D01*
X1038Y1028D01*
X1030Y1028D01*
X1030Y1026D01*
X1208Y1026D01*
X1208Y1152D01*
X1032Y1152D01*
G37*
D02*
G36*
X1334Y1152D02*
X1334Y1148D01*
X1354Y1148D01*
X1354Y1150D01*
X1360Y1150D01*
X1360Y1152D01*
X1334Y1152D01*
G37*
D02*
G36*
X760Y1044D02*
X760Y1042D01*
X758Y1042D01*
X758Y1040D01*
X756Y1040D01*
X756Y1038D01*
X752Y1038D01*
X752Y1036D01*
X750Y1036D01*
X750Y1026D01*
X810Y1026D01*
X810Y1028D01*
X804Y1028D01*
X804Y1030D01*
X798Y1030D01*
X798Y1032D01*
X794Y1032D01*
X794Y1034D01*
X792Y1034D01*
X792Y1036D01*
X788Y1036D01*
X788Y1038D01*
X786Y1038D01*
X786Y1040D01*
X784Y1040D01*
X784Y1042D01*
X782Y1042D01*
X782Y1044D01*
X760Y1044D01*
G37*
D02*
G36*
X860Y1044D02*
X860Y1042D01*
X858Y1042D01*
X858Y1040D01*
X856Y1040D01*
X856Y1038D01*
X852Y1038D01*
X852Y1036D01*
X850Y1036D01*
X850Y1034D01*
X846Y1034D01*
X846Y1032D01*
X842Y1032D01*
X842Y1030D01*
X838Y1030D01*
X838Y1028D01*
X830Y1028D01*
X830Y1026D01*
X910Y1026D01*
X910Y1028D01*
X904Y1028D01*
X904Y1030D01*
X898Y1030D01*
X898Y1032D01*
X894Y1032D01*
X894Y1034D01*
X892Y1034D01*
X892Y1036D01*
X888Y1036D01*
X888Y1038D01*
X886Y1038D01*
X886Y1040D01*
X884Y1040D01*
X884Y1042D01*
X882Y1042D01*
X882Y1044D01*
X860Y1044D01*
G37*
D02*
G36*
X960Y1044D02*
X960Y1042D01*
X958Y1042D01*
X958Y1040D01*
X956Y1040D01*
X956Y1038D01*
X952Y1038D01*
X952Y1036D01*
X950Y1036D01*
X950Y1034D01*
X946Y1034D01*
X946Y1032D01*
X942Y1032D01*
X942Y1030D01*
X938Y1030D01*
X938Y1028D01*
X930Y1028D01*
X930Y1026D01*
X1010Y1026D01*
X1010Y1028D01*
X1004Y1028D01*
X1004Y1030D01*
X998Y1030D01*
X998Y1032D01*
X994Y1032D01*
X994Y1034D01*
X992Y1034D01*
X992Y1036D01*
X988Y1036D01*
X988Y1038D01*
X986Y1038D01*
X986Y1040D01*
X984Y1040D01*
X984Y1042D01*
X982Y1042D01*
X982Y1044D01*
X960Y1044D01*
G37*
D02*
G36*
X750Y1026D02*
X750Y1024D01*
X1240Y1024D01*
X1240Y1026D01*
X750Y1026D01*
G37*
D02*
G36*
X750Y1026D02*
X750Y1024D01*
X1240Y1024D01*
X1240Y1026D01*
X750Y1026D01*
G37*
D02*
G36*
X750Y1026D02*
X750Y1024D01*
X1240Y1024D01*
X1240Y1026D01*
X750Y1026D01*
G37*
D02*
G36*
X750Y1026D02*
X750Y1024D01*
X1240Y1024D01*
X1240Y1026D01*
X750Y1026D01*
G37*
D02*
G36*
X750Y1024D02*
X750Y1002D01*
X1032Y1002D01*
X1032Y1000D01*
X1038Y1000D01*
X1038Y998D01*
X1042Y998D01*
X1042Y996D01*
X1046Y996D01*
X1046Y994D01*
X1050Y994D01*
X1050Y992D01*
X1052Y992D01*
X1052Y990D01*
X1056Y990D01*
X1056Y988D01*
X1058Y988D01*
X1058Y986D01*
X1060Y986D01*
X1060Y984D01*
X1062Y984D01*
X1062Y982D01*
X1064Y982D01*
X1064Y980D01*
X1066Y980D01*
X1066Y978D01*
X1068Y978D01*
X1068Y976D01*
X1070Y976D01*
X1070Y974D01*
X1072Y974D01*
X1072Y970D01*
X1074Y970D01*
X1074Y968D01*
X1076Y968D01*
X1076Y964D01*
X1078Y964D01*
X1078Y960D01*
X1080Y960D01*
X1080Y954D01*
X1082Y954D01*
X1082Y946D01*
X1084Y946D01*
X1084Y932D01*
X1082Y932D01*
X1082Y924D01*
X1080Y924D01*
X1080Y918D01*
X1078Y918D01*
X1078Y914D01*
X1076Y914D01*
X1076Y910D01*
X1074Y910D01*
X1074Y908D01*
X1072Y908D01*
X1072Y904D01*
X1070Y904D01*
X1070Y902D01*
X1068Y902D01*
X1068Y900D01*
X1066Y900D01*
X1066Y898D01*
X1064Y898D01*
X1064Y896D01*
X1062Y896D01*
X1062Y894D01*
X1060Y894D01*
X1060Y892D01*
X1058Y892D01*
X1058Y890D01*
X1056Y890D01*
X1056Y888D01*
X1052Y888D01*
X1052Y886D01*
X1050Y886D01*
X1050Y884D01*
X1046Y884D01*
X1046Y882D01*
X1042Y882D01*
X1042Y880D01*
X1038Y880D01*
X1038Y878D01*
X1030Y878D01*
X1030Y876D01*
X1290Y876D01*
X1290Y878D01*
X1288Y878D01*
X1288Y880D01*
X1286Y880D01*
X1286Y882D01*
X1284Y882D01*
X1284Y884D01*
X1282Y884D01*
X1282Y886D01*
X1280Y886D01*
X1280Y888D01*
X1278Y888D01*
X1278Y890D01*
X1276Y890D01*
X1276Y892D01*
X1274Y892D01*
X1274Y894D01*
X1272Y894D01*
X1272Y896D01*
X1270Y896D01*
X1270Y898D01*
X1268Y898D01*
X1268Y900D01*
X1266Y900D01*
X1266Y902D01*
X1264Y902D01*
X1264Y904D01*
X1262Y904D01*
X1262Y906D01*
X1260Y906D01*
X1260Y908D01*
X1258Y908D01*
X1258Y910D01*
X1256Y910D01*
X1256Y912D01*
X1254Y912D01*
X1254Y914D01*
X1252Y914D01*
X1252Y916D01*
X1250Y916D01*
X1250Y918D01*
X1248Y918D01*
X1248Y922D01*
X1246Y922D01*
X1246Y924D01*
X1244Y924D01*
X1244Y928D01*
X1242Y928D01*
X1242Y934D01*
X1240Y934D01*
X1240Y1024D01*
X750Y1024D01*
G37*
D02*
G36*
X750Y1002D02*
X750Y992D01*
X752Y992D01*
X752Y990D01*
X756Y990D01*
X756Y988D01*
X758Y988D01*
X758Y986D01*
X760Y986D01*
X760Y984D01*
X762Y984D01*
X762Y982D01*
X764Y982D01*
X764Y980D01*
X766Y980D01*
X766Y978D01*
X768Y978D01*
X768Y976D01*
X770Y976D01*
X770Y974D01*
X772Y974D01*
X772Y970D01*
X774Y970D01*
X774Y968D01*
X776Y968D01*
X776Y964D01*
X778Y964D01*
X778Y960D01*
X780Y960D01*
X780Y954D01*
X782Y954D01*
X782Y946D01*
X784Y946D01*
X784Y932D01*
X782Y932D01*
X782Y924D01*
X780Y924D01*
X780Y918D01*
X778Y918D01*
X778Y914D01*
X776Y914D01*
X776Y910D01*
X774Y910D01*
X774Y908D01*
X772Y908D01*
X772Y904D01*
X770Y904D01*
X770Y902D01*
X768Y902D01*
X768Y900D01*
X766Y900D01*
X766Y898D01*
X764Y898D01*
X764Y896D01*
X762Y896D01*
X762Y894D01*
X760Y894D01*
X760Y892D01*
X758Y892D01*
X758Y890D01*
X756Y890D01*
X756Y888D01*
X752Y888D01*
X752Y886D01*
X750Y886D01*
X750Y884D01*
X746Y884D01*
X746Y882D01*
X742Y882D01*
X742Y880D01*
X738Y880D01*
X738Y878D01*
X730Y878D01*
X730Y876D01*
X1010Y876D01*
X1010Y878D01*
X1004Y878D01*
X1004Y880D01*
X998Y880D01*
X998Y882D01*
X994Y882D01*
X994Y884D01*
X992Y884D01*
X992Y886D01*
X988Y886D01*
X988Y888D01*
X986Y888D01*
X986Y890D01*
X984Y890D01*
X984Y892D01*
X982Y892D01*
X982Y894D01*
X978Y894D01*
X978Y896D01*
X976Y896D01*
X976Y898D01*
X974Y898D01*
X974Y902D01*
X972Y902D01*
X972Y904D01*
X970Y904D01*
X970Y906D01*
X968Y906D01*
X968Y910D01*
X966Y910D01*
X966Y912D01*
X964Y912D01*
X964Y916D01*
X962Y916D01*
X962Y920D01*
X960Y920D01*
X960Y926D01*
X958Y926D01*
X958Y952D01*
X960Y952D01*
X960Y958D01*
X962Y958D01*
X962Y962D01*
X964Y962D01*
X964Y966D01*
X966Y966D01*
X966Y970D01*
X968Y970D01*
X968Y972D01*
X970Y972D01*
X970Y974D01*
X972Y974D01*
X972Y976D01*
X974Y976D01*
X974Y980D01*
X976Y980D01*
X976Y982D01*
X978Y982D01*
X978Y984D01*
X980Y984D01*
X980Y986D01*
X984Y986D01*
X984Y988D01*
X986Y988D01*
X986Y990D01*
X988Y990D01*
X988Y992D01*
X992Y992D01*
X992Y994D01*
X994Y994D01*
X994Y996D01*
X998Y996D01*
X998Y998D01*
X1004Y998D01*
X1004Y1000D01*
X1010Y1000D01*
X1010Y1002D01*
X750Y1002D01*
G37*
D02*
G36*
X552Y904D02*
X552Y898D01*
X554Y898D01*
X554Y896D01*
X556Y896D01*
X556Y894D01*
X558Y894D01*
X558Y892D01*
X560Y892D01*
X560Y890D01*
X562Y890D01*
X562Y888D01*
X564Y888D01*
X564Y886D01*
X566Y886D01*
X566Y884D01*
X568Y884D01*
X568Y882D01*
X570Y882D01*
X570Y880D01*
X572Y880D01*
X572Y878D01*
X574Y878D01*
X574Y876D01*
X610Y876D01*
X610Y878D01*
X604Y878D01*
X604Y880D01*
X598Y880D01*
X598Y882D01*
X594Y882D01*
X594Y884D01*
X592Y884D01*
X592Y886D01*
X588Y886D01*
X588Y888D01*
X586Y888D01*
X586Y890D01*
X584Y890D01*
X584Y892D01*
X582Y892D01*
X582Y894D01*
X578Y894D01*
X578Y896D01*
X576Y896D01*
X576Y898D01*
X574Y898D01*
X574Y902D01*
X572Y902D01*
X572Y904D01*
X552Y904D01*
G37*
D02*
G36*
X660Y894D02*
X660Y892D01*
X658Y892D01*
X658Y890D01*
X656Y890D01*
X656Y888D01*
X652Y888D01*
X652Y886D01*
X650Y886D01*
X650Y884D01*
X646Y884D01*
X646Y882D01*
X642Y882D01*
X642Y880D01*
X638Y880D01*
X638Y878D01*
X630Y878D01*
X630Y876D01*
X710Y876D01*
X710Y878D01*
X704Y878D01*
X704Y880D01*
X698Y880D01*
X698Y882D01*
X694Y882D01*
X694Y884D01*
X692Y884D01*
X692Y886D01*
X688Y886D01*
X688Y888D01*
X686Y888D01*
X686Y890D01*
X684Y890D01*
X684Y892D01*
X682Y892D01*
X682Y894D01*
X660Y894D01*
G37*
D02*
G36*
X576Y876D02*
X576Y874D01*
X1292Y874D01*
X1292Y876D01*
X576Y876D01*
G37*
D02*
G36*
X576Y876D02*
X576Y874D01*
X1292Y874D01*
X1292Y876D01*
X576Y876D01*
G37*
D02*
G36*
X576Y876D02*
X576Y874D01*
X1292Y874D01*
X1292Y876D01*
X576Y876D01*
G37*
D02*
G36*
X576Y876D02*
X576Y874D01*
X1292Y874D01*
X1292Y876D01*
X576Y876D01*
G37*
D02*
G36*
X578Y874D02*
X578Y872D01*
X580Y872D01*
X580Y870D01*
X582Y870D01*
X582Y868D01*
X584Y868D01*
X584Y866D01*
X586Y866D01*
X586Y864D01*
X588Y864D01*
X588Y862D01*
X590Y862D01*
X590Y860D01*
X592Y860D01*
X592Y858D01*
X594Y858D01*
X594Y856D01*
X596Y856D01*
X596Y854D01*
X598Y854D01*
X598Y852D01*
X600Y852D01*
X600Y850D01*
X602Y850D01*
X602Y848D01*
X604Y848D01*
X604Y846D01*
X606Y846D01*
X606Y844D01*
X608Y844D01*
X608Y842D01*
X610Y842D01*
X610Y840D01*
X612Y840D01*
X612Y838D01*
X614Y838D01*
X614Y836D01*
X616Y836D01*
X616Y834D01*
X618Y834D01*
X618Y832D01*
X620Y832D01*
X620Y830D01*
X622Y830D01*
X622Y828D01*
X624Y828D01*
X624Y826D01*
X626Y826D01*
X626Y824D01*
X628Y824D01*
X628Y822D01*
X630Y822D01*
X630Y820D01*
X632Y820D01*
X632Y818D01*
X634Y818D01*
X634Y816D01*
X636Y816D01*
X636Y814D01*
X638Y814D01*
X638Y812D01*
X640Y812D01*
X640Y810D01*
X642Y810D01*
X642Y808D01*
X644Y808D01*
X644Y806D01*
X646Y806D01*
X646Y804D01*
X648Y804D01*
X648Y802D01*
X650Y802D01*
X650Y800D01*
X652Y800D01*
X652Y798D01*
X654Y798D01*
X654Y796D01*
X656Y796D01*
X656Y794D01*
X658Y794D01*
X658Y792D01*
X660Y792D01*
X660Y790D01*
X662Y790D01*
X662Y788D01*
X664Y788D01*
X664Y786D01*
X666Y786D01*
X666Y784D01*
X668Y784D01*
X668Y782D01*
X670Y782D01*
X670Y780D01*
X672Y780D01*
X672Y778D01*
X674Y778D01*
X674Y776D01*
X676Y776D01*
X676Y774D01*
X678Y774D01*
X678Y772D01*
X680Y772D01*
X680Y770D01*
X682Y770D01*
X682Y768D01*
X684Y768D01*
X684Y766D01*
X686Y766D01*
X686Y764D01*
X688Y764D01*
X688Y762D01*
X690Y762D01*
X690Y760D01*
X692Y760D01*
X692Y758D01*
X694Y758D01*
X694Y756D01*
X696Y756D01*
X696Y754D01*
X698Y754D01*
X698Y752D01*
X700Y752D01*
X700Y750D01*
X702Y750D01*
X702Y748D01*
X704Y748D01*
X704Y746D01*
X706Y746D01*
X706Y744D01*
X708Y744D01*
X708Y742D01*
X710Y742D01*
X710Y740D01*
X712Y740D01*
X712Y738D01*
X714Y738D01*
X714Y736D01*
X716Y736D01*
X716Y734D01*
X718Y734D01*
X718Y732D01*
X720Y732D01*
X720Y730D01*
X722Y730D01*
X722Y728D01*
X724Y728D01*
X724Y726D01*
X726Y726D01*
X726Y724D01*
X728Y724D01*
X728Y722D01*
X730Y722D01*
X730Y720D01*
X732Y720D01*
X732Y718D01*
X734Y718D01*
X734Y716D01*
X736Y716D01*
X736Y714D01*
X738Y714D01*
X738Y712D01*
X740Y712D01*
X740Y710D01*
X742Y710D01*
X742Y708D01*
X744Y708D01*
X744Y706D01*
X746Y706D01*
X746Y704D01*
X748Y704D01*
X748Y702D01*
X750Y702D01*
X750Y700D01*
X752Y700D01*
X752Y698D01*
X754Y698D01*
X754Y696D01*
X756Y696D01*
X756Y694D01*
X758Y694D01*
X758Y692D01*
X760Y692D01*
X760Y690D01*
X762Y690D01*
X762Y688D01*
X764Y688D01*
X764Y686D01*
X766Y686D01*
X766Y684D01*
X768Y684D01*
X768Y682D01*
X770Y682D01*
X770Y680D01*
X772Y680D01*
X772Y678D01*
X774Y678D01*
X774Y676D01*
X776Y676D01*
X776Y674D01*
X778Y674D01*
X778Y672D01*
X780Y672D01*
X780Y670D01*
X782Y670D01*
X782Y668D01*
X784Y668D01*
X784Y666D01*
X786Y666D01*
X786Y664D01*
X788Y664D01*
X788Y662D01*
X790Y662D01*
X790Y660D01*
X792Y660D01*
X792Y658D01*
X794Y658D01*
X794Y656D01*
X796Y656D01*
X796Y654D01*
X798Y654D01*
X798Y652D01*
X800Y652D01*
X800Y650D01*
X802Y650D01*
X802Y648D01*
X804Y648D01*
X804Y646D01*
X806Y646D01*
X806Y644D01*
X808Y644D01*
X808Y642D01*
X810Y642D01*
X810Y640D01*
X812Y640D01*
X812Y638D01*
X814Y638D01*
X814Y636D01*
X816Y636D01*
X816Y634D01*
X818Y634D01*
X818Y632D01*
X820Y632D01*
X820Y630D01*
X822Y630D01*
X822Y628D01*
X824Y628D01*
X824Y626D01*
X826Y626D01*
X826Y624D01*
X828Y624D01*
X828Y622D01*
X830Y622D01*
X830Y620D01*
X832Y620D01*
X832Y618D01*
X834Y618D01*
X834Y616D01*
X836Y616D01*
X836Y614D01*
X838Y614D01*
X838Y612D01*
X840Y612D01*
X840Y610D01*
X842Y610D01*
X842Y608D01*
X844Y608D01*
X844Y606D01*
X846Y606D01*
X846Y604D01*
X848Y604D01*
X848Y602D01*
X850Y602D01*
X850Y600D01*
X852Y600D01*
X852Y598D01*
X854Y598D01*
X854Y596D01*
X856Y596D01*
X856Y594D01*
X858Y594D01*
X858Y592D01*
X860Y592D01*
X860Y590D01*
X862Y590D01*
X862Y588D01*
X864Y588D01*
X864Y586D01*
X866Y586D01*
X866Y584D01*
X868Y584D01*
X868Y582D01*
X870Y582D01*
X870Y580D01*
X872Y580D01*
X872Y578D01*
X874Y578D01*
X874Y576D01*
X876Y576D01*
X876Y574D01*
X878Y574D01*
X878Y572D01*
X880Y572D01*
X880Y570D01*
X882Y570D01*
X882Y568D01*
X884Y568D01*
X884Y566D01*
X886Y566D01*
X886Y564D01*
X888Y564D01*
X888Y562D01*
X890Y562D01*
X890Y560D01*
X892Y560D01*
X892Y558D01*
X894Y558D01*
X894Y556D01*
X896Y556D01*
X896Y554D01*
X898Y554D01*
X898Y552D01*
X900Y552D01*
X900Y550D01*
X902Y550D01*
X902Y548D01*
X904Y548D01*
X904Y546D01*
X906Y546D01*
X906Y544D01*
X908Y544D01*
X908Y542D01*
X910Y542D01*
X910Y540D01*
X912Y540D01*
X912Y538D01*
X914Y538D01*
X914Y536D01*
X916Y536D01*
X916Y534D01*
X918Y534D01*
X918Y532D01*
X920Y532D01*
X920Y530D01*
X922Y530D01*
X922Y528D01*
X924Y528D01*
X924Y526D01*
X926Y526D01*
X926Y524D01*
X928Y524D01*
X928Y522D01*
X930Y522D01*
X930Y520D01*
X932Y520D01*
X932Y518D01*
X934Y518D01*
X934Y516D01*
X936Y516D01*
X936Y514D01*
X938Y514D01*
X938Y512D01*
X940Y512D01*
X940Y510D01*
X942Y510D01*
X942Y508D01*
X944Y508D01*
X944Y506D01*
X946Y506D01*
X946Y504D01*
X948Y504D01*
X948Y502D01*
X950Y502D01*
X950Y500D01*
X952Y500D01*
X952Y498D01*
X954Y498D01*
X954Y496D01*
X956Y496D01*
X956Y494D01*
X958Y494D01*
X958Y492D01*
X960Y492D01*
X960Y490D01*
X962Y490D01*
X962Y488D01*
X964Y488D01*
X964Y486D01*
X966Y486D01*
X966Y484D01*
X968Y484D01*
X968Y482D01*
X970Y482D01*
X970Y480D01*
X972Y480D01*
X972Y478D01*
X974Y478D01*
X974Y476D01*
X976Y476D01*
X976Y474D01*
X978Y474D01*
X978Y472D01*
X980Y472D01*
X980Y470D01*
X982Y470D01*
X982Y468D01*
X984Y468D01*
X984Y466D01*
X986Y466D01*
X986Y464D01*
X988Y464D01*
X988Y462D01*
X990Y462D01*
X990Y460D01*
X992Y460D01*
X992Y458D01*
X994Y458D01*
X994Y456D01*
X996Y456D01*
X996Y454D01*
X998Y454D01*
X998Y452D01*
X1000Y452D01*
X1000Y450D01*
X1002Y450D01*
X1002Y448D01*
X1004Y448D01*
X1004Y446D01*
X1006Y446D01*
X1006Y444D01*
X1008Y444D01*
X1008Y442D01*
X1010Y442D01*
X1010Y440D01*
X1012Y440D01*
X1012Y438D01*
X1014Y438D01*
X1014Y436D01*
X1016Y436D01*
X1016Y434D01*
X1018Y434D01*
X1018Y432D01*
X1020Y432D01*
X1020Y430D01*
X1022Y430D01*
X1022Y428D01*
X1024Y428D01*
X1024Y426D01*
X1026Y426D01*
X1026Y424D01*
X1028Y424D01*
X1028Y422D01*
X1030Y422D01*
X1030Y420D01*
X1032Y420D01*
X1032Y418D01*
X1034Y418D01*
X1034Y416D01*
X1036Y416D01*
X1036Y414D01*
X1038Y414D01*
X1038Y412D01*
X1040Y412D01*
X1040Y410D01*
X1042Y410D01*
X1042Y408D01*
X1044Y408D01*
X1044Y406D01*
X1046Y406D01*
X1046Y404D01*
X1048Y404D01*
X1048Y402D01*
X1050Y402D01*
X1050Y400D01*
X1052Y400D01*
X1052Y398D01*
X1054Y398D01*
X1054Y396D01*
X1056Y396D01*
X1056Y394D01*
X1058Y394D01*
X1058Y392D01*
X1060Y392D01*
X1060Y390D01*
X1062Y390D01*
X1062Y388D01*
X1064Y388D01*
X1064Y386D01*
X1066Y386D01*
X1066Y384D01*
X1068Y384D01*
X1068Y382D01*
X1070Y382D01*
X1070Y380D01*
X1072Y380D01*
X1072Y378D01*
X1074Y378D01*
X1074Y376D01*
X1076Y376D01*
X1076Y374D01*
X1078Y374D01*
X1078Y372D01*
X1080Y372D01*
X1080Y370D01*
X2750Y370D01*
X2750Y390D01*
X2746Y390D01*
X2746Y392D01*
X2742Y392D01*
X2742Y394D01*
X2740Y394D01*
X2740Y396D01*
X2738Y396D01*
X2738Y398D01*
X2736Y398D01*
X2736Y400D01*
X2734Y400D01*
X2734Y402D01*
X2732Y402D01*
X2732Y404D01*
X2730Y404D01*
X2730Y406D01*
X2728Y406D01*
X2728Y408D01*
X1762Y408D01*
X1762Y410D01*
X1758Y410D01*
X1758Y412D01*
X1754Y412D01*
X1754Y414D01*
X1750Y414D01*
X1750Y416D01*
X1748Y416D01*
X1748Y418D01*
X1746Y418D01*
X1746Y420D01*
X1744Y420D01*
X1744Y422D01*
X1742Y422D01*
X1742Y424D01*
X1740Y424D01*
X1740Y426D01*
X1738Y426D01*
X1738Y428D01*
X1736Y428D01*
X1736Y430D01*
X1734Y430D01*
X1734Y432D01*
X1732Y432D01*
X1732Y434D01*
X1730Y434D01*
X1730Y436D01*
X1728Y436D01*
X1728Y438D01*
X1726Y438D01*
X1726Y440D01*
X1724Y440D01*
X1724Y442D01*
X1722Y442D01*
X1722Y444D01*
X1720Y444D01*
X1720Y446D01*
X1718Y446D01*
X1718Y448D01*
X1716Y448D01*
X1716Y450D01*
X1714Y450D01*
X1714Y452D01*
X1712Y452D01*
X1712Y454D01*
X1710Y454D01*
X1710Y456D01*
X1708Y456D01*
X1708Y458D01*
X1706Y458D01*
X1706Y460D01*
X1704Y460D01*
X1704Y462D01*
X1702Y462D01*
X1702Y464D01*
X1700Y464D01*
X1700Y466D01*
X1698Y466D01*
X1698Y468D01*
X1696Y468D01*
X1696Y470D01*
X1694Y470D01*
X1694Y472D01*
X1692Y472D01*
X1692Y474D01*
X1690Y474D01*
X1690Y476D01*
X1688Y476D01*
X1688Y478D01*
X1686Y478D01*
X1686Y480D01*
X1684Y480D01*
X1684Y482D01*
X1682Y482D01*
X1682Y484D01*
X1680Y484D01*
X1680Y486D01*
X1678Y486D01*
X1678Y488D01*
X1676Y488D01*
X1676Y490D01*
X1674Y490D01*
X1674Y492D01*
X1672Y492D01*
X1672Y494D01*
X1670Y494D01*
X1670Y496D01*
X1668Y496D01*
X1668Y498D01*
X1666Y498D01*
X1666Y500D01*
X1664Y500D01*
X1664Y502D01*
X1662Y502D01*
X1662Y504D01*
X1660Y504D01*
X1660Y506D01*
X1658Y506D01*
X1658Y508D01*
X1656Y508D01*
X1656Y510D01*
X1654Y510D01*
X1654Y512D01*
X1652Y512D01*
X1652Y514D01*
X1650Y514D01*
X1650Y516D01*
X1648Y516D01*
X1648Y518D01*
X1646Y518D01*
X1646Y520D01*
X1644Y520D01*
X1644Y522D01*
X1642Y522D01*
X1642Y524D01*
X1640Y524D01*
X1640Y526D01*
X1638Y526D01*
X1638Y528D01*
X1636Y528D01*
X1636Y530D01*
X1634Y530D01*
X1634Y532D01*
X1632Y532D01*
X1632Y534D01*
X1630Y534D01*
X1630Y536D01*
X1628Y536D01*
X1628Y538D01*
X1626Y538D01*
X1626Y540D01*
X1624Y540D01*
X1624Y542D01*
X1622Y542D01*
X1622Y546D01*
X1620Y546D01*
X1620Y548D01*
X1618Y548D01*
X1618Y550D01*
X1616Y550D01*
X1616Y552D01*
X1614Y552D01*
X1614Y554D01*
X1612Y554D01*
X1612Y556D01*
X1610Y556D01*
X1610Y558D01*
X1608Y558D01*
X1608Y560D01*
X1606Y560D01*
X1606Y562D01*
X1604Y562D01*
X1604Y564D01*
X1602Y564D01*
X1602Y566D01*
X1600Y566D01*
X1600Y568D01*
X1598Y568D01*
X1598Y570D01*
X1596Y570D01*
X1596Y572D01*
X1594Y572D01*
X1594Y574D01*
X1592Y574D01*
X1592Y576D01*
X1590Y576D01*
X1590Y578D01*
X1588Y578D01*
X1588Y580D01*
X1586Y580D01*
X1586Y582D01*
X1584Y582D01*
X1584Y584D01*
X1582Y584D01*
X1582Y586D01*
X1580Y586D01*
X1580Y588D01*
X1578Y588D01*
X1578Y590D01*
X1576Y590D01*
X1576Y592D01*
X1574Y592D01*
X1574Y594D01*
X1572Y594D01*
X1572Y596D01*
X1570Y596D01*
X1570Y598D01*
X1568Y598D01*
X1568Y600D01*
X1566Y600D01*
X1566Y602D01*
X1564Y602D01*
X1564Y604D01*
X1562Y604D01*
X1562Y606D01*
X1560Y606D01*
X1560Y608D01*
X1558Y608D01*
X1558Y610D01*
X1556Y610D01*
X1556Y612D01*
X1554Y612D01*
X1554Y614D01*
X1552Y614D01*
X1552Y616D01*
X1550Y616D01*
X1550Y618D01*
X1548Y618D01*
X1548Y620D01*
X1546Y620D01*
X1546Y622D01*
X1544Y622D01*
X1544Y624D01*
X1542Y624D01*
X1542Y626D01*
X1540Y626D01*
X1540Y628D01*
X1538Y628D01*
X1538Y630D01*
X1536Y630D01*
X1536Y632D01*
X1534Y632D01*
X1534Y634D01*
X1532Y634D01*
X1532Y636D01*
X1530Y636D01*
X1530Y638D01*
X1528Y638D01*
X1528Y640D01*
X1526Y640D01*
X1526Y642D01*
X1524Y642D01*
X1524Y644D01*
X1522Y644D01*
X1522Y646D01*
X1520Y646D01*
X1520Y648D01*
X1518Y648D01*
X1518Y650D01*
X1516Y650D01*
X1516Y652D01*
X1514Y652D01*
X1514Y654D01*
X1512Y654D01*
X1512Y656D01*
X1510Y656D01*
X1510Y658D01*
X1508Y658D01*
X1508Y660D01*
X1506Y660D01*
X1506Y662D01*
X1504Y662D01*
X1504Y664D01*
X1502Y664D01*
X1502Y666D01*
X1500Y666D01*
X1500Y668D01*
X1498Y668D01*
X1498Y670D01*
X1496Y670D01*
X1496Y672D01*
X1494Y672D01*
X1494Y674D01*
X1492Y674D01*
X1492Y676D01*
X1490Y676D01*
X1490Y678D01*
X1488Y678D01*
X1488Y680D01*
X1486Y680D01*
X1486Y682D01*
X1484Y682D01*
X1484Y684D01*
X1482Y684D01*
X1482Y686D01*
X1480Y686D01*
X1480Y688D01*
X1478Y688D01*
X1478Y690D01*
X1476Y690D01*
X1476Y692D01*
X1474Y692D01*
X1474Y694D01*
X1472Y694D01*
X1472Y696D01*
X1470Y696D01*
X1470Y698D01*
X1468Y698D01*
X1468Y700D01*
X1466Y700D01*
X1466Y702D01*
X1464Y702D01*
X1464Y704D01*
X1462Y704D01*
X1462Y706D01*
X1460Y706D01*
X1460Y708D01*
X1458Y708D01*
X1458Y710D01*
X1456Y710D01*
X1456Y712D01*
X1454Y712D01*
X1454Y714D01*
X1452Y714D01*
X1452Y716D01*
X1450Y716D01*
X1450Y718D01*
X1448Y718D01*
X1448Y720D01*
X1446Y720D01*
X1446Y722D01*
X1444Y722D01*
X1444Y724D01*
X1442Y724D01*
X1442Y726D01*
X1440Y726D01*
X1440Y728D01*
X1438Y728D01*
X1438Y730D01*
X1436Y730D01*
X1436Y732D01*
X1434Y732D01*
X1434Y734D01*
X1432Y734D01*
X1432Y736D01*
X1430Y736D01*
X1430Y738D01*
X1428Y738D01*
X1428Y740D01*
X1426Y740D01*
X1426Y742D01*
X1424Y742D01*
X1424Y744D01*
X1422Y744D01*
X1422Y746D01*
X1420Y746D01*
X1420Y748D01*
X1418Y748D01*
X1418Y750D01*
X1416Y750D01*
X1416Y752D01*
X1414Y752D01*
X1414Y754D01*
X1412Y754D01*
X1412Y756D01*
X1410Y756D01*
X1410Y758D01*
X1408Y758D01*
X1408Y760D01*
X1406Y760D01*
X1406Y762D01*
X1404Y762D01*
X1404Y764D01*
X1402Y764D01*
X1402Y766D01*
X1400Y766D01*
X1400Y768D01*
X1398Y768D01*
X1398Y770D01*
X1396Y770D01*
X1396Y772D01*
X1394Y772D01*
X1394Y774D01*
X1392Y774D01*
X1392Y776D01*
X1390Y776D01*
X1390Y778D01*
X1388Y778D01*
X1388Y780D01*
X1386Y780D01*
X1386Y782D01*
X1384Y782D01*
X1384Y784D01*
X1382Y784D01*
X1382Y786D01*
X1380Y786D01*
X1380Y788D01*
X1378Y788D01*
X1378Y790D01*
X1376Y790D01*
X1376Y792D01*
X1374Y792D01*
X1374Y794D01*
X1372Y794D01*
X1372Y796D01*
X1370Y796D01*
X1370Y798D01*
X1368Y798D01*
X1368Y800D01*
X1366Y800D01*
X1366Y802D01*
X1364Y802D01*
X1364Y804D01*
X1362Y804D01*
X1362Y806D01*
X1360Y806D01*
X1360Y808D01*
X1358Y808D01*
X1358Y810D01*
X1356Y810D01*
X1356Y812D01*
X1354Y812D01*
X1354Y814D01*
X1352Y814D01*
X1352Y816D01*
X1350Y816D01*
X1350Y818D01*
X1348Y818D01*
X1348Y820D01*
X1346Y820D01*
X1346Y822D01*
X1344Y822D01*
X1344Y824D01*
X1342Y824D01*
X1342Y826D01*
X1340Y826D01*
X1340Y828D01*
X1338Y828D01*
X1338Y830D01*
X1336Y830D01*
X1336Y832D01*
X1334Y832D01*
X1334Y834D01*
X1332Y834D01*
X1332Y836D01*
X1330Y836D01*
X1330Y838D01*
X1328Y838D01*
X1328Y840D01*
X1326Y840D01*
X1326Y842D01*
X1324Y842D01*
X1324Y844D01*
X1322Y844D01*
X1322Y846D01*
X1320Y846D01*
X1320Y848D01*
X1318Y848D01*
X1318Y850D01*
X1316Y850D01*
X1316Y852D01*
X1314Y852D01*
X1314Y854D01*
X1312Y854D01*
X1312Y856D01*
X1310Y856D01*
X1310Y858D01*
X1308Y858D01*
X1308Y860D01*
X1306Y860D01*
X1306Y862D01*
X1304Y862D01*
X1304Y864D01*
X1302Y864D01*
X1302Y866D01*
X1300Y866D01*
X1300Y868D01*
X1298Y868D01*
X1298Y870D01*
X1296Y870D01*
X1296Y872D01*
X1294Y872D01*
X1294Y874D01*
X578Y874D01*
G37*
D02*
G36*
X3880Y966D02*
X3934Y966D01*
X3934Y915D01*
X3880Y915D01*
X3880Y966D01*
G37*
D02*
G36*
X3842Y1156D02*
X3893Y1156D01*
X3893Y1104D01*
X3842Y1104D01*
X3842Y1156D01*
G37*
D02*
G36*
X3880Y1116D02*
X3934Y1116D01*
X3934Y1065D01*
X3880Y1065D01*
X3880Y1116D01*
G37*
D02*
G36*
X2892Y228D02*
X2943Y228D01*
X2943Y176D01*
X2892Y176D01*
X2892Y228D01*
G37*
D02*
G36*
X1944Y228D02*
X1995Y228D01*
X1995Y176D01*
X1944Y176D01*
X1944Y228D01*
G37*
D02*
G36*
X2892Y928D02*
X2943Y928D01*
X2943Y876D01*
X2892Y876D01*
X2892Y928D01*
G37*
D02*
G36*
X2930Y966D02*
X2984Y966D01*
X2984Y915D01*
X2930Y915D01*
X2930Y966D01*
G37*
D02*
G36*
X994Y228D02*
X1045Y228D01*
X1045Y176D01*
X994Y176D01*
X994Y228D01*
G37*
D02*
G36*
X954Y266D02*
X1006Y266D01*
X1006Y215D01*
X954Y215D01*
X954Y266D01*
G37*
D02*
G36*
X2892Y1156D02*
X2943Y1156D01*
X2943Y1104D01*
X2892Y1104D01*
X2892Y1156D01*
G37*
D02*
G36*
X2930Y1116D02*
X2984Y1116D01*
X2984Y1065D01*
X2930Y1065D01*
X2930Y1116D01*
G37*
D02*
G36*
X1944Y928D02*
X1995Y928D01*
X1995Y876D01*
X1944Y876D01*
X1944Y928D01*
G37*
D02*
G36*
X1982Y966D02*
X2034Y966D01*
X2034Y915D01*
X1982Y915D01*
X1982Y966D01*
G37*
D02*
G36*
X3442Y1078D02*
X3493Y1078D01*
X3493Y1026D01*
X3442Y1026D01*
X3442Y1078D01*
G37*
D02*
G36*
X2792Y1156D02*
X2843Y1156D01*
X2843Y1104D01*
X2792Y1104D01*
X2792Y1156D01*
G37*
D02*
G36*
X1944Y1156D02*
X1995Y1156D01*
X1995Y1104D01*
X1944Y1104D01*
X1944Y1156D01*
G37*
D02*
G36*
X1982Y1116D02*
X2034Y1116D01*
X2034Y1065D01*
X1982Y1065D01*
X1982Y1116D01*
G37*
D02*
G36*
X994Y928D02*
X1045Y928D01*
X1045Y876D01*
X994Y876D01*
X994Y928D01*
G37*
D02*
G36*
X954Y966D02*
X1006Y966D01*
X1006Y915D01*
X954Y915D01*
X954Y966D01*
G37*
D02*
G36*
X1032Y966D02*
X1084Y966D01*
X1084Y915D01*
X1032Y915D01*
X1032Y966D01*
G37*
D02*
G36*
X3342Y1078D02*
X3393Y1078D01*
X3393Y1026D01*
X3342Y1026D01*
X3342Y1078D01*
G37*
D02*
G36*
X1844Y1156D02*
X1895Y1156D01*
X1895Y1104D01*
X1844Y1104D01*
X1844Y1156D01*
G37*
D02*
G36*
X994Y1156D02*
X1045Y1156D01*
X1045Y1104D01*
X994Y1104D01*
X994Y1156D01*
G37*
D02*
G36*
X1032Y1116D02*
X1084Y1116D01*
X1084Y1065D01*
X1032Y1065D01*
X1032Y1116D01*
G37*
D02*
G36*
X894Y1156D02*
X945Y1156D01*
X945Y1104D01*
X894Y1104D01*
X894Y1156D01*
G37*
D02*
G04 End of Copper0*
M02*