G04 MADE WITH FRITZING*
G04 WWW.FRITZING.ORG*
G04 DOUBLE SIDED*
G04 HOLES PLATED*
G04 CONTOUR ON CENTER OF CONTOUR VECTOR*
%ASAXBY*%
%FSLAX23Y23*%
%MOIN*%
%OFA0B0*%
%SFA1.0B1.0*%
%ADD10C,0.085000*%
%ADD11C,0.080000*%
%ADD12C,0.135984*%
%ADD13C,0.100551*%
%ADD14R,0.100551X0.100551*%
%LNMASK1*%
G90*
G70*
G54D10*
X970Y1839D03*
X1370Y1839D03*
X1470Y1839D03*
X1870Y1839D03*
X1970Y1839D03*
X2370Y1839D03*
X2470Y1839D03*
X2870Y1839D03*
X2970Y1839D03*
X3370Y1839D03*
X2770Y439D03*
X3170Y439D03*
X2770Y539D03*
X3170Y539D03*
X2770Y639D03*
X3170Y639D03*
X2770Y739D03*
X3170Y739D03*
G54D11*
X3170Y839D03*
X3170Y940D03*
G54D12*
X3920Y139D03*
X3920Y2039D03*
X120Y139D03*
X120Y2039D03*
G54D13*
X3170Y1089D03*
X3170Y1389D03*
X3270Y1089D03*
X3270Y1389D03*
X3370Y1089D03*
X3370Y1389D03*
X3470Y1089D03*
X3470Y1389D03*
X3570Y1089D03*
X3570Y1389D03*
X3670Y1089D03*
X3670Y1389D03*
X3770Y1089D03*
X3770Y1389D03*
X3870Y1089D03*
X3870Y1389D03*
X2220Y1089D03*
X2220Y1389D03*
X2320Y1089D03*
X2320Y1389D03*
X2420Y1089D03*
X2420Y1389D03*
X2520Y1089D03*
X2520Y1389D03*
X2620Y1089D03*
X2620Y1389D03*
X2720Y1089D03*
X2720Y1389D03*
X2820Y1089D03*
X2820Y1389D03*
X2920Y1089D03*
X2920Y1389D03*
X1270Y1089D03*
X1270Y1389D03*
X1370Y1089D03*
X1370Y1389D03*
X1470Y1089D03*
X1470Y1389D03*
X1570Y1089D03*
X1570Y1389D03*
X1670Y1089D03*
X1670Y1389D03*
X1770Y1089D03*
X1770Y1389D03*
X1870Y1089D03*
X1870Y1389D03*
X1970Y1089D03*
X1970Y1389D03*
X3770Y1639D03*
X3670Y939D03*
X2620Y939D03*
X2720Y939D03*
X1670Y939D03*
X1770Y939D03*
X720Y939D03*
X1270Y1539D03*
X420Y1639D03*
X1020Y239D03*
X1970Y239D03*
X2920Y239D03*
X2920Y939D03*
X1970Y939D03*
X1470Y939D03*
X620Y939D03*
X1020Y939D03*
X2220Y1939D03*
X1270Y1939D03*
X3170Y1939D03*
X320Y1639D03*
X2220Y1639D03*
X1270Y1639D03*
X3170Y1639D03*
X2920Y2039D03*
X1970Y2039D03*
X1020Y2039D03*
X2920Y1639D03*
X1970Y1639D03*
X1020Y1639D03*
X320Y1539D03*
X1370Y1639D03*
X1470Y1639D03*
X3270Y1639D03*
X3370Y1639D03*
X2320Y1639D03*
X2420Y1639D03*
X2220Y1539D03*
X3870Y1539D03*
X3170Y1539D03*
X2920Y1539D03*
X1970Y1539D03*
X620Y1539D03*
X1020Y1539D03*
X3870Y1639D03*
X3870Y939D03*
X170Y1289D03*
X170Y1189D03*
X320Y1089D03*
X320Y1389D03*
X420Y1089D03*
X420Y1389D03*
X520Y1089D03*
X520Y1389D03*
X620Y1089D03*
X620Y1389D03*
X720Y1089D03*
X720Y1389D03*
X820Y1089D03*
X820Y1389D03*
X920Y1089D03*
X920Y1389D03*
X1020Y1089D03*
X1020Y1389D03*
G54D14*
X3170Y1089D03*
X2220Y1089D03*
X1270Y1089D03*
X320Y1089D03*
G04 End of Mask1*
M02*