G04 MADE WITH FRITZING*
G04 WWW.FRITZING.ORG*
G04 DOUBLE SIDED*
G04 HOLES PLATED*
G04 CONTOUR ON CENTER OF CONTOUR VECTOR*
%ASAXBY*%
%FSLAX23Y23*%
%MOIN*%
%OFA0B0*%
%SFA1.0B1.0*%
%ADD10C,0.075000*%
%ADD11C,0.090551*%
%ADD12C,0.024000*%
%ADD13R,0.001000X0.001000*%
%LNCOPPER0*%
G90*
G70*
G54D10*
X798Y2473D03*
G54D11*
X2002Y237D03*
X2002Y137D03*
X252Y2237D03*
X252Y2137D03*
X252Y2037D03*
X1452Y837D03*
X1452Y737D03*
X1452Y637D03*
X1452Y537D03*
X752Y837D03*
X752Y737D03*
X752Y637D03*
X752Y537D03*
X1002Y837D03*
X1002Y737D03*
X1002Y637D03*
X1002Y537D03*
X1202Y837D03*
X1202Y737D03*
X1202Y637D03*
X1202Y537D03*
X252Y1537D03*
X252Y1437D03*
X252Y1337D03*
X252Y1237D03*
X1452Y1537D03*
X1452Y1437D03*
X1452Y1337D03*
X1452Y1237D03*
X502Y1537D03*
X502Y1437D03*
X502Y1337D03*
X502Y1237D03*
X502Y2337D03*
X502Y2237D03*
X502Y2137D03*
X502Y2037D03*
X1152Y1537D03*
X1152Y1437D03*
X1152Y1337D03*
X1152Y1237D03*
X702Y1537D03*
X702Y1437D03*
X702Y1337D03*
X702Y1237D03*
X952Y1537D03*
X952Y1437D03*
X952Y1337D03*
X952Y1237D03*
X2002Y2237D03*
X2002Y2137D03*
X2002Y1837D03*
X2002Y1737D03*
X2002Y1637D03*
X2002Y1537D03*
X2002Y1437D03*
X2002Y1337D03*
X2002Y937D03*
X2002Y837D03*
X2002Y737D03*
X2002Y637D03*
X2002Y537D03*
X1652Y737D03*
X1652Y637D03*
X1652Y537D03*
G54D12*
X252Y1461D02*
X252Y1512D01*
D02*
X602Y2238D02*
X527Y2237D01*
D02*
X602Y1936D02*
X602Y2238D01*
D02*
X2103Y1936D02*
X602Y1936D01*
D02*
X2103Y1235D02*
X2103Y1936D01*
D02*
X2103Y1235D02*
X2101Y436D01*
D02*
X2101Y436D02*
X2002Y436D01*
D02*
X2002Y436D02*
X1653Y435D01*
D02*
X1653Y435D02*
X1652Y512D01*
D02*
X2002Y436D02*
X2002Y261D01*
D02*
X101Y2238D02*
X227Y2237D01*
D02*
X101Y1438D02*
X101Y1936D01*
D02*
X101Y1936D02*
X101Y2238D01*
D02*
X101Y1138D02*
X101Y1438D01*
D02*
X101Y1438D02*
X227Y1437D01*
D02*
X601Y735D02*
X101Y1138D01*
D02*
X601Y388D02*
X601Y735D01*
D02*
X601Y735D02*
X727Y736D01*
D02*
X1903Y136D02*
X1977Y137D01*
D02*
X601Y388D02*
X1903Y388D01*
D02*
X1903Y388D02*
X1903Y136D01*
D02*
X927Y1237D02*
X727Y1237D01*
D02*
X1677Y636D02*
X1751Y635D01*
D02*
X1751Y635D02*
X1751Y537D01*
D02*
X1751Y537D02*
X1977Y537D01*
D02*
X901Y635D02*
X977Y636D01*
D02*
X901Y1035D02*
X901Y635D01*
D02*
X1903Y1035D02*
X901Y1035D01*
D02*
X1903Y835D02*
X1903Y1035D01*
D02*
X1977Y836D02*
X1903Y835D01*
D02*
X1202Y761D02*
X1202Y812D01*
D02*
X1152Y1461D02*
X1152Y1512D01*
D02*
X277Y1336D02*
X351Y1336D01*
D02*
X351Y1336D02*
X352Y1838D01*
D02*
X352Y1838D02*
X1977Y1837D01*
D02*
X1177Y537D02*
X1027Y537D01*
D02*
X851Y638D02*
X777Y637D01*
D02*
X851Y1086D02*
X851Y638D01*
D02*
X2002Y1086D02*
X851Y1086D01*
D02*
X2002Y961D02*
X2002Y1086D01*
D02*
X1002Y761D02*
X1002Y812D01*
D02*
X977Y1437D02*
X1127Y1437D01*
D02*
X977Y537D02*
X777Y537D01*
D02*
X477Y1237D02*
X277Y1237D01*
D02*
X702Y1461D02*
X702Y1512D01*
D02*
X1477Y737D02*
X1627Y737D01*
D02*
X853Y1337D02*
X927Y1337D01*
D02*
X853Y1686D02*
X853Y1337D01*
D02*
X1602Y1686D02*
X853Y1686D01*
D02*
X1602Y1536D02*
X1602Y1686D01*
D02*
X1977Y1537D02*
X1602Y1536D01*
D02*
X1452Y761D02*
X1452Y812D01*
D02*
X1977Y1437D02*
X1551Y1438D01*
D02*
X1551Y1438D02*
X1551Y1638D01*
D02*
X1551Y1638D02*
X1253Y1638D01*
D02*
X1253Y1638D02*
X1253Y1337D01*
D02*
X1253Y1337D02*
X1177Y1337D01*
D02*
X677Y1237D02*
X527Y1237D01*
D02*
X527Y1437D02*
X677Y1437D01*
D02*
X502Y1461D02*
X502Y1512D01*
D02*
X1627Y537D02*
X1477Y537D01*
D02*
X1477Y1337D02*
X1977Y1337D01*
D02*
X403Y1337D02*
X477Y1337D01*
D02*
X403Y1787D02*
X403Y1337D01*
D02*
X1703Y1787D02*
X403Y1787D01*
D02*
X1703Y1736D02*
X1703Y1787D01*
D02*
X1977Y1737D02*
X1703Y1736D01*
D02*
X752Y761D02*
X752Y812D01*
D02*
X1452Y1461D02*
X1452Y1512D01*
D02*
X1300Y637D02*
X1227Y637D01*
D02*
X1300Y988D02*
X1300Y637D01*
D02*
X1853Y988D02*
X1300Y988D01*
D02*
X1853Y737D02*
X1853Y988D01*
D02*
X1977Y737D02*
X1853Y737D01*
D02*
X1351Y635D02*
X1427Y636D01*
D02*
X1351Y937D02*
X1351Y635D01*
D02*
X1802Y937D02*
X1351Y937D01*
D02*
X1802Y635D02*
X1802Y937D01*
D02*
X1977Y636D02*
X1802Y635D01*
D02*
X1427Y537D02*
X1227Y537D01*
D02*
X952Y1461D02*
X952Y1512D01*
D02*
X1427Y1237D02*
X1177Y1237D01*
D02*
X351Y2136D02*
X352Y2486D01*
D02*
X277Y2136D02*
X351Y2136D01*
D02*
X352Y2486D02*
X701Y2485D01*
D02*
X701Y2485D02*
X701Y2238D01*
D02*
X701Y2238D02*
X1977Y2237D01*
D02*
X1127Y1237D02*
X977Y1237D01*
D02*
X1977Y1637D02*
X1653Y1638D01*
D02*
X1653Y1638D02*
X1653Y1736D01*
D02*
X1653Y1736D02*
X802Y1736D01*
D02*
X802Y1736D02*
X802Y1337D01*
D02*
X802Y1337D02*
X727Y1337D01*
D02*
X1027Y737D02*
X1177Y737D01*
D02*
X653Y2136D02*
X653Y2438D01*
D02*
X1977Y2137D02*
X653Y2136D01*
D02*
X403Y2438D02*
X403Y2136D01*
D02*
X653Y2438D02*
X403Y2438D01*
D02*
X403Y2136D02*
X477Y2136D01*
D02*
X501Y1936D02*
X502Y2012D01*
D02*
X101Y1936D02*
X501Y1936D01*
D02*
X502Y2261D02*
X502Y2312D01*
D02*
X2103Y1235D02*
X1477Y1237D01*
G36*
X716Y2530D02*
X716Y2510D01*
X718Y2510D01*
X718Y2508D01*
X720Y2508D01*
X720Y2506D01*
X722Y2506D01*
X722Y2504D01*
X724Y2504D01*
X724Y2502D01*
X726Y2502D01*
X726Y2500D01*
X728Y2500D01*
X728Y2494D01*
X730Y2494D01*
X730Y2406D01*
X2126Y2406D01*
X2126Y2408D01*
X2120Y2408D01*
X2120Y2410D01*
X2114Y2410D01*
X2114Y2412D01*
X2110Y2412D01*
X2110Y2414D01*
X2106Y2414D01*
X2106Y2416D01*
X2102Y2416D01*
X2102Y2418D01*
X2100Y2418D01*
X2100Y2420D01*
X2096Y2420D01*
X2096Y2422D01*
X2094Y2422D01*
X2094Y2424D01*
X2092Y2424D01*
X2092Y2426D01*
X2090Y2426D01*
X2090Y2428D01*
X2088Y2428D01*
X2088Y2430D01*
X2086Y2430D01*
X2086Y2432D01*
X2084Y2432D01*
X2084Y2434D01*
X2082Y2434D01*
X2082Y2436D01*
X2080Y2436D01*
X2080Y2438D01*
X2078Y2438D01*
X2078Y2440D01*
X2076Y2440D01*
X2076Y2444D01*
X2074Y2444D01*
X2074Y2446D01*
X2072Y2446D01*
X2072Y2450D01*
X2070Y2450D01*
X2070Y2454D01*
X2068Y2454D01*
X2068Y2458D01*
X2066Y2458D01*
X2066Y2464D01*
X2064Y2464D01*
X2064Y2472D01*
X2062Y2472D01*
X2062Y2500D01*
X2064Y2500D01*
X2064Y2508D01*
X2066Y2508D01*
X2066Y2530D01*
X716Y2530D01*
G37*
D02*
G36*
X2176Y2414D02*
X2176Y2412D01*
X2170Y2412D01*
X2170Y2410D01*
X2166Y2410D01*
X2166Y2408D01*
X2158Y2408D01*
X2158Y2406D01*
X2196Y2406D01*
X2196Y2414D01*
X2176Y2414D01*
G37*
D02*
G36*
X532Y2408D02*
X532Y2388D01*
X536Y2388D01*
X536Y2386D01*
X538Y2386D01*
X538Y2384D01*
X540Y2384D01*
X540Y2382D01*
X542Y2382D01*
X542Y2380D01*
X544Y2380D01*
X544Y2378D01*
X546Y2378D01*
X546Y2376D01*
X548Y2376D01*
X548Y2374D01*
X550Y2374D01*
X550Y2372D01*
X552Y2372D01*
X552Y2370D01*
X554Y2370D01*
X554Y2366D01*
X556Y2366D01*
X556Y2364D01*
X558Y2364D01*
X558Y2360D01*
X560Y2360D01*
X560Y2356D01*
X562Y2356D01*
X562Y2350D01*
X564Y2350D01*
X564Y2338D01*
X566Y2338D01*
X566Y2334D01*
X564Y2334D01*
X564Y2322D01*
X562Y2322D01*
X562Y2316D01*
X560Y2316D01*
X560Y2312D01*
X558Y2312D01*
X558Y2308D01*
X556Y2308D01*
X556Y2306D01*
X554Y2306D01*
X554Y2302D01*
X552Y2302D01*
X552Y2300D01*
X550Y2300D01*
X550Y2298D01*
X548Y2298D01*
X548Y2296D01*
X546Y2296D01*
X546Y2276D01*
X548Y2276D01*
X548Y2274D01*
X550Y2274D01*
X550Y2272D01*
X552Y2272D01*
X552Y2270D01*
X554Y2270D01*
X554Y2266D01*
X556Y2266D01*
X556Y2264D01*
X558Y2264D01*
X558Y2260D01*
X560Y2260D01*
X560Y2256D01*
X562Y2256D01*
X562Y2250D01*
X564Y2250D01*
X564Y2238D01*
X566Y2238D01*
X566Y2234D01*
X564Y2234D01*
X564Y2222D01*
X562Y2222D01*
X562Y2216D01*
X560Y2216D01*
X560Y2212D01*
X558Y2212D01*
X558Y2208D01*
X556Y2208D01*
X556Y2206D01*
X554Y2206D01*
X554Y2202D01*
X552Y2202D01*
X552Y2200D01*
X550Y2200D01*
X550Y2198D01*
X548Y2198D01*
X548Y2196D01*
X546Y2196D01*
X546Y2176D01*
X548Y2176D01*
X548Y2174D01*
X550Y2174D01*
X550Y2172D01*
X552Y2172D01*
X552Y2170D01*
X554Y2170D01*
X554Y2166D01*
X556Y2166D01*
X556Y2164D01*
X558Y2164D01*
X558Y2160D01*
X560Y2160D01*
X560Y2156D01*
X562Y2156D01*
X562Y2150D01*
X564Y2150D01*
X564Y2138D01*
X566Y2138D01*
X566Y2134D01*
X564Y2134D01*
X564Y2122D01*
X562Y2122D01*
X562Y2116D01*
X560Y2116D01*
X560Y2112D01*
X558Y2112D01*
X558Y2108D01*
X556Y2108D01*
X556Y2106D01*
X554Y2106D01*
X554Y2102D01*
X552Y2102D01*
X552Y2100D01*
X550Y2100D01*
X550Y2098D01*
X548Y2098D01*
X548Y2096D01*
X546Y2096D01*
X546Y2076D01*
X548Y2076D01*
X548Y2074D01*
X550Y2074D01*
X550Y2072D01*
X2000Y2072D01*
X2000Y2074D01*
X1988Y2074D01*
X1988Y2076D01*
X1982Y2076D01*
X1982Y2078D01*
X1978Y2078D01*
X1978Y2080D01*
X1974Y2080D01*
X1974Y2082D01*
X1972Y2082D01*
X1972Y2084D01*
X1968Y2084D01*
X1968Y2086D01*
X1966Y2086D01*
X1966Y2088D01*
X1964Y2088D01*
X1964Y2090D01*
X1962Y2090D01*
X1962Y2092D01*
X1960Y2092D01*
X1960Y2094D01*
X1958Y2094D01*
X1958Y2096D01*
X1956Y2096D01*
X1956Y2098D01*
X1954Y2098D01*
X1954Y2100D01*
X1952Y2100D01*
X1952Y2102D01*
X1950Y2102D01*
X1950Y2106D01*
X644Y2106D01*
X644Y2108D01*
X640Y2108D01*
X640Y2110D01*
X636Y2110D01*
X636Y2112D01*
X634Y2112D01*
X634Y2114D01*
X632Y2114D01*
X632Y2116D01*
X630Y2116D01*
X630Y2118D01*
X628Y2118D01*
X628Y2122D01*
X626Y2122D01*
X626Y2126D01*
X624Y2126D01*
X624Y2408D01*
X532Y2408D01*
G37*
D02*
G36*
X730Y2406D02*
X730Y2404D01*
X2196Y2404D01*
X2196Y2406D01*
X730Y2406D01*
G37*
D02*
G36*
X730Y2406D02*
X730Y2404D01*
X2196Y2404D01*
X2196Y2406D01*
X730Y2406D01*
G37*
D02*
G36*
X730Y2404D02*
X730Y2300D01*
X2008Y2300D01*
X2008Y2298D01*
X2016Y2298D01*
X2016Y2296D01*
X2022Y2296D01*
X2022Y2294D01*
X2026Y2294D01*
X2026Y2292D01*
X2030Y2292D01*
X2030Y2290D01*
X2032Y2290D01*
X2032Y2288D01*
X2036Y2288D01*
X2036Y2286D01*
X2038Y2286D01*
X2038Y2284D01*
X2040Y2284D01*
X2040Y2282D01*
X2042Y2282D01*
X2042Y2280D01*
X2044Y2280D01*
X2044Y2278D01*
X2046Y2278D01*
X2046Y2276D01*
X2048Y2276D01*
X2048Y2274D01*
X2050Y2274D01*
X2050Y2272D01*
X2052Y2272D01*
X2052Y2270D01*
X2054Y2270D01*
X2054Y2266D01*
X2056Y2266D01*
X2056Y2264D01*
X2058Y2264D01*
X2058Y2260D01*
X2060Y2260D01*
X2060Y2256D01*
X2062Y2256D01*
X2062Y2250D01*
X2064Y2250D01*
X2064Y2238D01*
X2066Y2238D01*
X2066Y2234D01*
X2064Y2234D01*
X2064Y2222D01*
X2062Y2222D01*
X2062Y2216D01*
X2060Y2216D01*
X2060Y2212D01*
X2058Y2212D01*
X2058Y2208D01*
X2056Y2208D01*
X2056Y2206D01*
X2054Y2206D01*
X2054Y2202D01*
X2052Y2202D01*
X2052Y2200D01*
X2050Y2200D01*
X2050Y2198D01*
X2048Y2198D01*
X2048Y2196D01*
X2046Y2196D01*
X2046Y2176D01*
X2048Y2176D01*
X2048Y2174D01*
X2050Y2174D01*
X2050Y2172D01*
X2052Y2172D01*
X2052Y2170D01*
X2054Y2170D01*
X2054Y2166D01*
X2056Y2166D01*
X2056Y2164D01*
X2058Y2164D01*
X2058Y2160D01*
X2060Y2160D01*
X2060Y2156D01*
X2062Y2156D01*
X2062Y2150D01*
X2064Y2150D01*
X2064Y2138D01*
X2066Y2138D01*
X2066Y2134D01*
X2064Y2134D01*
X2064Y2122D01*
X2062Y2122D01*
X2062Y2116D01*
X2060Y2116D01*
X2060Y2112D01*
X2058Y2112D01*
X2058Y2108D01*
X2056Y2108D01*
X2056Y2106D01*
X2054Y2106D01*
X2054Y2102D01*
X2052Y2102D01*
X2052Y2100D01*
X2050Y2100D01*
X2050Y2098D01*
X2048Y2098D01*
X2048Y2096D01*
X2046Y2096D01*
X2046Y2094D01*
X2044Y2094D01*
X2044Y2092D01*
X2042Y2092D01*
X2042Y2090D01*
X2040Y2090D01*
X2040Y2088D01*
X2038Y2088D01*
X2038Y2086D01*
X2036Y2086D01*
X2036Y2084D01*
X2032Y2084D01*
X2032Y2082D01*
X2030Y2082D01*
X2030Y2080D01*
X2026Y2080D01*
X2026Y2078D01*
X2020Y2078D01*
X2020Y2076D01*
X2016Y2076D01*
X2016Y2074D01*
X2004Y2074D01*
X2004Y2072D01*
X2196Y2072D01*
X2196Y2404D01*
X730Y2404D01*
G37*
D02*
G36*
X730Y2300D02*
X730Y2268D01*
X1012Y2268D01*
X1012Y2266D01*
X1948Y2266D01*
X1948Y2268D01*
X1950Y2268D01*
X1950Y2270D01*
X1952Y2270D01*
X1952Y2272D01*
X1954Y2272D01*
X1954Y2274D01*
X1956Y2274D01*
X1956Y2276D01*
X1958Y2276D01*
X1958Y2280D01*
X1962Y2280D01*
X1962Y2282D01*
X1964Y2282D01*
X1964Y2284D01*
X1966Y2284D01*
X1966Y2286D01*
X1968Y2286D01*
X1968Y2288D01*
X1970Y2288D01*
X1970Y2290D01*
X1974Y2290D01*
X1974Y2292D01*
X1978Y2292D01*
X1978Y2294D01*
X1982Y2294D01*
X1982Y2296D01*
X1988Y2296D01*
X1988Y2298D01*
X1996Y2298D01*
X1996Y2300D01*
X730Y2300D01*
G37*
D02*
G36*
X552Y2072D02*
X552Y2070D01*
X2196Y2070D01*
X2196Y2072D01*
X552Y2072D01*
G37*
D02*
G36*
X552Y2072D02*
X552Y2070D01*
X2196Y2070D01*
X2196Y2072D01*
X552Y2072D01*
G37*
D02*
G36*
X554Y2070D02*
X554Y2066D01*
X556Y2066D01*
X556Y2064D01*
X558Y2064D01*
X558Y2060D01*
X560Y2060D01*
X560Y2056D01*
X562Y2056D01*
X562Y2050D01*
X564Y2050D01*
X564Y2038D01*
X566Y2038D01*
X566Y2034D01*
X564Y2034D01*
X564Y2022D01*
X562Y2022D01*
X562Y2016D01*
X560Y2016D01*
X560Y2012D01*
X558Y2012D01*
X558Y2008D01*
X556Y2008D01*
X556Y2006D01*
X554Y2006D01*
X554Y2002D01*
X552Y2002D01*
X552Y2000D01*
X550Y2000D01*
X550Y1998D01*
X548Y1998D01*
X548Y1996D01*
X546Y1996D01*
X546Y1994D01*
X544Y1994D01*
X544Y1992D01*
X542Y1992D01*
X542Y1990D01*
X540Y1990D01*
X540Y1988D01*
X538Y1988D01*
X538Y1986D01*
X536Y1986D01*
X536Y1984D01*
X532Y1984D01*
X532Y1946D01*
X530Y1946D01*
X530Y1926D01*
X528Y1926D01*
X528Y1922D01*
X526Y1922D01*
X526Y1918D01*
X524Y1918D01*
X524Y1916D01*
X522Y1916D01*
X522Y1914D01*
X520Y1914D01*
X520Y1912D01*
X518Y1912D01*
X518Y1910D01*
X514Y1910D01*
X514Y1908D01*
X508Y1908D01*
X508Y1906D01*
X132Y1906D01*
X132Y1900D01*
X2008Y1900D01*
X2008Y1898D01*
X2016Y1898D01*
X2016Y1896D01*
X2022Y1896D01*
X2022Y1894D01*
X2026Y1894D01*
X2026Y1892D01*
X2030Y1892D01*
X2030Y1890D01*
X2032Y1890D01*
X2032Y1888D01*
X2036Y1888D01*
X2036Y1886D01*
X2038Y1886D01*
X2038Y1884D01*
X2040Y1884D01*
X2040Y1882D01*
X2042Y1882D01*
X2042Y1880D01*
X2044Y1880D01*
X2044Y1878D01*
X2046Y1878D01*
X2046Y1876D01*
X2048Y1876D01*
X2048Y1874D01*
X2050Y1874D01*
X2050Y1872D01*
X2052Y1872D01*
X2052Y1870D01*
X2054Y1870D01*
X2054Y1866D01*
X2056Y1866D01*
X2056Y1864D01*
X2058Y1864D01*
X2058Y1860D01*
X2060Y1860D01*
X2060Y1856D01*
X2062Y1856D01*
X2062Y1850D01*
X2064Y1850D01*
X2064Y1838D01*
X2066Y1838D01*
X2066Y1834D01*
X2064Y1834D01*
X2064Y1822D01*
X2062Y1822D01*
X2062Y1816D01*
X2060Y1816D01*
X2060Y1812D01*
X2058Y1812D01*
X2058Y1808D01*
X2056Y1808D01*
X2056Y1806D01*
X2054Y1806D01*
X2054Y1802D01*
X2052Y1802D01*
X2052Y1800D01*
X2050Y1800D01*
X2050Y1798D01*
X2048Y1798D01*
X2048Y1796D01*
X2046Y1796D01*
X2046Y1776D01*
X2048Y1776D01*
X2048Y1774D01*
X2050Y1774D01*
X2050Y1772D01*
X2052Y1772D01*
X2052Y1770D01*
X2054Y1770D01*
X2054Y1766D01*
X2056Y1766D01*
X2056Y1764D01*
X2058Y1764D01*
X2058Y1760D01*
X2060Y1760D01*
X2060Y1756D01*
X2062Y1756D01*
X2062Y1750D01*
X2064Y1750D01*
X2064Y1738D01*
X2066Y1738D01*
X2066Y1734D01*
X2064Y1734D01*
X2064Y1722D01*
X2062Y1722D01*
X2062Y1716D01*
X2060Y1716D01*
X2060Y1712D01*
X2058Y1712D01*
X2058Y1708D01*
X2056Y1708D01*
X2056Y1706D01*
X2054Y1706D01*
X2054Y1702D01*
X2052Y1702D01*
X2052Y1700D01*
X2050Y1700D01*
X2050Y1698D01*
X2048Y1698D01*
X2048Y1696D01*
X2046Y1696D01*
X2046Y1676D01*
X2048Y1676D01*
X2048Y1674D01*
X2050Y1674D01*
X2050Y1672D01*
X2052Y1672D01*
X2052Y1670D01*
X2054Y1670D01*
X2054Y1666D01*
X2056Y1666D01*
X2056Y1664D01*
X2058Y1664D01*
X2058Y1660D01*
X2060Y1660D01*
X2060Y1656D01*
X2062Y1656D01*
X2062Y1650D01*
X2064Y1650D01*
X2064Y1638D01*
X2066Y1638D01*
X2066Y1634D01*
X2064Y1634D01*
X2064Y1622D01*
X2062Y1622D01*
X2062Y1616D01*
X2060Y1616D01*
X2060Y1612D01*
X2058Y1612D01*
X2058Y1608D01*
X2056Y1608D01*
X2056Y1606D01*
X2054Y1606D01*
X2054Y1602D01*
X2052Y1602D01*
X2052Y1600D01*
X2050Y1600D01*
X2050Y1598D01*
X2048Y1598D01*
X2048Y1596D01*
X2046Y1596D01*
X2046Y1576D01*
X2048Y1576D01*
X2048Y1574D01*
X2050Y1574D01*
X2050Y1572D01*
X2052Y1572D01*
X2052Y1570D01*
X2054Y1570D01*
X2054Y1566D01*
X2056Y1566D01*
X2056Y1564D01*
X2058Y1564D01*
X2058Y1560D01*
X2060Y1560D01*
X2060Y1556D01*
X2062Y1556D01*
X2062Y1550D01*
X2064Y1550D01*
X2064Y1538D01*
X2066Y1538D01*
X2066Y1534D01*
X2064Y1534D01*
X2064Y1522D01*
X2062Y1522D01*
X2062Y1516D01*
X2060Y1516D01*
X2060Y1512D01*
X2058Y1512D01*
X2058Y1508D01*
X2056Y1508D01*
X2056Y1506D01*
X2054Y1506D01*
X2054Y1502D01*
X2052Y1502D01*
X2052Y1500D01*
X2050Y1500D01*
X2050Y1498D01*
X2048Y1498D01*
X2048Y1496D01*
X2046Y1496D01*
X2046Y1476D01*
X2048Y1476D01*
X2048Y1474D01*
X2050Y1474D01*
X2050Y1472D01*
X2052Y1472D01*
X2052Y1470D01*
X2054Y1470D01*
X2054Y1466D01*
X2056Y1466D01*
X2056Y1464D01*
X2058Y1464D01*
X2058Y1460D01*
X2060Y1460D01*
X2060Y1456D01*
X2062Y1456D01*
X2062Y1450D01*
X2064Y1450D01*
X2064Y1438D01*
X2066Y1438D01*
X2066Y1434D01*
X2064Y1434D01*
X2064Y1422D01*
X2062Y1422D01*
X2062Y1416D01*
X2060Y1416D01*
X2060Y1412D01*
X2058Y1412D01*
X2058Y1408D01*
X2056Y1408D01*
X2056Y1406D01*
X2054Y1406D01*
X2054Y1402D01*
X2052Y1402D01*
X2052Y1400D01*
X2050Y1400D01*
X2050Y1398D01*
X2048Y1398D01*
X2048Y1396D01*
X2046Y1396D01*
X2046Y1376D01*
X2048Y1376D01*
X2048Y1374D01*
X2050Y1374D01*
X2050Y1372D01*
X2052Y1372D01*
X2052Y1370D01*
X2054Y1370D01*
X2054Y1366D01*
X2056Y1366D01*
X2056Y1364D01*
X2058Y1364D01*
X2058Y1360D01*
X2060Y1360D01*
X2060Y1356D01*
X2062Y1356D01*
X2062Y1350D01*
X2064Y1350D01*
X2064Y1338D01*
X2066Y1338D01*
X2066Y1334D01*
X2064Y1334D01*
X2064Y1322D01*
X2062Y1322D01*
X2062Y1316D01*
X2060Y1316D01*
X2060Y1312D01*
X2058Y1312D01*
X2058Y1308D01*
X2056Y1308D01*
X2056Y1306D01*
X2054Y1306D01*
X2054Y1302D01*
X2052Y1302D01*
X2052Y1300D01*
X2050Y1300D01*
X2050Y1298D01*
X2048Y1298D01*
X2048Y1296D01*
X2046Y1296D01*
X2046Y1294D01*
X2044Y1294D01*
X2044Y1292D01*
X2042Y1292D01*
X2042Y1290D01*
X2040Y1290D01*
X2040Y1288D01*
X2038Y1288D01*
X2038Y1286D01*
X2036Y1286D01*
X2036Y1284D01*
X2032Y1284D01*
X2032Y1282D01*
X2030Y1282D01*
X2030Y1280D01*
X2026Y1280D01*
X2026Y1278D01*
X2020Y1278D01*
X2020Y1276D01*
X2016Y1276D01*
X2016Y1274D01*
X2004Y1274D01*
X2004Y1272D01*
X2196Y1272D01*
X2196Y2070D01*
X554Y2070D01*
G37*
D02*
G36*
X132Y1900D02*
X132Y1868D01*
X958Y1868D01*
X958Y1866D01*
X1948Y1866D01*
X1948Y1868D01*
X1950Y1868D01*
X1950Y1870D01*
X1952Y1870D01*
X1952Y1872D01*
X1954Y1872D01*
X1954Y1874D01*
X1956Y1874D01*
X1956Y1876D01*
X1958Y1876D01*
X1958Y1880D01*
X1962Y1880D01*
X1962Y1882D01*
X1964Y1882D01*
X1964Y1884D01*
X1966Y1884D01*
X1966Y1886D01*
X1968Y1886D01*
X1968Y1888D01*
X1970Y1888D01*
X1970Y1890D01*
X1974Y1890D01*
X1974Y1892D01*
X1978Y1892D01*
X1978Y1894D01*
X1982Y1894D01*
X1982Y1896D01*
X1988Y1896D01*
X1988Y1898D01*
X1996Y1898D01*
X1996Y1900D01*
X132Y1900D01*
G37*
D02*
G36*
X132Y1868D02*
X132Y1824D01*
X130Y1824D01*
X130Y1600D01*
X258Y1600D01*
X258Y1598D01*
X266Y1598D01*
X266Y1596D01*
X272Y1596D01*
X272Y1594D01*
X276Y1594D01*
X276Y1592D01*
X280Y1592D01*
X280Y1590D01*
X282Y1590D01*
X282Y1588D01*
X286Y1588D01*
X286Y1586D01*
X288Y1586D01*
X288Y1584D01*
X290Y1584D01*
X290Y1582D01*
X292Y1582D01*
X292Y1580D01*
X294Y1580D01*
X294Y1578D01*
X296Y1578D01*
X296Y1576D01*
X298Y1576D01*
X298Y1574D01*
X300Y1574D01*
X300Y1572D01*
X302Y1572D01*
X302Y1570D01*
X322Y1570D01*
X322Y1846D01*
X324Y1846D01*
X324Y1850D01*
X326Y1850D01*
X326Y1854D01*
X328Y1854D01*
X328Y1856D01*
X330Y1856D01*
X330Y1860D01*
X334Y1860D01*
X334Y1862D01*
X336Y1862D01*
X336Y1864D01*
X340Y1864D01*
X340Y1866D01*
X346Y1866D01*
X346Y1868D01*
X132Y1868D01*
G37*
D02*
G36*
X1282Y1608D02*
X1282Y1326D01*
X1280Y1326D01*
X1280Y1322D01*
X1278Y1322D01*
X1278Y1318D01*
X1276Y1318D01*
X1276Y1316D01*
X1274Y1316D01*
X1274Y1314D01*
X1272Y1314D01*
X1272Y1312D01*
X1270Y1312D01*
X1270Y1310D01*
X1266Y1310D01*
X1266Y1308D01*
X1260Y1308D01*
X1260Y1306D01*
X1204Y1306D01*
X1204Y1302D01*
X1202Y1302D01*
X1202Y1300D01*
X1200Y1300D01*
X1200Y1298D01*
X1198Y1298D01*
X1198Y1296D01*
X1196Y1296D01*
X1196Y1276D01*
X1198Y1276D01*
X1198Y1274D01*
X1200Y1274D01*
X1200Y1272D01*
X1202Y1272D01*
X1202Y1270D01*
X1204Y1270D01*
X1204Y1266D01*
X1206Y1266D01*
X1206Y1264D01*
X1208Y1264D01*
X1208Y1260D01*
X1210Y1260D01*
X1210Y1256D01*
X1212Y1256D01*
X1212Y1250D01*
X1214Y1250D01*
X1214Y1238D01*
X1216Y1238D01*
X1216Y1234D01*
X1214Y1234D01*
X1214Y1222D01*
X1212Y1222D01*
X1212Y1216D01*
X1210Y1216D01*
X1210Y1212D01*
X1208Y1212D01*
X1208Y1208D01*
X1206Y1208D01*
X1206Y1206D01*
X1204Y1206D01*
X1204Y1202D01*
X1202Y1202D01*
X1202Y1200D01*
X1200Y1200D01*
X1200Y1198D01*
X1198Y1198D01*
X1198Y1196D01*
X1196Y1196D01*
X1196Y1194D01*
X1194Y1194D01*
X1194Y1192D01*
X1192Y1192D01*
X1192Y1190D01*
X1190Y1190D01*
X1190Y1188D01*
X1188Y1188D01*
X1188Y1186D01*
X1186Y1186D01*
X1186Y1184D01*
X1182Y1184D01*
X1182Y1182D01*
X1180Y1182D01*
X1180Y1180D01*
X1176Y1180D01*
X1176Y1178D01*
X1170Y1178D01*
X1170Y1176D01*
X1166Y1176D01*
X1166Y1174D01*
X1154Y1174D01*
X1154Y1172D01*
X1450Y1172D01*
X1450Y1174D01*
X1438Y1174D01*
X1438Y1176D01*
X1432Y1176D01*
X1432Y1178D01*
X1428Y1178D01*
X1428Y1180D01*
X1424Y1180D01*
X1424Y1182D01*
X1422Y1182D01*
X1422Y1184D01*
X1418Y1184D01*
X1418Y1186D01*
X1416Y1186D01*
X1416Y1188D01*
X1414Y1188D01*
X1414Y1190D01*
X1412Y1190D01*
X1412Y1192D01*
X1410Y1192D01*
X1410Y1194D01*
X1408Y1194D01*
X1408Y1196D01*
X1406Y1196D01*
X1406Y1198D01*
X1404Y1198D01*
X1404Y1200D01*
X1402Y1200D01*
X1402Y1202D01*
X1400Y1202D01*
X1400Y1206D01*
X1398Y1206D01*
X1398Y1208D01*
X1396Y1208D01*
X1396Y1212D01*
X1394Y1212D01*
X1394Y1216D01*
X1392Y1216D01*
X1392Y1222D01*
X1390Y1222D01*
X1390Y1230D01*
X1388Y1230D01*
X1388Y1242D01*
X1390Y1242D01*
X1390Y1250D01*
X1392Y1250D01*
X1392Y1256D01*
X1394Y1256D01*
X1394Y1260D01*
X1396Y1260D01*
X1396Y1264D01*
X1398Y1264D01*
X1398Y1268D01*
X1400Y1268D01*
X1400Y1270D01*
X1402Y1270D01*
X1402Y1272D01*
X1404Y1272D01*
X1404Y1274D01*
X1406Y1274D01*
X1406Y1276D01*
X1408Y1276D01*
X1408Y1296D01*
X1406Y1296D01*
X1406Y1298D01*
X1404Y1298D01*
X1404Y1300D01*
X1402Y1300D01*
X1402Y1302D01*
X1400Y1302D01*
X1400Y1306D01*
X1398Y1306D01*
X1398Y1308D01*
X1396Y1308D01*
X1396Y1312D01*
X1394Y1312D01*
X1394Y1316D01*
X1392Y1316D01*
X1392Y1322D01*
X1390Y1322D01*
X1390Y1330D01*
X1388Y1330D01*
X1388Y1342D01*
X1390Y1342D01*
X1390Y1350D01*
X1392Y1350D01*
X1392Y1356D01*
X1394Y1356D01*
X1394Y1360D01*
X1396Y1360D01*
X1396Y1364D01*
X1398Y1364D01*
X1398Y1368D01*
X1400Y1368D01*
X1400Y1370D01*
X1402Y1370D01*
X1402Y1372D01*
X1404Y1372D01*
X1404Y1374D01*
X1406Y1374D01*
X1406Y1376D01*
X1408Y1376D01*
X1408Y1396D01*
X1406Y1396D01*
X1406Y1398D01*
X1404Y1398D01*
X1404Y1400D01*
X1402Y1400D01*
X1402Y1402D01*
X1400Y1402D01*
X1400Y1406D01*
X1398Y1406D01*
X1398Y1408D01*
X1396Y1408D01*
X1396Y1412D01*
X1394Y1412D01*
X1394Y1416D01*
X1392Y1416D01*
X1392Y1422D01*
X1390Y1422D01*
X1390Y1430D01*
X1388Y1430D01*
X1388Y1442D01*
X1390Y1442D01*
X1390Y1450D01*
X1392Y1450D01*
X1392Y1456D01*
X1394Y1456D01*
X1394Y1460D01*
X1396Y1460D01*
X1396Y1464D01*
X1398Y1464D01*
X1398Y1468D01*
X1400Y1468D01*
X1400Y1470D01*
X1402Y1470D01*
X1402Y1472D01*
X1404Y1472D01*
X1404Y1474D01*
X1406Y1474D01*
X1406Y1476D01*
X1408Y1476D01*
X1408Y1496D01*
X1406Y1496D01*
X1406Y1498D01*
X1404Y1498D01*
X1404Y1500D01*
X1402Y1500D01*
X1402Y1502D01*
X1400Y1502D01*
X1400Y1506D01*
X1398Y1506D01*
X1398Y1508D01*
X1396Y1508D01*
X1396Y1512D01*
X1394Y1512D01*
X1394Y1516D01*
X1392Y1516D01*
X1392Y1522D01*
X1390Y1522D01*
X1390Y1530D01*
X1388Y1530D01*
X1388Y1542D01*
X1390Y1542D01*
X1390Y1550D01*
X1392Y1550D01*
X1392Y1556D01*
X1394Y1556D01*
X1394Y1560D01*
X1396Y1560D01*
X1396Y1564D01*
X1398Y1564D01*
X1398Y1568D01*
X1400Y1568D01*
X1400Y1570D01*
X1402Y1570D01*
X1402Y1572D01*
X1404Y1572D01*
X1404Y1574D01*
X1406Y1574D01*
X1406Y1576D01*
X1408Y1576D01*
X1408Y1580D01*
X1412Y1580D01*
X1412Y1582D01*
X1414Y1582D01*
X1414Y1584D01*
X1416Y1584D01*
X1416Y1586D01*
X1418Y1586D01*
X1418Y1588D01*
X1420Y1588D01*
X1420Y1608D01*
X1282Y1608D01*
G37*
D02*
G36*
X130Y1600D02*
X130Y1468D01*
X154Y1468D01*
X154Y1466D01*
X198Y1466D01*
X198Y1468D01*
X200Y1468D01*
X200Y1470D01*
X202Y1470D01*
X202Y1472D01*
X204Y1472D01*
X204Y1474D01*
X206Y1474D01*
X206Y1476D01*
X208Y1476D01*
X208Y1496D01*
X206Y1496D01*
X206Y1498D01*
X204Y1498D01*
X204Y1500D01*
X202Y1500D01*
X202Y1502D01*
X200Y1502D01*
X200Y1506D01*
X198Y1506D01*
X198Y1508D01*
X196Y1508D01*
X196Y1512D01*
X194Y1512D01*
X194Y1516D01*
X192Y1516D01*
X192Y1522D01*
X190Y1522D01*
X190Y1530D01*
X188Y1530D01*
X188Y1542D01*
X190Y1542D01*
X190Y1550D01*
X192Y1550D01*
X192Y1556D01*
X194Y1556D01*
X194Y1560D01*
X196Y1560D01*
X196Y1564D01*
X198Y1564D01*
X198Y1568D01*
X200Y1568D01*
X200Y1570D01*
X202Y1570D01*
X202Y1572D01*
X204Y1572D01*
X204Y1574D01*
X206Y1574D01*
X206Y1576D01*
X208Y1576D01*
X208Y1580D01*
X212Y1580D01*
X212Y1582D01*
X214Y1582D01*
X214Y1584D01*
X216Y1584D01*
X216Y1586D01*
X218Y1586D01*
X218Y1588D01*
X220Y1588D01*
X220Y1590D01*
X224Y1590D01*
X224Y1592D01*
X228Y1592D01*
X228Y1594D01*
X232Y1594D01*
X232Y1596D01*
X238Y1596D01*
X238Y1598D01*
X246Y1598D01*
X246Y1600D01*
X130Y1600D01*
G37*
D02*
G36*
X130Y1408D02*
X130Y1172D01*
X250Y1172D01*
X250Y1174D01*
X238Y1174D01*
X238Y1176D01*
X232Y1176D01*
X232Y1178D01*
X228Y1178D01*
X228Y1180D01*
X224Y1180D01*
X224Y1182D01*
X222Y1182D01*
X222Y1184D01*
X218Y1184D01*
X218Y1186D01*
X216Y1186D01*
X216Y1188D01*
X214Y1188D01*
X214Y1190D01*
X212Y1190D01*
X212Y1192D01*
X210Y1192D01*
X210Y1194D01*
X208Y1194D01*
X208Y1196D01*
X206Y1196D01*
X206Y1198D01*
X204Y1198D01*
X204Y1200D01*
X202Y1200D01*
X202Y1202D01*
X200Y1202D01*
X200Y1206D01*
X198Y1206D01*
X198Y1208D01*
X196Y1208D01*
X196Y1212D01*
X194Y1212D01*
X194Y1216D01*
X192Y1216D01*
X192Y1222D01*
X190Y1222D01*
X190Y1230D01*
X188Y1230D01*
X188Y1242D01*
X190Y1242D01*
X190Y1250D01*
X192Y1250D01*
X192Y1256D01*
X194Y1256D01*
X194Y1260D01*
X196Y1260D01*
X196Y1264D01*
X198Y1264D01*
X198Y1268D01*
X200Y1268D01*
X200Y1270D01*
X202Y1270D01*
X202Y1272D01*
X204Y1272D01*
X204Y1274D01*
X206Y1274D01*
X206Y1276D01*
X208Y1276D01*
X208Y1296D01*
X206Y1296D01*
X206Y1298D01*
X204Y1298D01*
X204Y1300D01*
X202Y1300D01*
X202Y1302D01*
X200Y1302D01*
X200Y1306D01*
X198Y1306D01*
X198Y1308D01*
X196Y1308D01*
X196Y1312D01*
X194Y1312D01*
X194Y1316D01*
X192Y1316D01*
X192Y1322D01*
X190Y1322D01*
X190Y1330D01*
X188Y1330D01*
X188Y1342D01*
X190Y1342D01*
X190Y1350D01*
X192Y1350D01*
X192Y1356D01*
X194Y1356D01*
X194Y1360D01*
X196Y1360D01*
X196Y1364D01*
X198Y1364D01*
X198Y1368D01*
X200Y1368D01*
X200Y1370D01*
X202Y1370D01*
X202Y1372D01*
X204Y1372D01*
X204Y1374D01*
X206Y1374D01*
X206Y1376D01*
X208Y1376D01*
X208Y1396D01*
X206Y1396D01*
X206Y1398D01*
X204Y1398D01*
X204Y1400D01*
X202Y1400D01*
X202Y1402D01*
X200Y1402D01*
X200Y1406D01*
X152Y1406D01*
X152Y1408D01*
X130Y1408D01*
G37*
D02*
G36*
X554Y1406D02*
X554Y1402D01*
X552Y1402D01*
X552Y1400D01*
X550Y1400D01*
X550Y1398D01*
X548Y1398D01*
X548Y1396D01*
X546Y1396D01*
X546Y1376D01*
X548Y1376D01*
X548Y1374D01*
X550Y1374D01*
X550Y1372D01*
X552Y1372D01*
X552Y1370D01*
X554Y1370D01*
X554Y1366D01*
X556Y1366D01*
X556Y1364D01*
X558Y1364D01*
X558Y1360D01*
X560Y1360D01*
X560Y1356D01*
X562Y1356D01*
X562Y1350D01*
X564Y1350D01*
X564Y1338D01*
X566Y1338D01*
X566Y1334D01*
X564Y1334D01*
X564Y1322D01*
X562Y1322D01*
X562Y1316D01*
X560Y1316D01*
X560Y1312D01*
X558Y1312D01*
X558Y1308D01*
X556Y1308D01*
X556Y1306D01*
X554Y1306D01*
X554Y1302D01*
X552Y1302D01*
X552Y1300D01*
X550Y1300D01*
X550Y1298D01*
X548Y1298D01*
X548Y1296D01*
X546Y1296D01*
X546Y1276D01*
X548Y1276D01*
X548Y1274D01*
X550Y1274D01*
X550Y1272D01*
X552Y1272D01*
X552Y1270D01*
X554Y1270D01*
X554Y1266D01*
X556Y1266D01*
X556Y1264D01*
X558Y1264D01*
X558Y1260D01*
X560Y1260D01*
X560Y1256D01*
X562Y1256D01*
X562Y1250D01*
X564Y1250D01*
X564Y1238D01*
X566Y1238D01*
X566Y1234D01*
X564Y1234D01*
X564Y1222D01*
X562Y1222D01*
X562Y1216D01*
X560Y1216D01*
X560Y1212D01*
X558Y1212D01*
X558Y1208D01*
X556Y1208D01*
X556Y1206D01*
X554Y1206D01*
X554Y1202D01*
X552Y1202D01*
X552Y1200D01*
X550Y1200D01*
X550Y1198D01*
X548Y1198D01*
X548Y1196D01*
X546Y1196D01*
X546Y1194D01*
X544Y1194D01*
X544Y1192D01*
X542Y1192D01*
X542Y1190D01*
X540Y1190D01*
X540Y1188D01*
X538Y1188D01*
X538Y1186D01*
X536Y1186D01*
X536Y1184D01*
X532Y1184D01*
X532Y1182D01*
X530Y1182D01*
X530Y1180D01*
X526Y1180D01*
X526Y1178D01*
X520Y1178D01*
X520Y1176D01*
X516Y1176D01*
X516Y1174D01*
X504Y1174D01*
X504Y1172D01*
X700Y1172D01*
X700Y1174D01*
X688Y1174D01*
X688Y1176D01*
X682Y1176D01*
X682Y1178D01*
X678Y1178D01*
X678Y1180D01*
X674Y1180D01*
X674Y1182D01*
X672Y1182D01*
X672Y1184D01*
X668Y1184D01*
X668Y1186D01*
X666Y1186D01*
X666Y1188D01*
X664Y1188D01*
X664Y1190D01*
X662Y1190D01*
X662Y1192D01*
X660Y1192D01*
X660Y1194D01*
X658Y1194D01*
X658Y1196D01*
X656Y1196D01*
X656Y1198D01*
X654Y1198D01*
X654Y1200D01*
X652Y1200D01*
X652Y1202D01*
X650Y1202D01*
X650Y1206D01*
X648Y1206D01*
X648Y1208D01*
X646Y1208D01*
X646Y1212D01*
X644Y1212D01*
X644Y1216D01*
X642Y1216D01*
X642Y1222D01*
X640Y1222D01*
X640Y1230D01*
X638Y1230D01*
X638Y1242D01*
X640Y1242D01*
X640Y1250D01*
X642Y1250D01*
X642Y1256D01*
X644Y1256D01*
X644Y1260D01*
X646Y1260D01*
X646Y1264D01*
X648Y1264D01*
X648Y1268D01*
X650Y1268D01*
X650Y1270D01*
X652Y1270D01*
X652Y1272D01*
X654Y1272D01*
X654Y1274D01*
X656Y1274D01*
X656Y1276D01*
X658Y1276D01*
X658Y1296D01*
X656Y1296D01*
X656Y1298D01*
X654Y1298D01*
X654Y1300D01*
X652Y1300D01*
X652Y1302D01*
X650Y1302D01*
X650Y1306D01*
X648Y1306D01*
X648Y1308D01*
X646Y1308D01*
X646Y1312D01*
X644Y1312D01*
X644Y1316D01*
X642Y1316D01*
X642Y1322D01*
X640Y1322D01*
X640Y1330D01*
X638Y1330D01*
X638Y1342D01*
X640Y1342D01*
X640Y1350D01*
X642Y1350D01*
X642Y1356D01*
X644Y1356D01*
X644Y1360D01*
X646Y1360D01*
X646Y1364D01*
X648Y1364D01*
X648Y1368D01*
X650Y1368D01*
X650Y1370D01*
X652Y1370D01*
X652Y1372D01*
X654Y1372D01*
X654Y1374D01*
X656Y1374D01*
X656Y1376D01*
X658Y1376D01*
X658Y1396D01*
X656Y1396D01*
X656Y1398D01*
X654Y1398D01*
X654Y1400D01*
X652Y1400D01*
X652Y1402D01*
X650Y1402D01*
X650Y1406D01*
X554Y1406D01*
G37*
D02*
G36*
X1004Y1406D02*
X1004Y1402D01*
X1002Y1402D01*
X1002Y1400D01*
X1000Y1400D01*
X1000Y1398D01*
X998Y1398D01*
X998Y1396D01*
X996Y1396D01*
X996Y1376D01*
X998Y1376D01*
X998Y1374D01*
X1000Y1374D01*
X1000Y1372D01*
X1002Y1372D01*
X1002Y1370D01*
X1004Y1370D01*
X1004Y1366D01*
X1006Y1366D01*
X1006Y1364D01*
X1008Y1364D01*
X1008Y1360D01*
X1010Y1360D01*
X1010Y1356D01*
X1012Y1356D01*
X1012Y1350D01*
X1014Y1350D01*
X1014Y1338D01*
X1016Y1338D01*
X1016Y1334D01*
X1014Y1334D01*
X1014Y1322D01*
X1012Y1322D01*
X1012Y1316D01*
X1010Y1316D01*
X1010Y1312D01*
X1008Y1312D01*
X1008Y1308D01*
X1006Y1308D01*
X1006Y1306D01*
X1004Y1306D01*
X1004Y1302D01*
X1002Y1302D01*
X1002Y1300D01*
X1000Y1300D01*
X1000Y1298D01*
X998Y1298D01*
X998Y1296D01*
X996Y1296D01*
X996Y1276D01*
X998Y1276D01*
X998Y1274D01*
X1000Y1274D01*
X1000Y1272D01*
X1002Y1272D01*
X1002Y1270D01*
X1004Y1270D01*
X1004Y1266D01*
X1006Y1266D01*
X1006Y1264D01*
X1008Y1264D01*
X1008Y1260D01*
X1010Y1260D01*
X1010Y1256D01*
X1012Y1256D01*
X1012Y1250D01*
X1014Y1250D01*
X1014Y1238D01*
X1016Y1238D01*
X1016Y1234D01*
X1014Y1234D01*
X1014Y1222D01*
X1012Y1222D01*
X1012Y1216D01*
X1010Y1216D01*
X1010Y1212D01*
X1008Y1212D01*
X1008Y1208D01*
X1006Y1208D01*
X1006Y1206D01*
X1004Y1206D01*
X1004Y1202D01*
X1002Y1202D01*
X1002Y1200D01*
X1000Y1200D01*
X1000Y1198D01*
X998Y1198D01*
X998Y1196D01*
X996Y1196D01*
X996Y1194D01*
X994Y1194D01*
X994Y1192D01*
X992Y1192D01*
X992Y1190D01*
X990Y1190D01*
X990Y1188D01*
X988Y1188D01*
X988Y1186D01*
X986Y1186D01*
X986Y1184D01*
X982Y1184D01*
X982Y1182D01*
X980Y1182D01*
X980Y1180D01*
X976Y1180D01*
X976Y1178D01*
X970Y1178D01*
X970Y1176D01*
X966Y1176D01*
X966Y1174D01*
X954Y1174D01*
X954Y1172D01*
X1150Y1172D01*
X1150Y1174D01*
X1138Y1174D01*
X1138Y1176D01*
X1132Y1176D01*
X1132Y1178D01*
X1128Y1178D01*
X1128Y1180D01*
X1124Y1180D01*
X1124Y1182D01*
X1122Y1182D01*
X1122Y1184D01*
X1118Y1184D01*
X1118Y1186D01*
X1116Y1186D01*
X1116Y1188D01*
X1114Y1188D01*
X1114Y1190D01*
X1112Y1190D01*
X1112Y1192D01*
X1110Y1192D01*
X1110Y1194D01*
X1108Y1194D01*
X1108Y1196D01*
X1106Y1196D01*
X1106Y1198D01*
X1104Y1198D01*
X1104Y1200D01*
X1102Y1200D01*
X1102Y1202D01*
X1100Y1202D01*
X1100Y1206D01*
X1098Y1206D01*
X1098Y1208D01*
X1096Y1208D01*
X1096Y1212D01*
X1094Y1212D01*
X1094Y1216D01*
X1092Y1216D01*
X1092Y1222D01*
X1090Y1222D01*
X1090Y1230D01*
X1088Y1230D01*
X1088Y1242D01*
X1090Y1242D01*
X1090Y1250D01*
X1092Y1250D01*
X1092Y1256D01*
X1094Y1256D01*
X1094Y1260D01*
X1096Y1260D01*
X1096Y1264D01*
X1098Y1264D01*
X1098Y1268D01*
X1100Y1268D01*
X1100Y1270D01*
X1102Y1270D01*
X1102Y1272D01*
X1104Y1272D01*
X1104Y1274D01*
X1106Y1274D01*
X1106Y1276D01*
X1108Y1276D01*
X1108Y1296D01*
X1106Y1296D01*
X1106Y1298D01*
X1104Y1298D01*
X1104Y1300D01*
X1102Y1300D01*
X1102Y1302D01*
X1100Y1302D01*
X1100Y1306D01*
X1098Y1306D01*
X1098Y1308D01*
X1096Y1308D01*
X1096Y1312D01*
X1094Y1312D01*
X1094Y1316D01*
X1092Y1316D01*
X1092Y1322D01*
X1090Y1322D01*
X1090Y1330D01*
X1088Y1330D01*
X1088Y1342D01*
X1090Y1342D01*
X1090Y1350D01*
X1092Y1350D01*
X1092Y1356D01*
X1094Y1356D01*
X1094Y1360D01*
X1096Y1360D01*
X1096Y1364D01*
X1098Y1364D01*
X1098Y1368D01*
X1100Y1368D01*
X1100Y1370D01*
X1102Y1370D01*
X1102Y1372D01*
X1104Y1372D01*
X1104Y1374D01*
X1106Y1374D01*
X1106Y1376D01*
X1108Y1376D01*
X1108Y1396D01*
X1106Y1396D01*
X1106Y1398D01*
X1104Y1398D01*
X1104Y1400D01*
X1102Y1400D01*
X1102Y1402D01*
X1100Y1402D01*
X1100Y1406D01*
X1004Y1406D01*
G37*
D02*
G36*
X366Y1310D02*
X366Y1308D01*
X360Y1308D01*
X360Y1306D01*
X304Y1306D01*
X304Y1302D01*
X302Y1302D01*
X302Y1300D01*
X300Y1300D01*
X300Y1298D01*
X298Y1298D01*
X298Y1296D01*
X296Y1296D01*
X296Y1276D01*
X298Y1276D01*
X298Y1274D01*
X300Y1274D01*
X300Y1272D01*
X302Y1272D01*
X302Y1270D01*
X304Y1270D01*
X304Y1266D01*
X306Y1266D01*
X306Y1264D01*
X308Y1264D01*
X308Y1260D01*
X310Y1260D01*
X310Y1256D01*
X312Y1256D01*
X312Y1250D01*
X314Y1250D01*
X314Y1238D01*
X316Y1238D01*
X316Y1234D01*
X314Y1234D01*
X314Y1222D01*
X312Y1222D01*
X312Y1216D01*
X310Y1216D01*
X310Y1212D01*
X308Y1212D01*
X308Y1208D01*
X306Y1208D01*
X306Y1206D01*
X304Y1206D01*
X304Y1202D01*
X302Y1202D01*
X302Y1200D01*
X300Y1200D01*
X300Y1198D01*
X298Y1198D01*
X298Y1196D01*
X296Y1196D01*
X296Y1194D01*
X294Y1194D01*
X294Y1192D01*
X292Y1192D01*
X292Y1190D01*
X290Y1190D01*
X290Y1188D01*
X288Y1188D01*
X288Y1186D01*
X286Y1186D01*
X286Y1184D01*
X282Y1184D01*
X282Y1182D01*
X280Y1182D01*
X280Y1180D01*
X276Y1180D01*
X276Y1178D01*
X270Y1178D01*
X270Y1176D01*
X266Y1176D01*
X266Y1174D01*
X254Y1174D01*
X254Y1172D01*
X500Y1172D01*
X500Y1174D01*
X488Y1174D01*
X488Y1176D01*
X482Y1176D01*
X482Y1178D01*
X478Y1178D01*
X478Y1180D01*
X474Y1180D01*
X474Y1182D01*
X472Y1182D01*
X472Y1184D01*
X468Y1184D01*
X468Y1186D01*
X466Y1186D01*
X466Y1188D01*
X464Y1188D01*
X464Y1190D01*
X462Y1190D01*
X462Y1192D01*
X460Y1192D01*
X460Y1194D01*
X458Y1194D01*
X458Y1196D01*
X456Y1196D01*
X456Y1198D01*
X454Y1198D01*
X454Y1200D01*
X452Y1200D01*
X452Y1202D01*
X450Y1202D01*
X450Y1206D01*
X448Y1206D01*
X448Y1208D01*
X446Y1208D01*
X446Y1212D01*
X444Y1212D01*
X444Y1216D01*
X442Y1216D01*
X442Y1222D01*
X440Y1222D01*
X440Y1230D01*
X438Y1230D01*
X438Y1242D01*
X440Y1242D01*
X440Y1250D01*
X442Y1250D01*
X442Y1256D01*
X444Y1256D01*
X444Y1260D01*
X446Y1260D01*
X446Y1264D01*
X448Y1264D01*
X448Y1268D01*
X450Y1268D01*
X450Y1270D01*
X452Y1270D01*
X452Y1272D01*
X454Y1272D01*
X454Y1274D01*
X456Y1274D01*
X456Y1276D01*
X458Y1276D01*
X458Y1296D01*
X456Y1296D01*
X456Y1298D01*
X454Y1298D01*
X454Y1300D01*
X452Y1300D01*
X452Y1302D01*
X450Y1302D01*
X450Y1306D01*
X396Y1306D01*
X396Y1308D01*
X390Y1308D01*
X390Y1310D01*
X366Y1310D01*
G37*
D02*
G36*
X814Y1310D02*
X814Y1308D01*
X810Y1308D01*
X810Y1306D01*
X754Y1306D01*
X754Y1302D01*
X752Y1302D01*
X752Y1300D01*
X750Y1300D01*
X750Y1298D01*
X748Y1298D01*
X748Y1296D01*
X746Y1296D01*
X746Y1276D01*
X748Y1276D01*
X748Y1274D01*
X750Y1274D01*
X750Y1272D01*
X752Y1272D01*
X752Y1270D01*
X754Y1270D01*
X754Y1266D01*
X756Y1266D01*
X756Y1264D01*
X758Y1264D01*
X758Y1260D01*
X760Y1260D01*
X760Y1256D01*
X762Y1256D01*
X762Y1250D01*
X764Y1250D01*
X764Y1238D01*
X766Y1238D01*
X766Y1234D01*
X764Y1234D01*
X764Y1222D01*
X762Y1222D01*
X762Y1216D01*
X760Y1216D01*
X760Y1212D01*
X758Y1212D01*
X758Y1208D01*
X756Y1208D01*
X756Y1206D01*
X754Y1206D01*
X754Y1202D01*
X752Y1202D01*
X752Y1200D01*
X750Y1200D01*
X750Y1198D01*
X748Y1198D01*
X748Y1196D01*
X746Y1196D01*
X746Y1194D01*
X744Y1194D01*
X744Y1192D01*
X742Y1192D01*
X742Y1190D01*
X740Y1190D01*
X740Y1188D01*
X738Y1188D01*
X738Y1186D01*
X736Y1186D01*
X736Y1184D01*
X732Y1184D01*
X732Y1182D01*
X730Y1182D01*
X730Y1180D01*
X726Y1180D01*
X726Y1178D01*
X720Y1178D01*
X720Y1176D01*
X716Y1176D01*
X716Y1174D01*
X704Y1174D01*
X704Y1172D01*
X950Y1172D01*
X950Y1174D01*
X938Y1174D01*
X938Y1176D01*
X932Y1176D01*
X932Y1178D01*
X928Y1178D01*
X928Y1180D01*
X924Y1180D01*
X924Y1182D01*
X922Y1182D01*
X922Y1184D01*
X918Y1184D01*
X918Y1186D01*
X916Y1186D01*
X916Y1188D01*
X914Y1188D01*
X914Y1190D01*
X912Y1190D01*
X912Y1192D01*
X910Y1192D01*
X910Y1194D01*
X908Y1194D01*
X908Y1196D01*
X906Y1196D01*
X906Y1198D01*
X904Y1198D01*
X904Y1200D01*
X902Y1200D01*
X902Y1202D01*
X900Y1202D01*
X900Y1206D01*
X898Y1206D01*
X898Y1208D01*
X896Y1208D01*
X896Y1212D01*
X894Y1212D01*
X894Y1216D01*
X892Y1216D01*
X892Y1222D01*
X890Y1222D01*
X890Y1230D01*
X888Y1230D01*
X888Y1242D01*
X890Y1242D01*
X890Y1250D01*
X892Y1250D01*
X892Y1256D01*
X894Y1256D01*
X894Y1260D01*
X896Y1260D01*
X896Y1264D01*
X898Y1264D01*
X898Y1268D01*
X900Y1268D01*
X900Y1270D01*
X902Y1270D01*
X902Y1272D01*
X904Y1272D01*
X904Y1274D01*
X906Y1274D01*
X906Y1276D01*
X908Y1276D01*
X908Y1296D01*
X906Y1296D01*
X906Y1298D01*
X904Y1298D01*
X904Y1300D01*
X902Y1300D01*
X902Y1302D01*
X900Y1302D01*
X900Y1306D01*
X846Y1306D01*
X846Y1308D01*
X840Y1308D01*
X840Y1310D01*
X814Y1310D01*
G37*
D02*
G36*
X1504Y1306D02*
X1504Y1302D01*
X1502Y1302D01*
X1502Y1300D01*
X1500Y1300D01*
X1500Y1298D01*
X1498Y1298D01*
X1498Y1296D01*
X1496Y1296D01*
X1496Y1276D01*
X1498Y1276D01*
X1498Y1274D01*
X1500Y1274D01*
X1500Y1272D01*
X2000Y1272D01*
X2000Y1274D01*
X1988Y1274D01*
X1988Y1276D01*
X1982Y1276D01*
X1982Y1278D01*
X1978Y1278D01*
X1978Y1280D01*
X1974Y1280D01*
X1974Y1282D01*
X1972Y1282D01*
X1972Y1284D01*
X1968Y1284D01*
X1968Y1286D01*
X1966Y1286D01*
X1966Y1288D01*
X1964Y1288D01*
X1964Y1290D01*
X1962Y1290D01*
X1962Y1292D01*
X1960Y1292D01*
X1960Y1294D01*
X1958Y1294D01*
X1958Y1296D01*
X1956Y1296D01*
X1956Y1298D01*
X1954Y1298D01*
X1954Y1300D01*
X1952Y1300D01*
X1952Y1302D01*
X1950Y1302D01*
X1950Y1306D01*
X1504Y1306D01*
G37*
D02*
G36*
X1502Y1272D02*
X1502Y1270D01*
X2196Y1270D01*
X2196Y1272D01*
X1502Y1272D01*
G37*
D02*
G36*
X1502Y1272D02*
X1502Y1270D01*
X2196Y1270D01*
X2196Y1272D01*
X1502Y1272D01*
G37*
D02*
G36*
X1504Y1270D02*
X1504Y1266D01*
X1506Y1266D01*
X1506Y1264D01*
X1508Y1264D01*
X1508Y1260D01*
X1510Y1260D01*
X1510Y1256D01*
X1512Y1256D01*
X1512Y1250D01*
X1514Y1250D01*
X1514Y1238D01*
X1516Y1238D01*
X1516Y1234D01*
X1514Y1234D01*
X1514Y1222D01*
X1512Y1222D01*
X1512Y1216D01*
X1510Y1216D01*
X1510Y1212D01*
X1508Y1212D01*
X1508Y1208D01*
X1506Y1208D01*
X1506Y1206D01*
X1504Y1206D01*
X1504Y1202D01*
X1502Y1202D01*
X1502Y1200D01*
X1500Y1200D01*
X1500Y1198D01*
X1498Y1198D01*
X1498Y1196D01*
X1496Y1196D01*
X1496Y1194D01*
X1494Y1194D01*
X1494Y1192D01*
X1492Y1192D01*
X1492Y1190D01*
X1490Y1190D01*
X1490Y1188D01*
X1488Y1188D01*
X1488Y1186D01*
X1486Y1186D01*
X1486Y1184D01*
X1482Y1184D01*
X1482Y1182D01*
X1480Y1182D01*
X1480Y1180D01*
X1476Y1180D01*
X1476Y1178D01*
X1470Y1178D01*
X1470Y1176D01*
X1466Y1176D01*
X1466Y1174D01*
X1454Y1174D01*
X1454Y1172D01*
X2196Y1172D01*
X2196Y1270D01*
X1504Y1270D01*
G37*
D02*
G36*
X130Y1172D02*
X130Y1170D01*
X2196Y1170D01*
X2196Y1172D01*
X130Y1172D01*
G37*
D02*
G36*
X130Y1172D02*
X130Y1170D01*
X2196Y1170D01*
X2196Y1172D01*
X130Y1172D01*
G37*
D02*
G36*
X130Y1172D02*
X130Y1170D01*
X2196Y1170D01*
X2196Y1172D01*
X130Y1172D01*
G37*
D02*
G36*
X130Y1172D02*
X130Y1170D01*
X2196Y1170D01*
X2196Y1172D01*
X130Y1172D01*
G37*
D02*
G36*
X130Y1172D02*
X130Y1170D01*
X2196Y1170D01*
X2196Y1172D01*
X130Y1172D01*
G37*
D02*
G36*
X130Y1172D02*
X130Y1170D01*
X2196Y1170D01*
X2196Y1172D01*
X130Y1172D01*
G37*
D02*
G36*
X130Y1172D02*
X130Y1170D01*
X2196Y1170D01*
X2196Y1172D01*
X130Y1172D01*
G37*
D02*
G36*
X130Y1170D02*
X130Y1152D01*
X132Y1152D01*
X132Y1150D01*
X134Y1150D01*
X134Y1148D01*
X136Y1148D01*
X136Y1146D01*
X140Y1146D01*
X140Y1144D01*
X142Y1144D01*
X142Y1142D01*
X144Y1142D01*
X144Y1140D01*
X146Y1140D01*
X146Y1138D01*
X150Y1138D01*
X150Y1136D01*
X152Y1136D01*
X152Y1134D01*
X154Y1134D01*
X154Y1132D01*
X156Y1132D01*
X156Y1130D01*
X160Y1130D01*
X160Y1128D01*
X162Y1128D01*
X162Y1126D01*
X164Y1126D01*
X164Y1124D01*
X166Y1124D01*
X166Y1122D01*
X170Y1122D01*
X170Y1120D01*
X172Y1120D01*
X172Y1118D01*
X174Y1118D01*
X174Y1116D01*
X2006Y1116D01*
X2006Y1114D01*
X2014Y1114D01*
X2014Y1112D01*
X2018Y1112D01*
X2018Y1110D01*
X2020Y1110D01*
X2020Y1108D01*
X2022Y1108D01*
X2022Y1106D01*
X2024Y1106D01*
X2024Y1104D01*
X2026Y1104D01*
X2026Y1102D01*
X2028Y1102D01*
X2028Y1098D01*
X2030Y1098D01*
X2030Y1092D01*
X2032Y1092D01*
X2032Y988D01*
X2036Y988D01*
X2036Y986D01*
X2038Y986D01*
X2038Y984D01*
X2040Y984D01*
X2040Y982D01*
X2042Y982D01*
X2042Y980D01*
X2044Y980D01*
X2044Y978D01*
X2046Y978D01*
X2046Y976D01*
X2048Y976D01*
X2048Y974D01*
X2050Y974D01*
X2050Y972D01*
X2052Y972D01*
X2052Y970D01*
X2054Y970D01*
X2054Y966D01*
X2056Y966D01*
X2056Y964D01*
X2058Y964D01*
X2058Y960D01*
X2060Y960D01*
X2060Y956D01*
X2062Y956D01*
X2062Y950D01*
X2064Y950D01*
X2064Y938D01*
X2066Y938D01*
X2066Y934D01*
X2064Y934D01*
X2064Y922D01*
X2062Y922D01*
X2062Y916D01*
X2060Y916D01*
X2060Y912D01*
X2058Y912D01*
X2058Y908D01*
X2056Y908D01*
X2056Y906D01*
X2054Y906D01*
X2054Y902D01*
X2052Y902D01*
X2052Y900D01*
X2050Y900D01*
X2050Y898D01*
X2048Y898D01*
X2048Y896D01*
X2046Y896D01*
X2046Y876D01*
X2048Y876D01*
X2048Y874D01*
X2050Y874D01*
X2050Y872D01*
X2052Y872D01*
X2052Y870D01*
X2054Y870D01*
X2054Y866D01*
X2056Y866D01*
X2056Y864D01*
X2058Y864D01*
X2058Y860D01*
X2060Y860D01*
X2060Y856D01*
X2062Y856D01*
X2062Y850D01*
X2064Y850D01*
X2064Y838D01*
X2066Y838D01*
X2066Y834D01*
X2064Y834D01*
X2064Y822D01*
X2062Y822D01*
X2062Y816D01*
X2060Y816D01*
X2060Y812D01*
X2058Y812D01*
X2058Y808D01*
X2056Y808D01*
X2056Y806D01*
X2054Y806D01*
X2054Y802D01*
X2052Y802D01*
X2052Y800D01*
X2050Y800D01*
X2050Y798D01*
X2048Y798D01*
X2048Y796D01*
X2046Y796D01*
X2046Y776D01*
X2048Y776D01*
X2048Y774D01*
X2050Y774D01*
X2050Y772D01*
X2052Y772D01*
X2052Y770D01*
X2054Y770D01*
X2054Y766D01*
X2056Y766D01*
X2056Y764D01*
X2058Y764D01*
X2058Y760D01*
X2060Y760D01*
X2060Y756D01*
X2062Y756D01*
X2062Y750D01*
X2064Y750D01*
X2064Y738D01*
X2066Y738D01*
X2066Y734D01*
X2064Y734D01*
X2064Y722D01*
X2062Y722D01*
X2062Y716D01*
X2060Y716D01*
X2060Y712D01*
X2058Y712D01*
X2058Y708D01*
X2056Y708D01*
X2056Y706D01*
X2054Y706D01*
X2054Y702D01*
X2052Y702D01*
X2052Y700D01*
X2050Y700D01*
X2050Y698D01*
X2048Y698D01*
X2048Y696D01*
X2046Y696D01*
X2046Y676D01*
X2048Y676D01*
X2048Y674D01*
X2050Y674D01*
X2050Y672D01*
X2052Y672D01*
X2052Y670D01*
X2054Y670D01*
X2054Y666D01*
X2056Y666D01*
X2056Y664D01*
X2058Y664D01*
X2058Y660D01*
X2060Y660D01*
X2060Y656D01*
X2062Y656D01*
X2062Y650D01*
X2064Y650D01*
X2064Y638D01*
X2066Y638D01*
X2066Y634D01*
X2064Y634D01*
X2064Y622D01*
X2062Y622D01*
X2062Y616D01*
X2060Y616D01*
X2060Y612D01*
X2058Y612D01*
X2058Y608D01*
X2056Y608D01*
X2056Y606D01*
X2054Y606D01*
X2054Y602D01*
X2052Y602D01*
X2052Y600D01*
X2050Y600D01*
X2050Y598D01*
X2048Y598D01*
X2048Y596D01*
X2046Y596D01*
X2046Y576D01*
X2048Y576D01*
X2048Y574D01*
X2050Y574D01*
X2050Y572D01*
X2052Y572D01*
X2052Y570D01*
X2054Y570D01*
X2054Y566D01*
X2056Y566D01*
X2056Y564D01*
X2058Y564D01*
X2058Y560D01*
X2060Y560D01*
X2060Y556D01*
X2062Y556D01*
X2062Y550D01*
X2064Y550D01*
X2064Y538D01*
X2066Y538D01*
X2066Y534D01*
X2064Y534D01*
X2064Y522D01*
X2062Y522D01*
X2062Y516D01*
X2060Y516D01*
X2060Y512D01*
X2058Y512D01*
X2058Y508D01*
X2056Y508D01*
X2056Y506D01*
X2054Y506D01*
X2054Y502D01*
X2052Y502D01*
X2052Y500D01*
X2050Y500D01*
X2050Y498D01*
X2048Y498D01*
X2048Y496D01*
X2046Y496D01*
X2046Y494D01*
X2044Y494D01*
X2044Y492D01*
X2042Y492D01*
X2042Y490D01*
X2040Y490D01*
X2040Y488D01*
X2038Y488D01*
X2038Y486D01*
X2036Y486D01*
X2036Y484D01*
X2032Y484D01*
X2032Y482D01*
X2030Y482D01*
X2030Y480D01*
X2026Y480D01*
X2026Y478D01*
X2020Y478D01*
X2020Y476D01*
X2016Y476D01*
X2016Y474D01*
X2004Y474D01*
X2004Y472D01*
X2196Y472D01*
X2196Y1170D01*
X130Y1170D01*
G37*
D02*
G36*
X176Y1116D02*
X176Y1114D01*
X180Y1114D01*
X180Y1112D01*
X182Y1112D01*
X182Y1110D01*
X184Y1110D01*
X184Y1108D01*
X186Y1108D01*
X186Y1106D01*
X190Y1106D01*
X190Y1104D01*
X192Y1104D01*
X192Y1102D01*
X194Y1102D01*
X194Y1100D01*
X196Y1100D01*
X196Y1098D01*
X198Y1098D01*
X198Y1096D01*
X202Y1096D01*
X202Y1094D01*
X204Y1094D01*
X204Y1092D01*
X206Y1092D01*
X206Y1090D01*
X208Y1090D01*
X208Y1088D01*
X212Y1088D01*
X212Y1086D01*
X214Y1086D01*
X214Y1084D01*
X216Y1084D01*
X216Y1082D01*
X218Y1082D01*
X218Y1080D01*
X222Y1080D01*
X222Y1078D01*
X224Y1078D01*
X224Y1076D01*
X226Y1076D01*
X226Y1074D01*
X228Y1074D01*
X228Y1072D01*
X232Y1072D01*
X232Y1070D01*
X234Y1070D01*
X234Y1068D01*
X236Y1068D01*
X236Y1066D01*
X238Y1066D01*
X238Y1064D01*
X242Y1064D01*
X242Y1062D01*
X244Y1062D01*
X244Y1060D01*
X246Y1060D01*
X246Y1058D01*
X248Y1058D01*
X248Y1056D01*
X252Y1056D01*
X252Y1054D01*
X254Y1054D01*
X254Y1052D01*
X256Y1052D01*
X256Y1050D01*
X258Y1050D01*
X258Y1048D01*
X262Y1048D01*
X262Y1046D01*
X264Y1046D01*
X264Y1044D01*
X266Y1044D01*
X266Y1042D01*
X268Y1042D01*
X268Y1040D01*
X270Y1040D01*
X270Y1038D01*
X274Y1038D01*
X274Y1036D01*
X276Y1036D01*
X276Y1034D01*
X278Y1034D01*
X278Y1032D01*
X280Y1032D01*
X280Y1030D01*
X284Y1030D01*
X284Y1028D01*
X286Y1028D01*
X286Y1026D01*
X288Y1026D01*
X288Y1024D01*
X290Y1024D01*
X290Y1022D01*
X294Y1022D01*
X294Y1020D01*
X296Y1020D01*
X296Y1018D01*
X298Y1018D01*
X298Y1016D01*
X300Y1016D01*
X300Y1014D01*
X304Y1014D01*
X304Y1012D01*
X306Y1012D01*
X306Y1010D01*
X308Y1010D01*
X308Y1008D01*
X310Y1008D01*
X310Y1006D01*
X314Y1006D01*
X314Y1004D01*
X316Y1004D01*
X316Y1002D01*
X318Y1002D01*
X318Y1000D01*
X320Y1000D01*
X320Y998D01*
X324Y998D01*
X324Y996D01*
X326Y996D01*
X326Y994D01*
X328Y994D01*
X328Y992D01*
X330Y992D01*
X330Y990D01*
X334Y990D01*
X334Y988D01*
X336Y988D01*
X336Y986D01*
X338Y986D01*
X338Y984D01*
X340Y984D01*
X340Y982D01*
X344Y982D01*
X344Y980D01*
X346Y980D01*
X346Y978D01*
X348Y978D01*
X348Y976D01*
X350Y976D01*
X350Y974D01*
X352Y974D01*
X352Y972D01*
X356Y972D01*
X356Y970D01*
X358Y970D01*
X358Y968D01*
X360Y968D01*
X360Y966D01*
X362Y966D01*
X362Y964D01*
X366Y964D01*
X366Y962D01*
X368Y962D01*
X368Y960D01*
X370Y960D01*
X370Y958D01*
X372Y958D01*
X372Y956D01*
X376Y956D01*
X376Y954D01*
X378Y954D01*
X378Y952D01*
X380Y952D01*
X380Y950D01*
X382Y950D01*
X382Y948D01*
X386Y948D01*
X386Y946D01*
X388Y946D01*
X388Y944D01*
X390Y944D01*
X390Y942D01*
X392Y942D01*
X392Y940D01*
X396Y940D01*
X396Y938D01*
X398Y938D01*
X398Y936D01*
X400Y936D01*
X400Y934D01*
X402Y934D01*
X402Y932D01*
X406Y932D01*
X406Y930D01*
X408Y930D01*
X408Y928D01*
X410Y928D01*
X410Y926D01*
X412Y926D01*
X412Y924D01*
X416Y924D01*
X416Y922D01*
X418Y922D01*
X418Y920D01*
X420Y920D01*
X420Y918D01*
X422Y918D01*
X422Y916D01*
X424Y916D01*
X424Y914D01*
X428Y914D01*
X428Y912D01*
X430Y912D01*
X430Y910D01*
X432Y910D01*
X432Y908D01*
X434Y908D01*
X434Y906D01*
X438Y906D01*
X438Y904D01*
X440Y904D01*
X440Y902D01*
X442Y902D01*
X442Y900D01*
X758Y900D01*
X758Y898D01*
X766Y898D01*
X766Y896D01*
X772Y896D01*
X772Y894D01*
X776Y894D01*
X776Y892D01*
X780Y892D01*
X780Y890D01*
X782Y890D01*
X782Y888D01*
X786Y888D01*
X786Y886D01*
X788Y886D01*
X788Y884D01*
X790Y884D01*
X790Y882D01*
X792Y882D01*
X792Y880D01*
X794Y880D01*
X794Y878D01*
X796Y878D01*
X796Y876D01*
X798Y876D01*
X798Y874D01*
X800Y874D01*
X800Y872D01*
X820Y872D01*
X820Y1090D01*
X822Y1090D01*
X822Y1098D01*
X824Y1098D01*
X824Y1102D01*
X826Y1102D01*
X826Y1104D01*
X828Y1104D01*
X828Y1106D01*
X830Y1106D01*
X830Y1108D01*
X832Y1108D01*
X832Y1110D01*
X834Y1110D01*
X834Y1112D01*
X838Y1112D01*
X838Y1114D01*
X844Y1114D01*
X844Y1116D01*
X176Y1116D01*
G37*
D02*
G36*
X444Y900D02*
X444Y898D01*
X448Y898D01*
X448Y896D01*
X450Y896D01*
X450Y894D01*
X452Y894D01*
X452Y892D01*
X454Y892D01*
X454Y890D01*
X458Y890D01*
X458Y888D01*
X460Y888D01*
X460Y886D01*
X462Y886D01*
X462Y884D01*
X464Y884D01*
X464Y882D01*
X468Y882D01*
X468Y880D01*
X470Y880D01*
X470Y878D01*
X472Y878D01*
X472Y876D01*
X474Y876D01*
X474Y874D01*
X478Y874D01*
X478Y872D01*
X480Y872D01*
X480Y870D01*
X482Y870D01*
X482Y868D01*
X484Y868D01*
X484Y866D01*
X488Y866D01*
X488Y864D01*
X490Y864D01*
X490Y862D01*
X492Y862D01*
X492Y860D01*
X494Y860D01*
X494Y858D01*
X498Y858D01*
X498Y856D01*
X500Y856D01*
X500Y854D01*
X502Y854D01*
X502Y852D01*
X504Y852D01*
X504Y850D01*
X506Y850D01*
X506Y848D01*
X510Y848D01*
X510Y846D01*
X512Y846D01*
X512Y844D01*
X514Y844D01*
X514Y842D01*
X516Y842D01*
X516Y840D01*
X520Y840D01*
X520Y838D01*
X522Y838D01*
X522Y836D01*
X524Y836D01*
X524Y834D01*
X526Y834D01*
X526Y832D01*
X530Y832D01*
X530Y830D01*
X532Y830D01*
X532Y828D01*
X534Y828D01*
X534Y826D01*
X536Y826D01*
X536Y824D01*
X540Y824D01*
X540Y822D01*
X542Y822D01*
X542Y820D01*
X544Y820D01*
X544Y818D01*
X546Y818D01*
X546Y816D01*
X550Y816D01*
X550Y814D01*
X552Y814D01*
X552Y812D01*
X554Y812D01*
X554Y810D01*
X556Y810D01*
X556Y808D01*
X560Y808D01*
X560Y806D01*
X562Y806D01*
X562Y804D01*
X564Y804D01*
X564Y802D01*
X566Y802D01*
X566Y800D01*
X570Y800D01*
X570Y798D01*
X572Y798D01*
X572Y796D01*
X574Y796D01*
X574Y794D01*
X576Y794D01*
X576Y792D01*
X578Y792D01*
X578Y790D01*
X582Y790D01*
X582Y788D01*
X584Y788D01*
X584Y786D01*
X586Y786D01*
X586Y784D01*
X588Y784D01*
X588Y782D01*
X592Y782D01*
X592Y780D01*
X594Y780D01*
X594Y778D01*
X596Y778D01*
X596Y776D01*
X598Y776D01*
X598Y774D01*
X602Y774D01*
X602Y772D01*
X604Y772D01*
X604Y770D01*
X606Y770D01*
X606Y768D01*
X608Y768D01*
X608Y766D01*
X698Y766D01*
X698Y768D01*
X700Y768D01*
X700Y770D01*
X702Y770D01*
X702Y772D01*
X704Y772D01*
X704Y774D01*
X706Y774D01*
X706Y776D01*
X708Y776D01*
X708Y796D01*
X706Y796D01*
X706Y798D01*
X704Y798D01*
X704Y800D01*
X702Y800D01*
X702Y802D01*
X700Y802D01*
X700Y806D01*
X698Y806D01*
X698Y808D01*
X696Y808D01*
X696Y812D01*
X694Y812D01*
X694Y816D01*
X692Y816D01*
X692Y822D01*
X690Y822D01*
X690Y830D01*
X688Y830D01*
X688Y842D01*
X690Y842D01*
X690Y850D01*
X692Y850D01*
X692Y856D01*
X694Y856D01*
X694Y860D01*
X696Y860D01*
X696Y864D01*
X698Y864D01*
X698Y868D01*
X700Y868D01*
X700Y870D01*
X702Y870D01*
X702Y872D01*
X704Y872D01*
X704Y874D01*
X706Y874D01*
X706Y876D01*
X708Y876D01*
X708Y880D01*
X712Y880D01*
X712Y882D01*
X714Y882D01*
X714Y884D01*
X716Y884D01*
X716Y886D01*
X718Y886D01*
X718Y888D01*
X720Y888D01*
X720Y890D01*
X724Y890D01*
X724Y892D01*
X728Y892D01*
X728Y894D01*
X732Y894D01*
X732Y896D01*
X738Y896D01*
X738Y898D01*
X746Y898D01*
X746Y900D01*
X444Y900D01*
G37*
D02*
G36*
X632Y706D02*
X632Y696D01*
X630Y696D01*
X630Y472D01*
X750Y472D01*
X750Y474D01*
X738Y474D01*
X738Y476D01*
X732Y476D01*
X732Y478D01*
X728Y478D01*
X728Y480D01*
X724Y480D01*
X724Y482D01*
X722Y482D01*
X722Y484D01*
X718Y484D01*
X718Y486D01*
X716Y486D01*
X716Y488D01*
X714Y488D01*
X714Y490D01*
X712Y490D01*
X712Y492D01*
X710Y492D01*
X710Y494D01*
X708Y494D01*
X708Y496D01*
X706Y496D01*
X706Y498D01*
X704Y498D01*
X704Y500D01*
X702Y500D01*
X702Y502D01*
X700Y502D01*
X700Y506D01*
X698Y506D01*
X698Y508D01*
X696Y508D01*
X696Y512D01*
X694Y512D01*
X694Y516D01*
X692Y516D01*
X692Y522D01*
X690Y522D01*
X690Y530D01*
X688Y530D01*
X688Y542D01*
X690Y542D01*
X690Y550D01*
X692Y550D01*
X692Y556D01*
X694Y556D01*
X694Y560D01*
X696Y560D01*
X696Y564D01*
X698Y564D01*
X698Y568D01*
X700Y568D01*
X700Y570D01*
X702Y570D01*
X702Y572D01*
X704Y572D01*
X704Y574D01*
X706Y574D01*
X706Y576D01*
X708Y576D01*
X708Y596D01*
X706Y596D01*
X706Y598D01*
X704Y598D01*
X704Y600D01*
X702Y600D01*
X702Y602D01*
X700Y602D01*
X700Y606D01*
X698Y606D01*
X698Y608D01*
X696Y608D01*
X696Y612D01*
X694Y612D01*
X694Y616D01*
X692Y616D01*
X692Y622D01*
X690Y622D01*
X690Y630D01*
X688Y630D01*
X688Y642D01*
X690Y642D01*
X690Y650D01*
X692Y650D01*
X692Y656D01*
X694Y656D01*
X694Y660D01*
X696Y660D01*
X696Y664D01*
X698Y664D01*
X698Y668D01*
X700Y668D01*
X700Y670D01*
X702Y670D01*
X702Y672D01*
X704Y672D01*
X704Y674D01*
X706Y674D01*
X706Y676D01*
X708Y676D01*
X708Y696D01*
X706Y696D01*
X706Y698D01*
X704Y698D01*
X704Y700D01*
X702Y700D01*
X702Y702D01*
X700Y702D01*
X700Y706D01*
X632Y706D01*
G37*
D02*
G36*
X1054Y706D02*
X1054Y702D01*
X1052Y702D01*
X1052Y700D01*
X1050Y700D01*
X1050Y698D01*
X1048Y698D01*
X1048Y696D01*
X1046Y696D01*
X1046Y676D01*
X1048Y676D01*
X1048Y674D01*
X1050Y674D01*
X1050Y672D01*
X1052Y672D01*
X1052Y670D01*
X1054Y670D01*
X1054Y666D01*
X1056Y666D01*
X1056Y664D01*
X1058Y664D01*
X1058Y660D01*
X1060Y660D01*
X1060Y656D01*
X1062Y656D01*
X1062Y650D01*
X1064Y650D01*
X1064Y638D01*
X1066Y638D01*
X1066Y634D01*
X1064Y634D01*
X1064Y622D01*
X1062Y622D01*
X1062Y616D01*
X1060Y616D01*
X1060Y612D01*
X1058Y612D01*
X1058Y608D01*
X1056Y608D01*
X1056Y606D01*
X1054Y606D01*
X1054Y602D01*
X1052Y602D01*
X1052Y600D01*
X1050Y600D01*
X1050Y598D01*
X1048Y598D01*
X1048Y596D01*
X1046Y596D01*
X1046Y576D01*
X1048Y576D01*
X1048Y574D01*
X1050Y574D01*
X1050Y572D01*
X1052Y572D01*
X1052Y570D01*
X1054Y570D01*
X1054Y566D01*
X1056Y566D01*
X1056Y564D01*
X1058Y564D01*
X1058Y560D01*
X1060Y560D01*
X1060Y556D01*
X1062Y556D01*
X1062Y550D01*
X1064Y550D01*
X1064Y538D01*
X1066Y538D01*
X1066Y534D01*
X1064Y534D01*
X1064Y522D01*
X1062Y522D01*
X1062Y516D01*
X1060Y516D01*
X1060Y512D01*
X1058Y512D01*
X1058Y508D01*
X1056Y508D01*
X1056Y506D01*
X1054Y506D01*
X1054Y502D01*
X1052Y502D01*
X1052Y500D01*
X1050Y500D01*
X1050Y498D01*
X1048Y498D01*
X1048Y496D01*
X1046Y496D01*
X1046Y494D01*
X1044Y494D01*
X1044Y492D01*
X1042Y492D01*
X1042Y490D01*
X1040Y490D01*
X1040Y488D01*
X1038Y488D01*
X1038Y486D01*
X1036Y486D01*
X1036Y484D01*
X1032Y484D01*
X1032Y482D01*
X1030Y482D01*
X1030Y480D01*
X1026Y480D01*
X1026Y478D01*
X1020Y478D01*
X1020Y476D01*
X1016Y476D01*
X1016Y474D01*
X1004Y474D01*
X1004Y472D01*
X1200Y472D01*
X1200Y474D01*
X1188Y474D01*
X1188Y476D01*
X1182Y476D01*
X1182Y478D01*
X1178Y478D01*
X1178Y480D01*
X1174Y480D01*
X1174Y482D01*
X1172Y482D01*
X1172Y484D01*
X1168Y484D01*
X1168Y486D01*
X1166Y486D01*
X1166Y488D01*
X1164Y488D01*
X1164Y490D01*
X1162Y490D01*
X1162Y492D01*
X1160Y492D01*
X1160Y494D01*
X1158Y494D01*
X1158Y496D01*
X1156Y496D01*
X1156Y498D01*
X1154Y498D01*
X1154Y500D01*
X1152Y500D01*
X1152Y502D01*
X1150Y502D01*
X1150Y506D01*
X1148Y506D01*
X1148Y508D01*
X1146Y508D01*
X1146Y512D01*
X1144Y512D01*
X1144Y516D01*
X1142Y516D01*
X1142Y522D01*
X1140Y522D01*
X1140Y530D01*
X1138Y530D01*
X1138Y542D01*
X1140Y542D01*
X1140Y550D01*
X1142Y550D01*
X1142Y556D01*
X1144Y556D01*
X1144Y560D01*
X1146Y560D01*
X1146Y564D01*
X1148Y564D01*
X1148Y568D01*
X1150Y568D01*
X1150Y570D01*
X1152Y570D01*
X1152Y572D01*
X1154Y572D01*
X1154Y574D01*
X1156Y574D01*
X1156Y576D01*
X1158Y576D01*
X1158Y596D01*
X1156Y596D01*
X1156Y598D01*
X1154Y598D01*
X1154Y600D01*
X1152Y600D01*
X1152Y602D01*
X1150Y602D01*
X1150Y606D01*
X1148Y606D01*
X1148Y608D01*
X1146Y608D01*
X1146Y612D01*
X1144Y612D01*
X1144Y616D01*
X1142Y616D01*
X1142Y622D01*
X1140Y622D01*
X1140Y630D01*
X1138Y630D01*
X1138Y642D01*
X1140Y642D01*
X1140Y650D01*
X1142Y650D01*
X1142Y656D01*
X1144Y656D01*
X1144Y660D01*
X1146Y660D01*
X1146Y664D01*
X1148Y664D01*
X1148Y668D01*
X1150Y668D01*
X1150Y670D01*
X1152Y670D01*
X1152Y672D01*
X1154Y672D01*
X1154Y674D01*
X1156Y674D01*
X1156Y676D01*
X1158Y676D01*
X1158Y696D01*
X1156Y696D01*
X1156Y698D01*
X1154Y698D01*
X1154Y700D01*
X1152Y700D01*
X1152Y702D01*
X1150Y702D01*
X1150Y706D01*
X1054Y706D01*
G37*
D02*
G36*
X1504Y706D02*
X1504Y702D01*
X1502Y702D01*
X1502Y700D01*
X1500Y700D01*
X1500Y698D01*
X1498Y698D01*
X1498Y696D01*
X1496Y696D01*
X1496Y676D01*
X1498Y676D01*
X1498Y674D01*
X1500Y674D01*
X1500Y672D01*
X1502Y672D01*
X1502Y670D01*
X1504Y670D01*
X1504Y666D01*
X1506Y666D01*
X1506Y664D01*
X1508Y664D01*
X1508Y660D01*
X1510Y660D01*
X1510Y656D01*
X1512Y656D01*
X1512Y650D01*
X1514Y650D01*
X1514Y638D01*
X1516Y638D01*
X1516Y634D01*
X1514Y634D01*
X1514Y622D01*
X1512Y622D01*
X1512Y616D01*
X1510Y616D01*
X1510Y612D01*
X1508Y612D01*
X1508Y608D01*
X1506Y608D01*
X1506Y606D01*
X1504Y606D01*
X1504Y602D01*
X1502Y602D01*
X1502Y600D01*
X1500Y600D01*
X1500Y598D01*
X1498Y598D01*
X1498Y596D01*
X1496Y596D01*
X1496Y576D01*
X1498Y576D01*
X1498Y574D01*
X1500Y574D01*
X1500Y572D01*
X1502Y572D01*
X1502Y570D01*
X1504Y570D01*
X1504Y566D01*
X1506Y566D01*
X1506Y564D01*
X1508Y564D01*
X1508Y560D01*
X1510Y560D01*
X1510Y556D01*
X1512Y556D01*
X1512Y550D01*
X1514Y550D01*
X1514Y538D01*
X1516Y538D01*
X1516Y534D01*
X1514Y534D01*
X1514Y522D01*
X1512Y522D01*
X1512Y516D01*
X1510Y516D01*
X1510Y512D01*
X1508Y512D01*
X1508Y508D01*
X1506Y508D01*
X1506Y506D01*
X1504Y506D01*
X1504Y502D01*
X1502Y502D01*
X1502Y500D01*
X1500Y500D01*
X1500Y498D01*
X1498Y498D01*
X1498Y496D01*
X1496Y496D01*
X1496Y494D01*
X1494Y494D01*
X1494Y492D01*
X1492Y492D01*
X1492Y490D01*
X1490Y490D01*
X1490Y488D01*
X1488Y488D01*
X1488Y486D01*
X1486Y486D01*
X1486Y484D01*
X1482Y484D01*
X1482Y482D01*
X1480Y482D01*
X1480Y480D01*
X1476Y480D01*
X1476Y478D01*
X1470Y478D01*
X1470Y476D01*
X1466Y476D01*
X1466Y474D01*
X1454Y474D01*
X1454Y472D01*
X1650Y472D01*
X1650Y474D01*
X1638Y474D01*
X1638Y476D01*
X1632Y476D01*
X1632Y478D01*
X1628Y478D01*
X1628Y480D01*
X1624Y480D01*
X1624Y482D01*
X1622Y482D01*
X1622Y484D01*
X1618Y484D01*
X1618Y486D01*
X1616Y486D01*
X1616Y488D01*
X1614Y488D01*
X1614Y490D01*
X1612Y490D01*
X1612Y492D01*
X1610Y492D01*
X1610Y494D01*
X1608Y494D01*
X1608Y496D01*
X1606Y496D01*
X1606Y498D01*
X1604Y498D01*
X1604Y500D01*
X1602Y500D01*
X1602Y502D01*
X1600Y502D01*
X1600Y506D01*
X1598Y506D01*
X1598Y508D01*
X1596Y508D01*
X1596Y512D01*
X1594Y512D01*
X1594Y516D01*
X1592Y516D01*
X1592Y522D01*
X1590Y522D01*
X1590Y530D01*
X1588Y530D01*
X1588Y542D01*
X1590Y542D01*
X1590Y550D01*
X1592Y550D01*
X1592Y556D01*
X1594Y556D01*
X1594Y560D01*
X1596Y560D01*
X1596Y564D01*
X1598Y564D01*
X1598Y568D01*
X1600Y568D01*
X1600Y570D01*
X1602Y570D01*
X1602Y572D01*
X1604Y572D01*
X1604Y574D01*
X1606Y574D01*
X1606Y576D01*
X1608Y576D01*
X1608Y596D01*
X1606Y596D01*
X1606Y598D01*
X1604Y598D01*
X1604Y600D01*
X1602Y600D01*
X1602Y602D01*
X1600Y602D01*
X1600Y606D01*
X1598Y606D01*
X1598Y608D01*
X1596Y608D01*
X1596Y612D01*
X1594Y612D01*
X1594Y616D01*
X1592Y616D01*
X1592Y622D01*
X1590Y622D01*
X1590Y630D01*
X1588Y630D01*
X1588Y642D01*
X1590Y642D01*
X1590Y650D01*
X1592Y650D01*
X1592Y656D01*
X1594Y656D01*
X1594Y660D01*
X1596Y660D01*
X1596Y664D01*
X1598Y664D01*
X1598Y668D01*
X1600Y668D01*
X1600Y670D01*
X1602Y670D01*
X1602Y672D01*
X1604Y672D01*
X1604Y674D01*
X1606Y674D01*
X1606Y676D01*
X1608Y676D01*
X1608Y696D01*
X1606Y696D01*
X1606Y698D01*
X1604Y698D01*
X1604Y700D01*
X1602Y700D01*
X1602Y702D01*
X1600Y702D01*
X1600Y706D01*
X1504Y706D01*
G37*
D02*
G36*
X860Y610D02*
X860Y608D01*
X818Y608D01*
X818Y606D01*
X804Y606D01*
X804Y604D01*
X900Y604D01*
X900Y606D01*
X890Y606D01*
X890Y608D01*
X886Y608D01*
X886Y610D01*
X860Y610D01*
G37*
D02*
G36*
X1314Y610D02*
X1314Y608D01*
X1308Y608D01*
X1308Y606D01*
X1254Y606D01*
X1254Y604D01*
X1350Y604D01*
X1350Y606D01*
X1340Y606D01*
X1340Y608D01*
X1336Y608D01*
X1336Y610D01*
X1314Y610D01*
G37*
D02*
G36*
X906Y606D02*
X906Y604D01*
X950Y604D01*
X950Y606D01*
X906Y606D01*
G37*
D02*
G36*
X1356Y606D02*
X1356Y604D01*
X1400Y604D01*
X1400Y606D01*
X1356Y606D01*
G37*
D02*
G36*
X804Y604D02*
X804Y602D01*
X950Y602D01*
X950Y604D01*
X804Y604D01*
G37*
D02*
G36*
X804Y604D02*
X804Y602D01*
X950Y602D01*
X950Y604D01*
X804Y604D01*
G37*
D02*
G36*
X1254Y604D02*
X1254Y602D01*
X1400Y602D01*
X1400Y604D01*
X1254Y604D01*
G37*
D02*
G36*
X1254Y604D02*
X1254Y602D01*
X1400Y602D01*
X1400Y604D01*
X1254Y604D01*
G37*
D02*
G36*
X802Y602D02*
X802Y600D01*
X800Y600D01*
X800Y598D01*
X798Y598D01*
X798Y596D01*
X796Y596D01*
X796Y576D01*
X798Y576D01*
X798Y574D01*
X800Y574D01*
X800Y572D01*
X802Y572D01*
X802Y570D01*
X804Y570D01*
X804Y566D01*
X806Y566D01*
X806Y564D01*
X808Y564D01*
X808Y560D01*
X810Y560D01*
X810Y556D01*
X812Y556D01*
X812Y550D01*
X814Y550D01*
X814Y538D01*
X816Y538D01*
X816Y534D01*
X814Y534D01*
X814Y522D01*
X812Y522D01*
X812Y516D01*
X810Y516D01*
X810Y512D01*
X808Y512D01*
X808Y508D01*
X806Y508D01*
X806Y506D01*
X804Y506D01*
X804Y502D01*
X802Y502D01*
X802Y500D01*
X800Y500D01*
X800Y498D01*
X798Y498D01*
X798Y496D01*
X796Y496D01*
X796Y494D01*
X794Y494D01*
X794Y492D01*
X792Y492D01*
X792Y490D01*
X790Y490D01*
X790Y488D01*
X788Y488D01*
X788Y486D01*
X786Y486D01*
X786Y484D01*
X782Y484D01*
X782Y482D01*
X780Y482D01*
X780Y480D01*
X776Y480D01*
X776Y478D01*
X770Y478D01*
X770Y476D01*
X766Y476D01*
X766Y474D01*
X754Y474D01*
X754Y472D01*
X1000Y472D01*
X1000Y474D01*
X988Y474D01*
X988Y476D01*
X982Y476D01*
X982Y478D01*
X978Y478D01*
X978Y480D01*
X974Y480D01*
X974Y482D01*
X972Y482D01*
X972Y484D01*
X968Y484D01*
X968Y486D01*
X966Y486D01*
X966Y488D01*
X964Y488D01*
X964Y490D01*
X962Y490D01*
X962Y492D01*
X960Y492D01*
X960Y494D01*
X958Y494D01*
X958Y496D01*
X956Y496D01*
X956Y498D01*
X954Y498D01*
X954Y500D01*
X952Y500D01*
X952Y502D01*
X950Y502D01*
X950Y506D01*
X948Y506D01*
X948Y508D01*
X946Y508D01*
X946Y512D01*
X944Y512D01*
X944Y516D01*
X942Y516D01*
X942Y522D01*
X940Y522D01*
X940Y530D01*
X938Y530D01*
X938Y542D01*
X940Y542D01*
X940Y550D01*
X942Y550D01*
X942Y556D01*
X944Y556D01*
X944Y560D01*
X946Y560D01*
X946Y564D01*
X948Y564D01*
X948Y568D01*
X950Y568D01*
X950Y570D01*
X952Y570D01*
X952Y572D01*
X954Y572D01*
X954Y574D01*
X956Y574D01*
X956Y576D01*
X958Y576D01*
X958Y596D01*
X956Y596D01*
X956Y598D01*
X954Y598D01*
X954Y600D01*
X952Y600D01*
X952Y602D01*
X802Y602D01*
G37*
D02*
G36*
X1252Y602D02*
X1252Y600D01*
X1250Y600D01*
X1250Y598D01*
X1248Y598D01*
X1248Y596D01*
X1246Y596D01*
X1246Y576D01*
X1248Y576D01*
X1248Y574D01*
X1250Y574D01*
X1250Y572D01*
X1252Y572D01*
X1252Y570D01*
X1254Y570D01*
X1254Y566D01*
X1256Y566D01*
X1256Y564D01*
X1258Y564D01*
X1258Y560D01*
X1260Y560D01*
X1260Y556D01*
X1262Y556D01*
X1262Y550D01*
X1264Y550D01*
X1264Y538D01*
X1266Y538D01*
X1266Y534D01*
X1264Y534D01*
X1264Y522D01*
X1262Y522D01*
X1262Y516D01*
X1260Y516D01*
X1260Y512D01*
X1258Y512D01*
X1258Y508D01*
X1256Y508D01*
X1256Y506D01*
X1254Y506D01*
X1254Y502D01*
X1252Y502D01*
X1252Y500D01*
X1250Y500D01*
X1250Y498D01*
X1248Y498D01*
X1248Y496D01*
X1246Y496D01*
X1246Y494D01*
X1244Y494D01*
X1244Y492D01*
X1242Y492D01*
X1242Y490D01*
X1240Y490D01*
X1240Y488D01*
X1238Y488D01*
X1238Y486D01*
X1236Y486D01*
X1236Y484D01*
X1232Y484D01*
X1232Y482D01*
X1230Y482D01*
X1230Y480D01*
X1226Y480D01*
X1226Y478D01*
X1220Y478D01*
X1220Y476D01*
X1216Y476D01*
X1216Y474D01*
X1204Y474D01*
X1204Y472D01*
X1450Y472D01*
X1450Y474D01*
X1438Y474D01*
X1438Y476D01*
X1432Y476D01*
X1432Y478D01*
X1428Y478D01*
X1428Y480D01*
X1424Y480D01*
X1424Y482D01*
X1422Y482D01*
X1422Y484D01*
X1418Y484D01*
X1418Y486D01*
X1416Y486D01*
X1416Y488D01*
X1414Y488D01*
X1414Y490D01*
X1412Y490D01*
X1412Y492D01*
X1410Y492D01*
X1410Y494D01*
X1408Y494D01*
X1408Y496D01*
X1406Y496D01*
X1406Y498D01*
X1404Y498D01*
X1404Y500D01*
X1402Y500D01*
X1402Y502D01*
X1400Y502D01*
X1400Y506D01*
X1398Y506D01*
X1398Y508D01*
X1396Y508D01*
X1396Y512D01*
X1394Y512D01*
X1394Y516D01*
X1392Y516D01*
X1392Y522D01*
X1390Y522D01*
X1390Y530D01*
X1388Y530D01*
X1388Y542D01*
X1390Y542D01*
X1390Y550D01*
X1392Y550D01*
X1392Y556D01*
X1394Y556D01*
X1394Y560D01*
X1396Y560D01*
X1396Y564D01*
X1398Y564D01*
X1398Y568D01*
X1400Y568D01*
X1400Y570D01*
X1402Y570D01*
X1402Y572D01*
X1404Y572D01*
X1404Y574D01*
X1406Y574D01*
X1406Y576D01*
X1408Y576D01*
X1408Y596D01*
X1406Y596D01*
X1406Y598D01*
X1404Y598D01*
X1404Y600D01*
X1402Y600D01*
X1402Y602D01*
X1252Y602D01*
G37*
D02*
G36*
X1710Y516D02*
X1710Y512D01*
X1708Y512D01*
X1708Y508D01*
X1706Y508D01*
X1706Y506D01*
X1704Y506D01*
X1704Y502D01*
X1702Y502D01*
X1702Y500D01*
X1700Y500D01*
X1700Y498D01*
X1698Y498D01*
X1698Y496D01*
X1696Y496D01*
X1696Y494D01*
X1694Y494D01*
X1694Y492D01*
X1692Y492D01*
X1692Y490D01*
X1690Y490D01*
X1690Y488D01*
X1688Y488D01*
X1688Y486D01*
X1686Y486D01*
X1686Y484D01*
X1682Y484D01*
X1682Y482D01*
X1680Y482D01*
X1680Y480D01*
X1676Y480D01*
X1676Y478D01*
X1670Y478D01*
X1670Y476D01*
X1666Y476D01*
X1666Y474D01*
X1654Y474D01*
X1654Y472D01*
X2000Y472D01*
X2000Y474D01*
X1988Y474D01*
X1988Y476D01*
X1982Y476D01*
X1982Y478D01*
X1978Y478D01*
X1978Y480D01*
X1974Y480D01*
X1974Y482D01*
X1972Y482D01*
X1972Y484D01*
X1968Y484D01*
X1968Y486D01*
X1966Y486D01*
X1966Y488D01*
X1964Y488D01*
X1964Y490D01*
X1962Y490D01*
X1962Y492D01*
X1960Y492D01*
X1960Y494D01*
X1958Y494D01*
X1958Y496D01*
X1956Y496D01*
X1956Y498D01*
X1954Y498D01*
X1954Y500D01*
X1952Y500D01*
X1952Y502D01*
X1950Y502D01*
X1950Y506D01*
X1746Y506D01*
X1746Y508D01*
X1740Y508D01*
X1740Y510D01*
X1736Y510D01*
X1736Y512D01*
X1732Y512D01*
X1732Y514D01*
X1730Y514D01*
X1730Y516D01*
X1710Y516D01*
G37*
D02*
G36*
X630Y472D02*
X630Y470D01*
X2196Y470D01*
X2196Y472D01*
X630Y472D01*
G37*
D02*
G36*
X630Y472D02*
X630Y470D01*
X2196Y470D01*
X2196Y472D01*
X630Y472D01*
G37*
D02*
G36*
X630Y472D02*
X630Y470D01*
X2196Y470D01*
X2196Y472D01*
X630Y472D01*
G37*
D02*
G36*
X630Y472D02*
X630Y470D01*
X2196Y470D01*
X2196Y472D01*
X630Y472D01*
G37*
D02*
G36*
X630Y472D02*
X630Y470D01*
X2196Y470D01*
X2196Y472D01*
X630Y472D01*
G37*
D02*
G36*
X630Y472D02*
X630Y470D01*
X2196Y470D01*
X2196Y472D01*
X630Y472D01*
G37*
D02*
G36*
X630Y472D02*
X630Y470D01*
X2196Y470D01*
X2196Y472D01*
X630Y472D01*
G37*
D02*
G36*
X630Y470D02*
X630Y418D01*
X1906Y418D01*
X1906Y416D01*
X1914Y416D01*
X1914Y414D01*
X1918Y414D01*
X1918Y412D01*
X1922Y412D01*
X1922Y410D01*
X1924Y410D01*
X1924Y408D01*
X1926Y408D01*
X1926Y406D01*
X1928Y406D01*
X1928Y402D01*
X1930Y402D01*
X1930Y398D01*
X1932Y398D01*
X1932Y388D01*
X1934Y388D01*
X1934Y300D01*
X2008Y300D01*
X2008Y298D01*
X2016Y298D01*
X2016Y296D01*
X2022Y296D01*
X2022Y294D01*
X2026Y294D01*
X2026Y292D01*
X2030Y292D01*
X2030Y290D01*
X2032Y290D01*
X2032Y288D01*
X2036Y288D01*
X2036Y286D01*
X2038Y286D01*
X2038Y284D01*
X2040Y284D01*
X2040Y282D01*
X2042Y282D01*
X2042Y280D01*
X2044Y280D01*
X2044Y278D01*
X2046Y278D01*
X2046Y276D01*
X2048Y276D01*
X2048Y274D01*
X2050Y274D01*
X2050Y272D01*
X2052Y272D01*
X2052Y270D01*
X2054Y270D01*
X2054Y266D01*
X2056Y266D01*
X2056Y264D01*
X2058Y264D01*
X2058Y260D01*
X2060Y260D01*
X2060Y256D01*
X2062Y256D01*
X2062Y250D01*
X2064Y250D01*
X2064Y238D01*
X2066Y238D01*
X2066Y234D01*
X2064Y234D01*
X2064Y222D01*
X2062Y222D01*
X2062Y216D01*
X2060Y216D01*
X2060Y212D01*
X2058Y212D01*
X2058Y208D01*
X2056Y208D01*
X2056Y206D01*
X2054Y206D01*
X2054Y202D01*
X2052Y202D01*
X2052Y200D01*
X2050Y200D01*
X2050Y198D01*
X2048Y198D01*
X2048Y196D01*
X2046Y196D01*
X2046Y176D01*
X2048Y176D01*
X2048Y174D01*
X2050Y174D01*
X2050Y172D01*
X2052Y172D01*
X2052Y170D01*
X2054Y170D01*
X2054Y168D01*
X2146Y168D01*
X2146Y166D01*
X2160Y166D01*
X2160Y164D01*
X2166Y164D01*
X2166Y162D01*
X2172Y162D01*
X2172Y160D01*
X2176Y160D01*
X2176Y158D01*
X2196Y158D01*
X2196Y470D01*
X630Y470D01*
G37*
D02*
G36*
X1934Y300D02*
X1934Y272D01*
X1954Y272D01*
X1954Y274D01*
X1956Y274D01*
X1956Y276D01*
X1958Y276D01*
X1958Y280D01*
X1962Y280D01*
X1962Y282D01*
X1964Y282D01*
X1964Y284D01*
X1966Y284D01*
X1966Y286D01*
X1968Y286D01*
X1968Y288D01*
X1970Y288D01*
X1970Y290D01*
X1974Y290D01*
X1974Y292D01*
X1978Y292D01*
X1978Y294D01*
X1982Y294D01*
X1982Y296D01*
X1988Y296D01*
X1988Y298D01*
X1996Y298D01*
X1996Y300D01*
X1934Y300D01*
G37*
D02*
G36*
X2054Y168D02*
X2054Y166D01*
X2056Y166D01*
X2056Y164D01*
X2058Y164D01*
X2058Y160D01*
X2060Y160D01*
X2060Y156D01*
X2062Y156D01*
X2062Y150D01*
X2064Y150D01*
X2064Y140D01*
X2084Y140D01*
X2084Y142D01*
X2086Y142D01*
X2086Y144D01*
X2088Y144D01*
X2088Y146D01*
X2092Y146D01*
X2092Y148D01*
X2094Y148D01*
X2094Y150D01*
X2096Y150D01*
X2096Y152D01*
X2098Y152D01*
X2098Y154D01*
X2102Y154D01*
X2102Y156D01*
X2106Y156D01*
X2106Y158D01*
X2110Y158D01*
X2110Y160D01*
X2114Y160D01*
X2114Y162D01*
X2118Y162D01*
X2118Y164D01*
X2126Y164D01*
X2126Y166D01*
X2140Y166D01*
X2140Y168D01*
X2054Y168D01*
G37*
D02*
G36*
X2012Y264D02*
X2066Y264D01*
X2066Y213D01*
X2012Y213D01*
X2012Y264D01*
G37*
D02*
G36*
X674Y1226D02*
X725Y1226D01*
X725Y1172D01*
X674Y1172D01*
X674Y1226D01*
G37*
D02*
G36*
X474Y1226D02*
X525Y1226D01*
X525Y1172D01*
X474Y1172D01*
X474Y1226D01*
G37*
D02*
G36*
X224Y1226D02*
X275Y1226D01*
X275Y1172D01*
X224Y1172D01*
X224Y1226D01*
G37*
D02*
G36*
X262Y2064D02*
X316Y2064D01*
X316Y2013D01*
X262Y2013D01*
X262Y2064D01*
G37*
D02*
G54D13*
D02*
G04 End of Copper0*
M02*