; NON-PLATED HOLES START AT T1
; THROUGH (PLATED) HOLES START AT T100
M48
INCH
T1C0.125984
T100C0.027559
%
T1
X021425Y000865
X001018Y000865
X021425Y024865
X001018Y024865
T100
X014518Y006365
X011518Y014365
X012018Y005365
X010018Y005365
X020018Y002365
X020018Y015365
X002518Y015365
X016518Y006365
X014518Y012365
X020018Y007365
X005018Y022365
X009518Y015365
X011518Y012365
X007018Y014365
X005018Y014365
X007518Y007365
X020018Y021365
X002518Y021365
X020018Y013365
X002518Y013365
X012018Y008365
X010018Y008365
X020018Y005365
X020018Y018365
X005018Y020365
X009518Y013365
X014518Y015365
X007018Y012365
X005018Y012365
X007518Y005365
X014518Y007365
X011518Y015365
X012018Y006365
X010018Y006365
X020018Y016365
X016518Y007365
X014518Y013365
X020018Y008365
X005018Y023365
X014518Y005365
X011518Y013365
X007018Y015365
X005018Y015365
X007518Y008365
X020018Y022365
X002518Y022365
X020018Y001365
X020018Y014365
X002518Y014365
X016518Y005365
X020018Y006365
X005018Y021365
X009518Y014365
X007018Y013365
X005018Y013365
X007518Y006365
X002518Y020365
X014518Y008365
X002518Y012365
X012018Y007365
X010018Y007365
X020018Y017365
X009518Y012365
X014518Y014365
X020018Y009365
T00
M30
