999
dxfrw 0.6.3
  0
SECTION
  2
HEADER
  9
$ACADVER
  1
AC1009
  9
$DWGCODEPAGE
  3
ANSI_1252
  9
$INSBASE
 10
0
 20
0
 30
0
  9
$EXTMIN
 10
100.25
 20
45.5
 30
0
  9
$EXTMAX
 10
296.2499999999999
 20
155.5
 30
0
  9
$LIMMIN
 10
0
 20
0
  9
$LIMMAX
 10
420
 20
297
  9
$ORTHOMODE
 70
    0
  9
$REGENMODE
 70
    1
  9
$FILLMODE
 70
    1
  9
$QTEXTMODE
 70
    0
  9
$MIRRTEXT
 70
    0
  9
$DRAGMODE
 70
    2
  9
$LTSCALE
 40
1
  9
$OSMODE
 70
    0
  9
$ATTMODE
 70
    0
  9
$TEXTSIZE
 40
2.5
  9
$TRACEWID
 40
15.68
  9
$TEXTSTYLE
  7
STANDARD
  9
$CLAYER
  8
FIRSTCUT
  9
$CELTYPE
  6
BYLAYER
  9
$CECOLOR
 62
  256
  9
$DIMSCALE
 40
2.5
  9
$DIMASZ
 40
2.5
  9
$DIMEXO
 40
0.625
  9
$DIMDLI
 40
3.75
  9
$DIMRND
 40
0
  9
$DIMDLE
 40
0
  9
$DIMEXE
 40
1.25
  9
$DIMTP
 40
0
  9
$DIMTM
 40
0
  9
$DIMTXT
 40
2.5
  9
$DIMCEN
 40
2.5
  9
$DIMTSZ
 40
0
  9
$DIMTOL
 70
    0
  9
$DIMLIM
 70
    0
  9
$DIMTIH
 70
    0
  9
$DIMTOH
 70
    0
  9
$DIMSE1
 70
    0
  9
$DIMSE2
 70
    0
  9
$DIMTAD
 70
    1
  9
$DIMZIN
 70
    8
  9
$DIMBLK
  1

  9
$DIMASO
 70
    1
  9
$DIMSHO
 70
    1
  9
$DIMPOST
  1

  9
$DIMAPOST
  1

  9
$DIMALT
 70
    0
  9
$DIMALTD
 70
    3
  9
$DIMALTF
 40
0.03937
  9
$DIMLFAC
 40
1
  9
$DIMTOFL
 70
    1
  9
$DIMTVP
 40
0
  9
$DIMTIX
 70
    0
  9
$DIMSOXD
 70
    0
  9
$DIMSAH
 70
    0
  9
$DIMBLK1
  1

  9
$DIMBLK2
  1

  9
$DIMSTYLE
  2
STANDARD
  9
$DIMCLRD
 70
    0
  9
$DIMCLRE
 70
    0
  9
$DIMCLRT
 70
    0
  9
$DIMTFAC
 40
1
  9
$DIMGAP
 40
0.625
  9
$LUNITS
 70
    2
  9
$LUPREC
 70
    4
  9
$SKETCHINC
 40
1
  9
$FILLETRAD
 40
0
  9
$AUNITS
 70
    0
  9
$AUPREC
 70
    2
  9
$MENU
  1
.
  9
$ELEVATION
 40
0
  9
$PELEVATION
 40
0
  9
$THICKNESS
 40
0
  9
$LIMCHECK
 70
    0
  9
$BLIPMODE
 70
    0
  9
$CHAMFERA
 40
0
  9
$CHAMFERB
 40
0
  9
$SKPOLY
 70
    0
  9
$USRTIMER
 70
    1
  9
$ANGBASE
 50
0
  9
$ANGDIR
 70
    0
  9
$PDMODE
 70
   34
  9
$PDSIZE
 40
0
  9
$PLINEWID
 40
0
  9
$COORDS
 70
    2
  9
$SPLFRAME
 70
    0
  9
$SPLINETYPE
 70
    2
  9
$SPLINESEGS
 70
    8
  9
$ATTDIA
 70
    1
  9
$ATTREQ
 70
    1
  9
$HANDLING
 70
    1
  9
$HANDSEED
  5
20000
  9
$SURFTAB1
 70
    6
  9
$SURFTAB2
 70
    6
  9
$SURFTYPE
 70
    6
  9
$SURFU
 70
    6
  9
$SURFV
 70
    6
  9
$UCSNAME
  2

  9
$UCSORG
 10
0
 20
0
 30
0
  9
$UCSXDIR
 10
1
 20
0
 30
0
  9
$UCSYDIR
 10
0
 20
1
 30
0
  9
$PUCSNAME
  2

  9
$PUCSORG
 10
0
 20
0
 30
0
  9
$PUCSXDIR
 10
1
 20
0
 30
0
  9
$PUCSYDIR
 10
0
 20
1
 30
0
  9
$USERI1
 70
    0
  9
$USERI2
 70
    0
  9
$USERI3
 70
    0
  9
$USERI4
 70
    0
  9
$USERI5
 70
    0
  9
$USERR1
 40
0
  9
$USERR2
 40
0
  9
$USERR3
 40
0
  9
$USERR4
 40
0
  9
$USERR5
 40
0
  9
$WORLDVIEW
 70
    1
  9
$SHADEDGE
 70
    3
  9
$SHADEDIF
 70
   70
  9
$TILEMODE
 70
    1
  9
$MAXACTVP
 70
   64
  9
$PLIMCHECK
 70
    0
  9
$PEXTMIN
 10
0
 20
0
 30
0
  9
$PEXTMAX
 10
0
 20
0
 30
0
  9
$GRIDMODE
 70
    1
  9
$SNAPSTYLE
 70
    0
  9
$PLIMMIN
 10
0
 20
0
  9
$PLIMMAX
 10
297
 20
210
  9
$UNITMODE
 70
    0
  9
$VISRETAIN
 70
    1
  9
$PLINEGEN
 70
    0
  9
$PSLTSCALE
 70
    1
  0
ENDSEC
  0
SECTION
  2
TABLES
  0
TABLE
  2
VPORT
 70
    1
  0
VPORT
  2
*ACTIVE
 70
    0
 10
0
 20
0
 11
1
 21
1
 12
196.8431250000044
 22
93.37612500000209
 13
0
 23
0
 14
10
 24
10
 15
10
 25
10
 16
0
 26
0
 36
1
 17
0
 27
0
 37
0
 40
245.5920000000055
 41
1.52662037037037
 42
50
 43
0
 44
0
 50
0
 51
0
 71
    0
 72
  100
 73
    1
 74
    3
 75
    0
 76
    1
 77
    0
 78
    0
  0
ENDTAB
  0
TABLE
  2
LTYPE
 70
    4
  0
LTYPE
  2
BYBLOCK
 70
    0
  3

 72
   65
 73
    0
 40
0
  0
LTYPE
  2
BYLAYER
 70
    0
  3

 72
   65
 73
    0
 40
0
  0
LTYPE
  2
CONTINUOUS
 70
    0
  3
Solid line
 72
   65
 73
    0
 40
0
  0
LTYPE
  2
DOT
 70
    0
  3
Dot . . . . . . . . . . . . . . . . . . . . . .
 72
   65
 73
    2
 40
6.35
 49
0
 49
-6.35
  0
LTYPE
  2
DOTTINY
 70
    0
  3
Dot (.15x) .....................................
 72
   65
 73
    2
 40
0.9525
 49
0
 49
-0.9525
  0
LTYPE
  2
DOT2
 70
    0
  3
Dot (.5x) .....................................
 72
   65
 73
    2
 40
3.175
 49
0
 49
-3.175
  0
LTYPE
  2
DOTX2
 70
    0
  3
Dot (2x) .  .  .  .  .  .  .  .  .  .  .  .  .
 72
   65
 73
    2
 40
12.7
 49
0
 49
-12.7
  0
LTYPE
  2
DASHED
 70
    0
  3
Dashed _ _ _ _ _ _ _ _ _ _ _ _ _ _ _ _ _
 72
   65
 73
    2
 40
19.05
 49
12.7
 49
-6.35
  0
LTYPE
  2
DASHEDTINY
 70
    0
  3
Dashed (.15x) _ _ _ _ _ _ _ _ _ _ _ _ _ _ _ _ _
 72
   65
 73
    2
 40
2.8575
 49
1.905
 49
-0.9525
  0
LTYPE
  2
DASHED2
 70
    0
  3
Dashed (.5x) _ _ _ _ _ _ _ _ _ _ _ _ _ _ _ _ _
 72
   65
 73
    2
 40
9.524999999999999
 49
6.35
 49
-3.175
  0
LTYPE
  2
DASHEDX2
 70
    0
  3
Dashed (2x) ____  ____  ____  ____  ____  ___
 72
   65
 73
    2
 40
38.09999999999999
 49
25.4
 49
-12.7
  0
LTYPE
  2
DASHDOT
 70
    0
  3
Dash dot __ . __ . __ . __ . __ . __ . __ . __
 72
   65
 73
    4
 40
25.4
 49
12.7
 49
-6.35
 49
0
 49
-6.35
  0
LTYPE
  2
DASHDOTTINY
 70
    0
  3
Dash dot (.15x) _._._._._._._._._._._._._._._.
 72
   65
 73
    4
 40
3.81
 49
1.905
 49
-0.9525
 49
0
 49
-0.9525
  0
LTYPE
  2
DASHDOT2
 70
    0
  3
Dash dot (.5x) _._._._._._._._._._._._._._._.
 72
   65
 73
    4
 40
12.7
 49
6.35
 49
-3.175
 49
0
 49
-3.175
  0
LTYPE
  2
DASHDOTX2
 70
    0
  3
Dash dot (2x) ____  .  ____  .  ____  .  ___
 72
   65
 73
    4
 40
50.8
 49
25.4
 49
-12.7
 49
0
 49
-12.7
  0
LTYPE
  2
DIVIDE
 70
    0
  3
Divide ____ . . ____ . . ____ . . ____ . . ____
 72
   65
 73
    6
 40
31.75
 49
12.7
 49
-6.35
 49
0
 49
-6.35
 49
0
 49
-6.35
  0
LTYPE
  2
DIVIDETINY
 70
    0
  3
Divide (.15x) __..__..__..__..__..__..__..__.._
 72
   65
 73
    6
 40
4.7625
 49
1.905
 49
-0.9525
 49
0
 49
-0.9525
 49
0
 49
-0.9525
  0
LTYPE
  2
DIVIDE2
 70
    0
  3
Divide (.5x) __..__..__..__..__..__..__..__.._
 72
   65
 73
    6
 40
15.875
 49
6.35
 49
-3.175
 49
0
 49
-3.175
 49
0
 49
-3.175
  0
LTYPE
  2
DIVIDEX2
 70
    0
  3
Divide (2x) ________  .  .  ________  .  .  _
 72
   65
 73
    6
 40
63.5
 49
25.4
 49
-12.7
 49
0
 49
-12.7
 49
0
 49
-12.7
  0
LTYPE
  2
BORDER
 70
    0
  3
Border __ __ . __ __ . __ __ . __ __ . __ __ .
 72
   65
 73
    6
 40
44.45
 49
12.7
 49
-6.35
 49
12.7
 49
-6.35
 49
0
 49
-6.35
  0
LTYPE
  2
BORDERTINY
 70
    0
  3
Border (.15x) __.__.__.__.__.__.__.__.__.__.__.
 72
   65
 73
    6
 40
6.6675
 49
1.905
 49
-0.9525
 49
1.905
 49
-0.9525
 49
0
 49
-0.9525
  0
LTYPE
  2
BORDER2
 70
    0
  3
Border (.5x) __.__.__.__.__.__.__.__.__.__.__.
 72
   65
 73
    6
 40
22.225
 49
6.35
 49
-3.175
 49
6.35
 49
-3.175
 49
0
 49
-3.175
  0
LTYPE
  2
BORDERX2
 70
    0
  3
Border (2x) ____  ____  .  ____  ____  .  ___
 72
   65
 73
    6
 40
88.89999999999999
 49
25.4
 49
-12.7
 49
25.4
 49
-12.7
 49
0
 49
-12.7
  0
LTYPE
  2
CENTER
 70
    0
  3
Center ____ _ ____ _ ____ _ ____ _ ____ _ ____
 72
   65
 73
    4
 40
50.8
 49
31.75
 49
-6.35
 49
6.35
 49
-6.35
  0
LTYPE
  2
CENTERTINY
 70
    0
  3
Center (.15x) ___ _ ___ _ ___ _ ___ _ ___ _ ___
 72
   65
 73
    4
 40
7.619999999999999
 49
4.7625
 49
-0.9525
 49
0.9525
 49
-0.9525
  0
LTYPE
  2
CENTER2
 70
    0
  3
Center (.5x) ___ _ ___ _ ___ _ ___ _ ___ _ ___
 72
   65
 73
    4
 40
28.575
 49
19.05
 49
-3.175
 49
3.175
 49
-3.175
  0
LTYPE
  2
CENTERX2
 70
    0
  3
Center (2x) ________  __  ________  __  _____
 72
   65
 73
    4
 40
101.6
 49
63.5
 49
-12.7
 49
12.7
 49
-12.7
  0
ENDTAB
  0
TABLE
  2
LAYER
 70
    1
  0
LAYER
  2
0
 70
    0
 62
    7
  6
CONTINUOUS
  0
LAYER
  2
FIRSTCUT
 70
    0
 62
    1
  6
CONTINUOUS
  0
ENDTAB
  0
TABLE
  2
STYLE
 70
    3
  0
STYLE
  2
STANDARD
 70
    0
 40
0
 41
1
 50
0
 71
    0
 42
1
  3
TXT
  4

  0
ENDTAB
  0
TABLE
  2
VIEW
 70
    0
  0
ENDTAB
  0
TABLE
  2
UCS
 70
    0
  0
ENDTAB
  0
TABLE
  2
APPID
 70
    1
  0
APPID
  2
ACAD
 70
    0
  0
APPID
  2
LIBRECAD
 70
    0
  0
ENDTAB
  0
TABLE
  2
DIMSTYLE
 70
    1
  0
DIMSTYLE
  2
STANDARD
 70
    0
  3

  4

  5

  6

  7

 40
2.5
 41
2.5
 42
0.625
 43
0.38
 44
1.25
 45
0
 46
0
 47
0
 48
0
 49
1
140
2.5
141
0.09
142
0
143
25.4
144
1
145
0
146
1
147
0.625
 71
    0
 72
    0
 73
    0
 74
    1
 75
    0
 76
    0
 77
    0
 78
    8
170
    0
171
    2
172
    0
173
    0
174
    0
175
    0
176
    0
177
    0
178
    0
  0
ENDTAB
  0
ENDSEC
  0
SECTION
  2
BLOCKS
  0
BLOCK
  8
0
  2
$MODEL_SPACE
 70
    0
 10
0
 20
0
 30
0
  3
$MODEL_SPACE
  1

  0
ENDBLK
  8
0
  0
BLOCK
  8
0
  2
$PAPER_SPACE
 70
    0
 10
0
 20
0
 30
0
  3
$PAPER_SPACE
  1

  0
ENDBLK
  8
0
  0
ENDSEC
  0
SECTION
  2
ENTITIES
  0
LINE
  5
31
  8
0
  6
BYLAYER
 62
  256
 10
133.25
 20
45.5
 11
158.25
 21
45.5
  0
LINE
  5
32
  8
FIRSTCUT
  6
BYLAYER
 62
  256
 10
158.25
 20
45.5
 11
158.25
 21
100.5
  0
LINE
  5
33
  8
FIRSTCUT
  6
BYLAYER
 62
  256
 10
144.3
 20
100.5
 11
144.3
 21
73.00000000000001
  0
LINE
  5
34
  8
FIRSTCUT
  6
BYLAYER
 62
  256
 10
144.3
 20
73.00000000000001
 11
147.2
 21
73.00000000000001
  0
LINE
  5
35
  8
FIRSTCUT
  6
BYLAYER
 62
  256
 10
147.2
 20
73.00000000000001
 11
147.2
 21
100.5
  0
LINE
  5
36
  8
FIRSTCUT
  6
BYLAYER
 62
  256
 10
115.3
 20
100.5
 11
115.3
 21
73.00000000000001
  0
LINE
  5
37
  8
FIRSTCUT
  6
BYLAYER
 62
  256
 10
115.3
 20
73.00000000000001
 11
118.2
 21
73.00000000000001
  0
LINE
  5
38
  8
FIRSTCUT
  6
BYLAYER
 62
  256
 10
118.2
 20
73.00000000000001
 11
118.2
 21
100.5
  0
LINE
  5
39
  8
FIRSTCUT
  6
BYLAYER
 62
  256
 10
166.8
 20
100.5
 11
166.8
 21
73.00000000000001
  0
LINE
  5
3A
  8
FIRSTCUT
  6
BYLAYER
 62
  256
 10
166.8
 20
73.00000000000001
 11
169.7
 21
73.00000000000001
  0
LINE
  5
3B
  8
FIRSTCUT
  6
BYLAYER
 62
  256
 10
169.7
 20
73.00000000000001
 11
169.7
 21
100.5
  0
LINE
  5
3C
  8
FIRSTCUT
  6
BYLAYER
 62
  256
 10
158.25
 20
100.5
 11
166.8
 21
100.5
  0
LINE
  5
3D
  8
FIRSTCUT
  6
BYLAYER
 62
  256
 10
169.7
 20
100.5
 11
178.25
 21
100.5
  0
LINE
  5
3E
  8
FIRSTCUT
  6
BYLAYER
 62
  256
 10
178.25
 20
100.5
 11
178.25
 21
45.5
  0
LINE
  5
3F
  8
0
  6
BYLAYER
 62
  256
 10
178.25
 20
45.5
 11
158.25
 21
45.5
  0
LINE
  5
40
  8
FIRSTCUT
  6
BYLAYER
 62
  256
 10
144.3
 20
100.5
 11
133.25
 21
100.5
  0
LINE
  5
41
  8
FIRSTCUT
  6
BYLAYER
 62
  256
 10
158.25
 20
100.5
 11
147.2
 21
100.5
  0
LINE
  5
42
  8
0
  6
CONTINUOUS
 62
    7
 10
133.25
 20
45.5
 11
100.25
 21
45.5
  0
LINE
  5
43
  8
0
  6
CONTINUOUS
 62
    7
 10
100.25
 20
45.5
 11
100.25
 21
100.5
  0
LINE
  5
44
  8
FIRSTCUT
  6
BYLAYER
 62
  256
 10
186.8
 20
100.5
 11
186.8
 21
73.00000000000001
  0
LINE
  5
45
  8
FIRSTCUT
  6
BYLAYER
 62
  256
 10
186.8
 20
73.00000000000001
 11
189.7
 21
73.00000000000001
  0
LINE
  5
46
  8
FIRSTCUT
  6
BYLAYER
 62
  256
 10
189.7
 20
73.00000000000001
 11
189.7
 21
100.5
  0
LINE
  5
47
  8
FIRSTCUT
  6
BYLAYER
 62
  256
 10
178.25
 20
100.5
 11
186.8
 21
100.5
  0
LINE
  5
48
  8
FIRSTCUT
  6
BYLAYER
 62
  256
 10
189.7
 20
100.5
 11
198.25
 21
100.5
  0
LINE
  5
49
  8
FIRSTCUT
  6
BYLAYER
 62
  256
 10
198.25
 20
100.5
 11
198.25
 21
45.5
  0
LINE
  5
4A
  8
0
  6
BYLAYER
 62
  256
 10
198.25
 20
45.5
 11
178.25
 21
45.5
  0
LINE
  5
4B
  8
0
  6
BYLAYER
 62
  256
 10
133.25
 20
155.5
 11
158.25
 21
155.5
  0
LINE
  5
4C
  8
FIRSTCUT
  6
BYLAYER
 62
  256
 10
158.25
 20
155.5
 11
158.25
 21
100.5
  0
LINE
  5
4D
  8
FIRSTCUT
  6
BYLAYER
 62
  256
 10
144.3
 20
100.5
 11
144.3
 21
128
  0
LINE
  5
4E
  8
FIRSTCUT
  6
BYLAYER
 62
  256
 10
144.3
 20
128
 11
147.2
 21
128
  0
LINE
  5
4F
  8
FIRSTCUT
  6
BYLAYER
 62
  256
 10
147.2
 20
128
 11
147.2
 21
100.5
  0
LINE
  5
50
  8
FIRSTCUT
  6
BYLAYER
 62
  256
 10
115.3
 20
100.5
 11
115.3
 21
128
  0
LINE
  5
51
  8
FIRSTCUT
  6
BYLAYER
 62
  256
 10
115.3
 20
128
 11
118.2
 21
128
  0
LINE
  5
52
  8
FIRSTCUT
  6
BYLAYER
 62
  256
 10
166.8
 20
100.5
 11
166.8
 21
128
  0
LINE
  5
53
  8
FIRSTCUT
  6
BYLAYER
 62
  256
 10
166.8
 20
128
 11
169.7
 21
128
  0
LINE
  5
54
  8
FIRSTCUT
  6
BYLAYER
 62
  256
 10
169.7
 20
128
 11
169.7
 21
100.5
  0
LINE
  5
55
  8
FIRSTCUT
  6
BYLAYER
 62
  256
 10
178.25
 20
100.5
 11
178.25
 21
155.5
  0
LINE
  5
56
  8
0
  6
BYLAYER
 62
  256
 10
178.25
 20
155.5
 11
158.25
 21
155.5
  0
LINE
  5
57
  8
0
  6
CONTINUOUS
 62
    7
 10
133.25
 20
155.5
 11
100.25
 21
155.5
  0
LINE
  5
58
  8
0
  6
CONTINUOUS
 62
    7
 10
100.25
 20
155.5
 11
100.25
 21
100.5
  0
LINE
  5
59
  8
FIRSTCUT
  6
BYLAYER
 62
  256
 10
186.8
 20
100.5
 11
186.8
 21
128
  0
LINE
  5
5A
  8
FIRSTCUT
  6
BYLAYER
 62
  256
 10
186.8
 20
128
 11
189.7
 21
128
  0
LINE
  5
5B
  8
FIRSTCUT
  6
BYLAYER
 62
  256
 10
189.7
 20
128
 11
189.7
 21
100.5
  0
LINE
  5
5C
  8
FIRSTCUT
  6
BYLAYER
 62
  256
 10
198.25
 20
100.5
 11
198.25
 21
155.5
  0
LINE
  5
5D
  8
0
  6
BYLAYER
 62
  256
 10
198.25
 20
155.5
 11
178.25
 21
155.5
  0
LINE
  5
5E
  8
0
  6
BYLAYER
 62
  256
 10
231.2499999999999
 20
45.5
 11
256.2499999999999
 21
45.5
  0
LINE
  5
5F
  8
FIRSTCUT
  6
BYLAYER
 62
  256
 10
256.2499999999999
 20
45.5
 11
256.2499999999999
 21
100.5
  0
LINE
  5
60
  8
FIRSTCUT
  6
BYLAYER
 62
  256
 10
242.3
 20
100.5
 11
242.3
 21
73.00000000000001
  0
LINE
  5
61
  8
FIRSTCUT
  6
BYLAYER
 62
  256
 10
242.3
 20
73.00000000000001
 11
245.1999999999999
 21
73.00000000000001
  0
LINE
  5
62
  8
FIRSTCUT
  6
BYLAYER
 62
  256
 10
245.1999999999999
 20
73.00000000000001
 11
245.1999999999999
 21
100.5
  0
LINE
  5
63
  8
FIRSTCUT
  6
BYLAYER
 62
  256
 10
213.3
 20
100.5
 11
213.3
 21
73.00000000000001
  0
LINE
  5
64
  8
FIRSTCUT
  6
BYLAYER
 62
  256
 10
213.3
 20
73.00000000000001
 11
216.2
 21
73.00000000000001
  0
LINE
  5
65
  8
FIRSTCUT
  6
BYLAYER
 62
  256
 10
216.2
 20
73.00000000000001
 11
216.2
 21
100.5
  0
LINE
  5
66
  8
FIRSTCUT
  6
BYLAYER
 62
  256
 10
264.8
 20
100.5
 11
264.8
 21
73.00000000000001
  0
LINE
  5
67
  8
FIRSTCUT
  6
BYLAYER
 62
  256
 10
264.8
 20
73.00000000000001
 11
267.6999999999999
 21
73.00000000000001
  0
LINE
  5
68
  8
FIRSTCUT
  6
BYLAYER
 62
  256
 10
267.6999999999999
 20
73.00000000000001
 11
267.6999999999999
 21
100.5
  0
LINE
  5
69
  8
FIRSTCUT
  6
BYLAYER
 62
  256
 10
256.25
 20
100.5
 11
264.8
 21
100.5
  0
LINE
  5
6A
  8
FIRSTCUT
  6
BYLAYER
 62
  256
 10
267.6999999999999
 20
100.5
 11
276.2499999999999
 21
100.5
  0
LINE
  5
6B
  8
FIRSTCUT
  6
BYLAYER
 62
  256
 10
276.2499999999999
 20
100.5
 11
276.2499999999999
 21
45.5
  0
LINE
  5
6C
  8
0
  6
BYLAYER
 62
  256
 10
276.2499999999999
 20
45.5
 11
256.2499999999999
 21
45.5
  0
LINE
  5
6D
  8
FIRSTCUT
  6
BYLAYER
 62
  256
 10
242.3
 20
100.5
 11
231.2499999999999
 21
100.5
  0
LINE
  5
6E
  8
FIRSTCUT
  6
BYLAYER
 62
  256
 10
256.2499999999999
 20
100.5
 11
245.1999999999999
 21
100.5
  0
LINE
  5
6F
  8
0
  6
CONTINUOUS
 62
    7
 10
231.2499999999999
 20
45.5
 11
198.25
 21
45.5
  0
LINE
  5
70
  8
FIRSTCUT
  6
BYLAYER
 62
  256
 10
284.8
 20
100.5
 11
284.8
 21
73.00000000000001
  0
LINE
  5
71
  8
FIRSTCUT
  6
BYLAYER
 62
  256
 10
284.8
 20
73.00000000000001
 11
287.6999999999999
 21
73.00000000000001
  0
LINE
  5
72
  8
FIRSTCUT
  6
BYLAYER
 62
  256
 10
287.6999999999999
 20
73.00000000000001
 11
287.6999999999999
 21
100.5
  0
LINE
  5
73
  8
FIRSTCUT
  6
BYLAYER
 62
  256
 10
276.2499999999999
 20
100.5
 11
284.8
 21
100.5
  0
LINE
  5
74
  8
FIRSTCUT
  6
BYLAYER
 62
  256
 10
287.6999999999999
 20
100.5
 11
296.2499999999999
 21
100.5
  0
LINE
  5
75
  8
0
  6
BYLAYER
 62
  256
 10
296.2499999999999
 20
100.5
 11
296.2499999999999
 21
45.5
  0
LINE
  5
76
  8
0
  6
BYLAYER
 62
  256
 10
296.2499999999999
 20
45.5
 11
276.2499999999999
 21
45.5
  0
LINE
  5
77
  8
0
  6
BYLAYER
 62
  256
 10
231.2499999999999
 20
155.5
 11
256.2499999999999
 21
155.5
  0
LINE
  5
78
  8
FIRSTCUT
  6
BYLAYER
 62
  256
 10
256.2499999999999
 20
155.5
 11
256.2499999999999
 21
100.5
  0
LINE
  5
79
  8
FIRSTCUT
  6
BYLAYER
 62
  256
 10
242.3
 20
100.5
 11
242.3
 21
128
  0
LINE
  5
7A
  8
FIRSTCUT
  6
BYLAYER
 62
  256
 10
242.3
 20
128
 11
245.1999999999999
 21
128
  0
LINE
  5
7B
  8
FIRSTCUT
  6
BYLAYER
 62
  256
 10
245.1999999999999
 20
128
 11
245.1999999999999
 21
100.5
  0
LINE
  5
7C
  8
FIRSTCUT
  6
BYLAYER
 62
  256
 10
213.3
 20
100.5
 11
213.3
 21
128
  0
LINE
  5
7D
  8
FIRSTCUT
  6
BYLAYER
 62
  256
 10
213.3
 20
128
 11
216.2
 21
128
  0
LINE
  5
7E
  8
FIRSTCUT
  6
BYLAYER
 62
  256
 10
216.2
 20
128
 11
216.2
 21
100.5
  0
LINE
  5
7F
  8
FIRSTCUT
  6
BYLAYER
 62
  256
 10
264.8
 20
100.5
 11
264.8
 21
128
  0
LINE
  5
80
  8
FIRSTCUT
  6
BYLAYER
 62
  256
 10
264.8
 20
128
 11
267.6999999999999
 21
128
  0
LINE
  5
81
  8
FIRSTCUT
  6
BYLAYER
 62
  256
 10
267.6999999999999
 20
128
 11
267.6999999999999
 21
100.5
  0
LINE
  5
82
  8
FIRSTCUT
  6
BYLAYER
 62
  256
 10
276.2499999999999
 20
100.5
 11
276.2499999999999
 21
155.5
  0
LINE
  5
83
  8
0
  6
BYLAYER
 62
  256
 10
276.2499999999999
 20
155.5
 11
256.2499999999999
 21
155.5
  0
LINE
  5
84
  8
0
  6
CONTINUOUS
 62
    7
 10
231.2499999999999
 20
155.5
 11
198.25
 21
155.5
  0
LINE
  5
85
  8
FIRSTCUT
  6
BYLAYER
 62
  256
 10
284.8
 20
100.5
 11
284.8
 21
128
  0
LINE
  5
86
  8
FIRSTCUT
  6
BYLAYER
 62
  256
 10
284.8
 20
128
 11
287.7
 21
128
  0
LINE
  5
87
  8
FIRSTCUT
  6
BYLAYER
 62
  256
 10
287.7
 20
128
 11
287.7
 21
100.5
  0
LINE
  5
88
  8
0
  6
BYLAYER
 62
  256
 10
296.2499999999999
 20
100.5
 11
296.2499999999999
 21
155.5
  0
LINE
  5
89
  8
0
  6
BYLAYER
 62
  256
 10
296.2499999999999
 20
155.5
 11
276.25
 21
155.5
  0
LINE
  5
8A
  8
FIRSTCUT
  6
CONTINUOUS
 62
  256
 10
100.25
 20
100.5
 11
115.3
 21
100.5
  0
LINE
  5
8B
  8
FIRSTCUT
  6
BYLAYER
 62
  256
 10
118.2
 20
128
 11
118.2
 21
100.5
  0
LINE
  5
8C
  8
FIRSTCUT
  6
CONTINUOUS
 62
  256
 10
133.25
 20
100.5
 11
133.25
 21
155.5
  0
LINE
  5
8D
  8
FIRSTCUT
  6
CONTINUOUS
 62
  256
 10
118.2
 20
100.5
 11
133.25
 21
100.5
  0
LINE
  5
8E
  8
FIRSTCUT
  6
CONTINUOUS
 62
  256
 10
133.25
 20
100.5
 11
133.25
 21
45.5
  0
LINE
  5
8F
  8
FIRSTCUT
  6
CONTINUOUS
 62
  256
 10
231.25
 20
100.5
 11
231.25
 21
45.5
  0
LINE
  5
90
  8
FIRSTCUT
  6
CONTINUOUS
 62
  256
 10
216.2
 20
100.5
 11
231.25
 21
100.5
  0
LINE
  5
91
  8
FIRSTCUT
  6
CONTINUOUS
 62
  256
 10
198.25
 20
100.5
 11
213.3
 21
100.5
  0
LINE
  5
92
  8
FIRSTCUT
  6
CONTINUOUS
 62
  256
 10
231.25
 20
100.5
 11
231.25
 21
155.5
  0
ENDSEC
  0
EOF
