G04 #@! TF.FileFunction,Legend,Top*
%FSLAX46Y46*%
G04 Gerber Fmt 4.6, Leading zero omitted, Abs format (unit mm)*
G04 Created by KiCad (PCBNEW 0.201601262101+6516~42~ubuntu15.10.1-product) date Wed 27 Jan 2016 03:04:45 PM CET*
%MOMM*%
G01*
G04 APERTURE LIST*
%ADD10C,0.020000*%
%ADD11C,0.150000*%
%ADD12C,0.050000*%
G04 APERTURE END LIST*
D10*
D11*
X141224000Y-128270000D02*
X143764000Y-128270000D01*
X143764000Y-128270000D02*
X143764000Y-118110000D01*
X143764000Y-118110000D02*
X141224000Y-118110000D01*
X141224000Y-118110000D02*
X141224000Y-128270000D01*
X142494000Y-116840000D02*
X142494000Y-118110000D01*
X142494000Y-129540000D02*
X142494000Y-128270000D01*
X112014000Y-128270000D02*
X114554000Y-128270000D01*
X114554000Y-128270000D02*
X114554000Y-118110000D01*
X114554000Y-118110000D02*
X112014000Y-118110000D01*
X112014000Y-118110000D02*
X112014000Y-128270000D01*
X113284000Y-116840000D02*
X113284000Y-118110000D01*
X113284000Y-129540000D02*
X113284000Y-128270000D01*
X117856000Y-128270000D02*
X120396000Y-128270000D01*
X120396000Y-128270000D02*
X120396000Y-118110000D01*
X120396000Y-118110000D02*
X117856000Y-118110000D01*
X117856000Y-118110000D02*
X117856000Y-128270000D01*
X119126000Y-116840000D02*
X119126000Y-118110000D01*
X119126000Y-129540000D02*
X119126000Y-128270000D01*
X123698000Y-128270000D02*
X126238000Y-128270000D01*
X126238000Y-128270000D02*
X126238000Y-118110000D01*
X126238000Y-118110000D02*
X123698000Y-118110000D01*
X123698000Y-118110000D02*
X123698000Y-128270000D01*
X124968000Y-116840000D02*
X124968000Y-118110000D01*
X124968000Y-129540000D02*
X124968000Y-128270000D01*
X129540000Y-128270000D02*
X132080000Y-128270000D01*
X132080000Y-128270000D02*
X132080000Y-118110000D01*
X132080000Y-118110000D02*
X129540000Y-118110000D01*
X129540000Y-118110000D02*
X129540000Y-128270000D01*
X130810000Y-116840000D02*
X130810000Y-118110000D01*
X130810000Y-129540000D02*
X130810000Y-128270000D01*
X135382000Y-128270000D02*
X137922000Y-128270000D01*
X137922000Y-128270000D02*
X137922000Y-118110000D01*
X137922000Y-118110000D02*
X135382000Y-118110000D01*
X135382000Y-118110000D02*
X135382000Y-128270000D01*
X136652000Y-116840000D02*
X136652000Y-118110000D01*
X136652000Y-129540000D02*
X136652000Y-128270000D01*
X101600000Y-117094000D02*
X96520000Y-117094000D01*
X96520000Y-117094000D02*
X96520000Y-114554000D01*
X96520000Y-114554000D02*
X101600000Y-114554000D01*
X101600000Y-114554000D02*
X101600000Y-117094000D01*
X101600000Y-115824000D02*
X102870000Y-115824000D01*
X96520000Y-115824000D02*
X95250000Y-115824000D01*
X101600000Y-129794000D02*
X96520000Y-129794000D01*
X96520000Y-129794000D02*
X96520000Y-127254000D01*
X96520000Y-127254000D02*
X101600000Y-127254000D01*
X101600000Y-127254000D02*
X101600000Y-129794000D01*
X101600000Y-128524000D02*
X102870000Y-128524000D01*
X96520000Y-128524000D02*
X95250000Y-128524000D01*
X101600000Y-119634000D02*
X96520000Y-119634000D01*
X96520000Y-119634000D02*
X96520000Y-117094000D01*
X96520000Y-117094000D02*
X101600000Y-117094000D01*
X101600000Y-117094000D02*
X101600000Y-119634000D01*
X101600000Y-118364000D02*
X102870000Y-118364000D01*
X96520000Y-118364000D02*
X95250000Y-118364000D01*
X101600000Y-122174000D02*
X96520000Y-122174000D01*
X96520000Y-122174000D02*
X96520000Y-119634000D01*
X96520000Y-119634000D02*
X101600000Y-119634000D01*
X101600000Y-119634000D02*
X101600000Y-122174000D01*
X101600000Y-120904000D02*
X102870000Y-120904000D01*
X96520000Y-120904000D02*
X95250000Y-120904000D01*
X101600000Y-124714000D02*
X96520000Y-124714000D01*
X96520000Y-124714000D02*
X96520000Y-122174000D01*
X96520000Y-122174000D02*
X101600000Y-122174000D01*
X101600000Y-122174000D02*
X101600000Y-124714000D01*
X101600000Y-123444000D02*
X102870000Y-123444000D01*
X96520000Y-123444000D02*
X95250000Y-123444000D01*
X101600000Y-127254000D02*
X96520000Y-127254000D01*
X96520000Y-127254000D02*
X96520000Y-124714000D01*
X96520000Y-124714000D02*
X101600000Y-124714000D01*
X101600000Y-124714000D02*
X101600000Y-127254000D01*
X101600000Y-125984000D02*
X102870000Y-125984000D01*
X96520000Y-125984000D02*
X95250000Y-125984000D01*
X139995000Y-110431000D02*
X144993000Y-110431000D01*
X140003000Y-110291000D02*
X142340000Y-110291000D01*
X142648000Y-110291000D02*
X144985000Y-110291000D01*
X140019000Y-110151000D02*
X142021000Y-110151000D01*
X142967000Y-110151000D02*
X144969000Y-110151000D01*
X140043000Y-110011000D02*
X141874000Y-110011000D01*
X143114000Y-110011000D02*
X144945000Y-110011000D01*
X140076000Y-109871000D02*
X141782000Y-109871000D01*
X143206000Y-109871000D02*
X144912000Y-109871000D01*
X140117000Y-109731000D02*
X141726000Y-109731000D01*
X143262000Y-109731000D02*
X144871000Y-109731000D01*
X140167000Y-109591000D02*
X141699000Y-109591000D01*
X143289000Y-109591000D02*
X144821000Y-109591000D01*
X140228000Y-109451000D02*
X141696000Y-109451000D01*
X143292000Y-109451000D02*
X144760000Y-109451000D01*
X140298000Y-109311000D02*
X141718000Y-109311000D01*
X143270000Y-109311000D02*
X144690000Y-109311000D01*
X140380000Y-109171000D02*
X141768000Y-109171000D01*
X143220000Y-109171000D02*
X144608000Y-109171000D01*
X140475000Y-109031000D02*
X141850000Y-109031000D01*
X143138000Y-109031000D02*
X144513000Y-109031000D01*
X140586000Y-108891000D02*
X141982000Y-108891000D01*
X143006000Y-108891000D02*
X144402000Y-108891000D01*
X140714000Y-108751000D02*
X142229000Y-108751000D01*
X142759000Y-108751000D02*
X144274000Y-108751000D01*
X140863000Y-108611000D02*
X144125000Y-108611000D01*
X141042000Y-108471000D02*
X143946000Y-108471000D01*
X141261000Y-108331000D02*
X143727000Y-108331000D01*
X141550000Y-108191000D02*
X143438000Y-108191000D01*
X142022000Y-108051000D02*
X142966000Y-108051000D01*
X143294000Y-109506000D02*
G75*
G03X143294000Y-109506000I-800000J0D01*
G01*
X145031500Y-110506000D02*
G75*
G03X145031500Y-110506000I-2537500J0D01*
G01*
D12*
X145294000Y-110506000D02*
G75*
G03X145294000Y-110506000I-2800000J0D01*
G01*
D11*
X116627000Y-110431000D02*
X121625000Y-110431000D01*
X116635000Y-110291000D02*
X118972000Y-110291000D01*
X119280000Y-110291000D02*
X121617000Y-110291000D01*
X116651000Y-110151000D02*
X118653000Y-110151000D01*
X119599000Y-110151000D02*
X121601000Y-110151000D01*
X116675000Y-110011000D02*
X118506000Y-110011000D01*
X119746000Y-110011000D02*
X121577000Y-110011000D01*
X116708000Y-109871000D02*
X118414000Y-109871000D01*
X119838000Y-109871000D02*
X121544000Y-109871000D01*
X116749000Y-109731000D02*
X118358000Y-109731000D01*
X119894000Y-109731000D02*
X121503000Y-109731000D01*
X116799000Y-109591000D02*
X118331000Y-109591000D01*
X119921000Y-109591000D02*
X121453000Y-109591000D01*
X116860000Y-109451000D02*
X118328000Y-109451000D01*
X119924000Y-109451000D02*
X121392000Y-109451000D01*
X116930000Y-109311000D02*
X118350000Y-109311000D01*
X119902000Y-109311000D02*
X121322000Y-109311000D01*
X117012000Y-109171000D02*
X118400000Y-109171000D01*
X119852000Y-109171000D02*
X121240000Y-109171000D01*
X117107000Y-109031000D02*
X118482000Y-109031000D01*
X119770000Y-109031000D02*
X121145000Y-109031000D01*
X117218000Y-108891000D02*
X118614000Y-108891000D01*
X119638000Y-108891000D02*
X121034000Y-108891000D01*
X117346000Y-108751000D02*
X118861000Y-108751000D01*
X119391000Y-108751000D02*
X120906000Y-108751000D01*
X117495000Y-108611000D02*
X120757000Y-108611000D01*
X117674000Y-108471000D02*
X120578000Y-108471000D01*
X117893000Y-108331000D02*
X120359000Y-108331000D01*
X118182000Y-108191000D02*
X120070000Y-108191000D01*
X118654000Y-108051000D02*
X119598000Y-108051000D01*
X119926000Y-109506000D02*
G75*
G03X119926000Y-109506000I-800000J0D01*
G01*
X121663500Y-110506000D02*
G75*
G03X121663500Y-110506000I-2537500J0D01*
G01*
D12*
X121926000Y-110506000D02*
G75*
G03X121926000Y-110506000I-2800000J0D01*
G01*
D11*
X122469000Y-110431000D02*
X127467000Y-110431000D01*
X122477000Y-110291000D02*
X124814000Y-110291000D01*
X125122000Y-110291000D02*
X127459000Y-110291000D01*
X122493000Y-110151000D02*
X124495000Y-110151000D01*
X125441000Y-110151000D02*
X127443000Y-110151000D01*
X122517000Y-110011000D02*
X124348000Y-110011000D01*
X125588000Y-110011000D02*
X127419000Y-110011000D01*
X122550000Y-109871000D02*
X124256000Y-109871000D01*
X125680000Y-109871000D02*
X127386000Y-109871000D01*
X122591000Y-109731000D02*
X124200000Y-109731000D01*
X125736000Y-109731000D02*
X127345000Y-109731000D01*
X122641000Y-109591000D02*
X124173000Y-109591000D01*
X125763000Y-109591000D02*
X127295000Y-109591000D01*
X122702000Y-109451000D02*
X124170000Y-109451000D01*
X125766000Y-109451000D02*
X127234000Y-109451000D01*
X122772000Y-109311000D02*
X124192000Y-109311000D01*
X125744000Y-109311000D02*
X127164000Y-109311000D01*
X122854000Y-109171000D02*
X124242000Y-109171000D01*
X125694000Y-109171000D02*
X127082000Y-109171000D01*
X122949000Y-109031000D02*
X124324000Y-109031000D01*
X125612000Y-109031000D02*
X126987000Y-109031000D01*
X123060000Y-108891000D02*
X124456000Y-108891000D01*
X125480000Y-108891000D02*
X126876000Y-108891000D01*
X123188000Y-108751000D02*
X124703000Y-108751000D01*
X125233000Y-108751000D02*
X126748000Y-108751000D01*
X123337000Y-108611000D02*
X126599000Y-108611000D01*
X123516000Y-108471000D02*
X126420000Y-108471000D01*
X123735000Y-108331000D02*
X126201000Y-108331000D01*
X124024000Y-108191000D02*
X125912000Y-108191000D01*
X124496000Y-108051000D02*
X125440000Y-108051000D01*
X125768000Y-109506000D02*
G75*
G03X125768000Y-109506000I-800000J0D01*
G01*
X127505500Y-110506000D02*
G75*
G03X127505500Y-110506000I-2537500J0D01*
G01*
D12*
X127768000Y-110506000D02*
G75*
G03X127768000Y-110506000I-2800000J0D01*
G01*
D11*
X128311000Y-110431000D02*
X133309000Y-110431000D01*
X128319000Y-110291000D02*
X130656000Y-110291000D01*
X130964000Y-110291000D02*
X133301000Y-110291000D01*
X128335000Y-110151000D02*
X130337000Y-110151000D01*
X131283000Y-110151000D02*
X133285000Y-110151000D01*
X128359000Y-110011000D02*
X130190000Y-110011000D01*
X131430000Y-110011000D02*
X133261000Y-110011000D01*
X128392000Y-109871000D02*
X130098000Y-109871000D01*
X131522000Y-109871000D02*
X133228000Y-109871000D01*
X128433000Y-109731000D02*
X130042000Y-109731000D01*
X131578000Y-109731000D02*
X133187000Y-109731000D01*
X128483000Y-109591000D02*
X130015000Y-109591000D01*
X131605000Y-109591000D02*
X133137000Y-109591000D01*
X128544000Y-109451000D02*
X130012000Y-109451000D01*
X131608000Y-109451000D02*
X133076000Y-109451000D01*
X128614000Y-109311000D02*
X130034000Y-109311000D01*
X131586000Y-109311000D02*
X133006000Y-109311000D01*
X128696000Y-109171000D02*
X130084000Y-109171000D01*
X131536000Y-109171000D02*
X132924000Y-109171000D01*
X128791000Y-109031000D02*
X130166000Y-109031000D01*
X131454000Y-109031000D02*
X132829000Y-109031000D01*
X128902000Y-108891000D02*
X130298000Y-108891000D01*
X131322000Y-108891000D02*
X132718000Y-108891000D01*
X129030000Y-108751000D02*
X130545000Y-108751000D01*
X131075000Y-108751000D02*
X132590000Y-108751000D01*
X129179000Y-108611000D02*
X132441000Y-108611000D01*
X129358000Y-108471000D02*
X132262000Y-108471000D01*
X129577000Y-108331000D02*
X132043000Y-108331000D01*
X129866000Y-108191000D02*
X131754000Y-108191000D01*
X130338000Y-108051000D02*
X131282000Y-108051000D01*
X131610000Y-109506000D02*
G75*
G03X131610000Y-109506000I-800000J0D01*
G01*
X133347500Y-110506000D02*
G75*
G03X133347500Y-110506000I-2537500J0D01*
G01*
D12*
X133610000Y-110506000D02*
G75*
G03X133610000Y-110506000I-2800000J0D01*
G01*
D11*
X134153000Y-110431000D02*
X139151000Y-110431000D01*
X134161000Y-110291000D02*
X136498000Y-110291000D01*
X136806000Y-110291000D02*
X139143000Y-110291000D01*
X134177000Y-110151000D02*
X136179000Y-110151000D01*
X137125000Y-110151000D02*
X139127000Y-110151000D01*
X134201000Y-110011000D02*
X136032000Y-110011000D01*
X137272000Y-110011000D02*
X139103000Y-110011000D01*
X134234000Y-109871000D02*
X135940000Y-109871000D01*
X137364000Y-109871000D02*
X139070000Y-109871000D01*
X134275000Y-109731000D02*
X135884000Y-109731000D01*
X137420000Y-109731000D02*
X139029000Y-109731000D01*
X134325000Y-109591000D02*
X135857000Y-109591000D01*
X137447000Y-109591000D02*
X138979000Y-109591000D01*
X134386000Y-109451000D02*
X135854000Y-109451000D01*
X137450000Y-109451000D02*
X138918000Y-109451000D01*
X134456000Y-109311000D02*
X135876000Y-109311000D01*
X137428000Y-109311000D02*
X138848000Y-109311000D01*
X134538000Y-109171000D02*
X135926000Y-109171000D01*
X137378000Y-109171000D02*
X138766000Y-109171000D01*
X134633000Y-109031000D02*
X136008000Y-109031000D01*
X137296000Y-109031000D02*
X138671000Y-109031000D01*
X134744000Y-108891000D02*
X136140000Y-108891000D01*
X137164000Y-108891000D02*
X138560000Y-108891000D01*
X134872000Y-108751000D02*
X136387000Y-108751000D01*
X136917000Y-108751000D02*
X138432000Y-108751000D01*
X135021000Y-108611000D02*
X138283000Y-108611000D01*
X135200000Y-108471000D02*
X138104000Y-108471000D01*
X135419000Y-108331000D02*
X137885000Y-108331000D01*
X135708000Y-108191000D02*
X137596000Y-108191000D01*
X136180000Y-108051000D02*
X137124000Y-108051000D01*
X137452000Y-109506000D02*
G75*
G03X137452000Y-109506000I-800000J0D01*
G01*
X139189500Y-110506000D02*
G75*
G03X139189500Y-110506000I-2537500J0D01*
G01*
D12*
X139452000Y-110506000D02*
G75*
G03X139452000Y-110506000I-2800000J0D01*
G01*
D11*
X110785000Y-110431000D02*
X115783000Y-110431000D01*
X110793000Y-110291000D02*
X113130000Y-110291000D01*
X113438000Y-110291000D02*
X115775000Y-110291000D01*
X110809000Y-110151000D02*
X112811000Y-110151000D01*
X113757000Y-110151000D02*
X115759000Y-110151000D01*
X110833000Y-110011000D02*
X112664000Y-110011000D01*
X113904000Y-110011000D02*
X115735000Y-110011000D01*
X110866000Y-109871000D02*
X112572000Y-109871000D01*
X113996000Y-109871000D02*
X115702000Y-109871000D01*
X110907000Y-109731000D02*
X112516000Y-109731000D01*
X114052000Y-109731000D02*
X115661000Y-109731000D01*
X110957000Y-109591000D02*
X112489000Y-109591000D01*
X114079000Y-109591000D02*
X115611000Y-109591000D01*
X111018000Y-109451000D02*
X112486000Y-109451000D01*
X114082000Y-109451000D02*
X115550000Y-109451000D01*
X111088000Y-109311000D02*
X112508000Y-109311000D01*
X114060000Y-109311000D02*
X115480000Y-109311000D01*
X111170000Y-109171000D02*
X112558000Y-109171000D01*
X114010000Y-109171000D02*
X115398000Y-109171000D01*
X111265000Y-109031000D02*
X112640000Y-109031000D01*
X113928000Y-109031000D02*
X115303000Y-109031000D01*
X111376000Y-108891000D02*
X112772000Y-108891000D01*
X113796000Y-108891000D02*
X115192000Y-108891000D01*
X111504000Y-108751000D02*
X113019000Y-108751000D01*
X113549000Y-108751000D02*
X115064000Y-108751000D01*
X111653000Y-108611000D02*
X114915000Y-108611000D01*
X111832000Y-108471000D02*
X114736000Y-108471000D01*
X112051000Y-108331000D02*
X114517000Y-108331000D01*
X112340000Y-108191000D02*
X114228000Y-108191000D01*
X112812000Y-108051000D02*
X113756000Y-108051000D01*
X114084000Y-109506000D02*
G75*
G03X114084000Y-109506000I-800000J0D01*
G01*
X115821500Y-110506000D02*
G75*
G03X115821500Y-110506000I-2537500J0D01*
G01*
D12*
X116084000Y-110506000D02*
G75*
G03X116084000Y-110506000I-2800000J0D01*
G01*
D11*
X91694000Y-117094000D02*
X91694000Y-129794000D01*
X91694000Y-129794000D02*
X89154000Y-129794000D01*
X89154000Y-129794000D02*
X89154000Y-117094000D01*
X91974000Y-114274000D02*
X91974000Y-115824000D01*
X91694000Y-117094000D02*
X89154000Y-117094000D01*
X88874000Y-115824000D02*
X88874000Y-114274000D01*
X88874000Y-114274000D02*
X91974000Y-114274000D01*
X85344000Y-127254000D02*
X85344000Y-114554000D01*
X85344000Y-114554000D02*
X87884000Y-114554000D01*
X87884000Y-114554000D02*
X87884000Y-127254000D01*
X85064000Y-130074000D02*
X85064000Y-128524000D01*
X85344000Y-127254000D02*
X87884000Y-127254000D01*
X88164000Y-128524000D02*
X88164000Y-130074000D01*
X88164000Y-130074000D02*
X85064000Y-130074000D01*
X109220000Y-114554000D02*
X109220000Y-132334000D01*
X109220000Y-132334000D02*
X106680000Y-132334000D01*
X106680000Y-132334000D02*
X106680000Y-114554000D01*
X109500000Y-111734000D02*
X109500000Y-113284000D01*
X109220000Y-114554000D02*
X106680000Y-114554000D01*
X106400000Y-113284000D02*
X106400000Y-111734000D01*
X106400000Y-111734000D02*
X109500000Y-111734000D01*
X142279714Y-123880476D02*
X142946381Y-123880476D01*
X141898762Y-124118572D02*
X142613048Y-124356667D01*
X142613048Y-123737619D01*
X141946381Y-123451905D02*
X141946381Y-122785238D01*
X142946381Y-123213810D01*
X142946381Y-122404286D02*
X141946381Y-122404286D01*
X142565429Y-122309048D02*
X142946381Y-122023333D01*
X142279714Y-122023333D02*
X142660667Y-122404286D01*
X113069714Y-123880476D02*
X113736381Y-123880476D01*
X112688762Y-124118572D02*
X113403048Y-124356667D01*
X113403048Y-123737619D01*
X112736381Y-123451905D02*
X112736381Y-122785238D01*
X113736381Y-123213810D01*
X113736381Y-122404286D02*
X112736381Y-122404286D01*
X113355429Y-122309048D02*
X113736381Y-122023333D01*
X113069714Y-122023333D02*
X113450667Y-122404286D01*
X118911714Y-123880476D02*
X119578381Y-123880476D01*
X118530762Y-124118572D02*
X119245048Y-124356667D01*
X119245048Y-123737619D01*
X118578381Y-123451905D02*
X118578381Y-122785238D01*
X119578381Y-123213810D01*
X119578381Y-122404286D02*
X118578381Y-122404286D01*
X119197429Y-122309048D02*
X119578381Y-122023333D01*
X118911714Y-122023333D02*
X119292667Y-122404286D01*
X124753714Y-123880476D02*
X125420381Y-123880476D01*
X124372762Y-124118572D02*
X125087048Y-124356667D01*
X125087048Y-123737619D01*
X124420381Y-123451905D02*
X124420381Y-122785238D01*
X125420381Y-123213810D01*
X125420381Y-122404286D02*
X124420381Y-122404286D01*
X125039429Y-122309048D02*
X125420381Y-122023333D01*
X124753714Y-122023333D02*
X125134667Y-122404286D01*
X130595714Y-123880476D02*
X131262381Y-123880476D01*
X130214762Y-124118572D02*
X130929048Y-124356667D01*
X130929048Y-123737619D01*
X130262381Y-123451905D02*
X130262381Y-122785238D01*
X131262381Y-123213810D01*
X131262381Y-122404286D02*
X130262381Y-122404286D01*
X130881429Y-122309048D02*
X131262381Y-122023333D01*
X130595714Y-122023333D02*
X130976667Y-122404286D01*
X136437714Y-123880476D02*
X137104381Y-123880476D01*
X136056762Y-124118572D02*
X136771048Y-124356667D01*
X136771048Y-123737619D01*
X136104381Y-123451905D02*
X136104381Y-122785238D01*
X137104381Y-123213810D01*
X137104381Y-122404286D02*
X136104381Y-122404286D01*
X136723429Y-122309048D02*
X137104381Y-122023333D01*
X136437714Y-122023333D02*
X136818667Y-122404286D01*
X98845715Y-116276381D02*
X98274286Y-116276381D01*
X98560000Y-116276381D02*
X98560000Y-115276381D01*
X98464762Y-115419238D01*
X98369524Y-115514476D01*
X98274286Y-115562095D01*
X99274286Y-116276381D02*
X99274286Y-115276381D01*
X99845715Y-116276381D02*
X99417143Y-115704952D01*
X99845715Y-115276381D02*
X99274286Y-115847810D01*
X98845715Y-128976381D02*
X98274286Y-128976381D01*
X98560000Y-128976381D02*
X98560000Y-127976381D01*
X98464762Y-128119238D01*
X98369524Y-128214476D01*
X98274286Y-128262095D01*
X99274286Y-128976381D02*
X99274286Y-127976381D01*
X99845715Y-128976381D02*
X99417143Y-128404952D01*
X99845715Y-127976381D02*
X99274286Y-128547810D01*
X98845715Y-118562381D02*
X98274286Y-118562381D01*
X98560000Y-118562381D02*
X98560000Y-117562381D01*
X98464762Y-117705238D01*
X98369524Y-117800476D01*
X98274286Y-117848095D01*
X99274286Y-118562381D02*
X99274286Y-117562381D01*
X99845715Y-118562381D02*
X99417143Y-117990952D01*
X99845715Y-117562381D02*
X99274286Y-118133810D01*
X98845715Y-121102381D02*
X98274286Y-121102381D01*
X98560000Y-121102381D02*
X98560000Y-120102381D01*
X98464762Y-120245238D01*
X98369524Y-120340476D01*
X98274286Y-120388095D01*
X99274286Y-121102381D02*
X99274286Y-120102381D01*
X99845715Y-121102381D02*
X99417143Y-120530952D01*
X99845715Y-120102381D02*
X99274286Y-120673810D01*
X98845715Y-123896381D02*
X98274286Y-123896381D01*
X98560000Y-123896381D02*
X98560000Y-122896381D01*
X98464762Y-123039238D01*
X98369524Y-123134476D01*
X98274286Y-123182095D01*
X99274286Y-123896381D02*
X99274286Y-122896381D01*
X99845715Y-123896381D02*
X99417143Y-123324952D01*
X99845715Y-122896381D02*
X99274286Y-123467810D01*
X98845715Y-126436381D02*
X98274286Y-126436381D01*
X98560000Y-126436381D02*
X98560000Y-125436381D01*
X98464762Y-125579238D01*
X98369524Y-125674476D01*
X98274286Y-125722095D01*
X99274286Y-126436381D02*
X99274286Y-125436381D01*
X99845715Y-126436381D02*
X99417143Y-125864952D01*
X99845715Y-125436381D02*
X99274286Y-126007810D01*
X144692762Y-114244381D02*
X144121333Y-114244381D01*
X144407047Y-114244381D02*
X144407047Y-113244381D01*
X144311809Y-113387238D01*
X144216571Y-113482476D01*
X144121333Y-113530095D01*
X145549905Y-113577714D02*
X145549905Y-114244381D01*
X145121333Y-113577714D02*
X145121333Y-114101524D01*
X145168952Y-114196762D01*
X145264190Y-114244381D01*
X145407048Y-114244381D01*
X145502286Y-114196762D01*
X145549905Y-114149143D01*
X146359429Y-113720571D02*
X146026095Y-113720571D01*
X146026095Y-114244381D02*
X146026095Y-113244381D01*
X146502286Y-113244381D01*
X121324762Y-114244381D02*
X120753333Y-114244381D01*
X121039047Y-114244381D02*
X121039047Y-113244381D01*
X120943809Y-113387238D01*
X120848571Y-113482476D01*
X120753333Y-113530095D01*
X122181905Y-113577714D02*
X122181905Y-114244381D01*
X121753333Y-113577714D02*
X121753333Y-114101524D01*
X121800952Y-114196762D01*
X121896190Y-114244381D01*
X122039048Y-114244381D01*
X122134286Y-114196762D01*
X122181905Y-114149143D01*
X122991429Y-113720571D02*
X122658095Y-113720571D01*
X122658095Y-114244381D02*
X122658095Y-113244381D01*
X123134286Y-113244381D01*
X127166762Y-114244381D02*
X126595333Y-114244381D01*
X126881047Y-114244381D02*
X126881047Y-113244381D01*
X126785809Y-113387238D01*
X126690571Y-113482476D01*
X126595333Y-113530095D01*
X128023905Y-113577714D02*
X128023905Y-114244381D01*
X127595333Y-113577714D02*
X127595333Y-114101524D01*
X127642952Y-114196762D01*
X127738190Y-114244381D01*
X127881048Y-114244381D01*
X127976286Y-114196762D01*
X128023905Y-114149143D01*
X128833429Y-113720571D02*
X128500095Y-113720571D01*
X128500095Y-114244381D02*
X128500095Y-113244381D01*
X128976286Y-113244381D01*
X133008762Y-114244381D02*
X132437333Y-114244381D01*
X132723047Y-114244381D02*
X132723047Y-113244381D01*
X132627809Y-113387238D01*
X132532571Y-113482476D01*
X132437333Y-113530095D01*
X133865905Y-113577714D02*
X133865905Y-114244381D01*
X133437333Y-113577714D02*
X133437333Y-114101524D01*
X133484952Y-114196762D01*
X133580190Y-114244381D01*
X133723048Y-114244381D01*
X133818286Y-114196762D01*
X133865905Y-114149143D01*
X134675429Y-113720571D02*
X134342095Y-113720571D01*
X134342095Y-114244381D02*
X134342095Y-113244381D01*
X134818286Y-113244381D01*
X138850762Y-114244381D02*
X138279333Y-114244381D01*
X138565047Y-114244381D02*
X138565047Y-113244381D01*
X138469809Y-113387238D01*
X138374571Y-113482476D01*
X138279333Y-113530095D01*
X139707905Y-113577714D02*
X139707905Y-114244381D01*
X139279333Y-113577714D02*
X139279333Y-114101524D01*
X139326952Y-114196762D01*
X139422190Y-114244381D01*
X139565048Y-114244381D01*
X139660286Y-114196762D01*
X139707905Y-114149143D01*
X140517429Y-113720571D02*
X140184095Y-113720571D01*
X140184095Y-114244381D02*
X140184095Y-113244381D01*
X140660286Y-113244381D01*
X115482762Y-114244381D02*
X114911333Y-114244381D01*
X115197047Y-114244381D02*
X115197047Y-113244381D01*
X115101809Y-113387238D01*
X115006571Y-113482476D01*
X114911333Y-113530095D01*
X116339905Y-113577714D02*
X116339905Y-114244381D01*
X115911333Y-113577714D02*
X115911333Y-114101524D01*
X115958952Y-114196762D01*
X116054190Y-114244381D01*
X116197048Y-114244381D01*
X116292286Y-114196762D01*
X116339905Y-114149143D01*
X117149429Y-113720571D02*
X116816095Y-113720571D01*
X116816095Y-114244381D02*
X116816095Y-113244381D01*
X117292286Y-113244381D01*
X89566857Y-113434762D02*
X89709714Y-113482381D01*
X89947810Y-113482381D01*
X90043048Y-113434762D01*
X90090667Y-113387143D01*
X90138286Y-113291905D01*
X90138286Y-113196667D01*
X90090667Y-113101429D01*
X90043048Y-113053810D01*
X89947810Y-113006190D01*
X89757333Y-112958571D01*
X89662095Y-112910952D01*
X89614476Y-112863333D01*
X89566857Y-112768095D01*
X89566857Y-112672857D01*
X89614476Y-112577619D01*
X89662095Y-112530000D01*
X89757333Y-112482381D01*
X89995429Y-112482381D01*
X90138286Y-112530000D01*
X90471619Y-112482381D02*
X90709714Y-113482381D01*
X90900191Y-112768095D01*
X91090667Y-113482381D01*
X91328762Y-112482381D01*
X85852096Y-130818000D02*
X85756858Y-130770381D01*
X85614001Y-130770381D01*
X85471143Y-130818000D01*
X85375905Y-130913238D01*
X85328286Y-131008476D01*
X85280667Y-131198952D01*
X85280667Y-131341810D01*
X85328286Y-131532286D01*
X85375905Y-131627524D01*
X85471143Y-131722762D01*
X85614001Y-131770381D01*
X85709239Y-131770381D01*
X85852096Y-131722762D01*
X85899715Y-131675143D01*
X85899715Y-131341810D01*
X85709239Y-131341810D01*
X86328286Y-131770381D02*
X86328286Y-130770381D01*
X86899715Y-131770381D01*
X86899715Y-130770381D01*
X87375905Y-131770381D02*
X87375905Y-130770381D01*
X87614000Y-130770381D01*
X87756858Y-130818000D01*
X87852096Y-130913238D01*
X87899715Y-131008476D01*
X87947334Y-131198952D01*
X87947334Y-131341810D01*
X87899715Y-131532286D01*
X87852096Y-131627524D01*
X87756858Y-131722762D01*
X87614000Y-131770381D01*
X87375905Y-131770381D01*
X98830381Y-109990000D02*
X98735143Y-109942381D01*
X98592286Y-109942381D01*
X98449428Y-109990000D01*
X98354190Y-110085238D01*
X98306571Y-110180476D01*
X98258952Y-110370952D01*
X98258952Y-110513810D01*
X98306571Y-110704286D01*
X98354190Y-110799524D01*
X98449428Y-110894762D01*
X98592286Y-110942381D01*
X98687524Y-110942381D01*
X98830381Y-110894762D01*
X98878000Y-110847143D01*
X98878000Y-110513810D01*
X98687524Y-110513810D01*
X99306571Y-110942381D02*
X99306571Y-109942381D01*
X99878000Y-110942381D01*
X99878000Y-109942381D01*
X100354190Y-110942381D02*
X100354190Y-109942381D01*
X100592285Y-109942381D01*
X100735143Y-109990000D01*
X100830381Y-110085238D01*
X100878000Y-110180476D01*
X100925619Y-110370952D01*
X100925619Y-110513810D01*
X100878000Y-110704286D01*
X100830381Y-110799524D01*
X100735143Y-110894762D01*
X100592285Y-110942381D01*
X100354190Y-110942381D01*
X102116095Y-110942381D02*
X102116095Y-109942381D01*
X102497048Y-109942381D01*
X102592286Y-109990000D01*
X102639905Y-110037619D01*
X102687524Y-110132857D01*
X102687524Y-110275714D01*
X102639905Y-110370952D01*
X102592286Y-110418571D01*
X102497048Y-110466190D01*
X102116095Y-110466190D01*
X103116095Y-110942381D02*
X103116095Y-110275714D01*
X103116095Y-109942381D02*
X103068476Y-109990000D01*
X103116095Y-110037619D01*
X103163714Y-109990000D01*
X103116095Y-109942381D01*
X103116095Y-110037619D01*
X103592285Y-110275714D02*
X103592285Y-110942381D01*
X103592285Y-110370952D02*
X103639904Y-110323333D01*
X103735142Y-110275714D01*
X103878000Y-110275714D01*
X103973238Y-110323333D01*
X104020857Y-110418571D01*
X104020857Y-110942381D01*
X104449428Y-110894762D02*
X104544666Y-110942381D01*
X104735142Y-110942381D01*
X104830381Y-110894762D01*
X104878000Y-110799524D01*
X104878000Y-110751905D01*
X104830381Y-110656667D01*
X104735142Y-110609048D01*
X104592285Y-110609048D01*
X104497047Y-110561429D01*
X104449428Y-110466190D01*
X104449428Y-110418571D01*
X104497047Y-110323333D01*
X104592285Y-110275714D01*
X104735142Y-110275714D01*
X104830381Y-110323333D01*
X105925619Y-109942381D02*
X106258952Y-110942381D01*
X106592286Y-109942381D01*
X107497048Y-110847143D02*
X107449429Y-110894762D01*
X107306572Y-110942381D01*
X107211334Y-110942381D01*
X107068476Y-110894762D01*
X106973238Y-110799524D01*
X106925619Y-110704286D01*
X106878000Y-110513810D01*
X106878000Y-110370952D01*
X106925619Y-110180476D01*
X106973238Y-110085238D01*
X107068476Y-109990000D01*
X107211334Y-109942381D01*
X107306572Y-109942381D01*
X107449429Y-109990000D01*
X107497048Y-110037619D01*
X108497048Y-110847143D02*
X108449429Y-110894762D01*
X108306572Y-110942381D01*
X108211334Y-110942381D01*
X108068476Y-110894762D01*
X107973238Y-110799524D01*
X107925619Y-110704286D01*
X107878000Y-110513810D01*
X107878000Y-110370952D01*
X107925619Y-110180476D01*
X107973238Y-110085238D01*
X108068476Y-109990000D01*
X108211334Y-109942381D01*
X108306572Y-109942381D01*
X108449429Y-109990000D01*
X108497048Y-110037619D01*
M02*
