%FSLAX45Y45*%
G04 Gerber Fmt 4.5, Leading zero omitted, Abs format (unit mm)*
G04 Created by KiCad (PCBNEW 0.201601262101+6516~42~ubuntu15.10.1-product) date Wed 27 Jan 2016 02:25:15 PM CET*
%MOMM*%
G01*
G04 APERTURE LIST*
%ADD10C,0.127000*%
%ADD11C,0.150000*%
%ADD12C,0.200000*%
%ADD13C,0.300000*%
G04 APERTURE END LIST*
D10*
D11*
X7620000Y-13360400D02*
X7620000Y-12039600D01*
X15240000Y-13360400D02*
X7620000Y-13360400D01*
X15240000Y-10693400D02*
X15240000Y-13360400D01*
X7620000Y-10693400D02*
X15240000Y-10693400D01*
X7620000Y-12065000D02*
X7620000Y-10693400D01*
D12*
D13*
X7883928Y-13833614D02*
X7883928Y-13533614D01*
X7955357Y-13533614D01*
X7998214Y-13547900D01*
X8026786Y-13576471D01*
X8041071Y-13605043D01*
X8055357Y-13662186D01*
X8055357Y-13705043D01*
X8041071Y-13762186D01*
X8026786Y-13790757D01*
X7998214Y-13819329D01*
X7955357Y-13833614D01*
X7883928Y-13833614D01*
X8183928Y-13833614D02*
X8183928Y-13633614D01*
X8183928Y-13690757D02*
X8198214Y-13662186D01*
X8212500Y-13647900D01*
X8241071Y-13633614D01*
X8269643Y-13633614D01*
X8369643Y-13833614D02*
X8369643Y-13633614D01*
X8369643Y-13533614D02*
X8355357Y-13547900D01*
X8369643Y-13562186D01*
X8383928Y-13547900D01*
X8369643Y-13533614D01*
X8369643Y-13562186D01*
X8555357Y-13833614D02*
X8526786Y-13819329D01*
X8512500Y-13790757D01*
X8512500Y-13533614D01*
X8712500Y-13833614D02*
X8683929Y-13819329D01*
X8669643Y-13790757D01*
X8669643Y-13533614D01*
X9055357Y-13833614D02*
X9055357Y-13533614D01*
X9155357Y-13747900D01*
X9255357Y-13533614D01*
X9255357Y-13833614D01*
X9526786Y-13833614D02*
X9526786Y-13676471D01*
X9512500Y-13647900D01*
X9483929Y-13633614D01*
X9426786Y-13633614D01*
X9398214Y-13647900D01*
X9526786Y-13819329D02*
X9498214Y-13833614D01*
X9426786Y-13833614D01*
X9398214Y-13819329D01*
X9383929Y-13790757D01*
X9383929Y-13762186D01*
X9398214Y-13733614D01*
X9426786Y-13719329D01*
X9498214Y-13719329D01*
X9526786Y-13705043D01*
X9669643Y-13633614D02*
X9669643Y-13933614D01*
X9669643Y-13647900D02*
X9698214Y-13633614D01*
X9755357Y-13633614D01*
X9783929Y-13647900D01*
X9798214Y-13662186D01*
X9812500Y-13690757D01*
X9812500Y-13776471D01*
X9798214Y-13805043D01*
X9783929Y-13819329D01*
X9755357Y-13833614D01*
X9698214Y-13833614D01*
X9669643Y-13819329D01*
X9941071Y-13805043D02*
X9955357Y-13819329D01*
X9941071Y-13833614D01*
X9926786Y-13819329D01*
X9941071Y-13805043D01*
X9941071Y-13833614D01*
X9941071Y-13647900D02*
X9955357Y-13662186D01*
X9941071Y-13676471D01*
X9926786Y-13662186D01*
X9941071Y-13647900D01*
X9941071Y-13676471D01*
M02*
