G04 #@! TF.FileFunction,Copper,L2,Bot,Mixed*
%FSLAX46Y46*%
G04 Gerber Fmt 4.6, Leading zero omitted, Abs format (unit mm)*
G04 Created by KiCad (PCBNEW 0.201601242101+6509~42~ubuntu15.10.1-product) date Mon 25 Jan 2016 07:22:37 PM CET*
%MOMM*%
G01*
G04 APERTURE LIST*
%ADD10C,0.020000*%
%ADD11C,0.200000*%
%ADD12R,1.300000X1.300000*%
%ADD13C,1.300000*%
%ADD14R,2.032000X1.727200*%
%ADD15O,2.032000X1.727200*%
%ADD16C,1.998980*%
%ADD17C,0.900000*%
%ADD18C,0.150000*%
G04 APERTURE END LIST*
D10*
D11*
X97304571Y-110688381D02*
X97304571Y-109688381D01*
X96733143Y-109688381D01*
X96590285Y-109736000D01*
X96518857Y-109783619D01*
X96447428Y-109878857D01*
X96447428Y-110021714D01*
X96518857Y-110116952D01*
X96590285Y-110164571D01*
X96733143Y-110212190D01*
X97304571Y-110212190D01*
X95304571Y-110164571D02*
X95090285Y-110212190D01*
X95018857Y-110259810D01*
X94947428Y-110355048D01*
X94947428Y-110497905D01*
X95018857Y-110593143D01*
X95090285Y-110640762D01*
X95233143Y-110688381D01*
X95804571Y-110688381D01*
X95804571Y-109688381D01*
X95304571Y-109688381D01*
X95161714Y-109736000D01*
X95090285Y-109783619D01*
X95018857Y-109878857D01*
X95018857Y-109974095D01*
X95090285Y-110069333D01*
X95161714Y-110116952D01*
X95304571Y-110164571D01*
X95804571Y-110164571D01*
X93161714Y-110688381D02*
X93161714Y-109688381D01*
X92804571Y-109688381D01*
X92590286Y-109736000D01*
X92447428Y-109831238D01*
X92376000Y-109926476D01*
X92304571Y-110116952D01*
X92304571Y-110259810D01*
X92376000Y-110450286D01*
X92447428Y-110545524D01*
X92590286Y-110640762D01*
X92804571Y-110688381D01*
X93161714Y-110688381D01*
X91090286Y-110640762D02*
X91233143Y-110688381D01*
X91518857Y-110688381D01*
X91661714Y-110640762D01*
X91733143Y-110545524D01*
X91733143Y-110164571D01*
X91661714Y-110069333D01*
X91518857Y-110021714D01*
X91233143Y-110021714D01*
X91090286Y-110069333D01*
X91018857Y-110164571D01*
X91018857Y-110259810D01*
X91733143Y-110355048D01*
X90376000Y-110688381D02*
X90376000Y-109688381D01*
X90376000Y-110069333D02*
X90233143Y-110021714D01*
X89947429Y-110021714D01*
X89804572Y-110069333D01*
X89733143Y-110116952D01*
X89661714Y-110212190D01*
X89661714Y-110497905D01*
X89733143Y-110593143D01*
X89804572Y-110640762D01*
X89947429Y-110688381D01*
X90233143Y-110688381D01*
X90376000Y-110640762D01*
X88804571Y-110688381D02*
X88947429Y-110640762D01*
X89018857Y-110593143D01*
X89090286Y-110497905D01*
X89090286Y-110212190D01*
X89018857Y-110116952D01*
X88947429Y-110069333D01*
X88804571Y-110021714D01*
X88590286Y-110021714D01*
X88447429Y-110069333D01*
X88376000Y-110116952D01*
X88304571Y-110212190D01*
X88304571Y-110497905D01*
X88376000Y-110593143D01*
X88447429Y-110640762D01*
X88590286Y-110688381D01*
X88804571Y-110688381D01*
X87018857Y-110021714D02*
X87018857Y-110688381D01*
X87661714Y-110021714D02*
X87661714Y-110545524D01*
X87590286Y-110640762D01*
X87447428Y-110688381D01*
X87233143Y-110688381D01*
X87090286Y-110640762D01*
X87018857Y-110593143D01*
X86304571Y-110021714D02*
X86304571Y-110688381D01*
X86304571Y-110116952D02*
X86233143Y-110069333D01*
X86090285Y-110021714D01*
X85876000Y-110021714D01*
X85733143Y-110069333D01*
X85661714Y-110164571D01*
X85661714Y-110688381D01*
X84304571Y-110640762D02*
X84447428Y-110688381D01*
X84733142Y-110688381D01*
X84876000Y-110640762D01*
X84947428Y-110593143D01*
X85018857Y-110497905D01*
X85018857Y-110212190D01*
X84947428Y-110116952D01*
X84876000Y-110069333D01*
X84733142Y-110021714D01*
X84447428Y-110021714D01*
X84304571Y-110069333D01*
X83090286Y-110640762D02*
X83233143Y-110688381D01*
X83518857Y-110688381D01*
X83661714Y-110640762D01*
X83733143Y-110545524D01*
X83733143Y-110164571D01*
X83661714Y-110069333D01*
X83518857Y-110021714D01*
X83233143Y-110021714D01*
X83090286Y-110069333D01*
X83018857Y-110164571D01*
X83018857Y-110259810D01*
X83733143Y-110355048D01*
X81233143Y-110688381D02*
X81233143Y-109688381D01*
X80661715Y-109688381D01*
X80518857Y-109736000D01*
X80447429Y-109783619D01*
X80376000Y-109878857D01*
X80376000Y-110021714D01*
X80447429Y-110116952D01*
X80518857Y-110164571D01*
X80661715Y-110212190D01*
X81233143Y-110212190D01*
X78876000Y-110593143D02*
X78947429Y-110640762D01*
X79161715Y-110688381D01*
X79304572Y-110688381D01*
X79518857Y-110640762D01*
X79661715Y-110545524D01*
X79733143Y-110450286D01*
X79804572Y-110259810D01*
X79804572Y-110116952D01*
X79733143Y-109926476D01*
X79661715Y-109831238D01*
X79518857Y-109736000D01*
X79304572Y-109688381D01*
X79161715Y-109688381D01*
X78947429Y-109736000D01*
X78876000Y-109783619D01*
X77733143Y-110164571D02*
X77518857Y-110212190D01*
X77447429Y-110259810D01*
X77376000Y-110355048D01*
X77376000Y-110497905D01*
X77447429Y-110593143D01*
X77518857Y-110640762D01*
X77661715Y-110688381D01*
X78233143Y-110688381D01*
X78233143Y-109688381D01*
X77733143Y-109688381D01*
X77590286Y-109736000D01*
X77518857Y-109783619D01*
X77447429Y-109878857D01*
X77447429Y-109974095D01*
X77518857Y-110069333D01*
X77590286Y-110116952D01*
X77733143Y-110164571D01*
X78233143Y-110164571D01*
D12*
X142494000Y-111506000D03*
D13*
X142494000Y-109506000D03*
D12*
X113284000Y-111506000D03*
D13*
X113284000Y-109506000D03*
D12*
X119126000Y-111506000D03*
D13*
X119126000Y-109506000D03*
D12*
X124968000Y-111506000D03*
D13*
X124968000Y-109506000D03*
D12*
X130810000Y-111506000D03*
D13*
X130810000Y-109506000D03*
D12*
X136652000Y-111506000D03*
D13*
X136652000Y-109506000D03*
D14*
X107950000Y-113284000D03*
D15*
X107950000Y-115824000D03*
X107950000Y-118364000D03*
X107950000Y-120904000D03*
X107950000Y-123444000D03*
X107950000Y-125984000D03*
X107950000Y-128524000D03*
X107950000Y-131064000D03*
D14*
X90424000Y-115824000D03*
D15*
X90424000Y-118364000D03*
X90424000Y-120904000D03*
X90424000Y-123444000D03*
X90424000Y-125984000D03*
X90424000Y-128524000D03*
D14*
X86614000Y-128524000D03*
D15*
X86614000Y-125984000D03*
X86614000Y-123444000D03*
X86614000Y-120904000D03*
X86614000Y-118364000D03*
X86614000Y-115824000D03*
D16*
X142494000Y-130690000D03*
X142494000Y-115690000D03*
X113284000Y-130690000D03*
X113284000Y-115690000D03*
X119126000Y-130690000D03*
X119126000Y-115690000D03*
X124968000Y-130690000D03*
X124968000Y-115690000D03*
X130810000Y-130690000D03*
X130810000Y-115690000D03*
X136652000Y-130690000D03*
X136652000Y-115690000D03*
X104140000Y-115824000D03*
X93980000Y-115824000D03*
X104140000Y-128524000D03*
X93980000Y-128524000D03*
X104140000Y-118364000D03*
X93980000Y-118364000D03*
X104140000Y-120904000D03*
X93980000Y-120904000D03*
X104140000Y-123444000D03*
X93980000Y-123444000D03*
X104140000Y-125984000D03*
X93980000Y-125984000D03*
D17*
X119126000Y-130690000D02*
X113284000Y-130690000D01*
X124968000Y-130690000D02*
X119126000Y-130690000D01*
X130810000Y-130690000D02*
X124968000Y-130690000D01*
X136652000Y-130690000D02*
X130810000Y-130690000D01*
X142494000Y-130690000D02*
X136652000Y-130690000D01*
X107950000Y-131064000D02*
X112910000Y-131064000D01*
X112910000Y-131064000D02*
X113284000Y-130690000D01*
X107950000Y-118364000D02*
X104140000Y-118364000D01*
X119126000Y-111506000D02*
X119126000Y-115690000D01*
X107950000Y-118364000D02*
X116452000Y-118364000D01*
X116452000Y-118364000D02*
X119126000Y-115690000D01*
X104140000Y-120904000D02*
X107950000Y-120904000D01*
X124968000Y-111506000D02*
X124968000Y-115690000D01*
X107950000Y-120904000D02*
X119754000Y-120904000D01*
X119754000Y-120904000D02*
X124968000Y-115690000D01*
X104140000Y-128524000D02*
X107950000Y-128524000D01*
X142494000Y-111506000D02*
X142494000Y-115690000D01*
X107950000Y-128524000D02*
X129660000Y-128524000D01*
X129660000Y-128524000D02*
X142494000Y-115690000D01*
X113284000Y-111506000D02*
X113284000Y-115690000D01*
X107950000Y-115824000D02*
X104140000Y-115824000D01*
X113284000Y-115690000D02*
X108084000Y-115690000D01*
X108084000Y-115690000D02*
X107950000Y-115824000D01*
X104140000Y-123444000D02*
X107950000Y-123444000D01*
X130810000Y-111506000D02*
X130810000Y-115690000D01*
X104140000Y-123444000D02*
X104648000Y-123444000D01*
X107950000Y-123444000D02*
X123056000Y-123444000D01*
X123056000Y-123444000D02*
X130810000Y-115690000D01*
X104140000Y-125984000D02*
X107950000Y-125984000D01*
X136652000Y-111506000D02*
X136652000Y-115690000D01*
X107950000Y-125984000D02*
X126358000Y-125984000D01*
X126358000Y-125984000D02*
X136652000Y-115690000D01*
X90424000Y-115824000D02*
X93980000Y-115824000D01*
X93980000Y-118364000D02*
X90424000Y-118364000D01*
X93980000Y-118364000D02*
X93472000Y-118364000D01*
X90424000Y-120904000D02*
X93980000Y-120904000D01*
X93980000Y-123444000D02*
X90424000Y-123444000D01*
X93726000Y-123190000D02*
X93980000Y-123444000D01*
X90424000Y-125984000D02*
X93980000Y-125984000D01*
X93980000Y-128524000D02*
X90424000Y-128524000D01*
D18*
G36*
X151742000Y-132946000D02*
X76858000Y-132946000D01*
X76858000Y-128748750D01*
X85415000Y-128748750D01*
X85415000Y-129424001D01*
X85442860Y-129491261D01*
X85494339Y-129542740D01*
X85561599Y-129570600D01*
X86389250Y-129570600D01*
X86435000Y-129524850D01*
X86435000Y-128703000D01*
X86793000Y-128703000D01*
X86793000Y-129524850D01*
X86838750Y-129570600D01*
X87666401Y-129570600D01*
X87733661Y-129542740D01*
X87785140Y-129491261D01*
X87813000Y-129424001D01*
X87813000Y-128748750D01*
X87767250Y-128703000D01*
X86793000Y-128703000D01*
X86435000Y-128703000D01*
X85460750Y-128703000D01*
X85415000Y-128748750D01*
X76858000Y-128748750D01*
X76858000Y-127623999D01*
X85415000Y-127623999D01*
X85415000Y-128299250D01*
X85460750Y-128345000D01*
X86435000Y-128345000D01*
X86435000Y-127523150D01*
X86793000Y-127523150D01*
X86793000Y-128345000D01*
X87767250Y-128345000D01*
X87813000Y-128299250D01*
X87813000Y-127623999D01*
X87785140Y-127556739D01*
X87733661Y-127505260D01*
X87666401Y-127477400D01*
X86838750Y-127477400D01*
X86793000Y-127523150D01*
X86435000Y-127523150D01*
X86389250Y-127477400D01*
X85561599Y-127477400D01*
X85494339Y-127505260D01*
X85442860Y-127556739D01*
X85415000Y-127623999D01*
X76858000Y-127623999D01*
X76858000Y-126322108D01*
X85471118Y-126322108D01*
X85601088Y-126576319D01*
X85893261Y-126860535D01*
X86271959Y-127011307D01*
X86435000Y-126982576D01*
X86435000Y-126163000D01*
X86793000Y-126163000D01*
X86793000Y-126982576D01*
X86956041Y-127011307D01*
X87334739Y-126860535D01*
X87626912Y-126576319D01*
X87756882Y-126322108D01*
X87751113Y-126163000D01*
X86793000Y-126163000D01*
X86435000Y-126163000D01*
X85476887Y-126163000D01*
X85471118Y-126322108D01*
X76858000Y-126322108D01*
X76858000Y-125645892D01*
X85471118Y-125645892D01*
X85476887Y-125805000D01*
X86435000Y-125805000D01*
X86435000Y-124985424D01*
X86793000Y-124985424D01*
X86793000Y-125805000D01*
X87751113Y-125805000D01*
X87756882Y-125645892D01*
X87626912Y-125391681D01*
X87334739Y-125107465D01*
X86956041Y-124956693D01*
X86793000Y-124985424D01*
X86435000Y-124985424D01*
X86271959Y-124956693D01*
X85893261Y-125107465D01*
X85601088Y-125391681D01*
X85471118Y-125645892D01*
X76858000Y-125645892D01*
X76858000Y-123782108D01*
X85471118Y-123782108D01*
X85601088Y-124036319D01*
X85893261Y-124320535D01*
X86271959Y-124471307D01*
X86435000Y-124442576D01*
X86435000Y-123623000D01*
X86793000Y-123623000D01*
X86793000Y-124442576D01*
X86956041Y-124471307D01*
X87334739Y-124320535D01*
X87626912Y-124036319D01*
X87756882Y-123782108D01*
X87751113Y-123623000D01*
X86793000Y-123623000D01*
X86435000Y-123623000D01*
X85476887Y-123623000D01*
X85471118Y-123782108D01*
X76858000Y-123782108D01*
X76858000Y-121824516D01*
X78434640Y-121824516D01*
X78751089Y-122590383D01*
X79336535Y-123176851D01*
X80101848Y-123494637D01*
X80930516Y-123495360D01*
X81696383Y-123178911D01*
X81769529Y-123105892D01*
X85471118Y-123105892D01*
X85476887Y-123265000D01*
X86435000Y-123265000D01*
X86435000Y-122445424D01*
X86793000Y-122445424D01*
X86793000Y-123265000D01*
X87751113Y-123265000D01*
X87756882Y-123105892D01*
X87626912Y-122851681D01*
X87334739Y-122567465D01*
X86956041Y-122416693D01*
X86793000Y-122445424D01*
X86435000Y-122445424D01*
X86271959Y-122416693D01*
X85893261Y-122567465D01*
X85601088Y-122851681D01*
X85471118Y-123105892D01*
X81769529Y-123105892D01*
X82282851Y-122593465D01*
X82600637Y-121828152D01*
X82601148Y-121242108D01*
X85471118Y-121242108D01*
X85601088Y-121496319D01*
X85893261Y-121780535D01*
X86271959Y-121931307D01*
X86435000Y-121902576D01*
X86435000Y-121083000D01*
X86793000Y-121083000D01*
X86793000Y-121902576D01*
X86956041Y-121931307D01*
X87334739Y-121780535D01*
X87626912Y-121496319D01*
X87756882Y-121242108D01*
X87751113Y-121083000D01*
X86793000Y-121083000D01*
X86435000Y-121083000D01*
X85476887Y-121083000D01*
X85471118Y-121242108D01*
X82601148Y-121242108D01*
X82601360Y-120999484D01*
X82422204Y-120565892D01*
X85471118Y-120565892D01*
X85476887Y-120725000D01*
X86435000Y-120725000D01*
X86435000Y-119905424D01*
X86793000Y-119905424D01*
X86793000Y-120725000D01*
X87751113Y-120725000D01*
X87756882Y-120565892D01*
X87626912Y-120311681D01*
X87334739Y-120027465D01*
X86956041Y-119876693D01*
X86793000Y-119905424D01*
X86435000Y-119905424D01*
X86271959Y-119876693D01*
X85893261Y-120027465D01*
X85601088Y-120311681D01*
X85471118Y-120565892D01*
X82422204Y-120565892D01*
X82284911Y-120233617D01*
X81699465Y-119647149D01*
X80934152Y-119329363D01*
X80105484Y-119328640D01*
X79339617Y-119645089D01*
X78753149Y-120230535D01*
X78435363Y-120995848D01*
X78434640Y-121824516D01*
X76858000Y-121824516D01*
X76858000Y-118702108D01*
X85471118Y-118702108D01*
X85601088Y-118956319D01*
X85893261Y-119240535D01*
X86271959Y-119391307D01*
X86435000Y-119362576D01*
X86435000Y-118543000D01*
X86793000Y-118543000D01*
X86793000Y-119362576D01*
X86956041Y-119391307D01*
X87334739Y-119240535D01*
X87626912Y-118956319D01*
X87756882Y-118702108D01*
X87751113Y-118543000D01*
X86793000Y-118543000D01*
X86435000Y-118543000D01*
X85476887Y-118543000D01*
X85471118Y-118702108D01*
X76858000Y-118702108D01*
X76858000Y-118364000D01*
X88793674Y-118364000D01*
X88903790Y-118917590D01*
X89217373Y-119386901D01*
X89587183Y-119634000D01*
X89217373Y-119881099D01*
X88903790Y-120350410D01*
X88793674Y-120904000D01*
X88903790Y-121457590D01*
X89217373Y-121926901D01*
X89587183Y-122174000D01*
X89217373Y-122421099D01*
X88903790Y-122890410D01*
X88793674Y-123444000D01*
X88903790Y-123997590D01*
X89217373Y-124466901D01*
X89587183Y-124714000D01*
X89217373Y-124961099D01*
X88903790Y-125430410D01*
X88793674Y-125984000D01*
X88903790Y-126537590D01*
X89217373Y-127006901D01*
X89587183Y-127254000D01*
X89217373Y-127501099D01*
X88903790Y-127970410D01*
X88793674Y-128524000D01*
X88903790Y-129077590D01*
X89217373Y-129546901D01*
X89686684Y-129860484D01*
X90240274Y-129970600D01*
X90607726Y-129970600D01*
X91161316Y-129860484D01*
X91615513Y-129557000D01*
X92775170Y-129557000D01*
X93082421Y-129864788D01*
X93663842Y-130106215D01*
X94293396Y-130106764D01*
X94875238Y-129866352D01*
X95320788Y-129421579D01*
X95562215Y-128840158D01*
X95562764Y-128210604D01*
X95322352Y-127628762D01*
X94947980Y-127253736D01*
X95320788Y-126881579D01*
X95562215Y-126300158D01*
X95562764Y-125670604D01*
X95322352Y-125088762D01*
X94947980Y-124713736D01*
X95320788Y-124341579D01*
X95562215Y-123760158D01*
X95562764Y-123130604D01*
X95322352Y-122548762D01*
X94947980Y-122173736D01*
X95320788Y-121801579D01*
X95562215Y-121220158D01*
X95562764Y-120590604D01*
X95322352Y-120008762D01*
X94947980Y-119633736D01*
X95320788Y-119261579D01*
X95562215Y-118680158D01*
X95562764Y-118050604D01*
X95322352Y-117468762D01*
X94947980Y-117093736D01*
X95320788Y-116721579D01*
X95562215Y-116140158D01*
X95562217Y-116137396D01*
X102557236Y-116137396D01*
X102797648Y-116719238D01*
X103172020Y-117094264D01*
X102799212Y-117466421D01*
X102557785Y-118047842D01*
X102557236Y-118677396D01*
X102797648Y-119259238D01*
X103172020Y-119634264D01*
X102799212Y-120006421D01*
X102557785Y-120587842D01*
X102557236Y-121217396D01*
X102797648Y-121799238D01*
X103172020Y-122174264D01*
X102799212Y-122546421D01*
X102557785Y-123127842D01*
X102557236Y-123757396D01*
X102797648Y-124339238D01*
X103172020Y-124714264D01*
X102799212Y-125086421D01*
X102557785Y-125667842D01*
X102557236Y-126297396D01*
X102797648Y-126879238D01*
X103172020Y-127254264D01*
X102799212Y-127626421D01*
X102557785Y-128207842D01*
X102557236Y-128837396D01*
X102797648Y-129419238D01*
X103242421Y-129864788D01*
X103823842Y-130106215D01*
X104453396Y-130106764D01*
X105035238Y-129866352D01*
X105345130Y-129557000D01*
X106758487Y-129557000D01*
X107113183Y-129794000D01*
X106743373Y-130041099D01*
X106429790Y-130510410D01*
X106319674Y-131064000D01*
X106429790Y-131617590D01*
X106743373Y-132086901D01*
X107212684Y-132400484D01*
X107766274Y-132510600D01*
X108133726Y-132510600D01*
X108687316Y-132400484D01*
X109141513Y-132097000D01*
X112545877Y-132097000D01*
X112967842Y-132272215D01*
X113597396Y-132272764D01*
X114179238Y-132032352D01*
X114489130Y-131723000D01*
X117921170Y-131723000D01*
X118228421Y-132030788D01*
X118809842Y-132272215D01*
X119439396Y-132272764D01*
X120021238Y-132032352D01*
X120331130Y-131723000D01*
X123763170Y-131723000D01*
X124070421Y-132030788D01*
X124651842Y-132272215D01*
X125281396Y-132272764D01*
X125863238Y-132032352D01*
X126173130Y-131723000D01*
X129605170Y-131723000D01*
X129912421Y-132030788D01*
X130493842Y-132272215D01*
X131123396Y-132272764D01*
X131705238Y-132032352D01*
X132015130Y-131723000D01*
X135447170Y-131723000D01*
X135754421Y-132030788D01*
X136335842Y-132272215D01*
X136965396Y-132272764D01*
X137547238Y-132032352D01*
X137857130Y-131723000D01*
X141289170Y-131723000D01*
X141596421Y-132030788D01*
X142177842Y-132272215D01*
X142807396Y-132272764D01*
X143389238Y-132032352D01*
X143834788Y-131587579D01*
X144076215Y-131006158D01*
X144076764Y-130376604D01*
X143836352Y-129794762D01*
X143391579Y-129349212D01*
X142810158Y-129107785D01*
X142180604Y-129107236D01*
X141598762Y-129347648D01*
X141288870Y-129657000D01*
X137856830Y-129657000D01*
X137549579Y-129349212D01*
X136968158Y-129107785D01*
X136338604Y-129107236D01*
X135756762Y-129347648D01*
X135446870Y-129657000D01*
X132014830Y-129657000D01*
X131707579Y-129349212D01*
X131126158Y-129107785D01*
X130537610Y-129107272D01*
X137820366Y-121824516D01*
X146252640Y-121824516D01*
X146569089Y-122590383D01*
X147154535Y-123176851D01*
X147919848Y-123494637D01*
X148748516Y-123495360D01*
X149514383Y-123178911D01*
X150100851Y-122593465D01*
X150418637Y-121828152D01*
X150419360Y-120999484D01*
X150102911Y-120233617D01*
X149517465Y-119647149D01*
X148752152Y-119329363D01*
X147923484Y-119328640D01*
X147157617Y-119645089D01*
X146571149Y-120230535D01*
X146253363Y-120995848D01*
X146252640Y-121824516D01*
X137820366Y-121824516D01*
X142372497Y-117272385D01*
X142807396Y-117272764D01*
X143389238Y-117032352D01*
X143834788Y-116587579D01*
X144076215Y-116006158D01*
X144076764Y-115376604D01*
X143836352Y-114794762D01*
X143527000Y-114484870D01*
X143527000Y-112601255D01*
X143564319Y-112576319D01*
X143693173Y-112383475D01*
X143738421Y-112156000D01*
X143738421Y-110856000D01*
X143693173Y-110628525D01*
X143564319Y-110435681D01*
X143371475Y-110306827D01*
X143144000Y-110261579D01*
X142855803Y-110261579D01*
X142921360Y-110186505D01*
X142494000Y-109759144D01*
X142066640Y-110186505D01*
X142132197Y-110261579D01*
X141844000Y-110261579D01*
X141616525Y-110306827D01*
X141423681Y-110435681D01*
X141294827Y-110628525D01*
X141249579Y-110856000D01*
X141249579Y-112156000D01*
X141294827Y-112383475D01*
X141423681Y-112576319D01*
X141461000Y-112601255D01*
X141461000Y-114485170D01*
X141153212Y-114792421D01*
X140911785Y-115373842D01*
X140911403Y-115811715D01*
X129232118Y-127491000D01*
X109141513Y-127491000D01*
X108786817Y-127254000D01*
X109141513Y-127017000D01*
X126358000Y-127017000D01*
X126753312Y-126938368D01*
X127088441Y-126714441D01*
X136530498Y-117272385D01*
X136965396Y-117272764D01*
X137547238Y-117032352D01*
X137992788Y-116587579D01*
X138234215Y-116006158D01*
X138234764Y-115376604D01*
X137994352Y-114794762D01*
X137685000Y-114484870D01*
X137685000Y-112601255D01*
X137722319Y-112576319D01*
X137851173Y-112383475D01*
X137896421Y-112156000D01*
X137896421Y-110856000D01*
X137851173Y-110628525D01*
X137722319Y-110435681D01*
X137529475Y-110306827D01*
X137302000Y-110261579D01*
X137013803Y-110261579D01*
X137079360Y-110186505D01*
X136652000Y-109759144D01*
X136224640Y-110186505D01*
X136290197Y-110261579D01*
X136002000Y-110261579D01*
X135774525Y-110306827D01*
X135581681Y-110435681D01*
X135452827Y-110628525D01*
X135407579Y-110856000D01*
X135407579Y-112156000D01*
X135452827Y-112383475D01*
X135581681Y-112576319D01*
X135619000Y-112601255D01*
X135619000Y-114485170D01*
X135311212Y-114792421D01*
X135069785Y-115373842D01*
X135069403Y-115811714D01*
X125930118Y-124951000D01*
X109141513Y-124951000D01*
X108786817Y-124714000D01*
X109141513Y-124477000D01*
X123056000Y-124477000D01*
X123451312Y-124398368D01*
X123786441Y-124174441D01*
X130688497Y-117272385D01*
X131123396Y-117272764D01*
X131705238Y-117032352D01*
X132150788Y-116587579D01*
X132392215Y-116006158D01*
X132392764Y-115376604D01*
X132152352Y-114794762D01*
X131843000Y-114484870D01*
X131843000Y-112601255D01*
X131880319Y-112576319D01*
X132009173Y-112383475D01*
X132054421Y-112156000D01*
X132054421Y-110856000D01*
X132009173Y-110628525D01*
X131880319Y-110435681D01*
X131687475Y-110306827D01*
X131460000Y-110261579D01*
X131171803Y-110261579D01*
X131237360Y-110186505D01*
X130810000Y-109759144D01*
X130382640Y-110186505D01*
X130448197Y-110261579D01*
X130160000Y-110261579D01*
X129932525Y-110306827D01*
X129739681Y-110435681D01*
X129610827Y-110628525D01*
X129565579Y-110856000D01*
X129565579Y-112156000D01*
X129610827Y-112383475D01*
X129739681Y-112576319D01*
X129777000Y-112601255D01*
X129777000Y-114485170D01*
X129469212Y-114792421D01*
X129227785Y-115373842D01*
X129227403Y-115811715D01*
X122628118Y-122411000D01*
X109141513Y-122411000D01*
X108786817Y-122174000D01*
X109141513Y-121937000D01*
X119754000Y-121937000D01*
X120149312Y-121858368D01*
X120484441Y-121634441D01*
X124846498Y-117272385D01*
X125281396Y-117272764D01*
X125863238Y-117032352D01*
X126308788Y-116587579D01*
X126550215Y-116006158D01*
X126550764Y-115376604D01*
X126310352Y-114794762D01*
X126001000Y-114484870D01*
X126001000Y-112601255D01*
X126038319Y-112576319D01*
X126167173Y-112383475D01*
X126212421Y-112156000D01*
X126212421Y-110856000D01*
X126167173Y-110628525D01*
X126038319Y-110435681D01*
X125845475Y-110306827D01*
X125618000Y-110261579D01*
X125329803Y-110261579D01*
X125395360Y-110186505D01*
X124968000Y-109759144D01*
X124540640Y-110186505D01*
X124606197Y-110261579D01*
X124318000Y-110261579D01*
X124090525Y-110306827D01*
X123897681Y-110435681D01*
X123768827Y-110628525D01*
X123723579Y-110856000D01*
X123723579Y-112156000D01*
X123768827Y-112383475D01*
X123897681Y-112576319D01*
X123935000Y-112601255D01*
X123935000Y-114485170D01*
X123627212Y-114792421D01*
X123385785Y-115373842D01*
X123385403Y-115811714D01*
X119326118Y-119871000D01*
X109141513Y-119871000D01*
X108786817Y-119634000D01*
X109141513Y-119397000D01*
X116452000Y-119397000D01*
X116847312Y-119318368D01*
X117182441Y-119094441D01*
X119004497Y-117272385D01*
X119439396Y-117272764D01*
X120021238Y-117032352D01*
X120466788Y-116587579D01*
X120708215Y-116006158D01*
X120708764Y-115376604D01*
X120468352Y-114794762D01*
X120159000Y-114484870D01*
X120159000Y-112601255D01*
X120196319Y-112576319D01*
X120325173Y-112383475D01*
X120370421Y-112156000D01*
X120370421Y-110856000D01*
X120325173Y-110628525D01*
X120196319Y-110435681D01*
X120003475Y-110306827D01*
X119776000Y-110261579D01*
X119487803Y-110261579D01*
X119553360Y-110186505D01*
X119126000Y-109759144D01*
X118698640Y-110186505D01*
X118764197Y-110261579D01*
X118476000Y-110261579D01*
X118248525Y-110306827D01*
X118055681Y-110435681D01*
X117926827Y-110628525D01*
X117881579Y-110856000D01*
X117881579Y-112156000D01*
X117926827Y-112383475D01*
X118055681Y-112576319D01*
X118093000Y-112601255D01*
X118093000Y-114485170D01*
X117785212Y-114792421D01*
X117543785Y-115373842D01*
X117543403Y-115811715D01*
X116024118Y-117331000D01*
X109141513Y-117331000D01*
X108786817Y-117094000D01*
X109156627Y-116846901D01*
X109239415Y-116723000D01*
X112079170Y-116723000D01*
X112386421Y-117030788D01*
X112967842Y-117272215D01*
X113597396Y-117272764D01*
X114179238Y-117032352D01*
X114624788Y-116587579D01*
X114866215Y-116006158D01*
X114866764Y-115376604D01*
X114626352Y-114794762D01*
X114317000Y-114484870D01*
X114317000Y-112601255D01*
X114354319Y-112576319D01*
X114483173Y-112383475D01*
X114528421Y-112156000D01*
X114528421Y-110856000D01*
X114483173Y-110628525D01*
X114354319Y-110435681D01*
X114161475Y-110306827D01*
X113934000Y-110261579D01*
X113645803Y-110261579D01*
X113711360Y-110186505D01*
X113284000Y-109759144D01*
X112856640Y-110186505D01*
X112922197Y-110261579D01*
X112634000Y-110261579D01*
X112406525Y-110306827D01*
X112213681Y-110435681D01*
X112084827Y-110628525D01*
X112039579Y-110856000D01*
X112039579Y-112156000D01*
X112084827Y-112383475D01*
X112213681Y-112576319D01*
X112251000Y-112601255D01*
X112251000Y-114485170D01*
X112078870Y-114657000D01*
X108940967Y-114657000D01*
X108687316Y-114487516D01*
X108133726Y-114377400D01*
X107766274Y-114377400D01*
X107212684Y-114487516D01*
X106758487Y-114791000D01*
X105344830Y-114791000D01*
X105037579Y-114483212D01*
X104456158Y-114241785D01*
X103826604Y-114241236D01*
X103244762Y-114481648D01*
X102799212Y-114926421D01*
X102557785Y-115507842D01*
X102557236Y-116137396D01*
X95562217Y-116137396D01*
X95562764Y-115510604D01*
X95322352Y-114928762D01*
X94877579Y-114483212D01*
X94296158Y-114241785D01*
X93666604Y-114241236D01*
X93084762Y-114481648D01*
X92774870Y-114791000D01*
X92000725Y-114791000D01*
X91989173Y-114732925D01*
X91860319Y-114540081D01*
X91667475Y-114411227D01*
X91440000Y-114365979D01*
X89408000Y-114365979D01*
X89180525Y-114411227D01*
X88987681Y-114540081D01*
X88858827Y-114732925D01*
X88813579Y-114960400D01*
X88813579Y-116687600D01*
X88858827Y-116915075D01*
X88987681Y-117107919D01*
X89180525Y-117236773D01*
X89329237Y-117266354D01*
X89217373Y-117341099D01*
X88903790Y-117810410D01*
X88793674Y-118364000D01*
X76858000Y-118364000D01*
X76858000Y-118025892D01*
X85471118Y-118025892D01*
X85476887Y-118185000D01*
X86435000Y-118185000D01*
X86435000Y-117365424D01*
X86793000Y-117365424D01*
X86793000Y-118185000D01*
X87751113Y-118185000D01*
X87756882Y-118025892D01*
X87626912Y-117771681D01*
X87334739Y-117487465D01*
X86956041Y-117336693D01*
X86793000Y-117365424D01*
X86435000Y-117365424D01*
X86271959Y-117336693D01*
X85893261Y-117487465D01*
X85601088Y-117771681D01*
X85471118Y-118025892D01*
X76858000Y-118025892D01*
X76858000Y-116162108D01*
X85471118Y-116162108D01*
X85601088Y-116416319D01*
X85893261Y-116700535D01*
X86271959Y-116851307D01*
X86435000Y-116822576D01*
X86435000Y-116003000D01*
X86793000Y-116003000D01*
X86793000Y-116822576D01*
X86956041Y-116851307D01*
X87334739Y-116700535D01*
X87626912Y-116416319D01*
X87756882Y-116162108D01*
X87751113Y-116003000D01*
X86793000Y-116003000D01*
X86435000Y-116003000D01*
X85476887Y-116003000D01*
X85471118Y-116162108D01*
X76858000Y-116162108D01*
X76858000Y-115485892D01*
X85471118Y-115485892D01*
X85476887Y-115645000D01*
X86435000Y-115645000D01*
X86435000Y-114825424D01*
X86793000Y-114825424D01*
X86793000Y-115645000D01*
X87751113Y-115645000D01*
X87756882Y-115485892D01*
X87626912Y-115231681D01*
X87334739Y-114947465D01*
X86956041Y-114796693D01*
X86793000Y-114825424D01*
X86435000Y-114825424D01*
X86271959Y-114796693D01*
X85893261Y-114947465D01*
X85601088Y-115231681D01*
X85471118Y-115485892D01*
X76858000Y-115485892D01*
X76858000Y-113508750D01*
X106751000Y-113508750D01*
X106751000Y-114184001D01*
X106778860Y-114251261D01*
X106830339Y-114302740D01*
X106897599Y-114330600D01*
X107725250Y-114330600D01*
X107771000Y-114284850D01*
X107771000Y-113463000D01*
X108129000Y-113463000D01*
X108129000Y-114284850D01*
X108174750Y-114330600D01*
X109002401Y-114330600D01*
X109069661Y-114302740D01*
X109121140Y-114251261D01*
X109149000Y-114184001D01*
X109149000Y-113508750D01*
X109103250Y-113463000D01*
X108129000Y-113463000D01*
X107771000Y-113463000D01*
X106796750Y-113463000D01*
X106751000Y-113508750D01*
X76858000Y-113508750D01*
X76858000Y-112383999D01*
X106751000Y-112383999D01*
X106751000Y-113059250D01*
X106796750Y-113105000D01*
X107771000Y-113105000D01*
X107771000Y-112283150D01*
X108129000Y-112283150D01*
X108129000Y-113105000D01*
X109103250Y-113105000D01*
X109149000Y-113059250D01*
X109149000Y-112383999D01*
X109121140Y-112316739D01*
X109069661Y-112265260D01*
X109002401Y-112237400D01*
X108174750Y-112237400D01*
X108129000Y-112283150D01*
X107771000Y-112283150D01*
X107725250Y-112237400D01*
X106897599Y-112237400D01*
X106830339Y-112265260D01*
X106778860Y-112316739D01*
X106751000Y-112383999D01*
X76858000Y-112383999D01*
X76858000Y-111619000D01*
X98344714Y-111619000D01*
X98344714Y-109486238D01*
X112434910Y-109486238D01*
X112491981Y-109812675D01*
X112507106Y-109849190D01*
X112603495Y-109933360D01*
X113030856Y-109506000D01*
X113537144Y-109506000D01*
X113964505Y-109933360D01*
X114060894Y-109849190D01*
X114133090Y-109525762D01*
X114126181Y-109486238D01*
X118276910Y-109486238D01*
X118333981Y-109812675D01*
X118349106Y-109849190D01*
X118445495Y-109933360D01*
X118872856Y-109506000D01*
X119379144Y-109506000D01*
X119806505Y-109933360D01*
X119902894Y-109849190D01*
X119975090Y-109525762D01*
X119968181Y-109486238D01*
X124118910Y-109486238D01*
X124175981Y-109812675D01*
X124191106Y-109849190D01*
X124287495Y-109933360D01*
X124714856Y-109506000D01*
X125221144Y-109506000D01*
X125648505Y-109933360D01*
X125744894Y-109849190D01*
X125817090Y-109525762D01*
X125810181Y-109486238D01*
X129960910Y-109486238D01*
X130017981Y-109812675D01*
X130033106Y-109849190D01*
X130129495Y-109933360D01*
X130556856Y-109506000D01*
X131063144Y-109506000D01*
X131490505Y-109933360D01*
X131586894Y-109849190D01*
X131659090Y-109525762D01*
X131652181Y-109486238D01*
X135802910Y-109486238D01*
X135859981Y-109812675D01*
X135875106Y-109849190D01*
X135971495Y-109933360D01*
X136398856Y-109506000D01*
X136905144Y-109506000D01*
X137332505Y-109933360D01*
X137428894Y-109849190D01*
X137501090Y-109525762D01*
X137494181Y-109486238D01*
X141644910Y-109486238D01*
X141701981Y-109812675D01*
X141717106Y-109849190D01*
X141813495Y-109933360D01*
X142240856Y-109506000D01*
X142747144Y-109506000D01*
X143174505Y-109933360D01*
X143270894Y-109849190D01*
X143343090Y-109525762D01*
X143286019Y-109199325D01*
X143270894Y-109162810D01*
X143174505Y-109078640D01*
X142747144Y-109506000D01*
X142240856Y-109506000D01*
X141813495Y-109078640D01*
X141717106Y-109162810D01*
X141644910Y-109486238D01*
X137494181Y-109486238D01*
X137444019Y-109199325D01*
X137428894Y-109162810D01*
X137332505Y-109078640D01*
X136905144Y-109506000D01*
X136398856Y-109506000D01*
X135971495Y-109078640D01*
X135875106Y-109162810D01*
X135802910Y-109486238D01*
X131652181Y-109486238D01*
X131602019Y-109199325D01*
X131586894Y-109162810D01*
X131490505Y-109078640D01*
X131063144Y-109506000D01*
X130556856Y-109506000D01*
X130129495Y-109078640D01*
X130033106Y-109162810D01*
X129960910Y-109486238D01*
X125810181Y-109486238D01*
X125760019Y-109199325D01*
X125744894Y-109162810D01*
X125648505Y-109078640D01*
X125221144Y-109506000D01*
X124714856Y-109506000D01*
X124287495Y-109078640D01*
X124191106Y-109162810D01*
X124118910Y-109486238D01*
X119968181Y-109486238D01*
X119918019Y-109199325D01*
X119902894Y-109162810D01*
X119806505Y-109078640D01*
X119379144Y-109506000D01*
X118872856Y-109506000D01*
X118445495Y-109078640D01*
X118349106Y-109162810D01*
X118276910Y-109486238D01*
X114126181Y-109486238D01*
X114076019Y-109199325D01*
X114060894Y-109162810D01*
X113964505Y-109078640D01*
X113537144Y-109506000D01*
X113030856Y-109506000D01*
X112603495Y-109078640D01*
X112507106Y-109162810D01*
X112434910Y-109486238D01*
X98344714Y-109486238D01*
X98344714Y-108825495D01*
X112856640Y-108825495D01*
X113284000Y-109252856D01*
X113711360Y-108825495D01*
X118698640Y-108825495D01*
X119126000Y-109252856D01*
X119553360Y-108825495D01*
X124540640Y-108825495D01*
X124968000Y-109252856D01*
X125395360Y-108825495D01*
X130382640Y-108825495D01*
X130810000Y-109252856D01*
X131237360Y-108825495D01*
X136224640Y-108825495D01*
X136652000Y-109252856D01*
X137079360Y-108825495D01*
X142066640Y-108825495D01*
X142494000Y-109252856D01*
X142921360Y-108825495D01*
X142837190Y-108729106D01*
X142513762Y-108656910D01*
X142187325Y-108713981D01*
X142150810Y-108729106D01*
X142066640Y-108825495D01*
X137079360Y-108825495D01*
X136995190Y-108729106D01*
X136671762Y-108656910D01*
X136345325Y-108713981D01*
X136308810Y-108729106D01*
X136224640Y-108825495D01*
X131237360Y-108825495D01*
X131153190Y-108729106D01*
X130829762Y-108656910D01*
X130503325Y-108713981D01*
X130466810Y-108729106D01*
X130382640Y-108825495D01*
X125395360Y-108825495D01*
X125311190Y-108729106D01*
X124987762Y-108656910D01*
X124661325Y-108713981D01*
X124624810Y-108729106D01*
X124540640Y-108825495D01*
X119553360Y-108825495D01*
X119469190Y-108729106D01*
X119145762Y-108656910D01*
X118819325Y-108713981D01*
X118782810Y-108729106D01*
X118698640Y-108825495D01*
X113711360Y-108825495D01*
X113627190Y-108729106D01*
X113303762Y-108656910D01*
X112977325Y-108713981D01*
X112940810Y-108729106D01*
X112856640Y-108825495D01*
X98344714Y-108825495D01*
X98344714Y-108653000D01*
X76858000Y-108653000D01*
X76858000Y-107592000D01*
X151742000Y-107592000D01*
X151742000Y-132946000D01*
X151742000Y-132946000D01*
G37*
X151742000Y-132946000D02*
X76858000Y-132946000D01*
X76858000Y-128748750D01*
X85415000Y-128748750D01*
X85415000Y-129424001D01*
X85442860Y-129491261D01*
X85494339Y-129542740D01*
X85561599Y-129570600D01*
X86389250Y-129570600D01*
X86435000Y-129524850D01*
X86435000Y-128703000D01*
X86793000Y-128703000D01*
X86793000Y-129524850D01*
X86838750Y-129570600D01*
X87666401Y-129570600D01*
X87733661Y-129542740D01*
X87785140Y-129491261D01*
X87813000Y-129424001D01*
X87813000Y-128748750D01*
X87767250Y-128703000D01*
X86793000Y-128703000D01*
X86435000Y-128703000D01*
X85460750Y-128703000D01*
X85415000Y-128748750D01*
X76858000Y-128748750D01*
X76858000Y-127623999D01*
X85415000Y-127623999D01*
X85415000Y-128299250D01*
X85460750Y-128345000D01*
X86435000Y-128345000D01*
X86435000Y-127523150D01*
X86793000Y-127523150D01*
X86793000Y-128345000D01*
X87767250Y-128345000D01*
X87813000Y-128299250D01*
X87813000Y-127623999D01*
X87785140Y-127556739D01*
X87733661Y-127505260D01*
X87666401Y-127477400D01*
X86838750Y-127477400D01*
X86793000Y-127523150D01*
X86435000Y-127523150D01*
X86389250Y-127477400D01*
X85561599Y-127477400D01*
X85494339Y-127505260D01*
X85442860Y-127556739D01*
X85415000Y-127623999D01*
X76858000Y-127623999D01*
X76858000Y-126322108D01*
X85471118Y-126322108D01*
X85601088Y-126576319D01*
X85893261Y-126860535D01*
X86271959Y-127011307D01*
X86435000Y-126982576D01*
X86435000Y-126163000D01*
X86793000Y-126163000D01*
X86793000Y-126982576D01*
X86956041Y-127011307D01*
X87334739Y-126860535D01*
X87626912Y-126576319D01*
X87756882Y-126322108D01*
X87751113Y-126163000D01*
X86793000Y-126163000D01*
X86435000Y-126163000D01*
X85476887Y-126163000D01*
X85471118Y-126322108D01*
X76858000Y-126322108D01*
X76858000Y-125645892D01*
X85471118Y-125645892D01*
X85476887Y-125805000D01*
X86435000Y-125805000D01*
X86435000Y-124985424D01*
X86793000Y-124985424D01*
X86793000Y-125805000D01*
X87751113Y-125805000D01*
X87756882Y-125645892D01*
X87626912Y-125391681D01*
X87334739Y-125107465D01*
X86956041Y-124956693D01*
X86793000Y-124985424D01*
X86435000Y-124985424D01*
X86271959Y-124956693D01*
X85893261Y-125107465D01*
X85601088Y-125391681D01*
X85471118Y-125645892D01*
X76858000Y-125645892D01*
X76858000Y-123782108D01*
X85471118Y-123782108D01*
X85601088Y-124036319D01*
X85893261Y-124320535D01*
X86271959Y-124471307D01*
X86435000Y-124442576D01*
X86435000Y-123623000D01*
X86793000Y-123623000D01*
X86793000Y-124442576D01*
X86956041Y-124471307D01*
X87334739Y-124320535D01*
X87626912Y-124036319D01*
X87756882Y-123782108D01*
X87751113Y-123623000D01*
X86793000Y-123623000D01*
X86435000Y-123623000D01*
X85476887Y-123623000D01*
X85471118Y-123782108D01*
X76858000Y-123782108D01*
X76858000Y-121824516D01*
X78434640Y-121824516D01*
X78751089Y-122590383D01*
X79336535Y-123176851D01*
X80101848Y-123494637D01*
X80930516Y-123495360D01*
X81696383Y-123178911D01*
X81769529Y-123105892D01*
X85471118Y-123105892D01*
X85476887Y-123265000D01*
X86435000Y-123265000D01*
X86435000Y-122445424D01*
X86793000Y-122445424D01*
X86793000Y-123265000D01*
X87751113Y-123265000D01*
X87756882Y-123105892D01*
X87626912Y-122851681D01*
X87334739Y-122567465D01*
X86956041Y-122416693D01*
X86793000Y-122445424D01*
X86435000Y-122445424D01*
X86271959Y-122416693D01*
X85893261Y-122567465D01*
X85601088Y-122851681D01*
X85471118Y-123105892D01*
X81769529Y-123105892D01*
X82282851Y-122593465D01*
X82600637Y-121828152D01*
X82601148Y-121242108D01*
X85471118Y-121242108D01*
X85601088Y-121496319D01*
X85893261Y-121780535D01*
X86271959Y-121931307D01*
X86435000Y-121902576D01*
X86435000Y-121083000D01*
X86793000Y-121083000D01*
X86793000Y-121902576D01*
X86956041Y-121931307D01*
X87334739Y-121780535D01*
X87626912Y-121496319D01*
X87756882Y-121242108D01*
X87751113Y-121083000D01*
X86793000Y-121083000D01*
X86435000Y-121083000D01*
X85476887Y-121083000D01*
X85471118Y-121242108D01*
X82601148Y-121242108D01*
X82601360Y-120999484D01*
X82422204Y-120565892D01*
X85471118Y-120565892D01*
X85476887Y-120725000D01*
X86435000Y-120725000D01*
X86435000Y-119905424D01*
X86793000Y-119905424D01*
X86793000Y-120725000D01*
X87751113Y-120725000D01*
X87756882Y-120565892D01*
X87626912Y-120311681D01*
X87334739Y-120027465D01*
X86956041Y-119876693D01*
X86793000Y-119905424D01*
X86435000Y-119905424D01*
X86271959Y-119876693D01*
X85893261Y-120027465D01*
X85601088Y-120311681D01*
X85471118Y-120565892D01*
X82422204Y-120565892D01*
X82284911Y-120233617D01*
X81699465Y-119647149D01*
X80934152Y-119329363D01*
X80105484Y-119328640D01*
X79339617Y-119645089D01*
X78753149Y-120230535D01*
X78435363Y-120995848D01*
X78434640Y-121824516D01*
X76858000Y-121824516D01*
X76858000Y-118702108D01*
X85471118Y-118702108D01*
X85601088Y-118956319D01*
X85893261Y-119240535D01*
X86271959Y-119391307D01*
X86435000Y-119362576D01*
X86435000Y-118543000D01*
X86793000Y-118543000D01*
X86793000Y-119362576D01*
X86956041Y-119391307D01*
X87334739Y-119240535D01*
X87626912Y-118956319D01*
X87756882Y-118702108D01*
X87751113Y-118543000D01*
X86793000Y-118543000D01*
X86435000Y-118543000D01*
X85476887Y-118543000D01*
X85471118Y-118702108D01*
X76858000Y-118702108D01*
X76858000Y-118364000D01*
X88793674Y-118364000D01*
X88903790Y-118917590D01*
X89217373Y-119386901D01*
X89587183Y-119634000D01*
X89217373Y-119881099D01*
X88903790Y-120350410D01*
X88793674Y-120904000D01*
X88903790Y-121457590D01*
X89217373Y-121926901D01*
X89587183Y-122174000D01*
X89217373Y-122421099D01*
X88903790Y-122890410D01*
X88793674Y-123444000D01*
X88903790Y-123997590D01*
X89217373Y-124466901D01*
X89587183Y-124714000D01*
X89217373Y-124961099D01*
X88903790Y-125430410D01*
X88793674Y-125984000D01*
X88903790Y-126537590D01*
X89217373Y-127006901D01*
X89587183Y-127254000D01*
X89217373Y-127501099D01*
X88903790Y-127970410D01*
X88793674Y-128524000D01*
X88903790Y-129077590D01*
X89217373Y-129546901D01*
X89686684Y-129860484D01*
X90240274Y-129970600D01*
X90607726Y-129970600D01*
X91161316Y-129860484D01*
X91615513Y-129557000D01*
X92775170Y-129557000D01*
X93082421Y-129864788D01*
X93663842Y-130106215D01*
X94293396Y-130106764D01*
X94875238Y-129866352D01*
X95320788Y-129421579D01*
X95562215Y-128840158D01*
X95562764Y-128210604D01*
X95322352Y-127628762D01*
X94947980Y-127253736D01*
X95320788Y-126881579D01*
X95562215Y-126300158D01*
X95562764Y-125670604D01*
X95322352Y-125088762D01*
X94947980Y-124713736D01*
X95320788Y-124341579D01*
X95562215Y-123760158D01*
X95562764Y-123130604D01*
X95322352Y-122548762D01*
X94947980Y-122173736D01*
X95320788Y-121801579D01*
X95562215Y-121220158D01*
X95562764Y-120590604D01*
X95322352Y-120008762D01*
X94947980Y-119633736D01*
X95320788Y-119261579D01*
X95562215Y-118680158D01*
X95562764Y-118050604D01*
X95322352Y-117468762D01*
X94947980Y-117093736D01*
X95320788Y-116721579D01*
X95562215Y-116140158D01*
X95562217Y-116137396D01*
X102557236Y-116137396D01*
X102797648Y-116719238D01*
X103172020Y-117094264D01*
X102799212Y-117466421D01*
X102557785Y-118047842D01*
X102557236Y-118677396D01*
X102797648Y-119259238D01*
X103172020Y-119634264D01*
X102799212Y-120006421D01*
X102557785Y-120587842D01*
X102557236Y-121217396D01*
X102797648Y-121799238D01*
X103172020Y-122174264D01*
X102799212Y-122546421D01*
X102557785Y-123127842D01*
X102557236Y-123757396D01*
X102797648Y-124339238D01*
X103172020Y-124714264D01*
X102799212Y-125086421D01*
X102557785Y-125667842D01*
X102557236Y-126297396D01*
X102797648Y-126879238D01*
X103172020Y-127254264D01*
X102799212Y-127626421D01*
X102557785Y-128207842D01*
X102557236Y-128837396D01*
X102797648Y-129419238D01*
X103242421Y-129864788D01*
X103823842Y-130106215D01*
X104453396Y-130106764D01*
X105035238Y-129866352D01*
X105345130Y-129557000D01*
X106758487Y-129557000D01*
X107113183Y-129794000D01*
X106743373Y-130041099D01*
X106429790Y-130510410D01*
X106319674Y-131064000D01*
X106429790Y-131617590D01*
X106743373Y-132086901D01*
X107212684Y-132400484D01*
X107766274Y-132510600D01*
X108133726Y-132510600D01*
X108687316Y-132400484D01*
X109141513Y-132097000D01*
X112545877Y-132097000D01*
X112967842Y-132272215D01*
X113597396Y-132272764D01*
X114179238Y-132032352D01*
X114489130Y-131723000D01*
X117921170Y-131723000D01*
X118228421Y-132030788D01*
X118809842Y-132272215D01*
X119439396Y-132272764D01*
X120021238Y-132032352D01*
X120331130Y-131723000D01*
X123763170Y-131723000D01*
X124070421Y-132030788D01*
X124651842Y-132272215D01*
X125281396Y-132272764D01*
X125863238Y-132032352D01*
X126173130Y-131723000D01*
X129605170Y-131723000D01*
X129912421Y-132030788D01*
X130493842Y-132272215D01*
X131123396Y-132272764D01*
X131705238Y-132032352D01*
X132015130Y-131723000D01*
X135447170Y-131723000D01*
X135754421Y-132030788D01*
X136335842Y-132272215D01*
X136965396Y-132272764D01*
X137547238Y-132032352D01*
X137857130Y-131723000D01*
X141289170Y-131723000D01*
X141596421Y-132030788D01*
X142177842Y-132272215D01*
X142807396Y-132272764D01*
X143389238Y-132032352D01*
X143834788Y-131587579D01*
X144076215Y-131006158D01*
X144076764Y-130376604D01*
X143836352Y-129794762D01*
X143391579Y-129349212D01*
X142810158Y-129107785D01*
X142180604Y-129107236D01*
X141598762Y-129347648D01*
X141288870Y-129657000D01*
X137856830Y-129657000D01*
X137549579Y-129349212D01*
X136968158Y-129107785D01*
X136338604Y-129107236D01*
X135756762Y-129347648D01*
X135446870Y-129657000D01*
X132014830Y-129657000D01*
X131707579Y-129349212D01*
X131126158Y-129107785D01*
X130537610Y-129107272D01*
X137820366Y-121824516D01*
X146252640Y-121824516D01*
X146569089Y-122590383D01*
X147154535Y-123176851D01*
X147919848Y-123494637D01*
X148748516Y-123495360D01*
X149514383Y-123178911D01*
X150100851Y-122593465D01*
X150418637Y-121828152D01*
X150419360Y-120999484D01*
X150102911Y-120233617D01*
X149517465Y-119647149D01*
X148752152Y-119329363D01*
X147923484Y-119328640D01*
X147157617Y-119645089D01*
X146571149Y-120230535D01*
X146253363Y-120995848D01*
X146252640Y-121824516D01*
X137820366Y-121824516D01*
X142372497Y-117272385D01*
X142807396Y-117272764D01*
X143389238Y-117032352D01*
X143834788Y-116587579D01*
X144076215Y-116006158D01*
X144076764Y-115376604D01*
X143836352Y-114794762D01*
X143527000Y-114484870D01*
X143527000Y-112601255D01*
X143564319Y-112576319D01*
X143693173Y-112383475D01*
X143738421Y-112156000D01*
X143738421Y-110856000D01*
X143693173Y-110628525D01*
X143564319Y-110435681D01*
X143371475Y-110306827D01*
X143144000Y-110261579D01*
X142855803Y-110261579D01*
X142921360Y-110186505D01*
X142494000Y-109759144D01*
X142066640Y-110186505D01*
X142132197Y-110261579D01*
X141844000Y-110261579D01*
X141616525Y-110306827D01*
X141423681Y-110435681D01*
X141294827Y-110628525D01*
X141249579Y-110856000D01*
X141249579Y-112156000D01*
X141294827Y-112383475D01*
X141423681Y-112576319D01*
X141461000Y-112601255D01*
X141461000Y-114485170D01*
X141153212Y-114792421D01*
X140911785Y-115373842D01*
X140911403Y-115811715D01*
X129232118Y-127491000D01*
X109141513Y-127491000D01*
X108786817Y-127254000D01*
X109141513Y-127017000D01*
X126358000Y-127017000D01*
X126753312Y-126938368D01*
X127088441Y-126714441D01*
X136530498Y-117272385D01*
X136965396Y-117272764D01*
X137547238Y-117032352D01*
X137992788Y-116587579D01*
X138234215Y-116006158D01*
X138234764Y-115376604D01*
X137994352Y-114794762D01*
X137685000Y-114484870D01*
X137685000Y-112601255D01*
X137722319Y-112576319D01*
X137851173Y-112383475D01*
X137896421Y-112156000D01*
X137896421Y-110856000D01*
X137851173Y-110628525D01*
X137722319Y-110435681D01*
X137529475Y-110306827D01*
X137302000Y-110261579D01*
X137013803Y-110261579D01*
X137079360Y-110186505D01*
X136652000Y-109759144D01*
X136224640Y-110186505D01*
X136290197Y-110261579D01*
X136002000Y-110261579D01*
X135774525Y-110306827D01*
X135581681Y-110435681D01*
X135452827Y-110628525D01*
X135407579Y-110856000D01*
X135407579Y-112156000D01*
X135452827Y-112383475D01*
X135581681Y-112576319D01*
X135619000Y-112601255D01*
X135619000Y-114485170D01*
X135311212Y-114792421D01*
X135069785Y-115373842D01*
X135069403Y-115811714D01*
X125930118Y-124951000D01*
X109141513Y-124951000D01*
X108786817Y-124714000D01*
X109141513Y-124477000D01*
X123056000Y-124477000D01*
X123451312Y-124398368D01*
X123786441Y-124174441D01*
X130688497Y-117272385D01*
X131123396Y-117272764D01*
X131705238Y-117032352D01*
X132150788Y-116587579D01*
X132392215Y-116006158D01*
X132392764Y-115376604D01*
X132152352Y-114794762D01*
X131843000Y-114484870D01*
X131843000Y-112601255D01*
X131880319Y-112576319D01*
X132009173Y-112383475D01*
X132054421Y-112156000D01*
X132054421Y-110856000D01*
X132009173Y-110628525D01*
X131880319Y-110435681D01*
X131687475Y-110306827D01*
X131460000Y-110261579D01*
X131171803Y-110261579D01*
X131237360Y-110186505D01*
X130810000Y-109759144D01*
X130382640Y-110186505D01*
X130448197Y-110261579D01*
X130160000Y-110261579D01*
X129932525Y-110306827D01*
X129739681Y-110435681D01*
X129610827Y-110628525D01*
X129565579Y-110856000D01*
X129565579Y-112156000D01*
X129610827Y-112383475D01*
X129739681Y-112576319D01*
X129777000Y-112601255D01*
X129777000Y-114485170D01*
X129469212Y-114792421D01*
X129227785Y-115373842D01*
X129227403Y-115811715D01*
X122628118Y-122411000D01*
X109141513Y-122411000D01*
X108786817Y-122174000D01*
X109141513Y-121937000D01*
X119754000Y-121937000D01*
X120149312Y-121858368D01*
X120484441Y-121634441D01*
X124846498Y-117272385D01*
X125281396Y-117272764D01*
X125863238Y-117032352D01*
X126308788Y-116587579D01*
X126550215Y-116006158D01*
X126550764Y-115376604D01*
X126310352Y-114794762D01*
X126001000Y-114484870D01*
X126001000Y-112601255D01*
X126038319Y-112576319D01*
X126167173Y-112383475D01*
X126212421Y-112156000D01*
X126212421Y-110856000D01*
X126167173Y-110628525D01*
X126038319Y-110435681D01*
X125845475Y-110306827D01*
X125618000Y-110261579D01*
X125329803Y-110261579D01*
X125395360Y-110186505D01*
X124968000Y-109759144D01*
X124540640Y-110186505D01*
X124606197Y-110261579D01*
X124318000Y-110261579D01*
X124090525Y-110306827D01*
X123897681Y-110435681D01*
X123768827Y-110628525D01*
X123723579Y-110856000D01*
X123723579Y-112156000D01*
X123768827Y-112383475D01*
X123897681Y-112576319D01*
X123935000Y-112601255D01*
X123935000Y-114485170D01*
X123627212Y-114792421D01*
X123385785Y-115373842D01*
X123385403Y-115811714D01*
X119326118Y-119871000D01*
X109141513Y-119871000D01*
X108786817Y-119634000D01*
X109141513Y-119397000D01*
X116452000Y-119397000D01*
X116847312Y-119318368D01*
X117182441Y-119094441D01*
X119004497Y-117272385D01*
X119439396Y-117272764D01*
X120021238Y-117032352D01*
X120466788Y-116587579D01*
X120708215Y-116006158D01*
X120708764Y-115376604D01*
X120468352Y-114794762D01*
X120159000Y-114484870D01*
X120159000Y-112601255D01*
X120196319Y-112576319D01*
X120325173Y-112383475D01*
X120370421Y-112156000D01*
X120370421Y-110856000D01*
X120325173Y-110628525D01*
X120196319Y-110435681D01*
X120003475Y-110306827D01*
X119776000Y-110261579D01*
X119487803Y-110261579D01*
X119553360Y-110186505D01*
X119126000Y-109759144D01*
X118698640Y-110186505D01*
X118764197Y-110261579D01*
X118476000Y-110261579D01*
X118248525Y-110306827D01*
X118055681Y-110435681D01*
X117926827Y-110628525D01*
X117881579Y-110856000D01*
X117881579Y-112156000D01*
X117926827Y-112383475D01*
X118055681Y-112576319D01*
X118093000Y-112601255D01*
X118093000Y-114485170D01*
X117785212Y-114792421D01*
X117543785Y-115373842D01*
X117543403Y-115811715D01*
X116024118Y-117331000D01*
X109141513Y-117331000D01*
X108786817Y-117094000D01*
X109156627Y-116846901D01*
X109239415Y-116723000D01*
X112079170Y-116723000D01*
X112386421Y-117030788D01*
X112967842Y-117272215D01*
X113597396Y-117272764D01*
X114179238Y-117032352D01*
X114624788Y-116587579D01*
X114866215Y-116006158D01*
X114866764Y-115376604D01*
X114626352Y-114794762D01*
X114317000Y-114484870D01*
X114317000Y-112601255D01*
X114354319Y-112576319D01*
X114483173Y-112383475D01*
X114528421Y-112156000D01*
X114528421Y-110856000D01*
X114483173Y-110628525D01*
X114354319Y-110435681D01*
X114161475Y-110306827D01*
X113934000Y-110261579D01*
X113645803Y-110261579D01*
X113711360Y-110186505D01*
X113284000Y-109759144D01*
X112856640Y-110186505D01*
X112922197Y-110261579D01*
X112634000Y-110261579D01*
X112406525Y-110306827D01*
X112213681Y-110435681D01*
X112084827Y-110628525D01*
X112039579Y-110856000D01*
X112039579Y-112156000D01*
X112084827Y-112383475D01*
X112213681Y-112576319D01*
X112251000Y-112601255D01*
X112251000Y-114485170D01*
X112078870Y-114657000D01*
X108940967Y-114657000D01*
X108687316Y-114487516D01*
X108133726Y-114377400D01*
X107766274Y-114377400D01*
X107212684Y-114487516D01*
X106758487Y-114791000D01*
X105344830Y-114791000D01*
X105037579Y-114483212D01*
X104456158Y-114241785D01*
X103826604Y-114241236D01*
X103244762Y-114481648D01*
X102799212Y-114926421D01*
X102557785Y-115507842D01*
X102557236Y-116137396D01*
X95562217Y-116137396D01*
X95562764Y-115510604D01*
X95322352Y-114928762D01*
X94877579Y-114483212D01*
X94296158Y-114241785D01*
X93666604Y-114241236D01*
X93084762Y-114481648D01*
X92774870Y-114791000D01*
X92000725Y-114791000D01*
X91989173Y-114732925D01*
X91860319Y-114540081D01*
X91667475Y-114411227D01*
X91440000Y-114365979D01*
X89408000Y-114365979D01*
X89180525Y-114411227D01*
X88987681Y-114540081D01*
X88858827Y-114732925D01*
X88813579Y-114960400D01*
X88813579Y-116687600D01*
X88858827Y-116915075D01*
X88987681Y-117107919D01*
X89180525Y-117236773D01*
X89329237Y-117266354D01*
X89217373Y-117341099D01*
X88903790Y-117810410D01*
X88793674Y-118364000D01*
X76858000Y-118364000D01*
X76858000Y-118025892D01*
X85471118Y-118025892D01*
X85476887Y-118185000D01*
X86435000Y-118185000D01*
X86435000Y-117365424D01*
X86793000Y-117365424D01*
X86793000Y-118185000D01*
X87751113Y-118185000D01*
X87756882Y-118025892D01*
X87626912Y-117771681D01*
X87334739Y-117487465D01*
X86956041Y-117336693D01*
X86793000Y-117365424D01*
X86435000Y-117365424D01*
X86271959Y-117336693D01*
X85893261Y-117487465D01*
X85601088Y-117771681D01*
X85471118Y-118025892D01*
X76858000Y-118025892D01*
X76858000Y-116162108D01*
X85471118Y-116162108D01*
X85601088Y-116416319D01*
X85893261Y-116700535D01*
X86271959Y-116851307D01*
X86435000Y-116822576D01*
X86435000Y-116003000D01*
X86793000Y-116003000D01*
X86793000Y-116822576D01*
X86956041Y-116851307D01*
X87334739Y-116700535D01*
X87626912Y-116416319D01*
X87756882Y-116162108D01*
X87751113Y-116003000D01*
X86793000Y-116003000D01*
X86435000Y-116003000D01*
X85476887Y-116003000D01*
X85471118Y-116162108D01*
X76858000Y-116162108D01*
X76858000Y-115485892D01*
X85471118Y-115485892D01*
X85476887Y-115645000D01*
X86435000Y-115645000D01*
X86435000Y-114825424D01*
X86793000Y-114825424D01*
X86793000Y-115645000D01*
X87751113Y-115645000D01*
X87756882Y-115485892D01*
X87626912Y-115231681D01*
X87334739Y-114947465D01*
X86956041Y-114796693D01*
X86793000Y-114825424D01*
X86435000Y-114825424D01*
X86271959Y-114796693D01*
X85893261Y-114947465D01*
X85601088Y-115231681D01*
X85471118Y-115485892D01*
X76858000Y-115485892D01*
X76858000Y-113508750D01*
X106751000Y-113508750D01*
X106751000Y-114184001D01*
X106778860Y-114251261D01*
X106830339Y-114302740D01*
X106897599Y-114330600D01*
X107725250Y-114330600D01*
X107771000Y-114284850D01*
X107771000Y-113463000D01*
X108129000Y-113463000D01*
X108129000Y-114284850D01*
X108174750Y-114330600D01*
X109002401Y-114330600D01*
X109069661Y-114302740D01*
X109121140Y-114251261D01*
X109149000Y-114184001D01*
X109149000Y-113508750D01*
X109103250Y-113463000D01*
X108129000Y-113463000D01*
X107771000Y-113463000D01*
X106796750Y-113463000D01*
X106751000Y-113508750D01*
X76858000Y-113508750D01*
X76858000Y-112383999D01*
X106751000Y-112383999D01*
X106751000Y-113059250D01*
X106796750Y-113105000D01*
X107771000Y-113105000D01*
X107771000Y-112283150D01*
X108129000Y-112283150D01*
X108129000Y-113105000D01*
X109103250Y-113105000D01*
X109149000Y-113059250D01*
X109149000Y-112383999D01*
X109121140Y-112316739D01*
X109069661Y-112265260D01*
X109002401Y-112237400D01*
X108174750Y-112237400D01*
X108129000Y-112283150D01*
X107771000Y-112283150D01*
X107725250Y-112237400D01*
X106897599Y-112237400D01*
X106830339Y-112265260D01*
X106778860Y-112316739D01*
X106751000Y-112383999D01*
X76858000Y-112383999D01*
X76858000Y-111619000D01*
X98344714Y-111619000D01*
X98344714Y-109486238D01*
X112434910Y-109486238D01*
X112491981Y-109812675D01*
X112507106Y-109849190D01*
X112603495Y-109933360D01*
X113030856Y-109506000D01*
X113537144Y-109506000D01*
X113964505Y-109933360D01*
X114060894Y-109849190D01*
X114133090Y-109525762D01*
X114126181Y-109486238D01*
X118276910Y-109486238D01*
X118333981Y-109812675D01*
X118349106Y-109849190D01*
X118445495Y-109933360D01*
X118872856Y-109506000D01*
X119379144Y-109506000D01*
X119806505Y-109933360D01*
X119902894Y-109849190D01*
X119975090Y-109525762D01*
X119968181Y-109486238D01*
X124118910Y-109486238D01*
X124175981Y-109812675D01*
X124191106Y-109849190D01*
X124287495Y-109933360D01*
X124714856Y-109506000D01*
X125221144Y-109506000D01*
X125648505Y-109933360D01*
X125744894Y-109849190D01*
X125817090Y-109525762D01*
X125810181Y-109486238D01*
X129960910Y-109486238D01*
X130017981Y-109812675D01*
X130033106Y-109849190D01*
X130129495Y-109933360D01*
X130556856Y-109506000D01*
X131063144Y-109506000D01*
X131490505Y-109933360D01*
X131586894Y-109849190D01*
X131659090Y-109525762D01*
X131652181Y-109486238D01*
X135802910Y-109486238D01*
X135859981Y-109812675D01*
X135875106Y-109849190D01*
X135971495Y-109933360D01*
X136398856Y-109506000D01*
X136905144Y-109506000D01*
X137332505Y-109933360D01*
X137428894Y-109849190D01*
X137501090Y-109525762D01*
X137494181Y-109486238D01*
X141644910Y-109486238D01*
X141701981Y-109812675D01*
X141717106Y-109849190D01*
X141813495Y-109933360D01*
X142240856Y-109506000D01*
X142747144Y-109506000D01*
X143174505Y-109933360D01*
X143270894Y-109849190D01*
X143343090Y-109525762D01*
X143286019Y-109199325D01*
X143270894Y-109162810D01*
X143174505Y-109078640D01*
X142747144Y-109506000D01*
X142240856Y-109506000D01*
X141813495Y-109078640D01*
X141717106Y-109162810D01*
X141644910Y-109486238D01*
X137494181Y-109486238D01*
X137444019Y-109199325D01*
X137428894Y-109162810D01*
X137332505Y-109078640D01*
X136905144Y-109506000D01*
X136398856Y-109506000D01*
X135971495Y-109078640D01*
X135875106Y-109162810D01*
X135802910Y-109486238D01*
X131652181Y-109486238D01*
X131602019Y-109199325D01*
X131586894Y-109162810D01*
X131490505Y-109078640D01*
X131063144Y-109506000D01*
X130556856Y-109506000D01*
X130129495Y-109078640D01*
X130033106Y-109162810D01*
X129960910Y-109486238D01*
X125810181Y-109486238D01*
X125760019Y-109199325D01*
X125744894Y-109162810D01*
X125648505Y-109078640D01*
X125221144Y-109506000D01*
X124714856Y-109506000D01*
X124287495Y-109078640D01*
X124191106Y-109162810D01*
X124118910Y-109486238D01*
X119968181Y-109486238D01*
X119918019Y-109199325D01*
X119902894Y-109162810D01*
X119806505Y-109078640D01*
X119379144Y-109506000D01*
X118872856Y-109506000D01*
X118445495Y-109078640D01*
X118349106Y-109162810D01*
X118276910Y-109486238D01*
X114126181Y-109486238D01*
X114076019Y-109199325D01*
X114060894Y-109162810D01*
X113964505Y-109078640D01*
X113537144Y-109506000D01*
X113030856Y-109506000D01*
X112603495Y-109078640D01*
X112507106Y-109162810D01*
X112434910Y-109486238D01*
X98344714Y-109486238D01*
X98344714Y-108825495D01*
X112856640Y-108825495D01*
X113284000Y-109252856D01*
X113711360Y-108825495D01*
X118698640Y-108825495D01*
X119126000Y-109252856D01*
X119553360Y-108825495D01*
X124540640Y-108825495D01*
X124968000Y-109252856D01*
X125395360Y-108825495D01*
X130382640Y-108825495D01*
X130810000Y-109252856D01*
X131237360Y-108825495D01*
X136224640Y-108825495D01*
X136652000Y-109252856D01*
X137079360Y-108825495D01*
X142066640Y-108825495D01*
X142494000Y-109252856D01*
X142921360Y-108825495D01*
X142837190Y-108729106D01*
X142513762Y-108656910D01*
X142187325Y-108713981D01*
X142150810Y-108729106D01*
X142066640Y-108825495D01*
X137079360Y-108825495D01*
X136995190Y-108729106D01*
X136671762Y-108656910D01*
X136345325Y-108713981D01*
X136308810Y-108729106D01*
X136224640Y-108825495D01*
X131237360Y-108825495D01*
X131153190Y-108729106D01*
X130829762Y-108656910D01*
X130503325Y-108713981D01*
X130466810Y-108729106D01*
X130382640Y-108825495D01*
X125395360Y-108825495D01*
X125311190Y-108729106D01*
X124987762Y-108656910D01*
X124661325Y-108713981D01*
X124624810Y-108729106D01*
X124540640Y-108825495D01*
X119553360Y-108825495D01*
X119469190Y-108729106D01*
X119145762Y-108656910D01*
X118819325Y-108713981D01*
X118782810Y-108729106D01*
X118698640Y-108825495D01*
X113711360Y-108825495D01*
X113627190Y-108729106D01*
X113303762Y-108656910D01*
X112977325Y-108713981D01*
X112940810Y-108729106D01*
X112856640Y-108825495D01*
X98344714Y-108825495D01*
X98344714Y-108653000D01*
X76858000Y-108653000D01*
X76858000Y-107592000D01*
X151742000Y-107592000D01*
X151742000Y-132946000D01*
M02*
