M48
;DRILL file {KiCad 0.201601262101+6516~42~ubuntu15.10.1-product} date Wed 27 Jan 2016 02:25:15 PM CET
;FORMAT={3:3/ absolute / metric / suppress leading zeros}
FMAT,2
METRIC,TZ
T1C0.800
T2C1.001
T3C1.016
T4C3.000
%
G90
G05
M71
T1
X113284Y-109506
X113284Y-111506
X119126Y-109506
X119126Y-111506
X124968Y-109506
X124968Y-111506
X130810Y-109506
X130810Y-111506
X136652Y-109506
X136652Y-111506
X142494Y-109506
X142494Y-111506
T2
X93980Y-115824
X93980Y-118364
X93980Y-120904
X93980Y-123444
X93980Y-125984
X93980Y-128524
X104140Y-115824
X104140Y-118364
X104140Y-120904
X104140Y-123444
X104140Y-125984
X104140Y-128524
X113284Y-115690
X113284Y-130690
X119126Y-115690
X119126Y-130690
X124968Y-115690
X124968Y-130690
X130810Y-115690
X130810Y-130690
X136652Y-115690
X136652Y-130690
X142494Y-115690
X142494Y-130690
T3
X86614Y-115824
X86614Y-118364
X86614Y-120904
X86614Y-123444
X86614Y-125984
X86614Y-128524
X90424Y-115824
X90424Y-118364
X90424Y-120904
X90424Y-123444
X90424Y-125984
X90424Y-128524
X107950Y-113284
X107950Y-115824
X107950Y-118364
X107950Y-120904
X107950Y-123444
X107950Y-125984
X107950Y-128524
X107950Y-131064
T4
X80518Y-121412
X148336Y-121412
T0
M30
