%FSLAX45Y45*%
G04 Gerber Fmt 4.5, Leading zero omitted, Abs format (unit mm)*
G04 Created by KiCad (PCBNEW 0.201601242101+6509~42~ubuntu15.10.1-product) date Mon 25 Jan 2016 07:14:47 PM CET*
%MOMM*%
G01*
G04 APERTURE LIST*
%ADD10C,0.127000*%
%ADD11C,0.150000*%
%ADD12C,0.200000*%
%ADD13C,0.300000*%
G04 APERTURE END LIST*
D10*
D11*
X7620000Y-13360400D02*
X7620000Y-12039600D01*
X15240000Y-13360400D02*
X7620000Y-13360400D01*
X15240000Y-10693400D02*
X15240000Y-13360400D01*
X7620000Y-10693400D02*
X15240000Y-10693400D01*
X7620000Y-12065000D02*
X7620000Y-10693400D01*
D12*
X11288400Y-10910600D02*
X11368400Y-10990600D01*
X11368400Y-10910600D02*
X11288400Y-10990600D01*
X11288400Y-11110600D02*
X11368400Y-11190600D01*
X11368400Y-11110600D02*
X11288400Y-11190600D01*
X11872600Y-10910600D02*
X11952600Y-10990600D01*
X11952600Y-10910600D02*
X11872600Y-10990600D01*
X11872600Y-11110600D02*
X11952600Y-11190600D01*
X11952600Y-11110600D02*
X11872600Y-11190600D01*
X12456800Y-10910600D02*
X12536800Y-10990600D01*
X12536800Y-10910600D02*
X12456800Y-10990600D01*
X12456800Y-11110600D02*
X12536800Y-11190600D01*
X12536800Y-11110600D02*
X12456800Y-11190600D01*
X13041000Y-10910600D02*
X13121000Y-10990600D01*
X13121000Y-10910600D02*
X13041000Y-10990600D01*
X13041000Y-11110600D02*
X13121000Y-11190600D01*
X13121000Y-11110600D02*
X13041000Y-11190600D01*
X13625200Y-10910600D02*
X13705200Y-10990600D01*
X13705200Y-10910600D02*
X13625200Y-10990600D01*
X13625200Y-11110600D02*
X13705200Y-11190600D01*
X13705200Y-11110600D02*
X13625200Y-11190600D01*
X14209400Y-10910600D02*
X14289400Y-10990600D01*
X14289400Y-10910600D02*
X14209400Y-10990600D01*
X14209400Y-11110600D02*
X14289400Y-11190600D01*
X14289400Y-11110600D02*
X14209400Y-11190600D01*
X9448038Y-11582400D02*
G75*
G03X9448038Y-11582400I-50038J0D01*
G01*
X9448038Y-11836400D02*
G75*
G03X9448038Y-11836400I-50038J0D01*
G01*
X9448038Y-12090400D02*
G75*
G03X9448038Y-12090400I-50038J0D01*
G01*
X9448038Y-12344400D02*
G75*
G03X9448038Y-12344400I-50038J0D01*
G01*
X9448038Y-12598400D02*
G75*
G03X9448038Y-12598400I-50038J0D01*
G01*
X9448038Y-12852400D02*
G75*
G03X9448038Y-12852400I-50038J0D01*
G01*
X10464038Y-11582400D02*
G75*
G03X10464038Y-11582400I-50038J0D01*
G01*
X10464038Y-11836400D02*
G75*
G03X10464038Y-11836400I-50038J0D01*
G01*
X10464038Y-12090400D02*
G75*
G03X10464038Y-12090400I-50038J0D01*
G01*
X10464038Y-12344400D02*
G75*
G03X10464038Y-12344400I-50038J0D01*
G01*
X10464038Y-12598400D02*
G75*
G03X10464038Y-12598400I-50038J0D01*
G01*
X10464038Y-12852400D02*
G75*
G03X10464038Y-12852400I-50038J0D01*
G01*
X11378438Y-11569000D02*
G75*
G03X11378438Y-11569000I-50038J0D01*
G01*
X11378438Y-13069000D02*
G75*
G03X11378438Y-13069000I-50038J0D01*
G01*
X11962638Y-11569000D02*
G75*
G03X11962638Y-11569000I-50038J0D01*
G01*
X11962638Y-13069000D02*
G75*
G03X11962638Y-13069000I-50038J0D01*
G01*
X12546838Y-11569000D02*
G75*
G03X12546838Y-11569000I-50038J0D01*
G01*
X12546838Y-13069000D02*
G75*
G03X12546838Y-13069000I-50038J0D01*
G01*
X13131038Y-11569000D02*
G75*
G03X13131038Y-11569000I-50038J0D01*
G01*
X13131038Y-13069000D02*
G75*
G03X13131038Y-13069000I-50038J0D01*
G01*
X13715238Y-11569000D02*
G75*
G03X13715238Y-11569000I-50038J0D01*
G01*
X13715238Y-13069000D02*
G75*
G03X13715238Y-13069000I-50038J0D01*
G01*
X14299438Y-11569000D02*
G75*
G03X14299438Y-11569000I-50038J0D01*
G01*
X14299438Y-13069000D02*
G75*
G03X14299438Y-13069000I-50038J0D01*
G01*
X8661400Y-11531600D02*
X8661400Y-11633200D01*
X8610600Y-11582400D02*
X8712200Y-11582400D01*
X8661400Y-11785600D02*
X8661400Y-11887200D01*
X8610600Y-11836400D02*
X8712200Y-11836400D01*
X8661400Y-12039600D02*
X8661400Y-12141200D01*
X8610600Y-12090400D02*
X8712200Y-12090400D01*
X8661400Y-12293600D02*
X8661400Y-12395200D01*
X8610600Y-12344400D02*
X8712200Y-12344400D01*
X8661400Y-12547600D02*
X8661400Y-12649200D01*
X8610600Y-12598400D02*
X8712200Y-12598400D01*
X8661400Y-12801600D02*
X8661400Y-12903200D01*
X8610600Y-12852400D02*
X8712200Y-12852400D01*
X9042400Y-11531600D02*
X9042400Y-11633200D01*
X8991600Y-11582400D02*
X9093200Y-11582400D01*
X9042400Y-11785600D02*
X9042400Y-11887200D01*
X8991600Y-11836400D02*
X9093200Y-11836400D01*
X9042400Y-12039600D02*
X9042400Y-12141200D01*
X8991600Y-12090400D02*
X9093200Y-12090400D01*
X9042400Y-12293600D02*
X9042400Y-12395200D01*
X8991600Y-12344400D02*
X9093200Y-12344400D01*
X9042400Y-12547600D02*
X9042400Y-12649200D01*
X8991600Y-12598400D02*
X9093200Y-12598400D01*
X9042400Y-12801600D02*
X9042400Y-12903200D01*
X8991600Y-12852400D02*
X9093200Y-12852400D01*
X10795000Y-11277600D02*
X10795000Y-11379200D01*
X10744200Y-11328400D02*
X10845800Y-11328400D01*
X10795000Y-11531600D02*
X10795000Y-11633200D01*
X10744200Y-11582400D02*
X10845800Y-11582400D01*
X10795000Y-11785600D02*
X10795000Y-11887200D01*
X10744200Y-11836400D02*
X10845800Y-11836400D01*
X10795000Y-12039600D02*
X10795000Y-12141200D01*
X10744200Y-12090400D02*
X10845800Y-12090400D01*
X10795000Y-12293600D02*
X10795000Y-12395200D01*
X10744200Y-12344400D02*
X10845800Y-12344400D01*
X10795000Y-12547600D02*
X10795000Y-12649200D01*
X10744200Y-12598400D02*
X10845800Y-12598400D01*
X10795000Y-12801600D02*
X10795000Y-12903200D01*
X10744200Y-12852400D02*
X10845800Y-12852400D01*
X10795000Y-13055600D02*
X10795000Y-13157200D01*
X10744200Y-13106400D02*
X10845800Y-13106400D01*
X8157867Y-12247267D02*
X8157867Y-12035133D01*
X7945733Y-12035133D01*
X7945733Y-12247267D01*
X8157867Y-12247267D01*
X14939667Y-12247267D02*
X14939667Y-12035133D01*
X14727533Y-12035133D01*
X14727533Y-12247267D01*
X14939667Y-12247267D01*
D13*
X7883928Y-13833614D02*
X7883928Y-13533614D01*
X7955357Y-13533614D01*
X7998214Y-13547900D01*
X8026786Y-13576471D01*
X8041071Y-13605043D01*
X8055357Y-13662186D01*
X8055357Y-13705043D01*
X8041071Y-13762186D01*
X8026786Y-13790757D01*
X7998214Y-13819329D01*
X7955357Y-13833614D01*
X7883928Y-13833614D01*
X8183928Y-13833614D02*
X8183928Y-13633614D01*
X8183928Y-13690757D02*
X8198214Y-13662186D01*
X8212500Y-13647900D01*
X8241071Y-13633614D01*
X8269643Y-13633614D01*
X8369643Y-13833614D02*
X8369643Y-13633614D01*
X8369643Y-13533614D02*
X8355357Y-13547900D01*
X8369643Y-13562186D01*
X8383928Y-13547900D01*
X8369643Y-13533614D01*
X8369643Y-13562186D01*
X8555357Y-13833614D02*
X8526786Y-13819329D01*
X8512500Y-13790757D01*
X8512500Y-13533614D01*
X8712500Y-13833614D02*
X8683929Y-13819329D01*
X8669643Y-13790757D01*
X8669643Y-13533614D01*
X9055357Y-13833614D02*
X9055357Y-13533614D01*
X9155357Y-13747900D01*
X9255357Y-13533614D01*
X9255357Y-13833614D01*
X9526786Y-13833614D02*
X9526786Y-13676471D01*
X9512500Y-13647900D01*
X9483929Y-13633614D01*
X9426786Y-13633614D01*
X9398214Y-13647900D01*
X9526786Y-13819329D02*
X9498214Y-13833614D01*
X9426786Y-13833614D01*
X9398214Y-13819329D01*
X9383929Y-13790757D01*
X9383929Y-13762186D01*
X9398214Y-13733614D01*
X9426786Y-13719329D01*
X9498214Y-13719329D01*
X9526786Y-13705043D01*
X9669643Y-13633614D02*
X9669643Y-13933614D01*
X9669643Y-13647900D02*
X9698214Y-13633614D01*
X9755357Y-13633614D01*
X9783929Y-13647900D01*
X9798214Y-13662186D01*
X9812500Y-13690757D01*
X9812500Y-13776471D01*
X9798214Y-13805043D01*
X9783929Y-13819329D01*
X9755357Y-13833614D01*
X9698214Y-13833614D01*
X9669643Y-13819329D01*
X9941071Y-13805043D02*
X9955357Y-13819329D01*
X9941071Y-13833614D01*
X9926786Y-13819329D01*
X9941071Y-13805043D01*
X9941071Y-13833614D01*
X9941071Y-13647900D02*
X9955357Y-13662186D01*
X9941071Y-13676471D01*
X9926786Y-13662186D01*
X9941071Y-13647900D01*
X9941071Y-13676471D01*
X7532500Y-14287900D02*
X7612500Y-14367900D01*
X7612500Y-14287900D02*
X7532500Y-14367900D01*
X7941071Y-14163614D02*
X7969643Y-14163614D01*
X7998214Y-14177900D01*
X8012500Y-14192186D01*
X8026786Y-14220757D01*
X8041071Y-14277900D01*
X8041071Y-14349329D01*
X8026786Y-14406471D01*
X8012500Y-14435043D01*
X7998214Y-14449329D01*
X7969643Y-14463614D01*
X7941071Y-14463614D01*
X7912500Y-14449329D01*
X7898214Y-14435043D01*
X7883928Y-14406471D01*
X7869643Y-14349329D01*
X7869643Y-14277900D01*
X7883928Y-14220757D01*
X7898214Y-14192186D01*
X7912500Y-14177900D01*
X7941071Y-14163614D01*
X8169643Y-14435043D02*
X8183928Y-14449329D01*
X8169643Y-14463614D01*
X8155357Y-14449329D01*
X8169643Y-14435043D01*
X8169643Y-14463614D01*
X8355357Y-14292186D02*
X8326786Y-14277900D01*
X8312500Y-14263614D01*
X8298214Y-14235043D01*
X8298214Y-14220757D01*
X8312500Y-14192186D01*
X8326786Y-14177900D01*
X8355357Y-14163614D01*
X8412500Y-14163614D01*
X8441071Y-14177900D01*
X8455357Y-14192186D01*
X8469643Y-14220757D01*
X8469643Y-14235043D01*
X8455357Y-14263614D01*
X8441071Y-14277900D01*
X8412500Y-14292186D01*
X8355357Y-14292186D01*
X8326786Y-14306471D01*
X8312500Y-14320757D01*
X8298214Y-14349329D01*
X8298214Y-14406471D01*
X8312500Y-14435043D01*
X8326786Y-14449329D01*
X8355357Y-14463614D01*
X8412500Y-14463614D01*
X8441071Y-14449329D01*
X8455357Y-14435043D01*
X8469643Y-14406471D01*
X8469643Y-14349329D01*
X8455357Y-14320757D01*
X8441071Y-14306471D01*
X8412500Y-14292186D01*
X8655357Y-14163614D02*
X8683929Y-14163614D01*
X8712500Y-14177900D01*
X8726786Y-14192186D01*
X8741071Y-14220757D01*
X8755357Y-14277900D01*
X8755357Y-14349329D01*
X8741071Y-14406471D01*
X8726786Y-14435043D01*
X8712500Y-14449329D01*
X8683929Y-14463614D01*
X8655357Y-14463614D01*
X8626786Y-14449329D01*
X8612500Y-14435043D01*
X8598214Y-14406471D01*
X8583929Y-14349329D01*
X8583929Y-14277900D01*
X8598214Y-14220757D01*
X8612500Y-14192186D01*
X8626786Y-14177900D01*
X8655357Y-14163614D01*
X8883929Y-14463614D02*
X8883929Y-14263614D01*
X8883929Y-14292186D02*
X8898214Y-14277900D01*
X8926786Y-14263614D01*
X8969643Y-14263614D01*
X8998214Y-14277900D01*
X9012500Y-14306471D01*
X9012500Y-14463614D01*
X9012500Y-14306471D02*
X9026786Y-14277900D01*
X9055357Y-14263614D01*
X9098214Y-14263614D01*
X9126786Y-14277900D01*
X9141071Y-14306471D01*
X9141071Y-14463614D01*
X9283929Y-14463614D02*
X9283929Y-14263614D01*
X9283929Y-14292186D02*
X9298214Y-14277900D01*
X9326786Y-14263614D01*
X9369643Y-14263614D01*
X9398214Y-14277900D01*
X9412500Y-14306471D01*
X9412500Y-14463614D01*
X9412500Y-14306471D02*
X9426786Y-14277900D01*
X9455357Y-14263614D01*
X9498214Y-14263614D01*
X9526786Y-14277900D01*
X9541071Y-14306471D01*
X9541071Y-14463614D01*
X10126786Y-14149329D02*
X9869643Y-14535043D01*
X10512500Y-14163614D02*
X10541071Y-14163614D01*
X10569643Y-14177900D01*
X10583928Y-14192186D01*
X10598214Y-14220757D01*
X10612500Y-14277900D01*
X10612500Y-14349329D01*
X10598214Y-14406471D01*
X10583928Y-14435043D01*
X10569643Y-14449329D01*
X10541071Y-14463614D01*
X10512500Y-14463614D01*
X10483928Y-14449329D01*
X10469643Y-14435043D01*
X10455357Y-14406471D01*
X10441071Y-14349329D01*
X10441071Y-14277900D01*
X10455357Y-14220757D01*
X10469643Y-14192186D01*
X10483928Y-14177900D01*
X10512500Y-14163614D01*
X10741071Y-14435043D02*
X10755357Y-14449329D01*
X10741071Y-14463614D01*
X10726786Y-14449329D01*
X10741071Y-14435043D01*
X10741071Y-14463614D01*
X10941071Y-14163614D02*
X10969643Y-14163614D01*
X10998214Y-14177900D01*
X11012500Y-14192186D01*
X11026786Y-14220757D01*
X11041071Y-14277900D01*
X11041071Y-14349329D01*
X11026786Y-14406471D01*
X11012500Y-14435043D01*
X10998214Y-14449329D01*
X10969643Y-14463614D01*
X10941071Y-14463614D01*
X10912500Y-14449329D01*
X10898214Y-14435043D01*
X10883928Y-14406471D01*
X10869643Y-14349329D01*
X10869643Y-14277900D01*
X10883928Y-14220757D01*
X10898214Y-14192186D01*
X10912500Y-14177900D01*
X10941071Y-14163614D01*
X11141071Y-14163614D02*
X11326785Y-14163614D01*
X11226785Y-14277900D01*
X11269643Y-14277900D01*
X11298214Y-14292186D01*
X11312500Y-14306471D01*
X11326785Y-14335043D01*
X11326785Y-14406471D01*
X11312500Y-14435043D01*
X11298214Y-14449329D01*
X11269643Y-14463614D01*
X11183928Y-14463614D01*
X11155357Y-14449329D01*
X11141071Y-14435043D01*
X11612500Y-14463614D02*
X11441071Y-14463614D01*
X11526785Y-14463614D02*
X11526785Y-14163614D01*
X11498214Y-14206471D01*
X11469643Y-14235043D01*
X11441071Y-14249329D01*
X11726786Y-14163614D02*
X11726786Y-14220757D01*
X11841071Y-14163614D02*
X11841071Y-14220757D01*
X12283928Y-14577900D02*
X12269643Y-14563614D01*
X12241071Y-14520757D01*
X12226785Y-14492186D01*
X12212500Y-14449329D01*
X12198214Y-14377900D01*
X12198214Y-14320757D01*
X12212500Y-14249329D01*
X12226785Y-14206471D01*
X12241071Y-14177900D01*
X12269643Y-14135043D01*
X12283928Y-14120757D01*
X12555357Y-14463614D02*
X12383928Y-14463614D01*
X12469643Y-14463614D02*
X12469643Y-14163614D01*
X12441071Y-14206471D01*
X12412500Y-14235043D01*
X12383928Y-14249329D01*
X12669643Y-14192186D02*
X12683928Y-14177900D01*
X12712500Y-14163614D01*
X12783928Y-14163614D01*
X12812500Y-14177900D01*
X12826785Y-14192186D01*
X12841071Y-14220757D01*
X12841071Y-14249329D01*
X12826785Y-14292186D01*
X12655357Y-14463614D01*
X12841071Y-14463614D01*
X13198214Y-14463614D02*
X13198214Y-14163614D01*
X13326785Y-14463614D02*
X13326785Y-14306471D01*
X13312500Y-14277900D01*
X13283928Y-14263614D01*
X13241071Y-14263614D01*
X13212500Y-14277900D01*
X13198214Y-14292186D01*
X13512500Y-14463614D02*
X13483928Y-14449329D01*
X13469643Y-14435043D01*
X13455357Y-14406471D01*
X13455357Y-14320757D01*
X13469643Y-14292186D01*
X13483928Y-14277900D01*
X13512500Y-14263614D01*
X13555357Y-14263614D01*
X13583928Y-14277900D01*
X13598214Y-14292186D01*
X13612500Y-14320757D01*
X13612500Y-14406471D01*
X13598214Y-14435043D01*
X13583928Y-14449329D01*
X13555357Y-14463614D01*
X13512500Y-14463614D01*
X13783928Y-14463614D02*
X13755357Y-14449329D01*
X13741071Y-14420757D01*
X13741071Y-14163614D01*
X14012500Y-14449329D02*
X13983928Y-14463614D01*
X13926786Y-14463614D01*
X13898214Y-14449329D01*
X13883928Y-14420757D01*
X13883928Y-14306471D01*
X13898214Y-14277900D01*
X13926786Y-14263614D01*
X13983928Y-14263614D01*
X14012500Y-14277900D01*
X14026786Y-14306471D01*
X14026786Y-14335043D01*
X13883928Y-14363614D01*
X14141071Y-14449329D02*
X14169643Y-14463614D01*
X14226786Y-14463614D01*
X14255357Y-14449329D01*
X14269643Y-14420757D01*
X14269643Y-14406471D01*
X14255357Y-14377900D01*
X14226786Y-14363614D01*
X14183928Y-14363614D01*
X14155357Y-14349329D01*
X14141071Y-14320757D01*
X14141071Y-14306471D01*
X14155357Y-14277900D01*
X14183928Y-14263614D01*
X14226786Y-14263614D01*
X14255357Y-14277900D01*
X14369643Y-14577900D02*
X14383928Y-14563614D01*
X14412500Y-14520757D01*
X14426786Y-14492186D01*
X14441071Y-14449329D01*
X14455357Y-14377900D01*
X14455357Y-14320757D01*
X14441071Y-14249329D01*
X14426786Y-14206471D01*
X14412500Y-14177900D01*
X14383928Y-14135043D01*
X14369643Y-14120757D01*
X7612500Y-14723900D02*
G75*
G03X7612500Y-14723900I-50038J0D01*
G01*
X8041071Y-14859614D02*
X7869643Y-14859614D01*
X7955357Y-14859614D02*
X7955357Y-14559614D01*
X7926786Y-14602471D01*
X7898214Y-14631043D01*
X7869643Y-14645329D01*
X8169643Y-14831043D02*
X8183928Y-14845329D01*
X8169643Y-14859614D01*
X8155357Y-14845329D01*
X8169643Y-14831043D01*
X8169643Y-14859614D01*
X8369643Y-14559614D02*
X8398214Y-14559614D01*
X8426786Y-14573900D01*
X8441071Y-14588186D01*
X8455357Y-14616757D01*
X8469643Y-14673900D01*
X8469643Y-14745329D01*
X8455357Y-14802471D01*
X8441071Y-14831043D01*
X8426786Y-14845329D01*
X8398214Y-14859614D01*
X8369643Y-14859614D01*
X8341071Y-14845329D01*
X8326786Y-14831043D01*
X8312500Y-14802471D01*
X8298214Y-14745329D01*
X8298214Y-14673900D01*
X8312500Y-14616757D01*
X8326786Y-14588186D01*
X8341071Y-14573900D01*
X8369643Y-14559614D01*
X8655357Y-14559614D02*
X8683929Y-14559614D01*
X8712500Y-14573900D01*
X8726786Y-14588186D01*
X8741071Y-14616757D01*
X8755357Y-14673900D01*
X8755357Y-14745329D01*
X8741071Y-14802471D01*
X8726786Y-14831043D01*
X8712500Y-14845329D01*
X8683929Y-14859614D01*
X8655357Y-14859614D01*
X8626786Y-14845329D01*
X8612500Y-14831043D01*
X8598214Y-14802471D01*
X8583929Y-14745329D01*
X8583929Y-14673900D01*
X8598214Y-14616757D01*
X8612500Y-14588186D01*
X8626786Y-14573900D01*
X8655357Y-14559614D01*
X8883929Y-14859614D02*
X8883929Y-14659614D01*
X8883929Y-14688186D02*
X8898214Y-14673900D01*
X8926786Y-14659614D01*
X8969643Y-14659614D01*
X8998214Y-14673900D01*
X9012500Y-14702471D01*
X9012500Y-14859614D01*
X9012500Y-14702471D02*
X9026786Y-14673900D01*
X9055357Y-14659614D01*
X9098214Y-14659614D01*
X9126786Y-14673900D01*
X9141071Y-14702471D01*
X9141071Y-14859614D01*
X9283929Y-14859614D02*
X9283929Y-14659614D01*
X9283929Y-14688186D02*
X9298214Y-14673900D01*
X9326786Y-14659614D01*
X9369643Y-14659614D01*
X9398214Y-14673900D01*
X9412500Y-14702471D01*
X9412500Y-14859614D01*
X9412500Y-14702471D02*
X9426786Y-14673900D01*
X9455357Y-14659614D01*
X9498214Y-14659614D01*
X9526786Y-14673900D01*
X9541071Y-14702471D01*
X9541071Y-14859614D01*
X10126786Y-14545329D02*
X9869643Y-14931043D01*
X10512500Y-14559614D02*
X10541071Y-14559614D01*
X10569643Y-14573900D01*
X10583928Y-14588186D01*
X10598214Y-14616757D01*
X10612500Y-14673900D01*
X10612500Y-14745329D01*
X10598214Y-14802471D01*
X10583928Y-14831043D01*
X10569643Y-14845329D01*
X10541071Y-14859614D01*
X10512500Y-14859614D01*
X10483928Y-14845329D01*
X10469643Y-14831043D01*
X10455357Y-14802471D01*
X10441071Y-14745329D01*
X10441071Y-14673900D01*
X10455357Y-14616757D01*
X10469643Y-14588186D01*
X10483928Y-14573900D01*
X10512500Y-14559614D01*
X10741071Y-14831043D02*
X10755357Y-14845329D01*
X10741071Y-14859614D01*
X10726786Y-14845329D01*
X10741071Y-14831043D01*
X10741071Y-14859614D01*
X10941071Y-14559614D02*
X10969643Y-14559614D01*
X10998214Y-14573900D01*
X11012500Y-14588186D01*
X11026786Y-14616757D01*
X11041071Y-14673900D01*
X11041071Y-14745329D01*
X11026786Y-14802471D01*
X11012500Y-14831043D01*
X10998214Y-14845329D01*
X10969643Y-14859614D01*
X10941071Y-14859614D01*
X10912500Y-14845329D01*
X10898214Y-14831043D01*
X10883928Y-14802471D01*
X10869643Y-14745329D01*
X10869643Y-14673900D01*
X10883928Y-14616757D01*
X10898214Y-14588186D01*
X10912500Y-14573900D01*
X10941071Y-14559614D01*
X11141071Y-14559614D02*
X11326785Y-14559614D01*
X11226785Y-14673900D01*
X11269643Y-14673900D01*
X11298214Y-14688186D01*
X11312500Y-14702471D01*
X11326785Y-14731043D01*
X11326785Y-14802471D01*
X11312500Y-14831043D01*
X11298214Y-14845329D01*
X11269643Y-14859614D01*
X11183928Y-14859614D01*
X11155357Y-14845329D01*
X11141071Y-14831043D01*
X11469643Y-14859614D02*
X11526785Y-14859614D01*
X11555357Y-14845329D01*
X11569643Y-14831043D01*
X11598214Y-14788186D01*
X11612500Y-14731043D01*
X11612500Y-14616757D01*
X11598214Y-14588186D01*
X11583928Y-14573900D01*
X11555357Y-14559614D01*
X11498214Y-14559614D01*
X11469643Y-14573900D01*
X11455357Y-14588186D01*
X11441071Y-14616757D01*
X11441071Y-14688186D01*
X11455357Y-14716757D01*
X11469643Y-14731043D01*
X11498214Y-14745329D01*
X11555357Y-14745329D01*
X11583928Y-14731043D01*
X11598214Y-14716757D01*
X11612500Y-14688186D01*
X11726786Y-14559614D02*
X11726786Y-14616757D01*
X11841071Y-14559614D02*
X11841071Y-14616757D01*
X12283928Y-14973900D02*
X12269643Y-14959614D01*
X12241071Y-14916757D01*
X12226785Y-14888186D01*
X12212500Y-14845329D01*
X12198214Y-14773900D01*
X12198214Y-14716757D01*
X12212500Y-14645329D01*
X12226785Y-14602471D01*
X12241071Y-14573900D01*
X12269643Y-14531043D01*
X12283928Y-14516757D01*
X12383928Y-14588186D02*
X12398214Y-14573900D01*
X12426785Y-14559614D01*
X12498214Y-14559614D01*
X12526785Y-14573900D01*
X12541071Y-14588186D01*
X12555357Y-14616757D01*
X12555357Y-14645329D01*
X12541071Y-14688186D01*
X12369643Y-14859614D01*
X12555357Y-14859614D01*
X12812500Y-14659614D02*
X12812500Y-14859614D01*
X12741071Y-14545329D02*
X12669643Y-14759614D01*
X12855357Y-14759614D01*
X13198214Y-14859614D02*
X13198214Y-14559614D01*
X13326785Y-14859614D02*
X13326785Y-14702471D01*
X13312500Y-14673900D01*
X13283928Y-14659614D01*
X13241071Y-14659614D01*
X13212500Y-14673900D01*
X13198214Y-14688186D01*
X13512500Y-14859614D02*
X13483928Y-14845329D01*
X13469643Y-14831043D01*
X13455357Y-14802471D01*
X13455357Y-14716757D01*
X13469643Y-14688186D01*
X13483928Y-14673900D01*
X13512500Y-14659614D01*
X13555357Y-14659614D01*
X13583928Y-14673900D01*
X13598214Y-14688186D01*
X13612500Y-14716757D01*
X13612500Y-14802471D01*
X13598214Y-14831043D01*
X13583928Y-14845329D01*
X13555357Y-14859614D01*
X13512500Y-14859614D01*
X13783928Y-14859614D02*
X13755357Y-14845329D01*
X13741071Y-14816757D01*
X13741071Y-14559614D01*
X14012500Y-14845329D02*
X13983928Y-14859614D01*
X13926786Y-14859614D01*
X13898214Y-14845329D01*
X13883928Y-14816757D01*
X13883928Y-14702471D01*
X13898214Y-14673900D01*
X13926786Y-14659614D01*
X13983928Y-14659614D01*
X14012500Y-14673900D01*
X14026786Y-14702471D01*
X14026786Y-14731043D01*
X13883928Y-14759614D01*
X14141071Y-14845329D02*
X14169643Y-14859614D01*
X14226786Y-14859614D01*
X14255357Y-14845329D01*
X14269643Y-14816757D01*
X14269643Y-14802471D01*
X14255357Y-14773900D01*
X14226786Y-14759614D01*
X14183928Y-14759614D01*
X14155357Y-14745329D01*
X14141071Y-14716757D01*
X14141071Y-14702471D01*
X14155357Y-14673900D01*
X14183928Y-14659614D01*
X14226786Y-14659614D01*
X14255357Y-14673900D01*
X14369643Y-14973900D02*
X14383928Y-14959614D01*
X14412500Y-14916757D01*
X14426786Y-14888186D01*
X14441071Y-14845329D01*
X14455357Y-14773900D01*
X14455357Y-14716757D01*
X14441071Y-14645329D01*
X14426786Y-14602471D01*
X14412500Y-14573900D01*
X14383928Y-14531043D01*
X14369643Y-14516757D01*
X7561700Y-15069100D02*
X7561700Y-15170700D01*
X7510900Y-15119900D02*
X7612500Y-15119900D01*
X8041071Y-15255614D02*
X7869643Y-15255614D01*
X7955357Y-15255614D02*
X7955357Y-14955614D01*
X7926786Y-14998471D01*
X7898214Y-15027043D01*
X7869643Y-15041329D01*
X8169643Y-15227043D02*
X8183928Y-15241329D01*
X8169643Y-15255614D01*
X8155357Y-15241329D01*
X8169643Y-15227043D01*
X8169643Y-15255614D01*
X8369643Y-14955614D02*
X8398214Y-14955614D01*
X8426786Y-14969900D01*
X8441071Y-14984186D01*
X8455357Y-15012757D01*
X8469643Y-15069900D01*
X8469643Y-15141329D01*
X8455357Y-15198471D01*
X8441071Y-15227043D01*
X8426786Y-15241329D01*
X8398214Y-15255614D01*
X8369643Y-15255614D01*
X8341071Y-15241329D01*
X8326786Y-15227043D01*
X8312500Y-15198471D01*
X8298214Y-15141329D01*
X8298214Y-15069900D01*
X8312500Y-15012757D01*
X8326786Y-14984186D01*
X8341071Y-14969900D01*
X8369643Y-14955614D01*
X8583929Y-14984186D02*
X8598214Y-14969900D01*
X8626786Y-14955614D01*
X8698214Y-14955614D01*
X8726786Y-14969900D01*
X8741071Y-14984186D01*
X8755357Y-15012757D01*
X8755357Y-15041329D01*
X8741071Y-15084186D01*
X8569643Y-15255614D01*
X8755357Y-15255614D01*
X8883929Y-15255614D02*
X8883929Y-15055614D01*
X8883929Y-15084186D02*
X8898214Y-15069900D01*
X8926786Y-15055614D01*
X8969643Y-15055614D01*
X8998214Y-15069900D01*
X9012500Y-15098471D01*
X9012500Y-15255614D01*
X9012500Y-15098471D02*
X9026786Y-15069900D01*
X9055357Y-15055614D01*
X9098214Y-15055614D01*
X9126786Y-15069900D01*
X9141071Y-15098471D01*
X9141071Y-15255614D01*
X9283929Y-15255614D02*
X9283929Y-15055614D01*
X9283929Y-15084186D02*
X9298214Y-15069900D01*
X9326786Y-15055614D01*
X9369643Y-15055614D01*
X9398214Y-15069900D01*
X9412500Y-15098471D01*
X9412500Y-15255614D01*
X9412500Y-15098471D02*
X9426786Y-15069900D01*
X9455357Y-15055614D01*
X9498214Y-15055614D01*
X9526786Y-15069900D01*
X9541071Y-15098471D01*
X9541071Y-15255614D01*
X10126786Y-14941329D02*
X9869643Y-15327043D01*
X10512500Y-14955614D02*
X10541071Y-14955614D01*
X10569643Y-14969900D01*
X10583928Y-14984186D01*
X10598214Y-15012757D01*
X10612500Y-15069900D01*
X10612500Y-15141329D01*
X10598214Y-15198471D01*
X10583928Y-15227043D01*
X10569643Y-15241329D01*
X10541071Y-15255614D01*
X10512500Y-15255614D01*
X10483928Y-15241329D01*
X10469643Y-15227043D01*
X10455357Y-15198471D01*
X10441071Y-15141329D01*
X10441071Y-15069900D01*
X10455357Y-15012757D01*
X10469643Y-14984186D01*
X10483928Y-14969900D01*
X10512500Y-14955614D01*
X10741071Y-15227043D02*
X10755357Y-15241329D01*
X10741071Y-15255614D01*
X10726786Y-15241329D01*
X10741071Y-15227043D01*
X10741071Y-15255614D01*
X10941071Y-14955614D02*
X10969643Y-14955614D01*
X10998214Y-14969900D01*
X11012500Y-14984186D01*
X11026786Y-15012757D01*
X11041071Y-15069900D01*
X11041071Y-15141329D01*
X11026786Y-15198471D01*
X11012500Y-15227043D01*
X10998214Y-15241329D01*
X10969643Y-15255614D01*
X10941071Y-15255614D01*
X10912500Y-15241329D01*
X10898214Y-15227043D01*
X10883928Y-15198471D01*
X10869643Y-15141329D01*
X10869643Y-15069900D01*
X10883928Y-15012757D01*
X10898214Y-14984186D01*
X10912500Y-14969900D01*
X10941071Y-14955614D01*
X11298214Y-15055614D02*
X11298214Y-15255614D01*
X11226785Y-14941329D02*
X11155357Y-15155614D01*
X11341071Y-15155614D01*
X11512500Y-14955614D02*
X11541071Y-14955614D01*
X11569643Y-14969900D01*
X11583928Y-14984186D01*
X11598214Y-15012757D01*
X11612500Y-15069900D01*
X11612500Y-15141329D01*
X11598214Y-15198471D01*
X11583928Y-15227043D01*
X11569643Y-15241329D01*
X11541071Y-15255614D01*
X11512500Y-15255614D01*
X11483928Y-15241329D01*
X11469643Y-15227043D01*
X11455357Y-15198471D01*
X11441071Y-15141329D01*
X11441071Y-15069900D01*
X11455357Y-15012757D01*
X11469643Y-14984186D01*
X11483928Y-14969900D01*
X11512500Y-14955614D01*
X11726786Y-14955614D02*
X11726786Y-15012757D01*
X11841071Y-14955614D02*
X11841071Y-15012757D01*
X12283928Y-15369900D02*
X12269643Y-15355614D01*
X12241071Y-15312757D01*
X12226785Y-15284186D01*
X12212500Y-15241329D01*
X12198214Y-15169900D01*
X12198214Y-15112757D01*
X12212500Y-15041329D01*
X12226785Y-14998471D01*
X12241071Y-14969900D01*
X12269643Y-14927043D01*
X12283928Y-14912757D01*
X12383928Y-14984186D02*
X12398214Y-14969900D01*
X12426785Y-14955614D01*
X12498214Y-14955614D01*
X12526785Y-14969900D01*
X12541071Y-14984186D01*
X12555357Y-15012757D01*
X12555357Y-15041329D01*
X12541071Y-15084186D01*
X12369643Y-15255614D01*
X12555357Y-15255614D01*
X12741071Y-14955614D02*
X12769643Y-14955614D01*
X12798214Y-14969900D01*
X12812500Y-14984186D01*
X12826785Y-15012757D01*
X12841071Y-15069900D01*
X12841071Y-15141329D01*
X12826785Y-15198471D01*
X12812500Y-15227043D01*
X12798214Y-15241329D01*
X12769643Y-15255614D01*
X12741071Y-15255614D01*
X12712500Y-15241329D01*
X12698214Y-15227043D01*
X12683928Y-15198471D01*
X12669643Y-15141329D01*
X12669643Y-15069900D01*
X12683928Y-15012757D01*
X12698214Y-14984186D01*
X12712500Y-14969900D01*
X12741071Y-14955614D01*
X13198214Y-15255614D02*
X13198214Y-14955614D01*
X13326785Y-15255614D02*
X13326785Y-15098471D01*
X13312500Y-15069900D01*
X13283928Y-15055614D01*
X13241071Y-15055614D01*
X13212500Y-15069900D01*
X13198214Y-15084186D01*
X13512500Y-15255614D02*
X13483928Y-15241329D01*
X13469643Y-15227043D01*
X13455357Y-15198471D01*
X13455357Y-15112757D01*
X13469643Y-15084186D01*
X13483928Y-15069900D01*
X13512500Y-15055614D01*
X13555357Y-15055614D01*
X13583928Y-15069900D01*
X13598214Y-15084186D01*
X13612500Y-15112757D01*
X13612500Y-15198471D01*
X13598214Y-15227043D01*
X13583928Y-15241329D01*
X13555357Y-15255614D01*
X13512500Y-15255614D01*
X13783928Y-15255614D02*
X13755357Y-15241329D01*
X13741071Y-15212757D01*
X13741071Y-14955614D01*
X14012500Y-15241329D02*
X13983928Y-15255614D01*
X13926786Y-15255614D01*
X13898214Y-15241329D01*
X13883928Y-15212757D01*
X13883928Y-15098471D01*
X13898214Y-15069900D01*
X13926786Y-15055614D01*
X13983928Y-15055614D01*
X14012500Y-15069900D01*
X14026786Y-15098471D01*
X14026786Y-15127043D01*
X13883928Y-15155614D01*
X14141071Y-15241329D02*
X14169643Y-15255614D01*
X14226786Y-15255614D01*
X14255357Y-15241329D01*
X14269643Y-15212757D01*
X14269643Y-15198471D01*
X14255357Y-15169900D01*
X14226786Y-15155614D01*
X14183928Y-15155614D01*
X14155357Y-15141329D01*
X14141071Y-15112757D01*
X14141071Y-15098471D01*
X14155357Y-15069900D01*
X14183928Y-15055614D01*
X14226786Y-15055614D01*
X14255357Y-15069900D01*
X14369643Y-15369900D02*
X14383928Y-15355614D01*
X14412500Y-15312757D01*
X14426786Y-15284186D01*
X14441071Y-15241329D01*
X14455357Y-15169900D01*
X14455357Y-15112757D01*
X14441071Y-15041329D01*
X14426786Y-14998471D01*
X14412500Y-14969900D01*
X14383928Y-14927043D01*
X14369643Y-14912757D01*
X7568567Y-15621967D02*
X7568567Y-15409833D01*
X7356433Y-15409833D01*
X7356433Y-15621967D01*
X7568567Y-15621967D01*
X7855357Y-15351614D02*
X8041071Y-15351614D01*
X7941071Y-15465900D01*
X7983928Y-15465900D01*
X8012500Y-15480186D01*
X8026786Y-15494471D01*
X8041071Y-15523043D01*
X8041071Y-15594471D01*
X8026786Y-15623043D01*
X8012500Y-15637329D01*
X7983928Y-15651614D01*
X7898214Y-15651614D01*
X7869643Y-15637329D01*
X7855357Y-15623043D01*
X8169643Y-15623043D02*
X8183928Y-15637329D01*
X8169643Y-15651614D01*
X8155357Y-15637329D01*
X8169643Y-15623043D01*
X8169643Y-15651614D01*
X8369643Y-15351614D02*
X8398214Y-15351614D01*
X8426786Y-15365900D01*
X8441071Y-15380186D01*
X8455357Y-15408757D01*
X8469643Y-15465900D01*
X8469643Y-15537329D01*
X8455357Y-15594471D01*
X8441071Y-15623043D01*
X8426786Y-15637329D01*
X8398214Y-15651614D01*
X8369643Y-15651614D01*
X8341071Y-15637329D01*
X8326786Y-15623043D01*
X8312500Y-15594471D01*
X8298214Y-15537329D01*
X8298214Y-15465900D01*
X8312500Y-15408757D01*
X8326786Y-15380186D01*
X8341071Y-15365900D01*
X8369643Y-15351614D01*
X8655357Y-15351614D02*
X8683929Y-15351614D01*
X8712500Y-15365900D01*
X8726786Y-15380186D01*
X8741071Y-15408757D01*
X8755357Y-15465900D01*
X8755357Y-15537329D01*
X8741071Y-15594471D01*
X8726786Y-15623043D01*
X8712500Y-15637329D01*
X8683929Y-15651614D01*
X8655357Y-15651614D01*
X8626786Y-15637329D01*
X8612500Y-15623043D01*
X8598214Y-15594471D01*
X8583929Y-15537329D01*
X8583929Y-15465900D01*
X8598214Y-15408757D01*
X8612500Y-15380186D01*
X8626786Y-15365900D01*
X8655357Y-15351614D01*
X8883929Y-15651614D02*
X8883929Y-15451614D01*
X8883929Y-15480186D02*
X8898214Y-15465900D01*
X8926786Y-15451614D01*
X8969643Y-15451614D01*
X8998214Y-15465900D01*
X9012500Y-15494471D01*
X9012500Y-15651614D01*
X9012500Y-15494471D02*
X9026786Y-15465900D01*
X9055357Y-15451614D01*
X9098214Y-15451614D01*
X9126786Y-15465900D01*
X9141071Y-15494471D01*
X9141071Y-15651614D01*
X9283929Y-15651614D02*
X9283929Y-15451614D01*
X9283929Y-15480186D02*
X9298214Y-15465900D01*
X9326786Y-15451614D01*
X9369643Y-15451614D01*
X9398214Y-15465900D01*
X9412500Y-15494471D01*
X9412500Y-15651614D01*
X9412500Y-15494471D02*
X9426786Y-15465900D01*
X9455357Y-15451614D01*
X9498214Y-15451614D01*
X9526786Y-15465900D01*
X9541071Y-15494471D01*
X9541071Y-15651614D01*
X10126786Y-15337329D02*
X9869643Y-15723043D01*
X10512500Y-15351614D02*
X10541071Y-15351614D01*
X10569643Y-15365900D01*
X10583928Y-15380186D01*
X10598214Y-15408757D01*
X10612500Y-15465900D01*
X10612500Y-15537329D01*
X10598214Y-15594471D01*
X10583928Y-15623043D01*
X10569643Y-15637329D01*
X10541071Y-15651614D01*
X10512500Y-15651614D01*
X10483928Y-15637329D01*
X10469643Y-15623043D01*
X10455357Y-15594471D01*
X10441071Y-15537329D01*
X10441071Y-15465900D01*
X10455357Y-15408757D01*
X10469643Y-15380186D01*
X10483928Y-15365900D01*
X10512500Y-15351614D01*
X10741071Y-15623043D02*
X10755357Y-15637329D01*
X10741071Y-15651614D01*
X10726786Y-15637329D01*
X10741071Y-15623043D01*
X10741071Y-15651614D01*
X11041071Y-15651614D02*
X10869643Y-15651614D01*
X10955357Y-15651614D02*
X10955357Y-15351614D01*
X10926786Y-15394471D01*
X10898214Y-15423043D01*
X10869643Y-15437329D01*
X11326785Y-15651614D02*
X11155357Y-15651614D01*
X11241071Y-15651614D02*
X11241071Y-15351614D01*
X11212500Y-15394471D01*
X11183928Y-15423043D01*
X11155357Y-15437329D01*
X11498214Y-15480186D02*
X11469643Y-15465900D01*
X11455357Y-15451614D01*
X11441071Y-15423043D01*
X11441071Y-15408757D01*
X11455357Y-15380186D01*
X11469643Y-15365900D01*
X11498214Y-15351614D01*
X11555357Y-15351614D01*
X11583928Y-15365900D01*
X11598214Y-15380186D01*
X11612500Y-15408757D01*
X11612500Y-15423043D01*
X11598214Y-15451614D01*
X11583928Y-15465900D01*
X11555357Y-15480186D01*
X11498214Y-15480186D01*
X11469643Y-15494471D01*
X11455357Y-15508757D01*
X11441071Y-15537329D01*
X11441071Y-15594471D01*
X11455357Y-15623043D01*
X11469643Y-15637329D01*
X11498214Y-15651614D01*
X11555357Y-15651614D01*
X11583928Y-15637329D01*
X11598214Y-15623043D01*
X11612500Y-15594471D01*
X11612500Y-15537329D01*
X11598214Y-15508757D01*
X11583928Y-15494471D01*
X11555357Y-15480186D01*
X11726786Y-15351614D02*
X11726786Y-15408757D01*
X11841071Y-15351614D02*
X11841071Y-15408757D01*
X12283928Y-15765900D02*
X12269643Y-15751614D01*
X12241071Y-15708757D01*
X12226785Y-15680186D01*
X12212500Y-15637329D01*
X12198214Y-15565900D01*
X12198214Y-15508757D01*
X12212500Y-15437329D01*
X12226785Y-15394471D01*
X12241071Y-15365900D01*
X12269643Y-15323043D01*
X12283928Y-15308757D01*
X12383928Y-15380186D02*
X12398214Y-15365900D01*
X12426785Y-15351614D01*
X12498214Y-15351614D01*
X12526785Y-15365900D01*
X12541071Y-15380186D01*
X12555357Y-15408757D01*
X12555357Y-15437329D01*
X12541071Y-15480186D01*
X12369643Y-15651614D01*
X12555357Y-15651614D01*
X12912500Y-15651614D02*
X12912500Y-15351614D01*
X13041071Y-15651614D02*
X13041071Y-15494471D01*
X13026785Y-15465900D01*
X12998214Y-15451614D01*
X12955357Y-15451614D01*
X12926785Y-15465900D01*
X12912500Y-15480186D01*
X13226785Y-15651614D02*
X13198214Y-15637329D01*
X13183928Y-15623043D01*
X13169643Y-15594471D01*
X13169643Y-15508757D01*
X13183928Y-15480186D01*
X13198214Y-15465900D01*
X13226785Y-15451614D01*
X13269643Y-15451614D01*
X13298214Y-15465900D01*
X13312500Y-15480186D01*
X13326785Y-15508757D01*
X13326785Y-15594471D01*
X13312500Y-15623043D01*
X13298214Y-15637329D01*
X13269643Y-15651614D01*
X13226785Y-15651614D01*
X13498214Y-15651614D02*
X13469643Y-15637329D01*
X13455357Y-15608757D01*
X13455357Y-15351614D01*
X13726786Y-15637329D02*
X13698214Y-15651614D01*
X13641071Y-15651614D01*
X13612500Y-15637329D01*
X13598214Y-15608757D01*
X13598214Y-15494471D01*
X13612500Y-15465900D01*
X13641071Y-15451614D01*
X13698214Y-15451614D01*
X13726786Y-15465900D01*
X13741071Y-15494471D01*
X13741071Y-15523043D01*
X13598214Y-15551614D01*
X13855357Y-15637329D02*
X13883928Y-15651614D01*
X13941071Y-15651614D01*
X13969643Y-15637329D01*
X13983928Y-15608757D01*
X13983928Y-15594471D01*
X13969643Y-15565900D01*
X13941071Y-15551614D01*
X13898214Y-15551614D01*
X13869643Y-15537329D01*
X13855357Y-15508757D01*
X13855357Y-15494471D01*
X13869643Y-15465900D01*
X13898214Y-15451614D01*
X13941071Y-15451614D01*
X13969643Y-15465900D01*
X14083928Y-15765900D02*
X14098214Y-15751614D01*
X14126786Y-15708757D01*
X14141071Y-15680186D01*
X14155357Y-15637329D01*
X14169643Y-15565900D01*
X14169643Y-15508757D01*
X14155357Y-15437329D01*
X14141071Y-15394471D01*
X14126786Y-15365900D01*
X14098214Y-15323043D01*
X14083928Y-15308757D01*
M02*
