G04 #@! TF.FileFunction,Copper,L2,Bot,Mixed*
%FSLAX46Y46*%
G04 Gerber Fmt 4.6, Leading zero omitted, Abs format (unit mm)*
G04 Created by KiCad (PCBNEW 0.201601262101+6516~42~ubuntu15.10.1-product) date Wed 27 Jan 2016 03:09:02 PM CET*
%MOMM*%
G01*
G04 APERTURE LIST*
%ADD10C,0.020000*%
%ADD11C,0.200000*%
%ADD12C,2.500000*%
%ADD13C,1.998980*%
%ADD14R,1.700000X1.490000*%
%ADD15O,2.200000X1.490000*%
%ADD16R,2.032000X2.032000*%
%ADD17C,2.032000*%
%ADD18C,0.900000*%
%ADD19C,0.150000*%
G04 APERTURE END LIST*
D10*
D11*
X97304571Y-110688381D02*
X97304571Y-109688381D01*
X96733143Y-109688381D01*
X96590285Y-109736000D01*
X96518857Y-109783619D01*
X96447428Y-109878857D01*
X96447428Y-110021714D01*
X96518857Y-110116952D01*
X96590285Y-110164571D01*
X96733143Y-110212190D01*
X97304571Y-110212190D01*
X95304571Y-110164571D02*
X95090285Y-110212190D01*
X95018857Y-110259810D01*
X94947428Y-110355048D01*
X94947428Y-110497905D01*
X95018857Y-110593143D01*
X95090285Y-110640762D01*
X95233143Y-110688381D01*
X95804571Y-110688381D01*
X95804571Y-109688381D01*
X95304571Y-109688381D01*
X95161714Y-109736000D01*
X95090285Y-109783619D01*
X95018857Y-109878857D01*
X95018857Y-109974095D01*
X95090285Y-110069333D01*
X95161714Y-110116952D01*
X95304571Y-110164571D01*
X95804571Y-110164571D01*
X93161714Y-110688381D02*
X93161714Y-109688381D01*
X92804571Y-109688381D01*
X92590286Y-109736000D01*
X92447428Y-109831238D01*
X92376000Y-109926476D01*
X92304571Y-110116952D01*
X92304571Y-110259810D01*
X92376000Y-110450286D01*
X92447428Y-110545524D01*
X92590286Y-110640762D01*
X92804571Y-110688381D01*
X93161714Y-110688381D01*
X91090286Y-110640762D02*
X91233143Y-110688381D01*
X91518857Y-110688381D01*
X91661714Y-110640762D01*
X91733143Y-110545524D01*
X91733143Y-110164571D01*
X91661714Y-110069333D01*
X91518857Y-110021714D01*
X91233143Y-110021714D01*
X91090286Y-110069333D01*
X91018857Y-110164571D01*
X91018857Y-110259810D01*
X91733143Y-110355048D01*
X90376000Y-110688381D02*
X90376000Y-109688381D01*
X90376000Y-110069333D02*
X90233143Y-110021714D01*
X89947429Y-110021714D01*
X89804572Y-110069333D01*
X89733143Y-110116952D01*
X89661714Y-110212190D01*
X89661714Y-110497905D01*
X89733143Y-110593143D01*
X89804572Y-110640762D01*
X89947429Y-110688381D01*
X90233143Y-110688381D01*
X90376000Y-110640762D01*
X88804571Y-110688381D02*
X88947429Y-110640762D01*
X89018857Y-110593143D01*
X89090286Y-110497905D01*
X89090286Y-110212190D01*
X89018857Y-110116952D01*
X88947429Y-110069333D01*
X88804571Y-110021714D01*
X88590286Y-110021714D01*
X88447429Y-110069333D01*
X88376000Y-110116952D01*
X88304571Y-110212190D01*
X88304571Y-110497905D01*
X88376000Y-110593143D01*
X88447429Y-110640762D01*
X88590286Y-110688381D01*
X88804571Y-110688381D01*
X87018857Y-110021714D02*
X87018857Y-110688381D01*
X87661714Y-110021714D02*
X87661714Y-110545524D01*
X87590286Y-110640762D01*
X87447428Y-110688381D01*
X87233143Y-110688381D01*
X87090286Y-110640762D01*
X87018857Y-110593143D01*
X86304571Y-110021714D02*
X86304571Y-110688381D01*
X86304571Y-110116952D02*
X86233143Y-110069333D01*
X86090285Y-110021714D01*
X85876000Y-110021714D01*
X85733143Y-110069333D01*
X85661714Y-110164571D01*
X85661714Y-110688381D01*
X84304571Y-110640762D02*
X84447428Y-110688381D01*
X84733142Y-110688381D01*
X84876000Y-110640762D01*
X84947428Y-110593143D01*
X85018857Y-110497905D01*
X85018857Y-110212190D01*
X84947428Y-110116952D01*
X84876000Y-110069333D01*
X84733142Y-110021714D01*
X84447428Y-110021714D01*
X84304571Y-110069333D01*
X83090286Y-110640762D02*
X83233143Y-110688381D01*
X83518857Y-110688381D01*
X83661714Y-110640762D01*
X83733143Y-110545524D01*
X83733143Y-110164571D01*
X83661714Y-110069333D01*
X83518857Y-110021714D01*
X83233143Y-110021714D01*
X83090286Y-110069333D01*
X83018857Y-110164571D01*
X83018857Y-110259810D01*
X83733143Y-110355048D01*
X81233143Y-110688381D02*
X81233143Y-109688381D01*
X80661715Y-109688381D01*
X80518857Y-109736000D01*
X80447429Y-109783619D01*
X80376000Y-109878857D01*
X80376000Y-110021714D01*
X80447429Y-110116952D01*
X80518857Y-110164571D01*
X80661715Y-110212190D01*
X81233143Y-110212190D01*
X78876000Y-110593143D02*
X78947429Y-110640762D01*
X79161715Y-110688381D01*
X79304572Y-110688381D01*
X79518857Y-110640762D01*
X79661715Y-110545524D01*
X79733143Y-110450286D01*
X79804572Y-110259810D01*
X79804572Y-110116952D01*
X79733143Y-109926476D01*
X79661715Y-109831238D01*
X79518857Y-109736000D01*
X79304572Y-109688381D01*
X79161715Y-109688381D01*
X78947429Y-109736000D01*
X78876000Y-109783619D01*
X77733143Y-110164571D02*
X77518857Y-110212190D01*
X77447429Y-110259810D01*
X77376000Y-110355048D01*
X77376000Y-110497905D01*
X77447429Y-110593143D01*
X77518857Y-110640762D01*
X77661715Y-110688381D01*
X78233143Y-110688381D01*
X78233143Y-109688381D01*
X77733143Y-109688381D01*
X77590286Y-109736000D01*
X77518857Y-109783619D01*
X77447429Y-109878857D01*
X77447429Y-109974095D01*
X77518857Y-110069333D01*
X77590286Y-110116952D01*
X77733143Y-110164571D01*
X78233143Y-110164571D01*
D12*
X142494000Y-130690000D03*
X142494000Y-115690000D03*
X113284000Y-130690000D03*
X113284000Y-115690000D03*
X119126000Y-130690000D03*
X119126000Y-115690000D03*
X124968000Y-130690000D03*
X124968000Y-115690000D03*
X130810000Y-130690000D03*
X130810000Y-115690000D03*
X136652000Y-130690000D03*
X136652000Y-115690000D03*
D13*
X104140000Y-115824000D03*
X93980000Y-115824000D03*
X104140000Y-128524000D03*
X93980000Y-128524000D03*
X104140000Y-118364000D03*
X93980000Y-118364000D03*
X104140000Y-120904000D03*
X93980000Y-120904000D03*
X104140000Y-123444000D03*
X93980000Y-123444000D03*
X104140000Y-125984000D03*
X93980000Y-125984000D03*
D14*
X142494000Y-111506000D03*
D15*
X142494000Y-109506000D03*
D14*
X119126000Y-111506000D03*
D15*
X119126000Y-109506000D03*
D14*
X124968000Y-111506000D03*
D15*
X124968000Y-109506000D03*
D14*
X130810000Y-111506000D03*
D15*
X130810000Y-109506000D03*
D14*
X136652000Y-111506000D03*
D15*
X136652000Y-109506000D03*
D14*
X113284000Y-111506000D03*
D15*
X113284000Y-109506000D03*
D16*
X90424000Y-115824000D03*
D17*
X90424000Y-118364000D03*
X90424000Y-120904000D03*
X90424000Y-123444000D03*
X90424000Y-125984000D03*
X90424000Y-128524000D03*
D16*
X86614000Y-128524000D03*
D17*
X86614000Y-125984000D03*
X86614000Y-123444000D03*
X86614000Y-120904000D03*
X86614000Y-118364000D03*
X86614000Y-115824000D03*
D16*
X107950000Y-113284000D03*
D17*
X107950000Y-115824000D03*
X107950000Y-118364000D03*
X107950000Y-120904000D03*
X107950000Y-123444000D03*
X107950000Y-125984000D03*
X107950000Y-128524000D03*
X107950000Y-131064000D03*
D18*
X124968000Y-130690000D02*
X130810000Y-130690000D01*
X119126000Y-130690000D02*
X124968000Y-130690000D01*
X119126000Y-130690000D02*
X113284000Y-130690000D01*
X136652000Y-130690000D02*
X130810000Y-130690000D01*
X142494000Y-130690000D02*
X136652000Y-130690000D01*
X107950000Y-131064000D02*
X112910000Y-131064000D01*
X112910000Y-131064000D02*
X113284000Y-130690000D01*
X107950000Y-118364000D02*
X104140000Y-118364000D01*
X119126000Y-111506000D02*
X119126000Y-115690000D01*
X107950000Y-118364000D02*
X116452000Y-118364000D01*
X116452000Y-118364000D02*
X119126000Y-115690000D01*
X104140000Y-120904000D02*
X107950000Y-120904000D01*
X124968000Y-111506000D02*
X124968000Y-115690000D01*
X107950000Y-120904000D02*
X119754000Y-120904000D01*
X119754000Y-120904000D02*
X124968000Y-115690000D01*
X107950000Y-128524000D02*
X109728000Y-128524000D01*
X130422000Y-127762000D02*
X142494000Y-115690000D01*
X110490000Y-127762000D02*
X130422000Y-127762000D01*
X109728000Y-128524000D02*
X110490000Y-127762000D01*
X104140000Y-128524000D02*
X107950000Y-128524000D01*
X142494000Y-111506000D02*
X142494000Y-115690000D01*
X113284000Y-111506000D02*
X113284000Y-115690000D01*
X107950000Y-115824000D02*
X104140000Y-115824000D01*
X113284000Y-115690000D02*
X108084000Y-115690000D01*
X108084000Y-115690000D02*
X107950000Y-115824000D01*
X104140000Y-123444000D02*
X107950000Y-123444000D01*
X130810000Y-111506000D02*
X130810000Y-115690000D01*
X104140000Y-123444000D02*
X104648000Y-123444000D01*
X107950000Y-123444000D02*
X123056000Y-123444000D01*
X123056000Y-123444000D02*
X130810000Y-115690000D01*
X104140000Y-125984000D02*
X107950000Y-125984000D01*
X136652000Y-111506000D02*
X136652000Y-115690000D01*
X107950000Y-125984000D02*
X126358000Y-125984000D01*
X126358000Y-125984000D02*
X136652000Y-115690000D01*
X90424000Y-115824000D02*
X93980000Y-115824000D01*
X93980000Y-118364000D02*
X90424000Y-118364000D01*
X93980000Y-118364000D02*
X93472000Y-118364000D01*
X90424000Y-120904000D02*
X93980000Y-120904000D01*
X93980000Y-123444000D02*
X90424000Y-123444000D01*
X93726000Y-123190000D02*
X93980000Y-123444000D01*
X90424000Y-125984000D02*
X93980000Y-125984000D01*
X93980000Y-128524000D02*
X90424000Y-128524000D01*
D19*
G36*
X151742000Y-132946000D02*
X76858000Y-132946000D01*
X76858000Y-128748750D01*
X85415000Y-128748750D01*
X85415000Y-129576401D01*
X85442860Y-129643661D01*
X85494339Y-129695140D01*
X85561599Y-129723000D01*
X86389250Y-129723000D01*
X86435000Y-129677250D01*
X86435000Y-128703000D01*
X86793000Y-128703000D01*
X86793000Y-129677250D01*
X86838750Y-129723000D01*
X87666401Y-129723000D01*
X87733661Y-129695140D01*
X87785140Y-129643661D01*
X87813000Y-129576401D01*
X87813000Y-128748750D01*
X87767250Y-128703000D01*
X86793000Y-128703000D01*
X86435000Y-128703000D01*
X85460750Y-128703000D01*
X85415000Y-128748750D01*
X76858000Y-128748750D01*
X76858000Y-127471599D01*
X85415000Y-127471599D01*
X85415000Y-128299250D01*
X85460750Y-128345000D01*
X86435000Y-128345000D01*
X86435000Y-127370750D01*
X86793000Y-127370750D01*
X86793000Y-128345000D01*
X87767250Y-128345000D01*
X87813000Y-128299250D01*
X87813000Y-127471599D01*
X87785140Y-127404339D01*
X87733661Y-127352860D01*
X87666401Y-127325000D01*
X86838750Y-127325000D01*
X86793000Y-127370750D01*
X86435000Y-127370750D01*
X86389250Y-127325000D01*
X85561599Y-127325000D01*
X85494339Y-127352860D01*
X85442860Y-127404339D01*
X85415000Y-127471599D01*
X76858000Y-127471599D01*
X76858000Y-126932970D01*
X85918174Y-126932970D01*
X86047997Y-127067570D01*
X86505745Y-127201688D01*
X86979975Y-127150424D01*
X87180003Y-127067570D01*
X87309826Y-126932970D01*
X86614000Y-126237144D01*
X85918174Y-126932970D01*
X76858000Y-126932970D01*
X76858000Y-125875745D01*
X85396312Y-125875745D01*
X85447576Y-126349975D01*
X85530430Y-126550003D01*
X85665030Y-126679826D01*
X86360856Y-125984000D01*
X86867144Y-125984000D01*
X87562970Y-126679826D01*
X87697570Y-126550003D01*
X87831688Y-126092255D01*
X87780424Y-125618025D01*
X87697570Y-125417997D01*
X87562970Y-125288174D01*
X86867144Y-125984000D01*
X86360856Y-125984000D01*
X85665030Y-125288174D01*
X85530430Y-125417997D01*
X85396312Y-125875745D01*
X76858000Y-125875745D01*
X76858000Y-125035030D01*
X85918174Y-125035030D01*
X86614000Y-125730856D01*
X87309826Y-125035030D01*
X87180003Y-124900430D01*
X86722255Y-124766312D01*
X86248025Y-124817576D01*
X86047997Y-124900430D01*
X85918174Y-125035030D01*
X76858000Y-125035030D01*
X76858000Y-124392970D01*
X85918174Y-124392970D01*
X86047997Y-124527570D01*
X86505745Y-124661688D01*
X86979975Y-124610424D01*
X87180003Y-124527570D01*
X87309826Y-124392970D01*
X86614000Y-123697144D01*
X85918174Y-124392970D01*
X76858000Y-124392970D01*
X76858000Y-121824516D01*
X78434640Y-121824516D01*
X78751089Y-122590383D01*
X79336535Y-123176851D01*
X80101848Y-123494637D01*
X80930516Y-123495360D01*
X81316814Y-123335745D01*
X85396312Y-123335745D01*
X85447576Y-123809975D01*
X85530430Y-124010003D01*
X85665030Y-124139826D01*
X86360856Y-123444000D01*
X86867144Y-123444000D01*
X87562970Y-124139826D01*
X87697570Y-124010003D01*
X87831688Y-123552255D01*
X87780424Y-123078025D01*
X87697570Y-122877997D01*
X87562970Y-122748174D01*
X86867144Y-123444000D01*
X86360856Y-123444000D01*
X85665030Y-122748174D01*
X85530430Y-122877997D01*
X85396312Y-123335745D01*
X81316814Y-123335745D01*
X81696383Y-123178911D01*
X82282851Y-122593465D01*
X82323724Y-122495030D01*
X85918174Y-122495030D01*
X86614000Y-123190856D01*
X87309826Y-122495030D01*
X87180003Y-122360430D01*
X86722255Y-122226312D01*
X86248025Y-122277576D01*
X86047997Y-122360430D01*
X85918174Y-122495030D01*
X82323724Y-122495030D01*
X82590331Y-121852970D01*
X85918174Y-121852970D01*
X86047997Y-121987570D01*
X86505745Y-122121688D01*
X86979975Y-122070424D01*
X87180003Y-121987570D01*
X87309826Y-121852970D01*
X86614000Y-121157144D01*
X85918174Y-121852970D01*
X82590331Y-121852970D01*
X82600637Y-121828152D01*
X82601360Y-120999484D01*
X82517177Y-120795745D01*
X85396312Y-120795745D01*
X85447576Y-121269975D01*
X85530430Y-121470003D01*
X85665030Y-121599826D01*
X86360856Y-120904000D01*
X86867144Y-120904000D01*
X87562970Y-121599826D01*
X87697570Y-121470003D01*
X87831688Y-121012255D01*
X87780424Y-120538025D01*
X87697570Y-120337997D01*
X87562970Y-120208174D01*
X86867144Y-120904000D01*
X86360856Y-120904000D01*
X85665030Y-120208174D01*
X85530430Y-120337997D01*
X85396312Y-120795745D01*
X82517177Y-120795745D01*
X82284911Y-120233617D01*
X82006810Y-119955030D01*
X85918174Y-119955030D01*
X86614000Y-120650856D01*
X87309826Y-119955030D01*
X87180003Y-119820430D01*
X86722255Y-119686312D01*
X86248025Y-119737576D01*
X86047997Y-119820430D01*
X85918174Y-119955030D01*
X82006810Y-119955030D01*
X81699465Y-119647149D01*
X80934152Y-119329363D01*
X80105484Y-119328640D01*
X79339617Y-119645089D01*
X78753149Y-120230535D01*
X78435363Y-120995848D01*
X78434640Y-121824516D01*
X76858000Y-121824516D01*
X76858000Y-119312970D01*
X85918174Y-119312970D01*
X86047997Y-119447570D01*
X86505745Y-119581688D01*
X86979975Y-119530424D01*
X87180003Y-119447570D01*
X87309826Y-119312970D01*
X86614000Y-118617144D01*
X85918174Y-119312970D01*
X76858000Y-119312970D01*
X76858000Y-118255745D01*
X85396312Y-118255745D01*
X85447576Y-118729975D01*
X85530430Y-118930003D01*
X85665030Y-119059826D01*
X86360856Y-118364000D01*
X86867144Y-118364000D01*
X87562970Y-119059826D01*
X87697570Y-118930003D01*
X87831688Y-118472255D01*
X87780424Y-117998025D01*
X87697570Y-117797997D01*
X87562970Y-117668174D01*
X86867144Y-118364000D01*
X86360856Y-118364000D01*
X85665030Y-117668174D01*
X85530430Y-117797997D01*
X85396312Y-118255745D01*
X76858000Y-118255745D01*
X76858000Y-117415030D01*
X85918174Y-117415030D01*
X86614000Y-118110856D01*
X87309826Y-117415030D01*
X87180003Y-117280430D01*
X86722255Y-117146312D01*
X86248025Y-117197576D01*
X86047997Y-117280430D01*
X85918174Y-117415030D01*
X76858000Y-117415030D01*
X76858000Y-116772970D01*
X85918174Y-116772970D01*
X86047997Y-116907570D01*
X86505745Y-117041688D01*
X86979975Y-116990424D01*
X87180003Y-116907570D01*
X87309826Y-116772970D01*
X86614000Y-116077144D01*
X85918174Y-116772970D01*
X76858000Y-116772970D01*
X76858000Y-115715745D01*
X85396312Y-115715745D01*
X85447576Y-116189975D01*
X85530430Y-116390003D01*
X85665030Y-116519826D01*
X86360856Y-115824000D01*
X86867144Y-115824000D01*
X87562970Y-116519826D01*
X87697570Y-116390003D01*
X87831688Y-115932255D01*
X87780424Y-115458025D01*
X87697570Y-115257997D01*
X87562970Y-115128174D01*
X86867144Y-115824000D01*
X86360856Y-115824000D01*
X85665030Y-115128174D01*
X85530430Y-115257997D01*
X85396312Y-115715745D01*
X76858000Y-115715745D01*
X76858000Y-114875030D01*
X85918174Y-114875030D01*
X86614000Y-115570856D01*
X87309826Y-114875030D01*
X87245175Y-114808000D01*
X88813579Y-114808000D01*
X88813579Y-116840000D01*
X88858827Y-117067475D01*
X88987681Y-117260319D01*
X89154588Y-117371842D01*
X89069224Y-117457057D01*
X88825278Y-118044544D01*
X88824723Y-118680665D01*
X89067644Y-119268577D01*
X89432672Y-119634243D01*
X89069224Y-119997057D01*
X88825278Y-120584544D01*
X88824723Y-121220665D01*
X89067644Y-121808577D01*
X89432672Y-122174243D01*
X89069224Y-122537057D01*
X88825278Y-123124544D01*
X88824723Y-123760665D01*
X89067644Y-124348577D01*
X89432672Y-124714243D01*
X89069224Y-125077057D01*
X88825278Y-125664544D01*
X88824723Y-126300665D01*
X89067644Y-126888577D01*
X89432672Y-127254243D01*
X89069224Y-127617057D01*
X88825278Y-128204544D01*
X88824723Y-128840665D01*
X89067644Y-129428577D01*
X89517057Y-129878776D01*
X90104544Y-130122722D01*
X90740665Y-130123277D01*
X91328577Y-129880356D01*
X91652499Y-129557000D01*
X92775170Y-129557000D01*
X93082421Y-129864788D01*
X93663842Y-130106215D01*
X94293396Y-130106764D01*
X94875238Y-129866352D01*
X95320788Y-129421579D01*
X95562215Y-128840158D01*
X95562764Y-128210604D01*
X95322352Y-127628762D01*
X94947980Y-127253736D01*
X95320788Y-126881579D01*
X95562215Y-126300158D01*
X95562764Y-125670604D01*
X95322352Y-125088762D01*
X94947980Y-124713736D01*
X95320788Y-124341579D01*
X95562215Y-123760158D01*
X95562764Y-123130604D01*
X95322352Y-122548762D01*
X94947980Y-122173736D01*
X95320788Y-121801579D01*
X95562215Y-121220158D01*
X95562764Y-120590604D01*
X95322352Y-120008762D01*
X94947980Y-119633736D01*
X95320788Y-119261579D01*
X95562215Y-118680158D01*
X95562764Y-118050604D01*
X95322352Y-117468762D01*
X94947980Y-117093736D01*
X95320788Y-116721579D01*
X95562215Y-116140158D01*
X95562217Y-116137396D01*
X102557236Y-116137396D01*
X102797648Y-116719238D01*
X103172020Y-117094264D01*
X102799212Y-117466421D01*
X102557785Y-118047842D01*
X102557236Y-118677396D01*
X102797648Y-119259238D01*
X103172020Y-119634264D01*
X102799212Y-120006421D01*
X102557785Y-120587842D01*
X102557236Y-121217396D01*
X102797648Y-121799238D01*
X103172020Y-122174264D01*
X102799212Y-122546421D01*
X102557785Y-123127842D01*
X102557236Y-123757396D01*
X102797648Y-124339238D01*
X103172020Y-124714264D01*
X102799212Y-125086421D01*
X102557785Y-125667842D01*
X102557236Y-126297396D01*
X102797648Y-126879238D01*
X103172020Y-127254264D01*
X102799212Y-127626421D01*
X102557785Y-128207842D01*
X102557236Y-128837396D01*
X102797648Y-129419238D01*
X103242421Y-129864788D01*
X103823842Y-130106215D01*
X104453396Y-130106764D01*
X105035238Y-129866352D01*
X105345130Y-129557000D01*
X106721843Y-129557000D01*
X106958672Y-129794243D01*
X106595224Y-130157057D01*
X106351278Y-130744544D01*
X106350723Y-131380665D01*
X106593644Y-131968577D01*
X107043057Y-132418776D01*
X107630544Y-132662722D01*
X108266665Y-132663277D01*
X108854577Y-132420356D01*
X109178499Y-132097000D01*
X112098552Y-132097000D01*
X112244333Y-132243036D01*
X112917794Y-132522682D01*
X113647007Y-132523318D01*
X114320955Y-132244848D01*
X114837036Y-131729667D01*
X114839804Y-131723000D01*
X117569518Y-131723000D01*
X117571152Y-131726955D01*
X118086333Y-132243036D01*
X118759794Y-132522682D01*
X119489007Y-132523318D01*
X120162955Y-132244848D01*
X120679036Y-131729667D01*
X120681804Y-131723000D01*
X123411518Y-131723000D01*
X123413152Y-131726955D01*
X123928333Y-132243036D01*
X124601794Y-132522682D01*
X125331007Y-132523318D01*
X126004955Y-132244848D01*
X126521036Y-131729667D01*
X126523804Y-131723000D01*
X129253518Y-131723000D01*
X129255152Y-131726955D01*
X129770333Y-132243036D01*
X130443794Y-132522682D01*
X131173007Y-132523318D01*
X131846955Y-132244848D01*
X132363036Y-131729667D01*
X132365804Y-131723000D01*
X135095518Y-131723000D01*
X135097152Y-131726955D01*
X135612333Y-132243036D01*
X136285794Y-132522682D01*
X137015007Y-132523318D01*
X137688955Y-132244848D01*
X138205036Y-131729667D01*
X138207804Y-131723000D01*
X140937518Y-131723000D01*
X140939152Y-131726955D01*
X141454333Y-132243036D01*
X142127794Y-132522682D01*
X142857007Y-132523318D01*
X143530955Y-132244848D01*
X144047036Y-131729667D01*
X144326682Y-131056206D01*
X144327318Y-130326993D01*
X144048848Y-129653045D01*
X143533667Y-129136964D01*
X142860206Y-128857318D01*
X142130993Y-128856682D01*
X141457045Y-129135152D01*
X140940964Y-129650333D01*
X140938196Y-129657000D01*
X138208482Y-129657000D01*
X138206848Y-129653045D01*
X137691667Y-129136964D01*
X137018206Y-128857318D01*
X136288993Y-128856682D01*
X135615045Y-129135152D01*
X135098964Y-129650333D01*
X135096196Y-129657000D01*
X132366482Y-129657000D01*
X132364848Y-129653045D01*
X131849667Y-129136964D01*
X131176206Y-128857318D01*
X130625487Y-128856838D01*
X130512200Y-128777058D01*
X130817312Y-128716368D01*
X131152441Y-128492441D01*
X137820366Y-121824516D01*
X146252640Y-121824516D01*
X146569089Y-122590383D01*
X147154535Y-123176851D01*
X147919848Y-123494637D01*
X148748516Y-123495360D01*
X149514383Y-123178911D01*
X150100851Y-122593465D01*
X150418637Y-121828152D01*
X150419360Y-120999484D01*
X150102911Y-120233617D01*
X149517465Y-119647149D01*
X148752152Y-119329363D01*
X147923484Y-119328640D01*
X147157617Y-119645089D01*
X146571149Y-120230535D01*
X146253363Y-120995848D01*
X146252640Y-121824516D01*
X137820366Y-121824516D01*
X142123841Y-117521041D01*
X142127794Y-117522682D01*
X142857007Y-117523318D01*
X143530955Y-117244848D01*
X144047036Y-116729667D01*
X144326682Y-116056206D01*
X144327318Y-115326993D01*
X144048848Y-114653045D01*
X143533667Y-114136964D01*
X143527000Y-114134196D01*
X143527000Y-112809020D01*
X143571475Y-112800173D01*
X143764319Y-112671319D01*
X143893173Y-112478475D01*
X143938421Y-112251000D01*
X143938421Y-110761000D01*
X143893173Y-110533525D01*
X143764319Y-110340681D01*
X143571475Y-110211827D01*
X143511985Y-110199994D01*
X143720361Y-109825241D01*
X143712900Y-109685000D01*
X142673000Y-109685000D01*
X142673000Y-109705000D01*
X142315000Y-109705000D01*
X142315000Y-109685000D01*
X141275100Y-109685000D01*
X141267639Y-109825241D01*
X141476015Y-110199994D01*
X141416525Y-110211827D01*
X141223681Y-110340681D01*
X141094827Y-110533525D01*
X141049579Y-110761000D01*
X141049579Y-112251000D01*
X141094827Y-112478475D01*
X141223681Y-112671319D01*
X141416525Y-112800173D01*
X141461000Y-112809020D01*
X141461000Y-114133518D01*
X141457045Y-114135152D01*
X140940964Y-114650333D01*
X140661318Y-115323794D01*
X140660682Y-116053007D01*
X140663439Y-116059679D01*
X129994118Y-126729000D01*
X127603957Y-126729000D01*
X127292921Y-126509961D01*
X136281842Y-117521041D01*
X136285794Y-117522682D01*
X137015007Y-117523318D01*
X137688955Y-117244848D01*
X138205036Y-116729667D01*
X138484682Y-116056206D01*
X138485318Y-115326993D01*
X138206848Y-114653045D01*
X137691667Y-114136964D01*
X137685000Y-114134196D01*
X137685000Y-112809020D01*
X137729475Y-112800173D01*
X137922319Y-112671319D01*
X138051173Y-112478475D01*
X138096421Y-112251000D01*
X138096421Y-110761000D01*
X138051173Y-110533525D01*
X137922319Y-110340681D01*
X137729475Y-110211827D01*
X137669985Y-110199994D01*
X137878361Y-109825241D01*
X137870900Y-109685000D01*
X136831000Y-109685000D01*
X136831000Y-109705000D01*
X136473000Y-109705000D01*
X136473000Y-109685000D01*
X135433100Y-109685000D01*
X135425639Y-109825241D01*
X135634015Y-110199994D01*
X135574525Y-110211827D01*
X135381681Y-110340681D01*
X135252827Y-110533525D01*
X135207579Y-110761000D01*
X135207579Y-112251000D01*
X135252827Y-112478475D01*
X135381681Y-112671319D01*
X135574525Y-112800173D01*
X135619000Y-112809020D01*
X135619000Y-114133518D01*
X135615045Y-114135152D01*
X135098964Y-114650333D01*
X134819318Y-115323794D01*
X134818682Y-116053007D01*
X134821439Y-116059678D01*
X125930118Y-124951000D01*
X125079197Y-124951000D01*
X123864971Y-124095911D01*
X130439841Y-117521041D01*
X130443794Y-117522682D01*
X131173007Y-117523318D01*
X131846955Y-117244848D01*
X132363036Y-116729667D01*
X132642682Y-116056206D01*
X132643318Y-115326993D01*
X132364848Y-114653045D01*
X131849667Y-114136964D01*
X131843000Y-114134196D01*
X131843000Y-112809020D01*
X131887475Y-112800173D01*
X132080319Y-112671319D01*
X132209173Y-112478475D01*
X132254421Y-112251000D01*
X132254421Y-110761000D01*
X132209173Y-110533525D01*
X132080319Y-110340681D01*
X131887475Y-110211827D01*
X131827985Y-110199994D01*
X132036361Y-109825241D01*
X132028900Y-109685000D01*
X130989000Y-109685000D01*
X130989000Y-109705000D01*
X130631000Y-109705000D01*
X130631000Y-109685000D01*
X129591100Y-109685000D01*
X129583639Y-109825241D01*
X129792015Y-110199994D01*
X129732525Y-110211827D01*
X129539681Y-110340681D01*
X129410827Y-110533525D01*
X129365579Y-110761000D01*
X129365579Y-112251000D01*
X129410827Y-112478475D01*
X129539681Y-112671319D01*
X129732525Y-112800173D01*
X129777000Y-112809020D01*
X129777000Y-114133518D01*
X129773045Y-114135152D01*
X129256964Y-114650333D01*
X128977318Y-115323794D01*
X128976682Y-116053007D01*
X128979439Y-116059679D01*
X122628118Y-122411000D01*
X121472397Y-122411000D01*
X120425555Y-121673787D01*
X120484441Y-121634441D01*
X124597842Y-117521041D01*
X124601794Y-117522682D01*
X125331007Y-117523318D01*
X126004955Y-117244848D01*
X126521036Y-116729667D01*
X126800682Y-116056206D01*
X126801318Y-115326993D01*
X126522848Y-114653045D01*
X126007667Y-114136964D01*
X126001000Y-114134196D01*
X126001000Y-112809020D01*
X126045475Y-112800173D01*
X126238319Y-112671319D01*
X126367173Y-112478475D01*
X126412421Y-112251000D01*
X126412421Y-110761000D01*
X126367173Y-110533525D01*
X126238319Y-110340681D01*
X126045475Y-110211827D01*
X125985985Y-110199994D01*
X126194361Y-109825241D01*
X126186900Y-109685000D01*
X125147000Y-109685000D01*
X125147000Y-109705000D01*
X124789000Y-109705000D01*
X124789000Y-109685000D01*
X123749100Y-109685000D01*
X123741639Y-109825241D01*
X123950015Y-110199994D01*
X123890525Y-110211827D01*
X123697681Y-110340681D01*
X123568827Y-110533525D01*
X123523579Y-110761000D01*
X123523579Y-112251000D01*
X123568827Y-112478475D01*
X123697681Y-112671319D01*
X123890525Y-112800173D01*
X123935000Y-112809020D01*
X123935000Y-114133518D01*
X123931045Y-114135152D01*
X123414964Y-114650333D01*
X123135318Y-115323794D01*
X123134682Y-116053007D01*
X123137439Y-116059679D01*
X119326118Y-119871000D01*
X117865597Y-119871000D01*
X116967153Y-119238293D01*
X117182441Y-119094441D01*
X118755841Y-117521041D01*
X118759794Y-117522682D01*
X119489007Y-117523318D01*
X120162955Y-117244848D01*
X120679036Y-116729667D01*
X120958682Y-116056206D01*
X120959318Y-115326993D01*
X120680848Y-114653045D01*
X120165667Y-114136964D01*
X120159000Y-114134196D01*
X120159000Y-112809020D01*
X120203475Y-112800173D01*
X120396319Y-112671319D01*
X120525173Y-112478475D01*
X120570421Y-112251000D01*
X120570421Y-110761000D01*
X120525173Y-110533525D01*
X120396319Y-110340681D01*
X120203475Y-110211827D01*
X120143985Y-110199994D01*
X120352361Y-109825241D01*
X120344900Y-109685000D01*
X119305000Y-109685000D01*
X119305000Y-109705000D01*
X118947000Y-109705000D01*
X118947000Y-109685000D01*
X117907100Y-109685000D01*
X117899639Y-109825241D01*
X118108015Y-110199994D01*
X118048525Y-110211827D01*
X117855681Y-110340681D01*
X117726827Y-110533525D01*
X117681579Y-110761000D01*
X117681579Y-112251000D01*
X117726827Y-112478475D01*
X117855681Y-112671319D01*
X118048525Y-112800173D01*
X118093000Y-112809020D01*
X118093000Y-114133518D01*
X118089045Y-114135152D01*
X117572964Y-114650333D01*
X117293318Y-115323794D01*
X117292682Y-116053007D01*
X117295439Y-116059679D01*
X116024118Y-117331000D01*
X114258797Y-117331000D01*
X114204682Y-117292891D01*
X114320955Y-117244848D01*
X114837036Y-116729667D01*
X115116682Y-116056206D01*
X115117318Y-115326993D01*
X114838848Y-114653045D01*
X114323667Y-114136964D01*
X114317000Y-114134196D01*
X114317000Y-112809020D01*
X114361475Y-112800173D01*
X114554319Y-112671319D01*
X114683173Y-112478475D01*
X114728421Y-112251000D01*
X114728421Y-110761000D01*
X114683173Y-110533525D01*
X114554319Y-110340681D01*
X114361475Y-110211827D01*
X114301985Y-110199994D01*
X114510361Y-109825241D01*
X114502900Y-109685000D01*
X113463000Y-109685000D01*
X113463000Y-109705000D01*
X113105000Y-109705000D01*
X113105000Y-109685000D01*
X112065100Y-109685000D01*
X112057639Y-109825241D01*
X112266015Y-110199994D01*
X112206525Y-110211827D01*
X112013681Y-110340681D01*
X111884827Y-110533525D01*
X111839579Y-110761000D01*
X111839579Y-112251000D01*
X111884827Y-112478475D01*
X112013681Y-112671319D01*
X112206525Y-112800173D01*
X112251000Y-112809020D01*
X112251000Y-114133518D01*
X112247045Y-114135152D01*
X111730964Y-114650333D01*
X111728196Y-114657000D01*
X109044391Y-114657000D01*
X108870695Y-114483000D01*
X109002401Y-114483000D01*
X109069661Y-114455140D01*
X109121140Y-114403661D01*
X109149000Y-114336401D01*
X109149000Y-113508750D01*
X109103250Y-113463000D01*
X108129000Y-113463000D01*
X108129000Y-113483000D01*
X107771000Y-113483000D01*
X107771000Y-113463000D01*
X106796750Y-113463000D01*
X106751000Y-113508750D01*
X106751000Y-114336401D01*
X106778860Y-114403661D01*
X106830339Y-114455140D01*
X106897599Y-114483000D01*
X107030040Y-114483000D01*
X106721501Y-114791000D01*
X105344830Y-114791000D01*
X105037579Y-114483212D01*
X104456158Y-114241785D01*
X103826604Y-114241236D01*
X103244762Y-114481648D01*
X102799212Y-114926421D01*
X102557785Y-115507842D01*
X102557236Y-116137396D01*
X95562217Y-116137396D01*
X95562764Y-115510604D01*
X95322352Y-114928762D01*
X94877579Y-114483212D01*
X94296158Y-114241785D01*
X93666604Y-114241236D01*
X93084762Y-114481648D01*
X92774870Y-114791000D01*
X92031039Y-114791000D01*
X91989173Y-114580525D01*
X91860319Y-114387681D01*
X91667475Y-114258827D01*
X91440000Y-114213579D01*
X89408000Y-114213579D01*
X89180525Y-114258827D01*
X88987681Y-114387681D01*
X88858827Y-114580525D01*
X88813579Y-114808000D01*
X87245175Y-114808000D01*
X87180003Y-114740430D01*
X86722255Y-114606312D01*
X86248025Y-114657576D01*
X86047997Y-114740430D01*
X85918174Y-114875030D01*
X76858000Y-114875030D01*
X76858000Y-112231599D01*
X106751000Y-112231599D01*
X106751000Y-113059250D01*
X106796750Y-113105000D01*
X107771000Y-113105000D01*
X107771000Y-112130750D01*
X108129000Y-112130750D01*
X108129000Y-113105000D01*
X109103250Y-113105000D01*
X109149000Y-113059250D01*
X109149000Y-112231599D01*
X109121140Y-112164339D01*
X109069661Y-112112860D01*
X109002401Y-112085000D01*
X108174750Y-112085000D01*
X108129000Y-112130750D01*
X107771000Y-112130750D01*
X107725250Y-112085000D01*
X106897599Y-112085000D01*
X106830339Y-112112860D01*
X106778860Y-112164339D01*
X106751000Y-112231599D01*
X76858000Y-112231599D01*
X76858000Y-111619000D01*
X98344714Y-111619000D01*
X98344714Y-109186759D01*
X112057639Y-109186759D01*
X112065100Y-109327000D01*
X113105000Y-109327000D01*
X113105000Y-108606949D01*
X113463000Y-108606949D01*
X113463000Y-109327000D01*
X114502900Y-109327000D01*
X114510361Y-109186759D01*
X117899639Y-109186759D01*
X117907100Y-109327000D01*
X118947000Y-109327000D01*
X118947000Y-108606949D01*
X119305000Y-108606949D01*
X119305000Y-109327000D01*
X120344900Y-109327000D01*
X120352361Y-109186759D01*
X123741639Y-109186759D01*
X123749100Y-109327000D01*
X124789000Y-109327000D01*
X124789000Y-108606949D01*
X125147000Y-108606949D01*
X125147000Y-109327000D01*
X126186900Y-109327000D01*
X126194361Y-109186759D01*
X129583639Y-109186759D01*
X129591100Y-109327000D01*
X130631000Y-109327000D01*
X130631000Y-108606949D01*
X130989000Y-108606949D01*
X130989000Y-109327000D01*
X132028900Y-109327000D01*
X132036361Y-109186759D01*
X135425639Y-109186759D01*
X135433100Y-109327000D01*
X136473000Y-109327000D01*
X136473000Y-108606949D01*
X136831000Y-108606949D01*
X136831000Y-109327000D01*
X137870900Y-109327000D01*
X137878361Y-109186759D01*
X141267639Y-109186759D01*
X141275100Y-109327000D01*
X142315000Y-109327000D01*
X142315000Y-108606949D01*
X142673000Y-108606949D01*
X142673000Y-109327000D01*
X143712900Y-109327000D01*
X143720361Y-109186759D01*
X143509909Y-108808273D01*
X143192592Y-108608465D01*
X142822966Y-108545299D01*
X142673000Y-108606949D01*
X142315000Y-108606949D01*
X142165034Y-108545299D01*
X141795408Y-108608465D01*
X141478091Y-108808273D01*
X141267639Y-109186759D01*
X137878361Y-109186759D01*
X137667909Y-108808273D01*
X137350592Y-108608465D01*
X136980966Y-108545299D01*
X136831000Y-108606949D01*
X136473000Y-108606949D01*
X136323034Y-108545299D01*
X135953408Y-108608465D01*
X135636091Y-108808273D01*
X135425639Y-109186759D01*
X132036361Y-109186759D01*
X131825909Y-108808273D01*
X131508592Y-108608465D01*
X131138966Y-108545299D01*
X130989000Y-108606949D01*
X130631000Y-108606949D01*
X130481034Y-108545299D01*
X130111408Y-108608465D01*
X129794091Y-108808273D01*
X129583639Y-109186759D01*
X126194361Y-109186759D01*
X125983909Y-108808273D01*
X125666592Y-108608465D01*
X125296966Y-108545299D01*
X125147000Y-108606949D01*
X124789000Y-108606949D01*
X124639034Y-108545299D01*
X124269408Y-108608465D01*
X123952091Y-108808273D01*
X123741639Y-109186759D01*
X120352361Y-109186759D01*
X120141909Y-108808273D01*
X119824592Y-108608465D01*
X119454966Y-108545299D01*
X119305000Y-108606949D01*
X118947000Y-108606949D01*
X118797034Y-108545299D01*
X118427408Y-108608465D01*
X118110091Y-108808273D01*
X117899639Y-109186759D01*
X114510361Y-109186759D01*
X114299909Y-108808273D01*
X113982592Y-108608465D01*
X113612966Y-108545299D01*
X113463000Y-108606949D01*
X113105000Y-108606949D01*
X112955034Y-108545299D01*
X112585408Y-108608465D01*
X112268091Y-108808273D01*
X112057639Y-109186759D01*
X98344714Y-109186759D01*
X98344714Y-108653000D01*
X76858000Y-108653000D01*
X76858000Y-107592000D01*
X151742000Y-107592000D01*
X151742000Y-132946000D01*
X151742000Y-132946000D01*
G37*
X151742000Y-132946000D02*
X76858000Y-132946000D01*
X76858000Y-128748750D01*
X85415000Y-128748750D01*
X85415000Y-129576401D01*
X85442860Y-129643661D01*
X85494339Y-129695140D01*
X85561599Y-129723000D01*
X86389250Y-129723000D01*
X86435000Y-129677250D01*
X86435000Y-128703000D01*
X86793000Y-128703000D01*
X86793000Y-129677250D01*
X86838750Y-129723000D01*
X87666401Y-129723000D01*
X87733661Y-129695140D01*
X87785140Y-129643661D01*
X87813000Y-129576401D01*
X87813000Y-128748750D01*
X87767250Y-128703000D01*
X86793000Y-128703000D01*
X86435000Y-128703000D01*
X85460750Y-128703000D01*
X85415000Y-128748750D01*
X76858000Y-128748750D01*
X76858000Y-127471599D01*
X85415000Y-127471599D01*
X85415000Y-128299250D01*
X85460750Y-128345000D01*
X86435000Y-128345000D01*
X86435000Y-127370750D01*
X86793000Y-127370750D01*
X86793000Y-128345000D01*
X87767250Y-128345000D01*
X87813000Y-128299250D01*
X87813000Y-127471599D01*
X87785140Y-127404339D01*
X87733661Y-127352860D01*
X87666401Y-127325000D01*
X86838750Y-127325000D01*
X86793000Y-127370750D01*
X86435000Y-127370750D01*
X86389250Y-127325000D01*
X85561599Y-127325000D01*
X85494339Y-127352860D01*
X85442860Y-127404339D01*
X85415000Y-127471599D01*
X76858000Y-127471599D01*
X76858000Y-126932970D01*
X85918174Y-126932970D01*
X86047997Y-127067570D01*
X86505745Y-127201688D01*
X86979975Y-127150424D01*
X87180003Y-127067570D01*
X87309826Y-126932970D01*
X86614000Y-126237144D01*
X85918174Y-126932970D01*
X76858000Y-126932970D01*
X76858000Y-125875745D01*
X85396312Y-125875745D01*
X85447576Y-126349975D01*
X85530430Y-126550003D01*
X85665030Y-126679826D01*
X86360856Y-125984000D01*
X86867144Y-125984000D01*
X87562970Y-126679826D01*
X87697570Y-126550003D01*
X87831688Y-126092255D01*
X87780424Y-125618025D01*
X87697570Y-125417997D01*
X87562970Y-125288174D01*
X86867144Y-125984000D01*
X86360856Y-125984000D01*
X85665030Y-125288174D01*
X85530430Y-125417997D01*
X85396312Y-125875745D01*
X76858000Y-125875745D01*
X76858000Y-125035030D01*
X85918174Y-125035030D01*
X86614000Y-125730856D01*
X87309826Y-125035030D01*
X87180003Y-124900430D01*
X86722255Y-124766312D01*
X86248025Y-124817576D01*
X86047997Y-124900430D01*
X85918174Y-125035030D01*
X76858000Y-125035030D01*
X76858000Y-124392970D01*
X85918174Y-124392970D01*
X86047997Y-124527570D01*
X86505745Y-124661688D01*
X86979975Y-124610424D01*
X87180003Y-124527570D01*
X87309826Y-124392970D01*
X86614000Y-123697144D01*
X85918174Y-124392970D01*
X76858000Y-124392970D01*
X76858000Y-121824516D01*
X78434640Y-121824516D01*
X78751089Y-122590383D01*
X79336535Y-123176851D01*
X80101848Y-123494637D01*
X80930516Y-123495360D01*
X81316814Y-123335745D01*
X85396312Y-123335745D01*
X85447576Y-123809975D01*
X85530430Y-124010003D01*
X85665030Y-124139826D01*
X86360856Y-123444000D01*
X86867144Y-123444000D01*
X87562970Y-124139826D01*
X87697570Y-124010003D01*
X87831688Y-123552255D01*
X87780424Y-123078025D01*
X87697570Y-122877997D01*
X87562970Y-122748174D01*
X86867144Y-123444000D01*
X86360856Y-123444000D01*
X85665030Y-122748174D01*
X85530430Y-122877997D01*
X85396312Y-123335745D01*
X81316814Y-123335745D01*
X81696383Y-123178911D01*
X82282851Y-122593465D01*
X82323724Y-122495030D01*
X85918174Y-122495030D01*
X86614000Y-123190856D01*
X87309826Y-122495030D01*
X87180003Y-122360430D01*
X86722255Y-122226312D01*
X86248025Y-122277576D01*
X86047997Y-122360430D01*
X85918174Y-122495030D01*
X82323724Y-122495030D01*
X82590331Y-121852970D01*
X85918174Y-121852970D01*
X86047997Y-121987570D01*
X86505745Y-122121688D01*
X86979975Y-122070424D01*
X87180003Y-121987570D01*
X87309826Y-121852970D01*
X86614000Y-121157144D01*
X85918174Y-121852970D01*
X82590331Y-121852970D01*
X82600637Y-121828152D01*
X82601360Y-120999484D01*
X82517177Y-120795745D01*
X85396312Y-120795745D01*
X85447576Y-121269975D01*
X85530430Y-121470003D01*
X85665030Y-121599826D01*
X86360856Y-120904000D01*
X86867144Y-120904000D01*
X87562970Y-121599826D01*
X87697570Y-121470003D01*
X87831688Y-121012255D01*
X87780424Y-120538025D01*
X87697570Y-120337997D01*
X87562970Y-120208174D01*
X86867144Y-120904000D01*
X86360856Y-120904000D01*
X85665030Y-120208174D01*
X85530430Y-120337997D01*
X85396312Y-120795745D01*
X82517177Y-120795745D01*
X82284911Y-120233617D01*
X82006810Y-119955030D01*
X85918174Y-119955030D01*
X86614000Y-120650856D01*
X87309826Y-119955030D01*
X87180003Y-119820430D01*
X86722255Y-119686312D01*
X86248025Y-119737576D01*
X86047997Y-119820430D01*
X85918174Y-119955030D01*
X82006810Y-119955030D01*
X81699465Y-119647149D01*
X80934152Y-119329363D01*
X80105484Y-119328640D01*
X79339617Y-119645089D01*
X78753149Y-120230535D01*
X78435363Y-120995848D01*
X78434640Y-121824516D01*
X76858000Y-121824516D01*
X76858000Y-119312970D01*
X85918174Y-119312970D01*
X86047997Y-119447570D01*
X86505745Y-119581688D01*
X86979975Y-119530424D01*
X87180003Y-119447570D01*
X87309826Y-119312970D01*
X86614000Y-118617144D01*
X85918174Y-119312970D01*
X76858000Y-119312970D01*
X76858000Y-118255745D01*
X85396312Y-118255745D01*
X85447576Y-118729975D01*
X85530430Y-118930003D01*
X85665030Y-119059826D01*
X86360856Y-118364000D01*
X86867144Y-118364000D01*
X87562970Y-119059826D01*
X87697570Y-118930003D01*
X87831688Y-118472255D01*
X87780424Y-117998025D01*
X87697570Y-117797997D01*
X87562970Y-117668174D01*
X86867144Y-118364000D01*
X86360856Y-118364000D01*
X85665030Y-117668174D01*
X85530430Y-117797997D01*
X85396312Y-118255745D01*
X76858000Y-118255745D01*
X76858000Y-117415030D01*
X85918174Y-117415030D01*
X86614000Y-118110856D01*
X87309826Y-117415030D01*
X87180003Y-117280430D01*
X86722255Y-117146312D01*
X86248025Y-117197576D01*
X86047997Y-117280430D01*
X85918174Y-117415030D01*
X76858000Y-117415030D01*
X76858000Y-116772970D01*
X85918174Y-116772970D01*
X86047997Y-116907570D01*
X86505745Y-117041688D01*
X86979975Y-116990424D01*
X87180003Y-116907570D01*
X87309826Y-116772970D01*
X86614000Y-116077144D01*
X85918174Y-116772970D01*
X76858000Y-116772970D01*
X76858000Y-115715745D01*
X85396312Y-115715745D01*
X85447576Y-116189975D01*
X85530430Y-116390003D01*
X85665030Y-116519826D01*
X86360856Y-115824000D01*
X86867144Y-115824000D01*
X87562970Y-116519826D01*
X87697570Y-116390003D01*
X87831688Y-115932255D01*
X87780424Y-115458025D01*
X87697570Y-115257997D01*
X87562970Y-115128174D01*
X86867144Y-115824000D01*
X86360856Y-115824000D01*
X85665030Y-115128174D01*
X85530430Y-115257997D01*
X85396312Y-115715745D01*
X76858000Y-115715745D01*
X76858000Y-114875030D01*
X85918174Y-114875030D01*
X86614000Y-115570856D01*
X87309826Y-114875030D01*
X87245175Y-114808000D01*
X88813579Y-114808000D01*
X88813579Y-116840000D01*
X88858827Y-117067475D01*
X88987681Y-117260319D01*
X89154588Y-117371842D01*
X89069224Y-117457057D01*
X88825278Y-118044544D01*
X88824723Y-118680665D01*
X89067644Y-119268577D01*
X89432672Y-119634243D01*
X89069224Y-119997057D01*
X88825278Y-120584544D01*
X88824723Y-121220665D01*
X89067644Y-121808577D01*
X89432672Y-122174243D01*
X89069224Y-122537057D01*
X88825278Y-123124544D01*
X88824723Y-123760665D01*
X89067644Y-124348577D01*
X89432672Y-124714243D01*
X89069224Y-125077057D01*
X88825278Y-125664544D01*
X88824723Y-126300665D01*
X89067644Y-126888577D01*
X89432672Y-127254243D01*
X89069224Y-127617057D01*
X88825278Y-128204544D01*
X88824723Y-128840665D01*
X89067644Y-129428577D01*
X89517057Y-129878776D01*
X90104544Y-130122722D01*
X90740665Y-130123277D01*
X91328577Y-129880356D01*
X91652499Y-129557000D01*
X92775170Y-129557000D01*
X93082421Y-129864788D01*
X93663842Y-130106215D01*
X94293396Y-130106764D01*
X94875238Y-129866352D01*
X95320788Y-129421579D01*
X95562215Y-128840158D01*
X95562764Y-128210604D01*
X95322352Y-127628762D01*
X94947980Y-127253736D01*
X95320788Y-126881579D01*
X95562215Y-126300158D01*
X95562764Y-125670604D01*
X95322352Y-125088762D01*
X94947980Y-124713736D01*
X95320788Y-124341579D01*
X95562215Y-123760158D01*
X95562764Y-123130604D01*
X95322352Y-122548762D01*
X94947980Y-122173736D01*
X95320788Y-121801579D01*
X95562215Y-121220158D01*
X95562764Y-120590604D01*
X95322352Y-120008762D01*
X94947980Y-119633736D01*
X95320788Y-119261579D01*
X95562215Y-118680158D01*
X95562764Y-118050604D01*
X95322352Y-117468762D01*
X94947980Y-117093736D01*
X95320788Y-116721579D01*
X95562215Y-116140158D01*
X95562217Y-116137396D01*
X102557236Y-116137396D01*
X102797648Y-116719238D01*
X103172020Y-117094264D01*
X102799212Y-117466421D01*
X102557785Y-118047842D01*
X102557236Y-118677396D01*
X102797648Y-119259238D01*
X103172020Y-119634264D01*
X102799212Y-120006421D01*
X102557785Y-120587842D01*
X102557236Y-121217396D01*
X102797648Y-121799238D01*
X103172020Y-122174264D01*
X102799212Y-122546421D01*
X102557785Y-123127842D01*
X102557236Y-123757396D01*
X102797648Y-124339238D01*
X103172020Y-124714264D01*
X102799212Y-125086421D01*
X102557785Y-125667842D01*
X102557236Y-126297396D01*
X102797648Y-126879238D01*
X103172020Y-127254264D01*
X102799212Y-127626421D01*
X102557785Y-128207842D01*
X102557236Y-128837396D01*
X102797648Y-129419238D01*
X103242421Y-129864788D01*
X103823842Y-130106215D01*
X104453396Y-130106764D01*
X105035238Y-129866352D01*
X105345130Y-129557000D01*
X106721843Y-129557000D01*
X106958672Y-129794243D01*
X106595224Y-130157057D01*
X106351278Y-130744544D01*
X106350723Y-131380665D01*
X106593644Y-131968577D01*
X107043057Y-132418776D01*
X107630544Y-132662722D01*
X108266665Y-132663277D01*
X108854577Y-132420356D01*
X109178499Y-132097000D01*
X112098552Y-132097000D01*
X112244333Y-132243036D01*
X112917794Y-132522682D01*
X113647007Y-132523318D01*
X114320955Y-132244848D01*
X114837036Y-131729667D01*
X114839804Y-131723000D01*
X117569518Y-131723000D01*
X117571152Y-131726955D01*
X118086333Y-132243036D01*
X118759794Y-132522682D01*
X119489007Y-132523318D01*
X120162955Y-132244848D01*
X120679036Y-131729667D01*
X120681804Y-131723000D01*
X123411518Y-131723000D01*
X123413152Y-131726955D01*
X123928333Y-132243036D01*
X124601794Y-132522682D01*
X125331007Y-132523318D01*
X126004955Y-132244848D01*
X126521036Y-131729667D01*
X126523804Y-131723000D01*
X129253518Y-131723000D01*
X129255152Y-131726955D01*
X129770333Y-132243036D01*
X130443794Y-132522682D01*
X131173007Y-132523318D01*
X131846955Y-132244848D01*
X132363036Y-131729667D01*
X132365804Y-131723000D01*
X135095518Y-131723000D01*
X135097152Y-131726955D01*
X135612333Y-132243036D01*
X136285794Y-132522682D01*
X137015007Y-132523318D01*
X137688955Y-132244848D01*
X138205036Y-131729667D01*
X138207804Y-131723000D01*
X140937518Y-131723000D01*
X140939152Y-131726955D01*
X141454333Y-132243036D01*
X142127794Y-132522682D01*
X142857007Y-132523318D01*
X143530955Y-132244848D01*
X144047036Y-131729667D01*
X144326682Y-131056206D01*
X144327318Y-130326993D01*
X144048848Y-129653045D01*
X143533667Y-129136964D01*
X142860206Y-128857318D01*
X142130993Y-128856682D01*
X141457045Y-129135152D01*
X140940964Y-129650333D01*
X140938196Y-129657000D01*
X138208482Y-129657000D01*
X138206848Y-129653045D01*
X137691667Y-129136964D01*
X137018206Y-128857318D01*
X136288993Y-128856682D01*
X135615045Y-129135152D01*
X135098964Y-129650333D01*
X135096196Y-129657000D01*
X132366482Y-129657000D01*
X132364848Y-129653045D01*
X131849667Y-129136964D01*
X131176206Y-128857318D01*
X130625487Y-128856838D01*
X130512200Y-128777058D01*
X130817312Y-128716368D01*
X131152441Y-128492441D01*
X137820366Y-121824516D01*
X146252640Y-121824516D01*
X146569089Y-122590383D01*
X147154535Y-123176851D01*
X147919848Y-123494637D01*
X148748516Y-123495360D01*
X149514383Y-123178911D01*
X150100851Y-122593465D01*
X150418637Y-121828152D01*
X150419360Y-120999484D01*
X150102911Y-120233617D01*
X149517465Y-119647149D01*
X148752152Y-119329363D01*
X147923484Y-119328640D01*
X147157617Y-119645089D01*
X146571149Y-120230535D01*
X146253363Y-120995848D01*
X146252640Y-121824516D01*
X137820366Y-121824516D01*
X142123841Y-117521041D01*
X142127794Y-117522682D01*
X142857007Y-117523318D01*
X143530955Y-117244848D01*
X144047036Y-116729667D01*
X144326682Y-116056206D01*
X144327318Y-115326993D01*
X144048848Y-114653045D01*
X143533667Y-114136964D01*
X143527000Y-114134196D01*
X143527000Y-112809020D01*
X143571475Y-112800173D01*
X143764319Y-112671319D01*
X143893173Y-112478475D01*
X143938421Y-112251000D01*
X143938421Y-110761000D01*
X143893173Y-110533525D01*
X143764319Y-110340681D01*
X143571475Y-110211827D01*
X143511985Y-110199994D01*
X143720361Y-109825241D01*
X143712900Y-109685000D01*
X142673000Y-109685000D01*
X142673000Y-109705000D01*
X142315000Y-109705000D01*
X142315000Y-109685000D01*
X141275100Y-109685000D01*
X141267639Y-109825241D01*
X141476015Y-110199994D01*
X141416525Y-110211827D01*
X141223681Y-110340681D01*
X141094827Y-110533525D01*
X141049579Y-110761000D01*
X141049579Y-112251000D01*
X141094827Y-112478475D01*
X141223681Y-112671319D01*
X141416525Y-112800173D01*
X141461000Y-112809020D01*
X141461000Y-114133518D01*
X141457045Y-114135152D01*
X140940964Y-114650333D01*
X140661318Y-115323794D01*
X140660682Y-116053007D01*
X140663439Y-116059679D01*
X129994118Y-126729000D01*
X127603957Y-126729000D01*
X127292921Y-126509961D01*
X136281842Y-117521041D01*
X136285794Y-117522682D01*
X137015007Y-117523318D01*
X137688955Y-117244848D01*
X138205036Y-116729667D01*
X138484682Y-116056206D01*
X138485318Y-115326993D01*
X138206848Y-114653045D01*
X137691667Y-114136964D01*
X137685000Y-114134196D01*
X137685000Y-112809020D01*
X137729475Y-112800173D01*
X137922319Y-112671319D01*
X138051173Y-112478475D01*
X138096421Y-112251000D01*
X138096421Y-110761000D01*
X138051173Y-110533525D01*
X137922319Y-110340681D01*
X137729475Y-110211827D01*
X137669985Y-110199994D01*
X137878361Y-109825241D01*
X137870900Y-109685000D01*
X136831000Y-109685000D01*
X136831000Y-109705000D01*
X136473000Y-109705000D01*
X136473000Y-109685000D01*
X135433100Y-109685000D01*
X135425639Y-109825241D01*
X135634015Y-110199994D01*
X135574525Y-110211827D01*
X135381681Y-110340681D01*
X135252827Y-110533525D01*
X135207579Y-110761000D01*
X135207579Y-112251000D01*
X135252827Y-112478475D01*
X135381681Y-112671319D01*
X135574525Y-112800173D01*
X135619000Y-112809020D01*
X135619000Y-114133518D01*
X135615045Y-114135152D01*
X135098964Y-114650333D01*
X134819318Y-115323794D01*
X134818682Y-116053007D01*
X134821439Y-116059678D01*
X125930118Y-124951000D01*
X125079197Y-124951000D01*
X123864971Y-124095911D01*
X130439841Y-117521041D01*
X130443794Y-117522682D01*
X131173007Y-117523318D01*
X131846955Y-117244848D01*
X132363036Y-116729667D01*
X132642682Y-116056206D01*
X132643318Y-115326993D01*
X132364848Y-114653045D01*
X131849667Y-114136964D01*
X131843000Y-114134196D01*
X131843000Y-112809020D01*
X131887475Y-112800173D01*
X132080319Y-112671319D01*
X132209173Y-112478475D01*
X132254421Y-112251000D01*
X132254421Y-110761000D01*
X132209173Y-110533525D01*
X132080319Y-110340681D01*
X131887475Y-110211827D01*
X131827985Y-110199994D01*
X132036361Y-109825241D01*
X132028900Y-109685000D01*
X130989000Y-109685000D01*
X130989000Y-109705000D01*
X130631000Y-109705000D01*
X130631000Y-109685000D01*
X129591100Y-109685000D01*
X129583639Y-109825241D01*
X129792015Y-110199994D01*
X129732525Y-110211827D01*
X129539681Y-110340681D01*
X129410827Y-110533525D01*
X129365579Y-110761000D01*
X129365579Y-112251000D01*
X129410827Y-112478475D01*
X129539681Y-112671319D01*
X129732525Y-112800173D01*
X129777000Y-112809020D01*
X129777000Y-114133518D01*
X129773045Y-114135152D01*
X129256964Y-114650333D01*
X128977318Y-115323794D01*
X128976682Y-116053007D01*
X128979439Y-116059679D01*
X122628118Y-122411000D01*
X121472397Y-122411000D01*
X120425555Y-121673787D01*
X120484441Y-121634441D01*
X124597842Y-117521041D01*
X124601794Y-117522682D01*
X125331007Y-117523318D01*
X126004955Y-117244848D01*
X126521036Y-116729667D01*
X126800682Y-116056206D01*
X126801318Y-115326993D01*
X126522848Y-114653045D01*
X126007667Y-114136964D01*
X126001000Y-114134196D01*
X126001000Y-112809020D01*
X126045475Y-112800173D01*
X126238319Y-112671319D01*
X126367173Y-112478475D01*
X126412421Y-112251000D01*
X126412421Y-110761000D01*
X126367173Y-110533525D01*
X126238319Y-110340681D01*
X126045475Y-110211827D01*
X125985985Y-110199994D01*
X126194361Y-109825241D01*
X126186900Y-109685000D01*
X125147000Y-109685000D01*
X125147000Y-109705000D01*
X124789000Y-109705000D01*
X124789000Y-109685000D01*
X123749100Y-109685000D01*
X123741639Y-109825241D01*
X123950015Y-110199994D01*
X123890525Y-110211827D01*
X123697681Y-110340681D01*
X123568827Y-110533525D01*
X123523579Y-110761000D01*
X123523579Y-112251000D01*
X123568827Y-112478475D01*
X123697681Y-112671319D01*
X123890525Y-112800173D01*
X123935000Y-112809020D01*
X123935000Y-114133518D01*
X123931045Y-114135152D01*
X123414964Y-114650333D01*
X123135318Y-115323794D01*
X123134682Y-116053007D01*
X123137439Y-116059679D01*
X119326118Y-119871000D01*
X117865597Y-119871000D01*
X116967153Y-119238293D01*
X117182441Y-119094441D01*
X118755841Y-117521041D01*
X118759794Y-117522682D01*
X119489007Y-117523318D01*
X120162955Y-117244848D01*
X120679036Y-116729667D01*
X120958682Y-116056206D01*
X120959318Y-115326993D01*
X120680848Y-114653045D01*
X120165667Y-114136964D01*
X120159000Y-114134196D01*
X120159000Y-112809020D01*
X120203475Y-112800173D01*
X120396319Y-112671319D01*
X120525173Y-112478475D01*
X120570421Y-112251000D01*
X120570421Y-110761000D01*
X120525173Y-110533525D01*
X120396319Y-110340681D01*
X120203475Y-110211827D01*
X120143985Y-110199994D01*
X120352361Y-109825241D01*
X120344900Y-109685000D01*
X119305000Y-109685000D01*
X119305000Y-109705000D01*
X118947000Y-109705000D01*
X118947000Y-109685000D01*
X117907100Y-109685000D01*
X117899639Y-109825241D01*
X118108015Y-110199994D01*
X118048525Y-110211827D01*
X117855681Y-110340681D01*
X117726827Y-110533525D01*
X117681579Y-110761000D01*
X117681579Y-112251000D01*
X117726827Y-112478475D01*
X117855681Y-112671319D01*
X118048525Y-112800173D01*
X118093000Y-112809020D01*
X118093000Y-114133518D01*
X118089045Y-114135152D01*
X117572964Y-114650333D01*
X117293318Y-115323794D01*
X117292682Y-116053007D01*
X117295439Y-116059679D01*
X116024118Y-117331000D01*
X114258797Y-117331000D01*
X114204682Y-117292891D01*
X114320955Y-117244848D01*
X114837036Y-116729667D01*
X115116682Y-116056206D01*
X115117318Y-115326993D01*
X114838848Y-114653045D01*
X114323667Y-114136964D01*
X114317000Y-114134196D01*
X114317000Y-112809020D01*
X114361475Y-112800173D01*
X114554319Y-112671319D01*
X114683173Y-112478475D01*
X114728421Y-112251000D01*
X114728421Y-110761000D01*
X114683173Y-110533525D01*
X114554319Y-110340681D01*
X114361475Y-110211827D01*
X114301985Y-110199994D01*
X114510361Y-109825241D01*
X114502900Y-109685000D01*
X113463000Y-109685000D01*
X113463000Y-109705000D01*
X113105000Y-109705000D01*
X113105000Y-109685000D01*
X112065100Y-109685000D01*
X112057639Y-109825241D01*
X112266015Y-110199994D01*
X112206525Y-110211827D01*
X112013681Y-110340681D01*
X111884827Y-110533525D01*
X111839579Y-110761000D01*
X111839579Y-112251000D01*
X111884827Y-112478475D01*
X112013681Y-112671319D01*
X112206525Y-112800173D01*
X112251000Y-112809020D01*
X112251000Y-114133518D01*
X112247045Y-114135152D01*
X111730964Y-114650333D01*
X111728196Y-114657000D01*
X109044391Y-114657000D01*
X108870695Y-114483000D01*
X109002401Y-114483000D01*
X109069661Y-114455140D01*
X109121140Y-114403661D01*
X109149000Y-114336401D01*
X109149000Y-113508750D01*
X109103250Y-113463000D01*
X108129000Y-113463000D01*
X108129000Y-113483000D01*
X107771000Y-113483000D01*
X107771000Y-113463000D01*
X106796750Y-113463000D01*
X106751000Y-113508750D01*
X106751000Y-114336401D01*
X106778860Y-114403661D01*
X106830339Y-114455140D01*
X106897599Y-114483000D01*
X107030040Y-114483000D01*
X106721501Y-114791000D01*
X105344830Y-114791000D01*
X105037579Y-114483212D01*
X104456158Y-114241785D01*
X103826604Y-114241236D01*
X103244762Y-114481648D01*
X102799212Y-114926421D01*
X102557785Y-115507842D01*
X102557236Y-116137396D01*
X95562217Y-116137396D01*
X95562764Y-115510604D01*
X95322352Y-114928762D01*
X94877579Y-114483212D01*
X94296158Y-114241785D01*
X93666604Y-114241236D01*
X93084762Y-114481648D01*
X92774870Y-114791000D01*
X92031039Y-114791000D01*
X91989173Y-114580525D01*
X91860319Y-114387681D01*
X91667475Y-114258827D01*
X91440000Y-114213579D01*
X89408000Y-114213579D01*
X89180525Y-114258827D01*
X88987681Y-114387681D01*
X88858827Y-114580525D01*
X88813579Y-114808000D01*
X87245175Y-114808000D01*
X87180003Y-114740430D01*
X86722255Y-114606312D01*
X86248025Y-114657576D01*
X86047997Y-114740430D01*
X85918174Y-114875030D01*
X76858000Y-114875030D01*
X76858000Y-112231599D01*
X106751000Y-112231599D01*
X106751000Y-113059250D01*
X106796750Y-113105000D01*
X107771000Y-113105000D01*
X107771000Y-112130750D01*
X108129000Y-112130750D01*
X108129000Y-113105000D01*
X109103250Y-113105000D01*
X109149000Y-113059250D01*
X109149000Y-112231599D01*
X109121140Y-112164339D01*
X109069661Y-112112860D01*
X109002401Y-112085000D01*
X108174750Y-112085000D01*
X108129000Y-112130750D01*
X107771000Y-112130750D01*
X107725250Y-112085000D01*
X106897599Y-112085000D01*
X106830339Y-112112860D01*
X106778860Y-112164339D01*
X106751000Y-112231599D01*
X76858000Y-112231599D01*
X76858000Y-111619000D01*
X98344714Y-111619000D01*
X98344714Y-109186759D01*
X112057639Y-109186759D01*
X112065100Y-109327000D01*
X113105000Y-109327000D01*
X113105000Y-108606949D01*
X113463000Y-108606949D01*
X113463000Y-109327000D01*
X114502900Y-109327000D01*
X114510361Y-109186759D01*
X117899639Y-109186759D01*
X117907100Y-109327000D01*
X118947000Y-109327000D01*
X118947000Y-108606949D01*
X119305000Y-108606949D01*
X119305000Y-109327000D01*
X120344900Y-109327000D01*
X120352361Y-109186759D01*
X123741639Y-109186759D01*
X123749100Y-109327000D01*
X124789000Y-109327000D01*
X124789000Y-108606949D01*
X125147000Y-108606949D01*
X125147000Y-109327000D01*
X126186900Y-109327000D01*
X126194361Y-109186759D01*
X129583639Y-109186759D01*
X129591100Y-109327000D01*
X130631000Y-109327000D01*
X130631000Y-108606949D01*
X130989000Y-108606949D01*
X130989000Y-109327000D01*
X132028900Y-109327000D01*
X132036361Y-109186759D01*
X135425639Y-109186759D01*
X135433100Y-109327000D01*
X136473000Y-109327000D01*
X136473000Y-108606949D01*
X136831000Y-108606949D01*
X136831000Y-109327000D01*
X137870900Y-109327000D01*
X137878361Y-109186759D01*
X141267639Y-109186759D01*
X141275100Y-109327000D01*
X142315000Y-109327000D01*
X142315000Y-108606949D01*
X142673000Y-108606949D01*
X142673000Y-109327000D01*
X143712900Y-109327000D01*
X143720361Y-109186759D01*
X143509909Y-108808273D01*
X143192592Y-108608465D01*
X142822966Y-108545299D01*
X142673000Y-108606949D01*
X142315000Y-108606949D01*
X142165034Y-108545299D01*
X141795408Y-108608465D01*
X141478091Y-108808273D01*
X141267639Y-109186759D01*
X137878361Y-109186759D01*
X137667909Y-108808273D01*
X137350592Y-108608465D01*
X136980966Y-108545299D01*
X136831000Y-108606949D01*
X136473000Y-108606949D01*
X136323034Y-108545299D01*
X135953408Y-108608465D01*
X135636091Y-108808273D01*
X135425639Y-109186759D01*
X132036361Y-109186759D01*
X131825909Y-108808273D01*
X131508592Y-108608465D01*
X131138966Y-108545299D01*
X130989000Y-108606949D01*
X130631000Y-108606949D01*
X130481034Y-108545299D01*
X130111408Y-108608465D01*
X129794091Y-108808273D01*
X129583639Y-109186759D01*
X126194361Y-109186759D01*
X125983909Y-108808273D01*
X125666592Y-108608465D01*
X125296966Y-108545299D01*
X125147000Y-108606949D01*
X124789000Y-108606949D01*
X124639034Y-108545299D01*
X124269408Y-108608465D01*
X123952091Y-108808273D01*
X123741639Y-109186759D01*
X120352361Y-109186759D01*
X120141909Y-108808273D01*
X119824592Y-108608465D01*
X119454966Y-108545299D01*
X119305000Y-108606949D01*
X118947000Y-108606949D01*
X118797034Y-108545299D01*
X118427408Y-108608465D01*
X118110091Y-108808273D01*
X117899639Y-109186759D01*
X114510361Y-109186759D01*
X114299909Y-108808273D01*
X113982592Y-108608465D01*
X113612966Y-108545299D01*
X113463000Y-108606949D01*
X113105000Y-108606949D01*
X112955034Y-108545299D01*
X112585408Y-108608465D01*
X112268091Y-108808273D01*
X112057639Y-109186759D01*
X98344714Y-109186759D01*
X98344714Y-108653000D01*
X76858000Y-108653000D01*
X76858000Y-107592000D01*
X151742000Y-107592000D01*
X151742000Y-132946000D01*
M02*
