; NON-PLATED HOLES START AT T1
; THROUGH (PLATED) HOLES START AT T100
M48
INCH
T1C0.125984
T100C0.035000
T101C0.030000
T102C0.027559
%
T1
X001200Y020393
X039200Y001393
X039200Y020393
X001200Y001393
T100
X031700Y005393
X009700Y018393
X031700Y006393
X018700Y018393
X019700Y018393
X031700Y007393
X028700Y018393
X013700Y018393
X029700Y018393
X027700Y004393
X023700Y018393
X027700Y005393
X014700Y018393
X033700Y018393
X027700Y006393
X024700Y018393
X031700Y004393
X027700Y007393
T101
X031700Y009395
X031700Y008393
T102
X001700Y011893
X027200Y010893
X031700Y013893
X013700Y016393
X025200Y013893
X010200Y010893
X018700Y010893
X022200Y015393
X031700Y016393
X016700Y013893
X019700Y002393
X036700Y010893
X027200Y009393
X034700Y013893
X004200Y010893
X028200Y013893
X031700Y015393
X010200Y009393
X019700Y013893
X022200Y010893
X019700Y020393
X036700Y009393
X013700Y010893
X037700Y013893
X019700Y016393
X007200Y010893
X005200Y013893
X031700Y010893
X037700Y016393
X025200Y010893
X023200Y013893
X019700Y015393
X016700Y010893
X007200Y009393
X014700Y013893
X008200Y013893
X023200Y016393
X034700Y010893
X028200Y010893
X032700Y013893
X014700Y016393
X026200Y013893
X012700Y019393
X016700Y009393
X019700Y010893
X029200Y002393
X032700Y016393
X017700Y013893
X037700Y010893
X035700Y013893
X005200Y010893
X029200Y013893
X003200Y013893
X029200Y020393
X019700Y009393
X023200Y010893
X029200Y016393
X003200Y016393
X014700Y010893
X038700Y013893
X008200Y010893
X012700Y013893
X006200Y013893
X032700Y010893
X038700Y016393
X029200Y015393
X026200Y010893
X003200Y015393
X012700Y016393
X024200Y013893
X014700Y009393
X017700Y010893
X015700Y013893
X038700Y015393
X009200Y013893
X024200Y016393
X010200Y002393
X035700Y010893
X012700Y015393
X022200Y019393
X026200Y009393
X033700Y013893
X029200Y010893
X003200Y010893
X006200Y015393
X027200Y013893
X017700Y009393
X033700Y016393
X010200Y013893
X018700Y013893
X010200Y020393
X031700Y019393
X038700Y010893
X012700Y010893
X029200Y009393
X036700Y013893
X010200Y016393
X006200Y010893
X004200Y013893
X024200Y010893
X001700Y012893
X038700Y009393
X022200Y013893
X010200Y015393
X004200Y016393
X015700Y010893
X013700Y013893
X009200Y010893
X006200Y009393
X007200Y013893
X022200Y016393
X033700Y010893
T00
M30
