G04 #@! TF.FileFunction,Glue,Top*
%FSLAX46Y46*%
G04 Gerber Fmt 4.6, Leading zero omitted, Abs format (unit mm)*
G04 Created by KiCad (PCBNEW 0.201506092253+5726~23~ubuntu15.04.1-product) date Thu 11 Jun 2015 08:03:58 PM CEST*
%MOMM*%
G01*
G04 APERTURE LIST*
%ADD10C,0.100000*%
%ADD11C,0.150000*%
%ADD12C,0.300000*%
%ADD13C,0.400000*%
G04 APERTURE END LIST*
D10*
D11*
X177002200Y-166007200D02*
X177002200Y-198007200D01*
X285002200Y-198007200D01*
X285002200Y-166007200D01*
X177002200Y-166007200D01*
D10*
D11*
X10000000Y-10000000D02*
X10000000Y-200007200D01*
X287002200Y-200007200D01*
X287002200Y-10000000D01*
X10000000Y-10000000D01*
D10*
D11*
X12000000Y-12000000D02*
X12000000Y-198007200D01*
X285002200Y-198007200D01*
X285002200Y-12000000D01*
X12000000Y-12000000D01*
D10*
D11*
X60000000Y-12000000D02*
X60000000Y-10000000D01*
D10*
D11*
X110000000Y-12000000D02*
X110000000Y-10000000D01*
D10*
D11*
X160000000Y-12000000D02*
X160000000Y-10000000D01*
D10*
D11*
X210000000Y-12000000D02*
X210000000Y-10000000D01*
D10*
D11*
X260000000Y-12000000D02*
X260000000Y-10000000D01*
D10*
D11*
X35990476Y-11588095D02*
X35247619Y-11588095D01*
X35619048Y-11588095D02*
X35619048Y-10288095D01*
X35495238Y-10473810D01*
X35371429Y-10597619D01*
X35247619Y-10659524D01*
D10*
D11*
X85247619Y-10411905D02*
X85309524Y-10350000D01*
X85433333Y-10288095D01*
X85742857Y-10288095D01*
X85866667Y-10350000D01*
X85928571Y-10411905D01*
X85990476Y-10535714D01*
X85990476Y-10659524D01*
X85928571Y-10845238D01*
X85185714Y-11588095D01*
X85990476Y-11588095D01*
D10*
D11*
X135185714Y-10288095D02*
X135990476Y-10288095D01*
X135557143Y-10783333D01*
X135742857Y-10783333D01*
X135866667Y-10845238D01*
X135928571Y-10907143D01*
X135990476Y-11030952D01*
X135990476Y-11340476D01*
X135928571Y-11464286D01*
X135866667Y-11526190D01*
X135742857Y-11588095D01*
X135371429Y-11588095D01*
X135247619Y-11526190D01*
X135185714Y-11464286D01*
D10*
D11*
X185866667Y-10721429D02*
X185866667Y-11588095D01*
X185557143Y-10226190D02*
X185247619Y-11154762D01*
X186052381Y-11154762D01*
D10*
D11*
X235928571Y-10288095D02*
X235309524Y-10288095D01*
X235247619Y-10907143D01*
X235309524Y-10845238D01*
X235433333Y-10783333D01*
X235742857Y-10783333D01*
X235866667Y-10845238D01*
X235928571Y-10907143D01*
X235990476Y-11030952D01*
X235990476Y-11340476D01*
X235928571Y-11464286D01*
X235866667Y-11526190D01*
X235742857Y-11588095D01*
X235433333Y-11588095D01*
X235309524Y-11526190D01*
X235247619Y-11464286D01*
D10*
D11*
X285866667Y-10288095D02*
X285619048Y-10288095D01*
X285495238Y-10350000D01*
X285433333Y-10411905D01*
X285309524Y-10597619D01*
X285247619Y-10845238D01*
X285247619Y-11340476D01*
X285309524Y-11464286D01*
X285371429Y-11526190D01*
X285495238Y-11588095D01*
X285742857Y-11588095D01*
X285866667Y-11526190D01*
X285928571Y-11464286D01*
X285990476Y-11340476D01*
X285990476Y-11030952D01*
X285928571Y-10907143D01*
X285866667Y-10845238D01*
X285742857Y-10783333D01*
X285495238Y-10783333D01*
X285371429Y-10845238D01*
X285309524Y-10907143D01*
X285247619Y-11030952D01*
D10*
D11*
X60000000Y-198007200D02*
X60000000Y-200007200D01*
D10*
D11*
X110000000Y-198007200D02*
X110000000Y-200007200D01*
D10*
D11*
X160000000Y-198007200D02*
X160000000Y-200007200D01*
D10*
D11*
X210000000Y-198007200D02*
X210000000Y-200007200D01*
D10*
D11*
X260000000Y-198007200D02*
X260000000Y-200007200D01*
D10*
D11*
X35990476Y-199595295D02*
X35247619Y-199595295D01*
X35619048Y-199595295D02*
X35619048Y-198295295D01*
X35495238Y-198481010D01*
X35371429Y-198604819D01*
X35247619Y-198666724D01*
D10*
D11*
X85247619Y-198419105D02*
X85309524Y-198357200D01*
X85433333Y-198295295D01*
X85742857Y-198295295D01*
X85866667Y-198357200D01*
X85928571Y-198419105D01*
X85990476Y-198542914D01*
X85990476Y-198666724D01*
X85928571Y-198852438D01*
X85185714Y-199595295D01*
X85990476Y-199595295D01*
D10*
D11*
X135185714Y-198295295D02*
X135990476Y-198295295D01*
X135557143Y-198790533D01*
X135742857Y-198790533D01*
X135866667Y-198852438D01*
X135928571Y-198914343D01*
X135990476Y-199038152D01*
X135990476Y-199347676D01*
X135928571Y-199471486D01*
X135866667Y-199533390D01*
X135742857Y-199595295D01*
X135371429Y-199595295D01*
X135247619Y-199533390D01*
X135185714Y-199471486D01*
D10*
D11*
X185866667Y-198728629D02*
X185866667Y-199595295D01*
X185557143Y-198233390D02*
X185247619Y-199161962D01*
X186052381Y-199161962D01*
D10*
D11*
X235928571Y-198295295D02*
X235309524Y-198295295D01*
X235247619Y-198914343D01*
X235309524Y-198852438D01*
X235433333Y-198790533D01*
X235742857Y-198790533D01*
X235866667Y-198852438D01*
X235928571Y-198914343D01*
X235990476Y-199038152D01*
X235990476Y-199347676D01*
X235928571Y-199471486D01*
X235866667Y-199533390D01*
X235742857Y-199595295D01*
X235433333Y-199595295D01*
X235309524Y-199533390D01*
X235247619Y-199471486D01*
D10*
D11*
X285866667Y-198295295D02*
X285619048Y-198295295D01*
X285495238Y-198357200D01*
X285433333Y-198419105D01*
X285309524Y-198604819D01*
X285247619Y-198852438D01*
X285247619Y-199347676D01*
X285309524Y-199471486D01*
X285371429Y-199533390D01*
X285495238Y-199595295D01*
X285742857Y-199595295D01*
X285866667Y-199533390D01*
X285928571Y-199471486D01*
X285990476Y-199347676D01*
X285990476Y-199038152D01*
X285928571Y-198914343D01*
X285866667Y-198852438D01*
X285742857Y-198790533D01*
X285495238Y-198790533D01*
X285371429Y-198852438D01*
X285309524Y-198914343D01*
X285247619Y-199038152D01*
D10*
D11*
X10000000Y-60000000D02*
X12000000Y-60000000D01*
D10*
D11*
X10000000Y-110000000D02*
X12000000Y-110000000D01*
D10*
D11*
X10000000Y-160000000D02*
X12000000Y-160000000D01*
D10*
D11*
X10690476Y-35216667D02*
X11309524Y-35216667D01*
X10566667Y-35588095D02*
X11000000Y-34288095D01*
X11433333Y-35588095D01*
D10*
D11*
X11092857Y-84907143D02*
X11278571Y-84969048D01*
X11340476Y-85030952D01*
X11402381Y-85154762D01*
X11402381Y-85340476D01*
X11340476Y-85464286D01*
X11278571Y-85526190D01*
X11154762Y-85588095D01*
X10659524Y-85588095D01*
X10659524Y-84288095D01*
X11092857Y-84288095D01*
X11216667Y-84350000D01*
X11278571Y-84411905D01*
X11340476Y-84535714D01*
X11340476Y-84659524D01*
X11278571Y-84783333D01*
X11216667Y-84845238D01*
X11092857Y-84907143D01*
X10659524Y-84907143D01*
D10*
D11*
X11402381Y-135464286D02*
X11340476Y-135526190D01*
X11154762Y-135588095D01*
X11030952Y-135588095D01*
X10845238Y-135526190D01*
X10721429Y-135402381D01*
X10659524Y-135278571D01*
X10597619Y-135030952D01*
X10597619Y-134845238D01*
X10659524Y-134597619D01*
X10721429Y-134473810D01*
X10845238Y-134350000D01*
X11030952Y-134288095D01*
X11154762Y-134288095D01*
X11340476Y-134350000D01*
X11402381Y-134411905D01*
D10*
D11*
X10659524Y-185588095D02*
X10659524Y-184288095D01*
X10969048Y-184288095D01*
X11154762Y-184350000D01*
X11278571Y-184473810D01*
X11340476Y-184597619D01*
X11402381Y-184845238D01*
X11402381Y-185030952D01*
X11340476Y-185278571D01*
X11278571Y-185402381D01*
X11154762Y-185526190D01*
X10969048Y-185588095D01*
X10659524Y-185588095D01*
D10*
D11*
X287002200Y-60000000D02*
X285002200Y-60000000D01*
D10*
D11*
X287002200Y-110000000D02*
X285002200Y-110000000D01*
D10*
D11*
X287002200Y-160000000D02*
X285002200Y-160000000D01*
D10*
D11*
X285692676Y-35216667D02*
X286311724Y-35216667D01*
X285568867Y-35588095D02*
X286002200Y-34288095D01*
X286435533Y-35588095D01*
D10*
D11*
X286095057Y-84907143D02*
X286280771Y-84969048D01*
X286342676Y-85030952D01*
X286404581Y-85154762D01*
X286404581Y-85340476D01*
X286342676Y-85464286D01*
X286280771Y-85526190D01*
X286156962Y-85588095D01*
X285661724Y-85588095D01*
X285661724Y-84288095D01*
X286095057Y-84288095D01*
X286218867Y-84350000D01*
X286280771Y-84411905D01*
X286342676Y-84535714D01*
X286342676Y-84659524D01*
X286280771Y-84783333D01*
X286218867Y-84845238D01*
X286095057Y-84907143D01*
X285661724Y-84907143D01*
D10*
D11*
X286404581Y-135464286D02*
X286342676Y-135526190D01*
X286156962Y-135588095D01*
X286033152Y-135588095D01*
X285847438Y-135526190D01*
X285723629Y-135402381D01*
X285661724Y-135278571D01*
X285599819Y-135030952D01*
X285599819Y-134845238D01*
X285661724Y-134597619D01*
X285723629Y-134473810D01*
X285847438Y-134350000D01*
X286033152Y-134288095D01*
X286156962Y-134288095D01*
X286342676Y-134350000D01*
X286404581Y-134411905D01*
D10*
D11*
X285661724Y-185588095D02*
X285661724Y-184288095D01*
X285971248Y-184288095D01*
X286156962Y-184350000D01*
X286280771Y-184473810D01*
X286342676Y-184597619D01*
X286404581Y-184845238D01*
X286404581Y-185030952D01*
X286342676Y-185278571D01*
X286280771Y-185402381D01*
X286156962Y-185526190D01*
X285971248Y-185588095D01*
X285661724Y-185588095D01*
D10*
D11*
X200359343Y-193785771D02*
X200359343Y-192285771D01*
X200716486Y-192285771D01*
X200930771Y-192357200D01*
X201073629Y-192500057D01*
X201145057Y-192642914D01*
X201216486Y-192928629D01*
X201216486Y-193142914D01*
X201145057Y-193428629D01*
X201073629Y-193571486D01*
X200930771Y-193714343D01*
X200716486Y-193785771D01*
X200359343Y-193785771D01*
X202502200Y-193785771D02*
X202502200Y-193000057D01*
X202430771Y-192857200D01*
X202287914Y-192785771D01*
X202002200Y-192785771D01*
X201859343Y-192857200D01*
X202502200Y-193714343D02*
X202359343Y-193785771D01*
X202002200Y-193785771D01*
X201859343Y-193714343D01*
X201787914Y-193571486D01*
X201787914Y-193428629D01*
X201859343Y-193285771D01*
X202002200Y-193214343D01*
X202359343Y-193214343D01*
X202502200Y-193142914D01*
X203002200Y-192785771D02*
X203573629Y-192785771D01*
X203216486Y-192285771D02*
X203216486Y-193571486D01*
X203287914Y-193714343D01*
X203430772Y-193785771D01*
X203573629Y-193785771D01*
X204645057Y-193714343D02*
X204502200Y-193785771D01*
X204216486Y-193785771D01*
X204073629Y-193714343D01*
X204002200Y-193571486D01*
X204002200Y-193000057D01*
X204073629Y-192857200D01*
X204216486Y-192785771D01*
X204502200Y-192785771D01*
X204645057Y-192857200D01*
X204716486Y-193000057D01*
X204716486Y-193142914D01*
X204002200Y-193285771D01*
X205359343Y-193642914D02*
X205430771Y-193714343D01*
X205359343Y-193785771D01*
X205287914Y-193714343D01*
X205359343Y-193642914D01*
X205359343Y-193785771D01*
X205359343Y-192857200D02*
X205430771Y-192928629D01*
X205359343Y-193000057D01*
X205287914Y-192928629D01*
X205359343Y-192857200D01*
X205359343Y-193000057D01*
X207002200Y-192285771D02*
X207859343Y-192285771D01*
X207430772Y-193785771D02*
X207430772Y-192285771D01*
X209002200Y-192785771D02*
X209002200Y-193785771D01*
X208359343Y-192785771D02*
X208359343Y-193571486D01*
X208430771Y-193714343D01*
X208573629Y-193785771D01*
X208787914Y-193785771D01*
X208930771Y-193714343D01*
X209002200Y-193642914D01*
X210287914Y-193714343D02*
X210145057Y-193785771D01*
X209859343Y-193785771D01*
X209716486Y-193714343D01*
X209645057Y-193571486D01*
X209645057Y-193000057D01*
X209716486Y-192857200D01*
X209859343Y-192785771D01*
X210145057Y-192785771D01*
X210287914Y-192857200D01*
X210359343Y-193000057D01*
X210359343Y-193142914D01*
X209645057Y-193285771D01*
X212430771Y-192285771D02*
X212573628Y-192285771D01*
X212716485Y-192357200D01*
X212787914Y-192428629D01*
X212859343Y-192571486D01*
X212930771Y-192857200D01*
X212930771Y-193214343D01*
X212859343Y-193500057D01*
X212787914Y-193642914D01*
X212716485Y-193714343D01*
X212573628Y-193785771D01*
X212430771Y-193785771D01*
X212287914Y-193714343D01*
X212216485Y-193642914D01*
X212145057Y-193500057D01*
X212073628Y-193214343D01*
X212073628Y-192857200D01*
X212145057Y-192571486D01*
X212216485Y-192428629D01*
X212287914Y-192357200D01*
X212430771Y-192285771D01*
X213645056Y-193785771D02*
X213930771Y-193785771D01*
X214073628Y-193714343D01*
X214145056Y-193642914D01*
X214287914Y-193428629D01*
X214359342Y-193142914D01*
X214359342Y-192571486D01*
X214287914Y-192428629D01*
X214216485Y-192357200D01*
X214073628Y-192285771D01*
X213787914Y-192285771D01*
X213645056Y-192357200D01*
X213573628Y-192428629D01*
X213502199Y-192571486D01*
X213502199Y-192928629D01*
X213573628Y-193071486D01*
X213645056Y-193142914D01*
X213787914Y-193214343D01*
X214073628Y-193214343D01*
X214216485Y-193142914D01*
X214287914Y-193071486D01*
X214359342Y-192928629D01*
X216573627Y-192285771D02*
X216573627Y-193357200D01*
X216502199Y-193571486D01*
X216359342Y-193714343D01*
X216145056Y-193785771D01*
X216002199Y-193785771D01*
X217930770Y-192785771D02*
X217930770Y-193785771D01*
X217287913Y-192785771D02*
X217287913Y-193571486D01*
X217359341Y-193714343D01*
X217502199Y-193785771D01*
X217716484Y-193785771D01*
X217859341Y-193714343D01*
X217930770Y-193642914D01*
X218645056Y-192785771D02*
X218645056Y-193785771D01*
X218645056Y-192928629D02*
X218716484Y-192857200D01*
X218859342Y-192785771D01*
X219073627Y-192785771D01*
X219216484Y-192857200D01*
X219287913Y-193000057D01*
X219287913Y-193785771D01*
X221073627Y-192428629D02*
X221145056Y-192357200D01*
X221287913Y-192285771D01*
X221645056Y-192285771D01*
X221787913Y-192357200D01*
X221859342Y-192428629D01*
X221930770Y-192571486D01*
X221930770Y-192714343D01*
X221859342Y-192928629D01*
X221002199Y-193785771D01*
X221930770Y-193785771D01*
X222859341Y-192285771D02*
X223002198Y-192285771D01*
X223145055Y-192357200D01*
X223216484Y-192428629D01*
X223287913Y-192571486D01*
X223359341Y-192857200D01*
X223359341Y-193214343D01*
X223287913Y-193500057D01*
X223216484Y-193642914D01*
X223145055Y-193714343D01*
X223002198Y-193785771D01*
X222859341Y-193785771D01*
X222716484Y-193714343D01*
X222645055Y-193642914D01*
X222573627Y-193500057D01*
X222502198Y-193214343D01*
X222502198Y-192857200D01*
X222573627Y-192571486D01*
X222645055Y-192428629D01*
X222716484Y-192357200D01*
X222859341Y-192285771D01*
X224787912Y-193785771D02*
X223930769Y-193785771D01*
X224359341Y-193785771D02*
X224359341Y-192285771D01*
X224216484Y-192500057D01*
X224073626Y-192642914D01*
X223930769Y-192714343D01*
X226145055Y-192285771D02*
X225430769Y-192285771D01*
X225359340Y-193000057D01*
X225430769Y-192928629D01*
X225573626Y-192857200D01*
X225930769Y-192857200D01*
X226073626Y-192928629D01*
X226145055Y-193000057D01*
X226216483Y-193142914D01*
X226216483Y-193500057D01*
X226145055Y-193642914D01*
X226073626Y-193714343D01*
X225930769Y-193785771D01*
X225573626Y-193785771D01*
X225430769Y-193714343D01*
X225359340Y-193642914D01*
D10*
D11*
X177002200Y-194507200D02*
X285002200Y-194507200D01*
D10*
D11*
X178359343Y-196585771D02*
X178359343Y-195085771D01*
X179216486Y-196585771D02*
X178573629Y-195728629D01*
X179216486Y-195085771D02*
X178359343Y-195942914D01*
X179859343Y-196585771D02*
X179859343Y-195585771D01*
X179859343Y-195085771D02*
X179787914Y-195157200D01*
X179859343Y-195228629D01*
X179930771Y-195157200D01*
X179859343Y-195085771D01*
X179859343Y-195228629D01*
X181430772Y-196442914D02*
X181359343Y-196514343D01*
X181145057Y-196585771D01*
X181002200Y-196585771D01*
X180787915Y-196514343D01*
X180645057Y-196371486D01*
X180573629Y-196228629D01*
X180502200Y-195942914D01*
X180502200Y-195728629D01*
X180573629Y-195442914D01*
X180645057Y-195300057D01*
X180787915Y-195157200D01*
X181002200Y-195085771D01*
X181145057Y-195085771D01*
X181359343Y-195157200D01*
X181430772Y-195228629D01*
X182716486Y-196585771D02*
X182716486Y-195800057D01*
X182645057Y-195657200D01*
X182502200Y-195585771D01*
X182216486Y-195585771D01*
X182073629Y-195657200D01*
X182716486Y-196514343D02*
X182573629Y-196585771D01*
X182216486Y-196585771D01*
X182073629Y-196514343D01*
X182002200Y-196371486D01*
X182002200Y-196228629D01*
X182073629Y-196085771D01*
X182216486Y-196014343D01*
X182573629Y-196014343D01*
X182716486Y-195942914D01*
X184073629Y-196585771D02*
X184073629Y-195085771D01*
X184073629Y-196514343D02*
X183930772Y-196585771D01*
X183645058Y-196585771D01*
X183502200Y-196514343D01*
X183430772Y-196442914D01*
X183359343Y-196300057D01*
X183359343Y-195871486D01*
X183430772Y-195728629D01*
X183502200Y-195657200D01*
X183645058Y-195585771D01*
X183930772Y-195585771D01*
X184073629Y-195657200D01*
X185930772Y-195800057D02*
X186430772Y-195800057D01*
X186645058Y-196585771D02*
X185930772Y-196585771D01*
X185930772Y-195085771D01*
X186645058Y-195085771D01*
X187287915Y-196442914D02*
X187359343Y-196514343D01*
X187287915Y-196585771D01*
X187216486Y-196514343D01*
X187287915Y-196442914D01*
X187287915Y-196585771D01*
X188002201Y-196585771D02*
X188002201Y-195085771D01*
X188359344Y-195085771D01*
X188573629Y-195157200D01*
X188716487Y-195300057D01*
X188787915Y-195442914D01*
X188859344Y-195728629D01*
X188859344Y-195942914D01*
X188787915Y-196228629D01*
X188716487Y-196371486D01*
X188573629Y-196514343D01*
X188359344Y-196585771D01*
X188002201Y-196585771D01*
X189502201Y-196442914D02*
X189573629Y-196514343D01*
X189502201Y-196585771D01*
X189430772Y-196514343D01*
X189502201Y-196442914D01*
X189502201Y-196585771D01*
X190145058Y-196157200D02*
X190859344Y-196157200D01*
X190002201Y-196585771D02*
X190502201Y-195085771D01*
X191002201Y-196585771D01*
X191502201Y-196442914D02*
X191573629Y-196514343D01*
X191502201Y-196585771D01*
X191430772Y-196514343D01*
X191502201Y-196442914D01*
X191502201Y-196585771D01*
X194502201Y-196585771D02*
X194502201Y-195085771D01*
X194645058Y-196014343D02*
X195073629Y-196585771D01*
X195073629Y-195585771D02*
X194502201Y-196157200D01*
X195716487Y-196585771D02*
X195716487Y-195585771D01*
X195716487Y-195085771D02*
X195645058Y-195157200D01*
X195716487Y-195228629D01*
X195787915Y-195157200D01*
X195716487Y-195085771D01*
X195716487Y-195228629D01*
X197073630Y-196514343D02*
X196930773Y-196585771D01*
X196645059Y-196585771D01*
X196502201Y-196514343D01*
X196430773Y-196442914D01*
X196359344Y-196300057D01*
X196359344Y-195871486D01*
X196430773Y-195728629D01*
X196502201Y-195657200D01*
X196645059Y-195585771D01*
X196930773Y-195585771D01*
X197073630Y-195657200D01*
X198359344Y-196585771D02*
X198359344Y-195800057D01*
X198287915Y-195657200D01*
X198145058Y-195585771D01*
X197859344Y-195585771D01*
X197716487Y-195657200D01*
X198359344Y-196514343D02*
X198216487Y-196585771D01*
X197859344Y-196585771D01*
X197716487Y-196514343D01*
X197645058Y-196371486D01*
X197645058Y-196228629D01*
X197716487Y-196085771D01*
X197859344Y-196014343D01*
X198216487Y-196014343D01*
X198359344Y-195942914D01*
X199716487Y-196585771D02*
X199716487Y-195085771D01*
X199716487Y-196514343D02*
X199573630Y-196585771D01*
X199287916Y-196585771D01*
X199145058Y-196514343D01*
X199073630Y-196442914D01*
X199002201Y-196300057D01*
X199002201Y-195871486D01*
X199073630Y-195728629D01*
X199145058Y-195657200D01*
X199287916Y-195585771D01*
X199573630Y-195585771D01*
X199716487Y-195657200D01*
X201859344Y-195085771D02*
X202002201Y-195085771D01*
X202145058Y-195157200D01*
X202216487Y-195228629D01*
X202287916Y-195371486D01*
X202359344Y-195657200D01*
X202359344Y-196014343D01*
X202287916Y-196300057D01*
X202216487Y-196442914D01*
X202145058Y-196514343D01*
X202002201Y-196585771D01*
X201859344Y-196585771D01*
X201716487Y-196514343D01*
X201645058Y-196442914D01*
X201573630Y-196300057D01*
X201502201Y-196014343D01*
X201502201Y-195657200D01*
X201573630Y-195371486D01*
X201645058Y-195228629D01*
X201716487Y-195157200D01*
X201859344Y-195085771D01*
X203002201Y-196442914D02*
X203073629Y-196514343D01*
X203002201Y-196585771D01*
X202930772Y-196514343D01*
X203002201Y-196442914D01*
X203002201Y-196585771D01*
X203645058Y-195228629D02*
X203716487Y-195157200D01*
X203859344Y-195085771D01*
X204216487Y-195085771D01*
X204359344Y-195157200D01*
X204430773Y-195228629D01*
X204502201Y-195371486D01*
X204502201Y-195514343D01*
X204430773Y-195728629D01*
X203573630Y-196585771D01*
X204502201Y-196585771D01*
X205430772Y-195085771D02*
X205573629Y-195085771D01*
X205716486Y-195157200D01*
X205787915Y-195228629D01*
X205859344Y-195371486D01*
X205930772Y-195657200D01*
X205930772Y-196014343D01*
X205859344Y-196300057D01*
X205787915Y-196442914D01*
X205716486Y-196514343D01*
X205573629Y-196585771D01*
X205430772Y-196585771D01*
X205287915Y-196514343D01*
X205216486Y-196442914D01*
X205145058Y-196300057D01*
X205073629Y-196014343D01*
X205073629Y-195657200D01*
X205145058Y-195371486D01*
X205216486Y-195228629D01*
X205287915Y-195157200D01*
X205430772Y-195085771D01*
X207359343Y-196585771D02*
X206502200Y-196585771D01*
X206930772Y-196585771D02*
X206930772Y-195085771D01*
X206787915Y-195300057D01*
X206645057Y-195442914D01*
X206502200Y-195514343D01*
X208716486Y-195085771D02*
X208002200Y-195085771D01*
X207930771Y-195800057D01*
X208002200Y-195728629D01*
X208145057Y-195657200D01*
X208502200Y-195657200D01*
X208645057Y-195728629D01*
X208716486Y-195800057D01*
X208787914Y-195942914D01*
X208787914Y-196300057D01*
X208716486Y-196442914D01*
X208645057Y-196514343D01*
X208502200Y-196585771D01*
X208145057Y-196585771D01*
X208002200Y-196514343D01*
X207930771Y-196442914D01*
X209716485Y-195085771D02*
X209859342Y-195085771D01*
X210002199Y-195157200D01*
X210073628Y-195228629D01*
X210145057Y-195371486D01*
X210216485Y-195657200D01*
X210216485Y-196014343D01*
X210145057Y-196300057D01*
X210073628Y-196442914D01*
X210002199Y-196514343D01*
X209859342Y-196585771D01*
X209716485Y-196585771D01*
X209573628Y-196514343D01*
X209502199Y-196442914D01*
X209430771Y-196300057D01*
X209359342Y-196014343D01*
X209359342Y-195657200D01*
X209430771Y-195371486D01*
X209502199Y-195228629D01*
X209573628Y-195157200D01*
X209716485Y-195085771D01*
X211502199Y-195085771D02*
X211216485Y-195085771D01*
X211073628Y-195157200D01*
X211002199Y-195228629D01*
X210859342Y-195442914D01*
X210787913Y-195728629D01*
X210787913Y-196300057D01*
X210859342Y-196442914D01*
X210930770Y-196514343D01*
X211073628Y-196585771D01*
X211359342Y-196585771D01*
X211502199Y-196514343D01*
X211573628Y-196442914D01*
X211645056Y-196300057D01*
X211645056Y-195942914D01*
X211573628Y-195800057D01*
X211502199Y-195728629D01*
X211359342Y-195657200D01*
X211073628Y-195657200D01*
X210930770Y-195728629D01*
X210859342Y-195800057D01*
X210787913Y-195942914D01*
X212573627Y-195085771D02*
X212716484Y-195085771D01*
X212859341Y-195157200D01*
X212930770Y-195228629D01*
X213002199Y-195371486D01*
X213073627Y-195657200D01*
X213073627Y-196014343D01*
X213002199Y-196300057D01*
X212930770Y-196442914D01*
X212859341Y-196514343D01*
X212716484Y-196585771D01*
X212573627Y-196585771D01*
X212430770Y-196514343D01*
X212359341Y-196442914D01*
X212287913Y-196300057D01*
X212216484Y-196014343D01*
X212216484Y-195657200D01*
X212287913Y-195371486D01*
X212359341Y-195228629D01*
X212430770Y-195157200D01*
X212573627Y-195085771D01*
X213787912Y-196585771D02*
X214073627Y-196585771D01*
X214216484Y-196514343D01*
X214287912Y-196442914D01*
X214430770Y-196228629D01*
X214502198Y-195942914D01*
X214502198Y-195371486D01*
X214430770Y-195228629D01*
X214359341Y-195157200D01*
X214216484Y-195085771D01*
X213930770Y-195085771D01*
X213787912Y-195157200D01*
X213716484Y-195228629D01*
X213645055Y-195371486D01*
X213645055Y-195728629D01*
X213716484Y-195871486D01*
X213787912Y-195942914D01*
X213930770Y-196014343D01*
X214216484Y-196014343D01*
X214359341Y-195942914D01*
X214430770Y-195871486D01*
X214502198Y-195728629D01*
X215073626Y-195228629D02*
X215145055Y-195157200D01*
X215287912Y-195085771D01*
X215645055Y-195085771D01*
X215787912Y-195157200D01*
X215859341Y-195228629D01*
X215930769Y-195371486D01*
X215930769Y-195514343D01*
X215859341Y-195728629D01*
X215002198Y-196585771D01*
X215930769Y-196585771D01*
X216502197Y-195228629D02*
X216573626Y-195157200D01*
X216716483Y-195085771D01*
X217073626Y-195085771D01*
X217216483Y-195157200D01*
X217287912Y-195228629D01*
X217359340Y-195371486D01*
X217359340Y-195514343D01*
X217287912Y-195728629D01*
X216430769Y-196585771D01*
X217359340Y-196585771D01*
X218716483Y-195085771D02*
X218002197Y-195085771D01*
X217930768Y-195800057D01*
X218002197Y-195728629D01*
X218145054Y-195657200D01*
X218502197Y-195657200D01*
X218645054Y-195728629D01*
X218716483Y-195800057D01*
X218787911Y-195942914D01*
X218787911Y-196300057D01*
X218716483Y-196442914D01*
X218645054Y-196514343D01*
X218502197Y-196585771D01*
X218145054Y-196585771D01*
X218002197Y-196514343D01*
X217930768Y-196442914D01*
X219287911Y-195085771D02*
X220216482Y-195085771D01*
X219716482Y-195657200D01*
X219930768Y-195657200D01*
X220073625Y-195728629D01*
X220145054Y-195800057D01*
X220216482Y-195942914D01*
X220216482Y-196300057D01*
X220145054Y-196442914D01*
X220073625Y-196514343D01*
X219930768Y-196585771D01*
X219502196Y-196585771D01*
X219359339Y-196514343D01*
X219287911Y-196442914D01*
X220859339Y-196014343D02*
X222002196Y-196014343D01*
X221430767Y-196585771D02*
X221430767Y-195442914D01*
X223430768Y-195085771D02*
X222716482Y-195085771D01*
X222645053Y-195800057D01*
X222716482Y-195728629D01*
X222859339Y-195657200D01*
X223216482Y-195657200D01*
X223359339Y-195728629D01*
X223430768Y-195800057D01*
X223502196Y-195942914D01*
X223502196Y-196300057D01*
X223430768Y-196442914D01*
X223359339Y-196514343D01*
X223216482Y-196585771D01*
X222859339Y-196585771D01*
X222716482Y-196514343D01*
X222645053Y-196442914D01*
X224002196Y-195085771D02*
X225002196Y-195085771D01*
X224359339Y-196585771D01*
X225502195Y-195228629D02*
X225573624Y-195157200D01*
X225716481Y-195085771D01*
X226073624Y-195085771D01*
X226216481Y-195157200D01*
X226287910Y-195228629D01*
X226359338Y-195371486D01*
X226359338Y-195514343D01*
X226287910Y-195728629D01*
X225430767Y-196585771D01*
X226359338Y-196585771D01*
X227645052Y-195085771D02*
X227359338Y-195085771D01*
X227216481Y-195157200D01*
X227145052Y-195228629D01*
X227002195Y-195442914D01*
X226930766Y-195728629D01*
X226930766Y-196300057D01*
X227002195Y-196442914D01*
X227073623Y-196514343D01*
X227216481Y-196585771D01*
X227502195Y-196585771D01*
X227645052Y-196514343D01*
X227716481Y-196442914D01*
X227787909Y-196300057D01*
X227787909Y-195942914D01*
X227716481Y-195800057D01*
X227645052Y-195728629D01*
X227502195Y-195657200D01*
X227216481Y-195657200D01*
X227073623Y-195728629D01*
X227002195Y-195800057D01*
X226930766Y-195942914D01*
X228359337Y-195228629D02*
X228430766Y-195157200D01*
X228573623Y-195085771D01*
X228930766Y-195085771D01*
X229073623Y-195157200D01*
X229145052Y-195228629D01*
X229216480Y-195371486D01*
X229216480Y-195514343D01*
X229145052Y-195728629D01*
X228287909Y-196585771D01*
X229216480Y-196585771D01*
X229716480Y-195085771D02*
X230645051Y-195085771D01*
X230145051Y-195657200D01*
X230359337Y-195657200D01*
X230502194Y-195728629D01*
X230573623Y-195800057D01*
X230645051Y-195942914D01*
X230645051Y-196300057D01*
X230573623Y-196442914D01*
X230502194Y-196514343D01*
X230359337Y-196585771D01*
X229930765Y-196585771D01*
X229787908Y-196514343D01*
X229716480Y-196442914D01*
X228073623Y-194827200D02*
X230930765Y-194827200D01*
X231930765Y-195585771D02*
X231930765Y-196585771D01*
X231287908Y-195585771D02*
X231287908Y-196371486D01*
X231359336Y-196514343D01*
X231502194Y-196585771D01*
X231716479Y-196585771D01*
X231859336Y-196514343D01*
X231930765Y-196442914D01*
X232645051Y-196585771D02*
X232645051Y-195085771D01*
X232645051Y-195657200D02*
X232787908Y-195585771D01*
X233073622Y-195585771D01*
X233216479Y-195657200D01*
X233287908Y-195728629D01*
X233359337Y-195871486D01*
X233359337Y-196300057D01*
X233287908Y-196442914D01*
X233216479Y-196514343D01*
X233073622Y-196585771D01*
X232787908Y-196585771D01*
X232645051Y-196514343D01*
X234645051Y-195585771D02*
X234645051Y-196585771D01*
X234002194Y-195585771D02*
X234002194Y-196371486D01*
X234073622Y-196514343D01*
X234216480Y-196585771D01*
X234430765Y-196585771D01*
X234573622Y-196514343D01*
X234645051Y-196442914D01*
X235359337Y-195585771D02*
X235359337Y-196585771D01*
X235359337Y-195728629D02*
X235430765Y-195657200D01*
X235573623Y-195585771D01*
X235787908Y-195585771D01*
X235930765Y-195657200D01*
X236002194Y-195800057D01*
X236002194Y-196585771D01*
X236502194Y-195585771D02*
X237073623Y-195585771D01*
X236716480Y-195085771D02*
X236716480Y-196371486D01*
X236787908Y-196514343D01*
X236930766Y-196585771D01*
X237073623Y-196585771D01*
X238216480Y-195585771D02*
X238216480Y-196585771D01*
X237573623Y-195585771D02*
X237573623Y-196371486D01*
X237645051Y-196514343D01*
X237787909Y-196585771D01*
X238002194Y-196585771D01*
X238145051Y-196514343D01*
X238216480Y-196442914D01*
X239716480Y-196585771D02*
X238859337Y-196585771D01*
X239287909Y-196585771D02*
X239287909Y-195085771D01*
X239145052Y-195300057D01*
X239002194Y-195442914D01*
X238859337Y-195514343D01*
X241073623Y-195085771D02*
X240359337Y-195085771D01*
X240287908Y-195800057D01*
X240359337Y-195728629D01*
X240502194Y-195657200D01*
X240859337Y-195657200D01*
X241002194Y-195728629D01*
X241073623Y-195800057D01*
X241145051Y-195942914D01*
X241145051Y-196300057D01*
X241073623Y-196442914D01*
X241002194Y-196514343D01*
X240859337Y-196585771D01*
X240502194Y-196585771D01*
X240359337Y-196514343D01*
X240287908Y-196442914D01*
X241787908Y-196442914D02*
X241859336Y-196514343D01*
X241787908Y-196585771D01*
X241716479Y-196514343D01*
X241787908Y-196442914D01*
X241787908Y-196585771D01*
X242787908Y-195085771D02*
X242930765Y-195085771D01*
X243073622Y-195157200D01*
X243145051Y-195228629D01*
X243216480Y-195371486D01*
X243287908Y-195657200D01*
X243287908Y-196014343D01*
X243216480Y-196300057D01*
X243145051Y-196442914D01*
X243073622Y-196514343D01*
X242930765Y-196585771D01*
X242787908Y-196585771D01*
X242645051Y-196514343D01*
X242573622Y-196442914D01*
X242502194Y-196300057D01*
X242430765Y-196014343D01*
X242430765Y-195657200D01*
X242502194Y-195371486D01*
X242573622Y-195228629D01*
X242645051Y-195157200D01*
X242787908Y-195085771D01*
X244573622Y-195585771D02*
X244573622Y-196585771D01*
X244216479Y-195014343D02*
X243859336Y-196085771D01*
X244787908Y-196085771D01*
X245359336Y-196442914D02*
X245430764Y-196514343D01*
X245359336Y-196585771D01*
X245287907Y-196514343D01*
X245359336Y-196442914D01*
X245359336Y-196585771D01*
X246859336Y-196585771D02*
X246002193Y-196585771D01*
X246430765Y-196585771D02*
X246430765Y-195085771D01*
X246287908Y-195300057D01*
X246145050Y-195442914D01*
X246002193Y-195514343D01*
X247502193Y-196014343D02*
X248645050Y-196014343D01*
X249359336Y-195585771D02*
X249359336Y-197085771D01*
X249359336Y-195657200D02*
X249502193Y-195585771D01*
X249787907Y-195585771D01*
X249930764Y-195657200D01*
X250002193Y-195728629D01*
X250073622Y-195871486D01*
X250073622Y-196300057D01*
X250002193Y-196442914D01*
X249930764Y-196514343D01*
X249787907Y-196585771D01*
X249502193Y-196585771D01*
X249359336Y-196514343D01*
X250716479Y-196585771D02*
X250716479Y-195585771D01*
X250716479Y-195871486D02*
X250787907Y-195728629D01*
X250859336Y-195657200D01*
X251002193Y-195585771D01*
X251145050Y-195585771D01*
X251859336Y-196585771D02*
X251716478Y-196514343D01*
X251645050Y-196442914D01*
X251573621Y-196300057D01*
X251573621Y-195871486D01*
X251645050Y-195728629D01*
X251716478Y-195657200D01*
X251859336Y-195585771D01*
X252073621Y-195585771D01*
X252216478Y-195657200D01*
X252287907Y-195728629D01*
X252359336Y-195871486D01*
X252359336Y-196300057D01*
X252287907Y-196442914D01*
X252216478Y-196514343D01*
X252073621Y-196585771D01*
X251859336Y-196585771D01*
X253645050Y-196585771D02*
X253645050Y-195085771D01*
X253645050Y-196514343D02*
X253502193Y-196585771D01*
X253216479Y-196585771D01*
X253073621Y-196514343D01*
X253002193Y-196442914D01*
X252930764Y-196300057D01*
X252930764Y-195871486D01*
X253002193Y-195728629D01*
X253073621Y-195657200D01*
X253216479Y-195585771D01*
X253502193Y-195585771D01*
X253645050Y-195657200D01*
X255002193Y-195585771D02*
X255002193Y-196585771D01*
X254359336Y-195585771D02*
X254359336Y-196371486D01*
X254430764Y-196514343D01*
X254573622Y-196585771D01*
X254787907Y-196585771D01*
X254930764Y-196514343D01*
X255002193Y-196442914D01*
X256359336Y-196514343D02*
X256216479Y-196585771D01*
X255930765Y-196585771D01*
X255787907Y-196514343D01*
X255716479Y-196442914D01*
X255645050Y-196300057D01*
X255645050Y-195871486D01*
X255716479Y-195728629D01*
X255787907Y-195657200D01*
X255930765Y-195585771D01*
X256216479Y-195585771D01*
X256359336Y-195657200D01*
X256787907Y-195585771D02*
X257359336Y-195585771D01*
X257002193Y-195085771D02*
X257002193Y-196371486D01*
X257073621Y-196514343D01*
X257216479Y-196585771D01*
X257359336Y-196585771D01*
D10*
D11*
X177002200Y-191507200D02*
X285002200Y-191507200D01*
D10*
D12*
X264216486Y-193785771D02*
X263716486Y-193071486D01*
X263359343Y-193785771D02*
X263359343Y-192285771D01*
X263930771Y-192285771D01*
X264073629Y-192357200D01*
X264145057Y-192428629D01*
X264216486Y-192571486D01*
X264216486Y-192785771D01*
X264145057Y-192928629D01*
X264073629Y-193000057D01*
X263930771Y-193071486D01*
X263359343Y-193071486D01*
X265430771Y-193714343D02*
X265287914Y-193785771D01*
X265002200Y-193785771D01*
X264859343Y-193714343D01*
X264787914Y-193571486D01*
X264787914Y-193000057D01*
X264859343Y-192857200D01*
X265002200Y-192785771D01*
X265287914Y-192785771D01*
X265430771Y-192857200D01*
X265502200Y-193000057D01*
X265502200Y-193142914D01*
X264787914Y-193285771D01*
X266002200Y-192785771D02*
X266359343Y-193785771D01*
X266716485Y-192785771D01*
X267287914Y-193642914D02*
X267359342Y-193714343D01*
X267287914Y-193785771D01*
X267216485Y-193714343D01*
X267287914Y-193642914D01*
X267287914Y-193785771D01*
X267287914Y-192857200D02*
X267359342Y-192928629D01*
X267287914Y-193000057D01*
X267216485Y-192928629D01*
X267287914Y-192857200D01*
X267287914Y-193000057D01*
X269930771Y-193785771D02*
X269073628Y-193785771D01*
X269502200Y-193785771D02*
X269502200Y-192285771D01*
X269359343Y-192500057D01*
X269216485Y-192642914D01*
X269073628Y-192714343D01*
X270573628Y-193642914D02*
X270645056Y-193714343D01*
X270573628Y-193785771D01*
X270502199Y-193714343D01*
X270573628Y-193642914D01*
X270573628Y-193785771D01*
X271930771Y-192785771D02*
X271930771Y-193785771D01*
X271573628Y-192214343D02*
X271216485Y-193285771D01*
X272145057Y-193285771D01*
D10*
D11*
X178287914Y-193714343D02*
X178502200Y-193785771D01*
X178859343Y-193785771D01*
X179002200Y-193714343D01*
X179073629Y-193642914D01*
X179145057Y-193500057D01*
X179145057Y-193357200D01*
X179073629Y-193214343D01*
X179002200Y-193142914D01*
X178859343Y-193071486D01*
X178573629Y-193000057D01*
X178430771Y-192928629D01*
X178359343Y-192857200D01*
X178287914Y-192714343D01*
X178287914Y-192571486D01*
X178359343Y-192428629D01*
X178430771Y-192357200D01*
X178573629Y-192285771D01*
X178930771Y-192285771D01*
X179145057Y-192357200D01*
X179787914Y-193785771D02*
X179787914Y-192785771D01*
X179787914Y-192285771D02*
X179716485Y-192357200D01*
X179787914Y-192428629D01*
X179859342Y-192357200D01*
X179787914Y-192285771D01*
X179787914Y-192428629D01*
X180359343Y-192785771D02*
X181145057Y-192785771D01*
X180359343Y-193785771D01*
X181145057Y-193785771D01*
X182287914Y-193714343D02*
X182145057Y-193785771D01*
X181859343Y-193785771D01*
X181716486Y-193714343D01*
X181645057Y-193571486D01*
X181645057Y-193000057D01*
X181716486Y-192857200D01*
X181859343Y-192785771D01*
X182145057Y-192785771D01*
X182287914Y-192857200D01*
X182359343Y-193000057D01*
X182359343Y-193142914D01*
X181645057Y-193285771D01*
X183002200Y-193642914D02*
X183073628Y-193714343D01*
X183002200Y-193785771D01*
X182930771Y-193714343D01*
X183002200Y-193642914D01*
X183002200Y-193785771D01*
X183002200Y-192857200D02*
X183073628Y-192928629D01*
X183002200Y-193000057D01*
X182930771Y-192928629D01*
X183002200Y-192857200D01*
X183002200Y-193000057D01*
X184787914Y-193357200D02*
X185502200Y-193357200D01*
X184645057Y-193785771D02*
X185145057Y-192285771D01*
X185645057Y-193785771D01*
X186787914Y-192785771D02*
X186787914Y-193785771D01*
X186430771Y-192214343D02*
X186073628Y-193285771D01*
X187002200Y-193285771D01*
D10*
D11*
X263359343Y-196585771D02*
X263359343Y-195085771D01*
X264716486Y-196585771D02*
X264716486Y-195085771D01*
X264716486Y-196514343D02*
X264573629Y-196585771D01*
X264287915Y-196585771D01*
X264145057Y-196514343D01*
X264073629Y-196442914D01*
X264002200Y-196300057D01*
X264002200Y-195871486D01*
X264073629Y-195728629D01*
X264145057Y-195657200D01*
X264287915Y-195585771D01*
X264573629Y-195585771D01*
X264716486Y-195657200D01*
X265430772Y-196442914D02*
X265502200Y-196514343D01*
X265430772Y-196585771D01*
X265359343Y-196514343D01*
X265430772Y-196442914D01*
X265430772Y-196585771D01*
X265430772Y-195657200D02*
X265502200Y-195728629D01*
X265430772Y-195800057D01*
X265359343Y-195728629D01*
X265430772Y-195657200D01*
X265430772Y-195800057D01*
X268073629Y-196585771D02*
X267216486Y-196585771D01*
X267645058Y-196585771D02*
X267645058Y-195085771D01*
X267502201Y-195300057D01*
X267359343Y-195442914D01*
X267216486Y-195514343D01*
X269787914Y-195014343D02*
X268502200Y-196942914D01*
X271073629Y-196585771D02*
X270216486Y-196585771D01*
X270645058Y-196585771D02*
X270645058Y-195085771D01*
X270502201Y-195300057D01*
X270359343Y-195442914D01*
X270216486Y-195514343D01*
D10*
D11*
X177002200Y-187507200D02*
X285002200Y-187507200D01*
D10*
D13*
X178454581Y-188211962D02*
X179597438Y-188211962D01*
X178776010Y-190211962D02*
X179026010Y-188211962D01*
X180014105Y-190211962D02*
X180180771Y-188878629D01*
X180264105Y-188211962D02*
X180156962Y-188307200D01*
X180240295Y-188402438D01*
X180347439Y-188307200D01*
X180264105Y-188211962D01*
X180240295Y-188402438D01*
X180847438Y-188878629D02*
X181609343Y-188878629D01*
X181216486Y-188211962D02*
X181002200Y-189926248D01*
X181073630Y-190116724D01*
X181252201Y-190211962D01*
X181442677Y-190211962D01*
X182395058Y-190211962D02*
X182216487Y-190116724D01*
X182145057Y-189926248D01*
X182359343Y-188211962D01*
X183930772Y-190116724D02*
X183728391Y-190211962D01*
X183347439Y-190211962D01*
X183168867Y-190116724D01*
X183097438Y-189926248D01*
X183192676Y-189164343D01*
X183311724Y-188973867D01*
X183514105Y-188878629D01*
X183895057Y-188878629D01*
X184073629Y-188973867D01*
X184145057Y-189164343D01*
X184121248Y-189354819D01*
X183145057Y-189545295D01*
X184895057Y-190021486D02*
X184978392Y-190116724D01*
X184871248Y-190211962D01*
X184787915Y-190116724D01*
X184895057Y-190021486D01*
X184871248Y-190211962D01*
X185026010Y-188973867D02*
X185109344Y-189069105D01*
X185002200Y-189164343D01*
X184918867Y-189069105D01*
X185026010Y-188973867D01*
X185002200Y-189164343D01*
X187323629Y-189640533D02*
X188276010Y-189640533D01*
X187061725Y-190211962D02*
X187978392Y-188211962D01*
X188395059Y-190211962D01*
X189061725Y-190211962D02*
X189228391Y-188878629D01*
X189180772Y-189259581D02*
X189299821Y-189069105D01*
X189406964Y-188973867D01*
X189609344Y-188878629D01*
X189799820Y-188878629D01*
X191156963Y-190211962D02*
X191406963Y-188211962D01*
X191168868Y-190116724D02*
X190966487Y-190211962D01*
X190585535Y-190211962D01*
X190406964Y-190116724D01*
X190323629Y-190021486D01*
X190252201Y-189831010D01*
X190323629Y-189259581D01*
X190442677Y-189069105D01*
X190549821Y-188973867D01*
X190752201Y-188878629D01*
X191133153Y-188878629D01*
X191311725Y-188973867D01*
X193133153Y-188878629D02*
X192966487Y-190211962D01*
X192276010Y-188878629D02*
X192145058Y-189926248D01*
X192216488Y-190116724D01*
X192395059Y-190211962D01*
X192680773Y-190211962D01*
X192883154Y-190116724D01*
X192990296Y-190021486D01*
X194049820Y-188402438D02*
X194156963Y-188307200D01*
X194359345Y-188211962D01*
X194835535Y-188211962D01*
X195014106Y-188307200D01*
X195097439Y-188402438D01*
X195168869Y-188592914D01*
X195145059Y-188783390D01*
X195014106Y-189069105D01*
X193728392Y-190211962D01*
X194966488Y-190211962D01*
X197347440Y-190211962D02*
X197597440Y-188211962D01*
X198085535Y-189640533D01*
X198930774Y-188211962D01*
X198680774Y-190211962D01*
X199609344Y-189640533D02*
X200561725Y-189640533D01*
X199347440Y-190211962D02*
X200264107Y-188211962D01*
X200680774Y-190211962D01*
X201406964Y-188211962D02*
X202490298Y-190211962D01*
X202740298Y-188211962D02*
X201156964Y-190211962D01*
X203311726Y-188211962D02*
X204549822Y-188211962D01*
X203787917Y-188973867D01*
X204073631Y-188973867D01*
X204252202Y-189069105D01*
X204335535Y-189164343D01*
X204406965Y-189354819D01*
X204347441Y-189831010D01*
X204228392Y-190021486D01*
X204121250Y-190116724D01*
X203918869Y-190211962D01*
X203347441Y-190211962D01*
X203168869Y-190116724D01*
X203085535Y-190021486D01*
X205252203Y-190211962D02*
X205633155Y-190211962D01*
X205835536Y-190116724D01*
X205942678Y-190021486D01*
X206168869Y-189735771D01*
X206311727Y-189354819D01*
X206406965Y-188592914D01*
X206335535Y-188402438D01*
X206252202Y-188307200D01*
X206073631Y-188211962D01*
X205692679Y-188211962D01*
X205490298Y-188307200D01*
X205383154Y-188402438D01*
X205264107Y-188592914D01*
X205204583Y-189069105D01*
X205276011Y-189259581D01*
X205359346Y-189354819D01*
X205537917Y-189450057D01*
X205918869Y-189450057D01*
X206121250Y-189354819D01*
X206228392Y-189259581D01*
X206347441Y-189069105D01*
X208264107Y-188211962D02*
X207311726Y-188211962D01*
X207097440Y-189164343D01*
X207204583Y-189069105D01*
X207406965Y-188973867D01*
X207883155Y-188973867D01*
X208061726Y-189069105D01*
X208145059Y-189164343D01*
X208216489Y-189354819D01*
X208156965Y-189831010D01*
X208037916Y-190021486D01*
X207930774Y-190116724D01*
X207728393Y-190211962D01*
X207252203Y-190211962D01*
X207073631Y-190116724D01*
X206990297Y-190021486D01*
X211287917Y-189164343D02*
X210621250Y-189164343D01*
X210490298Y-190211962D02*
X210740298Y-188211962D01*
X211692679Y-188211962D01*
X213228393Y-188878629D02*
X213061727Y-190211962D01*
X212371250Y-188878629D02*
X212240298Y-189926248D01*
X212311728Y-190116724D01*
X212490299Y-190211962D01*
X212776013Y-190211962D01*
X212978394Y-190116724D01*
X213085536Y-190021486D01*
X214299823Y-190211962D02*
X214121252Y-190116724D01*
X214049822Y-189926248D01*
X214264108Y-188211962D01*
X215347442Y-190211962D02*
X215168871Y-190116724D01*
X215097441Y-189926248D01*
X215311727Y-188211962D01*
X218799823Y-190021486D02*
X218692681Y-190116724D01*
X218395061Y-190211962D01*
X218204585Y-190211962D01*
X217930776Y-190116724D01*
X217764109Y-189926248D01*
X217692680Y-189735771D01*
X217645061Y-189354819D01*
X217680775Y-189069105D01*
X217823632Y-188688152D01*
X217942681Y-188497676D01*
X218156966Y-188307200D01*
X218454585Y-188211962D01*
X218645061Y-188211962D01*
X218918871Y-188307200D01*
X219002204Y-188402438D01*
X219633156Y-190211962D02*
X219799822Y-188878629D01*
X219883156Y-188211962D02*
X219776013Y-188307200D01*
X219859346Y-188402438D01*
X219966490Y-188307200D01*
X219883156Y-188211962D01*
X219859346Y-188402438D01*
X220585537Y-190211962D02*
X220752203Y-188878629D01*
X220704584Y-189259581D02*
X220823633Y-189069105D01*
X220930776Y-188973867D01*
X221133156Y-188878629D01*
X221323632Y-188878629D01*
X222692680Y-190116724D02*
X222490299Y-190211962D01*
X222109347Y-190211962D01*
X221930776Y-190116724D01*
X221847441Y-190021486D01*
X221776013Y-189831010D01*
X221847441Y-189259581D01*
X221966489Y-189069105D01*
X222073633Y-188973867D01*
X222276013Y-188878629D01*
X222656965Y-188878629D01*
X222835537Y-188973867D01*
X224561727Y-188878629D02*
X224395061Y-190211962D01*
X223704584Y-188878629D02*
X223573632Y-189926248D01*
X223645062Y-190116724D01*
X223823633Y-190211962D01*
X224109347Y-190211962D01*
X224311728Y-190116724D01*
X224418870Y-190021486D01*
X225347442Y-190211962D02*
X225514108Y-188878629D01*
X225597442Y-188211962D02*
X225490299Y-188307200D01*
X225573632Y-188402438D01*
X225680776Y-188307200D01*
X225597442Y-188211962D01*
X225573632Y-188402438D01*
X226180775Y-188878629D02*
X226942680Y-188878629D01*
X226549823Y-188211962D02*
X226335537Y-189926248D01*
X226406967Y-190116724D01*
X226585538Y-190211962D01*
X226776014Y-190211962D01*
D10*
D11*
X178859343Y-185600057D02*
X178359343Y-185600057D01*
X178359343Y-186385771D02*
X178359343Y-184885771D01*
X179073629Y-184885771D01*
X179645057Y-186385771D02*
X179645057Y-185385771D01*
X179645057Y-184885771D02*
X179573628Y-184957200D01*
X179645057Y-185028629D01*
X179716485Y-184957200D01*
X179645057Y-184885771D01*
X179645057Y-185028629D01*
X180573629Y-186385771D02*
X180430771Y-186314343D01*
X180359343Y-186171486D01*
X180359343Y-184885771D01*
X181716485Y-186314343D02*
X181573628Y-186385771D01*
X181287914Y-186385771D01*
X181145057Y-186314343D01*
X181073628Y-186171486D01*
X181073628Y-185600057D01*
X181145057Y-185457200D01*
X181287914Y-185385771D01*
X181573628Y-185385771D01*
X181716485Y-185457200D01*
X181787914Y-185600057D01*
X181787914Y-185742914D01*
X181073628Y-185885771D01*
X182430771Y-186242914D02*
X182502199Y-186314343D01*
X182430771Y-186385771D01*
X182359342Y-186314343D01*
X182430771Y-186242914D01*
X182430771Y-186385771D01*
X182430771Y-185457200D02*
X182502199Y-185528629D01*
X182430771Y-185600057D01*
X182359342Y-185528629D01*
X182430771Y-185457200D01*
X182430771Y-185600057D01*
X184073628Y-185385771D02*
X184645057Y-185385771D01*
X184287914Y-186385771D02*
X184287914Y-185100057D01*
X184359342Y-184957200D01*
X184502200Y-184885771D01*
X184645057Y-184885771D01*
X185787914Y-185385771D02*
X185787914Y-186385771D01*
X185145057Y-185385771D02*
X185145057Y-186171486D01*
X185216485Y-186314343D01*
X185359343Y-186385771D01*
X185573628Y-186385771D01*
X185716485Y-186314343D01*
X185787914Y-186242914D01*
X186716486Y-186385771D02*
X186573628Y-186314343D01*
X186502200Y-186171486D01*
X186502200Y-184885771D01*
X187502200Y-186385771D02*
X187359342Y-186314343D01*
X187287914Y-186171486D01*
X187287914Y-184885771D01*
X188930771Y-186242914D02*
X188859342Y-186314343D01*
X188645056Y-186385771D01*
X188502199Y-186385771D01*
X188287914Y-186314343D01*
X188145056Y-186171486D01*
X188073628Y-186028629D01*
X188002199Y-185742914D01*
X188002199Y-185528629D01*
X188073628Y-185242914D01*
X188145056Y-185100057D01*
X188287914Y-184957200D01*
X188502199Y-184885771D01*
X188645056Y-184885771D01*
X188859342Y-184957200D01*
X188930771Y-185028629D01*
X189573628Y-186385771D02*
X189573628Y-185385771D01*
X189573628Y-184885771D02*
X189502199Y-184957200D01*
X189573628Y-185028629D01*
X189645056Y-184957200D01*
X189573628Y-184885771D01*
X189573628Y-185028629D01*
X190287914Y-186385771D02*
X190287914Y-185385771D01*
X190287914Y-185671486D02*
X190359342Y-185528629D01*
X190430771Y-185457200D01*
X190573628Y-185385771D01*
X190716485Y-185385771D01*
X191859342Y-186314343D02*
X191716485Y-186385771D01*
X191430771Y-186385771D01*
X191287913Y-186314343D01*
X191216485Y-186242914D01*
X191145056Y-186100057D01*
X191145056Y-185671486D01*
X191216485Y-185528629D01*
X191287913Y-185457200D01*
X191430771Y-185385771D01*
X191716485Y-185385771D01*
X191859342Y-185457200D01*
X193145056Y-185385771D02*
X193145056Y-186385771D01*
X192502199Y-185385771D02*
X192502199Y-186171486D01*
X192573627Y-186314343D01*
X192716485Y-186385771D01*
X192930770Y-186385771D01*
X193073627Y-186314343D01*
X193145056Y-186242914D01*
X193859342Y-186385771D02*
X193859342Y-185385771D01*
X193859342Y-184885771D02*
X193787913Y-184957200D01*
X193859342Y-185028629D01*
X193930770Y-184957200D01*
X193859342Y-184885771D01*
X193859342Y-185028629D01*
X194359342Y-185385771D02*
X194930771Y-185385771D01*
X194573628Y-184885771D02*
X194573628Y-186171486D01*
X194645056Y-186314343D01*
X194787914Y-186385771D01*
X194930771Y-186385771D01*
X195430771Y-186242914D02*
X195502199Y-186314343D01*
X195430771Y-186385771D01*
X195359342Y-186314343D01*
X195430771Y-186242914D01*
X195430771Y-186385771D01*
X196145057Y-186385771D02*
X196145057Y-184885771D01*
X196287914Y-185814343D02*
X196716485Y-186385771D01*
X196716485Y-185385771D02*
X196145057Y-185957200D01*
X197359343Y-186385771D02*
X197359343Y-185385771D01*
X197359343Y-184885771D02*
X197287914Y-184957200D01*
X197359343Y-185028629D01*
X197430771Y-184957200D01*
X197359343Y-184885771D01*
X197359343Y-185028629D01*
X198716486Y-186314343D02*
X198573629Y-186385771D01*
X198287915Y-186385771D01*
X198145057Y-186314343D01*
X198073629Y-186242914D01*
X198002200Y-186100057D01*
X198002200Y-185671486D01*
X198073629Y-185528629D01*
X198145057Y-185457200D01*
X198287915Y-185385771D01*
X198573629Y-185385771D01*
X198716486Y-185457200D01*
X200002200Y-186385771D02*
X200002200Y-185600057D01*
X199930771Y-185457200D01*
X199787914Y-185385771D01*
X199502200Y-185385771D01*
X199359343Y-185457200D01*
X200002200Y-186314343D02*
X199859343Y-186385771D01*
X199502200Y-186385771D01*
X199359343Y-186314343D01*
X199287914Y-186171486D01*
X199287914Y-186028629D01*
X199359343Y-185885771D01*
X199502200Y-185814343D01*
X199859343Y-185814343D01*
X200002200Y-185742914D01*
X201359343Y-186385771D02*
X201359343Y-184885771D01*
X201359343Y-186314343D02*
X201216486Y-186385771D01*
X200930772Y-186385771D01*
X200787914Y-186314343D01*
X200716486Y-186242914D01*
X200645057Y-186100057D01*
X200645057Y-185671486D01*
X200716486Y-185528629D01*
X200787914Y-185457200D01*
X200930772Y-185385771D01*
X201216486Y-185385771D01*
X201359343Y-185457200D01*
X201716486Y-186528629D02*
X202859343Y-186528629D01*
X203216486Y-185385771D02*
X203216486Y-186885771D01*
X203216486Y-185457200D02*
X203359343Y-185385771D01*
X203645057Y-185385771D01*
X203787914Y-185457200D01*
X203859343Y-185528629D01*
X203930772Y-185671486D01*
X203930772Y-186100057D01*
X203859343Y-186242914D01*
X203787914Y-186314343D01*
X203645057Y-186385771D01*
X203359343Y-186385771D01*
X203216486Y-186314343D01*
X205216486Y-186314343D02*
X205073629Y-186385771D01*
X204787915Y-186385771D01*
X204645057Y-186314343D01*
X204573629Y-186242914D01*
X204502200Y-186100057D01*
X204502200Y-185671486D01*
X204573629Y-185528629D01*
X204645057Y-185457200D01*
X204787915Y-185385771D01*
X205073629Y-185385771D01*
X205216486Y-185457200D01*
X205859343Y-186385771D02*
X205859343Y-184885771D01*
X205859343Y-185457200D02*
X206002200Y-185385771D01*
X206287914Y-185385771D01*
X206430771Y-185457200D01*
X206502200Y-185528629D01*
X206573629Y-185671486D01*
X206573629Y-186100057D01*
X206502200Y-186242914D01*
X206430771Y-186314343D01*
X206287914Y-186385771D01*
X206002200Y-186385771D01*
X205859343Y-186314343D01*
D10*
D11*
X177002200Y-181507200D02*
X285002200Y-181507200D01*
D10*
D11*
X178287914Y-183614343D02*
X178502200Y-183685771D01*
X178859343Y-183685771D01*
X179002200Y-183614343D01*
X179073629Y-183542914D01*
X179145057Y-183400057D01*
X179145057Y-183257200D01*
X179073629Y-183114343D01*
X179002200Y-183042914D01*
X178859343Y-182971486D01*
X178573629Y-182900057D01*
X178430771Y-182828629D01*
X178359343Y-182757200D01*
X178287914Y-182614343D01*
X178287914Y-182471486D01*
X178359343Y-182328629D01*
X178430771Y-182257200D01*
X178573629Y-182185771D01*
X178930771Y-182185771D01*
X179145057Y-182257200D01*
X179787914Y-183685771D02*
X179787914Y-182185771D01*
X180430771Y-183685771D02*
X180430771Y-182900057D01*
X180359342Y-182757200D01*
X180216485Y-182685771D01*
X180002200Y-182685771D01*
X179859342Y-182757200D01*
X179787914Y-182828629D01*
X181716485Y-183614343D02*
X181573628Y-183685771D01*
X181287914Y-183685771D01*
X181145057Y-183614343D01*
X181073628Y-183471486D01*
X181073628Y-182900057D01*
X181145057Y-182757200D01*
X181287914Y-182685771D01*
X181573628Y-182685771D01*
X181716485Y-182757200D01*
X181787914Y-182900057D01*
X181787914Y-183042914D01*
X181073628Y-183185771D01*
X183002199Y-183614343D02*
X182859342Y-183685771D01*
X182573628Y-183685771D01*
X182430771Y-183614343D01*
X182359342Y-183471486D01*
X182359342Y-182900057D01*
X182430771Y-182757200D01*
X182573628Y-182685771D01*
X182859342Y-182685771D01*
X183002199Y-182757200D01*
X183073628Y-182900057D01*
X183073628Y-183042914D01*
X182359342Y-183185771D01*
X183502199Y-182685771D02*
X184073628Y-182685771D01*
X183716485Y-182185771D02*
X183716485Y-183471486D01*
X183787913Y-183614343D01*
X183930771Y-183685771D01*
X184073628Y-183685771D01*
X184573628Y-183542914D02*
X184645056Y-183614343D01*
X184573628Y-183685771D01*
X184502199Y-183614343D01*
X184573628Y-183542914D01*
X184573628Y-183685771D01*
X184573628Y-182757200D02*
X184645056Y-182828629D01*
X184573628Y-182900057D01*
X184502199Y-182828629D01*
X184573628Y-182757200D01*
X184573628Y-182900057D01*
D10*
D12*
X178216486Y-179685771D02*
X178502200Y-180685771D01*
X178787914Y-179971486D01*
X179073629Y-180685771D01*
X179359343Y-179685771D01*
X179787915Y-179685771D02*
X180073629Y-180685771D01*
X180359343Y-179971486D01*
X180645058Y-180685771D01*
X180930772Y-179685771D01*
X181359344Y-179685771D02*
X181645058Y-180685771D01*
X181930772Y-179971486D01*
X182216487Y-180685771D01*
X182502201Y-179685771D01*
X183073630Y-180542914D02*
X183145058Y-180614343D01*
X183073630Y-180685771D01*
X183002201Y-180614343D01*
X183073630Y-180542914D01*
X183073630Y-180685771D01*
X184430773Y-180685771D02*
X184430773Y-179900057D01*
X184359344Y-179757200D01*
X184216487Y-179685771D01*
X183930773Y-179685771D01*
X183787916Y-179757200D01*
X184430773Y-180614343D02*
X184287916Y-180685771D01*
X183930773Y-180685771D01*
X183787916Y-180614343D01*
X183716487Y-180471486D01*
X183716487Y-180328629D01*
X183787916Y-180185771D01*
X183930773Y-180114343D01*
X184287916Y-180114343D01*
X184430773Y-180042914D01*
X185145059Y-180685771D02*
X185145059Y-179685771D01*
X185145059Y-179971486D02*
X185216487Y-179828629D01*
X185287916Y-179757200D01*
X185430773Y-179685771D01*
X185573630Y-179685771D01*
X186716487Y-180685771D02*
X186716487Y-179185771D01*
X186716487Y-180614343D02*
X186573630Y-180685771D01*
X186287916Y-180685771D01*
X186145058Y-180614343D01*
X186073630Y-180542914D01*
X186002201Y-180400057D01*
X186002201Y-179971486D01*
X186073630Y-179828629D01*
X186145058Y-179757200D01*
X186287916Y-179685771D01*
X186573630Y-179685771D01*
X186716487Y-179757200D01*
X188073630Y-179685771D02*
X188073630Y-180685771D01*
X187430773Y-179685771D02*
X187430773Y-180471486D01*
X187502201Y-180614343D01*
X187645059Y-180685771D01*
X187859344Y-180685771D01*
X188002201Y-180614343D01*
X188073630Y-180542914D01*
X189430773Y-179685771D02*
X189430773Y-180900057D01*
X189359344Y-181042914D01*
X189287916Y-181114343D01*
X189145059Y-181185771D01*
X188930773Y-181185771D01*
X188787916Y-181114343D01*
X189430773Y-180614343D02*
X189287916Y-180685771D01*
X189002202Y-180685771D01*
X188859344Y-180614343D01*
X188787916Y-180542914D01*
X188716487Y-180400057D01*
X188716487Y-179971486D01*
X188787916Y-179828629D01*
X188859344Y-179757200D01*
X189002202Y-179685771D01*
X189287916Y-179685771D01*
X189430773Y-179757200D01*
X190787916Y-179685771D02*
X190787916Y-180685771D01*
X190145059Y-179685771D02*
X190145059Y-180471486D01*
X190216487Y-180614343D01*
X190359345Y-180685771D01*
X190573630Y-180685771D01*
X190716487Y-180614343D01*
X190787916Y-180542914D01*
X191502202Y-180685771D02*
X191502202Y-179685771D01*
X191502202Y-179185771D02*
X191430773Y-179257200D01*
X191502202Y-179328629D01*
X191573630Y-179257200D01*
X191502202Y-179185771D01*
X191502202Y-179328629D01*
X192002202Y-179685771D02*
X192573631Y-179685771D01*
X192216488Y-179185771D02*
X192216488Y-180471486D01*
X192287916Y-180614343D01*
X192430774Y-180685771D01*
X192573631Y-180685771D01*
X193716488Y-180685771D02*
X193716488Y-179900057D01*
X193645059Y-179757200D01*
X193502202Y-179685771D01*
X193216488Y-179685771D01*
X193073631Y-179757200D01*
X193716488Y-180614343D02*
X193573631Y-180685771D01*
X193216488Y-180685771D01*
X193073631Y-180614343D01*
X193002202Y-180471486D01*
X193002202Y-180328629D01*
X193073631Y-180185771D01*
X193216488Y-180114343D01*
X193573631Y-180114343D01*
X193716488Y-180042914D01*
X194430774Y-180685771D02*
X194430774Y-179685771D01*
X194430774Y-179971486D02*
X194502202Y-179828629D01*
X194573631Y-179757200D01*
X194716488Y-179685771D01*
X194859345Y-179685771D01*
X195359345Y-180542914D02*
X195430773Y-180614343D01*
X195359345Y-180685771D01*
X195287916Y-180614343D01*
X195359345Y-180542914D01*
X195359345Y-180685771D01*
X196287917Y-180685771D02*
X196145059Y-180614343D01*
X196073631Y-180542914D01*
X196002202Y-180400057D01*
X196002202Y-179971486D01*
X196073631Y-179828629D01*
X196145059Y-179757200D01*
X196287917Y-179685771D01*
X196502202Y-179685771D01*
X196645059Y-179757200D01*
X196716488Y-179828629D01*
X196787917Y-179971486D01*
X196787917Y-180400057D01*
X196716488Y-180542914D01*
X196645059Y-180614343D01*
X196502202Y-180685771D01*
X196287917Y-180685771D01*
X197430774Y-180685771D02*
X197430774Y-179685771D01*
X197430774Y-179971486D02*
X197502202Y-179828629D01*
X197573631Y-179757200D01*
X197716488Y-179685771D01*
X197859345Y-179685771D01*
X199002202Y-179685771D02*
X199002202Y-180900057D01*
X198930773Y-181042914D01*
X198859345Y-181114343D01*
X198716488Y-181185771D01*
X198502202Y-181185771D01*
X198359345Y-181114343D01*
X199002202Y-180614343D02*
X198859345Y-180685771D01*
X198573631Y-180685771D01*
X198430773Y-180614343D01*
X198359345Y-180542914D01*
X198287916Y-180400057D01*
X198287916Y-179971486D01*
X198359345Y-179828629D01*
X198430773Y-179757200D01*
X198573631Y-179685771D01*
X198859345Y-179685771D01*
X199002202Y-179757200D01*
D10*
D11*
X178359343Y-177685771D02*
X178359343Y-176685771D01*
X178359343Y-176971486D02*
X178430771Y-176828629D01*
X178502200Y-176757200D01*
X178645057Y-176685771D01*
X178787914Y-176685771D01*
X179859342Y-177614343D02*
X179716485Y-177685771D01*
X179430771Y-177685771D01*
X179287914Y-177614343D01*
X179216485Y-177471486D01*
X179216485Y-176900057D01*
X179287914Y-176757200D01*
X179430771Y-176685771D01*
X179716485Y-176685771D01*
X179859342Y-176757200D01*
X179930771Y-176900057D01*
X179930771Y-177042914D01*
X179216485Y-177185771D01*
X180573628Y-177685771D02*
X180573628Y-176685771D01*
X180573628Y-176828629D02*
X180645056Y-176757200D01*
X180787914Y-176685771D01*
X181002199Y-176685771D01*
X181145056Y-176757200D01*
X181216485Y-176900057D01*
X181216485Y-177685771D01*
X181216485Y-176900057D02*
X181287914Y-176757200D01*
X181430771Y-176685771D01*
X181645056Y-176685771D01*
X181787914Y-176757200D01*
X181859342Y-176900057D01*
X181859342Y-177685771D01*
X182787914Y-177685771D02*
X182645056Y-177614343D01*
X182573628Y-177542914D01*
X182502199Y-177400057D01*
X182502199Y-176971486D01*
X182573628Y-176828629D01*
X182645056Y-176757200D01*
X182787914Y-176685771D01*
X183002199Y-176685771D01*
X183145056Y-176757200D01*
X183216485Y-176828629D01*
X183287914Y-176971486D01*
X183287914Y-177400057D01*
X183216485Y-177542914D01*
X183145056Y-177614343D01*
X183002199Y-177685771D01*
X182787914Y-177685771D01*
X183787914Y-176685771D02*
X184145057Y-177685771D01*
X184502199Y-176685771D01*
X185645056Y-177614343D02*
X185502199Y-177685771D01*
X185216485Y-177685771D01*
X185073628Y-177614343D01*
X185002199Y-177471486D01*
X185002199Y-176900057D01*
X185073628Y-176757200D01*
X185216485Y-176685771D01*
X185502199Y-176685771D01*
X185645056Y-176757200D01*
X185716485Y-176900057D01*
X185716485Y-177042914D01*
X185002199Y-177185771D01*
X187002199Y-177685771D02*
X187002199Y-176185771D01*
X187002199Y-177614343D02*
X186859342Y-177685771D01*
X186573628Y-177685771D01*
X186430770Y-177614343D01*
X186359342Y-177542914D01*
X186287913Y-177400057D01*
X186287913Y-176971486D01*
X186359342Y-176828629D01*
X186430770Y-176757200D01*
X186573628Y-176685771D01*
X186859342Y-176685771D01*
X187002199Y-176757200D01*
X189502199Y-176685771D02*
X189502199Y-177900057D01*
X189430770Y-178042914D01*
X189359342Y-178114343D01*
X189216485Y-178185771D01*
X189002199Y-178185771D01*
X188859342Y-178114343D01*
X189502199Y-177614343D02*
X189359342Y-177685771D01*
X189073628Y-177685771D01*
X188930770Y-177614343D01*
X188859342Y-177542914D01*
X188787913Y-177400057D01*
X188787913Y-176971486D01*
X188859342Y-176828629D01*
X188930770Y-176757200D01*
X189073628Y-176685771D01*
X189359342Y-176685771D01*
X189502199Y-176757200D01*
X190216485Y-177685771D02*
X190216485Y-176685771D01*
X190216485Y-176971486D02*
X190287913Y-176828629D01*
X190359342Y-176757200D01*
X190502199Y-176685771D01*
X190645056Y-176685771D01*
X191359342Y-177685771D02*
X191216484Y-177614343D01*
X191145056Y-177542914D01*
X191073627Y-177400057D01*
X191073627Y-176971486D01*
X191145056Y-176828629D01*
X191216484Y-176757200D01*
X191359342Y-176685771D01*
X191573627Y-176685771D01*
X191716484Y-176757200D01*
X191787913Y-176828629D01*
X191859342Y-176971486D01*
X191859342Y-177400057D01*
X191787913Y-177542914D01*
X191716484Y-177614343D01*
X191573627Y-177685771D01*
X191359342Y-177685771D01*
X193145056Y-176685771D02*
X193145056Y-177685771D01*
X192502199Y-176685771D02*
X192502199Y-177471486D01*
X192573627Y-177614343D01*
X192716485Y-177685771D01*
X192930770Y-177685771D01*
X193073627Y-177614343D01*
X193145056Y-177542914D01*
X193859342Y-176685771D02*
X193859342Y-177685771D01*
X193859342Y-176828629D02*
X193930770Y-176757200D01*
X194073628Y-176685771D01*
X194287913Y-176685771D01*
X194430770Y-176757200D01*
X194502199Y-176900057D01*
X194502199Y-177685771D01*
X195859342Y-177685771D02*
X195859342Y-176185771D01*
X195859342Y-177614343D02*
X195716485Y-177685771D01*
X195430771Y-177685771D01*
X195287913Y-177614343D01*
X195216485Y-177542914D01*
X195145056Y-177400057D01*
X195145056Y-176971486D01*
X195216485Y-176828629D01*
X195287913Y-176757200D01*
X195430771Y-176685771D01*
X195716485Y-176685771D01*
X195859342Y-176757200D01*
X197645056Y-177614343D02*
X197787913Y-177685771D01*
X198073628Y-177685771D01*
X198216485Y-177614343D01*
X198287913Y-177471486D01*
X198287913Y-177400057D01*
X198216485Y-177257200D01*
X198073628Y-177185771D01*
X197859342Y-177185771D01*
X197716485Y-177114343D01*
X197645056Y-176971486D01*
X197645056Y-176900057D01*
X197716485Y-176757200D01*
X197859342Y-176685771D01*
X198073628Y-176685771D01*
X198216485Y-176757200D01*
X199502199Y-177614343D02*
X199359342Y-177685771D01*
X199073628Y-177685771D01*
X198930771Y-177614343D01*
X198859342Y-177471486D01*
X198859342Y-176900057D01*
X198930771Y-176757200D01*
X199073628Y-176685771D01*
X199359342Y-176685771D01*
X199502199Y-176757200D01*
X199573628Y-176900057D01*
X199573628Y-177042914D01*
X198859342Y-177185771D01*
X200216485Y-176685771D02*
X200216485Y-178185771D01*
X200216485Y-176757200D02*
X200359342Y-176685771D01*
X200645056Y-176685771D01*
X200787913Y-176757200D01*
X200859342Y-176828629D01*
X200930771Y-176971486D01*
X200930771Y-177400057D01*
X200859342Y-177542914D01*
X200787913Y-177614343D01*
X200645056Y-177685771D01*
X200359342Y-177685771D01*
X200216485Y-177614343D01*
X202216485Y-177685771D02*
X202216485Y-176900057D01*
X202145056Y-176757200D01*
X202002199Y-176685771D01*
X201716485Y-176685771D01*
X201573628Y-176757200D01*
X202216485Y-177614343D02*
X202073628Y-177685771D01*
X201716485Y-177685771D01*
X201573628Y-177614343D01*
X201502199Y-177471486D01*
X201502199Y-177328629D01*
X201573628Y-177185771D01*
X201716485Y-177114343D01*
X202073628Y-177114343D01*
X202216485Y-177042914D01*
X202930771Y-177685771D02*
X202930771Y-176685771D01*
X202930771Y-176971486D02*
X203002199Y-176828629D01*
X203073628Y-176757200D01*
X203216485Y-176685771D01*
X203359342Y-176685771D01*
X204502199Y-177685771D02*
X204502199Y-176900057D01*
X204430770Y-176757200D01*
X204287913Y-176685771D01*
X204002199Y-176685771D01*
X203859342Y-176757200D01*
X204502199Y-177614343D02*
X204359342Y-177685771D01*
X204002199Y-177685771D01*
X203859342Y-177614343D01*
X203787913Y-177471486D01*
X203787913Y-177328629D01*
X203859342Y-177185771D01*
X204002199Y-177114343D01*
X204359342Y-177114343D01*
X204502199Y-177042914D01*
X205002199Y-176685771D02*
X205573628Y-176685771D01*
X205216485Y-176185771D02*
X205216485Y-177471486D01*
X205287913Y-177614343D01*
X205430771Y-177685771D01*
X205573628Y-177685771D01*
X206073628Y-177685771D02*
X206073628Y-176685771D01*
X206073628Y-176185771D02*
X206002199Y-176257200D01*
X206073628Y-176328629D01*
X206145056Y-176257200D01*
X206073628Y-176185771D01*
X206073628Y-176328629D01*
X207002200Y-177685771D02*
X206859342Y-177614343D01*
X206787914Y-177542914D01*
X206716485Y-177400057D01*
X206716485Y-176971486D01*
X206787914Y-176828629D01*
X206859342Y-176757200D01*
X207002200Y-176685771D01*
X207216485Y-176685771D01*
X207359342Y-176757200D01*
X207430771Y-176828629D01*
X207502200Y-176971486D01*
X207502200Y-177400057D01*
X207430771Y-177542914D01*
X207359342Y-177614343D01*
X207216485Y-177685771D01*
X207002200Y-177685771D01*
X208145057Y-176685771D02*
X208145057Y-177685771D01*
X208145057Y-176828629D02*
X208216485Y-176757200D01*
X208359343Y-176685771D01*
X208573628Y-176685771D01*
X208716485Y-176757200D01*
X208787914Y-176900057D01*
X208787914Y-177685771D01*
X210645057Y-177685771D02*
X210645057Y-176685771D01*
X210645057Y-176185771D02*
X210573628Y-176257200D01*
X210645057Y-176328629D01*
X210716485Y-176257200D01*
X210645057Y-176185771D01*
X210645057Y-176328629D01*
X211359343Y-176685771D02*
X211359343Y-177685771D01*
X211359343Y-176828629D02*
X211430771Y-176757200D01*
X211573629Y-176685771D01*
X211787914Y-176685771D01*
X211930771Y-176757200D01*
X212002200Y-176900057D01*
X212002200Y-177685771D01*
X213359343Y-177685771D02*
X213359343Y-176185771D01*
X213359343Y-177614343D02*
X213216486Y-177685771D01*
X212930772Y-177685771D01*
X212787914Y-177614343D01*
X212716486Y-177542914D01*
X212645057Y-177400057D01*
X212645057Y-176971486D01*
X212716486Y-176828629D01*
X212787914Y-176757200D01*
X212930772Y-176685771D01*
X213216486Y-176685771D01*
X213359343Y-176757200D01*
X214716486Y-176685771D02*
X214716486Y-177685771D01*
X214073629Y-176685771D02*
X214073629Y-177471486D01*
X214145057Y-177614343D01*
X214287915Y-177685771D01*
X214502200Y-177685771D01*
X214645057Y-177614343D01*
X214716486Y-177542914D01*
X216073629Y-177614343D02*
X215930772Y-177685771D01*
X215645058Y-177685771D01*
X215502200Y-177614343D01*
X215430772Y-177542914D01*
X215359343Y-177400057D01*
X215359343Y-176971486D01*
X215430772Y-176828629D01*
X215502200Y-176757200D01*
X215645058Y-176685771D01*
X215930772Y-176685771D01*
X216073629Y-176757200D01*
X216502200Y-176685771D02*
X217073629Y-176685771D01*
X216716486Y-176185771D02*
X216716486Y-177471486D01*
X216787914Y-177614343D01*
X216930772Y-177685771D01*
X217073629Y-177685771D01*
X217787915Y-177685771D02*
X217645057Y-177614343D01*
X217573629Y-177542914D01*
X217502200Y-177400057D01*
X217502200Y-176971486D01*
X217573629Y-176828629D01*
X217645057Y-176757200D01*
X217787915Y-176685771D01*
X218002200Y-176685771D01*
X218145057Y-176757200D01*
X218216486Y-176828629D01*
X218287915Y-176971486D01*
X218287915Y-177400057D01*
X218216486Y-177542914D01*
X218145057Y-177614343D01*
X218002200Y-177685771D01*
X217787915Y-177685771D01*
X218930772Y-177685771D02*
X218930772Y-176685771D01*
X218930772Y-176971486D02*
X219002200Y-176828629D01*
X219073629Y-176757200D01*
X219216486Y-176685771D01*
X219359343Y-176685771D01*
D10*
D11*
X197002200Y-191507200D02*
X197002200Y-194507200D01*
D10*
D11*
X261002200Y-191507200D02*
X261002200Y-198007200D01*
D10*
X248920000Y-17780000D02*
X251460000Y-17780000D01*
X248920000Y-161290000D02*
X251460000Y-161290000D01*
X248920000Y-161290000D02*
X62230000Y-161290000D01*
X251460000Y-161290000D02*
X251460000Y-17780000D01*
X62230000Y-17780000D02*
X62230000Y-161290000D01*
X69850000Y-17780000D02*
X62230000Y-17780000D01*
X248920000Y-17780000D02*
X69850000Y-17780000D01*
X187086666Y-147320000D02*
G75*
G03X187086666Y-147320000I-1666666J0D01*
G01*
X182920000Y-147320000D02*
X187920000Y-147320000D01*
X185420000Y-144820000D02*
X185420000Y-149820000D01*
X87391666Y-88265000D02*
G75*
G03X87391666Y-88265000I-1666666J0D01*
G01*
X83225000Y-88265000D02*
X88225000Y-88265000D01*
X85725000Y-85765000D02*
X85725000Y-90765000D01*
X246776666Y-49530000D02*
G75*
G03X246776666Y-49530000I-1666666J0D01*
G01*
X242610000Y-49530000D02*
X247610000Y-49530000D01*
X245110000Y-47030000D02*
X245110000Y-52030000D01*
M02*
